<svg height="500" width="1000" xmlns="http://www.w3.org/2000/svg" xmlns:xlink="http://www.w3.org/1999/xlink"><clipPath id="a"><path d="m376.51 307.82h244.2l.59844 31.859-18.622 15.508-102.75 47.558-104-52.515c-11.81-5.6067-19.551-17.815-19.551-30.9l.1325-11.51"/></clipPath><path d="m0 0v500h1000v-500z" fill="#0d3692"/><path d="m376.38 178.46v53.652h247.1v-53.652z" fill="#0d3692"/><path d="m414.68 197.22 20.119 4.205 13.947 9.7423 34.164-13.512 7.6114-5.4741 20.088 10.443 10.844 10.077 21.183-10.412 6.579 1.3354 9.6728 6.2065 21.985-11.078 3.0686 1.4364 4.7385.56509 12.012 3.7378 22.891 12.044.62703 30.639-249.17-.80255 1.004-27.765" fill="#bdbdbd"/><path d="m376.38 272.82v31.831h247.1v-31.831z" fill="#bdbdbd"/><path d="m376.38 304.65v-31.831h247.1v31.831z" fill="none" stroke="#231f20" stroke-width=".609286"/><path d="m374.81 94.604v80.773h250.24v-80.773z" fill="#fff"/><path d="m376.51 307.82h247.21l-.1325 11.475c0 13.079-7.7376 25.296-19.551 30.9l-104.1 52.55-104-52.515c-11.81-5.6067-19.551-17.815-19.551-30.9l.1325-11.51" fill="#feba35"/><path d="m482.92 94.563h34.167v27.143h108.27v26.66h-108.27v26.978h-34.167v-26.978h-109.31v-26.66h109.31" fill="#fc1921"/><path d="m372.34 178.46h251.49l.17925-5.1079h-251.66z" fill="#0b0b0b"/><path d="m376.38 270.29v2.535h247.21v-2.535z"/><path d="m376.38 304.65v3.1727h247.21v-3.1727z" fill="#0b0b0b"/><g><path d="m565.09 291.01c-1.67.96918-3.4379 2.0646-4.3408 3.8672h-.3946l-.71032.23675c-1.3354.63455-2.7212 1.4332-2.9202 2.9991-.199.038-.6377.0315-.86815 0-1.168-1.7679-3.741-1.9384-4.3408.3946-.4325.56825-2.5192.74187-3.1569.47355-.966-.53353-1.9194-1.0355-2.9202-.86815-.47038.0665-.90603.243-1.3417.71029l-.0788-.15774c-1.5658-.80503-2.3298-.82081-3.8672.0787-1.0355.73873-1.4143.65348-2.6834.78923-2.4687 1.067-1.5564 2.8633-.15775 4.2618l1.4206-.15775c2.2004-.19875 4.4734-.14525 6.7084-.0787 1.9005.0695 3.7378.1355 5.6036 0 2.3677-.3662 4.8459.101 7.182 0 12.508-.63455 25.104-.183 37.646-.3157 1.7079 0 3.4284-.0917 5.13-.15775 4.3029-.23375 8.5237-.44818 12.864-.0788 1.771.2305 2.5098.183 3.3148-1.4206-.29992-2.4687-1.4238-1.8405-2.9991-2.8412-1.127-.73557-1.79-.88078-3.1569-.94707-.704.63455-.72295.92497-1.6574.78922-1.6353-.39777-2.2951-.83962-3.8672-.23675l-.63138.15775c-2.6708.30308-6.0866-.89025-8.9972-.78922-.86185.0315-1.711.18625-2.4466.55245-.2999.0348-.65032-.10426-.94707-.23675-1.3732-.86816-2.0141-1.4301-3.7883-1.2628l-.15775-.15775c-.96288-2.6708-2.4056-3.8104-4.9722-2.2098-1.6668-1.1712-3.4442.51458-4.5776 1.5785-.76713-.56511-2.4845-.10726-3.3148.15774-.53985.1355-.6535.0285-1.1838-.23674l-.94708.23674c-1.4017-1.0323-2.093-2.6234-4.2618-1.6574-.3662 0-2.1183-2.5381-2.6834-3.078l-1.4997-.39486z"/><path d="m609.29 284.15c-.90525-.0548-1.8105.39619-2.7623 1.2628-.90288.5714-1.8531.2778-2.9202.0788l-.86815.7103-.23675.0787c-1.8405.19875-3.1317-1.1176-4.7354.55247-.53668.39775-1.1902.47353-1.8942.47353-2.1341.0315-4.7828-1.1586-6.3138.7103-1.1049-1.1018-3.0685-1.7521-4.3408-.55245h-.0787c-.96917-.23375-2.2035-.97865-3.2358-1.3417-.63767.76715-.84605 1.1838-1.8152 1.1838-1.5658-.13575-2.7339-.30623-4.104.6314-1.8689 1.4332-1.5342 2.3046-.63138 4.104 2.8065.60298 5.5751.2715 8.4448.47355 2.1372.2999 4.0945-.57152 6.156-.23675 2.0394-.0695 3.9904.51143 5.9192.71033 1.1712.1325 2.3108.1735 3.5515-.15775.16424-.0695.77977-.39463.94707-.39463 2.8949.76713 5.613-.158 8.4448.0787 2.5697.5651 5.1679-.005 7.7344.15775l1.6574.23675 2.8412-2.3677-.3157-1.3417-.23675-.7103c-1.1996-1.9699-2.8412-4.2271-5.4457-3.1569-1.067.6661-.90605.60297-1.9731.23675l-.71032.47352h-.15775l-.3157-.23675c-.80345-1.0166-1.6992-1.6026-2.6044-1.6574z"/><path d="m575.04 274.91c-1.6926-.13149-3.8909.56443-5.2878.78926-2.5697-.1675-4.445-1.0134-6.9452-.0788-1.2028.66611-3.924.31568-5.2879.31568-2.5066.0978-5.2847.47355-6.5506 2.8412.39777.86815.71977 1.2691 1.4206 1.9731 4.7701 0 9.5876-.26823 14.364 0 .29992.2335.94392.53035 1.3417.63137 2.0047.36938 4.0188-.57442 5.9192.15775 4.3029-.7324 8.3564.0535 12.628-.0788 2.9044-.33147 6.2381.63455 9.234.23675 1.007-.13575 1.9825-.37882 2.9202-.94707 3.7346 1.67 7.5135.31567 11.444.31567l.9471-2.8412c-2.434-1.6353-3.6084-1.8152-6.5506-1.8152-.63137-.0665-1.3764-.30622-1.9731-.47355-1.1365.5651-2.5445.7419-3.5516 1.3417l-.47352-.23675c-.96288-.1325-1.8278-.56822-2.7623-.86815-.7261-.26517-1.5658-.42617-2.3677-.3946-1.2691-.36305-2.0425.15775-3.078.78923l-.47355-.86815c-3.4379-.1325-7.0904.24-10.497-.39463-1.2691-.33462-1.7205-.68832-2.9202.0788-.41673-.292-.93535-.4297-1.4996-.47355z"/><path d="m538.97 283.51c-1.0378-.033-2.1594.47353-3.1569 1.3417-1.7395-1.7363-3.0338-.93763-4.7354.3946-1.2344 1.9699-3.3748 1.8784-5.4457 1.5785-.6314.70083-1.0449 1.3417-1.9731 1.5784-1.67-1.1018-2.8665-.34422-4.4986.15775-.80501.1325-1.5879-.15775-2.5255-.15775-.87133.0315-2.4971.8871-3.2358.78923-1.3985-.36935-2.0583.4325-3.1569.86817l-.63137-.47355c-1.5343.202-2.1941-.0315-3.6305-.63137-1.7963-.4988-2.6739-.4704-4.1829.63137-1.127.59983-2.0804 1.2375-3.078 1.9731v1.026l1.1049 1.3417c3.5358.2305 7.1157.3725 10.655.47352 2.3677 0 4.8648.37568 7.1031-.15775 2.1941-.19875 4.1103.47355 6.3138-.3946l8.2869.55245.71032-.55245c1.7394-.63455 4.1956-.0948 5.9982.23675 2.172.3315 4.3818.0885 6.5506-.0788 1.5374-.101 3.0433-.142 4.5776.15775.47038-.101.95337-.12624 1.4206-.15775 2.0015 0 2.434-.48617 3.3937-2.2888-.66295-.76397-.87448-1.1933-1.8152-1.6574-1.3322-1.3386-3.0496-.60614-4.1829-1.3417-.96285-1.1996-2.1909-1.6479-3.3937-1.1838-.40092.17051-.81763.42303-1.1838.78923-.43565-.865-.81763-1.689-1.4206-2.5255-.49565-.0665-.7987-.139-1.1049-.47354-.78292-1.2344-1.7245-1.7821-2.7623-1.8152z"/><path d="m487.67 275.07c-1.9352.96603-3.7883.92816-5.2878 2.7623l-.0788-.3157c-.96603-.36937-1.5722-.6598-2.6045-.6314-1.7679-.0948-3.7788-1.7458-5.4457-.7103-1.2344.73557-3.3116-.12925-4.5776-.63137-2.5697 1.3006-4.2208 1.2186-7.0242.55244-1.9005 1.2975-3.7346 2.3898-5.3668 4.0251l.47355 1.1049c1.2344 1.8373 2.5476 1.0892 4.4197.78923 5.5025-.73555 10.992.0317 16.495-.23675 1.5058-.101 2.6076-.19875 3.4726-1.4996.66925.66613 1.1049.91867 1.9731 1.1838 4.7006.26835 9.5812-.15775 14.285-.15775h.31567c7.1726-.16725 14.639.22725 21.783.39462 1.7647-.23025 2.052-1.3954 2.052-2.9991-1.3701-1.367-2.5287-1.7616-4.4986-1.8942-1.3354-.19875-1.367-.2811-2.3677-1.1838l-1.1049.31567c-2.4308.16725-4.7448-.99757-7.182-.63137-.50195.101-1.045.44512-1.5785.47355-1.4017-.39778-2.9264-1.0355-4.2618-.23675-.6631-.1645-1.2724-.31595-1.9732-.31595-.30308.0665-.57143.17025-.86818.23675-1.0039.33462-2.011.7545-3.078.55245-2.6013-.49878-5.2689-.94708-7.9712-.94708z"/><path d="m498.7 292.61v-1.0702c-.16726.13574-.33463.26832-.50196.40092l.50196.66927"/><path d="m498.36 301.57v-2.1688c-.16725-.2999-.47352-.63452-.83975-1.168-.59665.0665-1.6952.29989-2.2351 0-.99443-.3662-1.9668-1.0008-2.9991-1.3007-1.1649-1.468-2.8728-1.2344-4.5396-1.0355l.0315-.0315.13575-.70083-.0665-.8366c-1.8342-3.0338-3.9398-1.9983-6.3738-.49562-1.3322-1.0355-2.1025-.9376-3.6021-.2715l-.33462-.33147-1.1681-.89973c-1.0039.3662-1.771.80185-2.6013.0978-3.8388-1.4996-4.4702 1.168-6.4433 3.4379-1.7994-.90288-3.5673.59982-4.9374 1.5658-.83342.57143-1.0986.23675-2.1025-.19875-.63454.3662-1.2312.73558-1.7016 1.2691-1.5311-.63453-3.2011-.56823-4.6375.29992-1.7963-1.1334-2.8002-.0665-4.5365.5335-2.2004.73558-5.2058-1.1333-4.9027 2.8696.63138.59983 1.3006 1.1996 2.1656 1.4017 5.7077.101 11.482-.83658 17.152-1.1365 6.1055-.12951 12.315-.063 18.421-.063 4.8743.16425 9.8748.098 14.746.098l1.3701-.93446"/><path d="m405.57 296.34c.4325.1705 1.0386-.46407 1.468-.6314 1.8405-.49878 2.9706.39777 4.6407.66613.70083 0 1.3985-.26835 2.0709-.4325.83343 2.1656.72925 1.9004 2.9328 2.2667l.9029.36935.29675.19875c1.168-.36935 3.34.2305 4.407.704 2.2698 1.3322 1.2344 3.0685-.56826 3.9682-7.5103-.26518-15.248.36305-22.689-1.0039-3.0685.4041-6.639.0348-9.7738-.0977-2.0678-.0665-2.5729-.101-3.8388-1.67.59983-1.1333.7987-1.6006 1.9036-2.2351.32832-.16725.73243-.46722 1.0323-.59982.63138-2.2035 3.0338-2.0362 4.8711-2.0362.56825-.33148 1.067-1.3006 1.5027-1.7679 1.4332-1.6006 2.8318-1.6353 4.3723-.101 2.5666-.3662 3.902.1355 5.7014 1.9384.2335.16425.56823.39778.76713.46408"/><path d="m451.32 285.47c1.1712-.30304 1.3354.0662 2.3361.53353 1.3354.46407 2.7686.83342 4.1672 1.1365.70397 2.232.13575 2.6992-1.7332 3.299h-.40095l-24.39-.0662c-2.3014.4325-4.7701-.1295-7.0715.16724-3.0685 0-6.377.50196-9.3066-.46722l-.0695-.0285c-1.4711.96285-4.4702.5935-5.9382-.23675l-1.1649-.86815c1.0323-2.2351 1.7647-3.1348 4.0661-3.9367 1.1018.33147 2.0015.4988 2.9707-.1325 1.1333-1.1018 2.4687-1.1018 3.6368-.0662 1.7363 1.1996 3.4316-.40408 5.0037-1.2344.83343-.3378 3.4379-.86815 3.9051.0665 1.2028-1.0355 2.2698-1.2028 3.7031-.4041.53352.56825 2.0394 2.1025 2.9012 1.5343 1.468-2.232 3.3369-1.5658 5.0384-.16425.4704.202.66927.16425 1.2344.0977.23675.10425 1.3385.63453 1.6037.63453 2.1372-2.1341 5.4078.53352 8.0407.30307.4325 0 1.0323-.101 1.468-.16725"/><path d="m407.88 275.96c1.2659-.50195 1.932-.56822 3.3369-.46722.76398 1.367.86498.96917 2.4024 1.0355 1.0008.19875 1.3322.83343 2.2351 1.0323 1.9036.16725 2.8696.43565 4.6344 1.2691-.62822 2.0994-.76397 2.5697-2.8318 2.8697-1.6732.93444-4.9753-.33465-7.0431.26517l-.26519.0662c-1.2028.60297-4.104 0-5.6414-.0978-1.1996-.0665-2.1688.0665-3.2674.43565-3.3369-.40408-6.9042-.16725-10.247-.43565-2.4308 0-4.8332.19875-7.2704.0978l-.8366-1.5974.2715-1.4048 1.0323-.56508c.60298-.13549 1.468-.202 2.033-.33462 1.771-1.9351 4.8396-2.1687 7.1757-2.9011.53352.3662.7703.63455 1.3354.70085 1.6353 0 3.1064-.66927 4.6722.19875 2.4687-.96917 4.5396.93445 6.7684.4988.50195-.19875 1.0039-.4325 1.5058-.66612"/></g><g fill="#0d6826"><path d="m609.61 278.79-.34095.9313c-3.4632 0-6.7684 1.4364-9.9727-.16425 0-1.9352 2.3046-1.2691 3.4726-2.2035 2.2698.86815 4.8017-.2335 6.841 1.4364"/><path d="m565.25 292.51c-1.5343.86815-3.198 2.0204-3.6305 3.7883-1.4995-.50196-2.3708.74187-3.4726 1.3417-.16724.56824-.0442 1.3228-.71032 1.6574-.93443.26835-2.3235.41358-2.9202-.78923-.39777-.26517-1.247-.66927-1.5784 0-.33462 2.1025-2.6581 1.8058-4.2618 1.9731-1.1018 0-2.232-1.6574-3.3937-1.026-.1735.1325-.38513.31885-.55245.55247-.4988.49878-1.3259.25256-1.6574-.3157-1.1681-.93444-2.3929.53353-3.3937.86815-.66928.53353-1.7679-.20499-2.3677.63141-.0978.49877.139.81447.47355 1.1838 2.3361-.33462 4.9216-.224 7.4977-.15775 1.7647.0727 3.5042.17675 5.2089.0788 2.2035-.26833 4.1956-.26833 6.3928 0 13.281-.77342 26.31-.3062 39.225-.47353 6.4022.16726 12.928-1.0007 19.099 0l.47352-.31569c.26518-.23025.0175-.67873-.3157-.94708-1.4332.101-2.2477-1.5879-3.7883-1.4206-1.3322 1.7047-3.4347.25873-4.9722.15775-4.1356 1.8721-8.3248-1.1649-12.391 0-2.434 1.2691-3.2927-2.0078-5.7614-1.1049-1.4964-.56823-1.1649-2.2446-2.3677-3.078-.93761-.50195-1.7458.63455-2.6834.86817-1.8342-1.7679-2.9864 1.2438-4.4197 1.5784-1.5342-1.5027-3.1474.865-4.6564-.23675-1.9289.73557-2.3393-1.6258-3.9462-1.8942-2.3708 1.5374-2.9864-1.73-4.4197-2.7623l-.7103-.15775z"/><path d="m539.13 284.78c-.1985.007-.4471.041-.71033.15776-.9376 0-1.7237.83342-2.2888 1.4995-.7703 0-1.2912-.6819-1.8942-1.1838-.83343-.26517-1.528.30307-2.1309.86815-1.1617 1.9668-3.6494 2.4656-5.9192 2.1309-.77345.93129-1.8184 1.4869-2.9202 1.4206-1.6984-1.6037-3.2706.72293-5.2089.39463-1.9352-1.206-3.4347 1.086-5.3668.31567-1.1049.26518-2.3708 1.7994-3.4726.6314-2.3393.50195-3.5515-1.5374-5.9192-.86817-.9376 1.0355-2.3361 1.1365-3.2358 1.9731l.39462.55248c5.0763.4325 10.945.31885 16.021.55245 2.3708-1.168 4.8774.72295 7.182-.7103l8.1291.47355c1.5374-1.1996 3.9619-.55248 5.7614-.55248 2.5666.96918 5.1584.42303 7.7344.15775 1.5658-.13575 3.1348-.13225 4.7354.23675 1.1018-.4041 2.8349.221 3.2358-.94707-.2335-.3662-.53038-.55248-.86818-.55248-1.1996-1.7016-3.9682-.17675-4.9722-2.2098-.86497-.73555-1.5342-.45445-2.1309.0788-.33778.29993-.59665.67875-.86815.94708-1.6037-.50195-1.4206-2.2225-2.2888-3.1569-1.6132.058-1.6098-2.2554-2.9991-2.2098z"/><path d="m577.77 276.19c3.6084 1.4364 7.242.50195 11.381.83657 1.2691 2.8002 2.4719-.93444 4.2366.0978 1.7047-.43248 3.2074 1.0986 4.8048 1.1681.50513.26517.60298.76713.2652 1.0986-3.2958 2.2036-7.2736.33465-11.141.60298-4.2366.56825-8.8078-.86815-13.18.16725-2.3646-1.0355-4.8364 1.0008-6.9389-.70085-4.909-.33463-9.376 0-14.279-.0695-.23375-.26518-.66927-.49563-.33465-.83343 2.8034-2.033 7.0052-.9313 10.311-1.4332 2.6992-1.8657 5.6698.8366 8.5426-.43247 1.4964 0 3.2674-1.2028 4.7354 0 .66927.33462 1.0039-.3315 1.5974-.50198"/><path d="m613.25 287.07c1.4995.86815 2.434-1.4996 3.8704-.56825 1.0323 1.1018 2.3014 2.2698 2.4655 3.5421l-1.7679 1.4332c-2.9675-.50195-6.1023.4325-8.8078-.33463-2.8696-.26834-5.9729 1.0008-8.7731-.16724-3.2074 2.0362-6.5727-.43565-10.143 0-1.5027-.33463-3.4695.16724-5.1426.33147-2.6329-.5998-6.0045.1705-8.7068-.4325-.16725-.33462-.59665-.83025-.16725-1.168 1.6006-2.636 4.5712.3378 6.2412-2.0362 1.367.43568 2.9706 2.0362 4.1419.50195 1.7963-.50195 2.8002 2.8034 4.2997.43568 2.9044-1.1018 6.0076 1.5027 8.309-1.2691 1.6006-.26833 3.4347 1.1018 4.8711-.43565 1.4301.3378 2.6992.3378 3.8009-.83343.70715-.4988 1.8721-.93444 2.535-.16749.704 1.0007 1.872 2.0362 2.9738 1.1681"/><path d="m496.43 277.53c1.7679-.1705 3.5326-1.771 5.2373-.40092 1.8342-1.8689 3.3653.89972 5.471-.36938 2.8696-.83342 5.07 1.2691 8.208.36938 1.6006 1.6668 4.3692.40092 5.9066 2.0994.0665.59983-.26832 1.1018-.83342 1.1018-11.412-.33147-22.222-.59982-33.703 0-1.1996-.33147-2.6992.23676-3.5705-.93444.5051-2.3677 3.3084-2.0362 4.8048-2.9675 2.9675 0 5.7772.53037 8.4795 1.1018"/><path d="m475.21 277.13c1.8689 0 3.2011 1.4332 5.171 1.0986.23375.23675.93445 0 .83661.5714 0 .76715-.60298 1.2659-1.2723 1.5311-7.1062.66926-13.843-.865-20.454.83343-.33462-.16425-.56507-.42935-.66609-.76715 1.0039-1.168 2.7023-1.8342 4.0724-2.8665 2.2698.49881 4.8048.69768 6.8379-.4988 1.771.66613 3.8704 1.2659 5.4741.0977"/><path d="m476.14 293.83c.76082.43565 1.2028 1.5342 2.2982.93128.56825-.26518 1.3385-.66611 1.9352-.098l.8366.5998c1.7679-.16425 3.902-3.1348 5.3384-.50195.32833.9376-1.2028 1.771-.26517 2.4372 1.8657.53352 3.9682-1.168 5.2342.9376 1.872.26517 3.2043 2.0331 5.4078 1.5311.16726.33465.66613.50197.50196.93445l-.83975.56825c-9.6412.16725-18.913-.40093-28.889 0-7.1094-.40093-13.417 1.367-20.858 1.1018-.33462-.0665-.69767-.33462-1.0323-.6661-.23675-.60297.33463-.7703.69767-.8366 2.0046.56825 3.9714-.33462 5.7393-1.1996.66612-.0662 1.1049.59982 1.6006.93445 1.3354-1.1681 2.9422-1.4364 4.4765-.66928.83027.76713 1.1681-.83342 2.0362-1.1018 3.0338 1.7016 4.0346-3.1348 7.0052-1.367h.33465c1.7647-1.3354 2.6329-5.2374 5.4015-3.7725.8366.90287 2.0362.56825 3.0401.23675"/><path d="m400.37 295.11c2.6392-.26518 3.3053 2.7718 6.0045 2.7055 1.9352-2.4372 4.0377.6661 6.5759-.26835.5998 2.4656 3.239 1.1996 4.5712 2.6329 1.6006-.33147 3.4726 0 4.6407.77031.33147.56824-.4041 1.0039-.73873 1.168-7.3714-.33462-14.976.43566-22.316-1.0007-3.4726.33147-7.5103 0-11.15-.16726-.3315-.098-.76083-.098-.9313-.4325.33462-1.1681 2.4719-.93759 2.7023-2.636.9313-1.2344 2.2035-.33465 3.3716-.73873 2.3677.0695 2.8002-5.4015 5.433-1.7647l1.8373-.26835"/><path d="m435.44 284.9c2.1025-1.0323 2.6045 1.771 4.5712 1.168.83342.26833 1.932 1.1712 2.7023.26833.5651-.76713 1.9352-.43566 2.7023-.26833 2.0046 1.0008 4.4734 1.1712 6.5727.60298 1.5342.83342 3.2043 1.2691 4.8048 1.6037.3378.56507-.5651.83342-1.1018.83342l-24.558-.0695c-2.3014.56507-4.5712-.26835-7.0084.16725-3.2327 0-6.5033.56825-9.3066-.5998-1.5027.83342-4.1387.99757-5.4046-.101.33463-1.0008 1.4332-1.7679 2.4371-2.1025 1.5311.50195 3.0717.33465 4.2366-.93127.93445-.50195 1.6006.6661 2.4372.93127 3.3021 1.2691 5.07-2.9706 7.8702-1.7647.33462.4988 1.1049.59667 1.5374.3315.50195-.76715 1.5027-1.2691 2.2698-.66613 1.2628 1.4996 3.9682 3.299 5.2373.59665"/><path d="m399.43 277.7c2.7023-1.7679 5.07 1.3669 7.8734 0 1.0008-.33465 1.9352-1.1681 3.1032-.93446.59983 1.4648 2.3046.86816 3.4726 1.2028 1.1996 1.4996 3.6368.66613 5.0037 1.6006-.1675 1.0986-1.367.49877-1.9699 1.0007-2.6044.36305-5.3036-.73555-7.5072.4325-2.7024-.0695-5.471-.93445-8.1102 0-2.7686-.33462-6.2381 0-9.1046-.33462-2.7023-.26835-4.5081.33462-7.4409.0695-1.2028-1.67 1.8658-.73555 2.6013-1.67 1.6006-1.7016 3.9714-1.7016 6.0076-2.3708 1.8689 1.6037 4.4008-.83028 6.0708 1.0039"/></g><g><path d="m579.85 198.51c-3.902 1.9352-8.0154 4.1072-11.917 6.0771-10.244 5.1047-20.529 10.525-30.701 15.864-1.2659.66926-2.5508 1.307-3.7883 1.9731-.40407-.99759-1.3322-1.6163-2.1309-2.2888-5.7046-4.8364-11.299-10.011-17.205-14.68l-1.026.15785c-2.1751.40092-4.0061 2.1751-6.0771 2.8412-1.7016 1.1333-2.9644 1.3733-2.7623 3.9462l7.5766 9.8654c1.932 2.0678 3.8956.78292 6.2349.55246 6.3391 1.2659 12.804 2.8823 19.178 4.1829 1.367.26518 2.7055.55878 4.104.78923 4.2398 2.3046 8.3343 4.6849 12.943 6.156.7608.16415 1.7552.38831 2.5255.55247 2.1025.66611 3.0212.91235 5.13.0789.93445-2.7023-.43565-3.1254-2.6045-4.0251-2.6676-.90288-6.1181-1.5848-8.2869-3.5515 1.168-1.1681 3.741-.58404 5.2089-.55246 4.4039.26834 9.0067.47985 13.417.7103 2.9296.30307 3.5578-.1168 4.8932-2.9202-3.5326-2.2351-7.3114-4.0503-11.049-5.9192 3.5421-.86499 7.1852-1.1933 10.655-2.1309 3.6684 2.1025 6.9105 5.089 10.812 7.0242 5.4078 0 10.547 3.58 15.153-1.026.39462-.29991.89342-.61244 1.2628-.94707.6598-.73241.8366-1.3196 1.1049-2.2888l-1.1838-1.026c-2.5697-2.0015-5.7235-3.2138-8.5237-4.8143-.13575-.83343.26203-1.7679.3946-2.6045 0-2.6676-2.153-3.2201-4.1829-3.7883-2.1404-1.4332-3.1411-3.6052-3.4726-6.0771-2.0078-.83343-3.3779-1.9983-5.6825-2.1309z"/><path d="m537.2 204.12v8.6752c.46723-.63139.56508-1.5343.69767-2.7023 1.1365-.96917 2.9391-1.3669 4.3724-1.7679.46722.33463.96917.76713 1.4995 1.067l.66927.2336.69768-.10103c2.3046-.19887 2.876.0694 3.9746-2.4024-2.1372-2.1309-4.2398-4.2019-7.04-5.4046-1.6416.79871-3.239 1.6006-4.8711 2.4024"/><path d="m615.98 218.57c-1.4648 1.2028-4.4039.29991-5.8719-.40093-2.1025-1.1996-3.9367-3.1348-6.0708-4.1387-1.6353-1.4995-.93762-3.1317 1.0354-3.8009 4.1008 1.67 8.1417 3.9714 12.11 5.9729-.2305 1.0323-.29992 1.7679-1.2028 2.3677"/><path d="m537.2 212.8v-8.6752c-4.0377 2.033-8.0123 4.2019-11.911 6.4054.70086 2.0015.96603 2.636 2.6013 3.8041 1.7963 1.3669 2.3677 2.2698 4.8048 1.067.70083-.50195 1.367-1.1018 2.172-1.4364 1.2344-.16415 1.9289-.56825 2.333-1.1649"/><path d="m385.86 218.09c-.7703.73556-1.3701 1.348-1.7363 2.4466-.36935 1.4364-.65662 2.6108-1.2628 3.9462l1.4995 1.7363c1.0355-.33463 1.932-.65664 2.9991-.78923 3.1348 0 6.0455 1.2817 9.0761 1.8152.53668.10102 1.0071.19887 1.5785.23678l1.6574-1.1838c-.83658-1.7047-1.6606-4.1482-2.7623-5.6825-.16725-.20205-.2715-.3883-.47356-.55246-.56507-.60297-1.2091-.98812-1.9731-1.4206-2.876.19888-5.6698-.71661-8.6026-.55246z"/><path d="m486.4 188.73c-16.318 8.41-32.305 17.934-48.617 26.439-4.8396 2.4024-9.6254 5.5088-14.601 7.5766-2.4687-.53352-6.4338-.38515-7.4977-3.1569.7324-.42934 2.3646-.37567 3.2358-.47353 1.7332-.20205 2.4214-.63455 3.7883-1.7363.0315-.86816-.4167-4.4923.55247-4.8932 1.6668-.86816 3.359-2.0268 5.13-2.7623 2.4371-.7987 4.3408-.31569 4.3408-3.5515.2652-.53352 2.6582-.15152 3.3937-.31569 1.67.96918 3.3022 2.3835 4.7354.0789.86817-2.9359-2.2414-4.3881-4.3408-5.5246-5.9729-2.737-12.552-4.5333-18.626-7.1031l-1.2628.78923-.63137.47354c-6.4717 3.5358-13.202 6.8505-19.573 10.655-1.1018.66611-2.2509 1.3512-3.3148 2.052.72925 1.6353 1.247 3.741 3.3148 2.8412.0662-.0347.0915-.0442.15775-.0789 1.067-.26833 1.3322-.70715 2.3677.15785-.20525.63455-1.4711 1.6732-1.9731 2.2098-.2652.36305-.41673.7261-.55248 1.026-.33462.77029-.26832 1.3733 0 1.9731.36938.6661.96918 1.3164 1.7363 2.052 1.872 1.4995 3.1632.94708 5.3668.94708l1.6574 1.4995c-.73243 1.067-.68505 1.4301-.55248 2.7623l1.9731 1.5785c3.7694 2.6676 7.886 4.849 11.76 7.4188l2.2888.39461 7.8134-6.7085c4.2366-.2999 8.5489-1.0797 12.786-1.5785 2.1656.70084 5.0511 3.258 7.4188 2.2888 2.1656-.73556 2.6928-1.0607 4.0251-2.9991l-.94707-1.1838c-1.1365-1.3006-2.9833-2.254-4.4197-3.1569 1.1996-.66611 2.6013-1.127 3.8672-1.6574 1.9005-.87131 2.5287-1.067 4.4986 0 1.0323.59666 2.3835 1.2596 3.5515 1.6574 3.0685.53352 2.958-2.3803 4.0251-4.1829l5.8403.94707.7103.63139c1.7679 5.0353 6.459 4.5618 10.497 6.6295 2.8696-.30306 3.9146-.23045 5.4457-2.7623-1.8657-3.1411-4.0598-6.115-6.3928-8.9183.66612-.46722 2.5224-1.8152 3.3937-1.8152 2.535 1.9005 4.4734 4.4986 7.182 6.2349 2.5003-.17047 4.8459-.62191 7.182-1.6574.4325-2.7686.48932-5.7361-2.2098-7.3398-2.4056-1.4332-5.171-2.4782-7.4977-3.9462 2.8002-.60297 5.493-1.6258 8.129-2.7623l.0788-1.2628c-.0975-.90288-.39763-1.5564-.63126-2.2888-.70399-4.7385-4.7669-5.894-8.6026-7.4977z"/></g><g fill="#fff"><path d="m580.17 199.93c-14.348 7.3746-28.722 14.301-42.934 21.941-1.1333.59982-2.2919 1.2912-3.3937 1.8942-1.6006 1.2691-1.3543-1.2249-2.2888-1.6574-5.8403-4.8048-11.763-10.579-17.837-15.311-2.3708.26518-3.9398 2.1751-6.0771 2.8412-.73242.59981-2.4719.95339-2.1309 2.2888l7.3398 9.4708c1.6006 1.7679 3.6052-.10733 5.6036.15784 6.2065 1.3007 12.511 2.7213 18.784 4.0251 1.5343.33148 3.0401.67874 4.5776.94708 4.9058 2.3677 9.3318 5.6824 14.838 6.5506 1.3354.33464 2.917 1.2217 4.1829.55246.26835-.49879-.0567-1.0828-.55245-1.1838-3.64-1.771-7.9302-1.8942-10.734-5.13 0-1.4995 1.5816-1.8468 2.6834-2.4466 5.3415.33147 10.942.44512 16.179.94707 1.6668-.33463 3.9051.92813 4.4986-1.1049-3.9019-2.5382-8.1638-4.044-12.075-6.3138l-.3157-.47354c4.2429-1.7679 9.3476-1.9573 13.812-3.1569 3.8767 1.9352 7.0652 5.2342 10.97 7.1031 4.5649-.26834 9.9285 3.6652 13.733-.47354.66612-.59982 1.8026-1.0355 1.9731-1.9731-2.7055-2.333-6.1876-3.501-9.1551-5.3668-1.0986-1.1712.0978-2.7623 0-4.2618-.67242-1.3701-2.1246-1.4806-3.3937-1.8152-2.1057-1.4332-3.8388-3.8578-4.104-6.3928-1.4332-.56824-2.5161-1.6574-4.1829-1.6574z"/><path d="m542.12 203.17c-1.6384.80186-3.2611 1.6479-4.8932 2.4466-3.4726 1.771-6.9705 3.5894-10.339 5.5246.33147 1.7047 2.153 2.0488 3.1569 3.3148 2.0331.93446 3.1601-1.9604 5.13-1.8942 1.7742-.23362 1.1018-2.1467 1.4996-3.078.13575-.19887.3883-.38514.55245-.55246 1.4648-1.2375 3.4632-1.3638 5.13-2.1309.83343.33148 1.4427 1.2565 2.2098 1.4206 1.1049-.23363 2.6897.2115 2.9202-.78923-1.7647-1.7016-3.3337-3.3905-5.3668-4.2618z"/><path d="m615.61 216.9c0 .40092-.43565.56824-.60298.7324-4.4039 1.0355-6.841-3.2011-10.206-4.7038-.50825-.3662-.34096-1.2028.2305-1.2659 3.6368 1.4364 7.0115 3.5358 10.579 5.2373"/><path d="m386.41 219.43c-1.4995 1.0355-1.1396 3.28-1.9731 4.8143l.3157.39462c4.104-1.6353 7.845.70715 11.681 1.3417.43565.0663.83028.0789 1.2628.0789l.3157-.23678c-.63455-1.067-.97865-2.3361-1.5785-3.4726-.4988-.96602-1.1554-1.8342-2.2888-2.3677-2.8033.16415-5.0321-.78292-7.7344-.55246z"/><path d="m486.48 190.23c-16.984 8.6721-34.319 19.03-51.3 27.702-3.8704 1.9699-7.6808 4.6217-11.917 6.156-3.4695-.865-8.4764-.31254-9.0762-5.0511 1.872-1.932 5.2942-.40092 7.2609-2.3677.16725-1.7679-.57458-3.8609.63137-5.13 2.7654-1.3354 5.3762-3.5231 8.6815-3.7883.89973-.33148.44513-1.509.71033-2.2098.93445-1.7679 3.3116-.56825 4.8143-1.1049 1.0323.3662 2.2225 1.6953 3.1569 1.2628 2.8728-3.3716-13.849-7.785-21.388-10.891-6.7084 4.1419-14.749 7.6808-21.625 11.917-.53352.33779-1.1238.69136-1.6574 1.026l.55245 1.1049c.3378.33463.7703-.15785 1.1049-.15785 1.3701-.90288 3.0117-.23045 3.9462 1.1049.101 1.5027-1.8184 2.5098-2.6834 3.9462-.66927 1.0008.65033 1.8468 1.4206 2.6834 1.1996 1.2691 3.2832.63139 4.8932.63139l2.6044 2.3677c.4988.93761-.97548 1.5248-.7103 2.5255 3.9714 3.3022 8.7162 5.6414 13.022 8.4448l1.2628.23678 7.7344-6.5506c4.4702-.33147 8.9215-1.2438 13.496-1.5785 2.1656.66611 3.8641 2.2572 6.2349 2.5255 1.1649-.60297 2.7212-.62507 3.3937-1.8942-1.6069-2.0994-4.1987-2.7086-5.9982-4.5775 2.2004-1.6669 5.0416-2.3835 7.5766-3.5515 2.1372-.66611 3.9146 1.2943 5.9192 1.8942 3.3022 2.3361 2.2035-2.876 4.3408-3.7094l6.8663 1.026 1.2628 1.1049c1.1018 4.6407 6.2444 4.2082 9.5497 6.0771 1.2691-.26834 3.097-.0505 3.6305-1.4206-1.7016-3.1032-4.1798-5.7993-6.3138-8.6026v-.78923c1.5974-1.2659 3.3432-2.5982 5.2089-2.7623 2.6013 1.7679 4.8238 4.6312 7.2609 6.2349 1.8626-.26833 3.8514-.26834 5.5246-1.1049.3662-1.8026.25585-3.6999-.94708-4.9722-3.2043-2.0331-7.1441-3.2453-10.181-5.6825l.3157-.55246c3.1348-.73556 6.3675-1.4711 9.234-2.8412.16425-.99759-.32203-1.6258-.55248-2.2888-.33777-4.0724-4.3913-5.2247-7.2609-6.3928z"/></g><path d="m486.72 188.49-37.804 19.968-13.022-9.1551-18.231-6.2349-43.96 24.15 2.3677 1.4206 41.829-23.046 16.89 5.8403 13.969 9.7075 37.962-19.968 13.417 6.9452 9.8654 5.13 11.444 10.576 20.994-10.181 5.6035.47353 10.576 6.7085 22.256-10.655 3.078 1.4206 4.7354.55246 10.97 2.7623 23.914 12.628 1.8942-1.7363-25.019-13.101-11.286-2.8412-4.5775-.55246-3.7094-1.7363-22.098 10.576-9.9443-6.2349-6.7874-.63139-20.204 9.7075-10.497-9.6286-11.207-5.8403-13.417-7.0242z"/><path d="m615.38 237.26c-9.4392 1.5658-18.417 4.6375-27.525 7.4061l-.23675-.23045c-20.58-3.0086-41.138-6.6074-61.759-9.4139-8.4069-1.0292-17.016-2.0994-25.492-2.3677-8.871-.56825-18.285-.33464-27.191.2999-11.176 1.1681-22.326 2.7686-33.236 5.7077-6.3012 1.4995-12.741 3.5358-18.913 5.5688-9.4802-3.501-19.121-6.9705-29.028-9.1046-5.5088-1.5058-11.681-2.3046-17.319-2.9075v39.443h249.97l-.0633-35.503c-3.0685.13575-6.1749.66611-9.2119 1.1018" fill="#0d6826"/><path d="m376.05 231.08c2.475.1326 2.1983.46722 4.7649.7987 8.208 1.3006 16.22 3.3021 24.128 5.6383 27.623 8.71 54.116 22.556 83.147 26.026 5.5436.5335 10.942.70083 16.482.59981 16.852-.83343 33.1-4.5018 49.245-9.3413 9.6823-3.0022 19.557-6.3075 29.135-9.5781 13.041-4.3692 28.379-8.7731 42.156-10.011l-1.2333 2.069c-31.534 1.3669-76.261 29.298-123.87 29.298-44.008 0-79.542-27.727-123.62-32.968"/><path d="m422.63 245.13-3.3337-1.367c9.5055-3.2706 19.248-5.9413 28.99-8.1417 9.7422-1.9699 19.488-3.4063 29.429-4.0061 10.98-.53036 21.991-.19573 32.936.70084 23.386 2.2698 46.64 6.5411 69.834 10.042l7.5734 1.1365.46408.90288-2.9991 1.0986c-68.5-10.1-102.67-20.45-162.89-.36"/><g clip-path="url(#a)"><g id="b"><g id="c"><g id="d" transform="translate(-110.1135)"><path d="m496 395.38v6.8695l8.0375-.0347v-6.9389c3.0054-3.299 5.4394-9.0383 5.4394-11.109v-13.013-.0663-.26835-13.013-.0632-.26833-13.01-.0727-.26203-13.016l-.0283-.0665c0-.0695.0283-.16425.0283-.2652v-13.013l-.7324-.63455-3.1001 3.2674c-.0978 0-.16725.038-.2715.038-.73555 0-1.468-2.3361-2.8002-5.4078-1.3354-3.0685-2.0046-4.0693-2.535-4.0693-.5998 0-1.2028 1.0008-2.535 4.0693-1.3354 3.0717-2.071 5.4078-2.8002 5.4078-.1325 0-.2715-.038-.37568-.038l-3.0654-3.2674-.7324.63455v13.013.46722 12.88.46723 12.877.46722 12.877.46722 12.88c0 2.0709 2.4656 7.9081 5.471 11.213"/><path d="m497.63 402.21h.56825v-5.0006c.59982.33147 1.1996.46722 1.8026.46722.60297 0 1.2691-.202 1.8689-.53667v5.07h.49881v1.5406h-4.7386v-1.5406" fill="#ffeb43"/><path d="m492.53 323.64v6.6358c0 .86817.56507 3.0748 1.2344 3.7062.6661.63452.96917.72925 1.5311-.6314.5714-1.3701 1.7742-2.6739 1.8058-3.943.0253-1.2628-1.408-2.7654-2.0394-3.6652-.6314-.90287-2.5318-4.0061-2.5318-2.1025" fill="#ffeb43"/><path d="m507.47 323.64v6.6358c0 .86817-.56508 3.0748-1.2344 3.7062-.6661.63452-.96918.72925-1.5311-.6314-.5714-1.3701-1.7742-2.6739-1.8058-3.943-.0315-1.2628 1.4017-2.7654 2.0394-3.6652.6314-.90287 2.5318-4.0061 2.5318-2.1025" fill="#ffeb43"/><path d="m501.73 327.07c-.76397-1.5658-1.2659-2.0994-1.6668-2.0994-.42935 0-.90287.5651-1.6984 2.2351-1.2028-1.168-1.9068-3.4379-1.9068-4.7385 0-1.9005 1.2691-3.5358 2.2414-5.7046.96603-2.1688 1.2975-1.6037 1.2975-1.6353 0 .0315.33463-.53352 1.2975 1.6353.97233 2.1688 2.2414 3.8041 2.2414 5.7046 0 1.2659-.67242 3.4032-1.8058 4.6028" fill="#ffeb43"/><path d="m492.53 336.98v6.6422c0 .86815.56507 3.0717 1.2344 3.7031.6661.63138.96917.7324 1.5311-.63137.5714-1.3701 1.7742-2.6708 1.8058-3.943.0253-1.2628-1.408-2.7655-2.0394-3.6652-.6314-.90287-2.5318-4.003-2.5318-2.1056" fill="#ffeb43"/><path d="m507.47 336.98v6.6422c0 .86815-.56508 3.0717-1.2344 3.7031-.6661.63138-.96918.7324-1.5311-.63137-.5714-1.3701-1.7742-2.6708-1.8058-3.943-.0315-1.2628 1.4017-2.7655 2.0394-3.6652.6314-.90287 2.5318-4.003 2.5318-2.1056" fill="#ffeb43"/><path d="m501.73 340.42c-.76397-1.5721-1.2659-2.1056-1.6668-2.1056-.42935 0-.90287.56826-1.6984 2.2382-1.2028-1.168-1.9068-3.4379-1.9068-4.7386 0-1.9004 1.2691-3.5389 2.2414-5.7046.96603-2.1688 1.2975-1.6006 1.2975-1.6353 0 .0345.33463-.53353 1.2975 1.6353.97233 2.1656 2.2414 3.8041 2.2414 5.7046 0 1.2691-.67242 3.4032-1.8058 4.606" fill="#ffeb43"/><path d="m492.53 350.33v6.639c0 .87131.56507 3.0685 1.2344 3.7031.6661.63454.96917.73242 1.5311-.63453.5714-1.3638 1.7742-2.6676 1.8058-3.9367.0253-1.2659-1.408-2.7686-2.0394-3.6683-.6314-.89972-2.5318-4.0061-2.5318-2.1025" fill="#ffeb43"/><path d="m507.47 350.33v6.639c0 .87131-.56508 3.0685-1.2344 3.7031-.6661.63454-.96918.73242-1.5311-.63453-.5714-1.3638-1.7742-2.6676-1.8058-3.9367-.0315-1.2659 1.4017-2.7686 2.0394-3.6683.6314-.89972 2.5318-4.0061 2.5318-2.1025" fill="#ffeb43"/><path d="m501.73 353.77c-.76397-1.569-1.2659-2.1025-1.6668-2.1025-.42935 0-.90287.56825-1.6984 2.2351-1.2028-1.168-1.9068-3.4379-1.9068-4.7354 0-1.9036 1.2691-3.5421 2.2414-5.7077.96603-2.1688 1.2975-1.6006 1.2975-1.6353 0 .0345.33463-.53352 1.2975 1.6353.97233 2.1656 2.2414 3.8041 2.2414 5.7077 0 1.2659-.67242 3.4-1.8058 4.6028" fill="#ffeb43"/><path d="m492.53 363.68v6.6422c0 .86497.56507 3.0685 1.2344 3.6999.6661.63455.96917.73557 1.5311-.63138.5714-1.367 1.7742-2.6708 1.8058-3.9367.0253-1.2659-1.408-2.7718-2.0394-3.6715-.6314-.90287-2.5318-4.0061-2.5318-2.1025" fill="#ffeb43"/><path d="m507.47 363.68v6.6422c0 .86497-.56508 3.0685-1.2344 3.6999-.6661.63455-.96918.73557-1.5311-.63138-.5714-1.367-1.7742-2.6708-1.8058-3.9367-.0315-1.2659 1.4017-2.7718 2.0394-3.6715.6314-.90287 2.5318-4.0061 2.5318-2.1025" fill="#ffeb43"/><path d="m501.73 367.12c-.76397-1.5721-1.2659-2.1056-1.6668-2.1056-.42935 0-.90287.56507-1.6984 2.2382-1.2028-1.1712-1.9068-3.4379-1.9068-4.7385 0-1.9036 1.2691-3.5421 2.2414-5.7077.96603-2.1656 1.2975-1.6006 1.2975-1.6321 0 .0315.33463-.53352 1.2975 1.6321.97233 2.1656 2.2414 3.8041 2.2414 5.7077 0 1.2659-.67242 3.4-1.8058 4.6059" fill="#ffeb43"/><path d="m492.53 377.03v6.6358c0 .86815.56507 3.0717 1.2344 3.703.6661.6377.96917.73557 1.5311-.63138.5714-1.367 1.7742-2.6708 1.8058-3.9367.0253-1.2659-1.408-2.7718-2.0394-3.6684-.6314-.90288-2.5318-4.0061-2.5318-2.1025" fill="#ffeb43"/><path d="m507.47 377.03v6.6358c0 .86815-.56508 3.0717-1.2344 3.703-.6661.6377-.96918.73557-1.5311-.63138-.5714-1.367-1.7742-2.6708-1.8058-3.9367-.0315-1.2659 1.4017-2.7718 2.0394-3.6684.6314-.90288 2.5318-4.0061 2.5318-2.1025" fill="#ffeb43"/><path d="m501.73 380.46c-.76397-1.569-1.2659-2.1025-1.6668-2.1025-.42935 0-.90287.56193-1.6984 2.2351-1.2028-1.1681-1.9068-3.4347-1.9068-4.7386 0-1.9036 1.2691-3.5389 2.2414-5.7046.96603-2.1688 1.2975-1.6037 1.2975-1.6353 0 .0315.33463-.5335 1.2975 1.6353.97233 2.1656 2.2414 3.8009 2.2414 5.7046 0 1.2659-.67242 3.4032-1.8058 4.606" fill="#ffeb43"/><path d="m500 395.77c2.2698 0 3.1695-4.8048 3.1695-6.5412 0-2.4656-1.9667-6.8063-3.1695-7.1062-1.2028.2999-3.1696 4.6407-3.1696 7.1062 0 1.7363.89972 6.5412 3.1696 6.5412" fill="#ffeb43"/></g><use x="22.02" xlink:href="#d"/><use x="44.045" xlink:href="#d"/></g><use x="66.071" xlink:href="#c"/></g><use x="132.127" xlink:href="#b"/></g><path d="m500.04 96.618v-5.7077h-129.33v228.43c0 15.283 9.0446 29.495 22.859 36.036l106.44 53.718.0348-.0665v.0315-6.336l-.0695.0315-104-52.519c-11.813-5.6067-19.551-17.815-19.551-30.897l-.0345-222.72h123.66m0 306.1v6.336l106.43-53.718c13.812-6.5412 22.825-20.754 22.825-36.036v-228.39h-129.26v5.7046h123.55l.0315 222.68c0 13.079-7.7344 25.296-19.551 30.9l-104.03 52.519" fill="#0b0b0b"/></svg>