<svg enable-background="new 0 0 1000 500" height="500.00021" viewBox="0 0 1000 500.00021" width="1000" xmlns="http://www.w3.org/2000/svg"><path d="m0 .000204h1000v500h-1000z" fill="#c00"/><path d="m0 .000204h1000v500h-1000z" fill="none"/><g transform="translate(0 .000224)"><path d="m0 0h500v250h-500z" fill="#006"/><g transform="matrix(8.333338 0 0 8.333343 0 -.000226)"><path d="m0 0v3.3539981l53.29197 26.6459849h6.707996v-3.353998l-53.2919698-26.645985zm59.999966 0v3.3539981l-53.2919698 26.6459849h-6.7079962v-3.353998l53.29197-26.645985z" fill="#fff"/><path d="m25 0v30h10v-30zm-25 10v10h60v-10z" fill="#fff"/><g fill="#c00"><path d="m0 12v6h60v-6zm27-12v30h6v-30z"/><path d="m0 30 20-10h4.472l-20 10zm0-30 20 10h-4.472l-15.528-7.764zm35.528 10 20-10h4.472l-20 10zm24.472 20-20-10h4.472l15.528 7.764z"/></g></g></g><g transform="matrix(1.14114884978 0 0 1.14114884978 490.48019421088 -451.28525546072)"><path d="m305.13208 584.22191v-64.02065h-155.49561-.00002-.76979c.0409 23.69167.74639 42.86016.75449 63.30817z" fill="#fff"/><path d="m236.02923 584.07419v-22.65625h68.9468v-17.1875h-68.9468v-24.03125h-17.15625v24.03125h-69.95349c-.003 5.87527-.0254 11.56236-.0312 17.1875h69.98474v22.65625z" fill="#bd0000" stroke="#000"/><path d="m-146.09375 214v3.6875c.13708 4.59176.23082 11.80024.25 20.21875.00064.28249-.00054.49594 0 .78125.20276 27.77689-.16267 64.26787-.375 76.4375-.0258 1.48037-.0662 2.41852-.0937 3.1875.0296 1.2405.1501 2.17535.65625 3.375.66997 1.5879 3.3125 3.96875 3.3125 3.96875l38.3437 16.53125s30.475842 13.82968 46.8125 14.84375c.09106.006.189571-.005.28125 0 .09168-.005.190191.006.28125 0 16.336664-1.01407 46.8125-14.84375 46.8125-14.84375l38.34375-16.53125s.03076.00044.03125 0c.05002-.045 2.617735-2.39612 3.28125-3.96875.469131-1.11189.611637-1.99104.65625-3.09375-.021-.80354-.06474-1.80585-.09375-3.46875-.232968-13.35263-.701274-56.03995-.34375-84.28125.0048-.72753.0254-1.55468.03125-2.25.03634-4.31659.074-8.15121.15625-10.90625v-2.875z" fill="#165016" transform="matrix(.87630987 0 0 .87630987 276.80355 396.02648)"/><path d="m-98.78125 309.65625c-1.95852 0-5.84829 2.15738-6.71875 2.375-.87046.21761-5.25 2.40625-5.25 2.40625l-.21875 2.625s-3.2591-.66194-5-1.75c-1.74091-1.08807-1.72441.43977-2.8125.875-1.08806.43522-1.97103 1.50455-2.40625 2.375-.43523.87047-1.3125 2.84375-1.3125 2.84375s-1.94772-.001-3.90625-.21875c-1.95853-.21761-1.75.875-1.75.875s-2.16193.87387-3.25.65625-1.53125.65625-1.53125.65625-2.16419 1.50113-3.6875 1.71875c-1.06631.15233-1.58857 1.46855-1.8125 2.25l34.4375 14.84375s30.475842 13.82968 46.8125 14.84375c.09106.006.189571-.005.28125 0 .09168-.005.190191.006.28125 0 16.336664-1.01407 46.8125-14.84375 46.8125-14.84375l38.34375-16.53125s.03076.00044.03125 0c.0362-.0326 1.377538-1.2832 2.375-2.5625-4.761387.1838-10.415065.66514-16.03125 1.1875-11.5755401 1.07662-23.7524272 3.05022-25.53125.59375-4.569902-6.3108-3.505676-1.71989-4.59375-1.9375-1.088063-.21762-5.4375-.4375-5.4375-.4375s-3.25682-1.3125-4.5625-1.3125c-1.305691 0-5.875.875-5.875.875l-4.78125-1.09375-5.21875-1.53125s-4.132953.87387-5.65625.65625-6.53125-1.09375-6.53125-1.09375-4.571598-.21987-6.3125-.4375c-1.740925-.21761-2.601692-.84488-4.125-1.0625-1.523297-.21762-1.978969.40625-3.9375.40625-1.95852 0-3.6875-.40625-3.6875-.40625s-1.099437.19091-2.1875.84375c-1.088074.65284-5.010219.0267-6.96875-.84375-1.958531-.87046-8.25-2.84375-8.25-2.84375l-7.40625-5z" fill="#b48f42" transform="matrix(.87630987 0 0 .87630987 276.80355 396.02648)"/><path d="m192.01418 666.87915s1.21102 2.76802 2.24902 4.49804c1.03801 1.73001 1.90302 2.76802 3.46004 2.76802 1.55701 0 1.211-.173 3.46003.346 2.24901.51901 4.15203 1.73002 6.74705 1.73002s4.15203 0 6.05505.519c1.90302.51901 5.01704-.346 5.01704-.346l-5.88204-2.94103s-1.90302-.173-3.80603-.173c-1.90303 0-7.09307-1.038-8.13107-1.55701-1.03802-.519-4.15204-1.73002-4.15204-1.73002z" fill="#88552c"/><g transform="matrix(1.0933901 0 0 1.0933901 -210.28513 -35.290567)"><path d="m379.63548 641.15011c-3.59567-.62863-4.67082 3.09637-5.41789 7.38804 0 0 9.75221-.59104 10.04773-1.97013.29553-1.37911 1.67463-6.50148.98508-6.40298s-5.61492.98507-5.61492.98507z" fill="#704624"/><path d="m376.41964 614.184c-.27377.0198-.5139.0694-.72501.17501-.8444.42221-2.75003 3.60004-2.75003 3.60004 2.32213 1.89992 3.81395 3.58063 4.02505 4.42505.2111.8444.625 2.32502.625 2.32502l2.32503 1.05001.85001 1.27502.82501 5.07505-.62501 2.52503-.62501 2.25003-.35.90001-.075.125c-.55241.95002-.7692 2.17407-1.30001 3.15003-.32889.6047-1.02502 1.80002-1.02502 1.80002s2.83518.4829 4.17505.10001c2.03434-.58136 4.2093-1.67739 5.32506-3.47504.58907-.94906 1.18212-2.48762.57501-3.37504.49968-.69421.96363-1.14541 1.10001-2.10002.2111-1.47772.65001-4.87506.65001-4.87506v-3.57504c0-2.32214-.0139-2.74742-.22501-6.12507-.2111-3.37763-.425-4.65005-.425-4.65005s-4.20845.43611-5.47506.225c-1.26662-.21109-3.16954-.65-4.22505-.65-.79163 0-1.82871-.23437-2.65003-.17501z" fill="#ab883f" stroke="#644d1b" stroke-width=".270031"/><path d="m384.06831 644.40085s-.98508-.49254-1.87164.19702c-.88656.68954-.60492 1.11576-1.57612 1.28059-1.48454.25196-2.93347 6.17959-2.56118 6.40297 0 0 6.46163-.13334 9.35819-1.3791 1.11601-.47997 2.27497-1.19024 2.86566-2.25182.85363-1.53416 1.17314-5.13622.58209-5.23473-.59104-.0985-6.797.98507-6.797.98507z" fill="#704624"/><path d="m386.99588 633.47199c-.68954 1.3791-2.33653 5.01843-2.92757 6.29902-.59105 1.28059-1.57612 3.34925-1.57612 3.34925l-1.3791 3.74327s4.01459-.0622 5.81193-.83712c1.30911-.56446 2.65274-1.41582 3.34925-2.6597 1.29708-2.31645 1.65284-7.11809.96329-7.90615s-4.24168-1.98857-4.24168-1.98857z" fill="#ab883f" stroke="#644d1b" stroke-width=".270031"/><path d="m372.52208 579.69091c-11.50041.67417 4.81026 33.8192-6.70958 33.90289-2.73759-.38666 3.28125 4.125 3.28125 4.125s.30774-.8125 2.1875-.8125 6.1875.5625 6.1875.5625 5.3517 2.68381 7.5 5.90625c2.1483 3.22245 1.35064.80192 2.15625 3.21875s-.28125 7.25-.28125 7.25l-1.56214 3.12152s3.2468-1.27123 5.12656.60853 3.1142.91412 3.1142.91412.0553-.6577.0553-1.73185-.53374 3.52411-.2652 2.18143c-1.46805-5.5337-3.27209-7.41594 4.96875-12.53125 1.25158-.22055 2.49046-.5955 3.65625-1 2.00311-.69506 3.62383-2.2455 5.4375-3.34375 2.00529-1.21429 3.94914-2.51649 6.03125-3.59375 1.34397-.69535 4.86471-3.56765 4.03125-2.28125-1.03758 1.60145 4.50618-1.83986 5.09375-.15625 1.19052 3.41129 5.83879 2.46772 8.84375 2.09375 2.31621-.28826 4.23496-1.98892 6.21875-3.21875 2.93429-1.81907 6.26898-3.36558 8.34375-6.125 1.93007-2.56696 3.61551-5.8652 3.3125-9.0625-.33176-3.50074-2.27926-7.48502-5.4375-9.03125-2.77895-1.36054-5.14532-2.03218-7.9375-2.875-1.92826-.58204-3.15047-1.44757-4.75-2.09375-2.06927-.83595-4.09208-1.87867-6.28125-2.3125-4.14972-.58832-16.42487-1.39218-17.44667-4.15284-16.98511-4.98543-26.00776-3.47562-34.875.43745z" fill="#ab883f" stroke="#644d1b" stroke-width=".295786"/><path d="m443.94845 652.24451c-.49053 0-1.88036.32702-1.88036.32702-1.83583.51509-3.31458 2.10144-4.4965 4.57826l8.91124.1635c1.51078 0 1.31234-4.25123.40878-4.41474-.35978-.0651-2.94316-.65404-2.94316-.65404z" fill="#704624"/><path d="m446.08701 592.33754c-.0424-.25456 6.99435.55762 9.72879 10.54634.95742 3.4974.23831 7.24834.32702 10.87334.10602 4.33247-.82109 8.79845.24526 12.99897.20394.80334.94821 1.40214 1.14456 2.20737.17431.71485.14626 1.48627 0 2.20737-.30587 1.50798-1.79859 4.25124-1.79859 4.25124-.78824 4.34842-1.97678 8.66198-.40878 13.65301l-3.7607.57228-3.35194 4.33298-1.14456.24527-4.74176-1.55334c3.35813-2.90192 5.46757-5.5457 6.86737-8.01194.15696-4.76486.41007-9.37415.57229-13.48949 0 0-.24527-1.88036-.24527-2.20738 0-.32701-5.84294-5.54278-7.60317-9.07475-1.83402-3.68004-2.77965-12.01791-2.77965-12.01791" fill="#ab883f" stroke="#644d1b" stroke-width=".295786"/><path d="m357.47228 609.60127c0 .56922.47435 2.94099.85383 3.2256.37949.28461.85384.0949 1.51793.85383.6641.75897.85384.75897 1.23332 1.42306s.75896 1.70767.66409 2.08715c-.0949.37949.0949.28461-.18974.75897-.28461.47435.17969 1.98375-.4844 2.17349-.6641.18975-1.92671.14734-2.30619.43195-.37949.28461-1.38371.24067-1.95294-.51826-.56922-.75896-1.00269-1.10916-1.38217-1.86812-.37949-.75897-1.9313-1.99687-2.12104-2.28148s.95636-.1211 1.33581-.97494c.37948-.85383.93406-1.61127.93406-1.61127s-.0949-.56922 0-1.23332c.0949-.66409.37948-1.51793.85383-1.70767.47436-.18974 1.04358-.75896 1.04358-.75896z" fill="none"/><path d="m444.6089 622.45151 2.08023 1.04662 2.95574 2.39813s-.87017-10.08498-.0882-9.35624c.78201.72873-1.07268-.61793 1.9718 2.07306 3.04449 2.69097 1.61599 2.62201 1.61599 2.62201s1.78796 1.37394 1.20326-.19369c-.58469-1.56763-.49754-3.38584-.49754-3.38584s.38783-.56095.62219-3.80347c.8167-11.29959-1.8758-14.19848-2.2099-15.09427-21.74275-5.92943-21.25818 10.85245-7.65357 23.69369z" fill="#7d4e28"/><path d="m444.20997 590.60356c2.75418 1.2642 5.12335 2.91343 6.25647 5.79869 4.06058 10.83735 3.06071 13.28976 7.93505 17.39606.76429.64386 2.08445 1.34148 2.89934.76298 1.58102-1.12238.9072-3.91257.45779-5.79868-.43286-1.81663-1.981-3.16733-2.91212-4.78614-.73976-1.28613-2.12358-3.9119-2.12358-3.9119l2.89935-.76298s1.55723 3.68738 1.98376 5.0357c.44137 1.39522 1.9859 2.25844 2.44005 3.64955.7597 2.32708 1.30855 5.10389.30669 7.33744-.59174 1.31924-1.93212 2.502-3.35713 2.74674-1.33203.22877-2.73902-.55541-3.81493-1.37337-3.57276-2.71618-7.78245-10.98699-7.78245-10.98699l-3.20453-4.8831" fill="#ab883f" stroke="#644d1b" stroke-width=".295786"/><path d="m458.46875 591.46875s.0312 1.19222.0312 1.90625-.1548.80668-.25 1.1875c-.0952.38081-.0625 1-.0625 1l-.875-2.125s.15625 1.14031.15625 1.78125c0 .64093-.15625 1.59375-.15625 1.59375s-.48804-1.27664-.96875-2.71875c-.4807-1.44211-.16422-.31712.15625 1.125.32047 1.44211 0 .31187 0 1.59375s-.15625 1.58914-.15625 3.03125c0 1.44212.17953 1.28859.5 2.25s1.32382 1.64828 2.125 1.96875c.11569.0428.10663.0426.15625.0625.10256.0256.32372.17869.375.28125.0513.10257.0937.3125.0937.3125s.0937-.0537.0937-.15625c0-.10257-.0425-.27805-.0937-.40625-.0513-.1282-.15625-.25-.15625-.25s.28686.27244.3125.375c.0256.10256.125.40625.125.40625s.0881-.1899.0625-.34375c-.0256-.15384-.15625-.5625-.15625-.5625s.0481.0224.125.125c.0769.10256.25.34375.25.34375l.0625.15625-.0625-.5-.1875-.28125.0312-.0312c.0706.046.21.15.25.25.0513.1282.21875.46875.21875.46875s.0312-.1899.0312-.34375c0-.13013-.0655-.42637-.0937-.53125.0155.0261.0229.0462.0625.0937.12821.15385.3125.30369.3125.40625 0 .10257.0312.40945.0312.28125s.0312-.13862.0312-.34375c0-.20512-.006-.3718-.0312-.5l.28125.75-.0312-.46875-.0312-.375c.006-.0995.004-.10409 0-.125l.125-.0625c0-.14281-.0788-.19804-.0312-.53125.0476-.33322-.0967-.63409.0937-1.0625.19041-.42842.29615-.89316.34375-1.75.0476-.85683.0759-.13735.21875-1.375.14281-1.23765-.0312-1.23401-.0312-2.28125s-.1875-.53125-.1875-.53125-.12209 1.04942-.3125 1.90625c-.1904.85684-.70094 1.40335-.84375 1.59375-.14281.19041.24709-.34702.4375-1.15625.1904-.80923.0774-.61047.125-1.5625.0476-.95204-.125-1.875-.125-1.875s.003.48255-.1875 1.625c-.19041 1.14244-.15335.68314-.34375.96875-.19042.28562-.28125.59375-.28125.59375s-.1875-1.56576-.1875-2.375c0-.80923.0283-.31577.21875-1.125.1904-.80923-.2649-2.15335-.3125-2.34375-.0476-.19041-.0596.85901-.25 1.90625s-.0923 1.18169-.1875 1.5625c-.0952.38082-.375.90625-.375.90625s-.0625-1.43169-.0625-1.8125c0-.38082.0163-.93023-.0312-1.40625-.0476-.47602-.375-1.5-.375-1.5z" fill="#584e19" stroke="#3c3311" stroke-linecap="round" stroke-linejoin="round" stroke-width=".1"/><path d="m418.39541 612.09354c.18749 3.17065.14513.12902.93081 2.40757 1.6611 4.80354 12.40761 16.94923 12.28978 15.77095l-.53667 3.75668c-1.37423 5.42968-4.84242 7.41568-7.91587 10.06254 0 0-2.27399.00081-3.08584.67084-.78806.65039-1.20751 2.81751-1.20751 2.81751l5.05348 4.37614 2.32572-2.63196 5.36669-2.28085-1.20751-1.87834c3.76508-5.95301 8.04577-9.81189 9.52588-11.80672 0 0 1.77269.70145 2.28084.13417 1.42265-1.58817-.99814-4.175-1.07334-6.30586-.0967-2.73953.80501-8.1842.80501-8.1842s4.47821-5.72266 5.50085-9.12337c.47821-1.59026 1.0079-3.65455 1.34611-5.67417.53695-3.20649.59125-6.30039-.80944-7.20589-1.97358-1.27586-3.08571-3.0857-4.42752-4.42751" fill="#ab883f" stroke="#644d1b" stroke-width=".295786"/><path d="m418.99186 647.67736c-2.14995.17002-3.89911 2.47755-5.3958 6.13159h9.48353c1.54846-.74817 1.38404-1.74103 1.47158-2.6979z" fill="#704624"/><g fill="#b48f42"><path d="m418.7582 648.73446c-2.19632.76469-3.16489 2.51159-3.89388 4.45014l2.89259-.2225 2.22821-3.25196z"/><path d="m442.32291 653.18377 1.66392.57876-1.59157 2.82142h-3.40018c.76774-1.09544.94174-2.12492 3.32783-3.40018z"/><path d="m382.77676 647.46428s-1.7342-.10201-2.04024-.10201c-.30603 0-.88966 1.44083-1.12212 2.24427-.18998.65654-.20403 2.04023-.20403 2.04023l3.16237-.51005z"/><path d="m376.96209 642.97576s-.85616 1.38128-1.12214 2.14225c-.29706.84988-.51005 2.65232-.51005 2.65232l2.55029-.20404 1.32616-4.18248z"/></g><path d="m387.01428 621.46641c.99378.34161 1.3975.15528 2.236.40372.8385.24845 2.54655-.21739 3.16766-.31055.62111-.0932 1.77017-.71428 1.27328-.24845-.49689.46584-.90061.93167-1.14905 1.24223-.24845.31055-.65217.52794-1.61489.46583-.96272-.0621-.93167.0932-1.92545-.15528-.99377-.24844-1.9565-1.24222-1.9565-1.24222l-.24844-.12422z" fill="#866925"/><path d="m385.84893 597.60503s4.67516 2.72718 7.01275 2.72718c2.33758 0 8.18154 1.16879 10.90872 1.16879s10.90872-2.72718 13.6359-3.11678 7.01275-4.28556 4.28557-.77919-2.72718 6.62315-3.50638 9.35034c-.77919 2.72718-.77919 7.01274-.77919 7.01274s-2.72718 1.16879-7.40235 2.72719c-4.67516 1.55838-16.36308 3.50637-16.36308 3.50637s-1.55839-6.23356-3.50638-8.96074c-1.94798-2.72718-4.67516-6.23356-5.84395-7.79194-1.16879-1.55839 1.55839-5.84396 1.55839-5.84396z" fill="#9e7e3a"/><g transform="matrix(1.0367991 0 0 1.0367991 657.3576 366.74239)"><path d="m-279.46875 197.46875s-1.36412.33097-2.21875.84375c-.85464.51278-1.35134.86222-2.71875 1.375s-2.15625 2.8125-2.15625 2.8125l-.4375.25c-.42731.25639-.67661.61861-1.53125.875-.85463.25639-.76019.66005-1.1875 1.34375-.42732.68371-1.375 1.125-1.375 1.125s-1.01018.0957-1.4375.4375c-.42732.34186-1.46875 1.28125-1.46875 1.28125s-1.19768-.0918-1.625.25c-.42731.34186-1.26847.68111-1.78125.9375s-1.6224.5-2.5625.5c-.94009 0-.94129-.004-1.625-.6875-.6837-.6837-1.47064.45407-1.8125.625-.34185.17089-1.01019-.008-1.4375-.0937-.42732-.0855-.6894-.95217-1.03125-.78125-.34185.17093-.4145 1.10394-.5 1.53125-.0855.42732-.9375 1.5625-.9375 1.5625s-1.30801.32907-1.90625.5-1.01847.0874-1.53125.34375c-.51278.25639.0147.25569-.15625 1.28125-.17093 1.02553-.102.61222-.1875 1.125-.0855.51277-1.1875.5-1.1875.5l-.1875 2.90625v2.21875l3.09375-.34375 3.40625-.34375s.50759.17851 1.875 1.375c1.36741 1.19648 2.0663-.69509 2.75-2.0625.68371-1.36741 2.90625-3.5625 2.90625-3.5625l1.875-1.71875s2.06819-1.01657 3.09375-1.1875 3.7538-.35653 4.4375.15625c.34186.25639.71076 1.40875 1.03125 2.5625-.002.0108.002.0204 0 .0312-.58273 2.95966-.9375 6.89356-.9375 7.875 0 1.57031 7.0625 16.65625 7.0625 16.65625s4.40157 1.71641 5.34375 2.1875c.94219.47109 2.84141 2.1454 3.3125 3.08758.47109.94219.9375 3.50617.9375 3.50617.42453-2.77599.46245-1.68586.69367-2.52879l.40008 2.68504v1.875c-.62197-.0235-1.11383.73368-1.5625 1.75l3.4375-.625 1.5625 4.53125s2.90601 4.02101 3.53413 4.17803c.40259.10065 4.27997 2.85389 7.07841 3.13909 1.56774.15978 2.66228-1.98026 2.9442-2.09303.78515-.31406 5.54111-2.79398 5.54111-2.79398l-1.62046.007-3.32114.25041 3.59375-2.6875-3.75-.78125s1.24766-.93438 1.71875-1.5625 1.875-2.34375 1.875-2.34375l-2.96875.15625s-1.59297-2.99766-1.75-3.46875-1.40391-2.3711-1.875-3.15625c-.47109-.78516-.78203-.77735-.625-1.5625.15704-.78515.78203-2.1836.625-2.96875-.15703-.78516-1.40391-3.46485-1.875-4.25-.47109-.78516-1.71875-2.65625-1.71875-2.65625s-1.12265-3.93438-1.59375-4.5625c-.47109-.62812-.30704-1.40235-1.40625-2.1875-1.09922-.78515-2.1875-1.90313-2.1875-2.53125 0-.27853-.36209-.93401-.78125-1.625-.008-.0128-.0234-.0184-.0312-.0312-.52186-.85626-1.14792-1.74931-1.40625-2.09375-.43601-.58134-1.94465-2.26756-2.1875-2.53125.22191-.0291 3.83922-.48084 5-.8125 1.19648-.34185 1.54783-1.38069 1.71875-2.40625.17093-1.02556.32718-3.25948.15625-4.96875-.17093-1.70926-.34564-1.69508-.6875-3.0625-.34185-1.36741.34755-2.05161 1.03125-2.90625.68371-.85463 1.03883-1.375 2.40625-1.375 1.36741 0 3.08097 1.71875 3.59375 1.71875s.66384-.17472 2.03125-.6875 3.24291.0166 4.78125.1875c1.53833.17092 5.13069.84375 6.15625.84375s8.71875 3.75 8.71875 3.75-4.08476-3.41005-5.28125-4.09375c-1.19648-.68371-3.9413-1.8769-4.625-2.21875-.68371-.34185-4.28125-.84375-4.28125-.84375l-3.75-1.03125-6-.53125-3.75-.34375s-1.52036-2.21685-2.375-1.875c-.85463.34186-1.88259.17093-3.25 0-1.36741-.17092-2.73912.0166-3.59375.1875-.85463.17093-3.75379 1.01657-4.4375 1.1875-.68371.17092-1.87879.51278-2.5625 0-.6837-.51278-.53125-1.53125-.53125-1.53125z" fill="#9e7e3a"/><path d="m-312.74079 218.93465c.21695.54239.43391 2.9289.10848 3.68824-.32544.75934-.9763 2.49498-.9763 2.49498s.75934-.21695 1.41021-.10847c.65086.10847 1.62716 1.08477 1.62716 1.73564 0 .65086-.75934 2.60346-.54239 3.47128.21696.86782 1.30173 2.16955 1.30173 2.16955l1.19325.65087 1.41021.54238s1.18781 1.43653 1.83867 2.41283c.65087.9763 1.52414 3.01105 1.84957 3.44496s.75934 1.73564 1.08478 2.27803c.32543.54239 1.02502.89802 1.63805 1.17161.63928.28531 2.05018.45555 2.05018.45555h1.19326l1.73564.86782 2.06107.21696 1.30173-.21696s2.27803-.43391 3.03737-1.19325c.75935-.75934 3.79672-2.71194 3.79672-2.71194s2.71194-1.08477 2.71194-2.49498-.75935-3.14585-.21696-6.2917.54239 1.9526.65087-3.47128c.10847-5.42388 2.06107-1.51869-.54239-8.67821-2.60346-7.15951.43391-4.88149-3.03737-7.37647-3.47129-2.49498-5.3154-2.60346-6.61713-2.38651-1.30174.21696-6.72561-.32543-7.70191.54239s-4.23063 2.9289-5.74931 3.68824c-1.51869.75934-2.27803.65086-3.14585 1.95259-.86782 1.30174-3.47128 3.14585-3.47128 3.14585z" fill="#9e7e3a"/><path d="m-115.65946 274.13084s-.65083.53281-.73686 1.01519c-.19165 1.07532.038 1.72772-.29731 2.76723-.24716.76617-1.3254 1.22074-1.93137 1.86799-1.03128-.59454-3.29023-1.60273-3.53125-1.84375-.3127-.31271-.84375-1.1875-.84375-1.1875s-.40594 1.25-.875 1.25-1.82814.53084-1.75 1.15625c.11415.064.22721.12941.34375.1875.17424.0869.36143.17421.53125.25.827.36909 2.625.59375 2.625.59375h1.5625l1.625.8125.625.3125 2.53125.28125c.43173-.57296.90118-1.22406 1.09375-1.75.41919-1.14488.69975-2.48109.375-3.65625-.35223-1.27458-1.34696-2.05666-1.34696-2.05666z" fill="#704624" transform="matrix(.77301506 0 0 .77301506 -204.35279 26.750054)"/><path d="m-307.875 230.78125c-.36234 1.21139-.85292 1.65333-1.375 1.90625l.625.34375.59375.25c.71954-.61085.36379-1.58012.15625-2.5z" fill="#704624"/><path d="m-283.93633 228.15169c-.0156.10171-.0402.17669-.0788.16113" fill="none" stroke="#262626" stroke-width=".285287"/><path d="m-296.30099 236.51689c.51278-.34185 2.13658-1.11102 2.73483-1.36741.59824-.25639 1.70926-.68371 2.22204-.68371s1.6238-.51278 2.30751-.42731c.6837.0855 1.79472.76916 1.79472.76916l.68371-2.13658s1.28195-1.88019 1.53834-2.22204 1.36741-.59824.59824-.59824-2.99121 0-3.93131-.0855c-.94009-.0855-1.70926.9401-2.05112 1.62381-.34185.6837-.76916 1.02555-1.79472 1.19648s-1.79473.25639-2.82029.42732c-1.02556.17092-.85463-.0855-1.53834.51278-.6837.59824-2.99121.76917-2.99121.76917s.9401 1.28194 1.45287 1.36741c.51278.0855 1.79473.85463 1.79473.85463z" fill="#794c27"/><path d="m-281.68696 234.89294c.17092.68371-.0536 4.55637-.0536 4.55637s2.46523.04 2.63616.89464c.17092.85463.85495.37342.85495.37342l.64492.28961c.42414 1.02493 1.99977 1.11688 2.53613 1.5246.7796.59261.55784 1.29253 1.34598 1.83816l-1.60055 3.42208-.7942-3.13889-1.98032-.70088c-.0476 1.89749.71481 3.30135-.25209 4.87748.28345-.95835-.52971-2.60207-1.51938-4.35611l-1.09458-.66297-1.40711-1.39674s-.68371 1.02556-.68371 1.70927c0 .6837 1.02556 2.39297 1.02556 2.39297l1.19649.6837s.68371 0-.34185.51278-2.39298.17093-2.39298.17093l-1.88019-1.53834.68371 3.07668.6837 1.36741-1.88019-1.02556-1.53834-2.5639-.34185 2.22205s-.34185 1.70927-1.02556 2.05112-2.22204-.17093-2.22204-.17093.51278-.85463.6837-1.53834c.17093-.6837-.34185 0-.34185 0l-2.39297.51278v-1.53834s1.19648-1.02556 1.02556-1.70926c-.17093-.68371-1.70927-2.90575-1.70927-2.90575s1.36423-1.98738 1.40333-3.37779c.0178-.6312.77562 1.12257 1.8577 1.22874 1.02779.10084.29072-4.76942.92331-4.86243.54552-.0802 1.71546 1.44914 2.27388 1.69177.98992.43009 1.23348-.32087 1.23348-.32087l.6837-1.36741.51278-2.05112c.87602-1.06927 1.20979 2.41296 3.24761-.17093z" fill="#794c27" stroke="#b46531" stroke-width=".285287"/><path d="m-111.85935 236.79913s-5.92571 2.3094-6.74253 2.63613-1.797.81682-2.94054.98018c-1.14355.16336-2.28709-.32673-3.26727 0s-1.85235.52044-2.99589.6838c-1.14355.16337-4.32512.43207-5.46866 2.06571-1.14355 1.63363-1.99072 4.60185-1.99072 4.60185s1.47027-.49009 2.77718-.49009 2.20407 1.11319 4.16443.94983c1.96036-.16337 3.02357-2.42011 4.00375-3.23692.98018-.81682 1.87734-.30442 3.34761-.63115 1.47027-.32672 3.86269-2.87983 4.67951-3.36992.81681-.49009 4.43313-4.18942 4.43313-4.18942z" fill="#8c7033" transform="matrix(.84520701 0 0 .84520701 -194.66961 7.164996)"/><path d="m-308.60769 213.78367c1.02556 1.6238.76917 1.96566 1.70926 2.39297.9401.42732 1.53834 1.11102 2.05112 1.11102s2.05112.0855 2.30751.42732c.25639.34185 2.3075 1.02556 1.36741 1.28195-.9401.25639-.9401 2.47843-1.70927 2.30751-.76916-.17093-2.05111-.85464-2.39297-1.19649-.34185-.34185-2.56389-2.39297-2.90575-2.47843-.34185-.0855-.85463-.25639-1.19648-.25639s-1.45288-1.02556-.9401-1.70927c.51278-.6837 1.19649-1.36741 1.19649-1.36741z" fill="#85522b"/><path d="m-284.55967 206.77726s-3.42675 2.7414-4.1121 3.08408c-.68535.34267-.51401-1.88471-1.71338-.51401-1.19936 1.3707-3.25541 2.05605-4.28343 3.08407-1.02803 1.02803-2.05606 1.02803-2.05606 2.05605 0 .59691-2.19064-1.47319-3.41675-.86507-.0798.0396-1.52088.55911-3.06891.0551-1.34194-.43689-2.80675-1.91905-3.0128-1.75632-.29426.2324-1.65889 1.35295-1.18448 1.89757.23167.26596.82542 1.17023 1.87529 1.53953 1.28541.45215 3.04132.35825 3.01715.47269-.21702 1.02757 1.33817 1.48314.82172 1.56921-2.05605.34267-1.02802 1.54204-1.88471 2.57007-.85669 1.02802-2.57006-2.91274-3.59809-2.91274-1.02802 0-3.42675-.51401-4.1121-.17133-.68535.34267-1.54203 1.54203-1.19936 3.25541.34268 1.71337 1.54204 3.42675 2.05605 4.96878.51401 1.54204 1.02803 3.59809 1.02803 3.59809l.51401-3.59809 1.54204 1.88472s-.68535 2.05605 0 3.59808c.68534 1.54204 2.22738 3.08408 2.22738 3.08408l1.71502.86244s2.69374 3.33019 3.03641 2.30216c-.51195-1.02802-.24618-1.66446-.24618-1.66446l2.34825.55591 2.05605.17133 1.02803.34268.34103-1.88677s1.02966-1.02597 2.22903-1.02597c1.19936 0 2.22738.17134 2.91273-.51401s1.3707-2.22739 1.3707-2.22739h.17134s2.91274-.34267 4.1121-.34267h4.79745c1.19936 0 3.25541-.17134 3.25541-.17134s3.08408.68535 3.25541 1.71337c.17134 1.02803 2.22739 4.62612 2.22739 4.62612l-1.71337-6.16815-2.22739-1.88471-.85669-1.88472-.17134-2.57006s.34268-1.54204-.34267-1.88471c-.68535-.34268-1.88471-.68535-1.88471-.68535l.85668-1.71338-2.05605.34268-.51401-1.02803s1.3707-1.19936.68535-1.37069c-.68535-.17134-1.71337-.17134-1.71337-.17134s-.34268-1.54204-.85669-2.39873c-.51401-.85668-1.3707-2.22738-1.3707-2.22738v-3.76943z" fill="#704624"/><path d="m-302.49629 222.86165c-.51402 1.11369-.85669 3.08407-1.19937 4.45477-.34267 1.3707-.34267 1.71338-.34267 2.31306s.34267 1.3707.59968 1.71337c.25701.34268 1.45637 1.62771 2.14172 1.19937.68535-.42835 1.54203-1.71338 1.54203-1.71338s.51402 1.79905 1.02803 2.05605c.51401.25701 1.79904-.34267 1.97038-.68535.17134-.34267.59968-1.11369.94236-.17134.34267.94236.59968 1.97039 1.11369.85669.51401-1.11369.51401-2.05605 1.28503-3.08407.77102-1.02803.94236-1.45637 1.19936-1.97038.25701-.51402 1.02803-.34268-.0857-1.71338-1.11369-1.3707-1.97038-2.05605-1.97038-2.31305 0-.25701.42835-.77102 1.19937-.25701.77101.51401 2.48439 1.3707 2.48439 1.3707s-.94236-.94236-1.62771-1.62771-1.6277-1.54203-2.48439-1.6277c-.85669-.0857-1.88471-.59968-2.22739-.34268-.34267.25701-.59968 1.88472-.59968 1.88472s-.68535-.0857-.77102-.51402c-.0857-.42834.25701-1.45637-.257-.77102-.51402.68535-1.1137 2.14172-1.62771 2.31306s-.77102.77102-1.11369 0c-.34268-.77102-1.19936-1.3707-1.19936-1.3707z" fill="#9e7e3a"/><path d="m-297.31334 230.529c-.0502-.49309.99005-.1319 1.45637-.29984.48677-.17531 1.03522-.33431 1.3707-.72818.43039-.5053.34097-1.29343.64252-1.88472.13498-.26467.61923-.45033.51401-.72818-.28578-.75463-1.55198-.487-2.35589-.55685-.7267-.0631-1.50155-.12762-2.18455.12851-.52413.19655-1.19937.1285-1.32787 1.02802s-.257 1.71338-.0428 2.09889c.21417.3855.96212 1.15735 1.6277 1.15652.12282-.00015.33732-.0972.29984-.21417 0-.00001-.00003.00001-.00003 0z" fill="#8c7033"/><path d="m-297.47479 232.89206c0 .4751-.61624.86025-1.37641.86025-.76016 0-1.3764-.38515-1.3764-.86025s.61624-.86025 1.3764-.86025c.76017 0 1.37641.38515 1.37641.86025z" fill="#634324" transform="matrix(.77869701 -.62740016 .62740016 .77869701 -210.2746 -140.26084)"/><path d="m-298.20522 229.96326c.60007-1.9883 1.59486-2.99478 3.97848-2.92423 0 0-3.03178-.46112-3.91247.51603-.53764.59652-.066 2.40825-.066 2.40825z" fill="#614c32"/><path d="m-302.51707 230.92816s.49635-1.41087.79833-1.48637c.30199-.0755.91615-.1419 1.14264-.67038s.77692-.71805.92792-1.171c.15099-.45298.15099-.97559.45298-1.12658s.75497-.22649 1.13246-.30199c.37748-.0755 1.05696-.22649 1.96292-.22649.90597 0 1.81193.67947 1.81193.67947s-1.28345 0-1.66093-.0755c-.37749-.0755-1.88743.22649-2.18942.37748-.30199.151-.67947.98147-.67947 1.28346 0 .30198-.151.98146-.52848 1.20795-.37749.22649-.90597.22649-1.35895.67947-.45299.45299-1.05696.90597-1.05696.90597z" fill="#6e4523"/><path d="m-295.72846 222.09063c.71683-.88305 1.24101-2.33893 2.82706-2.57006.11348-1.95147-.55976-3.47721.77103-5.22579 1.18395-.81046 2.03437-.963 2.9984-1.1137-.17189 2.18483.0999 4.2763 1.11369 5.56847-1.29978 2.15459-2.78415 3.75539-4.54044 4.54044" fill="#ac9076" stroke="#865c00" stroke-width=".285287"/><path d="m-298.08871 238.15008s-.89532.94515-.98705 1.55108c-.0802.52987.42302 1.55107.42302 1.55107s.88271-.8459.98705-1.41007c.10573-.57169-.42302-1.69208-.42302-1.69208z" fill="#704624"/><path d="m-289.75032 226.27491s3.87497-3.88151 6.36296-4.83113c.92032-.35127 2.06305-.67283 2.94581-.23567.58581.2901.91823 1.01162 1.0605 1.64966.12936.58013-.0577 1.20039-.23567 1.76749-.21831.69556-.50866 1.40711-1.00157 1.94424-.97259 1.05983-3.65281 2.29773-3.65281 2.29773l-2.76907.58916" fill="#9e7e3a"/><path d="m-288.04175 226.86407c1.45327-.17731 2.90654-.8442 4.35981-2.12098-.56715 1.40726-1.18287 2.77984-2.82798 3.41714z" fill="#7f512a"/><path d="m-266.23528 198.68802c-.79002-.158-3.31807-.316-4.26609-.316-.94801 0-3.16006.94802-3.95007.94802-.79002 0-2.68606.316-3.47607.316-.79002 0-2.84406-1.10602-.94802 0s4.42409 1.10602 5.37211.94802c.94801-.158 4.58209-.63201 3.31806 0-1.26402.63201-2.05404.79002-2.37005 1.58003-.316.79002-.94801 1.89604.31601 1.89604 1.26403 0 2.21204-.31601 3.79208-.63201 1.58003-.31601 4.89809-2.68606 4.42408-1.58003-.47401 1.10602-1.89603 2.52805-2.52805 3.16006-.63201.63201-1.73803 3.47607-.79001 2.52805s1.42203-1.89604 3.00206-3.00206 4.42408-2.68605 5.0561-2.21204c.63201.47401 1.42203.94801 2.37004 1.10602.94802.158 4.7401-.15801 5.84612 0 1.10602.158 6.16212.316 7.90016 1.26402 1.73803.94802 4.58209 1.58003 3.79207 1.42203-.79001-.158-3.79207-2.37005-5.2141-2.84406-1.42203-.474-6.47813-1.42202-7.90016-2.05404-1.42203-.63201-7.26814-.79001-8.05816-1.26402-.79001-.47401-3.00206.158-3.95008-.47401-.94801-.63201-1.73803-.79002-1.73803-.79002z" fill="#704624"/><path d="m-224.83288 226.47834c-.94802-.63201-.79002-1.10602-1.89604-1.58003s-.79002-2.37005-2.05404-1.42203c-1.26403.94802-2.84406 1.58003-1.73804 2.37005 1.10602.79001 2.37005.79001 3.16006 1.10602.79002.31601 3.63408 1.89604 3.63408 1.89604l.63201-1.10602z" fill="#7d4e28"/><path d="m-231.07587 227.67948-.63201 3.31807-.158.63201-1.73804.15801s.79002.47401 2.05405 1.26402c1.26402.79002 4.42408 2.68605 4.42408 2.68605s-2.05404-2.37004-2.21204-3.31806 0-2.21205 0-2.21205z" fill="#7d4e28"/><path d="m-40.9375 269.90625c-.07737-.043-.245878.42129-.5.96875-.459605-.21713-.873227-.375-1.15625-.375h-3.5625l.1875 2.4375c.612763-.10213 1.550695-.0139 2.40625.21875-.642388.24757-1.33565.3261-2.03125.5-1.257486.31437-4.40625 2.1875-4.40625 2.1875l6-.3125 3.03125-.59375c1.310957 1.13945 3.40625 2.6875 3.40625 2.6875s.748321-.37947.1875-1.875c-.560821-1.49552-.940306-2.44031-1.875-3.375-.434553-.43455-1.036269-.84687-1.625-1.1875v-.6875c0-.39296-.01829-.56919-.0625-.59375z" fill="#7d4e28" transform="matrix(.84520701 0 0 .84520701 -194.66961 7.164996)"/><path d="m-270.50137 217.4904s2.21205.79001 2.68606 1.58003c.47401.79001 1.89604 2.68605 1.89604 2.68605s0 1.73804.79001 2.21205c.79002.474 1.73804 1.10602 2.37005 1.58003s2.05404 1.89603 2.05404 1.89603.63201 2.05404.79001 2.68606c.15801.63201.15801 2.21204.94802 2.84405.79002.63202 1.26403 1.26403 1.89604 1.58004.63201.316 1.26403.94801 1.26403 1.58003 0 .63201 0 2.37004.316 3.47607.31601 1.10602.79002 1.73803 1.58003 2.21204.79002.47401 1.58004 1.10602 2.21205 1.26402.63201.15801 2.05404.31601 2.05404.31601l-2.37005.79002s-2.68605-.94802-1.58003-.47401 1.73803.94802 2.68605 1.58003.79002.79001 1.89604.94802c1.10602.158 2.68605.47401 2.68605.47401l-.158.79001s-2.68605.47401-3.31806 0c-.63202-.47401-2.84406-1.73803-2.84406-1.73803s2.68605 2.21204 3.31806 2.37004c.63202.15801 2.05405.63202.79002.63202-1.26402 0-2.05404 1.26402-3.00206.94802-.94802-.31601-1.89604-.31601-.94802.158s4.42409-.30619 4.42409-.30619 2.33648-1.38498 1.54646.037c-.79001 1.42203-1.77507 1.52621-2.8811 1.52621-1.10602 0-1.35141 1.11299-2.29943 1.27099s-3.16006.31601-3.16006.31601-.79002-.94802-.94802-2.68606c-.15801-1.73803-1.58004-4.10808-2.05404-4.58209-.47401-.47401-.79002-3.47607-.79002-3.47607s-.47401-2.84405-.79002-3.47607c-.316-.63201-2.37004-4.10808-2.37004-4.10808s-.15801-1.26402-.94802-3.63407c-.79002-2.37005-2.52805-4.10808-2.52805-4.10808s-2.37005-2.68605-3.47607-3.63407-1.42203-3.95008-1.42203-3.95008z" fill="#704624"/><g fill="#794c27"><path d="m-281.97395 230.23323s-1.20864.60432-.72518 2.05468c.48345 1.45036 1.57122 2.17554 1.93381 2.77985.36259.60432 1.93381 2.659 1.93381 3.6259 0 .96691.96691 2.17554.96691 2.17554s.48345-1.3295.60431-1.81295c.12087-.48345.36259-2.53813.60432-1.69208.24173.84604.60432 2.90071.84604 3.50503.24173.60432.48345 1.3295.48345-.24173 0-1.57122 1.20864-3.02158 1.3295-3.50503s0-.72518 0-1.81295-1.45036-2.17554-1.45036-2.17554l-.9669 1.20863-.84605-1.45035-1.69208-1.3295s.9669 1.69209.36259 1.69209c-.60432 0-.36259.60431-1.20864 0-.84604-.60432-1.32949-1.20864-1.32949-1.20864l-.48345-.9669z"/><path d="m-273.87612 238.5728 1.08777 3.86762 3.74676.84604 4.9554 1.81295-1.08777-2.90071-2.65899-1.08777s-.24173-1.69209-.84605-2.29641c-.60431-.60431-1.08777-.48345-1.20863-.9669s-1.93381-1.3295-2.17554-2.17554c-.24172-.84604-.48345-2.53813-.48345-1.20863 0 1.32949.36259 3.26331.36259 3.26331l-.96691-1.57123z"/><path d="m-268.19554 244.73682c.84604.96691 1.771 2.54715 2.2964 3.98849.39245 1.0766.60431 3.38417.60431 3.38417s1.17025-3.44452.48346-4.95539c-.57367-1.26201-3.38417-2.41727-3.38417-2.41727z"/><path d="m-271.26026 227.54325s.51076 2.74552 1.19648 3.93131c.62554 1.08172 1.9573 1.64237 2.5639 2.73482.85876 1.54657 1.13756 3.3738 1.36741 5.1278.0444.33895 0 1.02555 0 1.02555s-.0912-3.07768-.17093-4.61501c-.0443-.85538.20452-1.79404-.17092-2.5639-.63671-1.30562-2.33802-1.77319-3.24761-2.90575-.65494-.81549-1.53833-2.73482-1.53833-2.73482z"/></g><path d="m-292.11329 241.30283c.25639.85463.68371 1.11102 1.28195 2.47843s.34185 2.47844.0855 2.82029c-.25639.34185-.76917 1.45287-.76917 1.45287l.0855 1.45288s1.19648-1.6238 1.53833-2.05112c.34186-.42731.85464-.94009.9401-1.36741.0855-.42732-.0855-1.96565-.0855-2.5639 0-.59824-.17093-1.6238.17092-.85463.34186.76917.85463 1.36741 1.02556 2.13658s.0855 1.19649.76917 2.30751c.68371 1.11102 1.6238 2.39297 1.6238 2.39297s-.42731-1.6238-.59824-2.5639c-.17093-.94009-.0855-1.6238-.34185-2.82028-.25639-1.19649-1.02556-2.82029-1.02556-2.82029s.34185.59824.94009.94009c.59825.34186 1.28195.0855 1.6238.9401.34186.85463.42732 2.05112 1.02556 2.47843.59825.42732 1.79473 1.11103 1.79473 1.11103s-1.45287-2.39297-1.53834-3.24761c-.0855-.85463-.6837-2.39297-.94009-2.90575s-.85464-1.19648.0855-.42731c.9401.76917 1.45287 1.11102 2.13658 1.70926s1.88019 1.53834 2.39297 1.36741c.51278-.17092 1.36741-.34185 1.36741-.34185s1.28195.42732 1.96566.85463c.6837.42732 1.45287 2.13658 1.45287 2.13658l.0855-1.19648-1.19648-1.45288s-1.02556-.85463-1.45288-.85463c-.42731 0-1.53833-.51278-2.05111-.85463s-2.32524-1.95753-2.32524-1.95753l.0177-2.31563s-.51278-1.28195-.85463-1.02556-1.28195 1.53834-1.28195 1.53834-1.70926 1.6238-2.13658 1.70926c-.42732.0855-.59824.42732-1.28195 0-.68371-.42731-1.45287-2.82028-1.53834-1.6238-.0855 1.19649 0 1.70927-.0855 2.73482-.0855 1.02556-.9401 1.6238-.9401 1.6238z" fill="#704624"/><path d="m-285.95994 203.61355-2.05112 2.22204.51278 1.88019 2.22205-2.39297 1.36741 1.88019s2.05112.34186 2.73482.34186c.68371 0 3.2476-1.70927 3.2476-1.70927s-1.36741-.51278-2.05111-.34185c-.68371.17093-2.90575.17093-2.90575.17093l2.05112-1.88019 2.39297-1.8802s1.53833-1.19648.34185-.85463c-1.19649.34186-2.22205 1.36741-2.22205.51278s.51278-2.22204.51278-2.22204l-2.05111.34185s-.85464 0-1.36741 1.02556c-.51278 1.02556-1.36742 1.88019-1.36742 1.88019z" fill="#7d4e28"/><path d="m-277.41362 207.37393 2.73483-.51278 2.39297-.34185s-.85463.85463-1.53834 1.02556c-.68371.17092-2.39297.34185-2.39297.34185z" fill="#7d4e28"/><path d="m-272.62768 209.25412 2.05112-.6837s.85463.34185 1.70927.34185c.85463 0 1.19648-.17093 2.22204-.34185 1.02556-.17093-1.19649 1.36741-1.19649 1.36741l-2.39297-.68371z" fill="#7d4e28"/><path d="m-292.24733 235.24906s.72518.18129 1.02734.48345.42302.42302.60431.84604c.1813.42303.24173 1.02734.24173 1.02734s.42302.48345.36259.12087c-.0604-.36259 0-.84605-.0604-1.26907s-.72518-1.02734-.72518-1.02734z" fill="#7b542f"/><path d="m-288.561 235.1282c.12086.36259.30216.72517.48345 1.32949.1813.60432.1813.90648.48345 1.45036.30216.54388.90648 1.08777.66475.72518-.24172-.36259-.42302-.36259-.48345-.84604-.0604-.48346.0604-.84605-.1813-1.26907-.24172-.42302-.18129-.48345-.42302-.84604-.24172-.36259-.54388-.54388-.54388-.54388z" fill="#7b542f"/><path d="m-292.0056 237.84762c0 .36259-.12087.66475.24172 1.08777s.66475.54388.72518 1.02734c.0604.48345.0604 1.38992.0604 1.38992s.24173-.60431.24173-1.08777c0-.48345-.72518-1.45036-.72518-1.45036z" fill="#7b542f"/><path d="m-278.46892 230.11237c.36259.30216.96691.72518 1.26906.90647.30216.1813 1.14821.42303 1.57123.90648s.48345.96691.48345.96691.42302-.90648-.24173-1.38993c-.66474-.48346-1.69208-.84604-1.69208-.84604z" fill="#794c27"/><path d="m-262.94798 241.91998s1.44721 2.36855 1.80586 3.69022c.27493 1.01317.0496 2.1074.23554 3.14061.21711 1.20651 1.0207 3.5332 1.0207 3.5332s-.41287-2.19789-.31406-3.29765c.0779-.8665.86874-1.65773.70664-2.51249-.355-1.87197-3.45468-4.55389-3.45468-4.55389z" fill="#794c27"/><path d="m-273.03125 244.3125s1.51398 1.35197 1.90625 1.875c.39228.52303.59375.92557.59375 1.90625s.0457 1.51398-.28125 1.90625c-.0817.0981-.20645.20422-.375.3125v.46875c-.62197-.0235-1.11383.73368-1.5625 1.75l3.4375-.625 1.5625 4.53125s2.90313 4.03048 3.53125 4.1875c.40259.10065 4.29531 2.8398 7.09375 3.125 1.28585.13105 2.22559-1.26805 2.6875-1.84375-.79432-.50291-1.46865-1.03115-1.90625-1.46875-.78454-.78455-1.0366-1.36307-1.625-2.34375-.58841-.98068-1.78125-1.96875-1.78125-1.96875s-.57648-1.34621-.96875-2c-.39228-.65379-1.69614-1.51727-1.5-1.125.19613.39228.36349 1.05015.625 2.75.26152 1.69984 1.07072 3.3861 1.59375 3.84375.52303.45766 1.4264 1.38652.96875 1.125-.45765-.26151-2.86636-1.63322-3.0625-2.15625-.19613-.52303-.64761-2.16447-.84375-2.6875-.19613-.52303-.55099-1.95394-.8125-3-.26152-1.04606-.49712-4.382-.5625-2.09375-.0654 2.28825.4375 4.45148.4375 4.84375s.51727 2.48602.125 2.09375c-.39227-.39228-1.6875-3.59375-1.6875-3.59375l-.96875-2.8125s.36678.0547-.15625-1.1875-1.1505-2.73849-1.28125-3c-.13076-.26152-1.19326-1.77878-1.0625-1.125.13076.65379.46299 2.09622.59375 2.75.13075.65379.59375 3.28125.59375 3.28125s-.39762.0543-.59375-.46875c-.19614-.52303-.53125-.90872-.53125-1.5625 0-.65379-.125-2.5-.125-2.5s-.45723-.82936-.71875-1.15625c-.26151-.3269-.3236-.13034-.78125-.71875s-2.5625-1.3125-2.5625-1.3125z" fill="#704624"/><path d="m-263.21431 248.3577s.84992.52303.98068 1.30758c.13075.78454.13075 2.87665.13075 2.87665s.52303.13076.58841-.19613c.0654-.32689-.26151-1.89598-.32689-2.48439-.0654-.58841-1.37295-1.50371-1.37295-1.50371z" fill="#85522b"/><path d="m-259.94538 251.4305c.0654.39227.58841.98068 1.11143 2.28825.52303 1.30757.39228 1.89598 1.11144 2.15749.71917.26152 1.2422.45765 1.2422.45765s-1.04606-.26151-1.04606-.98068c0-.71916-.13076-1.17681-.13076-1.69984s-.52303-1.96136-.52303-1.96136z" fill="#85522b"/><path d="m-258.0494 246.78862c.19613.71916.45765 1.30757.45765 1.8306s-.13076 1.43833-.13076 1.43833-.19613 1.24219.0654 1.76522c.26151.52303.45765.9153.45765.9153s-.13076-1.17681-.13076-1.50371c0-.32689.3269-.98068.45765-1.30757.13076-.32689.19614-.52303.19614-.78454 0-.26152-.26152-1.04606-.45765-1.37295-.19614-.3269-.9153-.98068-.9153-.98068z" fill="#85522b"/><path d="m-257.125 253.90625c-.19307-.0337-.24229.039-.0625.21875.71917.71917 1.94572 2.02549 2.46875 2.15625.52303.13075 1.50535.24424 2.09375.375.58841.13075 1.4375.28125 1.4375.28125l.3125.15625.875-.65625-3.75-.78125s1.24766-.93438 1.71875-1.5625c.0383-.0511.10687-.12356.15625-.1875-.23546.12541-.4707.23716-.625.28125l-2.28125.65625s-1.76454-.83637-2.34375-.9375zm2.03125 4.375c-.45765 0 .125.875.125.875l.96875.5s.72122.27837 1.375.34375c.52524.0525.96875.0379 1.5625.125 1.24932-.6404 2.40625-1.25 2.40625-1.25h-1.625l-3.3125.25.9375-.6875c-.56194-.0139-2.00732-.15625-2.4375-.15625z" fill="#85522b"/><path d="m-266.54862 230.37858c.32689 1.17682 1.04606 2.54977 1.11143 2.94204.0654.39227.78455 1.96136 1.17682 2.35363s1.30757 1.17682 1.30757 1.17682.52303.39227.65379.84992.52303 2.02674.52303 2.02674-.13076 1.17681.19613 1.56908c.3269.39227.78455.65379 1.11144 1.2422.32689.5884.78454 1.76522.78454 1.76522s.13076-1.37295.13076-1.8306-.52303-2.02674-.65379-2.41901c-.13075-.39227-1.17681-2.7459-1.43833-3.20355-.26151-.45765-2.22287-1.83061-2.22287-1.83061z" fill="#794c27"/><path d="m-103.17844 240.62528c.63495-.95241 1.26989-2.2223 3.17472-1.90483 1.904838.31747 2.698518.79368 5.238295 1.11115 2.539777.31748 4.603345.31748 6.508178.31748s4.603346-1.11116 5.23829.15873.79368 4.60335.79368 4.60335-.634944 4.92082-2.381041 4.44461c-1.746096-.47621-5.714498-1.11115-6.349442-.95242-.634944.15874.158736 2.69851.158736 2.69851s1.428625 6.66692.317472 6.98439c-1.111152.31747-2.698513-2.69851-3.650929-4.12714-.952416-1.42862-2.698513-4.12713-3.809665-5.07955-1.111153-.95242-2.698514-2.85725-2.698514-2.85725z" fill="#8c7033" transform="matrix(.84520701 0 0 .84520701 -194.66961 7.164996)"/><path d="m-270.79823 220.83331s-.13076 1.5037-.0654 1.89597c.0654.39228.65379 1.30758.78454 1.69985.13076.39227.3269.84992.45765 1.43833.13076.58841.3269 1.96136.3269 1.96136s-.13076.5884.19613.78454c.3269.19614 1.17682.39227 1.43833.58841.26152.19613 1.04606 1.43833.9153 1.17681-.13075-.26151-1.50371-2.28825-1.50371-2.28825l-.26151-.9153s.71916-.26151.98068.19614c.26151.45765 1.63446 1.37295 1.63446 1.37295l-1.30757-2.41901-.26151-1.30757s-.45765-.0654-.78455-.3269c-.32689-.26151-.26151-.52303-.84992-1.24219-.58841-.71917-1.69984-2.61514-1.69984-2.61514z" fill="#794c27"/><path d="m-280.60502 210.96113c.32689-.39227 1.24219-.78454 1.63446-.84992.39227-.0654 1.24219-.26151 1.24219-.26151l-.39227.71916h1.11144s.71916-.52303 1.43833-.39227c.71916.13076 1.37295.78454 1.76522.78454s1.8306-.0654 2.28825.13076c.45765.19614 1.89598.78454 1.89598.78454s-1.76522-.19613-2.15749-.26151c-.39227-.0654-1.50371-.13076-2.02674-.19614-.52303-.0654-1.30757-.52302-1.63446-.5884-.3269-.0654-.45765-.19614-1.2422 0-.78454.19613-1.50371.32689-1.76522.32689s-.71916-.19614-1.17682-.0654c-.45765.13076-.98067-.13076-.98067-.13076z" fill="#7d4e28"/><path d="m-273.60951 214.16469s.58841-.52303 1.11143-.58841c.52303-.0654 1.11144-.39227 1.37295-.45765.26152-.0654-.19613.45765-.39227.71916-.19613.26152-.32689.39227-.32689.39227h.71916c.26152 0 .91531.13076 1.11144-.13075.19614-.26152.84992-.71917.84992-.71917l.19614 1.11144h.9153c.52303 0 .98068 0 1.24219-.26152.26152-.26151.3269-.32689.78455-.71916s.39227-.39227.84992-.58841c.45765-.19613 1.11144-.26151 1.11144-.26151s-1.04606.19613-1.2422.52303c-.19613.32689-.32689.84992-.58841 1.11143-.26151.26152-.52302.9153-1.04605.98068-.52303.0654-1.17682.0654-1.63447.0654s-.98068.13076-1.63446-.13076c-.65379-.26151-.91531-.52303-1.50371-.5884-.58841-.0654-1.04606 0-1.30757-.0654-.26152-.0654-.58841-.39227-.58841-.39227z" fill="#7d4e28"/><path d="m-281.5857 211.61492c.5884-.0654 1.24219-.13076 1.69984.13076.45765.26151 1.37295.65378 1.69984.84992.3269.19614.58841.58841 1.17682.65379.58841.0654 1.11144.13075 1.43833.45765.32689.32689.98068 1.04605 1.43833 1.24219s1.50371.78454 1.50371.78454 1.11143.45765 1.43833.58841c.32689.13076.52303.19614.9153 0s.5884-.45765.5884-.13076c0 .3269-.13075.52303.26152.52303s.78454-.0654 1.30757-.0654 1.37295-.13075 1.37295-.13075 1.43833-.3269 1.69985-.26152c.26151.0654.71916.32689.71916.32689s.19614.26152-.0654.3269c-.26151.0654-.84992-.26152-.84992-.26152s-1.37295.26152-1.76522.26152-1.56909.0654-1.96136.0654-1.96136.19613-2.48439.0654c-.52303-.13076-1.8306-1.04606-1.8306-1.04606s-1.30757-.71917-1.56909-.9153c-.26151-.19614-1.11143-.84993-1.11143-.84993s-1.04606-.78454-1.37295-.78454c-.3269 0-.13076.19614-.84993-.0654-.71916-.26151-1.89598-1.04606-1.89598-1.04606l-1.04605-.5884z" fill="#7d4e28"/><path d="m-280.73578 213.77241c.32689.0654.84992.52303 1.24219.58841.39227.0654 1.50371.26152 1.89598.32689.39227.0654 1.56909.19614 1.04606.0654-.52303-.13075-1.11144-.13075-1.37295-.45765-.26152-.32689-.19614-.39227-.65379-.45765-.45765-.0654-.19613.0654-.78454-.0654-.58841-.13075-1.37295 0-1.37295 0z" fill="#85522b"/><path d="m-275.43634 216.982c.55476 1.38689.55476 2.12656 1.01706 2.4964.46229.36984 1.10951 1.10951 1.47935 1.57181.36983.4623 1.38689 3.88329 1.29443 3.05116-.0925-.83214-1.10951-3.97575-1.10951-3.97575l-1.66427-1.20197z" fill="#794c27"/><path d="m-283.28125 199.21875c-.31246.14979-.65884.29394-1.125.46875-1.36741.51278-2.15625 2.8125-2.15625 2.8125l-.4375.25c-.42731.25639-.67661.61861-1.53125.875-.85463.25639-.76019.66005-1.1875 1.34375-.42732.68371-1.375 1.125-1.375 1.125s-1.01018.0957-1.4375.4375c-.42732.34186-1.46875 1.28125-1.46875 1.28125s-1.19768-.0918-1.625.25c-.42731.34186-1.26847.68111-1.78125.9375s-1.6224.5-2.5625.5c-.94009 0-.94129-.004-1.625-.6875-.6837-.6837-1.47064.45407-1.8125.625-.34185.17089-1.01019-.008-1.4375-.0937-.42732-.0855-.6894-.95217-1.03125-.78125-.34185.17093-.4145 1.10394-.5 1.53125-.0855.42732-.9375 1.5625-.9375 1.5625s-1.30801.32907-1.90625.5-1.01847.0874-1.53125.34375c-.51278.25639.0147.25569-.15625 1.28125-.0808.48505-.0785.43973-.0937.53125.31401.49202.69832.85397.96875.71875.36983-.18491 1.22391-1.19267 1.59375-1.5625.36983-.36984.54803-1.37887 1.75-1.65625s2.31767-.75388 2.6875-1.03125c.36984-.27738.5377-.5625 1-.5625h1.5c.4623 0 1.57024-.71875 2.125-.71875s2.2877.18617 2.75.0937c.4623-.0925 1.75904-1.03125 2.40625-1.03125.64722 0 1.6627-.47134 2.125-.65625.46229-.18492 1.13533-.44524 1.875-1 .73968-.55475 2.125-1.21875 2.125-1.21875l1.1875-2.03125 2.59375-3.40625s.30362-.20118 1.03125-1.03125z" fill="#7b542f"/><path d="m-115.05995 238.44294c-1.25749 1.41468-1.57186 1.57186-2.51498 1.57186-.94311 0-2.67215.31437-2.67215.31437l-1.1003 1.57186s1.72904-.62874 2.35778-.62874 2.98653-.62875 2.98653-.62875z" fill="#7d4e28" transform="matrix(.84520701 0 0 .84520701 -194.66961 7.164996)"/><path d="m-272.68069 201.04956c-.57343.22937-2.29372.22937-3.09652.34405-.80279.11469-2.06434 1.03217-2.52308 1.49092-.45874.45874-2.17902 2.06434-2.17902 2.06434s2.17902-.45875 2.86714-.57343c.68811-.11468 1.83496-.11468 1.83496.57343 0 .68812-2.52308 1.94965-2.52308 1.94965l-2.52308 1.49092s2.98182-1.83497 3.55525-2.29371 4.014-1.14686 4.014-1.14686l1.49091 1.03217-.8028 2.17903s1.03218.11469 1.49092-.11468c.45874-.22938 1.94965-.34406 1.94965-.34406s.22938-.22938.34406-.68811c.11469-.45875-.11468-.91749.45874-1.49092.57343-.57342 1.49092-1.6056 1.49092-1.6056s-.8028-.22937-1.26155.22937c-.45874.45875-1.83496 1.14686-1.83496 1.14686l-2.17903.22937-1.49091-1.94966z" fill="#937536"/><path d="m-216.18055 252.35381c0 1.59425.26571 4.78276-.53142 6.11131-.79712 1.32854-3.45421 6.90843-3.45421 6.90843s3.71992-3.71992 4.25134-5.04847c.53142-1.32854 2.39138-3.71992 2.39138-3.71992l-.79713-.53143z" fill="#7d4e28"/></g><path d="m-43.174386 242.77155c-2.272336 0-10.452746-.45447-13.634017-.90893-3.18127-.45447-13.634017-2.72681-13.634017-2.72681s-7.725942 4.09021-7.725942 7.27148 2.272336 6.36254 6.362541 6.36254 11.816148-3.18127 14.997418-3.18127c3.181271 0 9.998279.45447 13.17955.45447 3.18127 0 7.725942-.45447 9.089344 1.81787 1.363402 2.27233 2.272336 4.99914 2.726803 6.817.454468 1.81787-4.090205 4.99914-4.544672 7.72595-.454467 2.7268 1.817869 8.63487 5.908074 9.08934s10.452746-1.81787 11.361681-4.99914c.908934-3.18127 4.090205-16.81528 4.090205-16.81528s-5.453607-2.72681-9.543812-4.09021-13.634017-4.54467-13.634017-4.54467z" fill="#b48f42" transform="matrix(.87630987 0 0 .87630987 455.52432 374.17105)"/><path d="m-31.5 309.125-4.15625.625-2.25 2.90625 3.5 2.5 1-1.15625 6.125-2.625-1.15625-1.8125z" fill="#7d4e28" transform="matrix(.87630987 0 0 .87630987 455.52432 374.17105)"/><path d="m-32.619387 272.62936c0 1.93014.579042 5.40439.96507 6.17645s7.141523 7.52755 7.141523 7.52755.193014-.77205.772056-1.73713c.579043-.96507 4.053297-6.17645 5.211382-7.14152s4.439325-5.01837 4.439325-5.01837 1.737127-3.66726 2.509183-7.52755c.772057-3.86028.965071-8.10659.965071-8.10659l-2.895212-2.31617s-1.351099 4.82535-1.544113 6.7555c-.193014 1.93014-3.667268 8.49262-3.667268 8.49262s-3.28124 3.47425-4.439325 3.47425-9.457692-.57904-9.457692-.57904z" fill="#9e7e3a" transform="matrix(.87630987 0 0 .87630987 455.52432 374.17105)"/></g><path d="m148.28287 584.01921h156.71927" fill="none" stroke="#0a0a0a" stroke-width="1.611311"/><path d="m-123.07643 240.95792h-1.88623l-2.82934 1.25748-2.2006.31437 2.35779.31437 2.82934-1.57185z" fill="#6a4222" transform="matrix(.87630987 0 0 .87630987 276.80355 396.02648)"/><path d="m-124.64828 243.15852 1.57185-.94312 3.14372.31437-2.82935.31437z" fill="#6a4222" transform="matrix(.87630987 0 0 .87630987 276.80355 396.02648)"/><path d="m-146 141.6875c.0296 17.1208.24354 32.97184-.0937 48.25v27.75c.13708 4.59176.23082 11.80024.25 20.21875.00064.28249-.00054.49594 0 .78125.20276 27.77689-.16267 64.26787-.375 76.4375-.0258 1.48037-.0662 2.41852-.0937 3.1875.0296 1.2405.1501 2.17535.65625 3.375.66997 1.5879 3.3125 3.96875 3.3125 3.96875l38.34365 16.53125s30.475842 13.82968 46.8125 14.84375c.09106.006.189571-.005.28125 0 .09168-.005.190191.006.28125 0 16.336664-1.01407 46.8125-14.84375 46.8125-14.84375l38.34375-16.53125s.03076.00044.03125 0c.05002-.045 2.617735-2.39612 3.28125-3.96875.469131-1.11189.611637-1.99104.65625-3.09375-.021-.80354-.06474-1.80585-.09375-3.46875-.232968-13.35263-.701274-56.03995-.34375-84.28125.0048-.72753.0254-1.55468.03125-2.25.03634-4.31659.074-8.15121.15625-10.90625v-27.75c-.337267-15.27816-.123306-31.1292-.09375-48.25z" fill="none" stroke="#0a0a0a" stroke-width="1.838746" transform="matrix(.87630987 0 0 .87630987 276.80355 396.02648)"/><path d="m-178.14413 319.90254c3.12534 0 29.69069 3.12533 29.69069 3.12533s8.59467 2.344 16.01734 4.68801c7.42268 2.344 22.79274 16.34098 26.30874 15.16898 3.516-1.17201 13.148626-7.35565 15.492628-8.13698s3.125335-8.59467 3.125335-8.59467-8.594672-2.344-11.329341-3.12534c-2.734672-.78133-15.626682-1.172-18.752012-1.56267-3.12534-.39066-21.48668-5.07867-21.48668-5.07867l-8.98534-5.07867s-2.34401.39067.39066 2.73467 9.76668 6.64134 9.76668 6.64134 8.204 3.516 4.688 2.73467-22.65868-7.03201-25.00268-7.03201c-2.34401 0-19.92402 3.51601-19.92402 3.51601z" fill="#a5833d" transform="matrix(.87630987 0 0 .87630987 320.57845 400.47817)"/><path d="m164.84029 679.14203c-1.21575 1.45888-1.9452 3.40408 0 3.64722 1.94519.24315 3.40407-1.21574 5.59242-.97259 2.18834.24315 4.86299 1.45888 8.99651 1.45888 4.13354 0 13.13006 1.70206 13.13006 1.70206s4.37668 2.18834 6.07872 3.16094c1.70204.97259 4.86299 1.45888 5.83558.24315.9726-1.21575 2.18834-4.37669 1.21574-5.10615-.97259-.72943-1.70203-1.70203-3.89038-1.21573-2.18833.4863-5.83558 1.70204-5.83558 1.70204s-6.80818-.9726-7.78076-1.21574c-.97259-.24316-2.67465-1.70205-5.34928-1.4589-2.67464.24316-6.56503.24316-7.78078 0-1.21574-.24315-3.40408-.4863-5.34927-.4863-1.9452 0-4.86298-1.45888-4.86298-1.45888z" fill="#88552c"/><path d="m244.35003 681.81666s-2.91779 2.18834-3.89039 2.18834c-.97259 0-2.67463-.72946-3.89038-.24315-1.21575.48629-3.16094 2.9178-3.16094 2.9178s-1.21574 1.45889-.24315 1.45889c.9726 0 3.16094-1.70204 4.61984-1.45889 1.4589.24314 1.94519 3.40406.9726 3.89039-.9726.48629-3.16095.48629-4.37669.48629-1.21575 0-2.67463 0-2.67463 0s-4.37669-.48629-3.89039.48629c.48629.9726 2.67463 1.70205 2.67463 3.40408 0 1.70206-2.18834 4.13354-3.40407 4.13354-1.21575 0-3.4041.24315-4.86299-.48629-1.45889-.72945-5.10614-3.64725-1.94519-.97259 3.16093 2.67463 5.59243 3.89036 7.05132 3.89036 1.45888 0 2.67463 0 5.34928-.24314 2.67463-.24315 6.32188-1.45889 7.78076-1.45889 1.4589 0 6.07873-1.21574 7.29448-1.94519s2.4315-1.45889 2.91779-3.4041c.4863-1.94518-.9726-5.10612-.9726-5.10612s-1.4589-3.89039-2.18835-4.37668c-.72944-.48631-3.16093-3.16094-3.16093-3.16094z" fill="#88552c"/><path d="m202.246 689.78628s6.17511 1.87937 7.24904 2.41634c1.07392.53697 11.54477 5.36967 11.54477 5.36967l-8.59146-7.24904-7.24904-3.49029 2.41634 3.49029z" fill="#88552c"/><path d="m207.61565 684.14812 9.12843 6.4436 11.0078.26848-10.47083-2.41634z" fill="#88552c"/><path d="m189.3588 688.71235 13.15569 9.66538 10.47082-2.14786c-9.70451-1.2865-16.57671-4.46121-23.62651-7.51752z" fill="#88552c"/><path d="m-154.97246 306.90597c-.27625 2.48619.27624 6.35359.27624 6.35359s12.43095-.82873 11.04973-3.31492c-1.38122-2.48618-2.76243-5.52486-2.76243-5.52486-3.60096.0823-6.43583.93066-8.56354 2.48619z" fill="#a06434" transform="matrix(.87630987 0 0 .87630987 320.57845 400.47817)"/><g fill="#88552c"><path d="m174.81969 671.86096v3.63112s4.59942-.24207 5.80979.24207c1.21037.48415 6.77809 1.69453 6.77809 1.69453l-7.02017-3.38905-.48414-.9683z"/><path d="m174.22439 672.30327s.17116 2.90994.34234 3.59464c.17117.68468.68469 1.71172 1.54056 1.8829.85586.17117 2.56758.17117 3.7658.17117 1.1982 0 2.90992-.34235 2.90992-.34235s-4.964.85586-6.16221.85586c-1.1982 0-3.0811-.17117-4.45049-.34234-1.36938-.17117-2.56758.51351-2.56758-.17117 0-.68469.51351-2.22525 1.1982-3.08111.6847-.85586 3.42346-2.5676 3.42346-2.5676z"/><path d="m253.82111 693.25719 1.73186-2.16484 7.36043-.86593 5.62856 4.32966-6.49449 3.03076z"/><path d="m-141.42144 313.65187 4.29734 3.12533 14.45468 1.56267-16.40801-.78134z" transform="matrix(.87630987 0 0 .87630987 320.57845 400.47817)"/><path d="m-124.62276 323.02787s7.03201 2.73467 8.98534 3.90667c1.95334 1.172 12.50135 2.344 12.50135 2.344s-9.37601-3.516-10.93868-3.516-10.54801-2.73467-10.54801-2.73467z" transform="matrix(.87630987 0 0 .87630987 320.57845 400.47817)"/><path d="m-121.88809 321.07454c1.56267 0 14.84535 2.73467 14.84535 2.73467l4.688.78133z" transform="matrix(.87630987 0 0 .87630987 320.57845 400.47817)"/><path d="m-146.50011 318.33987c1.56267.39067 13.28268 3.90667 13.28268 3.90667l-8.20401-3.12534z" transform="matrix(.87630987 0 0 .87630987 320.57845 400.47817)"/><path d="m-77.742723 318.33987c1.562668-.39067 3.90667-.78134 3.90667-.78134s1.562667 1.17201 3.516002 1.17201 6.250671 1.172 6.250671 1.172l-7.422672.78133-3.516002-1.172z" transform="matrix(.87630987 0 0 .87630987 320.57845 400.47817)"/><path d="m-90.244065 316.7772-3.90667-1.172s-3.516002.78133-5.07867.78133c-1.562665 0-2.344005 0-2.344005 0s3.906673.78134 5.469341.78134c1.562667 0 5.860004-.39067 5.860004-.39067z" transform="matrix(.87630987 0 0 .87630987 320.57845 400.47817)"/><path d="m-40.238696 323.80921 6.250671-2.34401s6.641339-.39066 4.688004-.78133-7.032005-2.73467-8.594673-1.172-2.344002 4.29734-2.344002 4.29734z" transform="matrix(.87630987 0 0 .87630987 320.57845 400.47817)"/><path d="m-113.68408 321.85587c2.73467 0 9.76667 1.56267 11.32934 1.95334 1.56267.39066 5.07867.78133 3.125335 1.172-1.953335.39066-7.422675-.39067-8.985335-.78134-1.56267-.39066-5.46934-2.344-5.46934-2.344z" transform="matrix(.87630987 0 0 .87630987 320.57845 400.47817)"/></g><path d="m-81.258725 319.1212c2.344001 0 5.860004 3.51601 8.204006 3.90667 2.344001.39067 8.204005 1.56267 10.15734 2.344 1.953335.78134 7.813339 1.172 7.813339 1.172s-8.204006 1.56267-9.766674 1.17201c-1.562667-.39067-3.516002-1.56267-7.422672-2.34401-3.906669-.78133-8.985339-6.25067-8.985339-6.25067z" fill="#a5833d" transform="matrix(.87630987 0 0 .87630987 320.57845 400.47817)"/></g></svg>