<svg height="600" width="1200" xmlns="http://www.w3.org/2000/svg" xmlns:xlink="http://www.w3.org/1999/xlink"><path d="m0 0h1200v600h-1200z" fill="#fff" fill-rule="evenodd"/><path id="a" d="m1200 600v-64l-1058-536h-142v65l1056 535z" fill="#0047b6"/><use height="600" transform="matrix(-1 0 0 1 1200 0)" width="1200" xlink:href="#a"/><g stroke="#000"><path d="m500.08158 181.73472 201.18089-.54666s.41114 60.80115-1.06377 127.24279c-1.92337 86.64527-77.12258 136.43775-99.52667 135.15704-26.1234-1.4726-98.05065-53.33375-101.10456-134.18549-2.25106-59.59689.51411-127.66768.51411-127.66768z" fill="#fdd44f" fill-rule="evenodd" stroke-width="2.88"/><path d="m653.01956 223.18551c-1.80992 6.33476-2.23787 5.19894-11.2875 7.6875-9.27594 2.48865-12.93991 11.08548-12.4875 20.5875.45252 7.9185 2.76659 13.3429 11.1375 21.4875 9.04961 8.59722 13.7625 13.14426 13.7625 23.325-2.26245-5.65591-6.5438-5.91758-9.9375-7.275-3.16736-1.13123-3.38747-5.15643-1.125-8.55-6.33474 1.35744-5.90237 6.99764-3.1875 9.7125-2.03616.45252-2.24748.88885-2.7 2.925-2.94104.90492-4.97383.24238-7.4625-2.925-1.13123 4.52481 1.3276 6.1125 5.4 6.1125-6.10855 3.39371-5.20352 11.72886 0 13.3125-3.61989-3.84611-.42485-7.89883 1.8375-10.3875-.67873 5.65604 5.20386 6.09249 6.7875 2.925-4.07228.2263-3.63104-7.0125 2.025-7.0125 5.20353 0 8.4012 5.44887 8.175 10.2-.22634 4.75113-4.33908 12.4512-13.1625 12.225-7.6922-.22632-11.75762-5.22771-14.925-9.3-.67874-2.94119-1.34497-5.65256-2.25-7.4625-2.71483-5.88224-10.19006-13.5739-12-20.5875-1.24451-4.66682-15.17959-2.6949-23.85-1.0125 1.993-2.19396 3.3369-4.36137 3.2625-5.775-7.6922-2.71486-12.6626-7.92016-14.925-13.35-2.03621-5.42973-6.76764-13.56506-10.3875-15.375-3.84608-2.03615-6.79495-4.29632-5.4375-7.2375 1.13119-2.71487 1.35619-4.53007.225-5.8875-.33937-.39592-.72555-.78696-1.125-1.0875.02626-2.12568-3.07979-4.0875-5.2125-4.0875 1.58368 1.58375 2.02626 2.46517 1.8 4.275-.90495 1.58375-.44751 1.34257-.9 2.7-.72968-1.82412-2.49066-3.34341-3.975-3.0375-.00667-.00572-.03078.00572-.0375 0-1.49834-1.28447-4.34372-2.56533-6.6375.5625 3.24967.6094 3.25849.6991 4.2 1.6875-.12795.41979-.077 1.00254.1125 1.95-1.87669-.75066-3.42079-.55061-3.9.825-1.39425-.44566-3.65885.64268-4.725 2.775 2.06097-.31712 3.70278-.40395 4.875.1125.4638 1.44375 1.39446 2.61025 2.8125 2.1375 2.26243-.67862 3.1875-1.8 3.1875-1.8.45249 1.35744-1.14237 4.26876 2.025 5.4-2.71489 0-5.66125.02887-5.8875 1.6125-.11576.69483-.38891 1.68564-.375 2.7-1.86751-.14237-4.88919.1721-5.7375-1.3125 1.35744 4.0724 3.88263 4.95504 7.05 4.05 2.26242 1.35754 2.47252-.21506 2.925-2.025 1.35745.2262 3.4063-1.39361 4.5375-.2625 1.13119 1.13125 2.96001 5.46505 3.4125 7.275.45247 1.58373 1.35-1.60626 1.35-2.7375-.00001 3.39358.225 6.7875.225 6.7875.45247-1.13123 1.125-3.1875 1.125-3.1875-.00002 2.71497-.22873 6.13753.45 8.4.98981-1.78169 1.79883-2.67544 1.9875-3.9375-.28676 4.32744-1.28672 6.37972-.6375 10.275 1.13123-1.13112 2.05753-2.91386 2.9625-4.95-1.80991 4.5248-1.35745 6.99763 0 9.7125.21857-.98349.66055-1.64494 1.05-2.25-.2685 2.06954.10225 4.28265 1.6125 5.625-.00002-1.79303.74071-1.93947 1.05-2.475-.23412 2.0295.08075 2.56356 1.4625 4.5375 1.18776 1.78162 2.74498 2.52306 3.1125 4.5-.35786.31908-.73728.61911-1.0875.9375-2.26243 2.03614-14.68633 9.24392-17.175 12.6375-2.26239.45252-4.97757.66385-6.7875 2.7-2.48868 0-7.275-.675-7.275-.675-.93789-2.25082-3.06517-2.78296-4.1625-1.6125-2.67932-1.24227-5.2875 1.22367-5.2875 4.35 1.54102-.96312 3.05076-1.27604 4.3125-.7875.28495.95112 1.37753 1.48412 4.05.975l2.7.4875c-2.48865 1.80994-3.14131 1.79376-4.725 2.925-2.71487 0-6.15497.20773-5.25 3.375-1.58367 2.03625-2.22243 5.00894-.4125 7.95.87405-1.96662 1.93365-4.7651 3.6375-5.3625.27521-.02938.51556-.04344.8625-.075 2.48866-.22622 3.18625-.92504 3.4125-3.1875 2.03619-.67871 2.91383-.17888 4.95-1.7625-.22625 2.94118-1.0875 4.95-1.0875 4.95-1.86505.93258-2.93637 2.32694-2.25 3.675-.69451 1.81302-.7067 5.27216 1.7625 6.7125.17911-1.79109.25669-3.53238 1.1625-4.65.84838.13849 1.64904-.13367 2.25-.975 1.35744-1.80996 1.35373-2.50125.675-4.5375.67873-1.80984 1.83006-4.27008 3.1875-5.175 1.13124-.67871 2.02749-.90864 1.575.675-.90494 4.2986 1.58121 4.29512.45 7.4625 2.94114-3.16739 4.72997-5.19261 3.825-8.8125 1.13122 3.39368 1.8375 4.05 1.8375 4.05 1.35745-2.03614.90247-3.85376.45-5.4375 1.35743 2.48865 1.8 3.4125 1.8 3.4125.90497-1.35743 1.57624-1.37625 1.35-3.4125 1.35748 1.80994 2.50629 2.02248 3.6375 2.475-1.13121-1.58365.22625-2.24006 0-4.05.67872 2.94117 3.36135 4.05502 5.85 3.15-2.26239-1.35744-1.57129-2.73126-2.25-3.8625 1.35747 1.58374 2.95257 3.19 4.7625 2.7375-1.35745-1.13111-.03252-2.72875-.9375-4.3125 1.35745 2.26245 2.30638 3.19002 5.7 2.7375-1.69681-.94266-.90299-2.04247-1.5-3.0375 1.50979 1.43382 3.45597 2.16134 6.675 2.3625-.67868-1.35743.45-2.2463.45-2.925.67873 2.26245.90125 2.01876.675 3.15 2.26241-2.03615 3.85878-2.69376 4.5375-3.825 1.80994 3.39369 4.07509 5.43006 6.3375 6.7875 3.39363 2.26244 9.73635 1.3301 12.225 4.95.72691.9692 1.08667 2.13573 1.2 3.4125-3.08412-.015-5.31857-.47962-7.9875.1875-2.94116-2.71486-7.48263-2.89866-10.65-.8625-3.1674 2.03616-6.1202 6.54249-11.55 3.375-2.94115-1.80983-.8687-5.43258.2625-6.3375-4.07234.45252-6.80984 4.06268-2.7375 8.5875-2.71485-1.58376-5.2289.92984-9.075-4.5.22621 4.97731 3.18405 9.27495 10.65 7.0125-6.33473 1.58362-2.73528 7.24744-9.975 5.4375 2.94115 3.61989 7.2601 1.78479 9.975-2.2875-.90495 3.16739-1.1312 2.95004 0 5.2125 2.26245-2.71485 3.17386.23364 5.6625-1.35-1.35741 2.48865-.0062 5.16505 1.125 6.975 1.13121 1.58373 1.80869 1.82634.225 3.8625-5.65603-.45251-13.78511-1.35371-16.5-.675-2.48865-2.03614-3.13883-2.91877-5.175-4.05.45249-3.39359-.47756-4.99242-2.2875-4.0875-.43789.19464-.7826.34513-1.0875.4875-.00865-.16136-.01419-.32432-.0375-.4875-1.58372-.90492-5.88254-2.26859-6.7875 1.125 1.58369-.00001 4.04381.93127 5.175 2.0625-1.92097-1.0672-2.85285-.93904-3.9.6-1.53728-.49483-5.17322.21988-3.7875 4.575 1.35744-.90494 2.50504-.45 3.8625-.45-.35185.35189-.63942.81183-.825 1.3125-2.32433-.53451-6.15881.12656-5.5125 5.5125 2.1384-2.13838 4.08541-1.87883 5.4375-1.65.12078.40173.25426.74172.45.9375.90498.90504 2.28252 1.13615 3.1875-.9 2.48865 0 5.83883.67872 7.875 0-.45251 1.13123-2.02127 1.60878-2.7 2.2875-2.74567.63366-3.88967 2.05374-3.1125 3.7125-1.09884 1.8374-1.48917 5.31774 1.7625 7.35 0-2.03616.47758-3.40388 2.2875-4.9875 1.58369-.45252 2.47749-1.11254 2.025-3.375 1.35745-1.35743 2.46631-4.31861 4.05-3.1875 2.2624 2.03628-.43856 3.62767 4.3125 5.4375-.45247-1.3573 3.15249-1.34246 2.7-2.7 1.13124 2.9412 2.27633 3.36505 4.3125 5.175.90498-1.35743 2.92872-2.46746 2.25-3.825 1.58371 3.39369 4.08625 3.81384 4.3125 5.85 2.26242-2.48857 2.96375-3.36003 2.7375-6.075 1.58373 4.07241 2.91384 5.41127 4.95 3.375 1.80995-2.03614 2.25-2.7 2.25-2.7 2.48867 1.58362 5.20257.47109 7.0125-3.375-3.39361 1.58373-5.65009 1.77365-7.9125-.2625-.90495-2.71486-2.02871-3.39393-1.35-6.7875.4525-3.39357 3.40531-9.4899 11.55-9.0375.08909.00494.17531-.00046.2625 0 .23891 1.52191.70363 3.02438 1.5 4.5375 2.48868 4.0723 4.80994 7.89895 3 10.3875-1.58366 2.48868-7.2524 3.60284-4.5375 9.9375.45247-3.3936.66258-3.81876 2.925-4.95-.00002 3.16739-.4274 5.42766 2.2875 7.2375-.67873-2.94108.18253-4.30507 1.0875-5.6625 1.80989 2.94117 2.94641 4.09744 5.8875 2.2875-1.58361-.90494-5.86364-3.38889-3.375-7.6875 2.48865 2.94116 4.98007 3.82883 6.3375 3.15 1.58379-.67871 3.17133-.45886 6.1125-5.6625-.67871 3.8462-.23735 6.32383 2.025 8.8125-2.48865 1.80994-3.85879 6.32635-4.5375 8.3625-.45252 2.03617-1.34005 2.05998-3.15 2.5125-1.58372.4525-1.37623-2.025-3.4125-2.025-1.28285.00001-2.27957 1.14215-2.7375 2.5125-.12919-.04096-.2589-.02218-.4125-.0375-2.26242 0-5.41365 3.1664-2.925 7.0125 1.35742-2.26234 2.24254-1.83499 3.6-2.2875.04236-.05076.07213-.09431.1125-.15.23597.64863.50933 1.06092 1.0125 1.3125-1.23068.68373-1.61342 1.59475-1.3875 2.625-.14047.01658-.25941.04104-.4125.075-1.58369 1.80993-1.8236 4.52755 2.475 6.3375-.20421-1.63326-.38091-2.36645.4125-3.4875.56034.00879 1.00771-.46174 1.8375-.6-2.48865 2.48868-2.69222 6.14388 2.7375 7.275-.2157-2.37305-.64208-3.31649.3-4.575 1.05964.41043 2.06545.25683 2.625-.8625.90503-2.03618-.2262-4.30256 0-6.1125.2262-1.58366 3.40747-2.01625 4.3125-3.6 1.13123 2.26244 1.3875 4.05 1.3875 4.05-.67663 2.25572-.70055 5.18848 2.6625 3.4125.1632.87838-.10734 2.04958-.6375 3.375 3.89931-1.02603 4.62261-3.19019 4.05-6.1125.37327-.66717.41884-1.44011.225-2.7-.45241-2.94118-2.46888-2.0649-3.6-1.6125.22619-1.58366.64253-2.94873-.2625-5.4375 3.39355 1.35753 5.23633 1.14489 7.725-2.475-2.71485-.2262-3.17263-1.7987-5.8875-2.025 4.75111-.00001 7.72008-.91509 8.625-4.9875-2.03617 1.13125-3.18007-.6738-4.5375-.9 2.26233-.67872 5.20507-.47133 6.5625-3.4125-1.80992 1.13121-3.21505-2.025-5.025-2.025 3.16743-1.13122 4.56888-1.56374 5.7-3.6-1.80992.22632-3.43765-2.93615-5.7-.9 2.03619-2.48866 7.04629-.92132 7.725-3.8625-2.03615.2262-3.85626-.21506-4.9875-2.025-.90503-1.80982-1.15386-3.8625-2.7375-3.8625 2.03619.2263 3.1875 0 3.1875 0-2.71484-1.58364-4.3149-3.84021-3.8625-7.9125-2.94107 3.61989-7.89763 6.79002-10.6125 6.3375-2.71487-.4524-5.8887-2.26641-5.6625-6.1125.22624-3.39358.9375-4.07133.9375-7.0125 2.94117 2.48865 7.46152 4.31873 14.475 3.1875 11.53827-1.58365 18.52752-10.65668 18.075-23.1-.45248-12.217-3.61794-18.54654-14.025-28.275-9.72842-9.04962-11.54748-13.11528-12-21.7125-.45248-9.27594 3.83517-15.14257 8.8125-16.5 3.3937-1.13123 5.22245 2.68645 3.4125 5.175-1.58375 2.26244-2.03375 6.35894-.45 9.3 1.80994-.4524 2.05135-1.37888 4.0875-2.9625-3.61992 3.39357-4.77113 8.15149-3.1875 12.45 1.80996 4.52492 6.55134 4.0875 8.5875 4.0875-3.16737-5.88225 1.6125-7.92387 1.6125-12.675.6787 5.65604 3.38638 7.66617 8.1375 4.725-3.61986-.2262-4.27992-4.52504-3.375-6.7875.67875-2.03615 2.03615-2.49751 0-5.2125 4.07244 1.35755 5.4-2.00762 5.4-5.175-1.58366 2.71487-4.52635 3.37872-6.5625 2.7-1.80985-.9049-2.92128-1.56375-3.6-3.6-.67874-1.58365-1.5938-4.7637-4.9875-4.5375 2.94117-2.03616 4.06619-4.97012 1.125-8.1375z" fill="#d21034" stroke-width=".998741"/><path d="m515.8196 198.50525v-1.9835h1.98355 3.47121c-4.46298-6.69446 2.72737-8.92594 4.21505-4.95884.99176-1.48762 1.98354-5.95073-2.47944-7.19034-3.71916-.99187-7.43831 4.21498-5.7027 8.67796-2.47944-3.96711-8.43009-6.94234-11.90129-6.94234 0 3.47111 2.97531 9.6697 6.94241 11.90118-4.71093-1.73561-9.6698 1.98363-8.67802 5.70274 1.23972 4.46297 5.7027 3.47123 7.19036 2.72736-3.96709-1.73562-1.7356-8.92596 4.95887-4.46298z" fill="#d21034" stroke-width=".998741"/><path d="m526.9854 210.13979c2.23149 2.97536 4.71093 2.97536 6.69449 3.22324-.49589-1.9835-.49589-4.46298-3.22328-6.44648 1.98356.49588 3.47121.49588 5.45476-.49587h-8.92597v8.92596c.49589-1.73562.74384-3.22336 0-5.20685z" fill="#d21034" stroke-width=".998741"/><path d="m608.91956 233.57301c-1.80991 2.26246-4.30256 4.0863-6.1125 4.3125-2.03616.22631-4.98379-.23375-5.6625 1.35-.90498 1.35743-1.59885 1.575-4.0875 1.575-2.48867 0-3.82003.45132-4.725.225-1.13121-.2262-1.35869 1.60506.225 2.9625-.45247 2.03614.4525 3.63139 0 4.7625-.45247 1.13124-.46117 2.2488 1.575 2.475.43432.04344.83303.10101 1.2375.15-.24089.99361-.0125 2.31224 1.0125 3.45-.07656.00482-.14801-.00514-.225 0-3.39362.2262-9.49619-3.83649-7.9125-8.5875-2.48865 1.35744-3.61365 4.51772-1.125 8.1375 2.48866 3.61988 5.41515 3.41381 9.4875 3.1875 4.18039-.21999 7.31004-.64908 9.975 1.2.01033.66529-.43763 1.1889-1.8375 1.5-1.18319.26288-3.73361.4355-5.8875.4125-1.00946-1.0398-2.0544-1.74322-2.25-3.1125-.35977.53964-.56499 1.91996-.525 2.925-.25832-.05613-.46599-.1446-.6-.225-1.35745-.67872-2.02623-1.13495-1.8.675.22624 2.03614.23245 4.08127-1.125 5.2125 2.0362.45252 1.56631-.21757 3.15-1.575 3.39363.6786 8.61133.90875 11.1-.675-1.1312 2.71497-1.36639 4.9875-5.2125 4.9875-3.84608 0-4.98128.43634-6.1125 2.925-3.16737.45253-4.07261 1.11888-6.7875 2.25-2.71489 1.13124-6.09885.6774-8.5875.225.90497 2.26234 3.17261 4.3125 5.8875 4.3125-2.26241.6787-3.18626 3.40506-3.4125 4.7625-.22626 1.58376-2.27262 2.92008-4.9875 3.825 4.52483.22629 6.80391-.91269 10.65-5.4375 4.07236-4.75114 3.39635-2.47128 6.3375-3.15-2.03619 1.35741-3.63253 1.60003-4.5375 3.8625-1.13119 2.26234-1.33881 3.1488-3.375 3.375 2.94115 2.03614 4.98129 1.58865 6.1125-.9.90497-2.48867 3.40009-4.31118 5.6625-4.5375-3.16739 1.80996-3.1875 2.04883-3.1875 4.5375.00001 2.48865-.89256 5.18122-2.25 4.05 1.35743 2.71486 3.14131 2.97114 4.725 1.3875 1.35747-1.80994 1.60381-3.40506 3.1875-4.7625-1.35746 2.26234-2.73501 5.20758-3.1875 6.1125-.67871 1.13123-.67003 2.24508-1.575 3.15 2.03617.22631 5.20753-.21756 6.1125-1.575.9898-1.38578 3.35752-6.06806 4.0875-9.3375-.66921 4.10959-.9 5.45988-.9 6.8625.00001 1.35743-.7125 3.375-.7125 3.375 2.71489-.00002 4.76125-1.10894 4.9875-4.05.22624-2.94118-.00373-4.07265.675-6.7875.00001 3.61991.45 4.07263.45 6.7875.00001 2.71487 1.37385 3.82128 3.8625 4.5-1.13123-2.48867.68245-3.17133-.675-6.1125-1.13121-2.94107-1.12872-3.36506-.45-5.175 1.13122 3.16738 1.80125 2.91133 1.575 5.4-.22621 2.48854 2.71764 4.99242 6.3375 4.0875-2.03619-2.03615-2.70495-6.56644-1.8-12.675.22627 7.46599 4.06761 9.95859 7.6875 6.1125-2.71496-.67872-3.64122-2.04021-2.9625-6.1125 2.03617 2.03614 4.31009 1.36486 4.7625-1.35-3.16735-.67872-4.05251-3.40508-3.6-4.7625.67875-1.58363.64493-2.46756-.7125-3.825 2.71483.6787 5.6601 1.10488 6.1125-2.0625-2.26233 0-4.04881-.66254-4.275-2.925-.22635-2.26234-.47755-4.08008-2.2875-5.4375 2.9412.6787 3.85375.46737 5.4375-2.7-2.715.4524-4.98618-.69753-5.2125-3.4125-.22622-2.71487 1.36607-5.65386-1.575-7.2375 1.35742-1.13123 1.57368-2.23886 1.8-4.275-1.13126 1.13121-2.23759 2.7037-4.5 2.025-.90497-3.61978-3.39014-6.7887-7.4625-6.5625.90498-1.80994 1.13121-1.82504 0-4.0875zm-8.175 16.7625c0 1.0738-.27939 2.9832.225 4.875-2.61605-.48302-5.14316-.55343-7.9125-.4125.54743-1.3084.7372-2.53621 1.2-3.3.59915-.06252 1.17923-.19588 1.7625-.4875 2.03617-1.13123 2.91507.00372 4.725-.675z" fill="#d21034" stroke-width=".998741"/><path d="m600.76203 247.61338c-.22624 1.80983 1.80993 4.29849 3.16738 5.20352" fill="none" stroke-width=".998741"/><path d="m620.44505 259.83039c-2.71492-1.58375-3.39364-2.94119-4.52483-5.42986" fill="none" stroke-width=".998741"/><path d="m620.89757 270.23743c-.90504-1.1311-2.26246-1.80982-2.71496-3.61977" fill="none" stroke-width=".998741"/><path d="m620.44505 280.19209c.67872-3.84609-.67872-6.33476-2.71492-7.69219" fill="none" stroke-width=".998741"/><path d="m615.69397 280.19209c-.22625-2.03614-.22625-4.97732-.45247-5.65604" fill="none" stroke-width=".998741"/><path d="m599.63082 271.59487c-2.71489.67883-4.52482.67883-6.56099 1.35755-2.03617.4524-1.35746.90491-4.07234 2.48855-2.71491 1.80995-4.07236 2.48867-7.0135 3.1675" fill="none" stroke-width=".998741"/><path d="m603.70316 304.85243c3.61987 3.16738 6.56101 7.01347 7.0135 10.85957" fill="none" stroke-width=".998741"/><path d="m591.03366 301.68504c2.71489.90492 3.39361.90492 4.97731.67872" fill="none" stroke-width=".998741"/><path d="m548.72651 234.49133c2.2624.90492 5.65603 3.39359 6.78724 5.65605" fill="none" stroke-width=".998741"/><path d="m555.06127 233.3601c.67871 1.80995 1.35743 3.16738 2.03616 4.52482" fill="none" stroke-width=".998741"/><path d="m649.85639 245.35091c1.13122-1.80995 2.26246-2.48867 2.26246-4.29861" fill="none" stroke-width=".998741"/><path d="m650.30891 253.26942c-.45252 3.61978 0 6.33475 4.75112 7.69219" fill="none" stroke-width=".998741"/><path d="m597.59463 243.08856c.4525-.90502 1.13122-1.80995 1.13122-1.80995 1.1312 1.13113 3.61987 1.80995 2.71489 3.39358-2.71489.45252-4.52481-.67871-5.42977-1.58363z" stroke-width=".998741"/><path d="m611.84786 243.54096c2.26242.22631 5.88227 1.80995 7.23975 2.94118" fill="none" stroke-width=".998741"/><path d="m632.88836 337.43115c2.03615-.2262 2.71487.45252 4.2985-.67871 0 1.80995-.4524 3.16737-.2262 4.5248" fill="none" stroke-width=".998741"/><path d="m614.33652 335.1688c.22625 2.26235 3.16737 4.97734 5.65601 4.07229" fill="none" stroke-width=".998741"/><path d="m560.03856 336.52624c1.5837.67871 2.26242 2.03615 2.94115 2.94117.45248 1.13113 1.58369 2.03615 3.16738 2.94107" fill="none" stroke-width=".998741"/><path d="m556.19247 341.27724c2.03616-1.1311 3.61986-1.1311 4.52482.45252.90497 1.35743 1.58369 1.35743 3.16738 1.80995" fill="none" stroke-width=".998741"/><path d="m619.31382 372.95105c2.26245-.67871 3.39369-1.35743 4.2986-3.39358" fill="none" stroke-width=".998741"/><path d="m622.25499 377.92839c-.22632-2.03615.2262-2.48867 1.35743-3.16739 1.35744-.90491 2.26247-2.03615 2.71487-2.94106" fill="none" stroke-width=".998741"/><path d="m523.92468 284.17073c8.51679 1.8066 4.64552 8.77487.51618 6.96827.51617 1.8066 3.09701 5.93596 7.22635 3.6132 3.61318-2.06461 2.58085-8.51672-2.06467-10.83961 4.64552 1.29045 11.09761-1.0323 13.67846-3.61307-2.58085-2.5809-9.03294-4.6455-13.67846-3.6132 4.64552-2.06476 5.67785-8.77487 2.06467-10.58147-4.12934-2.32276-6.71018 1.8066-7.22635 3.35506 4.12934-1.54846 8.00061 5.16165-.51618 6.96826z" fill="#d21034" stroke-width=".998741"/><path d="m515.43833 286.78801c-2.58083-.25801-4.38742.77429-6.71019 2.32288.77425-2.83903 2.06469-4.38749 4.38743-5.4198-3.87125.51616-5.67785-1.29044-7.22635-2.5809 1.5485-1.0323 3.3551-2.83891 7.22635-2.58075-2.32274-1.03232-3.61318-2.32276-4.38743-5.16167 2.32277 1.54845 4.12936 2.32275 6.71019 2.06461z" fill="#d21034" stroke-width=".998741"/><path d="m661.17081 376.75242c2.49897 1.81729 6.58788-1.13587 2.95331-4.9977 1.36294-2.27174 2.27164-4.54349 3.18029-6.81511 5.90645.90865 5.67924-4.99782 2.27176-5.45214 0-.22711 0-.22711 0-.45433 1.36293-1.13587 4.99767-2.72607 7.04217.68155 1.8174 2.95317-1.5902 7.49654-6.13353 7.49654 4.08903.90878 4.9978 3.63473 5.90644 6.5879-2.95332.90877-5.90644 1.5902-8.85964-1.13576 2.49884 3.63472.68156 9.08675-2.72604 9.31397-3.18041 0-4.08905-2.27174-4.3162-4.08904.22715-.45446.45436-.90878.68144-1.13588z" fill="#d21034" stroke-width=".998742"/><path d="m647.41085 366.05707c2.02522-1.58239 3.68649-2.06495 5.9414-1.78809-3.0183-1.51499-3.41772-3.85285-3.90035-5.51424 1.80375.22146 3.91594-.20574 6.40045 1.93026-1.13151-1.96986-1.16322-3.57591-.40771-6.00077.87807 2.1677 1.4163 3.37807 4.15372 5.31631-1.71294 2.76517-3.22787 5.78332-5.39175 8.49311-2.70944-2.16378-4.28784-2.35757-6.79576-2.43658z" fill="#d21034" stroke-width=".998742"/><path d="m604.23119 422.5359c-1.17264.39096-2.34528.97722-3.32249 1.36809l-.58632.19549-.58632-.19549c-.97721-.39087-2.14985-.97713-3.32249-1.36809h-.39088c.19545 2.14993-.39088 3.32254-1.56352 5.0815 1.9544-.58636 3.12704-1.3681 3.9088-3.12706-.19543 2.7362 1.17264 4.10428 1.95441 5.47237.78176-1.36809 2.14985-2.73617 1.9544-5.47237.78177 1.75896 1.95441 2.5407 4.10424 3.12706-1.17263-1.75896-1.9544-2.93157-1.75896-5.0815z" fill="#d21034" stroke-width=".998742"/></g><path d="m517.56806 198.03941 166.88953-.46913s.34106 52.17777-.88209 109.19602c-1.5958 74.3564-71.12316 116.53719-82.56265 115.98779-21.68249-1.04136-81.33792-45.76947-83.87128-115.15401-1.86739-51.14433.42649-109.56067.42649-109.56067z" fill="none" stroke="#d21034" stroke-width="3.6"/><path d="m608.53088 411.49956c1.17264-.39087 4.49513-2.34531 2.73617-5.66775-1.56353-2.5408-6.44953-1.75896-8.2085 1.75896.9772-3.51792-.78177-8.40394-2.73617-10.55378-1.95441 2.14984-3.51793 7.03586-2.73617 10.55378-1.75896-3.51792-6.64498-4.29976-8.01305-1.75896-1.95441 3.32244 1.36807 5.27688 2.54071 5.66775-1.17264-3.12705 3.51794-5.66775 5.08148 2.93157l3.12703 1.17271c.78176-.19548 1.9544-.78184 3.12704-1.17271 1.56353-8.59932 6.2541-6.05862 5.08146-2.93157z" fill="#d21034" stroke="#000" stroke-width=".998742"/><path d="m525.3038 204.49513 150.69989-.44197s.30814 49.15577-.79637 102.87172c-1.44109 70.04989-64.22371 109.7877-74.55345 109.27007-19.57916-.981-73.44756-43.11863-75.73515-108.48458-1.68627-48.18223.38508-103.21524.38508-103.21524z" fill="none" stroke="#d21034" stroke-width="3.6"/><path d="m539.10342 376.75242c-2.49897 1.81729-6.58788-1.13587-2.95331-4.9977-1.36294-2.27174-2.27164-4.54349-3.18029-6.81511-5.90645.90865-5.67924-4.99782-2.27175-5.45214 0-.22711 0-.22711 0-.45433-1.36294-1.13587-4.99768-2.72607-7.04218.68155-1.8174 2.95317 1.5902 7.49654 6.13354 7.49654-4.08904.90878-4.99781 3.63473-5.90645 6.5879 2.95332.90877 5.90645 1.5902 8.85965-1.13576-2.49885 3.63472-.68157 9.08675 2.72604 9.31397 3.1804 0 4.08904-2.27174 4.31619-4.08904-.22715-.45446-.45435-.90878-.68144-1.13588z" fill="#d21034" stroke="#000" stroke-width=".998742"/><path d="m552.37931 366.55162c-1.93965-1.68622-3.57338-2.25508-5.83968-2.09659 3.09345-1.35496 3.61467-3.66872 4.18359-5.30256-1.81286.12675-3.89979-.41039-6.49269 1.59265 1.23306-1.90795 1.34877-3.51012.72121-5.97121-.99033 2.11878-1.59117 3.29931-4.42627 5.09163 1.56588 2.85103 2.92077 5.94432 4.93986 8.76365 2.81896-2.01901 4.40535-2.12994 6.91398-2.07757z" fill="#d21034" stroke="#000" stroke-width=".998742"/><path d="m515.63847 196.10982 169.97687-.08321s1.11289 54.49328-.11025 111.51153c-1.5958 74.3564-73.05275 117.30902-84.49224 116.75961-21.68249-1.04136-82.88159-46.92721-85.41495-116.31175-1.86739-51.14433.04057-111.87618.04057-111.87618z" fill="none" stroke="#000" stroke-width="1.2"/><path d="m685.83053 197.96371v-1.98349h-1.98354-3.47127c4.46301-6.69447-2.72737-8.92596-4.21505-4.95884-.99174-1.48762-1.98354-5.95073 2.47948-7.19035 3.71916-.99187 7.43827 4.21498 5.7027 8.67795 2.47942-3.9671 8.43008-6.94233 11.90129-6.94233 0 3.4711-2.97534 9.6697-6.94241 11.90118 4.71091-1.73562 9.66978 1.98363 8.67798 5.70273-1.2397 4.46298-5.70264 3.47124-7.19032 2.72736 3.96708-1.7356 1.73558-8.92595-4.95886-4.46297z" fill="#d21034" stroke="#000" stroke-width=".998741"/><path d="m673.60944 210.44698c-2.2315 2.97536-4.71096 2.97536-6.6945 3.22324.49586-1.9835.49586-4.46299 3.22329-6.44646-1.9836.49586-3.4712.49586-5.4548-.49588h8.92601v8.92596c-.49593-1.73562-.74383-3.22337 0-5.20686z" fill="#d21034" stroke="#000" stroke-width=".998741"/><path d="m674.05815 284.17073c-8.51679 1.8066-4.64552 8.77487-.51618 6.96827-.51616 1.8066-3.097 5.93596-7.22636 3.6132-3.61316-2.06461-2.58084-8.51672 2.06468-10.83961-4.64552 1.29045-11.09762-1.0323-13.67846-3.61307 2.58084-2.5809 9.03294-4.6455 13.67846-3.6132-4.64552-2.06476-5.67784-8.77487-2.06468-10.58147 4.12936-2.32276 6.7102 1.8066 7.22636 3.35506-4.12934-1.54846-8.00061 5.16165.51618 6.96826z" fill="#d21034" stroke="#000" stroke-width=".998741"/><path d="m685.78409 286.78801c2.58082-.25801 4.38741.77429 6.71018 2.32288-.77425-2.83903-2.06468-4.38749-4.38743-5.4198 3.87125.51616 5.67785-1.29044 7.22635-2.5809-1.5485-1.0323-3.3551-2.83891-7.22635-2.58075 2.32275-1.03232 3.61318-2.32276 4.38743-5.16167-2.32277 1.54845-4.12936 2.32275-6.71018 2.06461z" fill="#d21034" stroke="#000" stroke-width=".998741"/><path d="m592.21004 208.39149c-1.17264.39087-4.49513 2.34531-2.73617 5.66775 1.56353 2.54081 6.44954 1.75896 8.2085-1.75896-.9772 3.51792.78177 8.40394 2.73616 10.55377 1.95441-2.14983 3.51794-7.03585 2.73618-10.55377 1.75896 3.51792 6.64497 4.29977 8.01305 1.75896 1.95441-3.32244-1.36808-5.27688-2.54072-5.66775 1.17264 3.12705-3.51792 5.66775-5.08146-2.93157l-3.12705-1.17271c-.78176.19549-1.95439.78184-3.12704 1.17271-1.56353 8.59932-6.25409 6.05862-5.08145 2.93157z" fill="#d21034" stroke="#000" stroke-width=".998742"/><path d="m596.50973 196.51023c1.17264-.39095 2.34529-.97721 3.32248-1.36808l.58632-.19549.58632.19549c.97721.39087 2.14986.97713 3.32249 1.36808h.39089c-.19544-2.14993.39089-3.32253 1.56353-5.08149-1.95442.58636-3.12705 1.36809-3.90882 3.12705.19543-2.73619-1.17264-4.10427-1.95441-5.47237-.78176 1.3681-2.14984 2.73618-1.95439 5.47237-.78177-1.75896-1.95441-2.54069-4.10425-3.12705 1.17264 1.75896 1.9544 2.93156 1.75896 5.08149z" fill="#d21034" stroke="#000" stroke-width=".998742"/><path d="m519.46263 199.57811 163.07019-.08069s1.06766 52.83562-.10576 108.11944c-1.53095 72.09455-70.08437 113.74056-81.05905 113.20785-20.80145-1.00963-79.51384-45.49969-81.94424-112.7736-1.79151-49.58858.03886-108.473.03886-108.473z" fill="none" stroke="#000" stroke-width="1.2"/><path d="m524.04383 202.92437 153.30619-.07864s1.00374 51.46121-.09945 105.30686c-1.43926 70.2191-65.88795 110.7817-76.20556 110.26285-19.55596-.98333-74.75284-44.31607-77.03776-109.8399-1.68425-48.29857.03658-105.65117.03658-105.65117z" fill="none" stroke="#000" stroke-width="1.2"/><path d="m527.09865 206.54057 146.87622-.07589s.96164 49.67603-.0952 101.65381c-1.37892 67.78331-63.12454 106.93877-73.00941 106.43793-18.73575-.94921-71.61759-42.77878-73.80669-106.02969-1.61361-46.62309.03508-101.98616.03508-101.98616z" fill="none" stroke="#000" stroke-width="1.2"/></svg>