<svg enable-background="new 0 0 2400 1200" height="1200" viewBox="0 0 2400 1200" width="2400" xmlns="http://www.w3.org/2000/svg"><path d="m0 0h2400v1200h-2400z" fill="#cf142b"/><path d="m0 0h1200v600h-1200z" fill="#00247d"/><path d="m134.169 600h-134.169v-67.083l1065.84-532.917h134.16v67z" fill="#fff"/><path d="m0 67.086 1065.84 532.914h134.16v-67.082l-1065.831-532.918h-134.169z" fill="#fff"/><path d="m0 200.003v199.997h1200v-200z" fill="#fff"/><path d="m500 600h200v-600h-200z" fill="#fff"/><path d="m0 240v120h1200v-119.998z" fill="#cf142b"/><path d="m1200 555.279v44.721l-399.997-199.998h89.441z" fill="#cf142b"/><path d="m710.561 200 400-200h89.439l-400 200z" fill="#cf142b"/><path d="m400 200h-89.438l-310.562-155.274v-44.726z" fill="#cf142b"/><path d="m89.447 600h-89.447l400-200h89.445z" fill="#cf142b"/><path d="m1560.061 500.044.072 99.848c.101 132.705 132.407 254.243 239.862 300.107 107.454-45.864 239.763-167.402 239.862-300.107l.072-99.808z" fill="#007934" stroke="#000" stroke-width="8"/><path d="m1992.82 673.181 18.66-13.026-18.69-13.065 3.06-5.217-39.16-.031 19.541-33.84-6.061.032-2.04-22.706-20.69 9.582-3-5.263-19.529 33.844-19.61-33.897-2.989 5.255-20.66-9.651-1.95 22.675-6.06-.045 19.619 33.888-17.14-.018 2.69 4.568-16.33 11.4 16.35 11.433-2.67 4.563 34.26.034.31.179c-27.102 40.043-63.903 77.775-104.903 107.59l-.026-157.299 29.681 17.102-.03-5.288 19.88-1.726-8.44-18.036 4.601-2.615-14.84-8.552 33.93-19.541-5.27-2.989 9.649-20.612-22.72-1.972.04-6.045-33.931 19.553v-39.077l-5.229 3.057-13.123-18.644-13.12 18.642-5.229-3.057v39.077l-33.931-19.553.04 6.045-22.72 1.972 9.649 20.612-5.27 2.989 33.93 19.541-14.84 8.552 4.601 2.615-8.44 18.036 19.88 1.726-.03 5.288 29.681-17.102-.021 157.002c-40.973-29.866-77.732-67.63-104.77-107.688l.17-.099 34.26-.035-2.67-4.562 16.35-11.434-16.33-11.398 2.69-4.57-17.14.019 19.62-33.889-6.061.046-1.95-22.675-20.66 9.651-2.989-5.254-19.61 33.896-19.529-33.844-3 5.263-20.69-9.582-2.04 22.705-6.061-.031 19.541 33.839-39.16.031 3.06 5.219-18.69 13.064 18.66 13.027-3.069 5.223 39.159-.044-8.58 14.83 5.301-.04 1.699 19.841 18.08-8.445 2.62 4.598 17.16-29.654.309-.179c29.522 43.992 68.903 83.845 114.32 115.688l-.009 66.535 5.84-.039 5.83.039-.012-66.254c45.45-31.794 84.873-71.608 114.453-115.574l.169.098 17.159 29.653 2.621-4.597 18.08 8.445 1.699-19.84 5.301.04-8.58-14.831 39.16.044z" fill="#f3cc00"/><g fill="none" stroke="#007934" stroke-linecap="round" stroke-linejoin="round" stroke-width="1.9998"><path d="m1799.95 533.216v82.579"/><path d="m1846.11 629.139-109.39-60.703"/><path d="m1753.63 629.217 109.65-60.951"/><path d="m1787.92 545.083 12.08 20.803 12.08-20.803"/><path d="m1740.98 584.112 24.06-.059-11.979-20.002"/><path d="m1859.02 583.941-24.06-.06 11.979-20.001"/><path d="m1960.859 597.802-41.279 71.515"/><path d="m1952.88 703.955-64.38-107.266"/><path d="m1872.75 657.782 125.439 2.041"/><path d="m1944.51 602.065.062 24.054 20.87-11.975"/><path d="m1884.35 612.396 20.86 11.977-.37-23.309"/><path d="m1986.66 671.265-20.801-12.074 20.371-11.335"/><path d="m1639.14 597.488 41.29 71.516"/><path d="m1647.12 703.642 64.38-107.267"/><path d="m1727.25 657.469-125.439 2.04"/><path d="m1655.49 601.752-.062 24.054-20.87-11.973"/><path d="m1715.65 612.081-20.86 11.978.37-23.308"/><path d="m1613.34 670.952 20.8-12.078-20.37-11.335"/></g><path d="m1560.04 300.032h479.961v200.146h-479.961z" fill="#fff"/><path d="m1822.52 300.058h-45v200.099h45z" fill="#cf142b"/><path d="m2040 377.602h-479.96v45.009h479.96z" fill="#cf142b"/><path d="m1560 300.002h479.963v200.147h-479.963z" fill="none" stroke="#000" stroke-width="8"/><path d="m540 0v600h120v-600z" fill="#cf142b"/></svg>