<svg height="599.91669" width="899.96875" xmlns="http://www.w3.org/2000/svg"><g transform="matrix(.99986113 0 0 .99986113 -989.36259 436.01909)"><path d="m989.53564-436.07965h900v210h-900z" fill="#00247d"/><path d="m989.53564-236.07967h900v210h-900z" fill="#fc0" stroke="#000" stroke-width=".1"/><path d="m989.53564-36.079662h900v200h-900z" fill="#008033"/><path d="m1420.6158-301.28476c26.395 0 12.3177 14.07728 22.2891 17.01004s23.4621 1.17316 32.2605 5.86559c8.7983 4.69243 8.7983 15.25037 12.3176 18.76971 3.5193 3.51927 12.9042 8.2117 11.1445 15.83689-1.7596 7.62526 3.5193 19.94287 9.3849 23.46221 5.8655 3.51927 8.2117 7.62519 2.3462 12.90413-5.8656 5.279-18.7698 14.66386-15.2504 22.28905 3.5193 7.62518 7.6252 11.7311 19.3563 12.90419 11.731 1.17309 19.3562-.58658 25.2218 7.62519 5.8655 8.21177 35.7797 22.87563 36.9528 31.67391s1.1731 19.35629 7.0387 20.52938c5.8655 1.17309 29.3277-4.69243 33.4335.58658 4.1059 5.27894-3.5192 7.03861-2.9327 12.904132.5865 5.86558 4.6924 13.49077 11.1445 14.66386s32.2605 5.86552 32.847 12.9042c.5866 7.03861 2.9327 17.59662-8.7983 19.942801-11.7311 2.34625-26.3949 4.69243-31.0873 1.17309-4.6924-3.519271-5.8656-9.384861-17.0101-5.278941-11.1446 4.105851-15.2504 21.115891-34.0201 22.289051-18.7697 1.17309-30.5008-7.62525-39.8857.58651-9.3849 8.21177-11.731 28.1545693-22.8756 29.9142393-11.1445 1.75967004-26.9814 4.10585-34.6066-2.93276-7.6252-7.0386693-2.9328-13.4906993-8.2118-13.4906993-5.2789 0-14.0773 4.10585-24.0486 8.798279-9.9715 4.6924203-17.5967 1.1730903-18.7698 8.2117603-1.1731 7.03861 19.3563 10.5579502 9.9714 14.6638007-9.3848 4.10592.5866 12.90419-8.7983 12.90419-9.3848 0-31.0873 17.59663-43.405 12.9042-12.3176-4.69243-15.2504-14.66387-24.6352-17.59662-9.3849-2.93276-25.2218-7.03861-31.6739-7.03861s-21.1159-1.75967-21.7025-12.3176907c-.5866-10.55794 5.8655-18.7697093 11.1445-25.8083193 5.279-7.03868 26.3949-29.327661 28.7412-42.818431 2.3462-13.49071-2.9328-35.193182 5.2789-36.366342 8.2118-1.17309 42.2319 2.34625 46.9243-2.93276 4.6924-5.27894 1.7597-17.59662-4.1058-22.87556-5.8656-5.27901-17.0101-9.38486-17.0101-12.9042s3.5193-11.14452-3.5193-14.07728-22.8756 0-29.3277-6.4521-18.7697-22.87556-10.558-26.98148c8.2118-4.10585 14.0773-7.03861 6.4521-14.07729-7.6252-7.0386-16.4235-15.25037-24.6352-15.25037-8.2118 0-21.116 11.73104-28.7412 4.10585s-2.3462-15.83696-2.9327-21.70247c-.5866-5.86552-5.8656-11.14453-5.8656-15.83696s.5866-14.07728 9.9715-14.07728c9.3848 0 11.731-8.21177 17.5965-11.14453 5.8656-2.93276 7.6253-8.21177 19.9429-5.86552 12.3176 2.34618 63.9343 9.97144 71.5595 4.69243s12.9042-21.70247 18.7697-21.70247 12.9042 0 12.3176-.58658z" fill="none" stroke="#000" stroke-width="7.0098"/><g transform="matrix(1.0865463 0 0 1.0865463 127.48227 -148.08517)"><g stroke="#32530b"><g fill="#008033" transform="matrix(.693762 0 0 .693762 171.6485 -331.34944)"><path d="m1085.4972 325.88515-1.6567 2.84006s-12.1887-3.07674-14.5554-3.78675c-2.3667-.71002-24.8506-9.58523-24.8506-9.58523l-6.6268-.23667s-1.5384 3.19508-8.9935 2.84007c-7.4552-.35501-16.0937-4.2601-16.0937-4.2601l6.7451-.59168.2367-2.24839s-4.0234-2.72173-6.6268-3.43175c-2.6034-.71001-7.3369-3.78675-7.3369-3.78675s2.2484-1.53837 4.1418-1.53837 3.9051.11833 3.9051.11833l-12.0703-14.55534s17.6321 6.50849 21.0638 9.46689c3.4318 2.9584 7.5735 6.50849 7.5735 6.50849l6.8635.82835.2367.59168-2.0117-5.32512s9.9402 4.6151 12.4253 7.92852c2.485 3.31341 5.0884 8.04685 5.0884 8.04685l9.4669 4.49677s14.792 3.66842 17.2771 3.78676 6.7452.71002 6.7452.71002z" fill-rule="evenodd"/><path d="m1030.4709 311.56648s-9.5853-4.14177-11.0053-4.73345-5.9168-4.85178-5.9168-4.85178"/><path d="m1041.9495 311.92149s-2.2484-2.36673-2.9584-3.55009-2.0117-3.66842-2.0117-3.66842"/></g><g transform="matrix(.693762 0 0 .693762 171.6485 -331.34944)"><path d="m1001.0052 276.894c-.71-.35501-17.6321-12.7803-19.28881-17.0404-1.6567-4.2601-7.57351-18.69711-7.57351-18.69711s5.5618 3.90509 6.50849 5.08845c.94668 1.18336 4.73344 5.20679 4.73344 5.20679l.35501-3.07674s-6.27182-4.2601-9.8219-11.4786-4.02343-17.75042-4.02343-17.75042 6.62683 6.03515 7.57351 7.21851c.94669 1.18336 4.02343 4.2601 4.02343 4.2601l-.23667-4.49678s-6.74516-3.90509-10.53191-12.54362c-3.78676-8.63854-1.77505-17.98709-1.77505-17.98709s4.49678 4.73344 4.49678 5.9168 2.48506 3.90509 2.48506 3.90509-.94669-9.34855-.82836-12.07028c.11834-2.72173-.59168-11.59694-.59168-11.59694s4.2601 2.84007 4.49677 5.20679c.23668 2.36672 2.01172 4.61511 2.01172 4.61511s.71001-5.44346 2.84007-8.04686c2.13005-2.60339 3.19507-10.76858 3.19507-10.76858s3.90509 12.89863 2.72173 18.81544c-1.18336 5.9168-3.55008 16.09371-3.55008 16.09371l2.84006.23667s-.71001-3.90509.47335-7.33684c1.18336-3.43174 2.9584-8.5202 2.9584-8.5202s4.49677 10.53192 4.14177 17.27708c-.35501 6.74515-3.9051 14.79201-3.9051 14.79201s.59168 5.08845-.23667 9.34855-3.55008 8.75688-3.55008 8.75688 2.48506 1.18336 3.07674 2.01171 1.18336 2.9584 1.18336 2.9584-.82835-1.6567 1.42003-4.85178c2.24839-3.19507 3.55006-4.85178 2.24839-3.43175-1.3017 1.42004 2.72177-2.13005 2.72177-1.6567 0 .47334 2.2483 4.97012 2.3667 8.40186.1183 3.43175-2.7218 11.83361-2.7218 11.83361l2.0118-4.85178s3.7867 2.72173 5.3251 6.03515c1.5384 3.31341-.71 14.31866-.71 14.31866z" fill="#008033" fill-rule="evenodd"/><g fill="none"><path d="m992.83999 265.88874s-2.6034-1.53837-4.02343-5.44346c-1.42004-3.90509-1.53837-25.79728-1.53837-25.79728s8.40186 13.96367 8.75687 17.0404c.35501 3.07674 4.49674 13.37199 4.49674 13.37199"/><path d="m986.80484 203.52561s-.71001-2.84007-.94668-5.20679c-.23668-2.36672-2.6034-5.68014-2.6034-5.68014"/><path d="m984.91147 216.42424s-2.48506-3.78675-3.19508-6.27181-3.90509-4.37844-3.90509-4.37844"/></g></g><g fill="#008033" transform="matrix(-.693762 0 0 .693762 1635.0222 -331.34944)"><path d="m1085.4972 325.88515-1.6567 2.84006s-12.1887-3.07674-14.5554-3.78675c-2.3667-.71002-24.8506-9.58523-24.8506-9.58523l-6.6268-.23667s-1.5384 3.19508-8.9935 2.84007c-7.4552-.35501-16.0937-4.2601-16.0937-4.2601l6.7451-.59168.2367-2.24839s-4.0234-2.72173-6.6268-3.43175c-2.6034-.71001-7.3369-3.78675-7.3369-3.78675s2.2484-1.53837 4.1418-1.53837 3.9051.11833 3.9051.11833l-12.0703-14.55534s17.6321 6.50849 21.0638 9.46689c3.4318 2.9584 7.5735 6.50849 7.5735 6.50849l6.8635.82835.2367.59168-2.0117-5.32512s9.9402 4.6151 12.4253 7.92852c2.485 3.31341 5.0884 8.04685 5.0884 8.04685l9.4669 4.49677s14.792 3.66842 17.2771 3.78676 6.7452.71002 6.7452.71002z" fill-rule="evenodd"/><path d="m1030.4709 311.56648s-9.5853-4.14177-11.0053-4.73345-5.9168-4.85178-5.9168-4.85178"/><path d="m1041.9495 311.92149s-2.2484-2.36673-2.9584-3.55009-2.0117-3.66842-2.0117-3.66842"/></g><g fill="#008033" transform="matrix(-.693762 0 0 .693762 1635.0222 -331.34944)"><path d="m1001.0052 276.894c-.71-.35501-17.6321-12.7803-19.28881-17.0404-1.6567-4.2601-7.57351-18.69711-7.57351-18.69711s5.5618 3.90509 6.50849 5.08845c.94668 1.18336 4.73344 5.20679 4.73344 5.20679l.35501-3.07674s-6.27182-4.2601-9.8219-11.4786-4.02343-17.75042-4.02343-17.75042 6.62683 6.03515 7.57351 7.21851c.94669 1.18336 4.02343 4.2601 4.02343 4.2601l-.23667-4.49678s-6.74516-3.90509-10.53191-12.54362c-3.78676-8.63854-1.77505-17.98709-1.77505-17.98709s4.49678 4.73344 4.49678 5.9168 2.48506 3.90509 2.48506 3.90509-.94669-9.34855-.82836-12.07028c.11834-2.72173-.59168-11.59694-.59168-11.59694s4.2601 2.84007 4.49677 5.20679c.23668 2.36672 2.01172 4.61511 2.01172 4.61511s.71001-5.44346 2.84007-8.04686c2.13005-2.60339 3.19507-10.76858 3.19507-10.76858s3.90509 12.89863 2.72173 18.81544c-1.18336 5.9168-3.55008 16.09371-3.55008 16.09371l2.84006.23667s-.71001-3.90509.47335-7.33684c1.18336-3.43174 2.9584-8.5202 2.9584-8.5202s4.49677 10.53192 4.14177 17.27708c-.35501 6.74515-3.9051 14.79201-3.9051 14.79201s.59168 5.08845-.23667 9.34855-3.55008 8.75688-3.55008 8.75688 2.48506 1.18336 3.07674 2.01171 1.18336 2.9584 1.18336 2.9584-.82835-1.6567 1.42003-4.85178c2.24839-3.19507 3.55006-4.85178 2.24839-3.43175-1.3017 1.42004 2.72177-2.13005 2.72177-1.6567 0 .47334 2.2483 4.97012 2.3667 8.40186.1183 3.43175-2.7218 11.83361-2.7218 11.83361l2.0118-4.85178s3.7867 2.72173 5.3251 6.03515c1.5384 3.31341-.71 14.31866-.71 14.31866z" fill-rule="evenodd"/><path d="m992.83999 265.88874s-2.6034-1.53837-4.02343-5.44346c-1.42004-3.90509-1.53837-25.79728-1.53837-25.79728s8.40186 13.96367 8.75687 17.0404c.35501 3.07674 4.49674 13.37199 4.49674 13.37199"/><path d="m986.80484 203.52561s-.71001-2.84007-.94668-5.20679c-.23668-2.36672-2.6034-5.68014-2.6034-5.68014"/><path d="m984.91147 216.42424s-2.48506-3.78675-3.19508-6.27181-3.90509-4.37844-3.90509-4.37844"/></g></g><g fill-rule="evenodd"><g fill="#9e5f08" stroke="#713506" transform="matrix(-.693762 0 0 .693762 1635.0222 -331.34944)"><path d="m986.09483 275.11895s1.18336 2.72174-.71002 6.74516c-1.89338 4.02343-3.31341 6.98183-3.31341 6.98183s-3.62409-3.38178-7.2185-.23667c-1.89338 1.65671-3.05513 4.25617.23667 8.16519 1.89338 2.24839 4.40119 3.85678 7.81018.71002 3.07674-2.84007 1.77505-4.97012 1.77505-4.97012l13.84532 2.01172s2.60338 2.24838 4.73348 1.18336c2.13-1.06503 2.3667-3.78676 2.3667-3.78676l106.1475-60.23308s1.065 1.42003 3.6684.35501c2.6034-1.06503 2.6034-1.06503 2.6034-1.06503l-.4734-2.36672 4.2601-1.53837s1.5384 1.42004 3.9051-.11833c2.3668-1.53837 2.6034-5.68014 1.5384-7.33684-1.065-1.65671-6.5085-10.29524-6.5085-10.29524s-2.3667-2.6034-4.9701-1.06503-2.7217 4.14177-2.7217 4.14177l-3.6684 2.13005s-.5917-2.01172-3.5501-.59169c-2.9584 1.42004-2.0117 3.66842-2.0117 3.66842l-111.70933 54.31628s-1.53837-2.24839-4.14176-1.18336c-2.6034 1.06502-2.95841 2.72173-1.89338 4.37843z"/><path d="m986.3315 276.06564 12.18862 18.46044"/><path d="m991.89329 272.16055 13.60861 20.11714"/><path d="m1103.9576 217.6076 7.8102 14.20034"/><path d="m1109.2827 214.29419 8.2835 14.67368"/><path d="m1113.3061 212.16414 8.7569 15.14703"/></g><g fill="#9e5f08" stroke="#713506" transform="matrix(.693762 0 0 .693762 171.6485 -331.34944)"><path d="m986.09483 275.11895s1.18336 2.72174-.71002 6.74516c-1.89338 4.02343-3.31341 6.98183-3.31341 6.98183s-3.62409-3.38178-7.2185-.23667c-1.89338 1.65671-3.05513 4.25617.23667 8.16519 1.89338 2.24839 4.40119 3.85678 7.81018.71002 3.07674-2.84007 1.77505-4.97012 1.77505-4.97012l13.84532 2.01172s2.60338 2.24838 4.73348 1.18336c2.13-1.06503 2.3667-3.78676 2.3667-3.78676l106.1475-60.23308s1.065 1.42003 3.6684.35501c2.6034-1.06503 2.6034-1.06503 2.6034-1.06503l-.4734-2.36672 4.2601-1.53837s1.5384 1.42004 3.9051-.11833c2.3668-1.53837 2.6034-5.68014 1.5384-7.33684-1.065-1.65671-6.5085-10.29524-6.5085-10.29524s-2.3667-2.6034-4.9701-1.06503-2.7217 4.14177-2.7217 4.14177l-3.6684 2.13005s-.5917-2.01172-3.5501-.59169c-2.9584 1.42004-2.0117 3.66842-2.0117 3.66842l-111.70933 54.31628s-1.53837-2.24839-4.14176-1.18336c-2.6034 1.06502-2.95841 2.72173-1.89338 4.37843z"/><path d="m986.3315 276.06564 12.18862 18.46044"/><path d="m991.89329 272.16055 13.60861 20.11714"/><path d="m1103.9576 217.6076 7.8102 14.20034"/><path d="m1109.2827 214.29419 8.2835 14.67368"/><path d="m1113.3061 212.16414 8.7569 15.14703"/></g><path d="m867.3393-200.82374s18.63604-24.54703 34.31659-24.62912c15.68054-.0821 36.94372 24.87542 36.94372 24.87542l-4.76163 5.33631-.24629 25.61429h-61.57283l.32836-25.12171z" fill="#fc0"/><g transform="matrix(.693762 0 0 .693762 171.6485 -331.34944)"><path d="m1009.9987 232.63629h87.923729v33.725792h-87.923729z" fill="#00247d"/><path d="m1010.7087 261.27363c9.2303 1.89338 13.2537 0 14.6737-.23667 1.4201-.23667 18.1054.35501 24.1406 2.36672 6.0351 2.01171 13.727-2.84007 17.5137-2.01171 3.7868.82835 5.3252 2.72173 8.5202 2.60339 3.1951-.11834 8.7569-3.66842 13.2537-3.31341 4.4967.35501 9.1119.71002 9.1119.71002l-.3551 7.45517-12.4252 10.76859-7.5736-.59168-13.7269 2.72173-10.177 5.20679-16.4487-6.74516-11.2419-1.42004-5.4435.47335-11.0052-10.88692 1.1833-6.50849z" fill="#5c8e0b"/><g stroke="#000"><path d="m1045.6179 273.81726 4.7334.23667.4734-15.85704-4.8518 1.18336z" fill="#433f2d"/><path d="m1077.0953 271.09553h-2.4851s.5917-6.8635.2367-7.81019-4.0234-6.50848-4.0234-6.50848l6.7451-.47335.9467 14.67368z" fill="#433f2d"/><path d="m1029.0508 235.47636s.355 1.77504 1.0651 2.24838c.71.47335 2.84 1.77504 2.84 1.77504l-2.7217 1.18337s-1.6567-1.42004-1.6567-2.48506c0-1.06503.4733-2.6034.4733-2.72173z"/><path d="m1080.2904 247.78331s1.5383.11834 1.5383 1.89338-1.1833 4.73345-.4733 8.99355 1.1834 7.33683 2.13 7.33683c.9467 0 1.0651-6.15347 1.0651-9.46688 0-3.31342-.2367-8.5202-1.5384-10.05857s-3.0767-4.14177-6.1535-4.49678c-3.0767-.35501-12.1886.71002-16.6854.71002-4.4967 0-13.3719-1.42003-18.5787-2.48506-5.2068-1.06502-8.7569-2.13005-10.4136-1.18336s-8.1652 6.50849-7.5735 8.75687c.5917 2.24839 2.485 3.55009 3.7867 3.55009s2.2484-1.42004 2.8401-1.06503 4.3784 5.68013 5.9168 7.2185 7.1002 5.79847 7.1002 5.79847v-5.9168l.4733 18.81544 3.7868-.23667.4733-11.71528s1.5384.71002 4.1418-.71001c2.6034-1.42004 7.2185-4.2601 8.5202-3.9051 1.3017.35501 1.8934 1.18337 3.3134.94669 1.42-.23667 1.6567-2.01171 2.7217-2.01171s3.9051-.71002 4.0234-.23667c.1184.47334.3551 1.42003 1.4201 2.01171s4.6151.94669 4.7334 2.9584c.1184 2.01172.2367 8.40187.2367 8.40187l-.9467 1.42003 4.3784.11834v-11.1236l-.8283-.94669v-7.33684s1.065-2.72173 1.1834-3.55008c.1183-.82835-.4734-2.48506-.5917-2.48506z" fill="#575647"/><path d="m1030.3525 239.49978s-4.9701-.47334-4.9701-1.89337c0-1.42004 0-1.65671 0-1.65671l-.355 3.43175 5.4435 2.36672 1.3017-1.18336z"/></g></g><g stroke="#714f0c" stroke-width=".693762"><path d="m870.37693-194.91274s-.4105-1.14936-1.06728-1.31356c-.65679-.16419-2.46293.41049-3.28392-.41048-.821-.82098-.57465-1.31355-.49257-2.38082.0821-1.06726.98521-2.21662 1.72406-2.21662h.73886s2.1345.41048 2.79128 1.14936c.65679.73887.65679.73887.65679.73887h.0821s1.11696.90229 1.39564 2.46291l.4105 2.29873-2.9555-.32839z" fill="#baaa13"/><path d="m935.3893-194.7896s.4105-1.14936 1.06728-1.31356c.65679-.16419 2.46293.41049 3.28393-.41048.82092-.82097.57464-1.31355.49257-2.38081-.0821-1.06727-.98521-2.21663-1.72407-2.21663s-.73886 0-.73886 0-2.13449.41049-2.79128 1.14936c-.65678.73887-.65678.73887-.65678.73887h-.0821s-1.11696.90229-1.39565 2.46292l-.41049 2.29872 2.95549-.32839z" fill="#baaa13"/><path d="m902.74357-131.19911c-.00007 0 .0868 0 .0867 0-.00007 0 3.9552-2.10067 8.71538-4.42273 4.76025-2.32206 10.1999-.91882 12.98639-2.42817 2.7865-1.50932 7.79137-6.14429 9.30072-9.27906 1.50928-3.13479.93227-6.39562.93227-6.39562-.00007.00001-.23997-38.31694.10837-39.82628.30206-1.30887 1.12979-2.27305 1.19244-2.88344 0-.0163-.00021-.0493 0-.065-.00021-.0104 0-.0332 0-.0434 0-.0101 0-.0335 0-.0434 0-.01-.0194-.0339-.0215-.0434 0-.009 0-.0342 0-.0434-.007-.009-.0173-.0344-.0215-.0434 0-.004-.0187-.0173-.0215-.0216-.007-.009-.0153-.0348-.0215-.0434-.007-.004-.018-.0174-.0215-.0216-.008-.008-.0347-.0351-.043-.0434-.007-.004-.0167-.0176-.0215-.0217-.0146-.012-.0486-.0317-.0652-.0434-.0222-.0153-.0617-.0504-.0867-.065-.35639-.2016-.95566-.33527-1.5176-.30352-.48161.0272-.95282.17219-1.21409.47696-.69667.81272-1.14276 2.10067-.91056 4.42273s0 38.76395 0 38.76395.33432 1.9783-.13008 4.18425c-.4644 2.20596-7.54466 8.36851-7.54466 8.36851 0-.00001-1.04606 1.38752-3.25201 1.38752-2.20596.00001-3.82735-.12523-6.2655.45528-2.43816.58052-12.07583 4.53114-12.07583 4.53114h-.0867s-9.63768-3.95062-12.07576-4.53114c-2.43823-.58051-4.05962-.45527-6.26558-.45528-1.99914 0-3.05186-1.1513-3.23029-1.36584-.008-.0102-.0215-.0216-.0215-.0216s-7.08026-6.16255-7.54466-8.3685c-.4644-2.20596-.10844-4.18425-.10837-4.18425 0 0-.23227-36.4419 0-38.76395.23214-2.32206-.23567-3.61002-.93227-4.42274-.32656-.38096-.95698-.51055-1.56097-.47696-.42278.0235-.84757.13489-1.12736.28184-.0782.0426-.16283.10266-.2168.15176-.0298.0289-.0666.0777-.0867.1084 0 .004-.0194.0172-.0215.0216-.007.009.007.0343 0 .0434-.007.0136-.0173.0292-.0215.0434 0 .01-.0201.0336-.0215.0434v.0434c0 .0102.00014.0329 0 .0434.00014.0158 0 .0487 0 .065.0624.6104.89037 1.57458 1.19237 2.88345.34833 1.50934.13008 39.82628.13008 39.82628s-.59879 3.26083.91056 6.39562c1.50935 3.13477 6.51429 7.76973 9.30078 9.27906 2.7865 1.50934 8.24779.10611 13.00804 2.42817 4.76018 2.32206 8.69374 4.42273 8.69367 4.42273z" fill="#9c580b"/></g><path d="m895.64450602-192.9424086h14.28489467v4.43324324h-14.28489467z" fill="#72570f"/><g transform="matrix(.693762 0 0 .693762 171.548106 -331.34944)"><path d="m1042.1875 204.34375v5.21875c.082.003.7969.0531 1.9063.71875.1371.0864.2909.21634.4062.34375.8426.95942 1.125 2.84375 1.125 2.84375s-4.0399 13.61328-4.75 15.625l12.0938 1.125v.28125l1.5312-.15625 1.5313.15625v-.28125l12.0625-1.125c-.7102-2.01172-4.7188-15.625-4.7188-15.625s.3479-2.47749 1.5313-3.1875c1.0353-.62127 1.7228-.70904 1.875-.71875.01-.00017.031 0 .031 0v-5.21875h-10.7812-3.0625-10.7813z" fill="#983f0a"/><path d="m1057.2148 228.84953v-11.00525s.71-2.48506-2.9584-2.36673c-3.6684.11834-2.6034 3.07674-2.6034 3.07674v10.53192z" fill="#2d2714" stroke="#000"/><path d="m1036.2693 227.66617h35.500835v5.206789h-35.500835z" fill="#983f0a"/></g><g transform="matrix(.693762 0 0 .693762 171.83276 -331.34944)"><path d="m1026.375 180.40625c-2.3616.045-3.9375.15625-3.9375.15625 0-.00001 9.0924 6.74243 14.0625 9.9375s8.8837 4.63166 9.5938 4.75c.6657.11093 1.1329-.21143 1.1875-.25-.0001-.00001-.4892 4.37914.8125 5.5625 1.3015 1.18336 3.5625 0 3.5625 0l1.9375-.125 1.9687.125s2.2296 1.18336 3.5313 0 .8437-5.56251.8437-5.5625c.011.008.052.0389.094.0625.1779.0964.5833.27255 1.0937.1875.71-.11834 4.6237-1.55493 9.5938-4.75s14.0624-9.93751 14.0625-9.9375c0 0-14.7907-.94715-21.0625 1.65625-6.272 2.60339-7.9375 6.15624-7.9375 6.15625-.0001 0-.094-3.55538-.094-5.09375 0-.50478-.3644-.84877-.8437-1.09375 0 0-.5382-.53259-1.1875-.40625-.025.005-.069-.005-.094 0l-1.1875.40625c-.1826.0933-.3659.21685-.5.34375-.2034.20182-.3437.44954-.3437.75 0 1.51707-.1219 4.9666-.125 5.0625-.205-.39956-2.0264-3.68432-7.9063-6.125-4.2139-1.74916-12.2893-1.90462-17.125-1.8125z" fill="#e9e1e6" stroke="#000"/><g fill="#93866b"><path d="m1051.298 190.27196s.5917-2.01171-5.5618-5.9168c-6.1534-3.9051-20.3538-3.19508-20.3538-3.19508s12.4253 1.53837 16.4487 3.66842c4.0235 2.13005 9.3486 5.68013 9.4669 5.44346z"/><path d="m1056.0469 190.27196s-.5917-2.01171 5.5618-5.9168c6.1534-3.9051 20.3538-3.19508 20.3538-3.19508s-12.4253 1.53837-16.4487 3.66842c-4.0235 2.13005-9.3486 5.68013-9.4669 5.44346z"/><path d="m1051.1797 199.38384s-.1183-4.14176.355-4.14176.4733 4.37843.4733 4.37843z"/><path d="m1055.3215 199.38384s-.1183-4.14176.355-4.14176.4733 4.37843.4733 4.37843z"/></g></g><g fill="#fc0" transform="matrix(.693762 0 0 .693762 171.6485 -331.34944)"><path d="m1045.9491 120.44208-1.3886.38028 3.9834 34.20793 1.4126-.14484z"/><path d="m1038.5415 122.10193-1.3201.57446 8.8221 33.28995 1.3775-.34486z"/><path d="m1028.995 125.45836-1.2051.78761 14.2771 31.34027 1.3002-.57087z"/><path d="m1021.3416 129.06298-1.1709.83774 15.5866 30.71009 1.275-.62521z"/><path d="m1013.0683 136.61185-.9091 1.11637 23.1198 25.52498 1.0654-.93874z"/><path d="m1003.6094 143.26479-.5887 1.31382 28.9453 18.66081.7857-1.1828z"/><path d="m997.82889 151.45496-.35059 1.39633 31.7554 13.32833.5675-1.30168z"/><path d="m992.676 159.05746-.11056 1.43543 33.54576 7.79306.3403-1.37864z"/><path d="m989.63685 163.9791.0659 1.43817 34.24725 3.63006.1691-1.40991-34.48226-3.65832z"/><path d="m988.99117 169.45348.2254 1.42192 34.43843-.20032.011-1.41997-34.67513.19837z"/><path d="m1052.6322 121.10452-1.4207.23302.3853 34.43692 1.42.004-.3846-34.67358z"/><path d="m1065.4166 122.72838 1.3437.51722-7.384 33.63819-1.391-.28537z"/><path d="m1073.4495 125.59394 1.2561.70358-12.1066 32.24098-1.3361-.48087z"/><path d="m1082.6126 129.88812 1.1203.90416-17.3393 29.75562-1.2366-.69802z"/><path d="m1087.722 133.06605 1.1589.85438-16.0238 30.48431-1.2658-.64336z"/><path d="m1058.7008 122.71925 1.3903.37391-3.8268 34.2258-1.4132-.13836z"/><path d="m1092.5536 136.58152 1.1229.90113-17.2591 29.80234-1.2384-.69467z"/><path d="m1099.4242 143.20872.972 1.06218-21.612 26.81376-1.1177-.87582z"/><path d="m1105.0917 150.46401.7013 1.25742-27.205 21.11738-.886-1.10963z"/><path d="m1110.4759 159.26089.1756 1.42901-33.1583 9.3049-.4024-1.36175z"/><path d="m1114.7631 169.00196-.2075 1.42473-34.4384.2308-.029-1.41967z"/></g><path d="m876.94464-211.57846 2.21664-1.88823s11.98619 5.25422 23.06932 5.17212c11.08305-.0821 21.83782-2.7913 22.57668-3.61227s2.21664-.0821 2.21664-.0821l1.47771 1.47775s-.73886-.32839-1.64193-.0821-2.46292 1.23146-4.51535 1.80614c-2.05242.57468-10.18005 2.7913-19.12861 2.95549-8.94856.1642-21.83782-4.76163-23.23346-4.92582-1.39565-.1642-1.55986-.32839-1.55986-.32839l-1.80614.49258z" fill="#9c580b"/><path d="m859.44165-143.62211 6.9662-3.25088s14.46702 11.64963 20.20186 14.86116c8.70776 4.87632 12.19259 5.41392 17.64765 5.34073 5.4522-.0731 13.23573-3.71529 16.83489-5.92124 3.59917-2.20596 15.32562-11.95859 15.32562-11.95859s2.32202-1.62544 3.59917-1.62544 5.92126 2.78647 5.92126 2.78647-6.0374 4.76021-9.05602 7.31448c-3.0187 2.55426-13.58407 10.68146-18.22818 12.3069-4.64412 1.62544-9.86877 3.01867-14.39674 3.13477-4.52805.11611-14.16454-2.32206-18.34425-4.2958-4.17971-1.97375-15.55775-10.10095-16.8349-11.37808s-6.9662-5.45683-7.77894-5.92124c-.81275-.46442-1.85762-1.50934-1.85762-1.39324z" fill="#575542" stroke="#2d2714" stroke-width=".693762"/><path d="m872.16473-171.02249h61.244434v1.806136h-61.244434z" fill="#7a6a10"/><g fill="#4d330a" stroke="#2d2714" stroke-width=".354331" transform="matrix(.693762 0 0 .693762 103.81864 -326.179742)"><path d="m1120.2836 179.86355c-2.0825.22002-3.7188 2.31202-3.7188 4.84375 0 2.67818 1.809 4.84375 4.0625 4.84375 2.2536 0 4.0938-2.16557 4.0938-4.84375s-1.8402-4.84374-4.0938-4.84375c-.1232 0-.2233-.0127-.3437 0zm.2187 2.5c.05-.005.074 0 .125 0 1.0865 0 1.9688 1.05247 1.9688 2.34375-.0001 1.29128-.8822 2.34375-1.9688 2.34375s-1.9687-1.05247-1.9687-2.34375c0-1.23075.8278-2.25179 1.8437-2.34375z"/><path d="m1120.2836 186.94118c-2.0825.22002-3.7188 2.31202-3.7188 4.84375 0 2.67818 1.809 4.84375 4.0625 4.84375 2.2536 0 4.0938-2.16557 4.0938-4.84375s-1.8402-4.84374-4.0938-4.84375c-.1232 0-.2233-.0127-.3437 0zm.2187 2.5c.05-.005.074 0 .125 0 1.0865 0 1.9688 1.05247 1.9688 2.34375-.0001 1.29128-.8822 2.34375-1.9688 2.34375s-1.9687-1.05247-1.9687-2.34375c0-1.23075.8278-2.25179 1.8437-2.34375z"/><path d="m1120.2836 194.01882c-2.0825.22002-3.7188 2.31202-3.7188 4.84375 0 2.67818 1.809 4.84375 4.0625 4.84375 2.2536 0 4.0938-2.16557 4.0938-4.84375s-1.8402-4.84374-4.0938-4.84375c-.1232 0-.2233-.0127-.3437 0zm.2187 2.5c.05-.005.074 0 .125 0 1.0865 0 1.9688 1.05247 1.9688 2.34375-.0001 1.29128-.8822 2.34375-1.9688 2.34375s-1.9687-1.05247-1.9687-2.34375c0-1.23075.8278-2.25179 1.8437-2.34375z"/><path d="m1120.2836 201.09646c-2.0825.22002-3.7188 2.31202-3.7188 4.84375 0 2.67818 1.809 4.84375 4.0625 4.84375 2.2536 0 4.0938-2.16557 4.0938-4.84375s-1.8402-4.84374-4.0938-4.84375c-.1232 0-.2233-.0127-.3437 0zm.2187 2.5c.05-.005.074 0 .125 0 1.0865 0 1.9688 1.05247 1.9688 2.34375-.0001 1.29128-.8822 2.34375-1.9688 2.34375s-1.9687-1.05247-1.9687-2.34375c0-1.23075.8278-2.25179 1.8437-2.34375z"/><path d="m1120.2836 208.17409c-2.0825.22002-3.7188 2.31202-3.7188 4.84375 0 2.67818 1.809 4.84375 4.0625 4.84375 2.2536 0 4.0938-2.16557 4.0938-4.84375s-1.8402-4.84374-4.0938-4.84375c-.1232 0-.2233-.0127-.3437 0zm.2187 2.5c.05-.005.074 0 .125 0 1.0865 0 1.9688 1.05247 1.9688 2.34375-.0001 1.29128-.8822 2.34375-1.9688 2.34375s-1.9687-1.05247-1.9687-2.34375c0-1.23075.8278-2.25179 1.8437-2.34375z"/><path d="m1120.1875 215.25c-2.0359.27383-3.625 2.35158-3.625 4.84375v.25h2.0938c-.01-.0786 0-.1693 0-.25 0-1.23074.8278-2.25179 1.8437-2.34375.01-.00056.026.00031.031 0 .03-.00063.055 0 .094 0 1.0865.00001 1.9687 1.05247 1.9688 2.34375-.0001.0807.01.17136 0 .25h2.125c0-.0826 0-.16631 0-.25 0-2.67817-1.8402-4.84374-4.0938-4.84375-.1078.00001-.211-.006-.3125 0-.01.00061-.024-.0008-.031 0-.033.003-.062-.004-.094 0z"/><path d="m1119.6075 186.42604h2.070882v3.66842h-2.070882z"/><path d="m1119.6075 193.76288h2.070882v3.66842h-2.070882z"/><path d="m1119.6075 200.50804h2.070882v3.66842h-2.070882z"/><path d="m1119.6075 207.84486h2.070882v3.66842h-2.070882z"/><path d="m1119.6075 215.1817h2.070882v3.66842h-2.070882z"/></g><g fill="#4d330a" stroke="#2d2714" stroke-width=".354331" transform="matrix(.693762 0 0 .693762 146.838891 -326.179742)"><path d="m1120.2836 179.86355c-2.0825.22002-3.7188 2.31202-3.7188 4.84375 0 2.67818 1.809 4.84375 4.0625 4.84375 2.2536 0 4.0938-2.16557 4.0938-4.84375s-1.8402-4.84374-4.0938-4.84375c-.1232 0-.2233-.0127-.3437 0zm.2187 2.5c.05-.005.074 0 .125 0 1.0865 0 1.9688 1.05247 1.9688 2.34375-.0001 1.29128-.8822 2.34375-1.9688 2.34375s-1.9687-1.05247-1.9687-2.34375c0-1.23075.8278-2.25179 1.8437-2.34375z"/><path d="m1120.2836 186.94118c-2.0825.22002-3.7188 2.31202-3.7188 4.84375 0 2.67818 1.809 4.84375 4.0625 4.84375 2.2536 0 4.0938-2.16557 4.0938-4.84375s-1.8402-4.84374-4.0938-4.84375c-.1232 0-.2233-.0127-.3437 0zm.2187 2.5c.05-.005.074 0 .125 0 1.0865 0 1.9688 1.05247 1.9688 2.34375-.0001 1.29128-.8822 2.34375-1.9688 2.34375s-1.9687-1.05247-1.9687-2.34375c0-1.23075.8278-2.25179 1.8437-2.34375z"/><path d="m1120.2836 194.01882c-2.0825.22002-3.7188 2.31202-3.7188 4.84375 0 2.67818 1.809 4.84375 4.0625 4.84375 2.2536 0 4.0938-2.16557 4.0938-4.84375s-1.8402-4.84374-4.0938-4.84375c-.1232 0-.2233-.0127-.3437 0zm.2187 2.5c.05-.005.074 0 .125 0 1.0865 0 1.9688 1.05247 1.9688 2.34375-.0001 1.29128-.8822 2.34375-1.9688 2.34375s-1.9687-1.05247-1.9687-2.34375c0-1.23075.8278-2.25179 1.8437-2.34375z"/><path d="m1120.2836 201.09646c-2.0825.22002-3.7188 2.31202-3.7188 4.84375 0 2.67818 1.809 4.84375 4.0625 4.84375 2.2536 0 4.0938-2.16557 4.0938-4.84375s-1.8402-4.84374-4.0938-4.84375c-.1232 0-.2233-.0127-.3437 0zm.2187 2.5c.05-.005.074 0 .125 0 1.0865 0 1.9688 1.05247 1.9688 2.34375-.0001 1.29128-.8822 2.34375-1.9688 2.34375s-1.9687-1.05247-1.9687-2.34375c0-1.23075.8278-2.25179 1.8437-2.34375z"/><path d="m1120.2836 208.17409c-2.0825.22002-3.7188 2.31202-3.7188 4.84375 0 2.67818 1.809 4.84375 4.0625 4.84375 2.2536 0 4.0938-2.16557 4.0938-4.84375s-1.8402-4.84374-4.0938-4.84375c-.1232 0-.2233-.0127-.3437 0zm.2187 2.5c.05-.005.074 0 .125 0 1.0865 0 1.9688 1.05247 1.9688 2.34375-.0001 1.29128-.8822 2.34375-1.9688 2.34375s-1.9687-1.05247-1.9687-2.34375c0-1.23075.8278-2.25179 1.8437-2.34375z"/><path d="m1120.1875 215.25c-2.0359.27383-3.625 2.35158-3.625 4.84375v.25h2.0938c-.01-.0786 0-.1693 0-.25 0-1.23074.8278-2.25179 1.8437-2.34375.01-.00056.026.00031.031 0 .03-.00063.055 0 .094 0 1.0865.00001 1.9687 1.05247 1.9688 2.34375-.0001.0807.01.17136 0 .25h2.125c0-.0826 0-.16631 0-.25 0-2.67817-1.8402-4.84374-4.0938-4.84375-.1078.00001-.211-.006-.3125 0-.01.00061-.024-.0008-.031 0-.033.003-.062-.004-.094 0z"/><path d="m1119.6075 186.42604h2.070882v3.66842h-2.070882z"/><path d="m1119.6075 193.76288h2.070882v3.66842h-2.070882z"/><path d="m1119.6075 200.50804h2.070882v3.66842h-2.070882z"/><path d="m1119.6075 207.84486h2.070882v3.66842h-2.070882z"/><path d="m1119.6075 215.1817h2.070882v3.66842h-2.070882z"/></g></g></g></g></svg>