<svg height="600" width="900.09375" xmlns="http://www.w3.org/2000/svg"><path d="m.05205-.000038h900v210h-900z" fill="#00247d"/><path d="m.05205 199.999962h900v210h-900z" fill="#fff" stroke="#000" stroke-width=".1"/><path d="m.05205 399.999962h900v200h-900z" fill="#008033"/><g fill-rule="evenodd"><path d="m338.92129349 226.33077436h222.26152167v147.33839237h-222.26152167z" fill="#cf142b"/><g fill="#fc0" transform="matrix(1.1349403 0 0 1.1349403 -3.92406 -2.491376)"><path d="m399.71568 206.01442 8.42634 36.62724 34.42505-28.98566-20.11831 34.48438 51.56391-13.57029-43.27231 23.10146 54.88626 5.48123-171.25324.0738 54.83152-5.52851-43.50188-23.06406 51.69865 13.52578-20.4612-34.46689 34.71318 28.95587z"/><path d="m364.04956 261.7726c.0313-15.86504 19.16283-28.70913 42.73156-28.68809 23.16687.0207 42.07802 12.47947 42.60726 28.06994l-42.66386.65625z" transform="translate(-6.718968 -.552427)"/><path d="m394.28125 252.6875-12.03125 64.375h35.5l-12.03125-64.375z"/></g><g fill="#008033" transform="matrix(1.1349403 0 0 1.1349403 -3.924054 -2.17789)"><path d="m400 238.88487 4.19009 9.92309 15.31926-2.60343-11.12913 7.31966 11.12913 7.31965-15.31924-2.60343-4.19011-1.12545-4.19011 1.12545-15.31925 2.60343 11.12914-7.31965-11.12914-7.31966 15.31925 2.60343z"/><path d="m397.65219 254.07671h4.695631v58.281067h-4.695631z"/><path d="m396.97419 255.29824c-2.26352-3.68319-.0423-8.01973 4.96131-9.68593 5.00358-1.6662 10.89472-.0311 13.15824 3.65208 1.17434 1.91087 1.17872 4.10075.012 6.01417" transform="translate(-6.050072 1.104854)"/></g></g></svg>