<svg height="600" width="900" xmlns="http://www.w3.org/2000/svg"><path d="m.000002-.00002h900v400h-900z" fill="#f93"/><path d="m.000002 500h900v100h-900z" fill="#00247d"/><path d="m.000002 400h900v100h-900z"/><g fill-rule="evenodd"><path d="m275.2379 193.48566c-5.63574 52.77103-52.98378 90.98173-105.75481 85.34599s-90.98173-52.98378-85.345989-105.75481c5.63574-52.77103 52.983779-90.98173 105.754809-85.345989 52.71447 5.6297 90.91113 52.887009 85.36135 105.609949l-95.56576-10.05955z" fill="#00247d" transform="translate(6.911597 16.71878)"/><g fill="#fedf00" transform="matrix(2.200968 0 0 2.200968 -202.7089562808 -1304.32896549048)"><g><path d="m163.38034 671.84975 1.38106-5.66237-1.24296-.96675 3.31457-.41432-2.48593-2.34782.27622-1.10485-3.45267-3.17646h2.90024l-5.10995-8.97694 4.28131.96675 1.65728-3.59078 2.76214 10.63422 1.24296-2.2097 1.65728 8.42451 5.38616 2.20971z"/><path d="m190.3802 695.12076-1.38106 5.66237 1.24296.96674-3.31457.41432 2.48593 2.34782-.27621 1.10485 3.45266 3.17646h-2.90024l5.10995 8.97694-4.28131-.96675-1.65727 3.59078-2.76215-10.63421-1.24296 2.2097-1.65728-8.42452-5.38615-2.20971z"/><path d="m188.51575 669.98534 5.66237 1.38106.96675-1.24296.41432 3.31457 2.34782-2.48593 1.10485.27622 3.17646-3.45267v2.90024l8.97694-5.10995-.96675 4.28131 3.59078 1.65728-10.63422 2.76214 2.2097 1.24296-8.42451 1.65728-2.20971 5.38616z"/><path d="m165.24474 696.9852-5.66237-1.38106-.96674 1.24296-.41432-3.31457-2.34782 2.48593-1.10485-.27621-3.17646 3.45266v-2.90024l-8.97694 5.10995.96675-4.28131-3.59078-1.65727 10.63421-2.76215-2.2097-1.24296 8.42452-1.65728 2.20971-5.38615z"/><path d="m175.92941 665.68848 5.0419-2.92386-.163-1.5662 2.59381 2.1048-.0271-3.41927.98846-.56564-.0985-4.69053 2.008 2.09269 2.93947-9.90235 2.26662 3.75854 3.73838-1.29027-5.76081 9.35569 2.45499-.63303-4.93134 7.02858 2.1347 5.41632-13.18564-4.76547z"/><path d="m177.83153 701.28222-5.0419 2.92386.16301 1.56619-2.59382-2.10479.0271 3.41926-.98844.56565.0985 4.69053-2.008-2.09269-2.93947 9.90235-2.26663-3.75855-3.73837 1.29028 5.7608-9.35569-2.45499.63303 4.93134-7.02858-2.13469-5.41632 13.18563 4.76547z"/><path d="m194.67734 682.53431 2.92386 5.0419 1.5662-.163-2.1048 2.59381 3.41927-.0271.56564.98846 4.69053-.0985-2.09269 2.008 9.90235 2.93947-3.75854 2.26662 1.29027 3.73838-9.35569-5.76081.63303 2.45499-7.02858-4.93134-5.41632 2.1347 4.76547-13.18564z"/><path d="m159.0836 684.43643-2.92386-5.0419-1.56619.16301 2.10479-2.59382-3.41926.0271-.56565-.98844-4.69053.0985 2.09269-2.008-9.90235-2.93947 3.75855-2.26663-1.29028-3.73837 9.35569 5.7608-.63303-2.45499 7.02858 4.93134 5.41632-2.13469-4.76547 13.18563z"/><path d="m169.08016 667.46054 3.5071-4.65511-.75951-1.37938 3.20834.9298-1.35523-3.13934.6905-.90564-1.91563-4.28266 2.66398 1.14657-1.14476-10.2658 3.55035 2.58056 2.94184-2.64308-1.66698 10.85989 2.01528-1.5383-1.80825 8.3934 4.0738 4.15905z"/><path d="m184.68061 699.50984-3.5071 4.65511.75952 1.37937-3.20835-.9298 1.35524 3.13933-.6905.90565 1.91562 4.28266-2.66397-1.14657 1.14475 10.26579-3.55034-2.58055-2.94183 2.64308 1.66696-10.85989-2.01528 1.5383 1.80825-8.39341-4.07379-4.15904z"/><path d="m192.90502 675.68496 4.65511 3.5071 1.37938-.75951-.9298 3.20834 3.13934-1.35523.90564.6905 4.28266-1.91563-1.14657 2.66398 10.2658-1.14476-2.58056 3.55035 2.64308 2.94184-10.85989-1.66698 1.5383 2.01528-8.3934-1.80825-4.15905 4.0738z"/><path d="m160.85572 691.28541-4.65511-3.5071-1.37937.75952.9298-3.20835-3.13933 1.35524-.90565-.6905-4.28266 1.91562 1.14657-2.66397-10.26579 1.14475 2.58055-3.55034-2.64308-2.94183 10.85989 1.66696-1.5383-2.01528 8.39341 1.80825 4.15904-4.07379z"/><path d="m183.0425 666.7625 5.78708-.69241.46945-1.50306 1.55041 2.95876 1.32691-3.15141 1.13155-.12879 1.76389-4.34736 1.0171 2.71605 6.61478-7.93359.59608 4.34844 3.94393.29276-8.99017 6.31608 2.50526.38909-7.30827 4.50646-.18047 5.81902z"/><path d="m170.71814 700.20863-5.78708.69241-.46944 1.50305-1.55041-2.95876-1.32691 3.15142-1.13155.1288-1.76389 4.34735-1.0171-2.71605-6.61478 7.93359-.59608-4.34844-3.94393-.29275 8.99016-6.31609-2.50526-.38909 7.30828-4.50646.18048-5.81901z"/><path d="m193.6034 689.6481.69241 5.78708 1.50306.46945-2.95876 1.55041 3.15141 1.32691.12879 1.13155 4.34736 1.76389-2.71605 1.0171 7.93359 6.61478-4.34844.59608-.29276 3.94393-6.31608-8.99017-.38909 2.50526-4.50646-7.30827-5.81902-.18047z"/><path d="m160.15727 677.32374-.69241-5.78708-1.50305-.46944 2.95876-1.55041-3.15142-1.32691-.1288-1.13155-4.34735-1.76389 2.71605-1.0171-7.93359-6.61478 4.34844-.59608.29275-3.94393 6.31609 8.99016.38909-2.50526 4.50646 7.30828 5.81901.18048z"/></g><path d="m149.61249 687.31158c-.98817 9.25284-9.29015 15.95269-18.54299 14.96452-9.25285-.98817-15.95269-9.29015-14.96452-18.543.98816-9.25284 9.29014-15.95269 18.54299-14.96452 9.24293.98711 15.94031 9.27318 14.96722 18.5176l-16.75646-1.76384z" transform="matrix(1.213099 0 0 1.213099 15.70958 -148.1213)"/></g></g></svg>