<svg height="599.79651" width="900" xmlns="http://www.w3.org/2000/svg"><path d="m.30523924132.00000892117h899.694765v224.92369125h-899.694765z" fill="#74acdf"/><path d="m.30523924132 374.87282767117h899.694765v224.92369125h-899.694765z" fill="#00247d"/><path d="m.30523924132 224.92370017117h899.694765v149.9491275h-899.694765z" fill="#008033"/><g fill="#fff" fill-rule="evenodd"><path d="m0-1 .22451399.69098301h.72654253l-.58778526.42705098.22451399.690983-.58778525-.42705098-.58778525.42705098.22451399-.690983-.58778526-.42705098h.72654253z" transform="matrix(33.70866927986 .00000022405 .00000022405 33.43667933385 518.57910100744 91.18805582627)"/><path d="m.36327126.11803399.22451399.690983-.58778525-.42705098-.58778525.42705098.22451399-.690983-.58778526-.42705098h.72654253l.22451399-.69098301.22451399.69098301h.72654253z" transform="matrix(33.70866927986 -.00000022405 -.00000022405 33.43667933385 403.04664843718 140.12155806653)"/><path d="m-.58778525.80901699.22451399-.690983-.58778526-.42705098h.72654253l.22451399-.69098301.22451399.69098301h.72654253l-.58778526.42705098.22451399.690983-.58778525-.42705098z" transform="matrix(-33.70866927986 .00000022405 -.00000022405 33.43667933385 655.84933801939 91.18799981257)"/><path d="m-.22451399-.30901699.22451399-.69098301.22451399.69098301h.72654253l-.58778526.42705098.22451399.690983-.58778525-.42705098-.58778525.42705098.22451399-.690983-.58778526-.42705098z" transform="matrix(-33.70866927986 -.00000022405 .00000022405 33.43667933385 771.38180459309 140.12150205282)"/></g><g transform="matrix(.99966085 0 0 .99966085 -77.420886 952.58534)"><path d="m-138.89509-561.51892h-569.3026l284.6513-493.03048z" transform="matrix(0 1.0539211 -.8113088 0 -378.11808 -206.52403)"/><path d="m-138.89509-561.51892h-569.3026l284.6513-493.03048z" fill="#784421" transform="matrix(0 1.001225 -.77074336 0 -355.33982 -228.84327)"/><path d="m-138.89509-561.51892h-569.3026l284.6513-493.03048z" fill="#fc0" transform="matrix(0 .94852895 -.73017792 0 -332.56156 -251.16249)"/><path d="m-138.89509-561.51892h-569.3026l284.6513-493.03048z" fill="#fff" transform="matrix(0 .8958329 -.68961248 0 -309.7833 -273.48171)"/><path d="m-138.89509-561.51892h-569.3026l284.6513-493.03048z" fill="#00247d" transform="matrix(0 .84313685 -.64904704 0 -287.00504 -295.80093)"/><path d="m159.90135-721.98121-13.48048-11.10431-15.35278-1.23384-6.74025 6.78601-.37445 11.10434-7.86363 14.18886 5.61688 9.2536 3.74457-.61688.37447 11.10431 2.6212 6.16908 8.23808 2.46763h7.48915l-1.87227 5.55219 6.74023 8.63671-8.98699 8.01978-13.10603 8.63671-11.23374 3.08454-8.98698 3.70144 23.21639 9.25363h10.11036 35.57351l.37445 8.63672 24.33977 22.82556h5.24241l19.09737-11.10432 14.22939 14.80576 14.60386-11.10433 7.48916-.61692h14.97832l2.99567-4.93526 7.86361-4.31835h7.1147l4.11904-9.87052h9.73591l.74891-6.78599-12.73156-13.57196-14.22941-6.78599h-18.7229l-4.86796 8.01979-15.35276-6.16906 1.87229-9.87052-10.11037-8.0198 3.37012-9.87053-4.11905-4.93526 3.37013-8.63671-4.49349-12.33815-9.73591-3.08454-7.86362-4.31834h-10.85927l-15.35278-10.48743-5.24242-5.55217-10.48482-2.46762 4.11904 6.78598-17.22507-1.23384z" fill="#008033" fill-rule="evenodd" stroke="#fc0" stroke-width="3"/></g></svg>