<svg height="600" width="900" xmlns="http://www.w3.org/2000/svg"><g fill-rule="evenodd"><path d="m0 100h900v500h-900z" fill="#00247d"/><path d="m737.49995 474.99997c0 34.51779-27.9822 62.49999-62.49999 62.49999-34.5178 0-62.5-27.9822-62.5-62.49999 0-34.5178 27.9822-62.5 62.5-62.5 34.51779 0 62.49999 27.9822 62.49999 62.5z" fill="#fff"/><g fill="#fc0" stroke="#fcdd09" stroke-linecap="round" stroke-linejoin="round" transform="matrix(1.3333333 0 0 1.3333333 -74.999998 -75.000008)"><path d="m225 150-1.46875 135.0625-27.78125-132.1875 24.90625 132.78125-53.0625-124.25 50.34375 125.375-76.28125-111.5 73.8125 113.125-96.53125-94.46875 94.46875 96.53125-113.125-73.8125 111.5 76.28125-125.375-50.34375 124.25 53.0625-132.78125-24.90625 132.1875 27.78125-135.0625 1.46875h300l-135.0625-1.46875 132.1875-27.78125-132.78125 24.90625 124.25-53.0625-125.375 50.34375 111.5-76.28125-113.125 73.8125 94.46875-96.53125-96.53125 94.46875 73.8125-113.125-76.28125 111.5 50.34375-125.375-53.0625 124.25 24.90625-132.78125-27.78125 132.1875z"/><path d="m225 150-5.75 136.15625-100.3125-92.21875 92.21875 100.3125-136.15625 5.75h300l-136.15625-5.75 92.21875-100.3125-100.3125 92.21875z"/><path d="m-97.142853 198.57143c.034735 168.07692-136.208797 304.3486-304.285717 304.34859-168.07692 0-304.32044-136.27169-304.28569-304.34861l304.2857.00002z" transform="matrix(.29474508378 0 0 -.29474508378 343.31907250888 358.46274163964)"/></g><path d="m0 0h900v100h-900z" fill="#cf142b"/></g><path d="m29.999998 63.970558v-30.064453h9.084961l5.455078 20.507813 5.393555-20.507813h9.105469v30.064453h-5.639649v-23.666015l-5.967773 23.666015h-5.844727l-5.947265-23.666015v23.666015zm35.06836-30.064453h6.070312v16.283203c-.000009 2.583996.07519 4.258799.225586 5.024414.259756 1.230477.878408 2.218268 1.855957 2.963379.977527.745122 2.313952 1.117681 4.009278 1.117676 1.722639.000005 3.021466-.352046 3.896484-1.056152.87498-.704096 1.401347-1.568841 1.579101-2.594239.177714-1.025381.266581-2.727528.266602-5.106445v-16.631836h6.070313v15.791016c-.000027 3.609385-.16409 6.159187-.492188 7.649414-.328151 1.490239-.933131 2.74805-1.814941 3.773437-.88186 1.025393-2.061058 1.842286-3.537598 2.450684-1.476582.608398-3.404315.912597-5.783203.912597-2.871106 0-5.04835-.331543-6.531738-.994628-1.483406-.663085-2.655768-1.524412-3.51709-2.583985-.861333-1.059566-1.428715-2.170405-1.702149-3.332519-.396487-1.722648-.594729-4.265615-.594726-7.628907zm30.392578 30.064453v-30.064453h22.291994v5.085938h-16.22168v6.665039h15.09375v5.065429h-15.09375v8.182617h16.79589v5.06543zm28.075194 0v-30.064453h12.77637c3.21287.00003 5.54734.270049 7.00341.810059 1.45603.540067 2.62156 1.500516 3.49659 2.881347.87497 1.380885 1.31247 2.959985 1.3125 4.737305-.00003 2.255879-.66312 4.11867-1.98926 5.588379-1.3262 1.469741-3.30862 2.39601-5.94727 2.778808 1.31248.765638 2.39598 1.606457 3.25049 2.522461.85447.916026 2.00632 2.542977 3.45557 4.88086l3.6709 5.865234h-7.25977l-4.38867-6.541992c-1.55861-2.337882-2.62502-3.811025-3.19922-4.419434-.57423-.608386-1.18263-1.025378-1.8252-1.250976-.64259-.225574-1.66114-.338367-3.05566-.338379h-1.23047v12.550781zm6.07031-17.349609h4.49121c2.9121.000017 4.73045-.12303 5.45508-.369141.72459-.246076 1.29197-.669903 1.70215-1.271484.41013-.601543.61521-1.353495.61523-2.25586-.00002-1.011696-.27004-1.82859-.81006-2.450683-.54005-.622046-1.30226-1.015112-2.28662-1.179199-.4922-.06834-1.96876-.102514-4.42968-.102539h-4.73731zm51.37207 17.349609h-6.60351l-2.625-6.829101h-12.01758l-2.48145 6.829101h-6.43945l11.70996-30.064453h6.41895zm-11.17676-11.894531-4.14257-11.15625-4.06055 11.15625zm26.2295 11.894531v-29.818359h6.07031v24.752929h15.09375v5.06543zm52.62304 0h-6.60351l-2.625-6.829101h-12.01758l-2.48145 6.829101h-6.43945l11.70996-30.064453h6.41895zm-11.17675-11.894531-4.14258-11.15625-4.06055 11.15625zm32.833 11.894531v-24.978515h-8.9209v-5.085938h23.89161v5.085938h-8.90039v24.978515zm18.72364 0v-30.064453h6.07031v30.064453zm11.85351 0v-30.064453h12.77637c3.21287.00003 5.54734.270049 7.00342.810059 1.45603.540067 2.62155 1.500516 3.49658 2.881347.87497 1.380885 1.31247 2.959985 1.3125 4.737305-.00003 2.255879-.66311 4.11867-1.98926 5.588379-1.3262 1.469741-3.30862 2.39601-5.94726 2.778808 1.31247.765638 2.39597 1.606457 3.25048 2.522461.85447.916026 2.00633 2.542977 3.45557 4.88086l3.6709 5.865234h-7.25977l-4.38867-6.541992c-1.55861-2.337882-2.62501-3.811025-3.19922-4.419434-.57423-.608386-1.18263-1.025378-1.82519-1.250976-.64259-.225574-1.66115-.338367-3.05567-.338379h-1.23047v12.550781zm6.07031-17.349609h4.49122c2.91209.000017 4.73045-.12303 5.45507-.369141.72459-.246076 1.29198-.669903 1.70215-1.271484.41014-.601543.61521-1.353495.61524-2.25586-.00003-1.011696-.27004-1.82859-.81006-2.450683-.54006-.622046-1.30227-1.015112-2.28662-1.179199-.49221-.06834-1.96877-.102514-4.42969-.102539h-4.73731zm51.37207 17.349609h-6.60351l-2.625-6.829101h-12.01758l-2.48144 6.829101h-6.43946l11.70996-30.064453h6.41895zm-11.17675-11.894531-4.14258-11.15625-4.06055 11.15625zm14.47851 11.894531v-30.064453h5.90625l12.30469 20.077148v-20.077148h5.63965v30.064453h-6.09082l-12.12012-19.605469v19.605469zm30.10547 0v-30.064453h6.07031v30.064453zm38.94434 0h-6.60352l-2.625-6.829101h-12.01758l-2.48144 6.829101h-6.43946l11.70997-30.064453h6.41894zm-11.17676-11.894531-4.14258-11.15625-4.06055 11.15625zm33.96094 11.894531v-12.65332l-11.0127-17.411133h7.11621l7.0752 11.894531 6.93164-11.894531h6.99316l-11.05371 17.452148v12.612305zm39.47754 0-10.7461-30.064453h6.58301l7.6084 22.250977 7.3623-22.250977h6.43946l-10.76661 30.064453zm20.20019 0v-30.064453h6.07031v30.064453zm19.50293 0-10.74609-30.064453h6.583l7.6084 22.250977 7.36231-22.250977h6.43945l-10.7666 30.064453zm47.49609 0h-6.60351l-2.625-6.829101h-12.01758l-2.48144 6.829101h-6.43946l11.70996-30.064453h6.41895zm-11.17675-11.894531-4.14258-11.15625-4.06055 11.15625zm26.22949 11.894531v-29.818359h6.07031v24.752929h15.09375v5.06543zm52.62305 0h-6.60352l-2.625-6.829101h-12.01758l-2.48144 6.829101h-6.43946l11.70996-30.064453h6.41895zm-11.17676-11.894531-4.14258-11.15625-4.06055 11.15625zm26.22949 11.894531v-29.818359h6.07031v24.752929h15.09375v5.06543zm25.32715 0v-30.064453h6.07031v30.064453zm11.85351-30.064453h12.01758c2.37889.00003 4.15282.09915 5.32178.297363 1.16892.198272 2.21482.611846 3.13769 1.240723.92283.628934 1.69187 1.466336 2.30713 2.512207.61521 1.045923.92283 2.218286.92286 3.51709-.00003 1.408224-.37943 2.700215-1.13819 3.875976-.75881 1.175799-1.78762 2.057634-3.08642 2.645508 1.832.533219 3.2402 1.442398 4.22461 2.727539.98434 1.285169 1.47653 2.795909 1.47656 4.532227-.00003 1.367195-.3179 2.696783-.95362 3.988769-.63576 1.291996-1.50393 2.324222-2.60449 3.09668-1.10061.772462-2.45754 1.247559-4.0708 1.425293-1.01174.109375-3.45216.177734-7.32129.205078h-10.2334zm6.07032 5.003906v6.952149h3.97851c2.36522.000018 3.83495-.03416 4.40918-.102539 1.03905-.123029 1.85594-.481915 2.45069-1.07666.5947-.594707.89206-1.377421.89209-2.348145-.00003-.929665-.25637-1.685035-.76905-2.266113-.51271-.581031-1.27492-.933081-2.28662-1.056153-.60158-.06833-2.33107-.102514-5.18848-.102539zm0 11.956055v8.039062h5.61914c2.18748.000006 3.57517-.06152 4.16308-.18457.90233-.164057 1.63719-.563959 2.20459-1.199707.56736-.635735.85106-1.486808.85108-2.553223-.00002-.902333-.21877-1.667958-.65625-2.296875-.43752-.628894-1.06985-1.086901-1.89698-1.374023-.82716-.287096-2.62159-.430651-5.3833-.430664zm24.26074 13.104492v-30.064453h22.29199v5.085938h-16.22168v6.665039h15.09375v5.065429h-15.09375v8.182617h16.7959v5.06543zm28.07519 0v-30.064453h12.77637c3.21287.00003 5.54734.270049 7.00342.810059 1.45603.540067 2.62156 1.500516 3.49658 2.881347.87497 1.380885 1.31247 2.959985 1.3125 4.737305-.00003 2.255879-.66311 4.11867-1.98926 5.588379-1.32619 1.469741-3.30861 2.39601-5.94726 2.778808 1.31248.765638 2.39597 1.606457 3.25049 2.522461.85446.916026 2.00632 2.542977 3.45556 4.88086l3.6709 5.865234h-7.25976l-4.38868-6.541992c-1.55861-2.337882-2.62501-3.811025-3.19922-4.419434-.57423-.608386-1.18263-1.025378-1.82519-1.250976-.64259-.225574-1.66115-.338367-3.05566-.338379h-1.23047v12.550781zm6.07032-17.349609h4.49121c2.91209.000017 4.73045-.12303 5.45508-.369141.72459-.246076 1.29197-.669903 1.70214-1.271484.41014-.601543.61522-1.353495.61524-2.25586-.00002-1.011696-.27004-1.82859-.81006-2.450683-.54006-.622046-1.30227-1.015112-2.28662-1.179199-.49221-.06834-1.96877-.102514-4.42969-.102539h-4.7373zm31.02832 17.349609v-24.978515h-8.9209v-5.085938h23.8916v5.085938h-8.90039v24.978515zm46.01953 0h-6.60352l-2.625-6.829101h-12.01758l-2.48144 6.829101h-6.43945l11.70996-30.064453h6.41894zm-11.17676-11.894531-4.14258-11.15625-4.06054 11.15625zm14.39648-18.169922h11.09473c2.50194.00003 4.40916.191436 5.72168.574219 1.76365.51956 3.27439 1.442411 4.53223 2.768554 1.25778 1.326198 2.21481 2.949731 2.87109 4.870606.65622 1.920918.98435 4.289568.98438 7.105957-.00003 2.474622-.30765 4.607432-.92286 6.398437-.75197 2.187507-1.82522 3.958013-3.21972 5.311524-1.05276 1.025393-2.47463 1.825196-4.26563 2.399414-1.33986.423828-3.13087.635742-5.37304.635742h-11.42286zm6.07032 5.085938v19.913085h4.53222c1.6953.000006 2.91893-.0957 3.6709-.287109.98436-.246088 1.80125-.66308 2.45069-1.250976.64939-.587884 1.17917-1.555168 1.58935-2.901856.41014-1.346669.61521-3.182116.61524-5.506348-.00003-2.324201-.2051-4.108379-.61524-5.352539-.41018-1.244119-.98439-2.214821-1.72265-2.912109-.73831-.697242-1.67483-1.168921-2.80958-1.415039-.84767-.191381-2.5088-.287084-4.98339-.287109z" fill="#fff"/></svg>