<svg height="600" viewBox="0 0 238.12499 158.75" width="900" xmlns="http://www.w3.org/2000/svg"><g transform="translate(0 -138.24998)"><path d="m0-177.93748h238.125v39.6875h-238.125z" fill="#00237d" stroke-width=".245624" transform="scale(1 -1)"/><path d="m0-296.99997h238.125v39.6875h-238.125z" fill="#008033" stroke-width=".245624" transform="scale(1 -1)"/><path d="m0-257.31247h238.125v39.6875h-238.125z" fill="#fc0" stroke-width=".245624" transform="scale(1 -1)"/><path d="m0-217.62498h238.125v39.6875h-238.125z" fill="#fff" stroke-width=".245624" transform="scale(1 -1)"/><g transform="translate(249.64466 6.294)"><g transform="translate(-249.815343 -6.026104)"><path d="m113.90342 206.27575c-4.38613 1.783-5.71044-.37064-7.75082-1.60361-1.34755-.53454-1.42384-1.06908 0-1.60362 1.02453-.44571 2.04907-.5141 3.0736-1.60362-.28751-4.06088-3.81217-3.58976-5.74629-5.34539-.38766-3.08769-5.0052-2.53129-6.54811-3.0736-2.0403-1.11552-1.90983-.49442-2.27179-.26727-.0213 1.24916-.29186 1.99989-.66817 2.53906-2.38618-.30631-3.58272-.27273-3.47451.13364-.69029.49063-.98832 2.55026-1.33634 4.40995-.74253 1.66274-2.32283 1.23103-3.74178 1.20271-.51526.87826-.31137 2.1161-.13363 3.34087-.0951 3.253 1.20557 5.52628 2.00452 8.15172.7082 2.44102-1.55423 3.18455-3.20724 4.27631-1.06145 2.23106-.57828 5.23443-.26726 8.15172-.66851 1.52839.59317 3.41869 5.61265 6.01357 3.54859.37577 3.3756 3.35664 3.47451 6.14719.0523 1.21359 3.77336 2.7094 8.41899 4.27632 1.7818.53454 3.38541.53454 4.81085 0l5.7463 2.00452c.99533-.41625.88958.26859 3.4745-1.73725 1.75812-.26718 1.77302 2.04856 5.07812 2.93996 1.78715-.56873 2.6376-1.09286 11.62622-2.00452 2.54611-2.33637 2.28376-4.2815 5.7463-3.74177 1.13285-1.77309.53082 1.4106 3.87541-6.68174 1.96487-3.57426 5.756-3.90622 4.14268-10.55715-.203-2.88862 4.6432-2.78719 7.48354-2.00452 2.06921-.475 1.07873-2.26129.80181-3.74177-1.69271.66057-3.38541-2.9094-5.07812-5.21176-1.82634.52358-3.65269.93519-5.47903-3.0736-1.47118-.87448-.70977-2.15489 1.73725-3.74177-4.36809-2.78804-5.52531-3.2409-6.01356-3.20724-2.26058.96318-3.57102.50114-4.40994-.66817-2.1166-2.1827-.83637-4.3654-.66818-6.5481.75524-1.11322-7.83991-.35636-11.75986-.53454-2.57587-.44738-2.71083-1.50499-4.00904-2.27179-2.28706 1.60658-3.81722 3.10965-4.00904 2.27179.56125 2.92216-1.33037 2.98053-.80181 5.61266 2.27147 1.79908 2.62533 3.81503.26727 7.75081z" fill="#00237d"/><path d="m106.1526 241.4217 5.7463 2.00452c1.76712-.14411 2.55292-.98918 3.4745-1.73725 1.56831-.0391 2.18338 2.30666 5.07812 2.93996 2.20933-.82685 6.81617-1.42536 11.62622-2.00452 2.34401-1.90116 2.32228-4.19926 5.7463-3.74177 1.7685-.70182 2.68498-4.13009 3.87541-6.68174 2.31881-3.24761 5.81625-4.68576 4.14268-10.55715.10934-2.44001 2.97088-2.83554 7.48354-2.00452 1.24512-.20932 1.52321-1.06333 1.25922-2.27872h-70.72692c-.73405 2.45055-.23723 5.05495-.0224 7.62411-.79518 1.80945 1.24328 3.82623 5.61265 6.01357 2.83384.38366 3.65258 2.75737 3.47451 6.41447.70063 1.36644 6.81147 3.71284 10.24263 4.48822 1.29756-.009 2.43949-.0955 2.98724-.47918z" fill="#008033"/></g><g transform="translate(-8.396861 1.904337)"><g stroke="#d4a901" stroke-width=".1"><path d="m-148.88098 180.70403-4.7502 1.58189 1.1197-1.60752z" fill="#fdde00"/><path d="m-148.91249 180.69625-4.74731 1.58971 1.93127.58843z" fill="#d4a901"/><path d="m-153.60267 177.40526-.004 4.78445-1.25875-1.53699z" fill="#fdde00"/></g><path d="m-153.62134 177.43094.004 4.78445 1.25849-1.53699z" fill="#d4a901"/><path d="m-158.28815 180.65729 4.71201 1.55731-1.90777.60181z" fill="#fdde00" stroke="#d4a901" stroke-width=".1"/><path d="m-158.26869 180.68196 4.71481 1.54947-1.31154-1.57871z" fill="#d4a901"/><path d="m-156.42314 186.11248 2.88665-3.95232-.085 2.01915z" fill="#fdde00" stroke="#d4a901" stroke-width=".1"/><path d="m-156.39541 186.10273 2.88077-3.95782-1.96926.6715z" fill="#d4a901"/><path d="m-150.73753 186.12097-2.88672-3.95232.003 2.01066z" fill="#d4aa00"/><path d="m-150.76526 186.11121-2.88084-3.95781 1.91757.72099z" fill="#fede00" stroke="#d4a901" stroke-width=".1"/></g><g transform="translate(-17.710745 7.567727)"><g stroke="#d4a901" stroke-width=".1"><path d="m-148.88098 180.70403-4.7502 1.58189 1.1197-1.60752z" fill="#fdde00"/><path d="m-148.91249 180.69625-4.74731 1.58971 1.93127.58843z" fill="#d4a901"/><path d="m-153.60267 177.40526-.004 4.78445-1.25875-1.53699z" fill="#fdde00"/></g><path d="m-153.62134 177.43094.004 4.78445 1.25849-1.53699z" fill="#d4a901"/><path d="m-158.28815 180.65729 4.71201 1.55731-1.90777.60181z" fill="#fdde00" stroke="#d4a901" stroke-width=".1"/><path d="m-158.26869 180.68196 4.71481 1.54947-1.31154-1.57871z" fill="#d4a901"/><path d="m-156.42314 186.11248 2.88665-3.95232-.085 2.01915z" fill="#fdde00" stroke="#d4a901" stroke-width=".1"/><path d="m-156.39541 186.10273 2.88077-3.95782-1.96926.6715z" fill="#d4a901"/><path d="m-150.73753 186.12097-2.88672-3.95232.003 2.01066z" fill="#d4aa00"/><path d="m-150.76526 186.11121-2.88084-3.95781 1.91757.72099z" fill="#fede00" stroke="#d4a901" stroke-width=".1"/></g><g transform="translate(-23.924762 16.588074)"><g stroke="#d4a901" stroke-width=".1"><path d="m-148.88098 180.70403-4.7502 1.58189 1.1197-1.60752z" fill="#fdde00"/><path d="m-148.91249 180.69625-4.74731 1.58971 1.93127.58843z" fill="#d4a901"/><path d="m-153.60267 177.40526-.004 4.78445-1.25875-1.53699z" fill="#fdde00"/></g><path d="m-153.62134 177.43094.004 4.78445 1.25849-1.53699z" fill="#d4a901"/><path d="m-158.28815 180.65729 4.71201 1.55731-1.90777.60181z" fill="#fdde00" stroke="#d4a901" stroke-width=".1"/><path d="m-158.26869 180.68196 4.71481 1.54947-1.31154-1.57871z" fill="#d4a901"/><path d="m-156.42314 186.11248 2.88665-3.95232-.085 2.01915z" fill="#fdde00" stroke="#d4a901" stroke-width=".1"/><path d="m-156.39541 186.10273 2.88077-3.95782-1.96926.6715z" fill="#d4a901"/><path d="m-150.73753 186.12097-2.88672-3.95232.003 2.01066z" fill="#d4aa00"/><path d="m-150.76526 186.11121-2.88084-3.95781 1.91757.72099z" fill="#fede00" stroke="#d4a901" stroke-width=".1"/></g><g transform="translate(-26.397005 28.281116)"><g stroke="#d4a901" stroke-width=".1"><path d="m-148.88098 180.70403-4.7502 1.58189 1.1197-1.60752z" fill="#fdde00"/><path d="m-148.91249 180.69625-4.74731 1.58971 1.93127.58843z" fill="#d4a901"/><path d="m-153.60267 177.40526-.004 4.78445-1.25875-1.53699z" fill="#fdde00"/></g><path d="m-153.62134 177.43094.004 4.78445 1.25849-1.53699z" fill="#d4a901"/><path d="m-158.28815 180.65729 4.71201 1.55731-1.90777.60181z" fill="#fdde00" stroke="#d4a901" stroke-width=".1"/><path d="m-158.26869 180.68196 4.71481 1.54947-1.31154-1.57871z" fill="#d4a901"/><path d="m-156.42314 186.11248 2.88665-3.95232-.085 2.01915z" fill="#fdde00" stroke="#d4a901" stroke-width=".1"/><path d="m-156.39541 186.10273 2.88077-3.95782-1.96926.6715z" fill="#d4a901"/><path d="m-150.73753 186.12097-2.88672-3.95232.003 2.01066z" fill="#d4aa00"/><path d="m-150.76526 186.11121-2.88084-3.95781 1.91757.72099z" fill="#fede00" stroke="#d4a901" stroke-width=".1"/></g><g transform="translate(-23.991579 39.372801)"><g stroke="#d4a901" stroke-width=".1"><path d="m-148.88098 180.70403-4.7502 1.58189 1.1197-1.60752z" fill="#fdde00"/><path d="m-148.91249 180.69625-4.74731 1.58971 1.93127.58843z" fill="#d4a901"/><path d="m-153.60267 177.40526-.004 4.78445-1.25875-1.53699z" fill="#fdde00"/></g><path d="m-153.62134 177.43094.004 4.78445 1.25849-1.53699z" fill="#d4a901"/><path d="m-158.28815 180.65729 4.71201 1.55731-1.90777.60181z" fill="#fdde00" stroke="#d4a901" stroke-width=".1"/><path d="m-158.26869 180.68196 4.71481 1.54947-1.31154-1.57871z" fill="#d4a901"/><path d="m-156.42314 186.11248 2.88665-3.95232-.085 2.01915z" fill="#fdde00" stroke="#d4a901" stroke-width=".1"/><path d="m-156.39541 186.10273 2.88077-3.95782-1.96926.6715z" fill="#d4a901"/><path d="m-150.73753 186.12097-2.88672-3.95232.003 2.01066z" fill="#d4aa00"/><path d="m-150.76526 186.11121-2.88084-3.95781 1.91757.72099z" fill="#fede00" stroke="#d4a901" stroke-width=".1"/></g><g transform="translate(-17.643928 48.927687)"><g stroke="#d4a901" stroke-width=".1"><path d="m-148.88098 180.70403-4.7502 1.58189 1.1197-1.60752z" fill="#fdde00"/><path d="m-148.91249 180.69625-4.74731 1.58971 1.93127.58843z" fill="#d4a901"/><path d="m-153.60267 177.40526-.004 4.78445-1.25875-1.53699z" fill="#fdde00"/></g><path d="m-153.62134 177.43094.004 4.78445 1.25849-1.53699z" fill="#d4a901"/><path d="m-158.28815 180.65729 4.71201 1.55731-1.90777.60181z" fill="#fdde00" stroke="#d4a901" stroke-width=".1"/><path d="m-158.26869 180.68196 4.71481 1.54947-1.31154-1.57871z" fill="#d4a901"/><path d="m-156.42314 186.11248 2.88665-3.95232-.085 2.01915z" fill="#fdde00" stroke="#d4a901" stroke-width=".1"/><path d="m-156.39541 186.10273 2.88077-3.95782-1.96926.6715z" fill="#d4a901"/><path d="m-150.73753 186.12097-2.88672-3.95232.003 2.01066z" fill="#d4aa00"/><path d="m-150.76526 186.11121-2.88084-3.95781 1.91757.72099z" fill="#fede00" stroke="#d4a901" stroke-width=".1"/></g><g transform="translate(-8.42313 54.607164)"><g stroke="#d4a901" stroke-width=".1"><path d="m-148.88098 180.70403-4.7502 1.58189 1.1197-1.60752z" fill="#fdde00"/><path d="m-148.91249 180.69625-4.74731 1.58971 1.93127.58843z" fill="#d4a901"/><path d="m-153.60267 177.40526-.004 4.78445-1.25875-1.53699z" fill="#fdde00"/></g><path d="m-153.62134 177.43094.004 4.78445 1.25849-1.53699z" fill="#d4a901"/><path d="m-158.28815 180.65729 4.71201 1.55731-1.90777.60181z" fill="#fdde00" stroke="#d4a901" stroke-width=".1"/><path d="m-158.26869 180.68196 4.71481 1.54947-1.31154-1.57871z" fill="#d4a901"/><path d="m-156.42314 186.11248 2.88665-3.95232-.085 2.01915z" fill="#fdde00" stroke="#d4a901" stroke-width=".1"/><path d="m-156.39541 186.10273 2.88077-3.95782-1.96926.6715z" fill="#d4a901"/><path d="m-150.73753 186.12097-2.88672-3.95232.003 2.01066z" fill="#d4aa00"/><path d="m-150.76526 186.11121-2.88084-3.95781 1.91757.72099z" fill="#fede00" stroke="#d4a901" stroke-width=".1"/></g><g transform="matrix(-1 0 0 1 -258.658275 1.99652)"><g stroke="#d4a901" stroke-width=".1"><path d="m-148.88098 180.70403-4.7502 1.58189 1.1197-1.60752z" fill="#fdde00"/><path d="m-148.91249 180.69625-4.74731 1.58971 1.93127.58843z" fill="#d4a901"/><path d="m-153.60267 177.40526-.004 4.78445-1.25875-1.53699z" fill="#fdde00"/></g><path d="m-153.62134 177.43094.004 4.78445 1.25849-1.53699z" fill="#d4a901"/><path d="m-158.28815 180.65729 4.71201 1.55731-1.90777.60181z" fill="#fdde00" stroke="#d4a901" stroke-width=".1"/><path d="m-158.26869 180.68196 4.71481 1.54947-1.31154-1.57871z" fill="#d4a901"/><path d="m-156.42314 186.11248 2.88665-3.95232-.085 2.01915z" fill="#fdde00" stroke="#d4a901" stroke-width=".1"/><path d="m-156.39541 186.10273 2.88077-3.95782-1.96926.6715z" fill="#d4a901"/><path d="m-150.73753 186.12097-2.88672-3.95232.003 2.01066z" fill="#d4aa00"/><path d="m-150.76526 186.11121-2.88084-3.95781 1.91757.72099z" fill="#fede00" stroke="#d4a901" stroke-width=".1"/></g><g transform="matrix(-1 0 0 1 -249.344391 7.65991)"><g stroke="#d4a901" stroke-width=".1"><path d="m-148.88098 180.70403-4.7502 1.58189 1.1197-1.60752z" fill="#fdde00"/><path d="m-148.91249 180.69625-4.74731 1.58971 1.93127.58843z" fill="#d4a901"/><path d="m-153.60267 177.40526-.004 4.78445-1.25875-1.53699z" fill="#fdde00"/></g><path d="m-153.62134 177.43094.004 4.78445 1.25849-1.53699z" fill="#d4a901"/><path d="m-158.28815 180.65729 4.71201 1.55731-1.90777.60181z" fill="#fdde00" stroke="#d4a901" stroke-width=".1"/><path d="m-158.26869 180.68196 4.71481 1.54947-1.31154-1.57871z" fill="#d4a901"/><path d="m-156.42314 186.11248 2.88665-3.95232-.085 2.01915z" fill="#fdde00" stroke="#d4a901" stroke-width=".1"/><path d="m-156.39541 186.10273 2.88077-3.95782-1.96926.6715z" fill="#d4a901"/><path d="m-150.73753 186.12097-2.88672-3.95232.003 2.01066z" fill="#d4aa00"/><path d="m-150.76526 186.11121-2.88084-3.95781 1.91757.72099z" fill="#fede00" stroke="#d4a901" stroke-width=".1"/></g><g transform="matrix(-1 0 0 1 -243.130374 16.680257)"><g stroke="#d4a901" stroke-width=".1"><path d="m-148.88098 180.70403-4.7502 1.58189 1.1197-1.60752z" fill="#fdde00"/><path d="m-148.91249 180.69625-4.74731 1.58971 1.93127.58843z" fill="#d4a901"/><path d="m-153.60267 177.40526-.004 4.78445-1.25875-1.53699z" fill="#fdde00"/></g><path d="m-153.62134 177.43094.004 4.78445 1.25849-1.53699z" fill="#d4a901"/><path d="m-158.28815 180.65729 4.71201 1.55731-1.90777.60181z" fill="#fdde00" stroke="#d4a901" stroke-width=".1"/><path d="m-158.26869 180.68196 4.71481 1.54947-1.31154-1.57871z" fill="#d4a901"/><path d="m-156.42314 186.11248 2.88665-3.95232-.085 2.01915z" fill="#fdde00" stroke="#d4a901" stroke-width=".1"/><path d="m-156.39541 186.10273 2.88077-3.95782-1.96926.6715z" fill="#d4a901"/><path d="m-150.73753 186.12097-2.88672-3.95232.003 2.01066z" fill="#d4aa00"/><path d="m-150.76526 186.11121-2.88084-3.95781 1.91757.72099z" fill="#fede00" stroke="#d4a901" stroke-width=".1"/></g><g transform="matrix(-1 0 0 1 -240.658131 28.373299)"><g stroke="#d4a901" stroke-width=".1"><path d="m-148.88098 180.70403-4.7502 1.58189 1.1197-1.60752z" fill="#fdde00"/><path d="m-148.91249 180.69625-4.74731 1.58971 1.93127.58843z" fill="#d4a901"/><path d="m-153.60267 177.40526-.004 4.78445-1.25875-1.53699z" fill="#fdde00"/></g><path d="m-153.62134 177.43094.004 4.78445 1.25849-1.53699z" fill="#d4a901"/><path d="m-158.28815 180.65729 4.71201 1.55731-1.90777.60181z" fill="#fdde00" stroke="#d4a901" stroke-width=".1"/><path d="m-158.26869 180.68196 4.71481 1.54947-1.31154-1.57871z" fill="#d4a901"/><path d="m-156.42314 186.11248 2.88665-3.95232-.085 2.01915z" fill="#fdde00" stroke="#d4a901" stroke-width=".1"/><path d="m-156.39541 186.10273 2.88077-3.95782-1.96926.6715z" fill="#d4a901"/><path d="m-150.73753 186.12097-2.88672-3.95232.003 2.01066z" fill="#d4aa00"/><path d="m-150.76526 186.11121-2.88084-3.95781 1.91757.72099z" fill="#fede00" stroke="#d4a901" stroke-width=".1"/></g><g transform="matrix(-1 0 0 1 -243.063557 39.464984)"><g stroke="#d4a901" stroke-width=".1"><path d="m-148.88098 180.70403-4.7502 1.58189 1.1197-1.60752z" fill="#fdde00"/><path d="m-148.91249 180.69625-4.74731 1.58971 1.93127.58843z" fill="#d4a901"/><path d="m-153.60267 177.40526-.004 4.78445-1.25875-1.53699z" fill="#fdde00"/></g><path d="m-153.62134 177.43094.004 4.78445 1.25849-1.53699z" fill="#d4a901"/><path d="m-158.28815 180.65729 4.71201 1.55731-1.90777.60181z" fill="#fdde00" stroke="#d4a901" stroke-width=".1"/><path d="m-158.26869 180.68196 4.71481 1.54947-1.31154-1.57871z" fill="#d4a901"/><path d="m-156.42314 186.11248 2.88665-3.95232-.085 2.01915z" fill="#fdde00" stroke="#d4a901" stroke-width=".1"/><path d="m-156.39541 186.10273 2.88077-3.95782-1.96926.6715z" fill="#d4a901"/><path d="m-150.73753 186.12097-2.88672-3.95232.003 2.01066z" fill="#d4aa00"/><path d="m-150.76526 186.11121-2.88084-3.95781 1.91757.72099z" fill="#fede00" stroke="#d4a901" stroke-width=".1"/></g><g transform="matrix(-1 0 0 1 -249.411208 49.01987)"><g stroke="#d4a901" stroke-width=".1"><path d="m-148.88098 180.70403-4.7502 1.58189 1.1197-1.60752z" fill="#fdde00"/><path d="m-148.91249 180.69625-4.74731 1.58971 1.93127.58843z" fill="#d4a901"/><path d="m-153.60267 177.40526-.004 4.78445-1.25875-1.53699z" fill="#fdde00"/></g><path d="m-153.62134 177.43094.004 4.78445 1.25849-1.53699z" fill="#d4a901"/><path d="m-158.28815 180.65729 4.71201 1.55731-1.90777.60181z" fill="#fdde00" stroke="#d4a901" stroke-width=".1"/><path d="m-158.26869 180.68196 4.71481 1.54947-1.31154-1.57871z" fill="#d4a901"/><path d="m-156.42314 186.11248 2.88665-3.95232-.085 2.01915z" fill="#fdde00" stroke="#d4a901" stroke-width=".1"/><path d="m-156.39541 186.10273 2.88077-3.95782-1.96926.6715z" fill="#d4a901"/><path d="m-150.73753 186.12097-2.88672-3.95232.003 2.01066z" fill="#d4aa00"/><path d="m-150.76526 186.11121-2.88084-3.95781 1.91757.72099z" fill="#fede00" stroke="#d4a901" stroke-width=".1"/></g><g transform="matrix(-1 0 0 1 -258.632006 54.699347)"><g stroke="#d4a901" stroke-width=".1"><path d="m-148.88098 180.70403-4.7502 1.58189 1.1197-1.60752z" fill="#fdde00"/><path d="m-148.91249 180.69625-4.74731 1.58971 1.93127.58843z" fill="#d4a901"/><path d="m-153.60267 177.40526-.004 4.78445-1.25875-1.53699z" fill="#fdde00"/></g><path d="m-153.62134 177.43094.004 4.78445 1.25849-1.53699z" fill="#d4a901"/><path d="m-158.28815 180.65729 4.71201 1.55731-1.90777.60181z" fill="#fdde00" stroke="#d4a901" stroke-width=".1"/><path d="m-158.26869 180.68196 4.71481 1.54947-1.31154-1.57871z" fill="#d4a901"/><path d="m-156.42314 186.11248 2.88665-3.95232-.085 2.01915z" fill="#fdde00" stroke="#d4a901" stroke-width=".1"/><path d="m-156.39541 186.10273 2.88077-3.95782-1.96926.6715z" fill="#d4a901"/><path d="m-150.73753 186.12097-2.88672-3.95232.003 2.01066z" fill="#d4aa00"/><path d="m-150.76526 186.11121-2.88084-3.95781 1.91757.72099z" fill="#fede00" stroke="#d4a901" stroke-width=".1"/></g><path d="m-145.46144 211.47373.13364-2.00452 2.13815-4.07586c1.40277.11732 2.20198-1.04295 3.0736-2.87315 1.32237.25404-.0804.408 3.67496-1.87088l2.33861-.86863c.6092-.35846 3.0135 2.26833 2.73951 5.27857.95524-.76615 2.47999-1.89975 3.67495-3.4745.80839.0192 1.09364-.25201 3.87542.86863.8084.98872 2.69476 1.79295 1.60361 2.93996.9381 1.33741 3.62419 3.37402 2.80633 4.00904 1.13792.54264 2.28281 1.07483 3.0736 2.13816z" fill="#ddb402"/><path d="m-142.58829 211.47373.86862-3.80859c1.94339-.91378 3.17875-2.94018 3.87541-5.81311.38537 1.73889.26278 2.058.46772 2.60587 1.2792 2.35391 2.71508 4.73915 2.2718 6.74856l-1.00226-1.1359c-.24499-2.58364-1.15607-2.50292-1.73726-3.74177-.2156.18976-.25523.66546.93545 3.14042l.33408 2.00452z" fill="#794422"/><path d="m-131.36297 205.05926c-.2732.30218-.77861-.20835-.73499 1.20271-1.27277.87555-1.03215 1.6853-.26727 2.47225l-1.77066 2.47224c-.51545-.0245 0-1.49225 0-2.23838-1.34594-3.05633-.93502-2.65487.16704-4.10927-.79774.0369-.62312-.41229-.7684-.70158.53511-.25537 1.32916-.16549 1.60362-.7684.37781-.50195-.62626-2.38578-.96885-3.60814.91167-.27819 3.08676 2.90004 2.73951 5.27857z" fill="#794422"/><path d="m-131.83069 211.44032c2.70754-2.37301.80971-4.81954 2.80633-7.04923l-.10023 2.50565c.65791.89716 1.7963 1.15367 1.73725 3.00678.099.36043.25059-.0891.26727 1.5368l-2.37201.0668c.53247-1.18494.64748-2.25603.20045-3.17383-.7039.0327-.53728 2.77477-1.70385 3.10701z" fill="#794422"/><path d="m-118.96835 211.47373-.43431-2.07134c.8096-.53653-1.7181-2.60267-2.80633-4.00904.90303-.93644-.28707-1.60129-1.60361-2.93996-2.40719-.93968-2.64636-.84247-3.07361-.83522 2.25234 3.29254.94343 2.15372 3.60814 4.44335.23588.30876.23106-.34532.86863 1.57021-2.254.66372-2.20761.75235-2.80633 1.00226l-.13364 2.83974z" fill="#794422"/><path d="m-131.89751 230.24941c-1.76806-.036-3.58853-1.59181-5.44562-4.20949-5.29985-2.01559-3.42666-2.41647-3.90881-3.20723.0739-.86045 3.67386-.52221 7.91786-4.71063.94801-.69677 1.58119-1.75334 3.70836-1.10249 2.34569-.37651 2.35981 1.59046 5.21176 2.77292 5.4821 1.17178 3.96017 1.70589 4.17608 3.50792-1.97777 2.85912-2.90423 1.77586-4.2429 2.23838-.28804 2.23919-1.7803 1.65201-5.34539 2.57247-.95302.62891-1.24978 2.29345-2.07134 2.13815z" stroke="#000" stroke-width=".264583"/><ellipse cx="-127.30382" cy="220.96179" fill="#fff" rx=".350791" ry=".334087"/><path d="m-134.87088 223.16677c1.61415-.13653 1.81235-.53855 2.03793-.93544.0865-.35676-.0882-.48778-.16705-.70159h-1.23612c-.96366.46971-.72104.53732-.96885.76841.0797.26422-.14098.28812.33409.86862z" fill="#fff"/><path d="m-128.22255 222.46519c-.0105-.20314.20788-.41717-1.60362-.53454-.11181-.30023-.34026-.48382-.53454-.70158-3.34933.76604-.29344 1.83929 2.13816 1.23612z" fill="#fff"/><path d="m-134.5368 227.77715c.26377-.31905 2.49554.41998 2.6727.10023.4068-.47876.38163-1.08095.16704-1.73725-.30437-1.41263-.12921-2.23917.3675-2.6727 3.22193 1.13306 2.85629 1.49042 2.90655 1.93771.36775.34283.59735.98496 1.46999.23385l.16704-.93544c.85996-.36261 1.72529-.66612 2.67269-.0668.95897.0872.45284-.92433.43432-1.5702-.86704-.007-.59365-.26651-.73499-.43432.57908-1.03427 1.15817-1.49365 1.73725-1.36975 1.16984.11112 1.46504.6198 1.67043 1.1693-.0424 1.71921-.60501 1.96447-1.1693 2.20497-.26564.56429-1.69719.0633-2.3052.90204-.27867 2.30405-3.37919 1.89244-5.34539 2.57247-.93186-.16478-.91535 2.25403-2.07134 2.13815-1.3722-.96237-2.37493-1.82099-2.63929-2.47226z" fill="#fff"/><path d="m-131.59683 217.92161c-1.74201-.89789-1.26191-3.11269-1.67044-3.50792-.35636.28461-.71271 1.65202-1.06907 2.6727.13714.82338 1.3397 1.37718 1.80407 1.80407.93233.19959 1.67187.23683.93544-.96885z" fill="#fff" stroke="#000" stroke-width=".264583"/><path d="m-125.7169 219.12432c-.82659.13589-1.62921.24266-1.23612-1.10249.53904-.52238 1.11345-.33765 1.57021-2.50565.78974 1.20271 1.08716 2.40543-.33409 3.60814z" fill="#fff" stroke="#000" stroke-width=".270933"/><path d="m-122.20899 222.76587c-.79898.0553-.66203-.006-.80181-.0334-.14938-.46351-.0453-.54678-.0334-.7684.21737-.0833.31828-.28308.86863-.0334.18337.2784.38959.5568-.0334.8352z"/><path d="m-121.47144 228.83894c1.18048-.45435 1.82414.0564 4.67588-3.40265l4.20828-1.53453 2.47224-.83522" fill="none" stroke="#fc0" stroke-width=".26435"/><path d="m-109.38005 223.90176 3.74177-3.00678c.30941-.70849.56191-1.77356.96885-1.87089-.31017-.14559-.51262-.34504-.46772-.66817.41578-.0735.34695-.43774.33409-.7684-.46753.0778-.38503-.39451-.33409-.83522.3694-.60326.33697-.80469.46772-1.1693-.42624.56448-.68364.70684-.93544.83522.10769-1.13443.73873.69677.13363-4.47677-.17884.15788-.37396.36463-.46772.26727l-.0334-3.14042c-.0756.21159.031.42318-.36749.63477-.10322-.48192-.29514-.91316.20045-1.73725-.2475.23637-.48227.45999-.46772.43431-.39622-2.66158.53255-3.03452 1.03567-4.14268-.62258-.0722-1.08989.70962-1.5368 1.60362l-.26727-.30068c-1.41049 3.51561-.949 4.76513-.73499 6.31424l-.40091-.26727c-.26743.0999.0813 1.30891.70159 3.00679-.13777-.23879-.42081-.25968-.73499-.23386 1.16504 1.32449.8881 1.84716 1.03566 2.60587-.20843-.28008-.31009-.23984-.43431-.26727-.16861 1.49775.0668 1.58135.10023 2.37202l-.30068-1.26953c-.23974.007-.38948.41889-.10023 2.80633-.128.19757-.14721.23195-.43431.66817.0403-.17818-.10108-.35635-.23386-.53453-.8645 1.00542-1.72861 2.00974-2.07134 1.5368-.84035.51542-2.10192 1.00452-1.60362 1.60361z" fill="#fc0"/><path d="m-137.86681 229.10601c-2.27073.22903-3.12177-1.44906-5.10268-2.92932-4.3574-.60657-5.03371-1.14796-9.35491-4.25223-.73068-.2176-1.75708-2.09268-2.36235-8.07924.56448-1.18861 1.31253-1.82655 1.65364-3.68527.0262-2.16283-.98459-3.58495-1.79538-5.14993" fill="none" stroke="#fc0" stroke-width=".397404"/><g fill="#fc0"><path d="m-153.55282 207.41962c-1.40017-.20961-2.31508-.46775-2.45685-.8032-.35324-1.10846-.12457-1.24706-.14174-1.79539.44097-.3627.88195-.20154 1.32292.18899-.0348.33968.10151-.43458.14175-.82682.32645.0757.9214.27954 1.08668.73232.20902 1.36622.0677 1.76896.0472 2.5041z"/><path d="m-153.03311 210.15995c.43011-.45862.44572-1.11026.87407-1.51191.14419-.66391.0754-1.11478-.0945-1.46465-.94825.14101-.69036.78459-.96857 1.20479z"/><path d="m-153.22211 208.38818c-.2859-.14201-.26582-.25002-1.06304-.44884-1.14087.30005-1.30503.48519-1.39379.66146.5688.55931 1.30841.84531 2.50409.4016z"/><path d="m-154.66313 212.99477c.18861-.37986.40371-.62726.47247-1.6064-.24647-.96988-1.0151-1.0695-1.6064-1.46466-.46574.8179-.56847 2.62856 1.13393 3.07106z"/><path d="m-152.06454 211.38837c.40382 1.9371-.52737 2.15682-2.10249 2.36236l.35434-1.2993c.93853-.78132 1.43719-1.03482 1.74815-1.06306z"/><path d="m-153.97805 216.4438c2.11434-.3901 1.82154-1.41457 1.67728-2.33872-.48366-.0476-1.33405.33391-1.88989 1.58277l-.11812.85045z"/><path d="m-154.68675 217.36512c-.29807-1.59684-.13392-2.09028-.99219-2.64584l-1.18118-.0236c-.19733 2.533.94936 2.67014 2.17337 2.66946z"/><path d="m-152.08817 217.53049c.66555 1.31309.96082 2.58346 0 3.70889-1.0638-1.26428-1.13591-1.69345-1.01581-1.96076.24775-1.27755.63444-1.49247 1.01581-1.74813z"/><path d="m-153.45833 221.71185c.22059-.6615.0242-1.18399-.11812-1.72452-.80146-.99579-1.47008-1.06162-2.14974-1.2048-.12503.9275-.56981 2.10909 2.26786 2.92932z"/><path d="m-147.78869 224.49942c.13167-.738.29463-1.5073.30711-2.12611-.4057-.98943-1.32555-1.01481-2.22061-1.08669 1.29758.92928 1.28831 1.38335 1.22842 1.81901.19137.42068-.40338-.0922.68508 1.39379z"/><path d="m-152.25353 226.27118c.29174-.48015-.31433-.44052 1.03943-1.53552.6348-.16982 1.31208-.30188 2.50409.0236-.0504 1.15864-1.10078 1.73833-3.54352 1.51192z"/></g></g><text stroke-width=".264583" x="365.38959" y="334.5708"><tspan stroke-width=".264583" x="365.38959" y="344.92734"/></text><g stroke="#000"><path d="m25.996495 145.76391-2.09715-1.36481c-.420535-.0118-1.125462.16591-1.065225-.16644.06295-.20137.277186-.38592 1.131796-.49932 1.247831-.0464 1.77832.32561 1.964001.89878z" fill="#da251d" stroke-width=".065907"/><path d="m27.237621 146.23077c-.305284.17406-.726913-.006-1.241126-.46686-.480467-.75639-.719823-3.12264-3.162375-1.53125-.04876-.54751-.176641-.99435.284303-1.67386.01801-.4426.140304-.67662.282464-.87092-.598341-.0755-.464391-.48253-.42369-.84738.181632-.80024 1.056145-.79212 1.977215-.72968.257333.15701.531545.22964.729685.68261 1.009397 1.24564.451119 1.48656.753227 2.23613l.09415.0942.141226 1.97721c.317593.37661.83469.75323.564917 1.12984z" fill="#da251d" stroke-width=".065907"/><path d="m23.400887 141.68788c.195751-.33967.956825-.47376 1.835984-.56492-.802621.18028-1.528649-.32144-.94153-.65907" fill="none" stroke-width=".065907"/><path d="m23.118423 142.5588c.158538.0649.535533-.52934.682613-.35308" fill="none" stroke-width=".065907"/><path d="m23.753959 142.72357c-.197879.2615-.322353.16138-.611994.40015" fill="none" stroke-width=".065907"/><path d="m23.789266 143.08841c-.142106.28573-.337939-.11285-.541382.29423" fill="none" stroke-width=".065907"/><path d="m22.800658 143.7004c1.243007-.24716 2.552911-.57881 3.342437.35308.25542.66377-.02459 1.16279-.1466 1.71043" fill="none" stroke-width=".065907"/><path d="m26.660932 146.219c-.125394-.75273.04046-.4861.08239-.65319.254748.25277.347352.49849.241266.73557" fill="none" stroke-width=".065907"/><ellipse cx="25.33073" cy="142.46007" fill="#f6dc00" rx=".632475" ry=".740661" stroke-width=".065907"/><ellipse cx="25.346664" cy="142.45868" fill="#005399" rx=".401511" ry=".47019" stroke-width=".065907"/><ellipse cx="25.348047" cy="142.46519" fill="#da251d" rx=".124288" ry=".145548" stroke-width=".065907"/><path d="m26.978494 148.37703-1.631118.0166c.02097-.24234.03241-.48495-.74898-.74898-.463728-.0612-.470464-.71041-.948715-.68241-.03561-.26927-.04973-.52135.133153-.61583-.463551-.50486-.190503-.49976-.116513-.63247-.09656-.47896.04965-.52092.166442-.61583-.146429-.11944-.331995-.19192-.266303-.5659.500702-.51303 1.11904 1.45928 1.073543-.29127.741706.88992 1.806045 1.70499 1.522935 2.85445.245827.0889.525656.61978.815556 1.2816z" fill="#f5c491" stroke-width=".065907"/><path d="m25.780124 147.84442c.173091-.13245.323872-.26969.280586-.44851" fill="none" stroke-width=".065907"/><path d="m25.713518 146.87218c-.298539-.018-.429014-.1736-.559031-.32953" fill="none" stroke-width=".065907"/><path d="m24.598396 143.74998-.63248-.0166v4.59377l.665769.0166z" fill="#8f5444" stroke-width=".065907"/><path d="m23.649681 146.96228c.351547.006.797971.15943.923748-.18308.138025-.17637-.407318-.29808-.790595-.43275-.166497.056-.163956.31866-.133153.61583z" fill="#f5c491" stroke-width=".065907"/><path d="m23.782834 146.34645c.69723.29784 1.052716.30651 1.173411.11651.231556-.29104-.398138-.3269-.707376-.45771l-.582548-.29127c-.147673.12474-.298663.24795.116513.63247z" fill="#f5c491" stroke-width=".065907"/><path d="m23.666321 145.71398c.598271.32997 1.086341.52064 1.281599.34121.09332-.17672.03314-.28764-.02496-.39946-.424339-.003-.751135-.2987-1.090193-.55758-.250072.16022-.20218.38943-.166442.61583z" fill="#f5c491" stroke-width=".065907"/><path d="m23.832763 145.09815c.339043.23457.646733.53184 1.090193.55758.03151-.0965.09182-.17659-.02497-.35785-.549931-.35386-.799477-.63262-.998643-.89878-.590993.0798-.413914.46556-.06658.69905z" fill="#f5c491" stroke-width=".065907"/><path d="m17.459824 145.24687-1.153376-.41192-.889746-2.68572 2.0596 1.94426z" fill="#dededd" stroke-width=".065907"/><path d="m14.741154 144.99972-.856793-.24716-1.038038-2.60333 2.092552 2.02665z" fill="#dededd" stroke-width=".065907"/><path d="m17.031428 144.55484-1.614726-2.40561" fill="none" stroke-width=".065907"/><path d="m14.477526 144.30769c-.584753-.51439-1.087756-1.43754-1.631203-2.15846" fill="none" stroke-width=".065907"/><path d="m18.020035 145.39516 2.20789 3.2624-.988608.0165-.263628-.4943-1.548818-2.42209z" fill="#8f5444" stroke-width=".065907"/><path d="m15.449655 145.59288 1.927785 2.93287-.444872.4943-2.026646-2.94934z" fill="#8f5444" stroke-width=".065907"/><path d="m14.80706 146.25195.848555-.7085-.08238-.45311-1.23576.9227z" fill="#dededd" stroke-width=".065907"/><ellipse cx="17.550447" cy="145.32101" fill="#dededd" rx=".494304" ry=".46135" stroke-width=".065907"/><circle cx="14.77411" cy="145.19743" fill="#dededd" r=".486065" stroke-width=".065907"/><path d="m31.088661 145.24203 1.155166-.41126.891126-2.68143-2.062795 1.94116z" fill="#dededd" stroke-width=".065906"/><path d="m33.81155 144.99527.858123-.24675 1.03965-2.59918-2.095801 2.02341z" fill="#dededd" stroke-width=".065906"/><path d="m31.517722 144.55111 1.617231-2.40177" fill="none" stroke-width=".065906"/><path d="m34.075587 144.30435c.585661-.51357 1.089445-1.43524 1.633736-2.15501" fill="none" stroke-width=".065906"/><path d="m30.52758 145.39008-2.211317 3.2572.990142.0164.264036-.49351 1.551223-2.41822z" fill="#8f5444" stroke-width=".065906"/><path d="m33.10195 145.58749-1.930778 2.92819.445564.49351 2.029789-2.94464z" fill="#8f5444" stroke-width=".065906"/><path d="m33.745542 146.24551-.849872-.70737.08251-.45239 1.237678.92123z" fill="#dededd" stroke-width=".065906"/><ellipse cx="-30.997892" cy="145.31606" fill="#dededd" rx=".495071" ry=".460614" stroke-width=".065906" transform="scale(-1 1)"/><ellipse cx="-33.778542" cy="145.19267" fill="#dededd" rx=".48682" ry=".485289" stroke-width=".065906" transform="scale(-1 1)"/><path d="m17.262105 148.17974 14.104133-.0165 1.960737 2.65277-1.219282 1.13689-.131815 12.60475c-1.200388 3.79824-3.963463 2.64572-6.870822 3.39422-.577018.21588-.687809.63898-.889748 1.02156-.242136-.39282-.414349-.8047-1.12042-1.07099-2.18501-.62619-4.209701.97915-6.623672-2.83401l.04943-13.14848-1.005085-1.31814z" fill="#b08e3a" stroke-width=".065907"/><path d="m17.554618 149.02615 13.433434-.11651 1.433056 1.84084-1.025272 1.18838-.04661 12.69943c-1.041583 2.8926-3.742552 2.29477-5.965231 2.703-.92782.17635-1.047312.51483-1.22534.83204-.303446-.35936-.507004-.7899-1.524263-.85534-1.82343-.68502-3.735623.80434-5.499201-2.49328l.09321-13.02566-.885463-1.25829z" fill="#75c5f0" stroke-width=".065907"/><path d="m17.262102 148.17974-1.367573-1.91131c-11.6575624 10.41095-3.943821 25.26273 4.234536 25.45664-9.821524-10.04066-9.63536-15.1393-2.866963-23.54533z" fill="#f6dc00" stroke-width=".065907"/><path d="m16.506043 153.33697.0146-1.41699-1.005086-1.31814c-5.026645 6.98773-4.172082 12.43693 4.613504 21.12323l1.526654-.74871-2.656388-3.51856c-1.137444-.50171-1.883704-1.3946-2.528115-2.38934l.01153-1.66516z" fill="#005399" stroke-width=".065907"/><path d="m17.163243 170.12682c-3.988935-3.35988-5.431935-7.389-5.602109-12.72008-.906363-3.17798.695554-4.23266.955652-5.14076.190635 1.71359.323506 3.42717-.692024 5.14076.199939 6.13972 2.476684 9.97187 5.832783 12.60475z" fill="#00923f" stroke-width=".065907"/><path d="m11.561134 157.40674c-1.41593-.45394-1.40219-2.38685-1.5982497-4.10272.4100007.58548.7464217.87666 1.3181447 2.10903-.03955.62026.05603 1.28556.280105 1.99369z" fill="#00923f" stroke-width=".065907"/><path d="m11.824762 157.40674c.790886-.60667 1.581772-.86148 2.372658-3.44365-.534173.37246-1.070426.75947-1.647678 1.43348-.209263 1.18843-.474823 1.47608-.72498 2.01017z" fill="#00923f" stroke-width=".065907"/><path d="m12.006006 159.71349c.158608-2.00824 1.385054-2.70596 2.47152-3.57546-.346804 1.01443-.458196 1.94131-2.47152 3.57546z" fill="#00923f" stroke-width=".065907"/><path d="m12.15049 160.45995c.510095-2.07295 1.661087-2.82885 2.843832-3.5195-.548382 1.7732-1.360725 3.15-2.843832 3.5195z" fill="#00923f" stroke-width=".059835"/><path d="m9.1390451 159.05442c1.4050719-.2102 2.0876149.64438 2.6692389 1.64768-1.276871-.076-1.9277988-.91718-2.6692389-1.64768z" fill="#00923f" stroke-width=".065907"/><path d="m11.676472 159.9936c-.312539-2.1152-1.65418-2.40608-2.8999167-2.86697.617038 1.5325 1.4114587 2.77231 2.8999167 2.86697z" fill="#00923f" stroke-width=".065907"/><path d="m12.516786 163.66792c-.761896-.19139-.591341-.16453-2.141981-.29658-1.0989055-.27227-1.0481841-.74742-1.4829124-1.1369 2.1212114-.0504 3.4000674.14009 3.6248934 1.43348z" fill="#00923f" stroke-width=".065907"/><path d="m12.80777 163.12596c.952097-.14705 1.725342-1.58384 2.446127-3.39894-1.393213.36171-2.666791 1.6994-2.446127 3.39894z" fill="#00923f" stroke-width=".058421"/><path d="m12.45155 163.36835c-.100735-2.19979-1.84277-2.42036-3.3787475-2.88941.6400198 1.01494.9913155 2.06065 3.3787475 2.88941z" fill="#00923f" stroke-width=".065907"/><path d="m13.752546 166.25478c-1.075809 1.1816-2.51358.88244-4.0697674.0989 1.0533584-.68274 2.4013014-.73422 4.0697674-.0989z" fill="#00923f" stroke-width=".065907"/><path d="m14.164467 166.04058c1.285779-.14741 1.953341-1.12704 2.096909-2.81204-1.53335.42745-2.144315 1.41858-2.096909 2.81204z" fill="#00923f" stroke-width=".065907"/><path d="m13.47244 165.744c-1.086916.30686-2.571336-.0109-4.5805474-1.15338 1.5705254-.75113 3.0978964-.38025 4.5805474 1.15338z" fill="#00923f" stroke-width=".065907"/><path d="m13.928843 165.64514c-.227651-2.82663.839853-3.36612 1.833059-4.03682-.450573 1.70607-.801973 3.63494-1.833059 4.03682z" fill="#00923f" stroke-width=".061205"/><path d="m20.491555 167.75417c-.732849.0956-1.468457.17787-1.944262 1.51586 1.289829.21667 1.696828-.55984 1.944262-1.51586z" fill="#00923f" stroke-width=".065907"/><path d="m16.306448 168.7922c-.26804-.26518.39552-2.64902 1.153376-2.47152.128587 1.05826.190069 2.08586-1.153376 2.47152z" fill="#00923f" stroke-width=".065907"/><path d="m16.718369 169.78081c-2.796725-1.06112-3.945936-.55317-4.92656.11534.674776.18502.730178.56913 2.520948.39544 1.067704-.0563 1.950759-.1918 2.405612-.51078z" fill="#00923f" stroke-width=".065907"/><path d="m17.657545 170.01149c-.01146-.81969-.260738-1.63879.667311-2.86697.156531.0955.313059.19421.46959.24716.384846 1.92073-.56674 2.15234-1.136901 2.61981z" fill="#00923f" stroke-width=".065907"/><path d="m15.762714 168.31438c-.510872-.35669-.0034-3.11811.799126-3.0894.383699 1.94472.000997 2.81095-.799126 3.0894z" fill="#00923f" stroke-width=".065907"/><path d="m10.85263 167.72121c2.294695-.7424 3.527638.30088 4.893609 1.12042-1.515006.12452-3.074698.0575-4.893609-1.12042z" fill="#00923f" stroke-width=".065907"/><ellipse cx="15.83321" cy="169.13843" fill="#da251d" rx=".305835" ry=".31166" stroke-width=".065907"/><ellipse cx="-55.576477" cy="160.58632" fill="#da251d" rx=".31166" ry=".276708" stroke-width=".065907" transform="matrix(.90714579 -.4208165 .4208165 .90714579 0 0)"/><ellipse cx="15.148723" cy="166.92186" fill="#da251d" rx=".332049" ry=".337875" stroke-width=".065907"/><ellipse cx="102.82259" cy="133.02579" fill="#da251d" rx=".294184" ry=".364089" stroke-width=".065907" transform="matrix(.83982189 .54286204 -.54286204 .83982189 0 0)"/><ellipse cx="13.418568" cy="163.91302" fill="#da251d" rx=".326224" ry=".323311" stroke-width=".065907"/><ellipse cx="-66.40052" cy="150.065" fill="#da251d" rx=".337077" ry=".292408" stroke-width=".062765" transform="matrix(.87664805 -.4811322 .47050348 .88239814 0 0)"/><ellipse cx="12.78068" cy="160.77895" fill="#da251d" rx=".334962" ry=".352438" stroke-width=".065907"/><ellipse cx="87.754822" cy="135.63332" fill="#da251d" rx=".305835" ry=".367002" stroke-width=".065907" transform="matrix(.87614707 .48204389 -.48204389 .87614707 0 0)"/><ellipse cx="12.320478" cy="157.54001" fill="#da251d" rx=".340787" ry=".31166" stroke-width=".065907"/><ellipse cx="11.053445" cy="157.59827" fill="#da251d" rx=".337875" ry=".323311" stroke-width=".065907"/><path d="m31.366238 148.27413 1.369032-1.88917c12.155206 11.56755 2.262109 25.1867-4.239057 25.16173 9.832011-9.92435 9.645649-14.96391 2.870025-23.27256z" fill="#f6dc00" stroke-width=".065559"/><path d="m32.123105 153.37161-.01462-1.40057 1.218492-1.155c4.878927 7.11642 3.622702 12.09249-4.830764 20.73065l-1.528286-.74005c3.121205-3.58029 2.543662-3.15361 2.659226-3.47779 1.24934-.40366 1.953809-1.57947 2.348727-2.77117l-.0025-1.25283z" fill="#005399" stroke-width=".065559"/><path d="m16.506043 153.33697c-2.741314 4.25361-1.55905 7.21804-.02329 10.06633z" fill="#da251d" stroke-width=".065907"/><path d="m33.261069 161.98729c.836613 2.08706.327018 4.17412-1.252238 6.26118" fill="none" stroke-width=".065907"/><path d="m32.124168 165.66161c-.648469 1.08763-.0061 1.63741-2.537424 3.50956" fill="none" stroke-width=".065907"/><path d="m29.174824 169.33594c.55143-.94717.508585-1.22083.41192-1.43348" fill="none" stroke-width=".065907"/><path d="m28.301553 168.26495c.303696.12628.388224.42302.296584.85679" fill="none" stroke-width=".065907"/><path d="m30.492968 169.03935c-.269387-.0911-.353692.44081-.840317.62612" fill="none" stroke-width=".065907"/><path d="m32.931532 169.46775c-.72623.1046-1.4602.2071-1.878355.39544" fill="none" stroke-width=".065907"/><path d="m32.338368 168.92402c.12344-.21851.305999-.41014.906223-.41192.04595-.0995-.01335-.23843.36249-.2142-.05235-.23532.04982-.46696 1.812447-.65907" fill="none" stroke-width=".065907"/><path d="m34.28263 167.27634c.606282-.93935 1.739314-1.10612 2.998775-1.08747" fill="none" stroke-width=".065907"/><path d="m35.106469 166.20535c1.394991-1.57752 2.26563-1.53828 3.147066-1.53234" fill="none" stroke-width=".065907"/><path d="m34.098828 163.12368c.334217 1.2661-.01263 2.26734-.458794 3.22996" fill="none" stroke-width=".065907"/><path d="m31.580435 168.84163c.136065-.14424.328171-.21004.619305-.13719 1.050862-1.19276 2.231369-1.08903 3.367104-1.43306" fill="none" stroke-width=".065907"/><path d="m33.329882 168.92581c-1.255439.45895-1.411424-.11936-2.854466.76895" fill="none" stroke-width=".065907"/><path d="m31.18612 168.49472c.35491-.43464.714279-.85292.978669-1.61946" fill="none" stroke-width=".065907"/><path d="m36.825138 165.78007c-1.437527-.006-2.471762.83606-3.495263 1.70103.545718-.95053 1.645508-1.30646 1.992295-2.16706.570923-.15138 1.086403-.44138 1.596172-.74565" fill="none" stroke-width=".065907"/><path d="m38.584409 162.56444c-.840476.009-1.656626.44302-2.435032 1.53791-.415308.83569-1.050693 1.01116-1.642769 1.31655-.282041.11038-.384749.24318-.419426.38448" fill="none" stroke-width=".065907"/><path d="m34.506608 165.4189c1.431163-2.55271 1.894443-3.76224 1.805883-4.20596" fill="none" stroke-width=".065907"/><path d="m38.199934 162.16831c-.492492.20491-.69164.42815-.687406.6641" fill="none" stroke-width=".065907"/><path d="m37.430976 162.51784c-.173419.14623-.475538.42117-.734002.65245.287785-1.08443.794623-1.38026 1.223335-1.95735" fill="none" stroke-width=".065907"/><path d="m36.696974 163.17029c-.56275.48922-.849997.89579-1.106832 1.29324.417279-.44227.765847-.86863 1.106832-1.29324z" fill="none" stroke-width=".065907"/><path d="m32.758979 158.94103c2.692341.17852 2.203384 2.38469 2.190361 4.28751" fill="none" stroke-width=".065907"/><path d="m33.807557 156.87883c1.575112.39499 2.21127 1.46536 2.015599 3.13407" fill="none" stroke-width=".065907"/><path d="m37.733904 160.91002c-1.262922 2.03461-1.137695 1.6014-1.351506 1.77093" fill="none" stroke-width=".065907"/><path d="m38.211579 158.00896c-1.922899 2.93351-1.271423 4.62161-1.829181 4.67199" fill="none" stroke-width=".065907"/><path d="m37.640699 158.16042c-.619023.80652-1.02307 1.79219-1.083541 3.06417" fill="none" stroke-width=".065907"/><path d="m36.091128 161.00323c.475107-1.06897.344829-1.91092.08156-2.703" fill="none" stroke-width=".065907"/><path d="m34.133784 155.21275c1.574971.44673 2.067291 1.51541 2.19036 2.79621" fill="none" stroke-width=".065907"/><path d="m36.82513 155.78365c-.160459-.0821-.206168.61035-.244666 1.3515-.227419-.61523-.420144-1.57739-.734002-1.3282" fill="none" stroke-width=".065907"/><path d="m36.580464 157.13515c-.32944-1.7215-.676428-2.49547-1.036926-2.53989" fill="none" stroke-width=".065907"/><path d="m37.023195 157.81089c-.05632.1618-.04813.49563.08155 1.15344.130199-.27127.219296-.78914.25632-1.61947" fill="none" stroke-width=".065907"/><path d="m37.058144 157.36816c.46743-1.71945.43835-1.07259.65245-1.33985.204173-.48032.02877-.67596.01166-.99032.510848-1.08989.417379-.75139.617499-1.10683.02756-.23358-.03281-.33527-.314576-.10486-.344711.64872-.523745 1.22644-.652447 1.78258-.05843.36488-.155577.69105-.337874.93207" fill="none" stroke-width=".065907"/><path d="m35.287219 159.66338c.338853 1.88129.01614 3.05861-.104858 3.67002" fill="none" stroke-width=".065907"/><path d="m21.562547 176.22324c.05703-.45295.415597-1.39461 2.553902-2.55391 1.374669.43887 2.183196 1.33604 2.636285 2.52095.778805.0193 1.490807-.0772 1.96074-.59316-2.061995-.2914-2.614559-1.4004-3.723755-2.20789l-1.746541.0494c-1.164361 1.50552-2.328719 1.85871-3.49308 2.15846.237619.28725.383635.59412 1.812449.62612z" fill="#00923f" stroke-width=".065907"/><path d="m23.193747 174.4767c.685239.12576.851801-.17285 1.070992-.4284l-1.005083-1.12042c.133263.64933.10839 1.16311-.06591 1.54882z" fill="#da251d" stroke-width=".065907"/><path d="m25.169199 172.70576c-.676595-.16608-.860534.12215-1.094464.36428l.937026 1.17793c-.09461-.65608-.03938-1.16749.157438-1.54221z" fill="#f6dc00" stroke-width=".065907"/><path d="m23.259656 172.92788c.726935-.60134 1.192524.0714 1.752105 1.32009-.39899.1923-1.034038.48737-1.752105-1.32009z" fill="#005399" stroke-width=".065907"/><path d="m23.243178 173.43866c-.385409.46009-.763505.92218-1.38405 1.31814-.283815.006-.550893-.004-.790886-.0412-.06885.0237-.243807-.35948-.2142.15653-.652584.0908-.843677-.17741-1.12042-.37897l.03295-.9227c.280759-.16389.582053-.30041 1.186329-.0329 1.137329.26773 2.033748.10375 2.290274-.28834l.07415-.008z" fill="#da251d" stroke-width=".065907"/><path d="m24.989719 173.36945c.386849.44751.999194.97897 1.622048 1.3641.284874.006.552948-.004.793836-.0401.06909.0231.244716-.34965.214999.15224.655015.0883.846821-.17255 1.124595-.3686l-.03303-.89745c-.281817-.15941-.584224-.29219-1.190753-.032-.838693.19132-1.546871.15599-1.965719-.0275-.15126-.0662-.365843-.0495-.434158-.15072l-.131815-.13181z" fill="#da251d" stroke-width=".06512"/><path d="m23.259656 172.92788c.0479-.36134-.362841-.89459-.948819-1.43889-1.516615-.006-1.770279.12265-2.168024.23608-.17964.25471-.371119.46386-.362868 1.44165.900693-.3128 1.271966-.86729 3.479711-.23884z" fill="#f6dc00" stroke-width=".067192"/><path d="m19.766575 173.57047.01338-.40375c1.438496-.6809 1.918607-.67506 3.479714-.23884l-.01647.3213c-.327225.42117-1.115179.49901-2.290274.28834-.427026-.21005-.82146-.19194-1.186352.0329z" fill="#005399" stroke-width=".065907"/><path d="m25.032745 172.94418c-.05023-.35767.380744-.88551.995642-1.42428 1.59146-.006 1.857644.1214 2.275015.23368.188505.25213.389434.45915.380778 1.42701-.945145-.30962-1.334744-.85848-3.651435-.23641z" fill="#f6dc00" stroke-width=".06848"/><path d="m28.698207 173.58025-.01402-.39966c-1.509484-.67398-2.013285-.6682-3.651433-.23641l.01731.31803c.343379.41691 1.170215.49395 2.403302.28542.448097-.20792.861996-.18999 1.244894.0326z" fill="#005399" stroke-width=".06717"/><path d="m20.537242 171.92008c.801122-.0251 1.567723-.44147 2.493281.94371" fill="none" stroke-width=".065907"/><path d="m25.337392 172.87544c.196025-.9565 1.217424-1.14045 2.63309-.95536" fill="none" stroke-width=".065907"/><path d="m22.506232 174.20364c-.287302.20201-.86926.20757-1.526261.16311.03149-.16741-.09469-.17715-.279617-.12816-.107351-.35482-.289644-.28497-.48934-.11651-.03599.0932-.19678.18642.02332.27963l.05825.0466c.201994.0738.333333.077.442732.0583l-.02332-.26797" fill="none" stroke-width=".065907"/><path d="m25.905936 174.22745c.298748.20154.903892.2071 1.587073.16274-.03275-.16703.09846-.17675.290757-.12787.111626-.35401.301182-.28432.508837-.11624.03741.093.204619.18599-.02424.27898l-.06058.0465c-.210042.0737-.346614.0768-.460373.0581l.02421-.26736" fill="none" stroke-width=".06713"/><path d="m20.735312 174.50656.131063.099" fill="none" stroke-width=".065907"/><path d="m27.74742 174.52968-.146856.0584" fill="none" stroke-width=".065907"/><path d="m19.758338 172.86197c-1.028292.7306-1.8385.56706-2.652764.42016.569724-.72035 1.25591-1.33594 2.792817-1.18633z" fill="#00923f" stroke-width=".065907"/><path d="m28.672281 172.91964c1.835817-.0293 1.924658.34737 2.685717 1.35934.124731-.80528.0049-1.29383-.444872-1.82069-.563387-.289-1.304209-.54668-2.609727-.70471.385138.41953.339508.78838.368882 1.16606z" fill="#00923f" stroke-width=".065907"/><path d="m11.98953 171.7745c-.522433-.75815-.262402-1.25549.263628-1.66415.704083.31881 1.443822.28106 2.191415.16476v.13182c.47218.3328-.282428.42024-.609643.59316.270747-.10509.705762-.10068.741455-.36249.137096-.18201.477915.36031.346012.28011l-1.614725.72498-.543733-.79089c.06625.32309-.320898.59135-.164769.87327z" fill="#f6dc00" stroke-width=".065907"/><path d="m12.269636 171.03305c.02324-.15328-.130106-.14353.428396-.79089" fill="#f6dc00" stroke-width=".065907"/><path d="m14.222477 170.51032c-.06187.17602-.379725.1915-.815562.23302-.266505.28875-.562169.11096-.848936.0755.637661-.4083.785683-.34444.815602-.0742" fill="#f6dc00" stroke-width=".065907"/><path d="m12.763939 170.8518.543733.79089-.708502.0824c-.209441-.37092.3854-.58321.164769-.87327z" fill="#005399" stroke-width=".065907"/><path d="m36.53995 171.7745c.525771-.74363.264079-1.23145-.265312-1.63229-1.498665-1.12944-2.512332-.20585-2.205413.16162v.12929c-.475197.32643.284233.41219.613538.5818-.272478-.10308-.71027-.0988-.746193-.35554-.13797-.17853-.480966.3534-.348221.27474l1.62504.71109.547206-.77574c-.06667.3169.322948.58002.165822.85655z" fill="#f6dc00" stroke-width=".065481"/><path d="m36.258056 171.04725c-.02339-.15035.130936-.14079-.431134-.77574" fill="#f6dc00" stroke-width=".065481"/><path d="m34.29274 170.53453c.06226.17265.382152.18784.820771.22856.268208.28321.565761.10883.854358.0741-.641733-.40048-.790701-.33784-.82081-.0727" fill="#f6dc00" stroke-width=".065481"/><path d="m35.760595 170.86947-.547206.77574.713028.0808c.210779-.36382-.387863-.57205-.165822-.85655z" fill="#005399" stroke-width=".065481"/><path d="m13.348666 172.47932c6.205835-3.132 13.119404-4.16606 21.775439-.035" fill="none" stroke-width=".065907"/><path d="m32.090151 154.19545c2.694197 4.15145 1.389397 6.26108-.116749 9.1094z" fill="#da251d" stroke-width=".065559"/><path d="m28.040389 170.04429c.121383-1.19553.05211-2.04191-.37283-2.23697.04221-.26104.214822-.30476.442732-.25632.776359.59081.759089.85094.815562 1.14179.355918-.31213.709503-.62699.701298-1.36394.161639.20899.390854.14767.440484.8047 1.819945-1.62666 1.685833-2.30998 1.770933-3.09913.171755.33004.391492.44418.326221 1.84084 1.169305-2.40949 1.000422-3.65533.768958-4.84676l-.652448-.60584.815562.0466c.676092.39597 1.00939.94776 1.001967 1.65442.50733-1.31152.401341-2.13239.302923-2.95931-.03677-.3061-.601664-.54618-1.11848-.79226-.521018-.0794-.861615-.0534-.955373.11651.207613-.36818.415608-.73583.946002-.65108l.288991-.14118c1.123586.0717 1.127265.66034 1.514613 1.07188l.209715 1.28159c-.180733-1.40039.368675-3.20642-1.351498-3.75157l-1.724331-.20972c.70901-.16683.912887-.67042 2.283573-.39613.596234.20379 1.050302.54975 1.398102 1.00198.284958-1.395-.630173-1.5099-1.211692-1.98065-1.128792-.26579-1.914741-.37019-2.236962-.25632.548384-.42901 1.177621-.75512 2.400076-.32622.376064.16915.801774.27211 1.001975.67575.0736-.31661.221819-.59591-.302924-1.21169l-1.421407-.95537c.388859.0173.511149-.2934 1.654421.65245.758882.64055.929315 1.07489 1.048578 1.49131.158222-.84105.395027-1.57208.862165-1.98065.456878-.68269 1.00398-.91426 1.584513-.97867-.576154.95343-.494303-.0166-1.794231 3.05252.687747-.66378 1.380815-1.29297 2.190359-1.16508-2.672341 2.12114-1.434299 1.70582-2.05055 2.49328l.02332.95537c.403297-.54005.858481-1.06064 2.236962-1.23499-.717597 1.14756-1.481269-.46937-2.143757 3.98459.338449-.23574.347559-.42658 1.980642-.83886-1.446454 1.05214-1.533295 1.59443-1.514612 2.09715.133949-.14197.684924-.19128 1.374804-.20971-1.004754.72264-2.206523.76593-2.656396 2.60979 1.562858-.24466 2.678321-.24841 2.63309.37283-1.16962-.0761-2.232553-.007-2.726295.83885.925085.0558 2.014211-.0418 2.306869.60585-2.263837-.14299-2.944502.35901-3.565162.88546 1.450173.41436 1.931936.93066 2.213663 1.46801h-.302923c-1.577009-.98784-2.876431-.47673-4.147702.18642 1.102756.1379 2.046177.44962 2.469978 1.32819-2.228406-.53677-3.705449-.52711-4.567132-.0699z" fill="#00923f" stroke-width=".065907"/><path d="m33.261069 161.98729c.836613 2.08706.327018 4.17412-1.252238 6.26118" fill="none" stroke-width=".065907"/><path d="m32.124168 165.66161c-.648469 1.08763-.0061 1.63741-2.537424 3.50956" fill="none" stroke-width=".065907"/><path d="m29.174824 169.33594c.55143-.94717.508585-1.22083.41192-1.43348" fill="none" stroke-width=".065907"/><path d="m28.301553 168.26495c.303696.12628.388224.42302.296584.85679" fill="none" stroke-width=".065907"/><path d="m30.492968 169.03935c-.269387-.0911-.353692.44081-.840317.62612" fill="none" stroke-width=".065907"/><path d="m32.931532 169.46775c-.72623.1046-1.4602.2071-1.878355.39544" fill="none" stroke-width=".065907"/><path d="m32.338368 168.92402c.12344-.21851.305999-.41014.906223-.41192.04595-.0995-.01335-.23843.36249-.2142-.05235-.23532.04982-.46696 1.812447-.65907" fill="none" stroke-width=".065907"/><path d="m34.28263 167.27634c.606282-.93935 1.739314-1.10612 2.998775-1.08747" fill="none" stroke-width=".065907"/><path d="m35.106469 166.20535c1.394991-1.57752 2.26563-1.53828 3.147066-1.53234" fill="none" stroke-width=".065907"/><path d="m34.098828 163.12368c.334217 1.2661-.01263 2.26734-.458794 3.22996" fill="none" stroke-width=".065907"/><path d="m31.580435 168.84163c.136065-.14424.328171-.21004.619305-.13719 1.050862-1.19276 2.231369-1.08903 3.367104-1.43306" fill="none" stroke-width=".065907"/><path d="m33.329882 168.92581c-1.255439.45895-1.411424-.11936-2.854466.76895" fill="none" stroke-width=".065907"/><path d="m31.18612 168.49472c.35491-.43464.714279-.85292.978669-1.61946" fill="none" stroke-width=".065907"/><path d="m36.825138 165.78007c-1.437527-.006-2.471762.83606-3.495263 1.70103.545718-.95053 1.645508-1.30646 1.992295-2.16706.570923-.15138 1.086403-.44138 1.596172-.74565" fill="none" stroke-width=".065907"/><path d="m38.584409 162.56444c-.840476.009-1.656626.44302-2.435032 1.53791-.415308.83569-1.050693 1.01116-1.642769 1.31655-.282041.11038-.384749.24318-.419426.38448" fill="none" stroke-width=".065907"/><path d="m34.506608 165.4189c1.431163-2.55271 1.894443-3.76224 1.805883-4.20596" fill="none" stroke-width=".065907"/><path d="m38.199934 162.16831c-.492492.20491-.69164.42815-.687406.6641" fill="none" stroke-width=".065907"/><path d="m37.430976 162.51784c-.173419.14623-.475538.42117-.734002.65245.287785-1.08443.794623-1.38026 1.223335-1.95735" fill="none" stroke-width=".065907"/><path d="m36.696974 163.17029c-.56275.48922-.849997.89579-1.106832 1.29324.417279-.44227.765847-.86863 1.106832-1.29324z" fill="none" stroke-width=".065907"/><path d="m32.758979 158.94103c2.692341.17852 2.203384 2.38469 2.190361 4.28751" fill="none" stroke-width=".065907"/><path d="m33.807557 156.87883c1.575112.39499 2.21127 1.46536 2.015599 3.13407" fill="none" stroke-width=".065907"/><path d="m37.733904 160.91002c-1.262922 2.03461-1.137695 1.6014-1.351506 1.77093" fill="none" stroke-width=".065907"/><path d="m38.211579 158.00896c-1.922899 2.93351-1.271423 4.62161-1.829181 4.67199" fill="none" stroke-width=".065907"/><path d="m37.640699 158.16042c-.619023.80652-1.02307 1.79219-1.083541 3.06417" fill="none" stroke-width=".065907"/><path d="m36.091128 161.00323c.475107-1.06897.344829-1.91092.08156-2.703" fill="none" stroke-width=".065907"/><path d="m34.133784 155.21275c1.574971.44673 2.067291 1.51541 2.19036 2.79621" fill="none" stroke-width=".065907"/><path d="m36.82513 155.78365c-.160459-.0821-.206168.61035-.244666 1.3515-.227419-.61523-.420144-1.57739-.734002-1.3282" fill="none" stroke-width=".065907"/><path d="m36.580464 157.13515c-.32944-1.7215-.676428-2.49547-1.036926-2.53989" fill="none" stroke-width=".065907"/><path d="m37.023195 157.81089c-.05632.1618-.04813.49563.08155 1.15344.130199-.27127.219296-.78914.25632-1.61947" fill="none" stroke-width=".065907"/><path d="m37.058144 157.36816c.46743-1.71945.43835-1.07259.65245-1.33985.204173-.48032.02877-.67596.01166-.99032.510848-1.08989.417379-.75139.617499-1.10683.02756-.23358-.03281-.33527-.314576-.10486-.344711.64872-.523745 1.22644-.652447 1.78258-.05843.36488-.155577.69105-.337874.93207" fill="none" stroke-width=".065907"/><path d="m35.287219 159.66338c.338853 1.88129.01614 3.05861-.104858 3.67002" fill="none" stroke-width=".065907"/><path d="m22.447988 154.59526-.885476-.80391" fill="none" stroke-width=".065907"/><path d="m21.026575 153.26706c.09771-.19964-.730365-.2347-2.027244-.18641-.136274-.0189-.181966.0755-.233023.16312.112719-.0877-.324017-.0142-.279618.23301-.136682.0457-.290675-.1077-.407781.16311-.149546-.11104-.215758.016-.29127.11651-.432785-.0137-.235241.14858-.233021.25632l.326229-.0233c.361114-.142.666977-.37326.885461-.74566z" fill="#a38957" stroke-width=".065907"/><path d="m18.160464 154.71178c.101717-.30833.05588-.46668-.103356-.50978" fill="none" stroke-width=".065907"/><path d="m22.750899 153.03404c.767037-.0901.691319.0213.78061.0932l-.844686.006z" stroke-width=".065907"/><path d="m19.278949 153.05735-.05826-1.78258.186413-.0233.11651 1.79423z" fill="#554839" stroke-width=".065907"/><path d="m19.069231 152.18353c-.07708-.4422-.09686-.84143.0877-1.0874l-.24715-.62612c-.763871-.60332-.76771-.30298-1.005085-.35425-.321611.10573-.340238.59866-.304821.89798.140698-.21597.195245-.56118.453111-.6014.195335.0147.37366-.0812.609643.19772l-.0082.15653c-.237629.16029-.593901.0685-.675548.56021l-.01647.88975c.123864-.3584.158337-.61282.444874-.69202-.239804.45645.07601.54249.271866.7085-.02137-.22482-.285347-.29525.131815-.79913.002.39963.05958.69997.258305.74963z" fill="#00913e" stroke-width=".065907"/><path d="m18.407245 151.52453c.214685-.069.167459-.52004.428392-.60141" fill="none" stroke-width=".065907"/><path d="m19.156933 151.09613.230677.40368.03295-.57669c.09361.11735.109656.32518.321297.30482.08494.35907.02718.61824-.1071.82384.258716-.21703.554898-.40855.304821-.97213.181276-.0148.359586-.009.411921.8568.09253-.23469.199351-.44792.164769-.87327-.109419-.0991-.279279-.44154-.543736-.46135.4134.0755.02075.14198 1.243997.173.04425-.1255-.04708-.22212-.551971-.23067-.247162-.63347-1.301183-.23622-1.169854-.12358.0478-.23962-.07786-.54348.527259-.57669l.494305-.0577c-.04257-.0783-.01136-.26792-.856795-.27186-.465587.33268-.506292.6249-.519018.91446l-.230675.0412z" fill="#00913e" stroke-width=".065907"/><path d="m19.156933 151.09613-.01647-.66731" fill="#00913e" stroke-width=".065907"/><path d="m19.165173 150.70892c.20154-.009.409124-.006.568449-.0989" fill="#00913e" stroke-width=".065907"/><path d="m25.407294 151.6942-.233016-.24467h-1.666074l-2.831153 1.10683h-2.120459c.18928.0433-.502919.75335-.943718.51264-.132719-.10355.600142-.68946.955371-.52429" fill="none" stroke-width=".065907"/><path d="m31.382713 154.32558-.03295 3.01525-14.144666.0506v-2.7729l1.421405-.23302z" fill="#00923f" stroke-width=".065907"/><path d="m23.147034 155.59723c-2.08781-1.67782-2.218506-.99063-3.145736-.79226-.200922-.03-.268435.0733-.349527.16312l-.372822-.0233c-.424483-.33594-.749078-.17244-1.118485-.23301l-.0699.0932-.0932.30293c-.06507.10379-.137108.15874-.233021.0466l-.0466-.34953c-.202217.12176-.252271-.0912-.302923-.30292-.06383-.35874.09491-.52671.466038-.51264.285693-.22692.406694-.0774.885461-.74565l2.260267.0233c.196344-.0302.399503-.0331.535937-.30292l1.188387.0699c-.100972.11354-.201944.24405-.302916.41943.134864.21913.381356.40106.349524.67575.583041.565.563024.42644.815554.60585l.02332.55924c-.970389-.8483-1.063977-.75717-1.188384-.69905.09521.12912-.05375.29893.372822.37282z" fill="#c0a062" stroke-width=".065907"/><path d="m19.15079 154.02437c-.02507.512-.633934.98508-1.095184 1.468-.0319.13617-.01634.23082.198063.15147.343885-.35429.515598-.79467 1.200039-.97868.08544-.24371.170879-.36702.25632-.48933" fill="#c0a062" stroke-width=".065907"/><path d="m29.982187 154.72102.313059.0165c.172336-1.74444.265788-3.33136-.214199-3.77318l-.148291.62612c.434233.47385.04729 2.0675.04943 3.13057z" fill="#6a5038" stroke-width=".065907"/><path d="m28.466322 152.61199c.583748-.64353.132009-1.06283 1.301666-1.86187.831056.35487.802776 1.0857.97213 1.73006.2257-.53674.519132-1.05655.06591-1.76302l-.444874-.42839c.386881-.29562.788571-.38391 1.219282-.0659-.310309-.8326-.807352-.748-1.33462-.4943l-.692026-.0989c-.70835-.6388-1.714417-.22823-1.795969.26363.307035-.15856.955983-.61581 1.202804.31306.273647.67846-.304051 1.01638-.642593 1.44996z" fill="#00923f" stroke-width=".065907"/><path d="m29.800941 152.15064c-.02665-.88868.187133-.81373.280106-1.18631l.72498-.24717c.360494-.0741.594614.14674.675548.72498-.02259-.37334.277067-.65717-.247152-1.16985-.291091-.18739-.58218-.0211-.87327.0165l-.494305.0989.378967-.65907c.104549-.24203.08585-.53797.66068-.57425-.27193-.0388-.51222-.10285-.932067-.0233.01417.29855-.228605.37688-.420639.49868l.07112.70136-.66428-.12467c-1.046685-.0355-1.191966.22946-1.328016.49749-.136839.4665-.0785.8354-.03495 1.21169.09679-.62894.497108-.68118.897117-.734l1.273214-.43144c-.387504.18761-.501227.52733-.329497 1.02563l.04939 1.03397c.07022-.24515.06523-.5464.313059-.65908z" fill="#00923f" stroke-width=".065907"/><path d="m29.310328 153.66319c.60529-.0316 1.090827-.39257 1.922393.19807.08468.0897-.35616.1489-.815561.38447-.439768-.18237-.851335-.36945-1.106832-.58254z" fill="#fff" stroke-width=".065907"/><path d="m26.024791 152.18353c.322026.0294.471888.12502 1.165085.0117.09203-.0898-.113319-.0682-.256319-.0699-.168233-.15535-.111509-.31069-.139809-.46604-.09743-.0303-.196117-.065-.233021.11651-.172012-.0621-.243505.0194-.198063.26797-.429155.003-.23726.0915-.337873.1398z" fill="#6e5137" stroke-width=".065907"/><path d="m27.23648 155.16615.384475-.37283.267973.24467-.151459.12816-.08156-.0815-.431079.64079z" stroke-width=".065907"/><path d="m25.570406 155.28266c-.39977.22373-.829835.39445-.990321 1.03693-.166734.25322-.392668.32883-.652448.30292l.349527-.52429c.25258-.33534.538537-.65283 1.048575-.85051-.210993-.003-.489791.0626-.978668.33787-.216471.2814-.377027.55347-.407781.80391-.231155.0739-.425118.0735-.594193.0233.391803-.47062.300494-.80248 1.735976-1.57286.06337-.49214-.206522-.57696-.407781-.74566l-.314576-.24466-.326221-.13982-.559242.0233c-.306007.15033-.22938-.0395-.279618-.1165-.01798-.17746.125396-.22043.291271-.24467l.6641-.23302c.242452-.14397.386682-.27157.442731-.38448.141364.091.126218.24467.116506.39613.198138-.0161.103201-.074.687403-.035.049.14635-.249265.18853.664095.59419l.291271.13982 1.782585-.23302.256319-.11651c.285573-.0897.537488-.0448.793145-.0148.697694.54269.437439.87714.477827 1.27695.215091.11166.175467.30149.716742.31306.05485.016.155669-.0231.109439.11418.192939.26651.160571.55953.83886.76895.02212.0861.01953.16606-.08155.22137-.09028.0169-.139081.10415-.314576-.0233-.219415-.0767-.253417-.18431-.291267-.29127l-.06991.17476c-.08593.0762-.154846.0674-.209715-.0117l-.361172-.50098c-.954937.0669-1.280964-.3627-1.666075-.74566l-.710704.0117c-.900142.78591-1.373426.34461-2.050549.48935z" fill="#fff" stroke-width=".065907"/><path d="m28.133597 153.61657-.03495.96704c-.629282.0837-1.350801.14687-1.444711.34952l-.244669.035-.05825-1.1185z" fill="none" stroke-width=".065907"/><path d="m25.395646 153.11558c.312125-.0971.632786-.25321.862158.22139.03722.49979-.631799.6906-1.584512.75729l-.640797-.38448c.363085.058.666484.0101.675748-.55925" fill="none" stroke-width=".065907"/><path d="m23.473253 153.73307.01166-.36117" fill="none" stroke-width=".065907"/><path d="m24.149006 153.13888c.01658.0786-.07018.18344-.03369.2099.06712.0487.177816-.10318.05645-.0381-.164371.0881-.02591-.10764-.02277-.17174" fill="none" stroke-width=".065907"/><path d="m27.620955 154.79332-.361177-.33787c-.07201-.10048-.191875-.1897-.01163-.34953.255784-.42864.800761-.135.72235-.88546-.0794-.0272-.08402-.10945-.145635-.42526-.312641-.39751-.529645-.19745-.693225-.16893.292707.31479.365297.58312-.05243 1.03692-.594881.66142-.186687.76617-.09903 1.03693l.25632.46603z" fill="#fff" stroke-width=".065907"/><path d="m25.535455 152.13693c.312894.26566.564503.73049.990321.62914.08738.0913.138207.21909.37283.16312-.04939.37473-.171155.49614-.279622.6641.03158.0713-.005.18056.29127.10485l.09321.035c.524802-.45821.437937-.80316.128176-1.10682l.244654-.0699-.570895-.11651-.151459.23302-.221364-.17477c-.349644.11561-.548546-.27126-.815561-.43108z" fill="#fff" stroke-width=".065907"/><path d="m26.432571 152.4981c-.135559-.14156-.0798-.18747-.104857-.27379.159138.0367.30301.0429.431079.0175l.0466.19806-.151459.23302-.221364-.17477" fill="#efbf8d" stroke-width=".065907"/><path d="m25.61701 152.06702c.128123-.43122-.120113-.27908-.209716-.37282-.08536.15367-.109698.30445.128161.44273z" fill="#efbf8d" stroke-width=".065907"/><path d="m26.910254 153.69814-.559242.15145c-.146525-.0817-.332703-.16613-.256315-.233l.0466-.11651c.196703.10602.34248.11018.477683.0932.02167.17637.146709.15891.29127.10485z" fill="#efbf8d" stroke-width=".065907"/><path d="m20.557461 155.05056h1.054514" fill="none" stroke-width=".065907"/><path d="m20.755183 155.77554h.922701" fill="none" stroke-width=".065907"/><path d="m21.33187 157.09368h1.120422" fill="none" stroke-width=".065907"/><path d="m18.76149 156.26984c.521766.0385 1.043531.0769 1.565297.11534" fill="none" stroke-width=".065907"/><path d="m20.178496 155.28123c-.346013.0385-.692025.0769-1.038038.11534" fill="none" stroke-width=".065907"/><path d="m21.200057 156.63233h1.285189" fill="none" stroke-width=".065907"/><path d="m19.404086 156.99482c-.483319 0-.966638 0-1.449957 0" fill="none" stroke-width=".065907"/><path d="m18.399003 156.59938c-.153784 0-.307568 0-.461352 0" fill="none" stroke-width=".065907"/><path d="m18.382525 156.03917c-.378966-.006-.757932-.011-1.136898-.0165" fill="none" stroke-width=".065907"/><path d="m23.95168 154.68807h.774411" fill="none" stroke-width=".065907"/><path d="m26.011279 155.90735h1.8454" fill="none" stroke-width=".065907"/><path d="m28.169738 156.5829c-.785393-.022-1.570787-.0439-2.35618-.0659" fill="none" stroke-width=".065907"/><path d="m28.499275 155.19885c-.18399 0-.367981 0-.551971 0" fill="none" stroke-width=".065907"/><path d="m28.960624 156.48404c.400936.011.801871.0219 1.202807.0329" fill="none" stroke-width=".065907"/><path d="m30.855455 154.96817c.05492.011.109845.022.164768.033" fill="none" stroke-width=".065907"/><path d="m24.673292 154.09426c-.673097.0491-1.723456.33237-1.200039-.36119" fill="none" stroke-width=".065907"/><path d="m18.451734 154.74672-.489335.57089.09321.17476.751479-.76313z" fill="#735f3e" stroke-width=".065907"/><path d="m17.181795 159.18569h14.167432l.000747-1.84486-14.144666.0506z" fill="#b08e3a" stroke-width=".065907"/><path d="m11.98953 171.77451c.977622-.0132 1.955245-.14769 2.932867-.85679 5.368258-1.83118 10.918347-3.26502 18.618777 0 1.060547.77323 2.022334.7564 2.998776.85679-1.043576.46352-2.087446.92686-2.702195 1.64768l-.922701-.0659c-5.62168-3.12224-14.264361-2.18382-17.531305.0659h-.889748c.146604-.47913-1.552003-1.09005-2.504471-1.64768z" fill="#f6dc00" stroke-width=".065907"/><path d="m14.494001 173.42219c.152231.1449-.06417-.39533-.318126-.44188 4.12148-2.66633 13.293711-4.11553 20.132668 0l-.470788.44188-.922701-.0659c-5.157387-3.01275-14.648821-2.15233-17.531305.0659z" fill="#da251d" stroke-width=".065907"/><path d="m14.175875 172.98031-.827209-.50099c7.129936-3.61091 14.381907-3.80472 21.775438-.035l-.815561.53594c-6.109897-3.71861-15.331551-3.11104-20.132668 0z" fill="#005399" stroke-width=".065907"/><path d="m13.348666 172.47932c6.205834-3.13199 13.119404-4.16606 21.775438-.035" fill="none" stroke-width=".065907"/><path d="m31.36088 164.19556-4.7885-.19806-1.176734.0117-.08156-.15146-.407781.0117-.05825-.24467-.221369-.0117v-.19806l-.198065-.0117-.08155-.40778-.116511-.0233-.02332-.31457c.321867-.0449.664222-.14353.745655.44273.09709.13382.194184.24591.291275.10486l-.0466-.78061c.07226.12581.279156.11697.20971.38448.03903.11164.09301.14856.163112.10486.01544-.33401.0098-.67224-.128156-1.03693-.382186-.27363-.731349-.3491-1.083534-.44273.551247-.01.534592-.22575 1.701025-.0117.01841-.1905.05044-.37827-.233016-.62914-.70605-.22604-1.153124-.0636-1.68937-.035.139094-.18624.197473-.4111 1.02527-.26797.395376.0236 1.022592-.0521 1.02528.13982l-.05826-.33788c-.238053-.40541-.609084-.31214-.967023-.26797-.468872-.0941-.685637-.008-.815554.13981-.02097-.42964.000498-.82291.407773-.88546l-.59419-.035c-.539031.50235-.378154.9172-.46603 1.36315-.104656-.28003-.24646-.48575-.535945-.39613l.02329-.46603c-.122606.001-.278609-.0979-.314573.16311l-.01166.18642c-.687099.0702-.797809-.16306-.908762-.39613-.037-.13981-.07889-.27962-.267972-.41943l.02329.72235-.582541-.0117.47769.47769-.256319-.0816c-.0194.15921-.05143.32475-.01166.45438-.158802.13875-.211427.0121-.314575.0117v-.73401l-.326222.13982c-.285055-.40703-.605734-.35098-.920419-.37283.209414.24468.490974.17673.617499.7806l-.302923.19807c-.12775-.25516-.14781-.54622-.442732-.74566v.62915l-.337879-.0117c.07398-.57122-.07405-.75393-.244669-.89711l-.01166.74565c-.05043-.6344-.581173-.6604-1.083534-.72235.241471.26274.592261.15653.605847 1.18839l-.349527.20971c.09522-.44889.000144-.63613-.151459-.74565l-.186413.37282c-.02289-.38337-.08852-.46774-.139808-.65244-.04589-.11008-.325459-.19425-.594194-.27962l-.01166 4.87005c.534326 1.04016 1.244374 1.72886 2.120452 2.08551.656101-.15713.290139-.39169 2.807857-.40778.258195-.0898.337189-.0104 1.118482-.5942h2.936013c.332972-.14204.641567-.43035.94372-.7573l.489333-.0699.559243.12816 2.982621-.0117.256315-.55924z" fill="#00923f" stroke-width=".065907"/><path d="m19.13914 162.77416-.09321.23301c-.561741.22359-.456846.8916-.489341 1.46801-.124773-.47141-.488247-.81262.02332-1.63112-.576174-.12461-.68071.30102-.90877.58254-.06586-.42558-.05764-.82152.489336-1.00197l.699051.0233c-.405753-.43005-.09262-.35688.0932-.37283l.18642-.23301c.162041-.0887.361003-.24501.163107.32622l.675753.0466c.478691.24692.663054.59195.58254 1.02528-.155342-.38837-.403897-.62138-.745655-.69905h-.605846c.396711.16086.792431.32291.582548 1.21169-.09184-.39802-.140678-.82061-.652457-.97866z" fill="none" stroke-width=".065907"/><path d="m24.615036 165.57036c.34176-.008.683519-.0155 1.025279-.0233" fill="none" stroke-width=".065907"/><path d="m25.593712 164.94122c.287386-.0388.574771-.0777.862157-.11651" fill="none" stroke-width=".065907"/><path d="m26.222856 164.35867c-.217483.0311-.434967.0621-.65245.0932" fill="none" stroke-width=".065907"/><path d="m19.601807 165.99115h1.631203" fill="none" stroke-width=".065907"/><path d="m23.572715 165.33208c-.262517.041-.477976-.33962-.708504-.0659" fill="none" stroke-width=".065907"/><path d="m22.089802 165.8099c.398189-.0165.796378-.0329 1.194567-.0494" fill="none" stroke-width=".065907"/><path d="m19.074549 165.43094c-.0055-.60415-.01098-1.2083-.01647-1.81245" fill="none" stroke-width=".065907"/><path d="m18.794446 163.22305c-.01099.59866-.02197 1.19731-.03296 1.79597" fill="none" stroke-width=".065907"/><path d="m18.25071 164.68948c.06041.31306.120831.62612.181246.93918" fill="none" stroke-width=".065907"/><path d="m18.201281 165.20026c0-.76342 0-1.52685 0-2.29027" fill="none" stroke-width=".065907"/><path d="m18.283663 165.61218c-.722064-.21261-.123347-1.68633-.328382-2.39261 0 0-.000958-.1485-.000958-.1485s-.000189-.0293-.000189-.0293" fill="none" stroke-width=".065907"/><path d="m19.750098 165.29912c.03845-.0659.07689-.13181.115337-.19772" fill="none" stroke-width=".065907"/><path d="m19.881913 165.1014c-.0055-.38446-.01098-.76891-.01647-1.15337" fill="none" stroke-width=".065907"/><path d="m20.145541 163.38782v2.05959" fill="none" stroke-width=".065907"/><path d="m20.145541 165.38151c.08238.006.164768.011.247152.0165" fill="none" stroke-width=".065907"/><path d="m20.755183 165.05197c0-.37897 0-.75793 0-1.1369" fill="none" stroke-width=".065907"/><path d="m21.117673 165.44741c-.01098-.26912-.02197-.53824-.03295-.80736" fill="none" stroke-width=".065907"/><path d="m20.277356 165.01902c.03295-.58767.06591-1.17535.09886-1.76302" fill="none" stroke-width=".065907"/><path d="m20.540984 163.22305c-.06591.011-.131815.0219-.197722.0329" fill="none" stroke-width=".065907"/><path d="m17.64107 165.05197c.03295-.48332.06591-.96664.09886-1.44996" fill="none" stroke-width=".065907"/><path d="m17.542208 164.01393c.02197.32405.04394.64809.06591.97214" fill="none" stroke-width=".065907"/><path d="m17.344486 164.68948c.0055-.19772.01098-.39544.01647-.59316" fill="none" stroke-width=".065907"/><path d="m18.300141 165.67809c-.0055-.20321-.01098-.40643-.01647-.60964" fill="none" stroke-width=".065907"/><path d="m19.535901 165.36503c0-.75244 0-1.50488 0-2.25732" fill="none" stroke-width=".065907"/><path d="m19.931344 163.78326c-.01098-.37897-.02197-.75793-.03295-1.1369" fill="none" stroke-width=".065907"/><path d="m19.733622 163.78326c-.01098-.0879-.02197-.17575-.03295-.26363" fill="none" stroke-width=".065907"/><path d="m19.898391 163.73383c-.04943.0165-.09886.0329-.148293.0494" fill="none" stroke-width=".065907"/><path d="m19.552376 165.44741c-.356997-.005-.713995-.011-1.070992-.0165" fill="none" stroke-width=".065907"/><path d="m18.926258 165.54628c0-.0879 0-.17575 0-.26363" fill="none" stroke-width=".065907"/><path d="m20.985858 164.09632c-.01648-.22518-.03295-.45037-.04943-.67555" fill="none" stroke-width=".065907"/><path d="m20.936427 163.42077c.08788-.20871.175753-.41741.26363-.62612" fill="none" stroke-width=".065907"/><path d="m21.23301 165.06845c.0055-.20871.01098-.41741.01647-.62612" fill="none" stroke-width=".065907"/><path d="m21.33187 164.42585c0-.30757 0-.61513 0-.9227" fill="none" stroke-width=".065907"/><path d="m21.463685 163.73383c-.0055-.25814-.01098-.51627-.01647-.77441" fill="none" stroke-width=".065907"/><path d="m21.727313 163.0418c-.01098.714-.02197 1.42799-.03295 2.14199" fill="none" stroke-width=".065907"/><path d="m21.974465 165.00254c-.01648-.59866-.03295-1.19731-.04943-1.79597" fill="none" stroke-width=".065907"/><path d="m22.172187 163.75031c.01098.4229.02197.84581.03295 1.26871" fill="none" stroke-width=".065907"/><path d="m22.287524 164.87073c.03845-.45586.07689-.91172.115337-1.36758" fill="none" stroke-width=".065907"/><path d="m22.501723 163.8986c.01098.33503.02197.67005.03295 1.00508" fill="none" stroke-width=".065907"/><path d="m22.518199 164.95311c-.02746-.011-.05492-.0219-.08238-.0329" fill="none" stroke-width=".065907"/><path d="m23.061935 165.08492c.03295-.4943.06591-.98861.09886-1.48291" fill="none" stroke-width=".065907"/><path d="m22.880689 164.70596c.01098-.47233.02197-.94467.03295-1.417" fill="none" stroke-width=".065907"/><path d="m23.523284 164.77187c-.0055-.36798-.01098-.73597-.01647-1.10395" fill="none" stroke-width=".065907"/><path d="m23.786912 164.96959c-.03295-.46135-.06591-.9227-.09886-1.38405" fill="none" stroke-width=".065907"/><path d="m23.622144 164.90368c-.01648-.38995-.03295-.7799-.04943-1.16985" fill="none" stroke-width=".065907"/><path d="m24.841428 164.44233c.0055-.23617.01098-.47233.01647-.7085" fill="none" stroke-width=".065907"/><path d="m24.857904 164.80482c-.17026.011-.340521.0219-.510781.0329" fill="none" stroke-width=".065907"/><path d="m24.775519 164.67301c-.225183-.006-.450365-.011-.675548-.0165" fill="none" stroke-width=".065907"/><path d="m24.099971 164.62358c-.0055-.52177-.01098-1.04353-.01647-1.5653" fill="none" stroke-width=".065907"/><path d="m24.478938 164.59062c.01098-.26363.02197-.52725.03295-.79088" fill="none" stroke-width=".065907"/><path d="m24.347123 163.86564c.0055.25265.01098.50529.01647.75794" fill="none" stroke-width=".065907"/><path d="m20.738705 163.78326c.01099-.32404.02197-.64809.03296-.97213" fill="none" stroke-width=".065907"/><path d="m20.639846 163.53611c.0055-.22518.01098-.45037.01647-.67555" fill="none" stroke-width=".065907"/><path d="m21.265963 162.39921c-.0079-.49383.09047-.94781-.247152-1.5653l-.346012-.57669c-.246784-.37046-.571224-.39147-.904557-.37247.232289.21557.565014.26167.617499.7806.151451.37432.324699.73774.649548 1.02536.0585.089.128469.26982.230674.7085z" fill="none" stroke-width=".065907"/><path d="m18.952728 162.07509c.05893-.46224.195332-.82766.09315-1.4913-.246313-.8534-.718956-.49969-1.083534-.72235.383756.28043.699505.60414.605847 1.18839.249334.44613.136563.7112.04501.98689z" fill="none" stroke-width=".065907"/><path d="m17.591639 161.31174c.195258-.58978-.244031-.71154-.444847-1.14289l.0494.86279c.11788.0392.209524-.0235.395443.2801z" fill="none" stroke-width=".065907"/><path d="m17.360964 163.56906-.197721-.69202c.07679-.13562.07427-.34948.280105-.31306l.181244.0329c-.269758.20279-.246689.6008-.263628.97213z" fill="none" stroke-width=".065907"/><path d="m17.904698 162.38273c-.48129-.0542-.499596.0458-.46135.16477l.346012.0659z" fill="none" stroke-width=".065907"/><path d="m18.563769 162.34978-.01647-.54374c-.02922-.24913-.227359-.16041-.428396-.0659l-.03296.54373c.159274-.0618.318544-.12909.477818.0659z" fill="none" stroke-width=".065907"/><path d="m18.085941 162.00376c-.348662-.0335-.494245.18681-.675546.36249l-.03296-.32953c.06863-.11247.261876-.14222.593164-.29658z" fill="none" stroke-width=".065907"/><path d="m17.179718 161.31174.181246.65907-.197721-.0494c.36105-.24282.147575-.55352.01647-.60964z" fill="none" stroke-width=".065907"/><path d="m17.871745 161.59185-.03295-.44488.131813.41192.164768-.24715-.08238.29658z" fill="none" stroke-width=".065907"/><path d="m20.310309 162.03672c.09707-.53055-.32783-.66894-.906223-.69203l.115337.24716-.477827-.0494.03295-.39545c.874351-.0626 1.621528.0232 1.713587.87327z" fill="none" stroke-width=".065907"/><path d="m19.766575 162.23444c-.264111-.26557-.06144-.42741.04943-.60964-.06707-.0931-.152649-.0936-.26363.0329l-.164766.16477-.08238.32954z" fill="none" stroke-width=".065907"/><path d="m22.781829 162.7617c.06473-.76502-.460953-.87016-1.136901-.80737l-.08238.31306.60964-.0329c.104601.0543.254991-.006.280105.24715z" fill="none" stroke-width=".065907"/><path d="m22.732398 163.38782c-.323092-.40995-.754059-.86612-.790886-1.15338-.380323-.001-.439665.14023-.428396.31306.276942.34485.678729.62727 1.219282.84032z" fill="none" stroke-width=".065907"/><path d="m21.216532 162.38273-.527255.41192-.230678-.41192c.183583-.0434-.0043.17325.57669-.14829" fill="none" stroke-width=".065907"/><path d="m23.061935 161.32822c-.06175-.42157-.11041-.85623-.642596-.80737-.03711-.12931-.256376-.14934-.51078-.14829-.0928.22858-.195988.39486-.247153.87327.08905-.0702.142898-.17565.313059-.16477l.741455.0165c.249514-.0305.313552.0875.346015.23069z" fill="none" stroke-width=".065907"/><path d="m22.435815 161.11402c-.0055-.18674-.01098-.37347-.01647-.56021" fill="none" stroke-width=".065907"/><path d="m22.93012 161.42708c-.78175-.15142-1.304992-.0185-1.647679.31306.262906-.22928.37899-.50995 1.48291-.44488.290785.10517.564309.25636.72498.7085.111185-1.32688-.269806-1.6284-.675549-1.87835" fill="none" stroke-width=".065907"/><path d="m25.18744 162.43216c-.189411-.45595-.56872-.65871-.939176-.87327l.11044-.12457c.405848.0357.759116.20311 1.083534.44273.07749.31088.214563.56216.128155 1.03693-.06732.0168-.126683.002-.163106-.10486.122314.008-.09056-.32604-.219847-.37696z" fill="none" stroke-width=".065907"/><path d="m23.276132 162.39921c-.284993-.2859-.253749-.72992-1.614726-.47783l-.164768.52726-.230675-.0824.04943-.59316c.605941-.5572 2.232299-.72923 1.960738.62612z" fill="none" stroke-width=".065907"/><path d="m21.710837 162.89351-.26363.0494" fill="none" stroke-width=".065907"/><path d="m23.523284 161.97081c-.05156.51459-.08835 1.0218.03295 1.44996-.468142-.24068-.464772-.83501-.60964-1.31814l.346012.34601.247153-.4284z" fill="none" stroke-width=".065907"/><path d="m24.973241 162.5475c-.371403-.0294-.742504-.0568-1.070992.2142" fill="none" stroke-width=".065907"/><path d="m24.281217 162.46511c-.152119-.12033-.37019-.0428-.609642.0989-.134431-.32226.05843-.5067.757932-.47783" fill="none" stroke-width=".065907"/><path d="m24.495414 160.9822c.08139-.0186.110004-.0549.313059-.0329-.157014.11405-.41422.18801-.790886.2142l.131815-.39545-.428396.0989.395443-.16477-.03295-.56021" fill="none" stroke-width=".065907"/><path d="m24.16588 161.98729c-.07601-.003-.251995.0436-.411921.0824.03067-.11457-.07112-.29096.263628-.26363" fill="none" stroke-width=".065907"/><path d="m22.93012 163.20657c-.0055-.32404-.01098-.64809-.01647-.97213" fill="none" stroke-width=".065907"/><path d="m22.155711 162.51455c.07689.033.153783.0659.230675.0989" fill="none" stroke-width=".065907"/><path d="m22.880689 163.23952c-.164768-.2087-.329535-.41741-.494303-.62611" fill="none" stroke-width=".065907"/><path d="m22.979551 163.12419c.04943-.10985.09886-.21969.14829-.32954" fill="none" stroke-width=".065907"/><path d="m24.264739 161.44355c-.290451.005-.649705-.0902-.675549.29659" fill="none" stroke-width=".065907"/><path d="m23.764523 161.57412c.151462-.0233.302923-.0466.454385-.0699" fill="none" stroke-width=".065907"/><path d="m23.578113 161.41101c.0078-.15535.01553-.31069.02329-.46604" fill="none" stroke-width=".065907"/><path d="m23.112076 160.51389c.05437-.066.108743-.13204.163114-.19806" fill="none" stroke-width=".065907"/><path d="m23.64802 162.91397c-.01165.23302-.02331.46603-.03496.69905" fill="none" stroke-width=".065907"/><path d="m20.409079 162.16831c-.04272.0388-.08544.0777-.128159.11651" fill="none" stroke-width=".065907"/><path d="m21.073179 161.94695c-.100974-.004-.201949-.008-.302923-.0117" fill="none" stroke-width=".065907"/><path d="m20.548892 161.11974c-.09321-.0194-.186415-.0389-.279622-.0583" fill="none" stroke-width=".065907"/><path d="m19.978 160.96827c.0078-.11651.01553-.23301.02329-.34952" fill="none" stroke-width=".065907"/><path d="m19.640126 160.87507c.0039-.0505.0078-.10097.01166-.15146" fill="none" stroke-width=".065907"/><path d="m18.941075 163.14698c.07379-.004.147575-.008.221363-.0117" fill="none" stroke-width=".065907"/><path d="m19.185741 162.86736c-.0078.0893-.01553.17865-.02329.26797" fill="none" stroke-width=".065907"/><path d="m21.900393 160.6304c.05437.0388.108738.0777.163107.11651" fill="none" stroke-width=".065907"/><path d="m22.296521 160.51389c-.08932.0777-.178648.15535-.267972.23302" fill="none" stroke-width=".065907"/><path d="m25.162625 161.65568c.157413-.0281.311066-.0581.710704.035-.06602-.18516-.132044-.29641-.198065-.32623-.548701-.11762-.860073.002-1.234988.0583.252065.0551.500891.11669.722349.23302z" fill="#00923f" stroke-width=".065907"/><path d="m26.921907 164.87131c-.183056-.30483-.762891-.92625-.457851-1.03748.258728-.0943.160058-.74109-.134299-.25618-.140704.23179.100296-.047-.326437-.25787-.29488-.1457-.213902-.4591.103068-.54562.205409-.0561.150642-.34336.44274-.27961.208343.0455.15336-.0901.444294-.31101.349317-.2652-.56605-.35543-.192215-.32342.175038.015-.155533-.10286.260547-.32094.220788-.11572.482879-.48602.606838-.30317.244732.361.104279-.3691-.01881-.51389-.269713-.31726.230094-.081.450594-.0548.208849.0248.05027-.35727.429397-.33986.246475.0113.259836-.0715.650743-.0775.287402-.004.392145-.32119.534335-.18858.201019.18747-.39447.9124.09607.72999.209355-.0778.393586-1.13712.412727-.66156.02086.51835.476261-.40408.626907-.29125.192222.14397.04485 1.03457.283552.65328.146487-.23399.133233-.0302.14526.20844.02171.43076.123467.8686.05174 1.29641-.07133.42544-.0058.86033.01308 1.29007.01677.38163.09298.80084.01605 1.19898-.04161.21533-.162258.28856-.453715.52536-.266783.21675-.545054.2695-.792259.0466-.355264-.32033-.77401.50019-1.023056.0457-.220545-.40247-.582333-.18537-.975845-.25568-.388729-.0695-.850317.3109-1.170039.0916 0 0-.02339-.0681-.02339-.0681s-.000025-.00003-.000025-.00003z" fill="#075538" stroke-width=".065907"/><path d="m21.710837 167.06214c.640354.13398.889945-.26803 1.202805-.47783 1.234868-.19721 2.064633-.16293 3.015253-.19772.240325-.0871.46966-.22551.708502-.36249.552205-.0485.294793-.47062.329537-.75793-.251863.26048-.511966.49624-.807364.62612h-3.015251c-.350987.2997-.709473.5544-1.103948.59316-1.874028.001-2.322674.21218-2.735145.4284.616821.18822 1.437495.22354 2.405611.14829z" fill="#84c225" stroke-width=".065907"/><path d="m24.158656 168.17333c.351788-1.80457 5.668528.0173 6.934197-2.97581l-2.982622.0117-.559242-.12816-.489333.0699c-.09067.32066.137539.82733-.424259.87317l-.708502.36249c-1.005085-.005-2.010168-.0116-3.015253.19772-.365019.37179-.736695.70419-1.202805.47783l.923556.25585c.956339.0759 1.203136.48298 1.524263.85534z" fill="#28166f" stroke-width=".065907"/></g><path d="m24.099971 166.61727c1.456348.12849 1.620133-.005 1.59825-.18125.371763.0359.599688.008.576686-.13181.324044-.11378.648088-.16061.972132-.0989-.06012-.49386.188735-.52426.378966-.6426" fill="none" stroke="#fff" stroke-width=".065907"/><path d="m24.610751 167.29281v-.14829h.214199l.03295-.13181c.716709.12211 1.146548-.26569 1.730062-.16477l1.367575.0824c.157049-.11979.235786-.39621.510781-.28011.331442-.13465.435762-.39908.461349-.7085" fill="none" stroke="#fff" stroke-width=".065907"/><path d="m26.093664 166.6667c.525404-.0732 1.058554-.14454 1.927784-.13182.216324-.18758.229964-.2941.230674-.39544.06082-.34241.324383-.45312.692027-.44487" fill="none" stroke="#fff" stroke-width=".065907"/><path d="m29.96571 165.79343c-.233826.18205-.359551.1479-.510781.16476.0093.53634-.44191.55462-.757933.72498" fill="none" stroke="#fff" stroke-width=".065907"/></g></svg>