<svg height="600.01532" width="900.01172" xmlns="http://www.w3.org/2000/svg"><path d="m0 .01538h900v400h-900z" fill="#cf142b"/><path d="m0 395.78455h900v204.23077h-900z" fill="#008033"/><g fill-rule="evenodd" transform="translate(1320.4492 974.6875)"><path d="m-847.8125-974.6875h-44.09375v270.84375h44.09375z" fill="#fc0"/><path d="m-861.9375-974.6875h-15.84375v294.09375h15.84375z" fill="#fff"/><path d="m-741.3125-974.6875h-45.75l-76.4375 278.03125 42.53125 11.6875z" fill="#fc0"/><path d="m-616.34375-974.6875h-51.0625l-166.75 286.21875 38.125 22.1875z" fill="#fc0"/><path d="m-445.125-974.6875h-62.5l-296.90625 295.40625 31.125 31.28125z" fill="#fc0"/><path d="m-420.4375-813.875v-50.8125l-354.5 202.78125 21.875 38.28125z" fill="#fc0"/><path d="m-420.4375-679.78125v-45.75l-335.125 92.15625 11.6875 42.53125z" fill="#fc0"/><path d="m-745.21875-574.6875h324.78125v-25.71875h-324.78125z" fill="#fc0"/><path d="m-755.96875-974.6875h-16.4375l-83.625 304.1875 15.28125 4.21875z" fill="#fff"/><path d="m-632.71875-974.6875h-18.34375l-182.59375 313.40625 13.71875 8z" fill="#fff"/><path d="m-465.1875-974.6875h-22.4375l-323.40625 321.84375 11.15625 11.21875z" fill="#fff"/><path d="m-420.4375-830.15625v-18.25l-367.6875 210.3125 7.875 13.75z" fill="#fff"/><path d="m-420.4375-694.4375v-16.4375l-353.78125 97.28125 4.1875 15.28125z" fill="#fff"/><path d="m-768.46875-574.6875h348.03125v-11.59375h-348.03125z" fill="#fff"/><path d="m-999.5742-974.6875h45.75l76.4375 278.03125-42.53125 11.6875z" fill="#fc0"/><path d="m-1124.543-974.6875h51.0625l166.75005 286.21875-38.125 22.1875z" fill="#fc0"/><path d="m-1295.7617-974.6875h62.5l296.90625 295.40625-31.125 31.28125z" fill="#fc0"/><path d="m-1320.4492-813.875v-50.8125l354.5 202.78125-21.875 38.28125z" fill="#fc0"/><path d="m-1320.4492-679.78125v-45.75l335.125 92.15625-11.6875 42.53125z" fill="#fc0"/><path d="m-995.66795-574.6875h-324.78125v-25.71875h324.78125z" fill="#fc0"/><g fill="#fff"><path d="m-984.91795-974.6875h16.4375l83.625 304.1875-15.28125 4.21875z"/><path d="m-1108.168-974.6875h18.3438l182.59375 313.40625-13.71875 8z"/><path d="m-1275.6992-974.6875h22.4375l323.40625 321.84375-11.15625 11.21875z"/><path d="m-1320.4492-830.15625v-18.25l367.6875 210.3125-7.875 13.75z"/><path d="m-1320.4492-694.4375v-16.4375l353.78125 97.28125-4.1875 15.28125z"/><path d="m-972.41795-574.6875h-348.03125v-11.59375h348.03125z"/><path d="m189.10072 363.73413c-1.80563-91.87851 59.32369-168.10255 136.53615-170.25115s141.26928 70.59187 143.07491 162.47039c.0625 3.18174.0483 6.36496-.0426 9.54574" transform="matrix(.93633328 0 0 .7892358 -1177.1576 -861.75887)"/></g></g></svg>