<svg clip-rule="evenodd" fill-rule="evenodd" height="143.51mm" image-rendering="optimizeQuality" shape-rendering="geometricPrecision" text-rendering="geometricPrecision" viewBox="0 0 21590 14351" width="215.9mm" xmlns="http://www.w3.org/2000/svg"><path d="m-733-664h23056v15679h-23056z" fill="#72c3f0"/><path d="m-2806 6783h27082v1402h-27082z" fill="#2b75b6"/><path d="m-1800 8715h25071v1402h-25071z" fill="#008e42"/><path d="m-2118 10646h25706v1402h-25706z"/><path d="m9268 9261-781-740 1375-90-334-881 1210 436 489-1144 507 1113 1202-504-363 980 1375 90-781 740 1164 708h-6227z" fill="#ff0"/><g fill="#fff"><path d="m10635 149 120 371 390-1-316 229 121 370-315-229-315 229 121-370-316-229 390 1z"/><path d="m12004 546 86 265 278-1-226 163 87 264-225-163-224 163 86-264-225-163 278 1z"/><path d="m9424 546 86 265 278-1-225 163 86 264-225-163-224 163 86-264-225-163 278 1z"/><path d="m13122 1262 85 264h278l-225 163 87 264-225-164-225 164 87-264-225-163h278z"/><path d="m8432 1262 86 264h278l-226 163 87 264-225-164-224 164 86-264-225-163h278z"/><path d="m7646 2128 85 265 278-1-225 163 86 265-224-164-225 164 87-265-226-163 278 1z"/><path d="m13863 2128 86 265 278-1-225 163 86 265-225-164-224 164 86-265-225-163 278 1z"/><path d="m7050 3333 86 265 278-1-225 163 86 264-225-163-224 163 86-264-225-163 278 1z"/><path d="m14612 4752 86 265h278l-225 163 86 264-225-164-224 164 86-264-225-163h278z"/><path d="m6859 4752 85 265h278l-225 163 86 264-224-164-225 164 86-264-225-163h278z"/><path d="m14386 3333 86 265 278-1-226 163 87 264-225-163-225 163 87-264-225-163 278 1z"/><path d="m6859 5927 85 264h278l-225 163 86 264-224-164-225 164 86-264-225-163h278z"/><path d="m14584 5927 86 264h278l-225 163 86 264-225-164-224 164 86-264-225-163h278z"/></g><g stroke="#000"><path d="m10898 7612s-316-1100-356-1384c-39-284-66-661 139-946 205-284 60-1032-99-1389s-278-642-291-979 54-680 54-680-78-149-68-166c33-56 102-106 127-78 19 20 53 95 97 114 14 6 5-55 19-74 13-18 22-3 25 15 3 17 1 56-12 88-14 37-40 68-46 95-19 85-21 160-20 180 7 99 36 499 174 771 139 271 272 443 364 449 93 7 152-79 159-238 7-158 66-449 318-430 251 20 224 272 198 351s-212 298-152 304c59 7 370-6 483-119 95-95 402-336 496-574 18-44 21-122 27-163 2-17-40-64-47-80-2-5-14-19-25-40s-20-49-33-69c-14-23-31-37-31-38 19-35 64-10 74 12 15 35 44 65 49 56 12-22 14-94 14-156 0-44-8-93 2-106 4-4 13-6 20-2 14 8 26 150 27 161 0 14 7 21 8 7 5-51 7-144 16-178 0-1 2-8 8-10 9-3 25-2 26 10 4 54-2 174-3 181 0 5 3 6 4 6 3 1 6-3 7-7 7-32 14-135 27-156 2-3 13-6 16-6 37 4-7 138-5 177 0 8 5 14 6 14 26-4 24-124 55-125 34-2-50 327-56 367-9 56-2 118-14 170-33 157-141 340-228 457-86 113-207 256-388 398-142 111-281 194-385 296-112 108-126 240-137 278-33 119-112 549 33 880 146 330 276 575 53 1283s-182 803-182 803" fill="none" stroke-width="30"/><path d="m10594 1751s-249 122-282-43c-33-166 96-258 63-384s99 66 106 106 33-69 33-69 40 109 27 132c-14 23 44-43 34-80-10-36 71 38 19 338z" fill="none" stroke-width="30"/><ellipse cx="10446" cy="1772" rx="268" ry="21" stroke-width="20"/><path d="m10178 1772s5 92 38 112c23 14 162 63 162 63s25 504 25 504c1 12 28 25 29 35l30-30 56-509s62-36 154-60c0 0 41-24 41-115 0 12-120 21-267 21-148 0-268-9-268-21z" stroke-width="20"/><path d="m10277 2068 99 63s30-33-25-70c-54-36-46-30-46-30" fill="none" stroke-width="20"/><path d="m10327 2037 99 62s30-33-25-69-46-30-46-30" fill="none" stroke-width="20"/><path d="m11217 8325c881 0 1609 653 1729 1501h-3458c120-848 849-1501 1729-1501z" fill="none" stroke-width="150"/></g><path d="m11612 9430c-34-14-86-28-133-66-74-61-161-147-251-234 147-141 283-267 352-275 21 1 39-15 40-36s-15-39-36-40c-101 8-257 147-412 297-156-150-312-289-413-297-21 1-37 19-36 40s19 37 40 36c69 8 205 134 352 275-90 87-177 173-251 234-47 38-99 52-133 66-64 7-54 126 37 116 44-15 81-76 141-124 82-64 173-151 263-237 89 86 181 173 262 237 60 48 97 109 142 124 90 10 101-109 36-116z"/></svg>