<svg height="600" width="900" xmlns="http://www.w3.org/2000/svg"><path d="m.00001.00001h900v600h-900z" fill="#00247d"/><path d="m-.00021 350.00001h900v250h-900z" fill="#fff"/><path d="m-.00021 400.00001h900v200h-900z" fill="#008033"/><g fill="none" stroke="#fff" stroke-width="14.999821" transform="translate(377.31803 -315.21781)"><path d="m-217.09244 382.48138v185.00014"/><path d="m-181.69815 389.52087-70.78846 170.92117"/><path d="m-151.68497 409.57402-130.81486 130.81485"/><path d="m-131.63183 439.5872-170.92117 70.78845"/><path d="m-124.59232 474.98147h-185.00014"/><path d="m-302.55298 439.5872 170.92117 70.78845"/><path d="m-282.49983 409.57402 130.81485 130.81486"/><path d="m-252.48661 389.52087 70.78846 170.92117"/></g><path d="m227.72563 159.78828a67.499997 67.499997 0 0 1 -134.999985 0 67.499997 67.499997 0 1 1 134.999985 0z" fill="#fff"/><path d="m217.72564 159.77436a57.500001 57.500001 0 0 1 -115 0 57.500001 57.500001 0 1 1 115 0z" fill="#fc0"/></svg>