<svg height="601" width="901" xmlns="http://www.w3.org/2000/svg"><g transform="translate(-1116.28125 827.71875)"><path d="m1116.7773 227.21841h900v600h-900z" fill="#fff" transform="scale(1 -1)"/><path d="m1116.7773 527.21844h900v300h-900z" fill="#cf142b" transform="scale(1 -1)"/><path d="m1506.4887-527.21843-389.7114-300v600" fill="#008033"/><path d="m-132.58252 364.56212-109.45818-87.47345-112.46755 83.56881 49.36777-131.13169-114.23305-81.13882 139.96913 6.42961 41.86764-133.715356 37.13792 135.105416 140.108675-1.50182-117.016635 77.07012z" fill="#f0f8f0" fill-rule="evenodd" transform="matrix(.63586769 0 0 .63586769 1412.3585 -667.09244)"/><g fill="#e6e6e6" stroke="#1a1a1a" stroke-width=".460018" transform="matrix(.43476562 0 0 .43476562 1181.701145303 -658.86178157333)"><path d="m103.17784 234.50237c19.84819 14.56852 41.12711 15.54033 55.8503 24.69091l13.82657 10.5988 14.15301-.0238 16.27698-15.58986c2.88447-2.06108 5.71797-5.4581 10.1323-8.41583 13.52444-6.3443 27.17571-16.81585 40.79645-26.29424.89004 4.46513-7.36165 9.13486-14.7136 12.91114l17.99876-7.35862c-2.63181 5.32329-7.33545 6.49833-11.46152 8.82977l13.29212-4.13939c-2.27754 3.85781-6.9758 6.2808-11.46153 8.82977 3.37398-1.17495 6.99165-3.02014 9.07032-.6328l-9.05379 5.44974c4.94777-1.09527 11.12147-1.5737-3.9711 6.05876 14.75199-1.81107 9.78485 2.66459-4.58369 4.15537 18.28147-2.08002 10.63867 4.8658 1.23992 5.59785 5.65253.59367-1.97948 5.89298-6.03647 6.31909-.45188 3.98386-1.20695 4.62043-3.61159 5.07005-.26399 1.44592-1.76496 2.15864-3.37744 2.80529.0608 2.05379-1.13657 1.98113-2.04822 2.39134-.35845 1.38991-.28114 3.03813-1.92288 3.66742l-2.29892-.16083c-.41651 1.75611-1.03353 3.39336-3.25208 4.08136-1.07224 1.85772-1.77292 1.67925-2.28688.47741-.009 2.64695-1.94836 3.02661-3.85428 3.44533-.33072 2.68424-1.81265 2.60468-2.78729 2.80308-1.79703 5.946-2.80611.87386-4.11298-.0343-1.80976 4.50654-3.59487 4.72598-5.33338-3.16119-1.56128 3.67811-3.49051 6.23384-6.88022 4.33448l5.9914 8.44981c7.82467.63186 15.25507-.80348 21.37798.56176 20.29067 5.26571 2.51534 10.93313-3.36091 7.62222 16.33039 5.005 2.98586 14.50024-3.46973 11.16308 8.02061 3.78016 5.01697 14.35289-5.04962 9.02485 9.36437 8.84656.0948 11.51672-6.01933 8.4501 5.11566 4.67803-4.08701 11.69468-7.11438 6.59925 3.68192 5.25557-6.60978 8.0468-9.91468 1.33412.71739 8.1083-13.44632 6.01099-9.44635-3.19544-.94096 9.42133-16.99545-.0852-7.03863-6.57548-6.53937 9.34424-19.98282-.72505-4.86505-7.69074-17.97678 6.27632-17.75453-6.81222-5.83477-8.2655-15.53366 5.1085-14.96215-7.13235-3.17632-9.09338l17.72525-5.54204s-3.25253-11.7142-3.61202-10.7255c-.35953.9887-6.28646 5.76186-6.89003 6.12743-1.21284.73458-4.13701-.48456-3.75347-1.02296-1.18112.007-2.06174-.81312-2.90912-1.72429-.87076.43252-1.6972 1.3165-2.90913-1.72428-1.2078-.25137-2.69432 1.02472-3.39397-2.01165-2.17752 2.15169-3.41545.12168-4.72316-1.59773-.96337.19339-1.80697-.77147-2.54959-2.71297-.93504 1.3281-2.20879-.79271-3.35729-1.63791-.68052.0475-1.42912-5.96585-.98623-5.3917.89211 1.15647-7.19396-2.27349-5.58406-5.71334-5.28611.60271-9.51065.6728-7.27279-4.31071-5.33768-1.09454-6.85284-2.01968-5.01056-4.52363-3.22616-1.26056-6.69264-2.51738-4.48904-3.86249-2.29155-2.01904-9.29304-4.36754-3.77001-5.8399-8.65972-3.30783-9.01561-5.17757-1.47107-5.67909-9.24987-3.61795-13.513054-7.35772 2.76724-4.36872-21.523651-10.26569-11.89134-7.61725 4.34712-2.23054-15.20107-6.16237-12.41995-8.3341-13.82655-10.59879z" fill-rule="evenodd" stroke-width=".460018"/><g stroke-width="2.042252" transform="matrix(.2305533 0 0 .2200693 94.822076 167.40822)"><path d="m67.419248 384.11311 99.985222 19.81281"/><path d="m71.122414 408.87912 91.413786 9.23891"/><path d="m85.935039 433.64514 74.270931-1.33497"/><path d="m108.15398 453.45796 67.4472-6.28818"/><path d="m130.37291 473.27075 53.79969-16.19456"/><path d="m159.99816 493.08356 35.2839-22.48274"/><path d="m185.92027 517.84958 28.46014-33.05664"/><path d="m204.43606 547.5688 20.47127-39.34484"/><path d="m219.24868 562.42841 20.47125-38.67737"/><path d="m237.76447 572.33482 21.05381-42.96307"/><path d="m252.57708 577.288 21.05383-42.29555"/><path d="m78.528707 364.30029 85.172623 24.76602"/><path d="m100.74766 354.39389 59.2505 29.71922"/></g><g stroke-width="2.042252" transform="matrix(.2305533 0 0 .2200693 94.822074 167.40822)"><path d="m630.29908 294.95547-77.76628 54.48521"/><path d="m654.1169 302.30698c-42.25098 27.64311-59.25052 36.32349-88.87577 54.48522"/><path d="m661.52321 324.51811-79.36515 34.82898"/><path d="m667.33067 344.48748-74.06315 24.76602"/><path d="m648.30946 371.65181-51.84421 9.90641"/><path d="m632.71972 416.62592-59.88318-.47741"/><path d="m608.08015 443.55155-38.98704-11.24138"/><path d="m585.86121 468.31754-32.16329-20.48029"/><path d="m567.92798 488.13036-32.74585-26.10097"/><path d="m545.12648 507.94317c3.70315 0-24.75698-22.48274-24.75698-22.48274"/><path d="m522.90755 527.75598-21.6364-31.72169"/><path d="m508.0949 542.6156-22.21894-31.7217"/><path d="m493.2823 557.47521-22.21896-37.34237"/><path d="m474.76651 553.1895-6.82377-13.91135"/><path d="m626.17313 391.93438-55.12454 7.03834"/></g><path d="m193.55996 301.09075c14.01368 13.85112 3.76148 10.08633-1.06094 8.64292 10.20194 10.92075 4.45601 10.20647-.85377 9.81042 1.94591 6.48126 2.7696 11.52975-4.26889 6.54029-3.25387.46-5.72388 4.92317-11.09906-5.45024-2.56134-1.74391-5.12264.92984-7.68397-8.72038" stroke-width=".460018"/><path d="m164.81958 272.24438c2.94723 4.61758 6.60758-7.492 5.15926 20.0403" stroke-width=".460018"/><g stroke-width="2.042252" transform="matrix(.2305533 0 0 .2200693 94.822075 167.40822)"><g stroke-width="2.042252"><path d="m526.61069 638.37752h-48.14102"/><path d="m515.50123 687.90953-44.43789-24.76599"/><path d="m489.57913 727.53516-29.62525-34.40366"/><path d="m467.36019 767.16077c0 4.95322-28.89802-33.8661-28.89802-33.8661"/><path d="m304.4213 722.58196 40.73473-29.71922"/><path d="m274.79603 673.04992 47.34684-9.90638"/></g><g stroke-width=".974019" transform="matrix(1.9640025 0 0 2.2384224 -485.19391 -671.11894)"><path d="m464.2659 653.60574-6.02683-23.40319"/><path d="m445.41075 655.81855v-28.64645"/><path d="m429.55197 653.48568 6.4312-25.49594"/><path d="m411.47147 638.11608 16.96964-19.91529"/></g></g><g stroke-width="1.322571" transform="matrix(.3064996 0 0 .3947133 48.516313 66.566632)"><path d="m446.66776 596.4415c-6.54253 5.08768-8.08173 11.64331-7.54206 18.80888 3.14252 5.63516 6.28505 4.86356 9.42757 2.21281l-4.71378-6.63843c-.60798 5.50793 2.87643 6.2131 5.65654 7.74483 5.49195-1.47521 5.20285-2.95041 7.54206-4.42561-4.23434-2.19095-13.68121-3.61723-4.71379-7.74484 2.37008-2.21281 2.02015-4.42563-.94276-6.63843.17651-3.15757-1.33514-4.33392-4.71378-3.31921z"/><g fill-rule="evenodd"><path d="m446.66776 596.4415c-6.54253 5.08768-8.08173 11.64331-7.54206 18.80888 3.14252 5.63516 6.28505 4.86356 9.42757 2.21281l-4.71378-6.63843c-.60798 5.50793 2.87643 6.2131 5.65654 7.74483 5.49195-1.47521 5.20285-2.95041 7.54206-4.42561-4.23434-2.19095-13.68121-3.61723-4.71379-7.74484 2.37008-2.21281 2.02015-4.42563-.94276-6.63843.17651-3.15757-1.33514-4.33392-4.71378-3.31921z"/><path d="m428.00211 590.18272c-6.54252 5.08768-8.08173 11.64332-7.54206 18.80889 3.14252 5.63516 6.28505 4.86355 9.42757 2.2128l-4.71378-6.63843c-.60797 5.50793 2.87643 6.2131 5.65654 7.74484 5.49195-1.47521 5.20285-2.95041 7.54206-4.42562-4.23433-2.19094-13.6812-3.61722-4.71379-7.74484 2.37009-2.2128 2.02016-4.42562-.94275-6.63843.17651-3.15756-1.33514-4.33391-4.71379-3.31921z"/></g></g><path d="m189.6918 270.92753c3.54583 8.12409 3.0967 11.14763 3.62224 15.4156" stroke-width=".460018"/><g stroke-width="2.042252" transform="matrix(.2305533 0 0 .2200693 98.894291 169.96145)"><path d="m280.88703 454.48349c-.21458-89.17897 78.16493-88.69323 114.79787 7.4298" fill-rule="evenodd" stroke-width="2.042252"/><path d="m559.80122 255.86182c0 4.19028-3.39689 7.58717-7.58717 7.58717s-7.58717-3.39689-7.58717-7.58717 3.39689-7.58717 7.58717-7.58717 7.58717 3.39689 7.58717 7.58717z" stroke-width="1.938408" transform="matrix(-1.0535719 0 0 1.0535719 894.46115 168.83791)"/><g fill-rule="evenodd" stroke-linecap="round" stroke-linejoin="round" stroke-width=".974019" transform="matrix(1.8790374 -.5714234 .6512654 2.1415856 -1186.016 206.08661)"><path d="m683.11276 301.30044-.72784 5.05971c-6.27056.58948-12.98903 2.75091-18.13985 5.89481 5.51989-7.00782 12.07088-8.86027 18.86769-10.95452z"/><path d="m678.23727 297.82933 5.01832 3.48247c-6.78536 2.3679-13.48404 4.92034-18.99463 12.84383 1.34144-10.21974 11.06988-12.32727 13.97631-16.3263z"/></g></g></g></g></svg>