<svg height="600" width="900" xmlns="http://www.w3.org/2000/svg"><path d="m0 0h600v450h-600z" fill="#fff" stroke="#4d4d4d" stroke-width=".2"/><path d="m825 0h75v600h-75z" fill="#00247d"/><path d="m750 0h75v600h-75z" fill="#fff"/><path d="m675 0h75v600h-75z" fill="#cf142b"/><path d="m600 0h75v600h-75z" fill="#fc0"/><path d="m0 450h600v150h-600z" fill="#00247d"/><g fill="#fff" transform="matrix(.89526928 0 0 .89526928 31.419214 54.608593)"><path d="m97.499994 487.50002 8.199596 26.21421 27.46501-.30235-22.39737 15.89892 8.7747 26.02734-22.041938-16.38813-22.041942 16.38813 8.774705-26.02734-22.397374-15.89892 27.465008.30235z"/><path d="m232.49999 487.50002 8.1996 26.21421 27.46501-.30235-22.39737 15.89892 8.7747 26.02734-22.04194-16.38813-22.04194 16.38813 8.7747-26.02734-22.39737-15.89892 27.46501.30235z"/><path d="m367.49999 487.50002 8.1996 26.21421 27.46501-.30235-22.39737 15.89892 8.7747 26.02734-22.04194-16.38813-22.04194 16.38813 8.7747-26.02734-22.39737-15.89892 27.46501.30235z"/><path d="m502.49999 487.50002 8.1996 26.21421 27.46501-.30235-22.39737 15.89892 8.7747 26.02734-22.04194-16.38813-22.04194 16.38813 8.7747-26.02734-22.39737-15.89892 27.46501.30235z"/></g><g fill-rule="evenodd" stroke="#cf142b"><path d="m293.71764 114.09812c-.00001.00001-2.32194 7.24056-3.81555 10.16332-1.66727 3.26263-4.38244 3.75825-5.61619 6.15819-1.23375 2.39995 1.38005 8.2233 1.7286 11.05823.26414 2.14833.27927 3.94965-2.00461 4.97617-.34336.1273-.69761.24155-1.02898.36131-.54489.15049-1.19833.28152-1.93337.37189-1.00038.123-2.09443.24979-3.20936.36105-1.40401-.47635-2.00441-1.79681-2.56176-3.37487-.95124-2.69322-1.21964-9.08706-3.39355-10.6858-2.17393-1.59873-4.8358-.82351-7.78223-3.00135-2.57813-1.9056-7.93551-7.33012-7.94691-7.34182-.00001 0 .3163 7.61773-.0715 10.87703-.43293 3.63826-2.78329 5.04951-3.10862 7.72832-.32531 2.67881 4.11749 7.22656 5.42714 9.7649.75713 1.46746 1.31398 2.77534.73916 4.10212-.91871.79832-1.82843 1.57728-2.67226 2.2741-.50758.41915-.97583.76964-1.41441 1.04605-.45209.22922-.91444.43832-1.39302.67443-2.1888.79248-3.44226-.4116-4.77789-2.02898-1.81872-2.20241-4.23386-8.10068-6.82475-8.8551-2.59091-.75441-4.85489.88792-8.37026-.1449-3.07592-.90374-9.9579-4.16736-9.97264-4.17443-.00002 0 2.91548 7.02148 3.67118 10.2156.84359 3.56549-.90014 5.69293-.28521 8.32041.61492 2.62749 6.37759 5.37609 8.47968 7.30987 2.1021 1.93375 3.49227 3.71418-.0731 7.58992-.77993.84781-1.65945 1.77162-2.55335 2.69556-1.2051.23614-2.38981-.34223-3.65656-1.09345-2.45676-1.45694-6.73462-6.18617-9.42795-6.01924-2.69334.16695-4.26426 2.46692-7.92172 2.68473-3.20028.1906-10.7814-.51566-10.79767-.51733.00001 0 5.13696 5.58924 6.92903 8.33911 2.00046 3.0696 1.08469 5.67363 2.55255 7.93797s7.82361 2.90609 10.45612 4.01436c1.52192.6407 2.77302 1.308 3.18255 2.69474-.19272 1.19843-.41376 2.39047-.61402 3.46343-.13815.74013-.28214 1.36208-.47049 1.90276-.11217.26003-.22295.51257-.34018.7798-.0116.0244-.0131.0463-.0249.0701-.0221.0503-.0606.0939-.0829.14437-.0241.0457-.0251.0965-.0499.1403-.012.0273-.0458.0468-.058.0742-.007.0128-.0214.0244-.029.0371-.003.008.007.0247.004.0331-1.17149 1.94538-2.91827 1.79542-4.95829 1.41468-2.80777-.52409-8.45813-3.49528-10.93012-2.41306-2.47197 1.08221-3.13817 3.799-6.49811 5.2603-2.93993 1.2786-10.3227 3.21265-10.33856 3.21668.00002 0 6.76409 3.48672 9.39193 5.45341 2.93342 2.19534 2.94666 4.9624 5.1032 6.58451 2.15654 1.62209 8.33765.0309 11.19067.16711 1.7965.0858 3.35033.30593 4.17551 1.7676.004.007.00001.0257.004.0331.1647.87796.3113 1.72665.44502 2.52817.0676.40582.14295.79915.17524 1.1525-.00024.009.004.0238.004.033.005.0598-.017.11092-.0127.16929-.00072.0189.009.047.009.0661.00077.0113.003.0218.004.0331-.001.0311-.0194.0718-.0209.10319-.0294.61596-.0565 1.25623-.0989 1.92416-.00068.0108.004.0223.004.0331-.003.0138-.0257.0234-.029.0371-.001.0216.01.0445.009.0661-.51623 1.99202-2.15972 2.46059-4.11864 2.78737-2.81733.46999-9.13937-.39963-11.09073 1.46426-1.95135 1.86389-1.66183 4.64822-4.31744 7.17253-2.32366 2.20877-8.57262 6.54767-8.58613 6.55688 0 0 7.52817.99483 10.6709 1.94176 3.50815 1.05704 4.49966 3.61097 7.08153 4.39572 2.58186.78475 7.82724-2.7959 10.55416-3.64572 1.5339-.47804 2.9325-.78715 4.11728-.0701.0165.01.0208.0186.0371.029.007.0126.0295.0164.0371.029.62698 1.04315 1.24198 2.08283 1.78197 3.03467.27204.47951.51835.90906.69935 1.32285.009.0185.00019.0477.009.0661.0225.0521.0323.10999.0534.16116.003.009.00039.0241.004.033.11547.38031.26056.76328.37757 1.16117.006.0256.002.0408.009.066.0159.0542.0374.10668.0534.16116.004.0247.004.0417.009.0661.003.0107.00095.0224.004.033.006.0363.007.0634.0122.0991.31714 2.19258-1.0806 3.23048-2.86621 4.2435-2.48432 1.40941-8.7044 2.75407-9.89653 5.17497-1.1921 2.4209.0201 4.93141-1.60643 8.21452-1.42324 2.8727-5.81498 9.08882-5.82449 9.10211-.00001 0 7.43072-1.66261 10.70747-1.8532 3.65777-.21275 5.43732 1.90098 8.13164 1.75082 2.69432-.15018 6.41746-5.37085 8.68635-7.10591.99263-.75908 1.92884-1.38477 2.93499-1.50135.82665.67881 1.62602 1.36126 2.35807 1.99106 3.99213 3.43455 2.85114 5.32773.98835 7.49296-1.86284 2.16523-7.26863 5.56257-7.57367 8.24376-.30505 2.68121 1.67406 4.62625 1.25108 8.26571-.37009 3.1845-2.39124 10.50974-2.39572 10.52546.00001.00001 6.41838-4.06807 9.43851-5.35347 3.3713-1.43483 5.79645-.0682 8.28197-1.1189 2.48549-1.05078 4.18038-7.19466 5.73049-9.59371.88404-1.36821 1.75765-2.48424 3.16035-2.66956 1.1713.40678 2.32423.80383 3.36728 1.1961.50061.18826.95001.37696 1.34507.57259.007.004.0261-.009.033-.004.053.0263.0932.0564.14436.0829.0257.0168.0484.041.0743.058.0287.0151.0793.0387.10726.0539.0389.0256.0722.0611.11133.0869.006.004.0263-.007.033-.004.21706.14315.43358.27423.65575.42255.0219.0158.0527.0422.0742.058.0402.0269.0711.06.11133.0869.0462.0357.10067.047.14437.0829.013.009.0241.0202.0371.029.007.006-.003.0266.004.033.026.0175.0483.0405.0743.058 1.68579 1.48792 1.25389 3.16692.52654 5.10103-1.0054 2.67345-4.89672 7.72962-4.26191 10.35238.63482 2.62277 3.16644 3.75831 4.01977 7.32151.74664 3.11779 1.38531 10.715 1.38652 10.7313-.00001.00002 4.60514-6.02897 6.99972-8.27383 2.67301-2.50588 5.39767-2.05084 7.3708-3.89166 1.97314-1.84083 1.50511-8.21115 2.13651-10.99674.63139-2.78561 1.45395-4.85916 6.58992-3.69502 1.12349.25465 2.3819.54649 3.62812.86213.80447.92781.881 2.24571.85969 3.71832-.0413 2.85598-2.02371 8.91612-.53873 11.16928 1.48497 2.25317 4.27339 2.46971 6.28224 5.53386 1.75775 2.68112 4.90045 9.61263 4.90709 9.62756-.00001 0 2.322-7.24054 3.81554-10.16332 1.66721-3.26265 4.38248-3.75822 5.61619-6.15818 1.23372-2.39994-1.38001-8.2233-1.72859-11.05823-.20154-1.63892-.26398-3.07039.7351-4.11565 1.14493-.43296 2.26726-.8484 3.30607-1.21155.58256-.20365 1.10488-.35677 1.58667-.46343.0952-.0111.20088-.0256.2974-.0365.0185-.003.0477-.004.0661-.009.3441-.0391.6679-.0881 1.02438-.12593.007-.00032.0252-.004.033-.004.0836-.009.1802-.0236.26436-.0325.01.00016.0274.0288.0371.029.0421-.004.0899-.0119.13219-.0163 2.15857.11084 2.89056 1.67062 3.56067 3.58749.94252 2.69629 1.15869 9.08819 3.32746 10.69392s4.87992.84301 7.81934 3.03034c2.57197 1.91392 7.90249 7.33413 7.91386 7.34588.00001 0-.32277-7.58594.0755-10.84398.44463-3.63686 2.84075-5.0587 3.1747-7.73646.33396-2.67774-4.12566-7.22236-5.42714-9.76489-.83376-1.62881-1.41771-3.0998-.49458-4.56826.66481-.56674 1.33276-1.11085 1.94827-1.61483.32628-.26717.6212-.50917.9182-.7167.0174-.01.0445-.0318.062-.0411.0201-.0138.042-.0275.062-.0411.0247-.0131.037-.0281.062-.0412.006-.004.0265.00031.033-.004.0144-.007.0145-.0296.029-.0371.0565-.0375.10164-.051.15709-.0864.52648-.26872 1.1061-.52862 1.67822-.81013.0341-.0107.0615-.0357.095-.0453.01-.004.0234.00068.033-.004 1.98478-.54343 3.1684.6362 4.42661 2.1728 1.80953 2.20996 4.20804 8.12702 6.79577 8.8922 2.58773.7652 4.8633-.86948 8.37432.17795 3.07216.91652 9.962 4.20034 9.9767 4.20748.00001-.00001-2.89572-7.02244-3.63813-10.21967-.82871-3.56898.9182-5.7275.31419-8.35753-.60399-2.63003-6.35261-5.3714-8.44664-7.31392-1.21062-1.123-2.1804-2.19093-2.09046-3.63406.59398-1.06499 1.18254-2.08791 1.74051-3.03169.27744-.46927.55013-.91436.8161-1.27438.0174-.0185.0446-.0226.062-.0411.0351-.0468.048-.0994.0829-.14437.0269-.0287.0639-.0495.091-.0783.0298-.0375.0573-.0751.0869-.11132.0106-.0108.0188-.0263.029-.0371.0197-.0239.0383-.0509.058-.0743.19199-.20278.39737-.40273.59588-.60997.0144-.0134.0476-.028.062-.0411.0212-.0222.0367-.0521.058-.0743.0191-.0168.01-.0208.029-.0371.038-.0395.0818-.0757.11999-.11538.019-.0153.043-.0263.062-.0412.0167-.0174.0452-.0238.062-.0411 1.72163-1.3068 3.26851-.61035 5.01652.42307 2.45872 1.45362 6.73484 6.1898 9.42794 6.01924 2.69309-.17057 4.2976-2.46605 7.95477-2.6888 3.20002-.19488 10.74836.51975 10.76463.5214-.00001 0-5.10426-5.62875-6.90005-8.37621-2.0046-3.06692-1.11468-5.67156-2.58559-7.93391-1.47093-2.26236-7.81807-2.87661-10.45207-3.98131-1.32726-.55667-2.47534-1.12133-3.01841-2.17822.2106-1.26526.44111-2.50574.6598-3.63679.99976-5.17045 3.24227-5.10968 6.04659-4.56744 2.80432.54226 8.42626 3.54937 10.9052 2.48321 2.47894-1.06619 3.16587-3.79184 6.53521-5.23131 2.94814-1.25953 10.33489-3.11364 10.35075-3.11755-.00003 0-6.72297-3.57701-9.33802-5.56067-2.9191-2.21433-2.92417-4.95252-5.07015-6.58857-2.14599-1.63605-8.35078-.11152-11.20287-.26625-1.62657-.0882-3.03827-.27384-3.89544-1.39952-.22757-1.21495-.45626-2.41451-.633-3.51137-.10249-.63636-.16037-1.2125-.17822-1.72237.00062-.01-.004-.023-.004-.0331-.0004-.0129-.003-.0202-.004-.033.00078-.0126.0282-.0245.029-.0371-.00071-.0319-.0118-.0677-.0122-.0991.0278-.44224.0685-.89296.10185-1.35427.003-.0146.0262-.0226.029-.0371.00079-.0109-.005-.0222-.004-.0331.005-.0239-.0132-.0426-.009-.0661.002-.0238.0231-.0463.0249-.0702.48822-2.10555 2.13471-2.56754 4.13948-2.89056 2.8199-.45435 9.13719.45487 11.09886-1.39816 1.96168-1.85305 1.68498-4.63399 4.35455-7.14356 2.33588-2.19585 8.61375-6.48571 8.6273-6.49484-.00002 0-7.50856-1.04757-10.64599-2.01193-3.50223-1.07645-4.47914-3.66681-7.05661-4.46586-2.57746-.79906-7.85969 2.78203-10.59127 3.61673s-4.94478 1.13739-6.48375-3.89897c-.3339-1.09274-.69572-2.30054-1.03764-3.52871.39101-1.1902 1.48839-1.90154 2.79685-2.62486 2.49975-1.38188 8.72298-2.67233 9.94176-5.0799 1.2188-2.4076.0469-4.92875 1.70964-8.19367 1.45488-2.8568 5.88904-9.03097 5.8987-9.04415 0 0-7.41202 1.5626-10.69068 1.71697-3.65987.1723-5.44395-1.93729-8.13975-1.81691-2.69579.12039-6.44365 5.30095-8.73159 7.01083-1.32269.98853-2.55142 1.74035-3.95475 1.39194-.9392-.77502-1.86942-1.56711-2.69611-2.28495-.48987-.42538-.91105-.80564-1.25297-1.1877-.006-.008.002-.0247-.004-.033-.0517-.0581-.075-.12893-.12351-.18608-.18507-.25243-.40791-.50329-.59723-.76517-1.38395-2.16695-.37826-3.67789 1.05553-5.32909 1.87271-2.15666 7.29345-5.53501 7.61077-8.21478.3173-2.67978-1.65768-4.63231-1.21803-8.26978.38471-3.18279 2.42421-10.51381 2.42877-10.52951-.00002 0-6.4166 4.04889-9.44259 5.32042-3.37784 1.41937-5.79571.0465-8.28602 1.08586-2.49029 1.03935-4.23956 7.17687-5.80065 9.56879-.97568 1.49494-1.93873 2.69868-3.59399 2.68933-.8611-.3092-1.71585-.6042-2.49241-.90114-.43425-.16604-.81371-.32262-1.16766-.49377-.0208-.0132-.0492-.0115-.0701-.0249-.0154-.008-.0218-.0214-.0371-.029-.0114-.007-.0257-.0216-.0371-.029-.0233-.0117-.0512-.0462-.0743-.058-.48913-.31923-1.00599-.63257-1.53006-.98591-.044-.0388-.0743-.081-.11538-.11999-.0134-.009-.0238-.0199-.0371-.029-1.51647-1.46553-1.0954-3.10925-.37811-4.9851 1.02017-2.66789 4.95645-7.6682 4.33613-10.29442-.62034-2.62623-3.15717-3.79077-3.99079-7.35862-.72942-3.12186-1.28221-10.69414-1.28332-10.71045-.00001 0-4.66701 5.98426-7.07394 8.21587-2.68681 2.49108-5.42464 2.03278-7.4079 3.86267-1.98329 1.82991-1.52686 8.18569-2.17363 10.96778-.36884 1.58664-.78178 2.956-2.03899 3.60509-1.23875.0136-2.47529.0213-3.58858.005-.6445-.009-1.22064-.0524-1.72589-.12324-.01-.002-.023.006-.033.004-.0769-.011-.13651-.0624-.21045-.0748-.0201-.005-.0458.013-.0661.008-.0305-.005-.0402-.0194-.0702-.0249-.22433-.0546-.45998-.0931-.68933-.15005-.052-.0147-.0902-.0342-.1403-.0498-.10579-.0264-.20713-.0688-.31365-.0956-2.1808-.81431-2.3459-2.54891-2.31555-4.64627.0413-2.85598 2.02368-8.91609.53874-11.16928-1.48496-2.25318-4.27343-2.46969-6.28224-5.53386-1.7577-2.68115-4.90045-9.61264-4.90709-9.62757z" fill="#fc0" stroke-width="3.196151"/><path d="m307.29122 114.15991c-.00001 0-3.18817 6.90309-5.02728 9.62175-2.05295 3.03478-4.80832 3.19535-6.32571 5.4268-1.51741 2.23145.36622 8.33025.36622 11.18653 0 2.1645-.20479 3.95421-2.59687 4.69434-.35634.0845-.72188.15462-1.06538.23306-.55918.0829-1.22373.13317-1.9643.13317-1.00792 0-2.10926-.008-3.22945-.0333-1.33537-.64412-1.77015-2.02798-2.13077-3.66226-.61547-2.78919-.10163-9.16799-2.06418-11.02006-1.96258-1.85208-4.69916-1.40748-7.3578-3.92861-2.32632-2.20597-6.9817-8.24371-6.99158-8.25672-.00001 0-.61567 7.59939-1.39832 10.78701-.87368 3.55824-3.37868 4.67212-4.02848 7.29122-.64978 2.61909 3.20484 7.67501 4.19495 10.3542.5724 1.54889.96548 2.91494.23305 4.16165-1.00927.68025-2.00725 1.34237-2.92981 1.93101-.55493.35408-1.06245.64481-1.53148.86563-.47669.17234-.96111.32345-1.46491.49939-2.26916.51946-3.36631-.82859-4.49458-2.59687-1.53636-2.40788-3.21368-8.5568-5.69315-9.62174-2.47948-1.06495-4.92696.28882-8.29002-1.16527-2.94264-1.27233-9.37492-5.35139-9.38869-5.36021-.00001 0 2.03685 7.32479 2.39711 10.58725.40219 3.64179-1.58813 5.54054-1.29843 8.22343s5.67387 6.11417 7.52427 8.29002c1.85041 2.17583 3.01292 4.11259-.9988 7.52427-.87755.7463-1.86325 1.55589-2.86322 2.36382-1.2249.0873-2.33017-.63129-3.49579-1.53149-2.2606-1.74585-5.92938-6.96177-8.62295-7.12475s-4.53343 1.9281-8.19013 1.69795c-3.19963-.20136-10.6379-1.82748-10.65384-1.83113.00001 0 4.4165 6.17434 5.85961 9.12235 1.61091 3.29079.38421 5.76359 1.56478 8.19014 1.18057 2.42654 7.4105 3.8391 9.8881 5.26033 1.43235.82164 2.59267 1.63663 2.82992 3.06298-.33752 1.16597-.70239 2.32211-1.03209 3.36262-.22743.71774-.44624 1.31747-.69916 1.83113-.14307.24439-.28384.48153-.43281.73245-.0145.0228-.0186.0443-.0332.0666-.028.0472-.0717.0858-.0998.13318-.0295.0425-.0368.0927-.0666.13317-.0153.0256-.0513.0409-.0666.0666-.009.0118-.0243.0216-.0332.0333-.004.008.004.0255 0 .0333-1.40013 1.78789-3.11555 1.42589-5.09386.79904-2.72284-.8628-7.96838-4.50131-10.55396-3.72884-2.58556.77246-3.57832 3.38765-7.09146 4.428-3.07401.91028-10.63761 1.92895-10.65384 1.93101.00001 0 6.28804 4.2861 8.65624 6.55876 2.6436 2.53691 2.31907 5.2849 4.26154 7.15805 1.94249 1.87314 8.27157 1.04813 11.08665 1.53149 1.7726.30438 3.28795.71249 3.9286 2.26394.003.008-.003.0255 0 .0333.0564.89151.0982 1.75173.13317 2.56358.0177.41105.0443.81062.0332 1.16527-.001.009.001.0241 0 .0333-.002.06-.0305.10801-.0332.16647-.003.0187.003.0478 0 .0666-.00062.0113.00065.022 0 .0333-.005.0307-.028.0689-.0332.0999-.10441.60777-.20936 1.23994-.33293 1.89771-.002.0105.002.0227 0 .0333-.005.0133-.0283.0201-.0332.0333-.004.0212.004.0453 0 .0666-.75546 1.91414-2.44384 2.17865-4.428 2.26394-2.85363.12266-9.0223-1.51195-11.18653.0999-2.16422 1.61183-2.21664 4.41069-5.16045 6.59207-2.57583 1.90869-9.30758 5.4526-9.32211 5.46009 0 0 7.35051 1.90608 10.3542 3.22944 3.35293 1.47724 4.02537 4.13308 6.49218 5.22704 2.4668 1.09396 8.10992-1.81983 10.92018-2.33053 1.58077-.28728 3.00664-.4234 4.09507.43282.0151.0119.0183.021.0332.0333.006.0134.0273.0199.0332.0333.49499 1.11187.97851 2.21883 1.39832 3.22945.21149.50912.40353.96552.53269 1.39831.005.0194-.005.0473 0 .0666.016.0545.0186.11311.0332.16647.002.009-.002.0239 0 .0333.0682.39156.16547.78936.23305 1.19856.003.0261-.002.0408 0 .0666.01.0558.0241.11045.0332.16647.002.025-.001.0419 0 .0666.002.011-.002.0224 0 .0332.002.0369-.00076.0637 0 .0998.0472 2.2149-1.46674 3.07447-3.36262 3.86202-2.63775 1.0957-8.97544 1.67127-10.45407 3.9286s-.58184 4.897-2.59688 7.95709c-1.76315 2.67755-6.88063 8.31128-6.8917 8.32331-.00001 0 7.57809-.74341 10.8536-.5327 3.6564.23521 5.1647 2.55031 7.85721 2.73005s7.02491-4.54756 9.48857-5.99278c1.07785-.63229 2.08342-1.13905 3.09627-1.13197.73764.77461 1.44775 1.54951 2.09747 2.26394 3.54317 3.89604 2.17969 5.63584.0666 7.55756-2.11315 1.92173-7.89312 4.63399-8.52307 7.25793-.62996 2.62394 1.09699 4.79596.23305 8.3566-.75594 3.11554-3.65589 10.13939-3.66225 10.15444.00001.00001 6.86684-3.25442 10.02126-4.16166 3.5212-1.0127 5.76144.63971 8.35661-.0998 2.59514-.73961 5.02712-6.63075 6.8584-8.82271 1.0444-1.2501 2.04767-2.25119 3.4625-2.26394 1.11291.54667 2.20876 1.08146 3.19615 1.59807.47391.24795.89692.49008 1.26514.73246.006.005.027-.005.0332 0 .0493.0326.0857.0673.13318.0998.0234.0198.043.0467.0666.0666.0265.0185.0739.048.0998.0666.0355.0301.0642.0696.0998.0998.006.004.0271-.004.0332 0 .19797.16856.39686.32508.59928.4994.0199.0183.0472.0484.0666.0666.0365.0315.0632.0682.0998.0998.0415.041.0943.0589.13317.0998.0118.0106.0215.023.0332.0332.006.007-.006.026 0 .0332.0237.0205.0429.046.0666.0666 1.49161 1.68251.85805 3.29626-.0998 5.12716-1.32413 2.53078-5.80339 7.07428-5.49338 9.75492.31 2.68063 2.68415 4.11663 3.09627 7.75732.36059 3.1856.0674 10.80397.0666 10.8203-.00001.00001 5.30646-5.42194 7.95709-7.3578 2.95884-2.16096 5.60759-1.37683 7.79062-2.9631 2.18303-1.58629 2.49588-7.96611 3.46249-10.65384.96661-2.68774 2.03606-4.64541 6.99158-2.86322 1.08402.38985 2.29741.83307 3.4958 1.29844.68524 1.01904.60036 2.33643.39951 3.79543-.38951 2.8296-3.09663 8.60252-1.89771 11.02006 1.19892 2.41755 3.94007 2.97274 5.55997 6.25913 1.41744 2.87559 3.69079 10.13881 3.69555 10.15444-.00001 0 3.18822-6.90307 5.02728-9.62175 2.0529-3.03481 4.80834-3.19533 6.32572-5.4268 1.51736-2.23145-.3662-8.33024-.36623-11.18652-.00003-1.65127.11267-3.07966 1.23185-3.99519 1.1892-.29 2.35385-.56538 3.4292-.79904.60306-.13104 1.14017-.21929 1.63137-.26635.0959.0006.2025-.00084.29964 0 .0189-.001.0479.001.0666 0 .3463.003.67366-.006 1.03209 0 .007.00064.0256-.00067.0332 0 .0842.001.18174-.001.26634 0 .01.001.0237.0319.0332.0332.0423.00078.0908-.00081.13318 0 2.12891.37343 2.6651 2.01087 3.09627 3.99519.60645 2.79116.041 9.16166 1.99759 11.02006 1.95661 1.85839 4.74059 1.43221 7.3911 3.9619 2.31919 2.21347 6.94843 8.24367 6.95829 8.25672.00001 0 .60537-7.56864 1.39832-10.75371.88512-3.55542 3.43684-4.67424 4.09506-7.29122.65823-2.61699-3.21347-7.67185-4.19494-10.3542-.62876-1.71838-1.02886-3.24963.0666-4.59447.729-.48138 1.45836-.93991 2.13077-1.36502.35645-.22535.67869-.42955.9988-.59928.0183-.007.048-.0262.0666-.0332.0217-.0113.0451-.0222.0666-.0332.0261-.01.0402-.0233.0666-.0332.007-.003.0263.003.0332 0 .0152-.005.018-.0276.0332-.0332.0606-.0304.10709-.0383.16646-.0666.55533-.20245 1.16235-.38968 1.76454-.59927.0351-.006.0654-.028.0998-.0332.0106-.003.0231.003.0332 0 2.03626-.29716 3.06708 1.0181 4.12836 2.69675 1.52632 2.41426 3.18484 8.57979 5.65985 9.65504 2.47502 1.07527 4.93306-.26951 8.29002 1.19856 2.93736 1.28456 9.37497 5.38463 9.38869 5.3935.00002-.00001-2.01712-7.32332-2.36382-10.58725-.38699-3.64344 1.61028-5.57265 1.33173-8.25672-.27852-2.68409-5.64964-6.10648-7.49098-8.29002-1.06453-1.26234-1.89674-2.44064-1.63136-3.86202.7195-.98454 1.42849-1.92799 2.09747-2.79663.33262-.43191.65759-.84038.9655-1.16526.0195-.0163.047-.0169.0666-.0332.0405-.0422.0598-.0928.0998-.13318.0303-.0251.0695-.0413.0998-.0666.0341-.0336.0661-.0675.0998-.0998.0114-.01.0218-.0239.0332-.0332.0225-.0212.0442-.0459.0666-.0666.21529-.17784.44354-.35124.66586-.5327.016-.0115.0507-.022.0666-.0332.0238-.0194.0427-.0472.0666-.0666.021-.0144.0124-.0194.0332-.0332.0425-.0346.0905-.0652.13318-.0998.0208-.0129.0459-.0209.0666-.0332.0187-.0152.0477-.018.0666-.0332 1.86824-1.08694 3.31857-.20692 4.9274 1.03209 2.26296 1.7428 5.92916 6.96539 8.62295 7.12475 2.69377.15935 4.5664-1.92316 8.22343-1.69795 3.19989.19707 10.60461 1.82751 10.62054 1.83113-.00001 0-4.37922-6.20957-5.82631-9.15564-1.61535-3.28863-.41424-5.7652-1.59808-8.19014-1.18384-2.42495-7.40859-3.80916-9.88809-5.22704-1.24942-.71448-2.32001-1.41502-2.73005-2.53029.36344-1.2301.7436-2.43318 1.09868-3.52908 1.62324-5.00982 3.84158-4.67584 6.55877-3.79543 2.71718.88042 7.93014 4.55112 10.52066 3.79543 2.59052-.75571 3.60494-3.37716 7.12476-4.39471 3.07981-.89035 10.63761-1.82918 10.65383-1.83113-.00003 0-6.23621-4.37069-8.58965-6.65864-2.62707-2.55401-2.29795-5.27235-4.22825-7.15805-1.93029-1.8857-8.27476-1.12976-11.08664-1.63137-1.60365-.28607-2.98215-.64255-3.69555-1.86442-.0776-1.23365-.1582-2.45215-.19976-3.56238-.0241-.64412-.0112-1.22301.0332-1.73125.002-.01-.002-.0234 0-.0333.001-.0129-.001-.0205 0-.0333.002-.0124.031-.0209.0332-.0333.003-.0318-.003-.0686 0-.0999.0816-.43555.17697-.87793.26634-1.33173.004-.0142.0288-.0193.0332-.0333.002-.0107-.002-.0226 0-.0333.007-.0232-.007-.0438 0-.0666.004-.0234.0287-.0431.0332-.0666.74152-2.03023 2.43208-2.28785 4.4613-2.36382 2.85427-.10682 9.01339 1.56651 11.18653-.0333s2.23788-4.39374 5.19374-6.55877c2.58638-1.89439 9.34083-5.38609 9.3554-5.3935-.00002 0-7.32461-1.95603-10.3209-3.29603-3.3447-1.4958-3.9982-4.18601-6.45889-5.29363-2.4607-1.10761-8.14045 1.80212-10.95348 2.29723-2.81302.49512-5.04662.52547-5.95949-4.66105-.19806-1.12531-.40978-2.36824-.59928-3.62896.53333-1.13359 1.70933-1.7057 3.09627-2.26394 2.6497-1.06651 8.9839-1.58787 10.48738-3.82873 1.50349-2.24086.648-4.88618 2.69675-7.92379 1.79262-2.65792 6.94708-8.24482 6.95829-8.25672 0 0-7.54732.64641-10.82031.39952-3.65354-.27561-5.16685-2.58714-7.8572-2.79663-2.69034-.20949-7.04238 4.47499-9.52187 5.8929-1.43344.81973-2.74474 1.41598-4.09507.89892-.8376-.88383-1.6642-1.78352-2.39711-2.59688-.4343-.48198-.80593-.91079-1.09868-1.33173-.005-.009.005-.0243 0-.0333-.0442-.0639-.0587-.13711-.0998-.19976-.1529-.27313-.34345-.5493-.4994-.83233-1.10917-2.31964.0734-3.69656 1.69795-5.16045 2.12191-1.91201 7.91439-4.60361 8.55636-7.22463.64195-2.62103-1.08001-4.79997-.19975-8.35661.77024-3.11205 3.68911-10.1394 3.69555-10.15444-.00002 0-6.86273 3.23562-10.02127 4.12837-3.5258.99657-5.75808-.66111-8.3566.0666-2.59852.7277-5.0837 6.60587-6.925 8.78942-1.15081 1.3647-2.25357 2.44192-3.89531 2.23064-.81694-.41196-1.6293-.80907-2.36382-1.19855-.41073-.2178-.76826-.41951-1.09867-.63257-.019-.0156-.0475-.0175-.0666-.0333-.0144-.009-.0191-.0239-.0332-.0333-.0106-.009-.0229-.0246-.0332-.0333-.0217-.0145-.0452-.0521-.0666-.0666-.44652-.37654-.92128-.75062-1.39831-1.16526-.0389-.0438-.0638-.0894-.0998-.13318-.0121-.0105-.0211-.0227-.0332-.0333-1.3263-1.63964-.70779-3.21968.23305-4.99399 1.33811-2.52345 5.85518-7.00603 5.55997-9.68833s-2.67097-4.14771-3.06297-7.79062c-.343-3.18754.0324-10.77069.0332-10.78701-.00001 0-5.3624 5.37002-8.02367 7.29122-2.97073 2.14459-5.63217 1.35561-7.82392 2.92981-2.19176 1.5742-2.51434 7.93817-3.49579 10.62054-.55971 1.52979-1.13666 2.83851-2.4637 3.32933-1.23113-.13768-2.45937-.28097-3.56237-.43282-.63855-.0879-1.20512-.201-1.69796-.33293-.01-.004-.0236.004-.0332 0-.075-.0204-.12789-.0786-.19976-.0999-.0194-.007-.0471.007-.0666 0-.0296-.009-.0375-.0241-.0666-.0333-.216-.0815-.44519-.14852-.66587-.23305-.0499-.021-.0853-.045-.13317-.0666-.10174-.0391-.19718-.0936-.29964-.13317-2.06513-1.07435-2.01731-2.81613-1.73125-4.89411.38955-2.82959 3.09661-8.60251 1.89772-11.02006-1.1989-2.41755-3.9401-2.97272-5.55997-6.25913-1.41739-2.87561-3.69078-10.13881-3.69555-10.15444z" fill="#fc0" stroke-width="3.196151"/><g fill="#cf142b" stroke-width="1.598076"><path d="m292.25453 252.11456s-5.42791 5.55414 7.32134 5.68036c12.74927.12624 8.7099-5.68036 8.7099-5.68036s3.78691 3.02953-7.57382 3.02953c-11.36072 0-8.3312-2.77706-8.45742-3.02953z"/><path d="m284.66369 248.83258s1.51476-2.65084 16.15748-2.65084c14.64271 0 14.51648 2.77706 14.51648 2.77706s-5.17544-1.00983-8.45743-1.00983-3.78691 1.51476-5.55413 1.51476c-1.76723 0-1.76723-1.641-4.92298-1.641-3.15576 0-11.86565 1.38854-11.73942 1.00985z"/><g><path d="m295.45633 236.46201c.0788 2.11435 2.52461 2.58772 4.79675 2.65084 2.27215.0631 4.29183-.00001 4.29183-2.39839 0-2.39837-2.5246.63116-4.1656.63116-1.64099 0-4.99717-2.87191-4.92298-.88361z"/><g><path d="m289.98841 227.34247s-5.30167 2.27214-5.55413 5.80659c-.25246 3.53444 4.03937 4.1656 5.55413 4.1656s1.13607-1.13607 1.13607-1.89345c0-.75739-4.29182-.25247-4.1656-1.76723.12624-1.51476 2.9033-6.43774 3.02953-6.31151z"/><path d="m310.01161 227.34247s5.30167 2.27214 5.55414 5.80659c.25245 3.53444-4.03937 4.1656-5.55414 4.1656-1.51476 0-1.13607-1.13607-1.13607-1.89345 0-.75739 4.29183-.25247 4.1656-1.76723-.12624-1.51476-2.9033-6.43774-3.02953-6.31151z"/></g></g></g><path d="m313.03431 162.20842c-.0525.009-.11645.0475-.16646.0666-.48503 4.74214-2.36038 5.50119-6.72524 5.26033-4.70839-1.70854-14.41093-8.25271-13.61693.69916-6.27012 2.86683-18.53729-2.35285-20.10912 1.09868 3.84568 3.65256-4.81485 9.01977-10.22103 9.18893-1.57681.2953-5.69432 1.77214-6.82511 3.26274-.0267.0364-.0769.0968-.0998.13317-.0552.0909-.10302.20903-.13317.29964-.0137.0453-.0263.12138-.0332.16647-.004.036-.00008.0973 0 .13317.001.0358-.006.0976 0 .13317.007.0356.0211.0979.0332.13317.0134.0352.0479.0982.0666.13318.0149.0261.0486.0739.0666.0999.0252.0345.069.099.0998.13317.0242.0256.0725.0746.0998.0999.34161.30302.92747.60874 1.79783.86562.56317 8.5123-11.25581 8.88532-14.38268 15.64783.68301 2.1584 5.45285 1.69876 3.56238 5.82631-1.37957 5.39644-10.74368 11.14159-7.79062 16.24711 8.01447-.56361 2.24585 10.81321 1.29844 15.28159-.42437 1.60564-.5887 4.93126.43281 5.75973.006.005.0272.0288.0332.0333.006.004.0269.0292.0332.0333.0128.008.0535.0261.0666.0333.0265.0137.0719.0226.0998.0333.0142.005.0521.0291.0666.0333.0146.004.0516-.003.0666 0 .0151.003.051.0315.0666.0333.0157.001.0505-.00053.0666 0 .0244.00016.0747.002.0998 0 .034-.003.0977-.0265.13318-.0333.0448-.01.11927-.0178.16646-.0333.0763-.0266.1838-.0909.26635-.13318.37507-.19939.81844-.56514 1.33173-1.13197 7.65344 3.76844 2.09924 14.21966 6.3923 20.30888 2.21073.48772 4.16249-3.90073 6.79182-.19976 3.98364 3.89295 4.28972 14.88679 10.18773 14.88208 3.51911-7.22264 10.48728 3.47079 13.88328 6.52548 1.17146 1.16348 3.95461 2.93825 5.19375 2.49699.0288-.011.0729-.0197.0998-.0332.0132-.007.0538-.0256.0666-.0332.006-.004.0272-.0291.0332-.0332.0726-.0524.14551-.1222.19976-.19976.009-.0133.025-.0525.0332-.0666.007-.0144.0259-.0515.0332-.0666.1985-.43476.19792-1.16488-.16646-2.29724 7.09032-4.74378 13.32174 5.30104 20.74169 4.62776 1.52774-1.67069-1.25707-5.5662 3.26273-5.99278 5.36323-1.5035 15.03342 3.71186 17.97835-1.39832-4.49538-6.65892 8.24142-7.34243 12.58485-8.75612 1.59333-.43277 4.5235-1.93569 4.76093-3.22944.002-.0152-.002-.0515 0-.0666.001-.0151.0328-.0516.0332-.0666.0001-.015-.0326-.0517-.0332-.0666-.001-.0149.002-.0518 0-.0666s.003-.0519 0-.0666c-.003-.0146-.0289-.0521-.0332-.0666-.0122-.0362-.0154-.0976-.0332-.13318-.0151-.0283-.0477-.0719-.0666-.0998-.0247-.0347-.0691-.0992-.0998-.13317-.0576-.0608-.15493-.14174-.23305-.19976-.3577-.25639-.93395-.48686-1.76455-.66587-.56317-8.5123 11.2558-8.88532 14.38268-15.64782-.683-2.15839-5.45283-1.69878-3.56237-5.82632 1.37956-5.39644 10.74366-11.14157 7.79062-16.2471-8.01452.56365-2.24587-10.81322-1.29844-15.2816.41693-1.57747.59657-4.82778-.36623-5.72644-.0232-.0207-.0753-.0486-.0998-.0666-.006-.004-.027-.0291-.0332-.0333-.0448-.0278-.11761-.0479-.16647-.0666-.007-.002-.0261-.031-.0332-.0333-.0145-.004-.0518.003-.0666 0-.015-.003-.0512-.0311-.0666-.0333-.0233-.003-.0758.00079-.0998 0-.0244-.00016-.0747-.002-.0998 0-.0255.002-.0735.0289-.0998.0333-.0443.009-.11975.019-.16647.0333-.0755.0247-.18459.0596-.26634.0999-.38181.19559-.83747.58268-1.36503 1.16526-7.65341-3.76846-2.06598-14.21964-6.35901-20.30888-2.21106-.48577-4.19629 3.86963-6.82511.16647-4.01039-4.09076-4.19463-14.34543-10.15444-15.08184-3.248 7.87323-10.06246-3.3839-13.81669-5.92619-2.53141-1.41891-5.29837-5.93451-6.925-5.65985zm-13.38388 7.69074c.11849-.00076.24755 0 .36623 0 30.38009 0 55.03372 24.65363 55.03372 55.03373.00001 30.3801-24.65363 55.06702-55.03372 55.06702-30.3801-.00001-55.06702-24.68692-55.06702-55.06702.00001-30.26143 24.4842-54.84214 54.70079-55.03373z" fill="#cf142b" stroke-width="1.598076"/><g fill="#cf142b" stroke-width="1.509993"><g><path d="m287.28476 207.66056c-2.80432-2.56922-2.01968-5.0492-10.35088-5.42789s-11.2345 2.65083-11.2345 3.53444c0 .88362.8205 1.1992.8205 1.1992s.48891.31939.56804-.94674c.12623-2.01968 6.09062-3.85002 8.45743-3.09264-3.12421 1.19919-2.65954 6.12217 1.00983 6.12217 3.15577 0 2.39839-5.93282 2.39839-5.93282s4.66052.14335 8.33119 4.54428z"/><path d="m268.22399 196.17361s2.01969-3.66068 9.5935-3.40822c7.57383.25246 10.09842 5.04922 10.09842 5.04922s-4.41805-3.53446-10.22464-3.15577c-5.8066.37869-9.34104 1.51477-9.46728 1.51477z"/></g><g><path d="m312.71526 207.66056c2.80432-2.56922 2.01968-5.0492 10.35088-5.42789s11.2345 2.65083 11.2345 3.53444c0 .88362-.8205 1.1992-.8205 1.1992s-.48891.31939-.56804-.94674c-.12623-2.01968-6.09062-3.85002-8.45743-3.09264 3.12421 1.19919 2.65954 6.12217-1.00983 6.12217-3.15577 0-2.39839-5.93282-2.39839-5.93282s-4.66052.14335-8.33119 4.54428z"/><path d="m331.77603 196.17361s-2.01969-3.66068-9.5935-3.40822c-7.57383.25246-10.09842 5.04922-10.09842 5.04922s4.41805-3.53446 10.22464-3.15577c5.8066.37869 9.34104 1.51477 9.46728 1.51477z"/></g></g></g></svg>