<svg height="600" width="900" xmlns="http://www.w3.org/2000/svg"><path d="m0 0h900v600h-900z" fill="#fff"/><path d="m243.55 599.6h656.03v-437.16z" fill="#00247d"/><path d="m658.75.43526h-658.28v444.66l664.83-444.44z" fill="#cf142b"/><path d="m406.16 510.78-6.1648-99.352-80.94 59.458 37.553-92.188-98.723 18.453 73.833-66.765-96.952-26.209 95.489-28.118-75.98-65.68 98.233 16.098-39.957-92.141 81.52 57.125 3.9784-100.35 48.661 86.839 47.127-88.689 6.1648 99.352 80.94-59.458-37.553 92.188 98.723-18.453-73.833 66.765 96.952 26.209-95.489 28.118 75.98 65.68-98.233-16.098 39.957 92.141-81.52-57.125-3.9784 100.35-48.661-86.839z" fill="#fc0" fill-rule="evenodd"/><path d="m564.91 311.56c-6.7772 61.995-63.715 106.88-127.17 100.26-63.459-6.6208-109.41-62.245-102.63-124.24 6.7773-61.995 63.715-106.88 127.17-100.26 63.126 6.586 108.99 61.688 102.72 123.4" fill="#87aade" fill-rule="evenodd"/><g fill="#fff"><path d="m415.79 231.98c9.778 2.2223 11.112 2.6668 9.778 8.4446-1.3333 5.7778-10.667 8-10.667 8s-5.3334-3.5555-13.333-.44438c-8.0001 3.1112-24 16-28.001 9.7778-4-6.2223-7.5556-20 1.3333-19.111 8.889.88886 10.222 3.1112 15.556-4.4445 5.3334-7.5556 12-7.5556 13.778-3.5556 1.7778 4.0001 1.7778-3.5555 5.7778-3.1112 4 .44448 5.7778 5.3335 5.7778 4.4445z"/><path d="m527.37 249.35c-19.555 0-47.556-12.889-46.667-.88897.88896 12.001-9.3334 7.1113-5.3334 10.667 4 3.5556 3.5556 1.3334 12 5.3335 8.4446 4 8.4446 12 14.223 4.889 5.7778-7.1113 16-6.6668 17.778-5.3335 1.7778 1.3333 10.222 7.1113 14.223 0 4-7.1112-5.7779-14.223-6.2223-14.667z"/><path d="m450.43 213.74c6.2223 0 14.223-11.112 18.223-8.4445 4.0001 2.6667 5.7779 10.222 5.7779 10.222s6.6667 1.3333 12 1.7778c5.3334.44448 18.223-.44448 18.666 2.6667.44448 3.1112 13.778 2.2223 6.2223 6.2223-7.5556 4.0001-.88886 8.889-8 8.889-7.1113 0-4.4446-7.1112-16.444-4.4445-12 2.6667-15.112 12-20 6.6668-4.889-5.3335-15.556-1.7778-20-4.4445-4.4445-2.6667-12-10.667-8.4446-14.667 3.5556-4 12-4.8889 12-4.4445z"/></g><path d="m338.42 301.8c7.5556 0 37.778 0 45.779-5.3334 8.0001-5.3335 14.223-13.778 16-14.223 1.7778-.44437 16-4 19.555.44449 3.5556 4.4445 11.112 9.778 14.223 11.112 3.1112 1.3333 25.778 3.1112 27.556 1.7778 1.7778-1.3334 15.112-15.556 15.112-15.556s4.4445-1.7778 6.6668-1.7778c2.2222 0 14.223 11.112 16 12.889 1.7778 1.7778 14.223 3.5556 24-2.6667 9.778-6.2223 11.112-18.667 16-15.112 4.8889 3.5556 8.4445 2.6667 12.889 10.222 4.4445 7.5556 5.7778 16 11.556 18.223 2.4188.93041-127.56 26.667-127.56 26.667l-97.78-26.667z" fill="#630"/><path d="m565.56 300.9c-.24388 62.348-52.178 112.7-116 112.46-63.61-.24-115.05-50.65-115.11-112.79l115.55-.10575z" fill="#008033"/><g fill="none" stroke="#000" stroke-width=".647461"><path d="m459.38 412.51-8.89-111.56-31.11 107.12"/><path d="m399.39 400.43 51.556-99.112-67.556 90.224"/><path d="m368.2 378.74 82.223-77.335-96.446 61.334"/><path d="m345.11 343.99 105.33-42.22-112.44 24.44"/><path d="m450.43 300.93-115.11.44448"/><path d="m500.71 400.43-51.556-99.112 67.556 90.224"/><path d="m531.79 378.63-82.223-77.335 96.446 61.334"/><path d="m554.88 343.99-105.33-42.22 112.44 24.44"/><path d="m449.56 300.83 115.11.44448"/></g></svg>