<svg height="600" width="900" xmlns="http://www.w3.org/2000/svg"><path d="m-.000006.000012h900v600h-900z" fill="#00247d"/><path d="m-.000006 300.000012h900v300h-900z"/><g fill-rule="evenodd" transform="matrix(.92647038 0 0 .92647038 6936.562944 -1084.709848)"><g fill="#fc0" transform="translate(-7401.3711 1228.3578)"><g transform="translate(-22.7957 3.791469)"><path d="m427.15507 67.271031c-3.36963 48.854339-6.38522 97.754629-9.65625 146.624999-14.65067-46.78954-28.62103-93.84353-43.375-140.593749-4.73977 1.216315-9.40613 2.599902-14 4.15625 1.34458 4.228301 2.60132 8.478154 3.53125 12.8125 12.47922 42.837269 24.95826 85.662729 37.4375 128.499999-29.74877-38.98094-58.92159-78.44749-88.8125-117.3125-4.03826 2.77714-7.9699 5.71606-11.78125 8.78125 2.39278 3.14254 4.68018 6.3693 6.78125 9.71875 26.5702 36.22574 53.14854 72.43051 79.71875 108.65625-41.14945-26.3507-81.95798-53.34862-123.1875-79.5625-2.8354 3.96524-5.52411 8.04047-8.0625 12.21875 2.5553 1.67518 5.05178 3.42572 7.4375 5.3125 38.17409 25.50791 76.35717 50.99208 114.53125 76.5-47.77337-10.66923-95.43148-22.14231-143.21875-32.71875-1.28553 4.65093-2.3697 9.37331-3.3125 14.15625 3.82391.85437 7.6266 1.79467 11.34375 3 43.687 10.69671 87.37549 21.39705 131.0625 32.09375-48.42389 6.18249-97.0631 11.78377-145.5 18.21875.3837 4.92154.94513 9.78106 1.6875 14.59375 3.72167-.47048 7.44165-.84108 11.1875-.96875 44.76632-4.91039 89.54618-9.83961 134.3125-14.75-43.32461 22.36288-86.9473 44.2633-130.21875 66.71875 2.02223 4.42754 4.16395 8.78831 6.5 13.03125 3.02966-1.54959 6.09554-2.97661 9.25-4.25 40.71939-20.0731 81.43687-40.14565 122.15625-60.21875-33.09424 35.7883-66.63998 71.23253-99.5625 107.1875 3.41539 3.4805 6.92769 6.8443 10.59375 10.0625 2.28195-2.44174 4.63197-4.80623 7.125-7.03125 31.39628-32.78829 62.79122-65.5867 94.1875-98.375-18.76571 44.97316-38.21625 89.75661-56.84375 134.78125 4.40004 2.11056 8.89396 4.0608 13.46875 5.84375 1.56092-3.71137 3.21961-7.38539 5.09375-10.9375 17.95831-40.83555 35.9167-81.66446 53.875-122.5-2.3084 48.59047-5.12856 97.18736-7.3125 145.78125 4.83401.47133 9.72583.73198 14.65625.84375.17596-3.2508.44194-6.47629.90625-9.6875 2.94782-45.30502 5.89594-90.60124 8.84375-135.90625 14.55236 46.47554 28.41799 93.21555 43.0625 139.65625 4.74002-1.20797 9.4054-2.60832 14-4.15625-1.23093-3.92324-2.35682-7.85761-3.21875-11.875-12.47925-42.83728-24.95826-85.69398-37.4375-128.53125 29.57769 38.75677 58.57041 78.03883 88.28125 116.6875 4.06417-2.77524 8.00765-5.71498 11.84375-8.78125-2.22024-2.93809-4.35344-5.93944-6.3125-9.0625-26.57023-36.22574-53.14853-72.46176-79.71875-108.6875 40.98133 26.2514 81.59582 53.19523 122.65625 79.3125 2.8575-3.95705 5.56439-8.04709 8.125-12.21875-2.39413-1.58169-4.72557-3.22935-6.96875-5-38.18708-25.5322-76.37539-51.06154-114.5625-76.59375 47.68175 10.69574 95.26242 22.16125 142.96875 32.71875 1.3119-4.65187 2.4377-9.37081 3.40625-14.15625-3.75066-.84132-7.47663-1.79099-11.125-2.96875-43.69929-10.68517-87.39444-21.34609-131.09375-32.03125 48.46315-6.2038 97.12011-11.80411 145.59375-18.25-.35775-4.92332-.9084-9.77809-1.625-14.59375-3.77279.4798-7.54623.83932-11.34375.96875-44.76632 4.91039-89.54618 9.80837-134.3125 14.71875 43.46239-22.43397 87.21816-44.37584 130.625-66.90625-2.00532-4.44566-4.17894-8.80111-6.5-13.0625-3.16472 1.62879-6.35718 3.16823-9.65625 4.5-40.7194 20.07311-81.43687 40.14565-122.15625 60.21875 33.25588-35.96308 66.9541-71.58328 100.03125-107.71875-3.39518-3.48411-6.88584-6.86995-10.53125-10.09375-2.17617 2.32766-4.4134 4.59443-6.78125 6.71875-31.67181 33.07634-63.35944 66.14243-95.03125 99.21875 18.87675-45.25921 38.42375-90.31284 57.15625-135.624999-4.39051-2.116582-8.87222-4.084921-13.4375-5.875-1.67268 4.02024-3.44248 7.971738-5.46875 11.8125-17.94585 40.810479-35.86664 81.627039-53.8125 122.437499 2.28805-48.8743 5.18849-97.81705 7.3125-146.687499-4.88567-.477985-9.82835-.76438-14.8125-.875z"/><path d="m398.13355 98.027447c4.49349 41.571673 9.29148 83.128893 13.87026 124.699253-19.33152-37.13379-38.13082-74.59189-57.54328-111.67714-3.80181 1.73317-7.5168 3.59594-11.14499 5.59307 1.7643 3.35263 3.45798 6.73655 4.88964 10.2405 16.91355 34.13719 33.82518 68.26446 50.73876 102.40163-30.85186-28.30593-61.2924-57.10643-92.24636-85.29359-2.97807 2.93998-5.84225 5.99997-8.58639 9.14807 2.48258 2.28277 4.88922 4.65213 7.15761 7.15258 27.76684 26.46658 55.53738 52.91433 83.30423 79.38092-38.54118-15.97952-76.89282-32.55419-115.48077-48.4067-1.7888 3.75833-3.4378 7.5871-4.94499 11.47996 2.39916 1.02495 4.76017 2.12209 7.04851 3.35034 35.91374 15.71723 71.83147 31.41318 107.74519 47.13043-41.75762-1.80456-83.53891-4.30212-125.29433-6.02659-.38316 4.10228-.58637 8.23443-.66164 12.3963 3.34244.14476 6.67995.36492 9.98528.8207 38.32681 2.44044 76.65541 4.88371 114.98221 7.32413-39.77745 12.45835-79.82305 24.46041-119.57358 37.13295 1.06056 4.07945 2.26119 8.08012 3.6069 12.01429 3.05785-.95356 6.12925-1.82291 9.25882-2.49194 36.8937-10.84056 73.79596-21.69898 110.68966-32.53954-33.06472 25.29472-66.44935 50.2454-99.45552 75.60997 2.3638 3.41849 4.81802 6.76295 7.41793 9.97921 2.31433-1.75688 4.67747-3.41616 7.13812-4.95958 31.21818-22.9793 62.43484-45.95786 93.653-68.93715-22.45199 35.04587-45.33509 69.87024-67.61774 105.03046 3.39285 2.41351 6.84968 4.7144 10.4139 6.86984 1.55203-2.39468 3.17286-4.73465 4.93483-6.97881 21.47456-32.2695 42.94649-64.5473 64.42104-96.81678-9.03027 40.61793-18.66464 81.17907-27.57103 121.81954 4.01511 1.11431 8.0851 2.07977 12.19797 2.89248.75556-3.35379 1.5989-6.69087 2.64162-9.95776 8.97204-37.01883 17.94515-74.03209 26.91717-111.0509 5.34599 41.19074 10.26275 82.4636 15.71387 123.63855 4.13408-.32869 8.28518-.84315 12.44639-1.48854-.33955-2.75897-.59966-5.51015-.6909-8.27909-4.31584-38.52491-8.63008-77.04246-12.94591-115.56735 19.20179 36.88458 37.86599 74.09447 57.14002 110.93594 3.80325-1.72619 7.51494-3.60291 11.14497-5.59306-1.62301-3.11324-3.1594-6.2516-4.48635-9.49933-16.91359-34.13718-33.82988-68.29072-50.74346-102.4279 30.67445 28.14316 60.93593 56.81558 91.70607 84.8479 3.00015-2.94228 5.87416-6.00473 8.63894-9.15744-2.30689-2.1368-4.55012-4.3398-6.6652-6.67125-27.76685-26.46658-55.54203-52.94059-83.30889-79.40718 38.38496 15.92125 76.56538 32.47956 114.99672 48.2762 1.80861-3.75474 3.47065-7.59869 4.99751-11.48932-2.24965-.97053-4.45651-2.00593-6.60762-3.15794-35.9283-15.73572-71.85721-31.46883-107.78552-47.20455 41.68459 1.84058 83.39967 4.34339 125.08419 6.06409.40519-4.10703.6439-8.24255.74045-12.41038-3.27891-.14476-6.55333-.38432-9.79672-.82724-38.33541-2.42889-76.66369-4.83802-114.99911-7.26689 39.80725-12.48214 79.86792-24.48606 119.64771-37.17328-1.03901-4.08484-2.22987-8.08314-3.55438-12.02365-3.09941.96905-6.2174 1.83711-9.39014 2.51536-36.89369 10.84056-73.80065 21.67273-110.69436 32.51328 33.16989-25.37514 66.66016-50.38063 99.7689-75.82852-2.35231-3.43626-4.83254-6.77145-7.42262-10.00546-2.41599 1.8437-4.86866 3.61647-7.44214 5.23064-31.21816 22.97931-62.43481 45.95786-93.65297 68.93714 22.56165-35.21702 45.54653-70.21218 67.9321-105.54731-3.37643-2.41958-6.81835-4.74224-10.36606-6.90547-1.48022 2.28293-3.02089 4.52383-4.69274 6.66458-21.66297 32.55294-43.34078 65.09962-65.00376 97.65255 9.08071-40.87503 18.75566-81.67775 27.70718-122.57565-4.008-1.12081-8.07043-2.10331-12.17638-2.923443-.80318 3.630193-1.6983 7.217163-2.82563 10.749513-8.96532 36.99589-17.90867 73.99313-26.87401 110.98899-5.40565-41.42627-10.30679-83.00191-15.84975-124.400329-4.17853.330838-8.37621.831274-12.58243 1.485696z"/></g><path d="m565.87679 270.88861c0 78.5239-63.6562 142.1801-142.1801 142.1801s-142.1801-63.6562-142.1801-142.1801 63.6562-142.1801 142.1801-142.1801 142.1801 63.6562 142.1801 142.1801z" transform="translate(-23.69669 -4.638611)"/></g><path d="m-7231.2289 1404.0865 229.3839 145.0237-10.4265-49.2891 104.2654 59.7156-50.237 12.3223 192.4171 94.7867-73.9337-69.1943 44.5498-5.6872-275.8294-161.1374 12.3223 38.8625-79.6209-50.237 56.8721-7.5829-155.4503-89.0995 54.0285 78.673z" fill="#fff"/></g></svg>