<?xml version="1.0" encoding="utf-8"?>
<!-- Generator: Adobe Illustrator 15.0.0, SVG Export Plug-In . SVG Version: 6.00 Build 0)  -->
<!DOCTYPE svg PUBLIC "-//W3C//DTD SVG 1.1//EN" "http://www.w3.org/Graphics/SVG/1.1/DTD/svg11.dtd">
<svg version="1.1" id="PULO_2" xmlns="http://www.w3.org/2000/svg" xmlns:xlink="http://www.w3.org/1999/xlink" x="0px" y="0px"
	 width="600px" height="360px" viewBox="0 0 600 360" enable-background="new 0 0 600 360" xml:space="preserve">
<rect y="269.998" fill="#FFFFFF" width="600" height="90.002"/>
<rect y="179.998" fill="#E30613" width="600" height="90"/>
<rect y="89.999" fill="#FFFFFF" width="600" height="90.001"/>
<rect fill="#E30613" width="600" height="90.001"/>
<rect width="300" height="180"/>
<polygon fill="#FFD700" points="182.507,58.894 190.228,82.655 215.213,82.655 195.001,97.343 202.721,121.105 182.507,106.419 
	162.293,121.105 170.014,97.343 149.8,82.655 174.786,82.655 "/>
<path fill="#FFD700" d="M56.982,90c0-29.345,21.661-53.623,49.865-57.737c-4.913-1.307-10.071-2.013-15.396-2.013
	c-32.999,0-59.75,26.751-59.75,59.75s26.751,59.75,59.75,59.75c5.324,0,10.482-0.705,15.396-2.013
	C78.644,143.623,56.982,119.346,56.982,90z"/>
</svg>
