<?xml version="1.0" encoding="UTF-8" standalone="no"?>
<!-- Created with Inkscape (http://www.inkscape.org/) -->
<svg
   xmlns:svg="http://www.w3.org/2000/svg"
   xmlns="http://www.w3.org/2000/svg"
   version="1.0"
   width="500"
   height="300"
   id="svg2">
  <defs
     id="defs4" />
  <g
     transform="translate(-2.5856524,-399.45202)"
     id="layer1">
    <g
       id="g4276">
      <g
         transform="translate(189.32401,192.56941)"
         id="g3210">
        <rect
           width="500"
           height="100"
           x="-186.73836"
           y="206.88261"
           style="fill:#cc3333;fill-opacity:1;stroke:none;stroke-width:1;stroke-miterlimit:4;stroke-dasharray:none;stroke-opacity:1"
           id="rect2221" />
        <rect
           width="500"
           height="100"
           x="-186.73836"
           y="306.88263"
           style="fill:#ffffff;fill-opacity:1;stroke:none;stroke-width:1;stroke-miterlimit:4;stroke-dasharray:none;stroke-opacity:1"
           id="use2223" />
        <rect
           width="500"
           height="100"
           x="-186.73836"
           y="406.88263"
           style="fill:#408040;fill-opacity:1;stroke:none;stroke-width:1;stroke-miterlimit:4;stroke-dasharray:none;stroke-opacity:1"
           id="use2225" />
      </g>
      <rect
         width="200"
         height="300"
         x="2.5856524"
         y="399.45203"
         style="fill:#333333;fill-opacity:1;stroke:none;stroke-width:1;stroke-miterlimit:4;stroke-dasharray:none;stroke-opacity:1"
         id="rect3215" />
      <path
         d="M 123.87244,632.39777 C 147.92974,627.83537 169.30254,605.82197 174.7824,579.96187 C 182.9671,541.33747 166.41302,509.19127 128.52986,490.14457 C 112.80179,482.23687 109.35133,479.39697 105.02122,470.79567 L 102.34335,465.47637 L 97.569326,473.43197 C 93.044446,480.97237 91.889726,481.86607 75.443336,490.55677 C 54.111076,501.82937 43.281096,511.89837 35.993336,527.23497 C 29.604366,540.68007 27.716746,550.25287 28.514506,565.16287 C 29.250846,578.92477 32.642476,590.00967 39.283256,600.35847 C 46.111176,610.99887 61.903796,625.38607 66.783406,625.41137 C 67.754646,625.41637 69.261216,623.85797 70.131346,621.94827 C 72.090826,617.64767 73.097706,617.62837 78.651856,621.78437 C 91.902586,631.69937 107.83587,635.43897 123.87244,632.39777 z M 96.684906,618.45977 C 91.949196,616.90927 85.386696,613.58657 82.101576,611.07607 C 77.076696,607.23597 76.205146,605.86277 76.610686,602.42427 C 77.745246,592.80467 81.949796,592.63187 90.869966,601.83807 C 97.256736,608.42967 102.3308,611.53167 106.72627,611.53167 C 110.39833,611.53167 117.99176,603.39287 119.72873,597.59537 C 121.09175,593.04597 121.93171,592.06167 123.788,592.83837 C 132.80845,596.61277 133.64156,596.75707 137.1583,595.15477 C 139.13092,594.25597 142.63761,590.54187 144.95096,586.90117 C 160.99114,561.65717 152.2221,528.69927 125.70482,514.56567 C 99.003556,500.33407 66.421306,511.35717 53.462046,539.00657 C 50.192326,545.98267 49.743536,548.63697 49.770906,560.83717 C 49.807506,577.15427 53.112206,589.59377 60.792616,602.32487 C 69.504446,616.76567 65.661986,618.82317 53.414646,606.27557 C 29.211076,581.47837 27.977016,544.00667 50.550536,519.30767 C 82.871346,483.94347 141.72368,491.27407 162.46831,533.24807 C 171.10285,550.71887 170.57945,571.82287 161.06068,590.00387 C 148.25775,614.45767 121.11114,626.45717 96.684906,618.45977 z M 91.152176,591.04547 C 84.482766,582.74577 84.003996,582.41207 78.729256,582.38617 C 73.720066,582.36167 72.011676,584.02557 69.332146,591.53867 L 67.402826,596.94827 L 62.737956,587.22607 C 58.388706,578.16167 58.075896,576.56407 58.114766,563.61497 C 58.149656,551.98847 58.660216,548.77057 61.249176,543.86017 C 65.113736,536.53037 72.537116,529.01737 79.290526,525.60107 C 88.078856,521.15527 105.98974,518.20797 105.98974,521.20757 C 105.98974,524.03637 98.227396,533.07207 92.749006,532.36497 C 90.583066,532.08537 89.323076,533.15367 89.323076,534.54057 C 89.323076,536.09457 90.414366,536.59057 93.142526,536.27667 C 95.538076,536.00097 96.807516,535.11497 96.547666,533.89987 C 96.216866,532.35297 90.880546,531.41567 103.83934,532.75777 C 111.66979,533.56877 113.20991,532.69767 109.46196,529.58717 C 108.31613,528.63627 107.37863,526.37217 107.37863,524.55597 C 107.37863,520.04007 111.43964,520.22047 121.97459,525.20437 C 141.19022,534.29507 149.95796,555.06027 141.99398,572.61777 C 138.26588,580.83677 135.46084,583.75387 131.28564,583.75387 C 127.90472,583.75387 118.53978,578.86257 118.43759,577.04337 C 118.40891,576.53277 116.17183,573.61497 113.46631,570.55937 L 108.54717,565.00387 L 109.45898,571.94827 C 109.96048,575.76777 111.57256,580.95967 113.04138,583.48597 C 116.41813,589.29387 116.39828,591.40087 112.93418,594.86497 C 110.9072,596.89197 108.30455,597.64277 103.30496,597.64277 C 96.801256,597.64277 96.184416,597.30787 91.152176,591.04547 z M 84.362756,564.90467 C 85.749286,563.51807 86.545296,560.25537 86.545296,555.95887 C 86.545296,548.35347 84.529226,545.67067 83.173406,551.47177 C 81.281926,559.56477 78.996826,563.31047 74.849306,565.11647 L 70.573076,566.97847 L 76.376646,567.03277 C 79.863656,567.06547 83.051406,566.21597 84.362756,564.90467 z M 94.412196,559.54167 C 93.952796,558.34447 92.932306,557.36497 92.144446,557.36497 C 90.546526,557.36497 90.181496,561.92707 91.661046,563.40667 C 93.185766,564.93137 95.326416,561.92407 94.412196,559.54167 z M 113.58621,559.65107 C 115.49949,558.25207 116.13234,556.06967 116.05763,551.12827 C 116.00241,547.47507 115.51943,543.77147 114.69162,543.63387 C 112.93487,543.34187 112.4867,544.85567 112.51715,540.31957 C 112.53867,537.11357 107.66129,535.69337 105.8961,537.45857 C 104.12976,539.22497 107.40689,546.04257 110.50363,547.04397 C 115.95853,548.80787 112.03458,557.36497 105.77081,557.36497 C 102.11686,557.36497 101.73857,557.67297 103.21197,559.44827 C 105.36295,562.04007 110.19,562.13447 113.58621,559.65107 z M 100.18357,550.76777 C 100.42767,549.04897 101.52142,547.64277 102.61413,547.64277 C 104.87487,547.64277 105.31301,544.08017 103.21197,542.78167 C 102.44808,542.30947 101.82308,540.71017 101.82308,539.22747 C 101.82308,537.74477 101.17847,536.53167 100.3906,536.53167 C 98.043246,536.53167 97.097536,540.87327 98.837876,543.66007 C 99.728796,545.08667 99.873256,546.25387 99.158906,546.25387 C 98.444556,546.25387 97.600136,547.34757 97.282406,548.68437 C 96.826146,550.60407 96.374056,550.31207 95.131606,547.29547 C 94.135616,544.87727 92.510826,543.47607 90.702756,543.47607 C 85.969316,543.47607 85.687416,547.53597 90.164266,551.23117 C 95.077636,555.28667 99.571296,555.07887 100.18357,550.76777 z "
         style="fill:#ffffff;fill-opacity:1"
         id="path3285" />
    </g>
  </g>
</svg>
