<svg height="400" width="800" xmlns="http://www.w3.org/2000/svg"><path d="m-.13513514 200.54056v-200.00000242h399.99999514 400v200.00000242 200h-400-399.99999514v-200z" fill="#da251d"/><g fill="#fff" transform="translate(0 24.000018)"><path d="m388.59806 305.04147c-4.15281-.43158-7.77612-1.01275-8.0518-1.29147-.27565-.27872-1.74277-.50863-3.26023-.51092-1.51744-.002-3.62991-.45837-4.69435-1.01351-1.06443-.55514-2.639-1.00935-3.49903-1.00935-.86001 0-2.01977-.45608-2.5772-1.01352-.55745-.55743-1.36839-1.01351-1.80213-1.01351-.43372 0-1.59565-.42087-2.58204-.93526-.9864-.51438-3.48071-1.7101-5.54292-2.65711-2.0622-.94702-5.331-2.78612-7.26396-4.08691-1.93298-1.30078-4.12239-2.55802-4.86539-2.79384-.743-.23583-1.3509-.71232-1.3509-1.0589s-.3289-.63014-.73088-.63014c-.76116 0-6.87068-4.68798-7.26462-5.57433-.12389-.27871-.59971-.50675-1.05743-.50675-.89212 0-9.86599-8.89021-9.86599-9.774 0-.173-.83615-1.19253-1.85811-2.26563-1.02196-1.07308-2.31419-2.63903-2.87162-3.47987-.55743-.84082-1.49351-2.17773-2.08016-2.97086-3.92822-5.31079-7.3793-10.70505-7.3793-11.53427 0-.53718-.27256-1.14516-.6057-1.35104-.96831-.59846-3.44835-5.70644-3.44835-7.10235 0-.70084-.25004-1.37559-.55565-1.49946-.53353-.21625-3.24996-8.40152-4.89583-14.75225-1.70836-6.59181-2.24288-12.32244-2.23738-23.98649.007-14.13154.71719-19.83964 3.58316-28.7861 1.14326-3.56885 2.07867-6.99055 2.07867-7.6038 0-.61324.60811-2.24959 1.35135-3.63633.74324-1.38672 1.35135-2.9059 1.35135-3.37593 0-.47002.30406-.8546.67568-.8546s.67567-.58639.67567-1.30308c0-.71671.45608-1.75917 1.01352-2.31661.55743-.55742 1.01351-1.37941 1.01351-1.82662 0-.44719.60322-1.78913 1.34049-2.98206l1.34048-2.16896-2.97122-2.13375c-1.63416-1.17359-3.46429-2.13378-4.06695-2.13378s-1.83335-.4833-2.73487-1.074c-2.94534-1.92986-18.15743-.68739-27.14959 2.21749-2.89598.93554-3.68135.97832-4.56081.24843-.5843-.48495-1.06239-1.16664-1.06239-1.51489 0-.76623 4.88045-5.19375 16.24995-14.7419 4.96116-4.16638 6.04734-5.27743 6.04734-6.1857 0-1.30168-5.00144-5.63247-8.51648-7.37447-2.66836-1.3224-4.35284-1.63963-8.71325-1.64093-5.31315-.002-8.35975.93229-12.70849 3.89547-1.72445 1.17502-3.16989-.93816-3.16989-4.63432 0-2.34919-.41133-3.25516-2.36486-5.2087-1.30147-1.30147-2.36487-3.04856-2.36487-3.88531 0-1.90275 5.54458-7.273935 8.01716-7.766435.97906-.195021 2.71389-.648088 3.85514-1.006818 2.81585-.885122 10.12414-.823689 13.07973.109926 5.68572 1.796013 14.33412 6.854657 18.58245 10.869287.76888.72658 2.19726 1.74009 3.17419 2.25224.9769.51215 1.95556 1.39851 2.17473 1.96969.63493 1.65454 2.10352 1.23065 5.76578-1.6642 1.88053-1.48648 3.73218-2.7027 4.11473-2.7027s.69555-.30405.69555-.67568c0-.94093 2.2614-.84671 3.24325.13514.4991.49909.81081 2.94579.81081 6.36416 0 3.43192.36477 6.28409.95487 7.46622.52518 1.05208 1.51336 3.09709 2.19595 4.54446.68259 1.44738 2.18768 3.65024 3.34464 4.89523l2.10357 2.26363 2.28832-2.74098c1.25858-1.50753 3.16227-3.20564 4.23043-3.77358 1.75366-.93242 2.04691-.92781 3.02217.0474.98965.98965.97017 1.28413-.23251 3.51736-.72189 1.34052-1.70182 2.58667-2.17757 2.76924-.47576.18256-.86501.76503-.86501 1.29436s-.45608 1.13744-1.01351 1.35135-1.01351.63911-1.01351.94489c0 .95574 18.88673 19.49275 19.25439 18.89787.19169-.31017.14577-13.92709-.10207-30.2598-.4242-27.953982-.52077-29.677495-1.64662-29.383083-.65781.17202-1.35953.738885-1.55938 1.259696-.50362 1.312358-4.21172 1.21675-4.72538-.121845-.22558-.587824-.41013-4.068973-.41013-7.735885v-6.667108l2.49604-1.892487c5.8866-4.463142 6.35834-5.110709 5.45889-7.493601-.45034-1.193041-1.0232-2.169169-1.27306-2.169169-.24985 0-.65429-.796865-.89874-1.770811-.24443-.973952-.88551-2.211878-1.4246-2.750966-1.31563-1.315628-1.23417-3.03352.28923-6.099311.69818-1.40502 2.29445-4.742398 3.5473-7.416392 2.99425-6.390669 4.74462-7.114743 6.59638-2.728709.50737 1.201804 1.94771 4.330682 3.20069 6.953047 2.39843 5.01973 2.97802 9.572825 1.43354 11.261926-1.37767 1.506669-3.20946 5.270372-3.20946 6.594324 0 .741345 1.46617 2.204081 3.68646 3.677825 2.02756 1.345817 3.87613 2.753837 4.10797 3.128959.4978.805486.90447 14.104919.46882 15.332541-.45745 1.289074-3.45199 1.006804-5.37617-.506757-.94489-.743243-1.98102-1.351352-2.30252-1.351352-.69854 0-.75119 18.830928-.13503 48.323178l.44951 21.51653 3.73238 4.43825c2.05277 2.44104 4.13089 4.68141 4.61802 4.97859.48715.29719.8857.81879.8857 1.15913 0 .34036.83615 1.51573 1.85811 2.61196 5.40622 5.79913 8.9527 9.98278 8.9527 10.56117 0 .18155.53209.8861 1.18243 1.56565 1.30163 1.36008 2.5439 2.84172 6.58886 7.85841 1.48591 1.8429 3.21761 3.87909 3.84818 4.52488 2.91632 2.98671 3.97443 8.02183 1.67959 7.99262-2.87932-.0367-8.68839-3.39926-14.90032-8.6251-1.6432-1.38236-3.98613-3.27351-5.20652-4.20256-1.22039-.92906-3.25875-2.60136-4.52971-3.71622-1.27096-1.11487-3.11665-2.71691-4.10154-3.5601-.9849-.84318-2.3228-2.03658-2.97313-2.652-1.12096-1.06076-1.18456-.823-1.22341 4.57361-.0225 3.13089-.10107 14.05403-.17453 24.27362-.0734 10.2196-.3916 19.11318-.707 19.76352-.41514.85603-1.38177 1.18243-3.5018 1.18243-1.61061 0-3.12468-.31763-3.36461-.70584-.23992-.38822-.39578-5.32909-.34634-10.97973.0494-5.65065-.12319-18.33132-.38362-28.17929l-.4735-17.90541-2.1538-2.02703c-2.88271-2.71306-5.77638-5.06756-6.22798-5.06756-.20211 0-1.49756-.98818-2.87878-2.19595-3.319-2.90222-6.38555-5.41583-7.62484-6.25-.55211-.37162-2.76591-2.04294-4.9196-3.71405-2.54704-1.9763-4.01535-2.73968-4.20061-2.18388-.15666.46998-.71377 1.28343-1.23802 1.80768-.52425.52424-.95318 1.81116-.95318 2.8598s-.45081 4.0349-1.00179 6.6361c-.55096 2.60122-1.00178 7.618-1.00178 11.1484 0 3.53041.4508 8.54719 1.00178 11.1484.551 2.60121 1.00179 5.53098 1.00179 6.5106 0 .97963.4542 2.65203 1.00935 3.71647.55514 1.06445 1.02089 2.69548 1.035 3.62453.0141.92906.47206 2.2794 1.01767 3.00077.54562.72136.99203 1.67089.99203 2.11005 0 .78349 2.14963 5.73099 3.3573 7.72702.33726.55743 1.31612 2.53378 2.17525 4.39189s1.90911 3.68244 2.3333 4.05406c.42418.37162 1.53102 1.89189 2.45962 3.37838 3.39572 5.43576 15.84139 16.80048 23.83247 21.7625 2.31315 1.43636 8.30098 4.25101 9.04346 4.25101.39465 0 .71752.26519.71752.58932 0 .32412 1.1402.77737 2.53378 1.00721 1.39358.22985 3.4089.87899 4.47847 1.44256 1.06961.56356 5.02229 1.65675 8.78379 2.42929 9.31734 1.91363 29.8283 1.55926 37.2445-.64346 6.98311-2.07406 11.23507-3.49309 13.51351-4.50988 1.11487-.49751 2.48311-1.07934 3.04054-1.29293.55744-.2136 1.92568-.99664 3.04054-1.74012 1.11487-.7435 2.55912-1.53573 3.20946-1.76056.65034-.22481 1.18244-.67736 1.18244-1.00564 0-.32827.40898-.59687.90878-.59687.49986 0 1.45912-.60811 2.13176-1.35135.67263-.74325 1.47432-1.35135 1.78162-1.35135.30723 0 1.60148-.98818 2.87608-2.19595 1.27459-1.20777 3.86459-3.62701 5.75554-5.37608 1.89094-1.74907 3.43811-3.33214 3.43811-3.51793s1.20871-1.64325 2.68601-3.23879c1.47737-1.59555 3.03453-3.73713 3.46041-4.75909.42581-1.02196 1.00601-1.85811 1.28919-1.85811.2831 0 .69358-.5321.91189-1.18243.21844-.65034.7579-1.79054 1.19892-2.53379 2.48162-4.18236 4.37864-8.45946 5.99351-13.51351.83115-2.60135 1.91466-5.94595 2.40777-7.43243.49304-1.48649 1.25736-6.95946 1.69851-12.16217.88102-10.39119.11021-21.37394-1.99858-28.47761l-1.09594-3.69205-1.49088 1.38887c-.81993.7639-1.67007 1.3889-1.88912 1.3889-.21913 0-1.10284.76014-1.96386 1.68919-.86101.92906-1.83466 1.69064-2.16371 1.69242-.32899.002-1.75527 1.06597-3.1696 2.36487-1.41425 1.29889-2.85851 2.36163-3.20946 2.36163-.35087 0-.63804.23183-.63804.51519 0 .28335-2.71973 2.48774-6.04391 4.89865l-6.04392 4.38346-.0927 10.81081c-.051 5.94595-.0507 18.62842.00061 28.18329.0614 11.43125-.15878 17.84358-.64392 18.75-.54886 1.02557-1.41203 1.37757-3.37785 1.37757-4.77304 0-4.74425.1608-4.74425-26.51727v-23.51389l-1.85811 1.18873c-1.02196.65379-2.16216 1.52387-2.53378 1.9335-.37163.40964-2.63629 2.23815-5.03257 4.06336-2.39635 1.82519-4.8527 3.77462-5.45851 4.33206-4.73487 4.35626-12.40849 9.66837-15.64688 10.83162-2.04323.73394-2.67889.73682-3.54729.0161-1.42484-1.18249-1.332-2.22158.37127-4.15651.7861-.89302 1.92391-2.38379 2.52848-3.31285 1.58528-2.43616 1.79239-2.69398 5.15488-6.41746 1.67724-1.85731 3.04954-3.58397 3.04954-3.83703s.98817-1.5449 2.19594-2.87078c1.20777-1.32587 2.5-2.79585 2.87162-3.26661.70102-.88799 6.26723-7.57859 10.59683-12.73739 1.36878-1.63091 3.5729-4.18154 4.89811-5.66802l2.40939-2.70271.00047-34.94502c.00061-33.001191-.0651-34.92009-1.18182-34.497252-.65034.246257-1.58419.844824-2.07527 1.330148-1.25446 1.239717-4.61568 1.117278-5.11595-.186378-.52878-1.37798-.51676-12.315885.0157-14.302844.22406-.836149.75203-1.523075 1.17318-1.5265 1.0648-.0087 7.20811-5.564115 7.1952-6.506683-.006-.423324-1.22669-2.850926-2.71317-5.394682-1.48649-2.543764-2.70271-4.84075-2.70271-5.104426 0-.263669 1.1775-3.004987 2.61662-6.091804 1.43913-3.086818 2.94433-6.429777 3.34487-7.428811 1.84595-4.603919 4.97351-3.497581 7.26709 2.570601.68608 1.81494 1.63886 3.701656 2.11744 4.19273.47858.491061.8702 1.337919.8702 1.881879 0 .543973.49946 1.75127 1.10986 2.682898 1.06973 1.632656 1.00865 1.89821-1.69148 7.347318-2.49771 5.040486-3.02041 7.803155-1.47649 7.803155.51608 0 2.37541 1.484439 5.60541 4.475162 1.7754 1.643885 1.8581 2.005635 1.8581 8.126534 0 7.301169-.59452 9.073581-2.86277 8.534885-.84101-.199729-1.83317-.723243-2.20479-1.163358-.37162-.440108-1.20777-.999865-1.85811-1.243892-1.11527-.418486-1.18243 1.299135-1.18243 30.24538v30.68905l6.76635-6.8927c3.72142-3.79097 7.98284-8.1089 9.46979-9.59539l2.70359-2.7027-3.09865-3.54191c-2.1121-2.41428-3.02966-4.02766-2.88203-5.06758.33608-2.367 2.6552-2.23891 5.46966.30208 3.98298 3.59586 4.43439 3.91552 5.52926 3.91552.57311 0 1.04203-.40896 1.04203-.90879 0-.49984.58013-1.43378 1.28912-2.07543.70892-.64164 2.22925-3.13486 3.37838-5.54047 1.82682-3.82461 2.08925-5.093 2.08925-10.10122 0-5.44037.0839-5.76562 1.6748-6.49046 1.4373-.6549 2.08385-.49024 4.56081 1.16164 1.58723 1.05859 3.20885 2.3005 3.60345 2.75979 1.53811 1.79039 4.08419 1.77891 6.11865-.0276 4.81243-4.2732 9.53756-7.83152 10.39952-7.83152.36838 0 .6698-.31158.6698-.6924s.68412-.992165 1.52027-1.358543c.83615-.366372 2.73649-1.409858 4.22297-2.318838 1.48649-.908966 3.53446-1.665878 4.55108-1.682 1.01669-.01611 3.18886-.387811 4.8271-.82598 3.46074-.925621 11.93344.245338 13.5625 1.874406.52216.522121 1.27419.949297 1.67128.949297 1.47568 0 6.13129 4.890918 6.13129 6.441238 0 .85485-.22804 1.65561-.50676 1.77949-.27872.12387-1.34291 1.23672-2.36487 2.47301-1.39655 1.68942-1.8581 2.97648-1.8581 5.18122 0 3.37421-.51311 5.07099-1.53338 5.07099-.39223 0-2.10804-.87708-3.81291-1.94908-6.07148-3.81774-12.70196-4.26332-18.97804-1.27535-3.44574 1.64048-8.10811 6.19321-8.10811 7.91742 0 .63119 1.25 2.18989 2.77771 3.46379 1.52777 1.2739 3.33283 2.79123 4.01128 3.37184s2.06088 1.6448 3.0721 2.36486c1.01114.72008 3.66243 3.05753 5.89168 5.19436 2.22926 2.13682 4.35223 3.88513 4.71764 3.88513 1.0073 0 2.39703 2.19162 2.0173 3.18116-.4375 1.1398-3.56304 1.11229-6.7646-.0595-2.97925-1.09048-16.17723-3.13813-20.16358-3.12838-4.81223.0118-11.46838 2.58807-14.89757 5.76615l-1.7352 1.60807 1.58331 3.24193c.87081 1.78307 1.81237 3.41238 2.09237 3.6207.88006.65478 6.6627 15.43771 7.06554 18.06252.21142 1.37757.61932 2.80872.90642 3.18034.28723.37163.8425 2.5 1.23419 4.72973 2.08675 11.8793 2.67973 25.2594 1.46378 33.03021-.35561 2.27258-.99047 6.71642-1.41088 9.8752-.42034 3.15878-.97885 6.0473-1.24101 6.41892-.26223.37162-1.03615 2.34797-1.71987 4.39189-.68371 2.04392-1.61729 4.62838-2.07466 5.74324-.45736 1.11487-1.38601 3.39527-2.06365 5.06757-.67763 1.6723-1.63108 3.52056-2.11878 4.10726-.4877.58669-.88676 1.301-.88676 1.58734 0 .92475-4.9025 8.49459-5.50142 8.49459-.31885 0-.57966.31636-.57966.70303 0 .66736-2.24338 4.13011-3.73405 5.76373-.38142.41798-1.88811 2.32653-3.34825 4.2412-1.4602 1.91468-2.89642 3.48123-3.19169 3.48123-.29533 0-.53682.45608-.53682 1.01351 0 .55744-.22804 1.01781-.50676 1.02306-.27871.005-1.875 1.25432-3.54729 2.77573-1.6723 1.52143-4.10473 3.56776-5.40541 4.54744-1.30068.97966-2.51689 1.93498-2.7027 2.1229-.99541 1.00672-4.77264 3.38222-5.37804 3.38222-.38669 0-.70304.22856-.70304.50792s-1.44426 1.26009-3.20946 2.17942c-1.76521.91933-3.36149 1.86804-3.5473 2.10828-.18581.24022-1.85811 1.09634-3.71622 1.90247-1.85811.80614-4.1854 1.90925-5.17182 2.45137-.98642.54213-2.27865.98568-2.87162.98568-.59298 0-1.07818.29028-1.07818.64506 0 .35476-1.1402.83022-2.53378 1.05653-1.39358.22629-3.29392.74391-4.22298 1.15022-6.21412 2.71769-28.2203 4.3283-40.99652 3.00048l-.00001-.00001z"/><path d="m399.95196 89.405405 9.2012 27.403155h27.6036l-23.003 16.68018 9.2012 27.40316-23.003-16.68018-21.85286 16.68018 9.2012-27.40316-23.003-16.68018h27.6036z"/></g></svg>