<svg fill-rule="evenodd" height="300" image-rendering="optimizeQuality" shape-rendering="geometricPrecision" text-rendering="geometricPrecision" viewBox="0 0 600 300" width="600" xmlns="http://www.w3.org/2000/svg"><path d="m0 0h600v300h-600z" fill="#fcd116"/><path d="m0 0h300v150h-300zm300 150h300v150h-300z" fill="#da251d"/><g fill="#fff"><path d="m189 35-3 30 27 14-30 6-3 30-15-27-31 6 21-22-15-28 28 13zm-10 11"/><path d="m147 140c-31-5-55-32-55-66 0-33 25-61 58-66-2 0-12-1-15-1-38 0-68 30-68 67s30 67 68 67c4 0 8 0 12-1z"/></g></svg>