<svg xmlns="http://www.w3.org/2000/svg" width="1000" height="700"><path fill="#a63c47" fill-rule="evenodd" d="M0 0h1000v700H0z"/><path d="M601.016 256.993c-25.056 14.859-45.762 36.278-59.582 62 0 0 42.711 23.407 42.199 72.926a89.197 89.197 0 0 1-.826 11.212c-5.073 75.046-66.983 133.888-143.35 133.888a144.66 144.66 0 0 1-29.229-2.985C436.215 550.462 466.985 560 500 560c92.972 0 168.343-75.373 168.343-168.346 0-55.062-26.447-103.947-67.327-134.66z" fill="#fff"/><path d="M439.457 529.802c60.062 0 111.558-38.482 130.234-92.198-15.329 22.59-37.808 31.495-37.808 31.495-11.14-22.452-17.401-47.755-17.401-74.516 0-60.236 31.715-113.06 79.359-142.694-.004-.006-.007-.006-.007-.006 16.005-9.95 33.786-17.32 52.79-21.426 0 0-44.604-20.555-105.834-7.9 0 0-11.669-55.67-40.057-81.328L499.85 140l-.833 1.228c-28.392 25.658-40.06 81.328-40.06 81.328-61.23-12.655-105.834 7.9-105.834 7.9 19.056 4.12 36.878 11.519 52.922 21.503l-.014.013c47.57 29.647 79.233 82.43 79.233 142.61 0 26.76-6.265 52.065-17.4 74.516 0 0-51.162-20.227-51.754-77.18-.513-49.519 42.201-72.925 42.201-72.925-13.795-25.673-34.445-47.059-59.434-61.917-40.818 30.72-67.22 79.564-67.22 134.577 0 52.42 23.962 99.241 61.523 130.116a136.939 136.939 0 0 0 46.277 8.033z" fill="#fff"/></svg>