<?xml version="1.0" encoding="UTF-8"?>
<svg xmlns="http://www.w3.org/2000/svg" width="1000" height="700">
<rect width="1000" height="700" fill="#900"/>
<path fill="#fff" d="m150,93.5,176.688,116.109c98.4932,62.5992,220.087,129.025,263.344,165.922,18.0876,15.4286,14.8318,64.4767-6.625,88.2343-9.9936,11.0652-83.6973,56.3995-140.781,90.7344,5.80526-10.5609,9.10937-22.6887,9.10937-35.5937,0-40.8495-33.0882-73.9688-73.9062-73.9688-40.8181,0-73.9062,33.1193-73.9062,73.9688,0,24.8597,12.2534,46.8586,31.0469,60.2656l-52.5156,30.8906,97.375-16.3281c18.4574-2.8191,86.469-13.4338,164.937-28.5469,86.1728-16.5968,175.608-30.4399,186.281-32.5781,32.1068-6.4319,88.2286-7.5345,93.875-73.875,1.50825-34.7441-17.7931-63.9604-56.9532-93.5313-140.378-96.76-308.369-143.352-463.719-210.031-88.239-35.225-154.25-61.672-154.25-61.672z"/>
</svg>