<svg height="700" width="1000" xmlns="http://www.w3.org/2000/svg" xmlns:xlink="http://www.w3.org/1999/xlink"><path d="m0 0h1000v700h-1000z" fill="#d0103a"/><path d="m0 0h680v700h-680z" fill="#fedf00"/><path d="m0 0h320v700h-320z" fill="#0018a8"/><path d="m469.37 188.48c12.051 0 16.979 10.338 29.029 10.338 7.4391 0 11.777-2.4293 18.261-6.087 4.5235-2.5618 7.4098-3.9272 12.605-3.9272 5.3188 0 8.5799 1.608 11.301 6.1669 1.5373 2.5796 2.814 7.6282 2.1378 10.525-1.2815 5.4935-2.0711 7.8814-4.2621 12.953-1.0426 2.4383-2.0278 3.8979-2.0278 6.5661 0 6.3963 8.704 8.5937 14.622 8.6852 1.2899.02 12.139.1981 18.815-6.5609-3.6222-.1594-7.6754-2.9642-7.6754-6.5867 0-4.0992 2.8804-6.8735 6.7854-8.0573.74205-.2119 2.0058.4432 2.6775.09.95395-.4947.50765-1.5685 1.3558-2.24 1.9436-1.5547 3.2071-2.5253 5.6986-2.5253 1.6254 0 2.5779.2291 3.8853 1.1656.68913.4947.94268 1.107 1.7908 1.107 1.7846 0 2.6682-1.1309 4.4529-1.1309 1.4489 0 2.3325.1945 3.6044.8481 1.0603.5479 1.0367 2.3489 2.2382 2.3489.6008 0 3.7786-1.2953 5.4395-1.2953 3.4458 0 5.2852 1.2474 7.5117 3.8625.60107.7068.9852 2.1369 1.5961 2.1369 1.2303 0 4.0651.7924 5.832 2.5594.75978.7597 1.0966 1.1194 1.6797 2.0381.40663.654 1.0299 2.2493 1.7484 2.5256.84194.3239 1.548.2617 2.655.9714 2.5256 1.6189 4.4684 4.6622 4.3774 7.611-.0304.9888-.48176 2.3677-.75105 3.3096-2.9409 10.284-9.9399 13.548-17.008 22.382-3.004 3.7637-5.3747 6.7673-5.3747 11.591 0 1.1664 1.436 3.3019 2.0722 4.2739-.38862-2.2664.64749-5.0508 3.0433-5.1803 3.282-.1776 5.8168 2.3176 6.2586 5.5689.0882.7598-.19451 2.0723-.51807 2.8492 1.7669-1.1661 4.0961-1.9543 6.2164-2.2017 1.1487-.1238 1.813-.1585 2.9789-.1294 5.2453.1294 11.034 3.0802 14.547 6.0639 10.749 9.1305 12.049 22.492 11.462 26.203-1.3043 8.2462-.4837 23.168-21.56 29.117 3.8977 1.6412 6.5493 4.5731 6.5493 8.1778 0 3.9227-3.0037 7.2798-6.9264 7.2798-2.2442 0-3.7992-.5479-5.3717-2.1203-4.3822 4.3819-5.2304 8.8525-5.2304 15.054 0 3.7108.70688 5.9018 2.2619 9.2589 1.6431 3.5518 2.8269 5.6367 5.7957 8.1988 1.5725-2.3677 3.2336-4.0994 6.0782-4.0994 2.7566 0 5.0891.8836 6.2198 3.3926.33573.7598.0353 1.3783.42408 2.1203.49471.9542 1.3254 1.1664 1.8378 2.1206.79496 1.4664.018 2.7209.7066 4.2405.4418.9896 1.4138 1.1309 1.8378 2.1203.67142 1.5198.84815 2.5621.84815 4.2407 0 4.7002-4.2762 8.0576-8.9764 8.0576-1.4135 0-2.191-.5656-3.6047-.4241 2.686 2.6857 4.7357 3.8518 6.7854 7.0677 2.9685 4.6473 3.7105 7.9515 4.382 13.429.12381 1.0249.1416 1.6434.1416 2.686 0 7.0324-1.0955 11.238-4.2407 17.528-3.004 6.0253-5.5661 9.365-11.026 13.287-8.5168 6.1314-14.719 7.8986-25.02 9.8951-6.6087 1.2722-10.39 1.8378-17.105 2.2616-8.5875.5479-13.482.5657-22.052 1.131-11.238.7598-19.03 2.3499-26.999 10.319 3.7637 2.7563 6.361 5.4597 6.361 10.107 0 4.7706-2.9508 8.1809-7.492 9.683-1.06.3531-1.8375.035-2.8272.5653-1.1838.6185-1.1309 1.9788-2.2616 2.6857-1.9968 1.2722-3.5516 1.555-5.937 1.555-4.2055 0-7.0682-.9894-10.037-3.9582-3.4455 2.8627-4.6118 5.4426-8.4814 7.6336-1.2725.7066-1.9262 1.6962-3.3926 1.6962-2.3148 0-3.3751-1.4666-5.2304-2.8272-2.9508-2.1558-4.5235-3.587-6.9267-6.361-3.5161 2.1026-5.6719 3.8166-9.7536 3.8166-2.5093 0-4.0994-.3534-6.2198-1.6963-1.1132-.6891-1.2899-1.714-2.4032-2.4031-1.1661-.7243-2.1381-.4593-3.3926-.9894-4.718-2.032-7.7748-5.5307-7.7748-10.672 0-4.5058 2.845-7.3684 6.9266-9.2592-7.828-7.8274-15.532-9.188-26.576-9.8948-8.5343-.5476-13.394-.5653-21.911-1.131-6.7674-.4592-10.531-1.1484-17.246-2.2616-5.0714-.8304-8.075-1.0955-12.722-3.2513-15.991-7.4565-26.187-17.687-28.272-35.198-.17671-1.5019-.14114-2.3677-.14114-3.8873 0-9.1176 3.5867-14.683 10.036-21.133-1.6611-.3889-2.774.1589-4.3822-.4241-4.0288-1.4666-6.9264-4.2584-6.9264-8.5523 0-1.5902.0707-2.6505.84814-4.0285.5476-.9719 1.5902-1.1664 1.8375-2.2619.31798-1.4487-.10603-2.4735.56562-3.8166.4415-.9011 1.2722-1.0778 1.6963-1.9791 1.3957-2.8976 3.1452-5.2301 6.361-5.2301 2.7563 0 4.5235 1.4489 5.937 3.8166 2.686-1.2367 3.428-3.2513 4.9476-5.7954 2.5267-4.2232 3.6754-7.174 3.6754-12.086 0-3.428-.33572-5.4423-1.4135-8.6936-.7775-2.3322-1.0958-3.9224-2.8272-5.6541-1.5728 1.5724-3.1278 2.1203-5.3717 2.1203-4.4883 0-7.916-3.8521-7.916-8.3401 0-3.3397 1.6431-5.8132 4.6648-7.2092-2.4209-2.0849-4.5235-2.2619-7.2092-3.9579-4.082-2.5799-5.5129-5.301-8.1989-9.3298-1.7495-2.6328-2.2087-4.4703-3.11-7.4917-1.0778-3.6399-1.6963-5.8134-1.6963-9.6123 0-.9894.018-1.5725.14115-2.5444 1.0074-7.6687 2.3857-12.475 7.2095-18.518 2.8624-3.587 4.8063-5.7957 9.047-7.6333 3.6044-1.555 5.7602-2.686 9.683-2.686 1.1838 0 1.873 0 3.0394.1416 1.8021.2297 2.9508.3887 4.5232 1.2723.6008.3357 1.6963 1.3428 1.6963.6359 0-.8126-.42405-1.2367-.42405-2.0497 0-3.251 2.3325-6.2195 5.5838-6.2195 2.35 0 3.3042 2.0672 4.4529 4.0995.74206-1.2371 1.1307-2.0852 1.1307-3.5342 0-5.3716-2.8801-8.1102-6.2195-12.298-7.2801-9.0999-16.398-13.358-16.398-25.02 0-3.4809 1.6786-5.8488 4.6648-7.6332.86585-.5127 2.0297 0 2.8779-.5425.72432-.4596.64133-1.395 1.1008-2.137.72433-1.1484 1.3656-1.6419 2.3731-2.5256 1.6608-1.4486 3.1193-1.0147 4.9568-2.2869.91878-.6362 1.1357-1.4624 1.8426-2.3106 2.0497-2.4737 3.8895-3.668 7.1231-3.668 1.6256 0 2.5377.01 4.0395.607.51244.1945 1.4698.9669 1.5942.8174.32387-.3883 1.2013-1.3183 2.2436-1.813 1.3606-.6537 1.9124-.9067 3.4322-.9067 1.7314 0 2.866.9714 4.5975.9714.63624 0 .78286-.6354 1.2953-.9714 1.5373-1.0423 2.422-1.6315 4.295-1.6315 1.8024 0 2.7979.5951 4.3175 1.5668 1.4312.9013 1.6372 2.1082 3.1038 2.9564.81268.4772 1.5018.2651 2.4032.5656 4.0285 1.3428 7.0679 4.0285 7.0679 8.2692 0 2.2971-.5479 3.9404-2.2619 5.4423-1.3606 1.2015-2.6505.9896-4.382 1.555 5.619 4.488 10.508 5.6012 17.682 5.6012 6.5732 0 14.612-2.6868 14.612-9.2597 0-3.0571-1.6898-4.6994-2.8914-7.5089-2.1558-5.0004-3.3253-7.9422-3.3253-13.384 0-4.3116.46964-6.9272 2.9789-10.426 2.5796-3.6045 5.7316-4.445 10.167-4.445z" fill="#c7b37f"/><g fill="none" stroke="#703d29"><path d="m425.59 223.46c.43223 1.6315 1.7517 3.1604 3.8197 3.8068 1.2441.3886 4.1208.233 5.9868-2.177 1.5125-1.9537 1.3969-4.3735.83211-6.2968-.36581-1.2447-1.3707-2.4457-2.6981-3.4683l-7.9374 8.0568-.002.079z" stroke-linejoin="round" stroke-width="1.041"/><path d="m626.61 343.94c-1.866-4.5092-6.6863-2.4879-6.9827 0-.68323 5.7321 4.3395 7.4638 7.9158 6.5307 1.7714-.4621 3.0673-1.5778 3.8957-3.0313.93454-1.64 1.2171-3.7797.61008-5.8235-.27492-.9269-.66242-1.7073-1.3254-2.581-.66579-.878-1.3544-1.4791-1.9993-1.8905-1.3755-.8779-2.8739-.9646-5.2239-.9646-8.7079 0-16.327 10.289-18.886 20.977-.84278 3.52-2.0013 11.371-.39592 18.815 1.7104 7.9301 5.1381 13.42 9.1598 17.585 2.1769 2.2546 5.1457 4.2618 8.9896 6.4351 1.1856.6705 4.3198 2.0609 6.4967 2.6831 2.2357.6388 4.3.5454 6.1582.1418 5.1598-1.1205 7.559-5.9189 4.9597-10.829-2.1279-4.0201-8.3967-6.2198-11.351-1.0885-.25071.4353-.64103 1.3836-.62835 2.4107.0158 1.3682.58418 3.0172 1.5612 3.6391 2.2458 1.4292 5.8382 1.0251 5.6713-2.9401" stroke-linecap="round" stroke-width="1.037"/><path d="m599.69 403.07c1.7478-2.0561 5.7569-5.1403 10.343-5.7034 4.6541-.5718 8.6986.7837 12.828 3.0048 8.0596 4.3347 12.554 8.9947 15.549 17.641.76063 2.1952 1.3915 5.5055 1.3037 9.0211-.14025 5.604-1.5629 11.73-3.0917 14.692-1.3336 2.5835-4.8204 13.994-23.946 21.868-11.161 4.5949-28.3 5.6538-40.118 6.1204-16.256.6416-31.254 1.2438-39.962 11.973" stroke-width="1.276"/><g stroke-width="1.121"><path d="m603.75 421.45c-.46629-1.7104-.0349-3.3501 1.3217-5.209 1.8139-2.4856 5.6756-3.3431 9.1745-1.3994 1.1703.6503 2.6378 1.5066 3.9649 3.2653.50202.6653 1.3504 1.7391 1.7883 2.4879 1.0586 1.8108 1.494 3.2927 1.703 3.8875 3.8453 10.928-2.2655 22.771-10.255 27.522-6.2062 3.6906-13.608 5.3357-22.469 6.3751-3.9826.4674-6.2569.4368-10.263.6222-3.2237.1493-6.0082.096-8.63.064-2.1575-.027-4.2049-.016-6.2969-.064-3.4156-.079-6.9497-.1589-11.274.1556-4.5497.3309-7.9729.4477-11.818 1.0884-2.5118.4187-5.4558.8226-8.5422 1.5151-.92609.2075-1.8651.3773-2.8092.6618-.63398.1912-1.2604.3853-1.8811.5746-5.5717 1.6994-10.985 3.7697-15.257 6.5209-1.3198.8501-2.8106 1.7011-3.8771 2.7079-.66466.627-1.472 1.2565-2.1237 1.8978-2.9899 2.9415-6.0473 6.1261-6.7623 10.438-.13192.7955-.13169 1.6293-.13169 2.507 0 2.7988 2.2774 6.6084 8.4195 7.8524"/><path d="m516.37 229.11c1.2852 2.3241 1.992 3.7378 1.2441 6.1421-.84731 2.7231-2.7783 4.3538-5.5202 4.3538-6.2198 0-9.8782-7.3642-7.075-12.051 4.976-8.3187 14.539-3.6466 23.402.4739-.42746-2.1338-1.1734-2.8278-1.0958-5.4712.19315-6.5642 5.061-9.5412 7.0046-15.605 1.1577-3.6124 1.6183-6.7497-1.0251-9.3155-2.3078-2.2396-4.9819-2.2056-7.9937-1.0248-6.0174 2.3587-13.246 9.1373-25.97 9.3256-12.724-.1883-20.012-6.9669-26.03-9.3256-3.0115-1.1808-5.686-1.2148-7.9934 1.0248-2.6435 2.5658-2.1831 5.7031-1.0252 9.3155 1.9436 6.0641 6.8116 9.0411 7.0043 15.605.0779 2.6434-.66833 3.3374-1.0955 5.4712 8.8633-4.1205 18.798-9.2119 23.402-.4739 2.5652 4.8688-.85519 12.051-7.0752 12.051-2.7417 0-4.6673-1.7481-5.5199-4.3538-.76005-2.3227 0-4.3538 1.2441-6.1421"/><g stroke-linecap="round"><path d="m491.5 224.79c2.4029 1.8378 4.0994 4.0994 3.8166 7.7748-.30645 3.9863-1.2722 4.9476-4.382 7.0679"/><path d="m494.68 233.7c-.14115 2.4029-1.1307 3.9579-3.5338 4.9473"/></g></g><path d="m432.4 214.49 1.0884.7775 1.1661 1.2441.7775 1.555.38862 1.3217.0779 1.7104-.0779 1.1661-.38862 1.3217-.7775.9328-.93312 1.0109-1.3214.6998-1.7106.3886-1.477.2333-1.555-.6999-1.3994-1.0105-.85517-1.244-.62218-1.555v-.6219l7.6195-7.2306z" fill="#c7b37f" stroke="none"/><path d="m430.01 220.57c-.47838-2.5813-3.4958-3.1109-4.6648-1.586-1.8001 2.3478-.48513 6.2572 3.1759 7.4014 1.2438.3889 4.1205.2333 5.9865-2.1769 1.5125-1.9537 1.3969-4.3735.83208-6.2969-.36552-1.2446-1.3642-2.3294-2.6981-3.3435-4.2511-3.2333-11.118-2.4879-13.373 2.9541-2.9086 7.0203 3.421 12.284 9.2522 16.249 7.3409 4.9918 15.705 5.8996 22.003 5.8312 14.306-.1556 25.19-6.9973 32.265-10.884 1.6482-.9056 3.3453-.7207 4.1982.3109.96295 1.1644.94748 3.0428-.38861 4.2759" stroke-linecap="round" stroke-width="1.041"/><path d="m387.6 414.35-3.1877 1.1663-3.2654 2.4879-1.3994 1.9436-1.7883 3.1098-.7775 2.3325-.6219 2.8768-.31096 2.1766" stroke-width="1.057"/><path d="m405.95 414.66-.23327 2.7991-.46629 1.9436-1.3997 3.343-2.1769 2.8768-2.3325 1.8659-1.7104.8552-2.4102.5443" stroke-width="1.057"/><path d="m499.6 489.23c-.57969 2.5878-3.0039 5.5484-8.279 6.6169 0 0-.62556.1292-1.0254.2118" stroke-width="1.197"/><path d="m631.59 406.57c3.3394 3.114 5.6851 6.905 7.488 12.109.76064 2.1952 1.3912 5.5056 1.3034 9.0211-.1398 5.6041-1.5626 11.73-3.0917 14.692-1.3333 2.5838-4.8201 13.994-23.946 21.868-11.161 4.5953-28.3 5.6539-40.118 6.1205-16.022.6326-30.822 1.2266-39.582 11.516" stroke-width="1.356"/><path d="m605.45 416.95c1.1881-1.6211 5.5174-3.6734 9.0163-1.7295 1.1515.6397 2.5163 1.4487 3.7136 3.2426" stroke-width=".929"/><path d="m627.51 402.79c.78229.3008 1.5604.5718 2.2436.7671 2.236.6387 4.3372.6883 6.1584.1418 4.4225-1.3265 7.2612-5.4589 4.9597-10.829-.53383-1.2452-1.5556-2.4392-2.7164-3.3335" stroke-width="1.356"/><path d="m375.44 287.13c-2.9685 1.8378-5.1823 2.2728-7.492 4.9475-2.2994 4.5531-3.2034 6.9991-4.1002 10.65" stroke-linecap="round" stroke-width="1.041"/><path d="m435.88 221.96c0 2.6856-1.9791 4.3819-4.6648 4.9475" stroke-linecap="round" stroke-width="1.041"/><path d="m620.49 275.03c7.3898-.1509 28.859 5.6392 29.012 30.876.15083 24.925-15.383 28.997-21.607 30.656" stroke-width=".997"/><path d="m622.43 275.03c12.743-.5541 25.892 8.8261 26.472 32.236.45249 18.289-12.517 26.584-18.742 28.243" stroke-width="1.037"/><g stroke-width=".881"><path d="m615.33 363.16.19608-2.5022.83407-3.9739 1.1774-3.0909 1.3245-2.5512 1.7171-2.0606"/><path d="m632.74 343.67-.19451 2.449-.69985 1.6718-1.0884 1.5939-1.2438.9328-1.9048.6996-1.6715.1168-1.2441-.1945"/><path d="m602.33 268.42.54422-2.6435 1.1661-2.449 1.5162-2.4491 2.6046-3.343 2.0601-2.2937 3.343-3.3818 2.8767-2.9156 1.8271-2.0993 2.4102-2.9153 2.1381-3.2265 1.2829-2.6435.69955-3.4207.21252-4.2418-.3886-1.2302"/><path d="m605.44 429.44 2.527-.5054 1.9048-1.0108 1.0496-1.0496.73867-1.205.5054-1.9436.0388-1.3606"/><path d="m364.94 403.38 1.8662.1555 2.4099-.1945 2.4102-.8552"/><path d="m379.44 345.38-.31093 2.1769-.50539.9717-.73869.9331-1.0108.7773-1.1273.5054-1.4773.2332-1.0108.078"/><path d="m388.73 326.65-.54424 3.3819-.66072 1.4774-1.3606 1.8659-1.8271 1.3994-1.866.9328-3.6154.8941"/><path d="m402.76 274.48-.69956 2.0213-.85516 1.4774-1.1664 1.6326-1.6327 1.4771-1.9436.9331-1.6327.3886-1.0108-.078"/><path d="m394.41 272.65.0391 1.555"/></g><g stroke-width=".987"><path d="m397.32 325.09c-1.1273 1.0105-2.2503 1.6304-3.2654 2.0289" stroke-linecap="round"/><path d="m629.24 397.16c.1335.1447.58137.2172.73866.3109 2.2157 1.3217 6.5774-.3264 5.2945-3.7474" stroke-linecap="round"/><path d="m621.54 349.38c1.5725 2.0547 4.5384 2.588 6.8827 1.9765 1.7717-.4621 3.0676-1.5781 3.8957-3.0312.93454-1.64 1.2173-3.7798.61038-5.8239-.27522-.9266-.66242-1.7069-1.3254-2.581-.66608-.8777-1.492-1.8111-2.1322-2.2298-.16974-.111-.33908-.2614-.51834-.383"/><path d="m638.99 390.46c.0678-.365.10333-.7409.10333-1.125 0-1.8105-.75725-3.468-2.0092-4.5857-.42746-.3816-.84138-.9736-1.3594-1.2328"/><path d="m636.47 384.25c-.0727-2.9123-2.456-4.9954-5.4099-5.5135"/><path d="m624.54 383.17c-.67874-.5544-1.4064-1.0246-2.0418-1.6895-3.8259-4.0044-6.7038-9.9242-6.7423-16.677-.0369-6.4737 2.5658-13.062 5.5979-15.627"/><path d="m533.07 481.44 2.7988-2.5658 1.9439-1.4771 3.654-2.2546 3.421-1.6326 2.4102-.6222 4.8204-1.0882 5.5979-.8554"/><path d="m511.61 501.2c-2.0216 3.11-6.842 7.7747-11.896 9.6407-5.0536-1.866-9.8738-6.5307-11.895-9.6407"/><path d="m491.28 494.73c-.63372 2.3489-1.7852 4.626-3.4677 6.4511" stroke-linecap="round"/><path d="m491.78 491.47-.69983 3.4206"/><path d="m487.43 501.42-1.4771 1.4773-2.6435 1.4771-3.0321.9331"/><path d="m471.46 227.45c.37933-1.1821.7671-2.0719.70996-4.0144-.19315-6.5642-5.0607-9.5412-7.0046-15.606-1.1577-3.612-1.618-6.7494 1.0254-9.3152 2.3075-2.2396 4.9816-2.2058 7.9934-1.0251 6.0174 2.359 13.308 9.1376 26.032 9.3259-12.724-.1882-20.015-6.9669-26.032-9.3259-3.0118-1.1807-5.9347-1.5255-8.2425.7142-2.6432 2.5658-1.9341 6.0141-.77639 9.6261 1.9439 6.0644 6.5628 9.0414 6.7558 15.606.0572 1.9425-.45501 2.8323-.83406 4.0144"/><path d="m500.18 206.37c12.517-.661 23.245-9.0712 26.706-9.7573 3.0856-.612 4.8086-.3354 7.0721 1.7213-2.2636-2.0567-4.8418-1.9931-7.7706-.845-6.0175 2.359-13.246 9.1376-25.97 9.3259"/><path d="m624.59 383.2c-5.209-3.7319-9.672-10.856-9.7184-19.274-.036-6.4739 2.5655-13.061 5.5976-15.627"/><path d="m511.17 500.76c-2.0213 3.1097-6.8416 7.7748-11.895 9.6404-5.0536-1.8656-9.874-6.5307-11.895-9.6404"/><path d="m479.17 230.74c1.3018-.7209 2.5101-1.4064 3.6244-2.0184 1.6482-.9056 3.6292-.7157 4.4821.316.96266 1.1644 1.1104 3.1826-.22542 4.416" stroke-linecap="round"/><path d="m460.48 239.49c8.5875-1.7922 15.585-5.6381 20.875-8.5967"/><path d="m531.78 487.43c.70997.4843 1.1661 1.4926 1.1661 1.4926.19675.4685.45052.9114.52088 1.3268.40352 2.3784-1.156 3.8605-3.0828 4.0848-2.6477.3078-4.6352-1.2652-5.4825-3.17"/><path d="m460.04 239.05c8.5875-1.7925 15.585-5.6384 20.875-8.5968"/><path d="m633.38 397.49c-1.6327.6292-2.5258.544-4.557-.3579-.8338-.3703-1.7883-.9435-2.9066-1.5784-3.9807-2.2607-8.7079-5.8238-13.139-14.143-1.3105-2.4602-2.1246-4.7432-2.6728-6.9922-.42266-1.7354-.71587-3.4505-.7792-5.2112-.10783-3 .21499-6.1323.96381-9.721 1.2365-5.9254 2.7251-9.1432 6.3754-14.15 1.7953-2.4622 3.3433-3.9649 6.6863-4.0425"/><path d="m398.83 279.88c2.7794 2.3623 4.1208 5.2866 4.1208 8.9409 0 4.8409-4.0502 12.75-14.002 15.549-3.8138 1.0724-7.5882.2073-9.8706-1.1807"/><path d="m400.46 296.28c1.7883 1.2438 2.4881 2.6406 2.4881 5.0697 0 1.6647-1.0763 3.8228-2.9074 5.8666-2.9977 3.3461-8.0821 6.1897-13.716 6.2603-3.0563.038-6.2294-.6008-9.4218-2.7358-3.4131-2.2821-5.2093-5.3643-5.9868-8.3967"/><path d="m400.3 306.71c2.0258 1.8623 2.648 4.1932 2.648 7.129 0 4.2891-1.7424 7.5998-5.7493 11.107-.89598.784-1.9048 1.5187-3.0329 2.1783"/><path d="m596.4 292.63v5.5188"/><path d="m595.96 291.27v7.774"/><path d="m596.4 274.44v10.185"/><path d="m595.96 272.19v13.918"/><path d="m592.99 414.17c-1.9304 3.8352-3.4727 5.8492-6.5307 8.8632-3.0855 3.0408-5.2239 4.4343-9.0965 6.3751-3.7719 1.8905-6.1477 2.4916-10.263 3.421-4.1124.9286-6.5175 1.131-10.729 1.3215-3.8619.1751-6.0529.014-9.9095-.2544-4.1276-.2856-6.4168-.8608-10.538-1.2227-3.4038-.2988-5.3263-.5741-8.7434-.5656-3.5122.01-5.5247.031-8.9831.6433-3.2234.5709-5.052 1.0257-8.0857 2.2548-4.1976 1.7005-8.9412 4.6648-9.9517 5.9865-1.0108-1.3217-5.7541-4.286-9.952-5.9865-3.0338-1.2291-4.8623-1.6839-8.0855-2.2548-3.459-.6124-5.471-.6346-8.9834-.6433-3.417-.01-5.3395.2668-8.7434.5656-4.1211.3619-6.4106.9371-10.538 1.2227-3.8566.2668-6.0473.4294-9.9092.2544-4.212-.1905-6.6174-.3903-10.729-1.3215-4.1149-.9317-6.4888-1.5347-10.263-3.421-3.8752-1.9368-6.011-3.3343-9.0965-6.3751-.33318-.3286-.64864-.6452-.94832-.9536"/><path d="m478.8 505.47 2.7988-.3497"/><path d="m528.9 501.44 2.825-.269 2.6907-1.0763 1.8834-1.1437 2.5562-3.027.53774-1.1436.40382-2.6235.13462-1.2108"/><path d="m613.23 277.36c1.2131-4.1276-.2676-8.4831-4.2663-8.3657"/><path d="m402.79 341.75c-1.0136 3.4281-3.1939 5.7702-5.6198 7.2934"/><path d="m402.86 276.05c-.99953 2.8889-2.8289 4.953-5.7237 6.2604-2.8866 1.3037-6.2274.086-8.014-1.2922"/><path d="m380.95 291.2c2.3922 1.2526 4.8195-.5836 4.3217-3.6959-.23329-1.4576-1.8052-3.2988-3.9328-3.4333" stroke-linecap="round"/><path d="m390.87 422.86c.51553.4852.62583 1.1149 1.3218 1.2438 1.0496.1945 1.866.5831 2.9156-.8163 1.2939-1.725.59855-4.4082-.7474-6.0974-1.4405-1.808-5.6134-3.4055-9.112-1.4616-1.1706.6503-2.6381 1.5063-3.9652 3.2654-.50172.6649-1.3504 1.739-1.788 2.4878-1.0589 1.8108-1.494 3.2924-1.7033 3.8873-3.2012 9.0979.59995 18.664 6.4885 24.493"/><path d="m531.59 487.23c.63794.6647 1.0105 1.2441 1.0105 1.2441.19675.4682.35708.9112.42773 1.3268.40323 2.3784-1.156 3.8605-3.083 4.0845-2.6477.3082-4.4197-1.2519-5.2672-3.1567" stroke-linecap="round"/><path d="m608.5 216.81c5.2278.6376 9.7837 5.6277 9.7837 10.992 0 6.9194-2.3311 9.4961-5.9741 14.446-3.8985 5.2973-16.638 15.005-16.638 26.045 0 6.6864 1.866 10.962 6.6863 13.139 3.1081 1.4036 6.7423-.1157 8.3967-1.6107 4.0429-3.6543 2.4265-10.062-1.788-10.828-5.1316-.9332-6.096 7.145-1.0885 6.6083"/><path d="m635.73 383.51c-.45954-2.7701-2.8132-4.8795-5.648-4.8795-3.1638 0-5.7287 2.628-5.7287 5.87 0 1.5877.61514 3.0281 1.6147 4.0848"/><path d="m599.79 279.88c-2.7794 2.3623-4.1208 5.2866-4.1208 8.9409 0 4.8409 4.0502 12.75 14.002 15.549 3.8135 1.0724 7.4574.9714 9.7398-.4168"/><path d="m375.61 287.8c-2.3784.7938-5.3486 2.2774-7.5497 5.3953-1.8561 2.6297-2.9384 6.2856-3.6087 9.4846-.29321 1.3999-.64301 5.832.2524 10.41.6613 3.3805 2.0573 6.5271 3.6016 8.8064.5535.8169 1.0558 1.3671 1.6206 1.9318.51778.5178 1.2528.9751 1.7737 1.3727"/><path d="m471.72 469.02c7.5764 3.3588 13.13 5.8745 17.839 13.31 1.4771 2.3325 1.866 5.6756 1.866 7.6192 0 4.1982-1.7106 8.9409-5.2093 11.895-3.2462 2.7414-6.4531 3.5763-10.418 3.1877-3.007-.2949-5.8309-2.4878-6.2974-4.0428"/><path d="m396.88 325.2c4.2762 3.3431 6.0644 6.5862 6.0644 11.74 0 5.9085-2.8767 9.5627-6.2201 11.662"/><path d="m392.99 344.41c6.3751 7.9301 9.7578 12.637 9.9517 22.08.18146 8.8627-2.6435 14.927-7.9304 21.303" stroke-linecap="round"/><path d="m515.23 239.57c1.1591-.7609 2.0098-1.9791 2.4974-3.4848.75302-2.3252.76908-4.3077-.47471-6.0957 1.5345 2.0081 1.6757 3.7043 1.2438 6.1418-.27465 1.5522-1.2644 2.3685-2.4974 3.4849"/><path d="m596.4 374.24v25.241h.0668c0 .018-.009 2.3888-.21183 3.8872-.13305.9824-.27155 1.8705-.42857 2.7023"/><path d="m595.96 371.81v27.223l.0673.0003c0 .018-.009 2.3885-.21183 3.8872-.21184 1.5624-.43701 2.8869-.72939 4.1245"/><path d="m595.96 339.94v22.702"/><path d="m596.4 341.73v18.463"/><path d="m596.4 318.25v13.841"/><path d="m595.96 316.62v17.064"/><path d="m596.4 304.1v5.3693"/><path d="m595.96 303.01v7.7762"/><path d="m593.08 412.65c-.16546.3503-.34189.7108-.5296 1.0842-1.9304 3.8352-3.473 5.8492-6.531 8.863-3.0853 3.0411-5.2236 4.4343-9.0965 6.3754-3.7716 1.8901-6.1475 2.4915-10.263 3.421-4.1121.9286-6.5175 1.1309-10.729 1.3214-3.8617.1747-6.0529.011-9.9092-.2547-4.1276-.2853-6.4168-.8605-10.538-1.2224-3.4038-.2991-5.3263-.5743-8.7431-.5656-3.5124.01-5.5244.031-8.9831.6433-3.2234.5707-5.052 1.0254-8.086 2.2546-4.1976 1.7007-8.9409 4.6647-9.9517 5.9865-1.0108-1.3218-5.7538-4.2858-9.9517-5.9865-3.0338-1.2292-4.8623-1.6839-8.0857-2.2546-3.4587-.6123-5.471-.6345-8.9834-.6433-3.4168-.01-5.3393.2665-8.7431.5656-4.1214.3619-6.4108.9371-10.538 1.2224-3.8566.2668-6.0473.4294-9.9095.2547-4.212-.1904-6.6171-.39-10.729-1.3214-4.1146-.9323-6.4891-1.534-10.263-3.421-3.8749-1.9378-6.0113-3.3343-9.0965-6.3754-1.6155-1.5922-2.8081-2.9055-3.8583-4.3555"/><path d="m406.42 413.26c.66553 4.9422-1.4129 9.7995-3.5228 12.034-1.3217 1.3994-4.2005 4.0736-7.7748 4.1205-5.9088.078-7.6726-3.9863-8.0306-4.9757"/><path d="m399.4 410.7c1.0966 1.0829 2.07 2.4049 2.8934 3.965 1.4771 2.7988 1.022 7.4801-.14834 9.6407-.12856.2375-.28789.4894-.47474.7482"/><path d="m370.04 453.2c3.5136 3.6874 8.8275 7.692 16.99 11.052 11.161 4.5953 28.3 5.6539 40.118 6.1205 15.715.6204 30.193 1.266 39.01 10.998"/><path d="m493.29 475.01c2.5982 2.556 5.247 5.2954 6.3658 8.798"/><path d="m488.18 501.7c-.33966.3625-.70069.7066-1.0831 1.0297-3.2462 2.7411-6.4531 3.5763-10.418 3.1874-3.007-.2947-5.9077-2.5478-6.6852-4.0252"/><path d="m461.63 497.35c.14498.1981.29742.3906.45726.5766 1.8876 2.1983 4.8674 3.576 7.9777 3.8332"/><path d="m512.05 501.64c-2.0216 3.1098-6.842 7.7745-11.895 9.6405-5.0537-1.866-9.874-6.5307-11.896-9.6405-.16344-.2518-.3208-.4938-.4719-.7266"/><path d="m512.13 501.62c.36074.3917.74626.7624 1.1562 1.1088 3.2462 2.7411 6.4531 3.5763 10.418 3.1874 3.007-.2947 5.395-2.3036 6.3596-4.0429 0 0 .54113-.5816.69252-1.1366"/><path d="m529.75 500.99-1.1605 1.8666-1.7655 1.4633-2.6739 1.1098-2.4214.1011"/><path d="m536.03 483.22c1.4306 1.0969 2.8354 2.7594 3.5985 4.5342.49076 1.1411.71813 2.3956.78792 3.6976.13215 2.4682-.73502 4.7413-2.2228 6.4739-1.9974 2.326-5.113 3.7336-8.4288 3.8664-.24679.01-.49188.011-.73445 0"/><path d="m529.32 501.35c-3.1706.1271-6.0037-1.2312-8.0925-3.3754"/><path d="m620.72 391.93c-2.4738-2.2799-5.0362-5.4397-7.5069-10.077-1.3105-2.4603-2.1246-4.7433-2.6725-6.9925-.42292-1.7354-.71587-3.4505-.77917-5.211-.10784-3.0002.21498-6.1322.96378-9.7212 1.2362-5.9251 3.4426-10.509 6.3754-14.15.99982-1.2418 2.1544-2.7915 3.2507-3.4879"/><path d="m618.2 223.83c3.9652.3109 7.6386 4.5792 7.5902 8.7639-.0703 6.0782-2.1082 8.5894-6.8906 14.545-4.1205 5.1313-16.482 14.15-16.171 22.78.0551 1.5316.88023 3.1154 1.8021 4.3895"/><path d="m599.59 279.72c.87826.8672 1.9405 1.5839 3.2068 2.1558 2.2613 1.0212 4.8012.4952 6.6543-.4432"/><path d="m576.37 213.9c1.3276.9044 2.6814 2.2909 3.4151 4.0614 2.9082 7.0204-3.421 12.284-9.2522 16.249-4.181 2.8429-8.6941 4.3614-12.968 5.1288"/><path d="m569.69 227.43c-1.4138-.014-3.0945-.417-4.9203-2.3393-.42041-.4426-.91259-1.0276-1.1053-1.553"/><path d="m540.45 231.2c-.73839-.3703-1.5314-.9092-2.0626-1.5038-1.3864-1.5505-2.3103-3.6498-1.2424-6.8532.98742-2.9626 5.7462-11.274 5.9794-17.027.35626-8.7895-3.0242-13.977-8.312-16"/><path d="m542.68 203.85-.20644 3.3051-.89485 3.374-1.7213 4.6129-1.3082 2.9606-1.3769 2.9609-.68858 2.0658-.2755 1.5148.20688 1.4458" stroke-linecap="round"/><path d="m595.81 423.4c.27211.6607.93284 1.3059.93284 1.3059 1.0108 1.6873 4.9402 4.6547 8.5146 4.7016 5.9088.078 7.3119-4.0572 7.4638-4.9757.746-4.5088-.79607-5.7425-3.11-7.0127 0 0-1.3617-.7055-2.9944-.4334" stroke-linecap="round"/><path d="m370.23 403.67c-2.086.5341-4.0454.547-5.7574.033-4.4228-1.3265-8.0067-5.5636-6.1795-10.829"/><path d="m379.21 343.15c.44292.4446.58559 1.1076.65284 1.6701.68324 5.7318-4.3395 7.4016-7.9158 6.4685-1.7714-.462-3.8824-2.1068-4.7106-3.56-.59713-1.0473-.95902-2.2987-.9621-3.5988"/><path d="m400.74 307.15c.89571.8234 1.517 1.7382 1.9315 2.7566"/><path d="m400.9 296.6c.82957.5771 1.425 1.3116 1.8249 2.0424"/><path d="m402.91 303.94c-.48316 1.1906-1.3172 2.4752-2.4304 3.7178-2.9978 3.3459-8.0821 6.1894-13.716 6.26-3.0563.038-6.2294-.6007-9.4218-2.7354-3.4131-2.2825-5.6381-5.5281-6.3768-8.7158" stroke-linecap="round"/><path d="m399.11 280.13c1.7306 1.4711 3.0594 3.3467 3.6982 5.2945"/><path d="m402.86 292.56c-1.3842 4.5739-5.5104 10.231-13.473 12.248-3.8037.9638-8.702-.2412-10.374-1.6639" stroke-linecap="round"/><path d="m375.06 291.49c.41674 4.1205 3.1742 7.2089 8.4012 7.3077 7.3502.1386 11.818-10.574 5.2869-18.094"/><path d="m358.52 327.39c1.0738 1.3471 2.3373 2.561 3.6298 3.6365 2.6212 2.1814 5.7118 4.1014 9.2721 5.1528" stroke-linecap="round"/><path d="m379.67 336.95c6.569-.789 10.272-5.6837 9.538-11.41-.55941-4.3633-4.5629-7.7182-7.2849-7.9123" stroke-linecap="round"/><path d="m390.39 268.92c2.8494-.1053 4.4703 2.4831 4.4444 4.6645"/><path d="m389.72 229.81c1.5609 4.0831 4.6034 7.2753 7.8606 9.099" stroke-linecap="round"/><path d="m622.86 287.29c2.6862 3.6785.92722 10.932-6.379 11.07-2.854.054-5.4291-1.5283-6.9385-3.9244" stroke-linecap="round"/><path d="m596.4 239.25v24.686"/><g stroke-linecap="round"><path d="m380.87 291.14c2.2548 1.6324 5.1502-1.1239 4.0296-4.0493-.75614-1.9752-3.5631-4.1071-7.4504-1.4636-4.2933 2.9192-3.11 12.129 5.1313 12.284 7.3499.1387 11.818-10.574 5.2869-18.093-6.2828-7.2342-17.727-5.5419-25.19.3959-3.1762 2.5264-9.1745 9.1452-11.04 18.164-.5811 2.8081-.9562 5.1122-.91203 7.9301.0292 1.8567.20058 3.9365.7564 6.5307 1.1231 5.2403 2.9679 9.0797 4.8055 11.745.70406 1.0218 1.347 1.871 2.0365 2.5605 1.279 1.2789 1.662 1.9565 2.9541 3.032 4.2235 3.5147 9.665 6.2699 16.327 5.9865 7.3082-.3112 11.507-5.4422 10.729-11.507-.75359-5.879-6.6903-8.8052-10.574-6.0641-2.6435 1.8659-3.5839 7.6445 1.0884 9.0185 2.6435.7776 4.9757-2.5655 3.1098-4.5091"/><path d="m584.4 210.68c4.2179-2.2909 7.4692-1.8668 9.874 1.47 2.6134 3.6262 2.9862 8.4525 2.4102 11.28-.85519 4.1985-2.0686 5.942-5.4074 8.9876"/><path d="m594.58 212.55c4.8204-3.1874 10.041-1.8336 12.906 2.4102 2.0992 3.1097 2.6358 5.7121 2.4878 9.5627-.25353 6.6003-4.3839 11.832-8.9409 14.383"/></g><path d="m617.28 223.67c3.9649.3109 7.1526 3.9007 7.1526 8.0857 0 5.9865-1.6707 8.5836-6.4531 14.539-4.1205 5.1313-16.482 14.15-16.171 22.78.11774 3.2634 2.8686 6.3383 5.2419 6.5094"/><path d="m617.75 291.14c-2.2546 1.6324-5.1313-1.0035-3.8873-3.8026.85884-1.9326 3.421-4.3538 7.3082-1.7103 4.2933 2.9192 3.11 12.129-5.1313 12.284-7.3502.1387-12.317-10.297-5.2869-18.093 6.4165-7.1158 18.315-5.7234 25.778.2141 3.1761 2.5267 9.5659 9.466 10.936 18.573 1.658 11.02 1.4455 24.575-9.9365 32.922-4.5767 3.356-10.918 4.8817-16.516 4.6364-7.308-.3205-11.506-5.4423-10.729-11.507.75386-5.8791 6.4153-8.3675 10.574-6.0642 4.3192 2.3924 3.565 8.4659-1.0884 9.0186-2.7361.325-4.976-2.5655-3.11-4.5092" stroke-linecap="round"/><path d="m613.86 287.34c1.212-5.4543 5.8846-5.9623 9.6576-5.9068 10.296.1508 17.416 12.364 17.535 24.178.15083 14.923-6.334 23.711-17.241 24.178-2.8221.1211-7.6839-1.2213-7.7675-4.6648"/><path d="m620.2 284.9c10.858 2.413 14.67 12.196 14.67 21.532 0 7.6158-.75416 18.022-15.575 21.682" stroke-linecap="square"/><path d="m638.11 389.58c.0677-.3647.10356-.7406.10356-1.125 0-3.3706-2.7327-6.103-6.1033-6.103-3.3709 0-6.1033 2.7324-6.1033 6.103 0 1.9394.90469 3.6675 2.3151 4.7854"/><g stroke-linecap="round"><path d="m616.33 380.33c2.0432 3.0321 4.5165 6.4035 9.7401 9.2375"/><path d="m624.11 406.05c-5.1195-3.3587-14.838-7.7615-23.624-3.4277-3.2589 1.6077-5.4423 3.5963-6.6751 6.8397-2.2197 5.8393.26143 12.275 2.7878 14.949 1.3217 1.3994 4.2004 4.0735 7.7748 4.1208 5.9086.078 7.3133-4.0572 7.4636-4.976.69983-4.2759-1.788-5.9865-3.1098-6.453-1.0139-.3577-4.3122-.2662-5.012 2.0654-.233.7773-.27494 2.133.34725 3.1438"/><path d="m531.99 488.16c1.6327 3.343-.22422 5.0235-2.4878 5.2866-3.343.3887-5.1313-2.2545-5.3646-4.6647-.37819-3.9081 2.9159-7.4492 6.842-7.3859 3.5352.057 6.4145 2.3376 7.7644 5.4766.49047 1.1411.71783 2.3952.78763 3.6976.13259 2.4678-.73473 4.7413-2.2228 6.4736-1.9974 2.326-5.1128 3.7336-8.4285 3.8664-6.6002.2648-11.74-5.9085-11.74-12.206 0-12.051 17.872-18.623 24.957-20.314 8.7076-2.0775 14.006-2.8553 27.989-3.6323 5.5979-.3109 9.6973-.1531 15.861-.7921 5.5152-.5715 8.3967-.8405 14.072-2.1623 7.0828-1.6493 13.684-4.5871 19.592-9.9517 4.5502-4.1309 7.1529-7.0749 9.2592-12.75 1.8178-4.8975 2.653-14.596-1.9509-21.769-4.0688-6.3399-9.7184-9.6331-16.171-10.566-5.8292-.8428-10.942 1.6726-13.995 7.4565-1.4771 2.7988-1.022 7.4799.14836 9.6404 1.0108 1.866 3.8968 4.6178 7.4712 4.6651 5.9086.078 7.3133-4.0572 7.4636-4.976.69983-4.2759-1.788-5.9865-3.1098-6.453-1.0139-.3577-4.3122-.2662-5.012 2.0654-.233.7773-.27494 2.133.34725 3.1438"/><path d="m526.9 469.02c-7.5764 3.3588-13.13 5.8745-17.839 13.31-1.4774 2.3325-1.866 5.6756-1.866 7.6192 0 4.1982 1.7103 8.9409 5.2093 11.895 3.2462 2.7414 6.4528 3.5763 10.418 3.1877 3.007-.2949 5.8312-2.4878 6.2977-4.0428"/></g><path d="m601.73 325.2c-3.5448 1.1825-6.0644 6.5862-6.0644 11.74 0 5.9085 2.8767 9.5627 6.2198 11.662"/><path d="m605.62 344.41c-6.3754 7.9301-9.7578 12.637-9.9517 22.08-.1819 8.8627 2.6435 14.927 7.9304 21.303" stroke-linecap="round"/><path d="m571.64 212.58c.16411-.2443.34557-.513.54731-.8096 2.6435-3.8873 7.3116-4.9116 10.729-2.3323 4.1206 3.1098 5.1612 8.4023 4.0429 13.994-.69985 3.4987-3.0732 6.4128-6.325 8.5211"/><path d="m414.22 210.68c-4.0432-1.8657-7.371-1.5066-9.874 1.47-2.8768 3.421-2.9865 8.4525-2.4102 11.28.8552 4.1985 2.0683 5.942 5.4074 8.9876" stroke-linecap="round"/><path d="m404.03 212.55c-4.8201-3.1874-10.041-1.8336-12.906 2.4102-2.0992 3.1097-2.6358 5.7121-2.4881 9.5627.25382 6.6003 4.3842 11.832 8.9412 14.383"/><path d="m390.12 216.81c-5.2278.6376-9.4004 5.0688-9.4004 10.433 0 6.9196 1.7033 9.7184 5.5906 15.005 3.8965 5.299 16.638 15.005 16.638 26.045 0 6.6864-1.866 10.962-6.6863 13.139-3.1083 1.4036-6.7423-.1157-8.3967-1.6107-4.0432-3.6543-2.4265-10.062 1.788-10.828 5.1313-.9332 6.0957 7.145 1.0884 6.6083"/><path d="m381.33 223.67c-3.9652.3109-7.8665 3.7229-7.8665 7.9079 0 5.9865 2.3846 8.7614 7.1667 14.716 4.1208 5.1313 15.762 13.972 15.451 22.602-.11729 3.2634-2.3111 7.2531-4.488 6.7865"/><path d="m372 343.94c1.866-4.5092 6.6864-2.4879 6.9829 0 .68324 5.7321-4.3395 7.4638-7.9158 6.5307-1.7714-.4621-3.0676-1.5778-3.8957-3.0313-.93454-1.64-1.2171-3.7797-.61037-5.8235.27521-.9269.66271-1.7073 1.3257-2.581.6658-.878 1.3541-1.4791 1.9991-1.8905 1.3755-.8779 2.8742-.9646 5.2242-.9646 8.7076 0 16.327 10.289 18.886 20.977.84278 3.52 2.0013 11.371.39592 18.815-1.7106 7.9301-5.1384 13.42-9.1598 17.585-2.1769 2.2546-5.146 4.2618-8.9896 6.4351-1.1856.6705-4.3198 2.0609-6.4967 2.6831-2.236.6388-4.3369.688-6.1582.1418-4.4225-1.3268-7.2612-5.4591-4.9596-10.829 1.7916-4.1808 8.3967-6.2198 11.351-1.0885.25071.4353.64073 1.3836.62836 2.4107-.0158 1.3682-.58419 3.0172-1.5615 3.6391-2.2459 1.4292-5.8382 1.0251-5.6711-2.9401" stroke-linecap="round"/><path d="m365.24 397.49c1.6327.6292 2.5258.544 4.5573-.3579.8335-.3703 1.7883-.9435 2.9066-1.5784 3.9804-2.2607 8.7076-5.8238 13.139-14.143 1.3105-2.4602 2.1246-4.7432 2.6725-6.9922.42293-1.7354.71588-3.4505.77919-5.2112.10805-3-.215-6.1323-.96378-9.721-1.2362-5.9254-2.7251-9.1432-6.3754-14.15-1.7951-2.4622-3.343-3.9649-6.6864-4.0425"/><path d="m360.51 389.58c-.0678-.3647-.10332-.7406-.10332-1.125 0-3.3706 2.7324-6.103 6.1033-6.103 3.3706 0 6.103 2.7324 6.103 6.103 0 1.9394-.90442 3.6675-2.3148 4.7854"/><path d="m362.88 383.51c.45954-2.7701 2.8132-4.8795 5.6477-4.8795 3.1641 0 5.729 2.628 5.729 5.87 0 1.5877-.61514 3.0281-1.6147 4.0848"/><path d="m374.02 383.2c5.209-3.7319 9.672-10.856 9.7184-19.274.0358-6.4739-2.5658-13.061-5.5976-15.627"/><path d="m382.29 380.33c-2.0432 3.0321-4.5165 6.4035-9.7404 9.2375" stroke-linecap="round"/><path d="m397.81 402.63c-1.4489-3.4089-4.3288-4.9853-9.0189-5.4856-4.6625-.4978-8.6986.7837-12.828 3.0048-8.0598 4.3346-12.554 8.9946-15.55 17.641-.76034 2.1952-1.3912 5.5056-1.3034 9.0211.14025 5.6041 1.5629 11.73 3.0917 14.692 1.3336 2.5835 4.8204 13.994 23.946 21.868 11.161 4.5949 28.3 5.6539 40.118 6.1201 16.256.6419 31.255 1.2441 39.962 11.973"/><path d="m374.5 406.05c5.1198-3.3587 14.838-7.7615 23.624-3.4277 3.2589 1.6077 5.4423 3.5963 6.6751 6.8397 2.2197 5.8393-.2617 12.275-2.7878 14.949-1.3217 1.3994-4.2004 4.0735-7.7748 4.1208-5.9088.078-7.3133-4.0572-7.4636-4.976-.69983-4.2759 1.788-5.9865 3.1098-6.453 1.0139-.3577 4.3122-.2662 5.0117 2.0654.23327.7773.27491 2.133-.34698 3.1438" stroke-linecap="round"/><path d="m394.86 421.45c.46656-1.7104.22651-3.5063-1.3215-5.209-1.555-1.7104-5.6756-3.3431-9.1745-1.3994-1.1703.6503-2.6381 1.5066-3.9649 3.2653-.50202.6653-1.3504 1.7391-1.7883 2.4879-1.0589 1.8108-1.494 3.2927-1.7033 3.8875-3.845 10.928 2.413 22.532 10.256 27.522 6.8416 4.3538 13.839 5.5979 22.469 6.3751 3.9936.3599 6.2566.4368 10.263.6222 3.2237.1493 6.0082.096 8.63.064 2.1575-.027 4.2049-.016 6.2969-.064 3.4156-.079 6.9494-.1589 11.274.1556 4.5497.3309 7.9729.4477 11.818 1.0884 2.5115.4187 5.4558.8226 8.5422 1.5151.92609.2075 1.8651.3773 2.8089.6618.63427.1912 1.2604.3853 1.8814.5746 5.5714 1.6994 10.985 3.7697 15.257 6.5209 1.3198.8501 2.8402 1.6707 3.8771 2.7079.7958.7956 1.472 1.2565 2.1234 1.8978 2.9902 2.9415 6.0476 6.1261 6.7626 10.438.13191.7955.1317 1.6293.1317 2.507 0 2.7988-2.2774 6.6084-8.4195 7.8524"/><path d="m466.62 488.16c-1.6327 3.343.22422 5.0235 2.4878 5.2866 3.343.3887 5.1313-2.2545 5.3646-4.6647.37821-3.9081-2.9159-7.4492-6.842-7.3859-3.5352.057-6.4145 2.3376-7.7644 5.4766-.49075 1.1411-.71784 2.3952-.78791 3.6976-.13237 2.4678.73501 4.7413 2.2228 6.4736 1.9974 2.326 5.113 3.7336 8.4288 3.8664 6.6002.2648 11.74-5.9085 11.74-12.206 0-12.051-17.873-18.623-24.957-20.314-8.7079-2.0775-14.006-2.8553-27.989-3.6323-5.5979-.3109-9.6973-.1531-15.861-.7921-5.5152-.5715-8.3967-.8405-14.073-2.1623-7.0826-1.6493-13.684-4.5871-19.592-9.9517-4.55-4.1309-7.1526-7.0749-9.2592-12.75-1.8176-4.8975-2.6527-14.596 1.951-21.769 4.069-6.3399 9.7184-9.6331 16.172-10.566 5.8292-.8428 10.942 1.6726 13.995 7.4565 1.4771 2.7988 1.0218 7.4799-.14835 9.6404-1.0108 1.866-3.8968 4.6178-7.4712 4.6651-5.9088.078-7.3133-4.0572-7.4636-4.976-.69983-4.2759 1.788-5.9865 3.1098-6.453 1.0139-.3577 4.3122-.2662 5.0117 2.0654.23327.7773.27491 2.133-.34698 3.1438"/><path d="m426.97 212.58c-.16411-.2443-.34583-.513-.54732-.8096-2.6435-3.8873-7.3116-4.9116-10.729-2.3323-4.1206 3.1098-5.1612 8.4023-4.0429 13.994.69955 3.4987 3.0732 6.4128 6.3247 8.5211" stroke-linecap="round"/><path d="m573.04 224.37c-6.2975 6.8417-12.595 9.0262-22.003 9.3296-2.9376.095-8.5523-.9329-11.818-3.2581-2.0976-1.4936-4.4315-4.0502-2.9544-8.4817.98746-2.9622 5.7462-11.273 5.9795-17.027.35626-8.7892-3.025-13.606-8.312-15.472-9.7739-3.4497-20.267 6.2113-26.589 8.319-3.3053 1.1017-4.9903 1.2319-8.0081 1.2429-3.0177-.011-4.7627-.1411-8.068-1.2429-6.3228-2.1077-16.816-11.769-26.59-8.319-5.2867 1.8659-8.668 6.6824-8.3117 15.472.2333 5.7532 4.9918 14.064 5.9792 17.027 1.4774 4.4315-.85658 6.9881-2.9541 8.4817-3.2656 2.3252-8.8801 3.3529-11.818 3.2581-9.4072-.3034-15.705-2.4879-22.003-9.3296"/><path d="m464.58 466.27c1.246.4868.30336-.2952 8.1947 3.2032 7.5764 3.3585 12.954 6.2999 17.663 13.736 1.4774 2.3323 1.866 5.6756 1.866 7.6192 0 1.2528-.15217 2.554-.45867 3.8417" stroke-linecap="round"/><path d="m465.09 500.06c1.5362.7682 3.2792 1.2167 5.081 1.2891 6.6002.2648 11.74-5.9089 11.74-12.206 0-4.3662-2.377-8.0441-5.7062-11"/><path d="m466.52 488.15c-1.5938 3.5532.67678 5.4749 2.9401 5.738 3.3433.3889 5.2248-2.2546 5.458-4.6647.25355-2.6213-1.145-5.171-3.278-6.4852" stroke-linecap="round"/><path d="m609.53 216.87c5.0182 0 9.394 5.5855 9.394 11.317 0 6.605-3.5127 10.648-6.0869 13.705-2.0722 2.4608-4.3158 4.6625-6.9824 7.3482"/><g stroke-linecap="round"><path d="m603.58 211.58c1.7064.7901 3.2037 2.1276 4.3456 3.8188 2.099 3.1101 2.6331 5.7121 2.4879 9.5631-.24905 6.6-4.998 11.17-9.2462 13.959"/><path d="m593.71 211.58c.34695.2961.68042.6338 1.0004 1.0142 2.8768 3.421 3.0993 8.4775 2.4102 11.281-1.0353 4.2128-2.4276 6.0287-5.8464 8.5483"/><path d="m583.36 209.85c4.1206 3.1098 5.3458 8.4887 3.9807 14.026-.9756 3.9567-3.4635 6.3281-6.5656 8.2174"/><path d="m598.16 296.28c.49301 1.4472 1.3065 1.9486 2.3317 3.0225 2.229 2.335 5.4963 4.3434 9.623 5.5039 3.8138 1.0727 7.2494.2662 9.8706-1.3671"/><path d="m365.29 387.87c1.9372-.035 3.869 1.273 5.1325 3.4677.25072.4356.64103 1.3836.62835 2.4107-.0158 1.3682-.6154 2.8309-1.5924 3.4525-2.2456 1.4292-6.2327.8149-6.0659-3.15"/></g><path d="m377.33 336.4c7.7033 1.4379 15.119 10.729 17.546 20.865.84279 3.5201 2.0016 11.371.39592 18.815-1.7103 7.9301-5.1381 13.42-9.1598 17.585-.95338.9875-2.0587 1.9276-3.3231 2.8548l-1.6428 1.1135"/><path d="m368.76 378.67c3.1641 0 5.9336 3.0316 5.9336 6.2733 0 1.5876-.61515 3.0281-1.6147 4.0848"/><path d="m366.62 382.35c3.2966 0 6.4325 3.1758 6.4325 6.5464 0 1.9397-.90469 3.6678-2.3151 4.7855"/><path d="m396.84 349.2c3.0273 4.0629 5.0252 7.5612 5.9544 12.07" stroke-linecap="round"/><path d="m402.69 374.53c-.4995 2.2459-1.2593 4.3246-2.2639 6.3222-1.2731 2.5304-3.4919 5.3478-5.5523 7.2525" stroke-linecap="round"/><path d="m397.32 325.52c2.9187 2.2816 4.678 4.6412 5.5011 7.4687"/><path d="m402.9 317.92c-.76653 2.6592-2.5059 4.6738-5.2661 7.1926" stroke-linecap="round"/><path d="m383.33 298.27 3.3686-.8865 1.9943-1.5071 1.2854-1.8176 1.1081-2.8368.4432-2.3049" stroke-linecap="round"/><path d="m376.51 286.41c-1.0634.26582-2.4109.65948-3.8239 1.3328-1.8928.90191-3.9033 2.3056-5.506 4.5758-1.8561 2.6296-2.9384 6.2859-3.6084 9.4848-.29322 1.3997-.64328 5.832.25214 10.41.66128 3.3801 2.0573 6.527 3.6016 8.8061.55379.8172 1.0561 1.5226 1.6206 2.0874 2.0216 2.0213 3.8875 3.2654 6.9973 2.6432"/><path d="m395.38 271.58c-.54618 2.0066-1.6248 4.4933-4.7737 4.2213" stroke-linecap="round"/><path d="m383.87 285.2c-3.0236-2.9558-9.4292-3.7263-15.798.3022-.81858.5181-1.6372 1.183-2.4479 1.8587-.87628.7299-1.5753 1.5693-2.2506 2.4819-.73419.9925-1.6361 2.6801-2.1811 3.8009-.75022 1.5438-1.0609 2.5579-1.4742 4.1408-1.163 4.4554-1.158 8.5959-1.0209 9.7761.17626 1.5131.32023 2.9035.56757 4.1822.84505 4.3715 2.1381 7.439 3.4753 9.6565 1.4067 2.3325 4.9054 7.6898 12.058 8.3967 2.8112.278 7.6121-1.0106 7.7675-4.6648"/><path d="m568.38 220.42c.47838-2.5813 3.5892-3.0796 4.7582-1.555 1.8001 2.348.60952 6.3818-3.0515 7.526-1.2441.3889-4.1205.2333-5.9865-2.1769-1.5125-1.9537-1.3969-4.3735-.83208-6.2969.36553-1.2446 1.3642-2.3294 2.6981-3.3435 4.2511-3.2333 11.118-2.4879 13.372 2.9541 2.9086 7.0203-3.4207 12.284-9.2519 16.249-7.3409 4.9918-15.705 5.8996-22.003 5.8312-14.306-.1556-25.19-6.9973-32.265-10.884-1.6482-.9056-3.3456-.7207-4.1982.3109-.96295 1.1644-.94749 3.0428.38861 4.2759" stroke-linecap="round"/><path d="m571.26 218c1.5162.07 1.922.6616 2.3868 1.2674 1.7998 2.348.48487 6.3821-3.1761 7.526" stroke-linecap="round"/><path d="m598.34 307.33c-5.4504 5.9325-.43701 16.116 3.6365 18.418 1.4101 1.0966 2.0126.5153 3.1404 1.1749" stroke-linecap="round"/><path d="m598.63 295.99c-1.7883 1.2441-2.4184 2.6415-2.4879 5.0697-.0583 2.032.29603 4.2883 2.2034 6.2727 2.9713 3.0917 8.7859 5.7836 14.42 5.8542 3.0563.038 6.2294-.6007 9.4218-2.7354 3.4131-2.2825 5.2093-5.3646 5.9868-8.3967"/><path d="m595.58 398.6c0 .018-.009 2.3885-.21183 3.8873-.59151 4.3631-1.2857 6.8737-3.2654 10.807-1.9304 3.8354-3.4728 5.8491-6.5307 8.8632-3.0853 3.0411-5.2236 4.4343-9.0965 6.3754-3.7716 1.8902-6.1477 2.4912-10.263 3.4207-4.1121.9286-6.5175 1.1312-10.729 1.3217-3.8619.1747-6.0529.011-9.9095-.2546-4.1273-.2857-6.4167-.8606-10.538-1.2224-3.4038-.2992-5.3263-.5744-8.7431-.5659-3.5124.01-5.525.031-8.9834.6435-3.2232.5707-5.0517 1.0254-8.0857 2.2546-4.1979 1.7008-8.9409 4.6648-9.9517 5.9865-1.0108-1.3217-5.7541-4.286-9.9517-5.9865-3.034-1.2292-4.8626-1.6839-8.0857-2.2546-3.4584-.6123-5.471-.6345-8.9834-.6435-3.417-.01-5.3396.2667-8.7431.5659-4.1217.3618-6.4108.9367-10.538 1.2224-3.8568.2667-6.0475.4294-9.9095.2546-4.2117-.1904-6.6171-.3931-10.729-1.3217-4.1149-.9295-6.4911-1.5305-10.263-3.4207-3.8729-1.9411-6.0112-3.3343-9.0965-6.3754-3.058-3.0141-4.6006-5.0278-6.5307-8.8632-1.9796-3.9329-2.6739-6.4435-3.2656-10.807-.20329-1.4988-.21162-3.8687-.21162-3.8873v-.0003-159.02h192.55v159.02l.0668.0003z"/></g><g fill="#c7b37f" stroke="#c7b37f"><path d="m387.41 421.32c0-2.1575 1.7492-3.9067 3.907-3.9067 2.1575 0 3.9067 1.7492 3.9067 3.9067 0 2.1578-1.7492 3.9067-3.9067 3.9067-2.1578 0-3.907-1.7489-3.907-3.9067z" stroke-width=".51271"/><path d="m363.42 393.71c0-1.9321 1.2356-3.4986 2.76-3.4986s2.7602 1.5665 2.7602 3.4986c0 1.9324-1.2359 3.4987-2.7602 3.4987s-2.76-1.5663-2.76-3.4987z" stroke-width=".51271"/><g stroke="none"><path d="m377.05 324.36c0-1.5871 1.1931-2.8734 2.6649-2.8734 1.4717 0 2.6648 1.2863 2.6648 2.8734 0 1.5868-1.1931 2.8733-2.6648 2.8733s-2.6649-1.2865-2.6649-2.8733z"/><path d="m424.91 221.81c-.16816-1.5919.78762-2.9969 2.135-3.1379 1.3473-.1409 2.5762 1.035 2.7445 2.6271.16839 1.5919-.78765 2.9967-2.1353 3.1379-1.3473.141-2.5759-1.0349-2.7442-2.6271z"/></g></g><g stroke="#c7b37f" stroke-linecap="round" stroke-width=".987"><path d="m373.92 340.54c-.57379.2499-.89064.4561-1.3218.9098-.41197.4333-.49752.5906-.81633 1.2983-.23329.5178-.29463 1.118-.38102 1.8581"/><path d="m378.77 386.4c.54255-.6579.87039-1.0119 1.3915-1.687.43363-.5616.69168-.8709 1.073-1.4694.34361-.5392.49752-.8676.80087-1.4307.42746-.7938.64019-1.2567 1.0496-2.0601"/><path d="m381.11 401.53c-.92495.4246-1.4723.6123-2.3713 1.0884-.68354.3622-1.0547.5935-1.7106 1.0029-.77441.484-1.2069.7666-1.9436 1.3063-.76739.5622-1.1619.9297-1.9048 1.5237"/><path d="m396.56 347.25c-.50033-.5152-.77189-.8169-1.2829-1.3214-.53437-.5274-.82507-.8386-1.3994-1.3218-.55717-.4685-.9109-.6829-1.4928-1.1197"/><path d="m397.17 326.47c-.7429.3306-1.1326.5932-1.9048.8476-.885.2915-1.4849.4431-2.3401.482" stroke-linecap="butt"/><path d="m371 300.68c.25468.9067.3104 1.4478.65314 2.3246.43082 1.102.79101 1.6817 1.4461 2.6668.68296 1.0266 1.1096 1.5939 1.9904 2.4569.77356.7576 1.2638 1.14 2.1693 1.7337.8597.5637 1.418.7587 2.3247 1.2438"/><path d="m378.04 301.95c.75809.4061 1.1495.7119 1.9439 1.0417.71899.2986 1.1456.4247 1.9045.5986 1.0268.2355 1.6293.2946 2.6826.3188 1.1402.027 1.477 0 2.9156-.2333"/><path d="m398.69 240.15c-1.2463-.7277-2.0081-1.046-3.1956-1.866-1.2078-.8341-1.8733-1.3453-2.9232-2.3713-.75725-.7395-1.1816-1.1707-1.8116-2.0213-.56224-.7595-.77779-1.257-1.275-2.0604"/><path d="m401.2 224.72c.39114 1.0459.50285 1.6839 1.0029 2.6823.67873 1.3552 1.2027 2.0671 2.2236 3.1877 1.4149 1.5525 2.6131 1.9917 4.2837 3.2653"/><path d="m410.98 224.61c.38806.9398.50651 1.5181.99532 2.4099.43193.7885.72965 1.2083 1.2984 1.9048.72516.8886 1.1968 1.3521 2.0992 2.0604 1.049.8236 1.7925 1.0671 2.9386 1.7492"/></g><path d="m520.78 211.91c-.0802-2.6489-2.6896-2.9243-3.6894-2.9243-2.8855 0-3.6661 1.7998-7.2657 3.7327-4.512 2.4231-6.4553 2.9615-10.466 2.9975-4.0102-.036-6.0048-.5744-10.517-2.9975-3.5994-1.9329-4.2052-3.6748-7.091-3.6748-1.5663 0-3.5895 1.353-3.5127 3.8327 0 0-.0301.8031.0932 1.3465.0463.2046.29518.1407.3734.3199-.0371-1.2024.20757-1.8251.80003-2.6327.76061-1.0378 2.0244-1.3133 2.5396-1.3133 2.8855 0 3.9537 1.8516 7.5533 3.7845 4.512 2.4231 6.4534 2.9615 10.464 2.9975 4.0102-.036 6.0068-.5744 10.519-2.9975 3.5997-1.9329 4.6341-3.9379 7.5198-3.9379.99981 0 1.7053.6472 2.0328 1.6665.20171.6269.088 1.0451.14026 1.2932.0254.1212.17379.1088.20643.2398.10018-.4665.33345-.6331.29998-1.7328z" fill="#703d29" stroke-width=".276616"/></g><g fill="#703d29"><path d="m413.12 434.42c.81016-.8724 1.4225-.5439 1.5728-.9458.11098-.2971-.129-.327-.45898-.4505-.44038-.1646-.90694-.2592-1.3473-.4241-.45614-.1704-.87036-.4049-1.3265-.5754-.18887-.071-.62527-.2935-.74964.039-.2285.6114 1.6017.5588.9877 2.2016-.10467.2794-.36469.8794-1.2744 1.8738l-4.1411 4.5072c-.0929.1047-.24737.3259-.34162.2904-.0945-.035-.0817-.3092-.083-.4494l.0592-6.3917c.005-1.2128.10807-2.1107.30421-2.635.27435-.7339 1.12-.1191 1.2964-.5909.11121-.2969.0259-.309-.47725-.4973-.25185-.094-.73389-.1947-1.7404-.5709-.53495-.2002-1.0434-.47-1.5626-.6638-.23581-.088-.67113-.4103-.82787.01-.0459.1224.11931.3036.16006.3388.57939.4159.7277.6902.74035 1.4719l.11346 11.635c.009.8397.10063 1.0732.25803 1.132.17312.065.29097-.011.63371-.4004l8.205-8.9035z"/><path d="m417.95 436.22c.53324-1.6904 1.5322-.6712 1.723-1.2762.0673-.2136-.00098-.2744-.48203-.4258-.91259-.2878-1.5117-.3984-2.0883-.5802-.56056-.1767-1.1625-.4449-1.7872-.6416-.14408-.046-.52764-.2254-.62303.077-.19652.6228 1.7703.6951 1.2598 2.3142l-2.693 8.5411c-.53298 1.6904-1.5401.8642-1.7365 1.4869-.0282.089-.0355.2238.10897.2693.4162.1313 1.1273.2772 1.8159.4941 1.2491.394 1.8192.652 2.4119.8389.36807.1161.53495.09.59657-.1054.17942-.5695-1.8721-.3165-1.1821-2.5053l2.6761-8.4875z"/><path d="m423.73 437.93c.31798-1.0733.81689-.9256 1.4126-.7491 1.6262.4817 2.1355 2.0725 1.6164 3.8256-.31264 1.0555-.70604 2.0289-3.1534 1.3037-.48288-.1429-1.0786-.3194-.94607-.7665l1.0704-3.6137zm-4.4337 7.696c-.66777 2.254-1.797 1.2775-1.9664 1.8499-.10604.3577.2479.4044.42491.4567.80507.2383 1.6313.4055 2.5005.663.67619.2001 1.0898.4007 1.3637.4817.37003.1095.53072.04.57856-.1206.19067-.6439-1.6206-.3827-1.0536-2.2968l.91681-3.0948c.1855-.6261.12584-.7801.97927-.5271.80507.2383 1.0471.4851 1.1841 1.382l.51524 3.227c.19157 1.1856.37313 2.4651 1.6451 2.8419.64384.1907 1.8232.1119 1.9875-.4426.0423-.143-.0225-.2789-.16749-.322-.16096-.048-.35371.011-.51467-.036-.12899-.038-.43478-.129-.49499-.4578-.49133-2.5973-1.0915-5.5968-1.0598-5.7043.0529-.1787.56759-.2014 1.1563-.4747.59402-.291 1.257-.8144 1.5961-1.9594.24396-.8228.66917-3.4406-2.8568-4.4849-1.0789-.3197-2.1949-.5724-3.2735-.892-1.0142-.3003-1.1219-.4101-1.8626-.6296-.19292-.057-.38075-.016-.43365.1635-.19068.6438 1.7604.502 1.1667 2.5053l-2.3314 7.8713z"/><path d="m432.46 449.48c-.51835 2.1589-2.1541.8453-2.3241 1.5524-.0959.3994.18595.4478.48007.5184.65312.1567 1.2092.2136 2.3032.4764 1.0938.2625 1.6152.4646 2.2684.6213.47357.1137.78705.2465.89147-.1888.12224-.508-2.0942-.4838-1.5584-2.7153l1.9687-8.2002c.20914-.8707.39422-.9222 1.0637-.7615l1.3876.3332c1.8952.3782.88922 2.2667 1.5424 2.4234.42463.102.41478-.6486.43448-.8743l.22129-1.7123c.027-.1851.088-.4393-.15668-.4978-1.5184-.3647-2.63-.5549-5.0137-1.1273-2.384-.5724-3.4604-.9075-4.9788-1.2719-.24482-.059-.30587.1949-.36582.3725l-.83602 2.332c-.0896.2279-.28309.6036.0597.686.73473.1763.8155-2.3178 2.6606-1.8749l1.3715.3292c.66917.161.81073.2907.60164 1.1616l-2.021 8.4178z"/><path d="m452.3 444.42c.64638-.9996 1.3062-.7823 1.3848-1.2044.0576-.3118-.1837-.2997-.53045-.3639-.46233-.086-.93819-.098-1.4005-.1837-.47868-.089-.9275-.2479-1.4062-.3366-.19811-.037-.66692-.1803-.73135.168-.11908.6421 1.6743.2724 1.3547 1.9968-.0543.2938-.20643.9297-.92948 2.0669l-3.2958 5.1578c-.0732.119-.18685.3638-.2859.3452-.099-.018-.13395-.2904-.15984-.428l-1.0516-6.3047c-.20553-1.1957-.26-2.0979-.15803-2.648.14295-.7705 1.0825-.3118 1.1743-.8073.0576-.3118-.0282-.3087-.55632-.4067-.26424-.049-.75669-.064-1.8133-.26-.56139-.104-1.1093-.2814-1.6541-.3824-.24764-.046-.73221-.2876-.81381.1524-.0239.1285.17041.2783.21656.3059.64272.309.8366.5535.98461 1.3209l2.1322 11.439c.15443.8256.28561 1.0397.4508 1.0704.18145.034.28448-.061.55463-.5045l6.5341-10.193z"/><path d="m453.23 454.93c.009.4556-.0324.6.36301.7795.92073.4001 1.6915.9832 2.7017 1.152 2.1693.363 3.9672-1.0198 4.3704-3.4302.39114-2.3371-.56957-3.3113-2.1969-4.4726-2.0373-1.4571-2.9083-1.8488-2.702-3.0816.20622-1.2328 1.0685-1.8074 2.1617-1.6245 2.8486.4767 2.5242 3.941 2.9049 4.0046.36443.061.4511-.1515.4857-.5617l.23048-2.4966c.0378-.4285.13372-.6964-.11481-.7378-.21521-.036-.67874.1891-.89373.1531-.49694-.083-1.0724-.9174-2.4305-1.1445-1.9377-.3244-3.5214.9996-3.8754 3.1159-.32332 1.9321.53382 2.8132 1.8409 3.7508 2.4479 1.7529 3.4511 2.1665 3.1894 3.7308-.24651 1.472-1.3879 2.189-2.6798 1.9729-1.8381-.3078-2.5847-2.1541-2.8191-4.0094-.0261-.2501-.0315-.4212-.29659-.4657-.41422-.069-.33768.4922-.33122.7581l.0919 2.6069z"/><path d="m477.95 447.96c.53833-1.062 1.2173-.9148 1.2511-1.3426.0247-.3163-.21386-.2791-.56561-.3067-.46852-.037-.94325.0009-1.4121-.036-.48539-.038-.94802-.1497-1.4337-.188-.20081-.016-.68184-.1096-.70969.2437-.0511.6509 1.6937.096 1.5561 1.8443-.0235.2977-.10806.9461-.70857 2.1527l-2.7383 5.4738c-.0605.1263-.1479.3813-.24847.3734-.10039-.01-.16343-.2749-.2035-.4088l-1.7047-6.1604c-.32924-1.1678-.47808-2.059-.43419-2.6171.0612-.7811 1.044-.4232 1.0834-.9255.0247-.316-.0602-.3039-.59599-.3461-.2679-.02-.75895.016-1.8305-.069-.56899-.045-1.1324-.1641-1.6847-.2073-.25101-.02-.75838-.2096-.79354.2367-.0113.1303.19877.2591.24733.2816.67171.2401.88979.4632 1.1174 1.2109l3.3163 11.153c.23975.8051.39256 1.004.55998 1.0172.18393.014.27663-.091.49894-.5597l5.433-10.82z"/><path d="m480.6 457c-.0158 1.9028-1.6256 1.5531-1.6321 2.2993-.002.3172.33373.2268.51863.2285.45332 0 .90723-.067 1.4444-.062.58785.01 1.158.085 1.9808.092.21837 0 .63793.024.64018-.2369.007-.8769-2.1527.3728-2.1215-3.2091l.0553-6.3433c.00098-.1679.036-.2983.13687-.2975.0842.0009.18392.095.30026.2454l7.992 9.7719c.11617.1504.19924.2628.43422.2651.20148 0 .20283-.1475.20643-.558l.0912-10.466c.0158-1.9588 1.4402-1.4987 1.4453-2.0584.00056-.056.002-.2426-.31685-.2454-.15105 0-.73952.068-1.7973.059-1.1588-.011-1.645-.089-1.9138-.091-.21813 0-.27014.1843-.27126.3148-.005.6157 2.046.2978 2.0311 1.9955l-.0541 6.2127c-.005.4663-.0396.69-.14047.6891-.10063-.0008-.30024-.2265-.51635-.4896l-6.6782-8.2866c-.29914-.3571-.0966-.486-.63371-.4905-.89007-.01-1.3274.063-1.7638.059-.31911 0-.62077-.08-.9396-.083-.20149 0-.28674.1465-.28816.3146-.009.8954 1.8831-.3008 1.8519 3.2814l-.0617 7.0896z"/><path d="m496.86 448.6c.0158-1.7725 1.2691-1.0898 1.2745-1.7241.002-.224-.0814-.262-.58531-.2665-.95706-.01-1.5623.061-2.1665.056-.58783 0-1.2421-.086-1.8969-.091-.15105-.001-.57041-.061-.57322.2564-.005.6528 1.8029.1472 1.788 1.8448l.0158 8.9553c-.0158 1.7722-1.2202 1.2767-1.2258 1.9298-.00084.093.0315.224.18257.2254.43673.01 1.1594-.064 1.8814-.058 1.3096.011 1.9304.091 2.5514.097.38637 0 .53804-.07.53973-.2752.005-.5971-1.8828.2448-1.8629-2.05l.0776-8.8992z"/><path d="m503.9 457.27c.0202 2.2203-1.8859 1.3412-1.8794 2.0689.005.4106.28871.3894.59121.3866.67141-.01 1.2249-.085 2.35-.095 1.125-.01 1.6797.06 2.3514.054.48682 0 .82338.049.81943-.399-.005-.5226-2.149.037-2.1693-2.2574l-.0734-8.433c-.007-.8954.1594-.9902.84758-.9961l1.4273-.011c1.9304-.091 1.4112 1.9841 2.0829 1.9782.43644 0 .24539-.7299.20981-.9534l-.19967-1.7148c-.0181-.1866-.0202-.4477-.2724-.4455-1.5618.014-2.686.098-5.1375.1195-2.4516.02-3.5772-.044-5.1389-.03-.25184 0-.24959.2634-.26479.4503l-.24706 2.465c-.0315.2429-.12854.654.22399.6512.75584-.01.23075-2.4462 2.1279-2.4628l1.4104-.014c.68857-.01.85714.086.86502.9812l.0757 8.6567z"/><path d="m513.68 453.74c-.30139.024-.53439.061-.54902-.1252-.0202-.2603.0639-.4728.12989-.7027l1.0299-3.3933c.0675-.2114.13304-.2353.16658-.2378.0835-.01.0336 0 .14543.1382l1.6378 3.2586c.1013.2165.21769.4133.23833.6737.0135.1859-.22128.1857-.52255.2095l-2.2765.179zm2.8745.7845c.43534-.034.53353.1452 1.2002 1.5525.22377.4877.36722.8132.3993 1.2224.0896 1.1346-1.1152 1.0234-1.0727 1.5629.0202.2606.23525.2062.53635.1823.48569-.038 1.0992-.1611 1.8356-.2192 1.105-.087 1.5626-.048 2.1654-.096.45193-.035.60557-.011.5808-.3265-.0484-.6137-.89512.1828-1.535-1.0954l-5.4156-11.028c-.2617-.5409-.29798-.5755-.44882-.5637-.21746.018-.27352.3771-.36724.6841l-3.6509 11.61c-.33625 1.0744-1.1988 1.0299-1.1652 1.4577.0202.242.28391.1834.51833.1652.4854-.038.9652-.1508 1.4672-.1905.53578-.042 1.0437-.01 1.5795-.049.35148-.028.88079.062.85012-.3289-.0396-.502-1.8243-.062-1.9296-1.4014-.0351-.4466.14791-1.116.23581-1.497.28845-1.2582.63428-1.36.91879-1.3825l3.2977-.2595z"/><path d="m529.53 446.79c-.16838-1.2764-.10422-1.3037 1.9104-1.5688 3.213-.4232 2.1994 1.9121 2.982 1.8092.3827-.05.21926-.6498.17086-.8882l-.30756-1.8226c-.0225-.1666-.16299-.336-.37933-.3075-1.465.1927-2.6041.4181-3.786.5737-2.5472.3352-3.7556.419-4.438.5088-.23326.031-.34695.1963-.32501.363.0974.7398 1.9008-.1 2.1201 1.5649l1.1397 8.6572c.29686 2.2566-1.0997 1.4245-.98772 2.2751.0158.1113.12675.1905.34302.1621.91567-.1206 1.6051-.2867 2.1212-.3545.73277-.097 1.3583-.1036 1.9909-.1869.41618-.055.77554-.027.72684-.397-.0657-.4992-1.8859.2107-2.1564-1.8424l-.36048-2.7377c-.14115-1.073-.23694-1.286.52876-1.387l1.232-.1621c1.7314-.2279 1.5235 1.7942 2.0562 1.7241.39959-.053.21184-.7054.16389-.9438l-.55013-3.2771c-.0824-.4973-.26057-.4362-.37707-.421-.33318.044-.15894 1.7522-1.5908 1.9408l-1.0488.1382c-.71588.094-.73276-.035-.83774-.8307l-.34076-2.5897z"/><path d="m535.67 451.03c.69026 3.724 3.3782 5.7875 6.6968 5.1724 5.2669-.9759 5.4408-5.6573 4.965-8.2253-.72095-3.8893-3.6197-5.8-6.8324-5.1665-3.939.7679-5.574 4.2018-4.8294 8.2194zm1.837-1.422c-.49301-2.66-.13688-5.3449 2.6435-5.917 2.1229-.4313 4.5316 1.3235 5.283 5.3776.56449 3.0453.0957 5.675-2.7341 6.2564-2.9451.6027-4.696-3.0386-5.1924-5.717z"/><path d="m550.53 443.11c-.26114-1.0887.24509-1.21.84897-1.3552 1.6493-.3959 2.886.7272 3.3126 2.505.2572 1.0705.40297 2.11-2.0787 2.7057-.48992.1177-1.0941.2625-1.203-.1907l-.87993-3.6646zm.009 8.8818c.54873 2.2859-.91737 2.0045-.77808 2.585.0869.363.41676.2262.59657.1832.81635-.196 1.6152-.4646 2.4971-.6762.6855-.1645 1.1439-.1981 1.4214-.2645.37566-.09.48007-.2305.44094-.3937-.15668-.6531-1.5947.4787-2.0607-1.4624l-.75358-3.1385c-.15219-.6351-.28085-.7386.58444-.9463.81635-.1959 1.1495-.1033 1.7168.6047l2.0596 2.5374c.75895.9306 1.5559 1.9481 2.8455 1.6386.65314-.1567 1.6349-.8147 1.5001-1.3772-.0348-.1449-.15893-.2304-.30616-.1949-.16321.039-.30026.1871-.46374.2265-.13058.031-.44068.1056-.65735-.1495-1.7244-2.0035-3.7438-4.3009-3.7699-4.4098-.0437-.1814.39058-.4584.76402-.9894.36919-.549.68155-1.3338.40267-2.4949-.20036-.8346-1.1411-3.3143-4.7168-2.4557-1.0941.2625-2.1867.6016-3.2808.8641-1.0285.2471-1.1766.2058-1.9279.3861-.19586.047-.33739.177-.29378.3585.15668.6532 1.7754-.4454 2.2633 1.5866l1.9163 7.9824z"/><path d="m564.01 448.98c.55604 2.1496-1.5052 1.7576-1.3232 2.462.10265.3976.37456.3081.66721.2324.6503-.1682 1.1681-.3793 2.2574-.661 1.089-.2817 1.6442-.3481 2.2945-.5164.47133-.1218.81043-.1517.69844-.5853-.13079-.5057-2.0762.5563-2.6508-1.6656l-2.1116-8.1645c-.22422-.867-.0851-.9993.58137-1.1718l1.3819-.3573c1.8508-.5558 1.8491 1.5837 2.4994 1.4157.42266-.1094.0617-.7677-.027-.9759l-.60866-1.6155c-.0628-.1765-.12831-.4295-.372-.3664-1.512.3911-2.5824.7451-4.956 1.3589-2.3733.6137-3.4812.8231-4.9932 1.2142-.2437.063-.17852.316-.14813.5006l.35652 2.4518c.0284.2432.0336.6658.37482.5775.73165-.1891-.36807-2.4293 1.4689-2.9043l1.3656-.3532c.66663-.1724.85236-.124 1.0766.7429l2.1676 8.3812z"/><path d="m572.6 437.52c-.47387-1.7079.91935-1.3972.74995-2.0087-.0599-.2156-.15083-.229-.63626-.095-.92242.2558-1.4849.4894-2.0674.6509-.56618.1569-1.2173.26-1.8482.435-.14588.04-.56534.098-.48063.4044.17469.6292 1.8634-.3813 2.317 1.2548l2.3936 8.6299c.47358 1.7079-.82113 1.5635-.64666 2.193.025.09.0923.2069.23806.1664.42042-.1169 1.0963-.3816 1.7922-.5746 1.2621-.3501 1.8806-.4441 2.4794-.6101.37228-.1034.49779-.2155.44293-.4134-.15961-.5752-1.7424.7544-2.3556-1.4571l-2.3784-8.5759z"/><path d="m576.18 441.69c1.2018 3.5918 4.1509 5.2611 7.3516 4.1901 5.0796-1.6994 4.6006-6.3594 3.7716-8.8365-1.255-3.7508-4.3912-5.2394-7.4847-4.1651-3.7938 1.3088-4.9349 4.9366-3.6385 8.8115zm1.6214-1.6639c-.85856-2.5652-.87938-5.2734 1.7939-6.2271 2.0424-.7226 4.6718.6799 5.9803 4.5899.98265 2.9373.88416 5.6064-1.837 6.5761-2.8326 1.0065-5.0731-2.3557-5.9372-4.9389z"/><path d="m589.72 431.56c-.41027-1.0414.0741-1.2322.65229-1.4599 1.5781-.6216 2.9589.3183 3.6289 2.0193.40353 1.0243.69254 2.0334-1.6819 2.9688-.46881.1846-1.0468.4123-1.2179-.023l-1.3814-3.5065zm1.2446 8.7943c.86165 2.1871-.62977 2.1128-.41085 2.6683.13666.3472.44433.1661.61627.098.78117-.3076 1.535-.6847 2.3784-1.017.65622-.2586 1.1056-.3551 1.371-.4601.35963-.1412.44348-.2946.38185-.4511-.24621-.625-1.5125.6962-2.2442-1.1613l-1.183-3.0031c-.23919-.6076-.38101-.6923.44714-1.0184.78116-.3076 1.1239-.2623 1.7841.3599l2.3928 2.2259c.88105.816 1.8117 1.7128 3.0459 1.2266.62497-.2462 1.5058-1.0341 1.2936-1.5725-.0545-.1387-.18933-.206-.3298-.1506-.15646.062-.27154.2271-.42773.2887-.12494.049-.42181.1662-.67198-.056-1.9864-1.7441-4.306-3.7381-4.3468-3.8422-.0687-.1736.32305-.5082.61878-1.0859.28901-.5952.48908-1.416.0515-2.527-.31461-.7986-1.5913-3.123-5.0129-1.7753-1.0468.4125-2.0818.9002-3.1286 1.3127-.98406.3877-1.1363.3675-1.8553.6506-.18752.074-.30954.2219-.24115.3956.24621.625 1.6963-.688 2.4622 1.2562l3.0087 7.638z"/></g><g fill="#fedf00"><path d="m412.66 249.25h82.179v82.023h-82.179z" fill="#d52b1e"/><path id="a" d="m451.2 313.83s-.048 2.9314-.85518 5.2867c-.93313 2.7214-.94016 2.7214-1.7956 4.0429-1.1524 1.7809-2.5571 3.0827-3.8096 3.8875-1.9583 1.2584-3.9483 1.8876-5.9482 1.7103-5.491-.4865-8.0382-6.4401-9.2831-11.273-1.3217-5.131-5.0733-7.9231-7.4638-6.0642-1.3994 1.0885-1.4782 2.9142-.31093 4.6651 1.2441 1.8657 4.0991 2.7988 4.0991 2.7988l-2.9328 3.7319s-6.3019-.8205-7.5345-7.3932c-.46629-2.4881.74177-7.1335 4.891-8.5222 5.2968-1.7731 8.686 2.0041 10.318 5.1916 2.2456 4.3836 3.2096 12.434 9.4294 11.19 3.3838-.6768 4.976-5.5979 4.976-7.8525l2.467-2.6434 3.6542 1.1664.0986.078z" fill="#fff"/><use transform="matrix(-1 0 0 1 907.5206 0)" xlink:href="#a"/><path d="m461.12 278.95 10.76-11.643s1.624-1.3096 1.6096-3.4015l-2.2186.3452-.49694-1.1416-.11054-1.1473 2.9817-.6292c.0473-.4843.007-.8507.092-1.385.0795-.4939.19-.7587.31123-1.2441l-3.2656.2188c.16592-.5715.1281-.8754.31094-1.4067.15399-.4469.19675-.6177.50287-1.1028.60641-.091 1.158-.2279 1.9073-.3039.7277-.073 1.1433-.039 1.8733-.085 1.781-3.3214 9.1894-6.3732 14.454-.9042 3.8096 3.9582 2.9876 11.219-1.9509 13.139-2.7988 1.0885-5.0534.4449-6.8617-1.1101l1.9709-3.8656c2.7211 1.6254 4.9757-.3959 4.8204-2.4952-.19676-2.6535-1.9186-4.2966-4.3538-4.5094-2.2543-.197-3.8726 1.093-4.8983 3.1101-.62583 1.2305-.33627 2.1332-.54423 3.4986-.22568 1.4833-.0988 2.3109-.53691 3.8096-.31825 1.0882-1.1549 2.4341-2.3697 3.5926l-11.03 11.935-42.941 46.445-3.2268-2.9831 43.211-46.737z"/><path d="m429.51 283.04s2.6994 13.372 11.874 33.431c4.665-1.7103 7.4191-2.7991 12.362-2.7991 4.9431 0 7.6971.9331 12.362 2.7991 9.1742-20.059 11.874-33.431 11.874-33.431l-24.236-31.177z" fill="#fff"/><path d="m456.12 262.41 16.82 21.637s-2.2433 10.52-9.0782 26.354c-2.646-.6025-4.9158-1.1276-7.7323-1.3195l-.009-46.671z"/><path d="m451.38 262.41-16.82 21.637s2.2433 10.52 9.0782 26.354c2.646-.6025 4.9158-1.1276 7.7323-1.3195l.009-46.671z"/></g><g fill="#d52b1e"><path d="m503.6 249.25h82.179v82.023h-82.179z" fill="#fedf00"/><path d="m515.11 249.25h12.253v82.023h-12.253z"/><path d="m538.59 249.25h12.253v82.023h-12.253z"/><path d="m562.07 249.25h12.253v82.023h-12.253z"/></g><g fill="#d52b1e" stroke="#d52b1e" stroke-width=".513"><path d="m412.97 402.41c.23327 1.4774.75922 4.0119 2.1625 6.6087 1.4771 2.3322.93285 2.2689 4.2762 6.0008 1.6456 1.837 4.2137 3.4109 6.2271 4.4948 2.0213 1.0885 3.5169 1.6229 6.8417 2.4952 6.5175 1.7104 11.091 1.817 16.574 1.5984 4.2781-.1709 7.5443-.6973 10.249-1.0615 3.8574-.5189 6.7305-.8278 11.118-1.0105 2.1333-.089 4.149-.1101 6.1421 0 2.4057.1326 4.7818.5054 7.3085 1.0105 5.442 1.0885 10.962 3.1877 10.962 3.1877l.0135-85.655-82.193-.023v58.543s.16862 2.8599.31828 3.8096z" fill="#fedf00" stroke="none"/><path d="m422.51 417.43 3.8518 2.2412 5.2782 1.8989-.005-81.527h-9.1264z"/><path d="m468.17 421.14.0113-81.099h-9.1435v82.396s6.2572-.80203 9.1312-.98833z"/><path d="m486.41 340.05h-9.1134v81.381c2.9699.3213 6.0236.85177 9.1311 1.6825l-.018-83.064z"/><path d="m449.92 340.05v83.331c-.0903.01-6.1007.31515-9.1733-.003l.002-83.314z"/></g><path d="m585.48 402.39c-.23327 1.4771-.75921 4.0116-2.1626 6.6084-1.4771 2.3325-.93285 2.2692-4.2759 6.0009-1.6456 1.8369-4.214 3.4108-6.2271 4.495-2.0216 1.0885-3.5169 1.6226-6.8417 2.4952-6.5178 1.7103-11.091 1.817-16.574 1.5981-4.2778-.1707-7.544-.6973-10.249-1.0612-3.8574-.5189-6.7305-.8279-11.118-1.0108-2.133-.089-4.149-.1096-6.1421 0-2.4057.1326-4.7815.5054-7.3082 1.0108-5.4423 1.0885-11.033 3.1877-11.033 3.1877l.0565-85.655 82.193-.023v58.543s-.16815 2.8596-.31826 3.8096z" fill="#fedf00"/><g id="b"><path d="m524.62 346.91s-.36638.1753-.59375.2813c-.29828.3273-.44752.519-.78125.8125-.44293.3892-.76881.503-1.25.8437-.23045.163-.41928.2156-.59375.4375-.25219.3208-.0791.6292-.25 1-.18658.405-.36896.5965-.65625.9375-.36612.4348-.64912.6098-1.0625 1-.41817.3951-.58752.7265-1.0938 1-.1339.072-.19832.1425-.34375.1875-.21554.067-.34931-.011-.5625.062-.38806.1343-.51024.5626-.78125.7188.11196.2178.10686.3725.21875.5937.15785.3234.70512 1.2154.8125 1.4375.20907.3051.27011.6996.53125.7813.53775.1681.8586.1532 1.3125.125.79213.1818 1.2805.1578 2.0312.4687.61288.2539.86262.575 1.4688.8438.47418.2102.77191.3394 1.2812.4375.38665.074.60802.132 1 .094.24961-.024.37681-.1197.625-.1562.0488-.01.0809 0 .125 0l-.0312.375c-.005 0 .005.028 0 .031v.062h.0625l2.0625.9063c-.0738.1176-.1515.2566-.1875.375-.0981.3205-.114.6886-.0625.8437.62922 1.8877 1.1592 3.0684 1.4688 3.1875.6154.2364.80591.8649 1.1562 1.5-.12367.1321-.22734.2008-.34375.3125-.61493.5902-1.152 1.0093-1.6562 1.8125-.74541 1.1879-1.2487 1.2038-.3125 2.7813.54902.9247.81425 1.0994 1.5312 2.4062.36161.6591.56221 1.1733.78125 1.9688.20712.7519.2779 1.1895.3125 1.9687l.96875.375.65625-.6562.625-1.1875.0312-.9063c-.23861-.2026-.3076-.4733-.25-.7812.0695-.3686.51434-.2913.71875-.625.28309-.4615-.33152-.7344-.65625-1.0938-.60558-.6697-1.4305-.8329-1.625-1.8437-.0523-.2732.0776-.4267.375-.7188.85519-.8399 1.1299-.9736 1.9688-1.8125.242.142.61054.1932.96875.125.27914-.053.52914.1252 1.4062.375.60951.1736.8732.086 1.2188.031l.375-.094c.0504.2114.1115.4157.125.6875.0531 1.0604-.15471 2.9947.15625 3.5.13118.2131.18605.3315.28125.5625.0986.2406.21375.3963.21875.6563.0112.6956.0471 1.1405 0 1.875-.0441.6911-.10304 1.042-.21875 1.75-.074.4511-.16594.7136-.4375 1.0625-.28336.3639-.59506.4174-.96875.6875l-.0937 1 1.125.4687 1.2812.3125.6875-.2812c0-.2544.0399-.399.15625-.625.12748-.2465.23181-.4386.46875-.5313.36244-.1423.75947.1292.90625-.094.15946-.242.0594-.3375.0312-.75-.0453-.6621-.18355-.9888-.28125-1.6563-.16416-1.1107-.20985-1.6865-.15625-2.75.0311-.6165.0383-.9563.15625-1.5625.17195-.8824.48556-1.3112.6875-2.1875.22541-.9775.2647-1.6062.375-2.4687 3.1694.4528 5.8074.3972 9.3438-.375.16911-.037.75-.25.75-.25.79947.6889 1.706 1.2642 2.7188 1.625-.006.1016-.0158.8456 0 .9687.0365.2876-.0414.4813.125.7188.10551.1506.19603.2396.375.2812.26255.061.45476.023.65625-.1562.22633-.2015.1843-.4545.25-.75.032-.1407.007-.5644 0-.6875.36667.055.49117.062.875.062.35765 0 .52944.014.875-.031.005.081.0199.3689.0312.4688.0268.2443-.0757.4347.0312.6562.11087.2296.24955.3592.5.4063.20599.039.35363.018.53125-.094.29551-.1851.2632-.4984.3125-.8437.0146-.11.0113-.6919 0-.7813.21161-.067.82729-.2917 1.0312-.375-.005.2426-.0388.5168-.0937.8125-.0699.376-.11965.5785-.25.9375-.20598.5676-.44159.8561-.75 1.375-.37681.6338-.57286.9854-1.0312 1.5625-.21105.266-.35764.3856-.5625.6563-.25522.3374-.34218.5663-.59375.9062-.32418.4382-.51034.724-.9375 1.0625-.69364.5499-1.1499.1099-2.0938.8438l-.21875 1.0312 1.4375.5313 1.2812.25.4375-.25c-.0118-.3011.0319-.5139.21875-.75.21357-.2698.44159-.3511.78125-.4063.36132-.059.74677.034 1.0312-.2187.35006-.3109.34867-.9141.625-1.4688.85827-1.7235 1.6208-2.5628 3-3.9062.6126-.5966 1.1374-.7579 1.6562-1.4375.24651-.3225.51995-.4692.53125-.875.008-.2828-.14395-.4151-.21875-.6875-.10357-.3771-.1875-1-.1875-1 1.5218.7446.97085.6462 1.25 1.4062.22555.6149-.0325 1.0395.0625 1.6875.11114.7559.46615 1.1139.53125 1.875.0777.9048-.14299 1.4205-.3125 2.3125-.14886.7846-.12995 1.2768-.46875 2-.32248.6889-.57094 1.0769-1.1562 1.5625-.21105.175-.36836.2503-.59375.4063l-.125 1.0312 1.125.375 1.625.4375.375-.3437c.16348-.6545-.0547-1.6165.40625-1.6875.40606-.062.69275.0001.78125-.3125.0367-.1314.0589-.3259.0937-.625.22118-1.8859.42149-3.6454.625-4.5.23012-.9677.21445-1.178.40625-1.9063.17532-.6641-.0853-.2824.40625-1.6875.73418-2.0972-.20816-2.375-1.0625-3.6562-.46205-.6931-.6218-.9442-.6875-1.5-.097-.8169.1647-1.4947.125-2.75-.041-1.3198-.0225-2.1591 0-2.875.11538-.053.22175-.1207.34375-.1875 1.1706-.6427 1.6363-.8361 2.375-2.4688.22389-.4955.3195-.9937.3125-1.4687-.005-.3321-.0648-.6522-.0937-1.0313-.0304-.399-.19094-.6375-.3125-.9375-.12945-.3182-.32443-.5586-.5625-.8437-.77243-.9247-1.7789-1.1319-2.7188-1.4688-1.4835-.5317-2.505-.4346-4.125-.5625-1.6721-.1321-2.6064-.1577-4.2812-.062-2.0067.1143-3.1279.519-5.125.75-1.9158.2217-2.9778.3701-4.9062.4063-2.2602.042-4.4207-.4606-5.7812-.3438-2.451.21-2.493.7612-6.1875 1.0625-1.927.1574-3.8438.1875-3.8438.1875l-2.1562-.6875c.85659-.3061 1.0661-.4881 1.4688-1.0312.27183-.3661.23326-.6784.5625-1.0625.26677-.3118.443-.6224.78125-.9688-.3101-.2491-.64289-.3763-.9375-.4375-.36386-.076-.57336-.042-.9375 0-.49414.056-.77245.1243-1.2188.3438-.35934.177-.62403.3574-.84375.5937 0 0-1.2856-.8287-2.1875-1.2187-1.1186-.4843-1.6006-.7117-3-.9063zm1.9688 11.906h.0625c-.0123.01-.019.022-.0312.031l-.0312-.031z" fill="#d52b1e"/><g fill="none" stroke="#fedf00" stroke-linecap="round" stroke-width=".987"><path d="m568.77 359.52-.76315.244c-.86699.4021-1.5778.4178-2.6001.4961-2.6437.2021-4.2714-1.0572-6.9976-.8476-1.4039.108-2.0252 1.1909-3.4598 1.5483-.65256.1625-1.0313.2254-1.7016.2819l.51272-1.0333s-1.284.2617-2.1153.2634c-.59629.001-.93595-.028-1.5235-.1301l1.0181-.9506s-.81351-.1319-1.2936-.3351c-.44265-.1871-.68353-.3301-1.06-.6292.66327-.1139 1.0358-.1921 1.6893-.3535 1.5561-.3849 2.0398-1.147 3.8909-1.3254 1.149-.1112 3.0321-.046 7.6428.7168 3.0357.502 4.3822.267 5.5354-.2572.7609-.3459 1.0108-1.0108 1.1031-1.7883.0925-.7764-.40408-1.4045-.87376-1.81-.12268-.106-.44404-.3351-1.1129-.363"/><path d="m524.8 350.61c-.53042-.066-.88442.011-1.3397.2915-.48036.2958-.5417.6965-.88809 1.142.44517.099.69843.3607 1.1419.2538.34668-.084.52677-.2386.76117-.5076.31546-.3625.4314-.6754.42746-1.156l-.10266-.024z" fill="#fcd900" stroke-linecap="butt" stroke-width=".513"/><path d="m536.04 363.79s.26396.4801.40661.7992c.24793.5552.37624.8785.52426 1.468.20036.7987.11369 1.2838.24088 2.0973.0225.1432.0498.2634.0767.3768l-.0511 1.1287"/><path d="m544.04 362.71s-.21881.8122-.354 1.3325c-.35201 1.3538-.67648 2.0871-.94381 3.4601-.0448.2302-.0777.4429-.10356.6444"/><path d="m531.78 364.17c.79018.1756.54424 3.3602 1.7888 4.0904"/><path d="m560.12 369.78.3844-.249c1.0139-.4146 1.9251-1.0271 2.6857-1.7897" stroke-linecap="butt"/><path d="m552.38 368.02c.002-.0005.005-.0009.007 0 3.533-.883 5.8849-2.6476 7.5786-2.8688"/><path d="m555.97 363.61c.29885-.011.58475-.033.82928-.068 1.4681-.2096 1.7042.6869 2.7262 1.2584 1.8564 1.0381 2.0973 2.307 4.299 3.3555.11638.055.22331.1069.32135.1551l.84729.4288"/><path d="m517.7 354.53c.26819.067.43196.08.70745.054.33148-.031.48373-.2378.81635-.2488.27097-.01.46261-.032.68407.1245.14092.099.1999.1894.27999.3419.0871.1668.163.2823.1245.4666-.0595.2842-.32417.4173-.61431.4198-.23721 0-.43391-.062-.54422-.2721-.0707-.1348-.0815-.2425-.0388-.3886-.28393.1067-.48964.1108-.7775.016-.30308-.1002-.47473-.2386-.63738-.513z" fill="#fcd900" stroke-linecap="butt" stroke-width=".513"/></g><g fill="#0065bd"><path d="m525.13 364.17c-.79692-.2375-1.9658-.8259-1.9658-.8259.32277-.251.58672-.2651.86276-.5547.38919-.4083.37287-.7885.59264-1.3192.21566-.52.18459-.9545.67142-1.3428.28956-.231.76232-.269 1.1177-.1652.35287.1127.75921.4012.84843.7662.13732.5611-.15984.8853-.24595 1.454-.0858.5679-.29295.894-.19473 1.4599.0651.3743.22625.5186.35344.9072 0 0-1.2643-.1488-2.0399-.3796z"/><path d="m524.14 365.12c-.007-.3473.2707-.634.61795-.6399.34754-.01.634.2707.64019.6179.007.3475-.2707.634-.61795.6399-.34754.01-.634-.2704-.64019-.6179z"/><path d="m522.38 348.61s-.0898-.06-.14362-.1036c-.38326-.3098-.41985-.6531-.60164-1.111-.17221-.4333-.25692-.6908-.3146-1.1534-.0506-.4058 0-.6396 0-1.0485 0-.3681.0396-.5777 0-.9435-.0405-.3751-.0306-.6121-.21003-.9438-.097-.1801-.39453-.3374-.31435-.4196.0946-.097.25694-.02.4193 0 .39987.048.63089.1657.94381.4196.37707.3058.52651.5709.67171 1.0485.16681.5481.24847.8982.40774 1.468.0826.2955.12877.4688.28365.7339.16096.2758.31967.3838.52425.6292l-.0113.023c-.29828.327-.44378.5394-.77666.8338-.30504.2699-.55998.4033-.84674.5729l-.0324-.01z"/><path d="m525.98 359.25 2.2309 1.0311c1.1481-.6348 2.4732-1.9239 3.4964-3.9191.88079-1.7176 1.0206-2.6505 1.3639-4.3127l-1.7891-.5817-.35709.073c-.55239 1.7233-.69253 2.704-1.6178 4.1926-.80226 1.2911-1.7185 2.3049-2.6491 3.0338l-.67817.4834z"/><path d="m530.92 377.37c.35963-.4928.51327-.8107.92214-1.2635.45616-.5051.80003-.7021 1.3116-1.151.15556.016.33544-.011.4812.072-.0284.5448-.0563.9487-.1801 1.5407-.10041.4804-.1864.746-.34698 1.2097-.13462.3881-.15848.6391-.38973.979-.1542.2266-.29013.3158-.47585.5178-.51046-.7418-1.3302-1.2967-1.3223-1.9053z"/><path d="m563.93 379.22c.57264.2103.92075.2702 1.4686.5384.6112.2994.89541.5757 1.4678.9438.0268.154.10379.3188.063.4823-.53155.1229-.92749.2076-1.5308.2516-.48935.036-.76849.027-1.2584 0-.41028-.023-.65818.024-1.0485-.1047-.26058-.086-.38383-.192-.62891-.3146.57236-.6954.87992-1.6364 1.4672-1.7968z"/><path d="m554.17 377.18c.57265.21.92047.2699 1.4683.538.6112.2994.89571.5758 1.4681.9438.0263.154.10378.3189.063.4826-.53157.1227-.92749.2074-1.5311.2513-.48934.036-.76821.027-1.2581 0-.41029-.023-.65821.024-1.0485-.1046-.26058-.086-.38383-.1918-.62921-.3146.57263-.6954.87992-1.6364 1.4675-1.7965z"/><path d="m536.83 379.31c.57292.21.92073.2701 1.4686.5383.6112.2991.89571.5758 1.4681.9438.0266.154.10378.3189.063.4824-.53157.1227-.92749.2075-1.5311.2515-.48934.036-.76821.027-1.2581 0-.41028-.022-.65821.024-1.0485-.1049-.26058-.086-.38383-.1915-.62922-.3143.57237-.6953.87993-1.6363 1.4672-1.7967z"/><path d="m527.85 349.51c-.61259-.2781-1.0493-1.0446-.66072-1.5939.15555-.2197.41309-.1736.56617-.3951.18866-.2726.14161-.5076.13597-.8388-.007-.3771-.14385-.5727-.20957-.9438-.072-.4058-.13913-.6363-.13598-1.0485.005-.6281-.0378-1.0756.34555-1.5728.24454-.3171.66044-.5923.82421-.6123.14746.1364-.0565.502-.0322.822.0353.462.13056.7173.28758 1.1534.20239.5625.47867.8085.70267 1.3631.20847.5156.39986.8074.41956 1.3631.0158.4567-.0241.7356-.20959 1.1535-.16434.3695-.2997.5791-.60951.8388-.26931.2252-.45841.3251-.79637.4193-.24735.02-.40157-.01-.62781-.108z"/></g></g><use xlink:href="#b" y="36.590756"/><g fill="none" stroke="#703d29" stroke-width=".797"><path d="m412.66 249.25h82.179v82.023h-82.179z"/><path d="m503.6 249.25h82.179v82.023h-82.179z"/><path d="m412.97 402.41c.23327 1.4774.75922 4.0119 2.1625 6.6087 1.4771 2.3322.93285 2.2689 4.2762 6.0008 1.6456 1.837 4.2137 3.4109 6.2271 4.4948 2.0213 1.0885 3.5169 1.6229 6.8417 2.4952 6.5175 1.7104 11.091 1.817 16.574 1.5984 4.2781-.1709 7.5443-.6973 10.249-1.0615 3.8574-.5189 6.7305-.8278 11.118-1.0105 2.1333-.089 4.149-.1101 6.1421 0 2.4057.1326 4.7818.5054 7.3085 1.0105 5.442 1.0885 10.962 3.1877 10.962 3.1877l.0135-85.655-82.193-.023v58.543s.16862 2.8599.31828 3.8096z"/><path d="m585.48 402.39c-.23327 1.4771-.75921 4.0116-2.1626 6.6084-1.4771 2.3325-.93285 2.2692-4.2759 6.0009-1.6456 1.8369-4.214 3.4108-6.2271 4.495-2.0216 1.0885-3.5169 1.6226-6.8417 2.4952-6.5178 1.7103-11.091 1.817-16.574 1.5981-4.2778-.1707-7.544-.6973-10.249-1.0612-3.8574-.5189-6.7305-.8279-11.118-1.0108-2.133-.089-4.149-.1096-6.1421 0-2.4057.1326-4.7815.5054-7.3082 1.0108-5.4423 1.0885-11.033 3.1877-11.033 3.1877l.0565-85.655 82.193-.023v58.543s-.16815 2.8596-.31826 3.8096z"/></g></svg>