<svg height="666.66669" width="1000" xmlns="http://www.w3.org/2000/svg" xmlns:xlink="http://www.w3.org/1999/xlink"><path d="m0 0h1000v666.66669h-1000z" fill="#002868"/><path d="m0 0h1000v333.33334h-1000z" fill="#bf0a30"/><use height="666.66669" transform="matrix(-1 0 0 1 1000 0)" width="1000" xlink:href="#a"/><use height="666.66669" transform="matrix(-1 0 0 1 1000 0)" width="1000" xlink:href="#b"/><use height="666.66669" transform="matrix(-1 0 0 1 1000 0)" width="1000" xlink:href="#c"/><path d="m0 217.03334 500 116.30035-500-255.2007z" fill="#f0f"/><path id="a" d="m0 217.03334 500 116.30035-500-255.2007z" fill="#fed700"/><path id="b" d="m114.6.00008701 385.4 333.33330299-241.3-333.33336899z" fill="#fed700"/><path id="c" d="m369.8.00008701 130.2 333.33330299-46.9-333.33336899z" fill="#fed700"/><path d="m500.00051 165.15351 108.36824 333.52318-283.71175-206.12867h350.687l-283.71175 206.12867z" fill="#ce5c17"/></svg>