<svg height="300" width="450" xmlns="http://www.w3.org/2000/svg" xmlns:xlink="http://www.w3.org/1999/xlink"><path d="m0 0h450v300h-450z" fill="#bf0a30"/><path d="m37.49998 148.84088 186.72461 126.15912 188.2754-126.40488-188.2754-123.595121z" fill="#002868"/><path d="m83.99998 149.12834 140.41691 94.87166 141.5831-95.05647-141.5831-92.94353z" fill="#fff"/><path d="m148.17531 145.0139h7.83477l1.36 4.37564h4.81912l-7.47999-21.22779h-5.11477l-7.56869 21.22779h4.6713zm3.9026-12.0626h.05914l2.63129 8.39651h-5.41042zm12.96923 16.43824h4.34608v-8.30781h4.5826c1.57988-.01354 2.56661.29443 2.96021.92391.39358.6295.55988 1.66181.49892 3.09695.00121 1.07297.0431 1.93529.12565 2.58695.08252.65167.19832 1.21834.34739 1.7h4.90782v-.56174c-.45335-.13735-.7293-.49829-.82783-1.08282-.09857-.58453-.13799-1.63286-.11826-3.145-.0031-1.90941-.23346-3.20535-.69108-3.88782-.45767-.68245-1.12411-1.18013-1.99935-1.49304 1.05509-.37509 1.86444-1.01444 2.42804-1.91804.56357-.90357.84813-1.94944.8537-3.1376.02206-.65115-.13708-1.44138-.47743-2.37069-.34038-.92928-.99446-1.75674-1.96225-2.48238-.96782-.72561-2.38183-1.10849-4.24205-1.14866h-10.73216zm4.34608-11.8852v-5.67651h5.52869c1.26759.0456 2.1102.36835 2.52782.96826.41759.59994.60976 1.20356.57652 1.81086.00122 1.03911-.28212 1.7844-.85 2.23587-.56791.4515-1.42776.672-2.57956.66152zm21.77965 4.70086 2.06956-2.12869 6.56347 9.31303h5.70607l-9.1652-12.53563 8.6626-8.69216h-5.73564l-8.10086 8.63303v-8.63303h-4.43478v21.22779h4.43478zm21.09964 2.8087h7.83478l1.35999 4.37564h4.81912l-7.47999-21.22779h-5.11477l-7.56868 21.22779h4.67129zm3.90261-12.0626h.05912l2.6313 8.39651h-5.41042zm25.91876 9.99303h-.05912l-8.42608-14.78258h-4.67129v21.22779h4.13911v-15.13737h.05913l8.66261 15.13737h4.43477v-21.22779h-4.13913zm7.32228-.08869c-.03139.91598.17922 1.919.63182 3.00908s1.33554 2.03397 2.64882 2.83168c1.31327.79771 3.24523 1.21601 5.79587 1.25488.68966.03249 1.68867-.0949 2.99703-.38216 1.30834-.28725 2.51321-.92929 3.61462-1.92611 1.10137-.99682 1.68647-2.54333 1.7553-4.63955-.05053-1.86198-.61474-3.20103-1.69261-4.01716-1.07792-.81612-2.36646-1.37908-3.86564-1.68891l-5.17391-1.27131c-.48168-.07944-.96704-.26792-1.45609-.56543-.48906-.29749-.75268-.84814-.79086-1.65195.04864-.94669.45393-1.61067 1.21586-1.99196.76191-.38125 1.5885-.5648 2.47978-.55065 1.86814.07393 3.06183.48784 3.58108 1.24174.51923.75392.77423 1.40436.765 1.9513h4.25739c.00892-.90373-.22906-1.88194-.71395-2.93462-.48492-1.05265-1.32954-1.96077-2.53385-2.72438-1.20433-.76356-2.88115-1.1636-5.03045-1.20012-2.26941.03689-3.99514.42634-5.17719 1.16837-1.18207.74207-1.98142 1.61552-2.39807 2.62035-.41665 1.00487-.61156 1.91993-.58473 2.74518.06651 2.25374.7613 3.77758 2.08434 4.57152 1.32304.79395 2.87521 1.34953 4.65651 1.66673l2.27653.53218c1.14317.23899 2.06461.53711 2.76434.89434.6997.35726 1.0594.93624 1.07913 1.73696-.0536 1.09761-.53034 1.83674-1.43021 2.21739-.89991.38065-1.90143.55804-3.00457.53217-1.87985-.06898-3.10927-.49275-3.68825-1.2713-.57899-.77855-.84754-1.49797-.80565-2.15826zm25.33669 2.15826h7.83477l1.36 4.37564h4.81912l-7.47999-21.22779h-5.11478l-7.56868 21.22779h4.6713zm3.9026-12.0626h.05913l2.6313 8.39651h-5.41043zm11.87531 9.90434c-.03139.91598.17922 1.919.63182 3.00908s1.33554 2.03397 2.64882 2.83168c1.31327.79771 3.24523 1.21601 5.79587 1.25488.68966.03249 1.68867-.0949 2.99703-.38216 1.30834-.28725 2.51321-.92929 3.61462-1.92611 1.10137-.99682 1.68647-2.54333 1.7553-4.63955-.05053-1.86198-.61473-3.20103-1.69261-4.01716-1.07792-.81612-2.36646-1.37908-3.86564-1.68891l-5.17391-1.27131c-.48168-.07944-.96704-.26792-1.45609-.56543-.48906-.29749-.75268-.84814-.79086-1.65195.04864-.94669.45393-1.61067 1.21586-1.99196.76191-.38125 1.5885-.5648 2.47978-.55065 1.86814.07393 3.06183.48784 3.58108 1.24174.51923.75392.77423 1.40436.765 1.9513h4.25739c.00892-.90373-.22906-1.88194-.71395-2.93462-.48492-1.05265-1.32954-1.96077-2.53385-2.72438-1.20433-.76356-2.88115-1.1636-5.03045-1.20012-2.26941.03689-3.99514.42634-5.17719 1.16837-1.18207.74207-1.98142 1.61552-2.39807 2.62035-.41665 1.00487-.61156 1.91993-.58473 2.74518.06651 2.25374.7613 3.77758 2.08434 4.57152 1.32304.79395 2.87521 1.34953 4.65651 1.66673l2.27653.53218c1.14317.23899 2.06462.53711 2.76434.89434.6997.35726 1.0594.93624 1.07913 1.73696-.0536 1.09761-.53034 1.83674-1.43021 2.21739-.8999.38065-1.90143.55804-3.00457.53217-1.87985-.06898-3.10927-.49275-3.68825-1.2713-.57899-.77855-.84754-1.49797-.80565-2.15826z" fill="#002868"/><path d="m229.48396 49.981066-5.52097-3.999564-5.51096 4.018498 2.09456-6.491047-5.5216-4.003829 6.81548-.012123 2.09843-6.493001 2.1176 6.483554 6.81849-.009066-5.50668 4.019182z" fill="#fff"/><path d="m234.96407 190-9.96449 7.08113-9.97595-7.07478 3.80987 11.45237-9.96565 7.08865 12.31916-.00317 3.81686 11.4558 3.80366-11.45432 12.32459-.00857-9.96821-7.076z" fill="#002868"/><path id="a" d="m202.6998 190-9.96449-7.08112-9.97595 7.07477 3.80987-11.45236-9.96565-7.08864 12.31916.00315 3.81686-11.4558 3.80366 11.45432 12.32459.00859-9.96821 7.07599z" fill="#002868"/><path id="b" d="m215.98107 243.54103-3.99957 5.52097 4.0185 5.51096-6.49104-2.09456-4.00383 5.5216-.01212-6.81548-6.49301-2.09842 6.48356-2.11761-.00907-6.81849 4.01918 5.50668z" fill="#fff"/><path id="c" d="m233.01893 243.54103 3.99957 5.52097-4.0185 5.51096 6.49104-2.09456 4.00383 5.5216.01212-6.81548 6.49301-2.09842-6.48356-2.11761.00907-6.81849-4.01918 5.50668z" fill="#fff"/><use id="d" height="300" transform="translate(64.52842)" width="450" xlink:href="#a"/><use height="300" transform="translate(-32.26415 -85)" width="450" xlink:href="#d"/><use id="e" height="300" transform="translate(151.47776 -119)" width="450" xlink:href="#b"/><use id="f" height="300" transform="translate(-27 -18)" width="450" xlink:href="#e"/><use id="g" height="300" transform="translate(-27 -18)" width="450" xlink:href="#f"/><use id="h" height="300" transform="translate(-27 -17)" width="450" xlink:href="#g"/><use id="i" height="300" transform="translate(-27 -18)" width="450" xlink:href="#h"/><use id="j" height="300" transform="translate(-163.47776 108)" width="450" xlink:href="#i"/><use id="k" height="300" transform="translate(24 16)" width="450" xlink:href="#j"/><use id="l" height="300" transform="translate(24 16)" width="450" xlink:href="#k"/><use id="m" height="300" transform="translate(24 17)" width="450" xlink:href="#l"/><use height="300" transform="translate(24 16)" width="450" xlink:href="#m"/><use height="300" transform="translate(-144 -99.075)" width="450" xlink:href="#b"/><use id="n" height="300" transform="translate(-151 -119)" width="450" xlink:href="#c"/><use id="o" height="300" transform="translate(26.999998 -18)" width="450" xlink:href="#n"/><use id="p" height="300" transform="translate(27 -18)" width="450" xlink:href="#o"/><use id="q" height="300" transform="translate(27 -17)" width="450" xlink:href="#p"/><use id="r" height="300" transform="translate(27 -18)" width="450" xlink:href="#q"/><use id="s" height="300" transform="translate(187 90.925)" width="450" xlink:href="#r"/><use id="t" height="300" transform="translate(-24 17.075)" width="450" xlink:href="#s"/><use id="u" height="300" transform="translate(-24 16)" width="450" xlink:href="#t"/><use id="v" height="300" transform="translate(-24 16)" width="450" xlink:href="#u"/><use id="w" height="300" transform="translate(-24 17)" width="450" xlink:href="#v"/><use height="300" transform="translate(-24 16)" width="450" xlink:href="#w"/></svg>