<svg height="640" viewBox="0 0 10080 5040" width="1280" xmlns="http://www.w3.org/2000/svg" xmlns:xlink="http://www.w3.org/1999/xlink"><defs><clipPath id="b"><path d="M0 0v1.5h7V3H6zm6 0H3v3.5H0V3z"/></clipPath><path id="a" d="M0-360l69.421 215.845 212.038-80.301L155.99-35.603l194.985 115.71-225.881 19.651 31.105 224.59L0 160l-156.198 164.349 31.105-224.59-225.881-19.651 194.986-115.711-125.471-188.853 212.038 80.301z"/><use id="c" transform="scale(2.1)" xlink:href="#a"/></defs><path d="M0 0h10080v5040H0z" fill="#012169"/><path d="M0 0l5040 2520m0-2520L0 2520" stroke="#fff" stroke-width="504"/><path clip-path="url(#b)" d="M0 0l6 3m0-3L0 3" stroke="#e4002b" stroke-width=".4" transform="scale(840)"/><path d="M2520 0v2940M0 1260h5880" stroke="#fff" stroke-width="840"/><path d="M2520 0v2940M0 1260h5880" stroke="#e4002b" stroke-width="504"/><path d="M0 2520h5040V0h1680v3360H0z" fill="#012169"/><g fill="#fff"><use x="2520" xlink:href="#c" y="3780"/><use x="7560" xlink:href="#a" y="4200"/><use x="6300" xlink:href="#a" y="2205"/><use x="7560" xlink:href="#a" y="840"/><use x="8680" xlink:href="#a" y="1869"/><path d="M8064 2520l54.86 134.492 144.862 10.614-110.957 93.736 34.67 141.052-123.435-76.56-123.435 76.56 34.67-141.052-110.957-93.736 144.862-10.614z"/></g></svg>