<svg xmlns="http://www.w3.org/2000/svg" width="600" height="400" version="1.0"><path fill="#009" d="M0 0h600v400H0z"/><path d="M197.447 85.183v206.042c0 9.883 9.304 17.807 20.9 17.807H279.1c11.597 0 20.9 7.926 20.9 17.805 0-9.88 9.302-17.805 20.9-17.805h60.753c11.598 0 20.901-7.926 20.901-17.807V85.183H197.447z" fill="#fff" stroke="#dfdf43" stroke-width="3.054"/><g fill="none" stroke="#0058ff" stroke-width="4.7"><path d="M123.966 63.21h0c-6.418 0-6.527 2.356-12.196 2.356-5.67 0-5.78-2.356-12.197-2.356-6.417 0-6.528 2.356-12.197 2.356-5.668 0-5.779-2.356-12.196-2.356h-.001c-6.416 0-6.527 2.356-12.196 2.356s-5.779-2.356-12.196-2.356h-.001c-6.417 0-6.527 2.356-12.196 2.356s-5.779-2.356-12.197-2.356h-.001c-6.417 0-6.527 2.356-12.196 2.356S8.417 63.21 2 63.21M123.966 70.58h0c-6.418 0-6.527 2.356-12.196 2.356-5.67 0-5.78-2.356-12.197-2.356-6.417 0-6.528 2.356-12.197 2.356-5.668 0-5.779-2.356-12.196-2.356h-.001c-6.416 0-6.527 2.356-12.196 2.356s-5.779-2.356-12.196-2.356h-.001c-6.417 0-6.527 2.356-12.196 2.356s-5.779-2.356-12.197-2.356h-.001c-6.417 0-6.527 2.356-12.196 2.356C8.527 72.937 8.417 70.58 2 70.58M123.966 77.95h0c-6.418 0-6.527 2.356-12.196 2.356-5.67 0-5.78-2.356-12.197-2.356-6.417 0-6.528 2.356-12.197 2.356-5.668 0-5.779-2.356-12.196-2.356h-.001c-6.416 0-6.527 2.356-12.196 2.356s-5.779-2.356-12.196-2.356h-.001c-6.417 0-6.527 2.356-12.196 2.356s-5.779-2.356-12.197-2.356h-.001c-6.417 0-6.527 2.356-12.196 2.356C8.527 80.307 8.417 77.95 2 77.95M123.966 85.32h0c-6.418 0-6.527 2.356-12.196 2.356-5.67 0-5.78-2.356-12.197-2.356-6.417 0-6.528 2.356-12.197 2.356-5.668 0-5.779-2.356-12.196-2.356h-.001c-6.416 0-6.527 2.356-12.196 2.356s-5.779-2.356-12.196-2.356h-.001c-6.417 0-6.527 2.356-12.196 2.356s-5.779-2.356-12.197-2.356h-.001c-6.417 0-6.527 2.356-12.196 2.356C8.527 87.677 8.417 85.32 2 85.32" transform="matrix(1.65453 0 0 2.19378 195.793 28.432)"/></g></svg>