<svg height="450" viewBox="0 0 9000 4500" width="900" xmlns="http://www.w3.org/2000/svg" xmlns:xlink="http://www.w3.org/1999/xlink"><rect fill="#c8313e" height="100%" width="100%"/><rect fill="#4aa657" height="1500" width="100%" y="3000"/><rect fill="#fff" height="100%" width="1000"/><g id="b"><path id="a" d="M173.9 0h130.4v73.77h43.48v73.77h43.48v73.77h43.48v73.77h43.48v73.77h-43.48v73.77h-43.48v73.77h-43.48v73.77H304.3v73.77h-43.48v73.77h-43.48v-73.77h-43.48v-73.77h-43.48v-73.77H86.9v-73.77H43.42v-73.77H-.06v-73.77h43.48v-73.77H86.9v-73.77h43.48V73.77h43.48zm43.48 147.5h43.48v73.77h43.48v73.77h43.48v73.77h-43.48v73.77h-43.48v73.77h-43.48v-73.77H173.9v-73.77h-43.48v-73.77h43.48v-73.77h43.48zm0 147.5h43.48v73.77h-43.48zM-.02 73.7h43.48v73.77H-.02zm0 442.6h43.48v73.77H-.02zM478.18-.1h43.64v147.5h-43.64zm0 516.4h43.64v147.5h-43.64zM86.88 663.8h43.48v73.77h43.48v73.77h43.48v73.77h-43.48v73.77h-43.48v73.77H86.88v-73.77H43.4v-73.77H-.08v-73.77H43.4v-73.77h43.48zm0 147.5h43.48v73.77H86.88zm260.9-147.5h43.48v73.77h43.48v73.77h43.48v73.77h-43.48v73.77h-43.48v73.77h-43.48v-73.77H304.3v-73.77h-43.48v-73.77h43.48v-73.77h43.48zm0 147.5h43.48v73.77h-43.48zM-.02 1106.4h43.48v73.77H-.02zm478.2-73.77h43.64v147.5h-43.64zm-478.2 295.1h43.48v-73.77h43.48v-73.77h43.48v-73.77h43.48v-73.77h43.48v-73.77h43.48v73.77h43.48v73.77h43.48v73.77h43.48v73.77h43.48v73.77h43.48v73.77h43.48v295.1h-43.48v73.77h-43.48v73.77H391.3v73.77h-43.48v73.77h-43.48v73.77h-43.47v221.64h-86.96v-74.1h-43.48v-73.77H86.95v-73.77H43.47v-73.77H-.01v-221.3h43.48v73.77h43.48v73.77h43.48v73.77h43.48v-73.77h43.48v-73.77h43.48v-73.77h43.48v-73.77h43.48v-73.77h43.48v-73.77h-43.48v-73.77h-43.48v-73.77h-130.4v73.77h86.95v73.77h-43.48v73.77h-43.48v73.77h-43.48v-73.77H86.98v-73.77H43.5v-73.77H.02zm0 295.1h43.48v73.77H-.02zm478.2 221.3h43.64v73.77h-43.64zm-86.95 147.5h43.48v73.77h43.48v73.77h43.63l-.01 147.92h-43.62v-74.18h-43.48v-73.77h-43.48zm-86.95 221.3h43.48v74.16h-43.48z" fill="#c8313e" fill-rule="evenodd"/><use transform="matrix(-1 0 0 1 1000 0)" xlink:href="#a"/></g><use transform="matrix(1 0 0 -1 0 4500)" xlink:href="#b"/></svg>