<svg xmlns="http://www.w3.org/2000/svg" width="600" height="400" version="1.0"><path fill="#005aab" d="M0 0h600v400H0z"/><ellipse cx="96.25" cy="107.75" rx="96.25" ry="107.75" transform="matrix(.91725 0 0 .91725 211.714 101.166)" fill="#cecece"/><path d="M237.36 259.668c15.086 19.829 37.552 32.404 62.64 32.404 25.091 0 47.557-12.577 62.643-32.408L237.357 140.336c15.086-19.83 37.552-32.409 62.643-32.409 25.088 0 47.554 12.576 62.64 32.405L237.36 259.668z" fill="#cea518"/><path fill="#4aad42" d="M287.005 184.167v-1.415h11.046v-32.906l-10.147-3.497 5.79-14.562-5.084.325 11.16-29.505 11.16 29.505-5.083-.325 5.79 14.562-10.146 3.497v32.906h11.045v1.415h-25.53z"/><path fill="none" stroke="#52ad42" stroke-width=".9998025" d="M309.631 153.801l-9.86 3.383-9.86-3.383"/><path fill="none" stroke="#52ad42" stroke-width=".9998025" d="M309.631 151.05l-9.86 3.382-9.86-3.382"/><path fill="#1fc2ff" d="M269.598 236.526h58.493v6.535h-58.493zM285.535 257.91s-5.217 0-8.37-3.153c-3.153-3.153-3.096-8.6-3.096-8.6h49.55s.058 5.447-3.095 8.6c-3.154 3.153-8.37 3.153-8.37 3.153h-26.62zM284.235 260.91h29.218v27.517s-.153 1.701-2.16 1.701h-5.961s-5.79-1.605-9.345-6.65c-3.554-5.045-11.122-5.217-11.752-5.217V260.91z"/><path fill="none" stroke="#cea518" d="M289.222 265.994v16.51M295.643 265.994v20.486M302.064 265.994v24.154M308.485 265.994v25.378"/><path d="M243.665 178.892h12.2l-5.114 24.46 5.114 25.072h-12.2l5.141-25.071-5.141-24.46z"/><circle cx="34.047" cy="82.724" r="2.167" transform="matrix(.91725 0 0 .91725 211.714 101.166)"/><circle cx="49.125" cy="82.724" r="2.167" transform="matrix(.91725 0 0 .91725 211.714 101.166)"/><circle cx="34.047" cy="140.78" r="2.167" transform="matrix(.91725 0 0 .91725 211.714 101.166)"/><circle cx="49.125" cy="140.78" r="2.167" transform="matrix(.91725 0 0 .91725 211.714 101.166)"/><path d="M224.987 209.852v-12.199l24.46 5.113 25.071-5.113v12.2l-25.07-5.141-24.461 5.14z"/><circle cx="12.456" cy="119.277" r="2.167" transform="matrix(.91725 0 0 .91725 211.714 101.166)"/><circle cx="12.456" cy="104.199" r="2.167" transform="matrix(.91725 0 0 .91725 211.714 101.166)"/><circle cx="70.511" cy="119.277" r="2.167" transform="matrix(.91725 0 0 .91725 211.714 101.166)"/><circle cx="70.511" cy="104.199" r="2.167" transform="matrix(.91725 0 0 .91725 211.714 101.166)"/><path d="M344.172 174.726h8.485v56.182h-8.485z"/><path d="M320.323 198.575h56.182v8.485h-56.182zM341.133 178.395h14.561v6.65h-14.561zM341.133 220.589h14.561v6.65h-14.561z"/><path d="M323.992 195.536h6.65v14.561h-6.65zM366.186 195.536h6.65v14.561h-6.65z"/><path d="M184.036 52.832h19.872c1.279 0 2.677.123 4.194.368 1.518.245 2.889.784 4.114 1.617a8.75 8.75 0 0 1 2.853 3.161c.678 1.275 1.017 2.712 1.017 4.313 0 2.598-.874 4.701-2.623 6.31-1.748 1.61-3.816 2.66-6.204 3.15l6.632 8.184.277.368c.431.555.824.968 1.179 1.237.354.27.708.462 1.062.576.355.115.848.172 1.48.172h1.386v4.73h-10.33L198.595 72.29h-2.68v6.812c0 1.176.061 1.924.184 2.242.123.319.32.556.59.711.269.155.812.233 1.629.233h1.478v4.73h-15.759v-4.73h1.433c.755 0 1.29-.086 1.606-.257.316-.172.55-.43.705-.772.077-.196.115-.809.115-1.838V60.184c0-.752-.058-1.287-.173-1.605-.116-.319-.304-.527-.566-.625-.37-.18-.794-.27-1.271-.27l-.647.025h-1.202v-4.877zm11.877 5.612v8.846h4.784c1.879 0 3.285-.183 4.217-.55.932-.368 1.633-.895 2.102-1.582.47-.686.705-1.519.705-2.5 0-.898-.22-1.67-.658-2.315-.44-.645-1.063-1.123-1.872-1.433-.809-.31-2.13-.466-3.963-.466h-5.315zm25.095-5.612h26.897l3.674 10.807-4.183 1.593c-.708-1.764-1.536-3.186-2.484-4.264-.947-1.078-1.995-1.793-3.142-2.144-1.148-.351-2.484-.527-4.01-.527h-4.921v8.528h1.617c1.217 0 2.038-.094 2.461-.282.424-.188.728-.482.913-.882.185-.4.277-1.197.277-2.39v-1.298h4.113V76.43h-4.113v-1.47c0-.997-.112-1.724-.335-2.181-.223-.458-.527-.768-.913-.932-.385-.163-1.24-.245-2.564-.245h-1.456v7.842c0 .833.038 1.34.115 1.52.077.18.227.318.45.416.224.098.706.147 1.445.147h2.704c2.018 0 3.72-.306 5.106-.919 1.387-.612 2.623-1.6 3.71-2.965 1.085-1.364 1.92-2.986 2.506-4.864l4.229 1.544-4.229 12.693h-27.867v-4.73h.809c1.078 0 1.802-.08 2.172-.244.37-.164.631-.45.785-.858.077-.245.116-.94.116-2.083V60.478c0-1.013-.066-1.675-.197-1.985a1.394 1.394 0 0 0-.612-.698c-.277-.156-.824-.233-1.64-.233h-1.433v-4.73zm53.077 15.953h15.736v4.779h-1.178c-.77 0-1.298.073-1.583.22a1.37 1.37 0 0 0-.636.699c-.138.318-.208.927-.207 1.826v10.708h-4.737l-1.225-2.45c-1.448 1.013-2.95 1.772-4.506 2.279-1.556.506-3.173.76-4.853.76-2.942 0-5.622-.76-8.04-2.28-2.42-1.519-4.334-3.643-5.743-6.37-1.41-2.73-2.114-5.784-2.114-9.166 0-3.349.697-6.347 2.09-8.994 1.395-2.646 3.344-4.733 5.847-6.26a15.353 15.353 0 0 1 8.145-2.292c1.417 0 2.83.192 4.24.576 1.41.384 2.615.894 3.617 1.532l.855-1.52h3.235l2.911 11.322-4.252 1.47c-1.448-2.483-2.591-4.174-3.43-5.073a9.311 9.311 0 0 0-2.89-2.107c-1.085-.506-2.144-.76-3.177-.76-1.463 0-2.83.45-4.101 1.348-1.271.899-2.276 2.21-3.016 3.933-.74 1.724-1.109 3.81-1.109 6.261 0 2.696.405 5.032 1.213 7.009.81 1.977 1.868 3.443 3.178 4.399 1.309.955 2.75 1.433 4.32 1.433 1.11 0 2.161-.237 3.155-.71.993-.474 1.675-1.005 2.045-1.593.37-.588.554-1.38.554-2.377v-1.25c0-.866-.054-1.413-.161-1.642-.17-.327-.397-.564-.682-.71-.285-.148-.843-.221-1.675-.221h-1.826v-4.779zm17.723-15.953h15.713v4.73h-1.432c-.832 0-1.383.077-1.652.233-.27.155-.47.4-.601.735-.131.335-.197.976-.197 1.923v18.919c0 1.029.054 1.69.162 1.985.108.294.293.506.555.637.323.196.808.294 1.455.294h1.71v4.73h-15.713v-4.73h1.271c.91 0 1.502-.07 1.78-.208.277-.14.481-.36.612-.662.13-.302.196-.903.196-1.801V60.625c0-1.062-.065-1.76-.196-2.095a1.502 1.502 0 0 0-.659-.772c-.215-.13-.739-.196-1.57-.196h-1.434v-4.73zm36.394-.588c5.115 0 9.255 1.65 12.42 4.95 3.166 3.3 4.75 7.54 4.75 12.719 0 3.48-.725 6.567-2.173 9.263-1.448 2.695-3.447 4.774-5.996 6.236-2.55 1.463-5.627 2.194-9.232 2.194-4.76 0-8.657-1.39-11.692-4.166-3.666-3.35-5.5-7.826-5.5-13.43 0-5.21 1.606-9.475 4.818-12.791 3.212-3.317 7.414-4.975 12.605-4.975zm.093 5.44c-2.45 0-4.398.972-5.846 2.916-1.818 2.451-2.727 5.612-2.727 9.484s.847 6.935 2.542 9.19c1.463 1.927 3.397 2.891 5.8 2.891 2.418 0 4.352-.964 5.8-2.891 1.71-2.304 2.565-5.383 2.565-9.239 0-2.712-.366-4.99-1.098-6.837-.732-1.846-1.722-3.227-2.97-4.141-1.247-.915-2.603-1.373-4.066-1.373zm20.542-4.852h13.102l9.45 19.948V60.576c0-1.046-.053-1.7-.16-1.96-.155-.393-.363-.666-.625-.821-.262-.156-.77-.233-1.525-.233h-1.571v-4.73h13.31v4.73h-1.48c-.739 0-1.266.09-1.582.27a1.45 1.45 0 0 0-.659.734c-.123.31-.185.98-.184 2.01v26.441h-6.632l-11.97-25.191v17.62c0 1.012.058 1.657.173 1.935.116.278.324.498.624.662.3.163.82.245 1.56.245h1.548v4.73h-13.379v-4.73h1.387c.77 0 1.297-.07 1.582-.208.285-.14.513-.38.682-.723.17-.343.254-.858.254-1.544V60.208c0-.751-.077-1.303-.23-1.654-.155-.351-.363-.604-.625-.76-.262-.155-.7-.232-1.317-.232h-1.733v-4.73zm35.03 0h26.898l3.674 10.807-4.183 1.593c-.708-1.764-1.536-3.186-2.484-4.264-.947-1.078-1.995-1.793-3.142-2.144-1.148-.351-2.484-.527-4.01-.527H395.7v8.528h1.617c1.217 0 2.037-.094 2.461-.282.424-.188.728-.482.913-.882.185-.4.277-1.197.277-2.39v-1.298h4.113V76.43h-4.113v-1.47c0-.997-.112-1.724-.335-2.181-.223-.458-.528-.768-.913-.932-.385-.163-1.24-.245-2.565-.245H395.7v7.842c0 .833.038 1.34.115 1.52.077.18.227.318.45.416.224.098.706.147 1.445.147h2.704c2.018 0 3.72-.306 5.106-.919 1.387-.612 2.623-1.6 3.709-2.965 1.086-1.364 1.922-2.986 2.507-4.864l4.229 1.544-4.229 12.693h-27.867v-4.73h.809c1.078 0 1.802-.08 2.172-.244.37-.164.631-.45.785-.858.077-.245.116-.94.116-2.083V60.478c0-1.013-.066-1.675-.197-1.985a1.394 1.394 0 0 0-.612-.698c-.277-.156-.824-.233-1.64-.233h-1.433v-4.73z" font-size="28.428" font-weight="400" fill="#fff" font-family="Bitstream Vera Sans"/><path d="M201.918 312.983h3.127l3.016 12.277-4.095 1.323c-1.365-2.924-2.65-4.999-3.853-6.224-1.673-1.683-3.486-2.524-5.438-2.524-1.424 0-2.756.44-3.996 1.323-1.24.882-2.223 2.181-2.95 3.896-.727 1.716-1.09 3.725-1.09 6.029 0 3.512.833 6.535 2.5 9.067 1.665 2.532 3.848 3.798 6.549 3.798 1.717 0 3.368-.547 4.953-1.642 1.982-1.356 3.692-3.177 5.13-5.464l3.413 2.818c-2.217 3.365-4.242 5.71-6.077 7.033-2.833 2.042-5.988 3.063-9.467 3.063-2.891 0-5.507-.772-7.848-2.316-2.341-1.544-4.21-3.704-5.603-6.482-1.395-2.777-2.092-5.807-2.092-9.091 0-3.267.679-6.245 2.036-8.932 1.358-2.688 3.207-4.783 5.549-6.286 2.34-1.503 4.95-2.255 7.826-2.255 2.921 0 5.482.687 7.684 2.059l.726-1.47zm20.828 0h6.89l9.225 26.392c.5 1.405.943 2.27 1.332 2.598.39.326 1.105.482 2.147.465v4.73h-14.53v-4.73l.88-.024c.807 0 1.372-.119 1.695-.356.323-.236.484-.526.485-.87 0-.294-.14-.898-.419-1.813l-.902-3.112h-9.357l-1.145 3.455c-.235.735-.352 1.217-.352 1.446 0 .261.084.498.253.71.169.213.444.368.825.466.25.066.94.098 2.07.098v4.73h-11.889v-4.73c.763 0 1.321-.073 1.673-.22.353-.147.643-.368.87-.662.228-.294.48-.841.76-1.642l9.489-26.931zm-.947 18.403h6.142l-2.994-9.41-3.148 9.41zm22.412-18.403h15.015v4.73h-1.32c-.735 0-1.197.04-1.388.122-.352.163-.609.412-.77.747-.162.335-.242.87-.242 1.605v19.531c0 .784.033 1.266.099 1.446.066.18.201.323.407.429.205.106.602.16 1.189.16 1.966 0 3.548-.287 4.744-.859 1.196-.571 2.275-1.49 3.237-2.756.96-1.267 1.787-2.986 2.476-5.159l4.051 1.544-4.05 12.645H244.21v-4.73h1.475c.602 0 1.057-.09 1.365-.27.309-.179.532-.42.672-.722s.209-.83.209-1.58v-19.36c0-.817-.07-1.405-.21-1.765-.139-.359-.337-.62-.594-.784-.256-.163-.686-.245-1.288-.245h-1.629v-4.73zm39.915 0h6.891l9.225 26.392c.5 1.405.943 2.27 1.332 2.598.39.326 1.105.482 2.147.465v4.73h-14.53v-4.73l.88-.024c.807 0 1.372-.119 1.695-.356.323-.236.484-.526.484-.87 0-.294-.14-.898-.418-1.813l-.903-3.112h-9.356l-1.145 3.455c-.235.735-.353 1.217-.353 1.446 0 .261.085.498.254.71.168.213.444.368.825.466.25.066.94.098 2.07.098v4.73h-11.889v-4.73c.763 0 1.321-.073 1.673-.22.353-.147.642-.368.87-.662.227-.294.48-.841.76-1.642l9.488-26.931zm-.946 18.403h6.142l-2.994-9.41-3.148 9.41zm22.346-13.674v-4.73h17.459c2.671 0 4.77.348 6.296 1.042 1.527.694 2.701 1.69 3.523 2.99a7.84 7.84 0 0 1 1.233 4.276 8.038 8.038 0 0 1-2.52 5.894c-.816.776-1.89 1.417-3.226 1.923 1.438.409 2.539.858 3.302 1.348 1.1.686 1.974 1.646 2.62 2.88.646 1.233.969 2.61.969 4.129a9.075 9.075 0 0 1-1.475 5.011c-.984 1.528-2.375 2.692-4.172 3.492-1.798.8-4.43 1.2-7.893 1.2h-16.116v-4.729h1.21c.808 0 1.355-.077 1.641-.233a1.3 1.3 0 0 0 .606-.661c.117-.286.176-.927.176-1.924v-19.065c0-1.013-.059-1.658-.176-1.936a1.366 1.366 0 0 0-.606-.662c-.286-.163-.833-.245-1.64-.245h-1.211zm11.25 9.116h3.369c1.761 0 3.064-.163 3.908-.49.843-.327 1.478-.82 1.904-1.483.426-.661.638-1.425.638-2.29 0-.9-.201-1.667-.605-2.304-.404-.637-.987-1.09-1.75-1.36-.764-.27-2.129-.405-4.095-.405h-3.369v8.332zm0 5.024v7.4c.015 1.046.052 1.659.11 1.838.074.23.195.388.364.478.168.09.627.135 1.376.135h2.245c1.307 0 2.389-.135 3.248-.404.858-.27 1.588-.83 2.19-1.679.602-.85.903-1.87.903-3.063 0-1.013-.213-1.87-.639-2.573-.425-.703-1.064-1.234-1.915-1.593-.851-.36-2.15-.54-3.897-.54h-3.985zm21.136-18.87h18.933c1.219 0 2.55.123 3.996.368a9.34 9.34 0 0 1 3.92 1.617 8.619 8.619 0 0 1 2.718 3.162c.646 1.274.969 2.712.969 4.313 0 2.597-.833 4.7-2.499 6.31a11.976 11.976 0 0 1-5.911 3.149l6.318 8.185.265.367c.41.556.785.968 1.122 1.238.338.27.676.461 1.013.576.338.114.807.171 1.41.171h1.32v4.73h-9.841l-9.863-14.728h-2.554v6.813c0 1.176.059 1.923.176 2.242.117.318.305.555.561.71.257.156.775.233 1.553.233h1.409v4.73h-15.015v-4.73h1.365c.719 0 1.229-.085 1.53-.257.3-.172.524-.429.671-.772.074-.196.11-.809.11-1.838v-19.237c0-.751-.055-1.286-.165-1.605-.11-.318-.29-.527-.54-.625a2.628 2.628 0 0 0-1.21-.27l-.616.025h-1.145v-4.876zm11.316 5.612v8.847h4.557c1.79 0 3.13-.184 4.018-.552.888-.367 1.556-.894 2.004-1.58.447-.686.671-1.52.671-2.5 0-.898-.209-1.67-.627-2.315-.419-.646-1.013-1.124-1.784-1.434-.77-.31-2.029-.466-3.775-.466h-5.064zm23.733-5.611h14.971v4.73h-1.365c-.792 0-1.317.077-1.574.232-.257.155-.448.4-.572.735-.125.335-.188.976-.188 1.924v18.918c0 1.03.052 1.691.155 1.985.102.294.278.507.528.637.308.196.77.294 1.387.294h1.63v4.73H372.96v-4.73h1.211c.866 0 1.431-.07 1.695-.208.265-.139.459-.36.584-.662.125-.302.187-.902.187-1.8v-18.993c0-1.062-.062-1.76-.187-2.095a1.484 1.484 0 0 0-.628-.772c-.205-.13-.704-.196-1.497-.196h-1.365v-4.73zm29.348 0h6.89l9.225 26.392c.5 1.405.943 2.27 1.332 2.598.39.326 1.105.482 2.147.465v4.73h-14.53v-4.73l.88-.024c.807 0 1.372-.119 1.695-.356.323-.236.485-.526.485-.87 0-.294-.14-.898-.419-1.813l-.902-3.112h-9.357l-1.145 3.455c-.235.735-.352 1.217-.352 1.446 0 .261.084.498.253.71.169.213.444.368.826.466.249.066.939.098 2.069.098v4.73h-11.889v-4.73c.764 0 1.321-.073 1.674-.22.352-.147.642-.368.87-.662.227-.294.48-.841.759-1.642l9.489-26.931zm-.947 18.403h6.142l-2.994-9.41-3.148 9.41z" font-size="27.749" font-weight="400" fill="#fff" font-family="Bitstream Vera Sans"/></svg>