<svg xmlns="http://www.w3.org/2000/svg" id="svg548" height="500" width="750" y="0" x="0" version="1.0"><defs id="defs549"><style id="style2435" type="text/css"></style></defs><g id="g3524"><path id="rect171" font-size="12" fill="#b81626" fill-opacity="1" fill-rule="evenodd" stroke-width="1pt" d="M0 0h375v500H0z"/><path id="rect2847" fill="#fff" fill-opacity="1" d="M375 0h375v500H375z"/><g id="g3195" transform="translate(3.313 1.704)" fill-rule="evenodd" stroke="#000" stroke-width="1.233" stroke-linecap="butt" stroke-linejoin="miter" stroke-miterlimit="4" stroke-dasharray="none" stroke-opacity="1"><path d="M72.831 354.877v-23.462l4.048-8.742v-75.71l-3.128-6.356v-17.673l5.878-1.222v-50.923l-3.15-5.24v-11.805l3.073-1.152v6.287l2.92-1.467v-6.147l3.15-1.223h7.76v7.684h6.914v-7.754h7.644v7.51h6.454v-7.684h6.761l3.342 1.99v6.427l1.92 1.013v-6.322l3.036 1.432v11.56l-2.958 5.17v72.508h6.53v-2.725h21.167V148.07l-4.322-6.479v-14.844l3.937-1.606v7.893l4.034-1.956v-7.614l4.264-1.676h10.218v9.57h8.836v-9.745H191.3v9.57h8.567v-9.535h8.758l4.187 2.27v8.208l2.728 1.118v-7.859l4.11 1.781v14.652l-3.784 6.688v92.486h23.107v2.69h3.803v-73.87l-3.15-4.75v-12.18l2.949-1.086v6.495l3.178-1.778v-6.075l2.988-1.26h7.904v7.83h6.71v-8.003h7.66v7.706h6.573v-7.73h6.71l3.096 1.877v6.668l2.309 1.012v-6.371l2.96 1.308v11.63l-2.96 5.399v52.868l5.125.349v16.747l-3.611 7.614v74.638l4.187 9.221v23.226l-49.923 19.79H121.807L72.83 354.877z" id="path3511" fill="#cab313" fill-opacity="1"/><path d="M126.322 216.77h6.569v7.387l8.508-1.677v-8.732h7.568v7.073h5.148v17.586c-11.62-7.226-17.034-5.967-27.582.384l-.211-22.021z" id="path3513" fill="#cab313" fill-opacity="1"/><path d="M242.733 216.442h-6.331v7.395l-8.202-1.679v-8.74h-7.294v7.08h-4.962V238.1c11.2-7.233 16.42-5.972 26.586.385l.203-22.044z" id="path3515" fill="#cab313" fill-opacity="1"/><path d="M98.173 194.626h8.346V186c3.301-4.168 2.601-9.705-4.14-12.87-7.314 3.71-7.058 8.932-4.302 12.704l.096 8.793z" id="path3517" fill="#0f47af" fill-opacity="1"/><path d="M179.66 177.842h10.276V167.22c4.065-5.132 3.204-11.95-5.097-15.848-9.007 4.568-8.691 10.999-5.297 15.644l.118 10.827z" id="path3519" fill="#0f47af" fill-opacity="1"/><path d="M262.775 194.576h8.346v-8.627c3.3-4.168 2.601-9.705-4.14-12.87-7.315 3.709-7.058 8.931-4.302 12.704l.096 8.793z" id="path3521" fill="#0f47af" fill-opacity="1"/><path d="M180.014 234.984h10.443v-13.586c4.131-6.564 3.255-15.283-5.18-20.268-9.152 5.842-8.831 14.066-5.383 20.007l.12 13.847z" id="path3523" fill="#0f47af" fill-opacity="1"/><path d="M74.059 240.782l50.227 19.89h121.486l48.78-19.721" id="path3525" fill="none"/><path d="M77.26 247.594l50.17 20.548h114.71l49.057-20.707" id="path3527" fill="none"/><path d="M77.4 264.95l50.093 20.529" id="path3529" fill="none"/><path d="M127.983 284.911H241.49" id="path3531" fill="none"/><path d="M241.902 285.61l49.257-20.607" id="path3533" fill="none"/><path d="M77.324 285.68l50.174 20.495" id="path3535" fill="none"/><path d="M76.872 304.236c.027 0 50.748 21.19 50.748 21.19" id="path3537" fill="none"/><path d="M127.916 306.479H241.7l49.478-20.817" id="path3539" fill="none"/><path d="M127.565 325.735h113.706l50.06-21.177" id="path3541" fill="none"/><path d="M172.493 343.369h24.761v-19.597c8.48-15.104 1.898-28.68-12.657-38.896-17.473 9.67-20.447 25.47-12.35 39.642l.246 18.85z" id="path3543" fill="#0f47af" fill-opacity="1"/><path d="M77.055 322.475l50.784 21.305h113.92l49.6-21.379" id="path3545" fill="none"/><path d="M73.062 331.91l48.861 20.672h123.484l50.136-20.648" id="path3547" fill="none"/><path d="M124.074 243.68v17.08l3.67 7.596v75.066l-5.91 8.887v22.672" id="path3549" fill="none"/><path d="M245.4 243.544v18.276l-3.749 6.47v75.264l3.89 9.796v21.463" id="path3551" fill="none"/><path d="M76.499 165.6l9.072-2.914h35.693l8.04 3.038" id="path3553" fill="none"/><path d="M79.35 170.836l8.883-2.79h29.35l8.95 3.087" id="path3555" fill="none"/><path d="M126.778 203.016l-9.426-3.238H88.128l-8.669 2.893c-1.559.912-1.781 2.97 0 3.926l8.801-2.47h29.364l9.303 2.915c1.053-1.178.907-2.737-.15-4.026z" id="path3557" fill="#cab313" fill-opacity="1"/><path d="M79.296 206.622c-1.905 1.007-1.409 3.58 0 4.124l8.964-3.037h29.337l8.828 3.037c1.11-.764 1.664-1.795.081-3.852l-8.964-2.791H88.226l-8.93 2.52z" id="path3559" fill="#cab313" fill-opacity="1"/><path d="M85.843 150.19v12.694l2.499 4.482v71.609" id="path3561" fill="none"/><path d="M120.992 150.017v12.892l-3.341 5.31v83.5" id="path3563" fill="none"/><path d="M242.765 202.374l9.426-3.238h29.224l8.668 2.892c1.56.913 1.782 2.971 0 3.927l-8.8-2.47h-29.364l-9.304 2.915c-1.052-1.178-.907-2.737.15-4.026z" id="path3565" fill="#cab313" fill-opacity="1"/><path d="M290.246 205.98c1.905 1.007 1.41 3.58 0 4.124l-8.964-3.037h-29.336l-8.828 3.037c-1.11-.764-1.664-1.795-.082-3.852L252 203.46h29.316l8.93 2.519z" id="path3567" fill="#cab313" fill-opacity="1"/><path d="M283.7 149.548v12.694l-2.5 4.482v71.609" id="path3569" fill="none"/><path d="M248.55 149.375v12.892l3.342 5.31v83.5" id="path3571" fill="none"/><path d="M73.81 223.712l9.235 3.581v9.83l8.448 2.445v-8.817l8.312 3.186v9.854l7.252 2.519v-9.484l9.296 3.711v10.898l4.687 1.57v-10.687l2.996 1.38 11.08-.055v10.471h8.421v-10.52h9.942v10.026h7.959v-10.125h9.942v9.878h8.23v-9.83h12.006v10.25h8.177v-10.25h9.452v9.534h8.693v-9.484h9.664v9.413h8.74v-9.483h9.008l3.111-1.45v10.776l3.592-1.397v-10.688l9.642-3.754v9.779l7.308-2.83v-10.058l8.192-3.108v9.115l8.144-2.829v-9.849l9.297-3.493" id="path3573" fill="none"/><path d="M153.605 188.406l12.294-4.224h38.116l11.307 3.773c2.033 1.19 2.323 3.874 0 5.121l-11.48-3.22h-38.297l-12.135 3.8c-1.372-1.536-1.183-3.57.195-5.25z" id="path3575" fill="#cab313" fill-opacity="1"/><path d="M215.534 193.109c2.485 1.313 1.838 4.668 0 5.379l-11.691-3.962H165.58l-11.514 3.962c-1.448-.997-2.171-2.341-.107-5.025l11.692-3.64h38.236l11.647 3.286z" id="path3577" fill="#cab313" fill-opacity="1"/><path d="M239.664 164.746l9.604-2.654h34.823l8.46 2.777" id="path3579" fill="none"/><path d="M242.584 170.073l8.989-2.83h28.6l9.45 3.092" id="path3581" fill="none"/><path d="M162.144 121.937v15.706l3.457 6.077v99.856" id="path3583" fill="none"/><path d="M208.433 122.031v15.892l-4.149 6.356v99.122" id="path3585" fill="none"/><path d="M150.111 141.447l11.734-3.31h46.395l11.192 3.458" id="path3587" fill="none"/><path d="M153.724 148.214l12.114-3.704h37.716l12.306 3.963" id="path3589" fill="none"/><path d="M79.704 221.613v4.544" id="path3591" fill="none"/><path d="M289.68 223.318v2.13" id="path3593" fill="none"/><path d="M92.959 253.88l-.077 17.323" id="path3595" fill="none"/><path d="M104.867 276.092V296.7" id="path3597" fill="none"/><path d="M91.883 291.635v18.895" id="path3599" fill="none"/><path d="M104.406 315.63v18.091" id="path3601" fill="none"/><path d="M141.799 268.191v16.695" id="path3603" fill="none"/><path d="M184.961 284.294V268.29" id="path3605" fill="none"/><path d="M227.526 268.24v16.4" id="path3607" fill="none"/><path d="M161.873 284.664v21.857" id="path3609" fill="none"/><path d="M206.774 284.64v21.93" id="path3611" fill="none"/><path d="M227.418 306.52v19.264" id="path3613" fill="none"/><path d="M141.636 306.52v19.215" id="path3615" fill="none"/><path d="M162.008 325.735v17.98" id="path3617" fill="none"/><path d="M206.556 325.883v17.88" id="path3619" fill="none"/><path d="M275.66 254.114c.054.198 0 17.19 0 17.19" id="path3621" fill="none"/><path d="M263.98 296.642v-20.4" id="path3623" fill="none"/><path d="M276.637 291.802v18.819" id="path3625" fill="none"/><path d="M264.251 315.856v18.128" id="path3627" fill="none"/><path d="M154.268 240.502v13.133" id="path3629" fill="none"/><path d="M215.962 240.782v12.259" id="path3631" fill="none"/></g></g></svg>