<?xml version="1.0" encoding="UTF-8" standalone="no"?>
<!-- Created with Inkscape (http://www.inkscape.org/) -->
<svg
   xmlns:dc="http://purl.org/dc/elements/1.1/"
   xmlns:cc="http://web.resource.org/cc/"
   xmlns:rdf="http://www.w3.org/1999/02/22-rdf-syntax-ns#"
   xmlns:svg="http://www.w3.org/2000/svg"
   xmlns="http://www.w3.org/2000/svg"
   xmlns:sodipodi="http://sodipodi.sourceforge.net/DTD/sodipodi-0.dtd"
   xmlns:inkscape="http://www.inkscape.org/namespaces/inkscape"
   width="471"
   height="314"
   id="svg2"
   sodipodi:version="0.32"
   inkscape:version="0.44.1"
   version="1.0"
   sodipodi:docbase="D:\program\svg\旗"
   sodipodi:docname="Flag_of_Fukushima.svg">
  <defs
     id="defs4" />
  <sodipodi:namedview
     id="base"
     pagecolor="#ffffff"
     bordercolor="#666666"
     borderopacity="1.0"
     gridtolerance="10000"
     guidetolerance="10"
     objecttolerance="10"
     inkscape:pageopacity="0.0"
     inkscape:pageshadow="2"
     inkscape:zoom="1.4142136"
     inkscape:cx="244.05466"
     inkscape:cy="94.000129"
     inkscape:document-units="px"
     inkscape:current-layer="layer1"
     inkscape:window-width="799"
     inkscape:window-height="571"
     inkscape:window-x="512"
     inkscape:window-y="84" />
  <metadata
     id="metadata7">
    <rdf:RDF>
      <cc:Work
         rdf:about="">
        <dc:format>image/svg+xml</dc:format>
        <dc:type
           rdf:resource="http://purl.org/dc/dcmitype/StillImage" />
      </cc:Work>
    </rdf:RDF>
  </metadata>
  <g
     inkscape:label="Layer 1"
     inkscape:groupmode="layer"
     id="layer1">
    <rect
       style="opacity:1;color:black;fill:#d84b24;fill-opacity:1;fill-rule:evenodd;stroke:#d84b24;stroke-width:1px;stroke-linecap:butt;stroke-linejoin:miter;marker:none;marker-start:none;marker-mid:none;marker-end:none;stroke-miterlimit:4;stroke-dasharray:none;stroke-dashoffset:0;stroke-opacity:1;visibility:visible;display:inline;overflow:visible"
       id="rect3686"
       width="471"
       height="314"
       x="0"
       y="0" />
    <path
       sodipodi:type="arc"
       style="opacity:1;color:black;fill:white;fill-opacity:1;fill-rule:evenodd;stroke:white;stroke-width:1.02251111;stroke-linecap:butt;stroke-linejoin:miter;marker:none;marker-start:none;marker-mid:none;marker-end:none;stroke-miterlimit:4;stroke-dasharray:none;stroke-dashoffset:0;stroke-opacity:1;visibility:visible;display:inline;overflow:visible"
       id="path2789"
       sodipodi:cx="190.56528"
       sodipodi:cy="136.5162"
       sodipodi:rx="100.05561"
       sodipodi:ry="93.338097"
       d="M 290.62089 136.5162 A 100.05561 93.338097 0 1 1  90.509666,136.5162 A 100.05561 93.338097 0 1 1  290.62089 136.5162 z"
       transform="matrix(0.944584,0,0,1.012566,9.247322,0.658274)" />
    <path
       sodipodi:type="arc"
       style="opacity:1;color:black;fill:#d84b24;fill-opacity:1;fill-rule:evenodd;stroke:#d84b24;stroke-width:1.05095858;stroke-linecap:butt;stroke-linejoin:miter;marker:none;marker-start:none;marker-mid:none;marker-end:none;stroke-miterlimit:4;stroke-dasharray:none;stroke-dashoffset:0;stroke-opacity:1;visibility:visible;display:inline;overflow:visible"
       id="path1900"
       sodipodi:cx="212.85715"
       sodipodi:cy="146.14285"
       sodipodi:rx="66.428574"
       sodipodi:ry="65"
       d="M 279.28572 146.14285 A 66.428574 65 0 1 1  146.42857,146.14285 A 66.428574 65 0 1 1  279.28572 146.14285 z"
       transform="matrix(0.941225,0,0,0.961912,-12.1321,-1.926473)" />
    <path
       style="fill:white;fill-rule:evenodd;stroke:white;stroke-width:1px;stroke-linecap:butt;stroke-linejoin:miter;stroke-opacity:1"
       d="M 64.346717,202.98424 C 78.088555,203.3244 90.718083,196.12236 97.580736,183.89235 C 101.58768,194.26325 107.59808,202.15928 114.90485,210.0553 C 105.70247,219.96236 95.791034,229.01781 80.610173,230.5614 L 64.346717,202.98424 z "
       id="path3678"
       sodipodi:nodetypes="ccccc" />
    <path
       style="fill:white;fill-rule:evenodd;stroke:white;stroke-width:1px;stroke-linecap:butt;stroke-linejoin:miter;stroke-opacity:1"
       d="M 279.66073,185.66012 C 274.21519,194.89924 268.24492,203.87599 260.9224,212.17662 C 271.88255,222.90108 281.6642,228.67578 295.57064,232.68272 C 303.83955,222.56723 310.04531,212.86436 313.60185,203.69134 C 301.15753,204.39465 287.88519,198.63149 279.66073,185.66012 z "
       id="path3680"
       sodipodi:nodetypes="ccccc" />
    <path
       style="fill:white;fill-rule:evenodd;stroke:white;stroke-width:1px;stroke-linecap:butt;stroke-linejoin:miter;stroke-opacity:1"
       d="M 159.09903,16.308045 L 203.64675,17.015152 C 192.43412,29.404276 202.25747,42.227672 210.36427,47.06719 L 170.41273,53.784704 C 162.41469,43.413804 158.66414,28.800265 159.09903,16.308045 z "
       id="path3682"
       sodipodi:nodetypes="ccccc" />
    <path
       style="fill:#d84b24;fill-rule:evenodd;stroke:#d84b24;stroke-width:1px;stroke-linecap:butt;stroke-linejoin:miter;stroke-opacity:1;fill-opacity:1"
       d="M 153.81869,38.792064 L 158.27365,10.31719 C 157.7534,22.047662 161.16879,48.791902 176.96981,62.238881 C 186.73666,70.550664 196.60058,76.451381 205.76807,78.533442 L 181.01934,76.058568 C 174.85935,72.111114 157.85851,54.590697 153.81869,38.792064 z "
       id="path3684"
       sodipodi:nodetypes="ccsccc" />
  </g>
</svg>
