<?xml version="1.0" encoding="UTF-8" standalone="no"?>
<!-- Created with Inkscape (http://www.inkscape.org/) -->

<svg
   xmlns:dc="http://purl.org/dc/elements/1.1/"
   xmlns:cc="http://creativecommons.org/ns#"
   xmlns:rdf="http://www.w3.org/1999/02/22-rdf-syntax-ns#"
   xmlns:svg="http://www.w3.org/2000/svg"
   xmlns="http://www.w3.org/2000/svg"
   xmlns:xlink="http://www.w3.org/1999/xlink"
   version="1.0"
   width="450"
   height="300"
   id="svg2">
  <metadata
     id="metadata10">
    <rdf:RDF>
      <cc:Work
         rdf:about="">
        <dc:format>image/svg+xml</dc:format>
        <dc:type
           rdf:resource="http://purl.org/dc/dcmitype/StillImage" />
        <dc:title></dc:title>
      </cc:Work>
    </rdf:RDF>
  </metadata>
  <defs
     id="defs5" />
  <rect
     width="450"
     height="300"
     x="0"
     y="0"
     id="rect5499"
     style="fill:#00006b;fill-opacity:1;fill-rule:nonzero;stroke-width:2.5;stroke-linecap:square;stroke-linejoin:miter;stroke-miterlimit:4;stroke-opacity:1;stroke-dasharray:none" />
  <use
     transform="matrix(-1,0,0,1,450,0)"
     id="use3002"
     x="0"
     y="0"
     width="450"
     height="300"
     xlink:href="#path94" />
  <path
     d="m 236.13864,82.632365 c 18.36302,2.936033 34.27589,13.190293 44.55843,27.627945 4.96451,-1.57057 10.17506,-2.7931 15.61307,-3.64674 0,0 3.65976,-0.5781 7.26376,-1.14375 C 288.05181,78.343384 258.64734,60.000005 225,60.000005 c -33.64734,0 -63.05181,18.343379 -78.57383,45.469815 3.60393,0.56565 7.26376,1.14375 7.26376,1.14375 5.44006,0.85364 10.64856,2.07617 15.613,3.64674 10.28261,-14.437652 26.19541,-24.691912 44.5585,-27.627945 l 0,60.520785 c 5.08647,7.81966 8.80417,16.60697 11.13857,26.3018 2.33856,-9.69483 6.0521,-18.48214 11.13864,-26.3018 l 0,-60.520785 z"
     id="path90"
     style="fill:#ffffff;fill-opacity:1;fill-rule:nonzero;stroke:none" />
  <path
     d="m 309.60737,120.05458 -3.18838,-8.70647 -9.14322,1.43796 c -21.02002,3.30062 -38.40097,12.37181 -50.26323,26.22103 -12.42673,14.51015 -18.72493,33.58898 -18.72493,56.71033 l 0,15.35755 c 0,0 12.4309,-0.93652 22.55012,-5.5881 l 0,-9.76945 c 0,-30.90374 13.88034,-50.9005 40.22051,-58.44044 0.88912,4.35737 1.39156,8.79968 1.39156,13.31045 0,35.71069 -28.47194,64.9672 -64.16629,66.80298 l 0,22.60958 c 48.13351,-1.85855 86.71635,-41.24505 86.71635,-89.41256 0,-10.48638 -1.81538,-20.76136 -5.39249,-30.53286 z"
     id="path94"
     style="fill:#ffffff;fill-opacity:1;fill-rule:nonzero;stroke:none" />
</svg>
