<?xml version="1.0" encoding="UTF-8" standalone="no"?>
<!-- Created with Inkscape (http://www.inkscape.org/) -->

<svg
   xmlns:svg="http://www.w3.org/2000/svg"
   xmlns="http://www.w3.org/2000/svg"
   xmlns:xlink="http://www.w3.org/1999/xlink"
   version="1.1"
   width="1830"
   height="1280"
   id="svg2">
  <defs id="defs4"> <path d="M -265.587,528.153 C -265.585,690.957 -138.988,810.85 -0.0656124,810.848 138.732,810.847 265.593,691.108 265.589,528.152 265.589,411.669 203.407,307.799 133.365,215.875 81.4184,147.697 23.1498,87.3606 -29.7572,41.2172 -52.7453,89.7143 -81.2826,141.153 -114.641,191.919 -77.049,227.486 -35.8998,271.569 -0.654494,317.827 58.3771,395.304 97.2033,481.011 97.2013,528.154 97.2039,605.216 40.7359,642.463 -0.0650384,642.463 -40.8658,642.463 -97.199,605.217 -97.1982,528.154 -97.1987,488.412 -69.5877,421.273 -25.5631,354.751 -28.3555,350.905 -31.1606,347.111 -34.0578,343.303 -66.4949,300.732 -105.358,259.223 -140.584,225.597 -207.591,315.123 -265.588,415.731 -265.587,528.153 z" id="Loop" style="fill:#ffffff" /></defs>
  <rect
     width="1830"
     height="1280"
     id="rect7"
     style="fill:#0068b2" />
  <use
     transform="matrix(0.49161477,0,0,-0.50839773,925.00974,667.23328)"
     id="use11"
     x="0"
     y="0"
     width="1830"
     height="1280"
     xlink:href="#Loop" />
  <use
     transform="matrix(0.15191732,-0.48351498,-0.46755343,-0.15710354,925.00974,667.23328)"
     id="use13"
     x="0"
     y="0"
     width="1830"
     height="1280"
     xlink:href="#Loop" />
  <use
     transform="matrix(-0.3977247,-0.29882869,-0.28896391,0.4113024,925.00974,667.23328)"
     id="use15"
     x="0"
     y="0"
     width="1830"
     height="1280"
     xlink:href="#Loop" />
  <use
     transform="matrix(-0.3977247,0.29882869,0.28896391,0.4113024,925.00974,667.23328)"
     id="use17"
     x="0"
     y="0"
     width="1830"
     height="1280"
     xlink:href="#Loop" />
  <use
     transform="matrix(0.15191732,0.48351498,0.46755343,-0.15710354,925.00974,667.23328)"
     id="use19"
     x="0"
     y="0"
     width="1830"
     height="1280"
     xlink:href="#Loop" />
</svg>
