<svg xmlns="http://www.w3.org/2000/svg" width="471" height="314" version="1.0"><g fill-rule="evenodd"><path style="marker:none" color="#000" fill="#d84b24" stroke="#d84b24" overflow="visible" d="M0 0h471v314H0z"/><path style="marker:none" d="M290.62 136.516a100.056 93.338 0 1 1-200.11 0 100.056 93.338 0 1 1 200.11 0z" transform="matrix(.94458 0 0 1.01257 9.247 .658)" color="#000" fill="#fff" stroke="#fff" stroke-width="1.023" overflow="visible"/><path style="marker:none" d="M279.286 146.143a66.429 65 0 1 1-132.857 0 66.429 65 0 1 1 132.857 0z" transform="matrix(.94122 0 0 .96191 -12.132 -1.926)" color="#000" fill="#d84b24" stroke="#d84b24" stroke-width="1.051" overflow="visible"/><path d="M64.347 202.984c13.742.34 26.371-6.862 33.234-19.092 4.007 10.371 10.017 18.267 17.324 26.163-9.203 9.907-19.114 18.963-34.295 20.506l-16.263-27.577zM279.66 185.66c-5.445 9.24-11.415 18.216-18.738 26.517 10.96 10.724 20.742 16.499 34.649 20.506 8.269-10.116 14.474-19.819 18.03-28.992-12.443.704-25.716-5.06-33.94-18.03zM159.099 16.308l44.548.707c-11.213 12.39-1.39 25.213 6.717 30.052l-39.951 6.718c-7.998-10.371-11.749-24.985-11.314-37.477z" fill="#fff" stroke="#fff"/><path d="M153.819 38.792l4.455-28.475c-.52 11.73 2.895 38.475 18.696 51.922 9.767 8.312 19.63 14.212 28.798 16.294L181.02 76.06c-6.16-3.948-23.16-21.468-27.2-37.267z" fill="#d84b24" stroke="#d84b24"/></g></svg>