<svg height="600" viewBox="0 0 300 200" width="900" xmlns="http://www.w3.org/2000/svg" xmlns:xlink="http://www.w3.org/1999/xlink"><defs><g id="c"><path id="b" clip-path="url(#a)" d="M-55 74a55 55 0 0 1 110 0V-74a55 55 0 0 1-110 0z"/><use transform="rotate(90)" xlink:href="#b"/></g><clipPath id="a"><path d="M-109 104a104 104 0 0 0 0-208h218a104 104 0 0 0 0 208z"/></clipPath></defs><path d="M0 0h300v200H0z" fill="#fff"/><g fill="red"><path d="M130 0v80H0v40h130v80h40v-80h130V80H170V0z"/><use transform="translate(64.45 39.45)" xlink:href="#c"/><use transform="translate(235.55 160.55)" xlink:href="#c"/><use transform="translate(235.55 39.45)" xlink:href="#c"/><use transform="translate(64.45 160.55)" xlink:href="#c"/></g></svg>