<svg height="360" viewBox="0 0 500 300" width="600" xmlns="http://www.w3.org/2000/svg" xmlns:xlink="http://www.w3.org/1999/xlink"><defs><g id="a"><g id="b"><path id="c" d="m0-1v1h.5" fill="#fcd116" transform="matrix(.95105652 .30901699 -.30901699 .95105652 -.309017 -.048943)"/><use transform="scale(-1 1)" xlink:href="#c"/></g><use transform="matrix(.30901699 .95105652 -.95105652 .30901699 0 0)" xlink:href="#b"/><use transform="matrix(-.80901699 .58778525 -.58778525 -.80901699 0 0)" xlink:href="#b"/><use transform="matrix(-.80901699 -.58778525 .58778525 -.80901699 0 0)" xlink:href="#b"/><use transform="matrix(.30901699 -.95105652 .95105652 .30901699 0 0)" xlink:href="#b"/></g></defs><path d="m0 0h500v300h-500z" fill="#ce1126"/><path d="m42 42h416v216h-416z" fill="#007a5e"/><path d="m42 42h416l-416 216h416z" fill="#fcd116"/><circle cx="250" cy="150" fill="#ce1126" r="36"/><use transform="matrix(33 0 0 33 250 150)" xlink:href="#a"/><use x="-100" xlink:href="#d"/><use id="d" transform="matrix(19.5 0 0 19.5 250 21)" xlink:href="#a"/><use x="100" xlink:href="#d"/><use x="-100" xlink:href="#d" y="258"/><use xlink:href="#d" y="258"/><use x="100" xlink:href="#d" y="258"/><path d="m67.749 150.41c4.504 8.39 13.265 17.52 20.916 20.73.123-8.52-2.9-19.44-7.034-28.14z" fill="#ce1126"/><path d="m60.112 121.63c6.529 13.61-16.933 46.08 22.156 53.69-4.822-6.58-7.931-17.44-6.755-26.16 8.201 3.12 16.83 12.25 20.317 19.23 10.23-37.15-26.24-34.89-35.718-46.76z" fill="#fcd116"/></svg>