<?xml version="1.0" encoding="UTF-8" standalone="no"?>
<!-- Created with Inkscape (http://www.inkscape.org/) -->
<svg
   xmlns:dc="http://purl.org/dc/elements/1.1/"
   xmlns:cc="http://web.resource.org/cc/"
   xmlns:rdf="http://www.w3.org/1999/02/22-rdf-syntax-ns#"
   xmlns:svg="http://www.w3.org/2000/svg"
   xmlns="http://www.w3.org/2000/svg"
   xmlns:sodipodi="http://sodipodi.sourceforge.net/DTD/sodipodi-0.dtd"
   xmlns:inkscape="http://www.inkscape.org/namespaces/inkscape"
   width="300"
   height="200"
   id="svg2809"
   sodipodi:version="0.32"
   inkscape:version="0.44.1"
   sodipodi:docbase="D:\program\svg\旗"
   sodipodi:docname="Flag_of_Gunma.svg"
   version="1.0">
  <defs
     id="defs2811" />
  <sodipodi:namedview
     id="base"
     pagecolor="#ffffff"
     bordercolor="#666666"
     borderopacity="1.0"
     gridtolerance="10000"
     guidetolerance="10"
     objecttolerance="10"
     inkscape:pageopacity="0.0"
     inkscape:pageshadow="2"
     inkscape:zoom="1.979899"
     inkscape:cx="181.15432"
     inkscape:cy="73.414874"
     inkscape:document-units="px"
     inkscape:current-layer="layer1"
     inkscape:window-width="1024"
     inkscape:window-height="719"
     inkscape:window-x="-4"
     inkscape:window-y="-4" />
  <metadata
     id="metadata2814">
    <rdf:RDF>
      <cc:Work
         rdf:about="">
        <dc:format>image/svg+xml</dc:format>
        <dc:type
           rdf:resource="http://purl.org/dc/dcmitype/StillImage" />
      </cc:Work>
    </rdf:RDF>
  </metadata>
  <g
     inkscape:label="Layer 1"
     inkscape:groupmode="layer"
     id="layer1">
    <rect
       style="opacity:1;color:black;fill:#4c0f7b;fill-opacity:1;fill-rule:evenodd;stroke:#4c0f7b;stroke-width:1px;stroke-linecap:butt;stroke-linejoin:miter;marker:none;marker-start:none;marker-mid:none;marker-end:none;stroke-miterlimit:4;stroke-dasharray:none;stroke-dashoffset:0;stroke-opacity:1;visibility:visible;display:inline;overflow:visible"
       id="rect4643"
       width="300"
       height="200"
       x="0"
       y="0" />
    <path
       sodipodi:type="arc"
       style="color:black;fill:white;fill-opacity:1;fill-rule:evenodd;stroke:white;stroke-width:1px;stroke-linecap:butt;stroke-linejoin:miter;marker:none;marker-start:none;marker-mid:none;marker-end:none;stroke-miterlimit:4;stroke-dasharray:none;stroke-dashoffset:0;stroke-opacity:1;visibility:visible;display:inline;overflow:visible"
       id="path2819"
       sodipodi:cx="150"
       sodipodi:cy="64"
       sodipodi:rx="25.5"
       sodipodi:ry="25.5"
       d="M 175.5 64 A 25.5 25.5 0 1 1  124.5,64 A 25.5 25.5 0 1 1  175.5 64 z" />
    <path
       sodipodi:type="arc"
       style="color:black;fill:#4c0f7b;fill-opacity:1;fill-rule:evenodd;stroke:#4c0f7b;stroke-width:1px;stroke-linecap:butt;stroke-linejoin:miter;marker:none;marker-start:none;marker-mid:none;marker-end:none;stroke-miterlimit:4;stroke-dasharray:none;stroke-dashoffset:0;stroke-opacity:1;visibility:visible;display:inline;overflow:visible"
       id="path2821"
       sodipodi:cx="150"
       sodipodi:cy="31"
       sodipodi:rx="25.5"
       sodipodi:ry="25.5"
       d="M 175.5 31 A 25.5 25.5 0 1 1  124.5,31 A 25.5 25.5 0 1 1  175.5 31 z" />
    <path
       sodipodi:type="arc"
       style="color:black;fill:white;fill-opacity:1;fill-rule:evenodd;stroke:white;stroke-width:1px;stroke-linecap:butt;stroke-linejoin:miter;marker:none;marker-start:none;marker-mid:none;marker-end:none;stroke-miterlimit:4;stroke-dasharray:none;stroke-dashoffset:0;stroke-opacity:1;visibility:visible;display:inline;overflow:visible"
       id="path2832"
       sodipodi:cx="150"
       sodipodi:cy="64"
       sodipodi:rx="25.5"
       sodipodi:ry="25.5"
       d="M 175.5 64 A 25.5 25.5 0 1 1  124.5,64 A 25.5 25.5 0 1 1  175.5 64 z"
       transform="matrix(-0.5,-0.866025,0.866025,-0.5,138.4163,279.9127)" />
    <path
       sodipodi:type="arc"
       style="color:black;fill:#4c0f7b;fill-opacity:1;fill-rule:evenodd;stroke:#4c0f7b;stroke-width:1px;stroke-linecap:butt;stroke-linejoin:miter;marker:none;marker-start:none;marker-mid:none;marker-end:none;stroke-miterlimit:4;stroke-dasharray:none;stroke-dashoffset:0;stroke-opacity:1;visibility:visible;display:inline;overflow:visible"
       id="path2834"
       sodipodi:cx="150"
       sodipodi:cy="31"
       sodipodi:rx="25.5"
       sodipodi:ry="25.5"
       d="M 175.5 31 A 25.5 25.5 0 1 1  124.5,31 A 25.5 25.5 0 1 1  175.5 31 z"
       transform="matrix(-0.5,-0.866025,0.866025,-0.5,138.4163,279.9127)" />
    <path
       sodipodi:type="arc"
       style="color:black;fill:white;fill-opacity:1;fill-rule:evenodd;stroke:white;stroke-width:1px;stroke-linecap:butt;stroke-linejoin:miter;marker:none;marker-start:none;marker-mid:none;marker-end:none;stroke-miterlimit:4;stroke-dasharray:none;stroke-dashoffset:0;stroke-opacity:1;visibility:visible;display:inline;overflow:visible"
       id="path2840"
       sodipodi:cx="150"
       sodipodi:cy="64"
       sodipodi:rx="25.5"
       sodipodi:ry="25.5"
       d="M 175.5 64 A 25.5 25.5 0 1 1  124.5,64 A 25.5 25.5 0 1 1  175.5 64 z"
       transform="matrix(-0.5,0.866025,-0.866025,-0.5,311.5392,20.06047)" />
    <path
       sodipodi:type="arc"
       style="color:black;fill:#4c0f7b;fill-opacity:1;fill-rule:evenodd;stroke:#4c0f7b;stroke-width:1px;stroke-linecap:butt;stroke-linejoin:miter;marker:none;marker-start:none;marker-mid:none;marker-end:none;stroke-miterlimit:4;stroke-dasharray:none;stroke-dashoffset:0;stroke-opacity:1;visibility:visible;display:inline;overflow:visible"
       id="path2842"
       sodipodi:cx="150"
       sodipodi:cy="31"
       sodipodi:rx="25.5"
       sodipodi:ry="25.5"
       d="M 175.5 31 A 25.5 25.5 0 1 1  124.5,31 A 25.5 25.5 0 1 1  175.5 31 z"
       transform="matrix(-0.5,0.866025,-0.866025,-0.5,311.5392,20.06047)" />
    <path
       sodipodi:type="arc"
       style="opacity:1;color:black;fill:#4c0f7b;fill-opacity:1;fill-rule:evenodd;stroke:#4c0f7b;stroke-width:1px;stroke-linecap:butt;stroke-linejoin:miter;marker:none;marker-start:none;marker-mid:none;marker-end:none;stroke-miterlimit:4;stroke-dasharray:none;stroke-dashoffset:0;stroke-opacity:1;visibility:visible;display:inline;overflow:visible"
       id="path2844"
       sodipodi:cx="150"
       sodipodi:cy="100"
       sodipodi:rx="9"
       sodipodi:ry="9"
       d="M 159 100 A 9 9 0 1 1  141,100 A 9 9 0 1 1  159 100 z" />
    <g
       id="g2846"
       transform="matrix(0.145977,0,0,0.145977,111.8797,60.85905)"
       style="stroke:white">
      <path
         sodipodi:nodetypes="ccszc"
         id="path1900"
         d="M 227.41706,226.05988 C 226.55076,223.79755 241.96729,213.17828 260.56968,213.10925 C 280.23682,212.95386 295.67265,223.265 295.5843,229.08662 C 295.46419,236.85405 278.06821,243.6914 261.51523,243.62116 C 244.96123,243.55092 226.77516,238.0606 227.38835,230.55258"
         style="fill:none;fill-rule:evenodd;stroke:white;stroke-width:6.5;stroke-linecap:butt;stroke-linejoin:miter;stroke-miterlimit:4;stroke-dasharray:none;stroke-opacity:1" />
      <path
         sodipodi:nodetypes="ccc"
         id="path1902"
         d="M 241.00271,228.07647 L 276.42857,228.07647 L 279.20649,228.07647"
         style="fill:none;fill-rule:evenodd;stroke:white;stroke-width:6.5;stroke-linecap:butt;stroke-linejoin:miter;stroke-miterlimit:4;stroke-dasharray:none;stroke-opacity:1" />
      <path
         sodipodi:nodetypes="czzc"
         id="path1904"
         d="M 260.50136,214.71053 C 260.48901,225.51492 258.0844,239.0809 250.71429,244.50504 C 243.28345,249.97388 239.97712,255.03671 228.48849,254.88013 C 217.25239,254.72355 212.76238,252.46757 205.56026,246.86896"
         style="fill:none;fill-rule:evenodd;stroke:white;stroke-width:6.5;stroke-linecap:butt;stroke-linejoin:miter;stroke-miterlimit:4;stroke-dasharray:none;stroke-opacity:1" />
      <path
         sodipodi:nodetypes="cccc"
         id="path1906"
         d="M 260.03961,212.81278 C 259.80813,221.34772 262.99017,239.3764 275.12627,248.74743 C 280.16796,252.51079 287.58223,254.77612 293.39811,255.00268 C 304.31748,254.81722 311.91493,250.80718 317.51686,246.96598"
         style="fill:none;fill-rule:evenodd;stroke:white;stroke-width:6.5;stroke-linecap:butt;stroke-linejoin:miter;stroke-miterlimit:4;stroke-dasharray:none;stroke-opacity:1" />
      <path
         sodipodi:nodetypes="cczc"
         id="path1908"
         d="M 238.57143,259.50504 L 281.63778,259.2525 C 281.78001,266.63069 274.42758,277.59447 261.4719,277.48473 C 248.5159,277.37499 238.60053,265.93127 238.57143,259.50504 z "
         style="fill:none;fill-rule:evenodd;stroke:white;stroke-width:6.5;stroke-linecap:butt;stroke-linejoin:miter;stroke-miterlimit:4;stroke-dasharray:none;stroke-opacity:1" />
      <path
         sodipodi:nodetypes="czc"
         id="path1910"
         d="M 228.44145,264.24879 C 227.93637,272.34707 242.42229,289.63877 260.79722,289.88014 C 279.04588,290.12151 293.20991,272.54473 293.3585,264.16584"
         style="fill:none;fill-rule:evenodd;stroke:white;stroke-width:6.5;stroke-linecap:butt;stroke-linejoin:miter;stroke-miterlimit:4;stroke-dasharray:none;stroke-opacity:1" />
      <path
         sodipodi:nodetypes="ccc"
         id="path1912"
         d="M 203.94652,282.06259 L 239.37237,281.93632 L 239.37237,281.93632"
         style="fill:none;fill-rule:evenodd;stroke:white;stroke-width:6.5;stroke-linecap:butt;stroke-linejoin:miter;stroke-miterlimit:4;stroke-dasharray:none;stroke-opacity:1" />
      <path
         sodipodi:nodetypes="cc"
         id="path1914"
         d="M 282.00915,281.81749 L 318.87102,281.98709"
         style="fill:none;fill-rule:evenodd;stroke:white;stroke-width:6.5;stroke-linecap:butt;stroke-linejoin:miter;stroke-miterlimit:4;stroke-dasharray:none;stroke-opacity:1" />
      <path
         sodipodi:nodetypes="cc"
         id="path1916"
         d="M 208.69026,298.03314 L 313.20005,298.03314"
         style="fill:none;fill-rule:evenodd;stroke:white;stroke-width:6.5;stroke-linecap:butt;stroke-linejoin:miter;stroke-miterlimit:4;stroke-dasharray:none;stroke-opacity:1" />
      <path
         sodipodi:nodetypes="cc"
         id="path1918"
         d="M 219.02574,312.06632 L 303.57886,312.19259"
         style="fill:none;fill-rule:evenodd;stroke:white;stroke-width:6.5;stroke-linecap:butt;stroke-linejoin:miter;stroke-miterlimit:4;stroke-dasharray:none;stroke-opacity:1" />
      <path
         sodipodi:nodetypes="cc"
         id="path1920"
         d="M 260.50508,289.11879 L 260.54469,327.1963"
         style="fill:none;fill-rule:evenodd;stroke:white;stroke-width:6.5;stroke-linecap:butt;stroke-linejoin:miter;stroke-miterlimit:4;stroke-dasharray:none;stroke-opacity:1" />
    </g>
    <path
       style="fill:none;fill-rule:evenodd;stroke:#4c0f7b;stroke-width:0.969;stroke-linecap:butt;stroke-linejoin:miter;stroke-opacity:1;stroke-miterlimit:4;stroke-dasharray:none"
       d="M 143.80469,94.154953 L 146.56682,94.154952"
       id="path2871"
       sodipodi:nodetypes="cc" />
  </g>
</svg>
