<svg xmlns="http://www.w3.org/2000/svg" width="900" height="600"><path fill="#ab3748" d="M0 0h900v600H0z"/><path d="M494.145 414.12c-48.104 0-91.155-24.528-120.13-63.173 21.731 14.893 47.195 23.47 74.427 23.47 79.685 0 144.282-64.02 144.282-163.87 0 53.825-43.633 97.461-97.462 97.461-53.827 0-97.462-43.636-97.462-97.462 0-40.9 25.207-75.895 60.924-90.354-2.533-.105-5.07-.192-7.629-.192-34.013 0-65.808 9.448-92.93 25.849l.018-.034c-52.188 31.518-87.088 88.773-87.088 154.185 0 99.413 80.589 180 180 180 89.86 0 164.328-65.851 177.81-151.928-27.776 51.611-77.732 86.048-134.76 86.048z" fill="#fff"/></svg>