<?xml version="1.0" encoding="UTF-8" standalone="no"?>
<!-- Created with Inkscape (http://www.inkscape.org/) -->

<svg
   xmlns:svg="http://www.w3.org/2000/svg"
   xmlns="http://www.w3.org/2000/svg"
   version="1.0"
   width="1200"
   height="800"
   id="svg2">
  <rect
     width="1200"
     height="800"
     style="fill:#2f304e" />
  <path
     d="m 601.43242,141.38046 56.86426,-27.09476 1.1079,166.5413 128.93774,-103.40979 15.20926,62.67259 57.3231,27.09478 -130.96348,104.5177 162.94882,36.03674 -40.73718,50.13808 15.66814,61.10578 -164.5156,-34.46996 75.66602,149.95538 -66.26512,-1.1079 -38.71146,51.24596 L 600.97344,533.08422 529.1688,685.7143 490.18852,633.3604 423.73328,635.1173 495.99684,484.05406 334.69364,520.5497 349.6341,458.985 307.13998,407.73902 470.73772,371.24336 341.8,266.53558 l 58.43108,-27.55368 12.53446,-62.67259 131.61252,105.43551 0.4589,-165.4334 56.59546,25.06904 z"
     id="path1884"
     style="fill:#fff" />
  <path
     d="M 601.56904,140.99998 625.16502,348.64474 801.34852,240.10316 658.1994,386.00508 850.11356,456.39982 646.4015,434.77016 712.62196,630.99998 601.56904,457.18636 491.28638,630.99998 557.52318,435.1634 349.88644,457.99846 544.93868,386.79164 400.6098,238.13684 575.61344,347.46496 601.56904,140.99998 z"
     id="path1882"
     style="fill:#d13a43;fill-opacity:1" />
</svg>
