<?xml version="1.0" encoding="UTF-8" standalone="no"?>
<!-- Created with Inkscape (http://www.inkscape.org/) -->

<svg
   xmlns:svg="http://www.w3.org/2000/svg"
   xmlns="http://www.w3.org/2000/svg"
   xmlns:xlink="http://www.w3.org/1999/xlink"
   version="1.1"
   width="300"
   height="210"
   viewBox="0 0 300 210"
   id="ƒŒƒCƒ_x201E__x5B__1"
   xml:space="preserve"><defs
   id="defs17">
	
	

		
		
		
	</defs>
<rect
   width="300"
   height="210"
   x="0"
   y="0"
   id="rect5"
   style="fill:#6499cd;fill-opacity:1" /><use
   transform="translate(0,-123.29538)"
   id="use3625"
   x="0"
   y="0"
   width="300"
   height="210"
   xlink:href="#path13" /><path
   d="m 257.43614,79.416414 c 31.47042,0 42.56304,5.417441 42.56304,5.417441 0,0 -51.84985,-28.632018 -81.25591,-28.632018 -29.40687,0 -141.87302,30.437017 -167.152783,30.437017 -25.279762,0 -51.58967019215,-5.15807 -51.58967019215,-5.15807 0,0 41.60875619215,24.747966 83.08293319215,25.746306 l 12.986526,18.78405 c -19.921862,4.13445 -36.524094,7.15067 -44.479789,7.15067 -25.279762,0 -51.58967019215,-5.15807 -51.58967019215,-5.15807 0,0 43.33626919215,25.79442 85.63994619215,25.79442 42.303677,0 118.657627,-27.85553 171.796187,-27.85553 31.47043,0 42.56305,5.41744 42.56305,5.41744 0,0 -51.84986,-28.63365 -81.25591,-28.63365 -0.47226,0 -1.02118,0.0302 -1.5334,0.0449 L 205.1907,85.38604 c 18.46514,-3.480311 36.38951,-5.969626 52.24544,-5.969626 z m -72.46093,27.843296 c -17.27106,3.2397 -38.00447,7.77789 -58.12861,12.16192 l -10.5902,-15.3225 c 17.66501,-3.01866 37.67169,-7.751784 58.04623,-12.277738 l 10.67258,15.438318 z"
   id="path11"
   style="fill:#ffffff" /><path
   d="M 51.589811,171.54764 C 26.30998,171.54764 0,166.39039 0,166.39039 c 0,0 43.336387,25.79361 85.64018,25.79361 42.30379,0 118.65795,-27.85554 171.79665,-27.85554 31.47052,0 42.56317,5.41745 42.56317,5.41745 0,0 -51.85,-28.63447 -81.25613,-28.63447 -29.40777,-8.2e-4 -141.874227,30.4362 -167.154059,30.4362 z"
   id="path13"
   style="fill:#ffffff" />
</svg>