<svg enable-background="new 0 0 1000 600" height="600" viewBox="0 0 1000 600" width="1000" xmlns="http://www.w3.org/2000/svg"><path d="m0 0h1000v600h-1000z" fill="#fff"/><g fill="#002768" transform="matrix(1.05569768 0 0 1.05569768 423.082529 249.772177)"><path d="m-40.88 273.96v-2.56h2.18c1.39 0 2.3-.19 2.74-.56s.66-1.37.66-2.98v-20.06c0-1.59-.22-2.58-.66-2.95s-1.35-.56-2.74-.56h-2.18v-2.53h15.89v2.53h-2.16c-1.41 0-2.33.19-2.75.56-.43.38-.64 1.36-.64 2.95v20.06c0 1.61.22 2.6.66 2.98s1.35.56 2.74.56h2.16v2.56z"/><path d="m-22.23 241.75h15.84v2.53h-2.39c-1.41 0-2.33.19-2.77.56-.44.38-.66 1.36-.66 2.95v23.61h7.69c2.33 0 4.13-.22 5.39-.67 1.27-.45 2.16-1.16 2.67-2.14.42-.8.73-1.77.91-2.93.19-1.15.28-2.62.28-4.38v-.7h2.51v13.38h-29.48v-2.56h1.97c1.39 0 2.31-.19 2.76-.56s.67-1.37.67-2.98v-20.06c0-1.59-.22-2.58-.66-2.95s-1.36-.56-2.76-.56h-1.97z"/><path d="m10.59 241.75h15.84v2.53h-2.39c-1.41 0-2.33.19-2.77.56-.44.38-.66 1.36-.66 2.95v23.61h7.69c2.33 0 4.13-.22 5.39-.67s2.16-1.16 2.67-2.14c.42-.8.73-1.77.91-2.93.19-1.15.28-2.62.28-4.38v-.7h2.51v13.38h-29.47v-2.56h1.97c1.39 0 2.31-.19 2.76-.56s.67-1.37.67-2.98v-20.06c0-1.59-.22-2.58-.66-2.95s-1.36-.56-2.77-.56h-1.97z"/><path d="m43.49 273.96v-2.56h2.18c1.39 0 2.3-.19 2.74-.56s.66-1.37.66-2.98v-20.06c0-1.59-.22-2.58-.66-2.95s-1.35-.56-2.74-.56h-2.18v-2.53h15.89v2.53h-2.16c-1.41 0-2.33.19-2.75.56-.43.38-.64 1.36-.64 2.95v20.06c0 1.61.22 2.6.66 2.98s1.35.56 2.74.56h2.16v2.56z"/><path d="m94.47 274.09h-4.08l-19.73-27.98v21.75c0 1.61.22 2.6.66 2.98s1.35.56 2.74.56h2.41v2.56h-14.32v-2.56h1.88c1.39 0 2.31-.19 2.75-.56.45-.37.67-1.37.67-2.98v-20.01c0-1.61-.22-2.61-.67-2.99s-1.36-.57-2.75-.57h-1.87v-2.53h10.8l18.28 25.88v-19.78c0-1.61-.22-2.61-.66-2.99s-1.35-.57-2.74-.57h-2.56v-2.53h14.18v2.53h-1.59c-1.39 0-2.31.19-2.74.57-.44.38-.66 1.38-.66 2.99v26.25z"/><path d="m107.85 257.83c0 4.38 1.1 7.87 3.29 10.48s5.11 3.91 8.75 3.91 6.56-1.3 8.76-3.91c2.19-2.61 3.29-6.1 3.29-10.48 0-4.37-1.09-7.86-3.28-10.45s-5.11-3.89-8.77-3.89c-3.64 0-6.56 1.3-8.75 3.89s-3.29 6.08-3.29 10.45zm-5.22 0c0-2.5.45-4.82 1.36-6.97s2.23-4.03 3.96-5.66c1.52-1.41 3.31-2.49 5.38-3.26s4.26-1.15 6.57-1.15 4.5.38 6.57 1.15 3.86 1.85 5.38 3.26c1.75 1.64 3.08 3.53 3.97 5.66.9 2.13 1.35 4.46 1.35 6.97 0 2.53-.45 4.87-1.35 7.01s-2.22 4.03-3.97 5.67c-1.51 1.41-3.31 2.49-5.38 3.26s-4.26 1.15-6.57 1.15-4.5-.38-6.57-1.15-3.86-1.85-5.38-3.26c-1.73-1.62-3.05-3.51-3.96-5.67s-1.36-4.49-1.36-7.01z"/><path d="m140.52 273.96v-2.56h2.18c1.39 0 2.3-.19 2.74-.56s.66-1.37.66-2.98v-20.06c0-1.59-.22-2.58-.66-2.95s-1.35-.56-2.74-.56h-2.18v-2.53h15.89v2.53h-2.16c-1.41 0-2.33.19-2.75.56-.43.38-.64 1.36-.64 2.95v20.06c0 1.61.22 2.6.66 2.98s1.35.56 2.74.56h2.16v2.56z"/><path d="m159.91 273.96v-13.34h2.65c.5 3.5 1.81 6.25 3.94 8.26s4.8 3.01 8.02 3.01c2.33 0 4.2-.56 5.6-1.66 1.41-1.11 2.11-2.57 2.11-4.38 0-1.55-.53-2.75-1.59-3.62s-3.01-1.61-5.84-2.24l-3.98-.87c-4.31-.97-7.19-2.13-8.64-3.47-1.44-1.34-2.17-3.32-2.17-5.93 0-2.72 1.05-4.89 3.14-6.5 2.09-1.62 4.92-2.42 8.48-2.42 1.77 0 3.43.29 5 .88s3.1 1.49 4.58 2.71l1.41-2.91h2.25v12.19h-2.6c-.41-3.25-1.52-5.74-3.34-7.48-1.82-1.73-4.24-2.6-7.25-2.6-2.38 0-4.23.48-5.56 1.44s-1.99 2.3-1.99 4.02c0 1.34.53 2.43 1.58 3.27 1.06.84 2.71 1.47 4.96 1.91l4.64.96c4.13.83 7.04 1.98 8.74 3.45s2.56 3.54 2.56 6.21c0 2.98-1.1 5.41-3.31 7.28s-5.09 2.8-8.64 2.8c-2.06 0-3.97-.37-5.71-1.1s-3.41-1.87-5-3.42l-1.57 3.56h-2.47z"/></g><g transform="matrix(1.25149139 0 0 1.25149139 14.871867 17.264307)"><g><path d="m445.24 277.48s11.19 21.85 14.75 21.86 14.4 1.04 18.25 1.07c3.86-.01 9.86-1.77 16.03-.9 6.37.9 9.35.92 13.35.01 3.5-.78 11.76.61 16.19 1.19 6.17-6.09 15.17-22.79 15.17-22.79l-93.61-.45" fill="#64b4ff"/><path d="m460.92 299.07c3.56.01 14.69 1.48 18.54 1.5 3.86-.01 9.86-1.77 16.03-.9 6.37.9 9.35.92 13.35.01 3.5-.78 10.74 1.05 14.6.76" fill="none" stroke="#3c3c9e" stroke-width=".96"/><path d="m249.71 286.65 8.46 12.58c-4.15 1.26-16.27-1.26-20.05.14-4.36-4.12-10.41-12.73-10.41-12.73z" fill="#64b4ff"/><g fill="none"><path d="m248.35 286.79-20.55-.01m29.3 12.44c-4.15 1.26-14.25-.83-18.03.57" stroke="#000" stroke-width=".96"/><path d="m456.33 282.52c1.63-.45 5.04-1.04 8.01.3m24.64 7.47c1.63-.45 5.04-1.04 8.01.3m13.37-7.59c1.63-.44 5.04-1.04 8.01.3" stroke="#3c3c9e" stroke-width="1.79"/><path d="m480.52 284.91c1.64-.43 5.05-1.03 8.02.3" stroke="#3c3c9e" stroke-width="1.79"/><path d="m465.52 284.47c1.64-.45 5.05-1.04 8.02.3" stroke="#3c3c9e" stroke-width="1.79"/><path d="m503.96 296.12c1.64-.45 5.05-1.04 8.02.3m4.6-2.39c1.64-.45 5.05-1.03 8.02.31m-18.7-3.31c1.64-.43 5.05-1.03 8.02.31m-1.49-4.92c1.64-.43 5.05-1.03 8.02.31" stroke="#3c3c9e" stroke-width="1.79"/><path d="m475.47 292.52c1.63-.45 5.04-1.04 8.01.3m-20.93 3.1c1.64-.43 5.05-1.03 8.02.33" stroke="#3c3c9e" stroke-width="1.79"/></g><g fill="#3c3c9e" stroke="#fff" stroke-width="1.43"><path d="m488.1 290.39c1.31-1.07 5.34-3.57 9.62.38"/><path d="m504.97 291.01c1.3-1.08 5.34-3.58 9.62.38"/><path d="m511.62 286.36c1.3-1.06 5.34-3.57 9.62.38"/><path d="m509.6 283.01c1.31-1.05 5.36-3.57 9.62.38"/><path d="m464.83 284.43c1.31-1.05 5.34-3.58 9.62.36"/><path d="m474.79 292.44c1.31-1.07 5.34-3.58 9.62.36"/><path d="m461.73 295.87c1.31-1.07 5.35-3.57 9.62.38"/><path d="m515.76 294.13c1.31-1.07 5.34-3.58 9.62.35"/><path d="m479.67 285.14c1.31-1.07 5.35-3.56 9.62.38"/><path d="m455.57 282.52c1.31-1.07 5.34-3.58 9.62.35"/><path d="m473.49 289.08c1.31-1.05 5.35-3.57 9.62.38"/><path d="m497.49 287.32c1.3-1.08 5.34-3.58 9.62.36"/><path d="m503.17 296.14c1.31-1.07 5.35-3.57 9.63.35"/><path d="m498.08 282.18c1.31-1.05 4.04-3.57 8.31.37"/><path d="m469.47 281.92c1.3-1.06 4.75-3.56 9.01.39"/><path d="m522.19 282.43c1.31-1.05 4.04-3.55 8.31.37"/><path d="m492.49 294.34c1.31-1.07 4.05-3.57 8.31.37"/><path d="m490.12 283.62c1.31-1.07 4.05-3.58 8.31.37"/><path d="m481.89 282.12c.41-1.13 2.19-4.11 5.16.42"/><path d="m461.15 287.99c1.3-1.06 4.03-3.55 8.31.37"/><path d="m474.19 297.21c1.98-1.63 4.65-3.04 8.31.35"/><path d="m463.64 291.82c1.98-1.62 4.63-3.01 8.31.37"/><path d="m516.6 289.7c1.98-1.62 4.63-3.01 8.31.37"/><path d="m520.16 285.77c1.99-1.62 4.64-3.02 8.32.37"/><path d="m486 297.56c1.31-1.07 4.05-3.57 8.31.37"/><path d="m238.4 290.7c1.31-1.07 5.34-3.56 9.62.38"/><path d="m244.39 296.05c1.31-1.07 4.05-3.57 8.31.37"/></g></g><g><path d="m365.16 266.89 2.61-8.44 2.03-2.62 15.37 2.04 22.62 4.95 12.04 2.21 19.28 32.7 19.72 1.45-17.94 20.81-59.76.01-11.1-5.87-16.51-15.03 23.41-18.78z" fill="#b4b4b4"/><path d="m407.21 262.38c3.71-.63 19.6-1.87 24.34 7.24 0 0-.22-.01-2.08.06 2.45.16 12.99-2.82 17.28 9.85-1.56-.59-2.9-.45-2.9-.45s10.25-1.07 16.17 18.94c1.03 3.71-13.21-1.35-20.93 1.18m20.85-.35c3.19 1.17 3.79 6.61 5.42 8.28 1.64 1.63 5.34 3.87 5.04 6.69-.3 2.84-4.75 6.86-8.77 7.76-4 .89-14.99-1.95-19.14-1.52-4.15.46-16.48 4.18-23.31 4.02s-13.79-3.14-19.58-2.99c-5.78.12-15.89.88-18.84-1.07m-5.66-4.32c-.74-2.68-1.91-11.59 8.18-15.19 3.11-1.11 4.97-1.12 6.37-1.56 2.29-.71 4.08-1.41 5.73-.83 1.63.6 3.18 4.19 8.82 4.93m3.14-26.24c-1.93-.16-3.41-3.57-8.01-2.99-4.61.6-11.45 5.22-12.48 11.33-1.05 6.12-1.13 8.57 3.17 13.33" fill="#b4b4b4" stroke="#000" stroke-width="1.07"/><path d="m402.88 284.38v8.15c0 .5.25.83.76.83h1.07v1.45h-6.69v-1.45h1.13c.52 0 .76-.33.76-.83v-5.32h-1.85v-1.45h.43c1 0 1.72-.32 2.17-1.38z"/><path d="m415.95 286.73c0 1.11-.83 1.62-1.77 1.96 1.39.54 2.32 1.4 2.32 3 0 2.63-2.35 3.37-4.83 3.37-1.88 0-4.65-.38-4.65-2.84 0-1.38.74-2.12 1.99-2.57-.86-.43-1.61-1.21-1.61-2.22 0-2.65 2.25-3.31 4.49-3.31 1.65 0 4.06.52 4.06 2.61zm-5.62 3.64c-.67.23-1.25 1-1.25 1.57 0 1.49 1.41 1.86 2.65 1.86.91 0 2.11-.32 2.11-1.42 0-.49-.29-.85-1.52-1.29zm2.92-2.54c.43-.26.64-.58.64-1.11 0-1.07-1.15-1.33-2.01-1.33-.79 0-1.83.2-1.83 1.17 0 .39.23.68.64.82l2.12.74z"/><path d="m420.75 289.21c.93-.64 1.49-.78 2.63-.78 1.93 0 3.54 1.14 3.54 3.15 0 2.46-2.17 3.48-4.37 3.48-3.38 0-4.96-1.9-4.96-5.01 0-3.53 1.63-5.93 5.38-5.93 1.35 0 3.52.68 3.52 2.19 0 1.07-.62 1.5-1.7 1.5-.74 0-1.34-.51-1.34-1.14 0-.53.21-.76.67-1.01-.29-.19-.57-.26-.88-.26-1.77 0-2.49 1.28-2.49 2.86zm.19 2.55c0 1.32.53 1.93 1.41 1.93s1.41-.61 1.41-1.93c0-1.33-.53-1.95-1.41-1.95s-1.41.61-1.41 1.95"/><path d="m436.93 286.73c0 1.11-.83 1.62-1.77 1.96 1.39.54 2.32 1.4 2.32 3 0 2.63-2.36 3.37-4.83 3.37-1.88 0-4.66-.38-4.66-2.84 0-1.38.74-2.12 2-2.57-.86-.43-1.62-1.21-1.62-2.22 0-2.65 2.26-3.31 4.49-3.31 1.67 0 4.07.52 4.07 2.61zm-5.62 3.64c-.67.23-1.25 1-1.25 1.57 0 1.49 1.41 1.86 2.65 1.86.92 0 2.11-.32 2.11-1.42 0-.49-.29-.85-1.53-1.29zm2.93-2.54c.43-.26.64-.58.64-1.11 0-1.07-1.15-1.33-2.02-1.33-.79 0-1.82.2-1.82 1.17 0 .39.23.68.64.82l2.12.74z"/><path d="m418.83 304.07v8.16c0 .48.24.83.76.83h1.07v1.44h-6.68v-1.44h1.14c.52 0 .76-.35.76-.83v-5.33h-1.85v-1.45h.43c1 0 1.72-.33 2.17-1.38h2.22"/><path d="m431.9 306.41c0 1.12-.82 1.64-1.77 1.96 1.39.56 2.32 1.4 2.32 3 0 2.64-2.36 3.38-4.83 3.38-1.88 0-4.66-.39-4.66-2.85 0-1.37.74-2.11 2-2.55-.86-.44-1.62-1.21-1.62-2.22 0-2.65 2.26-3.32 4.49-3.32 1.66 0 4.07.52 4.07 2.6zm-5.62 3.64c-.67.23-1.25 1-1.25 1.57 0 1.49 1.41 1.86 2.65 1.86.91 0 2.11-.32 2.11-1.42 0-.49-.29-.84-1.53-1.29zm2.92-2.52c.43-.26.63-.57.63-1.12 0-1.06-1.15-1.32-2.01-1.32-.79 0-1.82.18-1.82 1.17 0 .39.23.67.64.8l2.12.74z"/><path d="m439.81 304.07v8.16c0 .48.24.83.76.83h1.06v1.44h-6.68v-1.44h1.14c.52 0 .76-.35.76-.83v-5.33h-1.85v-1.45h.43c1 0 1.71-.33 2.15-1.38h2.24"/><path d="m452.88 306.41c0 1.12-.82 1.64-1.77 1.96 1.39.56 2.32 1.4 2.32 3 0 2.64-2.36 3.38-4.83 3.38-1.87 0-4.65-.39-4.65-2.85 0-1.37.74-2.11 2-2.55-.86-.44-1.62-1.21-1.62-2.22 0-2.65 2.26-3.32 4.49-3.32 1.66 0 4.06.52 4.06 2.6zm-5.62 3.64c-.67.23-1.25 1-1.25 1.57 0 1.49 1.41 1.86 2.65 1.86.91 0 2.11-.32 2.11-1.42 0-.49-.29-.84-1.53-1.29zm2.92-2.52c.44-.26.64-.57.64-1.12 0-1.06-1.15-1.32-2.01-1.32-.79 0-1.82.18-1.82 1.17 0 .39.22.67.64.8l2.11.74z"/></g><g><path d="m355.29 245.37c2.22 6.9 16.52 26.7 35.78 26.23-1.05 5.6-28.53 61.94-102.13 65.92-20.76-70.12 17.51-114.1 30.58-118.35 4.37 17.79 28.67 25.85 35.76 26.2z" fill="#ffb30f" stroke="#000" stroke-width="1.19"/><path d="m353.34 248.46c2.03 6.3 9.04 35.3 20.69 44.84-4.55 4.81-33.86 37.45-81.3 39.34-15.37-47.91 4-82.53 10.61-93.61 15.06 11 43.51 9.11 49.99 9.43" fill="#fff"/><path d="m317.38 223.9c7.73 16.75 28.38 22.64 35.87 24.29 2.53 12.6 27.43 27.89 32.97 26.65-.97 6.85-14.02 21.09-18.36 24.9-.07-.08-69.58-50.93-69.56-50.95 1.94-5.88 14.71-24.79 19.08-24.89" fill="#002768"/><g fill="#be0a2f"><path d="m361.08 300.18c.04-.01 3.71 2.68 3.75 2.66-3.02 2.45-10.76 8.38-12.5 9.55 0 .01 8.79-12.22 8.75-12.21"/><path d="m296.44 252.86c.01-.01 5.51 4.06 5.51 4.06l-12.72 17.8c2.41-9.58 2.68-11.69 7.21-21.86"/><path d="m306.06 259.89 6.94 5.04-25.94 36.24c-.73-4.7-.2-10.57.21-15z"/><path d="m317.05 267.88 6.89 5.11-34.42 48.09c-.71-3.8-1.8-8.62-1.98-12z"/><path d="m339.09 284.01 6.89 5.07-28.44 39.58c-1.8.97-10.47 2.66-12.53 3z"/><path d="m328.21 276.07 6.78 4.99-36.61 51.08c-.81.44-3.16.36-5.58.42-.32-1.5-1.23-3.9-1.56-4.91z"/><path d="m350.11 292.1 6.91 5.04-15.62 21.66c-1.8.96-12.92 6.68-15.67 7.44z"/></g><g fill="#fff"><path d="m314.79 238.77-1.85 6.46-2.46-6.57 5.71 4.18-6.93-.3z"/><path d="m326.05 237.96-1.85 6.46-2.46-6.57 5.71 4.18-6.93-.3z"/><path d="m317.09 249.7-1.85 6.46-2.46-6.57 5.71 4.18-6.93-.3z"/><path d="m328.79 249.03-1.85 6.46-2.46-6.57 5.71 4.18-6.93-.3z"/><path d="m341.16 248.82-1.85 6.46-2.46-6.57 5.71 4.18-6.93-.3z"/><path d="m356.43 259.97-1.85 6.46-2.46-6.57 5.71 4.18-6.93-.3z"/><path d="m344.55 260.44-1.85 6.46-2.46-6.57 5.71 4.18-6.93-.3z"/><path d="m332.55 260.81-1.85 6.46-2.46-6.57 5.71 4.18-6.93-.3z"/><path d="m347.6 272.03-1.85 6.46-2.46-6.57 5.71 4.18-6.93-.3z"/><path d="m359.25 271.07-1.85 6.46-2.46-6.57 5.71 4.18-6.93-.3z"/><path d="m369.86 270-1.85 6.46-2.46-6.57 5.71 4.18-6.93-.3z"/><path d="m361.25 282.02-1.85 6.46-2.46-6.57 5.71 4.18-6.93-.3z"/><path d="m372.6 281.06-1.85 6.46-2.46-6.57 5.71 4.18-6.93-.3z"/></g></g><g><g fill="#ffe60f" stroke="#fff" stroke-width=".25"><path d="m456.38 277.14 71.36.1-52.29-23.65z"/><path d="m477.5 267.47s-12.4-6.13-13.73-6.71c-1.33-.59-4.45-.46-4.45-.46s.28 2.73 1.48 3.28 15.81 5.83 15.81 5.83m1.93-3.8s-9.81-5.89-12.09-7.08-5.34-.82-5.34-.82 1.44 2.59 2.67 3.15c1.21.54 13.73 6.62 13.73 6.62m46.6 9.13s7.25-1 9.26-1.33c2.03-.34 5.51-4.91 5.51-4.91s-3.85-2.19-5.95-1.81c-2.08.36-20.48 5.79-20.48 5.79s20.26-5.27 22.1-5.92c1.87-.66 4.17-4.49 4.17-4.49s-3.09-1-4.74-.44c-1.65.55-22.43 7.72-22.43 7.72s23.09-7.68 24.94-8.61c1.84-.93 4.16-4.92 4.16-4.92s-3.16-.68-4.15-.16c-.6.31-9.86 4.6-16.99 8.47 6.3-3.08 14.02-6.87 15.65-7.74 2.83-1.48 8.47-8.94 8.47-8.94s-5.38.69-6.97 1.65c-1.59.95-26.36 16.97-26.36 16.97s26.91-17.03 29.1-18.45c2.21-1.44 4.67-7.46 4.67-7.46s-4.33.26-6 1.48c-1.67 1.24-29.18 21.82-29.18 21.82s29.51-22.07 31.42-23.61c1.89-1.5 3.78-7.37 3.78-7.37s-4.32-.23-6.07 1.06c-1.75 1.28-30.3 28.58-30.3 28.58s31.23-29.73 33.72-31.94c2.48-2.21 5.06-8.64 5.06-8.64s-4.71.89-6.17 2.53c-1.47 1.66-33.66 37.24-33.66 37.24s36.4-40.55 38.19-42.45c1.78-1.92 2.98-7.61 2.98-7.61s-4.39 1.85-6.25 3.82c-1.85 1.95-36.26 45.05-36.26 45.05s33.18-41.39 35.23-43.95c2.04-2.56 2.96-7.45 2.96-7.45s-4.56 1.61-6.45 4.1c-1.9 2.48-32.84 46.34-32.84 46.34s25.84-36.83 26.68-37.91c.84-1.11.89-4.92.89-4.92s-2.56.76-3.34 1.93c-.89 1.33-25.12 40.15-25.12 40.15s26.21-41.85 27.13-43.43c.92-1.56.59-4.6.59-4.6s-2.18.55-3.19 1.78c-1 1.23-25.57 45.73-25.57 45.73s26.88-48.29 27.73-49.76c.85-1.43.89-6.11.89-6.11s-3.31 1.05-4.6 2.62-24.9 52.9-24.9 52.9 25.67-54.48 27.13-57.75c1.47-3.27 1.79-8.49 1.79-8.49s-3.24.73-4.38 2.54c-1.03 1.63-26.11 62.71-26.11 62.71l27.68-67.18.89-6.71s-5.42 3.59-6.24 6.1c-.4 1.26-10.52 30.1-15.78 46.84 5.55-16.64 15.33-45.35 15.64-46.09.61-1.44-.07-5.05-.07-5.05s-3.74 3.21-4.39 5.35c-.28.99-7.23 24.94-11.38 40.32 3.17-10.72 8.41-29.6 8.7-30.49.74-2.21-.58-6.39-.58-6.39s-2.23 3.07-2.97 6.24c-.59 2.55-8.7 37.45-11.95 51.39 3.16-12.93 10.46-45.28 11.05-47.5.68-2.62-1.62-7.15-1.62-7.15s-2.58 2.34-2.83 4.15c-.17 1.32-4.49 29.56-6.91 45.39 2.68-16.22 6.66-45.79 6.91-47.61.35-2.53-1.92-7.32-1.92-7.32s-2.31 1.94-2.38 3.23c-.07 1.27-5.76 61.9-5.76 61.9s5.98-63.64 6.22-66.02c.23-2.37-1.93-6.41-1.93-6.41s-1.67 1.51-1.78 2.97c-.08.95-1.42 29.05-2.37 49.2 1.26-20.95 2.41-51.08 2.52-53.08.18-3.06-2.07-5.94-2.07-5.94s-1.47 1.69-1.64 4.77c-.2 3.69-.67 74.38-.67 74.38s.72-75.43.68-77.81c-.04-2.37-3.25-7.17-3.25-7.17s-2.55 3.89-2.38 7.31c.13 2.73 3.63 77.66 3.63 77.66s-2.87-66.71-3.34-70.21c-.46-3.51-4.15-6.26-4.15-6.26s-1.36 3.9-1.04 8.33c.31 4.46 5.62 49.07 5.62 49.07-2.1-17.27-4.87-40.16-5.04-41.59-.26-2.31-4.37-6.86-4.37-6.86s-.32 7.25.37 10.81c.42 2.18 10.33 56.85 10.33 56.85-.01 0-9.29-51.52-9.9-54.54-.59-3.02-3.54-5.23-3.54-5.23s-.72 5.05.28 9.84c.46 2.21 11.82 49.94 11.82 49.94-.8-4.03-11.23-47.5-11.81-49.94-.62-2.53-2.66-4.77-2.66-4.77s-.65 4.87-.02 6.85c.63 2 13.46 48.31 13.46 48.31s-13.87-48.76-15.53-53.37c-1.02-2.87-4.95-6.71-4.95-6.71s-.08 4.83.73 6.78c.58 1.39 10.52 28.56 16.25 43.54-6.11-16.38-17.72-47.6-18.24-49.11-.69-2.09-6.22-7.16-6.22-7.16s-.9 3.28-.15 4.91c.74 1.63 26.95 61.49 26.95 61.49s-24.5-55.97-26.21-59.86c-1.71-3.87-7.71-7.01-7.71-7.01s.46 7.54 2.06 10.6c1.61 3.05 30.52 56.96 30.52 56.96s-26.86-50.32-27.85-52.05c-.99-1.72-6.23-4.33-6.23-4.33s1.06 6.06 2.66 8.51c1.16 1.77 26.34 41.14 26.34 41.14-8.03-12.79-23.47-37.21-24.56-38.31-1.52-1.51-6.75-4.11-6.75-4.11s2.97 8.13 4.81 10.43c1.83 2.31 30.1 39.39 30.1 39.39s-28.04-37.08-29.51-38.54c-1.69-1.7-5.93-2.75-5.93-2.75s2.82 6.48 4.89 8.94c2.08 2.44 28.16 33.47 28.16 33.47s-23.82-28.72-26.08-31.03c-2.28-2.29-6.53-2.84-6.53-2.84s2.75 6.09 6.37 9.85c3.63 3.76 24.91 25.13 24.91 25.13"/><path d="m475.78 271.49s-18.73-3.82-21.15-4.25c-2.43-.46-10.61.65-10.61.65s7.79 4.1 11.57 4.34c3.77.25 19.44 1.58 19.44 1.58"/><path d="m481.12 262.19s-18.35-19.48-20.45-20.95c-2.09-1.49-6.99-1.5-6.99-1.5s.46 4.52 2.82 6.1c2.37 1.59 23.37 17.7 23.37 17.7s-11.36-8.9-13.34-10.37-6.39-.75-6.39-.75 3.22 4.31 5.42 5.81c2.2 1.51 12.99 7.39 12.99 7.39m-1.95 3.79s-14.88-5.55-17.58-6.43c-2.71-.85-11.73-.44-11.73-.44s4.99 4.16 7.34 4.69c2.35.51 21.15 4.25 21.15 4.25m-.75 2.32s-19.44-1.98-21.21-1.73c-1.78.25-7.58 2.67-7.58 2.67s5.74 1.46 7.86 1.51c2.12.04 20.78-1.03 20.78-1.03"/></g><path d="m507.06 277.2c0-7.18-5.81-13.01-12.97-13.01s-12.96 5.83-12.96 13.01z" fill="#ffb316"/></g><g fill="#fff"><path d="m266.96 313.42c-.97-1.82-1.11-6.3-1.11-6.3s-.34 5.36-1.59 7.4" stroke="#3f863f" stroke-width="1.02"/><path d="m265.9 305.49c.06 2.47 1.06 7.93 2.01 8.64" stroke="#fff" stroke-width="1.02"/><path d="m289 344.18c-.79-1.47-.91-5.1-.91-5.1s-.27 4.35-1.29 5.99" stroke="#3f863f" stroke-width=".82"/><path d="m288.14 337.76c.06 1.98.86 6.41 1.62 6.98" stroke="#fff" stroke-width=".82"/><path d="m364.81 358.24c.92-1.84.92-6.34.92-6.34s.51 5.35 1.83 7.35" stroke="#3f863f" stroke-width="1.02"/><path d="m365.62 350.26c.02 2.48-.81 7.99-1.72 8.72" stroke="#fff" stroke-width="1.02"/><path d="m404.67 356.39c.92-1.84.92-6.32.92-6.32s.5 5.35 1.83 7.35" stroke="#3f863f" stroke-width="1.02"/><path d="m405.48 348.43c.01 2.46-.81 7.97-1.72 8.7" stroke="#fff" stroke-width="1.02"/><path d="m270.81 323c.91-1.86.91-6.33.91-6.33s.52 5.33 1.83 7.35" stroke="#3f863f" stroke-width="1.02"/><path d="m271.61 315.03c.02 2.47-.8 7.98-1.73 8.73" stroke="#fff" stroke-width="1.02"/><path d="m330.53 355.46c.91-1.84.92-6.34.92-6.34s.5 5.35 1.83 7.37" stroke="#3f863f" stroke-width="1.02"/><path d="m331.34 347.47c.01 2.48-.81 7.99-1.72 8.72" stroke="#fff" stroke-width="1.02"/><path d="m448.38 363.85c-.97-1.82-1.11-6.3-1.11-6.3s-.34 5.35-1.6 7.39" stroke="#3f863f" stroke-width="1.02"/><path d="m447.33 355.92c.07 2.45 1.06 7.93 2 8.62" stroke="#fff" stroke-width="1.02"/><path d="m345.29 361.24c-.88-1.64-1-5.67-1-5.67s-.31 4.82-1.44 6.65" stroke="#3f863f" stroke-width=".91"/><path d="m344.34 354.1c.05 2.19.95 7.14 1.8 7.76" stroke="#fff" stroke-width=".91"/><path d="m350.85 364.49c.91-1.84.92-6.34.92-6.34s.5 5.35 1.83 7.35" stroke="#3f863f" stroke-width="1.02"/><path d="m351.65 356.53c.02 2.44-.8 7.97-1.71 8.7" stroke="#fff" stroke-width="1.02"/><path d="m360.81 361.62c-.99-1.8-1.11-6.3-1.11-6.3s-.34 5.36-1.6 7.4" stroke="#3f863f" stroke-width="1.02"/><path d="m359.76 353.69c.05 2.47 1.06 7.93 1.99 8.65" stroke="#fff" stroke-width="1.02"/><path d="m358.12 375.2c-.97-1.82-1.11-6.3-1.11-6.3s-.34 5.36-1.6 7.39" stroke="#3f863f" stroke-width="1.02"/><path d="m357.07 367.26c.06 2.45 1.06 7.94 1.99 8.63" stroke="#fff" stroke-width="1.02"/><path d="m386.42 355.29c-.87-1.65-1-5.67-1-5.67s-.3 4.83-1.43 6.67" stroke="#3f863f" stroke-width=".91"/><path d="m385.47 348.15c.06 2.23.95 7.15 1.8 7.79" stroke="#fff" stroke-width=".91"/><path d="m389.37 371.12c-.97-1.83-1.11-6.3-1.11-6.3s-.34 5.35-1.6 7.39" stroke="#3f863f" stroke-width="1.02"/><path d="m388.32 363.18c.07 2.45 1.06 7.94 2 8.62" stroke="#fff" stroke-width="1.02"/><path d="m379.28 367.11c.92-1.84.92-6.32.92-6.32s.51 5.35 1.83 7.35" stroke="#3f863f" stroke-width="1.02"/><path d="m380.08 359.14c.02 2.46-.81 7.97-1.72 8.7" stroke="#fff" stroke-width="1.02"/><path d="m371.85 375.82c.91-1.84.9-6.32.9-6.32s.52 5.33 1.84 7.33" stroke="#3f863f" stroke-width="1.02"/><path d="m372.65 367.86c.02 2.46-.8 7.97-1.72 8.7" stroke="#fff" stroke-width="1.02"/><path d="m373.13 355.06c.75-1.52.74-5.13.74-5.13s.42 4.31 1.49 5.95" stroke="#3f863f" stroke-width=".82"/><path d="m373.79 348.59c.01 1.99-.65 6.47-1.4 7.06" stroke="#fff" stroke-width=".82"/><path d="m402.35 374.91c.74-1.52.75-5.13.75-5.13-.01 0 .41 4.31 1.48 5.95" stroke="#3f863f" stroke-width=".82"/><path d="m403.01 368.44c.01 1.99-.65 6.47-1.39 7.04" stroke="#fff" stroke-width=".82"/><path d="m395.84 354.54c.74-1.49.74-5.13.74-5.13s.41 4.34 1.49 5.95" stroke="#3f863f" stroke-width=".82"/><path d="m396.5 348.09c.01 2-.65 6.45-1.4 7.05" stroke="#fff" stroke-width=".82"/><g stroke-width="1.02"><path d="m381.72 377.48c.92-1.84.92-6.32.92-6.32s.51 5.33 1.83 7.35" stroke="#3f863f"/><path d="m382.52 369.51c.01 2.46-.81 7.97-1.72 8.7" stroke="#fff"/><path d="m394.33 378.07c.92-1.84.91-6.32.91-6.32s.52 5.33 1.84 7.33" stroke="#3f863f"/><path d="m395.14 370.11c.02 2.46-.81 7.97-1.72 8.7" stroke="#fff"/><path d="m365.4 374c-.98-1.82-1.11-6.3-1.11-6.3s-.34 5.36-1.6 7.4" stroke="#3f863f"/><path d="m364.34 366.06c.06 2.48 1.06 7.94 2 8.63" stroke="#fff"/><path d="m368.59 365.7c.91-1.86.91-6.34.91-6.34s.52 5.34 1.84 7.34" stroke="#3f863f"/><path d="m369.39 357.72c.02 2.47-.8 7.98-1.72 8.71" stroke="#fff"/><path d="m348.18 371.31c-.97-1.82-1.11-6.3-1.11-6.3s-.34 5.34-1.6 7.4" stroke="#3f863f"/><path d="m347.13 363.36c.06 2.48 1.05 7.96 1.99 8.65" stroke="#fff"/><path d="m338.83 367.75c.91-1.85.9-6.32.9-6.32s.52 5.35 1.83 7.35" stroke="#3f863f"/><path d="m339.63 359.78c.02 2.46-.8 7.97-1.72 8.72" stroke="#fff"/><path d="m309.6 357.97c.91-1.84.9-6.32.9-6.32s.52 5.35 1.83 7.35" stroke="#3f863f"/><path d="m310.4 350.01c.02 2.46-.8 7.97-1.72 8.7" stroke="#fff"/><path d="m320.2 362.73c-.97-1.82-1.11-6.3-1.11-6.3s-.34 5.34-1.6 7.39" stroke="#3f863f"/><path d="m319.15 354.8c.06 2.45 1.06 7.91 1.99 8.63" stroke="#fff"/><path d="m324.51 364.54c.91-1.85.92-6.34.92-6.34s.5 5.35 1.82 7.37" stroke="#3f863f"/><path d="m325.31 356.58c.02 2.46-.8 7.97-1.72 8.7" stroke="#fff"/></g><path d="m335.17 365.68c-.78-1.49-.9-5.11-.9-5.11s-.27 4.33-1.29 5.98" stroke="#3f863f" stroke-width=".82"/><path d="m334.32 359.23c.05 2 .85 6.45 1.61 7.01" stroke="#fff" stroke-width=".82"/><path d="m339.88 357.89c-.98-1.82-1.11-6.3-1.11-6.3s-.35 5.36-1.6 7.4" stroke="#3f863f" stroke-width="1.02"/><path d="m338.83 349.95c.05 2.47 1.06 7.94 2 8.63" stroke="#fff" stroke-width="1.02"/><path d="m319.77 348.22c.92-1.84.92-6.32.92-6.32s.5 5.35 1.83 7.35" stroke="#3f863f" stroke-width="1.02"/><path d="m320.58 340.25c.01 2.46-.81 7.97-1.72 8.7" stroke="#fff" stroke-width="1.02"/><path d="m303.15 354.16c-.98-1.85-1.11-6.32-1.11-6.32s-.34 5.35-1.6 7.39" stroke="#3f863f" stroke-width="1.02"/><path d="m302.09 346.19c.05 2.48 1.05 7.97 1.99 8.65" stroke="#fff" stroke-width="1.02"/><path d="m292.76 347.76c.91-1.87.92-6.34.92-6.34s.5 5.35 1.83 7.35" stroke="#3f863f" stroke-width="1.02"/><path d="m293.55 339.79c.02 2.46-.8 7.97-1.71 8.7" stroke="#fff" stroke-width="1.02"/><path d="m306.56 347.29c-.97-1.83-1.11-6.3-1.11-6.3s-.34 5.35-1.6 7.39" stroke="#3f863f" stroke-width="1.02"/><path d="m305.51 339.35c.06 2.46 1.05 7.95 2 8.63" stroke="#fff" stroke-width="1.02"/><path d="m313.71 346.52c.74-1.51.74-5.13.74-5.13s.42 4.31 1.49 5.95" stroke="#3f863f" stroke-width=".82"/><path d="m314.37 340.05c.01 1.99-.65 6.47-1.39 7.06" stroke="#fff" stroke-width=".82"/><path d="m378.06 354.81c.82-1.66.82-5.69.82-5.69s.46 4.82 1.66 6.61" stroke="#3f863f" stroke-width=".91"/><path d="m378.78 347.65c.02 2.22-.72 7.17-1.55 7.83" stroke="#fff" stroke-width=".91"/><path d="m390.2 354.61c.92-1.84.92-6.34.92-6.34s.5 5.35 1.83 7.35" stroke="#3f863f" stroke-width="1.02"/><path d="m391 346.64c.01 2.44-.81 7.97-1.72 8.7" stroke="#fff" stroke-width="1.02"/><path d="m401.71 364.33c-.78-1.49-.89-5.11-.89-5.11s-.27 4.33-1.3 6" stroke="#3f863f" stroke-width=".82"/><path d="m400.85 357.88c.05 2.01.85 6.42 1.61 7.01" stroke="#fff" stroke-width=".82"/><path d="m413.51 372.22c-.72-1.33-.82-4.61-.82-4.61s-.25 3.91-1.17 5.41" stroke="#3f863f" stroke-width=".74"/><path d="m412.73 366.45c.05 1.8.78 5.78 1.46 6.29" stroke="#fff" stroke-width=".74"/><g stroke-width="1.02"><path d="m408.74 367.23c.92-1.88.92-6.34.92-6.34s.51 5.34 1.83 7.34" stroke="#3f863f"/><path d="m409.54 359.23c.02 2.47-.8 8-1.71 8.73" stroke="#fff"/><path d="m414.69 356.22c-.97-1.8-1.11-6.3-1.11-6.3s-.34 5.36-1.6 7.4" stroke="#3f863f"/><path d="m413.64 348.28c.06 2.47 1.06 7.93 1.99 8.65" stroke="#fff"/><path d="m393.01 364.59c.92-1.84.92-6.32.92-6.32s.5 5.35 1.83 7.35" stroke="#3f863f"/><path d="m393.82 356.62c.01 2.46-.81 7.97-1.72 8.7" stroke="#fff"/><path d="m418.85 363.54c-.98-1.82-1.11-6.3-1.11-6.3s-.33 5.33-1.6 7.37" stroke="#3f863f"/><path d="m417.79 355.59c.06 2.47 1.05 7.96 1.99 8.64" stroke="#fff"/><path d="m442.46 353.11c-.98-1.82-1.12-6.3-1.12-6.3s-.33 5.36-1.59 7.4" stroke="#3f863f"/><path d="m441.4 345.18c.06 2.46 1.07 7.94 2.01 8.64" stroke="#fff"/><path d="m419.97 345.76c.91-1.85.91-6.32.91-6.32s.51 5.33 1.83 7.33" stroke="#3f863f"/><path d="m420.77 337.79c.02 2.46-.8 7.97-1.71 8.7" stroke="#fff"/><path d="m439.84 364.9c.92-1.84.92-6.32.92-6.32s.5 5.35 1.83 7.35" stroke="#3f863f"/><path d="m440.65 356.96c.02 2.44-.8 7.94-1.72 8.7" stroke="#fff"/><path d="m454.48 348.23c.92-1.84.92-6.34.92-6.34s.51 5.35 1.83 7.37" stroke="#3f863f"/><path d="m455.29 340.12c.01 2.46-.81 7.97-1.72 8.7" stroke="#fff"/><path d="m428.27 367.56c-.97-1.82-1.11-6.3-1.11-6.3s-.34 5.36-1.6 7.39" stroke="#3f863f"/><path d="m427.21 359.63c.06 2.45 1.06 7.94 2 8.63" stroke="#fff"/><path d="m427.08 353.06c.92-1.85.92-6.32.92-6.32s.51 5.33 1.83 7.35" stroke="#3f863f"/><path d="m427.89 345.09c.02 2.46-.81 7.97-1.72 8.7" stroke="#fff"/></g><path d="m434.16 357.16c-.79-1.47-.9-5.11-.9-5.11s-.28 4.35-1.29 6.01" stroke="#3f863f" stroke-width=".82"/><path d="m433.3 350.73c.05 2.01.85 6.43 1.61 7.01" stroke="#fff" stroke-width=".82"/><path d="m412.33 343.3c.91-1.84.91-6.34.91-6.34s.52 5.35 1.83 7.35" stroke="#3f863f" stroke-width="1.02"/><path d="m413.13 335.33c.02 2.44-.8 7.97-1.72 8.7" stroke="#fff" stroke-width="1.02"/><path d="m446.9 353.67c.92-1.86.92-6.34.92-6.34s.51 5.34 1.83 7.34" stroke="#3f863f" stroke-width="1.02"/><path d="m447.71 345.7c.02 2.47-.81 7.98-1.72 8.71" stroke="#fff" stroke-width="1.02"/><path d="m435.39 369.29c-.97-1.84-1.11-6.31-1.11-6.31s-.34 5.35-1.6 7.39" stroke="#3f863f" stroke-width="1.02"/><path d="m434.34 361.33c.06 2.48 1.05 7.96 1.99 8.65" stroke="#fff" stroke-width="1.02"/><path d="m433.25 345.69c.74-1.49.74-5.13.74-5.13s.41 4.34 1.49 5.95" stroke="#3f863f" stroke-width=".82"/><path d="m433.9 339.24c.01 2-.65 6.45-1.4 7.04" stroke="#fff" stroke-width=".82"/><path d="m400.46 334.13c.92-1.87.91-6.35.91-6.35s.51 5.35 1.83 7.35" stroke="#3f863f" stroke-width="1.02"/><path d="m401.26 326.14c.02 2.46-.8 7.97-1.72 8.7" stroke="#fff" stroke-width="1.02"/><path d="m428.15 340.66c-.71-1.33-.81-4.61-.81-4.61s-.25 3.91-1.17 5.41" stroke="#3f863f" stroke-width=".74"/><path d="m427.38 334.88c.04 1.78.77 5.78 1.46 6.29" stroke="#fff" stroke-width=".74"/><path d="m448.92 342.34c-.87-1.65-1-5.68-1-5.68s-.3 4.82-1.43 6.65" stroke="#3f863f" stroke-width=".91"/><path d="m447.97 335.19c.06 2.21.95 7.15 1.8 7.78" stroke="#fff" stroke-width=".91"/><path d="m410.41 333.19c-.97-1.83-1.11-6.3-1.11-6.3s-.34 5.35-1.59 7.39" stroke="#3f863f" stroke-width="1.02"/><path d="m409.35 325.26c.07 2.45 1.06 7.93 2 8.64" stroke="#fff" stroke-width="1.02"/><path d="m391.64 332c-.98-1.83-1.11-6.3-1.11-6.3s-.35 5.35-1.6 7.39" stroke="#3f863f" stroke-width="1.02"/><path d="m390.57 324.06c.07 2.45 1.07 7.94 2.01 8.63" stroke="#fff" stroke-width="1.02"/><path d="m420.14 332.83c-.7-1.33-.81-4.61-.81-4.61s-.25 3.91-1.17 5.41" stroke="#3f863f" stroke-width=".74"/><path d="m435.11 336.16c.74-1.5.74-5.13.74-5.13s.42 4.31 1.49 5.95" stroke="#3f863f" stroke-width=".82"/><path d="m435.76 329.71c.01 1.99-.65 6.45-1.4 7.04" stroke="#fff" stroke-width=".82"/><path d="m441.43 340.22c-.98-1.82-1.11-6.3-1.11-6.3s-.34 5.35-1.6 7.39" stroke="#3f863f" stroke-width="1.02"/><path d="m440.38 332.29c.07 2.45 1.06 7.93 2 8.62" stroke="#fff" stroke-width="1.02"/><path d="m438.91 330.91c.83-1.66.83-5.68.83-5.68s.45 4.81 1.65 6.6" stroke="#3f863f" stroke-width="1.01"/><path d="m453.73 358.14c.82-1.66.82-5.71.82-5.71s.46 4.81 1.66 6.61" stroke="#3f863f" stroke-width=".91"/><path d="m454.46 350.95c.01 2.22-.73 7.19-1.55 7.83" stroke="#fff" stroke-width=".91"/><path d="m425.41 332.56c.91-1.86.91-6.33.91-6.33s.51 5.35 1.83 7.35" stroke="#3f863f" stroke-width="1.02"/><path d="m426.2 324.58c.02 2.47-.8 7.98-1.72 8.72" stroke="#fff" stroke-width="1.02"/><path d="m422.83 360.63c.74-1.51.74-5.13.74-5.13s.42 4.31 1.48 5.95" stroke="#3f863f" stroke-width=".82"/><path d="m423.48 354.16c.02 1.99-.64 6.45-1.39 7.04" stroke="#fff" stroke-width=".82"/><path d="m444.74 330.53c.67-1.35.67-4.61.67-4.61s.37 3.88 1.34 5.33" stroke="#3f863f" stroke-width=".74"/><path d="m433.34 330.18c-.79-1.47-.89-5.11-.89-5.11s-.27 4.33-1.3 6" stroke="#3f863f" stroke-width=".82"/><path d="m432.49 323.74c.05 2.01.85 6.45 1.62 7.03" stroke="#fff" stroke-width=".82"/><path d="m451.52 337.2c.74-1.49.74-5.13.74-5.13s.41 4.35 1.48 5.95" stroke="#3f863f" stroke-width=".82"/><path d="m452.16 330.76c.02 2-.64 6.45-1.39 7.05" stroke="#fff" stroke-width=".82"/><path d="m452.27 329.23c-.87-1.67-1-5.69-1-5.69s-.31 4.83-1.44 6.67" stroke="#3f863f" stroke-width=".91"/><path d="m451.33 322.06c.06 2.23.95 7.15 1.8 7.79" stroke="#fff" stroke-width=".91"/><path d="m460.35 333.27c.93-1.87.92-6.34.92-6.34s.51 5.34 1.84 7.34" stroke="#3f863f" stroke-width="1.02"/><path d="m461.16 325.28c.01 2.49-.81 8-1.72 8.73" stroke="#fff" stroke-width="1.02"/><path d="m468.44 351.11c-.97-1.82-1.11-6.3-1.11-6.3s-.34 5.36-1.6 7.4" stroke="#3f863f" stroke-width="1.02"/><path d="m467.38 343.18c.06 2.48 1.06 7.94 2 8.63" stroke="#fff" stroke-width="1.02"/><path d="m460.78 355.52c.82-1.65.83-5.68.83-5.68s.45 4.81 1.65 6.6" stroke="#3f863f" stroke-width=".91"/><path d="m461.51 348.35c.02 2.22-.72 7.17-1.56 7.84" stroke="#fff" stroke-width=".91"/><path d="m461.01 342.89c.82-1.68.82-5.71.82-5.71s.46 4.81 1.65 6.6" stroke="#3f863f" stroke-width=".91"/><path d="m461.74 335.7c.01 2.22-.73 7.2-1.56 7.86" stroke="#fff" stroke-width=".91"/><path d="m470.83 328.71c-.89-1.65-1-5.67-1-5.67s-.3 4.81-1.44 6.65" stroke="#228b22" stroke-width=".91"/><path d="m469.88 321.56c.05 2.23.95 7.15 1.8 7.79" stroke="#fff" stroke-width=".91"/><path d="m467.02 340.28c.93-1.87.92-6.34.92-6.34s.5 5.35 1.83 7.35" stroke="#3f863f" stroke-width="1.02"/><path d="m467.83 332.3c.02 2.45-.81 7.96-1.72 8.71" stroke="#fff" stroke-width="1.02"/><path d="m472.8 348.42c.74-1.49.75-5.13.75-5.13s.4 4.33 1.48 5.95" stroke="#3f863f" stroke-width=".82"/><path d="m473.46 341.97c.01 2-.65 6.45-1.39 7.04" stroke="#fff" stroke-width=".82"/><path d="m474.85 338.58c-.8-1.49-.9-5.11-.9-5.11s-.27 4.33-1.3 5.98" stroke="#3f863f" stroke-width=".82"/><path d="m473.98 332.13c.05 2.01.86 6.45 1.61 7.01" stroke="#fff" stroke-width=".82"/><path d="m476.99 327.99c.92-1.88.92-6.34.92-6.34-.01 0 .5 5.35 1.82 7.34" stroke="#228b22" stroke-width="1.01"/><path d="m477.79 319.99c.02 2.49-.8 8-1.72 8.73" stroke="#fff" stroke-width="1.02"/><path d="m484.91 337.84c.83-1.66.83-5.71.83-5.71s.45 4.81 1.65 6.61" stroke="#3f863f" stroke-width=".91"/><path d="m485.64 330.65c.02 2.22-.72 7.17-1.54 7.83" stroke="#fff" stroke-width=".91"/><path d="m479.96 339.36c-.87-1.65-1-5.68-1-5.68s-.31 4.82-1.43 6.65" stroke="#3f863f" stroke-width=".91"/><path d="m479.01 332.21c.06 2.23.95 7.15 1.8 7.78" stroke="#fff" stroke-width=".91"/><path d="m478.64 314.76c-.97-1.82-1.11-6.3-1.11-6.3s-.34 5.34-1.6 7.39" stroke="#3f863f" stroke-width="1.02"/><path d="m477.58 306.83c.07 2.45 1.06 7.93 2 8.63" stroke="#fff" stroke-width="1.02"/><path d="m483.37 327.83c.92-1.84.92-6.34.92-6.34s.51 5.35 1.83 7.37" stroke="#3f863f" stroke-width="1.02"/><path d="m484.17 319.86c.02 2.46-.81 7.97-1.72 8.7" stroke="#fff" stroke-width="1.02"/><path d="m497.91 325.71c.83-1.66.83-5.69.83-5.69s.46 4.79 1.65 6.6" stroke="#3f863f" stroke-width=".91"/><path d="m498.64 318.53c.02 2.22-.73 7.18-1.55 7.84" stroke="#fff" stroke-width=".91"/><path d="m492.53 323.88c-.87-1.65-1-5.67-1-5.67s-.29 4.81-1.43 6.67" stroke="#3f863f" stroke-width=".91"/><path d="m491.58 316.73c.06 2.23.95 7.15 1.8 7.79" stroke="#fff" stroke-width=".91"/><path d="m492.84 333.39c-.71-1.33-.81-4.61-.81-4.61s-.25 3.91-1.17 5.41" stroke="#3f863f" stroke-width=".74"/><path d="m492.07 327.59c.05 1.8.77 5.8 1.45 6.31" stroke="#fff" stroke-width=".74"/><path d="m483.09 313.97c.91-1.85.91-6.35.91-6.35s.51 5.35 1.83 7.35" stroke="#3f863f" stroke-width="1.02"/><path d="m483.89 306.01c.02 2.46-.8 7.97-1.72 8.7" stroke="#fff" stroke-width="1.02"/><path d="m488.73 312.34c.91-1.85.9-6.32.9-6.32s.52 5.33 1.84 7.33" stroke="#3f863f" stroke-width="1.02"/><path d="m489.53 304.37c.02 2.44-.8 7.97-1.72 8.7" stroke="#fff" stroke-width="1.02"/><path d="m496.99 315.55c-.88-1.65-1-5.7-1-5.7s-.31 4.84-1.45 6.68" stroke="#3f863f" stroke-width=".91"/><path d="m496.04 308.41c.05 2.21.95 7.15 1.8 7.77" stroke="#fff" stroke-width=".91"/><path d="m502.93 312.64c-.87-1.65-1-5.68-1-5.68s-.3 4.82-1.43 6.65" stroke="#3f863f" stroke-width=".91"/><path d="m501.98 305.5c.06 2.23.95 7.15 1.8 7.78" stroke="#fff" stroke-width=".91"/><path d="m506.16 314.02c.82-1.67.83-5.7.83-5.7s.46 4.79 1.65 6.6" stroke="#3f863f" stroke-width=".91"/><path d="m506.89 306.83c.02 2.22-.73 7.19-1.56 7.86" stroke="#fff" stroke-width=".91"/><path d="m512.72 311.92c-.8-1.47-.91-5.09-.91-5.09s-.27 4.33-1.3 5.98" stroke="#3f863f" stroke-width=".82"/><path d="m511.86 305.48c.05 2.01.86 6.45 1.61 7.03" stroke="#fff" stroke-width=".82"/><path d="m281.78 335.99c.92-1.88.92-6.34.92-6.34s.51 5.34 1.82 7.34" stroke="#3f863f" stroke-width="1.02"/><path d="m282.58 328c.02 2.47-.8 8-1.73 8.73" stroke="#fff" stroke-width="1.02"/><path d="m275.26 334.74c-.99-1.8-1.11-6.3-1.11-6.3s-.34 5.36-1.6 7.4" stroke="#3f863f" stroke-width="1.02"/><path d="m274.2 326.81c.06 2.47 1.06 7.93 1.99 8.65" stroke="#fff" stroke-width="1.02"/><path d="m270.3 330.91c-.78-1.49-.91-5.1-.91-5.1s-.27 4.33-1.28 5.97" stroke="#3f863f" stroke-width=".82"/><path d="m269.45 324.48c.06 1.98.85 6.44 1.62 7" stroke="#fff" stroke-width=".82"/><path d="m262.65 327.17c.91-1.84.9-6.32.9-6.32s.51 5.35 1.83 7.35" stroke="#3f863f" stroke-width="1.02"/><path d="m263.44 319.2c.02 2.46-.8 7.97-1.72 8.7" stroke="#fff" stroke-width="1.02"/><path d="m251.23 312.7c.91-1.85.9-6.32.9-6.32s.5 5.35 1.83 7.35" stroke="#3f863f" stroke-width="1.02"/><path d="m252.03 304.73c.02 2.46-.8 7.97-1.72 8.7" stroke="#fff" stroke-width="1.02"/><path d="m248.3 306.86c-.71-1.34-.82-4.59-.82-4.59s-.24 3.89-1.16 5.37" stroke="#3f863f" stroke-width=".74"/><path d="m247.54 301.06c.04 1.8.77 5.8 1.46 6.31" stroke="#fff" stroke-width=".74"/></g><g><g stroke-width="1.02"><g stroke="#000"><path d="m269.38 274.34c-.38 4.17-.23 9.46 1.64 13.99-3.33-2.99-10.03-7.52-18.13-9.44-3.78-3.66-7.7-17-6.29-21.77 7.2-.44 21.29 11.42 22.78 17.22z" fill="#3f863f"/><path d="m283 301.85c-6.54-4.27-12.54-5.51-27.15-5.14 2.22 8.18 24.48 17.96 28.19 17.28-.31-1.41-1.41-10.85-1.04-12.14z" fill="#3f863f"/><path d="m282.93 301.63c-18.93-8.4-13.86-35.66-10.51-38.83 9.35 5.15 10.15 17.22 11.33 20.43-.82 6.94-.96 13.11-.82 18.4z" fill="#3f863f"/><path d="m279.52 299.75c-4.52-3.27-7.27-7.22-8.43-11.27-5.58-5.04-14.18-10.12-25.16-10.5.21 8.89 7.63 17.15 12.01 18.72 7.12.01 14.47-.35 21.59 3.08z" fill="#3f863f"/><path d="m356.67 339.68c-3.11 3.44-13.74 14.3-32.29 6.17 2.75-3.2 5.05-3.58 6.76-3.79 5.94.6 13.96-1.77 18.56-5.51 2.3 1.19 6.3 2.98 6.97 3.13z" fill="#3f863f"/><path d="m356.16 328.29c-5.49-3.66-11.28-3.21-16.92-4.93-.61 11.15 17.01 15.56 18.54 16.84 1.85-.97 5.94-1.91 8.69-1.7-2.08-1.58-7.94-4.55-10.31-10.21z" fill="#3f863f"/><path d="m391.55 339.56c2.39-.07 9.65-1.77 11.73-.15 2.07 1.65 6.23 6.4 2.96 9.69-3.27 3.28-6.24-1.34-7.57-2.1-1.34-.74-5.63-5.21-23.15-1.81-7.65 1.49-7.66 6.43-16.42 8.2-6.4 1.3-7.21.08-14.55-.16 3.05-3.72 5.5-5.96 8.32-9.82 2.83-3.89 11.07-5.05 13.59-4.92-3.79-2.59-12.61-6.48-12.67-21.83 5.79 1.34 12.69 2.74 20.98 19-3.18-6.84-8.96-13.94-11.49-15.06-.57-.24.3-10.04 1.35-11.69 6.23 6.63 7.11 6.75 10.24 9.85 4.52 4.47 3.7 11.02 6.08 14.74 2.45 3.89 7.48 6.14 10.6 6.06z" fill="#3f863f"/><path d="m349.69 336.55c-2.45 2.01-13.59 8.87-26.65 3.65 7.21-9.1 11.73-9.25 19.46-8.78 1.78 1.78 4.52 4.02 7.19 5.13z" fill="#3f863f"/><path d="m284.03 313.99c-.82-.47-10.69.82-12.1 2.98.45 3.87 11.05 9.76 14.02 8.95-.52-3.27-2-10.5-1.92-11.93z" fill="#3f863f"/><path d="m404.37 343.15c1.04 1.48.56 4.96-2.16 3.32m.32.11c2.01.3 2.3-1.86 2-3.12" fill="none"/></g><path d="m404.54 342.31c3.18 6.06-1.64 5.97-3.05 3.68" fill="none" stroke="#3f863f"/></g><path d="m367.76 317.6c.89 3.01 6.57 9.61 7.76 13.81m-16.73-7.81c.89 1.81 6.86 8.72 10.45 11.43m-23.62-6.32c.89.89 7.47 6.3 13.75 8.1m-15.85-1.49c-2.69-.33-10.17-.01-14.36 3.3m18.84 2.68c-2.39.6-11.36 1.52-16.15 3.91m36.78-2.68c-7.17.58-10.48 6.59-16.45 7.79m-78.87-79.91c0 2.7.58 16.81 4.77 20.72m-28.38-28.82c1.79 6.89 12.54 12.3 13.44 16.51m14.01 39.93c1.8-.59 5.08-.89 7.18.9m-21.5-19.83c2.69.02 15.84 3.02 19.72 8.73m-31.68-25.53c3.29 1.18 14.95 8.1 17.63 13.53" fill="none" stroke="#000" stroke-width=".9"/></g><g><path d="m230.79 263.95c2.45.75 9.35.7 11.58-3.99.65-1.37.6-4.02 2.68-6.7s5.23-3.19 5.73-6.48c.9-5.96-5.79-5.16-7.11-8.5-1.13-2.82.3-3.65 3.27-4.33 1.93-.42 7.95 1.86 20.91 7.17 9.5 3.88 18.11 1.5 21.01-.44 3.29-2.19 6.31-8.49 11.96-13.54.96-.86 13.66-5.07 18.12-12.82 2.21-3.84 5.07-17.28-6.51-25.93-11.56-8.65-27.88-14.32-34.7-17.31-6.83-2.98-17.02-4.7-18.17-13.27-.52-3.8 2.74-5.32 5.43-5.23 3.55.17 8.21 1.48 11.03 1.75 2.08.22 9.15 1.11 10.26-5.52-.54-.59-.66-.76-1.19-1.63-.23 1.18-.82 3.63-5.57 3.33-5.69-.36-11.51-4.07-15.91-4.06-5.33 0-9.02 2.87-14.36 4.36-5.15 1.43-11.41 1.03-14.25 6.24-1.79 3.28-3.28 14.91 5.32 23.25 8.59 8.37 13.4 12.36 33.51 20 14.77 5.59 18.43 8.66 20.22 10.76 1.78 2.09 1.7 4.09 1 4.9-.89 1.04-5.42 2.01-16.84-2.91-10.29-4.43-18.54-5.09-23.29-5.08-4.75-.02-17.89 2.38-20.19 7-2.67 5.35-.6 6.55-.09 14.52.14 2.26-.49 5.36.73 8.13.89 2.01 3.03 4.38 4.59 5.05 4.67 2.01 2.88 4.34 1.4 6.12s-3.56 5.14-3.05 7.98c.75 4.23-7.52 7.18-7.52 7.18zm146.93-203.34c-5.13 1.95-6.1 1.18-7.87 2.59-2.9 2.31-5.29 4.84-5.95 3.8-.88-1.42 7.6-2.89 9.36-8.25 1.41-4.34-.51-5.15-1.54-12.25-1.6-10.95-6.9-12.82-10.76-11.63-3.86 1.21-14.26 6.34-31.18 12.21-11.9 4.13-31.09 6.2-34.45 12.2-1.33 2.4-5.36 12.26 8.3 22.07 3.11 2.24 4.07 2.84 11.94 5.44-4.78-.73-11.23-2.7-26.74-1.64-28.25 1.96-58.01 28.13-54.42 48.91.88 5.12 7.49 3.06 12.84 3.94 5.34.9 6.15 3.42 10.01 2.8 3.86-.6 4.52-6.43 8.39-7.02 3.86-.59 3.56 3.29 7.71 3.28 4.16.01 7.59-7 10.57-6.7-1.48-.6-1.79-.52-2.83-.66-2.65 2.1-6.01 2.9-8.09 1.7-2.07-1.18-2.72-3.05-5.77-3.04-1.78-.02-3.56.94-7.27 3.64 3.11-3.8 16.44-24.05 44.84-18.16 12.98 2.69 14.55-1.4 15.14-3.5.6-2.08-.59-5.5.01-11.08.49-4.54 3.28-7.76 2.38-10.75-.89-2.97-2.41-4.51-7.41-6.17-2.22-.75-2.01-1.82-1.05-2.64.98-.87 4.09-1 6.32-1.39 3.91-.64 23.31-5.41 36.31-13.59 6.72-4.23 10.55-8.74 10.85-6.08.21 1.85-9.73 3.17-9.45 7.57.12 1.87.26 4.8 5.72 5.21 3.93.31 6.34-2.48 9.05-4.83 3.25-2.85 4.51-3.68 5.04-5.98z" fill="#fff" stroke="#000" stroke-width=".82"/><path d="m276.62 173.94c-14.42-6.02-25.49-11.9-18.05-23.07-8.56 4.29-22.96 1.43-22.1 12.62 2.81 36.72 69.8 29.62 63.84 59.65 15.2-2.12 29-25.13 3.59-36.94-9.45-4.38-18.63-8.62-27.28-12.26zm39.83-83.5c2.59.64-.2 5.18-.95 9.54-.49 2.85 2.09 8.61-.25 9.91-7.96 4.4-40.84-12.78-59.51 24.39-2.14 4.26-6.06.01-9.49-.31-5.96-.58-10.43.58-8.8-4.33 14.05-42.46 58.47-44.21 79-39.2zm35.05-48.45c5.33-2.27 9.71-4.09 12.5-3.26 5.58 1.68 4.15 13.13 6.16 15.76-3.31-1.12-8.7 2.5-14.76 6.49-4.8 3.15-10.36 6.2-15.3 8.16-3.88 1.53-9.67 3.28-15.11 4.42-9.34 1.97-17.86 3.36-15.54 7.37-3.56-1.32-14.84-8.83-11.62-17.41 1.79-4.78 8.23-6.88 15.74-8.8 7.51-1.89 14.12-3.37 20.97-5.97 6.88-2.65 11.61-4.45 16.96-6.76zm-109.82 171.26c25.54-9.51 38.2 9.52 55.42 6.57.3 7.73-6.33 21.42-19.7 20.51-9.26-.61-31.73-17.45-39.07-3.77-.28-9.82-5.76-19.92 3.35-23.31z" fill="#be0a2f" stroke="#000" stroke-width=".82"/><path d="m247.03 218.31c-.47-.58-1-.83-1.77-.71-.8.11-1.61.79-1.49 1.69.12.78.96 1.09 1.63 1.25l.77.17c1.53.35 2.72 1 2.97 2.71.26 1.84-.97 3.38-2.79 3.64-1.64.24-3.1-.79-3.55-2.39l1.25-.45c.15 1.11 1.15 1.79 2.25 1.64 1.09-.15 1.74-1.19 1.58-2.26-.15-1.09-1.1-1.44-2.03-1.68l-.74-.19c-1.22-.34-2.37-.84-2.58-2.26-.24-1.64 1.06-2.85 2.6-3.06 1.12-.16 2.13.25 2.83 1.16z"/><path d="m255.85 226.54-1.28-.11.7-9.11-2.43-.18.09-1.16 6.14.47-.09 1.17-2.43-.18z"/><path d="m262.46 225.08-2 1.98-1.29-.49 8.36-8.28.81 11.76-1.29-.49-.19-2.82zm4.09-4.16-3.17 3.25 3.41 1.28z"/><path d="m273.57 231.97-1.21-.4 2.86-8.63-2.31-.77.38-1.11 5.82 1.94-.37 1.1-2.3-.77-2.85 8.63"/><path d="m281.92 223.85 5.47.67-.14 1.17-4.19-.53-.35 2.86 4.07.5-.14 1.17-4.08-.51-.47 3.86 4.2.52-.14 1.17-5.46-.67 1.24-10.2"/><path d="m305.45 210.69c-.45.44-.62.93-.45 1.56.17.69.82 1.3 1.56 1.12.67-.17.84-.91.91-1.49l.08-.67c.17-1.31.6-2.4 2.01-2.75 1.54-.39 2.94.51 3.33 2.04.35 1.37-.39 2.69-1.71 3.22l-.49-1.02c.93-.22 1.42-1.14 1.19-2.05s-1.16-1.36-2.05-1.13c-.91.23-1.12 1.06-1.24 1.87l-.09.64c-.17 1.08-.5 2.1-1.68 2.39-1.37.35-2.5-.65-2.82-1.94-.24-.95.02-1.84.72-2.51z"/><path d="m301.89 199.01c2.13-1.48 4.91-.92 6.36 1.15 1.44 2.08 1.01 4.89-1.11 6.39-2.06 1.44-4.93.9-6.36-1.15-1.44-2.06-.94-4.95 1.11-6.39zm.63.89c-1.58 1.11-2.08 3.22-.91 4.9 1.18 1.7 3.32 1.95 4.9.84 1.64-1.14 1.98-3.34.91-4.9-1.09-1.55-3.27-1.98-4.9-.84"/><path d="m298.72 193.87-5.98 3.56-.95-.72 8.6-5.01-2.58 9.64-.95-.73z"/><path d="m290.32 195.96-4.1-2.3.48-.86 3.15 1.76 1.19-2.15-3.06-1.71.48-.87 3.06 1.7 1.6-2.9-3.14-1.75.48-.87 4.1 2.28z"/><path d="m282.52 182.3 1.21.53.83 4.45.42.18 1.51-3.38.99.45-3.58 7.99-1.2-.54c-.71-.32-1.46-.68-1.93-1.33-.5-.68-.53-1.61-.19-2.37.51-1.14 1.7-1.76 2.92-1.38zm2.08 5.99-.32-.15c-1.02-.46-2.2-.77-2.77.51-.56 1.25.54 1.96 1.53 2.4l.27.12z"/><path d="m277.11 189.57-4.34-1.8.38-.91 3.33 1.37.93-2.26-3.23-1.34.37-.92 3.24 1.33 1.25-3.05-3.33-1.38.38-.93 4.34 1.8-3.32 8.1"/><path d="m272.59 178.22 1.01.41-3.35 8.1-1.01-.41z"/><path d="m260.75 177.82.14-.32c1-2.2 3.3-3.18 5.53-2.16 2.23 1.01 3.15 3.76 2.15 5.97-1.03 2.29-3.73 3.35-6.02 2.3-1.24-.56-2.21-1.67-2.54-3.01l.99-.35c.21 1.03.94 2 1.92 2.44 1.78.81 3.83-.01 4.64-1.8.76-1.68.1-3.88-1.62-4.67-1.23-.56-3.04-.1-3.67 1.18l2.05.94-.4.91z"/><path d="m255.53 180.46-1.54-9.42-3.65 5.36-.9-.62 5.15-7.54 1.53 9.42 3.69-5.4.9.62z"/><path d="m251.49 164.97.67.87-6.14 4.76 1.27 1.65-.79.61-3.21-4.17.79-.6 1.27 1.65z"/><path d="m241.68 165.94-.46-1.17 2.69-3.38-4.26-.63-.46-1.17 5.64.86 3.54-1.4.4 1.02-3.54 1.38z"/><path d="m241.81 126.09 9.88-1.53-5.57-3.9.66-.93 7.85 5.49-9.88 1.52 5.61 3.94-.65.94z"/><path d="m256.04 119.73.87 2.38-.88.87-3.58-9.92 9.84 3.77-.88.85-2.36-.9zm-1.84-4.87 1.44 3.79 2.33-2.3z"/><path d="m265.82 114.16-.91.71-4.92-6.51-1.73 1.33-.63-.84 4.38-3.33.63.84-1.73 1.31z"/><path d="m271.14 110.6-.98.59-4.77-7.86.98-.6z"/><path d="m280.92 100.88c1.05 2.51-.14 5.26-2.58 6.3-2.44 1.03-5.23-.04-6.28-2.57-1.02-2.43.16-5.26 2.58-6.28 2.42-1.03 5.26.12 6.28 2.55zm-1.05.45c-.78-1.88-2.83-2.85-4.82-2.01s-2.72 2.98-1.94 4.85c.81 1.94 2.98 2.78 4.82 2.02 1.83-.78 2.75-2.94 1.94-4.86"/><path d="m283.79 94.83 8.09 5.9-1.22-6.71 1.13-.2 1.72 9.44-8.09-5.89 1.23 6.76-1.13.22z"/><path d="m298.35 100.38-1.1 2.28-1.23-.02 4.6-9.53 4.18 9.72-1.23-.02-1-2.35zm2.22-4.75-1.72 3.71 3.27.07-1.55-3.76"/><path d="m308.91 102.5 2.76.47-.18 1.04-3.89-.67 1.57-9.1 1.13.19z"/><path d="m306.21 62.55 1.34 5.74c.36 1.59 1.19 2.96 3.05 2.52 1.87-.43 2-2.01 1.63-3.6l-1.33-5.74 1.2-.29 1.43 6.15c.5 2.16-.44 4.1-2.67 4.63-2.22.52-3.93-.81-4.43-2.96l-1.42-6.16 1.21-.27"/><path d="m316.86 59.53 9.26 5.61-1.93-7.12 1.2-.32 2.71 10.03-9.26-5.63 1.94 7.19-1.2.34z"/><path d="m334.47 65.28-1.18.4-3.07-9.5 1.18-.39z"/><path d="m346.88 53.98c1.43 2.6.47 5.68-2.04 7.06-2.52 1.41-5.64.58-7.06-2.01-1.38-2.49-.44-5.69 2.04-7.06 2.49-1.4 5.68-.49 7.06 2.01zm-1.08.6c-1.06-1.92-3.38-2.74-5.42-1.6-2.04 1.13-2.59 3.52-1.53 5.45 1.1 2 3.54 2.65 5.42 1.6 1.88-1.03 2.63-3.46 1.53-5.45"/><path d="m348.41 46.91 10.2 3.6-3.33-6.57 1.1-.56 4.68 9.25-10.19-3.6 3.36 6.63-1.1.57z"/><path d="m288.53 206.82c10.69 5.36 8.28 14.47 8.42 16.13" fill="none" stroke="#000" stroke-width="1.07"/></g><g><path d="m397.14 225.42c4.35 4.37 5.69 11.88 5.81 13.67.16 2.81.58 8.35-3.57 8.94s-7.05-.53-8.68-1.57c0-1.2-1.24-2.89-1.9-3.1-1.36-.4-1.58-.7-2.78.01-.3.34-3.18-.2-3.92-1.15-2.66-3.49-3.01-15.54-10.89-22.24-4.74-4.02-5.86-5.51-19.57-11.61-27.49-12.27-44.6-44.43-46.34-46.84-2.23-3.06-6.14-7.05-8.83-7.75-12.54-3.29-12.69-9.1-13.06-12.53 3.12 5.15 15.44 9.26 14.84 6.56-.42-1.9-2.04-4.93-7.12-8.34-4.44-3-4.74-7.91-6.52-8.79-1.78-.89-4.01-1.5-7.27-.76 5.65-11.93 19.6-4.3 19.6-4.3 3.56 3.57 6.91 7.37 9.05 8.95 2.38 1.73 3.75 4.2 14.1 6.7 13.93 2.23 23.81 4.57 27.52 5.39 1.14-2.14 1.43-17.59-.94-21.16-2.37-3.58-5.63-5.97-7.41-13.73-1.77-7.74-4.14-14.89-7.11-22.05-2.95-7.15 2.39-13.12 11.89-13.99 25.42-2.39 38.42 13.89 40.81 15.36" fill="#785a3c" stroke="#000" stroke-width="1.07"/><path d="m397 226.72 32.64-25.95-38.31-26.84z" fill="#785a3c"/><path d="m428.76 200.29c14.72 16.63 28.81 49.69 29.37 54.04-.15 5.95-3.63 3.36-5.41 2.01-.07 2.76-3.94 2.74-5.87.36-.89 3.59-5.05 2.47-7.42-.59.75 3.13-4.67 3.35-6.82-.02.58 2.18-3.5 1.26-4.74-.6-.01 1.2.21 3.06-3.27.6-3.85-5.67-28.68-31.89-27.46-30.67" fill="#d2b78c" stroke="#000" stroke-width="1.07"/><path d="m403.43 222.83s8.73 9.24 9.93 10.67c1.2 1.44 3.29 4.73 1.34 6.29-2.24 1.8-6.43-2.1-6.88-2.54-.75-.77-14.56-16-14.56-16s17.47 20.58 20.76 18.03c3.45-2.67-10.3-16.14-10.59-16.45"/><path d="m427.85 255.53c0-4.31-11.06-18.36-13.75-21.2m18.51 21.78c-1.03-7.66-10.8-21.4-13.56-24.86m20.37 24.88c-.82-5.33-8.8-21.72-12.68-26.52m20.11 27.11c-.55-3.63-10.61-24.41-15.02-29.51m21.05 29.14c.39-5.27-5.81-18.41-20.59-39.19" fill="none" stroke="#000" stroke-width="1.14"/><path d="m428.85 254.79c0-4.34-11.12-18.46-13.83-21.32m18.61 21.9c-1.03-7.7-10.86-21.52-13.64-25.01m20.5 25.03c-.82-5.36-8.85-21.84-12.75-26.68m20.22 27.28c-.55-3.65-10.67-24.55-15.11-29.68m21.17 29.3c.39-5.3-5.84-18.51-20.71-39.42" fill="none" stroke="#fff" stroke-width="1.15"/><path d="m424.08 205.81c.4.51 12.61 17.32 14.48 20.42 1.49 2.47 1.72 5.17.23 6.08-1.5.91-3.59-1.27-5.16-2.92-1.57-1.64-14.71-19.9-15.91-21.39-1.19-1.51 12.03 16.13 13.6 18.53 1.06 1.66 1.77 3.82.89 4.88-1.04 1.28-3.73.23-4.64-.81-.89-1.06-10.3-12.7-10.45-12.99-.15-.3 8.22 9.97 9.19 11.49 1.04 1.63 1.34 4.28-.75 5.7-.87.59-2.66-.44-4.75-2.21-4.55-3.83-9.51-11.09-11.83-13.04 2.54 2.27 6.36 7.36 8.82 10.13 2.49 2.81 2.91 5.26 1.26 6.32-1.64 1.05-3.66-.38-5.23-2.1-1.57-1.73-9.26-9.76-10.31-10.98-1.05-1.19 9.01 9.59 9.93 10.67" fill="none" stroke="#000" stroke-width="1.14"/><path d="m305.73 160.23 6 10.02 4.44 6.68v-8.24l7.11 1.34-2-8.46 8.66 1.11-4-6.24 7.11 1.34-4.22-7.13 7.99 2.01-5.77-6.91 9.77.45-13.1-2.67-8.44-1.34z" fill="#d2b78c"/><path d="m286.57 144.39c-.67-1.26.22-.67-1.19-2.61 4.22 2.32 6.76-.8 10.53 1.88.97 1.11 2.75 3.79 2.16 4.61-.9 1.57-8.39-1.42-11.5-3.88z" fill="#be0a2f" stroke="#000" stroke-width="1.02"/><path d="m305.35 161.61c-2.23-3.06-6.14-7.04-8.83-7.75-12.54-3.29-12.69-9.1-13.06-12.53 3.12 5.15 15.44 9.26 14.84 6.56-.42-1.9-2.04-4.94-7.12-8.34-4.44-3-4.74-7.91-6.52-8.79-1.78-.89-4.01-1.5-7.27-.76 5.65-11.93 19.6-4.3 19.6-4.3 3.56 3.57 6.91 7.37 9.05 8.95 2.38 1.73 3.75 4.2 14.1 6.7" fill="#fff" stroke="#000" stroke-width="1.07"/><path d="m297.21 126.54s-1.37 6.69 1.2 11.01 3.44 7.44 3.55 9.61c.23 4.35-2.1 7.08-4.79 6.38-12.54-3.29-12.4-7.79-13.49-11.94 2.98 5.87 14.36 9.29 15.27 7 .48-1.2-2.04-5.52-7.12-8.92-4.44-3-4.3-6.31-5.94-8.5-1.78-1.48-4.01-2.09-7.56-1.92 6.68-10.49 18.88-2.72 18.88-2.72z" fill="#ffb316"/><path d="m296.9 125.61c14.1-4.46 19.29 12.38 30.12 12.4-2.53 2.37-7.93 2.36-13.66 1.18-5.79-1.21-16.46-13.58-16.46-13.58z" fill="#fff" stroke="#000" stroke-width="1.07"/><path d="m304.01 139.04c2.22 1.79 8.31-.14 8.31-.14-5.33-2.54-9.63-7.31-9.63-7.31-1.79 4.62.02 6.39 1.32 7.45z" fill="#fff" stroke="#000" stroke-width=".82"/><path d="m305.27 137.22c1.13.93 4.25-.06 4.25-.06-2.72-1.3-4.93-3.74-4.93-3.74-1.45 1.52.01 3.27.68 3.83"/><g stroke="#000"><path d="m353.08 209.04c-3.41.56-4.02 17.57 2.94 21.98.3-1.33 2.23-1.25 3.94.74.59.73.57 2.31.21 2.53.92 2.55 3.27 3.52 6.6 3.74 4.75.3 10.02-3.87 10.32-9.54-1.78-4.78-4.93-7.61-7.42-9.75-5.25-4.57-12.67-8.07-16.61-9.71z" fill="#785a3c" stroke-width="1.07"/><path d="m360.48 233.42c0 2.09-4.75 3.27-1.49 6.86 3.26 3.56 2.97 3.28 5.04 4.17 2.08.9 6.24-.3 5.64 3.29-.6 3.56-5.5 2.53-7.13-.16-.78-1.27-2.97-3.87-5.94-3.13-2.57.65-2.97 1.18-4.16 3.88-1.19 2.67-2.09 4.45-4.46 2.97-2.37-1.5-.88-2.99.6-4.47 1.48-1.5 2.37-2.08 2.07-3.58-.29-1.48-3.55-1.78-5.92-1.19s-4.16-2.08-2.97-3.58c1.19-1.48 4.75-1.18 6.24 0 1.47 1.19 5.03 2.69 6.52 2.09 1.48-.58 1.19-7.45 1.49-9.53.32-2.11 4.47-.17 4.47 2.38z" fill="#ffb30f" stroke-width="1.07"/><path d="m390.45 245.45c1.27 3.39-4.09 7.43-.83 11.01 3.26 3.59 6.66 2.35 8.9 2.09 1.34-.13 6.24-.28 5.64 3.29-.47 2.83-5.76 1.74-10.39-.01-1.39-.52-4.6-1.77-6.97-.61-2.38 1.19-2.75 2.32-3.27 5.67-.45 2.9-2.75 4.31-5.12 2.81-2.37-1.49-1.49-2.97 0-4.47 1.49-1.47 2.01-4.02 1.71-5.51s-3.56-1.78-5.94-1.19c-2.37.57-4.15-2.08-2.96-3.58 1.19-1.48 4.75-1.19 6.23 0 1.49 1.19 5.05 2.69 6.54 2.09 1.47-.59 1.71-11.59 2-13.68 1.27-.84 3.58-.31 4.46 2.07z" fill="#ffb30f" stroke-width="1.07"/></g><path d="m362.91 218.23c1.95.75 5.99 4.95 6.88 8.55"/><path d="m362.16 224.55c1.5 1.18 3.13 3.74 3.88 5.99"/><path d="m355.44 222.13c.3 1.35 0 2.56 1.94 4.49"/><path d="m384.06 236.18c.14 3.15 4.71 3.91 5 5.48"/><path d="m380.7 227.03c2.01.07 5.08.89 6.05 4.35-1.5-2.84-5.3-4.22-6.05-4.35"/><path d="m398.49 244.69c-2.5-8.65-6.92-9.91-6.6-8.6 2.48 2.32 2.54 1.9 3.51 3.33 2.04 2.99 2.65 6.01 3.09 5.27"/><path d="m399.89 243.47c-.43-3.28-2.01-2.8-1.9-1.81.38.42.86.93 1.09 1.41.18.42.44.89.81.4"/><path d="m404.17 260.66c2.46-.16 3.49 2.43 3.04 3.94-1.11-2.45-2.97-2.02-3.56-1.64-.01-.01.97-1.28.52-2.3"/><path d="m371.07 255.27c-2.42-.38-3.71 2.1-3.41 3.63 1.34-2.35 3.16-1.72 3.7-1.28 0 0-.83-1.36-.29-2.35"/><path d="m369.75 247.34c2.41.44 2.81 3.2 2.03 4.55-.5-2.64-2.41-2.66-3.08-2.43.01 0 1.25-1.02 1.05-2.12"/><path d="m341.52 239.1c-2.46-.02-3.36 2.64-2.84 4.1.98-2.51 2.86-2.18 3.48-1.83 0 .01-1.04-1.19-.64-2.27"/><path d="m347.11 250.55c-.9 1.57-.68 3.41-.49 4.23 1.66-2.69 2.21-2.77 2.87-2.96 0 0-1.65-.24-2.38-1.27"/><path d="m378.21 268.96c-.9 1.57-.68 3.41-.5 4.23 1.66-2.69 2.21-2.77 2.87-2.96.01 0-1.64-.24-2.37-1.27"/><path d="m377.35 218.38c-.3 1.42 1.94 1.5 2.09 3.3"/><path d="m366.44 216.2c7 2.95 8.11-3.19 6.65-4.12l-.23-.15c2.32.91 2.01 10.22-6.42 4.27"/><path d="m323.76 157.84c-2.92 1.25-4.73-2.65-3.65-5.08-3.86 2.87 1.28 8.14 4.43 6.49 3.83-2.02 2.11-8.06-2.29-6.05 2.9-.14 4.24 3.46 1.51 4.64"/><path d="m319.2 163.04c-2.05 1.71-3.85-.47-3.89-2.53-1.6 2.8 2.43 5.46 4.74 3.62 2.67-2.16.92-7.87-4.04-5.34 4.19-.07 4.86 2.85 3.19 4.25"/><path d="m312.62 169.01c-2.67.16-3.48-1.55-2.45-3.46-2.15 1.67-.49 4.96 2.49 4.84 3.62-.14 4.48-3.99 1.53-5.87 1.68 2.64 1.2 4.33-1.57 4.49"/><path d="m334.03 156.93c-1.46-.34-2.47-1.99-1.55-3.56-2.98 2.52.14 4.66 1.41 4.96 3.2.7 5.64-3.21 1.84-5.81 1.73 2.47.91 5.05-1.7 4.41"/><path d="m319.27 175.78c-.64 2.1-3.29.85-3.81-.94-.59 3.3 3.99 3.64 4.76 1.3.93-2.84-1.44-4.54-3.66-2.77 1.99-.5 3.39.23 2.71 2.41"/><path d="m326.54 180.71c-.26 2.66-4.15 1.85-5.37-.13.17 4.08 6.39 3.26 6.74.31.43-3.62-4.77-6.44-6.61-.94 3.04-3.1 5.52-2.03 5.24.76"/><path d="m331.03 174.85c-.26 2.69-4.15 1.85-5.37-.13.16 4.08 6.38 3.28 6.73.33.43-3.64-4.77-6.44-6.61-.95 3.05-3.1 5.53-2.02 5.25.75"/><path d="m342.32 159.45c-2.44-1.09-.43-4.54 1.82-5.08-3.9-1.12-5.12 5.05-2.43 6.3 3.3 1.56 7.59-2.48 2.99-6 1.97 3.88.16 5.92-2.38 4.78"/><path d="m350.41 153.46c-.26 2.69-3.21 1.8-3.86.55.96 3.18 4.89 2.6 5.24-.35.43-3.61-4.76-6.44-6.61-.95 3.03-3.09 5.51-2.01 5.23.75"/><path d="m320.15 144.42c1.05.53 1.42 3.46.67 4.22-.75.74-2.32 1.87-2.31.73 1.04-.81 1.12-1.04 1.64-1.88.52-.82.3-2.01 0-3.07"/><path d="m316.32 154.47c1.02-.81 1.12-3.11-.14-4.59-1.27-1.46-3.41-1.56-4.44-.74-1.02.82-.82 2.66.45 4.14 1.26 1.48 3.11 2.01 4.13 1.19"/><path d="m315.31 153.58c.73-.57.92-2.36.02-3.39-.89-1.03-2.51-.95-3.24-.36-.74.59-.61 1.89.28 2.95.89 1.03 2.21 1.39 2.94.8" fill="#d2b78c"/><path d="m311.63 156.89c-1.38 1.27-3.04-.6-3.81-2.06.31 2.75 2.7 4.22 4.4 3.05 2.09-1.42 1.69-4.17-1.27-5.81 2.14 2.32 2.25 3.4.68 4.82"/><path d="m308.84 161.52c1.02-.8 1.27-2.67.01-4.15-1.27-1.46-3.57-2.01-4.59-1.19s-.82 2.68.44 4.16c1.26 1.46 3.12 1.99 4.14 1.18"/><path d="m307.84 160.62c.73-.57 1.05-1.89.17-2.92-.9-1.04-2.65-1.42-3.4-.81-.74.59-.61 1.89.28 2.95.89 1.03 2.2 1.39 2.95.78" fill="#d2b78c"/><path d="m326.82 151.04c-1.66-.77-1.61-3.26.7-3.39-3.48-1.27-3.96 2.73-1.52 4.5 2.95 2.13 8.58-.3 4.79-3.76 1.77 3.46-1.44 3.79-3.97 2.65"/><path d="m330.65 157.24c-.61-.05-1.19.09-1.66.47-1.02.79-.82 2.65.45 4.13 1.26 1.48 3.12 2.02 4.14 1.2s1.27-2.66 0-4.14c-.8-.94-1.91-1.57-2.93-1.66zm-.14.89c.78.05 1.68.43 2.24 1.07.89 1.03.57 2.35-.17 2.95-.73.57-2.06.22-2.95-.82-.9-1.03-1.02-2.36-.29-2.93.28-.21.7-.3 1.17-.27z"/><path d="m327.2 161.73c-.69.03-1.32.24-1.76.59-1.77 1.41.03 4.23.52 4.8 1.47 1.69 3.61 2.32 4.79 1.38 1.18-.93 1.3-3.62-.17-5.3-.92-1.09-2.23-1.53-3.38-1.47zm.47.89c.7.04 1.43.32 1.94.91 1.03 1.2 1.43 3.48.57 4.16-.85.68-2.98.02-4.01-1.18-1.03-1.19-1.17-2.72-.32-3.4.43-.34 1.11-.53 1.82-.49z"/><path d="m337.9 146.7c-1.38.11-2.68.79-3.2 1.57-.83 1.28.05 3.25 1.98 4.42 2.31 1.38 4.18 1.02 4.99-.22.83-1.25.56-4.12-1.37-5.28-.72-.43-1.57-.56-2.4-.49zm.46.83c.41.01.8.1 1.14.31 1.36.83 1.99 3.17 1.39 4.06-.6.91-2.82.96-4.18.16-1.35-.84-1.97-2.24-1.37-3.14.45-.7 1.8-1.42 3.02-1.39z"/><path d="m363.38 202.16c2.91-.75 5.16 1.28 4.71 3.91-.45 2.64-4.49 3.22-5.99 1.51 2.32.44 3.67.45 4.63-1.35.98-1.8-.8-3.39-3.35-4.07"/><path d="m364.38 192.35c.92.85 1.77 2.84-.25 3.29-1.86.42-3.53-1.11-2.53-3.04.42 1.11.5 2.47 2.02 2.29 1.34-.17.76-2.54.76-2.54"/><path d="m356.11 195.52c-.52-.59 3.01-2.84 5.23-.68 2.23 2.16.43 5.51-1.81 5.27.86-.76 2.49-1.99 1.38-3.9-1.14-1.95-3.61-1.19-4.8-.69"/><path d="m354.41 199.12c2.41-1.02 8.01 2.69 3.88 6.35-4.13 3.64-7.85-1.47-7.84-3.51 1.62 1.96 4.96 4.45 6.87 2.53 1.79-1.78.66-3.73-2.91-5.37"/><path d="m363.57 166.29c1.14-.36 3.44.32 3.21 2.34-.22 2.02-1.72 3.21-3.51 2.69-1.8-.51 2.32.3 2.25-2.62-.09-2.93-2.4-2.26-1.95-2.41"/><path d="m359.74 174.43c.52-1.69 5.25-3.95 6.98.05 1.71 3.99-1.3 5.77-4.76 3.52 2.71.92 5.27-.21 3.9-2.75-1.7-3.09-4.39-1.74-6.11-.79"/><path d="m351.05 171.2c-.96.04-1.94.5-2.58 2.05-1.28 3.09 2.86 4.8 4.14 5.12 1.27.32 3.9.54 5.08-1.49 1.69-2.93-2.84-4.97-4.23-5.25-.52-.1-1.45-.47-2.41-.43zm1.01 1.46c.47.03.87.13 1.11.17 2.37.39 4.23 1.94 3.07 3.3-1.17 1.4-3.27 1.3-3.91 1.07-.64-.2-3.72-1.82-2.65-3.43.65-.99 1.6-1.16 2.38-1.11z"/><path d="m355.5 187.32c-.65.02-1.31.33-1.75 1.38-.86 2.08 1.94 3.25 2.8 3.47s2.65.35 3.44-1c1.15-1.99-1.92-3.35-2.86-3.54-.36-.07-.98-.33-1.63-.31zm.36.99c.45-.04.87.07 1.08.1 1.6.27 2.86 1.3 2.07 2.24-.79.93-2.21.87-2.65.72-.43-.15-2.52-1.23-1.8-2.31.36-.54.85-.71 1.3-.75z"/><path d="m349.63 190.83c.56-.79 4.04-.39 4.86 1.88.73 1.97-.67 5.1-3.97 5.26 2.39-1.35 3.07-3.46 2.63-4.59-.64-1.59-1.87-2.18-3.52-2.55"/><path d="m342.53 195.86c2.23-.95 8.52 3.45 4.71 6.82-3.82 3.38-7.25-1.35-7.25-3.24 1.41 2.73 4.66 4.17 6.35 2.34 2.09-2.26.01-4.66-3.81-5.92"/><path d="m357.92 180.97c-.96.04-1.94.5-2.58 2.05-1.28 3.09 2.86 4.8 4.14 5.12 1.28.31 3.91.54 5.08-1.49 1.69-2.93-2.83-4.96-4.23-5.25-.52-.1-1.45-.47-2.41-.43zm1.02 1.45c.47.03.87.12 1.11.16 2.37.4 4.23 1.92 3.06 3.3-1.17 1.4-3.27 1.28-3.92 1.07-.63-.2-3.71-1.82-2.65-3.43.66-.98 1.62-1.14 2.4-1.1z"/><path d="m355.09 166.88c-.47.03-.96.34-1.28 1.39-.64 2.14 1.42 3.29 2.04 3.52.63.22 1.95.37 2.53-1.03.83-2-1.41-3.4-2.1-3.58-.25-.07-.71-.33-1.19-.3zm.55 1.15c.24-.03.42.05.58.09 1.18.29 2.03 1.17 1.44 2.12-.58.97-1.62.88-1.94.76-.31-.15-1.84-1.45-1.01-2.36.39-.42.69-.57.93-.61z"/><path d="m358.1 166.36c-.03-.61-.89-4.07 2.69-3.68 3.6.38-2.76-1.66-3.59.23-.81 1.86.98 4.64.9 3.45"/><path d="m360.42 160.14c.61-.93 1.95-3.11 5.61-1.21 2.02 1.07-.14-2.16-2.61-2.1-3.3.11-4.12 5.03-3 3.31"/><path d="m351.59 178.89c1.17-.5 4.71 3.02 2.46 5.41-2.24 2.4-7.09-.44-6.49-4.88.67 3.77 3.98 5.45 5.3 3.77 1.33-1.74-.07-3.32-1.27-4.3"/><path d="m348.89 189.61c2.17-.2 2.54-3.72.82-4.93-1.71-1.21-4.78-1.05-5.08 2 1.19-1.78 3.1-2.12 4.26-1.04 1.04.99 1.41 2.56-.02 3.97"/><path d="m340.37 194.35c2.07 1.65 5.38-1.08 4.9-3.6-.48-2.51-3.27-4.98-6.13-2.57 2.56-.56 4.5.79 4.59 2.71.09 1.74-.92 3.44-3.36 3.46"/><path d="m333.06 194.85c3.04.26 4-3.56 2.33-5.83-1.6-2.17-6.38-2.26-6.49 1.69 1.53-3.51 4.22-2.39 5.49-.73 1.16 1.52 1.42 3.84-1.33 4.87"/><path d="m331.18 182.34c1.41-.67 5.75.46 4.78 3.82-.97 3.38-4.11.3-4.49-1.51.75.92 3.21 3.01 3.52 1.12.42-2.59-1.72-3.21-3.81-3.43"/><path d="m337.88 180.94c1.49-.7 6.04.48 5.02 4.03-1.03 3.56-4.33.32-4.72-1.57.79.94 3.38 3.16 3.69 1.18.44-2.73-1.8-3.4-3.99-3.64"/><path d="m346.02 177.42c-.31 3.11-3.19 2.51-4.83 1.36 2.07 3.32 6 2.31 6.42-1.13.5-4.19-4.08-7.11-7.65-2.58 4.68-2.09 6.38-.85 6.06 2.35"/><path d="m346.53 169.53c.64 2.09-.08 3.32-2.81 2.65 2.64 2.66 5.6-.04 4.29-3.23-1.59-3.92-5.97-2.98-6.46.16 1.1-2.08 4.29-1.82 4.98.42"/><path d="m348.57 164.59c.79 1.16.52 2.38-.51 3.15.86.79 3.59-1.17 1.78-4.1-1.77-2.92-5.33-1.71-5.3.18 1.79-1.03 2.72-1.15 4.03.77"/><path d="m354.79 161.64c-.36 1.35-1.4 1.79-3.14 1.56.62 1.01 3.64 2.06 4.71-1.23 1.05-3.25-3.57-5.73-6.03-3.23 2.98-.51 5.08.63 4.46 2.9"/><path d="m355.09 154.34c.31-1.38 1.33-1.86 3.07-1.69-.65-1-3.72-1.91-4.63 1.41-.91 3.31 3.81 5.6 6.15 2.98-2.95.63-5.09-.42-4.59-2.7"/><path d="m335.95 174.15c-.47.03-.96.34-1.28 1.4-.63 2.13 1.42 3.28 2.06 3.51.63.24 1.94.37 2.52-1.01.85-2.02-1.41-3.41-2.1-3.6-.26-.08-.73-.33-1.2-.3zm.55 1.15c.24-.03.43.06.58.11 1.17.27 2.02 1.15 1.44 2.11-.57.95-1.62.87-1.94.72-.31-.13-1.83-1.42-1.01-2.33.39-.43.68-.58.93-.61z"/><path d="m334.86 167.6c-.55.03-1.11.39-1.48 1.61-.74 2.47 1.65 3.81 2.38 4.07.74.26 2.25.44 2.92-1.19.98-2.33-1.63-3.94-2.42-4.14-.32-.08-.86-.38-1.4-.35zm.63 1.35c.28-.04.49.06.67.11 1.36.32 2.34 1.35 1.67 2.46-.68 1.09-1.88 1.01-2.25.84-.37-.18-2.12-1.68-1.17-2.72.45-.48.8-.65 1.08-.69z"/><path d="m340.25 166.04c-2.28 1.88-3.97-.21-4.03-1.26-.69 2.76 2.54 4.22 4.87 2.35 2.85-2.27 1.93-6.72-2.53-5.86 3.25.72 3.82 2.99 1.69 4.77"/><path d="m324.64 169.59c-.23 2.44-2.19 2.44-3.89 2.15 2.22 2.24 4.77.73 5.06-1.97.37-3.33-3.51-4.79-5.02-1.93 2.18-1.28 4.09-.77 3.85 1.75"/><path d="m341 94.64c-.7 1.74-1.93 2.43-4.31 1.86 2.12 1.58 4.67.39 4.95-1.72.29-1.34-1.18-3.96-4.56-3.05 3.05.11 4.04 2.31 3.92 2.91"/><path d="m352.46 82.59c-1.11 2.47-5.94 2.69-9.27 1.9 3.23 2.42 9.55 2.32 10.59-1.37.44-2.04-.55-5.68-5.7-4.27 4.34.16 4.65 2.35 4.38 3.74"/><path d="m342.38 86.3c-1.01 2.19-2.73 2.73-6.05 1.93 3.23 2.42 6.51.76 7.05-1.73.44-2.02-.55-5.66-5.7-4.25 4.34.13 4.98 2.65 4.7 4.05"/><path d="m349.14 100.95c-.36-3.13-5.31-3.79-8.87-3.12 3.97-2.08 9.79-.44 9.89 3.16.11 3.62-3.05 6.29-7.74 3.76 4.24.83 7.08-.65 6.72-3.8"/><path d="m361.65 84.69c-.19 1.81-2.99 1.8-4.49 1.45 2.03 1.5 4.75.68 5.12-1.33.36-2-1.13-3.78-4.34-2.9 2.89.11 3.92.96 3.71 2.78"/><path d="m368.81 86.95c-.25 2.33-3.89 1.95-5.79 1.51.45.34-.52.45.03.66 2.65.99 6.12.51 6.54-2 .43-2.56-1.43-4.8-5.52-3.7 3.68.14 4.99 1.21 4.74 3.53"/><path d="m363.77 91.51c-.25 2.31-3.4 4.16-7.77 3.58 5.36 1.76 8.1-.86 8.56-3.41.47-2.55-2.58-5.12-6.67-4.03 3.67.12 6.13 1.54 5.88 3.86"/><path d="m365.69 94.38c4.01.06 6.36 1.89 4.63 3.78-1.73 1.88-5.34 1.25-5.97 1.18.95.86.86 2.13-.4 3.54-.83.92-2.2.94-3.77.4.94 1.02 1.66 2.03.78 3.77-1.18 2.38-5.81 1.43-6.43.72.16 1.33-.41 2.33-1.18 2.91-1.17.87-3.46 1.19-4.16.38 2.35-.21 3.39-.66 4.24-2.36.47-.92-.47-1.88-1.89-3.06 2.13 1.27 6.68 3 8.4.71.71-.92.55-2.99-4.16-4.88 2.28.79 6.26 1.69 7.54.41 1.26-1.27.08-3.33-3.76-4.34 3.06.71 8.86 2.21 9.73.23.72-1.62-.3-2.53-3.6-3.39"/><path d="m350.62 93.01c-1 2.18-6.04 2.49-9.35 1.03 3.39 2.93 9.8 1.68 10.35-.84.44-2.02-.55-5.66-5.7-4.25 4.34.13 4.97 2.68 4.7 4.06"/><path d="m351.14 121.24c-.21 2.66-3.92 2.61-6.11 2.11 2.96 2.22 7.25 1.03 7.48-1.94.31-3.98-4.63-6.22-9.34-4.92 4.23.13 8.27 1.07 7.97 4.75"/><path d="m355.88 129.87c-.22 2.67-3.92 2.66-6.13 2.13 2.96 2.22 7.26 1.05 7.49-1.93.31-3.98-4.63-6.23-9.35-4.95 4.24.14 8.28 1.08 7.99 4.75"/><path d="m360 138.15c-.21 2.4-3.37 2.46-5.36 2 2.67 1.99 6.18.88 6.76-1.74.71-3.24-2.02-5.14-6.22-3.6 4.02-.16 5.05.6 4.82 3.34"/><path d="m359.81 146.57c-.26 2.67-3.92 2.65-6.11 2.11 2.96 2.21 7.12 1.05 7.48-1.94.43-3.61-2.64-5.82-7.36-4.55 4.24.15 6.27 1.61 5.99 4.38"/><path d="m367.2 134.6c-2.74 1.94-5.91.57-6.67-1.7-.72-2.14 2.63-2.39 5.13-2.85-.5-.12.13-.41-.34-.48-3.34-.59-6.73.81-6.18 3.66.63 3.26 5.44 5 8.67 1.93-.45.22-.24-.81-.61-.56"/><path d="m364.5 125.43c-3.44 2.77-6.71.31-7.3-1.7-.56-1.88 2.52-3.14 4.77-3.01-.34-.07-.04-.41-.37-.44-2.94-.24-6.26 1.21-5.77 3.71.66 3.42 5.55 5.18 8.94 1.94-.25.11-.08-.66-.27-.5"/><path d="m360.01 115.43c.94 3.32-1.27 3.81-3.56 3.55-2.47-.27-3.26-1.45-2.1-2.65-.01-1.05-.34-.54-.53-.38-2.34 2.05.71 3.81 2.67 4.02 3.05.33 5.24-1.16 3.94-4.58.01.21-.48-.13-.42.04"/><path d="m348.53 112.67c-.22 2.67-3.34 1.94-5.8 1.8 2.78 1.97 6.94 1.26 7.17-1.7.31-4-4.25-5.68-8.97-4.38 4.24.13 7.88.6 7.6 4.28"/><path d="m377.48 94.97c-.05.34-1.92.94-1.92.94-1.58.35-2.91.03-3.59-.11.73.54 1.69.8 2.64.82l3.57-2c.36-1.99-2.23-3.93-5.45-3.05 2.9.1 5.11 1.05 4.75 3.4"/><path d="m370.05 151.81c-.22 2.21-3.25 2.18-5.06 1.75 2.45 1.83 5.9.86 6.19-1.59.35-3-2.18-4.84-6.08-3.76 3.5.1 5.17 1.31 4.95 3.6"/><path d="m336.96 144.33c16.83 3.11 25.05 6.87 32.51 11.91" fill="none" stroke="#000" stroke-width="1.08"/><path d="m367.52 159.63c5.65-7.57 3.43-17.73 2.7-21-.74-3.28-2.74-7.67-4.44-10.29-5.14-7.87-7.11-14.45-5.17-21.02 1.93-6.55 15.73-11.01 21.09-14 5.35-2.98 6.83-5.8 15.52-9.98 13.04-6.25 23.38-3.41 43.87-.42 20.48 3 56.39 19.72 65.28 25.4 8.9 5.67 3.19 8.94.3 8.34 5.43 2.06 8.18 6.6 8.06 9.57-.14 3.2-2.59 3.69-12.23.26 5.61 3.67 4.18 7.48-1.5 6.68-6.88-.34-19.06-4.62-22.25-6.68 2.79 3.47 2.89 5.75 1.05 7.53-4.37 2.04-8.93-.29-16.78-2.17 4.22 10.36-7.95 8.1-12.18 5.65 1.18 8.12-6.46 7.82-11.28 5.65 3.85 3.05 14.23 18.2 16.31 21.77 1.74 3.5 4.24 12.68-6.65 1.71-3.53-3.54-.46.27-6.87-7.75 6.22 7.72 3.56 3.87 7.33 8.64 8.07 10.23 8.49 12.37 6.46 14.4-3.1.45-6.82-3.16-21.74-20.46 18.87 23.39 9.07 21.28 7.44 20.54-1.75-.78-9.06-6.98-14.09-12.13l-.99-.95c1.2 1.57-1.05-.38 0 .96 1.31 1.7 2.19 4.49.23 6.46-1.11 1.11-3.4.83-4.34-.07-3.06-2.95-11.06-7.96-13.14-9.7 3.88 3.21 10.76 7.51 13.14 9.7 3.41 3.1 5.39 6.66 3.43 9.22-.97 1.26-4.18 1.14-6.35-.76-.55-.47-8.73-6.31-11.5-8.47 4.86 3.61 12.76 9.26 15.08 11.25 3.06 2.62 7.82 9.47 6.27 11.78-.24.37-.56.63-.91.81-2.13 1.09-5.92-.8-7.01-1.71-1.27-1.05-11.66-8.84-15.24-11.49 1.94 1.51 13.6 10.3 14.94 11.28 2.24 1.61 3.88 8.34 1.71 9.66-2.16 1.35-3.58.68-5.46-.22-1.86-.91-8.66-6.75-12.77-9.98 3.36 2.71 10.75 8.34 12.32 9.91.84.84 5.45 7.28 2.68 9.37-1.71 1.3-5.67.9-8.52-.97-1.4-.93-4.11-3.14-5.98-4.13" fill="#785a3c" stroke="#000" stroke-width="1.07"/><path d="m365.15 120.33c-1.24-2.67-.97-7.47-.33-9.63 1.94-6.57 15-10.72 20.35-13.71 5.36-2.98 6.84-5.82 15.53-9.99 13.04-6.24 23.53-4.15 44.01-1.16 11.21 1.66 27.24 7.05 40.59 13.21-13.88-5.64-27.93-10.97-40.86-12.64-14.32-1.84-28.6-5.98-43.4 1.13-9.03 4.36-11.54 7.77-15.58 10.03-4.03 2.23-18.16 8.23-19.52 13.35-1.35 5.1-.13 5.55.15 7.04.35 2.02.06 2.91-.94 2.37"/><path d="m389.41 191.21c2.69 2.19 8.66 4.74 9.86 2.49 1.2-2.23.68-3.9-3.35-6.61 3.21 2.11 10.09-.74 3.29-7.04 8.14 3.84 9.12-5.02 4.79-7.88 4.62 1.81 7.77-4.04 2.39-7.8 3.52.82 7.7-1.86 2.62-6.68 9.19 6.1 15.62 4.14 13.01-2.31 10.25.53 3.53-7.89-4.84-12.45 10.09 3.68 14.73-4.06 7.86-6.32 8.07.23 10.32-5.98 1.95-8.23 5.76.29 13.83-5.34 3.07-8.63 23.17 9.39 32.44 3.08 21.47-3.83 3.27.6 9.49-8.09-2.46-9.15 6.42 1.73 18.83-5.9 2.84-9.68 0 0-14.86-3.68-20.93-4.59.53.67 18.01 4.52 20.92 5.42 2.92.91 6.58 3 5.61 5.26-.97 2.24-4.57 3.53-9.49 2.61-4.93-.89-16.08-3.09-17.05-3.24 1.8.52 15.77 4.36 17.19 4.73 1.42.39 7.28 2.04 6.58 4.68-.83 3.06-3.89 2.92-6.06 2.77s-16.15-3.62-17.94-3.91c-1.79-.3 18.76 5.1 19.66 5.7.9.61 4.64 2.95 4.18 4.81-.45 1.88-7.7 2.1-11.58 1.13-3.89-.97-30.93-8.13-31.54-7.98 2.32.75 16.15 5.04 17.86 5.88 1.72.82 5.6 1.94 4.94 3.89-.68 1.97-5.99 3.59-8.08 3.22-2.09-.36-22.12-4.89-25.19-5.48 2.92.97 24 6.15 25.42 6.9 1.42.76 5.3 2.65 4.48 4.2-.83 1.58-3.07 2.86-6.58 2.18-3.52-.68-21.83-6.09-23.69-6.55 3.21 1.36 22.19 7.6 23.39 8.5 1.2.93 3.96 2.11 2.54 3.77-1.42 1.63-6.65 1.4-8.9.88-2.24-.51-18.45-5.56-20.25-6.09s17.16 6.94 18.82 7.82c3.59 1.89 11.21 8.35 9.42 9.68-2.47 1.85-5.3.45-5.83.22-.53-.21-21.36-9.31-22.34-9.91 2.62 1.14 22.12 10.75 23.16 11.96 1.04 1.17.66 3.67-.68 4.35-1.35.66-4.65-.06-8.6-2.11-4.33-2.26-15.76-6.24-18.91-6.24 2.92.68 13.46 4.88 15.7 6.69 1.86 1.49 2.76 3.53 1.78 4.35-.97.82-3.28 1.02-4.78.36-1.49-.68-8.52-4.2-13.37-5.56 3.44 1.64 11.52 5.97 13.15 7.13 2.09 1.52 3.65 4 2.91 5.34-.75 1.35-3.14 1.56-4.79.89-1.64-.68-17.26-7.67-18.9-8.33-1.65-.69 17.03 8.41 18.53 9.83 1.48 1.43 3.51 4.8 2.45 6.24-1.04 1.43-3.89 1.48-6.27.22-2.81-1.5-13.6-8.12-15.09-9.33 2.09 1.59 14.05 10.21 15.09 11.72 1.03 1.51 2.67 3.84 1.56 4.8-1.13.99-4.62.29-5.46-.39-.81-.65-13.81-9.45-15.16-10.26 3.07 2.75 14.05 11.84 15.32 12.89s4.26 3.99 2.91 4.96c-1.35.99-6.5-1.85-7.55-2.32-1.04-.45-3.2-1.03-3.65-1.35-.45-.29 3.65 2.94 2.15 4.13-1.44 1.18-1.49.68-3.13.92 1.64 1.19 6.13 5.09 3.58 7.05-2.53 1.93-7.69-1.66-8.06-2.41s2.24 3 .59 4.27c-1.65 1.28-4.33-.44-4.71-.82-.37-.37 2.54 1.81.82 3.61s-2.91-.37-3.37-.82c-.21.52-.08 2.17-1.65 2.17-1.12-.02-1.77-1.13-2.38-1.8.07.52.79 3.5 2.69 3.01 1.11-.29 1.72-1.05 1.71-1.66.67.75 2.84 1.35 3.66.53.82-.83.89-2.4.52-3.01 1.12.69 2.47.54 3.51-.06 1.05-.61.98-2.41.6-2.94 1.05 1.12 5.39 3 7.41.23 2.02-2.76-1.42-5.84-2.31-6.52.82.22 3.73-1.55.97-4.04"/><path d="m428.07 83.78c9.57.61 13.01 3 12.18 6.76-.58 2.63-3.89 2.7-5.68 2.4 2.68 1.64 2.3 3.6 2.08 5.56-.3 2.7-2.92 3.98-5.68 4.03 1.72.53 4.64 2.27 4.18 4.82-.56 3.2-2.84 3.61-4.04 3.59 1.58.6 4.11 1.73 3.22 5.19-.9 3.45-3.75 3.52-8.98 2.25 4.71 1.35 8.07-.97 8.08-2.64 0-1.65-1.04-3.75-3.13-4.05-2.1-.29-20.26-5.25-21.46-5.25 3.21.3 19.13 3.47 20.34 3.6 1.19.17 4.31-.6 4.56-2.1.45-2.69-1.94-4.19-3.88-4.65-1.94-.45-16.07-3.77-18.02-4.21 3.14.39 15.09 2.29 16.3 2.33 2.84.17 7.03-.67 7.17-2.98.09-1.39-.59-4.14-2.24-4.89-1.64-.75-11.5-3-16.44-2.71 6.36-.3 13.22.9 16.37 1.22 3.14.31 5.85-.59 6.06-1.94.38-2.56-2.24-5.41-10.97-6.32"/><path d="m482.86 96.71c17.04 7.65 30.25 13.76 28.16 17.95-1.12 2.24-3.32 1.83-4.36 1.99 6.3 1.99 9.06 8.53 7.57 11.22-1.42 2.57-10.76-1.14-11.74-1.4 2.16 1.1 5.67 4.47 2.09 6.43-3.59 1.95-22.65-4.07-25.84-6.43 1.48 1.31 3.12 4.31 1.78 6.71-2.34 4.15-15.26-.91-17.51-1.34.99 2.39 1.35 5.76-.82 6.89-3.59 1.85-8.59-.02-11.28-1.06.3 1.71.01 5.51-3.07 6.37-2.39.69-6.86.2-9.19-1.57-4.7-2.71-15.54-6.01-18.44-7.73 2.83.89 17.39 6.09 18.75 6.52 3.58 1.22 7.8 1.76 9.19.84 1.34-.89 2.02-4.71-.37-5.63-2.38-.88-22.48-8.41-24.44-9.01-1.93-.61 25.04 7.6 27.13 8.36 2.1.74 9.2 2.98 10.62 1.43 1.64-1.8 1.05-6-1.34-6.91s-28.61-9.85-31.46-10.9c3.73 1.05 34.05 10.45 36.01 10.98 1.13.3 12.19 3.61 13.83 2.26s1.05-4.71-1.94-6.52-23.24-9.55-27.12-10.75c9.49 2.99 26.62 8.59 30.41 10.01 2.84 1.03 18.15 6.44 21.15 6.31 5.01-.23 4.5-2.85-.37-5.41-3.14-1.65-41.16-16.09-51.18-19.55 8.15 2.41 47.01 15.63 52.46 17.59 4.6 1.66 10.52 3.77 11.21 1.91 1.73-4.74-6.04-8.64-9.03-9.86-2.99-1.18-22.42-9.32-52.91-19.24 16.89 2.86 52.01 17.81 54.41 18.19 1.63.26 5.68.42 4.86-2.47-.48-1.6-2.86-4.22-27.22-16.18"/><path d="m437.37 141.41c2.84.53 17.31 21.17 18.48 23.49 1.16 2.34 2.5 5.8 1 6.71-1.49.9-5.83-1.51-8.67-4.66 1.06.74 1.73 2.11 4.86 3.84 1.24.66 7.15 9.72 3.68 11.71-3.47 2.02-8.93-4.6-10.41-6.39-1.49-1.81-5.6-6.98-6.34-7.73-.75-.74 9.7 12.47 5.52 14.33-3.6 1.61-8.67-3.29-10.01-4.33-1.34-1.06-17.85-17.44-16.13-17.59.75-.59 15.16 14.95 17.25 16.6 2.1 1.65 5.45 5.03 7.85 4.28 2.4-.74-1.56-6.97-2.24-7.95-.67-.98-11.87-17.29-13.28-18.85 3.13 3.69 16.36 17.34 18.07 19.38 1.72 2.02 6.64 8.57 8.74 6.9 2.08-1.64-3.59-10.28-5-11.85-4.03-3.02-16.57-19.69-20.01-24.25 6.57 6.82 18.21 20.19 19.33 21.48 1.12 1.26 4.85 4.65 5.9 3.98 1.05-.69-1.05-5.55-1.85-6.61-.67-.91-13.14-17.79-16.72-22.44"/><path d="m400.63 98.1c2.31.83 8.49 2.11 7.31 6.29-.82 2.92-5.23 1.72-6.43 1.88 1.27.9 1.64 2.54.52 4.36-1.2 1.95-5.01 2.24-7.03 1.48 1.94 1.14 3.05 2.59 2.09 4.51-.89 1.79-2.92 1.66-4.41 1.65 1.58.81 3.9 2.24 2.61 5.02-.9 1.95-1.64 1.43-2.99 1.73 1.42.31 3.22 1.28 2.99 3.74-.17 1.89-1.05 2.71-2.84 3.16.9.44 2.09 2.26 1.71 4.43-.35 2.03-2.16 3.37-3.66 3.52.75.61 1.9.85 1.35 3.61-.38 1.88-1.65 2.41-3.14 2.56.97.52 2.43 1.73 1.94 4.49-.38 2.1-2.84 2.69-4.04 2.56-1.19-.17-5.67-.91-6.88-1.36 2.03-.21 5.54.15 7.04.15 1.49.01 2.48-.3 2.68-1.49.31-1.64-.59-3-1.49-3.44-.89-.45-3.28-1.51-5.08-1.96 2.17-.07 3.97.53 5.08.32 1.12-.24 2.69-.68 2.84-2.13.16-1.41.09-1.85-1.27-2.45-1.34-.59-3.35-1.14-6.05-1.73 2.24.15 4.63 0 5.98.01 1.35-.02 3.15-1.59 3.3-2.64.14-1.06.23-2.85-1.72-3.75-1.29-.59-6.21-.61-7.62-1.13 2.01-.6 6.65-.14 7.7-.3 1.04-.14 2.39-.66 2.76-2.47.21-1.03-.74-2.17-1.94-2.63-1.33-.49-6.81-1.94-8-2.69 1.95-.23 5.68.97 7.17.82 1.5-.15 2.83-.73 3-1.79.22-1.42-.9-2.62-2.39-3.38-1.49-.73-4.56-2.17-6.2-3.29 3.51.53 5.3 1.42 6.8 1.43 1.5-.01 3.37-.08 3.66-.99.3-.89.16-1.87-.89-2.76-1.05-.9-5.68-4.13-7.09-5.43 3.51 1.05 4.78 2.31 6.42 2.87 2.47.82 5.91.22 6.51-.99.59-1.19.74-2.31-.6-3.14-1-.6-6.8-2.86-8.74-3.98 4.18.82 6.35 1.73 8.3 2.18 1.25.28 6.27 1.05 6.95-.91.51-1.56-.68-3.22-6.21-5.94"/><path d="m408.26 95.61c-2.38-2.94-6.05-.6-3.37 2.79-.97-3.39.67-4.21 3.37-2.79"/><path d="m397.71 91.7c4.16 2.22 7.33-1.83 3.56-4.62-.24-.17-.23.47-.54.31 2.52 2.82 1.01 4.67-3.02 4.31"/><path d="m391.03 100.53c5.37 2.85 9.37-2.88 3.29-6.24 3.53 4.42 1.6 6.69-3.29 6.24"/><path d="m375.78 109c5.36 2.85 14.38-4.37 8.28-7.71 3.54 4.4-3.41 8.15-8.28 7.71"/><path d="m380.06 110.08c1.04 1.42 1.93 6.39-3.59 6.45 1.79 1.05 2.68 2.03 2.39 3.47-.46 2.16-2.21 2.03-3.74 2.54 3.88 1.35 7.77 1.88 3.51 6.67 5.01-2.54 2.63-5.78-.52-6.53.67-.38 3.37-3.15 1.27-5.78 1.73-.15 4.34-4.86.68-6.82"/><path d="m367.27 111.95c1.58 0 4.77 1.01 4.63 4.04-.07 1.66-.82 2.19-1.49 2.78.82.46 2.09 2.8.44 4.89.08-1.29.75-4.21-3.96-4.51 1.5-.68 2.47-.45 3.29-1.66.83-1.19.75-2.46.08-3.42-.69-1.03-2.99-2.12-2.99-2.12"/><path d="m370.56 126.28c2.54-.35 5.82-.51 4.99 4 2.17-.53 5.91 1.87 3.29 5.09 1.49.98 3.06 3.76.59 5.62 1.8 2.84 2.17 4.82.07 5.94.75 3 2.61 6.15-3.06 7.96 2.75-1.19 3.43-4.36 2.31-5.94-1.12-1.56-.89-1.42-2.54-2.17 2.09-.91 3.29-.38 3.29-3.09.01-.93-1.05-2.38-2.61-2.85 2.23-.67 2.31-1.35 2.09-2.93-.21-1.57-2-2.47-2.68-2.53.89-.39 2.99-1.73 1.86-3.23-1.27-1.7-3.51-.67-5.01-.38 1.12-1.2 1.64-3.01.97-3.69-.65-.67-3.05-1.87-3.56-1.8"/><path d="m373.66 160.59c1.35-.47 6.73.08 5.82 5.5-.89 5.39-.22-1.8-2.15-3.62-1.56-1.44-4.72-1.49-3.67-1.88"/><path d="m396.76 225.77c-4.28-4.82-5.09-5.94-5.09-5.94s.25.25 5.81 5.31z"/><path d="m381.3 215.47c3.15 1.13 5.01-.14 4.2-3.08 2.99 2.09 5.9 1.38 5.83-2.54 3.74 1.36 4.87-.45 4.12-3.6 7.23.69 5.74-4.79 3.51-6.9 2.24 2.1 2.99 6.75-4.26 6.08.74 3.13-.39 4.95-4.11 3.59.08 3.9-2.84 4.66-5.84 2.54.82 2.93-.3 5.03-3.45 3.91"/><path d="m399.41 220.37c-.31.81-1.81 2.01-5.1-.18 2.62.45 3.33.73 4.04-.67 1.19-2.39-3.21-5.48-3.21-5.48 1.36.52 5.68 2.78 4.27 6.33"/><path d="m404.65 212.18c-.99 1.27-2.56 1.88-5.39.15 2.61.43 3.63.42 4.33-.96 1.2-2.41-1.12-4.67-1.12-4.67 1.36.54 3.59 1.94 2.18 5.48"/><path d="m385.67 188.15c.59.05-1.88 1.05-1.13 2.1.75 1.06.45 1.27 1.27 1.42s-2.46.36-2.54-1.13c-.06-1.5.75-2.55 2.4-2.39"/><path d="m382 193.91c.15.76-1.8 5.86-6.73 1.88-3.83-3.11-.07-6.15 3.3-5.26-.75.23-5.16.6-2.1 4.28 2.31 2.77 5.16.15 5.53-.9"/><path d="m373.63 194.88c.68.98 2.04 3.25.45 4.97-.97 1.05-2.92.74-4.11.14 0 .81-3.43 4.33-5.31-.83.75.52 2.24 1.8 3.44 1.21 1.42-.7.9-2.11.68-2.63s2.88 2.46 4.48 1.13c1.71-1.42.37-3.99.37-3.99"/><path d="m370.52 163.88c-.19-1.1 7.02 2.19 5.07 5.95-1.94 3.74-6.21.59-6.73-.22-.51-.84 3.72 1.76 5.09.06 1.87-2.34-3.29-4.87-3.43-5.79"/><path d="m373.87 173.94c.97.46 3.59 5.55-2.1 6.09-5.68.52-3.35-5.78-2.53-6.3s-1.79 5.18 2.46 4.66c4.26-.53 2.17-4.45 2.17-4.45"/><path d="m367.67 179.37c-.9.03-1.83.46-2.43 1.9-1.2 2.93 2.7 4.54 3.9 4.83 1.21.3 4.21.82 5.31-1.1 1.59-2.76-3.19-4.96-4.5-5.21-.5-.1-1.38-.46-2.28-.42zm1.03 1.36c.44.02.82.12 1.04.16 2.23.37 4.51 2.12 3.4 3.42-1.1 1.3-3.61.9-4.21.7-.59-.22-3.5-1.71-2.5-3.21.64-.95 1.54-1.12 2.27-1.07z"/><path d="m370.72 186.33c1.57.53 4.55 6.75-2.33 6.61-6.88-.16-4.1-4.96-2.68-6.32.14.76-3.02 5.31 2.68 5.05 4.87-.24 2.48-4.36 2.33-5.34"/><path d="m377.03 183.55c-.63-.06-1.34.16-1.91 1.52-.89 2.16 1.43 3.21 2.32 3.44.9.23 2.69.46 3.51-.95 1.2-2.07-1.93-3.58-2.91-3.78-.27-.06-.63-.19-1.01-.23zm.72 1.08c.14.02.27.05.38.07v-.02c1.66.28 2.91 1.44 2.09 2.4-.82 1-2.24.84-2.69.68-.44-.15-2.01-1.13-1.27-2.25.55-.85 1.07-.93 1.49-.88z"/><g fill="#c88e44"><path d="m387.08 189.32c2.69 2.19 8.66 4.74 9.86 2.49 1.2-2.23.68-3.9-3.35-6.61 3.21 2.11 10.09-.74 3.29-7.04 8.14 3.84 9.12-5.02 4.79-7.88 4.62 1.81 7.77-4.04 2.39-7.8 3.52.82 7.7-1.86 2.62-6.68 9.19 6.1 15.62 4.14 13.01-2.31 10.25.53 3.53-7.89-4.84-12.46 10.09 3.68 14.73-4.06 7.86-6.31 8.07.23 10.32-5.98 1.95-8.23 5.76.29 13.83-5.34 3.07-8.63 23.17 9.39 32.44 3.08 21.47-3.83 3.27.6 9.49-8.09-2.46-9.15 6.42 1.73 18.83-5.9 2.84-9.68 0 0-14.86-3.68-20.93-4.59.53.67 18.01 4.52 20.92 5.42 2.92.91 6.58 3 5.61 5.26-.97 2.24-4.57 3.53-9.49 2.61-4.93-.89-16.08-3.09-17.05-3.24 1.8.52 15.77 4.36 17.19 4.73 1.42.39 7.28 2.04 6.58 4.68-.83 3.06-3.89 2.92-6.06 2.77s-16.15-3.62-17.94-3.91c-1.79-.3 18.76 5.1 19.66 5.7.9.61 4.64 2.95 4.18 4.81-.45 1.88-7.7 2.1-11.58 1.13-3.89-.97-30.93-8.13-31.54-7.98 2.32.75 16.15 5.04 17.86 5.88 1.72.82 5.6 1.94 4.94 3.89-.68 1.97-5.99 3.59-8.08 3.22-2.09-.36-22.12-4.89-25.19-5.48 2.92.97 24 6.15 25.42 6.9 1.42.76 5.3 2.65 4.48 4.2-.83 1.58-3.07 2.86-6.58 2.18-3.52-.68-21.83-6.09-23.69-6.55 3.21 1.36 22.19 7.6 23.39 8.5 1.2.93 3.96 2.11 2.54 3.77-1.42 1.63-6.65 1.4-8.9.88-2.24-.51-18.45-5.56-20.25-6.09s17.16 6.94 18.82 7.82c3.59 1.89 11.21 8.35 9.42 9.68-2.47 1.85-5.3.45-5.83.22-.53-.21-21.36-9.31-22.34-9.91 2.62 1.14 22.12 10.75 23.16 11.96 1.04 1.17.66 3.67-.68 4.35-1.35.66-4.65-.06-8.6-2.11-4.33-2.26-15.76-6.23-18.91-6.24 2.91.68 13.46 4.87 15.7 6.69 1.86 1.49 2.76 3.53 1.78 4.35-.97.82-3.28 1.02-4.78.36-1.49-.68-8.52-4.2-13.37-5.56 3.44 1.64 11.52 5.96 13.15 7.13 2.09 1.52 3.65 4 2.91 5.34-.75 1.35-3.14 1.56-4.79.89-1.64-.68-17.26-7.67-18.9-8.33-1.65-.69 17.03 8.41 18.53 9.83 1.48 1.43 3.51 4.8 2.45 6.24-1.04 1.43-3.89 1.48-6.27.22-2.81-1.5-13.6-8.12-15.09-9.33 2.09 1.59 14.05 10.21 15.09 11.72 1.03 1.5 2.67 3.83 1.56 4.8-1.13.99-4.62.29-5.46-.39-.81-.65-13.81-9.45-15.16-10.26 3.07 2.75 14.05 11.84 15.31 12.89 1.27 1.05 4.26 3.99 2.91 4.96-1.35.99-6.5-1.85-7.55-2.32-1.04-.45-3.2-1.03-3.65-1.35-.45-.29 3.65 2.94 2.15 4.13-1.44 1.18-1.49.68-3.13.91 1.64 1.19 6.13 5.09 3.58 7.05-2.53 1.93-7.69-1.66-8.06-2.41s2.24 3 .59 4.27c-1.65 1.28-4.33-.44-4.71-.82-.37-.37 2.54 1.81.82 3.61s-2.91-.37-3.37-.82c-.22.52-.08 2.17-1.65 2.17-1.12-.02-1.77-1.13-2.38-1.8.07.52.79 3.5 2.69 3 1.11-.29 1.72-1.05 1.71-1.66.67.75 2.84 1.35 3.66.53.82-.83.89-2.4.52-3.01 1.12.69 2.47.53 3.51-.06 1.05-.61.98-2.41.6-2.94 1.05 1.12 5.39 3 7.41.23 2.02-2.76-1.42-5.84-2.31-6.52.82.22 3.73-1.55.97-4.04"/><path d="m425.75 81.88c9.57.61 13.01 3 12.18 6.76-.58 2.63-3.89 2.7-5.68 2.4 2.68 1.64 2.3 3.6 2.08 5.56-.3 2.7-2.91 3.98-5.68 4.03 1.72.53 4.64 2.27 4.18 4.82-.56 3.2-2.84 3.61-4.04 3.59 1.58.6 4.11 1.73 3.22 5.19-.9 3.45-3.75 3.52-8.98 2.25 4.71 1.35 8.07-.97 8.08-2.64 0-1.65-1.05-3.75-3.14-4.05-2.1-.29-20.26-5.25-21.46-5.25 3.21.3 19.13 3.47 20.34 3.6 1.19.17 4.31-.6 4.56-2.1.45-2.69-1.94-4.19-3.88-4.65-1.94-.45-16.07-3.77-18.02-4.21 3.14.39 15.09 2.29 16.3 2.33 2.84.17 7.03-.67 7.17-2.98.09-1.39-.59-4.14-2.24-4.89-1.64-.75-11.5-3-16.44-2.71 6.36-.3 13.22.9 16.37 1.22 3.14.31 5.85-.59 6.06-1.94.38-2.56-2.24-5.41-10.97-6.32"/><path d="m480.54 94.82c17.04 7.65 30.25 13.76 28.16 17.95-1.12 2.24-3.32 1.83-4.36 1.99 6.3 1.99 9.06 8.53 7.57 11.22-1.42 2.57-10.76-1.14-11.74-1.4 2.17 1.1 5.68 4.47 2.09 6.43-3.59 1.95-22.65-4.07-25.84-6.43 1.48 1.31 3.12 4.31 1.78 6.7-2.34 4.15-15.26-.91-17.51-1.34.99 2.39 1.35 5.76-.82 6.89-3.59 1.85-8.59-.02-11.28-1.06.3 1.71.01 5.51-3.07 6.37-2.39.69-6.86.2-9.19-1.57-4.7-2.7-15.54-6.01-18.45-7.73 2.83.89 17.39 6.09 18.75 6.52 3.58 1.22 7.8 1.76 9.19.84 1.35-.89 2.02-4.71-.37-5.63-2.38-.88-22.48-8.41-24.44-9.01-1.93-.61 25.04 7.6 27.13 8.35 2.1.74 9.2 2.98 10.62 1.43 1.64-1.8 1.05-6-1.34-6.91s-28.61-9.85-31.46-10.9c3.73 1.05 34.05 10.45 36.01 10.98 1.13.3 12.19 3.61 13.83 2.26s1.05-4.71-1.94-6.52-23.24-9.55-27.12-10.75c9.49 2.99 26.62 8.59 30.41 10.01 2.84 1.03 18.15 6.44 21.15 6.31 5.01-.23 4.5-2.85-.37-5.41-3.14-1.65-41.16-16.09-51.18-19.55 8.15 2.41 47.01 15.63 52.46 17.59 4.6 1.66 10.52 3.77 11.21 1.91 1.73-4.74-6.04-8.64-9.03-9.86-2.99-1.18-22.42-9.32-52.91-19.24 16.89 2.86 52.01 17.82 54.41 18.19 1.63.26 5.67.42 4.86-2.47-.47-1.59-2.86-4.2-27.21-16.16"/><path d="m398.31 96.2c2.31.83 8.49 2.11 7.31 6.29-.82 2.92-5.23 1.72-6.43 1.88 1.27.9 1.64 2.54.52 4.36-1.2 1.95-5.01 2.24-7.03 1.48 1.94 1.14 3.05 2.59 2.09 4.51-.89 1.79-2.92 1.66-4.41 1.65 1.58.81 3.9 2.24 2.61 5.02-.9 1.95-1.65 1.43-2.99 1.73 1.42.31 3.22 1.28 2.99 3.74-.17 1.89-1.05 2.71-2.84 3.16.9.44 2.09 2.26 1.71 4.43-.35 2.03-2.16 3.37-3.66 3.52.75.61 1.9.85 1.35 3.61-.38 1.88-1.65 2.41-3.14 2.56.97.52 2.43 1.73 1.94 4.49-.38 2.1-2.84 2.69-4.04 2.56-1.19-.16-5.67-.91-6.88-1.36 2.03-.21 5.54.15 7.04.15 1.49.01 2.48-.3 2.68-1.49.31-1.64-.59-3-1.49-3.44-.89-.45-3.28-1.51-5.08-1.96 2.17-.06 3.97.53 5.08.32 1.12-.24 2.69-.68 2.84-2.13.16-1.41.09-1.85-1.27-2.45-1.34-.59-3.35-1.14-6.05-1.73 2.24.15 4.63 0 5.98.01 1.35-.02 3.15-1.59 3.3-2.64.14-1.06.23-2.85-1.72-3.75-1.29-.59-6.21-.61-7.62-1.13 2.01-.6 6.65-.14 7.7-.3 1.04-.14 2.39-.66 2.76-2.47.21-1.03-.74-2.17-1.94-2.63-1.33-.49-6.81-1.94-8-2.69 1.95-.23 5.68.97 7.17.81 1.5-.15 2.83-.73 3-1.79.22-1.42-.9-2.62-2.39-3.38-1.49-.73-4.56-2.18-6.2-3.29 3.51.53 5.3 1.42 6.8 1.43 1.5-.02 3.37-.09 3.66-.99.31-.89.16-1.87-.89-2.76-1.05-.9-5.68-4.13-7.09-5.43 3.51 1.05 4.78 2.31 6.42 2.87 2.47.82 5.91.22 6.51-.99.59-1.19.74-2.31-.6-3.14-1-.6-6.8-2.86-8.74-3.98 4.18.82 6.35 1.73 8.3 2.18 1.25.28 6.27 1.05 6.95-.91.51-1.54-.69-3.21-6.21-5.93"/><path d="m395.38 89.8c4.16 2.22 7.33-1.83 3.56-4.62-.24-.17-.23.47-.54.31 2.53 2.82 1.02 4.68-3.02 4.31"/><path d="m388.71 98.64c5.37 2.85 9.37-2.88 3.29-6.24 3.52 4.42 1.59 6.68-3.29 6.24"/><path d="m373.46 107.1c5.36 2.85 14.38-4.37 8.28-7.71 3.54 4.41-3.41 8.16-8.28 7.71"/><path d="m377.74 108.18c1.05 1.42 1.93 6.39-3.59 6.46 1.79 1.05 2.68 2.03 2.39 3.47-.46 2.16-2.21 2.03-3.74 2.54 3.88 1.35 7.77 1.88 3.51 6.67 5.01-2.55 2.63-5.78-.52-6.53.67-.38 3.37-3.15 1.28-5.78 1.72-.15 4.33-4.87.67-6.83"/><path d="m364.95 110.06c1.58 0 4.77 1.01 4.63 4.04-.07 1.66-.82 2.19-1.49 2.78.82.46 2.09 2.8.44 4.89.08-1.29.75-4.21-3.96-4.51 1.5-.68 2.47-.45 3.29-1.66.83-1.19.75-2.46.08-3.42-.69-1.03-2.99-2.12-2.99-2.12"/><path d="m368.23 124.38c2.54-.35 5.82-.51 4.99 4 2.17-.53 5.91 1.87 3.29 5.09 1.49.98 3.06 3.76.59 5.62 1.8 2.84 2.17 4.82.07 5.94.75 3 2.61 6.15-3.06 7.96 2.75-1.19 3.43-4.36 2.31-5.94-1.12-1.56-.89-1.42-2.54-2.17 2.09-.91 3.29-.38 3.3-3.08.01-.94-1.05-2.38-2.61-2.85 2.23-.67 2.31-1.34 2.09-2.93-.21-1.57-2-2.47-2.68-2.53.89-.39 2.99-1.73 1.86-3.23-1.27-1.7-3.51-.67-5.01-.38 1.12-1.2 1.64-3.01.97-3.69-.66-.67-3.06-1.87-3.57-1.81"/></g><path d="m421.58 173.75c-3.06-2.95-11.06-7.96-13.14-9.7 3.87 3.22 10.75 7.52 13.14 9.7 3.41 3.1 5.39 6.66 3.43 9.22-.98 1.26-4.18 1.14-6.35-.76-.55-.47-8.73-6.31-11.5-8.47 4.86 3.61 12.76 9.26 15.08 11.25 3.06 2.62 7.82 9.47 6.27 11.78m-.92.83c-2.13 1.09-5.92-.8-7.01-1.72-1.27-1.05-11.66-8.84-15.24-11.49 1.94 1.51 13.6 10.3 14.94 11.28 2.24 1.61 3.88 8.34 1.71 9.66-2.16 1.35-3.58.68-5.46-.22-1.86-.91-8.66-6.75-12.77-9.98 3.36 2.7 10.75 8.34 12.32 9.91.83.84 5.45 7.28 2.68 9.37-1.71 1.3-5.67.9-8.52-.97-1.4-.93-4.11-3.14-5.98-4.13" fill="none" stroke="#c88e44" stroke-width="1.07"/></g></g></svg>