<svg height="500" width="750" xmlns="http://www.w3.org/2000/svg" xmlns:xlink="http://www.w3.org/1999/xlink"><path d="m0 0h750v500h-750z" fill="#000f5d"/><use transform="translate(94.998437 -302.57555)" xlink:href="#a"/><use transform="translate(165.10176 -239.95912)" xlink:href="#a"/><use transform="translate(202.31636 -149.82232)" xlink:href="#a"/><use transform="translate(126.44047 -126.44797)" xlink:href="#a"/><use transform="translate(187.86405 -50.087407)" xlink:href="#a"/><use transform="translate(131.65888 27.026192)" xlink:href="#a"/><use transform="translate(88.726724 -37.115289)" xlink:href="#a"/><use transform="translate(47.979803 74.909224)" xlink:href="#a"/><use transform="translate(-52.93993 74.909224)" xlink:href="#a"/><use transform="translate(-88.937372 -37.115289)" xlink:href="#a"/><use transform="translate(-136.78986 27.026192)" xlink:href="#a"/><use transform="translate(-191.93667 -50.087407)" xlink:href="#a"/><use transform="translate(-204.36749 -149.82232)" xlink:href="#a"/><use transform="translate(-127.05167 -126.44797)" xlink:href="#a"/><use transform="translate(-166.33627 -239.95912)" xlink:href="#a"/><use transform="translate(-95.803472 -302.57555)" xlink:href="#a"/><use transform="translate(-.231424 -328.73602)" xlink:href="#a"/><use transform="matrix(-1 0 0 1 752.2069 0)" xlink:href="#d"/><use transform="matrix(-1 0 0 1 751.83265 0)" xlink:href="#c"/><use transform="matrix(-1 0 0 1 751.65672 0)" xlink:href="#b"/><path id="a" d="m354.95018 372.00322 15.95393-.01158 5.25713-15.58567 4.87195 15.63347 16.06847-.00391-12.45438 10.11961 4.51334 14.80291-13.1604-8.89622-13.04481 8.96685 4.44248-15.00347z" fill="#d59f0f"/><path d="m346.35055 114.65178 22.5024.04759 7.40871-21.984579 6.86363 21.995379 22.62537.02229-17.54845 14.23716 6.35799 20.85672-18.51354-12.50503-18.401 12.62217 6.25549-21.16833z" fill="#d59f0f"/><path d="m347.52856 222.70253c-.04116-.04039-.08554-.09566-.11354-.15317-18.13632-23.9546.31178-32.7587.68493-49.70522 12.00175 22.28163-5.58635 29.21334 15.32381 49.87507z" fill="#d59f0f"/><path d="m367.55914 222.71763c-6.38517-8.98209-10.86417-23.32022-8.94822-32.68695 1.90011-9.362 8.38724-18.58064 7.48828-25.66658 3.37894 7.97804 6.5566 11.0531 5.57269 16.92454 5.07704-15.14068 16.74708-22.96579 32.56778-23.74379-28.45366 21.62187 8.68928 38.23948-15.87088 65.19717z" fill="#d59f0f"/><path d="m393.64217 222.75386c22.59613-27.26343-6.15882-41.23585 20.04747-53.45178.96433 8.06032-5.45844 8.05441-2.62768 17.91915.48518 4.2721-.10653 7.75738-1.49083 10.73295 2.66627-3.26831 7.85215-9.43333 11.14497-11.83173-7.7922 11.73861.57526 22.011-18.22023 36.63064l-9.24241.00307" fill="#d59f0f"/><path d="m389.82136 281.58361c1.00752-25.56266 6.47692-33.3444 16.84627-44.03549-20.1215-.0474-42.60824-.05097-60.90523-.064 10.32576 10.7078 15.78833 18.49479 16.74176 44.05509 9.10653.00403 18.21069.02206 27.3172.0444z" fill="#d59f0f"/><path d="m376.07106 343.98852 7.96085 24.97018 4.39755-74.08454c-8.19808-.0278-16.39618-.03872-24.59428-.05064l4.21997 74.11928z" fill="#d59f0f"/><path d="m375.95444 455.95155c3.51203-3.2566 4.50939-13.86597 4.50939-13.86597l2.18412-43.29912-6.63412-4.66153-6.64919 4.64706 2.11484 43.31016s.94204 10.57926 4.45885 13.87287z" fill="#d59f0f"/><path d="m411.54548 232.95842-70.75026-.07592.0076-6.71504 70.76511.07273z" fill="#d59f0f"/><path d="m394.32085 292.6443-37.32183-.0387.00998-8.354 37.32532.05481z" fill="#d59f0f"/><path id="b" d="m200.58174 226.53289 133.23228-15.96154-.41641-3.57606-133.25952 15.98559z" fill="#d59f0f"/><path id="c" d="m225.89566 145.68825 109.56743 42.13173 1.2878-3.34389-109.55105-42.13397z" fill="#d59f0f"/><path id="d" d="m293.74159 98.652483 47.14965 67.172657 2.92405-2.07606-47.16229-67.153069z" fill="#d59f0f"/><g fill="#d59f0f"><path d="m373.88872 142.71881-.03382 24.44405 3.58505.00324.01423-24.45667z"/><path d="m336.86717 114.9936-15.48215-7.93842 1.07787-2.10211 15.48213 7.93842zm2.63766-5.71733-12.50938-12.09259 1.7979-1.859838 14.73504 2.941377c.32403.061343.62033.128704.88889.202111.26855.073438.50662.15573.71422.246848l-10.13998-9.802142 1.56801-1.622048 12.50937 12.092592-1.78145 1.84285-14.98558-2.93712c-.2291-.046211-.45841-.103588-.6879-.172107-.224-.074162-.45377-.159375-.6893-.255643l10.13997 9.80217zm13.2059-28.688308-3.78567 1.476042 4.81864 12.358419 3.78564-1.476039c1.62139-.632176 2.64206-1.634463 3.06204-3.006859.41708-1.379688.22373-3.10032-.58007-5.161894-.76951-1.973523-1.78062-3.32037-3.0334-4.040537-1.25276-.720169-2.67516-.769849-4.26718-.149132m-.39565 16.673496-6.32044-16.2101 6.17371-2.407173c2.25967-.881021 4.2506-.879718 5.9728.003905 1.72954.880815 3.0906 2.594097 4.08324 5.139842 1.02692 2.633854 1.20285 4.927547.52775 6.881165-.67062 1.943402-2.12108 3.349912-4.35138 4.21953zm16.36218-4.93076-1.3756-17.34424 2.35495-.186778 1.3756 17.344243zm10.64333-7.121238 5.32447 1.021616-1.19812-8.04757zm-6.30379 6.151157 9.62375-15.869587 2.56363.491898 3.09002 18.308939-2.51722-.482956-.83032-5.451303-6.7281-1.290914-2.80054 4.75466zm17.0065 3.858306 9.83442-14.352692 2.13389 1.462153-.44004 15.019301c-.00639.329745-.02334.633129-.05088.910155-.02757.277055-.06896.52552-.12415.745428l7.97167-11.634171 1.86109 1.275201-9.83442 14.352692-2.1144-1.44878.394-15.26563c.00734-.233594.02563-.46927.05486-.706974.03572-.233245.08139-.474016.13697-.722308l-7.97169 11.634144zm21.63162 9.467277 2.8882 4.58825 5.06287-6.36916zm-8.79822-.40747 18.16632-3.80069 1.39061 2.20914-11.26989 14.75654-1.36544-2.16916 3.41671-4.32803-3.64956-5.7978-5.38622 1.19921z"/></g></svg>