<svg height="459" width="670" xmlns="http://www.w3.org/2000/svg"><path d="m0 0h670v459h-670z" fill="#fff"/><path d="m502.473 459h167.527v-459h-167.527z" fill="#d90026"/><path d="m0 458.99986h166.32218v-459h-166.32218z" fill="#0a1f62"/><g fill="#d90026"><path d="m286.74558 336.37422c-1.03047 1.38972-2.59125 2.85764-2.47072 4.81888l-.30131.31885c.47004 7.484-.33747 15.61773.97021 23.2401.33746 1.57621 2.02479 2.37634 2.50688 3.50135l-.82558.46925c-4.54976.24666-9.5816-.77607-13.818-.1504-.68096-.06016-.16271-.6016-.09642-.90241 1.59694.03008 2.01877-1.32955 2.91064-2.41244.36157-.69185-.19284-1.66646.48209-2.2079-.32541-7.71863-.04218-15.53351-.33143-21.97071-.6448-1.6484-1.98261-3.73598-3.66391-4.2293-.16271-.4512-.61467-.4512-.09642-.99265 5.23071-.1865 9.04527.56551 14.73397.51738"/><path d="m318.79273 342.86557c1.21729 3.46526 2.60331 7.82089 2.07301 11.54484-.06027 4.09093-1.95248 7.54416-3.85072 11.0034-3.03117 3.77208-8.78615 4.35564-12.90203 3.53144-4.04355-.81819-7.141-3.69989-9.33453-6.76808-2.69972-5.613-2.45265-11.53282-.68095-17.41052.36759-.30682.66287-.61364.57851-1.14306.07834.0722.15065-.07821.22297-.16243.42785-1.20923 1.08471-2.29212 1.97055-3.52542 2.01274-1.70255 3.71212-3.79614 6.51429-4.0067 1.1992-.77608 2.95282-.28276 4.46539-.46926 4.33884.57754 8.58728 3.82021 10.94351 7.40579"/><path d="m349.93596 337.8241c2.15134 4.63839 3.62173 9.23467 5.99604 13.65047.83161.06016.73519-.91444 1.10881-1.3837.97624-3.43517 2.5792-6.71995 3.56146-10.15513-.19283-1.96124-2.17544-2.67715-3.34452-3.79614l.21694-.373c4.24242-.24666 7.97262.11431 12.7574.24666l.38567.36096c-1.04253.8603-2.24776 1.34159-3.21194 2.26806-3.96522 6.07624-5.1584 13.90315-8.12328 20.63514-.90995 3.05616-1.844 5.49869-2.68767 8.55486-.52427.38502-.73519 1.08289-1.18715 1.38369-.94008-1.33557-1.03048-2.1718-1.90427-3.81419-2.09108-5.48666-4.42923-11.49672-6.89996-16.89915-1.06663-.12634-.5062 1.07086-1.18113 1.3837-2.82627 6.19655-5.94782 12.41116-8.76807 18.53552l-.30131.23463c-.86174-1.20322-1.27755-2.99601-1.69335-4.58425-2.8323-7.89911-5.97193-16.01479-9.02117-23.52285-.94008-1.41378-2.56715-2.97194-4.18216-3.77208-.23502-.52941-1.36794-.1865-1.38602-1.03476.44594-.30682 1.28357-.17447 1.8199-.0361 1.21126-.02406 3.18785.01203 4.17011-.23463 1.51859.12033 3.3385.0722 4.94146.4091 1.13292-.24666 3.1095-.13837 4.62809-.16244.29528-.09625.7593.19853.69301.50535-.74724.69185-2.0971 1.18517-2.22365 2.47863-.3435 1.73864.66287 2.55081.77134 3.92248.93406 1.498 1.20524 3.15242 1.85004 4.87903.33144 1.43183 1.04252 2.70122 1.60296 4.05484 1.05458-.33089 1.40409-1.69052 1.83798-2.61098 2.10313-4.67449 4.49552-9.72799 6.29132-14.08965.60864-.0782.88584-1.37166 1.57885-.78209.70506 1.04079.97021 2.62903 1.90427 3.74802"/><path d="m378.79527 335.29735c4.08574 9.67986 9.14772 18.96266 13.22743 28.49212 1.32576 1.56418 2.49484 2.97194 4.41116 3.68786.31938.68583.16873.90842-.5062 1.08289-1.67528.0361-3.04924-.38503-4.6281.09626l-9.03322.12634c-.07834-.30682-.38567-.373-.24105-.67982.89188-.69185 2.03082-.95054 2.38637-2.0214.28323-.67982-.03014-1.36565-.34952-2.11766l.14463-.1504-.92803-1.18517-10.01549.2226c-1.04855.55348-.78943 2.05749-.61467 3.11031-.04821 1.36565 3.224 1.75067.8979 2.85763-4.25447-.28275-8.50292-.1865-12.45006-.25869-.23502-.13837-.09039-.44519-.16873-.66778 9.1899-3.09227 9.18387-13.7708 12.82368-20.89383 1.80182-4.20523 2.3261-8.00138 4.67028-11.85768l.37965.15642"/></g><path d="m310.3561 342.36623c1.12689 3.00804.21694 6.43119.59057 9.52947.00602 3.71793.36759 6.35899-.07834 10.08294-.57852 1.45589-2.06095 3.08023-3.72417 3.33892-2.03685.57754-3.52531-1.58825-4.54373-3.00804-1.42218-2.53878-.36157-6.19054-.50018-8.84965.22297-3.72395-.92803-8.0856.72917-11.76142 1.25344-1.77474 2.91064-2.09961 4.74259-1.77474 1.07869.73998 2.073 1.17915 2.78409 2.44252" fill="#fff"/><path d="m381.64565 359.50001-6.91202-.25869 2.92269-9.5054z" fill="#fff"/><g transform="matrix(1.15 0 0 1.15 -53.78704 -24.82781)"><path d="m365.73054 161.47492c.33747 1.58824 1.13292 1.1972 2.28994 2.16579.61467.21056 1.15703.72794 1.69336 1.08891l.15065-.1504c.77135.81818 1.53667 1.17313 2.75396 1.14907.54235.51738 1.52462.34291 2.21763.7881 4.50757 1.41979 9.88894.98664 14.57729.35495l-.15668-.14439c1.07266.35495 2.04287-.27072 3.18784-.07219 3.48313-.28877 8.02686-.70388 11.27496-1.60629 12.17888-1.78677 25.65339-3.37502 38.50118-2.36432 2.04889.10829 3.59762 1.36565 5.65254 1.54012 1.60899.87233 3.51928 1.44385 4.68836 2.85763 1.22933.42113 1.54872 1.47996 2.33212 2.44253 1.04856 2.93584 2.24174 5.41446 1.85004 8.29616-.16874 2.50269-1.31973 5.26407-3.57352 6.44924-1.25344-1.94921-3.56146-3.2547-5.62844-3.97061-.53633-.2226-1.45231-.50535-1.98863-.78811l-.53031.01203.15066-.08422c-.68699-.13837-1.30768-.65575-1.9103-.40909l.15066-.15041c-.38568-.22259-.98829-.06016-1.36794-.04813-.54236-.44518-1.44628-.27072-2.06095-.6377l-2.0489.0361-.00602-.13837c-8.11122.33088-16.3972-.09626-24.33366 1.05883v-.15642c-9.32851.35495-19.15718 2.17782-27.55766-.2226-.97021.70388-1.6813-.64372-2.88653-.16243-.69301-.35495-1.60296-.34292-2.21161-.48129-.45798-.14438-.84366-.35494-1.37396-.27072v-.15642c-.99432-.27072-2.073-1.0107-3.05527-.84225-1.68732-1.09492-3.90495-1.50402-5.37534-2.76138-6.67096-3.25469-7.34589-9.62571-9.38274-16.3938l3.97727 3.78411" fill="#0a1f62"/><path d="m361.48209 156.28305c-.45196.01203-.54838-.75201-1.14497-.50535-.18681.27072-.08436.56551.05424.87835 0 0-.92201.46925-2.06095.46925-1.13895 0-1.46436-.28877-1.46436-.28877-3.14566-1.51605-5.10416-4.27743-8.74999-4.50003-.85572-.8242-1.8199.03009-2.74793-.62567-2.03685.42113-3.95919-.51738-5.85744-.55348-1.21728-.19853-2.73588-.54144-3.95919-.58355-.31939-.68584-.98226-.14439-1.36794-.50535-.62069-.45121-1.74759-.12033-2.21763-.78811-9.48518-3.35095-17.5723-11.95996-19.61517-22.06696-.97624.31885-1.48846 1.1611-2.00068 2.00937-.12655 1.20923-.71109 2.29212-1.06664 3.42916-.82558.40308-.93405-.96257-1.39807-1.32955-.28323-2.65309-1.32575-5.04749-.84969-7.94122-.84366-.43316-.74121.77607-1.3378 1.1611-.51825.77608.19886 2.35229-1.00637 2.76138-1.80785-2.83959-.71712-5.14374-1.24139-8.16381-.98227.02406-.18682 1.67848-1.48244 1.39573-1.2655-2.1718-.80148-5.13171-.6207-7.2614.65686-1.37167 1.53668-2.67716 1.88017-4.27743-.77135-.51137-1.20524.4873-1.80785.72193-1.27755.32486-2.85038 1.3476-4.07972.77607.12655-1.29346 1.62707-2.09359 1.97659-3.30282-.46402-.51739-.98227.16243-1.50655.32486-1.50654.72193-3.2481.98664-4.98966.95656-.53633-.45121-1.15703-.73998-.71712-1.50402.97624-.47527 1.33781-1.16712 1.85004-2.23798-1.80183.72193-4.05561 1.82287-6.26721 1.20322-.53031.07821-.9883.02406-1.38-.50535-.16873-.90843.7352-1.15509 1.09677-1.91913-.69904-.58356-1.35589.41511-2.04287.35495l-4.0978-.06016c-1.30165-.43316-.25912-1.35964.03013-2.0575.29529-.30081.74725-.46926.81354-.99867-1.36794.0361-2.33816.58958-3.6157 1.22728-1.13292.31284-1.89825.1143-2.87449.58356-.54838-.89038-2.04287.19853-2.21762-.92648l.96418-1.09492c-1.22934-.643722-2.34418.58957-3.55544.61364-1.5909.1143-3.48312.54144-5.09211-.1865-.08436-.37901.13258-.992653-.39772-1.046798-2.79614.739978-5.57421 2.159768-8.83436 2.075548-.30734-.21056-.84367-.34893-1.00637-.65575-.229-.51739.44593-.61364.43388-1.07087-1.2896.0361-2.40444.96258-3.68801 1.29346-1.50654.71591-3.56147.30682-5.06198 1.09493-.76532-.50535-2.56112.51738-2.59728-1.07087-1.15702-.73997-2.03082.80014-3.2481.75201-2.49483.57755-5.56818 2.15977-7.80389.62568.22297-.23463-.01205-.52942-.24104-.68584-3.46505 1.29346-7.46642 2.2079-11.19059 2.15376-.68096-.14439-.54839-.97461-.93406-1.35362-1.66322.49332-3.0854 1.28142-4.74862 1.62434-2.40444.73998-5.4356 1.10094-7.95454.39706-.32541-.90241.80148-1.22126.78943-2.06953-3.47107.92046-6.99035 2.95991-10.86518 2.82154-1.75361-.34292-3.10347.37901-4.48949-.43316-.07834-.22259.06629-.52941-.16873-.6738.44593-.61965 1.26549-1.08891 2.01876-1.40776 2.8323-2.32822 5.08006-3.675819 8.06904-6.016072 5.23071-3.441194 10.7567-7.730655 15.58969-12.230678 1.34383-.860299 2.75396-2.183835 3.56146-3.338921-.22899-.44519-1.4523-.64372-.86174-1.491987 3.07937-1.65442 5.61639-3.158439 8.37637-5.336257.90393-.324868 1.49449-1.173135 2.40444-1.269392 2.89859-2.641056 7.19525-4.012721 10.41322-5.99201 4.21831-1.528082 8.18956-3.886383 12.57661-4.662457.28323-.679816.83763.210563 1.28357-.258691 3.60967-1.600276 7.4845-1.221263 10.88326-2.123674 2.06094.547462 4.61001-.860299 6.89996-.084225l.45196-.234627c6.14066-.060161 11.83539-.036097 18.29544.50535.77135.595591 1.90427.3369 2.74793.553479 1.75361.493318 3.81456.902411 5.34521 1.618324 3.45299 1.738645 6.17682 4.644409 5.65254 8.590953-.68698 3.278761-1.04855 7.363675 1.88619 9.655799.39773.824202.86777 1.576212 1.27152 2.538783.19284 1.907096.21695 2.959909.4821 4.620345.30733.294788.24707.974604.84366.655752 1.18113-1.606291 3.32042-1.125006 4.89325-1.997336 2.18147-.421125 4.146-1.070861 6.43594-.667784 1.42218-.637704 2.72986.246659 4.16408-.084226 1.22331.421126 2.82627.679817 3.88688.739978 1.75964.565511 3.42286.156417 5.03185.950539 1.96453-.270723 3.58557.824202 5.26084 1.022733 1.89222-.114306 4.07369 2.478622 5.46573.096257 2.92872-4.674489 2.64549-10.660483.86777-15.695937-.45196-3.314857 1.50654-7.381723 4.73054-9.120368 3.59762-2.12969 7.76773-1.913112 11.52806-3.735982 2.50086-.132354 4.34486-2.364317 6.62878-2.117658 3.16374-.974604 6.13464-.667784 9.70815-.433158.68699.210563 1.37397.577544 2.21161.619656 1.83798.800138 3.73622.685833 5.35123 1.774742l.15066-.13837c4.11587.962572 8.64754 3.134375 12.91407 4.102963 1.91632.782089 3.91098 1.65442 5.89359 2.147738.54236.739977 1.82593.409093 2.51894 1.082893.45799-.16845.84366.210563 1.22331.336901 1.0606-.090242 2.06095.56551 2.90461.776073 3.04322.30682 6.03219 1.834903 8.7741 2.165787 1.3137 1.022732 4.01343-.330884 4.36897 2.021401 7.9003 3.603628 14.60743 8.4586 22.29079 12.615707.60261-.012032 1.07266.50535 1.37999.800138-.44594.234626-.28323.836234-.12655 1.058829 4.54373 2.923812 8.94886 6.545488 13.79389 9.553525 4.94749 4.121015 9.88292 7.658465 15.34262 11.099655-.13257.75201 1.30768.57754.63878 1.34159-1.05458.02406-2.51291-.46926-3.71815-.06016-.83764-.13837-2.04287-.0361-3.04321-.46926-.74725.46926-1.53065-.57754-2.27789-.17446-.54838-.73998-1.21126.33088-1.6813-.4091-1.44628-.35495-2.76601-1.4619-4.27858-1.26939.63877 1.49199 2.63343 2.43049 3.27221 3.86232l-.44594.45722c-2.3502-.02406-4.93543-.1865-6.91201-.3008-.3917-.58958-1.37397-.34292-1.98864-.63771-1.07868-.72794-2.51893-.84826-3.51928-1.35361-.72916 1.22728 2.93475 2.12969.82559 3.08023l-.229-.29479c-.3013.15642-.90392.55348-1.36794.18048-1.53064-.56551-3.27823-.83623-4.80285-1.40174-2.14532-.93851-4.06164-1.65442-5.98398-2.98398-1.48847 1.47996-2.65152.29479-4.32679.09626-1.74759-.03609-3.57954-.6738-5.11622-1.55215-.83763-.06016-1.76566-.87233-2.44059-.46925.63274 1.18517 2.90461 1.13704 2.4888 2.82154-.90392.16243-1.8199-.0361-2.73588-.09626-.99431-.50535-2.05492-.40909-3.1336-1.13704-4.57386-1.03476-8.50292-3.75403-12.58264-6.16046-1.66924-.35494-3.05526-1.221259-4.44731-2.18383-2.06697-.926476-2.94077-2.737314-4.71246-3.760047l-.21694.30682c1.16908 1.570195 2.50688 3.579564 3.07937 5.390407.23502.37901.91598.35494.70506.96257-.6689.77607-1.2896.1865-2.04889.04813-1.62104-1.02274-3.75431-1.58825-5.21264-2.231968-.30733-.210562-.69903-.824202-1.23536-.800137-.50017 1.209235 1.25947 1.937175 1.66322 2.983975.08437.37901.31939.68583.47607 1.04679-1.1269.56552-2.27789-.24665-3.18785-.1504-1.53064-.49332-3.21797-1.21524-4.36897-1.871-.37362.15642-.69903-.66778-.98829.02407.25913 1.1972 1.70541 1.55214 2.25982 2.59894-.42786.84225-1.49449.63169-2.33816.73998-.3917-.61364-1.27754.02406-1.59693-.66177-.90995.09626-1.83196-.40909-2.74191-.38503-1.53064-.64973-3.06129-1.15508-4.44731-2.10562-.37965.16845-.36759.69184-.13257.84826 1.53667 1.09493 2.10916 2.83357 3.79648 3.61566.01205.52942.03013 1.36565-.65082 1.37768-3.27824-.67981-6.72521-2.04546-9.49724-3.72395-.15066 0-.37965-.07219-.45196.07821 1.1751 1.7206 2.80819 3.57355 3.3867 5.53479-1.50051.87233-2.82627-.76404-4.20024-1.11297-1.37999-.72795-2.45265-1.2333-3.76032-1.96124.49414 1.72661 1.8199 3.51338 2.69369 5.24.47004.66778-.73519 1.07687-1.19921.70388-1.92234-1.24533-3.76635-2.18384-5.83332-2.97194-.03616 1.88904 1.52462 3.60363.42183 5.43853-.20489.83623.65685 2.25603-.62672 2.43049-.55441-1.41979-2.1875-3.12234-3.19387-4.01873-.37362.39104.01808 1.05882.25912 1.51605.33747 1.73262.60865 3.7059.95214 5.27609-.28926.76404-.41581 1.6845-.94008 2.22595-1.5427-1.17915-2.5792-3.65777-4.27858-4.83091.58454 2.25603 2.01876 5.55885.55441 7.94122.08436.37901-.06027.75201-.35555 1.07086l-.60864.01203c-1.01842-1.42581-1.59694-3.60964-3.35658-4.39775-.37362.39105.01808 1.05883-.19886 1.44988-.10847 1.97327 1.8199 3.35697 2.54304 5.1678 2.82025 3.87436 4.97159 8.44657 8.61139 11.77346-.05423 1.13704-1.50051.86632-2.17544 1.26939-.5303.16244-1.29563-.19853-1.66322.33089-1.53065-.72193-2.9709-.54145-4.36295-1.64841-2.24173 1.49199-3.96521-.81217-6.29132.2226 5.06198 2.38838 4.35692 8.4586 9.49724 10.84698 1.39807 1.56418 2.66357 3.88037 2.33213 5.93185-.27118 1.60027-1.30768 2.76138-2.65151 3.62167l-3.88086-4.0067"/><path d="m360.68061 157.65471c.13861.31886.03013-.3369 0 0 .03013 1.44988 1.27755 2.92983.77738 4.37369-1.53065 2.77341-3.97124 5.62503-4.73657 8.97598-1.09676 1.91311-2.12121 3.60965-2.6033 5.74535-1.08471 2.51472-1.56078 4.95725-2.03684 7.45993-.94009 2.14173-1.25947 4.87904-1.88619 7.39376-2.1634 8.4586-3.94112 17.51881-7.47245 25.92326-.40375 2.44253-1.72348 4.51206-2.27789 6.87036-3.48313 7.12303-6.52634 13.6986-11.00981 20.53888-4.10382 6.46126-9.29234 12.25474-15.64392 16.56826-1.28358.55348-2.54907 1.49199-4.06164 1.75068-1.18715.93851-2.19352.04813-3.70609.39105-2.36226-.55348-5.04993-1.78678-6.90599-3.56152-2.1875-2.61098-4.68233-5.80551-4.53167-9.29483 2.51291.39706 4.09779.21056 6.28529-.60161 1.65719-.17447 2.91666-1.72661 4.4232-2.13571.74725-.69185 2.01877-1.47995 2.8323-2.32822 2.36828-2.78544 5.48984-5.66112 7.46642-9.18654.43991-.54145 1.33178-1.38972 1.5427-2.23197 2.79614-3.84427 5.12224-8.67518 7.68336-12.97667 4.75465-11.61704 10.17819-23.70935 14.78219-35.09777.74121-.99867 1.15702-2.60496 1.66322-3.74802.15668.07219.22899-.01203.29528-.07821v-.46323c.14463.07219.14463-.06618.21694-.15041-.23502-.52941.44594-.38503.43991-.77607l-.15668-.13837.3676-.45722-.07834-.07219.07834-.01204c.65082-1.52808 1.37396-2.98397 2.10313-4.43986l-.15668-.14439c.51222-.84225 1.18113-1.60629 1.46436-2.60496.15065 0 .22297-.08422.29528-.15641.06629-.54145.74122-1.0107.87982-1.60629 2.38636-5.28813 5.55612-9.60166 9.71418-13.63243l3.94714-.08422" fill="#0a1f62"/><path d="m382.0494 59.670917c1.44628.198531 2.66356.469254 4.11587.896395 5.72486 1.552147 11.2388 3.687853 16.89134 5.462595 3.224 1.600276 7.03857 2.418462 10.32283 3.489323.3013-.150402.693.433158 1.22331.198531 2.97692 1.070861 6.32747 1.528082 9.08143 2.526751.47607.896395-.83764.096257-.97021.70388-1.1269.330884-2.18148.884363-3.38671 1.058829-4.75464 1.389714-8.26187.703881-12.82971-.102273-.46401-.36698-1.30165-.499334-1.91632-.788106-1.36794-.120321-2.51893-.697864-3.81456-.896395-.08437-.529414-.7593-.138369-1.14497-.210562-.37965-.060161-1.07869-.878347-1.9103-.553479-.1627-.529414-.90995.012032-1.21728-.348932-2.14532-1.010701-4.57386-1.191183-6.8638-1.750678-.46402-.282755-1.151-.493318-1.68733-.788105-1.75964-.649736-3.73622-.673801-5.35124-1.62434-1.22331-.348933-3.78443.457221-3.98329-1.582228-.7593-.048128-.96419.926475-1.80785.571527-.35555.920459-1.27152.860299-2.01877 1.25736-1.21126.330884-2.50086.132353-3.64583-.150402l-1.89824-.10829c-1.7958 1.179151-4.10382 3.266729-6.41184 1.883032-.8979.469253-1.91632-.872331-2.72985.210562.32541.902411.89187 2.629024.24104 3.934513-.72916 1.377681-2.16942 1.413777-3.15168 1.738645.72916 2.033433.63275 4.457911-.92803 6.004042-.29528.222595-.75327.234627-.81956.697864 1.5427 1.25736.68096 3.242664.40978 4.921149-.85572 2.207899-5.0439 1.846935-3.98932 5.005373-.71712 1.45589-2.74793 2.340253-2.09711 4.373686-.75327 3.639725-5.85743 2.839587-5.61639 6.858326.17476 1.05883-.56043 2.2079-.98829 3.27876-1.27754.6377-2.01876 1.56418-3.53133 1.66645-.56646 1.9071-.43388 4.40978-2.77204 4.98733.92803.89038-1.20523 3.88638.90995 3.53143.22297-.37299.05424-1.125.66288-1.06484.56044 1.50402 2.50689 3.73598 1.09677 4.98131-2.1875.64372-2.6937-1.54012-3.77841-2.50269l-.09642-4.46393-.68096.01203c-2.38033 2.17181-3.45902 5.07156-4.30268 8.12772-.84969-.73998-1.94042-1.99734-1.89222-3.369-.15668-.2226-.38567-.29479-.693-.28276-1.25345 1.6063-1.28358 3.66379-1.31371 5.78145-1.74759-.41511-2.24173-2.14172-3.26618-3.48932-.70506-1.11899-.80148-2.25603-1.59091-3.37502-1.19318.48129-1.16305 1.99734-1.66925 3.0682-.34951 1.52808.21695 2.87568-.28323 4.32556l-.45798.01203c-1.85606-1.62434-3.35658-4.17516-4.24845-6.72597-.75327.16845-1.49449.94452-1.69938 1.85896.24105.66779-.43388 1.07087-.50017 1.60028-.63878 1.82889.48209 4.6023-1.85004 5.49869-.95816 1.37167-1.53064 2.52675-2.18147 3.98264-.22899.07821-.30733-.14438-.46401-.21056-.13258-2.65911-.50017-5.52276.12655-8.19389.51222-.84225.63877-1.82889 1.45833-2.53879-.16873-.75201-.91598-.19853-1.21126-.04211-1.25947 1.46792-2.82025 3.09828-3.92303 4.55417l-.23502-.28877c-.45799-3.63371 1.27754-7.53213 3.56146-10.54016l-.38567-.43918c-1.94043 1.70857-3.80252 3.33892-5.11622 5.55885l-.5303.01204c-.40978-4.75872 1.92234-9.06021 5.20058-11.93589.14463-.30682-.16271-.44519-.24105-.6738-.59659.62567-.84366-.27674-1.51859.03609-1.94043 1.55215-3.87483 3.33892-6.36363 4.0789.42183-1.52808 1.68732-2.8456 2.4888-4.30149 1.41013-1.2333 1.67528-3.2186 3.95919-2.66512.3676-.52942 1.81388-.56551 1.33781-1.54012-.77135-.51738-1.43422.56551-2.19352.58958l-1.21126.01805c.84969-2.827559 3.16976-4.157112 5.3211-6.485332-.03615-1.738646-2.38636-1.534099-2.95282-3.110311-.57248-1.96124-1.89824-3.597612-2.17544-5.643077-1.48847-2.310173-5.40547-4.415798-3.19387-7.423835 1.04855-.553479-.18079-1.431826-.19886-2.195867-.17476-1.203215-.13861-2.797475.21091-4.090931-.70506-.974604-2.2116-.258691-2.90461-.998668-2.59125-.625672-1.42218-6.028106-5.0198-3.898416-.69301-.517382-1.74156.03008-2.58522-.330884-2.56715.445189-4.6281-3.302825-7.00241-.908427-2.24173 1.498002-5.81525 1.341584-8.69575 1.413777-1.07869-.727945-2.60331-1.082893-3.83265-1.588243-1.78374 1.552147-4.11587 2.442526-6.53839 2.869667-2.03684.421125-3.95316-.439174-6.00808-.697865-3.98933 1.528083-7.32782 5.089599-11.4678 6.545489-2.17544 1.106957-4.19421 2.364317-6.59865 3.326889-2.70575 1.407761-5.33918 2.388381-8.28598 2.983972-1.58488.330885-2.65151.198531-4.32678-.138369-.9883.024064-2.5792.210562-3.05527-.764042 4.70643-3.513387 10.0878-7.038806 15.49327-9.884409 9.46711-4.157107 18.55457-8.584938 28.87739-8.669163 8.49087-.342916 16.30078-.81217 24.90012.282756.54235.752009 1.34986-.469254 1.74759.493318 4.03753.667784 8.53907 1.552147 10.29871 5.757383 2.43457 3.651756-2.8564 8.091619 1.0124 11.418508 1.72951 2.845603 3.54941 6.05217 3.39876 9.625718.31938.824202.87379 1.877015 1.64514 2.316189 1.5427-2.165787 4.86312-3.290793 7.20729-3.573548.97022-.703881 2.34418-.50535 3.54942-.752009 2.95884.012032 6.22503.084225 9.12361.70388.82559-.330884 1.75964.565511 2.58523.246659.09039.529415.83763.048129 1.14497.354949 3.8929.818186 7.00843 1.209231 10.32282 3.332905 1.19921-.715913 1.9103-2.394398 2.87448-3.627693 2.48278-4.439863 2.51894-9.673847.66891-14.486706-1.12087-2.550815.48812-5.233985 2.03684-7.243353 1.68733-2.761378 4.58591-2.147739 7.14101-3.260712.76532.360964 1.81387-.192515 2.4888-.505351 2.50086-.354948 5.1343-1.401745 7.4604-2.586911 1.44628.3369 2.39239-1.353617 3.62172-.764042 3.24208-.974604 6.97228-.30682 10.02152.150402" fill="#a54a00"/><path d="m272.95169 68.50853c-.20489.986636-1.48846 1.245327-2.00069 2.243995-1.64514 1.022733-3.83264 1.600276-5.74293 1.185167-.69301-.433157-1.07869-.962572-1.69938-1.479954.89187-.703881 2.34418-.348933 3.39273-.902411 2.05492.102273 3.86277-3.796143 6.05027-1.034765" fill="#a54a00"/><path d="m290.56617 68.81535c1.19921-.715913 2.28995.619655 3.41081-.234627.15668.222594.84367.517382.39773.974604-1.64514 1.022732-3.53133 1.443857-5.41752 2.021401-2.27187.270723-1.72349-2.400414-2.95283-3.194536l.28323-.998668c1.22332.655752 2.89859.703881 4.27858 1.431826" fill="#a54a00"/><path d="m285.10647 68.929655c.39772.824202 1.09676 1.714581 1.11484 2.400414.45799.294787 1.30767 1.034764.5544 1.491986-1.10278 1.329552-3.09142.529414-4.75464.788106-.46402-.366981-1.37397-.270724-1.46436-1.022733-.6689-2.63504 2.6033-2.478623 3.39273-4.463927l.66891-.541447c.83161.198531.01205.902411.48209 1.347601" fill="#a54a00"/><path d="m395.14426 65.145544c-.51825.47527-1.28358.258692-1.80183.721929.21092-.685832 1.1269-.403077 1.50052-.721929l.15668.156418z"/><g fill="#a54a00"><path d="m282.35251 68.00318c-.5062 1.070861-1.9344 1.786774-2.68165 2.406429-1.27152.860299-2.17544 1.179151-3.68198 1.600276-1.13895-.060161-1.60899-.800138-2.09108-1.774742-.24105-.667784.36157-1.070861.50017-1.600276 2.37431.932492 5.31508.258692 7.49655-.619655z"/><path d="m262.2914 70.481802c-1.24139 1.997337-3.19387 3.182503-5.20661 4.746682-5.44765 4.277429-12.51634 7.237337-19.24757 8.223974-1.20523.481286-2.56715.354948-3.79046.234626.74122-.854282 2.45868-2.015384 3.5012-3.11031 2.1875-.577543 3.60365-1.738645 5.79115-2.32822 4.87517-2.526751 9.59968-5.354306 14.15546-8.494697 1.36794.048129 3.50121.30682 4.79683.727945"/><path d="m380.03666 68.436337c-.04218 1.437842-.15065 3.326889-1.80182 4.127027-1.05458.553478-2.12121.270723-3.18182.372996.12655-1.137038 1.00637-2.677153-.30131-3.711917l-.47607-.739978c1.66925-.036096 2.99501-1.877015 4.61605-.715912.37965-.150402.98829.282755 1.14497.667784"/><path d="m371.54579 68.628851c.01808.818186-.19284 1.654421-.86777 2.051482-1.35588.330884-3.39875.764041-4.40512-.126338l-.16271-.44519c1.81388-.493318 3.5012-3.188519 5.4356-1.479954"/><path d="m390.37756 72.59946c1.24139 1.185167 1.72951 2.77341 3.04321 3.72395l-.07231.150402c2.41047 2.598944 4.68836 6.184524 6.71917 8.717291-7.9003-.210563-13.82402-7.33961-19.71761-12.898463.04821-1.443857 1.5427-2.454558.74724-3.958576.60262.054144 1.45231.270723 2.20558.324868 2.75999 1.233295 5.71281.944523 7.06869 3.940528"/><path d="m374.31783 70.529931c-.28323 1.070861-.09642 2.653088-1.45231 3.134374-1.04253.637704-2.85037 1.281424-4.08574.47527-.16271-.529414-.17476-1.143054-.26515-1.738645.74122-.92046 1.74759.03008 2.56112-.745994 1.12087-.691848 1.55475-1.840918 1.6813-3.062181l1.55475 1.937176"/><path d="m273.09029 71.390229c.62672.739977 1.24742 1.407762 2.01274 1.702549 1.67527.3369 2.79614-.601607 4.15203-.932491.7834.968588-.65083 1.461906-.71109 2.213915-4.77875 3.591596-8.08711 8.284134-14.13136 9.481333-.21694.541446-.91598-.048129-1.12689.553478l-4.9294.258692c4.44731-4.716602 9.67802-8.542826 14.35432-13.421862l.53031-.012032z"/><path d="m294.03122 70.926992c-.33747 2.057497-.45196 3.796142.34952 5.679173-.87982 1.383697-2.94077.890379-4.30269 1.076878-1.46436-1.100942-2.01876-2.075546-1.60296-3.826223-.05423-2.424478 2.94077-.974604 4.04959-2.364318.68698.210563.97021-.619655 1.50654-.56551"/><path d="m297.47818 72.59946 1.91633.788106c-.20489.914443.6689 2.935844-.60865 3.41713-.37362.096257-.75929-.132354-.98226.246659-1.06061-.120322-2.14532-.926476-2.77204-1.822871-.2531-1.359632-.1386-3.032101.3676-4.096946.91597.126338 1.3137 1.173134 2.07902 1.45589"/><path d="m269.03468 73.219116c-5.34521 5.420482-11.0098 10.094972-18.27736 11.165833-1.58488.102273-3.32042.595591-4.69438.258691 3.42286-2.965924 7.84606-5.40845 11.19661-8.284134 2.09711-1.257359 4.42321-2.598944 6.20695-4.2293 1.25345 1.558164 3.88688.75201 5.56818 1.08891"/><path d="m365.06164 70.578059c.16873.830218-.03616 1.90108-.62672 2.592928-.90996.16845-2.03082 1.022733-2.5792.048129 1.04252-.926476-.3435-1.810839.00602-3.020069 1.21126-.258692 2.06095.481286 3.1999.379012"/><path d="m400.34484 73.598128c.60262-.16845.68698.282756.84969.655752 2.07903 1.467923 3.20592 4.409783 5.21263 6.028107.95816 2.171802 3.49518 3.405097 4.45334 5.661125-1.13292.246659-2.59125-.324868-3.80854-.457221-1.4523-.64372-3.06129-1.293456-4.29666-2.243996-1.07265-.433157-1.77169-1.100942-2.61535-1.606292-3.48915-3.411114-6.82765-6.677842-9.64789-10.696579.98829-.024065 2.13326.403077 3.27823.601607 1.91632.95054 4.64618.81217 6.57455 2.057497"/><path d="m367.71918 74.314041c.09641.836234-.10245 2.045465-.77135 2.887716-.96419.776073-2.71178.824202-3.78444.234627.05424-.830219-.11449-1.666453-.50619-2.334237 1.58488-.342916 3.15771-1.281424 3.34452-3.020069.07231-.30682.59659-.469254.83161-.180482.84366.439173.6448 1.576211.88585 2.412445"/><path d="m287.11318 74.043318c.79545 1.642388-1.3137 2.442526-1.97658 3.302825-4.92941 3.663789-8.84039 8.596969-15.90908 8.139748l-.30734-.294788c3.02514-3.778094 7.26756-7.50806 11.36535-11.009415 2.36829.709896 4.57386.739977 6.82765-.13837"/><path d="m387.84657 81.822102.84969.517382-.15065.150402c.84968.739977 2.15736 1.467922 2.4888 2.749346-6.65891.824202-11.55216-4.217268-15.74637-8.59697l.09642-2.352285c1.45231.421125 2.86845-.739977 4.30268-1.14907l8.1534 8.681195"/><path d="m362.16305 77.003226c-.34952 1.293456-.85571 2.292124-2.13326 2.923812l-1.74759-.102273c.42183-1.600276.93406-2.292124.43991-4.102962.74724-.553479 1.41012-1.39573 2.47675-1.269392.54839.824202.6448 1.726613.96419 2.550815"/><path d="m374.17923 74.464443c-.19284 1.684501.07834 3.645741-1.87414 4.512056-1.06663-.114306-1.96453.50535-2.81422-.150402l-.60864.012032c-.15066-.379013-.76533-.366981-1.07266-.6738.43388-.830219.71711-1.666453.92803-2.665121.36157-.679817.83763.294787 1.36794.120321 1.59693.198531 2.71177-.739977 4.07369-1.143054"/><path d="m442.05796 82.748577c1.3137.962572 2.92872 1.985304 4.15203 2.424478l.62069.655752c-6.82162.457221-13.4745-1.90108-19.24154-5.336258-1.09677-1.407761-2.23571-1.467922-3.4771-2.641056-1.37999-.800138-2.75999-1.45589-4.07369-2.490655-.01808-.836234 1.13894-.024064 1.34986-.715913 1.97658.258691 3.21195-2.412445 5.06801-.788105 5.068 2.77341 10.67836 5.907784 15.60174 8.891757"/><path d="m405.15372 74.855488c.83764.210562 1.45833.866315 2.36226.619655.47004.529415 1.89824.120322 2.59727.776074 3.63378-.072193 5.03185 4.439863 7.64721 5.967945 1.37396.727945 2.24173 2.081562 3.77238 2.797475.23502.379013.61467.294787.70506.824202-1.96453.348932-3.48312.084225-5.38739-.174466l-.00603-.16845c-4.88119-1.173135-8.67768-4.806843-11.8836-8.825581-.922-.50535-1.16907-1.630356-1.86811-2.147738.22297-.234627.60262-.162434.83764-.024065.31336.529415.75929.060161 1.22331.354949"/><path d="m289.64417 78.603502c.76532.282755 1.8199-.036096 2.51291.397061-1.48244 1.467922-2.90461 2.647072-4.69438 4.042802-2.91667 1.810838-6.0804 3.092262-9.64789 2.785442 2.44662-2.623008 5.66459-4.662458 8.03287-7.369691.90393-.174466 1.09677-1.690517 2.17545-1.185166.46402.601607.93406 1.034764 1.62104 1.329552"/><path d="m299.79826 77.851493c-.42786 1.221263-.70506 2.514719-.75327 3.874351-.89187.776074-1.72951.565511-2.87448.44519-.38568-.44519-1.06663-.433157-1.53065-.794122-.47607-.836234-1.18715-2.177819-.29528-3.104294.63275-2.292124 2.27789.246659 3.40478-.222595.60262-.246659 1.5186-.120321 2.0489-.19853"/><path d="m421.07485 77.683043c2.61536 1.461906 4.24845 3.399081 6.62878 4.481975 2.41047 2.815522 6.88188 2.418462 9.29838 5.252032-5.98399.655752-12.76945-.944523-17.19266-5.089598-2.00068-1.45589-4.54975-3.453227-6.12258-5.841608 1.12689-.409093 2.65151-.360965 4.07971-.776074 1.14498.270724 2.15737 1.401746 3.30837 1.973273"/><path d="m376.74035 80.55271c1.87413 2.454558 4.56783 4.217268 6.60467 6.894421-.66287 1.167118-2.26583.739977-3.32644.685832-3.20592-.764041-5.44163-2.454558-7.70747-5.288129-.922-.50535-1.7054-1.552147-2.25378-2.442526 1.59091-.192514 3.94714-.084225 4.57988-2.153754 1.00035.50535 1.33179 1.714581 2.10314 2.304156"/><path d="m366.85743 79.93907c.09642.908428-.18681 1.738646-1.01239 2.225948-1.28358.246659-2.87448.276739-4.24242.234627-2.1634-1.696533 1.01239-2.141723 1.13292-3.735982 1.46435 1.028748 3.83866-1.227279 4.12189 1.275407"/><path d="m292.87419 80.492549c.47005.836234 1.18716 2.256028 2.33213 2.526751-.71711 1.846935-2.52496 2.478623-4.01945 3.657773-1.7958 1.173135-3.82662 1.90108-6.12259 1.040781.48812-1.828886 2.53099-2.256028 3.63981-3.639725l3.86277-3.723949h.45196z"/><path d="m228.40627 82.598175c1.89824-.036096 3.10348-.517382 4.78478-.024064.01807.902411-.90393.469254-1.34384 1.0107-5.73691 4.969277-9.95523 9.848313-16.3068 14.300208-1.57886.800138-2.83833 2.268061-4.6522 2.526751-2.30803 1.86498-5.47779 2.68919-8.34022 3.89842-2.04287.03609-4.61002.70388-6.59865.14438 1.47641-1.99733 4.41115-3.21258 6.1949-4.915131 8.00877-4.873019 16.07178-11.033479 22.68249-17.542871 1.22331.50535 2.42252-.210563 3.57954.601607"/><path d="m246.85236 82.574111c-1.64514 1.329552-3.22399 1.810838-4.40512 3.501355l-.15066-.13837c-4.93543 3.579564-9.62378 7.550173-14.24585 11.37038-.7593.084225-1.27152.938508-1.86811 1.401745-3.36261 2.195869-6.73123 4.241329-10.96763 4.860989-1.57885.7881-3.18181.37901-4.99569.56551.42183-1.37768 1.78375-1.78677 2.66959-2.78544 6.26119-4.981312 12.45006-10.269441 18.4702-15.864389 2.80217-.13837 5.44163-1.022733 8.17751-1.010701.36157-.541446 1.28357-.024064 1.72951-.421125 1.88619-.565511 3.69404-1.137038 5.5742-1.786774z"/><path d="m375.87258 89.438451c-2.33213.806154-4.7908-.427141-6.79149-1.744661-1.5427-.95054-2.03684-2.91178-3.19989-3.946545-.09642-.830218.89187-.776073 1.3378-1.245327.28926-.679816.95816-1.305488.94009-2.207899 2.56714 2.899747 5.29097 5.865672 7.71349 9.150448"/><path d="m360.37931 82.128921c-.19887 1.137038-.03014 1.973273-.46402 3.044134-.90392.162434-1.48846 1.311504-2.55509 1.112973-.40978-1.51605.61467-3.206567-.2531-4.475959-.15668-.445189.13257-.902411.51222-.986636 1.00035.655752 2.49483-.36698 2.75999 1.305488"/><path d="m256.9703 83.867567c.01205.529414-.7352.84225-.49415 1.528083 1.15703.950539 2.88051-.216579 4.10985.655752-2.82025 2.797474-5.57421 5.203904-8.4065 7.694558-2.6696 2.707234-5.42355 5.197888-9.03925 6.4733-.51223 1.00468-1.13292.19251-1.72349 1.02273-.67493.18048-1.13292.25869-1.88619.42714-1.35588.3369-3.01911.90241-4.24844.09024 5.86346-6.040138 13.18525-11.280138 19.28373-16.790862.74724-.53543 1.50051-1.0107 2.40444-1.100941"/><path d="m268.26333 86.496591c.60262-.246659.69301.366981 1.00035.50535-4.39911 3.669805-8.30406 8.897774-13.4022 11.893779-3.24207 1.046796-5.85743 2.70122-9.43095 2.47862-.01808-.83623 1.11484-1.0107 1.09676-1.913109 3.3385-3.495339 7.0687-6.455248 10.85916-9.944571 1.48243-1.395729 3.27823-2.502687 4.38102-4.181171 1.74759.036096 3.77238-1.155086 5.58625-1.491987-.28925.679817-2.15134 2.328221-.09641 2.653089"/><path d="m299.61145 83.079461c1.01842 1.419793 2.24776 2.304156 2.95885 3.573548.0241.986636-1.20524.324868-1.65117.866315-1.36192.186498-2.13327-.553479-2.91667-1.59426-.48209-1.131022.62672-2.448542 1.60899-2.845603"/><path d="m297.26727 83.512618c-.58454.998669-.40978 2.045466-.01205 3.104295.31938.529414 1.01239 1.046796.95213 1.798806-2.073 2.243995-5.39944 2.77341-8.37034 2.382365.87379-1.606292 2.36225-3.092262 3.85674-4.102963 1.11484-1.076877 1.92838-2.009368 3.04322-3.170471z"/><path d="m252.15539 85.708485c-6.3335 5.456579-12.28735 10.576258-19.09089 15.208635-3.09745.89038-6.24914 2.3944-9.52135 2.08758 0-.1504-.07834-.2226-.15668-.28877 3.42287-3.188523 7.0687-6.455251 10.87723-9.108339 3.05527-2.71325 6.71918-5.215937 9.78047-7.556189 3.03719.150401 5.37534-.505351 8.10519-.715913z"/><path d="m364.21195 83.711149c1.28357 3.224615 3.47107 6.124363 5.13429 9.27077-3.78443.234627-5.83333-3.038118-8.53305-5.04147-3.07335-1.816855 1.69335-2.29814.81353-4.487991.98829.36698 1.59091.048128 2.58523.258691"/><path d="m277.00127 86.989909c.6207.589575-.42785 1.293456-.79545 1.750678-5.12224 5.264064-10.58195 12.278803-18.71727 11.707283l-.00603-.37902c4.36897-4.794807 9.07541-8.374371 13.22141-12.934555l-.08437-.457222c1.66925.030081 3.40479-.601607 4.98364-1.17915.09039.685832.48812 1.588243 1.1751 1.564179.07834.084225.15066 0 .22297-.072193"/><path d="m284.79913 85.979209c-.20489 1.143054-1.72348 1.022732-1.47038 2.304156.54235.294788 1.15099.50535 1.69335.95054-2.28994 3.008037-6.09245 5.889736-8.84641 8.530793-2.54907 1.269391-5.32111 2.917792-8.59331 2.454562.9461-1.756698 2.57317-3.53144 4.13395-5.083587 2.2116-2.929828 5.50791-5.053502 7.33384-8.193892 1.89824.036096 3.85072-.842251 5.74896-.962572"/><path d="m405.7021 86.201803c1.09676 1.341585 2.27186 3.056166 3.51325 4.397751l.01206.372996c1.01239 1.576211 2.48278 2.905764 3.50723 4.481975l-.15066.13837c1.09074 1.197199 2.33815 2.761378 3.35055 4.018737-2.35623-.318852-4.75464-2.231963-6.60468-3.711917l.14463-.156418c-3.16374-2.346269-5.35726-5.48666-7.47847-8.693227.37965-.162434.97624-.631688.51222-1.082893-.62672-.806154-2.00671-1.467923-1.9585-2.526752 1.62104 1.106958 3.31439 2.129691 5.14634 2.761378"/><path d="m393.60156 84.655672c2.06697.854283 4.2846 1.491987 6.49621 1.90108 2.97692 4.325557 5.9659 9.186545 8.64754 13.746728-1.2896.02407-2.52496-.998667-3.8929-1.125005-2.84435-1.684501-5.00774-3.525419-7.3459-6.274765-1.63911-1.858967-3.51325-4.313525-5.07403-6.322894-.09039-.613639 1.04856-.703881.65083-1.45589l-1.39205-1.257359c.83162-.096257 1.22934.727945 1.9103.788105"/><path d="m386.7257 86.015305.00603.156418c1.28357-.108289 2.51894.619656 4.10382.360964 3.18181 3.104295 5.92975 7.297498 8.51497 10.949255.93406 1.191183 2.17545 2.448542 2.59125 3.880368-5.32713-.56551-9.42492-4.114995-13.01652-8.578922-1.1751-1.564179-2.79614-2.887715-3.82059-4.536119.65083-1.528083-1.39807-1.630356-1.7295-2.689185l-1.39205-1.329553c1.68733.788106 2.99501 1.750678 4.74259 1.786774"/><path d="m418.54989 86.977877c.68698.36698 1.36794.204546 2.35623.258691 6.96624 6.052171 13.02254 12.363032 20.45883 19.167212-3.3385-.07219-6.8638-1.51605-9.85278-2.80951-7.40013-5.300158-13.7035-12.350997-19.85019-19.034855 2.07903 1.161103 4.61002 2.466591 6.88791 2.418462"/><path d="m303.69116 89.197808c1.0124 1.269392.90393 3.176487 2.29597 4.349622-.65685 1.082893-1.74156.258691-2.57317.433157-.6207-.739977-1.92235-1.311504-1.88017-2.677153.5966-.691848.86777-5.54682 2.15737-2.105626"/><path d="m300.71424 88.590185c-.79546 1.540115 1.63309 5.113663-1.71144 4.957245-1.80784.577543-3.01308.908427-4.46538.403077 1.31973-2.153755 3.48915-3.411114 4.8149-5.324226.60262-.024064.68096-.024064 1.36192-.036096"/><path d="m358.59556 87.236568c1.7958 2.165787 3.38068 5.300161 5.11019 7.92317.01205.529414.62069.739977.56043 1.3476-4.25447-.13837-7.38205-4.379702-10.03356-7.435867 1.13292-.318852 2.00068-2.231964 3.23002-1.576212.21694-.541446.75327-.162434 1.13292-.258691"/><path d="m289.48749 88.836844c-.43991.607623-.80751 1.14907-1.32576 1.846935.62672.818186 1.16908 1.335568 2.22968 1.161102.23502.372996.69904.824202.17476 1.058829-2.45265 2.322204-5.15237 3.898416-7.98467 6.238669-.74724.469253-1.80182.938511-2.77806 1.269391-1.36191.17447-2.93474 1.11297-4.24242.24666 2.95282-3.549484 6.23708-5.979978 9.20195-9.37906 1.18113-1.383697 2.51894-2.77341 4.34487-2.442526z"/><path d="m410.89666 87.531356c2.25378-1.112974 3.3867 2.26806 4.85106 3.218599 3.6398 3.338921 6.59865 6.60565 9.63584 10.094975 1.99466 1.47995 4.03753 4.1571 5.88756 5.78144-1.36191-.12032-2.44059-.77607-3.80853-.89037-3.36863-1.22728-5.67063-2.52676-8.45472-4.7527-3.42888-4.006708-8.3161-8.975985-11.0098-14.0716 1.00034.667784 1.97056-.120321 2.89859.619656"/><path d="m427.13115 87.332825c.62069.517383 1.30767.715913 2.06697.788106 1.85606 1.618324 3.40479 3.032101 5.48381 4.265397 4.17614 3.465258 9.20798 8.362342 13.60709 11.677202.23502.14438.31336.51738.693.35495l-.14462.16243c1.09073 1.40776 2.48278 2.66512 4.02548 3.84427l-.07232.1504c.00603.15642.23502.15642.38568.14439l-.14463.16243c.45799.29479.99432.57755 1.22934 1.03477-.72917.98663-1.59694-.66177-2.72986-.33089-.77135-.58957-1.98261-.40909-2.60933-1.14907-1.67527-.49332-2.98898-1.29345-4.51962-2.09359-8.0148-5.51072-14.46883-12.338969-21.74843-19.15518.67493-.312836.89789-.469254 1.7295-.64372.9883.282755 1.7717 1.173134 2.74191.776073"/><path d="m440.40076 86.653009c.46402.445189 1.36794.19853 1.9103.64372 1.58488-.493318 3.56749.150402 5.23071-.114306 8.68371 4.734651 16.35502 11.996052 24.51444 17.187927 1.32576 1.47995 2.92269 1.8349 4.02548 3.32689-7.06869-.37902-13.95057-2.79748-19.29578-7.53213-3.54941-2.72528-7.41218-5.679173-11.10622-8.169827-2.24776-1.913112-4.2605-3.687854-6.79149-5.155776.14462-.30682.98226-.174466 1.51256-.186498"/><path d="m379.51238 89.197808c1.5186.204547 3.19387.391045 4.54373-.469253 3.51326 4.469942 7.71952 9.451252 11.61242 13.915175v.2226c-1.36191.03609-2.59125-.84827-3.80251-.66779l-.00602-.15641c-7.02651-1.96124-9.43095-7.814884-14.09521-12.796193l-1.15702-.806154c.82559-.403077 1.45833.727945 2.2116.409093z"/><path d="m372.02788 90.587521c1.83799.631688 3.48915-.150401 5.31508.036097 2.19353 3.056165 4.76067 6.028106 6.50224 9.246706 1.47641 1.937176 2.79614 3.194536 4.21229 5.131706-6.93612-1.13703-11.91976-6.85832-16.13205-12.062224-.77135-.739977-1.78375-1.786774-2.33815-2.833571l-.55441-1.046796c.84969.589575 2.06697.860298 2.995 1.51605"/><path d="m356.01034 93.956523c1.57885 2.77341 4.11587 4.163123 5.31507 6.936537-.75327.31885-1.60296-.34292-2.27789-.02407-.77135-.58957-2.29597-.926474-3.07334-1.750676-2.06698-.788105-3.63378-2.947876-5.18853-4.662457.2772-1.365649 1.78977-1.31752 2.13929-2.77341.1386-.601608.12052-1.365649.4158-1.738646.56646 1.504019 2.18148 2.442527 2.6696 4.024754"/><path d="m440.07535 89.095535c4.7908 4.054834 9.88894 7.95325 15.12568 11.394445 1.61501 1.32955 3.2481 2.96592 4.86914 4.15109 1.85003 1.55215 3.93509 2.93584 5.56818 4.79481-1.4282.48129-2.96488-.16845-4.55578-.04813-3.03719-.30682-5.59229-2.21993-8.2679-3.38705-2.84435-1.66645-5.25482-4.27743-8.33419-6.328907-3.42889-3.940528-8.89462-7.604317-12.76945-11.081608 1.59091-.330884 2.74793.553479 4.33282.210562 1.51859.120322 2.93474-1.046796 4.0315.294788"/><path d="m294.63986 91.748624c-.12655 1.143054-1.55475 1.774741-1.60296 2.917796.69301.583559 1.45231.571527 2.21763 1.0107-3.79648 3.182503-7.56284 7.96528-13.12499 6.95458l.5062-1.07086c3.33247-3.78411 7.06869-6.365006 10.71452-9.619702.45799-.096257.82559-.553479 1.2896-.192514"/><path d="m303.82374 95.346236c1.13292-.258691 2.26584-.589575 3.39876-.848267.15668.156418.38567.294788.31336.529415-2.15737 1.870999-5.16443 3.290792-8.12328 3.290792l-.53632-.360964-.15066.150402c-.31336-.379013-.77135-.433157-.55441-.974604l3.04322-3.176487c.90995.048128 1.844 1.022732 2.60933 1.389713"/><path d="m371.42527 94.161069c3.43491 4.391734 7.32782 8.777451 10.00946 13.415841-1.60899-.64372-3.224-1.59426-4.85106-2.996-3.74828-1.35963-4.8812-4.51206-7.66529-6.954582-.62069-.667784-1.25344-1.714581-2.0971-2.153755-.32542-1.04078-1.69336-1.016716-1.56681-2.231963 1.62104 1.094925 4.20627 1.341585 6.1708.920459"/><path d="m298.35801 95.075513c.03013 1.365648-2.40445 1.353616-1.30166 3.056165.24708.986636 1.53065.50535 1.69938 1.407761-3.12758 2.647071-6.39376 5.817541-10.65426 5.619011l-.46401-.44519c1.85003-2.16578 4.00137-4.40978 6.4721-6.136392 1.25947-1.161103 2.90461-2.40643 4.24845-3.501355"/><path d="m359.16202 95.791425c3.66391 4.229305 7.60502 7.556185 10.29269 12.351005.72314 1.7988 1.53065 3.89841 1.04253 5.95591-1.06663-.27072-1.01842-1.47996-1.94645-2.14774-2.88654-3.57355-6.23106-7.35766-9.93715-10.16716 1.36191.19853 2.51894.70388 3.86277.07219l.66891-.84827-4.21229-5.203902.22296-.012033"/><path d="m375.69179 108.68387c-.06628.54145.54838.73998.33144 1.35963-1.99466-.9385-3.60967-2.04546-5.23674-3.45322-3.16373-2.41846-5.44765-6.15445-8.16545-8.988016 1.14497.282755 1.90427.258691 3.03116-.060161.22297-.234627.06629-.607624.13258-.914443l-.46402-.433158.29528-.234627c3.65789 4.072885 7.45437 7.784805 10.07575 12.723995"/><path d="m352.14756 97.614296c1.69938 1.467922 2.57318 3.278764 4.56784 4.066864.15668.52942 1.29562.64372 1.24139 1.47996-.3676.38502-1.05458.17446-1.51257.49331-.15065-.45722-.60262-.22259-.90995-.28275-1.6813-.72795-3.74225-1.20923-4.98967-2.62301-.61467-.44519-1.5427-1.022732-1.9344-1.702549.74122-.776073 2.01877-1.479954 1.98864-2.689185.7593-.162434 1.01239 1.034765 1.54872 1.245328"/><path d="m303.52243 98.751334c.3917.685832-.65685 1.155086-.6448 1.834906-.72314 1.6123-1.05458 3.80817-2.92872 4.68652-1.95247 1.02273-3.83264 1.90709-6.26118 1.7988 1.77169-2.23196 3.70006-4.16914 5.62241-6.55752.66288-.842247 1.33781-1.395726 2.3261-1.269388.68096.060161 1.04855-.703881 1.88619-.493318"/><path d="m347.9413 99.750002c1.28357 2.996008 6.52031 3.116328 6.00809 7.369688.01205.44519.17476 1.43183-.6448 1.61231-1.66925.17447-3.34453-.01203-4.35692-1.26939.92803-2.52675-.80148-5.37236-1.45833-7.700576z"/><path d="m348.04977 104.59294c.47607 1.0468-.18078 2.04547-.23502 3.0321-1.44628.0361-3.03116.1504-4.26653-.72794 1.17511-1.62434 2.04287-3.76005 1.84401-5.65511.14463-.373.66891-.91444 1.05458-.54746 1.0124 1.11297 1.34383 2.54479 1.60296 3.89841"/><path d="m366.86346 114.41719c.03013 1.51605 1.21729 3.67582.6448 5.2039-.92803-.72794-1.56078-1.78677-2.25981-2.66512-3.3385-3.33892-5.32713-7.54415-9.91907-9.33093-.40375-1.05883-.35555-2.26806-.7593-3.24266 1.5186.0361 3.51326.98664 4.62207-.39706 3.09142 2.41846 6.5866 6.2146 7.67131 10.43187"/><path d="m347.86296 109.82091c.33746 1.51605.22899 3.71192-.80751 4.79481-1.28357.34292-2.36225-.39706-3.43491-.90241-1.62104-1.25736.07834-3.33892-.71712-4.91513-.07834-.30081-.3917-.66779-.09039-.90241 1.5427 1.32955 4.01945-.01204 5.04993 1.92514"/><path d="m342.01155 109.50206c.02411 1.21524.14463 3.10429-1.04855 4.03077-1.21126.25869-1.45231-.3369-2.4406-.53543.80148-1.38972 2.2116-2.70724 1.7958-4.36166 1.04855-.8603 1.52462.27073 1.69335.86632"/><path d="m354.68458 109.52612.51825-.53543c.31939.66779.68096-.24666.99432.19853 3.55543 2.87569 6.38773 7.74269 7.62912 12.11036-.21694.68583.03616 1.96726-.62672 2.67114-3.54941-6.06421-9.01514-9.728-14.20367-14.31224l-.01205-.67982c1.62706 1.54613 3.80853.81819 5.70075.54746"/><path d="m358.34246 120.51749c-.13257.90241.32541.9746.19284 1.87701-1.45833-.64372-2.70575-2.36431-4.01945-3.31485-2.15135-1.24533-3.64583-3.62769-5.56818-4.80685-.16873-.83021.18078-1.97327.47004-2.73731 2.79614 2.82154 7.31577 4.91513 8.92475 8.982"/><path d="m343.36141 115.75877c-.20489.91445.50017 1.96125-.31938 2.73732l-.97624.46925c.1386-.75201-.68699-.19853-1.00035-.57754-.39772-1.05883-.81353-2.62903-1.67527-3.76005 1.53065.42113 3.7543-1.88904 3.97124 1.13102"/><path d="m344.87398 115.57829c1.22331.19853 2.58523.24666 3.79046-.16243 2.56112 2.29212 4.29666 5.28813 4.59796 8.84964-.45799-.15641-.77135-.58957-1.15702-.89639-2.93474-2.3583-4.97159-5.10765-7.74362-7.17718l-.01808-.67981.5303-.01204z"/></g><path d="m357.57111 150.11056c2.01877-1.00469 3.42286-2.38237 3.42286-2.38237-.6448-1.72661-1.21728-3.60964-2.68164-4.48799l.15065-.07219h-.3013c-1.49449-2.31619-4.39308-3.00804-6.47813-4.62636-.76532-.13236-1.24139-1.25736-1.85003-1.32956-.36157.84827-.80148 1.61231-1.86209 1.78678-2.77806-2.51472-6.36363-3.1825-8.69576-5.79348-1.30768-.72795-2.00671-1.55215-3.09142-2.50269l.14463-.1504c-1.5427-1.19118-2.66357-3.96459-3.54339-6.0642l-1.4041-1.10696c-.2772-.25869-.57248-.70388-.98829-.72794l.14463-.16244c-1.45833-.71591-1.10279-1.78677-2.48278-2.44854-.27118 1.44987-.09039 2.7313-.06026 4.10296.08437.44519.56646 1.57621-.42183 1.51605-2.07903-1.39573-3.56147-3.4051-4.97159-5.49869l.06629-.07219c-.5303-.36097-.47607-1.28143-1.08471-1.33557-.80148 1.45589-.59659 3.94654-.56646 5.30618.09642 1.29345.95213 2.03343.8979 3.24266h-.44594c-2.92269-1.66645-4.8149-4.88505-6.55647-8.17584-.51825.69184-.71711 1.90108-.77135 2.73731-1.12086 4.48799.36157 9.6919 2.64549 13.3617 2.80819 3.86232 6.32145 8.3443 11.00981 10.65447 2.33212 2.61097 6.19489 2.29212 8.95488 3.74801 5.01377.12032 9.06335 1.38971 13.84813 1.43784.63275.38503 2.01876-.10829 2.84435.17447 0 0 2.11518-.09626 4.13395-1.11899" fill="#fff"/><path d="m358.33041 150.5016c-2.41649 1.10696-4.30871 1.31752-4.30871 1.31752-.28926.60763-.97624.39706-1.27755.4091-.3013.08422-.52427.45722-.21694.67981 1.99466.87233 3.8447 2.04547 5.53202 3.0682.54236.36698.90995-.17447 1.35589-.49332-.6207-.81217-1.91632-1.0107-2.92269-1.82287-.46402-.51738.20489-1.14907.65082-1.37166 1.07266.42112 2.07301 1.0107 3.07938 1.73864 2.44662.85428 3.85072 2.72528 5.26686 4.88505.97624-.39706 1.18113-1.54011 1.61502-2.45455.12655-3.80818-2.85038-5.96795-5.50792-8.21195 0 0-.84969 1.13704-3.26618 2.244" fill="#ffb30f"/><path d="m333.69544 124.22941c.34349.38503.28323 1.1972.62672 1.58222 1.41013 2.08157 2.67562 4.56019 4.97762 5.72731-2.51291-4.19922-3.83264-8.93387-4.47142-13.92721l-.49414-1.65442c-.83764-.13236-.59057.84225-1.18716 1.1611-.84366 1.78677-1.61501 3.56151-.92803 5.66112z" fill="#a54a00"/><path d="m350.2674 125.99212c-3.43492-.83624-6.12861-2.58691-7.64721-5.96795 1.13895.04211 1.49449-1.16712 1.85606-1.93116 2.77204 1.82287 4.58592 4.96928 5.79115 7.89911" fill="#a54a00"/><path d="m336.46748 119.7715c1.10881 2.0214 1.83798 4.05483 3.31439 5.60698.09642.98663 1.16305 1.26939 1.63309 1.85896l-.15065.16244c1.88016 2.67715 6.27926 2.51472 6.59865 6.67182.69301.50535.56646 1.42581 1.03047 2.02141-.29528.30681-.36157.84826-.66287.84826-4.11588-.73998-6.55647-4.78278-8.67166-7.85098-1.19318-2.46659-2.30802-4.86098-2.89858-7.57423-.3917-.52942-.4821-1.28143-.42184-1.74466z" fill="#a54a00"/><path d="m346.91082 128.63317-.1386.69185c-3.88687-.75201-6.70109-4.54213-8.44868-8.13975.8979-.40909 2.28392.31886 2.94077-.75201 1.87413 2.38237 3.54338 5.74536 5.64651 8.19991" fill="#a54a00"/><path d="m354.00965 120.15051c6.1045 5.0174 9.84675 12.89245 14.16149 19.38981-.74725.38502-1.88619.3369-2.72985.12633-5.20059-1.84693-6.68905-7.42383-9.13567-11.76142-2.17545-2.30416-1.63309-5.19187-2.60331-7.74269z" fill="#a54a00"/><path d="m355.43182 129.58371c2.27187 3.2908 3.6157 5.75739 5.67063 9.27077-1.05458.55348-2.58523-.09024-3.73623-.59559-2.71177-2.67114-4.24242-6.49736-6.21297-9.94457.21091-.67981 1.0365-1.14907.48811-2.05148-.32541-.9746-1.10881-1.94319-.97623-2.85763 1.63911 2.15977 4.1701 3.15843 4.76669 6.1785" fill="#a54a00"/><path d="m349.6226 127.6706c.87982 2.10563 1.68733 4.27743 3.16976 6.0642.48812 1.43183 1.73554 3.0682 2.66959 4.2654l.01206.29479c-1.13292.48128-1.98864-.55348-3.04924-.61364-2.54305-1.61231-3.59762-4.77075-4.94749-7.38774.43991-.76404 1.10279-1.54012.78341-2.36432-1.07266-.35495-2.00672-1.39573-2.10314-2.38838.93406.98062 2.9709.54145 3.46505 2.12969" fill="#a54a00"/><path d="m352.56337 144.05237c.61467.28877 1.60296.5595 2.00069 1.31151-.28926.69786-.72917 1.30548-1.48847 1.40174-2.20557-.33088-2.63343-2.51472-4.83901-2.62301-.30733-.29479-.24105-.66778.1386-.76404 1.45231.42714 2.74793.7099 4.18819.6738"/><path d="m254.4152 146.87993c1.13895.13235 2.073 1.09492 2.76601 1.6123.7834 1.11298 1.2655 2.32822.54236 3.92248-1.0365 1.0107-2.62741 1.35362-3.65788 2.58692-3.453 1.73864-7.06267 3.25469-10.52169 4.85497-.91598-.13236-1.27152.92647-2.1875.57152-1.87414 1.02274-3.98932 1.44988-5.86346 2.47863-1.30768-.80616-.36759-2.71325-.84969-3.99468.33747-1.97327 2.19955-.12633 3.39876-.75201l.23502.29479c2.19955.02407 4.23037-.77607 6.12258-1.125 2.25379-1.03477 5.68268-.57755 6.89996-3.78411l-.35554-2.34026c-1.85606-1.55214-3.82661-1.35361-6.55647-1.37166-1.19318.93851-5.38739.19853-4.32678 3.51339.71108 1.26939-1.31974 2.06351-.15669 3.32087-1.12086.25869-2.03081.72794-2.86242.4512-.9883-.04812-1.23537-.80013-2.36829-.4873.33144-2.11164 2.26584-4.04882 3.60365-5.36634 4.40513-3.36298 8.75602-5.2039 14.38446-5.0174.45196.21056 1.44628.1143 1.75964.63169" fill="#0a1f62"/><path d="m249.37733 152.60723c-.18681 1.75068-2.06698 2.3944-3.34452 2.94787-.82559.46926-1.5186-.03609-2.1875.72795-1.14497-.35495-2.40444 1.11297-2.44663-.77607.19887-1.44386-.04821-2.57488.60262-3.80818.60262-.08422 1.36794.19853 1.72951-.48128 2.36828.55347 5.05595-1.47996 5.64652 1.38971" fill="#0a1f62"/><path d="m259.35666 154.28571c-.03013 2.04547.74724 2.85162.56646 4.74669.56043 1.35963-.47004 2.89974-.06026 4.25336-1.84401 9.4332-11.30509 13.87908-19.5971 16.41185-7.18921 1.14305-13.23346 5.81754-18.21107 10.77479-.36759.30682-.19886 1.07086-.95816 1.09492-1.55475-1.64238.09039-2.65309-1.01239-4.45189-.05424-5.9138-.42184-12.26678 3.27823-16.74274 1.63912-1.32955 3.65788-2.58691 5.39342-3.23063.51825-.39104 1.72348-1.02273 2.70575-1.19118.81955-.55348 2.12121-.04813 2.63343-.96257 2.41649-.51738 4.50757-2.21993 6.84573-2.65309l-.07834-.15642c.693.45121 1.65719-.71591 2.41046-.72794 2.71178-1.11298 5.32713-2.53879 7.96057-3.57957 2.92871-1.43784 5.47778-3.00202 7.86414-4.79481.3917.36097-.05423.76404.2531 1.20923" fill="#0a1f62"/><path d="m291.24713 182.21233c2.42854.09626 5.60433-.42113 7.82196.28275 1.59091-.17446 3.64583.0722 5.17648.72795l.15065-.16244c1.70541 2.00937 1.45231 4.43987 1.51257 6.94255.37362 3.24267 1.66925 6.93654 2.27187 10.25741.18681 1.50402-1.12087.40308-1.72349.7099-.76532-.20455-1.75361-.56551-2.7419-.61364-1.53668-.64372-3.94714.08422-5.10417-.64372-.67493.38503-1.44628-.27073-2.04889-.10829-3.49518-.1504-6.68302-.1504-9.25017.43316-3.55544.52941-6.65891.89639-10.05767 1.57621-.59659.62567-1.59091.10829-2.19352.50535-4.60399 1.08289-8.87655 3.52542-13.39617 5.06553-.20489.76404-1.21126.1865-1.65117.56551-4.12792 2.21993-8.41253 4.04882-12.70316 5.73332-9.4671 4.30149-17.90976 10.17318-26.03906 16.79086-.922-.50535-1.10279-1.95522-.97624-2.94186-.5062-5.73332-.16873-11.12372-.22899-17.18792-.21695-3.17047 4.25447-3.27876 5.72485-5.4265 2.22969-2.24399 5.7791-2.92983 8.08109-5.25203 4.95351-2.61098 9.35261-6.19656 14.86053-7.67651 1.64514-1.02273 3.24208-.90241 4.88722-1.92515.30131 0 .68698.13837.90392-.09625l-.07834-.1504c1.44628.04812 2.77807-1.34159 4.30269-1.07087.59659-.54144 1.73553-.57754 2.48278-1.125 1.0606-.01203 1.9585-.63771 3.2481-.60161 1.65117-.93851 4.23639-.61364 6.11656-1.49199.68096-.01203 1.50051-.63168 2.26584-.49331 1.27152-.78811 3.48312-.16244 4.37499-1.16111 1.60296.42113 2.95282-.22861 4.46539-.62567 3.3385.14439 4.84504-.49332 8.17751-.7881.53633.36698.90995.13235 1.36191-.0361" fill="#0a1f62"/><path d="m447.66229 181.96567c1.98261.55348 3.53134 1.96726 5.1584 3.44721-2.21763 2.70122-5.54407 3.14641-8.62344 4.66246-1.4282.70388-2.89859-.77608-4.28461-1.4198-1.67527-.49331-3.1336-.99866-4.50757-1.49198l.07232-.15642c-.68096.01203-1.151-.58356-1.60899-.80014-.2531-1.125 1.56078-1.46792 2.22968-2.08758 1.94645-1.03476 4.35089-2.37635 5.67665-4.06686 2.13326.25869 4.11587.8242 5.88756 1.91311" fill="#0a1f62"/><path d="m231.81708 185.72572c-.57851 1.29345-.16873 2.6591.77135 3.84427 1.08471 1.03476 2.47073 1.91311 3.54941 2.72528 1.07266.35495 2.22366.93851 3.35055.60161.15668.45722.69903.73997.56043 1.35963-.90392.46925-2.18147.87233-3.15771 1.42581-3.37465 1.58223-6.50826 4.15711-9.9733 5.14374-1.45833-.49332-2.45868-1.3837-3.70007-2.49065-1.32576-1.56418-2.27186-3.20657-1.47641-5.11968 2.28392-2.92983 5.19456-5.26407 7.88223-7.28547.60864-.01203 1.9344-1.78677 2.19352-.20454" fill="#0a1f62"/><path d="m417.26631 183.8487c2.50689-.06016 4.41116.34893 6.84573.52942.46401.36096 1.37396.34893 2.06095.48128 3.8929 1.12501 7.47244 1.72661 11.0098 3.85029 4.43526 1.7988 8.90065 4.57221 12.46814 7.76073 1.151.72795 2.54304 2.05149 3.17579 3.11031-.13258.83624-.17476 2.11766-.30734 3.11633-.33144 2.19587-.20489 4.46393-.922 6.44923.01808.76404.04821 1.97327-.3917 2.73732-.05424.91444.28323 2.57488-.15668 3.26672-1.74156.10829-1.63309-1.70255-2.94077-2.51472-1.47038-1.40776-3.09142-2.65308-4.86312-3.74801l.15066-.09626c-.84366-.50535-1.91632-.78209-2.53702-1.59426l-.15065.15041c-2.68767-1.69052-5.21866-2.68919-8.1293-3.91045l-.14463.1504c-1.46436-.87835-3.59159-.98664-5.04992-1.86498-.30734.01203-.99432-.35495-1.37397-.19252-.45799-.13837-.98829-.28275-1.66925-.1143l.15066-.15642c-1.68733-.71591-3.65789-.59559-5.48984-.93851-2.43457-.24666-5.24277-.25869-7.67734-.51738-.21091.54145-.52427.09626-.83161.02406-5.99001.13236-11.66666 1.09493-17.01789 2.79748-2.48881.58957-4.50155 2.29212-6.99035 2.88771-3.35658-4.09694-4.66426-8.30218-8.23175-11.94792-.16873-.98664-.25912-1.28142-.04218-2.04547 2.53099-1.86498 5.40547-2.53878 8.10519-3.9706 1.51257-.2587 2.63344-.87835 4.07972-.67982 1.27755-.78811 2.41649-.66778 3.69404-1.29346.30733.29479 1.0606.04813 1.51257-.27072 3.70006-.76404 8.84038-1.77474 13.08883-1.64239 2.65754.01203 5.91769-.13235 8.58126.1865" fill="#0a1f62"/><path d="m303.89003 201.65026c.08436.29479.61466.12634.922.34894.68698.28275 2.79011-.81819 2.59728.92046-2.85641 4.53611-9.33453 3.39306-14.08918 4.48799-4.62207.39706-9.4189-.17447-14.2097-.60161-.31336-.59559-1.28357.10829-1.6813-.64372-.74724.61965-1.151-.66177-2.05492-.25869-.3917-.44519-.76533-.21056-1.22934-.65575-.15065-.14439-1.05458.17446-.91598-.50535.12655-1.21525 1.96453-.42715 2.70575-1.2694v.13837c2.27187-.42112 3.91701-1.07086 6.35158-1.26939 1.12087-.46925 2.33815-.57754 3.84469-.76404 4.76068-.93851 9.40082-.36096 14.03494-.30682 1.36794.12032 2.28392.24666 3.72418.37901" fill="#0a1f62"/><path d="m401.86343 204.49587c2.19955 3.35697 3.18182 6.82222 2.06095 10.85299l-1.13894.02407c-2.58523-3.65176-7.0928-5.06554-10.92544-6.73199-1.66925-.03609-3.35658-.60161-4.43526-1.47995-.16873-.67982.66288-.77608.95816-1.16111 3.09142-.89639 6.25516-2.10562 9.20195-2.77341.59659-.16845 1.87414-.57754 2.71781-.4512l1.55475 1.7206" fill="#0a1f62"/><path d="m438.64715 206.93839c2.94077 2.3583 5.9418 4.2654 8.6596 7.08694.98829.49933 1.98863 1.08891 2.61536 1.9853-.49415 1.22127-2.24776.96257-3.37466 1.43183-.1627-.44519-.98829-.12032-1.22331-.42113-.51825.53543-.61467-.36698-1.21728-.04813.07231-.22259-.15668-.29478-.31336-.44519-.15066 0-.229.07821-.22297.15041-1.38602-.80014-2.98898-1.37768-3.78443-3.02007-1.86812-1.99734-3.37466-4.85497-2.89859-7.43587.97624-.40308.94008 1.26939 1.75964.71591" fill="#0a1f62"/><path d="m308.96406 211.30606c1.40409 5.11367.28323 9.46329-.20489 14.76946-2.10916.88437-4.61605.78811-6.79752 1.58825-3.03116.07219-6.39979 2.19586-9.48518 3.62167-4.35692 1.99734-8.30406 5.34228-12.35364 7.69456-2.68165 2.25603-6.0563 4.00671-9.0513 6.04014-2.22969 1.85295-4.92941 3.35697-7.56284 4.62636-1.78375 1.47996-3.81457 2.21392-5.76102 3.31486-2.98898 2.25603-6.37568 3.39908-9.60571 5.13773-1.0365 1.0107-2.42251.19853-3.53736 1.29345-1.74156.10227-2.01273-1.77474-2.64548-3.12836-1.83798-4.12702-5.23674-6.70792-7.89428-10.28147.19886-1.29345 2.03684-.50535 3.01911-.75201.82558-.55348 2.03684-.57754 2.8564-1.28142l-.15668-.13837c1.21729.19853 1.88017-.95656 2.93474-1.20321 2.69973-1.34761 5.32111-2.92382 8.1052-4.12102.06629-.52941.45196-.08422.6689-.39104 2.54907-1.33557 4.38705-4.10898 7.02049-5.22797 2.30199-2.24399 5.30302-3.82622 8.06301-5.85965 4.57386-2.67114 9.34658-6.64175 14.15546-8.65112 1.7958-1.24533 3.52531-2.11164 5.70075-3.14641l-.15668-.15641c1.81388-.49332 3.69404-1.20923 5.42958-1.54613 2.10313-1.03477 4.58591-2.06953 7.00843-2.21392 2.79614-.80615 5.88154-1.63036 8.85846-1.17313.60262.22259 1.29563.57754 1.39205 1.18516" fill="#0a1f62"/><path d="m394.64409 211.08347c2.995 1.6845 5.23673 3.37502 7.64117 5.67917-.71108 2.3583-3.27823 2.79146-5.00171 3.97061-1.89222.1865-3.34453-.23463-5.17045-.57754-1.99467-.93851-4.06164-1.72662-6.35761-2.51472-.47004-.65575-1.83195-.56551-2.30802-1.3837l-.60262.02407c.07232-.16845-.08436-.24065-.08436-.30682-.45799-.06017-.9883-.50535-1.53065-.49332 0-.15642-.07231-.23463-.15065-.30682-1.45231-.49332-3.06732-1.44386-4.44731-2.15977.29528-.16845.1386-.39105.1386-.62567 1.22331.58957 2.80819.24665 3.96521.90241.21695-.45722.45197-.07821.68096-.01204 1.36191-.03008 3.02514-.1504 4.09177.06017 1.27755-.71592 2.95282-.36097 4.07369-1.2333 1.29562.28276 2.3261-1.10094 3.70006-.98664l.29528-.30682c.16271.52942.68699.14439 1.06664.28276" fill="#0a1f62"/><path d="m377.11999 214.72921c2.83833 1.60629 5.67665 2.98397 8.51498 4.21727.83763.12633 1.76566.85428 2.52496.99866 1.22934.57755 2.22366.92648 3.45299 1.66646.91598.28275 1.9103.56551 2.90462.76404.52427.22259 1.67527.80014 2.43457.7881 2.75998 1.14907 6.26721 1.90108 9.08746 2.37635 1.22331.42113 2.97692.76404 4.50154 1.11298 3.20592.83623 5.48381.7881 8.90667 1.1611.9883.04813 2.21161.4873 3.03719.08422 1.6813.87234 4.09177-.16243 6.31542.69185 4.0978.43918 9.48519-.05414 13.50464 0l.14463-.13837c.16271.51739.5303-.01203.7593-.02406 7.42423-.61966 15.69213-.95054 22.25463-2.68919l.54838.67982-.15065.1504c2.13326 3.8924 2.3743 7.89911 2.77203 12.21263l.23502.2226c-.34952 1.35963.28926 2.71325-.29528 3.86232-2.42854-.09024-4.64617-.79413-7.29166-.28878-.08437-.4512-.76532-.13235-1.21729-.20454-.07834.08422-.15065.15642-.15065.23463h-.22297c0-.07821-.07834-.15041-.15668-.2226-.59659.39105-2.03684.50535-2.72383.28276-1.51859.03609-2.86845.75201-4.38704.55347-.67494.38503-1.44026.17447-2.27187.28276-.45196.08423-.8979.54145-1.36191.17447-.3676.61364-1.2896.02406-1.6572.56551-2.27789.06016-4.30871.7881-6.51428.6016-1.42821.32487-2.95283.28878-4.54373.32487-4.01946.01203-10.00344.60161-14.19162-.06617-1.22332-.42715-2.43458-.18049-3.57955-.45121-.84366-.43316-2.5792-.16243-3.80251-.59559-.98226.24666-2.44059-.40308-3.73019-.37901-.76533-.36097-1.75362-.4091-2.59728-.69185-1.28358.25869-2.36226-.48129-3.42286-.38503-1.07266-.42714-2.21763-.7099-3.42889-.75201l-.00603-.08423c-1.13894-.19853-2.28392-.31885-3.27823-.6016-.53031-.2226-1.22934-.81217-2.05493-.56551-.53632-.28877-1.44628-.34894-2.06697-.86632-.37965.01203-1.14497-.42112-1.67527-.25869-1.75362-.49332-2.99501-1.52808-5.03788-1.47995-.62069-.51739-1.60899-.57755-2.38034-1.0829h-.37964v-.13837c-3.13964-1.07086-5.68268-2.91779-8.73794-3.90443-.24708-.75201-1.07869-.65575-1.62104-1.03476l.15065-.13837c-.69301-.44519-1.37396-.65576-2.21763-.87233-1.08471-1.25736-3.74827-1.58223-4.02548-3.46526 1.41013-4.95725 3.04322-9.99872 5.67665-14.45061 1.30165.43316 2.00671 1.55215 3.45902 1.82287" fill="#0a1f62"/><path d="m244.38766 218.62762c1.54873 1.47996 4.51963 2.02141 5.70678 4.34963.50017 1.96124.5303 3.39306-.87379 4.94521-1.34384 1.08289-2.82025 2.85763-4.70644 3.36298-.81353 1.14907-2.63343 1.11298-3.44094 2.26806-1.65117.57153-2.92269 1.58223-4.34486 2.28611-3.45902 1.51605-4.23037-2.55683-7.26756-2.55683-.30734-.14439-.3917-.60161-.69301-.43917l-.15065.15642c-.77135-.67381-1.60296-.42715-2.59126-.62568l-.00602-.16243c-.53633-.19853-1.21729-.04813-1.82593-.10829.06629-.45722-.5303-.05414-.68698-.36096-.22297.23462-.53031.09024-.83161.17446-.15668-.1504-.16271-.44519-.3917-.52941 4.04355-2.51472 6.70109-5.89576 10.74465-8.33828 2.54304-1.7206 4.86312-3.21258 7.71952-4.33759.22297-.39105.74724-.61364.73519-1.15509.99432.36698 1.91632.87233 2.91064 1.0829" fill="#0a1f62"/><path d="m253.07739 227.31484c-.21091.67981.40978 1.3476.57852 2.02741.04821 2.26806-.12655 4.69254-1.75362 6.70191-2.62741 1.1972-4.55578 3.27876-7.26755 4.25336-3.13964 2.18384-6.55045 2.41846-10.07575 4.15711-.39171-.51738-1.90427-.25869-2.29597-.93851-.55441-1.1972-.66288-2.63504.44593-3.93451 1.33781-1.09493 3.29632-1.82287 4.86312-2.996 1.74759.19853 2.76601-1.95523 4.58591-1.99133.21694-.38502.67493-.31283.97021-.54746l-.15065-.14438c1.96453-.34894 3.51928-2.0575 5.39944-2.85162 1.33781-1.31752 3.50121-2.9539 3.453-5.23399l.22297-.3008c.76532.43316.25309 1.35963 1.02444 1.79881" fill="#0a1f62"/><path d="m307.42136 227.56149c-.26515 5.07155-5.05595 8.12772-8.79218 10.86503-.37362.08423-.5303-.06016-.69301-.44519-.27117-2.03343.8738-5.39641-2.41046-6.07623-.31939-.90241.74122-.84225 1.18715-1.24533.67493-.38503 1.66925-.17446 2.33213-.87834l.08436.1504c.82559-.24666 1.57886-.56551 2.48881-.72795 1.71746-.95054 3.91701-1.08289 5.79717-1.64239" fill="#0a1f62"/><path d="m372.96194 232.70524c.84366.43315 1.75964.64372 2.38034 1.31752.67493.05414 1.15702.72794 2.06094.7881.40376 1.11298 2.82025.60763 2.47073 2.05148-2.75396 2.03344-6.69507 2.42448-9.62378.51739-2.1634-1.84092-3.68199-5.36634-2.67562-7.96529 1.13292-.25869 2.073 1.16111 2.92269 1.82288.83764.44518 1.75964.86631 2.45867 1.46792" fill="#0a1f62"/><path d="m304.20941 236.79617c-.61467 2.97194-2.073 5.80551-1.69938 8.75339.01808.81818.8738 1.93717.21092 2.86365-1.75964-.64372-2.62741 1.26939-4.375 1.08289l-2.95884.13837c-.99432-.27674-1.60296-.3369-2.07903-1.3115-.54838-.97461-.34349-1.81084-.21694-3.1043.81353-1.0107 1.69335-2.23196 2.89858-2.79747l-.01205-.29479c2.41047-1.11297 3.73622-2.80349 6.06232-3.92248.59659-.54145 1.49449-1.17314 2.16942-1.40776" fill="#0a1f62"/><path d="m465.40935 243.48003c1.22331.42112 2.9709.54144 3.45902 1.81083-.06026.91445-.87379 1.84092-1.69938 2.23197-3.08539 1.05883-7.18319 1.30549-10.03959 2.41846l-.45799-.13837c-1.49449.71591-2.76601 1.81084-4.03753 2.82154-1.07868-.66177.19886-1.44988.2531-2.21392 1.4041-1.84092 2.25981-4.28946 3.65788-6.2146 1.59091-.1865 2.57318-.43316 4.08574-.61966 1.21729.12634 3.11553.23463 4.3991-.23462l.30734.28877z" fill="#0a1f62"/><path d="m460.13043 251.77619c-1.72951.86632-1.98863 2.85764-1.94645 4.66246.70506.89639 1.41012 1.94319 2.56112 2.68317.53633.19853 1.67527.03008 1.23536.95054-.97623.33088-2.18749.49332-3.10347.44519v-.1504c-.38568-.21658-.98829-.04813-1.36794-.04813-.09039-.60161-.83764-.04813-1.14497-.42113-1.83196-.27072-2.6937-1.61231-3.8447-2.18985l.14463-.16243c-1.00637-.96257-.4158-1.64841-.21091-2.86967 1.77169-2.23196 4.71848-2.82756 7.27358-3.86232.15668.21056.92803.57153.40375.96257" fill="#0a1f62"/><g fill="#fff"><path d="m383.03166 226.32218-.0241-.01203-5.97193 5.01741-.72917-.3369 1.15703-7.23734-.03013-.01203-4.40513 5.57088-2.11519-.98062 7.52066-9.11435 1.48846.69185-1.00034 7.62838 6.20695-5.22195 1.51859.70989-4.08574 10.69057-2.11518-.97461z"/><path d="m389.27477 233.60765-1.8199 1.84693-2.33815-.77607 8.74999-9.01208 1.72348.57754-.00602 11.91183-2.36829-.78811.01206-2.43049-3.95317-1.31752zm4.11587-4.69856-.03013-.01203-2.78409 3.30283 2.70575.89038z"/><path d="m400.58589 239.36503-2.2779-.57153 3.25413-10.50406 2.27789.57153z"/><path d="m406.61808 229.34225 1.6813.24666 4.91132 8.45259.03013.01203 1.33179-7.23132 2.33212.34291-2.02479 10.96129-1.67527-.25869-4.91133-8.44657h-.03013l-1.34986 7.2975-2.33213-.35495z"/><path d="m423.15388 242.22267-2.36829-.0722.35555-9.03614-2.4406-.07821.06629-1.84693 7.24948.22259-.07232 1.85897-2.4406-.08423z"/><path d="m430.81313 240.0629-.98226 2.29814-2.48881.01203 4.66425-11.19592 1.83799-.01203 4.64617 11.16584-2.52496.01203-.94009-2.29213zm2.01274-5.70324h-.03013l-1.3137 3.97662 2.87448-.01203z"/><path d="m443.49821 242.0843-2.36225.10227-.58454-10.87706 2.36226-.10829z"/><path d="m445.79418 230.84627 1.69336-.17447 7.30973 6.90044.03014-.01203-.93406-7.27343 2.34418-.23463 1.42217 11.02145-1.6813.17446-7.32179-6.90043-.03013.01203.95213 7.33359-2.3502.24666z"/><path d="m389.558 197.69169.03013-.01204.10245-7.87504 1.34383-.34291 4.64015 6.71394h.03013l.1145-7.73066 2.38636-.58957-.68698 11.68923-1.67528.41511-4.41718-6.29883-.0241.01203-.1145 7.4118-1.66925.40308-6.99035-9.80019 2.39239-.58957z"/><path d="m402.57452 189.20902.40375 2.3583 3.71815-.51738.31336 1.8349-3.71815.51739.49415 2.91178 3.86277-.54145.31939 1.8349-6.20093.8603-1.844-10.76276 6.18887-.87233.31336 1.83491-3.85675.54144"/><path d="m417.65199 194.72576.03013.01203 4.05561-6.99067 1.36191.25869.76532 7.87504.03014.01203 3.99534-6.85231 2.42252.44519-6.4962 10.1431-1.70541-.31885-.77135-7.39977-.03013-.01203-3.82059 6.56955-1.7054-.31885-1.29563-11.57493 2.42855.44519.72916 7.70659"/><path d="m430.48169 201.12085-2.26583-.60161 3.38068-10.4439 2.27186.58957z"/><path d="m434.87477 200.44103 3.17579.95054-.65083 1.75068-5.41752-1.62434 3.83264-10.33562 2.24174.66779z"/><path d="m440.76233 202.66096 3.0854 1.14907-.78943 1.70255-5.26687-1.96124 4.32077-9.36101 2.18147.80616-3.53134 7.65244"/><path d="m397.52459 177.7484h-2.69972l-2.28392-2.996h-.03013l.06629 2.94787h-2.22968l-.04821-9.15045 3.01308.01204c2.25982 0 3.82059.91444 3.81457 3.12234 0 1.32955-.80751 2.64707-2.34418 2.8817zm-5.01377-4.4158h.28926c1.22934.01204 2.0971-.33088 2.0971-1.58824.00603-1.28142-.89187-1.54012-2.073-1.54012h-.3013z"/><path d="m402.68299 177.67019h-2.02479l-.02411-10.37773h2.0248z"/><path d="m413.87358 171.40746.00603.25869c.03615 2.93584-1.43423 5.55284-4.65823 5.58893-3.03719.04813-4.98364-2.49065-5.0198-5.3543-.03615-2.96593 1.90427-5.52276 5.00172-5.57089 1.76567-.02406 3.32042.85429 4.13998 2.41846l-1.77772.98664c-.42786-.91444-1.31973-1.63036-2.39239-1.60629-1.9585.02406-2.89858 2.03343-2.87448 3.74801.01808 1.71458 1.02445 3.61566 2.98295 3.5916 1.2655-.01203 2.31405-1.12501 2.33816-2.38237l-2.20558.02407-.01808-1.64841z"/><path d="m420.79765 169.81922-.14463-4.09093 2.02479-.0722.37362 10.37773-2.03082.08423-.1627-4.64441-3.7543.13235.16873 4.63839-2.02479.0722-.37363-10.37773 2.0248-.06618.15065 4.07288z"/><path d="m430.37925 175.77513-2.01877.12032-.52427-8.59095-2.09108.12633-.10847-1.76271 6.20092-.37299.10847 1.75068-2.09108.12633z"/><path d="m440.02714 167.67749c-.40978-.50535-.92803-.79412-1.60296-.76404-.6448.0361-1.23536.56551-1.19921 1.23931.10245 1.73865 4.17011.78209 4.36897 4.25938.1145 2.06953-1.09676 3.60965-3.21194 3.72997-1.43423.07821-2.52497-.68583-3.30837-1.84693l1.23537-1.34159c.31938.77607 1.09073 1.46191 1.9585 1.40175.82559-.04813 1.29563-.77608 1.24742-1.57622-.06026-1.07086-1.06663-1.31752-1.89824-1.57621-1.36192-.48128-2.37431-1.08891-2.46471-2.70121-.09642-1.71459 1.10279-3.17048 2.85038-3.27876.91598-.04813 2.22366.33088 2.89859.99866z"/><path d="m308.02398 258.36981.13257 2.33424-1.94042.89639-.74725-11.36436 1.4282-.64372 8.0148 8.0495-1.97055.89038-1.63309-1.65442zm-.66288-5.65511-.02411.01203.52428 3.90443 2.24776-1.02273z"/><path d="m309.25331 247.88379 1.02445-1.02875 9.00912 1.22127.01808-.01204-4.95954-4.91513 1.41615-1.43182 7.52668 7.43586-1.02444 1.03477-9.00912-1.22126-.01205.02406 5.00171 4.94521-1.41615 1.44988z"/><path d="m317.34645 238.7935 1.68733-2.34025c1.74759-2.43049 4.75465-2.74934 7.14703-1.02273 2.36829 1.69052 2.99501 4.68652 1.2655 7.08693l-1.67528 2.34026zm8.17751 3.38104.19284-.25869c1.45833-2.0214.90392-3.60363-.76532-4.80685-1.83196-1.3115-3.45902-1.05281-4.80286.80014l-.19284.27072z"/><path d="m330.34489 226.88769c-2.6274-1.24532-4.02547-4.24133-2.7178-6.97864 1.30768-2.73732 4.5136-3.53745 7.14101-2.29213 2.6937 1.28143 4.04958 4.25337 2.74793 6.99068-1.30165 2.73732-4.47744 3.56152-7.17114 2.28009zm.83162-1.92514c1.41614.66778 3.79045.34292 4.53167-1.20923s-.49414-3.60965-1.91029-4.27743c-1.52462-.72794-3.59762-.30682-4.36295 1.29346-.76532 1.59426.21695 3.47729 1.74157 4.1932"/><path d="m331.15843 213.09284.80148-1.85295 5.34521 2.2861c1.1751.50535 2.87448 1.10696 3.56146-.46925.6689-1.5702-.94008-2.38237-2.11518-2.88772l-5.34521-2.29212.80148-1.85897 5.7128 2.44855c2.3261.99866 3.65788 2.73731 2.56112 5.28812-1.10279 2.55684-3.28426 2.77943-5.61638 1.78076l-5.71281-2.44252"/><path d="m346.71799 200.29665-.85572 2.29212-4.80888.90843-.00602.01805 3.92303 1.4619-.70506 1.88905-9.73829-3.60964.95816-2.55684c.71712-1.93116 2.06698-2.94186 4.14601-2.16578 1.23536.45722 2.22365 1.60027 1.9585 2.98397zm-7.00241 2.72528.09039-.24666c.39171-1.02875.35555-1.88905-.83161-2.32221-1.1992-.4512-1.71745.2226-2.09108 1.2333l-.09641.25869z"/><path d="m247.20791 251.67993.0241-.01203-1.90427-7.68252 1.22934-.61364 6.23708 5.58291.02411-.01203-1.85606-7.55619 2.18147-1.05281 2.29597 11.5268-1.52462.73997-5.90564-5.23398-.03013.02406 1.78374 7.24336-1.53064.75201-9.29838-8.1217 2.17545-1.05883z"/><path d="m257.00043 239.78014 1.3137 2.08758 3.28426-1.65442 1.00637 1.61231-3.28426 1.65442 1.61501 2.57488 3.40479-1.71459 1.01239 1.6063-5.47175 2.76137-5.95386-9.50539 5.47779-2.76138 1.00637 1.61231z"/><path d="m272.41536 240.98937-1.95248 1.18517-6.85175-8.97598 2.65152-1.63036c2.0971-1.29346 4.03753-1.37768 5.58625.65575 1.45833 1.90108 1.0124 3.54949-1.03047 4.80684l-.97022.58356 2.56715 3.36299zm-3.67596-4.81887.39773-.24666c1.15702-.70388 1.60898-1.31752.71711-2.49066-.87982-1.14907-1.75361-.8603-2.83832-.1865l-.3435.21057z"/><path d="m284.34717 233.97463-2.41649 1.37166-5.09814-2.2861-.03013.01203 2.61536 3.71192-1.99467 1.125-6.48415-9.18654 2.69972-1.54012c2.02479-1.14907 3.98932-1.13704 5.37534.8242.82559 1.16111.93406 2.74935-.29528 3.73599zm-8.43061-2.15977.25913-.14439c1.10279-.61965 1.66925-1.35963.87379-2.47862-.79545-1.13704-1.75361-.90241-2.81422-.29479l-.27117.15642z"/><path d="m286.35991 231.81486-2.03685 1.07688-6.16476-9.38508 2.03684-1.08289z"/><path d="m293.80222 226.17178.97624 1.62434-7.73157 3.76005-.09642-10.23936-3.97124 1.93116-.97624-1.62434 7.26756-3.53745.10244 10.23334z"/><path d="m294.56152 217.60489 1.12087 2.18985 3.41081-1.42581.85571 1.67849-3.40478 1.41378 1.36794 2.67715 3.54338-1.46792.86175 1.67848-5.6887 2.36432-5.08006-9.89644 5.69472-2.3583.86175 1.67848-3.54942 1.46792"/><path d="m227.62287 218.03203 2.87448-2.29212.86174 3.14641-5.23071 2.77341-2.30802-11.89378 2.32007-.44519z"/><path d="m235.43881 216.35956-2.33213.41511-2.073-11.92987 2.33212-.39706z"/><path d="m236.45723 201.49385 2.89858-.49332c2.21763-.36097 4.15203-.83022 4.55579 1.54011.14462.8603-.29529 2.46058-.95817 3.05617 1.45231.01203 2.45868.98663 2.68165 2.29212.3917 2.35229-1.47641 3.50136-3.44697 4.40377l-3.71814 1.13102zm4.0074 9.07224.57248-.1865c1.01843-.89038 2.18148-.55348 1.91632-2.10563-.26515-1.54613-1.47641-.69185-2.64548-.49332l-.38568.0722zm-.83764-4.50003.28323-.04813c1.13895-.1865 1.63912-.60762 1.43423-1.84092-.20489-1.22126-.95816-1.41377-1.94043-1.25735l-.30131.06016.52428 3.09827"/><path d="m248.81087 198.01655.56043 2.61098 3.67596-1.54011.42786 2.0214-3.67596 1.52808.68698 3.19453 3.82059-1.85295.43389 2.00937-6.12862 2.3583-2.55509-11.84565 6.13464-1.99733.43388 2.00937-3.82059 1.50401"/><path d="m265.54553 203.11819-2.82627.46925-3.70609-4.33759-.03013.01203.80148 4.81888-2.33213.39104-1.98863-11.95394 3.15771-.52941c2.36828-.39706 4.17613.37901 4.59796 2.94186.25913 1.51605-.33144 3.1825-1.89221 3.71192zm-6.83367-5.48666.30131-.04813c1.28357-.21057 2.12723-.73998 1.88619-2.2079-.24708-1.46792-1.22934-1.60028-2.47073-1.40175l-.31939.04813z"/><path d="m271.10768 200.97045-2.32007.45722-1.94043-9.86035-2.39841.46926-.3917-2.00937 7.11087-1.39573.3917 2.00937-2.39238.46925z"/><path d="m278.62231 199.23782-2.3502.28275-1.45231-12.02011 2.35021-.28276z"/><path d="m283.75058 188.06597.13257 2.66512 3.76033-.1865.10245 2.0575-3.76033.1865.16271 3.26672 3.90495-.18649.09642 2.04546-6.26119.31885-.60261-12.10434 6.26721-.30682.09642 2.0575-3.90496.1865"/><path d="m296.7671 187.90353c-.37362-.66176-.90393-1.10695-1.68733-1.19719-.75327-.08423-1.53667.40909-1.62706 1.18516-.229 2.03344 4.64014 1.72662 4.17613 5.75739-.2772 2.40642-1.97658 3.94654-4.43526 3.66378-1.65719-.19853-2.76601-1.29345-3.42889-2.77341l1.6813-1.30548c.21694.96858.96419 1.88303 1.97056 1.99733.95816.10829 1.64514-.63169 1.74759-1.54613.14463-1.24533-.96419-1.72661-1.86209-2.21391-1.47641-.80616-2.51894-1.72662-2.30802-3.57957.22899-1.99733 1.89824-3.44721 3.92906-3.20657 1.07266.11431 2.49483.81819 3.13361 1.71459z"/><path d="m225.02559 176.42487c-.37362-2.8817 1.18716-5.70324 3.8929-6.12437 2.71178-.43316 4.92338 1.78678 5.297 4.65043.38568 2.95389-1.18112 5.7273-3.88687 6.16046-2.71178.43315-4.91735-1.75068-5.30303-4.68652zm1.86209-.39105c.20489 1.55215 1.64514 3.35095 3.18181 3.10429 1.5427-.24665 2.4647-2.41244 2.26584-3.96459-.21694-1.66645-1.57283-3.15844-3.15771-2.91178-1.59091.25869-2.50689 2.11766-2.28994 3.77208"/><path d="m234.05279 166.99768 2.01274-.27073.79545 5.75739c.17476 1.26939.53633 3.04413 2.24173 2.8095 1.70541-.24666 1.57283-2.04546 1.39205-3.31485l-.79545-5.75739 2.01273-.27072.84969 6.16046c.3435 2.50269-.45798 4.54815-3.21797 4.92115-2.75998.39104-4.09177-1.35963-4.43526-3.87435l-.85571-6.14843"/><path d="m252.09513 172.41214-2.41649.41511-3.20592-3.67582h-.02411l.72314 4.12101-2.00069.34292-1.78374-10.2153 2.69972-.46925c2.01877-.34893 3.57352.29479 3.95919 2.47862.22297 1.30549-.26515 2.7313-1.59693 3.20056l3.64583 3.79614zm-5.89359-4.65042.25912-.04813c1.10279-.1865 1.81388-.64372 1.59694-1.88905-.21694-1.26939-1.06061-1.36565-2.12121-1.18516l-.27118.04211z"/></g></g></svg>