<svg xmlns="http://www.w3.org/2000/svg" version="1.0" width="1050" height="700"><path d="M0 350V0h1050v700H0V350z" fill="#fdfdfd"/><path d="M397.901 549.894c0-.329 9.844-13.185 21.875-28.568 12.031-15.384 21.875-28.388 21.875-28.899 0-.51-3.633-3.43-8.073-6.49-15.531-10.7-44.436-42.618-42.698-47.148.625-1.628 25.872-16.425 28.008-16.415.775.003 4.221 3.822 7.659 8.485 3.437 4.664 9.723 11.68 13.967 15.59 8.389 7.732 20.83 16.543 23.355 16.543.87 0 14.771-16.875 30.893-37.5 16.121-20.625 29.682-37.5 30.134-37.5.452 0 10.816 12.774 23.03 28.386 34.625 44.254 36.54 46.614 37.836 46.614 5.313 0 29.962-21.806 38.784-34.31 2.82-3.996 5.55-7.286 6.07-7.311 2.143-.103 28.743 16.069 28.743 17.475 0 2.9-12.042 18.422-22.395 28.866-5.73 5.779-14.519 13.464-19.532 17.078-5.013 3.614-9.104 7.102-9.092 7.75.012.65 9.893 13.762 21.956 29.139 12.064 15.376 21.637 28.254 21.273 28.618-.862.861-10.293-1.698-73.712-20.003l-52.856-15.256-61.727 17.728c-58.202 16.716-65.373 18.595-65.373 17.128zm-13.11-119.705c-3.182-4.855-9.929-21.67-12.506-31.166-2.884-10.625-5.619-26.995-5.628-33.687-.006-4.227-.148-4.427-3.142-4.427-1.725 0-17.866 2.11-35.87 4.687-18.003 2.579-33.032 4.688-33.398 4.688-2.426 0 3.69-6.425 32.82-34.479 18.048-17.38 39.062-37.72 46.698-45.2l13.886-13.6 12.447-49.975c18.25-73.28 19.248-77.064 20.29-77.006.522.03 6.399 13.563 13.057 30.075 6.66 16.511 12.853 31.585 13.765 33.498l1.659 3.477 7.819-3.563c17.946-8.178 37.272-13.425 54.261-14.73 7.182-.553 9.215-.396 9.952.769 1.185 1.872 1.218 30.17.038 32.032-.527.832-4.256 1.78-9.165 2.328-4.551.51-12.829 2.081-18.394 3.493-10.606 2.69-29.499 10.95-30.394 13.288-.287.75 7.275 20.583 16.805 44.072 9.53 23.49 17.386 43.625 17.458 44.746.144 2.23-1.267 2.475-66.535 11.52-16.672 2.31-27.631 4.29-28.508 5.152-1.182 1.163-1.214 3.205-.187 12.038 1.557 13.39 4.19 23.734 8.968 35.235 5.815 13.998 6.662 12.068-9.33 21.257-7.728 4.44-14.301 8.073-14.608 8.073-.307 0-1.323-1.168-2.258-2.595zm263.11-6.279c-10.886-6.436-13-8.09-12.896-10.089.069-1.315 1.889-6.584 4.044-11.709 6.133-14.579 11.29-44.782 7.994-46.819-.472-.291-21.682-3.434-47.135-6.985-25.453-3.55-46.713-6.845-47.245-7.321-.58-.519.765-5.164 3.346-11.566 26.341-65.338 31.38-78.241 30.872-79.063-.981-1.587-11.874-6.728-21.272-10.039-9.915-3.493-16.465-4.982-28.584-6.499-4.55-.57-8.644-1.621-9.098-2.338-.964-1.518-1.162-28.988-.227-31.425.763-1.988 5.986-2.146 17.782-.536 16.49 2.25 35.592 8.09 49.483 15.13 2.9 1.469 5.645 2.283 6.1 1.808.455-.474 6.568-15.16 13.584-32.633 7.016-17.474 13.348-32.422 14.071-33.218 1.586-1.744-.516-9.34 18.436 66.618l14.961 59.963 16.07 15.594c8.837 8.577 30.014 29.106 47.058 45.619 17.044 16.513 30.99 30.504 30.99 31.09 0 .655-1.504.807-3.907.396-2.148-.368-15.625-2.31-29.948-4.316s-28.62-4.068-31.77-4.582c-3.152-.515-6.143-.541-6.648-.06-.505.483-1.336 5.48-1.846 11.106-2.033 22.395-14.013 58.625-19.632 59.365-.859.114-7.421-3.257-14.583-7.49z" fill="#be0428"/></svg>