<?xml version="1.0" encoding="UTF-8" standalone="no"?>
<!-- Created with Inkscape (http://www.inkscape.org/) -->

<svg
   xmlns:svg="http://www.w3.org/2000/svg"
   xmlns="http://www.w3.org/2000/svg"
   version="1.0"
   width="900"
   height="600"
   id="kagawahata"
   xml:space="preserve"><defs
     id="defs458" /><rect
     width="900"
     height="600"
     x="0"
     y="0"
     id="rect13"
     style="fill:#005933" /><path
     d="m 570.01706,480 79.98295,0 C 640.29781,361.50656 589.31639,254.70993 511.43167,174.04005 492.47862,154.41159 471.93895,136.32675 450.01248,120 l -0.0292,0 c -21.92825,16.32675 -42.46878,34.41159 -61.421,54.04005 -9.30428,9.63634 -18.22608,19.64224 -26.73881,29.99871 C 327.95964,181.56513 290.29553,164.36235 250,153.60619 l 0,83.02406 c 23.59659,8.1539 45.86759,19.15468 66.39692,32.59837 C 279.71389,331.94028 256.30076,403.35798 250,479.62959 l 0,0.37041 79.97175,0 c 5.52209,-56.51483 22.22964,-109.74516 47.88228,-157.4523 38.06206,43.27269 63.90331,97.55394 72.13436,157.4523 l 80.0105,0 C 520.55509,392.67159 481.58603,314.206 423.26164,254.78745 431.70542,244.49989 440.6307,234.62665 449.997,225.19101 516.31898,291.99942 560.34587,380.96186 570.01706,480 z"
     id="path28"
     style="fill:#ffffff" /></svg>