<?xml version="1.0" encoding="UTF-8" standalone="no"?>
<!-- Created with Inkscape (http://www.inkscape.org/) -->
<svg
   xmlns:dc="http://purl.org/dc/elements/1.1/"
   xmlns:cc="http://web.resource.org/cc/"
   xmlns:rdf="http://www.w3.org/1999/02/22-rdf-syntax-ns#"
   xmlns:svg="http://www.w3.org/2000/svg"
   xmlns="http://www.w3.org/2000/svg"
   xmlns:sodipodi="http://sodipodi.sourceforge.net/DTD/sodipodi-0.dtd"
   xmlns:inkscape="http://www.inkscape.org/namespaces/inkscape"
   width="510"
   height="340"
   id="svg2"
   sodipodi:version="0.32"
   inkscape:version="0.44.1"
   version="1.0"
   sodipodi:docbase="D:\program\svg\旗"
   sodipodi:docname="Flag_of_Kanagawa.svg">
  <defs
     id="defs4" />
  <sodipodi:namedview
     id="base"
     pagecolor="#ffffff"
     bordercolor="#666666"
     borderopacity="1.0"
     gridtolerance="10000"
     guidetolerance="10"
     objecttolerance="10"
     inkscape:pageopacity="0.0"
     inkscape:pageshadow="2"
     inkscape:zoom="1.4"
     inkscape:cx="252.69658"
     inkscape:cy="177.46678"
     inkscape:document-units="px"
     inkscape:current-layer="layer1"
     inkscape:window-width="799"
     inkscape:window-height="571"
     inkscape:window-x="22"
     inkscape:window-y="22"
     showguides="true"
     inkscape:guide-bbox="true" />
  <metadata
     id="metadata7">
    <rdf:RDF>
      <cc:Work
         rdf:about="">
        <dc:format>image/svg+xml</dc:format>
        <dc:type
           rdf:resource="http://purl.org/dc/dcmitype/StillImage" />
      </cc:Work>
    </rdf:RDF>
  </metadata>
  <g
     inkscape:label="Layer 1"
     inkscape:groupmode="layer"
     id="layer1">
    <rect
       style="opacity:1;color:black;fill:white;fill-opacity:1;fill-rule:evenodd;stroke:white;stroke-width:1px;stroke-linecap:butt;stroke-linejoin:miter;marker:none;marker-start:none;marker-mid:none;marker-end:none;stroke-miterlimit:4;stroke-dasharray:none;stroke-dashoffset:0;stroke-opacity:1;visibility:visible;display:inline;overflow:visible"
       id="rect1924"
       width="510"
       height="340"
       x="0"
       y="0" />
    <path
       style="fill:red;fill-rule:evenodd;stroke:red;stroke-width:1px;stroke-linecap:butt;stroke-linejoin:miter;stroke-opacity:1"
       d="M 131.60488,274.46635 C 142.42013,275.6889 177.0499,258.73024 180.69856,225.95251 L 180.81731,195.54819 C 174.09389,195.90065 135.68041,169.99543 136.49686,126.22647 C 136.47895,80.859903 174.18994,50.855827 203.29319,50.591296 L 203.41946,35.565277 L 228.54702,35.565277 L 228.67328,50.970102 C 237.95775,51.494995 250.15561,57.488475 255.18979,63.091933 C 261.4043,56.668616 273.29452,52.665241 282.33764,50.591295 L 282.21137,35.565276 L 308.47534,35.439008 L 308.98041,49.707413 C 348.33368,56.048262 373.66262,89.001089 373.12509,122.05959 C 372.07238,165.76407 346.78025,187.14788 330.57242,197.06341 L 331.49844,225.19506 C 331.07416,254.35386 364.83017,274.738 379.81736,274.46636 L 379.81736,296.68971 C 334.35576,294.95386 306.75371,264.16855 306.5813,225.60023 L 305.82368,106.52849 L 330.57242,106.40222 L 330.95123,164.8648 C 342.00179,159.9309 354.58496,131.81476 348.75517,113.72583 C 334.61753,73.749724 304.06091,75.075463 295.9747,75.340033 C 287.76222,75.604603 282.16928,76.402014 275.26657,79.885719 C 282.58151,90.384553 288.15379,100.23112 289.69698,117.64422 L 289.66125,272.44605 C 289.60988,283.81027 277.99446,302.53678 256.3262,302.37182 C 234.53168,302.20686 221.62193,281.91973 221.60221,271.68843 L 221.60222,117.38763 C 221.47831,109.82734 228.24772,87.566203 236.24943,79.506913 C 222.64133,74.960344 212.7443,73.542673 196.97975,76.728994 C 178.6404,80.057191 162.06592,106.97178 161.37186,120.03929 C 160.28454,139.31786 167.86329,156.76984 181.82745,166.75884 L 180.56477,106.52849 L 205.56604,106.40222 L 204.86524,219.54614 C 205.91478,253.57622 186.69085,277.89952 174.75638,283.93653 C 162.51952,290.12651 154.04373,296.61765 131.55968,296.5455 L 131.60488,274.46635 z "
       id="path1900"
       sodipodi:nodetypes="ccccccccccccccccccccccczccczccccccccczcc" />
    <path
       style="fill:white;fill-rule:evenodd;stroke:white;stroke-width:1px;stroke-linecap:butt;stroke-linejoin:miter;stroke-opacity:1"
       d="M 255.56859,97.563389 C 251.96006,102.95207 247.2639,108.52654 245.97214,120.7969 L 245.59334,268.78424 C 245.79166,273.75496 251.18175,277.30548 255.72962,277.18164 C 259.69109,277.07377 265.54646,274.10276 265.67012,268.53171 L 264.9125,120.67063 C 264.35707,112.55766 259.79276,103.11074 255.56859,97.563389 z "
       id="path1922"
       sodipodi:nodetypes="cccsccc" />
  </g>
</svg>
