<?xml version="1.0" encoding="UTF-8" standalone="no"?>
<!-- Created with Inkscape (http://www.inkscape.org/) -->
<svg
   xmlns:svg="http://www.w3.org/2000/svg"
   xmlns="http://www.w3.org/2000/svg"
   version="1.0"
   width="1050"
   height="700"
   id="svg2">
  <defs
     id="defs5" />
  <g
     transform="translate(42.013782,-52.51722)"
     id="g4130">
    <path
       d="M -42.013782,52.51722 L 1007.9862,52.51722 L 1007.9862,752.51722 L -42.013782,752.51722 L -42.013782,52.51722 z "
       style="fill:#950017"
       id="path2163" />
    <path
       d="M 500.71662,622.4646 C 567.48229,616.3442 626.67456,580.1576 661.46151,524.1949 C 679.04174,495.9131 691.40152,457.9476 692.46072,428.9746 L 692.71662,421.9746 L 651.50772,421.7135 C 604.54441,421.416 608.98697,420.4741 607.8284,430.9746 C 606.74299,440.8119 602.38286,455.3178 597.28019,466.0677 C 575.98169,510.9379 533.13614,538.4961 484.21662,538.79 C 468.17564,538.8864 458.26387,537.4283 444.63195,532.9668 C 416.37325,523.7182 393.77935,506.4666 377.50705,481.7137 C 367.77985,466.917 361.65835,450.9622 358.40255,431.9206 L 356.70195,421.9746 L 315.20925,421.9746 L 273.71665,421.9746 L 273.40765,425.7011 C 272.94305,431.3049 275.93465,451.1446 279.18465,464.0132 C 294.12965,523.1889 333.57825,572.6734 387.71665,600.1562 C 409.41505,611.1713 434.85745,619.0475 456.21662,621.3617 C 461.99162,621.9875 468.06662,622.6514 469.71662,622.8372 C 476.36095,623.5852 490.32225,623.4174 500.71662,622.4646 z M 504.71662,485.4873 C 539.80966,474.4077 562.44734,440.3609 558.24931,404.9746 C 557.52264,398.8493 553.30672,385.2978 540.25843,347.1452 C 525.06243,302.7129 522.19725,293.4746 523.61301,293.4746 C 523.83102,293.4746 527.13776,294.7477 530.96133,296.3037 C 571.03752,312.6128 600.97033,350.5466 607.6369,393.4746 L 608.80163,400.9746 L 650.75912,400.9746 L 692.71662,400.9746 L 692.43362,395.4746 C 690.94932,366.6264 678.64777,329.4023 661.46151,301.7543 C 626.95327,246.2399 567.06238,209.4023 501.89813,203.6103 C 496.49796,203.1303 491.71644,202.3409 491.27254,201.8561 C 490.82864,201.3713 489.01482,196.5645 487.24183,191.1743 C 485.44039,185.6977 483.53807,181.5341 482.92991,181.7368 C 482.33135,181.9363 480.31824,186.6697 478.45634,192.2554 C 474.57544,203.8981 477.0216,202.4822 457.28839,204.5086 C 435.29265,206.7673 409.87985,214.542 387.71665,225.7929 C 340.32775,249.8495 303.33765,291.7064 285.23935,341.7532 C 278.90955,359.257 271.70485,395.0925 273.54925,399.8989 C 274.09955,401.333 278.39255,401.47 315.41565,401.2357 L 356.66885,400.9746 L 357.35785,398.4746 C 357.73675,397.0996 358.94205,391.678 360.03625,386.4266 C 368.53555,345.6344 397.91345,310.9484 436.99875,295.5583 C 441.02925,293.9713 442.39595,293.7783 442.76645,294.744 C 443.18375,295.8314 425.48285,349.172 412.15995,386.9746 C 408.04365,398.6545 407.92915,399.3214 407.86925,411.9746 C 407.82405,421.5226 408.28075,426.6852 409.58935,431.4167 C 417.10555,458.5941 437.27545,478.815 464.21662,486.1822 C 475.42138,489.2462 493.81007,488.9307 504.71662,485.4873 z "
       style="fill:#ffffff;fill-opacity:1"
       id="path2171" />
  </g>
</svg>
