<?xml version="1.0" encoding="UTF-8" standalone="no"?>
<svg xmlns="http://www.w3.org/2000/svg" width="1400" height="1000">
<rect width="1400" height="1000" style="fill:#942b9d"/>
<g transform="translate(700,500) scale(0.3333333,0.3333333)">
<path style="fill:#fff" d="M-842.178,486.231 C-842.178,486.231-761.316,450.069-621.16,516.543 -481.014,583.017-413.644,587.894-302.306,523.61 -302.31,652.173-264.4,708.08-136.758,796.212 -9.1132,884.354,0,972.463,0,972.463 0,972.463,9.1132,884.353,136.758,796.212 264.4,708.08,302.31,652.173,302.306,523.61 413.644,587.894,481.014,583.017,621.16,516.543 761.317,450.068,842.178,486.231,842.178,486.231 842.178,486.231,770.429,434.284,757.919,279.67 745.415,125.062,715.953,64.2785,604.612,0 715.953-64.2785,745.415-125.062,757.919-279.67 770.429-434.284,842.178-486.231,842.178-486.231 842.178-486.231,761.316-450.069,621.16-516.543 481.014-583.017,413.644-587.894,302.306-523.61 302.31-652.173,264.4-708.08,136.758-796.212 9.1132-884.354,0-972.463,0-972.463 0-972.463-9.1132-884.354-136.758-796.212 -264.4-708.08-302.31-652.173-302.306-523.61 -413.644-587.894-481.014-583.017-621.16-516.543 -761.317-450.068-842.178-486.231-842.178-486.231 -842.178-486.231-770.429-434.284-757.919-279.67 -745.415-125.062-715.953-64.2785-604.612,0 -715.953,64.2785-745.415,125.062-757.919,279.67 -770.429,434.284-842.178,486.231-842.178,486.231Z"/>
<path style="fill:#fc0" d="M-631.728,364.728 C-702.282,242.555-602.845,124.411-553.123,95.7018 -503.399,66.9912-444.339,45.8716-403.948,42.1151 -361.654,38.1836-327.599,26.8579-327.602,0 -327.599-26.8579-361.654-38.1836-403.948-42.1151 -444.339-45.8716-503.399-66.9912-553.123-95.7018 -602.845-124.411-702.282-242.555-631.728-364.728 -561.201-486.916-409.166-459.874-359.442-431.168 -309.716-402.462-261.895-361.873-238.447-328.773 -213.895-294.111-187.059-270.28-163.801-283.712 -140.54-297.138-147.76-332.293-165.502-370.888 -182.444-407.745-193.683-469.453-193.681-526.87 -193.68-584.284-141.082-729.473,0-729.457 141.082-729.473,193.68-584.284,193.681-526.87 193.683-469.453,182.444-407.745,165.502-370.888 147.76-332.293,140.54-297.138,163.801-283.712 187.059-270.28,213.895-294.111,238.447-328.773 261.895-361.873,309.716-402.462,359.442-431.168 409.166-459.874,561.201-486.916,631.728-364.728 702.282-242.555,602.845-124.411,553.123-95.7018 503.399-66.9912,444.339-45.8716,403.948-42.1151 361.654-38.1836,327.599-26.8579,327.602,0 327.599,26.8579,361.654,38.1836,403.948,42.1151 444.339,45.8716,503.399,66.9912,553.123,95.7018 602.845,124.411,702.282,242.555,631.728,364.728 561.201,486.916,409.166,459.874,359.442,431.168 309.716,402.462,261.895,361.873,238.447,328.773 213.895,294.111,187.059,270.28,163.801,283.712 140.54,297.138,147.76,332.293,165.502,370.888 182.444,407.745,193.683,469.453,193.681,526.87 193.68,584.284,141.082,729.473,0,729.457 -141.082,729.473-193.68,584.284-193.681,526.87 -193.683,469.453-182.444,407.745-165.502,370.888 -147.76,332.293-140.54,297.138-163.801,283.712 -187.059,270.28-213.895,294.111-238.447,328.773 -261.895,361.873-309.716,402.462-359.442,431.168 -409.166,459.874-561.201,486.916-631.728,364.728Z"/>
<path style="fill:#fff" d="M-484.578,279.772 C-469.799,305.365-429.614,331.573-360.169,291.474 -290.717,251.379-265.2,212.988-218.382,176.976 -197.548,160.945-148.596,129.423-93.188,161.406 -37.7852,193.399-40.608,251.553-44.0747,277.613 -51.853,336.163-72.3418,377.457-72.339,457.653 -72.3438,537.842-29.5541,559.541,0,559.543 29.5543,559.541,72.3438,537.842,72.339,457.653 72.3418,377.457,51.853,336.163,44.0747,277.613 40.608,251.553,37.7852,193.399,93.188,161.406 148.596,129.423,197.548,160.945,218.382,176.976 265.2,212.988,290.717,251.379,360.169,291.474 429.614,331.573,469.799,305.365,484.578,279.772 499.353,254.175,501.957,206.27,432.507,166.179 363.058,126.079,317.053,123.176,262.457,100.637 238.156,90.6092,186.382,63.977,186.375,0 186.382-63.977,238.156-90.6092,262.457-100.637 317.053-123.176,363.058-126.079,432.507-166.179 501.957-206.27,499.353-254.175,484.578-279.772 469.799-305.365,429.614-331.573,360.169-291.474 290.717-251.379,265.2-212.988,218.382-176.976 197.548-160.945,148.596-129.423,93.188-161.406 37.7852-193.399,40.608-251.553,44.0747-277.613 51.853-336.163,72.3418-377.457,72.339-457.653 72.3438-537.842,29.5541-559.541,0-559.543 -29.5543-559.541-72.3438-537.842-72.339-457.653 -72.3418-377.457-51.853-336.163-44.0747-277.613 -40.608-251.553-37.7852-193.399-93.188-161.406 -148.596-129.423-197.548-160.945-218.382-176.976 -265.2-212.988-290.717-251.379-360.169-291.474 -429.614-331.573-469.799-305.365-484.578-279.772 -499.353-254.175-501.957-206.27-432.507-166.179 -363.058-126.079-317.053-123.176-262.457-100.637 -238.156-90.6092-186.382-63.977-186.375,0 -186.382,63.977-238.156,90.6092-262.457,100.637 -317.053,123.176-363.058,126.079-432.507,166.179 -501.957,206.27-499.353,254.175-484.578,279.772Z"/>
<circle cx="0" cy="0" r="123" style="fill:#fc0"/></g></svg>
