<svg xmlns="http://www.w3.org/2000/svg" width="900" height="600"><path fill="#00a040" d="M0 0h900v600H0z"/><path d="M390.159 323.078c9.161 23.514-2.575 49.78-25.954 58.903-32.929 12.764-49.353 49.875-36.569 82.764 12.86 33.082 49.953 49.41 82.92 36.703 32.965-12.86 49.35-49.875 36.49-82.9-9.123-23.456 2.577-49.836 25.993-58.842 23.456-9.26 49.878 2.497 58.904 25.858 12.763 33.043 49.797 49.41 82.821 36.568 32.985-12.783 49.295-49.933 36.569-82.861-12.803-33.025-49.78-49.295-82.764-36.607-23.457 9.16-49.895-2.48-58.921-25.995-9.181-23.262 2.537-49.682 25.992-58.765 32.929-12.823 49.275-49.915 36.512-82.804-12.822-33.063-49.934-49.41-82.977-36.626-32.89 12.86-49.277 49.895-36.53 82.802 9.141 23.456-2.52 49.876-25.897 58.922-23.456 9.104-49.799-2.558-58.882-25.955-12.707-32.967-49.837-49.333-82.804-36.588-33.006 12.9-49.43 49.934-36.646 82.9 12.783 33.044 49.915 49.314 82.88 36.53 23.418-9.084 49.857 2.498 58.863 25.993" fill="#fff"/></svg>