<svg height="600" width="900" xmlns="http://www.w3.org/2000/svg"><path d="m0 0h900v600h-900z" fill="#d01c1f"/><path d="m0 120h900v360h-900z" fill="#00a95c"/><g fill="#ffd700"><path d="m229.55762 222.475a222 222.01712 0 0 0 220.37697 197.52499 222 222.01712 0 0 0 220.50781-197.31406 239.21317 222.01712 0 0 1 -220.50781 136.00853 239.21317 222.01712 0 0 1 -220.37697-136.21946z"/><path d="m486.11911 291.20279-36.11944-26.06505-36.11943 26.06479 13.61911-42.41794-35.94183-26.30959 44.53644-.15047 13.90609-42.32473 13.9059 42.32488 44.53656.151-35.94244 26.30891z"/></g></svg>