<svg height="600" width="1200" xmlns="http://www.w3.org/2000/svg" xmlns:xlink="http://www.w3.org/1999/xlink"><defs><clipPath id="b"><path d="M0 0h600v300H0z"/></clipPath><clipPath id="c"><path d="M0 0l300 150H0zm300 0h300L300 150zm0 150h300v150zm0 0v150H0z"/></clipPath><g id="d"><g id="a"><path d="M0 0v.5L1 0z" transform="translate(0 -.325)"/><path d="M0 0v-.5L1 0z" transform="rotate(-36 .5 -.162)"/></g><use transform="scale(-1 1)" xlink:href="#a"/><use transform="rotate(72)" xlink:href="#a"/><use transform="rotate(-72)" xlink:href="#a"/><use transform="scale(-1 1) rotate(72)" xlink:href="#a"/></g></defs><path d="M0 0h1200v600H0z" fill="#00247d"/><path clip-path="url(#b)" d="M0 0l600 300M0 300L600 0" stroke="#fff" stroke-width="60"/><path clip-path="url(#c)" d="M0 0l600 300M0 300L600 0" stroke="#cc142b" stroke-width="40"/><path clip-path="url(#b)" d="M300 0v300M0 150h600" stroke="#fff" stroke-width="100"/><path clip-path="url(#b)" d="M300 0v300M0 150h600" stroke="#cc142b" stroke-width="60"/><use fill="#fff" transform="matrix(45.4 0 0 45.4 900 120)" xlink:href="#d"/><use fill="#cc142b" transform="matrix(30 0 0 30 900 120)" xlink:href="#d"/><g transform="rotate(82 900 240)"><use fill="#fff" transform="rotate(-82 519.022 -457.666) scale(40.4)" xlink:href="#d"/><use fill="#cc142b" transform="rotate(-82 519.022 -457.666) scale(25)" xlink:href="#d"/><use fill="#fff" transform="rotate(-82 668.57 -327.666) scale(45.4)" xlink:href="#d"/><use fill="#cc142b" transform="rotate(-82 668.57 -327.666) scale(30)" xlink:href="#d"/></g><use fill="#fff" transform="matrix(50.4 0 0 50.4 900 480)" xlink:href="#d"/><use fill="#cc142b" transform="matrix(35 0 0 35 900 480)" xlink:href="#d"/></svg>