<svg height="450" viewBox="0 0 180 90" width="900" xmlns="http://www.w3.org/2000/svg"><path d="M0 0h180v90H0z" fill="#0038a8"/><path d="M0 45h180v45H0z" fill="#ce1126"/><path d="M77.942 45L0 90V0" fill="#fff"/><g fill="#fcd116"><path d="M4.5 7.794l2.71 2.341 3.136-1.726-1.39 3.3 2.612 2.449L8 13.856l-1.523 3.241-.815-3.486-3.553-.447 3.064-1.853zM65.487 40.245l.073 3.58L68.942 45l-3.382 1.176-.073 3.58-2.163-2.854-3.427 1.037L61.942 45l-2.045-2.939 3.427 1.037zM6.477 72.903L8 76.143l3.568-.301-2.612 2.45 1.39 3.3-3.137-1.727-2.709 2.34.673-3.516-3.064-1.853 3.553-.447zM28 26l-1.169 1.169.58 8.85a9.017 9.017 0 0 0-.585.057L25.762 28l-.954.953 1.436 7.22a8.947 8.947 0 0 0-3.245 1.343l-4.088-6.119h-1.35l4.96 6.464c-.156.12-.306.244-.454.374l-5.85-6.67h-1.652v1.653l6.67 5.85c-.13.147-.255.298-.374.454l-6.464-4.96v1.349l6.12 4.09a8.946 8.946 0 0 0-1.345 3.243l-7.219-1.436-.953.954 8.076 1.064a9.022 9.022 0 0 0-.057.585l-8.85-.58L9 45l1.168 1.169 8.85-.58c.014.197.033.393.058.587L11 47.238l.953.954 7.22-1.436a8.946 8.946 0 0 0 1.343 3.245l-6.119 4.088v1.35l6.464-4.96c.12.156.244.306.374.454l-6.67 5.85v1.652h1.653l5.85-6.67c.147.13.298.254.454.374l-4.96 6.464h1.349l4.09-6.12a8.936 8.936 0 0 0 3.243 1.346l-1.436 7.218.954.953 1.064-8.076c.193.025.388.044.585.057l-.58 8.85L28 64l1.168-1.168-.579-8.85c.197-.014.392-.033.585-.058L30.238 62l.954-.953-1.436-7.22a8.946 8.946 0 0 0 3.245-1.343l4.088 6.119h1.35l-4.96-6.464a9.04 9.04 0 0 0 .454-.374l5.85 6.67h1.652v-1.653l-6.67-5.85c.13-.147.255-.298.374-.454l6.464 4.96V54.09L35.483 50a8.946 8.946 0 0 0 1.345-3.243l7.219 1.436.953-.954-8.076-1.064c.025-.193.044-.388.057-.585l8.85.58L47 45l-1.169-1.168-8.85.579a8.946 8.946 0 0 0-.057-.585L45 42.762l-.953-.954-7.22 1.436a8.946 8.946 0 0 0-1.343-3.245l6.119-4.088v-1.35l-6.464 4.96a9.044 9.044 0 0 0-.374-.454l6.67-5.85v-1.652h-1.653l-5.85 6.67a9.042 9.042 0 0 0-.454-.374l4.96-6.464H37.09L33 37.517a8.946 8.946 0 0 0-3.243-1.345l1.436-7.219-.954-.953-1.064 8.076a9.02 9.02 0 0 0-.585-.057l.58-8.85z"/></g></svg>