<svg height="630" width="685" xmlns="http://www.w3.org/2000/svg" xmlns:xlink="http://www.w3.org/1999/xlink"><path d="m0 0h685v630h-685z" fill="#fec500"/><path d="m0 25h660v580h-660z" fill="#fff"/><g fill="#fec500" stroke-width="1.5"><path d="m325.777 210.517s-1.05476 118.226-1.05476 126.825c0 8.59835 0 20.4209-9.49345 18.2714-9.49346-2.14956-21.0966-2.14956-37.9739-13.9723-16.8772-11.8226-16.8772-13.9722-16.8772-13.9722l15.8224-5.37394s-15.8224-3.22439-26.3707-10.7479c-10.5483-7.52349-18.987-13.9722-18.987-13.9722s-1.05488 16.1218 4.21942 27.9445c5.27414 11.8226 15.8224 22.5705 15.8224 22.5705v-13.9723s14.7676 13.9723 20.0418 17.1967c5.27417 3.22428 26.3708 11.8226 34.8095 17.1966 8.43858 5.37397 25.3159 20.421 25.3159 20.421s14.7677-17.1966 25.3159-21.4957c10.5483-4.29921 24.2612-10.748 30.5901-15.0471 6.32903-4.29911 23.2063-20.421 23.2063-20.421v18.2714s11.6032-13.9723 14.7676-23.6453c3.16454-9.67306 4.21928-26.8696 4.21928-26.8696s-8.43856 6.44866-15.8224 9.67306c-7.38382 3.22438-28.4805 11.8226-28.4805 11.8226l16.8773 4.29924s-27.4256 21.4957-36.919 25.7949c-9.49342 4.29913-29.5352 6.44866-29.5352-4.29921s1.05477-136.498 1.05477-136.498h-10.5484z" stroke="#fec500"/><path d="m326.832 170.75h7.38382v32.2436h-7.38382z" stroke="#fec500"/><g stroke="#fff"><path d="m274.091 202.994s29.5352-6.44879 56.9608-6.44879 55.906 6.44879 55.906 6.44879v11.8226s-37.9739 5.37395-60.1253 5.37395-53.7963-6.4488-53.7963-6.4488l1.05477-10.7478z"/><path d="m341.6 197.62c0 7.12305-4.95888 12.8974-11.0758 12.8974-6.11696 0-11.0758-5.7744-11.0758-12.8974 0-7.12306 4.95883-12.8974 11.0758-12.8974 6.11691 0 11.0758 5.77438 11.0758 12.8974zm5.27414-.5373c0 9.79427-7.55623 17.734-16.8772 17.734-9.32118 0-16.8774-7.9397-16.8774-17.734 0-9.79426 7.55619-17.734 16.8774-17.734 9.32101 0 16.8772 7.93971 16.8772 17.734z" fill-rule="evenodd"/></g></g><g fill="#003271" stroke="#fff" stroke-linejoin="round"><path d="m427.626 403.37s-14.0105 12.7921-27.7204 14.623c-13.7099 1.83089-35.2966 8.26704-35.2966 8.26704s-.56708 19.7161.10436 21.4305c.67147 1.71439 1.09787 2.15585 3.06555 2.22651 6.38975.22945 21.9518.25307 38.8761-3.68575 22.1359-5.15173 43.8453-18.4699 43.8453-18.4699-5.05939-2.07661-17.3029-3.91336-25.2044-5.87004z"/><path d="m386.598 433.819c1.50255 3.99251-22.1736 7.70545-21.8851 13.8714"/><path d="m232.374 403.37s14.0105 12.7921 27.7204 14.623c13.7099 1.83089 35.2966 8.26704 35.2966 8.26704s.56705 19.7161-.10437 21.4305c-.67149 1.71439-1.09789 2.15585-3.06556 2.22651-6.38976.22945-21.9519.25307-38.8761-3.68575-22.1359-5.15173-43.8453-18.4699-43.8453-18.4699 5.05939-2.07661 17.3029-3.91336 25.2044-5.87004z"/><path d="m273.402 433.819c-1.50255 3.99251 22.1736 7.70545 21.8851 13.8714"/><path d="m277.262 432.989c-2.44328-.76017-3.8598.82961-3.8598.82961v-34.1601s1.47993-1.33554 4.06231-.20952c9.10087 3.96826 32.5541 12.0214 52.536 12.0214s43.435-8.05316 52.5359-12.0214c2.58239-1.12602 4.06231.20952 4.06231.20952v34.1601s-1.41651-1.58978-3.85979-.82961c-9.69335 3.01592-35.0588 10.5064-52.7384 10.5064s-43.0451-7.49051-52.7385-10.5064z"/></g><g fill="#fec500"><g transform="translate(330 315)"><path id="a" d="m0-245 10.580135 25.437694 27.462126 2.201626-20.923244 17.922986 6.392393 26.798374-23.51141-14.36068-23.51141 14.36068 6.392393-26.798374-20.923244-17.922986 27.462126-2.201626z"/><g id="b"><use transform="matrix(.88545602 .46472318 -.46472318 .88545602 0 0)" xlink:href="#a"/><use transform="matrix(.56806475 .82298386 -.82298386 .56806475 0 0)" xlink:href="#a"/><use transform="matrix(.12053668 .99270887 -.99270887 .12053668 0 0)" xlink:href="#a"/><use transform="matrix(-.35460489 .93501624 -.93501624 -.35460489 0 0)" xlink:href="#a"/><use transform="matrix(-.74851074 .66312266 -.66312266 -.74851074 0 0)" xlink:href="#a"/><use transform="matrix(-.97094182 .23931567 -.23931567 -.97094182 0 0)" xlink:href="#a"/></g><use transform="scale(-1 1)" xlink:href="#b"/></g><path d="m362.29336 423.68145v-11.26294l8.12864-2.20311 8.12864-2.2031v2.26163 2.26165l-5.30129 1.43681-5.30128 1.4368v2.26163 2.26163l4.00541-1.08559 4.00542-1.08558v2.26163 2.26163l-4.06432 1.10155-4.06433 1.10156v2.2164 2.21641l5.3602-1.45278 5.36019-1.45277v2.26162 2.26164l-8.12864 2.2031-8.12864 2.20311zm-15.69961.48939c1.9294-.61365 2.85642-1.66916 2.51688-2.86575-.32032-1.12886-2.06437-1.61444-5.13807-1.43055l-1.32532.0793v2.42365 2.42364l1.67874-.22137c.92331-.12178 1.9438-.30576 2.26777-.40882zm-9.36561 3.08488v-11.27683l3.68145-.31713c4.53829-.39092 6.06523-.38545 8.07996.0296 3.50217.72151 5.43688 2.60116 5.63728 5.47693.13279 1.90523-.51319 3.41591-2.02223 4.72921-1.72706 1.50303-4.13443 2.41894-7.98411 3.03765l-1.85545.29821v4.36944 4.36942l-2.76845.28018-2.76845.28016v-11.27682zm-18.27981 6.89221c.70677-.37908 1.41395-1.49383 1.7326-2.73117.63157-2.45231.46409-6.59638-.34797-8.61059-.79021-1.96001-2.49658-2.62422-4.02234-1.56569-1.30426.90484-1.84046 2.92459-1.72484 6.49703.1254 3.87464.82642 5.89974 2.26321 6.53793.63955.28406 1.42044.23664 2.09934-.12751zm-2.74728 4.62091c-2.53168-.41905-4.83815-2.15042-6.01597-4.51592-1.00548-2.01938-1.33752-3.74908-1.33752-6.96774 0-3.22325.33857-5.0063 1.3181-6.94188 1.48168-2.92783 4.62692-4.39764 8.65976-4.04683 4.35942.37924 6.88404 2.85972 7.68534 7.55102.23936 1.40131.2702 4.59568.0604 6.24211-.56373 4.42108-2.37791 7.18588-5.42476 8.26726-1.45883.51776-3.35284.67556-4.94522.41198zm-34.49882-19.4936v-11.26294l2.76844.68122 2.76846.68123v4.52327 4.52326l3.35748.82617 3.35748.82616v-4.52326-4.52327l2.82735.69571 2.82736.69572v11.26294 11.26293l-2.82736-.69572-2.82735-.69571v-4.52326-4.52328l-3.35748-.82616-3.35748-.82617v4.52328 4.52326l-2.76846-.68123-2.76844-.68122z"/></g></svg>