<?xml version="1.0" encoding="UTF-8" standalone="no"?>
<!-- Created with Inkscape (http://www.inkscape.org/) -->
<svg
   xmlns:svg="http://www.w3.org/2000/svg"
   xmlns="http://www.w3.org/2000/svg"
   version="1.0"
   width="1050"
   height="699.99994"
   id="svg2">
  <defs
     id="defs5" />
  <g
     transform="translate(1283.0239,48.275863)"
     id="g4154">
    <path
       d="M -1283.0239,-48.275863 L -233.02387,-48.275863 L -233.02387,651.7241 L -1283.0239,651.7241 L -1283.0239,-48.275863 z "
       style="fill:#006462"
       id="path2163" />
    <path
       d="M -757.15177,43.69278 L -763.62052,49.75528 C -770.57266,56.25868 -774.37978,58.52517 -783.02677,61.31778 C -807.11335,69.09672 -826.66198,87.76657 -835.96427,111.84903 C -840.11848,122.60377 -842.38959,138.93164 -841.05802,148.50527 C -840.48809,152.60284 -840.02677,156.14507 -840.02677,156.38027 C -840.02677,157.54531 -842.37527,156.4007 -848.65177,152.16152 C -866.5775,140.0544 -886.97943,135.03127 -907.21427,137.72402 C -925.29238,140.12978 -939.71521,147.06313 -955.77677,161.06777 C -961.06815,165.68149 -963.3978,166.91262 -970.99552,169.19277 C -975.9276,170.67293 -980.20347,172.28272 -980.49552,172.75527 C -980.78758,173.22783 -980.05478,177.77111 -978.87052,182.84902 L -976.71427,192.06777 L -978.62052,201.69277 C -980.81,212.80379 -981.013,229.20954 -979.08927,238.31777 C -973.55938,264.5 -954.87116,287.6002 -930.49552,298.38027 C -927.48821,299.71026 -925.02471,301.11708 -925.02677,301.53652 C -925.02882,301.95596 -927.16633,303.19284 -929.77677,304.25527 C -954.92872,314.49202 -974.56043,338.25134 -980.12052,365.19277 C -982.57087,377.06594 -982.51763,386.58968 -979.93302,400.09902 L -977.83927,411.03652 L -980.05802,420.59902 C -982.18051,429.78413 -982.19747,430.23792 -980.46427,431.50527 C -979.47164,432.23109 -978.2061,432.81777 -977.68302,432.81777 C -977.15994,432.81775 -973.78607,433.69646 -970.15177,434.78652 C -964.88502,436.36619 -961.80169,438.22095 -955.02677,443.88027 C -935.77841,459.95909 -919.67681,466.09177 -897.02677,466.00527 C -879.31936,465.93765 -863.62966,460.95151 -849.18302,450.81777 C -846.03201,448.60744 -843.22258,446.81777 -842.96427,446.81777 C -842.70595,446.81775 -842.49155,453.45527 -842.49552,461.56777 C -842.50106,472.85236 -842.08306,477.72742 -840.71427,482.31777 C -835.61722,499.41105 -829.41666,510.32675 -818.52677,521.34902 C -806.58688,533.43405 -800.91238,536.76155 -777.80802,545.22402 C -774.88199,546.29576 -770.5298,549.37717 -766.30802,553.34902 C -762.57222,556.86365 -759.06619,559.7315 -758.49552,559.75527 C -757.92484,559.77902 -755.22484,557.51692 -752.49552,554.72402 C -746.55013,548.64012 -741.72013,545.6792 -733.02677,542.78652 C -710.96647,535.44603 -693.69918,520.65356 -683.55802,500.41152 C -676.71209,486.74686 -674.83501,478.24372 -674.83927,461.06777 C -674.84189,450.6052 -674.52747,447.00861 -673.68302,447.50527 C -673.05057,447.87725 -671.17677,449.15809 -669.52677,450.38027 C -645.16985,468.42183 -611.73352,471.98181 -584.52677,459.41152 C -575.82575,455.39141 -569.54181,451.22665 -562.02677,444.53652 C -555.46985,438.69936 -551.79743,436.75952 -542.65177,434.22402 C -538.87291,433.17642 -535.58037,431.73665 -535.30802,431.03652 C -535.0357,430.33641 -535.51307,426.88692 -536.40177,423.34902 C -538.44494,415.21504 -538.46417,407.35798 -536.43302,397.81777 C -534.50864,388.77889 -535.03187,371.43816 -537.49552,362.38027 C -541.6404,347.14111 -547.46548,336.64234 -558.02677,325.47402 C -566.27571,316.75097 -573.78401,311.21871 -583.58927,306.63027 C -587.1245,304.97596 -590.02677,303.25053 -590.02677,302.78652 C -590.02677,302.3225 -586.46018,300.16173 -582.08927,297.97402 C -570.87472,292.36095 -565.54763,288.50861 -557.52677,280.28652 C -546.44537,268.9271 -538.88902,254.53589 -535.62052,238.59902 C -533.87626,230.09421 -533.62008,216.06054 -535.08927,208.31777 C -537.2185,197.09634 -537.31679,190.99641 -535.49552,182.31777 C -534.42206,177.2024 -534.07495,173.39818 -534.62052,172.91152 C -535.12316,172.46316 -538.45177,171.31912 -542.02677,170.34902 C -550.68077,168.00072 -554.43089,165.97792 -561.30802,159.94277 C -572.67262,149.96959 -583.82426,143.88234 -597.52677,140.19277 C -607.26779,137.56986 -628.6867,137.55235 -638.52677,140.16152 C -647.24639,142.4736 -662.00762,149.47134 -668.21427,154.22402 C -670.79377,156.19924 -673.13791,157.81777 -673.43302,157.81777 C -673.72816,157.81778 -673.70264,152.98027 -673.37052,147.06777 C -672.08955,124.26302 -678.34918,104.89985 -692.62052,87.38028 C -702.42115,75.349 -715.18481,66.8861 -732.90177,60.72403 C -741.22507,57.82913 -743.11092,56.72174 -749.71427,50.59903 L -757.15177,43.69278 z "
       style="fill:#ffffff;fill-opacity:1;stroke:none;stroke-width:26.46701813;stroke-linecap:round;stroke-linejoin:miter;stroke-miterlimit:4;stroke-dasharray:none;stroke-dashoffset:0;stroke-opacity:1"
       id="rect2172" />
    <path
       d="M -808.76639,434.86957 C -811.92889,432.92297 -814.51639,430.75897 -814.51639,430.06069 C -814.51639,429.3624 -806.86778,412.87538 -797.51949,393.42285 C -782.21378,361.57377 -780.03501,357.59779 -775.62241,353.4634 C -772.46986,350.50961 -769.07249,348.41027 -766.09645,347.57704 C -755.73398,344.67572 -746.65106,346.67922 -739.41037,353.4634 C -734.99777,357.59779 -732.819,361.57377 -717.51329,393.42285 C -708.165,412.87538 -700.51639,429.36028 -700.51639,430.05597 C -700.51639,431.60179 -712.38687,438.82549 -713.91922,438.21216 C -714.52266,437.97063 -717.90413,429.51138 -721.43359,419.41382 C -733.40765,385.15679 -741.404,366.82085 -746.66298,361.56188 C -752.65197,355.57289 -762.37357,355.56564 -768.35363,361.54571 C -773.60138,366.79345 -781.05101,383.78823 -793.34341,418.55462 C -797.56789,430.50264 -800.77605,438.12321 -801.62722,438.23173 C -802.39126,438.32915 -805.60389,436.81617 -808.76639,434.86957 z M -848.26639,412.98036 C -851.70389,411.0325 -854.50354,408.90236 -854.48784,408.24671 C -854.47214,407.59106 -846.81645,398.07298 -837.4752,387.09541 C -818.60923,364.92467 -806.34049,348.13992 -804.52399,342.01511 C -802.87814,336.46571 -804.48706,330.94462 -809.03451,326.53706 C -812.33981,323.33343 -813.12379,323.06281 -820.12323,322.70936 C -830.86233,322.16706 -845.51332,323.92685 -873.01639,329.06258 C -886.21639,331.52746 -897.35389,333.54653 -897.76639,333.5494 C -899.12527,333.55886 -898.63871,317.53214 -897.26639,317.08009 C -896.17112,316.7193 -867.33264,314.3425 -831.36494,311.64866 C -818.00819,310.64829 -812.0849,311.44537 -805.88791,315.07704 C -794.31142,321.86132 -789.83924,337.04137 -795.73035,349.55519 C -798.46173,355.35717 -839.56255,415.74835 -841.11236,416.23693 C -841.60958,416.39368 -844.82889,414.92822 -848.26639,412.98036 z M -687.30824,397.30462 C -717.51153,353.54216 -720.43611,348.96002 -722.00979,342.93538 C -725.61117,329.14791 -716.95039,314.4559 -702.90296,310.52286 C -698.86034,309.391 -693.93498,309.51824 -668.10509,311.42187 C -628.76566,314.32112 -618.19966,315.45632 -617.29346,316.88102 C -616.88296,317.5265 -616.54016,320.88124 -616.53166,324.336 C -616.51976,329.23798 -616.87556,330.75522 -618.15206,331.24505 C -619.05166,331.59026 -629.96416,330.00025 -642.40206,327.7117 C -666.59035,323.26108 -685.95438,320.57556 -693.95067,320.56261 C -705.98388,320.54313 -714.19694,329.88428 -711.31706,340.31435 C -709.30707,347.59396 -699.10761,361.4601 -675.34907,389.21274 C -667.74109,398.0997 -661.51639,405.99238 -661.51639,406.75202 C -661.51639,408.20265 -671.7195,414.55462 -674.04962,414.55462 C -674.79393,414.55462 -680.76031,406.79212 -687.30824,397.30462 z M -765.24194,315.46143 C -774.49466,310.88139 -776.78014,299.17296 -769.90657,291.56474 C -763.23825,284.1837 -753.92563,283.94538 -746.89517,290.97584 C -737.22489,300.64612 -744.91954,317.5145 -759.01639,317.54825 C -760.11639,317.55089 -762.91789,316.61181 -765.24194,315.46143 z M -863.01639,290.72513 C -881.71639,289.24311 -897.57889,287.6719 -898.26639,287.23356 C -899.08299,286.71291 -899.51639,283.85667 -899.51639,278.9956 C -899.51639,272.0967 -899.36298,271.55462 -897.41061,271.55462 C -896.25244,271.55462 -884.29805,273.58933 -870.8453,276.07621 C -844.95462,280.86235 -823.38192,283.31478 -817.26525,282.16728 C -807.0897,280.25834 -801.58774,268.72188 -806.37482,259.3323 C -810.00179,252.21821 -822.48467,235.79342 -838.88596,216.55462 C -848.02914,205.82962 -855.36206,196.60462 -855.18134,196.05462 C -854.70995,194.62006 -843.40781,188.42028 -841.89297,188.7653 C -840.51274,189.07966 -799.96349,247.73948 -796.27417,254.75889 C -793.25779,260.49796 -793.11999,272.16571 -795.99945,278.02146 C -798.50989,283.12677 -804.0169,288.61122 -809.04955,291.01809 C -814.92109,293.82616 -824.54739,293.77391 -863.01639,290.72513 z M -702.33215,291.51198 C -717.99697,288.33412 -727.43977,270.90156 -721.69125,255.77269 C -720.19108,251.82458 -681.74167,194.1322 -676.75495,188.34692 C -675.37462,186.74554 -674.99388,186.7857 -670.64014,188.99191 C -668.08658,190.2859 -664.92823,192.2103 -663.62158,193.26836 L -661.24585,195.19211 L -672.66606,208.62336 C -694.32668,234.09832 -696.74765,237.08658 -702.99136,246.05462 C -711.8536,258.78373 -712.8278,260.96193 -712.26734,266.79471 C -711.72934,272.3938 -709.31011,276.16945 -704.41186,279.05462 C -698.28287,282.66472 -682.22897,281.34713 -642.60896,273.98229 C -629.73486,271.58917 -618.82236,269.86549 -618.35896,270.15191 C -617.22836,270.85068 -617.27576,285.28786 -618.41096,285.98948 C -619.14276,286.44174 -643.20576,288.39033 -692.01639,291.94994 C -695.31639,292.1906 -699.95848,291.99352 -702.33215,291.51198 z M -765.56583,256.22236 C -771.47219,254.59082 -776.95347,251.1598 -779.96398,247.20983 C -783.05046,243.16019 -815.51639,175.82469 -815.51639,173.47287 C -815.51639,172.37412 -813.20017,170.2924 -809.42813,168.001 C -802.27025,163.65282 -801.85481,163.84915 -798.73459,173.05462 C -784.82498,214.09161 -774.28364,238.34639 -768.41831,242.80999 C -761.84841,247.80978 -754.94089,247.61433 -748.81487,242.2553 C -743.69539,237.77678 -736.59645,222.24881 -725.62883,191.53901 C -720.65696,177.61757 -716.17779,165.81602 -715.67511,165.31334 C -714.73253,164.37076 -704.63196,169.50552 -702.59086,171.96489 C -701.76801,172.95637 -705.55927,181.78192 -718.14177,208.16532 C -727.29324,227.35443 -736.24492,244.86763 -738.03438,247.08352 C -744.40686,254.97459 -756.06898,258.84573 -765.56583,256.22236 z "
       style="fill:#df4133"
       id="path3168" />
  </g>
</svg>
