<?xml version="1.0" encoding="UTF-8" standalone="no"?>
<!-- Created with Inkscape (http://www.inkscape.org/) -->

<svg
   xmlns:svg="http://www.w3.org/2000/svg"
   xmlns="http://www.w3.org/2000/svg"
   version="1.1"
   width="3000"
   height="2000"><rect
     width="3000"
     height="2000"
     style="fill:#33419a"/><path
     d="m 2102.543,690.91229 c -164.2778,0 -297.4614,133.39746 -297.4614,297.90127 0,1.00047 0.6094,11.92304 0.7194,14.08914 0.362,20.1701 -4.6921,62.6671 -49.4136,89.6384 -44.8908,27.0586 -85.7495,13.2448 -105.5534,3.0749 -3.6657,-2.1708 -12.7475,-7.2879 -12.8024,-7.3292 -19.222,-12.8867 -48.3917,-40.5373 -48.3917,-89.94584 0,-47.8665 28.2762,-73.89247 46.4442,-85.70077 4.3897,-2.28088 14.5849,-8.16438 14.5849,-8.16438 87.7199,-51.82707 146.7697,-147.18375 146.7697,-256.57453 C 1797.4387,483.39747 1664.2504,350 1499.9634,350 c -164.2778,0 -297.4615,133.39747 -297.4615,297.90128 0,109.39078 59.0313,204.74287 146.7604,256.57453 0,0 10.186,5.8835 14.5849,8.15062 18.1727,11.80829 46.458,37.84803 46.458,85.71453 0,49.40854 -29.188,77.06374 -48.3962,89.95964 -0.028,0.014 -16.4361,9.1236 -16.4361,9.1236 l 0,0 c -20.9356,9.8349 -59.6133,20.5692 -101.842,-4.8831 -44.7351,-26.9713 -49.7846,-69.4683 -49.4181,-89.6384 0.096,-2.1707 0.7103,-13.08867 0.7103,-14.08914 0,-164.50381 -133.1745,-297.90127 -297.46158,-297.90127 -164.28244,0 -297.46149,133.39746 -297.46149,297.90127 0,164.54514 133.17905,297.95634 297.46149,297.95634 51.36546,0 96.78795,-11.4182 138.95258,-34.3693 0,0 11.5332,-6.8748 15.8403,-9.4999 18.9929,-9.6651 56.7678,-21.8543 98.8912,3.5338 44.0111,26.5262 51.5396,68.0778 52.1031,90.7123 -0.2428,4.9656 -0.6918,15.9799 -0.6918,15.9799 0.5911,164.0403 133.486,296.8733 297.4065,296.8733 163.9525,0 296.8383,-132.8559 297.4202,-296.9146 l 0.165,0.087 c 0,0 -0.6095,-10.124 -0.8064,-14.6445 0.2794,-22.2719 7.1664,-64.9892 52.1077,-92.0845 42.1371,-25.3834 79.9166,-13.1988 98.914,-3.5337 4.3072,2.6251 12.9445,7.8706 12.9445,7.8706 42.1646,22.9558 90.4692,36.0032 141.8301,36.0032 164.2961,0 297.4615,-133.4113 297.4615,-297.95637 0,-164.51758 -133.1654,-297.91504 -297.4615,-297.91504 z M 1500.0046,532.81057 c 63.499,0 114.9377,51.55171 114.9377,115.11824 0,63.58489 -51.4433,115.1366 -114.9377,115.1366 -63.4806,0 -114.9468,-51.55171 -114.9468,-115.1366 0,-63.56653 51.4662,-115.11824 114.9468,-115.11824 z M 897.50735,1103.9777 c -63.48057,0 -114.94685,-51.5517 -114.94685,-115.13661 0,-63.57111 51.4617,-115.12283 114.94685,-115.12283 63.48515,0 114.94685,51.55172 114.94685,115.12283 0,63.58491 -51.4617,115.13661 -114.94685,115.13661 z m 602.49725,363.2255 c -63.4806,0 -114.9468,-51.5517 -114.9468,-115.1366 0,-63.5711 51.4617,-115.1228 114.9468,-115.1228 63.499,0 114.9377,51.5517 114.9377,115.1228 0,63.5803 -51.4387,115.1366 -114.9377,115.1366 z m 602.5064,-363.2255 c -63.4943,0 -114.9376,-51.5517 -114.9376,-115.13661 0,-63.57111 51.4433,-115.12283 114.9376,-115.12283 63.476,0 114.9423,51.55172 114.9423,115.12283 0,63.58491 -51.4663,115.13661 -114.9423,115.13661 z"
     id="path5"
     style="fill:#ffffff" /></svg>