<svg xmlns="http://www.w3.org/2000/svg" width="3000" height="2000"><path fill="#33419a" d="M0 0h3000v2000H0z"/><path d="M2102.543 690.912c-164.278 0-297.461 133.398-297.461 297.902 0 1 .609 11.923.719 14.089.362 20.17-4.692 62.667-49.414 89.638-44.89 27.059-85.75 13.245-105.553 3.075-3.666-2.17-12.748-7.288-12.802-7.33-19.222-12.886-48.392-40.536-48.392-89.945 0-47.867 28.276-73.893 46.444-85.7 4.39-2.282 14.585-8.165 14.585-8.165 87.72-51.827 146.77-147.184 146.77-256.575 0-164.504-133.189-297.901-297.476-297.901-164.277 0-297.461 133.397-297.461 297.901 0 109.391 59.031 204.743 146.76 256.575 0 0 10.186 5.883 14.585 8.15 18.173 11.809 46.458 37.848 46.458 85.715 0 49.408-29.188 77.064-48.396 89.96-.028.014-16.436 9.123-16.436 9.123-20.936 9.835-59.613 20.57-101.842-4.883-44.735-26.971-49.785-69.468-49.418-89.638.096-2.171.71-13.089.71-14.09 0-164.503-133.174-297.9-297.461-297.9C733.179 690.912 600 824.31 600 988.812c0 164.546 133.18 297.957 297.462 297.957 51.365 0 96.787-11.418 138.952-34.37 0 0 11.533-6.874 15.84-9.5 18.993-9.664 56.768-21.854 98.892 3.534 44.01 26.527 51.54 68.078 52.103 90.713-.243 4.965-.692 15.98-.692 15.98.591 164.04 133.486 296.873 297.406 296.873 163.953 0 296.839-132.856 297.42-296.915l.166.087s-.61-10.124-.807-14.644c.28-22.272 7.167-64.99 52.108-92.085 42.137-25.383 79.917-13.198 98.914-3.533 4.307 2.625 12.944 7.87 12.944 7.87 42.165 22.956 90.47 36.003 141.83 36.003 164.297 0 297.462-133.41 297.462-297.956 0-164.517-133.165-297.915-297.461-297.915zm-602.538-158.101c63.499 0 114.937 51.551 114.937 115.118 0 63.585-51.443 115.136-114.937 115.136-63.481 0-114.947-51.551-114.947-115.136 0-63.567 51.466-115.118 114.947-115.118zm-602.498 571.167c-63.48 0-114.946-51.552-114.946-115.137 0-63.571 51.461-115.123 114.946-115.123 63.486 0 114.947 51.552 114.947 115.123 0 63.585-51.461 115.137-114.947 115.137zm602.498 363.225c-63.481 0-114.947-51.552-114.947-115.136 0-63.572 51.462-115.123 114.947-115.123 63.499 0 114.937 51.551 114.937 115.123 0 63.58-51.438 115.136-114.937 115.136zm602.506-363.225c-63.494 0-114.938-51.552-114.938-115.137 0-63.571 51.444-115.123 114.938-115.123 63.476 0 114.942 51.552 114.942 115.123 0 63.585-51.466 115.137-114.942 115.137z" fill="#fff"/></svg>