<svg xmlns="http://www.w3.org/2000/svg" width="300" height="200"><rect width="100%" height="100%" fill="none"/><switch><g><path fill="#3E8BC3" d="M0 200.5h300.5V0H0v200.5"/><g fill="#FFF"><path d="M158.8 48.8c-1.5-.9-2.8-2.1-4.1-3.4-1.8-1.7-3.2-3.6-4.4-5.5-1.2 1.9-2.6 3.8-4.4 5.5-1.3 1.3-2.6 2.5-4.1 3.4-2.2 1.6-4.5 2.9-7 3.8-8.5 2.4-16.1 7.1-22.8 13.7l-.1.1 32.9 11.3c2.3 1 3.7 1.9 4.4 2.7.4.6.8 1.1 1 1.3.1.1.1.2.1.2.1 0 .1-.1.2-.2 3.2-3.2 7.1-4.7 11.6-4.7 4.4 0 8.3 1.5 11.4 4.6l.2-.1s0 .1.1.1l1.2 1.2c5.5 6.1 8.3 13.4 8.3 21.8-.1 9-3.3 16.7-9.6 23-6.2 6.2-13.5 9.4-22 9.6v21.6c14.3-.3 26.6-5.6 36.9-15.9 10.6-10.5 15.9-23.3 15.9-38.3 0-14.9-5.3-27.7-15.9-38.3-6.7-6.6-14.3-11.3-22.8-13.6h.1c-2.6-1-4.9-2.3-7.1-3.9M194.2 68.1c4.3 4.9 7.5 10.5 9.6 16.8l34.6-11.7 9.1-24.4-53.3 19.3M237.3 76.2l-32.6 11.5c1.6 5.8 2.4 12.2 2.4 19.1l21.4-7.1 8.8-23.5"/><path d="M55.1 49.7L63.7 74l56.4 18.7c.9-2.3 2.1-4.5 3.5-6.6 1.1-1.6 2.4-3.2 3.9-4.6 1-1 2.1-2 3.1-2.8 1-.8 2.1-1.5 3.2-2.2L55.1 49.7M119.2 95.5L64.8 77.1l7.9 22.3 47.1 16.3c-1.2-3.4-1.8-7.2-1.8-11.1 0-3.2.4-6.2 1.2-9.1M148.7 137.2c-8.2-.4-15.3-3.6-21.2-9.6-2.7-2.6-4.8-5.6-6.3-8.7l-24.8-8.2c1.3 12.4 6.5 23.1 15.6 32.2 10.2 10.2 22.4 15.5 36.7 15.9v-21.6"/></g></g></switch></svg>