<?xml version="1.0" encoding="UTF-8" standalone="no"?>
<!-- Created with Inkscape (http://www.inkscape.org/) -->

<svg
   xmlns:svg="http://www.w3.org/2000/svg"
   xmlns="http://www.w3.org/2000/svg"
   version="1.0"
   width="1050"
   height="700"
   id="svg2">
  <defs
     id="defs5" />
  <path
     d="m 0,0 1050,0 0,699.99999 -1050,0 L 0,0 z"
     id="path2165"
     style="fill:#950017;fill-opacity:1" />
  <path
     d="m 525,140 c -42.91374,0 -78.14138,32.84549 -81.96092,74.76 h 53.57832 c 3.34183,-12.56687 14.76412,-21.84 28.3826,-21.84 16.23465,0 29.4,13.16427 29.4,29.4 0,16.23572 -13.16428,29.4 -29.4,29.4 -13.61848,0 -25.04077,-9.27313 -28.3826,-21.84 h -53.56656 c 1.40641,15.41496 7.04274,29.61053 15.76977,41.39298 L 525,350 v -45.36 c 45.46473,0 82.32,-36.86168 82.32,-82.32 C 607.32,176.86168 570.46473,140 525,140 z"
     id="path5"
     style="fill:#ffd700;fill-opacity:1;stroke:none" />
  <path
     d="m 735,350 c 0,-42.9116 -32.84443,-78.13924 -74.76,-81.95878 v 53.57618 c 12.56794,3.3397 21.84107,14.7652 21.84107,28.3826 0,16.23466 -13.16428,29.4 -29.40107,29.4 -16.23466,0 -29.4,-13.16427 -29.4,-29.4 0,-13.6174 9.27313,-25.0429 21.84107,-28.3826 v -53.56656 c -15.41603,1.40748 -29.61054,7.04488 -41.39298,15.76977 L 525,350 h 45.36 c 0,45.46473 36.86061,82.32 82.31893,82.32 C 698.13725,432.32 735,395.46473 735,350 z"
     id="path7"
     style="fill:#ffd700;fill-opacity:1;stroke:none" />
  <path
     d="m 525,560 c 42.9116,0 78.13923,-32.84443 81.95878,-74.76 h -53.57619 c -3.34076,12.56794 -14.76519,21.84107 -28.38366,21.84107 -16.23573,0 -29.4,-13.16427 -29.4,-29.40107 0,-16.23466 13.16427,-29.4 29.4,-29.4 13.6174,0 25.0429,9.27313 28.38366,21.84107 h 53.5655 c -1.40641,-15.41603 -7.04489,-29.61053 -15.76977,-41.39298 L 525,350 v 45.36 c -45.46474,0 -82.32,36.86061 -82.32,82.31893 C 442.68,523.13725 479.53526,560 525,560 z"
     id="path9"
     style="fill:#ffd700;fill-opacity:1;stroke:none" />
  <path
     d="m 314.99999,350 c 0,42.9116 32.8455,78.13924 74.76001,81.95878 V 378.3826 C 377.19313,375.0429 367.92,363.6174 367.92,350 c 0,-16.23573 13.16427,-29.4 29.4,-29.4 16.23572,0 29.4,13.16427 29.4,29.4 0,13.6174 -9.27313,25.0429 -21.84,28.38366 v 53.5655 c 15.41496,-1.40641 29.61053,-7.04488 41.39297,-15.76977 L 525,350 h -45.36 c 0,-45.46473 -36.86168,-82.32 -82.32,-82.32 -45.45833,0 -82.32001,36.85527 -82.32001,82.32 z"
     id="path11"
     style="fill:#ffd700;fill-opacity:1;stroke:none" />
</svg>
