<svg xmlns="http://www.w3.org/2000/svg" version="1.0" width="1050" height="700"><path d="M0 0h1050v700H0V0z" fill="#950017"/><path d="M525 140c-42.914 0-78.141 32.845-81.96 74.76h53.577c3.342-12.567 14.765-21.84 28.383-21.84 16.235 0 29.4 13.164 29.4 29.4 0 16.236-13.164 29.4-29.4 29.4-13.618 0-25.04-9.273-28.383-21.84h-53.566a81.915 81.915 0 0 0 15.77 41.393L525 350v-45.36c45.465 0 82.32-36.862 82.32-82.32 0-45.458-36.855-82.32-82.32-82.32zM735 350c0-42.912-32.844-78.14-74.76-81.959v53.576c12.568 3.34 21.841 14.766 21.841 28.383 0 16.235-13.164 29.4-29.401 29.4-16.235 0-29.4-13.164-29.4-29.4 0-13.617 9.273-25.043 21.841-28.383v-53.566a81.94 81.94 0 0 0-41.393 15.77L525 350h45.36c0 45.465 36.86 82.32 82.319 82.32C698.137 432.32 735 395.465 735 350zM525 560c42.912 0 78.14-32.844 81.959-74.76h-53.576c-3.341 12.568-14.766 21.841-28.384 21.841-16.236 0-29.4-13.164-29.4-29.401 0-16.235 13.164-29.4 29.4-29.4 13.617 0 25.043 9.273 28.384 21.841h53.565a81.931 81.931 0 0 0-15.77-41.393L525 350v45.36c-45.465 0-82.32 36.86-82.32 82.319C442.68 523.137 479.535 560 525 560zM315 350c0 42.912 32.845 78.14 74.76 81.959v-53.576c-12.567-3.34-21.84-14.766-21.84-28.383 0-16.236 13.164-29.4 29.4-29.4 16.236 0 29.4 13.164 29.4 29.4 0 13.617-9.273 25.043-21.84 28.384v53.565a81.935 81.935 0 0 0 41.393-15.77L525 350h-45.36c0-45.465-36.862-82.32-82.32-82.32-45.458 0-82.32 36.855-82.32 82.32z" fill="gold"/></svg>