<svg height="2880" width="4320" xmlns="http://www.w3.org/2000/svg" xmlns:xlink="http://www.w3.org/1999/xlink"><path d="M0 0h4320v2880H0z" fill="#ed2939"/><path d="M0 1440h4320v1440H0zM1481.678 720a541.5 541.5 0 1 1-1083 0 541.5 541.5 0 1 1 1083 0z" fill="#fff"/><path d="M1651.835 720a511.735 511.735 0 1 1-1023.47 0 511.735 511.735 0 1 1 1023.47 0z" fill="#ed2939"/><path id="a" d="M1007.195 733.064l-73.56-56.43-73.542 56.457 28.313-90.994-73.795-56.092 91.06.193 27.934-91.123 27.964 91.113 91.06-.226-73.777 56.119z" fill="#fff"/><use transform="translate(577.189)" xlink:href="#a"/><use transform="translate(288.889 -214.211)" xlink:href="#a"/><use transform="translate(108 342.749)" xlink:href="#a"/><use transform="translate(469.189 342.749)" xlink:href="#a"/></svg>