<svg height="600" width="1200" xmlns="http://www.w3.org/2000/svg" xmlns:xlink="http://www.w3.org/1999/xlink"><path d="M0 0h1200v200H0z" fill="#006d21"/><path d="M0 200h1200v200H0z" fill="#fff"/><path d="M0 400h1200v200H0z" fill="#df0000"/><g fill="#fff" fill-rule="evenodd"><path d="M380.943 47.732c-1.03 13.907-2.268 38.38 9.549 40.89 14.292 1.374 6.411-24.19 11.584-28.825.978-2.29 2.782-2.303 2.93.587v21.684c-.13 7.051 4.506 9.128 8.107 10.585 3.747-.289 6.25-.164 7.718 3.483.586 12.502 1.173 25.005 1.758 37.508 0 0 8.692 2.488 9.106-21.097.415-13.848-2.766-25.44-.901-28.134.066-2.647 3.446-2.806 5.79-1.516 3.736 2.635 5.4 5.89 11.206 4.588 8.835-2.434 14.145-6.731 14.276-13.515-.516-6.446-1.239-12.894-4.032-19.34.39-1.172-1.706-4.21-1.317-5.382 1.588 2.486 4.003 2.28 4.553 0-1.504-4.955-3.836-9.702-7.619-11.756-3.126-2.754-7.7-2.192-9.375 3.552-.777 6.618 2.385 14.48 7.204 20.89 1.024 2.505 2.462 6.666 1.83 10.414-2.565 1.463-5.13.853-7.278-1.415 0 0-7.032-5.274-7.032-6.446 1.866-11.947.414-13.302-.62-16.618-.722-4.577-2.894-6.044-4.654-9.17-1.759-1.865-4.138-1.865-5.276 0-3.108 5.388-1.658 16.955.587 22.135 1.622 4.765 4.101 7.756 2.93 7.756-.965 2.692-2.959 2.07-4.41-1.037-2.071-6.424-2.486-16.008-2.486-20.325-.622-5.35-1.305-16.764-4.827-19.664-2.148-2.926-5.332-1.499-6.445 1.171-.231 5.311-.255 10.621.342 15.516 2.416 8.585 3.174 16.133 4.347 24.924.325 11.776-6.81 5.11-6.483-.728 1.645-7.583 1.218-19.518-.243-22.543-1.16-3.026-2.528-3.772-5.346-3.274-2.238-.137-7.997 6.151-9.614 16.582 0 0-1.378 5.368-1.966 10.135-.791 5.387-4.337 9.188-6.824-.757-2.149-7.23-3.47-25.025-7.069-20.858z"/><path d="M419.78 104.786c-12.612 6.166-24.81 11.918-37.217 17.876.454-8.436 17.694-23.664 29.452-23.88 7.652.214 5.73 2.966 7.765 6.004z"/><path d="M413.278 116.448c-19.614 50.56 45.93 57.605 53.255 2.071.69-2.279 3.454-4.559 3.937-.829-1.52 50.282-50.698 53.737-59.055 37.919-2.071-3.729-2.694-12.017-2.902-16.991-1.243-9.876-6.422-6.078-7.251 3.73-.83 5.456-.622 6.978-.622 12.226 2.624 39.716 65.964 22.655 76.254-10.153 5.456-18.167-.899-31.565 2.071-31.497 6.286 6.77 15.057.898 16.991-1.45.83-1.175 2.903-1.933 4.352-.414 4.904 3.524 13.54 1.864 15.334-4.352 1.037-6.078 1.866-12.364 2.074-18.855-4.008 1.245-6.977 2.071-7.253 3.73-.277 1.796-.552 3.59-.83 5.387-.344 1.728-3.8 1.795-3.937-.416-1.519-6.907-7.804-7.804-11.604 2.903-2.556 2.071-7.183 2.487-7.668-.621.622-7.184-2.28-8.152-8.08-4.767-1.865-14.228-3.729-27.835-5.595-42.063 2.418-.07 4.63 1.725 6.84-1.037-2.42-7.528-7.53-22.931-10.363-24.036-1.381-1.657-2.557-.622-4.351-.208-3.039.967-5.872 3.592-4.974 8.704 3.591 21.825 5.941 38.472 9.533 60.299.552 2.556-1.59 5.937-4.352 5.593-4.696-3.178-5.868-9.6-13.882-9.325-5.802.07-12.435 6.355-13.262 12.435-.967 4.833-1.314 10.081-.002 14.296 4.078 4.903 8.98 4.422 13.264 3.315 3.522-1.45 6.422-4.972 7.666-4.144.83 1.036.206 12.638-16.578 21.55-10.153 4.558-18.235 5.595-22.584-2.695-2.694-5.18.207-24.865-6.426-20.305z"/><path d="M496.474 65.056c3.938-1.451 22.59-22.793 22.59-22.793-.97-.83-1.833-1.451-2.8-2.28-1.037-.898-.933-1.795 0-2.694 4.627-2.693 3.142-8.6.726-11.292-4.007-1.797-7.496-1.21-10.052.103-3.246 3.108-4.004 8.08-1.448 11.189 2.488 1.175 4.973 3.696 3.314 5.077-7.63 8.15-28.525 22.206-26.107 22.69.516.69 13.365.656 13.777 0zM383.845 140.584c-6.995 11.143-7.603 27.79-3.744 32.754 2.05 2.344 5.42 3.372 7.913 2.637 4.394-1.905 6.318-10.81 5.275-14.066-1.467-2.296-2.622-2.66-4.086-.707-3.093 6.278-4.377 1.972-4.648-1.537-.474-6.654.153-12.783.875-17.635.77-4.974-.013-3.454-1.585-1.446zM682.744 122.74c-6.763-14.558-16.125-28.943-19.105-34.47-2.978-5.528-25.467-38.165-28.778-41.836-7.306-8.682 11.863 3.616-2.425-13.621-5.448-4.674-5.765-4.959-10.287-8.772-2.281-1.619-7.85-4.576-8.837.325-.495 4.321-.228 6.665.498 10.262.557 2.4 4.052 6.417 5.77 8.745 22.817 30.67 43.049 61.643 62.56 100.585 3.08-1.464 2.407-18.782.604-21.218z"/><path d="M653.059 171.445c-1.33 1.493 3.283 7.878 9.278 7.872 10.026-1.164 18.852-6.795 27.024-21.62 2.185-3.457 6.027-10.852 6.14-16.588.764-33.63-1.684-59.798-6.723-84.104-.323-2.368-.126-5.15.275-5.861.649-.775 2.851.004 4.019-1.912 1.713-1.75-4.55-16.242-8.122-21.824-1.268-2.492-1.71-4.157-3.809.293-2.208 3.617-3.691 9.927-3.517 15.824 4.783 33.114 6.252 62.083 9.378 95.199.254 3.202-.216 7.856-2.345 9.711-7.874 8.223-19.24 18.343-31.598 23.01zM788.498 171.268c-7.195 4.159-7.204 8.943-1.386 9.116 10.026-1.164 21.872-1.997 30.044-14.334 2.187-3.457 4.784-12.806 4.896-18.542.765-33.63-.439-58.732-5.478-83.038-.322-2.368-1.37-7.817-.97-8.527.65-1.665 3.919.181 5.086-1.734 1.714-1.75-8.46-14.82-12.032-20.403-1.268-2.492-1.71-4.156-3.809.293-2.208 3.617-2.98 10.105-2.095 15.825 5.316 35.958 9.274 62.972 10.09 94.843-.458 3.025-.572 4.656-1.99 8.467-3.138 4.022-6.614 9.052-9.875 11.483-3.259 2.43-10.213 4.75-12.481 6.55z"/><path d="M793.89 139.033c-.082-8.41.12-15.67-.158-21.943-.276-6.272-1.384-11.38-3.555-15.832-2.055-4.773-.779-8.61-1.744-13.694-.963-5.083-.726-12.696-2.183-18.728-.4-2.356-1.623-9.9-1.245-10.624.594-1.684 2.856.053 3.961-1.898 1.655-1.804-5.74-20.937-9.49-26.4-1.35-2.45-3.799-1.61-6.82 2.372-2.8 2.62-1.76 8.598-.692 14.285 7.194 37.543 12.56 71.523 11.39 107.262-.36 3.038 10.611-9.064 10.537-14.8zM740.732 92.464c-4.525-.083-14.003-8.806-16.769-13.917-1.045-2.931-.374-5.791.547-7.466 1.676-1.09 4.253-2.314 6.18-1.14 0 0 1.998 2.796 1.612 3.151 2.47 1.183 3.52.503 3.77-.503.168-1.759-.73-2.808-.74-4.746 1.048-5.256 7.055-6.073 9.317-2.721 1.656 2.043 2.263 6.385 2.514 9.316-.027 1.498-2.452-.259-3.83.101-1.378.361-1.71 1.951-1.816 3.39-.25 3.811-.701 9.927-.785 14.535zM657.228 148.356c1.246-11.426-.461-31.776-.575-38.519-.457-15.929-3.059-46.694-4.297-51.834-1.396-9.689 3.985 1.063 3.24-4.568-1.745-9.676-7.112-16.234-13.42-25.096-2.034-2.882-1.966-3.47-5.106.707-3.475 7.884-.475 13.307.422 19.446 4.55 20.004 7.204 38.41 8.44 56.606 1.236 18.197 1.615 37.87.487 57.034 3.41.134 8.891-5.515 10.809-13.776z"/><path d="M809.292 130.054c-7.98-13.389-20.02-27.888-23.237-33.28-3.216-5.393-30.423-40.495-33.89-44.018-9.952-10.456 4.565-1.702-1.905-9.778-5.472-6.008-7.068-7.895-11.752-11.508-2.348-1.518-3.771-4.416-4.543.523-.307 4.34-.627 9.359-.336 13.017-.017 2.032 2.1 5.852 3.918 8.103 24.131 29.647 50.45 59.92 71.639 97.975 3.014-1.597 2.012-18.679.106-21.034z"/><path d="M447.274 105.352c-.574 1.006-1.852 2.31-1.424 3.66.896 1.215 1.612 1.461 3.104 1.527 1.295 0 3.105.306 3.494-.458.697-.768 1.227-2.335.646-3.815-1.348-3.37-5.115-2.114-5.82-.914z" fill="#006421"/><path d="M524.065 36.274c-7.265 20.763 4.161 43.476 12.084 41.264 5.715 2.366 9.355-8.507 11.695-20.42 1.6-3.342 2.81-3.699 3.632-1.98-.21 15.84 1.138 19.35 5.21 24.158 9.086 7.01 16.602.895 17.19.305l7.075-7.074c1.574-1.656 3.67-1.753 5.894-.294 2.161 1.964 1.858 5.358 6.485 7.711 3.894 1.558 12.22.36 14.148-2.995 2.596-4.449 3.218-5.976 4.42-7.663 1.854-2.466 5.012-1.37 5.012-.59-.295 1.374-2.15 2.75-.884 5.228 2.203 1.652 2.712.589 4.015.222 4.609-2.204 8.07-12.23 8.07-12.23.204-3.73-1.887-3.42-3.243-2.653-1.768 1.081-1.884 1.427-3.652 2.508-2.254.335-6.626 1.829-8.787-1.518-2.207-4.023-2.237-9.637-3.924-13.695 0-.296-2.928-6.393-.203-6.783 1.376.256 4.31 1.032 4.776-1.439 1.443-2.408-3.088-9.228-6.19-12.674-2.69-2.954-6.42-3.31-10.02-.294-2.522 2.32-2.16 4.912-2.654 7.368-.642 2.821-.505 6.292 2.358 10.021 2.517 4.962 7.108 11.352 5.6 20.338 0 0-2.681 4.247-7.354 3.691-1.948-.425-5.106-1.252-6.793-13.712-1.277-9.432.301-22.629-3.702-28.816-1.446-3.736-2.502-7.343-6.025-.954-.947 2.51-5.01 6.317-2.063 14.148 2.41 4.966 3.392 13.046 2.298 22.037-1.67 2.555-2.041 3.42-4.231 5.975-3.077 3.308-6.416 2.463-8.973 1.228-2.389-1.61-4.26-2.443-5.35-7.558.196-8.154.651-21.502-.84-24.334-2.197-4.386-5.82-2.8-7.369-1.475-7.437 6.8-11.112 18.275-13.357 27.412-2.063 6.659-4.257 4.75-5.8 2.064-3.758-3.521-4.012-31.054-8.548-26.527z"/><path d="M545.937 81.412c3.299-2.337 1.757-3.97 6.69.962 6.177 10.56 10.146 24.235 10.741 36.352-.26 2.985 1.845 4.875 2.807 4.226.573-7.01 17.617-16.776 33.247-18.204 2.39-.52 1.228-5.1 1.618-7.436-.937-8.678 4.876-16.577 13.024-17.207 11.089 1.639 14.78 7.56 14.967 16.597-1.197 17.35-19.27 20.29-29.425 21.674-1.558.59-2.207 1.308 0 2.158l42.547.193 2.171 1.254c.26 1.014-.62.168-2.3 2.934-1.68 2.766-4.156 9.144-4.284 13.403-12.677 4.076-25.788 5.862-39.114 7.474-4.63 2.34-6.924 5.46-5.974 8.972 1.558 3.894 11.813 7.784 11.813 7.97 1.947 1.22 4.251 4.07-.551 9.911-20.754-.913-36.836-9.745-42.404-22.21-1.678-1.301-3.485-.008-4.643 1.677-8.103 10.445-16.075 19.852-29.89 24.845-8.238 2.058-16.671-1.264-20.654-6.659-2.667-3.07-2.565-6.46-3.544-7.195-4.452 1.969-42.768 18.25-37.911 10.665 9.325-9.98 25.468-17.312 39.726-27.163 1.028-3.3 2.899-14.466 8.53-18.102.326.028-.892 6.557-.77 9.311.064 2.26-.166 3.146.329 2.564.962-.613 18.261-14.206 19.598-18.375 1.687-2.39.507-8.445.507-8.628-3.245-8.362-7.796-9.072-9.483-13.227-1.519-5.518-.831-11.818 2.323-13.574 2.801-2.543 6.12-2.228 9.18.55 3.494 3.13 6.597 9.247 7.494 13.803-.6 1.803-4.572-1.197-5.95-.303 2.44 2.526 3.578 5.44 4.459 9.004 2.253 9.544 1.566 13.254-.702 19.426-7.681 16.15-17.497 20.969-26.086 26.95-.229.082-.381 4.099 2.849 6.27 1.114 1.17 5.593 1.77 10.861.082 10.179-5.55 20.746-15.776 25.991-27.168 1.523-8.617-.59-17.754-2.83-25.722-3.375-7.788-7.35-18.907-7.35-19.09-.132-4.857.263-6.542 2.393-8.964zM434.545 36.498c4.897 2.335 14.103 1.342 13.715-6.554 0-.699-.178-3.062-.248-3.701-1-2.328-3.727-1.753-4.345.65-.194.787.347 2.069-.366 2.465-.409.413-1.974.17-1.909-2.011 0-.695-.512-1.443-.82-1.883-.31-.203-.507-.26-1.068-.26-.682.028-.672.206-1.046.78-.158.584-.378 1.155-.378 1.818-.085.776-.378 1.053-.95 1.167-.638 0-.494.071-1.01-.259-.308-.336-.692-.464-.692-1.038 0-.594-.134-1.555-.313-1.948-.271-.357-.707-.523-1.198-.649-2.675.01-2.86 3.06-2.706 4.218-.2.219-.314 5.69 3.334 7.205z"/><path d="M578.095 97.259c4.897 2.335 16.554.991 13.715-6.555 0-.698-.178-3.06-.248-3.7-1-2.328-3.727-1.754-4.345.65-.194.787.347 2.069-.366 2.465-.409.413-1.974.17-1.909-2.011 0-.695-.512-1.443-.82-1.883-.31-.203-.507-.26-1.068-.26-.682.028-.672.206-1.046.78-.158.584-.378 1.155-.378 1.817-.085.777-.378 1.054-.95 1.168-.638 0-.494.07-1.01-.26-.308-.335-.692-.464-.692-1.037 0-.594-.134-1.555-.313-1.948-.271-.357-.707-.523-1.198-.649-2.675.01-2.86 3.06-2.706 4.218-.2.218-.314 5.69 3.334 7.205zM661.802 72.11c4.897 2.336 14.104 1.342 13.715-6.554 0-.698-.178-3.061-.247-3.7-1-2.329-3.728-1.754-4.346.65-.194.787.347 2.068-.366 2.464-.409.413-1.974.17-1.909-2.01 0-.696-.512-1.443-.82-1.884-.31-.202-.507-.259-1.067-.259-.683.028-.672.205-1.047.779-.158.584-.378 1.156-.378 1.818-.085.776-.378 1.054-.949 1.168-.638 0-.494.07-1.012-.26-.307-.336-.69-.464-.69-1.038 0-.594-.135-1.555-.314-1.947-.271-.358-.707-.523-1.198-.65-2.674.01-2.86 3.06-2.706 4.219-.2.218-.314 5.69 3.334 7.204zM705.157 135.27c-8.535 9.618-4.771 25.526-2.844 28.954 2.814 5.629 5.08 9.24 10.555 12.024 4.987 3.67 8.873 1.376 11.015-1.194 5.018-5.201 5.078-18.48 7.434-21.11 1.652-4.834 5.813-4.009 7.832-1.867 1.957 2.814 4.263 4.629 7.138 6.16 4.681 4.129 10.27 4.884 15.777 1.12 3.764-2.11 6.21-4.838 8.414-10.252 2.448-6.547 1.083-36.796.594-54.724-.189-1.406-4.865-24.654-4.865-24.913 0-.26-.618-11.864-1.133-14.63-.09-1.121-.368-1.444.808-1.301 1.246 1.049 1.417 1.115 2.196 1.46 1.258.23 2.385-1.911 1.626-3.883l-11.682-21.547c-.938-.923-2.148-1.937-3.635.26-1.421 1.246-2.934 3.5-2.887 6.399.345 5.106 1.243 10.302 1.588 15.408l4.674 26.22c1.472 18.69 1.84 33.987 3.311 52.678-.206 7.914-2.666 14.814-4.974 15.81 0 0-3.511 2.036-5.865-.212-1.713-.688-8.567-11.423-8.567-11.423-3.504-3.212-5.814-2.294-8.308 0-6.876 6.64-9.987 19.061-14.66 27.628-1.205 1.911-4.61 3.548-8.383-.14-9.582-13.09-3.966-31.714-5.16-26.925zM664 26.262c4.386 1.836 7.481 10.723 6.472 15.062-.874 5.368-3.2 11.165-4.873 10.41-1.818-.674 1.24-5.335-.508-10.226-.97-3.184-6.957-9-6.327-10.715-1.236-3.593 2.545-5.165 5.235-4.531z"/><path d="M719.282 140.542c.923-10.672-.635-17.18-.912-23.452-.276-6.272-7.094-54.132-8.477-58.878-1.668-8.974 6.628-1.204 5.722-6.422-2.87-6.58-10.013-16.16-12.256-21.876-1.349-2.45-.782-4.628-3.803-.645-2.8 9.157-3.772 16.642-2.703 22.329 7.194 37.543 14.571 68.758 13.4 104.497 3.412.023 7.344-7.806 9.029-15.553zM794.242 41.387c4 1.988 6.342 13.125 5.9 16.307-.795 5.811-2.916 12.087-4.442 11.27-1.657-.73.333-8.618-.463-11.071-.884-3.447-6.342-9.744-5.768-11.6-1.127-3.89 2.32-5.591 4.773-4.906zM496.99 120.36c3.825 1.46 6.068 9.644 5.645 11.983-.763 4.27-2.793 8.881-4.25 8.281-1.587-.536.318-6.333-.444-8.136-.323-4.371-5.633-6.634-5.521-8.523-.992-3.472 2.22-4.11 4.57-3.605z"/><path d="M589.424 132.643c4.938.313 7.405 4.188 2.78 5.813-4.562 1.562-8.947 2.783-8.967 9.376 1.687 9.187-2.315 6.034-4.702 4.786-2.813-2.02-10.706-6.882-11.83-17.382-.17-2.505 1.784-4.614 4.929-4.6 4.738 1.288 11.728 1.382 17.79 2.007z" fill="#006421"/><path d="M394.731 23.614c5.645 1.701 5.979 9.998 5.562 12.423-.752 4.427-2.751 9.208-4.188 8.585-1.562-.556-.061-6.565-.811-8.435-.836-2.625-5.606-7.422-5.065-8.835-1.062-2.964 2.189-4.262 4.502-3.738zM506.208 62.731c-4.331 2.343-6.011 9.325-3.315 13.391 2.519 3.58 6.497 2.254 7.027 2.254 4.244.53 6.761-7.955 6.761-7.955s.133-2.386-4.905 2.123c-2.12.397-2.386-.399-2.916-1.593-.442-2.209-.354-4.418.662-6.629.751-2.12-.884-3.049-3.314-1.59zM538.69 20.407c-2.176 1.46-6.508 5.947-6.64 11.118-.132 2.917-.676 2.909 1.234 4.765 1.38 1.99 2.772 1.811 5.558.352 1.6-1.178 2.14-1.96 2.68-3.937.663-3.315-3.505 1.572-4.035-2.117-.928-3.425 1.748-4.826 4.267-8.14.084-2.271.035-3.88-3.064-2.04zM564.862 25.056c-.938 2.072-2.062 12.898-1.875 12.898-.749 3.225 3.375 4.605 5.251.46 2.812-7.602 2.812-10.826 3-14.05-.876-4.912-4.188-4.758-6.376.692zM729.862 109.018c.563-.563 23.252-16.688 23.252-16.688 2.312-.812 1.812 8.313.75 8.25.436 1.812-22.376 17.313-24.002 16.688-1.124.812-2.25-6.25 0-8.25zM750.554 108.887c4 1.988 5.592 13.688 5.15 16.87.142 6.187-3.854 11.15-5.38 10.333-1.656-.73.146-7.682-.65-10.134-.884-3.447-4.28-9.932-3.706-11.788-1.127-3.89 2.133-5.966 4.586-5.281zM615.597 159.269c1.578-2.307 6.453-5.626 6.563-5.626 2.249-1.125 4.446.882 4.313.75.374 2.25-1.423 4.344-.86 7.345.491 1.21.851 2.553 3.068 2.04 3.602-2.834 6.94-3.016 10.542-3.198 2.761.167 2.87 4.841 1.124 4.876-6.651 1.446-9.632 3.227-14.382 5.04-2.25 1.312-4.18-.353-4.18-.54s-1.317-1.277-.398-4.258c.163-2.39-.799-3.7-2.79-3.43-1.5.812-2.821 1.35-3.571-.375-.295-1.273-.391-1.892.571-2.624zM774.423 165.57c.972 1.237 1.601 2.382-.078 4.415-1.591 1.458-2.712 2.26-4.303 3.719-.751 1.281-1.231 3.225 1.067 3.844 4.243 1.193 14.054-5.17 14.054-5.304 1.591-1.192 1.061-3.446.928-3.446-.928-1.06-3.018-.43-4.425-.602-.67 0-2.865-.333-1.82-2.277.872-1.21 1.184-1.95 1.776-3.44.662-1.458.094-2.431-2.293-3.227-2.431-.442-3.402-.22-6.099 0-1.458.31-1.956.961-2.22 2.729.104 2.68 1.734 2.528 3.413 3.589z"/><g fill="#006421" transform="matrix(1.2 0 0 1.2 155.924 -121.007)"><ellipse cx="381.252" cy="181.374" rx="3.438" ry="3.125" transform="matrix(.86563 .50068 -.30041 .51938 105.273 -102.975)"/><ellipse cx="381.252" cy="181.374" rx="3.438" ry="3.125" transform="matrix(.31678 .69557 -.5691 .13939 278.845 -160.947)"/></g></g><g transform="translate(600 310)"><g id="b"><path id="a" d="M0-60V0h30" transform="rotate(18 0 -60)"/><use transform="scale(-1 1)" xlink:href="#a"/></g><use transform="rotate(72)" xlink:href="#b"/><use transform="rotate(144)" xlink:href="#b"/><use transform="rotate(-144)" xlink:href="#b"/><use transform="rotate(-72)" xlink:href="#b"/></g></svg>