<svg xmlns="http://www.w3.org/2000/svg" width="1000" height="700"><path fill="#76b138" d="M0 0h1000v700H0z"/><path fill="#fff" d="M384.403 234.589H499.29v93.117H384.403z"/><path fill="none" stroke="#76b138" stroke-width="2.511" d="M441.847 234.589v93.117"/><path fill="none" stroke="#76b138" stroke-width="2.51094276" d="M384.403 281.797l57.444-47.208 57.444 47.208"/><path fill="none" stroke="#76b138" stroke-width="2.51094276" d="M384.403 304.751l57.444-47.21 57.444 47.21"/><path fill="none" stroke="#76b138" stroke-width="2.51094276" d="M384.403 327.706l57.444-47.21 57.444 47.21"/><path d="M541.647 234.589h94.183v62.828c0 29.344-23.189 61.526-97.493 61.526-74.306 0-82.351 40.7-82.351 60.106v47.326h-92.763v-62.472c0-26.978 22.243-60.579 92.763-60.579 70.52 0 85.66-36.915 85.66-52.534V234.59z" fill="#fff"/><path d="M467.455 466.375h56.874s.436 6.197.436-38.52c0-44.72 67.297-49.497 112.012-56.008H513.043c-26.917 0-45.588 18.669-45.588 41.678v52.85z" fill="#fff"/><path d="M616.315 429.036c0 20.624-16.72 37.339-37.339 37.339-20.624 0-37.339-16.715-37.339-37.34 0-20.618 16.715-37.336 37.34-37.336 20.618 0 37.338 16.718 37.338 37.337z" fill="#fff"/></svg>