<svg height="600" width="1200" xmlns="http://www.w3.org/2000/svg"><path d="M0 0h1200v600H0z" fill="#de0000"/><path d="M0 225h1200v150H0z" fill="#068e6b"/><g fill="#ffd900"><path d="M150 30l-6.735 20.73h-21.797l17.634 12.81-6.736 20.73L150 71.46l17.634 12.812-6.736-20.73 17.633-12.812h-21.796zm0 10.8l4.31 13.267h13.95l-11.285 8.2 4.31 13.266-11.285-8.2-11.285 8.2 4.31-13.267-11.285-8.2h13.95zM101.839 138.547l14.93 14.993 14.078-13.945c21.415 22.909 43.877 44.991 65.126 67.988a8.22 8.22 0 0 0 11.603.04 8.168 8.168 0 0 0 .04-11.573c-22.808-21.463-45.687-43.102-68.502-64.644l18.967-18.787-26.388-3.644z"/><path d="M150 90c12.281 6.899 21.606 16.8 27.106 27.15 5.575 10.49 8.025 21.44 8.075 30.197.104 17.953-14.592 32.508-32.593 32.508-9.605 0-18.24-4.143-24.205-10.736l-3.3 2.77a4.931 4.931 0 0 0-5.519 1.412 6.181 6.181 0 0 0-5.069 4.178c-2.48 4.964-6.834 8.857-12.102 10.64-.05.017-.095.039-.139.061-2.436.89-4.877 2.498-6.956 4.58-4.11 4.134-6.117 9.423-4.987 13.135-.111.322-.169.66-.17 1.002a3.107 3.107 0 0 0 4.36 2.838c3.715.835 8.76-1.22 12.706-5.178 2.237-2.25 3.913-4.913 4.735-7.524 1.834-5.228 5.776-9.487 10.782-11.882.12-.058.216-.117.303-.177a6.173 6.173 0 0 0 3.344-4.116c7.678 9.035 19.194 14.804 32.068 15.106 23.612.554 41.261-16.781 42.077-41.709.411-12.545-4.455-28.721-15.545-41.988C176.496 102.127 164.07 93.71 150 90z"/></g></svg>