<svg height="600" width="900" xmlns="http://www.w3.org/2000/svg" xmlns:xlink="http://www.w3.org/1999/xlink"><path d="m0 0h900v600h-900z" fill="#00843d"/><g fill="#fff"><path d="m446.821 66.5425c26.5998 11.4204 45.2364 37.851 45.2364 68.6278 0 41.2242-33.4308 74.6551-74.6545 74.6551-18.4554 0-35.3454-6.70442-48.3768-17.805 8.06162 3.4572 16.8702 5.5458 26.1504 5.9508 41.1846 1.7982 76.0418-30.1422 77.8398-71.3268 1.04399-23.9112-9.28683-45.6876-26.1954-60.1017z"/><path id="a" d="m375.616 121.42 8.4582-26.0328-22.1448 16.089h27.3726l-22.1448-16.089z"/><use height="600" xlink:href="#a" y="-38.400051"/><use x="37.936928" xlink:href="#a" y="-18.722051"/><use x="-37.936072" xlink:href="#a" y="18.721949"/><use height="600" xlink:href="#a" y="38.399949"/></g><path d="m107.998 0h162v600h-162z" fill="#d22630"/><g id="b" fill="#383739"><path d="m107.998-39.6189v5.87932l9.11017 8.52746-3.07221 2.86017 6.51492 6.03814-2.86017 2.59534v-3.76059h-5.56153v4.50212l12.553 11.7585h6.35594l.68864-4.13136h-3.65475l3.97238-3.70763 9.95763 9.0572-9.95763 9.11017-3.97238-3.70763h3.65475l-.68864-4.18432h-6.35594l-12.553 11.7586v4.50212h5.56153v-3.76059l2.86017 2.59534-6.51492 6.03814 3.07221 2.91305-9.11017 8.47458v5.87932l15.413-14.3539-3.07204-2.91305 6.46187-6.03814-5.56153-5.19068 3.7078-3.38983 7.09729 6.5678 15.5722-14.3008-15.5722-14.3008-7.09729 6.62076-3.7078-3.4428 5.56153-5.19068-6.46187-6.03814 3.07204-2.86017-15.413-14.4068zm0 28.5488v22.1398l3.60169-3.65466v-4.29019h3.81356l3.07186-3.125-3.07186-3.07203h-3.81356v-4.34322l-3.60169-3.65466zm26.2712 7.83898-.52983 3.01907.52983 3.07203 3.28373-3.07203z"/><path d="m107.998-38.9833v4.66102l9.74576 9.11017-3.0722 2.86017 6.51491 6.03814-3.91949 3.65466v-4.39619h-4.71407v3.91949l12.3412 11.4936h5.72034l.58254-3.2839h-4.23729l5.08475-4.76695 10.5932 9.6928-10.5932 9.6928-5.08475-4.71398h4.23729l-.584-3.33686h-5.72034l-12.3412 11.4936v3.91949h4.71407v-4.39619l3.91949 3.65466-6.51491 6.03814 3.0722 2.91305-9.74576 9.05729v4.66102l14.7774-13.7183-3.07203-2.91305 6.46187-6.03814-5.56153-5.19068 4.34339-4.02542 7.09729 6.62076 14.8836-13.7182-14.8836-13.7182-7.09729 6.62076-4.34339-4.02542 5.56153-5.19068-6.46187-6.03814 3.07203-2.86017-14.7774-13.7712zm0 28.5488v20.8686l3.17796-3.17797v-4.60798h4.07831l2.6483-2.64831-2.6483-2.64831h-4.07831v-4.60805l-3.17796-3.17797zm26.5888 8.05085-.37068 2.17161.37068 2.17161 2.33051-2.17161z" fill="#ffc72c"/></g><use fill="#383739" height="100%" width="100%" xlink:href="#b" y="109.20679"/><use fill="#383739" height="100%" width="100%" xlink:href="#b" y="222.0051"/><use fill="#383739" height="100%" width="100%" xlink:href="#b" y="334.80173"/><use fill="#383739" height="100%" width="100%" xlink:href="#b" y="447.59836"/><g fill="#383739" transform="matrix(-1 0 0 1 377.99597 0)"><path d="m107.998-39.6189v5.87932l9.11017 8.52746-3.07221 2.86017 6.51492 6.03814-2.86017 2.59534v-3.76059h-5.56153v4.50212l12.553 11.7585h6.35594l.68864-4.13136h-3.65475l3.97238-3.70763 9.95763 9.0572-9.95763 9.11017-3.97238-3.70763h3.65475l-.68864-4.18432h-6.35594l-12.553 11.7586v4.50212h5.56153v-3.76059l2.86017 2.59534-6.51492 6.03814 3.07221 2.91305-9.11017 8.47458v5.87932l15.413-14.3539-3.07204-2.91305 6.46187-6.03814-5.56153-5.19068 3.7078-3.38983 7.09729 6.5678 15.5722-14.3008-15.5722-14.3008-7.09729 6.62076-3.7078-3.4428 5.56153-5.19068-6.46187-6.03814 3.07204-2.86017-15.413-14.4068zm0 28.5488v22.1398l3.60169-3.65466v-4.29019h3.81356l3.07186-3.125-3.07186-3.07203h-3.81356v-4.34322l-3.60169-3.65466zm26.2712 7.83898-.52983 3.01907.52983 3.07203 3.28373-3.07203z"/><path d="m107.998-38.9833v4.66102l9.74576 9.11017-3.0722 2.86017 6.51491 6.03814-3.91949 3.65466v-4.39619h-4.71407v3.91949l12.3412 11.4936h5.72034l.58254-3.2839h-4.23729l5.08475-4.76695 10.5932 9.6928-10.5932 9.6928-5.08475-4.71398h4.23729l-.584-3.33686h-5.72034l-12.3412 11.4936v3.91949h4.71407v-4.39619l3.91949 3.65466-6.51491 6.03814 3.0722 2.91305-9.74576 9.05729v4.66102l14.7774-13.7183-3.07203-2.91305 6.46187-6.03814-5.56153-5.19068 4.34339-4.02542 7.09729 6.62076 14.8836-13.7182-14.8836-13.7182-7.09729 6.62076-4.34339-4.02542 5.56153-5.19068-6.46187-6.03814 3.07203-2.86017-14.7774-13.7712zm0 28.5488v20.8686l3.17796-3.17797v-4.60798h4.07831l2.6483-2.64831-2.6483-2.64831h-4.07831v-4.60805l-3.17796-3.17797zm26.5888 8.05085-.37068 2.17161.37068 2.17161 2.33051-2.17161z" fill="#ffc72c"/><use height="100%" width="100%" xlink:href="#b" y="109.20679"/><use height="100%" width="100%" xlink:href="#b" y="222.0051"/><use height="100%" width="100%" xlink:href="#b" y="334.80173"/><use height="100%" width="100%" xlink:href="#b" y="447.59836"/></g><path d="m121.14 530.824c.7992 3.4074 3.5082 5.979 4.1538 9.51299 1.2924-3.6846 2.484-6.77342 1.5942-10.8042-.6366-2.883-3.06181-4.9392-3.3426-7.902-2.64421 2.37721-3.2136 5.74921-2.4054 9.19321zm-.67021 14.2764c2.24281 3.075 5.36041 5.4336 8.8032 7.0062-.678-2.6934.594-4.7214 2.0058-6.85978 1.701-2.574 2.5302-5.1024 1.1436-8.06637-.6462 1.5408-1.5144 2.8206-2.5332 4.1382-1.5066 2.05559-2.4972 3.8832-2.7294 6.51962-1.7424-1.2912-2.508-3.2196-3.4398-5.0856-1.4202-2.673-3.7122-4.9074-6.34498-6.3684.6996 2.9982 1.2384 6.16859 3.0948 8.71617zm12.5784 9.16557c-.47939 1.7076-.8928 3.4008-.8004 5.1858-1.482-1.5966-3.45-2.7984-5.2056-4.08479-2.391-1.93381-5.178-3.2976-7.1328-5.76.2916 3.62399 1.8426 6.57842 4.7874 8.78337 3.1128 2.32981 6.86699 3.58261 9.93303 6.02879-.459-3.2958.7518-5.9364 1.7844-8.96577.86041-2.89499.0276-5.83439-1.93559-8.0406.0294 2.4456-.74221 4.5456-1.43041 6.85317zm6.98578 11.133c.64501 2.5002 2.4366 4.53419 3.66001 6.76441-3.29881-1.023-6.20938-2.8122-9.1914-4.4958-3.55201-1.9338-7.40882-3.165-10.6242-5.7186 1.6002 5.9244 5.5662 9.35877 11.3682 11.1102 3.9672 1.1982 7.31038.6006 12.1242 2.5458-.552-3.2586-1.5246-6.77582-3.0654-9.71401-1.1958-2.12519-2.5218-4.22099-3.2604-6.5616-1.0698 1.9224-1.5762 3.8784-1.011 6.06962zm12.1386 9.0654c1.13581 1.94579 2.63521 3.5832 4.4946 4.875-4.68299.29819-8.45156-2.6694-13.017-2.7984-2.81999-.0792-5.4972.7962-8.37301.5334 3.4128 2.3028 6.98578 4.3134 11.1408 4.85099 5.4012.69841 10.3824-.66059 16.341-.129-2.7846-1.96499-4.1778-4.5954-5.9136-7.42377-2.2602-3.5322-4.3932-6.0498-8.78938-6.61799 1.76459 1.9836 2.79179 4.4406 4.11659 6.70982zm16.6314 7.77299c-8.25002 1.4022-16.1556 3.2172-24.5814 3.3006 9.43139 3.288 18.318 3.8826 27.672.4878 5.055-1.8348 8.931-2.817 12.7488-2.5434 5.5794.4008 12.36 2.6022 19.8642 10.5168l2.9496-2.36041c-10.7554-9.58314-24.8278-11.753-38.6527-9.40237z" fill="#ffc72c"/><path d="m128.266 70.3392-12.981-7.96019v-19.1352l12.981-7.96019v-10.125l12.267-7.3872h9.80042l18.6474-10.4886h40.0332l18.648 10.4886h9.80042l12.267 7.3872v10.125l12.981 7.96019-.0006 19.1352-12.9804 7.96019v10.125l-12.267 7.3872h-9.80042l-18.648 10.4886h-40.0332l-18.6474-10.4886h-9.80042l-12.267-7.3872z" fill="#383739"/><path d="m169.068 7.73279-18.644 10.4873h-9.74578l-11.9704 7.20336v10.1165l-12.9767 7.94494v18.644l12.9767 7.94494v10.1695l11.9174 7.20336h9.79875l18.644 10.4873h39.8305l18.644-10.4873h9.79874l11.9704-7.20336v-10.1695l12.9767-7.94494v-18.644l-12.9767-7.94494v-10.1165l-11.9704-7.20336h-9.79874l-18.644-10.4873h-39.8305zm1.11229 3.86653h37.6589l18.644 10.4873h9.74578l9.05717 5.45551v10.1165l13.0296 7.94494v14.4068l-13.0296 7.94494v10.1165l-9.05717 5.45551h-9.74578l-18.644 10.4873h-37.6589l-18.644-10.4873h-9.74578l-9.11014-5.45551v-10.1165l-12.9767-7.94494v-14.4068l12.9767-7.94494v-10.1165l9.11014-5.45551h9.74578z" fill="#00843d"/><path d="m188.783 53.0252v-41.0085h-18.5058l-18.6486 10.4886h-9.72181l-8.79479 5.2962v10.1004l-12.9804 7.95959v6.73559l69.0807-.00066v41.0095h18.5058l18.648-10.4886h9.72241l8.79419-5.2962v-10.0998l12.981-7.96019v-6.73559z" fill="#ffc72c"/><path d="m120.131 53.0254-.0006 6.73559 12.981 7.96019v10.0998l8.79419 5.2962h9.72241l18.648 10.4886h18.5064v-41.0095l69.0807.000661v-6.73559l-12.981-7.95959v-10.1004l-8.79419-5.2962h-9.72241l-18.648-10.4886h-18.5058v41.0085z" fill="#fff"/><g id="c" fill="#383739"><g id="d"><path d="m148.448 26.2804-3.1956-2.9784-3.1662 1.9524 3.201 2.9844-4.11 2.5464h8.96877l7.72921 7.29062 2.47261-2.6112-7.515-7.08902v-4.812z"/><path d="m163.573 24.9719-3.1956-2.9784-3.1662 1.9524 3.201 2.9844-4.11 2.5464h8.96877l7.72922 7.29062 2.47259-2.6112-7.51499-7.08902v-4.812z"/><path d="m147.339 34.8358-3.1956-2.9784-3.1656 1.9524 3.2004 2.9844-4.1094 2.5464h8.96877l7.72861 7.29062 2.4726-2.6112-7.51499-7.08902v-4.812z"/><path d="m188.997 11.5889h-8.09309l-4.23481 4.0812h-8.25542l-6.1002 3.1662 1.4226 3.4662 5.44021-2.8572h2.38259l8.34119 9.6468 9.09717-5.5398z"/><path d="m145.199 23.8378 2.8716 2.6766-2.406 1.4904-2.8758-2.6808zm7.20541.495v4.227l7.3374 6.92158-1.884 1.9896-7.54141-7.11418h-7.63559l9.72361-6.02398z" fill="#d22630"/><path d="m160.324 22.5293 2.8716 2.6766-2.406 1.4904-2.8752-2.6808zm7.2054.495v4.227l7.33741 6.92158-1.88399 1.9896-7.54142-7.11358h-7.63559l9.72362-6.02458z" fill="#d22630"/><path d="m144.091 32.3932 2.871 2.6766-2.406 1.4904-2.8752-2.6808zm7.2048.495v4.227l7.33741 6.92158-1.88341 1.9896-7.54142-7.11358h-7.63618l9.72361-6.02458z" fill="#d22630"/><path d="m188.783 12.0166h-7.70603l-4.23481 4.0812h-8.32377l-5.6604 2.9376 1.095 2.6688 5.1168-2.6868h2.68501l8.232 9.52081 8.79623-5.3562z" fill="#d22630"/></g><use height="100%" transform="matrix(1 0 0 -1 0 105.62254)" width="100%" xlink:href="#d"/><path d="m143.054 39.7108-3.8586-1.4418-.0924.0642-4.98241 3.4572v.929397l-7.98 10.0914 7.98 10.0914v.929998l5.07481 3.5208 3.8586-1.4418-2.355-1.5594v-2.967l.93599-1.1196h4.18141v-14.9088h-4.18141l-.93599-1.1196v-2.967z"/><path d="m134.549 42.0137 4.7064-3.2652 2.862 1.0692-1.8468 1.2228v3.3522l1.164 1.392h3.9528v14.0532h-3.9528l-1.164 1.392v3.3522l1.8468 1.2228-2.862 1.0692-4.7064-3.2652.0006-.855-7.86302-9.94258 7.86302-9.94318z" fill="#d22630"/></g><use fill="#383739" height="100%" transform="matrix(-1 0 0 1 377.99368 0)" width="100%" xlink:href="#c"/><path d="m136.203 61.2822-2.1726-1.8798v-.906l-4.6608-5.685 4.66141-5.6856v-.9054l2.17259-1.8798 3.90241 3.1734-2.25241-.0174 3.32821 3.378h7.60502l5.9808-4.677v-12.3342h14.9586l17.3724-10.6608v-2.796l-2.6568-1.7706h-.8418l-2.8932 1.9362-.4482 1.4442-2.2632-3.09 4.3986-3.6954h.7032l4.9638-3.642h1.8714l4.9632 3.642h.70381l4.3986 3.6954-2.2632 3.09-.44821-1.4442-2.8932-1.9362h-.8418l-2.65679 1.7706v2.796l17.3724 10.6608h14.9586v12.3342l5.9808 4.677h7.60502l3.3282-3.378-2.2524.0174 3.9024-3.1734 2.1726 1.8798v.9054l4.6614 5.6856-4.6614 5.685v.906l-2.1726 1.8798-3.9024-3.1734 2.2524.0174-3.3282-3.3786h-7.60502l-5.9808 4.6776v12.3342h-14.9586l-17.3724 10.6608v2.796l2.65679 1.7706h.8418l2.8932-1.9362.44821-1.4442 2.2632 3.0894-4.3986 3.696h-.70381l-4.9632 3.642h-1.8714l-4.9638-3.642h-.7032l-4.3992-3.696 2.2638-3.0894.4482 1.4442 2.8926 1.9362h.8418l2.6574-1.7706v-2.796l-17.3724-10.6608h-14.9586v-12.3342l-5.98141-4.6776h-7.60441l-3.32821 3.3786 2.25241-.0174z" fill="#383739"/><path d="m189.211 87.3189 1.9014 1.45379-1.9014 1.4538v-2.9076zm-6.0438 2.6442h.0702l4.9638 3.6426h.5796v-2.8416l-2.604-1.9914 2.6046-1.9914v-5.3376l-18.5892-11.4078h-13.7418v-11.4624l-7.09502-5.5488h-10.7016l-2.6898 3.0414-2.68979-3.0414-3.17581.0006 4.35961 5.3172v.863402l1.72679 1.5 2.7744-2.16-1.62839.0126v-.54l3.62879-3.699h7.974l6.26223 4.8972v12.1146h14.6514l17.679 10.8492v3.264l-2.95559 1.9698h-1.1022l-3.1266-2.0928-.24061-.776398-1.5246 2.0808 3.9732 3.3372h.6174zm-47.2008-39.7602 2.11801 2.394h-4.2366zm52.8156-34.8072-1.9002 1.4538 1.9002 1.4532zm51.1272 37.6296 2.118 2.394 2.118-2.394zm-45.1542-37.3668-4.9638-3.642h-.5796v2.8404l2.6052 1.9926-2.6058 1.9926v5.3364l18.5892 11.4078h13.7418v11.4624l7.09502 5.5488h10.6998l2.69039-3.0408 2.69041 3.0402h3.1764l-4.3596-5.3172v-.863402l-1.7268-1.5-2.77441 2.16 1.62841-.0132v.5406l-3.62881 3.6984h-7.974l-6.26162-4.8972v-12.114h-14.652l-17.679-10.8492v-3.2646l2.9556-1.9692h1.1022l3.1266 2.0928.2406.776399 1.5246-2.0808-3.9732-3.3378h-.6876z" fill="#ffc72c"/><path d="m188.782 90.2262-1.9002-1.4532 1.9002-1.4532zm-50.6976-37.2006-2.118 2.394-2.11801-2.394zm56.7408 36.9378h-.0702l-4.9638 3.6426h-.5796v-.744005-2.0964l2.6052-1.9926-2.6058-1.9926v-5.3364l18.5892-11.4078h13.7418v-11.4624l7.09503-5.5488h10.7004l2.6898 3.0414 2.6898-3.0414 3.177.000599-4.3596 5.3172v.863402l-1.7268 1.5-2.7744-2.16 1.6284.0126v-.54l-3.6288-3.699h-7.974l-6.26163 4.8972v12.1146h-14.652l-17.679 10.8492v3.264l2.9556 1.9698h1.1022l3.1266-2.0928.2406-.776399 1.5246 2.0808-3.9732 3.3372h-.6174zm47.202-39.7602-2.11799 2.394h4.2366zm-58.7886-34.5444 4.96381-3.642h.5802v2.8404l-2.6058 1.9926 2.6058 1.9926.0006 5.3364-18.5898 11.4078h-13.7412v11.4624l-7.09562 5.5488h-10.7028l-2.6898-3.0408-2.6904 3.0402h-3.174l4.3602-5.3172v-.863401l1.7268-1.5 2.7738 2.16-1.6284-.0132v.5406l3.6294 3.6984h7.9734l6.26223-4.8972v-12.114h14.6514l17.6796-10.8492v-3.2646l-2.9556-1.9692h-1.1028l-3.1266 2.0928-.2406.776399-1.524-2.0808 3.9732-3.3378h.687zm5.97241 2.6448 1.9014-1.4538-1.9014-1.4538z" fill="#fff"/><path d="m188.783 53.0252v-28.3449l-18.4686 11.334h-13.4346v11.2428l-6.82801 5.34 39.1602-.00066v28.3453l18.4674-11.3334h13.4346v-11.2428l6.82801-5.34z" fill="#00843d"/><path d="m150.051 53.0254 6.82861 5.34v11.2428h13.434l18.4692 11.334v-28.3459l39.159.000661-6.82801-5.34v-11.2428h-13.4346l-18.4674-11.3334v28.3443z" fill="#d22630"/><path d="m169.118 39.0635-3.195-2.9784-3.16621 1.9518 3.201 2.9844-4.11 2.5464h8.96877l7.72922 7.29122 2.4726-2.6118-7.515-7.08902v-4.8114z" fill="#383739"/><path d="m208.873 66.5593 3.1956 2.9784 3.1656-1.9524-3.2004-2.9844 4.11-2.5458h-8.96937l-7.72861-7.29123-2.4726 2.6112 7.51499 7.08962v4.8114z" fill="#383739"/><path d="m169.118 66.5593-3.1956 2.9784-3.16561-1.9524 3.2004-2.9844-4.1094-2.5458h8.96877l7.72861-7.29123 2.47261 2.6112-7.515 7.08962v4.8114z" fill="#383739"/><path d="m208.873 39.0635 3.1956-2.9784 3.1656 1.9518-3.2004 2.9844 4.11 2.5464h-8.96937l-7.72861 7.29122-2.4726-2.6118 7.51499-7.08902v-4.8114z" fill="#383739"/><path d="m212.122 69.0018-2.871-2.6766 2.406-1.4904 2.8752 2.6808zm-7.2048-.495v-4.2264l-7.33741-6.92158 1.884-1.9902 7.54142 7.11418h7.63559l-9.72362 6.02398zm-39.0468-31.8865 2.8716 2.6766-2.40659 1.491-2.87521-2.6808zm7.20541.4956v4.2264l7.33741 6.92158-1.884 1.9902-7.54142-7.11418h-7.63559l9.72362-6.02398z" fill="#d22630"/><path d="m212.122 36.6203-2.871 2.6766 2.406 1.491 2.8752-2.6808zm-7.2048.4956v4.2264l-7.33741 6.92158 1.884 1.9902 7.54142-7.11418h7.63559l-9.72362-6.02398zm-39.0468 31.8859 2.871-2.6766-2.40599-1.4904-2.87521 2.6808zm7.20481-.495v-4.2264l7.33741-6.92158-1.8834-1.9902-7.54142 7.11418h-7.63619l9.72362 6.02398z" fill="#00843d"/><path d="m208.856 52.8119-19.859 13.2351-19.859-13.2351 19.859-13.236z" fill="#383739"/><path d="m188.783 40.2328-18.5514 12.3642h37.5318l-18.5514-12.3642v25.1568l18.552-12.3642h-37.533l18.552 12.3642z" fill="#fff"/><path d="m194.308 57.3629v3.639h-10.6206v-3.639h-6.87359v-9.10318h6.87359v-3.639h10.6206v3.639h6.87299v9.10318z" fill="#383739"/><path d="m184.116 45.0484v3.639h-6.87299v3.9096h11.5404v-7.54862h-4.6674zm5.0964 7.54862h11.5404v-3.9096h-6.87299v-3.639h-4.6674v7.54862zm-11.9694.4284v3.9096h6.873v3.639h4.6674v-7.54862h-11.5404zm11.9694 7.54862h4.6674v-3.639h6.873v-3.9096h-11.5404v7.54862z" fill="#d22630"/><path d="m222.877 203.61v-5.8302h15.9882v-5.8302h15.9882v-52.6812h-15.9882v-5.8302h-15.9882v-5.8302h-15.9882v-5.8302h-35.7822v5.8302h-15.9882v5.8302h-15.9888v5.8302h-15.9882v52.6812h15.9882v5.8302h15.9888v5.8302h15.9882v5.83019h35.7822v-5.83019z" fill="#383739"/><path d="m171.558 122.193v5.8261h-15.9963v5.82644h-15.9956v5.8261h-15.9959v51.8539h15.9959v5.82712h15.9956v5.82543h15.9963v5.82542h34.9034v-5.82542h15.9966v-5.82543h15.9966v-5.82712h15.9949v-51.8539h-15.9949v-5.8261h-15.9966v-5.82644h-15.9966v-5.8261zm4.23729 4.23729h26.4288v5.8261h15.9966v5.82644h15.9966v5.8261h15.9949v43.3793h-15.9949v5.82712h-15.9966v5.82542h-15.9966v5.82542h-26.4288v-5.82542h-15.9963v-5.82542h-15.9956v-5.82712h-15.9959v-43.3793h15.9959v-5.8261h15.9956v-5.82644h15.9963z" fill="#ffc72c"/><path d="m160.209 198.519v-5.8308h-15.9882v-5.8296h-15.9888v-42.5004h15.9888v-5.8302h15.9882v-5.8302h15.9882v-5.8296h25.6008v5.8296h15.9888v5.8302h15.9876v5.8302h15.9888v42.5004h-15.9888v5.8296h-15.9876v5.8308h-15.9888v5.8296h-25.6008v-5.8296z" fill="#d22630"/><path d="m163.921 137.014-4.1412-3.1302v6.0108l-3.9654 2.52-.0102-3.7626-3.8034 3.4164-3.8034-3.4164-.0102 3.7626-4.3944-2.7924v5.5728l-3.5514 2.571-.01-3.417-4.2192 3.0558-4.2192-3.0558-.01 3.417-3.97981-2.8812v16.8816h-4.662v7.6842h4.662v16.8816l3.97981-2.8818.01 3.4176 4.2192-3.0558 4.2186 3.0558.0102-3.4176 3.5514 2.571v5.5734l4.3944-2.7924.0102 3.7626 3.8034-3.4164 3.8034 3.4164.0102-3.7626 3.9654 2.5194v6.0114l4.1412-3.1302.009 4.1982 4.0584-3.6294 4.059 3.6294.009-4.1982 3.7128 2.8062v6.411l5.5512-5.0598v5.946l7.6776-4.9362 7.6782 4.9362v-5.946l5.5512 5.0598v-6.411l3.7122-2.8062.009 4.1982 4.059-3.6294 4.059 3.6294.009-4.1982 4.14001 3.1302v-6.0114l3.9666-2.5194.01 3.7626 3.804-3.4164 3.8034 3.4164.01-3.7626 4.395 2.7924v-5.5734l3.5514-2.571.01 3.4176 4.2186-3.0558 4.2192 3.0558.01-3.4176 3.9798 2.8812v-16.881h4.662v-7.6842h-4.662v-16.8816l-3.9798 2.8812-.01-3.417-4.2192 3.0558-4.2192-3.0558-.009 3.417-3.5514-2.571v-5.5728l-4.395 2.7924-.01-3.7626-3.8034 3.4164-3.804-3.4164-.01 3.7626-3.9666-2.5206v-6.0102l-4.14001 3.1296-.009-4.1982-4.059 3.63-4.059-3.63-.009 4.1988-3.7122-2.8074v-6.4098l-5.5512 5.0598v-5.946l-7.6782 4.9362-7.6776-4.9362v5.946l-5.5512-5.0598v6.4104l-3.7128 2.8068-.009-4.1988-4.059 3.63-4.0584-3.63z" fill="#383739"/><g fill="#00843d"><path d="m132.21 148.604.01-3.4176 3.7926 2.7474.1278-.093 3.6648-2.6544.01 3.4176 3.978-2.8794v39.768l-3.978-2.8794-.01 3.4176-3.7926-2.7474-3.7926 2.7474-.01-3.4176-3.97801 2.8794v-16.4706h-4.662v-6.8268h4.662v-16.4706z"/><path d="m164.356 133.772 3.6324 3.2484 3.6324-3.2484.009 4.1022 4.1388-3.129v61.7274l-4.1388-3.129-.009 4.1022-3.6324-3.2484-3.6324 3.2484-.008-4.1022-4.1388 3.129v-61.7274l4.1388 3.129z"/><path d="m213.64 133.772-3.6324 3.2484-3.6324-3.2484-.009 4.1022-4.1382-3.129v61.7274l4.1382-3.129.009 4.1022 3.6324-3.2484 3.6324 3.2484.009-4.1022 4.13881 3.129v-61.7274l-4.13881 3.129z"/><path d="m245.786 148.604-.01-3.4176-3.7926 2.7474-.1284-.093-3.6648-2.6544-.01 3.4176-3.9774-2.8794v39.768l3.9774-2.8794.01 3.4176 3.7932-2.7474 3.7926 2.7474.01-3.4176 3.9774 2.8794v-16.4706h4.662v-6.8268h-4.662v-16.4706z"/></g><g fill="#ffc72c"><path d="m148.623 139.611 3.3774 3.0342 3.3774-3.0342.01 3.5832 4.3926-2.7918v50.4126l-4.3926-2.7912-.01 3.5826-3.3774-3.0336-3.3774 3.0336-.01-3.5826-4.3926 2.7912v-50.4126l4.3926 2.7918z"/><path d="m181.748 133.827-5.5512-5.0598v73.6824l5.5512-5.0598v6.1314l7.2486-4.6602h.0006.0006l7.2486 4.6602v-6.1314l5.5512 5.0598v-73.6824l-5.5512 5.0598v-6.1314l-7.2486 4.6602h-.0006-.0006l-7.2486-4.6602z"/><path d="m229.373 139.611-3.3774 3.0342-3.378-3.0342-.009 3.5832-4.3932-2.7918v50.4126l4.3932-2.7912.009 3.5826 3.378-3.0336 3.3774 3.0336.01-3.5826 4.3926 2.7912v-50.4126l-4.3926 2.7918z"/></g><g id="e" fill="#383739"><g id="f"><path d="m134.288 158.366c.4854.4896 1.0656.7374 1.7244.7374.6582 0 1.2384-.2478 1.7244-.7374 1.5186-1.53 1.5696-4.2972 1.5546-6.28859 0 0-1.7556 1.85521-2.0724 2.19-.2208-.38159-1.2066-2.08379-1.2066-2.08379s-.9858 1.7022-1.2072 2.08379c-.3168-.33479-2.0724-2.19-2.0724-2.19-.015 1.9914.0366 4.7586 1.5552 6.28859z"/><path d="m150.966 154.08-1.2792-1.278v-2.54639l-2.9376 2.7228 5.2512 5.2512 5.2512-5.2512-2.9376-2.7228v2.54639l-1.2786 1.278v-4.5114l2.265-1.94459-3.3-2.8338-3.3 2.8338 2.2656 1.94459z"/><path d="m166.953 149.02-1.2786-1.2786v-2.5464l-2.9376 2.7228 5.2512 5.2512 5.2512-5.2512-2.93761-2.7228v2.5464l-1.2792 1.2786v-4.512l2.26561-1.9446-3.3-2.8332-3.3 2.8332 2.265 1.9446z"/><path d="m136.013 153.039c.2622.4524 1.12319 1.9398 1.12319 1.9398s1.2132-1.2828 1.7088-1.8054c-.0594 2.2488-.5532 4.0254-1.41179 4.89-.4026.4056-.8802.6114-1.4202.6114-.5406 0-1.01821-.2058-1.4202-.6108-.85861-.8652-1.35241-2.6418-1.41181-4.8906.495.5232 1.70821 1.8054 1.70821 1.8054.37439-.6468.7494-1.2936 1.1238-1.9398z" fill="#fff"/><path d="m168.595 144.312v5.7432l2.136-2.1354v-1.7424l1.8912 1.7532-4.6332 4.63319-4.6338-4.63319 1.8912-1.7532v1.7424l2.136 2.1354v-5.7432l-2.0358-1.7478 2.6424-2.2686 2.6418 2.2686z" fill="#fff"/><path d="m152.607 149.372v5.7432l2.136-2.136v-1.7418l1.89119 1.7526-4.6338 4.6338-4.6332-4.6338 1.89121-1.7526v1.7418l2.13599 2.136v-5.7432l-2.0358-1.7478 2.6418-2.2686 2.6424 2.2686z" fill="#d22630"/></g><use height="100%" transform="matrix(-1 0 0 1 377.9958 0)" width="100%" xlink:href="#f"/><path d="m195.282 150.937-1.7202-2.3772 4.4112-4.0722-4.11301-3.37919v2.39399l-1.72019 1.4718v-4.34219l3.88559-2.86381-7.02902-5.181-7.02902 5.181 3.88621 2.86381v4.34219l-1.72021-1.4718v-2.39399l-4.1136 3.37919 4.4118 4.0722-1.7202 2.3772z"/><path d="m183.552 150.509 1.4508-2.0058-4.32901-3.996 3.03181-2.49119v1.68419l2.5776 2.2056v-5.49l-3.5922-2.6472 6.3066-4.64819 6.30661 4.64819-3.5916 2.6472v5.49l2.577-2.2056v-1.68419l3.0324 2.49119-4.329 3.996 1.4514 2.0058z" fill="#d22630"/><path d="m185.785 137.769 3.21181 2.367 3.21239-2.367-3.21239-2.3676-.1272.0942z"/><path d="m188.997 135.934c.2124.156 2.1144 1.55819 2.49 1.83479-.3756.2766-2.2776 1.6788-2.49 1.83481-.2118-.15601-2.1144-1.55821-2.4894-1.83481.375-.2766 2.2776-1.67879 2.4894-1.83479z" fill="#00843d"/></g><use fill="#383739" height="100%" transform="matrix(1 0 0 -1 0 331.21644)" width="100%" xlink:href="#e"/><path d="m245.902 163.15h-7.0374v-2.805h-21.5106l-14.9742-9.83579h-.0636-26.7012l-14.9736 9.83579h-21.5112v2.805h-7.0374v4.9176h7.0374v2.805h21.5112l14.9736 9.8364h26.7648l14.9742-9.8364h21.5106v-2.805h7.0374z" fill="#383739"/><path d="m175.742 150.953-14.9894 9.79873h-21.1864v2.8072h-7.04449v4.07839h7.04449v2.8072h21.1864l14.9894 9.8517h26.5359l14.9364-9.8517h21.2393v-2.8072h7.04449v-4.07839h-7.04449v-2.8072h-21.2393l-14.9364-9.79873zm.31779 1.43008h25.8475l13.7182 9.00424v1.37712h15.3072v5.72034h-15.3072v1.37712l-13.7182 8.95127h-25.8475l-13.6652-8.95127v-1.37712h-15.3602v-5.72034h15.3602v-1.37712z" fill="#d22630"/><path d="m201.799 152.826 13.3788 8.7834v1.5588h15.3318v4.8804h-15.3318v1.5594l-13.3788 8.7834h-25.6044l-13.3788-8.7834v-1.5594h-15.3318v-4.8804h15.3318v-1.5588l13.3788-8.7834z" fill="#d22630"/><g fill="#383739"><path d="m169.551 170.598 5.793 4.3488 3.8106-2.8614-2.2152-1.6632-1.5954 1.1982-1.362-1.0224 21.8154-16.3788h-4.4304zm12.645 6.40077h4.4304l21.816-16.3788-5.79241-4.3482-3.81119 2.86079 2.21519 1.66261 1.596-1.1982 1.362 1.023zm9.17098 0h4.4298l-21.8148-16.3788 1.362-1.023 1.5954 1.1982 2.2152-1.66261-3.8106-2.86079-5.793 4.3482zm12.645-6.40077-1.362 1.0224-1.596-1.1982-2.21519 1.6632 3.81119 2.8614 5.7924-4.3488-21.816-16.3788h-4.4304z"/><path d="m165.164 165.609 3.8934 2.586 3.89341-2.586-3.89341-2.586z"/><path d="m185.104 165.609 3.8934 2.586 3.8934-2.586-3.8934-2.586z"/><path d="m212.832 165.609-3.8934 2.586-3.8934-2.586 3.8934-2.586z"/><path d="m207.729 170.598-5.0784 3.81299-3.0978-2.32559 1.5018-1.1274 1.596 1.1982 2.0754-1.5582-21.2448-15.9498h3.003zm-13.2162 5.97179h-3.0024l-21.2448-15.9498 5.079-3.813 3.0966 2.32559-1.5012 1.12681-1.5954-1.1982-2.076 1.5588zm-8.0286 0h-3.003l21.2448-15.9498-2.0754-1.5588-1.596 1.1982-1.5018-1.12681 3.0978-2.32559 5.0784 3.813zm5.0262-21.9216h3.0024l-21.2442 15.9498 2.076 1.5582 1.5954-1.1982 1.5012 1.1274-3.0966 2.32559-5.07901-3.81299z" fill="#ffc72c"/><g fill="#00843d"><path d="m169.057 163.538 3.1188 2.0712-3.1188 2.0712-3.1188-2.0712z"/><path d="m188.998 163.538 3.1188 2.0712-3.1188 2.0712-3.1182-2.0712z"/><path d="m208.939 163.538-3.1188 2.0712 3.1188 2.0712 3.1182-2.0712z"/></g></g><g fill="#383739"><path d="m120.514 274.151-1.5276 2.1606 2.7384 2.094-2.739 2.0946 1.5276 2.1606 3.1818.3696 3.081-2.3808 7.68181 4.8798v-4.0524l-4.8348-3.0714 4.8348-3.0708v-4.0524l-7.68181 4.8798-3.081-2.3802z"/><path d="m120.514 260.073-1.5276 2.16119 2.7384 2.094-2.739 2.094 1.5276 2.1612 3.1818.369 3.081-2.3808 7.68181 4.8804v-4.053l-4.8348-3.0708 4.8348-3.07139v-4.0524l-7.68181 4.87979-3.081-2.38019z"/><path d="m120.514 296.739-1.5276-2.1606 2.7384-2.094-2.739-2.0946 1.5276-2.1606 3.1818-.369 3.081 2.3802 7.68181-4.8798v4.0524l-4.8348 3.0714 4.8348 3.0708v4.0524l-7.68181-4.8798-3.081 2.3808z"/><path d="m257.482 274.151 1.5276 2.1606-2.7384 2.094 2.7384 2.0946-1.5276 2.1606-3.1812.3696-3.081-2.3808-7.6824 4.8798v-4.0524l4.8354-3.0714-4.8354-3.0708v-4.0524l7.6824 4.8798 3.081-2.3802z"/><path d="m257.482 260.073 1.5276 2.16119-2.7384 2.094 2.7384 2.094-1.5276 2.1612-3.1812.369-3.081-2.3808-7.6824 4.8804v-4.053l4.8354-3.0708-4.8354-3.07139v-4.0524l7.6824 4.87979 3.081-2.38019z"/><path d="m257.482 296.739 1.5276-2.1606-2.7384-2.094 2.7384-2.0946-1.5276-2.1606-3.1812-.369-3.081 2.3802-7.6824-4.8798v4.0524l4.8354 3.0714-4.8354 3.0708v4.0524l7.6824-4.8798 3.081 2.3808z"/><path d="m226.727 235.73v5.856h4.25941v2.5878h4.1844v-4.7124h-3.73201v-3.7314z"/><path d="m239.283 244.965v5.8554h4.25521v2.5884h4.1886v-4.7124h-3.73141v-3.7314z"/><path d="m151.269 235.73v5.856h-4.2606v2.5878h-4.18321v-4.7124h3.73141v-3.7314z"/><path d="m226.727 321.083v-5.856h4.25941v-2.58779h4.1844v4.7118h-3.73201v3.73199z"/><path d="m151.269 321.083v-5.856h-4.2606v-2.58779h-4.18321v4.7118h3.73141v3.73199z"/><path d="m239.283 311.848v-5.85539h4.25521v-2.5884h4.1886v4.7118h-3.73141v3.73199z"/><path d="m138.714 244.965v5.8554h-4.2564v2.5884h-4.18741v-4.7124h3.73141v-3.7314z"/><path d="m138.714 311.848v-5.85539h-4.2564v-2.5884h-4.18741v4.7118h3.73141v3.73199z"/><path d="m204.753 235.594c-.27181-.264-3.2508-3.156-3.2508-3.156l-3.19321 2.95861s2.502 2.42819 2.7834 2.70179l-3.5928 3.4878h5.33401l1.9194-1.8636 1.9194 1.8636h5.3334l-3.5928-3.4878c.2814-.2736 2.7828-2.70179 2.7828-2.70179l-3.1926-2.95861c-1.08481 1.05061-2.1672 2.10361-3.2502 3.156z"/><path d="m188.998 235.594c-.2712-.264-3.2502-3.156-3.2502-3.156l-3.1932 2.95861s2.5014 2.42819 2.7834 2.70179l-3.5928 3.4878h5.3334l1.9194-1.8636 1.9194 1.8636h5.3334l-3.5922-3.4878c.2814-.2736 2.7828-2.70179 2.7828-2.70179l-3.1926-2.95861c-1.0848 1.05061-2.1672 2.10361-3.2508 3.156z"/><path d="m173.244 235.594c.2718-.264 3.25079-3.156 3.25079-3.156l3.19321 2.95861s-2.502 2.42819-2.7834 2.70179l3.5928 3.4878h-5.33401l-1.91939-1.8636-1.91941 1.8636h-5.33339l3.59279-3.4878c-.28139-.2736-2.7834-2.70179-2.7834-2.70179l3.1932-2.95861c1.08481 1.05061 2.1672 2.10361 3.25021 3.156z"/><path d="m204.753 321.219c-.27181.2634-3.2508 3.1554-3.2508 3.1554l-3.19321-2.9586s2.502-2.4276 2.7834-2.7012l-3.5928-3.4878h5.33401l1.9194 1.8636 1.9194-1.8636h5.3334l-3.5928 3.4878c.2814.2736 2.7828 2.7012 2.7828 2.7012l-3.1926 2.9586c-1.08481-1.0506-2.1672-2.1036-3.2502-3.1554z"/><path d="m188.998 321.219c-.2712.2634-3.2502 3.1554-3.2502 3.1554l-3.1932-2.9586s2.5014-2.4276 2.7834-2.7012l-3.5928-3.4878h5.3334l1.9194 1.8636 1.9194-1.8636h5.3334l-3.5922 3.4878c.2814.2736 2.7828 2.7012 2.7828 2.7012l-3.1926 2.9586c-1.0848-1.0506-2.1672-2.1036-3.2508-3.1554z"/><path d="m173.244 321.219c.2718.2634 3.25079 3.1554 3.25079 3.1554l3.19321-2.9586s-2.502-2.4276-2.7834-2.7012l3.5928-3.4878h-5.33401l-1.91939 1.8636-1.91941-1.8636h-5.33339l3.59279 3.4878c-.28139.2736-2.7834 2.7012-2.7834 2.7012l3.1932 2.9586c1.08481-1.0506 2.1672-2.1036 3.25021-3.1554z"/></g><g fill="#00843d"><path d="m134.029 281.713v3.0366l-7.27801-4.623-3.1806 2.4582-2.8182-.327-1.1784-1.6674 2.856-2.184-2.856-2.184 1.179-1.6674 2.8176-.327 3.1806 2.4576 7.27801-4.623v3.0366l-5.2062 3.3072z"/><path d="m134.029 267.635v3.0372l-7.27801-4.623-3.1806 2.4576-2.8182-.327-1.1784-1.6674 2.856-2.184-2.856-2.1834 1.179-1.66739 2.8176-.3276 3.1806 2.45759 7.27801-4.62239v3.0366l-5.2062 3.30659z"/><path d="m134.029 289.178v-3.0366l-7.27801 4.623-3.1806-2.4582-2.8182.327-1.1784 1.6674 2.856 2.184-2.856 2.184 1.179 1.6674 2.8176.327 3.1806-2.4576 7.27801 4.623v-3.0366l-5.2062-3.3072z"/><path d="m243.967 281.713v3.0366l7.278-4.623 3.18 2.4582 2.8182-.327 1.1784-1.6674-2.856-2.184 2.856-2.184-1.1784-1.6674-2.8182-.327-3.18 2.4576-7.278-4.623v3.0366l5.2056 3.3072z"/><path d="m243.967 267.635v3.0372l7.278-4.623 3.18 2.4576 2.8182-.327 1.1784-1.6674-2.856-2.184 2.856-2.1834-1.1784-1.66739-2.8182-.3276-3.18 2.45759-7.278-4.62239v3.0366l5.2056 3.30659z"/><path d="m243.967 289.178v-3.0366l7.278 4.623 3.18-2.4582 2.8182.327 1.1784 1.6674-2.856 2.184 2.856 2.184-1.1784 1.6674-2.8182.327-3.18-2.4576-7.278 4.623v-3.0366l5.2056-3.3072z"/><path d="m231.011 236.159v3.732h3.73141v3.855h-3.32641v-2.5878h-4.26v-4.9992z"/><path d="m243.566 245.393v3.7314h3.7314v3.8556h-3.327v-2.5878h-4.2594v-4.9992z"/><path d="m146.985 236.159v3.732h-3.7314v3.855h3.327v-2.5878h4.2594v-4.9992z"/><path d="m231.011 320.653v-3.7314h3.73141v-3.855h-3.32641v2.58781h-4.26v4.99859z"/><path d="m146.985 320.653v-3.7314h-3.732v-3.855h3.327v2.58781h4.26v4.99859z"/><path d="m243.566 311.419v-3.7314h3.7314v-3.855h-3.327v2.5878h-4.2594v4.9986z"/><path d="m134.43 245.393v3.7314h-3.7314v3.8556h3.327v-2.5878h4.2594v-4.9992z"/><path d="m134.431 311.419v-3.7314h-3.732v-3.855h3.327v2.5878h4.26v4.9986z"/><path d="m201.496 233.029c.26579.258 3.25739 3.162 3.25739 3.162s2.99101-2.904 3.25681-3.162c.25199.2328 2.28539 2.1168 2.5638 2.3748-.288.279-2.7762 2.6946-2.7762 2.6946l3.15119 3.0594h-4.1022l-2.0934-2.0328-2.094 2.0328h-4.1022l3.15121-3.0594s-2.48821-2.4156-2.77621-2.6946c.2784-.258 2.3118-2.142 2.56381-2.3748z"/><path d="m185.741 233.029c.2658.258 3.2568 3.162 3.2568 3.162s2.991-2.904 3.2574-3.162c.252.2328 2.28481 2.1168 2.5632 2.3748-.2874.279-2.7756 2.6946-2.7756 2.6946l3.1512 3.0594h-4.1028l-2.0934-2.0328-2.0934 2.0328h-4.1028l3.1512-3.0594s-2.4882-2.4156-2.7756-2.6946c.2784-.258 2.3118-2.142 2.5638-2.3748z"/><path d="m176.502 233.029c-.2664.258-3.2574 3.162-3.2574 3.162s-2.991-2.904-3.25681-3.162c-.25199.2328-2.28539 2.1168-2.56379 2.3748.28799.279 2.7762 2.6946 2.7762 2.6946l-3.1512 3.0594h4.1022l2.0934-2.0328 2.094 2.0328h4.1022l-3.1512-3.0594s2.4882-2.4156 2.7762-2.6946c-.2784-.258-2.3118-2.142-2.5638-2.3748z"/><path d="m201.496 323.784c.26579-.2586 3.25739-3.1626 3.25739-3.1626s2.99101 2.904 3.25681 3.1626c.25199-.2334 2.28539-2.1174 2.5638-2.3748-.288-.27959-2.7762-2.69459-2.7762-2.69459l3.15119-3.0594h-4.1022l-2.0934 2.03219-2.094-2.03219h-4.1022l3.15121 3.0594s-2.48821 2.415-2.77621 2.69459c.2784.2574 2.3118 2.1414 2.56381 2.3748z"/><path d="m185.741 323.784c.2658-.2586 3.2568-3.1626 3.2568-3.1626s2.991 2.904 3.2574 3.1626c.252-.2334 2.28481-2.1174 2.5632-2.3748-.2874-.27959-2.7756-2.69459-2.7756-2.69459l3.1512-3.0594h-4.1028l-2.0934 2.03219-2.0934-2.03219h-4.1028l3.1512 3.0594s-2.4882 2.415-2.7756 2.69459c.2784.2574 2.3118 2.1414 2.5638 2.3748z"/><path d="m176.502 323.784c-.2664-.2586-3.2574-3.1626-3.2574-3.1626s-2.991 2.904-3.25681 3.1626c-.25199-.2334-2.28539-2.1174-2.56379-2.3748.28799-.27959 2.7762-2.69459 2.7762-2.69459l-3.1512-3.0594h4.1022l2.0934 2.03219 2.094-2.03219h4.1022l-3.1512 3.0594s2.4882 2.415 2.7762 2.69459c-.2784.2574-2.3118 2.1414-2.5638 2.3748z"/></g><path d="m146.58 306.421v9.234h84.8358v-9.234h12.5508v-56.0292h-12.5508v-9.234h-84.8358v9.234h-12.5508v56.0292z" fill="#383739"/><path d="m147.034 241.578v9.21695h-12.5529v55.1898h12.5529v9.21695h83.9509v-9.21695h12.554v-55.1903h-12.5542v-9.21695h-83.9509zm5.40254 3.54915h73.1467v8.89831l3.01864 2.22542h11.3881v44.3322h-11.4407l-2.9661 2.17119v8.95085h-73.1465v-8.89831l-3.01915-2.22373h-11.4407v-44.3322h11.3878l3.07203-2.22542v-8.89831z" fill="#ffc72c"/><path d="m152.86 245.551v8.15763l11.017-8.15763zm61.228 0 11.017 8.15763v-8.15763zm-75.6348 11.1237v7.62712l10.3814-7.62712h-10.3806zm90.6788 0 10.4339 7.67966v-7.67966zm10.4339 35.7508-10.4339 7.7339h10.4339zm-101.113.0525v7.68135h10.3814zm14.4068 10.6474v8.10339h10.9639zm72.2449 0-10.9627 8.10339h10.9627z" fill="#d22630"/><path d="m213.377 245.559c.1128.0828 26.0154 19.2144 26.1876 19.3416v27.0102c-.1722.1278-26.0748 19.2588-26.1876 19.3422h-48.7596c-.11221-.0834-26.0148-19.2144-26.187-19.3422v-27.0102c.1722-.1272 26.0748-19.2588 26.187-19.3416z" fill="#00843d"/><path d="m144.667 295.021-3.0108-3.4944 2.8266-3.2802-2.8266-3.2802 2.8266-3.2796-2.8266-3.2802 2.8266-3.2802-2.8266-3.2802 2.826-3.2802-2.826-3.2802 3.0108-3.4938h88.6614l3.0108 3.4938-2.8266 3.2802 2.8266 3.2802-2.8266 3.2802 2.8266 3.2802-2.8266 3.2802 2.8266 3.2796-2.8266 3.2802 2.8266 3.2802-3.0108 3.4944zm60.9456-45.2364-3.4944-3.0108-3.2808 2.8266-3.2796-2.8266-3.2802 2.8266-3.2802-2.8266-3.2802 2.8266-3.2802-2.8266-3.2796 2.8266-3.2802-2.8266-3.4944 3.0108v57.243l3.4944 3.0114 3.2802-2.8266 3.2796 2.826 3.2802-2.8266 3.2802 2.8266 3.2802-2.8266 3.2802 2.8266 3.2796-2.826 3.2808 2.8266 3.4944-3.0114z" fill="#383739"/><g fill="#ffc72c"><path d="m198.623 249.981-3.0654-2.6418-3.066 2.6418v56.85l3.066 2.6412 3.0654-2.6412z"/><path d="m185.503 249.981-3.066-2.6418-3.0654 2.6418v56.85l3.0654 2.6412 3.066-2.6412z"/><path d="m144.863 294.593-2.6412-3.066 2.6412-3.066h88.269l2.6412 3.066-2.6412 3.066z"/><path d="m233.132 275.34 2.6418 3.066-2.6418 3.0654h-88.2678l-2.6418-3.0654 2.6418-3.066z"/><path d="m233.132 268.352 2.6412-3.066-2.6412-3.0654h-88.269l-2.6412 3.0654 2.6412 3.066z"/></g><g fill="#d22630"><path d="m205.184 249.981-3.0654-2.6418-3.066 2.6418v56.85l3.066 2.6412 3.06462-2.64063z"/><path d="m178.943 249.981-3.066-2.6418-3.066 2.6418v56.85l3.066 2.6412 3.066-2.6412z"/><path d="m144.864 288.032-2.6418-3.066 2.6418-3.066h88.2678l2.6418 3.066-2.6418 3.066z"/><path d="m144.864 274.912-2.6418-3.066 2.6418-3.066h88.2678l2.6418 3.066-2.6418 3.066z"/><path d="m192.064 306.831-3.066 2.6412-3.066-2.6412v-56.85l3.066-2.6418 3.066 2.6418z"/></g><path d="m218.631 251.09h-59.4804v4.7238h-7.60141v45.1848h7.60141v4.7232h59.6946v-4.7232h7.60141v-45.1848h-7.60141v-4.7238z" fill="#383739"/><path d="m159.587 251.535v4.71525h-7.62712v44.3322h7.62712v4.71356h6.25017l-12.4471-10.4339v-32.8932l12.4471-10.4339h-6.25017zm52.5963 0 12.3932 10.4339v32.8932l-12.3932 10.4339h6.24915v-4.71356h7.57458v-44.3322h-7.57458v-4.71525h-6.24915z" fill="#d22630"/><g fill="#00843d"><path d="m166.525 251.535c-.1176.099-12.5613 10.5202-12.7119 10.6462v32.4681c.1506.12661 12.5943 10.5472 12.7119 10.6462h44.9681c.11813-.099 12.5083-10.5202 12.6589-10.6462v-32.4681c-.15068-.12594-12.5407-10.5472-12.6589-10.6462zm.63559 1.80085h43.6441l11.5466 9.69279v30.7732l-11.5466 9.63983h-43.6441l-11.4936-9.63983v-30.7732z"/><path d="m178.72 294.289 1.9536.8442.3594 2.2818-2.4594 2.16359 3.5724 3.4542h-3.4374l-2.4576-2.36579-2.4582 2.36579h-3.4374l3.573-3.4542-2.46-2.16359.36-2.2818 1.953-.8442 2.4696 1.9746.1338-.10681z"/><path d="m191.468 294.289 1.953.8442.36 2.2818-2.4594 2.16359 3.5724 3.4542h-3.4374l-2.4582-2.36579-2.4576 2.36579h-3.438l3.573-3.4542-2.4594-2.16359.36-2.2818 1.953-.8442 2.469 1.9746.1338-.10681z"/><path d="m199.277 294.289-1.953.8442-.36 2.2818 2.4594 2.16359-3.5724 3.4542h3.4374l2.45821-2.36579 2.45759 2.36579h3.43741l-3.57241-3.4542 2.4594-2.16359-.36-2.2818-1.95299-.8442-2.469 1.9746-.1344-.10681z"/><path d="m178.72 262.523 1.9536-.8442.3594-2.2812-2.4594-2.1636 3.5724-3.4542h-3.4374l-2.4576 2.3652-2.4582-2.3652h-3.4374l3.573 3.4542-2.46 2.163.36 2.2818 1.953.8442 2.4696-1.974.1338.1068z"/><path d="m191.468 262.523 1.953-.8442.36-2.2812-2.4594-2.1636 3.5724-3.4542h-3.4374l-2.4582 2.3652-2.4576-2.3652h-3.438l3.573 3.4542-2.4594 2.163.36 2.2818 1.953.8442 2.469-1.974.1338.1068z"/><path d="m199.277 262.523-1.953-.8442-.36-2.2812 2.4594-2.1636-3.5724-3.4542h3.4374l2.45821 2.3652 2.45759-2.3652h3.43741l-3.57241 3.4542 2.4594 2.163-.36 2.2818-1.95299.8442-2.469-1.974-.1344.1068z"/><path d="m221.901 266.167-1.95 1.6146 1.95 1.614v2.6766l-2.9988-2.4714s-2.0166 1.827-2.1522 1.95c-.1728-.0216-2.1156-.2658-2.3076-.2898-.0858-.1578-.6924-1.2762-.813-1.5.201-.2004 1.986-1.9794 1.986-1.9794s-1.785-1.7796-1.986-1.98c.1206-.2238.7272-1.3428.813-1.5.192-.024 2.1348-.2688 2.3076-.2904.1356.123 2.1522 1.9506 2.1522 1.9506l2.9988-2.4708z"/><path d="m221.901 276.792-1.95 1.6146 1.95 1.6134v2.67719l-2.9988-2.47139s-2.0166 1.827-2.1522 1.94999c-.1728-.0216-2.1156-.26639-2.3076-.28979-.0858-.15781-.6924-1.27681-.813-1.5.201-.20041 1.986-1.9794 1.986-1.9794s-1.785-1.7802-1.986-1.9806c.1206-.2232.7272-1.3422.813-1.50001.192-.0234 2.1348-.26819 2.3076-.28979.1356.12299 2.1522 1.95 2.1522 1.95l2.9988-2.47021z"/><path d="m221.901 290.646-1.95-1.61461 1.95-1.614v-2.6766l-2.9988 2.4714s-2.0166-1.8276-2.1522-1.9506c-.1728.0216-2.1156.2664-2.3076.2898-.0858.15781-.6924 1.27681-.813 1.5.201.20101 1.986 1.98 1.986 1.98s-1.785 1.7796-1.986 1.98c.1206.2232.7272 1.3422.813 1.5.192.024 2.1348.26821 2.3076.2898.1356-.12299 2.1522-1.94999 2.1522-1.94999l2.9988 2.47079z"/><path d="m156.097 266.167 1.9494 1.6146-1.9494 1.614v2.6766l2.9988-2.4714s2.0166 1.827 2.1522 1.95c.1722-.0216 2.1156-.2658 2.3076-.2898.0858-.1578.6918-1.2762.813-1.5-.20099-.2004-1.986-1.9794-1.986-1.9794s1.78501-1.7796 1.986-1.98c-.1212-.2238-.7272-1.3428-.813-1.5-.192-.024-2.1354-.2688-2.3076-.2904-.1356.123-2.1522 1.9506-2.1522 1.9506l-2.9988-2.4708z"/><path d="m156.097 276.792 1.9494 1.6146-1.9494 1.6134v2.67719l2.9988-2.47139s2.0166 1.827 2.1522 1.94999c.1722-.0216 2.1156-.26639 2.3076-.28979.0858-.15781.6918-1.27681.813-1.5-.20099-.20041-1.986-1.9794-1.986-1.9794s1.78501-1.7802 1.986-1.9806c-.1212-.2232-.7272-1.3422-.813-1.50001-.192-.0234-2.1354-.26819-2.3076-.28979-.1356.12299-2.1522 1.95-2.1522 1.95l-2.9988-2.47021z"/><path d="m156.097 290.646 1.9494-1.61461-1.9494-1.614v-2.6766l2.9988 2.4714s2.0166-1.8276 2.1522-1.9506c.1722.0216 2.1156.2664 2.3076.2898.0858.15781.6918 1.27681.813 1.5-.20099.20101-1.986 1.98-1.986 1.98s1.78501 1.7796 1.986 1.98c-.1212.2232-.7272 1.3422-.813 1.5-.192.024-2.1354.26821-2.3076.2898-.1356-.12299-2.1522-1.94999-2.1522-1.94999l-2.9988 2.47079z"/></g><path d="m167.32 253.761c-.11581.097-10.6021 8.87607-11.0699 9.26907.94518.78343 1.85946 1.60292 2.8072 2.38348.23983-.21695 2.0656-1.85424 2.0656-1.85424l2.70127.37076 1.05932 1.95975s-1.64758 1.64878-1.90678 1.90678c.2592.2574 1.90678 1.90678 1.90678 1.90678l-1.05932 1.95974-2.70127.3178s-1.82568-1.58364-2.06568-1.80085l-2.9661 2.48941v.84746c.99787.82593 1.96469 1.66435 2.9661 2.4894.23999-.21659 2.06568-1.80084 2.06568-1.80084l2.70127.31779 1.05932 1.95975s-1.64758 1.64878-1.90678 1.90678c.2592.25741 1.90678 1.90678 1.90678 1.90678l-1.05932 2.01271-2.70127.3178s-1.82568-1.63661-2.06568-1.85382l-2.9661 2.48941v.90042l2.9661 2.48941c.23999-.21659 2.06568-1.85381 2.06568-1.85381l2.70127.37076 1.05932 1.95975s-1.64758 1.64878-1.90678 1.90678c.2592.258 1.90678 1.90678 1.90678 1.90678l-1.05932 1.95974-2.70127.37076s-1.82568-1.63661-2.06568-1.85381c-.94385.77731-1.86544 1.55378-2.80721 2.33051.46785.39298 10.9541 9.17158 11.0699 9.26907h2.43644l3.54873-3.4428-2.27754-2.01271.42373-2.75424 2.38347-1.00635 2.43644 1.90678 2.38348-1.90678 2.38347 1.00635.4767 2.75424-2.33051 2.01271 3.44279 3.2839 3.4428-3.2839-2.33051-2.01271.42373-2.75424 2.43644-1.00635 2.38348 1.90678 2.43644-1.90678 2.38347 1.00635.42373 2.75424-2.27754 2.01271 3.38983 3.33687 3.4428-3.33687-2.27755-2.01271.42373-2.75424 2.43644-1.00635 2.38348 1.90678 2.38347-1.90678 2.43644 1.00635.42373 2.75424-2.27754 2.01271 3.54873 3.4428h2.38347c.11577-.0975 10.6015-8.87609 11.0699-9.26907-.94351-.77702-1.86222-1.55149-2.8072-2.33051-.24.2172-2.01271 1.85381-2.01271 1.85381l-2.70128-.37076-1.11228-1.95974s1.64818-1.64878 1.90678-1.90678c-.2586-.258-1.90678-1.90678-1.90678-1.90678l1.11228-1.95975 2.70128-.37076s1.77271 1.63722 2.01271 1.85381l2.9661-2.48941v-.90042l-2.9661-2.48941c-.24.21721-2.01271 1.85382-2.01271 1.85382l-2.70128-.3178-1.11228-2.01271s1.64818-1.64937 1.90678-1.90678c-.2586-.258-1.90678-1.90678-1.90678-1.90678l1.11228-1.95975 2.70128-.31779s1.77271 1.58425 2.01271 1.80084c.99454-.81922 1.97379-1.62008 2.9661-2.43644v-.95339l-2.9661-2.43644c-.24.21721-2.01271 1.80085-2.01271 1.80085l-2.70128-.3178-1.11228-1.95974s1.64818-1.64938 1.90678-1.90678c-.2586-.258-1.90678-1.90678-1.90678-1.90678l1.11228-1.95975 2.70128-.37076s1.77271 1.63722 2.01271 1.85381c.94925-.78198 1.91118-1.54834 2.86017-2.33051-.36468-.30586-11.0065-9.22464-11.1229-9.32203h-2.38347l-3.54873 3.4428 2.27754 2.01271-.42373 2.75424-2.43644 1.05932-2.38347-1.90678-2.38348 1.90678-2.43644-1.05932-.42373-2.75424 2.27755-2.01271-3.38983-3.2839-3.4428 3.2839 2.27754 2.01271-.42373 2.75424-2.38347 1.05932-2.43644-1.90678-2.38348 1.90678-2.43644-1.05932-.42373-2.75424 2.33051-2.01271-3.4428-3.2839-3.44279 3.2839 2.33051 2.01271-.4767 2.75424-2.38347 1.05932-2.38348-1.90678-2.43644 1.90678-2.38347-1.05932-.42373-2.75424 2.27754-2.01271-3.6017-3.4428zm-11.2288 23.5698v2.17161l1.27119-1.11229z" fill="#d22630"/><g fill="#fff"><path d="m176.271 301.271-1.85424 1.74745h3.65424z"/><path d="m188.983 301.271-1.8 1.74745h3.65423z"/><path d="m201.747 301.271-1.85254 1.74745h3.70678z"/><path d="m174.364 253.761 1.90678 1.8 1.85424-1.8z"/><path d="m187.129 253.761 1.85424 1.8 1.90678-1.8z"/><path d="m199.895 253.761 1.85254 1.8 1.85424-1.8z"/><path d="m221.875 266.737-1.27119 1.05932 1.27119 1.00678z"/><path d="m221.875 277.33-1.27119 1.05932 1.27119 1.05932z"/><path d="m221.875 287.976-1.27119 1.05932 1.27119 1.05932z"/><path d="m156.091 266.685v2.17119l1.27119-1.05932z"/><path d="m156.091 277.33v2.17118l1.27119-1.11186z"/><path d="m156.091 287.924v2.17118l1.27119-1.05932z"/></g><g fill="#383739"><path d="m199.901 274.857v-3.7914h-3.837v-4.1562h-14.1318v4.1562h-3.837v3.7914h-5.2992v7.098h5.2992v3.7908h3.837v4.1568h14.1318v-4.1568h3.837v-3.7908h5.2986v-7.098z"/><path d="m188.783 267.338v4.2846l-6.0744 3.453v3.1164h-9.4842v-2.9064h5.2986v-3.7908h3.837v-4.1568z" fill="#ffc72c"/><path d="m189.212 289.475v-4.2846l6.0738-3.4536v-3.1158h9.4848v2.9058h-5.2986v3.7914h-3.837v4.1568z" fill="#ffc72c"/><path d="m195.286 278.192v-3.1164l-6.0738-3.453v-4.2846h6.423v4.1568h3.837v3.7908h5.2986v2.9064z" fill="#fff"/><path d="m173.225 278.621h9.4842v3.1158l6.0744 3.4536v4.2846h-6.423v-4.1568h-3.837v-3.7914h-5.2986z" fill="#fff"/><path d="m183.138 278.621v2.8884l5.6454 3.21v-6.0984z" fill="#d22630"/><path d="m188.783 272.094-5.6454 3.2094v2.8884h5.6454z" fill="#00843d"/><path d="m194.858 278.192v-2.8884l-5.6454-3.2094v6.0978z" fill="#d22630"/><path d="m189.212 284.719 5.6454-3.21v-2.8884h-5.6454z" fill="#00843d"/></g><path d="m137.647 353.73v11.7168h-11.1654v10.6272h-11.3166v30.2586h11.3166v10.6272h11.1654v11.7168h40.5978l7.1394 4.29-3.4308 2.061h-14.4762l-1.2486-1.4082h13.119l-3.696-3.7218h-18.7662l8.5026 8.8518h17.598l6.0114-3.612 6.0114 3.612h17.5992l8.50201-8.8518h-18.7656l-3.6966 3.7218h13.1196l-1.2492 1.4082h-14.4768l-3.4308-2.061 7.14-4.29h40.5978v-11.7168h11.1654v-10.6272h11.316v-30.2586h-11.316v-10.6272h-11.1654v-11.7168h-40.5978l-7.14-4.2894 3.4308-2.0616h14.4768l1.2492 1.4082h-13.1196l3.6966 3.7218h18.7656l-8.50201-8.8518h-17.5992l-6.0114 3.612-6.0114-3.612h-17.598l-8.5026 8.8518h18.7662l3.696-3.7218h-13.119l1.2486-1.4082h14.4762l3.4308 2.0616-7.1394 4.2894z" fill="#d22630"/><path d="m199.629 428.23h40.3071v-11.7055h11.1229v-10.6462h11.3347v-29.3963h-11.3347v-10.5932h-11.1229v-11.7055h-40.3071l-16.7373-10.1165h-17.32l-7.68009 7.99788h17.5848l2.86017-2.86017h-13.0826l2.01272-2.27754h14.8305l18.9619 11.4407h34.6398v11.7055h11.1758v10.6462h11.3348v20.9746h-11.3348v10.6462h-11.1758v11.7055h-34.6398l-18.9619 11.3877h-14.8305l-2.01272-2.22458h13.0826l-2.86017-2.86017h-17.5848l7.68009 7.99788h17.32zm-22.7224-4.18432h-34.6398v-11.7055h-11.1229v-10.6462h-11.3348v-20.9746h11.3348v-10.6462h11.1229v-11.7055h34.6398l19.0149-11.4407h14.7776l2.01271 2.27754h-13.0297l2.86017 2.86017h17.5847l-7.68008-7.99788h-17.32l-16.7373 10.1165h-40.3071v11.7055h-11.1758v10.5932h-11.3348v29.3963h11.3348v10.6462h11.1758v11.7055h40.3071l16.7373 10.1165h17.32l7.68008-7.99788h-17.5847l-2.86017 2.86017h13.0297l-2.01271 2.22458h-14.7776z" fill="#ffc72c"/><path d="m188.983 351.59-11.9703 7.20339h-34.322v11.7055h-11.1229v10.6462h-11.3348v20.1271h11.3348v10.6462h11.1229v11.7055h34.322l11.9703 7.15042 11.9703-7.15042h34.322v-11.7055h11.1758v-10.6462h11.3348v-20.1271h-11.3348v-10.6462h-11.1758v-11.7055h-34.322zm0 2.9661 11.2818 6.77966h32.5212v11.7055h11.1758v10.5932h11.2818v15.0953h-11.2818v10.6462h-11.1758v11.7055h-32.5212l-11.2818 6.77966-11.2288-6.77966h-32.5212v-11.7055h-11.1758v-10.6462h-11.3347v-15.0953h11.3347v-10.5932h11.1758v-11.7055h32.5212z" fill="none"/><path d="m232.342 408.954v11.7168h-32.2002l-11.1444 6.69599-11.1444-6.69599h-32.1996v-11.7168h-11.166v-10.6278h-11.316v-14.2458h11.316v-10.6278h11.166v-11.7162h32.1402.0594l11.1444-6.696 11.1444 6.696h32.2002v11.7162h11.1654v10.6278h11.316v14.2458h-11.316v10.6278z" fill="#00843d"/><g fill="#383739"><path d="m149.869 404.849v11.34h17.7l-17.7-11.7396z"/><path d="m149.869 377.558v-11.3406h17.7l-17.7 11.7396z"/><path d="m228.127 404.849v11.34h-17.7l17.7-11.7396z"/><path d="m228.127 377.558v-11.3406h-17.7l17.7 11.7396z"/><g fill="#d22630"><path d="m150.298 405.248 15.8496 10.5126h-15.8496z"/><path d="m150.298 377.159c.6162-.4092 14.7696-9.79679 15.8496-10.5126h-15.8496z"/><path d="m227.698 405.248c-.6168.4092-14.7702 9.7962-15.8496 10.5126h15.8496z"/><path d="m227.698 377.159c-.6168-.4086-14.7702-9.79619-15.8496-10.5126h15.8496z"/></g></g><g id="g" fill="#383739"><path d="m172.445 388.094v-5.7912h-1.9752l-9.4764-5.925-.1134.0714-9.3624 5.8536h-1.9752v5.7912h-4.455v6.2196h4.455v5.7906h1.9752l9.4758 5.925 9.4764-5.925h1.9752v-5.7906h6.7818v-6.2196z"/><path d="m160.994 376.884 8.6682 5.4192h-17.3352zm8.667 23.2206-8.667 5.4192-8.6664-5.4192z" fill="#d22630"/><path d="m167.562 388.523v5.3628h-10.809v-5.3628z" fill="#d22630"/><g fill="#ffc72c"><path d="m172.017 394.313v5.3628h-10.809v-5.3628z"/><path d="m160.78 394.313v5.3628h-10.809v-5.3628z"/><path d="m178.799 388.523v5.3628h-10.809v-5.3628z"/><path d="m156.325 388.523v5.3628h-10.809v-5.3628z"/><path d="m172.017 382.732v5.3622h-10.809v-5.3622z"/><path d="m160.78 382.732v5.3622h-10.809v-5.3622z"/></g><path d="m153.349 389.714v2.9796h-4.8552v-2.9796z"/><path d="m157.804 383.923v2.9796h-4.8552v-2.9796z"/><path d="m169.04 383.923v2.9796h-4.8552v-2.9796z"/><path d="m164.585 389.714v2.9796h-4.8552v-2.9796z"/><path d="m175.822 389.714v2.9796h-4.8552v-2.9796z"/><path d="m169.04 395.505v2.9796h-4.8552v-2.9796z"/><path d="m157.804 395.505v2.9796h-4.8552v-2.9796z"/><g fill="#fff"><path d="m152.891 390.171h-3.9408v2.0652h3.9408z"/><path d="m157.346 384.38h-3.9408v2.0652h3.9408z"/><path d="m168.583 384.38h-3.9408v2.0652h3.9408z"/><path d="m164.128 390.171h-3.9408v2.0652h3.9408z"/><path d="m175.365 390.171h-3.9408v2.0652h3.9408z"/><path d="m168.583 395.962h-3.9408v2.0652h3.9408z"/><path d="m157.346 395.962h-3.9408v2.0652h3.9408z"/></g></g><use fill="#383739" height="100%" transform="matrix(-1 0 0 1 377.99506 0)" width="100%" xlink:href="#g"/><g id="h" fill="#383739"><path d="m200.449 378.42v5.7906h-1.9752l-9.4764 5.925-.1134-.0708-9.3624-5.8542h-1.9752v-5.7906h-5.6184v-6.2196h5.6184v-5.79059h1.9752l9.4758-5.9256 9.4764 5.9256h1.9752v5.79059h5.6184v6.2196z"/><path d="m188.998 389.63 8.6676-5.4198h-17.3346zm8.667-23.2206-8.667-5.4198-8.6664 5.4198z" fill="#ffc72c"/><g fill="#d22630"><path d="m200.021 372.2v-5.36219h-10.809v5.36219z"/><path d="m188.784 372.2v-5.36219h-10.809v5.36219z"/><path d="m205.639 377.991v-5.3628h-10.809v5.3628z"/><path d="m194.402 377.991v-5.3628h-10.809v5.3628z"/><path d="m183.165 377.991v-5.3628h-10.8084v5.3628z"/><path d="m200.021 383.782v-5.3628h-10.809v5.3628z"/><path d="m188.784 383.782v-5.3628h-10.809v5.3628z"/></g><path d="m185.807 368.029v2.97959h-4.8552v-2.97959z"/><path d="m197.044 368.029v2.97959h-4.8552v-2.97959z"/><path d="m180.188 373.82v2.9796h-4.8552v-2.9796z"/><path d="m191.426 373.82v2.9796h-4.8552v-2.9796z"/><path d="m202.663 373.82v2.9796h-4.8552v-2.9796z"/><path d="m185.807 379.611v2.9796h-4.8552v-2.9796z"/><path d="m197.044 379.611v2.9796h-4.8552v-2.9796z"/><g fill="#fff"><path d="m185.35 368.486h-3.9408v2.06519h3.9408z"/><path d="m196.587 368.486h-3.9408v2.06519h3.9408z"/><path d="m179.731 374.277h-3.9408v2.0652h3.9408z"/><path d="m190.969 374.277h-3.9408v2.0652h3.9408z"/><path d="m202.205 374.277h-3.9408v2.0652h3.9408z"/><path d="m185.35 380.068h-3.9408v2.0652h3.9408z"/><path d="m196.587 380.068h-3.9408v2.0652h3.9408z"/></g></g><use fill="#383739" height="100%" width="100%" xlink:href="#h" y="31.788122"/><path d="m127.676 479.354 42.0516-22.6314h.054 38.4852l42.0516 22.6314v37.29l-42.0516 22.6308h-38.5392l-42.0516-22.6308z" fill="#383739"/><path d="m169.863 457.151-41.7376 22.4576v36.7576l41.7376 22.4576h38.2932l41.739-22.4576v-36.7576l-41.739-22.4576zm.74067 3.01865h36.8118l39.5136 21.239v33.2102l-39.5136 21.239h-36.834l-39.5122-21.239v-33.2102z" fill="#00843d"/><path d="m189.212 497.784v37.6402h18.0954l39.183-21.087v-16.1244l-57.7068-.00002v-37.6398h-18.0948l-39.1836 21.0864v16.1244z" fill="#ffc72c"/><path d="m188.783 497.784v37.6402h-18.0948l-39.1836-21.087v-16.1244l57.7068-.00002v-37.6398h18.0954l39.183 21.0864v16.1244z" fill="#fff"/><path d="m192.514 533.317v-10.8792l-3.5172 2.2314-3.5178-2.2314v10.8792h-10.9416l7.383-5.4144v-7.7226l-11.2596-7.1442h-7.8678v-30.0726h7.8678l11.2596-7.14419v-7.7226l-7.383-5.4144h.6546 10.287v10.8798l3.5178-2.232 3.5172 2.232v-10.8798h10.9422l-7.3836 5.4144v7.7226l11.2596 7.14419h7.86781v30.0726h-7.86781l-11.2596 7.1442v7.7226l7.3836 5.4144z" fill="#383739"/><path d="m192.956 463.135v11.2288l-3.76102-2.38305v3.17797l17.2136 10.9627h5.6678v11.6542h2.70169v-14.4067h-7.57457l-11.5458-7.31017v-8.15763l6.51356-4.7661h-9.21525zm-29.7144 35.0644v14.4068h7.52119l11.6 7.36102v8.15762l-6.51526 4.76611h9.21695v-11.2288l3.70678 2.38475v-3.28475l-17.2136-10.8576h-5.61491v-11.7051h-2.70119z" fill="#ffc72c"/><path d="m175.847 463.135 6.51526 4.7661v8.15763l-11.6 7.31017h-7.52119v14.4068h2.70119v-11.6542h5.61491l17.2136-10.9102v-3.23051l-3.70678 2.38305v-11.2286h-9.21695zm36.2288 35.0644v11.7051h-5.6678l-17.2136 10.8576v3.28475l3.76102-2.38475v11.2288h9.21525l-6.51356-4.76611v-8.15762l11.5458-7.36102h7.57457v-14.4068h-2.70169z" fill="#fff"/><path d="m166.352 509.458h5.3376l17.3076 10.9806 17.307-10.9806h5.3382v-22.9164h-5.2758-.0624l-17.307-10.9806-17.3076 10.9806h-5.3376z" fill="#d22630"/><path d="m200.977 503.445h3.6954v-1.7484h-2.7798v-3.1782h5.9412v8.1054h-5.6958l.0006 5.5296h-11.7246v-7.9452h5.16v3.1782h-1.9986v1.5888h5.4018v-3.0378l-21.9612-13.383h-3.6954v1.7478h2.7804v3.1782h-5.9418v-8.1048h5.6958v-5.5296h.2142 11.5098v7.9452h-5.16v-3.1782h1.9986v-1.5888h-5.4012v3.0378zm-1.9998-13.383v-3.0378h-5.4018v1.5888h1.9986v3.1782h-5.16v-7.9452h11.7246v5.5296h5.6952v8.1048h-5.9412v-3.1782h2.7804v-1.7478h-3.696l-21.9606 13.383v3.0372h5.4012v-1.5888h-1.9986v-3.1782h5.16v7.9458h-11.724v-5.5302h-5.6958v-8.1048h5.9418v3.1782h-2.7804v1.7484h3.6954z" fill="#383739"/><path d="m199.406 505.697v3.7068h-6.2592v-2.4456h1.9992v-2.3214h-4.3032v7.0878h10.8672v-5.5296h5.6958v-7.2474h-5.0844v2.3208h2.7798v2.6052h-4.2438l-22.2696-13.5708v-3.7068h6.2592v2.4456h-1.9986v2.3214h4.3026v-7.0884h-10.8672v5.5296h-5.6952v7.248h5.0838v-2.3214h-2.7798v-2.6052h4.2438zm1.4514-13.5714h4.2444v2.6052h-2.7804v2.3214h5.0844v-7.248h-5.6952v-5.5296h-10.8672v7.0884h4.3026v-2.3214h-1.9986v-2.4456h6.2586v3.7068l-22.2696 13.5708h-4.2438v-2.6052h2.7798v-2.3214h-5.0838v7.248h5.6952v5.5296h10.8672v-7.0884h-4.3026v2.3214h1.9986v2.4456h-6.2592v-3.7068z" fill="#fff"/><g fill="#383739"><path d="m238.042 499.884v11.7618h-5.0052v-4.1538h-5.0454v4.1538h-5.0052v-11.7618h5.0052v4.1538h5.0454v-4.1538z"/><path d="m220.132 515.499v11.7618h-5.0052v-4.1538h-5.0454v4.1538h-5.0052v-11.7618h5.0052v4.1544h5.0454v-4.1544z"/><path d="m238.042 496.113v-11.7618h-5.0052v4.15379h-5.0454v-4.15379h-5.0052v11.7618h5.0052v-4.1538h5.0454v4.1538z"/><path d="m139.953 499.884v11.7618h5.0052v-4.1538h5.04541v4.1538h5.00519v-11.7618h-5.00519v4.1538h-5.04541v-4.1538z"/><path d="m139.953 496.113v-11.7618h5.0052v4.15379h5.04541v-4.15379h5.00519v11.7618h-5.00519v-4.1538h-5.04541v4.1538z"/><path d="m220.132 480.499v-11.7618h-5.0052v4.1538h-5.0454v-4.1538h-5.0052v11.7618h5.0052v-4.1538h5.0454v4.1538z"/><path d="m157.864 515.499v11.7618h5.00521v-4.1538h5.04539v4.1538h5.0052v-11.7618h-5.0052v4.1544h-5.04539v-4.1544z"/><path d="m157.864 480.499v-11.7618h5.00521v4.1538h5.04539v-4.1538h5.0052v11.7618h-5.0052v-4.1538h-5.04539v4.1538z"/><path d="m223.118 472.256v8.93219h16.5972z"/><path d="m154.877 523.742v-8.9322h-16.5972z"/><path d="m154.877 472.256v8.93219h-16.5972z"/><path d="m223.118 523.742v-8.9322h16.5972z"/></g><g fill="#d22630"><path d="m233.465 507.064v4.1538h4.1484v-10.9044h-4.1484v4.1538h-5.9028v-4.1538h-4.1478v10.9044h4.1478v-4.1538z"/><path d="m215.555 522.678v4.1538h4.1478v-10.9044h-4.1478v4.1538h-5.90281v-4.1538h-4.1478v10.9044h4.1478v-4.1538z"/><path d="m233.465 488.934v-4.1538h4.1484v10.9044h-4.1484v-4.1544h-5.9028v4.1544h-4.1478v-10.9044h4.1478v4.1538z"/><path d="m144.53 507.064v4.1538h-4.1478v-10.9044h4.1478v4.1538h5.9028v-4.1538h4.1478v10.9044h-4.1478v-4.1538z"/><path d="m144.53 488.934v-4.1538h-4.1478v10.9044h4.1478v-4.1544h5.9028v4.1544h4.1478v-10.9044h-4.1478v4.1538z"/><path d="m215.555 473.32v-4.1544h4.1478v10.905h-4.1478v-4.15439h-5.90281v4.15439h-4.1478v-10.905h4.1478v4.1544z"/><path d="m162.44 522.678v4.1538h-4.1478v-10.9044h4.1478v4.1538h5.9028v-4.1538h4.1484v10.9044h-4.1484v-4.1538z"/><path d="m162.44 473.32v-4.1544h-4.1478v10.905h4.1478v-4.15439h5.9028v4.15439h4.1484v-10.905h-4.1484v4.1544z"/></g><path d="m223.57 472.986v7.78644h14.461zm-83.58 42.2678 14.4597 7.78644v-7.78644h-14.4605z" fill="#ffc72c"/><path d="m154.449 472.986-14.4597 7.78644h14.4597zm69.1203 42.2678v7.78644l14.461-7.78644z" fill="#fff"/><path d="m256.89633 530.824c-.7992 3.4074-3.5082 5.979-4.1538 9.51299-1.2924-3.6846-2.484-6.77342-1.5942-10.8042.6366-2.883 3.06181-4.9392 3.3426-7.902 2.64421 2.37721 3.2136 5.74921 2.4054 9.19321zm.67021 14.2764c-2.24281 3.075-5.36041 5.4336-8.8032 7.0062.678-2.6934-.594-4.7214-2.0058-6.85978-1.701-2.574-2.5302-5.1024-1.1436-8.06637.6462 1.5408 1.5144 2.8206 2.5332 4.1382 1.5066 2.05559 2.4972 3.8832 2.7294 6.51962 1.7424-1.2912 2.508-3.2196 3.4398-5.0856 1.4202-2.673 3.7122-4.9074 6.34498-6.3684-.6996 2.9982-1.2384 6.16859-3.0948 8.71617zm-12.5784 9.16557c.47939 1.7076.8928 3.4008.8004 5.1858 1.482-1.5966 3.45-2.7984 5.2056-4.08479 2.391-1.93381 5.178-3.2976 7.1328-5.76-.2916 3.62399-1.8426 6.57842-4.7874 8.78337-3.1128 2.32981-6.86699 3.58261-9.93303 6.02879.459-3.2958-.7518-5.9364-1.7844-8.96577-.86041-2.89499-.0276-5.83439 1.93559-8.0406-.0294 2.4456.74221 4.5456 1.43041 6.85317zm-6.98578 11.133c-.64501 2.5002-2.4366 4.53419-3.66001 6.76441 3.29881-1.023 6.20938-2.8122 9.1914-4.4958 3.55201-1.9338 7.40882-3.165 10.6242-5.7186-1.6002 5.9244-5.5662 9.35877-11.3682 11.1102-3.9672 1.1982-7.31038.6006-12.1242 2.5458.552-3.2586 1.5246-6.77582 3.0654-9.71401 1.1958-2.12519 2.5218-4.22099 3.2604-6.5616 1.0698 1.9224 1.5762 3.8784 1.011 6.06962zm-12.1386 9.0654c-1.13581 1.94579-2.63521 3.5832-4.4946 4.875 4.68299.29819 8.45156-2.6694 13.017-2.7984 2.81999-.0792 5.4972.7962 8.37301.5334-3.4128 2.3028-6.98578 4.3134-11.1408 4.85099-5.4012.69841-10.3824-.66059-16.341-.129 2.7846-1.96499 4.1778-4.5954 5.9136-7.42377 2.2602-3.5322 4.3932-6.0498 8.78938-6.61799-1.76459 1.9836-2.79179 4.4406-4.11659 6.70982zm-16.6314 7.77299c8.25002 1.4022 16.1556 3.2172 24.5814 3.3006-9.43139 3.288-18.318 3.8826-27.672.4878-5.055-1.8348-8.931-2.817-12.7488-2.5434-5.5794.4008-12.36 2.6022-19.8642 10.5168l-2.9496-2.36041c10.7554-9.58314 24.8278-11.753 38.6527-9.40237z" fill="#ffc72c"/></svg>