<svg xmlns="http://www.w3.org/2000/svg" version="1.0" width="1000" height="700"><path fill="#714d94" d="M0 0h1000v700H0z"/><path d="M449.739 288.465v63.366L418.37 382m31.368-30.17l23.774 23.925M502.1 270.184v101.708l-47.156 46.457m47.155-46.457l47.155 46.457M554.634 288.465v63.366L586.002 382m-31.368-30.17l-23.775 23.925" fill="none" stroke="#f5bf05" stroke-width="16.07"/><path d="M260.274 435.145h74.47l98.604-175.27c3.944-7.01 13.011-13.222 18.785-13.222h102.461c8.944 0 14.715 3.693 18.16 9.641l108.733 187.808H256.303L218.78 510H773.35c7.2 0 11.455-13.298 3.843-26.748L632.379 227.398C621.7 208.533 591.386 185 568.946 185H443.298c-30.874 0-54.624 24.88-59.802 33.963L260.274 435.145z" fill="#fff" fill-rule="evenodd"/></svg>