<svg height="312.5" width="312.5" xmlns="http://www.w3.org/2000/svg" xmlns:xlink="http://www.w3.org/1999/xlink"><path d="m0 0h312.5v312.5h-312.5z" fill="#003d8f"/><g fill="#ffcd50" transform="translate(30.750007 -13.052185)"><path d="m95.196964 146.52557c0-1.0101 0-2.0202.505053-4.0404.505048-2.02021 1.515149-5.05051 3.53535-7.07071 2.020203-2.0202 5.050513-3.0303 7.070713-2.52525s3.0303 2.52525 4.0404 5.0505 1.8938 5.55782 2.0202 9.09091c.82985 23.19639 2.68299 99.51885.50506 122.24242-.50506 4.0404-1.51516 7.0707-4.04041 6.56566-2.52525-.50506-6.56566-4.54546-10.606063-4.54546-4.040404 0-8.080808 4.0404-12.62626 4.0404-4.545457 0-9.595962-4.0404-13.636368-5.0505-4.040404-1.0101-7.070707 1.0101-10.10101 1.51515s-6.060606-.50505-7.575758-.50505c-1.515151 0-1.515151 1.0101-.50505 2.0202s3.030303 2.0202 5.050505 2.52526c2.020202.50504 4.040404.50504 5.050505 1.0101 1.010101.50504 1.010101 1.51515.50505 2.52525-.50505 1.0101-1.515151 2.0202-1.515151 2.52525s1.010101.50505 2.525252-.50505c1.515152-1.0101 3.535354-3.0303 5.050505-4.04041 1.515152-1.0101 2.525253-1.0101 2.525253-.50504 0 .50504-1.010101 1.51515-.505051 2.0202.505051.50505 2.525253.50505 3.535356 1.0101 1.010101.50505 1.010101 1.51515 0 3.0303-1.010103 1.51515-3.030305 3.53535-3.030305 4.54545 0 1.01011 2.020202 1.01011 4.040406 0 2.020202-1.0101 4.040404-3.0303 5.555558-3.53535 1.515149-.50505 2.52525.50505 3.535351.50505s2.020202-1.0101 2.525255-.50505c.505048.50505.505048 2.52525-.505053 4.54546-1.010101 2.0202-3.030303 4.0404-4.040404 5.55555s-1.010101 2.52525.505053 2.52525c1.515149 0 4.545452-1.0101 6.565654-.50504 2.020202.50504 3.030303 2.52525 4.040404 3.53535s2.020202 1.0101 2.525255.50505c.505048-.50505.505048-1.51515-.505053-3.0303-1.010101-1.51516-3.030303-3.53536-3.535351-6.06061-.505053-2.52525.505048-5.55556 1.515149-7.57576s2.020202-3.0303 3.030303-3.0303c1.0101 0 2.020203 1.0101 2.525263 2.52525.50504 1.51515.50504 3.53535 1.0101 4.54545.50504 1.01011 1.51515 1.01011 2.0202 0 .50505-1.0101.50505-3.0303 1.51515-3.53535s3.0303.50505 4.54545 1.0101 2.52525.50505 2.52525 1.51515-1.0101 3.03031-2.52525 4.54546-3.53535 2.52525-4.54545 4.54545-1.0101 5.05051-.50505 6.56566 1.51515 1.51515 2.0202.50505.50505-3.0303 1.51515-4.54545c1.0101-1.51516 3.0303-2.52526 4.54546-2.52526 1.51515 0 2.52525 1.0101 3.0303 2.52526.50505 1.51515.50505 3.53535 1.51515 4.0404s3.0303-.50505 3.0303-3.0303c0-2.52526-2.0202-6.56566-2.0202-10.10101 0-3.53536 2.0202-6.56566 3.53536-8.08081 1.51514-1.51515 2.52525-1.51515 4.0404-1.0101s3.53535 1.51515 5.0505 3.0303 2.52525 3.53535 2.0202 5.05051c-.50505 1.51515-2.52525 2.52525-4.0404 4.0404s-2.52525 3.53535-2.52525 6.06061c0 2.52525 1.0101 5.55555 1.51515 6.0606s.50505-1.51515 1.51515-3.53535 3.0303-4.04041 4.54546-5.05051c1.51514-1.0101 2.52525-1.0101 3.53535-.50505s2.0202 1.51515 2.0202 3.53536c0 2.0202-1.0101 5.0505 0 5.55555s4.0404-1.51515 4.54546-4.54545c.50504-3.03031-1.51516-7.07071-3.03031-10.10101-1.51515-3.03031-2.52525-5.05051-1.0101-5.55556s5.55555.50505 7.07071 1.51515c1.51515 1.0101.50505 2.0202 1.0101 2.52526.50505.50505 2.52525.50505 3.53535-.50506 1.0101-1.0101 1.0101-3.0303 1.51515-4.0404s1.51515-1.0101 2.52525 0c1.01011 1.0101 2.02021 3.0303 1.01011 5.55556-1.01011 2.52525-4.04041 5.55555-5.05051 8.08081-1.0101 2.52525 0 4.54545 1.0101 5.0505s2.0202-.50505 3.0303-2.0202c1.01011-1.51515 2.02021-3.53536 3.53536-4.0404 1.51515-.50506 3.53535.50504 5.05051.50504 1.51514 0 2.52525-1.0101 2.52525-2.0202s-1.01011-2.0202-2.02021-2.52525-2.0202-.50505-2.52525-2.0202-.50505-4.54546-1.0101-6.56566-1.51515-3.0303-.50505-3.0303 4.0404 1.0101 6.06061 1.51515c2.0202.50505 3.0303.50505 4.0404 1.51515s2.0202 3.0303 2.0202 4.54546c0 1.51515-1.0101 2.52525-1.0101 3.53535s1.0101 2.0202 2.0202 1.51515 2.0202-2.52525 3.53536-3.53535c1.51515-1.0101 3.53535-1.0101 4.54545-1.51515 1.0101-.50506 1.0101-1.51516 0-2.0202-1.0101-.50506-3.0303-.50506-4.54545-1.51516-1.51516-1.0101-2.52526-3.0303-2.0202-3.53535.50504-.50505 2.52525.50505 4.0404 0s2.52525-2.52525 4.54545-3.0303c2.0202-.50506 5.05051.50505 8.08081 0 3.0303-.50506 6.06061-2.52526 7.07071-4.04041s0-2.52525-1.51515-2.0202c-1.51516.50505-3.53536 2.52525-6.56566 2.52525s-7.07071-2.0202-11.11111-1.51515c-4.04041.50505-8.08081 3.53535-12.12121 3.03031-4.04041-.50506-8.08081-4.54546-11.61616-5.05051-3.53536-.50505-6.56566 2.52525-9.59596 3.0303-3.03031.50505-7.26519-.91105-8.08081-4.0404-3.54168-13.58864-3.70924-108.53063-3.12894-123.75757.136-3.56865 2.11884-7.57576 3.63399-9.59596s4.54545-2.0202 7.57576-1.0101c3.0303 1.0101 6.0606 3.0303 7.57576 5.0505 1.51514 2.02021 1.51514 4.04041 2.0202 5.05051.50505 1.0101 1.51515 1.0101 2.0202.50505s.50505-1.51515.50505-3.0303c0-1.51516 0-3.53536-1.51515-5.55556-1.51516-2.0202-4.54546-4.0404-6.06061-5.55555-1.51515-1.51516-1.51515-2.52526 0-3.03031s4.54545-.50505 6.56566 0c2.0202.50505 3.0303 1.51515 4.0404 2.52525l.94276 1.07744c1.25691 1.88553 2.51414 3.77105 4.51178 4.34344 1.99765.57239 4.73637-.16835 5.97071 1.71717 1.23468 1.88553.96532 6.39731 2.97442 6.98081 2.00875.58384 6.29629-2.76094 8.4175-.37037 2.12122 2.39057 2.07609 10.51649 4.44445 12.45791 2.36801 1.94175 7.14915-2.30068 9.15824-1.72829 2.00876.57239 1.24579 5.9596 2.68216 8.54108 1.4367 2.58115 5.07306 2.3569 6.26263 1.30168 1.18989-1.05488-.0673-2.9404 1.30201-3.31077 1.36937-.37037 5.36465.77441 7.62054.90909s2.77239-.74074 3.28856-1.61616c.51616-.87542 1.03266-1.75084-.21313-3.63637-1.2458-1.88552-4.25388-4.78113-4.62425-6.16161-.37037-1.38046 1.89697-1.24579 2.22222-2.80572.32559-1.56027-1.29057-4.81481-4.24242-4.77003-2.95152.0448-7.23905 3.38956-8.74276 1.94175-1.50404-1.44782-.22458-7.68822-3.09765-8.76566-2.87339-1.07744-9.89898 3.00808-13.03029 2.36835-3.13132-.63973-2.36836-6.00471-3.87206-7.45252-1.50404-1.44781-5.27508 1.02155-7.51987.88687-2.24444-.13469-2.96296-2.8734-4.45555-4.30977-1.49259-1.4367-3.75993-1.57138-6.02693-1.70606l-6.32997-1.95286c-3.0303 0-6.06061 0-7.57576-.50505s-1.51515-1.51515-1.0101-2.52525c.50505-1.01011 1.51515-2.02021 2.52525-2.52526s2.0202-.50505 3.53536-.50505h5.55555-.6734c2.0202 1.0101 4.0404 2.0202 6.06061 1.51515 2.0202-.50505 4.0404-2.52525 6.0606-1.51515s4.04041 5.05051 6.06061 4.54546 4.0404-5.55556 7.07071-4.54546c3.0303 1.0101 7.0707 8.08081 10.101 8.58586 3.03031.50505 5.05051-5.55555 7.07071-6.0606 2.0202-.50506 4.04041 4.54545 6.56566 6.0606s5.55555-.50505 6.06061-2.0202c.50504-1.51515-1.51516-2.52525-.50506-3.53535 1.0101-1.01011 5.05051-2.02021 7.07071-3.03031s2.0202-2.0202 2.0202-3.0303 0-2.02021-2.0202-3.03031-6.06061-2.0202-7.07071-3.0303 1.0101-2.0202.50506-3.53535c-.50506-1.51516-3.53536-3.53536-6.06061-2.0202-2.52525 1.51515-4.54546 6.56565-6.56566 6.0606s-4.0404-6.56566-7.07071-6.0606c-3.0303.50504-7.0707 7.57575-10.101 8.58585-3.03031 1.0101-5.05051-4.0404-7.07071-4.54545s-4.04041 3.53535-6.06061 4.54545-4.0404-1.0101-6.0606-1.51515c-2.02021-.50505-4.04041.50505-6.06061 1.51515h.6734c-2.0202 1.0101-4.0404 2.02021-5.0505 2.02021s-1.0101-1.01011-.50505-2.02021 1.51515-2.0202 3.53535-3.0303 5.0505-2.0202 8.08081-3.0303l.47138-.47138c2.24478-.31414 4.48922-.62862 5.84747-2.18855 1.35792-1.55994 1.82929-4.366 4.05152-4.702703 2.22222-.3367 6.19528 1.795963 7.56464.22458 1.36903-1.57138.13468-6.84613 3.19866-7.75522 3.06397-.90909 10.42626 2.54748 13.19865 1.22324 2.77205-1.32425.95387-7.42997 2.32323-9.00102 1.36902-1.57138 5.92592 1.39159 8.86633 1.17845 2.9404-.21346 4.26498-3.60269 3.80472-5.12929-.46027-1.52626-2.70472-1.18956-2.45792-2.59259.2468-1.40269 2.98553-4.54545 4.06296-6.53198 1.07744-1.98654.49361-2.81684-.0899-3.64748s-1.16734-1.66094-3.40068-1.33569c-2.23333.32559-6.11683 1.80707-7.51953 1.56027-1.40302-.24714-.32559-2.22222-1.60504-3.16498-1.27947-.94277-4.91583-.8532-6.11684 1.8404-1.20067 2.6936.0337 7.99124-1.91919 8.73199-1.95286.74073-7.09293-3.07542-9.28148-.93166-2.18856 2.14378-1.42559 10.24681-3.33334 12.81718-1.90808 2.57003-6.4872-.39293-8.44006.35892-1.95287.75219-1.27947 5.21886-2.34579 7.20539-1.066 1.98653-3.87206 1.49292-5.81347 2.24478-1.94175.75185-3.0192 2.74983-4.09664 4.747473v2.28956c-2.0202 1.0101-4.0404 2.02021-4.54545 1.51516-.50505-.50506.50505-2.52526 1.51515-4.54546l.3367-.47138c1.3468-1.795623 2.6936-3.591583 2.54781-5.667673-.14612-2.07644-1.78451-4.43334-.43771-6.25152s5.67879-3.09764 5.533-5.17407c-.14579-2.0761-4.77003-4.9495-3.24343-7.75522 1.52626-2.80573 9.20303-5.54445 10.22424-8.44007 1.02154-2.89562-4.6128-5.94815-4.75859-8.02458s5.1963-3.17609 7.12693-5.39832c1.93031-2.22222.44883-5.567-.96531-6.32996-1.41414-.7633-2.76094 1.05488-3.58014-.11246-.81952-1.167-1.11111-5.31987-1.75084-7.48586s-1.62761-2.34579-2.61515-2.52525-1.97542-.35926-3.32222 1.45892-3.05253 5.63435-4.23098 6.45354-1.82963-1.35792-3.41212-1.12223-4.0963 2.88418-3.04141 5.63401c1.05488 2.74983 5.67912 5.60034 4.83737 7.49731-.84175 1.89663-7.14949 2.83939-7.17172 5.91448-.0226 3.07542 6.24007 8.28282 6.71145 11.4367.47138 3.15387-4.84848 4.25353-5.70135 6.1505-.8532 1.89663 2.76095 4.59024 3.40068 6.75623.63972 2.16633-1.69495 3.80471-2.5367 5.71279-.84175 1.90809-.19058 4.08519.46027 6.26263l-.47138 1.481483c0 2.0202 0 4.0404-1.01011 6.56566-1.0101 2.52525-3.0303 5.55555-5.55555 9.09091-2.52525 3.53535-5.55556 7.57576-7.57576 9.59596s-3.0303 2.0202-4.54545 2.0202-3.53536 0-4.54546-1.0101-1.0101-3.0303 0-4.54545c1.0101-1.51516 3.03031-2.52526 4.54546-3.53536s2.52525-2.0202 3.53535-3.53535c1.0101-1.51516 2.0202-3.53536 2.52526-5.05051.50504-1.51515.50504-2.52525.50504-3.53535l-3.0303-3.03031c0 2.02021 0 4.04041-1.0101 6.06061s-3.0303 4.0404-5.05051 5.55556c-2.0202 1.51515-4.0404 2.52525-4.54545 2.0202s.50505-2.52525 1.51515-4.54546c1.0101-2.0202 2.0202-4.0404 2.0202-5.0505s-1.0101-1.0101-2.0202-1.51515-2.0202-1.51516-3.0303-2.52526h-.6734c2.0202-3.0303 4.0404-6.060603 4.0404-9.090903 0-3.03031-2.0202-6.06061-1.0101-8.58586 1.0101-2.52526 5.05051-4.54546 5.05051-6.56566s-4.04041-4.0404-3.03031-7.07071c1.0101-3.0303 7.07071-7.0707 7.07071-10.10101 0-3.0303-6.06061-5.0505-6.56565-7.0707-.50506-2.0202 4.54545-4.04041 6.0606-6.56566s-.50505-5.55555-2.52525-6.06061c-2.02021-.50504-4.04041 1.51516-5.55556.50506s-2.52525-5.05051-3.53535-7.07071-2.0202-2.0202-3.0303-2.0202-2.02021 0-3.03031 2.0202-2.0202 6.06061-3.53535 7.07071-3.53535-1.0101-5.55556-.50506c-2.0202.50506-4.0404 3.53536-2.52525 6.06061s6.56566 4.54546 6.06061 6.56566-6.56566 4.0404-6.56566 7.0707c0 3.03031 6.06061 7.07071 7.07071 10.10101 1.0101 3.03031-3.0303 5.05051-3.0303 7.07071s4.0404 4.0404 5.0505 6.56566c1.0101 2.52525-1.0101 5.55555-1.0101 8.58586 0 3.0303 2.0202 6.060603 4.0404 9.090903-1.0101 1.0101-2.0202 2.02021-3.0303 2.52526s-2.0202.50505-2.0202 1.51515 1.0101 3.0303 2.0202 5.0505c1.0101 2.02021 2.0202 4.04041 1.51515 4.54546s-2.52525-.50505-4.54545-2.0202c-2.0202-1.51516-4.04041-3.53536-5.05051-5.55556s-1.0101-4.0404-1.0101-6.06061l-3.0303 3.03031c0 1.0101 0 2.0202.50505 3.53535s1.51515 3.53535 2.52525 5.05051c1.0101 1.51515 2.0202 2.52525 3.53536 3.53535 1.51515 1.0101 3.53535 2.0202 4.54545 3.53536 1.0101 1.51515 1.0101 3.53535 0 4.54545s-3.0303 1.0101-4.54545 1.0101c-1.51516 0-2.52526 0-4.54546-2.0202s-5.0505-6.06061-7.57575-9.59596c-2.525263-3.53536-4.545464-6.56566-5.555565-9.09091-1.010101-2.52526-1.010101-4.54546-1.010101-6.56566l-1.144782-1.481483c.650845-2.17744 1.302018-4.35454.46027-6.26263-.841753-1.90808-3.176428-3.54646-2.536699-5.71279.639729-2.16599 4.253872-4.8596 3.400674-6.75623-.852864-1.89697-6.172731-2.99663-5.70135-6.1505.471382-3.15388 6.734007-8.36128 6.711451-11.4367-.02223-3.07509-6.329968-4.01785-7.171721-5.91448-.841748-1.89697 3.782491-4.74748 4.837375-7.49731 1.054883-2.74983-1.458922-5.39832-3.041414-5.63401s-2.233671 1.94142-3.41212 1.12223c-1.178453-.81919-2.884177-4.63536-4.230978-6.45354-1.346802-1.81818-2.33468-1.63838-3.322221-1.45892-.98754.17946-1.975419.35926-2.615153 2.52525-.63973 2.16599-.931314 6.31886-1.75084 7.48586-.819195 1.16734-2.165996-.65084-3.580137.11246-1.414142.76296-2.895623 4.10774-.96532 6.32996 1.93064 2.22223 7.272731 3.32189 7.126939 5.39832s-5.780138 5.12896-4.758589 8.02458c1.021212 2.89562 8.697983 5.63434 10.224243 8.44007 1.526599 2.80572-3.097641 5.67912-3.243433 7.75522-.145792 2.07643 4.186196 3.35589 5.532997 5.17407 1.346802 1.81818-.291584 4.17508-.437709 6.25152-.145793 2.07609 1.201009 3.87205 2.54781 5.667673l1.010101.47138c1.010101 2.0202 2.020202 4.0404 1.515154 4.54546-.505053.50505-2.525255-.50506-4.545457-1.51516l-.673401-2.28956c-1.077439-1.997643-2.154883-3.995623-4.096631-4.747473-1.941414-.75186-4.747481-.25825-5.81347-2.24478-1.066332-1.98653-.392931-6.4532-2.345793-7.20539-1.952862-.75185-6.531987 2.21111-8.440067-.35892-1.907744-2.57037-1.144781-10.6734-3.333334-12.81718-2.188552-2.14376-7.328619 1.67239-9.281481.93166-1.952862-.74075-.718518-6.03839-1.919192-8.73199-1.20101-2.6936-4.837373-2.78317-6.116834-1.8404-1.279462.94276-.202021 2.91784-1.605051 3.16498-1.402693.2468-5.286195-1.23468-7.519525-1.56027-2.23334-.32525-2.81717.50505-3.40068 1.33569-.5835.83064-1.16734 1.66094-.0899 3.64748 1.07745 1.98653 3.81617 5.12929 4.06297 6.53198.246799 1.40303-1.99765 1.06633-2.45792 2.59259-.46026 1.5266.86431 4.91583 3.804719 5.12929 2.940403.21314 7.497306-2.74983 8.866329-1.17845 1.369361 1.57105-.448821 7.67677 2.323232 9.00102 2.772391 1.32424 10.13468-2.13233 13.198653-1.22324s1.82963 6.18384 3.198653 7.75522c1.369361 1.571383 5.342425-.56128 7.564647-.22458 2.222222.336703 2.693602 3.142763 4.051515 4.702703 1.358251 1.55993 3.602694 1.87441 5.847476 2.18855l1.144782.47138c3.030303 1.0101 6.060606 2.0202 8.080808 3.0303s3.030303 2.0202 3.535356 3.0303c.505048 1.0101.505048 2.02021-.505053 2.02021s-3.030303-1.01011-5.050505-2.02021-4.040404-2.0202-6.060606-1.51515-4.040404 2.52525-6.060606 1.51515c-2.020204-1.0101-4.040406-5.0505-6.060608-4.54545s-4.040404 5.55555-7.070707 4.54545-7.070707-8.08081-10.10101-8.58585c-3.030303-.50506-5.050505 5.55555-7.070707 6.0606s-4.040404-4.54545-6.565656-6.0606c-2.525253-1.51516-5.555552.50504-6.060602 2.0202-.50505 1.51515 1.515147 2.52525.50505 3.53535-1.0101 1.0101-5.05051 2.0202-7.07071 3.0303s-2.0202 2.02021-2.0202 3.03031 0 2.0202 2.0202 3.0303 6.06061 2.0202 7.07071 3.03031c1.010097 1.0101-1.0101 2.0202-.50505 3.53535s3.535349 3.53535 6.060602 2.0202c2.525252-1.51515 4.545454-6.56566 6.565656-6.0606 2.020202.50505 4.040404 6.56565 7.070707 6.0606s7.070707-7.57576 10.10101-8.58586 5.050505 4.04041 7.070707 4.54546 4.040404-3.53536 6.060608-4.54546c2.020202-1.0101 4.040404 1.0101 6.060606 1.51515s4.040404-.50505 6.060606-1.51515h5.555558c1.515149 0 2.52525 0 3.535351.50505 1.0101.50505 2.020203 1.51515 2.525263 2.52526.50504 1.0101.50504 2.0202-1.010113 2.52525-1.51515.50505-4.545453.50505-7.575756.50505l-7.003369 1.95286c-2.267004.13468-4.534341.26936-6.026934 1.70606-1.492594 1.43637-2.211115 4.17508-4.455558 4.30977-2.244781.13468-6.015825-2.33468-7.519865-.88687-1.503704 1.44781-.740741 6.81279-3.872054 7.45252s-10.156902-3.44579-13.030302-2.36835c-2.873064 1.07744-1.593603 7.31784-3.097643 8.76566-1.503704 1.44781-5.791246-1.89697-8.742761-1.94175-2.951849-.0448-4.568009 3.20976-4.242429 4.77003.32526 1.55993 2.592597 1.42526 2.222227 2.80572-.37037 1.38048-3.378447 4.27609-4.624247 6.16161-1.24579 1.88553-.72929 2.76095-.21313 3.63637s1.03266 1.75084 3.28856 1.61616c2.255888-.13468 6.251174-1.27946 7.620534-.90909s.112121 2.25589 1.30202 3.31077c1.189562 1.05522 4.825926 1.27947 6.262626-1.30168 1.436364-2.58148.673401-7.96869 2.682155-8.54108 2.009091-.57239 6.790236 3.67004 9.158249 1.72829 2.36835-1.94142 2.323232-10.06734 4.444444-12.45791s6.408754.95421 8.417508.37037c2.009092-.5835 1.73973-5.09528 2.974415-6.98081 1.234343-1.88552 3.973061-1.14478 5.970708-1.71717 1.997641-.57239 3.254877-2.45791 4.51178-4.34344l.942763-1.07744c1.010101-1.0101 2.020202-2.0202 4.040404-2.52525s5.050505-.50505 6.565655 0c1.515153.50505 1.515153 1.51515 0 3.03031-1.51515 1.51515-4.545453 3.53535-6.060602 5.55555-1.515154 2.0202-1.515154 4.0404-1.515154 5.55556v3.53535h3.030303z"/><use height="304.20001" transform="translate(64.64618 .000018)" width="251" xlink:href="#b"/><use id="a" height="304.20001" transform="matrix(.951057 -.309017 -.309017 -.951057 64.53788 270.8191)" width="251" xlink:href="#b"/><use height="304.20001" transform="matrix(-1 0 0 1 251.795 0)" width="251" xlink:href="#a"/><g id="b" transform="matrix(.505045 0 0 .505048 24.99526 100.0341)"><path d="m117.48957 110.74999h36.00018c0-4.00002 0-8.00004-2.00001-12.00006-2.00001-4.000025-6.00003-8.000045-10.00005-10.000055s-8.00004-2.00001-12.00006 0-8.00004 6.00003-10.00005 10.000055c-2.00001 4.00002-2.00001 8.00004-2.00001 12.00006z"/><path d="m123.4896 105.17307c0 6.00003 0 17.57698 1.00001 21.577 1 4.00002 3.00001 6.00003 5.00002 9.00005 2.00001 3.00001 4.00002 7.00003 6.00003 7.00003s4.00002-4.00002 6.00003-7.00003c2.00001-3.00002 4.00002-5.00003 5.00003-9.00005 1-4.00002 1-15.57697 1-21.577"/></g></g><path id="c" d="m130.40937 226.96151c3.70085 5.23885 5.93147 11.37308 6.46016 17.76545v9.69025c12.83062-2.15339 25.9304-2.15339 38.76101 0v-9.69025c.52869-6.39237 2.75931-12.5266 6.46016-17.76545-1.58048-1.43708-4.01104-1.37935-5.52152.13111-1.51047 1.51048-1.5682 3.94105-.13111 5.52153l-1.16446 2.56163c-.6815-1.32665-2.18273-2.01422-3.63241-1.66363-1.44968.35056-2.47084 1.64814-2.47082 3.1396 0 .99352.45724 1.93178 1.23974 2.54397.78249.61221 1.80319.83024 2.76753.59119l-.77719 1.70997c-.34754 1.0428-1.32338 1.74618-2.42257 1.74618-1.09918 0-2.07502-.70338-2.42256-1.74618v-9.69025c.89197 0 1.61505-.72308 1.61505-1.61504 0-.89197-.72308-1.61505-1.61505-1.61505-.89196 0-1.61504.72308-1.61504 1.61505-.00001.72112.47805 1.35488 1.17144 1.55296l-2.78648 9.75233c-.37308 1.17697-1.55488 1.90047-2.77277 1.69749-1.21788-.20297-2.10117-1.27067-2.07235-2.50501l-.36482-3.10034c.97418.75574 2.29365.89096 3.40088.34853 1.10725-.54242 1.80911-1.66787 1.80906-2.90083 0-1.37055-.86491-2.59186-2.1577-3.04688-1.2928-.45502-2.73199-.0447-3.59041 1.02376l-.19991-1.69885c1.6632-.81271 2.71795-2.5021 2.71793-4.35324-.00004-2.315-1.63771-4.30656-3.90911-4.75379l-.12849-.89887c0-.44597-.36154-.80751-.80752-.80751s-.80752.36154-.80752.80751l-.1285.89887c-2.27138.44723-3.90906 2.43879-3.90911 4.75379-.00002 1.85114 1.05474 3.54053 2.71794 4.35324l-.19991 1.69885c-.85842-1.06841-2.2976-1.47878-3.5904-1.02376-1.29279.45502-2.1577 1.67633-2.1577 3.04688-.00006 1.23296.7018 2.35841 1.80904 2.90083 1.10724.54243 2.4267.40721 3.40089-.34853l-.36482 3.10034c.0288 1.23434-.85446 2.30204-2.07235 2.50501-1.2179.20298-2.39968-.52052-2.77276-1.69749l-2.7865-9.75233c.6934-.19808 1.17146-.83184 1.17145-1.55296 0-.89197-.72309-1.61505-1.61503-1.61505-.89198 0-1.61505.72308-1.61505 1.61505 0 .89196.72307 1.61504 1.61505 1.61504v9.69025c-.34755 1.0428-1.32338 1.74618-2.42258 1.74618-1.09918 0-2.07501-.70338-2.42256-1.74618l-.77719-1.70997c.96434.23905 1.98504.021 2.76754-.59119s1.23972-1.55045 1.23974-2.54397c.00002-1.49146-1.02115-2.78904-2.47083-3.1396-1.44967-.35059-2.95091.33698-3.63242 1.66363l-1.16444-2.56163c1.43707-1.58048 1.37935-4.01105-.13112-5.52153-1.51048-1.51046-3.94105-1.56819-5.52153-.13111z" fill="#ffcd50" stroke="#003d8f"/><use height="304.20001" transform="translate(-.000003 -35)" width="251" xlink:href="#c"/><use height="304.20001" transform="translate(-.000003 -70)" width="251" xlink:href="#c"/></svg>