<svg height="312.5" width="312.5" xmlns="http://www.w3.org/2000/svg" xmlns:xlink="http://www.w3.org/1999/xlink"><path d="m0 0h312.5v312.5h-312.5z" fill="#003d8f"/><use height="304.20001" transform="matrix(-1 0 0 1 312.5 .000455)" width="251" xlink:href="#a"/><g id="a" transform="matrix(.78615614 -.70785466 .70785466 .78615614 -247.80817 304.50448)"><path d="m370.84694 180.79635c-8.80487 23.89894-17.60974 47.79788-20.12542 62.26302-2.51568 14.46515 2.0231 16.82912 6.28919 19.4965 5.03136 3.14588 11.32055 8.3677 17.60975 8.3677 6.28919 0 12.57838-5.67123 17.60974-8.3677 4.43464-2.37666 8.80487-5.03135 6.28919-19.4965-2.51567-14.46514-11.32055-38.36408-20.12542-62.26302" fill="#ffcd50"/><path d="m370.96373 94.005476h7.54703l8.20309-30.904123-11.9766-40.792689-12.20925 40.792689z" fill="#eee"/><path d="m369.57897 280.37077h10.08297l-1.26038-186.199163h-7.56221z" fill="#ffcd50" stroke="#003d8f"/></g><path d="m103.90717 33.304297c7.49644 10.611837 12.01479 23.037339 13.08572 35.985732v19.628581c25.98971-4.3619 52.52463-4.3619 78.51431 0v-19.628581c1.07092-12.948393 5.58929-25.373895 13.08573-35.985732-3.20141-2.910945-8.12478-2.794021-11.18441.265606-3.05962 3.059629-3.17654 7.982987-.26559 11.184397l-2.35871 5.188858c-1.38045-2.687289-4.42133-4.08002-7.35782-3.369873-2.93648.710136-5.00494 3.338478-5.00491 6.359584.00002 2.01251.9262 3.913017 2.51122 5.153083 1.58505 1.240076 3.65257 1.681745 5.60593 1.1975l-1.57428 3.463717c-.70398 2.112276-2.68065 3.53707-4.90715 3.53707s-4.20317-1.424794-4.90714-3.53707v-19.628581c1.80675 0 3.27142-1.464667 3.27142-3.271435 0-1.806753-1.46467-3.271425-3.27142-3.271425-1.80678 0-3.27143 1.464672-3.27143 3.271425-.00003 1.460724.96833 2.744457 2.37286 3.14567l-5.64431 19.754346c-.75572 2.384082-3.14956 3.84961-5.61651 3.438446-2.46697-.411174-4.25612-2.573857-4.19776-5.074161l-.73899-6.280057c1.97334 1.53083 4.64603 1.80473 6.88886.70599 2.24282-1.098739 3.66453-3.378439 3.6644-5.875938 0-2.776149-1.75194-5.250071-4.37062-6.171742-2.61871-.921686-5.53395-.09043-7.27275 2.073732l-.40494-3.441181c3.36899-1.64625 5.50551-5.068272 5.50546-8.817961-.00005-4.689255-3.31738-8.723378-7.91832-9.62927l-.26025-1.820733c0-.903381-.73233-1.635715-1.63571-1.635715-.90337 0-1.63571.732334-1.63571 1.635715l-.26027 1.820733c-4.60092.905892-7.91825 4.940015-7.91833 9.62927-.00005 3.749689 2.13648 7.171711 5.50547 8.817961l-.40493 3.441181c-1.7388-2.164159-4.65405-2.995418-7.27276-2.073732-2.61868.921671-4.37063 3.395593-4.37063 6.171742-.00012 2.497499 1.42159 4.777199 3.66442 5.875938 2.24282 1.09874 4.9155.82484 6.88886-.70599l-.73898 6.280057c.0583 2.500304-1.73081 4.662987-4.19778 5.074161-2.46697.411164-4.8608-1.054364-5.61652-3.438446l-5.64431-19.754346c1.40454-.401213 2.3729-1.684946 2.37289-3.14567 0-1.806753-1.46469-3.271425-3.27145-3.271425-1.80675 0-3.27142 1.464672-3.27142 3.271425 0 1.806768 1.46467 3.271435 3.27142 3.271435v19.628581c-.70397 2.112276-2.68064 3.53707-4.90714 3.53707s-4.20317-1.424794-4.90715-3.53707l-1.57429-3.463717c1.95339.484245 4.02091.04258 5.60593-1.1975 1.58503-1.240066 2.51121-3.140573 2.51123-5.153083.00003-3.021106-2.06843-5.649448-5.0049-6.359584-2.93649-.710147-5.97737.682584-7.35784 3.369873l-2.3587-5.188858c2.91094-3.20141 2.79403-8.124768-.26559-11.184397-3.05963-3.059627-7.98299-3.176551-11.18441-.265606z" fill="#ffcd50"/></svg>