<svg height="312.5" width="312.5" xmlns="http://www.w3.org/2000/svg"><path d="m0 0h312.5v312.5h-312.5z" fill="#003d8f"/><g fill="#eee" stroke="#003d8f" stroke-width=".5" transform="matrix(.449484 0 0 .449484 295.35469 12.796378)"><path d="m-94.5896 36.7689c-1.8-1.8-4-3.2-6.5-4.4-.199-.1-.399-.2-.6-.2-2.1-1-4.4-1.7-6.9-2.2-4.8-.5-9.3.7-13.5 3.5-4 4-5.1 7.6-3.3 10.8l.5-.2c1.7-4.6 6.101-7.3 13.2-7.9 3.1.1 5.6.6 7.7 1.6 1.6.8 2.8 1.8 3.8 3.2.2.3.4.7.6 1 .301.6.5 1.3.7 1.9 1.101 8-.8 14.2-5.7 18.5-6.1 5.6-13.699 7.3-22.699 5.2-8.9-2.2-16.101-1.2-21.4 2.9 0 0-.1 0-.1.1-4.101 3.9-7.101 8.6-9.101 14 2-5.4 5-10.1 9.101-14l.1-.1c-1.9-9-6.6-15.7-14.1-20.3-5.2-1.8-11-2.4-17.301-1.7h-.1c-9 1.4-14.4 5.8-16.2 13.2-1.2 5.5.3 10 4.601 13.8 2.699 1.7 5.699 1.9 9.1.4-6-2-7.9-5.5-5.8-10.5 1.5-2 4.399-3.1 8.6-3.3 4 .2 7.101 2 9.5 5.3 2.601 6 3.4 11.2 2.3 15.8-.5 1.8-1.3 3.5-2.3 5.1-11.8 16.4-18.8 34.6-21.1 54.5-1.2 15.7-1.5 27.1-.8 34.3.199 2.5.5 5.2.8 8 .7 5.3 1.6 11 2.8 17.3 1.8 9.7 6.5 23.7 14 41.8 3.7 9.6 8.5 16.8 14.6 21.6 1.801 1.3 3.5 2.5 5 3.9 5 4.4 7.801 9 8.5 13.7-2.199-5.1-6.1-8.2-11.899-9.3-.9-.3-1.9-.5-2.8-.6-4.801-.6-9.5-.1-14.2 1.4-3 .3-5.9.2-8.4-.3-5.3-1-9.6-3.8-13-8-3.3-5.5-1.899-11.4 4.3-17.4-6.699 1.1-11.3 4.7-13.699 10.7-1.601 5.6-1.4 10.5.6 14.8 4.8 6.9 10.8 10.2 17.9 9.8.5 0 1-.1 1.5-.1-.5.3-1 .7-1.5 1-4.7 3.1-10.4 5.4-17.101 6.9 4.601 3.1 10.3 3.3 17.2.4-9.8 7.2-13.1 15.5-10 24.7 4.5 9.9 11.8 14.5 22 13.8h.1.5c.9-.1 1.9-.3 2.9-.4 7.9-3.2 11.4-7.2 10.3-12.2-3.1 4.5-7.5 6.4-13.399 5.8-6.9-2.2-10.301-6.9-10.2-14.3.899-4.5 2.8-7.9 5.6-10.3 3.5-3 8.3-4.5 14.601-4.6 15.3 1.4 24.8 6.8 28.6 15.9 3.3 9.7 3.8 18.7 1.5 27-4.2 11.4-13 20-26.1 25.7-8.301 2.801-16 4.101-23.301 3.9-7.3-.2-14.1-1.8-20.5-5-8-5.3-15.899-10.3-23.5-14.8-.1-.101-.199-.2-.399-.3-9.8-6.7-18-16.101-24.4-28.101-3.7-6.9-6.2-13.8-7.3-20.9-.1-.1-.1-.2-.1-.3-.801-8.6-2.5-17.2-5.101-25.7l.5-.4c4 3.6 8 5.4 12.101 5.3-6.7-6-11.301-12.9-13.9-20.8 0-.6-.1-1.3-.1-1.9h-.804c-3.5 1.9-7.6 2.7-12.5 2.5-5.3-.6-9.8-2.4-13.5-5.4-3.699-3.1-6.6-7.5-8.5-13.3-2.399 1.7-4.899 3-7.399 3.9-.1.1-.2.3-.3.6-5 8.3-11.9 14.5-20.7 18.5-2.2.9-4.5 1.7-6.8 2.5 1.6-1.8 2.9-3.5 3.9-5.3 2.4-4.2 3.1-8.5 2.2-12.7-3.7.8-6.9 2.3-9.5 4.5-1.1.9-2.1 2-3 3.1-5.4 5.7-5.5 11.8-.3 18.3-3.9.5-6.8-.5-8.8-3.1-.7-.8-1.2-1.8-1.7-3-.1-.3-.2-.5-.3-.7-1.7-5.6-.1-11.3 5-17 .9-1 1.9-2 3-2.9-8.9 3.3-13.9 8.6-14.9 16.2.7 3.8 2.2 7.2 4.5 10.4.1.2.2.3.4.5.8 1.2 1.8 2.3 3 3.4 0 .1.1.2.2.3-7.3-1.7-13.2-5.8-17.5-12.4-2.3-4.2-2.6-9.6-.7-16.1 0-.1 0-.2.1-.3.5-1.9 1.2-3.9 2.1-6l-10.5 7.3c-4.4 2.5-9.7 3.6-15.8 3.5h-.1c-3.4.5-6.5 1.2-9.3 2.3-5.3 2.1-9.9 5.3-13.6 9.7-3-2.2-3.7-5.3-2.1-9.4.9-1.3 1.7-2.5 2.6-3.6l-5 1.3-34.7 34.2c-1.6 1.5-1.9 3-.9 4.3-5.8.2-10.2 1.9-13.4 5.1-1.3 1.6-2.7 3-4.3 4.4-3.8 3.6-8.4 6.9-13.8 9.9-2.6 1.3-5.2 1.8-8 1.8-1.8 0-3.6-.4-5.4-1h-.5l-7.4-1.5c-4.2-.3-6.6.6-7.4 2.7-.1.6-.1 1.1 0 1.6.3 1.2 1.3 1.9 2.9 2.2 4.6.6 7.1 1.9 7.5 3.8 1.2 3.3.5 5.7-2.2 7 1.2 5.1 4.7 8.5 10.5 10.1.3-4.6 2.4-7.4 6.5-8.7l5.4 6.3 6.4-6.1c2.3-2.9 3.1-6.3 2.5-10.2.6 3.9-.2 7.3-2.5 10.2l-6.4 6.1c-2.7 3.8-4.4 7.6-5.1 11.4l2.7 5.4c1.2-3.2 4-4.601 8.3-4 4.2 1.399 6.6 4 7 7.8 2.8 2.1 7.3 2.6 13.3 1.4-2.8-2.7-4.7-5.801-5.5-9.2 0 0 0 0-.1-.101-.3-1.6-.5-3.3-.5-5 0 1.7.2 3.4.5 5l1.4-.199c4.1-3 8.6-3.801 13.3-2.4 5.7-5.8 8.9-11.6 9.8-17.3 0 0 .1 0 .2-.1 2.7 8.4 9.3 10.4 19.9 6-8.1.7-9.6-2.1-4.5-8.3.2.1.4.1.5.1 4.9-2 7.5-4.8 7.7-8.3 0-.4 0-.8-.1-1.2.2.3.3.6.5 1v.1c2.1 4.5 3.9 6.2 5.5 5.3 1-7.9 3.3-13.4 6.8-16.9-.4 9.5 2.2 14.6 7.7 15.5.8-5.5 1.8-10.2 3.3-14 0-.3.1-.4.2-.5 1.9-5.2 4.4-8.9 7.6-11.2.3 4.3-.9 8.7-3.7 13.1 5.3-2.1 9.7-5.4 13.2-9.9 2.5-4.2 3.7-8.9 3.4-13.9 5.7 10.5 5.5 20.4-.6 29.4l16.6-13.1c1.7-1.4 3.5-2.7 5.3-3.8 7.2-4.5 15.1-7 23.6-7.3-8.5.3-16.4 2.8-23.6 7.3-1.8 1.1-3.6 2.4-5.3 3.8 1.2 7.8.1 13.6-3.4 17.5 6.1.6 10.6-3.1 13.5-11.2.3-.7.5-1.3.7-2-1.6 7.3 0 12.4 4.9 15.5 9.9 4.6 20.3 7.7 31 9.5 1.5.3 2.9.7 4.4 1.3 1 .4 2.1.8 3.1 1.4 1.2.6 2.301 1.2 3.4 2 4.9 3.2 9.1 7.8 12.7 13.7 1.3-3.3 1.1-7.4-.4-12-2.2-3.4-4.7-6.2-7.3-8.5-1.7-1.4-3.4-2.6-5.3-3.6 1.899 1 3.6 2.2 5.3 3.6 2.6 2.3 5.1 5.1 7.3 8.5 1.5 4.6 1.7 8.7.4 12-.2.1-.2.1-.2.3-2.1 3.9-3.4 8.101-3.7 12.7-.2.7-.2 1.5-.2 2.3-.1 2.8.101 5.7.7 8.8 1.8 4.2 2.5 8.101 2.101 11.601-.4 3.3-1.801 6.3-4.101 9.1-.2.2-.399.5-.7.8-7.8 6.801-13.7 13.5-17.6 20.2-4.1 7.7-6.6 15.4-7.5 23-.6 7.9-.9 14.5-.9 19.8 0 2.9-1 5.301-3.1 7.4-2.1 2-5.3 3.5-9.6 4.6-3.9 1-7.4 1-10.4 0-3.4-1.3-5.8-3.399-7.1-6.199-.5-1-.8-2-1.1-3.2-1-5.4 1.1-10.601 6.2-15.8-5.5 1.1-10 3.6-13.5 7.699-2.4 5.101-3.1 9.9-1.8 14.101.1.5.3.899.5 1.399 2.1 5.4 5.3 9.301 9.3 11.601 7.8 2.899 15.7 3.3 23.8 1.1.1-.1.3-.1.4-.1 4.1-2.2 7.5-4.601 10.3-7.4.2-.2.4-.399.6-.6.2-.2.3-.4.5-.5 1.3-1.601 2.5-3.2 3.5-4.9 1.1-2 2-4.2 2.7-6.5-.7 2.3-1.6 4.5-2.7 6.5-2.3 6.7-3.8 12.9-4.4 18.5v.2c3.5-4.2 7-7 10.399-8.5 1.9 9.3 2.2 16.5.801 21.8-1.9 6.601-4.3 11.4-7 14.2 1.2.2 2.4.1 3.6-.3h.1c3.7-1.101 7.4-4.3 11.2-9.601 3.5-4.6 5.2-10.1 5-16.6-.2-3.6-.6-6.6-1.399-9.1-.301-.801-.601-1.5-.9-2.101-.5-1-1.1-1.899-1.7-2.6.601.7 1.2 1.6 1.7 2.6.5.601 1 1.3 1.5 1.9 4.4 5.399 9.5 8.1 15.3 8l5.65-1.24748 5.65-1.65252c-3.5.101-6.5-.3-9.3-1.2-3.8-1.199-7-3.3-9.7-6.3 2.7 3 5.9 5.101 9.7 6.3 2.8.9 5.8 1.301 9.3 1.2 3.7-2 6-4.899 7.101-8.8-1.101 3.9-3.4 6.8-7.101 8.8-2.3 1.2-5.18921 1.50707-8.5 2.39976-.56033.15108-1.17205.25435-1.8.30124 5.8 11.5 17.3 18.3 34.601 20.6 1.8.2 3.699.4 5.699.5-2-.1-3.899-.3-5.699-.5-8.9 12.2-14.801 24.5-17.5 36.801-2 7.199-3.5 14.699-4.5 22.3-.7.899-1.5 1.7-2.5 2.399-.601.301-1.301.7-2 1-1.9.801-4.301 1.4-7.101 1.601-3.1-.2-5.8-1.601-8.399-4.101-3.2-.5-6.801-.5-10.601 0-2 .801-2.7 2.2-2.1 4.101h.1c2.3.7 4 2.399 5 5.2.5 2.8.3 5.5-.7 8-.1.199-.199.399-.3.699-1.3 4-1.2 7.601.3 10.801 7.801-1.5 12-5.601 12.801-12.301.8 3.801 2.5 5.9 5 6.301h.399.101c2.199-4.7 5.699-8.5 10.3-11.4.7-.4 1.399-.9 2.1-1.2.7-.399 1.5-.7 2.2-1.1-.7.399-1.5.7-2.2 1.1-.7.3-1.399.8-2.1 1.2-4.601 2.9-8.101 6.7-10.3 11.4h-.103l.101.3-.601.2c-2.399 2.1-3 4.199-1.8 6.3l.1.2c1.301-.601 2.5-1.101 3.801-1.4 2.399-.7 4.699-1 7.1-.9 2.8 1.801 4.9 3.801 6.5 6 .1 0 .1.101.1.2 1 1.3 1.7 2.8 2.301 4.3l.5.4c6.6-1.2 9-3.9 7-7.9-.101-.199-.2-.3-.301-.5-.199-.399-.5-.8-.699-1.199l-3.802-3.802 3.801 3.801c.199.399.5.8.699 1.199l7.5-4.8c2.4-2.3 4-4.899 5-7.7.2-4.199-1.8-7-6-8.6 4.2 1.6 6.2 4.4 6 8.6-1 2.801-2.6 5.4-5 7.7l.5.601c.101.3.301.6.4 1 1 1.899 2.6 3.3 5.1 4.1 4.301-1.6 7.2-3.5 8.601-5.5-.601-3.1.399-5.8 2.8-8.1 2.4-1.601 4.9-2.5 7.5-2.601 1.6.101 3.3 1 4.8 2.8.101 0 .101 0 .2-.1 2-.4 2.9-1.3 2.6-2.7.301-2.5 0-5-.8-7.5-.2-.2-.2-.399-.3-.6-.4-1.3-1-2.5-1.8-3.7-.2-.4-.4-.7-.7-1-.1-.2-.3-.3-.4-.6 0 0 0 0 0-.101-3.8-3.2-8-5.6-12.699-6.899 4.699 1.3 8.899 3.699 12.699 6.899v.101s0 0 .101.1c.1.1.2.3.3.5l.6.3c.9.601 1.801 1.101 2.7 1.5.3.2.8.4 1.2.5 3.1 1.3 8.7.8 16.7-1.3-6.9-1.9-10.9-4.7-12.101-8.1-1.699-3.801-2.399-7.7-2-12 0-.5 0-1 0-1.7-.1-.8-.199-1.601-.5-2.601-1-1.399-3.3-2.899-7.1-4.399 3.8 1.5 6.1 3 7.1 4.399.9.601 1.7 1.301 2.5 2.2 2.9 3.2 5.4 7.8 7.4 14 4.1-6.2 5.4-12.6 4-19.2-.1 0-.2-.1-.3-.199-.101-.7-.2-1.301-.4-2-.7-2.5-1.8-4.7-3.6-6.601-1.8-2-4.3-3.7-7.3-5.1 3 1.399 5.5 3.1 7.3 5.1 1.8 1.9 2.899 4.101 3.6 6.601.2.699.3 1.3.4 2 .1.1.2.199.3.199 4.5 2.101 9 2.7 13.5 1.5 5.2-2.1 8.8-4.5 10.8-7.399-3.1.399-5.899.6-8.399.399-.101 0-.101 0-.2 0-4.2-.399-7.8-1.699-10.8-3.8-.301-.2-.5-.399-.7-.6 0 0-.101-.101-.101-.2h-.1c-1-.9-1.9-1.8-2.6-2.8-2.301-2.9-3.4-6.2-3.301-10l.301-.601c6.899 1.7 12.8 6.601 17.8 14.7 3-6.6-1.9-15.6-14.601-27.2 5.301 1 9.101 2.801 11.601 5.601 2.1-2.101 2.5-4.601 1.1-7.2-2.3-5.9-6.399-10.1-12.399-12.4 6.1 2.2 12 3.9 17.8 5.101 1.7.3 3.399.6 5 .899 9.5 0 15.3-3 17.2-9-2.5.9-4.9 1.5-7.101 2-.2 0-.3 0-.399 0-.101.101-.2.101-.2.101-5.2.899-9.3.6-12.601-.9-.199-.2-.399-.3-.6-.399-5.8-2.801-9.6-6.9-11.5-12.4 3.8-2.8 8-3.4 12.6-1.9 5.601 2.5 9.4 6 11.5 10.2 2.601-6.6.5-12.5-6.3-17.6-.5-.2-1-.4-1.399-.7-7.7-3.6-15.9-4-24.7-1 9-3.8 15.8-8.7 20.5-14.5 1.6-3.6 1.2-6.7-1.101-9.2-5.1 6.101-12.6 10.101-22.5 11.8-6.1.101-11.3-1-15.5-3.5 8.301-2.1 12.7-6.899 13.2-14.3-.3.3-.6.601-.8.9-.3.3-.6.5-.9.8-3.8 3.5-8.399 5.2-13.699 5.2-.101 0-.2 0-.301 0-.3 0-.6 0-.899 0-1.2-.101-2.601-.2-3.8-.5-6.601-3.5-10.301-8.4-11.101-14.5 3.9 4.8 9.101 7.3 15.5 7.6 3.8-.5 6.4-1.8 7.9-3.8.3-.4.6-.9.8-1.3-2.5.2-4.9 0-7.1-.7-8.5-2.7-15.801-12.3-21.5-28.8 0-.101-.101-.2-.101-.3v.1c.101 0 .2.1.2.2 4.9 8 10.8 11.399 17.9 10.1-3.4-3.7-6.101-8.399-8.2-14.1-2.101-5.8-3.4-12.5-4.2-20.2-.2-2.3-.4-4.8-.4-7.3v-5c.801.8 1.601 1.7 2.5 2.5 1 1.1 2.2 2.1 3.301 3.1 10.199 8.299 22.899 12.199 38.199 11.599h.4.6.5.5c18.2.3 34.301-5.601 48.2-17.9 15.9-13.8 23.9-34.6 24.101-62.1.6-4.9 2.3-7.5 5.399-8.2 2.4-.5 5.7.4 9.8 2.8 1.601-6.6-1.899-10.3-10.6-11.3h-.1c-.2 0-.301 0-.5 0-5.4 1-9.4 3.6-11.9 7.7-.4.7-.8 1.5-1.1 2.2.3-.7.699-1.5 1.1-2.2 2.5-4.1 6.5-6.7 11.9-7.7.199-.1.3-.1.5-.1 13.1-14.4 18-24.5 15-30.1-2-4.6-5.2-7.6-9.7-9.2 6.2 6.9 3.7 13-7.4 18.2-10.1 3.4-16.3 11.5-18.6 24.2-2.8-10.5-6.7-18.5-11.9-23.9-6.3-6.3-12.7-15.8-19-28.6-3.399-8.6-5.1-16.5-5-23.6.101-1.9.2-3.5.5-5 0-.1 0-.2 0-.2.9-4.5 3-7.8 6.2-9.8 4.2-2.8 9.2-2.9 14.9-.2 2.199 2.4 2 4.7-.5 6.7 5.8-.6 8-3 6.699-7.2-.699-1.1-1.5-2.1-2.399-3-4.7-4.9-11.7-6.3-21.101-4.5-.199.1-.399.2-.6.2-.3.1-.6.2-.9.4-5.899 2.5-9.399 7.5-10.699 15.1v.1c-4.2-16.2-5.7-33.5-4.4-52.1.8-10.1 5-20.1 12.6-30.1 9.601-9.3 17.7-13.9 24.2-13.6 6.5.2 12.7 2.3 18.7 6.2 5.9 4 8.5 11 7.7 21-.8 6.4-4.8 11.4-11.8 15-.301.1-.601.3-.9.5-1.1.5-2.5 1.1-4.2 1.6-.7.2-1.399.4-2.2.6-3.1.9-6.199-.2-9.399-3.2-2-2.5-2.5-6.3-1.5-11.3-6.3 7-6.601 13.4-1.101 19.4 4.4 4.9 10.101 5.8 17 2.9 1.5-.6 3.2-1.5 4.9-2.6-1.7 1.1-3.4 2-4.9 2.6-7.7 10.3-4.2 16.3 10.4 17.9 1.5.1 3.1.3 4.9.3-11-1.4-13.801-5-8.2-10.8.8-.9 1.899-1.9 3.1-2.9.9-.7 1.9-1.5 3-2.2 17.2-11.5 23.601-26.4 19.3-44.7-3.899-11.3-11.399-20-22.3-26-1.899-1-3.8-2-5.8-2.8-3.9-.1-7.7.1-11.2.5-3.3.8-5.8 1.8-7.7 3.1 1.9-1.3 4.4-2.3 7.7-3.1 3.5-.4 7.3-.6 11.2-.5 2.3 0 4.7.2 7.2.4 5.7.2 10.6-1.7 14.6-5.7 6.7-7.3 10.8-15.5 12.101-24.6.3-6.1-1.101-12.2-4.2-18.5 0-.1-.101-.2-.101-.3-.399-.5-.8-1.1-1.199-1.6-.2-.2-.301-.4-.4-.5-.501-.6-.901-1.1-1.401-1.5z"/><path d="m-242.3896 80.8689c-1-4.4-3.8-8.4-8.6-12.1 7.3-.9 11.3-3.3 11.8-7.4-3.5 1.8-7.1 2.3-10.7 1.6-3.1-5.8-7.899-10.2-14.399-13.2-3.801-1.2-7.801-1.5-12-.8-.7.1-1.4.3-2.301.4.9-.1 1.601-.3 2.301-.4 5.8-1.5 8.199-5.7 7.199-12.8-.8-7.7-6-13.2-15.199-16.5-3.601-1-6.5-.6-8.601 1.1 4.601.5 7.5 1.6 8.7 3.2.4.5.7 1 1 1.6 1.4 2.8 1.4 5.5.1 7.8-2.5 2.9-6.8 5.2-13.1 7.2-6.6 2.9-16.7 4.9-30.3 6-.4 0-.7.1-1.1.1h-.1c-21.3 2.9-37.3 6.8-47.8 11.7-2.6 1.2-4.9 2.5-6.9 3.9.3 3.7 1.8 5.9 4.6 6.5l.1.2 4.9-2.9v-2.3 2.3l-4.9 2.9-.1.1c-.5 3.3-.5 6.3-.1 8.9 4.3 8.4 10.6 14.3 19.2 17.8 0 0 .1 0 .1.1.1 0 .2 0 .2.1 3.9-.1 7.5-.1 10.8.1 4.5.3 8.6.7 12.1 1.5h.1c3.6.7 6.6 1.7 9.3 2.9 4.8 2.2 8.7 4.7 11.8 7.4 1.4 1.4 2.7 2.8 3.8 4.3 3.399 5.3 3.399 9.7 0 13.1-.1.1-.3.3-.4.4-1.9 1.6-5.2 2.5-9.8 2.7-8.7-.1-15.8-1.2-21.1-3.2-.7-.2-1.5-.5-2.2-.7-3.8-1.1-8.2-1.5-13.2-1.3-1.6 0-3.3.2-5 .4-2.5 2.6-2.4 5.3.2 8-3 5.4-8.6 6.8-16.7 4.3 3 5.2 6.7 7.6 11.3 7.3 4.1-.4 8.4-2 12.6-4.9.3-.2.5-.4.8-.6-.3.3-.5.5-.6.7-4.2 4.4-6.9 8.3-8.1 11.6-.1.1-.1.2-.1.2v.2c-.6 1.8-.8 3.4-.5 4.9.5-1.6 1.3-3.1 2.4-4.5 3.5-4 9.9-6.6 19.3-7.6-.5 3.7-3.5 7.6-9.1 11.5 10.9-1.5 18.3-5.2 22.2-11.1.9 5.7 4.1 8.8 9.5 9.2-1.7-4.4-1.2-8 1.6-10.7 3.9 7.5 10.7 12 20.3 13.6-5-4-7.3-9.3-6.8-15.8 4.2 4 7.7 5.9 10.7 5.6-.6-5.6 1.1-10.6 5.2-15.1 1.3 5.1 7 8 17.2 8.7-7.5-6.5-10.9-13.2-10.301-20.1.5-6.9 1.5-12.2 3.101-16.1 4.1.5 6.899 3.9 8.399 10.2 1.2-11.1-3.3-18.5-13.199-22.2 2.899.7 5.699 1.1 8.5 1.2 1.699 0 3.399-.1 5.1-.3 5.8-.8 8.8-5.7 8.9-14.7.1-1.8-.101-3.4-.4-4.8 0-.1 0-.1 0-.1-1-4.1-3.4-6.9-7.2-8.2-.2-.1-.399-.2-.6-.2-.101-.1-.2-.1-.3-.1h-.1c-.7-.3-1.5-.5-2.3-.6-.8-.2-1.6-.2-2.4-.3-4.8.1-8 1.5-9.699 4.2 1.699-2.7 4.899-4.1 9.699-4.2.801.1 1.601.1 2.4.3.8.1 1.6.3 2.3.6h.101c.1 0 .199 0 .3.1.2 0 .399.1.6.2 3.8 1.3 6.2 4.1 7.2 8.2v.1c.3 1.4.5 3 .4 4.8-.101 9-3.101 13.9-8.9 14.7-1.7.2-3.4.3-5.1.3-2.801-.1-5.601-.5-8.5-1.2 9.899 3.7 14.399 11.1 13.199 22.2-1.5-6.3-4.3-9.7-8.399-10.2-1.601 3.9-2.601 9.2-3.101 16.1-.6 6.9 2.801 13.6 10.301 20.1-10.2-.7-15.9-3.6-17.2-8.7-4.101 4.5-5.8 9.5-5.2 15.1-3 .3-6.5-1.6-10.7-5.6-.5 6.5 1.8 11.8 6.8 15.8-9.6-1.6-16.399-6.1-20.3-13.6-2.8 2.7-3.3 6.3-1.6 10.7-5.4-.4-8.6-3.5-9.5-9.2-3.9 5.9-11.3 9.6-22.2 11.1 5.6-3.9 8.6-7.8 9.1-11.5-9.4 1-15.8 3.6-19.3 7.6 3.3 1.8 5.1 3.7 5.4 5.6.2 2.3-.9 3.7-3.2 4.2-1.9-.7-3.8-1.2-5.7-1.6-6.9-1.6-13.8-1.9-20.7-.7-.1 0-.3 0-.4 0-.6.1-1.1.2-1.6.3-6.5-2.7-10-7.4-10.2-14-5.9 2.6-8.4 6.5-7.8 11.6 3.7 8.2 10.8 12.4 21.1 12.7h.8c-.2 0-.5 0-.8.1-14 2.3-22.7 8.4-26.1 18.3-3.9 6.5-9.6 5.9-17-2 .5 1.1 1.1 2.2 1.6 3.3 1.9 3.4 4.1 6.6 6.4 9.4.1.1.1.1.1.2 3.1 3.6 6.6 6.6 10.6 9.1-.1-5 1.5-9 4.9-11.9.6-.7 1.4-1.2 2.3-1.8-.9.6-1.7 1.1-2.3 1.8-3.4 2.9-5 6.9-4.9 11.9-.5 5.4-2.8 9.5-7.1 12.2-4.4 2.7-8.1 2.5-11.3-.5-.4-.3-.7-.7-1-1.1-1-1.4-1.2-3-.5-4.6 10.0637-8.12279-2.18759-5.47741-3.8-1.4-.9 1.1-1.6 2.4-2.1 4.1-.4 2.5-.5 4.8 0 6.8.6 3 2.2 5.3 4.8 6.9 1 .6 2.1 1.2 3.3 1.6 1.7.6 3.3 1 4.8 1.4.3 0 .6.1.9.1.8.2 1.6.3 2.4.4 1.8.1 3.6.1 5.3-.1 1.4-.3 2.7-.6 4-1 .2-.2.5-.3.7-.4.7-.3 1.4-.6 2.1-.9 1.7-1 3.4-2.2 5-3.8 2.1-2.2 4-4.8 5.6-8 2.1-4.6 4.9-7.7 8.2-9-3.3 1.3-6.1 4.4-8.2 9-1.6 3.2-3.5 5.8-5.6 8-1.6 1.6-3.3 2.8-5 3.8-.7.3-1.4.6-2.1.9l-.9.7c-1.3.7-2.5 1.1-3.6 1.3-.3.1-.5.1-.7.1-1.6.3-3.2 0-4.8-.6-.8-.1-1.6-.2-2.4-.4-.3 0-.6-.1-.9-.1.1.1.2.4.2.5.2.3.3.6.5.9.1.2.2.5.3.6 0 .1.1.2.2.4 2.2 3.9 5.5 6.3 9.6 7.4 2.5-2 5.2-3.8 8.1-5.2 2.6-1.3 5.3-2.4 8.1-3.2 8.5-2.4 13.8-7.2 15.8-14.5-2 7.3-7.3 12.1-15.8 14.5-2.8.8-5.5 1.9-8.1 3.2-2.9 1.4-5.6 3.2-8.1 5.2-3 2.4-5.8 5.3-8.4 8.6-.9 1.1-1.7 2.3-2.6 3.6-1.6 4.1-.9 7.2 2.1 9.4 3.7-4.4 8.3-7.6 13.6-9.7 2.8-1.1 5.9-1.8 9.3-2.3h.1c6.1.1 11.4-1 15.8-3.5l10.5-7.3c-.9 2.1-1.6 4.1-2.1 6-.1.1-.1.2-.1.3-1.9 6.5-1.6 11.9.7 16.1 4.3 6.6 10.2 10.7 17.5 12.4-.1-.1-.2-.2-.2-.3-1.2-1.1-2.2-2.2-3-3.4-.2-.2-.3-.3-.4-.5-2.3-3.2-3.8-6.6-4.5-10.4 1-7.6 6-12.9 14.9-16.2.3-.2.7-.2 1.1-.4-.4.2-.8.2-1.1.4-1.1.9-2.1 1.9-3 2.9-5.1 5.7-6.7 11.4-5 17 .1.2.2.4.3.7.5 1.2 1 2.2 1.7 3 2 2.6 4.9 3.6 8.8 3.1-5.2-6.5-5.1-12.6.3-18.3.9-1.1 1.9-2.2 3-3.1 2.6-2.2 5.8-3.7 9.5-4.5.9 4.2.2 8.5-2.2 12.7-1 1.8-2.3 3.5-3.9 5.3 2.3-.8 4.6-1.6 6.8-2.5 8.8-4 15.7-10.2 20.7-18.5l-.1-.5c-.1 0-.1 0-.2.1-3.8 1.4-7.7 1.7-11.5 1.3h-.101c0-.1 0-.1.1-.1 2.5-1.8 4.5-3.9 6.1-6.1.3-.2.5-.6.7-.9.8-1.2 1.5-2.4 2.1-3.7 1-2.2 1.7-4.6 2.1-7.2-.4 2.6-1.1 5-2.1 7.2-.6 1.3-1.3 2.5-2.1 3.7-.2.3-.4.7-.7.9-1.6 2.2-3.6 4.3-6.1 6.1-.1 0-.1 0-.1.1h.1c3.8.4 7.7.1 11.5-1.3.1-.1.1-.1.2-.1s.3 0 .4-.1c2.5-.9 5-2.2 7.399-3.9-.3-2.5-.399-4.9-.199-7.1.5-6.1 2.899-11.4 7.199-15.8-4.3 4.4-6.699 9.7-7.199 15.8-.2 2.2-.101 4.6.199 7.1 1.9 5.8 4.801 10.2 8.5 13.3 3.7 3 8.2 4.8 13.5 5.4 4.9.2 9-.6 12.5-2.5.301-.1.5-.2.801-.4h.1c.1-.1.3-.2.5-.3.4-.3.6-.5 1-.7-.6-.1-1.1-.2-1.6-.3-6.101-1-11.5-4.2-16.101-9.3-2.5-3.5-2.3-6.9.601-10.2v-.1c1.6-1.9 2.899-4.1 4-6.2 1.899-3.6 3.1-7.4 3.699-11.4-.6 4-1.8 7.8-3.699 11.4-1.101 2.1-2.4 4.3-4 6.2v.1c6.6-1.6 11.6-4.3 15-8.2.199-.3.6-.6.8-1 .1 0 .1 0 .1-.1.2-.2.4-.5.601-.8 0 0 0 0 .1-.1h-.1c.1-.1.199-.2.199-.2 2.4-3.3 3.801-6.8 4.301-10.5 0-.5.1-1 .1-1.5 0-.2 0-.4.1-.6v-.1c0-.2 0-.4 0-.5 0-1.1-.1-2.2-.199-3.3-.101-.1-.101-.1 0-.1-.301-1.5-.601-3.1-1.101-4.6.5 1.5.8 3.1 1.101 4.6-.101 0-.101 0 0 .1.1 1.1.199 2.2.199 3.3v.5.1c-.1.2-.1.4-.1.6 0 .5-.1 1-.1 1.5-.5 3.7-1.9 7.2-4.301 10.5 0 0-.1.1-.1.2-.1.1-.1.1-.1.1-.2.3-.4.6-.601.8 0 .1 0 .1-.1.1.2.1.3.2.399.2.4.1.801.3 1.301.5 2.399.7 4.899 1.2 7.399 1.5 5.2.5 10.7-.2 16.3-2.3 5.9-1.5 10.2-4.5 12.801-8.8-4.301 2.1-9.2 3-14.601 2.4-4.8-.5-8.3-2.7-10.7-6.8l.2-.1h.101l.099-1c7.3-11.4 12.8-11 16.4 1 3.699-6.9 2.899-13.9-2.2-21 8.2 5.5 17.399 7.5 27.8 6.2 7-2.2 11.6-5.6 13.9-10.3-2.9 2.2-7.7 3.1-14.301 2.6-8.199-.7-15.3-3.4-21.399-7.9-.101-.1-.3-.2-.5-.4-4.2-3.3-7.9-7.5-11.101-12.8 18-8.4 23-5.7 15 8.1-.1 0-.1.1-.1.2 8.4-4.5 12.6-8.8 12.6-13 0-4.3-4.6-10.2-13.8-17.8-4.899-1.3-7.899-4.2-8.8-8.7.9 4.5 3.9 7.4 8.8 8.7.7.2 1.5.3 2.3.5 7.301-.2 12.5-2.9 15.5-8.3-2.699 1.5-5.1 2.4-7.3 3 0 0-.1 0-.2 0 0 .1-.1.1-.199.1-.301 0-.5.1-.601.1-2.3.4-4.2.3-5.899-.3-.101-.1-.301-.2-.4-.2-5-2.6-8.1-6.8-9.4-12.6 3.801-4.8 8.801-2.2 15 7.8 4-8.6 1.801-15.3-6.6-20.3-4.9-2.9-8.9-5.8-11.7-8.8l-.2-.2c-.199-.3-.5-.5-.6-.7-.9-.9-1.6-1.9-2.2-3 .601 1.1 1.3 2.1 2.2 3 .1.2.4.4.6.7l.2.2c2.3 2.4 5.101 3.8 8.2 4.4 1.1.2 2.1.3 3.1.3 3.101-.2 5.7-1.5 7.9-3.9 2.8-3.4 3.4-6.8 1.8-10.4-1.8 4.1-4.7 6.3-8.7 6.5-3 .1-5.5-.9-7.199-2.9-.7-.7-1.301-1.5-1.7-2.5-1.799-3.7-3.499-9.3-4.899-16.5zm-77.5-19.3c.4.2.7.4 1 .6 5 3 9.2 6.3 12.7 10.1l5.3-2-5.3 2-10.7 1.4c-.5.1-.9.1-1.4.2-1.3.1-2.6.1-3.8 0-.8-.1-1.5-.1-2.2-.3-2.7-1.1-4.2-3-4.5-5.7-.4-2.6.7-5.1 3.2-7.2-.5 0-1.1 0-1.6 0-1.3.1-2.6.3-4 .6-.1-2.7 1.4-4.8 4.7-6.3-3.3 1.5-4.8 3.6-4.7 6.3 1.4-.3 2.7-.5 4-.6h1.6c1.9 0 3.8.3 5.7.9zm11.9 36.2c-3.6-3.5-7.9-6.2-12.6-8.1-4.1-1.3-8.2-1.7-12.5-.9 4.3-.8 8.4-.4 12.5.9 4.7 1.9 9 4.6 12.6 8.1zm32.1-25.5c-.3.1-.5.2-.7.3-2.199 1.1-4.1 1.5-5.6 1.4 1.5.1 3.4-.3 5.6-1.4.2-.1.4-.2.7-.3 1.9-1 4-2.6 6.101-4.6-2.101 2-4.201 3.6-6.101 4.6 1.9 1.3 3.7 3 5.2 5.1-.6 3-1.8 5.3-3.6 6.7 1.8-1.4 3-3.7 3.6-6.7-1.5-2.1-3.3-3.8-5.2-5.1zm-21.3 45.6c-.7-3.2-2-6.5-3.8-9.9 1.8 3.4 3.1 6.7 3.8 9.9.7 5.3-2.4 10-9.4 14 7-4 10.1-8.7 9.4-14z"/><path d="m-324.2896 67.4689c.4-2.4 1.9-4.3 4.4-5.9-1.9-.6-3.8-.9-5.7-.9-2.5 2.1-3.6 4.6-3.2 7.2.3 2.7 1.8 4.6 4.5 5.7.7.2 1.4.2 2.2.3-1.9-2-2.6-4.2-2.2-6.4z"/><path d="m-306.1896 72.2689c-3.5-3.8-7.7-7.1-12.7-10.1l.6 11.7c.5-.1.9-.1 1.4-.2z"/><path d="m-263.1896 234.3689c1.5-2.7 3.2-5.3 5.3-7.8-2.5-.3-5-.8-7.399-1.5l-2.5.3c-3.4 3.9-8.4 6.6-15 8.2-2.9 3.3-3.101 6.7-.601 10.2 4.601 5.1 10 8.3 16.101 9.3.099-6.2 1.399-12.4 4.099-18.7z"/><path d="m-425.7896 45.1689c.6-2.4 0-4.7-1.7-6.9l-4.3.2c-.1 1.2-.4 2.4-.8 3.6-.4 2.3-2 3.8-4.8 4.4-4.2-1.7-6.8-4.4-7.9-8.2-.2-.1-.4-.2-.5-.2-3.8-1.6-6.3-1.1-7.6 1.4-1.8 3.8-2.1 8.4-1.1 14-2.9 5.6-6.6 8.6-11.1 8.8h-.1c.8 3.7 2.3 7.1 4.3 10.5 3.7 4.1 7.8 5.9 12.3 5.4.1.1.2.2.3.3l.6-1c5.3-7.2 9.9-14.8 13.8-22.8 1.7-3.4 4.5-6.6 8.6-9.5z"/><path d="m-351.9896 109.0689h-.2l-1.8-2.9c-7.8.1-15.1.1-22.1 0-4.4-.5-8.6-3.8-12.7-10-2 2.4-2.7 5.4-2 9.1 1.9 6 5.6 9.7 11 11.3 7.2 2.3 14.8 3.3 22.7 3.1.3-.1.6-.1.9-.1l3.3-8.4 5.2 7.8c8.5-.4 17-.2 25.6.5 5.2.5 9.1 2.4 11.6 5.8 3.399-3.4 3.399-7.8 0-13.1-1.1-1.5-2.4-2.9-3.8-4.3-5.9-1.4-11.5-2.2-17.1-2.2-5.4.2-11.2.2-17.4-.1z" fill="#d40000"/><g fill="#d40000"><path d="m-347.5896 96.0689c-3.3-.2-6.9-.2-10.8-.1l-.3.1 4.7 10.1 1.8 2.9h.2l3.2-3.5z"/><path d="m-347.6896 118.9689-5.2-7.8-3.3 8.4-1 3.6c5-.2 9.4.2 13.2 1.3z"/></g><path d="m120.0625 45.21875c-2.025.0375-3.3875.69375-4.0625 1.96875 0-.000001.006.125-.0937.125 1.8 4.500001 1.60625 8.4875-.59375 12.1875v.09375c-2.5.600002-4.6125-.0063-6.3125-1.90625 0-.100001-.0875-.275-.1875-.375-2.2-.599999-3.81875.075-4.71875 1.875-2 3.799999-3.00625 7.20625-2.90625 10.40625 1.1 1.400002 2.2 2.5125 3.5 3.3125 1.7 1.199998 3.61875 1.80625 5.71875 1.90625.4 2.899997-1.09375 5.3875-4.59375 7.6875-1.7-1.4-4.21875-2.30625-7.21875-2.90625-3.899999.400002-6.88125 1.3125-9.28125 2.8125-1.100054.799998-1.81255 1.40625-1.81255 1.90625-.100001.399997.29375.675 1.09375.875 4.000001-.199997 6.8.8 8.5 3 2.000001 5.100003-.0062 9.20625-5.90625 12.40625-1.399997 2.7-1.28125 5.00625.21875 6.90625 2.599998 1.8 4.98125 2.6125 7.28125 2.3125 2.9-3.1 4.725-6.30625 5.625-9.40625 1.5 3.5 1.5 6.7 0 9.5 4.5 2 8.39375 1.49375 11.59375-1.40625-2.6 3-4.21875 6.1875-4.71875 9.6875.5-.1 1-.1875 1.5-.1875 5.9-.6 10.1125.6 12.8125 3.5l-.0937.6875-12.5-.1875c.2 4.3 2.30625 7.49375 6.40625 9.59375-6.8 5.89999-9.61875 12.70625-8.21875 20.40625 1.4-2.3 3.69375-3.8125 6.59375-4.3125.3-.1.6125-.0875.8125-.1875h.59375.21875c5.5-.6 13.175 1.40625 22.875 5.90625l.125.0937h-.125c-6.60001 3.7-14.175 3.5125-22.875-.6875 4.5 8.5 12.69375 11.6875 24.59375 9.6875l.0937.50005c-6.99999 2.2-12.89375 5.9125-17.59375 11.3125-.1.1-.2125.18125-.3125.28125l.0937.0937c.2 0 .30625-.0937.40625-.0937h.0937c8.4-2.70001 17.50625-2.88125 27.40625-.78125-11 1.5-18.10625 3.775-21.40625 6.875-2.00001 1.8-2.58125 3.90625-1.78125 6.40625 9.4-3.60001 19.58125-2.19375 30.78125 4.40625l-.0937.0937-.28125.8125c-10-1.19999-15.7.10625-17 3.90625 1.1.1 2.09375.175 3.09375.375 7.6 1.2 13.8 3.725 18.5 7.625-5.5 2.2-11.9125 1.3-19.3125-3 2.2 5.5 6.00625 9.375 11.40625 11.875 1.60001-2 3.7-3.075 6.5-3.375h.1875 1c-.40001.3-.7875.7-1.1875 1-1.17978 1.0721-1.99385 2.36152-2.6875 3.78125.4.1.875.20625 1.375.40625.19999 0 .3-.006.5.0937 3.19999.69999 6.9 1.09375 11 1.09375-5.00001.5-9.075 1.5-12.375 3 .3.4.6.825 1 1.125 3.2 3 6.88125 3.2 11.28125.5 4.3-2.7 6.59375-6.81875 7.09375-12.21875-4.00001-2.50001-7.49375-5.49375-10.59375-9.09375 0-.1.006-.0875-.0937-.1875-2.29999-2.8-4.50625-6.00625-6.40625-9.40625-.5-1.09999-1.09375-2.2125-1.59375-3.3125 7.40001 7.89999 13.1 8.5 17 2 3.40001-9.90001 12.09375-15.98125 26.09375-18.28125v-.125c-10.3-.2999-17.39375-4.4874-21.09375-12.6874-.59999-5.1 1.9125-8.99375 7.8125-11.59375.2 6.60001 3.6875 11.3 10.1875 14 .50001-.1.99375-.2125 1.59375-.3125l-.6875-4.40625c-2.5-3.9-5.2125-7.79375-7.8125-11.59375-10.7-15.50001-22.3-30.89375-35-46.09375-5.6-6.6-12.18125-12.4875-19.78125-17.6875-.1-.100003-.2125-.2125-.3125-.3125-4.49999.5-8.6125-1.30625-12.3125-5.40625-2.00001-3.399998-3.48125-6.8-4.28125-10.5-.3-1.299998-.61875-2.6-.71875-4 1.9-4.999998 1.425-9.7875-1.375-14.1875-.825-.125-1.575-.2-2.25-.1875z" transform="translate(-590.0886 -1.3311)"/><path d="m-434.1896 222.7689c-1.5 1.9-2.5 4.1-2.9 6.7-.6 5 2.6 8 9.5 9-3.8-3.4-4.4-6.3-1.8-8.8-2.6-1.6-4.2-3.9-4.8-6.9z"/><path d="m-489.2896 289.4689c-.5-3.8-2.1-7.6-4.9-11.4-2.1-1.1-4-.9-5.6.7.5 2.3 0 4.7-1.3 7-3.5 2.7-7.5 4.4-12.2 5.3-2 1.8-2.5 3.5-1.3 5.3 3.7.3 6.7 1.2 8.9 2.5l5.8-1.3-5.8 1.3c.9.6 1.7 1.2 2.3 2 2.8 4.4 4.3 8.2 4.4 11.2 2.8 0 5.4-.5 8-1.8 5.4-3 10-6.3 13.8-9.9-4.7-2.2-8.8-5.8-12.1-10.9z"/><path d="m-402.8896 381.5689c-8.9-.101-14.3 3.399-16.2 10.6-1 5.4-.6 9.5 1 12.3.6.9 1.2 1.7 2 2.4 1.7 1.3 4 2 6.8 2.1 4.2.101 9.7-1 16.5-3.5-4.9 4.101-9.6 6.8-14.1 8-.8.2-1.5.3-2.3.5-4.1.601-8.1.101-12-1.7-1.8-.8-3.7-1.899-5.4-3.3-.7-.5-1.3-1.1-2-1.6.4.7.7 1.399 1 2.1 5.6 10.8 12 14.4 19.4 10.7 0-.1 0-.1.1-.2.7-.399 1.4-.8 2.1-1.1.3-.2.6-.3.9-.4 3.8-1.7 7.6-2.3 11.4-1.8-3.8-.5-7.6.1-11.4 1.8-.3.101-.6.2-.9.4-.7.3-1.4.7-2.1 1.1-.1.1-.1.1-.1.2-2.6 8.3-10.3 13.7-23.2 16 13.4 5.1 23.3 2.3 29.9-8.6l.7.5c-.7 3.399-1.7 6.6-3 9.6-3.7 8.6-10 15.7-18.9 21.5 7 1.1 12.7.3 17.3-2.3 4.8-2.7 8.3-7.5 10.6-14.2-.3 8.4-2.9 15.3-7.6 20.7 1.1 1.7 2.3 3.399 3.8 4.899 1.4 1.5 3 2.9 4.8 4.2 3.6 2.5 7.9 4.5 12.9 5.9-6.3.6-10.7 0-13.3-1.7-.6-.4-1.2-.8-1.7-1.1 0 0 0 0-.1-.101-.7-.5-1.2-.8-1.4-1-2.1-.7-3.5-1.2-4.1-1.399-.6-.2-1.3-.301-2.2-.4-2.8-.1-6.9.5-12.5 1.7-7.1 3.2-15.8 5.2-25.8 5.899-2.3-.1-4.3-.6-6.3-1.5-1.9-1-3.7-2.399-5.3-4.1-.4-6-2.1-12.4-5-19.5-1.6-1.2-4.1-1.6-7.3-1.3-1.5-.3-2.5.2-2.8 1.5-.1.1-.1.2-.1.3v.2c5.8 8.7 4.8 12.7-3.1 12-2 0-5.1.6-9.4 1.7-4.4 2.199-5.6 4.6-3.8 7.399l.5.4c.2.399.4.7.7 1.1 0 0 .1.101.1.2 2 2.7 4.8 4.8 8.4 6.1 5.5 2 12.7 2.5 21.7 1.5-5 4-12.8 4.9-23.4 2.5-3.3-1-7.1-2.899-11.4-5.399l-2.6 2.5c4.4 4.7 6.8 9.3 7.3 13.8-.6 3.1-2.5 5.8-5.7 8.4-.1.1-.2.3-.2.5-1 2.8-.3 4.8 2.1 6.1l6.8-.3c3.9-2.3 6-5.3 6-9.3.2 3.899 1.1 6.1 2.7 6.699 3.4.5 6.5.301 9.4-.699 2.6-1.2 5.1-1.5 7.7-.801 3.8-1.899 6.2-4.3 7.1-7.199-.9 2.899-3.3 5.3-7.1 7.199-2.6-.699-5.1-.399-7.7.801-.8.3-1.6.8-2.4 1.3l-6.9 5.8 2.6 3.1c0 .101.1.2.1.2 6.1 1.4 10.5 4.4 13.4 8.9.9 2 .6 3.399-.7 4.1 0 .101 0 .101-.1.2-.4 1.8.7 3.1 3.4 3.5 3.1 1.3 5.6 1.4 7.6.1 4.7-2.899 7.2-7.1 7.8-12.6-2.4-3.5-.9-8 4.4-13.6-5.3 5.6-6.8 10.1-4.4 13.6 1 1.5 2.7 4.2 5.1 7.9 3.8-6.7 7.4-11.101 10.7-13-3.3 4.699-4.6 9.5-3.8 14.199 0 .101 0 .2.1.2v-.2c6.3-6.6 14-10.3 23.1-11-2.9 8.2-10 13.7-21.2 16.601-.1 0-.2 0-.2.1 2.2 6.101 8.1 8.2 17.5 6.3 6.8-2.6 11.3-6.899 13.7-12.8l.6.101c.6-3.601 2.6-6.801 5.9-9.301-3.3 2.5-5.3 5.7-5.9 9.301-.1.5-.1 1-.1 1.399-1.2 13.9 6.7 20.5 23.5 20 .2-.1.5-.1.7-.1-.1 0-.3-.101-.4-.101-.1-.1-.2-.1-.2-.199-6.3-2.9-9.3-7.801-9-14.5l.1-.301c-.2-3.699 2.1-8 7-13 5.2 7 8.1 14.5 8.8 22.4 5.9-9.1 8.3-19.1 6.9-30.2.1.3.2.601.3.9 0 .2.1.399.1.6.5 1.7 1 3.4 1.7 4.9 4.8 11.399 14.5 17.1 28.9 17.1-8.5-5.7-14.5-13.1-18-22.3-.9-1-1.7-2-2.5-3.1.8 1.1 1.6 2.1 2.5 3.1 5.2 5.5 11.9 8.5 20.3 8.7 2.2-.101 4.2-.5 6.1-1.2 3.4-1.4 6.2-3.8 8.2-7.3l-.2-.3.5-.601c-.6.3-1.199.7-1.8 1-3.4 2-6.3 2.9-8.8 2.8-8.6-1.3-13.5-6.8-14.6-16.5.7-7.6 4.1-14.1 10.4-19.199 1.3-1.2 2.7-2.2 4.3-3.2v-.2l.1-.2c.6-5.6 2.1-11.8 4.4-18.5-1 1.7-2.2 3.3-3.5 4.9-.2.1-.3.3-.5.5s-.4.399-.6.6c-2.8 2.8-6.2 5.2-10.3 7.4l-.3.2-.1-.101c-8.1 2.2-16 1.8-23.8-1.1-4-2.3-7.2-6.2-9.3-11.601-.2-.5-.4-.899-.5-1.399-1.3-4.2-.6-9 1.8-14.101 3.5-4.1 8-6.6 13.5-7.699-5.1 5.199-7.2 10.399-6.2 15.8.3 1.2.6 2.2 1.1 3.2 1.3 2.8 3.7 4.899 7.1 6.199 3 1 6.5 1 10.4 0 4.3-1.1 7.5-2.6 9.6-4.6 2.1-2.1 3.1-4.5 3.1-7.4 0-5.3.3-11.899.9-19.8.9-7.6 3.4-15.3 7.5-23 3.9-6.7 9.8-13.399 17.6-20.2.301-.3.5-.6.7-.8 2.3-2.8 3.7-5.8 4.101-9.1.399-3.5-.301-7.4-2.101-11.601-.6-3.1-.8-6-.7-8.8l-1-2.3c-17 1.2-31 6.8-42.1 16.7-4.7-.601-9.5-1.101-14.1-1.3-9-.101-16.8 2.1-23.5 6.6-7 8.3-13.2 13.5-18.6 15.5-.5.2-1 .4-1.5.5-4.8 1.3-8.9.3-12.4-2.9-3.8-3.694-2.5-8.594 3.9-14.694z"/><path d="m-307.2896 335.7689c-1.5.6-2.8 1.4-3.8 2.4-2.1 1.5-3.5 4.1-4.2 7.8 12 .2 19.2 5.101 21.7 14.8.101.101.101.2.2.4.3-4.6 1.601-8.8 3.7-12.7 0-.2 0-.2.2-.3-3.601-5.9-7.8-10.5-12.7-13.7-1.9.2-3.6.7-5.1 1.3z"/><g fill="#d40000"><path d="m-434.8896 28.2689c-.1-.2-.2-.3-.2-.4-5.3-6.7-10.9-9.4-16.9-8.2-4.1 1.3-6.5 3.6-7.1 6.9 5.4-.6 9.4.5 11.9 3.2 2.2 2.5 2.7 5.3 1.4 8.3.1 0 .3.1.5.2 1.1 3.8 3.7 6.5 7.9 8.2 2.8-.6 4.4-2.1 4.8-4.4.4-1.2.7-2.4.8-3.6.3-3.3-.8-6.7-3.1-10.2z"/><path d="m-483.3896 38.3689c-4.8.1-9.6 1.5-14.1 4.3-2.8 2.5-4.6 5.7-5.5 9.7 4.3-2.3 8.7-3.4 13.3-3.2 4.4 1.6 7.2 3.8 8.4 6.8.1.1.2.3.2.4 1.7 1.9 3.8 2.5 6.3 1.9v-.1c2.2-3.7 2.4-7.7.6-12.2v.1c-.1-.2-.1-.3-.1-.5-1.5-3.9-4.5-6.3-9.1-7.2z"/><path d="m-502.5896 82.9689-.4.6c-2.4-.1-4.8.8-7.1 2.4-5.2 4.5-8.6 9.3-10.2 14.4 0 3.4.4 6 1.3 7.9 1.6 3 4.1 4.7 7.4 4.9-1.1-5.5.5-10.2 4.6-14.2 4-1.8 6.7-1.8 8.1.3 5.9-3.2 7.9-7.3 5.9-12.4-1.7-2.2-4.5-3.2-8.5-3-.8-.2-1.2-.5-1.1-.9z"/><path d="m-499.7896 278.7689c-.1-1-.5-1.9-.9-2.7-5.9-1.8-11.9-2.2-18.2-1-6.4 1.1-10 4.4-11.1 9.8-1 5.4 0 8.7 3.2 9.9 1.9-5.2 5-7.9 9.5-8 3.7.5 5 1.9 4 4.3 4.7-.9 8.7-2.6 12.2-5.3 1.3-2.3 1.8-4.7 1.3-7z"/><path d="m-516.7896 316.0689c-1.6-.3-2.6-1-2.9-2.2-5 .7-8.7 3.5-11.1 8.2-1.6 5.4-1.1 10.1 1.5 14.1 1.7 4.5 4.8 7.4 9.3 8.7-1.9-3.8-2.5-8-1.7-12.5.9-3.1 2.8-4.5 5.6-4.4 1.8-.2 3.4-.6 4.6-1.1 2.7-1.3 3.4-3.7 2.2-7-.4-1.9-2.9-3.2-7.5-3.8z"/><path d="m-476.1896 355.1689c-.4-3.8-2.8-6.4-7-7.8-4.3-.601-7.1.8-8.3 4-1.1 4.1-.8 7.8.8 11.1 2.2 5.601 5.7 9.4 10.5 11.5 2.3 1 4.5 1.2 6.7.8 3.8-1 6.4-2.399 7.7-4.3-4.4-.1-7.7-1.6-10-4.5-1.5-3.2-1.7-6.8-.4-10.8z"/><path d="m-307.3896 573.4689c-3 2.8-5 6-6 9.601-1 4.6-1.1 8.899-.2 13 1.6 4.699 5.3 8 11.2 9.899-2.3-3.8-3.1-8-2.3-12.8 2.2-5.2 5.8-8.7 10.8-10.4.101-.3.2-.5.3-.699 1-2.5 1.2-5.2.7-8-1-2.801-2.7-4.5-5-5.2h-.1c-3.5.799-6.6 2.399-9.4 4.599z"/><path d="m-468.9896 455.6689c0-.2-.1-.3-.2-.5-3.6-3-8.2-4.3-13.6-3.8-7.9.6-13.4 2.6-16.4 5.8-3.7 3.7-5.1 7.4-4.2 11.1 5.4-4 11.3-6 17.9-5.899 4.2 2.1 5.4 4.6 3.4 7.399l2.1-.699c-.5.1-.9.3-1.3.5 4.3-1.101 7.4-1.7 9.4-1.7 7.9.7 8.9-3.3 3.1-12-.1-.101-.1-.201-.2-.201z"/><path d="m-456.5896 534.4689c1.3-.7 1.6-2.1.7-4.1-2.9-4.5-7.3-7.5-13.4-8.9 0 0-.1-.1-.1-.2-4.7 5.7-7.1 12-7.1 19 .9 10.301 7 14 18.2 11-4.8-3-6.8-7.3-6-13 1.5-3.5 4-4.699 7.4-3.699h.2c0-.101 0-.101.1-.101z"/><path d="m-506.3896 499.6689c-1 6-.6 11.1 1.1 15.6 2.9 4.7 6.8 7.2 11.5 7.2-2.1-2.6-2.9-5.899-2.4-10.1 1.2-2.7 3.4-4 6.5-3.8 0-.2.1-.4.2-.5 3.2-2.601 5.1-5.301 5.7-8.4-.5-4.5-2.9-9.1-7.3-13.8-7.6 2.4-12.7 7-15.3 13.8z"/><path d="m-277.6896 594.6689c-.4 5.3.3 10.5 2 15.5 1.4 3.3 3.5 5.7 6.1 7.5 4.5 1.7 7.9 2 10.4.7 2.8-1.101 5-2.3 6.5-3.601-4.1.4-7.4-.6-9.7-2.899-2.8-3.601-3.2-7.2-.899-10.7l2.199-2.2.9-.7c-1.6-2.199-3.7-4.199-6.5-6-2.4-.1-4.7.2-7.1.9-1.301.3-2.5.8-3.801 1.4.001 0 .001 0-.099.1z"/><path d="m-228.4896 590.1689h.1c2.4.6 3.9 1.9 4.4 3.8.899 2 1.1 3.9.399 5.601-1.399 3.1-4.3 4.6-8.699 4.5 1 3.1 3.899 4.8 8.899 5.1 6.9-1 10.5-3.9 10.8-8.8.801-5.9.601-11.8-.5-17.8-.1-.2-.199-.301-.3-.301-1.5-1.8-3.2-2.699-4.8-2.8-2.6.101-5.1 1-7.5 2.601-2.399 2.299-3.399 4.999-2.799 8.099z"/></g></g></svg>