<svg height="312.5" width="312.5" xmlns="http://www.w3.org/2000/svg" xmlns:xlink="http://www.w3.org/1999/xlink"><path d="m0 0h312.5v312.5h-312.5z" fill="#003d8f"/><path d="m312.5 156.25v156.25h-312.5v-156.25z" fill="#eee"/><g fill="#eee" stroke="#003d8f" stroke-width=".456863" transform="matrix(.59129 0 0 .59129 18.088327 -120.56658)"><g stroke-width=".21038"><path d="m194.56649 254.19908c-5.58578 1.87078-18.70428-4.53466-18.70428-4.53466l-1.36706-2.74053-.0006-.00003c-21.91232.59105-40.662-16.61601-29.87127-26.79074 1.41784 8.88573 5.23774 16.7152 13.88825 17.0234 2.4095-.24344 4.81902-1.15978 6.0174-2.34527-4.77072-6.98687-7.65715-11.50629-4.89118-14.90419 5.80451 4.95541 8.9176 14.75563 17.41381 14.8662 10.31283.21759 23.18267-19.07862 29.72746-16.84221-2.37321 4.75271-9.45669 10.44744-7.11962 14.25817 5.26726 1.47254 12.14954-12.12762 24.28048-11.86616-4.55023 10.04889-18.11725 12.15765-14.0544 18.97666 12.70328 1.01359 22.44585-21.12042 33.66888-19.16477-6.89669 7.48318-9.41884 8.73014-8.91092 14.64222 4.44476 1.97809 9.96627-9.63629 21.67844-12.36846-3.85866 11.11809-9.46687 9.31661-7.40406 14.91699 8.14052.35753 16.99324-3.54121 14.14281-15.83451 5.61433 1.96138 7.06796 5.97549 6.58131 11.16732 2.55922-.48781 4.93898-2.90448 6.06285-6.98088 7.13817 13.25076-18.89442 31.03056-31.01684 31.40673-10.4379.32398-44.53569-4.75607-50.12146-2.88528z"/><path d="m206.09378 437.59383c-2.41747.0155-4.62764.54992-5.375 1.78125-1.7674 6.9836-7.72352 11.8614-9.6875 14.03126 6.96821 1.26012 15.04189-2.19086 22.8125-12.37501.8513-2.03981-3.72088-3.46341-7.75-3.4375zm-3.53125 2.0625c.27508-.0206.5587-.005.875 0 1.26515.0198 2.29124.22819 2.28125.5-.01.27181-1.04736.48854-2.3125.46875-1.26516-.0198-2.29124-.25944-2.28126-.53125.007-.20386.61224-.37558 1.43751-.4375z"/><path d="m286.43755 435.68758c-1.87895-.014-3.49136.75661-4.15626 2.75.11669 4.83022-8.12977 13.45518-10.09375 15.62501 6.96821 1.26013 15.04189-2.19087 22.8125-12.37501.93647-2.2438-4.42881-5.96924-8.56249-6zm-1.90626 2.0625c.22848-.0268.46448-.004.71876.0312 1.01706.13974 1.77543.7524 1.68749 1.375-.0879.62261-.98292 1.01473-2 .875-1.01707-.13974-1.77542-.75239-1.68749-1.375.0659-.46696.59581-.82579 1.28124-.90625z"/><path d="m176.90627 402.43758c-1.99147-.26723-11.58433 6.97223-10.3125 8.625 6.41866 3.27048 12.85073 8.97668 16.90625 15.5 1.68318-5.90918.0884-13.61115-6.3125-23.96876-.0597-.0886-.14849-.13842-.28125-.15624zm1.875 9.71875c.54913.0403 1.45699 1.01064 2.15625 2.34375.79916 1.52357 1.03298 2.95558.53125 3.21875s-1.54459-.75769-2.34375-2.28125c-.79916-1.52355-1.06423-2.95558-.5625-3.21875.0627-.0329.1403-.0683.21875-.0625z"/><path d="m243.90628 430.84383c-1.87893-.014-3.49134.7566-4.15624 2.75.11668 4.83021-8.12978 13.45516-10.09376 15.625 6.96821 1.26014 15.04189-2.19086 22.81251-12.375.93646-2.2438-4.42882-5.96924-8.56251-6zm-2.71875 2.78125c.42567-.0215 1.00046-.007 1.62501.0937 1.24906.20202 2.23658.60747 2.18749.875-.0491.26752-1.12592.29577-2.375.0937-1.24906-.20202-2.20532-.57622-2.15625-.84375.0245-.13376.29309-.19727.71875-.21875z"/></g><path d="m194.56649 254.19908c-4.03659 1.35205-6.4107 3.97444-6.28434 6.56749 9.0288-4.99663 26.53618 20.53339 31.14383 20.42425 6.84356-2.80122 15.10206-1.76636 24.06967 2.90122 7.63325 3.97301 13.86266 13.77741 24.21076 17.62775 3.66496 1.36367 27.58265 3.80541 42.97192 13.19563 14.55656 8.88233 24.51385 26.34458 15.88056 34.90005-.86125-8.02711-1.96582-12.76135-4.6211-15.40493 5.4526 9.65849.21551 19.31489-.6635 29.60226-.92207 10.79281 8.57979 15.48243 8.40563 20.10772-.18966 5.04009-17.32438 22.88193-28.38399 38.56333-6.10696 8.65885 1.93553 17.32111-4.19988 24.62791-.3014-9.87504-6.72305-10.22967-13.865-10.76227-.83619-3.57998 7.82896-8.92644 15.28377-18.96427 3.90488-5.25773 5.15591-13.10469 7.90544-17.3766 1.02416-5.76039.29892-11.2515-.15716-16.47344-16.84561-6.8262-30.70697-22.70363-32.55385-34.98984-1.23666-8.41033.93591-17.00015 6.51827-25.76892-6.44556 6.2294-8.46674 14.98813-8.45159 25.16586-9.84852.0227-46.49419 22.65311-49.20555 15.80002-.34069-10.04929-.696-17.04781-3.955-20.16149 2.64027 3.8323 3.07103 19.01414 1.62904 20.64864-4.74055 5.96546-5.01256 14.31407-4.35717 23.15735.84167 6.11571.56142 11.55878-2.18629 15.5212l.11161 30.81634c.4006 3.87798 1.65345 6.46802 4.49462 9.48423-3.85436-.65671-8.9694-4.65163-10.88223-5.13017-2.2817-.57095-3.69641.48375-6.95633.28573-.11748-2.64524 1.96334-5.69395 5.43483-7.26219l-.69639-27.83904c-2.53481-6.89514-4.40756-18.14115-2.99415-22.16467-6.82634-10.65811-11.85262-25.80235-14.3498-38.30707l-1.13603.23535c1.02847 7.23985 3.04885 14.70277 6.05709 21.44778-1.69496-1.27647-5.58117-7.22208-6.9835-12.12983-.57839 1.15573.002 5.85309-.60397 5.17392-5.29125-5.9276-6.03987-10.80391-4.6438-17.17924-2.96544-.41587-5.1234 1.85983-7.28121 2.386-.0942-5.58103 5.32924-5.10604 4.15837-13.51309-2.64393 2.24385-4.88413 2.46902-7.93178 4.71287.67433-4.09441 5.2516-7.24676 5.92603-13.09055-4.48261 1.64027-6.13891 5.03006-9.81394 6.13215-.51521-4.94027 10.67796-18.49356-.60345-15.62826.40113-2.92784 1.30493-6.73065 2.60255-8.90139 2.1628-3.61797 4.4633-5.33537.33769-10.21508-3.16176.96986-4.78886 13.03051-7.878 16.5655-.45634-1.43769-.91255-2.87537-1.7725-3.50545-2.49304 1.03748-3.37113 10.28424-5.32574 12.53295.23757-7.71107-3.85958-14.25504-3.95852-20.05982-.1013-5.94303 4.07652-10.46125-1.93254-18.06333-3.85097.0681-5.88546 5.40195-10.02033 6.09457-1.37816.23079-3.52829-1.63883-4.98005-1.38051-1.15665.0897-2.44787-.31393-5.08491 1.61521-1.90956.54171-.28403-1.1308-1.44512-1.77511-2.86531-1.24946-3.57646-6.67608-.4382-18.00641 2.64903-5.62736 20.68664-14.08065 50.75095-16.77497"/><path d="m126.84593 278.39432c0 2.18219-1.07707 3.95324-2.40418 3.95324s-2.40419-1.77105-2.40419-3.95324c0-2.18218 1.07708-3.95323 2.40419-3.95323s2.40418 1.77105 2.40418 3.95323z"/><path d="m144.13953 363.4052c.26524-5.55741 20.92472-14.56665 33.917-18.08773.59875 5.61695 3.15849 11.01029 7.79198 15.36458.87156-.81413.6601-2.30846.77419-2.48416.40935 1.35949 3.11776 6.17548 4.84743 7.36137-3.41199.95172-8.57076 2.84444-12.36653 2.45636-3.65151-.37319-6.00593-1.0205-7.14665-1.04661-2.91635-.44341-4.05094 2.04049-6.71278 1.46993-5.47425.37463-7.93625-2.31577-9.6769-5.20744.16212 2.67187 2.07129 3.72161 4.40547 6.44754 1.80148 6.96678.41718 19.94157 4.64145 23.95804 4.30039 4.0888 14.83751 2.96009 15.44747 6.92189-6.03503 2.12115-11.34875 5.98166-15.68646 11.83604-.65358-.35048 1.42489-6.79263-.92352-10.18726-6.6851-9.66382-19.44659-35.53847-19.31226-38.80246z"/><path d="m255.75659 356.2271c1.8871-2.8665 11.25895-5.92512 16.49029-6.88063.58844 6.48419 4.69395 12.83226 10.18897 19.29426 9.54607 11.22589 20.47076 15.00991 19.76142 19.16164-.1877 3.51302-20.12236 12.75899-26.36138 18.6609-9.70232 7.71121-21.87134 18.6126-21.51225 23.20266-.18471 5.80188 5.70896 7.61133 5.50183 9.32209-6.70311.58387-6.89629-4.84835-10.63394-5.67332-3.75672-.82914-8.706.84455-8.99422-2.42372 6.08554-7.6257 12.60197-13.1518 19.64289-20.19507 7.28121-7.28355 17.57503-22.48549 16.56863-26.24368.4613-6.30681-19.25563-8.91171-20.6522-28.22517z"/><path d="m163.32466 256.25489c0 .49511-.57277.89693-1.27851.89693-.70573 0-1.2785-.40182-1.2785-.89693s.57277-.89694 1.2785-.89694c.70574 0 1.27851.40183 1.27851.89694z" fill="#003d8f"/><path d="m188.35113 260.19764-11.48699-7.0459c8.58093-6.7364 18.94244-10.26296 26.22839-9.22852l-14.7414 16.27437z" fill="#eee" stroke="none"/><path d="m176.86423 253.15184c8.58094-6.73641 18.94244-10.26297 26.22839-9.22853l-14.79505 16.2415"/><path d="m180.74984 257.52312c6.15227-5.18082 13.59966-9.71397 22.34269-13.5999"/><g fill="none"><path d="m249.72096 422.17926 16.02825-15.54291"/><path d="m288.09212 394.97955c1.94285-2.1047 7.28568-7.12368 11.65705-9.22852"/><path d="m198.23552 371.66547 4.37143 5.8284"/><path d="m202.53787 385.67169 2.06438 6.04254" stroke-width=".326331"/><path d="m205.49835 404.37814 1.2424 3.63648" stroke-width=".326331"/><path d="m171.52118 292.98031c1.98317-.84989 4.27885-3.94429 8.19274-4.71715 3.62045-.71493 8.74644-7.33449 12.20715-13.25412" stroke-width=".913725"/><path d="m131.2073 282.29467c2.55099-2.97223 5.14127-5.2388 7.77139-6.79995"/><path d="m281.7779 357.57955c1.55412 3.21658 2.07207 6.08739 7.7714 10.68565"/><path d="m275.34671 355.43551c1.89703 2.67357 2.72878 4.43014 7.57127 9.0284"/><path d="m321.12024 389.63651 6.31424-7.28541"/><path d="m306.54898 400.80795 2.91443-2.42862"/><path d="m307.03482 393.52209 2.42859-1.45697"/><path d="m151.12147 278.89441c6.97106 5.61525 9.32158 4.59122 10.68564-1.45713" stroke-width=".326331"/><g stroke-width=".169692"><path d="m150.94344 286.62464c1.15247 2.22023 4.41108 5.07068 7.26854.0482.62055-1.0906 2.24073 3.56066 3.51916 2.43299.99622-.87887.81974-3.93424 1.99727-5.03816"/><path d="m165.07433 257.89197c1.39056-.26915 1.97378-.60567 2.69158-2.48977"/><path d="m248.74931 299.29453-.97116 4.37142"/><path d="m236.60669 319.6942c1.45714 0 2.91427-2.91426 4.3714-4.3714"/><path d="m173.55286 275.3201-.40386 1.88385"/></g></g></g><g fill="#ffcd50" stroke="#003d8f" stroke-width="2.999996" transform="matrix(-.06656032 0 0 .07407325 138.012557 74.20912)"><path d="m299.7823 662.53246c-26.77087 6.52894-34.92144 30.01358-32.23622 51.08485 6.88772 54.04863 35.51975 120.89322 35.51975 120.89322s5.70449 18.48276-7.29009 30.49213c-12.99452 12.00938-28.75743 30.98752-41.16092 44.4786-10.26343-7.77821-15.03231-18.55651-26.29526-13.10792-11.26299 5.44865-9.09803 7.30296-6.98744 14.1584 2.11059 6.85542 4.09288 3.31397 15.48276 13.33796 11.38989 10.02393 21.5324 14.10119 21.5324 14.10119s19.64978-31.83313 36.21313-48.78497c29.77836-30.47677 36.64404-49.49899 36.64404-49.49899s-10.5199-50.4445-14.23691-68.26821c-3.71702-17.82371-8.05653-38.6324-8.05653-38.6324 0 .00005 21.89488 1.75149 40.95759 3.97568 12.15553 1.41834 33.76768 1.11142 50.79184.82036-1.91603-5.49509-3.06022-10.2608-3.78829-13.75195-2.71763-13.03152-5.95978-40.54533-11.15602-63.20436-22.01292-4.24238-36.96858-1.29087-73.22529.17648-4.61076.18661-8.88416.79724-12.70854 1.72993z"/><path d="m20.826438 425.33219c-4.692781-.76879-7.667284-2.89301-10.346324-1.65346-1.1989797.55476-.712982 12.88837.194862 19.18213 5.209433 9.42217 14.77707 11.07657 14.77707 11.07657-.000049.00005 36.76493-1.57747 63.551105 2.80063 23.142689 8.03569 58.087219 10.26685 72.854539 10.87639-.79478-9.53088-.31257-18.81742 1.87987-27.39239-16.38514 5.98978-40.27458 10.99643-76.268996.49874-21.866755-.82371-9.940002-1.66187-36.043624-1.80314-5.6824-.0307-18.000945 1.22513-20.985852-.24159-7.106528-2.50371-4.018422-7.42452-9.61265-13.34388z"/><path d="m400.76387 549.36991c13.86788 21.90642 44.14978 72.82773 59.74929 88.17342s12.06112 28.10678 12.06112 28.10678 74.78303 49.00094 90.38254 64.34663c15.59957 15.34569 53.71952 74.71623 66.11377 78.29881 27.00365 21.20075 60.74923 15.04142 74.00045 4.26251 15.07339-12.26112 33.92537-48.12466 33.92537-48.12466s-15.09187 46.54473-31.67652 56.20297c-16.58478 9.65825-48.00129 17.86966-81.57266-4.68723-26.77493-17.99027-39.12572-53.83681-69.08566-78.58699-29.95999-24.75017-82.28863-55.26306-82.28863-55.26306s1.13523 7.24679 7.94978 39.92364c6.81455 32.67678 2.37087 20.07602 5.10803 35.00424 2.94714 16.07348 80.14309 77.25353 80.14309 77.25353l18.21948 117.0931s-30.19884 18.69705-46.91043 12.88274c-16.71166-5.8143-1.98545-24.38449-1.98545-24.38449l20.79433-4.33653s-6.195-29.7062-6.32188-45.17879c-.12694-15.47258-4.46344-36.26693-4.46344-36.26693s-44.70935-22.95827-69.2207-36.44547c-14.53242-7.99633-43.27574-31.10139-60.89876-53.81423-12.10102-15.59615-16.18345-31.58612-17.94897-40.0518-3.04921-14.6216-10.12558-49.73806-12.52396-73.24091-.61897-6.06561-.98036-8.25068-1.06959-12.23031-3.10106-4.14588-6.83971-6.62586-9.20115-8.96907-14.44971-14.33817-78.98276-51.72453-102.87463-62.24113-23.89182-10.51653-88.26021-21.89138-102.25499-59.27044-13.99483-37.37904-20.93625-85.52841 8.02349-110.16672 28.95982-24.63826 70.54847-33.31132 80.44557-60.17378 9.89704-26.86245 17.18633-48.91222 8.74377-71.85735-8.44263-22.94513-22.6285-20.18772-41.9611-22.13529-17.33114-1.74595-26.13837 3.80371-48.36981 2.64027-22.38883-1.17167-14.78354-3.0862-30.76764-6.47372-7.844-8.14811-10.10108-9.07005-12.15178-18.69431 5.02118-5.55926 6.5504-4.62493 20.50487-10.58168 16.41728-7.00806 26.7238-10.55766 44.09067-17.08755 17.96415-6.75446 33.5015-15.12126 48.19678-21.96672 16.50436-7.68816 35.19539-18.52962 56.11654-7.39357 20.92122 11.13609 28.72097 18.80895 31.81851 33.66203 3.09753 14.85313-7.41906 38.74493-4.32146 53.59807 3.09753 14.85307 9.29254 44.55928 8.30733 69.56321-.98526 25.00394-37.98355 85.41656-30.6764 105.59141 7.30722 20.17479 83.57308 103.46403 93.85083 123.01937z"/><path d="m298.97143 328.81268c28.51214 1.95625 44.50389 1.40732 42.33503 9.77016-2.36253 9.10967-14.82031 7.60351-45.48849 4.83663-24.82901-2.2401-48.64882-6.26576-44.50337-20.1673 3.92167-13.15131 17.21245 3.47171 47.65683 5.56051z"/><path d="m204.18042 453.9744c-2.22425 19.06273-51.85142 63.51009-51.85142 63.51009s-40.09587 45.55949-53.090432 57.56886c-5.194831 19.68222 8.116972 46.35439 5.273272 62.44646-2.8437 16.09209-10.580011 16.15556-7.482483 31.00869 3.097513 14.85307-8.475226 18.81638 6.377903 15.71886 14.85308-3.09752 15.96516-12.62882 21.77948-29.34046 5.81434-16.71159-5.45608-48.45913-6.20253-66.90239-.74639-18.44322 37.1887-37.20368 37.1887-37.20368s19.2399-21.0091 49.67211-41.35224c13.55471-9.06099 44.55993-22.40841 50.94823-26.12875 14.57678-8.48889 21.07711-12.68621 34.44373-46.07251 5.86992-14.66165-11.86942-31.48079-11.86942-31.48079"/><path d="m294.27596 145.57242c11.04799-.099 10.60903 17.85338 11.13153 30.96907.52256 13.11568-1.87588 33.45254 7.93197 38.02031 9.80798 4.56769 30.75964-19.04718 28.55628-29.60839-2.20336-10.5612-6.95137-31.1356-6.95137-31.1356l-26.36342-7.36801z"/><path d="m140.05168 234.34138c10.64982-2.01615 10.10927-8.75971 9.78008-15.53712-.2237-4.60551-4.18938-4.99787-4.18938-4.99787l-12.21252 6.53463s1.54079 9.51781 6.62182 14.00036z"/><path d="m144.03281 238.64774c18.37436 5.63069 41.33626 5.97324 53.17785 3.30661 25.72288-5.79257 58.84449-3.20515 64.23654-.31905"/><path d="m233.21011 197.39252c-1.55795-4.10688-1.00349-8.79851 1.61958-10.59056 3.06382-.63894 6.66629 1.10226 11.40817 2.64049 4.45337 1.44463 10.04222 2.64498 13.21966 3.4836 6.56073 1.73163-6.06762 4.47448-13.6519 4.65077-6.87353.16618-8.03073.57578-12.59551-.1843z"/><path d="m279.27285 140.55548c-4.73543.0382-9.0157.34528-9.0157.34529-.00006 0 1.57129 1.55813 4.69964 2.34024 3.00589.75148 3.12221 15.61501 3.12675 16.80374 3.23092-.45689 6.49616-.61414 9.82136-.30692 1.84218-6.07488 4.64232-14.13739 6.59873-14.13739l-.23019-.0192c.44381-.004.85833.0239 1.26604.0767l12.12324.72893-.63305-2.35943s-13.30917-2.34462-19.56599-3.12672c-2.34632-.29329-5.34963-.3682-8.19083-.34529zm16.26663 5.10251-1.03585-.0576 6.25344 3.12672c-1.29789-1.68657-2.99919-2.78169-5.21759-3.06917zm9.11158 16.13235c.0922.90005.16438 1.82063.23019 2.74307-.066-.92393-.1375-1.84243-.23019-2.74307z"/><path d="m267.9169 140.90077c-3.91056 1.5642-5.467 22.67353-5.467 22.67353l.28777.44119c5.01215-1.68261 10.11391-3.2309 15.34587-3.97074-.005-1.18873-.12086-16.05226-3.12675-16.80374-2.70953-.6774-4.18206-1.88085-4.54618-2.20597zm36.73416 20.88957c.0927.90064.1642 1.81914.23019 2.74307-.0658-.92244-.13799-1.84302-.23019-2.74307z"/><path d="m237.81032 244.36973c18.77055 1.56421 16.81052 4.46357 25.41369 2.11725 8.60314-2.34632 18.77058-11.7316 18.77058-11.7316"/><path d="m294.50363 145.60044c-3.12853 0-8.59369 21.11976-8.59369 21.11976l19.31659 4.83395c-.29298-8.6382-.79578-18.05311-4.46946-22.82699z"/><path d="m383.53912 639.584c-.85967 6.10245-2.05393 3.03761 1.34163 16.68621-11.77973-13.92658-13.38327-13.87149-18.02504-18.95649-6.89218-7.5503-20.28276-11.51621-18.90763-16.12707 1.42979-4.79412 12.56703-2.31862 22.38682 5.23215 3.18695 2.45056 11.52441 8.58643 13.20422 13.1652z"/><path d="m241.20765 191.59477c.3851 1.83575-.66824 3.60706-2.35263 3.95626-1.68443.34922-3.36214-.85588-3.74723-2.69163-.3851-1.83576.66824-3.60706 2.35267-3.95628 1.68439-.34921 3.3621.85589 3.74719 2.69165z"/></g><g fill="#ffcd50" transform="matrix(103.4365 0 0 103.4353 145.385117 -1.28968)"><path d="m.56613555.61125903-.00016803-.00016802-.00016807-.00008409-.0001681-.00016806-.00016808-.00008401-.00016805-.00008405-.00025209-.00016808-.0001681-.00008402-.00008402-.000084h-.00008405l-.00008404-.00008405-.00016803-.0000841h-.00008404l-.00008403-.000084h-.00008401-.00016812l-.00008405-.00008402h-.00008403-.00016804-.00008403-.00016805-.00008405-.00016811-.00016806-.00008401-.00016807c.004538.0115967.012185.0218489.0163867.0336978.001513-.001513.001849-.003277.001849-.005462.004286.004286.00605.0112606.0112606.0131093.001513.00025213 0-.003109.00058824-.00521 0-.0005882.00092439-.00092441.001176-.0005882.001513.001849.002773.004286.004622.004538.003025.00092434.00058821-.003613.00058821-.005798.003277.00092437.006051.006723.009664.003697.00033611-.00033607.00033611-.00126 0-.001849-.009664-.008488-.0166388-.0178993-.0273112-.0257986-.005126-.003613-.0100001-.00605-.0154623-.009076z"/><path d="m.550085.59512445.0005882.00016805.00067228.00025209.00058826.00016806.00067229.00025213.001176.00042015.001177.00050422.001176.00050422.001092.00058823.001176.00058825.001092.00058821.001008.00058826.001092.00067231.002101.00126.002101.001261.001092.00067228.001092.00067227c.0145379.009076.0260507.0200002.0382357.031849.006975.006387.014538.0139498.0248742.014622.002437-.004874-.003613-.008824-.006387-.0125211.002773.001849.005462.003697.007899.005798.001513.001176.004286.0005882.006135 0 .002101-.00058827 0-.002101-.00033614-.002689-.008235-.0155464-.0246221-.0210087-.0385718-.0294962.014622.00395.0276474.0127733.0394962.0233616.002101.001849.00605.002101.009412.00058823.00025218-.00025207.0009244-.00084035.00058826-.001177-.006723-.0103362-.0169749-.014874-.0273112-.0212607-.0009244-.00058821-.001513-.001849-.002773-.001513.00058821-.001176-.001176-.00092437-.001176-.001849.0105883.004874.0203363.0109245.0300843.0182355.001176.00092437.003361.00058824.00479.00033613.00067232 0 .001261-.00058823.00092442-.001261-.001765-.002689-.004538-.004874-.007311-.006639-.007227-.004874-.0139497-.008824-.0218489-.0127732-.001177-.00058826-.002101-.001513-.003277-.002773.00874.002773.0157985.008572.0245381.0112606-.006975-.007311-.0160506-.0118488-.0261348-.0136135-.0126892-.002437-.0242859-.006723-.0360507-.0115968-.001261-.00025209-.002773-.001765-.004286-.002353-.004538-.002773-.009748-.005798-.0139497-.009496l-.01546.0158007z"/><path d="m.29344371.33579408-.00042016.00008401-.00050421.00008406h-.00050417-.00058828l-.00050419.00008402h-.00058821l-.00058827.00008404h-.00058828l-.001176.00008402-.001261.00008409-.00126.00008402-.00058827.00008404-.00058823.00008402-.00067225.000084-.00058828.00016809-.0005042.00008404-.00058821.00016803-.00058825.00016814-.00050424.00016802-.00050417.00025212-.00050422.00016803-.00042014.00025216-.00042022.00033613-.00042015.00025207-.00042019.00033618-.00033612.00042014-.00025208.0004202-.00016811.00016805-.00008403.00025208-.00016805.00016807-.00008405.00025215c.006723.006387.0131094.009412.0200842.0152102.004202.00395.0157985.0118488.019412.0160506.006639.007899.0127732.009748.0175632.0188237.00033616.00067227.003697.006387.00395.006975.002437.003698.003361.007311.004622.0112606-.002185-.002101-.003697-.004538-.005462-.006639-.005798-.008235-.0149581-.003361-.0179834.00092437.00916.001765.024286.0130254.02916.019412.00126-.004538-.00092438-.0154623.003025-.0167229.00092444-.00025207.0006723-.003361 0-.004874-.002437-.005714-.006639-.0105884-.0102522-.0160506-.004622-.006051-.009748-.0106724-.0136976-.016975-.004286-.007059-.006723-.0142859-.0112606-.0204203-.007563-.0105884-.008151-.0139497-.0227734-.0118489z"/><path d="m.33109115.36923978.00075632.001008.00075631.00092438.001429.002017.00067224.00092435.00075632.00092444.00075631.001008.00075632.00084033.00075631.00084035.00042017.00042015.00042014.00042019.00042025.00042014.00042015.00033617.00042018.00042015.00042015.00033617.00042017.00033613.0005042.00033609.00042016.00025217.00050421.00033608.00050422.00025212.00050419.00025213.00050422.00025207.00058826.00016806c.0005882.00067229.0005882-.002437 0-.003613-.002773-.012185-.008824-.0212607-.0154624-.0319331-.005546-.008487-.0110085-.0157144-.0185716-.022101.0118488.008487.0200002.0209245.0273113.0333616.003361.005462.006723.0106724.008824.0167229.001849.004286-.00033612.008824.002101.0127732.00092437-.005462.00521-.008487.003361-.0127732-.006975-.0154623-.0136976-.0303365-.0206725-.0455467-.0105883-.0200842-.0312608-.0294961-.0515971-.0334457-.002689-.00058823-.0106724.001261-.0133615.003109.0115127.0111766.0285718.0205884.0406727.0318491.00521.005126.0100001.0124371.0124371.0188237.002185.00521.005462.009748.008235.014538.00092437.001849.002101.003698.003613.00521z"/><path d="m.34966277.36344142.00008404.00025209.00016811.00033614.00016806.0002521.00016804.00033614.00016806.00033616.00016807.0003361.0001681.00033616.00016807.00033615.00033612.00075631.00016804.00033614.00025215.0003361.00016807.00033614.00016805.00033614.00016804.00033617.00016813.00033612.00016804.00025209.00008405.00033618.00016806.00025207.00008402.00008404.00008402.00016804.00008404.00008401.00008401.00008409v.00008407l.00008406.00016804.00008406.00008403.00008405.00008403.00008401.00008403v.00008402h.00008404l.00008403.00008401h.00008401.00008405v-.00008401h.00008401v-.00008402-.00008403-.00008403-.00008403-.00008401c0-.001849 0-.005798-.00084033-.008235-.00521-.014538-.009496-.02916-.0161346-.0431097.003025.00605.005462.0124371.008824.0184876.002101.004034.003277.008235.005714.012185.0006723.00058825 0 .001513.00033617.002437 0 .00058827.00092438.00092439.00126.001177-.00033612-.0148741-.003109-.0297482-.004622-.0446223-.0160505-.0166388-.0278994-.0394962-.0506727-.0482358-.002185.00395.001513.007227.003361.0102522.00874.0167229.0227733.0294961.0294121.0471433.004538.0124371.00916.024538.0145379.0367231.001513.003025.002773.00605.004622.009076z"/><path d="m.33630127.26873458.001261.002185.00126.002185.001177.002185.001092.002185.001092.002269.001008.002185.00092435.002269.001008.002269.00084034.002269.00084031.002353.00084039.002269.00075631.002353.00075632.002353.00067224.002353.00067227.002353.00067228.002437c.004538.0175632.002689.0352104.008151.0521854.00126.00395.005798-.001176.006134-.003025.001765-.0112606.002101-.0225212-.00126-.0334457-.001849-.00605-.003614-.0118489-.005462-.0178993.005798.008487.006387.0188237.0112606.0273953.003277-.00916.00084035-.0185717.002101-.0279835-.00033615.002437-.002101-.0154623-.001513-.0127733-.00058825-.003613-.003614-.006639-.006051-.009412-.0115127-.012101-.0215969-.0246221-.0361348-.0327734-.00033613 0-.00126.00092435-.00126.001176.001597.007647.00521.0133615.00916.0200843z"/><path d="m.37117561.34613031v.00042018l-.000084.00033614v.00033616.00042015.00033611.00033618.00042013.00033619l.000084.0003361v.00033615l.00008402.00042017.00008406.00033612v.00033616l.00008402.0003361.00025215.00067229.00016806.0006723.00025209.00067229.00025207.00067222.00025216.0006723.0003361.00067228.00033611.00058827.00033619.00067226.00033608.00058822c.00025215.00033617.001513.00033617.001513 0 .005126-.007899.004286-.0163867.005126-.0248742.002437-.0178994 0-.0355466-.00025207-.053698.002353.0233616.00479.0467231.003866.0700847.003361-.0112606.005546-.0100001.00916-.0397483.001513-.0106724-.003025-.0225212-.006387-.034034-.002437-.007899-.007227-.014538-.012101-.0212607-.001597-.001765-.00521-.00605-.006387-.003277-.001513.003025-.001261.007227.0002521.0105884.007647.0194119.007311.0404205.005798.0604207-.00058829.008235-.002437.0163867-.003361.0248742z"/><path d="m.39638595.29881889-.00016805.003361-.00016808.003445-.00033617.003361-.00033608.003445-.00042023.003361-.00050416.003361-.00050423.003361-.00058826.003361-.00067222.003361-.00075631.003361-.00075632.003361-.0009244.003277-.00084033.003361-.001008.003277-.001008.003361-.001008.003277c-.00058827.00092436.005126.001849.00605-.00058827.001849-.004286.003025-.007899.004538-.0118489.002185-.007311.002773-.0148741.00395-.0224372.00092433-.005462-.0009244-.0103362-.00058824-.0157985.002437.002437.001849.005714.002101.008488.001261.0121009-.001176.0239498-.002689.0363869 0 .00033613.00092434.0009244.001176.0006723.003698-.003025.007899-.005798.009412-.0100841.002185-.005126.003025-.0111766.002437-.0166388-.00092438-.0133615-.002689-.0288238-.0136136-.0379836-.00033611 0-.00126.00058821-.00126.00092438-.00033617.002101-.00033617.004286-.001176.00605-.0009244.002773-.00033614.005798-.00033614.00916z"/><path d="m.40159606.35310519.00008407.00008404.00016802.00008402.00008408.00008402.00016807.00016808.00008402.00008402.00008404.00008403.00016808.00008403.00008404.00016811.00008399.00008403.00008406.00008401.00008408.00016809.00008401.00008402.00008401.00016806.00008405.00008401v.00016812l.00008401.00008402.0001681.0002521.00008399.00025208.00008406.00033616.000084.0002521.00016811.00025212.00008404.00033615.00008402.00025208.0001681.00025209c.00058821.002185.005126.002185.00605.001261.009076-.008824.0175632-.0154624.0184875-.0278994 0-.00067231.00092439-.001597.00092439-.002437.00092437-.006135.00092437-.0152103-.002101-.017059-.001849-.00092437-.003109.00395-.00395.006135-.002773.007227-.005462.0142018-.009748.0209245-.003361.005462-.009076.008488-.0136977.0139497-.00025207.00033618.0009244.00092439.001597.001177z"/><path d="m.42184837.35134043-.001176.001261-.001261.001176-.00058818.00058826-.00058828.00067229-.00058826.00058823-.00058823.00058825-.00058822.00067225-.00050424.00058826-.00058819.00067224-.00050422.00067227-.00042021.0006723-.00050418.00067231-.00042018.00075632-.00042016.00067226c-.002773.004622.002689.006471.005462.009748.0118488-.0139497.0136976-.0109245.0197481-.0169749.006975-.006975.007563-.0178993.003613-.0270591-.008824.00605-.0127732.0161346-.0200842.0240338z"/><path d="m.35663767.37470203v.00025213.00033613l.00008401.00050417v.00058824l-.00008401.00058827v.00058827.00050416.00058824l-.00008403.00050424v.00058821.00050424.00025207l.00008403.00025208v.00025217.00025207l.00008401.00025208v.00025216l.00008405.00025207.00008401.00025208.00008405.00025208.00008403.00025216.00008402.00016805.00008403.00025209c.00092441.001849.002101.005462.003025.004538.002773-.003277.006387-.006639.006135-.0124371 0 0 .00084031-.001513.00084031-.002101.001261-.005462.00033617-.0103362.00033617-.0163867-.004874.001513-.006387.00605-.008824.009412-.001849.002689-.002101.005462-.002101.008488z"/><path d="m.36941092.3731894-.00008407.00008407v.00016806l-.00008403.00025206-.00008402.00033615-.00008405.00025214-.00008407.0002521-.00008401.00033609-.00016807.00033615-.000084.00025212-.0001681.00033612-.00016805.00025215-.0002521.00067224-.00016806.00025212-.00008407.00033612-.00016805.00025215-.00008403.00025207-.00008403.00033613-.00016808.00025213v.00025207l-.00008406.00008406v.00016806l-.000084.00008401v.00008402.00016813.00008402.00008402.00008406.00016805.00008402.00008401l.000084.00008404v.00008403h.00008406v.00008409l.00008401.00008401.00008407.00008406h.00008403l.00008403.00008402h.00008402l.00008403.00008404h.00008407.00016806.000084l.0001681.00008401h.00016805c.003614-.00033613.007899.001513.008824.005378.00058823.002185.00084035-.00058825.001765-.00058825-.001513-.00874-.00058821-.0184876.004874-.0263868.00092438-.001176-.00058825-.003361-.00126-.003025-.007815.001513-.0124371.0100001-.0132774.0173111z"/><path d="m.38487322.36318926-.00033611.00058826-.00033619.00067231-.0003361.00058823-.00033612.00067226-.00025214.00058827-.00025208.00058824-.0002521.00067227-.00016806.00058823-.00025213.00067228-.00016805.00058827-.00016807.00067229-.00008403.00058816-.00016805.00058829-.00008409.00067228-.00008403.00058826v.0005882l-.00008402.0006723v.00058823.0006723.00058819.00058828l.00008402.00058826.00008403.00067224.00008409.00058824.00008402.00058824.00008403.0006723.00016804.0005882.00016809.00058826.00016804.00058826.00016811.00058824.00016806.00058821.0002521.00067229c.00092436.002101.00521.001513.00521-.00067229 0-.007899.003025-.0157985.0100001-.0209246.001513-.001261-.00067231-.00395-.002773-.005126-.00058826-.00033614-.001177-.00033614-.001765 0-.003698.001765-.006723.003613-.008824.006975z"/><path d="m.39882295.36495405-.00058823.00075627-.00058829.0006723-.00058818.00075632-.0006723.00067228-.00058826.00075632-.00058823.00067224-.00033614.00042018-.00025207.00042021-.00033619.0003361-.00025207.00042021-.00025211.00042014-.00025213.00050422-.00025207.00042012-.00025212.00050426-.00016805.00050418-.00025213.00050419-.00016806.00050426-.00016808.0005882-.00016804.00058826-.00016804.00058822-.00008406.00058824-.00016809.0006723-.00008402.00067226v.00075631l-.00008406.00075632v.00075631c.002437-.00395.005798-.0105884.0100841-.0130253.001765-.00092442.00395-.00126.005462-.003109.0008403-.001176 0-.003025-.001513-.003277-.003109-.00092443-.00521.002101-.006723.004202z"/><path d="m.40336078.37108855-.00042015.00025208-.00050419.0003362-.00042014.0003361-.00050425.00033612-.00042015.0004202-.00042021.00033611-.00033611.0004202-.00042021.00033612-.00042014.0004202-.00033617.00042015-.00033611.00042018-.00033616.00033613-.00033614.00050419-.00033608.00042017-.00025216.00042022-.00033613.00042015-.00025207.00050422-.00025212.00042015-.00025212.0005042-.00016803.00042015-.00025212.00050424-.00016811.00042014-.00025207.00050423-.00016806.00050425-.00016807.00050415-.00008405.00050423-.00016808.00050416-.00016806.00050424-.00008401.00050423-.00008404.00050416-.00008402.00050424v.00050423c0 .001176.002101.00058821.002941.00025208.003109-.001176.006471-.003613.008908-.006303.002689-.003109.005126-.00092437.006303-.003361.00092442-.001513.00092442-.00521-.00058821-.005798-.003361-.002101-.005714-.00058822-.008824.001261z"/><path d="m.4294955.36587844-.00042014.00033608-.00042019.00025212-.00042014.00025213-.00042023.00033614-.001008.00058824-.00092437.00058821-.001092.00067228-.001008.00067228-.001008.00058828-.001092.00067228-.001008.00067224-.001008.00067224-.001008.00075631-.00092436.00067231-.00042014.00033613-.00042022.00042018-.00042014.00033614-.00042019.00033616-.00042014.00042015-.00033618.00033612-.00033612.00033616-.00033612.00042015c.001849.001177.004874.00025215.005798.002689.00025208.00092435.00084034.001513.001176.002437.001176.005126-.003613.009748.00025208.0142859.002773-.003361.008572-.007899.0110085-.0115127.002101-.003025.005126-.005798.007899-.008235.004202-.003697.0160506-.006975.0190758-.012185.002437-.004202.003025-.009076.004286-.0142018.0002521-.001849.002437-.004874.0002521-.00521-.003277-.001176-.014538.004874-.0175632.006975-.006387.004622-.0109245.009748-.0173111.0142859z"/><path d="m.46655469.37587852.00025215-.00016808.0002521-.0002521.00016806-.00025212.00025212-.00025206.00016806-.00025213.00016807-.00025213.00016806-.00025205.00016805-.00025214.00016811-.00033613.00016809-.00025208.00008401-.00033615.00008401-.0002521.00008404-.00033617.00008402-.00025212.00008403-.00033609.00008403-.00025214v-.00033611-.00025209-.00025212-.00025211-.00025209-.00025211l-.00008403-.0001681-.00008403-.00025208v-.00008402l-.00008402-.00008402v-.00008403l-.00008404-.00008407-.00008401-.000084v-.00008405l-.00008401-.00008406-.00008407-.00008403h-.00008402l-.00008409-.00008403v-.00008403h-.00008402l-.00008403-.00008401h-.00016806-.00008402-.000084c-.007311-.001849-.0203364.006303-.0260508.0109245-.006471.005126-.0170589.0139497-.0167228.0209246 0 .002437.006639.00033608.009664.002101.001261.00092442.00092437.002773 0 .004622.003025.00092437.006387.00025207.00916.001513.001849.00058821.00058823.003277.001513.00479.00058823.00067225.004202.001849.004538.00092437.00521-.01.0203364-.0233615.0300843-.0285717.003614-.001765.003361-.0102522 0-.0111766-.0109245-.002773-.0267229.0118489-.0306725.0224372-.00092437-.0105883.0139497-.0188238.017311-.0212607z"/><path d="m.46840349.39688713-.00058824.00050417-.00058825.00050424-.00050419.00050421-.00050419.00042016-.0005883.00050426-.00050416.00050416-.001008.00092439-.00092439.00092437-.001008.00092438-.001008.00092442-.001008.00092438c-.002101.002101-.003361.00521-.00395.007563-.0009244.002773-.006723.00916-.004286.0109245.001513.00092439.00395 0 .006134.00033613.001513.00058826.001513.003025.002689.002689.00092436 0 .001513-.001513.002437-.002101-.00058824.001513-.00033614.003697-.001849.004538.003361.00092442.008235-.00058821.008572.004874 0 .001597.003866.00067231.00479 0 .007899-.007563.0300844-.0203363.0289079-.0327734-.004622-.003614-.0115968-.00033615-.0161347.002101-.003277.001849-.0112606.00916-.0145379.0112606-.001261.0005882-.00033614-.001513-.00033614-.001513.004286-.005126.0142859-.0136976.0203363-.0167229.002773-.001513.004538-.007311.00126-.009076-.006723-.003025-.0200842.005462-.0257986.0103362z"/><path d="m.4874793.44999693c.00395-.005126.008824-.009076.0127732-.014538.00025212-.00092442.001765-.003025 0-.002773-.004286.00092437-.00605.004874-.009748.006639.007899-.0109245.0176472-.0154623.0155464-.0273112-.00067226-.002101-.0118489.007647-.014622.0100841l-.0003361.00025209-.00025216.00025209-.00067227.00058826-.00075627.0005042-.00067226.00050419-.00075632.00050424-.0006723.00050418-.0006723.00058823-.00067227.00050424-.00067223.00050418-.00033616.00025213-.00033613.00033616-.0002521.00025205-.00025213.00025214-.00033611.00033613-.00025213.00025207-.00025211.00033616-.00025207.00033613-.00016808.00025211-.00025207.00033616-.00016813.00033614-.00016804.00042018-.00008407.00033614-.00016805.00033608c-.001176.004538.00058829.009748 0 .0148741-.00025206.001849.001261.004874.00058829.006975-.00013668.00031888.00041983.001552.0001904.00206"/><path d="m.47515712.4610084c-.00015907.00001701.007262-.005259.007022-.005435-.002101-.001513-.001675-.006753-.005288-.006164-.002185.0002521-.002773.00395-.005462.00395.00025211-.006387.0100001-.0109245.003277-.0155464-.003277-.002101-.00605.002773-.0100001.002773.00092433-.001513.003025-.002773.003697-.004538.00058821-.001513-.00092437-.003361-.002437-.003361-.003698-.00025207-.007311.002185-.0109245.003025.001513-.002689.005126-.007563.002101-.009412-.003361-.002437-.006723.002437-.0106723.003361.00092437-.003025.003698-.006723.002101-.009412-.002353-.00395-.007227-.001176-.0111766-.00033613.001513-.002689.005126-.005462.003361-.007899-.003109-.004538-.009412-.001513-.014622-.001176.001513-.002437.004874-.004874.003025-.006723-.00395-.003613-.0105884.00067224-.0139498.004874-.00025208.00033614-.00025208-.001765 0-.002101.001849-.00521.004622-.0109245.002437-.0161346-.00092437-.002437-.005462 0-.006975-.001513.002437-.001176.006387-.001765.006975-.004202.00058826-.002101.00092438-.004874-.001849-.00521-.007563-.00084033-.0139498.004286-.0178993.0103363-.00058826.0009244.00033614.002437-.00033617.003361-.00025209.00033612-.001176-.00058825-.00084032-.00058825.00084032-.001513.00025212-.003025-.0009244-.003361-.00092437-.00033615-.002101-.00033615-.003025 0-.003361.002101-.006975.00605-.0100841.007563.00092435-.003613.00521-.009076.00067223-.0112606-.003613-.001429-.00605.003698-.009748.005546.001513-.001513.001849-.003361.00126-.00521-.00092437-.002437-.003697-.003277-.006387-.002437-.005462.002437-.008824.008235-.009748.0142859-.00092437-.004202-.00092437-.006387-.00092437-.009412 0-.001849-.002101-.003613-.002689-.003361-.004286.001849-.004874.008572-.002437.0124371.001849.003109.006387.003361.007899.006723.00058829.00126.00025214.002773.00025214.00395-.00058826-.001176-.001513-.002689-.002689-.003361-.001513-.00025211-.003361-.001176-.003613.0006723-.00033612.001765.001513.003613.001177.005714-.00033618-.00033613-.00092442-.00092439-.001513-.00058825-.003025.002101-.003361.005462-.002101.008235.001765.00479.00058825.0111766.005378.0136136.019496.0100001.0362189.016975.0480677.0367231.0175632-.00395.0400844-.006975.0573115-.003277.001261 0 .004622-.00092434.005798-.001597"/><path d="m.52571499.37075241.00008405.00008407v.00008403.00016804.00008404l-.00008405.00016804v.00016809l-.00008403.00025212v.00016806l-.00008404.00016805-.00008401.00016808-.00016811.00025213-.00008405.00016806-.00008401.00016804-.00008401.0002521-.00025212.00033617-.00025213.00042015-.00008404.00016806-.00008402.00016811-.00008401.00016804-.00008405.0002521-.00008403.00016806-.00008404.00025214v.00016803.00016809l-.00008401.00025207v.00008406l.00008401.00008402v.00008406.00016809.00008401.00008404l.00008404.00016804v.00008406l.00008403.00008401.00008405.00008407v.00016808l.00008401.00008402.00008402.00008403.00008404.00016804c.00092443-.00058824.00092443-.001849.002101-.002437.001513-.00092437.003025-.00058828.004538-.00092437.001849-.00058826.001849-.002689.002185-.00395.003025-.008235.003361-.0182354.007227-.0263868-.001176.007563-.002689.0169749-.002437.0239498 0 .001849.003361.003025.005546.004286.001177.0005882.002689-.001849.002689-.003025.00092442-.0106724.004286-.0313449.00033617-.0419332-.00033617-.00033612-.005462.002773-.005798.003361-.0124371.009412-.0182355.0248742-.0152103.0406727z"/><path d="m.51361402.49495531v-.00008401-.00016806-.00008399-.00008409l-.00008404-.00008401v-.00008404-.00008402l-.00008402-.00008409v-.00008402-.00008402l-.00008407-.00008404-.00008403-.00008398-.000084-.00008409-.00008406-.00016806-.00008398-.00008401-.00008406-.0000841-.0001681-.00008401-.00008401-.00008403-.00008408-.00008403h-.00016802l-.00008406-.00008399-.00033607-.0001681-.00025219-.00008404-.000084-.00008402-.00016804-.00008401h-.00008406l-.00016802-.00008406-.00008408-.00008406-.00008409-.00008404-.00016802-.00008398-.00008406-.00008409-.00008399-.00008402-.00008406-.00008404-.000084-.00008401v-.00008402c-.00092441.0005882-.002437.001513-.002101.002437.00058825.003025-.00067224.007563.002353.007815.001849.00067231.002773-.004538.002773-.007227z"/><path d="m.51697539.4994932h.00008405v-.00008401h.00008402.00008408v-.00008403h.00008401l.00008405-.00008406.00008401-.00008405v-.00008401-.00008407-.00008402-.00008402h-.00008401v-.00008404l-.00008405-.00008402-.00008401-.00008402-.00008408-.00008404v-.00008407l-.00008402-.00008401h-.00008405v-.00008408l-.00008402-.00008401-.00008407-.00008403-.000084-.00008404v-.00008401l-.00008402-.00008403v-.00008403-.00008399l-.00008404-.0000841v-.00008407h.00008404v-.00008402c.00033611 0-.00033616-.00058821-.001261-.0003361-.00058826.0003361-.00058826.001261-.00058826.001849.00033616.00092441.00126.00092441.002185.00058825z"/><path d="m.50605092.49554359v-.00008404-.00008398-.00008409-.00008402-.00008404h.00008406v-.00008407-.00008404l.00008401-.00008401v-.00008403h.00008407v-.00008403h.00008401v-.00008399h.00008401l.00008404-.00008409h.00008402v-.00008401h.00008408l.00008402-.00008404h.000084c-.0002521-.00067228-.00084032-.00092443-.001513-.00067228-.00092439.00092442-.001765.001513-.002437.002773-.00025215.00033617.00033614.00092438.0006723.00092438.00084031-.0003361.001513-.001513.002437-.001849z"/><path d="m.50479043.60218332.00016802-.00016805.00016806-.00016808.00008408-.00016812.00016807-.00016803.00008402-.00016807.00016807-.00016802.00008402-.00016809.00008404-.00016812.00008401-.00016805.00008408-.00016805.00008402-.00016808.00008406-.00016805.00008401-.0001681.00008407-.00016807.00008401-.00016802v-.00016809l.00008401-.00033617.00008404-.00033613v-.00033615l.00008402-.00033609-.00008402-.00033615v-.00025215-.00033611l-.00008404-.00025207-.00008401-.00033615-.00008401-.00025213-.00008407-.0002521-.00016807-.00025209-.0001681-.00025212-.00016805-.0002521-.00016803-.00016806-.00016808-.00016811-.00016807-.00025207-.0001681-.00008402-.00025206-.00016807-.00008407-.00008404h-.00016806l-.00008403-.00008402h-.00008408l-.00016805-.00008409h-.00008402-.00016807-.00008402l-.00016806-.00008402h-.00008401c-.002185 0-.002185.003698-.004874.004286-.004538.00092441.00092438.007311-.004874.0139497-.0003361.00067231.00033613.001261.00058826.001261.002773-.00058825.004874-.003698.00605-.006723.00092437-.002437-.002101-.00479-.001177-.006639.001177-.001513.001177.001849.003614.002437.0006723.00025209.001513-.00033619.001849-.00058826z"/><path d="m.49840377.59092272-.00008402-.00008409v-.00008402h-.00008404l-.00008402-.00008404h-.00008405-.00008402v-.00008401h-.00008401-.00008404l-.00008403-.00008402h-.0001681l-.00016807-.00008404h-.00016806-.00008402l-.00008404-.00008402h-.00008402l-.00008406-.00008406h-.00008405l-.00008404-.00008401h-.00008402v-.0000841h-.00008405l-.00008402-.00008401v-.00008404h-.00008401v-.00008402l-.00008405-.00008401v-.00008405c-.00092438.0006723-.00058825.001513-.00033616.001849.00067229.001513.002185.002689.003698.002437.00084034 0 .002353-.002185.00058822-.002773-.00058822-.00025209-.001513 0-.001849-.00025209z"/><path d="m.54785582.37172671c-.003613 0-.003394.004478-.003394.007503-.001176-.002437-.002534-.007355-.005895-.006431-.007563.002773-.005518.0112777-.009468.0173282 0-.003613.00033618-.0072 0-.0108971 0-.00058828-.00066214-.001124-.00125-.00053592-.007647.004286-.006978.0133169-.008575.0205437-.002353.0106724-.003196.0206209-.007146.030369-.004538.0115127-.0118674.0223124-.0216153.0305477-.004538.004202-.009081.007788-.0142911.0108971-.008151.004454-.0165745.006223-.0244736.011433-.003109.001849-.005264.005213-.003751.008575.00058828.002101.002449.00001007.003037-.00125.00092441.001261.002218.00207.003394.002322.003698.00033613.002995-.003258.002322-.005359.001513.00033614.002218.001713.003394.001965.003613.00092442.003668-.002187.005181-.004287.00033613.0002521.00066225.00078808.00125.00053592-.00033607.002353-.00042119.005381-.002858.007146-.001513.00126-.003847-.00208-.005359.00035728-.00025209.00058829-.00054597.002165.00071456.002501.002101.00092436.004046-.001818.005895-.0008932.00092435.00058828-.00086198.002627-.001786.003216-.001849.00058823-.004876.00098678-.005716-.001786-.003361.00126-.007-.00035734-.0103611-.00035729-.001177 0-.002648-.00086205-.003573-.001786-.006639-.006387.00086404-.0160159.007503-.0192933-.006639-.00126-.013085-.00126-.0194717 0 .002773.00084032.006116.001357.006788.004466.00025203.001765-.002806.00308-.003394.005181-.00058822.002437.002648.001514.003573.004287.00067232.002437-.001734.004414-.00089319.005002.004034.003697.004591.007557.00089319.0112544-.00092435.00058817.0007456.00372-.00017863.004645-.00092441.00092436-.00098832.002449-.002501.003037.002101.00126.003573.003332.003573.005181 0 .003277-.005454.003049-.006967.006074-.00058828.00126-.001965.001577-.001965.002501-.00033613.002437.002606.004194.001429.006967-.00092435.002101-.004823.001682-.004823.002858-.001176.012185.0227056.0246447.0443025.0316195.001513.0002521.00207.007.002322.0103612.00033612.002689.00227.004656.002858.007682.00092435.00395.004278.005707.006967.008396.00033618.00033613.00089325-.00028382.00089319-.00053592 0-.001849.00060938-.003437.00035728-.005538 0-.00033619.00091435-.00060944.00125-.00035728.002101.003361.00052437.007388-.002501.009825-.008304.004104-.0120366.009951.001429.0125049.001536.00029132.004424-.002923.003751-.006788.00067225.00025209.00091435-.00028383.00125-.00053593.00092435.001429.00080974.004266.002322.00393.002773-.0002521.003373-.004173.003037-.00661 0-.00126-.00081974-.002932-.001072-.004109-.00092441-.003698-.00008517-.008481-.002858-.0112544-.003025-.003025-.008072-.003606-.0114329-.006967-.00058822-.00058823-.00102-.001398-.001608-.002322-.00033618-.00058823.00012645-.00099833.00071456-.00125.00058828.001849.002417.003058.00393.003394.003025.00084032.005644.003583.008753.002322.002101-.00058823.001167-.003205.00268-.004466.00067226.003025.001609.008259.005895.006074.001176-.00058823.001619-.002575.003215-.003751-.00033618.002689-.00077858.005791-.003215.006967-.001849.001261-.003416-.001041-.005181-.001965-.00067226-.00058828-.00125-.0000523-.00125.00053593.00033613.002101.002417.003027.00393.004287.001849.001513.003268-.00228.004109-.001608.001261.001176-.002952.004025-.00017864.005538.003025.001513.003658-.003626.006431-.004466 0 .002437-.00125.004761-.00125.00661-.0002521.00395.004645.001975.006074-.00071457 0 .001177.00056707.002827-.00035728.003751-.00092441.001176-.003857.001882-.004109.003394-.00067226.004202-.003479.006936-.006252.00786-.002437.00058829-.001803.007233-.001072.0101826.00096671.0039.006046.00316.0105397-.001608.00085667.002495.00060869.007059.003216.006074.002773-.003361.001651-.008587.003751-.0116117.00126-.001513.00328.00329.005716.004466.00058828.00033613.001808.00072457.002144-.00053592.00058822-.003025.00008357-.005886-.001429-.008575.0106724.003025.0103298-.0106371.0112543-.0178641.002101.001765.004866.001712.006967.00053593l.00017864.00053592.00035728.00053592.00035728.00071457.00035728.00053592.00035727.00053593.00035728.00053592.00017864.00017864.00017864.00035728.00017864.00017864.00017864.00017865.00017864.00017864.00035728.00035728.00017864.00017864.00017863.00017864.00017864.00017864.00035728.00017864.00017864.00017865.00017864.00017864.00035728.00017864h.00017864l.00017864.00017864.00035727.00017864h.00035728l.00017864.00017864.00035728.00017864h.00017864s.00393-.00042125.00393-.002858c.001849.00058823.003415-.00083089.003751-.00268.002101.00033614.003016-.001472.00268-.003573.002773.00033613.004014-.00095712.002501-.003394.002773 0 .004444-.001209.00268-.003394-.003361-.003277-.006116-.006916-.006788-.0117903-.00025209-.001765-.002291-.003982-.003216-.003394-.003277.001765-.00121.0116-.004823.008575-.0125211-.0100001-.0176757-.0264343-.0203649-.0419807-.00033613-.002101-.004088-.001777-.003751-.004466.001513.00033613.002827.001765.003751.001429.003614-.00092436.001807-.004762.002144-.008039.00092435.001765.002081.003258.00393.00393.001513.00058823.001198-.001965.001786-.001965.001849.00092436-.001303.001577-.00071456.002501-.002353.001513-.004487.002744-.004823.005181-.00058828.008487.004299.0151243.007324.0226874.00092441.002101.002386.004635.004823.005895.001513.00092436.003394-.00070462.003394-.001965.00058822-.002437.00092441-.004457 0-.007146-.002185-.006723-.006684-.011877-.00786-.018936.006387.0106724.0100402.0255363.0234017.0282253.001849.00033619.002606-.002953.001429-.004466-.007563-.0105884-.013075-.0205686-.0207221-.0309049-.0002521-.00033614-.002113-.00091436-.003037-.00125-.006303-.003361-.0117299-.008828-.019293-.0100039.00033613-.00092436-.001124-.001965-.00053592-.001965.001849-.00025215.003321-.00029497.003573-.002144 0-.002101.00105-.004456-.00071456-.005717-.002101-.001513-.004152-.00008346-.006252.001429-.00058828.00067232-.001913.00002109-.002501.00035728-.001513.001513-.003311.00248-.004823.002144-.003277-.0002521-.00268-.003921-.00268-.00661-.00033607-.00058823-.00091429-.00125-.00125-.00125-.00605.00092436-.0111723-.00069347-.0169707-.00035728-.00126 0-.001377-.001398-.001965-.002322-.00025209-.00058817.00012622-.00091435.00071456-.00125.00067225.00092442.001734.001765.002322.001429.002437-.00025215.001377-.003952.001965-.005717.00033613-.00067232.001755.001481.00268.00089321.005462-.004286.0103203-.012486.0139338-.0178641.005126-.008824.006601-.0145784.0121475-.023402.00058828-.00058823-.00000005-.001734 0-.002322.0002521-.002437.002722-.004687.004823-.006788-.00092441-.00067227-.002017-.002197-.001429-.003037.00092435-.00126.003373-.001198.003037-.001786-.00058828-.001176-.002217-.002134-.001965-.003394 0-.0009243.001913-.001776.002501-.003037.00067231-.001176-.00085038-.002754.00125-.00393.00033613-.00033613.001114-.00033619.001786 0 .003025.001849.001817.003994.0008932.006431-.001176.002101.002751.00089543-.001786.00661-.00126.001513.001229.002712-.00053592.006074-.00092435.002101-.00372.003689-.004645.005538-.001513.00395-.002344.00823-.00268.0126835-.00058828.005546-.002744.0106677-.005181.0155418-.001765.00395-.005685.006748-.00661.0103612-.00058823.001513.00059977.004161.003037.003573.001513-.00058823.001419-.002732.00268-.003573-.00033613.00395-.00038689.0114954.004823.009647.003025-.00084038.001922-.006443-.00017864-.009468 0 0 .00089314-.00051471.0008932-.00017864.00092435.001513.001524.002984.003037.003573.001176.00058823.002985.0002621.003573-.00125.0009244-.003109-.00186-.004887-.003037-.007324.00058828 0 .001114-.00033613.001786 0 .00084032.00033619.001219.001377.002144.001965.003025.00092442.005233-.00062098.006074-.003394.00067225-.002101-.001724-.00329-.003573-.004466.002101-.001849.005128-.00072629.005716-.003751.00067225-.002689-.001734-.003973-.002322-.006074.002353.00033619.005307-.00024255.005895-.00268.00092435-.002689-.002722-.003089-.004823-.002501 0-.00058823-.00030452-.00145.00053591-.001786.003025-.00058823.005202-.001829.006967-.00393-.001765-.001849-.003942-.003951-.006967-.004287-.00025209 0 .00046252-.00055696.00071456-.0008932.00092441-.00058823.001219.001124.002144.00053592.00025204-.00033613.00081962-.00125.001072-.00125.002773 0 .005916-.001451.006252-.003216.00025204-.002437-.006336-.002355-.004823-.005717.00025209-.00092436.002985-.001598.003573-.002858.0009244-.001765-.002553-.002932-.001965-.004109.00092435-.002101.004971-.00097833.005895-.003751.001176-.002689-.001724-.002417-.003573-.00393 0 0 .00000005-.00055714 0-.00089321.003025 0 .006011.00000955.00786-.00268.00025215-.00092436-.00030498-.001934-.0008932-.002858-.00092435-.00092436-.003646-.002091-.003394-.00268.00092435-.001513.006915-.00006408.007503-.002501.00033618-.002437-.002974-.003616-.004823-.005717.002773 0 .006757.001848.007681-.001429.00058823-.003109-.004361-.002134-.005538-.004823.004286-.00067226.0118641.00022946.0130407-.004645.0009244-.003025-.004835-.001808-.00786-.002144.00033612-.00058823-.00019985-.001534-.00053592-.001786.004538-.00092442.0109181-.001326.0112543-.006788 0-.002185-.002901-.003215-.005002-.003216-.003025.00033619-.00473.005159-.008932.004823.001765-.001849.003825-.003437.005002-.005538.001176-.002437.003373-.003816.003037-.006252-.00033618-.002101-.002344-.00094557-.004109-.00035728-.001849.00067226-.001545.003311-.003394.004823-.00033613.00033619-.001629.00033619-.001965 0-.00058828-.001176.00073571-.002039.001072-.003216.00058823-.001597.001029-.005359-.001072-.005359s-.003825.00095729-.005002.003394c-.001513-.002185-.00008507-.005107-.002858-.005359zm-.0612732.12665665c0 .00058828.00002109.001198.00035728.001786.00092435.001261.002301.001955.001965.003216-.00033607.002101-.002292.00435-.004645.002501-.001261.005462-.007631.00539-.0125047.004466-.0002521-.0002521-.001829.00091436-.002501.00125-.002689.00058834-.005454.0006506-.006967-.001786-.001176-.001849.00025267-.002754.001429-.00393-.00000006.00058829.00048361.00125.001072.00125.00058817.00033613.001198.00067226.001786 0 .001177-.00084033.002113-.002239.003037-.003751.00058833-.00092436.001839.001629.00268.001965.001849.00025205.003889.0002521.006074 0h.00017864.00017864l.00017864-.00017864h.00017864.00017864l.00017864-.00017864h.00017864.00017864v-.00017864h.00017863.00017864v-.00017864h.00017864l.00017864-.00017864.00017864-.00017864.00017864-.00017864.00017864-.00017865.00017864-.00017864.00035728-.00017864.00017864-.00035728.00017863-.00017864v-.00017864c.00058823-.00067227-.00017863-.0009143-.00017863-.00125-.00067232-.00092431-.0000734-.001587.00017863-.00125.002437.001513.004056-.00045241.004645-.001965z"/><path d="m.54974883.36957592.00008409.00016807.00016802.00016802.00008406.00016816.00016807.00016804.00008402.00008403.00008402.00016806.00016805.00016803.00008404.00008408.00016811.0001681.00008401.00008402.00016809.00008402.00008402.00008404.00016805.00016804.00008404.00008401.00016811.00008408h.00008401l.00016808.00008401.00008402.0000841.00016805.00008401h.00008404l.00025212.00008403.00025211.00008403.0003361.00008403h.00025217.00025208.00025207l.00025216-.00008403h.00025208l.00025207-.00008403.0002521-.00008403.00025215-.00008401.00016805-.0000841.00025209-.00008401.00025214-.00016809.00025209-.00008401.00016802-.00016807.00025213-.00016804.00016811-.00008403.00025207-.00016815.00016807-.00016803.00016806-.00016806.00016805-.00016804c.004874-.004874.008824-.0124371.0161347-.0148741-.004286.00479-.008572.009664-.012185.0154623-.00058825.00092442-.001176.003025.00033617.003613.002437.00058827.006639-.001176.008151-.002101.003698-.001849.007563-.002437.00916-.004874.00395-.005126.006387-.0100001.008487-.0163867.001176-.002437.00033617-.004874-.002437-.005462-.006387-.0009244-.012437.001176-.0178993.00395-.006975.003025-.012185.008235-.0167229.0142858-.001176.001849-.002101.003361-.00058826.005798z"/><path d="m.57008521.37655077-.00008405.00008407v.00016808.00008402.00008403l-.00008407.0002521-.00008402.00025209v.00016809.00016806.00008402.00008406l-.00008401.00016805v.00008402.00016811.00008403.00008403.00016807l.00008401.00008402v.00008404.00008401.00008402l.00008402.00008409v.00008404.00008402h.00008407v.00008402h.00008405v.00008406h.00008403.00008401v.00008401h.00008404.00008402c.002689.00092437.004538.002689.006303.004874.003698-.003361.007899-.00916.006134-.0133615-.00033617-.00092435-.002773-.00067228-.003697-.00033614-.003025.001765-.008151.00058822-.009076.005798z"/><path d="m.58890891.36402965-.00033616.00016808-.00033614.0002521-.00033611.00016806-.00033616.00016807-.00033615.00016809-.00033609.00025209-.00033615.00016806-.00033613.00025211-.00033617.00016807-.00033616.00025209-.00033606.00025212-.00025219.00016805-.00033608.00025213-.00025213.00025207-.00033617.0001681-.00025204.00025207c.00058821.0009244.002101.0009244.002437.002185.001176.003277-.003698.009412-.00067233.009076.001849-.00033617.004874.00092439.006387 0 .003613-.001849.0105883-.009412.0133615-.0163868-.005126-.003361-.0112606.00025215-.0163867.001765z"/><path d="m.60647211.3731894h-.00050425-.0005882l-.00050421.00008407-.00050423.00008403-.00050419.00008403-.00042018.00008403-.00042015.00008402-.00050424.00016808-.00042014.00008402-.00033617.00016806-.00042015.00016811-.00033617.00025205-.00042014.00016809-.00033611.00016806-.00033617.00025214-.00033612.0002521-.00033617.00025208-.00033613.00025209-.00033609.00025215-.00025216.00025207-.00067227.00050424-.0005882.00058821-.00058826.00058826-.00058828.00058824-.00058817.00067229-.00058828.00058818c.003613.0006723.007227.001261.00874.00395.00092437.002101-.001765.004538-.003613.006387.002689.00126.008235-.001849.0103362-.003613.004286-.00395.007563-.008235.006639-.0103362-.001176-.003361-.006303-.003025-.0103362-.003025z"/><path d="m.58890891.38226511h-.00084033-.00075631l-.0008404.00008405h-.00075631l-.00084032.00008402-.00042012.00008401-.0003362.0000841-.00042012.00008404-.00033619.00008402-.00042012.00008401-.00033616.00008404-.00042016.00008403-.00033616.00016806-.00042015.00008402-.00033616.00016814-.00033614.00016803-.00033613.00016806-.00033614.00025208-.00033616.00016807-.00033614.00025214-.00033616.00025209-.00033608.00025209-.0002521.00025214-.00033616.0003361-.00025213.00033617-.00025207.00033613-.00033617.00033615c-.00084032.001176.00067231.003361.001597.003361.004874 0 .008151.002689.0124371.002689.001765 0 .006387-.004874.006975-.006387.00092438-.00395-.005798-.00395-.009412-.00395z"/><path d="m.57974913.39260133h-.00008401-.00008405-.00016808-.00008401-.00008402-.00016813-.00008402l-.00008401.00008409h-.00016805-.00008407l-.00016803.00008402-.00025215.00008404-.00016806.00008402-.00025209.00008404-.00016806.00008402-.00016811.00016809-.00016806.000084-.00016807.0001681-.00016803.00016807-.00016806.00008404-.0001681.00016803-.00008405.00016807-.00016808.00016811-.00008401.00008404-.00016806.00016806-.00008401.00016803-.00008405.00016808-.00008401.00008405v.00016809l-.0000841.00016807v.00008401l-.000084.00008402v.00008408.00008399.00008406.000084l.000084.00008402v.00008409h.0000841c.003277.003613.006303.003025.009412.006639.003277.003361.009412-.001765.009076-.003613-.00033616-.00395-.009076-.005462-.014622-.006387z"/><path d="m.60252246.3929375h-.00016806-.00025208l-.00025213-.00008402h-.00025211-.00033609-.00025216l-.00058821-.00008404h-.00058825-.00058825-.00025208-.00033613-.00025212-.00025211l-.0003361.00008404h-.00025215l-.00025208.00008402h-.00025208l-.00025216.00008404-.00016806.00008402-.00025208.00008401-.00016806.00008408-.00008402.000084-.00008401.00008409h-.0000841l-.00008405.00008401-.00008401.00008404-.00008403.00008403-.00008404.00008404-.00008401.00008401v.00008402l-.00008405.00008408v.00016805l-.00008401.00008405v.00008404l-.00008402.00016806v.00008402.00016809c0 .001765.004538.002941.003613.005378-.001176.003109-.004874.004286-.007899.005798-.002437.001513.00092442.004538.002437.004538.009748 0 .019496-.003613.0273112-.0100001-.00395-.005714-.0118489-.007563-.0182355-.007563z"/><path d="m.58100969.40260147-.00033615-.00016807-.00025211-.00016805-.00033614-.00016807-.00033616-.00016809-.00033614-.00016811-.00033616-.00016805-.00033608-.00016802-.00033614-.00016806-.00016811-.00008408-.00016806-.00008401h-.00016808l-.00016803-.00008401-.00016805-.00008408h-.0001681l-.00016806-.00008406h-.00016809-.00016805l-.00016806-.00008399h-.00016811-.00008401-.00016808-.00016806-.00016806l-.00008401.00008399c-.00092442.00025215-.002437.002689-.001513.003277.002941.003109.006303.005798.009412.008824.00084034-.003025.00479-.001513.00479-.002689-.0002521-.003698-.004538-.005462-.007563-.007647z"/><path d="m.5731104.4078116-.00016806-.00016807-.00016802-.00008402-.00016808-.00008406-.00016811-.00008401-.00016806-.00008404h-.00016806l-.00016807-.00008402h-.00025207l-.00016811-.00008402h-.00016806-.00016808-.00016805-.00016804-.00016813-.00016802l-.00025213.00008402h-.00016804l-.00016812.00008402h-.00016803l-.00016808.00008404-.00016806.00008401h-.00016807l-.0001681.00008406-.000084.00008402-.00016808.00008408-.00016806.00008399-.00033613.0001681-.00025213.00025207-.00025208.00016807-.00025211.00025215-.00025212.00025208-.00008405.00008401-.00008401.00016808-.00008403.00008401-.00008405.00016813-.00008403.00008403-.00008402.00016805-.00008402.00008402-.00008403.00016807-.00008408.00008402v.00016806l-.00008404.00008404v.00016811l-.00008402.00008401v.00016808.00008401.00016806.00008404.00008407.00016806l.00008402.00008405v.00008402l.00008404.00008402.00008408.00008404v.00016806l.00008403.00008401.00008402.00008402.00016805.00008409h.00008405c.003613.002185.002689.005798.006975.007311.002437.001261.007899.001849.008151-.00025209.001261-.004874-.004538-.008572-.009076-.0112606z"/><path d="m.60890911.41108897-.00084036.00008404-.00092435.00008402-.00092437.00016807-.00084037.00016806-.00092436.00016806-.00084035.00016803-.00092442.00025217-.00084034.00016806-.00092437.00025207-.00084037.00033618-.00092435.00025208-.00084036.00025207-.00092438.00033618-.00092435.00033612-.001765.0006723c.004874.002101.005714.006975.00874.008487.004622.002101.008235-.002101.014622-.004874.00025205 0 .00025205-.001176 0-.001513-.001849-.003361-.005462-.006387-.00916-.005798z"/><path d="m.59285854.41688729-.00016811-.00008402-.00016805-.00008401-.00016806-.00008405h-.00016808l-.00025207-.00008401-.00016811-.00008406-.00033613-.00008402-.00042018-.00008401-.00033614-.00008404-.00042016-.0000841-.00042017-.00008401-.00033615-.00008402-.00042016-.00008404-.00016806-.00008402-.00016809-.00008406h-.00016807l-.00016808-.00008401-.00025207-.00008402-.0001681-.00008404-.00016806-.00008401-.00016802-.00008405-.00008408-.00016811-.00016806-.00008401-.00016809-.00016808-.00016807-.00008401c-.00058825.00025209-.001176.00092434-.001176.001176.00058822.001849.002689.003698.001513.00521-.002437.002689-.007647.00058821-.0100842.00395.006135.00605.0167229.007899.0246221.003277-.002353-.00395-.004202-.008487-.009076-.0115127z"/><path d="m.56798431.4211731-.00008402-.00050424-.00008402-.00042018-.00008405-.00050416-.00008404-.00042021-.00008402-.00042015-.00016811-.00042018-.00008401-.00025209v-.00016806l-.00008405-.00025215-.00008401-.00016808-.00008403-.00025207-.00008405-.00016808-.00016805-.00025207-.00008402-.00016811-.00008403-.00016806-.00016812-.00016807-.00008402-.00025207-.00016807-.00016811-.00008404-.00016806-.00016803-.00016808-.00016807-.00016803-.0001681-.00016805-.00016808-.00016811-.00016805-.00016806-.00016805-.00008406-.00025214-.00016803c-.00084034.002437-.001513.005126-.003277.006387-.001513.00058821-.001261.003613-.003025.005462-.00067228.00025204 0 .001176.00058822.00092433.004202-.00092433.0100001-.00126.008824-.006387z"/><path d="m.57403477.42327394-.00025207-.00025207-.00016805-.00016809-.0002521-.00025212-.00016811-.00016805-.0002521-.00025212-.00016802-.0001681-.00042023-.00042013-.00042015-.00042016-.00016806-.00016811-.00016811-.00025207-.00025207-.00016807-.00025209-.00025214-.00016806-.00016805-.00025215-.00025211c-.001176.001849.001261.003698 0 .00521-.00092434.001176-.002101.002101-.003025.003277-.00058823.00067229 0 .001261.00058825.001261.002185.00033607.003361.00058816.00521-.00033617.002437-.001176.002437-.004202.0005882-.006051z"/><path d="m.61075785.32881926.00084035-.001597.00084033-.001513.00084039-.001597.00084033-.001513.001681-.003109.00084031-.001513.00084038-.001513.0008403-.001513.00075631-.001597.00067233-.001513.00075632-.001597.00058816-.001597.0005883-.001681.00050419-.001597.00025212-.00084035.00016802-.00084033c.002437-.008235.0009244-.0157985-.003361-.0236977-.001513-.003025-.005714.004538-.007899.007899-.0008404.001513-.002101.003277-.002689.005462-.001513.005126-.00395.0100001-.006975.0147901-.002773.004622-.00521.008908-.008235.0131094-.005714.007563-.012101.0139497-.0182355.0209245.004286.0006723.008235-.001765.0125212-.0005882.002353.00092437.005714.002185.006303.00395.001849.003613.001261.008235-.001176.012185-.00033616.00058823-.00033616.002689.00058821.002353.009412-.006639.0115127-.0205885.0173111-.0312608z"/><path d="m.63781694.29302052-.001176.001765-.001177.001681-.001176.001681-.001092.001681-.002353.003193-.002353.003277-.002269.003193-.001092.001681-.001092.001597-.001092.001681-.001092.001765-.001008.001765-.001008.001765c-.006639.0124371-.0124371.0248742-.0194119.0373113.002773.00395.007647-.00084032.0103362.004538.001513.002773-.00092433.007311.0005883.007983.0106723.004202.009412-.007311.0127732-.0131094.007899-.0133615.0131094-.0233616.0212607-.0378995.003361-.005546.009076-.0110086.0105883-.0167229.003361-.0133615.004286-.0252103.00092442-.0382357-.0002521-.00067228-.00092442-.001849-.001765-.001261-.008572.008488-.0106724.0203364-.0173111.0306726z"/><path d="m.71613707.29091969-.001176.001513-.001176.001513-.001261.001429-.00126.001429-.002605.002689-.002605.002605-.002773.002521-.002773.002353-.002773.002353-.002857.002269-.00563.004454-.002857.002269-.002773.002353-.002773.002353-.002689.002437-.002605.002521-.002521.002689c-.001849.001849-.00395.00395-.004622.006387-.003614.0115127-.00874.0215128-.0154624.0321852-.002689.004202-.006639.007563-.0103362.0109245-.00605.005462-.0160506.006639-.0200002.0115127-.001176.001261.00605.00395.007563.006975.001849.003697-.005126.004622-.003866.008572.0109245-.00092441.0209245-.003697.0296641-.0103363.007059-.004874.0115968-.012185.0133615-.0203364.0124371-.009412.0228574-.0206724.0331095-.0331096.0118489-.0142859.0210086-.0285717.0264709-.0462189.002805-.007385.002051-.015785.001513-.0230254-.006387.00395-.009748.0103362-.0142858.0167229z"/><path d="m.67571648.37377766-.00016802.00025208-.00025213.00025214-.00025209.00033611-.0002521.00025208-.00016808.00016812-.00025208.0002521-.00016807.00025208-.00025215.00025209-.00016806.00025215-.00016804.00025207-.00016807.00025209-.00008404.00008407-.00008404.00016808-.00008407.00016805-.00008401.00008403-.00008404.00016807-.00008403.00016806-.00008401.00016811v.00016805l-.00008406.00016804-.00008401.00016807c-.003025.009076-.008151.0163867-.0160506.021849-.009748.007311-.0212608.0111766-.0334457.0111766-.00025213 0-.0005883.00067225-.001177.00092437.001849.001849.0009244.005798.002689.005462.0184876-.002689.0352104-.006639.0516811-.0160506.0118489-.006639.0175632-.0209246.0284877-.0285718.0197481-.0139497.0494963-.0209246.0510089-.058572 0-.00033611-.004874.001849-.006639.003361-.008487.006975-.0161346.0139497-.0257986.0200002-.008824.006134-.0176472.0100001-.0264708.0161346-.004202.002689-.008487.006303-.0103363.0111766-.00025214.00126.002185-.00058824.003361 0-.00092435.00126-.002689.001513-.004202.002185-.003361.002101-.007311.003277-.0100842.006639z"/><path d="m.74168357.35680269-.002857.001681-.002857.001597-.002941.001597-.002857.001513-.00563.003025-.002857.001513-.002773.001597-.002773.001597-.002689.001597-.002689.001681-.002605.001765-.002605.001933-.002521.001933-.002437.002101-.001176.001092-.001177.001092c-.00916.009076-.0176473.0178994-.0289078.0246221-.005714.003277-.0115127.005126-.0175632.006975-.00916.002689-.0182355.005126-.0278994.006387-.00067227.00025209-.0009244.001765-.001849.002689-.0003361.00033616.00033617.00092437.00058823.00092437.0109245.00092442.0215129.00058826.0327735-.001261.0136976-.002353.0267229-.002689.0400844-.005714-.0248742.008151-.0513451.0105884-.0773957.0103362-.001849 0-.004538.002101-.006975.003361.004202.003025.009076.003025.0142859.003277.0166388.001261.034286.00033614.051261.00058825-.006975.003361-.014874.00033612-.0215128.004286.006975.001849.006387.009412.0105883.009748.0133615.00058823.0252104 0 .0383197-.003361.004202-.001176.008487-.002437.0124371-.00395.005126-.001849.008151-.004286.0115127-.008487.00058824-.0009244.003025-.003361.003025-.003361-.002437-.003361-.00605-.004538-.009748-.003361-.009412.003697-.0188238.004286-.0284877.006387-.001849.00033614-.003698.00033614-.00521-.00058826.0140338-.003613.0282356-.006387.0407568-.0152102.007563-.005462.0151262-.0100001.0196641-.0184875-.007899-.003025-.0160506-.00092438-.0239498 0-.003361.0002521-.006975.002689-.0103362.003361.00126-.002437.003697-.003697.005798-.004874.002689-.001513.004538-.00395.007227-.005462.005462-.003025.008235-.00916.0127732-.0136976.00058828-.00025215.00092438 0 .001261.00058818.007563-.00605.0105883-.0151262.0154623-.0236136.00033612-.00067231.00092435-.002437-.00058828-.002773-.00521-.00092436-.009748.00092439-.0139497.003361z"/><path d="m.67327951.46730797h.00075632l.00067224-.000084h.0006723l.00067227-.00008402.00075632-.00008407h.00067225l.00067227-.00008402.00033617-.00008404.00033613-.00008401.00033609-.00008401.00033618-.00008406.00033612-.00008409.00033617-.00008399.00025208-.00008403.00033615-.00008407.00033615-.00016805.00033609-.00016803.00025213-.00016805.00033616-.00016811.0002521-.00016809.00033615-.00016805.00025208-.00025207.00025209-.00025218.00025207-.00025207.00025215-.00025206c-.001513-.001261-.003025-.002437-.005126-.002185-.00033617 0-.00092437-.00084031-.00058825-.001176.00092438-.00058825.003613-.00025211.004538-.00058825.004202-.001176.007563-.001513.0105883-.004874.001261-.001513-.001513-.003361-.002101-.003025-.008487.0009244-.0163867 0-.0248742.0005882-.00092437 0-.00033617.001513-.001261.002185-.004202.001513-.009076 0-.0130253.003025.002101.002101.003025.005462.005462.006975.004874.002689.0105884.002437.0160506.002101z"/><path d="m.64991796.45487095.00033608-.00008406h.00025209.00033616l.00033615-.00008409h.00033613l.00033617-.00008401.00067224-.00008404.0006723-.00016804h.00033611l.00033616-.00008405.00033615-.00008401.00033613-.00016808.00033617-.00008402.00033607-.00008408.00033615-.00016806.00025211-.00008402.00033616-.00016806.00025207-.00016807.00033614-.00016806.00025212-.00016811.00016806-.00016806.00025214-.00025209.0002521-.00025207.00016805-.00016811.00016806-.00025207.00008401-.00025212.00008401-.00016805.00008408-.00016812v-.00016803l.00008407-.00008406v-.00016805l.00008404-.00016805v-.00016812-.00016803c.0003361-.004874-.004538-.008824-.00874-.009412-.0152102-.002773-.0300843-.002437-.0443702-.006723-.005714.004286-.0130253.003361-.019412.004538.019412.0109245.0415971.017059.0640343.0161347z"/><path d="m.64319517.45697175-.003866-.00016805-.003866-.00025209-.003866-.00042019-.003866-.00050416-.003781-.00058828-.003866-.00075632-.003782-.00084033-.003866-.001008-.003697-.001092-.003698-.001176-.003697-.001345-.003613-.001513-.003614-.001681-.003529-.001681-.003445-.001933-.003361-.002017c-.007899.001176-.003698.008824-.00521.0136136-.00033616.00092436-.001849.00092436-.001261.002185 0 .00025209.00092438.00092438.00092438.001176.0006723.002185-.00025207.004286 0 .005798.002185.005126.008824.006387.0124371.0105883-.00479-.002101-.01479-.0105883-.0154623-.001513 0 .002437.001261.00605.002437.008235.005798.008487.0127733.0154623.021933.0209246.006303.00395.0124371.008824.0202523.007311.002773-.0005882.001849-.004874.00126-.006723-.00092433-.002101-.004538-.001513-.006975-.002353-.0152103-.004622-.0261347-.0155464-.0368071-.0267229.007647.004202.0127733.0111765.0200842.0157144.007899.00521.0161346.009748.0257986.007899.003697-.00092442.001513-.006387-.0005883-.007311-.003361-.001176-.006387-.002353-.009412-.003613-.004538-.001765-.00916-.004538-.0133615-.007563.0100001.002689.0184876.009412.0294121.007899 0-.00521-.003866-.008824-.006891-.012185-.0106724-.0112606-.0255465-.0154624-.0398324-.0205885-.00033606 0-.002773-.001849-.001513-.001597.009412.001261.0185716.004874.0270591.008908.00395.001429.007563.004202.0115128.00479.0111765.002437.0230254.006723.0333616.002437-.001176-.004538-.004202-.0100001-.009748-.0103362z"/><path d="m.6380691.47159377-.00067229-.00008405-.00067229-.00008403-.00067229-.00008401-.00067229-.00008408-.00067223-.00016806-.00075632-.00008399-.00067228-.0001681-.00067229-.00008405-.001345-.00033612-.001345-.00033614-.001429-.00033617-.001345-.00033608c-.00025211 0-.00084032.00092434-.00058823.00126.005798.003613.0109245.006639.0166388.009664.002185.00092437.004622.00067223.006723.00092437.00605.00033611.0106723-.001513.0182354-.002101-.00033612-.005798-.003613-.0115127-.009076-.0115127-.001597 0-.00092447.003613-.002185.00395-.005714.002689-.0124371.00025209-.0188237 0z"/><path d="m.63748083.48033337-.00016805-.00025211-.00016813-.00025213-.00025208-.00025207-.00025208-.00016808-.0002521-.00025215-.00025213-.00025207-.00025208-.00016811-.0002521-.00025204-.00033617-.00025213-.00025207-.00016805-.00033613-.00016808-.00033616-.00025207-.00033612-.00016807-.00033617-.0001681-.00067226-.00042015-.00067225-.00033616-.00075632-.00033614-.0006723-.00025208-.00075631-.00033617-.00067228-.00025208-.00067224-.00025208-.00067227-.00025216-.00033617-.00016806-.00033613-.00008401c.001176.003613.007563.008151.004874.0118488-.001849.002689-.002773.005126.00058819.00605.003361.00058829.007563.00058829.008488-.002101.00092439-.003361-.001765-.007311-.00395-.0100841z"/><path d="m.58588365.5046193.00075632.00084034.00075631.00067229.00075632.00075632.00084033.00067223.00084035.00067231.00084033.00058825.00084038.00058826.00084033.00067223.00092437.00058828.00092437.00058824.00092436.00058822.00092446.00058825.00092434.00058825.00092438.0006723.001008.00058819.00092438.00067228c.003361.002437.006975.003025.0109245.002437.002185-.00025208.002185-.003613.001261-.004538-.005546-.005462-.0131094-.008487-.0189078-.0136136-.006639-.005546-.0111766-.012185-.017227-.0176473-.00092442.001177-.002437.00033617-.003025.00092438-.002437.002101-.0006723.005126.00025207.007227.002101.006134.007563.0103362.0127732.0148741z"/><path d="m.58378282.50621596-.00084033-.00084034-.00075632-.00084031-.00075631-.00084037-.0006723-.00084032-.00075632-.00084039-.00067226-.00084033-.001345-.001765-.00075631-.00084034-.00067231-.00084035-.00075632-.0008403-.00075622-.00075632-.00067231-.0008404-.00084032-.00075632-.00075632-.00067222-.00084038-.00075632c-.00092437.00126-.002437 0-.002773.00058821-.002437.003361-.002101.008235-.00033615.0106724.006723.009412.0133615.0157984.0236977.0206724.002437.00084033.006723.002353.008571.00084033.001177-.00084033-.00092437-.004538-.002185-.005714-.004874-.005462-.009664-.008824-.0151262-.0139497z"/><path d="m.57857266.51957747-.00050422-.00042021-.00050416-.00042014-.00092442-.00084033-.00092437-.00084037-.00084039-.00092437-.00084033-.00084038-.00075631-.00092438-.00084033-.00092438-.00075626-.00092438-.001429-.001933-.001513-.001849-.00075631-.001008-.00084033-.00092443-.00075632-.00092437-.00084034-.00092434c-.00033612-.0005882-.001513-.0005882-.001849 0-.002101.002101-.003613.00605-.002689.007899.00605.0106724.0157145.024286.0278995.0248742.002437 0 .002437-.006639.001513-.008151-.002689-.004286-.007899-.006387-.0118489-.01z"/><path d="m.57521129.53445154-.001093-.001429-.001008-.001429-.002185-.002689-.002101-.002773-.002101-.002605-.002185-.002689-.002185-.002605-.002185-.002689-.002269-.002689c-.00084035-.001513-.00395-.002689-.004874-.001176-.001513.001513-.002101.005462-.00058821.006975.008235.0102522.0131094.0200002.0236977.026723.001176.00058821.003025.00058821.004286-.00033612.004202-.003361-.002437-.006639-.00521-.0105884z"/><path d="m.56159773.53445154-.00075632-.00084033-.00067228-.0009244-.001429-.001681-.001429-.001681-.001429-.001765-.00067228-.00084034-.0006723-.00084035-.00067231-.00084033-.00058815-.00084036-.0006723-.00084035-.00058825-.00092437-.00050421-.00084033-.00058825-.00084038c-.00058823-.001176-.004874-.00058823-.004202.00058829.00479.012437.0124371.0206724.0209246.0304204.00058825.00084034.003025.00084034.004286.00084034.001765 0 .001176-.003613.00058826-.004538-.004286-.004874-.006975-.008824-.0109245-.0136136z"/><path d="m.56336244.42999669h-.00016811l-.00016806-.00008403h-.00025208-.00016807-.00025214l-.00016804-.00008402-.00042016-.00008402-.00050422-.000084-.00042015-.00008408h-.0001681l-.00025208-.00008407h-.00016808-.00025208l-.00016811-.00008401h-.0002521-.00016804-.00016806l-.00025215.00008401h-.00016806-.00016805l-.00016806.00008407-.00016807.00008408-.00016809.000084-.00016808.00008402h-.00008401l-.00008404.00008402v.00008403l-.00008402.00008407-.00008407.00008402h-.00008401l-.00008401.000084v.00008406l-.00008404.0001681-.00008408.00008401c-.0005882.00092437 0 .002689-.001513.003613.00092437.00067231.00126.001849.002101.002773-.001513-.00067226-.002689-.001261-.00395-.00067226-.001513.00067226-.001765.001849-.001176.003025.002437.003697.005126.007059.009076.008824.003361.001849.006975.003025.009748.001513.001849-.001176.00092443-.004538.00033617-.006303-.001513-.004034-.006387-.00067229-.00916-.004034.004874.00033615.009748.00067229.0127732-.002101.001765-.001765-.001176-.00479-.003613-.005126-.003109-.00058826-.00521-.002101-.008571-.002101z"/><path d="m.56882467.45243392h-.00008405-.00008401-.00016808-.00008403-.00008402-.00008405l-.00008407-.00008403h-.00008401-.00008404-.00008402v-.00008402h-.00008402l-.00008405-.00008409v-.00008402h-.00008404v-.00008404-.00008402-.00008401c-.00058823.00058823-.00092435.00092434-.001513.00058823-.005126-.002773-.009076-.007563-.0139497-.009412-.002437-.001176.00058826.002773.001513.004874.00058826.0009244-.00092437.001177-.0006723.001765.003109.005546.007647.007647.0131094.008235.002101.00033617.005798.00033617.006975-.001513.002101-.003361-.002101-.003361-.004286-.00395z"/><path d="m.55916069.4582323-.00025209-.00016811-.0002521-.00016806-.00042015-.00025208-.0004202-.00033613-.00033611-.00033617-.0004202-.0003361-.00033612-.00033617-.0004202-.00042014-.00033611-.00033617-.00033617-.00033613-.00033613-.00042015-.00033611-.00042018-.00042021-.00033614-.0003361-.00042018-.00033621-.00042016-.00042011-.00033615-.00042021-.00042016c-.001513-.001513-.004202 0-.003866.001176.0005882.002185-.00058826.004286.00025206.006723-.001176-.00025208-.002689.00058825-.002437.001177.001261.002185-.001176.004286 0 .005798.00092438.001261.001597.003361.003109.00395.002353.00092441.004202.003025.006303.003613.004286.001261.008487.00395.0131094.002773.002689-.00092438.00092437-.004286.00025212-.005462-.002437-.003025-.007227-.001513-.0105884-.003613-.001513-.001261-.003361-.001597-.004538-.003361-.00033608-.00067231-.002773-.001849-.001597-.001513.005546.00084032.0112607.00605.0167229.002689.001261-.0009244.001513-.00395-.00025212-.004538-.00395-.00058823-.007311-.001765-.0103362-.003613z"/><path d="m.55521109.47789635-.0004202-.00016806-.00033611-.00025208-.0006723-.00050423-.00067231-.00050427-.00058816-.0004201-.00067229-.00050424-.00058826-.00058829-.00058826-.00050413-.00050419-.00050423-.00058824-.00050418-.00050417-.00050422-.001092-.001092-.001092-.001092-.00058825-.00050417-.00050421-.00050426c-.001849-.002101-.003025.002773-.001849.004538.004286.006723.0115127.009748.0188237.0118489.003025.00092437.004538-.001765.003025-.003614-.002437-.003361-.007227-.002437-.0105884-.004622z"/><path d="m.55428672.48705611-.00058826-.00025207-.00050419-.00025217-.00050421-.00025208-.00050423-.00025207-.00042013-.00033618-.00042022-.00025208-.00042016-.00025211-.00042017-.00033617-.00033614-.00025207-.00042018-.00025209-.00033614-.00033617-.00033609-.00025207-.00025214-.00025209-.00033615-.00033617-.00058825-.0005882-.00058821-.00058826-.00050419-.00058829-.00050423-.00058824-.00058823-.00058825-.00050423-.00058821-.00058823-.00058826-.00033615-.00025207-.00025207-.00033613-.00033618-.00025213-.00033609-.00033613c-.00058829-.00058824-.001261.00092439-.001849.00126.003697.003361-.00092442.00521.00033615.007311.003613.006387.0169749.0142018.0209246.009076.00395-.005126-.004202-.006975-.008487-.008487z"/><path d="m.54184962.48882081-.00008405-.00008401-.00008401-.00008405-.00008406-.00008401-.00016804-.00008402-.0000841-.00008404h-.00008403l-.00008402-.00008409-.00016805-.00008402-.00008401-.00008401h-.00008407l-.00016804-.00008406h-.00008409l-.00025206-.00008402-.00025212-.00008404-.00025208-.00008402h-.00025211-.00025213-.00025207-.00025212-.00033615-.00025208-.00025213l-.0002521.00008402h-.00016805l-.0002521.00008404-.00025214.00008402-.00016804.00008406h-.00025212l-.00016803.00008401-.00016813.00008402h-.00008402v.00008409h-.00008402l-.00008403.00008404h-.00008403v.00008402h-.00008406l-.00008401.00008401v.00008405h-.00008402v.00008401h.00008402c.003866.007311.0130253.0155464.0205884.0155464.002185 0 .00033616-.002773-.00025213-.00395-.00092434-.002101-.003361-.002101-.005462-.003025-.003698-.001849-.006723-.004874-.008824-.008572z"/><path d="m.54395051.50680416.00008401.00016811v.00025213l.00008405.00042015.000084.00042018.00008402.00042015v.00042017l.00008403.00025213v.00016803.00025215.00016806.00025209.00016806.00025211.00016806l-.00008403.0002521v.00016806l-.00008402.00025215v.00016807l-.000084.00016804-.00008405.00025211-.00008401.0001681-.00016811.00016807-.00008406.00016803-.00016807.00016806-.00016802.00016807-.00016806.00016808-.00008406.00008407-.00016811.00008402-.00008403.00008402-.00008403.00008404c.00058829.00025208.001177.001176.001177.001176.003361-.001849.002773-.006639.002101-.0103362 0-.001176-.001176-.001176-.002101-.001849-.001177.001261-.00025217.002773 0 .004622z"/><path d="m.54151347.50529162-.00008401-.00042021-.00016813-.00042015-.00008402-.00042018-.00016805-.00042015-.00016808-.00042023-.00016804-.00050417-.00016813-.00042017-.00016802-.00050422-.00033615-.001008-.00025208-.00042017-.00016808-.0005042-.00025213-.00042017-.00016804-.00050424-.00025212-.00042014-.00025208-.0004202-.00025211-.0004201-.00025212-.00033621-.00025209-.0004201-.00025211-.00025219-.00025211-.00033611-.00016804-.00016802-.00016812-.00008409-.00008403-.0001681-.00016805-.00008402-.00016808-.00008404-.00016803-.00008402-.00008406-.00008402-.00016809-.00008404-.00016805-.00008398h-.00016809-.00016803l-.00008404-.00008409h-.00016811-.00016805-.00016808l-.00016803.00008409h-.00016807l-.0001681.00008398-.00016806.00008404-.00016807.00008402-.00016806.00008402-.00016805.00016806c-.003025.002101-.004286-.00067223-.00521.00092442-.005126.007563.002773.0121009.008235.0142018.003613.001513.005462-.002689.004538-.005714z"/><path d="m.6593298.30369294-.001261.001429-.001176.001429-.001261.001513-.00058823.00067228-.00058826.00075631-.00058821.00075632-.00058825.00075626-.00050423.00075631-.00058826.00075632-.00050416.00084034-.00050421.00075631-.00042016.00084037-.00050424.00084033c-.0103362.0188237-.0188237.0376474-.0276473.0567233.003698.004874.001513.0115967-.003025.0157984-.00058825.00033617.00025205.001261.00025205.00092442.007899-.002689.0140338-.007563.0206725-.0124371.002689-.002437.006387-.006051.008488-.009076.005462-.006975.008824-.0127732.0131093-.0206725.001513-.002437.002101-.005462.002689-.008824 0-.002101.001513-.006387.003025-.007815.008235-.008572.0167229-.0136977.0206725-.0246221.005798-.0161346.009412-.0352945.00092434-.0507568-.001513.001261-.002773.002437-.003613.004286-.003361.004874-.004874.0103362-.007647.0154623-.004874.0106724-.0103362.0203364-.0188237.0289079z"/><path d="m.43613423.49520746h-.00008399l-.00016807-.00008404h-.00016809l-.00008401-.00008407h-.00016813-.00016802-.00008406l-.00016808-.00008404h-.00008402-.00016805l-.00016811.00008404h-.00008399-.00016807-.00008407l-.00008402.00008407h-.00016806-.00008401l-.0000841.00008404h-.00016805l-.000084.00008402-.00008408.00008409h-.00008401l-.00008402.00008398-.00008404.00008404-.00008402.00008402-.00008406.00008402h-.00008401v.00008404l-.00008407.00008402-.00008401.00008409v.00008401.00008409c-.00092441.001849-.00033615.00395.001176.004538.002437.001261.00395-.0002521.004538-.002101.0003362-.00058828-.001513-.003025-.002437-.003361z"/><path d="m.42613414.52772876h-.0002521-.00025209l-.00025213.00008403h-.0002521l-.00016804.00008407-.0002521.00008404-.00025213.00008405-.00025208.00008402-.00025211.00016805-.00016804.00008403-.00025215.00016805-.00025208.00008407-.00016807.0001681-.00025214.00016804-.00016804.00016805-.00025211.00016806-.00042019.00033618-.00042015.0003361-.00042018.00033612-.00042015.00033617-.00042022.00033613-.00033609.00033616-.00042015.00033615-.00025215.00016802-.00016807.00016806c.003025.00092443.004874.00025214.007563-.00092437.00067227-.00033612.003697.00025214.002773-.00092434-.00092439-.001513-.00092439-.002437-.003361-.002437z"/><path d="m.386902.5241077c.006467-.005106.006205-.005443 0 0zm0 0c-.004875.003181-.0112113.004714-.0201862.001608-.003674.008229-.004038.0141164-.00035728.0223302.001173.002617.006842.007923.0105397.006074-.00395-.005714-.003676-.0145456.00035728-.0200078.002882-.003843.006255-.006982.009647-.0100039zm-.0169707.004466c-.00028925.001223.0006411.00247.0008932.003394.0006722.001177-.001197.002965-.002144.001786-.001409-.001754.00010399-.003728.00125-.005181z"/><path d="m.38361271.5444516c-.00058823 0-.001177 0-.001177-.00033608-.002101-.001177-.001849-.003613-.002437-.005462 0-.00058821-.001849-.00025207-.001513.00033619.00058821.003025.001261.005462.00395.009076.00025215.00033619.002101.00067229.002101-.00058823 0-.009748.00521-.0163867.00916-.0239498.00025209-.0006723-.001261-.0009244-.001513-.00033613-.005728.006558-.0120466.0151469-.008572.0212607z"/><path d="m.39546158.52041781c-.002147.002559-.0002042.004519-.00025212.006975.001176-.003866.002353-.003866.002353-.006303 0-.001513-.002101-.00092436-.002101-.00067222z"/><path d="m.38579758.52503969.007349-.005854c.001513-.001513.004415-.003894.006264-.002382.003361.002437.00092439.007647-.0009244.0105884.008235.001261.008235.007647.0182355.0131094.001261.00092437.001849-.0112607.002185-.0154624.00025208-.003025-.001849-.00395-.001513-.006723.002689.00092434.004202.004286.006639.004874.002101.00058823.00395.00033613.004538-.002437.00033619-.001513-.002437-.003361-.001849-.005462.002437.002437.005798.006051.008824.002101.002773-.003361-.003613-.003025-.006975-.003361-.00025207 0-.00092434-.00084033-.001513-.001513-.00033608-.00025208 0-.001765.00058829-.001765.003361-.00033614.007899-.001513.007563-.003697-.0002521-.003277-.005126-.005126-.009076-.003277-.00058821.00025209-.001176-.002185-.00092437-.002437.001849-.001513.004622-.002101.003698-.004538-.001261-.002437-.004286-.002185-.004874-.005546.004286.003109.0111766.00126.0121009-.002437.00092437-.002941-.005714-.003277-.008151-.001176 0-.00058826-.00033618-.002437 0-.002437.001849-.00084033.003361-.002101.004874-.003025-.001261-.001176-.002101-.003025-.004286-.002101.00033619-.00092443-.003025-.002185-.00092434-.002773.002185-.00058821.00395.002773.006135.001849.00058825 0 .001765-.00033609.001176-.00126-.001513-.002437-.009076-.007815-.0100001-.007815-.0140338-.00092437-.0252103.003277-.0379836.00874-.007563.003361-.0157985.009748-.019412.0176472-.003361.006639-.007647.0184876-.002101.0263868.00092442.0009244.001765.001597.001177.002773.003361.002101.0136976.00395.0191598-.00058823z"/><path d="m.42067191.54050206v.00025206.00025208.00033618.00025211l.00008405.00025209v.00025207l.00008402.00025215.00008402.00025209.00008404.00016806.00016807.00025212.00008406.00025207.00016806.00025213.00008405.00016802.00016804.00025215.00016805.00016808.00008405.00025208.00033617.00042017.0003361.00042015.00042022.00042023.00033609.00042016.00033614.00042019.00033616.00042015.00033611.00042019.00016806.0002521.00008408.00025208c.00092438-.003109.00033613-.004874-.00058825-.007311 0-.00092443.00058825-.003614-.00058824-.003025-.001849.00092437-.002773.00092437-.002773.003025z"/><path d="m.38600209.51430353c.001722 0 .00312.00158.00312.003527s-.005574.004313-.007296.004313c-.001104-.003308.002728-.005701.004177-.007839z" fill="#003d8f"/><g stroke="#003d8f" stroke-width=".001"><path d="m.46117674.59374503c-.00024947.00005093-.00055628.00015268-.00090105.0002974-.001489.00062482-.002192.001796-.002319.003l.002834.001891c.001173.00077758.002244.001589.003293.00241.00067578.00013014.001396.00034611.001973.00064391.002373.001225-.003183.002297-.005999.001157-.002068-.00083672-.003894-.0005295-.004782.00078636-.00069012.001023-.00063457.00108.00075946.001055.00332-.00005842.005059.00344.002776.005586-.00097264.0009142-.00009804.001344.001798.00090552.001666-.00038545.003088-.001981.002649-.002954-.00075977-.001684.006433-.002326.0104809-.00093947.001834.00062838.003789.002921.003285.00387-.00010079.00018964-.00065243.001093-.001205.002032-.001622.002756-.00050075.006203.001198.003684.001204-.001786.005718-.001126.00564.00082595-.0000637.001598.001355.001595.002026-.00001022.00099841-.002388.00071927-.003346-.001481-.00483-.002564-.001729-.003517-.0055-.002779-.0110173.00064268-.00481.00003147-.005272-.003536-.00279-.004516.003142-.005534.002796-.0133519-.004393-.001123-.001033-.001608-.001364-.002357-.001212z"/><path d="m.45330918.59856164c.00036327-.00053856.001674-.001568.002913-.002288.002612-.001518.003089-.002675.001536-.003723-.001591-.001073-.004504-.000024-.005315.001915-.001248.002985-.00056462.006217.00086622.004096z"/><path d="m.45347024.61356014c.00009646-.001157.00135-.002451.002812-.002903.002062-.00063744.002623-.001462.002002-.002942-.001725-.004111-.008147.00003094-.006657.004293.00076262.002181.001723.00299.001843.001552z"/><path d="m.47898404.63581499c.00012006-.00144.001681-.003051.003499-.003613.002566-.00079339.003265-.00182.002492-.003662-.002147-.005116-.0101407.00003851-.008286.005343.00094919.002715.002145.003721.002294.001931z"/><path d="m.50986546.64848962c.001831-.000882.00457-.004863.004098-.006477-.00069677-.002381-.002752-.001759-.005607.001696-.001414.001711-.002809.003398-.004731.003473-.001454.00005733.002752.002988.00624.001308z"/><path d="m.47389501.6220631c.001191.00000484.002628-.001162.00322-.002616.00083638-.002052.00173-.002552.003188-.001785.00405.002132-.00076061.00833-.004986.006424-.002162-.00097506-.002903-.00203-.001422-.002024z"/><path d="m.48770425.61585918c-.001652.00071408-.00303.003169-.001742.003669.002035.0007895.002917.00061459.006231.001082.00084111.00016198.001738.00043078.002455.00080144.002953.001525-.003961.002859-.007467.001441-.002574-.001041-.004847-.00065903-.005951.00097874-.00085895.001273-.00078981.001344.00094527.001313.004133-.00007271.006297.004281.003455.006953-.001211.001138-.00012203.001673.002237.001127.002073-.00047975.003843-.002465.003297-.003676-.00094564-.002096.008006-.002895.0130451-.001169.002283.0007821.004716.003636.004088.004817-.00012544.00023604-.00081204.00136-.0015.002529-.002019.00343-.00062325.00772.001491.004586.001499-.002223.007117-.001401.00702.001028-.00007928.001989.001686.001985.002521-.00001272.001243-.002972.00089523-.004165-.001843-.006012-.003191-.002152-.004377-.006845-.003459-.0137127.00079991-.005987.00003916-.006562-.004401-.003473-.005621.003911-.004384.002451-.0165313-.002766-.001572-.00067513-.003032.00012513-.003892.00049692z"/></g></g><g transform="matrix(.87034825 0 0 .6662773 40.635837 141.21439)"><g transform="matrix(1.002212 0 0 1.002212 -.249955 -2.149224)"><path d="m88.055177 41.151725h74.834483v150.889665l-28.70862 50h-17.41724l-28.708623-50z"/><path d="m112.26207 80.862148h26.42069v76.241222h-26.42069z" fill="#d40000"/></g><g id="a" transform="matrix(.277812 0 0 .277812 191.85162 136.9624)"><path d="m154.67033 45.089573h41.86982c2.77 0 5 2.23 5 5v293.509227s-.47818 28.81497-25.8594 28.83144c-26.03458.0171-26.01042-28.83144-26.01042-28.83144v-293.509227c0-2.77 2.23-5 5-5z" fill="#d40000" fill-rule="evenodd"/><path d="m253.92118 54.806162h-167.870113v67.703028h226.413043s-24.51044-19.74246-58.54293-67.703028z" fill-rule="evenodd"/></g><use height="304.20001" transform="matrix(-1 0 0 -1 481.18664 280.8558)" width="251" xlink:href="#a"/><g transform="matrix(.576563 0 0 .576563 -15.423959 37.01563)"><path id="b" d="m17.8043 339.78877c6.543683-66.46539 7.742878-139.7931 10.64334-210.28003 1.01844-24.87985 9.13567-26.41007 15.70354-33.03647 21.476885-16.83528 31.36695-24.577779 31.36695-24.577779v-55.499291c.30825-8.56902 4.933915-12.31585 9.103845-5.32743 0 0 6 71.738398 6 71.738398s-25.223675 19.844042-38.064535 32.269622c-7.4869 5.95045-7.91635 7.91405-8.15071 16.96147-2.06127 79.66293-5.095322 152.33729-11.81426 211.90839-3.83881 11.532-17.27268 9.02283-14.78817-4.15688z" stroke="#eee" stroke-linecap="round" stroke-linejoin="round" stroke-width="3"/><use height="352.8017" transform="matrix(-1 0 0 1 108.9308 0)" width="108.93076" xlink:href="#b"/><path d="m58.75111 99.57338c.0021 1.53255-.81427 2.94959-2.14114 3.71648-1.32688.76688-2.96226.76688-4.28914 0-1.32687-.76689-2.14326-2.18393-2.14114-3.71648-.0021-1.53255.81427-2.94959 2.14114-3.71648 1.32688-.76688 2.96226-.76688 4.28914 0 1.32687.76689 2.14326 2.18393 2.14114 3.71648z" fill="#eee" stroke="#000" stroke-linecap="round" stroke-linejoin="round" stroke-width="3"/></g></g></svg>