<svg height="312.5" width="312.5" xmlns="http://www.w3.org/2000/svg" xmlns:xlink="http://www.w3.org/1999/xlink"><path d="m0 0h312.5v312.5h-312.5z" fill="#003d8f"/><path d="m156.25 0v156.25h156.25v-156.25zm0 156.25h-156.25v156.25h156.25z" fill="#eee"/><g id="a"><g transform="matrix(.52939217 0 0 .52939217 5.839324 2.65923)"><path id="b" d="m69.141192 79.748434-2.789803-5.312653-5.995796.240286 3.205995-5.072373-3.205995-5.072364 5.995796.240286 2.789803-5.312658 2.789803 5.312658 5.995797-.240286-3.205995 5.072364 3.205995 5.072373-5.995797-.240286z" fill="#ffcd50"/><use height="303.20468" transform="translate(140.65088 -2.454523)" width="252" xlink:href="#b"/><use height="303.20468" transform="translate(80.24296 125.0036)" width="252" xlink:href="#b"/><use height="303.20468" transform="translate(129.70608 173.7295)" width="252" xlink:href="#b"/><use height="303.20468" transform="translate(15.97124 169.4666)" width="252" xlink:href="#b"/><use height="303.20468" transform="translate(181.8705 40.06344)" width="252" xlink:href="#b"/><use height="303.20468" transform="translate(-27.58401 111.0729)" width="252" xlink:href="#b"/><use height="303.20468" transform="translate(50.61387 47.2017)" width="252" xlink:href="#b"/><use height="303.20468" transform="translate(116.2532 29.74071)" width="252" xlink:href="#b"/><use height="303.20468" transform="translate(75.06776 -1.137391)" width="252" xlink:href="#b"/><use height="303.20468" transform="translate(173.6267 -36.86736)" width="252" xlink:href="#b"/><use height="303.20468" transform="translate(-43.140538 -37.574036)" width="252" xlink:href="#b"/><use height="303.20468" transform="translate(107.27419 -45.465724)" width="252" xlink:href="#b"/><use height="304.20001" transform="translate(168.1117 95.80054)" width="251" xlink:href="#b"/><use height="304.20001" transform="translate(67.81148 194.8039)" width="251" xlink:href="#b"/><use height="312.5" transform="translate(-52.052688 186.06067)" width="312.5" xlink:href="#b"/><use height="312.5" transform="translate(181.63066 174.98563)" width="312.5" xlink:href="#b"/><use height="312.5" transform="translate(-57.590208 65.342736)" width="312.5" xlink:href="#b"/><use height="312.5" transform="translate(53.160192 -47.622672)" width="312.5" xlink:href="#b"/></g><g fill="#eee" transform="matrix(.5112259 0 0 .5112259 138.339228 4.765052)"><path d="m-105.03045 231.96151c1.76319-2.10184 4.76874-2.09964 5.946193.004 1.28596 2.29787 2.84006.99249 3.59231-3.01739.74507-3.97155 5.44979-10.52302 14.09162-19.62301 5.28584-5.56609 6.26574-7.18672 6.82001-11.27957.356-2.62876 1.58307-6.95489 2.72682-9.61361l2.07955-4.83404-3.06447-4.83217c-1.68546-2.6577-3.06447-5.37834-3.06447-6.04588 0-1.57704-9.89963.89929-11.22279 2.80732-.49938.72012-.62949 7.12474-.29227 14.3863l.60782 13.08835-3.49141 6.69834c-5.08416 9.75405-8.77675 13.93036-17.408203 19.68863 0 0 2.67929 2.57238 2.67929 2.57238z"/><path d="m-175.92163 92.338518c0-.000002-16.48568.533821-16.48568.533821 1.45438.524477-.18329 1.189591-6.02904 2.512103-4.42139 1.000269-10.80812 3.218998-14.19338 4.898598s-6.43983 3.04592-6.78268 3.04592c-1.42225 0-13.46486 7.5936-13.94217 8.79236-.28511.71606-.0727 1.02686.47102.69083.56814-.35113.97344.68001.97344 2.4179 0 3.50165 2.20105 5.08194 7.1909 5.14981l3.32853.0314-2.98312 1.25605c-2.23165.9518-2.58759 1.43337-1.41306 1.88408.85858.32947 3.5174-.282 5.90344-1.35026 3.74609-1.67718 5.67084-1.86361 14.03638-1.28745l9.67159.69083.18841 15.19822c.1186 10.15562.70285 16.98792 1.72707 20.59924.84356 2.97437 1.78589 6.53812 2.10388 7.91312.31799 1.37501 1.11927 2.96695 1.78988 3.51695 8.19495 7.95611 10.50551 8.109 18.52675 7.5677.0421.23337.25537 1.2042.43962 2.16669.18425.9625-.14304 1.75847-.69083 1.75847-1.14108 0-11.08514 7.6282-17.49051 13.40835-2.16061 1.94972-3.56354 4.10551-4.61599 6.12325-1.32043 1.30057-2.41996 2.68194-3.20293 4.08217-.34187.93929-4.01202 6.4823-8.16433 12.3407-5.73785 8.09539-8.7305 11.44787-12.46631 13.87937-1.61083 1.04843-3.18394 2.2082-4.64739 3.23433-5.08611 3.56614 1.43604 2.41472 3.54834 3.89376.82784-2.27449 6.38004-6.08752 8.00733-5.49523.65463.23826 2.01737-1.05699 3.01452-2.88891 3.82677-7.03041 8.69748-13.38038 13.59676-18.05574.94072-.89771 1.78916-1.84562 2.63771-2.79471.65849-.56072 1.37696-1.18609 2.16668-1.97828 4.78116-4.7961 4.47438-5.68871 8.03873-7.37931 2.33826-1.10907 7.87791-3.84485 12.2779-6.09184 4.40001-2.24701 10.83312-4.65752 14.31899-5.33822 4.07325-.79539 6.56107-1.79617 6.93968-2.82612 4.61736-.3424 16.80967.80244 27.22491-.59662 10.27598-1.75424 14.51046-3.2088 27.507524-9.48319 5.500008-2.65516 11.294514-5.13789 12.874526-5.49522 2.589043-.58553 2.808269-.94687 2.323694-3.83096-.295724-1.76006-.87802-4.04946-1.287452-5.08701-.535621-1.3573-.348107-1.76982.628026-1.44446.746164.24873 2.071509 3.33807 2.95172 6.87688 2.956674 11.88715 5.007605 14.81164 17.333507 24.68141 0 0 1.015653 2.52713 3.328536 3.45414.000322.001.0314.15701.0314.15701 13.504601 2.06298 17.261882 5.81738 25.906057 19.81421 5.104854 8.26591 5.266533 8.72797 4.867199 13.59675-.227988 2.77968-1.030113 5.44399-1.789873 5.90344.00001-.00001 5.652231-1.97828 5.652231-1.97828-.993859-1.7214-1.111666-3.44315-.345415-5.087 1.061504-2.27729 1.317739-2.4274 3.045925-1.66427 3.77373 1.66638 1.365317-3.85113-8.760958-19.97122-9.509554-15.13834-9.991033-15.71706-14.099175-17.64752-1.716419-.80656-2.968793-1.48534-4.239173-2.6063-.714422-3.18541-.966245-8.0941-1.350255-18.21275-.292208-7.69997-.96519-15.4304-1.47586-17.1765-1.065092-3.64178-.654875-4.30197 2.512102-4.30197 1.250877 0 2.549-.45484 2.888918-1.00484.339928-.55 1.328691-1.00485 2.19809-1.00485 1.513049-.00001 4.203883-2.66663 4.270574-4.23917.01749-.41251-1.486763-.75363-3.359937-.75363-1.873164.00001-9.20155-1.17065-16.265864-2.5749-13.989306-2.78084-21.601459-2.72667-34.353001.25121-5.230419 1.22146-9.239493 1.36629-20.505036.69082-7.7-.46167-18.93282-.72793-24.96402-.59662-20.97242.45657-26.48227-3.55992-34.57281-25.18383-2.0384-5.44811-2.03399-5.45978-6.12325-5.27541-2.25227.10154-4.28456-.30174-4.49038-.87924-.21355-.59913 1.06762-1.03624 2.98312-1.03624 2.0603 0 5.12045-1.16474 7.91312-3.014521l4.55319-3.014523-4.39618-1.287453c-5.20749-1.537587-10.18116-.825236-13.78516 2.009682-1.43609 1.129612-3.15493 1.879143-3.79956 1.664268-2.30485-.768291 5.9795-5.765235 11.17886-6.751275z"/><path d="m-208.65289 107.0503c-2.94047-1.3467-2.86301-3.48841.17626-4.87319 3.05604-1.39243 7.57374-.32826 7.57374 1.78403 0 1.10562-.61631 1.43641-2.00138 1.07421-1.10076-.28785-1.78071-.16633-1.51101.27006.98941 1.60089-1.92856 2.8024-4.23761 1.74489z" fill="#003d8f"/><g fill="#d40000"><path d="m-198.90289 93.446779c2.63325-.24298 3.47886-1.251762 2.98603-1.429658-1.12265-.405236-2.46785-1.175748-2.95855-1.183103-2.47338-.03707-6.50429-.658213-9.41035-1.41267-5.50355-1.428802-10.89358-5.463788-13.5047-10.109633-2.71345-4.827942-4.35135-5.135071-3.9264-.736256.49423 5.115904-3.01042 4.941356-7.56243-.376644-2.31435-2.703789-3.6236-3.638921-3.6236-2.588151 0 2.79409 5.92897 8.577191 12.64287 12.331817 7.59755 4.24879 23.12913 5.709884 25.35713 5.504298z"/><path d="m-162.3279 74.392262c.95976-1.555047.98481-5.034142.72508-6.02735s.2415-3.186051 1.11385-4.872983c2.46802-4.772634 2.11518-6.441591-1.20754-5.711798-2.19336.481742-3.32143.0509-5.25-2.005133-2.25142-2.400212-2.44689-3.362615-2.34271-11.534128.11314-8.873655-.58003-10.71529-2.60735-6.927218-1.73209 3.23644-5.23073 3.438516-10.78683.623031-5.61217-2.843901-8.76935-6.285279-9.71463-10.589086-.34838-1.586168-1.33632-3.467302-2.19543-4.180298-1.38996-1.15357-1.4827-.826935-.84198 2.965487.89037 5.27007-.0985 6.612502-7.17743 9.743117-2.90951 1.286724-5.29002 2.866745-5.29002 3.511158 0 .774717.76227.912875 2.25.407802 1.2375-.420122 5.90894-.898592 10.38098-1.063266 7.71722-.284173 8.39723-.131528 13.36347 2.999779 5.75375 3.62784 10.36893 9.681877 12.19691 15.999475 1.95951 6.772165 1.53952 16.415336-.96228 22.094608l-1.65486 5.34854c2.48957-1.643117 4.47642-3.553963 4.47642-3.553963 2.27033-2.475 4.41522-4.776483 5.52435-7.227774z"/><path d="m-192.40289 92.859224c1.1.396681 13.55749.02427 16.46803-.527704 2.91054-.551973 6.79982-1.935536 8.64284-3.074583 3.17254-1.960737 7.47777-2.61378 11.85082-1.797604 2.97873.555944 3.03105-2.550222.0925-5.488824-1.40478-1.404778-2.55414-3.609522-2.55414-4.899429 0-3.949872 5.08548-10.606875 9.99442-13.082908 7.23661-3.6501 9.00558-5.027123 9.00558-7.010251 0-1.388992-.44766-1.679702-1.75-1.136442-5.77603 2.409428-7.1192 2.748149-8.61754 2.17318-3.2215-1.236205-3.86685-5.514204-2.05799-13.642395 2.17072-9.754252 2.85518-16.046807 1.74546-16.046807-.4848 0-1.39102 1.35-2.01383 3-1.40408 3.719838-3.51567 3.820325-6.28546.299112-1.7088-2.172392-2.06892-3.822802-1.84036-8.434452.15628-3.153461-.0154-6.033122-.38153-6.399248-.93555-.935545-2.79875.386999-2.79875 1.986616 0 2.788695-3.03503 2.291172-8.23224-1.349488-6.11591-4.284212-10.9231-6.242598-12.67133-5.162134-1.53324.94759-.28498 1.974907 6.59647 5.428931 7.72505 3.87745 15.5506 11.9928 18.07774 18.747197 7.28573 19.472851.45712 42.12225-15.16958 50.315042-5.90711 3.096992-15.75265 3.548383-20.90072.958239-6.41049-3.225305-10.61248-8.392425-12.90386-15.867678-1.3742-4.483135-2.30623-6.298995-2.57772-5.022137-1.38384 6.508579-7.23178 6.846124-13.44793.776217-2.07396-2.025162-3.77083-3.175312-3.77083-2.55589 0 2.109436 5.22879 7.348427 8.84007 8.857316 1.98039.827461 6.98904 4.775584 11.13032 8.773607 4.14129 3.998024 8.87961 7.762367 10.52961 8.365207s3.9 1.420629 5 1.81731z"/></g><path d="m-146.05897 185.78245c-.79589.004-1.49531.02-2.07248.0628-.37862 1.02995-2.86643 2.03072-6.93969 2.82611-1.30719.25526-3.02178.74239-4.8986 1.38166-.17379.26416-.35277.49405-.53382.81643-1.53679 2.73641-2.62284 5.1529-3.39134 6.93969-3.09471 2.59366-2.52747 9.01366 3.01453 9.45178 4.7397.37469 9.29308.38865 10.11121.0628s5.87871-.12717 11.24166.43962c11.31791 1.19616 18.77793 3.92126 22.98574 8.41555.00001-.00001-1.47586-7.37931-1.47586-7.37931-2.58021.90018-4.55393-.57993-4.11357-3.07732.32185-1.82538-.003-2.09231-2.4493-1.88408-2.34924.19996-10.84191-1.69358-19.72001-3.10872-3.82367-.6095-7.76121-.63215-10.99045-1.94688 3.23489-4.39547 6.42109-6.21607 8.35275-8.35275 1.78095-1.96999 3.34005-3.61692 4.23917-4.61598-1.22006-.0263-2.39954-.0362-3.35994-.0314z"/><g fill="#d40000"><path d="m-19.548927 229.34544c-1.823847-3.159-4.064458 1.044-5.642747 1.99848-1.57828.9545-4.00218 12.408-2.699747 12.757.47118.12625 1.514988-1.28274 2.319574-3.1311 1.568086-3.60238 3.029941-5.16291 2.306213-2.46191-.659758 2.46224.649162 4.01307 2.490032 2.95025 2.276898-1.31458 3.050527-8.95371 1.226675-12.11272z"/><path d="m-219.28444 237.84525c.28012-1.04547-.65997-2.49858-4.94903-2.6693-6.05326 4.73931-6.2271 6.01922-3.52949 4.77902 1.06734-.4907 2.1645-1.59043 2.43812-2.44384.28944-.90274.56448-1.0165.65767-.27206.0881.7038-.55736 2.04494-1.43436 2.98032-2.04125 2.17714-.7008 2.52894 3.22625.84673 1.69483-.72601 3.3107-2.17539 3.59084-3.22087z"/><path d="m-118.02226 208.78855c-2.3468.81874-2.66751 2.97354 1.46902 7.3917 4.13653 4.41815 4.91216 4.94527 5.1652 3.51025.12558-.71222-.99739-2.11785-2.4955-3.12364-1.4981-1.00578-2.65023-2.24609-2.56027-2.75625.09-.51015 1.37181-.006 2.84858 1.12119 2.49746 1.90562 2.70365 1.92606 2.95169.29268.38427-2.53052-5.03191-7.25467-7.37872-6.43593z"/><path d="m-105.03045 231.96151c.75484-.89982 1.01736-3.16783-2.67929-2.57238-7.16887 4.78253-14.57835 11.93633-12.36295 11.93633.5367 0 2.3946-1.6875 4.12868-3.75 2.23769-2.6615 2.80908-3.02434 1.96849-1.25-.6514 1.375-1.89901 3.31814-2.77247 4.31808-1.50795 1.72633-1.36892 1.80203 2.75474 1.5 4.05518-.29701 4.45038-.59057 5.9666-4.43203.89307-2.26268 2.24136-4.85018 2.9962-5.75z"/></g></g></g><g id="c" transform="matrix(.17966619 0 0 .17966619 4.07979 105.28272)"><g fill="#ffcd50" stroke="#ffcd50" stroke-linecap="round" stroke-width=".8974"><path d="m218.179 430.097s11.666-14.358 115.76-30.51l7.179 33.202s-22.42748 12.02631-118.44548 21.44831c-2.692-8.974-9.54729-21.93474-9.54729-21.93474zm238.699-37.241s28.715-18.845 50.252-16.152c0 0 8.525 3.141 22.883-6.282 0 0 23.331-32.753 52.496-11.666 0 0 12.563 7.627 30.51-5.384 0 0 22.435-22.434 45.317-4.487 0 0 5.384 7.179 17.498 3.589 0 0 21.985-4.487 21.985 13.46 0 0-1.794 8.525 9.423 13.012 0 0 23.78 29.613-13.012 41.728 0 0-18.396 1.795-29.613 14.807 0 0-14.357 24.677-38.587-1.795 0 0-15.255-13.012-37.24 1.346 0 0-25.575 19.742-46.214 0 0 0-16.153-10.32-36.344-2.692 0 0-17.947 6.281-49.354 0z"/><path d="m123.956 450.288s-13.46-7.179-14.358 6.281c0 0-1.795 11.217 7.179 17.947 0 0 9.871 10.769 18.845-.897l16.153-2.692 34.1-9.871s11.217-11.217-.449-16.601l-.633 6.605-5.2 6.855-7.249-3.907-7.108 7.047-6.387-3.749-4.382 6.441-9.527-2.852-3.484 5.993-9.976-1.505z"/></g><g fill="#d40000"><path d="m346.502 371.768 31.856-11.217 33.203 2.243 23.78 7.628 18.395 11.217-1.794 34.997-15.704 23.781-19.405 18.464-22.836-.817-29.1-13.609-15.254-21.537z"/><path d="m165.641 415.392c3.008-1.096 7.005 2.297 8.926 7.578l6.745 18.529c1.922 5.281 1.041 10.449-1.967 11.543-3.009 1.096-7.005-2.298-8.928-7.579l-6.745-18.529c-1.921-5.28-1.041-10.447 1.969-11.542z"/><path d="m151.996 419.5c2.545-.927 6.166 2.603 8.087 7.883l6.564 18.035c1.922 5.281 1.418 10.313-1.127 11.238s-6.164-2.604-8.087-7.884l-6.564-18.035c-1.922-5.279-1.417-10.312 1.127-11.237z"/><path d="m140.234 426.877c2.846-1.036 6.711 2.405 8.632 7.686l5.112 14.047c1.923 5.281 1.174 10.402-1.672 11.438s-6.711-2.406-8.634-7.687l-5.112-14.048c-1.92-5.279-1.172-10.4 1.674-11.436z"/><path d="m128.258 435.8c2.769-1.008 6.572 2.456 8.493 7.736l3.19 8.765c1.923 5.281 1.236 10.377-1.534 11.385-2.769 1.008-6.572-2.456-8.493-7.734l-3.19-8.765c-1.922-5.281-1.235-10.379 1.534-11.387z"/><path d="m175.897 411.99 19.847 5.993 14.358 12.563 7.179 15.255 3.589 9.871-6.281 18.845-17.827 19.742 1.795 4.487 4.366.897 10.769 20.639 12.116 15.367 2.601 3.3 1.828-2.802 1.634-2.506 4.615-7.077c4.936-18.845 24.229-25.126 24.229-25.126l9.871-17.05c.449-16.152 17.05-26.921 17.05-26.921l13.461-6.282 19.382-.897 17.05-4.487 140.886 3.59 6.281-3.35 23.507.776 13.584 7.958 8.195 11.666 6.762 16.152 17.947 18.845 17.05 26.023 12.563 25.126 4.487 15.255 7.179 24.229-1.017 9.871c-3.021 9.871-37.57 38.587-37.57 38.587l-40.381 24.229-6.281 11.666-4.487 6.281-17.05-1.795-14.807 10.769-5.833-3.59-3.56242-6.84196-9.00058.56096s-5.35047-2.3472-5.35047-8.91191l-7.21353-1.85709-3.19698-8.30091-9.61851.057-5.57951-7.45907c1.26244-4.03982 10.90571-13.26449 10.90571-13.26449 9.84707-4.5448 24.17485-5.49695 24.17485-5.49695l15.65497-4.62143 6.14147-8.18713c14.701-14.516 12.668 4.199 12.668 4.199l11.666-5.384 15.255-23.332 16.153-13.46.536-10.769-14.895-6.282-12.563-10.768-7.18-16.153-3.589-14.358-6.281-.897 1.794 43.073-7.179 32.305-4.144 13.299-5.07553 6.19844-5.47551 11.51854-10.88096 3.36591-23.13549 4.487-12.80753 9.90551 1.29002 8.0466s.67027 4.20693 6.73 4.20693l5.43302-.48533s-2.01991 8.0466 5.30227 9.05655c0 0 4.67986.50498 5.18484 4.79729l4.79729 9.50656-36.31542-4.486-49.41198-.8686c-20.91295 0-51.34551-8.63796-51.34551-8.63796-1.84526-3.07545-3.33751-49.72046-3.33751-49.72046l-11.666-40.83v-30.062l3.589-19.742-.897-5.384-4.038.449-4.487 18.396-5.833 21.537-20.64 22.434-15.255 16.152-13.012 13.909-8.525 6.281-10.768-3.141-28.267-30.51-24.678-49.355-5.829-28.264-.449-12.563-3.589-8.076-9.871-5.833-10.769-5.384-1.794-4.936 22.434-5.384 17.499-4.038 11.666-3.589 5.384-8.077-1.795-9.871-7.179-7.179-3.246-9.133-4.83-4.776-3.247-8.684z" stroke="#eee"/><path d="m297.238 753.596s-18.705 49.303-10.859 119.35c0 0 4.487 9.871 0 16.152 0 0-8.076 5.385-3.589 17.947 0 0 6.281 10.769 0 17.947 0 0-13.117 10.607-8.182 91.818 0 0 1.9 22.147-10.663 32.915l-25.575 21.089s-5.384 13.46 5.833 5.833c0 0 7.627-6.282 3.589 3.589 0 0-4.038 10.769 4.038 4.936 0 0 6.73-4.038 5.833 4.038 0 0-5.041 11.505 5.384 5.833 0 0 8.076-7.628 7.627 2.692 0 0-2.692 11.217 8.077 2.691 0 0 8.525-19.293 5.384 1.347 0 0 8.974 19.742 16.602-1.347l1.794-10.319 6.131-6.73 4.189-13.012 7.179-7.627s5.833-6.73-.897-19.742c0 0-8.525-10.32 1.346-30.062 0 0 29.508-42.786 20.085-81.822 0 0-.343-14.645 6.387-24.067l12.115-39.035c1.854-7.192 5.933-8.826 9.194-15.35 0 0 12.237-8.974 18.175-29.967 0 0 8.076-12.563 11.217-40.83l3.589-6.73 3.589 7.179s7.972 57.271 21.881 81.05c0 0-1.347 17.499 7.179 25.127l1.795 17.947s-12.563 55.637 9.871 102.299c0 0 8.974 20.64-.344 45.479 0 0-15.704 42.625 11.666 40.83 0 0 21.536 1.795 30.959-7.179 0 0 8.974-6.73 18.396 1.346 0 0 5.385 6.73 28.716 5.385 0 0 32.754 3.141 38.138-6.73 0 0 9.871-19.294-19.293-8.974l-1.795-3.141 11.217-2.692 8.076.897s1.795-7.628-8.974-7.628l-6.306.287-3.564.162s4.336-1.206 5.728-2.854c1.363-1.612-.169-3.66-5.279-4.326 0 0-33.651 5.833-57.88-36.343 0 0-4.487-21.088 4.038-60.123 0 0 8.076-34.791-5.384-35.239l-17.155-3.509s-7.628-3.59-.344-4.774l18.396 2.243s8.525 1.795 6.282-10.319c0 0-3.59-36.344 1.794-44.42 0 0 11.218-10.319 6.282-91.979l-1.347-9.423z"/></g><path d="m384.966 352.471-2.91-7.273 5.333-3.395v-4.85l4.364-1.455 1.455-7.759s-38.792-1.455-46.063 12.609l-4.364-4.364s-30.379 3.479-10.183 44.128c0 0 20.364 8.245 22.79-1.455l-3.88-2.424.971-3.395s37.335 9.699 33.942-1.455c0 0-18.831-15.32 2.424-4.85l14.64-.6-.897 5.384 21.985-.897 3.59.897-1.347 6.73 1.795 3.141 17.05.449 4.936-.897-1.795 4.936-2.243 4.038 8.076 3.141 9.423-2.692s8.974-8.525 7.179-16.153c3.141-.448-.897-21.985-.897-21.985s-1.346-4.487-6.281-5.384c0 0-12.114-11.666-17.05-10.769l-.449 4.936-4.038 1.794s3.141-16.152-41.279-15.255l-1.225 8.076-5.384 3.141-.897 4.936-2.244 1.346-1.346 6.281z" fill="#250" stroke="#250" stroke-linecap="round" stroke-width=".8974"/><path d="m340.66314 377.57679-6.71118 5.38928 2.6438 7.62635-2.6438 8.94824c-8.97401 39.933-2.74548 39.55529-2.74548 39.55529l4.98254-1.83032-.91516 17.99817c-3.13999 15.704 2.23706 23.6925 2.23706 23.6925l5.38928-3.55896c2.24399 19.29401 8.54151 21.15038 8.54151 21.15039l5.79602-11.28699c-1.79401 24.67701 5.8977 26.94643 5.8977 26.94641l4.88086-8.94824c-1.34601 21.537 3.15222 22.3706 3.15222 22.37061l4.06738-12.50721c1.79499 19.29301 7.11792 20.13355 7.11792 20.13355l4.98255-10.27014c0 16.153 8.03308 17.48974 8.03308 17.48974l1.42358-13.42236c3.59-13.461 7.62634 1.72863 7.62634 1.72864l1.3219 14.33752c8.52501-5.384 7.62634-17.89649 7.62634-17.89648l5.79602 6.30444c7.179-3.59 5.89774-22.47229 5.89771-22.47229l7.62634 12.60889c5.38499-4.038 3.9657-19.82849 3.9657-19.82849l4.06738 6.30444c3.59-4.038 1.32187-13.93079 1.3219-13.93078l8.13477 3.15222c4.93601-12.563-.50843-26.43799-.50843-26.43799l5.89771 2.23706c3.14099-7.179-.50843-17.48974-.50843-17.48974 1.79499 5.833 7.62635 2.6438 7.62635 2.6438 2.69199-56.53401-5.79602-65.48486-5.79602-65.48486-4.038-6.73-10.37183-3.15222-10.37183-3.15222v25.62451c-17.05001 32.305-28.26827 13.42236-28.26831 13.42236-8.076-8.973-13.42236-1.72863-13.42236-1.72864-4.48701 5.833-9.8634.81348-9.8634.81348-6.28199-7.179-14.84592 3.66064-14.84595 3.66064-21.53601 8.974-24.40429-16.67627-24.40429-16.67627l-.81348-29.28515-2.54211-4.06738-11.69373-3.86402zm58.46863 62.73938c4.56903-.19292 9.97377.47947 15.86279 2.94885.00003 0 2.76429 5.96307-3.9657 4.16907 0 0-13.50423-2.20174-20.23523-.40674 0-.00001-9.41345 4.45967-4.37243-3.76233 0 0 5.09551-2.62732 12.71057-2.94885z" fill="#d40000" stroke="#eee" stroke-width="2"/><g fill="#eee"><path d="m329.99 522.83c11.128 4.667 20.818 8.974 31.946 13.999 3.23.719 8.614-3.23 10.052 2.154 0 4.667-4.667 3.589-7.538 3.23-3.949-.357-7.897-3.947-12.204-3.947-8.73445-2.85051-16.17955-9.15441-25.126-10.768-7.897-3.589-17.59-11.487-26.204-5.384-.717.357-.717 1.076-1.795.717-2.154-1.076-2.512-3.589-2.154-5.384 5.384-2.871 12.563-2.871 18.307-1.076 4.666 2.51 10.05 3.947 14.716 6.459z"/><path d="m509.104 528.574c-.357 5.025-6.103 2.513-9.331 2.154-8.974 2.512-17.947-3.589-27.282.359-14.357 6.101-28.354 13.639-44.149 16.153-1.795-.359-3.232-2.873-1.795-5.027 1.795-1.795 4.308 0 6.46 0 10.44774-2.76724 19.46264-9.11235 29.792-11.486 6.821-3.23 15.795-7.179 23.692-6.103 5.742 1.435 12.921 2.873 18.666-.717 1.794.718 3.947 2.153 3.947 4.667z"/><path d="m353.681 571.647c1.076 0 2.871-1.076 3.589.719 1.076 1.076 0 2.512-.359 3.589-1.435 1.076-3.589 1.795-5.384 1.076-2.871-2.154-6.103-3.23-7.538-6.82-2.511-.718-5.025-3.949-7.538-1.794-1.795.359-5.384 0-5.384-2.873 1.795-6.46 7.179-1.436 10.769-3.589l5.025 2.873c1.17183 3.96756 3.37303 5.28073 6.82 6.819z"/><path d="m477.874 561.238c-.357 1.436-1.434 3.23-3.589 3.949-6.461.357-12.921 3.23-16.511 8.614-.718.717-2.513 2.511-4.308 1.436-4.666-2.154.719-4.308 1.438-6.82 5.741-3.949 13.639-4.667 17.947-9.692 1.795.718 4.666 0 5.023 2.513z"/><path d="m345.066 590.311c2.152-.715 3.23.719 4.666 1.795 3.589.719 7.538.719 10.05 3.95 0 2.51-2.512 2.152-3.947 3.229-3.949-3.947-10.051-2.871-14.357-6.46-2.514-2.13273-2.154-2.514-4.308-2.152-2.154-1.795-6.103 1.434-6.82-2.514 1.436-3.229 3.589-4.308 7.179-3.229 2.511 2.153 5.383 2.51 7.537 5.381z"/><path d="m473.928 588.516c-5.745 6.104-16.514 3.951-20.461 11.849-1.438.357-2.871 1.076-3.59-.361-1.076-.357-.357-2.514.358-3.59 6.24548-4.76402 15.58887-10.98255 22.616-10.41z"/><path d="m348.296 615.08c3.949 2.871 6.82 8.255 12.922 6.104 1.795 1.434.717 3.228-.359 4.665-3.589 0-6.819 2.152-9.333-.361.359-1.791-1.794-3.586-2.871-5.022-4.308-1.795-7.897-4.666-13.282-3.947-1.076-1.438-1.076-3.95 1.436-3.95 2.873-.719 4.667 0 7.179.719 1.436.715 2.514 2.51 4.308 1.792z"/><path d="m474.285 615.798c-2.514 4.305-6.103 0-8.974 2.871-6.103 1.434-8.974 8.616-15.076 7.179-1.795-1.076-.358-2.871.718-3.947 6.461-3.95 12.925-8.258 20.104-10.768 1.076 1.434 4.665 1.794 3.228 4.665z"/><path d="m407.88 656.359c-1.076 2.87-3.947 4.665-6.46 6.103-3.59 1.076-4.666-2.514-6.101-4.308.357-2.514-1.078-3.947-.719-5.746-.359-3.946 2.871-5.022 4.308-7.175 5.025 2.152 8.614 6.099 8.972 11.126z"/><g fill="none" stroke="#eee" stroke-width="3.5895"><path d="m228.393 535.826c15.704 9.871 19.293 17.499 23.332 30.51l.449 18.396"/><path d="m433.89 826.571c1.346 21.088 10.769 30.062 18.845 43.971m-.001 26.023c1.795 11.666 4.486 15.255 8.974 23.331m-4.487 88.839c1.347 6.282 2.692 21.985 2.692 29.613 0 10.319-5.384 15.255-5.384 22.435 0 6.729 3.589 10.768 8.974 11.665m-140.887-113.965c-3.141 14.357-4.487 26.023-8.076 41.278v10.769m24.229-154.347c-25.575 12.563-5.384 70.892-39.484 70.892-3.141 0-5.833-2.243-8.974-2.691m17.948-30.511h-4.487m34.1 8.973-8.076 19.742m39.483-91.531c-4.038 8.076-4.936 13.012-5.384 22.435"/></g></g><path d="m406.625 678.218s-45.766 2.691-87.941-7.628l-1.346-8.076s-21.505-6.281-21.057 17.498c0 0 .449 17.051-8.974 28.268 0 0-9.422 6.73-3.589 36.792 0 0-7.21 10.768 17.916 18.845 0 0 84.353 53.842 207.74 7.179 0 0 11.666-3.59 10.32-26.921 0 0 6.281-47.561-6.282-48.458 0 0-7.179-.897-5.384-8.076 0 0 .792-3.751-6.73-4.486 0 0-9.615-3.93-12.114-2.244-2.31 1.557-6.316 5.608-9.422 7.179-5.833.897-9.469 4.807-11.218 0 1.052.789-4.038-5.384-4.038-5.384-2.254-.764-18.36 1.297-20.264.646-4.165-1.424-7.105-2.44-7.105-2.44z" fill="#250" stroke="#250" stroke-linecap="round" stroke-width=".8974"/><g fill="none" stroke="#eee" stroke-width="3.5895"><path d="m440.171 663.25c-.897 9.422 4.936 8.974 10.32 8.974 9.87 0 13.46-5.385 21.088-7.628m-21.088 8.076c-.897 9.422 4.936 8.974 10.319 8.974 9.871 0 11.217-6.281 18.845-8.524"/><path d="m465.746 680.749c-.897 9.423 5.083 10.222 10.319 8.974 9.423-2.243 8.525-8.076 16.152-10.319 6.282.897 14.807 4.038 21.089 3.141"/><path d="m474.271 631.842c3.74647-5.48531 4.038-4.038 0 0-2.691 2.692-13.012 5.384-20.19 5.384-11.666 0-24.229 8.077-28.267 16.153-.449 8.076 4.486 9.871 8.076 9.871 3.589 0 27.818-8.974 27.818-9.423"/></g><path d="m401.584 394.042s.897 23.78 7.628 26.921c0 0 5.385-1.346 7.628 2.244 0 0 .329-2.123-7.887-6.825 0 0-2.434 1.44-5.125-20.096l-.449-3.141z" fill="#eee" stroke="#eee" stroke-width=".8974"/><g id="d"><path d="m390.72961 386.53435c-5.71317-1.07122-8.39123 6.24878-26.95903.89268" fill="none" stroke="#eee" stroke-linecap="round" stroke-width="3.253906"/><path d="m385.15293 398.83107c0 2.2452-1.82219 4.06738-4.06736 4.06738-2.24521 0-4.0674-1.82218-4.0674-4.06738 0-2.24519 1.82219-4.06736 4.0674-4.06736 2.24517 0 4.06736 1.82217 4.06736 4.06736z" fill="#eee"/></g><use height="304.20001" transform="matrix(-1 0 0 1 797.349 0)" width="251" xlink:href="#d"/></g><use height="312.5" transform="translate(156.25 -156.25)" width="312.5" xlink:href="#c"/><use height="312.5" transform="translate(156.24999 156.25)" width="312.5" xlink:href="#a"/></svg>