<svg height="312.5" width="312.5" xmlns="http://www.w3.org/2000/svg" xmlns:xlink="http://www.w3.org/1999/xlink"><path d="m0 0h312.5v312.5h-312.5z" fill="#d40000"/><g fill="#ffcd50" transform="matrix(1.0045616 0 0 1.0045616 19.016602 12.165967)"><g stroke="#d40000" stroke-linecap="round" transform="translate(-19.12075 -.475576)"><path d="m173.82088 136.82618c2.68342 3.58074 3.81437.0773 4.29404-1.43529 6.65873-21.01337 22.0863-21.45253 25.32116-20.48312 3.23485.96942 4.08736-1.47578 2.98592-2.4684-1.10179-.99303-6.77857-7.39183-4.59374-19.782465 2.18477-12.390646 14.5891-16.387534 16.7218-16.41086 2.1323-.0234 3.61443-1.157591 2.30581-2.18709-1.30864-1.029505-10.43227-12.025934-8.52054-22.867917 1.91166-10.841639 24.19745-32.594405 27.338-37.366079 3.60662-.130592-1.25028-2.498873-1.25028-2.498873-41.16207 24.154027-81.82496 38.425112-87.73356 44.170234-5.90893 5.745065-1.86196 12.804469 2.31044 13.390059 4.13292.580391 9.97716.0058 10.90804 2.582546 1.07766 2.983899-2.0817 4.153001-7.81864 10.128076-5.73616 5.97487-6.97284 19.878079-6.97282 19.878089"/><path d="m239.31781 10.410868s5.48677-4.4250053 10.40268 1.633009c0 0-7.09941-1.376082-9.57788 1.373148-.36997.410382-1.98893-2.231665-.8248-3.006157z"/><path d="m203.43885 114.8994c8.09588 1.18676 5.91215 8.18633 5.91215 8.18633s4.97933-2.94797 2.78118-7.16118c-1.95706-3.75184-6.61412-4.45794-6.61412-4.45794s.60367 2.45598-2.07921 3.43279z"/><path d="m173.81693 136.82483c2.8265 2.48679 5.23927 5.47844 1.46043 9.66027 0 0 5.7317-.88994 5.95403-6.17402.12034-2.86436-3.11671-4.92396-3.11671-4.92396s-.86367 1.95614-4.29775 1.43771z"/><g fill="none"><path d="m178.11474 135.38677s-17.97354-28.27627-21.32814-34.32206c-3.35418-6.046071.36661-14.731144 8.73859-10.091418 8.37201 4.639729 27.41664 16.951608 37.91444 23.925898"/><path d="m205.51885 111.4664s-26.00354-17.306828-34.60494-23.81006c-8.60143-6.503231-3.69039-10.901086 2.32525-10.671342 6.01526.229669 45.92853-.795896 45.92853-.795896"/><path d="m219.60337 72.581225s-32.96375-1.878439-49.883-2.243839c0 0 1.42905-4.663782-6.35545-6.036399-7.78449-1.372612-9.52084-6.042204-3.77502-10.919903 7.04004-3.207397 37.81283-14.908862 74.7922-35.794912"/></g></g><path d="m122.14947 17.248063c-5.73134 2.084318-8.84887 1.446719-12.87257 1.388366 2.49853.581311 6.0502 1.438159 7.93784 2.173095 1.83953-.464999 2.40883-1.401896 4.93473-3.561461zm-23.285313.347092c-1.295348.05543-2.383812.534255-3.289824 1.871276-.713886 1.017293-1.832745 1.287143-2.052368 2.972915-.274626 2.12175.220512 4.405385.769638 5.945829.466752 1.337083.841181 2.683364 2.625823 3.787825 1.867022 1.162619 2.586389 2.17656 3.818004 3.712371 1.17462 1.464735 1.4559 2.95101 2.82201 5.130919.762 1.584072-.0555.08101-1.44873 2.444731-1.05646 1.792366-2.402836 1.672824-3.501099 2.39946-.631284 1.160511 4.062709 3.273994 4.074549 6.926741-2.24856 7.164047-5.705572 11.414819-8.149102 13.536571.713876.290654 1.423551.312491 2.08255.196182-2.88291 1.889255-4.445945 6.340338-9.250745 7.183286-2.498528.406963-4.635738.728716-6.640013 3.199279 2.745542.203479 5.491315.383899 8.20947.558365-2.773038 1.714784-6.756958 4.006337-10.518383 4.587645-4.420423.697626-8.237542 3.020945-9.280927 4.270735-2.827911 3.429699-6.594015 7.619262-9.778927 8.752744 4.530295.261635 5.380491-1.658772 7.741651-3.984008 2.141643-2.092739 5.448355-3.369698 8.798016-3.486006 3.32217-.116189 6.720601-.704175 9.356382-2.535278-1.564899 2.819253-6.072758 2.786729-9.17529 3.048369-4.502798.406843-7.678998 2.55699-9.024381 4.300918 2.96528-.755653 5.630991-2.641465 8.843289-2.263641-.549131 2.644908-3.554565 3.686723-5.613828 3.802916-1.867022.08717-4.281036 2.18751-5.296919 4.134917-2.992777 5.696904-6.631813 10.780024-10.805112 10.518384 5.106807 2.55773 8.999337-1.83029 11.635113-5.08565 2.718156-3.31351 6.538949-5.322133 10.080746-4.014186-7.742587-.174465-10.088009 5.085946-13.657298 9.416746 3.075152-2.4997 6.246368-8.62141 10.337292-6.38347-2.608284 1.54057-7.253762 6.00558-8.571652 7.1682-3.047655 2.7322-4.28614 10.81707-12.193478 15.84548 5.16169.55217 8.322051-1.922 10.216565-5.20637 2.745652-4.73764 4.562809-10.81021 8.873471-10.54857-3.432036 1.04631-6.437234 7.53411-8.194379 11.1673 2.388656-1.54045 6.839039-11.63696 10.820202-8.14911-5.518686 3.11003-8.47988 5.72712-10.292019 18.89385 2.580898-5.26092 3.671724-8.80752 4.934736-10.23165 1.752848-1.99413 2.736859-2.20005 5.115828-2.05237.402206-1.03952.974276-1.91876 1.569458-3.41055 1.574045-2.97617 1.33994-2.92568 4.738554-9.50729.815036-1.57836 1.571032-3.33519 3.742553-7.651106.505732-1.005129 14.667058 1.426526 15.498392 4.150006.899454 2.94665-1.049773 6.70872-2.942732 9.6582-2.564586 3.99595-8.100825 10.42239-8.420743 10.94093-.315935.51208-5.891734 9.9394-6.11183 10.45802-.890114 2.09736-5.957786 10.25122-6.232557 10.75984 1.180642-1.42414 2.521828-4.69831 4.059462-5.22146 1.921904-.66848 2.395977-.80992 3.591643-.8451-1.740229 1.04368-2.187486 2.32263-3.033278 3.30492-.91101 1.05804-1.401507 4.04788-3.033279 8.45092 1.21887-1.74422 3.523505-5.62699 5.342192-6.86637 1.499638-1.02197 1.764645-1.01527 2.24855-1.44873-.72988 1.20473-3.689046 2.71697-4.331099 4.79891.925226-1.01751 2.851269-2.28408 3.742552-2.00709-1.19484 1.53331-1.589658 3.38372-1.463821 6.50419 1.850898-2.11977 3.44636-3.98836 4.678191-3.84819-.893113.97648-.391495 4.10785-.63382 6.65511.494259-2.00557 3.408452-1.7141 4.451827-5.08565 1.262892 1.24979.198495 4.62182.830002 5.11583.302002-1.24979 1.714827-2.44804 3.938734-3.32001-.439264 1.2788-1.779296 1.14513-1.916549 2.27874 1.427641.46499 2.416974-.90375 3.04837-1.25255-.658897 2.26707.607124 4.8251 1.705275 5.90055 0-1.56958 1.147791-3.96438 1.916545-5.41764-1.537513 9.73691 22.92912 7.67564 30.58933 8.3151 4.44792.37782 10.79517 2.67931 15.40785 5.64401 1.67477 1.10447 4.17058.87161 4.22546-3.54637.0275-3.2262-2.64038-7.14524-5.52328-7.72656-8.3741-1.68577-17.54131-8.11019-21.54986-14.56275 7.79758 7.29537 11.23401 10.6604 24.52278 11.21257 2.27889 3.7785 3.47572 7.33399 4.43673 11.25784.82363 3.40068.66062 7.28266-.43764 10.6542-1.42765 4.30178-4.36641 8.75759-7.00219 11.63511-2.69078 2.9647-3.63923 4.55507-4.27074 8.42074-.49425 3.05187.0701 6.3369.0151 9.44693-.0549 3.69133-1.25024 4.91271-.61873 8.6622.46675 2.81924.56243 3.3243 2.73146 5.01019 3.8439 2.99371 10.31027 6.5337 15.96621 8.48111 1.94939.66847 3.25754 1.42456 4.30092 2.76164 3.89878 5.05732 3.76508 4.93695 7.03237 6.56456 1.2904.63947 1.7566 1.85722.90546 3.45582-.71377 1.33697-1.9009 3.22651-2.80692 4.3311-2.69077 3.28438-5.82012 6.72423-7.13801 10.88057-.54913 1.74391-2.60538 3.1686-4.52728 1.19218-.54914-.58132-1.97106.74842-2.52019-.58855 5.21657-2.20905 3.864-9.70629.6791-8.60183-.85115 3.05188-4.5326 3.91647-6.86638 2.55037-2.96518 1.56958-1.88445 7.10158 3.60673 8.90365-.57663 3.66231-4.31016 3.74992-6.83619 2.76164-.49414-.17436-.33962 1.54086-1.328 1.19219 2.80052-6.53984-4.91151-8.11237-6.80602-4.01419 1.26301 1.10445 1.40594 7.72539-.24145 9.26583.35699 4.47614 5.31752 5.76175 7.34928-2.17309.68638.17436.11874 1.36763 1.16201 2.00709 1.07087.6685 2.49463 1.16539 3.75764 1.25255 1.15314.0872 2.64017-.6394 3.84819-.78473-.82364 1.19165-1.93252 2.67164-2.70128 3.86328-1.07077 1.65677.45166 1.50228-.0151 2.11273-5.21657-3.48784-9.88778.35703-7.03238 2.97292 2.66327.11632 4.97091 2.49318 6.39856 6.50419 3.65166 1.68578 6.50845-5.02956 2.14291-8.28492.49414-.75565 1.69357 1.04631 2.79183 0 .68638-.63946 1.62109-1.03507 2.44473-2.05237 1.89451 2.06361 4.2849.68592 5.79492-3.06346.76887 1.59861 1.67578 2.79072 2.74655 3.54637-4.83231 5.26093.60579 9.10333 3.51619 6.05146.93351-3.7785 2.08183-4.79774 5.26674-4.76873 1.64738-2.23805-.33234-5.96036-3.98401-4.76874-1.5924-2.41239.1125-6.04581 2.30891-6.68528 1.29051-.37781 2.72917.79086 4.07455.55836 1.51003-.26162 3.03928-1.27824 4.46692-1.94673-.43926-.37781-1.09453-1.02495-1.47891-1.78073 5.29905-1.59862 9.54828-3.77936 11.93693-7.09274-1.70227-.0582-3.3779-.66235-5.02528-1.79582 4.20079-2.15089 7.08739-4.13086 9.00929-5.9911-1.89452.29065-3.45622.0587-4.8291-.37728 3.67916-.14532 6.85679-.92153 8.88856-3.30491-.60412-.029-1.17391-.0302-1.75055-.0302 2.5809-3.48785 2.79307-7.91334 9.19038-16.31331-1.94938 1.9474-5.98508 1.78295-8.8131 1.8411 5.10681-.66861 9.09467-3.00297 10.71456-6.14202-4.17329 3.25535-9.64177 4.77046-16.01148 4.42165 2.69066-1.48242 4.89458-4.30625 5.55346-7.59074-3.45942 3.05187-8.24529 3.89579-12.25384 2.38437 1.45514-1.13349 2.7559-2.67833 3.30492-4.8291-3.07504 2.55772-7.85762 3.11057-10.85039 1.19218-4.53018-2.87754-7.74092-6.85446-10.92584-10.86548-4.11842-5.11547-1.92381-13.34344.73946-18.92403 2.52591-5.31895 3.84662-10.62922 2.00709-18.62222 2.19652 2.64491 3.10448 10.74566 1.23746 15.4833 1.9219 5.58059 4.02981 9.82181 7.37947 13.68748 5.62845 6.42342 8.75269 9.48766 17.26403 9.37148 9.82924-.14533 14.20057-6.48674 14.20057-20.96132.00001-5.17362-3.08001-16.50516-4.91964-24.6435-3.21229-14.21306 4.78145-22.21178 12.66129-19.01458 1.81636-.12649 5.01656-6.1649-3.68218-5.46292-6.3972-1.22077-17.26476 8.57752-14.07985 26.01678 1.20813 6.53984 4.01227 14.55004 4.75365 22.07804.87863 8.83595-2.88303 15.41288-8.20947 15.93603-4.8598.46512-10.43827-2.26902-13.43094-6.33819-5.49119-7.41169-8.20381-13.72316-10.42784-26.04696-1.04326-5.8421-2.60609-9.09062-7.57565-13.56675-3.95366-3.51688-8.65226-6.31016-13.26493-8.72257-9.24854-8.08437-23.65913-18.70632-33.50188-20.62931-1.24176-9.70612-2.29526-15.06497-2.16822-20.0241.12634-4.931624-1.22055-9.408533-1.06124-17.295786-.0275 2.703065.54897 8.241922 2.27873 7.515287-.6315-4.853955-1.11104-9.993315.61873-14.789119.52162.581303 1.26303 1.128933 1.97691 1.44873-.96101-4.883089-2.02437-9.900562-.67909-14.638209.49424-1.831098-.38556-2.734705-.46782-5.96092.52163.871961 1.20814 1.358672 1.97691 1.765639-.82364-2.674046-3.04871-6.271388-2.00709-8.767834 2.80029-6.711463 5.6197-14.057532 3.53128-19.527674-2.63579.494135-8.75027 1.507628-10.39766-1.28273-.79625-1.395119-1.99645-1.896489-3.56146-2.158004 1.23552-.842946 3.47978-.578061 4.63292 1.660003.30201.552289.34049.906619 2.09764.935638 11.53152.20348 16.63548-4.544388 21.24804-8.52638-3.45943 1.017292-5.85968.145391-9.70347-.784728-4.31057-1.017289-8.56335-.144842-12.73676 1.976913-1.20801.581309-2.69361.286726-3.984.286727.52164-1.366099 5.05703-1.997522 6.89655-2.927642-3.69056-2.217842-7.68303-2.739037-10.35238-3.561461-.68649.02914-2.62957-.686885-3.12382-.890365-1.72662-.343037-3.21684-.704335-4.512193-.64891zm-25.579139 101.833645c-.01.0259-.02038.0494-.03018.0755.12321-.0184.249781-.0461.377274-.0604-.124837-.009-.229455-.008-.347092-.0151zm-.03018.0755c-2.795363.41817-4.501976 1.89901-5.659101 4.73855 1.165498-.88889 3.754789-1.77683 5.1611-2.42964.08382-.95442.255754-1.66462.498001-2.30891zm26.665685-98.634412c.468027-.01091 1.049027.0091 1.810917.09055 2.63578.411174 4.6017 1.411082 6.79092 1.901458-1.83952.456699-3.71453-.01474-6.62492-.513092-4.777322-.57609-4.861725 1.136035-6.097265 2.113139-.200615-1.983233-.06519-2.4704 1.117251-3.033686 1.051938-.501115 1.599012-.525648 3.003097-.558365zm.181087 1.795822c2.98382.709046 3.78692.921717 7.27384 1.207275-.93351.523152-2.26804.839219-3.19928 1.13182-.90783.864785-1.50529 2.356012-2.55037 2.912551-1.850459.985431-4.069252-.237304-4.451828-2.640914.141623-2.024472.785999-2.523559 2.927638-2.610732zm30.12152 2.852187c.20625-.01094.40776-.009.61872 0 .2411.01028.47725.03185.72437.07545-2.88291 1.424134-5.74058 1.347018-9.14511 1.056366-2.19653 2.092736-5.14899 1.156845-4.87437 3.772734-5.76581-.581309-5.11646-3.943762 4.30092-4.466917 1.29049-.05815 3.00359.195016 4.37637.166 1.21926-.02222 2.55528-.527031 3.9991-.603637zm-8.85838 15.724757c1.37275 2.848512-3.61472 5.871842-3.9991 8.662198-.3295 2.470563-1.30953 5.280597-.21128 7.605833-1.94938-1.947407-.82893-5.196797-.36218-7.696379.52164-2.848512 5.06669-5.606952 4.57256-8.571652zm-5.35729 24.61332c1.34539 4.040025.44084 6.981879 1.8411 11.952022-2.11414-4.737646-1.59397-7.708513-1.8411-11.952022zm-13.89875 6.081647c.19213.901106-3.699966 2.993762-3.727463 10.60893 1.784643.377828 2.656883-2.449817 3.425643-2.188186-1.56501 3.720358-3.427029 2.437865-5.568556 3.833098 2.635781-2.296218.653686-8.010217 5.870376-12.253842zm-4.96492.694184c-3.020167 3.168174-4.230808 3.53802-8.54147 3.71237 3.020153-.755657 5.933182-1.968442 8.54147-3.71237zm-11.363475 17.701669c.109765 1.075451-4.33772 3.080691-4.557464 7.062559 4.722546 1.337086 8.509478-3.92432 9.250745-3.54637-3.734044 5.66776-8.896192 4.469617-11.861477 4.934736 2.306282-2.06372 2.143652-5.399054 7.168196-8.450925zm12.178386 22.470406c-1.256353 3.24075-1.306827 3.51774-2.761641 8.55656 2.910402 2.26709 5.9071-1.31855 6.42874-.67909-1.23552 1.3661-5.087429 3.24633-8.601835 2.11273 2.004264-1.07532 1.846589-7.08984 4.934736-9.9902zm-8.360379 16.22276c-.08238.95926-3.272425 2.37399-2.640914 6.8211 1.153131-.29066 1.345797-2.26205 3.350188-2.61073 2.278775-.40697 3.350951-2.95715 4.119826-3.3351-.6865 1.9184-2.004434 3.38982-3.953826 4.02928-1.949397.63947-3.082989 2.96954-4.648009 4.45183.686384-5.11545.175944-6.91483 3.772735-9.35638zm8.118924 4.61782c-2.388666 1.9184-2.766273 3.74409-4.02928 5.74965.329499.26152 5.244542-1.05753 5.628919-1.08655-1.867021.90099-6.806524 3.01089-8.179288 3.21437 2.937783-2.38339 3.175105-6.88919 6.579649-7.87747zm11.861474 5.96093c.73065-.0624 1.79235.81663 1.43364 1.79582-2.33377 6.19091-5.75068 9.29098-10.47311 8.76783.90601-1.4823 7.6369-.0001 8.40565-9.8242.0343-.4905.30172-.71109.63382-.73945zm7.21347 2.95782c.54886.0167 1.17177.55304.96582 1.29782-2.08664 7.44082-7.35622 10.46354-9.25074 9.8242 1.15325-2.06372 5.92826-.60712 7.57565-10.51838.0721-.43599.37997-.61369.70927-.60364zm6.05147 2.77673c.0421-.005.0919-.003.13582 0 .58612.0454 1.29038.76708 1.10163 1.58455-1.61989 6.9757-7.50032 9.03738-9.4771 7.40965 1.01588-.95914 6.89743.29159 7.66619-8.22456.045-.50547.27856-.73804.57346-.76964zm12.49529 18.63731c-5.7657 3.22634-11.40248 4.7458-16.8113 5.3271-3.92618.40685-7.22585.72608-11.45402.37727-3.54179-.29065-9.795962 2.03094-11.031478 6.18729-.549136 1.86024-1.448377 4.55629-4.02928 6.09674-2.525914 1.51143-3.280031 3.23987-3.636916 6.26274-.302007 2.47056.860879 7.31351 1.93164 8.73765 2.333769 3.11003 3.212245 7.09206 2.278731 10.60893-.521639 1.91839-.829238 4.65855-.06036 6.11183.933503 1.77293 1.98687 3.94584-.648911 6.09674-4.914681 3.95285-10.333192 6.57394-12.419841 7.99819-1.812023 1.22078-4.807963 3.49269-5.659102 4.45183-2.580898 2.84852-6.58372 2.84686-8.752744-.43764-1.372768-2.06359-1.540845.69087-3.38037-.18109 4.310552-3.25535 4.554247-10.05124 1.177094-8.10383-1.262897 2.81937-3.569212 3.22682-6.534376 1.97691-3.624283 2.93567-1.036118 9.4062 3.576552 7.95292.164749 1.07545 1.1574 2.79802 1.871276 3.35019-1.31789 1.10447-5.994111 3.63257-7.696378 1.162-2.196521-3.25534-7.407154-3.66734-7.07765 1.04128 2.059268 1.33696 2.95625 8.40613 1.11673 8.81311.686384 5.6969 10.41759 3.48136 7.122922-4.88947 1.9219-.20348 1.073026 3.84599 2.912551 3.78783 1.64739-.0582 2.852772-.84564 3.923644-2.03728.878519.6975 1.389733 1.96955 1.554366 2.95783.192247 1.10446-1.834169 1.25248-1.916549 3.60673-4.640055-.37784-6.614302 3.57533-3.923643 5.90056 1.372768-.72666 5.099302 1.69565 5.236555 3.41055 3.898788 2.03459 7.083536-3.84182 2.278731-7.21347.60401-1.33697 2.16761.81277 2.112732-1.59964-.0275-1.07546 1.706154-1.63375 2.474913-1.34309.576513.23248 1.976725-1.21672 2.278732-1.85619.906127-1.9474 1.867736-3.63409 3.048369-3.16909-.384382.40697.138132 4.1567.769638 5.11582-3.102532 3.2262-1.180797 8.90366 2.278732 7.3342-.05499-1.48243 3.240451-3.15295 5.327101-1.55437 2.525914-1.13361 2.312139-5.74565-.543274-6.8211-.961001-.37782-2.199848-.26047-3.38037.0302-.08237-1.88925 2.546809-.2966 1.750549-3.69728-.301998-1.30794 3.112113-3.68563 4.210371-1.41855.604014 1.24992 2.19443 2.4432 3.018188-1.13182 2.608279 1.16262 7.266742-.0402 9.628018-1.08655-.988502-.72663-1.646163-2.6928-1.810913-4.43673 2.315689 2.68212 10.75913 1.34926 15.66439-1.53928-.6105.16147-1.52698-1.28941-2.06746-3.03328 2.60829 3.19721 3.04501 2.71135 3.92365 2.18819-1.09826-.78479-2.55519-3.46128-3.51619-5.17619 2.74565 2.20905 8.26373 3.31732 11.39366 1.28273-1.51004-1.83109-5.5972-3.43036-5.73456-7.87747 1.12577 2.81937 2.47159 4.90395 5.3271 6.06656-5.68345-7.41168-4.60732-11.47603-8.14911-17.55076 1.78466 2.12174 4.09102 4.73297 6.23256 4.58764-5.95795-6.53973-3.19182-10.34912-6.1571-18.51658 1.23552 1.45328 3.40663 3.87217 5.19128 4.88946-1.53753-3.66232-.13672-8.11584 3.35019-13.92893 4.00854-6.65603 15.97759-14.21355 26.82271-18.4862-3.10239-4.31009-7.07684-5.9275-13.39178-6.62512zm-54.765009 21.70077c-3.317505.0328-5.826971 1.68654-8.752744 4.78382-3.267287 3.45884-5.023104 7.76613-6.368375 9.19039 2.251399-.0872 4.312299-5.79038 7.771833-7.24365 3.267175-1.3661 5.520453-1.16158 9.748745.0302 4.090929 1.16262 5.711826-4.76254 2.746551-5.77983-1.95623-.67215-3.638051-.99584-5.14601-.98091zm-3.54637 6.67019c-1.752901.0109-3.497428.63542-4.98001 2.44473.741262.0872 3.677418-2.20947 6.670195-1.19218 3.43193 1.16262 4.619584 1.65233 6.157102-.12073-1.674765.43598-3.84534-.51474-6.096738-.95073-.576566-.10899-1.166247-.18472-1.750549-.18109zm8.85838 3.22946c-.329948.008-.654966.23138-.830001.75455-1.290389 3.89482-4.723464 3.51704-4.723464 9.03947.823642-.20348.749781-2.05776 3.742553-4.55746 1.125648-.93012 2.327867-.69952 2.822005-3.98401.102966-.69029-.461174-1.26616-1.011093-1.25255zm52.229739 18.95422c-.50288-.005-1.14259.0989-1.99201.31691-4.28317 1.10446-7.40739 9.53776-4.4971 15.43803 2.8829 5.81322 3.02234 9.93474-1.34309 12.02748 1.45514 1.68589 8.3116-1.5165 5.23655-9.56766-2.85541-7.4407.73893-9.38705 3.62183-11.36347 1.67488-1.13361 2.09551-3.94825 1.162-5.37238-.62289-.9392-1.08187-1.46791-2.18818-1.47891zm3.12382 5.77983c-.82364 1.7149-2.50512 1.97065-4.48201 3.77273-1.97678 1.80208-1.42441 5.98613-.87527 6.24765.27461-.84282.30501-4.17386 1.70527-5.19128 2.19652-1.54045 3.10289-2.21321 3.65201-4.8291zm2.02219.58855c-.27188.0342-.54385.26657-.73946.72436-.60413 1.42425-.60662 3.2746-.332 4.84419.82363 4.33079 2.12758 6.19623 4.70837 6.42874-1.09815-1.10446-2.89091-3.4003-2.36928-6.27783.27451-1.62774.4188-3.1483-.0754-4.57255-.25743-.74478-.73907-1.20396-1.19218-1.14691z"/><g stroke="#d40000" stroke-linecap="round"><path d="m116.3858 124.83829c8.52959-3.13108 20.0066 8.76632 26.62768 14.09311.67357.84089 1.32199 1.76294 1.94355 2.79307.24126.39979.56062.74496.91163 1.0062.35102.26123.74188.45002 1.14128.51649.39941.0665.80299.0217 1.18942-.16285.38643-.18452.75294-.50984 1.06504-1.00156.54524-.83645 1.11544-1.59885 1.71967-2.27612.60423-.67726 1.24376-1.2691 1.89386-1.80118s1.3116-.99563 1.99446-1.39654c.68287-.4009 1.38356-.73841 2.08608-1.02214 7.717-3.11779 16.23093.39693 16.86241 1.23941 2.68342 3.58074 3.81437.0773 4.29404-1.43529 6.65873-21.01337 22.0863-21.45253 25.32116-20.48312 3.23485.96942 4.08736-1.47578 2.98592-2.4684-1.10179-.99303-6.77857-7.39183-4.59374-19.782465 2.18477-12.390646 14.5891-16.387534 16.7218-16.41086 2.1323-.0234 3.61443-1.157591 2.30581-2.18709-1.30864-1.029505-10.43227-12.025934-8.52054-22.867917 1.91166-10.841639 24.19745-32.594405 27.338-37.366079 3.60662-.130592-1.25028-2.498873-1.25028-2.498873-41.16207 24.154027-81.82496 38.425112-87.73356 44.170234-5.90893 5.745065-1.86196 12.804469 2.31044 13.390059 4.13292.580391 9.97716.0058 10.90804 2.582546 1.07766 2.983899-2.0817 4.153001-7.81864 10.128076-5.73616 5.97487-6.97284 19.878079-6.97282 19.878089-.00001 0-8.71256-6.751212-19.71877-7.632553-4.70933-.377539-10.49175-.275869-13.90581.732402"/><path d="m239.31781 10.410868s5.48677-4.4250053 10.40268 1.633009c0 0-7.09941-1.376082-9.57788 1.373148-.36997.410382-1.98893-2.231665-.8248-3.006157z"/><path d="m219.88151 72.661077s4.65348.44806 6.58633 3.247461c1.22831 1.77834 1.32567 3.941107.0965 5.681604 0 0-1.67791-5.973203-7.39666-5.400697-.98806.09876-.72951-3.600894.71388-3.528368z"/><path d="m203.43885 114.8994c8.09588 1.18676 5.91215 8.18633 5.91215 8.18633s4.97933-2.94797 2.78118-7.16118c-1.95706-3.75184-6.61412-4.45794-6.61412-4.45794s.60367 2.45598-2.07921 3.43279z"/><path d="m173.81693 136.82483c2.8265 2.48679 5.23927 5.47844 1.46043 9.66027 0 0 5.7317-.88994 5.95403-6.17402.12034-2.86436-3.11671-4.92396-3.11671-4.92396s-.86367 1.95614-4.29775 1.43771z"/><path d="m145.1039 142.0011s.34269 3.96259-6.64978 5.98898c0 0 5.73271.67877 8.05592-.89081 2.29569-1.5511 1.99576-4.50794 1.99576-4.50794s-1.8582.87695-3.4019-.59023z" stroke-width=".823402"/><g fill="none"><path d="m118.10646 100.92936s5.97429-5.205637 15.65168-2.740499c9.6774 2.465129 10.27244 7.121839 10.09121 18.470059-.18125 11.34822 1.11145 25.07077 1.11145 25.07077"/><path d="m149.09263 142.44692s-.81404-22.73005-.30035-28.25344c.5137-5.52339.70736-8.36455 2.04774-8.13175 1.73453.30124 3.72596 3.24799 11.28012 13.50441 7.55418 10.25643 11.69679 17.25869 11.69679 17.25869"/><path d="m178.11474 135.38677s-17.97354-28.27627-21.32814-34.32206c-3.35418-6.046071.36661-14.731144 8.73859-10.091418 8.37201 4.639729 27.41664 16.951608 37.91444 23.925898"/><path d="m205.51885 111.4664s-26.00354-17.306828-34.60494-23.81006c-8.60143-6.503231-3.69039-10.901086 2.32525-10.671342 6.01526.229669 45.92853-.795896 45.92853-.795896"/><path d="m219.60337 72.581225s-32.96375-1.878439-49.883-2.243839c0 0 1.42905-4.663782-6.35545-6.036399-7.78449-1.372612-9.52084-6.042204-3.77502-10.919903 7.04004-3.207397 37.81283-14.908862 74.7922-35.794912"/></g></g><path d="m212.89505 137.79496-1.66598 8.85589 22.43926-15.01059-27.22093-.873z"/><path d="m100.57071 23.792646c.52164 0 .96101.494136.96101 1.104462 0 .61045-.43937 1.075446-.96101 1.075446-.52163 0-.961002-.464996-.961002-1.075446 0-.610326.439372-1.104462.961002-1.104462zm-2.111468 1.546308c.43926 1.104462 1.185003 1.22239 2.118508 1.919885-.658883.116314-1.35593.245665-1.87756-.364782-.52175-.610326-.657192-1.611642-.437565-2.338278z"/><path d="m37.942038 24.265335c-.229764-.0026-.476908.02403-.739456.06036-1.317886 1.773066-3.616291 2.675025-5.840193 2.384368-2.443645 2.790234-.972769 7.847352 3.365279 7.062559.686384 3.604167 3.526436 8.769238 6.821104 12.344387-2.80053-.116313-7.391319-1.126786-8.269834-2.173095-.411879-4.592439-4.334291-5.704631-5.734556-.996002 1.043269 1.046306 2.743059 4.129758 1.644912 6.745649.109756 3.284372 6.776763 7.065278 5.266737-2.293822 1.345276.348809.41171 1.860661 2.278732 2.761641 3.212404 1.569583 5.912475 2.72581 6.489103 4.934737.63139 2.499701-.630275 5.03804-1.810913 6.549467-2.910286-.116309-3.926497 3.772671-1.675094 4.557463 2.27878-.465125 4.082352 1.011638 4.768737 2.203277 4.008549.17434 4.15291-4.382317-.377274-6.504194.658892-1.395118 1.280808.583582 2.022186-.724365.604009-1.075446 1.043959-3.018 1.071456-5.372374 3.898784 9.678893 16.475388 30.248241 18.260035 33.154789.796256-.90098 1.623664-1.79913 2.474914-2.671091-11.943384-19.473853-16.013243-27.354037-17.550761-31.917333 3.486915 3.807644 3.985563 9.65552 18.290216 31.192968 1.48264-1.453275 3.018511-2.705755 4.693282-3.606735-3.047544-3.778509-21.493938-27.120172-23.058953-35.810794-.411873-2.325235.07846-5.868592 1.780731-8.571653 1.455148-2.296221-1.313467-2.128186-.407455-4.104735 3.432036 3.313511 7.320891-.515722 4.602736-3.335097-1.784642-.290656-3.810899-1.778888-4.195281-3.69728-3.15741-3.4297-7.795235.375363-3.621825 4.648009-.219743.842826-2.091782 7.185917-2.640914 11.574749-3.432032-3.284371-5.427942-7.003721-6.44383-10.578747-.768759-2.732201-2.180894.898833-2.867278-.845092 4.581729-2.697685 4.849928-6.932731 1.403457-6.972014zm50.735732 69.267404c-.162726-.01099-.32057-.004-.467819.01509-3.037258-.02329-2.837604 1.814162-4.150008 4.391462-1.696304 4.053819-3.851628 8.389709-5.976011 13.325299-4.283378 9.95162-8.541452 27.28173-15.679484 38.82898-2.274289 3.67914-5.245625 2.67288-8.073652-.0302-1.839515-1.71491-2.842785-2.73458-4.572554-7.53038-.79614-2.2672-.998315-.21575-1.629821-1.11673 2.937783-1.45339 3.29515-7.14249-.603638-6.47401-1.180633 1.56958-2.880954 1.88748-4.9951 1.13182-3.349546 2.70306-.08211 7.87637 3.953825 7.06256 1.030719 6.04106 1.126422 9.0749 7.069692 9.84926-3.516493-.63855-11.413728-1.90682-14.735888-4.14489.60401-4.76678-4.581043-8.39688-6.338194-4.24055.933509 3.1972.409933 5.63444-1.237456 8.13402.823636 4.88309 4.929569 4.06027 6.549466-1.02619 1.015884.93012-.453394 1.69074.452729 2.88237 1.48264 1.94741 3.076952 2.59742 5.493101 1.46382 1.400265 1.83111 5.447833 2.62215 9.671195.9216-3.201833 1.19398-9.514959 7.44431-13.413748 8.37442-3.981168-4.18535-6.747754-2.43769-5.704374 2.06746 1.647278.66848 2.751921 2.52287 2.806914 6.12692 4.008549 3.57515 7.415856-.26788 4.285827-6.45892 1.290504-.37783 1.539483 1.78526 3.214369 1.90146.960895.0582 1.830818-.58179 2.791824-1.97692 2.306286 1.04644 3.92827-.24243 5.191282-2.62582 2.251404.81381 4.42023.89987 6.534376-.81491 1.894403 1.86012 2.792036 2.36535 4.466918 2.656 1.345276.23263 2.031235.37072 2.882369-.58854-1.976894 4.21448.661659 6.95374 4.285826 4.51219.329499-1.36598 1.355712-2.41786 3.003096-3.28983 1.180633-2.67405-1.569983-6.01472-4.919645-3.486-2.96528-1.19163-5.347702-2.67937-7.379469-4.85928 11.064869-5.23178 14.517965-18.34188 21.353677-29.17079 2.311526-3.66186 2.349145-4.98718 5.372374-8.87347 1.579318-2.03017 7.63726-8.17082 7.802014-9.91474 4.064407-6.45037 2.254562-11.63534-.64891-13.506394-.206072-.01603-4.214225-3.351337-6.655103-3.516188zm.01509 16.449121c-1.949397 5.55146-8.189666 17.10078-12.419842 23.58714-4.920732 7.54521-6.231302 16.43163-12.299114 20.29731 5.24406-4.73764 7.410491-15.86604 12.23875-22.77223 3.727254-5.33135 7.538148-13.66318 12.480206-21.11222z"/><g fill="#003d8f"><path d="m89.308117 21.389033c-1.180633.871963-1.55186 1.803709-.975237 2.821002.933509 1.627614 3.293678 6.064402 3.266292 7.92464-.02749 1.191632.130072 1.83511 1.118459 2.09675 1.729769.43598 1.236838 1.063162 3.295986 2.225781.954027 1.619439.428428 1.093458 1.801414 3.042976-2.313613 2.70775-5.336919 3.766573-7.947984 4.774138-4.323358 1.668313-10.362061 3.11457-8.691072 7.909351 1.229721-3.433215 6.924959-4.624215 9.205762-4.909386 1.170023-.14629 4.029039-1.597693 5.918922-2.236532 1.880466-.635661 2.956099-1.42855 3.355374-1.806432 1.123647-1.063444 1.492057-.754437 2.345787-2.311801-1.12585-2.144701-1.32071-2.642478-2.167627-3.870923-.818325-1.186973-2.642483-3.833938-3.246498-4.182748-1.427651-.842949-2.409131-1.944538-2.820889-3.39781-.521746-1.831102-1.403187-5.025126-1.375801-7.408517 0-.755656.248679-1.519019-.465202-1.838689-.924348.219538-1.837946.549423-2.617686 1.1682zm-2.005153 2.271379c-5.381429 1.133479-15.929313-5.302247-12.625055 8.157039 3.054097-6.55838 9.703913.407101 14.476493 1.569493 2.056071.500774 2.54466-.205771 2.077904-1.600889-.690678-2.639299-2.069695-6.091062-3.929342-8.125643z"/><path d="m93.98517 36.438908c-.70144-.0183-1.5.4375-1.5.4375-2.090196.000001-3.142047.588813-5 1.625-1.857949 1.036185-4.539065-.141449-7.09375.6875-2.55469.828947-5.356534 2.300991-6.75 2.09375-.774186-.115137-2.244355-.697633-3.65625-1.21875l2.375-2.3125-12.4375-.28125 10.0625 7.53125-.4375-3.1875c.405182.209148.820612.437994 1.1875.65625 1.393459.828948 3.360797.875 5.21875.875 1.857954.000001 3.954543-.827301 5.8125-1.65625 1.857951-.828947 5.030543.965462 6.65625.34375 1.625711-.621709 2.496281-1.59674 3.8125-2.09375 1.131305-.427189 3.59375-.78125 3.59375-.78125.000001.000001-.468336-1.894498-1.1875-2.5-.179791-.151376-.422437-.212648-.65625-.21875z"/><path d="m31.301412 18.769237c-.497972-.02484-.997779.09165-1.534166.37634-1.716437.911019-2.009265 1.215039-2.009265 1.215039-.000001 0 2.289299.903564 3.147517 2.118256s1.427221 3.034824 1.999368 2.731151c1.716436 0 3.721595-1.516112 3.721595-1.516112s-.282928-2.118605-1.999369-3.333295c-1.180048-.8351-2.230136-1.536739-3.32568-1.591379zm24.358632 1.774173s-.0051.855588-.267242 2.279544c-.262153 1.423953-1.306518 3.704105-1.306518 3.419315 0 0-.528835 1.134852.781933 1.989225 1.310762.854373 1.57376.569886 1.57376.569886s1.841003-1.995363 1.841003-3.419316c0-1.423956-.136447-2.488522-.791833-3.698882-.655381-1.210364-1.831103-1.139772-1.831103-1.139772zm-29.089807 23.6879s-1.488225.20616-2.415077 1.817183c-.926853 1.611022-1.293931 3.017492-1.10856 4.225757.18537 1.20827.742339 2.215026.742339 2.215026.000001 0-.186344-1.211061 1.29662-2.419325 1.482963-1.208268 3.147519-1.204287 3.147519-1.204287-.000002 0 .5588-.805386.188059-2.215028-.370742-1.409641-1.66553-2.217948-1.8509-2.419326zm14.56965 23.236289c-.208545.02517-.296936.129033-.296936.129033.370739-.201378.179995 1.211061-.37612 2.419326-.556114 1.208265-2.217122 2.010731-2.217122 2.010731 0-.000004 2.958486-.000932 4.256079-.806445 1.297594-.805513 2.038962-1.81718 2.038962-1.81718 0-.000005-1.478327-.998002-2.405181-1.602132-.463425-.30207-.791142-.358502-.999682-.333333zm1.742021 63.160571c-1.112224 0-2.415077.60214-2.415077.60214s1.670908 1.01168 2.227017 1.81718c.556114.80551.742344 1.80643.742344 1.80643-.000005 0 .553304 1.00489 1.850897.60215 1.297594-.40276 2.036272-1.41151 1.850898-1.61289 0 0 .0037-1.00384-1.108559-2.01072-1.112219-1.0069-2.035296-1.20429-3.14752-1.20429zm-12.055592 14.69875s-2.404206.39878-3.701798 1.20429c-1.297594.8055-1.48468 2.62548-1.48468 4.23651v2.01073c0 .00001 1.669076-.80152 2.781299-1.20429 1.112221-.40275 2.227019 0 2.227019 0s1.296618-2.02042 1.296618-3.43007c0-1.40964-1.118458-2.81717-1.118458-2.81717zm43.9366 22.55888c-.000005.00001-1.109423.80446-1.850902 1.40859-.741489.60413-.742339 1.80643-.742339 1.80643.185365-.20137 1.299308 1.40952 1.484678 2.21503.185369.80552.366224 2.41933.366219 2.41933 0 0 1.111253-1.60598 1.296623-2.61288.185365-1.00689.37612-2.01751.37612-3.22577-.000005-1.20826-.930399-2.01073-.930399-2.01073zm-41.333464.60215c0 .20139-.935774.60307-1.306513 1.40858-.370745.80551-.920504 1.41046-.920504 3.02147 0 1.61103.364389 2.41828.920504 3.82792.556109 1.40964 1.306517 1.60213 1.306513 1.60213 0 0-.18806-.59524-.188055-1.60213 0-1.00689.367074-1.21598 1.108558-2.02148.74148-.80552 1.850898-1.2043 1.850898-1.2043 0 .00001.0064-2.21396-.920499-3.62361-.926854-1.40964-1.850898-1.40858-1.850902-1.40858zm22.933342 48.47256c-.367122.0165-.711505.10703-1.05907.25806-.926854.40276-1.672742.80644-1.672742.80644s1.116628.40171 1.672742 1.40859c.55611 1.00689.737819 1.80736 1.108559 2.61287s.554279 2.22578.554279 2.22578c0 .00001.924048.80352 1.850902.60215.926854-.20138 1.676282-.60308 2.603136-1.40859.926854-.80553.91781-1.41642.73244-1.21504 0-.00001.379784-.59816-.73244-1.80643-1.112223-1.20827-1.671766-2.02241-2.96936-2.82793-.810994-.50344-1.476579-.68343-2.088446-.6559zm-9.957247 23.01048c0 .00001-2.227876.60401-2.969355 2.21504-.741484 1.61103-.925024 3.02823-.554284 4.23651.370744 1.20825.742339 2.21502.742339 2.21502.000004.00001.547929-2.01365 1.474783-2.21502.926849-.2014 2.600446-.20139 2.415076 0 0-.00001.736964-1.01552.366224-2.82793-.370744-1.81239-1.474783-3.62362-1.474783-3.62362zm101.146223.24732c-.25778.009-.53671.0606-.86111.16128-1.29759.40276-2.7813.99999-2.7813.99999s1.66638 1.01459 2.59324 2.02149c.92686 1.00688 2.22702 3.21501 2.22702 3.21501-.00001.00001 1.48102 1.00783 2.59323.80644 1.11223-.20138 1.29211-.59724 1.66285-.99998.37074-.40277.74686-1.61289.37612-1.61289 0 .00001-.006-.60599-1.11846-1.61288-1.11222-1.0069-.73417-1.6109-2.21712-2.21503-1.11223-.4531-1.70112-.79176-2.47447-.76343zm-66.860038 16.87077c-1.112223 0-1.484677 1.21505-1.484677 1.21504 0 .40274.742339 1.80537.742339 3.21501 0 1.40965-.554285 2.41933-.554285 2.41933s1.112113-.20231 2.038962-.80644c.926854-.60413 1.300168-1.61476 2.227022-3.22577.926849-1.61102 0-2.21503 0-2.21503s-1.857137-.60214-2.969361-.60214zm53.606808.0753c-.38559.0177-.83972.10677-1.32631.33333-1.2976.60414-2.41325.80246-2.96936 2.01073-.55612 1.20825-1.48199 3.22471-1.29662 4.63435.18538 1.40964 1.29662 4.22576 1.29662 4.22576s.36708-1.4066 1.10856-2.01073c.74147-.60414 1.85714-1.01074 2.96935-1.01074 1.11223 0 1.48468.2043 1.48468.2043s.9304-.606.9304-1.61289 0-1.81612 0-3.22577c0-1.40964-.74771-3.41931-1.11846-3.41931 0-.00001-.43622-.15853-1.07886-.12903zm-75.570158 1.13977c-.69695 0-1.207541.39784-1.207541.39784.18537 0-.17816 1.00385-.17816 2.01073 0 1.0069.369765 2.41826 1.296619 3.82792.926854 1.40963 2.7813 2.21502 2.7813 2.21503 0 0-.376119-2.00676-.376119-3.21502 0-1.20827 1.108559-2.21504 1.108559-2.21503 0 0-.741364-1.21106-2.038957-2.41933-.4866-.4531-.96753-.60214-1.385701-.60214zm115.389248 16.31164s-1.66639.39293-2.59325.79569c-.92685.40276-1.10855 1.81718-1.10855 1.81718-.18537 0 1.2993 2.21397 1.48467 3.62362.18537 1.40964-.37612 2.21503-.37612 2.21502 0 0 2.2252-1.81028 2.78131-2.81717s.3689-2.41533.55427-3.62361c.18537-1.20826-.74233-2.01073-.74233-2.01073zm-32.06907 2.01073c.18538.60413-.3716 1.61382-.74234 2.41933-.37074.8055-.1773 1.81122.56418 3.62361.74148 1.8124.74136 1.80537 2.03896 3.21502 1.29759 1.40963 1.47478 1.01074 1.47478 1.01074s.18806-2.42026.18806-3.22577 1.67274-1.80643 1.67274-1.80643-.18354-.606-.55428-1.61289-.92674-1.60599-2.03896-2.61287c-1.11223-1.00689-2.60314-1.01074-2.60314-1.01074z"/></g></g><g id="a" fill="#eee" stroke="#d40000" stroke-width="2.473213"><g transform="matrix(.22041235 0 0 .22041235 25.497811 287.14139)"><path id="b" d="m-6 27-7 36c8 14 12 23 13 32 1-9 5-18 13-32l-7-36z"/><use height="100%" transform="matrix(.30901699 .95105652 -.95105652 .30901699 0 0)" width="100%" xlink:href="#b"/><use height="100%" transform="matrix(-.80901699 .58778525 -.58778525 -.80901699 0 0)" width="100%" xlink:href="#b"/><use height="100%" transform="matrix(-.80901699 -.58778525 .58778525 -.80901699 0 0)" width="100%" xlink:href="#b"/><use height="100%" transform="matrix(.30901699 -.95105652 .95105652 .30901699 0 0)" width="100%" xlink:href="#b"/></g><g transform="matrix(.22041235 0 0 .22041235 25.497811 287.14139)"><g id="c"><path d="m-19-76c-6.5 0-12.5 4-15 12s-2.01 14 1.69 19.5l32.31 44.5 32.31-44.5c3.7-5.5 4.19-11.5 1.69-19.5s-8.5-12-15-12c-2 0-8 1-10 2-5 2-7 2-9 2s-4 0-9-2c-2-1-8-2-10-2z"/><path d="m0-47c-1 20-5 32-7 42h14c-2-10-6-22-7-42z"/></g><use height="100%" transform="matrix(.30901699 .95105652 -.95105652 .30901699 0 0)" width="100%" xlink:href="#c"/><use height="100%" transform="matrix(-.80901699 .58778525 -.58778525 -.80901699 0 0)" width="100%" xlink:href="#c"/><use height="100%" transform="matrix(-.80901699 -.58778525 .58778525 -.80901699 0 0)" width="100%" xlink:href="#c"/><use height="100%" transform="matrix(.30901699 -.95105652 .95105652 .30901699 0 0)" width="100%" xlink:href="#c"/></g><circle cx="25.497811" cy="287.14139" r="5.510309" stroke-width=".545127"/></g><use height="304.20001" transform="translate(262.08074)" width="251" xlink:href="#a"/><use height="304.20001" transform="translate(262.08074 -264.24572)" width="251" xlink:href="#a"/><use height="304.20001" transform="translate(0 -264.24572)" width="251" xlink:href="#a"/></svg>