<svg height="312.5" width="312.5" xmlns="http://www.w3.org/2000/svg"><path d="m0 0h312.5v312.5h-312.5z" fill="#d40000"/><g transform="matrix(1.0924148 0 0 1.0924148 25.555163 -6.719546)"><path d="m104.48179 16.370285c2.3577 10.458162 1.98897 21.384329-1.0679 31.643518l-5.826728 15.0491c20.390128 4.706441 39.886028 12.926016 57.686498 24.320934l5.82672-15.049102c4.63055-9.595724 11.63877-17.722636 20.29673-23.536539-1.48805-3.223485-5.14009-4.658923-8.29634-3.26089-3.15621 1.398034-4.70361 5.136525-3.51518 8.49274l-3.27332 3.247611c-.21654-2.487944-2.03732-4.497689-4.40565-4.86285-2.36828-.365161-4.66826 1.009234-5.56507 3.325518-.59738 1.542973-.48105 3.286979.31537 4.728718.79648 1.441745 2.18442 2.420804 3.76335 2.654632l-2.18487 2.167943c-1.14424 1.401409-3.01949 1.881489-4.65538 1.1918-1.63586-.689696-2.66523-2.394374-2.55542-4.231916l5.82671-15.049097c1.32746.55967 2.83839-.10958 3.37472-1.494814.53634-1.385231-.10499-2.961888-1.43248-3.521558-1.32748-.559671-2.83839.109583-3.37472 1.494814-.43363 1.119912-.10324 2.404112.80962 3.146784l-10.01106 13.397126c-1.26296 1.593776-3.45684 1.97585-5.1473.896445-1.6905-1.079412-2.36305-3.291756-1.57796-5.19065l1.32128-5.043788c.99543 1.784947 2.87783 2.822856 4.85185 2.675206 1.97401-.147653 3.69529-1.455097 4.43659-3.369943.82412-2.128465.27128-4.567891-1.37914-6.08571-1.65042-1.517825-4.03907-1.783544-5.95905-.662916l.724-2.76376c2.96395-.218585 5.54953-2.180405 6.66259-5.055285 1.39195-3.595238.15215-7.71576-2.95936-9.835507l.34927-1.476562c.26816-.692616-.0525-1.480944-.71625-1.76078-.66372-.279834-1.41919.05479-1.68736.747407l-.73171 1.315324c-3.64932-.730659-7.28416 1.334689-8.67622 4.929886-1.11313 2.874849-.55917 6.160307 1.4274 8.46607l-1.31901 2.512891c-.63512-2.197863-2.53026-3.738216-4.7279-3.84275-2.1976-.104533-4.21919 1.249504-5.04328 3.377971-.74145 1.914781-.37363 4.103008.94807 5.640155 1.32169 1.537142 3.3667 2.155041 5.27098 1.592634l-2.40716 4.585968c-.69934 1.935048-2.65586 3.038958-4.59047 2.590014-1.93458-.448943-3.25837-2.314083-3.10589-4.376039l1.71702-16.893939c1.15104.127479 2.24359-.556795 2.67718-1.67672.53635-1.38523-.10501-2.961892-1.43246-3.521557-1.32748-.559671-2.8384.109582-3.37472 1.494815-.53634 1.385233.105 2.961886 1.43248 3.521556l-5.82672 15.0491c-1.14427 1.401408-3.01952 1.88148-4.65538 1.19179-1.63588-.689692-2.66522-2.394367-2.55543-4.231908l-.12847-3.143262c1.29144.976338 2.94161 1.278168 4.4743.818401 1.53266-.45977 2.77731-1.629984 3.37474-3.172943.89682-2.316269.15729-4.972135-1.78941-6.426201-1.94672-1.454081-4.59433-1.328247-6.40634.304463l-.19268-4.708893c3.08907-1.552802 4.46465-5.363729 3.12492-8.657287-1.33973-3.293565-4.92235-4.908287-8.1386-3.668168z" fill="#ffcd50"/><path d="m184.95818 83.709367c5.30967-1.028893-13.04043 4.504518-18.7837 3.824313-4.3459-.514705-7.62775-1.687173-16.27258-5.813473-1.17829-.562417-4.7419-1.354797-7.91914-1.760841-3.17724-.406054-4.99726-.796686-4.04449-.868067 3.11554-.233436 1.82494-1.549865-5.75496-5.870124-8.1863-4.66589-16.27953-7.465099-26.16908-9.051116-9.382284-1.504666-22.219835-1.935411-17.647434 1.089942 22.417754 14.832823 59.462394 25.644117 96.591384 18.449366z" fill="none" stroke="#d40000" stroke-width="3"/><g fill="#ffcd50" transform="translate(.000397 .150476)"><path d="m130.11974 277.95264c3.78802-5.52299 6.35848-12.9782 7.08881-20.55995.61986-6.43492.0924-11.7203-3.54695-35.54257-1.17587-7.69696-.50444-19.69805 1.47393-26.34466 1.3614-4.5738.99844-20.67526-.46606-20.67526-.43261 0-2.0924 1.22499-3.68842 2.72221-1.59601 1.49721-4.48282 3.83583-6.41512 5.19694-3.39519 2.39156-4.8591 5.60852-9.4596 20.78775-.27938.92179.18296.73411 1.21925-.49495 1.66926-1.97979 1.66926-1.97979 1.13722 0-1.74951 6.51006-2.15486 12.27998-1.47726 21.02776.81604 10.53482 1.86931 15.61656 4.87438 23.51742 4.52828 11.9056 6.53961 25.79194 4.69184 32.39262-1.05481 3.76807 1.31428 2.71664 4.56798-2.02731z"/><path d="m91.249225 273.57202c8.856525-6.78807 14.587565-19.7729 16.711555-37.8634 1.61763-13.77764 3.95625-28.33018 4.9314-30.68668 1.73735-4.19835 5.77182-17.83868 5.39299-18.23342-.80486-.83864-10.87913 4.46868-14.30095 7.53404-4.115227 3.68652-10.899902 17.28496-13.743181 27.54528-2.365626 8.53664-3.185179 17.40349-3.383652 36.60831-.08441 8.16662-.533681 15.62794-.998396 16.58071-1.300175 2.66564.69047 2.11728 5.390234-1.48484z"/><path d="m165.40719 273.97292c0-.46007-.86201-1.61659-1.91557-2.57004-1.05356-.95347-2.8913-3.80659-4.08385-6.34026-4.65039-9.88014-5.2472-13.59315-5.35459-33.31358-.0833-15.30135-.43346-19.77689-1.87796-24.0049-1.82117-5.33053-3.31626-7.17043-2.19436-2.70047 1.56474 6.23445-5.88101 2.89634-9.25863-4.15085-3.63547-7.58518-4.75379-6.45499-5.69543 5.7559-.61461 7.97014 2.25133 30.62914 5.18434 40.98897 2.29972 8.12295 7.07654 15.88058 12.63614 20.52127 6.56339 5.47857 12.55991 8.25435 12.55991 5.81396z"/><path d="m54.757387 253.52669c2.547638-1.63333 6.082219-3.86058 7.854622-4.94947 1.772404-1.08888 4.674136-3.98432 6.448301-6.4343 5.33779-7.3711 8.503952-10.81334 13.427284-14.59812 3.61792-2.78125 5.059214-4.74318 6.323713-8.60805.900783-2.75318 2.75602-7.23304 4.122755-9.95524 1.679443-3.34505 2.432484-6.37151 2.323061-9.33629-.08906-2.41275-.316419-4.54133-.505261-4.73017-.312994-.31298-21.273006 10.2563-25.18833 12.70146-2.186594 1.36555-6.885061 12.33729-7.633005 17.82438-1.432226 10.50722-3.907038 17.27145-9.088325 24.84045-2.877749 4.20391-5.225706 8.4357-5.217678 9.40399.01092 1.31749.327407 1.13777 1.257688-.71423.6837-1.3611 3.327527-3.81109 5.875175-5.44441z"/><path d="m190.14689 251.19112c-.004-.34875-1.76572-1.63801-3.91451-2.86499s-5.24807-4.18023-6.88729-6.56276c-4.51341-6.56001-9.16132-22.22051-11.49216-38.72122-.30762-2.17776-1.627-7.52319-2.93194-11.87871-1.30494-4.35553-2.66689-9.57372-3.02654-11.59598-.90761-5.10317-3.12734-6.83719-3.95853-3.0923-1.14153 5.14322-3.66785 12.66641-5.43885 16.19653-1.48525 2.96051-1.5631 3.93363-.51478 6.4343.67932 1.62044 1.79126 6.06443 2.47098 9.87552 1.70541 9.56184 3.93421 15.61072 8.94283 24.27041 7.10297 12.28075 16.3392 19.78971 23.33699 18.97276 1.88178-.21968 3.41799-.68479 3.4138-1.03356z"/><path d="m204.01301 231.27296c0-.53407-1.11639-1.25123-2.48087-1.59369-3.38883-.85055-10.55014-9.04571-13.67882-15.6536-1.41716-2.99308-4.17585-11.58879-6.13041-19.10156-5.12953-19.71644-5.54589-20.94095-7.82116-23.00164-1.13314-1.02627-4.63077-4.35549-7.7725-7.39825-3.14174-3.04276-6.0473-5.5323-6.4568-5.5323-1.28432 0 .32956 12.18508 2.1633 16.33323 2.57544 5.82593 6.60876 19.75114 8.10807 27.99349 2.29824 12.63442 9.79784 22.83909 19.71575 26.82716 5.17371 2.0804 14.35344 2.80127 14.35344 1.12716z"/><path d="m52.70528 226.02559c2.468229-1.88258 5.62761-5.73303 7.513119-9.15651 4.706495-8.54546 10.735992-13.50795 22.472133-18.49533 9.75977-4.14752 10.197787-4.4777 21.838248-16.46164 6.53329-6.72608 13.14047-14.41198 14.68262-17.07977 2.94281-5.09082 2.6719-6.14197-.76032-2.95-4.21277 3.91789-16.82745 9.85377-22.336393 10.51047-3.158709.37653-8.830379 2.27018-13.509563 4.51054-12.487202 5.97879-19.019238 14.1329-25.300416 31.58321-3.423208 9.51032-6.735282 15.67087-9.820996 18.26733-2.591936 2.18097-2.728848 2.52042-1.016581 2.52042 1.088338 0 3.895496-1.46192 6.238149-3.24872z"/><path d="m148.43195 201.21103c.12588-2.43174 1.72617-8.13724 3.5562-12.67888 4.41226-10.95001 5.89536-18.98895 5.24737-28.44276-.4542-6.62677-1.19437-9.06572-5.24273-17.27541-2.59261-5.2576-5.05411-9.55928-5.47-9.55928s-1.06916 1.44772-1.45172 3.21715c-.38256 1.76944-1.69103 5.22169-2.90771 7.67167-1.3716 2.76194-2.49637 7.46355-2.96013 12.37366-2.41139 25.53024-2.23623 31.76553 1.11233 39.59572 2.10384 4.91956 6.16436 10.58445 7.15012 9.97522.40558-.25066.8404-2.44535.96627-4.87709z"/><path d="m98.094473 198.55464c0-1.30083 6.541037-7.88615 7.833107-7.88615.53343 0 3.7778-1.61238 7.20972-3.58306 19.65026-11.28358 22.67205-14.70583 24.01402-27.19639.37473-3.48784.90202-7.12108 1.17176-8.07385.3048-1.07668-.0508-1.73231-.93954-1.73231-1.11604 0-1.31605-1.01045-.91114-4.60283.5975-5.30099-1.14799-5.36095-2.13991-.0735-.37993 2.02518-2.4876 5.23064-5.55137 8.44281-2.71639 2.84798-6.25816 7.73148-7.87058 10.85224-1.76687 3.41965-6.74042 9.60713-12.51774 15.57301-8.922447 9.21366-12.278113 14.07474-12.278113 17.78628 0 .83415.445452 1.51663.989893 1.51663s.989893-.4603.989893-1.02288z"/><path d="m193.12419 180.95476c0-.44258-1.36756-2.11303-3.03902-3.7121-4.31008-4.12343-6.15489-7.49508-10.25671-18.74569-5.09794-13.98283-10.67411-24.23194-13.19116-24.24562-3.56049-.0193-11.02751-5.59617-16.00019-11.94992-2.95136-3.77104-5.49125-6.7313-5.64419-6.57835-.99179.99178 3.3651 16.13877 6.30758 21.92876 1.95284 3.84265 4.56155 9.00819 5.79712 11.47898 2.29447 4.58826 9.22055 13.1716 12.70775 15.74845 1.06647.78806 4.65707 4.12895 7.97911 7.4242 6.99814 6.9417 15.33971 11.64619 15.33971 8.65129z"/><path d="m98.227703 170.26384c3.427877-.87819 8.675497-2.97544 11.661387-4.66057 5.7955-3.27078 13.9426-10.48527 13.9426-12.34659 0-3.0877-11.6856-13.07273-15.29917-13.07273-1.17967 0-1.2841.51528-.51462 2.53917 2.08166 5.47517.35356 13.98137-3.77435 18.57844-.93201 1.03794-4.06221 2.97374-6.955988 4.30179-4.343502 1.99336-6.154877 2.30121-10.382512 1.7645-2.816592-.35758-6.39258-1.30766-7.946642-2.1113-5.446916-2.81671-4.436383 1.21414 1.110541 4.42975 4.434809 2.57091 9.72153 2.73905 18.158754.57754z"/><path d="m193.53653 156.65887c-.34328-.89459-1.00069-1.62653-1.46091-1.62653s-3.19663-4.4514-6.08092-9.892c-3.20625-6.04789-6.01353-10.14052-7.22396-10.53151-1.08888-.35173-4.20704-2.05062-6.92925-3.77532-7.32313-4.63967-7.42476-4.69207-7.41743-3.82406.004.44046 1.53428 1.84099 3.40126 3.11228 1.99577 1.35899 3.18067 2.86863 2.87559 3.66366-.2854.74372.58419 2.82174 1.93243 4.61781 1.34822 1.79607 3.57904 5.51885 4.95734 8.27284 2.6003 5.19567 7.98871 9.78595 13.19107 11.23724 3.37677.94202 3.56478.8564 2.75478-1.25441z"/><path d="m130.01706 150.19818c3.73833-4.44275 5.06874-10.56077 3.79494-17.4514-1.27997-6.92395-1.29893-7.41122-.28839-7.41122 1.16118 0 4.16658 12.07702 4.16658 16.74317 0 7.06119 2.8276 4.83147 5.47871-4.32025 3.09783-10.69382.72539-24.11135-6.25007-35.34792-2.4983-4.02444-14.53917-15.680815-16.19805-15.680815-.58227 0-1.93466 1.113629-3.0053 2.474732-3.43385 4.365428-10.71197 2.27517-10.71197-3.076458 0-2.137496-.28864-2.240494-4.78619-1.707823-5.360441.634868-10.113392-1.176072-17.981348-6.851128-3.65219-2.634283-5.349549-3.204333-9.42376-3.164945-4.237168.04096-5.790517.654745-10.543914 4.166291-8.614988 6.364259-10.734864 14.36297-6.154204 23.220976 1.755041 3.39388 2.951851 3.50491 3.744339.3474.648568-2.584085 4.650567-5.852995 8.263171-6.749522 1.22038-.302857 5.674898-.123033 9.898929.39961 7.921767.980177 14.733279 4.006617 17.315771 7.693622.830213 1.18531 3.449866 2.26945 7.125576 2.94894 7.16736 1.32497 13.15672 4.73948 17.77263 10.13213 4.44954 5.1983 5.94344 9.67216 5.10242 15.28051-.74045 4.93763-1.06529 5.14356-3.93639 2.49539-1.12397-1.03669-3.82539-2.40988-6.00316-3.05153-4.37517-1.28908-34.151301-2.66206-34.151301-1.57471 0 1.32264 8.492262 4.40879 15.34334 5.5759 12.381771 2.10926 24.295541 9.19218 25.844861 15.36518.79805 3.17965 2.65086 3.02828 5.58278-.45613z"/><path d="m201.04333 136.22438c0-.54444-.5634-.98989-1.25202-.98989-1.79877 0-8.73624-3.80044-11.48403-6.29109-1.28819-1.16765-5.61626-6.17853-9.61793-11.13527-8.52352-10.55784-16.70532-17.11399-23.5844-18.89839-2.69336-.69866-4.99463-1.163605-5.11393-1.033245-.11929.130355 2.16162 5.172625 5.06871 11.205055 4.4212 9.17433 6.17052 11.72404 10.69661 15.59081 2.97607 2.54252 5.66696 4.62277 5.97979 4.62277s3.35994 1.35986 6.77137 3.02191c3.41143 1.66206 7.76168 3.39912 9.66723 3.86014 4.92181 1.19077 12.8686 1.21992 12.8686.0472z"/><path d="m162.97462 127.77824c-1.3051-1.92317-4.91931-8.71631-8.03158-15.09587-3.11226-6.37955-6.76115-13.046905-8.10862-14.816335-2.94833-3.871585-2.04837-4.052023 6.29292-1.261703 3.21505 1.075503 8.21295 1.966398 11.10645 1.979778 8.20711.03798 19.50405-5.372091 21.81678-10.447985.99629-2.186604.7516-2.12334-3.60039.930876-6.01681 4.222576-9.1944 5.348688-16.87397 5.979982-6.49565.533978-12.94726-.975826-17.82393-4.171141-3.98132-2.608665-.82531-2.41719 4.53498.275131 9.00708 4.523998 21.11524 3.1752 30.8031-3.431335 5.71852-3.899693 7.30774-7.441322 1.86721-4.161174-4.63174 2.792528-13.04043 4.504518-18.7837 3.824313-4.3459-.514705-7.62775-1.687173-16.27258-5.813473-1.17829-.562417-4.7419-1.354797-7.91914-1.760841-3.17724-.406054-4.99726-.796686-4.04449-.868067 3.11554-.233436 1.82494-1.549865-5.75496-5.870124-8.1863-4.66589-16.27953-7.465099-26.16908-9.051116-9.382288-1.504666-12.712595-1.298977-17.647438 1.089942-4.104651 1.987022-4.282653 2.228744-2.539798 3.448935 1.030815.721682 3.736786 3.17526 6.013263 5.4524 4.919896 4.921302 7.947571 5.287938 14.585993 1.766266 3.54422-1.880213 4.72855-2.12041 5.69408-1.154879.96554.965542.75522 1.219103-1.01118 1.219103-1.22665 0-3.86913 1.113629-5.87218 2.474732-5.69128 3.867324-8.379085 3.323229-15.05909-3.048415-4.159698-3.967688-6.4171-5.431275-8.015589-5.196938-3.938576.577395-2.897763 2.203829 4.524375 7.070083 5.819214 3.815334 8.388095 4.879875 12.899243 5.345471 3.189751.329209 5.912771.170054 6.278101-.366953 1.40043-2.058502 5.67778-4.298194 8.20866-4.298194 3.31246 0 5.80006.909474 5.80006 2.120518 0 .559884-.68084.554439-1.74285-.01393-2.96521-1.586937-7.10734-.142297-8.76101 3.055542-1.39189 2.691617-1.37259 3.098572.23088 4.870382 2.26959 2.507883 5.44592 2.001434 6.99409-1.115174 1.11691-2.248443.98787-2.590966-1.46006-3.875361-1.68777-.885549-2.19932-1.571545-1.37713-1.846695.71948-.240772 2.27856.448768 3.46463 1.532305 1.18608 1.083546 3.56884 2.6835 5.29502 3.555467 6.60678 3.337345 14.75295 13.005569 24.95039 29.612237 3.76854 6.13709 10.45949 13.40279 13.46516 14.62179 3.91792 1.58899 4.42641.95204 2.04338-2.55955z"/><path d="m111.54014 86.862598c-.42642-.689955-.50798-1.521792-.18124-1.848536.88592-.885914 1.85186.417042 1.37337 1.852535-.3353 1.0059-.56847 1.005118-1.19213-.004z" fill="#d40000"/><path d="m125.77159 127.24081c-1.36032-2.54177-7.32503-6.25196-13.32695-8.28967-6.24563-2.12045-19.242554-2.12293-28.760048-.005-23.123436 2.8444-35.16319-2.07824-46.915504-23.254335-.542956-1.720958-.739836-1.77461-1.505954-.410379 3.602969 29.502694 31.52479 31.460204 52.863939 27.542714 14.910497-2.22945 25.087447-.73812 33.370067 4.89007 4.02169 2.7328 5.88006 2.5272 4.27445-.47291z"/><path d="m188.71746 120.30876c.28154-.45554-.72767-1.47644-2.24268-2.26869-1.51502-.79225-6.1571-5.04301-10.31575-9.44615-4.8165-5.09966-8.31994-8.00569-9.65146-8.00569-3.10032 0-2.53401 1.10424 2.52002 4.91369 2.50199 1.88588 6.36067 5.89495 8.57484 8.90904 2.21418 3.01411 4.68403 5.97537 5.48856 6.5806 1.52146 1.14455 4.73838.75416 5.62647-.6828z"/></g></g></svg>