<svg height="312.5" width="312.5" xmlns="http://www.w3.org/2000/svg" xmlns:xlink="http://www.w3.org/1999/xlink"><path d="m0 0h312.5v312.5h-312.5z" fill="#ffcd50"/><path d="m0 0h156.25l-104.167 312.5h-52.083z" fill="#003d8f"/><path d="m156.25 0h156.25v312.5h-52.083z" fill="#d40000"/><g fill="#ffcd50" transform="matrix(.88928471 0 0 .88928471 147.75429 -9.397089)"><path d="m-87.989075 71.702544c-8.356407.0024-17.815705.793449-24.190565 2.374726l-9.11896 2.248078.12665 11.145386c.41838 32.590496 1.23732 39.976196 5.38272 48.539446 7.74048 12.38304 24.151887 16.47343 29.193329 14.37502 10.556425-4.39393 16.401159-10.789 19.631079-19.47277 1.859373-3.383 1.935232-7.26414 2.438058-11.01874.991193-14.69111.908095-23.480876.126649-39.768776-.143074-2.075221-.940706-4.080757-2.469715-4.876106-5.866077-3.051378-13.960497-3.406779-21.119245-3.546264z"/><path d="m-90.96875 23.96875c-3.666063-.118227-7.28169 6.058914-5.125 12.375 1.392555 4.078247 2.704193 2.756379 2.09375-1.65625-.248294-1.794813-.159024-3.0875.3125-4.1875.665686-1.552956.882925-.156126.9375 1.125.09812 2.303277.643269 5.252838 1.09375 5.53125.450483.278409.465102-1.772797.3125-3.53125-.1526-1.758451.487504-2.812984.78125-1.84375.84823 2.299743.58604 2.10326.875 3.53125.40389 1.995949 1.86514 4.256204 2.5 2.4375.59606-1.707553 1.31999-7.302911.0625-10.3125-.99436-2.379829-2.4092-3.422487-3.84375-3.46875zm-10.53125 14c-1.59563-.07327-3.28292.338829-4.375 1.21875-5.45169 4.392572.57461 10.852804 7.59375 8.125 3.752344-1.458249 3.433891-3.377094-1.03125-1.78125-1.05006.375293-2.60446.366311-2.96875-.65625-.55373-1.554344 2.85037-1.134409 4.5-1.9375.816949-.504901-2.13414-1.618106-3.46875-2.1875-1.22189-.521302-.58088-.917629 1.53125-.1875 3.755196 1.298114 4.583832 1.201192 2.125-1-.93619-.838099-2.31062-1.520484-3.90625-1.59375zm10.90625.625c-1.535059-.02763-3.130074.656976-4.21875 1.96875-.897279 1.081154-.910045 2.040007-.03125 3.96875 1.640557 3.600627 6.23442 3.007893 7.625-.96875.81232-2.322983.66587-3.066839-.78125-4.125-.7561-.552874-1.67271-.827172-2.59375-.84375zm11.03125.84375c-6.35769.05637-9.56598 1.680946-1.125 2.3125 1.36665.102253 3.06864.736603 3.59375 1.25.59292.579695-.9515.741425-2.90625.5-7.07864-.874257-6.90975-.273372-1.4375 1.375 1.45537.438392 2.47711 1.383298-.75.5-4.21917-1.154836-5.67529-1.684166-2.0625 1.03125 2.98469 2.243327 8.15768 1.94278 10-.6875 2.42115-3.456673.01943-6.28125-5.3125-6.28125zm-10.84375.15625c1.93187-.0019 3.3273 2.147667 2.0625 4.15625-1.15687 1.837169-3.563784 2.623715-4.65625 1.53125-1.349276-1.34928-.690953-4.307182 1.1875-5.3125.480021-.2569.960433-.374559 1.40625-.375zm-.03125 1.40625c-2.112079-.07411-3.05862 1.78513-1.625 3.21875.881596.881597 1.565505.08176 2.25-.9375.96463-1.530021.72895-1.792984-.625-2.28125zm32.90625 4.59375c-1.04311-.05418-1.81318 1.100937-2.15625 1.84375-.4228.915438-.6306 1.111892-2 .65625-2.17387-.723317-3.71942 1.998021-.9375 3.09375 1.36306.536877.91177 2.778946-2.21875 4.6875-6.64121 4.048883-19.1104 1.250452-22.71875-5.09375-.88809-1.561435-2.19372-3.07553-2.84375-3.25-2.53336-.679965-3.222484 2.378733-5.65625 4.8125-6.03078 6.030773-14.80331 8.272367-21.09375 5.40625-2.59855-1.183977-3.74831-.964235-3.9375-5.3125-.0298-.685352 2.18162-.481757 1.71875-2.375-.25728-1.052305-.83247-1.738144-2.59375-.875-1.72664.846165-.95404-.132961-2.28125-1.65625-1.24852-1.432977-2.20517-.933226-3-.3125-.8291.647486-.65598 2.121216-.375 2.8125.3519.865793.61239 1.030566-1.5 1.84375-1.20885.465357-1.05749 1.705926-.625 2.25 1.29006 1.622906 1.3033.46875 2.84375.46875 3.34252-.000001 3.08791 4.537088-.28125 7.90625-2.82847 2.828466-12.03197 7.391477-14.9375 7.40625-2.73141.01389-5.5625-2.892423-5.5625-5.6875 0-2.792592 2.47076-6.880101 4.65625-7.71875.90761-.348289.473.675166-1.0625 2.5-1.42574 1.694416-2.59375 3.942199-2.59375 5 0 1.884943.0254 1.880801 1.875.03125 1.03795-1.037938 2.62456-2.305093 3.53125-2.8125.90668-.507407 1.75712-2.226597 1.875-3.84375.19743-2.708597-.0684-2.969182-3.4375-3.25-3.17883-.264959-4.02428.136795-6.375 3.21875-2.18792 2.868504-3.16041 3.430581-5.125 2.9375-1.60479-.402778-3.1094.01386-4.40625 1.1875-1.92477 1.741899-1.83936 1.832213 3.3125 5.28125 2.88902 1.934129 8.0937 5.914507 11.5625 8.84375 3.46881 2.929241 6.48936 5.34375 6.71875 5.34375.22937-.000003 3.77811-1.341294 7.875-2.96875 24.4989-9.732005 47.63694-10.240642 74.03125-1.59375l10.96875 3.59375 2.53125-3.28125c5.17477-6.682902 10.67033-12.159134 14.875-14.84375 4.02938-2.572696 4.18497-2.841637 2.3125-3.84375-1.10569-.591746-2.80676-1.0625-3.8125-1.0625s-2.30083-.993144-2.84375-2.1875c-.54292-1.194354-2.17523-3.066723-3.65625-4.15625-2.54908-1.875263-2.8292-1.898666-5.25-.3125-3.47126 2.274456-3.21435 4.389801 1 8.25 2.71751 2.489144 3.67034 2.915889 4.09375 1.8125.30472-.794092-.16435-2.566747-1.0625-3.9375s-1.19957-2.46875-.65625-2.46875c1.25492 0 3.0625 3.312058 3.0625 5.625 0 1.965398-5.76422 8.375-7.53125 8.375-1.86604-.000003-15.23119-8.947258-15.875-10.625-.80793-2.105446-.76865-3.71875.84375-3.71875 1.27431-.000001 2.02303 1.014492 2.6875-.6875.63145-1.6174-1.60338-2.387253-2.09375-2.5-.47791-.109882.43885-1.46875.09375-2.84375-.42057-1.675667-.60495-1.534771-1.5-1.875-.16051-.06101-.31973-.08601-.46875-.09375zm-33.514025 4.693157c.361951-.0032 1.357375 1.758523 1.731545 2.094491 2.59249 2.327836 1.10859 2.351558-.34252 1.454725-.538637-.332892-2.001134-.460337-3.25.195127-2.258737 1.185489-2.266798 1.161972-.375-.96875.909752-1.024646 1.632723-2.770263 2.235975-2.775593z"/><path d="m-91.692308 132.10279c-.825-.37384-1.632227-1.46721-1.793837-2.42971-.233849-1.39273.429646-1.75 3.25-1.75 3.648127 0 4.747287 1.32422 1.980455 2.38595-.85986.32996-1.283303 1.0531-.940983 1.60699.698604 1.13036-.255705 1.20178-2.495635.18677zm11.63763-6.87541c-.38263-.38264-4.59198-.61329-9.354091-.51257-6.453377.13649-8.369655-.10561-7.524609-.95066 1.347241-1.34724 13.24107-2.32225 13.24107-1.08545 0 .47067 1.199.8307 2.66445.80007 1.46544-.0306 2.85294.50681 3.08333 1.19431.44815 1.33733-.9578 1.70665-2.11015.5543zm-11.970963-6.97097c-.366667-.36666-.666667-1.65915-.666667-2.87219 0-1.79984-.735758-2.32318-4-2.84515-2.2-.35179-4.000002-.83001-4.000002-1.06271 0-1.5996 2.143291-5.55328 3.010435-5.55328.743102 0 .739983.59783-.01043 2-1.132236 2.1156-.842882 2.33016 2.75 2.03913 1.2375-.10025 2.25.29994 2.25.8893 0 .58937.701558 1.07157 1.559017 1.07157s1.292982-.43045.967828-.95656c-.343743-.55619.672506-.79664 2.427988-.57447 1.660547.21016 3.220327.0566 3.466187-.34118.62513-1.01148-.71667-2.96882-1.90732-2.7823-.54247.085-1.13797-.63299-1.32333-1.59549s.13185-1.75.70492-1.75.78096.6801.46198 1.51134c-.40632 1.05886-.1205 1.33503.9547.92244 1.67988-.64463 4.19195 2.94184 3.19285 4.55841-.32321.52298-2.59025 1.83671-5.03786 2.9194-3.237279 1.432-4.287041 2.3937-3.851587 3.52847.624698 1.62794.192708 2.03469-.948706.89327zm4.854073-19.854073c.15004-2.53337.5111-4.844431.80236-5.135694.29126-.291264.42089 1.529116.28805 4.045284-.13284 2.51617-.4939 4.827243-.80236 5.135693-.30846.30846-.43808-1.51192-.28805-4.045283zm-22.520742-6.38564c0-.49851 1.0125-.711755 2.25-.473878 2.24845.432205 2.2484.431666-.0819-.782996-1.80695-.941856-2.76069-.947737-4.23643-.02612-2.45502 1.533185-2.48062 1.526607-2.64685-.680165-.30692-4.074468 9.10073-5.896555 13.96522-2.704804 1.512502.992401 2.750002 2.257711 2.750002 2.8118 0 .571044-.649755.468186-1.5-.237455-1.201402-.997075-1.500002-.988272-1.500002.04422 0 .709011-.28411 1.004999-.63136.65775s-1.57238.02775-2.72251.833333c-2.32768 1.630371-5.64613 1.958514-5.64613.558315zm-.1309-4.959691c-.58604-.20134-1.79876.367161-2.69493 1.263334-1.50588 1.505875-1.4251 1.533628 1.06552.366072 1.48222-.694834 2.21545-1.428067 1.62941-1.629406zm9.1309 1.34132c0-.288613-1.19828-.980335-2.66284-1.53716-1.91365-.727569-2.96871-.679331-3.75.171455-.78971.859957-.77042 1.006394.0705.535221.6367-.356754 2.2117-.226295 3.5.289909 2.95504 1.184052 2.84235 1.16262 2.84235.540575zm21.353872 2.060056c-1.15013-.805582-2.37526-1.180582-2.72251-.833333s-.63136.05126-.63136-.65775c0-1.032494-.2986-1.041297-1.5-.04422-.85025.705641-1.5.808499-1.5.237455 0-.554089 1.2375-1.819399 2.75-2.8118 4.86449-3.191751 14.27214-1.369664 13.96522 2.704804-.16623 2.206772-.19183 2.21335-2.64685.680165-1.47574-.921615-2.42948-.915734-4.23643.02612-2.33034 1.214662-2.33039 1.215201-.08194.782996 1.2375-.237877 2.25-.02463 2.25.473878 0 1.400199-3.31845 1.072056-5.64613-.558315zm8.64613-3.035305c-.68469-.825-1.97729-1.493366-2.87244-1.485258-1.0946.0099-.80891.468996.87244 1.401952 3.30982 1.836564 3.46028 1.842831 2 .08331zm-5.66608-.86045c.84786.475424.8694.330787.07892-.530006-.78129-.850786-1.83635-.899024-3.75-.171455-1.46456.556825-2.66284 1.237409-2.66284 1.512409s1.16276.05792 2.58392-.482403c1.42115-.540322 3.10865-.688167 3.75-.328545zm-21.446576-2.08554c-.245295-.245294-4.160946-.556148-8.701446-.690786-6.13322-.181866-7.79664-.502578-6.47067-1.247565 1.62894-.915217 10.28004-1.251347 14.534772-.564734.9625.155324 1.75.882408 1.75 1.615742 0 1.380765-.344497 1.655502-1.112656.887343zm11.112656-.52833c0-1.603259 5.65115-4.02568 9.39132-4.02568 5.5128 0 5.09272 1.664091-.58997 2.337121-2.83151.335351-5.61016 1.071687-6.17477 1.636304-1.29704 1.297037-2.62658 1.323488-2.62658.05226z" fill="#003d8f"/><path d="m-78.969448 180.33609c2.87257-.7992 9.3649-3.46908 14.42742-5.93305 5.06251-2.46398 10.03884-4.47996 11.05852-4.47996 5.28884 0 1.584862-9.21661-6.23193-13.73781-6.684034-3.99327-13.999305-6.64851-14.665502-9.18485-1.149252-4.37541-8.19096 5.75321-18.344886 4.64751-1.379175-.15019-5.957875-1.29985-9.400094-3.22485-3.44222-1.925-6.50406-3.5-6.80408-3.5s-.81489 1.07338-1.14416 2.3853c-.39353 1.56794-2.14026 3.10992-5.09751 4.5-2.47436 1.16308-4.86509 2.1147-5.31274 2.1147-1.82493 0-9.24965 6.33148-11.2832 9.62184-2.45719 3.97582-2.09416 4.62246 3.5753 6.36832 2.2.67747 6.025 2.41158 8.5 3.85358 8.0475 4.68865 14.65187 7.13657 23.000002 8.52495 3.640216.60541 11.72367-.28658 17.72286-1.95568z"/><g id="a"><path d="m-135.15625 81.9375c-.26087-.000003-1.21467 1.4625-2.125 3.25-.91034 1.787497-3.8852 5.582704-6.59375 8.46875-6.3904 6.80919-10.27205 15.06776-9.1875 19.53125.84642 3.42242 1.87593 5.98484 4.6875 8.15625 2.13939 1.83366 4.42446 2.98224 7.1875 3.5625 1.18905.13212 4.19532 1.45765 6.875 2.1875 4.88969 1.40498 13.58591 6.09079 6.125 10.9375-2.93048 1.90368-4.82892-.99893-1.46875-4.5625 2.12992-2.25884-1.59336-2.81289-3.9375-.46875-2.214 2.214-2.12739 6.4605.1875 8.5625 6.03203 4.68326 12.13914.99121 13.87999-4.38574 2.45808-5.76443-2.82665-11.77116-9.34874-13.70801-2.84616-.84522-5.9219-1.38014-6.75-1.625-9.01762-2.66645-12.75724-6.52809-13.15625-13.375-.11699-5.08561 1.16944-8.588606 4.53125-12.59375 5.09086-5.711969 4.67298-2.668685 8.15311-9.34375.91135-2.273785 2.09224-4.59375.94064-4.59375z"/><path d="m-126.97134 78.773676c-.42019-.01715-1.55992 3.428344-3.12241 6.757574-1.83614 3.91234-4.06076 6.709756-4.75776 7.716162-2.94549 4.252985-4.85388 9.196398-3.99205 13.502588.56222 2.80917 3.06582 4.844 4.78106 6.375 1.57055 1.40185 3.97779 4.42003 6.57836 6.94958 1.30028 1.26478 5.37258 6.90992 6.68911 7.66726 1.31653.75735-.79944-6.24691-.17694-5.21622.54534.90294-7.68643-8.81518-9.24678-10.32-4.46403-4.30515-5.54207-7.43348-5.45303-9.32286.14829-3.146633 1.4857-6.130767 3.26553-8.82026 3.28604-4.965538 6.21078-10.982331 6.65088-13.692676.38148-2.349266-1.119-1.592191-1.21597-1.596148z"/><path d="m-124.06023 111.42308c1.20912 4.00707 2.35208 4.77891 1.64238 1.73682-.25423-1.08976-.2194-4.26769-.20653-5.49867.0162-1.55147.23612-4.06813.33049-6.64688.30709-8.390903-1.09247-3.591273-1.09247-3.591273l-1.27797 2.672053c-1.06993 3.51035-.52909 7.57251.6041 11.32795z"/><path d="m-137.19342 117.82547c-3.29704-2.79106-5.38136-4.28929-6.65598-7.54094-.76902-1.96183-1.05954-3.85727.4561-8.6357.7675-2.419743 5.44887-10.338417 4.80121-10.228059-2.0209.344348-5.67224 5.414719-6.42653 6.457409-2.55613 3.53344-3.21246 9.76211-2.31745 13.32813 1.18751 4.73143 4.74812 7.53128 8.77957 8.89544 3.67986 1.2452 7.29669 2.46065 7.63746 1.93975s-3.0361-1.4747-6.27438-4.21603z"/><path d="m-136.00758 93.34375c2.59201-3.592274 4.65892-7.336986 6.74704-11.473926 1.08797-2.155485-1.76299-4.218028-2.55972-2.169-2.0776 5.343189-5.19327 8.79575-5.61118 10.315341-1.0249 3.726752-4.08175 8.49378-4.94356 10.921335-1.39158 3.91981-1.49089 5.34602-1.50518 7.10113-.008 1.06264 1.32307 3.28333 1.92955 4.15606 1.38512 1.89152 4.84799 5.65096 7.9875 7.3559 2.33401 1.26751 8.55342 5.31259 9.60175 4.97376.55923-.18074-11.73574-11.97607-12.76362-13.14935-4.43547-5.06288-3.33151-10.07383 1.11742-18.03125z"/><path d="m-129.67035 100.1877c.23452-.637822 1.32157-3.829467 2.96365-7.000006 2.9496-5.695085 4.82185-14.264617 3.1165-14.264617-.48374 0-1.16131 1.502019-1.5057 3.337821-.3444 1.835801-2.44259 6.349467-4.66265 10.030367-5.47233 9.073245-6.41224 12.192915-2.02402 16.991175 2.2513 2.46166 10.19028 12.50741 10.13706 11.15449-.0835-2.12182-7.61434-13.05739-8.03271-14.37761-.7526-2.37488-.89213-3.4239.008-5.87162z"/><path d="m-125.75102 107.34571c-.36381-3.34472-1.3054-6.35294 1.05871-9.922633 1.09275-1.65 2.72312-6.645476 2.71095-8.020492-.0248-2.728389-.12117-5.870793-1.87503-.704365-.45034 1.326577-2.86141 6.54096-3.92309 8.724857-1.18716 2.442013-1.4965 5.058003-1.18508 7.500003.10936.85753 1.15145 2.9625 1.98485 4.75.79838 1.71239 3.75312 6.96419 4.75274 7.53793.28754-1.39703-3.02609-5.28726-3.52405-9.8653z"/></g><use height="232" transform="matrix(-1 0 0 1.065169 -184.255 -6.326008)" width="193" xlink:href="#a"/></g><g transform="matrix(.60124698 0 0 .60124698 174.88174 -7.026272)"><path d="m207.83023 233.3687c.005 38.91225-31.53868 70.45932-70.45093 70.45932-38.912249 0-70.455561-31.54707-70.450925-70.45932-.0046-38.91225 31.538676-70.45932 70.450925-70.45932 38.91225 0 70.45557 31.54707 70.45093 70.45932z" fill="#ffcd50" transform="matrix(.952993 0 0 .952993 6.457855 5.174563)"/><path id="b" d="m118.74757 163.875v51.28125l-50.187504.0937c-1.087516 0-1.96875 1.3009-1.96875 2.90625 0 1.60536.881231 2.90625 1.96875 2.90625l56.093754-.0937v-5.8125h-.0937v-51.28125c-1.23314-.38807-4.57631-.30439-5.8125 0z" fill="#ffcd50" stroke="#d40000" stroke-linecap="round" stroke-width=".7"/><rect fill="#ffcd50" height="5.811776" rx="1.894373" ry="2.938897" stroke="#d40000" stroke-linecap="round" stroke-width=".7" width="136.62476" x="69.066971" y="245.75336"/><use height="332" transform="matrix(-1 0 0 1 274.7587 .000015)" width="280" xlink:href="#b"/><rect fill="#250" height="13.672104" rx="1.749012" ry="1.086221" stroke="#250" stroke-linecap="round" stroke-width="1.378337" width="22.014553" x="127.22856" y="226.57594"/><rect id="c" fill="#003d8f" height="5.954815" rx=".887316" ry=".473098" stroke="#003d8f" stroke-linecap="round" stroke-width=".64791" width="11.168511" x="107.48074" y="225.38431"/><use height="332" transform="translate(0 10.10057)" width="280" xlink:href="#c"/><use height="332" transform="translate(50)" width="280" xlink:href="#c"/><use height="332" transform="translate(50 10.10057)" width="280" xlink:href="#c"/><use id="d" height="332" transform="matrix(0 1 -1 0 360.5654 101.1128)" width="280" xlink:href="#c"/><use height="332" transform="translate(10.35126)" width="280" xlink:href="#d"/><use height="332" transform="translate(0 -43.3)" width="280" xlink:href="#d"/><use height="332" transform="translate(10.35126 -43.3)" width="280" xlink:href="#d"/><path id="e" d="m141.82164 186.22667c.002 5.74185-2.81596 10.39865-6.29343 10.39865-3.47746 0-6.29582-4.6568-6.29342-10.39865-.002-5.74185 2.81596-10.39865 6.29343-10.39865 3.47746 0 6.29582 4.6568 6.29342 10.39865z" fill="#d40000" stroke="#d40000" stroke-linecap="round" transform="matrix(1.137351 0 0 .928254 -16.7638 18.92259)"/><use id="f" height="332" transform="matrix(0 -1 1 0 -100.5036 370.7914)" width="280" xlink:href="#e"/><use height="332" transform="translate(96 -.000007)" width="280" xlink:href="#f"/><path id="g" d="m68.878212 225.3843h5.783935c.491573 0 .887315.21101.887315.4731v5.00862c0 .2621-.395742.4731-.887315.4731h-5.783935c-.491572 0-.887315-.211-.887315-.4731v-5.00862c0-.26209.395743-.4731.887315-.4731z" fill="#003d8f" stroke="#003d8f" stroke-linecap="round" stroke-width=".64791"/><use height="332" transform="translate(.400058 10.10057)" width="280" xlink:href="#g"/><use height="332" transform="translate(132.3001)" width="280" xlink:href="#g"/><use height="332" transform="translate(131.9001 10.10057)" width="280" xlink:href="#g"/><g transform="translate(.166854 1.200189)"><g fill="#ffcd50" stroke="#d40000" stroke-width=".7" transform="translate(0 2)"><path d="m146.21244 136.2452c0 23.05338 4.52125 24.28717-8.85471 24.41777-14.8433.14636-8.85471-1.80533-8.85471-24.41777 0-15.14813-.86293-27.44227 8.85471-27.44227 7.66861 0 8.85471 12.29414 8.85471 27.44227z" stroke="none"/><path d="m158.94794 160.46754c-1.75631-2.19538-7.82228.41139-11.26962-8.78154-1.02452-2.4881-.00001-32.34528-.00001-32.34528 0-8.04973-6.65407-11.65225-9.80603-10.39147 3.80533 1.17087 9.5846 6.49435 4.82984 13.90408-1.30971 2.04102-12.87958 8.63517-9.9524 19.02664.13494.40481 1.583-2.82312 3.44416-3.25765 1.86117-.43453 4.13544 1.92435 5.9228-.54768-7.2277 8.85058-5.67345 12.06237-.7318 19.46571.45891.68751 2.92718-.58543 3.36626-3.65896 0 0 2.4341 11.7158 14.1968 6.58615z"/><path d="m115.47706 160.46754c1.75631-2.19538 7.82228.41139 11.26962-8.78154 1.02452-2.4881.00001-32.34528.00001-32.34528 0-8.04973 6.65407-11.65225 9.80603-10.39147-3.80533 1.17087-9.5846 6.49435-4.82984 13.90408 1.30971 2.04102 12.87958 8.63517 9.9524 19.02664-.26987.80961-5.79225 1.13873-9.36696-3.80533 7.2277 8.85058 5.67345 12.06237.7318 19.46571-.45891.68751-2.92718-.58543-3.36626-3.65896 0 0-2.4341 11.7158-14.1968 6.58615z"/></g><g id="h" fill="#ffcd50" stroke="#d40000" stroke-width=".7" transform="translate(-1.99993 2)"><path d="m147.21238 65.949c0-23.05338 4.52125-17.31168-8.85471-17.44228-14.8433-.14636-8.85471-5.17016-8.85471 17.44228 0 15.14813-.86293 27.44227 8.85471 27.44227 7.66861 0 8.85471-12.29414 8.85471-27.44227z" stroke="none"/><path d="m144.60246 40.160633c0 4.284081-3.47293 7.757015-7.75702 7.757015-4.28408 0-7.75701-3.472934-7.75701-7.757015s3.47293-7.757015 7.75701-7.757015c4.28409 0 7.75702 3.472934 7.75702 7.757015z" fill="#eee" stroke="none" transform="matrix(1.433962 0 0 1.433962 -58.01878 -18.15999)"/><path d="m159.94788 41.72666c-1.75631 2.19538-7.82228-.41139-11.26962 8.78154-1.02452 2.4881-.00001 32.34528-.00001 32.34528 0 8.04973-6.65407 11.65225-9.80603 10.39147 3.80533-1.17087 9.5846-6.49435 4.82984-13.90408-1.30971-2.04102-12.87958-8.63517-9.9524-19.02664.13494-.40481 1.583 2.82312 3.44416 3.25765 1.86117.43453 4.13544-1.92435 5.9228.54768-7.2277-8.85058-5.67345-12.06237-.7318-19.46571.45891-.68751 2.92718.58543 3.36626 3.65896 0 0 2.4341-11.7158 14.1968-6.58615z"/><path d="m116.477 41.72666c1.75631 2.19538 7.82228-.41139 11.26962 8.78154 1.02452 2.4881.00001 32.34528.00001 32.34528 0 8.04973 6.65407 11.65225 9.80603 10.39147-3.80533-1.17087-9.5846-6.49435-4.82984-13.90408 1.30971-2.04102 12.87958-8.63517 9.9524-19.02664-.26987-.80961-5.79225-1.13873-9.36696 3.80533 7.2277-8.85058 5.67345-12.06237.7318-19.46571-.45891-.68751-2.92718.58543-3.36626 3.65896 0 0-2.4341-11.7158-14.1968-6.58615z"/></g><use height="332" transform="matrix(0 -1 1 0 33.21423 239.2108)" width="280" xlink:href="#h"/><use height="332" transform="matrix(0 1 -1 0 241.2108 -33.21423)" width="280" xlink:href="#h"/><path d="m146.65147 102.50946c.002 4.5279-3.66819 8.19948-8.19609 8.19948s-8.19796-3.67158-8.19609-8.19948c-.002-4.527898 3.66819-8.199478 8.19609-8.199478s8.19796 3.67158 8.19609 8.199478z" fill="#eee" transform="matrix(1.089286 0 0 1.089286 -13.60501 -8.66384)"/></g></g><g transform="matrix(.68201299 0 0 .68201299 77.176866 114.54229)"><path d="m130.11974 277.95264c3.78802-5.52299 6.35848-12.9782 7.08881-20.55995.61986-6.43492.0924-11.7203-3.54695-35.54257-1.17587-7.69696-.50444-19.69805 1.47393-26.34466 1.3614-4.5738.99844-20.67526-.46606-20.67526-.43261 0-2.0924 1.22499-3.68842 2.72221-1.59601 1.49721-4.48282 3.83583-6.41512 5.19694-3.39519 2.39156-4.8591 5.60852-9.4596 20.78775-.27938.92179.18296.73411 1.21925-.49495 1.66926-1.97979 1.66926-1.97979 1.13722 0-1.74951 6.51006-2.15486 12.27998-1.47726 21.02776.81604 10.53482 1.86931 15.61656 4.87438 23.51742 4.52828 11.9056 6.53961 25.79194 4.69184 32.39262-1.05481 3.76807 1.31428 2.71664 4.56798-2.02731z"/><path d="m91.249225 273.57202c8.856525-6.78807 14.587565-19.7729 16.711555-37.8634 1.61763-13.77764 3.95625-28.33018 4.9314-30.68668 1.73735-4.19835 5.77182-17.83868 5.39299-18.23342-.80486-.83864-10.87913 4.46868-14.30095 7.53404-4.115227 3.68652-10.899902 17.28496-13.743181 27.54528-2.365626 8.53664-3.185179 17.40349-3.383652 36.60831-.08441 8.16662-.533681 15.62794-.998396 16.58071-1.300175 2.66564.69047 2.11728 5.390234-1.48484z"/><path d="m165.40719 273.97292c0-.46007-.86201-1.61659-1.91557-2.57004-1.05356-.95347-2.8913-3.80659-4.08385-6.34026-4.65039-9.88014-5.2472-13.59315-5.35459-33.31358-.0833-15.30135-.43346-19.77689-1.87796-24.0049-1.82117-5.33053-3.31626-7.17043-2.19436-2.70047 1.56474 6.23445-5.88101 2.89634-9.25863-4.15085-3.63547-7.58518-4.75379-6.45499-5.69543 5.7559-.61461 7.97014 2.25133 30.62914 5.18434 40.98897 2.29972 8.12295 7.07654 15.88058 12.63614 20.52127 6.56339 5.47857 12.55991 8.25435 12.55991 5.81396z"/><path d="m54.757387 253.52669c2.547638-1.63333 6.082219-3.86058 7.854622-4.94947 1.772404-1.08888 4.674136-3.98432 6.448301-6.4343 5.33779-7.3711 8.503952-10.81334 13.427284-14.59812 3.61792-2.78125 5.059214-4.74318 6.323713-8.60805.900783-2.75318 2.75602-7.23304 4.122755-9.95524 1.679443-3.34505 2.432484-6.37151 2.323061-9.33629-.08906-2.41275-.316419-4.54133-.505261-4.73017-.312994-.31298-21.273006 10.2563-25.18833 12.70146-2.186594 1.36555-6.885061 12.33729-7.633005 17.82438-1.432226 10.50722-3.907038 17.27145-9.088325 24.84045-2.877749 4.20391-5.225706 8.4357-5.217678 9.40399.01092 1.31749.327407 1.13777 1.257688-.71423.6837-1.3611 3.327527-3.81109 5.875175-5.44441z"/><path d="m190.14689 251.19112c-.004-.34875-1.76572-1.63801-3.91451-2.86499s-5.24807-4.18023-6.88729-6.56276c-4.51341-6.56001-9.16132-22.22051-11.49216-38.72122-.30762-2.17776-1.627-7.52319-2.93194-11.87871-1.30494-4.35553-2.66689-9.57372-3.02654-11.59598-.90761-5.10317-3.12734-6.83719-3.95853-3.0923-1.14153 5.14322-3.66785 12.66641-5.43885 16.19653-1.48525 2.96051-1.5631 3.93363-.51478 6.4343.67932 1.62044 1.79126 6.06443 2.47098 9.87552 1.70541 9.56184 3.93421 15.61072 8.94283 24.27041 7.10297 12.28075 16.3392 19.78971 23.33699 18.97276 1.88178-.21968 3.41799-.68479 3.4138-1.03356z"/><path d="m204.01301 231.27296c0-.53407-1.11639-1.25123-2.48087-1.59369-3.38883-.85055-10.55014-9.04571-13.67882-15.6536-1.41716-2.99308-4.17585-11.58879-6.13041-19.10156-5.12953-19.71644-5.54589-20.94095-7.82116-23.00164-1.13314-1.02627-4.63077-4.35549-7.7725-7.39825-3.14174-3.04276-6.0473-5.5323-6.4568-5.5323-1.28432 0 .32956 12.18508 2.1633 16.33323 2.57544 5.82593 6.60876 19.75114 8.10807 27.99349 2.29824 12.63442 9.79784 22.83909 19.71575 26.82716 5.17371 2.0804 14.35344 2.80127 14.35344 1.12716z"/><path d="m52.70528 226.02559c2.468229-1.88258 5.62761-5.73303 7.513119-9.15651 4.706495-8.54546 10.735992-13.50795 22.472133-18.49533 9.75977-4.14752 10.197787-4.4777 21.838248-16.46164 6.53329-6.72608 13.14047-14.41198 14.68262-17.07977 2.94281-5.09082 2.6719-6.14197-.76032-2.95-4.21277 3.91789-16.82745 9.85377-22.336393 10.51047-3.158709.37653-8.830379 2.27018-13.509563 4.51054-12.487202 5.97879-19.019238 14.1329-25.300416 31.58321-3.423208 9.51032-6.735282 15.67087-9.820996 18.26733-2.591936 2.18097-2.728848 2.52042-1.016581 2.52042 1.088338 0 3.895496-1.46192 6.238149-3.24872z"/><path d="m148.43195 201.21103c.12588-2.43174 1.72617-8.13724 3.5562-12.67888 4.41226-10.95001 5.89536-18.98895 5.24737-28.44276-.4542-6.62677-1.19437-9.06572-5.24273-17.27541-2.59261-5.2576-5.05411-9.55928-5.47-9.55928s-1.06916 1.44772-1.45172 3.21715c-.38256 1.76944-1.69103 5.22169-2.90771 7.67167-1.3716 2.76194-2.49637 7.46355-2.96013 12.37366-2.41139 25.53024-2.23623 31.76553 1.11233 39.59572 2.10384 4.91956 6.16436 10.58445 7.15012 9.97522.40558-.25066.8404-2.44535.96627-4.87709z"/><path d="m98.094473 198.55464c0-1.30083 6.541037-7.88615 7.833107-7.88615.53343 0 3.7778-1.61238 7.20972-3.58306 19.65026-11.28358 22.67205-14.70583 24.01402-27.19639.37473-3.48784.90202-7.12108 1.17176-8.07385.3048-1.07668-.0508-1.73231-.93954-1.73231-1.11604 0-1.31605-1.01045-.91114-4.60283.5975-5.30099-1.14799-5.36095-2.13991-.0735-.37993 2.02518-2.4876 5.23064-5.55137 8.44281-2.71639 2.84798-6.25816 7.73148-7.87058 10.85224-1.76687 3.41965-6.74042 9.60713-12.51774 15.57301-8.922447 9.21366-12.278113 14.07474-12.278113 17.78628 0 .83415.445452 1.51663.989893 1.51663s.989893-.4603.989893-1.02288z"/><path d="m193.12419 180.95476c0-.44258-1.36756-2.11303-3.03902-3.7121-4.31008-4.12343-6.15489-7.49508-10.25671-18.74569-5.09794-13.98283-10.67411-24.23194-13.19116-24.24562-3.56049-.0193-11.02751-5.59617-16.00019-11.94992-2.95136-3.77104-5.49125-6.7313-5.64419-6.57835-.99179.99178 3.3651 16.13877 6.30758 21.92876 1.95284 3.84265 4.56155 9.00819 5.79712 11.47898 2.29447 4.58826 9.22055 13.1716 12.70775 15.74845 1.06647.78806 4.65707 4.12895 7.97911 7.4242 6.99814 6.9417 15.33971 11.64619 15.33971 8.65129z"/><path d="m98.227703 170.26384c3.427877-.87819 8.675497-2.97544 11.661387-4.66057 5.7955-3.27078 13.9426-10.48527 13.9426-12.34659 0-3.0877-11.6856-13.07273-15.29917-13.07273-1.17967 0-1.2841.51528-.51462 2.53917 2.08166 5.47517.35356 13.98137-3.77435 18.57844-.93201 1.03794-4.06221 2.97374-6.955988 4.30179-4.343502 1.99336-6.154877 2.30121-10.382512 1.7645-2.816592-.35758-6.39258-1.30766-7.946642-2.1113-5.446916-2.81671-4.436383 1.21414 1.110541 4.42975 4.434809 2.57091 9.72153 2.73905 18.158754.57754z"/><path d="m193.53653 156.65887c-.34328-.89459-1.00069-1.62653-1.46091-1.62653s-3.19663-4.4514-6.08092-9.892c-3.20625-6.04789-6.01353-10.14052-7.22396-10.53151-1.08888-.35173-4.20704-2.05062-6.92925-3.77532-7.32313-4.63967-7.42476-4.69207-7.41743-3.82406.004.44046 1.53428 1.84099 3.40126 3.11228 1.99577 1.35899 3.18067 2.86863 2.87559 3.66366-.2854.74372.58419 2.82174 1.93243 4.61781 1.34822 1.79607 3.57904 5.51885 4.95734 8.27284 2.6003 5.19567 7.98871 9.78595 13.19107 11.23724 3.37677.94202 3.56478.8564 2.75478-1.25441z"/><path d="m130.01706 150.19818c3.73833-4.44275 5.06874-10.56077 3.79494-17.4514-1.27997-6.92395-1.29893-7.41122-.28839-7.41122 1.16118 0 4.16658 12.07702 4.16658 16.74317 0 7.06119 2.8276 4.83147 5.47871-4.32025 3.09783-10.69382.72539-24.11135-6.25007-35.34792-2.4983-4.02444-14.53917-15.680815-16.19805-15.680815-.58227 0-1.93466 1.113629-3.0053 2.474732-3.43385 4.365428-10.71197 2.27517-10.71197-3.076458 0-2.137496-.28864-2.240494-4.78619-1.707823-5.360441.634868-10.113392-1.176072-17.981348-6.851128-3.65219-2.634283-5.349549-3.204333-9.42376-3.164945-4.237168.04096-5.790517.654745-10.543914 4.166291-8.614988 6.364259-10.734864 14.36297-6.154204 23.220976 1.755041 3.39388 2.951851 3.50491 3.744339.3474.648568-2.584085 4.650567-5.852995 8.263171-6.749522 1.22038-.302857 5.674898-.123033 9.898929.39961 7.921767.980177 14.733279 4.006617 17.315771 7.693622.830213 1.18531 3.449866 2.26945 7.125576 2.94894 7.16736 1.32497 13.15672 4.73948 17.77263 10.13213 4.44954 5.1983 5.94344 9.67216 5.10242 15.28051-.74045 4.93763-1.06529 5.14356-3.93639 2.49539-1.12397-1.03669-3.82539-2.40988-6.00316-3.05153-4.37517-1.28908-34.151301-2.66206-34.151301-1.57471 0 1.32264 8.492262 4.40879 15.34334 5.5759 12.381771 2.10926 24.295541 9.19218 25.844861 15.36518.79805 3.17965 2.65086 3.02828 5.58278-.45613z" fill="#d40000"/><path d="m201.04333 136.22438c0-.54444-.5634-.98989-1.25202-.98989-1.79877 0-8.73624-3.80044-11.48403-6.29109-1.28819-1.16765-5.61626-6.17853-9.61793-11.13527-8.52352-10.55784-16.70532-17.11399-23.5844-18.89839-2.69336-.69866-4.99463-1.163605-5.11393-1.033245-.11929.130355 2.16162 5.172625 5.06871 11.205055 4.4212 9.17433 6.17052 11.72404 10.69661 15.59081 2.97607 2.54252 5.66696 4.62277 5.97979 4.62277s3.35994 1.35986 6.77137 3.02191c3.41143 1.66206 7.76168 3.39912 9.66723 3.86014 4.92181 1.19077 12.8686 1.21992 12.8686.0472z"/><path d="m162.97462 127.77824c-1.3051-1.92317-4.91931-8.71631-8.03158-15.09587-3.11226-6.37955-6.76115-13.046905-8.10862-14.816335-2.94833-3.871585-2.04837-4.052023 6.29292-1.261703 3.21505 1.075503 8.21295 1.966398 11.10645 1.979778 8.20711.03798 19.50405-5.372091 21.81678-10.447985.99629-2.186604.7516-2.12334-3.60039.930876-6.01681 4.222576-9.1944 5.348688-16.87397 5.979982-6.49565.533978-12.94726-.975826-17.82393-4.171141-3.98132-2.608665-.82531-2.41719 4.53498.275131 9.00708 4.523998 21.11524 3.1752 30.8031-3.431335 5.71852-3.899693 7.30774-7.441322 1.86721-4.161174-4.63174 2.792528-13.04043 4.504518-18.7837 3.824313-4.3459-.514705-7.62775-1.687173-16.27258-5.813473-1.17829-.562417-4.7419-1.354797-7.91914-1.760841-3.17724-.406054-4.99726-.796686-4.04449-.868067 3.11554-.233436 1.82494-1.549865-5.75496-5.870124-8.1863-4.66589-16.27953-7.465099-26.16908-9.051116-9.382288-1.504666-12.712595-1.298977-17.647438 1.089942-4.104651 1.987022-4.282653 2.228744-2.539798 3.448935 1.030815.721682 3.736786 3.17526 6.013263 5.4524 4.919896 4.921302 7.947571 5.287938 14.585993 1.766266 3.54422-1.880213 4.72855-2.12041 5.69408-1.154879.96554.965542.75522 1.219103-1.01118 1.219103-1.22665 0-3.86913 1.113629-5.87218 2.474732-5.69128 3.867324-8.379085 3.323229-15.05909-3.048415-4.159698-3.967688-6.4171-5.431275-8.015589-5.196938-3.938576.577395-2.897763 2.203829 4.524375 7.070083 5.819214 3.815334 8.388095 4.879875 12.899243 5.345471 3.189751.329209 5.912771.170054 6.278101-.366953 1.40043-2.058502 5.67778-4.298194 8.20866-4.298194 3.31246 0 5.80006.909474 5.80006 2.120518 0 .559884-.68084.554439-1.74285-.01393-2.96521-1.586937-7.10734-.142297-8.76101 3.055542-1.39189 2.691617-1.37259 3.098572.23088 4.870382 2.26959 2.507883 5.44592 2.001434 6.99409-1.115174 1.11691-2.248443.98787-2.590966-1.46006-3.875361-1.68777-.885549-2.19932-1.571545-1.37713-1.846695.71948-.240772 2.27856.448768 3.46463 1.532305 1.18608 1.083546 3.56884 2.6835 5.29502 3.555467 6.60678 3.337345 14.75295 13.005569 24.95039 29.612237 3.76854 6.13709 10.45949 13.40279 13.46516 14.62179 3.91792 1.58899 4.42641.95204 2.04338-2.55955z"/><path d="m111.54014 86.862598c-.42642-.689955-.50798-1.521792-.18124-1.848536.88592-.885914 1.85186.417042 1.37337 1.852535-.3353 1.0059-.56847 1.005118-1.19213-.004z" fill="#ffcd50"/><path d="m125.77159 127.24081c-1.36032-2.54177-7.32503-6.25196-13.32695-8.28967-6.24563-2.12045-19.242554-2.12293-28.760048-.005-23.123436 2.8444-35.16319-2.07824-46.915504-23.254335-.542956-1.720958-.739836-1.77461-1.505954-.410379 3.602969 29.502694 31.52479 31.460204 52.863939 27.542714 14.910497-2.22945 25.087447-.73812 33.370067 4.89007 4.02169 2.7328 5.88006 2.5272 4.27445-.47291z" fill="#d40000"/><path d="m188.71746 120.30876c.28154-.45554-.72767-1.47644-2.24268-2.26869-1.51502-.79225-6.1571-5.04301-10.31575-9.44615-4.8165-5.09966-8.31994-8.00569-9.65146-8.00569-3.10032 0-2.53401 1.10424 2.52002 4.91369 2.50199 1.88588 6.36067 5.89495 8.57484 8.90904 2.21418 3.01411 4.68403 5.97537 5.48856 6.5806 1.52146 1.14455 4.73838.75416 5.62647-.6828z"/></g></svg>