<svg height="312.5" width="312.5" xmlns="http://www.w3.org/2000/svg" xmlns:xlink="http://www.w3.org/1999/xlink"><path d="m0 0h312.5v312.5h-312.5z" fill="#d40000"/><g transform="matrix(1.0935539 0 0 1.0935539 6.018257 -22.123016)"><path d="m207.83023 233.3687c.005 38.91225-31.53868 70.45932-70.45093 70.45932-38.912249 0-70.455561-31.54707-70.450925-70.45932-.0046-38.91225 31.538676-70.45932 70.450925-70.45932 38.91225 0 70.45557 31.54707 70.45093 70.45932z" fill="#ffcd50" transform="matrix(.952993 0 0 .952993 6.457855 5.174563)"/><path id="a" d="m118.74757 163.875v51.28125l-50.187504.0937c-1.087516 0-1.96875 1.3009-1.96875 2.90625 0 1.60536.881231 2.90625 1.96875 2.90625l56.093754-.0937v-5.8125h-.0937v-51.28125c-1.23314-.38807-4.57631-.30439-5.8125 0z" fill="#ffcd50" stroke="#d40000" stroke-linecap="round" stroke-width=".7"/><rect fill="#ffcd50" height="5.811776" rx="1.894373" ry="2.938897" stroke="#d40000" stroke-linecap="round" stroke-width=".7" width="136.62476" x="69.066971" y="245.75336"/><use height="332" transform="matrix(-1 0 0 1 274.7587 .000015)" width="280" xlink:href="#a"/><rect fill="#250" height="13.672104" rx="1.749012" ry="1.086221" stroke="#250" stroke-linecap="round" stroke-width="1.378337" width="22.014553" x="127.22856" y="226.57594"/><rect id="b" fill="#003d8f" height="5.954815" rx=".887316" ry=".473098" stroke="#003d8f" stroke-linecap="round" stroke-width=".64791" width="11.168511" x="107.48074" y="225.38431"/><use height="332" transform="translate(0 10.10057)" width="280" xlink:href="#b"/><use height="332" transform="translate(50)" width="280" xlink:href="#b"/><use height="332" transform="translate(50 10.10057)" width="280" xlink:href="#b"/><use id="c" height="332" transform="matrix(0 1 -1 0 360.5654 101.1128)" width="280" xlink:href="#b"/><use height="332" transform="translate(10.35126)" width="280" xlink:href="#c"/><use height="332" transform="translate(0 -43.3)" width="280" xlink:href="#c"/><use height="332" transform="translate(10.35126 -43.3)" width="280" xlink:href="#c"/><path id="d" d="m141.82164 186.22667c.002 5.74185-2.81596 10.39865-6.29343 10.39865-3.47746 0-6.29582-4.6568-6.29342-10.39865-.002-5.74185 2.81596-10.39865 6.29343-10.39865 3.47746 0 6.29582 4.6568 6.29342 10.39865z" fill="#d40000" stroke="#d40000" stroke-linecap="round" transform="matrix(1.137351 0 0 .928254 -16.7638 18.92259)"/><use id="e" height="332" transform="matrix(0 -1 1 0 -100.5036 370.7914)" width="280" xlink:href="#d"/><use height="332" transform="translate(96 -.000007)" width="280" xlink:href="#e"/><path id="f" d="m68.878212 225.3843h5.783935c.491573 0 .887315.21101.887315.4731v5.00862c0 .2621-.395742.4731-.887315.4731h-5.783935c-.491572 0-.887315-.211-.887315-.4731v-5.00862c0-.26209.395743-.4731.887315-.4731z" fill="#003d8f" stroke="#003d8f" stroke-linecap="round" stroke-width=".64791"/><use height="332" transform="translate(.400058 10.10057)" width="280" xlink:href="#f"/><use height="332" transform="translate(132.3001)" width="280" xlink:href="#f"/><use height="332" transform="translate(131.9001 10.10057)" width="280" xlink:href="#f"/><g transform="translate(.166854 1.200189)"><g fill="#ffcd50" stroke="#d40000" stroke-width=".7" transform="translate(0 2)"><path d="m146.21244 136.2452c0 23.05338 4.52125 24.28717-8.85471 24.41777-14.8433.14636-8.85471-1.80533-8.85471-24.41777 0-15.14813-.86293-27.44227 8.85471-27.44227 7.66861 0 8.85471 12.29414 8.85471 27.44227z" stroke="none"/><path d="m158.94794 160.46754c-1.75631-2.19538-7.82228.41139-11.26962-8.78154-1.02452-2.4881-.00001-32.34528-.00001-32.34528 0-8.04973-6.65407-11.65225-9.80603-10.39147 3.80533 1.17087 9.5846 6.49435 4.82984 13.90408-1.30971 2.04102-12.87958 8.63517-9.9524 19.02664.13494.40481 1.583-2.82312 3.44416-3.25765 1.86117-.43453 4.13544 1.92435 5.9228-.54768-7.2277 8.85058-5.67345 12.06237-.7318 19.46571.45891.68751 2.92718-.58543 3.36626-3.65896 0 0 2.4341 11.7158 14.1968 6.58615z"/><path d="m115.47706 160.46754c1.75631-2.19538 7.82228.41139 11.26962-8.78154 1.02452-2.4881.00001-32.34528.00001-32.34528 0-8.04973 6.65407-11.65225 9.80603-10.39147-3.80533 1.17087-9.5846 6.49435-4.82984 13.90408 1.30971 2.04102 12.87958 8.63517 9.9524 19.02664-.26987.80961-5.79225 1.13873-9.36696-3.80533 7.2277 8.85058 5.67345 12.06237.7318 19.46571-.45891.68751-2.92718-.58543-3.36626-3.65896 0 0-2.4341 11.7158-14.1968 6.58615z"/></g><g id="g" fill="#ffcd50" stroke="#d40000" stroke-width=".7" transform="translate(-1.99993 2)"><path d="m147.21238 65.949c0-23.05338 4.52125-17.31168-8.85471-17.44228-14.8433-.14636-8.85471-5.17016-8.85471 17.44228 0 15.14813-.86293 27.44227 8.85471 27.44227 7.66861 0 8.85471-12.29414 8.85471-27.44227z" stroke="none"/><path d="m144.60246 40.160633c0 4.284081-3.47293 7.757015-7.75702 7.757015-4.28408 0-7.75701-3.472934-7.75701-7.757015s3.47293-7.757015 7.75701-7.757015c4.28409 0 7.75702 3.472934 7.75702 7.757015z" fill="#eee" stroke="none" transform="matrix(1.433962 0 0 1.433962 -58.01878 -18.15999)"/><path d="m159.94788 41.72666c-1.75631 2.19538-7.82228-.41139-11.26962 8.78154-1.02452 2.4881-.00001 32.34528-.00001 32.34528 0 8.04973-6.65407 11.65225-9.80603 10.39147 3.80533-1.17087 9.5846-6.49435 4.82984-13.90408-1.30971-2.04102-12.87958-8.63517-9.9524-19.02664.13494-.40481 1.583 2.82312 3.44416 3.25765 1.86117.43453 4.13544-1.92435 5.9228.54768-7.2277-8.85058-5.67345-12.06237-.7318-19.46571.45891-.68751 2.92718.58543 3.36626 3.65896 0 0 2.4341-11.7158 14.1968-6.58615z"/><path d="m116.477 41.72666c1.75631 2.19538 7.82228-.41139 11.26962 8.78154 1.02452 2.4881.00001 32.34528.00001 32.34528 0 8.04973 6.65407 11.65225 9.80603 10.39147-3.80533-1.17087-9.5846-6.49435-4.82984-13.90408 1.30971-2.04102 12.87958-8.63517 9.9524-19.02664-.26987-.80961-5.79225-1.13873-9.36696 3.80533 7.2277-8.85058 5.67345-12.06237.7318-19.46571-.45891-.68751-2.92718.58543-3.36626 3.65896 0 0-2.4341-11.7158-14.1968-6.58615z"/></g><use height="332" transform="matrix(0 -1 1 0 33.21423 239.2108)" width="280" xlink:href="#g"/><use height="332" transform="matrix(0 1 -1 0 241.2108 -33.21423)" width="280" xlink:href="#g"/><path d="m146.65147 102.50946c.002 4.5279-3.66819 8.19948-8.19609 8.19948s-8.19796-3.67158-8.19609-8.19948c-.002-4.527898 3.66819-8.199478 8.19609-8.199478s8.19796 3.67158 8.19609 8.199478z" fill="#eee" transform="matrix(1.089286 0 0 1.089286 -13.60501 -8.66384)"/></g></g></svg>