<svg height="312.5" width="312.5" xmlns="http://www.w3.org/2000/svg" xmlns:xlink="http://www.w3.org/1999/xlink"><clipPath id="a"><path d="m119.39836 12.54624h125.7892v259.37353h-125.7892v-259.37353z"/></clipPath><path d="m0 0h312.5v312.5h-312.5z" fill="#003d8f"/><g clip-path="url(#a)" transform="matrix(1.2421575 0 0 1.2048261 7.938428 -15.116038)"><path d="m132.40684 44.0625c-8.78646.000008-11.61762 9.464919-16.59248 15.5v79.25h133.75059v-82.8125c-3.63957-5.608948-6.85242-11.9375-14.03202-11.9375-12.89201.000009-12.88109 20.4375-25.7731 20.4375-12.89201-.000011-12.88109-20.4375-25.7731-20.4375-12.89201.000009-12.89793 20.4375-25.78994 20.4375-12.89202-.000011-12.89794-20.4375-25.78995-20.4375z" display="block" fill="#eee"/><path d="m132.40684 102.71875c-8.78646.00001-11.61762 9.46492-16.59248 15.5v56.71875c-.035 7.93861.26654 15.43269.82541 22.53125h132.09977c.56395-7.09802.86044-14.59332.82541-22.53125v-60.28125c-3.63957-5.60895-6.85242-11.9375-14.03202-11.9375-12.89201.00001-12.88109 20.4375-25.7731 20.4375-12.89201-.00001-12.88109-20.4375-25.7731-20.4375-12.89201.00001-12.89793 20.4375-25.78994 20.4375-12.89202-.00001-12.89794-20.4375-25.78995-20.4375z" display="block" fill="#d40000"/><path d="m168.40625 183.8125c-10.91417.00001-14.41419 11.75348-20.59375 19.25v70.46875c-.004.81468-.002 1.59907 0 2.40625 6.17956-7.49652 9.67958-19.24999 20.59375-19.25 16.01391 0 16.01733 25.37499 32.03125 25.375 16.01391 0 16.01734-25.37499 32.03125-25.375 16.01391 0 16.01734 25.37499 32.03125 25.375 16.01391 0 15.98609-25.37499 32-25.375 8.91819 0 12.91658 7.87655 17.4375 14.84375v-72.875c-4.52092-6.9672-8.51931-14.84375-17.4375-14.84375-16.01391.00001-15.98609 25.375-32 25.375-16.01391-.00001-16.01734-25.375-32.03125-25.375-16.01391.00001-16.01734 25.375-32.03125 25.375-16.01392-.00001-16.01734-25.375-32.03125-25.375z" fill="#eee" transform="matrix(.80505089 0 0 .80505089 -3.170635 13.427651)"/></g><g transform="translate(0 3.758995)"><g id="b" transform="matrix(.2813052 0 0 .2813052 -.091381 38.643816)"><path d="m442.1552 81.482275s28.01122-26.165603 52.57468-33.532432c5.54832-1.663997 11.12299.14739 11.12299.14739 6.8508 17.325986-3.56905 49.246232-5.79027 61.445867.30195 9.26594 12.1152 20.74322 6.4982 62.51125-21.31042.85666-48.60282-23.26555-63.26091-31.26412l11.8267-29.28456z" fill="#d40000" fill-rule="evenodd"/><path d="m274.93851 73.115584c-3.91704 1.995779-40.78155 1.947544-38.70142-4.621847s17.63799-34.284672 39.31184-44.534955c13.1686 8.092208 14.96481 20.424983 27.28176 32.725154.80962 1.300913.98599 3.901194-.98979 4.513117-11.14249 3.450967-22.98535 9.922752-26.90239 11.918531z" fill="#d40000" fill-rule="evenodd"/><path d="m277.09764 162.20848s-64.63524-29.16837-28.68593 6.01008c34.9918 33.74219 39.74661 30.0461 40.54453 30.0461 13.67023 0 9.9654-28.4534 9.50801-29.49869-.35368-.80828-1.64031-2.17469-2.56549-2.30282-6.83191-.94613-18.80112-4.25467-18.80112-4.25467z" fill="#d40000" fill-rule="evenodd"/><path d="m380.90968 132.69006c-16.06228-9.84157-42.81741 6.34891-36.48795 16.03257s21.70496 28.52048 37.99045 33.05192c2.13043.0658 5.08946-1.0817 6.02884-2.1974 11.16323-13.25849 11.44293-19.8345 11.63264-21.84431 10.54895-14.44572 6.83649-18.52041 6.83649-18.52041-.95136-3.23667-9.93819 3.3192-26.00047-6.52237z" fill="#d40000" fill-rule="evenodd"/><path d="m385.23267 91.64544c-10.41035 2.16427-53.36826-10.0222-26.48844-9.76255s25.37809-13.105737 41.89415-5.87851c16.29387 7.130003-4.99536 13.47679-15.40571 15.64106z" fill="#d40000" fill-rule="evenodd"/><path d="m57.46529 130.4699c-4.665782-1.12893-21.643839 1.83576-27.275454-10.27904-2.551249-.32822-4.249676 1.34293-4.249676 1.34293-2.657437.94696-2.916672 4.28197-2.916672 4.28197 34.061606 45.96706 212.336572 43.1189 224.126212 42.21033 37.36914-2.93295 62.67158-10.46934 90.85426-10.19146 3.31257-.43959 6.02698-4.63322 8.31565-5.30593 19.98309-5.87366 34.19173-16.14478 47.36201-20.01989 8.50556-1.86673 12.44249-1.24121 19.64856-1.62351 24.48868-1.66061 28.09461 10.27282 31.859 9.75277 24.83759-.18827 25.76591-59.17792-2.41553-59.29198 0 0-4.19256 8.87917-28.40976 12.99492-63.34036-13.98525-90.30585-25.52994-176.84596-29.78916-5.02311-.25904-76.96917-4.41585-139.09505 22.35366-22.011431 1.24423-49.700351 14.13936-49.700351 14.13936s-20.04568.33026-18.939837 8.66327c4.205207 4.87689 25.175684 2.50084 36.608449 16.27864 4.526086 7.59013-4.230577 5.47209-8.925851 4.48312z" fill="#eee" fill-rule="evenodd" stroke="#003d8f" stroke-width="1.193548"/><path d="m96.38125 98.55367c26.55737-8.80294 33.38995 6.38244 29.67977 22.15974-3.90126 16.58988-26.99427 32.13889-35.81135 36.1379" fill="none" stroke="#003d8f" stroke-width="1.193548"/><path d="m122.86621 134.23399c10.17607-19.24648 14.94819-38.12432-14.57247-41.99656" fill="none" stroke="#003d8f" stroke-width="1.193548"/><path d="m114.00205 153.63437c10.96179-2.04917 8.29577-7.92723 7.95694-9.39923 10.47402-1.55396 33.06424-19.28572 55.4655-10.08703.28926 16.54571-23.88698 26.06788-27.48629 26.75053-16.9722-.91256-25.92755-5.37406-35.93615-7.26427z" fill="#d40000" fill-rule="evenodd"/><path d="m61.777163 107.65207c.899813 2.16933 8.381182 5.11682 10.154295 5.27214 1.773112.1553 3.179105-.11464 5.42235-.82639 2.938942-.93249 5.437941-3.96331 5.297825-6.15586-.206432-3.23029-3.306121-5.29575-9.919143-4.97655-3.13987.15156-11.625246 5.07157-10.955327 6.68666z" fill="#003d8f" fill-rule="evenodd"/><path d="m72.393334 101.91468c-2.528855.47063-3.82909 1.28482-3.570633 2.90352s2.213005 4.8031 4.899786 4.48111c2.686781-.32198 6.808266-2.86729 5.521097-5.25523-.938067-1.74029-2.678143-2.89831-6.85025-2.1294z" fill="#eee" fill-rule="evenodd"/></g><use height="304.20001" transform="matrix(-1 0 0 1 149.07219 82.574084)" width="251" xlink:href="#b"/><use height="304.20001" transform="translate(0 165.14819)" width="251" xlink:href="#b"/></g></svg>