<?xml version="1.0" encoding="UTF-8" standalone="no"?>
<!-- Created with Inkscape (http://www.inkscape.org/) -->
<svg
   xmlns:dc="http://purl.org/dc/elements/1.1/"
   xmlns:cc="http://creativecommons.org/ns#"
   xmlns:rdf="http://www.w3.org/1999/02/22-rdf-syntax-ns#"
   xmlns:svg="http://www.w3.org/2000/svg"
   xmlns="http://www.w3.org/2000/svg"
   xmlns:sodipodi="http://sodipodi.sourceforge.net/DTD/sodipodi-0.dtd"
   xmlns:inkscape="http://www.inkscape.org/namespaces/inkscape"
   id="svg2"
   sodipodi:version="0.32"
   inkscape:version="0.46"
   width="600"
   height="400"
   version="1.0"
   sodipodi:docname="Flag for the American Indian Movement.svg"
   inkscape:output_extension="org.inkscape.output.svg.inkscape">
  <metadata
     id="metadata7">
    <rdf:RDF>
      <cc:Work
         rdf:about="">
        <dc:format>image/svg+xml</dc:format>
        <dc:type
           rdf:resource="http://purl.org/dc/dcmitype/StillImage" />
      </cc:Work>
    </rdf:RDF>
  </metadata>
  <defs
     id="defs5">
    <inkscape:perspective
       sodipodi:type="inkscape:persp3d"
       inkscape:vp_x="0 : 526.18109 : 1"
       inkscape:vp_y="0 : 1000 : 0"
       inkscape:vp_z="744.09448 : 526.18109 : 1"
       inkscape:persp3d-origin="372.04724 : 350.78739 : 1"
       id="perspective9" />
  </defs>
  <sodipodi:namedview
     inkscape:window-height="712"
     inkscape:window-width="1024"
     inkscape:pageshadow="2"
     inkscape:pageopacity="0.0"
     guidetolerance="10.0"
     gridtolerance="10.0"
     objecttolerance="10.0"
     borderopacity="1.0"
     bordercolor="#666666"
     pagecolor="#ffffff"
     id="base"
     showgrid="false"
     inkscape:zoom="0.90666667"
     inkscape:cx="300"
     inkscape:cy="200"
     inkscape:window-x="-4"
     inkscape:window-y="-4"
     inkscape:current-layer="svg2" />
  <g
     id="g3174">
    <g
       id="g3168">
      <rect
         y="0"
         x="300"
         height="400"
         width="150"
         id="rect3166"
         style="fill:#ffffff;fill-opacity:1" />
      <rect
         style="fill:#ffff00;fill-opacity:1"
         id="rect3164"
         width="150"
         height="400"
         x="150"
         y="0" />
      <rect
         style="fill:#880000;fill-opacity:1"
         id="rect3160"
         width="150"
         height="400"
         x="450"
         y="0" />
      <rect
         y="0"
         x="0"
         height="400"
         width="150"
         id="rect3162"
         style="fill:#000000;fill-opacity:1" />
    </g>
    <path
       id="path2388"
       d="M 286,331.89145 C 270.51153,329.50563 254.13806,323.65948 241.32196,315.93916 C 225.66945,306.51021 206.22949,286.92913 197.1235,271.41991 C 186.35894,253.08578 179.98764,229.70123 180.00707,208.59755 C 180.02231,192.05457 184.69149,171.35601 191.37252,158.2142 C 195.70244,149.69713 198.00001,147.44967 198.00001,151.73124 C 198.00001,156.3598 201.95591,167.0416 205.97016,173.25243 C 210.55935,180.3528 210.78538,182.03047 208.59813,192.75788 C 204.56698,212.52866 208.31949,235.75483 218.76137,255.66301 C 221.28354,260.47172 223.50231,264.25095 223.69196,264.06129 C 223.88161,263.87164 221.32943,256.11224 218.02044,246.81819 C 214.71146,237.52414 212.00319,229.3592 212.00206,228.6739 C 212.00092,227.98859 214.54881,221.01359 217.66402,213.1739 C 223.16221,199.33722 223.56475,198.67106 231.41402,190.41991 C 235.86131,185.74491 240.39972,180.21405 241.49938,178.12911 L 243.49875,174.33831 L 248.99938,175.12911 C 257.70549,176.38075 267.84132,175.78462 276.43835,173.51533 C 280.80443,172.36285 285.47809,171.41991 286.82426,171.41991 C 289.15008,171.41991 289.24114,171.64396 288.65463,175.92311 C 287.41386,184.97538 282.65689,191.02639 272.89069,195.9753 C 269.13369,197.87912 266.5106,198.41991 261.03324,198.41991 L 254.00001,198.41991 L 254.00001,218.83835 L 254.00001,239.25679 L 257.52315,241.43422 C 262.64436,244.59929 269.56781,253.58676 274.33731,263.26101 C 278.83628,272.38647 280.05062,272.06949 277.57732,262.41528 C 275.63594,254.8373 269.92534,246.30773 262.60773,240.0561 L 257,235.26526 L 257,219.84259 L 257,204.41991 L 263.84996,204.41991 C 269.78711,204.41991 271.21964,204.04235 274.59996,201.58663 C 276.74499,200.02833 279.11761,198.00333 279.87244,197.08663 C 280.6273,196.16994 282.3148,195.41991 283.62244,195.41991 C 285.72305,195.41991 286,195.87829 286,199.35481 C 286,205.01765 287.3836,207.87583 291.29516,210.2933 C 297.29251,213.99987 302.90641,212.75764 306.75919,206.87145 C 309.53466,202.63116 311.75798,202.51204 315.18709,206.41991 C 319.47114,211.30211 326.10512,209.98487 329.40891,203.59603 C 331.67129,199.22109 332.35701,192.04922 330.89857,188.01599 C 326.76603,176.58763 342.26324,185.30096 349.40386,198.4206 C 351.55752,202.3776 352.00394,204.09602 351.29244,205.69056 C 350.53942,207.37814 351.3641,209.37689 355.59192,216.11103 C 360.62642,224.13005 367.01549,237.86261 366.98559,240.60039 C 366.97767,241.32613 364.67485,243.18677 361.86822,244.73515 L 356.76524,247.55039 L 357.41951,251.64193 C 357.98987,255.20877 357.72445,256.09808 355.3498,258.57669 C 353.32948,260.68544 353.03399,261.41991 354.20592,261.41991 C 356.03255,261.41991 357,263.44613 357,267.2718 C 357,268.75037 357.91755,273.27123 359.03902,277.31815 C 360.89907,284.03037 360.93979,284.82896 359.50292,286.41668 C 357.41861,288.71983 345.35124,290.62425 334.77307,290.31944 C 330.22287,290.18833 325.45049,290.42437 324.16776,290.84397 C 322.88162,291.26469 320.07826,294.32571 317.91777,297.66843 C 313.68998,304.20964 312.71119,308.90824 315.75,308.07462 C 316.71249,307.81058 319.3,307.29929 321.5,306.93841 C 330.02371,305.54024 342.9013,301.01894 351.8648,296.27739 C 378.80611,282.02583 397.25173,255.91947 402.94257,223.98625 C 406.31279,205.07475 402.1363,181.89746 391.87282,162.55511 C 377.562,135.58527 351.64537,117.28253 319.56633,111.49114 C 308.29205,109.45574 295.67781,110.2769 279.36023,114.10848 C 277.33185,114.58477 277.20155,114.19464 276.85731,106.61463 C 276.52778,99.357842 276.19389,98.244646 273.2471,94.577756 C 271.46119,92.355443 270,90.352588 270,90.126968 C 270,89.426486 282.13985,86.548063 289.69155,85.457992 C 315.62622,81.714386 346.80914,88.124598 369.67804,101.90066 C 385.33055,111.32961 404.77053,130.91069 413.87649,146.41991 C 424.56819,164.62991 431,188.10573 431,208.91991 C 431,229.73409 424.56819,253.20991 413.87649,271.41991 C 404.77053,286.92913 385.33055,306.51021 369.67804,315.93916 C 345.76177,330.34615 314.57052,336.29242 286,331.89145 z M 332.66645,215.75303 C 332.39411,215.48069 331.15722,215.80058 329.91782,216.46389 L 327.66435,217.66991 L 330.08218,218.97493 C 332.25495,220.14769 332.53352,220.07565 332.8308,218.26407 C 333.01274,217.15533 332.93878,216.02536 332.66645,215.75303 z M 293.42079,203.29904 L 290.5,199.0778 L 290.53064,180.99886 C 290.55707,165.4011 290.8183,162.39385 292.43399,159.08685 C 295.81826,152.15998 302.20609,152.15998 305.53584,159.08685 C 307.03498,162.20549 307.44342,165.9381 307.72727,179.11331 C 308.05764,194.44747 307.94659,195.61483 305.63423,201.11331 C 303.39589,206.4358 302.90671,206.94494 299.76693,207.22009 C 296.72859,207.48636 296.01156,207.04333 293.42079,203.29904 z M 317.86185,203.66991 C 315.42552,200.7257 314.26558,197.29783 312.53875,187.93914 C 309.77767,172.97526 309.58709,167.40535 311.70564,163.59032 C 314.45682,158.63608 318.00422,156.82103 322.6752,157.97768 C 328.38925,159.39263 329.53796,162.50423 329.32601,175.9934 C 329.13533,188.12885 327.63436,198.2925 325.39267,202.62744 C 323.71422,205.8732 320.09917,206.37363 317.86185,203.66991 z M 227.50001,171.33145 C 223.65,168.00191 217.71878,162.83473 214.31951,159.84883 C 210.92024,156.86292 207.82966,154.41991 207.45154,154.41991 C 206.21043,154.41991 199.57943,148.13941 196.86661,144.39447 C 195.40484,142.37655 190.8151,137.33178 186.66719,133.18386 C 180.37136,126.88805 178.28916,123.90827 174.06275,115.14605 C 171.27824,109.37317 169,103.94825 169,103.09067 C 169,102.23309 170.06581,100.29238 171.36844,98.777967 C 173.62423,96.155448 173.92745,96.081595 177.74403,97.225072 C 180.62279,98.087571 183.7574,100.53765 188.87561,105.92579 C 192.79403,110.05087 196.00001,113.9028 196.00001,114.48564 C 196.00001,115.06848 198.95195,116.88382 202.5599,118.51974 C 210.87331,122.28922 216.92808,126.66445 219.46439,130.73507 C 220.55581,132.48673 222.02282,134.51455 222.7244,135.24134 C 223.42598,135.96812 224.00001,137.2006 224.00001,137.98018 C 224.00001,138.75975 227.4875,141.15673 231.75001,143.30678 C 240.28818,147.61354 243.06751,150.12059 245.29102,155.52125 C 246.1065,157.50199 248.17463,160.12013 249.88687,161.33935 C 253.67621,164.0376 253.86361,165.98634 250.41691,166.85141 C 246.79124,167.7614 240.62385,171.81136 238.23066,174.85382 C 237.12049,176.26517 235.82692,177.41209 235.35609,177.40253 C 234.88524,177.39297 231.35001,174.66098 227.50001,171.33145 z M 258.15187,158.71758 C 254.09481,150.76509 252.71984,143.7036 253.43885,134.5126 C 254.05501,126.63599 253.89527,125.43195 251.52213,120.06587 C 248.34875,112.89027 247.39397,106.59716 248.84651,102.43041 C 249.70701,99.961959 249.6106,98.382912 248.39909,95.10196 C 244.268,83.91437 243.5247,79.648122 244.84089,74.679057 C 245.53421,72.061526 246.97424,69.036797 248.04099,67.957439 C 249.96622,66.009426 250.01065,66.024159 254.07268,69.957439 C 258.87421,74.606796 260.55921,77.53127 261.56119,82.954464 C 261.96413,85.135459 263.57475,89.201044 265.14033,91.989098 C 269.23749,99.285521 270.97682,105.89213 270.98919,114.20509 C 270.99595,118.75545 271.53076,122.32171 272.41387,123.70509 C 274.5722,127.08611 278.14153,146.56991 277.80156,153.11474 L 277.5,158.91991 L 272.88468,160.05926 C 270.34627,160.6859 266.43575,161.50839 264.19468,161.88702 C 260.22739,162.55729 260.06813,162.47375 258.15187,158.71758 z"
       style="fill:#880000;fill-opacity:1" />
  </g>
</svg>
