<svg height="300" width="450" xmlns="http://www.w3.org/2000/svg" xmlns:xlink="http://www.w3.org/1999/xlink"><path d="m0 0h450v300h-450z" fill="#bf0a30"/><path d="m37.5 148.84 186.725 126.16 188.275-126.405-188.275-123.595z" fill="#002868"/><path d="m84 149.128 140.417 94.872 141.583-95.056-141.583-92.944z" fill="#fff"/><path d="m148.175 145.014h7.835l1.36 4.376h4.82l-7.48-21.228h-5.116l-7.568 21.228h4.671zm3.903-12.063h.059l2.631 8.397h-5.41zm12.97 16.439h4.345v-8.308h4.583c1.58-.014 2.566.294 2.96.924s.56 1.661.499 3.097c.001 1.073.043 1.935.126 2.587.082.651.198 1.218.347 1.7h4.908v-.562c-.454-.138-.73-.498-.828-1.083-.099-.585-.138-1.633-.118-3.145-.003-1.91-.234-3.205-.691-3.888-.458-.682-1.124-1.18-2-1.493 1.055-.375 1.865-1.014 2.428-1.918.564-.903.848-1.95.854-3.138.022-.65-.137-1.44-.477-2.37s-.995-1.757-1.963-2.483c-.967-.725-2.381-1.108-4.242-1.148h-10.732zm4.345-11.886v-5.676h5.529c1.268.045 2.11.368 2.528.968.417.6.61 1.204.576 1.811.001 1.04-.282 1.784-.85 2.236-.568.451-1.428.672-2.58.661zm21.78 4.701 2.07-2.128 6.563 9.313h5.706l-9.165-12.536 8.662-8.692h-5.735l-8.101 8.633v-8.633h-4.435v21.228h4.435zm21.1 2.809h7.834l1.36 4.376h4.82l-7.48-21.228h-5.115l-7.569 21.228h4.671zm3.902-12.063h.06l2.63 8.397h-5.41zm25.919 9.993h-.06l-8.425-14.782h-4.672v21.228h4.14v-15.138h.059l8.662 15.138h4.435v-21.228h-4.14zm7.322-.088c-.031.916.18 1.919.632 3.009s1.336 2.034 2.649 2.831c1.313.798 3.245 1.216 5.796 1.255.69.033 1.688-.095 2.997-.382 1.308-.287 2.513-.93 3.614-1.926 1.102-.997 1.687-2.543 1.756-4.64-.05-1.862-.615-3.2-1.693-4.017-1.078-.816-2.366-1.379-3.866-1.689l-5.174-1.27a4.085 4.085 0 0 1 -1.456-.566c-.489-.298-.752-.848-.79-1.652.048-.947.453-1.611 1.215-1.992a5.272 5.272 0 0 1 2.48-.55c1.868.073 3.062.487 3.581 1.24.52.755.774 1.405.765 1.952h4.258c.009-.904-.23-1.882-.714-2.934-.485-1.053-1.33-1.961-2.534-2.725-1.205-.763-2.881-1.163-5.03-1.2-2.27.037-3.996.426-5.178 1.168s-1.981 1.616-2.398 2.62c-.417 1.006-.611 1.92-.585 2.746.067 2.254.762 3.777 2.085 4.571s2.875 1.35 4.656 1.667l2.277.532c1.143.24 2.064.537 2.764.895.7.357 1.06.936 1.08 1.737-.054 1.097-.531 1.836-1.431 2.217-.9.38-1.901.558-3.005.532-1.88-.069-3.109-.493-3.688-1.271-.579-.779-.847-1.498-.805-2.158zm25.337 2.158h7.835l1.36 4.376h4.819l-7.48-21.228h-5.115l-7.569 21.228h4.672zm3.902-12.063h.06l2.63 8.397h-5.41zm11.876 9.905c-.032.916.179 1.919.632 3.009s1.335 2.034 2.648 2.831c1.314.798 3.246 1.216 5.796 1.255.69.033 1.689-.095 2.997-.382 1.309-.287 2.514-.93 3.615-1.926 1.101-.997 1.686-2.543 1.755-4.64-.05-1.862-.615-3.2-1.692-4.017-1.078-.816-2.367-1.379-3.866-1.689l-5.174-1.27a4.085 4.085 0 0 1 -1.456-.566c-.49-.298-.753-.848-.79-1.652.048-.947.453-1.611 1.215-1.992a5.272 5.272 0 0 1 2.48-.55c1.868.073 3.062.487 3.58 1.24.52.755.775 1.405.766 1.952h4.257c.01-.904-.229-1.882-.714-2.934-.485-1.053-1.33-1.961-2.534-2.725-1.204-.763-2.88-1.163-5.03-1.2-2.27.037-3.995.426-5.177 1.168s-1.982 1.616-2.398 2.62c-.417 1.006-.612 1.92-.585 2.746.066 2.254.761 3.777 2.084 4.571s2.876 1.35 4.657 1.667l2.276.532c1.144.24 2.065.537 2.765.895.7.357 1.06.936 1.079 1.737-.054 1.097-.53 1.836-1.43 2.217-.9.38-1.902.558-3.005.532-1.88-.069-3.11-.493-3.688-1.271-.58-.779-.848-1.498-.806-2.158z" fill="#002868"/><path d="m229.484 49.981-5.521-4-5.511 4.019 2.095-6.491-5.522-4.004 6.815-.012 2.1-6.493 2.117 6.484 6.819-.01-5.507 4.02z" fill="#fff"/><path d="m234.964 190-9.964 7.081-9.976-7.075 3.81 11.453-9.966 7.088 12.319-.003 3.817 11.456 3.804-11.454 12.324-.009-9.968-7.076z" fill="#002868"/><path id="a" d="m202.7 190-9.965-7.081-9.976 7.075 3.81-11.453-9.965-7.088 12.319.003 3.817-11.456 3.803 11.454 12.325.009-9.968 7.076z" fill="#002868"/><path id="b" d="m215.981 243.541-4 5.521 4.019 5.511-6.491-2.095-4.004 5.522-.012-6.815-6.493-2.099 6.484-2.118-.01-6.818 4.02 5.507z" fill="#fff"/><path id="c" d="m233.019 243.541 4 5.521-4.019 5.511 6.491-2.095 4.004 5.522.012-6.815 6.493-2.099-6.484-2.118.01-6.818-4.02 5.507z" fill="#fff"/><use id="d" height="300" transform="translate(64.528)" width="450" xlink:href="#a"/><use height="300" transform="translate(-32.264 -85)" width="450" xlink:href="#d"/><use id="e" height="300" transform="translate(151.478 -119)" width="450" xlink:href="#b"/><use id="f" height="300" transform="translate(-27 -18)" width="450" xlink:href="#e"/><use id="g" height="300" transform="translate(-27 -18)" width="450" xlink:href="#f"/><use id="h" height="300" transform="translate(-27 -17)" width="450" xlink:href="#g"/><use id="i" height="300" transform="translate(-27 -18)" width="450" xlink:href="#h"/><use id="j" height="300" transform="translate(-163.478 108)" width="450" xlink:href="#i"/><use id="k" height="300" transform="translate(24 16)" width="450" xlink:href="#j"/><use id="l" height="300" transform="translate(24 16)" width="450" xlink:href="#k"/><use id="m" height="300" transform="translate(24 17)" width="450" xlink:href="#l"/><use height="300" transform="translate(24 16)" width="450" xlink:href="#m"/><use height="300" transform="translate(-144 -99.075)" width="450" xlink:href="#b"/><use id="n" height="300" transform="translate(-151 -119)" width="450" xlink:href="#c"/><use id="o" height="300" transform="translate(27 -18)" width="450" xlink:href="#n"/><use id="p" height="300" transform="translate(27 -18)" width="450" xlink:href="#o"/><use id="q" height="300" transform="translate(27 -17)" width="450" xlink:href="#p"/><use id="r" height="300" transform="translate(27 -18)" width="450" xlink:href="#q"/><use id="s" height="300" transform="translate(187 90.925)" width="450" xlink:href="#r"/><use id="t" height="300" transform="translate(-24 17.075)" width="450" xlink:href="#s"/><use id="u" height="300" transform="translate(-24 16)" width="450" xlink:href="#t"/><use id="v" height="300" transform="translate(-24 16)" width="450" xlink:href="#u"/><use id="w" height="300" transform="translate(-24 17)" width="450" xlink:href="#v"/><use height="300" transform="translate(-24 16)" width="450" xlink:href="#w"/></svg>