<svg clip-rule="evenodd" fill-rule="evenodd" height="440" image-rendering="optimizeQuality" shape-rendering="geometricPrecision" text-rendering="geometricPrecision" viewBox="0 0 216958.34 116416.66" width="820" xmlns="http://www.w3.org/2000/svg"><path d="M0-.005h216958.33V116416.66H0z" fill="#c62139" stroke-width=".954"/><path d="M5291.667 5291.667h206374.999v105833.331h-206375z" fill="#00297b"/><path d="M108540.653 26911.73S89363.336 41180.518 89363.336 58005.474c0 16826.954 19177.317 31499.451 19177.317 31499.451s19054.34-13462.363 19054.34-31499.451c0-18036.09-19054.34-31093.742-19054.34-31093.742z" fill="#c62139"/><path d="M108533.424 30365.07s-17060.72 12693.9-17060.72 27662.17c0 14970.267 17060.72 28023.909 17060.72 28023.909s16951.734-11976.415 16951.734-28023.91c0-16045.496-16951.734-27662.168-16951.734-27662.168z" fill="#92dbfc"/><path d="M124736.055 63907.728c-169.487 115.554-374.274 223.173-625.803 319.36-268.57 102.703-580.575 195.03-929.14 277.503-697.132 164.941-1540.039 291.052-2473.235 386.538-933.196 95.488-1956.911 160.21-3014.287 201.538s-2148.74 59.545-3218.407 62.013c-2139.339 4.921-4191.487-52.898-5708.695-111.622s-2499.59-118.338-2499.59-118.338l-878.499 2236.039 18302.343 24.156c413.61-1064.662 761.86-2151.078 1045.313-3277.174z" fill="#9c8431" stroke-width=".004"/><path d="M123690.743 67184.902l-30257.188-39.972c4483.138 10781.283 15100.1 18906.467 15100.1 18906.467s10796.926-7628.54 15157.088-18866.495z" fill="#008ce7"/><path d="M96653.936 73142.637c795.847 25.981 1588.695 193.861 2300.558 575.588 1272.756 667.522 2010.614 662.526 3382.35 683.51 1435.725 21.985 2562.508 1078.229 4114.21 1122.197 2858.451 79.943 4060.22 1498.928 1837.647 1497.928-1049.798-1-3300.366-705.495-4388.157-557.6-1653.682 167.88-2609.499 293.79-3833.264 1266.093-1165.776-1398.998-2331.552-2937.897-3413.344-4587.716zm5654.914 7122.901c708.864-484.653 1196.77-863.382 1884.638-884.367 1336.743-40.97 1792.656-867.379 3337.359-866.38 1755.663 321.77 4135.206-210.849 5527.938-519.628 2472.525-569.592 1299.75-2298.354-196.962-2925.905-1209.768-517.63-3477.332-25.981-4884.062-539.614-1064.795-415.702-186.964-1078.228 385.926-1219.127 577.889-105.924 1197.77 84.94 1916.632 201.855 1283.753 112.92 2896.443-6.995 4024.227-181.87 2330.552-356.744 2234.57-1040.255 3359.355-1056.243 820.842-37.973 1445.722-281.799 2005.614-681.512 657.874-438.686 1342.743-1339.042 2138.59-1303.068l467.91 19.986c-4915.056 9503.197-13742.36 15741.732-13742.36 15741.732s-2852.453-2182.438-6224.805-5785.859z" fill="#ffde52"/><path d="M113607.68 73304.521c304.941 1179.156 627.88 1579.87 1867.641 1882.653 1223.765 302.783 3093.406-886.366 1934.628-2040.54-1102.788-1073.232-2264.565-1348.035-3252.375-2314.343-1532.706-1518.913-3635.302-4658.665-4634.11-7627.54-1092.79-3245.677-902.826-12383.136-853.836-17011.822 1-53.962 132.975-85.939 147.972-107.923 70.986-101.927 138.973 32.976 27.994-645.538-28.994-173.876-166.968-353.747-165.968-529.621 1-313.775-1083.792 342.755-1369.737 902.354-64.987 127.909 207.96 492.647 207.96 564.596 36.993 4440.821-440.915 13208.545 738.858 17177.704 729.86 2457.24 2061.605 4354.882 3267.373 6110.625 722.861 1125.195 1768.66 2339.326 2083.6 3639.395z" fill="#8c4200"/><g fill-rule="nonzero"><g fill="#fff"><path d="M100088.276 60302.828c-13.997-1.999-68.986-8.994-121.976-15.989-376.928-45.967-779.85-204.853-1074.794-424.696-419.92-312.776-697.866-813.417-790.848-1427.977-25.995-171.877-24.995-614.56 1-783.44 73.986-474.66 247.952-893.36 497.904-1199.141 73.986-89.936 215.959-227.837 302.942-292.79 204.96-155.89 469.91-277.802 748.856-345.753 199.962-49.964 322.938-64.954 562.892-71.949 333.936-7.994 568.89 21.985 832.84 109.922 337.935 110.92 599.885 290.792 784.85 536.616 124.975 165.88 286.944 534.617 309.94 704.495 11.998 92.934-24.995 161.884-106.98 196.86-25.995 10.991-155.97 49.964-289.944 85.938-268.948 71.948-306.94 73.947-366.93 23.983-39.992-33.976-53.989-59.957-88.982-168.88-15.997-45.967-54.99-139.9-87.983-206.851-50.99-102.927-71.987-133.905-140.973-202.855-68.987-69.95-98.981-90.935-201.962-140.9-227.956-110.92-483.907-148.893-778.85-112.918-215.958 25.98-449.914 113.918-596.885 224.839-326.937 245.824-508.903 731.476-489.906 1305.065 24.995 782.44 356.931 1213.132 1039.8 1350.034 130.975 25.981 416.92 25.981 556.893 0 203.961-37.973 502.904-154.89 671.871-262.812l60.988-37.973v-248.822l1-249.82-538.896-3.998-538.897-3.997-33.993-23.983c-18.997-13.99-44.992-39.971-57.99-58.958-23.995-32.976-23.995-37.973-23.995-330.763 1-292.79 1-297.787 24.996-330.763 12.997-18.987 39.992-44.968 58.988-57.959l33.994-24.982 922.823 1.999 923.822 1.998 32.994 23.983c18.996 12.99 44.991 41.97 58.988 63.954l23.996 38.973 2 764.452c2 814.417 0 847.394-48.991 906.351-13.997 16.988-77.985 68.951-140.973 114.918-435.916 320.77-899.827 511.634-1376.736 566.595-122.976 13.99-480.907 18.986-556.893 7.994zM104916.349 60343.799c-482.907-36.974-847.837-180.87-1113.786-437.687-261.95-252.82-391.925-569.592-449.914-1097.215-16.996-146.895-17.996-301.784-16.996-1494.93 2-1285.08 3-1333.045 22.995-1372.017 10.998-21.985 36.993-52.963 56.99-68.951l37.992-27.98 316.94-2.998c305.94-1.998 318.938-1.998 363.93 19.986 27.994 13.99 55.988 38.972 70.986 61.955l23.995 38.973 4 1379.012c2.999 1215.13 4.998 1392.004 19.995 1487.935 39.993 249.821 79.985 342.755 196.963 459.671 146.971 145.896 299.942 199.857 589.886 209.85 266.949 7.994 449.914-21.984 606.884-98.93 180.965-87.936 262.95-226.837 324.937-544.61 22.996-119.913 22.996-138.9 31.994-1499.926 8.998-1541.896 2-1413.987 84.984-1476.942l38.992-28.98h329.937c367.93 1 356.931-.999 415.92 76.945l29.994 38.972 1 1237.115c1 1241.111-4.999 1500.925-37.993 1734.758-70.986 497.644-235.954 812.418-553.893 1058.243-106.98 82.94-150.971 110.92-255.951 162.883-160.97 80.942-346.933 135.903-557.893 165.881-109.979 15.989-470.91 26.98-582.888 18.987zM109237.52 60276.847c-13.998-2.998-44.992-25.982-69.987-49.965-50.99-50.963-64.988-97.93-49.99-161.884 18.995-78.943 1582.695-4112.056 1607.69-4144.033 48.99-65.953 62.988-67.952 428.918-66.952 365.93 0 379.927 2.997 429.917 67.95 12.998 18.987 400.923 957.316 861.835 2087.507 731.86 1795.714 836.84 2060.525 836.84 2108.49 0 60.957-23.996 102.927-80.985 143.897-33.994 23.983-34.994 23.983-400.923 22.984h-366.93l-39.992-30.978c-50.99-38.972-49.99-34.975-286.945-654.531-107.98-282.798-200.961-522.626-206.96-532.62-8.999-17.986-54.99-18.986-734.86-19.985-680.868-1-725.86 0-732.858 16.988-4 9.993-95.982 261.813-204.961 559.6-107.98 296.787-205.96 555.602-217.958 574.588s-36.993 44.968-54.99 57.959c-32.993 23.982-38.992 23.982-362.93 24.982-180.965.999-339.935-1-353.932-3.997zm2342.55-2064.523c-15.998-44.967-403.923-1082.225-413.921-1107.207-4-10.992-8.999-5.996-16.997 15.989-17.997 53.96-414.92 1112.203-419.92 1121.197-2.999 3.997 190.964 7.994 429.918 8.993h435.916zM114893.433 60272.85c-45.991-13.99-95.982-66.953-108.98-115.918-6.998-27.98-8.998-712.49-3.999-2119.482l7-2077.513 27.994-37.973c55.989-72.948 50.99-71.949 551.894-70.95 416.92 1 451.913 2 486.906 19.986 19.996 10.993 46.991 34.975 58.989 52.962 11.998 16.988 244.953 701.498 516.9 1518.913 272.948 817.415 497.905 1486.936 500.904 1486.936s234.955-664.525 515.901-1475.944c318.94-923.339 520.9-1491.932 537.897-1517.913 55.99-80.942 50.99-79.943 509.902-78.944 390.925 0 408.922 1 445.914 21.985 20.996 11.991 49.99 39.971 64.988 60.956l25.995 39.971-3 2089.505c-3.999 1969.59-4.998 2091.503-22.995 2123.48-9.998 17.987-35.993 46.966-57.989 62.955l-38.992 29.978-318.94-1c-315.938 0-318.938 0-352.931-24.981-18.997-12.991-44.992-38.972-57.99-57.959l-24.994-33.976-3-1199.141-3-1198.142-55.989 158.886c-30.994 87.937-220.957 631.548-421.918 1208.135-352.933 1010.277-367.93 1051.247-408.922 1093.217-24.995 25.982-55.99 45.968-76.985 49.965-19.996 3.997-152.97 6.995-296.943 6.995-250.952-1-263.95-1.999-308.94-24.982-25.996-12.991-56.99-38.973-68.988-56.96s-206.96-580.584-432.916-1250.105c-225.957-668.521-414.92-1216.13-418.92-1216.13-4.999 0-8.998 541.613-10.998 1205.138-2 1350.034 4 1251.104-79.984 1307.064l-42.992 27.98-297.943 1c-163.968.999-312.94-2.998-330.936-8.994z"/></g><g fill="#bd0728"><path d="M100060.282 60117.96c-541.896-61.955-1029.802-301.784-1323.746-651.533-247.952-293.79-407.922-681.513-460.911-1117.2-16.997-143.898-15.997-483.654 2-621.556 61.987-474.66 249.951-917.343 518.9-1222.125 458.911-520.627 1411.728-730.477 2185.58-480.656 487.906 156.888 777.85 454.675 942.819 965.31 22.995 70.948 39.992 130.906 37.992 133.903-5.999 3.997-421.919 116.917-452.913 122.912-17.996 2.998-26.995-13.99-53.99-93.932-76.985-225.839-193.962-413.704-323.937-517.63-283.946-225.838-683.869-308.779-1152.779-237.83-299.942 45.967-597.885 199.857-768.852 397.716-256.95 296.787-383.926 660.527-399.923 1141.183-14.997 475.66 70.986 838.4 269.948 1138.185 322.938 487.651 1074.793 705.495 1743.665 505.638 213.959-63.954 446.914-174.875 610.883-291.791l75.985-53.961 1-384.725v-385.724l-603.884-1-604.884-.998 1-235.832v-235.83l863.834 1.998 863.834.999-2 751.462-1 751.462-94.981 69.95c-388.925 285.796-778.85 458.672-1195.77 532.619-153.97 26.98-521.9 36.973-677.87 18.986zM104846.362 60154.934c-391.924-42.97-696.866-168.88-912.824-378.73-196.962-190.862-309.94-427.693-368.93-772.446-41.991-247.823-44.99-375.731-42.991-1694.787l2-1292.075 264.949 1h263.949l2 1378.013c2 1465.95 1 1441.968 56.989 1662.81 70.986 281.798 280.946 490.648 580.888 577.586 239.954 69.95 563.892 70.95 836.84 2.998 323.937-80.942 497.904-254.818 585.887-584.582 67.987-252.819 66.987-228.836 73.986-1688.79l6.998-1344.039 264.95 1h263.949l-3 1246.108c-1 717.486-6.998 1316.058-13.997 1411.989-44.991 631.548-208.96 973.303-591.886 1232.118-150.971 102.926-355.932 180.87-581.889 222.84-97.98 17.988-575.889 30.978-687.868 18.987zM109319.503 60041.015c12.998-32.976 365.93-947.322 784.85-2032.545l762.853-1972.588 285.945-1.998 286.945-2.998 821.842 2018.555c451.913 1110.205 824.842 2027.549 828.841 2038.54 6.999 18.987-10.998 19.986-291.944 19.986l-299.942-.999-51.99-134.903c-28.995-73.947-133.975-350.75-234.955-613.561l-182.965-477.658-861.835-3.997-861.834-4.997-223.957 615.56-223.957 615.559-280.946-1h-279.946zm2533.514-1623.837c-3-10.992-120.977-325.767-260.95-699.5s-297.943-807.422-349.933-965.309c-51.99-156.887-96.981-287.794-98.98-290.791-3-2.998-22.997 65.952-43.992 152.89-68.987 288.793-134.975 486.652-380.927 1136.187-132.975 354.746-245.953 653.532-249.952 664.524-7.999 18.987 29.994 19.986 690.867 20.985 659.873 1 698.866 0 693.867-18.986zM114964.42 58063.431l3.998-2037.542 399.924 3.998 398.923 3.997 539.896 1623.837c296.943 892.362 556.893 1678.799 576.89 1747.75 20.995 67.95 39.992 121.912 42.991 119.913 2-2.997 68.987-195.86 147.972-429.692 79.984-232.833 349.933-1016.272 600.884-1740.754l456.913-1317.057 357.93-1.999 357.932-1.998-4 2036.542-3.998 2037.541-252.952-.999h-252.951l3-1711.775c1.999-941.326-1-1705.778-7-1699.783-4.998 5.996-255.95 717.487-556.892 1580.869s-567.891 1627.834-592.887 1698.784l-45.99 128.907h-477.909l-581.888-1724.765c-319.939-948.321-585.888-1731.76-590.887-1741.753-4.999-8.994-10.998 766.451-12.997 1723.766l-4 1739.754h-252.95l-252.952-.999z"/></g></g><path d="M97275.817 44880.868c76.985 105.924 65.987 562.597 65.987 562.597 62.988 37.973 1084.792-869.378 1084.792-828.407 1 190.863 23.995 584.582 23.995 584.582s1057.797-1005.28 1101.788-899.357c48.99 118.915-3.999 701.498-3.999 701.498s703.865-775.445 832.84-915.345c92.982-99.928 77.985 125.91 86.983 490.65 2 64.953 1153.779-849.393 1223.765-865.381 148.972-31.977 194.963 474.66 186.964 601.57-5.998 93.932 1062.796-609.565 1015.805-516.631l78.985 540.613c297.943-40.97 1007.807-305.781 1434.725-236.83 136.973 21.984 129.975 90.934 7.998 140.899-2057.605 832.404-3640.3 2087.505-4562.124 3836.253-313.94 595.574-409.921 1115.202-326.937 1246.108 0 0 369.929-795.43 786.849-920.34 55.99-15.99 92.982 509.634 149.971 479.656 0 0 315.94-797.43 543.896-1091.219 60.988-78.943 162.968 418.7 227.956 344.753 0 0 163.968-533.618 484.907-905.352 45.99-52.962 128.975 504.64 179.965 457.673 332.936-306.78 645.876-1076.23 770.852-1133.19 86.983-67.95 101.98 639.543 184.965 578.587 0 0 474.908-953.318 758.854-1126.194 181.965-111.92 174.966 520.627 174.966 520.627 361.93-356.744 760.854-948.321 949.818-1205.137 86.983-117.916 38.992 779.442 131.974 814.417 118.978 45.967 898.828-687.508 986.811-702.497 57.989-9.993 125.976 208.85-25.995 384.724-11.998 13.99-963.815 1111.205-963.815 1111.205 184.965 34.975 256.95-16.988 389.925 17.987 394.924 103.926-739.858 754.46-720.861 876.373 0 0 546.895-9.993 363.93 95.931-131.975 76.945-854.836 1007.279-854.836 974.303 0-16.988 362.93 7.994 360.93 111.92-2.999 192.861-600.884 1187.15-606.883 1181.154-32.994-32.976 320.939-42.97 368.93 54.96 87.982 180.871-613.883 985.295-476.91 1122.197 18.997 18.987 400.924 5.996 570.891 43.969 81.985 17.987 311.94 1460.954 253.951 1402.996-12.997-13.99 245.953-1353.032 402.923-1760.74 95.982-246.823 402.923 372.733 427.918 317.772-12.998 0-61.988-880.37-18.996-1281.082 11.997-111.92 232.955 116.916 229.955 9.992-7.998-242.826-27.994-502.64 21.996-739.47 37.993-178.872 225.957 322.769 298.943 187.865 0 0-227.956-871.376-132.975-1117.2 62.988-161.884 214.959 391.72 314.94 413.704 0 0-55.99-677.515 48.99-852.39l316.94 339.757c68.986-108.922 55.989-1164.167 119.976-1263.096 52.99-82.94 381.927 395.717 430.918 320.77 43.991-67.951-138.974-851.39-97.981-913.346 57.988-88.936 418.92 217.844 425.918 211.848 146.971-147.894 141.972-516.63 203.96-653.532 165.969-370.734 1117.786-418.7 1229.764-154.889 54.99 127.909 16.997 292.79-4.999 491.648 8.999 7.995 476.909 41.97 480.908 5.996 0 0-55.99 436.687-22.996 917.343 5 63.954 474.91-15.988 480.908 47.966 42.992 452.676-60.988 494.646-60.988 494.646 3.999 32.976 316.939-47.966 321.938-12.99 33.993 220.841-36.993 489.649-176.966 748.463-20.996 36.974 447.914-35.974 454.912 6.995 56.99 339.757 67.987 609.564 8.999 1089.22-5 38.973 458.912-338.757 465.91-299.785 69.987 403.711-10.998 839.4 30.994 1257.1 9.998 96.931 306.941-288.793 333.936-176.873 26.995 109.921-65.987 909.35-20.996 954.317 0 0 496.905-24.982 540.896 16.988 393.925 369.735 318.94 1015.273 318.94 1015.273 107.978-79.943 66.986-857.386-41.993-1568.877-11.998-74.946 381.927-45.967 369.93-115.917 0 0-431.918-259.814-573.89-983.296-29.995-154.89 416.92-122.912 416.92-122.912-123.977-284.796-341.935-338.758-526.9-612.562-59.988-89.935 463.911-130.906 463.911-156.887 1-272.805-441.915-402.712-670.87-686.509-97.982-120.913 477.907-126.91 477.907-126.91-168.967-234.831-725.86-337.757-1009.806-648.535-154.97-168.879 564.892-334.76 555.894-363.74-78.985-248.821-755.855-326.766-1083.792-607.565-67.987-57.958 427.918-253.818 427.918-253.818-49.99-105.924-1130.783-816.415-580.889-751.462 231.956 27.98 702.865 357.744 739.858 307.78 0 0-19.996-414.703 27.995-464.668 180.965-187.865 804.845 797.43 1016.804 757.458 0 0 77.985-705.495 173.967-724.481 227.956-42.97 505.903 1027.264 730.86 1027.264 29.994 0 46.99-618.557 162.968-652.532 130.975-37.973 277.947 693.503 443.915 855.387 153.97 148.894 155.97-571.59 245.953-434.689 152.97 220.842 189.963 681.513 398.923 884.367 135.974 131.906 160.97-635.545 311.94-532.618 174.967 118.914 133.974 516.63 330.937 712.49 93.982 92.933 156.97-506.638 263.949-418.7 94.982 76.944 158.97 810.42 260.95 926.336 129.975 147.894 279.946-386.723 414.92-301.784 96.982 61.956 73.986 696.502 163.969 832.404 183.964 281.799 279.946-340.756 401.922-244.824 84.984 64.953 268.949 794.43 345.934 852.39 170.967 129.906 264.95-331.763 394.924-266.81 93.982 45.967 283.946 985.295 361.93 961.312 50.99-15.988 176.967-2140.468-640.876-3036.826-1332.744-1460.954-3719.286-2304.35-5666.912-2325.335 0 0 978.812-194.86 1004.807-356.745 51.99-322.769 537.897-284.796 876.832-210.849 59.988 12.99 27.994-570.592 35.993-573.59 302.942-6.994 573.89 171.878 863.834 347.752 89.983 54.96-182.965-584.582-86.983-529.621 371.928 214.846 785.849 277.8 1036.8 538.614 65.988 68.95-75.985-492.647-75.985-492.647 185.964-44.968 552.894 222.84 696.866 473.66 69.987 123.912-3.999-654.53 50.99-516.63 0 0 647.876 219.843 717.863 492.648 0 0 52.99-493.647 139.973-467.665 259.95 67.951 487.906 506.637 690.867 569.592 0 0-83.984-439.685-17.997-422.697 487.907 122.912 1017.805 424.696 1016.805 422.697-274.947-687.508-1317.747-1407.992-3152.394-1600.854-336.936-34.975-1703.673-90.935-2862.45 177.873-949.818 219.842-1699.674 344.753-1545.704 194.86 627.88-614.56 1642.685-689.506 1921.631-832.404 199.962-101.927-672.87-438.686-499.904-486.652 171.967-40.97 951.817-105.924 951.817-105.924 168.968-131.905-566.89-389.72-456.912-581.584 219.958-384.724 1520.708-34.974 1631.687-180.87 35.993-48.965-558.893-400.713-533.898-452.676 94.982-194.86 1252.76 143.897 1279.755-25.981 0 0-350.933-261.813-600.885-476.66-29.994-25.98 1033.801-311.776 1033.801-311.776-19.996-19.986-181.965-133.904-425.918-228.836-222.957-86.938 933.82-387.723 933.82-387.723-1465.718-669.52-5269.987 1235.116-6024.842 3211.701-195.962 471.663-201.961-40.97-160.97-440.684 38.993-429.693 92.983-806.423 46.992-1201.14-13.997-116.917-310.94 310.777-330.937 196.859-75.985-419.7 148.972-880.37 45.992-1346.037-33.994-156.888-427.918 462.669-479.908 305.781-143.973-430.691 107.98-1036.258 5.999-1629.833-39.993-231.834-412.921 496.644-537.897 288.793-145.972-240.827-81.984-1133.189-150.971-1268.092-55.99-107.923-387.926 427.694-415.92 326.766-449.914-1635.829 147.971-1839.683-715.863-917.343-29.994 31.977-221.957-967.308-254.95-933.332-353.933 757.458-933.821-539.614-1131.783-418.7-147.972 91.934 403.922 593.575 409.92 819.413 3 108.922-507.902 115.917-507.902 115.917 10.998 186.866 971.814 710.491 1002.808 915.345 24.995 168.879-679.87 126.909-679.87 126.909 21.996 228.836 822.842 446.68 866.834 689.506 24.995 133.905-374.928 163.883-361.93 299.786 20.995 208.85 773.85 621.555 798.846 834.403 16.997 147.894-480.908 208.85-492.905 346.751-14.997 166.88 999.808 726.48 1000.808 883.368 1 221.841-403.923 107.923-587.888 219.843-258.95 156.887 830.84 792.432 876.832 973.303 35.993 158.886-435.916 18.986-451.913 163.883-19.996 189.864 533.897 476.658 660.873 802.425 126.975 321.77-3 403.711-184.965 275.803-364.93-256.816-1836.647-1819.698-2227.572-2236.4-567.89-605.566-1730.667-1284.08-2890.445-1324.052-120.976 36.974 623.88 563.597 628.88 754.46 1 48.965-334.936 121.913-319.939 136.902 205.96 205.853 846.837 450.678 846.837 450.678l-183.964 330.763c42.991 96.93 346.933 122.912 833.84 282.798 0 0-364.93 225.838-337.935 246.823 257.95 205.852 757.854 357.744 757.854 357.744l-491.906 164.882c-28.994 94.932 1106.788 549.606 1106.788 549.606s-354.932 305.781-338.935 321.77c86.983 86.938 921.823 279.8 921.823 279.8 13.997 13.99-589.887 201.855-585.888 205.852 218.958 218.844 822.842 289.793 963.815 651.534 0 0 82.984 205.853-155.97 166.88-939.82-340.756-2395.54-1046.25-5217.998-769.449-2885.445 375.731-5084.023 2882.937-5046.03 3132.758 0 0 1031.801-739.47 1140.78-589.578z" fill="#109421"/><g fill="#8c4200" transform="matrix(.9998 0 0 .99928 .5 -.005)"><ellipse rx="1984" ry="2944" transform="matrix(.25851 -.16643 .11895 .18468 107739 45095.2)"/><ellipse rx="1984" ry="2944" transform="matrix(-.29525 -.19008 -.13586 .21093 108755 45678)"/><ellipse rx="1984" ry="2944" transform="matrix(-.31518 -.2029 -.14503 .22516 107930 46255.5)"/></g><path d="M102200.87 69698.103h918.824v686.508h-918.823z"/><path d="M97605.753 70139.787s6035.84 459.67 9737.13-334.76c0 0 310.94 210.848-135.974 732.475-446.914 520.627-1577.697 632.547-2198.578 744.467 0 0-148.971 334.76-136.973 508.636 12.997 173.875 391.924 155.888 577.889 117.916l185.964-36.974s-86.983 651.534-2371.545 738.471c-749.856 28.98-3222.38 80.942-3745.28-651.533 0 0 452.913 36.973 570.89 0s31.994-508.636-11.998-577.587c-42.991-67.951-1602.692 0-2421.534-757.458-202.961-215.845-299.943-445.68-299.943-527.622 0-6.995 249.952 43.969 249.952 43.969zm3145.396 1266.093s1651.683 210.85 3552.318 0c0 0 49.99 359.743-36.993 496.645s-2279.562 241.827-3385.35 49.964c-177.966-56.96-183.965-274.803-129.975-546.609z" fill="#8c4200"/><path d="M98445.592 69845.997s2239.57-2380.296 1553.701-7346.741c0 0 2333.552 600.57 4712.095 4031.114 0 0 693.867 696.502 1509.71 3180.723z" fill="#fdf9ff"/></svg>