<svg height="250" viewBox="0 0 500 250" width="500" xmlns="http://www.w3.org/2000/svg"><path d="m0 0h500v250h-500z" fill="#2b5df2"/><path d="m360.1 0 .4 250h-229.9v-250h52.1l-.1 27.9h35.4v-27.9h49.3l-.1 28.3 35.3-.1.3-28.2z" fill="#e20909"/><g transform="matrix(.425338 0 0 .386921 112.8638 -14.50946)"><g stroke="#000" stroke-width="2"><path d="m330.2 283.2c-42.8-35.7-89.9-68.7-141.8-10.1l-16.6 20.9-1.4 9.3-18.1 12.9-6.5 7.2c-18.4-7.8-23.8-4.9-31.1-3.6 6.8 2.3 10.9 2.2 17.7 8.2-3.7 3.6-7.6 7.7-12.6 14-11.4.1-14-11.3-20.3-18 .7 12 4.4 22.5 16.6 28.7 3.6 16.6 7.2 23.3 10.9 26.6 2.9 16.1 9.2 23.5 15.9 30.2l8 15.8 7.2 7.9 6.5 7.9 11.6-2.2 4.3-3.6-2.2 12.2 7.2 12.9 13 10.8 9.4 9.3 8 2.9 2.2 8.6 7.2-2.9c-5.2-14.7 3.7-11.3 11.6-9.3-2.3-11.2 5.3-10 10.1-12.2 4.6-9.7 15.1-7.9 23.1-10.8l4.3-8.6.7 40.2-6.5 20.8-4.3 12.9 15.2.7 2.9 2.9 31.8.7 2.9-6.5-2.2-15.1 3.6-8.6v-18-28.7l13-25.1h28.9c12.3 11.4 24.6 5.3 36.9-2.2l4.3 12.9.7 26.6-1.4 13.6-8.7 17.2-8 25.9 25.3-1.4 4.3-10.1 2.9-16.5 8-24.4 12.3-15.1 5.1 19.4-5.1 28.7-8 13.6s-5.8 7.2-1.4 7.9 34.7 1.4 34.7 1.4l-4.3-12.9 6.5-3.6v-49.6c9.1-18.7 15.6-32.5-5.1-44.5 3.8-26.7 7.1-47-2.3-74.3 4 11.1 8.3 22.2 16.1 33.4-.7 19.5 6.1 26 13 32.3h4.3c4.1-19.5.2-29.8-7.2-35.9-13.9-15.4-21.2-34.7-20.3-55.3 11.2-43.6-14.6-74.7-45.6-21.5-25.4-.3-46.9 1.1-87.2-6.8z" fill="#fcef3c"/><path d="m208 313.4c-7.1 15.8 3.9 34.1 10 38.9 8.1 6.3 20 1.1 31.8-3.6 4 3 8.2 5.7 16 4.9" fill="none"/><path d="m366.4 302.6c9.6-.8 19.2-1.2 28.8-.2 4.1 13.9.4 27.9-.8 41.8-1.6-9.1-1.9-18.2-7.1-27.3" fill="none"/><path d="m429.3 289.7c32.7-37.6 21.8 5.5 20.3 23.7z" fill="#e20909"/><path d="m184.8 355c6.7 2.7 9.6 11.5 12.3 20.8" fill="none"/><path d="m161 351.4c1 5.8 8.2 12.9 15.9 20.1.8 7.8 1.6 15.6 5.1 28.7" fill="none"/><path d="m148.7 327c.2 0 .5 0 0 0z" fill="none"/></g><path d="m146.5 325.6c2.6 4.9 5.9 11.5 10.2 14.7 4.8 3.6 10.8 3.5 18 4.7.3-6.2.4-12.5-.7-18.7-3.5-4.9-9-5.5-15.2-5-1.8 2.1-1.4 4.8-12.3 4.3z"/><g stroke="#000" stroke-width="2"><path d="m136.9 377.5c4.4 1.6 8.7 2.6 13.1 1.5 2.8-15-8.3-9.1-13.1-1.5z"/><g fill="none"><path d="m142.9 339.2c-3.5-4.1-7-8.8-10.5-10.4"/><path d="m118.9 341.8c-.9 3.4-2.5 5.3-2.1 11.1"/><path d="m183.4 355c.2 0 .5 0 0 0z"/><path d="m166.8 392.4c1.7 6.9 2.5 13.7-6.5 18"/><path d="m152.3 424.7c.2 0 .5 0 0 0z"/><path d="m153.7 425.4c13-12.1 14.8-2.1 20.3.7 11 1.9 18.6 5.7 17.4 14.4-.7 5 1.8 9.3 8 12.9"/><path d="m159.5 433.3c.1-4.5 5.4-6.9 10.9-8.6"/><path d="m229.7 380.9c-2.4 14.1-8.8 25.1 18.2 31.2 6.7 6.1 20.4 22.1 29.7 37.1 7.6 12.3 11.4 23.3 12.8 33"/><path d="m269.8 399.7c-5.7 5-9.3 10.8-21.3 13.2"/><path d="m285.4 416.8c3.4 41.9 10.9 88.4-6.5 107"/><path d="m269.5 508.7 5.1 2.2"/><path d="m388.8 504.4c1 0 1 0 0 0z"/><path d="m401.1 505.2v-.7"/><path d="m433.1 507.3h15.1"/><path d="m443.8 447.7c6.9 4.9 4.6 8.6 2.2 12.2"/><path d="m457.1 487.3c-3.9 1.4-7.2 17.9 2.6 7.8"/><path d="m457.5 418.2h-4.3"/><path d="m459 411.8c-11 24.4-44.3 21.1-57.1-25.9"/><path d="m434.4 407.5c-.3 0-.5 0 0 0z"/><path d="m433.7 406.7c-13.6 8.7-24.7 2.3-32.9-21.5"/><path d="m445.2 429c18 9.1 28.4 10.3 15.2-12.9"/><path d="m436.8 451.3c-11.7-9.1-19.4-20.6-33.9-36.6 1.3-21.2-13.4-18.4-25-23.1"/><path d="m336.7 386.6c-.5 8-4.4 13.1-13 14.4"/><path d="m331.8 425.3c-2.6-9.1-8.5-17.2-7.3-25.1"/><path d="m385.7 361.7c-13.1 35.1 46.3 27.2 44 9.1l-1-1h-1"/><path d="m388.8 502.9 11.3 1"/><path d="m303.9 448.1-.6 31c-6.7 4.2-9.3 4.4-12.3 5"/><path d="m312 475.5c-3 9.5-2.8 19-2 28.4"/></g></g></g></svg>