<?xml version="1.0" encoding="UTF-8"?>
<svg xmlns="http://www.w3.org/2000/svg" width="600" height="300">
<rect height="300" width="600" fill="#0038a8"/>
<rect height="200" width="600" fill="#fff"/>
<rect height="100" width="600" fill="#de1818"/>
<g>
<path fill="#fc0" d="m261.379,78.6858-5.87939,14.6392-2.19267-0.63566c-6.49373,15.0084-13.9414,22.2386-21.3004,30.0516,15.0699,16.598,6.44726,35.2437,1.63713,42.7419-24.9285,38.0803,6.49096,58.4083,31.3035,58.281l23.5805-0.0601c5.43802,0.36451,8.70179,3.53403,10.6712,7.3809,2.02501-3.931,5.23926-6.89366,10.4492-7.32087l21.3604-0.42003c24.7945-0.72375,57.9571-19.7807,33.617-58.1823-5.36626-7.17692-11.0303-25.8396,3.58367-42.629-7.98261-7.53093-16.0258-14.8198-22.1404-29.8233l-1.74002,0.60004-6.18014-14.5816c-25.2939-7.56825-51.4276-7.56825-76.7695-0.0421z"/>
<path fill="#fff" d="m254.863,98.8158c-4.04497,9.60945-8.94158,16.342-15.3456,24.3149,7.09671,12.6332,11.7201,24.3051,2.4053,38.1437-19.3212,27.8545-0.77452,55.2993,26.5594,55.6697l16.9285,0.55157c11.2624,0.69409,13.8737,7.42546,13.8737,7.42546s3.54276-7.12587,12.8554-7.55272l8.74001,0.0425c28.333,1.07996,55.9597-21.2622,35.0873-57.8761-9.3247-17.2462,0.13165-30.5148,5.22724-36.7878-6.03887-6.97982-12.749-13.8942-17.5311-24.016-28.7078,7.5636-58.1594,8.84533-88.8001,0.0849z"/>
<path fill="#de1818" d="m312.216,217.024c-7.5293,1.0992-10.0733,4.6213-12.9563,7.97859-2.27206-4.88251-7.73693-6.44795-13.1691-8.04726l0.0223-112.308,26.0958,0.13736zm-75.455-43.1253,10.641-26.1311,104.079-0.002,10.7078,26.1311zm4.03847-52.2484,15.0246-22.923,4.13941,0.91057-0.001,116.124-14.6198-6.46595-7.23582-9.26955,120.932-0.00048-8.05981,8.84342-12.6343,6.58306-0.002-115.127,4.97768-0.84151,16.2055,22.1543z"/>
<path fill="none" stroke="#fff" stroke-width="2.1472" d="m255.534,98.7268c-4.83316,10.2535-10.7959,17.2347-16.2429,24.0432,3.60617,6.2898,12.9513,19.5819,3.74517,36.7745-21.0008,36.6728,0.47535,55.1892,25.4447,57.3979l16.9285,0.55166c11.2624,0.69407,13.8737,7.42539,13.8737,7.42539s3.54275-7.12589,12.8554-7.55272l8.74002,0.0425c28.333,1.07996,56.0933-21.1919,35.0873-57.876-9.32471-17.1813,0.13165-30.5148,5.22724-36.7878-6.03883-6.9798-12.749-13.8942-17.5311-24.016-28.7078,7.56358-60.1862,7.69558-88.1246-0.002z"/>
<path fill="#fff" d="m263.203,81.0158-4.84243,12.65c28.4404,4.89686,55.0469,4.89686,83.4418,0.1231l-5.75921-12.7821c-21.9899-6.55173-50.828-6.55173-72.8401,0.009z"/>
<g fill="none" stroke="#fc0" stroke-width="0.7789">
<path d="m277.01,90.9658-3.13958,3.05505-12.5585-1.78212,4.83672-10.2683,8.5703-1.18808,8.44299,7.38302,4.2003-0.0424,1.01824-1.35781"/>
<path d="m275.694,90.0328-2.33351,2.2913-8.86728-1.35782,3.13961-7.00112,6.27924-0.84862,8.443,7.25571,5.81253,0,1.52739-1.95182"/>
<path d="m274.422,88.7168-1.92048,1.89116-5.4004-0.72371,1.89021-4.26494,3.98817-0.5516,8.57029,7.29816,7.84903,0,1.65466-2.20643"/>
<path d="m273.234,87.6988-1.46439,1.20864-1.92977-0.27516,0.61983-1.54811,1.8595-0.27115,8.38203,7.29287,9.92796,0.33945,1.82436-2.24884"/>
<path d="m281.592,86.5958,1.31525-1.40023,4.28515-0.12729,6.83077,9.2924,11.5826,0.0849,1.90922-2.461"/>
<path d="m280.064,85.2798,2.16379-1.9094,6.5338-0.16971,6.1095,8.86811,9.84311,0,1.61223-2.12157"/>
<path d="m278.664,84.0918,2.71534-2.80047,8.35206-0.1557,6.10359,8.59953,7.73379,0.0424,1.15493-2.00368"/>
<path d="m276.925,82.5218,3.35173-3.18234,10.6068-0.33945,6.10954,8.78324,5.77008-0.0424,0.90553-1.6518"/>
<path d="m317.906,86.5058-1.37523,1.43025-4.22514,0.0374-6.56078-9.62243-11.5826-0.0849-1.90924,2.46102"/>
<path d="m319.673,88.1808-2.37384,1.96942-5.90375-0.0404-6.49954-9.46819-9.84312,0-1.61224,2.12157"/>
<path d="m321.103,89.4288-3.10534,2.86048-7.66601,0.006-6.31864-9.32029-7.81474-0.0424-1.45497,1.55362"/>
<path d="m322.543,90.5488-3.62174,3.45238-9.76679,0.21944-6.37951-9.29331-5.77012,0.0424-1.02551,1.23175"/>
<path d="m322.758,82.9878s2.19004-2.37025,2.37004-2.28025c0.18001,0.09,8.70017,1.80019,8.70017,1.80019l4.47008,9.72111-12.4802,1.86018-9.21019-8.88098-4.29008-0.18003-0.99001,1.35014"/>
<path d="m324.048,84.6978,1.77005-1.6502,6.54012,1.38016,2.70006,6.57073-8.94017,1.29013-8.70017-8.94097-5.82012-0.30005-1.38002,1.7702"/>
<path d="m325.428,86.1988c0.12001-0.09,1.32004-1.20012,1.32004-1.20012l4.08007,0.9901,1.4606,3.85472-5.12065,0.76578-8.9102-9.24102-8.10015-0.21003-1.2,1.80021"/>
<path d="m326.508,87.4888,0.88975-0.71694,1.85291,0.52177,0.58342,1.37159-1.83717,0.25433-8.65904-9.56166-10.5002-0.45003-1.32002,1.8302"/>
</g>
</g>
</svg>