<?xml version="1.0" encoding="UTF-8" standalone="no"?>
<!-- Created with Inkscape (http://www.inkscape.org/) -->
<svg
   xmlns:dc="http://purl.org/dc/elements/1.1/"
   xmlns:cc="http://web.resource.org/cc/"
   xmlns:rdf="http://www.w3.org/1999/02/22-rdf-syntax-ns#"
   xmlns:svg="http://www.w3.org/2000/svg"
   xmlns="http://www.w3.org/2000/svg"
   xmlns:sodipodi="http://sodipodi.sourceforge.net/DTD/sodipodi-0.dtd"
   xmlns:inkscape="http://www.inkscape.org/namespaces/inkscape"
   width="600"
   height="300"
   id="svg7549"
   sodipodi:version="0.32"
   inkscape:version="0.44"
   version="1.0"
   sodipodi:docbase="C:\flags"
   sodipodi:docname="Flag of Sulawesi.svg">
  <defs
     id="defs7551" />
  <sodipodi:namedview
     id="base"
     pagecolor="#ffffff"
     bordercolor="#666666"
     borderopacity="1.0"
     gridtolerance="10000"
     guidetolerance="10"
     objecttolerance="10"
     inkscape:pageopacity="0.0"
     inkscape:pageshadow="2"
     inkscape:zoom="1.2566667"
     inkscape:cx="300"
     inkscape:cy="150"
     inkscape:document-units="px"
     inkscape:current-layer="layer1"
     height="300px"
     width="600px"
     inkscape:window-width="847"
     inkscape:window-height="579"
     inkscape:window-x="396"
     inkscape:window-y="112" />
  <metadata
     id="metadata7554">
    <rdf:RDF>
      <cc:Work
         rdf:about="">
        <dc:format>image/svg+xml</dc:format>
        <dc:type
           rdf:resource="http://purl.org/dc/dcmitype/StillImage" />
      </cc:Work>
    </rdf:RDF>
  </metadata>
  <g
     inkscape:label="Layer 1"
     inkscape:groupmode="layer"
     id="layer1">
    <rect
       style="fill:#f60;fill-opacity:1;stroke:none;stroke-width:1.26699996;stroke-miterlimit:4;stroke-dasharray:none;stroke-opacity:1"
       id="rect7557"
       width="600"
       height="300"
       x="0"
       y="0" />
    <g
       id="g7568">
      <path
         transform="matrix(0.875,0,0,0.875,25.00001,2.500002)"
         d="M 428.57142 168.57143 A 114.28571 114.28571 0 1 1  199.99999,168.57143 A 114.28571 114.28571 0 1 1  428.57142 168.57143 z"
         sodipodi:ry="114.28571"
         sodipodi:rx="114.28571"
         sodipodi:cy="168.57143"
         sodipodi:cx="314.28571"
         id="path7560"
         style="fill:white;fill-opacity:1;stroke:none;stroke-width:1.26699996;stroke-miterlimit:4;stroke-dasharray:none;stroke-opacity:1"
         sodipodi:type="arc" />
      <path
         id="path7547"
         d="M 255.12005,225.28083 C 254.39892,225.10641 254.31078,225.06063 254.31078,224.8604 C 254.31078,224.67388 254.19925,224.59263 253.65397,224.38189 L 252.99714,224.12806 L 252.77212,224.33945 C 252.55004,224.54811 252.54443,224.54841 252.33801,224.36304 C 252.22295,224.25973 251.95601,223.9214 251.74472,223.61119 C 251.40857,223.11753 251.31825,223.04531 251.02096,223.03242 C 250.83415,223.02433 250.62891,223.0133 250.56491,223.00791 C 250.50089,223.0025 250.41056,223.14457 250.36419,223.32357 C 250.31781,223.50258 250.24708,223.63501 250.20707,223.61785 C 250.16704,223.60071 249.94412,223.3785 249.71173,223.12409 L 249.28917,222.66147 L 249.46384,222.20413 C 249.61788,221.80076 249.62121,221.73376 249.49194,221.63671 C 248.88406,221.18043 248.71117,220.96219 248.39453,220.25145 L 248.04494,219.46671 L 248.43188,217.33029 C 248.81525,215.21374 248.82444,215.18276 249.42243,213.99509 C 249.75442,213.33575 250.2535,212.24067 250.5315,211.56157 L 251.03695,210.3269 L 250.95496,209.55064 C 250.90986,209.12372 250.87177,208.2447 250.87029,207.59729 L 250.86766,206.42016 L 251.7973,204.55635 L 252.72696,202.69257 L 252.92388,201.2702 C 253.18167,199.40821 253.26939,197.09625 253.13601,195.67881 C 253.033,194.58392 252.74216,192.94459 252.52691,192.24552 C 252.33393,191.61873 251.15591,188.87715 250.62035,187.80838 C 250.06078,186.69175 250.01183,186.51424 250.22903,186.38924 C 250.31529,186.33961 250.3812,186.07612 250.40851,185.67181 C 250.44172,185.18041 250.51627,184.93524 250.73125,184.61036 L 251.01084,184.18788 L 250.70124,183.56007 C 250.53097,183.21476 250.23095,182.75439 250.03458,182.53704 C 249.71849,182.18716 249.62696,182.1418 249.23709,182.1418 C 248.89571,182.1418 248.71314,182.07562 248.42511,181.8475 C 248.09691,181.58757 247.97777,181.55324 247.40403,181.55324 C 246.80529,181.55324 246.66176,181.59973 245.56871,182.14766 C 244.42747,182.71973 244.33734,182.74741 243.16968,182.88402 C 242.19508,182.99808 241.72182,183.11331 240.76337,183.46993 C 240.10717,183.71409 239.56,183.90138 239.54742,183.88614 C 239.53483,183.87092 239.14579,183.16582 238.68287,182.31929 L 237.84119,180.78012 L 237.82327,179.62169 C 237.81339,178.98454 237.74466,178.02183 237.67049,177.4823 L 237.53564,176.50137 L 237.00343,175.98251 C 236.50602,175.49762 236.47485,175.43986 236.52732,175.09967 C 236.55819,174.89946 236.59062,174.72596 236.59936,174.71407 C 236.6081,174.70219 236.85567,174.6312 237.1495,174.55633 L 237.6838,174.42019 L 237.80102,173.69508 C 237.86551,173.29627 238.01268,172.54453 238.12804,172.02454 C 238.3266,171.12971 238.32906,171.06221 238.17414,170.76264 C 238.02422,170.47271 237.9803,170.45081 237.65093,170.50169 C 237.45321,170.53224 237.0667,170.58619 236.79208,170.62156 L 236.29274,170.68587 L 236.17898,170.11943 C 236.11642,169.80789 236.06522,169.1233 236.06522,168.59814 L 236.06522,167.64325 L 236.49798,167.06949 C 236.73598,166.75393 237.08329,166.3201 237.26974,166.10539 L 237.6088,165.71505 L 238.14061,166.06813 L 238.67244,166.42125 L 239.30332,166.22757 C 239.72157,166.09918 240.12246,165.88029 240.49267,165.57816 C 241.02083,165.14714 241.0545,165.09314 241.11378,164.58289 C 241.22959,163.58579 241.18166,163.645 242.34517,163.06149 L 243.4223,162.52128 L 243.4223,162.08072 C 243.4223,161.83842 243.35332,161.24049 243.26903,160.75198 C 243.13207,159.95835 243.13145,159.81478 243.2631,159.40314 C 243.34412,159.14977 243.50784,158.56727 243.62694,158.10866 C 243.74602,157.65008 244.01164,156.92173 244.21724,156.49011 C 244.45918,155.98214 244.67267,155.30747 244.82249,154.57727 L 245.05394,153.44919 L 245.68502,153.07903 C 246.0321,152.87545 246.57648,152.6282 246.89474,152.52958 L 247.47339,152.35027 L 247.7583,151.3883 L 248.04319,150.42632 L 247.65524,150.02491 C 247.34813,149.70717 247.18937,149.39698 246.89345,148.53653 L 246.51963,147.44954 L 246.89577,146.54211 L 247.27188,145.63469 L 246.91582,144.83341 C 246.57464,144.06568 246.55977,143.98584 246.56053,142.92676 C 246.56123,141.92965 246.58612,141.77396 246.81461,141.33698 L 247.0679,140.85256 L 246.86644,140.05587 L 246.66498,139.25918 L 247.53997,138.10047 C 248.0212,137.46317 248.61253,136.77985 248.854,136.58196 C 249.61842,135.95559 250.1076,135.06603 251.52691,131.72128 C 251.61888,131.50455 251.89512,131.2152 252.27608,130.93653 C 252.76342,130.58005 252.99371,130.30814 253.47257,129.52356 C 253.94028,128.75724 254.20616,128.43976 254.73123,128.0206 C 255.29784,127.56829 255.4392,127.49849 255.68088,127.55157 C 255.83705,127.58586 256.00583,127.66627 256.05593,127.73025 C 256.10608,127.79421 256.35019,128.45298 256.59846,129.19416 C 256.84674,129.93534 257.20553,130.78507 257.39575,131.08248 C 257.71091,131.57516 257.77326,131.62319 258.09763,131.62319 C 258.41936,131.62319 258.44779,131.60196 258.39299,131.40248 C 258.35963,131.28108 258.21754,130.60792 258.0772,129.90654 C 257.93687,129.20517 257.65479,128.1899 257.45035,127.65037 C 257.09311,126.7076 256.93302,126.22571 256.40761,124.51135 C 256.16996,123.73594 256.16838,123.70613 256.2764,122.00993 L 256.38571,120.29329 L 256.83119,119.42159 C 257.25968,118.5831 257.27212,118.53476 257.15753,118.15233 C 257.09203,117.93366 256.91371,117.63826 256.76133,117.4959 C 256.49011,117.24254 256.46175,117.23798 255.42204,117.28009 L 254.35982,117.32313 L 253.74673,116.24518 C 253.40954,115.65229 253.13364,115.13828 253.13364,115.10292 C 253.13364,115.06756 253.26064,114.91447 253.41587,114.76274 C 253.62512,114.55818 253.83219,114.47098 254.21681,114.42543 C 254.72434,114.36532 254.75,114.37474 255.40941,114.86357 C 255.78006,115.13835 256.22232,115.56752 256.39223,115.81729 C 256.78022,116.38769 256.82249,116.41521 257.31227,116.41705 C 257.68366,116.41844 257.7264,116.39054 257.87334,116.05071 C 258.1545,115.40043 258.33264,114.49719 258.33264,113.72185 L 258.33264,112.96629 L 257.73146,112.31363 C 257.06569,111.59091 256.32212,110.64352 256.38152,110.59371 C 256.40257,110.57605 256.62988,110.44036 256.88665,110.29217 C 257.2874,110.06088 257.44009,110.02761 257.96567,110.05711 C 258.70116,110.09839 258.70048,110.10331 258.12929,108.87903 L 257.74669,108.05896 L 258.16078,107.46862 C 258.39105,107.14037 258.64088,106.6297 258.72353,106.31834 C 258.8479,105.84972 258.95639,105.68403 259.38857,105.30256 L 259.90499,104.84674 L 260.48006,104.90685 C 260.96771,104.95781 261.13824,104.92891 261.60146,104.71684 L 262.14776,104.46673 L 262.15583,103.15914 C 262.16152,102.23382 262.21397,101.67318 262.33526,101.24146 C 262.50243,100.64638 262.52415,100.62015 263.21737,100.17663 C 263.66558,99.88986 264.18674,99.65539 264.62832,99.54179 C 265.23038,99.38694 265.4005,99.29063 265.84172,98.85489 C 266.32077,98.38178 266.3515,98.32284 266.30397,97.96852 C 266.25588,97.60994 266.60892,95.75985 266.75566,95.60155 C 266.84596,95.50411 268.25543,95.21504 268.38947,95.26648 C 268.46798,95.2966 268.47177,95.47234 268.40287,95.88894 C 268.34272,96.25261 268.34021,96.73895 268.39615,97.19108 L 268.48542,97.91276 L 269.27017,98.38326 C 269.98605,98.81248 270.10659,98.85291 270.64349,98.84375 C 271.08923,98.83616 271.37348,98.89812 271.81487,99.099 L 272.39768,99.36427 L 272.57206,99.1365 C 272.66796,99.01122 272.90782,98.53352 273.10504,98.07492 C 273.45919,97.25147 273.60412,97.05995 275.16988,95.34637 C 275.43192,95.05958 275.86689,94.70634 276.13652,94.56135 C 276.84675,94.17948 277.18409,93.54149 277.10546,92.72876 C 277.06662,92.32714 277.10136,91.93768 277.21484,91.50259 C 277.34726,90.99479 277.36727,90.65307 277.31316,89.82415 L 277.2452,88.78331 L 277.56886,88.55284 C 277.8741,88.33551 277.99346,88.32021 279.66321,88.28452 C 281.3074,88.24936 281.51388,88.26524 282.55417,88.50679 C 283.56428,88.74134 283.74397,88.81769 284.38124,89.28306 C 284.99185,89.729 285.20431,89.82362 285.94317,89.97867 C 286.90637,90.1808 286.71715,90.20809 289.16087,89.51468 C 290.01177,89.27324 290.72856,89.10906 290.75376,89.14983 C 290.77897,89.1906 290.6878,89.52698 290.55121,89.89733 C 290.39421,90.32293 290.28141,90.88043 290.24462,91.41245 L 290.18641,92.25419 L 291.10722,92.65495 C 291.72156,92.92231 292.46325,93.14256 293.33546,93.31663 C 294.53055,93.55514 294.75803,93.57145 295.98346,93.50651 C 296.72078,93.46744 297.82653,93.3377 298.44065,93.21821 C 299.68913,92.97531 299.53685,92.9313 300.10315,93.69853 C 300.28972,93.95132 300.5403,94.13886 300.84712,94.25532 C 301.29608,94.42575 301.32708,94.42524 301.89702,94.23813 C 302.42859,94.06362 302.60256,94.05421 303.73042,94.13883 C 304.41578,94.19026 305.34189,94.32567 305.78847,94.43975 C 307.55341,94.89059 308.51571,95.05265 309.35499,95.04038 C 309.9979,95.03097 310.32421,95.07613 310.7088,95.22773 C 310.98752,95.33757 311.84714,95.62071 312.61906,95.85688 C 313.61464,96.16149 314.3331,96.45704 315.09094,96.87369 C 316.48013,97.63747 317.92135,98.20663 318.25983,98.12513 C 319.20994,97.89637 319.24926,97.87651 319.24926,97.62557 C 319.24926,97.30126 319.54048,95.88626 319.62472,95.80121 C 319.66099,95.7646 319.91139,95.77663 320.18114,95.82795 C 321.42061,96.06371 323.42727,96.18356 324.4317,96.08183 C 325.33824,95.98999 325.52012,96.00063 326.29118,96.19056 C 326.76124,96.30636 327.54312,96.44811 328.02869,96.50558 C 329.43509,96.67203 332.80727,97.18962 333.1296,97.2885 C 334.8815,97.82594 335.70037,97.96539 337.24955,97.99014 C 339.15696,98.02061 339.36407,97.97924 339.67796,97.50511 C 339.89708,97.17412 340.02149,97.10931 341.12652,96.75064 C 342.61118,96.26873 343.93278,95.4507 345.48492,94.0529 C 346.3223,93.29877 346.54774,93.03699 346.66739,92.67973 C 346.79133,92.30965 346.91281,92.17543 347.41894,91.84937 C 348.08434,91.4207 348.61152,91.3146 350.12472,91.30491 L 350.93428,91.29973 L 351.22249,90.72876 L 351.51071,90.15779 L 351.12413,89.78029 C 350.91151,89.57267 350.73754,89.34869 350.73754,89.28256 C 350.73754,89.18623 352.00931,87.38291 352.30868,87.05473 C 352.35015,87.00927 352.69912,87.03688 353.08419,87.11612 L 353.78426,87.26015 L 354.07565,86.90666 C 354.2359,86.71225 354.36701,86.52032 354.36701,86.48017 C 354.36701,86.44001 354.62085,86.33681 354.93106,86.25081 C 355.96526,85.96411 356.02231,85.92651 356.17104,85.43349 C 356.45146,84.50416 357.33263,82.8736 357.9046,82.22568 C 358.21411,81.87507 358.61522,81.37017 358.79598,81.10369 C 358.97673,80.83721 359.16194,80.61804 359.20761,80.61665 C 359.53998,80.60652 360.42168,80.98739 360.90207,81.3486 C 361.47254,81.77754 361.48055,81.78009 361.63354,81.58115 C 361.78762,81.38081 361.79141,81.38074 362.59651,81.56111 C 363.39114,81.73915 363.41164,81.75127 363.81084,82.27978 C 364.03853,82.58118 364.27228,83.03369 364.34294,83.30977 C 364.47808,83.8378 364.55385,83.91832 365.39507,84.42781 C 365.69597,84.61004 365.94216,84.80983 365.94216,84.87176 C 365.94216,84.93371 365.74464,85.3018 365.50321,85.68974 C 365.26179,86.07768 364.81531,86.89317 364.51106,87.50195 C 364.20678,88.11073 363.94446,88.62355 363.92812,88.64158 C 363.91176,88.65961 363.7188,88.69844 363.49927,88.72789 C 363.12591,88.77796 363.08385,88.81699 362.84787,89.33244 C 362.70912,89.6355 362.43927,90.43538 362.24817,91.10993 C 361.87987,92.41001 361.80668,92.53749 360.72003,93.77126 C 359.24475,95.44622 358.557,96.05436 357.01556,97.04686 C 355.4306,98.06741 354.21857,99.152 354.11278,99.64442 C 353.82405,100.98852 353.76473,101.11198 353.17941,101.58734 C 352.63321,102.03091 352.61227,102.0651 352.6069,102.52238 C 352.60202,102.9388 352.54883,103.05704 352.17339,103.48622 C 351.7885,103.92622 351.7395,104.03933 351.6861,104.61112 C 351.61873,105.3325 351.2961,106.00503 350.9875,106.06733 C 350.60055,106.14543 348.81937,106.39892 348.25339,106.45642 C 347.93917,106.48834 347.51983,106.59592 347.32151,106.69548 C 347.12319,106.79506 346.7181,106.95497 346.42138,107.05088 C 346.12466,107.14677 345.54699,107.39246 345.13771,107.59685 L 344.39358,107.96846 L 343.9837,107.5586 L 343.57385,107.14873 L 343.06025,107.41224 C 342.50821,107.69549 340.60324,108.12848 338.38462,108.47502 C 337.66012,108.58819 336.64484,108.76877 336.12846,108.87632 C 335.35402,109.03762 334.86313,109.0684 333.32579,109.05207 C 331.7007,109.03479 331.28609,109.06414 330.08867,109.28125 L 328.71535,109.53025 L 327.57272,109.36339 L 326.43011,109.19652 L 325.46369,108.3836 C 324.93218,107.93649 324.28396,107.32122 324.02323,107.01632 C 323.18241,106.03317 322.98482,105.84561 322.51075,105.58064 C 321.95205,105.26836 321.22177,105.23877 319.69067,105.46636 C 318.57412,105.63232 315.93895,105.60487 315.25103,105.42011 C 314.90511,105.32721 314.76006,105.33586 314.40769,105.47044 C 314.13124,105.57601 313.90625,105.60488 313.76551,105.55282 C 313.63661,105.50512 313.24917,105.53072 312.80856,105.61602 C 312.10764,105.75174 312.00862,105.74726 310.94854,105.53192 C 309.74162,105.28674 308.68782,105.28974 307.22429,105.54253 C 306.67357,105.63765 306.14389,105.6369 304.67383,105.53888 C 302.83018,105.41595 302.81086,105.41674 301.62083,105.66524 C 300.96216,105.80278 299.96896,106.0655 299.41371,106.24906 C 298.76196,106.46452 298.09675,106.60822 297.53667,106.65457 L 296.66915,106.72637 L 295.66257,105.73585 C 295.079,105.16159 294.57541,104.74532 294.46422,104.74532 C 294.35876,104.74532 293.9661,104.59469 293.59169,104.41054 C 292.75227,103.99776 292.29571,103.90559 291.83827,104.05657 C 291.54168,104.15444 291.48853,104.2163 291.48853,104.46353 C 291.48853,104.76576 291.24488,105.3339 291.11523,105.3339 C 291.07457,105.3339 290.51286,105.39692 289.86704,105.47395 C 289.22124,105.55099 288.27426,105.64477 287.76264,105.68237 C 286.93637,105.74308 286.6369,105.82539 285.08301,106.41884 L 283.33362,107.08697 L 282.3347,106.96164 C 281.69935,106.88194 281.16912,106.75358 280.87788,106.60901 L 280.41998,106.38167 L 279.64336,106.69158 C 279.2162,106.86203 278.82468,107.00151 278.77329,107.00151 C 278.72189,107.00151 278.46428,106.78263 278.2008,106.51514 C 277.91138,106.22129 277.60219,106.00565 277.41972,105.97035 C 276.91859,105.87344 276.36757,105.61703 275.69014,105.16553 C 274.84499,104.60225 274.33884,104.57914 272.80156,105.03361 C 271.90252,105.29941 271.60798,105.43911 271.03586,105.87107 C 270.46997,106.29833 270.25477,106.40131 269.8123,106.45655 C 269.51699,106.49344 268.95739,106.65598 268.56876,106.81777 C 267.92846,107.08432 267.84599,107.15097 267.69024,107.52758 C 267.59074,107.76811 267.35011,108.07427 267.11901,108.2543 C 266.89939,108.42542 266.41893,108.84254 266.05128,109.18129 C 265.41484,109.76771 265.37403,109.83239 265.19845,110.5329 C 264.99342,111.35095 264.65633,113.45612 264.56461,114.49136 C 264.51,115.10779 264.46646,115.21135 264.04085,115.73735 C 263.23486,116.73347 262.72564,117.67276 262.59905,118.39694 L 262.4847,119.05105 L 263.06514,120.30424 L 263.64555,121.55741 L 263.40249,122.02914 L 263.15943,122.50085 L 263.35546,123.26085 C 263.4912,123.78716 263.53475,124.18671 263.49712,124.56009 C 263.45034,125.02381 263.51061,125.31221 263.92743,126.62006 C 264.35058,127.9477 264.49502,128.26542 265.06474,129.12178 C 265.42368,129.66131 265.94288,130.34802 266.21853,130.64781 C 266.49418,130.9476 266.88332,131.46628 267.08332,131.80042 C 267.43631,132.39018 267.45893,132.40795 267.85702,132.40795 C 268.17898,132.40795 268.41251,132.31214 268.94389,131.96206 C 269.83142,131.37736 269.86473,131.36822 270.05423,131.65742 C 270.17474,131.84134 270.20989,132.09642 270.19389,132.67059 L 270.17247,133.43793 L 270.72926,133.40953 C 271.28294,133.3813 271.28963,133.3843 271.91974,133.94793 C 272.26829,134.25965 272.59531,134.6348 272.64646,134.78157 C 272.70428,134.94735 272.86751,135.10191 273.07753,135.18966 C 273.39156,135.32086 273.42319,135.37521 273.52241,135.95394 C 273.77818,137.4453 273.84525,138.02899 273.76754,138.08657 C 273.72181,138.12045 273.58189,138.2644 273.45658,138.40645 C 273.24406,138.64738 273.23713,138.69269 273.35333,139.08057 C 273.45309,139.41351 273.57181,139.55416 273.94901,139.78627 C 274.39718,140.06202 274.42013,140.09727 274.42013,140.51052 C 274.42013,140.79465 274.49647,141.06278 274.64083,141.28565 C 274.95165,141.76546 275.40434,141.75982 276.16601,141.26665 C 276.92836,140.77303 277.67142,140.68822 278.83439,140.96211 C 279.29297,141.07012 279.98821,141.18084 280.37935,141.20818 C 280.7705,141.23551 281.09054,141.28878 281.09054,141.32655 C 281.09054,141.36431 281.33133,141.60311 281.62567,141.85721 C 282.13382,142.2959 282.18205,142.31584 282.58208,142.25247 C 282.90252,142.20173 283.09265,142.08974 283.37627,141.78466 C 283.79524,141.33401 284.68087,139.88479 285.05697,139.03439 C 285.30337,138.47722 286.30016,137.03558 286.95956,136.28267 C 288.1131,134.96558 288.93553,134.17361 289.15025,134.17311 C 289.36543,134.1726 289.37982,134.13495 289.38482,133.56001 L 289.39012,132.94747 L 290.10627,132.24433 C 290.77599,131.58675 290.86779,131.53056 291.52331,131.37698 C 291.90883,131.28667 292.29712,131.19318 292.38617,131.16923 C 292.4752,131.14529 292.57313,131.02796 292.60376,130.90849 C 292.67536,130.62913 293.84236,130.00919 294.12673,130.09944 C 294.28808,130.15066 294.33421,130.28189 294.39003,130.84835 C 294.48232,131.78495 294.67254,132.02535 295.78756,132.61456 L 296.70231,133.09794 L 298.23992,133.23525 L 299.77752,133.37256 L 300.21893,133.1441 C 300.46172,133.01846 300.84123,132.81508 301.06228,132.69217 L 301.46419,132.46868 L 302.29341,132.78164 C 302.74946,132.95377 303.14657,133.09461 303.17588,133.09461 C 303.20518,133.09461 303.41117,132.87877 303.63361,132.61493 C 304.01766,132.15947 304.03415,132.11368 303.96034,131.70758 C 303.89029,131.32222 303.92352,131.19722 304.29598,130.4453 L 304.70938,129.61073 L 305.92198,129.68323 C 307.03862,129.75 307.17114,129.73917 307.59641,129.54653 C 308.03024,129.35003 308.08977,129.34593 308.57735,129.479 C 309.00474,129.59563 309.24384,129.6006 309.93028,129.50712 C 310.91248,129.37337 313.90693,129.48281 315.24538,129.70139 C 316.08562,129.83862 316.11675,129.8363 317.54301,129.53019 C 318.33824,129.35952 319.00456,129.17197 319.02375,129.11341 C 319.09275,128.90284 318.31686,128.69431 317.23855,128.63364 C 316.64522,128.60025 316.12415,128.53732 316.08061,128.4938 C 316.03709,128.45028 316.01493,128.15712 316.03133,127.84233 L 316.06118,127.27001 L 316.50259,127.15576 C 316.74539,127.09291 317.14266,126.95081 317.38546,126.83999 C 317.89118,126.60911 319.65067,126.46773 319.95973,126.63313 C 320.20413,126.76393 320.57076,126.63399 321.62215,126.04394 C 322.41177,125.60079 322.50577,125.57132 322.89738,125.64398 C 323.1299,125.68714 323.91607,125.69776 324.64443,125.6676 L 325.96871,125.61274 L 327.40857,126.22709 L 328.84844,126.84142 L 329.6014,128.12875 L 330.35439,129.41607 L 330.23769,130.20083 C 330.13353,130.90117 329.36552,133.11656 328.68964,134.66643 L 328.4961,135.1102 L 327.79465,135.23049 C 327.40881,135.29665 327.05155,135.35078 327.00074,135.35078 C 326.94989,135.35078 326.40998,134.92499 325.80089,134.40456 C 325.19183,133.88416 324.57208,133.36822 324.42371,133.25804 C 324.20175,133.09321 324.15396,132.9824 324.15396,132.63264 C 324.15396,132.04713 323.74773,131.427 323.3642,131.427 C 322.95285,131.427 322.80468,131.51207 322.57844,131.87816 C 322.37512,132.20712 322.36248,132.21178 321.66908,132.21302 C 321.09979,132.21403 320.69273,132.3028 319.53121,132.67924 L 318.09651,133.14421 L 317.68439,133.66559 C 317.45773,133.95234 316.94677,134.68617 316.54896,135.29631 C 316.15113,135.90645 315.65793,136.53886 315.45294,136.70167 C 315.17306,136.92396 314.98249,137.22276 314.68787,137.90121 C 314.30734,138.77742 314.27917,138.81304 313.75596,139.07963 C 313.3566,139.28311 313.04631,139.56153 312.5616,140.15125 C 312.17529,140.62125 311.50735,141.25861 310.93276,141.70545 C 310.39705,142.12205 309.1342,143.18919 308.12641,144.07686 L 306.29412,145.69079 L 304.90999,146.21026 C 303.53273,146.72716 303.52029,146.72972 302.39758,146.72972 L 301.26926,146.72972 L 300.80785,147.14662 C 300.22974,147.66897 298.47005,148.64238 297.38231,149.04153 L 296.55664,149.34453 L 296.15612,150.37037 C 295.78771,151.31406 295.70255,151.44634 295.0923,152.02248 L 294.42899,152.64877 L 293.37566,152.71 C 292.33366,152.77058 292.31508,152.7678 291.64652,152.45195 C 290.87939,152.08951 290.66983,152.12301 290.5696,152.62416 C 290.38827,153.53084 290.62224,154.5828 291.34681,156.11846 C 291.74799,156.96873 291.91752,157.23093 292.09402,157.27412 C 292.21961,157.30484 292.71964,157.40601 293.2052,157.49899 C 294.39217,157.72625 295.37049,158.31336 295.75811,159.03106 C 296.69868,160.77259 297.11059,161.41877 298.12078,162.73747 C 299.0282,163.92204 299.40115,164.5132 299.98817,165.69754 C 300.42526,166.57943 300.77427,167.42836 300.85187,167.79852 C 300.92347,168.14014 301.00423,168.44182 301.03131,168.46892 C 301.05844,168.49603 301.59582,168.71368 302.22554,168.95259 C 303.07197,169.27376 303.58904,169.54584 304.20893,169.9962 C 304.6701,170.33126 305.08311,170.69601 305.12668,170.80675 C 305.38172,171.45446 305.51602,172.10599 305.51602,172.69541 L 305.51602,173.36492 L 306.21157,174.14839 C 307.88137,176.02929 308.604,177.1675 308.29403,177.42841 C 308.24981,177.46565 307.90463,177.62207 307.52698,177.77606 C 307.1493,177.93005 306.54859,178.25434 306.19206,178.49671 L 305.54382,178.9374 L 305.58989,179.38699 C 305.62736,179.75229 305.70249,179.89414 305.9907,180.14355 L 306.34541,180.45053 L 306.10239,180.97726 C 305.96872,181.26697 305.62762,181.75749 305.34437,182.06729 L 304.82937,182.63057 L 304.82937,183.29577 C 304.82937,183.7997 304.75801,184.14633 304.53509,184.72526 C 304.37323,185.14559 304.24082,185.50683 304.24082,185.52804 C 304.24082,185.54921 304.59622,185.67884 305.03063,185.81606 C 305.5794,185.98943 306.04132,186.06558 306.54417,186.06558 C 307.19236,186.06558 307.36422,186.11027 308.19101,186.49402 C 309.10095,186.91635 309.11934,186.93178 309.47857,187.57414 C 309.77855,188.11056 309.92713,188.26845 310.3186,188.46682 C 310.66363,188.64167 310.91205,188.87698 311.22358,189.32406 C 311.75837,190.09157 311.97132,190.17269 313.46985,190.18 C 314.0948,190.18304 314.62979,190.20921 314.65872,190.23815 C 314.77591,190.35534 314.45013,191.00848 314.16197,191.234 C 313.77222,191.53904 313.76807,191.83212 314.14834,192.19646 C 314.4319,192.46813 314.44262,192.51006 314.44262,193.34617 C 314.44262,194.08814 314.4799,194.2875 314.69987,194.72157 L 314.95711,195.22921 L 315.19541,194.95216 L 315.43373,194.67511 L 315.88192,194.84625 C 316.31168,195.01038 316.35379,195.00984 316.9068,194.83316 C 317.22401,194.73181 317.48356,194.61979 317.48356,194.58428 C 317.48356,194.54876 317.28498,194.39426 317.04231,194.24093 C 316.58493,193.95198 316.53038,193.83543 316.70224,193.5143 C 316.82832,193.27871 317.54926,193.25204 317.96599,193.46755 C 318.33776,193.6598 318.77964,194.37407 319.15122,195.38346 C 319.42444,196.1256 319.44602,196.25901 319.34961,196.60965 C 319.12993,197.40853 319.06984,198.07593 319.17564,198.54178 C 319.26946,198.9548 319.2513,199.07667 318.99673,199.74343 C 318.80568,200.24386 318.66189,200.48545 318.55513,200.48545 C 318.46804,200.48545 318.31879,200.57164 318.22346,200.67699 C 317.94642,200.98312 317.52923,200.82949 316.64976,200.09741 C 314.80159,198.559 314.66299,198.49643 315.20571,199.44555 C 315.50392,199.96709 315.64891,200.11461 316.06292,200.31764 C 316.47067,200.51764 316.5816,200.6286 316.67365,200.92854 C 316.77897,201.27164 316.76665,201.31933 316.48081,201.675 C 316.15581,202.07943 315.97677,202.1342 315.6661,201.9241 C 315.27204,201.65764 315.12876,201.65449 315.01246,201.90974 C 314.8462,202.27465 314.68582,202.20615 314.45608,201.67213 C 314.21253,201.10597 313.54377,200.47823 312.98919,200.29518 C 312.60897,200.1697 312.59229,200.17453 312.07538,200.55934 C 311.56768,200.93727 311.51548,200.9532 310.61695,201.00451 C 310.10439,201.03377 309.22154,201.17147 308.65505,201.31048 C 308.08857,201.4495 306.91877,201.7125 306.05555,201.89492 C 305.15445,202.08535 304.21273,202.35061 303.84427,202.51777 L 303.2025,202.80893 L 302.64261,204.03399 C 302.09512,205.23194 302.08273,205.27841 302.08273,206.1326 L 302.08273,207.00612 L 302.69581,207.57133 L 303.3089,208.13654 L 303.00772,208.40641 C 302.84209,208.55487 302.57723,208.79069 302.41916,208.93044 C 302.26109,209.07019 302.0435,209.30653 301.93559,209.45565 L 301.7394,209.72675 L 300.75846,209.60989 C 300.21893,209.5456 299.31175,209.38476 298.74253,209.25245 C 297.42271,208.94568 296.44158,208.83659 295.4957,208.89146 L 294.74531,208.93496 L 294.62318,208.56041 C 294.48078,208.12369 294.38428,208.04225 294.00686,208.04021 C 293.59325,208.03798 291.81857,206.95823 291.23063,206.35112 L 290.72747,205.83159 L 290.61407,204.65431 L 290.50068,203.47705 L 290.79936,202.47168 C 291.00525,201.77866 291.11748,201.14836 291.16065,200.44304 C 291.20097,199.78399 291.33274,199.00712 291.53088,198.26049 C 291.82297,197.15973 291.8509,197.10198 292.08372,197.11674 C 292.30928,197.13105 292.36265,197.04359 292.75015,196.02456 L 293.1714,194.91683 L 292.96216,194.43045 C 292.77785,194.00202 292.66302,193.89106 291.99811,193.49894 C 291.39483,193.14316 291.06384,193.02139 290.34945,192.89246 C 289.85785,192.80372 289.02021,192.58516 288.48807,192.40675 L 287.52054,192.08239 L 287.41319,191.55086 C 287.29211,190.95144 287.17582,190.70021 286.90675,190.45668 C 286.75299,190.31755 286.65837,190.30594 286.35684,190.38921 C 285.88225,190.52023 285.77963,190.44316 285.81301,189.98069 C 285.83999,189.60745 285.82115,189.58397 284.89735,188.83806 C 284.37859,188.41921 283.67403,187.82802 283.33161,187.52432 C 282.98922,187.22064 282.21361,186.59652 281.60803,186.13739 C 280.177,185.05249 279.21944,183.87381 278.75322,182.62337 L 278.43899,181.78068 L 278.68992,181.11408 C 278.93235,180.47 279.13904,180.17226 281.1152,177.62022 C 282.02865,176.44059 282.18057,176.01041 282.16481,174.64849 C 282.15773,174.03503 282.2151,173.23691 282.29607,172.82283 C 282.47917,171.8865 282.3973,171.25198 282.00413,170.56072 C 281.69195,170.01186 281.64387,169.98952 281.0759,170.12938 C 280.84477,170.18628 280.80859,170.15952 280.74881,169.88728 C 280.67726,169.56152 280.63865,169.61217 282.13926,168.0627 C 282.62625,167.55987 282.59435,167.50768 281.66865,167.293 C 281.31314,167.21054 280.77698,167.00846 280.47718,166.84395 C 280.05867,166.61425 279.80854,166.5448 279.40013,166.5448 C 279.05907,166.5448 278.65163,166.45679 278.26466,166.29955 C 277.75558,166.09269 277.50241,166.05431 276.64692,166.05431 L 275.63269,166.05431 L 275.11077,166.44372 C 274.64684,166.78987 274.22314,166.96532 273.31568,167.18703 C 273.12546,167.23352 272.88717,167.47592 272.51403,168.00253 C 271.63067,169.24926 271.18039,169.62316 270.01593,170.07697 C 269.4169,170.31042 268.67283,170.69835 268.20314,171.0221 C 267.76491,171.32413 267.18566,171.67402 266.91589,171.79957 C 266.64614,171.92516 266.2758,172.15995 266.0929,172.32134 C 265.79213,172.58676 265.7655,172.65279 265.81379,173.0128 C 265.8503,173.28513 265.99406,173.56236 266.26893,173.89067 C 266.58649,174.27001 266.6708,174.44986 266.67123,174.74928 C 266.67224,175.45934 266.83308,175.79133 267.33387,176.11709 C 267.58956,176.28341 267.9974,176.501 268.24018,176.60066 C 268.81118,176.83499 269.39332,177.376 269.62512,177.88779 C 269.80667,178.28868 269.80642,178.29859 269.60024,178.76464 C 269.41233,179.18948 269.39839,179.34126 269.45914,180.30141 C 269.50366,181.00472 269.48493,181.61459 269.40404,182.09593 C 269.28364,182.81258 269.28627,182.83502 269.55863,183.40483 L 269.83572,183.98459 L 269.68008,184.6737 C 269.50832,185.43436 269.53192,185.59164 269.96157,186.54903 L 270.23,187.14718 L 269.82221,187.70992 C 269.19456,188.5761 267.95352,190.67679 267.83421,191.07506 C 267.74406,191.37597 267.75967,191.50406 267.93478,191.89991 C 268.10507,192.28489 268.14207,192.56239 268.14207,193.45426 C 268.14207,194.49266 268.15332,194.55173 268.39973,194.80891 C 268.68996,195.11185 268.71977,195.50754 268.58248,197.23376 C 268.51557,198.07495 268.52753,198.18313 268.72677,198.53761 C 268.93933,198.9158 268.94011,198.92962 268.76374,199.17756 C 268.35761,199.74857 268.24133,199.95314 268.2433,200.09306 C 268.24447,200.174 268.44287,200.50173 268.68422,200.82134 C 269.17241,201.46786 269.17707,201.4826 268.99078,201.78864 C 268.89251,201.9501 268.87359,202.23924 268.91719,202.91433 L 268.9759,203.8228 L 269.53991,204.45251 C 269.85016,204.79886 270.10396,205.12261 270.10396,205.17195 C 270.10396,205.2213 270.01062,205.34576 269.89651,205.44852 C 269.65276,205.66811 269.62663,205.72778 269.0278,207.43365 L 268.56873,208.74144 L 267.98755,208.97744 C 267.66791,209.10721 267.35994,209.27662 267.30321,209.35391 C 267.24647,209.43118 267.12234,210.50218 267.02733,211.73392 C 266.81574,214.47733 266.79493,215.23674 266.92651,215.40946 C 266.98245,215.48288 267.20083,215.96227 267.41177,216.47481 C 267.74396,217.2819 267.89596,217.51183 268.54657,218.19148 L 269.29781,218.97623 L 269.74487,220.34954 C 270.11208,221.4775 270.20385,221.90888 270.25855,222.76388 C 270.2984,223.38705 270.28803,223.82783 270.23266,223.86204 C 270.18182,223.89346 269.87435,223.84793 269.54938,223.76085 L 268.95855,223.60257 L 268.52578,222.83544 C 268.02607,221.94965 267.7579,221.78198 267.20823,222.01166 C 267.02751,222.08716 266.55543,222.19808 266.15914,222.25816 C 265.7628,222.31822 264.79983,222.60152 264.01915,222.88768 L 262.59976,223.40799 L 261.22644,223.13397 C 260.47109,222.98327 259.80331,222.85793 259.74247,222.85545 C 259.6816,222.85298 259.26226,223.28653 258.81058,223.81889 C 258.02777,224.7415 257.95028,224.80361 257.15551,225.14508 C 256.21503,225.54919 256.22647,225.54843 255.12005,225.28083 z "
         style="fill:#f60" />
    </g>
  </g>
</svg>
