<svg enable-background="new -205.784 -206.266 473.414 474.991" height="471.439" viewBox="-205.784 -206.266 469.862 471.439" width="469.862" xmlns="http://www.w3.org/2000/svg"><path d="m-205.784-206.26601h469.862v471.439h-469.862z" fill="#e8423f"/><path d="m109.62599-137.97299c0 27.488-24.390996 49.770995-54.507996 49.770995-30.109 0-54.50400047-22.280995-54.50400047-49.770995 0-27.484 24.39500047-49.766 54.50400047-49.766 30.118.001 54.507996 22.282 54.507996 49.766" fill="#ffd730"/><path d="m55.125994-187.73799c30.102 0 54.499996 22.281 54.499996 49.766 0 27.488-24.397996 49.770995-54.499996 49.770995s-54.50400047-22.281995-54.50400047-49.770995c0-27.485 24.40300047-49.766 54.50400047-49.766z" fill="none" stroke="#010202" stroke-miterlimit="10" stroke-width="3.336"/><path d="m-79.688 252.009 15.344-1.724-47.984-418.454-19.113 2.117z" fill="#010202" transform="translate(-1.776007 -1.775995)"/><path d="m-129.34601-164.76999c.082.633 50.816004 410.56 50.898004 411.167.551-.068 7.91-.891 8.473-.938-.066-.641-47.113004-410.96-47.184004-411.582-.594.064-11.601 1.287-12.187 1.353" fill="#ffd730"/><path d="m-125.99101-183.65999c-9.859 1.242-17.152 7.945-16.258 14.945.879 7 9.617 11.688 19.473 10.449 5.793-.746 10.992-3.426 13.902-7.168 1.883-2.426 2.695-5.113 2.352-7.793-.879-7-9.621-11.679-19.469-10.433" fill="#040304"/><path d="m-125.55301-180.21899c-7.559.961-13.313 5.488-13.313 10.32 0 .254.023.504.051.762.645 5.102 7.656 8.43 15.598 7.43 4.898-.617 9.25-2.809 11.609-5.848 1.297-1.672 1.871-3.496 1.648-5.23-.64-5.114-7.64-8.442-15.593-7.434" fill="#ffd730"/><path d="m-112.53801-77.257995c-9.488 1.215-16.512 7.719-15.633 14.48.867 6.75 9.297 11.254 18.793 10.031 9.504004-1.219 16.512004-7.711 15.641004-14.473-.863-6.761-9.305004-11.272-18.801004-10.038" fill="#010202"/><path d="m-112.09601-73.827995c-7.199.938-12.68 5.266-12.68 9.854 0 .242.016.488.039.738.625 4.855 7.32 8.023 14.922 7.039 7.59-.977 13.270004-5.734 12.645004-10.582-.637-4.858-7.317004-8.022-14.926004-7.049" fill="#ffd730"/><path d="m-72.346006-36.921995c41.227-3.563 90.867-17.945 113.043-71.601995 21.781 0 27.883-1.449 27.883-1.449s8.047 10.585995 46.343996 30.745995c7.266 3.824 29.359 83.0630005 29.359 83.0630005s4.102 15.6719995-7.328 16.9839995c-11.438 1.297-32.141.457-32.141.457s26.633 209.902005 26.828 211.691005c-1.516.453-10.578 5.233-20.93 10.64-10.289 5.375-21.882996 11.346-28.726996 13.064-.422.108-5.484 1.358-7.813-3.267-2.344-4.642.875-8.125.875-8.125l22.406-19.759s.625-1.109.578-1.898c-.023-.773-1.016-1.063-1.016-1.063l-36.633-.281-34.463-177.607005-4.047.922 33.426 177.195005-71.555.086 18.9459995-232.2070045-72.6329995-.199c.016-.008-2.176-25.2460005-2.402-27.3910005" fill="#010202"/><path d="m44.277-86.451h25.618l2.687-20.304-6.406 13.886h-18.961l-5.344-12.812z" fill="#fff" transform="translate(-1.776007 -1.775995)"/><path d="m39.563995-42.577991h48.047001v32.297001h-48.047001z" fill="#ffd730"/><path d="m30.223993-42.577991h7.215v32.297001h-7.215z" fill="#ffd730"/><path d="m23.813993-42.577991h4.539v32.297001h-4.539z" fill="#ffd730"/><path d="m90.438994-137.97299c0 18.707-16.305 33.875-36.375 33.875-20.094 0-36.375-15.168-36.375-33.875 0-18.719 16.281-33.879 36.375-33.879 20.07-.007 36.375 15.16 36.375 33.879" fill="#010202"/><path d="m53.250994-152.94499c8.344.145 22.938-2.922 20.031 14.871-.594 3.711 0 8.625 0 8.625s.547 5.695-.141 9.461c-1.25 11.402-3.891 13.563-16.977 14.043-15.422.551-15.141-.977-17.648-7.234-5.703-17.383-3.352-30.727-3.352-30.727s1.4-9.313 18.087-9.039" fill="#fff"/><path d="m10.008994 226.34401s-17.0900005 0-26.777-.063c-6.465 9.109-26.031 6.375-31.258 6.672-4.59.281-7.734 3.227-7.734 8.017 0 4.78 3.969 8.063 8.246 8.063h49.1519995c5.984 0 7.746-5.391 7.746-5.391z" fill="#010202"/><path d="m62.641994 14.750005-2.984-22.8709995-15.829.125h-14.796c-.625 0-1.137.641-1.137 1.441 0 .785.504 1.441 1.137 1.441h11.773s.273 2.031-.57 2.078c0 0-12.957.234-13.555.234-.578 0-4.297-3.25-4.297-3.25-.207-.215-.305-.328-.402-.441-.141-.23-.199-.574-.199-.59 0-.656-.199-1.266-.953-1.297-.758-.047-1.336.422-1.43 1.078-.168 1.488.094 1.609.176 1.785.105.168.254.441 4.719 4.88699999.234.313.793.516 1.137.516l11.836-.098.102 2.23000001h-12.025c-.625 0-1.16.641-1.16 1.441 0 .785.527 1.441 1.16 1.441h12.156l.094 2.031h-11.699c-.625 0-1.152.641-1.152 1.438 0 .801.52 1.441 1.152 1.441h11.84l.094 2.1289995h-11.184c-.621 0-1.168.656-1.168 1.457 0 .781.539 1.422 1.168 1.422h15.058c.039 0 .109-.031.172-.047h20.766z" fill="#fff"/><path d="m-120.84201-35.448995c0 1.855 1.313 4.805 4.953 4.805h13.871v21.3280005l57.922004-.2-2.648-28.0700005-74.098004-.066z" fill="#010202"/><path d="m-71.616006-11.722995-2.234-23.68-44.766004-.047c0 .918.59 2.637 2.727 2.637h16.082004v21.129z" fill="#fff"/><path d="m-114.58501-32.800995c-2.031 0-3.695 1.734-3.695 3.871 0 2.129 1.664 3.871 3.695 3.871h14.023c2.047004 0 3.703004-1.754 3.703004-3.871 0-2.145-1.656-3.871-3.703004-3.871z" fill="#010202"/><path d="m-114.58501-30.593995c-.816 0-1.488.75-1.488 1.672 0 .902.672 1.672 1.488 1.672h14.023c.840004 0 1.496004-.77 1.496004-1.672 0-.922-.656-1.672-1.496004-1.672z" fill="#fff"/><path d="m-113.55301-26.835995c-2.023 0-3.664 1.723-3.664 3.84 0 2.113 1.641 3.816 3.664 3.816h13.551c2.012004 0 3.656004-1.703 3.656004-3.816 0-2.125-1.645-3.84-3.656004-3.84z" fill="#010202"/><path d="m-113.55301-24.608995c-.809 0-1.457.719-1.457 1.621 0 .891.648 1.609 1.457 1.609h13.551c.801004 0 1.449004-.719 1.449004-1.609 0-.902-.648-1.621-1.449004-1.621z" fill="#fff"/><path d="m-113.05701-20.987995c-1.984 0-3.617 1.578-3.617 3.531 0 1.934 1.633 3.527 3.617 3.527h13.703004c1.984 0 3.609-1.594 3.609-3.527 0-1.953-1.625-3.531-3.609-3.531z" fill="#010202"/><path d="m-113.05701-18.784995c-.809 0-1.457.59-1.457 1.328 0 .719.648 1.309 1.457 1.309h13.703004c.801 0 1.457-.59 1.457-1.309 0-.738-.656-1.328-1.457-1.328z" fill="#fff"/><path d="m-112.18601-15.987995c-1.984 0-3.59 1.512-3.59 3.379 0 1.863 1.605 3.3590005 3.59 3.3590005h12.992004c1.977 0 3.586-1.5040005 3.586-3.3590005s-1.609-3.379-3.586-3.379z" fill="#010202"/><path d="m-112.18601-13.769995c-.766 0-1.375.512-1.375 1.16 0 .645.609 1.16 1.375 1.16h12.992004c.762 0 1.379-.516 1.379-1.16 0-.648-.617-1.16-1.379-1.16z" fill="#fff"/><g fill="#110a0e"><path d="m44.516994-132.89899c0 1.215-1 2.207-2.219 2.207-1.227 0-2.219-.992-2.219-2.207 0-1.223.992-2.223 2.219-2.223 1.219-.007 2.219.993 2.219 2.223"/><path d="m64.563994-132.89899c0 1.215-.969 2.207-2.188 2.207-1.25 0-2.25-.992-2.25-2.207 0-1.223 1-2.223 2.25-2.223 1.219-.007 2.188.993 2.188 2.223"/><path d="m56.422994-140.27399c-.469.383-.531 1.078-.141 1.551.398.473 1.758.879 2.211.504.148-.113 3.867-2.152 4.836-1.961 1.641.305 3.688.898 6.023 2.074.555.27 1.18.246 1.539-.25.375-.496.047-1.43-.445-1.793-7.46-5.437-13.96-.199-14.023-.125"/><path d="m39.266994-140.37899c-.555.242-.82.895-.555 1.473.227.551 1.258 1.008 1.852.758 1.164-.512 4.266-1.75 6.125-.438 1.109.785 1.594 2.398 1.43 4.793-.742 10.055-.672 12.965-.672 13.086.023.586.492 1.063 1.07 1.086l9.078.348c.625.016.703-2.203.109-2.227 0 0-6.289.219-7.961.145.023-1.535.133-5.473.57-12.254.055-.387.055-.738.055-1.074 0-2.68.328-4.617-1.25-5.766-3.445-2.516-9.624-.028-9.851.07"/><path d="m48.578994-114.62099c-.922 0-1.656.754-1.656 1.676 0 .91.734 1.672 1.656 1.672h10.063c.922 0 1.656-.762 1.656-1.672 0-.922-.734-1.676-1.656-1.676z"/></g></svg>