<svg enable-background="new -205.467 -206.348 473.416 474.994" height="471.52798" viewBox="-205.467 -206.348 470.49602 471.528" width="470.496" xmlns="http://www.w3.org/2000/svg"><path d="m-205.467 30.262007h470.57559v234.918h-470.57559z" fill="#feffff"/><path d="m-205.45663-206.34801h470.57462v234.938h-470.57462z" fill="#e8423f"/><path d="m98.646 203.68801c0-18.109-7.133-26.938-10.773-30.328-9.484-8.734-34.703-3.75-33.477 10.266 12.672-6.703 17.016-4.133 19.461-3.625 9.656 1.922 18.016 51.109-38.266 52.508-56.258-1.406-47.898-50.586-38.2419999-52.508 2.44500003-.508 6.801-3.078 19.4729999 3.625 1.23-14.016-23.9999999-19-33.488-10.266-3.641 3.391-10.77 12.219-10.77 30.328 0 22.797 17.5780001 51.984 61.715 53.063 0 0 .875.031 1.313.031.453 0 1.328-.031 1.328-.031 44.164-1.079 61.726-30.274 61.726-53.063" fill="#e8423f"/><path d="m98.646 203.68801c0-18.109-7.133-26.938-10.773-30.328-9.484-8.734-34.703-3.75-33.477 10.266 12.672-6.703 17.016-4.133 19.461-3.625 9.656 1.922 18.016 51.109-38.266 52.508-56.258-1.406-47.898-50.586-38.2419999-52.508 2.44500003-.508 6.801-3.078 19.4729999 3.625 1.23-14.016-23.9999999-19-33.488-10.266-3.641 3.391-10.77 12.219-10.77 30.328 0 22.797 17.5780001 51.984 61.715 53.063 0 0 .875.031 1.313.031.453 0 1.328-.031 1.328-.031 44.164-1.079 61.726-30.274 61.726-53.063z" fill="none" stroke="#010202" stroke-linecap="square" stroke-miterlimit="10" stroke-width="3.552"/><g transform="translate(-1.143 -1.767993)"><path d="m-38.484-129.541h-32.579v30.434h44.586v-17.351h11.75v17.351h17.625v11.754h-17.625v17.613h-11.75v-17.613h-44.586v30.422h32.579v13.098h-32.579v30.421h44.586v-17.343h11.75v17.343h42.723v-159.656h-42.723v17.625h-11.75v-17.625h-44.586v30.442h32.579z" fill="#fff"/><path d="m-38.484-129.541h-32.579v30.434h44.586v-17.351h11.75v17.351h17.625v11.754h-17.625v17.613h-11.75v-17.613h-44.586v30.422h32.579v13.098h-32.579v30.421h44.586v-17.343h11.75v17.343h42.723v-159.656h-42.723v17.625h-11.75v-17.625h-44.586v30.442h32.579z" fill="#fff"/><path d="m-38.484-129.541h-32.579v30.434h44.586v-17.351h11.75v17.351h17.625v11.754h-17.625v17.613h-11.75v-17.613h-44.586v30.422h32.579v13.098h-32.579v30.421h44.586v-17.343h11.75v17.343h42.723v-159.656h-42.723v17.625h-11.75v-17.625h-44.586v30.442h32.579z" fill="none" stroke="#010202" stroke-linecap="square" stroke-miterlimit="10" stroke-width="3.552"/></g><path d="m8.9080001 156.20301c0 6.977-5.926 12.648-13.238 12.648-7.3050001 0-13.2420001-5.672-13.2420001-12.648 0-6.984 5.938-12.641 13.2420001-12.641 7.312.001 13.238 5.657 13.238 12.641" fill="#e8423f"/><path d="m88.677 156.42201c0 6.984-5.93 12.641-13.234 12.641-7.313 0-13.227-5.656-13.227-12.641s5.914-12.656 13.227-12.656c7.305 0 13.234 5.672 13.234 12.656" fill="#e8423f"/><path d="m20.326-191.242h30.43v230.672h-30.43z" fill="#fff"/><path d="m20.326-191.242h30.43v230.672h-30.43z" fill="none" stroke="#010202" stroke-linecap="square" stroke-miterlimit="10" stroke-width="3.552"/><path d="m8.9080001 156.20301c0 6.977-5.926 12.648-13.238 12.648-7.3050001 0-13.2420001-5.672-13.2420001-12.648 0-6.984 5.938-12.641 13.2420001-12.641 7.312.001 13.238 5.657 13.238 12.641" fill="#e8423f"/><path d="m-4.3309999 143.54701c7.313 0 13.238 5.656 13.238 12.656 0 6.984-5.926 12.648-13.238 12.648-7.3120001 0-13.2420001-5.664-13.2420001-12.648 0-7 5.93-12.656 13.2420001-12.656z" fill="none" stroke="#010202" stroke-linecap="square" stroke-miterlimit="10" stroke-width="3.552"/><path d="m88.677 156.42201c0 6.984-5.93 12.641-13.234 12.641-7.313 0-13.227-5.656-13.227-12.641s5.914-12.656 13.227-12.656c7.305 0 13.234 5.672 13.234 12.656" fill="#e8423f"/><path d="m75.443 143.78101c7.305 0 13.234 5.656 13.234 12.641s-5.93 12.641-13.234 12.641-13.227-5.656-13.227-12.641 5.922-12.641 13.227-12.641z" fill="none" stroke="#010202" stroke-linecap="square" stroke-miterlimit="10" stroke-width="3.552"/><path d="m125.11501 198.34401c0 6.969-5.914 12.641-13.227 12.641s-13.23401-5.672-13.23401-12.641c0-6.984 5.92201-12.656 13.23401-12.656s13.227 5.671 13.227 12.656" fill="#e8423f"/><path d="m111.88801 185.70301c7.305 0 13.227 5.656 13.227 12.641s-5.922 12.641-13.227 12.641c-7.313 0-13.23401-5.656-13.23401-12.641s5.92201-12.641 13.23401-12.641z" fill="none" stroke="#010202" stroke-linecap="square" stroke-miterlimit="10" stroke-width="3.552"/><path d="m-27.436 198.34401c0 6.969-5.93 12.641-13.23 12.641-7.313 0-13.242-5.672-13.242-12.641 0-6.984 5.93-12.656 13.242-12.656 7.3 0 13.23 5.671 13.23 12.656" fill="#e8423f"/><path d="m-40.674 185.70301c7.313 0 13.238 5.656 13.238 12.641s-5.926 12.641-13.238 12.641-13.242-5.656-13.242-12.641 5.929-12.641 13.242-12.641z" fill="none" stroke="#010202" stroke-linecap="square" stroke-miterlimit="10" stroke-width="3.552"/><path d="m64.099 33.391007c0 2.813-2.047 5.094-4.555 5.094h-47.765c-2.5199999 0-4.5659999-2.281-4.5659999-5.094 0-2.816 2.047-5.082 4.5659999-5.082h47.766c2.507 0 4.554 2.265 4.554 5.082" fill="#e8423f"/><path d="m64.099 33.391007c0 2.813-2.047 5.094-4.555 5.094h-47.765c-2.5199999 0-4.5659999-2.281-4.5659999-5.094 0-2.816 2.047-5.082 4.5659999-5.082h47.766c2.507 0 4.554 2.265 4.554 5.082z" fill="none" stroke="#010202" stroke-miterlimit="10" stroke-width="3.552"/><path d="m64.099 48.625007c0 2.813-2.047 5.094-4.555 5.094h-47.765c-2.5199999 0-4.5659999-2.281-4.5659999-5.094 0-2.82 2.047-5.078 4.5659999-5.078h47.766c2.507 0 4.554 2.258 4.554 5.078" fill="#e8423f"/><path d="m64.099 48.625007c0 2.813-2.047 5.094-4.555 5.094h-47.765c-2.5199999 0-4.5659999-2.281-4.5659999-5.094 0-2.82 2.047-5.078 4.5659999-5.078h47.766c2.507 0 4.554 2.258 4.554 5.078z" fill="none" stroke="#010202" stroke-miterlimit="10" stroke-width="3.552"/><path d="m69.826 40.984007c0 3.328-2.469 6.047-5.492 6.047h-57.3519999c-3.043 0-5.496-2.719-5.496-6.047s2.453-6.031 5.496-6.031h57.3519999c3.023 0 5.492 2.703 5.492 6.031" fill="#e8423f"/><path d="m69.826 40.984007c0 3.328-2.469 6.047-5.492 6.047h-57.3519999c-3.043 0-5.496-2.719-5.496-6.047s2.453-6.031 5.496-6.031h57.3519999c3.023 0 5.492 2.703 5.492 6.031z" fill="none" stroke="#010202" stroke-miterlimit="10" stroke-width="3.552"/><path d="m51.591 53.094007c-3.359-.078-8.492-.219-12.641-.313 0 0-1.273-.109-3.328-.063-2.047-.047-3.324.063-3.324.063-4.141.094-9.27.234-12.621.313-6.441.188-19.47299987 1.875-16.0309999 16.766 3.445 14.891 6.4529999 13.672 9.7969999 35.656003h44.383c3.344-21.984003 6.344-20.766003 9.797-35.656003 3.437-14.891-9.594-16.579-16.032-16.766" fill="#e8423f"/><path d="m51.591 53.094007c-3.359-.078-8.492-.219-12.641-.313 0 0-1.273-.109-3.328-.063-2.047-.047-3.324.063-3.324.063-4.141.094-9.27.234-12.621.313-6.441.188-19.47299987 1.875-16.0309999 16.766 3.445 14.891 6.4529999 13.672 9.7969999 35.656003h44.383c3.344-21.984003 6.344-20.766003 9.797-35.656003 3.437-14.891-9.594-16.579-16.032-16.766z" fill="none" stroke="#010202" stroke-miterlimit="10" stroke-width="3.552"/><path d="m53.67 113.37501c0 9.656-8.109 17.469-18.094 17.469-9.98 0-18.074-7.813-18.074-17.469 0-9.625 8.094-17.453003 18.074-17.453003 9.984 0 18.094 7.828003 18.094 17.453003" fill="#e8423f"/><path d="m53.67 113.37501c0 9.656-8.109 17.469-18.094 17.469-9.98 0-18.074-7.813-18.074-17.469 0-9.625 8.094-17.453003 18.074-17.453003 9.984 0 18.094 7.828003 18.094 17.453003z" fill="none" stroke="#010202" stroke-miterlimit="10" stroke-width="3.552"/><path d="m74.576 75.852007c-16.078 9.25-20.641 19.508-21.953 24.164003-3.375 12.094 12.734 29.828 24.609 21.672-11.813-6.781-11.531-11.578-12.234-13.781-2.766-8.773003 37.08601-40.656003 64.36701 3.883 24.82 45.938-22.773 64.359-28.953 57.594-1.55501-1.711-5.85201-3.891-5.78901-17.508-13.016 6.195-5.781 29.031 6.40601 32.156 4.672 1.203 15.828 2.414 31.891-6.828 20.25-11.656 38.078-40.727 18.594-76.773 0 0-.383-.727003-.594-1.070003-.188-.359-.625-1.047-.625-1.047-21.391-34.923-55.45401-34.111-75.71901-22.462" fill="#e8423f"/><path d="m74.576 75.852007c-16.078 9.25-20.641 19.508-21.953 24.164003-3.375 12.094 12.734 29.828 24.609 21.672-11.813-6.781-11.531-11.578-12.234-13.781-2.766-8.773003 37.08601-40.656003 64.36701 3.883 24.82 45.938-22.773 64.359-28.953 57.594-1.55501-1.711-5.85201-3.891-5.78901-17.508-13.016 6.195-5.781 29.031 6.40601 32.156 4.672 1.203 15.828 2.414 31.891-6.828 20.25-11.656 38.078-40.727 18.594-76.773 0 0-.383-.727003-.594-1.070003-.188-.359-.625-1.047-.625-1.047-21.391-34.923-55.45401-34.111-75.71901-22.462z" fill="none" stroke="#010202" stroke-miterlimit="10" stroke-width="3.552"/><path d="m-3.4049999 75.852007c16.0979999 9.25 20.6409999 19.508 21.9379999 24.164003 3.391 12.094-12.7189999 29.828-24.6089999 21.672 11.832-6.781 11.543-11.578 12.25-13.781 2.75-8.773003-37.0820001-40.656003-64.3590001 3.883-24.801 45.938 22.766 64.359 28.949 57.594 1.578-1.711 5.863-3.891 5.785-17.508 13.016 6.195 5.777 29.031-6.398 32.156-4.664 1.203-15.816 2.414-31.898-6.828-20.246-11.656-38.063-40.727-18.582-76.773 0 0 .375-.727003.582-1.070003.207-.359.633-1.047.633-1.047 21.389-34.923 55.463-34.111 75.7090001-22.462" fill="#e8423f"/><path d="m50.755 73.219007c0 11.289-6.766 20.484-15.133 20.484-8.355 0-15.137-9.188-15.137-20.484 0-11.313 6.781-20.492 15.137-20.492 8.368 0 15.133 9.179 15.133 20.492" fill="#e8423f"/><g fill="none"><path d="m35.623 52.727007c8.359 0 15.133 9.172 15.133 20.492 0 11.313-6.773 20.484-15.133 20.484-8.363 0-15.137-9.172-15.137-20.484 0-11.32 6.773-20.492 15.137-20.492z" stroke="#010202" stroke-miterlimit="10" stroke-width="3.552"/><path d="m-205.46597 28.248864h470.67892" stroke="#000" stroke-width="3.539581"/><path d="m-62.95062 177.70083c16.139783 9.14176 27.29294 7.85545 31.969294 6.61793 12.130125-3.24277 19.210515-26.13083 6.149721-32.20961.167003 13.61987-4.107067 15.816-5.646652 17.54144-6.148103 6.8423-53.864707-11.26389-29.38274-57.40073 26.937924-44.72897 66.9981656-13.112474 64.3149375-4.35132-.6827185 2.20895-.3751633 7.01748-12.1328184 13.8866 11.9523096 8.05833 27.9378739-9.78234 24.4325269-21.865436-1.339504-4.634707-5.968803-14.85686-22.0940803-23.989773-20.3327657-11.510984-54.4302057-12.081988-75.5631047 23.022719 0 0-.431296.699439-.619368 1.05552-.213553.34441-.583811 1.07051-.583811 1.07051-19.196295 36.17585-1.178291 65.09469 19.156095 76.62215z" stroke="#010202" stroke-miterlimit="10" stroke-width="3.552"/></g></svg>