<svg enable-background="new -204.866 -205.348 471.661 473.088" height="469.54303" viewBox="-204.866 -205.348 467.96898 469.54302" width="467.96899" xmlns="http://www.w3.org/2000/svg"><g fill="#fff"><path d="m28.477997-138.25801h234.625v67.082001h-234.625z"/><path d="m28.477997-4.104999h234.625v67.082001h-234.625z"/><path d="m28.477997 130.05499h234.625v67.078003h-234.625z"/><path d="m-204.866-205.34801h467.96899v469.543h-467.96899z"/></g><path d="m-186.315-136.684c0 21.738 10.059 47.387001 38.395 48.121001 5.254.145 18.43-.48 27.328-9.152 5.543-5.406001 8.359-12.941001 8.359-22.406001 0-15.883-7.961-22.777-14.648-25.754-7.336-3.27-15.992-3.031-21.328-1.598 1.801-4.52 6.137-11.418 19.992-11.883 5.582-.184 13.609 1.25 20.113 9.168 8.167996 9.93 15.526996 31.977 4.238 80.570001l-.512 2.168h57.831996l.023-1.754c.719-50.719001-9.488-87.176001-30.367-108.359001-16.863-17.105-35.885996-18.941-43.287996-18.941-65.375.008-66.137 59.223-66.137 59.82" fill="#e8423f"/><path d="m-120.178-198.281c-34.527 0-51.137 16.328-59 30.021-8.809 15.359-8.91 30.918-8.91 31.566 0 22.523 10.504 49.121001 40.109 49.898001h.512l.625.016c17.586 0 36.375-8.771 36.375-33.344001 0-22.242-15.309-30.176-29.637-30.176-1.496 0-3.188.094-4.875.313 2.418-3.602 7.09-7.273 16.816-7.594.289-.008.57-.023.855-.023 7.227 0 13.488 3.078 18.105 8.895 10.909996 13.73 12.190996 41.688 3.602 78.688001l-1.027 4.352h4.48 53.847996 3.504l.051-3.5c.719-51.227001-9.664-88.113001-30.891-109.633001-17.335-17.6-36.932996-19.479-44.541996-19.479m-64.368 61.566c.016-2.496 1.305-58.021 64.367-58.021 14.215 0 71.729996 6.984 71.921996 120.055001 0 1.793-.016 3.609-.043 5.465h-53.847996c4.042996-17.375 5.776996-31.855001 5.776996-43.785001-.008-35.078-15.046996-48.156-30.937996-48.156-.336 0-.645.008-.965.023-20.762.695-22.145 15.688-23.035 16.84.57-.512 1.707-1.035 3.242-1.465.352-.098.727-.191 1.129-.281 1.91-.43 4.262-.711 6.832-.711 11.078 0 26.078 5.223 26.078 26.633 0 27.008001-23.785 29.789001-32.816 29.789001-.375 0-.719-.008-1.039-.008-26.512-.703-36.664-24.680001-36.664-46.352001z" fill="#010202"/><path d="m-114.089-63.202999h77.582001v11.938h-77.582001z" fill="#e8423f"/><path d="m-114.089-63.194996h77.582001v11.93h-77.582001z" fill="none" stroke="#010202" stroke-miterlimit="10" stroke-width="3.552"/><path d="m-114.089-30.289h77.582001v11.934h-77.582001z" fill="#e8423f"/><path d="m-114.089-30.272999h77.582001v11.918h-77.582001z" fill="none" stroke="#010202" stroke-miterlimit="10" stroke-width="3.552"/><path d="m-129.75301-46.690998h108.918v11.93h-108.918z" fill="#e8423f"/><path d="m-129.75301-46.690998h108.918v11.93h-108.918z" fill="none" stroke="#010202" stroke-miterlimit="10" stroke-width="3.552"/><path d="m-38.961-11.697 26.582 222.051-34.293-40.953-26.867 88.282-27.117-88.516-34.043 41.187 26.328-222.051z" fill="#e8423f" transform="translate(-1.776004 -1.767999)"/><path d="m-38.961-11.697 26.582 222.051-34.293-40.953-26.867 88.282-27.117-88.516-34.043 41.187 26.328-222.051z" fill="none" stroke="#010202" stroke-miterlimit="10" stroke-width="3.552" transform="translate(-1.776004 -1.767999)"/><path d="m28.477997-205.332h234.625v67.073997h-234.625z" fill="#e8423f"/><path d="m28.477997-71.167999h234.625v67.063004h-234.625z" fill="#e8423f"/><path d="m28.477997 62.977005h234.625v67.078003h-234.625z" fill="#e8423f"/><path d="m28.477997 197.125h234.625v67.07h-234.625z" fill="#e8423f"/><g fill="none" stroke="#000" stroke-width="3.522"><path d="m28.147963-205.37571v469.58963"/><path d="m27.947585-138.08223h235.190725"/><path d="m27.827609-71.563864h235.190711"/><path d="m27.827604-3.7023227h235.190726"/><path d="m27.827604 62.91893h235.190726"/><path d="m27.827609 129.89455h235.190711"/><path d="m27.827605 197.22454h235.190725"/></g></svg>