<svg enable-background="new -205.249 -205.621 472.177 473.748" height="470.20398" viewBox="-205.249 -205.621 468.625 470.20399" width="468.625" xmlns="http://www.w3.org/2000/svg"><path d="m-205.24901-205.621h468.625v470.18799h-468.625z" fill="#ffd730"/><path d="m265.152-13.212-279.703-190.633h279.703z" fill="#e8423f" transform="translate(-1.776001 -1.768003)"/><path d="m265.152-203.845v190.633l-279.703-190.633z" fill="none" stroke="#000" stroke-width="3.320313" transform="matrix(1.0697788 0 0 1.0697788 -10.412784 3.765343)"/><path d="m-203.473 43.241 326.719 223.11h-326.719z" fill="#e8423f" transform="translate(-1.776001 -1.768003)"/><path d="m-203.473 266.351v-223.11l326.719 223.11z" fill="none" stroke="#010202" stroke-width="3.398629" transform="matrix(1.0451273 0 0 1.0451273 .539426 -6.60514)"/><path d="m219.173 12.499997c-3.656-7.7660002-31.953-39.465-67.984-61.742-15.867-9.809-64.953001-39.73-105.781001-49.25-4.422-1.031-8.219-3.183997-12.734-2.304997-1.871.359-4.559-2.512-1.266-4.277 1.797-.984 3.625-1.793 12.734-1.227-7.539-5.918-10.141-5.184-22.484-5.445 2.816-5.09 17.219-4.496 17.219-4.496s-6.477-4.48-26.234-3.852c4.109-3.215 11.887-4.469 11.887-4.469s-10.559-5.016-23.1679998.289c-1.01600003.422-2.19900003 1.375-4.641 1.422-2.406.055-8.3440002-1.078-9.2970002-1.352-.949-.258-4.719-1.121-4.156-4.656.527-3.527 3.527-3.496 4.262-3.543.77-.074 9.6410002 1.008 12.12900017-3.32 1.70300003-2.922 5.11300003-14.527-2.80099997-18.234-11.3440002-5.301-17.2460002-1.566-19.0000002-1.238-1.727.344-4.023-1.578-4.023-1.578s-8.504-9.672-11.281-12.008c-2.766-2.32-10.902-6.664-17.152-8.031-1.367-.305-3.824-1.094-4.191-1.453-1.375-1.273-6.07-2.188-7.773-2.113-2.082.094-6.609-.832-9.227 2.895-1.648 2.367-2.871 2.367-6.023 2.77-3.152.383-11.359-.457-11.359-.457s-10.647999-.496-13.976999-3.055c-1.551-1.176-6.32-5.992-7.594-7.723-1.27-1.711-3.391-.789-3.254-.152.688 3.09-.145 8.664-3.48 12.164-3.793 3.973-8.063 7.688-8.816 8.574-.773.863-2.102 5.223.367 6.977 2.473 1.766 4.402 3.07 4.402 3.07s-2.066 10.801-1.832 14.082c-2.367-1.152-6.434-3.656-8.863-5.832-15.922-14.297-16.699-29.57-20.066-30.281-3.359-.719-8.758 16.961.137 29.641 10.281 14.656 30.945 18.848 30.945 18.848s-3.594 4.305-3.434 10.414c-3.68 1.715-4.223 2.93-4.223 2.93s-.402 2.434 1.824 4.434c64.183999 1.152 108.007999 66.062997 94.444999 137.909997-1.965 10.441-10.367 27.543-13.727 35.051-3.359 7.492-4.77 19.836-4.77 19.836s-1.16 3.82-2.992 3.477c-1.832-.359-1.895-1.891-1.781-2.844.375-1.43-.648-7.172 0-10.656.656-3.516-1.234-6.125-1.234-6.125s5.387-11.109-6.973-21.453c1.758 12.914-2.441 15.609-2.441 15.609s-4.602-17.297-21.199-17.438c6.895 6.609 7.648 15.734 7.879 16.398-1.895-4.211-17.921999-16.148-28.159999-1.258 16.229999 1.688 18.694999 8.141 18.694999 8.141s-19.101999-8.203-28.183999 10.656c9.359-2.094 18.992.219 18.992.219s-11.641 2.203-12.199 12.602c6.457-2.914 16.237999-.344 16.237999-.344s-.313 0-.246.992c1.543.57 8.254 11.906003 14.086 15.047003 5.84 3.156 40.504 4.57 55.25-1.703 3.758-1.594 3.949-.891 5.504-5.500003 5.102-15.188 21.6050002-48.914 35.121-74.156 9.045-16.9440002 17.435-30.0580002 17.525-31.1550002.16-2.125-7.922-12.9489998-9.051-14.3909998-1.125-1.422 1.113-2.078 1.113-2.078s9.344 5.191 12.379 10.039c3.031 4.8549998 1.734 6.1679998.969 8.6559998-.789 2.504-7.348 20.3670002-7.348 20.3670002s70.504 2.953 86.988001 10.664c-18.000001 1.07-25.609001 2.359-33.234001 3.703-13.109 2.297-25.813 16.957-24.719 21.535 4.563 19.047 4.234 63.047003 4.523 66.641003.313 3.586 4.859 5.57 6.625 5.766 1.773.164 11.148.625 11.922 2.164.82 1.602-.523 2.102-.523 2.102s-2.148 1.5-5.891 1c-3.719-.5-22.219-6.594-25.594-10.773-3.391-4.211-5.063-6.344-5.063-6.344s2.828-18.133003-14.188-16.836003c5.75 9.047003 1 12.750003 1 12.750003s-6.262-13.703003-27.5739998-8.078003c13.9999998 6.211003 14.2459998 10.422003 14.2459998 10.422003s-11.5039998-5.906-23.9019998 5c15.766.836 17.641 7.219 17.641 7.219s-18.641-3.75-23.0350002 15.672c13.02000017-7.508 20.7070002-2.797 20.7070002-2.797s-19.8750002 5.453-15.184 23.516c7.96499997-7.5 17.75-9.063 17.75-9.063l.25.828s4.5739998 2.234 8.7969998 2.469c4.234.234 5.266-.414 4.801-2.828-.457-2.406.543-5.094.609-6 .078-.906 1.605-1.094 1.605-1.094s.953-.234 1.219 1.195c.559 3.195-1.816 5.664 1.016 9.391 2.84 3.727 7.492 3.102 8.914 3.727 1.414.594 9.445 2.516 9.445 2.516s20.734 3.008 28.047.172c5.133-1.984 20.414-11.266 24.742-17.969 2.109001-3.242 3.125001-7.484 3.781001-12.156 2.484-17.922 8.344-37.352003 21.391-47.031003 1-.766 3.078-1.273 4.188-1.891 1.227-.719 2.313-.953 2.836-2.164.461-2.836-4.148-32.039-4.414-42.258-.484-18.48-13-36.13700017-13-36.13700017s.086-1.20700003 1.531-1.46500003c1.438-.262 3.75 1.21100003 3.75 1.21100003s7.477 3.59799997 12.375 37.72700017c4.891 34.148 2.641 62.729003 8.711 75.836003 1.82 3.922 10.406 19.609 17.211 34.844 5.625 12.578 9.547 24.875 11.82 30.063 5 11.5-.492 25.898-2.703 27.305-2.219 1.43-2.313.055-3.086-.453-.734-.539.508-5.906.508-5.906s2.234-2.508-.508-7.328c-2.734-4.789-15.891-8.719-15.891-8.719s-1.922-1.539-3.188-2.336c1.906-13.617-18.75-16.906-18.75-16.906s6.047 9.625 4.781 18.617c-15.484-12.742-28.891-1.227-28.891-1.227s11.969 2.719 17.039 12.781c-20.953001-6.5-23.891001 9.516-23.891001 9.516s8.742001-3.656 17.625001 4.047c-19.984001.703-17.539001 17.078-17.539001 17.078s5.5-6.875 20.734001-.883c-.344.445-13.109 9.43-6 25.211 1.953-3.914 6.852-10.203 12.484-12.359.516.768.641.721.797.875 0 0 12.516-4.904 18.82-4.813 6.281.094 11.461-.094 19.586-.602 8.172-.523 13.023-4.273 16.891-6.352 3.906-2.094 20.453-18.063 24.391-21.328 3.938-3.258 5.164-9.063 5.164-9.063s3.414-11.328 5.625-30.266c2.18-18.945 5.242-49.859 5.508-66.484003.328-22.719-12.625-75.852-12.625-75.852s0-1.715 1.234-2.082c1.203-.359 1.156.059 2.688 2.816 1.516 2.754 3.219 16.414 5.75 18.625 1 .867 2.281 2.984 6.508 1.836 4.234-1.172 4.398-6.906 5.281-11.395.824-4.441-4.473-12.137-8.145-19.922m-334.219-162.733997c.469.199 1 .512 1 .512s-1.48 9.641-.266 14.055c-5.734-2.52-10.383-4.465-10.383-4.465s5.896-8.575 9.649-10.102m-1.074 32.816c-.23 0-.902-.145-1.84-.266-4.129-3.84-4.262-10.199-4.262-10.199s9.422 2.801 11 3.609c-.847 2.032-4.327 4.528-4.898 6.856m11.594 2.422c-1.152-.441-3.754-3.063-3.777-4.688-.039-2.238-.496-3.672-.496-3.672s13.761999 4.512 17.495999 11.801c-5.575-1.671-12.062999-3.007-13.222999-3.441m-8.352-19.984s4.84-7.246 8.848-8.992c12.780999 7.586 18.573999 20.008 20.479999 28.699-6.914-9.739-29.327999-19.707-29.327999-19.707" fill="#010202"/><path d="m-117.069-15.476003c17.069999-4.207 35.237999-22.094 47.894999-33.695 7.207-6.566 12.359-9.922 13.785-10.961 1.957 1.746 10.262 16.617 13.965 30.848 2.859 11 2.113 22.2109998 1.809 25.4569998-.895 9.793-7.527 11.473-7.527 11.473s-40.336 11.3590002-47.168 10.9020002c-3.168-.207-27.726999 4.586-34.769999 3.625-18.477-2.504-22.59-11.48-22.59-11.48l-8.625-16.3280002s-1.023-3.758 2.336-2.504c3.359 1.281 3.793 1.395 6.816 2.336 3.008.953.727-2.152.727-2.152s-2.957-1.801-5.582-3.0469998c-8.359-4.07-8.77-16.512-8.77-16.512s-.008-10.25.715-17.742c.727-7.5-16.848-7.707-16.848-7.707s7.27-13.465 27.605-4.672c.48-7.359-17.398-13.621-17.398-13.621s11.598-11.203 31.375 5.91c1.559-11.824-8.414-21.688-8.414-21.688s16.469-2.266 22.223 20.617c7.199-5.266 3.59-20.617 3.59-20.617s15.473 9.359 9.867 25.105c8.293-1.105 11.84-11.656 11.84-11.656s5.894999 11.367-4.84 21.871c-4.043 3.934-4.848 2.695-4.848 2.695s-17.305 20.59-7.891 48.03899983c1.207 3.55099997 3.578 1.023 3.945-.53500003.36-1.528-.273-7.329-3.222-13.9609998" fill="#010202"/><path d="m-36.303001-171.309s11.641 11.695 12.746 13.176c.918 1.234 8.367-2.527 12.102-1.461 2.2970002.656-.969-6.785-2.328-8.938-1.375-2.168-6-7.633-11.863-6.871-5.009.657-10.657 4.094-10.657 4.094" fill="#040304"/><path d="m-90.487001-115.082c-5.879-7.953-19.151999-11.746-34.456999-16.418-11.039-3.383-22.926-8.879-28.621-18.031-2.977-4.785-4.281-9.945-4.281-14.504 0-3.449.598-6.449 1.297-8.375.27.621.535 1.262.789 1.887 2.488 6.016 6.504 16.297 17.441 25.793 5.207 4.527 14.688 7.871 23.895 11.91 9.883 3.969 20.417999 9.703 26.690999 16.816 0 0 3.973 4.922 4.285 6.52-.941-.223-2.406-.641-4.199-1.039-.574-1.719-2.84-4.559-2.84-4.559" fill="#e8423f"/><g fill="#fff"><path d="m-126.487-118.363c1.617.047 3.664-.055 5.273.191-2.211-1.734-2.93-8.238-2.93-8.238s-2.413 3.559-2.343 8.047"/><path d="m-113.96-116.98c1.563.152 2.711.551 5.32 1.145-2.273-1.719-1.168-4.672-2.031-6.031-1.753 2.686-2.761 2.929-3.289 4.886"/><path d="m-112.549-139.035c2.605-3.922 6.07-6.223 6.254-6.273-1.129-.598-5.766-3.27-5.766-3.27s-.738 9.16-.488 9.543"/><path d="m-125.143-143.156s5.512-7.145 7.824-8.145c-3.496-1.23-4.961-2.16-6.105-2.895-1.239 5.641-1.719 11.04-1.719 11.04"/></g><path d="m105.47 38.159997s14.148-1.508 21.672 5.656c-.047-1.359-.656-9.063-.656-9.063s-13.5-5.565-21.016 3.407" fill="#e8423f"/><path d="m-65.526001-172.723s3.832.488 5.023 4.375c1.152 3.777 1.535 9.328-1.641 20.527-.297 1.031-2.273.738-2.273-.559 0-1.289 1.504-6.863 1.977-10.137.473-3.258.211-7.313-.816-8.336-.855-.848-2.453-1.578-2.789-1.664-.352-.086-2.234-.559-1.77-2.422.473-1.834 2.289-1.784 2.289-1.784" fill="#fff"/><path d="m-65.061001-161.601c1.934-.492 1.16-2.547-1.16-3.531-2.328-.984-7.77.219-9.656 5.375-1.73 4.699 5.598 8.979 7.168 8.979 2.664 0 3.48-3.613 1.934-4.438-1.551-.809-4.039-1.191-3.742-3.297.303-2.108 3.518-2.62 5.456-3.088" fill="#fff"/><g fill="#e8423f"><path d="m-110.944-58.891003s4.457.336 9.113-6.031c-.617 5.855-5.535 10.621-5.535 10.621z"/><path d="m-173.678-55.371003c6.648-4.914 19.344.777 19.344.777l-6.809 5.391c-.008-.008-2.442-5.809-12.535-6.168"/><path d="m-162.608-71.250003c9.418-2.539 22.008 9.238 22.008 9.238s-7.039 3.223-9.125 4.152c.183-.753-.625-9.07-12.883-13.39"/><path d="m-140.823-82.965003c9.008 3.449 11.945 18.527 11.945 18.527l-7.387 1.152c.001.001 2.473-9.413-4.558-19.679"/><path d="m-122.686-64.211003c3.566-3.391 6.047-8.824 4.84-15.418 2.32 2.281 4.977 11.441 2.063 17.898-1.056-.609-2.321-2.081-6.903-2.48"/><path d="m-63.678001 63.440997c-1.234-.852-3.199-1.313-4.563-1.375 3.945-3.609 3.328-9.297 3.328-9.297s3.387 6.063 1.235 10.672"/><path d="m-73.448001 61.972997c-3.613.172-6.176.891-6.887 1.266-.113-10.734-3.602-15.797-3.602-15.797s8.282 5.359 10.489 14.531"/><path d="m-83.717001 64.394997c-1.898 1.289-1.547.75-4.531 2.875-3.199-5.875-6.68-10.875-18.679999-11.664 9.417999-6.368 20.776999 2.195 23.210999 8.789"/><path d="m-114.678 72.175997c3.598-6.391 17.253999-6.18 23.784999-2.148-2.137 2.414-2.648 3.492-3.523 6.18-5.918999-4.196-16.964999-4.227-20.261999-4.032"/><path d="m-109.893 84.628997c4.773-6.031 13.964999-5.664 14.093999-5.391-.328.406-2.094 5.484-2.121 6.156-.454-.328-5.414999-1.874-11.972999-.765"/><path d="m38.594999 110.395c-2.031-.547-4.797-1.188-6.707-1.609.816-.719 3.27-6.688.816-11.297003 1.829.593 6.172 2.406 5.891 12.906003"/><path d="m19.313999 110.277c2.656-1.555 4.375-1.664 6.391-1.492-2.129-5.969-13.375-8.742-15.344-8.156 1.215.609 8.824 4.859 8.953 9.648"/><path d="m-.42400083 112.738c7.75400003-3.477 14.78499983-.313 15.32799983.094-.887.797-3.215 3.188-4.246 5.484-1.5119998-4.14-11.08199983-5.578-11.08199983-5.578"/><path d="m-8.3580008 131.293c.672-1.508 8.14499997-8.539 16.129-5.836-1.363 2.25-1.594 3.547-1.066 5.516-7.735-3.617-14.801.25-15.063.32"/><path d="m-6.0140008 152.27c2.246-9.75 9.344-12.281 12.816-13.797-.16 1.531.215 5.922.918 7.156-.918-.242-9.605 1.859-13.734 6.641"/><path d="m140.892 180.316c-2.438.578-6.078 1.945-7.391 2.75.672-5.922-.891-11.789-2.508-14.453 2.79.547 10.93 4.43 9.899 11.703"/><path d="m121.986 193.371c-.672-2.602-7.375-11.094-13.625-12.648 4.953-2.547 13.422-1.875 20.953 5.141-3.172 1.968-6.594 6.171-7.328 7.507"/><path d="m99.453999 199.801c4.281001-7.25 16.688001-3.734 20.172001-2.164-1.594 1.664-3.094 4.625-3.625 9.297-2.89-5.836-12.515-8-16.547001-7.133"/><path d="m98.063999 218.832c-.281.703 2.203001-9.172 17.266001-7.789-.625 3.742-.703 5.336-.328 9.07-9.594-4.609-16.938001-1.281-16.938001-1.281"/><path d="m110.314 241.473s-1.047-8 5.75-13.906c.531 3.438 1.453 5.477 2.75 6.859-4.094 1.187-8.5 7.047-8.5 7.047"/></g><path d="m-120.753-56.914003c-3.375 2.848-6.773 2.141-9.84 5.352-2.223 2.32-8.301 10.344-5.824 23.934 1.625 8.863 2.867 24.3709998 3.801 29.4099998 1.258 6.773-2.934 12.9450002-5.656 12.9450002" fill="none" stroke="#fff" stroke-linecap="round" stroke-linejoin="round" stroke-width="3.328"/></svg>