<svg enable-background="new -207.132 -206.774 475.735 476.272" height="472.727" viewBox="-207.132 -206.774 472.175 472.727" width="472.175" xmlns="http://www.w3.org/2000/svg"><path d="m-207.132-206.774h472.17499v472.72699h-472.17499z" fill="#fff"/><path d="m177.62199-94.575002c-.055-2.359-.25-4.734-.539-7.093998-.891-6.535-2.984-13.535-6.25-20.551 4.656-2.379 7.867-7.203 7.867-12.801 0-7.93-6.445-14.367-14.398-14.367-3.641 0-6.953 1.375-9.5 3.598-7.172-7.719-15.938-14.598-26.172-19.824.922-1.871 1.43-3.977 1.43-6.215 0-7.93-6.438-14.367-14.375-14.367-7.07 0-12.93 5.102-14.164 11.824-10.233996-1.617-21.358996-1.656-33.327996.383-1.492-6.336-7.188-11.078-13.984-11.078-7.984 0-14.391 6.422-14.391 14.367 0 1.641.273 3.215.766 4.695-1.031.414-2.063.848-3.125 1.297-8.66 3.734-17.484 8.871-25.879 15.414-2.6409999-2.801-6.3439999-4.527-10.5039999-4.527-7.941 0-14.4140001 6.418-14.4140001 14.344 0 4.039 1.688 7.672 4.3750001 10.273-7.0900001 8.672-13.4060001 18.672-18.5120001 30.015998-1.809-.793-3.777-1.226998-5.855-1.226998-8.047 0-14.617 6.530998-14.617 14.554998 0 6.902 4.848 12.68 11.289 14.176-2.535 11.023-3.977 22.992-4.098 35.879h79.145c-.375-32.762 6.938-57.008 19.789-70.479998 14.922-15.574 36.781-17.273 54.280996-9.633 18.406 8.008 26.406 27.151998 19.273 41.729998-5.539 11.336-20.977 19.902-42.897996 18.313 13.452996 16.918 27.866996 23.637 41.124996 23.309 1 6.953 6.969 12.313 14.25 12.313 7.938 0 14.359-6.422 14.359-14.359 0-3.125-.984-6.016-2.703-8.375 7.031-5.922 12.781-14.055 16.578-23.391 1.078.246 2.195.383 3.313.383 7.977 0 14.406-6.426 14.406-14.344-.001-7.33-5.477-13.33-12.54-14.236" fill="#e8423f"/><path d="m177.62199-94.575002c-.055-2.359-.25-4.734-.539-7.093998-.891-6.535-2.984-13.535-6.25-20.551 4.656-2.379 7.867-7.203 7.867-12.801 0-7.93-6.445-14.367-14.398-14.367-3.641 0-6.953 1.375-9.5 3.598-7.172-7.719-15.938-14.598-26.172-19.824.922-1.871 1.43-3.977 1.43-6.215 0-7.93-6.438-14.367-14.375-14.367-7.07 0-12.93 5.102-14.164 11.824-10.233996-1.617-21.358996-1.656-33.327996.383-1.492-6.336-7.188-11.078-13.984-11.078-7.984 0-14.391 6.422-14.391 14.367 0 1.641.273 3.215.766 4.695-1.031.414-2.063.848-3.125 1.297-8.66 3.734-17.484 8.871-25.879 15.414-2.6409999-2.801-6.3439999-4.527-10.5039999-4.527-7.941 0-14.4140001 6.418-14.4140001 14.344 0 4.039 1.688 7.672 4.3750001 10.273-7.0900001 8.672-13.4060001 18.672-18.5120001 30.015998-1.809-.793-3.777-1.226998-5.855-1.226998-8.047 0-14.617 6.530998-14.617 14.554998 0 6.902 4.848 12.68 11.289 14.176-2.535 11.023-3.977 22.992-4.098 35.879h79.145c-.375-32.762 6.938-57.008 19.789-70.479998 14.922-15.574 36.781-17.273 54.280996-9.633 18.406 8.008 26.406 27.151998 19.273 41.729998-5.539 11.336-20.977 19.902-42.897996 18.313 13.452996 16.918 27.866996 23.637 41.124996 23.309 1 6.953 6.969 12.313 14.25 12.313 7.938 0 14.359-6.422 14.359-14.359 0-3.125-.984-6.016-2.703-8.375 7.031-5.922 12.781-14.055 16.578-23.391 1.078.246 2.195.383 3.313.383 7.977 0 14.406-6.426 14.406-14.344-.001-7.33-5.477-13.33-12.54-14.236z" fill="none" stroke="#010202" stroke-width="3.546"/><path d="m-1.6040059-35.806002c-.383-32.762 8.672-54.176 18.1209999-70.319998 10.977-18.785 36.793-47.289 92.800996-34.949 62.742 13.828 56.219 109.382998-16.765996 86.972998" fill="none" stroke="#010202" stroke-linecap="round" stroke-linejoin="round" stroke-width="3.546"/><path d="m-45.011006 3.7449982c-.336 2.984-23.059 206.2700018-24.863 222.5040018 7.047-12.734 43.215-78.094 43.215-78.094s22.6480001 90.125 25.66400014 102.141c2.99999996-12.017 25.41399986-102.141 25.41399986-102.141s36.414 65.438 43.477 78.125c-1.821-16.187-24.782-219.5430018-25.125-222.5270018h-87.781l-.001-.008z" fill="#e8423f"/><path d="m44.340994 1.9639982h-90.953l-26.016 232.9180018 1.711-3.117 2.746-4.977 40.887-73.852 24.4490001 97.359.969 3.867.855 3.445.84800004-3.445.977-3.883 24.21499986-97.344 41.117 73.883 2.766 4.945 1.719 3.117-26.29-232.9160018zm-87.77 3.551h84.605l23.969 212.1720018-36.988-66.477-4.395-7.852-2.168 8.734-22.6049999 90.877-22.8160001-90.892-2.199-8.719-4.363 7.867-36.734 66.398 23.694-212.1080018z" fill="#010202"/><path d="m-.690006 3.103998v245.706002" fill="none" stroke="#010202" stroke-width="3.546"/><path d="m-68.749008-37.493004h139.105v41.992001h-139.105z" fill="#e8423f"/><path d="m-68.733009-37.493004h139.09v41.992001h-139.09z" fill="none" stroke="#010202" stroke-width="3.546"/><path d="m-85.726013-25.317003h173.11301v17.656h-173.11301z" fill="#e8423f"/><path d="m-85.726013-25.302002h173.11301v17.641001h-173.11301z" fill="none" stroke="#010202" stroke-width="3.546"/></svg>