<svg enable-background="new -206.038 -206.332 473.416 475.001" height="471.44901" viewBox="-206.038 -206.332 469.86302 471.449" width="469.86301" xmlns="http://www.w3.org/2000/svg"><path d="m-206.03799-206.33202h469.86301v471.44901h-469.86301z" fill="#ffd730"/><g fill="none" stroke="#fff" stroke-width="5.56"><path d="m-80.237007-7.7500113c-1.684-10.2809997-2.57-21.9019997-1.633-29.7699997 1.328-11.254 5.008-22.797 10.566-27.535-2.785-3.895-16.961-23.078 5.563-32.262m204.542997 89.5669997c1.68-10.2809997 2.563-21.9019997 1.633-29.7699997-1.328-11.254-5.008-22.797-10.57-27.535 2.781-3.895 16.961-23.078-5.563-32.262" stroke-linecap="round" stroke-linejoin="round"/><path d="m-13.776007 180.86699h84.390997"/><path d="m132.12999-53.492011-69.217997 47.6949997-.313 90.1950003s.844 12.969 4.508 20.703001c2.023 4.234 13.945 14.313 18.102 15.609m-159.743-174.202001 69.2230004 47.6949997.297 90.1950003s-.824 12.969-4.504 20.703001c-2.0160004 4.234-13.9530004 14.313-18.0980004 15.609" stroke-linecap="round"/></g><g fill="#010202"><path d="m-66.741007-99.231011s-11.371-4.933999-29-50.413999c-17.633003-45.48-46.211003-40.824-46.480003-40.762-.898.184-2.984.367-3.473 3-.488 2.648 1.598 3.793 2.254 4.074.672.277 17.441 4.641 25.066 51.797 8.48 52.351999 36.863003 65.159999 42.801003 66.679999-14.496-28.046 8.832-34.375 8.832-34.375"/><path d="m154.12199-149.64501c17.648-45.48 46.211-40.824 46.477-40.762.891.184 2.984.367 3.469 3 .5 2.648-1.586 3.793-2.242 4.074-.656.277-17.43 4.641-25.063 51.797-8.477 52.351999-36.867 65.159999-42.805 66.679999 14.508-28.047-8.828-34.375-8.828-34.375"/><path d="m136.52099-58.645011s10.953 20.809 4.563 50.9019997c.828 1.395 12.969 11.953 34.656 5 21.695-6.949 22.805-31.9839997 41.727-38.0939997-11.962-20.042-38.938-45.616-80.946-17.808"/></g><path d="m212.73999-41.957011s-17.234-8.625-26.969-8.625-31.156 13.352-35.047 13.07c-3.898-.262-7.781-.262-7.781-.262" fill="none" stroke="#fff" stroke-linecap="round" stroke-linejoin="round" stroke-width="3.552"/><path d="m-78.167007-59.477011s-10.938 20.801-4.559 50.9019997c-.832 1.391-12.961 11.953-34.648003 5-21.695-6.9529997-22.816-31.9689997-41.723-38.1019997 11.954-20.015 38.93-45.608 80.930003-17.8" fill="#010202"/><path d="m-154.38901-42.781011s17.254-8.633 26.992-8.633c9.734 0 31.141003 13.352 35.031003 13.074 3.895-.273 7.793-.273 7.793-.273" fill="none" stroke="#fff" stroke-linecap="round" stroke-linejoin="round" stroke-width="3.552"/><path d="m-13.753007 182.39799h84.477s1.484 15.125-10.391 15.125h-65.6359996c-9.0940004 0-8.4500004-15.125-8.4500004-15.125" fill="#010202"/><path d="m-76.678007-51.902011 69.6950004 47.4639997.223 89.1640003s-1.895 11.703-5.0940004 20.375001c-1.617 4.398-13.977 14.477-18.289 14.359-2.488-.078-11.879-27.945001-17.137-37.508001-2.543-4.633-22.703-21.305-9.957-39.836-37.043-56.737-19.441-94.018-19.441-94.018" fill="#010202"/><path d="m134.66199-51.902011-69.703997 47.4639997-.234 89.1640003s1.906 11.703 5.102 20.375001c1.633 4.398 13.992 14.477 18.305 14.359 2.5-.078 11.859-27.945001 17.140997-37.508001 2.539-4.633 22.688-21.305 9.953-39.836 37.03-56.737 19.437-94.018 19.437-94.018" fill="#010202"/><path d="m-48.272007-18.277011c0 10.6559997 9.184 19.2969997 20.504 19.2969997 5.609 0 10.699-2.129 14.402-5.563l-32.57-22.6409997c-1.481 2.672-2.336 5.707-2.336 8.907" fill="#fff"/><path d="m-42.120007-18.277011c0 7.473 6.426 13.5119997 14.352 13.5119997 3.867 0 7.371-1.457 9.953-3.801l-22.742-15.8159997c-.992 1.855-1.563 3.921-1.563 6.105" fill="#010202"/><path d="m105.72399-18.277011c0 10.6559997-9.171997 19.2969997-20.499997 19.2969997-5.594 0-10.695-2.129-14.391-5.563l32.546997-22.6409997c1.5 2.672 2.344 5.707 2.344 8.907" fill="#fff"/><path d="m99.582993-18.277011c0 7.473-6.422 13.5119997-14.352 13.5119997-3.867 0-7.375-1.457-9.945-3.801l22.734-15.8159997c1.001 1.855 1.563 3.921 1.563 6.105" fill="#010202"/><path d="m95.575993 126.39799c-1-.375-9.359.555-22.242-11.789-3.211-3.078-8.656-9.852-9-11.133-2.594-9.828001-3.477-20.484001-3.234-37.242001.266-19.492.094-72.8710003.094-72.8710003l72.687997-50.3829997s-5.328-11.281-13.781-11.648c-4.125-.18-70.007997.086-91.089997.184-21.0779996-.105-86.953-.371-91.07-.184-8.465.367-13.801 11.648-13.801 11.648l72.6930004 50.3829997s-.176 53.3950003.098 72.8710003c.238 16.773-.648 27.43-3.242 37.242001-.328 1.266-5.7700004 8.055-9.0000004 11.133-12.871 12.344-21.23 11.414-22.23 11.789-5.008 1.852-10.848 5.75-5.023 28.453 5.84 22.734 15.965 24.328 15.965 24.328h111.261s10.125-1.594 15.937997-24.328c5.827-22.703-.017-26.601-5.023997-28.453" fill="#010202"/><path d="m-67.366007-99.149011c-6.586 2.566-11.129 6.637-12.93 11.68-.613 1.727-.91 3.52-.91 5.414 0 4.945 1.75 11.535 5.977 17.512 11.824 16.762 26.43 14.801 33.367 11.633.016.023.016.023.023.039 2.207 4.203 4.336 6.906 9.215 9.113 3.488 1.559 7.953.281 12.266-.961 1.496-.43 3.688-1.055 4.574-1.094.625.336 2.023 1.629 2.984 2.52 2.527 2.367 5.4100004 5.047 8.8010004 5.414 2.688.281 5.496-.781 8.465-1.895 2.328-.871 4.969-1.863 6.5659996-1.738 0 0 .328.051.344.059.016.016.281.215.281.215 2.48 2.098 5.504 3.809 17.441 3.953 12.203-.145 15.008-1.977 17.219-4.168 0 0 .016-.023.047-.039.047-.008.109-.02.109-.02 1.609-.133 4.25.859 6.563 1.738 2.984 1.113 5.789 2.176 8.469 1.895 3.391-.367 6.273-3.047 8.797-5.414.945-.871 2.328-2.16 3-2.512.898.039 3.078.656 4.563 1.086 4.313 1.242 8.781 2.52 12.273.961 4.883-2.199 6.992-4.902 9.211-9.113.016-.031.016-.031.016-.047 4.265997 1.777 21.179997 5.199 34.280997-11.625 4.016-5.168 5.078-12.566 5.078-17.512 0-1.855-.313-3.629-.891-5.313-2.125-6.055-7.438-9.559-12.516-11.605" fill="#fff"/><path d="m120.59899-96.613011c.539-1.695.836-3.503999.836-5.374999 0-9.832-8.133-17.809-18.188-17.809-2.273 0-4.437997.43-6.452997 1.184-2.367-7.137-9.195-12.281-17.289-12.281-4.109 0-7.891 1.352-10.945 3.609-3.164-5.031-8.766-8.398-15.18-8.398-3.922 0-7.555 1.262-10.508 3.406-3.883 2.824-13.504-3.215-13.504-3.215s-11.832 5.039-16.879 2.16c-2.6169996-1.496-5.6409996-2.352-8.8629996-2.352-6.25 0-11.746 3.191-14.9380004 8.016-2.969-2.137-6.59-3.418-10.52-3.418-7.992 0-14.762 5.207-17.055 12.395-2.074-.828-4.313-1.297-6.68-1.297-9.891 0-17.906 7.977-17.906 17.797 0 1.906.313 3.729999.855 5.448999-7.641 2.121-22.613 10.434-8.863 29.906 13.785 19.52 28.879 9.445 28.879 9.445s2.488-1.336 4.41 2.297c1.895 3.641 3.43 5.551 7.27 7.273 3.824 1.719 13.203-3.25 16.266-2.297 3.063.961 7.4730004 7.465 11.1050004 7.84 3.62900001.391 10.152-4.016 14.9259996-3.633 4.785.391.547 4.023 17.785 4.207 17.219-.184 12.203-3.824 16.992-4.207s11.297 4.023 14.945 3.633c3.625-.383 8.031-6.879 11.094-7.84 3.063-.953 12.438 4.016 16.273 2.297 3.82-1.723 5.359-3.633 7.273-7.273 1.922-3.633 4.397997-2.297 4.397997-2.297s15.719 9.793 29.492-9.734c13.464-19.106-1.278-27.223-9.028-29.488" fill="#010202"/><path d="m.14599341 154.49199c1.40599999 2.797.527 6.094-1.95300001 7.344l-4.07 2.047c-2.496 1.25-5.6560004 0-7.0740004-2.828l-8.129-16.164c-1.414-2.82-.527-6.102 1.961-7.344l4.074-2.047c2.496-1.25 5.6560004.016 7.0630004 2.82l8.12800001 16.172z" fill="#010202"/><path d="m56.856993 154.49199c-1.406 2.797-.523 6.094 1.969 7.344l4.055 2.047c2.5 1.25 5.664 0 7.063-2.828l8.125-16.164c1.43-2.82.547-6.102-1.938-7.344l-4.078-2.047c-2.5-1.25-5.672.016-7.063 2.82z" fill="#010202"/><path d="m56.856993 154.49199c-1.406 2.797-.523 6.094 1.969 7.344l4.055 2.047c2.5 1.25 5.664 0 7.063-2.828l8.125-16.164c1.43-2.82.547-6.102-1.938-7.344l-4.078-2.047c-2.5-1.25-5.672.016-7.063 2.82zm-56.71099959 0c1.40599999 2.797.527 6.094-1.95300001 7.344l-4.07 2.047c-2.496 1.25-5.6560004 0-7.0740004-2.828l-8.129-16.164c-1.414-2.82-.527-6.102 1.961-7.344l4.074-2.047c2.496-1.25 5.6560004.016 7.0630004 2.82z" fill="none" stroke="#fff" stroke-width="3.552"/><path d="m63.973993 146.16399c3.672-5.984 4.93-5.828 5.031-5.75 15.172 11.297 24.922 28.828 24.922 48.5 0 34.094-29.25 61.75-65.344 61.75-36.0779996 0-65.336-27.656-65.336-61.75 0-19.688 9.762-37.234 24.961-48.531.488-.359 2.6720004-1.375 5.0000004 5.938 2.313 7.313 2.242 8.438 2.066 8.594-9.9840004 8.422-16.2500004 20.547-16.2500004 34 0 25.344 22.2340004 45.984 49.559 45.984 27.336 0 49.57-20.641 49.57-45.984 0-13.609-6.43-25.891-16.625-34.313.001-.008-1.687-1.704 2.446-8.438" fill="#e8423f"/><path d="m63.973993 146.16399c3.672-5.984 4.93-5.828 5.031-5.75 15.172 11.297 24.922 28.828 24.922 48.5 0 34.094-29.25 61.75-65.344 61.75-36.0779996 0-65.336-27.656-65.336-61.75 0-19.688 9.762-37.234 24.961-48.531.488-.359 2.6720004-1.375 5.0000004 5.938 2.313 7.313 2.242 8.438 2.066 8.594-9.9840004 8.422-16.2500004 20.547-16.2500004 34 0 25.344 22.2340004 45.984 49.559 45.984 27.336 0 49.57-20.641 49.57-45.984 0-13.609-6.43-25.891-16.625-34.313.001-.008-1.687-1.704 2.446-8.438z" fill="none" stroke="#010202" stroke-width="3.552"/><path d="m46.215993 179.55499c1.086 3.828 1.68 8.094 1.68 12.578 0 17.188-8.828 31.109-19.711 31.109-10.895 0-19.7189996-13.922-19.7189996-31.109 0-4.469.582-8.703 1.6559996-12.516 9.969-.008 32.321-.062 36.094-.062" fill="#e8423f"/></svg>