<svg enable-background="new -206.049 -206.68 474.134 475.712" height="472.16" viewBox="-206.049 -206.68 470.56598 472.16" width="470.56598" xmlns="http://www.w3.org/2000/svg"><path d="m29.239996-206.68001h235.27699v472.16h-235.27699z" fill="#e8423f"/><path d="m-206.049-206.68001h235.289v472.16h-235.289z" fill="#fff"/><g transform="translate(-1.776005 -1.775995)"><path d="m159.59-81.294-31.281 20.312 10.703-34.754-28.344-18.992h35.555l13.367-36.367 13.375 36.367h35.555l-28.071 19.258 10.711 34.488z" fill="#fff"/><path d="m159.59-81.294-31.281 20.312 10.703-34.754-28.344-18.992h35.555l13.367-36.367 13.375 36.367h35.555l-28.071 19.258 10.711 34.488z" fill="none" stroke="#010202" stroke-width="3.552"/><path d="m159.59 7.143-31.281 20.313 10.703-34.766-28.344-18.984h35.555l13.367-36.36 13.375 36.36h35.555l-28.071 19.261 10.711 34.489z" fill="#fff"/><path d="m159.59 7.143-31.281 20.313 10.703-34.766-28.344-18.984h35.555l13.367-36.36 13.375 36.36h35.555l-28.071 19.261 10.711 34.489z" fill="none" stroke="#010202" stroke-width="3.552"/><path d="m159.59 95.569-31.281 20.312 10.703-34.757-28.344-18.985h35.555l13.367-36.371 13.375 36.371h35.555l-28.071 19.25 10.711 34.492z" fill="#fff"/><path d="m159.59 95.569-31.281 20.312 10.703-34.757-28.344-18.985h35.555l13.367-36.371 13.375 36.371h35.555l-28.071 19.25 10.711 34.492z" fill="none" stroke="#010202" stroke-width="3.552"/><path d="m159.59 183.983-31.281 20.328 10.703-34.758-28.344-18.984h35.555l13.367-36.36 13.375 36.36h35.555l-28.071 19.258 10.711 34.484z" fill="#fff"/><path d="m159.59 183.983-31.281 20.328 10.703-34.758-28.344-18.984h35.555l13.367-36.36 13.375 36.36h35.555l-28.071 19.258 10.711 34.484z" fill="none" stroke="#010202" stroke-width="3.552"/><path d="m-97.488-81.294-31.282 20.312 10.688-34.754-28.328-18.992h35.555l13.367-36.367 13.367 36.367h35.578l-28.09 19.258 10.703 34.488z" fill="#e8423f"/><path d="m-97.488-81.294-31.282 20.312 10.688-34.754-28.328-18.992h35.555l13.367-36.367 13.367 36.367h35.578l-28.09 19.258 10.703 34.488z" fill="none" stroke="#010202" stroke-width="3.552"/><path d="m-97.488 7.143-31.282 20.313 10.688-34.766-28.328-18.984h35.555l13.367-36.36 13.367 36.36h35.578l-28.09 19.261 10.703 34.489z" fill="#e8423f"/><path d="m-97.488 7.143-31.282 20.313 10.688-34.766-28.328-18.984h35.555l13.367-36.36 13.367 36.36h35.578l-28.09 19.261 10.703 34.489z" fill="none" stroke="#010202" stroke-width="3.552"/><path d="m-97.488 95.569-31.282 20.312 10.688-34.757-28.328-18.985h35.555l13.367-36.371 13.367 36.371h35.578l-28.09 19.25 10.703 34.492z" fill="#e8423f"/><path d="m-97.488 95.569-31.282 20.312 10.688-34.757-28.328-18.985h35.555l13.367-36.371 13.367 36.371h35.578l-28.09 19.25 10.703 34.492z" fill="none" stroke="#010202" stroke-width="3.552"/><path d="m-97.488 183.983-31.282 20.328 10.688-34.758-28.328-18.984h35.555l13.367-36.36 13.367 36.36h35.578l-28.09 19.258 10.703 34.484z" fill="#e8423f"/><path d="m-97.488 183.983-31.282 20.328 10.688-34.758-28.328-18.984h35.555l13.367-36.36 13.367 36.36h35.578l-28.09 19.258 10.703 34.484z" fill="none" stroke="#010202" stroke-width="3.552"/><path d="m31-188.416v69.778l-31.551 20.062 10.703-34.496-28.082-19.254h35.555z" fill="#e8423f"/><path d="m31-118.638v-69.778l13.355 36.36h35.594l-28.359 18.984 10.961 34.754z" fill="#fff"/><path d="m31-118.638-31.551 20.062 10.703-34.496-28.082-19.254h35.555l13.375-36.09 13.355 36.36h35.594l-28.359 18.984 10.961 34.754z" fill="none" stroke="#010202" stroke-width="3.552"/><path d="m31-99.99v69.797l-31.551 20.059 10.703-34.496-28.082-19.258h35.555z" fill="#e8423f"/><path d="m31-30.193v-69.797l13.355 36.36h35.594l-28.359 19 10.961 34.773z" fill="#fff"/><path d="m31-30.193-31.551 20.059 10.703-34.496-28.082-19.258h35.555l13.375-36.102 13.355 36.36h35.594l-28.359 19 10.961 34.773z" fill="none" stroke="#010202" stroke-width="3.552"/><path d="m31-11.56v69.801l-31.551 20.023 10.703-34.469-28.082-19.242h35.555z" fill="#e8423f"/><path d="m31 58.241v-69.801l13.355 36.375h35.594l-28.359 18.98 10.961 34.758z" fill="#fff"/><path d="m31 58.241-31.551 20.023 10.703-34.469-28.082-19.242h35.555l13.375-36.113 13.355 36.375h35.594l-28.359 18.98 10.961 34.758z" fill="none" stroke="#010202" stroke-width="3.552"/><path d="m31 76.866v69.789l-31.551 20.047 10.703-34.461-28.082-19.274h35.555z" fill="#e8423f"/><path d="m31 146.655v-69.789l13.355 36.375h35.594l-28.359 19 10.961 34.758z" fill="#fff"/><path d="m31 146.655-31.551 20.047 10.703-34.461-28.082-19.274h35.555l13.375-36.101 13.355 36.375h35.594l-28.359 19 10.961 34.758z" fill="none" stroke="#010202" stroke-width="3.552"/><path d="m31 165.311v69.797l-31.551 20.047 10.703-34.5-28.082-19.266h35.555z" fill="#e8423f"/><path d="m31 235.108v-69.797l13.355 36.359h35.594l-28.359 18.985 10.961 34.75z" fill="#fff"/><path d="m10.152 220.655-28.082-19.266h35.555l13.375-36.078 13.355 36.359h35.594l-28.359 18.985 10.961 34.75-31.551-20.297-31.551 20.047z" fill="none" stroke="#010202" stroke-width="3.552"/></g><path d="m29.239996-206.664v472.129" fill="none" stroke="#010202" stroke-miterlimit="10" stroke-width="3.552"/></svg>