<svg enable-background="new -204.487 -206.031 471.521 473.152" height="470.13998" viewBox="-204.487 -206.031 469.61002 470.13998" width="469.61002" xmlns="http://www.w3.org/2000/svg"><g transform="translate(0 .000002)"><path d="m265.438-204.072-468.028.258v-.258 469.879h468.028z" fill="#fff" transform="translate(-.830994 -1.698013)"/><path d="m-204.487-206.01323h235.867v470.14218h-235.867z" fill="#ffd730"/><path d="m31.107006-206.03101h234.14131v470.13718h-234.14131z" fill="#e8423f"/><path d="m147.57501 229.79699 1.359.281 1.297.242 1.078.281 1.063.781.82.523.789.828.523 1.063.523 1.063.281 1.063.25 1.063-.25 1.328-.281 1.063-.523 1.063-.523.82-.789.781-.82.805-1.063.539-1.078.521-1.297.25h-1.359-34.813-1.352l-1.32-.25-1.063-.521-1.063-.539-.82-.805-.789-.781-.516-.82-.531-1.07-.281-1.063-.242-1.328.242-1.07.281-1.063.531-1.063.531-1.063.781-.813.813-.531 1.063-.781 1.07-.281 1.32-.25 1.352-.281h34.805m.001-116.188h1.359l1.297-.25 1.078-.281 1.063-.781.82-.547.789-.797.523-1.063.523-1.078.281-1.063.25-1.07-.25-1.313-.281-1.063-.523-1.07-.523-.813-.789-.781-.82-.813-1.063-.531-1.078-.531003-1.297-.266h-1.359-34.813-1.352l-1.32.266-1.063.531003-1.063.531-.82.813-.789.781-.516.828-.531 1.063-.281 1.063-.242 1.313.242 1.063.281 1.063.531 1.078.531 1.07.781.805.813.539 1.063.789 1.07.273 1.32.25 1.352.273h34.82" fill="none" stroke="#040304" stroke-linecap="square" stroke-miterlimit="10" stroke-width="3.456"/><g transform="translate(-.830994 -1.698013)"><path d="m232.172-120.037v-19.425h21.016v-26.848h-33.5v18.617h-26.875v-18.617h-33.766v46.273h-17.016l.532 76.329h16.484v46.246h33.766v-18.344h26.875v18.344h33.5v-26.575h-21.016v-19.671h21.016v-9.313-57.441-9.575z" fill="#ffd730"/><path d="m142.563-43.708h16.484v46.246h33.766v-18.344h26.875v18.344h33.5v-26.575h-21.016v-19.671h21.016v-9.313-57.441-9.575h-21.016v-19.425h21.016v-26.848h-33.5v18.617h-26.875v-18.617h-33.766v46.273h-17.016z" fill="none" stroke="#040304" stroke-linecap="square" stroke-miterlimit="10" stroke-width="3.456"/><path d="m226.063-73.775-20.469.266v27.656h-18.625v-27.656h-20.742v-16.481h20.742v-27.656h18.625v27.656h20.469v16.481z" fill="#e8423f"/><path d="m226.063-73.775-20.469.266v27.656h-18.625v-27.656h-20.742v-16.481h20.742v-27.656h18.625v27.656h20.469v16.481" fill="none" stroke="#040304" stroke-linecap="square" stroke-miterlimit="10" stroke-width="3.456"/><path d="m121.031-179.876.532-1.321 1.062-1.328 1.063-1.066 1.078-1.063 1.578-.808 1.609-.52 1.586-.535h1.852 1.875l1.593.535 1.594.52 1.328.808 1.344 1.063 1.047 1.066 1.07 1.328.539 1.59.25 1.594.282 1.597.781.793.804.801.54.801.781.793.547 1.062.265 1.063.25 1.066.282 1.063.25 1.066v1.063 281.34h-31.375v-281.34l.281-1.063v-1.066l.25-1.328.273-1.063.539-.801.532-1.062.796-.793.516-1.066.813-.797 1.062-.532v-1.855z" fill="#ffd730"/><path d="m115.438 114.495v-281.34l.281-1.063v-1.066l.25-1.328.273-1.063.539-.801.532-1.062.796-.793.516-1.066.813-.797 1.062-.532v-1.855l.531-1.605.532-1.321 1.062-1.328 1.063-1.066 1.078-1.063 1.578-.808 1.609-.52 1.586-.535h1.852 1.875l1.593.535 1.594.52 1.328.808 1.344 1.063 1.047 1.066 1.07 1.328.539 1.59.25 1.594.282 1.597.781.793.804.801.54.801.781.793.547 1.062.265 1.063.25 1.066.282 1.063.25 1.066v1.063 281.34" fill="none" stroke="#040304" stroke-linecap="square" stroke-miterlimit="10" stroke-width="3.456"/><path d="m115.719 224.588-2.938-6.921-3.453-5.586-4.531-5.047-5.328-4-5.828-3.446-6.375-3.453-6.657-2.922-7.171-3.195v-27.117l7.171-3.195 6.657-3.711 6.375-3.719 5.828-4.555 5.328-5.031 4.531-5.609 3.453-6.618 2.938-7.453 1.594-8.781.531-9.836h26.312l.532 9.836 1.593 8.781 2.672 7.453 3.719 6.618 4.516 5.609 5.312 5.031 5.859 4.555 6.375 3.719 6.657 3.711 7.179 3.195v27.117l-7.179 3.195-6.657 2.922-6.375 3.453-5.859 3.446-5.312 4-4.516 5.047-3.719 5.586-2.672 6.921-1.593 8.25-.532 9.829h-26.312l-.531-9.829z" fill="#ffd730"/><path d="m188.57 190.018-7.179 3.195-6.657 2.922-6.375 3.453-5.859 3.446-5.312 4-4.516 5.047-3.719 5.586-2.672 6.921-1.593 8.25-.532 9.829h-26.312l-.531-9.829-1.594-8.25-2.938-6.921-3.453-5.586-4.531-5.047-5.328-4-5.828-3.446-6.375-3.453-6.657-2.922-7.171-3.195v-27.117l7.171-3.195 6.657-3.711 6.375-3.719 5.828-4.555 5.328-5.031 4.531-5.609 3.453-6.618 2.938-7.453 1.594-8.781.531-9.836h26.312l.532 9.836 1.593 8.781 2.672 7.453 3.719 6.618 4.516 5.609 5.312 5.031 5.859 4.555 6.375 3.719 6.657 3.711 7.179 3.195z" fill="none" stroke="#040304" stroke-linecap="square" stroke-miterlimit="10" stroke-width="3.456"/><path d="m152.953 180.182-.828 1.328-1.312 1.328-1.344 1.063-1.586.789-1.602.805-1.843.257-1.875.266v1.602l-.532 1.593-.789 1.594-.804 1.328-1.313 1.344-1.344 1.063-1.328.796-1.859.797-1.61.258-2.125.274-1.843-.274-1.61-.258-1.867-.797-1.312-.796-1.602-1.063-1.062-1.344-.797-1.328-.797-1.594-.531-1.593v-1.602l-1.875-.266-1.844-.257-1.875-.805-1.328-.789-1.344-1.063-1.313-1.328-.796-1.328-.797-1.594-.532-1.593v-1.618-1.851l.532-1.594.797-1.594.796-1.328 1.313-1.32 1.344-1.07 1.328-.797 1.875-.531 1.844-.54 1.875-.273v-1.578l.531-1.594.797-1.601.797-1.344 1.062-1.313 1.602-1.054 1.312-.813 1.867-.789 1.61-.273 1.843-.266 2.125.266 1.61.273 1.859.789 1.328.813 1.344 1.054 1.313 1.313.804 1.344.789 1.601.532 1.594v1.578l1.875.273 1.843.54 1.602.531 1.586.797 1.344 1.07 1.312 1.32.828 1.328.781 1.594.532 1.594v1.851 1.618l-.532 1.593z" fill="#e8423f"/></g><path d="m190.65301 174.74999-9.031 2.141-9.047 3.188-8.508 3.977-7.977 4.531-7.172 5.57-6.133 6.133-5.313 6.896-3.719 7.461-2.398 7.969-1.063 8.766m-60.889004-56.632 9.313 2.141 9.047 3.188 8.5 3.977 7.984004 4.531 7.164 5.57 6.133 6.133 5.313 6.896 3.719 7.461 2.391 7.969.82 8.766m60.866-56.632-9.031-2.383-9.047-3.477-8.508-4.781-7.977-5.328-7.172-6.375-6.133-6.922-5.313-7.703-3.719-7.969-2.398-8.508-1.063-9.031m-60.889004 62.477 9.313-2.383 9.047-3.477 8.5-4.781 7.984004-5.328 7.164-6.375 6.133-6.922 5.313-7.703 3.719-7.969 2.391-8.508.82-9.031m11.945 50.508 1.875.273 1.836.531 1.602.523 1.594.797 1.344 1.086 1.313 1.313.82 1.328.789 1.586.523 1.594v1.859 1.609l-.523 1.594-.789 1.594-.82 1.328-1.313 1.328-1.344 1.063-1.594.797-1.602.797-1.836.266-1.875.266v1.594l-.531 1.594-.789 1.594-.805 1.328-1.328 1.344-1.344 1.063-1.313.797-1.859.797-1.609.266-2.125.266-1.844-.266-1.609-.266-1.859-.797-1.313-.797-1.602-1.063-1.063-1.344-.805-1.328-.797-1.594-.531-1.594v-1.594l-1.867-.266-1.836-.266-1.875-.797-1.328-.797-1.344-1.063-1.313-1.328-.797-1.328-.805-1.594-.523-1.594v-1.609-1.859l.523-1.594.805-1.586.797-1.328 1.313-1.313 1.344-1.086 1.328-.797 1.875-.523 1.836-.531 1.867-.273v-1.578l.531-1.594.797-1.594.805-1.344 1.063-1.313 1.602-1.063 1.313-.813 1.859-.789 1.609-.273 1.844-.266 2.125.266 1.609.273 1.859.789 1.313.813 1.344 1.063 1.328 1.313.805 1.344.789 1.594.531 1.594z" fill="none" stroke="#040304" stroke-linecap="square" stroke-miterlimit="10" stroke-width="3.456"/><g transform="translate(-.830994 -1.698013)"><path d="m155.609 82.323-.531-.797-.812-.805-1.078-.789-1.063-.539-1.062-.523-1.047-.266h-1.328-35.094-1.352l-1.07.266-1.047.523-1.062.539-1.079.789-.531.805-.781.797-.531 1.054-.282 1.071v1.328 1.062l.282 1.079.531 1.062.781.797.531 1.062 1.079.516 1.062.531 1.047.524 1.07.281h1.352 35.094 1.328l1.047-.281 1.062-.524 1.063-.531 1.078-.516.812-1.062.531-.797.532-1.062.25-1.079v-1.062-1.328l-.25-1.071z" fill="#ffd730"/><path d="m148.688 92.69h1.328l1.047-.281 1.062-.524 1.063-.531 1.078-.516.812-1.062.531-.797.532-1.062.25-1.079v-1.062-1.328l-.25-1.071-.532-1.054-.531-.797-.812-.805-1.078-.789-1.063-.539-1.062-.523-1.047-.266h-1.328-35.094-1.352l-1.07.266-1.047.523-1.062.539-1.079.789-.531.805-.781.797-.531 1.054-.282 1.071v1.328 1.062l.282 1.079.531 1.062.781.797.531 1.062 1.079.516 1.062.531 1.047.524 1.07.281h1.352z" fill="none" stroke="#040304" stroke-linecap="square" stroke-miterlimit="10" stroke-width="3.456"/><path d="m72.625 171.667-.797-1.329-1.047-1.062-1.328-1.063-1.609-.804-1.594-.789-1.594-.266-1.859-.273-1.859.273-1.875.266-1.594.789-1.328.804-1.328 1.063-1.063 1.062-1.062 1.329-.532 1.593-.531 1.594-.266 1.594.266 1.601.531 1.602.532 1.594 1.062 1.328 1.063 1.062 1.328 1.055 1.328.805 1.594.797 1.875.281 1.859.25-.281-.25h2.14l1.594-.281 1.594-.797 1.609-.805 1.328-1.055 1.047-1.062.797-1.328.813-1.594.265-1.602.266-1.601-.266-1.594-.265-1.594z" fill="#ffd730"/><path d="m62.516 186.573h2.14l1.594-.281 1.594-.797 1.609-.805 1.328-1.055 1.047-1.062.797-1.328.813-1.594.265-1.602.266-1.601-.266-1.594-.265-1.594-.813-1.593-.797-1.329-1.047-1.062-1.328-1.063-1.609-.804-1.594-.789-1.594-.266-1.859-.273-1.859.273-1.875.266-1.594.789-1.328.804-1.328 1.063-1.063 1.062-1.062 1.329-.532 1.593-.531 1.594-.266 1.594.266 1.601.531 1.602.532 1.594 1.062 1.328 1.063 1.062 1.328 1.055 1.328.805 1.594.797 1.875.281 1.859.25" fill="none" stroke="#040304" stroke-linecap="square" stroke-miterlimit="10" stroke-width="3.456"/><path d="m189.359 171.667.797-1.329 1.071-1.062 1.328-1.063 1.601-.804 1.594-.789 1.594-.266 1.859-.273 1.86.273 1.875.266 1.578.789 1.328.804 1.344 1.063 1.062 1.062 1.063 1.329.531 1.593.531 1.594.266 1.594-.266 1.601-.531 1.602-.531 1.594-1.063 1.328-1.062 1.062-1.344 1.055-1.328.805-1.578.797-1.875.281-1.86.25v-.25h-1.859l-1.594-.281-1.594-.797-1.601-.805-1.328-1.055-1.071-1.062-.797-1.328-.789-1.594-.273-1.602-.266-1.601.266-1.594.273-1.594z" fill="#ffd730"/><path d="m199.203 186.573h-1.859l-1.594-.281-1.594-.797-1.601-.805-1.328-1.055-1.071-1.062-.797-1.328-.789-1.594-.273-1.602-.266-1.601.266-1.594.273-1.594.789-1.593.797-1.329 1.071-1.062 1.328-1.063 1.601-.804 1.594-.789 1.594-.266 1.859-.273 1.86.273 1.875.266 1.578.789 1.328.804 1.344 1.063 1.062 1.062 1.063 1.329.531 1.593.531 1.594.266 1.594-.266 1.601-.531 1.602-.531 1.594-1.063 1.328-1.062 1.062-1.344 1.055-1.328.805-1.578.797-1.875.281-1.86.25" fill="none" stroke="#040304" stroke-linecap="square" stroke-miterlimit="10" stroke-width="3.456"/><path d="m106.672 104.932.531-.812.781-.782.813-.812 1.062-.531 1.063-.532 1.32-.265h1.352 34.812 1.36l1.297.265 1.062.532 1.063.531.828.812.781.782.531.812.531 1.063.282 1.054.25 1.313-.25 1.07-.282 1.063-.531 1.078-.531 1.062-.781.797-.828.547-1.063.773-1.062.282-1.297.258-1.36.281h-34.812l-.281-.281h-1.071l-1.32-.258-1.063-.282-1.062-.773-.813-.547-.781-.797-.531-1.062-.531-1.078-.282-1.063-.25-1.07.25-1.313.282-1.054z" fill="#ffd730"/><path d="m113.313 115.292h-1.071l-1.32-.258-1.063-.282-1.062-.773-.813-.547-.781-.797-.531-1.062-.531-1.078-.282-1.063-.25-1.07.25-1.313.282-1.054.531-1.063.531-.812.781-.782.813-.812 1.062-.531 1.063-.532 1.32-.265h1.352 34.812 1.36l1.297.265 1.062.532 1.063.531.828.812.781.782.531.812.531 1.063.282 1.054.25 1.313-.25 1.07-.282 1.063-.531 1.078-.531 1.062-.781.797-.828.547-1.063.773-1.062.282-1.297.258-1.36.281h-34.812" fill="none" stroke="#040304" stroke-linecap="square" stroke-miterlimit="10" stroke-width="3.456"/><path d="m136.172 236.807 1.344.813 1.312 1.062 1.344 1.054.797 1.328.812 1.603.25 1.593.282 1.594-.282 1.594-.25 1.586-.812 1.601-.797 1.344-1.344 1.055-1.312 1.07-1.344.781-1.578.804-1.86.274-1.875.282-1.593-.282-1.86-.274-1.593-.804-1.344-.781-1.313-1.07-1.343-1.055-.782-1.344-.812-1.601-.25-1.586-.281-1.594.281-1.594.25-1.593.812-1.603.782-1.328 1.343-1.054 1.313-1.062 1.344-.813 1.593-.789 1.86-.281 1.593-.242 1.875.242 1.86.281z" fill="#ffd730"/><path d="m119.688 245.854.281-1.594.25-1.593.812-1.603.782-1.328 1.343-1.054 1.313-1.062 1.344-.813 1.593-.789 1.86-.281 1.593-.242 1.875.242 1.86.281 1.578.789 1.344.813 1.312 1.062 1.344 1.054.797 1.328.812 1.603.25 1.593.282 1.594-.282 1.594-.25 1.586-.812 1.601-.797 1.344-1.344 1.055-1.312 1.07-1.344.781-1.578.804-1.86.274-1.875.282-1.593-.282-1.86-.274-1.593-.804-1.344-.781-1.313-1.07-1.343-1.055-.782-1.344-.812-1.601-.25-1.586z" fill="none" stroke="#040304" stroke-linecap="square" stroke-miterlimit="10" stroke-width="3.456"/><path d="m106.672 242.135.531.813.781.773.813.804 1.062.539 1.063.54 1.32.25h1.352 34.812 1.36l1.297-.25 1.062-.54 1.063-.539.828-.804.781-.773.531-.813.531-1.071.282-1.054.25-1.328-.25-1.062-.282-1.063-.531-1.062-.531-1.063-.781-.812-.828-.539-1.063-.774-1.062-.289-1.297-.242-1.36-.281h-34.812-.281l-1.071.281-1.32.242-1.063.289-1.062.774-.813.539-.781.812-.531 1.063-.531 1.062-.282 1.063-.25 1.062.25 1.328.282 1.054z" fill="#ffd730"/><path d="m113.313 231.495-1.071.281-1.32.242-1.063.289-1.062.774-.813.539-.781.812-.531 1.063-.531 1.062-.282 1.063-.25 1.062.25 1.328.282 1.054.531 1.071.531.813.781.773.813.804 1.062.539 1.063.54 1.32.25h1.352 34.812 1.36l1.297-.25 1.062-.54 1.063-.539.828-.804.781-.773.531-.813.531-1.071.282-1.054.25-1.328-.25-1.062-.282-1.063-.531-1.062-.531-1.063-.781-.812-.828-.539-1.063-.774-1.062-.289-1.297-.242-1.36-.281h-34.812" fill="none" stroke="#040304" stroke-linecap="square" stroke-miterlimit="10" stroke-width="3.456"/><path d="m67.047 154.12-1.063.531-1.062.812-.797.782-.531.804-.531 1.071-.266 1.062v1.313 31.914 1.328l.266 1.07.531 1.063.531.797.797.796 1.062.797 1.063.532 1.062.531 1.063.265h1.328 1.328l1.07-.265 1.329-.531.804-.532 1.063-.797.789-.796.539-.797.531-1.063.266-1.07v-1.328-31.914-.25-1.063l-.266-1.062-.531-1.071-.539-.804-.789-.782-1.063-.812-.804-.531-1.329-.532-1.07-.25h-1.328-1.328l-1.063.25z" fill="#ffd730"/><path d="m78.219 160.245v-1.063l-.266-1.062-.531-1.071-.539-.804-.789-.782-1.063-.812-.804-.531-1.329-.532-1.07-.25h-1.328-1.328l-1.063.25-1.062.532-1.063.531-1.062.812-.797.782-.531.804-.531 1.071-.266 1.062v1.313 31.914 1.328l.266 1.07.531 1.063.531.797.797.796 1.062.797 1.063.532 1.062.531 1.063.265h1.328 1.328l1.07-.265 1.329-.531.804-.532 1.063-.797.789-.796.539-.797.531-1.063.266-1.07v-1.328-31.914" fill="none" stroke="#040304" stroke-linecap="square" stroke-miterlimit="10" stroke-width="3.456"/><path d="m194.953 154.12 1.063.531 1.062.812.797.782.531.804.532 1.071.265 1.062v1.313 31.914 1.328l-.265 1.07-.532 1.063-.531.797-.797.796-1.062.797-1.063.532-1.07.531-1.07.265h-1.329-1.328l-1.047-.265-1.328-.531-.812-.532-1.063-.797-.797-.796-.531-.797-.531-1.063-.266-1.07v-1.328-31.914l-.265-.25.265-1.063.266-1.062.531-1.071.531-.804.797-.782 1.063-.812.812-.531 1.328-.532 1.047-.25h1.328 1.329l1.07.25z" fill="#ffd730"/><path d="m183.516 160.245.265-1.063.266-1.062.531-1.071.531-.804.797-.782 1.063-.812.812-.531 1.328-.532 1.047-.25h1.328 1.329l1.07.25 1.07.532 1.063.531 1.062.812.797.782.531.804.532 1.071.265 1.062v1.313 31.914 1.328l-.265 1.07-.532 1.063-.531.797-.797.796-1.062.797-1.063.532-1.07.531-1.07.265h-1.329-1.328l-1.047-.265-1.328-.531-.812-.532-1.063-.797-.797-.796-.531-.797-.531-1.063-.266-1.07v-1.328-31.914" fill="none" stroke="#040304" stroke-linecap="square" stroke-miterlimit="10" stroke-width="3.456"/><path d="m-152.598 185.495-1.066-.532-1.336-.796-1.055-.805-1.07-1.055-.785-.531-.543-.531-.258-.266-1.609-.531h-1.582l-1.328.258-1.063.539-1.34.789-1.062.804-.801.797-1.047 1.055-.816.805-.793.523v-.266-.257-.266l.273-.539.258-.523v-.805l.262-.524.273-.531.262-.531.531-.531 1.598-2.407 1.863-1.578 1.855-1.078 2.129-.515h2.137l2.121.265 1.871.25 1.582.539 1.328.539.801.25.274.539.527.789.801.813.793.797.797 1.062.273.797.258 1.055-.258.805-.809.796-1.589.789-.793.266h-.809z" fill="#e8423f"/><path d="m-151.008 177.51.274.539.527.789.801.813.793.797.797 1.062.273.797.258 1.055-.258.805-.809.796-1.589.789-.793.266h-.809l-1.055-.523-1.066-.532-1.336-.796-1.055-.805-1.07-1.055-.785-.531-.543-.531-.258-.266-1.609-.531h-1.582l-1.328.258-1.063.539-1.34.789-1.062.804-.801.797-1.047 1.055-.816.805-.793.523v-.266-.257-.266l.273-.539.258-.523v-.805l.262-.524.273-.531.262-.531.531-.531 1.598-2.407 1.863-1.578 1.855-1.078 2.129-.515h2.137l2.121.265 1.871.25 1.582.539 1.328.539z" fill="none" stroke="#040304" stroke-linecap="square" stroke-miterlimit="10" stroke-width="3.456"/><path d="m-61.656 215.542-.797-1.329-1.328-1.062-1.336-1.07-1.328-1.063-1.594-1.055-1.328-1.328-1.336-1.601v-.258l-.266-.531v-.266l-.254-.273v-.539-.25l.254-.54.266-.257v-.532l.535-.554 1.602.289 1.855.515 1.863.813 1.602.797 1.59 1.062 1.601 1.063 1.328 1.062 1.055 1.055.801.805.535.523v1.336 1.328 1.055 1.328l-.269 1.07-.532 1.344-.535 1.047-.789 1.078-1.074 1.063-1.328.781.273-2.922-.273-2.117z" fill="#e8423f"/><path d="m-56.336 211.018v1.336 1.328 1.055 1.328l-.269 1.07-.532 1.344-.535 1.047-.789 1.078-1.074 1.063-1.328.781.273-2.922-.273-2.117-.793-1.867-.797-1.329-1.328-1.062-1.336-1.07-1.328-1.063-1.594-1.055-1.328-1.328-1.336-1.601v-.258l-.266-.531v-.266l-.254-.273v-.539-.25l.254-.54.266-.257v-.532l.535-.554 1.602.289 1.855.515 1.863.813 1.602.797 1.59 1.062 1.601 1.063 1.328 1.062 1.055 1.055.801.805z" fill="none" stroke="#040304" stroke-linecap="square" stroke-miterlimit="10" stroke-width="3.456"/><path d="m-162.977 213.151-1.316 1.586-1.066 1.617-.801 1.844-.535 1.594-.52 1.585-.281 1.618-.262 1.054-.785-1.601-.816-1.313-.52-1.343-.527-1.313-.282-1.344-.253-1.07.253-1.328.282-1.328.785-1.328 1.078-1.329 1.047-1.062 1.066-1.055.797-.797.801-.531.793-.531.809-.531 1.054-.539 1.328-.258 1.328-.281h1.61v-.25h1.855 1.055l.281.25v.281l-.543.531-.527.531-.539.797-.527.797v1.063l.265 1.328-2.656.523-2.129.805z" fill="#e8423f"/><path d="m-157.91 204.917h1.855 1.055l.281.25v.281l-.543.531-.527.531-.539.797-.527.797v1.063l.265 1.328-2.656.523-2.129.805-1.602 1.328-1.316 1.586-1.066 1.617-.801 1.844-.535 1.594-.52 1.585-.281 1.618-.262 1.054-.785-1.601-.816-1.313-.52-1.343-.527-1.313-.282-1.344-.253-1.07.253-1.328.282-1.328.785-1.328 1.078-1.329 1.047-1.062 1.066-1.055.797-.797.801-.531.793-.531.809-.531 1.054-.539 1.328-.258 1.328-.281h1.61" fill="none" stroke="#040304" stroke-linecap="square" stroke-miterlimit="10" stroke-width="3.456"/><path d="m-133.992 254.104-1.328-.531-1.582-.539-1.328-.789-1.336-.556-1.075-.772-.789-.813-.539-.781v-.289l-.254-.524v-.789-.804-1.063l.254-1.062.539-.782.535-.812 1.055-.531 1.328-.274.282-.258h.519.266.269.274.254.265l.274.258h.261-.261l.535.555v1.062 1.054l.254 1.313v1.344l.273 1.602.801 1.594.793 1.328 1.328 1.328 1.863 1.312h-1.066l-1.328-.235z" fill="#e8423f"/><path d="m-136.109 242.393.535.555v1.062 1.054l.254 1.313v1.344l.273 1.602.801 1.594.793 1.328 1.328 1.328 1.863 1.312h-1.066l-1.328-.235-1.336-.546-1.328-.531-1.582-.539-1.328-.789-1.336-.556-1.075-.772-.789-.813-.539-.781v-.289l-.254-.524v-.789-.804-1.063l.254-1.062.539-.782.535-.812 1.055-.531 1.328-.274.282-.258h.519.266.269.274.254.265l.274.258h.261" fill="none" stroke="#040304" stroke-linecap="square" stroke-miterlimit="10" stroke-width="3.456"/><path d="m-95.168 197.721-.262.539v.266.523l.262.274.273.265.528.266.527.266 2.938-.797 2.918-.274 2.929-.257h2.664 2.657l2.918.257 2.656.539 2.664.532 2.93.531 2.664.531.519 1.078.266.774.269.804-.269.813v1.055l-.531.804-.254.797-.282.797-.261 1.063-.266.796-1.594 2.118-1.863 1.328-2.125.539h-2.129l-2.394-.539-2.391-.789-2.391-1.063-2.121-1.062-2.406-.532-2.121-.531-11.969-.797-.273-.273h-.262-.527l-.793.273-.543.266-.785.266-.536.265h-.539l-.261.258-3.985 2.391-3.465 2.398-3.191 2.93-2.918 2.929-2.664 2.922-2.129 3.446-2.129 3.461-1.848 3.734-1.609 3.719-1.855 3.984-.801.789-1.055.805-1.328.523-1.336.539-1.601.265-1.329.267h-1.589-1.329l-1.328-.267-1.07-.515-1.328-3.203v-3.187l.527-2.938 1.063-2.664 1.601-2.367 1.864-2.141 2.121-2.133 1.871-1.867 1.863-1.578 1.328-1.594 7.703-7.187-1.59-1.07-1.335-.524-1.329-.265h-1.328l-1.328.265-1.601.524-1.329.273-1.589.531-1.602.266h-1.855l-1.075.531-1.062.266-1.063.531-1.328.258-1.066.273-1.055.282-1.328.25h-1.336l-1.062.265h-1.329-.273-.266l-.527-.265h-.801l-.797-.25h-.527l-.539-.282h-.527l-.528-.273h-.535l-.535-.258-.258-.531-.273-.266v-.273l-.254-.258v-.266-.265l-.281-.539-.262-.789-.531-1.063-.536-1.062-.527-1.063-.527-1.328-.274-1.07.274-1.055.254-1.063.8-.812 3.731-.266 3.191.266 2.918.258 2.664.804 2.657.813 2.39.516 2.403.539h2.39l2.395-.258 2.398-.797.258-.531-.258-.532-.273-.265-.535-.289-.52-.258h-.535l-.535-.266h-.539-.254-.274l-1.863-1.328-2.129-1.328-1.863-1.328-2.121-1.328-1.864-1.594-2.128-1.594-1.864-1.601-1.59-1.867-1.601-1.86-1.328-2.109.265-1.078.543-1.063.793-.797.789-.797 1.075-.804.793-.789 1.062-.797 1.063-.797 1.066-.531.801-.797 5.054 1.054 1.856 2.399 1.328 2.391 1.602 2.125 1.328 2.39 1.855 1.86 1.871 2.14 2.121 1.594 2.391 1.328 3.191.789 3.731.539 1.328.266 1.324-.266h1.328l1.075-.539 1.054-.258 1.067-.531 1.062-.797.809-.531 1.054-.539 1.067-.789 44.133-46.813h.8 1.329 1.066l1.07.274 1.328.258 1.055.281.801.531.808.797.52 1.062.266 1.329h-.266l-3.457 5.039-3.711 4.789-4 4.523-4.258 4.258-4.246 4.516-4.265 4.257-3.981 4.258-3.992 4.516-3.723 4.531-3.457 4.781-.262.532-.273.531z" fill="#e8423f"/><path d="m-55.543 150.667-3.457 5.039-3.711 4.789-4 4.523-4.258 4.258-4.246 4.516-4.265 4.257-3.981 4.258-3.992 4.516-3.723 4.531-3.457 4.781-.262.532-.273.531v.523l-.262.539v.266.523l.262.274.273.265.528.266.527.266 2.938-.797 2.918-.274 2.929-.257h2.664 2.657l2.918.257 2.656.539 2.664.532 2.93.531 2.664.531.519 1.078.266.774.269.804-.269.813v1.055l-.531.804-.254.797-.282.797-.261 1.063-.266.796-1.594 2.118-1.863 1.328-2.125.539h-2.129l-2.394-.539-2.391-.789-2.391-1.063-2.121-1.062-2.406-.532-2.121-.531-11.969-.797-.273-.273h-.262-.527l-.793.273-.543.266-.785.266-.536.265h-.539l-.261.258-3.985 2.391-3.465 2.398-3.191 2.93-2.918 2.929-2.664 2.922-2.129 3.446-2.129 3.461-1.848 3.734-1.609 3.719-1.855 3.984-.801.789-1.055.805-1.328.523-1.336.539-1.601.265-1.329.267h-1.589-1.329l-1.328-.267-1.07-.515-1.328-3.203v-3.187l.527-2.938 1.063-2.664 1.601-2.367 1.864-2.141 2.121-2.133 1.871-1.867 1.863-1.578 1.328-1.594 7.703-7.187-1.59-1.07-1.335-.524-1.329-.265h-1.328l-1.328.265-1.601.524-1.329.273-1.589.531-1.602.266h-1.855l-1.075.531-1.062.266-1.063.531-1.328.258-1.066.273-1.055.282-1.328.25h-1.336l-1.062.265h-1.329-.273-.266l-.527-.265h-.801l-.797-.25h-.527l-.539-.282h-.527l-.528-.273h-.535l-.535-.258-.258-.531-.273-.266v-.273l-.254-.258v-.266-.265l-.281-.539-.262-.789-.531-1.063-.536-1.062-.527-1.063-.527-1.328-.274-1.07.274-1.055.254-1.063.8-.812 3.731-.266 3.191.266 2.918.258 2.664.804 2.657.813 2.39.516 2.403.539h2.39l2.395-.258 2.398-.797.258-.531-.258-.532-.273-.265-.535-.289-.52-.258h-.535l-.535-.266h-.539-.254-.274l-1.863-1.328-2.129-1.328-1.863-1.328-2.121-1.328-1.864-1.594-2.128-1.594-1.864-1.601-1.59-1.867-1.601-1.86-1.328-2.109.265-1.078.543-1.063.793-.797.789-.797 1.075-.804.793-.789 1.062-.797 1.063-.797 1.066-.531.801-.797 5.054 1.054 1.856 2.399 1.328 2.391 1.602 2.125 1.328 2.39 1.855 1.86 1.871 2.14 2.121 1.594 2.391 1.328 3.191.789 3.731.539 1.328.266 1.324-.266h1.328l1.075-.539 1.054-.258 1.067-.531 1.062-.797.809-.531 1.054-.539 1.067-.789 44.133-46.813h.8 1.329 1.066l1.07.274 1.328.258 1.055.281.801.531.808.797.52 1.062.266 1.329" fill="none" stroke="#040304" stroke-linecap="square" stroke-miterlimit="10" stroke-width="3.456"/><path d="m-61.383-105.15-4.801.266h-4.785l-4.781.261h-4.793l-4.512-.261-4.265-1.067-3.985-1.855-.797-.801-.793-.793-.273-1.328-.527-1.078v-1.063l-.262-1.328v-1.328l.262-1.066.265-1.055.262-1.062-1.055.535-.808.265-.793.528-.797.527-.801.816-.527.774-.539.555-.789.773-.539.801-.528.816-.269 1.055-.266 1.328-.266 1.328v1.066l.266 1.329.266 1.328.269 1.062.801 1.328.527 1.063.801.793 2.391 1.601 2.656.789 2.664.555h2.93 2.918l2.937-.273 2.91-.282 2.93-.261 2.664-.528h2.664l2.383-.273h2.395l2.39-.262h2.391 2.402 2.391l2.136.262h2.122l1.589.273 1.594.528 2.125.543 2.664 1.047 2.656 1.066 2.665 1.328 2.402 1.063 2.383 1.082 1.863.789 1.32.8 1.075.266-2.657-2.394-2.402-1.872-2.383-1.855-2.137-1.602-1.855-1.324-1.602-1.328-1.062-.793-1.063-.535-.527-.266-.266-.265-4.527-1.328-4.519-.797z" fill="#e8423f"/><path d="m-31.605-90.525-2.657-2.394-2.402-1.872-2.383-1.855-2.137-1.602-1.855-1.324-1.602-1.328-1.062-.793-1.063-.535-.527-.266-.266-.265-4.527-1.328-4.519-.797-4.778-.266-4.801.266h-4.785l-4.781.261h-4.793l-4.512-.261-4.265-1.067-3.985-1.855-.797-.801-.793-.793-.273-1.328-.527-1.078v-1.063l-.262-1.328v-1.328l.262-1.066.265-1.055.262-1.062-1.055.535-.808.265-.793.528-.797.527-.801.816-.527.774-.539.555-.789.773-.539.801-.528.816-.269 1.055-.266 1.328-.266 1.328v1.066l.266 1.329.266 1.328.269 1.062.801 1.328.527 1.063.801.793 2.391 1.601 2.656.789 2.664.555h2.93 2.918l2.937-.273 2.91-.282 2.93-.261 2.664-.528h2.664l2.383-.273h2.395l2.39-.262h2.391 2.402 2.391l2.136.262h2.122l1.589.273 1.594.528 2.125.543 2.664 1.047 2.656 1.066 2.665 1.328 2.402 1.063 2.383 1.082 1.863.789 1.32.8z" fill="none" stroke="#040304" stroke-linecap="square" stroke-miterlimit="10" stroke-width="3.192"/><path d="m25.824-103.822.817-.527.785-.801.801-.527.789-.801.808-.527.535-.801.524-.801.262-1.59-1.055.535-1.32.262-1.063.266-1.348-.266-1.062-.262-1.313-.273-1.07-.527-1.344-.528-1.066-.816-1.055-.512-.535-.273-.258-.278-.277-.265-.258-.246-.273-.266v-.289l-.254-.262v-.511-.282-.273l1.062-.262.793-.512 1.055-.554.809-.789.8-.793.801-.801.793-1.063.52-.8.824-.801.519-.528v-.265h-.273l-.527.265h-.786-.824-.781-.809-.785-.801-.535l-2.922-.535-2.406-1.066-1.594-1.328-1.316-1.59-.801-1.863-.547-1.868-.238-1.589v-1.602l-.281-1.055v-.273l-56.637-.535-5.586 10.375 50.793 49.73.535 1.59.785 1.594 1.063 1.59.816 1.609 1.055 1.602.785 1.855.817 1.59.777 1.863.543 1.594.269 1.855-1.871-.793-1.597-.261-2.121-.535-1.856-.266h-2.129-2.129l-2.129.266-2.117.261-1.883.801-1.84.801-11.175 7.183-6.383-2.39-6.375-.793-6.129 1.055-6.113 1.863-6.117 2.121-5.848 2.391-6.113 1.601-6.383.793-6.387-1.066-6.91-2.918-1.074-.801-.528-1.055-.527-1.066-.273-1.063-.254-1.343v-1.329l.254-1.062v-1.328l.273-1.067v-1.054l.527-1.067.801-.535.801-.527.535-.801.801-.262 1.055-.531.8-.535.793-.527.801-.266.789-.535-1.328-2.934-1.59-2.394-1.863-2.657-2.121-2.39-2.137-2.121-2.391-2.407-2.394-2.39-2.125-2.395-2.395-2.382-1.863-2.395-7.969-8.781-8.246-8.77-8.511-9.312-8.243-9.293-8.511-9.586-8.239-9.567-8.25-9.304-7.695-9.578-7.184-9.309-6.921-9.297-1.063.789-.801.801-.801 1.059-.527 1.062-.527 1.07-.528 1.328-.273 1.329-.535 1.066-.266 1.063-.527 1.328-1.598 7.449-.265 6.91 1.066 6.914 2.398 6.383 3.184 6.383 3.719 6.105 4.265 5.863 4.786 5.586 4.511 5.575 4.782 5.593 4.265 3.453 4.785 3.45 5.055 3.718 5.32 3.723 5.321 3.734 5.574 3.458 5.594 3.449 5.312 3.468 5.047 2.922 4.527 2.922.274.262.254.535.273.266.266.527.261.274.274.277.254.512.273.273v.527.528l-4.793-.262-6.648-2.922-7.711-3.719-8.238-4-9.051-4.511-9.039-4.52-9.305-4.785-8.504-5.055-8.246-4.519-7.176-4.516-5.855-4.246-1.067 3.449-.793 3.453-.535 3.45v3.722l.274 3.453.527 3.473 1.336 3.449 1.855 3.192 2.395 2.672 3.191 2.656 5.321 2.918 6.383 2.922 7.429 3.191 7.985 3.449 8.25 3.207 8.511 3.184 8.231 2.656 7.722 2.406 6.911 1.86 5.847 1.328-.261 1.062-6.114 1.063-7.176.531-7.718.535h-8.512l-8.516-.273-8.511-.262-8.504-.531-7.977-.535-7.437-.793-6.383-.797-.539 1.863-.528 1.59v1.855l.266 1.868.801 1.589.789 1.856.801 1.602 1.328 1.605 1.336 1.578 1.328 1.328 5.848 2.938 6.914 2.125 7.718 1.328 8.504.531 8.512-.266 8.504-.527 8.512-1.066 7.441-1.59 6.918-1.602 5.32-2.121h1.067l-.793 2.395-9.848 6.64-9.84 6.118-9.84 5.847-9.578 5.067-8.773 4.511-7.707 3.985-6.91 3.191-5.313 2.672-4 1.594-1.855.789.527 1.601.809 1.329.785 1.589.797 1.328 1.066 1.329 1.063 1.343 1.328 1.328 1.328 1.067 1.336.793 1.594 1.062 7.972.801 8.25-1.328 8.238-2.656 8.25-4.274 7.969-5.312 7.985-6.117 7.175-6.114 6.649-6.39 6.117-5.844 4.785-5.309h1.856l-.262 1.575-.258 1.609-.543 1.59-.527 1.601-.801 1.329-.793 1.589-.801 1.344-.801 1.578-1.062 1.328-1.055 1.328-10.633 14.641-10.113 13.559-9.039 11.976-8.246 10.352-7.441 9.32-6.391 7.438-5.051 6.125-3.711 4.507-2.656 2.93-1.078 1.328 2.125 1.61 2.394 1.328 2.664.789 2.657.273 2.926.266 2.921-.266 2.926-.273 2.656-.539 2.93-.516 2.656-.547 9.313-5.054 7.973-6.375 7.187-7.446 6.391-8.523 5.574-9.031 5.051-9.575 4.781-9.562 4.519-9.313 4.266-8.781 4.25-7.969 4.781-9.839 2.664.261-.527 6.121-4.52 13.571-4.527 13.543-4.519 13.574-4.524 13.555-4.789 13.562-5.051 13.297-5.047 13.297-5.32 13.031-5.582 13.016-5.848 13.047h1.59 1.864 1.601l1.594-.266 1.855-.266 1.598-.531 1.602-.281 1.589-.531 1.86-.532 1.597-.25 9.832-4.25 7.711-5.328 6.387-6.375 4.781-7.734 3.993-7.969 2.929-8.766 2.391-8.781 2.129-9.031 1.855-8.781 2.395-8.516 1.07-6.109 1.055-5.852 1.066-6.101 1.063-6.129 1.062-5.84 1.074-6.129.793-5.84 1.063-6.129 1.062-5.848 1.075-6.121.254-.261h.265l.274-.274.535-.262h.254.273.266.527.27.273l.52 8.52.265 7.703v7.449l-.265 7.192-.262 6.64-.531 6.903-.536 7.183-.8 7.18-.528 7.719-.8 8.234-1.856 18.883 5.051-1.867 4.519-2.391 3.993-2.922 3.984-3.453 3.461-3.453 2.93-3.984 2.664-4.274 2.129-4.508 1.839-4.523 1.344-4.523.535-6.911.528-5.863v-5.574l-.282-4.785-.246-4.778-.289-4.535-.527-5.039-.527-5.328-.536-5.848-.25-6.906v-.551l.25-.261.536-.532.527-.535.816-.262.778-.265.543-.266.8-.261.536-.274.246-.262h1.875l2.125 5.575 1.609 5.066 1.586 5.309 1.316 4.785 1.348 5.062 1.062 4.778 1.313 5.066 1.344 5.047 1.32 5.312 1.871 5.864-6.375 9.297-7.723 10.906-8.23 11.969-9.32 12.226-9.305 12.774-9.312 12.765-9.04 12.235-8.246 11.421-7.441 10.391-6.383 8.5 30.313-2.656.797 3.187.539 3.711.535 3.985.793 4.257.527 4.25.543 4.524.785 4.258.801 4 1.07 3.711 1.055 3.195 1.066-2.656 3.727-7.453 4.793-9.313 5.312-10.359 5.848-11.172 6.102-11.703 6.394-11.703 6.117-11.422 6.114-10.641 5.593-9.562 5.321-7.985v.266l3.445 25.508 2.938 22.632 1.312 19.938v17.805l-2.129 15.429-4.496 13.828-7.457 12.235-10.641 11.148-14.093 9.867-18.336 9.032-1.336 1.328-1.864.788-1.867 1.071-2.125.531-2.394.532-2.125.265h-1.867-1.856l-1.336-.531-1.055-.54-1.601-1.601-1.328-1.593-1.336-1.313-1.328-1.328-1.063-1.062-1.328-1.329-1.594-1.062-1.336-1.07-1.855-1.055-1.863-1.063-2.391-.554-2.129-.524h-2.129-2.129l-2.125.266-1.863.258-1.859.554-1.59.516-1.328.781-1.075.547-1.582 1.344-1.336 1.305-1.328 1.351-.808 1.305-.793 1.601-.535 1.61-.262 1.577v1.868l.262 1.867.535 2.117.273.821.52.781.535.813.801 1.062.8.781.528.813.808.797.52.507.266.282.269.273-.269-.797v-.821-.772-.813-.531l.269-.781.274-.813.253-.531.532-.781.543-.813.254-.25.8-.54.528-.539.539-.265.797-.539.531-.258h.797l.801-.265.8.265h.793 1.328l1.336.258 1.055.289 1.336.515 1.062.798 1.075.531.785 1.063.797 1.062.539 1.055.527 1.343.801 1.602 1.07 1.594 1.055 1.077 1.328 1.039 1.602.806 1.336.523 1.582.289 1.601.25 1.594.266h1.328l1.863.258h1.864 1.855 1.602l1.589-.258 1.594-.516 1.598-.555 1.328-.507 1.609-.813 1.848-.782 10.113-4.273 9.313-4.773 8.504-5.079 7.695-5.562 6.918-5.859 6.129-6.383 5.566-6.656 4.793-6.898 4.258-7.172 3.727-7.719h.519l.289.266.258.265v.531.797.532l-.258.796v.532l.258.531v.523l-.547 4.789-.781 4.266-1.066 4.516-1.063 4-1.336 4.25-1.601 3.984-1.848 3.734-2.121 3.969-2.406 3.719-2.383 3.734-.539 1.328v1.329l.265 1.343.52 1.054.824 1.071 1.047 1.063 1.328 1.062 1.066.774 1.344.82 1.055.781 1.848 1.344 1.601 1.328 1.336 1.054 1.32 1.071 1.344 1.063 1.313 1.328 1.07 1.062 1.594 1.328 1.336 1.594 1.863 1.875v.25h.269v-.25h.25v-.289h.274.262v-358.43l-.536-.554-.785-.774-.543-.816-.801-.512-.773-.816-.555-.801-.793-.527-.789-.801-.8-.793-1.063-.535.797-.793.793-.535z" fill="#040304"/><path d="m-10.344-192.365-.781-1.066-1.066-1.063-1.344-1.062-1.32-.539-1.336-.528-1.598-.535h-1.586-1.855l-1.602.535-1.344.528-1.312.539-1.344 1.062-1.055 1.063-.785 1.066-.543 1.328-.519 1.329v1.328 1.589l.519 1.329.543 1.07.785 1.328 1.055 1.066 1.344.801 1.312.797 1.344.524 1.602.269h1.855-.266 1.852l1.598-.269 1.336-.524 1.32-.797 1.344-.801 1.066-1.066.781-1.328.528-1.07.539-1.329v-1.589-1.328l-.539-1.329z" fill="#e8423f"/><path d="m-19.641-179.607h1.852l1.598-.269 1.336-.524 1.32-.797 1.344-.801 1.066-1.066.781-1.328.528-1.07.539-1.329v-1.589-1.328l-.539-1.329-.528-1.328-.781-1.066-1.066-1.063-1.344-1.062-1.32-.539-1.336-.528-1.598-.535h-1.586-1.855l-1.602.535-1.344.528-1.312.539-1.344 1.062-1.055 1.063-.785 1.066-.543 1.328-.519 1.329v1.328 1.589l.519 1.329.543 1.07.785 1.328 1.055 1.066 1.344.801 1.312.797 1.344.524 1.602.269h1.855" fill="none" stroke="#040304" stroke-linecap="square" stroke-miterlimit="10" stroke-width="3.192"/><path d="m-54.215-159.142-.265-.52-.528-.535-.535-.273-.793-.52-.535-.273h-.801-.789-.801-.539l-.789.273-.535.52-.801.273-.265.535-.52.52-.281.543-.254.785v.543.793l.254.535.281.535.52.532.265.535.801.527.535.266.789.269h.539.801.789.801l.535-.269.793-.266.535-.527.528-.535.265-.532.274-.535.261-.535v-.793-.543l-.261-.785z" fill="#e8423f"/><path d="m-58.461-153.279h.789.801l.535-.269.793-.266.535-.527.528-.535.265-.532.274-.535.261-.535v-.793-.543l-.261-.785-.274-.543-.265-.52-.528-.535-.535-.273-.793-.52-.535-.273h-.801-.789-.801-.539l-.789.273-.535.52-.801.273-.265.535-.52.52-.281.543-.254.785v.543.793l.254.535.281.535.52.532.265.535.801.527.535.266.789.269h.539z" fill="none" stroke="#040304" stroke-linecap="square" stroke-miterlimit="10" stroke-width="3.192"/><path d="m-49.688-166.31-.527-.535-.543-.528-.527-.265-.531-.535-.797-.266h-.539-.789-.793-.809l-.793.266-.535.535-.527.265-.536.528-.265.535-.262.519-.266.809v.52.808l.266.528.262.535.265.539.536.527.527.535.535.262.793.258h.809l.793.273-.274-.273h1.063.539l.797-.258.531-.262.527-.535.543-.527.527-.539.266-.535v-.528l.262-.808-.262-.52v-.809z" fill="#e8423f"/><path d="m-54.215-160.47h1.063.539l.797-.258.531-.262.527-.535.543-.527.527-.539.266-.535v-.528l.262-.808-.262-.52v-.809l-.266-.519-.527-.535-.543-.528-.527-.265-.531-.535-.797-.266h-.539-.789-.793-.809l-.793.266-.535.535-.527.265-.536.528-.265.535-.262.519-.266.809v.52.808l.266.528.262.535.265.539.536.527.527.535.535.262.793.258h.809l.793.273" fill="none" stroke="#040304" stroke-linecap="square" stroke-miterlimit="10" stroke-width="3.192"/><path d="m-42.773-171.892-.266-.539-.535-.527-.528-.536-.539-.265-.797-.262h-.785l-.808-.273-.801.273h-.527l-.801.262-.528.265-.527.536-.543.527-.527.539-.258.527v.535l-.273.793.273.536v.8l.258.528.527.535.543.519.527.274.528.535h.801l.527.266h.801.808l.785-.266h.797l.539-.535.528-.274.535-.519.266-.535.261-.528.274-.8v-.536-.793l-.274-.535z" fill="#e8423f"/><path d="m-47.031-166.044h.808l.785-.266h.797l.539-.535.528-.274.535-.519.266-.535.261-.528.274-.8v-.536-.793l-.274-.535-.261-.527-.266-.539-.535-.527-.528-.536-.539-.265-.797-.262h-.785l-.808-.273-.801.273h-.527l-.801.262-.528.265-.527.536-.543.527-.527.539-.258.527v.535l-.273.793.273.536v.8l.258.528.527.535.543.519.527.274.528.535h.801l.527.266z" fill="none" stroke="#040304" stroke-linecap="square" stroke-miterlimit="10" stroke-width="3.192"/><path d="m-34-175.884-.262-.532-.547-.261-.519-.528-.535-.281-.801-.258-.789-.269h-.793-.801l-.527.269-.809.258-.519.281-.551.528-.524.261-.535.532-.261.797v.531l-.266.535.266.793v.535l.261.801.535.527.524.262.551.539.519.262.809.265.527.27h.801v-.27l.793.27.789-.27.801-.265.535-.262.519-.539.547-.262.262-.527.273-.801.254-.535v-.793-.535l-.254-.531z" fill="#e8423f"/><path d="m-38.246-170.037.793.27.789-.27.801-.265.535-.262.519-.539.547-.262.262-.527.273-.801.254-.535v-.793-.535l-.254-.531-.273-.797-.262-.532-.547-.261-.519-.528-.535-.281-.801-.258-.789-.269h-.793-.801l-.527.269-.809.258-.519.281-.551.528-.524.261-.535.532-.261.797v.531l-.266.535.266.793v.535l.261.801.535.527.524.262.551.539.519.262.809.265.527.27h.801" fill="none" stroke="#040304" stroke-linecap="square" stroke-miterlimit="10" stroke-width="3.192"/><path d="m-15.137-178.271-.519-.543-.535-.519-.528-.274-.527-.535h-.801l-.519-.258h-.809-.801l-.808.258h-.528l-.781.535-.539.274-.527.519-.282.543-.246.527-.289.793v.535.793l.289.536.246.531.282.535.527.527.539.536.781.265.528.262h.808l.801.265-.266-.265h1.075.777l.543-.262.801-.265.535-.536.535-.527.238-.535.282-.531.265-.536v-.793l-.265-.535v-.793z" fill="#e8423f"/><path d="m-19.641-172.431h1.075.777l.543-.262.801-.265.535-.536.535-.527.238-.535.282-.531.265-.536v-.793l-.265-.535v-.793l-.282-.527-.519-.543-.535-.519-.528-.274-.527-.535h-.801l-.519-.258h-.809-.801l-.808.258h-.528l-.781.535-.539.274-.527.519-.282.543-.246.527-.289.793v.535.793l.289.536.246.531.282.535.527.527.539.536.781.265.528.262h.808l.801.265" fill="none" stroke="#040304" stroke-linecap="square" stroke-miterlimit="10" stroke-width="3.192"/><path d="m-5.551-177.486-.265-.527-.528-.528-.527-.531-.817-.261-.527-.274h-.785l-.816-.269-.774.269h-.816l-.528.274-.785.261-.527.531-.289.528-.528.527-.25.535-.277.535v.793.536l.277.793.25.535.528.531.289.535.527.262.785.539h.528l.816.262h.774.816l.785-.262h.527l.817-.539.527-.262.528-.535.265-.531.274-.535.261-.793v-.536-.793l-.261-.535z" fill="#e8423f"/><path d="m-9.816-171.63h.816l.785-.262h.527l.817-.539.527-.262.528-.535.265-.531.274-.535.261-.793v-.536-.793l-.261-.535-.274-.535-.265-.527-.528-.528-.527-.531-.817-.261-.527-.274h-.785l-.816-.269-.774.269h-.816l-.528.274-.785.261-.527.531-.289.528-.528.527-.25.535-.277.535v.793.536l.277.793.25.535.528.531.289.535.527.262.785.539h.528l.816.262z" fill="none" stroke="#040304" stroke-linecap="square" stroke-miterlimit="10" stroke-width="3.192"/><path d="m-24.703-177.744-.246-.527-.539-.543-.528-.258-.527-.535h-.816l-.793-.269h-.797-.785l-.543.269h-.809l-.519.535-.547.258-.528.543-.535.527-.258.539v.789l-.254.532.254.797v.531l.258.535.535.527.528.536.547.527.519.265.809.274h.543l.785.262v-.262h.797.793l.816-.274.527-.265.528-.527.539-.536.246-.527.281-.535.246-.531v-.797-.532l-.246-.789z" fill="#e8423f"/><path d="m-28.949-171.892h.797.793l.816-.274.527-.265.528-.527.539-.536.246-.527.281-.535.246-.531v-.797-.532l-.246-.789-.281-.539-.246-.527-.539-.543-.528-.258-.527-.535h-.816l-.793-.269h-.797-.785l-.543.269h-.809l-.519.535-.547.258-.528.543-.535.527-.258.539v.789l-.254.532.254.797v.531l.258.535.535.527.528.536.547.527.519.265.809.274h.543l.785.262" fill="none" stroke="#040304" stroke-linecap="square" stroke-miterlimit="10" stroke-width="3.192"/><path d="m3.77-175.349-.536-.535-.281-.532-.519-.261-.793-.528-.528-.281h-.816-.793-.797-.793l-.535.281-.809.528-.519.261-.547.532-.254.535-.266.527-.261.528v.8.536l.261.792.266.536.254.527.547.539.519.262.809.535.535.266h.793.797.793.816l.528-.266.793-.535.519-.262.281-.539.536-.527.246-.536.281-.792v-.536-.8l-.281-.528z" fill="#e8423f"/><path d="m-.496-169.501h.793.816l.528-.266.793-.535.519-.262.281-.539.536-.527.246-.536.281-.792v-.536-.8l-.281-.528-.246-.527-.536-.535-.281-.532-.519-.261-.793-.528-.528-.281h-.816-.793-.797-.793l-.535.281-.809.528-.519.261-.547.532-.254.535-.266.527-.261.528v.8.536l.261.792.266.536.254.527.547.539.519.262.809.535.535.266h.793z" fill="none" stroke="#040304" stroke-linecap="square" stroke-miterlimit="10" stroke-width="3.192"/><path d="m12.281-171.63-.527-.536-.543-.527-.539-.265-.527-.27-.801-.266-.543-.265h-.785-.805l-.777.265-.825.266-.519.27-.543.265-.531.527-.246.536-.282.527-.254.801v.535.793l.254.535.282.531.246.535.531.528.543.535.519.266.825.253.777.274h.805l-.278-.274 1.063.274.543-.274.801-.253.527-.266.539-.535.543-.528.527-.535.246-.531v-.535l.274-.793-.274-.535v-.801z" fill="#e8423f"/><path d="m7.738-165.791 1.063.274.543-.274.801-.253.527-.266.539-.535.543-.528.527-.535.246-.531v-.535l.274-.793-.274-.535v-.801l-.246-.527-.527-.536-.543-.527-.539-.265-.527-.27-.801-.266-.543-.265h-.785-.805l-.777.265-.825.266-.519.27-.543.265-.531.527-.246.536-.282.527-.254.801v.535.793l.254.535.282.531.246.535.531.528.543.535.519.266.825.253.777.274h.805" fill="none" stroke="#040304" stroke-linecap="square" stroke-miterlimit="10" stroke-width="3.192"/><path d="m19.184-166.044-.528-.528-.535-.273-.527-.528-.528-.265-.816-.27-.527-.265h-.785-.817l-.777.265-.817.27-.527.265-.535.528-.527.273-.266.528-.262.796-.265.532v.797.527l.265.539.262.801.266.527.527.262.535.535.527.258.817.273.777.27h.817-.282 1.067l.527-.27.816-.273.528-.258.527-.535.535-.262.528-.527.265-.801v-.539l.258-.527-.258-.797v-.532z" fill="#e8423f"/><path d="m14.656-159.927h1.067l.527-.27.816-.273.528-.258.527-.535.535-.262.528-.527.265-.801v-.539l.258-.527-.258-.797v-.532l-.265-.796-.528-.528-.535-.273-.527-.528-.528-.265-.816-.27-.527-.265h-.785-.817l-.777.265-.817.27-.527.265-.535.528-.527.273-.266.528-.262.796-.265.532v.797.527l.265.539.262.801.266.527.527.262.535.535.527.258.817.273.777.27h.817" fill="none" stroke="#040304" stroke-linecap="square" stroke-miterlimit="10" stroke-width="3.192"/><path d="m22.914-158.599-.273-.543-.528-.52-.543-.265-.785-.543-.535-.258h-.801-.793-.808-.535l-.786.258-.543.543-.519.265-.527.52-.528.543-.289.527-.258.539v.789.539l.258.797.289.532.528.535.527.527.519.266.543.535.786.262h.535.808.793.801l.535-.262.785-.535.543-.266.528-.527.273-.535.246-.532.289-.797v-.539-.789l-.289-.539z" fill="#e8423f"/><path d="m18.656-152.751h.793.801l.535-.262.785-.535.543-.266.528-.527.273-.535.246-.532.289-.797v-.539-.789l-.289-.539-.246-.527-.273-.543-.528-.52-.543-.265-.785-.543-.535-.258h-.801-.793-.808-.535l-.786.258-.543.543-.519.265-.527.52-.528.543-.289.527-.258.539v.789.539l.258.797.289.532.528.535.527.527.519.266.543.535.786.262h.535z" fill="none" stroke="#040304" stroke-linecap="square" stroke-miterlimit="10" stroke-width="3.192"/><path d="m14.656-152.751v.265l-.793 2.129v.535l-.269.266-.25.527-.278.27-.539.265-.246.266-.527.262h-.543l-.539.273h-.527-.52l-.535-.273-.535-.262-.539-.266-.528-.265-.277-.27-.539-.527-.238-.531v-.536-.535-.265-.262-.266-.261h.238v-.274-.265h.281v-.262l.535-1.863-.816-1.868-1.313-1.855-1.871-1.598-2.129-1.328-2.652-1.328-3.203-1.066-3.438-.797-3.722-.532-4-.543h-4.254-4.266l-3.976.543-3.719.532-3.184.797-3.191 1.066-2.656 1.328-2.411 1.328-1.855 1.598-1.055 1.855-.808 1.868.265 1.863.262.262v.265l.281.274v.261l.254.266v.262.265.535l-.254.536-.281.531-.262.527-.265.27-.528.265-.535.266-.539.262-.527.273h-.797-.531l-.535-.273h-.52l-.273-.262-.536-.266-.261-.265-.266-.27-.527-.527v-.266l-.274-.535-.535-2.129v-.265l-.265-.262v-.266-.269l.539-2.93 1.328-2.922 2.125-2.652 2.656-2.664 3.457-2.129 3.992-1.856 4.52-1.601 5.054-1.063 5.321-.801 5.578-.265h.269.266-.266l5.578.265 5.313.801 4.801 1.063 4.519 1.601 3.977 1.856 3.469 2.129 2.922 2.664 2.128 2.652 1.055 2.922.535 2.93v.269.266z" fill="#e8423f"/><path d="m-19.641-172.431 5.578.265 5.313.801 4.801 1.063 4.519 1.601 3.977 1.856 3.469 2.129 2.922 2.664 2.128 2.652 1.055 2.922.535 2.93v.269.266.262.265l-.793 2.129v.535l-.269.266-.25.527-.278.27-.539.265-.246.266-.527.262h-.543l-.539.273h-.527-.52l-.535-.273-.535-.262-.539-.266-.528-.265-.277-.27-.539-.527-.238-.531v-.536-.535-.265-.262-.266-.261h.238v-.274-.265h.281v-.262l.535-1.863-.816-1.868-1.313-1.855-1.871-1.598-2.129-1.328-2.652-1.328-3.203-1.066-3.438-.797-3.722-.532-4-.543h-4.254-4.266l-3.976.543-3.719.532-3.184.797-3.191 1.066-2.656 1.328-2.411 1.328-1.855 1.598-1.055 1.855-.808 1.868.265 1.863.262.262v.265l.281.274v.261l.254.266v.262.265.535l-.254.536-.281.531-.262.527-.265.27-.528.265-.535.266-.539.262-.527.273h-.797-.531l-.535-.273h-.52l-.273-.262-.536-.266-.261-.265-.266-.27-.527-.527v-.266l-.274-.535-.535-2.129v-.265l-.265-.262v-.266-.269l.539-2.93 1.328-2.922 2.125-2.652 2.656-2.664 3.457-2.129 3.992-1.856 4.52-1.601 5.054-1.063 5.321-.801 5.578-.265h.269.266" fill="none" stroke="#040304" stroke-linecap="square" stroke-miterlimit="10" stroke-width="3.192"/><path d="m14.938-146.103-.282-.262-.535-.535-.527-.266-.528-.265-.785-.262h-.527l-.816-.273h-59.825l-.801.273h-.527l-.808.262-.52.265-.543.266-.266.535-.527.262-.273.539v.527l-.254.536.254.527v.535l.273.531.527.528.266.261.543.536.52.273.808.266h.527.801 59.825.816.527l.785-.266.528-.273.527-.536.535-.261.282-.528.246-.531.281-.535v-.527-.536l-.281-.527z" fill="#e8423f"/><path d="m10.938-141.044h.816.527l.785-.266.528-.273.527-.536.535-.261.282-.528.246-.531.281-.535v-.527-.536l-.281-.527-.246-.539-.282-.262-.535-.535-.527-.266-.528-.265-.785-.262h-.527l-.816-.273h-59.825l-.801.273h-.527l-.808.262-.52.265-.543.266-.266.535-.527.262-.273.539v.527l-.254.536.254.527v.535l.273.531.527.528.266.261.543.536.52.273.808.266h.527.801z" fill="none" stroke="#040304" stroke-linecap="square" stroke-miterlimit="10" stroke-width="3.192"/><path d="m11.754-139.189-.289-.527-.527-.266-.266-.535-.527-.274h-.801l-.543-.253h-.52-54.785-.527l-.801.253h-.527l-.528.274-.273.535-.528.266-.269.527-.258.535-.273.52v.543.527l.273.539.258.527.269.27.528.531.273.262.528.273.527.262h.801l.527.258h54.785l-.265-.258h.785.543l.801-.262.527-.273.266-.262.527-.531.289-.27.246-.527.281-.539v-.527-.543l-.281-.52z" fill="#e8423f"/><path d="m8.016-134.4h.785.543l.801-.262.527-.273.266-.262.527-.531.289-.27.246-.527.281-.539v-.527-.543l-.281-.52-.246-.535-.289-.527-.527-.266-.266-.535-.527-.274h-.801l-.543-.253h-.52-54.785-.527l-.801.253h-.527l-.528.274-.273.535-.528.266-.269.527-.258.535-.273.52v.543.527l.273.539.258.527.269.27.528.531.273.262.528.273.527.262h.801l.527.258h54.785" fill="none" stroke="#040304" stroke-linecap="square" stroke-miterlimit="10" stroke-width="3.192"/><path d="m-23.641-166.31.532.519.543.543.519.266.535.266.809.254.527.281h.801.809l.777-.281.543-.254.801-.266.535-.266.535-.543.238-.519.282-.535.265-.793v-.535-.801l-.265-.527-.282-.536-.238-.527-.535-.539-.535-.527-.801-.262-.543-.274h-.777l-.809-.265h-.266-.269l-.535.265h-.539l-.782.274-.527.527-.539.262-.527.539-.282.527-.246.536v.527l-.289.801.289.535v.793z" fill="#e8423f"/><path d="m-19.91-172.431-.535.265h-.539l-.782.274-.527.527-.539.262-.527.539-.282.527-.246.536v.527l-.289.801.289.535v.793l.246.535.532.519.543.543.519.266.535.266.809.254.527.281h.801.809l.777-.281.543-.254.801-.266.535-.266.535-.543.238-.519.282-.535.265-.793v-.535-.801l-.265-.527-.282-.536-.238-.527-.535-.539-.535-.527-.801-.262-.543-.274h-.777l-.809-.265h-.266" fill="none" stroke="#040304" stroke-linecap="square" stroke-miterlimit="10" stroke-width="3.192"/><path d="m-14.855-162.052-.52-.539-.535-.535-.535-.266-.539-.262-.805-.265-.524-.262h-.796-.801l-.793.262-.809.265-.535.262-.519.266-.543.535-.25.539-.282.527-.246.797v.531.797l.246.531.282.536.25.519.543.543.519.527.535.266.809.273h.793l.801.262-.266-.262h1.062.524l.805-.273.539-.266.535-.527.535-.543.52-.519.265-.536v-.531l.277-.797-.277-.531v-.797z" fill="#e8423f"/><path d="m-19.375-156.205h1.062.524l.805-.273.539-.266.535-.527.535-.543.52-.519.265-.536v-.531l.277-.797-.277-.531v-.797l-.265-.527-.52-.539-.535-.535-.535-.266-.539-.262-.805-.265-.524-.262h-.796-.801l-.793.262-.809.265-.535.262-.519.266-.543.535-.25.539-.282.527-.246.797v.531.797l.246.531.282.536.25.519.543.543.519.527.535.266.809.273h.793l.801.262" fill="none" stroke="#040304" stroke-linecap="square" stroke-miterlimit="10" stroke-width="3.192"/><path d="m-15.375-153.814-.281-.527-.535-.535-.528-.274-.527-.527-.801-.266h-.808-.52-.801-.808l-.782.266-.527.527-.539.274-.527.535-.282.527-.246.535-.289.528v.8.528l.289.8.246.536.282.531.527.527.539.27.527.531.782.262h.808.801-.266 1.075.777l.543-.262.801-.531.535-.27.254-.527.519-.531.282-.536v-.8-.528-.8-.528z" fill="#e8423f"/><path d="m-19.641-147.966h1.075.777l.543-.262.801-.531.535-.27.254-.527.519-.531.282-.536v-.8-.528-.8-.528l-.52-.535-.281-.527-.535-.535-.528-.274-.527-.527-.801-.266h-.808-.52-.801-.808l-.782.266-.527.527-.539.274-.527.535-.282.527-.246.535-.289.528v.8.528l.289.8.246.536.282.531.527.527.539.27.527.531.782.262h.808.801" fill="none" stroke="#040304" stroke-linecap="square" stroke-miterlimit="10" stroke-width="3.192"/><path d="m-78.406-110.99-.801.528-.527.527-.536.801-.273.801-.52.527-.535.801-.539.793-1.062-.793-1.063-.536-.793-.792-.535-1.067-.793-1.062-.273-1.063-.254-1.066-.281-1.055v-1.344-1.047l.281-1.082.254-1.054.531-1.063.535-.801.535-1.066.793-.797.801-.801.789-.793 1.074-.535 1.055-.265 1.863-1.063 2.137-.266h1.855l2.137.528 1.848.265 1.863.536h2.129 1.594l1.597-.801 1.594-1.063.543-1.593 1.055-1.063 1.328-.535 1.602-.266h1.589l1.594.266 1.336.269.793.266.801.266 2.926 2.39 11.695 10.895 3.191 2.945 2.93 2.918 3.184 3.188 2.656 2.918 2.937 3.191 2.657 3.184 2.918 3.211 2.656 3.183 2.945 3.453 2.902 3.449 3.473 4.536 3.449 5.839-6.105-2.652-6.129-2.656-6.109-2.395-6.379-2.121-6.664-2.14-6.637-1.594-6.649-1.063-6.914-1.066-6.91-.262h-7.183l.543-.793.785-.801.797-.527.8-.816 1.067-.512 1.07-.535.793-.281 1.055-.52.808-.543.528-.512h1.062l1.074-.273 1.055-.281 1.067-.262 1.062-.266.793-.246 1.063-.281h1.066l.797-.273 1.066-.262.535.262 1.59.554 2.129.774 2.938.8 2.91.809 3.183 1.063 2.657.785 2.136.816 1.594.266.535.261-16.215-14.093-2.402-1.328-2.918-1.067-2.664-1.054-2.922-.536-3.191-.793-3.184-.535-3.465-.531-3.457-.262-3.726-.273-3.719-.262h-1.066l-.797.262z" fill="#e8423f"/><path d="m-44.102-104.884-2.402-1.328-2.918-1.067-2.664-1.054-2.922-.536-3.191-.793-3.184-.535-3.465-.531-3.457-.262-3.726-.273-3.719-.262h-1.066l-.797.262-.793.273-.801.528-.527.527-.536.801-.273.801-.52.527-.535.801-.539.793-1.062-.793-1.063-.536-.793-.792-.535-1.067-.793-1.062-.273-1.063-.254-1.066-.281-1.055v-1.344-1.047l.281-1.082.254-1.054.531-1.063.535-.801.535-1.066.793-.797.801-.801.789-.793 1.074-.535 1.055-.265 1.863-1.063 2.137-.266h1.855l2.137.528 1.848.265 1.863.536h2.129 1.594l1.597-.801 1.594-1.063.543-1.593 1.055-1.063 1.328-.535 1.602-.266h1.589l1.594.266 1.336.269.793.266.801.266 2.926 2.39 11.695 10.895 3.191 2.945 2.93 2.918 3.184 3.188 2.656 2.918 2.937 3.191 2.657 3.184 2.918 3.211 2.656 3.183 2.945 3.453 2.902 3.449 3.473 4.536 3.449 5.839-6.105-2.652-6.129-2.656-6.109-2.395-6.379-2.121-6.664-2.14-6.637-1.594-6.649-1.063-6.914-1.066-6.91-.262h-7.183l.543-.793.785-.801.797-.527.8-.816 1.067-.512 1.07-.535.793-.281 1.055-.52.808-.543.528-.512h1.062l1.074-.273 1.055-.281 1.067-.262 1.062-.266.793-.246 1.063-.281h1.066l.797-.273 1.066-.262.535.262 1.59.554 2.129.774 2.938.8 2.91.809 3.183 1.063 2.657.785 2.136.816 1.594.266.535.261z" fill="none" stroke="#040304" stroke-linecap="square" stroke-miterlimit="10" stroke-width="3.192"/><path d="m-15.375-123.767-.535-.262-.535-.527-.801-.274-.801-.265-.808-.262-.786-.266h-1.062-1.063l-.8.266-.793.262-.817.265-.773.274-.539.527-.528.262-.277.539-.25.527v.535.528l.25.535.277.531.528.535.539.262.773.266.817.273.793.262.8.266h1.063v-.266l1.062.266.786-.266.808-.262.801-.273.801-.266.535-.262.535-.535.238-.531.282-.535v-.528-.535l-.282-.527z" fill="#fff"/><path d="m-20.445-124.029-.258-.265-.281-.262-.528-.274-.254-.265h-.527l-.273-.262h-.543-.532l-.246.262h-.535l-.281.265-.527.274-.258.262-.278.265v.262l-.25.539v.262.535l.25.265v.528l.278.273.258.262.527.266.281.265h.535.246l.532.27v-.27h.543.273.527l.254-.265.528-.266.281-.262.258-.273v-.528l.269-.265v-.535-.262l-.269-.539z" fill="#040304"/><path d="m-17.512-127.22-3.472.535-3.192.527-2.91.801-2.648.527-2.137.536h-1.856l-1.328-.262-.808-1.067v-.8l.265-.797.27-.531.519-.536.547-.527.535-.266.512-.269.535-.266h.809l.527-.261-1.871 2.656v.797l.817.265h1.312l2.137-.265 2.656-.528 2.934-.535 3.183-.527 3.457-.274 3.473.274 3.183.527h-3.726z" fill="#fff"/></g><path d="m30.435007-205.95302h233.98399v470.04721h-233.98399z" fill="#e8423f"/><path d="m-203.54199-205.95302h233.98399v470.04721h-233.98399z" fill="#ffd730"/><path d="m-55.619994 135.03899-54.577996 57.102s-3.785 3.227-12.023 2.852c-9.969-.445-15.258-10.461-19.359-17.258-1.578-.445-4.945-1.117-4.945-1.117l-7.016 5.258s-2.16 1.906-.91 4.078c1.254 2.188 14.91 14.969 20.207 15.375 2.445.188.422 1.828-.16 2.063-6 2-15.777-1.922-15.777-1.922s-.727-.156-6.52-.672c-5.793-.5-4.91 3.375-4.91 3.375s2.23 6.359 3.797 8.391c3.531 4.578 26.258-2.852 26.258-2.852s4.727-.75 6.055 1.891c-8.941 7.82-14.992 13.539-17.816 17.766-4.781 7.688-2.07 11.891-1.047 12.625 1.887 1.57 9.473 1.806 13.129-2.016 2.086-2.18 4.391-11.102 10.512-19.328 4.574-6.164 12.535-12.195 17.367-13.508 10.456996-2.813 25.745996 4.789 25.745996 4.789s7.469 2.898 10.758-5.523c.887-2.281 1.098-4.203 1.098-4.203l-1.008-2.688s-18.688-4.461-26.504-1.344c-3.066 1.234-3.402-1.406-2.539-3 1.305-2.375 5.977-8.438 12.809-15.844 12.762-13.813 30.73-32.234 31.855-39.719-4.186-2.376-4.479-4.571-4.479-4.571" fill="#e8423f"/><path d="m-55.619994 135.03899-54.577996 57.102s-3.785 3.227-12.023 2.852c-9.969-.445-15.258-10.461-19.359-17.258-1.578-.445-4.945-1.117-4.945-1.117l-7.016 5.258s-2.16 1.906-.91 4.078c1.254 2.188 14.91 14.969 20.207 15.375 2.445.188.422 1.828-.16 2.063-6 2-15.777-1.922-15.777-1.922s-.727-.156-6.52-.672c-5.793-.5-4.91 3.375-4.91 3.375s2.23 6.359 3.797 8.391c3.531 4.578 26.258-2.852 26.258-2.852s4.727-.75 6.055 1.891c-8.941 7.82-14.992 13.539-17.816 17.766-4.781 7.688-1.957 11.625-1.047 12.625 1.887 1.57 9.473 1.806 13.129-2.016 2.086-2.18 4.391-11.102 10.512-19.328 4.574-6.164 12.535-12.195 17.367-13.508 10.456996-2.813 25.745996 4.789 25.745996 4.789s7.469 2.898 10.758-5.523c.887-2.281 1.098-4.203 1.098-4.203l-1.008-2.688s-18.688-4.461-26.504-1.344c-3.066 1.234-3.402-1.406-2.539-3 1.305-2.375 5.977-8.438 12.809-15.844 12.762-13.813 30.73-32.234 31.855-39.719-4.186-2.376-4.479-4.571-4.479-4.571z" fill="none" stroke="#010202" stroke-width="3.552"/><path d="m-94.006994-120.35201c-1.742 10.063 1.273 10.879 4.977 12.832 4.121 2.199 31.945.359 37.391.832 5.441.457 20.945 14.343997 20.945 14.343997s-12.727-7.047-20.137-8.214997c-10.773-1.672-26.855-.113-37.621 1.167997-10.762 1.262-13.433996-8.128997-13.433996-8.128997s-1.617-9.144 7.878996-12.832" fill="#e8423f"/><path d="m-94.006994-120.35201c-1.742 10.063 1.273 10.879 4.977 12.832 4.121 2.199 31.945.359 37.391.832 5.441.457 20.945 14.343997 20.945 14.343997s-12.727-7.047-20.137-8.214997c-10.773-1.672-26.855-.113-37.621 1.167997-10.762 1.262-13.433996-8.128997-13.433996-8.128997s-1.617-9.144 7.878996-12.832z" fill="none" stroke="#010202" stroke-width="3.552"/><path d="m30.314006-96.735013s-6.664-6.968997-7.449-6.921997c4.504-3.672 7.891-5.801 7.449-8.23-2.504 2.145-12.902-.375-13.551-5.066 2.734-1.109 2.031-.422 7.977-6.91-18.1680001 2.238-16.2270001-12.77-16.2270001-12.77l-56.6369999-.527-5.586 10.375 50.7929999 49.722997s7.582 12.984 7.445 16.75c-7.75-1.604-12.965-5.422-30.8399999 7.457-17.453-5.938-13.125-3-43.086 5.84-10.082 2.984-19.68-3.184-19.68-3.184s-9.711-10.594 5.582-16.754c1.008-2.16-10.977-14.438-27.144996-32.016-25.148-27.343997-60.43-65.757997-72.832-85.253997-19.23 25.918.09 51.59 22.824 75.551 7.336 5.145 13.68 10.312997 20.387 14.487997 16.285 11.184 30.711 16.984 30.711 21.902-2.223-.078-3.176-.199-4.785-.262-3.766-.906-68.008-32.374997-79.773-42.800997-9.48 31.503997 11.734 35.472997 26.184 41.815997 14.453 6.328 36.91 15.063 53.59 18.281-.246.934-.055.621-.262 1.063-14.625 3.594-60.648 1.984-76.848-1.063-11.512 34.039 67.855 23.039 79.766 16.477.77-.016 1.066 0 1.066 0s-.434 1.25-.801 2.396c-13.855 11.604-63.305 36.76999957-73.664 40.4219996 14.254 43.8590004 78.254-22.8399996 84.023-29.7809996.945.031 1.085996 0 1.862996 0 4.77 5.438-61.304996 85.906-71.261996 97.047 40.848 28.344 75.335996-59.063 90.940996-89.344 1.977.375 2.664.262 2.664.262s.168 4.656-.535 6.129c.406 2.7069996-34.632996 103.953-49.718996 133.484003 64.253996.922 61.206996-93.523003 71.526996-138.277003.344-.934 1.727-1.094 3.191-.797 3.52 4.84-1.742 70.324-4.785 93.605 49.0159999-13.422 28.344-82.0000004 30.32-91.473 1.953-4.359 6.906-3.469 6.906-3.469s15.5079999 47.125 14.8979999 51.856c-2.265 4.445-81.3749999 112.492003-81.3749999 112.492003l30.313-2.656s5.43 38.258 7.445 39.078c27.359-55.836 53.8159999-101.531003 56.3869999-103.969003 4.2150001 38.453003 12.1680001 66.688003 5.3520001 102.156003-6.8090001 35.453-52.809 61.344-70.242 60.047-1.039.031-2.336-.906-3.992-2.672-12.078-12.781-15.605-11.672-21.809-11.954-6.199-.266-15.199 3.891-16.484 14.892-.729996 6.266 6.117 10.906 6.117 10.906s-1.367-6.953 4.52-9.578c3.57-1.578 8.93-.797 11.699 3.188 2.766 4 3.918 7.188 6.117 8.781 2.191 1.609 14.242 3.391 16.043 2.563 4.336-2 52.0939999-9.982 76.766-63.983.688-1.5 2.098.297 1.688 4.781-.391 4.5-6.855 30.75-13.391 37.219-1.9060001 1.892-5.3670001 8.142-.2660001 10.923 8.1290001 4.422 20.2110001 17.155 20.2110001 17.155l.261-359.393003z" fill="#010202"/><path d="m-44.932994-106.58201c-15.082-7.41-33.512-6.379-33.512-6.379s-4.137 1.738-4.523 5.051c-5.637-2.969-5.055-8.785-5.055-8.785s.449-14.832 18.352-9.305c2.129.656 7.227-.039 6.914-1.863-.297-1.754 4.758-6.258 10.641-2.391 5.879 3.871 44.6879999 42.261997 50.5199999 55.308997-29.2499999-13.934-51.5859999-15.688-51.5859999-15.688s-6.832-.438-14.094-.262c4.719-4.219 14.328-9.202997 18.352-7.984 5.359 1.641 20.199 6.391 20.199 6.391z" fill="#e8423f"/><path d="m-44.932994-106.58201c-15.082-7.41-33.512-6.379-33.512-6.379s-4.137 1.738-4.523 5.051c-5.637-2.969-5.055-8.785-5.055-8.785s.449-14.832 18.352-9.305c2.129.656 7.227-.039 6.914-1.863-.297-1.754 4.758-6.258 10.641-2.391 5.879 3.871 44.6879999 42.261997 50.5199999 55.308997-29.2499999-13.934-51.5859999-15.688-51.5859999-15.688s-6.832-.438-14.094-.262c4.719-4.219 14.328-9.202997 18.352-7.984 5.359 1.641 20.199 6.391 20.199 6.391z" fill="none" stroke="#010202" stroke-width="3.552"/><path d="m11.185006-149.65601v-.016s-61.926.008-61.949.008c-1.906 0-3.457 1.551-3.457 3.465 0 1.91 1.551 3.465 3.457 3.465.055 0 .109-.016.168-.016h61.574c.047 0 .129.016.16.016 1.914 0 3.473-1.555 3.473-3.465-.001-1.899-1.536-3.442-3.426-3.457" fill="#e8423f"/><path d="m11.185006-149.65601v-.016s-61.926.008-61.949.008c-1.906 0-3.457 1.551-3.457 3.465 0 1.91 1.551 3.465 3.457 3.465.055 0 .109-.016.168-.016h61.574c.047 0 .129.016.16.016 1.914 0 3.473-1.555 3.473-3.465-.001-1.899-1.536-3.442-3.426-3.457z" fill="none" stroke="#010202" stroke-width="3.552"/><path d="m8.3210059-142.75001c0-.012-56.4649999 0-56.4729999 0-1.742 0-3.152 1.543-3.152 3.453 0 1.914 1.41 3.457 3.152 3.457h56.4499999c1.7340001 0 3.1520001-1.535 3.1520001-3.457 0-1.895-1.39-3.43-3.1290001-3.453" fill="#e8423f"/><path d="m8.3210059-142.75001c0-.012-56.4649999 0-56.4729999 0-1.742 0-3.152 1.543-3.152 3.453 0 1.914 1.41 3.457 3.152 3.457h56.4499999c1.7340001 0 3.1520001-1.535 3.1520001-3.457 0-1.895-1.39-3.43-3.1290001-3.453z" fill="none" stroke="#010202" stroke-width="3.552"/><path d="m-15.564994-123.96101c0 1.871-2.656 3.402-5.922 3.402-3.262 0-5.91-1.52-5.91-3.402 0-1.879 2.648-3.398 5.91-3.398 3.265-.001 5.922 1.511 5.922 3.398" fill="#fff"/><path d="m-20.939994-124.51201c0 1.313-1.336 2.383-2.977 2.383-1.633 0-2.961-1.07-2.961-2.383s1.328-2.375 2.961-2.375c1.641.008 2.977 1.063 2.977 2.375" fill="#010202"/><path d="m-32.174994-131.57401s-4.656.734-4.598 3.84c.094 5.168 16.117-3.152 25.758-1.379-6.984-3-21.91 2.938-22.961.602-.285-.657 1.801-3.063 1.801-3.063" fill="#fff"/><path d="m-53.115994-158.45701c-.32 1.402-.059 6.922 2.59 8.242 1.184.59 2.25-.031 3.031-1.098.785-1.063.617-2.504.617-2.504-.008-.023-1.895-3.086.367-6.336 2.473-3.535 9.047-7.781 26.387-7.902 17.2769999.129 23.8629999 4.367 26.3239999 7.902 2.266 3.25.395 6.313.379 6.336 0 0-.168 1.449.605 2.504.793 1.066 1.848 1.688 3.0350001 1.098 2.656-1.328 2.918-6.84 2.59-8.242-1.574-6.766-8.5510001-14.848-32.934-15.039-24.433.191-31.417 8.281-32.991 15.039" fill="#e8423f"/><path d="m-53.115994-158.45701c-.32 1.402-.059 6.922 2.59 8.242 1.184.59 2.25-.031 3.031-1.098.785-1.063.617-2.504.617-2.504-.008-.023-1.895-3.086.367-6.336 2.473-3.535 9.047-7.781 26.387-7.902 17.2769999.129 23.8629999 4.367 26.3239999 7.902 2.266 3.25.395 6.313.379 6.336 0 0-.168 1.449.605 2.504.793 1.066 1.848 1.688 3.0350001 1.098 2.656-1.328 2.918-6.84 2.59-8.242-1.574-6.766-8.5510001-14.848-32.934-15.039-24.433.191-31.417 8.281-32.991 15.039z" fill="none" stroke="#010202" stroke-width="3.552"/><path d="m-10.053994-190.12101c0 4.938-4.664 8.945-10.418 8.945-5.734 0-10.406-4.008-10.406-8.945 0-4.941 4.672-8.949 10.406-8.949 5.754-.001 10.418 4.007 10.418 8.949" fill="#e8423f"/><path d="m-20.471994-199.06301c5.75 0 10.41 4.004 10.41 8.941 0 4.941-4.66 8.945-10.41 8.945-5.746 0-10.406-4.004-10.406-8.945 0-4.937 4.66-8.941 10.406-8.941z" fill="none" stroke="#010202" stroke-width="3.552"/><path d="m-15.334994-177.34401c0 2.246 2.168 4.055 4.84 4.055 2.6719999 0 4.8399999-1.809 4.8399999-4.055 0-2.23-2.168-4.039-4.8399999-4.039-2.672 0-4.84 1.809-4.84 4.039" fill="#e8423f"/><path d="m-10.486994-181.39901c2.6759999 0 4.8399999 1.816 4.8399999 4.055s-2.164 4.055-4.8399999 4.055c-2.672 0-4.84-1.816-4.84-4.055s2.168-4.055 4.84-4.055z" fill="none" stroke="#010202" stroke-width="3.552"/><path d="m-15.373994-161.87101c0 2.238-2.16 4.055-4.832 4.055s-4.832-1.816-4.832-4.055c0-2.234 2.168-4.047 4.832-4.047s4.832 1.804 4.832 4.047" fill="#e8423f"/><path d="m-20.213994-165.92601c2.668 0 4.832 1.813 4.832 4.055 0 2.238-2.164 4.055-4.832 4.055s-4.832-1.816-4.832-4.055c0-2.243 2.164-4.055 4.832-4.055z" fill="none" stroke="#010202" stroke-width="3.552"/><path d="m-15.373994-170.00801c0 2.238-2.16 4.055-4.832 4.055s-4.832-1.816-4.832-4.055c0-2.23 2.168-4.047 4.832-4.047s4.832 1.816 4.832 4.047" fill="#e8423f"/><ellipse cx="-20.213993" cy="-170.008013" fill="none" rx="4.832" ry="4.055" stroke="#010202" stroke-width="3.552"/><path d="m-24.932994-177.34401c0 2.246-2.168 4.055-4.832 4.055-2.672 0-4.84-1.809-4.84-4.055 0-2.23 2.168-4.039 4.84-4.039s4.832 1.809 4.832 4.039" fill="#e8423f"/><path d="m-29.771994-181.39901c2.672 0 4.84 1.816 4.84 4.055s-2.168 4.055-4.84 4.055c-2.676 0-4.84-1.816-4.84-4.055s2.164-4.055 4.84-4.055z" fill="none" stroke="#010202" stroke-width="3.552"/><path d="m-34.381994-175.51201c0 2.23-2.16 4.055-4.832 4.055-2.68 0-4.84-1.824-4.84-4.055 0-2.238 2.16-4.055 4.84-4.055 2.672 0 4.832 1.805 4.832 4.055" fill="#e8423f"/><path d="m-39.221994-179.56701c2.668 0 4.832 1.813 4.832 4.055s-2.164 4.055-4.832 4.055-4.832-1.813-4.832-4.055 2.164-4.055 4.832-4.055z" fill="none" stroke="#010202" stroke-width="3.552"/><path d="m-43.123994-171.98501c0 2.234-2.168 4.051-4.844 4.051-2.672 0-4.84-1.816-4.84-4.051 0-2.238 2.168-4.055 4.84-4.055 2.676.001 4.844 1.817 4.844 4.055" fill="#e8423f"/><path d="m-47.967994-176.03101c2.676 0 4.844 1.813 4.844 4.047 0 2.238-2.168 4.051-4.844 4.051-2.672 0-4.84-1.813-4.84-4.051 0-2.235 2.168-4.047 4.84-4.047z" fill="none" stroke="#010202" stroke-width="3.552"/><path d="m-49.982994-166.25401c0 2.277-2.16 4.133-4.832 4.133s-4.84-1.848-4.84-4.133c0-2.273 2.168-4.121 4.84-4.121s4.832 1.847 4.832 4.121" fill="#e8423f"/><path d="m-54.814994-170.39101c2.672 0 4.832 1.852 4.832 4.137 0 2.281-2.16 4.133-4.832 4.133-2.668 0-4.832-1.852-4.832-4.133 0-2.285 2.164-4.137 4.832-4.137z" fill="none" stroke="#010202" stroke-width="3.552"/><path d="m-53.326994-158.60601c0 2.23-2.168 4.047-4.84 4.047s-4.84-1.816-4.84-4.047c0-2.242 2.168-4.059 4.84-4.059s4.84 1.817 4.84 4.059" fill="#e8423f"/><path d="m-58.166994-162.65601c2.676 0 4.84 1.813 4.84 4.051 0 2.234-2.164 4.047-4.84 4.047-2.672 0-4.84-1.813-4.84-4.047 0-2.239 2.168-4.051 4.84-4.051z" fill="none" stroke="#010202" stroke-width="3.552"/><path d="m-5.8779941-175.51201c0 2.23 2.176 4.055 4.848 4.055 2.664 0 4.832-1.824 4.832-4.055 0-2.238-2.168-4.055-4.832-4.055-2.672 0-4.848 1.805-4.848 4.055" fill="#e8423f"/><path d="m-1.0379941-179.56701c2.672 0 4.84 1.813 4.84 4.055s-2.168 4.055-4.84 4.055-4.84-1.813-4.84-4.055 2.168-4.055 4.84-4.055z" fill="none" stroke="#010202" stroke-width="3.552"/><path d="m2.8760059-171.98501c0 2.234 2.168 4.051 4.832 4.051 2.6600001 0 4.8280001-1.816 4.8280001-4.051 0-2.238-2.168-4.055-4.8280001-4.055-2.664.001-4.832 1.817-4.832 4.055" fill="#e8423f"/><path d="m7.7080059-176.03101c2.6680001 0 4.8280001 1.813 4.8280001 4.047 0 2.238-2.16 4.051-4.8280001 4.051-2.672 0-4.832-1.813-4.832-4.051 0-2.235 2.16-4.047 4.832-4.047z" fill="none" stroke="#010202" stroke-width="3.552"/><path d="m9.7080059-166.25401c0 2.277 2.1760001 4.133 4.8480001 4.133s4.832-1.848 4.832-4.133c0-2.273-2.168-4.121-4.832-4.121s-4.8480001 1.847-4.8480001 4.121" fill="#e8423f"/><path d="m14.556006-170.39101c2.672 0 4.84 1.852 4.84 4.137 0 2.281-2.168 4.133-4.84 4.133-2.676 0-4.8400001-1.852-4.8400001-4.133 0-2.285 2.1640001-4.137 4.8400001-4.137z" fill="none" stroke="#010202" stroke-width="3.552"/><path d="m13.060006-158.60601c0 2.23 2.168 4.047 4.84 4.047s4.855-1.816 4.855-4.047c0-2.242-2.184-4.059-4.855-4.059s-4.84 1.817-4.84 4.059" fill="#e8423f"/><ellipse cx="17.915006" cy="-158.608013" fill="none" rx="4.848" ry="4.049" stroke="#010202" stroke-width="3.552"/><path d="m-15.373994-153.72701c0 2.223-2.16 4.047-4.832 4.047s-4.832-1.824-4.832-4.047c0-2.242 2.168-4.059 4.832-4.059s4.832 1.817 4.832 4.059" fill="#e8423f"/><ellipse cx="-20.213993" cy="-153.729023" fill="none" rx="4.832" ry="4.049" stroke="#010202" stroke-width="3.552"/><path d="m-15.318994-177.91801c0 2.238-2.145 4.055-4.832 4.055-2.672 0-4.832-1.816-4.832-4.055 0-2.242 2.168-4.059 4.832-4.059 2.699 0 4.832 1.809 4.832 4.059" fill="#e8423f"/><path d="m-20.150994-181.97701c2.672 0 4.832 1.816 4.832 4.059 0 2.238-2.16 4.055-4.832 4.055-2.668 0-4.832-1.816-4.832-4.055 0-2.242 2.164-4.059 4.832-4.059z" fill="none" stroke="#010202" stroke-width="3.552"/><path d="m-61.861994 220.67899c4.945-1.914 5.961-9.602 4.746-11.133-6.082-7.602-13.746-8.18-13.746-8.18s-3.945 3.133 3.746 8.281c7.68 5.165 5.453 9.509 5.254 11.032" fill="#e8423f"/><path d="m-61.861994 220.67899c4.945-1.914 5.961-9.602 4.746-11.133-6.082-7.602-13.746-8.18-13.746-8.18s-3.945 3.133 3.746 8.281c7.68 5.165 5.453 9.509 5.254 11.032z" fill="none" stroke="#010202" stroke-width="3.552"/><path d="m-170.91699 184.38299c.598-3.344 5.145-15.453 18.992-8.391 5.117 2.625 3.742 6.281 3.742 6.281s-2.727 3.211-6.168 1c-8.941-5.789-8.183-7.07-16.566 1.11" fill="#e8423f"/><path d="m-170.91699 184.38299c.598-3.344 5.145-15.453 18.992-8.391 5.117 2.625 3.742 6.281 3.742 6.281s-2.727 3.211-6.168 1c-8.941-5.789-8.183-7.07-16.566 1.11z" fill="none" stroke="#010202" stroke-width="3.552"/><path d="m-168.59699 222.09399s1.152-11.563 10.91-13.25c5.863-1.016 2.129-5.344 2.129-5.344s-9.32-2.734-15.672 8.391c-2.023 3.515 2.633 10.203 2.633 10.203" fill="#e8423f"/><path d="m-168.59699 222.09399s1.152-11.563 10.91-13.25c5.863-1.016 2.129-5.344 2.129-5.344s-9.32-2.734-15.672 8.391c-2.023 3.515 2.633 10.203 2.633 10.203z" fill="none" stroke="#010202" stroke-width="3.552"/><path d="m-131.33499 251.60899c-5.262-3.953-5.305-8.983-5.223-12.078.094-3.953-7.281 1.297-6.672 3.836.344 1.383-2.023 10.602 11.895 8.242" fill="#e8423f"/><path d="m-131.33499 251.60899c-5.262-3.953-5.305-8.983-5.223-12.078.094-3.953-7.281 1.297-6.672 3.836.344 1.383-2.023 10.602 11.895 8.242z" fill="none" stroke="#010202" stroke-width="3.552"/><path d="m232.172-120.037v-19.425h21.016v-26.848h-33.5v18.617h-26.875v-18.617h-33.766v46.273h-17.016l-.093 76.329h17.109v46.246h33.766v-18.344h26.875v18.344h33.5v-26.575h-21.016v-19.671h21.016v-9.313-67.016z" fill="#ffd730" transform="translate(-.830994 -1.698013)"/><path d="m253.188-139.462v-26.848h-33.5v18.617h-26.875v-18.617h-33.766v46.273h-17.016l-.093 76.329h17.109v46.246h33.766v-18.344h26.875v18.344h33.5v-26.575h-21.016v-19.671h21.016v-9.313-67.016h-21.016v-19.425z" fill="none" stroke="#010202" stroke-miterlimit="10" stroke-width="3.552" transform="translate(-.830994 -1.698013)"/><path d="m205.594-45.853h-18.625v-27.656h-20.742v-16.481h20.742v-27.656h18.625v27.656h20.469v16.481h-20.469z" fill="#e8423f" transform="translate(-.830994 -1.698013)"/><path d="m186.969-73.509h-20.742v-16.481h20.742v-27.656h18.625v27.656h20.469v16.481h-20.469v27.656h-18.625z" fill="none" stroke="#010202" stroke-width="3.552" transform="translate(-.830994 -1.698013)"/><path d="m72.778006 160.88999c42.344004-16.172 44.094004-43.594 44.125004-58.188h26.508c.047 14.594 2.078 42.109 44.422 58.297v27.594c-42.344 16.156-44.375 37.75-44.422 52.344h-26.25c-.047-14.594-2.086-36.172-44.422004-52.344z" fill="#ffd730"/><path d="m72.778006 160.88999c42.344004-16.172 44.094004-43.594 44.125004-58.188h26.508c.047 14.594 2.078 42.109 44.422 58.297v27.594c-42.344 16.156-44.375 37.75-44.422 52.344h-26.25c-.047-14.594-2.086-36.172-44.422004-52.344z" fill="none" stroke="#010202" stroke-linecap="square" stroke-miterlimit="10" stroke-width="3.552"/><path d="m153.57501 173.57799c0-5.875-5.164-10.609-11.578-10.75-.094-5.859-5.344-10.594-11.813-10.594-6.484 0-11.734 4.734-11.828 10.594-6.375.156-11.5 4.906-11.5 10.75s5.125 10.594 11.5 10.75c.141 5.828 5.367 10.516 11.828 10.516 6.438 0 11.672-4.688 11.813-10.516 6.406-.141 11.578-4.891 11.578-10.75" fill="#e8423f"/><path d="m153.57501 173.57799c0-5.875-5.164-10.609-11.578-10.75-.094-5.859-5.344-10.594-11.813-10.594-6.484 0-11.734 4.734-11.828 10.594-6.375.156-11.5 4.906-11.5 10.75s5.125 10.594 11.5 10.75c.141 5.828 5.367 10.516 11.828 10.516 6.438 0 11.672-4.688 11.813-10.516 6.406-.141 11.578-4.891 11.578-10.75z" fill="none" stroke="#040304" stroke-linecap="square" stroke-miterlimit="10" stroke-width="3.52"/><path d="m73.060006 174.78099c0 5.656-5.063 10.242-11.266 10.242-6.234 0-11.266-4.586-11.266-10.242 0-5.672 5.031-10.234 11.266-10.234 6.203 0 11.266 4.562 11.266 10.234" fill="#ffd730"/><path d="m61.794006 164.53099c6.219 0 11.266 4.586 11.266 10.25 0 5.656-5.047 10.242-11.266 10.242s-11.266-4.586-11.266-10.242c0-5.664 5.047-10.25 11.266-10.25z" fill="none" stroke="#010202" stroke-miterlimit="10" stroke-width="3.552"/><path d="m209.70801 174.78099c0 5.656-5.039 10.242-11.258 10.242-6.234 0-11.266-4.586-11.266-10.242 0-5.672 5.031-10.234 11.266-10.234 6.219 0 11.258 4.562 11.258 10.234" fill="#ffd730"/><path d="m198.45001 164.53099c6.219 0 11.266 4.586 11.266 10.25 0 5.656-5.047 10.242-11.266 10.242s-11.266-4.586-11.266-10.242c.001-5.664 5.048-10.25 11.266-10.25z" fill="none" stroke="#010202" stroke-miterlimit="10" stroke-width="3.552"/><path d="m141.38001 244.21899c0 5.656-5.039 10.233-11.258 10.233s-11.266-4.577-11.266-10.233 5.047-10.25 11.266-10.25 11.258 4.593 11.258 10.25" fill="#ffd730"/><path d="m130.12201 233.98399c6.219 0 11.266 4.578 11.266 10.234 0 5.646-5.047 10.232-11.266 10.232s-11.266-4.586-11.266-10.232c.001-5.656 5.047-10.234 11.266-10.234z" fill="none" stroke="#010202" stroke-miterlimit="10" stroke-width="3.552"/><path d="m130.08301 110.71099c-.445 18.477 14.555 53.758 60.727 63.953-54.578 8.492-60.109 49.508-60.727 57.445-1.398-3.688 1.82-43.133-60.742004-57.445 50.297004-12.164 60.656004-48.242 60.742004-63.953z" fill="none" stroke="#010202" stroke-linecap="square" stroke-miterlimit="10" stroke-width="3.552"/><path d="m145.98201-169.15301c0-3.68-1.82-6.918-4.547-8.961-.531-5.664-5.281-10.102-11.078-10.102-5.766 0-10.492 4.359-11.078 9.945-2.844 2.039-4.656 5.359-4.656 9.117 0 .305-.047.594-.016.883v281.051h31.375v-281.324z" fill="#ffd730"/><path d="m145.98201-169.15301c0-3.68-1.82-6.918-4.547-8.961-.531-5.664-5.281-10.102-11.078-10.102-5.766 0-10.492 4.359-11.078 9.945-2.844 2.039-4.656 5.359-4.656 9.117 0 .305-.047.594-.016.883v281.051h31.375v-281.324z" fill="none" stroke="#010202" stroke-miterlimit="10" stroke-width="3.552"/><path d="m147.85701 76.889987h-36.016c-3.891 0-7.047 3.141-7.047 7.063 0 3.875 3.141 7.031 7.016 7.047h36.047c3.906 0 7.047-3.172 7.047-7.047-.001-3.93-3.141-7.063-7.047-7.063" fill="#ffd730"/><path d="m147.85701 76.889987h-36.016c-3.891 0-7.047 3.141-7.047 7.063 0 3.875 3.141 7.031 7.016 7.047h36.047c3.906 0 7.047-3.172 7.047-7.047-.001-3.93-3.141-7.063-7.047-7.063z" fill="none" stroke="#010202" stroke-miterlimit="10" stroke-width="3.552"/><path d="m148.38801 99.499987h-36.406c-3.922 0-7.117 3.211003-7.117 7.164003s3.164 7.164 7.086 7.164h36.438c3.938 0 7.141-3.195 7.141-7.164-.002-3.953-3.205-7.164003-7.142-7.164003" fill="#ffd730"/><path d="m148.38801 99.499987h-36.406c-3.922 0-7.117 3.211003-7.117 7.164003s3.164 7.164 7.086 7.164h36.438c3.938 0 7.141-3.195 7.141-7.164-.002-3.953-3.205-7.164003-7.142-7.164003z" fill="none" stroke="#010202" stroke-miterlimit="10" stroke-width="3.552"/><path d="m198.37201 158.42199c.016-.117.016-.25.016-.367 0-4.258-3.453-7.719-7.719-7.719s-7.703 3.461-7.703 7.719v.023h-.016v33.242h.016v.047c0 4.266 3.438 7.711 7.703 7.711s7.719-3.445 7.719-7.711c0-.133 0-.242-.016-.359z" fill="#ffd730"/><path d="m198.37201 158.42199c.016-.117.016-.25.016-.367 0-4.258-3.453-7.719-7.719-7.719s-7.703 3.461-7.703 7.719v.023h-.016v33.242h.016v.047c0 4.266 3.438 7.711 7.703 7.711s7.719-3.445 7.719-7.711c0-.133 0-.242-.016-.359z" fill="none" stroke="#010202" stroke-miterlimit="10" stroke-width="3.552"/><path d="m62.013006 191.09399c0 .125-.016.242-.016.359 0 4.281 3.453 7.719 7.719 7.719 4.25 0 7.719-3.438 7.719-7.719v-.016h.016v-33.234h-.016v-.047c0-4.25-3.469-7.734-7.719-7.734-4.266 0-7.719 3.484-7.719 7.734 0 .109.016.227.016.359z" fill="#ffd730"/><path d="m62.013006 191.09399c0 .125-.016.242-.016.359 0 4.281 3.453 7.719 7.719 7.719 4.25 0 7.719-3.438 7.719-7.719v-.016h.016v-33.234h-.016v-.047c0-4.25-3.469-7.734-7.719-7.734-4.266 0-7.719 3.484-7.719 7.734 0 .109.016.227.016.359z" fill="none" stroke="#010202" stroke-miterlimit="10" stroke-width="3.552"/><path d="m146.38801 244.26499c.125 0 .25.031.359.031 4.266 0 7.734-3.471 7.734-7.721 0-4.266-3.469-7.733-7.734-7.733h-.023-33.227-.047c-4.266 0-7.727 3.469-7.727 7.733 0 4.25 3.461 7.721 7.727 7.721.109 0 .219-.031.375-.031z" fill="#ffd730"/><path d="m146.38801 244.26499c.125 0 .25.031.359.031 4.266 0 7.734-3.471 7.734-7.721 0-4.266-3.469-7.733-7.734-7.733h-.023-33.227-.047c-4.266 0-7.727 3.469-7.727 7.733 0 4.25 3.461 7.721 7.727 7.721.109 0 .219-.031.375-.031z" fill="none" stroke="#010202" stroke-miterlimit="10" stroke-width="3.552"/><path d="m30.450006-205.95114v470.12945" fill="none" stroke="#010202" stroke-width="3.553881"/></g></svg>