<svg enable-background="new -206.827 -207.477 475.531 477.108" height="473.556" viewBox="-206.827 -207.477 471.98199 473.556" width="471.98199" xmlns="http://www.w3.org/2000/svg"><path d="m-206.827-207.47701h471.979v473.556h-471.979z" fill="#010202"/><path d="m29.157993-207.47701h235.99699v473.556h-235.99699z" fill="#268bcc"/><g fill="#fff"><g transform="translate(-1.776007 -1.775996)"><path d="m202.07-4.341-31.656 20.379 10.984-34.875-28.421-19.039h35.671l13.422-36.473 13.422 36.473h35.655l-28.17 19.32 10.734 34.594z"/><path d="m91.836-4.341-31.391 20.379 10.719-34.875-28.422-19.039h35.688l13.406-36.473 13.422 36.473h35.672l-28.157 19.32 10.719 34.594z"/><path d="m147.086 92.213-31.656 20.102 10.718-34.586-28.14-19.312h35.656l13.422-36.208 13.406 36.465h35.656l-28.406 19.055 11 34.859z"/></g><path d="m26.356993 8.187004c-11.457-2.144-13.328-9.918-30.8870002-9.918-20.4019998 0-17.2969998 10.797-41.6719998 10.797s-21.871-10.797-42.273-10.797c-20.406003 0-18.895003 10.797-42.359003 10.797-23.473 0-21.184-10.797-41.586-10.797-18.973 0-19.637 9.047-33.797 10.328v-34.395c14.16-1.277 14.824-10.328 33.797-10.328 20.402 0 18.113 10.793 41.586 10.793 23.465 0 21.953-10.793 42.359003-10.793 20.402 0 17.898 10.793 42.273 10.793s21.27-10.793 41.6719998-10.793c17.5590002 0 19.4380002 7.762 30.8870002 9.938v34.375z"/><path d="m26.356993 54.125004c-11.457-2.141-13.328-9.922-30.8870002-9.922-20.4019998 0-17.2969998 10.797-41.6719998 10.797s-21.871-10.797-42.273-10.797c-20.406003 0-18.895003 10.797-42.359003 10.797-23.473 0-21.184-10.797-41.586-10.797-18.973 0-19.637 9.047-33.797 10.328v-34.39c14.16-1.281 14.824-10.328 33.797-10.328 20.402 0 18.113 10.801 41.586 10.801 23.465 0 21.953-10.801 42.359003-10.801 20.402 0 17.898 10.801 42.273 10.801s21.27-10.801 41.6719998-10.801c17.5590002 0 19.4380002 7.766 30.8870002 9.918v34.394z"/><path d="m26.356993 100.062c-11.457-2.163996-13.328-9.921996-30.8870002-9.921996-20.4019998 0-17.2969998 10.780996-41.6719998 10.780996s-21.871-10.780996-42.273-10.780996c-20.406003 0-18.895003 10.780996-42.359003 10.780996-23.473 0-21.184-10.780996-41.586-10.780996-18.973 0-19.637 9.047-33.797 10.312996v-34.390996c14.16-1.266 14.824-10.313 33.797-10.313 20.402 0 18.113 10.781 41.586 10.781 23.465 0 21.953-10.781 42.359003-10.781 20.402 0 17.898 10.781 42.273 10.781s21.27-10.781 41.6719998-10.781c17.5590002 0 19.4380002 7.766 30.8870002 9.922v34.390996z"/></g><path d="m145.30999 20.433004 13.406 36.473h35.656l-28.406 19.047 11 34.858996-31.656-20.374996-31.656 20.108996 10.719-34.593996-28.140997-19.311h35.655997zm-55.249997-96.558 13.421997 36.465h35.672l-28.156 19.328 10.719 34.594-31.656997-20.379-31.391 20.379 10.719-34.875-28.422-19.039h35.688zm110.233997 0 13.422 36.465h35.655l-28.171 19.328 10.742 34.594-31.64-20.379-31.656 20.379 10.984-34.875-28.43-19.039h35.672z" fill="none" stroke="#010202" stroke-width="3.552"/></svg>