<svg height="484.55511" width="728" xmlns="http://www.w3.org/2000/svg" xmlns:xlink="http://www.w3.org/1999/xlink"><g fill-rule="evenodd" transform="matrix(2.9074815 0 0 2.9074815 436.286324 85.155215)"><path d="m-150.05644-29.287928h83.476415v166.657498h-83.476415z" fill="#1db062"/><path d="m-66.586792-29.28779h83.476418v166.6575h-83.476418z" fill="#fff"/><path d="m16.855658-29.288309h83.476422v166.657499h-83.476422z" fill="#94c9e9"/></g><g fill="#fcbf49" stroke="#843511" stroke-width="1.5" transform="matrix(.44552996 0 0 .44552996 364.417559 111.676767)"><g id="a"><g id="b"><g id="c"><g id="d"><path d="m-8 0 6 159.5s0 3 2 3 2-3 2-3l6-159.5"/><path d="m-4 0 4 109.5 4-109.5" fill="#843511" stroke="none"/><g transform="matrix(.9799247 .1993679 -.1993679 .9799247 0 0)"><path d="m-4.5 53.5c-5 21.5 6 36 .5 55s3 32 4 40-5 11.5-3 13 8-3.5 8.5-14.5-7-15.75-.5-39-4-31 3-52"/><path d="m-1 58c-3 21 7 32.5 1 51 8-14-2-28 3-50" fill="#843511" stroke="none"/></g></g><use height="330" transform="scale(-1)" width="330" xlink:href="#d"/></g><use height="330" transform="rotate(90)" width="330" xlink:href="#c"/></g><use height="330" transform="matrix(.7071068 .7071068 -.7071068 .7071068 0 0)" width="330" xlink:href="#b"/></g><use height="330" transform="matrix(.9238795 .3826834 -.3826834 .9238795 0 0)" width="330" xlink:href="#a"/><circle r="65" stroke-width="1"/><g id="e" fill="#843511" stroke="none"><path d="m41-14c-11.5-10-26-11.5-34-4-5.8063727 7.76306-5.2889764 16.9037284 1.5 26.5-.5 0-1.5.5-2 1-5.042555-9.60281648-5.90994857-19.491103-2.5-28.5 11-9 26-10 37 5"/><path d="m23-17c-6.5 0-8 1.5-11 4s-4.5 2-5 2.5 0 2 1 1.5 3-1.5 6-4 6-2.5 9-2.5c9 0 14 7.5 15 7s-5-8.5-15-8.5"/><path d="m34.5-8.5c-6.5-7-18.5-7.5-23.5.5h2c5-8 17-4.5 18-1v1"/><circle cx="22" cy="-9" r="4.5"/><path d="m11-8c5 4.5 16 5 23.5-.5l-3.5-.5c-5 5.5-13 5-18 1v-1"/><path d="m35-6c-8.5 6.5-17 6-22 3s-5-4-4-4 2 1 6 3 10 2 20-2"/><path d="m10.5 9c1.41609.5034893 2.241084 1.977139 1.930035 3.447534-.311049 1.470394-1.66214 2.483712-3.1608125 2.370609-1.4986724-.113103-2.6823779-1.31772-2.7692225-2.818143-.5 1-2.5 4-6.5 4h-1l1 1.5c1 0 4 0 6-1.5 1.1633883 1.669092 3.3019644 2.349966 5.216194 1.660715 1.91423-.68925 3.127878-2.577147 2.960205-4.604763s-1.674951-3.6905072-3.676399-4.055952"/><path d="m16.5 30c-4.5-3-6.5-7.5-11.5-7.5-1 0-3 .5-5 1.5h-1l1 1.5c2 0 5-2.5 8.5-.5s5.5 4 8 5"/><path d="m15 30c-10-3-12-1-15-1h-1l1 2c4 0 6-3 15-1"/><path d="m16.5 30c-11-1-7.5 5.5-16.5 5.5h-1l1 1.5c11 0 6-6 16.5-7"/><path d="m9 46c0-4.970563-4.0294373-9-9-9s-9 4.029437-9 9c.9896729-4.169968 4.7141993-7.113999 9-7.113999s8.0103271 2.944031 9 7.113999"/></g><use height="330" transform="scale(-1 1)" width="330" xlink:href="#e"/></g><g fill-rule="evenodd"><g fill="#fcbf49" stroke="#ffdc4d" stroke-width=".039813" transform="matrix(2.9074815 0 0 2.9074815 418.495209 613.652495)"><path d="m-20.341813-136.56178-.386985-.28744-.385021.2905.153789-.45687-.395262-.27641.482032.00508.140736-.46133.144124.46001.482241-.00871-.392959.27922z" transform="matrix(5.3756684 0 0 5.3756684 92.92972 603.41918)"/><path d="m-20.341813-136.56178-.386985-.28744-.385021.2905.153789-.45687-.395262-.27641.482032.00508.140736-.46133.144124.46001.482241-.00871-.392959.27922z" transform="matrix(5.1667636 -1.4840371 1.4840371 5.1667636 282.89946 544.9753)"/><path d="m-20.341813-136.56178-.386985-.28744-.385021.2905.153789-.45687-.395262-.27641.482032.00508.140736-.46133.144124.46001.482241-.00871-.392959.27922z" transform="matrix(4.7297375 -2.5548769 2.5548769 4.7297375 412.14635 466.29187)"/><path d="m-20.341813-136.56178-.386985-.28744-.385021.2905.153789-.45687-.395262-.27641.482032.00508.140736-.46133.144124.46001.482241-.00871-.392959.27922z" transform="matrix(3.9135994 -3.6853156 3.6853156 3.9135994 542.8586 336.42283)"/><path d="m-20.341813-136.56178-.386985-.28744-.385021.2905.153789-.45687-.395262-.27641.482032.00508.140736-.46133.144124.46001.482241-.00871-.392959.27922z" transform="matrix(2.7568901 -4.6149072 4.6149072 2.7568901 640.44856 165.42759)"/><path d="m-20.341813-136.56178-.386985-.28744-.385021.2905.153789-.45687-.395262-.27641.482032.00508.140736-.46133.144124.46001.482241-.00871-.392959.27922z" transform="matrix(1.6889489 -5.1034558 5.1034558 1.6889489 681.47627 17.388803)"/><path d="m-20.341813-136.56178-.386985-.28744-.385021.2905.153789-.45687-.395262-.27641.482032.00508.140736-.46133.144124.46001.482241-.00871-.392959.27922z" transform="matrix(-5.23820234524 -1.20791215191 -1.20791215191 5.23820234524 -284.57387989721 560.34630427993)"/><path d="m-20.341813-136.56178-.386985-.28744-.385021.2905.153789-.45687-.395262-.27641.482032.00508.140736-.46133.144124.46001.482241-.00871-.392959.27922z" transform="matrix(-4.70117664993 -2.60705871593 -2.60705871593 4.70117664993 -456.5533987113 460.71076375388)"/><path d="m-20.341813-136.56178-.386985-.28744-.385021.2905.153789-.45687-.395262-.27641.482032.00508.140736-.46133.144124.46001.482241-.00871-.392959.27922z" transform="matrix(-4.03470854168 -3.55231538668 -3.55231538668 4.03470854168 -564.81504131225 354.99765529918)"/><path d="m-20.341813-136.56178-.386985-.28744-.385021.2905.153789-.45687-.395262-.27641.482032.00508.140736-.46133.144124.46001.482241-.00871-.392959.27922z" transform="matrix(-2.98543118071 -4.47046047183 -4.47046047183 2.98543118071 -663.00317042538 199.07858389938)"/><path d="m-20.341813-136.56178-.386985-.28744-.385021.2905.153789-.45687-.395262-.27641.482032.00508.140736-.46133.144124.46001.482241-.00871-.392959.27922z" transform="matrix(-1.6494219957 -5.11636818435 -5.11636818435 1.6494219957 -719.67495639878 10.52756282413)"/><path d="m-20.341813-136.56178-.386985-.28744-.385021.2905.153789-.45687-.395262-.27641.482032.00508.140736-.46133.144124.46001.482241-.00871-.392959.27922z" transform="matrix(-.49901325971 -5.35245738756 -5.35245738756 .49901325971 -726.38920926641 -142.94451345281)"/><path d="m-20.341813-136.56178-.386985-.28744-.385021.2905.153789-.45687-.395262-.27641.482032.00508.140736-.46133.144124.46001.482241-.00871-.392959.27922z" transform="matrix(4.9870640192 2.00674023912 2.00674023912 -4.9870640192 346.33447995157 -705.24195895356)"/><path d="m-20.341813-136.56178-.386985-.28744-.385021.2905.153789-.45687-.395262-.27641.482032.00508.140736-.46133.144124.46001.482241-.00871-.392959.27922z" transform="matrix(4.23926890289 3.305512752 3.305512752 -4.23926890289 500.75426696151 -580.10713989297)"/><path d="m-20.341813-136.56178-.386985-.28744-.385021.2905.153789-.45687-.395262-.27641.482032.00508.140736-.46133.144124.46001.482241-.00871-.392959.27922z" transform="matrix(3.4340900613 4.13579997293 4.13579997293 -3.4340900613 591.2853922778 -458.86375412083)"/><path d="m-20.341813-136.56178-.386985-.28744-.385021.2905.153789-.45687-.395262-.27641.482032.00508.140736-.46133.144124.46001.482241-.00871-.392959.27922z" transform="matrix(2.2549567315 4.87985498211 4.87985498211 -2.2549567315 664.068328528 -289.58792073555)"/><path d="m-20.341813-136.56178-.386985-.28744-.385021.2905.153789-.45687-.395262-.27641.482032.00508.140736-.46133.144124.46001.482241-.00871-.392959.27922z" transform="matrix(.83484826641 5.31044659443 5.31044659443 -.83484826641 690.77093342543 -94.52345051556)"/><path d="m-20.341813-136.56178-.386985-.28744-.385021.2905.153789-.45687-.395262-.27641.482032.00508.140736-.46133.144124.46001.482241-.00871-.392959.27922z" transform="matrix(-.33826748372 5.36501516969 5.36501516969 .33826748372 673.56980277302 58.12935535123)"/><path d="m-20.341813-136.56178-.386985-.28744-.385021.2905.153789-.45687-.395262-.27641.482032.00508.140736-.46133.144124.46001.482241-.00871-.392959.27922z" transform="matrix(-5.3274245 .7185839 -.7185839 -5.3274245 -222.88497 -776.9673)"/><path d="m-20.341813-136.56178-.386985-.28744-.385021.2905.153789-.45687-.395262-.27641.482032.00508.140736-.46133.144124.46001.482241-.00871-.392959.27922z" transform="matrix(-4.9220182 2.1613775 -2.1613775 -4.9220182 -403.33744 -693.65403)"/><path d="m-20.341813-136.56178-.386985-.28744-.385021.2905.153789-.45687-.395262-.27641.482032.00508.140736-.46133.144124.46001.482241-.00871-.392959.27922z" transform="matrix(-4.3457714 3.1641882 -3.1641882 -4.3457714 -520.90652 -598.39987)"/><path d="m-20.341813-136.56178-.386985-.28744-.385021.2905.153789-.45687-.395262-.27641.482032.00508.140736-.46133.144124.46001.482241-.00871-.392959.27922z" transform="matrix(-3.3858481 4.1753859 -4.1753859 -3.3858481 -633.08566 -452.22359)"/><path d="m-20.341813-136.56178-.386985-.28744-.385021.2905.153789-.45687-.395262-.27641.482032.00508.140736-.46133.144124.46001.482241-.00871-.392959.27922z" transform="matrix(-2.1152581 4.9420136 -4.9420136 -2.1152581 -706.94228 -269.71776)"/><path d="m-20.341813-136.56178-.386985-.28744-.385021.2905.153789-.45687-.395262-.27641.482032.00508.140736-.46133.144124.46001.482241-.00871-.392959.27922z" transform="matrix(-.9915951 5.2834224 -5.2834224 -.9915951 -727.81294 -117.52324)"/><path d="m-20.341813-136.56178-.386985-.28744-.385021.2905.153789-.45687-.395262-.27641.482032.00508.140736-.46133.144124.46001.482241-.00871-.392959.27922z" transform="matrix(-5.3652063 -.3352252 .3352252 -5.3652063 -88.303726 -803.54901)"/></g><g stroke-width=".133048" transform="matrix(2.9074815 0 0 2.9074815 418.788292 613.901451)"><path d="m-46.683858-93.721302c1.27551-1.507094 2.943015-1.073811 3.74813-.895325 1.999037.709568 2.841689 2.242327 2.175158 3.951484 3.805179.111811 5.611182-.521169 6.064802-.958152 1.188931-1.293429.515884-4.723232 2.332008-4.625077 2.199644.478037-.559452 2.622054.131011 3.825282 2.238022-1.344024 8.633781-4.212553 11.86966-4.447847 3.970902-.399482 7.236212.455422 8.384748 1.388724 1.532837-4.767157 3.144073-11.572697 9.5376518-12.419907 2.46627228-.03234 2.93683024 1.34895 3.07476916 2.39762.08860595 1.20805-.62661748 2.13892-1.97936076 2.21053-1.1929108.18537-1.3879644-1.56954-2.9134943-1.32873-.937095.39613-1.4861344 1.12489-2.0628921 2.40801l4.3480725 4.056376c2.70706967-2.439486 5.4972941-4.657236 8.2043638-4.574366 2.4195852.05099 3.6455013 2.36527 3.4864271 3.634544-.1624937 1.29656-.3357936 2.131559-2.4379568 2.592604-2.113098.463443-3.2436523-2.011484-6.64374478.71446l-7.99724392 7.788354c2.6190121 1.17583 3.907548 2.601124 2.6182862 3.444334-1.7856499.837435-3.414919.819323-4.8715815 1.170836-1.7261464.416542-2.5686234.636191-2.3769384 4.490096l.016243.971347-14.196909.01007c1.812651-.453701 7.422703-2.293314 9.1522-6.017769l-.025122-3.061291 1.650534-.796112-.414477-.574366c-3.923017-2.365826-10.370764-1.111617-17.823085.26126-.06569 1.576514-.425521 3.94567-2.121312 4.994352l-.134064.375185c.288226.25329 1.575265 1.610842 1.57214 3.157382-.003126 1.546569-1.372347 3.183584-3.668327 3.196685-2.282879.013101-3.236154-2.207272-3.249091-3.183584-.012937-.989413.670408-3.55853 3.756857-3.536385l.183417-.454431c-.898563-.67105.092715-3.009607.361407-3.513907-1.662193.374055-4.343574.650112-6.770158.102978-3.47668-1.317499-4.052594-5.594563-2.982128-6.755264zm36.502412-.041657c.6206595-1.169453 3.0248976-6.180459 3.3319607-7.428311.28093.61413 3.1294294 3.482226 3.9003536 3.978752-.9865217.411596-5.1874051 5.09594-5.8995301 6.056329-.2613302-.803591-.9538553-2.097176-1.3327842-2.60677zm-27.973264 12.46545c0 .365421-.296574.661994-.661995.661994-.36542 0-.661994-.296573-.661994-.661994 0-.365422.296574-.661995.661994-.661995.365421 0 .661995.296573.661995.661995zm2.743966.999592c0 .365421-.296574.661994-.661995.661994-.36542 0-.661994-.296573-.661994-.661994 0-.365422.296574-.661995.661994-.661995.365421 0 .661995.296573.661995.661995zm-2.273571 1.803175c0 .365421-.296574.661994-.661995.661994-.36542 0-.661994-.296573-.661994-.661994 0-.365422.296574-.661995.661994-.661995.365421 0 .661995.296573.661995.661995z" fill="#c24900" stroke="#c24900"/><g fill="#db8e45" stroke="#db8e45"><path d="m-43.222498-91.559842c-1.940484-.657917-1.107173-2.076285-.235956-1.917399 2.502821.652162-.317136 2.793667 1.387904 3.973631 1.18861.670404 6.67538-.047989 7.658193-.955366 1.207954-1.438746 1.075822-5.17148 1.921807-4.99017.730576.284009-1.446436 3.869375-.81141 4.712266 2.930979-.62335 7.331024-4.517454 13.033827-4.835902 4.968759-.288609 6.903592 1.148378 7.8581 2.026243 1.975018 1.465943 2.4996539 3.911873 2.7498928 5.04462.4738534-.58502 10.16551314-12.842321 14.7698644-13.051011 2.4929894.0017 2.8897639 1.28401 2.4762726 1.51786-1.1182712.370446-.8206946-.56697-2.0784357-.53654-3.7980374.32241-12.6004438 10.013268-14.4590193 12.512791 1.8224852 1.417176 1.7866935 1.899473 1.5230072 2.410064-.5783439.744769-1.7768697-.290227-2.3492203-.367119-1.1202517-.150501-2.2852927 4.315277-4.6090037 6.420623l-5.121792-.016201c5.046612-.924095 6.50022-4.490697 7.386927-6.353174 1.509784-2.765389-.821986-6.941961-4.721738-7.041781l4.301019 3.830826-2.63309-.006142-1.758812-1.696956c-2.467808-2.019348-9.123444-1.264067-17.157848 1.771905-.859788 1.673471-1.248368 5.259503-1.830974 5.048133-.649099-.393868.967402-4.438659 1.236094-4.942959-1.0742.217257-5.864478.6798-7.154275.309064-1.543366-.413701-2.157803-1.216611-1.381334-2.867306z"/><path d="m-11.407365-94.995248c.80534-2.828813 3.3781178-9.866512 8.4305738-11.913672 1.0532301-.25294 1.4285287.25122 1.6339001.60911.1489321.24265.37896312 1.18469-.9383115 1.29532-.620346.04407-.5617446-.69457-1.8748941-.50533-2.2501028.68543-5.2705668 6.883256-6.3655213 10.607288-.15231.523379-.975769.376189-.885747-.092716z"/></g></g></g></svg>