<svg xmlns="http://www.w3.org/2000/svg" xmlns:xlink="http://www.w3.org/1999/xlink" width="1230" height="795"><rect width="1230" height="795" fill="#6caee0"/><rect width="820" height="795" fill="#fff"/><rect width="410" height="795" fill="#e41b23"/><g transform="translate(615,397.5)"><g id="e"><g id="f"><g id="t"><path id="o" fill="#cfa55b" stroke="#cfa55b" stroke-width="3.534" stroke-linejoin="round" d="m7.4912,96.06-6.438,85.6011-10.185-86.1564c-7.6199,9.3734-6.3886,8.5705-5.8637,14.8398,3.4686,12.127,2.9524,21.4837,0.3357,24.7188-3.0547,3.7765-6.2143,5.3872-10.8324,8.3311l-0.4536,2.825c2.5416,7.0825,1.4329,13.297,0.9445,16.6963-0.9695,6.7476-4.2395,10.5985-7.3113,15.0052,2.1231-4.1222,2.7103-8.1521,2.3195-12.6416-0.3978-4.5692-3.3761-13.0452-5.8194-18.113-0.6048-1.2545,0.837-3.1781,2.1473-5.2703l7.5706-12.0875-5.0114-18.1728c-1.6071-5.8969,2.231-13.8534,3.472-20.3312l2.6864-21.2032,35.9104,3.9428z"/><use xlink:href="#o" transform="rotate(180)"/></g><use xlink:href="#t" transform="rotate(90)"/></g><use xlink:href="#f" transform="rotate(45)"/></g><use xlink:href="#e" transform="rotate(22.5)"/><circle r="85" fill="#fff"/></g></svg>