<svg height="200" width="300" xmlns="http://www.w3.org/2000/svg" xmlns:xlink="http://www.w3.org/1999/xlink"><clipPath id="a"><path d="m11600200 27707200s-65220-175610-667340-130470c-572020 45170-898140 40160-998510 0-105370-40130-195680-65210-341190-95310-120440-20090-366300-45180-301050-40170-125420-15030-240850 0-240850 0s-25070 20080 40150-85300c55200-85300 170600-125410 321110-301060 48730-56850 805430-12790 863020 0 70270 15070 150550 10060 180660 0 30090-10020 371280-15030 521830 0 185200 40290 451640 57960 492000 57520 105900-1160 145240 103060 160260 273650 15070 175630 25110 65250-30090 321140z"/></clipPath><clipPath id="b"><path d="m11018100 29368000s-371290 90310-426490-40170c-30100-65200-50150-566970-275970-727530-230830-155570-332600-290020-824420-666110-150640-115190-294530-196920-349680-292240-40170-70260-45180-165580-90340-200730 0 0 281020-30100 732580 80280 0 0-65250 220780 80290 296050 80280 40130 265950 316130 551940 451580 270920 125450 436500 577030 521800 822900 95360 270960 80290 275970 80290 275970z"/></clipPath><clipPath id="c"><path d="m9673400 29448300s361270-70260 426490-40160c65220 35150 135470-411450 366280-571980 265950-180650 702480-521840 1133980-1128970 0 0-95320-175610-516800-120410 0 0-10060 205710-55180 285990-50190 80290-275970 411450-562000 521830-285990 110360-506780 426490-602090 697450-95320 270960-190680 356250-190680 356250z"/></clipPath><g transform="translate(-79.857277 -138.00513)"><path d="m79.857277 138.00513h300v200h-300z" fill="#75aadb" fill-rule="evenodd"/><path d="m79.857275 203.00513v70h.201883zm.346087 0 67.227468 34.53947-67.198629 35.46053h299.625079v-70z" fill="#fff" fill-rule="evenodd"/><g transform="matrix(.9227543 0 0 .9227543 17.75549 22.214436)"><g id="d" fill="#fcbf49" stroke="#843511" stroke-width="1.5" transform="matrix(.07194755 0 0 .07194755 229.85728 213.0976)"><g id="e"><g id="f"><g id="g"><path d="m-8 0 6 159.5s0 3 2 3 2-3 2-3l6-159.5"/><path d="m-4 0 4 109.5 4-109.5" fill="#843511" stroke="none"/><g transform="matrix(.9799247 .1993679 -.1993679 .9799247 0 0)"><path d="m-4.5 53.5c-5 21.5 6 36 .5 55s3 32 4 40-5 11.5-3 13 8-3.5 8.5-14.5-7-15.75-.5-39-4-31 3-52"/><path d="m-1 58c-3 21 7 32.5 1 51 8-14-2-28 3-50" fill="#843511" stroke="none"/></g></g><use height="200" transform="scale(-1)" width="300" xlink:href="#g"/></g><use height="200" transform="rotate(90)" width="300" xlink:href="#f"/></g><use height="200" transform="matrix(.7071068 .7071068 -.7071068 .7071068 0 0)" width="300" xlink:href="#e"/></g><use fill="#fcbf49" height="200" stroke="#843511" stroke-width="1.5" transform="matrix(.9238795 .3826834 -.3826834 .9238795 99.045762 -71.741468)" width="300" xlink:href="#d"/><circle cx="229.85728" cy="213.0976" fill="#fcbf49" r="4.67659075" stroke="#843511" stroke-width=".07194755"/><g id="h" fill="#843511" stroke-width="1.5" transform="matrix(.07194755 0 0 .07194755 229.85728 213.0976)"><path d="m41-14c-11.5-10-26-11.5-34-4-5.8063727 7.76306-5.2889764 16.9037284 1.5 26.5-.5 0-1.5.5-2 1-5.042555-9.60281648-5.90994857-19.491103-2.5-28.5 11-9 26-10 37 5"/><path d="m23-17c-6.5 0-8 1.5-11 4s-4.5 2-5 2.5 0 2 1 1.5 3-1.5 6-4 6-2.5 9-2.5c9 0 14 7.5 15 7s-5-8.5-15-8.5"/><path d="m34.5-8.5c-6.5-7-18.5-7.5-23.5.5h2c5-8 17-4.5 18-1v1"/><circle cx="22" cy="-9" r="4.5"/><path d="m11-8c5 4.5 16 5 23.5-.5l-3.5-.5c-5 5.5-13 5-18 1v-1"/><path d="m35-6c-8.5 6.5-17 6-22 3s-5-4-4-4 2 1 6 3 10 2 20-2"/><path d="m10.5 9c1.41609.5034893 2.241084 1.977139 1.930035 3.447534-.311049 1.470394-1.66214 2.483712-3.1608125 2.370609-1.4986724-.113103-2.6823779-1.31772-2.7692225-2.818143-.5 1-2.5 4-6.5 4h-1l1 1.5c1 0 4 0 6-1.5 1.1633883 1.669092 3.3019644 2.349966 5.216194 1.660715 1.91423-.68925 3.127878-2.577147 2.960205-4.604763s-1.674951-3.6905072-3.676399-4.055952"/><path d="m16.5 30c-4.5-3-6.5-7.5-11.5-7.5-1 0-3 .5-5 1.5h-1l1 1.5c2 0 5-2.5 8.5-.5s5.5 4 8 5"/><path d="m15 30c-10-3-12-1-15-1h-1l1 2c4 0 6-3 15-1"/><path d="m16.5 30c-11-1-7.5 5.5-16.5 5.5h-1l1 1.5c11 0 6-6 16.5-7"/><path d="m9 46c0-4.970563-4.0294373-9-9-9s-9 4.029437-9 9c.9896729-4.169968 4.7141993-7.113999 9-7.113999s8.0103271 2.944031 9 7.113999"/></g><use fill="#fcbf49" height="200" stroke="#843511" stroke-width="1.5" transform="matrix(-1 0 0 1 459.71455 0)" width="300" xlink:href="#h"/><path d="m247.24542 237.57615c0 12.27461-7.78535 22.22887-17.38545 22.22887-9.60009 0-17.38544-9.95426-17.38544-22.22887 0-12.2746 7.78535-22.22887 17.38544-22.22887 9.6001 0 17.38545 9.95427 17.38545 22.22887z" fill="#fff" stroke="#1f1a17" stroke-width=".078377"/><path d="m212.75593 236.66423c.12225-11.77 7.8226-21.26753 17.24569-21.27065 9.42309-.00313 17.04 9.48933 17.05882 21.25928" fill="#75aadb" fill-rule="evenodd"/><g stroke="#1f1a17" transform="matrix(.00000237 0 0 .00000238 206.31481 196.62364)"><g transform="matrix(.9767602 .2143349 -.2143349 .9767602 2554150.8151808 -1983882.3171259002)"><path d="m8939290 10635200s-227370 752830-389050 1520830c-161690 767960-222320 702290-192000 1308570 0 0-287980 474940 2010900 474940 2076610 0 1788590-474940 1788590-474940s-85890-1035760-217260-1197420c0 0 55570-1035800-293070-1359130 0 0-35320-636630-414280-858940 0 0-65670-545690-606310-606320 0 0-227360-257660-606280-257660 0 0-671980 192000-798310 318290 0 0-671980 576000-798280 798310 0 0-449700 95990-288020 419360 156650 318290 702300 126330 666950-65670 0 0 510290-65700 737680-257700 0 0 0-191970-227390-222320 0 0 227390 96020 227390 222320s510260 323370 894260 65700c0 0-399130 272850-894260-65700 111160 80830 0 0 0 0s-358740 237480-601260 237480z" fill="#da251d" stroke-width="33020"/><g fill="none" stroke-width="7620"><path d="m8469400 10887800s161650-55580 176820-161690"/><path d="m8348150 10877700s131340-65670 161680-126300"/><path d="m8211720 10806900s60630 5050 121260-40400"/><path d="m8140980 10721100s55570 30310 121280-25260"/><path d="m8782640 10569500s45500 45450 131390 60630"/><path d="m8853400 10503800s126290 101070 252630 96010"/><path d="m9035270 10463400s96020 85890 217260 85890"/><path d="m9459710 10104600s-55570 80850 15140 151570"/><path d="m9540550 10185500s-40430 151560 5020 207130"/><path d="m9636530 10261300s-65670 116240 0 186960"/><path d="m9737570 10337100s-40410 96020 50530 166740"/><path d="m8428990 10286500s111170-40390 176820-5040"/><path d="m8514880 10185500s106080-35390 186950 0"/><path d="m8636130 10054100s116200-45500 217270-15180"/><path d="m8782640 9902550s101070-40430 181910 25270"/><path d="m9803270 9255800s176830-30270 277890 50540"/><path d="m9621360 9321510s262760-45460 363820 10090"/><path d="m9464720 9372010s328420-50500 419400 30350"/><path d="m9363690 9417490s318300-45480 399140 40410"/><path d="m9297990 9457900s262750-25240 343590 55610"/><path d="m9222220 9523600s212180-40440 262720 35360"/><path d="m9131290 9584230s176830-30310 232400 40430"/><path d="m9060530 9654970s151570-30310 217280 25280"/><path d="m8989810 9720640s151570-35350 192000 15180"/><path d="m8893810 9801490s96000-40440 192000 15170"/><path d="m10187200 9200230s85930 50560 75800 146540"/><path d="m10359100 9255800s106070 116210 106070 176860"/><path d="m10606600 9432660s50520 65680 55610 166740"/><path d="m10768300 9473070s65720 181900 15180 277920"/><path d="m10904700 9538770s40430 171780 5040 262720"/><path d="m11061300 9680250s65670 257670-45480 490070"/><path d="m11111900 10377500c80850-171780 85890-464850 85890-464850"/><path d="m11303900 10109700s0 378950-136430 570950"/><path d="m11425100 10225900s85890 363780-151590 773050"/><path d="m11581800 10559400s-25260 409260-277890 692200"/><path d="m11662600 10908000s-277890 671940-399140 818490"/><path d="m11733300 11044400s-151550 591100-454700 894260"/><path d="m11824300 11206100s-106080 500200-424410 788180"/><path d="m11900100 11519400s-151590 399140-373870 586060"/><path d="m11935400 11767000s-15140 262710-171780 378910"/><path d="m10672300 11741700s-272850 197020-464850 237450"/><path d="m10273200 11857800s-237480 131410-358740 151590"/><path d="m10768300 11812400s-126280 126300-318280 176860"/><path d="m10879400 11857800s-121250 96020-217230 136420"/><path d="m10990600 11898300s-85890 90970-166740 111150"/><path d="m11167500 9831800-181900 161690"/><path d="m11031000 9649900-141400 85920"/><path d="m11096700 9705510-192000 111150"/><path d="m11127000 9761050s-141460 126330-197040 141500"/><path d="m11207900 9927820s-166740 176820-202090 176820"/><path d="m11233100 10054100-227300 192000"/><path d="m11303900 10109700s-181910 186950-217260 217270"/><path d="m11384700 10175400-282900 288000"/><path d="m11455400 10281500-318300 303100"/><path d="m11521100 10392600-353600 328500"/><path d="m11940500 12105400-116200 91000"/><path d="m11940500 12004400-237500 156600"/><path d="m11935400 11868000s-328430 272850-368820 272850"/><path d="m11935400 11731600s-409230 353680-490080 358730"/><path d="m11920300 11605300s-328420 318300-479980 399140"/><path d="m11884900 11478900s-454710 439570-525460 444620"/><path d="m11869800 11347600s-479980 449670-520420 449670"/><path d="m11829300 11261700-525400 414300"/><path d="m11804100 11165700s-308240 262710-444660 353680"/><path d="m11758600 11069700s-277890 232440-373910 303160"/><path d="m11677800 10968600s-192000 186960-333470 277900"/><path d="m11647400 10847400s-217230 222280-373870 308200"/><path d="m11622200 10726100s-247570 277890-469890 373910"/><path d="m11591900 10630100s-247580 242520-378960 287980"/><path d="m11556500 10503800s-197090 207180-343610 303150"/><path d="m8914030 10766500 186950-55500"/><path d="m8878660 10887800 247580-80900"/><path d="m8843270 10999000 242540-65700"/><path d="m8787730 11155600 242490-96000"/><path d="m8772550 11261700 247540-80900"/><path d="m8732110 11403100 272850-111100"/><path d="m8701830 11524400 247550-96000"/><path d="m8671490 11660800 227360-85800"/><path d="m8631050 11812400 222350-106100"/><path d="m8605810 11918500 252630-96000"/><path d="m8590640 12019600 252630-86000"/><path d="m8565420 12100400 343520-106100"/><path d="m9419270 10584600s161690-106110 181870-146500"/><path d="m9489990 10670500s192000-136410 217300-176820"/><path d="m9545570 10756400s227390-131380 288010-212180"/><path d="m9747690 10806900s191970-192000 207140-237450"/><path d="m9863900 10852400s212180-197050 232440-277900"/><path d="m10106400 10806900s101030-126300 136390-257670"/><path d="m10283300 10751400s85890-106110 95980-242520"/><path d="m8893810 13186700-318300 429500"/><path d="m10834000 13793000s262720 106110 500200 80840"/><path d="m10945100 13732400s343570 151550 732610 101030"/><path d="m11329100 13722200s308200 166770 717440-60630"/><path d="m11521100 13641400s389050 96020 565910-35370"/><path d="m11521100 13227100-560800 661900"/><path d="m11607000 13257400-469900 586100"/><path d="m11728300 13302900-419400 500200"/><path d="m11829300 13358500-368800 459800"/><path d="m11940500 13419100-212200 343600"/><path d="m12051600 13464600-126300 217200"/><path d="m8479490 13661600c25260-60620 131380-95980 186950-121240"/><path d="m8600770 13727300c0-20230 50540-50540 65670-55590"/><path d="m12112300 13530200c5040 50530-35370 75790-70720 96020"/></g></g><g transform="matrix(.9767602 .2143349 -.2143349 .9767602 2554150.8151808 -1983882.3171259002)"><path d="m8348150 13535300c65660-288020 1136790-591150 2031080-591150 909480 0 1778500 495130 1793630 575960 10130 45490-80800-1076160-191960-1237850-80840-116200-1162090-272850-1157040-272850-192000 0-151560-15170-535570-20180-666930-10130-1601630 222280-1682480 252590-80830 35390-207130-70720-262740 565910-70720 778090 5080 727570 5080 727570z" fill="#da251d" stroke-width="33020"/><g fill="none"><path d="m11980900 12282300-510300 111100" stroke-width="7620"/><path d="m12021300 12373200-429400 126300" stroke-width="7620"/><path d="m12061700 12499500-485000 141500" stroke-width="7620"/><path d="m12076900 12620800-581100 207100" stroke-width="7620"/><path d="m12107200 12762300-434500 141400" stroke-width="7620"/><path d="m12132500 12903700-469900 187000" stroke-width="7620"/><path d="m12157700 13065400-409200 176900" stroke-width="7620"/><path d="m12172900 13232200-277900 106100" stroke-width="7620"/><path d="m12183000 13383700-111200 50600" stroke-width="7620"/><path d="m10530800 12140800-267800 156600" stroke-width="7620"/><path d="m10586400 12196400-227300 111200" stroke-width="7620"/><path d="m10576300 12282300-126300 65700" stroke-width="7620"/><path d="m10657100 12297400-136400 80900" stroke-width="7620"/><path d="m10783500 12307600-141500 85800" stroke-width="7620"/><path d="m10879400 12332800-126300 70700" stroke-width="7620"/><path d="m11000700 12348000-96000 45400" stroke-width="7620"/><path d="m11096700 12363100-65700 40400" stroke-width="7620"/><path d="m8580550 12252000 146520 45400" stroke-width="7620"/><path d="m8469400 12297400 202090 65700" stroke-width="7620"/><path d="m8428990 12373200 207140 85900" stroke-width="7620"/><path d="m8403730 12449000 151560 75800" stroke-width="7620"/><path d="m8383510 12524800 131370 70700" stroke-width="7620"/><path d="m8363290 12610700 116200 45500" stroke-width="7620"/><path d="m8348150 12696600 106070 50500" stroke-width="7620"/><path d="m8343070 12807800 96020 40400" stroke-width="7620"/><path d="m8343070 12898700 85920 55600" stroke-width="7620"/><path d="m8332980 12984600 80830 50500" stroke-width="7620"/><path d="m11677800 12277200 343500 111200" stroke-width="7620"/><path d="m11581800 12317600 479900 187000" stroke-width="7620"/><path d="m11566600 12418700 505200 181900" stroke-width="7620"/><path d="m11612100 12514700 480000 207200" stroke-width="7620"/><path d="m11612100 12656200 520400 212200" stroke-width="7620"/><path d="m11647400 12777400 495200 217300" stroke-width="7620"/><path d="m11743400 12944200 404200 166700" stroke-width="7620"/><path d="m11687800 13019900 469900 227400" stroke-width="7620"/><path d="m11748500 13161400 414300 207200" stroke-width="7620"/><path d="m10894600 13075500s530500 247570 727550 252620" stroke-width="7620"/><path d="m9474850 13343300 389050-363800" stroke-width="7620"/><path d="m9666850 12999700-353690 338600" stroke-width="7620"/><path d="m9419270 13050300-293030 348600" stroke-width="7620"/><path d="m9222220 13095700-328410 424400" stroke-width="7620"/><path d="m9050440 13136100-318330 449700" stroke-width="7620"/><path d="m8671490 13272600-161660 232400" stroke-width="7620"/><path d="m10657100 13191700 252700-171800" stroke-width="7620"/><path d="m10662200 13267500 363800-227300" stroke-width="7620"/><path d="m10672300 13368600 485000-293100" stroke-width="7620"/><path d="m10687500 13464600 586000-343600" stroke-width="7620"/><path d="m10743000 13272600s646760 313280 1192410 247570" stroke-width="7620"/><path d="m10753100 13171500s540610 303150 1202500 293020" stroke-width="7620"/><path d="m10743000 13075500s560870 303150 975180 323370" stroke-width="7620"/><path d="m9596140 13393800 459760-424400" stroke-width="7620"/><path d="m10066000 13121000s348630-70750 525460 15140" stroke-width="7620"/><path d="m8403730 13505000s505210-525460 1995720-525460c207150 0 1045890 60610 1748190 565870" stroke-width="12700"/><path d="m10055900 13075500s186910-95980 535550-10090" stroke-width="7620"/><path d="m8459310 13520100s641670-500200 1909830-500200c869030 0 1525870 414320 1748150 555780" stroke-width="7620"/><path d="m8843270 13358500s853890-338520 1535960-282930c677070 55570 1121690 181910 1571330 469890" stroke-width="7620"/><path d="m8408770 13606000c5040-65660 65670-95980 116210-116200 95980-35350 192000-70710 298110-55570" stroke-width="7620"/><path d="m11394800 13171500c-20220 25260-50540 30300-70760 50520-80850 106080-146510 207130-242530 293030" stroke-width="7620"/></g></g><path d="m10014559 12871975v6783097c-320719 324008-623338 18165-623338 18165v-6801231s623338-141919 623338 0z" fill="#8f5444" stroke-width="23711.503906"/></g><g stroke="#1f1a17" transform="matrix(.00000237 0 0 .00000238 205.18058 192.25573)"><path d="m3238420 20845200c190820-53670 1186360-315930 1448630-357690 268300-35760 941910-280170 1079010-321880 131170-35810 971740-220590 1383060-220590 417320 0 715380-208680 1436720-304020 715380-95380 655720-131150 655720-131150s-679570 298070-453030 697470c226490 393460 828620-41710 906100-77520 77520-35760 727280-309980 1007500-327880 280160-17860 524600 6000 715380 310020 190730 304060 351690 369600 459030 631890 83440 190780 405360 1138650 143050 1216140-89420 23850-214620 35770-405350-226540-184830-262300-697520-959770-697520-959770s810760 1013450 852480 1186310c35770 166920-125150 262310-292110 202680-542470-178830-584190-363640-953830-733250 0 0 536560 667690 906150 715400 202680 29800-226540 244390-381540 262290-149020 23860-470900-131140-941890-637890 0 0 512670 506750 852500 661750 0 0-381510 244360-870350-23860-488890-262290-733280-578270-1055210-637890-315930-53630-882300-131160-1126700-53630-244410 71540-792860 429230-1114790 602090-315970 166920-1162470 584190-1311470 673660-149050 95340-1013450 679590-1204230 774960 0 0-488840-989580-637860-1448620-208630-631890-399450-1472480-399450-1472480z" fill="#ef9ba0" stroke-width="33020"/><path d="m8395060 21691700c-95390 0-208630 11900-190780 220590 17910 208630 107300 298050 220590 298050 113240 0 196730-65560 196730-250390 0-190770 95390-244400-226540-268250z" fill="#ef9ba0" stroke-width="33020"/><path d="m8627550 22007600c5950 155000-95390 226540 143060 310010 256360 83480 339830-41710 339830-226540 0-190770 101340-333870-208670-321920-160920 5960-280170-149020-274220 238450z" fill="#ef9ba0" stroke-width="33020"/><path d="m9092530 22162600c-5950 119250-29800 304030 214590 333830 208690 23860 220590-178820 238490-256290 17910-77540-59610-250410-178860-327880-208630-143110-256310-125200-274220 250340z" fill="#ef9ba0" stroke-width="33020"/><path d="m9545610 22240200c-11950 95340 71540 321880 262320 339780 190760 17900 339780-113290 280200-172880-35810-35750-470980-268250-542520-357680-59610-59630 17910 41710 0 190780z" fill="#ef9ba0" stroke-width="33020"/><g fill="none"><path d="m8269860 21721500 113300 35700" stroke-width="10160"/><path d="m8216230 21805000 149020 65500" stroke-width="10160"/><path d="m8204280 21912300 190780 65600" stroke-width="10160"/><path d="m8263910 22079200 143060 17900" stroke-width="10160"/><path d="m8657360 21799000 465000 71500" stroke-width="10160"/><path d="m8651410 21864600 447080 83500" stroke-width="10160"/><path d="m8621600 21960000 327880 71500" stroke-width="10160"/><path d="m8627550 22049400 256350 47700" stroke-width="10160"/><path d="m8621600 22156700 250400 71500" stroke-width="10160"/><path d="m9164070 21846700 143050 47700" stroke-width="10160"/><path d="m9128310 21918300 208670 59600" stroke-width="10160"/><path d="m9110440 22091100 125160 17900" stroke-width="10160"/><path d="m9122360 22210400 137100 41700" stroke-width="10160"/><path d="m9128310 22317700 172910 35700" stroke-width="10160"/><path d="m9533660 22126900 101340 35700" stroke-width="10160"/><path d="m9545610 22240200 149020 35700" stroke-width="10160"/><path d="m9563520 22365300 143070 23900" stroke-width="10160"/><path d="m9635000 22466700 160980 17900" stroke-width="10160"/><path d="m10934600 20809400 190800 17900" stroke-width="10160"/><path d="m10994200 20857100 161000 53700" stroke-width="10160"/><path d="m11107500 21000200 131200 23800" stroke-width="10160"/><path d="m11185000 21083700 113300 35700" stroke-width="10160"/><path d="m11268500 21196900 101300 17900" stroke-width="10160"/><path d="m11340000 21286300 113300 41800" stroke-width="10160"/><path d="m11417500 21411500 196700 29800" stroke-width="10160"/><path d="m11501000 21506900 220500 53700" stroke-width="10160"/><path d="m11560600 21608200s506710 95390 524610-47660" stroke-width="10160"/><path d="m11626100 21685800s488840 53610 488840-29830" stroke-width="10160"/><path d="m11661900 21739400s357690 107340 465000-5950" stroke-width="10160"/><path d="m11298300 22079200s459030-160950 411320-274250c0 0 339830 59620 405400 23860" stroke-width="10160"/><path d="m11775200 21900300s226530 47710 292070 0" stroke-width="10160"/><path d="m10571000 19903300s292110-119200 363640-95340" stroke-width="10160"/><path d="m11059800 19837700c-125200-65620-310030 143050-310030 143050" stroke-width="10160"/><path d="m10946500 19968900s160950-119250 262290-71570" stroke-width="10160"/><path d="m11071700 20028500s166930-95390 232490-47680" stroke-width="10160"/><path d="m11220800 20082100s101340-35760 149020-17900" stroke-width="10160"/><path d="m11286400 20159600s95390-35760 143050-17860" stroke-width="10160"/><path d="m11363800 20225200s83470-47680 131150 11950" stroke-width="10160"/><path d="m11405600 20338500s95390-65580 155000-17900" stroke-width="10160"/><path d="m11501000 20421900s77480-53630 131140-29820" stroke-width="10160"/><path d="m11548700 20505400s107290-35760 149020-23850" stroke-width="10160"/><path d="m11632100 20600800s113300-65580 143110-29810" stroke-width="10160"/><path d="m11691700 20678300s101340-29810 143050-11910" stroke-width="10160"/><path d="m11721500 20779600s131150-65580 155010-35780" stroke-width="10160"/><path d="m11769200 20857100s107340-47710 137140-29810" stroke-width="10160"/><path d="m11805000 20940600s101370-35760 131150-17860" stroke-width="10160"/><path d="m11805000 21018000s131150-29800 160960 0" stroke-width="10160"/><path d="m11870500 21101500s83480-11920 119240 0" stroke-width="10160"/><path d="m11918200 21196900s65610-41710 101370 5950" stroke-width="10160"/><path d="m11954000 21286300s65570-23850 95390 23810" stroke-width="10160"/><path d="m11983800 21375700s53630 6000 83440 35760" stroke-width="10160"/><path d="m12001700 21477100s77440 11950 95350 47710" stroke-width="10160"/><path d="m11202900 22031500s441180-101340 429220-262300" stroke-width="10160"/><path d="m11369800 22126900s375590-113240 357680-214580" stroke-width="10160"/><path d="m11501000 22162600s256340-89390 268250-178830" stroke-width="10160"/><path d="m10976300 20809400 649800 846500" stroke-width="10160"/><path d="m10177500 21787100s649810 643840 828620 602080" stroke-width="10160"/><path d="m10577000 22240200c59580 29800 315930 196710 315930 196710s-238500 59580-286160 59580c-566320 0-1049210-459030-1126690-536510-321930-309980-1228040-292110-1228040-292110s-47730 0-113290 0c-65590 0-298080-23820-1239990 542500-47680 29830-125200 59630-160930 77490-35800 17900-59610 35770-113290 77490-59620 35800-101340 41750-143050 71560-35780 29780-178830 95390-238490 107260-53640 6000-101350 65620-149030 89470-47710 29780-226530 137070-256340 143070-29810 11910-184780 35760-232490 83470-47710 47680-256350 178830-256350 178830s-47680 47660-113240 95340c-65590 47710-160980 65620-214590 107340-59630 35760-125200 107300-155020 137100-23860 29810-411350 262300-578280 333840" stroke-width="10160"/><path d="m3238420 20875000c29860 17900 631940-166920 697520-166920 65540 0 387470-77490 423230-77490 35800 0 488830-65570 518660-83440 29800-17900 262300-65610 304050-77520 101350-35770 357640-149050 405320-160970 41760-5950 119250-95370 202740-101340 89420-11940 709420-178860 834570-178860 65580 0 280220-83440 393460-41710 77490 35760 405350-35780 482890-35780 71530 0 375540-71520 441120-83440 65590-11950 244450-95420 310030-95420 65570 0 387450-35770 488840-17870 107290 17870 143050 11920 143050 11920l29820-59580s-643860-11950-935980 113240c-292100 125200-298050 83440-363640 83440-65580 0 149060-53630 196730-65530 47720-6000 405400-131150 584230-131150s453080-29810 566330-35810c113290-11900 65580-65580 65580-65580s-154970 65580-441130 35810" stroke-width="10160"/><path d="m3858410 20714000s983640-196730 1096940-208640c113240-5950 697470-250390 697470-250390s65530-29810 137120-47680c77470-17900 172860-59620 172860-59620s-292110 59620-470940 143060c-178830 83480-369590 125240-423270 149070-59610 29800-333830 77470-405370 89420-77510 5950-172900 23820-226540 41720-59610 23860-417300 107300-417300 107300s435180-160970 566330-160970" stroke-width="10160"/><path d="m10827300 22430900s-321930 113210-757100-95420" stroke-width="10160"/><path d="m10785600 22401100s-184810 65540-429250 5950" stroke-width="10160"/><path d="m10588800 22275900s274250 160950-178830 113240" stroke-width="10160"/><path d="m10946500 20857100 620000 858440c59610 166910-488860 250350-488860 250350" stroke-width="10160"/><path d="m10666400 21542700s494800 596140 959780 614000" stroke-width="10160"/><path d="m10278900 21846700s536520 560370 798810 536520c0 0 488860-155010 339840-196730-447130-143060-727330-518650-727330-518650" stroke-width="10160"/><path d="m11381800 22174600s-244440 190740-417320 178830" stroke-width="10160"/><path d="m11268500 22120900s-149020 196720-417310 178860" stroke-width="10160"/><path d="m11185000 22079200s-226540 196740-447130 172880" stroke-width="10160"/></g><path d="m17408700 22126900s-727300-339780-989600-411320c-95390-29800-327880-83480-792860-286170-131150-53660-1144570-429200-1842090-828620-697470-393460-1257840-822670-1925510-1299570-131150-95420-357680-280200-470930-375590-113290-95390-429220-244400-810730-113250-375600 131150-1090970 584180-1389050 715330-304020 131170-566320 375560-399390 679620 172860 298070 512690 154970 792860-17900-11950 5960 834570-357690 977670-357690 208640 0 584200-286110 1114790 620000 524570 906160 488810 1108840 411320 1466530 0 0 149060 77480 435180 77480 95390 0 488830 470940 1073030 810770 584230 339780 2211680 1806310 2569370 1919560 0 0 453080-745200 661760-1138650 375540-727250 584180-1460530 584180-1460530z" fill="#ef9ba0" stroke-width="33020"/><path d="m8931580 19754200c83440-47660 459030-47660 506710 29820 59660 83470-71540 292110-214610 357690-238440 107300-393440 119200-423250 5950-47680-184820-113290-250390 131150-393460z" fill="#ef9ba0" stroke-width="33020"/><path d="m8919670 20243100s137110 95390 244400 113250" fill="none" stroke-width="10160"/><path d="m9146170 20189400s113290 113290 226530 89430" fill="none" stroke-width="10160"/><path d="m9259460 20141700s172910 65570 321930 47670" fill="none" stroke-width="10160"/><path d="m9813880 19951000s77520 65580 160960 59630" fill="none" stroke-width="10160"/><path d="m9986740 19867500s65580 65540 196730 53630" fill="none" stroke-width="10160"/><path d="m10231200 19784100s95420 65570 178860 65570" fill="none" stroke-width="10160"/><path d="m10445800 19766200s89440 53660 155020 53660" fill="none" stroke-width="10160"/><path d="m11089600 19629100-77500 172800" fill="none" stroke-width="10160"/><path d="m10618700 19718500s137140 71540 214630 71540" fill="none" stroke-width="10160"/><path d="m11208800 19885400s256370 83470 333880 77470" fill="none" stroke-width="10160"/><path d="m11369800 20028500s107290 35760 196730 35760" fill="none" stroke-width="10160"/><path d="m11596300 20338500s113240 17860 214630 29810" fill="none" stroke-width="10160"/><path d="m11697700 20457700s95390 77520 220540 77520" fill="none" stroke-width="10160"/><path d="m11811000 20648500s95370 35760 202640 17900" fill="none" stroke-width="10160"/><path d="m11888400 20791500s125170 23860 244440 6000" fill="none" stroke-width="10160"/><path d="m11936100 20904800s149050 47660 274250 17900" fill="none" stroke-width="10160"/><path d="m11983800 21018000s405370 137150 590150-202680" fill="none" stroke-width="33020"/><path d="m12055400 21196900s59610 0 107290-17900" fill="none" stroke-width="10160"/><path d="m12097100 21328100s29820 17850 95390-29830" fill="none" stroke-width="10160"/><path d="m12126900 21495000s65570 17900 113280-17910" fill="none" stroke-width="10160"/><path d="m12126900 21703600s196720 53630 232490 17910" fill="none" stroke-width="10160"/><path d="m12126900 21799000s155000 53660 220570 29810" fill="none" stroke-width="10160"/><path d="m12126900 21864600s131150 101340 393450 101340c0 0 113240 77530 149050 107340 59630 35760 643810 524610 733250 560370 95390 41680 691520 470940 1150550 828590 119200 95390 947880 780960 1025350 852530 190780 154970 584200 381510 584200 381510" fill="none" stroke-width="10160"/><path d="m8943530 19694600s232440-65540 363590-41720" fill="none" stroke-width="10160"/><path d="m9187920 19527700s476910-77470 536520-17850" fill="none" stroke-width="10160"/><path d="m9545610 19337000s292120-41780 357660 11900" fill="none" stroke-width="10160"/><path d="m9807930 19205800s280200-35730 327880 23850" fill="none" stroke-width="10160"/><path d="m9974840 19104400s268260-11910 309970 47710" fill="none" stroke-width="10160"/><path d="m10201400 19003100s154980-47680 286130 53660" fill="none" stroke-width="10160"/><path d="m10362300 18913700s190760-35780 321930 77480" fill="none" stroke-width="10160"/><path d="m10541200 18842200s143070-35810 256360 53630" fill="none" stroke-width="10160"/><path d="m10976300 18764700s113300 47710 17910 172860" fill="none" stroke-width="10160"/><path d="m11173100 18824300s131150 89440 77490 202680" fill="none" stroke-width="10160"/><path d="m11322100 18889900s59630 71520 11900 184810" fill="none" stroke-width="10160"/><path d="m11495000 19104400s47710-29780 95390-11910" fill="none" stroke-width="10160"/><path d="m11596300 19217700s113240-29820 160950 0" fill="none" stroke-width="10160"/><path d="m11805000 19271400s208640 226540 280200 274220c77490 47660 435180 220540 530570 304010 95390 83440 453080 387510 721330 554420 89430 53630 888250 459030 971690 500760 83480 35760 858440 345730 930010 411350 17870 11920 1019370 405370 989590 399410 208640 41680 1114750 357690 1180330 411320" fill="none" stroke-width="10160"/></g><g transform="matrix(.00000237 0 0 .00000238 204.99153 196.24383)"><path d="m10626700 7467070s1747750-381040 1873370-533500" fill="none" stroke="#1f1a17" stroke-width="10160"/><path d="m2367840 19361600s-1068020-16300-1410730-1219370c0 0 1479290 462740 1410730 1219370z" fill="#00923f" stroke="#1f1a17" stroke-width="20320"/><path d="m2236510 19241900s-953810-805640-1079510-860090" fill="none" stroke="#1f1a17" stroke-width="10160"/><path d="m10426800 7499720s-34260 549860 1193720 566160c0 0-325550-533490-1193720-566160z" fill="#00923f" stroke="#1f1a17" stroke-width="20320"/><path d="m10426800 7499720s1770570-152420 2221810-620560c0 0-1336530 119760-2221810 620560z" fill="#00923f" stroke="#1f1a17" stroke-width="20320"/><path d="m10478200 7516070s902400 500840 1050900 549810" fill="none" stroke="#1f1a17" stroke-width="10160"/><path d="m8153630 8104020s668230 206820 1102320-190570c0 0-742480-157850-1102320 190570z" fill="#00923f" stroke="#1f1a17" stroke-width="20320"/><path d="m12374400 29236600s-5123240-1099650-7356430-3957620c-308420-391950-1290800-1736520-2033270-3413210-993830-2242840-1673510-5323980-314140-8726300 2176050-5422000 7105080-5639750 7756200-5639750-651120 0-5226000 337560-7539160 5710490-576890 1339180-1022380 4082820-325590 6429070 616870 2063160 1085190 2955950 1844810 4093700 753930 1132310 1387900 2525890 4180850 3854170 1187970 560710 2810060 865550 3501120 1028850 142800 38140 325590 446390 285610 620600z" fill="#00923f" stroke="#1f1a17" stroke-width="20320"/><path d="m9073170 28049900s-251310 413690-1353630 272190c0 0 308440-479050 1170860-359290z" fill="#00923f"/><path d="m9073170 28049900s-251310 413690-1353630 272190c0 0 308440-479050 1170860-359290" fill="none" stroke="#1f1a17" stroke-width="20320"/><path d="m8245020 27445600s-651130-636910-399830-1028860c0 0 868170 517150 594020 1148620z" fill="#00923f"/><path d="m8245020 27445600s-651130-636910-399830-1028860c0 0 868170 517150 594020 1148620" fill="none" stroke="#1f1a17" stroke-width="20320"/><path d="m7776660 27206100s-131360-1186730-759630-1529700c0 0-142800-87110-108500 168760 34230 261320 217000 533510 416940 724030 194180 190550 319830 587930 319830 587930z" fill="#00923f"/><path d="m7776660 27206100s-131360-1186730-759630-1529700c0 0-142800-87110-108500 168760 34230 261320 217000 533510 416940 724030 194180 190550 319830 587930 319830 587930" fill="none" stroke="#1f1a17" stroke-width="20320"/><path d="m7302610 27102700s-234150 54440-359850 87110c-125620 32650-388330 413730-1307920 103410 0 0 68580-533460 1239390-310280 85690 16310 34300 32660 319880 70750z" fill="#00923f"/><path d="m7302610 27102700s-234150 54440-359850 87110c-125620 32650-388330 413730-1307920 103410 0 0 68580-533460 1239390-310280 85690 16310 34300 32660 319880 70750" fill="none" stroke="#1f1a17" stroke-width="20320"/><path d="m8245020 27690600s-942410 669600-1816240 342970c0 0 553990-533490 1199370-517140 651130 16300 251300 16300 251300 16300z" fill="#00923f"/><path d="m8245020 27690600s-942410 669600-1816240 342970c0 0 553990-533490 1199370-517140 651130 16300 251300 16300 251300 16300" fill="none" stroke="#1f1a17" stroke-width="20320"/><path d="m6046060 26346000c-68530-49000-142750-49000-285570-16300-148460 32620-1068020 32620-1570670-397430 0 0 1296550-119760 1639250 206860 0 0 57080 38110 108500 54460z" fill="#00923f"/><path d="m6046060 26346000c-68530-49000-142750-49000-285570-16300-148460 32620-1068020 32620-1570670-397430 0 0 1296550-119760 1639250 206860 0 0 57080 38110 108500 54460" fill="none" stroke="#1f1a17" stroke-width="20320"/><path d="m5686260 25932200s-308430-87110-434080-49010c-125650 32660-1119440 65360-1570680-860090 0 0 1050950 32670 1353640 342950 234190 239520 359840 293970 416930 326630z" fill="#00923f"/><path d="m5686260 25932200s-308430-87110-434080-49010c-125650 32660-1119440 65360-1570680-860090 0 0 1050950 32670 1353640 342950 234190 239520 359840 293970 416930 326630" fill="none" stroke="#1f1a17" stroke-width="20320"/><path d="m4858100 24968700s-148510-48970-308430-81670c-159910-38090-1245100-261270-1513550-740320 0 0 1296510-70800 1496390 342940l251310 326620z" fill="#00923f"/><path d="m4858100 24968700s-148510-48970-308430-81670c-159910-38090-1245100-261270-1513550-740320 0 0 1296510-70800 1496390 342940l251310 326620" fill="none" stroke="#1f1a17" stroke-width="20320"/><path d="m4578230 24146700c22820-299400 62830-1066960-137110-1584150 0 0-805290 375610 51460 1600460z" fill="#00923f"/><path d="m4578230 24146700c22820-299400 62830-1066960-137110-1584150 0 0-805290 375610 51460 1600460" fill="none" stroke="#1f1a17" stroke-width="20320"/><path d="m3504460 22682300s-993820 239540-1370740-1034290c0 0 988040-152410 1370740 1034290z" fill="#00923f" stroke="#1f1a17" stroke-width="20320"/><path d="m3864280 23215800s34310-87100 0-190560c-34280-103410-525480-549810-308430-1235720 217040-691360 217040-772990 217040-772990s251300 549800 199890 1219380c-57090 669570-17110 756680-17110 756680s-57080 87130-39980 136110z" fill="#00923f"/><path d="m3864280 23215800s34310-87100 0-190560c-34280-103410-525480-549810-308430-1235720 217040-691360 217040-772990 217040-772990s251300 549800 199890 1219380c-57090 669570-17110 756680-17110 756680s-57080 87130-39980 136110" fill="none" stroke="#1f1a17" stroke-width="20320"/><path d="m4269790 23869100c-119950-277630-525460-832860-1901950-805650 0 0 753920 1333710 1896250 979860z" fill="#00923f"/><path d="m4269790 23869100c-119950-277630-525460-832860-1901950-805650 0 0 753920 1333710 1896250 979860" fill="none" stroke="#1f1a17" stroke-width="20320"/><path d="m2796220 21201600c-222750-10910-1096590-108890-1530670-941790 0 0 1159450 27220 1542070 838340z" fill="#00923f"/><path d="m2796220 21201600c-222750-10910-1096590-108890-1530670-941790 0 0 1159450 27220 1542070 838340" fill="none" stroke="#1f1a17" stroke-width="20320"/><path d="m2539200 20417700c-222750 27220-702500 27220-1039490-402860-451210-566150-651130-909100-651130-909100s685390 136080 993830 342950c234190 157890 616850 560710 765320 849250z" fill="#00923f"/><path d="m2539200 20417700c-222750 27220-702500 27220-1039490-402860-451210-566150-651130-909100-651130-909100s685390 136080 993830 342950c234190 157890 616850 560710 765320 849250" fill="none" stroke="#1f1a17" stroke-width="20320"/><path d="m2773390 20896800c-91420-277670-376950-1339180 531180-1981530 0 0 199890 789330 108500 1170410-85670 359280-39960 740320-542580 860080z" fill="#00923f"/><path d="m2773390 20896800c-91420-277670-376950-1339180 531180-1981530 0 0 199890 789330 108500 1170410-85670 359280-39960 740320-542580 860080" fill="none" stroke="#1f1a17" stroke-width="20320"/><path d="m2527790 19688300s611120-772980 376970-1132270c0 0-736810 288540-451200 1115970z" fill="#00923f" stroke="#1f1a17" stroke-width="20320"/><path d="m2219360 18811900s57130-936350 234200-1186750c199890-272190 365520-724010 742470-892790 0 0-91380 1562350-976670 2079540z" fill="#00923f" stroke="#1f1a17" stroke-width="20320"/><path d="m1985210 16574500c-17150-65310-91390-119760-142800-136110-51390-16310-719670-255830-633980-1823630 0 0 851020 811120 742520 1736570l51370 141510z" fill="#00923f"/><path d="m1985210 16574500c-17150-65310-91390-119760-142800-136110-51390-16310-719670-255830-633980-1823630 0 0 851020 811120 742520 1736570l51370 141510" fill="none" stroke="#1f1a17" stroke-width="20320"/><path d="m2025170 17783000s0-70740-57110-87090c-108500-38100-616820 38130-1045210-1034300-291280-724020-165610-789370-108500-1154060 0 0 485470 206870 828170 914530 342690 702230 274150 963540 342690 1132320l91390 157860z" fill="#00923f"/><path d="m2025170 17783000s0-70740-57110-87090c-108500-38100-616820 38130-1045210-1034300-291280-724020-165610-789370-108500-1154060 0 0 485470 206870 828170 914530 342690 702230 274150 963540 342690 1132320l91390 157860" fill="none" stroke="#1f1a17" stroke-width="20320"/><path d="m2110860 17282200s74240-70790 91390-136110c17110-70760 165590-1034340 1085170-1241160 0 0-57120 996200-1028080 1426240l-125620 87110z" fill="#00923f"/><path d="m2110860 17282200s74240-70790 91390-136110c17110-70760 165590-1034340 1085170-1241160 0 0-57120 996200-1028080 1426240l-125620 87110" fill="none" stroke="#1f1a17" stroke-width="20320"/><path d="m2145140 16628900c5700-43570 11400-92540 22810-157860 0 0 79980-892780 502650-1028860 108500-32700 434050-397430 508320-446390 0 0 142780 1273810-1028080 1752870z" fill="#00923f"/><path d="m2145140 16628900c5700-43570 11400-92540 22810-157860 0 0 79980-892780 502650-1028860 108500-32700 434050-397430 508320-446390 0 0 142780 1273810-1028080 1752870" fill="none" stroke="#1f1a17" stroke-width="20320"/><path d="m2196510 14990300c-137060-70750-565440-315710-645380-729440-85690-500850 39960-1273830 39960-1273830s605420 538900 668250 827420c45710 206870 114250 489970-11410 1143200z" fill="#00923f"/><path d="m2196510 14990300c-137060-70750-565440-315710-645380-729440-85690-500850 39960-1273830 39960-1273830s605420 538900 668250 827420c45710 206870 114250 489970-11410 1143200" fill="none" stroke="#1f1a17" stroke-width="20320"/><path d="m2276490 15338700s125650-54430 199890-32650c68570 16350 1028080-261320 1205120-1203070 0 0-194190-185080-719670 359300-525430 549800-434040 566150-508270 653250l-159920 119760z" fill="#00923f"/><path d="m2276490 15338700s125650-54430 199890-32650c68570 16350 1028080-261320 1205120-1203070 0 0-194190-185080-719670 359300-525430 549800-434040 566150-508270 653250l-159920 119760" fill="none" stroke="#1f1a17" stroke-width="20320"/><path d="m2310750 14854200s-108500-713100 559740-1094180c668250-375600 508320-190510 902400-495360 0 0 171360 631470-668240 1028860-108540 54450-719660 321190-793900 560680z" fill="#00923f" stroke="#1f1a17" stroke-width="20320"/><path d="m2384990 14103000s-491170-653250-434040-1066990c51370-408250 199890-598770 217000-685920 0 0 251350 299410 325580 587940 34260 136110 177070 549800-108540 1164970z" fill="#00923f" stroke="#1f1a17" stroke-width="20320"/><path d="m2653450 13417100s17150-174200 17150-223180c0-54430-325590-430030-302760-876440 17150-446390 159950-1017970 342740-1344610 0 0 159910 381080 217040 484490 51370 103410 268410 892750-74280 1497040 0 0-108500 103420-125660 288500z" fill="#00923f"/><path d="m2653450 13417100s17150-174200 17150-223180c0-54430-325590-430030-302760-876440 17150-446390 159950-1017970 342740-1344610 0 0 159910 381080 217040 484490 51370 103410 268410 892750-74280 1497040 0 0-108500 103420-125660 288500" fill="none" stroke="#1f1a17" stroke-width="20320"/><path d="m3270310 12094300v-103410s-616860-517150 0-1497030c0 0 593970 582460 159880 1393570 0 0-51380 87110-91390 168780z" fill="#00923f"/><path d="m3270310 12094300v-103410s-616860-517150 0-1497030c0 0 593970 582460 159880 1393570 0 0-51380 87110-91390 168780" fill="none" stroke="#1f1a17" stroke-width="20320"/><path d="m2853340 13313700s108490-32700 182780-32700c68530 0 611120-190520 793880-293930 177080-103410 468370-549800 576860-756710 0 0-439780 10910-725360 239520-125650 103450-628230 468180-793860 620600z" fill="#00923f"/><path d="m2853340 13313700s108490-32700 182780-32700c68530 0 611120-190520 793880-293930 177080-103410 468370-549800 576860-756710 0 0-439780 10910-725360 239520-125650 103450-628230 468180-793860 620600" fill="none" stroke="#1f1a17" stroke-width="20320"/><path d="m3087530 12747500s91390-87110 217040-87110c125620 0 976640-582470 1102290-1241160 0 0-616820-32700-1010900 636910-399850 675010-291310 549800-325580 604250z" fill="#00923f"/><path d="m3087530 12747500s91390-87110 217040-87110c125620 0 976640-582470 1102290-1241160 0 0-616820-32700-1010900 636910-399850 675010-291310 549800-325580 604250" fill="none" stroke="#1f1a17" stroke-width="20320"/><path d="m4406860 10423000s0-1050640 828200-1409890c0 0 182780 892750-828200 1409890z" fill="#00923f" stroke="#1f1a17" stroke-width="20320"/><path d="m3847130 11114400s-416940-1137700 811040-2014190c0 0 68530 1208550-748180 1954350z" fill="#00923f"/><g stroke="#1f1a17"><path d="m3847130 11114400s-416940-1137700 811040-2014190c0 0 68530 1208550-748180 1954350" fill="none" stroke-width="20320"/><path d="m4909480 10080100s902440 0 1427870-446360c0 0-1028060-206860-1427870 446360z" fill="#00923f" stroke-width="20320"/><path d="m5215050 9479270s217040-963540 851020-1066990c0 0-91390 805680-851020 1066990z" fill="#00923f" stroke-width="20320"/><path d="m6354500 8926010s536880 244970 1256540-223220c0 0-936700-168760-1256540 223220z" fill="#00923f" stroke-width="20320"/><path d="m10426800 7499720s34260 549860-1193710 566160c0 0 325540-533490 1193710-566160z" fill="#00923f" stroke-width="20320"/><path d="m7268350 7690280s-862470 702230-839570 1115960c0 0 445450-223210 553990-255870 102800-38100 359800-430050 285580-860090z" fill="#00923f" stroke-width="20320"/><path d="m7216920 8359860s68540-620610 753920-740370c0 0 108550 342980-753920 740370z" fill="#00923f" stroke-width="20320"/><path d="m7034180 8495970s685360 174170 1587790-239530c0 0-845310-293970-1587790 239530z" fill="#00923f" stroke-width="20320"/><path d="m7810930 8104020s342700-451870 1045190-381080c0 0-325540 446400-1045190 381080z" fill="#00923f" stroke-width="20320"/><path d="m8930410 28033500-1102320 255900" fill="none" stroke-width="10160"/><path d="m8027980 27636200s-1245100 342930-1393610 359280" fill="none" stroke-width="10160"/><path d="m6999880 27102700s-970920 54440-1130850 103420" fill="none" stroke-width="10160"/><path d="m8330690 27342200s-359850-734920-451240-838330" fill="none" stroke-width="10160"/><path d="m7668160 27053600s-542630-1241160-651130-1306490" fill="none" stroke-width="10160"/><path d="m5760490 26209900s-759630-54440-1410710-223170" fill="none" stroke-width="10160"/><path d="m5326450 25779800s-525480-239530-633980-261320c-108540-16300-736800-326580-828190-408250" fill="none" stroke-width="10160"/><path d="m4641060 24745500s-1227990-495400-1393650-517190" fill="none" stroke-width="10160"/><path d="m4515410 24075900s-308440-996160-108550-1322830" fill="none" stroke-width="10160"/><path d="m4149840 23923500s-1462120-691360-1622050-778470" fill="none" stroke-width="10160"/><path d="m3847130 22872800s-165630-1186700-39980-1448020" fill="none" stroke-width="10160"/><path d="m3378810 22578900-833860-685900" fill="none" stroke-width="10160"/><path d="m2853340 20858700s359810-1497080 434080-1703900" fill="none" stroke-width="10160"/><path d="m2727680 21098200s-491170-462710-1353630-756680" fill="none" stroke-width="10160"/><path d="m2510640 19584800s74290-511710 359850-838340" fill="none" stroke-width="10160"/><path d="m1099930 19312700s1033790 876440 1353630 996200" fill="none" stroke-width="10160"/><path d="m2345010 18621300s633980-1529700 759640-1682130" fill="none" stroke-width="10160"/><path d="m1968060 17641400s-1045210-1355490-1062360-1976090" fill="none" stroke-width="10160"/><path d="m2276490 17195000s793890-979850 902430-1132280" fill="none" stroke-width="10160"/><path d="m2293640 16574500s633980-876430 759630-1306480" fill="none" stroke-width="10160"/><path d="m1876670 16302300s-502620-794770-593970-1513350" fill="none" stroke-width="10160"/><path d="m2436400 15235300s959560-566150 1136600-1045200" fill="none" stroke-width="10160"/><path d="m2384990 14669200s371250-587940 668280-669610c325540-81630 685390-631480 685390-631480" fill="none" stroke-width="10160"/><path d="m1642520 13210200s434080 1611370 542580 1682130" fill="none" stroke-width="10160"/><path d="m2202250 12540700 182740 1377200" fill="none" stroke-width="10160"/><path d="m2727680 11147100s91400 1703870 17160 1872630" fill="none" stroke-width="10160"/><path d="m2887640 13210200s1262200-740360 1393570-860120" fill="none" stroke-width="10160"/><path d="m3230300 12573300s868180-1012550 1068070-1050640" fill="none" stroke-width="10160"/><path d="m3304570 10662600s34230 1105050 34230 1224810" fill="none" stroke-width="10160"/><path d="m3938550 10907500s519730-1616800 645380-1654940" fill="none" stroke-width="10160"/><path d="m4566770 10216200 616870-1083330" fill="none" stroke-width="10160"/><path d="m5323600 9337720 742470-925440" fill="none" stroke-width="10160"/><path d="m5160790 9992970 1176560-359260" fill="none" stroke-width="10160"/><path d="m6480150 8789900s736770-876450 771050-1012510" fill="none" stroke-width="10160"/><path d="m6405880 8909660s953850-168740 1079510-190520" fill="none" stroke-width="10160"/><path d="m7142680 8463270s1296530-174170 1387900-190520" fill="none" stroke-width="10160"/><path d="m7268350 8310840s668230-587900 685390-636910" fill="none" stroke-width="10160"/><path d="m7919480 8065880 936640-342940" fill="none" stroke-width="10160"/><path d="m8262130 8104020 902430-174220" fill="none" stroke-width="10160"/><path d="m10426800 7499720-1119470 566160" fill="none" stroke-width="10160"/><path d="m11437800 28496200s245600 430040 199920 517150" fill="none" stroke-width="10160"/><path d="m11574800 28539800s205640 386510 194240 479050" fill="none" stroke-width="10160"/><path d="m11689100 28572500s245600 397390 245600 511710" fill="none" stroke-width="10160"/><path d="m11843300 28626900s217040 255870 217040 506280" fill="none" stroke-width="10160"/><path d="m11986000 28626900s211340 391950 199890 533540" fill="none" stroke-width="10160"/><path d="m12094600 28659600s217000 413690 217000 522580" fill="none" stroke-width="10160"/><path d="m12140200 28675900-1359300-332100" fill="none" stroke-width="10160"/><path d="m10798100 28392800 1279400 343000" fill="none" stroke-width="10160"/></g><path d="m4029890 11174300c154230 59890 536880 108860 1188010-511710 0 0-696790-206870-1216560 408260z" fill="#00923f"/><path d="m4029890 11174300c154230 59890 536880 108860 1188010-511710 0 0-696790-206870-1216560 408260" fill="none" stroke="#1f1a17" stroke-width="20320"/><path d="m4475430 10466600s639680-538930 1227990-283090c0 0-451240 566150-1227990 283090z" fill="#00923f" stroke="#1f1a17" stroke-width="20320"/><path d="m10510900 7465530s921120-149470 1052570-217230c132420-60850 1011910-296410 1011910-296410" fill="none" stroke="#1f1a17" stroke-width="10160"/><path d="m4098480 11130700s885270-446390 1045200-397380" fill="none" stroke="#1f1a17" stroke-width="10160"/><path d="m4583930 10461100 1085180-244900" fill="none" stroke="#1f1a17" stroke-width="10160"/><path d="m7810930 27429300s-936700 430040-1513520 70760c0 0 485470-293970 1422130-174210z" fill="#00923f"/><path d="m7810930 27429300s-936700 430040-1513520 70760c0 0 485470-293970 1422130-174210" fill="none" stroke="#1f1a17" stroke-width="20320"/><path d="m7559620 27412900-959520 103500" fill="none" stroke="#1f1a17" stroke-width="10160"/><path d="m6143200 26079200s97100-805680-376970-1328310c0 0-491200 348410 319840 1268420z" fill="#00923f"/><path d="m6143200 26079200s97100-805680-376970-1328310c0 0-491200 348410 319840 1268420" fill="none" stroke="#1f1a17" stroke-width="20320"/><path d="m6086070 25932200s-302710-528020-308460-1061560" fill="none" stroke="#1f1a17" stroke-width="10160"/><path d="m5749080 25714500s291280-985330-422630-1622240c0 0-839620 462710 279830 1556890z" fill="#00923f"/><path d="m5749080 25714500s291280-985330-422630-1622240c0 0-839620 462710 279830 1556890" fill="none" stroke="#1f1a17" stroke-width="20320"/><path d="m5669110 25534900s-422630-789320-342660-1295590" fill="none" stroke="#1f1a17" stroke-width="10160"/><path d="m6771430 26612700s102800-789380-279830-1328270c0 0-525480 304800 177030 1295570z" fill="#00923f"/><path d="m6771430 26612700s102800-789380-279830-1328270c0 0-525480 304800 177030 1295570" fill="none" stroke="#1f1a17" stroke-width="20320"/><path d="m6674340 26498400s-228450-664140-182740-1088740" fill="none" stroke="#1f1a17" stroke-width="10160"/><path d="m10952300 28485400s45670 114290-91390 266750" fill="none" stroke="#1f1a17" stroke-width="10160"/><path d="m11049400 28496200s5710 157900-91390 283090" fill="none" stroke="#1f1a17" stroke-width="10160"/><path d="m2138210 18314900s-982230-103530-1158700-721180c0 0 810840-2910 1158700 721180z" fill="#00923f" stroke="#1f1a17" stroke-width="20320"/><path d="m1985010 18223600-1005500-629900" fill="none" stroke="#1f1a17" stroke-width="10160"/></g><g transform="matrix(.00000237 0 0 .00000238 204.99153 196.24383)"><path d="m17177800 12899900 1028100 756700" fill="none" stroke="#1f1a17" stroke-width="10160"/><path d="m13745200 27086300s22860-5430 62840-16320" fill="none" stroke="#1f1a17" stroke-width="10160"/><path d="m16995100 12731200s1068060 479040 1210810 805680c142810 326630 159960 239520 159960 239520s-336990-97970-594000-223210c-268470-125200-559730-43540-776770-821990z" fill="#00923f" stroke="#1f1a17" stroke-width="20320"/><path d="m10426800 7499720s-1770550-152420-2221760-620560c0 0 1336490 119760 2221760 620560z" fill="#00923f" stroke="#1f1a17" stroke-width="20320"/><path d="m10375400 7467070s-1970460-397390-2096110-549800" fill="none" stroke="#1f1a17" stroke-width="10160"/><path d="m12123100 27930100c137050-21740 416930 87100 485460 87100 91380 0 725350 103420 1176560-326620 0 0-833860-206840-1302220 81650 0 0-199890 87110-302690 87110z" fill="#00923f"/><path d="m12123100 27930100c137050-21740 416930 87100 485460 87100 91380 0 725350 103420 1176560-326620 0 0-833860-206840-1302220 81650 0 0-199890 87110-302690 87110" fill="none" stroke="#1f1a17" stroke-width="20320"/><path d="m13728100 27157100c125650 27220 365500 59890 416930 81630 74240 38130 633970 38130 719660 21780 91380-21780 868130-21780 1262240-397380 0 0-479750-337500-1205120-255870-651130 65320-759670 272190-902430 342970z" fill="#00923f"/><path d="m13728100 27157100c125650 27220 365500 59890 416930 81630 74240 38130 633970 38130 719660 21780 91380-21780 868130-21780 1262240-397380 0 0-479750-337500-1205120-255870-651130 65320-759670 272190-902430 342970" fill="none" stroke="#1f1a17" stroke-width="20320"/><path d="m13808000 27070000c159910-38080 611150-141540 771080-87090 199880 70750 862420-87100 953810-87100h508320" fill="none" stroke="#1f1a17" stroke-width="10160"/><path d="m12340100 27913800s1085220-70750 1262300-174210" fill="none" stroke="#1f1a17" stroke-width="10160"/><path d="m12523000 27565400s182720-195960 234150-255830c68540-87110 125650-277620 159910-397380 57130-168780 234170-342980 325590-446410 91340-103440 542550-462730 651100-582500 108500-119730-165630 740370-325590 892800-165630 157850-399780 446380-399780 446380s-359850 206870-468360 326630z" fill="#00923f"/><path d="m12523000 27565400s182720-195960 234150-255830c68540-87110 125650-277620 159910-397380 57130-168780 234170-342980 325590-446410 91340-103440 542550-462730 651100-582500 108500-119730-165630 740370-325590 892800-165630 157850-399780 446380-399780 446380s-359850 206870-468360 326630" fill="none" stroke="#1f1a17" stroke-width="20320"/><path d="m13836600 26073800s-953820 1371790-1136600 1388140" fill="none" stroke="#1f1a17" stroke-width="10160"/><path d="m18817000 19105800s-51430-936310-234170-1186700c-199920-277670-68560-566170-685380-996250 0 0 34260 1665810 919550 2182950z" fill="#00923f" stroke="#1f1a17" stroke-width="20320"/><path d="m18691300 18915300s-576810-1393620-668200-1720250" fill="none" stroke="#1f1a17" stroke-width="10160"/><path d="m8621970 29236600s5088950-1056090 7362130-3957620c308430-391950 1290810-1736520 2033330-3413210 993770-2242840 1679170-5323980 314130-8726300-2170430-5422000-7110850-5639750-7761950-5639750 651100 0 5231750 337560 7544910 5710490 576810 1339180 1022350 4082820 325540 6429070-611120 2063160-1085210 2955950-1839140 4093700-759620 1132310-1393550 2525890-4186500 3854170-1188010 560710-2815780 865550-3501170 1028850-148500 38140-325540 446390-291280 620600z" fill="#00923f" stroke="#1f1a17" stroke-width="20320"/><path d="m11597700 27946400c325590-250390 491170-419170 514030-517150 257050-898220 879570-1012550 879570-1012550 257020 402820-759630 1219420-759630 1219420-91390 70760-451190 277620-451190 277620z" fill="#00923f"/><path d="m11597700 27946400c325590-250390 491170-419170 514030-517150 257050-898220 879570-1012550 879570-1012550 257020 402820-759630 1219420-759630 1219420-91390 70760-451190 277620-451190 277620" fill="none" stroke="#1f1a17" stroke-width="20320"/><path d="m13585300 27015600s376960-1186720 845320-1409940c0 0 39960 691360-576860 1241160z" fill="#00923f"/><path d="m13585300 27015600s376960-1186720 845320-1409940c0 0 39960 691360-576860 1241160" fill="none" stroke="#1f1a17" stroke-width="20320"/><path d="m14670400 26449400c68570-49000 394110 136130 645430 87110 114240-21780 1090870-402820 1227970-517150 0 0-970970 32660-1313660 190520-165630 70760-165630 119810-365510 119810z" fill="#00923f"/><path d="m14670400 26449400c68570-49000 394110 136130 645430 87110 114240-21780 1090870-402820 1227970-517150 0 0-970970 32660-1313660 190520-165630 70760-165630 119810-365510 119810" fill="none" stroke="#1f1a17" stroke-width="20320"/><path d="m15190200 26019300s291270-136110 416940-103450c125650 32700 1153730 16350 1587780-1203030 0 0-776740 326630-1085180 636880-302710 310320-685390 446390-736770 479090z" fill="#00923f"/><path d="m15190200 26019300s291270-136110 416940-103450c125650 32700 1153730 16350 1587780-1203030 0 0-776740 326630-1085180 636880-302710 310320-685390 446390-736770 479090" fill="none" stroke="#1f1a17" stroke-width="20320"/><path d="m15247300 25736300c0-70760-57120-430060-57120-430060s-34270-549800 274120-876430c0 0 222790 517150 34270 925450-62830 141500-165580 277610-165580 277610z" fill="#00923f"/><path d="m15247300 25736300c0-70760-57120-430060-57120-430060s-34270-549800 274120-876430c0 0 222790 517150 34270 925450-62830 141500-165580 277610-165580 277610" fill="none" stroke="#1f1a17" stroke-width="20320"/><path d="m17646200 22029100s-776790-620560 51370-1703870c0 0 371270 1034290 0 1633110z" fill="#00923f"/><path d="m17646200 22029100s-776790-620560 51370-1703870c0 0 371270 1034290 0 1633110" fill="none" stroke="#1f1a17" stroke-width="20320"/><path d="m17412000 22780400c211320 27180 993770 48970 1313660-1045210 0 0-948110-146980-1342240 963500z" fill="#00923f"/><path d="m17412000 22780400c211320 27180 993770 48970 1313660-1045210 0 0-948110-146980-1342240 963500" fill="none" stroke="#1f1a17" stroke-width="20320"/><path d="m17137900 23215800s-34310-87100 0-190560c39960-103410 325540-391900 165610-860090-239890-680480-234190-342930-234190-342930s-182770-32700-125650 636860c51430 669620 108540 533510 108540 533510s51380 87130 34260 136110z" fill="#00923f"/><path d="m17137900 23215800s-34310-87100 0-190560c39960-103410 325540-391900 165610-860090-239890-680480-234190-342930-234190-342930s-182770-32700-125650 636860c51430 669620 108540 533510 108540 533510s51380 87130 34260 136110" fill="none" stroke="#1f1a17" stroke-width="20320"/><path d="m16795200 23858200c114200-212310 411210-571600 1267950-538930 0 0-245620 849200-1302230 696790z" fill="#00923f"/><path d="m16795200 23858200c114200-212310 411210-571600 1267950-538930 0 0-245620 849200-1302230 696790" fill="none" stroke="#1f1a17" stroke-width="20320"/><path d="m17897500 21909300s811000-119760 776730-756680c0 0-759630 87100-776730 756680z" fill="#00923f" stroke="#1f1a17" stroke-width="20320"/><path d="m18348700 20379600s416930 185110 1028050-190520c628270-386510 885320-740360 885320-740360s-936700-16320-1245120 190550c-262720 179650-502620 408270-622570 631480z" fill="#00923f"/><path d="m18348700 20379600s416930 185110 1028050-190520c628270-386510 885320-740360 885320-740360s-936700-16320-1245120 190550c-262720 179650-502620 408270-622570 631480" fill="none" stroke="#1f1a17" stroke-width="20320"/><path d="m18314400 20978400s-74240-1513350-616870-2063160c0 0-194190 789330-108500 1170410 91390 375600 148510 789340 725370 892750z" fill="#00923f" stroke="#1f1a17" stroke-width="20320"/><path d="m18714200 19350800c239900-48970 1028080-288530 1313660-1295610 0 0-1376500 517190-1393600 1241160z" fill="#00923f"/><path d="m18714200 19350800c239900-48970 1028080-288530 1313660-1295610 0 0-1376500 517190-1393600 1241160" fill="none" stroke="#1f1a17" stroke-width="20320"/><path d="m18982600 17783000s0-70740 51390-87090c57110-16320 736810-440920 1045230-1154070 131370-293970 74240-582490 22830-947180 0 0-365520 277580-708220 979840-342690 707710-302730 811120-376950 979900l-91390 157860z" fill="#00923f"/><path d="m18982600 17783000s0-70740 51390-87090c57110-16320 736810-440920 1045230-1154070 131370-293970 74240-582490 22830-947180 0 0-365520 277580-708220 979840-342690 707710-302730 811120-376950 979900l-91390 157860" fill="none" stroke="#1f1a17" stroke-width="20320"/><path d="m18891300 17538000s-74220-326630-91370-391950c-17130-70760 34260-794770-885300-1001640 0 0-142760 930880 833870 1360930l108540 119760z" fill="#00923f"/><path d="m18891300 17538000s-74220-326630-91370-391950c-17130-70760 34260-794770-885300-1001640 0 0-142760 930880 833870 1360930l108540 119760" fill="none" stroke="#1f1a17" stroke-width="20320"/><path d="m18885600 16492800c-11450-81670-28560-206870-51410-310280 0 0-365520-642400-793910-773030-108490-38090-302680-141510-376950-190520 0 0 51410 843780 1170860 1333700z" fill="#00923f"/><path d="m18885600 16492800c-11450-81670-28560-206870-51410-310280 0 0-365520-642400-793910-773030-108490-38090-302680-141510-376950-190520 0 0 51410 843780 1170860 1333700" fill="none" stroke="#1f1a17" stroke-width="20320"/><path d="m18822700 15050200c251300-402860 502610-451870 628270-789360 177020-479060-34270-1273830-34270-1273830s-605450 538900-668280 827420c-39970 163350-74240 696800 0 1105100z" fill="#00923f"/><path d="m18822700 15050200c251300-402860 502610-451870 628270-789360 177020-479060-34270-1273830-34270-1273830s-605450 538900-668280 827420c-39970 163350-74240 696800 0 1105100" fill="none" stroke="#1f1a17" stroke-width="20320"/><path d="m18691300 14854200s-68530-751200-593960-1023390c-679690-359280-434090-157890-828170-462740 0 0-182780 538930 628280 925450 108490 54450 725320 321190 793850 560680z" fill="#00923f" stroke="#1f1a17" stroke-width="20320"/><path d="m18348700 13417100s-17110-174200-17110-223180c0-54430 182740-740360 159880-1186750-17120-446400-234160-669570-411230-996200 0 0-108500 430040-165630 533500-51360 103410-108500 805640 234200 1409930 0 0 108500 103420 131320 288500z" fill="#00923f"/><path d="m18348700 13417100s-17110-174200-17110-223180c0-54430 182740-740360 159880-1186750-17120-446400-234160-669570-411230-996200 0 0-108500 430040-165630 533500-51360 103410-108500 805640 234200 1409930 0 0 108500 103420 131320 288500" fill="none" stroke="#1f1a17" stroke-width="20320"/><path d="m17737600 12094300v-103410s342660-1241210-274160-2221050c0 0-234190 1306480 199890 2117590 0 0-34260 87110 0 168780z" fill="#00923f"/><path d="m17737600 12094300v-103410s342660-1241210-274160-2221050c0 0-234190 1306480 199890 2117590 0 0-34260 87110 0 168780" fill="none" stroke="#1f1a17" stroke-width="20320"/><path d="m17914600 12747500s-85640-87110-217040-87110c-125650 0-970920-582470-1096620-1241160 0 0 611170-32700 1010980 636910 394070 675010 285580 549800 319840 604250z" fill="#00923f"/><path d="m17914600 12747500s-85640-87110-217040-87110c-125650 0-970920-582470-1096620-1241160 0 0 611170-32700 1010980 636910 394070 675010 285580 549800 319840 604250" fill="none" stroke="#1f1a17" stroke-width="20320"/><path d="m17086400 11234200c-342690-794820-1187960-740360-1187960-740360-22900-54460 525430 947180 1130850 947180 91390 0 239890 81670 239890 81670z" fill="#00923f"/><path d="m17086400 11234200c-342690-794820-1187960-740360-1187960-740360-22900-54460 525430 947180 1130850 947180 91390 0 239890 81670 239890 81670" fill="none" stroke="#1f1a17" stroke-width="20320"/><path d="m16435300 10199800c108550-201430 354120-838340-199890-1377240 0 0-519760 642320 97100 1371810z" fill="#00923f"/><path d="m16435300 10199800c108550-201430 354120-838340-199890-1377240 0 0-519760 642320 97100 1371810" fill="none" stroke="#1f1a17" stroke-width="20320"/><path d="m17160700 11114400s468360-653220-382660-1290130c0 0-422630 549820 302720 1241160z" fill="#00923f"/><g stroke="#1f1a17"><path d="m17160700 11114400s468360-653220-382660-1290130c0 0-422630 549820 302720 1241160" fill="none" stroke-width="20320"/><path d="m16492400 10510100s-885270-87110-1159400-293930c-234200-179650 850970-348410 1159400 293930z" fill="#00923f" stroke-width="20320"/><path d="m16092600 10080100s-930960-27190-1422160-446360c0 0 1028080-206860 1422160 446360z" fill="#00923f" stroke-width="20320"/><path d="m15607200 9666340s-34280-1012550-508330-1252050c0 0-394070 838310 508330 1252050z" fill="#00923f" stroke-width="20320"/><path d="m15155900 9356060s-451190 364720-993820-119780c0 0 434080-239520 993820 119780z" fill="#00923f" stroke-width="20320"/><path d="m14647600 8926010s-536900 244970-1262250-223220c0 0 942400-168760 1262250 223220z" fill="#00923f" stroke-width="20320"/><path d="m13876500 7929800s988130 653230 970960 1066960c0 0-576840-326620-685380-359280-108500-38100-359800-277620-285580-707680z" fill="#00923f" stroke-width="20320"/><path d="m14087900 8566720s-811040 103420-1713440-310280c0 0 976640-223210 1713440 310280z" fill="#00923f" stroke-width="20320"/><path d="m13317800 8086890s-204780-522280-901850-631490c0 0 189760 512680 901850 631490z" fill="#00923f" stroke-width="20320"/><path d="m12071700 27636200s725350-941800 862430-1099660" fill="none" stroke-width="10160"/><path d="m13745200 26879400s508330-892750 559740-1083310" fill="none" stroke-width="10160"/><path d="m14881800 26416700s434090 0 1462140-326630" fill="none" stroke-width="10160"/><path d="m15681400 25779800s519720-239530 628220-261320c108550-16300 651130-533450 742520-615120" fill="none" stroke-width="10160"/><path d="m16795200 23956200s1005220-462710 1176550-549800" fill="none" stroke-width="10160"/><path d="m17120700 22976300s17150-653260 0-1083340" fill="none" stroke-width="10160"/><path d="m17480500 22666000 833900-685900" fill="none" stroke-width="10160"/><path d="m18023100 21773200s416930-397360 525430-468140" fill="none" stroke-width="10160"/><path d="m17663300 21822300s-17110-1012560-17110-1116010" fill="none" stroke-width="10160"/><path d="m18223000 20842400s-416940-789370-502620-1687550" fill="none" stroke-width="10160"/><path d="m20045000 19584800s-1262250 636910-1587790 756670" fill="none" stroke-width="10160"/><path d="m18765600 19241900s651130-397340 1079470-963500" fill="none" stroke-width="10160"/><path d="m19034000 17641400s685380-996200 976660-1682110" fill="none" stroke-width="10160"/><path d="m18834100 17505300s-696810-1028870-811010-1186760" fill="none" stroke-width="10160"/><path d="m18799900 16454700s-394130-391950-993800-1066950" fill="none" stroke-width="10160"/><path d="m18622800 14669200s-376930-587940-668240-669610c-325540-81630-616820-446390-616820-446390" fill="none" stroke-width="10160"/><path d="m19359600 13210200s-434080 1611370-542580 1682130" fill="none" stroke-width="10160"/><path d="m18114500 11266800s74240 1584110 142760 1752870" fill="none" stroke-width="10160"/><path d="m17771800 12573300s-868170-1012550-1062350-1050640" fill="none" stroke-width="10160"/><path d="m17520500 10063700s234160 996230 159920 1633160" fill="none" stroke-width="10160"/><path d="m17120700 11337600s-868170-794770-1045210-740360" fill="none" stroke-width="10160"/><path d="m17069300 10907500s-125650-724060-217000-876490" fill="none" stroke-width="10160"/><path d="m16366800 10047400-91400-1066940" fill="none" stroke-width="10160"/><path d="m15607200 9579230-417000-979850" fill="none" stroke-width="10160"/><path d="m15064600 9356060-902500-119780" fill="none" stroke-width="10160"/><path d="m15841300 9992970-1170900-359260" fill="none" stroke-width="10160"/><path d="m16418200 10461100-1085200-244900" fill="none" stroke-width="10160"/><path d="m14522000 8789900s-519750-549800-559730-685880" fill="none" stroke-width="10160"/><path d="m14596200 8909660s-959510-168740-1085170-190520" fill="none" stroke-width="10160"/><path d="m13945100 8512270s-1387890-223170-1479290-239520" fill="none" stroke-width="10160"/><path d="m13257800 8048580-807800-567330" fill="none" stroke-width="10160"/><path d="m15333000 25632800s114200-936320 91340-1039730" fill="none" stroke-width="10160"/></g><path d="m16075500 24761800c0-65330-74240-533500-74240-533500s-17150-756680 382680-1115960c0 0 142750 446390-62840 1241200-40010 141500-62820 179610-62820 179610z" fill="#00923f"/><path d="m16075500 24761800c0-65330-74240-533500-74240-533500s-17150-756680 382680-1115960c0 0 142750 446390-62840 1241200-40010 141500-62820 179610-62820 179610" fill="none" stroke="#1f1a17" stroke-width="20320"/><path d="m16166900 24593100 142700-1273800" fill="none" stroke="#1f1a17" stroke-width="10160"/><path d="m18974300 16260800s-125870-979620 434400-1293820c0 0 189900 788300-434400 1293820z" fill="#00923f" stroke="#1f1a17" stroke-width="20320"/><path d="m19027900 16090700 380800-1123700" fill="none" stroke="#1f1a17" stroke-width="10160"/><path d="m8867570 28659600s953820-179650 1313630-310320" fill="none" stroke="#1f1a17" stroke-width="10160"/><path d="m8839020 28703100 1256480-283100" fill="none" stroke="#1f1a17" stroke-width="10160"/><path d="m8901800 28659600s-216990 283060-222700 522580" fill="none" stroke="#1f1a17" stroke-width="10160"/><path d="m8964670 28643200s-262760 413740-188520 506280" fill="none" stroke="#1f1a17" stroke-width="10160"/><path d="m9061760 28632400s-222740 364720-188470 517150" fill="none" stroke="#1f1a17" stroke-width="10160"/><path d="m9153150 28588800s-217040 397340-177060 517120" fill="none" stroke="#1f1a17" stroke-width="10160"/><path d="m9233090 28572500s-194190 397390-148470 533470" fill="none" stroke="#1f1a17" stroke-width="10160"/></g><g transform="matrix(.00000237 0 0 .00000238 204.99153 196.24383)"><path d="m10767200 28555100s5000 190710-55200 265950" fill="none" stroke="#1f1a17" stroke-width="10160"/><path d="m9673400 29448300s361270-70260 426490-40160c65220 35150 135470-411450 366280-571980 265950-180650 702480-521840 1133980-1128970 0 0-95320-175610-516800-120410 0 0-10060 205710-55180 285990-50190 80290-275970 411450-562000 521830-285990 110360-506780 426490-602090 697450-95320 270960-190680 356250-190680 356250z" fill="#75aadb"/><g clip-path="url(#c)"><path d="m11506200 27622500c-9750-5180-19150-9480-26590-12470-76570-30770-171810-35600-259420-30130-9330 85680-84080 250880-145710 348690-161030 255600-265690 442710-571710 560800-253070 97650-455750 388830-542830 636380-17710 50360-80900 218160-113570 285590 49340-6440 122890-15760 184770-11720 14780-31520 66760-173230 75130-193420 32950-79440 67270-158060 110630-232510 49000-84140 110660-164860 191290-220940l930-640c445100-253560 857290-691980 1097080-1129630z" fill="#fff"/></g><path d="m9673400 29448300s361270-70260 426490-40160c65220 35150 135470-411450 366280-571980 265950-180650 702480-521840 1133980-1128970 0 0-95320-175610-516800-120410 0 0-10060 205710-55180 285990-50190 80290-275970 411450-562000 521830-285990 110360-506780 426490-602090 697450-95320 270960-190680 356250-190680 356250z" fill="none" stroke="#1f1a17" stroke-width="33020"/><path d="m11018100 29368000s-371290 90310-426490-40170c-30100-65200-50150-566970-275970-727530-230830-155570-332600-290020-824420-666110-150640-115190-294530-196920-349680-292240-40170-70260-45180-165580-90340-200730 0 0 281020-30100 732580 80280 0 0-65250 220780 80290 296050 80280 40130 265950 316130 551940 451580 270920 125450 436500 577030 521800 822900 95360 270960 80290 275970 80290 275970z" fill="#75aadb"/><g clip-path="url(#b)"><path d="m9170150 27437400c48930 145730 74790 184430 200900 286180l2470-3220 80640 61710c192120 147030 377790 298970 563010 454420 114770 96320 230920 195790 355260 279590l1050 710 1040 730c113640 80810 146710 228960 188040 358340 28500 89230 88770 181280 104710 273490 5850 33840 11150 67760 16940 101600 2140 12510 38810 129270 42370 142540 23570 13350 85000 3360 107880 2510 30580-1130 63330-4170 95950-8710-16560-54390-69650-208190-88530-261840-78530-226360-231530-567140-440160-766620-113310-108350-252550-161520-363890-270640-40860-40040-91090-88210-131080-129070-13730-14030-43200-45580-59790-55490-101450-104970-219990-262000-211030-412720-64750-13860-445180-52720-465780-53510z" fill="#fff"/></g><path d="m11018100 29368000s-371290 90310-426490-40170c-30100-65200-50150-566970-275970-727530-230830-155570-332600-290020-824420-666110-150640-115190-294530-196920-349680-292240-40170-70260-45180-165580-90340-200730 0 0 281020-30100 732580 80280 0 0-65250 220780 80290 296050 80280 40130 265950 316130 551940 451580 270920 125450 436500 577030 521800 822900 95360 270960 80290 275970 80290 275970z" fill="none" stroke="#1f1a17" stroke-width="33020"/><path d="m11600200 27707200s-65220-175610-667340-130470c-572020 45170-898140 40160-998510 0-105370-40130-195680-65210-341190-95310-120440-20090-366300-45180-301050-40170-125420-15030-240850 0-240850 0s-25070 20080 40150-85300c55200-85300 170600-125410 321110-301060 48730-56850 805430-12790 863020 0 70270 15070 150550 10060 180660 0 30090-10020 371280-15030 521830 0 185200 40290 451640 57960 492000 57520 105900-1160 145240 103060 160260 273650 15070 175630 25110 65250-30090 321140z" fill="#75aadb"/><g clip-path="url(#a)"><path d="m9618180 27331100 2910 480c960 200 1920 400 2890 600 126300 26130 244070 56240 364560 102130 390 150 790 300 1190 450 390 150 780 310 1180 470 49930 19840 212220 20900 266910 21100 219860 800 444060-14240 663450-31560 171680-12870 544020 37050 718810 89610-2530-20800-3000-97730-4680-117320-88970-42500-298270-127790-397200-149840-37840-1410-76510-9890-113460-16850-53940-10170-107270-18380-161910-23850-69520-6950-142800-7910-212680-8530-56800-510-113710-180-170490 1320-27140 710-60530 710-88060 4000-73070 20120-176940 15830-248060 570-370-80-740-160-1100-240-64210-14260-140560-16590-206270-17380-240450-2870-463710-21330-703720-44470-32990 35070-125280 108000-161260 139220 151530 18170 297560 25170 446990 50090z" fill="#fff"/></g><g stroke="#1f1a17"><path d="m11600200 27707200s-65220-175610-667340-130470c-572020 45170-898140 40160-998510 0-105370-40130-195680-65210-341190-95310-120440-20090-366300-45180-301050-40170-125420-15030-240850 0-240850 0s-25070 20080 40150-85300c55200-85300 170600-125410 321110-301060 48730-56850 805430-12790 863020 0 70270 15070 150550 10060 180660 0 30090-10020 371280-15030 521830 0 185200 40290 451640 57960 492000 57520 105900-1160 145240 103060 160260 273650 15070 175630 25110 65250-30090 321140z" fill="none" stroke-width="33020"/><path d="m10145100 28670600s-170630 200700-205750 366280c-30090 165590-210710 396420-210710 396420" fill="none" stroke-width="10160"/><path d="m9743670 29378000 371330-25100" fill="none" stroke-width="10160"/><path d="m9808890 29267600 356210-25100" fill="none" stroke-width="10160"/><path d="m9854060 29172300 356240 5000" fill="none" stroke-width="10160"/><path d="m9894190 29092000 356210 10100" fill="none" stroke-width="10160"/><path d="m9934300 29006700h356300" fill="none" stroke-width="10160"/><path d="m9974430 28901400 346270 30100" fill="none" stroke-width="10160"/><path d="m10019600 28821100s125420 15070 200650 10020" fill="none" stroke-width="10160"/><path d="m10084800 28760900h95400" fill="none" stroke-width="10160"/><path d="m10621700 29352900s356260 10060 376340-30070" fill="none" stroke-width="10160"/><path d="m10591600 29282700s371290 10020 396380-25100" fill="none" stroke-width="10160"/><path d="m10576600 29212500s361270 0 381350-25130" fill="none" stroke-width="10160"/><path d="m10561500 29122100s356260 25090 386360-5010" fill="none" stroke-width="10160"/><path d="m10551500 29051900s311120 15070 351240-4970" fill="none" stroke-width="10160"/><path d="m10526400 28981700s311090 5010 351210-25110" fill="none" stroke-width="10160"/><path d="m10511300 28931500s230810-5010 275970-30100" fill="none" stroke-width="10160"/><path d="m11113500 27626900s386360-50180 446530 95360" fill="none" stroke-width="10160"/><path d="m11088400 27707200s431500 20080 446570 70270" fill="none" stroke-width="10160"/><path d="m11083400 27777400s366280 5010 381350 70210" fill="none" stroke-width="10160"/><path d="m11028200 27872800c80240-25100 291000 0 356220 55190" fill="none" stroke-width="10160"/><path d="m11013100 27933000s321140 35120 331150 75280" fill="none" stroke-width="10160"/><path d="m10932800 28038300s331160 5020 346230 55190" fill="none" stroke-width="10160"/><path d="m10882600 28108600s301070 10020 326160 30100" fill="none" stroke-width="10160"/><path d="m10822400 28163800s195690 10020 220780 30100" fill="none" stroke-width="10160"/><path d="m10767200 28213900 100400 40200" fill="none" stroke-width="10160"/><path d="m9156580 27466300s-45140-5010 30100 95350c55200 70230 25090 105380 150520 165590 45200 25090 321130 260900 446590 351210 125430 85330 476670 371320 476670 371320" fill="none" stroke-width="10160"/><path d="m9156580 27466300s577030 55190 617160 95350" fill="none" stroke-width="10160"/><path d="m9181670 27571700s536870 35110 602120 110390" fill="none" stroke-width="10160"/><path d="m9241880 27631900s471650 25090 506760 55200" fill="none" stroke-width="10160"/><path d="m9337200 27727300s406470 0 451610 35120" fill="none" stroke-width="10160"/><path d="m9457640 27792500 406440 25100" fill="none" stroke-width="10160"/><path d="m9537930 27862700s371290 15030 401380 15030" fill="none" stroke-width="10160"/><path d="m9633290 27943000s306020 10030 346190 10030" fill="none" stroke-width="10160"/><path d="m9718540 28023300s286030-10060 336210-10060" fill="none" stroke-width="10160"/><path d="m9783790 28078500s301030-10020 331170-10020" fill="none" stroke-width="10160"/><path d="m9879140 28138700s275980-15070 306050-15070" fill="none" stroke-width="10160"/><path d="m9939310 28213900s265950-35110 301060-25050" fill="none" stroke-width="10160"/><path d="m10034700 28274200s225790-60250 260900-45180" fill="none" stroke-width="10160"/><path d="m10109900 28324400s225820-70300 265950-65250" fill="none" stroke-width="10160"/><path d="m10165100 28369500s220770-80290 265940-80290" fill="none" stroke-width="10160"/><path d="m10205300 28404600s235820-80240 265920-80240" fill="none" stroke-width="10160"/><path d="m9156580 27521500s536870 40160 602120 110390" fill="none" stroke-width="10160"/><path d="m11088400 27657000s406410 0 446570 95360" fill="none" stroke-width="10160"/><path d="m10505500 28347900c33180 11080 93970 44230 132670 55270 33170 5520 99480 110570 82910 149260-16600 33140 16570 187930-60830 232150-77350 44230-149220 121590-232150 116100-88430-11090-193440-71870-210020-105050-16610-33170-88440-160310-82920-210060 11050-55260 71840-154750 127100-182400 49790-27620 33180-99490 243240-55270z" fill="#75aadb" stroke-width="33020"/><path d="m9166640 27451300s577030 55200 617150 95310" fill="none" stroke-width="10160"/><path d="m11113500 27626900s336170-15030 446530 95360" fill="none" stroke-width="10160"/></g></g><g fill-rule="evenodd"><path d="m216.08257 250.5592c1.83125 3.98283 6.08308 7.98972 11.12476 9.13421-1.51016-3.98133-.30215-3.47942-.74585-4.46136.354-1.05087-.40784-1.17343-1.16369-.45355-.15896.56572-.31793 1.13143-.4769 1.69715-.54487.152-.98109-.01824-.97216-.72829.57917-1.0018.27779-2.09319-.8569-1.35362-.50822.24736-1.02094.58805-.80676-.62667.65947-1.08012.41365-1.73638-1.22304-.58876-.56953.20828-1.31594.22082-1.05666-1.30851 1.32385-.59133 1.18336-1.7217-.66876-1.15733-1.44553.39763-2.76594-.83621-3.15404-.15327z" fill="#b97837"/><path d="m233.14066 259.52645c4.91536-1.68235 9.22601-4.76666 10.69906-9.39313-.65124.29597-1.20945.77886-1.95374.8879-1.06991-.32712-2.32588-.04673-1.39552 1.54216-.71328.54521 1.318 1.09042-1.62813 1.68236-.71327-1.05927-2.12431-.85676-1.67464 1.26176-.04651.59194-.18606 1.27734-.97686.93464.02852-1.41197-1.08184-1.46545-1.5816.28039-.7753.70098-1.36452 1.77582-1.48857 2.80392z" fill="#b97837"/><path d="m204.56674 169.94198h.00001" fill="#d38d5f"/><path d="m204.56674 169.94197h.00001" fill="#d38d5f"/><path d="m204.56674 169.94198h.00001" fill="#d38d5f"/><path d="m204.56674 169.94198h.00001" fill="#d38d5f"/><path d="m204.56674 169.94198h.00001" fill="#d38d5f"/><path d="m204.56674 169.94198h.00001" fill="#d38d5f"/><path d="m226.65033 248.90483h6.047297v2.05621h-6.047297z" fill="#a36e2d" stroke="#6f6653" stroke-width=".066989"/><path d="m228.60219 247.17386h2.236605v9.490377h-2.236605z" fill="#a36e2d" stroke="#6f6653" stroke-linecap="round" stroke-linejoin="round" stroke-width=".066989"/><path d="m228.97621 247.78324c.05771-.05958.27803.04619.37214.09346" fill="#a36e2d" stroke="#6f6653" stroke-width=".066989"/><path d="m229.9996 248.06363c.01885.02081.33578.04673.51169.04673" fill="#a36e2d" stroke="#6f6653" stroke-width=".066989"/><path d="m229.30183 249.045c.05605-.0487.36579.09028.46518.1402" fill="#a36e2d" stroke="#6f6653" stroke-width=".066989"/><path d="m230.13915 249.74598c.11256.04047.55869.03517.7908.09347" fill="#a36e2d" stroke="#6f6653" stroke-width=".066989"/><path d="m229.11576 250.40023c.05853.04297.40463.1067.60473.1402" fill="#a36e2d" stroke="#6f6653" stroke-width=".066989"/><path d="m229.34835 252.08259c.16785.03418.34042.04673.51169.04673" fill="#a36e2d" stroke="#6f6653" stroke-width=".066989"/><path d="m229.95308 251.19468c.01182-.03579.2472.07095.32562.09346" fill="#a36e2d" stroke="#6f6653" stroke-width=".066989"/><path d="m229.62746 255.21363c.13505-.01698.52124-.01857.74428.09347" fill="#a36e2d" stroke="#6f6653" stroke-width=".066989"/><path d="m230.32522 253.9986c.00401.01401.14486 0 .23259 0" fill="#a36e2d" stroke="#6f6653" stroke-width=".066989"/><path d="m226.97595 249.97964c-.05715-.04787.20768 0 .32562 0" fill="#a36e2d" stroke="#6f6653" stroke-width=".066989"/><path d="m227.30157 250.44697c.15192.06674.62826.05855.88384.18692" fill="#a36e2d" stroke="#6f6653" stroke-width=".066989"/><path d="m227.72023 249.74598c.10314.05613.49397.04674.74429.04674" fill="#a36e2d" stroke="#6f6653" stroke-width=".066989"/><path d="m229.62746 249.74598c.09161 0 .49982.04674.74428.04674" fill="#a36e2d" stroke="#6f6653" stroke-width=".066989"/><path d="m231.34861 249.88618c.11214 0 .50686-.00097.74428.04673" fill="#a36e2d" stroke="#6f6653" stroke-width=".066989"/><path d="m231.53468 250.54043c.04292 0 .53358.09896.69777.14019" fill="#a36e2d" stroke="#6f6653" stroke-width=".066989"/><path d="m231.90682 250.07311c.14859 0 .36545-.00672.51169.1402" fill="#a36e2d" stroke="#6f6653" stroke-width=".066989"/><path d="m231.95334 249.37213c.00779 0 .33941.00346.51169.04673" fill="#a36e2d" stroke="#6f6653" stroke-width=".066989"/><path d="m229.39487 253.53128c.13109 0 .67881-.00554.88383-.04673" fill="#a36e2d" stroke="#6f6653" stroke-width=".066989"/><path d="m229.25531 254.74631c.00015 0 .23537-.02955.37215-.04673" fill="#a36e2d" stroke="#6f6653" stroke-width=".066989"/><path d="m229.39487 256.05481c.0649 0 .43453-.04673.65124-.04673" fill="#a36e2d" stroke="#6f6653" stroke-width=".066989"/><path d="m229.72049 251.80219c.07386 0 .53825-.00501.74428.04674" fill="#a36e2d" stroke="#6f6653" stroke-width=".066989"/><path d="m230.04611 249.74598c.17337 0 .3417.05931.5117.09347" fill="#a36e2d" stroke="#6f6653" stroke-width=".066989"/><path d="m229.81353 248.43749c.15813 0 .30704.09346.46517.09346" fill="#a36e2d" stroke="#6f6653" stroke-width=".066989"/><g stroke="#6f6653" transform="matrix(1.1460082 0 0 1.1460082 -33.561052 -40.101336)"><path d="m228.57259 261.26133c-.13746-.09667-.23369-.35905-.16495-.53857-.87976-.02071-.93474-.87-1.2784-1.73999.44675.20023.62545.85619 1.03096 1.15999-.36427-1.12547-1.14092-1.96094-.78352-3.31427.29554.22095.26117 1.1669.57733 1.38785-.01147-.64502-.26597-1.28894-.12371-1.86428.05498-.53857.15121-.78714.41238-1.09785.01375.38666-.19932.77333.04124 1.15999.30929.37976.04124.98738.04124 1.55357.23368-.37976.46737-.49024.65981-.55929.02062.31762-.22681.55239.06186.93215.39176-.09667.30929-.58691.68043-.51786.06873.17952.13747.35905.2062.53857.62544-.76643.98284-1.53285 1.31962-2.36142.10997.96666-.29554 1.72618-.65981 2.52713.41238-.5938.72167-1.24975 1.23715-1.78142-.13746.62143-.52235 1.24285-.78353 1.86428-.08935.40738.27492.19333.41239.29.06873-.70428.34365-.435.57733-.49714-.35938-.80886.08295-1.32893.5361-1.61571-.36427.65595-.02749.95976-.28867 2.40285.21994-.79404.5636-1.17381 1.03096-1.57428-.0756.86309-.66668 1.20833-.78352 1.90571.14433.29.02061.33142-.12372.49714-.04124.42809-.57734.77333-.86601 1.15999-.98972.31762-1.97944.30381-2.96916.08286z" fill="#f00" stroke-width=".000002"/><g stroke-width=".000001"><path d="m228.98112 261.32713c-.08141-.05725-.1384-.21264-.09769-.31897-.52103-.01227-.55359-.51525-.75712-1.0305.26458.11859.37042.50708.61058.687-.21574-.66655-.67571-1.16136-.46404-1.96286.17503.13086.15468.69109.34193.82195-.0068-.38201-.15753-.76337-.07327-1.10411.03256-.31897.08955-.46618.24423-.6502.00814.229-.11805.458.02442.687.18318.22492.02443.58477.02443.92009.1384-.22491.27679-.29034.39076-.33123.01222.18811-.13432.32715.03664.55206.23202-.05725.18317-.34759.40298-.3067.04071.10632.08142.21264.12212.31896.37042-.45391.58209-.90782.78154-1.39853.06513.57249-.17503 1.02232-.39077 1.49667.24423-.35167.42741-.74015.7327-1.05503-.08141.36804-.30936.73607-.46404 1.10411-.05292.24127.16282.1145.24423.17175.04071-.41711.20353-.25763.34193-.29443-.21285-.47904.04912-.78705.3175-.9569-.21574.38849-.01628.56842-.17096 1.42308.13025-.47027.33378-.69518.61058-.93236-.04478.51116-.39485.71563-.46405 1.12865.08549.17175.01222.19628-.07327.29443-.02442.25353-.34192.458-.51288.687-.58616.18811-1.17232.17993-1.75848.04907z" fill="#f95"/><path d="m229.37866 261.32351c-.04828-.03396-.08208-.12612-.05794-.18917-.30901-.00728-.32832-.30559-.44903-.61117.15692.07033.21969.30073.36212.40744-.12795-.39531-.40074-.68877-.27521-1.16412.10381.07761.09174.40987.20279.48748-.00403-.22656-.09342-.45274-.04345-.65482.01931-.18918.05311-.27648.14484-.38562.00483.13582-.07001.27163.01449.40744.10863.13339.01448.34682.01448.54569.08208-.13339.16416-.1722.23176-.19645.00724.11156-.07967.19402.02173.32741.1376-.03395.10863-.20614.239-.18189.02414.06305.04828.12611.07242.18917.21969-.26921.34522-.53841.46351-.82944.03863.33953-.10381.60631-.23175.88764.14484-.20857.25348-.43897.43454-.62571-.04828.21827-.18347.43654-.27521.65482-.03139.14309.09656.06791.14485.10186.02414-.24738.1207-.1528.20279-.17462-.12624-.28411.02913-.46678.1883-.56751-.12795.2304-.00966.33711-.1014.84399.07726-.2789.19796-.4123.36212-.55296-.02655.30316-.23417.42442-.27521.66937.0507.10186.00724.11641-.04345.17462-.01449.15037-.20279.27163-.30418.40744-.34764.11157-.69527.10672-1.04291.02911z" fill="#ff0"/></g></g></g></g><path d="m170.13912 268.00996-7.78184-.01229.00464-2.9279c.00083-.51532.02622-.90885.07618-1.18057.06432-.3811.18603-.70035.36514-.95773.17912-.25739.42982-.46436.7521-.62093.32228-.15656.67629-.23454 1.06201-.23394.66177.00106 1.22145.21196 1.67905.63271.45762.42076.68556 1.18001.68381 2.27774l-.00316 1.99077 3.1637.00499zm-4.08039-1.03359.00319-2.00665c.00105-.66358-.12206-1.13499-.36934-1.41424-.24727-.27923-.59562-.4192-1.04506-.41992-.32556-.0005-.60437.08112-.83643.24488-.23205.16377-.38544.37973-.46019.64787-.04628.17288-.06978.49228-.07052.9582l-.00315 1.98547zm4.08769-5.36607-7.35615-3.91112.13618-1.0982 8.11398-2.19991-.14401 1.16125-2.45045.60996-.39944 3.22102 2.23412 1.13456zm-2.89575-2.61394.32385-2.6115-2.23854.54007c-.68013.16506-1.23655.28135-1.66926.34888.48304.15919.95757.35822 1.42358.5971zm4.47889-7.32522-6.66624-1.62961-.61031 2.48377-.89192-.21803 1.46827-5.97545.89193.21803-.61283 2.49406 6.66624 1.62961zm1.18191-4.52413-7.27575-2.75349 1.22401-3.21765c.24605-.64682.49845-1.11381.75719-1.40098.25874-.28715.59184-.46877.99928-.54487.40745-.07609.81134-.03838 1.21169.11312.51615.19534.88785.52666 1.11507.99395.22723.46731.25638 1.06727.08745 1.79991.21909-.20778.41329-.35513.58262-.44206.36478-.18285.78843-.32642 1.27096-.43074l2.46041-.51288-.45946 1.20785-1.87904.38748c-.54345.11523-.9655.21978-1.26615.31364-.30065.09385-.52461.19503-.67186.30352-.14724.10851-.26731.23011-.36021.36485-.06458.10014-.14395.27397-.23811.52148l-.42369 1.1138 3.2309 1.22273zm-3.69938-2.49861.78525-2.06425c.16697-.43892.25204-.79935.2552-1.08131.00316-.28193-.07086-.52514-.22208-.7296-.15121-.20446-.34427-.35114-.57919-.44005-.3441-.13022-.67438-.11269-.99084.05257-.31646.16527-.57701.51687-.78163 1.05479l-.87375 2.2969zm6.73102-4.89913-6.99354-3.40412.45164-.92309 6.99353 3.40411zm.791-1.82631-5.13825-6.5472.57036-.94913 8.31209 1.26569-.6031 1.00362-2.4882-.43201-1.67288 2.78381 1.58216 1.93971zm-1.58653-3.55962 1.35632-2.25701-2.26606-.41031c-.68888-.12378-1.24485-.24218-1.66792-.3552.37704.34065.73013.71429 1.05924 1.12092zm5.5679-6.79655-.74649-.6033 1.84801-2.27487.74649.60332zm6.4531-3.89141-5.35619-5.63071.74705-.70697 4.72411 4.96623 2.78025-2.63113.63208.66447zm4.63771-4.20504-4.91493-6.01779.7984-.64874 4.91494 6.01779zm2.15767-1.78258-4.37915-6.41623 2.41338-1.6387c.49146-.33369.92995-.53643 1.31548-.6082.38554-.07176.75452-.0298 1.10694.12587.35241.15569.62917.38088.83031.67557.18719.27428.28884.58315.30494.92663s-.07573.69192-.27547 1.04531c.46673-.15038.89827-.15945 1.29463-.0272.39635.13225.72197.38511.97688.75858.20511.30054.33216.62312.38116.96775.04899.34463.02767.65054-.06396.91771-.09164.26718-.2542.53235-.4877.79551-.23351.26317-.55503.53379-.96457.81187zm-1.6878-4.29821 1.39098-.94449c.37737-.25622.63102-.46475.76099-.6256.17266-.21116.26307-.4284.2712-.65171.00813-.22329-.06447-.44727-.2178-.67194-.14538-.21299-.32452-.3657-.53743-.45812s-.43485-.10397-.66582-.03469c-.23097.06931-.57755.26088-1.03975.5747l-1.28568.87298zm2.02228 2.96302 1.60162-1.0875c.27497-.18671.46107-.32802.55829-.42393.17211-.16809.29609-.33768.37198-.50876.07587-.17108.10295-.36347.08125-.57718-.02171-.21371-.10227-.42268-.24166-.62693-.1633-.23925-.36662-.40543-.60997-.49854-.24334-.09309-.49838-.1014-.7651-.02491s-.60485.25379-1.0144.53187l-1.48752 1.01004zm5.78191-2.69173-3.56408-6.89993 5.00189-2.5704.42059.81425-4.08644 2.09996 1.09159 2.11328 3.82691-1.96659.41816.80954-3.82692 1.9666 1.21315 2.3486 4.24689-2.1824.42058.81424zm6.49594-3.23708-2.65547-7.29595 3.24324-1.17437c.65198-.23607 1.17146-.35 1.55846-.34181.38699.0082.74232.14146 1.06599.39976.32366.25833.55855.58821.70468.98967.18837.51759.17919 1.01471-.02757 1.49136-.20675.47667-.64355.89018-1.31041 1.24054.30082.03002.53949.08066.71602.15192.37693.15641.76244.38295 1.15655.6796l1.99508 1.52501-1.21746.44084-1.52045-1.16741c-.44216-.33557-.79697-.58637-1.06445-.75237s-.49048-.26926-.66899-.30977c-.17851-.0405-.34925-.0519-.51222-.03419-.11823.01652-.30208.06994-.55156.16028l-1.12266.40651 1.1792 3.23989zm-.51553-4.42648 2.08067-.7534c.44241-.16019.77175-.33107.98802-.51265s.35275-.39622.40941-.64392c.05667-.2477.04215-.48934-.04359-.72491-.1256-.34506-.35442-.58327-.68646-.71463-.33205-.13135-.76919-.09886-1.31139.09746l-2.31517.83831zm9.863 1.44679-1.53784-6.67184-2.49869.57299-.20576-.89268 6.01134-1.37848.20576.89267-2.50904.57536 1.53784 6.67184zm3.71919-.87109 2.1178-8.04175 1.10274-.12126 4.01849 7.36701-1.16606.12821-1.16051-2.23742-3.23433.35564-.59122 2.43005zm1.88169-3.41356 2.6223-.28835-1.04343-2.04788c-.31797-.62199-.55982-1.13516-.72556-1.53952-.04381.50553-.12847 1.01198-.25396 1.51938zm6.19986 2.61148.11918-7.76095 2.68034.04095c.60505.00925 1.06625.05336 1.38357.13234.44427.10917.82179.30027 1.1326.5733.40514.35215.70531.79888.90051 1.3402.19518.54134.28746 1.15786.27685 1.8496-.00905.5894-.08607 1.11068-.23106 1.56385-.14499.45318-.3277.82723-.54812 1.12216-.22042.29492-.46021.52601-.71938.69327-.25916.16725-.57076.29223-.9348.37491-.36404.0827-.78137.12045-1.25197.11326zm1.04374-.90013 1.66128.02538c.51306.00784.91629-.03366 1.20967-.12449s.52808-.22139.70413-.39168c.24789-.23979.4431-.56423.58565-.97331.14254-.40908.2183-.90656.2273-1.49242.01246-.81174-.11154-1.43758-.37199-1.87754-.26046-.43994-.58061-.73695-.96048-.89103-.27438-.11009-.71764-.16981-1.32977-.17916l-1.63474-.02498zm9.6878-.81688.15512-.94574 2.89693.47273-.15512.94574zm12.75978 2.73513.90137.56041c-.4636.7377-1.03022 1.23216-1.69986 1.48335-.66966.2512-1.39036.2535-2.16212.00693-.79873-.2552-1.39623-.62494-1.79251-1.10922-.39629-.48428-.62625-1.07572-.68987-1.77432-.06363-.6986.0179-1.40085.24461-2.10676.24721-.76977.61029-1.39412 1.08925-1.87304.47894-.4789 1.03833-.78015 1.67815-.90375.63981-.12359 1.28662-.08094 1.94043.12795.74142.2369 1.30443.62434 1.68906 1.16233.3846.53801.56675 1.17997.54645 1.92587l-1.03842-.0816c.00085-.59274-.12277-1.06403-.37086-1.41387-.2481-.34983-.61985-.60389-1.11526-.76219-.56956-.18196-1.08931-.19792-1.55926-.04786-.46996.15007-.85613.42976-1.15851.83907s-.53184.85767-.68838 1.34508c-.20187.6286-.28627 1.20669-.25319 1.73431.03307.5276.20614.96929.51922 1.32506s.69541.6058 1.14701.75009c.54933.17551 1.06515.16612 1.54746-.02818.48229-.19431.8907-.58086 1.22523-1.15966zm2.69472-.15795c.55852-1.16167 1.30849-1.92154 2.24989-2.27962.94139-.35807 1.90668-.30053 2.89586.17262.64773.30983 1.15744.7435 1.52914 1.301.37167.55751.56117 1.17761.56852 1.86029.00731.68269-.15735 1.37413-.49399 2.07432-.34124.70973-.79011 1.27598-1.3466 1.69878-.5565.42278-1.16723.65227-1.83221.68847-.66499.03619-1.3022-.09147-1.91165-.38299-.66051-.31595-1.17431-.75743-1.54141-1.32449-.36709-.56705-.55229-1.18997-.55559-1.86879-.00331-.6788.1427-1.32534.43804-1.93959zm.95037.4722c-.40551.84341-.49758 1.61654-.27624 2.3194.22134.70284.67502 1.21835 1.36107 1.54649.6988.33425 1.39177.36431 2.07894.09015.68715-.27417 1.24726-.8616 1.68032-1.76229.2739-.5697.41647-1.11317.42771-1.63039.01123-.51722-.11279-.9817-.37204-1.39345-.25927-.41173-.62025-.72825-1.08292-.94957-.65733-.3144-1.33117-.35976-2.02153-.13608-.69037.22371-1.28881.86229-1.79531 1.91574zm5.24838 6.83409 4.28746-6.47754.88155.5805.04481 7.33185 3.36621-5.0857.82396.54257-4.28745 6.47754-.88155-.5805-.04189-7.33627-3.36914 5.09012zm7.86079 2.30844.7924.56682c-.21865.3245-.34545.63576-.3804.93379-.03496.29802.03169.62024.19994.96666.16825.3464.4202.6633.75585.95069.29804.25519.59923.43631.90354.54335.3043.10703.57844.13126.82242.07267.24396-.05859.44432-.17895.60107-.36106.15903-.18481.24421-.39216.25551-.62204.01129-.2299-.06624-.49748-.2326-.80273-.1054-.19725-.37342-.59303-.80403-1.18733-.43062-.59431-.70512-1.04216-.8235-1.34355-.15517-.38871-.20797-.75141-.15839-1.08809.04957-.33668.19075-.64027.42357-.91078.25585-.29728.57957-.50273.97117-.61635.3916-.11361.80748-.09827 1.24764.04599.44015.14428.85893.38655 1.25635.72681.43767.37475.76316.77555.97646 1.20239.21328.42684.29232.85388.23713 1.2811-.05521.42722-.22477.81933-.50869 1.17632l-.79756-.58519c.2801-.40677.38585-.80467.31725-1.19369-.06862-.38903-.32982-.77782-.78361-1.16637-.47259-.40463-.89131-.61311-1.25613-.62544-.36484-.01233-.65212.10338-.86188.34709-.1821.21159-.2554.4512-.21989.71884.03281.26534.30508.74152.81682 1.42854.51172.68702.83963 1.18525.98373 1.4947.2077.4523.28915.86977.24435 1.25239-.04482.38263-.20321.73196-.47519 1.048-.26969.31336-.61378.53161-1.03225.65478-.41848.12317-.86248.11747-1.332-.01705-.46953-.13454-.91508-.38229-1.33665-.74324-.53435-.45752-.91526-.91855-1.14273-1.38312s-.30964-.9408-.24652-1.4287c.06312-.48789.25872-.93329.58682-1.3362zm5.41677 8.37593 5.04186-4.64505-1.73962-1.87853.67458-.62151 4.1852 4.51941-.6746.62149-1.74683-1.88633-5.04185 4.64505zm3.16882 3.64905 6.12262-4.79085.63562.80814-6.12263 4.79085zm2.85143 3.87452 5.72447-3.7769-1.41449-2.13288.76592-.50533 3.40298 5.13126-.76591.50534-1.42035-2.14171-5.72448 3.77689zm11.76546 5.01617.45953.91921-4.02361 2.00113c-.6999.34808-1.29518.54554-1.78583.59236-.49067.04681-.96809-.07171-1.43226-.35556-.46419-.28386-.86367-.76062-1.19845-1.43028-.3253-.65072-.47895-1.23889-.46096-1.76452.01798-.52564.19574-.98282.53326-1.37157.33752-.38873.87523-.7666 1.61313-1.1336l4.02362-2.00112.45952.91921-4.01886 1.99877c-.60488.30084-1.0226.5786-1.25315.83328-.23056.25468-.35513.55723-.37371.90764-.01859.35041.07082.72305.26821 1.11791.33793.67598.73235 1.0813 1.18325 1.21598.45088.13466 1.11337-.01536 1.98745-.45008zm-1.45451 10.32866.08762 1.05578c-.87009.06966-1.60609-.08837-2.208-.47409-.60192-.38574-1.03417-.96094-1.29677-1.72563-.27177-.79141-.33127-1.49025-.17848-2.0965.15278-.60625.49106-1.14343 1.01486-1.61153.52378-.46811 1.13721-.82226 1.84027-1.06245.76665-.26191 1.48556-.34429 2.15671-.24712s1.24746.3648 1.72895.80286c.48147.43807.83345.98101 1.05592 1.62883.25227.73464.27693 1.41645.07398 2.04544-.20296.629-.61041 1.15809-1.22237 1.5873l-.55452-.8795c.47718-.3533.78235-.73366.91551-1.14106.13316-.40741.11546-.85655-.0531-1.34742-.1938-.56434-.49137-.98968-.89269-1.27604-.40134-.28636-.85687-.42828-1.36659-.42576-.50975.00251-1.00733.08669-1.49277.25254-.62606.21389-1.14135.4916-1.54588.83315-.40453.34154-.65636.74378-.75549 1.20672-.09913.46293-.07187.91813.08179 1.36559.18691.5443.50251.95136.94679 1.22119.44428.26981.99903.36571 1.66426.2877zm-1.97267 3.28174 7.56191-1.83231.2431.99811-7.56191 1.83232zm4.42676 1.90199c1.2786-.18277 2.32878.01656 3.15056.59799.82176.58143 1.31046 1.41372 1.46609 2.49687.10191.70927.02388 1.37296-.23408 1.99107-.25797.61809-.66938 1.11994-1.23422 1.50556-.56486.38561-1.23262.6335-2.00327.74367-.78119.11165-1.50263.05432-2.16434-.17201-.66172-.22634-1.1925-.6051-1.59236-1.1363s-.64773-1.13048-.74361-1.79783c-.10392-.72326-.02165-1.3947.24683-2.01429.26847-.6196.68463-1.11947 1.24849-1.49959.56385-.38012 1.18382-.6185 1.85991-.71514zm.13484 1.05046c-.92831.13269-1.6238.48617-2.08647 1.06042-.46267.57426-.64004 1.237-.5321 1.98822.10994.76519.47016 1.35642 1.08066 1.77372.6105.41728 1.41143.55508 2.40279.41337.62703-.08963 1.1592-.27356 1.59649-.55179.43727-.27824.7554-.63929.95439-1.08314.19899-.44386.26208-.9191.1893-1.42574-.10342-.71976-.44024-1.30365-1.01046-1.75166-.57024-.44801-1.4351-.58914-2.5946-.4234zm-2.77608 8.15085 7.78165-.05663.0077 1.05359-6.07978 4.12118 6.1096-.04446.0072.98476-7.78164.05664-.00771-1.0536 6.08509-4.12121-6.11491.0445z"/></g></svg>