<svg height="1000" width="800" xmlns="http://www.w3.org/2000/svg" xmlns:xlink="http://www.w3.org/1999/xlink"><clipPath id="a"><path d="m11600200 27707200s-65220-175610-667340-130470c-572020 45170-898140 40160-998510 0-105370-40130-195680-65210-341190-95310-120440-20090-366300-45180-301050-40170-125420-15030-240850 0-240850 0s-25070 20080 40150-85300c55200-85300 170600-125410 321110-301060 48730-56850 805430-12790 863020 0 70270 15070 150550 10060 180660 0 30090-10020 371280-15030 521830 0 185200 40290 451640 57960 492000 57520 105900-1160 145240 103060 160260 273650 15070 175630 25110 65250-30090 321140z"/></clipPath><clipPath id="b"><path d="m11018100 29368000s-371290 90310-426490-40170c-30100-65200-50150-566970-275970-727530-230830-155570-332600-290020-824420-666110-150640-115190-294530-196920-349680-292240-40170-70260-45180-165580-90340-200730 0 0 281020-30100 732580 80280 0 0-65250 220780 80290 296050 80280 40130 265950 316130 551940 451580 270920 125450 436500 577030 521800 822900 95360 270960 80290 275970 80290 275970z"/></clipPath><clipPath id="c"><path d="m9673400 29448300s361270-70260 426490-40160c65220 35150 135470-411450 366280-571980 265950-180650 702480-521840 1133980-1128970 0 0-95320-175610-516800-120410 0 0-10060 205710-55180 285990-50190 80290-275970 411450-562000 521830-285990 110360-506780 426490-602090 697450-95320 270960-190680 356250-190680 356250z"/></clipPath><clipPath id="d"><path d="m17842400 17373200c0 5159380-3287490 9343450-7341290 9343450s-7341290-4184070-7341290-9343450 3287490-9343450 7341290-9343450 7341290 4184070 7341290 9343450z"/></clipPath><path d="m-800 500h800v500h-800z" fill="#75aadb" transform="scale(-1 1)"/><path d="m-800 0h800v500h-800z" fill="#fff" transform="scale(-1 1)"/><g transform="translate(80.710986 49.681554)"><g transform="matrix(.00002029 0 0 .00002029 108.47399 101.15161)"><g fill="#fcbf49" stroke="#843511" stroke-width="21370"><path d="m10179400 6526140 241340 6153710s0 120690 80410 120690c80450 0 80450-120690 80450-120690l241300-6153710"/><path d="m9910870 8519780c-361470 767900-40170 1407930-401270 2073230-361110 665290-130340 1245870-151080 1549460-20720 303620-285270 393470-218470 468600 66800 75150 343390-73790 447260-483620 103900-409820-155620-647290 277020-1462270 432630-815020 82860-1214460 519140-1946620"/><path d="m10822900 6526140-241300-6153710s0-120690-80450-120690c-80410 0-80410 120690-80410 120690l-241340 6153710"/><path d="m11091500 4532460c361440-767910 40160-1407890 401260-2073200 361120-665330 130350-1245860 151060-1549450 20740-303620 285260-393480 218490-468650-66800-75150-343390 73790-447290 483660-103890 409830 155660 647300-277010 1462280-432560 814970-82870 1214420-519150 1946600"/><path d="m10501200 6204390-6153710 241300s-120660 0-120660 80450c0 80400 120660 80400 120660 80400l6153710 241350"/><path d="m8507530 5935800c-767900-361440-1407930-40170-2073230-401280-665310-361100-1245830-130330-1549460-151040-303590-20710-393440-285260-468600-218500-75150 66810 73790 343390 483610 447280 409830 103910 647310-155640 1462310 277030 814970 432560 1214430 82870 1946570 519150"/><path d="m10501200 6847890 6153710-241350s120690 0 120690-80400c0-80450-120690-80450-120690-80450l-6153710-241300"/><path d="m12494900 7116440c767870 361470 1407860 40200 2073170 401270 665330 361110 1245860 130340 1549450 151080 303620 20710 393480 285270 468650 218500 75150-66850-73790-343420-483670-447290-409820-103900-647290 155620-1462270-277020-814970-432600-1214420-82860-1946570-519140"/><path d="m10273700 6298640-4180700 4521950s-85290 85290-28410 142160c56870 56880 142160-28410 142160-28410l4521950-4180700"/><path d="m8674000 7518470c-798540 287360-1023900 967110-1749680 1182220-725800 215150-973110 788770-1202470 988790-229360 200050-479930 76520-485830 176910-5890 100390 294980 190610 658230-25710 363250-216350 347710-567770 1229890-838140 882170-270360 917340-800110 1743530-1009330"/><path d="m10728700 6753640 4180740-4521950s85290-85330 28420-142210c-56880-56870-142210 28420-142210 28420l-4521950 4180740"/><path d="m12328400 5533790c798550-287390 1023860-967140 1749670-1182210 725800-215140 973130-788810 1202490-988830 229340-200000 479890-76490 485790-176910 5930-100360-294960-190570-658200 25710-363250 216360-347700 567820-1229850 838190-882180 270360-917380 800110-1743610 1009320"/><path d="m10728700 6298640-4521950-4180740s-85290-85290-142160-28420c-56880 56880 28410 142210 28410 142210l4180700 4521950"/><path d="m9508870 4698920c-287390-798540-967140-1023850-1182250-1749660-215150-725770-788780-973130-988790-1202480-200050-229360-76490-479900-176880-485800-100420-5930-190640 294960 25710 658200 216320 363250 567740 347700 838110 1229880 270360 882150 800160 917380 1009360 1743580"/><path d="m10273700 6753640 4521950 4180700s85330 85290 142210 28410c56870-56870-28420-142160-28420-142160l-4180740-4521950"/><path d="m11493500 8353310c287410 798540 967160 1023900 1182220 1749660 215150 725810 788820 973130 988820 1202490 200020 229360 76490 479940 176930 485840 100340 5880 190570-294960-25710-658250-216360-363240-567790-347700-838190-1229850-270360-882170-800110-917370-1009330-1743560"/><path d="m10203900 6402980-2131970 5777630s-46190 111530 28130 142320c74350 30770 120530-80720 120530-80720l2577840-5592960"/><path d="m9192860 8142120c-627810 571170-575860 1285340-1164130 1761860-588210 476470-597170 1101160-732560 1373750-135300 272540-414100 254290-381120 349270s345490 63250 598290-275600c252840-338880 103980-657640 815500-1245000 711550-587380 541330-1090290 1224600-1599750"/><path d="m10798500 6649250 2131970-5777620s46170-111490-28180-142300c-74310-30750-120450 80700-120450 80700l-2577870 5592950"/><path d="m11809500 4910120c627800-571130 575840-1285310 1164090-1761820 588200-476520 597210-1101200 732550-1373750 135340-272590 414100-254290 381120-349270-32930-95030-345440-63270-598290 275600-252840 338830-103940 657640-815500 1244980-711520 587400-541300 1090310-1224550 1599760"/><path d="m10624300 6228850-5777640-2131970s-111520-46170-142280 28180c-30770 74310 80690 120480 80690 120480l5592960 2577840"/><path d="m8885190 5217780c-571120-627800-1285350-575850-1761860-1164090-476470-588200-1101160-597210-1373750-732550-272540-135340-254260-414100-349270-381120-94980 32930-63220 345440 275650 598290 338830 252840 657590 103940 1244980 815500 587350 711500 1090260 541300 1599720 1224550"/><path d="m10378100 6823380 5777620 2131970s111490 46220 142290-28130c30760-74350-80690-120500-80690-120500l-5592950-2577870"/><path d="m12117200 7834450c571130 627800 1285340 575890 1761820 1164130 476520 588210 1101200 597170 1373750 732560 272590 135300 254290 414100 349270 381120 95030-32980 63250-345440-275600-598290-338830-252860-657640-103990-1244990-815500-587390-711550-1090300-541340-1599750-1224600"/><path d="m10378100 6228850-5592960 2577870s-111490 46220-80690 120500c30830 74310 142280 28130 142280 28130l5777640-2131970"/><path d="m8433340 6743710c-847710-40080-1316070 501650-2068950 422660-752850-79000-1200870 356340-1489320 453340-288410 97040-472680-112980-516550-22490-43840 90460 199600 288980 617980 228110 418400-60870 538520-391470 1456990-303660 918470 87830 1153760-388160 1997110-265280"/><path d="m10624300 6823380 5592950-2577840s111450-46220 80690-120480c-30800-74350-142290-28180-142290-28180l-5777620 2131970"/><path d="m12569000 6308570c847790 40030 1316060-501670 2068950-422660 752860 78990 1200920-356350 1489360-453380 288400-97000 472670 113020 516560 22510 43870-90490-199610-289010-618000-228140-418380 60880-538510 391470-1456980 303670-918510-87790-1153750 388150-1997110 265320"/><path d="m10798500 6402980-2577840-5592950s-46220-111450-120530-80700c-74320 30810-28130 142300-28130 142300l2131970 5777620"/><path d="m10283600 4458310c40080-847790-501620-1316070-422660-2068950 78990-752860-356350-1200920-453350-1489360-97030-288400 112990-472640 22530-516560-90490-43870-289010 199610-228140 618000 60870 418380 391450 538510 303670 1456980-87840 918510 388150 1153750 265270 1997140"/><path d="m10203900 6649250 2577870 5592960s46170 111490 120450 80720c74350-30830 28180-142320 28180-142320l-2131970-5777630"/><path d="m10718700 8593970c-40050 847740 501650 1316050 422660 2068950-79000 752860 356350 1200870 453380 1489320 97000 288440-112970 472670-22530 516550 90510 43870 289030-199600 228160-617950-60880-418430-391470-538550-303670-1457020 87790-918470-388150-1153760-265320-1997100"/></g><g fill="#843511"><path d="m10340300 6526140 160860 4223130 160890-4223130"/><path d="m10662100 6526140-160890-4223170-160860 4223170"/><path d="m10501200 6365230-4223130 160910 4223130 160890"/><path d="m10501200 6687030 4223160-160890-4223160-160910"/><path d="m10387400 6412340-2872430 3099980 3099980-2872430"/><path d="m10615000 6639890 2872450-3099970-3100000 2872420"/><path d="m10615000 6412340-3099980-2872420 2872430 3099970"/><path d="m10387400 6639890 3100000 2872430-2872450-3099980"/><path d="m10352500 6464580-1467470 3963220 1764760-3840100"/><path d="m10649800 6587700 1467480-3963220-1764770 3840100"/><path d="m10562700 6377510-3963220-1467510 3840100 1764750"/><path d="m10439600 6674750 3963220 1467490-3840100-1764730"/><path d="m10439600 6377510-3840100 1764730 3963220-1467490"/><path d="m10562700 6674750 3840100-1764750-3963220 1467510"/><path d="m10649800 6464580-1764760-3840100 1467470 3963220"/><path d="m10352500 6587700 1764770 3840100-1467480-3963220"/><path d="m10012700 8725240c-278590 764190 27330 1277910-353460 1939260 427530-487650 137680-1080180 503100-1867780"/><path d="m10989700 4327000c278610-764200-27330-1277880 353480-1939220-427550 487610-137690 1080160-503150 1867730"/><path d="m8302070 6037640c-764190-278610-1277920 27320-1939260-353480 487650 427550 1080210 137680 1867780 503150"/><path d="m12700300 7014590c764240 278610 1277920-27330 1939230 353480-487610-427550-1080180-137650-1867730-503100"/><path d="m8600820 7735760c-737400 343340-884360 922910-1621230 1121270 647130-42480 861150-666430 1676480-964900"/><path d="m12401600 5316520c737380-343350 884350-922960 1621220-1121320-647140 42510-861150 666480-1676490 964950"/><path d="m9291550 4625740c-343310-737380-922910-884360-1121270-1621220 42510 647130 666430 861150 964930 1676480"/><path d="m11710800 8426490c343350 737380 922960 884360 1121300 1621270-42460-647140-666460-861190-964930-1676490"/><path d="m9208360 8370910c-549860 599420-463850 1191130-1068710 1656340 581620-286870 540530-945280 1179590-1533030"/><path d="m11794000 4681320c549850-599370 463830-1191080 1068710-1656340-581620 286870-540580 945310-1179590 1533070"/><path d="m8656400 5233280c-599420-549860-1191090-463800-1656340-1068710 286870 581620 945260 540580 1533020 1179590"/><path d="m12346000 7819000c599380 549840 1191090 463800 1656340 1068660-286890-581620-945280-540530-1533080-1179590"/><path d="m8282540 6916430c-812640 35030-1170190 514250-1926950 415510 614200 208410 1050710-286140 1918190-249940"/><path d="m12719800 6135850c812630-35080 1170200-514260 1926910-415530-614150-208400-1050660 286160-1918110 249910"/><path d="m10110900 4307470c-35000-812640-514250-1170200-415510-1926910-208420 614150 286140 1050660 249970 1918140"/><path d="m10891500 8744770c35080 812670 514260 1170190 415520 1926950 208440-614150-286150-1050710-249900-1918160"/></g><path d="m12914400 6526140c0-1332620-1080620-2413240-2413240-2413240-1332540 0-2413240 1080620-2413240 2413240 0 1332570 1080700 2413220 2413240 2413220 1332620 0 2413240-1080650 2413240-2413220z" fill="#fcbf49" stroke="#843511" stroke-width="14250"/><path d="m12150200 5963040c-462530-402200-1045700-462510-1367480-160850-64420 103850-129580 219950-150040 336030-39560 224320 48150 487060 206260 730300-16020-490-56220 19610-76330 39680-157260-301850-215460-623200-163640-917150 12280-69620 52080-150350 62970-212280 442560-378820 1045860-419020 1488260 184270z" fill="#843511"/><path d="m11426300 5842390c-261440 0-321750 60310-442440 160890-120640 100510-180950 80420-201090 100510-20110 20110 0 80460 40200 60350 40200-20100 120690-60350 241380-160860 120690-100580 241310-100580 361950-100580 362000 0 563060 301690 603310 281550 40240-20150-201140-341860-603310-341860z" fill="#843511"/><path d="m11888800 6184250c-261400-281550-744040-301660-945150 20140h80450c201100-321800 683740-181000 723950-40250v40250" fill="#843511"/><path d="m11567000 6164140c0-99940-81010-181000-180960-181000-99940 0-180990 81060-180990 181000 0 99950 81050 181000 180990 181000 99950 0 180960-81050 180960-181000z" fill="#843511"/><path d="m10943600 6204390c201110 181000 643500 201060 945150-20140l-140750-20110c-201070 221250-522850 201090-723950 40250v-40250" fill="#843511"/><path d="m11908900 6284830c-341900 261400-683750 241310-884850 120620-201090-120620-201140-160860-160890-160860 40240 0 80440 40240 241330 120640 160860 80420 402170 80460 804410-80400z" fill="#843511"/><path d="m10923500 6888130c47730 16990 80210 62740 80210 113640 0 66430-54170 120690-120640 120690-64550 0-118320-50950-120660-115490-19930 42010-100350 162670-261240 162670h-40200l6990 59940 33210 370c40250 0 160890 0 241310-60310 33260 47800 89850 77500 148540 77500 99660 0 180950-81330 180950-180990 0-87690-62880-163330-149150-178180" fill="#843511"/><path d="m8823380 5963040c462550-402200 1045750-462510 1367500-160850 64470 103850 129620 219950 150080 336030 39550 224320-48120 487060-206270 730300 16030-490 56190 19610 76340 39680 157260-301850 215420-623200 163600-917150-12240-69620-52030-150350-62930-212280-442570-378820-1045860-419020-1488320 184270z" fill="#843511"/><path d="m9547380 5842390c261440 0 321750 60310 442440 160890 120610 100510 181000 80420 201060 100510 20110 20110 0 80460-40160 60350-40240-20100-120690-60350-241350-160860-120730-100580-241330-100580-361990-100580-362000 0-563090 301690-603340 281550-40200-20150 201140-341860 603340-341860z" fill="#843511"/><path d="m9084870 6184250c261420-281550 744060-301660 945160 20140h-80490c-201060-321800-683700-181000-723920-40250v40250" fill="#843511"/><path d="m9406620 6164140c0-99940 81030-181000 180970-181000s181000 81060 181000 181000c0 99950-81060 181000-181000 181000s-180970-81050-180970-181000z" fill="#843511"/><path d="m10030000 6204390c-201100 181000-643540 201060-945160-20140l140750-20110c201070 221250 522860 201090 723920 40250v-40250" fill="#843511"/><path d="m9064730 6284830c341890 261400 683750 241310 884810 120620 201140-120620 201180-160860 160890-160860-40200 0-80400 40240-241300 120640-160890 80420-402200 80460-804400-80400z" fill="#843511"/><path d="m10050100 6888130c-47710 16990-80240 62740-80240 113640 0 66430 54200 120690 120690 120690 64540 0 118310-50950 120640-115490 19900 42010 100350 162670 261250 162670h40200l-40200 60310c-40290 0-160900 0-241350-60310-33260 47800-89800 77500-148490 77500-99710 0-181000-81330-181000-180990 0-87690 62920-163330 149180-178180" fill="#843511"/></g><g transform="matrix(-.6415718 .767063 .767063 .6415718 453.49287 -646.74758)"><path d="m917.88469 410.46998c-37.14568-65.61242-101.65945-88.29183-143.74316-96.07924l7.68002 2.71002c39.41631 9.98954 94.1049 34.49893 130.11005 94.04787" fill="#00923f" stroke="#1f1a17" stroke-width=".438042"/><path d="m781.93013 317.52374s-42.74909-2.93365-53.64334-11.94398c0 0 32.26892 2.30503 53.64334 11.94398z" fill="#00923f" stroke="#1f1a17" stroke-width=".438042"/><path d="m778.69592 316.53798s-47.57583-7.64861-50.60959-10.58206" fill="none" stroke="#1f1a17" stroke-width=".219021"/><g transform="matrix(.00002414 0 0 .00001925 480.34654 166.20386)"><g><path d="m17737600 12094300v-103410s342660-1241210-274160-2221050c0 0-234190 1306480 199890 2117590 0 0-34260 87110 0 168780z" fill="#00923f"/><path d="m17737600 12094300v-103410s342660-1241210-274160-2221050c0 0-234190 1306480 199890 2117590 0 0-34260 87110 0 168780" fill="none" stroke="#1f1a17" stroke-width="20320"/></g><g><path d="m17914600 12747500s-85640-87110-217040-87110c-125650 0-970920-582470-1096620-1241160 0 0 611170-32700 1010980 636910 394070 675010 285580 549800 319840 604250z" fill="#00923f"/><path d="m17914600 12747500s-85640-87110-217040-87110c-125650 0-970920-582470-1096620-1241160 0 0 611170-32700 1010980 636910 394070 675010 285580 549800 319840 604250" fill="none" stroke="#1f1a17" stroke-width="20320"/></g><g><path d="m17086400 11234200c-342690-794820-1187960-740360-1187960-740360-22900-54460 525430 947180 1130850 947180 91390 0 239890 81670 239890 81670z" fill="#00923f"/><path d="m17086400 11234200c-342690-794820-1187960-740360-1187960-740360-22900-54460 525430 947180 1130850 947180 91390 0 239890 81670 239890 81670" fill="none" stroke="#1f1a17" stroke-width="20320"/></g><g><path d="m16435300 10199800c108550-201430 354120-838340-199890-1377240 0 0-519760 642320 97100 1371810z" fill="#00923f"/><path d="m16435300 10199800c108550-201430 354120-838340-199890-1377240 0 0-519760 642320 97100 1371810" fill="none" stroke="#1f1a17" stroke-width="20320"/></g><g><path d="m17160700 11114400s468360-653220-382660-1290130c0 0-422630 549820 302720 1241160z" fill="#00923f"/><path d="m17160700 11114400s468360-653220-382660-1290130c0 0-422630 549820 302720 1241160" fill="none" stroke="#1f1a17" stroke-width="20320"/></g></g><g stroke="#1f1a17"><path d="m878.54775 368.49278s-21.37442-1.67661-27.99316-5.65729c-5.65465-3.45775 20.54627-6.70589 27.99316 5.65729z" fill="#00923f" stroke-width=".438042"/><path d="m868.89477 360.21653s-22.47759-.52333-34.33738-8.59113c0 0 24.82251-3.98146 34.33738 8.59113z" fill="#00923f" stroke-width=".438042"/><path d="m857.17502 352.25285s-.82768-19.48865-12.27339-24.09833c0 0-9.51463 16.13504 12.27339 24.09833z" fill="#00923f" stroke-width=".438042"/><path d="m846.27859 346.28086s-10.89377 7.01981-23.99531-2.30541c0 0 10.48065-4.61007 23.99531 2.30541z" fill="#00923f" stroke-width=".438042"/><path d="m834.00593 338.00365s-12.9632 4.71496-30.47643-4.29634c0 0 22.7538-3.24814 30.47643 4.29634z" fill="#00923f" stroke-width=".438042"/><path d="m815.38808 318.8295s23.85794 12.57278 23.44337 20.53588c0 0-13.92753-6.28649-16.54817-6.9151-2.61968-.73331-8.6872-5.34338-6.8952-13.62078z" fill="#00923f" stroke-width=".438042"/><path d="m820.49224 331.08836s-19.58218 1.99053-41.3702-5.97199c0 0 23.58051-4.29614 41.3702 5.97199z" fill="#00923f" stroke-width=".438042"/><path d="m801.89853 321.85302s-4.94431-10.05237-21.77474-12.15435c0 0 4.58167 9.86761 21.77474 12.15435z" fill="#00923f" stroke-width=".438042"/><g fill="none" stroke-width=".219021"><path d="m909.43826 408.2034s-20.96155-19.48865-25.64994-20.22177"/><path d="m903.37074 359.90088s5.65369 19.17454 3.8612 31.43359"/><path d="m893.71776 384.41976s-20.96155-15.29702-25.2361-14.24978"/><path d="m892.47673 376.14158s-3.03376-13.93605-5.23936-16.86989"/><path d="m875.5152 359.58716-2.20679-20.53549"/><path d="m857.17499 350.57623-10.06824-18.85925"/><path d="m844.07422 346.28085-21.79047-2.30542"/><path d="m862.82727 358.53952-28.27087-6.9147"/><path d="m876.75623 367.54968-26.20166-4.71362"/><path d="m830.97338 335.38393s-12.54912-10.58206-13.51442-13.2012"/><path d="m832.7649 337.68896s-23.16692-3.24776-26.20092-3.66696"/><path d="m817.0444 330.04035s-33.50995-4.29537-35.71676-4.61006"/><path d="m800.44989 321.11566-19.50397-10.91946"/></g></g></g><g clip-path="url(#d)" transform="matrix(.00002029 0 0 .00002029 108.47399 101.15161)"><path d="m17842400 17373200c0 5159380-3287490 9343450-7341290 9343450s-7341290-4184070-7341290-9343450 3287490-9343450 7341290-9343450 7341290 4184070 7341290 9343450z" fill="#fff"/><path d="m-35748.5 3269340h21093300v13941600h-21093300z" fill="#75aadb"/><g stroke="#1f1a17"><path d="m8939290 10635200s-227370 752830-389050 1520830c-161690 767960-222320 702290-192000 1308570 0 0-287980 474940 2010900 474940 2076610 0 1788590-474940 1788590-474940s-85890-1035760-217260-1197420c0 0 55570-1035800-293070-1359130 0 0-35320-636630-414280-858940 0 0-65670-545690-606310-606320 0 0-227360-257660-606280-257660 0 0-671980 192000-798310 318290 0 0-671980 576000-798280 798310 0 0-449700 95990-288020 419360 156650 318290 702300 126330 666950-65670 0 0 510290-65700 737680-257700 0 0 0-191970-227390-222320 0 0 227390 96020 227390 222320s510260 323370 894260 65700c0 0-399130 272850-894260-65700 111160 80830 0 0 0 0s-358740 237480-601260 237480z" fill="#da251d" stroke-width="33020"/><g fill="none"><path d="m8469400 10887800s161650-55580 176820-161690" stroke-width="7620"/><path d="m8348150 10877700s131340-65670 161680-126300" stroke-width="7620"/><path d="m8211720 10806900s60630 5050 121260-40400" stroke-width="7620"/><path d="m8140980 10721100s55570 30310 121280-25260" stroke-width="7620"/><path d="m8782640 10569500s45500 45450 131390 60630" stroke-width="7620"/><path d="m8853400 10503800s126290 101070 252630 96010" stroke-width="7620"/><path d="m9035270 10463400s96020 85890 217260 85890" stroke-width="7620"/><path d="m9459710 10104600s-55570 80850 15140 151570" stroke-width="7620"/><path d="m9540550 10185500s-40430 151560 5020 207130" stroke-width="7620"/><path d="m9636530 10261300s-65670 116240 0 186960" stroke-width="7620"/><path d="m9737570 10337100s-40410 96020 50530 166740" stroke-width="7620"/><path d="m8428990 10286500s111170-40390 176820-5040" stroke-width="7620"/><path d="m8514880 10185500s106080-35390 186950 0" stroke-width="7620"/><path d="m8636130 10054100s116200-45500 217270-15180" stroke-width="7620"/><path d="m8782640 9902550s101070-40430 181910 25270" stroke-width="7620"/><path d="m9803270 9255800s176830-30270 277890 50540" stroke-width="7620"/><path d="m9621360 9321510s262760-45460 363820 10090" stroke-width="7620"/><path d="m9464720 9372010s328420-50500 419400 30350" stroke-width="7620"/><path d="m9363690 9417490s318300-45480 399140 40410" stroke-width="7620"/><path d="m9297990 9457900s262750-25240 343590 55610" stroke-width="7620"/><path d="m9222220 9523600s212180-40440 262720 35360" stroke-width="7620"/><path d="m9131290 9584230s176830-30310 232400 40430" stroke-width="7620"/><path d="m9060530 9654970s151570-30310 217280 25280" stroke-width="7620"/><path d="m8989810 9720640s151570-35350 192000 15180" stroke-width="7620"/><path d="m8893810 9801490s96000-40440 192000 15170" stroke-width="7620"/><path d="m10187200 9200230s85930 50560 75800 146540" stroke-width="7620"/><path d="m10359100 9255800s106070 116210 106070 176860" stroke-width="7620"/><path d="m10606600 9432660s50520 65680 55610 166740" stroke-width="7620"/><path d="m10768300 9473070s65720 181900 15180 277920" stroke-width="7620"/><path d="m10904700 9538770s40430 171780 5040 262720" stroke-width="7620"/><path d="m11061300 9680250s65670 257670-45480 490070" stroke-width="7620"/><path d="m11111900 10377500c80850-171780 85890-464850 85890-464850" stroke-width="7620"/><path d="m11303900 10109700s0 378950-136430 570950" stroke-width="7620"/><path d="m11425100 10225900s85890 363780-151590 773050" stroke-width="7620"/><path d="m11581800 10559400s-25260 409260-277890 692200" stroke-width="7620"/><path d="m11662600 10908000s-277890 671940-399140 818490" stroke-width="7620"/><path d="m11733300 11044400s-151550 591100-454700 894260" stroke-width="7620"/><path d="m11824300 11206100s-106080 500200-424410 788180" stroke-width="7620"/><path d="m11900100 11519400s-151590 399140-373870 586060" stroke-width="7620"/><path d="m11935400 11767000s-15140 262710-171780 378910" stroke-width="7620"/><path d="m10672300 11741700s-272850 197020-464850 237450" stroke-width="7620"/><path d="m10273200 11857800s-237480 131410-358740 151590" stroke-width="7620"/><path d="m10768300 11812400s-126280 126300-318280 176860" stroke-width="7620"/><path d="m10879400 11857800s-121250 96020-217230 136420" stroke-width="7620"/><path d="m10990600 11898300s-85890 90970-166740 111150" stroke-width="7620"/><path d="m11167500 9831800-181900 161690" stroke-width="7620"/><path d="m11031000 9649900-141400 85920" stroke-width="7620"/><path d="m11096700 9705510-192000 111150" stroke-width="7620"/><path d="m11127000 9761050s-141460 126330-197040 141500" stroke-width="7620"/><path d="m11207900 9927820s-166740 176820-202090 176820" stroke-width="7620"/><path d="m11233100 10054100-227300 192000" stroke-width="7620"/><path d="m11303900 10109700s-181910 186950-217260 217270" stroke-width="7620"/><path d="m11384700 10175400-282900 288000" stroke-width="7620"/><path d="m11455400 10281500-318300 303100" stroke-width="7620"/><path d="m11521100 10392600-353600 328500" stroke-width="7620"/><path d="m11940500 12105400-116200 91000" stroke-width="7620"/><path d="m11940500 12004400-237500 156600" stroke-width="7620"/><path d="m11935400 11868000s-328430 272850-368820 272850" stroke-width="7620"/><path d="m11935400 11731600s-409230 353680-490080 358730" stroke-width="7620"/><path d="m11920300 11605300s-328420 318300-479980 399140" stroke-width="7620"/><path d="m11884900 11478900s-454710 439570-525460 444620" stroke-width="7620"/><path d="m11869800 11347600s-479980 449670-520420 449670" stroke-width="7620"/><path d="m11829300 11261700-525400 414300" stroke-width="7620"/><path d="m11804100 11165700s-308240 262710-444660 353680" stroke-width="7620"/><path d="m11758600 11069700s-277890 232440-373910 303160" stroke-width="7620"/><path d="m11677800 10968600s-192000 186960-333470 277900" stroke-width="7620"/><path d="m11647400 10847400s-217230 222280-373870 308200" stroke-width="7620"/><path d="m11622200 10726100s-247570 277890-469890 373910" stroke-width="7620"/><path d="m11591900 10630100s-247580 242520-378960 287980" stroke-width="7620"/><path d="m11556500 10503800s-197090 207180-343610 303150" stroke-width="7620"/><path d="m8914030 10766500 186950-55500" stroke-width="7620"/><path d="m8878660 10887800 247580-80900" stroke-width="7620"/><path d="m8843270 10999000 242540-65700" stroke-width="7620"/><path d="m8787730 11155600 242490-96000" stroke-width="7620"/><path d="m8772550 11261700 247540-80900" stroke-width="7620"/><path d="m8732110 11403100 272850-111100" stroke-width="7620"/><path d="m8701830 11524400 247550-96000" stroke-width="7620"/><path d="m8671490 11660800 227360-85800" stroke-width="7620"/><path d="m8631050 11812400 222350-106100" stroke-width="7620"/><path d="m8605810 11918500 252630-96000" stroke-width="7620"/><path d="m8590640 12019600 252630-86000" stroke-width="7620"/><path d="m8565420 12100400 343520-106100" stroke-width="7620"/><path d="m9419270 10584600s161690-106110 181870-146500" stroke-width="7620"/><path d="m9489990 10670500s192000-136410 217300-176820" stroke-width="7620"/><path d="m9545570 10756400s227390-131380 288010-212180" stroke-width="7620"/><path d="m9747690 10806900s191970-192000 207140-237450" stroke-width="7620"/><path d="m9863900 10852400s212180-197050 232440-277900" stroke-width="7620"/><path d="m10106400 10806900s101030-126300 136390-257670" stroke-width="7620"/><path d="m10283300 10751400s85890-106110 95980-242520" stroke-width="7620"/><path d="m8893810 13186700-318300 429500" stroke-width="7620"/><path d="m10834000 13793000s262720 106110 500200 80840" stroke-width="7620"/><path d="m10945100 13732400s343570 151550 732610 101030" stroke-width="7620"/><path d="m11329100 13722200s308200 166770 717440-60630" stroke-width="7620"/><path d="m11521100 13641400s389050 96020 565910-35370" stroke-width="7620"/><path d="m11521100 13227100-560800 661900" stroke-width="7620"/><path d="m11607000 13257400-469900 586100" stroke-width="7620"/><path d="m11728300 13302900-419400 500200" stroke-width="7620"/><path d="m11829300 13358500-368800 459800" stroke-width="7620"/><path d="m11940500 13419100-212200 343600" stroke-width="7620"/><path d="m12051600 13464600-126300 217200" stroke-width="7620"/><path d="m8479490 13661600c25260-60620 131380-95980 186950-121240" stroke-width="7620"/><path d="m8600770 13727300c0-20230 50540-50540 65670-55590" stroke-width="7620"/><path d="m12112300 13530200c5040 50530-35370 75790-70720 96020" stroke-width="7620"/></g><path d="m10648500 12618400v13353600c-315930 637860-614030 35760-614030 35760v-13389300s614030-279390 614030 0z" fill="#8f5444" stroke-width="33020"/><path d="m8348150 13535300c65660-288020 1136790-591150 2031080-591150 909480 0 1778500 495130 1793630 575960 10130 45490-80800-1076160-191960-1237850-80840-116200-1162090-272850-1157040-272850-192000 0-151560-15170-535570-20180-666930-10130-1601630 222280-1682480 252590-80830 35390-207130-70720-262740 565910-70720 778090 5080 727570 5080 727570z" fill="#da251d" stroke-width="33020"/><path d="m11980900 12282300-510300 111100" fill="none" stroke-width="7620"/><path d="m12021300 12373200-429400 126300" fill="none" stroke-width="7620"/><path d="m12061700 12499500-485000 141500" fill="none" stroke-width="7620"/><path d="m12076900 12620800-581100 207100" fill="none" stroke-width="7620"/><path d="m12107200 12762300-434500 141400" fill="none" stroke-width="7620"/><path d="m12132500 12903700-469900 187000" fill="none" stroke-width="7620"/><path d="m12157700 13065400-409200 176900" fill="none" stroke-width="7620"/><path d="m12172900 13232200-277900 106100" fill="none" stroke-width="7620"/><path d="m12183000 13383700-111200 50600" fill="none" stroke-width="7620"/><path d="m10530800 12140800-267800 156600" fill="none" stroke-width="7620"/><path d="m10586400 12196400-227300 111200" fill="none" stroke-width="7620"/><path d="m10576300 12282300-126300 65700" fill="none" stroke-width="7620"/><path d="m10657100 12297400-136400 80900" fill="none" stroke-width="7620"/><path d="m10783500 12307600-141500 85800" fill="none" stroke-width="7620"/><path d="m10879400 12332800-126300 70700" fill="none" stroke-width="7620"/><path d="m11000700 12348000-96000 45400" fill="none" stroke-width="7620"/><path d="m11096700 12363100-65700 40400" fill="none" stroke-width="7620"/><path d="m8580550 12252000 146520 45400" fill="none" stroke-width="7620"/><path d="m8469400 12297400 202090 65700" fill="none" stroke-width="7620"/><path d="m8428990 12373200 207140 85900" fill="none" stroke-width="7620"/><path d="m8403730 12449000 151560 75800" fill="none" stroke-width="7620"/><path d="m8383510 12524800 131370 70700" fill="none" stroke-width="7620"/><path d="m8363290 12610700 116200 45500" fill="none" stroke-width="7620"/><path d="m8348150 12696600 106070 50500" fill="none" stroke-width="7620"/><path d="m8343070 12807800 96020 40400" fill="none" stroke-width="7620"/><path d="m8343070 12898700 85920 55600" fill="none" stroke-width="7620"/><path d="m8332980 12984600 80830 50500" fill="none" stroke-width="7620"/><path d="m11677800 12277200 343500 111200" fill="none" stroke-width="7620"/><path d="m11581800 12317600 479900 187000" fill="none" stroke-width="7620"/><path d="m11566600 12418700 505200 181900" fill="none" stroke-width="7620"/><path d="m11612100 12514700 480000 207200" fill="none" stroke-width="7620"/><path d="m11612100 12656200 520400 212200" fill="none" stroke-width="7620"/><path d="m11647400 12777400 495200 217300" fill="none" stroke-width="7620"/><path d="m11743400 12944200 404200 166700" fill="none" stroke-width="7620"/><path d="m11687800 13019900 469900 227400" fill="none" stroke-width="7620"/><path d="m11748500 13161400 414300 207200" fill="none" stroke-width="7620"/><path d="m10894600 13075500s530500 247570 727550 252620" fill="none" stroke-width="7620"/><path d="m9474850 13343300 389050-363800" fill="none" stroke-width="7620"/><path d="m9666850 12999700-353690 338600" fill="none" stroke-width="7620"/><path d="m9419270 13050300-293030 348600" fill="none" stroke-width="7620"/><path d="m9222220 13095700-328410 424400" fill="none" stroke-width="7620"/><path d="m9050440 13136100-318330 449700" fill="none" stroke-width="7620"/><path d="m8671490 13272600-161660 232400" fill="none" stroke-width="7620"/><path d="m10657100 13191700 252700-171800" fill="none" stroke-width="7620"/><path d="m10662200 13267500 363800-227300" fill="none" stroke-width="7620"/><path d="m10672300 13368600 485000-293100" fill="none" stroke-width="7620"/><path d="m10687500 13464600 586000-343600" fill="none" stroke-width="7620"/><path d="m10743000 13272600s646760 313280 1192410 247570" fill="none" stroke-width="7620"/><path d="m10753100 13171500s540610 303150 1202500 293020" fill="none" stroke-width="7620"/><path d="m10743000 13075500s560870 303150 975180 323370" fill="none" stroke-width="7620"/><path d="m9596140 13393800 459760-424400" fill="none" stroke-width="7620"/><path d="m10066000 13121000s348630-70750 525460 15140" fill="none" stroke-width="7620"/><path d="m8403730 13505000s505210-525460 1995720-525460c207150 0 1045890 60610 1748190 565870" fill="none" stroke-width="12700"/><path d="m10055900 13075500s186910-95980 535550-10090" fill="none" stroke-width="7620"/><path d="m8459310 13520100s641670-500200 1909830-500200c869030 0 1525870 414320 1748150 555780" fill="none" stroke-width="7620"/><path d="m8843270 13358500s853890-338520 1535960-282930c677070 55570 1121690 181910 1571330 469890" fill="none" stroke-width="7620"/><path d="m8408770 13606000c5040-65660 65670-95980 116210-116200 95980-35350 192000-70710 298110-55570" fill="none" stroke-width="7620"/><path d="m11394800 13171500c-20220 25260-50540 30300-70760 50520-80850 106080-146510 207130-242530 293030" fill="none" stroke-width="7620"/><path d="m3238420 20845200c190820-53670 1186360-315930 1448630-357690 268300-35760 941910-280170 1079010-321880 131170-35810 971740-220590 1383060-220590 417320 0 715380-208680 1436720-304020 715380-95380 655720-131150 655720-131150s-679570 298070-453030 697470c226490 393460 828620-41710 906100-77520 77520-35760 727280-309980 1007500-327880 280160-17860 524600 6000 715380 310020 190730 304060 351690 369600 459030 631890 83440 190780 405360 1138650 143050 1216140-89420 23850-214620 35770-405350-226540-184830-262300-697520-959770-697520-959770s810760 1013450 852480 1186310c35770 166920-125150 262310-292110 202680-542470-178830-584190-363640-953830-733250 0 0 536560 667690 906150 715400 202680 29800-226540 244390-381540 262290-149020 23860-470900-131140-941890-637890 0 0 512670 506750 852500 661750 0 0-381510 244360-870350-23860-488890-262290-733280-578270-1055210-637890-315930-53630-882300-131160-1126700-53630-244410 71540-792860 429230-1114790 602090-315970 166920-1162470 584190-1311470 673660-149050 95340-1013450 679590-1204230 774960 0 0-488840-989580-637860-1448620-208630-631890-399450-1472480-399450-1472480z" fill="#ef9ba0" stroke-width="33020"/><path d="m8395060 21691700c-95390 0-208630 11900-190780 220590 17910 208630 107300 298050 220590 298050 113240 0 196730-65560 196730-250390 0-190770 95390-244400-226540-268250z" fill="#ef9ba0" stroke-width="33020"/><path d="m8627550 22007600c5950 155000-95390 226540 143060 310010 256360 83480 339830-41710 339830-226540 0-190770 101340-333870-208670-321920-160920 5960-280170-149020-274220 238450z" fill="#ef9ba0" stroke-width="33020"/><path d="m9092530 22162600c-5950 119250-29800 304030 214590 333830 208690 23860 220590-178820 238490-256290 17910-77540-59610-250410-178860-327880-208630-143110-256310-125200-274220 250340z" fill="#ef9ba0" stroke-width="33020"/><path d="m9545610 22240200c-11950 95340 71540 321880 262320 339780 190760 17900 339780-113290 280200-172880-35810-35750-470980-268250-542520-357680-59610-59630 17910 41710 0 190780z" fill="#ef9ba0" stroke-width="33020"/><path d="m8269860 21721500 113300 35700" fill="none" stroke-width="10160"/><path d="m8216230 21805000 149020 65500" fill="none" stroke-width="10160"/><path d="m8204280 21912300 190780 65600" fill="none" stroke-width="10160"/><path d="m8263910 22079200 143060 17900" fill="none" stroke-width="10160"/><path d="m8657360 21799000 465000 71500" fill="none" stroke-width="10160"/><path d="m8651410 21864600 447080 83500" fill="none" stroke-width="10160"/><path d="m8621600 21960000 327880 71500" fill="none" stroke-width="10160"/><path d="m8627550 22049400 256350 47700" fill="none" stroke-width="10160"/><path d="m8621600 22156700 250400 71500" fill="none" stroke-width="10160"/><path d="m9164070 21846700 143050 47700" fill="none" stroke-width="10160"/><path d="m9128310 21918300 208670 59600" fill="none" stroke-width="10160"/><path d="m9110440 22091100 125160 17900" fill="none" stroke-width="10160"/><path d="m9122360 22210400 137100 41700" fill="none" stroke-width="10160"/><path d="m9128310 22317700 172910 35700" fill="none" stroke-width="10160"/><path d="m9533660 22126900 101340 35700" fill="none" stroke-width="10160"/><path d="m9545610 22240200 149020 35700" fill="none" stroke-width="10160"/><path d="m9563520 22365300 143070 23900" fill="none" stroke-width="10160"/><path d="m9635000 22466700 160980 17900" fill="none" stroke-width="10160"/><path d="m10934600 20809400 190800 17900" fill="none" stroke-width="10160"/><path d="m10994200 20857100 161000 53700" fill="none" stroke-width="10160"/><path d="m11107500 21000200 131200 23800" fill="none" stroke-width="10160"/><path d="m11185000 21083700 113300 35700" fill="none" stroke-width="10160"/><path d="m11268500 21196900 101300 17900" fill="none" stroke-width="10160"/><path d="m11340000 21286300 113300 41800" fill="none" stroke-width="10160"/><path d="m11417500 21411500 196700 29800" fill="none" stroke-width="10160"/><path d="m11501000 21506900 220500 53700" fill="none" stroke-width="10160"/><path d="m11560600 21608200s506710 95390 524610-47660" fill="none" stroke-width="10160"/><path d="m11626100 21685800s488840 53610 488840-29830" fill="none" stroke-width="10160"/><path d="m11661900 21739400s357690 107340 465000-5950" fill="none" stroke-width="10160"/><path d="m11298300 22079200s459030-160950 411320-274250c0 0 339830 59620 405400 23860" fill="none" stroke-width="10160"/><path d="m11775200 21900300s226530 47710 292070 0" fill="none" stroke-width="10160"/><path d="m10571000 19903300s292110-119200 363640-95340" fill="none" stroke-width="10160"/><path d="m11059800 19837700c-125200-65620-310030 143050-310030 143050" fill="none" stroke-width="10160"/><path d="m10946500 19968900s160950-119250 262290-71570" fill="none" stroke-width="10160"/><path d="m11071700 20028500s166930-95390 232490-47680" fill="none" stroke-width="10160"/><path d="m11220800 20082100s101340-35760 149020-17900" fill="none" stroke-width="10160"/><path d="m11286400 20159600s95390-35760 143050-17860" fill="none" stroke-width="10160"/><path d="m11363800 20225200s83470-47680 131150 11950" fill="none" stroke-width="10160"/><path d="m11405600 20338500s95390-65580 155000-17900" fill="none" stroke-width="10160"/><path d="m11501000 20421900s77480-53630 131140-29820" fill="none" stroke-width="10160"/><path d="m11548700 20505400s107290-35760 149020-23850" fill="none" stroke-width="10160"/><path d="m11632100 20600800s113300-65580 143110-29810" fill="none" stroke-width="10160"/><path d="m11691700 20678300s101340-29810 143050-11910" fill="none" stroke-width="10160"/><path d="m11721500 20779600s131150-65580 155010-35780" fill="none" stroke-width="10160"/><path d="m11769200 20857100s107340-47710 137140-29810" fill="none" stroke-width="10160"/><path d="m11805000 20940600s101370-35760 131150-17860" fill="none" stroke-width="10160"/><path d="m11805000 21018000s131150-29800 160960 0" fill="none" stroke-width="10160"/><path d="m11870500 21101500s83480-11920 119240 0" fill="none" stroke-width="10160"/><path d="m11918200 21196900s65610-41710 101370 5950" fill="none" stroke-width="10160"/><path d="m11954000 21286300s65570-23850 95390 23810" fill="none" stroke-width="10160"/><path d="m11983800 21375700s53630 6000 83440 35760" fill="none" stroke-width="10160"/><path d="m12001700 21477100s77440 11950 95350 47710" fill="none" stroke-width="10160"/><path d="m11202900 22031500s441180-101340 429220-262300" fill="none" stroke-width="10160"/><path d="m11369800 22126900s375590-113240 357680-214580" fill="none" stroke-width="10160"/><path d="m11501000 22162600s256340-89390 268250-178830" fill="none" stroke-width="10160"/><path d="m10976300 20809400 649800 846500" fill="none" stroke-width="10160"/><path d="m10177500 21787100s649810 643840 828620 602080" fill="none" stroke-width="10160"/><path d="m10577000 22240200c59580 29800 315930 196710 315930 196710s-238500 59580-286160 59580c-566320 0-1049210-459030-1126690-536510-321930-309980-1228040-292110-1228040-292110s-47730 0-113290 0c-65590 0-298080-23820-1239990 542500-47680 29830-125200 59630-160930 77490-35800 17900-59610 35770-113290 77490-59620 35800-101340 41750-143050 71560-35780 29780-178830 95390-238490 107260-53640 6000-101350 65620-149030 89470-47710 29780-226530 137070-256340 143070-29810 11910-184780 35760-232490 83470-47710 47680-256350 178830-256350 178830s-47680 47660-113240 95340c-65590 47710-160980 65620-214590 107340-59630 35760-125200 107300-155020 137100-23860 29810-411350 262300-578280 333840" fill="none" stroke-width="10160"/><path d="m3238420 20875000c29860 17900 631940-166920 697520-166920 65540 0 387470-77490 423230-77490 35800 0 488830-65570 518660-83440 29800-17900 262300-65610 304050-77520 101350-35770 357640-149050 405320-160970 41760-5950 119250-95370 202740-101340 89420-11940 709420-178860 834570-178860 65580 0 280220-83440 393460-41710 77490 35760 405350-35780 482890-35780 71530 0 375540-71520 441120-83440 65590-11950 244450-95420 310030-95420 65570 0 387450-35770 488840-17870 107290 17870 143050 11920 143050 11920l29820-59580s-643860-11950-935980 113240c-292100 125200-298050 83440-363640 83440-65580 0 149060-53630 196730-65530 47720-6000 405400-131150 584230-131150s453080-29810 566330-35810c113290-11900 65580-65580 65580-65580s-154970 65580-441130 35810" fill="none" stroke-width="10160"/><path d="m3858410 20714000s983640-196730 1096940-208640c113240-5950 697470-250390 697470-250390s65530-29810 137120-47680c77470-17900 172860-59620 172860-59620s-292110 59620-470940 143060c-178830 83480-369590 125240-423270 149070-59610 29800-333830 77470-405370 89420-77510 5950-172900 23820-226540 41720-59610 23860-417300 107300-417300 107300s435180-160970 566330-160970" fill="none" stroke-width="10160"/><path d="m10827300 22430900s-321930 113210-757100-95420" fill="none" stroke-width="10160"/><path d="m10785600 22401100s-184810 65540-429250 5950" fill="none" stroke-width="10160"/><path d="m10588800 22275900s274250 160950-178830 113240" fill="none" stroke-width="10160"/><path d="m10946500 20857100 620000 858440c59610 166910-488860 250350-488860 250350" fill="none" stroke-width="10160"/><path d="m10666400 21542700s494800 596140 959780 614000" fill="none" stroke-width="10160"/><path d="m10278900 21846700s536520 560370 798810 536520c0 0 488860-155010 339840-196730-447130-143060-727330-518650-727330-518650" fill="none" stroke-width="10160"/><path d="m11381800 22174600s-244440 190740-417320 178830" fill="none" stroke-width="10160"/><path d="m11268500 22120900s-149020 196720-417310 178860" fill="none" stroke-width="10160"/><path d="m11185000 22079200s-226540 196740-447130 172880" fill="none" stroke-width="10160"/><path d="m17408700 22126900s-727300-339780-989600-411320c-95390-29800-327880-83480-792860-286170-131150-53660-1144570-429200-1842090-828620-697470-393460-1257840-822670-1925510-1299570-131150-95420-357680-280200-470930-375590-113290-95390-429220-244400-810730-113250-375600 131150-1090970 584180-1389050 715330-304020 131170-566320 375560-399390 679620 172860 298070 512690 154970 792860-17900-11950 5960 834570-357690 977670-357690 208640 0 584200-286110 1114790 620000 524570 906160 488810 1108840 411320 1466530 0 0 149060 77480 435180 77480 95390 0 488830 470940 1073030 810770 584230 339780 2211680 1806310 2569370 1919560 0 0 453080-745200 661760-1138650 375540-727250 584180-1460530 584180-1460530z" fill="#ef9ba0" stroke-width="33020"/><path d="m8931580 19754200c83440-47660 459030-47660 506710 29820 59660 83470-71540 292110-214610 357690-238440 107300-393440 119200-423250 5950-47680-184820-113290-250390 131150-393460z" fill="#ef9ba0" stroke-width="33020"/><path d="m8919670 20243100s137110 95390 244400 113250" fill="none" stroke-width="10160"/><path d="m9146170 20189400s113290 113290 226530 89430" fill="none" stroke-width="10160"/><path d="m9259460 20141700s172910 65570 321930 47670" fill="none" stroke-width="10160"/><path d="m9813880 19951000s77520 65580 160960 59630" fill="none" stroke-width="10160"/><path d="m9986740 19867500s65580 65540 196730 53630" fill="none" stroke-width="10160"/><path d="m10231200 19784100s95420 65570 178860 65570" fill="none" stroke-width="10160"/><path d="m10445800 19766200s89440 53660 155020 53660" fill="none" stroke-width="10160"/><path d="m11089600 19629100-77500 172800" fill="none" stroke-width="10160"/><path d="m10618700 19718500s137140 71540 214630 71540" fill="none" stroke-width="10160"/><path d="m11208800 19885400s256370 83470 333880 77470" fill="none" stroke-width="10160"/><path d="m11369800 20028500s107290 35760 196730 35760" fill="none" stroke-width="10160"/><path d="m11596300 20338500s113240 17860 214630 29810" fill="none" stroke-width="10160"/><path d="m11697700 20457700s95390 77520 220540 77520" fill="none" stroke-width="10160"/><path d="m11811000 20648500s95370 35760 202640 17900" fill="none" stroke-width="10160"/><path d="m11888400 20791500s125170 23860 244440 6000" fill="none" stroke-width="10160"/><path d="m11936100 20904800s149050 47660 274250 17900" fill="none" stroke-width="10160"/><path d="m11983800 21018000s405370 137150 590150-202680" fill="none" stroke-width="33020"/><path d="m12055400 21196900s59610 0 107290-17900" fill="none" stroke-width="10160"/><path d="m12097100 21328100s29820 17850 95390-29830" fill="none" stroke-width="10160"/><path d="m12126900 21495000s65570 17900 113280-17910" fill="none" stroke-width="10160"/><path d="m12126900 21703600s196720 53630 232490 17910" fill="none" stroke-width="10160"/><path d="m12126900 21799000s155000 53660 220570 29810" fill="none" stroke-width="10160"/><path d="m12126900 21864600s131150 101340 393450 101340c0 0 113240 77530 149050 107340 59630 35760 643810 524610 733250 560370 95390 41680 691520 470940 1150550 828590 119200 95390 947880 780960 1025350 852530 190780 154970 584200 381510 584200 381510" fill="none" stroke-width="10160"/><path d="m8943530 19694600s232440-65540 363590-41720" fill="none" stroke-width="10160"/><path d="m9187920 19527700s476910-77470 536520-17850" fill="none" stroke-width="10160"/><path d="m9545610 19337000s292120-41780 357660 11900" fill="none" stroke-width="10160"/><path d="m9807930 19205800s280200-35730 327880 23850" fill="none" stroke-width="10160"/><path d="m9974840 19104400s268260-11910 309970 47710" fill="none" stroke-width="10160"/><path d="m10201400 19003100s154980-47680 286130 53660" fill="none" stroke-width="10160"/><path d="m10362300 18913700s190760-35780 321930 77480" fill="none" stroke-width="10160"/><path d="m10541200 18842200s143070-35810 256360 53630" fill="none" stroke-width="10160"/><path d="m10976300 18764700s113300 47710 17910 172860" fill="none" stroke-width="10160"/><path d="m11173100 18824300s131150 89440 77490 202680" fill="none" stroke-width="10160"/><path d="m11322100 18889900s59630 71520 11900 184810" fill="none" stroke-width="10160"/><path d="m11495000 19104400s47710-29780 95390-11910" fill="none" stroke-width="10160"/><path d="m11596300 19217700s113240-29820 160950 0" fill="none" stroke-width="10160"/><path d="m11805000 19271400s208640 226540 280200 274220c77490 47660 435180 220540 530570 304010 95390 83440 453080 387510 721330 554420 89430 53630 888250 459030 971690 500760 83480 35760 858440 345730 930010 411350 17870 11920 1019370 405370 989590 399410 208640 41680 1114750 357690 1180330 411320" fill="none" stroke-width="10160"/></g></g><g fill="#e6bc7f" stroke="#000" transform="translate(-128.50311 -34.612786)"><path d="m-229.73098 861.94342a71.451759 89.540817 0 1 1 -142.90352 0 71.451759 89.540817 0 1 1 142.90352 0z" stroke-linecap="square" stroke-width="1.513073" transform="matrix(.4749957 0 0 .2298955 590.37138 430.26517)"/><g stroke-linecap="square" stroke-width="1.513073" transform="matrix(.4747891 0 0 .2615019 315.8202 454.82266)"><path d="m-229.73098 861.94342a71.451759 89.540817 0 1 1 -142.90352 0 71.451759 89.540817 0 1 1 142.90352 0z" transform="matrix(1.0004351 0 0 .8791351 630.22248 -43.247084)"/><path d="m-229.73098 861.94342a71.451759 89.540817 0 1 1 -142.90352 0 71.451759 89.540817 0 1 1 142.90352 0z" transform="matrix(1.0004351 0 0 .8791351 526.29601 -43.247084)"/></g><g stroke-width=".5"><path d="m503.625 635.75c-18.33036.28196-33.0625 9.40837-33.0625 20.59375 0 6.72886 5.35397 12.68235 13.59375 16.4375 17.81036-5.31706 34.38273-14.70091 49.09375-27.34375-6.00445-5.80641-16.62435-9.6875-28.75-9.6875-.29272-.00002-.58404-.00448-.875 0z" fill-rule="evenodd"/><path d="m390.125 635.75c-10.4306 0-19.7707 2.84871-26 7.34375 14.4616 13.01873 30.83771 22.81253 48.46875 28.625 7.01675-3.77013 11.46876-9.24542 11.46875-15.375 0-11.18538-14.73212-20.31178-33.0625-20.59375-.29096-.00447-.58228-.00002-.875 0z" fill-rule="evenodd"/><path d="m447.3125 634.34375c-18.72502 0-33.93749 10.68945-33.9375 23.875 0 6.3336 3.53041 12.09848 9.25 16.375 8.8795 2.10184 18.0489 3.1875 27.40625 3.1875 6.67517 0 13.24451-.54142 19.6875-1.625 7.05887-4.37838 11.5-10.79788 11.5-17.9375 0-13.18553-15.18122-23.87501-33.90625-23.875z" stroke-linecap="square"/><g fill-rule="evenodd"><path d="m447.3125 661.53125c-12.01497-.00001-22.5695 4.82638-28.59375 12.0625 10.09357 2.7489 20.57512 4.1875 31.3125 4.1875 9.14792 0 18.08841-1.02039 26.78125-3.03125-5.82893-7.88145-16.85094-13.21874-29.5-13.21875z"/><path d="m417.5625 650.96875c-12.30376.00003-23.08067 3.98589-29.03125 9.9375 9.56997 5.53147 19.66521 9.82185 30.1875 12.6875 6.00756-7.22551 16.51473-12.0388 28.5-12.0625-5.80491-6.30041-16.91879-10.5625-29.65625-10.5625z"/><path d="m477.34375 650.96875c-12.73746 0-23.85133 4.26209-29.65625 10.5625 12.56889.02486 23.5444 5.30606 29.375 13.125 10.78382-2.51962 21.19384-6.47543 31.03125-11.78125-5.40092-7.02952-17.12921-11.90621-30.75-11.90625z"/></g></g></g><g transform="translate(-128.50311 -34.612786)"><path d="m250.66793 535.34044s-25.3281-.31953-33.45547-23.9037c0 0 35.08137 9.07124 33.45547 23.9037z" fill="#00923f" stroke="#1f1a17" stroke-width=".438127"/><path d="m247.55344 532.99393s-22.61961-15.79323-25.60058-16.86063" fill="none" stroke="#1f1a17" stroke-width=".219064"/><path d="m487.97355 728.92326s-121.49766-21.5568-174.45778-77.58251c-7.31418-7.68352-30.61132-34.04156-48.219-66.91025-23.56868-43.96712-39.68729-104.3677-7.44983-171.06448 12.15706-25.03948 27.93736-44.4171 45.16098-59.41084l9.6441-8.63696c-.21226 2.14375 1.09304 8.4786-4.70518 11.96726l-9.84857 8.47957c-12.92172 13.32798-24.93466 29.46164-35.10423 48.98771-13.68094 26.25238-24.24574 80.03684-7.72137 126.03113 14.62908 40.4448 25.73529 57.94645 43.74968 80.25013 17.87946 22.19704 32.91406 49.51583 99.14888 75.55454 28.17272 10.99178 66.64059 16.96765 83.02908 20.16888 3.3865.74767 7.72137 8.75073 6.77324 12.16582z" fill="#00923f" stroke="#1f1a17" stroke-width=".438127"/><g transform="matrix(.00002372 0 0 .0000196 194.5146 155.78875)"><g><path d="m9073170 28049900s-251310 413690-1353630 272190c0 0 308440-479050 1170860-359290z" fill="#00923f"/><path d="m9073170 28049900s-251310 413690-1353630 272190c0 0 308440-479050 1170860-359290" fill="none" stroke="#1f1a17" stroke-width="20320"/></g><g><path d="m8245020 27445600s-651130-636910-399830-1028860c0 0 868170 517150 594020 1148620z" fill="#00923f"/><path d="m8245020 27445600s-651130-636910-399830-1028860c0 0 868170 517150 594020 1148620" fill="none" stroke="#1f1a17" stroke-width="20320"/></g><g><path d="m7776660 27206100s-131360-1186730-759630-1529700c0 0-142800-87110-108500 168760 34230 261320 217000 533510 416940 724030 194180 190550 319830 587930 319830 587930z" fill="#00923f"/><path d="m7776660 27206100s-131360-1186730-759630-1529700c0 0-142800-87110-108500 168760 34230 261320 217000 533510 416940 724030 194180 190550 319830 587930 319830 587930" fill="none" stroke="#1f1a17" stroke-width="20320"/></g><g><path d="m7302610 27102700s-234150 54440-359850 87110c-125620 32650-388330 413730-1307920 103410 0 0 68580-533460 1239390-310280 85690 16310 34300 32660 319880 70750z" fill="#00923f"/><path d="m7302610 27102700s-234150 54440-359850 87110c-125620 32650-388330 413730-1307920 103410 0 0 68580-533460 1239390-310280 85690 16310 34300 32660 319880 70750" fill="none" stroke="#1f1a17" stroke-width="20320"/></g><g><path d="m8245020 27690600s-942410 669600-1816240 342970c0 0 553990-533490 1199370-517140 651130 16300 251300 16300 251300 16300z" fill="#00923f"/><path d="m8245020 27690600s-942410 669600-1816240 342970c0 0 553990-533490 1199370-517140 651130 16300 251300 16300 251300 16300" fill="none" stroke="#1f1a17" stroke-width="20320"/></g><g><path d="m6046060 26346000c-68530-49000-142750-49000-285570-16300-148460 32620-1068020 32620-1570670-397430 0 0 1296550-119760 1639250 206860 0 0 57080 38110 108500 54460z" fill="#00923f"/><path d="m6046060 26346000c-68530-49000-142750-49000-285570-16300-148460 32620-1068020 32620-1570670-397430 0 0 1296550-119760 1639250 206860 0 0 57080 38110 108500 54460" fill="none" stroke="#1f1a17" stroke-width="20320"/></g><g><path d="m5686260 25932200s-308430-87110-434080-49010c-125650 32660-1119440 65360-1570680-860090 0 0 1050950 32670 1353640 342950 234190 239520 359840 293970 416930 326630z" fill="#00923f"/><path d="m5686260 25932200s-308430-87110-434080-49010c-125650 32660-1119440 65360-1570680-860090 0 0 1050950 32670 1353640 342950 234190 239520 359840 293970 416930 326630" fill="none" stroke="#1f1a17" stroke-width="20320"/></g><g><path d="m4858100 24968700s-148510-48970-308430-81670c-159910-38090-1245100-261270-1513550-740320 0 0 1296510-70800 1496390 342940l251310 326620z" fill="#00923f"/><path d="m4858100 24968700s-148510-48970-308430-81670c-159910-38090-1245100-261270-1513550-740320 0 0 1296510-70800 1496390 342940l251310 326620" fill="none" stroke="#1f1a17" stroke-width="20320"/></g><g><path d="m4578230 24146700c22820-299400 62830-1066960-137110-1584150 0 0-805290 375610 51460 1600460z" fill="#00923f"/><path d="m4578230 24146700c22820-299400 62830-1066960-137110-1584150 0 0-805290 375610 51460 1600460" fill="none" stroke="#1f1a17" stroke-width="20320"/></g></g><path d="m277.62288 600.4372s-23.56844 4.69577-32.50711-20.27553c0 0 23.43138-2.98773 32.50711 20.27553z" fill="#00923f" stroke="#1f1a17" stroke-width=".438127"/><g transform="matrix(.00002372 0 0 .0000196 194.5146 155.78875)"><path d="m3864280 23215800s34310-87100 0-190560c-34280-103410-525480-549810-308430-1235720 217040-691360 217040-772990 217040-772990s251300 549800 199890 1219380c-57090 669570-17110 756680-17110 756680s-57080 87130-39980 136110z" fill="#00923f"/><path d="m3864280 23215800s34310-87100 0-190560c-34280-103410-525480-549810-308430-1235720 217040-691360 217040-772990 217040-772990s251300 549800 199890 1219380c-57090 669570-17110 756680-17110 756680s-57080 87130-39980 136110" fill="none" stroke="#1f1a17" stroke-width="20320"/></g><g transform="matrix(.00002372 0 0 .0000196 194.5146 155.78875)"><path d="m4269790 23869100c-119950-277630-525460-832860-1901950-805650 0 0 753920 1333710 1896250 979860z" fill="#00923f"/><path d="m4269790 23869100c-119950-277630-525460-832860-1901950-805650 0 0 753920 1333710 1896250 979860" fill="none" stroke="#1f1a17" stroke-width="20320"/></g><g transform="matrix(.00002372 0 0 .0000196 194.5146 155.78875)"><path d="m2796220 21201600c-222750-10910-1096590-108890-1530670-941790 0 0 1159450 27220 1542070 838340z" fill="#00923f"/><path d="m2796220 21201600c-222750-10910-1096590-108890-1530670-941790 0 0 1159450 27220 1542070 838340" fill="none" stroke="#1f1a17" stroke-width="20320"/></g><g transform="matrix(.00002372 0 0 .0000196 194.5146 155.78875)"><path d="m2539200 20417700c-222750 27220-702500 27220-1039490-402860-451210-566150-651130-909100-651130-909100s685390 136080 993830 342950c234190 157890 616850 560710 765320 849250z" fill="#00923f"/><path d="m2539200 20417700c-222750 27220-702500 27220-1039490-402860-451210-566150-651130-909100-651130-909100s685390 136080 993830 342950c234190 157890 616850 560710 765320 849250" fill="none" stroke="#1f1a17" stroke-width="20320"/></g><g transform="matrix(.00002372 0 0 .0000196 194.5146 155.78875)"><path d="m2773390 20896800c-91420-277670-376950-1339180 531180-1981530 0 0 199890 789330 108500 1170410-85670 359280-39960 740320-542580 860080z" fill="#00923f"/><path d="m2773390 20896800c-91420-277670-376950-1339180 531180-1981530 0 0 199890 789330 108500 1170410-85670 359280-39960 740320-542580 860080" fill="none" stroke="#1f1a17" stroke-width="20320"/></g><path d="m254.46115 541.74485s14.49271-15.15297 8.93985-22.19625c0 0-17.47346 5.65633-10.70022 21.87671z" fill="#00923f" stroke="#1f1a17" stroke-width=".438127"/><path d="m247.14672 524.5645s1.35485-18.35558 5.55406-23.26425c4.74039-5.33583 8.66831-14.193 17.60769-17.50165 0 0-2.16709 30.62725-23.16175 40.7659z" fill="#00923f" stroke="#1f1a17" stroke-width=".438127"/><g transform="matrix(.00002372 0 0 .0000196 194.5146 155.78875)"><path d="m1985210 16574500c-17150-65310-91390-119760-142800-136110-51390-16310-719670-255830-633980-1823630 0 0 851020 811120 742520 1736570l51370 141510z" fill="#00923f"/><path d="m1985210 16574500c-17150-65310-91390-119760-142800-136110-51390-16310-719670-255830-633980-1823630 0 0 851020 811120 742520 1736570l51370 141510" fill="none" stroke="#1f1a17" stroke-width="20320"/></g><g transform="matrix(.00002372 0 0 .0000196 194.5146 155.78875)"><path d="m2025170 17783000s0-70740-57110-87090c-108500-38100-616820 38130-1045210-1034300-291280-724020-165610-789370-108500-1154060 0 0 485470 206870 828170 914530 342690 702230 274150 963540 342690 1132320l91390 157860z" fill="#00923f"/><path d="m2025170 17783000s0-70740-57110-87090c-108500-38100-616820 38130-1045210-1034300-291280-724020-165610-789370-108500-1154060 0 0 485470 206870 828170 914530 342690 702230 274150 963540 342690 1132320l91390 157860" fill="none" stroke="#1f1a17" stroke-width="20320"/></g><g transform="matrix(.00002372 0 0 .0000196 194.5146 155.78875)"><path d="m2110860 17282200s74240-70790 91390-136110c17110-70760 165590-1034340 1085170-1241160 0 0-57120 996200-1028080 1426240l-125620 87110z" fill="#00923f"/><path d="m2110860 17282200s74240-70790 91390-136110c17110-70760 165590-1034340 1085170-1241160 0 0-57120 996200-1028080 1426240l-125620 87110" fill="none" stroke="#1f1a17" stroke-width="20320"/></g><g transform="matrix(.00002372 0 0 .0000196 194.5146 155.78875)"><path d="m2145140 16628900c5700-43570 11400-92540 22810-157860 0 0 79980-892780 502650-1028860 108500-32700 434050-397430 508320-446390 0 0 142780 1273810-1028080 1752870z" fill="#00923f"/><path d="m2145140 16628900c5700-43570 11400-92540 22810-157860 0 0 79980-892780 502650-1028860 108500-32700 434050-397430 508320-446390 0 0 142780 1273810-1028080 1752870" fill="none" stroke="#1f1a17" stroke-width="20320"/></g><g transform="matrix(.00002372 0 0 .0000196 194.5146 155.78875)"><path d="m2196510 14990300c-137060-70750-565440-315710-645380-729440-85690-500850 39960-1273830 39960-1273830s605420 538900 668250 827420c45710 206870 114250 489970-11410 1143200z" fill="#00923f"/><path d="m2196510 14990300c-137060-70750-565440-315710-645380-729440-85690-500850 39960-1273830 39960-1273830s605420 538900 668250 827420c45710 206870 114250 489970-11410 1143200" fill="none" stroke="#1f1a17" stroke-width="20320"/></g><g transform="matrix(.00002372 0 0 .0000196 194.5146 155.78875)"><path d="m2276490 15338700s125650-54430 199890-32650c68570 16350 1028080-261320 1205120-1203070 0 0-194190-185080-719670 359300-525430 549800-434040 566150-508270 653250l-159920 119760z" fill="#00923f"/><path d="m2276490 15338700s125650-54430 199890-32650c68570 16350 1028080-261320 1205120-1203070 0 0-194190-185080-719670 359300-525430 549800-434040 566150-508270 653250l-159920 119760" fill="none" stroke="#1f1a17" stroke-width="20320"/></g><path d="m249.31404 446.98043s-2.57307-13.97913 13.27424-21.44957c15.84755-7.36301 12.05481-3.73463 21.40042-9.7107 0 0 4.06381 12.37891-15.84732 20.16908-2.57402 1.0674-17.06673 6.29639-18.82734 10.99119z" fill="#00923f" stroke="#1f1a17" stroke-width=".438127"/><path d="m251.07465 432.25441s-11.6481-12.80587-10.29326-20.91655c1.21824-8.00306 4.74038-11.73788 5.14615-13.44631 0 0 5.96077 5.86943 7.72113 11.52558.81248 2.66821 4.19922 10.7779-2.57402 22.83728z" fill="#00923f" stroke="#1f1a17" stroke-width=".438127"/><g transform="matrix(.00002372 0 0 .0000196 194.5146 155.78875)"><path d="m2653450 13417100s17150-174200 17150-223180c0-54430-325590-430030-302760-876440 17150-446390 159950-1017970 342740-1344610 0 0 159910 381080 217040 484490 51370 103410 268410 892750-74280 1497040 0 0-108500 103420-125660 288500z" fill="#00923f"/><path d="m2653450 13417100s17150-174200 17150-223180c0-54430-325590-430030-302760-876440 17150-446390 159950-1017970 342740-1344610 0 0 159910 381080 217040 484490 51370 103410 268410 892750-74280 1497040 0 0-108500 103420-125660 288500" fill="none" stroke="#1f1a17" stroke-width="20320"/></g><g transform="matrix(.00002372 0 0 .0000196 194.5146 155.78875)"><path d="m3270310 12094300v-103410s-616860-517150 0-1497030c0 0 593970 582460 159880 1393570 0 0-51380 87110-91390 168780z" fill="#00923f"/><path d="m3270310 12094300v-103410s-616860-517150 0-1497030c0 0 593970 582460 159880 1393570 0 0-51380 87110-91390 168780" fill="none" stroke="#1f1a17" stroke-width="20320"/></g><g transform="matrix(.00002372 0 0 .0000196 194.5146 155.78875)"><path d="m2853340 13313700s108490-32700 182780-32700c68530 0 611120-190520 793880-293930 177080-103410 468370-549800 576860-756710 0 0-439780 10910-725360 239520-125650 103450-628230 468180-793860 620600z" fill="#00923f"/><path d="m2853340 13313700s108490-32700 182780-32700c68530 0 611120-190520 793880-293930 177080-103410 468370-549800 576860-756710 0 0-439780 10910-725360 239520-125650 103450-628230 468180-793860 620600" fill="none" stroke="#1f1a17" stroke-width="20320"/></g><g transform="matrix(.00002372 0 0 .0000196 194.5146 155.78875)"><path d="m3087530 12747500s91390-87110 217040-87110c125620 0 976640-582470 1102290-1241160 0 0-616820-32700-1010900 636910-399850 675010-291310 549800-325580 604250z" fill="#00923f"/><path d="m3087530 12747500s91390-87110 217040-87110c125620 0 976640-582470 1102290-1241160 0 0-616820-32700-1010900 636910-399850 675010-291310 549800-325580 604250" fill="none" stroke="#1f1a17" stroke-width="20320"/></g><g fill="none" stroke="#1f1a17" stroke-width=".219064"><path d="m406.29929 705.3385-26.14151 5.01648"/><path d="m384.89818 697.5501s-29.52755 6.72257-33.04946 7.04308"/><path d="m360.51679 687.09172s-23.02538 1.06721-26.81812 2.02738"/><path d="m392.07695 691.78673s-8.53385-14.40688-10.70116-16.43406"/><path d="m376.36505 686.1292s-12.86847-24.33086-15.44156-25.61154"/><path d="m331.12464 669.58988s-18.01462-1.06721-33.45499-4.37487"/><path d="m320.83138 661.15849s-12.46176-4.69558-15.03483-5.12274c-2.57404-.31954-17.47322-6.40205-19.64054-8.00306"/><path d="m304.57735 640.88278s-29.12179-9.71149-33.05041-10.13865"/><path d="m301.59756 627.75639s-7.31465-19.52805-2.57425-25.93186"/><path d="m292.92807 624.76884s-34.67418-13.55296-38.46692-15.2606"/><path d="m285.7493 604.17163s-3.92791-23.26326-.94812-28.386"/><path d="m274.64307 598.41022-19.77497-13.44593"/><path d="m262.18157 564.68858s8.5329-29.34774 10.2942-33.40211"/><path d="m259.20154 569.38358s-11.6481-9.07066-32.10134-14.83345"/><path d="m254.05444 539.7159s1.76178-10.03121 8.53384-16.43425"/><path d="m220.59944 534.38184s24.51633 17.18113 32.10134 19.52883"/><path d="m250.12652 520.8281s15.03484-29.9872 18.01486-32.97534"/><path d="m241.18714 501.61881s-24.78716-26.57211-25.19386-38.73793"/><path d="m248.50157 492.86788s18.82711-19.20831 21.40113-22.19645"/><path d="m248.90827 480.70402s15.03485-17.18094 18.01464-25.61134"/><path d="m239.01984 475.368s-11.91964-15.58014-14.08601-29.66669"/><path d="m252.29383 454.45125s22.75598-11.09842 26.95448-20.48939"/><path d="m251.07465 443.35381s8.80419-11.52558 15.84826-13.12658c7.72018-1.60022 16.25403-12.3791 16.25403-12.3791"/><path d="m233.46696 414.75257s10.29422 31.5882 12.86729 32.97533"/><path d="m246.74098 401.62811 4.33365 26.99774"/><path d="m259.20154 374.30895s2.16755 33.40151.40695 36.70977"/><path d="m262.995 414.75257s29.93307-14.51352 33.04851-16.86121"/><path d="m271.12117 402.2672s20.5889-19.84934 25.3293-20.59603"/><path d="m272.88249 364.81114s.81177 21.66264.81177 24.01034"/><path d="m465.76207 714.40896s5.82442 8.43021 4.74111 10.13785"/><path d="m469.01103 715.26367s4.87676 7.57687 4.60641 9.39097"/><path d="m471.72166 715.90469s5.82441 7.79017 5.82441 10.03122"/><path d="m475.37851 716.97112s5.1471 5.01589 5.1471 9.92476"/><path d="m478.76264 716.97112s5.01193 7.68352 4.7404 10.45915"/><path d="m481.33809 717.61214s5.14616 8.1097 5.14616 10.24431"/><path d="m482.41946 717.93164-32.23577-6.51025"/><path d="m450.59158 712.38196 30.34101 6.72394"/></g><g transform="matrix(.00002372 0 0 .0000196 194.5146 155.78875)"><path d="m4029890 11174300c154230 59890 536880 108860 1188010-511710 0 0-696790-206870-1216560 408260z" fill="#00923f"/><path d="m4029890 11174300c154230 59890 536880 108860 1188010-511710 0 0-696790-206870-1216560 408260" fill="none" stroke="#1f1a17" stroke-width="20320"/></g><path d="m291.71007 373.98746s20.99418-8.75073 24.78692-7.78998" fill="none" stroke="#1f1a17" stroke-width=".219064"/><g transform="matrix(.00002372 0 0 .0000196 194.5146 155.78875)"><path d="m7810930 27429300s-936700 430040-1513520 70760c0 0 485470-293970 1422130-174210z" fill="#00923f"/><path d="m7810930 27429300s-936700 430040-1513520 70760c0 0 485470-293970 1422130-174210" fill="none" stroke="#1f1a17" stroke-width="20320"/></g><path d="m373.79102 693.17267-22.75501 2.02893" fill="none" stroke="#1f1a17" stroke-width=".219064"/><g transform="matrix(.00002372 0 0 .0000196 194.5146 155.78875)"><path d="m6143200 26079200s97100-805680-376970-1328310c0 0-491200 348410 319840 1268420z" fill="#00923f"/><path d="m6143200 26079200s97100-805680-376970-1328310c0 0-491200 348410 319840 1268420" fill="none" stroke="#1f1a17" stroke-width="20320"/></g><path d="m338.84577 664.14604s-7.17876-10.35095-7.31513-20.81011" fill="none" stroke="#1f1a17" stroke-width=".219064"/><g transform="matrix(.00002372 0 0 .0000196 194.5146 155.78875)"><path d="m5749080 25714500s291280-985330-422630-1622240c0 0-839620 462710 279830 1556890z" fill="#00923f"/><path d="m5749080 25714500s291280-985330-422630-1622240c0 0-839620 462710 279830 1556890" fill="none" stroke="#1f1a17" stroke-width="20320"/></g><path d="m328.95757 656.35763s-10.02268-15.47329-8.12619-25.39786" fill="none" stroke="#1f1a17" stroke-width=".219064"/><g transform="matrix(.00002372 0 0 .0000196 194.5146 155.78875)"><path d="m6771430 26612700s102800-789380-279830-1328270c0 0-525480 304800 177030 1295570z" fill="#00923f"/><path d="m6771430 26612700s102800-789380-279830-1328270c0 0-525480 304800 177030 1295570" fill="none" stroke="#1f1a17" stroke-width="20320"/></g><path d="m352.7966 675.24544s-5.4177-13.01935-4.33368-21.34292" fill="none" stroke="#1f1a17" stroke-width=".219064"/><path d="m454.24844 714.19724s1.08307 2.24047-2.16731 5.22919" fill="none" stroke="#1f1a17" stroke-width=".219064"/><path d="m456.55116 714.40896s.13542 3.09536-2.1673 5.54951" fill="none" stroke="#1f1a17" stroke-width=".219064"/><path d="m245.22226 514.82165s-23.2936-2.02954-27.47858-14.13753c0 0 19.22907-.05705 27.47858 14.13753z" fill="#00923f" stroke="#1f1a17" stroke-width=".438127"/><path d="m241.5891 513.03186-23.84543-12.34814" fill="none" stroke="#1f1a17" stroke-width=".219064"/><g transform="matrix(.00002371 -.00000055 .00000045 .0000196 188.89206 161.22109)"><path d="m3847130 11114400s-416940-1137700 811040-2014190c0 0 68530 1208550-748180 1954350z" fill="#00923f"/><path d="m3847130 11114400s-416940-1137700 811040-2014190c0 0 68530 1208550-748180 1954350" fill="none" stroke="#1f1a17" stroke-width="20320"/></g><path d="m287.23196 372.81909s11.58651-31.97216 14.54814-32.78879" fill="none" stroke="#1f1a17" stroke-width=".219064"/></g><path d="m470.45971 453.61822c0 104.67325-66.69643 189.55945-148.93973 189.55945-82.24329 0-148.93972-84.8862-148.93972-189.55945 0-104.67324 66.69643-189.55944 148.93972-189.55944 82.2433 0 148.93973 84.8862 148.93973 189.55944z" fill="none" stroke="#1f1a17" stroke-width=".669908"/><g transform="matrix(.6415718 .767063 -.767063 .6415718 200.04305 -648.05196)"><path d="m922.39163 418.91683c-36.22514-72.13905-104.40892-96.41347-148.2501-104.52609l7.68002 2.71002c40.7665 10.33173 97.86951 36.19509 133.74295 100.29153" fill="#00923f" stroke="#1f1a17" stroke-width=".438042"/><path d="m781.93013 317.52374s-42.74909-2.93365-53.64334-11.94398c0 0 32.26892 2.30503 53.64334 11.94398z" fill="#00923f" stroke="#1f1a17" stroke-width=".438042"/><path d="m778.69592 316.53798s-47.57583-7.64861-50.60959-10.58206" fill="none" stroke="#1f1a17" stroke-width=".219021"/><g transform="matrix(.00002414 0 0 .00001925 480.34654 166.20386)"><g><path d="m17737600 12094300v-103410s342660-1241210-274160-2221050c0 0-234190 1306480 199890 2117590 0 0-34260 87110 0 168780z" fill="#00923f"/><path d="m17737600 12094300v-103410s342660-1241210-274160-2221050c0 0-234190 1306480 199890 2117590 0 0-34260 87110 0 168780" fill="none" stroke="#1f1a17" stroke-width="20320"/></g><g><path d="m17914600 12747500s-85640-87110-217040-87110c-125650 0-970920-582470-1096620-1241160 0 0 611170-32700 1010980 636910 394070 675010 285580 549800 319840 604250z" fill="#00923f"/><path d="m17914600 12747500s-85640-87110-217040-87110c-125650 0-970920-582470-1096620-1241160 0 0 611170-32700 1010980 636910 394070 675010 285580 549800 319840 604250" fill="none" stroke="#1f1a17" stroke-width="20320"/></g><g><path d="m17086400 11234200c-342690-794820-1187960-740360-1187960-740360-22900-54460 525430 947180 1130850 947180 91390 0 239890 81670 239890 81670z" fill="#00923f"/><path d="m17086400 11234200c-342690-794820-1187960-740360-1187960-740360-22900-54460 525430 947180 1130850 947180 91390 0 239890 81670 239890 81670" fill="none" stroke="#1f1a17" stroke-width="20320"/></g><g><path d="m16435300 10199800c108550-201430 354120-838340-199890-1377240 0 0-519760 642320 97100 1371810z" fill="#00923f"/><path d="m16435300 10199800c108550-201430 354120-838340-199890-1377240 0 0-519760 642320 97100 1371810" fill="none" stroke="#1f1a17" stroke-width="20320"/></g><g><path d="m17160700 11114400s468360-653220-382660-1290130c0 0-422630 549820 302720 1241160z" fill="#00923f"/><path d="m17160700 11114400s468360-653220-382660-1290130c0 0-422630 549820 302720 1241160" fill="none" stroke="#1f1a17" stroke-width="20320"/></g></g><g stroke="#1f1a17"><path d="m878.54775 368.49278s-21.37442-1.67661-27.99316-5.65729c-5.65465-3.45775 20.54627-6.70589 27.99316 5.65729z" fill="#00923f" stroke-width=".438042"/><path d="m868.89477 360.21653s-22.47759-.52333-34.33738-8.59113c0 0 24.82251-3.98146 34.33738 8.59113z" fill="#00923f" stroke-width=".438042"/><path d="m857.17502 352.25285s-.82768-19.48865-12.27339-24.09833c0 0-9.51463 16.13504 12.27339 24.09833z" fill="#00923f" stroke-width=".438042"/><path d="m846.27859 346.28086s-10.89377 7.01981-23.99531-2.30541c0 0 10.48065-4.61007 23.99531 2.30541z" fill="#00923f" stroke-width=".438042"/><path d="m834.00593 338.00365s-12.9632 4.71496-30.47643-4.29634c0 0 22.7538-3.24814 30.47643 4.29634z" fill="#00923f" stroke-width=".438042"/><path d="m815.38808 318.8295s23.85794 12.57278 23.44337 20.53588c0 0-13.92753-6.28649-16.54817-6.9151-2.61968-.73331-8.6872-5.34338-6.8952-13.62078z" fill="#00923f" stroke-width=".438042"/><path d="m820.49224 331.08836s-19.58218 1.99053-41.3702-5.97199c0 0 23.58051-4.29614 41.3702 5.97199z" fill="#00923f" stroke-width=".438042"/><path d="m801.89853 321.85302s-4.94431-10.05237-21.77474-12.15435c0 0 4.58167 9.86761 21.77474 12.15435z" fill="#00923f" stroke-width=".438042"/><g fill="none" stroke-width=".219021"><path d="m909.43826 408.2034s-20.96155-19.48865-25.64994-20.22177"/><path d="m903.37074 359.90088s5.65369 19.17454 3.8612 31.43359"/><path d="m893.71776 384.41976s-20.96155-15.29702-25.2361-14.24978"/><path d="m892.47673 376.14158s-3.03376-13.93605-5.23936-16.86989"/><path d="m875.5152 359.58716-2.20679-20.53549"/><path d="m857.17499 350.57623-10.06824-18.85925"/><path d="m844.07422 346.28085-21.79047-2.30542"/><path d="m862.82727 358.53952-28.27087-6.9147"/><path d="m876.75623 367.54968-26.20166-4.71362"/><path d="m830.97338 335.38393s-12.54912-10.58206-13.51442-13.2012"/><path d="m832.7649 337.68896s-23.16692-3.24776-26.20092-3.66696"/><path d="m817.0444 330.04035s-33.50995-4.29537-35.71676-4.61006"/><path d="m800.44989 321.11566-19.50397-10.91946"/></g></g></g><g transform="matrix(.9608432 0 0 1.024521 -112.32264 -52.491955)"><g transform="matrix(.00002414 0 0 .00001925 205.37203 166.20386)"><g><path d="m12123100 27930100c137050-21740 416930 87100 485460 87100 91380 0 725350 103420 1176560-326620 0 0-833860-206840-1302220 81650 0 0-199890 87110-302690 87110z" fill="#00923f"/><path d="m12123100 27930100c137050-21740 416930 87100 485460 87100 91380 0 725350 103420 1176560-326620 0 0-833860-206840-1302220 81650 0 0-199890 87110-302690 87110" fill="none" stroke="#1f1a17" stroke-width="20320"/></g><g><path d="m13728100 27157100c125650 27220 365500 59890 416930 81630 74240 38130 633970 38130 719660 21780 91380-21780 868130-21780 1262240-397380 0 0-479750-337500-1205120-255870-651130 65320-759670 272190-902430 342970z" fill="#00923f"/><path d="m13728100 27157100c125650 27220 365500 59890 416930 81630 74240 38130 633970 38130 719660 21780 91380-21780 868130-21780 1262240-397380 0 0-479750-337500-1205120-255870-651130 65320-759670 272190-902430 342970" fill="none" stroke="#1f1a17" stroke-width="20320"/></g><g><path d="m12523000 27565400s182720-195960 234150-255830c68540-87110 125650-277620 159910-397380 57130-168780 234170-342980 325590-446410 91340-103440 542550-462730 651100-582500 108500-119730-165630 740370-325590 892800-165630 157850-399780 446380-399780 446380s-359850 206870-468360 326630z" fill="#00923f"/><path d="m12523000 27565400s182720-195960 234150-255830c68540-87110 125650-277620 159910-397380 57130-168780 234170-342980 325590-446410 91340-103440 542550-462730 651100-582500 108500-119730-165630 740370-325590 892800-165630 157850-399780 446380-399780 446380s-359850 206870-468360 326630" fill="none" stroke="#1f1a17" stroke-width="20320"/></g><g><path d="m11597700 27946400c325590-250390 491170-419170 514030-517150 257050-898220 879570-1012550 879570-1012550 257020 402820-759630 1219420-759630 1219420-91390 70760-451190 277620-451190 277620z" fill="#00923f"/><path d="m11597700 27946400c325590-250390 491170-419170 514030-517150 257050-898220 879570-1012550 879570-1012550 257020 402820-759630 1219420-759630 1219420-91390 70760-451190 277620-451190 277620" fill="none" stroke="#1f1a17" stroke-width="20320"/></g><g><path d="m13585300 27015600s376960-1186720 845320-1409940c0 0 39960 691360-576860 1241160z" fill="#00923f"/><path d="m13585300 27015600s376960-1186720 845320-1409940c0 0 39960 691360-576860 1241160" fill="none" stroke="#1f1a17" stroke-width="20320"/></g><g><path d="m14670400 26449400c68570-49000 394110 136130 645430 87110 114240-21780 1090870-402820 1227970-517150 0 0-970970 32660-1313660 190520-165630 70760-165630 119810-365510 119810z" fill="#00923f"/><path d="m14670400 26449400c68570-49000 394110 136130 645430 87110 114240-21780 1090870-402820 1227970-517150 0 0-970970 32660-1313660 190520-165630 70760-165630 119810-365510 119810" fill="none" stroke="#1f1a17" stroke-width="20320"/></g><g><path d="m15190200 26019300s291270-136110 416940-103450c125650 32700 1153730 16350 1587780-1203030 0 0-776740 326630-1085180 636880-302710 310320-685390 446390-736770 479090z" fill="#00923f"/><path d="m15190200 26019300s291270-136110 416940-103450c125650 32700 1153730 16350 1587780-1203030 0 0-776740 326630-1085180 636880-302710 310320-685390 446390-736770 479090" fill="none" stroke="#1f1a17" stroke-width="20320"/></g><g><path d="m15247300 25736300c0-70760-57120-430060-57120-430060s-34270-549800 274120-876430c0 0 222790 517150 34270 925450-62830 141500-165580 277610-165580 277610z" fill="#00923f"/><path d="m15247300 25736300c0-70760-57120-430060-57120-430060s-34270-549800 274120-876430c0 0 222790 517150 34270 925450-62830 141500-165580 277610-165580 277610" fill="none" stroke="#1f1a17" stroke-width="20320"/></g><g><path d="m17646200 22029100s-776790-620560 51370-1703870c0 0 371270 1034290 0 1633110z" fill="#00923f"/><path d="m17646200 22029100s-776790-620560 51370-1703870c0 0 371270 1034290 0 1633110" fill="none" stroke="#1f1a17" stroke-width="20320"/></g><g><path d="m17412000 22780400c211320 27180 993770 48970 1313660-1045210 0 0-948110-146980-1342240 963500z" fill="#00923f"/><path d="m17412000 22780400c211320 27180 993770 48970 1313660-1045210 0 0-948110-146980-1342240 963500" fill="none" stroke="#1f1a17" stroke-width="20320"/></g><g><path d="m17137900 23215800s-34310-87100 0-190560c39960-103410 325540-391900 165610-860090-239890-680480-234190-342930-234190-342930s-182770-32700-125650 636860c51430 669620 108540 533510 108540 533510s51380 87130 34260 136110z" fill="#00923f"/><path d="m17137900 23215800s-34310-87100 0-190560c39960-103410 325540-391900 165610-860090-239890-680480-234190-342930-234190-342930s-182770-32700-125650 636860c51430 669620 108540 533510 108540 533510s51380 87130 34260 136110" fill="none" stroke="#1f1a17" stroke-width="20320"/></g><g><path d="m16795200 23858200c114200-212310 411210-571600 1267950-538930 0 0-245620 849200-1302230 696790z" fill="#00923f"/><path d="m16795200 23858200c114200-212310 411210-571600 1267950-538930 0 0-245620 849200-1302230 696790" fill="none" stroke="#1f1a17" stroke-width="20320"/></g><g><path d="m18348700 20379600s416930 185110 1028050-190520c628270-386510 885320-740360 885320-740360s-936700-16320-1245120 190550c-262720 179650-502620 408270-622570 631480z" fill="#00923f"/><path d="m18348700 20379600s416930 185110 1028050-190520c628270-386510 885320-740360 885320-740360s-936700-16320-1245120 190550c-262720 179650-502620 408270-622570 631480" fill="none" stroke="#1f1a17" stroke-width="20320"/></g><g><path d="m18714200 19350800c239900-48970 1028080-288530 1313660-1295610 0 0-1376500 517190-1393600 1241160z" fill="#00923f"/><path d="m18714200 19350800c239900-48970 1028080-288530 1313660-1295610 0 0-1376500 517190-1393600 1241160" fill="none" stroke="#1f1a17" stroke-width="20320"/></g><g><path d="m18982600 17783000s0-70740 51390-87090c57110-16320 736810-440920 1045230-1154070 131370-293970 74240-582490 22830-947180 0 0-365520 277580-708220 979840-342690 707710-302730 811120-376950 979900l-91390 157860z" fill="#00923f"/><path d="m18982600 17783000s0-70740 51390-87090c57110-16320 736810-440920 1045230-1154070 131370-293970 74240-582490 22830-947180 0 0-365520 277580-708220 979840-342690 707710-302730 811120-376950 979900l-91390 157860" fill="none" stroke="#1f1a17" stroke-width="20320"/></g><g><path d="m18891300 17538000s-74220-326630-91370-391950c-17130-70760 34260-794770-885300-1001640 0 0-142760 930880 833870 1360930l108540 119760z" fill="#00923f"/><path d="m18891300 17538000s-74220-326630-91370-391950c-17130-70760 34260-794770-885300-1001640 0 0-142760 930880 833870 1360930l108540 119760" fill="none" stroke="#1f1a17" stroke-width="20320"/></g><g><path d="m18885600 16492800c-11450-81670-28560-206870-51410-310280 0 0-365520-642400-793910-773030-108490-38090-302680-141510-376950-190520 0 0 51410 843780 1170860 1333700z" fill="#00923f"/><path d="m18885600 16492800c-11450-81670-28560-206870-51410-310280 0 0-365520-642400-793910-773030-108490-38090-302680-141510-376950-190520 0 0 51410 843780 1170860 1333700" fill="none" stroke="#1f1a17" stroke-width="20320"/></g><g><path d="m18822700 15050200c251300-402860 502610-451870 628270-789360 177020-479060-34270-1273830-34270-1273830s-605450 538900-668280 827420c-39970 163350-74240 696800 0 1105100z" fill="#00923f"/><path d="m18822700 15050200c251300-402860 502610-451870 628270-789360 177020-479060-34270-1273830-34270-1273830s-605450 538900-668280 827420c-39970 163350-74240 696800 0 1105100" fill="none" stroke="#1f1a17" stroke-width="20320"/></g><g><path d="m18348700 13417100s-17110-174200-17110-223180c0-54430 182740-740360 159880-1186750-17120-446400-234160-669570-411230-996200 0 0-108500 430040-165630 533500-51360 103410-108500 805640 234200 1409930 0 0 108500 103420 131320 288500z" fill="#00923f"/><path d="m18348700 13417100s-17110-174200-17110-223180c0-54430 182740-740360 159880-1186750-17120-446400-234160-669570-411230-996200 0 0-108500 430040-165630 533500-51360 103410-108500 805640 234200 1409930 0 0 108500 103420 131320 288500" fill="none" stroke="#1f1a17" stroke-width="20320"/></g><g><path d="m17737600 12094300v-103410s342660-1241210-274160-2221050c0 0-234190 1306480 199890 2117590 0 0-34260 87110 0 168780z" fill="#00923f"/><path d="m17737600 12094300v-103410s342660-1241210-274160-2221050c0 0-234190 1306480 199890 2117590 0 0-34260 87110 0 168780" fill="none" stroke="#1f1a17" stroke-width="20320"/></g><g><path d="m17914600 12747500s-85640-87110-217040-87110c-125650 0-970920-582470-1096620-1241160 0 0 611170-32700 1010980 636910 394070 675010 285580 549800 319840 604250z" fill="#00923f"/><path d="m17914600 12747500s-85640-87110-217040-87110c-125650 0-970920-582470-1096620-1241160 0 0 611170-32700 1010980 636910 394070 675010 285580 549800 319840 604250" fill="none" stroke="#1f1a17" stroke-width="20320"/></g><g><path d="m17086400 11234200c-342690-794820-1187960-740360-1187960-740360-22900-54460 525430 947180 1130850 947180 91390 0 239890 81670 239890 81670z" fill="#00923f"/><path d="m17086400 11234200c-342690-794820-1187960-740360-1187960-740360-22900-54460 525430 947180 1130850 947180 91390 0 239890 81670 239890 81670" fill="none" stroke="#1f1a17" stroke-width="20320"/></g><g><path d="m17160700 11114400s468360-653220-382660-1290130c0 0-422630 549820 302720 1241160z" fill="#00923f"/><path d="m17160700 11114400s468360-653220-382660-1290130c0 0-422630 549820 302720 1241160" fill="none" stroke="#1f1a17" stroke-width="20320"/></g></g><g stroke="#1f1a17" transform="matrix(.2134484 -.9769543 -.9769543 -.2134484 809.90686 999.38433)"><path d="m576.33049 342.69039s23.85794 12.57278 23.44337 20.53588c0 0-13.92753-6.28649-16.54817-6.9151-2.61968-.73331-8.6872-5.34338-6.8952-13.62078z" fill="#00923f" stroke-width=".438042"/><path d="m591.91579 359.24482s-12.54912-10.58206-13.51442-13.2012" fill="none" stroke-width=".219021"/></g><g transform="matrix(.00002414 0 0 .00001925 205.37203 166.20386)"><path d="m16075500 24761800c0-65330-74240-533500-74240-533500s-17150-756680 382680-1115960c0 0 142750 446390-62840 1241200-40010 141500-62820 179610-62820 179610z" fill="#00923f"/><path d="m16075500 24761800c0-65330-74240-533500-74240-533500s-17150-756680 382680-1115960c0 0 142750 446390-62840 1241200-40010 141500-62820 179610-62820 179610" fill="none" stroke="#1f1a17" stroke-width="20320"/></g><g stroke="#1f1a17"><path d="m413.54543 728.92357s122.87029-20.32667 177.75515-76.1727c7.4469-7.5439 31.166-33.42298 49.09379-65.69439 23.99411-43.16816 40.54277-102.47117 7.58452-167.95595-8.0821-16.09477-16.06975-31.60106-28.39346-41.48871-9.96325-7.99379-28.84629-27.37319-29.16166-22.10116l13.90104 14.25764c13.69983 14.05127 27.36549 30.23657 38.41376 50.69377 13.9268 25.77533 24.68415 78.58243 7.86 123.74094-14.7552 39.70984-26.20188 56.89346-44.40516 78.79184-18.34067 21.79368-33.64661 48.61605-101.08107 74.18159-28.68394 10.79204-67.98568 16.65933-84.5341 19.80238-3.58546.73408-7.86001 8.59171-7.03281 11.94475z" fill="#00923f" stroke-width=".438042"/><path d="m620.12189 414.4895 24.823 14.56427" fill="none" stroke-width=".219021"/><path d="m537.2434 687.53653s.55194-.10451 1.51724-.31411" fill="none" stroke-width=".219021"/><path d="m615.7107 411.24251s25.7878 9.22013 29.23443 15.50701c3.44808 6.28668 3.86216 4.61006 3.86216 4.61006s-8.13646-1.88564-14.34185-4.29614c-6.48208-2.40974-13.51441-.83802-18.75474-15.82093z" fill="#00923f" stroke-width=".438042"/><path d="m538.75967 687.2228c3.86095-.73293 14.75593-2.72423 18.61737-1.67623 4.826 1.36174 20.82272-1.67642 23.02929-1.67642h12.27314" fill="none" stroke-width=".219021"/><path d="m503.31792 703.4635s26.20212-1.36173 30.47764-3.35303" fill="none" stroke-width=".219021"/><path d="m539.45021 668.04884s-23.02954 26.40298-27.44267 26.71767" fill="none" stroke-width=".219021"/><path d="m659.69961 533.93506s-1.24175-18.02125-5.65392-22.84053c-4.82697-5.34434-1.65535-10.89713-16.54818-19.17492 0 0 .82719 32.06201 22.2021 42.01545z" fill="#00923f" stroke-width=".438042"/><path d="m656.66465 530.26849s-13.92681-26.82314-16.13338-33.10982" fill="none" stroke-width=".219021"/><path d="m637.49872 587.8943s19.58121-2.30503 18.75378-14.56389c0 0-18.34091 1.67642-18.75378 14.56389z" fill="#00923f" stroke-width=".438042"/><path d="m647.56457 569.97718s-1.79249-29.1276-14.89403-39.70984c0 0-4.68863 15.19231-2.61968 22.52699 2.20657 7.22921 3.5857 15.19251 17.51371 17.18285z" fill="#00923f" stroke-width=".438042"/><path d="m656.66465 452.1041s-1.65463-14.45842-14.34089-19.69728c-16.41079-6.9151-10.4809-3.03893-19.99577-8.90641 0 0-4.41314 10.37284 15.16952 17.81223 2.61944 1.048 17.51251 6.18198 19.16714 10.79146z" fill="#00923f" stroke-width=".438042"/><path d="m603.57324 368.49278s-21.37442-1.67661-27.99316-5.65729c-5.65465-3.45775 20.54627-6.70589 27.99316 5.65729z" fill="#00923f" stroke-width=".438042"/><g fill="none" stroke-width=".219021"><path d="m496.83753 698.12051s17.51323-18.12692 20.82296-21.16526"/><path d="m537.2434 683.55431s12.27338-17.18285 13.51465-20.85058"/><path d="m564.68607 674.64867s10.48089 0 35.30268-6.28668"/><path d="m583.99203 662.3902s12.5484-4.61026 15.16808-5.02965c2.62089-.31373 15.72122-10.26737 17.92779-11.83928"/><path d="m610.88421 627.29119s24.27056-8.90583 28.40724-10.58206"/><path d="m618.74325 608.43096s.41408-12.57336 0-20.85115"/><path d="m627.43048 602.45856 20.1341-13.20154"/><path d="m640.53127 585.27477s10.06658-7.64802 12.68626-9.01033"/><path d="m631.84407 586.21981s-.41311-19.48884-.41311-21.47996"/><path d="m645.35776 567.35958s-10.06682-15.19309-12.13552-32.48044"/><path d="m689.34909 543.15442s-30.47643 12.25867-38.33644 14.56371"/><path d="m658.45858 536.5546s15.72123-7.64765 26.0633-18.54458"/><path d="m664.93898 505.74961s16.54817-19.17395 23.58099-32.37573"/><path d="m660.11248 503.13008s-16.82414-19.80276-19.58145-22.84168"/><path d="m659.28674 482.90908s-9.51608-7.5439-23.99483-20.53569"/><path d="m655.01075 448.54339s-9.1008-11.31614-16.13434-12.88805c-7.86001-1.57114-14.89283-8.59171-14.89283-8.59171"/><path d="m672.80043 420.46187s-10.48065 31.0142-13.10033 32.37612"/><path d="m642.73808 383.05706s1.79249 30.48952 3.44688 33.73766"/><path d="m634.46375 408.2034s-20.96155-19.48865-25.64994-20.22177"/><path d="m628.39623 359.90088s5.65369 19.17454 3.8612 31.43359"/><path d="m618.74325 384.41976s-20.96155-15.29702-25.2361-14.24978"/><path d="m617.50222 376.14158s-3.03376-13.93605-5.23936-16.86989"/><path d="m601.78174 367.54968-26.20166-4.71362"/><path d="m575.58008 659.56087s2.7573-18.02144 2.20536-20.01178"/><path d="m595.71417 639.54968 3.44544-24.51697"/></g><path d="m663.49755 479.17707s-3.03907-18.85484 10.48838-24.90228c0 0 4.58505 15.17249-10.48838 24.90228z" fill="#00923f" stroke-width=".438042"/><path d="m664.79169 475.90314 9.19421-21.62796" fill="none" stroke-width=".219021"/><path d="m419.47532 717.81799s23.02954-3.45774 31.71698-5.97276" fill="none" stroke-width=".219021"/><path d="m418.78601 718.65521 30.3371-5.44885" fill="none" stroke-width=".219021"/><path d="m420.30179 717.81799s-5.23912 5.44808-5.37699 10.05815" fill="none" stroke-width=".219021"/><path d="m421.81976 717.50234s-6.34422 7.96329-4.55173 9.74442" fill="none" stroke-width=".219021"/><path d="m424.16395 717.29447s-5.37795 7.0198-4.55052 9.95364" fill="none" stroke-width=".219021"/><path d="m426.37052 716.4553s-5.24033 7.64764-4.27503 9.95305" fill="none" stroke-width=".219021"/><path d="m428.30063 716.14157s-4.68863 7.6486-3.58474 10.26775" fill="none" stroke-width=".219021"/></g></g><g transform="matrix(.00002029 0 0 .00002029 108.47399 101.15161)"><path d="m10767200 28555100s5000 190710-55200 265950" fill="none" stroke="#1f1a17" stroke-width="10160"/><path d="m9673400 29448300s361270-70260 426490-40160c65220 35150 135470-411450 366280-571980 265950-180650 702480-521840 1133980-1128970 0 0-95320-175610-516800-120410 0 0-10060 205710-55180 285990-50190 80290-275970 411450-562000 521830-285990 110360-506780 426490-602090 697450-95320 270960-190680 356250-190680 356250z" fill="#75aadb"/><g clip-path="url(#c)"><path d="m11506200 27622500c-9750-5180-19150-9480-26590-12470-76570-30770-171810-35600-259420-30130-9330 85680-84080 250880-145710 348690-161030 255600-265690 442710-571710 560800-253070 97650-455750 388830-542830 636380-17710 50360-80900 218160-113570 285590 49340-6440 122890-15760 184770-11720 14780-31520 66760-173230 75130-193420 32950-79440 67270-158060 110630-232510 49000-84140 110660-164860 191290-220940l930-640c445100-253560 857290-691980 1097080-1129630z" fill="#fff"/></g><path d="m9673400 29448300s361270-70260 426490-40160c65220 35150 135470-411450 366280-571980 265950-180650 702480-521840 1133980-1128970 0 0-95320-175610-516800-120410 0 0-10060 205710-55180 285990-50190 80290-275970 411450-562000 521830-285990 110360-506780 426490-602090 697450-95320 270960-190680 356250-190680 356250z" fill="none" stroke="#1f1a17" stroke-width="33020"/><path d="m11018100 29368000s-371290 90310-426490-40170c-30100-65200-50150-566970-275970-727530-230830-155570-332600-290020-824420-666110-150640-115190-294530-196920-349680-292240-40170-70260-45180-165580-90340-200730 0 0 281020-30100 732580 80280 0 0-65250 220780 80290 296050 80280 40130 265950 316130 551940 451580 270920 125450 436500 577030 521800 822900 95360 270960 80290 275970 80290 275970z" fill="#75aadb"/><g clip-path="url(#b)"><path d="m9170150 27437400c48930 145730 74790 184430 200900 286180l2470-3220 80640 61710c192120 147030 377790 298970 563010 454420 114770 96320 230920 195790 355260 279590l1050 710 1040 730c113640 80810 146710 228960 188040 358340 28500 89230 88770 181280 104710 273490 5850 33840 11150 67760 16940 101600 2140 12510 38810 129270 42370 142540 23570 13350 85000 3360 107880 2510 30580-1130 63330-4170 95950-8710-16560-54390-69650-208190-88530-261840-78530-226360-231530-567140-440160-766620-113310-108350-252550-161520-363890-270640-40860-40040-91090-88210-131080-129070-13730-14030-43200-45580-59790-55490-101450-104970-219990-262000-211030-412720-64750-13860-445180-52720-465780-53510z" fill="#fff"/></g><path d="m11018100 29368000s-371290 90310-426490-40170c-30100-65200-50150-566970-275970-727530-230830-155570-332600-290020-824420-666110-150640-115190-294530-196920-349680-292240-40170-70260-45180-165580-90340-200730 0 0 281020-30100 732580 80280 0 0-65250 220780 80290 296050 80280 40130 265950 316130 551940 451580 270920 125450 436500 577030 521800 822900 95360 270960 80290 275970 80290 275970z" fill="none" stroke="#1f1a17" stroke-width="33020"/><path d="m11600200 27707200s-65220-175610-667340-130470c-572020 45170-898140 40160-998510 0-105370-40130-195680-65210-341190-95310-120440-20090-366300-45180-301050-40170-125420-15030-240850 0-240850 0s-25070 20080 40150-85300c55200-85300 170600-125410 321110-301060 48730-56850 805430-12790 863020 0 70270 15070 150550 10060 180660 0 30090-10020 371280-15030 521830 0 185200 40290 451640 57960 492000 57520 105900-1160 145240 103060 160260 273650 15070 175630 25110 65250-30090 321140z" fill="#75aadb"/><g clip-path="url(#a)"><path d="m9618180 27331100 2910 480c960 200 1920 400 2890 600 126300 26130 244070 56240 364560 102130 390 150 790 300 1190 450 390 150 780 310 1180 470 49930 19840 212220 20900 266910 21100 219860 800 444060-14240 663450-31560 171680-12870 544020 37050 718810 89610-2530-20800-3000-97730-4680-117320-88970-42500-298270-127790-397200-149840-37840-1410-76510-9890-113460-16850-53940-10170-107270-18380-161910-23850-69520-6950-142800-7910-212680-8530-56800-510-113710-180-170490 1320-27140 710-60530 710-88060 4000-73070 20120-176940 15830-248060 570-370-80-740-160-1100-240-64210-14260-140560-16590-206270-17380-240450-2870-463710-21330-703720-44470-32990 35070-125280 108000-161260 139220 151530 18170 297560 25170 446990 50090z" fill="#fff"/></g><g stroke="#1f1a17"><g fill="none"><path d="m11600200 27707200s-65220-175610-667340-130470c-572020 45170-898140 40160-998510 0-105370-40130-195680-65210-341190-95310-120440-20090-366300-45180-301050-40170-125420-15030-240850 0-240850 0s-25070 20080 40150-85300c55200-85300 170600-125410 321110-301060 48730-56850 805430-12790 863020 0 70270 15070 150550 10060 180660 0 30090-10020 371280-15030 521830 0 185200 40290 451640 57960 492000 57520 105900-1160 145240 103060 160260 273650 15070 175630 25110 65250-30090 321140z" stroke-width="33020"/><path d="m10145100 28670600s-170630 200700-205750 366280c-30090 165590-210710 396420-210710 396420" stroke-width="10160"/><path d="m9743670 29378000 371330-25100" stroke-width="10160"/><path d="m9808890 29267600 356210-25100" stroke-width="10160"/><path d="m9854060 29172300 356240 5000" stroke-width="10160"/><path d="m9894190 29092000 356210 10100" stroke-width="10160"/><path d="m9934300 29006700h356300" stroke-width="10160"/><path d="m9974430 28901400 346270 30100" stroke-width="10160"/><path d="m10019600 28821100s125420 15070 200650 10020" stroke-width="10160"/><path d="m10084800 28760900h95400" stroke-width="10160"/><path d="m10621700 29352900s356260 10060 376340-30070" stroke-width="10160"/><path d="m10591600 29282700s371290 10020 396380-25100" stroke-width="10160"/><path d="m10576600 29212500s361270 0 381350-25130" stroke-width="10160"/><path d="m10561500 29122100s356260 25090 386360-5010" stroke-width="10160"/><path d="m10551500 29051900s311120 15070 351240-4970" stroke-width="10160"/><path d="m10526400 28981700s311090 5010 351210-25110" stroke-width="10160"/><path d="m10511300 28931500s230810-5010 275970-30100" stroke-width="10160"/><path d="m11113500 27626900s386360-50180 446530 95360" stroke-width="10160"/><path d="m11088400 27707200s431500 20080 446570 70270" stroke-width="10160"/><path d="m11083400 27777400s366280 5010 381350 70210" stroke-width="10160"/><path d="m11028200 27872800c80240-25100 291000 0 356220 55190" stroke-width="10160"/><path d="m11013100 27933000s321140 35120 331150 75280" stroke-width="10160"/><path d="m10932800 28038300s331160 5020 346230 55190" stroke-width="10160"/><path d="m10882600 28108600s301070 10020 326160 30100" stroke-width="10160"/><path d="m10822400 28163800s195690 10020 220780 30100" stroke-width="10160"/><path d="m10767200 28213900 100400 40200" stroke-width="10160"/><path d="m9156580 27466300s-45140-5010 30100 95350c55200 70230 25090 105380 150520 165590 45200 25090 321130 260900 446590 351210 125430 85330 476670 371320 476670 371320" stroke-width="10160"/><path d="m9156580 27466300s577030 55190 617160 95350" stroke-width="10160"/><path d="m9181670 27571700s536870 35110 602120 110390" stroke-width="10160"/><path d="m9241880 27631900s471650 25090 506760 55200" stroke-width="10160"/><path d="m9337200 27727300s406470 0 451610 35120" stroke-width="10160"/><path d="m9457640 27792500 406440 25100" stroke-width="10160"/><path d="m9537930 27862700s371290 15030 401380 15030" stroke-width="10160"/><path d="m9633290 27943000s306020 10030 346190 10030" stroke-width="10160"/><path d="m9718540 28023300s286030-10060 336210-10060" stroke-width="10160"/><path d="m9783790 28078500s301030-10020 331170-10020" stroke-width="10160"/><path d="m9879140 28138700s275980-15070 306050-15070" stroke-width="10160"/><path d="m9939310 28213900s265950-35110 301060-25050" stroke-width="10160"/><path d="m10034700 28274200s225790-60250 260900-45180" stroke-width="10160"/><path d="m10109900 28324400s225820-70300 265950-65250" stroke-width="10160"/><path d="m10165100 28369500s220770-80290 265940-80290" stroke-width="10160"/><path d="m10205300 28404600s235820-80240 265920-80240" stroke-width="10160"/><path d="m9156580 27521500s536870 40160 602120 110390" stroke-width="10160"/><path d="m11088400 27657000s406410 0 446570 95360" stroke-width="10160"/></g><path d="m10505500 28347900c33180 11080 93970 44230 132670 55270 33170 5520 99480 110570 82910 149260-16600 33140 16570 187930-60830 232150-77350 44230-149220 121590-232150 116100-88430-11090-193440-71870-210020-105050-16610-33170-88440-160310-82920-210060 11050-55260 71840-154750 127100-182400 49790-27620 33180-99490 243240-55270z" fill="#75aadb" stroke-width="33020"/><path d="m9166640 27451300s577030 55200 617150 95310" fill="none" stroke-width="10160"/><path d="m11113500 27626900s336170-15030 446530 95360" fill="none" stroke-width="10160"/></g></g><g stroke="#843511"><path d="m230.65314 306.98096c-33.76678 34.19683-55.5625 87.13197-55.5625 146.625 0 51.80565 16.52135 98.67918 43.09375 132.5s63.08224 54.5625 103.34375 54.5625 76.77135-20.74168 103.34375-54.5625 43.09375-80.69435 43.09375-132.5c0-59.49218-21.82604-112.42765-55.59375-146.625-.9918-2.20714-1.20122-4.10132 2.875-4.28125 35.23665 35.24509 57.71875 89.77786 57.71875 150.90625-.00001 52.86759-16.82073 100.80163-44.15625 135.59375s-65.29946 56.46875-107.28125 56.46875c-41.98179-.00001-79.94572-21.67664-107.28125-56.46875s-44.15625-82.72615-44.15625-135.59375c0-61.12753 22.45032-115.66063 57.6875-150.90625 2.29797-2.06282 6.08443-.2637 2.875 4.28125z" fill="#fcbf49" stroke-dashoffset="2.5" stroke-miterlimit="0" stroke-width=".5"/><path d="m415.03935 306.08858c33.80021 34.75269 55.42036 87.93411 55.42036 147.52964 0 104.67325-66.69643 189.55945-148.93973 189.55945-82.24329 0-148.93972-84.8862-148.93972-189.55945 0-60.4453 22.2411-114.29226 56.87362-149.00497" fill="none" stroke-width=".669908"/></g></g></svg>