<svg height="529.73724" width="663.90472" xmlns="http://www.w3.org/2000/svg"><g fill-rule="evenodd" transform="matrix(2.4416817 0 0 2.4416817 -306.255081 -969.805107)"><path d="m125.42793 397.18736h90.95128v216.95589h-90.95128z" fill="#73c6ef"/><path d="m216.36563 397.18761h89.98639v216.95391h-89.98639z" fill="#fff"/><path d="m306.34573 397.18787h90.98689v216.94999h-90.98689z" fill="#73c6ef"/></g><g fill="#ffc600" fill-rule="evenodd" stroke="#efde7b" stroke-width=".389383" transform="matrix(2.4416817 0 0 2.4416817 -275.678734 -275.162295)"><path d="m250.69744 185.49795-1.68782-1.11613-1.6068 1.14599.60782-1.85364-1.65614-1.08217 2.06348-.02948.58323-1.81482.66748 1.83541 2.01661-.03944-1.65094 1.16383z"/><path d="m244.30503 185.89971-1.87765-.75426-1.34379 1.44545.223-1.93796-1.83979-.72736 2.01548-.44346.20671-1.895 1.02263 1.66388 1.96757-.44381-1.38345 1.4718z"/><path d="m254.29921 185.61038 1.87765-.75426 1.34379 1.44545-.223-1.93796 1.83979-.72736-2.01548-.44346-.20671-1.895-1.02263 1.66388-1.96757-.44381 1.38345 1.4718z"/><path d="m237.70156 187.46193-1.96768-.47196-1.11828 1.62621-.06242-1.94975-1.92629-.45088 1.9291-.73305-.07225-1.90487 1.25467 1.4967 1.88165-.7264-1.15366 1.65806z"/><path d="m260.68141 187.38346 1.96768-.47196 1.11828 1.62621.06242-1.94975 1.92629-.45088-1.9291-.73305.07225-1.90487-1.25467 1.4967-1.88165-.7264 1.15366 1.65806z"/><g transform="matrix(.6188328 -.7855227 .7855227 .6188328 -80.080626 281.30244)"><path d="m250.69744 185.49795-1.68782-1.11613-1.6068 1.14599.60782-1.85364-1.65614-1.08217 2.06348-.02948.58323-1.81482.66748 1.83541 2.01661-.03944-1.65094 1.16383z"/><path d="m244.30503 185.89971-1.87765-.75426-1.34379 1.44545.223-1.93796-1.83979-.72736 2.01548-.44346.20671-1.895 1.02263 1.66388 1.96757-.44381-1.38345 1.4718z"/><path d="m254.29921 185.61038 1.87765-.75426 1.34379 1.44545-.223-1.93796 1.83979-.72736-2.01548-.44346-.20671-1.895-1.02263 1.66388-1.96757-.44381 1.38345 1.4718z"/><path d="m237.99116 187.60673-1.96768-.47196-1.11828 1.62621-.06242-1.94975-1.92629-.45088 1.9291-.73305-.07225-1.90487 1.25467 1.4967 1.88165-.7264-1.15366 1.65806z"/><path d="m261.22599 187.13878 1.96768-.47196 1.11828 1.62621.06242-1.94975 1.92629-.45088-1.9291-.73305.07225-1.90487-1.25467 1.4967-1.88165-.7264 1.15366 1.65806z"/></g><g transform="matrix(-.6188328 -.7855227 -.7855227 .6188328 577.96607 280.9266)"><path d="m250.69744 185.49795-1.68782-1.11613-1.6068 1.14599.60782-1.85364-1.65614-1.08217 2.06348-.02948.58323-1.81482.66748 1.83541 2.01661-.03944-1.65094 1.16383z"/><path d="m244.30503 185.89971-1.87765-.75426-1.34379 1.44545.223-1.93796-1.83979-.72736 2.01548-.44346.20671-1.895 1.02263 1.66388 1.96757-.44381-1.38345 1.4718z"/><path d="m254.29921 185.61038 1.87765-.75426 1.34379 1.44545-.223-1.93796 1.83979-.72736-2.01548-.44346-.20671-1.895-1.02263 1.66388-1.96757-.44381 1.38345 1.4718z"/><path d="m237.99116 187.60673-1.96768-.47196-1.11828 1.62621-.06242-1.94975-1.92629-.45088 1.9291-.73305-.07225-1.90487 1.25467 1.4967 1.88165-.7264-1.15366 1.65806z"/><path d="m260.64008 186.86302 1.96768-.47196 1.11828 1.62621.06242-1.94975 1.92629-.45088-1.9291-.73305.07225-1.90487-1.25467 1.4967-1.88165-.7264 1.15366 1.65806z"/></g><path d="m210.37046 215.83755 1.1317 1.67742 1.92318-.44327-1.27137 1.47955 1.11544 1.63391-1.91745-.76301-1.23379 1.4531.08632-1.9511-1.87798-.73587 1.97079-.44284z"/><path d="m288.36651 216.00127-1.17648 1.64633-1.91054-.49492 1.23106 1.51326-1.15905 1.60327 1.9373-.71108 1.1942 1.48581-.03373-1.95272 1.89712-.68501-1.95814-.49577z"/></g><g transform="matrix(2.4416817 0 0 2.4416817 -978.8875636 -369.5444460875)"><g transform="translate(288 39)"><path d="m226.27417 255.09929-6.37913-.04105-8.9152-9.81294 6.33428-.09598 1.37382-6.12469 7.72574 9.86918z" fill="#008c42" fill-rule="evenodd"/><g fill="none"><path d="m217.25856 245.11141 8.83883 9.89949" stroke="#009a3d" stroke-width=".5"/><path d="m226.17116 254.99326-6.37913-.04105-8.9152-9.81294 6.33428-.09598 1.37382-6.12469 7.72574 9.86918z" stroke="#efde7b" stroke-width=".6"/></g></g><g transform="matrix(.8021304 .452274 -.3466879 .9973998 409.17409 -74.15926)"><path d="m226.27417 255.09929-6.37913-.04105-8.9152-9.81294 6.33428-.09598 1.37382-6.12469 7.72574 9.86918z" fill="#008c42" fill-rule="evenodd"/><g fill="none"><path d="m217.25856 245.11141 8.83883 9.89949" stroke="#009a3d" stroke-width=".5"/><path d="m226.17116 254.99326-6.37913-.04105-8.9152-9.81294 6.33428-.09598 1.37382-6.12469 7.72574 9.86918z" stroke="#efde7b" stroke-width=".6"/></g></g><path d="m530.02367 299.82962-5.73208 2.7997-12.34869-4.82539 5.63097-2.90249-1.49279-6.09678 11.3083 5.40465z" fill="#008c42" fill-rule="evenodd"/><path d="m517.50725 294.89219 12.31877 4.93687" fill="none" stroke="#009a3d" stroke-width=".5"/><path d="m529.88425 299.78046-5.73207 2.79969-12.3487-4.82539 5.63098-2.90249-1.49279-6.09678 11.30829 5.40465z" fill="none" stroke="#efde7b" stroke-width=".6"/><g transform="matrix(-1 0 0 1 785.4415 39.346594)"><path d="m226.27417 255.09929-6.37913-.04105-8.9152-9.81294 6.33428-.09598 1.37382-6.12469 7.72574 9.86918z" fill="#008c42" fill-rule="evenodd"/><path d="m217.25856 245.11141 8.83883 9.89949" fill="none" stroke="#009a3d" stroke-width=".5"/><path d="m226.17116 254.99326-6.37913-.04105-8.9152-9.81294 6.33428-.09598 1.37382-6.12469 7.72574 9.86918z" fill="none" stroke="#efde7b" stroke-width=".6"/><g transform="matrix(.8021304 .452274 -.3466879 .9973998 121.17409 -113.15926)"><path d="m226.27417 255.09929-6.37913-.04105-8.9152-9.81294 6.33428-.09598 1.37382-6.12469 7.72574 9.86918z" fill="#008c42" fill-rule="evenodd"/><g fill="none"><path d="m217.25856 245.11141 8.83883 9.89949" stroke="#009a3d" stroke-width=".5"/><path d="m226.17116 254.99326-6.37913-.04105-8.9152-9.81294 6.33428-.09598 1.37382-6.12469 7.72574 9.86918z" stroke="#efde7b" stroke-width=".6"/></g></g><g transform="matrix(.8957058 -.4446473 .4446473 .8957058 -74.080626 132.94791)"><path d="m226.27417 255.09929-6.37913-.04105-8.9152-9.81294 6.33428-.09598 1.37382-6.12469 7.72574 9.86918z" fill="#008c42" fill-rule="evenodd"/><g fill="none"><path d="m217.25856 245.11141 8.83883 9.89949" stroke="#009a3d" stroke-width=".5"/><path d="m226.17116 254.99326-6.37913-.04105-8.9152-9.81294 6.33428-.09598 1.37382-6.12469 7.72574 9.86918z" stroke="#efde7b" stroke-width=".6"/></g></g></g></g><g fill-rule="evenodd" transform="matrix(2.4416817 0 0 2.4416817 -275.683234 -274.62407)"><path d="m256.349 263.60207-3.82693 1.2471 1.79818 3.93826-3.58789-1.82422-1.51326 4.05627-1.24711-3.82693-3.93825 1.79818 1.82422-3.58789-4.05627-1.51326 3.82693-1.24711-1.79818-3.93825 3.58789 1.82422 1.51326-4.05628 1.2471 3.82694 3.93826-1.79818-1.82422 3.58789z" fill="#de2118"/><g stroke="#efde7b" stroke-linecap="round" stroke-linejoin="round"><path d="m248.96477 186.25548c15.98961-.10743 33.44207 13.28947 34.55936 36.50017l-34.45789-22.7218-34.99841 22.51183c.95296-23.81232 18.7784-36.18278 34.89694-36.2902z" fill="#73c6ef" stroke-width=".515672"/><path d="m221.62803 212.08375c4.95508-6.88945 11.97266-9.46639 25.74024-9.04334l-.01831-1.6999c-11.36553-.0444-13.20073.69154-18.19126-6.54036 7.12941 4.07277 7.9785 4.55272 18.23291 4.18799l-.01879-1.36249c-8.06141.16879-13.87281-3.03741-13.93422-4.49362.06446-1.56449 7.31641-5.31647 15.06837-5.38096 9.53413-.1428 16.25576 3.5894 16.28989 5.0716-.04741 1.25834-6.09483 4.95419-14.26724 4.83753l.00173 1.21805c13.1431.51036 14.91119-2.47928 18.55429-3.96892-1.48338 3.02797-2.65426 6.36843-18.66889 6.3339l.00314 1.76463c11.60479-.01576 22.08459 1.90599 25.75188 9.01523-8.88932-5.22839-14.96615-6.89427-25.85547-6.93516l.03971 1.88407c10.17434-.17283 19.16118 2.90435 21.46052 6.41902-5.98748-2.56628-14.53746-3.69507-21.46244-3.57385l-.09115 1.89291c4.0078-.1271 9.07183.16629 12.33591 5.11869-2.54871-1.06375-7.97243-3.43999-12.33364-3.12874l-.0221 1.93951c4.80911-.48953 9.49323 1.83345 11.05234 3.78142-3.70957-1.21982-8.41913-1.81463-10.9412-1.22195l-.02589 31.3444 1.6276 2.17624-2.90609 4.11006-3.19585-4.11634 1.5468-2.06641-.13703-31.42206c-2.19176-.49021-6.50853-.54293-10.45029 1.34186.53351-2.05803 6.06702-4.11605 10.53803-3.92408l.0117-1.91519c-6.52582-.35586-10.55165 2.53827-12.57747 3.43241.90015-3.57742 6.92529-6.15484 12.57544-5.29476l.04205-2.05918c-8.70227-.10255-15.27954.73241-22.60681 4.00486 4.31082-5.02615 14.12164-6.7398 22.55746-6.82845l.02124-1.78662c-11.58237-.079-18.91474 1.967-25.74711 6.888z" fill="#008c42" stroke-width=".5"/></g></g></svg>