<svg fill-rule="evenodd" height="802.21875" viewBox="0 0 938.32504 641.77497" width="1172.9062" xmlns="http://www.w3.org/2000/svg"><path d="m.39303.408271h937.54181v640.97247h-937.54181z" fill="#fff" opacity=".98" stroke="#fff" stroke-width=".8"/><g fill-rule="evenodd" transform="matrix(.80065262 0 0 .81398345 230.22362444197 -34.45524397629)"><g stroke-width=".267562"><path d="m185.988 141.374c3.274 7.145 4.763 13.695 4.466 19.651 2.829-9.454 10.569-16.45 20.544-22.33-1.49 18.16-5.956 31.558-13.398 40.194 8.038-3.584 16.077-2.985 24.116-1.787-16.376 16.81-32.751 16.843-49.126 17.864-9.676 10.197-17.119 20.766-19.65 32.155 4.602-7.157 14.432-10.13 25.009-12.505-14.461 24.62-19.758 32.819-31.261 36.621-8.812 4.706-12.966 18.727-16.971 33.049.964.935-1.588-.323 2.457 7.592 1.609-7.323 9.095-9.438 14.514-12.951-5.583 26.125-15.259 39.969-26.796 48.232-3.877 11.013-7.156 22.324-6.253 35.728 4.095-6.55 9.007-9.825 14.291-11.611-2.977 41.457-9.229 55.897-16.97 58.057.117 11.75.767 23.677 4.466 36.621 4.168-7.071 8.337-12.281 12.504-13.398 7.071 36.545 5.136 50.986-.893 55.379 3.573 8.634 7.146 17.268 10.719 25.902.585 6.702 5.353 12.358 10.718 17.864.708-9.713 2.867-17.975 7.145-24.116 10.495 17.343 15.408 35.058 8.039 53.592 4.764 13.249 11.017 24.264 20.544 30.368 2.679-.597 2.976-4.765.893-12.504 4.652 2.529 9.044 6.1 12.505 13.398 0-5.062 0-10.123 0-15.185 20.879 20.352 18.648 31.816 22.33 45.553 3.224 11.036 31.619 24.546 74.135 41.535-.893 2.68-1.786 6.698-2.68 9.378-43.135-16.511-65.532-31.425-77.708-45.553-20.817 10.34-34.488-2.181-49.126-11.612 7.444-.298 14.887-.596 22.33-.893-8.487-3.711-16.824-8.468-24.116-20.544 4.316 2.238 8.781 4.027 14.291 2.68-7.145-5.36-12.504-12.505-16.077-21.437-10.699-1.608-21.079-.36-33.049-13.398-3.67-8.189-11.382-10.318-17.864-14.291 5.955-.896 11.91-1.494 17.864 0-5.447-2.889-8.566-8.106-11.611-13.398 7.393.694 14.594.615 23.223 6.252-8.708-13.919-13.323-28.657-16.078-43.766-16.076 2.971-30.963-13.703-44.6594-50.019 6.8513 5.225 13.4036 9.104 17.8639 3.573-1.8984-5.658-5.3663-11.315-3.5728-16.971 4.6154 12.28 10.8673 17.193 17.8643 18.757-5.136-15.631-6.178-29.624-5.36-42.873-15.4804-13.548-17.8623-32.007-14.2907-52.699 2.958 3.216 5.5984 5.479 9.8247 12.505-1.116-8.188.224-14.739 2.68-20.544.893 2.084 1.786 4.168 2.68 6.253-.446-10.793 1.936-20.172 6.252-28.583-5.7-13.839-8.009-30.808 1.786-58.951 3.354 6.551 7.979 13.1 6.253 19.651 3.275-10.421 6.55-20.842 9.825-31.262-7.179-30.74-2.341-31.489 10.718-61.631 3.877 5.353 8.719 13.534 7.814 23.668 3.946-12.505 15.929-22.626 23.446-30.367.075-12.531-2.154-22.855 13.4-46.893z" fill="#009240" stroke="#2c2c2b"/><path d="m190.11 161.495c-2.711 14.357-8.215 23.13-14.501 30.34 6.396-6.34 13.758-10.987 22.532-13.162" fill="none" stroke="#2c2c2b"/><path d="m159.77 200.982 1.785-7.139-2.677-.223-2.677 11.823z" fill="#009240" stroke="#2c2c2b"/><path d="m127.435 264.879-1.24-7.254-2.54.874 2.308 11.901z" fill="#009240" stroke="#2c2c2b"/><path d="m109.072 336.56-1.24-7.254-2.54.873 2.308 11.902z" fill="#009240" stroke="#2c2c2b"/><path d="m105.155 425.687-5.014-6.385-1.8838 1.915 7.3748 9.622z" fill="#009240" stroke="#2c2c2b"/><path d="m126.392 512.328-4.777-3.74-.613 2.523 7.09 5.711z" fill="#009240" stroke="#2c2c2b"/><path d="m165.727 586.897-5.783-1.836.308 2.577 8.638 2.876z" fill="#009240" stroke="#2c2c2b"/><path d="m224.691 638.833-6.067-.114 1.029 2.383 9.099.298z" fill="#009240" stroke="#2c2c2b"/><path d="m161.024 209.082 9.424-2.441-.981-2.501-6.884 1.924z" fill="#009240" stroke="#2c2c2b"/><path d="m133.746 270.072 9.093-3.48-1.255-2.376-6.625 2.681z" fill="#009240" stroke="#2c2c2b"/><path d="m115.383 341.752 9.093-3.479-1.255-2.376-6.626 2.681z" fill="#009240" stroke="#2c2c2b"/><path d="m111.559 429.08 7.478-9.178-2.183-1.566-5.403 6.247z" fill="#009240" stroke="#2c2c2b"/><path d="m136.999 510.251 2.38-9.04-2.081-.413-1.845 6.255z" fill="#009240" stroke="#2c2c2b"/><path d="m172.967 581.688 1.471-9.232-2.112-.205-1.214 6.408z" fill="#009240" stroke="#2c2c2b"/><path d="m231.123 635.298.801-8.116-2.111-.205-1.215 6.408z" fill="#009240" stroke="#2c2c2b"/><path d="m160.572 187.819c2.02 0 3.66 1.749 3.66 3.904s-1.64 3.904-3.66 3.904-3.66-1.749-3.66-3.904 1.64-3.904 3.66-3.904z" fill="#e21c2a" stroke="#2c2c2b"/><path d="m121.134 253.478c1.514-1.337 3.901-1.112 5.328.504 1.426 1.615 1.355 4.011-.159 5.349-1.514 1.337-3.901 1.112-5.328-.504-1.426-1.615-1.355-4.011.159-5.349z" fill="#e21c2a" stroke="#2c2c2b"/><path d="m102.771 325.159c1.514-1.337 3.901-1.112 5.328.503 1.426 1.615 1.355 4.012-.159 5.349-1.514 1.338-3.901 1.112-5.328-.503-1.426-1.615-1.355-4.011.159-5.349z" fill="#e21c2a" stroke="#2c2c2b"/><path d="m93.7618 417.848c.7585-1.872 2.9953-2.735 4.9926-1.926 1.9976.809 3.0026 2.986 2.2446 4.858-.759 1.872-2.9958 2.735-4.9931 1.926-1.9972-.809-3.0027-2.985-2.2441-4.858z" fill="#e21c2a" stroke="#2c2c2b"/><path d="m115.516 509.902c-.083-2.018 1.596-3.729 3.749-3.818s3.969 1.477 4.053 3.495c.083 2.019-1.597 3.73-3.75 3.819s-3.968-1.477-4.052-3.496z" fill="#e21c2a" stroke="#2c2c2b"/><path d="m155.135 587.753c-.783-1.862.193-4.052 2.18-4.888 1.986-.835 4.234-.002 5.017 1.86.784 1.863-.193 4.052-2.179 4.888-1.986.835-4.235.002-5.018-1.86z" fill="#e21c2a" stroke="#2c2c2b"/><path d="m213.514 641.364c-.783-1.863.193-4.052 2.179-4.888 1.987-.835 4.235-.002 5.018 1.86s-.193 4.052-2.179 4.888c-1.987.835-4.235.002-5.018-1.86z" fill="#e21c2a" stroke="#2c2c2b"/><path d="m175.42 203.1c.891 1.813.045 4.057-1.888 5.008-1.934.951-4.227.251-5.119-1.562s-.046-4.056 1.888-5.007 4.227-.252 5.119 1.561z" fill="#e21c2a" stroke="#2c2c2b"/><path d="m145.502 260.679c1.868.769 2.719 3.01 1.899 5.003-.819 1.993-3.001 2.987-4.869 2.218-1.869-.768-2.72-3.009-1.9-5.002.819-1.993 3.001-2.987 4.87-2.219z" fill="#e21c2a" stroke="#2c2c2b"/><path d="m127.139 332.36c1.868.769 2.719 3.01 1.899 5.003-.819 1.993-3.001 2.987-4.87 2.218-1.868-.768-2.719-3.01-1.899-5.002.819-1.993 3.001-2.987 4.87-2.219z" fill="#e21c2a" stroke="#2c2c2b"/><path d="m118.783 413.423c2.015-.146 3.776 1.48 3.932 3.63.155 2.149-1.354 4.012-3.369 4.157-2.015.146-3.777-1.48-3.932-3.629-.156-2.15 1.354-4.013 3.369-4.158z" fill="#e21c2a" stroke="#2c2c2b"/><path d="m136.468 495.527c1.774-.966 4.051-.214 5.081 1.679s.426 4.213-1.348 5.179c-1.775.966-4.051.213-5.081-1.679-1.031-1.893-.426-4.213 1.348-5.179z" fill="#e21c2a" stroke="#2c2c2b"/><path d="m170.977 567.089c1.669-1.137 4.009-.615 5.222 1.166s.843 4.15-.827 5.287-4.01.615-5.223-1.166-.842-4.15.828-5.287z" fill="#e21c2a" stroke="#2c2c2b"/><path d="m229.355 620.253c1.67-1.137 4.01-.614 5.223 1.167s.842 4.15-.827 5.287c-1.67 1.137-4.01.614-5.223-1.167s-.842-4.149.827-5.287z" fill="#e21c2a" stroke="#2c2c2b"/><path d="m148.393 216.598c-11.181 8.491-14.636 25.633-14.501 39.486 15.297-4.373 22.662-23.583 24.763-35.248.669-3.681 1.115-7.175 1.785-13.831-4.277 2.156-8.367 5.056-12.047 9.593z" fill="none" stroke="#2c2c2b"/><path d="m130.323 270.585c5.314 29.254-3.95 44.447-14.501 55.325-.665-19.446 1.482-40.64 14.501-55.325z" fill="none" stroke="#2c2c2b"/><path d="m100.875 368.52c5.448 10.047 9.947 20.885 11.824 33.909-3.886-16.732-3.179-29.225.669-38.817" fill="none" stroke="#2c2c2b"/><path d="m107.345 451.731c10.895 8.848 18.629 19.928 19.408 35.917" fill="none" stroke="#2c2c2b"/><path d="m112.476 454.631 2.677-9.147" fill="none" stroke="#2c2c2b"/><path d="m96.6368 451.508c1.4178 17.132 7.4212 32.841 26.1012 44.617" fill="none" stroke="#2c2c2b"/><path d="m149.508 531.819c7.876 4.336 11.24 14.99 13.162 27.663-15.69-3.058-19.773-11.274-24.539-19.186" fill="none" stroke="#2c2c2b"/><path d="m127.423 549.22c7.472 11.229 17.362 18.74 32.57 18.07" fill="none" stroke="#2c2c2b"/><path d="m176.502 597.63 11.154.446-1.562-7.362" fill="none" stroke="#2c2c2b"/><path d="m186.764 616.369c10.113-1.153 20.226-1.005 30.34 2.008" fill="none" stroke="#2c2c2b"/><path d="m188.548 598.745c6.06 3.55 9.704 8.793 9.816 16.508 2.008-5.614 2.528-12.53-.223-22.308" fill="none" stroke="#2c2c2b"/><path d="m322.639 680.783c29.988 4.314 54.245 15.178 75.898 29.019 6.547 8.782 14.583 14.586 25.894 13.841-4.836-17.413-11.087-26.342-18.304-29.467-14.454-2.79-28.257-6.883-41.521-12.054-14.915-6.167-27.249-7.173-39.734-8.483-.744 2.382-1.489 4.763-2.233 7.144z" fill="#009240" stroke="#2c2c2b"/><path d="m399.43 709.802c-1.042-6.696.297-12.203 4.018-16.519" fill="none" stroke="#2c2c2b"/><path d="m429.809 139.588c-3.274 7.145-4.763 13.695-4.466 19.65-2.829-9.453-10.569-16.45-20.544-22.33 1.49 18.16 5.956 31.558 13.398 40.194-8.038-3.584-16.077-2.984-24.116-1.787 16.376 16.81 32.751 16.844 49.126 17.864 9.676 10.198 17.119 20.767 19.65 32.155-4.602-7.156-14.432-10.129-25.009-12.504 14.461 24.619 19.758 32.818 31.261 36.621 8.812 4.705 12.966 18.726 16.971 33.048-.964.936 1.588-.322-2.457 7.593-1.609-7.324-9.095-9.439-14.514-12.952 5.583 26.125 15.259 39.97 26.796 48.233 3.877 11.012 7.156 22.324 6.253 35.727-4.095-6.55-9.007-9.825-14.291-11.611 2.977 41.457 9.229 55.898 16.97 58.058-.117 11.749-.767 23.676-4.466 36.621-4.168-7.071-8.337-12.282-12.504-13.398-7.071 36.545-5.136 50.985.893 55.378-3.573 8.634-7.146 17.268-10.719 25.903-.585 6.701-5.352 12.357-10.718 17.864-.708-9.714-2.867-17.976-7.145-24.117-10.495 17.343-15.408 35.058-8.039 53.592-4.764 13.249-11.017 24.264-20.544 30.369-2.679-.597-2.976-4.765-.893-12.505-4.652 2.529-9.044 6.1-12.505 13.398 0-5.062 0-10.123 0-15.184-20.879 20.352-18.648 31.815-22.33 45.553-3.224 11.035-31.619 25.884-74.135 42.873.893 2.68.448 10.713 1.341 13.393 43.135-16.51 66.871-36.779 79.047-50.907 20.817 10.341 34.488-2.18 49.126-11.612-7.444-.298-14.887-.595-22.33-.893 8.487-3.711 16.824-8.467 24.116-20.543-4.316 2.238-8.781 4.027-14.291 2.679 7.145-5.36 12.504-12.505 16.077-21.437 10.699-1.608 21.079-.36 33.049-13.397 3.67-8.19 11.382-10.319 17.864-14.292-5.955-.896-11.91-1.494-17.864 0 5.447-2.888 8.566-8.106 11.611-13.398-7.393.694-14.594.615-23.223 6.253 8.708-13.919 13.323-28.657 16.078-43.767 16.076 2.971 30.963-13.702 44.659-50.019-6.851 5.225-13.403 9.105-17.864 3.573 1.899-5.657 5.367-11.315 3.573-16.971-4.615 12.281-10.867 17.193-17.864 18.757 5.136-15.631 6.178-29.624 5.36-42.873 15.48-13.548 17.862-32.007 14.291-52.699-2.958 3.216-5.599 5.479-9.825 12.505 1.116-8.188-.224-14.738-2.68-20.544-.893 2.084-1.786 4.169-2.68 6.253.446-10.793-1.936-20.172-6.252-28.582 5.7-13.839 8.009-30.808-1.786-58.951-3.354 6.55-7.979 13.099-6.253 19.65-3.275-10.421-6.55-20.842-9.825-31.262 7.179-30.739 2.341-31.489-10.718-61.631-3.877 5.353-8.719 13.534-7.814 23.668-3.946-12.505-15.929-22.626-23.446-30.367-.075-12.531 2.154-22.854-13.4-46.892z" fill="#009240" stroke="#2c2c2b"/><path d="m425.687 159.708c2.711 14.357 8.215 23.13 14.501 30.34-6.396-6.339-13.758-10.987-22.532-13.162" fill="#009240" stroke="#2c2c2b"/><path d="m456.027 199.195-1.785-7.139 2.677-.223 2.677 11.824z" fill="#009240" stroke="#2c2c2b"/><path d="m488.362 263.092 1.24-7.253 2.54.873-2.308 11.901z" fill="#009240" stroke="#2c2c2b"/><path d="m506.726 334.773 1.239-7.253 2.54.873-2.308 11.901z" fill="#009240" stroke="#2c2c2b"/><path d="m510.642 423.9 5.014-6.385 1.884 1.915-7.375 9.622z" fill="#009240" stroke="#2c2c2b"/><path d="m489.405 510.542 4.777-3.741.613 2.523-7.09 5.711z" fill="#009240" stroke="#2c2c2b"/><path d="m450.07 585.11 5.783-1.836-.308 2.577-8.638 2.876z" fill="#009240" stroke="#2c2c2b"/><path d="m391.106 637.046 6.067-.114-1.028 2.384-9.1.297z" fill="#009240" stroke="#2c2c2b"/><path d="m454.773 207.296-9.424-2.442.981-2.501 6.884 1.924z" fill="#009240" stroke="#2c2c2b"/><path d="m482.051 268.285-9.093-3.48 1.255-2.375 6.625 2.681z" fill="#009240" stroke="#2c2c2b"/><path d="m500.414 339.966-9.093-3.48 1.255-2.375 6.626 2.681z" fill="#009240" stroke="#2c2c2b"/><path d="m504.238 427.294-7.478-9.178 2.183-1.567 5.403 6.248z" fill="#009240" stroke="#2c2c2b"/><path d="m478.798 508.464-2.38-9.039 2.081-.414 1.845 6.256z" fill="#009240" stroke="#2c2c2b"/><path d="m442.83 579.901-1.471-9.232 2.112-.204 1.214 6.407z" fill="#009240" stroke="#2c2c2b"/><path d="m384.674 633.512-.801-8.116 2.111-.205 1.215 6.408z" fill="#009240" stroke="#2c2c2b"/><path d="m455.225 186.033c-2.02 0-3.66 1.749-3.66 3.904s1.64 3.904 3.66 3.904 3.66-1.749 3.66-3.904-1.64-3.904-3.66-3.904z" fill="#e21c2a" stroke="#2c2c2b"/><path d="m494.663 251.692c-1.514-1.338-3.901-1.112-5.328.503-1.426 1.615-1.355 4.011.159 5.349 1.514 1.337 3.901 1.112 5.328-.503 1.426-1.615 1.355-4.012-.159-5.349z" fill="#e21c2a" stroke="#2c2c2b"/><path d="m513.026 323.373c-1.514-1.338-3.901-1.112-5.328.503-1.426 1.615-1.355 4.011.159 5.349 1.514 1.337 3.901 1.112 5.328-.503 1.426-1.615 1.355-4.012-.159-5.349z" fill="#e21c2a" stroke="#2c2c2b"/><path d="m522.035 416.062c-.758-1.873-2.995-2.736-4.992-1.927-1.998.809-3.003 2.986-2.245 4.858.759 1.873 2.996 2.736 4.993 1.927s3.003-2.986 2.244-4.858z" fill="#e21c2a" stroke="#2c2c2b"/><path d="m500.281 508.116c.083-2.019-1.596-3.73-3.749-3.819s-3.969 1.477-4.053 3.496c-.083 2.018 1.597 3.729 3.75 3.818s3.968-1.477 4.052-3.495z" fill="#e21c2a" stroke="#2c2c2b"/><path d="m460.662 585.966c.783-1.862-.193-4.052-2.18-4.887-1.986-.836-4.234-.002-5.017 1.86-.784 1.862.193 4.052 2.179 4.887 1.986.836 4.235.002 5.018-1.86z" fill="#e21c2a" stroke="#2c2c2b"/><path d="m402.283 639.577c.783-1.862-.193-4.052-2.179-4.887-1.987-.836-4.235-.003-5.018 1.86-.783 1.862.193 4.051 2.179 4.887 1.987.835 4.235.002 5.018-1.86z" fill="#e21c2a" stroke="#2c2c2b"/><path d="m440.377 201.314c-.891 1.812-.045 4.056 1.888 5.007 1.934.951 4.227.251 5.119-1.561.892-1.813.046-4.057-1.888-5.008s-4.227-.251-5.119 1.562z" fill="#e21c2a" stroke="#2c2c2b"/><path d="m470.295 258.893c-1.868.768-2.719 3.01-1.899 5.002.819 1.993 3.001 2.987 4.869 2.219 1.869-.769 2.72-3.01 1.9-5.003-.819-1.993-3.001-2.987-4.87-2.218z" fill="#e21c2a" stroke="#2c2c2b"/><path d="m488.658 330.574c-1.868.768-2.719 3.009-1.899 5.002.819 1.993 3.001 2.987 4.87 2.219 1.868-.769 2.719-3.01 1.899-5.003-.819-1.993-3.001-2.987-4.87-2.218z" fill="#e21c2a" stroke="#2c2c2b"/><path d="m497.014 411.636c-2.015-.146-3.776 1.481-3.932 3.63-.155 2.149 1.354 4.012 3.369 4.158 2.015.145 3.777-1.481 3.932-3.63.156-2.149-1.354-4.012-3.369-4.158z" fill="#e21c2a" stroke="#2c2c2b"/><path d="m479.329 493.74c-1.774-.966-4.051-.213-5.081 1.679-1.03 1.893-.426 4.213 1.348 5.179 1.775.966 4.051.214 5.081-1.679 1.031-1.893.426-4.213-1.348-5.179z" fill="#e21c2a" stroke="#2c2c2b"/><path d="m444.82 565.302c-1.669-1.137-4.009-.615-5.222 1.166s-.843 4.15.827 5.287c1.67 1.138 4.01.615 5.223-1.166s.842-4.15-.828-5.287z" fill="#e21c2a" stroke="#2c2c2b"/><path d="m386.442 618.467c-1.67-1.138-4.01-.615-5.223 1.166s-.842 4.15.827 5.287c1.67 1.137 4.01.615 5.223-1.166s.842-4.15-.827-5.287z" fill="#e21c2a" stroke="#2c2c2b"/><path d="m467.404 214.811c11.181 8.492 14.636 25.633 14.501 39.486-15.297-4.373-22.662-23.583-24.763-35.248-.669-3.681-1.115-7.175-1.785-13.831 4.277 2.157 8.367 5.057 12.047 9.593z" fill="#009240" stroke="#2c2c2b"/><path d="m485.474 268.798c-5.314 29.255 3.95 44.447 14.501 55.325.665-19.446-1.482-40.639-14.501-55.325z" fill="#009240" stroke="#2c2c2b"/><path d="m514.922 366.733c-5.448 10.047-9.947 20.885-11.824 33.909 3.886-16.732 3.179-29.225-.669-38.817" fill="#009240" stroke="#2c2c2b"/><path d="m508.452 449.944c-10.895 8.848-18.629 19.928-19.408 35.917" fill="#009240" stroke="#2c2c2b"/><path d="m503.321 452.844-2.677-9.146" fill="#009240" stroke="#2c2c2b"/><path d="m519.16 449.721c-1.418 17.132-7.421 32.842-26.101 44.617" fill="#009240" stroke="#2c2c2b"/><path d="m466.289 530.032c-7.876 4.337-11.24 14.99-13.162 27.663 15.69-3.057 19.773-11.273 24.539-19.185" fill="#009240" stroke="#2c2c2b"/><path d="m488.374 547.433c-7.472 11.23-17.362 18.74-32.57 18.07" fill="#009240" stroke="#2c2c2b"/><path d="m439.295 595.843-11.154.446 1.562-7.362" fill="#009240" stroke="#2c2c2b"/><path d="m429.033 614.582c-10.113-1.153-20.226-1.004-30.34 2.008" fill="#009240" stroke="#2c2c2b"/><path d="m427.249 596.958c-6.06 3.551-9.704 8.793-9.816 16.509-2.008-5.615-2.528-12.53.223-22.309" fill="#009240" stroke="#2c2c2b"/><path d="m294.496 678.996c-29.988 4.314-55.583 15.178-77.236 29.02-6.547 8.781-14.583 14.585-25.894 13.84 4.836-17.412 11.087-26.341 18.304-29.466 14.454-2.791 28.257-6.884 41.521-12.055 14.915-6.167 29.257-7.173 41.742-8.482.744 2.381.819 4.762 1.563 7.143z" fill="#009240" stroke="#2c2c2b"/><path d="m216.367 708.016c1.042-6.697-.297-12.203-4.018-16.519" fill="#009240" stroke="#2c2c2b"/><path d="m305.677 164.598c89.236 0 161.668 99.444 161.668 221.959s-72.432 221.959-161.668 221.959c-89.237 0-161.669-99.444-161.669-221.959s72.432-221.959 161.669-221.959z" fill="#9fdcf5" stroke="#2c2c2b"/><path d="m144.008 372.712c12.987-12.978 25.483-26.604 39.44-41.815 7.235-7.885 18.363-14.255 25.763-27.854 5.471.02 11.798 4.747 19.651 17.864 6.196-4.355 8.993-13.578 15.107-18.241 4.616-3.52 5.19-11.255 12.582-15.701 6.624 2.011 12.429 11.389 17.864 24.117 6.51-15.672 14.325-28.998 26.796-33.942 11.025 16.825 21.154 27.25 25.009 28.582 11.09 4.839 21.362 12.134 31.262 20.544 17.118 19.49 22.45 26.117 25.008 37.069 14.329-11.76 25.569-18.46 41.089-25.457 7.312 7.872 14.355 16.013 24.116 21.436 10.569 3.201 16.226 7.221 19.65 11.612v13.398c-116.115 2.86-219.114 4.297-322.442 5.805-1.192-5.657.296-11.76-.895-17.417z" fill="#d29464" stroke="#2c2c2b"/><path d="m229.33 321.385-16.965 21.876c-26.963 24.928-27.259 33.857-34.378 46.878l25.895-16.519c7.359 1.087 14.643 2.629 23.216-3.571-9.525 2.381-11.906-1.488-17.859-2.232 6.253.008 12.355-.73 17.412-6.697-11.491-1.632-11.478-5.355-9.822-9.376 2.937-5.744.476-10.537 25.002-20.09.907-2.236.618-4.174-8.037-4.019 2.53-9.97 7.441-19.941 14.734-29.912-5.209 5.804-10.418 11.608-15.626 17.412-1.191 2.083-2.382 4.167-3.572 6.25z" fill="#cc6f40" stroke="#cc6f40"/><path d="m336.661 311.304c.893 1.786 2.957 4.244 3.85 5.137 17.023 21.096 4.214 23.223-11.611 23.223-2.74 3.553-19.742 20.138-13.398 25.009 0 0 2.677 2.011 2.677 2.011 2.679 0 3.575.669 6.255.669 0 0 .893.893.893.893s.893 1.787.893 1.787v2.679s-3.57 4.464-3.57 4.464c-.893 0-1.787.893-2.68.893 0 0-1.786 1.786-1.786 1.786-.893 0-2.68 1.787-2.68 1.787s-1.786 1.786-1.786 1.786c-.893 0-4.466 1.786-4.466 3.573l80.388-1.116 8.469-.225s-1.113-2.004-3.343-4.235c.952 1.428-5.975-11.073-7.809-12.286-.495-.495-3.572-4.087-3.572-4.466 0 0-1.116-2.508-1.116-2.508-2.498-11.011-19.046-29.407-19.428-29.647 0 0-.893-.893-.893-.893-5.172-7.6-15.758-13.655-18.133-15.962 0 0-.953-.56-.953-.56-3.297-1.875-5.249-3.58-6.201-3.799z" fill="#883e33" stroke="#894033"/><path d="m313.715 303.936c2.68 2.68 4.466 5.359 7.146 7.146.893 1.786 3.573 5.359 5.359 6.252 0 0 .893 1.786.893 1.786s1.787 1.787 1.787 1.787 1.786.893 1.786.893c.893.893 2.68 2.68 2.68 3.573 1.786 0 0 .893 1.786.893 0-.893-1.786 0-1.786 0 1.786-.893 0 0-1.787 0-.893 0-3.572 0-4.466 0-.893 0-1.786-.893-2.679-.893 0 0-1.787-1.787-1.787-1.787-.893-.893-5.359-4.466-6.252-4.466 0-.893-.893-1.786-.893-2.679 0 0-1.787-1.787-1.787-1.787 0-.893-.893-2.679-1.786-2.679 1.786 1.786.893 0 0-1.787 0 0-1.786-1.786-1.786-1.786 1.786 1.786 0 0 0-1.786-.894 0-1.787-1.787-1.787-2.68 0 0-1.786-1.786-1.786-2.679 1.786 2.679 0 .893 0-1.787 0 0-.893-.893-.893-.893.893.893 0 0 0-1.786 0-.894-2.679-10.27-2.679-11.163 0 0 3.572 9.376 3.572 9.376.893.893 1.786 1.787 2.679 2.68.894.893 1.787 2.679 2.68 3.573 0 0 .893 1.786 1.786 2.679z" fill="#cc6f40" stroke="#cc6f40"/><path d="m260.135 294.151-3.125-4.911c0 3.125 1.34 6.251 1.34 9.822 2.232 4.911 4.018 14.733 4.018 20.091 0 .446.446.893.446 1.339.447.893.447 3.125.447 4.465 0-3.572 0-1.34.893 0 0-.447.446-.447.892-.447 0 0 .893-.446.893-.446s.447-.893.447-.893c.446 0 1.339-.893 1.786-.893 0-.893 1.339-1.786 1.339-2.679.893 0 1.786-3.571 2.679-3.571 0-1.34 0-3.572 0-4.911-.893-.893-4.911-8.037-4.911-9.376-.893 0-1.34-1.339-1.34-1.786 0 0-1.339-1.339-1.339-1.786-.446 0-.893-.446-.893-.893 0 0-.446-.446-.446-.446s-.447-.447-.447-.447-.446-.446-.446-.446-.447-.446-.447-.446c-.446 0-1.339-.893-1.786-1.34z" fill="#cc6f40" stroke="#cc6f40"/><path d="m210.579 307.545c-8.334 8.185-16.668 16.37-25.002 24.555-4.911 6.399-9.822 12.798-14.733 19.198 8.185-7.739 16.37-15.478 24.555-23.216 4.465-3.572 8.929-7.143 13.394-10.715 2.976 7.887 4.167 15.774 3.572 23.662 4.911-6.697 9.822-13.394 14.733-20.09-5.477-6.876-7.779-8.989-10.715-12.055-1.935-.446-3.87-.893-5.804-1.339z" fill="#d7b46d" stroke="#d7b46d"/><path d="m264.6 327.189c-3.572 3.572-5.804 11.161-9.822 13.84 0 4.911-4.465 14.733-5.804 20.091-.893 3.125-5.804 9.822-5.804 12.5 8.036-4.018 12.054-18.751 14.287-25.448 1.339 0 7.143-4.018 8.036-5.357 3.125 0 12.501-9.822 12.501-12.501-1.34 0-1.34-1.786-2.233-1.786.893 1.786.893 0 0-.893-1.785 0-2.232-7.143-2.232-8.482-.893 0-2.232 4.464-2.232 5.357-.893 0 0 .447-.893.447 0 .893-.893.893-.893 1.339-.893 0-2.232.447-4.911.893z" fill="#883e33" stroke="#894033"/><path d="m423.539 342.368.892 8.037 12.055 18.304 17.412 11.608 11.608 1.786 1.785-8.036-26.787-13.394z" fill="#cc6f40" stroke="#cc6f40"/><path d="m349.825 207.99c-1.198 3.38-1.464 6.893.319 10.699 2.156 3.22 2.848 6.787 2.875 9.581-.324 3.729.849 6.336 2.235 8.783.692 1.011 1.384 2.022 2.076 3.034.479-1.118.958-2.236 1.437-3.354 1.013-1.594 2.078-3.721 2.236-7.026-.32-4.045-.108-6.919 1.277-9.261 1.926-3.66 3.584-7.938 2.076-11.977 1.239 3.315 3.878 4.348.799 11.019-.496 2.489-1.651 5.198-.639 7.185.853 3.992.205 7.568-1.923 10.709.215 1.168.43 2.335.645 3.503-4.205.373-8.41.745-12.615 1.118.373-1.65.745-2.981 1.118-4.631-1.863-.878-2.661-3.187-2.395-8.303.399-3.088-.08-6.175-.958-9.262-2.076-4.365-1.597-8.304 1.437-11.817z" fill="#fc0" stroke="#2c2c2b"/><path d="m385.699 216.612c-3.168 1.643-5.739 3.999-6.997 7.922-.588 3.746-2.489 6.774-4.359 8.806-2.759 2.473-3.657 5.127-4.29 7.808-.173 1.186-.347 2.372-.521 3.559 1.109-.489 2.218-.978 3.326-1.467 1.824-.479 4.047-1.308 6.397-3.586 2.499-3.127 4.599-5.058 7.202-5.83 3.893-1.365 8.007-3.351 9.626-7.26-1.328 3.209-.081 5.698-6.86 8.47-2.048 1.466-4.731 2.655-5.328 4.756-2.07 3.441-5.604 5.59-9.295 6.447-.631.984-.623 1.968-1.254 2.952-3.35-2.512-6.701-5.024-10.051-7.535 1.39-.943 1.606-1.344 2.996-2.287-.779-1.865 1.151-4.369 4.806-7.88 2.381-1.961 4.115-4.503 5.555-7.309 1.421-4.518 4.436-7.041 9.047-7.566z" fill="#fc0" stroke="#2c2c2b"/><path d="m405.58 249.541c-3.325-1.296-6.792-1.674-10.57-.032-3.203 2.03-6.733 2.599-9.493 2.534-3.68-.441-6.267.635-8.698 1.928-1.006.652-2.012 1.304-3.018 1.957 1.098.51 2.197 1.021 3.296 1.531 1.564 1.055 3.654 2.178 6.915 2.442 3.999-.186 6.835.118 9.134 1.565 3.594 2.025 7.801 3.807 11.805 2.445-3.287 1.118-4.335 3.697-10.89.432-2.453-.571-5.117-1.803-7.09-.866-3.951.715-7.898-.523-10.977-2.731-1.155.175-1.889.83-3.045 1.005-.323-4.175-.646-8.35-.969-12.525 1.625.422 2.069.321 3.694.743.888-1.816 4.044-2.017 9.094-1.588 3.044.496 6.099.122 9.157-.647 4.333-1.913 8.218-1.311 11.655 1.807z" fill="#fc0" stroke="#2c2c2b"/><path d="m396.219 284.762c-1.573-3.204-3.871-5.826-7.765-7.172-3.732-.671-6.717-2.639-8.706-4.554-2.412-2.814-5.045-3.771-7.711-4.462-1.182-.201-2.364-.401-3.547-.601.464 1.119.929 2.239 1.393 3.358.438 1.834 1.218 4.075 3.442 6.475 3.071 2.568 4.955 4.71 5.669 7.331 1.277 3.922 3.172 8.079 7.043 9.785-3.178-1.4-5.694-.209-8.315-7.047-1.42-2.081-2.549-4.789-4.636-5.433-3.394-2.146-5.464-5.727-6.238-9.436-.97-.653-1.954-.667-2.923-1.32 2.585-3.293 5.171-6.587 7.757-9.881.912 1.411 1.307 1.636 2.219 3.046 1.882-.737 4.342 1.249 7.771 4.981 1.908 2.425 4.411 4.215 7.184 5.716 4.485 1.522 6.939 4.593 7.363 9.214z" fill="#fc0" stroke="#2c2c2b"/><path d="m364.569 303.495c1.153-3.377 1.382-6.857-.419-10.561-2.164-3.114-2.883-6.616-2.937-9.377.285-3.694-.901-6.233-2.296-8.607-.695-.978-1.389-1.955-2.084-2.933-.463 1.12-.926 2.24-1.39 3.359-.986 1.607-2.02 3.743-2.144 7.013.356 3.987.173 6.834-1.175 9.192-1.87 3.677-3.47 7.956-1.939 11.899-1.258-3.237-3.879-4.174-.896-10.862.466-2.476 1.583-5.189.563-7.12-.882-3.918.186-7.913 2.261-11.084-.224-1.147-.91-1.852-1.134-2.999 4.158-.501 8.315-1.002 12.472-1.502-.352 1.642-.232 2.08-.585 3.723 1.852.809 2.188 3.953 1.974 9.017-.365 3.063.138 6.098 1.037 9.121 2.096 4.248 1.66 8.155-1.308 11.721z" fill="#fc0" stroke="#2c2c2b"/><path d="m328.157 295.204c3.204-1.573 5.826-3.871 7.172-7.765.672-3.732 2.64-6.717 4.554-8.706 2.814-2.412 3.771-5.046 4.462-7.711.2-1.182.401-2.364.601-3.547-1.12.464-2.239.929-3.358 1.393-1.834.438-4.075 1.218-6.475 3.442-2.568 3.071-4.71 4.955-7.331 5.669-3.922 1.278-8.079 3.172-9.785 7.043 1.4-3.178.208-5.694 7.047-8.314 2.08-1.421 4.789-2.55 5.433-4.637 2.146-3.394 5.727-5.464 9.436-6.238.653-.97.667-1.954 1.319-2.923 3.294 2.585 6.588 5.171 9.882 7.757-1.411.911-1.636 1.307-3.047 2.219.738 1.882-1.248 4.342-4.98 7.771-2.425 1.908-4.215 4.41-5.716 7.184-1.521 4.485-4.593 6.94-9.214 7.363z" fill="#fc0" stroke="#2c2c2b"/><path d="m308.865 263.223c3.378 1.153 6.857 1.383 10.562-.419 3.114-2.164 6.616-2.883 9.376-2.937 3.695.285 6.234-.901 8.608-2.296.977-.695 1.955-1.389 2.932-2.084-1.119-.463-2.239-.926-3.358-1.39-1.608-.986-3.743-2.02-7.013-2.144-3.988.356-6.834.173-9.192-1.175-3.677-1.87-7.956-3.47-11.899-1.939 3.236-1.257 4.173-3.879 10.862-.896 2.475.467 5.188 1.584 7.12.563 3.918-.882 7.913.186 11.083 2.261 1.147-.224 1.853-.91 3-1.134.501 4.158 1.001 8.315 1.502 12.472-1.642-.352-2.081-.232-3.723-.585-.809 1.852-3.953 2.188-9.017 1.974-3.063-.365-6.099.138-9.121 1.037-4.248 2.097-8.155 1.661-11.722-1.308z" fill="#fc0" stroke="#2c2c2b"/><path d="m318.259 227.726c1.573 3.203 3.871 5.826 7.764 7.171 3.733.672 6.717 2.64 8.707 4.554 2.412 2.814 5.045 3.77 7.71 4.462 1.183.2 2.365.4 3.547.601-.464-1.12-.928-2.239-1.392-3.358-.439-1.834-1.218-4.075-3.443-6.475-3.07-2.568-4.954-4.71-5.669-7.331-1.277-3.922-3.172-8.079-7.043-9.785 3.178 1.4 5.694.209 8.315 7.047 1.42 2.081 2.549 4.789 4.637 5.433 3.394 2.146 5.464 5.727 6.238 9.436.969.652 1.953.667 2.923 1.319-2.586 3.294-5.171 6.588-7.757 9.882-.912-1.411-1.307-1.636-2.219-3.047-1.882.738-4.343-1.248-7.772-4.98-1.907-2.424-4.41-4.215-7.183-5.716-4.486-1.521-6.94-4.592-7.363-9.213z" fill="#fc0" stroke="#2c2c2b"/><path d="m356.372 206.872-1.597 36.249-16.926-31.777 12.455 33.693-28.104-23.474 24.751 26.987-35.291-11.018 32.736 15.329-36.089 3.673 36.727 1.437-33.374 17.565 35.291-13.094-24.272 28.584 28.104-25.39-12.136 36.248 16.447-34.491 2.396 38.324 1.916-38.803 16.926 35.13-12.455-36.408 28.584 25.39-24.911-29.222 35.13 13.253-33.214-17.565 36.568-1.756-36.408-3.034 32.735-15.809-35.131 12.136 23.634-27.466-26.827 24.113 11.497-35.61-15.809 33.214z" fill="#fc0" stroke="#2c2c2b"/><path d="m357.49 236.893c10.665 0 19.322 8.585 19.322 19.162s-8.657 19.162-19.322 19.162-19.322-8.585-19.322-19.162 8.657-19.162 19.322-19.162z" fill="#fc0" stroke="#2c2c2b"/><path d="m340.643 250.546c5.724-6.282 13.549-4.577 14.212.319.08 3.726.16 7.452.239 11.178.613.799 1.544 1.171 2.795 1.118-1.625.102-2.096-.488-2.635-1.038-.16-3.699-.319-7.399-.479-11.098-1.669-3.714-9.276-5.132-14.132-.479z" fill="#1f211d" stroke="#2c2c2b"/><path d="m352.779 260.047c-.16 2.582.851 2.821 2.395 1.996" fill="#fc0" stroke="#2c2c2b"/><path d="m361.482 259.648c.937 2.294-.183 2.532-1.597 2.475-.373 0-.745 0-1.118 0" fill="#fc0" stroke="#2c2c2b"/><path d="m339.525 255.416c.506-.08 1.012-.159 1.517-.239 3.726-4.525 7.665-5.11 11.817-1.757" fill="#fc0" stroke="#2c2c2b"/><path d="m341.521 255.097c.586-.08 1.171-.16 1.757-.24 3.034-2.767 6.068-2.767 9.102 0l1.118.16" fill="#fc0" stroke="#2c2c2b"/><path d="m353.338 255.975c-.319 0-.639 0-.958 0-3.898 2.512-7.399 1.3-9.022-1.038" fill="#fc0" stroke="#2c2c2b"/><path d="m346.871 252.941c-.213 1.384.106 2.129.958 2.236.931-.08 1.331-.799 1.197-2.156" fill="#fc0" stroke="#2c2c2b"/><path d="m345.593 253.34c-.106 1.745.426 3.076 2.236 3.114 1.787-.022 2.584-1.222 2.475-3.114" fill="#fc0" stroke="#2c2c2b"/><path d="m359.007 251.105c3.114-5.669 10.033-6.893 14.771-1.038-5.137-3.86-10.061-3.384-14.771 1.038z" fill="#1f211d" stroke="#2c2c2b"/><path d="m361.322 253.181c3.726-3.167 7.771-2.928 12.136.718" fill="#fc0" stroke="#2c2c2b"/><path d="m375.135 254.618c-.213.16-.426.319-.639.479-1.177.192-2.211.162-2.954-.08-3.885 2.857-8.971 1.951-10.38-.399 4.152-2.821 7.825-3.061 10.699.08" fill="#fc0" stroke="#2c2c2b"/><path d="m365.713 252.622c-.135.905-.109 1.757 1.038 2.235 1.012-.026 1.384-1.064 1.118-2.395" fill="#fc0" stroke="#2c2c2b"/><path d="m364.516 253.021c-.133 1.683.532 2.947 2.235 3.034 1.599-.104 2.293-.927 2.476-3.194" fill="#fc0" stroke="#2c2c2b"/><path d="m352.619 266.594c-.053.586.612.612.719.878 2.631-.772 4.306-.932 7.585 0 .639-.106 1.277-.212 1.916-.319" fill="#fc0" stroke="#2c2c2b"/><path d="m353.657 267.153c.924-1.131 1.766-2.398 3.992-1.357 1.998-.961 2.842.386 3.753 1.597" fill="#fc0" stroke="#2c2c2b"/><path d="m361.242 267.712c-.732 2.802-7.785 2.069-7.665.08" fill="#fc0" stroke="#2c2c2b"/><path d="m144.901 389.738c107.481-1.793 214.963-3.586 322.444-5.379-6.012 121.776-45.475 214.953-158.989 224.157-121.343-10.416-158.96-114.967-163.455-218.778z" fill="#dce284" stroke="#2c2c2b"/><path d="m285.306 440.562c5.318-7.041 6.141-9.411 7.041-14.148 3.995-.272 6.329-2.644 6.937-5.109-1.634 2.435-3.581 4.212-6.642 3.643 2.296-5.435-.195-7.611-.7-8.591-1.966.201 1.464 2.771-.563 4.772-3.26-.259-6.353-1.897-9.05-3.563 1.758 2.092 4.823 5.05 8.614 4.951.027 2.382-.364 4.07-.803 4.724-1.048.397-3.795.061-5.618-2.411.843 2.544 3.44 4.038 5.251 4.474.477.01-2.224 6.224-7.793 13.016-.685.836 1.296.044.616 1.055 1.471-1.399 1.239-1.414 2.71-2.813z" fill="#b3ad84" stroke="#2c2c2b"/><path d="m282.012 439.25c5.059-.743 9.226.894 12.501 4.911 4.018.297 8.036.595 12.054.893-2.709 7.894-9.179 8.806-16.073 8.929-1.153 5.878-1.376 12.128.447 19.197.38 5.204-.062 10.856-6.25 19.644-.594 2.903-1.338 5.731-3.126 8.037-1.516 4.234-1.965 9.264-.394 14.089.742 2.278 1.063 4.59 1.287 6.894-3.869.149-4.392-.372-8.261-.223 1.787-2.435 3.601-3.306 1.34-9.377-2.42-14.798-1.577-15.659-1.115-18.08-5.856 10.072-19.451 5.958-32.591 2.679-2.642 7.364-7.33 9.002-12.948 8.036-7.238 5.106-5.592 12.053-2.678 12.947 1.363-.089.789 2.202 1.452 4.018-3.125.298-4.134.484-7.259.782.023-2.694-.758-2.927-.127-4.178 1.495-2.969-.92-8.661-2.55-14.799 7.695 3.912 6.061-14.497 7.144-26.451-10.728 7.801-12.142 7.109-12.054 6.697 2.709-8.092 11.216-13.186 27.904-14.621 1.347.147 20.983.185 28.35 1.228 5.82-3.844 9.504-10.895 9.375-23.663.298-3.72 1.489-6.249 3.572-7.589z" fill="#cc6f40" stroke="#2c2c2b"/><path d="m305.669 444.815c.616 0 1.115.65 1.115 1.45 0 .801-.499 1.45-1.115 1.45s-1.116-.649-1.116-1.45c0-.8.5-1.45 1.116-1.45z" fill="#2c2c2b" stroke="#2c2c2b"/><path d="m290.387 443.03c1.293 0 2.343.4 2.343.893 0 .492-1.05.892-2.343.892s-2.342-.4-2.342-.892c0-.493 1.049-.893 2.342-.893z" fill="#2c2c2b" stroke="#2c2c2b"/><path d="m275.699 512.476c-1.942 3.204-4.032 5.368-6.271 6.492l3.739 4.065 2.937-3.595.473-3.545z" fill="#cc6f40" stroke="#2c2c2b"/><path d="m242.048 496.809 1.337-5.793" fill="none" stroke="#2c2c2b"/><path d="m274.021 494.581.891-2.339" fill="none" stroke="#2c2c2b"/><path d="m290.945 453.739-4.908-2.008 3.347 12.047z" fill="#a8604d" stroke="#a8604d"/><path d="m279.792 441.134c-6.971-5.411-8.383-7.484-10.487-11.822-3.928.779-6.801-.903-8.029-3.124 2.212 1.925 4.555 3.133 7.361 1.785-3.634-4.648-1.796-7.398-1.564-8.476 1.95-.319-.691 3.057 1.788 4.46 3.079-1.1 5.638-3.487 7.808-5.8-1.152 2.478-3.339 6.133-7.026 7.026.595 2.307 1.414 3.834 2.008 4.351 1.115.111 3.68-.93 4.794-3.792-.149 2.676-2.267 4.795-3.902 5.688-.458.135 3.77 5.429 10.918 10.534.879.628-1.24.38-.32 1.179-1.785-.967-1.565-1.042-3.349-2.009z" fill="#b3ad84" stroke="#2c2c2b"/><path d="m331.143 439.669c-5.318-7.041-6.141-9.411-7.041-14.148-3.995-.272-6.33-2.645-6.937-5.109 1.634 2.434 3.581 4.212 6.642 3.642-2.297-5.434.195-7.61.7-8.591 1.966.201-1.464 2.772.563 4.773 3.259-.259 6.352-1.897 9.05-3.564-1.758 2.093-4.823 5.051-8.614 4.952-.028 2.382.364 4.07.803 4.723 1.048.398 3.795.062 5.618-2.41-.843 2.544-3.44 4.037-5.251 4.474-.478.01 2.224 6.224 7.793 13.016.685.836-1.296.044-.617 1.055-1.471-1.399-1.238-1.414-2.709-2.813z" fill="#b3ad84" stroke="#2c2c2b"/><path d="m334.437 438.356c-5.059-.742-9.226.894-12.501 4.911-4.018.298-8.036.596-12.054.893 2.709 7.895 9.178 8.807 16.072 8.929 1.153 5.879 1.377 12.129-.446 19.198-.38 5.204.061 10.856 6.25 19.644.594 2.903 1.338 5.73 3.125 8.036 1.516 4.235 1.966 9.264.395 14.09-.742 2.278-1.063 4.589-1.288 6.894 3.87.149 4.393-.372 8.262-.223-1.788-2.435-3.601-3.306-1.34-9.377 2.42-14.798 1.577-15.66 1.115-18.08 5.856 10.072 19.451 5.958 32.591 2.678 2.642 7.365 7.33 9.002 12.947 8.037 7.238 5.106 5.593 12.052 2.679 12.947-1.363-.089-.789 2.202-1.452 4.018 3.125.298 4.133.484 7.258.781-.022-2.694.758-2.926.128-4.177-1.496-2.969.92-8.662 2.55-14.799-7.696 3.912-6.061-14.498-7.145-26.451 10.729 7.801 12.143 7.109 12.055 6.697-2.71-8.092-11.216-13.186-27.904-14.622-1.347.148-20.983.186-28.35 1.228-5.821-3.844-9.504-10.894-9.375-23.662-.299-3.72-1.489-6.25-3.572-7.59z" fill="#cc6f40" stroke="#2c2c2b"/><path d="m310.78 443.922c-.616 0-1.116.65-1.116 1.45 0 .801.5 1.45 1.116 1.45.615 0 1.115-.649 1.115-1.45 0-.8-.5-1.45-1.115-1.45z" fill="#2c2c2b" stroke="#2c2c2b"/><path d="m326.061 442.137c-1.293 0-2.342.4-2.342.893 0 .492 1.049.892 2.342.892s2.343-.4 2.343-.892c0-.493-1.05-.893-2.343-.893z" fill="#2c2c2b" stroke="#2c2c2b"/><path d="m340.75 511.583c1.941 3.203 4.032 5.367 6.271 6.492l-3.74 4.065-2.936-3.596-.473-3.544z" fill="#cc6f40" stroke="#2c2c2b"/><path d="m374.4 495.916-1.337-5.793" fill="none" stroke="#2c2c2b"/><path d="m342.428 493.688-.891-2.339" fill="none" stroke="#2c2c2b"/><path d="m325.504 452.845 4.907-2.007-3.346 12.046z" fill="#a8604d" stroke="#a8604d"/><path d="m336.657 440.241c6.971-5.411 8.383-7.484 10.487-11.822 3.928.778 6.8-.903 8.029-3.124-2.212 1.924-4.555 3.133-7.362 1.785 3.634-4.648 1.797-7.398 1.565-8.477-1.95-.318.691 3.058-1.788 4.461-3.079-1.1-5.638-3.488-7.808-5.8 1.152 2.478 3.339 6.133 7.025 7.026-.595 2.307-1.413 3.834-2.007 4.351-1.116.11-3.68-.93-4.795-3.792.15 2.676 2.268 4.795 3.903 5.688.458.135-3.771 5.429-10.918 10.534-.879.628 1.24.38.32 1.179 1.785-.967 1.564-1.042 3.349-2.009z" fill="#b3ad84" stroke="#2c2c2b"/></g><path d="m172.183 430.32s-1.339-4.464-1.339-5.357c2.232.446 4.018 2.679 5.804 3.572-.893-1.786-.893-4.911-.893-7.144 1.339.447 2.679 5.804 2.679 7.144.446-1.786 1.339-4.911 1.786-6.697.446 1.339.893 3.571.893 5.357-.447-4.018 0-1.786.893 0 0-.446.892-1.339.892-1.339v2.232c.447-.893 1.34-3.571 2.233-4.018v1.786c.446 0 2.232-1.339 2.232-1.786v2.679c.446-.447 1.339-.893 1.786-.893 0 .446-.447.893-.447 1.339 1.34 0 3.572-1.339 4.465-1.339 0 .446-.893.893-.893 1.339h3.125c-.446 0-.893.447-.893.893h1.786c-.446 0-1.339.893-1.786.893" fill="none" stroke="#009240" stroke-width=".495446"/><path d="m174.111 410.088s-1.339-4.464-1.339-5.357c2.232.446 4.018 2.678 5.804 3.571-.893-1.785-.893-4.911-.893-7.143 1.339.447 2.678 5.804 2.678 7.143.447-1.785 1.34-4.911 1.786-6.696.447 1.339.893 3.571.893 5.357-.446-4.018 0-1.786.893 0 0-.446.893-1.339.893-1.339v2.232c.446-.893 1.339-3.572 2.232-4.018v1.786c.447 0 2.233-1.34 2.233-1.786v2.679c.446-.447 1.339-.893 1.785-.893 0 .446-.446.893-.446 1.339 1.339 0 3.572-1.339 4.464-1.339 0 .446-.892.893-.892 1.339h3.125c-.447 0-.893.446-.893.893h1.786c-.447 0-1.34.893-1.786.893" fill="none" stroke="#009240" stroke-width=".495446"/><path d="m227.46 432.716s-1.865-7.448-1.865-8.938c3.108.745 5.595 4.469 8.081 5.959-1.243-2.98-1.243-8.193-1.243-11.917 1.865.744 3.73 9.682 3.73 11.917.622-2.98 1.865-8.193 2.487-11.173.621 2.235 1.243 5.959 1.243 8.938-.622-6.703 0-2.979 1.243 0 0-.745 1.243-2.234 1.243-2.234v3.724c.622-1.49 1.865-5.959 3.109-6.703v2.979c.621 0 3.108-2.235 3.108-2.979v4.468c.621-.744 1.865-1.489 2.486-1.489 0 .745-.621 1.489-.621 2.234 1.864 0 4.973-2.234 6.216-2.234 0 .745-1.243 1.489-1.243 2.234h4.351c-.622 0-1.243.745-1.243 1.49h2.486c-.621 0-1.865 1.489-2.486 1.489" fill="none" stroke="#009240" stroke-width=".495446"/><path d="m260.645 567.452s-1.865-7.448-1.865-8.937c3.108.745 5.594 4.469 8.081 5.958-1.243-2.979-1.243-8.193-1.243-11.917 1.864.745 3.729 9.683 3.729 11.917.622-2.979 1.865-8.193 2.487-11.172.622 2.235 1.243 5.959 1.243 8.938-.621-6.703 0-2.979 1.243 0 0-.745 1.244-2.235 1.244-2.235v3.724c.621-1.489 1.865-5.958 3.108-6.703v2.979c.622 0 3.108-2.234 3.108-2.979v4.469c.622-.745 1.865-1.49 2.487-1.49 0 .745-.622 1.49-.622 2.235 1.865 0 4.973-2.235 6.216-2.235 0 .745-1.243 1.49-1.243 2.235h4.351c-.621 0-1.243.745-1.243 1.489h2.487c-.622 0-1.865 1.49-2.487 1.49" fill="none" stroke="#009240" stroke-width=".495446"/><path d="m345.102 550.346s-1.333-5.75-1.333-6.9c2.222.575 3.999 3.45 5.776 4.6-.889-2.3-.889-6.324-.889-9.199 1.333.575 2.666 7.474 2.666 9.199.444-2.3 1.333-6.324 1.777-8.624.445 1.725.889 4.599.889 6.899-.444-5.174 0-2.3.888 0 0-.575.889-1.725.889-1.725v2.875c.444-1.15 1.333-4.6 2.221-5.174v2.299c.445 0 2.222-1.725 2.222-2.299v3.449c.444-.575 1.333-1.15 1.777-1.15 0 .575-.444 1.15-.444 1.725 1.333 0 3.554-1.725 4.443-1.725 0 .575-.889 1.15-.889 1.725h3.11c-.444 0-.889.575-.889 1.15h1.778c-.445 0-1.333 1.15-1.778 1.15" fill="none" stroke="#009240" stroke-width=".495446"/><path d="m387.838 446.982s-1.355-5.915-1.355-7.098c2.259.592 4.066 3.549 5.873 4.732-.903-2.366-.903-6.506-.903-9.463 1.355.591 2.71 7.689 2.71 9.463.452-2.366 1.356-6.506 1.808-8.872.451 1.775.903 4.732.903 7.098-.452-5.323 0-2.366.904 0 0-.592.903-1.775.903-1.775v2.958c.452-1.183 1.356-4.732 2.259-5.323v2.365c.452 0 2.259-1.774 2.259-2.365v3.548c.452-.591 1.356-1.183 1.808-1.183 0 .592-.452 1.183-.452 1.775 1.355 0 3.614-1.775 4.518-1.775 0 .592-.904 1.183-.904 1.775h3.163c-.452 0-.904.591-.904 1.183h1.807c-.451 0-1.355 1.183-1.807 1.183" fill="none" stroke="#009240" stroke-width=".495446"/><path d="m204.956 526.756s-1.825-5.915-1.825-7.098c3.042.592 5.476 3.549 7.91 4.732-1.217-2.366-1.217-6.506-1.217-9.463 1.825.591 3.65 7.689 3.65 9.463.609-2.366 1.826-6.506 2.434-8.872.609 1.775 1.217 4.732 1.217 7.098-.608-5.323 0-2.366 1.217 0 0-.592 1.217-1.775 1.217-1.775v2.958c.608-1.183 1.825-4.732 3.042-5.323v2.365c.609 0 3.043-1.774 3.043-2.365v3.548c.608-.591 1.825-1.183 2.433-1.183 0 .592-.608 1.183-.608 1.775 1.825 0 4.868-1.775 6.084-1.775 0 .592-1.216 1.183-1.216 1.775h4.259c-.609 0-1.217.591-1.217 1.183h2.434c-.609 0-1.826 1.183-2.434 1.183l8.941-4.317c0 1.115.446 2.454.669 3.346-.669-2.231-.223-.892 0 .446 0 0 .446.223.446.223.447 0 1.116-.223 1.562-.223.669-1.338 1.562-2.9 2.454-4.239 0 .67.223 2.454.223 2.678.893-.447 1.339-1.339 2.677-1.785 0 .446.223.892.447 1.338-.447-.892-.224-.446.445 0 0 0 .447-.446.447-.669.892 0 1.784.446 2.454.669.223-.223.446-.446.446-.669.223 0 .446.223.669.223.223.446.669.893.893.893.223.669.669 1.784.892 2.453.446-.669 2.008-2.9 2.454-3.569.223-1.785.892-3.792 1.115-5.354v4.685c0 .892.223 1.785.223 2.454.446-.223.893-.893 1.116-1.116 0 .223.223.67.223.893.223 0 .892-.67 1.115-.893 0-.446.447-1.338.447-1.784.892-1.562 2.23-3.347 3.123-4.908 0-.893.446-1.785.446-2.677-.446 1.784 0 .892 0 .892v2.677c0 .893.223 1.785.223 2.677 0 .223.446.892.446 1.116-.446-.893 0-.224 0 .446.223-.67.892-2.454 1.116-2.9v2.23c0 .447.223.67.223.893 0 0 .223.446.223.446.223.223.669.892.669 1.115.223 0 .892 0 .892-.223.223.67.447 1.785.669 2.454 0-1.115.224-1.338.447-2.007-.447.892-.223.669 0-.447 0 0 .446-.446.446-.446-.446.446 0 0 0-.446.223 0 .446 0 .446-.223 0 .223.446.892.446 1.115 0-.223.669-.892.669-1.115.447.892 1.562 2.008 2.008 2.9 0 0 .447-.446.447-.446.669-.223 1.338-.669 2.007-.892 0 .223.223.446.223.669.446-.446.67-1.116.893-1.562 1.115-.223 1.338-.223 2.007-.669.224-.223.67-.669.893-.892 0 .446.223 1.338.223 2.007 0 0 .223.447.223.447s.223.223.223.223c.446-.67 1.338-1.339 2.008-1.785.669-.446 1.561-1.116 2.008-1.562 0 .446.223.893.223 1.339 0 .892.446 1.561.446 2.231 0 0 1.115-2.454 1.338-2.9 0 .446.447 1.338.447 1.784.222-.223.446-.669.446-1.115.892-.446 2.9-1.562 3.569-1.785 0 .446.223 1.785.223 2.454.446-.446 1.116-1.115 1.562-1.562.892-.223 1.115-.446 1.785-.446 0 .893-.224 1.785-.224 2.677 0-.223.446-.669.446-.669.67 0 1.339-.223 2.008-.223 0 0-.446 2.454-.446 3.123.446 0 1.785.223 1.785-.223.223 0 .669.446.892.446 0 .446.223 0 .223.446" fill="none" stroke="#009240" stroke-width=".495446"/><path d="m414.941 524.972s1.825-5.915 1.825-7.098c-3.042.591-5.476 3.549-7.91 4.732 1.217-2.366 1.217-6.507 1.217-9.464-1.825.591-3.65 7.689-3.65 9.464-.609-2.366-1.826-6.507-2.434-8.873-.609 1.775-1.217 4.732-1.217 7.098.608-5.323 0-2.366-1.217 0 0-.591-1.217-1.774-1.217-1.774v2.957c-.608-1.183-1.825-4.732-3.042-5.323v2.366c-.609 0-3.042-1.775-3.042-2.366v3.549c-.609-.592-1.826-1.183-2.434-1.183 0 .591.608 1.183.608 1.774-1.825 0-4.867-1.774-6.084-1.774 0 .591 1.217 1.183 1.217 1.774-1.217 0-4.26 0-4.26 0 .609 0 1.217.592 1.217 1.183-.608 0-1.825 0-2.434 0 .609 0 1.826 1.183 2.434 1.183l-8.941-4.317c0 1.115-.446 2.454-.669 3.346.669-2.231.223-.892 0 .446 0 0-.446.224-.446.224-.447 0-1.116-.224-1.562-.224-.669-1.338-1.562-2.9-2.454-4.238 0 .669-.223 2.454-.223 2.677-.893-.447-1.339-1.339-2.677-1.785 0 .446-.223.892-.447 1.338.447-.892.224-.446-.445 0 0 0-.447-.446-.447-.669-.892 0-1.784.446-2.454.669-.223-.223-.446-.446-.446-.669-.223 0-.446.223-.669.223-.223.446-.669.893-.893.893-.222.669-.669 1.785-.892 2.454-.446-.669-2.008-2.901-2.454-3.57-.223-1.784-.892-3.792-1.115-5.354v4.685c0 .892-.223 1.785-.223 2.454-.446-.223-.892-.892-1.116-1.116 0 .224-.223.67-.223.893-.223 0-.892-.669-1.115-.893 0-.446-.447-1.338-.447-1.784-.892-1.562-2.23-3.346-3.123-4.908 0-.892-.446-1.785-.446-2.677.446 1.785 0 .892 0 .892v2.678c0 .892-.223 1.784-.223 2.676 0 .223-.446.893-.446 1.116.446-.893 0-.223 0 .446-.223-.669-.892-2.454-1.116-2.9v2.231c0 .446-.222.669-.222.892 0 0-.224.446-.224.446-.223.223-.669.892-.669 1.116-.223 0-.892 0-.892-.224-.223.67-.446 1.785-.669 2.455 0-1.116-.224-1.339-.447-2.008.447.892.223.669 0-.447 0 0-.446-.446-.446-.446.446.446 0 0 0-.446-.223 0-.446 0-.446-.223 0 .223-.446.892-.446 1.115 0-.223-.669-.892-.669-1.115-.446.892-1.562 2.008-2.008 2.9 0 0-.447-.446-.447-.446-.669-.223-1.338-.669-2.007-.892 0 .223-.223.446-.223.669-.446-.446-.67-1.116-.893-1.562-1.115-.223-1.338-.223-2.007-.669-.224-.223-.67-.669-.893-.892 0 .446-.223 1.338-.223 2.007 0 0-.223.447-.223.447s-.223.223-.223.223c-.446-.67-1.338-1.339-2.008-1.785-.669-.446-1.561-1.115-2.008-1.561 0 .446-.223.892-.223 1.338 0 .892-.446 1.562-.446 2.231 0 0-1.115-2.454-1.338-2.9 0 .446-.446 1.338-.446 1.784-.223-.223-.447-.669-.447-1.115-.892-.446-2.9-1.562-3.569-1.785 0 .447-.223 1.785-.223 2.454-.446-.446-1.116-1.115-1.562-1.561-.892-.223-1.115-.446-1.785-.446 0 .892.224 1.784.224 2.676 0-.223-.446-.669-.446-.669-.67 0-1.339-.223-2.008-.223 0 0 .446 2.454.446 3.124-.446 0-1.785.223-1.785-.224-.223 0-.669.447-.892.447 0 .446-.223 0-.223.446" fill="none" stroke="#009240" stroke-width=".495446"/><path d="m398.695 405.32s-1.356-5.915-1.356-7.098c2.259.592 4.067 3.549 5.874 4.732-.904-2.366-.904-6.506-.904-9.464 1.356.592 2.711 7.69 2.711 9.464.452-2.366 1.355-6.506 1.807-8.872.452 1.774.904 4.732.904 7.098-.452-5.324 0-2.366.903 0 0-.592.904-1.775.904-1.775v2.958c.452-1.183 1.355-4.732 2.259-5.324v2.366c.452 0 2.259-1.774 2.259-2.366v3.549c.452-.591 1.355-1.183 1.807-1.183 0 .592-.452 1.183-.452 1.775 1.356 0 3.615-1.775 4.519-1.775 0 .592-.904 1.183-.904 1.775h3.163c-.452 0-.904.591-.904 1.183h1.807c-.452 0-1.355 1.183-1.807 1.183" fill="none" stroke="#009240" stroke-width=".495446"/><path d="m323.407 665.294c9.097-3.94 25.778-12.118 34.874-16.058 5.944-7.011 8.034-9.254 9.919-24.52-.125-12.163-5.811-16.788-14.023-17.986-28.626 1.179-30.73 19.22-85.278 4.625-16.868-6.512-24.7 3.938-28.426 22.098 2.111 11.226 9.757 16.021 18.951 19.014 9.601 3.083 19.203 6.166 28.805 9.25 13.139 1.713 22.039 1.864 35.178 3.577z" fill="#9fdcf5" stroke="#2c2c2b" stroke-width=".267562"/><path d="m242.368 638.591c6.436-11.859 15.535-9.273 25.015-4.625 30.968 12.095 77.66 1.768 100.817-7.708" fill="none" stroke="#2c2c2b" stroke-width=".267562"/><path d="m242.836 625.23c6.886-1.883 15.767-1.711 24.548 2.055 18.195 5.98 58.927 9.439 81.419-4.082 6.065-3.897 13.914-3.6 18.639-3.625-1.389-2.913-1.441-5.825-4.169-8.737-24.918-.08-32.277 24.724-95.132 8.737-10.502-6.163-20.138-3.196-21.604-2.056-1.904 2.272-3.583 4.842-3.701 7.708z" fill="#fff" stroke="#2c2c2b" stroke-width=".267562"/><path d="m246.947 632.567c3.88 5.814 8.125 12.262 22.347 23.198 4.482 1.541 9.187 2.858 13.669 4.399-7.929-9.704-17.482-19.01-18.783-27.854-10.902-4.233-13.21-1.269-17.233.257z" fill="#fff" stroke="#2c2c2b" stroke-width=".267562"/><path d="m290.832 653.8c9.538-.745 19.334-.373 28.457 1.438 5.805 7.776 5.39 16.137 1.244 27.322-8.397 2.237-16.794 2.343-25.191.319-6.959-18.148-7.918-25.843-4.51-29.079z" fill="#9fdcf5" stroke="#2c2c2b" stroke-width=".267562"/><path d="m302.339 653.64.156 30.518 9.641-.16v-29.718z" fill="#fff" stroke="#2c2c2b" stroke-width=".267562"/><path d="m338.075 635.657c.866 7.297-1.1 16.504-8.507 26.965 3.157-1.54 13.898-6.873 17.054-8.414 4.556-6.307 6.044-11.358 5.156-22.13-5.312 1.79-9.285 1.868-13.703 3.579z" fill="#fff" stroke="#2c2c2b" stroke-width=".267562"/><path d="m292.231 676.262c-5.808 2.352-14.684 2.462-21.162 17.906-8.247 21.664-19.45 32.695-32.676 36.452 6.172 4.211 13.122 5.49 21.784.32.108 6.082-1.242 9.916-2.801 13.43 24.614-10.239 26.739-32.492 30.187-54.039 1.659-4.476 4.149-7.248 7.469-8.313-.934-1.919-1.868-3.837-2.801-5.756z" fill="#9fdcf5" stroke="#2c2c2b" stroke-width=".267562"/><path d="m292.231 676.262c-6.848 5.682-14.098 9.842-18.361 25.261-6.132 17.67-14.094 26.569-22.718 32.295 3.009-.853 6.017-1.705 9.025-2.558-.207 2.878-.415 5.755-.622 8.633 7.158-8.046 13.278-17.959 17.116-31.975 5.02-19.055 10.939-23.322 16.805-28.458-.415-1.066-.83-2.132-1.245-3.198z" fill="#fff" stroke="#2c2c2b" stroke-width=".267562"/><path d="m319.928 682.337c3.112 8.847 4.564 17.267 4.356 25.261 3.052 26.157 15.191 34.305 29.876 37.411-3.891-4.903-6.484-9.806-6.224-14.708 6.122 1.5 11.515.004 16.805-1.919-7.163-2.652-13.909-6.374-17.739-17.586-5.239-17.294-14.326-28.898-24.544-35.106-.248 1.918-.497 4.729-2.53 6.647z" fill="#9fdcf5" stroke="#2c2c2b" stroke-width=".267562"/><path d="m322.106 678.181c-.104.639-.207 1.279-.311 1.918 4.011 8.286 9.128 16.115 8.713 26.22 1.918 15.296 8.972 24.142 18.361 30.057-.207-2.025-.415-4.05-.622-6.075 2.282.319 4.564.319 6.846.639-11.025-6.954-16.891-20.988-19.966-35.196-1.647-7.61-8.461-12.499-13.021-17.563z" fill="#fff" stroke="#2c2c2b" stroke-width=".267562"/><path d="m280.237 638.008c-.819 4.982 8.625 10.633 11.377 15.616 9.37-.524 17.847.143 27.217 2.008 3.978-.036 6.358-6.952 7.362-18.293-13.186 2.959-33.968.704-45.956.669z" fill="#fff" stroke="#2c2c2b" stroke-width=".267562"/></g></svg>