<svg height="299.99997" width="749.99994" xmlns="http://www.w3.org/2000/svg"><g transform="matrix(.49999996252 0 0 .49999996252 .00004547619 .00000118078)"><path d="m0-.0000084h300v599.9999984h-300z" fill="#75aadb"/><path d="m300-.0000084h150v599.9999984h-150z" fill="#fff"/><path d="m450-.0000084h600v599.9999984h-600z" fill="#da251d"/><path d="m1050-.000009h150v600.000009h-150z" fill="#fff"/><path d="m1200-.0000084h300v599.9999984h-300z" fill="#75aadb"/></g><g transform="matrix(.1411111 0 0 .1411111 328.49729533249 53.42707861614)"><path d="m329.53125 259.1875-25.96875 142.9375c-18.33995 1.66914-36.17799 5.06311-53.34375 10.0625-43.75741-55.85045-80.69606-40.74401-83.40625-120.59375-35.88137 70.7298 4.36681 85.08129 25.8125 144.59375-15.71691 8.69374-30.53732 18.807-44.25 30.21875l-119.46875-82.65625 82.6875 119.46875c-11.57813 13.91227-21.847322 28.96488-30.625 44.9375-70.425351-8.60875-85.8410451 28.04504-144.21875-26.5 24.63275 75.35841 63.22132587 57.1145 120.4375 84-4.909 16.9938-8.257253 34.6407-9.90625 52.78125l-142.9375 25.9375 142.9375 25.96875c1.66871 18.34451 5.061935 36.2052 10.0625 53.375-55.8448636 43.75582-40.746257 80.66487-120.59375 83.375 70.7304919 35.88159 85.079878-4.36697 144.59375-25.8125 8.693043 15.71813 18.80738 30.53613 30.21875 44.25l-82.65625 119.46875 119.4375-82.6875c13.921 11.58875 28.98418 21.872 44.96875 30.65625-8.58948 70.41025 28.03949 85.81545-26.5 144.18745 75.3568-24.6324 57.11704-63.192 84-120.4062 16.99383 4.90891 34.64068 8.25735 52.78125 9.90625l25.9375 142.90625 25.96875-142.90625c18.34731-1.66886 36.20277-5.09204 53.375-10.09375 43.76043 55.8608 80.66476 40.73973 83.375 120.5937 35.88077-70.7287-4.36654-85.05251-25.8125-144.56245 15.73006-8.69964 30.55863-18.82804 44.28125-30.25l119.4375 82.65625-82.65625-119.46875c11.58514-13.92103 21.87517-28.95371 30.65625-44.9375 70.39882 8.59415 85.78713-28.03702 144.15625 26.5-24.63231-75.35691-63.19213-57.11704-120.40625-84 4.90277-16.97937 8.2577-34.62598 9.90625-52.75l142.9375-25.96875-142.9375-25.96875c-1.66929-18.34276-5.09322-36.17556-10.09375-53.34375 55.87907-43.76573 40.73245-80.69566 120.59375-83.40625-70.72797-35.88042-85.05394 4.3664-144.5625 25.8125-8.69374-15.71691-18.83825-30.53732-30.25-44.25l82.65625-119.46875-119.4375 82.6875c-13.93049-11.59665-28.972-21.86805-44.96875-30.65625 8.59415-70.39882-28.03691-85.81838 26.5-144.1875-75.35382 24.63124-57.09038 63.22697-83.96875 120.4375-16.98819-4.90738-34.64702-8.25667-52.78125-9.90625z" fill="#fcbf49"/><path d="m330.646 422.0029c-2.68083 14.85244-57.63672 60.29023-58.71199 77.76358-.53764 8.73671-1.35237 13.94403 1.37396 23.1734 2.72625 9.22942 6.24395 14.24037 15.75421 14.28873 36.75996.18938-1.27422-27.95128 17.40295-28.39425 1.74365-.04136 3.0837.24356 4.12173 1.00754 2.6837 2.09328 3.35265 8.20479 3.84697 23.9977.59564 19.03265.48915 40.11009.27476 61.82624-21.90777.16088-43.57607.05264-62.19259-2.10667-21.8371-2.53292-31.41001-19.30953-27.75308-35.35546.09211-.40413.23547-.78747.45796-1.09913.1606-.21104.42354-.47134.64116-.64112 5.76603-4.26309 29.69069 4.70336 36.36297 6.96116-.2688-9.67759-21.91216-35.51479-39.38557-34.43952-17.47341 1.07528-36.31809 24.95443-30.50091 40.7595 5.8307 15.8419 20.76454 17.05591 20.79191 21.98269.02647 5.38559-14.6567 3.58336-24.08935 3.93855-6.86668.25854-4.98715-10.34519-17.12812-9.80061-13.54789.60766-20.68619 21.62342-35.53865 24.91366 14.85246 3.29027 21.99076 24.39762 35.53865 25.00528 12.14097.54454 10.26144-10.05913 17.12812-9.80061 9.43265.35515 24.11582-1.44709 24.08935 3.93858-.02737 4.92677-14.96121 6.14072-20.79191 21.98262-5.81718 15.80506 13.0275 39.68424 30.50091 40.75951 17.47341 1.07528 39.11677-24.76194 39.38557-34.43949-6.67228 2.25782-30.59694 11.2242-36.36297 6.96118-.21762-.16984-.48056-.43015-.64116-.64117-.22249-.31168-.36585-.69497-.45796-1.09914-3.65693-16.04593 5.91598-32.82254 27.75308-35.35541 17.23362-1.99894 37.05409-2.29473 62.46736-2.19826.35512 4.40242.77295 2.4329.45801 17.40294-.24068 11.43716-20.73082 32.77769-31.60005 32.97394.54577 5.53035 45.5537 266.40198 47.26267 270.47825 1.69421-4.07627 45.80091-264.9479 46.34673-270.47825-10.86926-.19625-31.35942-21.53678-31.60004-32.97394-.3131-14.88093.01345-13.01061.36636-17.31136 15.41573-.23212 39.76373-.28237 60.3607 2.10668 21.83711 2.53287 31.41003 19.30948 27.75313 35.35541-.0425.18654-.11219.38315-.18318.5496-.07562.16314-.17216.40571-.27481.54954-4.31862 5.67463-30.04426-3.96488-37.00414-6.32001.26885 9.67755 21.9122 35.51477 39.38563 34.43949 17.47334-1.07527 36.31808-24.9544 30.5009-40.75951-5.83072-15.8419-20.76455-17.05585-20.7919-21.98262-.02654-5.38567 14.56506-3.58343 23.9977-3.93858 6.86674-.25852 5.07878 10.34515 17.21976 9.80061 13.54789-.6077 20.68615-21.71501 35.5386-25.00528-14.85245-3.29024-21.99071-24.306-35.5386-24.91366-12.14098-.54458-10.35302 10.05915-17.21976 9.80061-8.10615-.30527-20.07589.93903-23.26499-2.10667-.46799-.48303-.73627-1.11663-.73271-1.83188.02735-4.92678 14.96118-6.14079 20.7919-21.98269 5.81718-15.80507-13.02756-39.68422-30.5009-40.7595-17.47343-1.07527-39.11678 24.76193-39.38563 34.43952 6.95988-2.35516 32.68552-11.99468 37.00414-6.32004.22249.31166.36589.695.45799 1.09913 3.6569 16.04593-5.91602 32.82254-27.75313 35.35546-17.98255 2.08578-38.85131 2.33073-59.99428 2.19826-.21497-21.74798-.41334-42.85871.18316-61.91783.6877-21.97273 1.68346-25.15647 8.06031-25.00524 18.6771.44297-19.44862 28.58363 17.31135 28.39425 9.51022-.04836 13.02797-5.05931 15.75422-14.28873 2.72626-9.22937 2.00317-14.43669 1.46553-23.1734-1.07532-17.47335-56.03121-62.91114-58.71203-77.76358z" fill="#da251d" fill-rule="evenodd"/></g></svg>