<svg height="503.57413" width="764.86255" xmlns="http://www.w3.org/2000/svg"><g transform="translate(9.574143 -289.14658)"><g fill-rule="evenodd"><path d="m-9.574143 288.07968h766.03015v504.5116h-766.03015z" fill="#73c5ee"/><path d="m261.69618 336.4175c23.57023-191.61683 241.69489-162.62731 248.29455-.82688 17.79552 8.01388 30.80603 22.17695 61.35155 24.44083 5.79247-15.54983 19.08495-10.59966 22.62742-9.89949 9.65685.89298 14.56371-3.46405 17.47056-8.82107-5.90013 1.93106-11.24195 3.51224-16.76346-1.07843-6.69239-7.29289-16.38477-8.58579-27.57716 2.12132-7.04324 1.06997-8.35979 11.09329-23.33453-4.94975l70.6249-28.82716-62.13961-.16421c5.06413-6.83537 9.62825-14.17073 9.19238-20.5061.60767-8.69665 9.35912-11.83286 13.84925-10.81371 12.08536 2.63358 18.42073-6.39949 21.00609-15.09924-5.72183.30635-9.15525 5.6511-17.88477 4.69975-23.73705-4.37666-33.50133 27.51229-43.13352 24.74873l-4.94974-9.89949 63.63961-54.44722-64.34672 24.74873c4.71404-12.49222-3.57191-32.48444 14.64213-36.72666 5.00694-.31413 8.01388-2.87825 11.52082-9.94238 1.5-4.49264 2-9.48529-1-13.22793-1.77124 5.32843.54086 8.07352-10.31371 8.98528-4.45076 1.35188-19.65512 5.73637-23.33452 19.79899-4.26388 8.59966-11.02775 20.19933-24.04163 19.79899l46.66904-81.31728-55.86143 43.84063c-4.13562-8.95669-6.27124-19.83004-5.65686-26.87006-.92157-5.27124 1.57353-6.45914 8.48529-11.31371 7.12378-7.06617 8.66421-20.54899 2.12132-29.69849-2.50694 7.33537-4.26388 15.17073-12.02082 20.5061-9.00694 4.29247-17.76387 6.33495-12.02081 22.62742-.21405 10.89949 1.32191 23.54899-14.14214 29.69848l12.72792-94.75231-35.35534 58.68987c-.85702-6.62826-3.21404-13.25652-7.07106-18.38478-5.55719-5.58537-4.36439-15.67073 2.82842-20.5061-.13562-8.27817-.52123-15.55635-7.15685-22.08452-.57843 8.01388-.90685 14.52775-6.98528 22.79163-5.19281 6.19239-15.38562 10.88478-3.82843 27.32717-.04983 10.92809 1.65034 22.60618-8.89949 28.53427l-10.69239-81.39939-17.59189 80.69228c-6.09272-5.74958-14.18545-14.24916-7.77817-24.74874 10.0143-8.39949 10.52859-16.29899-.70711-29.69848-5.13562-6.83537-6.52123-15.42073-6.40685-22.5061-27.73365 13.5632 11.54565 49.95116-15.51346 67.76093l-33.94112-62.2254 11.31371 86.26703c-2.59273-4.71404-9.18545-6.17809-7.77818-14.14213 2.46447-13.68503-.82107-29.12006-10.6066-40.30509-8.1399-5.97561-8.44-12.16727-9.8566-18.22056-6.69281 6.52817-8.63562 9.55635-3.57843 24.58452 16.69842 16.09723 6.20367 31.19183 6.15685 47.50483l-51.41168-46.79772 38.18376 78.48885c-6.43389-1.79702-10.40947 8.20588-19.79899-7.77817-1.39256-8.6352-1.28511-33.0204-17.17767-28.4056-5.62826.22877-15.25651-5.79247-18.88477-13.3137-.24306 12.73528.02738 21.95029 12.02081 25.45584 3.06413 4.24264 12.12826-3.76472 9.19239 12.72792-3.15728 7.30677.68545 13.86354 5.27817 21.92031l-63.96803-24.74874 62.22539 57.27565c-5.05677 3.75-11.86354 7.25-21.92031 0-5.73528-19.32107-10.22056-23.89213-25.45584-21.2132-6.52817-.57843-13.05635-2.15685-20.33452-8.98528-1.07885 10.79247 2.5923 17.08495 13.26345 23.12742 7.8572-.70693 13.72792.34966 19.09188 9.89949 2.53554 7.33537 3.82107 11.17073 10.60661 20.5061l-69.29647-4.24264 75.66043 37.47666c-4.76388 4.94281-6.77775 10.38561-24.04163 2.82842-5.98528-13.82843-14.47057-18.90685-25.45585-8.48528-5.84966 2.9857-11.94933 5.97141-21.04899.20711 1.15686 7.02124 13.06371 14.79247 18.22057 11.81371 9.80677-3.35009 15.86354 1.29983 20.92031 6.94974 17.08841 12.28943 36.61177 15.45196 61.87785-11.47181z" fill="#f5f100" stroke="#f5f100" stroke-linecap="round" stroke-linejoin="round" stroke-width=".5" transform="translate(-9.574143 289.14658)"/><path d="m385.87565 203.55865 4.44729-86.90307 10.0245 88.69474c-5.42115-1.82381-9.05064-2.07154-14.47179-1.79167z" fill="#f5b300" fill-opacity=".625571" transform="translate(-9.574143 289.14658)"/><path d="m421.54727 500.25719 33.45459-87.59363-17.08908 94.57272c-4.60987-3.38591-11.11595-5.59725-16.36551-6.97909z" fill="#f5b300" fill-opacity=".625571"/><path d="m458.84517 531.00852 67.22121-72.34777-48.39786 79.41584c-2.93322-4.91035-14.5224-3.7561-18.82335-7.06807z" fill="#f5b300" fill-opacity=".625571"/><path d="m490.87779 566.12626 85.70149-44.34322-80.19824 63.16275c-1.41925-5.54085-2.31893-14.42325-5.50325-18.81953z" fill="#f5b300" fill-opacity=".625571"/><path d="m498.3164 614.63581 99.17785-15.1695-95.35533 32.94511c.92679-5.64414-2.6731-12.47033-3.82252-17.77561z" fill="#f5b300" fill-opacity=".625571"/><path d="m325.53539 503.2356-23.1535-87.68485 40.61406 83.51556c-5.71587-.20984-12.34188 2.362-17.46056 4.16929z" fill="#f5b300" fill-opacity=".625571"/><path d="m290.52307 520.9446-54.49068-71.09834 68.09299 63.95451c-5.21607 2.34688-9.81608 3.25389-13.60231 7.14383z" fill="#f5b300" fill-opacity=".625571"/><path d="m265.65994 566.07432-73.14464-47.45352 79.0348 30.98449c-4.5252 3.49826-3.11514 11.80357-5.89016 16.46903z" fill="#f5b300" fill-opacity=".625571"/><path d="m259.55363 612.91357-104.22376-24.29371 100.92301 6.74751c-2.439 5.17364 3.65021 12.12909 3.30075 17.5462z" fill="#f5b300" fill-opacity=".625571"/><path d="m496.79368 275.98013a110.66805 92.414352 0 1 1 -.1299-.82774" fill="#1d97df" transform="matrix(1.1397378 0 0 1.2988158 -66.152646 229.46492)"/><path d="m259 333.57413c-.82095-9.68689-1.34454-19.61902-.1976-28.5988 8.36337-10.12623 29.23804-10.46126 42.1976-31.9012 1.77758-4.68198 9.56557-6.18198 17-4.5.73223-16.70711 3.23223-33.76777 7.5-48 6.16667-5.76777 16.33333-12.41421 22.5-15 22.85993-4.20896 34.56358 5.20853 42.33333 23.66667 8.92462 20.04535 5.394 39.18138 5.83334 69.83333 5.83333-.28799 11.35355-.92953 18.95465 5.85355 2.89399-6.81311-1.42002-16.68289 2.18108-23.84956 1.27267-2.64154 5.51071 1.66268 8.1976 1.49601-.74755-4.20711-2.07689-10.36458-1.41022-13.86458 18.47487 9.77268 32.22824 26.79901 51.41022 35.86458 4 2.33333 8 4.66667 12 7 4.52022-1.93443 8.33333-.33333 12.5-.5 7.02022 1.08579 4.4596.43782 10.41916 4.70559 1.1199-1.53104-1.25858 32.03324-6.58682 19.59681-24.33333-13.5-37.49901-12.8024-64.33234-1.8024-38.5 35.16667-76 26.33333-114-1-18.66667-11.16667-42.83333-12.33333-66.5 1z" fill="#a95e37" transform="translate(-9.574143 289.14658)"/><path d="m258.80584 304.61043c-.92488 8.78863-.70608 20.37032-.35831 29.96518 4.22119-4.34987 9.06739-6.44975 13.78858-7.42462 4.61785-2.79636 4.1107-4.46773.35355-3.88909-4.16421 3.04289-4.82843 1.58579-4.24264-2.12132 3.34987-1.73917 7.44975-3.60335 7.42462-6.71752 5.67851.57864 6.85703-.84272 2.16054-3.26408-2.13721-2.23314-.9702-2.99774 2.08211-4.16054 5.539 2.11732 11.078 1.07017 16.617 1.41422 3.50694 3.28206 3.26388 6.43913 12.02082 4.59619.12153 2.62132-2.88194 4.99264-6.01041 6.36396-3.17483-.9857-6.47466-.84641-9.89949-.70711-3.96058-4.3893-4.54615-2.02859-8.13173.70711-2.31781 1.02492-3.51062 2.67483-2.82843 4.94975 1.17136.125 2.59273 0 3.88909 0 .4714-.58926 1.81781-1.17851 2.28921-1.76777 8.86988-1.54449 13.197-.8797 19.6311.70711 3.64992-3.52124 4.29983-7.54247 4.94975-11.31371 2.47487-.94281 4.94975-1.88562 7.42462-2.82843 3.74632-2.09987 3.86764-4.69975 5.98896-7.17462 0-1.64992.375-3.54983.375-5.19975.02513-5.82496-3.07475-8.14991-7.54962-2.97487-2.35702 3.06413-5.46405 5.12826-6.94607 9.69239-3.53206-.39992-4.43913-2.54983-4.09619-5.44975 5.68913-2.29615 8.87825-9.09231 8.69238-15.76346-4.98549.58579-7.72098-4.32843-13.08147-4.24264-2.28921-1.28206-3.57843-2.93913-4.24264-4.59619-5.44218 2.84945-6.23315 14.97511-40.30033 31.19956z" fill="#883a28" transform="translate(-9.574143 289.14658)"/><path d="m337.625 286.44913c-2.70833 6.08333-2.66667 12.29167.5 18.25 1.79167 3.875 3.70833 3.5 4.625.375.20833-.41667.41667-.83333.625-1.25 1.25 1.29167 2.375.83333 3-.25 3.04167 1.83333 5.95833 1.66667 8.375-.125-.33333-3.33333 3.45833-2.54167 3.875-5.125.95833-4.33333-.83333-5.79167-3.125-8.125-2.33333 1.45833-4.91667.66667-7.375-.125-4.375-.45833-5-1.16667-4.5-4.375 1.875-3.91667-.5-3.70833-2.625-3.875-1.625 1.16667-2.25 3.08333-3.375 4.625z" fill="#883a28" transform="translate(-9.574143 289.14658)"/><path d="m300.55086 614.34571c2.16667-2.08333 4.83333-5.04167 7.125-7.375 1.41667 1.45833 2.08333 3.79167 1.625 5.5 3 2.625 6.125 3 9.5 1.75 0 0 5.81593-2.71342 12.375-4.375 2.87114-.56202 11.75-7.875 11.75-7.875-4.08333 1.83333 7.83333-3.45833 3.125 4-2.58333-1.125-3.54167 2.875-6.25 3 2 5.54167-.375 6.95833-6.75 6.125-4.20833.54167-8.41667 1.08333-12.625 1.625.91667 1.08333-.16667 2.16667-.25 3.25 8.58333 4.45833 27.04167 1.04167 36.25 1 6.95399-1.79609 6.56637-3.91481-.25-6.25-11.51835 1.755-12.60009-4.00555-1-4.75 8.95833-.41667 13.66667-.45833 19-2.375 6.79167-6.125.58333-6.25-1.375-8.625-14.20833-1.83333-10.04167-2.54167-1.375-3.25 3.37856 1.17415 5.93886.39046 6.375-.5 1.42004-3.41464 5.41845-3.63226 6.375-6.5 3.95833-.375 10.41667 4.625 15.625 4.875 4.16667 1.58333 2.83333-7.83333 4-11.625-.45833-5.625 5.70833-2.625 6-7.25 3.79167.20833-2.20834-5.33333-.79167-7.125-.75-4.95833 7.29167-6.41667 9.54167-7.125 3 1.95833 5.25 4.54167 6 7-3.33333 6 1.20833 12.875.875 28.875 2.25 1.70833 4.375.79167 6.375-.5-1.29167-2.29167-.95833-4.70833-.125-6.5 2.125-5.25 3.625-.75 4.875.375 1.41454 1.16879 1.64845 3.51822 1.75 6 2.70833 2.66667 5.54167 1.70833 8.125-.25 5-4.91667 12.625-2.70833 19.125-2 3.66667.75 6.08333 3.125 9.125 5.25 2.79167 2.95833 5.83333.91667 9.125 2.5.75 5.16667 7.75 4.45833 9 7.625-7.54167 2.125-4.33333 5.5-9.875 7.125-14.91667-2.20833-30.33333-.91667-45.5 4.25-8.25 3.875-17 8.5-25.125 14.25-16.5 15.66667-43 18.33333-67.125 4.25-15.79167-8.75-28.95833-20.375-44.625-24.375zm85-4.5c.70833 2.33333 1.29167 4.16667-.5 6.625.83333 2.125-9.58333.125-3.5 5.25 2.41667 1.58333 5.83333 2.54167 9.125 1 1.45833-2.33333 3.29167-5.54167 6.625-5.125 1.82165-1.55077 4.09675-3.51614 1.375-6.375-3.25-2.08333-9-7.79167-13.125-1.375z" fill="#883a28"/><path d="m401.375 306.82413c-3.54167-.16667-7.20833-.45833-7.625 2.5.91667 4.54167 2.83333 5.95833 5.75 5 4.29167 3.29167 5.33333-.29167 9.125 1.625 2.54167 2.25 5.33333 1.375 7.25 0 2.5-1.79167 3.25-.45833 4.875 0 3.16667 1.875 6.08333 1 7.25-.875 2.45833 1.5 4.41667 0 6.625 0 6.66667-1 4.20833-5.625.5-5.25-11.875 2.66667-9.25-3.16667-28.125.5-1.125-2.04167-3.75-2.33333-5.625-3.5z" fill="#fff" transform="translate(-9.574143 289.14658)"/><path d="m442.5 333.44913c-33.25-8.125-10.625-11.375-10.625-11.375 3.91667-2.125 6.95833-4.5 12.5-4.625.08333-2.33333.41667-4.16667 5.125-3.625 1.41667-.95833 3.08333-1.79167 5.75-.625 2.25-.08333 3.25-.66667 4.875-2.125 1.625-2.5 3.375-3.5 9.375-1.875 2.20833.29167 4.29167.08333 6.625.875 4.08333 1.875 4.66667 4.125-1 4.375-1.375-.54167-2.875-1.08333-4.375-1.125-1.75-1.16667-3.375-.95833-5.25-.125-2.54167 2.41667-3.33333 5.33333-10.625 4.625-3.125 2.79167-9.25 5.08333-12.625 5.25-2.5.16667-3.125 3.70833 2.125 3.25 7.5-.20833 15-.54167 22.5.125-8.75 1.25-16.375 3-24.375 7z" fill="#fff" transform="translate(-9.574143 289.14658)"/><path d="m397.8508 299.32413c3.5 2.41667 7.2742 2.83333 10.6492 2.875 1.29167 4 6.95833 3.375 6-1.25 4.16667 1.5 1.83333-17.25 4.25-18.75 4.625 6.125 5.125.75 5.625-1.125 1.5-4.70833 2.5-11.16667 0-12.625-2.20833-2.08333-3.54167-1.54167-5.125.125-5.45833 2.25-6.04167 16.5-19 25.125-2.79167 1.375-6.48253 5.875-2.3992 5.625z" fill="#fff" transform="translate(-9.574143 289.14658)"/><path d="m378.25 244.32413c3-13.5 8.625-.75 8.625-.75.83333 2.08333.04167 7.41667 1.875 13.25 2.91667-.91667 1.58333 7.91667 3.125 12.375-1.25.04167-2 .20833-3-1.375-1.625-2-2.5-4.5-3-6.75-3.375-6.25-4.625-3.5-5.625 0-.83333 4.29167-.16667 11.20833-1 16.625-1.33333 6.41667-2.91667 2.08333-3.625-.625-1-11.33333.625-22.54167 2.625-32.75z" fill="#fff" transform="translate(-9.574143 289.14658)"/><path d="m367.51875 296.92217c3.41768 1.29636 7.54247-2.71057 11.31371-2.47487 7.48355-.88388 9.84057-1.41421 10.25305-8.48528-1.88562-7.54247-.94281-14.37784-2.47488-22.62742-1.41421-3.71231-4.94975-12.02082-6.36396 0 .76603 5.83363-.05892 10.42982-.53033 15.37957-3.35875 4.24264 1.94455 12.9047-1.41421 9.54594-2.59273.88388-5.36223.17678-7.77818 2.65165-2.41595.76603-4.47834 2.94628-3.0052 6.01041z" fill="#883a28" transform="translate(-9.574143 289.14658)"/><path d="m318.02128 267.75402c11.01908 2.7695 19.84255 8.73261 30.86163 11.50211 2.06239.88388 5.9212 3.76378 7.98359 4.64766 2.41595-21.27213 3.81689-48.08743 1.28309-69.00601-2.5338.4714-3.83017 5.89256-5.48008 11.49049-.41248 9.42809-.64818 18.85618-1.23744 28.28427-2.47487 5.59793-3.53553 3.06413-4.77297-1.23744 1.23744-8.60313.70711-20.38825 0-30.58237-1.76776-.2357-1.76777 2.35703-2.65165 3.53554-3.88908 22.09709-3.18198-4.24264-7.42462 0 0 8.48528-.35355 16.08668 0 25.45584-.64819 6.89429-1.64992 6.01041-3.00521-.53033-1.00173-9.89949-1.47314-17.67767-6.71751-5.83363-2.59273 1.06066-3.06412 15.37958-8.83883 22.27387z" fill="#883a28" transform="translate(-9.574143 289.14658)"/><path d="m427 234.07413-5.31008-1.95816-5.14772 2.35209.22141-5.65529-3.8277-4.16894 5.44692-1.53701 2.78207-4.92863 3.14498 4.70537 5.54711 1.12288-3.50322 4.44508z" fill="#fff" transform="matrix(.7120905 .35213 -.3375418 .7428663 191.47418 204.62852)"/><path d="m427 234.07413-5.31008-1.95816-5.14772 2.35209.22141-5.65529-3.8277-4.16894 5.44692-1.53701 2.78207-4.92863 3.14498 4.70537 5.54711 1.12288-3.50322 4.44508z" fill="#fff" transform="matrix(.7120905 .35213 -.3375418 .7428663 189.97418 224.62852)"/><path d="m427 234.07413-5.31008-1.95816-5.14772 2.35209.22141-5.65529-3.8277-4.16894 5.44692-1.53701 2.78207-4.92863 3.14498 4.70537 5.54711 1.12288-3.50322 4.44508z" fill="#fff" transform="matrix(.6806684 .4095839 -.3975801 .7125411 235.87028 208.7589)"/><path d="m427 234.07413-5.31008-1.95816-5.14772 2.35209.22141-5.65529-3.8277-4.16894 5.44692-1.53701 2.78207-4.92863 3.14498 4.70537 5.54711 1.12288-3.50322 4.44508z" fill="#fff" transform="matrix(.6567043 .4469987 -.4367957 .6891983 263.84907 174.88783)"/><path d="m344.625 209.07413c5.70833 6.58333 3.16667 39.79167 11.5 3.875 2.08333-3.83333 2.79167-8.79167 9.25.25 3.79167 11.91667 5.33333 19.08333 9.875 7.25 2.125-4.66667 3.5-5.70833 7.125-.875 8.625 14.54167 10.75 14.70833 5.625-1-4.5-8-9-15.75-15.375-22.875-11.125-14.125-12.125-13.75-19.125-4.125-2.04167 5.83333-6.95833 10.91667-12.875 13.75-5.79167 8.75-4.95833 8 4 3.75z" fill="#fff" transform="translate(-9.574143 289.14658)"/><path d="m303.25 269.94913c-2.83581 2.38236-9.107 4.35811.25 7.25 1.95833-.16667 3.91667-.33333 5.875-.5 2.66667.625 5.33333 1.25 8 1.875 1.33333-.04167 2.66667-.08333 4-.125 2.25 1.33333 4.5 2.66667 6.75 4h10.75c2.08333.41667 4.16667.83333 6.25 1.25-2.07934 1.6754-2.36228 3.5504-.25 5.625 3.33333.83333 7.29167 1.54167 10.75-.125 2.45833-.125 3.54167 1.375 4.375 3.75.5 1.33333-.75 2.41667-1.125 3.625 1.5 4.25 5.25 4 7.5.375 1.08333-4.45833 2.91667-7.79167 8.875-8.125 2.75.875 3-3.375 0-6 .16667-1-.66667-2.25-2.125-2.625-.83333-6.625-5.16667-8.375-4.75-.375-.79167 1.875 1.79167 5.125-2 5.625-2.625-3-5.5-7.875-9-4.875-.83333.70833-1.91667 2.91667-4 .25-.45833-3.83333-4.29167-6.29167-12.625-7.75-11.13268-2.97043-24.55381-9.08502-37.5-3.125z" fill="#fff" transform="translate(-9.574143 289.14658)"/><path d="m-1 367.57413 79-33 69 12 47 24 91-29 87 24 117-32 75 37 101-36 105 34-2.5 138.4-769.1.1.6-139.5z" fill="#291873" transform="translate(-9.574143 289.14658)"/></g><path d="m-9 438.57413c61.631275 30.25981 64.003977-72.55718 157.8-7.4 29.09247 16.79906 62.08941 20.88937 96.2-1.6 33.42063-29.11911 65.2695-17.26862 92.5 2 21.01996 20.74114 51.94467 21.55691 88.5-1 35.80059-28.31444 62.52725-18.04139 95-.2 41.33544 25.7573 79.12067 10.52446 99-3.8 77.90225-49.6396 95.91131 31.87081 148.5 18.5" fill="none" stroke="#fff" stroke-linecap="square" stroke-width="29" transform="translate(-9.574143 289.14658)"/><path d="m-17.48143 650.73268c61.63127 30.25981 64.00398-72.55718 157.8-7.4 29.09247 16.79906 62.08941 20.88937 96.2-1.6 33.42063-29.11911 65.2695-17.26862 92.5 2 21.01996 20.74114 51.94467 21.55691 88.5-1 35.80059-28.31444 62.52725-18.04139 95-.2 41.33544 25.7573 79.12067 10.52446 99-3.8 77.90225-49.6396 95.91131 31.87081 148.5 18.5" fill="none" stroke="#fff" stroke-linecap="square" stroke-width="29"/></g></svg>