<svg height="216" width="320" xmlns="http://www.w3.org/2000/svg"><path d="m0 0h320v216h-320z" fill="#fff"/><path d="m0 0v216h320l-38.01338-41.40618-107.53829-48.94214-79.868757.09711 37.692927-24.56598-69.801264-70.921328z" fill="#fd9730"/><path d="m142.62553 96.269178 44.49051-6.558569-7.44968 29.078051 116.67409 33.58063 23.65955 63.63071v-216h-256.077495z" fill="#1983dd"/><g fill="#fff"><path d="m215.72365 24.746156 7.38918-4.295492-1.73444-8.476506 6.29949 5.822736 7.38918-4.295493-3.49486 7.892718 6.29947 5.82273-8.45937-.943454-3.49483 7.892706-1.73445-8.476484z"/><path d="m202.38378 73.82633 7.38918-4.295492-1.73444-8.476507 6.2995 5.822736 7.38918-4.295493-3.49487 7.892719 6.29947 5.822729-8.45937-.943454-3.49482 7.892707-1.73445-8.476485z"/><path d="m270.00056 134.1013 7.38918-4.29549-1.73444-8.47651 6.29949 5.82274 7.38918-4.29549-3.49486 7.89271 6.29947 5.82273-8.45937-.94345-3.49483 7.89271-1.73445-8.47649z"/><path d="m268.03257 31.422021 7.38918-4.295492-1.73444-8.476506 6.29949 5.822736 7.38918-4.295492-3.49486 7.892717 6.29947 5.82273-8.45937-.943454-3.49483 7.892706-1.73445-8.476484z"/><path d="m269.32746 65.378053 3.88165-2.256487-.91113-4.452836 3.30922 3.058772 3.88165-2.256488-1.83591 4.146163 3.30921 3.05877-4.44383-.495612-1.83589 4.146159-.91113-4.452825z"/></g></svg>