<svg height="600" width="1200" xmlns="http://www.w3.org/2000/svg" xmlns:xlink="http://www.w3.org/1999/xlink"><clipPath id="a"><path d="m0 0v150h700v150h-100zm0 300v50h300v-350h300z"/></clipPath><path d="m0 0h1200v600h-1200z" fill="#00247d"/><g fill="none"><path d="m0 0 444.6626 222.3313 155.3374 77.6687m0-300-600 300" stroke="#fff" stroke-width="60"/><path clip-path="url(#a)" d="m0 0 600 300m0-300-600 300" stroke="#cf142b" stroke-width="40"/><path d="m0 150h700m-400-150v350" stroke="#fff" stroke-width="100"/><path d="m0 150h700m-400-150v350" stroke="#cf142b" stroke-width="60"/></g><path d="m0 300h600v-300h600v600h-1200z" fill="#00247d"/><circle cx="900" cy="300" fill="#fff" r="133.3"/><path d="m949.17217 360.60461c-2.13142 1.37544-4.29689 2.90155-4.10378 5.71598-2.22046-2.28509-2.85327-5.55903-1.6122-8.5007-2.77066.37225-4.13907 2.77591-4.69001 5.27631-.67257-2.90318-1.94578-7.64491 1.90533-8.7938-.5118-2.48153-2.93168 1.27899-3.09143 2.60228-1.17015 4.75997-1.069-.87411-1.30549-2.89544-.18017-1.92277 1.08291-3.60757 2.63813-4.39692 1.89107-3.75357 6.76939-2.45118 10.1129-2.19845 2.43065.2986 5.94114-.53374 5.48634-3.66865.29469-4.22996.0955-10.42889-4.90004-11.72052-3.35877-1.2226-3.60524 1.23011-2.99387 3.98188.69078 2.95366-.5971 1.98188-2.42902 1.58755-1.7453.083.51722 3.08881-1.42143 4.18407-.76023 1.22958-3.87247-2.49324-4.00142-.51999-.33621 2.16705-1.43462 5.32836-4.25034 4.39692-.87921 1.76956-1.12235 3.92005-2.49158 5.56943-2.3792 3.55464-6.37511 5.3809-10.1129 6.88847-3.34931.13904-4.12859 3.97428-3.95719 6.74191-1.3738-2.7049-3.83004-6.45867-1.17253-9.08692-2.53159.67975-3.93122 3.33048-2.97247 5.86602 1.1391 3.59676-2.01111-1.21453-2.74351-2.49507-1.57387-1.34581.63506-5.15641-.73285-4.83657-1.97822 1.28945-1.86168 3.80796-2.05188 6.00907-.8786-2.62183-3.09273-6.46292-.1465-8.50066.0822-4.64673 5.64512-5.28746 9.23352-5.12972 3.18153.80696 3.9503-3.05344 6.00909-4.69008 1.64574-2.80891 4.50519-4.89508 5.86257-7.76782.52989-4.28431-5.22214-5.04919-7.03507-8.20756-1.65166-1.07826-1.06345-4.50371-3.07782-4.39692-5.29208-.1187-10.52627 1.28597-15.38915 3.07784-3.32941 1.41188-7.20815-.55421-10.406.43969 1.14083 1.76501-1.99577 5.71672-2.49154 2.19845-1.05087-1.13178-.91122 5.30017-2.63818 2.34497-2.33085-.20531.51074 2.83467-1.06161 4.22079-.26724 2.21471-3.104-2.58981-3.62839-.4101.57423 1.97073-.63675 5.92365-2.49162 2.93128-2.65527-1.58395-.95981 1.41016-1.75407 2.91734-1.58328 4.02831-1.12397.42989-2.93591-1.01203.73862 1.17863.10157 5.38015-1.3191 3.66407-2.40475-.30642-2.1801.73637-1.31909 2.49159.0392 4.06898-1.52273.83022-3.22438 1.90533 1.66627 2.17898-.51976 3.66569-2.34504 2.19845-3.48591.58688-5.35049 4.39783-5.71597 7.7679-2.36173 3.47781-6.97174 5.2191-10.99229 3.81064-1.8004 1.57147-1.63825 4.86369-4.39689 5.56942-3.17458 1.71408-1.78127-.40691-1.75878-2.63814.36795-2.69166-1.94146-2.12-3.10201-.41549-1.5649 1.31479-2.21925 5.30469-3.049 1.30879-.85529-1.76888-.004-3.79801.43504-5.29022-.70831-1.98653-2.48575 2.1181-2.76612 3.31522-.47967 1.93324-1.587-3.50907-1.19107-4.63428 1.75291-2.95298 2.57019-7.66018 6.59532-8.64729 3.71785-.185 7.52018.12494 11.2854 0 1.44762-3.68744 2.8151-7.3971 3.57165-11.24712.60831-3.30612 3.41647-5.86643 2.73057-9.41832-.0929-1.88089-3.19378 3.04471-2.19844-1.61219-.16223-1.17094-4.9675 5.06076-3.01346.96507.82384-1.54188.96808-5.09096-.48021-1.92512-1.89934 2.49914-5.18098 2.95022-8.08487 3.30502 2.2071-1.2666 5.38855-3.27402 5.12973-5.71595-1.33116 1.2458-4.26221 5.48579-4.02812 1.31563-.36442-2.45088-.99518-5.65512-1.39471-7.61787-2.66259.76376-5.36758.20153-8.06101-.2931 1.43405-.69201 3.78469-4.00781.87939-3.95723-2.68978.87333-3.46639-1.18033-5.84618-.33973-1.4419-1.47296-4.12302-.8418-6.17205-.39315.98429-3.02621-2.76534-1.86787-2.78469.29312-1.58971 1.365-1.47086 4.19777-3.95723 4.69005-1.07203.53249-5.62808 2.28475-4.39904.9307 1.88739-.78748 2.73238-5.32856.19201-4.16676-1.85499 1.44378-2.62983 3.39078-2.24174 5.72761-2.09672-2.00658-4.00856-5.15594-2.19848-7.91441-1.99371.87206-3.38305 2.48567-4.39689 4.39688-.67143-3.30812-1.93472-7.48762.7328-10.11285-2.42321.75446-2.88128 3.98159-3.81064 6.15566-.0235-3.37324-1.53641-8.42346 2.0519-10.406 2.15483-.82433 2.935-3.72979 5.27627-4.69004 3.1751-2.62398 7.92962-2.0132 11.13888.29313 1.92239.7938 3.75257.94017 5.86257.73284 4.34062-.21358 8.89362.22571 12.89755 2.05188.27704-1.42391 3.81906-3.85293 1.02594-3.95724-3.2111-.65328.53316-2.61913.87936-4.39692 1.53394-2.52701-.31152-5.14201.2931-7.76785.80541-2.69433 4.36099-3.01308 5.71601-5.27628.93638-2.50424-2.29871-.33856-3.51753-.4397-2.05216 1.23057-5.31232-.85098-3.37097-3.07782.0654-2.19281-1.40005-5.89592-4.10378-4.69004-3.80672.38636-8.53359-.45988-9.6732-4.69004-.64766-2.19996 1.11979-5.86041 3.66408-3.81066 2.41478 1.49486 3.9084 4.60836 7.18165 3.81066 2.04061-.12031 4.01745-.54552 6.00908-1.02598-1.52399-1.49886-3.35856-3.12282-5.56942-1.90529-3.4064.82758-5.64658-2.71858-4.69003-5.71598-.0686-1.90424.17596-5.66777 3.07784-4.54346 2.54013-.28607-2.71009-1.19547-2.49159-2.78475.52097-2.84871 4.52937-1.91023 6.44881-3.37094 3.71973-1.67668 6.51124-5.98278 11.13888-5.42286 2.30119-2.22813 6.01849-2.16036 9.08692-2.34504-.48092-2.39306.45804-4.86651 1.75878-6.88847 1.32383 1.25663 2.48371 5.17448 4.25034 4.10379 1.94922-1.4111-1.93038-2.94595 1.61223-3.37098 2.76067-.7477 4.72698 2.08688 4.83656 4.54347 1.89395-.0897 3.83134 1.24334 3.95724 3.22443 2.42254-2.72431 6.40074-2.07341 9.38005-.73285-.78922.84473-2.31811 5.51716-.58625 3.07785 1.22569-1.8874 5.88919-1.33837 4.69004 1.31909-.54083 3.46753 1.67535-.78892 3.50358.72817 2.98425-.13784-.78762 1.91636.6002 3.37559 1.86184 1.19351 1.95047 4.05963 4.39692 4.83659 1.97395.81466 4.4528 1.46843 1.61219 3.37098-2.17854 1.27964-3.20208 1.47709-.58625 3.22439 2.7928 2.57262.14469 7.38142 3.95723 9.2335 1.27908 1.44931 4.99329 1.08544 2.19845 3.22443-1.68476 1.28601-2.87482 1.78837-1.61687 4.08982.13321 1.61244 3.84559 3.33832 2.11573 4.18913-1.73763.6319-3.83473 1.55472-5.48203.36835-1.70248 3.05952 2.21455 4.81103 4.693 4.91036 12.64876-2.16399 25.4279-4.92423 38.09927-7.65736 6.27707-1.5334 13.33227-.32484 18.08887 4.34642 3.30749 2.93876 8.62521.1588 8.67795-4.09137.93078-5.12783-4.72012-8.24141-9.19826-7.72421-10.39467-1.00349-20.87074-.91716-31.19473-2.53488-6.14281-1.29052-11.59495-6.04948-12.39937-12.45827-1.37125-6.73993 1.78284-14.69192 8.73525-16.85444 6.84325-2.7604 14.6632-2.16592 21.25178 1.02594 4.52765.75429 8.56885-1.73472 12.60444-3.37094 4.57395-1.55955 9.61575.53598 12.16479 4.54349 2.59515-1.60276 5.84594-.82234 8.50068.2931-2.16689.99271-4.84414 1.8031-6.15571 3.81063 1.62369 1.8111 3.35257 3.77503-.29309 3.51754-2.13578.45001-4.60084.74576-6.00907 2.63818-6.153.0588-13.06705-.13482-17.88079-4.39692-3.64473.12857-6.93447-1.54477-10.25944-2.63816-5.11993-.7828-12.55864-.49196-14.36327 5.42284-1.47541 3.81617-.52614 8.59718 3.37098 10.55259 7.71578 3.79255 16.69669 2.75731 25.06231 3.37098 7.89295.51568 16.9252.80384 23.01043 6.59537 4.49843 4.39607 4.03377 11.83101.0647 16.41261-2.02278 2.45656-4.4901 4.5508-7.24619 6.15814 1.86678 5.10993 5.66162 10.25483 3.66408 15.82883-.0635 2.72183-3.64683 3.94821-3.07783 6.74192-.26998 3.93701-1.86474 8.05826-5.27629 10.25945 3.24944 1.62128 1.70943 2.0439-.24882 3.74434-.83623 1.21535 3.19767.98354 3.84674 2.66027 3.10192 2.13629-1.0421.94891-2.2787 2.09609.83861.3221 3.05997 5.58458-.14651 4.39688-2.97344-.15598-.49554 2.67533-1.46569 4.25033-.93062 3.09449-4.09921 5.53168-4.10376 9.08696-.67654 3.70269-3.19872 8.42652-7.63036 7.47472-2.07651-.54083-3.66898 2.14774-6.00003 1.90533z" stroke-width="1.036773"/><g transform="matrix(1.0367731 0 0 1.0367731 -33.095753 -11.031899)"><g fill="#ce1126"><path d="m968.491 292.296c14.1365-8.34054 12.8642-20.7807 1.13093-25.0216-8.76465-2.82731-17.3879-2.12048-26.1526-2.82731-11.7333-.42409-16.5397-3.11003-17.9534-7.91645-.8482-10.461 5.79596-12.8642 16.1156-11.4506 2.68593 1.55502 5.6546 2.40322 9.04736 2.54458 2.96867 2.68594 7.77509 4.38232 16.6811 4.09958 1.83774-2.12047 4.80642-2.26183 7.49236-2.68593-.70682-.84819-1.27229-1.69638-1.97911-2.54457.56545-1.27228 2.26184-2.40321 4.94778-3.6755-3.11004-1.13092-4.94778-.42409-6.64416.56546-3.67551-5.6546-8.76465-6.64416-15.4088-2.68593-2.8273 1.13091-5.65461 1.69638-8.34055 1.41365-4.80641-2.54458-9.61283-3.11003-14.4192-2.54458-9.89556 1.41366-14.4192 6.5028-13.8538 15.2674.56546 7.91645 5.51324 12.5815 14.9847 13.8538 9.61283.56546 19.2257 1.27229 28.8385 1.97911 12.8642 1.41365 6.64416 18.9429-2.54458 12.1574-5.51324-5.08914-10.8851-4.80642-16.3984-3.95822-6.92689 1.55502-13.8538 2.96867-20.7807 4.52369-5.23052.98955-10.461 1.97911-15.8329 2.96867-5.37188-.56547-7.20962-2.68594-5.23051-6.36144.98955 1.13092 2.82729 1.13092 5.23051 0-2.40322-2.40321-3.2514-4.80641-2.68595-7.20962.8482 1.41365 1.83775-.28273 2.68595-1.41366-2.82731-.84818-4.52369-2.54457-5.23051-4.94778.42409-4.09958-1.27229-6.64416-5.23051-7.77507 2.54457-.14137 4.38231-1.13093 5.51324-2.68595-2.68595-1.13092-5.08915-2.26184-5.51324-4.80641-1.83776-1.27229-2.26185-2.68593-1.13093-4.09959-2.54457-.84819-3.53412.14137-3.11003 2.96866-.98956-1.83774-1.41365-3.67549-.98956-5.51323-2.26184-1.55502-3.95822 0-5.37187 2.8273-.4241-1.83774-.14137-3.67549.84819-5.51325-4.80642-2.12047-6.9269-.28273-8.90601 2.12049.70683-2.96867-.42409-4.38233-3.53413-4.38233-.56545-3.81685-2.26184-5.2305-4.94778-3.81685 1.27229 1.13091.70682 2.4032-1.69638 3.53413-.98956-1.41366-1.97911-2.82731-3.11003-4.0996-1.27229 1.97912-1.27229 3.95823-.98955 6.07871-4.94778 0-8.05782.70683-9.18874 2.12047-2.12048 0-4.24096.4241-6.36144 2.26185-1.41365 1.41365-3.11003 2.4032-5.08914 3.39276-1.55502.4241-3.11004.84819-4.66505 1.27229-1.13093.98955-.14137 1.69638 2.96867 3.11004.56545.84818-.70684 1.555-2.40322 1.13091-1.41364-.56546-1.555 1.69638-1.69638 3.81687-.28273 2.96866.14138 5.51323 4.66505 4.8064 3.2514-1.69638 4.24096 3.39278 7.63373 2.40322-5.08915 1.41365-9.89557 2.54456-12.5815 1.13092-4.66505-5.23052-6.07869-4.24096-6.07869-.56547.84818 3.11004 2.96866 5.37189 10.8851 4.24096 1.97911 1.83775 2.82731 3.81686 2.40321 5.79597-.98956 1.41365-.56546 2.12048 1.69638 2.12048 1.41366-.28274 2.8273-.70683 4.09959-.98956 1.13092 0 1.41365.8482.56547 2.68594-1.27229.98955-2.54458 1.83775-3.81687 2.8273-2.12047.8482-1.69638 3.39276-.84819 6.07871-.4241 2.54457-1.41365 4.52368-2.8273 6.0787 1.13092.70682 2.12047.84819 3.11003.56546-1.13092 1.69638-2.26185 3.39276-3.39276 4.94778-5.23051-2.40321-10.6024-2.26184-15.9743-1.83775-.98956-.42409-1.83774-.84818-2.8273-1.13092-5.37188-3.39277-9.47146-1.41366-13.0056 2.68594-1.13091 1.55502-1.13091 2.96867 0 4.52369.14138 1.97911.28274 4.09958 4.0996 4.66505.28273 1.83774.98956 3.39276 5.08914 1.97911.28273 1.69638 1.55502 2.26184 3.81686 1.69638 1.27229-1.13092 2.12048-2.40321 2.54457-3.95823 2.40321-.42409 3.39277 0 2.96868 1.41365 2.96867-.56545 4.66505-.28273 5.37187.56547 1.55502-.56547 2.54458-.4241 2.68594.56546 4.24095-.56546 4.09958.14136 4.80642.56545.42409 1.13093 0 2.12049-1.41366 3.2514 2.54457.56547 4.80642.70684 6.92689-.28272.56546 3.11003 1.13093 6.0787 1.69639 9.18873 1.13092-.98956 2.4032-2.12048 3.53412-4.09959.4241 3.39276-.56545 5.23051-2.54456 6.36143 3.11002-.42409 4.94778-2.68594 6.22006-5.93734.28272 1.97912.56546 3.81687 0 5.37189 1.13092-.98956 1.69638-2.12049 1.55501-3.39277.70683 1.27228 1.13093 2.68593 1.13093 3.95822 1.55501-1.27229 1.27229-2.4032 1.41365-3.67549.56546 2.68593 1.13091 5.37188.28273 8.05782-1.83775 3.11003-2.68594 6.07869-3.11004 8.906-.84818 2.54458-1.83774 5.08914-2.68594 7.77508h-8.906c-3.53413-.70683-5.51324 1.41366-6.64416 4.66506-1.13093 1.55501-.56546 2.54456 1.97911 2.82729 0 .70683.14136 1.27229.56547 1.55502.42409 1.83776 2.26184 1.69638 4.09958 1.41365 2.4032 1.69638 4.38232 1.41366 6.07871-.84818 4.24095 1.27229 7.63371.14136 10.3196-3.2514.70682-3.53413 1.69638-5.65461 2.96867-6.07871 1.69638-2.26184 3.39276-1.97911 5.08915-1.13092.42409-.70682.28272-1.27228-.56546-1.97911.98955-1.69638 1.97911-1.83775 2.96866-.56546.70683-1.55502.14136-2.68594-1.13092-3.53413 1.97911-1.13092 3.2514-1.27229 3.95822-.56546.56546-.98955.4241-2.54457-.28272-4.52368 1.27228.42409 2.4032 1.13091 2.68594 2.82729.98955-1.55501.98955-2.96867 0-4.09958 1.41364-.70683 2.82729-.28273 4.24095.98955.70683-1.41364.70683-2.96866 0-4.38231 1.55501.14136 2.96867.28273 3.81685 1.41365.8482-1.83776.28274-3.11003-.56545-4.24096 2.12047-.28273 3.11003-.28273 3.11003 0 1.13092-1.41365 0-1.97911-.56546-2.68594 1.97911-.28273 3.11004.28274 3.39277 1.41365 1.41365-1.55502 1.27227-2.54457-.56547-3.39276 1.69638-.14137 3.39276-.14137 5.23052-.28273 3.95822.8482 6.07869.28273 8.0578-.56546 4.52369-1.69638 9.33011-2.8273 14.9847-2.40321.56546 2.82731 2.12047 5.23051 4.94778 7.20963 4.66504 2.68593 5.23051 5.51324 1.97911 8.48191-2.68594 3.2514-5.23051 6.5028-7.77509 9.75419-6.5028-.4241-10.0369.70683-10.6024 3.2514-.4241 1.55502.42409 2.40321 2.54457 2.54457-.14137 2.54458 3.95823 3.39276 5.23051 1.13092.56546 1.55502 1.41365 2.96868 3.39276 2.54457 1.27229.70683 2.26185 0 3.2514-.84818 3.81686-.98956 6.9269-3.6755 9.18874-8.62328-.14137-2.12048.70682-2.8273 2.68594-2.26184 1.69638-1.13092 1.83775-3.2514 1.97911-5.23051 1.69638.56545 3.11003 1.13092 3.95822 1.69638 1.27229-1.69638.70683-2.82731 0-3.95822 1.97911-.56547 2.82731-.28273 3.53413 0 0-1.83775-.14137-3.81687-.28273-5.79598 5.65461-.70682 9.89556 1.27229 9.18874 12.4401 0 3.81686-3.53413 3.95822-7.49236 3.67549-2.82729-.56546-5.6546-.70682-7.49235 1.41365-.14136 1.27229-.14136 2.54457 1.69638 3.81686 0 2.54458.14137 2.40321 2.40321 3.67549 1.13092 2.68594 1.41365 2.26185 4.24096 2.68594 2.54456-.14136 3.95822-1.13092 5.23051-2.12047 7.20962 1.97911 7.63372-5.08915 8.906-9.7542.98956-1.55501 1.97912-3.11003 2.96867-4.66505.42409-1.41365.70683-2.82731-.28273-4.24096 1.13092-1.13091 2.26184-1.55502 3.39276-1.13091.42409-2.26185-.84818-2.96867-2.54458-3.2514 1.27229-1.13093 2.68595-1.69638 3.95823-1.69638-1.55501-1.69638-3.39276-2.26185-5.2305-1.97911.84818-1.55502 1.69638-2.96867 2.96867-3.2514-.98956-1.13093-1.97912-1.41366-3.2514-1.13093 5.23051-2.68594 6.64416-7.20963 6.64416-12.4401 2.8273-2.68593 4.09958-6.22005 2.96866-11.1678-1.27228-2.96868-2.54457-5.93735-3.81686-8.76465z"/><path d="m942.48 356.475c-.84818 2.12049-.70682 4.0996.56547 5.79598.14136-1.27229 1.41364-2.54458 3.39276-3.81687-1.97912.14138-3.39276-.56546-3.95823-1.97911z"/><path d="m939.229 353.083c-1.83774.56545-2.26184 2.40321-1.69638 5.37187.42409-1.41364 1.55502-2.54457 3.53413-3.11002-1.69638-.28274-2.4032-.98956-1.83775-2.26185z"/><path d="m937.532 348.7c-1.97911.70684-1.97911 3.11004-1.69638 5.65462.42409-1.41366 1.13092-2.82731 2.68594-3.53413-.84819-.56547-1.13092-1.27229-.98956-2.12049z"/><path d="m916.469 354.638c-1.27228.98956-1.13091 2.8273.4241 5.51323 0-1.83774.84819-3.2514 2.26184-4.09958-1.13092-.14137-2.12047-.42409-2.68594-1.41365z"/><path d="m910.956 353.365c-.70682 1.41365-.14136 3.2514 1.55502 5.23052-.42409-1.41366 0-2.82731 1.27229-4.38233-.98956.28273-1.83775 0-2.82731-.84819z"/><path d="m907.987 350.679c-1.13091.84819-1.13091 2.40321-.42409 4.52368.14136-1.13091.70682-2.4032 2.12047-3.53413-.56545-.14136-1.13091 0-1.69638-.98955z"/><path d="m847.483 359.161c.42411 1.27229.56547 2.54457 0 4.09959 2.12049-.4241 3.2514-1.83775 3.81687-3.81686-1.27229.42409-2.54458.56546-3.81687-.28273z"/><path d="m842.394 357.182c-.98955 1.27228-1.13092 2.96866-.14137 5.08915.42411-1.13093 1.41366-2.26185 2.82731-3.39277-1.41365 0-2.4032-.4241-2.68594-1.69638z"/><path d="m839.142 354.355c-.98955.56545-.84819 2.26184-.28273 4.24096.42409-1.6964 1.27229-2.68595 2.26185-3.39278-.56547-.14136-1.27229-.28273-1.97912-.84818z"/><path d="m820.482 313.076c.98956 1.13093.14137 2.4032-.84818 3.53413 2.96866-.70682 4.52367-1.69638 4.8064-2.96867-1.27228.42409-2.54457.28273-3.95822-.56546z"/><path d="m815.11 310.956c-1.41366 1.69638-1.13093 3.67549.56546 5.79596 0-1.27229.84819-2.68594 2.54457-4.24096-1.41365 0-2.54457-.42409-3.11003-1.555z"/><path d="m810.869 306.432c.56547 1.55502 1.27229 2.96867 3.39276 3.81685-1.83774.8482-3.11003 1.97911-3.95822 3.2514-.70683-3.39276-.84819-5.93734.56546-7.06825z"/><path d="m809.738 301.767c-2.12047.56545-2.54456 3.11003-2.26183 6.50279.56545-1.83774 1.69638-2.96867 3.11003-3.53412-.70682-.98956-.8482-1.97911-.8482-2.96867z"/></g><g><path d="m869.394 263.033c2.12047 2.96867 3.39276 5.93734 3.81686 8.90601 0-4.24096-1.27229-7.20963-3.81686-8.90601z"/><path d="m877.876 253.986c3.2514 3.11004 5.93734 6.07871 7.63372 9.04737-1.41365-4.66504-4.24096-7.35098-7.63372-9.04737z"/><path d="m873.635 259.216c3.53414 4.52369 5.79597 9.61283 5.93734 15.5502 1.13092-8.19918-1.83775-12.4401-5.93734-15.5502z"/><path d="m871.656 262.044c3.67549 4.52369 5.37187 9.47147 4.38232 14.8433 1.55502-7.35099 0-12.2988-4.38232-14.8433z"/><path d="m855.921 245.997c-.66814.0485-1.10027.25224-1.81594.49079-.98957 4.09959 4.70741 4.52535 6.96925 2.40488.46385-.41969.73385-.78626.88342-1.07975.034-.072.0806-.18032.0982-.24538.008-.0383.046-.11136.0491-.14724.001-.0352-.0452-.11436-.0491-.14724-.002-.0108.002-.0386 0-.0491-.012-.041-.0293-.10992-.0491-.14724-.0108-.0182-.0362-.0809-.0491-.0982-.007-.008-.0418-.0408-.0491-.0491-.007-.008-.0409-.0413-.0491-.0491-.0344-.0305-.10644-.0707-.14724-.0982-.0108-.007-.0382-.0426-.0491-.0491-.0338-.019-.11028-.0317-.14724-.0491-.85852-.38182-2.46221-.4157-3.2883-.4908-1.11324-.18554-1.78707-.234-2.30673-.19631zm.19632.49079c1.11636-.097 2.66497.0905 4.31896.44171-1.48142.52124-4.38738 1.06564-5.20239 1.47237-.0252.0137-.0779.0356-.0982.0491-.2982-.29819-.49986-.55778-.58895-.78527-.0131-.0372-.0413-.11184-.0491-.14722-.004-.0232.001-.0758 0-.0982-.00061-.022-.001-.077 0-.0982.002-.0206-.005-.0782 0-.0982.008-.0292.0354-.0708.0491-.0982.01-.0179.037-.0811.0491-.0982.006-.008.042-.0409.0491-.0491.0604-.0635.15524-.14526.24539-.19631.0352-.0186.10824-.0323.14724-.0491.2687-.10872.66264-.20919 1.07975-.2454zm5.34962.83435c-.14135 1.41364-1.54451 2.13598-5.6441 1.57053 2.12048-.56546 4.08908-1.00508 5.6441-1.57053z"/><path d="m943.187 355.203c.4241-1.41364 1.27228-2.26184 2.96866-1.83774 4.52369.70683 6.9269-.4241 7.351-3.39277-.98956 2.26185-3.2514 3.67549-7.91645 2.82731-2.68593-.42409-2.68593.98956-2.40321 2.4032z"/><path d="m940.501 351.104c.14137-1.69638 1.69638-1.97911 3.95822-1.69638 3.95823.56545 6.5028-.28273 8.05782-1.55502-.70682 1.55502-2.12048 2.8273-7.77508 1.97911-1.83774-.14137-3.2514.14136-4.24096 1.27229z"/><path d="m916.61 352.093c.28272-1.13093 1.555-1.55502 3.53412-1.13093 2.96866 0 4.24095-1.55501 5.08915-3.67549-.8482 2.12048-2.40322 3.53413-5.65461 3.2514-1.97911-.8482-3.11004-.28274-2.96866 1.55502z"/><path d="m920.145 346.297c-.14136 1.13093-.56546 1.97911-3.11003 1.69638-2.82731.4241-5.08915 1.27229-5.79598 3.2514.14137-2.68594 1.55502-3.67549 3.95823-3.2514 2.26184-.14136 3.81686-.70682 4.94778-1.69638z"/><path d="m853.137 356.758c-.56545-2.4032.70683-3.39276 2.82731-3.67549-2.26185-.14137-4.24096.14136-2.82731 3.67549z"/><path d="m842.252 354.779c.56547-1.69638 1.55502-2.82731 3.11004-3.39276 3.11003-.98955 6.78552-.98955 10.461-.56546-3.95823-.98956-7.49236-1.13093-10.6024-.14137-1.69638.56546-2.68594 1.97911-2.96867 4.09959z"/><path d="m856.106 352.234c-3.11003-.14136-6.22006-.14136-8.19917 1.27228-2.26185.14136-2.12049 1.97912-1.55502 4.24096 0-1.83775.14136-3.53413 1.83774-3.67549 1.69639-1.27229 4.66506-1.69638 7.91645-1.83775z"/><path d="m946.58 245.221c4.80641-.56547 8.4819-2.40322 11.8747-4.66506-2.82731 3.11004-6.5028 4.94779-11.8747 4.66506z"/><path d="m961.282 243.383c-2.8273-.28273 4.94778 1.83776 4.94778 1.83776-.56546-1.13093-2.26184-1.41366-4.94778-1.83776z"/><path d="m954.779 248.614c4.52367 1.41364 8.906 2.12047 13.4297.56546-4.09959 2.26184-8.4819 2.4032-13.4297-.56546z"/><path d="m958.313 244.09c5.08915 2.12048 10.1783 2.96867 14.8434.4241-4.66506 4.52368-9.7542 3.25139-14.8434-.4241z"/><path d="m955.769 243.807c5.08914-2.54457 9.89556-2.68594 14.4192.84819-4.24095-4.38231-9.04737-5.23051-14.4192-.84819z"/><path d="m953.648 245.362c5.37188 2.68593 11.4506 3.53413 18.0947 2.12048-6.5028 2.26183-12.5815 1.41365-18.0947-2.12048z"/><path d="m899.223 318.024c-.70684 2.96867-1.97911 3.81686-3.2514 4.38231 2.54456.14138 4.09958-.84818 3.2514-4.38231z"/><path d="m937.532 316.328c-5.37187 3.95822-11.1678 4.52369-17.1052 3.81686 7.77509 1.97911 13.7124 1.27228 17.1052-3.81686z"/><path d="m941.208 308.977c-2.68593 7.06826-2.96866 13.9952 2.12049 20.6393-6.5028-5.79597-5.93734-12.8642-2.12049-20.6393z"/><path d="m865.295 237.446c.98956 2.4032.56547 4.66505-.42409 7.06826 1.83775-2.96868 2.4032-5.51324.42409-7.06826z"/><path d="m843.525 257.661c3.39277 1.41365 5.23051 1.41365 5.6546 0-.28272 1.69638-.98955 2.96867-5.6546 0z"/><path d="m846.776 263.599c3.95822.84818 8.19918 1.69638 6.36143 3.11003 3.81686-1.55502.28273-2.40321-6.36143-3.11003z"/><path d="m811.717 304.312c3.2514-3.53412 7.20962-4.52367 11.592-3.95822-5.37189-1.83774-9.33011-.56545-11.592 3.95822z"/><path d="m815.676 308.553c2.40321-3.67549 5.93734-5.37187 9.75419-6.0787-4.66505-.14137-8.34054.98956-9.75419 6.0787z"/><path d="m820.058 310.956c1.41365-3.2514 4.09958-5.08916 7.77507-5.65462-4.09958-1.13092-6.50278 1.13093-7.77507 5.65462z"/><path d="m856.106 280.421c-3.6755 4.52369-6.36143 9.3301-8.76464 14.2779.84819-5.51325 2.40321-10.8851 8.76464-14.2779z"/><path d="m862.892 272.505c-1.13092 2.68594-1.55502 5.23051 0 7.91645-1.97911-2.68594-1.55502-5.23051 0-7.91645z"/><path d="m859.64 274.342c0 1.41366-.70683 2.68594-2.12047 4.0996 2.26184-1.55502 2.96866-2.96867 2.12047-4.0996z"/><path d="m855.823 273.777c.42409 1.55501.70682 3.11003-.14138 4.66505 1.83776-1.55502 1.13093-3.11004.14138-4.66505z"/><path d="m853.279 273.353c.42409 1.83775.14136 3.67549-.70682 5.37188 1.97911-1.69639 2.12047-3.53413.70682-5.37188z"/><path d="m848.897 261.761c-5.08915-1.97912-7.49235-1.69638-7.06826.56546-.98956-3.11004.42409-4.24096 7.06826-.56546z"/><path d="m844.373 253.844c2.4032.84818 3.67549 1.83775 4.94778 3.11003-.4241-2.54457-2.12049-3.53412-4.94778-3.11003z"/><path d="m843.383 269.819c4.38232-.56547 8.76463-1.83776 13.0056-3.67551-4.09959 2.40322-8.4819 3.81687-13.0056 3.67551z"/><path d="m853.562 260.488c6.78552 3.11004 10.0369 7.06826 5.37187 12.8642 7.06827-6.36143 4.24096-10.461-5.37187-12.8642z"/><path d="m880.28 244.514c1.55502-.98955 3.6755-1.69639 6.22007-1.83775-3.2514-1.13093-5.23051-.42409-6.22007 1.83775z"/><path d="m874.06 249.038c1.27228 2.68593 3.81686 3.53413 7.77508 2.26184-4.09959 2.68594-6.78553 1.97911-7.77508-2.26184z"/><path d="m881.835 250.027c-2.40321-2.54456-4.94778-3.81685-7.77508-1.69638 3.11004-3.67549 5.51324-1.41364 7.77508 1.69638z"/><path d="m872.222 247.483c3.53412-3.39277 7.63371-2.96867 12.016 1.27228-4.24096-4.66505-8.19918-6.36143-12.016-1.27228z"/><path d="m874.342 240.273c-.70683 2.12047-2.12047 4.38231-5.23051 6.50278 4.52368-1.97911 5.6546-4.09958 5.23051-6.50278z"/><path d="m871.232 237.022c-.98957 2.68593-2.82731 5.37187-5.51324 8.0578 4.8064-2.4032 7.06825-5.08914 5.51324-8.0578z"/><path d="m890.741 254.41c2.54457-2.54457 5.37187-.84819 8.34054 1.41365-3.81685-4.80642-6.64416-5.23051-8.34054-1.41365z"/><path d="m890.741 247.766c-2.12049 2.40322-3.39276 4.80642-3.81687 7.06826-1.13091-2.54457.14138-4.80642 3.81687-7.06826z"/><path d="m890.034 246.352c-3.39277 2.54458-5.65461 4.94778-6.92689 7.35099.14136-3.53412 2.54457-5.93734 6.92689-7.35099z"/><path d="m890.034 257.52c3.53412.70682 6.9269.14137 10.461-.84818-.98956 1.69638-10.6024 2.96866-10.461.84818z"/><path d="m891.872 259.499c5.37189 2.54458 8.19918 6.5028 8.48192 12.1574-.14136-7.91645-2.96867-12.016-8.48192-12.1574z"/><path d="m895.264 265.86c1.69638 4.66506 4.52367 9.33011 9.61282 13.5711-6.78553-3.2514-9.61282-7.91644-9.61282-13.5711z"/><path d="m882.117 270.95c3.11002 4.09959 4.66504 8.48191 5.6546 13.147.28273-7.06826-1.27229-11.7333-5.6546-13.147z"/><path d="m881.552 267.274c2.68594.84818 4.66505 2.8273 5.65461 6.22007 0-4.80642-1.83774-6.92689-5.65461-6.22007z"/><path d="m883.814 255.823c4.8064 4.24096 8.34054 8.76464 10.1783 13.571-1.55502-8.62327-5.23051-12.2988-10.1783-13.571z"/><path d="m875.473 257.52c6.36144 4.24096 11.1678 8.48191 14.5606 12.8642-2.54457-4.80641-7.35099-9.04737-14.5606-12.8642z"/><path d="m864.164 272.646c4.94778 4.0996 7.91644 9.61283 7.91644 17.1052 1.69638-9.3301-1.55502-14.5606-7.91644-17.1052z"/><path d="m894.557 308.27c2.40322 4.94779 2.54458 9.7542-2.4032 14.4192 7.20962-4.09959 6.64416-9.04737 2.4032-14.4192z"/><path d="m859.216 314.773c.56546 2.68593-.98956 4.09959-2.96867 5.51324 2.68593-.98955 4.52369-2.4032 2.96867-5.51324z"/><path d="m843.525 301.484c-.56545 2.68593-.14136 5.51324 2.26184 8.19918-3.81686-1.83775-3.95822-4.80642-2.26184-8.19918z"/><path d="m849.745 302.191c-1.55502 3.95823-1.97911 7.91645-1.69638 11.8747-1.13092-4.94778-.98956-9.04736 1.69638-11.8747z"/><path d="m858.651 300.919c-3.2514 6.07871-5.6546 12.016-5.51324 18.0947-1.27228-7.91644 1.27229-13.571 5.51324-18.0947z"/><path d="m859.923 312.794c1.83775 4.38232 3.53413 8.76464 9.61283 9.18873.28273-3.11003-1.27229-6.22007-3.2514-9.33009 3.2514 2.54457 5.79597 5.51324 5.08915 11.5919-7.63372.28273-10.6024-4.52369-11.4506-11.4506z"/><path d="m868.688 306.715c.84819 3.67549 1.97912 7.20962 5.37188 10.461-5.37188-3.53413-5.51325-6.9269-5.37188-10.461z"/><path d="m861.054 285.934c-.98956 7.20962-4.0996 12.5815-8.62329 16.8225 5.79598-2.96867 9.33011-7.91645 8.62329-16.8225z"/><path d="m856.813 281.693c-.56546 3.39276-2.26184 6.92689-5.37188 10.461-1.83774 1.97911-1.83774 5.79598 0 11.4506-.28273-4.38232-.42409-8.48191 1.83775-10.7437 3.53413-4.66506 4.66505-8.34056 3.53413-11.1678z"/><path d="m861.761 281.835c1.55501 5.51324 2.68594 11.3092.42409 17.6706-1.41364 4.09958-1.41364 8.34054 1.97912 13.2883-4.52369-4.09959-4.80642-8.34054-3.2514-12.8642 2.12048-5.93734 1.97911-12.016.84819-18.0947z"/><path d="m874.342 296.678c-.70683 3.67549-2.12047 7.63371-.28273 11.7333-.4241-3.95822 2.54457-6.92689 5.23051-9.7542-1.83775 4.52369-3.81687 8.906-5.65461 13.2883-2.68593-4.66506-1.83775-9.89556.70683-15.2674z"/><path d="m864.871 281.835c12.7229 12.7229 1.13093 17.5293-.14136 30.1108-2.68594-11.1678 10.0369-15.4088.14136-30.1108z"/><path d="m869.536 269.253c4.80642 7.35099 6.22007 15.8329 4.09959 25.4457 4.24096-12.016 1.13092-19.367-4.09959-25.4457z"/><path d="m892.013 270.95c4.09958 4.94778 6.50278 10.0369 6.64416 14.9847 1.13091-5.65461-1.83776-10.6024-6.64416-14.9847z"/><path d="m889.186 272.08c1.83775 7.49235 4.80642 13.5711 9.7542 15.9743-5.65461-1.27229-8.48191-7.49236-9.7542-15.9743z"/><path d="m888.337 274.908c1.55501 6.5028 2.12048 12.8642-.14137 19.367 4.80642-6.5028 3.39276-12.8642.14137-19.367z"/><path d="m876.604 276.887c2.12047 3.39276 3.39276 6.78553 3.81685 10.1783.8482-3.67549-.42409-7.06826-3.81685-10.1783z"/><path d="m876.321 287.913c3.39276 5.37187 5.37187 11.1678 6.0787 16.9638.84819-7.06825-1.27228-12.8642-6.0787-16.9638z"/><path d="m879.431 275.897c6.36144 9.7542 9.18873 19.5084 3.6755 29.404 6.50279-10.461 6.36143-20.3566-3.6755-29.404z"/></g></g></svg>