<svg enable-background="new 0 0 4000 2400" height="2400" viewBox="0 0 4000 2400" width="4000" xmlns="http://www.w3.org/2000/svg"><path d="m0 0h4000v2400h-4000z" fill="#7f017f"/><circle cx="2518.3711" cy="1169.316" fill="#3cf" r="774.07703"/><g fill="#063"><path d="m1926.094 1219.09c0-94.309 28.271-164.387 36.406-224.59 20-148 28-172 71.589-189.39-15.589 47.39 30.411 79.39 41.411 158.39 12.263 57.538 59.902 92.151 65 125 9 58 42 78 54 117-70.5-2-80-1-80-1s22.666 209.333 47.333 244c13.334 22-49.333 46-49.333 46s-48.667-138-68-284c-39.667-12-118.406 8.59-118.406 8.59z"/><path d="m2336.5 780.5s-70 70-86 388c40-2 64 18 64 18l32 292 66-2-28-280c62-26 66-100 66-100l-60-184z"/><path d="m2557.562 767.612c-20.999 26.999-97.496 299.985-83.996 344.983s50.998 64.497 52.498 77.996 8.999 275.986 8.999 275.986l53.998 40.498-13.5-335.983c56.997-46.497-17.999-403.48-17.999-403.48z"/><path d="m2730.053 1160.593-80.996 10.5s76.496-361.482 119.994-362.982 20.999 257.987 77.996 355.482l-61.497 7.5-40.497 316.484-61.497 4.5z"/><path d="m3010.54 851.608c6.552-39.312-214.04 317.892-91.495 368.982l-31.499 305.984 52.498 31.499 50.997-311.984c155.992-7.5-10.499-259.487 19.499-394.481z"/></g><path d="m3127.5 1613.5c-94 0-210-110-242-110s-50 22-74 22c-22 0-31-59.666-89.666-59.666-29.333-1.333-69.333 34-103.333 35.333s-50.667-60.667-156-58.667c-74.666.666-130.148 23.846-166.152 23.846s-69.007-9.001-114.011-21.002-87.009 87.009-114.012 108.011c-22.521 17.517-155.654 32.945-199.224 37.585 138.057 212.162 377.275 352.455 649.269 352.455 259.638 0 489.411-127.835 629.836-323.991-5.768-3.816-12.618-5.904-20.707-5.904z" fill="#996800"/><path d="m0 0h999.99994v599.99999h-999.99994z" fill="#bf0a30"/><path d="m0 54.545434v54.545446h999.99994v-54.545446zm0 109.090926v54.54545h999.99994v-54.54545zm0 109.0909v54.54545h999.99994v-54.54545zm0 109.09091v54.54545h999.99994v-54.54545zm0 109.0909v54.54543h999.99994v-54.54543z" fill="#fff"/><path d="m0 0h272.72726v272.72726h-272.72726z" fill="#002868"/><g fill="#fff" transform="matrix(81.818178 0 0 81.818178 136.36363 136.36362)"><g><path d="m.5 1-.5-1v1z" transform="matrix(.95105652 .30901699 -.30901699 .95105652 0 -1)"/><path d="m0 1h.5l-.5-1z" transform="matrix(-.95105652 .30901699 .30901699 .95105652 0 -1)"/></g><g transform="matrix(.30901699 .95105652 -.95105652 .30901699 0 0)"><path d="m0 1h.5l-.5-1z" transform="matrix(.95105652 .30901699 -.30901699 .95105652 0 -1)"/><path d="m0 1h.5l-.5-1z" transform="matrix(-.95105652 .30901699 .30901699 .95105652 0 -1)"/></g><g transform="matrix(.30901699 -.95105652 .95105652 .30901699 0 0)"><path d="m0 1h.5l-.5-1z" transform="matrix(.95105652 .30901699 -.30901699 .95105652 0 -1)"/><path d="m0 1h.5l-.5-1z" transform="matrix(-.95105652 .30901699 .30901699 .95105652 0 -1)"/></g><g transform="matrix(-.80901699 .58778525 -.58778525 -.80901699 0 0)"><path d="m0 1h.5l-.5-1z" transform="matrix(.95105652 .30901699 -.30901699 .95105652 0 -1)"/><path d="m0 1h.5l-.5-1z" transform="matrix(-.95105652 .30901699 .30901699 .95105652 0 -1)"/></g><g transform="matrix(-.80901699 -.58778525 .58778525 -.80901699 0 0)"><path d="m0 1h.5l-.5-1z" transform="matrix(.95105652 .30901699 -.30901699 .95105652 0 -1)"/><path d="m0 1h.5l-.5-1z" transform="matrix(-.95105652 .30901699 .30901699 .95105652 0 -1)"/></g></g></svg>