<svg enable-background="new 0 0 4000 2400" height="2400" viewBox="0 0 4000 2400" width="4000" xmlns="http://www.w3.org/2000/svg"><g transform="matrix(-1 0 0 1 4000 0)"><path d="m4000 0h-4000v2400h4000z" fill="#f90"/><path d="m4000 0h-1000v600h1000z" fill="#bf0a30"/><path d="m4000 54.545455v54.545455h-1000v-54.545455zm0 109.090925v54.54546h-1000v-54.54546zm0 109.09091v54.54546h-1000v-54.54546zm0 109.09091v54.54546h-1000v-54.54546zm0 109.09091v54.54544h-1000v-54.54544z" fill="#fff"/><path d="m4000 0h-272.7273v272.72729h272.7273z" fill="#002868"/><g fill="#fff" transform="matrix(-81.818182 0 0 81.818182 3863.6364 136.36364)"><g><path d="m0 1h.5l-.5-1z" transform="matrix(.95105652 .30901699 -.30901699 .95105652 0 -1)"/><path d="m0 0v1h.5z" transform="matrix(-.95105652 .30901699 .30901699 .95105652 0 -1)"/></g><g transform="matrix(.30901699 .95105652 -.95105652 .30901699 0 0)"><path d="m0 0v1h.5z" transform="matrix(.95105652 .30901699 -.30901699 .95105652 0 -1)"/><path d="m0 0v1h.5z" transform="matrix(-.95105652 .30901699 .30901699 .95105652 0 -1)"/></g><g transform="matrix(.30901699 -.95105652 .95105652 .30901699 0 0)"><path d="m0 0v1h.5z" transform="matrix(.95105652 .30901699 -.30901699 .95105652 0 -1)"/><path d="m0 0v1h.5z" transform="matrix(-.95105652 .30901699 .30901699 .95105652 0 -1)"/></g><g transform="matrix(-.80901699 .58778525 -.58778525 -.80901699 0 0)"><path d="m0 0v1h.5z" transform="matrix(.95105652 .30901699 -.30901699 .95105652 0 -1)"/><path d="m0 0v1h.5z" transform="matrix(-.95105652 .30901699 .30901699 .95105652 0 -1)"/></g><g transform="matrix(-.80901699 -.58778525 .58778525 -.80901699 0 0)"><path d="m0 0v1h.5z" transform="matrix(.95105652 .30901699 -.30901699 .95105652 0 -1)"/><path d="m0 0v1h.5z" transform="matrix(-.95105652 .30901699 .30901699 .95105652 0 -1)"/></g></g><path d="m4000 1683.361s-36.75-32.333-53.382-38.73-76.765-88.28-121.545-85.722-44.78 23.029-85.722-7.677-202.149-189.354-236.694-188.075-112.59 83.162-180.399 79.324-247.258-167.02-353.314-227.623c-125.975-71.985-227.955-224.013-338.849-224.013-129.058 0-823.941 538.87-1049.13 537.359-190.63-1.279-458.024-227.401-542.477-225.179-97.236 2.559-311.938 211.378-468.271 205.987-111.311-3.838-177.841-66.53-312.181-124.104-114.707-49.161-232.158-97.45-258.036-107.471v1122.563h4000z" fill="#f36"/><path d="m587.965 960.5c-56 0-182-109-182-133 0-18 49-61 49-61v-325s-54-42-54-63h414c0 25-54 63-54 63v325s49 43 49 61c0 24-126 133-182 133z" fill="#fff" stroke="#000" stroke-miterlimit="10" stroke-width="5"/><path d="m543.6875 535.28125c-11.08459-.15938-21.98843.18972-30.15625.59375-4.08391.20201-7.50011.43206-9.875.59375-1.18744.0808-2.11267.13931-2.75.1875-.31867.0241-.55288.0494-.71875.0625-.1244.01-.1548-.003-.1875 0-.0109.00089-.0625 0-.0625 0-8.06035.41487-15.25827 3.01202-20.8125 8-5.55661 4.99012-9.38069 12.28257-11.0625 21.75v.0625c-.93198 5.28122.90898 9.98914 4.28125 13.4375s8.11205 5.90053 13.4375 7.90625c10.6509 4.01144 23.82489 6.14164 33.3125 8.25.0656.0146 1.07656.58584 2.1875 2.28125s2.36874 4.29283 3.65625 7.59375c2.57501 6.60184 5.28924 16.02021 8.0625 27.3125 5.54651 22.58459 11.2797 52.68837 16.75 83.375s10.67699 61.96881 15.1875 87.09375c2.25526 12.56247 4.35936 23.57241 6.21875 32.21875s3.4011 14.80117 4.96875 18.25c11.15475 24.54046 39.34375 42.71875 39.34375 42.71875l3.25 2.125.59375-3.84375c.24601-1.59917.0391-3.34642-.28125-6.1875-.32036-2.84108-.82593-6.54487-1.53125-11-1.41063-8.91026-3.54233-20.85555-6.15625-34.84375-5.22783-27.97641-12.4108-64.12509-19.6875-100.375s-14.65921-72.59383-20.28125-100.9375c-2.81102-14.17184-5.17427-26.35107-6.875-35.5s-2.74175-15.52431-2.84375-17.15625c-.21148-3.38363 1.33408-6.14658 4.25-9.0625s7.11566-5.73912 11.34375-8.625 8.52226-5.83399 11.625-9.53125 4.94262-8.447 3.6875-13.78125c-.72831-3.09505-3.20755-5.26501-6.28125-6.84375s-6.92766-2.69531-11.375-3.5625c-8.89468-1.73438-20.13416-2.40312-31.21875-2.5625z"/><path d="m666.78125 412.625c-7.80689.26758-16.02609 1.91362-23.875 4.09375-10.46521 2.90684-20.27547 6.83207-27.5 10.03125-3.61226 1.59959-6.56018 3.00933-8.625 4.03125-1.03241.51096-1.85382.93347-2.40625 1.21875-.27621.14264-.48052.23648-.625.3125-.0645.0339-.0558.0424-.0937.0625-7.55459 2.20392-15.58977 6.00698-21.84375 11.8125-6.34917 5.89388-10.81542 13.97901-10.4375 23.96875.41718 11.01112 7.22378 17.67053 15.84375 21.5s19.2175 5.45122 28.71875 7.5625c-.0236-.005 1.02726.62807 2.1875 2.46875s2.48063 4.65356 3.84375 8.21875c2.72624 7.13038 5.66442 17.28643 8.6875 29.46875 6.04615 24.36464 12.45962 56.82469 18.59375 89.875s11.99193 66.69955 17 93.59375c2.50403 13.4471 4.77725 25.21567 6.78125 34.375s3.64098 15.56034 5.21875 19.03125c5.63209 12.38997 16.91653 23.63982 26.78125 31.96875s18.40625 13.6875 18.40625 13.6875l3.21875 2.03125.59375-3.75c.25485-1.65662.0101-3.47009-.34375-6.46875-.35389-2.99866-.91981-6.90366-1.6875-11.65625-1.53538-9.50518-3.8282-22.30118-6.65625-37.3125-5.65611-30.02263-13.43323-68.89497-21.28125-107.875s-15.79307-78.07672-21.84375-108.46875c-3.02534-15.19601-5.58038-28.22159-7.40625-37.96875-1.68731-9.00747-2.58091-14.53401-2.8125-16.71875 13.89473-7.89946 24.44679-19.22307 30.46875-30.90625 6.24989-12.1254 7.8455-24.72634 2.6875-33.9375-5.02658-8.97567-13.99665-13.06303-23.9375-14.03125-2.48521-.24206-5.05395-.30794-7.65625-.21875z"/></g></svg>