<svg height="2400" viewBox="0 0 733.33332 440" width="4000" xmlns="http://www.w3.org/2000/svg" xmlns:xlink="http://www.w3.org/1999/xlink"><path d="m-.00000667 0h733.33332667v440h-733.33332667z" fill="#fcbe04"/><path d="m618.52437 401.3254.8917-18.65039-3.6504-7.69264-4.6794-7.69265-1.5137-6.6503c-30.2898-52.01192-5.3472-44.67955 11.8043-51.12703 31.269-11.75444 48.8077 6.39788 26.4172 54.58006l-2.4277 4.85073-4.9386 4.82355-2.5998 7.25575.5046 18.85714.5046 18.85714-10.6022.61952-10.6022.6195.8917-18.65038zm12.539-34.38435 6.4166-.91667 2.4049-2.81143c1.1201-1.5893 1.561-3.24571 1.6587-5.11722-6.4166-4.58333-23.0859-20.28029-25.8359-20.28029l-.7474 15.67816c1.3633 3.96824.9166 4.60213 1.8046 7.09297l1.308 3.40843c.7193 1.87463 2.0399 3.40843 2.9346 3.40843s2.8618.23135 3.9038-.39623c-6.9646-2.25879-4.8586-13.49361 2.3998-13.40197 6.7854.0857 10.1967 8.857 3.7523 13.33582z" fill="#b73524"/><path d="m592.74197 369.55046-4.1905-1.74892-4.3795.9917-4.3795.99168-3.0047-4.85741c-1.6525-2.67158-4.7687-10.23126-6.9248-16.79929l-3.9202-11.94189 1.3148-11.10573 1.3149-11.10574 3.5804-2.61905c1.9693-1.44048 5.1428-2.61905 7.0523-2.61905h3.4718l3.9849-8.84259 3.9849-8.84258 5.4626-5.59022c3.0045-3.07464 7.5962-6.73204 10.2038-8.12757l4.7411-2.53734 18.5932 1.17543 18.5932 1.17545 4.203 2.24939 4.2031 2.24938v3.94068 3.9407l8.6506 6.85147 8.6507 6.8515 3.1128 7.46742c1.7121 4.10711 4.7531 9.8246 6.758 12.70555l3.6451 5.23809 1.2668 9.6139 1.2668 9.61392-4.7677 6.95805-4.7678 6.95803-8.5687 2.53007-8.5687 2.53004-2.7978-1.72912-2.7977-1.72909-4.7317 1.18758-4.7317 1.18758v-3.47405c0-1.91073 1.4108-6.2023 3.1352-9.53681l3.1352-6.06276-2.1456-1.32602-2.1456-1.32603c-3.1177 4.55504-5.9141 9.30009-8.7014 14.05892l-8.3956-4.59699c-2.9858-1.63486-9.2533-1.60036-12.3044-.53868l-5.4222 1.88673c-1.5933-3.49699-3.1867-6.99399-4.78-10.49098h-2.3816-2.3816l2.9184 11.37909 1.8894 8.19851-6.1498 5.42054c-1.9586 1.72636-4.9545 2.17368-5.8946 2.09268-.94-.0809-3.5948-.93427-5.8996-1.89617z" fill="#1b611f"/><path d="m-.00000667 0h183.33332667v110h-183.33332667z" fill="#bf0a30"/><path d="m-.00000667 10v10h183.33333667v-10zm0 20.000003v10h183.33333667v-10zm0 20v10h183.33333667v-10zm0 20v10h183.33333667v-10zm0 20v9.999997h183.33333667v-9.999997z" fill="#fff"/><path d="m-.00000667 0h49.99999967v50.000003h-49.99999967z" fill="#002868"/><g fill="#fff" transform="matrix(15 0 0 15 24.999993 25)"><path d="m0 1h.5l-.5-1z" transform="matrix(.95105652 .30901699 -.30901699 .95105652 0 -1)"/><path d="m0 0v1h.5z" transform="matrix(-.95105652 .30901699 .30901699 .95105652 0 -1)"/><path d="m0 0v1h.5z" transform="matrix(0 1.00000000434 -1.00000000434 0 .95105652 -.30901699)"/><path d="m0 0v1h.5z" transform="matrix(-.58778524626 -.80901700413 -.80901700413 .58778524626 .95105652 -.30901699)"/><path d="m0 0v1h.5z" transform="matrix(.58778524626 -.80901700413 .80901700413 .58778524626 -.95105652 -.30901699)"/><path d="m0 0v1h.5z" transform="matrix(0 1.00000000434 1.00000000434 0 -.95105652 -.30901699)"/><path d="m0 0v1h.5z" transform="matrix(-.95105651185 .30901699926 -.30901699926 -.95105651185 .58778525 .80901699)"/><path d="m0 0v1h.5z" transform="matrix(.58778525441 -.80901698948 -.80901698948 -.58778525441 .58778525 .80901699)"/><path d="m0 0v1h.5z" transform="matrix(-.58778525441 -.80901698948 .80901698948 -.58778525441 -.58778525 .80901699)"/><path d="m0 0v1h.5z" transform="matrix(.95105651185 .30901699926 .30901699926 -.95105651185 -.58778525 .80901699)"/></g><path id="a" d="m366.66666 304.33333-69.66667-88 34.83334-31.16667h34.83333z" fill="#fcfdfa" stroke="#000" stroke-width="1.833333"/><path id="b" d="m366.66666 304.33333-34.83332-88 17.41666-31.16667h17.41666z" fill="#fcfdfa" stroke="#000" stroke-width="1.833333"/><use height="440" transform="matrix(-1 0 0 1 733.33332 .000007)" width="733.33331" xlink:href="#a"/><use height="440" transform="matrix(-1 0 0 1 733.33332 .000007)" width="733.33331" xlink:href="#b"/><path d="m1620 1180h760" fill="none" stroke="#000" stroke-width="10" transform="matrix(.18333333 0 0 .18333333 -.000007 0)"/><path d="m2000 960v-80" fill="none" stroke="#000" stroke-width="10" transform="matrix(.18333333 0 0 .18333333 -.000007 0)"/><path id="c" d="m338.24999 176.91667-3.79602-14.16691" fill="none" stroke="#000" stroke-width="1.833333"/><path id="d" d="m316.24999 182.41667-7.33334-12.70171" fill="none" stroke="#000" stroke-width="1.833333"/><path id="e" d="m295.16666 198-10.37091-10.3709" fill="none" stroke="#000" stroke-width="1.833333"/><g transform="matrix(-1 0 0 1 733.3333 0)"><use height="440" width="733.33331" xlink:href="#c"/><use height="440" width="733.33331" xlink:href="#d"/><use height="440" width="733.33331" xlink:href="#e"/></g></svg>