<svg height="2400" viewBox="0 0 733.33329 440.00001" width="3999.9998" xmlns="http://www.w3.org/2000/svg"><path d="m-.00000762 0h733.33332762v440h-733.33332762z" fill="#002868"/><path d="m-.00000762 0h183.33332762v110h-183.33332762z" fill="#bf0a30"/><path d="m-.00000762 10v10h183.33332762v-10zm0 20v10h183.33332762v-10zm0 20v10h183.33332762v-10zm0 20v10h183.33332762v-10zm0 20v10h183.33332762v-10z" fill="#fff"/><path d="m-.00000762 0h50.00000062v50h-50.00000062z" fill="#002868"/><g fill="#fff" transform="matrix(15 0 0 15 24.999993 25)"><g><path d="m0 0v1h.5z" transform="matrix(.95105652 .30901699 -.30901699 .95105652 0 -1)"/><path d="m.5 1-.5-1v1z" transform="matrix(-.95105652 .30901699 .30901699 .95105652 0 -1)"/></g><g transform="matrix(.30901699 .95105652 -.95105652 .30901699 0 0)"><path d="m.5 1-.5-1v1z" transform="matrix(.95105652 .30901699 -.30901699 .95105652 0 -1)"/><path d="m.5 1-.5-1v1z" transform="matrix(-.95105652 .30901699 .30901699 .95105652 0 -1)"/></g><g transform="matrix(.30901699 -.95105652 .95105652 .30901699 0 0)"><path d="m.5 1-.5-1v1z" transform="matrix(.95105652 .30901699 -.30901699 .95105652 0 -1)"/><path d="m.5 1-.5-1v1z" transform="matrix(-.95105652 .30901699 .30901699 .95105652 0 -1)"/></g><g transform="matrix(-.80901699 .58778525 -.58778525 -.80901699 0 0)"><path d="m.5 1-.5-1v1z" transform="matrix(.95105652 .30901699 -.30901699 .95105652 0 -1)"/><path d="m.5 1-.5-1v1z" transform="matrix(-.95105652 .30901699 .30901699 .95105652 0 -1)"/></g><g transform="matrix(-.80901699 -.58778525 .58778525 -.80901699 0 0)"><path d="m.5 1-.5-1v1z" transform="matrix(.95105652 .30901699 -.30901699 .95105652 0 -1)"/><path d="m.5 1-.5-1v1z" transform="matrix(-.95105652 .30901699 .30901699 .95105652 0 -1)"/></g></g><path d="m733.33333 366.66666v-146.48332h-366.66666v146.48332z" fill="#fff"/><g fill="#bf0a30"><path d="m733.33333 330v-36.66666h-366.66667v36.66666z"/><path d="m733.33333 256.66666v-36.66666h-366.66667v36.66666z"/></g></svg>