<svg enable-background="new 0 0 4000 2400" height="2400" viewBox="0 0 4000 2400" width="4000" xmlns="http://www.w3.org/2000/svg"><g transform="matrix(-1 0 0 1 4000 0)"><path d="m4000 0h-4000v2400h4000z" fill="#fff"/><g fill="#063"><path d="m4000 0h-201v2400h201z"/><path d="m3400 0h-201v2400h201z"/><path d="m0 0h201v2400h-201z"/></g><path d="m3800 0h-200v2400h200z" fill="#fad115"/><path d="m3200 0h-200v2400h200z" fill="#fad115"/><path d="m4000 0h-1000v600h1000z" fill="#bf0a30"/><path d="m4000 54.545455v54.545455h-1000.1v-54.545455zm0 109.090925v54.54546h-1000.1v-54.54546zm0 109.09091v54.54546h-1000.1v-54.54546zm0 109.09091v54.54546h-1000.1v-54.54546zm0 109.09091v54.54544h-1000.1v-54.54544z" fill="#fff"/><path d="m4000 0h-272.7273v272.72729h272.7273z" fill="#002868"/><g fill="#fff" transform="matrix(-81.818182 0 0 81.818182 3863.6364 136.36364)"><g><path d="m0 1h.5l-.5-1z" transform="matrix(.95105652 .30901699 -.30901699 .95105652 0 -1)"/><path d="m0 0v1h.5z" transform="matrix(-.95105652 .30901699 .30901699 .95105652 0 -1)"/></g><g transform="matrix(.30901699 .95105652 -.95105652 .30901699 0 0)"><path d="m0 0v1h.5z" transform="matrix(.95105652 .30901699 -.30901699 .95105652 0 -1)"/><path d="m0 0v1h.5z" transform="matrix(-.95105652 .30901699 .30901699 .95105652 0 -1)"/></g><g transform="matrix(.30901699 -.95105652 .95105652 .30901699 0 0)"><path d="m0 0v1h.5z" transform="matrix(.95105652 .30901699 -.30901699 .95105652 0 -1)"/><path d="m0 0v1h.5z" transform="matrix(-.95105652 .30901699 .30901699 .95105652 0 -1)"/></g><g transform="matrix(-.80901699 .58778525 -.58778525 -.80901699 0 0)"><path d="m0 0v1h.5z" transform="matrix(.95105652 .30901699 -.30901699 .95105652 0 -1)"/><path d="m0 0v1h.5z" transform="matrix(-.95105652 .30901699 .30901699 .95105652 0 -1)"/></g><g transform="matrix(-.80901699 -.58778525 .58778525 -.80901699 0 0)"><path d="m0 0v1h.5z" transform="matrix(.95105652 .30901699 -.30901699 .95105652 0 -1)"/><path d="m0 0v1h.5z" transform="matrix(-.95105652 .30901699 .30901699 .95105652 0 -1)"/></g></g><path d="m200 0h200v2400h-200z" fill="#fad115"/><path d="m600 0h201v2400h-201z" fill="#063"/><path d="m800 0h200v2400h-200z" fill="#fad115"/></g><g><path d="m1957.187 1922.8-7-1233.3s30.603-196.374 126.598-149.876l10.208 1383.176z" fill="#996800"/><g fill="#063"><path d="m1586.187 535.5s213-162 396 76l36.403-66.046c-146.999-229-465.403-192.954-432.403-9.954z"/><path d="m2071.169 537.157 6.233 85.331c161-126 303.785-88.988 412.785 6.012-39.999-245-239.017-191.343-419.018-91.343z"/><path d="m2062.188 844.5c-10-239 371.424-253.59 406 62-57-92-249-187-406-62z"/><path d="m2052.188 1076.5c32-190 415.316-175.792 385 165-102-105-188.668-216.333-385-165z"/><path d="m1509.813 793.111c56.997-127.494 287.985-296.224 463.477-164.611v58.859c-207.981-96.74-308.985 80.253-463.477 105.752z"/><path d="m1583.739 1055.598c8.57-316.484 295.055-340.193 398.55-149.098-137.992-51.893-241.487-41.393-398.55 149.098z"/><path d="m1593.809 1322.584s25.499-124.493 110.994-203.989c61.497-103.495 262.292-143.993 311.887-49.498-124.396-1.5-181.394 91.495-181.394 91.495-62.109 5.408-241.487 161.992-241.487 161.992z"/><path d="m1595.187 2019.5s-13.001-95.026 397-111c385-15 435 111 435 111z"/></g></g></svg>