<svg height="2400" width="4000" xmlns="http://www.w3.org/2000/svg"><path d="m0 0h4000v2400h-4000z" fill="#bf0a30"/><path d="m0 0h4000v1200h-4000z" fill="#063"/><g transform="scale(.90909091)"><path d="m0 0h1100v660h-1100z" fill="#bf0a30"/><path d="m0 90h1100m-1100 120h1100m-1100 120h1100m-1100 120h1100m-1100 120h1100" stroke="#fff" stroke-width="60"/><path d="m0 0h300v300h-300z" fill="#002868"/><path d="m150 60 52.900673 162.811529-138.495759-100.623058h171.190172l-138.495759 100.623058z" fill="#fff"/></g><g fill="#fff"><path d="m3163.208 1464.778c-97.997 204.341-306.805 345.438-548.568 345.438-241.884 0-450.78-141.24-548.715-345.746l-2.421-8.896 1105.046-1.535z"/><path d="m3222.682 1202.174c0 93.649-20.475 186.904-56.848 259.788l-1100.857.521c-37.436-78.909-58.38-167.163-58.38-260.309z" fill="#063"/><path d="m3222.682 1202.174h-1216.085c0-335.813 272.23-608.042 608.042-608.042 335.814 0 608.043 272.229 608.043 608.042z" fill="#002868"/><path d="m2938.5 1258.5c-12-12-95.573-302.816-119-377-24-76-102-156-208-156h-1c-106 0-184 80-208 156-23.427 74.184-109.5 367.5-119 377z" fill="#9e6218"/><path d="m2594.5 1031.5h33v268h-33z" fill="#063"/><circle cx="2611" cy="1006" fill="#063" r="103.5"/><path d="m2488.204 869.752c-42.025 35.722-32.045 76.171-18.912 89.304 13.133 13.132 40.209 25.444 40.209 25.444s19.678-28.597 36.487-45.407c16.81-16.81 54.513-34.593 54.513-34.593s-11.436-28.445-20.892-37.901c-9.456-9.455-53.481-29.084-91.405 3.153z"/><path d="m2471.512 1125.355c34.822 42.774 75.475 33.654 88.883 20.803 13.408-12.852 25.105-41.658 25.105-41.658s-26.986-18.283-43.437-35.445c-16.449-17.163-32.563-51.555-32.563-51.555s-29.346 12.747-39 22c-9.653 9.253-30.414 47.255 1.012 85.855z"/><path d="m2752.055 883.55c-36.942-40.958-76.172-32.045-89.306-18.912-13.132 13.133-30.249 40.862-30.249 40.862s33.402 19.025 50.213 35.835c16.81 16.81 30.787 57.165 30.787 57.165s32.251-14.088 41.706-23.544 38.294-45.456-3.151-91.406z"/><path d="m2752.469 1124.901c36.664-41.208 21.166-79.881 6.338-91.064s-42.307-20.337-42.307-20.337-16.563 31.769-30.878 50.749c-14.314 18.98-47.122 41.251-47.122 41.251s13.209 27.155 23.886 35.207c10.677 8.051 56.999 21.382 90.083-15.806z"/></g></svg>