<svg enable-background="new 0 0 4000 2400" height="2400" viewBox="0 0 4000 2400" width="4000" xmlns="http://www.w3.org/2000/svg" xmlns:xlink="http://www.w3.org/1999/xlink"><clipPath id="a"><path d="m0 800h4000v800h-4000z"/></clipPath><path d="m0 0h4000v2400h-4000z" fill="#fad115"/><path d="m0 0h1000v600h-1000z" fill="#bf0a30"/><path d="m0 54.545v54.545h1000v-54.545zm0 109.091v54.545h1000v-54.545zm0 109.092v54.545h1000v-54.545zm0 109.09v54.545h1000v-54.545zm0 109.091v54.545h1000v-54.545z" fill="#fff"/><path d="m0 0h272.727v272.728h-272.727z" fill="#002868"/><g fill="#fff" transform="matrix(15 0 0 15 24.999993 25)"><path d="m7.424 1.97-1.685 5.187 2.593.843z"/><path d="m6.516 8 .908-6.03 1.686 5.187z"/><g transform="matrix(.30901699 .95105652 -.95105652 .30901699 0 0)"><path d="m10.263-4.191-.908-6.03-1.685 5.187z"/><path d="m8.447-4.191.908-6.03 1.686 5.187z"/></g><g transform="matrix(.30901699 -.95105652 .95105652 .30901699 0 0)"><path d="m-3.858 9.931-.909-6.03-1.685 5.187z"/><path d="m-5.675 9.931.908-6.03 1.686 5.187z"/></g><g transform="matrix(-.80901699 .58778525 -.58778525 -.80901699 0 0)"><path d="m-.734-9.794-.908-6.031-1.686 5.188z"/><path d="m-2.551-9.794.909-6.031 1.685 5.188z"/></g><g transform="matrix(-.80901699 -.58778525 .58778525 -.80901699 0 0)"><path d="m-9.462-1.067-.908-6.03-1.686 5.188z"/><path d="m-11.278-1.067.908-6.03 1.685 5.188z"/></g></g><path d="m0 800h4000v800h-4000z" fill="#6ae"/><path clip-path="url(#a)" d="m2925.098 1613.497s-130.876-139.798-163.594-166.567-306.365-104.104-377.751-118.977-220.106-57.463-321.237-78.284c0 0-297.442-25.821-380.726-34.744s-229.03 11.896-359.905 23.795-166.568 17.847-255.8 20.821-292.092-53.693-348.007-73.335c-53.912-18.938-145.539-53.54-217.132-53.54-73.558 0-309.34 58.463-353.956 67.386s-95.182 32.72-146.99 32.719v380.726z" fill="#090"/><path clip-path="url(#a)" d="m2925.098 1613.497s-130.876-139.798-163.594-166.567-306.365-104.104-377.751-118.977-220.106-57.463-321.237-78.284c0 0-297.442-25.821-380.726-34.744s-229.03 11.896-359.905 23.795-166.568 17.847-255.8 20.821-291.494-55.488-348.007-73.335c-56.514-17.846-123.018-52.54-217.132-52.54-101.025 0-309.34 57.463-353.956 66.386s-95.182 32.72-146.99 32.719" fill="none" stroke="#000" stroke-miterlimit="10" stroke-width="7"/><g fill="#fff"><path d="m2268.738 1020.803-262.154 108.062 3.477 7.344 271.283-90.283c-.001 0 4.738-13.256-12.606-25.123z"/><path d="m2306.903 1071.485-287.627 91.457.087 10.431 294.843-76.329s2.193-15.297-7.303-25.559z"/><path d="m2033.578 1201.019 277.889-56.508s13.988 11.69 2.175 25.559l-277.499 38.903z"/><path d="m2073.219 1228.101 272.935-30.82s8.216 18.432.913 23.908l-272.935 13.604z"/><path d="m2274.041 1247.921 52.031-2.738s5.478 8.867 0 18.908l-52.031-10.041z"/><path d="m2039.445 1272.306 3.651-7.302 145.139 65.723s4.564 18.257-11.866 25.56z"/><path d="m2094.43 1274.593 7.651-5.302 169.308 49.743s4.564 18.257-11.866 25.56z"/><path d="m2181.107 1263.004.216-7.867 142.924 20.82s6.39 20.995-6.39 22.821z"/><path d="m1810.5 1201.5-53 279s-4 21 125 21 109-21 109-21l-47-279z" stroke="#563823" stroke-linejoin="round" stroke-miterlimit="10" stroke-width="10"/></g><path d="m1838.334 1368.5h76v56h-76z" fill="none" stroke="#563823" stroke-miterlimit="10" stroke-width="10"/><path d="m1845.334 1286.5h62v48h-62z" fill="none" stroke="#563823" stroke-miterlimit="10" stroke-width="10"/><path d="m1852.834 1207.5h47v34h-47z" fill="none" stroke="#563823" stroke-miterlimit="10" stroke-width="10"/><path d="m1875.174 1157.202c-25.02 0-40.912-1.994-49.081-3.421l42.353-66.259 56.538 65.129c-8.927 1.899-25.707 4.551-49.81 4.551z" fill="#fff"/><path d="m1869.057 1095.852 46.413 53.465c-9.346 1.475-22.847 2.885-40.295 2.885-18.404 0-31.81-1.107-40.706-2.239zm-1.22-16.66-49.842 77.976s17.262 5.034 57.18 5.034c38.839 0 58.912-6.694 58.912-6.694z" fill="#563823"/><path d="m1725.297 1150.269-.045-15.363-141.32-74.315s-1.449-17.515 13.86-20.066l151.685 97.759c7.479 15.03-3.402 40.823-14.458 50.178l-186.107-44.823s-5.252-11.262 4.954-19.767l169.341 53.987 2.045-17.386-162.881-61.06s-3.701-14.262 8.206-18.515z" fill="#fff"/><path d="m1552.185 1178.901 64.804 10.281-66.231-.01c0 .001-7.136-8.843 1.427-10.271z" fill="#fff"/><path d="m1557.206 1290.046 169.618-50.164 5.97 3.646-161.488 63.587c.001 0-25.715.355-14.1-17.069z" fill="#fff"/><path d="m1558.529 1262.976 134.935-42.493-12.97-1.646-133.581 25.585c0-.001-16.261 14.746 11.616 18.554z" fill="#fff"/><path d="m1176.543 1519.934s8.629-28.764 27.326-46.022 57.529-83.419 67.597-117.936 21.573-67.597 27.326-128.002 11.506-176.902 11.506-176.902l40.271 20.135s2.876 70.474 2.876 93.485 2.877 198.476 10.068 228.678 57.529 116.495 63.282 120.811-15.82 8.63-15.82 8.63v10.067s-21.573-11.506-35.956-10.067-31.641 25.888-40.271 27.326-31.641-28.765-37.394-28.765-18.697-4.314-25.888 1.438-8.629 17.259-20.135 17.259-14.383-21.573-28.765-21.573-51.776 23.011-46.023 1.438z" fill="#725214" stroke="#291a06" stroke-miterlimit="10" stroke-width="7"/><path d="m1132.5 943.114c14-16 40-10 57-17s65-64 84-67 61 11 79 8 46.895-39.511 69-35c49 10 92 89 99 113 0 0 7 20 10 25-7 10-26-3-19 11 4.025 8.05-12 23-12 23s-44-49-67-52-30 3-30 3 53 46 62 75c9.265 29.853 3 90-7 83s-25-89-68-86c-7 21-2 53 2 79s27.165 54.652 29 73c2 20-6 44-19 60-20-64-42-109-54-122s-23 3-29 0c-7.211-3.605-21-58-38-60s7.909 94.546-15 106c-6 3-38-94-36-117s-11.152 37.297-13 53c-2 17-7 61-7 61-9-53-14-70-7-117 3.83-25.716-43 114-28 136s-35-14-40-57-2-65 6-76-30 18-27 1 7-61 22-61c-16-1-32 10-23-9 10.022-21.156 20-34 20-34z" fill="#090"/><path d="m1402.5 952.5c19.696 22.545 53 46 62 75 9.265 29.853 3 90-7 83s-25-89-68-86c-7 21-2 53 2 79s27.165 54.652 29 73c2 20-6 44-19 60-20-64-42-109-54-122s-23 3-29 0c-7.211-3.605-21-58-38-60s7.909 94.546-15 106c-6 3-38-94-36-117s-11.152 37.297-13 53c-2 17-7 61-7 61-9-53-14-70-7-117 3.83-25.716-43 114-28 136s-35-14-40-57-2-65 6-76-30 18-27 1 7-61 22-61c-16-1-32 10-23-9 10.021-21.156 20-34 20-34s-8.266 18.862-3.038 26.704 22.652 11.326 22.652 11.326-16.554 26.137-11.326 34.849 21.781 6.099 21.781 6.099-28.75 67.085-23.523 88.866 20.038 37.463 20.038 37.463 20.91-108.904 41.819-120.23 10.455 39.206 10.455 39.206 13.069-44.433 23.523-52.274 11.326 87.123 21.781 106.29-5.228-62.728 6.97-73.183 10.455-16.553 13.94-15.682 32.236 57.501 43.562 63.6 28.75-2.613 35.72 7.841 36.591 77.54 40.077 96.707 13.069 2.613 13.94-14.811-29.622-69.698-31.364-87.123-6.099-79.282 4.356-83.638 53.145 23.523 61.857 33.107-37.463-75.799-43.22-93.117z" fill="#21492a"/><path d="m1132.5 943.114c14-16 40-10 57-17s65-64 84-67 61 11 79 8 46.895-39.511 69-35c49 10 92 89 99 113 0 0 7 20 10 25-7 10-26-3-19 11 4.025 8.05-12 23-12 23s-44-49-67-52-30 3-30 3 53 46 62 75c9.265 29.853 3 90-7 83s-25-89-68-86c-7 21-2 53 2 79s27.165 54.652 29 73c2 20-6 44-19 60-20-64-42-109-54-122s-23 3-29 0c-7.211-3.605-21-58-38-60s7.909 94.546-15 106c-6 3-38-94-36-117s-11.152 37.297-13 53c-2 17-7 61-7 61-9-53-14-70-7-117 3.83-25.716-43 114-28 136s-35-14-40-57-2-65 6-76-30 18-27 1 7-61 22-61c-16-1-32 10-23-9 10.022-21.156 20-34 20-34z" fill="none" stroke="#000" stroke-linejoin="round" stroke-miterlimit="10" stroke-width="10"/></svg>