<svg enable-background="new 0 0 4000 2400" height="2400" viewBox="0 0 4000 2400" width="4000" xmlns="http://www.w3.org/2000/svg"><path d="m0 0h4000v2400h-4000z" fill="#002868"/><path d="m0 0h1000v600h-1000z" fill="#bf0a30"/><path d="m0 54.545v54.545h1000v-54.545zm0 109.091v54.545h1000v-54.545zm0 109.092v54.545h1000v-54.545zm0 109.09v54.545h1000v-54.545zm0 109.091v54.545h1000v-54.545z" fill="#fff"/><path d="m0 0h272.727v272.728h-272.727z" fill="#002868"/><g fill="#fff" transform="matrix(15 0 0 15 24.999993 25)"><path d="m7.424 1.97-1.685 5.187 2.593.843z"/><path d="m6.516 8 .908-6.03 1.686 5.187z"/><g transform="matrix(.30901699 .95105652 -.95105652 .30901699 0 0)"><path d="m10.263-4.191-.908-6.03-1.685 5.187z"/><path d="m8.447-4.191.908-6.03 1.686 5.187z"/></g><g transform="matrix(.30901699 -.95105652 .95105652 .30901699 0 0)"><path d="m-3.858 9.931-.909-6.03-1.685 5.187z"/><path d="m-5.675 9.931.908-6.03 1.686 5.187z"/></g><g transform="matrix(-.80901699 .58778525 -.58778525 -.80901699 0 0)"><path d="m-.734-9.794-.908-6.031-1.686 5.188z"/><path d="m-2.551-9.794.909-6.031 1.685 5.188z"/></g><g transform="matrix(-.80901699 -.58778525 .58778525 -.80901699 0 0)"><path d="m-9.462-1.067-.908-6.03-1.686 5.188z"/><path d="m-11.278-1.067.908-6.03 1.685 5.188z"/></g></g><path d="m4000 0v2400h-4000z" fill="#bf0a30"/><path d="m2000 644.651c-307.663 0-555.349 247.686-555.349 555.35 0 307.663 247.686 555.349 555.349 555.349 307.665 0 555.35-247.686 555.35-555.349 0-307.665-247.685-555.35-555.35-555.35z" fill="#7fc6f2"/><path d="m1527.834 1404.674 167.336 2.942.511-5.097 224.945-1.241 11.672 5.924 308.295 1.653 14.448-7.306 176.461-3.091s29.831-12.188 18.645-17.159-62.851 2.2-86.851-21.8c-18.687-18.687-60-88-60-88s-6-25 16.307-47.063c18.789-18.583 39.805-32.318 39.805-32.318s-13.673-53.449-54.692-33.561-53.449 42.263-53.449 62.15-16.159 99.439-31.075 113.113c-16.391 15.025-52.207 12.916-73.338 16.646-20.846 3.68-31.075 3.243-51.72-7.944l-.486-68.365 23.649-.158v-14.5l-72.5-74-85.5 74.5v15.5l21 .5.994 65.28-91.497 2.486s-50.963-32.318-49.72-70.852-1.757-103.169-1.757-103.169l11.701-77.066 3.729-82.039 26.104-69.608s-21.131-39.777-12.43-68.366-49.72-21.131-49.72-21.131 6.214 65.879 1.243 90.739-27.346 89.497-27.346 89.497 1.243 24.86-3.729 38.533-45.547 62.669-50.519 80.072 11.815 25.112 20.872 42.578c11.688 22.542 17.532 43.413 19.202 62.615 0 0-1.669 64.284-20.629 71.038-17.392-20.521-93.888-44.52-171.535-30.075-21.131 11.188-48.437 36.658-55.935 62.15-6.22 21.133-2.491 45.993-2.491 45.993z" fill="#630"/><g fill="#090"><path d="m1573.907 1303.087s71.997-61.497 139.493-59.997c61.5 1.367 61.497 13.499 61.497 13.499s3 77.996-22.499 79.496-115.495-32.998-178.491-32.998z"/><path d="m1635.404 1118.596c10.499-3 19.499 0 28.499-7.5s6.5-29.999 21.499-29.999c0 0 71.496 0 78.996-4.5s19.5-7.5 26.999-13.5 25.499-4.5 32.998 4.5 19.499 9 26.999 9 16.499 16.5 22.499 13.5 12-10.5 23.999-10.5 67.497 6 86.996-1.5c0 0 29.999-19.499 38.998-7.5s-3 41.998-23.999 43.498-56.997 26.999-71.996 37.498-45.051 28.451-67.497 29.999c-43.498 3-59.431-26.208-97.835-15.354-10.019 3.339-19.16 7.854-37.159 7.854s-50.998 0-65.997-9-40.498-18-35.998-32.999 1.5-10.497 11.999-13.497z"/><path d="m1593.295 990.5c-7.486 2.994-27 15-24 25s38 15 45 23 39 17 70 16 99-6 109-7 53.076.105 68-6c22-9 104-7 122-9s48-15 57-19 1-20-18-30c-9.5-5-28.25-9.75-44.875-19.25s-31.125-23.75-40.125-27.75c0 0-25-15-44-14 0 0-19 7-26 17s-19 13-35 2-10-20-10-20-18 15-34 13-17-14-37-14-18 14-37 14-37-11-60-13-62-6-59 3 6 22 13 30 5 28-15 36z"/><path d="m1681.901 848.609c-3.254 14.642 32.998 31.499 44.998 38.998s44.998 10.5 59.997 10.5 35.733 1.393 35.066-4.607c-.524-4.713-5.333-11.667-4.254-15.042 14.254.709 33.31 12.524 45.684 18.149 16.5 7.5 79.496 3 91.496 0 0 0-4.5-13.499 13.5-13.499s50.997 1.5 47.997-10.5-69.997-63.997-96.995-63.997c0 0-88.996 14.499-115.994-2s-32.999-13.499-65.997 3-52.498 25.499-55.498 38.998z"/><path d="m2370.295 1364.5s7-21 26-20 53-1 68-20 12-26-15-39-43-20-63-19c0 0-15 6-32 1s-52-8-52-8-1.675 37.123 6 61c9 28 10.411 32.843 19 40 12 10 43 4 43 4z"/><path d="m2235.374 1075.098c11.953-1.839 43.499-23.999 53.998-32.999s16.5-19.499 20.999-14.999 19.499 34.498 34.498 43.498 20.998 19.499 28.498 22.499 49.498-7.5 50.998 6-1.5 35.999-17.999 44.998-12 20.999-12 20.999 15 19.499 7.5 23.999-17.999 3-22.499 12-22.498 9-28.498-1.5-18-13.5-34.499-13.5-61.496 29.999-65.996 47.998-15-5.999-29.999-20.998c-14.999-15-29.999-29.999-41.998-31.499s-35.997 0-26.998-10.5 49.497-38.998 55.497-44.998-2.999-25.499-13.499-32.999-27-26.999-16.5-32.999 38.998 18 58.497 15z"/></g></svg>