<svg enable-background="new 0 0 2700 1800" viewBox="0 0 2700 1800" xmlns="http://www.w3.org/2000/svg"><path d="m0 0h2700v1800h-2700z" fill="#009"/><g fill="#fc0"><path d="m2008 461.1s37.7-151.9 221.7-151.9 222.1 138.8 222.1 138.8v17z"/><path d="m1971.5 462.3-64.2-56.6 95.5 29.8-18.1 26.4z"/><path d="m1937.3 353.4 67.9 68 29-45.4z"/><path d="m2081.5 336.2-45.5 36.3-51.2-80.5z"/><path d="m2068 258.9 20 74.1 53.2-21.8z"/><path d="m2194.5 296-51-69.8 8.8 79.7z"/><path d="m2227.8 218.6-22.8 80.6h52.3z"/><path d="m2318.7 231.9-49.7 67.3 45.7 8.3z"/><path d="m2394.5 258.9-69.7 51.4 48.7 22.2z"/><path d="m2476.2 291.9-49 81-44-36.4z"/><path d="m2529.3 352.2-68.6 66.5-26.5-40.5z"/><path d="m2471.7 444.1-5.2-14.1 90-25.6-28.9 31.3z"/></g><path d="m2633 443.9c-12.6 8.4-25.7 0-25.7 0s-57.3-11.7-81-8-76 9.7-97 18.7-25.3-9.7-25.3-9.7-7.3-11.3-45.3 7.4-92.7 8.3-92.7 8.3-59.7-2.3-68.7-13.7-43 9.7-43 9.7-17-1.3-20.3-5.7-12.3-21-31-12.7-61.7 21.7-61.7 21.7-203.1 8.4-219.8 1.9-52-30.3-52-30.3-26.3-14-67.5 16.4-41.8 35.9-41.8 35.9-103.5 3-136-17.3-98.5-7.5-98.5-7.5-53.5 8.1-71.5 24.9-101.8-9.7-101.8-9.7-48.5-10.5-72.5-8.3-98.8 14.5-98.8 14.5-129.9 23-139.9 29.3h-941.2v1290.3h2700v-1360.8s-54.4-3.7-67 4.7z" fill="#060"/><path d="m0 0h941v600h-941z" fill="#bf0a30" stroke-width=".999841"/><path d="m0 54.5v54.5h941v-54.5zm0 109.1v54.5h941v-54.5zm0 109.1v54.5h941v-54.5zm0 109.1v54.5h941v-54.5zm0 109.1v54.5h941v-54.5z" fill="#fff" stroke-width=".999841"/><path d="m0 0h272.7v272.7h-272.7z" fill="#002868"/><g fill="#fff" transform="matrix(15 0 0 15 24.999995 25)"><path d="m8.3 8-.9-6-1.7 5.2z"/><path d="m9.1 7.2-2.6.8.9-6z"/><g transform="matrix(.30901699 .95105652 -.95105652 .30901699 0 0)"><path d="m7.7-5 2.6.8-.9-6z"/><path d="m11-5-2.6.8 1-6z"/></g><g transform="matrix(.30901699 -.95105652 .95105652 .30901699 0 0)"><path d="m-6.5 9.1 2.6.8-.9-6z"/><path d="m-3.1 9.1-2.6.8.9-6z"/></g><g transform="matrix(-.80901699 .58778525 -.58778525 -.80901699 0 0)"><path d="m-3.3-10.6 2.6.8-.9-6z"/><path d="m0-10.6-2.6.8 1-6z"/></g><g transform="matrix(-.80901699 -.58778525 .58778525 -.80901699 0 0)"><path d="m-12.1-1.9 2.6.8-.9-6z"/><path d="m-8.7-1.9-2.6.8.9-6z"/></g></g><path d="m2031.6 1800s-10.1-130.9-65.1-164.4-160.5-62-160.5-62-56.5-39-120.5-70-188-103-188-103-100.5-80-147.5-105-99-78-99-78-46 3-94.5-6.5-81-14.5-81-14.5l-16-78.5s149.5-6.5 214 10.5 176 58.5 176 58.5 115 47.5 256.5 102 229.5 91 229.5 91 252-4.5 313.5 8 154 67 154 67 41.5 20 103.5 27 92 9.5 135 45.5 58.5 43 58.5 43v229.4z" fill="#009"/><path d="m886.5 973.5s-84.5-4-92.5-22-30.7-20-52.7-4.7-69.3-54.7-69.3-54.7 38.7-133.3 64.7-152.7c26-19.3 2.7-33.3 36.7-32.7 34 .7 47.3-25.3 47.3-25.3s53-21.3 65.8-18 16.2-21.3 16.2-21.3 71.2 4 73.6 14.7 65.8-3.3 65.8-3.3 42.7 12 50.7 29.3 42 9.3 42 9.3v58s24 30 23.3 48.7-16 37.3-16 37.3 10.7 46.7 21.3 57.3c10.7 10.7-44.7 38.7-44.7 38.7s-53.7 6.7-109.2 29.3" fill="#004d00" stroke="#000" stroke-miterlimit="10" stroke-width="10"/><path d="m1013.0762 877.6875c-1.4336-.11303-3.5725 1.33435-6.7071 4.95117-16.71775 19.28973-65.58438-1.28621-52.72457 6.42969 10.64566 6.38741 15.06892 46.72483 16.29492 60.57031-13.76588.95732-26.72302-.02866-37.9707-4.17969-19.38342-7.15357-49.80175 4.04976-67.46484 1.03516-5.03183-.8588-1.89844-21.60742-1.89844-21.60742l-20.99024-1.9668s-6.3308 23.05805-9.70312 21.93555c-32.01537-10.6565-55.55585-17.60176-87.68164-18.95899-26.55855-1.12202-72.23047-33.79687-72.23047-33.79687s47.30078 70.00117 69.30078 54.70117 44.69922-13.30078 52.69922 4.69922 92.5 22 92.5 22l123-12.09961c55.5-22.6 109.1992-29.30078 109.1992-29.30078s55.4012-27.99922 44.7012-38.69922c0 0-46.6815 3.91742-67.0332 9.73047-27.0016 7.71244-41.5636 27.3725-67.8809 34.78516-5.0786 1.43047-10.2103 2.81162-15.3515 4.11132 2.9424-6.6446 4.7136-17.23585 2.2363-24.66796-3.1346-9.40375 3.9171-39.1821-2.2949-39.67188z" fill="#030"/><path d="m1075.5 1196.6s-5.5909-39.1351-16-78.5-48.5012-68.4482-50-156.5c0 0-92-5.1-123 11.9l-9.5 245.1s22.5 32.5 42.5 15.5 91-11 91-11 60 9 65-26.5" fill="#300" stroke="#000" stroke-miterlimit="10" stroke-width="10"/><path d="m1059.246 799.44391s-59.39702 1.41421-27.5772 41.01219c31.8198 39.59798 57.9827-21.2132 27.5772-41.01219z" fill="#030"/><path d="m974.07653 849.21222s-9.56743-44.14794-26.81971-47.50065c-17.25228-3.35269-7.11898-41.32275-7.11898-41.32275s48.55491 17.78018 52.50996 36.61462c3.955 18.83445-18.57127 52.20878-18.57127 52.20878z" fill="#030"/><path d="m922.53902 749.913s-.93286 38.24706-52.23989 26.11994c-51.30702-12.12711-80.22553 14.92569-80.22553 14.92569s107.27834-97.01694 132.46542-41.04563z" fill="#030"/><path d="m867.5 903.13218v-99.26436h-63.5s18.24713 26.27586 34.3046 31.38505c16.05747 5.1092 12.40804 64.95977 29.1954 67.87931z" fill="#030"/><path d="m724 877-15.5-32.5s17-8 46.5-12 26.5-18.5 26.5-18.5l21.5 29.5s-19 19-36 18-43 15.5-43 15.5z" fill="#030"/><path d="m898.37891 636.84961-.63086 4.56641s-.84001 5.67256-2.94727 10.60742c-1.05363 2.46743-2.44625 4.621-3.65039 5.66797-1.20414 1.04696-1.70835 1.30392-3.40234.86718-5.26686-1.35786-10.99896-.20817-18.03321 1.38477-7.03424 1.59293-14.96892 3.98648-22.48437 6.47266-15.03091 4.97234-28.39453 10.34375-28.39453 10.34375l-1.73633.69726-.85156 1.66602s-11.32033 23.22512-42.7461 22.57812h-.006-.008c-8.8329-.15587-14.40745.45868-18.7793 2.68555-4.37184 2.22687-6.50265 6.46897-7.46484 9.82226-1.92437 6.70658-1.562 12.29672-13.52344 21.17579l-.006.004-.006.004c-8.22313 6.13572-15.19276 18.41569-22.59765 33.89258-7.40489 15.47688-14.71712 34.07204-21.21289 52.03906-12.99154 35.93404-22.69922 69.38086-22.69922 69.38086l-.6543 2.25195 1.3125 1.94141s11.96199 17.73741 26.89063 33.70312c7.46432 7.98286 15.63431 15.56859 23.91406 20.41992 4.13987 2.42567 8.33703 4.2016 12.6875 4.77735 4.35047.57574 8.97634-.23209 12.80469-2.89453 10.25437-7.13145 20.38697-9.96511 28.30273-9.26172 7.91577.70339 13.65953 4.42975 16.97461 11.88867 3.29884 7.42239 11.36033 10.70575 20.86719 13.75977 9.50685 3.05401 21.00867 5.25871 32.22461 6.90625 22.43186 3.29507 43.74023 4.29687 43.74023 4.29687l.47266-9.98828s-20.94163-.9982-42.75977-4.20313c-10.90906-1.60246-22.03224-3.77276-30.61914-6.53125-8.58689-2.75848-14.0879-6.72512-14.78906-8.30273-4.68492-10.54108-14.29233-16.8155-25.22656-17.78711-10.93424-.97161-23.15086 2.84512-34.89649 11.01367-1.67165 1.16256-3.33601 1.51332-5.7832 1.18946-2.44719-.32387-5.55511-1.50497-8.94336-3.49024-6.7765-3.97054-14.55534-11.01645-21.66602-18.62109-12.94913-13.84869-22.70948-27.91636-24.54687-30.58789.98132-3.35451 9.64361-32.84552 21.79687-66.46094 6.42923-17.78298 13.66622-36.14993 20.83008-51.12305 7.16386-14.97311 14.77978-26.62908 19.55664-30.19336l-.01.006c14.03856-10.42093 15.75015-21.47884 17.17578-26.44726.71281-2.48421.75817-2.83742 2.39258-3.66992 1.63306-.83183 5.89486-1.73994 14.04883-1.59766 32.846.67624 47.79468-21.46904 50.64843-26.19336 1.90963-.76068 12.96208-5.1418 26.42578-9.5957 7.33455-2.42633 15.04948-4.7402 21.55274-6.21289 6.50325-1.47269 12.19498-1.74722 13.32812-1.45508 4.70601 1.21327 9.42758-.36845 12.46094-3.00586s4.88879-6.01509 6.28516-9.28516c1.31652-3.08307 2.17576-6.13454 2.74609-8.55273 5.01858.32295 16.83761 1.14132 31.21484 2.99804 8.93334 1.15369 17.92457 2.65045 24.53321 4.42188 3.30432.88572 6.02217 1.86707 7.64648 2.71289s1.55367 1.5691 1.28321.36328c.83993 3.7447 4.08765 5.68838 6.84179 6.58789 2.75415.89951 5.77314 1.21028 9.17774 1.31446 6.80919.20834 15.10879-.57795 23.32229-1.67774 15.3252-2.05206 29.1311-5.04084 31.0664-5.46289 1.5037.43493 10.2244 2.99318 20.5976 7.58008 11.2993 4.99635 23.0716 12.68838 25.834 18.66211 2.6279 5.68289 7.5151 9.3036 12.6582 11.31054 5.1432 2.00695 10.6687 2.64083 15.7949 2.72852 4.9703.085 9.5924-.38201 13.086-.87891v53.79493l1.0957 1.36914s5.8101 7.27192 11.5312 16.79101c5.7212 9.5191 10.9422 21.48404 10.6758 28.59961-.6027 16.1023-14.8652 34.31055-14.8652 34.31055l-1.5606 1.89844.5489 2.39453s2.7063 11.82393 6.7695 25.02929c2.0316 6.60269 4.4007 13.5618 7.0019 19.6836 2.5729 6.05486 5.1675 11.2282 8.7559 14.87304-.01.0243-.016-.0258-.025.01-.1492.544-.9668 2.07144-2.5273 3.81836-3.1211 3.49384-8.827 7.91595-14.9121 11.9707-11.6942 7.79223-24.1837 14.17323-25.1895 14.68555-2.7338.35013-54.7342 7.18777-109.4844 29.48242l3.7696 9.26172c54.7763-22.30532 107.9336-28.96875 107.9336-28.96875l.8613-.10938.7754-.39062s14.0262-7.07317 26.8808-15.63867c6.4274-4.28275 12.5652-8.86728 16.8223-13.63281 2.1285-2.38277 3.8824-4.79869 4.7148-7.83399.8325-3.0353.048-7.10607-2.4375-9.5918-1.6493-1.64937-4.3481-6.23-6.7343-11.8457-2.3863-5.6157-4.6781-12.31752-6.6465-18.71484-3.3296-10.82125-5.359-19.24996-6.0215-22.05078 3.6052-4.59555 14.8874-20.23232 15.5625-38.26758.4336-11.58443-5.9938-23.9691-12.0977-34.125-5.2367-8.71323-9.7971-14.63356-11.1972-16.42578v-62.64844l-6.1465 1.44531s-8.022 1.85471-16.7695 1.70508c-4.3738-.0748-8.8483-.68429-12.3301-2.04297-3.4819-1.35868-5.8447-3.22625-7.2168-6.19336-5.2376-11.32627-18.8145-18.28268-30.8652-23.61133-12.0508-5.32864-23.0196-8.40429-23.0196-8.40429l-1.207-.33789-1.2246.26953s-15.7128 3.46441-31.586 5.58984c-7.9365 1.06271-15.9361 1.76979-21.68941 1.59375-2.87665-.088-5.20453-.4413-6.37695-.82422-.49987-.16326-.54217-.19019-.5332-.15234-1.09022-3.21733-3.58622-4.8645-6.07813-6.16211-2.72881-1.42097-5.9676-2.50798-9.67578-3.50195-7.41636-1.98795-16.67514-3.49783-25.8418-4.68164-18.33332-2.36764-36.25976-3.3711-36.25976-3.3711z"/><path d="m978.76562 955.91406c-5.98784.006-12.5221.0937-19.30273.31446-27.12252.88305-57.85753 3.38621-75.36719 12.98828l-2.48242 1.36132-9.67383 249.49608.94922 1.3711s5.91754 8.6765 14.89063 15.3027c4.48654 3.3132 9.84444 6.2402 15.98242 7.0586s13.02506-.8377 18.97656-5.8964c3.7771-3.2106 11.30694-6.0422 20.36524-7.7911 9.05829-1.7488 19.59408-2.5891 29.55078-2.8964 19.91339-.6147 37.4238.8593 37.4238.8593l-.3203-.037s15.5342 2.3821 32.0606.068c8.2631-1.1569 16.8993-3.4563 24.1582-8.2149s13.0279-12.3301 14.4746-22.6015l-4.9512-.6973 4.9492-.707s-5.6099-39.3414-16.1152-79.0703c-11.0242-41.6911-48.3594-68.6775-49.834-155.30668l-.08-4.65624-4.6484-.25196s-13.04235-.71074-31.00588-.69336zm-.0195 10c14.04058-.0141 22.05451.34196 25.96291.52149 2.8232 85.73795 40.3435 116.58715 49.957 152.94335 10.1349 38.328 15.5555 75.7791 15.7442 77.0879-1.1609 7.119-4.67 11.628-9.918 15.0684-5.3974 3.5382-12.6987 5.6451-20.0606 6.6757-14.7236 2.0613-29.1894-.055-29.1894-.055l-.1602-.025-.1601-.014s-17.98959-1.526-38.5762-.8906c-10.2933.3177-21.25751 1.1668-31.13672 3.0742-9.8792 1.9074-18.72436 4.7008-24.94726 9.9902-4.0485 3.4412-7.47392 4.0976-11.17969 3.6035s-7.72287-2.5045-11.36133-5.1914c-6.30317-4.6546-10.46878-10.1514-11.65234-11.7558l9.30859-240.06253c14.45316-6.61704 43.19503-9.84116 68.41016-10.66211 6.65687-.21674 13.07573-.30267 18.95898-.3086z"/><ellipse cx="1047.5" cy="893" fill="#030" rx="7" ry="16.5"/><circle cx="984.75" cy="865.75" fill="#030" r="9.25"/><path d="m1027.1047 787.5-.8954-77s-5.3721 40.2907-35.81395 40.2907c0 0 34.69475 10.52035 36.70935 36.7093z" fill="#030"/><path d="m976.3984 741.16552s3.96712-58.71334-18.24874-60.30018c-22.21585-1.58685-33.32378 19.83558-29.35667 32.53036 3.96712 12.69477 38.87775 1.58684 47.60541 27.76982z" fill="#030"/><circle cx="751" cy="906.5" fill="#030" r="9.25"/><circle cx="887.5" cy="822" fill="#030" r="9.25"/><path d="m917.86398 834.22684v-29.9679h-19.17064s5.50881 7.93268 10.35655 9.47514c4.84775 1.54247 3.74599 19.61135 8.81409 20.49276z" fill="#030"/><ellipse cx="857.07312" cy="-1015.4053" fill="#060" rx="7" ry="16.5" transform="rotate(90)"/><path d="m1039.0934 791.66573s25.5527-17.76222 24.6178-35.83606c-.9348-18.07384 8.1021-27.734 8.1021-27.734l15.5809 18.69709s-24.3062 38.95223-48.3008 44.87297z" fill="#060"/><path d="m1098 758.5s2.5-21-2.5-24.5-7.5-23.5-7.5-23.5l26.5-3.5s8.5 36 6 48-22.5 3.5-22.5 3.5z" fill="#060"/><path d="m784.85702 797.66295v-50.05634h-33.3709s.72545 18.86181 15.23454 23.93999 18.13636 26.11635 18.13636 26.11635z" fill="#060"/><ellipse cx="888.36829" cy="-707.52515" fill="#060" rx="7" ry="16.5" transform="rotate(90)"/><g><path d="m1076.5 215.6s-33.5 3.3-41.5-12-23.3 0-23.3 0-31.3 5-30-29.7 36.7-90 36.7-90 30-35.7 60.3-36 65 0 65 0 41 12.3 42.7 22.7c1.7 10.3 16.7 48.3 16.7 48.3s-4.3 31.3-15.7 30.7c-11.3-.7 13.3 27.3 13.3 27.3s-20 38.7-66.7 38.7" fill="#004d00"/><path d="m1085.5 369 68-13s14.5-4.5 5.5-36.5-22.5-82.5-25-104h-57.5l-3 138.5s4.6 16.5 12 15z" fill="#300"/></g><path d="m1076.5 215.6s-33.5 3.3-41.5-12-23.3 0-23.3 0-31.3 5-30-29.7c0 0 31.6093.93643 47.539 1.15464 14.6707.20097 25.4834 15.80721 40.0123 17.85291 13.87 1.95294 28.8062.65951 43.4559-.30669 7.4867-.49377 6.8986-13.40207 14.0551-13.24795 1.5941.0343 11.5425-5.91581 11.5425-5.91581s4.6795 18.04157 6.3313 17.84683c23.3684-2.75504 56.0639-14.38393 56.0639-14.38393s-20 38.7-66.7 38.7" fill="#030"/><path d="m1078.6504 42.900391c-17.0971.169278-32.8635 9.900279-44.5723 19.197265-11.7087 9.296987-19.5058 18.585938-19.5058 18.585938l-.209.248047-.1738.273437s-8.9882 14.033989-18.13091 32.458982c-9.14275 18.425-18.64562 41.10141-19.35547 60.04883-.70586 18.84123 8.4497 28.98414 17.64063 32.6875 9.19095 3.70336 18.14455 2.13672 18.14455 2.13672l1.6015-.25586 1.1465-1.14648s3.4136-3.22046 6.9571-4.625c1.7717-.70228 3.3055-.86908 4.4414-.55079 1.1358.3183 2.3953 1.01519 3.9336 3.95704 5.3962 10.32034 17.6044 13.22854 27.6054 14.38867 10.0011 1.16012 18.8164.27148 18.8164.27148l-.9804-9.95117s-7.9347.76097-16.6836-.25391c-8.749-1.01487-17.2908-4.10823-19.8946-9.08789-2.4617-4.70815-6.1147-7.83704-10.0976-8.95312s-7.7729-.32546-10.8262.88476c-4.4622 1.76872-7.2492 4.09211-8.791 5.49414-1.5317.15363-6.3916.52869-11.63477-1.58398-6.13407-2.47164-11.9789-7.17833-11.38476-23.03711.59015-15.75258 9.43611-38.07851 18.31833-55.97851 8.7298-17.59281 17.1168-30.74655 17.4082-31.20313.2767-.327173 7.2207-8.520349 17.8731-16.978516 10.8662-8.628013 25.2502-16.896621 38.4531-17.027343 29.8835-.295877 63.3851-.0067 64.1641 0 .9597.291638 9.9352 3.033475 19.5703 7.0625 5.0797 2.124146 10.1727 4.569052 13.8301 6.912109 3.6573 2.343057 5.2162 4.934244 5.1503 4.53125v.0039.0039c1.0739 6.506518 5.2396 18.067818 9.2266 28.921878 3.725 10.14112 6.7979 17.92217 7.2461 19.06054-.2359 1.54982-1.1414 7.24245-3.1739 13.54297-1.1633 3.60635-2.6841 7.09706-4.1914 9.23828s-2.3571 2.4589-2.9121 2.42969l.047.002c-2.3832-.14763-5.7386.77437-7.2969 3.4375-1.5583 2.66312-1.0438 5.01419-.5117 6.88867 1.0642 3.74895 3.2929 7.23963 5.7871 10.8789 3.388 4.94349 6.642 8.90904 8.8457 11.52149-4.0043 6.74874-21.932 33.26367-60.5332 33.26367v10c49.4623 0 71.1426-41.4043 71.1426-41.4043l1.5664-3.03125-2.252-2.56445s-6.0329-6.89301-10.5195-13.43945c-1.551-2.26301-2.6845-4.31172-3.4863-5.95508 3.5443-.93458 6.367-3.52444 8.3008-6.27149 2.5051-3.55878 4.1945-7.78018 5.5312-11.92382 2.6733-8.2873 3.7695-16.42969 3.7695-16.42969l.1797-1.29688-.4824-1.21875s-3.7319-9.45484-7.6699-20.175778c-3.9381-10.720943-8.12-23.310033-8.7461-27.103516v.0078c-.9159-5.602994-5.1167-8.449698-9.625-11.337891s-9.9844-5.467896-15.3672-7.71875c-10.7655-4.501707-21.2051-7.625-21.2051-7.625l-.6816-.205078-.711-.0059s-34.7229-.300701-65.0937 0z"/><path d="m1071.6074 210.5-3.123 144.13086.1992.71094s1.2259 4.51317 3.6172 9.05078c1.1956 2.2688 2.6616 4.62082 4.8418 6.59961 2.1789 1.97772 5.6499 3.65479 9.3457 2.9082h.01l68.2207-13.04101.2676-.084s1.8786-.64411 3.6582-1.99023c1.7797-1.34613 3.8742-3.55495 5.4785-6.84375 3.2086-6.5776 4.3994-17.06241-.3066-33.79493-8.9816-31.93466-22.4805-82.88364-24.8457-103.2246l-.5179-4.42187zm9.7852 10h48.3105c3.6062 24.17395 15.9804 70.11702 24.4844 100.35352 4.294 15.26748 2.7348 23.03267.9434 26.70507-.8957 1.8362-1.8637 2.75238-2.5215 3.25-.5904.44655-.5362.38192-.5313.37305l-67.5449 12.91211-.027.006c0 .00039.121.17941-.6426-.51367-.7636-.69309-1.8355-2.18482-2.7149-3.85352-1.5265-2.89677-2.3927-5.67685-2.6328-6.4707z"/><ellipse cx="1153.0564" cy="156.6066" fill="#030" rx="7" ry="16.5"/><path d="m1113.7504 163.84188v-42.55634h-28.3709s.6168 16.03572 12.952 20.35303 15.4189 22.20331 15.4189 22.20331z" fill="#030"/><path d="m1056.6359 105.50001-11.5635-24.246035s12.6825-5.968254 34.6905-8.952381c22.0079-2.984127 19.7698-13.801588 19.7698-13.801588l16.0397 22.007937s-14.1746 14.174603-26.8571 13.428571c-12.6826-.746031-32.0794 11.563496-32.0794 11.563496z" fill="#030"/><circle cx="1127.4818" cy="97.640427" fill="#030" r="9.25"/><path d="m1041.8785 164.52698v-42.55634h28.3709s-.6168 16.03572-12.952 20.35303-15.4189 22.20331-15.4189 22.20331z" fill="#030"/><path d="m1010.4147 162.98396v-29.9679h19.1706s-5.5088 7.93268-10.3565 9.47514c-4.8478 1.54247-3.746 19.61135-8.8141 20.49276z" fill="#030"/><circle cx="1149.0485" cy="118.14652" fill="#060" r="9.25"/><ellipse cx="1168.8475" cy="90.215805" fill="#060" rx="7" ry="16.5"/><g transform="matrix(-1 0 0 1 2931.3 -5.3)"><g><path d="m1076.5 215.6s-33.5 3.3-41.5-12-23.3 0-23.3 0-31.3 5-30-29.7 36.7-90 36.7-90 30-35.7 60.3-36 65 0 65 0 41 12.3 42.7 22.7c1.7 10.3 16.7 48.3 16.7 48.3s-4.3 31.3-15.7 30.7c-11.3-.7 13.3 27.3 13.3 27.3s-20 38.7-66.7 38.7" fill="#004d00"/><path d="m1085.5 369 68-13s14.5-4.5 5.5-36.5-22.5-82.5-25-104h-57.5l-3 138.5s4.6 16.5 12 15z" fill="#300"/></g><path d="m1076.5 215.6s-33.5 3.3-41.5-12-23.3 0-23.3 0-31.3 5-30-29.7c0 0 31.6093.93643 47.539 1.15464 14.6707.20097 25.4834 15.80721 40.0123 17.85291 13.87 1.95294 28.8062.65951 43.4559-.30669 7.4867-.49377 6.8986-13.40207 14.0551-13.24795 1.5941.0343 11.5425-5.91581 11.5425-5.91581s4.6795 18.04157 6.3313 17.84683c23.3684-2.75504 56.0639-14.38393 56.0639-14.38393s-20 38.7-66.7 38.7" fill="#030"/><path d="m1078.6504 42.900391c-17.0971.169278-32.8635 9.900279-44.5723 19.197265-11.7087 9.296987-19.5058 18.585938-19.5058 18.585938l-.209.248047-.1738.273437s-8.9882 14.033989-18.13091 32.458982c-9.14275 18.425-18.64562 41.10141-19.35547 60.04883-.70586 18.84123 8.4497 28.98414 17.64063 32.6875 9.19095 3.70336 18.14455 2.13672 18.14455 2.13672l1.6015-.25586 1.1465-1.14648s3.4136-3.22046 6.9571-4.625c1.7717-.70228 3.3055-.86908 4.4414-.55079 1.1358.3183 2.3953 1.01519 3.9336 3.95704 5.3962 10.32034 17.6044 13.22854 27.6054 14.38867 10.0011 1.16012 18.8164.27148 18.8164.27148l-.9804-9.95117s-7.9347.76097-16.6836-.25391c-8.749-1.01487-17.2908-4.10823-19.8946-9.08789-2.4617-4.70815-6.1147-7.83704-10.0976-8.95312s-7.7729-.32546-10.8262.88476c-4.4622 1.76872-7.2492 4.09211-8.791 5.49414-1.5317.15363-6.3916.52869-11.63477-1.58398-6.13407-2.47164-11.9789-7.17833-11.38476-23.03711.59015-15.75258 9.43611-38.07851 18.31833-55.97851 8.7298-17.59281 17.1168-30.74655 17.4082-31.20313.2767-.327173 7.2207-8.520349 17.8731-16.978516 10.8662-8.628013 25.2502-16.896621 38.4531-17.027343 29.8835-.295877 63.3851-.0067 64.1641 0 .9597.291638 9.9352 3.033475 19.5703 7.0625 5.0797 2.124146 10.1727 4.569052 13.8301 6.912109 3.6573 2.343057 5.2162 4.934244 5.1503 4.53125v.0039.0039c1.0739 6.506518 5.2396 18.067818 9.2266 28.92188 3.725 10.14112 6.7979 17.92217 7.2461 19.06054-.2359 1.54982-1.1414 7.24245-3.1739 13.54297-1.1633 3.60635-2.6841 7.09706-4.1914 9.23828s-2.3571 2.4589-2.9121 2.42969l.047.002c-2.3832-.14763-5.7386.77437-7.2969 3.4375-1.5583 2.66312-1.0438 5.01419-.5117 6.88867 1.0642 3.74895 3.2929 7.23963 5.7871 10.8789 3.388 4.94349 6.642 8.90904 8.8457 11.52149-4.0043 6.74874-21.932 33.26367-60.5332 33.26367v10c49.4623 0 71.1426-41.4043 71.1426-41.4043l1.5664-3.03125-2.252-2.56445s-6.0329-6.89301-10.5195-13.43945c-1.551-2.26301-2.6845-4.31172-3.4863-5.95508 3.5443-.93458 6.367-3.52444 8.3008-6.27149 2.5051-3.55878 4.1945-7.78018 5.5312-11.92382 2.6733-8.2873 3.7695-16.42969 3.7695-16.42969l.1797-1.29688-.4824-1.21875s-3.7319-9.45484-7.6699-20.17578c-3.9381-10.720943-8.12-23.310033-8.7461-27.103516v.0078c-.9159-5.602994-5.1167-8.449698-9.625-11.337891s-9.9844-5.467896-15.3672-7.71875c-10.7655-4.501707-21.2051-7.625-21.2051-7.625l-.6816-.205078-.711-.0059s-34.7229-.300701-65.0937 0z"/><path d="m1071.6074 210.5-3.123 144.13086.1992.71094s1.2259 4.51317 3.6172 9.05078c1.1956 2.2688 2.6616 4.62082 4.8418 6.59961 2.1789 1.97772 5.6499 3.65479 9.3457 2.9082h.01l68.2207-13.04101.2676-.084s1.8786-.64411 3.6582-1.99023c1.7797-1.34613 3.8742-3.55495 5.4785-6.84375 3.2086-6.5776 4.3994-17.06241-.3066-33.79493-8.9816-31.93466-22.4805-82.88364-24.8457-103.2246l-.5179-4.42187zm9.7852 10h48.3105c3.6062 24.17395 15.9804 70.11702 24.4844 100.35352 4.294 15.26748 2.7348 23.03267.9434 26.70507-.8957 1.8362-1.8637 2.75238-2.5215 3.25-.5904.44655-.5362.38192-.5313.37305l-67.5449 12.91211-.027.006c0 .00039.121.17941-.6426-.51367-.7636-.69309-1.8355-2.18482-2.7149-3.85352-1.5265-2.89677-2.3927-5.67685-2.6328-6.4707z"/><g fill="#030"><ellipse cx="1153.0564" cy="156.6066" rx="7" ry="16.5"/><path d="m1113.7504 163.84188v-42.55634h-28.3709s.6168 16.03572 12.952 20.35303 15.4189 22.20331 15.4189 22.20331z"/><path d="m1056.6359 105.50001-11.5635-24.246035s12.6825-5.968254 34.6905-8.952381c22.0079-2.984127 19.7698-13.801588 19.7698-13.801588l16.0397 22.007937s-14.1746 14.174603-26.8571 13.428571c-12.6826-.746031-32.0794 11.563496-32.0794 11.563496z"/><circle cx="1127.4818" cy="97.640427" r="9.25"/><path d="m1041.8785 164.52698v-42.55634h28.3709s-.6168 16.03572-12.952 20.35303-15.4189 22.20331-15.4189 22.20331z"/><path d="m1010.4147 162.98396v-29.9679h19.1706s-5.5088 7.93268-10.3565 9.47514c-4.8478 1.54247-3.746 19.61135-8.8141 20.49276z"/></g><circle cx="1149.0485" cy="118.14652" fill="#060" r="9.25"/><ellipse cx="1168.8475" cy="90.215805" fill="#060" rx="7" ry="16.5"/></g></svg>