<svg height="2400" viewBox="0 0 733.33332 440" width="4000" xmlns="http://www.w3.org/2000/svg"><path d="m-.00000667 0h733.33332667v440h-733.33332667z" fill="#fff"/><path d="m-.00000667 0h733.33333667v110h-733.33333667z" fill="#002868"/><path d="m-.00000667 0h183.33333667v110h-183.33333667z" fill="#bf0a30"/><path d="m-.00000667 9.9999167v9.9999163h183.33333667v-9.9999163zm0 20.0000163v9.999917h183.33333667v-9.999917zm0 20.000017v9.999917h183.33333667v-9.999917zm0 20.000017v9.999916h183.33333667v-9.999916zm0 20.000016v9.999917h183.33333667v-9.999917z" fill="#fff"/><path d="m-.00000667 0h49.99994967v49.99995h-49.99994967z" fill="#002868"/><g fill="#fff" transform="matrix(2.75 0 0 2.75 4.583327 4.583331)"><path d="m8.332 8-.908-6.03-1.685 5.187z"/><path d="m9.11 7.157-2.594.843.908-6.03z"/><g transform="matrix(.30901699 .95105652 -.95105652 .30901699 0 0)"><path d="m7.67-5.034 2.593.843-.908-6.03z"/><path d="m11.041-5.034-2.594.843.908-6.03z"/></g><g transform="matrix(.30901699 -.95105652 .95105652 .30901699 0 0)"><path d="m-6.452 9.088 2.594.843-.909-6.03z"/><path d="m-3.081 9.088-2.594.843.908-6.03z"/></g><g transform="matrix(-.80901699 .58778525 -.58778525 -.80901699 0 0)"><path d="m-3.328-10.637 2.594.843-.908-6.031z"/><path d="m.043-10.637-2.594.843.909-6.031z"/></g><g transform="matrix(-.80901699 -.58778525 .58778525 -.80901699 0 0)"><path d="m-12.056-1.909 2.594.842-.908-6.03z"/><path d="m-8.685-1.909-2.593.842.908-6.03z"/></g></g><path d="m556.25844 330.57787c-7.53023-35.37123-38.95008-61.90287-76.56678-61.90287-37.61835 0-69.0393 26.5342-76.56807 61.90764" fill="#fdbe08"/><path d="m570.89541 330.57934c-7.5845-43.5006-45.5323-76.57101-91.20375-76.57101-45.6731 0-83.62145 33.07242-91.20448 76.57504h-75.81219l51.88334-8.92503s-6.08484-3.0338-12.40049-4.29367-20.23285-6.523-20.23285-6.523 16.6584.57933 22.36245.4862c5.70405-.0931 19.51639 1.9283 19.51639 1.9283s-18.69102-12.06535-26.13527-13.37618c-13.95423-2.4574-30.79853-15.93277-30.79853-15.93277s20.21323 5.72697 31.66936 5.7717c7.10894.0277 29.6439 3.3242 29.6439 3.3242s-8.492-8.1631-17.04761-10.65093c-8.55562-2.48765-18.39402-11.88386-18.39402-11.88386s14.55465 5.69049 21.86855 7.31977c6.02048 1.34109 26.03792 9.48787 26.03792 9.48787s-15.32172-14.61937-24.25574-19.5393c-8.93401-4.91994-27.62466-22.23449-27.62466-22.23449s20.65671 9.19252 27.96163 10.78055c7.7484 1.68447 24.77915 9.41912 24.77915 9.41912s-3.94313-7.88828-10.65533-14.88612c-6.7122-6.99783-14.27819-19.9474-14.27819-19.9474s11.66825 10.29289 19.2181 14.48462 17.99857 13.56538 17.99857 13.56538-3.51505-10.32313-9.8923-19.28116c-6.37725-8.95804-17.24103-29.11884-17.24103-29.11884s23.37701 17.5824 28.9113 23.75652c5.53428 6.17412 17.10536 15.29348 17.10536 15.29348s-5.03708-13.37856-7.09738-19.22598-10.10662-18.52877-10.10662-18.52877 13.66989 11.42625 16.94147 17.33564c3.27158 5.90938 14.38892 18.03743 14.38892 18.03743s-2.75697-15.24013-7.27412-23.9591-5.52768-22.86827-10.24412-29.60595c8.75894 4.37947 15.9896 18.7858 22.3124 24.04747 6.3228 5.26166 14.07927 17.59926 14.07927 17.59926s-1.28517-14.69893-1.36492-21.09818c-.0799-6.39925.81492-22.71848.81492-22.71848s4.31365 17.77893 7.61988 22.60756c3.30624 4.82864 9.24697 23.04244 9.24697 23.04244s4.18495-14.59187 3.86815-25.67657c-.31643-11.06563 6.08447-36.33208 6.08447-36.33208s-.33679 23.2452 3.37791 32.78036c3.68207 9.45157 3.16965 19.51162 3.16965 19.51162s3.73432-9.86498 7.0774-17.43463c3.34309-7.56965 9.60575-20.6987 9.60575-20.6987s.37089 13.78575-.72636 23.56401c-1.09725 9.77827-1.10697 23.91932-1.10697 23.91932s6.78132-13.55182 9.90513-21.08957c3.12382-7.53775 15.5782-26.94376 15.5782-26.94376s-1.914 23.74643-3.4188 32.1882c-1.5048 8.44176-2.26453 18.59513-2.26453 18.59513s7.59257-8.88745 10.10148-13.3947c2.50892-4.50725 11.89852-18.68863 11.89852-18.68863s-4.35032 19.61776-6.10463 25.32181c-1.75432 5.70405-6.36204 18.49485-6.36204 18.49485s10.82675-12.26958 17.47919-18.38613c8.93695-8.217 21.38748-22.4972 21.38748-22.4972s-5.37607 17.98592-14.0877 30.56882c-3.0195 4.36131-8.64563 20.76451-8.64563 20.76451s11.35475-8.17043 14.86136-11.43505c3.50662-3.26461 18.5053-17.53161 18.5053-17.53161s-9.8219 20.80668-13.49773 24.38351c-3.67583 3.57684-7.56488 16.04167-7.56488 16.04167s15.98171-11.94747 25.94001-15.15983c10.4434-3.36894 26.27717-19.20252 26.27717-19.20252s-8.85665 19.94007-16.46828 27.41127c-8.79817 8.63573-14.86192 18.74217-14.86192 18.74217s11.64662-4.7465 18.28805-7.65692 18.55425-8.99269 18.55425-8.99269-8.84968 8.14019-14.88447 11.21579c-6.03478 3.0756-18.29886 12.06755-18.29886 12.06755l23.37151-4.11987 30.71182-5.41346-23.92243 14.57005-20.62757 12.56328s14.9622-2.41505 21.77193-4.12188c6.80974-1.70684 20.94474-5.04479 20.94474-5.04479s-13.21577 6.9619-20.24477 8.74904c-7.029 1.78713-16.23857 7.01763-16.23857 7.01763l53.16667 14.85-83.69625-.0623z" fill="#fdbe08"/><path d="m-.00000667 330h733.33333667v110h-733.33333667z" fill="#002868"/><path d="m233.88694 307.55157c-1.70133-10.06702-10.46155-17.7342-21.01256-17.7342-10.55395 0-19.31637 7.67195-21.01404 17.74318l42.0266-.009z" fill="#090"/><path d="m216.90991 146.32328c-2.74853-4.17798-11.00183-3.94441-11.00183-3.94441v149.04248h14.11593v-130.61822l-.18333-10.36365c-.00019 0-1.21569-1.5092-2.93077-4.1162z" fill="#960"/><g fill="#090"><path d="m218.05226 174.06932s3.4188-16.50477 16.62265-19.80587 20.51316-2.7115 29.00131-3.89033c10.0265-1.3926 16.03342-10.37447 17.68379-10.72812 1.65036-.35365 1.93728 17.9971-11.08177 24.63927-11.55348 5.89453-27.05927 5.07613-33.95278 7.30931-8.37027 2.7115-12.35502 10.85572-16.2822 10.61024-.23558-3.89052-1.991-8.1345-1.991-8.1345z"/><path d="m217.81649 214.38817c0-3.30092 3.18304-13.5575 11.78925-18.2732 7.22242-3.95744 16.50495-6.36625 25.11098-6.36625 8.60604 0 14.25105 4.2053 18.74474 7.07355 5.54088 3.53686 9.66698 20.15933 7.54508 21.33835-2.1219 1.17901-5.06935-1.76844-8.25238-4.0084-3.18304-2.23997-9.34964-4.83432-16.38689-7.07355-5.18723-1.65037-13.89923-1.61517-20.15951.47153-4.95147 1.65037-14.1471 12.37867-16.269 12.8502.47135-3.5365-2.12227-6.01223-2.12227-6.01223z"/><path d="m140.12588 171.35782c-.86809 2.39231.11788 4.7157 2.82938 3.53686 2.7115-1.17883 8.1345-6.24836 12.26078-8.37026 4.5166-2.32284 11.2002-4.86897 18.62685-4.95147 10.61024-.11788 24.99292 4.8334 32.30224 14.38268 1.41478-2.0042 2.0042-7.30931 1.65055-9.90293s-1.88632-7.07355-8.60604-11.90713c-6.71971-4.83359-15.67958-7.19144-22.51736-7.19144-6.83779 0-19.39594 3.91399-24.22952 8.27604s-8.71053 6.18896-12.31688 16.12765z"/><path d="m138.94704 201.8918c-1.06095 4.24417 1.17884 3.89052 4.7157.47153 2.12594-2.05498 9.5491-5.88115 14.50075-7.17786 4.91315-1.28682 11.78962-4.01775 19.21627-4.10025 10.61023-.11789 21.45623 1.49306 28.76555 11.04235.7073-2.7115 2.81105-3.4232 2.4574-8.8462-.17032-2.61214-.92473-4.5936-7.64463-9.427s-14.73652-7.66297-24.16774-7.30932c-6.83301.25612-17.20931 3.9677-22.39948 7.89873-5.61568 4.25315-13.87137 11.15749-15.44382 17.44802z"/><path d="m141.06894 232.66155c-1.06095 4.24417 1.65037 4.12628 5.18724.7073 2.12593-2.05498 6.5736-5.93927 11.5929-6.9421 6.4218-1.28315 13.40056-4.12207 20.8274-4.20475 10.61023-.11788 20.86681-.053 27.35095 4.42695-.35365-4.0084 2.23996-.35383 1.88631-5.77683-.17031-2.61195-.35365-7.07355-2.23996-8.60604-6.7199-4.83358-16.14452-6.48395-25.58252-6.48395-8.60603 0-20.05043 5.09887-25.11098 9.19545-4.95147 4.0084-12.33889 11.39362-13.91134 17.68397z"/></g></svg>