<svg height="400" viewBox="0 0 588.12278 392.08162" width="600" xmlns="http://www.w3.org/2000/svg"><path d="m414.8914 198.6457h-7.81468v-5.20979h7.81468c1.43845.001 2.6049-1.16644 2.6049-2.6049 0-1.43722-1.16645-2.60366-2.6049-2.60366h-7.81468l5.20979-5.20979h2.60489c4.25041.0147 7.81468 3.49933 7.81468 7.81345 0 2.00207-.75353 3.8277-1.99104 5.21102 1.23751 1.38209 1.99104 3.20772 1.99104 5.20856 0 4.31535-3.56427 7.79998-7.81468 7.81468h-7.81468v-5.20979h7.81468c1.43845 0 2.6049-1.16644 2.6049-2.60489s-1.16645-2.60489-2.6049-2.60489zm-202.58698-2.6049c0-7.19102 5.83247-13.02447 13.02435-13.02447s13.02435 5.83345 13.02435 13.02447c0 7.19225-5.83247 13.02447-13.02435 13.02447s-13.02435-5.83222-13.02435-13.02447zm13.02435 18.23426c10.06878 0 18.23413-8.16511 18.23413-18.23426 0-10.06792-8.16535-18.23425-18.23413-18.23425-10.06866 0-18.23413 8.16633-18.23413 18.23425 0 10.06915 8.16547 18.23426 18.23413 18.23426zm-5.20832-26.04894h5.20832c4.31511 0 7.81468 3.49933 7.81468 7.81468s-3.56451 7.79998-7.81468 7.81468h-5.20832v-5.20978h5.20832c1.43833 0 2.60489-1.16645 2.60489-2.6049s-1.16656-2.60489-2.60489-2.60489h-5.20832zm44.28013-5.20856h5.20967v26.04771h-5.20967l-10.41957-16.35349v16.35349h-5.20967v-26.04771h5.20967l10.41957 16.35349zm-78.14485 0h15.62924v5.20979h-10.41958v5.20856h10.41958v5.20979h-10.41958v5.20978h10.41958v5.20979h-15.62924zm88.56296 0h5.21003v26.04771h-5.21003zm20.83939 26.04771c5.75381 0 10.41958-4.66577 10.41958-10.41957v-5.20857c0-5.7538-4.66577-10.41957-10.41958-10.41957h-10.41957v26.04771zm0-20.83792c2.87691 0 5.20979 2.33288 5.20979 5.20978v5.20857c0 2.8769-2.33288 5.20978-5.20979 5.20978h-5.20978v-15.62813zm90.58072 7.81345c0 7.19225-5.83222 13.02447-13.02447 13.02447-7.19103 0-13.02447-5.83222-13.02447-13.02447 0-7.19102 5.83344-13.02447 13.02447-13.02447 7.19225 0 13.02447 5.83345 13.02447 13.02447zm-13.02447-18.23425c-10.06793 0-18.23304 8.16633-18.23304 18.23425 0 10.06915 8.16511 18.23426 18.23304 18.23426 10.06915 0 18.23425-8.16511 18.23425-18.23426 0-10.06792-8.1651-18.23425-18.23425-18.23425zm-207.79764 5.20978h5.2098v20.83915h10.41945v5.20979h-15.62925zm236.45024.001v26.04771h-5.20978v-20.83792zm-59.9101 15.62814c-1.43845 0-2.6049 1.16644-2.6049 2.60489v2.60489h10.41958v5.20979h-15.62937c0-2.60489 0-5.20979 0-7.81468.0147-4.25041 3.49933-7.81468 7.81469-7.81468 1.43722.001 2.60489-1.16644 2.60489-2.6049 0-1.43722-1.16767-2.60366-2.60489-2.60366h-7.81469l5.20979-5.20979h2.6049c4.24918.0147 7.81468 3.49933 7.81468 7.81345 0 4.31536-3.50056 7.81469-7.81468 7.81469z" fill="#800080" fill-opacity=".985148"/><path d="m-.000011-.000114h588.1228v392.08185h-588.1228z" fill="#005bbb"/><g transform="translate(433.00007 .05662)"><path d="m-68.00478 282.97769c3.13333-2.99913 6.87725-5.78498 10.65506-8.59607 8.34825-6.2102 13.73459-11.44704 17.432-18.24989 6.39955-11.77392 7.79746-26.69446 8.20341-40.50878.0957-3.26622.13687-6.46997.17473-9.5568l-1.03912-.27839c-3.16855 13.50338-25.23185 4.92049-31.85331-5.31401-5.15047-7.9609-11.39221-19.57261-12.16026-32.67069h-125.57801c-1.95197 19.1492-6.90369 24.77302-12.05415 32.73392-6.62147 10.2345-27.90632 18.75416-31.07421 5.25078l-1.03913.27839c.0379 3.08683.0791 6.29058.17474 9.5568.40595 13.81432 1.80386 28.73486 8.20341 40.50878 3.69742 6.80285 9.08375 12.03969 17.43133 18.24989 3.77848 2.81109 7.52174 5.59694 10.6564 8.59607-3.427-.4013-7.20149 1.32482-9.41595 4.6814-12.53002 18.99268 30.57659 38.12688 41.8542 42.205 13.92726 5.03553 26.79014 10.00927 38.49497 20.16735 11.70483-10.15808 24.56771-15.13182 38.49497-20.16735 11.27761-4.07812 54.38422-23.21232 41.8542-42.205-2.21446-3.35658-5.98961-5.0827-9.41528-4.6814z" fill="#c7ad56" fill-rule="evenodd" stroke="#504416" stroke-width=".980205"/><path d="m-209.59617 283.20353c-3.08757-2.98761-7.09984-5.79362-10.93212-8.61933-8.34759-6.2102-13.73392-11.44704-17.43134-18.24989-6.39955-11.77392-7.79746-26.69446-8.20341-40.50878.25513 8.68112 2.08889 19.55744 5.83282 29.39861-1.3049-6.72445-.75743-12.58317-2.0271-20.18464.92219.54814 1.7507.9707 2.71276.90559-.50096-1.54607-1.16005-3.4981-1.12085-4.99965l1.40389 1.17865c-.16943-2.23306-.63916-5.09731-1.04976-7.33104 1.32283 1.75336 2.3294 4.10669 2.93135 6.33909l.64315-2.32675c.94678 1.81848 1.31353 4.24754 1.4185 6.18561l.6179-1.52614c.61657 1.60853.49299 3.7725.26443 5.50128l1.00458-.61192c.58003 4.98171-3.78046 15.43015-3.11539 22.12004.16809 1.68892.53617 3.30276 1.07035 4.74452 1.35672 2.27758 2.89083 4.36913 4.56779 6.32115-2.74267-5.55842-3.37717-12.45228-2.7925-18.0778l1.59989 1.29958c-1.03713-2.6337-.27373-5.191-.20463-7.55695l1.93939 2.02777c-1.46169-3.48016.36543-6.72312.0598-9.87506 2.6337 1.56667 4.20037 4.44753 3.90471 9.10501l1.83508-.83515c-.0658 1.33279-.73416 3.035-1.33478 4.63488l1.79987-.99993c.16544 2.21978-1.10889 5.60227-2.78984 8.18946l1.23513-.68965c-2.76725 6.85799-3.60572 14.54117.45446 18.3987l-.11894.0126c1.54541 1.37266 3.15859 2.68686 4.82226 3.96783-3.96584-4.91793-4.53789-11.07564-3.07287-16.55632.44913.37406.82785.74348 1.13746 1.10624-.11561-1.89821-.27773-3.77714.36011-5.98363l.81788 1.28562c-.25846-2.70479 1.56666-5.51058.55544-8.90436 2.28887 1.38463 3.95653 3.79043 3.78379 8.06787l1.23579-1.06038c.87303 3.50008.11228 7.06727-1.39924 10.66237l1.18729-.43319c-1.65702 5.21558-2.64101 10.6152-.69563 14.70793 1.92478 1.38529 4.1419 2.97587 6.28793 4.72458l-1.59855-2.25631c-1.83709-2.96524-3.21506-6.84604-3.35525-10.00594l1.43378.9202c-.72752-2.16596-1.23313-4.3771-.69961-6.51051l.79064.55744c-.85243-2.48422 1.05839-4.99899-.34682-7.75494 2.61244 2.154 3.80704 4.93188 4.3771 7.59149l.84114-.88565c.44913 1.28097.31825 2.83768.12956 4.32461l1.18596-.40528c.2352 1.36469-.38735 2.97188-1.01654 4.6907l.71224.10763c-1.22251 2.6842-1.82246 5.71322.29367 12.00913 2.55198 2.37723 4.73455 4.97174 5.81221 7.6845.0159-3.76784-3.5333-6.33045-4.46015-9.87372l1.67497.41857c-1.25307-2.11413-2.07228-4.22428-2.19055-6.19557l1.01389.19201c-.48634-2.28024.44581-4.50733.40927-6.84071 1.74672 1.79123 2.70346 4.41696 3.55988 7.20015l.69763-1.33612c.58932 1.8145.81522 3.76585.83782 5.79361l1.32614-.90757c1.32815 7.04336.40928 13.98772-3.68811 19.92817-2.4191 3.50739-7.15365 4.58838-10.673 2.06962-2.90412-2.07893-3.75588-6.0906-1.56069-8.98475 1.75271-2.31147 5.04815-2.93401 7.31975-1.01986 1.75071 1.47564 2.06564 4.17579.3136 5.76238-.53949.48834-1.22649.79131-2.0085.75211-.95275-.0472-1.92544-.72287-1.57663-1.82379.22523-.71092.98399-1.10424 1.6949-.87901l.009.001c.007 0 .0339-.0206.0691-.0531.53152-.4797.23055-1.29825-.23919-1.69424-1.08498-.91422-2.62573-.47837-3.43232.58535-1.27964 1.68692-.66839 3.96317.9893 5.1498 2.28954 1.63909 5.30926.85974 6.86995-1.40189 1.45195-2.10538 1.36831-4.69951.0603-6.66437-1.40331-2.10804-3.14613-4.22691-4.7716-5.79976z" fill="#c7ad56" stroke="#504416" stroke-linejoin="round" stroke-width=".980205"/><path d="m-138.93867 350.23403h-.00001" fill="#ffd300"/><g fill="#c7ad56" stroke="#504416"><g stroke-width="1.630705"><g transform="matrix(.60109254 0 0 .60109254 -253.24225 115.18263)"><path d="m70.497882 128.69502c-4.051031.59024-7.751673 4.01787-11.047764 9.26929-.900844-2.9026.05527-5.81293 1.832635-8.6061-4.09856.71073-6.068257 4.77392-7.5914 9.88938-1.044536-2.37867-1.312026-5.00272-1.042325-7.12826-2.811958 2.06365-4.053242 6.28269-5.254735 10.43099-.910791-2.51021-1.270023-5.07015-1.081012-7.67651-3.490629 3.91618-4.072032 7.62898-3.292775 11.24672-1.018008-2.87496-2.785429-5.16741-5.144202-6.49934 3.301618 13.72598-1.375029 19.26368-9.892695 22.9179 20.768028-2.45162 36.350958-14.25985 42.514273-33.84407z" fill-rule="evenodd" stroke-linejoin="round"/><path d="m23.993964-1.9744563c.993853-.31476 2.053226.21074 2.41042 1.17871997.832064-.0605 1.302392-.34092997 1.387866-1.35979997.145335-1.73016-1.370443-2.94563-3.012309-2.99872-1.746401-.0566-3.272714.96005-4.020979 2.47773-.701733 1.42271-.671579 3.15693997-.01229 4.661403 1.131706 2.5817 4.074401 3.92281 7.033996 5.27144 3.896939 1.77592 7.817963 3.5628603 9.432319 8.1265403l-3.675697 1.29624c-1.064548-3.00906-4.228633-4.45125-7.373285-5.88427-3.638247-1.6579103-7.25561-3.3066703-8.9863-7.2543003-1.103785-2.518573-1.130216-5.470243.0886-7.940483 1.416493-2.87304 4.354459-4.75015 7.635587-4.64357 3.868162.12538 7.111838 3.25972 6.779623 7.20837-.258319 3.0766-3.005386 5.527643-6.114784 4.837003-.968948-.21529-1.849556-.7444-2.428587-1.654113-.731886-1.15099003-.700988-2.82904.855815-3.32219z"/><path d="m68.014207 22.979127c-4.765073-4.18367-5.835032-10.81564-5.321054-14.4444403 3.293881 7.8964703 10.771432 7.7118803 18.201454 3.8421203 2.803115-1.45903 6.021833-.62009 9.599784.0166-.93953-3.9194903-3.370149-5.6316503-6.014096-7.0265703 2.227238-.89643 3.739328-2.655 4.304152-5.25915903l-2.44941-.649934c2.556627-2.69037097 4.458898-5.62391397 4.174828-9.04711897-1.795054 1.67789-3.850966 3.520474-5.993094 4.614749l.623406-4.88666c-1.438034 1.113067-2.58426 2.11339-4.36384 2.5511-4.666699 1.151753-6.393223 3.750382-7.636718 4.663383-1.813846 1.333027-3.299408-.532768-1.565146-1.902271 1.674573-1.323079 3.799016-2.423987 6.165525-3.348042 5.045828-1.971907 7.182429-5.3685827 6.729244-12.3144707l-3.339199 1.516511c1.760789-2.658316 2.983283-5.849401 3.385623-8.539772l-2.858381.374706c1.546355-4.127299 2.838485-7.901998 2.842906-11.937554-4.726387 1.86469-8.726573 5.312212-12.145356 9.96012l.176853-4.460003c-2.774377 1.787318-5.271315 4.819235-7.327227 8.067798l-.42113-3.311566c-5.486854 4.210198-8.549721 13.323637-6.146736 19.4991097 1.053379 2.343298-1.365081 4.025609-2.755585 1.967486-2.327823-3.4475207.698568-10.5183117 2.480358-15.7387807-3.584582.666513-6.472807 3.119239-7.930736 7.87768-.972689-2.003961-1.174965-4.057663-.604615-6.157788-4.297519 1.156174-7.20564 4.327363-7.147058 10.427675-4.700964-2.931333-8.592828-1.348502-10.995814 1.8713217 15.070057 1.582831 13.366745 23.8673703 27.333684 16.64736-1.264497 3.6752203-.565929 9.3400303 2.608576 12.7123903l6.388802 2.41404z" stroke-linejoin="round"/><g fill-rule="evenodd" transform="translate(0 -98.020463)"><path d="m28.569433 153.18346c2.118916.0564 3.792384 1.82047 3.736013 3.93829-.05637 2.11781-1.820477 3.79127-3.938288 3.73601-2.117811-.0564-3.791279-1.82048-3.734907-3.93829.05527-2.11781 1.819372-3.79128 3.937182-3.73601z"/><path d="m36.849453 152.75791c2.117811.0553 3.792385 1.81937 3.736013 3.93718-.05637 2.11891-1.820477 3.79238-3.938288 3.73601-2.11781-.0564-3.791279-1.82048-3.736012-3.93829.05637-2.11781 1.820477-3.79128 3.938287-3.7349z"/><path d="m40.746844 159.44294c2.11781.0553 3.791279 1.82047 3.734907 3.93828-.05637 2.11781-1.820477 3.79128-3.938288 3.73491-2.11781-.0553-3.791278-1.82048-3.734907-3.93829.05527-2.11781 1.820477-3.79128 3.938288-3.7349z"/><path d="m33.07586 160.14372c2.117811.0553 3.791279 1.82047 3.734907 3.93828-.05527 2.11781-1.819372 3.79128-3.937182 3.73491-2.117811-.0553-3.792384-1.82048-3.736013-3.93829.05637-2.11781 1.820477-3.79128 3.938288-3.7349z"/><path d="m25.044539 160.44768c2.11781.0564 3.791279 1.82048 3.734907 3.93829-.05527 2.11781-1.819372 3.79128-3.937183 3.73601-2.11781-.0564-3.792384-1.82048-3.736012-3.93829.05637-2.11781 1.820477-3.79128 3.938288-3.73601z"/><path d="m21.179203 152.60205c2.11781.0553 3.792384 1.81938 3.736012 3.93719-.05637 2.11781-1.820477 3.79238-3.938287 3.73601-2.117811-.0564-3.791279-1.82048-3.736013-3.93829.05637-2.11781 1.820477-3.79128 3.938288-3.73491z"/><path d="m17.05522 159.20419c2.117811.0564 3.791279 1.82047 3.736012 3.93828-.05637 2.11781-1.820477 3.79128-3.938287 3.73602-2.117811-.0564-3.791279-1.82048-3.736013-3.93829.05637-2.11781 1.820477-3.79128 3.938288-3.73601z"/><path d="m8.1120022 123.99061c2.1178108.0553 3.7912788 1.82048 3.7349068 3.93829-.05527 2.11781-1.820477 3.79128-3.9382873 3.73491-2.1178106-.0553-3.7912788-1.82048-3.7349071-3.93829.055267-2.11781 1.8204771-3.79128 3.9382876-3.73491z"/><path d="m6.9105095 132.08936c2.1178106.0564 3.7912785 1.82047 3.7360125 3.93828-.05637 2.11782-1.8204772 3.79128-3.9382877 3.73602-2.1178106-.0564-3.7912788-1.82048-3.7360124-3.93829.056372-2.11781 1.820477-3.79128 3.9382876-3.73601z"/><path d="m14.453275 131.51459c2.117811.0564 3.791279 1.82047 3.736013 3.93828-.05637 2.11781-1.820477 3.79128-3.938288 3.73602-2.117811-.0564-3.791279-1.82048-3.736012-3.93829.05637-2.11781 1.820477-3.79128 3.938287-3.73601z"/><path d="m5.9566105 140.19584c2.1178105.0564 3.7912788 1.82048 3.734907 3.93829-.056372 2.11781-1.820477 3.79128-3.9382876 3.73601-2.1178105-.0564-3.7912788-1.82048-3.734907-3.93829.055267-2.11781 1.820477-3.79128 3.9382876-3.73601z"/><path d="m13.993458 139.63433c2.117811.0553 3.791279 1.81938 3.736013 3.93719-.05637 2.11781-1.820477 3.79238-3.938288 3.73601-2.11781-.0564-3.7912787-1.82048-3.736012-3.93829.05637-2.11781 1.820477-3.79128 3.938287-3.73491z"/><path d="m6.9812506 148.09673c2.1178105.0553 3.7912784 1.82048 3.7360124 3.93829-.05637 2.11781-1.8204771 3.79128-3.9382877 3.73491-2.1178105-.0553-3.7912788-1.82048-3.7360123-3.93829.056372-2.11781 1.820477-3.79128 3.9382876-3.73491z"/><path d="m14.892091 147.66013c2.11781.0564 3.791279 1.82048 3.736012 3.93829-.05637 2.11781-1.820477 3.79127-3.938287 3.7349-2.117811-.0553-3.791279-1.82047-3.736013-3.93828.05637-2.11782 1.820477-3.79128 3.938288-3.73491z"/><path d="m10.109332 155.79425c2.11781.0553 3.791279 1.82047 3.736012 3.93828-.05637 2.11781-1.820477 3.79128-3.9382873 3.73491-2.1178106-.0553-3.7912788-1.82048-3.7360124-3.93829.056372-2.11781 1.8204771-3.79128 3.9382877-3.7349z"/></g><path d="m72.589165 123.21922c-10.973708-8.38282-18.092027-28.235643-10.896335-42.624813 1.664626-3.32815 3.674114-7.04316 7.719619-7.29849 2.1156-.13264 3.66085.87984 4.546218 2.23166 1.765211 2.6959 1.152859 7.23659-3.338094 8.93217-1.557408.58803-3.134713-2.84402-1.730945-3.64206 1.189334-.67757 2.473727-1.56957 1.790633-2.64837-.603509-.95722-1.455718-.72289-2.208447-.21665-2.037122 1.3684-3.229772 4.76729-4.024504 6.97905-3.857598 10.72833-.68862 22.307753 8.758628 33.233933z" fill-rule="evenodd"/><path d="m71.033967 59.046017c10.069548-18.70659.06411-48.73175-21.982786-39.05902.718465-9.30245-9.530147-16.6617303-20.156781-12.5145303-9.932487 3.8752803-18.759646 2.19187-26.5035812-6.345696-1.324184 5.626126-.107217 10.4442563 3.649797 14.4543863-1.639203.61346-3.279512.32055-4.91982-.88205 1.687837 9.51688 6.702716 12.84392 13.6486032 11.45784l-2.448304 3.39999c4.677753 3.0684 11.415839 1.87796 16.210757-3.12366 2.799799-2.91917 7.60577-5.02151 8.61604-2.39193.938425 2.44278-2.509097 4.30305-6.031781 5.16299-5.814031 1.41925-11.64022 3.526-14.850096 10.50063l4.01345-1.26007c-1.613781 1.79173-3.147977 4.3782-3.854283 6.77456l2.765534-.25312c-1.279971 3.06618-1.688943 6.85746-1.087644 10.12481 2.697003-.91521 5.668128-.84668 8.366236-2.8219l-.340441 4.10519c3.023075-.40566 5.366372-2.69148 7.164743-3.60116l.362548 4.40694c4.759547-3.2154 6.706031-8.70336 7.549397-14.80699.674251-4.87339 2.472622-8.47676 4.353892-5.99309.656565.86879-.233225 3.15793-1.610465 5.8085-2.992126 5.75987-4.499794 15.45693-1.903376 22.14417l1.359554-3.0485c1.390504 4.25662 3.50721 7.98379 6.347906 10.42546l-.06743-5.01156c1.359555 2.15208 3.017549 3.64096 4.91982 4.5827-.379128-2.17308-.665408-4.34837-.317229-6.52145 1.984065 2.14213 3.979184 3.19993 5.780871 3.32483-1.415927-3.49394-1.94759-7.07521-1.827109-10.61558.149219-4.41026 1.681205-8.72436 3.330356-12.80413 6.186527-15.30881-3.583476-19.88376-10.22761-21.02336 10.614476-5.13425 24.903064 8.61715 16.837478 29.2238l2.851749 6.181z" stroke-linejoin="round"/><path d="m68.49392 95.532927c-6.606552-7.64224-14.822463-9.15765-19.435001-5.32879 2.788745-.0354 5.072355.42997 6.765719 1.46014 8.840422 5.3719-4.622486 18.619273 5.225996 32.422623-1.858058.53387-3.533737-.48966-5.183993-1.73647-.391287 2.57541-.330494 5.20389.72399 7.94952-3.604478.11717-7.046473-1.15064-10.133657-5.46806-.102796 1.33413-.04753 2.60968.166905 3.82554.0829.4753.191222.94285.323861 1.40046-2.259293-.75052-3.857598-2.73901-5.364162-4.90324-.06853.44102-.139271.88205-.208907 1.32308-.208907 1.32307-.417815 2.64615-.626722 3.97034-5.640494-3.61774-5.285684-12.59302-.408972-19.14541 1.775159-2.3853-1.113066-3.652-2.08244-1.93211-2.059228 3.47847-2.645052 7.44107-2.87275 11.45563-.394602 6.97131-.987059 14.01004-9.783268 15.13085.253121-1.54194.506241-3.08498.758256-4.62801-1.906693 2.52457-4.739651 5.12762-7.876575 5.35863.173537-1.17717.347073-2.35435.52061-3.53263-4.640172 6.82762-10.3226682-.0597-15.6580922 1.40487 2.083545-4.05877 4.168196-8.11864 6.252847-12.17851-1.903377.93621-3.807859 1.87132-5.711236 2.80643.341547-3.45084 2.274768-6.71598 5.256946-9.85733-1.182703.68641-2.211764 1.95312-3.394466 2.63842-.271911-2.35988 1.034588-5.69465 3.361306-8.0479l-4.317416 2.07581c3.056235-6.94036 4.9971928-9.53678 9.5776772-10.77033 3.730485-1.00474 7.981581-.95832 11.644642-2.483673 3.088289-1.2855 1.157279-5.04693-1.617097-3.09603-1.977434 1.39051-4.285361 2.07691-6.157788 2.54447-4.493163 1.12191-7.625666-.82016-9.2637632-6.98679l3.8111742-.56371c-2.511307-2.06255-3.8167012-4.73192-3.8973902-7.21891l2.4615682.62783c-2.7213202-4.37158-2.5046762-8.5243-1.4557184-12.1133 1.9685914 2.50246 4.4699504 4.03776 6.8994644 5.09667l-.857736-3.02971c2.624052.81795 4.807077 2.57652 7.79036 4.07535l-.980427-2.93133c4.339522 1.65799 8.007004 2.55994 12.586382 2.46267 9.18639-.19343 12.719022 3.2563 9.713632 9.86727 6.157789-4.24004 14.638979-5.0193 21.661135.33492-1.158385-4.56833-2.633999-9.31572-2.898173-13.98794-.224382-3.97698.378022-7.67651 1.350712-12.31005 1.000323-4.76397.513978-8.84042-2.23387-14.25322 4.799339 1.51872 9.072541 3.82444 9.656155 11.64243 1.973012-.30286 3.816701.22991 4.275413 2.36762-5.909089 2.22613-8.259019 6.81103-8.2966 12.24594-.02984 4.18809 1.750841 10.08613 2.742321 14.14489 3.687378 15.096593 5.736658 28.445653.890895 43.774353-5.817453 10.81564-9.098956 16.59006-25.946055 25.47936 8.535352-5.39621 18.574581-16.95848 21.722558-27.07003 3.758119-12.07793 2.926911-22.80846.521715-34.312733z" stroke-linejoin="round"/><path d="m82.015977 197.20252c-.771659 17.76481-16.993344 45.36184-32.02554 54.64866-7.077751 4.3726-24.877921 11.01014-31.82602 3.09377-1.649151-1.87905-2.591841-4.32597-2.358617-6.95333v-.12252l.03063-.21442v-.0306c.276333-2.10787 1.349258-4.02305 2.909983-5.3605 2.993231-2.56547 7.470575-2.53282 10.047097.582 1.844795 2.23056 1.881934 5.55805-.490102 7.4128-1.464561 1.14401-3.68722 1.16946-4.809129-.42884-.439921-.62783-.579206-1.72528.21442-2.1442 1.032378.57919 2.358575.27511 3.001876-.73515.562613-.88205.438043-2.02621-.245051-2.75683-1.687837-1.80942-4.755188-1.00337-6.279436.61263-.254226.2697-.479352.55261-.67389.85768-1.445772 2.27366-1.008269 5.31994.765784 7.35153 2.765533 3.16456 7.464054 3.38952 10.782252.79642 4.358313-3.40773 4.663147-9.65177 1.194624-13.84539-4.178144-5.05135-11.516294-5.3052-16.418428-1.10273-5.759869 4.93419-6.0184475 13.41886-1.072099 19.05273 8.537562 9.72468 27.545886 3.4635 36.8802-1.80726 17.824779-10.06503 30.055954-36.4931 30.371445-58.90642z" transform="translate(0 -98.020463)"/></g><g transform="matrix(.60109254 0 0 .60109254 -253.24225 115.18263)"><path d="m98.871079-29.528318c-1.812375-5.7268-5.098028-9.618683-9.495533-6.38791-4.73419 3.478144-2.809534 7.064037.690573 9.668184 1.449762 1.07863 1.296718 3.129014-.517928 2.589673-6.014853-1.787878-5.655699 3.884465-1.899073 5.869942 1.890726.999314 1.15594 2.00925.345286 2.589686-4.802558 3.438822.325308 7.3490817 5.179372 6.0426277 1.283061-.345328 3.150268.268784 2.417 1.553786-3.291722 5.76908 4.906624 5.874832 9.322884 6.387871 1.41402.164297 2.83525-.09534 2.76232 1.03589897-.31106 4.82460603 3.40523 5.90113603 10.70421 3.28025603 1.18733-.42655 2.23221-1.431973 2.76202-.51793 1.55236 2.67724 6.6208 1.32092 11.91262 0l-13.63904-27.2779997z" fill-rule="evenodd"/><path d="m98.609794-3.7637053 3.901176.05574c1.12076-10.2300177 17.58155-6.3034437 22.79308-4.904568l.25844-3.8766817c-8.912-2.044702-26.343607-4.341079-26.952696 8.7255097z"/><path d="m113.8978-4.0137053 3.90117-.131758c-.0106-4.711178 2.75812-6.0787567 7.11657-4.806599l.6782-3.4121507c-7.32733-2.160824-11.73047 1.002143-11.69594 8.3505077z"/><g fill-rule="evenodd"><path d="m100.49609-2.7770953c3.6287 0 6.57168 3.828491 6.57168 8.549362 0 4.7208703-2.94298 8.5494503-6.57168 8.5494503-3.628744 0-6.571555-3.82858-6.571555-8.5494503 0-4.720871 2.942811-8.549362 6.571555-8.549362z"/><path d="m100.49609-5.2653283c3.98099 0 7.2094 3.228498 7.2094 7.209527 0 .570948-.067 1.126058-.19262 1.658818h-14.033725c-.125563-.53276-.192621-1.08787-.192621-1.658818 0-3.981029 3.22854-7.209527 7.209566-7.209527z"/><path d="m115.9999-2.7770953c3.6287 0 6.57168 3.828491 6.57168 8.549362 0 4.7208703-2.94298 8.5494503-6.57168 8.5494503-3.62875 0-6.57156-3.82858-6.57156-8.5494503 0-4.720871 2.94281-8.549362 6.57156-8.549362z"/><path d="m115.9999-5.2653283c3.98099 0 7.2094 3.228498 7.2094 7.209527 0 .570948-.067 1.126058-.19262 1.658818h-14.03373c-.12556-.53276-.19262-1.08787-.19262-1.658818 0-3.981029 3.22854-7.209527 7.20957-7.209527z"/><path d="m122.21997-62.287977c-3.0124-5.491316-3.036-13.423406 6.65872-10.883077 1.55826.408425 3.69016.476706 2.20735-3.67962-.89145-2.498602-1.66573-3.967921-.98123-5.886972 1.17638-3.294798 3.28805-2.72157 4.66043-.98081 1.55615 1.973001 2.75108 1.820421 2.9437-1.471848.13614-2.332534-1.06511-5.003104 1.22654-6.868204 2.30387-1.874794 3.4655-.116753 4.41512 3.434313.54541 2.039176 2.54834 1.731908 3.43389-.490616.68282-1.713785.86027-3.588579 1.22654-5.396355.70515-3.480677 3.08237-3.44485 4.90574-1.717156 1.49377 1.415368 1.92116 1.750032 3.43389.245307 2.16563-2.153399 4.05896-1.844868 5.36306-.286192.85562 1.022538 1.67375 2.817249-.0649 3.600801-1.48871.670593-.96521 1.644238-.48092 1.993233 2.2849 1.645503-.4649 5.166642-4.41513 3.679199-1.81915-.684924-4.21406.183771-3.10006 2.050978 2.10746 3.531677 2.70724 5.870533-4.90575 7.603705-2.80713.639402-3.7989 1.256466-2.20776 1.962464 5.91352 2.623363 3.46297 6.682663.2453 10.056828-2.37047 2.485998-.70811 2.954824.73592 2.943443 1.77617-.01395 4.88635-1.624385 4.90575.981191l.2453 33.113894-15.69844-7.113353-14.75305-26.891153z"/><path d="m112.04432-68.965456c1.41496.150895 2.14455-1.105782 1.87564-2.503616-.83539-4.342627-2.31525-10.177333 4.10279-10.488814 5.54431-.269334 5.54894 5.219328 4.34263 10.601773-.56563 2.521953.48093 3.447548 1.85246 2.509518 3.86634-2.643973 7.32215.01206 4.41554 5.486892-1.00357 1.889672-.24362 3.099774 1.18102 1.281165 3.3243-4.244081 9.80558-2.331354 7.2134 8.330399-.49103 2.019028-.20357 3.161481.88092 2.743445 4.00501-1.543543 5.85115 1.847229 4.41555 10.592629-.38313 2.332828.44552 3.785919 1.47142 3.298212 3.13801-1.491574 5.42629 1.444831 8.13985 5.886912-.0818 3.352202-.16354 6.704504-.24531 10.056803-6.54113-.572386-13.08183-1.144729-19.62295-1.71703-7.03174-7.358617-14.06306-14.717258-21.09481-22.075909-5.40251-4.632992-4.83834-10.820613 1.22655-11.283241 2.92092-.222844 2.06572-2.240565 0-2.943444-6.24555-2.125287-7.74226-10.585041-.1547-9.775694z"/><path d="m146.90546-23.057746c-.72792.727958-1.65604.447076-2.32452-.871728-2.07038-4.086373-4.28489-4.827248-7.119-3.777402-1.32179.489739-2.29839 1.375427-2.61493-1.743415-.86363-8.503847-4.03367-15.207879-8.13605-11.041689-.60484.614112-1.79892.475527-2.03411-.871687-1.33192-7.6287-4.52514-13.694678-9.15269-6.683126-1.36268 2.064549-2.6339 2.077616-2.32453-.72644.65626-5.953103-3.62819-7.997843-5.95693-2.615102-.8977 2.075087-2.4828.884458-2.32449-1.452881.42272-6.239465-2.46893-10.252021-7.264275-8.281253-6.190404 2.544038-3.594016 7.283878-.726441 11.041685.685345.897987.832193 2.55192-.58111 2.905719-8.570987 2.145561-2.222188 8.648752 2.905677 9.007652 2.226819.155826 3.005489 1.401248.871729 3.196254-8.178747 6.880169-.53597 11.149839 7.11891 10.896396 1.56246-.05159 1.93886 1.094066 1.45287 1.888704-3.85037 6.294469 1.53718 7.004892 8.13606 5.81144 1.48912-.269334 2.46403.235107 2.17911 1.162262-1.54814 5.041374 8.49347 6.5457197 15.10962 1.162262.74562-.606567 2.39576-.387688 2.76035.726441 1.30198 3.9758437 5.85241 4.2126807 10.17016 1.888703 1.56163-.840411 2.86151 1.5495287 4.6048-.145288 0-3.632118.17281-7.264237.17281-10.896396-1.25942-1.35615-4.00164-1.502533-4.92302-.581111z"/><path d="m124.76788-4.8400013c.13994.09281.27229.195699.39621.306214 1.19661 1.06827 1.58945 2.847301.2942 3.146687-3.51144.81170697-1.37448 5.136127 3.10766 6.215267 1.99702.48063 3.11692 1.05041 1.20883 2.24436-5.54219 3.4677403 2.82062 8.2767903 8.97735 2.9349803 1.54772-1.3428303 2.73506-1.1381603 3.45286.34528 3.00818 6.21379 8.63973 5.14405 15.71066-1.2085103 1.15195-1.0348 1.9945-1.07615 3.10766 0 2.3435 2.2653103 4.83409.9205903 7.25135-3.79818l-8.45976-9.495526-7.07853-2.071757c-1.55362.978408-.92686 7.437511-2.41683 6.04262697-1.42885-1.33781297-3.04232-1.99816397-5.00689-1.03589897-2.58375 1.26578097-2.3258-.744438-1.89925-2.417042.94498-3.704405-2.23812-6.8960207-4.83366-3.798187-1.47312 1.757873-2.45814.0779-2.41725-2.071756.0763-3.9965397-3.46129-5.0096787-4.66127-2.0717147-.98629 2.4137967-1.91021 3.1603847-2.58965.863214-.99893-3.376483-2.3456-4.439442-4.83409-2.762328-2.80713 1.89178-3.51565 5.8427137.6904 8.6322707z"/></g></g><g transform="matrix(-.60109254 0 0 .60109254 -24.6351 115.18263)"><path d="m98.871079-29.528318c-1.812375-5.7268-5.098028-9.618683-9.495533-6.38791-4.73419 3.478144-2.809534 7.064037.690573 9.668184 1.449762 1.07863 1.296718 3.129014-.517928 2.589673-6.014853-1.787878-5.655699 3.884465-1.899073 5.869942 1.890726.999314 1.15594 2.00925.345286 2.589686-4.802558 3.438822.325308 7.3490817 5.179372 6.0426277 1.283061-.345328 3.150268.268784 2.417 1.553786-3.291722 5.76908 4.906624 5.874832 9.322884 6.387871 1.41402.164297 2.83525-.09534 2.76232 1.03589897-.31106 4.82460603 3.40523 5.90113603 10.70421 3.28025603 1.18733-.42655 2.23221-1.431973 2.76202-.51793 1.55236 2.67724 6.6208 1.32092 11.91262 0l-13.63904-27.2779997z" fill-rule="evenodd"/><path d="m98.609794-3.7637053 3.901176.05574c1.12076-10.2300177 17.58155-6.3034437 22.79308-4.904568l.25844-3.8766817c-8.912-2.044702-26.343607-4.341079-26.952696 8.7255097z"/><path d="m113.8978-4.0137053 3.90117-.131758c-.0106-4.711178 2.75812-6.0787567 7.11657-4.806599l.6782-3.4121507c-7.32733-2.160824-11.73047 1.002143-11.69594 8.3505077z"/><g fill-rule="evenodd"><path d="m100.49609-2.7770953c3.6287 0 6.57168 3.828491 6.57168 8.549362 0 4.7208703-2.94298 8.5494503-6.57168 8.5494503-3.628744 0-6.571555-3.82858-6.571555-8.5494503 0-4.720871 2.942811-8.549362 6.571555-8.549362z"/><path d="m100.49609-5.2653283c3.98099 0 7.2094 3.228498 7.2094 7.209527 0 .570948-.067 1.126058-.19262 1.658818h-14.033725c-.125563-.53276-.192621-1.08787-.192621-1.658818 0-3.981029 3.22854-7.209527 7.209566-7.209527z"/><path d="m115.9999-2.7770953c3.6287 0 6.57168 3.828491 6.57168 8.549362 0 4.7208703-2.94298 8.5494503-6.57168 8.5494503-3.62875 0-6.57156-3.82858-6.57156-8.5494503 0-4.720871 2.94281-8.549362 6.57156-8.549362z"/><path d="m115.9999-5.2653283c3.98099 0 7.2094 3.228498 7.2094 7.209527 0 .570948-.067 1.126058-.19262 1.658818h-14.03373c-.12556-.53276-.19262-1.08787-.19262-1.658818 0-3.981029 3.22854-7.209527 7.20957-7.209527z"/><path d="m122.21997-62.287977c-3.0124-5.491316-3.036-13.423406 6.65872-10.883077 1.55826.408425 3.69016.476706 2.20735-3.67962-.89145-2.498602-1.66573-3.967921-.98123-5.886972 1.17638-3.294798 3.28805-2.72157 4.66043-.98081 1.55615 1.973001 2.75108 1.820421 2.9437-1.471848.13614-2.332534-1.06511-5.003104 1.22654-6.868204 2.30387-1.874794 3.4655-.116753 4.41512 3.434313.54541 2.039176 2.54834 1.731908 3.43389-.490616.68282-1.713785.86027-3.588579 1.22654-5.396355.70515-3.480677 3.08237-3.44485 4.90574-1.717156 1.49377 1.415368 1.92116 1.750032 3.43389.245307 2.16563-2.153399 4.05896-1.844868 5.36306-.286192.85562 1.022538 1.67375 2.817249-.0649 3.600801-1.48871.670593-.96521 1.644238-.48092 1.993233 2.2849 1.645503-.4649 5.166642-4.41513 3.679199-1.81915-.684924-4.21406.183771-3.10006 2.050978 2.10746 3.531677 2.70724 5.870533-4.90575 7.603705-2.80713.639402-3.7989 1.256466-2.20776 1.962464 5.91352 2.623363 3.46297 6.682663.2453 10.056828-2.37047 2.485998-.70811 2.954824.73592 2.943443 1.77617-.01395 4.88635-1.624385 4.90575.981191l.2453 33.113894-15.69844-7.113353-14.75305-26.891153z"/><path d="m112.04432-68.965456c1.41496.150895 2.14455-1.105782 1.87564-2.503616-.83539-4.342627-2.31525-10.177333 4.10279-10.488814 5.54431-.269334 5.54894 5.219328 4.34263 10.601773-.56563 2.521953.48093 3.447548 1.85246 2.509518 3.86634-2.643973 7.32215.01206 4.41554 5.486892-1.00357 1.889672-.24362 3.099774 1.18102 1.281165 3.3243-4.244081 9.80558-2.331354 7.2134 8.330399-.49103 2.019028-.20357 3.161481.88092 2.743445 4.00501-1.543543 5.85115 1.847229 4.41555 10.592629-.38313 2.332828.44552 3.785919 1.47142 3.298212 3.13801-1.491574 5.42629 1.444831 8.13985 5.886912-.0818 3.352202-.16354 6.704504-.24531 10.056803-6.54113-.572386-13.08183-1.144729-19.62295-1.71703-7.03174-7.358617-14.06306-14.717258-21.09481-22.075909-5.40251-4.632992-4.83834-10.820613 1.22655-11.283241 2.92092-.222844 2.06572-2.240565 0-2.943444-6.24555-2.125287-7.74226-10.585041-.1547-9.775694z"/><path d="m146.90546-23.057746c-.72792.727958-1.65604.447076-2.32452-.871728-2.07038-4.086373-4.28489-4.827248-7.119-3.777402-1.32179.489739-2.29839 1.375427-2.61493-1.743415-.86363-8.503847-4.03367-15.207879-8.13605-11.041689-.60484.614112-1.79892.475527-2.03411-.871687-1.33192-7.6287-4.52514-13.694678-9.15269-6.683126-1.36268 2.064549-2.6339 2.077616-2.32453-.72644.65626-5.953103-3.62819-7.997843-5.95693-2.615102-.8977 2.075087-2.4828.884458-2.32449-1.452881.42272-6.239465-2.46893-10.252021-7.264275-8.281253-6.190404 2.544038-3.594016 7.283878-.726441 11.041685.685345.897987.832193 2.55192-.58111 2.905719-8.570987 2.145561-2.222188 8.648752 2.905677 9.007652 2.226819.155826 3.005489 1.401248.871729 3.196254-8.178747 6.880169-.53597 11.149839 7.11891 10.896396 1.56246-.05159 1.93886 1.094066 1.45287 1.888704-3.85037 6.294469 1.53718 7.004892 8.13606 5.81144 1.48912-.269334 2.46403.235107 2.17911 1.162262-1.54814 5.041374 8.49347 6.5457197 15.10962 1.162262.74562-.606567 2.39576-.387688 2.76035.726441 1.30198 3.9758437 5.85241 4.2126807 10.17016 1.888703 1.56163-.840411 2.86151 1.5495287 4.6048-.145288 0-3.632118.17281-7.264237.17281-10.896396-1.25942-1.35615-4.00164-1.502533-4.92302-.581111z"/><path d="m124.76788-4.8400013c.13994.09281.27229.195699.39621.306214 1.19661 1.06827 1.58945 2.847301.2942 3.146687-3.51144.81170697-1.37448 5.136127 3.10766 6.215267 1.99702.48063 3.11692 1.05041 1.20883 2.24436-5.54219 3.4677403 2.82062 8.2767903 8.97735 2.9349803 1.54772-1.3428303 2.73506-1.1381603 3.45286.34528 3.00818 6.21379 8.63973 5.14405 15.71066-1.2085103 1.15195-1.0348 1.9945-1.07615 3.10766 0 2.3435 2.2653103 4.83409.9205903 7.25135-3.79818l-8.45976-9.495526-7.07853-2.071757c-1.55362.978408-.92686 7.437511-2.41683 6.04262697-1.42885-1.33781297-3.04232-1.99816397-5.00689-1.03589897-2.58375 1.26578097-2.3258-.744438-1.89925-2.417042.94498-3.704405-2.23812-6.8960207-4.83366-3.798187-1.47312 1.757873-2.45814.0779-2.41725-2.071756.0763-3.9965397-3.46129-5.0096787-4.66127-2.0717147-.98629 2.4137967-1.91021 3.1603847-2.58965.863214-.99893-3.376483-2.3456-4.439442-4.83409-2.762328-2.80713 1.89178-3.51565 5.8427137.6904 8.6322707z"/></g></g><g transform="matrix(-.60109254 0 0 .60109254 -24.63511 115.18263)"><path d="m70.497882 128.69502c-4.051031.59024-7.751673 4.01787-11.047764 9.26929-.900844-2.9026.05527-5.81293 1.832635-8.6061-4.09856.71073-6.068257 4.77392-7.5914 9.88938-1.044536-2.37867-1.312026-5.00272-1.042325-7.12826-2.811958 2.06365-4.053242 6.28269-5.254735 10.43099-.910791-2.51021-1.270023-5.07015-1.081012-7.67651-3.490629 3.91618-4.072032 7.62898-3.292775 11.24672-1.018008-2.87496-2.785429-5.16741-5.144202-6.49934 3.301618 13.72598-1.375029 19.26368-9.892695 22.9179 20.768028-2.45162 36.350958-14.25985 42.514273-33.84407z" fill-rule="evenodd" stroke-linejoin="round"/><path d="m23.993964-1.9744563c.993853-.31476 2.053226.21074 2.41042 1.17871997.832064-.0605 1.302392-.34092997 1.387866-1.35979997.145335-1.73016-1.370443-2.94563-3.012309-2.99872-1.746401-.0566-3.272714.96005-4.020979 2.47773-.701733 1.42271-.671579 3.15693997-.01229 4.661403 1.131706 2.5817 4.074401 3.92281 7.033996 5.27144 3.896939 1.77592 7.817963 3.5628603 9.432319 8.1265403l-3.675697 1.29624c-1.064548-3.00906-4.228633-4.45125-7.373285-5.88427-3.638247-1.6579103-7.25561-3.3066703-8.9863-7.2543003-1.103785-2.518573-1.130216-5.470243.0886-7.940483 1.416493-2.87304 4.354459-4.75015 7.635587-4.64357 3.868162.12538 7.111838 3.25972 6.779623 7.20837-.258319 3.0766-3.005386 5.527643-6.114784 4.837003-.968948-.21529-1.849556-.7444-2.428587-1.654113-.731886-1.15099003-.700988-2.82904.855815-3.32219z"/><path d="m68.014207 22.979127c-4.765073-4.18367-5.835032-10.81564-5.321054-14.4444403 3.293881 7.8964703 10.771432 7.7118803 18.201454 3.8421203 2.803115-1.45903 6.021833-.62009 9.599784.0166-.93953-3.9194903-3.370149-5.6316503-6.014096-7.0265703 2.227238-.89643 3.739328-2.655 4.304152-5.25915903l-2.44941-.649934c2.556627-2.69037097 4.458898-5.62391397 4.174828-9.04711897-1.795054 1.67789-3.850966 3.520474-5.993094 4.614749l.623406-4.88666c-1.438034 1.113067-2.58426 2.11339-4.36384 2.5511-4.666699 1.151753-6.393223 3.750382-7.636718 4.663383-1.813846 1.333027-3.299408-.532768-1.565146-1.902271 1.674573-1.323079 3.799016-2.423987 6.165525-3.348042 5.045828-1.971907 7.182429-5.3685827 6.729244-12.3144707l-3.339199 1.516511c1.760789-2.658316 2.983283-5.849401 3.385623-8.539772l-2.858381.374706c1.546355-4.127299 2.838485-7.901998 2.842906-11.937554-4.726387 1.86469-8.726573 5.312212-12.145356 9.96012l.176853-4.460003c-2.774377 1.787318-5.271315 4.819235-7.327227 8.067798l-.42113-3.311566c-5.486854 4.210198-8.549721 13.323637-6.146736 19.4991097 1.053379 2.343298-1.365081 4.025609-2.755585 1.967486-2.327823-3.4475207.698568-10.5183117 2.480358-15.7387807-3.584582.666513-6.472807 3.119239-7.930736 7.87768-.972689-2.003961-1.174965-4.057663-.604615-6.157788-4.297519 1.156174-7.20564 4.327363-7.147058 10.427675-4.700964-2.931333-8.592828-1.348502-10.995814 1.8713217 15.070057 1.582831 13.366745 23.8673703 27.333684 16.64736-1.264497 3.6752203-.565929 9.3400303 2.608576 12.7123903l6.388802 2.41404z" stroke-linejoin="round"/><g fill-rule="evenodd" transform="translate(0 -98.020463)"><path d="m28.569433 153.18346c2.118916.0564 3.792384 1.82047 3.736013 3.93829-.05637 2.11781-1.820477 3.79127-3.938288 3.73601-2.117811-.0564-3.791279-1.82048-3.734907-3.93829.05527-2.11781 1.819372-3.79128 3.937182-3.73601z"/><path d="m36.849453 152.75791c2.117811.0553 3.792385 1.81937 3.736013 3.93718-.05637 2.11891-1.820477 3.79238-3.938288 3.73601-2.11781-.0564-3.791279-1.82048-3.736012-3.93829.05637-2.11781 1.820477-3.79128 3.938287-3.7349z"/><path d="m40.746844 159.44294c2.11781.0553 3.791279 1.82047 3.734907 3.93828-.05637 2.11781-1.820477 3.79128-3.938288 3.73491-2.11781-.0553-3.791278-1.82048-3.734907-3.93829.05527-2.11781 1.820477-3.79128 3.938288-3.7349z"/><path d="m33.07586 160.14372c2.117811.0553 3.791279 1.82047 3.734907 3.93828-.05527 2.11781-1.819372 3.79128-3.937182 3.73491-2.117811-.0553-3.792384-1.82048-3.736013-3.93829.05637-2.11781 1.820477-3.79128 3.938288-3.7349z"/><path d="m25.044539 160.44768c2.11781.0564 3.791279 1.82048 3.734907 3.93829-.05527 2.11781-1.819372 3.79128-3.937183 3.73601-2.11781-.0564-3.792384-1.82048-3.736012-3.93829.05637-2.11781 1.820477-3.79128 3.938288-3.73601z"/><path d="m21.179203 152.60205c2.11781.0553 3.792384 1.81938 3.736012 3.93719-.05637 2.11781-1.820477 3.79238-3.938287 3.73601-2.117811-.0564-3.791279-1.82048-3.736013-3.93829.05637-2.11781 1.820477-3.79128 3.938288-3.73491z"/><path d="m17.05522 159.20419c2.117811.0564 3.791279 1.82047 3.736012 3.93828-.05637 2.11781-1.820477 3.79128-3.938287 3.73602-2.117811-.0564-3.791279-1.82048-3.736013-3.93829.05637-2.11781 1.820477-3.79128 3.938288-3.73601z"/><path d="m8.1120022 123.99061c2.1178108.0553 3.7912788 1.82048 3.7349068 3.93829-.05527 2.11781-1.820477 3.79128-3.9382873 3.73491-2.1178106-.0553-3.7912788-1.82048-3.7349071-3.93829.055267-2.11781 1.8204771-3.79128 3.9382876-3.73491z"/><path d="m6.9105095 132.08936c2.1178106.0564 3.7912785 1.82047 3.7360125 3.93828-.05637 2.11782-1.8204772 3.79128-3.9382877 3.73602-2.1178106-.0564-3.7912788-1.82048-3.7360124-3.93829.056372-2.11781 1.820477-3.79128 3.9382876-3.73601z"/><path d="m14.453275 131.51459c2.117811.0564 3.791279 1.82047 3.736013 3.93828-.05637 2.11781-1.820477 3.79128-3.938288 3.73602-2.117811-.0564-3.791279-1.82048-3.736012-3.93829.05637-2.11781 1.820477-3.79128 3.938287-3.73601z"/><path d="m5.9566105 140.19584c2.1178105.0564 3.7912788 1.82048 3.734907 3.93829-.056372 2.11781-1.820477 3.79128-3.9382876 3.73601-2.1178105-.0564-3.7912788-1.82048-3.734907-3.93829.055267-2.11781 1.820477-3.79128 3.9382876-3.73601z"/><path d="m13.993458 139.63433c2.117811.0553 3.791279 1.81938 3.736013 3.93719-.05637 2.11781-1.820477 3.79238-3.938288 3.73601-2.11781-.0564-3.7912787-1.82048-3.736012-3.93829.05637-2.11781 1.820477-3.79128 3.938287-3.73491z"/><path d="m6.9812506 148.09673c2.1178105.0553 3.7912784 1.82048 3.7360124 3.93829-.05637 2.11781-1.8204771 3.79128-3.9382877 3.73491-2.1178105-.0553-3.7912788-1.82048-3.7360123-3.93829.056372-2.11781 1.820477-3.79128 3.9382876-3.73491z"/><path d="m14.892091 147.66013c2.11781.0564 3.791279 1.82048 3.736012 3.93829-.05637 2.11781-1.820477 3.79127-3.938287 3.7349-2.117811-.0553-3.791279-1.82047-3.736013-3.93828.05637-2.11782 1.820477-3.79128 3.938288-3.73491z"/><path d="m10.109332 155.79425c2.11781.0553 3.791279 1.82047 3.736012 3.93828-.05637 2.11781-1.820477 3.79128-3.9382873 3.73491-2.1178106-.0553-3.7912788-1.82048-3.7360124-3.93829.056372-2.11781 1.8204771-3.79128 3.9382877-3.7349z"/></g><path d="m72.589165 123.21922c-10.973708-8.38282-18.092027-28.235643-10.896335-42.624813 1.664626-3.32815 3.674114-7.04316 7.719619-7.29849 2.1156-.13264 3.66085.87984 4.546218 2.23166 1.765211 2.6959 1.152859 7.23659-3.338094 8.93217-1.557408.58803-3.134713-2.84402-1.730945-3.64206 1.189334-.67757 2.473727-1.56957 1.790633-2.64837-.603509-.95722-1.455718-.72289-2.208447-.21665-2.037122 1.3684-3.229772 4.76729-4.024504 6.97905-3.857598 10.72833-.68862 22.307753 8.758628 33.233933z" fill-rule="evenodd"/><path d="m71.033967 59.046017c10.069548-18.70659.06411-48.73175-21.982786-39.05902.718465-9.30245-9.530147-16.6617303-20.156781-12.5145303-9.932487 3.8752803-18.759646 2.19187-26.5035812-6.345696-1.324184 5.626126-.107217 10.4442563 3.649797 14.4543863-1.639203.61346-3.279512.32055-4.91982-.88205 1.687837 9.51688 6.702716 12.84392 13.6486032 11.45784l-2.448304 3.39999c4.677753 3.0684 11.415839 1.87796 16.210757-3.12366 2.799799-2.91917 7.60577-5.02151 8.61604-2.39193.938425 2.44278-2.509097 4.30305-6.031781 5.16299-5.814031 1.41925-11.64022 3.526-14.850096 10.50063l4.01345-1.26007c-1.613781 1.79173-3.147977 4.3782-3.854283 6.77456l2.765534-.25312c-1.279971 3.06618-1.688943 6.85746-1.087644 10.12481 2.697003-.91521 5.668128-.84668 8.366236-2.8219l-.340441 4.10519c3.023075-.40566 5.366372-2.69148 7.164743-3.60116l.362548 4.40694c4.759547-3.2154 6.706031-8.70336 7.549397-14.80699.674251-4.87339 2.472622-8.47676 4.353892-5.99309.656565.86879-.233225 3.15793-1.610465 5.8085-2.992126 5.75987-4.499794 15.45693-1.903376 22.14417l1.359554-3.0485c1.390504 4.25662 3.50721 7.98379 6.347906 10.42546l-.06743-5.01156c1.359555 2.15208 3.017549 3.64096 4.91982 4.5827-.379128-2.17308-.665408-4.34837-.317229-6.52145 1.984065 2.14213 3.979184 3.19993 5.780871 3.32483-1.415927-3.49394-1.94759-7.07521-1.827109-10.61558.149219-4.41026 1.681205-8.72436 3.330356-12.80413 6.186527-15.30881-3.583476-19.88376-10.22761-21.02336 10.614476-5.13425 24.903064 8.61715 16.837478 29.2238l2.851749 6.181z" stroke-linejoin="round"/><path d="m68.49392 95.532927c-6.606552-7.64224-14.822463-9.15765-19.435001-5.32879 2.788745-.0354 5.072355.42997 6.765719 1.46014 8.840422 5.3719-4.622486 18.619273 5.225996 32.422623-1.858058.53387-3.533737-.48966-5.183993-1.73647-.391287 2.57541-.330494 5.20389.72399 7.94952-3.604478.11717-7.046473-1.15064-10.133657-5.46806-.102796 1.33413-.04753 2.60968.166905 3.82554.0829.4753.191222.94285.323861 1.40046-2.259293-.75052-3.857598-2.73901-5.364162-4.90324-.06853.44102-.139271.88205-.208907 1.32308-.208907 1.32307-.417815 2.64615-.626722 3.97034-5.640494-3.61774-5.285684-12.59302-.408972-19.14541 1.775159-2.3853-1.113066-3.652-2.08244-1.93211-2.059228 3.47847-2.645052 7.44107-2.87275 11.45563-.394602 6.97131-.987059 14.01004-9.783268 15.13085.253121-1.54194.506241-3.08498.758256-4.62801-1.906693 2.52457-4.739651 5.12762-7.876575 5.35863.173537-1.17717.347073-2.35435.52061-3.53263-4.640172 6.82762-10.3226682-.0597-15.6580922 1.40487 2.083545-4.05877 4.168196-8.11864 6.252847-12.17851-1.903377.93621-3.807859 1.87132-5.711236 2.80643.341547-3.45084 2.274768-6.71598 5.256946-9.85733-1.182703.68641-2.211764 1.95312-3.394466 2.63842-.271911-2.35988 1.034588-5.69465 3.361306-8.0479l-4.317416 2.07581c3.056235-6.94036 4.9971928-9.53678 9.5776772-10.77033 3.730485-1.00474 7.981581-.95832 11.644642-2.483673 3.088289-1.2855 1.157279-5.04693-1.617097-3.09603-1.977434 1.39051-4.285361 2.07691-6.157788 2.54447-4.493163 1.12191-7.625666-.82016-9.2637632-6.98679l3.8111742-.56371c-2.511307-2.06255-3.8167012-4.73192-3.8973902-7.21891l2.4615682.62783c-2.7213202-4.37158-2.5046762-8.5243-1.4557184-12.1133 1.9685914 2.50246 4.4699504 4.03776 6.8994644 5.09667l-.857736-3.02971c2.624052.81795 4.807077 2.57652 7.79036 4.07535l-.980427-2.93133c4.339522 1.65799 8.007004 2.55994 12.586382 2.46267 9.18639-.19343 12.719022 3.2563 9.713632 9.86727 6.157789-4.24004 14.638979-5.0193 21.661135.33492-1.158385-4.56833-2.633999-9.31572-2.898173-13.98794-.224382-3.97698.378022-7.67651 1.350712-12.31005 1.000323-4.76397.513978-8.84042-2.23387-14.25322 4.799339 1.51872 9.072541 3.82444 9.656155 11.64243 1.973012-.30286 3.816701.22991 4.275413 2.36762-5.909089 2.22613-8.259019 6.81103-8.2966 12.24594-.02984 4.18809 1.750841 10.08613 2.742321 14.14489 3.687378 15.096593 5.736658 28.445653.890895 43.774353-5.817453 10.81564-9.098956 16.59006-25.946055 25.47936 8.535352-5.39621 18.574581-16.95848 21.722558-27.07003 3.758119-12.07793 2.926911-22.80846.521715-34.312733z" stroke-linejoin="round"/><path d="m82.015977 197.20252c-.771659 17.76481-16.993344 45.36184-32.02554 54.64866-7.077751 4.3726-24.877921 11.01014-31.82602 3.09377-1.649151-1.87905-2.591841-4.32597-2.358617-6.95333v-.12252l.03063-.21442v-.0306c.276333-2.10787 1.349258-4.02305 2.909983-5.3605 2.993231-2.56547 7.470575-2.53282 10.047097.582 1.844795 2.23056 1.881934 5.55805-.490102 7.4128-1.464561 1.14401-3.68722 1.16946-4.809129-.42884-.439921-.62783-.579206-1.72528.21442-2.1442 1.032378.57919 2.358575.27511 3.001876-.73515.562613-.88205.438043-2.02621-.245051-2.75683-1.687837-1.80942-4.755188-1.00337-6.279436.61263-.254226.2697-.479352.55261-.67389.85768-1.445772 2.27366-1.008269 5.31994.765784 7.35153 2.765533 3.16456 7.464054 3.38952 10.782252.79642 4.358313-3.40773 4.663147-9.65177 1.194624-13.84539-4.178144-5.05135-11.516294-5.3052-16.418428-1.10273-5.759869 4.93419-6.0184475 13.41886-1.072099 19.05273 8.537562 9.72468 27.545886 3.4635 36.8802-1.80726 17.824779-10.06503 30.055954-36.4931 30.371445-58.90642z" transform="translate(0 -98.020463)"/></g></g><path d="m-68.28119 283.20353c3.08756-2.98761 7.09983-5.79362 10.93212-8.61933 8.34758-6.2102 13.73392-11.44704 17.43133-18.24989 6.39955-11.77392 7.79746-26.69446 8.20341-40.50878-.25513 8.68112-2.08889 19.55744-5.83281 29.39861 1.30489-6.72445.75742-12.58317 2.0271-20.18464-.9222.54814-1.75071.9707-2.71277.90559.50097-1.54607 1.16005-3.4981 1.12085-4.99965l-1.40388 1.17865c.16942-2.23306.63916-5.09731 1.04976-7.33104-1.32283 1.75336-2.32941 4.10669-2.93136 6.33909l-.64314-2.32675c-.94678 1.81848-1.31353 4.24754-1.41851 6.18561l-.6179-1.52614c-.61656 1.60853-.49298 3.7725-.26443 5.50128l-1.00458-.61192c-.58003 4.98171 3.78047 15.43015 3.11539 22.12004-.16809 1.68892-.53617 3.30276-1.07035 4.74452-1.35671 2.27758-2.89083 4.36913-4.56779 6.32115 2.74267-5.55842 3.37718-12.45228 2.7925-18.0778l-1.59989 1.29958c1.03714-2.6337.27374-5.191.20464-7.55695l-1.9394 2.02777c1.46169-3.48016-.36542-6.72312-.0598-9.87506-2.6337 1.56667-4.20036 4.44753-3.9047 9.10501l-1.83509-.83515c.0658 1.33279.73417 3.035 1.33479 4.63488l-1.79987-.99993c-.16544 2.21978 1.10889 5.60227 2.78984 8.18946l-1.23514-.68965c2.76725 6.85799 3.60572 14.54117-.45445 18.3987l.11893.0126c-1.54541 1.37266-3.15858 2.68686-4.82225 3.96783 3.96583-4.91793 4.53789-11.07564 3.07287-16.55632-.44914.37406-.82785.74348-1.13746 1.10624.11561-1.89821.27772-3.77714-.36011-5.98363l-.81788 1.28562c.25845-2.70479-1.56667-5.51058-.55544-8.90436-2.28888 1.38463-3.95654 3.79043-3.78379 8.06787l-1.2358-1.06038c-.87303 3.50008-.11228 7.06727 1.39924 10.66237l-1.18729-.43319c1.65703 5.21558 2.64101 10.6152.69563 14.70793-1.92478 1.38529-4.1419 2.97587-6.28793 4.72458l1.59855-2.25631c1.83709-2.96524 3.21506-6.84604 3.35525-10.00594l-1.43378.9202c.72752-2.16596 1.23313-4.3771.69962-6.51051l-.79065.55744c.85243-2.48422-1.05839-4.99899.34682-7.75494-2.61244 2.154-3.80704 4.93188-4.3771 7.59149l-.84114-.88565c-.44913 1.28097-.31825 2.83768-.12956 4.32461l-1.18596-.40528c-.2352 1.36469.38735 2.97188 1.01654 4.6907l-.71224.10763c1.22251 2.6842 1.82246 5.71322-.29367 12.00913-2.55198 2.37723-4.73455 4.97174-5.81221 7.6845-.0159-3.76784 3.5333-6.33045 4.46015-9.87372l-1.67497.41857c1.25307-2.11413 2.07228-4.22428 2.19055-6.19557l-1.01389.19201c.48635-2.28024-.44581-4.50733-.40927-6.84071-1.74672 1.79123-2.70346 4.41696-3.55988 7.20015l-.69763-1.33612c-.58932 1.8145-.81522 3.76585-.83781 5.79361l-1.32615-.90757c-1.32815 7.04336-.40928 13.98772 3.68811 19.92817 2.4191 3.50739 7.15365 4.58838 10.673 2.06962 2.90412-2.07893 3.75589-6.0906 1.56069-8.98475-1.7527-2.31147-5.04815-2.93401-7.31975-1.01986-1.75071 1.47564-2.06564 4.17579-.3136 5.76238.53949.48834 1.22649.79131 2.0085.75211.95275-.0472 1.92544-.72287 1.57663-1.82379-.22523-.71092-.98399-1.10424-1.6949-.87901l-.009.001c-.007 0-.0339-.0206-.0691-.0531-.53152-.4797-.23055-1.29825.23919-1.69424 1.08498-.91422 2.62573-.47837 3.43232.58535 1.27964 1.68692.66839 3.96317-.9893 5.1498-2.28954 1.63909-5.30926.85974-6.86995-1.40189-1.45195-2.10538-1.3683-4.69951-.0603-6.66437 1.40331-2.10804 3.14613-4.22691 4.77161-5.79976z" stroke-linejoin="round" stroke-width=".980205"/></g><g fill-rule="evenodd" transform="matrix(.61625053 0 0 .61625053 -255.38337 57.216871)"><path d="m206.77014.48995016 22.53987 22.53987084v64.228992l-22.53987 22.539547h-35.62677l-22.53987-22.539711v-64.228828l22.53987-22.53987084h35.62677z" fill="#c7ad56" stroke="#504416" stroke-width="1.590594"/><path d="m205.6601 3.1704784 20.98007 20.9796556v61.98812l-20.98007 20.979816h-33.4067l-.39262-.39258-.62943-.62931-19.95802-19.957926v-61.98812l20.98007-20.9796556z" fill="#fff"/><path d="m204.55007 5.8505955h-31.18704l-19.41986 19.4198515v59.747412l19.41986 19.419851h31.18704l19.41985-19.419851v-59.747412l-19.41985-19.4198515z" fill="#d40000"/><path d="m209.46875 24.10121c-.34452 2.29695.22982 4.593612 1.72261 6.890438 2.55555 5.655791 3.81893 11.455065 2.2394 17.57041-.63149 1.435522-.57393 3.330392.17226 5.684611 1.26996 3.387744-.12211 6.720643-1.64614 10.096255-1.35342 2.998113-2.21103 6.010406-2.00012 9.024504.19693 2.807154-1.19761 5.09991-3.55211 6.99474 2.29695 6.890314 1.05453 11.896365-3.99859 12.642801.51678-1.550348.80415-3.100655.8613-4.651004-.80375.803912-1.83731 1.378088-3.10029 1.722609.74373-2.641389.88145-5.282655.34453-7.923921-1.72261 1.26322-3.44522.918739-5.16783-1.033524-1.55035 1.725816-3.1007 2.241283-4.65105 2.583832-.0576-.689044-.11511-1.378047-.17226-2.06709-1.55035 1.840725-3.1007 2.470978-4.65104 2.928395-.22982-1.090959-.45923-2.181959-.68905-3.272917-1.61119 1.607741-1.74357 3.282537-1.97134 4.890278.0576 1.780002-.84239 3.033643-2.16292 3.894947.0448-1.786498-.35727-3.394198-1.20583-4.823306-1.72261 4.603725-3.44522 5.575828-5.16783 6.029133.23476-1.05441.30177-2.052865 0-2.928436-1.43564 1.722609-2.87087 2.756175-4.30652 3.100656.17226-2.181917.80416-4.134222 1.89487-5.85679-1.72261-.405327-2.90212-.0073-4.62473.970869.22077-6.032997.79182-10.039976 2.89267-12.35929.31574 3.24977 1.1939 6.11144 2.59337 8.459985 1.09112-2.765302 2.87129-4.830377 5.34009-5.85679 1.26338.208153 2.52676-.227433 3.78974-1.378087 2.25994-1.999173 4.71353-1.270538 6.20139.344522 3.76754 2.448449 7.67116.492526 9.30209-3.100656 2.29366-.462227 3.21293 1.642399 2.54157 4.30751 4.30406-3.358883-.57927-7.599273-2.61763-6.010809-1.17293 3.042988-5.97774 2.969972-7.15931.0677-2.91528.561332-4.50756-1.720928-5.51194-3.832358-.87775 1.449599-.94846 3.285958-.51678 4.606677-5.0819 3.130314-9.50848 3.306563-9.81888-3.272958-.0703-1.4912.68905-2.756138.34453-4.134221-4.88128.919404-8.81615-3.873717-4.99557-8.268468 1.60832-1.849523 3.73835-1.005321 5.64761.12675-.0576 3.444684 5.45315 3.393828 6.25731.472628 1.32053-.114868 2.45029-.229736 3.77083-.599378.0575.91878.1147 1.837478.17226 2.756175-1.37809 1.148434-2.75618 2.296826-4.13427 3.445178 3.1007-1.148352 5.34009-.516783 7.92401 1.722609.0284-3.359088-.20104-6.919257 1.20582-9.81875-1.49279.173536-3.00614.270972-4.47878-.516824-2.20321-1.178528-5.06299-.597198-7.24483-.344522.97683-1.147693 2.59502-2.353109 3.11057-3.961919-1.46402-.861593-3.87567-.459596-6.71818.516742-3.73301.201245-6.37448-5.081287-1.55035-7.75166-1.88089-1.06218-3.15126-2.555054-3.44563-4.392449-.29436-1.837436 1.07673-3.674914 2.41207-6.459867-1.03357-.172302-2.53417.04962-3.50936.63642-1.1088-4.278691.77497-5.488505 3.27666-7.958127 1.01835-1.005198.59325-2.440432 1.60955-3.337915.95381-.841982 1.85664-1.111679 2.69862-1.70822.65533-.464159 1.25064-1.195549 1.95366-2.102077 3.26103-4.203332 8.55138-6.49247 17.74288-4.823306 6.33172 1.403577 12.49611 4.551553 15.85622 12.142135 1.71562 3.703322 3.38561 4.299616 4.38176 6.363171 2.64641 5.483365 2.0844 10.469395-1.11743 14.224108.31574-12.503267-2.09591-18.733521-6.37366-20.671149zm-6.21249 37.308883c-2.65545-1.326368-5.09794-1.248707-7.33692-.499392-1.03192-3.333599-1.323-6.477834 1.65149-8.681335 2.02519 2.467443 6.43121 3.011401 6.99116-1.152422 3.26021-3.014073 7.18932-.100602 3.99489 5.685146.065-2.835522-1.86774-4.298794-3.14962-2.612076-1.02123 2.948252-3.40904 3.441313-5.7619 2.189523-.47403.422594-.52501 1.165331-.34576 1.959088 2.8939.17925 4.18689 1.024397 3.95666 3.111468zm-16.17033 26.131532c.70426-.568543 1.46484-.924905 2.7607-.440355 2.08358-.173782 4.10055-.738831 5.93334-1.666573 2.4614 1.543236 2.73192 4.517471 1.12977 7.408659-1.39166 1.370729-3.23472 1.642564-4.7086.219705-.75894-.732623-1.2897-.792524-2.26119-.22065-4.23951 2.494659-6.06736-2.707416-2.85402-5.300786zm-21.81054-9.344107c-3.01888-4.930322-4.32461-8.512392-3.86127-13.365229.35521-3.717547 1.92735-4.8046-1.54336-7.283143-2.56418-1.831105-4.75712-4.13673-4.65187-8.062429.0477-1.783456 1.78346-3.007125 3.9805-2.249753 1.40646.484962 1.06934 2.220358.34576 3.980338.49047 2.307598 1.7074 4.005458 4.06684 4.326463.86048.117006 1.56802-.351881.77908-2.682419-.57064-1.684992-1.55693-3.115991-2.85567-4.326422-.86747-.808516-.10278-1.467096 0-2.422836.48883-4.547565-3.90609-4.320419-6.2532-2.002091-2.00217 1.97767-1.48744 5.588737-1.02575 8.126769.48636 2.676952 1.62188 5.306048 3.38519 7.46042 1.39618 1.705753.98794 3.307945 1.21159 5.451352.74454 7.143266 2.54691 11.359918 6.42216 13.04898z" fill="#fff"/></g><g fill-rule="evenodd" transform="matrix(.60109254 0 0 .60109254 -253.24225 56.263261)"><path d="m303.26914 300.12038v-186.47897h-226.218867v186.47897c0 62.45883 50.651707 113.10943 113.109427 113.10943 62.45773 0 113.10944-50.6506 113.10944-113.10943z" fill="#d40000" stroke="#504416" stroke-width="1.630705"/><path d="m297.70049 300.12038-.001-180.90921h-215.079354l-.0011 180.90921c0 59.38381 48.158084 107.54079 107.540784 107.54079 59.38271 0 107.54079-48.15698 107.54079-107.54079z" fill="#ffd500"/><path d="m292.38054 300.32376c0 56.44474-45.7761 102.22084-102.22084 102.22084-56.44473 0-102.22083-45.7761-102.22083-102.22084v-175.99713h204.44167z" fill="#005bbb"/></g><path d="m660.44895 188.88696c5.81735-3.91177 13.50662-1.6859 17.30674 4.07397 18.03675 27.34254-51.86016 58.24287-67.29718 63.83583-22.49345 8.15181-43.55578 16.10443-62.61057 32.19359-19.05478-16.08916-40.11712-24.04178-62.61057-32.19359-15.43701-5.59296-85.33393-36.49329-67.29717-63.83583 3.80012-5.75987 11.4894-7.98574 17.30674-4.07397" fill="none" stroke="#504416" stroke-width="1.630692" transform="matrix(.60109239 0 0 .60109239 -468.24591 173.35713)"/><g fill="#c7ad56" stroke="#504416" stroke-width="1.627913"><g fill-rule="evenodd" transform="matrix(.60212332 0 0 .60212332 -253.425056 56.011118)"><path d="m224.80246 452.10136-97.02859-36.49694-2.39112 6.38644 97.0286 36.49736c1.7593.66175 3.72134-.23182 4.3814-1.99534.66005-1.7631-.23098-3.72977-1.99029-4.39152z"/><path d="m123.47972 394.68116-4.03874 4.2655 4.28068 1.61051z"/><path d="m108.46535 434.78608 4.03873-4.26592-4.28067-1.6101z"/><path d="m95.96758 407.20831 5.86197-.24236-1.60638 4.29078z"/><path d="m107.13513 395.23374.15342 5.87854 4.16307-1.89545z"/><path d="m135.42689 405.87555-3.97424 4.32619-1.89081-4.17277z"/><path d="m96.518641 423.59126 3.973909-4.32619 1.89101 4.17277z"/><path d="m124.80995 434.23307-.15301-5.87853-4.16307 1.89544z"/><path d="m122.11577 397.79515c9.3314 3.51018 14.05884 13.94166 10.5571 23.29499-3.50175 9.35331-13.9088 14.09171-23.2402 10.58195-9.3311-3.51018-14.058634-13.94166-10.556962-23.29498 3.501662-9.35332 13.908662-14.09172 23.240062-10.58196z"/><path d="m116.51818 412.7464c1.09511.4119 1.64949 1.63545 1.23877 2.73291-.4111 1.09746-1.63193 1.6534-2.72665 1.24152-1.09472-.41189-1.64911-1.63544-1.23839-2.7329s1.63154-1.6534 2.72627-1.24153z"/><path d="m155.14342 426.00599-2.32115 6.19972c-.66554 1.77827-3.35382.76711-2.68786-1.01116l2.32116-6.19972c.66553-1.77827 3.3538-.76712 2.68785 1.01116z"/><path d="m225.24588 452.37497-2.32115 6.19972c-.66554 1.77827-3.35382.76711-2.68786-1.01116l2.32116-6.19972c.66553-1.77827 3.3538-.76712 2.68785 1.01116z"/><path d="m139.50447 420.12348-2.32115 6.19972c-.66554 1.77827-3.35382.76711-2.68786-1.01116l2.32116-6.19972c.66553-1.77827 3.3538-.76712 2.68785 1.01116z"/><path d="m111.14876 402.06947c1.16899-.0488 2.15739.86094 2.20813 2.03163.0509 1.17082-.85617 2.15961-2.0248 2.20821-1.16861.0488-2.15703-.86107-2.20777-2.03176-.0508-1.17071.85581-2.15947 2.02444-2.20808z"/><path d="m103.54865 409.04947c.79209-.86111 2.13428-.91673 2.99796-.1248.86389.7919.92167 2.13248.12969 2.99319-.79182.86084-2.13412.91638-2.9978.12446-.86374-.7919-.92183-2.13213-.12985-2.99285z"/><path d="m103.11016 419.35917c-.0488-1.16899.86094-2.15739 2.03164-2.20812 1.17082-.0509 2.15961.85617 2.2082 2.0248.0488 1.1686-.86107 2.15703-2.03175 2.20777-1.17072.0508-2.15948-.85581-2.20809-2.02445z"/><path d="m110.09016 426.95929c-.86111-.7921-.91673-2.13429-.12479-2.99797.7919-.86388 2.13248-.92167 2.99318-.12968.86084.79182.91639 2.13412.12447 2.99779-.7919.86375-2.13213.92184-2.99286.12986z"/><path d="m120.39986 427.39778c-1.16899.0488-2.15739-.86095-2.20812-2.03165-.0509-1.17081.85617-2.15961 2.0248-2.20819 1.16861-.0488 2.15704.86106 2.20777 2.03174.0508 1.17072-.8558 2.15948-2.02445 2.2081z"/><path d="m127.99998 420.41778c-.79209.86111-2.13429.91672-2.99797.12478-.86388-.79189-.92167-2.13248-.12968-2.99317.79183-.86084 2.13412-.9164 2.99779-.12447.86374.7919.92184 2.13212.12986 2.99286z"/><path d="m128.43847 410.10808c.0488 1.16899-.86095 2.15739-2.03165 2.20811-1.17081.0509-2.15961-.85617-2.20819-2.02479-.0488-1.16861.86106-2.15704 2.03175-2.20777 1.17071-.0508 2.15947.8558 2.20809 2.02445z"/><path d="m121.45847 402.50796c.86111.7921.91673 2.13429.12478 2.99797-.7919.86387-2.13248.92167-2.99317.12968-.86084-.79183-.91639-2.13412-.12446-2.99779.79189-.86374 2.13211-.92184 2.99285-.12986z"/></g><g transform="matrix(.60212332 0 0 .60212332 -253.425056 -3.00929)"><g fill="#c7ad56"><path d="m255.95964 509.40395 14.35663-8.14133c6.00844-3.26902 11.36083.9533 13.44403 4.32495.78734 1.29567.91051 3.42587-.88504 4.41173-2.89461.036-4.74654-3.94345-9.2751-1.32547l-13.59118 7.99564z" fill-rule="evenodd"/><path d="m267.81862 523.55649c.85478 1.47479.3549 3.36519-1.11654 4.22166-1.47058.85646-3.35675.35532-4.21154-1.11906-1.20336-2.07627.2255-3.74495-1.51694-6.75187l-7.6311-13.16739c-1.7277-2.98079-3.84106-2.49397-5.04652-4.57403-.85479-1.47438-.35448-3.36477 1.11611-4.22166 1.47142-.85647 3.35718-.35531 4.21196 1.11906 1.20546 2.08049-.26386 3.6792 1.46384 6.65999l7.68421 13.2597c1.72769 2.98078 3.84106 2.49311 5.04652 4.5736z" fill-rule="evenodd"/><path d="m133.88803 536.13253c31.98783 20.60545 75.53927.34984 121.88479-27.12635l4.1656 8.06271c-84.73664 52.79644-123.76423 34.631-126.05039 19.06364z"/></g><path d="m257.35382 512.06663c-75.88658 46.82686-115.13038 37.71421-123.46327 24.06758" fill="none"/><path d="m254.51158 514.551.18727-7.48452 6.48502 3.68609.23188 7.90365z" fill="#c7ad56" fill-rule="evenodd"/></g></g><g fill="#ffd300" stroke="#000" transform="matrix(.60212332 0 0 .60212332 -253.43814 55.747392)"><g stroke-width=".490102"><path d="m245.40625 221.25-1.8125.6875c7.13478 18.8006 5.35598 37.63969-3.53125 52.5625s-24.90834 25.95685-46.5 29.09375l.28125 1.9375c22.10448-3.2114 38.70584-14.58258 47.90625-30.03125s10.98341-34.94246 3.65625-54.25z"/><path d="m147.74163 184.37495c-.60055.25919-1.18806-1.09954-.42776-1.43526 9.31333-2.77178 21.7123-4.06105 30.82851.0166l-1.35592 1.73819c-8.78401-3.92917-20.07921-2.98831-29.04483-.3195zm-9.61837 8.15278c-.78216.22076-1.20886-1.20357-.45103-1.42327 10.05309-3.80535 23.19212-7.61921 34.8851-7.33815l-.11003 1.86689c-11.51665-.27682-24.16449 3.41534-34.32404 6.89453zm-12.56577 12.91489c-.73773.48453-1.55269-.91406-.73209-1.30584 13.77146-7.76241 27.92096-15.29065 43.62843-18.1104l.33819 1.91803c-15.5435 2.79048-29.60836 9.81797-43.23453 17.49821zm11.46164.24438.001-.001.0116-.0116c9.6286-7.65167 22.52985-14.96875 33.79083-19.64975l.64851 1.68106c-11.13368 4.6281-23.98732 11.5749-33.50801 19.13983-.68836.53707-1.58196-.71305-.94438-1.15844zm12.77348-3.33566c7.33889-5.76021 18.34769-12.09389 26.33085-16.28577l.83958 1.64121c-7.81882 4.10548-19.01658 10.06465-26.23099 15.73811-.61748.55576-1.64085-.47713-.93944-1.09355z" fill-rule="evenodd"/><g fill-rule="evenodd"><path d="m206.20968 186.98346-20.96717 2.50906c-7.05006 1.87677-18.0723-.42564-26.32136 1.01315-.99727.17385-.84564-.43975-.0822-.77018 5.22583-2.26291 12.00612-9.35635 19.85245-11.42814l27.51824 8.67611z"/><path d="m180.97199 174.42298c7.29903 1.15315 21.1911 8.43137 26.02408 14.35932-6.50945.21687-20.86454-2.88075-27.93223-7.36039-5.24135-3.32226-8.4677-6.17833-14.55328-4.98322-.19078.037-.37591-.0875-.41329-.27823-.037-.19114.0874-.37627.27823-.4133 5.4882-1.07803 10.95454-2.21566 16.59649-1.32418z"/><path d="m173.88314 191.50577c6.00377-3.72251 11.28532-6.04115 18.18339-5.87752 6.6343.15728 14.12164 3.00911 15.95715 5.14155-10.14698 3.18543-22.78152 3.02322-32.92815 4.41934-3.41042.46936-6.66568.81425-9.843 2.30347-.17562.0822-.38509.006-.4669-.16927-.0822-.17562-.006-.38474.16927-.4669 3.2348-1.51637 5.89656-3.47108 8.92824-5.35067z"/><path d="m197.57307 174.68358c6.89772 2.65083 15.10481 10.82653 18.59422 17.63256-6.35782-1.39611-15.86476-4.98074-21.38046-10.24925-4.4874-4.28603-7.53248-8.74592-13.73338-8.84678-.1943-.004-.34947-.16363-.34594-.35829.004-.19466.16398-.34947.35829-.34594 5.59223.0906 11.17564.11884 16.50727 2.1677z"/><path d="m189.56417 192.72063c4.25359-2.01536 6.70905-4.04483 11.2638-4.54382 5.0668-.55507 16.10632 2.90332 19.15987 7.31595-4.51491.88408-10.14275.71799-15.2896.49053-4.87777-.21582-9.52491.17667-14.37166.30821-3.26583.0889-6.37298.0772-9.52491 1.14468-.17421.0589-.36358-.0339-.42282-.20629-.0592-.1728.0339-.36076.20806-.41965 3.2087-1.0865 5.9223-2.64236 8.97726-4.08961z"/><path d="m216.64759 180.03778c3.1946 2.39869 6.98271 5.17858 10.0091 9.76013 2.07037 3.13466 3.58075 7.45349 5.11017 11.72013-4.23879-2.1536-12.96391-7.07122-16.59403-10.17202-2.98196-2.54715-5.21419-7.0014-7.71797-10.15368-2.54644-3.20519-4.52442-5.98861-8.68633-7.88407-.17702-.0807-.25531-.28952-.17456-.46655.0804-.17702.28952-.25531.46655-.17456 6.154 2.80247 11.77479 3.0063 17.58707 7.37062z"/><path d="m203.53558 195.41448c3.77188-1.35768 7.38154-3.50529 12.42647-2.70091 3.92387.62595 9.429 4.06211 16.66808 9.46815-8.92154 1.87994-20.03089-1.70821-28.59168-2.74252-2.87687-.3477-5.60317-.51768-8.49591.11955-.15974.0349-.31526-.0822-.34664-.26096-.0317-.17914.0723-.35299.23203-.38826 2.94494-.64851 5.25511-2.46816 8.10765-3.49505z"/><path d="m233.36892 189.07993c3.94538 5.45011 7.30608 13.55846 7.88794 23.53723-3.41253-3.31062-8.32064-8.74487-10.87237-12.78053-1.62075-2.56407-2.76508-5.63384-4.27828-8.88734-2.47838-5.33021-4.11994-9.47554-8.49202-13.36838-.14529-.12942-.15834-.35229-.0289-.49758.12942-.14494.35229-.15799.49758-.0289 5.05022 4.49692 11.02401 6.13777 15.28607 12.02552z"/><path d="m215.7688 200.86036c4.85591-.65345 9.72099-3.02463 16.29992 1.09214 2.99042 1.87113 6.66004 6.97107 10.00804 12.47337-2.7069-.0113-6.08029-2.58981-8.70855-3.22704-6.22452-1.50897-12.22194-4.32166-17.95382-6.29823-2.73969-.94473-5.369-1.68423-8.33121-1.66906-.16363.00035-.29093-.1467-.28423-.32831.007-.18162.14528-.32973.30891-.33043 3.01546-.0152 5.65641-1.30831 8.66094-1.71244z"/><path d="m244.93388 223.93069c-2.10458-4.02437-3.14417-8.54915-4.13757-12.63277-.82307-3.38362-1.17395-6.81626-2.08942-10.34411-1.47581-5.68956-3.1544-10.06341-6.75207-14.68128-.11955-.1534-.092-.37486.0614-.49441s.37486-.092.4944.0614c3.37657 4.334 7.52719 6.89349 10.64351 11.21937 5.00508 6.94709 8.67681 20.22168 1.77979 26.87184z"/><path d="m230.99316 210.01994c2.92165-.001 7.24754.87068 9.75272 2.42231 2.33063 3.23234 3.97712 8.84114 4.3079 11.52759-8.04522.38085-14.01337-6.82367-19.61971-11.01696-1.88382-1.40917-3.73379-2.63249-6.02739-3.3547-.1266-.0402-.18867-.1855-.13859-.32408.0504-.13895.19395-.21935.32055-.17915 3.40443 1.07239 7.74266.9264 11.40452.92499z"/></g><g transform="matrix(-.5 -.8660254 .8660254 -.5 63.132906 546.6562)"><path d="m245.40625 221.25-1.8125.6875c7.13478 18.8006 5.35598 37.63969-3.53125 52.5625s-24.90834 25.95685-46.5 29.09375l.28125 1.9375c22.10448-3.2114 38.70584-14.58258 47.90625-30.03125s10.98341-34.94246 3.65625-54.25z"/><g fill-rule="evenodd"><path d="m147.74163 184.37495c-.60055.25919-1.18806-1.09954-.42776-1.43526 9.31333-2.77178 21.7123-4.06105 30.82851.0166l-1.35592 1.73819c-8.78401-3.92917-20.07921-2.98831-29.04483-.3195zm-9.61837 8.15278c-.78216.22076-1.20886-1.20357-.45103-1.42327 10.05309-3.80535 23.19212-7.61921 34.8851-7.33815l-.11003 1.86689c-11.51665-.27682-24.16449 3.41534-34.32404 6.89453zm-12.56577 12.91489c-.73773.48453-1.55269-.91406-.73209-1.30584 13.77146-7.76241 27.92096-15.29065 43.62843-18.1104l.33819 1.91803c-15.5435 2.79048-29.60836 9.81797-43.23453 17.49821zm11.46164.24438.001-.001.0116-.0116c9.6286-7.65167 22.52985-14.96875 33.79083-19.64975l.64851 1.68106c-11.13368 4.6281-23.98732 11.5749-33.50801 19.13983-.68836.53707-1.58196-.71305-.94438-1.15844zm12.77348-3.33566c7.33889-5.76021 18.34769-12.09389 26.33085-16.28577l.83958 1.64121c-7.81882 4.10548-19.01658 10.06465-26.23099 15.73811-.61748.55576-1.64085-.47713-.93944-1.09355z"/><path d="m206.20968 186.98346-20.96717 2.50906c-7.05006 1.87677-18.0723-.42564-26.32136 1.01315-.99727.17385-.84564-.43975-.0822-.77018 5.22583-2.26291 12.00612-9.35635 19.85245-11.42814l27.51824 8.67611z"/><path d="m180.97199 174.42298c7.29903 1.15315 21.1911 8.43137 26.02408 14.35932-6.50945.21687-20.86454-2.88075-27.93223-7.36039-5.24135-3.32226-8.4677-6.17833-14.55328-4.98322-.19078.037-.37591-.0875-.41329-.27823-.037-.19114.0874-.37627.27823-.4133 5.4882-1.07803 10.95454-2.21566 16.59649-1.32418z"/><path d="m173.88314 191.50577c6.00377-3.72251 11.28532-6.04115 18.18339-5.87752 6.6343.15728 14.12164 3.00911 15.95715 5.14155-10.14698 3.18543-22.78152 3.02322-32.92815 4.41934-3.41042.46936-6.66568.81425-9.843 2.30347-.17562.0822-.38509.006-.4669-.16927-.0822-.17562-.006-.38474.16927-.4669 3.2348-1.51637 5.89656-3.47108 8.92824-5.35067z"/><path d="m197.57307 174.68358c6.89772 2.65083 15.10481 10.82653 18.59422 17.63256-6.35782-1.39611-15.86476-4.98074-21.38046-10.24925-4.4874-4.28603-7.53248-8.74592-13.73338-8.84678-.1943-.004-.34947-.16363-.34594-.35829.004-.19466.16398-.34947.35829-.34594 5.59223.0906 11.17564.11884 16.50727 2.1677z"/><path d="m189.56417 192.72063c4.25359-2.01536 6.70905-4.04483 11.2638-4.54382 5.0668-.55507 16.10632 2.90332 19.15987 7.31595-4.51491.88408-10.14275.71799-15.2896.49053-4.87777-.21582-9.52491.17667-14.37166.30821-3.26583.0889-6.37298.0772-9.52491 1.14468-.17421.0589-.36358-.0339-.42282-.20629-.0592-.1728.0339-.36076.20806-.41965 3.2087-1.0865 5.9223-2.64236 8.97726-4.08961z"/><path d="m216.64759 180.03778c3.1946 2.39869 6.98271 5.17858 10.0091 9.76013 2.07037 3.13466 3.58075 7.45349 5.11017 11.72013-4.23879-2.1536-12.96391-7.07122-16.59403-10.17202-2.98196-2.54715-5.21419-7.0014-7.71797-10.15368-2.54644-3.20519-4.52442-5.98861-8.68633-7.88407-.17702-.0807-.25531-.28952-.17456-.46655.0804-.17702.28952-.25531.46655-.17456 6.154 2.80247 11.77479 3.0063 17.58707 7.37062z"/><path d="m203.53558 195.41448c3.77188-1.35768 7.38154-3.50529 12.42647-2.70091 3.92387.62595 9.429 4.06211 16.66808 9.46815-8.92154 1.87994-20.03089-1.70821-28.59168-2.74252-2.87687-.3477-5.60317-.51768-8.49591.11955-.15974.0349-.31526-.0822-.34664-.26096-.0317-.17914.0723-.35299.23203-.38826 2.94494-.64851 5.25511-2.46816 8.10765-3.49505z"/><path d="m233.36892 189.07993c3.94538 5.45011 7.30608 13.55846 7.88794 23.53723-3.41253-3.31062-8.32064-8.74487-10.87237-12.78053-1.62075-2.56407-2.76508-5.63384-4.27828-8.88734-2.47838-5.33021-4.11994-9.47554-8.49202-13.36838-.14529-.12942-.15834-.35229-.0289-.49758.12942-.14494.35229-.15799.49758-.0289 5.05022 4.49692 11.02401 6.13777 15.28607 12.02552z"/><path d="m215.7688 200.86036c4.85591-.65345 9.72099-3.02463 16.29992 1.09214 2.99042 1.87113 6.66004 6.97107 10.00804 12.47337-2.7069-.0113-6.08029-2.58981-8.70855-3.22704-6.22452-1.50897-12.22194-4.32166-17.95382-6.29823-2.73969-.94473-5.369-1.68423-8.33121-1.66906-.16363.00035-.29093-.1467-.28423-.32831.007-.18162.14528-.32973.30891-.33043 3.01546-.0152 5.65641-1.30831 8.66094-1.71244z"/><path d="m244.93388 223.93069c-2.10458-4.02437-3.14417-8.54915-4.13757-12.63277-.82307-3.38362-1.17395-6.81626-2.08942-10.34411-1.47581-5.68956-3.1544-10.06341-6.75207-14.68128-.11955-.1534-.092-.37486.0614-.49441s.37486-.092.4944.0614c3.37657 4.334 7.52719 6.89349 10.64351 11.21937 5.00508 6.94709 8.67681 20.22168 1.77979 26.87184z"/><path d="m230.99316 210.01994c2.92165-.001 7.24754.87068 9.75272 2.42231 2.33063 3.23234 3.97712 8.84114 4.3079 11.52759-8.04522.38085-14.01337-6.82367-19.61971-11.01696-1.88382-1.40917-3.73379-2.63249-6.02739-3.3547-.1266-.0402-.18867-.1855-.13859-.32408.0504-.13895.19395-.21935.32055-.17915 3.40443 1.07239 7.74266.9264 11.40452.92499z"/></g></g><g transform="matrix(-.5 .8660254 -.8660254 -.5 504.98461 218.6534)"><path d="m245.40625 221.25-1.8125.6875c7.13478 18.8006 5.35598 37.63969-3.53125 52.5625s-24.90834 25.95685-46.5 29.09375l.28125 1.9375c22.10448-3.2114 38.70584-14.58258 47.90625-30.03125s10.98341-34.94246 3.65625-54.25z"/><g fill-rule="evenodd"><path d="m147.74163 184.37495c-.60055.25919-1.18806-1.09954-.42776-1.43526 9.31333-2.77178 21.7123-4.06105 30.82851.0166l-1.35592 1.73819c-8.78401-3.92917-20.07921-2.98831-29.04483-.3195zm-9.61837 8.15278c-.78216.22076-1.20886-1.20357-.45103-1.42327 10.05309-3.80535 23.19212-7.61921 34.8851-7.33815l-.11003 1.86689c-11.51665-.27682-24.16449 3.41534-34.32404 6.89453zm-12.56577 12.91489c-.73773.48453-1.55269-.91406-.73209-1.30584 13.77146-7.76241 27.92096-15.29065 43.62843-18.1104l.33819 1.91803c-15.5435 2.79048-29.60836 9.81797-43.23453 17.49821zm11.46164.24438.001-.001.0116-.0116c9.6286-7.65167 22.52985-14.96875 33.79083-19.64975l.64851 1.68106c-11.13368 4.6281-23.98732 11.5749-33.50801 19.13983-.68836.53707-1.58196-.71305-.94438-1.15844zm12.77348-3.33566c7.33889-5.76021 18.34769-12.09389 26.33085-16.28577l.83958 1.64121c-7.81882 4.10548-19.01658 10.06465-26.23099 15.73811-.61748.55576-1.64085-.47713-.93944-1.09355z"/><path d="m206.20968 186.98346-20.96717 2.50906c-7.05006 1.87677-18.0723-.42564-26.32136 1.01315-.99727.17385-.84564-.43975-.0822-.77018 5.22583-2.26291 12.00612-9.35635 19.85245-11.42814l27.51824 8.67611z"/><path d="m180.97199 174.42298c7.29903 1.15315 21.1911 8.43137 26.02408 14.35932-6.50945.21687-20.86454-2.88075-27.93223-7.36039-5.24135-3.32226-8.4677-6.17833-14.55328-4.98322-.19078.037-.37591-.0875-.41329-.27823-.037-.19114.0874-.37627.27823-.4133 5.4882-1.07803 10.95454-2.21566 16.59649-1.32418z"/><path d="m173.88314 191.50577c6.00377-3.72251 11.28532-6.04115 18.18339-5.87752 6.6343.15728 14.12164 3.00911 15.95715 5.14155-10.14698 3.18543-22.78152 3.02322-32.92815 4.41934-3.41042.46936-6.66568.81425-9.843 2.30347-.17562.0822-.38509.006-.4669-.16927-.0822-.17562-.006-.38474.16927-.4669 3.2348-1.51637 5.89656-3.47108 8.92824-5.35067z"/><path d="m197.57307 174.68358c6.89772 2.65083 15.10481 10.82653 18.59422 17.63256-6.35782-1.39611-15.86476-4.98074-21.38046-10.24925-4.4874-4.28603-7.53248-8.74592-13.73338-8.84678-.1943-.004-.34947-.16363-.34594-.35829.004-.19466.16398-.34947.35829-.34594 5.59223.0906 11.17564.11884 16.50727 2.1677z"/><path d="m189.56417 192.72063c4.25359-2.01536 6.70905-4.04483 11.2638-4.54382 5.0668-.55507 16.10632 2.90332 19.15987 7.31595-4.51491.88408-10.14275.71799-15.2896.49053-4.87777-.21582-9.52491.17667-14.37166.30821-3.26583.0889-6.37298.0772-9.52491 1.14468-.17421.0589-.36358-.0339-.42282-.20629-.0592-.1728.0339-.36076.20806-.41965 3.2087-1.0865 5.9223-2.64236 8.97726-4.08961z"/><path d="m216.64759 180.03778c3.1946 2.39869 6.98271 5.17858 10.0091 9.76013 2.07037 3.13466 3.58075 7.45349 5.11017 11.72013-4.23879-2.1536-12.96391-7.07122-16.59403-10.17202-2.98196-2.54715-5.21419-7.0014-7.71797-10.15368-2.54644-3.20519-4.52442-5.98861-8.68633-7.88407-.17702-.0807-.25531-.28952-.17456-.46655.0804-.17702.28952-.25531.46655-.17456 6.154 2.80247 11.77479 3.0063 17.58707 7.37062z"/><path d="m203.53558 195.41448c3.77188-1.35768 7.38154-3.50529 12.42647-2.70091 3.92387.62595 9.429 4.06211 16.66808 9.46815-8.92154 1.87994-20.03089-1.70821-28.59168-2.74252-2.87687-.3477-5.60317-.51768-8.49591.11955-.15974.0349-.31526-.0822-.34664-.26096-.0317-.17914.0723-.35299.23203-.38826 2.94494-.64851 5.25511-2.46816 8.10765-3.49505z"/><path d="m233.36892 189.07993c3.94538 5.45011 7.30608 13.55846 7.88794 23.53723-3.41253-3.31062-8.32064-8.74487-10.87237-12.78053-1.62075-2.56407-2.76508-5.63384-4.27828-8.88734-2.47838-5.33021-4.11994-9.47554-8.49202-13.36838-.14529-.12942-.15834-.35229-.0289-.49758.12942-.14494.35229-.15799.49758-.0289 5.05022 4.49692 11.02401 6.13777 15.28607 12.02552z"/><path d="m215.7688 200.86036c4.85591-.65345 9.72099-3.02463 16.29992 1.09214 2.99042 1.87113 6.66004 6.97107 10.00804 12.47337-2.7069-.0113-6.08029-2.58981-8.70855-3.22704-6.22452-1.50897-12.22194-4.32166-17.95382-6.29823-2.73969-.94473-5.369-1.68423-8.33121-1.66906-.16363.00035-.29093-.1467-.28423-.32831.007-.18162.14528-.32973.30891-.33043 3.01546-.0152 5.65641-1.30831 8.66094-1.71244z"/><path d="m244.93388 223.93069c-2.10458-4.02437-3.14417-8.54915-4.13757-12.63277-.82307-3.38362-1.17395-6.81626-2.08942-10.34411-1.47581-5.68956-3.1544-10.06341-6.75207-14.68128-.11955-.1534-.092-.37486.0614-.49441s.37486-.092.4944.0614c3.37657 4.334 7.52719 6.89349 10.64351 11.21937 5.00508 6.94709 8.67681 20.22168 1.77979 26.87184z"/><path d="m230.99316 210.01994c2.92165-.001 7.24754.87068 9.75272 2.42231 2.33063 3.23234 3.97712 8.84114 4.3079 11.52759-8.04522.38085-14.01337-6.82367-19.61971-11.01696-1.88382-1.40917-3.73379-2.63249-6.02739-3.3547-.1266-.0402-.18867-.1855-.13859-.32408.0504-.13895.19395-.21935.32055-.17915 3.40443 1.07239 7.74266.9264 11.40452.92499z"/></g></g></g><path d="m104.23685 265.88403a28.977846 28.977846 0 1 1 -57.955692 0 28.977846 28.977846 0 1 1 57.955692 0z" stroke-linecap="round" stroke-width=".279202" transform="matrix(1.7553693 0 0 1.7553693 57.265162 -211.62147)"/></g></g></svg>