<svg height="400.00003" viewBox="0 0 479.99581 320.00117" width="600" xmlns="http://www.w3.org/2000/svg"><path d="m212.002 828.446h-6.378v-4.252h6.378c1.174.001 2.126-.952 2.126-2.126 0-1.173-.952-2.125-2.126-2.125h-6.378l4.252-4.252h2.126c3.469.012 6.378 2.856 6.378 6.377 0 1.634-.615 3.124-1.625 4.253 1.01 1.128 1.625 2.618 1.625 4.251 0 3.522-2.909 6.366-6.378 6.378h-6.378v-4.252h6.378c1.174 0 2.126-.952 2.126-2.126s-.952-2.126-2.126-2.126zm-165.3426-2.126c0-5.869 4.7602-10.63 10.6299-10.63s10.6299 4.761 10.6299 10.63c0 5.87-4.7602 10.63-10.6299 10.63s-10.6299-4.76-10.6299-10.63zm10.6299 14.882c8.2177 0 14.8819-6.664 14.8819-14.882 0-8.217-6.6642-14.882-14.8819-14.882-8.2176 0-14.8819 6.665-14.8819 14.882 0 8.218 6.6643 14.882 14.8819 14.882zm-4.2508-21.26h4.2508c3.5218 0 6.378 2.856 6.378 6.378s-2.9092 6.366-6.378 6.378h-4.2508v-4.252h4.2508c1.1739 0 2.126-.952 2.126-2.126s-.9521-2.126-2.126-2.126h-4.2508zm36.1395-4.251h4.2519v21.259h-4.2519l-8.504-13.347v13.347h-4.2519v-21.259h4.2519l8.504 13.347zm-63.7784 0h12.7559v4.252h-8.504v4.251h8.504v4.252h-8.504v4.252h8.504v4.252h-12.7559zm72.2812 0h4.2522v21.259h-4.2522zm17.0082 21.259c4.696 0 8.504-3.808 8.504-8.504v-4.251c0-4.696-3.808-8.504-8.504-8.504h-8.504v21.259zm0-17.007c2.348 0 4.252 1.904 4.252 4.252v4.251c0 2.348-1.904 4.252-4.252 4.252h-4.252v-12.755zm73.928 6.377c0 5.87-4.76 10.63-10.63 10.63-5.869 0-10.63-4.76-10.63-10.63 0-5.869 4.761-10.63 10.63-10.63 5.87 0 10.63 4.761 10.63 10.63zm-10.63-14.882c-8.217 0-14.881 6.665-14.881 14.882 0 8.218 6.664 14.882 14.881 14.882 8.218 0 14.882-6.664 14.882-14.882 0-8.217-6.664-14.882-14.882-14.882zm-169.59531 4.252h4.25201v17.008h8.5039v4.252h-12.75591zm192.98031.001v21.259h-4.252v-17.007zm-48.896 12.755c-1.174 0-2.126.952-2.126 2.126v2.126h8.504v4.252h-12.756c0-2.126 0-4.252 0-6.378.012-3.469 2.856-6.378 6.378-6.378 1.173.001 2.126-.952 2.126-2.126 0-1.173-.953-2.125-2.126-2.125h-6.378l4.252-4.252h2.126c3.468.012 6.378 2.856 6.378 6.377 0 3.522-2.857 6.378-6.378 6.378z" fill="#800080" fill-opacity=".501961" transform="matrix(1.00000358 0 0 1.00000358 126.612389 -666.322373)"/><path d="m-.002215 0h480.00171v320.00116h-480.00171z" fill="#008000"/><path d="m-.002215 0h480.00171v42.666821h-480.00171z" fill="#005bbb"/><path d="m-.002195 32.000118h480.00168v10.666705h-480.00168z" fill="#ffd500"/><path d="m-.002195 277.33435h480.00168v42.666821h-480.00168z" fill="#005bbb"/><path d="m-.002195 277.33435h480.00168v10.666705h-480.00168z" fill="#ffd500"/><path d="m190.7551 110.38815c8.01498 0 14.5204 6.50542 14.5204 14.52041 0 8.01535-6.50542 14.52077-14.5204 14.52077-8.01536 0-14.52077-6.50542-14.52077-14.52077 0-8.01499 6.50541-14.52041 14.52077-14.52041z" fill="#fff" fill-rule="evenodd"/><path d="m289.24294 110.38815c-8.01499 0-14.52078 6.50542-14.52078 14.52041 0 8.01535 6.50579 14.52077 14.52078 14.52077 8.01535 0 14.52077-6.50542 14.52077-14.52077 0-8.01499-6.50542-14.52041-14.52077-14.52041z" fill="#fff" fill-rule="evenodd"/><g stroke="#000" stroke-width=".800003"><path d="m266.70459 131.09304.88064 25.21988c.2147 6.15042-2.90919 11.25362-6.97591 11.39577-4.06709.14178-7.53931-4.73081-7.75401-10.88123l-.86251-24.6972z" fill="none"/><path d="m281.34937 128.1546.88064 25.22025c.2147 6.15043-2.90919 11.25363-6.97591 11.39541-4.06709.14214-7.53931-4.73081-7.75401-10.88124l-.8625-24.69682z" fill="none"/><path d="m198.6483 128.1546-.88102 25.22025c-.2147 6.15043 2.90919 11.25363 6.97628 11.39541 4.06672.14214 7.53894-4.73081 7.75365-10.88124l.8625-24.69682z" fill="#fff" fill-rule="evenodd"/><path d="m213.29308 131.09304-.88101 25.21988c-.21471 6.15042 2.90918 11.25362 6.9759 11.39577 4.06709.14178 7.53932-4.73081 7.75402-10.88123l.8625-24.6972z" fill="#fff" fill-rule="evenodd"/><path d="m281.34863 128.1546.88064 25.22025c.2147 6.15043-2.90919 11.25363-6.97591 11.39541-4.06672.14214-7.53894-4.73081-7.75401-10.88124l-.86213-24.69682z" fill="#fff" fill-rule="evenodd"/><path d="m266.70385 131.09304.88064 25.21988c.2147 6.15042-2.90919 11.25362-6.97591 11.39577-4.06672.14178-7.53894-4.73081-7.75401-10.88123l-.86214-24.6972z" fill="#fff" fill-rule="evenodd"/><path d="m225.01386 138.41395c-10.06981.41311-20.31731-2.95954-27.34023-10.46072l5.08099-6.25444c5.48004 6.41546 14.03548 9.18288 22.25924 8.75681z" fill="#fff" fill-rule="evenodd"/><path d="m205.31178 118.55084c4.62827 5.87834 12.16388 8.35998 19.70208 7.92207v7.96131c-9.43015.43273-18.63894-2.75927-24.80343-9.6034z" fill="#fff" fill-rule="evenodd"/><path d="m254.98269 138.41395c10.06982.41311 20.31731-2.95954 27.34023-10.46072l-5.08099-6.25444c-5.48004 6.41546-14.03548 9.18288-22.25924 8.75681z" fill="#fff" fill-rule="evenodd"/><path d="m274.68515 118.55084c-4.62828 5.87834-12.16426 8.35998-19.70209 7.92207v7.96131c9.43016.43273 18.63858-2.75927 24.80344-9.6034z" fill="#fff" fill-rule="evenodd"/><path d="m239.99883 77.037795c4.98771 0 9.03222 4.044509 9.03222 9.031849 0 3.737266-.27726 7.402719-.0585 11.139614.20952 3.579572.57377 8.572092 2.52866 13.854092 4.86666 8.25263 8.02979 21.6044 8.02979 36.67044 0 25.05589-8.74682 54.45059-19.53218 54.45059-10.78499 0-19.46628-34.17141-19.5318-54.45059-.0422-13.19741 2.33468-24.98408 7.74957-36.86996 2.57825-5.65958 5.30532-11.76706 5.30532-16.203583 0-3.474813-2.55494-4.623459-2.55494-8.590603 0-4.98734 4.04451-9.031849 9.03185-9.031849z" fill="#fff" fill-rule="evenodd"/><path d="m254.63695 181.75713-18.76295 18.76295m-6.09416-89.83949-2.63896 2.63896m16.34387-2.63896-21.88018 21.88018m31.71308-18.00854-32.85062 32.85062m36.3706-22.66605-35.477 35.47737m37.55145-23.84654-35.52661 35.52661m36.12999-22.42545-33.25152 33.25153m32.09695-18.39242-28.21643 28.2168m-3.9094-9.9136 18.01558 18.01558m5.96756-89.96609 2.37317 2.37318m-16.07809-2.37318 21.90054 21.90017m-31.76713-18.06222 32.88284 32.8832m-36.29731-22.59276 35.60508 35.60508m-37.7569-24.05235 35.9264 35.92676m-36.51275-22.8082 33.70017 33.70054m-32.17876-18.47422 28.21828 28.21828" fill="none"/><path d="m234.82122 90.006804c-.78624-.952826-1.97672-1.56065-3.30823-1.56065-1.91935 0-3.54441 1.261549-4.09115 3.000992-.5486-.868795-.86695-1.897506-.86695-3.000992 0-2.913261 2.21475-5.310501 5.05249-5.598865 2.47831.548966 4.70823 3.807228 3.21384 7.159515z" fill="#fff" fill-rule="evenodd"/><path d="m238.94976 82.148402c1.07239 0 1.94267.870647 1.94267 1.943038s-.87028 1.943038-1.94267 1.943038-1.94304-.870647-1.94304-1.943038.87065-1.943038 1.94304-1.943038z" fill="none"/><path d="m235.51627 84.384362c1.32862-2.808599 3.99139-3.210067 6.84136-2.100317" fill="none"/><path d="m251.51232 108.79789c1.30375 0 2.36096 1.05759 2.36096 2.36096 0 1.30375-1.05721 2.36097-2.36096 2.36097-6.65941 0-15.57725 0-23.02661 0-1.30338 0-2.36096-1.05722-2.36096-2.36097 0-1.30337 1.05758-2.36096 2.36096-2.36096z" fill="#fff" fill-rule="evenodd"/><path d="m249.23131 191.95835 13.32031 46.96273c-5.11505 2.63711-13.31253 4.34731-22.55279 4.34731-9.24025 0-17.43736-1.71057-22.55204-4.34842l13.31993-46.96162z" fill="#fff" fill-rule="evenodd"/><path d="m244.59749 191.95835 7.1373 50.3276m-11.75336-50.3276v51.30967m-4.61605-51.30967-7.13657 50.32168" fill="none"/><g fill="#fff" fill-rule="evenodd"><path d="m228.79888 191.60447c0-1.57694 1.30227-2.85626 2.90808-2.85626h16.58412c1.60581 0 2.90807 1.27932 2.90807 2.85626 0 6.54539-22.40027 6.54539-22.40027 0z"/><path d="m199.02069 227.89622c-2.97878-.65965-7.02699 2.14663-5.13874 6.98109.64151-2.60343 2.62341-4.36064 5.02954-4.25255zm1.46218 9.52825c-2.66635 1.48217-3.83277 6.26814.78699 8.63169-1.24637-2.37244-.93024-5.00252.94209-6.518zm9.1107 4.34176c-1.45811 2.68005.11956 7.34608 5.28755 6.86856-2.32432-1.33707-3.46482-3.72728-2.69597-6.00939zm10.2686-14.5689c3.04985.0822 6.29701 3.78613 3.29305 8.01832.009-2.68116-1.48809-4.8663-3.84831-5.34493z"/><path d="m280.97697 227.89622c2.97879-.65965 7.027 2.14663 5.13911 6.98109-.64188-2.60343-2.62341-4.36064-5.02953-4.25255zm-1.46218 9.52825c2.66636 1.48217 3.83277 6.26814-.78662 8.63169 1.24601-2.37244.92988-5.00252-.94209-6.518zm-9.11032 4.34176c1.45774 2.68005-.11957 7.34608-5.28792 6.86856 2.32431-1.33707 3.46481-3.72728 2.69633-6.00939zm-10.26897-14.5689c-3.04949.0822-6.29701 3.78613-3.29306 8.01832-.009-2.68116 1.4881-4.8663 3.84869-5.34493z"/><path d="m198.97109 238.7197c1.00687.0633 2.14626.5138 2.39613 1.85605 4.20627 1.32448 2.41315-3.7865 3.92605-5.72509l1.34151-1.71909c1.36075-1.74351 2.26842-.78143 2.33468.6863l.18619 4.11448c.10402 2.28952-2.74742 4.13372.12031 6.00235.83067-.32649 1.98043-.35018 2.79444.0803 2.2351-2.45166-.24617-3.80131-.35685-6.23779l-.32575-7.19801c-.10143-2.23769 1.42146-2.58603 3.00099-1.90417l2.32024 1.00169c1.17456 2.41242 2.90808 2.69153 3.85869.66076-.25913-1.122.17139-2.26065 1.1405-2.65932-.44495-1.2275-1.64579-1.49772-2.84589-1.57768-1.63098-.10809-2.46683.65002-3.99491-.009-2.48386-1.07203-2.58195-1.97969-1.56361-4.38026l4.36952-10.30265-3.49739-1.18308-3.54552 10.96638c-1.43775 3.33229-2.24806 5.3986-6.42065 5.62551-2.40353.13068-2.15699-.37905-4.43985-1.20417-2.05002-.74071-4.10115-.30761-3.98417 2.75483.82734.30835 1.45293 1.12162 1.57397 2.38872 2.51496 3.0158 2.66784-1.14605 4.90702-1.26784l1.64504-.0892c1.08831-.0592 1.87271.65706.82882 1.99486l-2.42833 3.11131c-1.26377 1.6195-4.17666 1.56768-3.34118 4.21404z"/><path d="m281.02695 238.7197c-1.00687.0633-2.14627.5138-2.3965 1.85605-4.20591 1.32448-2.41279-3.7865-3.92606-5.72509l-1.3415-1.71909c-1.36076-1.74351-2.26842-.78143-2.33468.6863l-.1862 4.11448c-.10365 2.28952 2.74779 4.13372-.12031 6.00235-.83029-.32649-1.98042-.35018-2.79443.0803-2.23511-2.45166.24616-3.80131.35684-6.23779l.32613-7.19801c.10105-2.23769-1.42147-2.58603-3.00099-1.90417l-2.32025 1.00169c-1.17456 2.41242-2.90845 2.69153-3.85905.66076.25912-1.122-.17139-2.26065-1.1405-2.65932.44531-1.2275 1.64616-1.49772 2.84589-1.57768 1.63098-.10809 2.46683.65002 3.99527-.009 2.48386-1.07203 2.58159-1.97969 1.56361-4.38026l-4.36952-10.30265 3.49739-1.18308 3.54515 10.96638c1.43775 3.33229 2.24806 5.3986 6.42065 5.62551 2.4039.13068 2.15737-.37905 4.44022-1.20417 2.05002-.74071 4.10115-.30761 3.98381 2.75483-.82734.30835-1.45293 1.12162-1.57361 2.38872-2.51532 3.0158-2.66821-1.14605-4.90738-1.26784l-1.64505-.0892c-1.08831-.0592-1.87271.65706-.82845 1.99486l2.42834 3.11131c1.2634 1.6195 4.17666 1.56768 3.34118 4.21404z"/><path d="m227.47588 176.89453c2.91252 1.0028 3.41522 7.21652 1.122 13.87557-1.90491 5.53297-6.17745 9.92914-7.78104 15.61278-1.10867 3.93012-1.38667 9.64078.54971 13.32215-3.07614.47382-6.08416-3.26011-5.98903-6.38622-1.97228 1.94378-5.52853 1.76165-7.22577-.92395 3.78501-.86954 6.47913-3.97122 7.48785-7.61779 1.57028-5.67882.46087-11.98065 2.40909-17.63948 2.29285-6.65904 6.5143-11.24586 9.42719-10.24306z"/><path d="m252.52178 176.89453c-2.91252 1.0028-3.41521 7.21652-1.12236 13.87557 1.90528 5.53297 6.17781 9.92914 7.7814 15.61278 1.10867 3.93012 1.38667 9.64078-.55007 13.32215 3.0765.47382 6.08416-3.26011 5.98902-6.38622 1.97228 1.94378 5.52891 1.76165 7.22578-.92395-3.78465-.86954-6.47877-3.97122-7.48749-7.61779-1.57064-5.67882-.46086-11.98065-2.40908-17.63948-2.29286-6.65904-6.51468-11.24586-9.4272-10.24306z"/><path d="m178.86737 222.10634c-.20101 5.75693-5.03177 10.26157-10.78869 10.06093-.56785-.02-1.01391-.45531-.99244-1.06498.0211-.60931.499-1.08128 1.06462-.99244 1.41406-.26985 2.51236-1.55509 2.56752-3.13721l2.90882-83.31557h.007l.54156-15.33182c.49715-6.78712.87842-14.96017 6.70606-19.53328 5.97237-4.68676 15.41807-4.17481 20.98658 1.58582 3.51479 3.63584 4.83076 8.68055 3.93124 13.47762-.81623 4.34917-3.54256 8.26745-8.02794 9.19843-3.748.77848-7.86618-.68445-10.05575-4.1067-1.79571-2.80665-1.93045-6.3033-.39201-9.25247 1.01464-1.94415 3.41373-2.69782 5.35788-1.68317 1.94415 1.01464 2.69782 3.41336 1.68318 5.35788-.33094.6341-.0814 1.43257.56081 1.76757.4864.25357 1.32411.21692 1.78053-.10735.82067-.58228 1.22934-1.77905 1.37371-2.98729.2669-2.23548-.32501-4.4765-1.92194-6.12858-3.05948-3.16498-7.90763-2.98101-10.69244.037-2.89624 3.13869-3.04504 8.66278-3.34044 12.65214l-.52232 15.05419h.004l-2.73965 78.44926z"/><path d="m301.12956 222.10634c.20063 5.75693 5.03176 10.26157 10.78832 10.06093.56821-.02 1.01427-.45531.9928-1.06498-.0215-.60931-.49936-1.08128-1.06462-.99244-1.41406-.26985-2.51236-1.55509-2.56752-3.13721l-2.90918-83.31557h-.007l-.54193-15.33182c-.49714-6.78712-.87842-14.96017-6.70568-19.53328-5.97237-4.68676-15.41808-4.17481-20.98696 1.58582-3.51479 3.63584-4.83038 8.68055-3.93086 13.47762.81586 4.34917 3.54218 8.26745 8.02794 9.19843 3.748.77848 7.8658-.68445 10.05574-4.1067 1.79534-2.80665 1.93009-6.3033.39165-9.25247-1.01465-1.94415-3.41337-2.69782-5.35752-1.68317-1.94414 1.01464-2.69782 3.41336-1.68317 5.35788.33056.6341.0811 1.43257-.56118 1.76757-.48604.25357-1.32374.21692-1.78054-.10735-.82067-.58228-1.22897-1.77905-1.37371-2.98729-.26689-2.23548.32501-4.4765 1.92231-6.12858 3.05911-3.16498 7.90726-2.98101 10.69208.037 2.89623 3.13869 3.04541 8.66278 3.34081 12.65214l.52231 15.05419h-.004l2.73965 78.44926z"/><path d="m190.14172 210.41258c-.201 5.75693-5.03176 10.26156-10.78869 10.06056-.56784-.0196-1.0139-.45531-.99243-1.06462.0211-.6093.49899-1.08127 1.06462-.99243 1.41406-.27023 2.51199-1.5551 2.56752-3.13722l2.50644-71.78393 7.96945.27837z"/><path d="m289.85631 210.41258c.20101 5.75693 5.03176 10.26156 10.78832 10.06056.56822-.0196 1.01428-.45531.99281-1.06462-.0215-.6093-.499-1.08127-1.06462-.99243-1.41406-.27023-2.51237-1.5551-2.56752-3.13722l-2.50644-71.78393-7.96945.27837z"/><path d="m201.57192 194.25564c-.201 5.75693-5.03176 10.26157-10.78869 10.06056-.56784-.0196-1.01427-.45531-.9928-1.06461.0215-.60931.49936-1.08128 1.06462-.99244 1.41406-.27022 2.51236-1.55509 2.56788-3.13721l2.07482-59.4309 7.96983.27837z"/><path d="m278.425 194.25564c.20101 5.75693 5.03176 10.26157 10.78832 10.06056.56822-.0196 1.01428-.45531.99281-1.06461-.0215-.60931-.499-1.08128-1.06462-.99244-1.41406-.27022-2.51237-1.55509-2.56752-3.13721l-2.07519-59.4309-7.96945.27837z"/></g><path d="m190.14172 210.41258c-.201 5.75693-5.03176 10.26156-10.78869 10.06056-.56784-.0196-1.0139-.45531-.99243-1.06462.0211-.6093.49899-1.08127 1.06462-.99243 1.41406-.27023 2.51199-1.5551 2.56752-3.13722l2.50644-71.78393 7.96945.27837z" fill="none"/><path d="m203.23252 139.75508c1.64097 0 2.97175 1.33077 2.97175 2.97175s-1.33078 2.97175-2.97175 2.97175h-28.98232c-1.64098 0-2.97175-1.33077-2.97175-2.97175s1.33077-2.97175 2.97175-2.97175z" fill="#fff" fill-rule="evenodd"/><path d="m203.23252 133.81233c1.64097 0 2.97175 1.33077 2.97175 2.97174 0 1.64061-1.33078 2.97138-2.97175 2.97138h-28.98232c-1.64098 0-2.97175-1.33077-2.97175-2.97138 0-1.64097 1.33077-2.97174 2.97175-2.97174z" fill="#fff" fill-rule="evenodd"/><path d="m276.76478 133.81233c-1.64098 0-2.97175 1.33077-2.97175 2.97174 0 1.64061 1.33077 2.97138 2.97175 2.97138h28.98232c1.64097 0 2.97174-1.33077 2.97174-2.97138 0-1.64097-1.33077-2.97174-2.97174-2.97174z" fill="#fff" fill-rule="evenodd"/><path d="m276.76441 139.75508c-1.64098 0-2.97175 1.33077-2.97175 2.97175s1.33077 2.97175 2.97175 2.97175h28.98269c1.64097 0 2.97174-1.33077 2.97174-2.97175s-1.33077-2.97175-2.97174-2.97175z" fill="#fff" fill-rule="evenodd"/></g></svg>