<svg height="530" width="795" xmlns="http://www.w3.org/2000/svg" xmlns:xlink="http://www.w3.org/1999/xlink"><path d="m0 0h795v530h-795z" fill="#fff"/><path d="m317 0h478v212h-478z" fill="#093"/><path d="m0 317h795v212h-795z" fill="#093"/><g transform="translate(27)"><g id="a" transform="translate(-.4)"><path d="m169.5 227.6c.3-2.5.2-4.8-.3-7.2-1.2-4.7-5-4.2-8-2.9-.7 2-1.2 4.2-1.9 6 .3 2.8.2 6.4-.7 9-.5 2.1 1.2 4.1 2.7 4.5 7.5 1.4 15 4.1 19.5 8.3 1.1 1.3.5 4-1.1 5.9-1.5 1.9-2.5 4.8-1.2 6.8 1.8-3 5-1.6 6.3 1.3 3.9-2.6 2.9-5.9 1.9-10-.5-2.1.5-4.8 2.4-5.2 3.4-.4 5.1 2.1 7.2 4.1 2 1.9 4.8 3.5 7.4 2.4-1.3-2.3-1.3-5.7 1.6-7.5-.3-1.8-2.1-2.7-3.6-2.4-3 .9-7.3.7-9.1-1.2-1.7-1.9 4.6-5.9 7.2-5.6 2.6.4 5.3 0 5.8-2.6-2.3-2.6-2.3-4-1.7-7l-.6-.4c-2-1.7-4.1.9-5.4 3.4-1.5 2.4-3.9 4.7-6.1 6.1-1.9 1.2-1.9 1.1 0 0 2.5-1.9 4.5-3.8 6-6.2.8-1.7 1.9-3.1 3.4-4-1.5-1.3-1.1-3.9-.5-5.4-2.4-2.1-5.7 0-5.6 3.2-.2 3.8-2.6 7.4-5.5 9.9-1.1 1.8-3.2 3.4-5.5 4-5.9-1-11.8-4.4-14.4-7.4z" fill="#f00" stroke="#900"/><g fill="none" stroke="#000"><path d="m178.2 165.6c-2.7-6.8-4.9-14.3-6.3-20.7"/><path d="m209 69c4.4-8 7.6-14.2 11.3-21.85"/><path d="m217.2 146.4c-8.4-6.3-15.5-11.3-22.8-17.65"/><path d="m234.1 97.9c-7.5 1.1-15.8 1.9-22.1 2.4"/><path d="m228.4 123.8c-9.2-2.6-15.4-4.6-23.9-7.5"/><path d="m198.2 160.8c-5.5-7.8-9.2-14.1-12.9-21.35"/><path d="m231.4 71.4c-5.9 4.1-12.3 8-18 11.4"/></g><path d="m169.9 27.8c-.6 1.9-2.9 1.5-3.1-.2-.4.2-.8.1-1.2-.2-1.4 2-3.9 1.4-4-1.6 0-3 3-4 4.4-2.3.5-1.8-.6-3.2-2.4-3.3-.7 0-1.4.6-1.6 1 .1-2-.8-3.3-1.9-5.2-1.1 1.8-2 3.1-2 5.2-.1-.4-.6-1-1.6-1-1.9.1-3 1.5-2.4 3.3 1.5-2.1 4.5 0 4.4 2.3 0 2.4-2.9 3.5-4.2 1.5-.3.3-.6.3-1 .2-.6 1.6-2.6 2.8-3.2.2-.2-1.6 0-4.3 2-3.8-.3-1.1-1.2-2.3-2.4-2.2-1 .2-1.7 1.2-1.7 2.2-.7-1.7-1.7-2.7-3.3-2.6 2.1 3.7 3.2 7.2 3.8 10.9 7.7-2.2 15.7-2.2 23.2 0 .4-4.3 1.7-7.3 3.8-10.9-1.5-.1-2.7.8-3.1 2.6-.2-1.3-1-2.2-2-2.2-1.2.1-2.1.9-2.3 2.2 1.8-.1 2.6 2.2 2 3.9z" fill="#fc0" stroke="#960"/><path d="m171.6 37.6v-5.2c-7.6-2.2-16.1-2.2-23.1 0v5.2c8.8-2.2 14.6-2.5 22.8-.1z" fill="#fc0" stroke="#960"/><path d="m187 53.6c-.4.1-.9.3-1.2 1-1.2 2.6-6.2 5.2-7.5 2.6-.5-1.1-1-1.5-1.8-2.2-1.4-1.1-3.2-1.6-5-1.6-2.9-.1-4.8 2.4-5.4 4.8.8-.364766 1.7-.7 2.5-1 2.5-2.9 6.3.6 7.9 2.9 3.5 5.5 10.2-.8 10.4-6.6z" fill="#f00" stroke="#900"/><path d="m172.2 40.6c0-1.2-.2-2.2-.9-3.1-6.6-2.2-14.7-2.5-21.9 0-2.2.9-4.8 1.4-7 .3-.3 3 2 3.6 3.9 4-1.9 5-2.8 9.8-2.8 15.5 3.1-.4 5-3.4 6.6-5.5-2.3 3.5-3 6.3-2.5 9.7 2.7-.7 4.9-2.2 6.4-5-1.1 2.5-1.6 6.6-.5 8.8-1 2.5-.7 5.2.2 7.6 2.9-1.3 4.7-2.6 6.6-4.6l.1 4c.1 3.8.4 5.7 2.9 6.2-1.8-6.9-1-11.6 3.5-14.2-3.6-3.6-3.5-9.1.3-12.8 3.2-3.1 4.7-4.6 4-8.5.5-.9.7-1.5 1-2.3z" stroke="#666"/><path d="m176.5 43.4c-.3-2.2-2.5-2.7-4.3-2.8-.4.9-.8 1.7-1 2.3.3 1.7.3 2.6-.3 4.2-.7 1.5-2.2 3-3.6 4.3-4.9 4.6-3.6 9.2-.2 13.1 2.2-3.3 6.4-4 9.3-.8-.1-5.2-5.5-8.4-10-5.4.2-2.4 1.6-4.4 4.2-4.8 1.5-1.4 3.8-1.5 5-.8 2.8-1.7 6-.6 7 1.8 1.6-4.9.9-9.4-6-11.1z" fill="#fc0" stroke="#960"/><g stroke="#666"><path d="m187.4 126.3c1.3 7.9 1.7 10 2.4 14.6-1.3-.3-2.4-.6-3.6-1 2.4 3.2 5 6.5 7.4 9.2 12.7 16.1 29.3 28.1 41 22.3-14.6-12.7-29.5-27.6-39.4-42.3-3.2-.7-5-1.2-7.8-2.7z"/><path d="m198.2 69.4c4.1-2.3 6.8-2.5 10.8-1 1.9-5.2 3.6-10.9 4.9-15.9 4.1-15.1 1.6-29.9-6.2-37.8.6 14.1-1.6 26.5-4.8 37.9.8 6-2.1 12.1-4.7 16.7z"/><path d="m201.2 46.2c-3.6 10.8-7.8 19.1-17.1 29.1-4 7.2-5.2 10.3-1.4 16.8 1.4 2.1 2.3 5.3 1 7.2-7.9 9.3-19.2 4.8-22.6-5.3l.1 16.7c19.8 10.5 39.7-7.7 30.9-32.3 9-11.5 13.5-22.1 9-32.2z"/><path d="m192.2 78.4.1.4c2-.4 7-2.4 12 1.2 3.8-2.5 4.1-7.6 4.7-11.6-3.3-1.5-7.5-1.4-10.7.9-2.3 3.5-4 5.7-6.1 9.1z"/><path d="m192.3 78.9c1.1 3 1.7 6.4 2.1 9.3 4.8-1.3 7.2-4.3 9.9-8.2-3.4-2.3-8.6-2.9-12-1.1z"/><path d="m210.2 65c-2.1 9.5-2.9 13.3-5.9 15 3.1-.1 5.6.3 8 2 2.4-2.2 4.8-4.6 7-6.7 10.4-11.7 21.5-23.5 18.2-39.9-8.2 10.9-18.2 21.2-27.3 29.7z"/><path d="m153.4 25c-1.5.3-1 2.8.2 2.6 1.4-.3 1-2.8-.2-2.6z" fill="#fc0" stroke="#960"/><path d="m166.3 27.8c1.2.1 1.5-2.7.2-2.8s-1.7 2.6-.2 2.8z" fill="#fc0" stroke="#960"/><path d="m138.8 77.3c-1.3.2-2.6-.1-3.8-.3-1.3 4.3-2.5 10-2.5 14.3l17.6-.1c-1.8-2.5-3-6.1-2.3-10-1.6 3.6-5.2 7.3-8.4 8.2-1.8-4.3-1.1-8.5-.6-12z"/><path d="m138.8 77.3c0-4 1.3-8.1 3-11.4-1.4.8-2.3.6-3.2.2-1.2 5.4-3.4 6.9-6 8.1 1.6 3.3 3.5 3.1 6.2 3.1z"/><path d="m138.8 77.3c4.3-.5 7-4.1 9-7.1-1.1-2.8-.9-6-.1-8.5-1.5 3.3-3.9 3.7-6 4.3-1.8 3.6-2.9 7.4-3 11.3z"/><path d="m136.2 59.4c-1.6 2.5 1.8 9.1 5.7 6.5-.7-3.4.7-6.4 1.2-8.8-.6.1-1-.1-1.6-.3-1.4 1.5-4 3.9-5.3 2.6z"/><path d="m168 43.4c-.4-.2-.8-.4-1.1-.7-1 4.3-5.1 3.5-4.8-.1-1.3.5-2.6.9-3.7 1 1.1 6.1 8.3 7.1 9.6-.2z" fill="#fc0"/><path d="m143.2 57.1c.2-5.1.4-7.5 2-12.1-3.5 5.7-5 5.6-7.5 4-.5 4.6.9 7.8 5.5 8.1z"/><path d="m148.5 54.3c-1.5 1.8-3.2 2.4-5.2 2.8-1.2 2.7-2 5.9-1.5 8.8 2.6-.4 5.2-2.1 5.8-4.4-.5-2.7.1-5 1-7.2z"/><path d="m147.6 62.1c-.7 3.1-.7 5.4.2 8.1 2.8-.7 4.9-2.4 5.6-4.8-.8-2.6-.9-4.7-.2-7-1.4 2.1-3.5 2.9-5.7 3.7z"/><path d="m153.2 66.2c-1.3 2.2-3.4 3.2-5.5 4.1-.9 3.6-.8 7.5.1 10.9 2.9-2.3 4.5-5.2 6-8.4-.8-2.5-1.2-4.3-.6-6.6z"/><path d="m160.5 72.2-.2-3.8c-2.3 2-4.2 3.3-6.5 4.5-.9 2.9.3 7.2 2.1 9.5 1.9-2 2.8-3.9 3.7-6.4-.1-1.4.5-2.6.9-3.7z"/><path d="m147.8 70.2c-2.7 4.5-5.2 6.3-9 7.3-.8 4-.8 8.4.7 11.9 3.9-1.6 6.5-4.6 8.3-8.1-1.1-4-1-7.5 0-11.1z"/><path d="m165.1 86.5c-3.8-2.4-6.1-5.1-5.7-9.9-.9 2.6-1.8 4.1-3.5 5.6 2.3 5 4.7 6.4 9.3 4.3z"/><path d="m160.4 87.4c-2.6-1-3.6-2.6-4.5-5-.8 3.6-2.3 6.7-3.9 8.8h7.3c.7-.5 1.1-2.6 1.1-3.8z"/><path d="m156 82.4c-2.2-2.7-2.6-6.3-2.3-9.6-1.4 3.7-3.1 6.5-5.9 8.6-.5 4 .5 7.4 2.4 9.9h2.1c2.1-2.5 2.9-5.7 3.8-8.8z"/><path d="m166.4 112.8c-1.8-.6-3.1-1.1-5-1.9.1 11.3 0 11.1-.1 21.2.4.9.5 1.1 1 2l5.7-11.9c-1.5-3.5-1.6-6.2-1.6-9.4z"/><path d="m166.4 112.8c-.3 7.5 2.3 13.5 9.7 18.5 1.9-5.8 3.3-12.1 1.9-18.1-3.9.8-8.3.6-11.5-.4z"/><path d="m168 122.2-5.7 12c1.6 3.9 8 9.8 11 11.7.8-4.8 1.7-9.7 2.6-14.5-4-3.4-5.7-4.7-7.9-9.2z"/><path d="m161.3 132c-.6 14.7-.5 14.7-.6 23.4.2 12.6 8.9 23.1 17.2 25.8-3.4-12.3-5.2-25.5-6.2-36.5-3.7-2.5-8.8-8.7-10.4-12.8z"/><path d="m204.3 80c-2.3 3.5-6.1 7.8-9.9 8.2 4.1-.3 8.2-.5 11.8 3.8 4.2-.7 6.8-4.4 8.6-7.7-2.8-3.4-6.6-4.7-10.5-4.3z"/><path d="m213.5 82.8c.5.4.8.9 1.2 1.4-2.1 3.9-4.9 6.7-8.5 7.7 5 3.1 4.2 2.6 6.8 6.4 3.6-1.3 7.5-2.7 10.7-4.1 11.9-4.9 27.6-14.5 28-28.3-12.9 7.2-26.5 12.7-38.2 16.9z"/><path d="m206.1 92c-2.6-3.8-8.1-4.7-11.7-3.8 0 2.9 0 6.2-.9 8.8 4.6-.1 9.6-1.3 12.6-5z"/><path d="m193.5 97c3.8.5 7.9 2.8 8.9 6.7 4.7.2 8.3-1.5 10.9-5-1.6-3.2-4.4-5.5-7.1-6.7-3.5 3.9-8 5-12.7 5z"/><path d="m202.4 103.7c-1.5-4.4-5-6-8.9-6.7-.6 2.2-1.6 4.4-2.7 6.3 4.3 1.8 8.2 2 11.6.5z"/><path d="m202.7 103.7c3.3 4.3 3.3 4.9 6.1 10.4-.5.3-1 .7-1.5 1 2.4.2 4.9.5 7.1.7 19.6 1.3 33.8-.9 40.4-13.7-15.1 1.3-30.7.6-43.3-1.3-2.4 2-5.5 2.5-8.8 2.9z"/><path d="m202.5 103.7c-4.1 1.8-8.4 1.2-11.6-.4 3.1 3.1 5 7.6 5.4 11.8 3.8 1.6 8.5 2.5 12.5-1.1-2-4.3-3.7-7.1-6.2-10.3z"/><path d="m178 113.2.1.5c1 5.5 4.3 10 10 12.7.7-6.8 1.1-10.4-2.8-16.7-2.5 1.6-4.6 2.8-7.3 3.5z"/><path d="m175.9 131.3c2.3 5 8.7 8.6 14.2 9.6-.7-4.9-1.4-9.8-2.1-14.6-4.7-2.7-8.3-5.6-10-12.5 1.3 8.7-.6 13.2-2.1 17.6z"/><path d="m190.8 103.2c-1.4 2.5-3.6 4.8-5.6 6.5 3.3 3.4 6.7 5.1 11 5.4-.6-5.7-2.4-8.3-5.4-11.8z"/><path d="m188 126.3c4 2.9 9 3 13 2.5-1.6-4.6-3.2-9.2-4.8-13.8-4.2-.2-8.5-2-11-5.4 4.4 7 3.5 11.6 2.8 16.7z"/><path d="m196.4 129c3.2 2 6.8 4.1 9.8 5.8 13.7 6.5 33.6 17 45.9 4.6-18.1-5.9-35.2-14.6-48.9-23.1-2.4.3-4.7-.1-6.8-1 2 6.1 2 6.1 4.2 13.4-1.4.1-2.9.2-4.3.2z"/><path d="m186.5 139.95-1.25-.5 1.2 2.25 1.2 2.25-.6-2z"/><path d="m176 131.4-2.2 11.8c8.2 26.7 17.5 52.1 35 52.8-9-17.6-17.5-37.3-22.3-56-4.3-1.5-8.7-4.3-10.5-8.6z"/><path d="m174.2 193.3c-1.2-9-4.2-11.3-11.9-12.1l2.4 4.4c4 .2 7.1 3.8 9.5 7.8z"/><path d="m170.3 203.6c0 3.2.5 7.1 2.6 9 .5-4.4 1.7-6.8 2.2-10 .5-3.6.6-6.4-.8-9.2-.8 4.6-1.9 6.9-3.9 10.3z"/><path d="m172.8 212.6c-1.9-2.3-2.4-5.2-2.6-9-.3 4.9-1.5 8.7-3.3 12.7 1.3 5.7 5.7 6 9.3 4.5-3.3-.1-3.5-4.9-3.4-8.2z"/><path d="m209.8 221.5c-1.1-2.3-3.1-5.4-5.3-5.5-1.8.1-3 .6-3.8 1.8-1.2 1.8-1 4.4.5 5.4.5-.2 1.1-.1 1.5.1.5-1.7 1.6-3.6 3.3-3.6s2.6.8 3.8 1.9z" fill="#fc0" stroke="#960"/><path d="m204 224.1c-1.1 3-.5 5 1.7 7.2.7-1.5 1.3-2.6 2.9-2.6 1.9.1 2.7 2.4 3.6 4.1 0-6.6-2.1-10.4-8.2-8.7z" fill="#fc0" stroke="#960"/><path d="m170.3 203.6c2-3 3.4-6.6 3.9-10.3-3.6-5.6-5.5-7-9.5-7.8 2.1 1.4 3.5 4.4 3 8.2-.5 3.5-.3 7.2 2.6 9.9z"/><path d="m153.2 179.8c-1.6-1-2.2-3.3-2.2-5.2-1.5 5.7-2.8 9.3-5.4 13.2 4.1 2.2 7.3 2 11.3.7-.4-4.2-1.9-7.5-3.8-8.7z"/><path d="m153.2 179.8c3.3 2.9 7.5 4.5 11.6 5.6l-2.3-4.2c-3.3-1.5-6.1-2.2-9.3-1.4z"/><path d="m145.5 187.8 3.7 5.6c2.9 3 5.5 4.6 8.9 6.2 1.5-5.3.8-8.1-1-10.6l-.1-.6c-4.5 1.6-7.8 1.2-11.5-.6z"/><path d="m149.2 193.3-3.7-5.6c-.8 5.6-2.6 10.1-5.3 14.9 1.1 3.6 3.9 5.2 6.8 6.7 3-6.8 3.5-10.1 2.2-16.1z"/><path d="m145.5 187.8c-2.2-1.4-4.6-3.4-5.5-6.2l-1.3.6c-.4 3.2-1.4 7.1-2.6 9.8.9 3.8 2.4 7.8 4.2 10.9 2.7-5.5 4.3-9.8 5.1-15z"/><path d="m140.1 181.6c1.4 3 2.9 4.7 5.4 6.2 2.6-3.7 4.1-7.7 5-12-6.6 3.5-6.5 3.5-10.4 5.8z"/><path d="m167.4 195.4c.6-3.9.7-7.7-2.8-10-4-1.2-7.8-2.5-10.8-5.1 1.9 2.2 3 5.1 3.1 8 2.6 3.7 7.1 5.6 10.5 7.1z"/><path d="m158.2 199.5c-3.7-1.5-6.6-3.7-9-6.2 1.1 3.7.8 7 .2 10.2 2.9-.3 5.3 2.8 7.1 4.8z"/><path d="m167.4 195.4c-3.9-1.6-7.4-3.5-10.2-6.5 2.2 3.3 1.9 7.1 1 10.8.6 3.6 2.2 6 5.2 7.4 2-4.1 3.3-7.7 3.9-11.7z"/><path d="m138.8 182c-3.2.6-3.2.6-7 1.4.6 4 2.6 6.3 4.3 8.4 1.5-2.6 2.1-6.7 2.7-9.8z"/><path d="m132 184c-.8 3.2-1.8 5.1-4.1 7.7l.2 1.6.2 1.6.4 1.6.2.8.3.8.6 1.4.7 1.4.8 1.4.5 1.4c2.5-2.7 3.9-7.3 4.4-11.6-2.6-3-3.4-5-4.2-8.1z"/><path d="m131.9 203.8c.4 5.6 2.3 8.6 4.9 11.1 2-4 3.1-8.1 3.5-12.4-2-4-3.4-7-4.2-10.8-.4 6-2.1 8.5-4.2 12z"/><path d="m131.8 224.5h.1c2.4-2.2 4.2-5.2 4.9-9.5-2.9-2.6-4.2-6.9-4.9-10.6-.9 3.8-1.8 8.1-4.9 10.5.3 4.5 2.5 7.6 4.8 9.6z"/><path d="m136.9 215c-.9 4.3-2.8 7.2-5.1 9.5 1.2 4.9 3.3 7.1 5.6 9.2 3-4.6 3.2-8.4 2.5-13.2-1.9-1.8-2.5-3.4-3-5.5z"/><path d="m136.8 215c.7 3.2 3.1 6.1 5.6 6.7 0-6.5 2.3-11.1 4.8-12.2-3.1-1.3-6-3.9-6.9-7-.3 4.8-1.8 9-3.4 12.5z"/><path d="m137.4 233.7c1.3 2.2 8.1 7.1 13.3 3.8-5.6-4.2-7.8-9.7-8.3-15.8-.9-.2-1.8-.6-2.5-1.3 1.1 5.4-.3 9.6-2.5 13.3z"/><path d="m131.8 224.3c-.9 3.9-2.7 7.3-5.5 9.3l2.4 8.3 3.2 6.3c1-2.1 2.1-4.2 3.1-6.3l2.4-8.3c-2.9-2.4-4.8-5.4-5.7-9.3z"/><path d="m137.4 233.6 1.8 8.1-1.8-8.1-2.4 8.3c1 4.2 3.8 7.7 6.1 10.8 1.8-5.5 2.1-10.3 1.2-15.2-1.6-.7-3-1.9-4.2-3z"/><path d="m135 242c-.8 1.6-1.1 2.4-3.2 6.3v6.4c1.4 5.9 5.4 10.5 8.8 14.4.8-5.9 1.2-11.1.4-16.4-3.2-3.9-4.9-6.8-6-10.7z"/><path d="m163.5 207.3c-.4 3.4-.2 5.2-2.1 9.2-1.4 3.8.7 8.1 3.8 10.4 1.3-2.9 1.5-7.3 1.6-10.6-1.9-2.9-2.8-5.8-3.3-9z"/><path d="m161.2 217.6c1.7-3.6 2-6.7 2.4-10.2-2.8-1.7-5.1-4-5.3-7.8l-1.7 8.8c.7 3.5 2.6 6.8 4.6 9.2z"/><path d="m166.8 216.3c2.4-4.5 3-8.3 3.5-12.7-2.7-2.2-2.9-5.5-2.8-8.1-1 4.2-2 8.1-3.9 11.2.3 3.4 1.6 7 3.2 9.6z"/><path d="m156.5 208.3-1.2 10.6c-.3 2.9-1.8 5.4-4 7 3.2 1 5.1 1.5 7.4-1.9 1.2-2 1.8-4.5 2.3-6.5-2.2-2.7-3.9-5.9-4.5-9.2z"/><path d="m155.3 218.9 1.2-10.6c-2.6-2.9-4.4-5.1-7-4.8-.8 2.4-1.3 4-2.3 6.2 4.7-1.2 8.2 0 8.1 9.2z"/><path d="m142.3 237.6c2.6 3.8 3.5 6.4 5 9.9l6.5 6.2 7 3.7c-2.4-9.8-6.5-14.1-11.4-19-3 .5-4.1.2-7.1-.8z"/><path d="m142.2 237.3c1.4 7.8-.2 11.4-.9 15.4.5 4.9 3.1 8.9 7 11.5 1.3-9.6.5-16.9-6.1-26.9z"/><path d="m141.1 252.7c.8 6.1.1 11.1-.5 16.4l.2 2.1c1.5 5.8 4 11.2 9 15.2 2.1-9.5 1.9-15.9-1.6-22.2-3.8-3.1-5.5-5.8-7-11.6z"/><path d="m147.2 247.4c1.7 5.5 1.5 11.7 1 16.8 3.5 3.5 6.4 7.9 8.7 11.6 1.6-6.9 1.5-16.9-3-22.3-2.7-2.7-3.8-3.9-6.7-6.2z"/><path d="m140.8 269.1c-4.2-4.9-7.1-8.9-8.9-14.4v30.8-30.8-.1c-1.6 5.6-4.9 10.1-8.9 14.6-1.7 16 1.4 22.1 9.2 32.2 8-10.5 10.8-17 8.6-32.2z"/></g><path d="m205.4 243c-3.3 2.1-2.9 5-1.6 7.5 1.8-2.1 5 0 5.8 1.9 1-4.9 1.4-7.4-4.2-9.4z" fill="#fc0" stroke="#960"/><path d="m184.7 259.4c-2.1-3.9-4.5-3.7-6.3-1.4-1.5 5.9 2.5 8.4 7.6 9-3.9-2.4-4.6-6.2-1.3-7.7z" fill="#fc0" stroke="#960"/><g fill="none" stroke="#666"><path d="m219 65.2c-4.5 4.9-7.9 8.1-12.4 12.43025"/><path d="m202.8 67.3c3.1-5.4 4.8-9.5 6.2-14.6"/><path d="m192.3 78.8c3.9-1.4 7.5-3 10.4-5.5"/><path d="m153.8 42.3c2.4 2.9 9.4.2 11.5-1.273786"/><path d="m157.8 62.7c-.8 1.3-2.3 2.1-3.9 2.501"/><path d="m163.6 37.7c1.4 3.4 5.9 8.2 7.5 5.20625"/><path d="m164.7 138.1c.3 3.2.9 6 1.4 9.13483"/><path d="m206.2 98.2-7.301-1.7"/><path d="m223.4 108.5c-6.6-.1-11.7-.4-17.8-.95581"/><path d="m225 85.6c-5.6 2.6-11.6 4.9-17 6.779029"/><path d="m196.9 87.3c4.4-.4 7.3-1 11.2-2.201"/><path d="m178.7 117.3c.7 4.8 2.3 9 4 12.7625"/><path d="m200.7 110c-2.9-1-6.3-2.8-8.6-5.152"/><path d="m192.9 121.4c-2.3-2.5-4.4-5.5-5.9-8.35"/><path d="m207.2 153.1c-7.3-7-13-13.4-18.2-20.77422"/><path d="m199 122.6c7.3 4.3 14.9 8 21.9 11.02422"/><path d="m168 122.6 2.5 12.049"/><path d="m189.4 167c-5.1-10.7-9.1-22.5-11.7-32.58383"/><path d="m131.9 285.4-.1-28.84965"/><path d="m144.1 238.4 6.1 6.9"/><path d="m136.9 255-1.9-12.48128"/><path d="m139.2 241.8-1.801-8.1"/><path d="m142.7 246.2 1.9 6.75"/><path d="m153.2 260.4-5.4-11.55"/><path d="m146 273.1-4.201-17.35"/></g></g><use transform="matrix(-1 0 0 1 263 0)" xlink:href="#a"/><path d="m102 90c-1 0-2 1-2 2v52a31.5 40 0 0 0 63 0v-52c0-1-1-2-2-2z" fill="#fc0" stroke="#960" stroke-width=".5"/><path d="m161.5 91.5h-60v54a30 37 0 0 0 60 0z" fill="#1059d3"/><path d="m147 119c.7-1.2 1.4-2.4 2.1-3.6-9.2.2-12.5 12.1-12.6 19.8h-3.8v-18.7h3.5v-7c-1.1 0-2.2 0-3.4 0l3.3-6.4c-1.7-3-3.3-5.6-4.9-8.2l-4.8 8.2 3.2 6.4c-1.1 0-2.2 0-3.3 0v7h3.5v18.7h-3.8c0-7.9-3.6-19.6-12.5-19.8.6 1.2 1.4 2.4 2 3.6v22.9c-.9-.3-2.7.4-2.8 2.7 0 2.4 3 3.9 4.7.9h6c2.2 3.1 4.3 6.3 6.5 9.3v7.9h-5.8c-1.8-2.1-4.2-.4-4.4 1.6.1 2.3 2.6 4 4.4 1.5h5.8v7.7c-2.4 2.1-.5 4.9 1.4 5 1.8 0 3.7-2.8 1.4-5v-7.6h5.8c2 2.5 4.4.6 4.4-1.5s-2.5-4-4.3-1.6h-5.9v-7.8l6.4-9.3h6c1.3 2.9 4.6 1.6 4.6-1 0-2.1-1.4-3.1-2.8-2.7v-22.9zm-15.4-11.4-2.1-4 2.1-3.7 2.1 3.7zm-2.6 6.6v-1.6h5.1v1.6c-1.7 0-3.5 0-5.1 0zm-3.4 24.5h4.6v4h-11.6v-21.6c3.4 3.6 4.3 8.9 4.8 13l.2 1.3c-1.5 0-2.8.2-2.8 2.7s3.7 3.8 4.8.6zm7.4 0h4.6c1.1 3.3 4.7 2.2 4.7-.6-.1-2.6-1.3-2.8-2.8-2.8.3-5.1 1.6-11 5-14.3v21.6h-11.5zm-1.6 13.4-4.2-6.2h8.6c-1.5 2-1.4 2-4.4 6.2z" fill="#fc0"/></g></svg>