<svg height="600" viewBox="0 0 238.125 158.75001" width="900" xmlns="http://www.w3.org/2000/svg"><g transform="translate(0 -138.24998)"><path d="m0 138.24998h238.125v158.75h-238.125z" fill="#39f"/><g fill="#ffdf00" fill-rule="evenodd" image-rendering="optimizeQuality" shape-rendering="geometricPrecision" stroke-width="1.137416" transform="matrix(.02327713 0 0 .02324645 0 138.4592)"><path d="m0 2386.7156v683.0821l5115 335.7023z"/><path d="m0 879.73741v787.16749l5115 1738.5951z"/><path d="m1226.6452-9.0000301h-1226.6452l5115 3414.50003z"/><path d="m5115 3405.5-2278.4938-3414.50003-711.9966.00003z"/><path d="m5115 3405.5-1157.5359-3414.50003h-524.0942z"/><path d="m5115 3405.5-223.5028-3414.50003h-454.7917z"/><path d="m10230 2386.7156v683.0821l-5115 335.7023z"/><path d="m10230 879.73741v787.16749l-5115 1738.5951z"/><path d="m9003.3548-9.0000301h1226.6452l-5115 3414.50003z"/><path d="m7393.4938-9.0000301h711.9966l-2990.4904 3414.50003z"/><path d="m6272.5358-9.0000301h524.6626l-1682.1984 3414.50003z"/><path d="m5338.5027-9.0000301h454.7917l-678.2944 3414.50003z"/></g><circle cx="119.0625" cy="217.62498" fill="#ffdf00" r="47.625"/><path d="m0 217.62498h238.125v79.375h-238.125z"/><g clip-rule="evenodd" fill="#ffdf00" fill-rule="evenodd" image-rendering="optimizeQuality" shape-rendering="geometricPrecision"><path d="m110812 21159s-97281 72418-97281 157810c0 85404 97281 159872 97281 159872s96656-68326 96656-159872c0-91540-96656-157810-96656-157810z" transform="matrix(0 .00002828 -.00029562 0 172.27452 222.44829)"/><path d="m110812 21159s-97281 72418-97281 157810c0 85404 97281 159872 97281 159872s96656-68326 96656-159872c0-91540-96656-157810-96656-157810z" transform="matrix(0 .00002666 -.00027619 0 168.77759 233.21283)"/><path d="m110812 21159s-97281 72418-97281 157810c0 85404 97281 159872 97281 159872s96656-68326 96656-159872c0-91540-96656-157810-96656-157810z" transform="matrix(0 .00002287 -.00024364 0 162.91805 242.85411)"/><path d="m110812 21159s-97281 72418-97281 157810c0 85404 97281 159872 97281 159872s96656-68326 96656-159872c0-91540-96656-157810-96656-157810z" transform="matrix(0 .00001747 -.00019792 0 154.68779 251.46903)"/><path d="m110812 21159s-97281 72418-97281 157810c0 85404 97281 159872 97281 159872s96656-68326 96656-159872c0-91540-96656-157810-96656-157810z" transform="matrix(0 .00001271 -.00013647 0 143.62651 258.62667)"/></g></g></svg>