<svg enable-background="new 0 0 1200 800" height="800" viewBox="0 0 1200 800" width="1200" xmlns="http://www.w3.org/2000/svg"><path d="m1200 800h-100v-800h100z" fill="#ff0"/><path d="m1100 800h-100v-800h100z" fill="#069"/><path d="m1000 800h-800v-800h800z" fill="#fff"/><path d="m200 800h-100v-800h100z"/><path d="m100 800h-100v-800h100z" fill="#c00"/><g fill="#373535" stroke="#fff"><path d="m556.51 127.489-3.921 23.415s9.085 9.044 7.786 19.437-7.786 14.322-7.786 14.322-5.156 29.877-11.651 45.466-20.8 36.373-20.8 36.373l14.265 3.865s-27.263 37.704-33.758 59.787c-6.495 22.084-5.188 62.321 10.4 94.796 15.588 32.477 94.812 80.588 124.69 107.869 29.877 27.279 18.186 55.809 18.186 55.809.271.646 11.316.467 16.368-.682s14.663-8.525 14.663-8.525 3.682 9.855 10.57 18.813c6.89 8.955 18.868 14.945 18.868 14.945s.232-26.885-.227-32.166c-.46-5.281 5.512-15.115 11.253-15.346 5.74-.229 9.406 7.539 12.162 9.605 2.755 2.066 8.235 1.15 8.695-.229.459-1.377-1.148-10.32 0-12.615 1.147-2.297 6.422-5.268 6.422-7.105 0-1.836-2.046-4.148-2.046-4.148l-57.401-77.859c5.494 7.082 67.154 88.498 86.67 110.141 0 0 13.723 21.361 29.894 36.373 16.113 14.957 27.46 14.186 35.065 11.707 4.143-1.35 1.194-7.957 1.194-7.957l-121.622-143.445c-36.294-52.9 73.24 89.691 132.761 133.84 14.938 7.793 31.193 4.57 34.44 3.922 3.247-.65-.909-12.049-.909-12.049-48.875-46.902-110.569-102.828-152.937-142.139l137.989 122.133s8.269 6.191 22.506 6.65 19.096-7.105 19.096-7.105c.844-1.273-.762-3.006-2.955-4.887l-172.43-136.113c.775.387 3.12.93 9.32-1.137 8.268-2.756 9.207-9.207 9.207-9.207s-7.36-8.682-10.116-10.059c-2.756-1.379-8.747-15.611-9.207-17.449-.459-1.836-14.125-7.909-22.392-6.99-4.469.497-8.813 5.123-11.878 9.32l-4.263 6.82s1.658-3.25 4.263-6.82l6.706-10.626s16.278.468 19.493-.91c3.078-1.318 2.396-14.537 2.33-15.686.849 1.907 16.357.475 21.313-7.104 2.317-3.544 1.421-13.981 1.421-13.981s12.211-2.27 18.641-8.24 3.41-24.779 3.41-24.779 9.227-7.398 12.901-11.991-2.501-20.346-2.501-20.346 6.636-8.125 8.014-14.095c1.378-5.971-6.024-15.572-6.024-15.572s8.961-5.525 10.798-15.629-10.57-18.471-10.57-18.471 8.704-9.387 6.706-21.994c-1.325-8.364-17.447-13.753-17.447-13.753s6.702-10.539 6.876-24.324c.138-10.885-20.857-15.913-20.857-15.913s-2.107-14.389-1.647-18.982c.459-4.593-6.423-8.297-6.423-8.297s-2.315 3.695-3.693 9.207-14.256 19.263-32.168 42.227c-17.911 22.964-18.343 37.251-19.721 45.978s7.332 55.071 7.332 55.071-3.22 5.984-16.539 15.628c-13.318 9.646-33.985 15.175-33.985 15.175l11.708-4.831-7.389-23.245 20.801-9.093s-9.126-2.623-14.322-13.015c-5.195-10.393-5.163-45.442-3.864-68.824s-14.322-62.345-14.322-62.345zm38.59 11.309c8.542 0 15.458 6.974 15.458 15.516s-6.916 15.458-15.458 15.458-15.458-6.916-15.458-15.458 6.916-15.516 15.458-15.516zm-.228 10.515c-3.137 0-5.683 2.444-5.683 5.456 0 3.011 2.546 5.456 5.683 5.456s5.683-2.444 5.683-5.456-2.546-5.456-5.683-5.456z"/><path d="m560.006 168.697c.964-4.761-2.334-12.114-8.956-17.682-20.623-.524-37.926 3.295-55.572 8.726 20.712 2.576 44.359 4.204 64.528 8.956z"/><path d="m559.546 170.763c-.353 5.977-3.154 9.931-7.119 13.549-15.253-.742-31.286-1.708-42.253-7.349 21.025-1.716 31.99-3.617 49.372-6.2z"/><path d="m788.332 172.909c15.595-8.2 34.359-21.387 44.554-34.986 31.387-39.909 53.045-76.228 30.234-88.431-36.563 37.11-85.117 88.425-96.78 93.845l1.306 12.64c11.258 2.219 20.544 9.922 20.686 16.932z"/><path d="m788.39 173.252 45.459-31.263 58.189-34.721s11.092-8.68 12.057 5.305c.964 13.985-10.288 37.775-45.491 61.244-35.204 23.469-60.691 33.737-60.691 33.737-4.156-5.438-9.005-8.933-16.083-11.738 3.199-7.445 6.422-14.436 6.56-22.564z"/><path d="m799.491 208.755c4.092-1.819 99.798-50.24 99.798-50.24s12.034-4.148 14.094 4.092c1.819 7.274-17.731 32.735-42.737 51.831-12.147 9.276-67.744 29.098-67.744 29.098l-10.43-11.582c6.591-9.357 7.731-13.92 7.019-23.199z"/><path d="m803.788 245.028c18.982-9.049 76.247-35.513 104.807-34.399 6.703 4.303 6.27 13.181 6.27 13.181-27.847 27.362-72.122 43.569-118.798 47.464l-4.079-5.748c7.539-5.907 11.112-12.023 11.8-20.498z"/><path d="m796.438 272.516c3.215 0 41.814.249 58.511-1.286 19.042-1.75 37.898-6.72 42.798-4.634 4.763 2.028-.245 21.646-8.765 25.021-32.437 12.658-56.023 15.353-96.363 15.165 1.003-6.662-2.477-8.345-5.144-10.931 8.68-4.2 12.38-15.548 8.963-23.335z"/><path d="m794.239 307.056c1.721 5.382 49.543-3.175 74.045 7.196.502 8.405-2.837 17.046-30.137 25.617l-60.73 1.74c1.449-3.575 2.584-7.567.455-15.913 8.173-1.458 16.439-10.994 16.367-18.64z"/><path d="m779.998 342.119c29.854 2.245 46.607 13.223 66.87 21.861-.915 7.258-3.827 13.519-11.573 17.361-21.433.882-43.509-3.07-64.941-9.002l-14.146-6.43 1.285-7.716c13.419-.427 19.321-7.118 22.505-16.074z"/><path d="m756.779 367.481s50.415 31.477 44.366 41.794c-10.931 18.646-70.085-14.146-70.085-14.146l1.286-15.432c12.585 1.257 20.42-3.187 24.433-12.216z"/><path d="m505.986 415.266c-14.81-38.254-7.621-77.388 7.729-116.848-12.678-2.852-20.354-9.277-24.551-18.187 13.533-42.206 5.071-77.813-17.732-109.118-13.935-11.446-25.588-28.125-34.1-40.465l-.455 24.552c-28.972 4.05-33.444 19.3-20.005 42.738-15.751 10.206-15.026 21.326-9.093 32.736-9.152 11.111-15.999 22.422 2.273 35.918-11.905 8.553-10.666 19.182.455 31.371-3.603 12.984-7.821 26.109 14.549 33.19 1.5 11.552-11 26.464 18.186 31.371.095 13.58 4.897 23.282 25.461 20.006.606 13.64 7.274 20.005 20.005 19.095.623 9.17 4.589 15.33 17.278 13.641z"/><path d="m434.605 154.291s1.135-17.767 0-15.458c-3.913 7.955-93.85-88.683-93.66-89.568-8.786 1.268-15.078 5.445-13.64 18.641 4.213 25.928 22.894 57.203 82.56 102.753 6.435-9.682 15.857-12.396 24.74-16.368z"/><path d="m418.237 197.483c-7.595-7.331-8.668-16.963-9.093-26.825l-103.208-69.563c-5.604 3.087-11.86 5.231-10.002 19.096 53.088 61.459 82.658 77.401 109.573 88.204 3.421-5.008 8.049-8.004 12.73-10.912z"/><path d="m398.232 243.858 9.093-13.185c-2.847-6.546-5.748-13.082-1.488-20.882-10.794-7.529-102.471-54.928-118.832-55.409-6.367 23.678 49.875 62.086 49.875 62.086z"/><path d="m398.232 243.404-62.183-24.846c-20.879-4.914-48.995-14.129-53.167-6.577-4.241 7.677 18.939 33.286 40.896 42.173l43.082 17.438 35.918 1.819 8.184-7.274c-9.411-4.477-14.032-11.828-12.73-22.733z"/><path d="m408.184 310.504c-.778-4.017.374-8.677 3.233-13.905-9.044-3.322-10.586-12.037-10.002-22.279l-105.41-2.715c1.779 18.851 31.379 35.255 112.179 38.899z"/><path d="m405.961 312.057-31.372-.455c-17.102 4.735-34.579 6.474-52.286 6.365 10.786 42.85 73.284 26.303 101.389 25.007l2.273-11.821c-9.131-2.259-16.317-7.761-20.004-19.096z"/><path d="m422.784 344.792c-.527-2.726-67.332 19.931-68.767 22.96 2.4 31.582 48.319 16.149 91.955 7.957l-2.728-13.64c-12.62-.417-19.359-6.25-20.46-17.277z"/><path d="m444.948 375.482c-1.69-2.722-55.389 32.098-48.99 37.282 17.56 10.662 37.527 9.283 75.019-17.503l-2.728-12.73c-11.121 1.309-18.847-1.085-23.301-7.049z"/><path d="m470.068 395.714c-18.332 18.215-24.882 26.178-28.047 42.397 21.049 11.801 39.484-6.137 58.196-20.914-4.876-4.203-12.098-5.801-11.963-15.572-6.486 1.426-12.277-2.713-18.186-5.911z"/><path d="m640.416 582.156c1.264-15.277 4.65-22.982 11.366-29.779-12.095-19.031-31.98-33.418-52.74-48.648 3.192 20.441 1.366 38.383-14.094 51.604 0 0 30.982-1.35 31.144-.455.572 3.173 12.45 23.132 24.324 27.278z"/><path d="m612.822 551.09c-1.803 1.709-23.922 3.852-25.076 1.928l-48.224 63.656-60.44-10.932c-20.875-.635-25.088 6.811-29.256 12.859 9.47 2.029 20.065 9.201 27.97-1.285 7.131 1.42 18.781.805 20.254 7.072l22.826 2.252-68.156 5.465c-10.273 6.1-8.689 14.762-11.574 22.504 8.276-2.293 16.602-4.238 25.719-.643-2.694-6.084 1.861-8.264 10.288-8.359l30.863.643 18.646-14.145c-14.626 14.35-28.992 29.021-46.938 39.223-3.153 6.521-4.698 13.203.643 20.574 5.109-3.678 8.749-8.826 21.218-5.143 1.715-7.719 3.429-15.9 5.144-18.646 12.394-8.574 25.33-17.146 38.579-25.721 26.246-4.648 45.302 1.49 66.871 3.857 1.59-8.137-10.308-13.563-18.004-18.324l-37.936-4.822c14.037-17.973 43.294-40.295 64.941-60.441-3.499-2.668-7.331-4.781-8.358-11.572z"/><path d="m696.41 599.313c-6.995-7.014-9.35-13.1-12.217-19.289-5.151 3.246-9.481 7.039-17.039 8.68-10.817 20.543-23.266 49.244-36.65 82.625l-69.12-4.502c-15.167-.795-19.457 6.957-22.826 15.432 7.204 1.357 13.998 3.33 22.826 2.25 1.179-3.688.559-8.125 11.574-7.715 11.71 4.426 24.417 6.361 39.542 2.25l-61.083 16.074c-15.101 6.49-13.948 17.314-17.039 27.006 15.153-8.555 27.466.082 31.828-18.324l35.364-5.467 22.504-11.572-22.826 13.18c-5.417 14.357-17.43 24.945-28.612 36.008l11.896 14.789 3.536-9.324c13.669 2.275 12.288-7.971 16.074-12.537-.869-16.189 24.862-19.076 39.222-27.648l50.475-3.537 17.683 1.285c-3.113-9.902-10.82-18.764-22.505-17.682-11.546.035-25.216-.463-40.187-1.285 14.675-29.27 29.54-58.158 47.58-80.697z"/></g><g stroke="#000"><path d="m594.941 76.346c-5.554-.285-9.307 7.319-9.24 11.735.06 3.954 3.169 4.648 7.088 4.897s1.872 4.128 1.872 4.128-4.709 9.126-16.046 8.48c-9.253-.527-14.07-7.174-14.663-9.967s9.057-2.91 9.057-2.91l.44-5.223s-3.556-1.876-4.31-4.836c-.753-2.96-5.667-2.576-6.868.014s-7.596-4.09-7.596-4.09l-14.053-.47-.697 9.469s.405-3.588 11.461 14.313 5.861 23.675 5.861 23.675l98.046 2.137s-4.938-5.994 6.888-23.397c11.826-17.402 11.573-14.44 11.573-14.44l.218-8.85-14.06-.143s-6.681 6.396-7.768 3.755c-1.088-2.64-5.98-3.237-6.861-.313s-4.517 4.644-4.517 4.644l.213 5.237s9.636.537 8.922 3.301c-.714 2.765-5.817 9.196-15.083 9.319-11.355.151-15.662-9.172-15.662-9.172s-1.876-3.965 2.051-4.043c3.926-.078 7.063-.636 7.295-4.583.26-4.409-3.169-12.169-8.73-12.127-5.904.045-7.588-11.939-7.588-11.939l-10.46-.228c.002.001-2.999 10.564-6.783 11.627z" fill="#fff215"/><path d="m655.311 118.587-97.081-2.117" fill="none"/></g></svg>