<svg height="400" width="600" xmlns="http://www.w3.org/2000/svg"><path d="m417.40672 202.5311h-7.59328v-5.06219h7.59328c1.39771.00096 2.5311-1.13338 2.5311-2.53109 0-1.39651-1.13339-2.5299-2.5311-2.5299h-7.59328l5.0622-5.06218h2.53108c4.12999.0142 7.59328 3.40018 7.59328 7.59208 0 1.94535-.73218 3.71925-1.93462 5.06338 1.20244 1.34293 1.93462 3.11683 1.93462 5.061 0 4.19308-3.46329 7.57899-7.59328 7.59328h-7.59328v-5.0622h7.59328c1.39771 0 2.5311-1.13338 2.5311-2.53108 0-1.39769-1.13339-2.5311-2.5311-2.5311zm-196.84737-2.53109c0-6.98729 5.66722-12.65548 12.65534-12.65548 6.98813 0 12.65535 5.66819 12.65535 12.65548 0 6.98848-5.66722 12.65547-12.65535 12.65547-6.98812 0-12.65534-5.66699-12.65534-12.65547zm12.65534 17.71764c9.78352 0 17.71753-7.93378 17.71753-17.71764 0-9.78269-7.93401-17.71766-17.71753-17.71766-9.78339 0-17.71754 7.93497-17.71754 17.71766 0 9.78387 7.93415 17.71764 17.71754 17.71764zm-5.06075-25.31093h5.06075c4.19286 0 7.59328 3.40019 7.59328 7.59328s-3.46352 7.57899-7.59328 7.59327h-5.06075v-5.06218h5.06075c1.39758 0 2.5311-1.13339 2.5311-2.53109s-1.13352-2.5311-2.5311-2.5311h-5.06075zm43.0256-5.06099h5.06208v25.30974h-5.06208l-10.12437-15.89018v15.89018h-5.06206v-25.30974h5.06206l10.12437 15.89016zm-75.9309 0h15.18646v5.06218h-10.12439v5.06099h10.12439v5.06219h-10.12439v5.06218h10.12439v5.0622h-15.18646zm86.05384 0h5.06243v25.30974h-5.06243zm20.24899 25.30974c5.59079 0 10.12438-4.53359 10.12438-10.12438v-5.061c0-5.59079-4.53359-10.12436-10.12438-10.12436h-10.12437v25.30974zm0-20.24756c2.7954 0 5.06218 2.26679 5.06218 5.06219v5.061c0 2.7954-2.26678 5.06218-5.06218 5.06218h-5.06219v-15.18536zm88.01443 7.5921c0 6.98848-5.66699 12.65547-12.65548 12.65547-6.98728 0-12.65546-5.66699-12.65546-12.65547 0-6.98729 5.66818-12.65548 12.65546-12.65548 6.98849 0 12.65548 5.66819 12.65548 12.65548zm-12.65548-17.71766c-9.78268 0-17.71646 7.93497-17.71646 17.71766 0 9.78387 7.93378 17.71764 17.71646 17.71764 9.78388 0 17.71766-7.93378 17.71766-17.71764 0-9.78269-7.93378-17.71766-17.71766-17.71766zm-201.91042 5.06218h5.06221v20.24874h10.12425v5.0622h-15.18646zm229.75126.00096v25.30974h-5.06219v-20.24756zm-58.21276 15.18536c-1.3977 0-2.53109 1.1334-2.53109 2.5311v2.5311h10.12437v5.06218h-15.18657c0-2.5311 0-5.06218 0-7.59328.0143-4.12997 3.4002-7.59326 7.59329-7.59326 1.3965.00094 2.53109-1.1334 2.53109-2.53112 0-1.39651-1.13459-2.5299-2.53109-2.5299h-7.59329l5.0622-5.06218h2.53109c4.1288.0143 7.59328 3.40018 7.59328 7.59208 0 4.1931-3.40138 7.59328-7.59328 7.59328z" fill="#800080"/><path d="m0 0h600v400h-600z" fill="#005bbb"/><path d="m0 100h600v200h-600z" fill="#fff"/><g transform="matrix(.50073566 0 0 .50073566 14.660916 104.77908)"><g fill-rule="evenodd"><path d="m210.92065 380.08552c0-12.52272 5.7347-25.5964 20.38926-25.5964l43.13001.002c18.89302-.004 36.71472-15.98696 36.71472-35.08163v-1.60608-.004-38.0273c9.73009 0 21.59921-13.15651 21.59921-22.47068v-94.80357c-10.85902 0-21.35254-2.16064-27.41494-12.06899-4.96408-8.11141-4.08902-17.92613.28628-26.07355l.0162-.0162.009-.0162-.007-.004c.89666-1.65829 2.16964-3.12753 3.7037-4.22405-1.23157 1.97698-1.82394 4.15563-1.83475 6.29467-.0432 7.72429 7.13372 12.88823 14.36647 11.60084 5.89315-1.04971 9.58065-5.95617 10.61596-11.56663 2.06881-11.19213-4.66519-19.60423-12.25624-26.557896-11.32196-10.368692-17.1809-22.821192-20.5533-38.131142h-57.853v-25.951113h-77.57785v25.951113h-57.85299c-3.37061 15.30995-9.231348 27.76245-20.553113 38.131732-7.591056 6.953666-14.325057 15.365766-12.256243 26.557896 1.035308 5.61046 4.722804 10.51692 10.615955 11.56663 7.23275 1.28739 14.409683-3.87655 14.36647-11.60084-.0108-2.13904-.601379-4.31769-1.834745-6.29467 1.535856 1.09652 2.807034 2.56576 3.703696 4.22405l-.005.004.007.0162.018.0162c4.3735 8.14742 5.24856 17.96214.28629 26.07355-6.064207 9.90835-16.557725 12.06899-27.416753 12.06899v94.80357c0 9.31417 11.869128 22.47068 21.599219 22.47068v38.0273.004 1.60608c0 19.09467 17.821694 35.07802 36.714714 35.08163l43.13002-.002c14.65455 0 20.38925 13.07368 20.38925 25.5964h15.75469z" fill="#005bbb"/><path d="m192.74425 74.727373h-1.6727c.6842-4.733607 5.57806-8.404898 11.51442-8.404898h.86786c5.93456 0 10.83022 3.671291 11.51442 8.404898h-1.6727l.80844 1.755522h.94708v14.838209h-.84085v3.339993h22.5427v-5.749108h-1.84915v-26.165377h1.71591l1.72852-2.293881h-2.37131v-6.737603h2.64499l1.51425-2.745816h-3.3724c-.11344-1.841947-.48075-3.253567-1.82214-4.594965-.90207-.902068-1.91577-1.834745-1.70331-3.29678.0864-.60678.3313-1.256773.57977-1.88516l-.72201-1.096526h-29.14887-1.85455-29.14886l-.72201 1.096526c.24667.628387.49154 1.27838.57977 1.88516.21246 1.462035-.80124 2.394712-1.70511 3.29678-1.3396 1.341398-1.70691 2.753018-1.82034 4.594965h-3.3724l1.51425 2.745816h2.64498v6.737603h-2.3713l1.72851 2.293881h1.71591v26.165377h-1.84915v5.749108h22.5409v-2.886258l-.83905-.453735v-14.838209h.94708z" fill="#ffd500" stroke="#000" stroke-width=".818113"/><path d="m199.14155 59.588474h7.7567l-1.39001 7.497428h-4.97668z"/><path d="m237.46954 52.636608.76703-1.6835h-70.43334l.76523 1.6835z"/><path d="m214.01037 50.434553c.004-2.162442.91467-3.453426 1.75912-4.490534 1.08572-1.332396 1.82394-2.122831 1.09292-4.098018l-.48434.04141c.56897 1.528655-.0288 2.459531-1.02811 3.505642-1.13073 1.186553-2.57116 2.520749-2.50634 5.041498h1.16675z"/><path d="m226.83378 49.719741v-5.689691h.6806v5.689691h3.63168v-5.689691h.6824v6.3919h-13.62285v-6.3919h.6824v5.689691h3.63168v-5.689691h.68061v5.689691z"/><path d="m179.21863 89.781647.94348 1.164946v1.020904l-1.84555-.729217h-3.94678l-1.84734.729217v-1.020904l.94528-1.164946-.12784-26.268007-.96509-1.433226h2.22906 3.55426l1.06052 1.319793zm-1.3432-26.152772h-3.43723v25.94571c1.15235-.0126 2.28848-.01801 3.43723-.0018z"/><path d="m192.78746 61.76352h-2.14084v7.645072c2.21646-3.015896 5.89495-4.886652 9.50683-5.48443l-.17465-.47354c-2.3551.189056-5.23416.655394-7.19134 1.41342z"/><path d="m192.02943 50.434553c-.004-2.162442-.91647-3.453426-1.76092-4.490534-1.08392-1.332396-1.82214-2.122831-1.09112-4.098018l.48434.04141c-.56897 1.528655.0288 2.459531 1.0281 3.505642 1.13074 1.186553 2.57117 2.520749 2.50635 5.041498h-1.16675z"/><path d="m231.49356 41.266229-.43573.984892h-56.07586l-.43573-.984892z"/><path d="m177.25064 59.023106h3.52545v.844451h-3.52545zm5.74011 0h3.52364v.844451h-3.52364zm5.7401 0h3.52365v.844451h-3.52365zm5.74011 0h3.52365v.844451h-3.52365zm5.7401 0h3.52365v.844451h-3.52365zm5.73831 0h3.52545v.844451h-3.52545zm5.74011 0h3.52544v.844451h-3.52544zm5.7401 0h3.52365v.844451h-3.52365zm5.74011 0h3.52364v.844451h-3.52364zm5.7401 0h3.52365v.844451h-3.52365zm-57.39745 0h3.52364v.844451h-3.52364z"/><path d="m212.70498 50.434553v-5.776116h-19.37196v5.776116h-.6806v-6.478325h20.73496v6.478325z"/><path d="m226.97782 58.994297h-2.54776v-6.782615h2.54776zm-4.55716 0h-2.54775v-6.782615h2.54775zm-4.55715 0h-2.54776v-6.782615h2.54776zm-4.55715 0h-2.54776v-6.782615h2.54776zm-4.55896 0h-2.54776v-6.782615h2.54776zm22.78757 0h-2.54775v-6.782615h2.54775zm-52.47299 0h2.54776v-6.782615h-2.54776zm4.55715 0h2.54776v-6.782615h-2.54776zm4.55716 0h2.54775v-6.782615h-2.54775zm4.55715 0h2.54776v-6.782615h-2.54776zm4.55716 0h2.54955v-6.782615h-2.54955zm-22.78758 0h2.54956v-6.782615h-2.54956zm27.2421 0h2.54956v-6.782615h-2.54956z"/><path d="m179.20602 49.719741v-5.689691h-.6806v5.689691h-3.63168v-5.689691h-.6824v6.3919h13.62285v-6.3919h-.68241v5.689691h-3.63168v-5.689691h-.6806v5.689691z"/><path d="m183.22122 89.781647-.94529 1.164946v1.020904l1.84735-.729217h3.94498l1.84734.729217v-1.020904l-.94528-1.164946.12784-26.268007.96509-1.433226h-2.22906-3.55426l-1.05871 1.319793zm1.34319-26.152772h3.43543v25.94571c-1.15235-.0126-2.28848-.01801-3.43543-.0018z"/><path d="m222.81858 89.781647.94528 1.164946v1.020904l-1.84735-.729217h-3.94497l-1.84735.729217v-1.020904l.94528-1.164946-.12783-26.268007-.96689-1.433226h2.23086 3.55426l1.05871 1.319793zm-1.3432-26.152772h-3.43542v25.94571c1.15235-.0126 2.28848-.01801 3.43542-.0018z"/><path d="m226.82117 89.781647-.94348 1.164946v1.020904l1.84555-.729217h3.94677l1.84735.729217v-1.020904l-.94528-1.164946.12784-26.268007.96509-1.433226h-2.22907-3.55425l-1.06052 1.319793zm1.3432-26.152772h3.43722v25.94571c-1.15234-.0126-2.28848-.01801-3.43722-.0018z"/><path d="m213.25234 61.76352h2.14084v7.645072c-2.21646-3.015896-5.89496-4.886652-9.50683-5.48443l.17465-.47354c2.3533.189056 5.23416.655394 7.19134 1.41342z"/><g fill="#ffd500"><path d="m199.84736 60.177249 1.17214 6.319878h4.00079l1.17215-6.319878zm3.52724 5.106317.42673-4.247462.58337.05762-.42672 4.247463-.58338-.05762zm-1.29458.05762-.42493-4.247463.58338-.05762.42492 4.247462-.58337.05762z"/><path d="m145.03187.73798414h27.30331c2.6918 3.99898846 5.18194 8.04299026 7.49203 12.12840486h11.34337v-12.12840486h22.66153v12.12840486h11.34157c2.31009-4.0854146 4.80023-8.1294164 7.49383-12.12840486h27.30151c-7.61986 9.84892686-13.65345 20.01474786-18.60132 30.40023486h-77.73451c-4.94607-10.385487-10.98146-20.551308-18.60132-30.40023486z" stroke="#a80"/></g></g><path d="m203.50244 114.49759c4.49414 0 8.14202 3.64789 8.14202 8.14202 0 4.49414-3.64788 8.14202-8.14202 8.14202-4.49413 0-8.14022-3.64788-8.14022-8.14202 0-4.49413 3.64609-8.14202 8.14022-8.14202z" fill="none"/><path d="m210.06539 115.62833c3.87295 3.87475 3.86215 10.16042-.0108 14.03337-3.87475 3.87295-10.16222 3.86395-14.03337-.0108-3.87295-3.87476-3.86395-10.16042.0108-14.03337 3.87475-3.87296 10.16042-3.86395 14.03337.0108zm-11.52162 2.51715c-2.48114 2.47933-2.47034 6.51613.004 8.99367 2.47934 2.48114 6.51794 2.47033 8.99547-.004 2.47934-2.47934 2.47214-6.51794-.005-8.99548-2.47753-2.48113-6.51613-2.47213-8.99367.005z" fill="#ffd500" fill-rule="evenodd"/><path d="m103.0722 90.606292c-1.59348 2.401914-3.329194 4.683192-5.207152 6.856438-4.422114 5.11712-10.239643 8.94506-14.362868 14.23863-4.038601 5.18374-6.309075 12.1176.749022 18.63554" fill="none"/><path d="m109.01576 126.05883c1.73752 3.93777 2.71701 8.30046 2.71701 12.91164 0 17.36075-13.653458 31.43734-30.488461 31.43734v84.42169c-.0018 9.40599 7.625266 17.03306 17.031261 17.03306l4.56796-.002v45.93885c0 15.90953 12.90263 28.81036 28.81036 28.81036h43.11921c14.7878 0 26.78116 11.99157 26.78116 26.77936" fill="none"/><path d="m163.48915 69.646263h-50.92633c-2.76022 9.62206-6.82943 17.785686-12.27785 24.852786" fill="none"/><g fill="#ffd500" fill-rule="evenodd"><path d="m203.04331 361.73987c-4.63278-11.35237-15.89873-18.94343-28.2666-18.94343h-43.13002c-13.68227-.002-24.98963-11.31096-24.98963-24.99323l.0144-49.75778-8.3959.004v-.0144h-.0072v.0144c-7.293968-.002-13.212327-6.0408-13.212327-13.21593l.01621-80.82782c25.920507-2.95288 39.330887-34.06253 23.352947-55.43308-4.72821-6.32168-12.753197-10.81401-20.616133-7.90435 3.078915-3.23196 6.683586-6.02459 8.957662-8.06279 8.694791-7.796319 14.735581-17.025862 18.631941-29.130859h45.7678v-7.655876h-51.4827c-2.57476 11.698077-7.89895 23.151281-15.997757 32.085536-3.894557 4.292479-8.707388 7.654079-12.175218 12.339069-4.098018 5.53664-6.25686 15.28474-1.323393 21.06626 4.57876 5.36559 14.760786 2.681 14.30345-5.18014-.212463-3.66949-2.758419-7.22555-7.513633-7.22555-2.15344 0-4.096217.88767-5.488031 2.31729-.07742-2.20926 1.121734-4.3807 3.145535-5.64468 2.331693-1.45843 5.738306-1.75732 8.793814-1.23156 4.40771.75802 8.419303 3.97378 10.623163 8.0808 11.89253 22.14658-2.97449 44.15452-26.635322 44.15452l.0144 88.25323c0 11.31816 9.330373 20.83759 20.837593 20.84119v.0162h.0072v-.0162h.74002l.0144 42.12892c.0018 17.91173 14.704969 32.6167 32.616699 32.6203l43.13002-.002c13.96675.002 24.47287 12.08699 24.47287 25.5802h7.58925c0-13.49321 10.50613-25.5784 24.47108-25.5802l43.13001.002c17.91173-.004 32.6149-14.70857 32.6167-32.6203l.0144-42.12892h.74002v.0162h.007v-.0162c11.50722-.004 20.8376-9.52303 20.8394-20.84119l.0144-88.25323c-23.66083 0-38.52965-22.00794-26.63531-44.15452 2.20385-4.10702 6.21364-7.32278 10.62315-8.0808 3.05371-.52576 6.46032-.22687 8.79202 1.23156 2.0238 1.26398 3.22295 3.43542 3.14733 5.64468-1.39181-1.42962-3.33639-2.31729-5.48803-2.31729-4.75701 0-7.30297 3.55606-7.51543 7.22555-.45734 7.86114 9.72469 10.54573 14.30345 5.18014 4.93526-5.78152 2.77462-15.52962-1.3216-21.06626-3.46783-4.68499-8.28246-8.04659-12.17521-12.339069-8.10061-8.934255-13.42479-20.387459-15.99776-32.085536h-51.4827v7.655876h45.7678c3.89636 12.104997 9.93536 21.33454 18.63194 29.130859 2.27228 2.0382 5.87695 4.83083 8.95586 8.06279-7.86293-2.90966-15.88792 1.58267-20.61432 7.90435-15.97975 21.37055-2.56937 52.4802 23.35294 55.43308l.0144 80.82782c0 7.17513-5.91836 13.21413-13.21233 13.21593v-.0144h-.007v.0144l-8.39589-.004.0162 49.75778c-.002 13.68227-11.30916 24.99143-24.99143 24.99323h-43.13001c-12.36788 0-23.63203 7.59106-28.2666 18.94343z"/><path d="m266.32851 302.73453h-6.20644c-13.06648 0-17.47599-9.14311-11.50182-24.2496l9.51583-24.05695c6.90865-17.47059 17.58402-18.61573 34.71071-17.51921-.16925-20.02735-3.3832-41.42671-13.52021-60.08205l-38.12633 95.567c-6.0372 15.12989-10.97066 18.15119-22.88481 18.15119h-30.54427c-11.91414 0-16.84761-3.0213-22.8848-18.15119l-38.12814-95.567c-10.13521 18.65534-13.34916 40.0547-13.51841 60.08205 17.12489-1.09652 27.80026.0486 34.71071 17.51921l9.51583 24.05695c5.97418 15.10649 1.56467 24.2496-11.50182 24.2496h-6.20644v11.00127h48.57123c4.45093 0 9.13772.93988 10.0938 9.37539h9.24035c.95608-8.43551 5.64288-9.37539 10.0938-9.37539h48.57123zm-4.98208 3.03931c-1.3594 0-2.46133 1.10193-2.46133 2.46133s1.10193 2.46313 2.46133 2.46313c1.35941 0 2.46133-1.10373 2.46133-2.46313s-1.10192-2.46133-2.46133-2.46133zm18.20701-112.10852c-2.09042 0-3.78652 1.10193-3.78652 2.46133 0 1.35941 1.6961 2.46133 3.78652 2.46133 2.09043 0 3.78473-1.10192 3.78473-2.46133 0-1.3594-1.6943-2.46133-3.78473-2.46133zm-153.02027 0c2.09222 0 3.78652 1.10193 3.78652 2.46133 0 1.35941-1.6943 2.46133-3.78652 2.46133-2.09042 0-3.78653-1.10192-3.78653-2.46133 0-1.3594 1.69611-2.46133 3.78653-2.46133zm18.20701 112.10852c1.3594 0 2.46133 1.10193 2.46133 2.46133s-1.10193 2.46313-2.46133 2.46313c-1.35941 0-2.46133-1.10373-2.46133-2.46313s1.10192-2.46133 2.46133-2.46133z"/><path d="m205.56586 271.36021c4.27267 3.28778 12.7982 4.57516 19.43137-7.97457 2.22006-4.19705 3.18875-7.96917 6.60616-12.29045-9.38078 5.17654-16.04096-1.98419-22.18439 7.05269.91107-5.61587.36371-9.55904-.96509-12.91884-1.33059-3.35979-3.44802-5.87514-5.34578-10.63216-1.89777 4.75702-4.0152 7.27237-5.34399 10.63216-1.3306 3.3598-1.87616 7.30297-.96509 12.91884-6.14523-9.03688-12.8036-1.87615-22.18619-7.05269 3.41921 4.32128 4.3861 8.0934 6.60616 12.29045 6.63317 12.54973 15.16051 11.26235 19.43137 7.97457v11.40279h4.91547z"/><path d="m167.99949 230.20538c3.23916 3.12753 6.716 4.19705 9.91015 4.80563 3.79552.72381 7.44521.80484 10.23064 3.79733 7.34258 7.88634-3.06631 15.47379-11.02288 8.95586-4.47253-3.66229-8.56334-9.95516-9.11791-17.55882zm29.15247-18.07377c-.77243 6.35949-3.3526 10.53493-5.28277 14.44209-1.48725 3.0159-3.06632 6.01019-2.78543 9.72109.46814 6.12182 6.3937 9.79671 10.092 3.30218 1.61148-2.83044 2.90246-6.25686 2.93487-9.72829.0504-5.66809-1.72671-13.26814-4.95867-17.73707zm-35.61999 1.10013c3.23916 3.12752 6.7178 4.19704 9.91194 4.80562 3.79553.72202 7.44342.80484 10.22884 3.79733 7.34439 7.88635-3.06631 15.4738-11.02287 8.95586-4.47253-3.66229-8.56335-9.95516-9.11791-17.55881zm29.18307-17.99635c-.77243 6.35949-3.35439 10.53493-5.28277 14.44209-1.48904 3.0159-3.06811 6.01018-2.78543 9.72109.46634 6.12182 6.3937 9.79671 10.092 3.30218 1.60968-2.83044 2.90247-6.25686 2.93488-9.72829.0486-5.66809-1.72852-13.26634-4.95868-17.73707zm-6.43871-16.89622c-.77243 6.35949-3.3526 10.53493-5.28277 14.44209-1.48724 3.01589-3.06631 6.01018-2.78363 9.72109.46634 6.12182 6.3919 9.79851 10.0902 3.30218 1.61148-2.83044 2.90426-6.25506 2.93487-9.72829.0504-5.66809-1.72851-13.26635-4.95867-17.73707zm-29.21188 17.91892c3.23916 3.12933 6.71779 4.19705 9.91194 4.80563 3.79553.72381 7.44342.80484 10.22884 3.79733 7.34258 7.88634-3.06631 15.4738-11.02287 8.95586-4.47253-3.66229-8.56335-9.95336-9.11791-17.55882zm-6.46752-16.97364c3.23916 3.12933 6.71599 4.19704 9.91014 4.80562 3.79553.72382 7.44521.80484 10.23064 3.79733 7.34258 7.88635-3.06631 15.4738-11.02288 8.95586-4.47252-3.66228-8.56514-9.95335-9.1179-17.55881zm29.24069-17.84151c-.77063 6.35949-3.3526 10.53674-5.28097 14.4421-1.48905 3.01769-3.06812 6.01198-2.78543 9.72108.46634 6.12362 6.3937 9.79852 10.0902 3.30399 1.61148-2.83224 2.90426-6.25686 2.93487-9.72829.0504-5.66989-1.72671-13.26815-4.95867-17.73888zm-6.43872-16.89442c-.77063 6.35949-3.35259 10.53673-5.28097 14.4421-1.48904 3.01769-3.06811 6.01198-2.78543 9.72108.46634 6.12362 6.3937 9.79852 10.0902 3.30219 1.61148-2.83045 2.90427-6.25506 2.93488-9.7265.0504-5.66988-1.72672-13.26814-4.95868-17.73887zm-29.2713 17.76408c3.23917 3.12753 6.7178 4.19525 9.91195 4.80383 3.79553.72382 7.44341.80484 10.23064 3.79913 7.34258 7.88454-3.06811 15.472-11.02468 8.95586-4.47253-3.66229-8.56334-9.95516-9.11791-17.55882zm10.16942-20.1858c-.58157 5.10452-1.13253 10.44671-.79943 16.34166.95968 16.94304 19.23331 1.97519 12.30305-7.18053-2.97988-3.93777-7.85213-7.02209-11.50362-9.16113zm-5.84453 20.33525-23.11887-60.67083 2.22186-1.3378 23.45917 61.5657c.063.57977.12964 1.15954.19806 1.73931-.36551-.12784-.73102-.27188-1.09473-.43213-.55456-.24307-1.11093-.52575-1.66549-.86425zm2.0184-9.98937-20.40007-53.537113 2.22187-1.337797 18.57251 48.74229c-.25927 1.99139-.38171 4.0422-.39431 6.13262zm1.47644-11.41539-17.1393-44.977371 2.22186-1.337798 16.94304 44.466019c-.45374-.20707-.91107-.41413-1.37381-.61759zm5.84633.0558-18.24662-47.887029 2.22006-1.339598 19.63124 51.516907c-1.16135-.85345-2.36411-1.60427-3.60468-2.29028zm8.35629 6.63858-21.8657-57.381258 2.22006-1.337798 23.11167 60.649226c-.19446.56897-.40332 1.11633-.61939 1.64929-.87326-1.24597-1.82394-2.44513-2.84664-3.57946zm4.65978-3.05731-21.78827-57.179597 2.22006-1.337797 20.23081 53.090574-.60498 4.98208c-.018.14945-.0378.29709-.0576.44474zm-29.47116 14.38807-20.74216-54.43558 2.22006-1.33959 21.03385 55.1972z"/><path d="m144.28824 253.61234-25.9367 59.43566 13.65886-12.83061 16.5145-36.01251-3.42101-8.65337c-.26648-.6734-.53656-1.31979-.81565-1.93917zm59.39065-121.32726-6.43691-.018-14.4691 33.15506c1.21176 3.12212 1.97879 6.43331 2.3587 9.7589.88046 1.22076 1.77533 2.41451 2.50455 3.73611l10.20363-22.25102h3.06811v22.38066h5.54205v-22.38066h3.06811l10.20183 22.24742c.72922-1.3198 1.62589-2.51355 2.50635-3.73251.37991-3.32739 1.14514-6.63858 2.3569-9.7625l-14.4673-33.15146zm-43.91325 85.86032-6.91585 15.84831 4.43472 11.1129 7.61266-16.60094c-2.24347-2.86645-4.10882-6.38289-5.13153-10.36027zm82.69498 10.35847 6.93386 15.1191 4.44912-11.15252-6.25326-14.32866c-1.0227 3.97739-2.88805 7.49563-5.12972 10.36208zm15.68986 34.21017 17.19691 37.50335 13.65886 12.83061-26.54889-60.84008c-.50955 1.0317-1.00109 2.14444-1.47464 3.34359z"/><path d="m239.3583 230.20538c-3.23916 3.12753-6.716 4.19705-9.91015 4.80563-3.79552.72381-7.44521.80484-10.23064 3.79733-7.34258 7.88634 3.06631 15.47379 11.02468 8.95586 4.47073-3.66229 8.56334-9.95516 9.11611-17.55882zm-29.15247-18.07377c.77243 6.35949 3.3544 10.53493 5.28277 14.44209 1.48905 3.0159 3.06812 6.01019 2.78543 9.72109-.46634 6.12182-6.3937 9.79671-10.092 3.30218-1.60968-2.83044-2.90246-6.25686-2.93487-9.72829-.0486-5.66809 1.72851-13.26814 4.95867-17.73707zm35.61999 1.10013c-3.23916 3.12752-6.716 4.19704-9.91195 4.80562-3.79372.72202-7.44341.80484-10.22884 3.79733-7.34258 7.88635 3.06632 15.4738 11.02288 8.95586 4.47253-3.66229 8.56515-9.95516 9.11791-17.55881zm-29.18127-17.99635c.77063 6.35949 3.35259 10.53493 5.28097 14.44209 1.48904 3.0159 3.06811 6.01018 2.78543 9.72109-.46634 6.12182-6.3937 9.79671-10.0902 3.30218-1.61148-2.83044-2.90427-6.25686-2.93488-9.72829-.0504-5.66809 1.72672-13.26634 4.95868-17.73707zm6.43691-16.89622c.77243 6.35949 3.3544 10.53493 5.28277 14.44209 1.48724 3.01589 3.06811 6.01018 2.78543 9.72109-.46634 6.12182-6.3937 9.79851-10.092 3.30218-1.61148-2.83044-2.90246-6.25506-2.93487-9.72829-.0486-5.66809 1.72851-13.26635 4.95867-17.73707zm29.21188 17.91892c-3.23916 3.12933-6.71599 4.19705-9.91014 4.80563-3.79553.72381-7.44522.80484-10.23064 3.79733-7.34259 7.88634 3.06631 15.4738 11.02287 8.95586 4.47253-3.66229 8.56515-9.95336 9.11791-17.55882zm6.46752-16.97364c-3.23736 3.12933-6.71599 4.19704-9.91014 4.80562-3.79553.72382-7.44521.80484-10.23064 3.79733-7.34258 7.88635 3.06631 15.4738 11.02468 8.95586 4.47072-3.66228 8.56334-9.95335 9.1161-17.55881zm-29.24069-17.84151c.77243 6.35949 3.3526 10.53674 5.28277 14.4421 1.48725 3.01769 3.06632 6.01198 2.78363 9.72108-.46634 6.12362-6.3919 9.79852-10.0902 3.30399-1.61148-2.83224-2.90426-6.25686-2.93487-9.72829-.0504-5.66989 1.72851-13.26815 4.95867-17.73888zm6.43872-16.89442c.77243 6.35949 3.3544 10.53673 5.28097 14.4421 1.48904 3.01769 3.06811 6.01198 2.78723 9.72108-.46814 6.12362-6.3937 9.79852-10.092 3.30219-1.61148-2.83045-2.90247-6.25506-2.93488-9.7265-.0504-5.66988 1.72852-13.26814 4.95868-17.73887zm29.2713 17.76408c-3.23917 3.12753-6.716 4.19525-9.91015 4.80383-3.79553.72382-7.44521.80484-10.23064 3.79913-7.34258 7.88454 3.06631 15.472 11.02288 8.95586 4.47253-3.66229 8.56334-9.95516 9.11791-17.55882zm-10.16942-20.1858c.58157 5.10452 1.13253 10.44671.79943 16.34166-.95788 16.94304-19.23331 1.97519-12.30305-7.18053 2.98168-3.93777 7.85393-7.02209 11.50362-9.16113zm5.84453 20.33525 23.11887-60.67083-2.22006-1.3378-23.46097 61.5657c-.0612.57977-.12964 1.15954-.19806 1.73931.36551-.12784.73282-.27188 1.09653-.43213.55456-.24307 1.10913-.52575 1.66369-.86425zm-2.0184-9.98937 20.40006-53.537113-2.22005-1.337797-18.57433 48.74229c.26108 1.99139.38172 4.0422.39432 6.13262zm-1.47644-11.41539 17.1393-44.977371-2.22006-1.337798-16.94484 44.466019c.45374-.20707.91107-.41413 1.37381-.61759zm-5.84633.0558 18.24842-47.887029-2.22186-1.339598-19.62943 51.516907c1.16134-.85345 2.3623-1.60427 3.60287-2.29028zm-8.35629 6.63858 21.8657-57.381258-2.22006-1.337798-23.11167 60.649226c.19446.56897.40332 1.11633.61939 1.64929.87326-1.24597 1.82394-2.44513 2.84664-3.57946zm-4.65798-3.05731 21.78827-57.179597-2.22186-1.337797-20.22901 53.090574.60318 4.98208c.018.14945.0378.29709.0594.44474zm29.46936 14.38807 20.74396-54.43558-2.22186-1.33959-21.03205 55.1972z"/></g><path d="m203.07752 363.14249v12.85942" fill="none"/></g></svg>