<svg height="400" width="600" xmlns="http://www.w3.org/2000/svg"><path d="m212.002 828.446h-6.378v-4.252h6.378c1.174.001 2.126-.952 2.126-2.126 0-1.173-.952-2.125-2.126-2.125h-6.378l4.252-4.252h2.126c3.469.012 6.378 2.856 6.378 6.377 0 1.634-.615 3.124-1.625 4.253 1.01 1.128 1.625 2.618 1.625 4.251 0 3.522-2.909 6.366-6.378 6.378h-6.378v-4.252h6.378c1.174 0 2.126-.952 2.126-2.126s-.952-2.126-2.126-2.126zm-165.3426-2.126c0-5.869 4.7602-10.63 10.6299-10.63s10.6299 4.761 10.6299 10.63c0 5.87-4.7602 10.63-10.6299 10.63s-10.6299-4.76-10.6299-10.63zm10.6299 14.882c8.2177 0 14.8819-6.664 14.8819-14.882 0-8.217-6.6642-14.882-14.8819-14.882-8.2176 0-14.8819 6.665-14.8819 14.882 0 8.218 6.6643 14.882 14.8819 14.882zm-4.2508-21.26h4.2508c3.5218 0 6.378 2.856 6.378 6.378s-2.9092 6.366-6.378 6.378h-4.2508v-4.252h4.2508c1.1739 0 2.126-.952 2.126-2.126s-.9521-2.126-2.126-2.126h-4.2508zm36.1395-4.251h4.2519v21.259h-4.2519l-8.504-13.347v13.347h-4.2519v-21.259h4.2519l8.504 13.347zm-63.7784 0h12.7559v4.252h-8.504v4.251h8.504v4.252h-8.504v4.252h8.504v4.252h-12.7559zm72.2812 0h4.2522v21.259h-4.2522zm17.0082 21.259c4.696 0 8.504-3.808 8.504-8.504v-4.251c0-4.696-3.808-8.504-8.504-8.504h-8.504v21.259zm0-17.007c2.348 0 4.252 1.904 4.252 4.252v4.251c0 2.348-1.904 4.252-4.252 4.252h-4.252v-12.755zm73.928 6.377c0 5.87-4.76 10.63-10.63 10.63-5.869 0-10.63-4.76-10.63-10.63 0-5.869 4.761-10.63 10.63-10.63 5.87 0 10.63 4.761 10.63 10.63zm-10.63-14.882c-8.217 0-14.881 6.665-14.881 14.882 0 8.218 6.664 14.882 14.881 14.882 8.218 0 14.882-6.664 14.882-14.882 0-8.217-6.664-14.882-14.882-14.882zm-169.59531 4.252h4.25201v17.008h8.5039v4.252h-12.75591zm192.98031.001v21.259h-4.252v-17.007zm-48.896 12.755c-1.174 0-2.126.952-2.126 2.126v2.126h8.504v4.252h-12.756c0-2.126 0-4.252 0-6.378.012-3.469 2.856-6.378 6.378-6.378 1.173.001 2.126-.952 2.126-2.126 0-1.173-.953-2.125-2.126-2.125h-6.378l4.252-4.252h2.126c3.468.012 6.378 2.856 6.378 6.377 0 3.522-2.857 6.378-6.378 6.378z" fill="#800080" fill-opacity=".501961" transform="matrix(1.25 0 0 1.25 158.267699 -832.9)"/><g fill-rule="evenodd"><path d="m-.00000473 400v-400.0000027l600.00000473 0v400.0000027z" fill="#2f2f92"/><g transform="matrix(1.2828284 0 0 1.2828284 -29.725063 -251.33046)"><g fill="#c09f60"><path d="m162.069 245.861 1.272 3.917h4.119l-3.332 2.421 1.273 3.917-3.332-2.421-3.333 2.421 1.273-3.917-3.332-2.421h4.119z"/><path d="m149.868 247.102 2.035 3.58 4.035-.829-2.777 3.042 2.035 3.581-3.751-1.7-2.777 3.042.458-4.093-3.751-1.701 4.035-.829z"/><path d="m138.167 250.773 2.714 3.098 3.785-1.624-2.107 3.538 2.714 3.098-4.017-.911-2.107 3.539-.375-4.102-4.017-.91 3.785-1.624z"/><path d="m127.445 256.724 3.282 2.488 3.38-2.352-1.352 3.89 3.282 2.488-4.117-.083-1.352 3.89-1.193-3.942-4.118-.083 3.38-2.353z"/><path d="m118.14 264.713 3.715 1.776 2.838-2.985-.541 4.083 3.716 1.776-4.05.747-.542 4.083-1.962-3.621-4.05.747 2.838-2.985z"/><path d="m110.633 274.41 3.997.992 2.179-3.495.292 4.108 3.997.992-3.817 1.547.292 4.109-2.651-3.152-3.817 1.547 2.179-3.495z"/><path d="m105.233 285.42 4.115.167 1.431-3.863 1.112 3.966 4.115.167-3.427 2.284 1.113 3.965-3.231-2.554-3.428 2.284 1.431-3.862z"/><path d="m102.159 297.292 4.064-.665.624-4.071 1.888 3.66 4.065-.665-2.897 2.927 1.888 3.66-3.679-1.851-2.898 2.927.624-4.071z"/><path d="m101.538 309.54 3.847-1.47-.209-4.114 2.587 3.206 3.847-1.47-2.249 3.451 2.587 3.205-3.976-1.073-2.249 3.451-.209-4.114z"/><path d="m103.395 321.662 3.473-2.214-1.033-3.988 3.179 2.619 3.473-2.214-1.508 3.833 3.178 2.619-4.111-.25-1.508 3.832-1.032-3.987z"/><path d="m107.654 333.162 2.956-2.868-1.814-3.698 3.641 1.926 2.956-2.868-.706 4.058 3.641 1.925-4.077.583-.706 4.057-1.814-3.698z"/><path d="m114.141 343.569 2.318-3.404-2.521-3.257 3.954 1.153 2.318-3.404.126 4.117 3.954 1.153-3.877 1.391.125 4.117-2.521-3.257z"/><path d="m122.59 352.458 1.585-3.802-3.125-2.682 4.106.333 1.585-3.801.952 4.007 4.105.334-3.517 2.143.951 4.007-3.125-2.682z"/><path d="m132.655 359.463.788-4.042-3.601-1.999 4.088-.5.789-4.042 1.738 3.733 4.088-.499-3.013 2.807 1.738 3.734-3.601-1.999z"/><path d="m143.925 364.299-.042-4.118-3.93-1.233 3.904-1.312-.042-4.119 2.455 3.308 3.904-1.313-2.387 3.357 2.455 3.307-3.93-1.233z"/><path d="m155.937 366.768-.87-4.026-4.097-.416 3.56-2.072-.87-4.025 3.07 2.745 3.56-2.071-1.663 3.768 3.071 2.745-4.098-.416z"/><path d="m168.2 366.768.87-4.026 4.097-.416-3.559-2.072.869-4.025-3.07 2.745-3.56-2.071 1.663 3.768-3.07 2.745 4.097-.416z"/></g><g fill="#fff"><path d="m174.269 247.102-2.035 3.58-4.034-.829 2.776 3.042-2.035 3.581 3.751-1.7 2.777 3.042-.458-4.093 3.751-1.701-4.035-.829z"/><path d="m185.97 250.773-2.714 3.098-3.785-1.624 2.107 3.538-2.714 3.098 4.017-.911 2.107 3.539.375-4.102 4.017-.91-3.785-1.624z"/><path d="m196.693 256.724-3.283 2.488-3.38-2.352 1.352 3.89-3.282 2.488 4.117-.083 1.352 3.89 1.193-3.942 4.118-.083-3.38-2.353z"/><path d="m205.998 264.713-3.716 1.776-2.838-2.985.541 4.083-3.716 1.776 4.051.747.541 4.083 1.962-3.621 4.05.747-2.837-2.985z"/><path d="m213.504 274.41-3.997.992-2.179-3.495-.292 4.108-3.997.992 3.817 1.547-.292 4.109 2.651-3.152 3.817 1.547-2.179-3.495z"/><path d="m218.905 285.42-4.116.167-1.43-3.863-1.113 3.966-4.115.167 3.427 2.284-1.113 3.965 3.231-2.554 3.428 2.284-1.431-3.862z"/><path d="m221.979 297.292-4.065-.665-.624-4.071-1.888 3.66-4.065-.665 2.898 2.927-1.889 3.66 3.68-1.851 2.897 2.927-.624-4.071z"/><path d="m220.743 321.662-3.473-2.214 1.032-3.988-3.179 2.619-3.473-2.214 1.509 3.833-3.179 2.619 4.111-.25 1.508 3.832 1.033-3.987z"/><path d="m216.484 333.162-2.957-2.868 1.814-3.698-3.641 1.926-2.956-2.868.706 4.058-3.641 1.925 4.078.583.705 4.057 1.814-3.698z"/><path d="m209.997 343.569-2.319-3.404 2.521-3.257-3.954 1.153-2.318-3.404-.125 4.117-3.954 1.153 3.876 1.391-.125 4.117 2.521-3.257z"/><path d="m201.548 352.458-1.586-3.802 3.125-2.682-4.105.333-1.586-3.801-.951 4.007-4.106.334 3.517 2.143-.951 4.007 3.125-2.682z"/><path d="m191.482 359.463-.788-4.042 3.601-1.999-4.088-.5-.788-4.042-1.739 3.733-4.088-.499 3.014 2.807-1.739 3.734 3.601-1.999z"/><path d="m180.212 364.299.042-4.118 3.93-1.233-3.904-1.312.042-4.119-2.455 3.308-3.904-1.313 2.387 3.357-2.455 3.307 3.93-1.233z"/><path d="m222.6 309.54-3.848-1.47.209-4.114-2.587 3.206-3.847-1.47 2.249 3.451-2.587 3.205 3.977-1.073 2.249 3.451.208-4.114z"/></g></g><path d="m224.18131 154.8361v-58.266064h-92.0006v58.266064c0 25.40129 20.59966 46.00095 45.99966 46.00095 25.40129 0 46.00094-20.59966 46.00094-46.00095z" fill="#fff"/><g transform="matrix(.30662923986 0 0 .30662923986 101.52360756968 117.97078247996)"><path d="m250.09535 85.225944c2.18645 62.232186 45.00368 114.138466 102.73445 130.010646 23.07718-24.96274 37.18629-58.33862 37.18629-95.00627v-35.004376z" fill="#00923d"/><path d="m344.76594 223.28532c-24.93854 22.94413-58.21614 36.96251-94.76585 36.96251s-69.82579-14.01838-94.76282-36.96251c43.51278-13.75528 78.45214-46.81665 94.76433-89.12734 16.31522 42.30918 51.25004 75.37206 94.76434 89.12734z" fill="#005bb9"/><path d="m249.90483 85.225944c-2.18645 62.232186-45.00368 114.138466-102.73444 130.010646-23.07719-24.96274-37.1863-58.33862-37.1863-95.00627v-35.004376z" fill="#da231d"/><path d="m390.01609 75.225125v-135.015587h-135.01559v135.015587z" fill="#da231d"/><path d="m244.99968-59.790462h-135.01559v135.015587h135.01559z" fill="#00923d"/></g><g transform="matrix(.30662923986 0 0 .30662923986 101.52360756968 117.97078247996)"><path d="m215.75168 17.615282c.11341.08316.23739.157255.37197.228322.21622.113405.46118.214714.72579.302414l.002.0015v-.0015c1.41227.479325 3.33865.618435 4.66624.618435.0227 0 .0469.003.0696.006.39918.02873.7394.170864 1.01006.396162.34324.285781.56854.698575.65775 1.17034.0847.440012.0544.938994-.10282 1.43344-.21169.669845-.65926 1.347252-1.36842 1.873451-1.04182.836173-2.30288 1.885548-3.5836 2.968188-1.12347.949578-2.21669 1.884036-3.17686 2.711136.13307.181448.27369.3508.42338.498983.93295.446059.63961 1.297353.29183 2.307414-.0771.225298-.15877.464205-.21774.674382l-2.37545 11.599068c-.0121.05746-.0318.111893-.0605.158767-.29031.586682-.18598 1.427391-.0786 2.271125.24798 1.964175.49747 3.937423-2.87293 4.489327-.0998.01663-.19657.003-.28427-.03478l-.76662-.287292-.71823.645652c.0136.204129.0423.397674.0711.583658.13155.842222.24646 1.578599-.64112 2.370922-.0968.08619-.21622.130038-.33719.130038v.0015h-.008l-.0514-.0015c-.15423-.006-.31905-.03478-.46874-.06351-.21472.294853-.61693.632044-.85886.743937-.0438.02117-.0877.03629-.13457.04385l-.0242.006c-.29183.062-.60181.117941-.91934.166327-.3009.04536-.63204.08619-.98436.119454-1.72526.166327-3.64105.108869-5.08508-.30695-.26763-.07711-.42338-.359872-.34626-.62902.0197-.06351.0499-.117941.0877-.167839l-.002-.0015c.4642-.600291 1.02971-1.326083 1.61942-2.012562.5761-.668334 1.18244-1.306426 1.75249-1.769119.60331-1.144634 1.92183-1.714684 3.20407-2.269612l.0423-.01512c.73638-.316022 1.45461-.632044 1.94301-1.029718.32661-.656237.54888-1.183948.69555-1.701075.13458-.48235.20564-.967723.23437-1.555918l-.27973-.300901-.003-.0045-.002.0015-.47327-.520151-.003-.003c-.8528-.946554-1.84321-2.088165-2.3815-2.829078l-.0181-.02722c-.20866-.290317-.44908-.600291-.69404-.917825-1.5166-1.958127-3.29177-4.253445-1.65269-6.311369.0166-.02419.0378-.04234.059-.06199l.0121-.01058.002-.0015c1.27014-1.137074 1.81297-1.496946 2.38-1.871939.30695-.204129.62448-.414306 1.08264-.771154-.52923-.514103-1.09625-1.020646-1.67537-1.515092-1.59221-1.357836-3.2948-2.61134-4.65263-3.582087-2.20762-1.548357-3.03472-3.033207-3.81344-4.434893-.7893-1.415295-1.52719-2.739866-3.80436-3.932887-.71067.247979-1.43797.471765-2.17284.684967-.81954.237394-1.60733.449084-2.38907.653213l-.0136.0045-.0151.003-.009.003c-3.65618.861879-7.17022 1.185461-10.80523 1.177901-3.63047-.006-7.36528-.340216-11.4781-.792324h-.009l-.0242-.003h-.002c-.3629-.03478-1.13103.09375-1.93847.22681-.8271.137598-1.692.284269-2.35278.281245-.008 2.564466-.27066 6.21006-.44606 8.620295-.0484.684966-.0907 1.270136-.11642 1.664786.10886 1.0902.23437 2.239371.35836 3.37947.11038 1.016109.22227 2.023146.32963 3.095202.006.06199.002.125501-.0151.18296-.12551.568537-.26764 1.158243-.40826 1.744925-.13306.562489-.26764 1.12649-.39616 1.708636-.0227 1.666298-.0438 3.334108-.0711 4.986798-.0272 1.685955-.0605 3.368886-.10282 5.045768-.003.145159-.0665.275196-.16633.36592-.0665.06199-.14062.140623-.21623.228323l-.0181.02117c-.0711.08619-.14667.1754-.21623.269148-.40977.544345-.79081 1.218727-.99947 1.610352-.0907.170864-.26613.269148-.44757.269148v.0015h-1.05845c-.28276.243443-.57005.436987-.86793.604827-.2132.120965-.42489.225298-.64263.32207.16028.311486.53074.615412.88003.901192.1633.133062.32358.266124.47932.411283.20413.192032.21472.514102.0227.718231-.0166.01663-.0333.03478-.0514.04839-.37953.338703-.8271.647164-1.32457.920849-.49293.273684-1.03728.514102-1.61186.718231l-.0378.01361c-2.93341 1.034254-6.76197 1.179412-9.10416.113405-.25554-.114917-.37046-.415818-.25403-.671358.0257-.05897.0635-.108869.10736-.152719l.009-.01058h.002c1.14464-1.121954 2.27264-2.183425 3.39762-3.24036.74847-.704623 1.49695-1.407735 2.17738-2.059436.0907-.08619.20564-.131549.32207-.13911v-.0015l1.1159-.06956c3.66979-3.394591 3.60779-5.686885 3.50497-9.447396-.0166-.630532-.0348-1.300378-.0378-2.030706-.35382-.417331-.45815-1.049375-.55795-1.664786-.0227-.142134-.0469-.285781-.0801-.462693-.059-.294853-.13457-.54888-.20715-.796859l-.008-.03327c-.12551-.429427-.24798-.84827-.29335-1.42588-.15876-1.94603-.29938-3.929862-.43698-5.912183l-.0121-.166327c-.79081-1.800872-1.35179-3.625937-1.89462-5.392032-.70765-2.307414-1.38505-4.51352-2.50852-6.396044-2.29078.0756-3.41878-.728816-4.65414-1.633032-.1875.116429-.39314.208665-.61088.276708-.32963.104333-.69706.154231-1.08112.163303-1.83565.03629-4.17482-.95109-5.28468-1.654201h-.002c-1.8674-1.140099-5.16825-3.015062-8.17121-4.7191621-1.98081-1.124978-3.83309-2.1743526-5.08508-2.9092173-.62298-.058971-1.13103-.1088688-1.5151-.1481826-.33265-.033265-.61692-.065019-.87095-.096772-.7152.7923232-.85583 2.1924975-.98586 3.494387-.0832.831637-.1618 1.628496-.38256 2.280197-.0454.373481-.0287.768131-.0106 1.161268.006.155743.0151.31451.0196.458156l.0197.02571c.0363.04536.0665.09072.0953.136087l.0212.03629c.16935.291829.25403.654725.25403.985868 0 .170864-.0832.325094-.21472.417331-.44606.368944-.82861.488397-1.13556.583657-.15725.0499-.27217.08619-.29334.152719-.0408.12399-.0514.232859-.0318.329631l.003.01058c.0212.101309.0756.205641.16028.319047.27973.370456.78628.438499 1.28828.50503.49445.06502.98889.13155 1.43798.421867.0771-.02722.16179-.0499.26763-.0499.14063 0 .26764.05595.35988.149694.34928.311486.67891.648677.98133 1.007037.30997.36592.59122.754521.83768 1.153707l.0212.0378c1.27467 2.089677 1.68444 4.623901.54888 6.967606-.11945.247979-.41582.353823-.66531.24193l-.0121-.0045-.0227-.0121c-.72276-.341728-1.43646-.872463-2.16225-1.409247-.95109-.703111-1.92486-1.424367-2.85932-1.661762h-.0106c-.11946-.0257-.24042-.07711-.35534-.145158-.0953-.05595-.19203-.128526-.28427-.210178l-.002-.0015-.002.0015c-.39314-.346263-.76209-.932945-.87095-1.247455-.41885-.84827-.99192-1.688979-1.56046-2.525152-.69252-1.017622-1.38354-2.032219-1.84774-3.125443-.69858-1.569526.0423-3.302355.7152-4.876417.25857-.606339.50806-1.186973.63961-1.685955l.003-.01663.003-.006h-.003c.27066-1.0554226.3251-2.212154.37802-3.3567888.0635-1.3684209.12701-2.7247451.53981-3.9510316.0454-.1406223.1512-.246467.27671-.3024135h-.002l.0393-.016633-.002-.00151c.43396-.2011049.92689-.6259958 1.42134-1.0508867.79232-.6834544 1.59372-1.372957 2.45106-1.4425121l.0257-.004536c2.30137-.31904618 4.78419.0529224 7.29422.42791502 1.92939.28729278 3.87845.58063378 5.72922.54888038-.66531-1.11288144-1.02972-2.7640588.4642-6.7226508l.009-.019657.003-.00756.006-.013609.11794-.2555393.006-.00907.18447-.3765048.002-.00151h-.002c.36592-.7394009.96924-1.9052047 1.55138-2.9576035l.12853-.2328583c.58517-1.066008 1.14463-2.083629 2.11387-2.913754l.008-.006h-.002l.002-.0015.006-.0045.003-.003.35836-.302413.003-.0015v-.0015c.76662-.642629 1.51812-1.273161 1.92033-2.177377.44606-1.005525.71521-2.187961.88305-3.396103.16935-1.229311.23588-2.481302.27822-3.604768.0302-.777203.0635-1.563478.13608-2.328584.0756-.78325.19204-1.540796.39163-2.233323.0726-.260075.17389-.550392.27519-.840709-1.29735.399185-2.64309.06956-3.96917-.252515-.64868-.157255-1.29131-.312998-1.89916-.365921l-4.22169 1.253504c-.76511 1.164292-1.42134 1.750974-2.10933 2.039779-.73789.309973-1.42891.261587-2.30288.199592-.14214-.01058-.28578-.0257-.42792-.04234h-.002c-.12399-.01361-.34475-.04385-.5519-.07258h-.002c-.42035-.05897-.84222-.11794-1.2157-.120965h-.002c-.1134 0-.24193.003-.36441.0045-.80442.01361-1.5544-.01361-1.95661-1.041814-.0242-.06048-.0333-.122478-.0333-.184472h-.002c0-.376505.0635-.691015.11945-.972259.0847-.412795.14667-.725792-.29485-1.120441-.11189-.0998-.16784-.237395-.16784-.376506h-.003v-.0091l.002-.03327c-.005-.111893-.0302-.312998-.0529-.532248-.14063-1.301889-.2752-3.476242 2.31497-3.836114 1.80239-1.800872 2.5811-2.643094 3.45659-3.588136.66077-.713695 1.37749-1.486362 2.52364-2.67031-.0922-.322071-.15423-.612387-.16784-.876999-.0227-.412795.059-.765106.28729-1.070543l.0106-.0121.0121-.01512.006-.006.005-.006.008-.006.0166-.01966c.24949-.275196.65624-.40977 1.10381-.554927.39767-.130038.84071-.275197 1.05088-.486886l.0136-.0121c.43397-.406747.8513-.825589 1.25502-1.230823l.22681-.225298c-1.27921.117941-2.882-.276709-3.28421-2.065484 1.03879.873975 2.14865 1.097761 3.52765.502006-.0348-.0121-.068-.02873-.0998-.04687-.40977-.214713-.63961-.697063-.72277-1.108345.27973.117941.56097.122477.84071-.03175-.27066-.09072-.52015-.361385-.72277-.579122-.24344.05443-.48689.130038-.73033.22681.78174-1.185461 1.29433-2.041291 2.4934-2.565978.4264-.185984.89061-.320558 1.35935-.385577.0484-.426403.1255-.852806.2011-1.271649.10433-.571561.20716-1.129514.20716-1.619424 0-.281244.22832-.509566.50956-.509566.0408 0 .0816.006.11946.01512h.003.002c.0559.0121.1255.03175.20111.062l.0242.01058c.0605.02722.12853.06199.2011.110381h.003c.35836.231347.7772.736377.7772 1.808433v.0045.01814c.008.09526.0544.217737.12853.350799l.0197.03478c.0302-.198081.0696-.390113.10887-.57761.14819-.703111.28125-1.333643-.58819-2.127478-.34929-.317534-.0998-.89212.35231-.881535v-.0015l.0696.0015.009.0015v-.0015c1.76307.125501 3.85728 1.598255 5.15766 3.385518 1.379.09828 2.69148.765106 3.93137 1.555917l.003.003c.79534.514103 1.57406 1.096249 2.24542 1.767607.99947.53376 2.005 1.085664 2.98482 1.669322.81803.485374 1.59825 1.026694 2.38302 1.56499.37499.258563.71672.394649 1.29735.225298.31602.715207.26764 1.45612-.43699 1.862866.43699.508055.84978.970748 1.17337 1.524164.23739.406746.3266.854318.67589 1.183949.65624.615411 1.49695 1.0025 2.15923 1.622448 0 .570048.0605 1.103808.24042 1.649665.12399.384064.28427.739401.44455 1.093224v.0015c.34777.77569.69253 1.54382.73789 2.558417.30846.266124.63809.371969.91782.461181.67438.216226 1.17488.378017 1.21117 1.318523.78022.686478 1.08869 2.972724 1.3155 4.648094.13457 1.005525.29485 1.741902.60936 2.696016.4506 1.362373.9768 1.185461 1.5408.648677.60482-.57761 1.16126-1.242919 1.63756-1.926374.37349 1.428904.52469 2.262053-.43547 3.665251.94655.08619 1.47578-.468741 2.05187-1.059959.52318 1.431928.18145 2.275661-1.00401 2.936434.82257.660774 1.7419.92841 2.80035.08921.4763 3.019598-1.90369 2.649142-3.78924 1.693515-.16179.31451-.37046.727304-.44757 1.03879-.48991.350799-.64263.656237-.11492 1.490898.38104.600291.9647 1.274673 1.24897 1.903693.60331.379529 1.2535.715208 1.95964 1.000988v-.0015c2.39662.942018 5.34667 1.30189 8.45245 1.307938 3.13754.0076 6.43385-.344751 9.48974-.818028l1.33364-.208665c5.18034-.813492 10.10212-1.589183 15.4503-.718232 1.24595.202617 2.48131.625996 3.67433 1.152195.98586.432451 1.94905.9420183 2.86385 1.451585.0529-.1315499.10887-.2706601.16935-.4097703v-.00151c.39465-.9329457.94505-2.1002617 1.30341-2.7534747v-.0015l.002-.0015.005-.0091h-.002c.37348-.678918.79837-1.356324 1.27165-2.012561.47328-.657749.99192-1.291306 1.54987-1.882523 2.91375-3.087642 6.98575-5.168246 11.78051-4.137016 1.1144.238907 2.07305.54132 2.91527 1.043327.85734.509566 1.57709 1.218726 2.1925 2.259028l.005.006.005.0076.0106.01814c.7137 1.215703 1.34121 2.729282 1.96569 4.233789.92085 2.219714 1.83414 4.4182595 2.92283 5.4207601.20564.1890084.21925.5110787.0287.7182319-.11492.1239895-.27671.179936-.43245.1617912-.9012-.025705-1.48032-.2283222-1.89462-.4838615.1134.9798195.13457 2.1592319.15725 3.3930788.0423 2.2575163.0877 4.69648068.70765 6.1450411.10887.2570514-.0106.5564407-.26915.6668216-.12399.05141-.25554.05141-.37348.00907-.62902-.2056411-1.00704-.3991857-1.32608-.7106716l-.0832-.084676c-.2011 1.551381-.40372 3.3567892-.49293 5.1485889-.11643 2.3164869-.0469 4.6133175.44455 6.2841515.0121.04536.0212.09224.0212.137598.19052 1.973248.71823 3.882989 1.80692 5.528118 1.0902 1.645129 2.75347 3.034719 5.21814 3.96464.26159.0998.39465.393137.29636.654725-.062.161791-.19505.275196-.35079.31451l-.0499.01815-.0438.01361c-1.74039.535272-4.02966-.396161-5.97267-1.735853-1.92486-1.324571-3.55033-3.080081-3.94649-4.186914l-.003-.01058h-.002l-.0151-.04234c.0317.576097.1754 1.758534.31602 2.913753l.0166.127014c.0333.27822-.16481.532248-.44454.565513-.1875.02419-.36441-.05746-.46874-.201105-.78628-.866414-1.41984-1.820529-1.93847-2.833614-.52167-1.023669-.93144-2.116894-1.27014-3.250944l-.003-.01663c-.34172-1.147659-.6275-2.307415-.82558-3.480779-.1996-1.179412-.313-2.3799936-.30393-3.5987198v-.00454l.006-.4551322v-.00454c.0136-.7046233.0469-1.3850536.0801-2.0639718.0786-1.6284963.15877-3.2524565-.0227-4.7962771-.1996-.33114273-.3629-.58970622-.40221-.59726656-.002.009072-.0605.29031691-.21018 1.05239876-.0529.2751962-.32056.4551322-.59575.4022099-.20565-.040826-.35836-.1995929-.39919-.3916254h-.002l-.008-.033265c-.37651-1.70863593-.1255-3.4323925.0726-4.793253v-.00151c.0393-.2676359.0771-.5246873.10735-.7772025.068-.560977.0287-1.0040126-.12701-1.3911018-.15877-.3976737-.44908-.7681302-.87549-1.1748763-.13911-.1345739-.28578-.2600755-.43547-.3749926-1.18093-.9117765-2.8064-1.4349518-4.43641-1.4198311-1.61489.015121-3.23129.5655131-4.41221 1.800872l-.0771.084676c.25403.225298.49596.4672287.72882.7242802.3387.3765047.6517.7741784.93446 1.1884848 1.4531 2.1289906 2.27717 4.82349435 2.42233 7.2322174l.003.049898.002.019657c.0393.7046233.0333 1.4243673-.0151 2.1501595-.0484.7257923-.14365 1.4651932-.28125 2.2061061-.68799 3.7045645-2.4692 7.3803995-5.15766 9.8934555v.671358zm-17.01529.373481-.0242-.128526"/><path d="m221.51417 19.782074c-1.40169 0-3.44903-.152718-4.98831-.67287-.313-.105844-.60634-.228322-.87095-.36592-.27822-.145158-.52469-.308462-.73033-.48991-.11643-.09375-.19052-.237394-.19052-.397673 0-.378017 0-.754522 0-1.134051h.003c.002-.137598.0559-.275196.16633-.374992 2.61134-2.361849 4.34266-5.900087 5.00797-9.4791496.12852-.6940389.21773-1.3956381.26461-2.091189.0469-.6910147.0529-1.372957.0151-2.0367545 0-.00151 0-.00302-.002-.00454 0-.016633-.002-.033266-.003-.049898-.13457-2.24088361-.89816-4.7448669-2.24693-6.7196267-.2631-.3870892-.54737-.7499853-.84676-1.081128-.29939-.3296307-.62297-.6380924-.97074-.9163127.002 0 .002 0 .002-.00151-.006-.00454-.0121-.00907-.0181-.013609-.005-.00302-.0106-.00756-.0151-.012097-.22227-.1708636-.2631-.4899098-.0922-.7106716.14818-.1920326.30241-.3719685.45815-.5352718 1.38657-1.4515845 3.26909-2.0972372 5.13952-2.115382 1.85531-.018145 3.7091.58517 5.06543 1.6315205.18447.1421343.35836.2903169.51712.4415236.52923.5065425.89817.9873799 1.11742 1.5332362.22227.5564407.28276 1.1567314.19354 1.891596-.0287.2358825-.0695.5110787-.11189.8029077-.11643.8059318-.25251 1.7479497-.25251 2.71869683.13155-.0831637.27066-.12096538.41884-.11642918h.0227.002c.5005.0272172.89363.5488804 1.27165 1.18243655.0363.0604827.059.12550158.068.19959287.21018 1.66932223.12702 3.37039783.0454 5.07449753-.0333.6879906-.0665 1.3790053-.0817 2.0352424-.002.1406223-.003.2812445-.005.4218668-.002.00756-.002.016633-.002.024193v.00454c-.008 1.1521952.1013 2.2938061.29182 3.4248321.19052 1.123466.46421 2.236347.79233 3.341668.003.0121.006.02268.0106.03327.31905 1.076592.70916 2.110846 1.2021 3.080081.22227.433963.46722.857342.73335 1.261064-.0937-1.06752-.10131-1.986857.16784-2.402675.0363-.062.0847-.117941.14667-.160279.40372-.281245.88153-.105845 1.45763.722768h-.002c.0287.03931.0499.08165.065.130038.006.01663.0121.03478.0181.05292.33719.931433 1.8039 2.476766 3.56697 3.690956 1.00552.692527 2.09724 1.268624 3.10881 1.542309-1.58767-.920849-2.76708-2.076069-3.62896-3.376446-1.18697-1.793312-1.76307-3.858796-1.96871-5.98325-.51562-1.7918-.59122-4.1808658-.47177-6.5759803.11945-2.3905782.42943-4.7872047.68497-6.59261298h.002c.0227-.15120672.11038-.29334104.25403-.3734806.24495-.13608605.55493-.0483862.6895.19656874.25856.46420463.43245.77266634.61995.97679544-.34173-1.53928444-.37802-3.4853149-.41128-5.3164283-.0363-1.890084-.0696-3.6561785-.42943-4.5770274s-.002-.00151-.002-.00302c-.0514-.1300377-.0499-.2827565.0181-.4173305.1255-.2510032.43094-.3507996.68194-.225298.23437.1179412.39314.2842686.57308.471765.16481.1723756.35836.3734805.66984.5322476-.81349-1.2338468-1.51509-2.9213137-2.21971-4.6178527-.6139-1.480314-1.23234-2.971212-1.91277-4.124919-.003-.0045-.006-.0091-.008-.0121s-.003-.0045-.005-.0076c-.52167-.881535-1.12347-1.47729-1.83565-1.900669-.7258-.432451-1.58767-.700087-2.6053-.917824-4.38499-.94353-8.13492.984355-10.82791 3.839138-.53376.564001-1.02367 1.16278-1.4667 1.778191-.44304.615412-.84525 1.256528-1.2021 1.906717-.003.003-.005.0076-.008.01058-.34021.62146-.87246 1.752486-1.25955 2.6657744 0 0 0 0-.002 0-.0756.1784239-.14516.3462633-.20413.495958-.0529.1315498-.10282.2646118-.14667.3916254-.002.00151-.002.00302-.003.00454 0 .00302-.002.00605-.003.00756-.0106.031753-.0242.063507-.0408.092236-.1376.2434429-.44909.3296307-.69253.1920326-1.03426-.58517-2.14109-1.1884849-3.28572-1.6920034-1.12498-.495958-2.28171-.893631-3.42786-1.079616-5.19093-.845245-10.03408-.08316-15.13277.718232-.44455.06955-.88909.13911-1.33364.208665-3.10125.4793257-6.45048.8376856-9.64397.8301253-3.22675-.00605-6.30229-.3840651-8.82291-1.3744693 0 0 0 0 0-.0015 0 0-.002 0-.003-.0015-1.32911-.535272-2.47526-1.22931-3.47322-2.045827-3.11637-1.023669-5.61279-7.25641-8.19389-13.696304-1.44252-3.601745-2.91376-7.271532-4.48479-10.053735h-.002l-.0393-.06956c-.82105-1.444025-1.6164-2.213667-2.74894-3.308403l-.19808-.192033-.002-.0015c-.8513-.825589-1.51207-1.634545-2.13202-2.398139-1.26862-1.557429-2.37697-2.915265-4.70404-3.725733-.0937.568537-.27066 1.100785-.48235 1.649665l-.29183-.120965c-1.20511-2.432916-1.17941-2.996917-1.17941-4.575516 0-1.159755-1.16883-2.060947-2.00954-2.650653 1.13254.976795 1.71318 2.330095 1.66933 4.097702-.0212.798371.0272 1.803896.55493 2.156208.23437.155742.86641.781738.86641.984355l-.34626.108869c-.0862-.241931-.35988-.50503-.58669-.600291-1.0282-.430939-1.66025-1.506018-1.39715-2.620412.47479-2.021634-.76057-3.594184-1.68746-4.481767.12701.59273-.0333 1.176388-.14819 1.75551.30998.527711.37802.969235.41734 1.409246.0423.458157.0454 1.026694.28729 1.431928l.002.0015c.24042.385577.59575.762082.86793 1.131026-.45816.234371-.99646.356848-1.42135.615412-.63809.388601-.75905.86339-1.68142 1.203605.1754-.388601.29637-.872462.38861-1.218726-.2374.176912-.50503.343239-.77418.512591l-.008.0045-.0575.0378-.0696.04234-.003.003-.008.003c-.48386.30695-.94807.630532-1.20058 1.047863-.21472.356847-.78023 1.279208-.4506 2.912241-.6396-.293341-.95411-1.08264-1.04484-1.856819l-.36894.359872c-.29183.548881-.53074 1.256528-.70311 1.788776-.1119-.223786-.18145-.53376-.21774-.866415-.26461.2631-.54434.53376-.85129.822565-.12248.122477-.26159.225298-.41129.312998.006.06048.009.133062.009.217738.9526.120965 1.7298-.364409 2.42384-.931434-.9526 1.782727-8.35115 7.289676-7.91718 9.314334l2.37848-2.104797c-1.12498 2.389066-2.59622 3.441465-3.93591 2.915265-.21774-.648677.34626-1.377493.8649-1.944518 2.37999-2.429892 3.07101-3.400639 5.23478-5.385984.4642-.40221.16179-1.105321.0423-1.704099l-.14364.04536c-.30998.101308-.59122.193544-.65775.260075 0 0-.002.0015-.002.0015-.0741.09829-.0998.234371-.0907.406746.0136.241931.0907.544345.20716.905729.0605.176911.0212.378016-.11643.520151-1.32609 1.363884-2.05037 2.147135-2.71568 2.865367-.91933.993428-1.73434 1.873451-3.58662 3.721197-.0816.09224-.19808.152719-.32812.164816-.48386.0499-.82861.202617-1.07357.41733.0439.713696.0801 1.814481-.53376 2.15016l.0166.1754c.0393.374992.0559.426403.27519.712183.44606.582146.34778 1.064496.22681 1.664786-.15725.784763-.0196.999477.86037.985868.12399-.003.24647-.0045.38104-.0045h.006.002c.76208.0045 1.50753.184472 2.26357.235882.74242.05292 1.3291.09375 1.83716-.119453.44606-.187496.89816-.582146 1.43949-1.347252.4642-.654725.55341-.666821 1.43948-.928409 1.21873-.362896 2.43746-.72428 3.65467-1.087176v.0015c.0575-.01663.11643-.02419.17842-.02117.70916.05292 1.42891.228322 2.15167.403722 1.49242.362896 3.01355.73184 4.27008-.149695 0 .0015 0 .0015.002.003.11492-.08165.26159-.116429.40978-.08014.27217.06502.44001.338703.37348.612387-.0968.40221-.22833.781739-.35988 1.159755-.0862.251004-.1754.505031-.26158.810468-.18296.639605-.29032 1.335156-.35988 2.051876-.0695.736376-.10282 1.506019-.13155 2.2681-.0438 1.156732-.11189 2.443501-.28729 3.709101-.17842 1.289794-.47025 2.562954-.96167 3.671299-.49596 1.114394-1.3276 1.817505-2.17889 2.529689-.003.003-.006.006-.009.0091-.003.0015-.005.003-.008.0045-.1119.09526-.22379.190521-.3372.284269-.0106.01059-.0227.02117-.0348.03175-.002.0015-.005.003-.006.0045 0 0 0 0 0-.0015-.82105.707647-1.33667 1.6436165-1.87497 2.6234361-.0423.078627-.0862.1557429-.12852.2328583-.5761 1.0433264-1.17185 2.1940095-1.53021 2.9182897 0 0 0 0-.002-.00151-.0544.113405-.11039.22681-.16633.338703-.003.00907-.008.018145-.0121.027217-.0363.08014-.0741.1602791-.11038.2404187-1.18848 3.1511481-1.09474 4.6148291-.67438 5.55231077.34929.78325083.70009 1.38505353 1.03425 2.18644913.15272.3644082.32207.7378888.50503 1.1083453.95109 1.9233495 2.34371 3.9525437 4.19145 5.5689435 1.49695 1.2277985 2.19401 2.6854315 3.06496 4.1869145.45665.786275 1.13859.910264 1.84019 1.416807 1.00401.730328 2.005 1.36086 3.86484 1.282233.25252-.0121.47026-.05141.62297.22681 1.28829 2.050363 2.01559 4.413724 2.77465 6.89049.53829 1.75551 1.15219 3.569991 1.97325 5.571968.16935 2.156208.24949 4.099214.4143 6.117824.0151.161791.0348.312998.0575.456644l.2752-.214714.81046.105845c.88759-.515615 1.80693-.979819 1.70713-1.862867.25856-.02873.35382 0 .62599.160279-.87548-1.444024-1.06147-3.340156-1.14463-4.826518l-.65019-.870951c.0348-1.379005.3629-2.730793.30393-4.109798.44001.281244.77417.748473.72428 1.696539-.37348.418843-.4385 1.362373-.0302 1.788775.0968-.01814.35232-.08467.42943-.145158.51108-1.259552.41733-2.963652.16935-4.265542-.24193-1.261064-.51561-2.460133.21321-3.317475l.47327.09828c-.006 1.350276.25705 2.659727.37046 3.997906.313 3.668275-.60634 3.358301-.74091 5.225704-.0696.970747.1512 1.939983.38557 2.956092l.11492.506542c-.0136.500494-.15726.948066-.35231 1.404711.313.158767.47479-.0378.68345-.22681.54132 1.32457.74848 2.316486.1996 3.677347-.51713.07711-.67136-.334167-.90422-.757546-.17994-.326606-.3886-.706135-.62448-.87095-.48991.251003-1.51812.568537-1.63152 1.123466.28729.350799.71823 1.115905.60331 1.604303-.0469.195056-.16935.303925-.38558.285781-.27973-.02268-.53981-.296366-.73486-.477814 0-.378017-.19657-.653213-.41582-.937481.0575.27822.10131.579121.13155.90724.0499.521663.23739.784763.48084 1.079616l.002.296365c.14365-.302413.29939-.514103.45816-.53376l.28426-.03175v.284269c0 .898168.10887 1.785751.21472 2.67031.22076 1.825065.41279 3.576039-.20564 5.389008.25856-.178424.58819-.308462.95865-.331143.6396-.984356.63053-4.560395.60936-5.144053-.0242-.663797-.0756-1.326082-.14365-1.956615-.11189-1.007036-.30241-1.992904-.51108-2.983308.10585.104333.69404.765106.78779.675894v-.0015l.002-.0015c.20111-.204129.32207-.325095.47177.06653h.002c.0318.08316.0302.23437.0257.601803-.002.189008-.003.459668-.003.990404.0816.328118.15726.642628.22681.949578l.005-.485374c.002-.01815.005-.03478.006-.05292.13306-.624484.2767-1.223263.41884-1.820529.13155-.550393.26461-1.102297.39011-1.672346-.0953-.951091-.20866-1.980808-.32056-3.009014-.12096-1.11137-.24344-2.227275-.35987-3.402151 0-.01059-.002-.02117-.003-.03024 0-.01512-.002-.03024-.003-.04385 0-.0121.002-.02419.002-.03629.0287-.468741.0711-1.043327.11945-1.710148.18145-2.51608.45967-6.3779.44455-8.881883-.002-.305438-.006-.610875-.008-.916313.2888.0877.59575.216226.89968.235883 1.77365-1.124978 4.34719-2.765571 3.73934-4.958069l-1.49846-.179936c2.83664-.846757 3.25699-1.664786 4.55737-4.0795572-.39918 2.0609482-.76813 4.0916542-1.68293 6.0134912l-.002.003c-.0544.122477-.17238.281244-.33417.456644-.14969.164815-.34324.353824-.56249.551904h-.002c-.79535.721256-1.9672 1.604304-2.76557 2.06246.27973-.04234.57156-.09224.85885-.140622.88607-.146671 1.72527-.287293 2.22123-.234371h.009c.008.0015.0166.003.0242.003v.0015c4.08863.449083 7.7947.781738 11.36318.787787 3.55941.006 7.00692-.312998 10.59808-1.161268.80442-.211689 1.60128-.423379 2.35278-.641117.77115-.223786 1.54533-.467228 2.32102-.742425h.003c1.9037-.660773 4.0599-1.616399 6.14504-2.640069.34476-.169351.74394-.368944 1.20663-.604827.43246-.220762.82559-.424891 1.17639-.609363.003 0 .008-.0015.0106-.003.003-.0015.006-.003.009-.0045l.19657-.09677c1.43344-3.087642 1.25199-5.7216631 1.07508-8.307298l-.18599-5.0790337.71219 1.02366948 1.25199 5.85018802c.53225.6290199.38406 1.5937188.21169 2.3512645 1.38354-2.3709214 3.03169-4.8476875 2.98784-7.53009468-.062-3.74841462-1.93544-5.51753322-4.75091-7.28362772 2.52515.4853736 4.71009 1.3548122 6.09816 4.2095951l.002.00151.005.010584c.39919.8271008.63205 1.73131698.71672 2.64460557.24345 2.60075563-.60936 4.87490463-1.94452 7.03111243.0529-.6804302.0438-1.2928174-.2132-1.8598426l-.30997.1436464c.27368.8497817.0121 2.0685079-.58819 2.6521658-2.28776 2.2227384-4.70707 5.3391094-6.22065 8.9862154-.0227.254027-.0151.49747.0348.728816h-.002c.002.0045.002.0076.002.01058.002.006.003.0121.005.01814.2752 1.502995 4.60425 3.77412 8.48119 4.970165.76359.235883 1.51207.429427 2.20762.560977.68496.13155 1.31398.205641 1.84774.208666 0-.0015 0-.0015 0-.003h.0287.18599c.0484.04083.0968.08316.14516.12399.35533.302413.53527.642629.53527 1.03879 0 .355336-.15575.719744-.46572 1.117418-.006.0076-.0106.01361-.0166.02117-1.38506 1.592206-3.08613 3.202558-4.4349 4.392555 0-.0015 0-.0015 0-.0015-.251.220762-.50351.438499-.74242.642628v.0015c-.20715.1754-.42035.353824-.63204.5262-.005.003-.009.0076-.0136.0121-.51411.403722-.86339.635069-1.2021.860367-.53678.353823-1.05391.698575-2.23937 1.757022-1.10229 1.433439.39768 3.373422 1.68142 5.032159.25403.329631.50352.650189.72731.961675.002.0015.005.003.006.006.51562.710672 1.48032 1.822041 2.31347 2.745914.15725.173888.31451.346264.47176.520152.13609.148182.27217.294853.40826.443035 0-.0015 0-.0015 0-.0015.7273.742425 1.02064 1.007037 1.61035 1.531724.33417-.976795.66682-1.953591.99797-2.928874.0136-.07258.0272-.143646.0393-.216226.15272-.846757.313-1.729804.20866-2.683919-.10886-.432451-.71672-.728816-1.30793-1.014597-.73638-.356848-1.45461-.706135-1.68898-1.39715-.33871-.0091-.63507-.03931-.89212-.140622-.47782-.187497-.74545-.538296-.74545-1.217214 0-.170864 0-.340215 0-.509567h.50957c.0408 0 .13154-.04083.22529-.08468-.0696-.143646-.12701-.300901-.12852-.491422 0-.0015 0-.003-.002-.0045 0-.0015 0-.0015 0-.003 0-.0756 0-.151207 0-.225298.0559-.05141.1134-.102821.16935-.152719.41733-.376504.83617-.753009 1.25501-1.129514 1.58465-1.427391 2.882-2.596219 4.58913-4.099214.002 0 .003-.0015.005-.0015 1.13557-.981332 2.43746-2.095725 3.66979-3.13754 1.26711-1.072055 2.53574-2.125966 3.61082-2.989356.46723-.411283.94504-.802908 1.10532-1.74039.0983-.790811-.19506-1.267112-.74545-1.324571zm-70.77079 32.385456c-.69556.663797-1.3533 1.282233-2.00803 1.896132-.94807.89212-1.89613 1.787263-2.82001 2.679383 2.14412.656237 5.37238.529223 8.39349-.722768.76662-.316022 1.07962-.530736 1.28223-.681942-1.00099-.536784-1.77365-1.17034-2.47072-1.743414-.83012-.683454-1.54684-1.274673-2.37696-1.427391zm-30.24891-28.505491c.8392.40221 1.60582.970747 2.35883 1.5287.52771.390113 1.05088.778714 1.55289 1.072055.69706-1.862866.30695-3.846699-.72277-5.531141-.23286-.374993-.48386-.721257-.75603-1.044839-.21169-.249491-.43699-.48991-.6759-.715208l-.0559.436988c-.14365 1.224774-.33568 2.868391-1.70108 4.253445zm2.79581-22.3755707c-.7651-.021169-1.5166.00454-2.23937.1028206-.57005.040826-1.24897.6244837-1.92032 1.2036055-.42187.3644082-.84223.7303284-1.26863.9964523h.1255l-.0378 1.1340504c.4884-.00454.97529-.040826 1.46519-.040826-.003.6895026.0786.6653095.61693 1.1658038-.8392.2903169-2.4435.7288164-2.70358 1.7056118l-.17237.6456527c-.0544.8694386-.14365 1.732829-.35383 2.5569056-.002.003-.002.006-.003.0091-.15423.591218-.41884 1.206629-.69253 1.846234-.14062.331142-.28427.671357-.41582 1.011573.45514-.01814.8891.131549 1.29282.509566-.43245.390114-1.04181.864903-1.0902 1.489386v.0015c-.0484.606338.37953 1.279208.65624 1.784239-.0408.137598-.27217.408258-.48084.586682.32963.551904.7016 1.099273 1.07508 1.648153.58819.864903 1.1779 1.732829 1.66025 2.718697.0696.22681.32207.615411.60483.86339l.0393.02117c1.4153-1.200581 1.60128-2.792788 1.73737-3.954055.0257-.225298.0514-.435476.0832-.633557-.23437-.08165-.48991-.117941-.74394-.151206-.71369-.09375-1.43193-.190521-1.96871-.902704-.16935-.225298-.28578-.455133-.34475-.721257-.0575-.284268-.0378-.562489.062-.864902.1497-.455132.44304-.616923.77418-.737889 1.46217-.538296.4128-.353823.39012-1.215702-.009-.60029-.0333-1.180924.0227-1.847746.25705-.739401.36592-1.480314.38406-2.2182027.16633-1.5801102.3387-3.2902582 1.48939-4.3078794.0983-.027217.19657-.055947.29485-.083164.49445-.024193.75452.039314 1.19605.084676.47932.049898.99645.099797 1.61791.157255.0348.012097.0695.022681.10433.034778 1.29887.7348646 3.21768 1.8250651 5.2756 2.992381 3.02565 1.7177081 6.35371 3.6077921 8.19994 4.7357941.002.0015.003.003.005.003 1.01006.639605 3.11183 1.536261 4.72975 1.502995.29787.02117.55492-.01966.7772-.102821-.57156-.483861-.92841-1.124977-1.33667-1.862866-.50352-.908753-1.10078-1.985345-2.34673-3.055888l-.005-.003c-1.69805-1.4863621-3.02716-3.2963065-4.00093-5.0729855-.72428-.1890084-1.95813-.9631868-2.21669-1.1642917-.0983 0-.21169.00302-.31149.016633.4506.4778132.50654.9737713.39767 1.6073274.20262.1285257.5126.2162256.83315.3054376.51864.1466705 1.05845.2993893 1.38052.6804303l.006.00605.0378.048386.21169.2691479c-.95411.5186391-3.22978-.05141-3.6592-1.486362-.0575-.1844722.13306-.4929339-.0877-.6184355-.0514-.042338-.11643-.074091-.18599-.096772.0847.9268972.0771 1.4833379-.22832 1.8190168-.6396.7076475-2.55539.1890084-3.45507.074091.97226-.3447513 1.91125-.3069496 2.33917-.85583.18144-.2328584.12701-.5866821.11491-1.035766-.40977-.1239896-.68799-.1360861-.96772-.5594649.6638-.7076475 1.43646-.6002907 2.24693-.9329455l-.15574-.1330619c-1.3155.033266-2.80489-.2510031-4.08258-.1391102.0529.1466706.0922 1.0781039.059 1.1612676-.94051-.5246873-4.55586-1.3895897-6.61681-1.103809-.31904-.2888048-.46118-.7847629.20715-.7923232h.008l.0196.00151 2.97726.3160221c-.69555-.1436464-1.45007-.382553-2.10026-.6728699l.67438-.449084zm90.96294 28.7065957c-1.60128 1.412271-2.82152 2.511544-4.29276 3.837627l-.0665.05897c.27973.789299.4128 1.744926.39314 2.95458l-.006.276708c.21169.137598.47328.266124.7394.394649.82105.397674 1.6663.807444 1.86438 1.738878.006.02571.0106.05292.0121.07863.0393.36592.0484.715208.0333 1.055423l1.59977-7.811339h.002l.006-.03478c.0771-.275196.16028-.514102.23891-.743937.18901-.54888.34626-1.008548.18749-1.079616-.0559-.02268-.10887-.05746-.15574-.0998-.19808-.185984-.38255-.397674-.55493-.625996zm-1.99744 13.68572-.90119 2.64763c-.0892.266124-.37802.408258-.64414.319046-.0756-.02571-.14062-.06653-.19355-.120965l-.50351-.449084h-.002c-.36894-.328119-.62146-.553417-.92538-.846758-.0454.30695-.10736.600291-.18901.890608-.17086.606339-.42792 1.206629-.80442 1.955103l-.005.0091-.003.006c-.0287.05897-.0696.111893-.12248.157255-.60331.529224-1.43344.893632-2.28171 1.259552l-.0408.01966c-1.13557.48991-2.30439.996452-2.72777 1.846234-.0318.08165-.0877.155743-.16028.213202-.54132.424891-1.13254 1.04635-1.69805 1.702587-.38709.450596-.75906.916313-1.10079 1.350276 1.19907.217738 2.631.22681 3.95859.09828.30091-.02873.6139-.06804.92993-.114917.29485-.04536.58063-.09677.84675-.154231.12702-.07712.31149-.247979.42036-.40221l.0227-.03327c.0348-.247979.24647-.438499.50201-.438499.11794 0 .27368.03478.45513.06956.0575.01058.11794.02419.17389.03327.31451-.38709.24646-.824077.17086-1.312475-.0469-.300901-.0968-.619947-.0968-.955626h.002c.002-.13911.0559-.278221.16784-.378017l1.12346-1.011573.003.003c.13608-.122477.33265-.169351.5141-.101308l.95412.35836c2.26658-.426403 2.08211-1.88706 1.89764-3.338645-.12399-.985868-.24647-1.968711.1633-2.818493l.0937-.462693zm-5.2877-13.670599c.18599-.160279.3886-.338703.61088-.53376v-.0015c1.32154-1.165804 2.98633-2.74289 4.33963-4.295783l.0121-.0121c.0877-.11643.14969-.217738.18447-.303926-.0393-.128526-.0726-.231346-.0983-.305438-.11642-.0045-.23437-.0121-.35684-.02117l-.009-.0015-.21622-.01966h-.005l-.008-.0015-.0196-.0015-.0287-.0045-.0287-.003-.0287-.003-.0287-.003-.0212-.003c-.33114-.03629-.6759-.09072-1.03274-.158767-.72731-.139111-1.51207-.340215-2.31498-.588194-.69101-.213202-1.39412-.464205-2.09119-.740913-1.81448-.712184-3.56545-1.589183-4.85373-2.470718-.59122-.406746-1.09323-.816517-1.4652-1.21419-.41279-.440012-.68345-.881535-.76813-1.307938h.002l-.003-.0091-.0272-.143646-.008-.04839-.002-.01512c-.0408-.276708-.0439-.559465-.0181-.843733l.006-.05292.002-.01361.006-.05292.002-.0121.008-.05292.002-.01361.006-.05444.002-.01058.009-.05443.003-.0121.009-.05443.002-.01058.0106-.05595.002-.01058.0106-.05595.002-.01059.0136-.05595.002-.0091.0121-.05595.003-.01058.0136-.05595.002-.0091.0136-.05746.002-.0091.0166-.05746.002-.0091.0151-.05746.003-.0076.0151-.05746.003-.0091.0166-.05746.002-.0076.0181-.05746.003-.0076.0166-.05897.003-.006.0197-.05897.002-.006.0197-.05897.002-.0076.0212-.05746.002-.006.0197-.05897.003-.006.0212-.05746.003-.006.0197-.06048.003-.006.0227-.05746.002-.0045.0227-.06048.002-.0045.0242-.05897.002-.0045.0242-.05897.0514-.127014.002-.003c.13155-.31451.2752-.616924.41885-.904216h.002l.0272-.05746v-.0015l.0287-.05595h.002l.0257-.05595-.23134.116429-.0922.04687-.0151.0076-.0166.0076-.0151.0091-.005.0015-.0106.006-.0151.0076-.0166.0076-.0151.0076-.0166.0076-.003.0015-.0454.02268-.0302.01663h-.002-.002l-.0227.0121-.0257.0121-.0166.0076c-1.41983.706136-2.88654 1.388078-4.29579 1.977784l-.0136.0045v.0015l-.0181.006-.0181.0076-.0181.0076-.0922.03931-.0181.0076-.0181.0076-.0136.0045-.005.003-.0181.0076-.0181.0076-.0181.0076-.0378.01512-.29183.117941-.009.003-.0181.0076-.0181.0076-.42035.166327-.0166.006-.002.0015-.0197.0076-.0197.0076-.0197.0076-.0348.01361-.003.0015-.0287.01058-.1255.04839-.0136.0045c1.94301 1.208142 2.6688 2.513056 3.43844 3.895085.72428 1.300378 1.49241 2.679383 3.51102 4.09619v.0015h.003c1.37447.984356 3.09974 2.254492 4.72521 3.641058.62297.530736 1.23384 1.078104 1.80238 1.636057zm-48.84733 21.054023c.29637-.509566.62297-.996452 1.02972-1.430415.0181-.692527.0333-1.385054.0484-2.07758-.24949.251003-.58063.390113-.94504.332654l-.45211.202617c.5262.453621.76511 1.153708.76511 1.829602-.33719.255539-.47932.77569-.85432 1.022157.15423.04385.29032.07107.40826.120965zm-5.41622.913289c.28729.202617.57156.429427.8649.671358.25856-.609363.83617-1.07508 1.4289-1.363885h.002c.59122-.28578 1.27619-.449084 1.89916-.449084v.0015l.0741.0015c.51108-.376504.46874-.938993.27973-1.617911h-.002l-.0302-.09375c-.43396-.03629-.70462-.201105-.83617-.42489l-.0363-.07107-.12399.231347c-.78476 1.425879-2.03071 2.883512-3.52009 3.114858zm-5.88648-99.187072c2.70055.890608 3.91323 2.379994 5.31038 4.09619.6018.737889 1.23989 1.52114 2.05036 2.307415 4.07654 3.938935 5.5886 8.677753 7.71306 13.977549 2.36033 5.892526 4.6496 11.603603 7.10218 12.920614-.71672-.681942-1.00099-2.28927.18598-2.738354 0-.300901.17994-.72428.27671-1.010061-.35534-.293341-.74243-.736376-.93899-1.345739.61541.411282 1.48787 1.555917 2.44954 1.093224-.48386-.269148-1.20209-.538296-.83617-1.235359v-.0015c.15877-.297877.50654-.48991.78325-.662285-.9647.246467-1.82506.03931-2.35429-.591219.5882-.172375 1.00855-.639604 1.14766-1.406222-.73789.790811-1.70107 1.327595-2.50852.211689-.81198-1.121953-1.09322-2.75045-1.27467-4.099214-.11038-.822564-.33417-3.819482-1.17185-4.023611.0317-.545856-.0121-.905728-.65775-1.112881-.66229-.211689-1.13708-.495958-1.61791-1.000989.0786-1.023669-.33568-1.837161-.7394-2.756498-.32963-.739401-.64263-1.507531-.68648-2.51608-.5383-.421867-1.14766-.745449-1.67084-1.191509-.59878-.509566-.69101-.985868-1.03879-1.601279-.54283-.958651-1.5045-1.862867-2.21971-2.638557.251.205641 1.48334.232858 1.58162-.356848-.66985-.113405-2.1048-1.019133-3.31445-1.720733-1.04938-.606339-2.10177-1.209653-3.17383-1.775166l-.0559-.05443-.003-.006c-1.16127-1.193021-3.27967-2.614364-4.91119-3.01355.33416.698575.63809 1.462169.57307 2.251468zm-6.1148-.110381c-.6638-.872463-1.59372-1.5287-2.88351-.928409l.4264.04385-.69706.542832c.0423.220762.0559.432451.0121.654725.26613.48991.54737.967723.4128 1.552893.80593-.731841 1.86135-1.229311 2.72928-1.865891zm.12096-1.025182v.934458l.32056-.240419c-.12247-.240418-.23134-.482349-.32056-.694039zm-1.15673-1.468217c-.14667-.257051-.26461-.533759-.28729-.833149-.0665.359872-.13457.721256-.1875 1.084152.15272-.08316.31149-.173887.47479-.251003z" fill="#c09f60"/><path d="m159.88836-10.058572c-.85886.3991859-1.82809.3810411-2.72475.6622856-.75301.2358824-.65472.5503924-1.12346 1.0765918-.4385.4914218-1.10381 1.0312298-1.78878 1.5846464-1.05693.8573421-2.16226 1.7524859-2.41477 2.4314041 1.71922-.1391102 3.24792-1.4243673 4.71311-2.653678 1.80995-1.5211396 2.6809-2.2862456 5.06694-2.6763589-1.81297 1.1007849-2.85176 2.0186097-4.06897 3.3764461-1.51056 1.8054082-3.09218 2.5342246-5.13649 3.105786-2.16075.6048269-2.27264 1.1159056-2.35581 1.4470483-.29182 1.04030224-1.22023 1.53928441-2.11689 2.03070625-.34021-.33265478-.51108-.6547251-.41733-1.15068314.19959-1.06600741 1.48334-2.38453001 2.23332-3.15114801.64414-1.5665017 1.96115-2.9833086 3.37645-4.1642331l1.90672-1.4878741c.87397-.5156153 4.67682-1.9535913 4.85071-.4309393zm-16.44373-18.723928c-1.46973-.44606-3.41728-1.702588-3.41728-3.402151-.0877.727304-.0877 1.822041.30242 2.469206-1.03879 0-2.7686-.08014-3.76354.08165-1.00552.39465-2.24995 1.020646-3.45961 1.943007.52771-.284269 3.96616-1.348764 4.10829-1.375982 2.16377 0 4.75999 1.375982 6.22972.284269zm-13.11416-1.817505c.0151-.07711.0212-.14667.0287-.201105h-.002c.0212-.161791.0892-.385577.29182-.406746.4385-.04687.68648 1.117418.69858 1.403199.0484 1.061471-.55493 2.25298-1.44554 2.745914-.93597.517127-2.10026.238906-2.80186-.458157.8271.193545 1.45915.275196 2.21064-.134574-.43849.189009-.9027.140622-1.49089-.352311-.39768.04385-.84979-.03327-1.07962-.399186-.20413-.328119-.16784-.790811-.0333-1.168828l.008-.01815c.3387-.757546 1.06147-1.241407 1.87798-1.357836.58517-.08165 1.23687.01815 1.73737.347775zm6.07095-6.359754c.40372-.0121 1.17185-.468741 1.55894-.67287.5262.116429 1.20512.235882 1.78575.151206.6018-.0877 1.09171-.376504 1.22175-1.055423l1.11893.06956-.98133-.931434c-.80291-.491422-1.98383-1.356324-2.96819-1.884036-.63507.04839-1.02669.40221-1.22629.886072-.21017.515615-.189 1.025181.0801 1.493922-.30392.142135-.64716.281245-.91026.491422-.33568.269148-.3387.550393-.24344.905728.0711.2631.1633.557953.564.545857zm1.74946-.423379c1.42739.526199 1.78575.355336 3.41727-.364408-.7772.68799-2.24844 1.498458-3.32957 1.498458-.43245-.607851-.69253-.769642-.0877-1.13405zm23.78179 14.671588.53679.509566 1.81901 4.093166c.13004.535272.26461 1.069032.43397 1.593719l-.0711.105845-.003.0045c-.0529.07712-.11946.16784-.19355.264612l-.002.0015c-.065.08468-.14516.18296-.23437.291829l-.002.0015c-.37651.452108-1.83112 2.163768-2.56296 1.858331-.38104-.158768-.30392-.843734-.30392-1.186973-2.09724 0-4.2973.875487-6.14807 1.800872l-.002.0015h-.005l-.22227-.455132c.34475-.184473.69706-.359872 1.04937-.524688 1.98232-.896656 4.1098-1.642105 6.32347-1.664786.46874-.495958.8528-1.159755.26612-1.716196-.0786-.0756-.17691-.14667-.28427-.213201-.56097-.335679-1.23535-.483862-1.85833-.662286l1.46217-4.10375zm-10.338.604827-.15877-.810468c1.99139-.471765 2.3936-2.09875 2.03676-3.867868-.58064-2.869904-2.35278-5.43437-3.91777-7.663157l.76208-1.03879.22076.331143c3.10277 4.499912 4.64205 9.190344 4.7615 14.600521l-.0529.07258-.003.0045c-.77267 1.115906.062 2.308927.88153 3.126955l-.42942.117941-.0197.006-.29334.08165h-.002l-.28881.08014-3.61082 1.072055c1.37447-2.234835.61693-3.851235.11341-6.113287zm-10.83547 9.854142c2.38453-1.259552 2.77313-7.179295 2.85478-9.392962.0832-2.163768.13155-4.049316 1.07205-5.981738l1.18093-.526199-.52318 1.155219.84222.978308.64263-.322071-.27519.639605-.003.006c-.69857 1.642105-1.4788 3.241872-2.03978 4.9369-.38557 1.168827-.72276 2.470717-.92689 3.907181-.36139 2.532713-.25101 4.9369.24949 7.5043897l-.48538-.010585c-.75603.049898-.89363 1.1355625-1.12044 1.9626633-.34928 1.2731605-.62599 2.5735383-.76964 3.8829885l-.50654-.045362c.0983-1.395638.34173-2.7761554.44455-4.1717934.12701-1.7388773.37499-3.1375391-.63658-4.5225921zm-4.6103 14.3117157c-1.53777-2.07909244-1.48636-2.81546916-.89061-5.5205574.15121 1.1310263.38256 2.0790924.90725 2.3331197l.0121.26914797v.003024c-.0953.99645229-.16784 1.97627183-.0287 2.91526563zm-.0907.2419307 1.21872 1.0372781c-.21925-.6350682-.31148-1.2686244-.34626-1.9052047.42792.9813317.88758 1.911253 1.43949 2.7020641.0953 1.3850536.7394 2.7701071 1.40169 4.1536486-1.503-1.8643788-2.73836-3.757487-3.71364-5.9877861zm8.56284.8921197c.17842.8921196.0227 1.1960451 1.03122 1.3079381-.96469 1.8416978-.84222 3.5926717.2495 5.9847618l-.86339.31451c.16481.632044.39313 1.230823.62448 1.840186-.48537-.312998-.87398-.598779-1.43949-.725792-.0484-.48991.14062-.887584.16935-1.374469v-.0015l.006-.108869c-1.83414-1.6844432-.47479-5.3103803.22228-7.2367539zm5.37388 12.1373629 1.15976-.367432.10887 2.853271zm16.28497-17.0848468 1.31398-.3084617.25705.2237859c1.26258-2.7066003 1.73586-5.2060473.33871-7.9701062 3.11485 1.3185226 1.96568 6.4398942-.24798 8.0487337.4264.3689444 1.11439.89211966 1.13254 1.50904308.0196.6728699-.7016 1.22477443-1.28375 1.75097382 0-.88002311.0983-1.84774612-.13155-2.26054047-.22076-.39464953-.70916-.64716473-1.379-.99342813zm-10.94888 31.3829548h1.1159c0 .349287.30242 5.020063.34475 5.020063v.01361.108868l-.76208.571562c-1.19604-1.115906-.69857-4.245885-.69857-5.714102zm61.23418-29.1708005 1.05694.47781323c1.70259 1.47728967 1.08113 4.86432017-.26008 6.07094977l-.24647-.4490839-.25251-3.1360274c-.50957.651701-1.00553 1.6678101-1.37901 2.7701071l-.42186 1.5377724-.003.013609-.0227.1149171c-2.63855 1.8658909-4.96865 3.3492282-8.48269 3.0437912 4.41221-.9314333 9.02099-4.8537357 10.01139-10.4438481z"/><path d="m130.51796-29.741151c-.53073-.547368-1.06298-.815004-1.8553-.703111-.71672.101309-1.47276.609363-1.55441 1.38203.13155-.155743.4128-.139111.65019-.09677.18901.03478.37802.08921.56249.142135h.002c.1119.03024.2253.06502.34022.09224.30997.0756.54585-.01058.83768-.09072.2631-.0756.51562-.125502.80442-.06956l.21623-.258564c.0363.2631.068.526199.0423.789299.22681-.521663.37801-1.135562.19657-1.698051-.0635.176912-.15877.344751-.24194.511078zm9.26293-9.022505c-.55039-.382553-1.33516-.609363-1.97325-.896655.80593-.356848 1.73737-.06048 2.47525.68799 0 .432451-.33265.694039-.62902.845246l-.35836-.201105c.13155-.0756.39465-.284269.48538-.435476zm-.93295-1.450072c-.45211.179936-1.066.364408-1.51963.09224.0635-.45362.38407-.63658.89061-.332655.19808.120966.40826.172376.62902.240419z" fill="#c09f60"/></g><g transform="matrix(.30662923986 0 0 .30662923986 102.13686568353 116.98299181088)"><path d="m353.59475 104.56973c1.08264-1.27014 1.11288-3.19953.24193-4.586099-.87549-1.392614-2.46618-1.8795-3.99639-1.339692l-.85886-.870951.37802-.06048-1.6663-1.666298.27973-.09677-2.59924-1.217214.23891-.247979-2.96063.173888.14969-.323582-2.96213.765106-.39768-.122478.24798-.384065-2.43745-.21925.22076-.515615-2.4813.494446.0439-.452108c-1.12649.554929-2.57959 1.049375-3.43693 1.939983-1.13556 1.180924-1.71469 2.490374-2.19703 3.940447-5.13045 2.514571-4.38802 10.392441-.39012 13.771911l.065.0575-.877 2.98633.564-.13911-.63204 2.72777.59727-.19354-.39163 2.71869.58366-.28578-.0862 1.82809.49293-.13004-.008.0968c-.0242.33265-.0454.63657-.11038.90724-.0408-.15575-.0907-.30242-.16632-.44001-.23286-.42642-.62902-.60635-1.06904-.74546-.13911-.0423-.28124-.0877-.39465-.14969h-.002c-.0937-.0514-.19354-.11039-.29183-.16935h-.003c-.58668-.3508-1.32306-.69706-2.01559-.43094-.38255.14667-.72579.54282-.78325.95713-.63355.29637-1.01459.94807-.88456 1.65118-.49293.38709-.62146 1.02518-.42489 1.60279-.16784.18447-.26915.40372-.30392.63355-.12097.80896.64565 1.49544 1.29433 1.80693.21471.10282.52317.13457.70613.28124.17691.14213.18447.51259.23437.73184.1754.76662.63961 1.36388 1.17488 1.9173.13457.13911.26461.25856.39465.3629l-.20262.27973-.0862.0151.0454.0408-1.95511 2.69904.62297.002-2.47676 3.0196 1.18092-.13609-1.52416 3.24338.80593-.24041-1.20058 2.99691.64565-.14516-1.84321 2.67788.52015-.009-2.57202 2.16528.70613.15272-2.29532 1.62699-.79081.56097.62449.13004c-.59425.42338-1.15069.92992-1.37447 1.71166-.0121.0423-.0287.0832-.0575.12399-.002.002-.20413.26764-.38709.5005-.22379.28729-.55039.46118-.74999.73335-.12852.17389-.20412.37197-.24646.57156-.0953.45816-.0333.92538-.13458 1.4032-.068.31753-.19959.62448-.26007.93748-.1255.65926.10735 1.40169.65624 1.81297.13911.34173.56853 1.17487 1.38354.98889.31602.17086.95109.39465 1.52114-.13155.34475.16784.87397.26612 1.37144-.29334h-.002c.39162-.42036.36743-.93899.34626-1.41681-.0121-.25856-.0227-.49444.0318-.51864.16784-.0741.33265-.21622.50805-.39011.17994-.18145.34929-.37046.53225-.55039.26159-.0877.54132-.14667.78779-.27369l.0726.56854 1.16581-1.24292.003.38408.85734-.71522-.64716 2.92131-.17691.79837.39314-.16632-1.02065 2.78371-.27671.75453.26613-.068-2.37546 3.44148.65019-.0333-2.5811 3.70607.86188-.002-.8014 4.74638.78628-.47025.003-.002 1.10683 4.99436.45816-.68195 1.73434 4.2353.38104-.83012 2.46467 2.99843.251-.66077 2.00047 1.65873c-.10131.006-.29939.0242-.39616.0514h-.003c-.251.0696-.50352.21169-.63809.375-.0121.0166-.0983.0408-.23588.0726-.73638.17086-1.60884.1013-2.20913.68345-.0877.0847-.11189.11643-.23286.11038-.20715-.0121-.43245.065-.64112.19506-.49444.30846-.97679.99645-.75149 1.60279.13003.3508.47781.54888.80593.68194-.0544.89212 1.00703 1.13708 1.7041 1.0403.2631.29032.78627.71672 1.48636.5761h.006c.2389-.0529.36441-.0877.42791-.11038.0968.14516.24647.32358.4627.4763l.009.008.002.002v-.002c.0151.009.0302.0181.0469.0287l.003.002c.0227.0136.0408.0227.0514.0287h.002c.76511.37499 1.94754.0257 2.36941-.66228v-.002c.251-.1013.8014-.1754.88154-.0514.18447.33266.65321.45967.98284.57913l.0106.005c.26008.0862.51108.0832.70009.0559.29788.37046.93295.98284 1.73737.71067l-.002-.002c.0348-.0136.059-.0348.0726-.0605.53679.57004 1.30189.81651 2.08061.7651.44152-.0287.86944-.19354 1.30037-.61843.4249-.1376.85583-.16936 1.30492-.13307.75603.062 1.30189.29788 2.0927.27974.54132-.0121 1.39564-.10887 1.54836-.74092 1.23838.27974 2.49188.48386 3.74992.6517 4.14307.55191 8.37232.7137 12.54411.49596l.40221-.35382 2.47828.27519c.81349.0892 1.68898.18599 2.07456 1.10684.54434.30695 1.20663.26159 1.70712-.1255.251-.19355.53225-.86188.59878-.84222l.53074.16783c.0166-.55946.065-1.13102-.062-1.68141l.51259.0151-.65926-1.21722.55946-.14818-.99191-1.0403.37499-.17087c-.39465-.36138-.74847-.7016-1.07357-1.13253-.87851-1.1643-2.17132-2.02315-3.4959-2.59774l.38558-2.87897.58215.40221-.23135-4.11434.69404.2631-.90724-3.8724.61692.23437-1.05693-3.45205.33719.18901-.30241-2.882.42791.43396-.28124-3.46262.36592.30996-.0681-2.5569.34627.39767.065-3.00145.27217.30846.37801-2.81094.38558.60332.42187-3.36889.45967.71522.15423-3.56999.45967.37651-.0786-3.95708.61843.56702-.43094-3.71364.50201.375-.59273-3.77866.59424.251-1.07054-4.261.57307.24193-1.13556-4.3109.70614.29182-1.45612-3.46112.64111.0937-1.67537-3.15115.70765.0166-2.3059-3.06194.4521.008-1.81296-2.93643.45513.0559-1.42739-2.78523-.28427-.93445.4642.18447-.6774-2.47979.52317.12248-.87246-2.7066.60634.0998-1.02972-2.24995.68799.11491-1.41832-2.53271.63053.002-1.80994-2.55993.74847-.10584-1.67839-1.54987.60634-.313-.28276-.16179z"/><path d="m330.08211 113.14164c-2.1048-1.4153-2.94854-3.62745-3.1194-6.13295-.0968-1.441.12399-2.84268.74091-3.99336 1.23839-2.30893 3.31446-2.91678 5.69142-2.88503-.73032-.62297-1.60581-.780225-2.75498-.647164.37348-.904216.78022-1.825065 1.40622-2.540272.54132-.619948 1.29584-1.112882 2.03373-1.509044l-.006.130038 2.09724-.663797-.0786.223786 1.98232.172375-.14213.328119 1.24745.142134 1.63304.524688-.48689-.491422.85583-.143647v-.0015l1.4289-.192032-.16027.296365 2.66577-.09677-.005.006.18448-.0076-.24345.223785 2.30742 1.320035-.27369.0756 1.31097 1.698051-.47782-.0015.9526 1.232332-.0801.90875c.57308-.37499 1.16278-.84373 1.84019-1.00704 1.13103-.273676 1.95208.53074 2.14714 1.58314.24495 1.3155-.43397 1.95964-1.38808 2.60529l1.67386 1.70712-.35534.0499 1.6663 2.35732-.44152-.002 1.2656 2.25752-.51864-.0847 1.0282 2.24845-.40674-.068.84071 2.6053-.44758-.10434.60483 2.21669-.52317-.20866.80593 2.64763.74545 1.46973-.61995-.0771 1.92788 3.12242-.63658-.0106 2.29381 3.04832-.40977-.0106 1.56801 2.95004-.46571-.068 1.2414 2.95156-.38406-.15877 1.13103 4.29729-.5504-.23286 1.06903 4.25799-.42791-.18145.50654 3.22826-.4143-.30846.39464 3.40669-.39767-.36592.0816 4.10224-.35231-.2873-.11189 2.59773-.28125-.4385-.42035 3.35982-.36592-.57459-.4385 3.26758-.47781-.53981-.065 2.97121-.45665-.52468.0801 3.02262-.47932-.40675.25705 3.1693-.4884-.49596.38558 3.66827-.74999-.41884 1.16883 3.81495-.49293-.18599.90724 3.86938-.42338-.16179.20564 3.68793-.29485-.20413-.65624 4.90515.313.11945c1.69502.64868 2.63855 1.4909 3.71666 2.80791l-.34022.15574.82257.86188-.21623.0575.47328.87398-.26159-.006c.15121.40674.34022.82559.40221 1.25652.0136.0907.0212.18296.0242.28125-.31299.0801-.45966.37802-.61541.69706-.14969.30544-.41279.52318-.77266.48386-.69404-.98586-1.53022-1.18999-2.57657-1.30642l-2.87292-.31754-.4627.40675c-4.10526.20262-8.49328-.0257-12.09956-.50503-1.27769-.16935-2.5569-.38104-3.81494-.67136h-.002l-.009-.002c-.42489-.0968-.43547-.3886-.58366-.76662l-.9027.53981.2888.3765c.0227.0303.0378.0484.0559.0696h.002c.38558.4642.0439.56702-.37953.56854-.73184 0-1.28828-.22681-2.005-.29637-.41279-.0393-.86944-.0438-1.23838.0136v.002c-.15423.0242-.29636.059-.41884.10433-.14818.0559-.27671.13004-.37651.22681h-.002l-.002.003-.005.005c-.26763.26462-.51712.36593-.76662.38105-.92084.062-1.24594-.60029-1.86437-.7016-.43548-.0711-.71219.0983-1.00553-.068-.28427-.16179-.44757-.5262-.61239-.79837-.26158.10433-.49747.23588-.7893.13911v.002c-.2389-.0862-.4899-.0983-.5519-.35533l-.14516-.0937c-.53376-.34778-1.58464-.38558-2.0428.11794-.3009.32963-.54586.53981-.96168.55947-.44454.0227-.62297-.0877-.79837-.55493l-.14818-.0741c-.002 0-.17994-.11492-1.04333.0741v.002c-.1134.0212-.21925.003-.31602-.0363-.33568-.13609-.51864-.47479-.70916-.76057-.0333.0197-.81047.44304-.78022.20715-.49143-.0862-.30998-.41884-.24194-.76813-.19959-.062-.40372-.0741-.59877-.14969-.52923-.20413-.44002-.52318-.002-.84222.19657-.14365.44304-.0484.67136-.15272.27973-.1255.43094-.33114.7394-.44152.50352-.18145.90573-.17087 1.43647-.29335.31451-.0741.55341-.18447.69857-.36138.11794-.14365.67741-.19354 1.03577-.2132.37953-.0197.76057-.0212 1.1401-.0302l-2.26054-3.29782.0559 1.15975-1.94905-1.66176-.16028.42036-2.39663-2.91527-.13155.28729-1.59976-3.90264-.24042.35987-.93446-4.20808-.22076.13155.67589-4.00093-.27368.0181 2.6945-3.73783-.69555.0348 2.68392-3.88904-.89514.23135 1.41227-3.85728-.67741.28729.73789-3.33109.26763-1.20814-1.38807 1.15825-.1754-.46723-1.21117 1.22931-.15121-.35231c-.40069.40523-.72881.87851-1.28979 1.04786-.5141.15574-.5519.21018-.93143.61239v.002c-.0514.0544-.10131.10584-.14818.15574-.18296.18901-.66683.48386-.76662.68497-.13306.26159-.11794.59122-.10131.9405.0106.26462.0605.84979-.31602.93144-.27369.0575-.53527-.31149-.69707-.47479-.1512.22227-.32963.60331-.6139.66682-.26461.0575-.45664-.11945-.64565-.26612-.26915.11491-.42186.18144-.60785-.12551-.0907-.14667-.14213-.30695-.19657-.46874-.34324-.2132-.55493-.54132-.54434-.93143.0121-.38407.17237-.77569.27822-1.15522.13155-.48235.0363-.88607.13306-1.34271.0771-.36895.69404-.8135.89666-1.1144.1633-.14516.27217-.26763.3508-.38104.0983-.14062.14364-.25403.17842-.36894l.002-.005c.19808-.69555.88305-1.1522 1.50904-1.56953.0847-.0559.17087-.1134.34929-.23739h.002l.81652-.56249-.66833-.1376 3.06949-2.17586-.9027-.19506 3.07857-2.59319-1.25804.0242 2.1305-3.0952-1.04937.23437-.13155.0287 1.25501-3.13452-.67287.20111 1.36691-2.9062-.6139.0711 2.27869-2.77767-.74999-.003.94202-1.30038 1.66025 1.45612-.50654.0771 1.93091 2.17435-.55493-.0559 2.10177 2.75953-.56854-.0348 1.86438 2.48433-.63053.0181 2.22123 2.49037-.65019.19355 2.25903 1.65874-.81047.27066 2.9576 1.45158-.64716.44153 3.1073.70311-.62449.57609 3.34167.11492-1.70712 2.70358.65321.0333-1.35028 3.03472.79233-.14969.0257-.005-1.28223 2.94702.80593-.1754.065-.0136-.51108 1.95057-3.12091.0801.61542.68345.0181.0197-4.65112 1.84018 1.0025.32964-3.37644 3.26152.67589.21472.0257.008-2.34371 4.23681.61088.068-1.93243 4.0841 1.01763-.18448-.27822 4.25043.66531-.16936.86187 4.35022.58517-.46874 1.63152 4.12341.4385-.65926 2.34673 3.60779.37499-.92539 2.70509 1.29131-.40221-1.55894-.58517.14969-2.16528-1.03425-.10282.25705-2.16528-3.32655-.25251.38104-1.45764-3.68339-.39162.31451-.76511-3.8588-.4007.10131.27218-4.16574-.46572.0847 1.73737-3.67281-.5262-.0575 2.22576-4.02663-.33417-.10585 3.36738-3.25246-.11341-.0363 3.61082-1.42891-.21774-.24193 1.64059-.0786.53074-.49444.55946-1.35481-.35382.11945.55946-2.1426-.60331.13155 1.26106-2.89863-.78476.14818-.0166.005 1.19453-2.68544-.44001-.0227 1.29886-2.05792c-.12096-.23135-.24193-.46269-.36289-.69404l-1.97174-.0695.29486-.27218-2.78523-.62902.24193-.16481-2.41024-1.18244.40675-.13608-2.20308-1.61792.29636-.0892-1.89613-2.12445.44455-.0121-1.74946-2.33009.5897.0363-2.04129-2.67787.7772.0786-2.34068-2.63402.76209-.11794-2.38-2.08665.71521-.12551-1.75853-1.33666h.002c-.10887-.0847-.22228-.18901-.34626-.31602-.42036-.43548-.81652-.91027-.95563-1.51358-.10131-.44909-.13609-.8891-.52922-1.20512-.26915-.21623-.5761-.24344-.87096-.38407-.23285-.11189-.87851-.53073-.81954-.91933.0363-.25101.36139-.375.54737-.48689-.15272-.27368-.39767-.6139-.31148-.94807.0786-.30392.44454-.40523.69404-.51863-.12853-.31905-.34324-.68195-.12248-1.01763.19959-.30543.51864-.33567.84222-.40372-.009-.12399-.0726-.45362-.0106-.58063.13154-.26915.36289-.28427.63355-.24042.31602.0514.58517.21169.86944.38104.0998.0605.2011.12097.32056.18599.18749.10433.37045.16179.54888.21773.44606.13911.60029.24949.69857.71672.0212.10434.0454.21623.0756.32963.11945.4506.15423.49596.53224.71068l1.82205 2.44501.12096-.66682 1.73737 2.16074.0529-.78779 2.33009 2.21669.003-.76208 2.28473 1.80995-.0302-.84979 2.64158 1.38203-.065-.76661-.002-.0318 2.39512.77569-.14516-.71067-.008-.0363 2.70508.47177-.23588-.49747 2.56447.47327-.20564-.35836 2.18191.78477-.10433-.44153 1.71317.94504.40675-.74091-3.38703-1.87043.18598.78326-2.87444-1.03275.44152.76813-2.39511-.44303.24344.5141-2.31649-.40372.11039.54434-2.22879-.72276.0454.53375-2.56295-1.3412.0166.47479-2.21518-1.75551-.002.53981-2.21669-2.10934-.0287.42641-1.5408-1.9173-.10282.57458-.62297-.83466c.50957-.82408.44001-2.09119.55644-3.06194l-.56551.15121.0998-2.10328-.42942.21169.35685-2.47828-.46723.1512.60634-2.61134-.47479.11643.65775-2.28473z" fill="#c09f60"/><path d="m323.6029 122.31838c-.008.22529.9027.53073 1.82506.75149.877.21169.90724-.41733-.0438-.76359-.81047-.29183-1.77516-.21169-1.78121.0121zm1.88555 2.01104c-.0272.10131-.12399.18296-.22833.23135-.66379.29637-1.15522.0151-1.76307-.22379-.71521-.28124-1.72224-.39162-1.754-.70462-.0302-.31451 1.2777-.57156 2.2923-.39465.34929.0605 1.60279.54132 1.4531 1.09171zm-.55645 1.62245c-.0287.10887-.13911.20111-.26158.25554-.8135.35685-1.3276-.12399-2.08817-.37348-.85432-.27822-1.56499-.20564-1.61035-.53527-.0469-.32812 1.16429-.54132 2.3679-.38558.41582.0544 1.74946.44001 1.5922 1.03879zm-.40825 1.46671c-.0151.10584-.0953.19657-.19204.25705-.39767.24647-.78173.20866-1.17638.10736-.20716-.0514-.43246-.30393-.64717-.35988-.72882-.18749-1.41832-.13155-1.45763-.47932-.0378-.34778.98284-.52015 1.98988-.47328.34777.0166 1.56045.38709 1.48334.94807zm2.19703-2.76104c.0166-.20564-.44908-.70008-.76511-.77418-.31451-.0741.0106.38558-.26007.56703-.23588.18901-.61995.51561-.0333.55039.55191.0257 1.04182.002 1.05845-.34324zm-1.34272 1.32306c-.0393-.1633-.19505-.50805.14365-.39011.30997.0741.65019.34777.72882.67287.0771.32812-.2132.49293-.47177.54585-.35987.10887-1.30945-.0378-.96016-.26612.33719-.18901.64716-.27066.55946-.56249zm-1.51357.10736s.25402.33265.59575.51864c.34173.18598.9148.5897 1.43646.52469.50352-.11341.3009-.41885.57459-.33417.30544.0877.0514.46874.42489.66077.19657.11946.68497.37348.66833.74091-.0559.24496-.0438.13911-.13003.0136-.1376-.19808-.43699-.28275-.6381-.35987-.18144-.0726-.34324-.1134-.45967-.10433-.20564.0181-.5897-.0363-.72125-.14667-.1497-.16028-1.56348-.8392-2.04432-.58517l.29335-.92841zm2.56144-.64414c.51561-.0212.37197-.35836.62448-.2253.28578.14213-.0333.47177.29939.7273.17086.15121.60483.49143.52166.84979-.0983.23134-.068.12852-.13003-.0106-.0998-.21925-.37802-.35685-.56098-.47025-.16633-.10282-.31905-.25252-.43396-.2631-.20565-.0212-.57308-.14365-.68346-.2752-.36138-.57005-1.18244-.53829-1.78726-.4143l.0438-.71975c.0741.28578.9405.35231 1.2036.39163.29939.0363.51108.3886.90271.40977zm.68496-1.34574c.50352.0484.40826-.29788.63658-.13609.26008.17691-.0953.45513.19506.74696.14667.17238.52318.55947.39616.89817-.12701.21169-.0832.11643-.1255-.0272-.068-.22681-.32056-.39767-.48386-.53224-.14818-.12248-.27671-.28881-.3886-.31451-.19657-.0484-.5383-.21472-.62902-.35836-.10434-.23135-.2873-.38558-.50654-.48386-.35534-.16028-.87398-.1119-1.24595-.0862l.26461-.77569c.0348.2888.81047.47781 1.06147.5519.2873.0756.44606.44606.82559.51713z"/><path d="m317.54404 158.01375c.48689-.20262.90876.66077 1.00402.99645.059.20564-.0454.52771.0151.74091.20715.72428.60331 1.29131.32207 1.49997-.28125.20867-.94504-.58668-1.41227-1.4788-.16179-.30997-.45211-1.54231.0711-1.75853zm-1.39715.23437c.43246-.12097.83164.61238.91027.93294.0862.3508.0847.74091.17389 1.15522.189.87851.61087 1.45461.3508 1.66176-.26159.20564-1.05543-.73335-1.5287-1.85228-.16331-.38406-.50201-1.73132.0937-1.89764zm-1.22628.0333c.27973-.0756.60029.31451.71823.51864.19959.34778.22379.75452.29183 1.19756.11794.75906.53073 1.68595.27519 1.87042-.25553.18448-1.13556-.815-1.49543-1.7797-.1255-.33265-.34173-1.65722.21018-1.80692zm-.17843 2.08665c.19808-.10735.003-1.04635-.27217-1.9551-.25856-.8649-.81803-.57307-.63658.42187.15726.84676.71218 1.64059.90875 1.53323z" fill="#2c2c2b"/><path d="m315.98208 154.35757s-.87246.62599-.91027 1.17639c-.0363.5519.26613.34626.29486.19354.0922-.46572.46269-.64414.7394-.97075.20715-.24646.29334-.58063-.12399-.39918zm-1.15673 2.80942c-.21925.0605-.25857.78476-.0741.90724.18144.12248.74847-1.01157.0741-.90724zm.94655.33568c-.0968.32509-.0484.48839.2752.56551.37197.0922.51108-.21623.62297-.51108.14213-.37499-.0242-.56249-.41884-.49142-.27974.0514-.39919.17238-.47933.43699zm1.46519-2.71114c-.24041-.002-1.0282.48991-1.1537.7893-.0832.19808-.1996.65624.19959.6638.17842.003.39767-.0318.54434-.10131.23891-.11341.41733-.48235.52923-.68194.0953-.16936.32358-.66985-.11946-.66985zm.99797.68345c-.19203.12702-.63205.53225-.87246.86188-.24496.33719-.20716.81954.2767.939.30695.0756.48991-.12097.62449-.26008.14667-.14969.2888-.64716.53527-.7651.24647-.11795.65775-1.58011-.564-.7757zm-3.58814 3.23734s-.15725-.40675-.14364-.63507c.009-.19808-.0181-.50503.18598-.7893.068-.12701.12248-.24949.16633-.35836.17086-.42489.14667-.74545.12248-1.19907-.0287-.56551.21622-.88758.61994-1.25199-.59273.22681-.8029.60937-.83466 1.22175-.0121.25554-.008.51562-.0711.75755-.0318.12248-.0544.22227-.15121.26159-.0922.0106-.30241.0242-.14516.13003.15877.10585.15877.10585.13911.20111-.26612.3886-.45211 1.03123.11189 1.66176zm1.17942.77569c-.30242-.27671-.5882-.93748-.65624-1.33818-.0454-.27368.0439-.45211.12399-.70311.1376-.43094.13608-.81954.17389-1.25955.0242-.26915.0801-.53074.2389-.74847.13458-.30544.74545-.59878 1.0267-.67892-.33266.29939-.60483.46269-.79233.80895-.11038.20716-.14667.41733-.1633.63205-.0333.43396-.0454.87397-.14062 1.30189-.0499.22227-.20716.40069-.22076.6275-.0227.38709.26763.75453.40977 1.35784zm1.51811-.18901c-.22832-.44303-.27822-.80895-.2011-1.05693.0817-.26461.12247-.56552.0892-.84978-.0106-.0953-.0287-.19052-.0469-.27822-.0499-.24496-.0393-.40977-.009-.55191.0998-.46874.68346-1.11288 1.07206-1.3911-.78628.13609-1.32306 1.08415-1.35935 1.27165-.0514.0892-.30393.13306-.29637.39767.003.12248.32207.18447.31905.49596.003.13457.10584.57156-.0287.80593-.2253.38558.18447.90724.46118 1.15673z" fill="#2c2c2b"/><path d="m333.32095 191.12802c.11492-.19204.61541-.74848.90724-.5504.0408.0272.0786.0726.11341.12551.16179.26914.25403 1.01006-.0454 1.22175-.21623.15574-.36744.15423-.51259.42791-.17087.32056-.21925 1.21722-.4385 1.22931-.21925.0106-.39314-1.72527-.0242-2.45408zm-1.99895-.55191c.11492-.17086.60029-.6517.85129-.44908.0378.0272.068.0696.0968.12248v.002c.13155.26007.17388.95109-.11038 1.128-.20413.13004-.34022.11794-.4884.3629-.17238.28427-.22379 1.12044-.46723 1.10683-.24344-.0121-.25705-1.62094.11794-2.27264zm-1.71317-.60785c.12701-.17993.65926-.68043.93899-.47176.0378.0318.0741.0756.10433.13003.14668.27218.19506.99192-.11794 1.1779-.22681.13307-.3765.12248-.53678.375-.19052.29636-.30393 1.15522-.51108 1.15522-.20866.002-.2888-1.69049.12248-2.36639zm-3.49439.12248c.0998-.1875.54586-.73487.8271-.56551.0393.0257.0786.0635.11189.1134v.002c.16331.24496.28125.93748.009 1.1522-.19808.15725-.33871.16481-.4627.42943-.14818.30997-.15876 1.18092-.36138 1.17941-.20413-.002-.44001-1.60431-.12399-2.31044zm-2.00651-.37499c.0998-.16935.54585-.66531.82559-.50957.0408.0227.0786.0575.11189.0998v.003c.1633.22227.28276.84525.008 1.0403-.19657.14062-.33568.14819-.45967.38558-.14818.28124-.16481 1.06298-.36138 1.0645-.19808 0-.44001-1.44705-.12399-2.08363zm-1.71922-.74848c.12247-.15272.63355-.58063.88909-.39011.0363.0272.0696.068.0968.11643.13155.24344.16179.877-.13458 1.03123-.21471.1134-.35533.10131-.51259.31905-.18447.25705-.28427.99342-.50503 1.00401-.21925.0106-.23437-1.49241.16633-2.08061zm-.99797-.95411c.13155-.14818.66229-.55191.90876-.34929.0363.0302.0665.0711.0922.12097.11945.24949.12097.88304-.18296 1.02518-.21925.10282-.35987.0832-.5262.29334-.19354.24798-.35533.99343-.55039.97982-.19506-.0136-.17238-.69253-.12853-1.05996.0439-.36592.1754-.72579.38709-1.01006zm6.70602 1.28526c.1376-.1497.69253-.56098.94656-.34929.0363.0318.068.0756.0922.12852.11945.26008.11341.91632-.20262 1.05845-.22832.10433-.37499.0816-.55039.29788-.20715.25554-.36894 1.00855-.58366 1.00855-.21471 0-.14969-1.55894.29788-2.14411z"/><path d="m325.99499 190.47027c-.13306-.62902-.0197-1.41227.53829-1.67688.0832-.52772.52015-.73638 1.20966-.80594-.70765-.23134-1.2278-.0317-1.52265.55493-.88305.25705-.89968 1.19907-.89666 1.95057l.67136-.0227zm5.16522.42186c.13609-.86187.51259-1.5287 1.19756-1.62244.34626-.55191.90119-.66682 1.50753-.27671-.32207-.68648-1.24595-.64414-1.75702-.11643-.96622.0166-1.30189 1.0524-1.47276 1.84775zm1.73132.69404c.0892-.86792.42791-1.5544 1.10532-1.68746.31602-.56854.84373-.68346 1.4909-.35836-.35988-.66682-1.27921-.57308-1.76005-.0197-.9647.0696-1.24292 1.12347-1.36842 1.92789l.53225.13759zm-3.4203-1.35783c.16935-.85583.57307-1.50905 1.25955-1.57558.36743-.53678.95865-.59121 1.51812-.21773-.29486-.69707-1.22024-.69102-1.75098-.18448-.96621-.0212-1.34271 1.00099-1.54382 1.79029zm-7.11428-1.34423c.0499-.49747.40524-.95109.86037-.97226.16633-.32661.49596-.37046.95865-.27066-.41279-.29939-.79383-.27973-1.10986.0408-.64262.002-.9783.72579-1.02971 1.10834l.32055.0937zm1.68293 1.05693c-.0559-.62448.10131-1.34574.65473-1.54986.12399-.49596.55795-.65624 1.21873-.66531-.65322-.27822-1.1643-.13307-1.49544.39918-.87246.20111-.92085 1.05089-1.01913 1.78122l.64111.0348zm4.40919.55493c-.29031-.73335-.18598-1.49694.40221-1.87798.0847-.6139.51411-.89666 1.19907-.83013-.54737-.46874-1.33213-.0695-1.56952.58668-.87549.43699-1.05391 1.83565-.58971 2.40268z"/><path d="m339.33293 100.51134-.36592.31905-.251-1.013087c.564-.789299 1.40017-1.359348 2.43896-1.313986.74696.03327 1.29585.399186 1.82356.86339.27519.240419.54283.560977.85734.742423l-.12097.96168c-.12247-.0378-.37197-.18901-.49898-.2752-.77418 1.99744-3.46263 1.82658-3.88299-.28427z"/><path d="m347.37411 101.20236c1.09776-.49747 1.38505-1.692006 2.53724-2.183428l.42792 1.000988c-.71218.30393-.96772.97377-1.48334 1.48334 1.24897.5519 2.44199 1.43949 3.45205 2.38604.79686.74545.3508 1.66932-.34929.9647-1.52114-1.52719-3.54579-3.21466-5.84262-2.57959-1.07357.29486-.34173-1.07054 1.25804-1.07205zm-2.02769 26.50351.0544-.64263-.32661-1.7298.50201.15876-.50352-2.84117.40675.11794-.84525-3.05286.52015.18296-1.00099-3.16627.40372.12852-1.0781-2.4314.45665.0287-1.71166-3.12091.34626.0182-2.3558-2.82303.35533-.005-2.10177-1.80994.37046-.10433-2.1925-1.36238.27066-.24344c-.63507-.27822-1.34876-.60785-2.0171-.79232-.57307-.15877-1.18092-.19052-1.87496-.0514-.70463.14062-1.32306.46269-1.23838.82256.0605.2631.13154.46118-.28427.82408-.32963.2888-.82862.58517-1.10684 1.0025-.13759.36592-.0287 1.20965.11492 1.55138.22681.53678.64717.98738 1.14917 1.08566.84071.16331 1.83868-.24495 2.46921-.7651l.1633 1.13254c-.65926.48688-1.58767.78325-2.55086.69403-.52166-.0484-.98586-.24344-1.441-.61238-.65775-.53225-.6139-.52167-1.30642-.0801-.61693.39767-1.39715.47025-2.16075.23588v-1.01157c.44909.1255 1.07962.37348 1.72074-.20262.69403-.626.61238-1.46519.73637-2.28625-.34021-.33114-.83012-.59273-.93143-1.07205-.068-.32056.0287-.83013-.41884-.96621-.48387-.0696-.95563-.22076-1.34574-.21925l.4521-1.66932c.41885-.25252 1.38959-.0242 1.81449.15423h.002c.86641.35382 1.17034.41279 1.94452.19808.76208-.21018 1.3533-.2631 1.94754-.22984 1.14766.062 2.38604.2631 3.41727.80594.068.0348.13609.0726.20262.11189h.003c.69253.40977 1.24141.72428 2.07909 1.09322l-.40674.36592 2.87444 1.78575-.70463.19506 2.58866 2.23181-.80744.0121 2.46164 2.94853-.76661-.0408 1.72375 3.1451-.59878-.0393 1.27468 2.87595-.64112-.20564 1.01913 3.22373-.59121-.20867.81802 2.95761-.55492-.16331.50805 2.87293-.48537-.15423.0877.46269-.10131 1.17941-.80745-.50049zm-16.51026-23.79238c.33114.35836.58064.87398.57459 1.37296.16935.16784.36894.313.54434.4763l.12097-.12096v-.002l.2132-.20564.005-.003c.11795-.11341.23589-.22379.36441-.32358-.13306-.38709.0333-.82862.33719-1.08264-.7651.2132-1.37598.20261-2.15923-.1119z"/><path d="m363.1238 143.92128-.0635 2.66729-1.07961-2.44048 1.14312-.22681z"/><path d="m361.64651 149.97862-.31451 1.78575-.83769-1.60733z"/><path d="m363.04063 146.643-.24646 1.92335-.90119-1.7162z"/><path d="m363.01039 149.41008-.10433 2.67636-1.04181-2.4692z"/><path d="m362.90304 151.01892-.28578 1.46368-.28579 1.46217-.59424-2.92131 1.16581-.005z"/><path d="m362.21656 148.95798-.36139 2.63553-.40069-1.26863-.39919-1.26862 1.16127-.0983z"/><path d="m362.4222 152.32535-.78476 2.88049-.37802-2.96214 1.16278.0816z"/><path d="m360.55933 154.06574-.56702 2.13806-.59878-2.12899 1.1658-.009z"/><path d="m361.27303 152.9332-.69253 2.45862-.47176-2.51003 1.16429.0514z"/><path d="m361.06587 156.73302-.83617 2.45863-.32358-2.57657z"/><path d="m361.63895 154.54658-.68346 3.56394-.48083-3.59721 1.16429.0333z"/><path d="m360.49583 157.12314-.99797 3.2207-.15877-3.36888z"/><path d="m359.70048 154.22299-.47026 2.20913-.69403-2.15016 1.16429-.059z"/><path d="m359.74282 157.54349-1.06299 3.3326-.0907-3.49741 1.15371.16481z"/><path d="m358.94898 159.21281-1.13254 2.41629-.003-1.33364-.003-1.33516 1.13859.25251z"/><path d="m358.75846 156.88726-.92236 2.47827-.23286-2.63402z"/><path d="m358.10222 160.66138-1.19755 1.67688.0953-2.05793 1.10229.38105z"/><path d="m357.07704 161.77426-1.29282 1.42134.23437-1.90672z"/><path d="m348.55654 105.94571 1.11591 3.45205-2.15319-2.9198z"/><path d="m346.24308 106.52635.54283 2.54178-1.59977-2.04885z"/><path d="m347.54043 106.32222.39919 2.27868-1.45915-1.79331z"/><path d="m344.74765 106.31466.76661 2.72323-1.79936-2.18343z"/><path d="m343.86309 107.15839.19052.84978.19052.84978-1.36842-1.07961z"/><path d="m342.53549 107.2597.71823 2.41628-1.72829-1.83414z"/><path d="m349.95218 106.25871.6396 2.66729-1.68897-2.16226z"/><path d="m352.54689 105.77334.37197 2.2439-1.43496-1.76458z"/><path d="m351.28582 105.87616.6139 2.75045-1.67537-2.26659z"/><path d="m337.80726 132.6095-1.36086-2.27566 2.2061 1.47124z"/><path d="m340.61819 133.09337-.55039-1.46822 1.41076.68194z"/><path d="m345.76224 133.22794-1.72073-1.8417 2.36638.86944z"/><path d="m346.99155 133.34286-1.02367-2.25147 1.9415 1.53324z"/><path d="m348.50211 134.71581-.45211-2.26507 1.49997 1.75551z"/><path d="m349.12357 133.73599-.22832-1.51509 1.22779.91632z"/><path d="m351.39923 137.10034-1.27014-1.73434 1.98988.81501z"/><path d="m338.86873 134.551-2.09724-1.66327 2.60529.61389z"/><path d="m341.10508 134.79595-2.1925-1.83262 2.74138.80442z"/><path d="m343.4518 133.05859-1.35632-1.61338 2.00651.64566z"/><path d="m344.04151 134.45423-1.99593-1.58011 2.49038.52468z"/><path d="m345.86053 134.31965-.63356-.78476-.63507-.78476 1.92486.60634z"/><path d="m347.18359 134.59939-.44758-1.26258 1.26712.43245z"/><path d="m349.68152 136.81305-1.32759-1.74039 2.03373.81198z"/><path d="m347.29094 136.20066-.58214-1.62093 1.48031.87851z"/><path d="m345.481 135.33425-.42792-1.07508 1.14464.15725z"/><path d="m344.92002 135.98141-1.89916-1.51962 2.38756.46118z"/><path d="m342.44174 136.44562-1.71317-1.3034 2.14109.21925z"/><path d="m345.17858 137.23189-1.18394-1.2913 1.73282.26159z"/><path d="m346.85093 137.80648-.25251-.74545-.25252-.74696.69706.36894.69555.36744z"/><path d="m349.10693 138.6109-1.23838-1.81902 1.99291.93144z"/><path d="m350.40882 138.36141-1.04332-1.33364 1.65874.34475z"/><path d="m351.43854 140.06702-.75301-.66985-.75301-.66984.99797.14062.99796.14062z"/><path d="m349.41388 139.81148-.84524-1.2535 1.48636.27973z"/><path d="m348.31008 140.10633-1.17942-1.42739 1.79936.44001z"/><path d="m351.52624 141.26458-2.07455-1.27468 2.42989.16482z"/><path d="m351.97381 142.20055-2.60226-1.0902 2.82151-.0544-.21925 1.14464z"/><path d="m332.90362 172.10924-1.58918 3.4959.46723-3.81193z"/><path d="m332.34265 171.95198-1.02821 3.65316"/><path d="m331.32049 174.34407-.6895 3.74993-.47631-3.78319 1.16581.0333z"/><path d="m334.67577 169.42683-1.51056 2.42687.41582-2.82908z"/><path d="m333.41621 173.67574-1.41983 2.92282.14819-1.61791.14818-1.61791z"/><path d="m333.44041 177.77193-.61995 3.26153-.54586-3.27514 1.16581.0136z"/><path d="m336.91211 186.19112-.21773 1.99895-.92841-1.78273z"/><path d="m335.72816 184.29801-.2011 1.20058-.20262 1.20058-.75906-2.31346z"/><path d="m334.63948 182.76326-.55644 2.34975-.30393-1.16731-.30544-1.16883 1.16581-.0136z"/><path d="m333.38295 182.47748-.48386 2.16831-.68043-2.11387 1.16429-.0544z"/><path d="m332.33509 178.97705-.40373 2.79581-.75905-2.72021z"/><path d="m335.30932 166.80188-1.7797 1.77517.78779-2.38756z"/><path d="m334.18283 166.55844-2.2938 2.24844 1.3412-2.9198z"/><path d="m333.37841 168.6088-1.63001 2.73079.26764-1.56801.26764-1.5665z"/><path d="m336.25285 167.02415-1.54079 1.04635.61692-1.75702z"/><path d="m338.84453 162.23241-2.08665.2752 1.62094-1.34272z"/><path d="m339.15148 163.1835-1.70561.0605 1.26863-1.1401.43698 1.07961z"/><path d="m333.79574 138.44457-3.50951-2.50701 4.05234 1.47578z"/><path d="m334.66518 140.11238-3.81343-2.3936 4.30032 1.33516z"/><path d="m335.66012 141.43393-3.74841-2.14411 4.1854 1.06298z"/><path d="m334.16166 135.35542-2.95306-1.35633 3.24187.22681z"/><path d="m331.47774 136.12506-2.4435-2.18796 3.05438 1.19453z"/><path d="m336.28007 137.31052-3.17383-1.28526 3.4203.14667z"/><path d="m336.26495 142.81445-3.45356-1.87799 3.85274.78174z"/><path d="m337.46855 143.99235-1.58767-.6638-1.58918-.66531 3.43844.19354z"/><path d="m339.00784 144.85725-3.87845-.94051 3.9858-.22076z"/><path d="m340.07233 145.79473-4.20052-.66833 4.2232-.49747-.0227 1.1658z"/><path d="m341.32584 146.70348-4.36837.0378 4.20204-1.1915z"/><path d="m343.20685 147.54268-3.42937.36441 3.11183-1.48636z"/><path d="m344.5163 148.2216-2.83059.47479 2.40872-1.56046z"/><path d="m347.39527 145.91267-3.71212.14667 3.4838-1.28979z"/><path d="m346.73904 144.52762-5.4631-.16935 5.37389-.99343.0892 1.16278z"/><path d="m344.50118 143.57804-4.91271-.48386 4.88852-.68194.0242 1.1658z"/><path d="m342.54608 142.31395-4.47875-.89665 4.55888-.26613-.0801 1.16278z"/><path d="m340.00429 140.90622-3.21768-1.03577 3.37796-.11945z"/><path d="m338.59202 139.43346-3.08462-1.40471 3.37796.27671z"/><path d="m350.17597 126.22858-2.65368 2.37395 1.74644-3.10428z"/><path d="m347.23651 128.0733-2.76406 1.21117 2.09724-2.16831z"/><path d="m345.62616 129.90593-2.62949.84978 2.04432-1.85833z"/><path d="m348.45372 127.76031-2.33161 1.13405 1.59826-2.0413z"/><path d="m346.03744 128.12925-2.54935 1.20209 1.84473-2.13201z"/><path d="m343.18719 130.13274-2.51305.61541 1.98685-1.65571z"/><path d="m346.69821 130.13727-2.33917.88003 1.68596-1.84472z"/><path d="m358.68739 146.85167-.42489 2.05792-.73789-1.9672 1.16278-.0907z"/><path d="m357.60626 141.49895.20413 3.14661-1.33364-2.8563z"/><path d="m358.32601 148.24126-.67892 2.20308-.48537-2.25449 1.16429.0514z"/><path d="m357.65163 149.24224-.73638 2.86688-.2132-1.46519-.21472-1.46519z"/><path d="m359.00795 145.42125-.3765 1.91277-.78174-1.78576z"/><path d="m359.43587 143.58106-.21472 1.07357-.21471 1.07206-.73335-2.06095 1.16278-.0847z"/><path d="m359.80179 142.5075-.16179.78476-.16028.78476-.4128-.68496-.4143-.68648z"/><path d="m356.72624 150.77397-.67438 2.72323-.49142-2.76255 1.1658.0393z"/><path d="m356.16224 147.10872-.0862 2.64611-1.05844-2.42686 1.14463-.21925z"/><path d="m355.84168 149.08499-.36441 1.48485-.78778-1.31096z"/><path d="m358.98981 136.22637.29031 3.10276-1.40924-2.77918z"/><path d="m358.94898 138.35687-.0242 2.78523-1.11742-2.55086 1.14161-.23437z"/><path d="m358.51502 141.37647-.11946 3.06798-1.03274-2.89107z"/><path d="m357.88449 144.96461-.44153 1.91125-.72125-1.82507 1.16278-.0862z"/><path d="m356.84872 147.61224-.29485 2.27566-.86188-2.12748z"/><path d="m354.96166 152.67917-.58668 1.32911-.5882 1.33062.0181-1.45461.0181-1.4531 1.13859.24798z"/><path d="m354.14212 153.51837-1.28526 2.96365.1497-3.22675z"/><path d="m353.2999 154.31674-1.41076 2.65368.29485-2.99087z"/><path d="m352.13863 156.08888-1.22175 1.44252.14365-1.88555z"/><path d="m355.48635 151.33343-.64717 2.13202-.51713-2.16679 1.1643.0348z"/><path d="m356.1441 151.86266-.89666 3.01052-.2631-3.12998z"/><path d="m356.26657 118.94042.10887 1.87798.10736 1.87648-1.35481-3.508z"/><path d="m356.27716 121.40055-.0559 1.43646-.0575 1.43647-1.03576-2.68241 1.14917-.19052z"/><path d="m355.97323 123.17874-.24495 2.42838-.45514-1.13254-.45362-1.13254z"/><path d="m355.72525 124.58648-.44606 2.5312-.71672-2.4677z"/><path d="m355.23837 126.42061-.5383 2.13958-.62751-2.11538z"/><path d="m354.06198 126.63835-.64414 2.56598-.52166-2.5932 1.1658.0272z"/><path d="m354.68041 125.02649-.26158 1.02064-.26159 1.02065-.64263-2.00651 1.1658-.0348z"/><path d="m354.7409 128.08389-.63507 1.52567-.52922-1.56499 1.16429.0393z"/><path d="m356.68995 115.82556.11946 2.12748-1.22176-1.74644z"/><path d="m356.7338 117.87895.0907 1.56499.0892 1.56347-.65473-1.42285-.65623-1.42286 1.13102-.28275z"/><path d="m359.44343 183.62665-1.60128 1.85682.56249-2.38604z"/><path d="m358.89152 185.40182-1.67083 2.13957.61995-2.64309z"/><path d="m357.95253 184.93913-1.0645 1.59674-1.06298 1.59674 1.06903-3.68491z"/><path d="m356.2318 186.44515-1.67537 1.94149.64262-2.48281z"/><path d="m357.37643 183.53442-1.2913 1.97929.18749-2.3558z"/><path d="m355.89309 183.8081-1.25955 1.5665.17842-2.00198z"/><path d="m354.90722 186.51016-1.65117 2.09422.60029-2.59773z"/><path d="m354.67739 184.54448-1.60279 2.7444.50503-3.13754z"/><path d="m353.37852 185.863-1.43041 1.71317.37197-2.20157z"/><path d="m351.8967 186.6402-.58063.51259-.58215.51108.0605-.77115.0605-.77267 1.04182.52015z"/><path d="m344.03849 189.35285 1.01006 2.29834-1.93999-1.59372z"/><path d="m345.63069 189.32261.7394 2.33766-1.73585-1.73132z"/><path d="m336.6596 164.38711-2.90015 1.38052 2.21669-2.32556z"/><path d="m337.39446 165.19909-1.54079 1.04484.61692-1.75702z"/></g><path d="m199.6485 148.7029-.001-27.60005h-42.93242l-.001 27.60005c0 11.85333 9.61352 21.46685 21.46813 21.46685 11.85334 0 21.46685-9.61352 21.46685-21.46685z" fill="#fff"/><path d="m196.58126 148.7029v-24.53281h-36.8005v24.53281c0 10.16 8.23961 18.39961 18.40089 18.39961 10.16 0 18.39961-8.23961 18.39961-18.39961z" fill="#c09f60"/><g transform="matrix(1.2828284 0 0 1.2828284 -29.725063 -251.33046)"><path d="m156.49 311.837h9.563v9.562h-9.563z"/><path d="m156.768 310.29c-.974-.731-1.416-2.006-.828-3.082.448-.823 1.621-1.211 1.927-1.989.321-.818-.127-1.643-.314-2.429-.202-.856.217-1.707.869-2.258.408-.344.96-.531 1.233-1.014.28-.493-.047-.942-.073-1.439-.039-.729.225-1.232.645-1.845-.024.629-.101 1.3.159 1.896.18.412.532.663.69 1.093.086.235.152.549.18 1.003 1.055-.691 1.303-.868 1.139-1.85-.128-.779-.379-1.125.098-2.042.073 1.1.627 1.324 1.237 2.208.424.615.446 1.276.173 1.976 1.373-.55 1.423-1.351 1.471-2.128.068-1.114.292-1.529 1.129-2.019-.318.987-.193 1.72.408 2.576.011-1.001.864-1.161 1.622-1.512.722-.334.724-.622.739-1.341.568 1.033.555 1.604-.156 2.432-.331.386-.679.792-.531 1.685.738-.708 1.767-.533 2.633-.93.919-.421 1.263-1.35 1.567-2.24.279 1.235.509 2.576-.271 3.702-.463.669-1.284 1.285-1.976 1.74-.326.214-.649.426-.91.693-.317.325-.542.731-.562 1.319-.042 1.24-.562 1.955-1.43 2.544-.591.402-.932.625-.979 1.507-.036.674-.273 1.308-.817 1.72-3.024.024-6.048.024-9.072.024z"/><path d="m162.384 303.936c.463-.383.715-.814.943-1.353.27.995.362 1.835-.173 2.765.487-.436 1.033-.6 1.613-.821.44-.169.793-.39.937-1.072.152-.918.525-1.267 1.271-1.77-.347.783-.462.977-.273 1.885.11.528.17 1.087.005 1.61h-.001c-.16.505-.483.854-.804 1.083-.344.246-.721.377-.979.747-.4.574-.204 1.261-.34 1.902-.091.427-.297.798-.556 1.145h1.702c.489-.408.663-.905.696-1.523.057-1.071.449-1.249 1.118-1.712.794-.549 1.245-1.198 1.291-2.361.026-.679.295-1.132.665-1.492.267-.258.588-.469.911-.681v.001c.673-.442 1.482-1.047 1.924-1.701.534-.789.549-1.792.393-2.7-.391.934-.883 1.373-1.408 1.609-.855.384-1.917.224-2.614.925-.869.875-.979 1.937-.871 3.101l-.232.021c-.105-1.139-.028-2.228.789-3.111-.25-1.126.16-1.605.548-2.058.303-.352.59-.688.464-1.372-.156.371-.481.543-.839.677-.773.291-1.508.488-1.41 1.472.006.058.014.118.025.181l.001.006c.089.434.141.904-.013 1.331-.195.539-.66.762-1.132.988-.68.326-1.377.66-1.106 2.209l-.229.04c-.302-1.722.476-2.095 1.235-2.458.434-.208.862-.413 1.023-.931.084-.271.096-.628-.002-1.116-.539-.728-.985-1.527-.826-2.478-.429.414-.489.914-.523 1.48-.044.714-.09 1.446-.993 2.019-.586.371-1.139.503-1.66 1.015-.652.641-.888 1.4-.57 2.498zm-4.322 6.121c-.919-1.462-.442-2.042.165-2.779.454-.551.69-1.091.988-1.721.156.984.541 1.196.841 1.91.03-1.889.904-2.506 1.769-3.116.122-.086.243-.171.362-.26-.489-1.592.07-2.584 1.411-3.449.383-.835.285-1.384.02-1.837-.327-.559-.874-.956-1.148-1.549-.037.379.086.687.15 1.049.208 1.17-.06 1.345-1.278 2.143-.412.269-.819.725-1.009 1.182-.282.679.105 1.126.308 1.756.183.568.092 1.211-.255 1.704l-.191-.134.007-.01c.304-.436.377-.976.22-1.481-.219-.708-.621-1.162-.304-1.924.175-.422.514-.809.913-1.158-.02-.505-.086-.84-.174-1.08-.152-.413-.481-.627-.66-1.014-.115-.251-.195-.608-.203-1.221-.13.351-.196.688-.18 1 .031.577.41.919.044 1.565-.295.521-.851.711-1.285 1.076-.587.495-.975 1.256-.793 2.027.201.849.651 1.684.304 2.568-.364.923-1.462 1.137-1.94 2.015-.518.948-.126 2.081.702 2.738zm6.089-2.512c-.143-.25-.287-.5-.269-.853-.256.263-.545.45-.829.632-.734.474-1.429.923-1.286 2.733h1.988l-.013-.01c.288-.37.507-.741.607-1.172.119-.516.063-.874-.198-1.33zm-1.967.137c.222-.217.481-.384.743-.554.559-.36.847-.683 1.255-1.115-.093.702-.083.93.261 1.577.055-.302.177-.566.353-.789.275-.351.632-.483.975-.73.855-.613.902-1.504.703-2.454-.084-.404-.166-.798-.023-1.242-.066.075-.126.153-.181.234-.167.25-.279.536-.337.888v.005c-.174.82-.594 1.061-1.115 1.254-.69.254-1.335.475-1.846 1.075-.126.149-.204.309-.301.476v.001c-.257.439-.361.89-.487 1.374zm-.65 2.375c-.073-.943.069-1.542.325-1.966.112-.885.385-1.677.891-2.48.379-.603.733-1.212.513-2.332-.332.577-.817.918-1.304 1.262-.924.651-1.858 1.311-1.639 3.715l-.23.034c-.088-.754-.707-1.334-.937-2.038-.205.463-.488.859-.746 1.173-.563.684-1.002 1.217-.07 2.629l-.004.003z" fill="#da231d"/><path d="m166.05 309.682v2.231h-9.561v-2.231z"/><path d="m165.767 311.782v-1.817h-8.994v1.817z" fill="#da231d"/><path d="m169.594 305.202h4.995v2.788h-4.995zm2.884-.523.011.312h-.874l.011-.312c.248-.203.604-.202.852 0zm.118 3.523.19 5.674c-.227.652-1.241.652-1.468 0l.19-5.674z"/><path d="m149.548 305.322h4.781v2.709h-4.781zm2.761-.509.01.303h-.836l.01-.303c.237-.197.578-.197.816 0zm.113 3.424.181 5.515c-.217.634-1.187.634-1.405 0l.182-5.515z"/></g><path d="m155.63338 191.37362 7.46349 1.31618c.22065-.31429.45028-.62217.68888-.92107l-7.36343-2.69779c.2091-.50415.43488-.99804.67733-1.48423l7.8368 2.87097c.30146-.31173.61319-.61319.93518-.90311l-7.30699-4.4976c.30275-.45412.61961-.89669.95186-1.32644l7.68799 4.73235c.31044-.23219.62987-.45284.95442-.6645l-6.6707-6.3205c.38356-.38485.77867-.75558 1.18661-1.11349l6.94267 6.57834c.30788-.16292.61961-.31686.93647-.46182l-5.46229-7.97149c.45027-.30147.91081-.58882 1.38161-.8595l5.6252 8.2101c.3284-.11417.66066-.22064.99676-.31814l-3.68813-9.31461c.50158-.20269 1.01215-.38614 1.53169-.55419l3.75741 9.4878c.36047-.0693.72608-.12828 1.09425-.17703l-1.42394-10.13819c.53109-.0872 1.0686-.15522 1.61123-.20654l1.43421 10.20747c.25528-.0103.51184-.018.76969-.018.14753 0 .29377.003.44001.006l1.13787-10.24595c.54392.0359 1.08271.0911 1.61637.16421l-1.13018 10.19207c.33097.0372.65809.0821.98393.13726l3.40078-9.652c.5234.14881 1.03909.31558 1.54709.5003l-3.34433 9.49293c.41435.10776.82229.22963 1.2251.36561l5.49051-8.32941c.47464.2617.93903.54007 1.39315.83256l-5.33785 8.09721c.38741.1719.76841.35663 1.14172.5529l6.94138-6.57706c.40794.35791.80433.72736 1.1879 1.11221l-6.67071 6.3205c.32456.21166.6427.43359.95443.6645l7.68799-4.73235c.33097.43103.64911.87232.95057 1.32644l-7.30699 4.4976c.32327.2912.635.59138.93647.90439l7.83551-2.87097c.24246.48491.46823.9788.67734 1.48295l-7.36344 2.69779c.23861.30018.46823.60678.6876.92107l7.46477-1.3149c-1.46883.90825-2.99668 1.72926-4.57584 2.4579l-1.9499.3438c.077.13598.15009.27196.22321.40922-5.01073 2.05253-10.4961 3.18398-16.24446 3.18398-5.75092 0-11.23757-1.13273-16.2483-3.18398.0731-.13854.14881-.27324.22578-.40922l-1.95375-.34508c-1.57788-.72865-3.10445-1.54966-4.572-2.4579z" fill="#fff500"/></g></svg>