<svg height="400" viewBox="0 0 600 400" width="600" xmlns="http://www.w3.org/2000/svg"><path d="m0 0h600v400h-600z" fill="#00a0e3"/><g fill-rule="evenodd" transform="matrix(1.284937 0 0 1.284937 -93.873793 -299.90922)"><path d="m398.3916 309.6096c-.9519 4.7594 2.0622 10.6359-8.7412 7.8211-4.0465-12.1575-41.5159-21.6575-42.0117 16.2451-.1392 10.6067 4.2216 21.1524 10.2673 30.2213-4.2584 5.807-8.6108 14.5783-3.6805 21.6229 5.9046 8.4365 17.2662 5.6299 25.3035 9.2013 5.7294 2.5458 10.046 7.3678 10.5815 13.8019 1.4964 17.9903-13.1089 16.1042-23.4633 9.2012v7.8211c16.4526 3.6559 29.4441 4.7154 29.4441-17.4824 0-3.8347-.9794-7.2402-2.3003-10.5814-4.7396-11.9886-16.6873-19.9372-25.3035-28.984 9.2443-8.0391 12.7202.9788 11.9616 6.9009 5.8703-9.2245 3.6304-17.0404-9.6613-15.6421 2.5484-4.2092 7.2513-20.5546-11.5016-13.3418 8.2551.8076 10.8905 6.838 2.7604 13.3418-9.392-9.392-11.1138-19.65-9.5845-32.5397 2.6586-22.3983 37.9792-22.4873 29.935 1.038-3.3826 9.8923-9.1397 1.2192-9.769-4.8433-4.373 6.1387 1.0238 21.4308 11.5015 13.3419-.0989 2.383-1.4567 5.2905 1.4151 6.6934s4.2375 4.9178.4252 11.7091c6.2206-1.7408 7.2862-4.3118 6.9009-8.2812 1.9642.1384 1.8017 1.5582 2.077 3.6805.4918-1.0788 2.5764-8.9416.2233-13.3418 2.5529-.9057 2.6023 1.8896 2.7604 4.1406 2.3434-6.588 3.8356-12.1989-2.859-15.6915 10.3241 0 10.6152-7.9461 3.3191-16.0529zm-32.7223 63.0057c7.547 8.5266 17.1621 12.3727 23.6205 24.6002-9.5459-9.6698-13.9909-6.5684-17.3072-9.47 4.1976 1.1611 4.0031-3.0518.6531-5.7691-.5683-.4612-9.055-4.5978-6.9664-9.3611z" fill="#ffcb00" stroke="#8a7258" stroke-width=".8504"/><path d="m299.2686 286.6576 31.1289 8.3409c1.8399-6.3002 4.6578-8.731 10.5724-11.5481-1.6402-3.1925-3.2685-2.8012-5.7779-2.0515-2.0963-.9779-4.2677-2.4603-6.3869 2.0996 1.1162-.0492 3.9905.3877 2.5924 2.1327-1.8483 2.3067-5.0473 2.0241-7.3919.7518-3.5465-1.9247-3.2025-7.8887.8856-3.5737.0771-1.1948.8165-2.6225.6353-3.7126-.148-.89-.6384-1.7189-1.3931-2.3147-.7548-.5959-1.4296-.2701-2.0701-1.13-.9101-1.2219-.4056-2.185-2.2101-3.8279-2.185-.0497-2.6718 1.4918-4.3155 2.1513-1.654.6639-4.5304-.3343-4.8977 2.7143l-.235 1.9504c5.7618-1.3953 2.4934 4.6448-2.6085 3.8311-4.0432-.6447-7.5835-7.0134-1.5343-3.9345.284-3.464.783-5.4664-3.5948-5.637-2.2057-1.4537-3.0506-3.0563-7.1977-.7782 3.0063 5.0806 5.5717 8.5859 3.7989 14.5361z" fill="#ffcb00" stroke="#8a7258" stroke-width=".8504"/><path d="m343.2917 325.9582c-7.9917-5.9845-4.248-19.7856-12.8664-31.059-.01.0332-.0199.0655-.0295.099l-30.846-8.2653c-1.0304.3144-2.0183.6662-2.9469 1.0511-2.4038.9967-2.9852 2.4695-4.4847 3.4498-4.2313 2.7657-8.6392 2.3459-12.7642 4.4847-2.3025 1.1939-1.8538 12.5985-1.0349 14.489.8436 1.9474 4.14 4.5836 6.8392 5.3368.267-.6208.5856-1.2042 1.0349-1.9214.0351.8859.0726 1.501.2123 2.128.1865.006.3657-.002.538-.0238 1.8967-.2446 4.8569-1.7062 6.5546-2.7598 11.9956-7.4449 13.3733 8.5031 3.7947 7.2445-2.2909-.3013-6.0622-2.5798-8.2794-3.1048-.9428-.2234-1.726-.5139-2.4137-.6647.089.2647.1993.5473.3379.8651-1.1024.3149-1.3201.3954-2.4018.0346.074-.258.1474-.4961.2211-.722-.1942.1179-.3847.2764-.5732.487-1.1775 1.3158-1.8649 9.4337-.6899 11.0392 1.8445 2.5206 8.0532-1.5859 12.4543.2183-5.3924 2.1169-13.343 1.334-17.974 4.6114 2.0495-.4711 3.9215.0717 3.1048 1.3799-.8166 1.3082-6.332-.7602-9.4901 3.365 4.0221-1.7456 4.6528-1.0879 6.5401-1.0346-8.7622 4.5964-13.1496 12.4923-16.3686 21.473-2.2927 6.3961-5.2487 20.3853-13.4541 20.6986 1.9661 1.0281 4.5039 1.7781 7.5895-1.035.3271 1.6566-1.4313 4.5808-5.1747 4.4847 1.9758 2.6864 5.5794.4309 5.5871.4615.5839 2.3394-.2497 5.0131.6225 8.5079-6.8624 4.047-13.9913 8.5496-17.2488 8.6244-8.1865.188-7.6524-.1026-12.0742-6.2096-1.9766-2.73-3.6669-5.614-7.2445-6.5545-.4887-.1284-.739-.167-.9357-.095 3.3451 3.2817-3.083 6.6969-5.2557 7.7843-.004.0566-.007.1136-.0105.1717 2.9097 1.2212 1.1389 6.9653.4595 9.0034-.2537-.1859-.497-.3489-.7331-.4889-.0139.1958-.0272.3917-.0405.5879 4.0045.4708 1.9942 7.0044 1.2597 9.2072-.3651-.2679-.7101-.4867-1.04-.6608.0272.1222.0561.2438.0867.3634 1.804 7.0195 10.6931 1.1339 14.144-.345 4.5698-1.9581 16.388-.7503 7.9467 5.5486 6.2509-1.6282 6.5664-5.216 10.6821-7.2734 4.1156-2.0574 4.5825 3.3817 0 3.7947 5.3036 3.7072 6.2047-2.9228 8.7845-4.0382 2.5798-1.1155 5.5497 3.2811-1.4108 6.1356 7.056 2.2765 8.6057-4.6259 9.5301-5.2022-.7282 1.7039-3.2749 9.489 7.9784 5.9173-7.1246.9783-3.8614-8.7791.301-5.9173 2.1555 1.482 1.9219 4.6962 5.1747 6.5546 6.9318 3.9603 14.8881 5.5196 22.7684 5.5196 32.118 0 26.9054 6.5112 30.013 36.9125.6891 6.7413 11.9854 13.6593 6.2095 20.0086 4.4453-1.1554 5.5835-5.4434 5.5197-7.2445 2.7439 2.1543 1.0519 5.8541.1664 8.6533 5.1287-2.9276 5.0456-9.9383 4.3183-12.1031 4.5697 2.8029 4.1969 10.8672 2.4148 13.4541 3.6901-1.6568 4.8087-4.7886 4.1397-7.2445 6.8394.6826-.2089 19.2141-5.8646 21.0436-3.8191 1.2353-8.6184-1.1421-12.4191.3449-1.3533.5295-2.2352 1.0894-2.7598 1.6637 2.0401.2497 2.7578 4.2052 2.9933 5.7101.3019-.2701.6211-.5017.9556-.6857 3.1031-1.707 4.0663 3.6473 4.3421 5.4184-.3555-.0561-.7149-.0796-1.0752-.0723.2041.2313.4238.459.6639.6792.4156-.4433.8736-.8155 1.3629-1.0845 3.1031-1.707 4.0663 3.6473 4.3421 5.4184-.0686-.0108-.1378-.0204-.2066-.0289.3886.231.7631.4277 1.1109.5754 1.9899.8442 3.3247.9159 4.8296 0 1.5049-.9158 2.3576-3.6799 3.1048-4.8296 2.5742-3.9609 6.7125-7.5929 8.388-.114 5.076-3.5538.9009-9.6114 1.6163-11.6152 1.3865-3.8832 5.9361.8971 4.4847 3.7947 4.2752-5.0065-1.1684-6.8338-.3449-10.3493 1.1528 1.3 2.0814 3.6771 5.6409 1.8689-5.6398-2.2022-4.038-10.2427-3.5711-14.633.2781-2.6147 4.3206-13.3549 3.1048-15.179-2.6218-3.9333-11.6521 4.6372-11.3842-7.2445.165-7.3128 3.4696-13.8934 4.1397-21.0435 1.8986-20.2556 1.0159-26.6304-16.9038-37.9474-5.1874-3.276-34.5382-17.218-25.4155-22.1457 1.0579-.5715 2.2737.5811 1.9571 3.8619 2.4071-2.0041.5572-6.8116 1.3799-8.3548.746.4464 1.2585.9374 1.3799 3.1802.5794-1.5072.847-4.8915.4977-7.5118.7197 1.512.978 2.2677 1.3774 4.4835.5519-2.0696.6386-5.8351-.1502-9.0459 1.254 3.8191 4.3154 3.7803 6.5545 3.1048-5.2988-2.1606-3.9674-13.3793-3.7947-15.2246 1.7793 2.9123 5.0088 3.6734 6.5545 3.1504-2.9962-1.4434-4.8297-4.8104-4.8297-12.4191 1.226 2.0304 2.4325 3.6657 4.8297 3.4497-2.5568-1.8207-4.4654-6.0497-3.1048-11.0392.1693 1.6441.9587 3.8525 3.4498 4.1397-1.3595-1.2489-2.2102-3.9002-2.2249-5.1911.4016.6143 1.4006 2.2547 3.3474 2.2507-2.2354-1.8479-3.2785-5.5139-2.5177-8.9189 1.4496 1.1106 2.8647 1.1854 4.617.3569zm-8.532 178.967c-.0365-.006-.0731-.0102-.1097-.015.0236.017.048.0332.0712.0502.0128-.0116.0258-.0235.0385-.0352z" fill="#ffcb00" stroke="#8a7258" stroke-width=".8504"/><g fill="#57574d" stroke="#57574d" stroke-width=".216"><path d="m214.1603 394.8321c-.5831-3.7975-2.6572-4.1045-6.3198-4.3752 1.629-3.7582 8.1822-6.6445 11.5285-3.4725 3.4869 3.3049-3.0339 6.7604-5.2087 7.8477z"/><path d="m225.4459 307.5213c-1.0938-2.8272-6.1607-3.7774-9.0288-3.3644.6174-3.1722 8.5937-5.4425 11.7104-3.5665 3.2474 1.9548-1.1904 5.7239-2.6816 6.9309z"/><path d="m226.1248 318.0206c-1.8524-2.3996-7.4242-3.0538-10.0566-1.8424-.3099-3.2169 6.692-7.6612 10.2132-6.7486 3.6691.9507.9299 7.0099-.1566 8.591z"/><path d="m227.0126 327.6385c-1.8524-2.3996-7.4242-3.0537-10.0566-1.8424-.3099-3.2169 6.692-7.6612 10.2132-6.7485 3.6691.9507.9299 7.0098-.1566 8.5909z"/><path d="m334.788 504.9305c-2.7976-.4426-5.8939 1.1614-6.9057 3.6727-2.2736-1.9871-.4146-7.4528 2.5634-9.0911 3.103-1.7069 4.0666 3.6472 4.3423 5.4184z"/><path d="m254.3487 483.8933c-.8811-2.6918-3.7201-4.7167-6.4165-4.4728.7325-2.9294 6.4447-3.7658 9.2603-1.8618 2.9336 1.984-1.3929 5.282-2.8438 6.3346z"/><path d="m257.2798 492.115c-2.5461-1.2407-5.976-.6116-7.6775 1.4944-1.5936-2.5648 1.7814-7.2486 5.1081-7.9452 3.4664-.7256 2.8234 4.6764 2.5694 6.4508z"/><path d="m264.4274 500.8282c-2.804-.3997-5.8753 1.2516-6.8486 3.7781-2.3038-1.9521-.5287-7.4456 2.4239-9.1293 3.0765-1.7542 4.122 3.5845 4.4247 5.3512z"/><path d="m279.9459 499.1628c-2.8014.4179-5.2732 2.8776-5.4843 5.5768-2.7653-1.2128-2.6332-6.9845-.2845-9.4413 2.4473-2.5599 4.9741 2.2579 5.7688 3.8645z"/><path d="m340.0817 509.636c-2.7976-.4426-5.8939 1.1615-6.9057 3.6727-2.2736-1.9871-.4146-7.4528 2.5634-9.0911 3.103-1.7069 4.0666 3.6473 4.3423 5.4184z"/><path d="m345.3754 514.5768c-2.7976-.4426-5.8939 1.1614-6.9057 3.6727-2.2736-1.9871-.4146-7.4528 2.5634-9.0911 3.103-1.7069 4.0666 3.6472 4.3423 5.4184z"/><path d="m214.6207 404.0017c-3.0976-2.273-4.7813-1.0235-7.5626 1.375-1.5055-3.8094 1.0874-10.484 5.6965-10.6073 4.8025-.1287 2.635 6.9256 1.8661 9.2323z"/><path d="m215.1068 413.3078c-3.0976-2.273-4.7813-1.0234-7.5626 1.375-1.5055-3.8093 1.0874-10.484 5.6965-10.6072 4.8026-.1287 2.635 6.9256 1.8661 9.2322z"/></g><path d="m265.8067 349.0481c-3.4838-1.9304-3.5422-2.7786-4.8651-7.7103-5.9927-11.9857-18.843-24.7552-22.3432-32.553-3.464-7.7168-5.9508-7.5294-9.347-6.7808.4079 1.9964-2.6237 4.5609-3.8058 5.5174-.0142-.0366-.0292-.0723-.0445-.108-.0737.6188-.0935 1.2583-.0607 1.8975.3337.006.6492.0431.9411.1187 3.6689.9508.9298 7.0098-.1567 8.591-.2585-.3348-.5885-.6347-.9737-.9011.157.6876.4252 1.1936.722 1.4312-.003.1462-.0165.2727-.0391.3858.4801-.0267.9306.006 1.3354.1111 3.6688.9507.9297 7.0098-.1568 8.591-.2803-.3632-.646-.6855-1.0738-.9684.5335 1.3003 1.3774 2.3142 2.6853 2.7063 2.5322.7588 3.7794.3824 5.2393-2.3916 4.3931 3.0872 4.0541 8.7091-2.5155 5.0309 1.3039 3.4268 6.6575 2.2898 8.9589 4.1888 2.3015 1.8989 1.9366 4.3398-3.8404 3.4064 1.6161 1.4567 3.6922 1.4434 5.0913 1.2829-.5028 2.2646-.8172 4.7481-5.0697 2.0464.7183 4.3038 3.5827 3.7244 7.4372 3.7244-.1465 3.0906-1.5383 4.5788-4.3038 2.194.3523 3.7389 6.5234 3.5147 6.5234 8.7557v5.6228c0 .7398 3.9951 4.8829 3.9951 4.8829 1.0851.8385 2.1702 1.677 3.2553 2.5155.9261.7407 1.8525 1.4814 2.7785 2.2221 2.691-4.6746 4.2514-10.9735 5.5866-14.6985 1.1505-3.2097 2.4514-6.2799 4.0464-9.1111z" fill="#ffcb00" stroke="#8a7258" stroke-width=".8504"/><path d="m302.1593 423.7157c-14.464 5.5948-19.9613 25.8648-31.4007 25.975 1.8626 1.9718 4.2599 1.7422 6.3464 1.7422.3836 0-1.0377 2.5314-6.0533 1.3487 4.3004 4.4867 9.1851 1.2439 9.1644 1.6379-.281 5.3518-1.5718 8.7625-4.6044 13.3152 5.9568-4.0057 6.0058-6.7102 6.5954-5.5999 1.7275 3.2517 1.1251 5.5061 3.7332 8.7109 3.0093 3.6978 2.4166 4.4226-1.4932 7.342-4.618 3.4481-8.3353 7.0603-14.4352 6.0976-4.8589-.7665-7.2544-8.229-11.9594-5.7679.8516 1.9548-2.4687 4.4799-3.704 5.3759-.0541-.1653-.1154-.3285-.1837-.4884-.0283.7075.0491 1.5128.197 2.3468.1162-.034.2325-.0632.349-.0876 3.4662-.7262 2.8227 4.6769 2.5684 6.4516-.2607-.1272-.53-.2349-.8067-.3234.3937.6721 1.4383 2.7992 1.9664 3.6927.1695.2869.3308.5599.4833.8215.3365-.3297.6985-.6117 1.0809-.8297 3.0761-1.7549 4.1212 3.5852 4.424 5.3526-.7486-.1068-1.5157-.0683-2.2572.0947 1.1596.8311 2.6934.9074 5.9754.9074 1.5415 0 2.8355-.4516 4.2704-.9499-.1165-2.0061.5051-4.2684 1.762-5.5834 2.4463-2.5608 4.9737 2.2589 5.7682 3.8662-.5153.0765-1.019.2216-1.4998.4252.4425-.0165.9062-.0165 1.3966.002 1.6614.062 1.8933.5751 2.7377-.1245 2.2661-1.8765-.4818-4.4895 1.1982-6.5786 2.0674-2.5705 4.0859.7673 2.1617 2.5965 2.6646-.7327 1.3771-5.3603 3.36-6.222 1.9828-.8618 2.6421 2.8939 1.2937 4.6493 2.5021-2.1041 3.0022-5.5029 4.1817-6.7648 1.1794-1.262 5.5998-4.2931 7.7153-5.9732 3.0302-2.4066 6.5435-3.4058 4.6043-7.7153-.9482-2.1073-4.8407-4.6069-4.7287-6.9687.2474-5.2141 5.3149-6.6719 9.0841-8.9598 2.8696-1.7419 13.0411-5.22 17.608-9.2628-1.3447-19.3631-1.7904-24.3031-26.8994-24.552z" fill="#d3a839" stroke="#8a7258" stroke-width=".8504"/><path d="m362.0336 359.7619c-1.4976 1.1925-2.9543 2.5903-4.1236 4.1323" fill="#a65b45" stroke="#8a7258" stroke-width=".8504"/><path d="m365.6438 372.6524c.8121-1.8184 2.0744-3.3508 2.8599-4.1816" fill="#a65b45" stroke="#8a7258" stroke-width=".8504"/><path d="m362.8267 366.4644c-4.6066 3.812-3.5864 9.2327-.8657 15.061-10.9159-3.2402-3.4126-13.6547.8657-15.061z" fill="#8a7258"/><path d="m385.4781 334.6855c2.0489-4.5845 3.7239-7.166 2.4321-10.9446 1.8383 1.4015 2.6598 1.7269 5.5534 1.9052-4.1933.8583-5.0965 4.3891-7.9855 9.0394z" fill="#8a7258"/><path d="m301.9765 319.0207c-3.1796-.074-7.1861-4.7262-11.5702-4.4187-1.224.5502-2.4851.9989-3.4628 1.1251-.1723.0221-.3146.0343-.538.0238-.0332-.002.0448.248.1942.6914.6877.1508 1.4709.4413 2.4137.6647 2.2172.525 5.9885 2.8035 8.2794 3.1048 2.0741.2724 3.6338-.2622 4.6837-1.1911zm-16.8182-3.4764c-.2189-.061-.4408-.1341-.6659-.2186-9.364 1.4902-15.5446 3.9798-18.3268 2.1404-5.9259-3.918-.1143-12.4355-4.6043-11.9409-3.4008.3747-3.4215 11.9957 2.1982 14.8073 6.2717 3.138 13.1942-.4734 19.7938-1.7458.1842-.6905.3971-1.2192.6304-1.4797.1885-.2106.379-.3691.5732-.487.127-.3883.2562-.7379.4014-1.0757zm1.4414.898c.0346.1017.0343.1017 0 0z" fill="#fdd5a5" stroke="#8a7258"/><path d="m286.1932 313.6229c-.8359 1.3346-1.222 2.2028-1.6574 3.7191 1.0817.3608 1.2994.2803 2.4018-.0346-.6166-1.4131-.6829-2.1319-.7444-3.6845z" fill="#ffcb00"/><g fill="#8a7258"><path d="m309.5447 295.7561c-2.9888-1.3758-2.1017-1.3033-4.3718-3.289-3.7887-3.3132-6.2134-1.6027-9.6181.537 4.5502 1.7676 2.7362 2.816 5.965 3.4729 3.2288.657 8.4086-.5441 8.0249-.7209z"/><path d="m290.1373 299.4928c-1.5641-1.1024-5.127-4.0847-7.1671-2.778-.9281.5945-2.6495 2.0676-2.2779 3.2225.1584.4926 10.2121.0961 9.445-.4445z"/><path d="m304.759 344.8959c-1.2132 6.2869-1.1719 10.5364 2.4185 16.6609 4.4788-3.6278 7.2108-11.9582 8.1961-16.5266 1.8048 4.5726.4037 7.2562 3.6278 11.5552 3.4152-6.3425 4.7353-11.34 6.315-18.4076 4.2069 2.6813 4.8679 4.5482 4.5683 10.4802 2.6518-6.0111 1.6328-10.4955 1.2093-17.064.627.851 1.254 1.7019 1.8811 2.5529 0-7.2867-.5692-8.6224-4.7027-14.6455 1.881 5.8672.9405 10.6594 0 15.586-1.3884-1.5227-2.7768-3.0455-4.1653-4.5683-.4271 5.1891-.9651 12.0203-3.6277 16.5266-3.2247-1.8363-3.7622-7.8378-4.7027-12.0926-2.2 7.2524-4.1318 14.5709-8.3305 20.0199-2.0352-3.1311-1.9508-6.3946-2.6872-10.0771z"/><path d="m298.3096 328.5037c7.3698.1369 10.0219-4.0037 10.2115-11.8239-.8852 9.3782-6.438 10.6024-10.2115 11.8239z"/><path d="m321.1512 306.8714c1.0196 3.8245 1.6999 6.7745.4031 10.4802-.1035-1.2444-.2489-1.8411-.8062-2.9559-.4779 2.5492-1.5732 3.7879-3.0903 5.9119.0895-.6718.1791-1.3436.2687-2.0154-.7143 1.6849-1.7113 2.6246-2.6873 3.359.4233-.5709.3858-1.1063.2776-1.819-1.6628 1.7493-2.4325 2.0308-5.7864 3.1626 6.5098-4.6111 9.1494-8.2607 11.4208-16.1234z"/><path d="m281.6158 360.3872c-2.6515 3.9827-3.8038 11.9736.8147 15.2073-.3135-4.5065-.4317-7.5118 1.3532-9.1984-1.3212 4.7242-1.0128 16.9203 5.4358 18.4314-4.1621-3.8012-.7101-11.6336.2301-12.8806-1.5256 6.0797-.206 14.9148 6.0157 18.0402 1.0942-1.4204 3.1573-6.8538 4.0734-8.9614.8257 4.7463 3.1578 12.0455 4.345 13.3064 3.2445-5.468 5.6755-9.0646 5.9312-15.6796 1.0831.7929 2.791 8.1119 1.6032 11.8455 4.8175-4.8048 6.7182-14.2356 6.5058-18.2478 1.1523 3.5093 1.649 6.7876.3524 8.7755 4.284-1.836 4.2953-10.6166 3.2644-14.5159 2.3071.8042 1.9819 4.4728 1.9318 6.2521 4.9345-2.941 1.0247-14.5854.8053-16.4756 1.0259.2991 3.0764 1.4857 5.1094 3.8855.9332-5.1129-2.7955-8.0688-4.8651-9.0176 1.785 1.4598 3.7401 4.5337 3.871 6.3638-1.5403-1.5789-3.1155-2.6731-5.4612-3.2576.4374 4.1136 3.0061 11.4387 1.5231 15.7779.2539-3.1206-1.8015-5.0346-4.0142-5.5261.728 3.2029 1.3697 11.0886-.4039 13.517.3702-2.6498-.7461-7.2805-2.5662-9.3971-.3286 4.4586-1.6798 13.3579-4.6599 17.496.4663-3.0478-1.1123-8.6344-3.9195-11.5226-.3225 5.5293-.2202 9.0748-4.8274 14.7594-3.6385-6.4924-3.2578-13.8883-3.0727-16.8131-1.457 2.8389-2.5821 9.7557-6.2277 15.2425-4.5678-3.0867-5.3927-11.706-3.8931-19.1912-2.503 2.6074-5.9327 10.1662-3.9714 13.3331-3.9659-3.17-2.5948-15.6994-.6627-19.436-2.5983 2.1741-5.3377 4.0297-4.9686 8.7477-1.9794-1.5775-.0516-8.7134.3481-10.8607z"/><path d="m293.0389 341.1343c-3.6842 4.1689-9.7257 8.8441-7.4733 14.8507.0845-1.69.1505-2.8103 1.4105-3.9787-.4841 2.1489.1401 3.4852 2.2303 5.3201-2.7054-3.8509.7059-9.7654 3.8325-16.1921z"/><path d="m231.2844 401.1976c-12.2584-4.998-5.4567-8.2619-16.763-6.3496 11.5192 1.3952 2.5949 3.4291 16.763 6.3496z"/><path d="m228.4304 407.3405c-9.5677-2.7315-4.7528-5.7264-13.0438-3.3728 8.7206.1001 2.2192 2.3498 13.0438 3.3728z"/><path d="m273.3032 348.5254c-3.8364 3.0872-5.9142 8.6521-.8294 14.6871-5.8808-2.6478-7.7-11.8888.8294-14.6871z"/><path d="m270.1213 366.0761c-.3597 3.0254-.6185 5.6701-.5082 7.9934.4331-1.7206 1.476-3.5941 3.3154-5.5086-3.0691 5.9774-1.7173 12.39 6.6254 13.1341-2.7278 1.1826-5.5026.8226-7.4653-.5409 1.6078 1.8822 4.1434 3.4282 8.0214 4.7242-12.0707 2.9155-19.8459-5.4697-9.9887-19.8022z"/><path d="m277.5617 400.354c-13.7565 3.6306-16.0773-.6675-25.996 1.1583 2.0929.3367 3.28.9895 3.346 2.5738-5.7911-.1321-11.0911 2.9078-16.4726 1.673 4.5351 5.2895 14.2849.1287 14.2849.9009 0 1.6849-.025 2.3663-.7722 3.8608 2.6759-.9737 10.9415-7.3474 8.7137 1.5644 1.1872-.6962 2.5699-5.5508 4.5377-5.163s1.4397 3.2337.7761 4.6295c3.8946-4.5445 6.3998-8.0512 11.5824-11.1977z"/><path d="m269.2191 411.5435c.7931-.5477 1.811-.6551 2.8904.087 2.1555 1.482 1.9219 4.6962 5.1747 6.5546 6.9318 3.9603 14.8881 5.5196 22.7684 5.5196 26.0465 0 27.5426 4.2826 28.8346 22.1156.4853-2.4661.4802-6.5934.4802-7.2587 0-17.3568-17.5351-17.6167-30.3605-17.6167-.1678 0 6.8253-.5695-1.0448-5.6971-2.6603-1.7334-7.5507-.5278-2.867 2.1765-2.8987.9779-8.0495-6.2927-9.5839-3.2273-.7793 1.5568 2.2799 1.4443 3.325 1.5647-2.5254.3694-7.0069 1.1183-7.9214-2.5426-2.3899-9.5653 17.1085-1.8718 14.8649-17.0164-2.2992 8.0475-6.2762 8.2746-14.9627 9.3883-5.4482.6988-6.9973 3.185-11.5398 5.8677-.036.0213-.0542.0494-.0581.0848z"/><path d="m329.07 448.4112c.2472 3.5637.5259 7.6107.9956 12.206.4819 4.7143 6.1503 9.5139 7.541 14.146.004-.2237-.0281-.4405-.1216-.646-7.4401-16.3707-6.679-27.3782-4.8688-44.716.4941-4.7316 4.7619-4.2282 4.3563-4.3563-5.4956-1.7356-7.5303-4.5896-9.6095-9.9938 3.7381 10.798 3.6522 21.0353 1.707 33.3601z"/><path d="m333.6412 448.6201c1.8524 12.6042 18.9567 26.3679 31.6471 21.0127-8.7953 1.4649-12.0648-3.3954-11.5313-3.2032 4.2945 1.546 5.8796 1.226 10.1219-.6406-3.3171-.0729-5.9907 1.8263-9.225-2.3063 1.44.432 3.475 1.025 6.0219-.6406-4.2001-.1202-7.2819-1.3723-8.8407-5.7657-1.0789 13.4566-13.6865.1792-18.1939-8.4563z"/><path d="m363.515 475.6465c.6497 12.1184-2.6742 19.3526-7.0654 22.8495-4.1247 3.285-12.2023 3.1768-16.2269 10.6772 5.4759-6.5024 18.2948-4.2766 22.7041-13.9989 2.2501-4.9626 2.1447-12.7491.5882-19.5278z"/><path d="m345.3987 499.7622c-5.3362-.1329-7.3907-.8753-10.2344 3.9997 3.2238-3.2239 4.727-3.2584 10.2344-3.9997z"/><path d="m241.2618 322.6938c-6.2581 0-8.3653-5.3447-14.205-5.6228 6.6677-1.048 6.0171 2.3695 14.205 5.6228z"/><path d="m240.0308 316.3779c-6.1559-1.126-7.2671-6.7627-12.9614-8.0869 6.7474.1688 5.4925 3.4134 12.9614 8.0869z"/><path d="m248.0683 337.3427s1.4797 3.4033 1.6277 4.2911c1.6038 9.6244.7336 13.7554 9.0261 21.1595-8.716-11.2261-6.1881-18.9437-8.3325-22.0686z"/><path d="m317.9316 415.8714c-9.0391-2.4913-11.6138-4.7987-13.8852-13.8852-1.6297 13.8526 15.1809 14.2424 13.8852 13.8852z"/><path d="m327.5062 442.6376c-11.3386 9.1712-18.6015 10.3963-35.28 6.3618 15.5191 7.5299 24.4579 7.4749 35.28-6.3618z"/><path d="m271.9446 488.5557c-6.7587 2.3267-8.6967-4.2967-16.0815-3.9827 6.3717-2.8372 8.9427 4.9108 16.0815 3.9827z"/><path d="m276.0317 491.5754c-5.4857 4.5825-9.6569-.9155-16.445 2.0097 4.9423-4.9216 10.1057 1.4014 16.445-2.0097z"/><path d="m282.4098 486.6089c8.5978-3.6791 10.2866-11.06 16.524-9.612-6.1716.2718-6.6728 6.2804-16.524 9.612z"/><path d="m317.6391 299.3658c5.5987-5.5987 6.0519.2857 13.0008-.4286 1.137-.1168-4.6043 7.8177-13.0008.4286z"/></g><path d="m312.0806 424.1979c-.0326.3016-.0465.5885-.0326.8527.199 3.761 2.876 3.0988 5.7158 3.9447 4.5017 1.3408 5.8768 3.6365 5.8768 8.2114 0 2.9313 2.294 3.56 4.8373 3.7627-1.1256-10.9684-3.5853-15.4145-16.3973-16.7715z" fill="#ffcb00" stroke="#8a7258"/></g></svg>