<svg height="400" viewBox="0 0 600 400" width="600" xmlns="http://www.w3.org/2000/svg"><path d="m423.27019 202.6575h-7.9725v-5.315h7.9725c1.4675.001 2.6575-1.19 2.6575-2.6575 0-1.46625-1.19-2.65625-2.6575-2.65625h-7.9725l5.315-5.315h2.6575c4.33625.015 7.9725 3.57 7.9725 7.97125 0 2.0425-.76875 3.905-2.03125 5.31625 1.2625 1.41 2.03125 3.2725 2.03125 5.31375 0 4.4025-3.63625 7.9575-7.9725 7.9725h-7.9725v-5.315h7.9725c1.4675 0 2.6575-1.19 2.6575-2.6575s-1.19-2.6575-2.6575-2.6575zm-206.67825-2.6575c0-7.33625 5.95025-13.2875 13.28737-13.2875 7.33713 0 13.28738 5.95125 13.28738 13.2875 0 7.3375-5.95025 13.2875-13.28738 13.2875-7.33712 0-13.28737-5.95-13.28737-13.2875zm13.28737 18.6025c10.27213 0 18.60238-8.33 18.60238-18.6025 0-10.27125-8.33025-18.6025-18.60238-18.6025-10.272 0-18.60237 8.33125-18.60237 18.6025 0 10.2725 8.33037 18.6025 18.60237 18.6025zm-5.3135-26.575h5.3135c4.40225 0 7.9725 3.57 7.9725 7.9725s-3.6365 7.9575-7.9725 7.9725h-5.3135v-5.315h5.3135c1.46738 0 2.6575-1.19 2.6575-2.6575s-1.19012-2.6575-2.6575-2.6575h-5.3135zm45.17438-5.31375h5.31487v26.57375h-5.31487l-10.63-16.68375v16.68375h-5.31488v-26.57375h5.31488l10.63 16.68375zm-79.723 0h15.94487v5.315h-10.62999v5.31375h10.62999v5.315h-10.62999v5.315h10.62999v5.315h-15.94487zm90.3515 0h5.31525v26.57375h-5.31525zm21.26025 26.57375c5.87 0 10.63-4.76 10.63-10.63v-5.31375c0-5.87-4.76-10.63-10.63-10.63h-10.63v26.57375zm0-21.25875c2.935 0 5.315 2.38 5.315 5.315v5.31375c0 2.935-2.38 5.315-5.315 5.315h-5.315v-15.94375zm92.41 7.97125c0 7.3375-5.95 13.2875-13.2875 13.2875-7.33625 0-13.2875-5.95-13.2875-13.2875 0-7.33625 5.95125-13.2875 13.2875-13.2875 7.3375 0 13.2875 5.95125 13.2875 13.2875zm-13.2875-18.6025c-10.27125 0-18.60125 8.33125-18.60125 18.6025 0 10.2725 8.33 18.6025 18.60125 18.6025 10.2725 0 18.6025-8.33 18.6025-18.6025 0-10.27125-8.33-18.6025-18.6025-18.6025zm-211.99413 5.315h5.31501v21.26h10.62987v5.315h-15.94488zm241.22538.001v26.57375h-5.315v-21.25875zm-61.12 15.94375c-1.4675 0-2.6575 1.19-2.6575 2.6575v2.6575h10.63v5.315h-15.945c0-2.6575 0-5.315 0-7.9725.015-4.33625 3.57-7.9725 7.9725-7.9725 1.46625.001 2.6575-1.19 2.6575-2.6575 0-1.46625-1.19125-2.65625-2.6575-2.65625h-7.9725l5.315-5.315h2.6575c4.335.015 7.9725 3.57 7.9725 7.97125 0 4.4025-3.57125 7.9725-7.9725 7.9725z" fill="#800080"/><path d="m0 0h600v400h-600z" fill="#fff"/><path d="m0 0h400v400h-400z" fill="#005bbb"/><path d="m0 0h200v400h-200z" fill="#ffd500"/><g fill-rule="evenodd" stroke="#000" transform="matrix(.50189204 0 0 .50189204 185.06677 127.43389)"><g stroke-width=".5"><path d="m382.35912-49.429792h-306.718438v234.671022c0 84.68312 68.675628 153.35875 153.359688 153.35875 84.68407 0 153.35875-68.67469 153.35875-153.35875z" fill="#ffd500"/><path d="m373.82097 185.24123c.0113 79.96847-64.85212 144.8206-144.8206 144.8206-79.96847 0-144.820595-64.85213-144.820595-144.8206v-226.098854h289.608125l.0331 226.098854z" fill="#d40000"/><path d="m135.51167 13.157148h186.97741v169.401202c0 51.6239-41.86481 93.48871-93.48871 93.48871s-93.4887-41.86481-93.4887-93.48871v-169.401202z" fill="#ffd500"/><path d="m317.68655 182.55835c0 48.97127-39.71491 88.68618-88.68618 88.68618-48.97126 0-88.68617-39.71491-88.68617-88.68618v-164.598671h177.37235z" fill="#005bbb"/></g><g fill="#fff" stroke-width=".529096" transform="matrix(.94500808 0 0 .94500808 -52.557224 -221.73028)"><path d="m297.942 281.34c10.346 0 18.736 8.39 18.736 18.736 0 10.345-8.39 18.735-18.736 18.735s-18.736-8.39-18.736-18.735c0-10.346 8.39-18.736 18.736-18.736zm0 3.993c8.141 0 14.743 6.602 14.743 14.743 0 8.14-6.602 14.743-14.743 14.743s-14.743-6.603-14.743-14.743c0-8.141 6.602-14.743 14.743-14.743z"/><path d="m293.851 308.371h8.182v16.979h-8.182z"/><path d="m252.548 424.908c3.694 7.982 12.108 11.994 20.236 10.834 9.474-1.352 19.95-12.143 19.95-21.802h-.013v-.002h7.086v.002h-.014c-.001 13.138-13.201 27.571-26.518 28.387-10.259.629-20.256-4.841-25.133-13.703l-4.656 6.208c-2.604-9.421-3.266-21.615-2.053-29.827 4.106 7.23 9.338 12.976 16.061 17.51z"/><path d="m343.336 424.908c-3.694 7.982-12.108 11.994-20.237 10.834-9.473-1.352-19.949-12.143-19.95-21.802h.014v-.002h-7.086v.002h.014c0 13.138 13.201 27.571 26.518 28.387 10.259.629 20.256-4.841 25.133-13.703l4.656 6.208c2.604-9.421 3.266-21.615 2.053-29.827-4.106 7.23-9.338 12.976-16.061 17.51z"/><path d="m303.859 422.388 5.244-99.872.006-.114h-.113-6.153-9.802-6.153-.113l.006.114 5.244 99.872.001.032c.136 2.618.075 5.24-.184 7.821-.26 2.578-.72 5.12-1.383 7.576-3.402 12.608-12.163 22.968-26.746 25l-.012.002c-1.505.209-3.006.296-4.49.27-1.484-.027-2.953-.169-4.395-.417-7.376-1.269-14.053-5.336-18.561-11.219l7.016-4.434.151-.096-.155-.088c-4.008-2.31-7.635-5.077-10.913-8.326-3.279-3.249-6.209-6.981-8.822-11.22l-.155-.252-.043.292-.002.012c-.211 1.415-.362 2.959-.46 4.595-.097 1.631-.141 3.357-.137 5.137.023 9.144 1.32 19.728 3.137 26.767l.057.222.135-.186 4.926-6.802c1.095 1.349 2.273 2.622 3.523 3.809 1.279 1.216 2.635 2.345 4.055 3.378 7.303 5.311 16.347 8.118 25.737 7.421l.023-.001c2.187-.164 4.32-.525 6.385-1.064 2.064-.538 4.061-1.254 5.976-2.127 9.754-4.449 17.403-12.989 21.253-23.006.724 1.884 1.583 3.718 2.565 5.481 1.024 1.838 2.183 3.601 3.462 5.268 6.578 8.57 16.36 14.614 27.61 15.449l.023.002c1.826.134 3.64.136 5.43.013s3.557-.372 5.29-.739c8.862-1.874 16.844-6.832 22.573-13.884l4.925 6.802.135.186.057-.222.003-.011c.354-1.373.688-2.878.996-4.477.308-1.602.591-3.3.843-5.059 1.297-9.043 1.781-19.693.696-26.964l-.043-.292-.155.252c-2.613 4.239-5.543 7.971-8.822 11.22-3.278 3.249-6.905 6.016-10.913 8.326l-.155.088.151.096 7.016 4.434c-.859 1.122-1.798 2.179-2.806 3.163-1.032 1.007-2.138 1.938-3.305 2.786-5.996 4.356-13.61 6.493-21.347 5.415h-.001l-.035-.005c-2.836-.398-5.452-1.111-7.849-2.094-2.397-.982-4.578-2.236-6.545-3.714-10.116-7.603-14.587-21.17-13.882-34.616z"/></g><g fill="#ffd500" stroke-width=".529096" transform="matrix(.94500808 0 0 .94500808 -52.557224 -221.73028)"><path d="m160.619 377.955c2.353 2.269 5.633 3.636 9.038 3.969v-28.248l-12.352-1.315v-3.402h11.152c-.332-.204-.646-.45-.935-.738-2.007-2.009-2.002-5.265.006-7.271 2.009-2.008 5.264-2.001 7.271.006 1.91 1.911 1.998 4.962.267 6.98-.354.412-.762.753-1.205 1.023h11.156v3.402l-12.353 1.315v28.272c3.308-.275 6.509-1.56 8.873-3.971l-.208-.064-1.941-.598c3.129-1.484 5.328-4.106 7.23-8.007 1.132 4.204.644 8.643-2.024 11.787l-1.068-1.694c-6.866 8.569-18.547 7.571-24.936-.051l-1.1 1.745c-2.668-3.144-3.157-7.583-2.024-11.787 1.902 3.901 4.101 6.523 7.23 8.007l-1.706.525zm8.504-35.402c-1.123 1.123-1.118 2.952.003 4.073 1.21 1.211 3.215 1.066 4.266-.222.922-1.131.858-2.799-.197-3.853-1.122-1.124-2.951-1.118-4.072.002z"/><path d="m160.619 246.874c2.353 2.269 5.633 3.636 9.038 3.969v-28.249l-12.352-1.315v-3.401h11.152c-.332-.204-.646-.45-.935-.739-2.007-2.008-2.002-5.265.006-7.27 2.009-2.008 5.264-2.002 7.271.005 1.91 1.911 1.998 4.963.267 6.981-.354.412-.762.753-1.205 1.023h11.156v3.401l-12.353 1.315v28.273c3.308-.275 6.509-1.56 8.873-3.971l-.208-.064-1.941-.599c3.129-1.483 5.328-4.105 7.23-8.006 1.132 4.203.644 8.643-2.024 11.787l-1.068-1.694c-6.866 8.569-18.547 7.57-24.936-.051l-1.1 1.745c-2.668-3.144-3.157-7.584-2.024-11.787 1.902 3.901 4.101 6.523 7.23 8.006l-1.706.526zm8.504-35.402c-1.123 1.122-1.118 2.951.003 4.072 1.21 1.211 3.215 1.066 4.266-.221.922-1.131.858-2.799-.197-3.854-1.122-1.123-2.951-1.118-4.072.003z"/><path d="m178.923 501.36c2.353 2.27 5.633 3.636 9.038 3.969v-28.248l-12.352-1.315v-3.401h11.152c-.332-.205-.646-.45-.934-.739-2.008-2.008-2.002-5.265.005-7.271 2.009-2.008 5.264-2.001 7.271.006 1.91 1.911 1.999 4.963.267 6.981-.354.411-.762.753-1.205 1.023h11.156v3.401l-12.353 1.315v28.273c3.308-.275 6.51-1.56 8.873-3.971l-.208-.065-1.941-.598c3.129-1.484 5.328-4.106 7.23-8.006 1.133 4.203.644 8.642-2.024 11.787l-1.068-1.694c-6.866 8.568-18.547 7.57-24.935-.051l-1.101 1.745c-2.668-3.145-3.156-7.584-2.024-11.787 1.902 3.9 4.101 6.522 7.23 8.006l-1.706.526zm8.504-35.401c-1.123 1.122-1.118 2.951.003 4.072 1.21 1.211 3.216 1.066 4.266-.221.922-1.131.858-2.8-.196-3.854-1.123-1.123-2.952-1.118-4.073.003z"/><path d="m414.419 377.955c2.353 2.269 5.633 3.636 9.038 3.969v-28.248l-12.352-1.315v-3.402h11.152c-.332-.204-.646-.45-.935-.738-2.007-2.009-2.002-5.265.006-7.271 2.009-2.008 5.264-2.001 7.271.006 1.91 1.911 1.998 4.962.267 6.98-.354.412-.762.753-1.205 1.023h11.156v3.402l-12.353 1.315v28.272c3.308-.275 6.509-1.56 8.873-3.971l-.208-.064-1.941-.598c3.129-1.484 5.328-4.106 7.23-8.007 1.132 4.204.644 8.643-2.024 11.787l-1.068-1.694c-6.866 8.569-18.547 7.571-24.935-.051l-1.101 1.745c-2.668-3.144-3.157-7.583-2.024-11.787 1.902 3.901 4.101 6.523 7.23 8.007l-1.706.525zm8.504-35.402c-1.123 1.123-1.118 2.952.003 4.073 1.21 1.211 3.215 1.066 4.266-.222.922-1.131.858-2.799-.197-3.853-1.122-1.124-2.951-1.118-4.072.002z"/><path d="m414.419 246.874c2.353 2.269 5.633 3.636 9.038 3.969v-28.249l-12.352-1.315v-3.401h11.152c-.332-.204-.646-.45-.935-.739-2.007-2.008-2.002-5.265.006-7.27 2.009-2.008 5.264-2.002 7.271.005 1.91 1.911 1.998 4.963.267 6.981-.354.412-.762.753-1.205 1.023h11.156v3.401l-12.353 1.315v28.273c3.308-.275 6.509-1.56 8.873-3.971l-.208-.064-1.941-.599c3.129-1.483 5.328-4.105 7.23-8.006 1.132 4.203.644 8.643-2.024 11.787l-1.068-1.694c-6.866 8.569-18.547 7.57-24.935-.051l-1.101 1.745c-2.668-3.144-3.157-7.584-2.024-11.787 1.902 3.901 4.101 6.523 7.23 8.006l-1.706.526zm8.504-35.402c-1.123 1.122-1.118 2.951.003 4.072 1.21 1.211 3.215 1.066 4.266-.221.922-1.131.858-2.799-.197-3.854-1.122-1.123-2.951-1.118-4.072.003z"/><path d="m396.115 501.36c2.353 2.27 5.633 3.636 9.038 3.969v-28.248l-12.352-1.315v-3.401h11.152c-.332-.205-.646-.45-.935-.739-2.007-2.008-2.002-5.265.006-7.271 2.009-2.008 5.264-2.001 7.271.006 1.91 1.911 1.998 4.963.267 6.981-.354.411-.762.753-1.205 1.023h11.156v3.401l-12.353 1.315v28.273c3.308-.275 6.509-1.56 8.873-3.971l-.209-.065-1.94-.598c3.128-1.484 5.328-4.106 7.23-8.006 1.132 4.203.644 8.642-2.024 11.787l-1.068-1.694c-6.866 8.568-18.548 7.57-24.936-.051l-1.1 1.745c-2.668-3.145-3.157-7.584-2.025-11.787 1.903 3.9 4.102 6.522 7.231 8.006l-1.706.526zm8.504-35.401c-1.123 1.122-1.118 2.951.003 4.072 1.209 1.211 3.215 1.066 4.265-.221.923-1.131.858-2.8-.196-3.854-1.122-1.123-2.951-1.118-4.072.003z"/></g><g fill="#ffd500" stroke-width=".5" transform="translate(0 -50)"><path d="m231.50559 365.8215c1.90419 0 3.44928 1.88907 3.44928 4.21663 0 2.32755-1.54509 4.21662-3.44928 4.21662-1.90325 0-3.44833-1.88907-3.44833-4.21662 0-2.32756 1.54508-4.21663 3.44833-4.21663z"/><path d="m240.97552 342.18874c1.78795-.65111 3.91233.66717 4.7411 2.94275.82783 2.27558.0482 4.65133-1.7407 5.30244-1.7889.65112-3.91328-.66812-4.74111-2.9437-.82783-2.27463-.0482-4.65038 1.74071-5.30149z"/><path d="m234.02215 361.76836c1.7889-.65111 3.91233.66718 4.7411 2.94276.82783 2.27558.0482 4.65038-1.7407 5.30149s-3.91234-.66717-4.74111-2.94275c-.82783-2.27558-.0482-4.65039 1.74071-5.3015z"/><path d="m236.63793 354.94824c1.7889-.65111 3.91328.66812 4.7411 2.94275.82878 2.27558.0491 4.65133-1.73976 5.30244-1.7889.65111-3.91327-.66717-4.7411-2.94275-.82877-2.27558-.0482-4.65133 1.73976-5.30244z"/><path d="m236.75322 348.64976c1.78795-.65111 3.91233.66812 4.74111 2.94275.82782 2.27558.0482 4.65133-1.74071 5.30244-1.7889.65112-3.91233-.66812-4.74111-2.94275-.82782-2.27558-.0482-4.65133 1.74071-5.30244z"/><path d="m222.03661 342.58753c-1.7889-.65111-3.91328.66718-4.74111 2.94276-.82877 2.27558-.0491 4.65038 1.73976 5.30149 1.7889.65111 3.91328-.66717 4.74111-2.94275.82877-2.27558.0491-4.65039-1.73976-5.3015z"/><path d="m228.98998 362.16621c-1.7889-.65111-3.91328.66812-4.74111 2.94276-.82877 2.27557-.0491 4.65132 1.73976 5.30244 1.7889.65111 3.91328-.66718 4.74111-2.94276.82877-2.27558.0482-4.65133-1.73976-5.30244z"/><path d="m226.37325 355.34703c-1.7889-.65111-3.91328.66718-4.7411 2.94276-.82783 2.27558-.0482 4.65038 1.7407 5.30149 1.78796.65111 3.91233-.66717 4.74111-2.94275.82782-2.27558.0482-4.65039-1.74071-5.3015z"/><path d="m226.2589 349.04855c-1.7889-.65111-3.91327.66718-4.7411 2.94276-.82877 2.27558-.0491 4.65038 1.73976 5.30149 1.7889.65111 3.91328-.66717 4.7411-2.94275.82878-2.27558.0491-4.65039-1.73976-5.3015z"/><path d="m228.59118 342.98538c-1.7889-.65111-3.91327.66718-4.7411 2.94276s-.0482 4.65133 1.73976 5.30244c1.7889.65111 3.91328-.66812 4.7411-2.9437.82878-2.27464.0491-4.65039-1.73976-5.3015z"/><path d="m234.42094 342.58753c1.78796-.65111 3.91233.66718 4.74016 2.94276.82877 2.27558.0491 4.65038-1.73976 5.30149-1.7889.65111-3.91328-.66717-4.74111-2.94275-.82782-2.27558-.0482-4.65039 1.74071-5.3015z"/><path d="m231.50559 356.64075c1.90419 0 3.44928 1.96561 3.44928 4.38673 0 2.42111-1.54509 4.38672-3.44928 4.38672-1.90325 0-3.44833-1.96561-3.44833-4.38672 0-2.42112 1.54508-4.38673 3.44833-4.38673z"/><path d="m231.50559 348.50895c1.90419 0 3.44928 1.96562 3.44928 4.38673s-1.54509 4.38673-3.44928 4.38673c-1.90325 0-3.44833-1.96562-3.44833-4.38673s1.54508-4.38673 3.44833-4.38673z"/><path d="m235.13348 331.06316c-2.10454-1.01494-3.69026-1.07542-4.87814-.47251-1.97979 1.00549-2.04877 4.79403-3.18751 7.19341 1.04235.18427 2.23022-.12852 3.09585-.77302 2.74525-2.04122 2.35307-.31563 1.41562 2.09981-.69836 1.80024-.002 3.83862-1.01588 6.33533 6.24556.15971 8.72998-2.86904 8.19889-7.12441-.3506-2.81235 1.49594-2.54491 1.45436-.26933-.0756 4.06637 2.26141 6.58387 5.80424 7.25861 3.21398.61331 5.55571 1.18693 7.3928 3.09206 1.47894-5.95922.8231-10.83735-3.89816-12.76989-1.96561-.8042-1.66983-1.33719.40352-1.47894 1.87773-.12758 3.62978.4914 5.51129 1.21056-1.12078-4.12307-4.4198-6.49882-9.81296-5.91481-5.82787.63221-5.60201.10301-.94029-2.41922-.50274-1.64526-12.16036-1.77662-9.54363 4.03235z"/><path d="m228.28595 331.06316c2.10359-1.01494 3.68931-1.07542 4.87718-.47251 1.9798 1.00549 2.04878 4.79403 3.18752 7.19341-1.0414.18427-2.23022-.12852-3.09585-.77302-2.7443-2.04122-2.35307-.31563-1.41562 2.09981.69836 1.80024.002 3.83862 1.01683 6.33533-6.24651.15971-8.73093-2.86904-8.19984-7.12441.35154-2.81235-1.49595-2.54491-1.45437-.26933.0756 4.06637-2.2614 6.58387-5.80424 7.25861-3.21397.61331-5.5557 1.18693-7.39279 3.09206-1.478-5.95922-.82311-10.83735 3.89815-12.76989 1.96562-.8042 1.66983-1.33719-.40351-1.47894-1.87679-.12758-3.62884.4914-5.51129 1.21056 1.12078-4.12307 4.42075-6.49882 9.81296-5.91481 5.82787.63221 5.60201.10301.94029-2.41922.50368-1.64526 12.16036-1.77662 9.54458 4.03235z"/></g><g fill="#ffd500" stroke-width=".529096" transform="matrix(.94500808 0 0 .94500808 -52.557224 -221.73028)"><g><path d="m298.372 195.608v18.393h-.86v-18.393zm4.754 2.869-.408 11.732-.861-.016.409-11.731zm-2.377-1.436-.204 15.062-.86-.005.204-15.062zm-7.131 1.421.409 11.731-.861.016-.408-11.732zm2.377-1.426.204 15.062-.86.005-.204-15.062z"/><g><path d="m302.654 209.288c-1.814 1.285-5.098 2.625-4.675 5.143.241 1.441 2.526 1.4 4.039-1.109.754-1.25.843-2.755.636-4.034z"/><path d="m302.654 213.345c-1.814 1.285-5.098 2.625-4.675 5.143.242 1.442 2.526 1.4 4.039-1.108.754-1.251.843-2.756.636-4.035z"/><path d="m302.654 217.403c-1.814 1.284-5.098 2.625-4.675 5.143.242 1.441 2.526 1.4 4.039-1.109.754-1.251.843-2.756.636-4.034z"/><path d="m302.654 221.46c-1.814 1.285-5.098 2.625-4.675 5.143.242 1.441 2.526 1.4 4.039-1.109.754-1.25.843-2.755.636-4.034z"/><path d="m302.654 225.517c-1.814 1.285-5.098 2.625-4.675 5.143.242 1.442 2.526 1.4 4.039-1.108.754-1.251.843-2.756.636-4.035z"/><path d="m302.654 229.574c-1.814 1.285-5.098 2.625-4.675 5.143.242 1.442 2.526 1.4 4.039-1.108.754-1.251.843-2.756.636-4.035z"/><path d="m302.654 233.632c-1.814 1.285-5.098 2.625-4.675 5.143.241 1.441 2.526 1.4 4.039-1.109.754-1.251.843-2.756.636-4.034z"/><path d="m302.654 237.689c-1.814 1.285-5.098 2.625-4.675 5.143.241 1.441 2.526 1.4 4.039-1.108.754-1.251.843-2.756.636-4.035z"/></g><g><path d="m293.23 209.288c1.814 1.285 5.098 2.625 4.675 5.143-.241 1.441-2.526 1.4-4.039-1.109-.754-1.25-.843-2.755-.636-4.034z"/><path d="m293.23 213.345c1.814 1.285 5.098 2.625 4.675 5.143-.242 1.442-2.526 1.4-4.039-1.108-.755-1.251-.843-2.756-.636-4.035z"/><path d="m293.23 217.403c1.814 1.284 5.098 2.625 4.675 5.143-.242 1.441-2.526 1.4-4.039-1.109-.755-1.251-.843-2.756-.636-4.034z"/><path d="m293.23 221.46c1.814 1.285 5.098 2.625 4.675 5.143-.242 1.441-2.526 1.4-4.039-1.109-.755-1.25-.843-2.755-.636-4.034z"/><path d="m293.23 225.517c1.814 1.285 5.098 2.625 4.675 5.143-.242 1.442-2.526 1.4-4.039-1.108-.755-1.251-.843-2.756-.636-4.035z"/><path d="m293.23 229.574c1.814 1.285 5.098 2.625 4.675 5.143-.242 1.442-2.526 1.4-4.039-1.108-.755-1.251-.843-2.756-.636-4.035z"/><path d="m293.23 233.632c1.814 1.285 5.098 2.625 4.675 5.143-.241 1.441-2.526 1.4-4.039-1.109-.754-1.251-.843-2.756-.636-4.034z"/><path d="m293.23 237.689c1.814 1.285 5.098 2.625 4.675 5.143-.241 1.441-2.526 1.4-4.039-1.108-.754-1.251-.843-2.756-.636-4.035z"/></g></g><g><path d="m280.754 206.209 1.445 15.462-.851.063-1.446-15.462zm4.928 2.062.518 9.893-.852.05-.518-9.892zm-2.464-1.032.981 12.678-.851.058-.982-12.678zm-6.944 1.717 1.327 9.833-.85.076-1.327-9.833zm2.24-1.373 1.386 12.648-.851.067-1.386-12.647z"/><path d="m276.703 217.516c1.932 1.1 5.332 2.11 5.159 4.657-.098 1.458-2.376 1.642-4.129-.705-.873-1.17-1.11-2.659-1.03-3.952z"/><path d="m276.926 222.187c2.058.839 5.561 1.398 5.722 3.946.092 1.458-2.142 1.937-4.185-.162-1.019-1.046-1.448-2.491-1.537-3.784z"/><path d="m277.831 226.796c2.132.63 5.673.838 6.086 3.357.237 1.442-1.938 2.141-4.18.256-1.118-.94-1.689-2.335-1.906-3.613z"/><path d="m278.874 231.385c2.198.332 5.733.052 6.488 2.491.433 1.396-1.626 2.387-4.106.827-1.236-.778-1.992-2.083-2.382-3.318z"/><path d="m280.413 235.392c2.218.142 5.716-.441 6.678 1.924.551 1.354-1.416 2.518-4.02 1.176-1.299-.669-2.164-1.903-2.658-3.1z"/><path d="m282.251 239.313c2.223.001 5.678-.802 6.787 1.498.635 1.316-1.254 2.602-3.937 1.428-1.339-.586-2.28-1.763-2.85-2.926z"/><path d="m285.803 216.294c-1.56 1.584-4.558 3.479-3.7 5.884.49 1.377 2.733.935 3.782-1.8.523-1.364.346-2.861-.082-4.084z"/><path d="m286.727 220.492c-1.628 1.513-4.707 3.274-3.956 5.714.43 1.397 2.69 1.055 3.858-1.631.583-1.34.472-2.843.098-4.083z"/><path d="m287.936 224.36c-1.628 1.513-4.707 3.275-3.956 5.715.43 1.397 2.69 1.055 3.858-1.632.583-1.339.472-2.843.098-4.083z"/><path d="m288.964 227.767c-1.508 1.633-4.442 3.625-3.507 6.001.536 1.36 2.762.845 3.722-1.922.478-1.38.253-2.871-.215-4.079z"/><path d="m290.251 231.195c-1.387 1.738-4.171 3.935-3.067 6.237.632 1.318 2.815.646 3.574-2.184.378-1.411.046-2.881-.507-4.053z"/><path d="m291.715 234.553c-1.231 1.851-3.815 4.281-2.516 6.479.743 1.258 2.861.399 3.372-2.485.255-1.438-.203-2.875-.856-3.994z"/></g><g><path d="m315.131 206.209-1.445 15.463.851.063 1.445-15.463zm-4.929 2.063-.517 9.893.852.05.517-9.893zm2.465-1.033-.982 12.678.852.059.981-12.678zm6.943 1.717-1.326 9.833.85.076 1.326-9.833zm-2.239-1.373-1.386 12.648.85.068 1.386-12.648z"/><path d="m319.181 217.516c-1.931 1.1-5.331 2.11-5.159 4.657.099 1.459 2.376 1.643 4.129-.705.874-1.17 1.111-2.659 1.03-3.952z"/><path d="m318.958 222.187c-2.058.839-5.561 1.398-5.722 3.946-.092 1.459 2.142 1.938 4.186-.161 1.019-1.047 1.447-2.492 1.536-3.785z"/><path d="m318.053 226.797c-2.131.63-5.672.837-6.086 3.356-.237 1.442 1.939 2.142 4.181.256 1.118-.94 1.688-2.335 1.905-3.612z"/><path d="m317.01 231.385c-2.197.332-5.733.052-6.488 2.491-.432 1.396 1.627 2.387 4.106.827 1.237-.778 1.993-2.082 2.382-3.318z"/><path d="m315.472 235.392c-2.218.142-5.717-.441-6.678 1.925-.551 1.353 1.415 2.517 4.02 1.176 1.298-.669 2.163-1.904 2.658-3.101z"/><path d="m313.633 239.313c-2.222.001-5.677-.802-6.787 1.498-.635 1.316 1.254 2.602 3.938 1.428 1.338-.585 2.28-1.762 2.849-2.926z"/><path d="m310.082 216.295c1.56 1.583 4.558 3.478 3.7 5.883-.491 1.377-2.733.935-3.782-1.8-.523-1.364-.347-2.861.082-4.083z"/><path d="m309.157 220.492c1.628 1.513 4.707 3.274 3.956 5.715-.43 1.397-2.689 1.054-3.858-1.632-.582-1.339-.472-2.843-.098-4.083z"/><path d="m307.948 224.361c1.629 1.512 4.707 3.274 3.956 5.714-.43 1.397-2.689 1.055-3.858-1.631-.582-1.34-.472-2.843-.098-4.083z"/><path d="m306.921 227.767c1.507 1.633 4.442 3.626 3.506 6.001-.535 1.36-2.762.846-3.721-1.922-.479-1.38-.254-2.871.215-4.079z"/><path d="m305.634 231.196c1.386 1.737 4.17 3.934 3.067 6.237-.632 1.318-2.816.645-3.574-2.185-.378-1.41-.047-2.881.507-4.052z"/><path d="m304.169 234.554c1.231 1.85 3.815 4.28 2.517 6.478-.744 1.259-2.861.4-3.372-2.485-.255-1.438.202-2.874.855-3.993z"/></g></g></g></svg>