<svg height="400" viewBox="0 0 600 400" width="600" xmlns="http://www.w3.org/2000/svg" xmlns:xlink="http://www.w3.org/1999/xlink"><symbol id="a" viewBox="-1.625 -1.625 3.25 3.25"><path d="m1.625 0c0-.897-.728-1.625-1.625-1.625s-1.625.728-1.625 1.625.728 1.625 1.625 1.625 1.625-.728 1.625-1.625z" fill="#404040"/></symbol><symbol id="b" fill="#fff" stroke="#404040" stroke-linejoin="round" viewBox="-5.213 -12.238 11.086 24.477"><path d="m.699-4.193c-1.693 2.446-4.117 4.076-5.412 4.008 1.303.039 2.966 1.838 3.558 4.378 1.26-1.009 2.87-2.454 4.307-4.054-.711-1.688-1.658-3.24-2.453-4.332z" fill="#fff" stroke="#404040" stroke-linejoin="round"/><path d="m2.842-11.738c.716 1.941-.403 5.135-2.143 7.545.795 1.093 1.742 2.645 2.452 4.332 1.956-4.199 2.309-7.698-.309-11.877z" fill="#fff" stroke="#404040" stroke-linejoin="round"/><path d="m-2.987 11.738c4.221-2.213 6.139-5.775 6.139-11.6-1.437 1.6-3.047 3.045-4.307 4.054.65 2.505-.287 5.699-1.832 7.546z" fill="#fff" stroke="#404040" stroke-linejoin="round"/><path d="m2.515 3.699c-.58-.107-.754-1.791-.39-3.762s1.129-3.482 1.708-3.375c1.158.214 1.802 1.985 1.439 3.955-.365 1.973-1.599 3.396-2.757 3.182z" fill="#fff" stroke="#404040" stroke-linejoin="round"/></symbol><symbol id="c" viewBox="-8.944 -5.785 17.889 11.569"><path d="m-8.165 4.965c.856-2.747 3.204-5.641 6.593-7.724 3.389-2.082 7.03-2.868 9.869-2.391-.856 2.749-3.203 5.642-6.593 7.725-3.388 2.082-6.101 1.003-9.869 2.39z" fill="#fff215" stroke="#404040"/></symbol><path d="m0 0h600v400h-600z" fill="#32b3ea"/><g transform="matrix(.78132399 0 0 .78132399 216.46865 97.424288)"><g><path d="m106.9 267.97c-4.34-14.2-13.742-24.84-22.99-24.84h-57c-14.35 0-25.59-11.641-25.59-26.5v-215.54h211.18v215.54c0 14.859-11.24 26.5-25.59 26.5h-57c-9.086 0-18.492 10.654-23.005 24.872v-.034z" fill="#fff215"/><path d="m8.32 8.088v208.54c0 11.117 7.992 19.5 18.59 19.5h57c12.353 0 19.046 8.026 23.043 16.638 4.069-8.608 10.785-16.638 22.957-16.638h57c10.598 0 18.59-8.383 18.59-19.5v-208.54z" fill="#32b3ea"/></g><g><g stroke="#404040"><path d="m120.42 54.414-4.585-8.497h-7.25l-3.509 8.556c-12.928 2.925-22.58 14.47-22.58 28.277v10.75h60.75v-10.75c0-13.898-9.779-25.507-22.831-28.336z" fill="#fff215"/><path d="m144.75 100.15c0 1.104-.896 2-2 2h-59.5c-1.104 0-2-.896-2-2v-4.375c0-1.104.896-2 2-2h59.5c1.104 0 2 .896 2 2z" fill="#fff"/><path d="m115.53 87.011c1.297-.876 2.149-2.36 2.149-4.042 0-2.106-1.343-3.883-3.213-4.565 1.131-1.145 2.479-2.279 2.802-2.279-.55 0-4.464-3.938-4.464-4.464 0 .589-3.867 4.464-4.464 4.464.332 0 1.678 1.134 2.806 2.277-1.872.681-3.217 2.459-3.217 4.566 0 1.687.857 3.173 2.16 4.048-4.665 1.213-8.113 5.439-8.113 10.483l-.031 4.563h21.688l.031-4.563c0-5.05-3.459-9.283-8.134-10.488z" fill="#fff" stroke-linecap="round" stroke-linejoin="round"/></g><use height="3.25" transform="matrix(1 0 0 -1 84.75 97.9644)" width="3.25" x="-1.625" xlink:href="#a" y="-1.625"/><use height="3.25" transform="matrix(1 0 0 -1 91.625 97.9644)" width="3.25" x="-1.625" xlink:href="#a" y="-1.625"/><use height="3.25" transform="matrix(1 0 0 -1 98.5 97.9644)" width="3.25" x="-1.625" xlink:href="#a" y="-1.625"/><use height="3.25" transform="matrix(1 0 0 -1 127.25 97.9644)" width="3.25" x="-1.625" xlink:href="#a" y="-1.625"/><use height="3.25" transform="matrix(1 0 0 -1 134.2295 97.9644)" width="3.25" x="-1.625" xlink:href="#a" y="-1.625"/><use height="3.25" transform="matrix(1 0 0 -1 141.209 97.9644)" width="3.25" x="-1.625" xlink:href="#a" y="-1.625"/><use height="3.25" transform="matrix(1 0 0 -1 112.875 76)" width="3.25" x="-1.625" xlink:href="#a" y="-1.625"/><use height="3.25" transform="matrix(1.4651 0 0 -1.4651 108.4941 96.7441)" width="3.25" x="-1.625" xlink:href="#a" y="-1.625"/><use height="3.25" transform="matrix(1.4651 0 0 -1.4651 117.1191 96.7441)" width="3.25" x="-1.625" xlink:href="#a" y="-1.625"/><use height="24.476999" transform="matrix(1 0 0 -1 140.4277 77.0737)" width="11.086" x="-5.213" xlink:href="#b" y="-12.238"/><use height="24.476999" transform="matrix(-1 0 0 -1 85.5005 77.0742)" width="11.086" x="-5.213" xlink:href="#b" y="-12.238"/><path d="m112.58 27.833c0 2.917-6 26.5-12.583 27.75 0 0 6.499.416 8.333-2.167.386-1.635-.583-1.448-.583-3.583 1.656 0 2.917.417 2.917.417s.552.938.146 1.406-1.344 1.531-1.344 2.313 3.114 3.125 3.114 4.75c0-1.625 3.114-3.969 3.114-4.75s-.938-1.844-1.344-2.313.146-1.406.146-1.406 1.261-.417 2.917-.417c0 2.135-.969 1.948-.583 3.583 1.834 2.583 8.333 2.167 8.333 2.167-6.583-1.25-12.583-24.833-12.583-27.75z" fill="#fff" stroke="#404040"/><path d="m112.58 27.833c0 1.024-.741 4.597-1.985 8.854h3.971c-1.245-4.256-1.986-7.83-1.986-8.854z" fill="#fff215" stroke="#404040"/><circle cx="112.69" cy="26.938" fill="#fcfcfc" r="1.5" stroke="#404040"/></g><path d="m162.78 171.82c-.006.073-.022.144-.022.219 0 1.795 1.455 3.25 3.25 3.25s3.25-1.455 3.25-3.25c0-.194-.024-.383-.057-.568.02 0 .037.006.057.006 1.795 0 3.25-1.455 3.25-3.25s-1.455-3.25-3.25-3.25c-.013 0-.025.004-.038.004.015-.126.038-.249.038-.379 0-1.795-1.455-3.25-3.25-3.25s-3.25 1.455-3.25 3.25c0 .075.017.146.022.219h-25.257v-25.257c.073.006.144.022.219.022 1.795 0 3.25-1.455 3.25-3.25s-1.455-3.25-3.25-3.25c-.194 0-.383.024-.568.057 0-.02.006-.037.006-.057 0-1.795-1.455-3.25-3.25-3.25s-3.25 1.455-3.25 3.25c0 .013.004.025.004.038-.126-.015-.249-.038-.379-.038-1.795 0-3.25 1.455-3.25 3.25s1.455 3.25 3.25 3.25c.075 0 .146-.017.219-.022v25.257h-25.257c.006-.073.022-.144.022-.219 0-1.795-1.455-3.25-3.25-3.25s-3.25 1.455-3.25 3.25c0 .194.024.383.057.568-.02 0-.037-.006-.057-.006-1.795 0-3.25 1.455-3.25 3.25s1.455 3.25 3.25 3.25c.013 0 .025-.004.038-.004-.015.126-.038.249-.038.379 0 1.795 1.455 3.25 3.25 3.25s3.25-1.455 3.25-3.25c0-.075-.017-.146-.022-.219h25.257v24.257c-.073-.006-.144-.022-.219-.022-1.795 0-3.25 1.455-3.25 3.25s1.455 3.25 3.25 3.25c.194 0 .383-.024.568-.057 0 .02-.006.037-.006.057 0 1.795 1.455 3.25 3.25 3.25s3.25-1.455 3.25-3.25c0-.013-.004-.025-.004-.038.126.015.249.038.379.038 1.795 0 3.25-1.455 3.25-3.25s-1.455-3.25-3.25-3.25c-.075 0-.146.017-.219.022v-24.257z" fill="#fff215" stroke="#404040"/><g><path d="m70.15 198.75c10.1 19.25 33.35 20.125 42.475 20.125-.25-1.625 0-3 1.125-3.625-31.25-.125-43.6-16.5-43.6-16.5z" fill="#fff215" stroke="#404040" stroke-linejoin="round"/><path d="m87.917 119.75 22.333-6.67-20.25 7.84 25.58-6.17-26.163 7.92 30.083-4.75-27.875 5.91 27.455-3.75-25.83 4.5 23.87-1.5-25.495 2.25-10.708 2.25z" fill="#fff215" stroke="#404040"/><use height="11.569" transform="matrix(-.5952 -.4493 .4447 -.6991 89.7363 126.0762)" width="17.889" x="-8.944" xlink:href="#c" y="-5.785"/><use height="11.569" transform="matrix(-.6105 -.4284 .4202 -.7141 83.4697 129.5986)" width="17.889" x="-8.944" xlink:href="#c" y="-5.785"/><use height="11.569" transform="matrix(-.6796 -.3073 .2799 -.7798 77.7983 133.4097)" width="17.889" x="-8.944" xlink:href="#c" y="-5.785"/><use height="11.569" transform="matrix(-.8868 -.1443 .1443 -.8868 74.2764 137.2998)" width="17.889" x="-8.944" xlink:href="#c" y="-5.785"/><use height="11.569" transform="matrix(-.8979 .0298 -.0298 -.8979 69.166 143.8848)" width="17.889" x="-8.944" xlink:href="#c" y="-5.785"/><use height="11.569" transform="matrix(-.8802 .1798 -.1798 -.8802 66.21 149.9248)" width="17.889" x="-8.944" xlink:href="#c" y="-5.785"/><use height="11.569" transform="matrix(-.8293 .3456 -.3456 -.8293 63.8818 157.042)" width="17.889" x="-8.944" xlink:href="#c" y="-5.785"/><use height="11.569" transform="matrix(-.7515 .4924 -.4924 -.7515 63.3994 165.25)" width="17.889" x="-8.944" xlink:href="#c" y="-5.785"/><use height="11.569" transform="matrix(-.7339 .6792 -.6792 -.7339 64.3716 172.5596)" width="17.889" x="-8.944" xlink:href="#c" y="-5.785"/><use height="11.569" transform="matrix(-.6786 .7345 -.7345 -.6786 66.7295 180.0059)" width="17.889" x="-8.944" xlink:href="#c" y="-5.785"/><use height="11.569" transform="matrix(-.5949 .8038 -.8038 -.5949 69.4053 186.832)" width="17.889" x="-8.944" xlink:href="#c" y="-5.785"/><use height="11.569" transform="matrix(-.5347 .845 -.845 -.5347 72.689 194.1914)" width="17.889" x="-8.944" xlink:href="#c" y="-5.785"/><use height="11.569" transform="matrix(-.0528 .6069 .7324 .0271 88.3823 120.4639)" width="17.889" x="-8.944" xlink:href="#c" y="-5.785"/><use height="11.569" transform="matrix(-.0228 .7836 .8333 .0215 80.9033 123.8076)" width="17.889" x="-8.944" xlink:href="#c" y="-5.785"/><use height="11.569" transform="matrix(.1668 .8165 .8179 -.1667 74.7236 127.0215)" width="17.889" x="-8.944" xlink:href="#c" y="-5.785"/><use height="11.569" transform="matrix(.2286 .8433 .8074 -.2388 68.9619 131.3618)" width="17.889" x="-8.944" xlink:href="#c" y="-5.785"/><use height="11.569" transform="matrix(.458 .8316 .9825 -.4043 63.6592 138.2012)" width="17.889" x="-8.944" xlink:href="#c" y="-5.785"/><use height="11.569" transform="matrix(.6127 .72 .7903 -.5582 58.8374 145.9512)" width="17.889" x="-8.944" xlink:href="#c" y="-5.785"/><use height="11.569" transform="matrix(.7664 .6424 .6424 -.7664 56.3428 154.001)" width="17.889" x="-8.944" xlink:href="#c" y="-5.785"/><use height="11.569" transform="matrix(.8589 .5122 .5122 -.8589 55.1582 163.791)" width="17.889" x="-8.944" xlink:href="#c" y="-5.785"/><use height="11.569" transform="matrix(.9327 .3607 .3607 -.9327 56.124 172.9883)" width="17.889" x="-8.944" xlink:href="#c" y="-5.785"/><use height="11.569" transform="matrix(.9829 .1839 .1839 -.9829 57.5337 181.8271)" width="17.889" x="-8.944" xlink:href="#c" y="-5.785"/><use height="11.569" transform="matrix(.9914 .1311 .1311 -.9914 61.2739 190.5508)" width="17.889" x="-8.944" xlink:href="#c" y="-5.785"/><use height="11.569" transform="matrix(1 0 0 -1 65.5835 199.083)" width="17.889" x="-8.944" xlink:href="#c" y="-5.785"/></g></g></svg>