<svg height="800" width="1200" xmlns="http://www.w3.org/2000/svg"><path d="m0 0h1200v800h-1200z" fill="#005bbb"/><path d="m0 400h1200v400h-1200z" fill="#ffd500"/><g transform="matrix(2.2862728 0 0 2.2842727 -689.69818 -451.7972)"><g fill-rule="evenodd"><path d="m174.07749 67.700401v-35.586762h5.78988 5.78988l.089 3.370553.089 3.370552 2.74348.09059 2.74347.09059v-3.304375-3.304374h5.01663 5.01664v3.292167 3.292168h2.82186 2.82186v-3.292168-3.292167h5.64371 5.64372v35.429991 35.429994h-8.15204-8.15203v-7.862613-7.862615l-.89107-.891073c-1.92043-1.920422-5.6379-2.000616-7.47722-.161301l-1.0379 1.037905v7.869847 7.86985h-9.24942-9.24943v-35.586763zm42.01433 0v-34.019063h-4.23279-4.23278v3.292167 3.292168h-3.76248-3.76248v-3.292168-3.292167h-3.76248-3.76247v3.292167 3.292168h-3.91925-3.91925v-3.292168-3.292167h-4.23278-4.23279v25.34578c0 13.94018-.0932 29.178211-.20715 33.862291l-.20714 8.516511h7.57533 7.57533v-7.352225-7.352228l1.04053-.793653c1.45084-1.106608 3.44286-1.746577 5.43652-1.746577 1.94526 0 3.2808.481165 4.73199 1.704829l1.01901.859233v7.288056c0 4.00843.0941 7.382115.20903 7.497085.11496.11496 3.00736.20902 6.42756.20902h6.21854z" fill="#ffd500" transform="translate(301.54999 197.89)"/><path d="m185.18126 96.748873v-2.937605h1.93993 1.93993v2.937605 2.937606h-1.93993-1.93993z" fill="#ffd500" transform="translate(301.54999 197.89)"/><path d="m183.1859 89.820558v-2.327914h2.88218 2.88218v2.327914 2.327914h-2.88218-2.88218z" fill="#ffd500" transform="translate(301.54999 197.89)"/><path d="m195.32431 82.237972c-1.6826-.533534-3.63583-2.162001-4.38045-3.652111-.73533-1.471526-.24504-2.37428 1.57266-2.895665.53832-.154413 1.19133-.175575 4.54497-.147287l3.91633.03303.61353.288189c.82267.386422 1.21554.862251 1.21554 1.472199 0 2.019428-3.92698 5.076493-6.4849 5.048342-.30485-.0034-.7538-.06937-.99768-.146701z" fill="#ffd500" transform="translate(301.54999 197.89)"/><path d="m204.06782 85.110423c-.78871-.802385-2.1402-1.723198-3.04294-2.073244l-.63052-.244487.62429-.43597c.34336-.239783.91381-.686076 1.26767-.991763l.64338-.555794.576.265568c1.0581.487842 2.56156 1.574338 3.54132 2.55919l.96997.975001v.610462.610463l-1.63509-.01432-1.63508-.01432-.679-.69078z" fill="#ffd500" transform="translate(301.54999 197.89)"/><path d="m205.02395 89.820558v-2.327914h2.88218 2.88218v2.327914 2.327914h-2.88218-2.88218z" fill="#ffd500" transform="translate(301.54999 197.89)"/><path d="m205.02395 96.8043v-2.993032h1.49652 1.49652v2.993032 2.993032h-1.49652-1.49652z" fill="#ffd500" transform="translate(301.54999 197.89)"/><path d="m185.18126 85.262854c0-.556608.0155-.582919.84577-1.43611.94537-.971453 2.24695-1.937317 3.48458-2.585799l.82432-.431916.71599.683985c.3938.376192 1.02982.891808 1.41338 1.145814s.69738.491841.69738.528522c0 .03668-.281.204509-.62445.37295-.89619.439536-1.68304.961334-2.51886 1.670376l-.72987.619173h-2.05412-2.05412z" fill="#ffd500" transform="translate(301.54999 197.89)"/><path d="m178.08666 41.433206v-6.152344h2.4942 2.49419v3.436444 3.436445h5.65351 5.6535v-3.325592-3.325591h1.93993 1.93993v3.214738 3.214739h5.6535 5.65351v-3.325592-3.325591h2.43877 2.43876v6.152344 6.152344h-18.1799-18.1799z" fill="#ffd500" transform="translate(301.54999 197.89)"/><path d="m244.30405 45.905129c.04-.924231.0727-3.692786.0727-6.152344v-4.471923h2.43877 2.43877v3.436444 3.436445h5.70893 5.70893v-3.325592-3.325591h1.93993 1.93993v3.214738 3.214739h5.6535 5.65351v-3.325592-3.325591h2.38334 2.38334v6.152344 6.152344h-18.19721-18.19721l.0727-1.680421z" fill="#ffd500" transform="translate(301.54999 197.89)"/><path d="m240.34659 85.137017c-.0367-9.953217-.0909-25.965939-.12037-35.583826l-.0536-17.487067h5.98034 5.98033l.0293 3.408731.0293 3.408731 2.63276.02972 2.63276.02972v-3.383024-3.383024h5.09924 5.09924v3.436444 3.436445h2.7159 2.7159v-3.325592-3.325591h5.76436 5.76436v35.417547 35.417549h-8.2009-8.20089l-.0299-7.621149c-.0337-8.575596.026-7.982578-.89562-8.904159-1.46504-1.465039-4.52725-1.872498-6.5336-.869364-.72074.360356-1.38501 1.065604-1.6363 1.737244-.21235.567537-.22065.873217-.22065 8.123577v7.533851h-9.24258-9.24259l-.0668-18.096762zm42.05279-17.599269v-33.92238l-4.12928.02906-4.12928.02906-.0293 3.353305-.0293 3.353304h-3.87823-3.87823v-3.270165-3.270164h-3.71358-3.71358v3.325591 3.325591h-3.93528-3.93528v-3.436444-3.436444h-4.19403-4.19403l-.0738 23.528557c-.0406 12.940707-.0738 28.180229-.0738 33.865604l-.00003 10.337047h7.26088 7.26087v-7.292161-7.29216l.80368-.636355c.92638-.733504 2.71887-1.654839 3.68587-1.894531 2.79321-.692355 5.44015-.01877 7.51029 1.911194l.52655.490896v7.411985 7.411992h6.42948 6.42948v-33.922387z" fill="#ffd500" transform="translate(301.54999 197.89)"/><path d="m249.47602 89.820558v-2.327914h2.88218 2.88218v2.327914 2.327914h-2.88218-2.88218z" fill="#ffd500" transform="translate(301.54999 197.89)"/><path d="m251.47138 96.748873v-2.937605h1.93993 1.93992v2.937605 2.937606h-1.93992-1.93993z" fill="#ffd500" transform="translate(301.54999 197.89)"/><path d="m251.47138 85.242456v-.587393l.92779-.923533c.9964-.991834 2.15435-1.842203 3.39949-2.496508l.7772-.408402.72873.667755c.40081.367265 1.04654.881914 1.43496 1.143664.38842.261751.70576.500852.70519.531337-.00056.03048-.24598.170261-.54536.310613-.77429.36299-2.06543 1.229138-2.73304 1.833422l-.57055.516438h-2.06221-2.0622z" fill="#ffd500" transform="translate(301.54999 197.89)"/><path d="m261.34499 82.150705c-1.07588-.413098-1.92935-.99202-2.89468-1.963508-1.13382-1.141047-1.54713-1.878276-1.54713-2.759603 0-.528227.0426-.641457.36027-.958198.19815-.197552.65957-.479396 1.02539-.62632.65258-.262097.73901-.267757 4.58383-.300177 3.72775-.03143 3.95264-.02175 4.61508.198694 1.51294.503472 1.93384 1.339262 1.31697 2.615128-.68276 1.412153-2.9162 3.189167-4.72953 3.763004-1.06048.335593-1.91171.345252-2.7302.03098z" fill="#ffd500" transform="translate(301.54999 197.89)"/><path d="m270.33134 85.110176c-.93907-.953989-1.98124-1.629515-3.44911-2.23568l-.27486-.113504.27486-.145362c.38809-.20525 1.42296-1.016617 1.88081-1.474614l.38658-.386699.77738.389402c1.4363.719468 2.99961 1.928517 3.88982 3.008356.43174.5237.49028.659376.49028 1.136243v.541531l-1.63508-.0014-1.63508-.0014-.7056-.716804z" fill="#ffd500" transform="translate(301.54999 197.89)"/><path d="m271.31407 89.820558v-2.327914h2.88218 2.88218v2.327914 2.327914h-2.88218-2.88218z" fill="#ffd500" transform="translate(301.54999 197.89)"/><path d="m271.31407 96.8043v-2.993032h1.49652 1.49651v2.993032 2.993032h-1.49651-1.49652z" fill="#ffd500" transform="translate(301.54999 197.89)"/><path d="m326.70928 81.616179c-1.51508-.834652-2.47883-1.754417-3.13565-2.992535-.65731-1.239043-.43021-1.977176.80773-2.625367.77425-.4054 1.35119-.473806 4.54498-.538884 4.17665-.0851 5.56564.21785 6.20195 1.352717.31509.56197.30132.673396-.20011 1.619249-.67639 1.275882-1.96014 2.403013-3.67393 3.225695-1.77609.85259-2.94218.842103-4.54497-.04087z" fill="#ffd500" transform="translate(301.54999 197.89)"/><path d="m317.84103 85.196749c0-.509607.28559-.904961 1.34862-1.866946.74174-.671237 1.88547-1.501509 2.54163-1.84505l1.19301-.62462.83939.795669c.46166.437619 1.07453.952139 1.36193 1.143379l.52254.34771-.63339.327596c-.34837.180177-1.25723.786861-2.01968 1.348187l-1.38629 1.020591h-1.88388-1.88388z" fill="#ffd500" transform="translate(301.54999 197.89)"/><path d="m315.84568 89.723122v-2.327914h2.77132 2.77133v2.327914 2.327914h-2.77133-2.77132z" fill="#ffd500" transform="translate(301.54999 197.89)"/><path d="m317.84103 96.706863v-2.882179h1.8845 1.88451v2.882179 2.882179h-1.88451-1.8845z" fill="#ffd500" transform="translate(301.54999 197.89)"/><path d="m306.68145 88.670018c-.0809-7.956477-.14714-23.919315-.14724-35.472973l-.00019-21.006651h5.98607 5.98606v3.325591 3.325591h2.66047 2.66048v-3.325591-3.325591h4.98838 4.98839v3.436444 3.436444h2.77133 2.77132v-3.325591-3.325591h5.76436 5.76436v35.36212 35.36212h-8.20313-8.20312v-7.616074c0-7.53103-.006-7.624337-.49884-8.35626-.81137-1.203928-2.37679-1.870818-4.36711-1.860444-1.97819.01031-3.32219.584286-4.01016 1.712604-.40869.670277-.43394 1.159011-.43472 8.415887l-.00083 7.704287h-9.16441-9.16441zm41.97673-21.122397v-34.036775l-4.15699.06032-4.15699.06032-.0614 3.270165-.0614 3.270165h-3.76307-3.76308v-3.214739-3.214738h-3.769-3.76901v3.325592 3.325591h-3.87985-3.87986v-3.441232-3.441231l-4.26784.06021-4.26784.06021-.0561 33.865604-.0561 33.865607h7.31701 7.317v-7.314913-7.314911l.94226-.694599c1.71397-1.263491 3.21457-1.822865 5.15466-1.921482 2.1858-.111108 3.77979.416211 5.29813 1.752711l1.0205.898273v7.408313 7.408318h6.42947 6.42948v-34.036783z" fill="#ffd500" transform="translate(301.54999 197.89)"/><path d="m337.57287 89.723122v-2.327914h2.88218 2.88218v2.327914 2.327914h-2.88218-2.88218z" fill="#ffd500" transform="translate(301.54999 197.89)"/><path d="m337.57287 96.817716v-2.993032h1.44109 1.44109v2.993032 2.993033h-1.44109-1.44109z" fill="#ffd500" transform="translate(301.54999 197.89)"/><path d="m336.40993 84.85712c-.57865-.532696-1.54458-1.213956-2.14651-1.513911l-1.09442-.545372 1.16526-1.00601 1.16525-1.006011 1.16648.673459c.64156.370402 1.75655 1.219771 2.47777 1.887487 1.0185.942958 1.31129 1.357205 1.31129 1.855266v.641237l-1.49651-.0088c-1.45382-.0086-1.52654-.03644-2.54861-.977343z" fill="#ffd500" transform="translate(301.54999 197.89)"/><path d="m310.60414 46.656716c.0756-.457269.13852-3.200882.13986-6.096918l.002-5.265519h2.32791 2.32792v3.436444 3.436444h5.76435 5.76436v-3.325591-3.325591h1.8845 1.88451v3.214738 3.214738h5.76435 5.76436v-3.325591-3.325591h2.32792 2.32791v6.096917 6.096917h-18.20891-18.20891l.13743-.831397z" fill="#ffd500" transform="translate(301.54999 197.89)"/><path d="m301.68002 197.89557h524.86029v350.11746h-524.86029z" fill="#0c2fa9"/></g><g stroke="#00002b" stroke-width="1.078951" transform="matrix(1.49769726 0 0 1.42324503 787.178794 -240.206596)"><path d="m-208.70365 384.02472h13.51529v-11.02633c.28135-2.33051 4.67282-2.01527 5.05249 0v11.02633h12.12589v-50.94926h-8.8418v4.68936h-2.52624v-4.8161h-7.89446v4.68937h-2.39991v-4.81611h-9.1576z" fill="#fff" fill-rule="evenodd"/><g fill="none"><path d="m-206.17744 381.48993h8.60448v-9.88567c2.82903-2.91048 6.9231-3.26285 9.51039 0v10.01241h7.40005v-46.51337h-4.36226v4.68936h-6.37423v-4.56263h-3.78935v4.68937h-6.42021v-4.8161h-4.44254z"/><path d="m-197.65141 350.94571h2.589385v10.012418h-2.589385z"/><path d="m-191.61372 350.94571h2.589385v10.012418h-2.589385z"/><path d="m-206.05221 344.92561h25.23287"/><path d="m-206.05221 347.30831h25.23287"/><path d="m-201.32998 381.38957v-11.15748c3.92883-5.31544 12.53767-5.5144 16.43408 0v11.42634"/></g><path d="m-202.62505 371.75562h5.001678v4.480917h-5.001678z" fill="#fff" fill-rule="evenodd"/><path d="m-188.03877 371.75562h5.001678v4.480917h-5.001678z" fill="#fff" fill-rule="evenodd"/><path d="m-195.25651 363.33148h4.64442c5.05751 1.02053.36255 5.82835-2.41151 6.00443-2.40073.48462-7.83982-5.08954-2.23291-6.00443z" fill="#fff" fill-rule="evenodd"/><path d="m-164.45788 384.02472h13.51528v-11.02633c.28135-2.33051 4.67283-2.01527 5.05249 0v11.02633h12.1259v-50.94926h-8.8418v4.68936h-2.52625v-4.8161h-7.89445v4.68937h-2.39992v-4.81611h-9.15759z" fill="#fff" fill-rule="evenodd"/><g fill="none"><path d="m-161.93168 381.48993h8.60449v-9.88567c2.82902-2.91048 6.92309-3.26285 9.51038 0v10.01241h7.40005v-46.51337h-4.36226v4.68936h-6.37423v-4.56263h-3.78935v4.68937h-6.4202v-4.8161h-4.44255z"/><path d="m-153.40565 350.94571h2.589385v10.012418h-2.589385z"/><path d="m-147.36797 350.94571h2.589385v10.012418h-2.589385z"/><path d="m-161.80644 344.92561h25.23287"/><path d="m-161.80644 347.30831h25.23287"/><path d="m-157.08422 381.38957v-11.15748c3.92884-5.31544 12.53768-5.5144 16.43408 0v11.42634"/></g><path d="m-158.37929 371.75562h5.001678v4.480917h-5.001678z" fill="#fff" fill-rule="evenodd"/><path d="m-143.793 371.75562h5.001678v4.480917h-5.001678z" fill="#fff" fill-rule="evenodd"/><path d="m-151.01075 363.33148h4.64442c5.05751 1.02053.36255 5.82835-2.41151 6.00443-2.40072.48462-7.83981-5.08954-2.23291-6.00443z" fill="#fff" fill-rule="evenodd"/><path d="m-120.21212 384.02472h13.51529v-11.02633c.28135-2.33051 4.67282-2.01527 5.05249 0v11.02633h12.125892v-50.94926h-8.841802v4.68936h-2.52625v-4.8161h-7.89445v4.68937h-2.39991v-4.81611h-9.1576z" fill="#fff" fill-rule="evenodd"/><path d="m-117.68592 381.48993h8.60449v-9.88567c2.82903-2.91048 6.92309-3.26285 9.510384 0v10.01241h7.400055v-46.51337h-4.36226v4.68936h-6.374239v-4.56263h-3.78934v4.68937h-6.42021v-4.8161h-4.44254z" fill="none"/><path d="m-109.1599 350.94571h2.589385v10.012418h-2.589385z" fill="none"/><path d="m-103.1222 350.94571h2.589385v10.012418h-2.589385z" fill="none"/><path d="m-117.56068 344.92561h25.232873" fill="none"/><path d="m-117.56068 347.30831h25.232873" fill="none"/><path d="m-112.83845 381.38957v-11.15748c3.92883-5.31544 12.53767-5.5144 16.434078 0v11.42634" fill="none"/><path d="m-114.13352 371.75562h5.001678v4.480917h-5.001678z" fill="#fff" fill-rule="evenodd"/><path d="m-99.547249 371.75562h5.001678v4.480917h-5.001678z" fill="#fff" fill-rule="evenodd"/><path d="m-106.76498 363.33148h4.64442c5.057508 1.02053.36255 5.82835-2.41151 6.00443-2.40073.48462-7.83982-5.08954-2.23291-6.00443z" fill="#fff" fill-rule="evenodd"/></g><g fill-rule="evenodd"><g fill="#ffd500" stroke="#00002b" stroke-width="1.083676" transform="matrix(1.58886004 0 0 1.71405917 701.732793 143.559933)"><path d="m-113.68499 157.50355v20.22609h-9.16246v-6.03431c4.42007.68832 5.42241-6.34927 0-6.25779v-8.15748z"/><path d="m-137.89101 157.50355v20.22609h9.16246v-6.03431c-4.42011.68832-5.42245-6.34927 0-6.25779v-8.15748z"/><path d="m-86.380086 221.08721 5.36343-9.38669v-88.50309l-5.35104-21.4305-5.82274 22.32447v87.16213z"/><path d="m-86.373896 103.07689v117.78063"/><path d="m-93.351186 106.11496h14.37988c-1.77395-8.026269-13.45111-7.547929-14.37988 0z"/><path d="m-66.487676 122.86647h-39.663144v8.0597c6.584164-2.21247 12.459654-6.60804 19.752554-6.6374 7.29055-.0294 13.28828 4.68272 19.91059 7.11149z"/><path d="m-146.71831 154.70989h85.143944l9.38595-9.16319-4.246-4.24637 6.59248-6.59303 7.15118 7.15177-4.02252 4.02286 7.82159 7.82224 4.469536-4.46984 7.039455 7.04001-6.592528 6.59303-4.246003-4.24636-8.26861 8.26923 4.02257 4.02287-6.81598 6.81653-6.59252-6.59304 3.68735-3.68763-9.27422-9.27494h-85.479114zm89.613434 1.78794 7.70991-7.71049 7.82159 7.82224-7.70987 7.7105zm7.65403 12.88785 2.03017 2.03032-2.03017 2.03033-2.03013-2.03033zm15.308062-14.974 2.030174 2.03033-2.030174 2.03032-2.030175-2.03032zm-15.308012-15.1975 2.03017 2.03033-2.03017 2.03032-2.03018-2.03032z"/></g><g transform="translate(301.54999 197.89)"><path d="m193.99504 85.921444c-.71131-.375779-1.78523-1.280042-2.38649-2.009472-2.35397-2.855782-.95305-3.993556 4.91721-3.993556 4.05706 0 6.01041.568322 6.01041 1.748708 0 1.018396-2.38093 3.541818-4.06586 4.309195-1.79184.816066-2.85127.803076-4.47527-.05488z" fill="#ffd500"/><path d="m203.43642 88.907969c-.76882-.678734-1.77327-1.328283-2.2321-1.443444-.82988-.208285-.82811-.214519.33719-1.18856 1.11638-.933155 1.22129-.954208 2.2321-.447936 1.33513.668712 4.06586 3.279123 4.06586 3.886718 0 .303921-.5027.451794-1.5026.442-1.20209-.01177-1.78217-.261525-2.90045-1.248778z" fill="#ffd500"/><path d="m205.01104 94.237328v-2.298097h2.82843 2.82843v2.298097 2.298097h-2.82843-2.82843z" fill="#ffd500"/><path d="m205.01104 101.13162v-2.828428h1.41422 1.41421v2.828428 2.82843h-1.41421-1.41422z" fill="#ffd500"/><path d="m173.89835 71.963465v-35.532116h5.83363 5.83363v3.535534 3.535534h2.82843 2.82842v-3.358757-3.358757h4.94975 4.94975v3.358757 3.358757h2.82842 2.82843v-3.358757-3.358757h5.65686 5.65685v35.355338 35.355339h-8.13173-8.13173v-7.726548c0-7.655683-.008-7.734903-.84455-8.63784-2.20052-2.374397-7.36297-1.959128-8.36361.67277-.18578.488625-.33778 4.219129-.33778 8.290018v7.4016h-9.19239-9.19238zm42.07285 0v-34.117902h-4.24264-4.24264v3.358757 3.358757h-3.71231-3.71231v-3.18198-3.181981h-3.88909-3.88909v3.358757 3.358757h-3.88908-3.88909v-3.535533-3.535534h-4.24264-4.24264v33.948299 33.948298l7.33623-.0956 7.33623-.0956.0955-7.317229.0955-7.317222 1.03018-.733556c3.16626-2.254571 6.8921-2.300647 9.82736-.121527l1.14904.85305v7.583405 7.583409h6.54074 6.54074v-34.117905z" fill="#ffd500"/><path d="m184.91636 101.0965v-2.875h2 2v2.875 2.875h-2-2z" fill="#ffd500"/><path d="m183.04136 94.2215v-2.375h2.875 2.875v2.375 2.375h-2.875-2.875z" fill="#ffd500"/><path d="m184.91636 89.663095c0-.525706.0531-.611994.90625-1.473566 1.05773-1.06813 2.17379-1.889794 3.44208-2.534119l.90589-.460212.86433.815364c.47538.448451 1.12618.968822 1.44623 1.156381l.58189.341015-.85479.450521c-1.03986.548064-1.51587.871835-2.43826 1.658473l-.70888.604548h-2.07237-2.07237z" fill="#ffd500"/><path d="m177.91636 45.8465v-6.125h2.4375 2.4375v3.375 3.375h5.6875 5.6875v-3.3125-3.3125h2 2v3.25 3.25h5.625 5.625v-3.3125-3.3125h2.375 2.375v6.125 6.125h-18.125-18.125z" fill="#ffd500"/><path d="m244.16636 45.8465v-6.125h2.4375 2.4375v3.375 3.375h5.6875 5.6875v-3.3125-3.3125h2 2v3.25 3.25h5.625 5.625v-3.3125-3.3125h2.375 2.375v6.125 6.125h-18.125-18.125z" fill="#ffd500"/><path d="m240.12458 84.513242c-.0458-12.695792-.0832-28.698917-.0832-35.5625v-12.479242h6 6v3.375 3.375h2.625 2.625v-3.3125-3.3125h5.0625 5.0625v3.4375 3.4375h2.75 2.75v-3.375-3.375h5.75 5.75v35.4375 35.4375h-8.1875-8.1875v-7.39175c0-5.419514-.0404-7.529023-.15136-7.906248-.22342-.759417-1.34354-1.838596-2.26697-2.184092-1.12728-.42177-2.44068-.577832-3.45426-.410443-1.55624.257006-2.47423.812334-3.09861 1.874458l-.3413.580575-.0349 7.71875-.0349 7.71875h-9.22562-9.22562l-.0832-23.083258zm42.04178-12.604242v-33.9375h-4.125-4.125v3.375 3.375h-3.9375-3.9375v-3.25-3.25h-3.6875-3.6875v3.3125 3.3125h-3.9375-3.9375v-3.4375-3.4375h-4.1668-4.16679l-.0832 19.96875c-.0457 10.982812-.0832 26.227016-.0832 33.876007l-.00004 13.907253 7.28125-.0323 7.28125-.0323.0323-7.293284.0323-7.293283.28024-.241588c1.01121-.871748 2.43933-1.6799 3.69993-2.093733 1.02769-.337373 3.07659-.473528 4.08031-.271148 1.1871.239356 2.69476 1.028953 3.62343 1.897683l.81407.761516v7.360669 7.360668h6.375 6.375v-33.9375z" fill="#ffd500"/><path d="m251.29136 101.0965v-2.875h1.9375 1.9375v2.875 2.875h-1.9375-1.9375z" fill="#ffd500"/><path d="m249.29136 94.2215v-2.375h2.875 2.875v2.375 2.375h-2.875-2.875z" fill="#ffd500"/><path d="m251.29136 89.615076c0-.575297.0394-.6462.76775-1.381354 1.04975-1.059567 2.03647-1.798089 3.30152-2.471054l1.06758-.567921.71282.679311c.39206.37362 1.0383.895205 1.4361 1.159076l.72327.479765-.95664.510551c-.52615.280802-1.43056.890237-2.00978 1.3543l-1.05314.84375h-1.99474-1.99474z" fill="#ffd500"/><path d="m261.00301 86.463983c-2.15552-.874922-4.33665-3.232238-4.33665-4.686948 0-.685295.68923-1.324503 1.79712-1.666696.78517-.242516 1.14454-.263839 4.44648-.263839 3.21165 0 3.66586.02532 4.28695.239009 1.18474.407611 1.72135.926354 1.71823 1.661033-.002.454459-.54186 1.483273-1.11988 2.1339-1.01694 1.144676-2.87281 2.341362-4.1914 2.702661-.76504.209625-1.92142.156662-2.60085-.11912z" fill="#ffd500"/><path d="m270.59578 89.914217c-.35574-.542934-1.91208-1.716745-3.0004-2.262951l-1.05718-.53057.78283-.562433c.43056-.309337.976-.764082 1.21209-1.010542l.42927-.448111.94573.509967c1.32212.712922 2.48964 1.607107 3.44335 2.6372.74508.804762.81489.927037.81489 1.427439v.547284h-1.68462c-1.65136 0-1.68859-.0061-1.88596-.307283z" fill="#ffd500"/><path d="m271.16636 94.2215v-2.375h2.875 2.875v2.375 2.375h-2.875-2.875z" fill="#ffd500"/><path d="m271.04136 101.2215v-3h1.5625 1.5625v3 3h-1.5625-1.5625z" fill="#ffd500"/><path d="m306.39004 84.138241c-.0458-12.902042-.0832-28.905167-.0832-35.5625v-12.104241h6 6v3.375 3.375h2.625 2.625v-3.3125-3.3125h5.0625 5.0625v3.4375 3.4375h2.75 2.75v-3.375-3.375h5.75 5.75v35.4375 35.4375h-8.1875-8.1875v-7.39175c0-5.419514-.0404-7.529023-.15137-7.906248-.22341-.759417-1.34354-1.838596-2.26696-2.184092-2.94071-1.100261-6.0249-.207973-6.76239 1.956431-.16719.490685-.19428 1.6129-.19428 8.047929v7.47773h-9.22928-9.22928l-.0832-23.458259zm42.04178-12.229241v-33.9375h-4.125-4.125v3.375 3.375h-3.87289-3.87289l-.0334-3.21875-.0334-3.21875-3.71875-.03311-3.71875-.03311v3.31436 3.31436h-3.9375-3.9375v-3.4375-3.4375h-4.1668-4.16679l-.0832 20.34375c-.0457 11.189062-.0832 26.433266-.0832 33.876007l-.00004 13.532253 7.28125-.0323 7.28125-.0323.0323-7.293284.0323-7.293283.28024-.241588c1.01121-.871748 2.43933-1.6799 3.69993-2.093733 1.02769-.337373 3.07659-.473528 4.08031-.271148 1.1871.239356 2.69476 1.028953 3.62343 1.897683l.81407.761516v7.360669 7.360668h6.375 6.375v-33.9375z" fill="#ffd500"/><path d="m337.30682 101.2215v-3h1.5625 1.5625v3 3h-1.5625-1.5625z" fill="#ffd500"/><path d="m337.43182 94.2215v-2.375h2.875 2.875v2.375 2.375h-2.875-2.875z" fill="#ffd500"/><path d="m336.86124 89.914217c-.35574-.542934-1.91208-1.716745-3.00041-2.262951l-1.05717-.53057.78283-.562433c.43055-.309337.97599-.764082 1.21209-1.010542l.42926-.448111.94574.509967c1.32211.712922 2.48964 1.607107 3.44335 2.6372.74508.804762.81489.927037.81489 1.427439v.547284h-1.68462c-1.65137 0-1.6886-.0061-1.88596-.307283z" fill="#ffd500"/><path d="m327.26847 86.463983c-2.15552-.874922-4.33665-3.232238-4.33665-4.686948 0-.685295.68922-1.324503 1.79712-1.666696.78517-.242516 1.14454-.263839 4.44647-.263839 3.21166 0 3.66587.02532 4.28696.239009 1.18474.407611 1.72135.926354 1.71822 1.661033-.003.814378-1.06521 2.286582-2.35552 3.266114-2.06985 1.571321-4.01154 2.078468-5.5566 1.451327z" fill="#ffd500"/><path d="m317.55682 89.615076c0-.575297.0394-.6462.76775-1.381354 1.04975-1.059567 2.03647-1.798089 3.30151-2.471054l1.06758-.567921.71283.679311c.39205.37362 1.0383.895205 1.4361 1.159076l.72327.479765-.95664.510551c-.52616.280802-1.43056.890237-2.00978 1.3543l-1.05314.84375h-1.99474-1.99474z" fill="#ffd500"/><path d="m315.55682 94.2215v-2.375h2.875 2.875v2.375 2.375h-2.875-2.875z" fill="#ffd500"/><path d="m317.55682 101.0965v-2.875h1.9375 1.9375v2.875 2.875h-1.9375-1.9375z" fill="#ffd500"/><path d="m310.43182 45.8465v-6.125h2.4375 2.4375v3.375 3.375h5.6875 5.6875v-3.3125-3.3125h2 2v3.25 3.25h5.625 5.625v-3.3125-3.3125h2.375 2.375v6.125 6.125h-18.125-18.125z" fill="#0c2fa9"/><path d="m310.456 45.769204v-6h2.375 2.375v3.375 3.375h5.75 5.75v-3.25-3.25h1.86753 1.86753l.07 3.1875.07 3.1875 5.6875.06719 5.6875.06719v-3.379694-3.379693h2.25 2.25v6 6h-18-18v-6z" fill="#ffd500"/></g></g></g></svg>