<svg height="500" width="750" xmlns="http://www.w3.org/2000/svg" xmlns:xlink="http://www.w3.org/1999/xlink"><defs><g id="a" fill="#fff" transform="scale(15)"><g id="b"><path id="c" d="m0 0v1h.4z" transform="matrix(.95105652 .30901699 -.30901699 .95105652 0 -1)"/><use height="216" transform="scale(-1 1)" width="324" xlink:href="#c"/></g><use height="216" transform="matrix(.30901699 .95105652 -.95105652 .30901699 0 0)" width="324" xlink:href="#b"/><use height="216" transform="matrix(.30901699 -.95105652 .95105652 .30901699 0 0)" width="324" xlink:href="#b"/><use height="216" transform="matrix(-.80901699 .58778525 -.58778525 -.80901699 0 0)" width="324" xlink:href="#b"/><use height="216" transform="matrix(-.80901699 -.58778525 .58778525 -.80901699 0 0)" width="324" xlink:href="#b"/></g></defs><path d="m0 0h750v500h-750z" fill="#078930"/><use height="216" transform="matrix(2.3148148 0 0 2.3148148 57.87037 414.3519)" width="324" xlink:href="#a"/><use height="216" transform="matrix(2.3148148 0 0 2.3148148 692.12963 414.3519)" width="324" xlink:href="#a"/><use height="216" transform="matrix(2.3148148 0 0 2.3148148 85.648148 344.9074)" width="324" xlink:href="#a"/><use height="216" transform="matrix(2.3148148 0 0 2.3148148 664.35185 344.9074)" width="324" xlink:href="#a"/><use height="216" transform="matrix(2.3148148 0 0 2.3148148 120.37037 277.7778)" width="324" xlink:href="#a"/><use height="216" transform="matrix(2.3148148 0 0 2.3148148 629.62963 277.7778)" width="324" xlink:href="#a"/><use height="216" transform="matrix(2.3148148 0 0 2.3148148 159.72222 212.963)" width="324" xlink:href="#a"/><use height="216" transform="matrix(2.3148148 0 0 2.3148148 590.27778 212.963)" width="324" xlink:href="#a"/><use height="216" transform="matrix(2.3148148 0 0 2.3148148 208.33333 155.0926)" width="324" xlink:href="#a"/><use height="216" transform="matrix(2.3148148 0 0 2.3148148 541.66667 155.0926)" width="324" xlink:href="#a"/><use height="216" transform="matrix(2.3148148 0 0 2.3148148 266.2037 108.7963)" width="324" xlink:href="#a"/><use height="216" transform="matrix(2.3148148 0 0 2.3148148 483.7963 108.7963)" width="324" xlink:href="#a"/><use height="216" transform="matrix(2.3148148 0 0 2.3148148 335.64815 81.0185)" width="324" xlink:href="#a"/><use height="216" transform="matrix(2.3148148 0 0 2.3148148 414.35185 81.0185)" width="324" xlink:href="#a"/></svg>