<svg height="385pt" width="800pt" xmlns="http://www.w3.org/2000/svg"><g transform="matrix(1 0 0 1.056602 6 -5.415004)"><path d="m0 11.907084h454.23676v445.77274h-454.23676z" fill="#e3001b"/><path d="m454.23676 11.907084h534.23675l-260 445.772736h-274.23675z" fill="#fff"/><path d="m.00000021 11.907084h988.47350979l-260 445.772736h-728.47350979z" fill="none" stroke="#000" stroke-linecap="round" stroke-linejoin="round" stroke-width="2.834646"/></g><g transform="translate(486.3161 -10.68827)"><path d="m-303.75391 73.748116c-.27402 0-.54804 0 0 0z" fill="none" stroke="#000" stroke-width=".59394"/><g transform="matrix(.55625 0 0 .634184 -49.36215 20.01105)"><a fill="none"><path d="m-457.89482 94.67787c-11.22614-10.631975-12.16544-32.041807-3.28474-44.568302 8.64626-12.744035 20.74559-15.128843 35.41738-9.796298 7.81057 5.916143 14.99604 10.12082 21.33628 20.233289 4.0104-3.181781 7.50283-3.119594 12.57398 2.373553 50.36438-10.722366 75.32186 32.650914 72.3419 61.792028-2.33168 20.78847-7.57819 42.54855 1.50712 59.53135 8.23824 15.07123 12.85577 30.14246 15.07123 45.21369 37.8208-4.48709 71.68634-16.88471 99.4701-41.44588 10.56256-4.26859 6.76455-10.33226 1.50712-16.57835-24.45703-16.17494-26.58805-77.706023 31.64958-86.659558 45.41198-5.293437 81.249019 20.154448 88.920241 85.152438 1.426652 38.18044-6.021716 77.11445-20.346161 114.54133-6.38715 64.73104-25.53259 103.95294-45.96724 146.94447-6.11513 7.67419-10.4401 15.9451-10.54986 25.62108-8.54036 6.02849-14.06648 6.02849-16.57835 0l-9.04274-15.07123c-13.05051 9.67284-23.47414-9.54991-34.66382-20.34615-15.87245 15.38101-26.23311-5.06458-38.43163-13.56411l-15.07123 2.26069 18.83904 24.11396-14.31767 6.78205c-2.14574 7.28443 4.28273 14.56885 12.05698 21.85328 7.27071 7.45333 12.79642 4.43657 18.08548 0 7.7707-8.06053 16.96752-14.12448 34.66382-8.28917 21.42458.96791 19.55206 13.58437 21.85328 24.11396h-65.55984l61.03847.75356c7.84186 15.40594 3.70922 27.5461-10.54986 36.92451l-9.04273-15.07123-14.31767-.75356 6.78205 12.05698c6.17781 26.99926-10.19595 34.03818-20.34616 37.67807 6.4832-12.68655 4.31571-19.96643-5.27492-22.60684-19.47883-5.88632-18.4531-11.30546-20.34616-21.09972-6.35352-6.63438-8.10372-22.47538-25.62109-6.78205-9.52059 4.6254-19.5125 12.07877-27.12821 5.27493-3.31826 4.49496-9.44033 7.58801-5.27493 15.82479-14.71672-1.44635-28.8221-32.75237-.75356-36.92451 8.92616-8.75548 20.93577-5.17716 31.64958-6.78205v-8.28918c-2.5427-4.32085-3.75971-7.81314-21.85328-21.85328l-7.53562 17.33192c-15.58093-7.52829-19.61824-26.60019-25.62108-43.70656-7.97671 8.65881-16.41181 17.26669-6.78206 27.88177 15.20011 15.56641 13.68606 30.14963-5.27493 43.70656-7.14768 72.99246 47.24099 94.69209 85.15244 62.54559 8.50749 36.791-1.51591 59.88526-39.18519 62.5456.9533 11.56988-1.37674 21.49809-4.4019 31.07875-12.57313 2.09558-24.21938.48363-34.78329-5.45767-10.18934 21.15438-23.46852 34.35858-36.92451 46.72081-11.80579-10.41609-23.61159-26.25872-35.41738-46.72081-19.038 5.81265-18.43156 6.62477-32.67237 6.50848-2.76476-10.97684-3.98394-12.34288-4.25214-32.88313-45.66859.53695-52.93824-32.15978-42.953-58.02422 48.45672 24.51101 84.88698 13.06317 87.41312-67.82053-15.05377-8.85784-21.53304-30.06745-4.52137-38.43162.81529-7.74891 3.40926-19.77208-5.27493-25.62109-9.68321 9.12755-15.68539 21.01587-17.33191 36.17094-8.28232.99103-13.00739-5.13242-17.33191-12.05698-12.87828 5.3135-23.19883 12.33216-24.11397 25.62108 8.93183 3.37634 30.34215-1.958 34.66383 6.78206 24.24285 4.01343 22.31998 24.34069 3.7678 36.9245 1.5856-6.16977 2.12842-6.4024-7.53561-9.79629-18.42904 7.56158-22.14006-13.20616-32.40314-14.31767-7.50222-3.34093-10.69073-.2113-14.31767 2.26069-22.73004 5.34875-3.84947 25.80227-30.89601 33.1567l1.50712 15.82478c-18.00265-1.68526-31.28916-11.86405-18.83903-34.66382l1.50712-7.53561c-16.44805-8.09373-19.18062 4.38576-24.11396 13.56411-14.89219-9.18615-22.73884-22.7303-9.04274-34.66382-8.73609-25.24203 9.4437-30.13373 25.62109-29.3889 11.45968-1.12744 21.4346 8.95914 30.89601 10.54986 14.99156 5.97332 23.18715-7.23125 27.12821-24.86753-4.51385 1.14162-8.90741 2.46367-17.33191-2.26068 6.31887-8.54036 13.34731-17.08073 15.82479-25.62109-14.59252 6.99115-13.11301-.08073-12.05698-6.78206-13.01722 12.89803-30.63476 32.33768-36.92451 13.56412-6.53086 15.73713-25.87227 35.23859-34.66382 20.34615-3.23883 16.14249-11.58136 25.55421-20.34616 27.88177-12.09803-30.0269-59.28986-103.61987-61.79203-177.08692-22.82071-60.28988-43.57054-198.153651 60.28491-204.968697 51.91767-4.854529 82.38013 53.318757 36.17094 91.180927-1.04777 4.27018-2.25996 8.54036 4.52137 12.81054 20.72562 15.35046 62.46619 43.05226 107.00572 39.1852 4.4902-15.85278 11.31199-26.95786 24.89806-36.89446 3.46422-9.12813 10.22812-20.4307 18.8085-24.14402 7.14045-4.80835 8.13781-8.32341 3.01424-10.54986-21.64641-12.82533-24.86977-46.84079-41.44587-65.559836-4.77256-7.491727-10.48667-6.936912-12.54005 3.122426z" fill="#000" fill-rule="evenodd"/></a><path d="m-459.3806 81.426505c-5.87486-16.888341 3.00366-40.762927 23.05365-38.364796 12.20291 4.100016 29.01139 16.830967 30.41061 23.482368 3.65957-7.421522 8.89834-3.403647 8.11181 2.040391-3.20705 14.352053-6.69603 31.402985-2.06545 43.452682 1.75568 12.03245 20.68364 16.00426 10.27875 34.52827-11.15788 3.67492-19.30875-1.2416-24.86753-13.5641-10.29445-18.35353-20.55086-36.859249-32.40314-48.98149-1.77478-4.712549 2.99491-7.578952 6.02849-6.028491 13.07484 15.279544 26.98926 29.824461 33.91027 50.488611 2.14909 12.88582 14.78809 13.65626 14.53727 2.14299-18.3714-15.97352-11.49238-24.19802-18.47072-33.054714-5.957-7.560444-13.44546-7.931482-22.02782-21.243334-8.72935-15.435048-24.76211-5.319132-26.49619 5.101613z" fill="#fe0" fill-rule="evenodd" stroke="#fe0"/><path d="m-327.28991 110.76946c-6.94459-20.532372-19.15816-47.959533-59.49277-43.350896-8.34427.630528-9.4674 7.925807-4.19409 14.127807 20.08151 2.947745 34.2293 14.696701 32.54913 34.267059-5.21928 3.61777-14.90166 4.73922-25.17547-1.33832-9.44545-5.08346-8.59272-12.08346-7.40753-22.56425.64322-5.688102-4.70732-1.755484-4.62623-.753533-5.6318 21.639423 5.91786 25.495703 10.65832 37.931273 4.24242 11.12908 4.12309 20.20883-12.62975 23.1812-.74132 6.90627 3.73002 10.01632-1.31637 13.59543-13.97263 9.90999-16.24495 16.73547-20.66888 22.0128 19.99348 2.29686 31.2128-8.07286 41.29584-11.58354 1.99948 5.97528 1.46109 10.62125 6.87001 14.94645 10.97023-3.41229 11.75352-8.05519 18.04227-14.25444 4.24598 7.99109 4.83751 16.93063 29.75636 10.84146-15.16746-31.64257 3.27825-56.80333-3.66084-77.0585z" fill="#fff" fill-rule="evenodd"/><path d="m-442.10288 224.63454c24.87622 3.51379 29.96987-14.1867 31.28318-27.67736.08752-.89907-11.42576 12.82983-11.36708 11.97567-.96164-.30469 7.82894-15.21025 6.6393-15.09888-10.39408.97306-26.3733 17.06377-26.5554 30.80057z" fill="#fff" fill-rule="evenodd"/><path d="m-313.31019 224.71184c-27.02568-2.53182-24.41037-11.55697-18.2729-31.17289.17923-.57282 6.58778 18.78429 6.77236 18.19332.57034.02121-.8986-16.61497-1.92412-20.04971 9.40741 2.51339 17.09772 22.20968 13.42466 33.02928z" fill="#fff" fill-rule="evenodd"/><path d="m-591.81788 116.19401c-7.66439-2.49009-11.29382 3.01692-12.56995 8.87374-3.43369-2.44678-13.61548-4.12218-16.78746 4.36197-3.2203 8.61336 6.23942 14.8637 13.08941 13.67206-6.26508 12.27762-10.57744 26.69076-10.22736 40.19214 5.23594 62.82357 102.05663 80.00335 162.17327 85.76459l-.53712-11.99977c-76.8615-1.46714-148.34358-35.57465-150.50587-73.44549-.68665-11.39439 1.9957-26.82598 7.78305-37.56959 3.09579 3.84734 14.30013 6.169 18.05521-1.51557 4.03141-8.25007-2.83324-14.12705-7.57863-13.95972 3.11268-3.07583 4.72148-11.64525-2.89455-14.37436z" fill="#fe0"/><path d="m-455.13365 234.88942c4.36215 7.08511-.54257 14.11073-2.1098 18.23115-52.66894.48141-106.63387-20.48066-123.14592-35.96296-24.09379-19.2764-26.83251-34.59592-18.99343-55.57914 2.24767-7.80368 6.7524-8.80986 12.03954-7.6804 10.64867 1.39714 16.87405-13.59659 6.8501-24.90942 4.70666-18.14523-17.99509-25.41763-25.84353-10.84597-22.98708-2.55051-25.09721 20.58694-10.37892 28.0231 2.64148 5.06347-.58807 8.9404-1.604 12.06808-14.67722 45.18567 11.52079 55.92995 11.2564 70.60003.79493 29.38821-4.45808 33.03693-14.63428 36.22245-10.82977-5.64872-9.5519-14.24763-14.73807-30.46214-1.39778 28.59299-1.68278 45.80243-15.25702 48.52146-12.25823-34.20174-33.62411-106.88692 2.17958-161.8593 24.51719-35.65542 83.6689-35.507435 94.50008-8.25124 12.10864 27.99189-.65335 46.4273-11.57249 57.29165-4.09625 6.40648-6.47407 13.9553 2.80231 21.84763 28.11405 29.52493 87.7224 44.28252 108.64945 42.74502z" fill="#fff" fill-rule="evenodd"/><path d="m-601.18912 229.34871c-4.11685 8.18289-2.42222 37.94705 13.10421 45.45158 13.24424-5.76083 11.60771-17.54582 10.73993-28.36977-7.94805-4.42876-15.8961-9.72494-23.84414-17.08181z" fill="#fff" fill-rule="evenodd"/><path d="m-572.43535 248.76492c.2098 12.01794-1.22905 27.69503 10.85887 32.63035 12.39428-4.50565 11.63272-17.03407 11.98988-24.12292-7.75466-2.1665-15.90724-5.52778-22.84875-8.50743z" fill="#f7f7ff" fill-rule="evenodd"/><path d="m-544.09275 259.46989c-.34711 10.14319.83769 23.2798 10.2397 29.76707 6.38696-2.71731 10.77028-10.56503 12.1187-23.77929-7.3765-1.70727-14.56341-3.86202-22.3584-5.98778z" fill="#f7f7ff" fill-rule="evenodd"/><path d="m-518.28772 265.92293c-.76726 10.58343.98179 23.40716 9.31632 26.30613 6.80899-.50262 9.23034-9.7805 9.76368-22.83443-5.57482-.34631-13.9249-2.28596-19.08-3.4717z" fill="#f7f7ff" fill-rule="evenodd"/><path d="m-493.16426 270.6877c-.76726 10.58343.06743 21.4953 8.40196 24.39427 6.80899-.50262 8.7316-9.36488 9.26494-22.41881-5.57482-.34631-12.5118-.78972-17.6669-1.97546z" fill="#f7f7ff" fill-rule="evenodd"/><path d="m-471.30265 273.26455c-.76726 10.58343-.68069 19.58345 7.65384 22.48242 6.80899-.50262 7.73411-9.03239 8.26745-22.08632-7.15417.23556-10.76619-.29097-15.92129-.3961z" fill="#f7f7ff" fill-rule="evenodd"/><g fill-rule="evenodd" transform="translate(-750.0847 3.321207)"><path d="m127.62244 184.88333c-1.88233 19.36181-1.38837 45.4282 2.20954 59.87646 3.02869-2.96142 2.87828-33.49416 3.85846-41.7817-3.7952-6.5443-4.34146-9.89553-6.068-18.09476z"/><path d="m158.17268 233.66236c.20984 5.71227-.10744 18.53009 4.03782 23.45528 2.47277-3.47684 2.68062-12.8374 3.07413-18.39351z"/><path d="m186.81741 249.16797c.61444 5.53292-.75573 13.43658 2.12927 18.49706 2.05746-3.24626 3.62341-10.91047 3.79216-16.15008z"/><path d="m214.7459 258.64687c.61444 5.53292.55753 10.69651 2.2679 16.22943 3.4218-3.38127 3.00733-10.42415 4.19529-14.55003z"/><path d="m263.49508 268.47797c-.05055 4.20294.60975 9.11388 2.13258 14.54605 2.20677-2.76133 2.91274-9.63532 3.27502-14.15408z"/><path d="m283.9329 270.14733c.61444 5.53292.52289 7.87386 3.07413 13.65262 2.94799-2.47655 1.97287-9.37941 2.82101-13.42318z"/><path d="m239.7416 264.01986c-.05055 4.95105-1.99974 11.20154 1.67266 16.73446 1.88223-2.98453 3.42145-11.59689 3.65051-15.40801z"/></g><path d="m-515.90047 267.34741c-.05249 0-.10499 0 0 0z" fill="none" stroke="#000"/><path d="m-606.53338 260.67739c4.92329 65.36645 38.61325 167.21124 18.48297 188.7209-2.43197 7.84138-4.86394 5.18024-7.29591 4.37755-13.42022-30.48602-46.85871-85.80458-55.93532-164.88759 8.84549-.3734 14.82437-10.16679 17.51019-18.96937 9.71342 45.77164 16.50814 93.73324 31.12921 130.35361-11.99367-42.32033-18.87526-89.75274-27.23806-133.75837 8.54869 4.92255 17.52855.75869 23.34692-5.83673z" fill="#fff" fill-rule="evenodd"/><path d="m-577.83614 273.81004c-3.25197 2.98014-6.99033 4.6977-9.75591 7.05621-3.71968-.56222-6.46657-2.41412-9.69985-4.62424 6.46215 53.04671 26.73107 114.30849 24.8061 156.13249 6.29801 12.72964 28.06835-11.94503 27.72446-31.12922l-5.35034-120.13933c-4.02457 1.85566-8.00827 2.53417-11.67224 5.50517-6.08493-2.86589-6.98811-3.4297-9.72909-7.93714l9.72787 111.38424z" fill="#fff" fill-rule="evenodd"/><path d="m-543.28834 288.87098 10.0037 6.51907 9.81932-6.64414 2.75146 88.04673 2.0636-84.6074 8.97439 6.06541 8.22224-4.00182c-.12243 29.26487.3517 58.38061-1.37573 88.04673-2.99417 16.44908-13.91303 28.04324-28.20247 35.08112-12.5859-.89521-5.90939-87.93208-12.25651-128.5057z" fill="#fff" fill-rule="evenodd"/><path d="m-493.18389 296.01287c5.9672 5.76474 10.25706 6.45984 14.74267 1.11264l-1.11266 67.31558 7.23225-67.31557c4.5676 1.62912 9.22078 5.44064 13.07369 2.78163l-1.39082 48.95678c-.43573 19.71847-11.45434 51.47913-31.15431 53.68556-11.97918-5.23433 4.07973-4.8215-1.39082-106.53662z" fill="#fff" fill-rule="evenodd"/><path d="m-168.81582 116.19401c7.66439-2.49009 11.29382 3.01692 12.56995 8.87374 3.43369-2.44678 13.61548-4.12218 16.78746 4.36197 3.2203 8.61336-6.23942 14.8637-13.08941 13.67206 6.26508 12.27762 10.57744 26.69076 10.22736 40.19214-5.23594 62.82357-102.05663 80.00335-162.17327 85.76459l.53712-11.99977c76.8615-1.46714 148.34358-35.57465 150.50587-73.44549.68665-11.39439-1.9957-26.82598-7.78305-37.56959-3.09579 3.84734-14.30013 6.169-18.05521-1.51557-4.03141-8.25007 2.83324-14.12705 7.57863-13.95972-3.11268-3.07583-4.72148-11.64525 2.89455-14.37436z" fill="#fe0"/><path d="m-302.18695 234.66397c-4.36215 7.08511-.57273 12.62366.9945 16.74408 52.66894.48141 106.63387-20.48066 123.14592-35.96296 21.81043-18.70556 25.69083-33.45424 17.85175-54.43746-2.24767-7.80368-5.61072-9.95154-10.89786-8.82208-10.64867 1.39714-16.87405-13.59659-6.8501-24.90942-4.70666-18.14523 17.99509-25.41763 25.84353-10.84597 22.98708-2.55051 25.09721 20.58694 10.37892 28.0231-2.64148 5.06347.58807 8.9404 1.604 12.06808 14.67722 45.18567-12.09163 56.50079-12.39808 67.74583-1.93662 21.96728 2.74556 36.46197 15.77596 39.07665 10.82977-5.64872 10.69358-19.3852 14.73807-30.46214-1.45642 28.02215 1.68278 45.23159 15.25702 47.95062 12.258228-34.20174 33.624108-106.31608-2.17958-161.28846-22.80467-40.222148-84.81059-34.365756-95.64177-7.10956-12.10864 27.99189-1.05917 45.28562 12.71418 57.86249 4.09625 6.40648 5.33239 11.1011-3.94399 18.99343-28.11405 29.52493-85.46542 46.91127-106.39247 45.37377z" fill="#fff" fill-rule="evenodd" stroke="#000"/><g transform="matrix(-1 0 0 1 -759.4669 0)"><g fill-rule="evenodd"><path d="m-601.18912 229.34871c-4.11685 8.18289-2.42222 37.94705 13.10421 45.45158 13.24424-5.76083 11.60771-17.54582 10.73993-28.36977-7.94805-4.42876-15.8961-9.72494-23.84414-17.08181z" fill="#fff"/><path d="m-572.43535 248.76492c.2098 12.01794-1.22905 27.69503 10.85887 32.63035 12.39428-4.50565 11.63272-17.03407 11.98988-24.12292-7.75466-2.1665-15.90724-5.52778-22.84875-8.50743z" fill="#f7f7ff"/><path d="m-544.09275 259.46989c-.34711 10.14319.83769 23.2798 10.2397 29.76707 6.38696-2.71731 10.77028-10.56503 12.1187-23.77929-7.3765-1.70727-14.56341-3.86202-22.3584-5.98778z" fill="#f7f7ff"/><path d="m-518.28772 265.92293c-.76726 10.58343.98179 23.40716 9.31632 26.30613 6.80899-.50262 9.23034-9.7805 9.76368-22.83443-5.57482-.34631-13.9249-2.28596-19.08-3.4717z" fill="#f7f7ff"/><path d="m-493.16426 270.6877c-.76726 10.58343.06743 21.4953 8.40196 24.39427 6.80899-.50262 8.7316-9.36488 9.26494-22.41881-5.57482-.34631-12.5118-.78972-17.6669-1.97546z" fill="#f7f7ff"/><path d="m-471.30265 273.26455c-.76726 10.58343-.68069 19.58345 7.65384 22.48242 6.80899-.50262 7.73411-9.03239 8.26745-22.08632-7.15417.23556-10.76619-.29097-15.92129-.3961z" fill="#f7f7ff"/><g transform="translate(-750.0847 3.321207)"><path d="m129.30418 188.07933c-3.28378 16.16581-2.22924 41.74051.80809 53.23862 3.02869-2.96142 3.99944-25.38125 4.97962-33.66879-3.7952-6.5443-4.06117-11.3706-5.78771-19.56983z"/><path d="m159.01355 234.64574c.20984 5.71227-1.2286 18.0384 2.91666 22.96359 2.47277-3.47684 2.96091-13.32909 3.35442-18.8852z"/><path d="m186.81741 249.16797c.61444 5.53292.08514 14.17412 2.97014 19.2346 2.05746-3.24626 2.78254-11.64801 2.95129-16.88762z"/><path d="m214.7459 258.64687c.61444 5.53292-.84392 11.92574 2.82848 17.45866 3.4218-3.38127 2.44675-11.65338 3.63471-15.77926z"/><path d="m263.49508 268.47797c-.05055 4.20294-.51141 9.85142 2.41287 14.05436 2.20677-2.76133 2.63245-9.14363 2.99473-13.66239z"/><path d="m285.61464 269.90148c.61444 5.53292-2.5603 9.10309 1.1121 14.63601 2.94799-2.47655 2.25316-10.11695 3.1013-14.16072z"/><path d="m239.7416 264.01986c-.05055 4.95105-1.43916 11.44739 2.23324 16.98031 1.88223-2.98453 2.86087-11.84274 3.08993-15.65386z"/></g></g><path d="m-515.90047 267.34741c-.05249 0-.10499 0 0 0z" fill="none" stroke="#000"/></g><g fill="#fff" fill-rule="evenodd" transform="matrix(-1 0 0 1 -760.3191 .443586)"><path d="m-606.53338 260.67739c4.92329 65.36645 38.61325 167.21124 18.48297 188.7209-2.43197 7.84138-4.86394 5.18024-7.29591 4.37755-13.42022-30.48602-46.85871-85.80458-55.93532-164.88759 8.84549-.3734 14.82437-10.16679 17.51019-18.96937 9.71342 45.77164 16.50814 93.73324 31.12921 130.35361-11.99367-42.32033-18.87526-89.75274-27.23806-133.75837 8.54869 4.92255 17.52855.75869 23.34692-5.83673z"/><path d="m-577.83614 273.81004c-3.25197 2.98014-6.99033 4.6977-9.75591 7.05621-3.71968-.56222-6.46657-2.41412-9.69985-4.62424 6.46215 53.04671 26.73107 114.30849 24.8061 156.13249 6.29801 12.72964 28.06835-11.94503 27.72446-31.12922l-5.35034-120.13933c-4.02457 1.85566-8.00827 2.53417-11.67224 5.50517-6.08493-2.86589-6.98811-3.4297-9.72909-7.93714l9.72787 111.38424z"/><path d="m-543.28834 288.87098 10.0037 6.51907 9.81932-6.64414 2.75146 88.04673 2.0636-84.6074 8.97439 6.06541 8.22224-4.00182c-.12243 29.26487.3517 58.38061-1.37573 88.04673-2.99417 16.44908-13.91303 28.04324-28.20247 35.08112-12.5859-.89521-5.90939-87.93208-12.25651-128.5057z"/><path d="m-493.18389 296.01287c5.9672 5.76474 10.25706 6.45984 14.74267 1.11264l-1.11266 67.31558 7.23225-67.31557c4.5676 1.62912 9.22078 5.44064 13.07369 2.78163l-1.39082 48.95678c-.43573 19.71847-11.45434 51.47913-31.15431 53.68556-11.97918-5.23433 4.07973-4.8215-1.39082-106.53662z"/></g><path d="m-441.0951 489.65697c11.19353 1.82926 10.79569 15.08765 3.15491 20.82915-.91398-5.21624-5.07304-5.04775-7.60522-5.4242-3.4752-7.6143-1.18849-12.34765 4.45031-15.40495z" fill="#fe0" fill-rule="evenodd"/><path d="m-537.60475 516.66245c6.98376.25987 9.25724 2.23643 11.67805 9.79702-5.40421 1.70284-7.52567 6.06323-6.41246 12.65551-13.53146-3.6305-11.66227-18.18668-5.26559-22.45253z" fill="#fe0" fill-rule="evenodd"/><path d="m-558.40232 485.249c2.66155 4.23342 4.35543 6.75397 2.09633 12.53566-7.21658 3.25405-11.46729 3.47041-12.06272 8.25114-6.65709-3.99584-9.24028-21.54985 9.96639-20.7868z" fill="#fe0" fill-rule="evenodd"/><path d="m-557.92937 461.88573c3.27605 4.90676 2.02232 8.91355-.17296 13.82031-8.99736-2.59793-8.1309-2.60409-13.34378 2.38915-1.86303-10.58292-.05731-17.12248 13.51674-16.20946z" fill="#fe0" fill-rule="evenodd"/><path d="m-479.5425 436.87468c-9.18972 18.34704-9.43476 27.90823-24.51012 38.75026-9.26579 1.2769-17.49343-2.49875-24.05511-6.33852-5.07291-4.99483-12.83841-9.23591-21.12196-6.11604.96155 5.24909-.26425 7.19829-2.05758 12.44738 4.24549 1.55076 6.29979 2.98407 12.36271.89997 11.71741-1.60368 22.62933-1.0909 31.0216 3.98096-13.30553.77468-18.85392 2.40925-26.72252 1.49354-8.01433-.93266-12.58797-3.3116-17.86175 1.1145 2.19139 6.42849.65213 8.7966.63874 13.43565 5.81964 5.09941 10.52761 1.80939 16.34725-1.92698 2.32293-10.71686 16.94746-6.35399 22.79845-5.47013-1.60213 7.1844-2.6851 5.88828-5.50889 10.35106-10.08296 2.44681-14.5994 6.02454-13.77796 12.40863 3.5689 2.22862 7.6543 5.22416 10.65105 10.09701 3.50034.87535 6.74498-3.56657 6.83946-12.10865 10.29709-15.39503 17.31646-30.71724 47.42197-17.58955.25728 9.45343 3.6018 9.47617 15.31666 12.84283-1.12597-5.71326.15807-12.39984 3.76565-16.08961-3.64603-7.64126-7.545-7.91743-16.77068-7.10787l-13.01221-.42343c-8.76246-2.22632-10.17415-2.20296-6.2926-11.63929 8.74836-14.02806 9.80634-13.25291 22.61473-25.65696-3.37566-4.61849-11.04139-9.98586-18.08689-7.35476z" fill="#fe0" fill-rule="evenodd"/><g fill="#fe0" fill-rule="evenodd" transform="matrix(-1 0 0 1 -762.1148 0)"><path d="m-441.0951 489.65697c11.19353 1.82926 10.79569 15.08765 3.15491 20.82915-.91398-5.21624-5.07304-5.04775-7.60522-5.4242-3.4752-7.6143-1.18849-12.34765 4.45031-15.40495z"/><path d="m-537.60475 516.66245c6.98376.25987 9.25724 2.23643 11.67805 9.79702-5.40421 1.70284-7.52567 6.06323-6.41246 12.65551-13.53146-3.6305-11.66227-18.18668-5.26559-22.45253z"/><path d="m-558.40232 485.249c2.66155 4.23342 4.35543 6.75397 2.09633 12.53566-7.21658 3.25405-11.46729 3.47041-12.06272 8.25114-6.65709-3.99584-9.24028-21.54985 9.96639-20.7868z"/><path d="m-557.92937 461.88573c3.27605 4.90676 2.02232 8.91355-.17296 13.82031-8.99736-2.59793-8.1309-2.60409-13.34378 2.38915-1.86303-10.58292-.05731-17.12248 13.51674-16.20946z"/><path d="m-479.5425 436.87468c-9.18972 18.34704-9.43476 27.90823-24.51012 38.75026-9.26579 1.2769-17.49343-2.49875-24.05511-6.33852-5.07291-4.99483-12.83841-9.23591-21.12196-6.11604.96155 5.24909-.26425 7.19829-2.05758 12.44738 4.24549 1.55076 6.29979 2.98407 12.36271.89997 11.71741-1.60368 22.62933-1.0909 31.0216 3.98096-13.30553.77468-18.85392 2.40925-26.72252 1.49354-8.01433-.93266-12.58797-3.3116-17.86175 1.1145 2.19139 6.42849.65213 8.7966.63874 13.43565 5.81964 5.09941 10.52761 1.80939 16.34725-1.92698 2.32293-10.71686 16.94746-6.35399 22.79845-5.47013-1.60213 7.1844-2.6851 5.88828-5.50889 10.35106-10.08296 2.44681-14.5994 6.02454-13.77796 12.40863 3.5689 2.22862 7.6543 5.22416 10.65105 10.09701 3.50034.87535 6.74498-3.56657 6.83946-12.10865 10.29709-15.39503 17.31646-30.71724 47.42197-17.58955.25728 9.45343 3.6018 9.47617 15.31666 12.84283-1.12597-5.71326.15807-12.39984 3.76565-16.08961-3.64603-7.64126-7.545-7.91743-16.77068-7.10787l-13.01221-.42343c-8.76246-2.22632-10.17415-2.20296-6.2926-11.63929 8.74836-14.02806 9.80634-13.25291 22.61473-25.65696-3.37566-4.61849-11.04139-9.98586-18.08689-7.35476z"/></g><path d="m-346.7875 469.91071a34.198769 20.399265 0 1 1 -68.39754 0 34.198769 20.399265 0 1 1 68.39754 0z" fill="#fe0"/><path d="m-394.81663 188.65867c4.8159-1.10151 6.11057-3.12199 8.82285-5.12266-.10348 2.99201-1.24661 6.45932-1.52129 10.48431l5.78211-9.77053 3.64585 7.01125c-1.96955 7.21392-7.04836 8.20932-11.89655 9.66595-2.68133-2.30554-5.07946-5.08307-4.83297-12.26832z" fill="#fff" fill-rule="evenodd"/><path d="m-356.80952 194.96672c-.45272.46741-.03611-9.76883-.48883-9.28608-3.01711 3.21722-4.7598 6.13264-7.77691 6.6957.75098 8.90007 4.12663 9.92615 7.80711 10.03772 5.43614-.7682 8.93879-4.43663 10.40948-11.15301-2.23439-.74665-4.46877-2.86204-6.70316-5.8755-.36798-.4963-2.87971 10.12408-3.24769 9.58117z" fill="#fff" fill-rule="evenodd"/><path d="m-374.49982 205.93375c-.514.54675.13989-11.26513-.3741-10.67797-3.3276 3.80133-5.35251 8.0508-8.6801 7.5838.83011 5.90262 4.65665 10.6131 8.06928 11.47102 4.71988-.10948 9.81733-4.99113 11.61287-8.99974-3.36751-.92763-5.973-5.54538-7.64625-9.86153-.24803-.63979-2.72662 11.11011-2.9817 10.48442z" fill="#fff" fill-rule="evenodd"/><path d="m-405.96964 198.69638c-2.91508 16.17477-1.39329 27.91268 8.55064 31.22844 9.10685-1.72051 13.69125-6.83286 14.87069-14.49892-.7685-6.72457-3.74574-8.76692-8.55418-9.02758-.75013-.04067-3.60715 10.12705-4.38624 10.13273 1.21604-.16965 1.90164-11.51554 1.79632-12.11905-1.99291-11.42074-7.89788-7.02253-12.27723-5.71562z" fill="#fff" fill-rule="evenodd"/><path d="m-343.88454 197.95285c-3.98718 5.61881-7.97437 8.50299-11.96155 10.74776-.47402.26687-2.16492 11.89632-2.63894 12.14864-.19182-1.20993-.1213-11.72541-.28477-12.27142-3.37246.52282-8.1757 7.07963-12.6255 10.19398.07201 6.6558 5.65546 8.51116 11.52478 12.26831 10.041-4.59378 19.53653-10.03607 20.81895-28.2543z" fill="#fff" fill-rule="evenodd"/><path d="m-431.86185 228.34987c-2.86939-.31524-5.01507.75832-7.22256 1.18674-.44717.08679-2.19648 11.61129-3.46127 12.97158-.75541-1.86768.42077-9.55817 1.02938-12.85297-.96766-.12119-1.99337-.47479-3.1318-1.20233-4.52344 8.72465-8.79906 28.56185-6.70465 30.28158 10.00257 5.95753 25.25806-9.97736 19.4909-30.3846z" fill="#fff" fill-rule="evenodd"/><path d="m-415.29836 240.53651c-.5465.25786.70233-19.76932.23852-19.48184-3.23435 2.00472-4.42378 5.62174-10.67798 5.58753-2.24136 18.6699-4.53224 36.61347 9.42158 40.63058 7.83667-.39325 14.60373-8.05388 13.83795-35.03651-6.47868-2.35554-8.00966-6.48613-9.54346-9.64102-.3149-.64772-1.67089 17.98926-3.27661 17.94126z" fill="#fff" fill-rule="evenodd"/><path d="m-380.60398 249.29047c-1.31364-1.53116.93238-26.99984.18578-26.04182-3.64132 4.67247-8.53029 9.66706-14.69948 9.87089-2.14588 16.20543-2.22948 30.81728 12.66026 33.85882 17.73125-3.72174 15.4983-19.2405 16.78219-32.68113-4.68317-1.45733-8.0512-6.34619-10.99231-11.10934-.56986-.92288-2.72051 24.97513-3.93644 26.10258z" fill="#fff" fill-rule="evenodd"/><path d="m-338.58817 219.87044c-1.96632 2.73032-3.38848 4.71676-5.41188 6.60122-.49096.45725-.46614 21.61921-1.90597 22.97465-1.37688-2.74963-1.26453-20.47593-1.84937-20.05239-3.5218 2.55044-7.32433 4.21886-11.73692 5.49216-1.97307 15.13266 1.69191 25.88017 13.83795 30.0313 12.82018-3.65019 13.42767-18.87028 11.48256-36.50863.67165-5.52581-2.06489-6.79141-4.41637-8.53831z" fill="#fff" fill-rule="evenodd"/><path d="m-330.04986 225.4645c3.96659 1.96182 7.04172 3.11005 10.62542 3.63047.60953.08852.96511 13.18937 2.41697 15.92917.78798-1.16631.51525-15.64294 1.06608-15.62206 1.75426.06648 3.68649.02467 5.91239-.11007 2.10117 9.20521 1.90626 19.55845.88328 30.32573-17.1347-1.64137-20.52609-14.77274-20.90414-34.15324z" fill="#fff" fill-rule="evenodd"/><path d="m-436.17297 283.30565c-2.06115-2.53385 1.08858-24.13317.39347-23.48227-4.14931 3.88536-7.61549 8.23166-13.4147 8.81721.14939 15.23211-3.47041 32.9031 12.50827 37.89272 10.26064.35282 12.70783-16.48394 13.24406-37.52483-3.92731-1.64497-6.65667-4.48789-8.50927-8.20757-1.29512 3.29141-2.09601 20.87229-4.22183 22.50474z" fill="#fff" fill-rule="evenodd"/><path d="m-402.89684 288.34983c-2.19736-1.20632 1.07908-28.20148.43622-27.54877-3.83802 6.40041-9.56976 11.33271-15.09501 10.04688-2.49571 13.88483-2.09845 29.49483 12.87617 40.46794 16.04563-10.09768 16.10535-14.81798 16.55507-39.36427-4.33921-3.44252-7.54295-6.88504-10.33583-10.32756-.49024-.60427-2.38344 25.29305-4.43662 26.72578z" fill="#fff" fill-rule="evenodd"/><path d="m-365.68308 260.547c-4.65067 6.66838-10.55553 9.27318-16.18717 11.03672-1.54723 20.21795.8319 31.07928 16.92295 39.73216 17.55098-3.91095 21.99788-21.51212 19.4982-41.20373-5.35297-2.42114-10.68965-4.92371-15.08351-12.14038.34176 11.08095-1.38846 24.92082-2.94312 30.31251-1.90225-5.36285-2.2657-19.43353-2.20735-27.73728z" fill="#fff" fill-rule="evenodd"/><path d="m-330.3656 254.29287c-2.89001 5.01143-5.39977 10.78336-9.19726 13.97983-2.35163 27.05251 2.1952 33.24694 13.24406 38.26061 9.04892-3.1809 15.91485-12.66823 16.18718-41.20373-6.86742-3.92417-14.38826-6.91422-15.64973-10.83838l.19833 27.85627c-2.79377-1.79698-3.92703-20.44294-4.78258-28.0546z" fill="#fff" fill-rule="evenodd"/><path d="m-440.7709 355.46777c0-.11139 0-.22278 0 0z" fill="none" stroke="#000"/><g fill-rule="evenodd"><path d="m-440.43673 355.80194c-15.88952-6.84717-12.62272-34.23821-11.12393-55.51174 1.59606 1.49302 3.82462 5.71362 5.69356 7.10746-.00543 3.3825-.88619 18.68744 1.51815 23.89498 1.66739-2.65615 1.38598-21.82903 2.12703-21.49826 2.59837 1.1598 5.33873 1.57475 8.13443.56037-.01135 15.3855 4.4792 41.9122-6.34924 45.44719z" fill="#fff"/><path d="m-420.25734 330.40008c-2.80535-2.36569-2.21569-26.52515-2.7577-25.84541-2.46552 3.09205-4.93105 4.99318-7.39657 6.46842 1.74374 17.84809.34317 37.7924 17.37686 45.44719 9.91755-3.89366 9.50417-21.29699 8.0201-40.10046-5.03706-1.80979-9.4557-6.36417-13.87569-12.49348-.01448 1.75435.66116 25.15899-1.367 26.52374z" fill="#fff"/><path d="m-386.63528 300.32964c-3.56448 6.47272-8.46565 10.76061-12.03013 13.70099-1.3916 21.55304 1.66224 38.20435 15.37184 41.10297 14.37247-.8543 14.87465-19.65838 14.36933-39.76629-5.07061-2.9981-10.18726-8.48541-14.36933-15.03768.56396 8.58639 1.07499 17.99332-1.00251 23.05777-2.53718-4.72798-2.46977-12.99428-2.3392-23.05776z" fill="#fff"/><path d="m-348.39879 330.66906c-.76775 1.00542 3.66531-29.00669 2.88115-28.03409-4.61294 5.72148-9.62485 10.645-16.38902 12.06399 1.54969 14.82122-4.88058 34.80594 10.35929 40.76881 15.62492-6.65489 17.65709-26.10297 18.37938-46.78387-4.97786-1.26602-6.4951-4.05209-8.10977-6.66338-.53889-.8715-4.45842 27.90101-7.12103 28.64854z" fill="#fff"/><path d="m-312.78359 302.33466.66834 43.77633c-1.15355 6.49272-4.55908 8.48149-8.35427 9.69095-13.87616 1.68696-6.66592-28.95856-8.68843-45.44719 3.1246-.09355 5.88984-.78605 8.3758-1.94403.05072 2.31462.83399 29.19902 1.68743 30.26773.57831-.33152 1.59695-29.96543 1.60632-32.17091 1.6949-1.1799 3.25166-2.59005 4.70481-4.17288z" fill="#fff"/><path d="m-448.26442 360.34361c-.2716 11.3618-9.80663 22.19197-14.8959 33.55377 14.3936 3.08035 24.89971-9.28399 32.55631-33.31579-2.60464.93259-5.76566 2.41972-8.39827 2.82253-.67851 4.47354-5.10825 14.94918-9.23903 18.43982 3.20091-6.50479 6.64763-18.65629 5.79602-18.88288-1.56401-.41616-3.99948-1.34494-5.81913-2.61745z" fill="#fff"/><path d="m-313.45193 361.14867c3.4856 15.52961 9.6823 25.63702 16.70852 34.08539-12.9098-.02866-27.12115-8.16523-32.74871-32.08037 2.29755 1.04597 4.83292 1.74945 6.89564 1.85609.70778.03659 2.93043 11.54296 9.25529 16.40574-3.07397-6.56033-6.16812-16.72985-5.40152-16.98421 1.79965-.59715 3.72146-1.76417 5.29078-3.28264z" fill="#fff"/><path d="m-425.70639 373.70328c-.05204 10.93196 7.55033 26.36856-1.05872 37.31715-13.42548-9.10299-13.83476-25.12209-6.91681-35.73771 3.27077 2.15307 1.12701 15.42569 3.88961 20.32001 2.11475-3.36195-.60268-20.82306 4.08592-21.89945z" fill="#fff"/><path d="m-424.63451 356.61711c3.06964 1.93684 5.81366 4.85055 9.45803 5.06319l4.76083 22.05295.24667-22.86812c4.2063.39252 7.09468-5.48731 10.1341-7.42856.85459 13.94753.30895 34.88608 3.9922 41.12915 1.57271 5.58577-3.23912 12.31083-8.7885 11.72214-20.84921-.01224-14.89897-32.11917-19.80333-49.67075z" fill="#fff"/><path d="m-394.43885 355.12109c2.64188 2.81798 4.9172 6.07581 9.3796 6.70916.7647.10853 3.00499 23.66287 3.91099 23.60184.81487-.03775.18679-23.69312.94345-23.90549 3.99741-1.12195 7.25173-4.47315 10.49414-7.86011-.4498 19.69858 5.29112 45.89606-11.39436 52.36557-11.96443-8.96563-11.06748-32.24724-13.33382-50.91097z" fill="#fff"/><path d="m-352.25547 361.18192c-2.93253-.16247-6.4419-2.34388-10.66707-7.03057.64739 18.24607-6.83488 46.24773 5.33354 50.66855 13.52776-6.65077 18.78477-27.77536 22.06142-52.36558-3.95787 3.1107-7.7971 6.63664-12.23327 8.07329-.95966.31078-2.18248 19.22447-6.49845 25.66553 1.49992-7.60103 2.52099-24.99342 2.00383-25.01122z" fill="#fff"/><path d="m-332.83007 392.86114c-.18737-9.54323-.97774-21.43708-1.52388-20.22824-9.11752 20.1807-9.16806 34.14405 1.978 40.42973 8.03497-5.97544 11.73747-25.84749 2.232-40.73361-.74275-1.16319-.29599 16.96817-2.68612 20.53212z" fill="#fff"/><path d="m-478.62915 419.34222c4.70116-4.92467 11.70223-16.37718 10.89927-16.49232-10.7737-1.54486-28.29386 21.951-26.83389 32.03172 9.4333.06363 16.28002-4.83182 22.42805-11.52154 4.03629-4.39193 9.24254-13.35778 8.07453-17.78057-.21939-.83077-10.05579 12.22568-14.56796 13.76271z" fill="#fff"/><path d="m-284.48774 416.97399c.17144-3.13444-11.66221-16.93716-10.8977-17.0867 4.50976-.88213 10.22062 4.60001 15.91255 10.56133 5.86556 6.14318 13.24642 12.86751 10.24733 19.77828-11.08262 5.1896-14.73776-2.95777-20.70595-9.84872-5.13436-5.9282-8.78173-13.26416-8.04128-18.00855 2.02369.51808 10.31676 10.52217 13.48505 14.60436z" fill="#fff"/><path d="m-322.11756 405.6511c8.17048 5.54812 12.3577 45.85412 2.10571 46.68571-5.1553-8.78308-14.40767-23.28964-12.56902-33.9293 1.21493-.79482 2.93163-2.01603 4.6389-3.60715.42083-.39221 4.45344 13.82313 5.40732 17.90225 1.71341-3.56732-2.56538-20.94522-1.87696-21.96416 1.03313-1.52912 1.86342-3.23216 2.29405-5.08735z" fill="#fff"/><path d="m-437.15559 409.61315c1.07597.39194 2.02715.87271 2.85477 1.44144.95715.65775-.96024 8.47724-6.65338 19.48354 4.38484-1.86948 10.06968-15.37591 10.37326-14.33091 2.02452 6.96878-2.32611 18.4758-12.58699 34.19012-17.28918-17.84579-1.0378-28.3013 6.01234-40.78419z" fill="#fff"/><path d="m-455.98443 416.7697c4.139-2.99062 10.69997-16.18365 11.02517-15.35853 2.58464 6.55785-.27452 9.59689-3.66899 16.2634-4.35967 8.56209-8.1963 16.8248-17.17602 17.0131-2.51937-14.75319.93959-16.86332 4.78857-23.06568 4.45297-7.17566 5.70463-13.10471 12.0849-12.6583.95603.06689-5.73934 15.08754-7.05363 17.80601z" fill="#fff"/><path d="m-320.81088 395.75131c2.72014 11.85845 16.59812 41.54079 26.73245 39.60132 2.05524-12.13804-2.35921-16.91422-6.24345-25.14562-2.04236-4.32811-2.39415-7.75155-5.35423-10.23617-1.06651-.8952-2.4716-1.66854-4.41636-2.3184-.7239-.29408 4.32463 9.55792 5.19954 17.96845-2.75312-7.44264-8.81559-18.8861-9.77643-19.0467-1.63271-.27291-4.0123-.63365-6.14152-.82288z" fill="#fff"/><path d="m-415.7206 408.10423c4.40489 2.06258 9.45968 3.49284 14.08121 1.73308l3.03287 35.96123-6.06575 1.73308c-5.0115-5.47213-7.89412-11.59931-5.42845-19.37211-4.02465-5.96798-8.3327-11.84148-5.61988-20.05528z" fill="#fff"/><path d="m-391.24097 402.03848c-1.80528 4.2687-3.61056 6.17245-5.41584 7.58219l3.24951 34.4448 9.09863-.43326-.21664-33.79491c-2.47343-2.24729-5.32217-3.93162-6.71566-7.79882z" fill="#fff"/><path d="m-379.75936 410.27057c4.33049-.87092 7.82835-5.57342 11.04833-8.66535 1.32666 2.36954 2.46257 5.91763 6.06575 7.14891l-8.88199 35.09471-7.58219-.86654z" fill="#fff"/><path d="m-355.02699 428.9733c3.93568-4.50069 5.97512-14.69012 7.76273-25.63501-3.41293 2.95023-6.69483 6.09698-11.15665 7.47387l-8.69935 33.29048 8.37439 2.56244c4.23215-.76721 2.91693-11.04422 3.71888-17.69178z" fill="#fff"/><path d="m-404.70439 492.12399c-3.11288 73.3354-36.72223 98.60361-89.00546 74.25317-8.79138 13.59922 3.21914 56.27178 56.05869 41.3064 16.48979-8.59377 31.52343-22.07771 38.84768-43.76511 4.4043-23.11192 4.25856-46.22383 4.91743-69.33575z" fill="#fff"/><path d="m-403.22916 546.2157c-7.05972 43.60044-45.90316 55.27793-69.82749 42.28989 40.87017 2.76461 60.33061-14.98843 69.82749-42.28989z"/><g transform="matrix(-1 0 0 1 -764.3314 0)"><path d="m-404.70439 492.12399c-3.11288 73.3354-39.67269 99.09535-87.03849 72.2862-10.75835 16.54968 1.25217 58.23875 54.09172 43.27337 16.48979-8.59377 31.52343-22.07771 38.84768-43.76511 4.4043-23.11192 4.25856-46.22383 4.91743-69.33575z" fill="#fff"/><path d="m-403.22916 546.2157c-7.05972 43.60044-45.90316 55.27793-69.82749 42.28989 40.87017 2.76461 60.33061-14.98843 69.82749-42.28989z"/></g></g><path d="m-390.44385 496.54967c.16392-.16391.32783-.32783 0 0z" fill="none" stroke="#000"/><path d="m-390.93559 496.54967h5.90092l1.47522 73.76144c2.85079 22.53523 4.84854 43.10025.49175 66.87703-3.81615-24.25932-3.03331-44.58469.98348-69.82749l.98349-70.81098 7.37614-.49174c-.02376 41.08132 4.31628 76.74616 14.75229 108.67518 6.7714 16.46304 3.92979 33.16394-.98348 45.73209-5.29808 14.64665-14.86806 21.73297-22.62018 31.47154-8.4755-9.92176-15.58455-15.86823-24.58715-31.47155-7.75379-13.54471-2.68677-33.37674.98349-48.19079 13.19325-29.73135 14.32642-62.72977 15.24403-105.72473z" fill="#fff" fill-rule="evenodd" stroke="#000"/><path d="m-404.70439 587.03036c-13.5144 14.85825-27.81989 26.4984-42.60648 29.74717-2.03687 8.27877-1.09748 16.55753 2.7753 24.8363 7.78013.98074 16.93398-1.33547 26.82013-5.40918.22215-17.95652 6.41112-33.34369 13.01105-49.17429z" fill="#fff" fill-rule="evenodd"/><path d="m-410.9322 596.22548c-11.49955 10.76841-20.53776 20.72551-22.95268 30.07594 12.2912-4.86523 17.9885-17.05061 22.95268-30.07594z" fill-rule="evenodd"/><g fill-rule="evenodd" transform="matrix(-1 0 0 1 -763.5177 .453694)"><path d="m-404.70439 587.03036c-13.5144 14.85825-27.81989 26.4984-42.60648 29.74717-2.03687 8.27877-3.02483 17.13573.84795 25.4145 7.78013.98074 18.86133-1.91367 28.74748-5.98738.22215-17.95652 6.41112-33.34369 13.01105-49.17429z" fill="#fff"/><path d="m-410.9322 596.22548c-11.49955 10.76841-20.53776 20.72551-22.95268 30.07594 12.2912-4.86523 17.9885-17.05061 22.95268-30.07594z"/></g></g><path d="m-264.18255 77.889982c1.92409-1.958439 3.09466-.713281 3.98543 2.425525-3.86744 4.993953 2.42222 14.074827 7.20384 5.658102 1.83526-.303729 2.14766 3.951201 1.44007 4.905071-1.47188 2.418328-7.22315 3.317182-11.34454-1.737804-2.01938-2.689473-2.10542-5.047654-1.2848-11.250894z" fill="#fefeff" fill-rule="evenodd"/><path d="m381.50011 104.36665a2.8072121 5.6144242 0 1 1 -.00008-.04408" fill="#fff" transform="matrix(.550659 .08968694 -.07866543 .62781 -458.2554 -17.20667)"/></g></svg>