<svg height="500" width="800" xmlns="http://www.w3.org/2000/svg"><path d="m0 0h800v200h-800z" fill="#fff"/><path d="m0 199.999995h800v100h-800z" fill="#f00"/><path d="m0 300.000005h800v200h-800z" fill="#fc0"/><g fill-rule="evenodd" transform="matrix(.55236819 0 0 .54743738 -233.254912 32.920886)"><path d="m851.3162 74.41052h595.152v368.424c0 163.872-133.704 297.576-297.576 297.576s-297.576-133.704-297.576-297.576z"/><path d="m857.2202 81.03448h583.344v361.08004c0 160.632-131.04 291.672-291.672 291.672s-291.672-131.04-291.672-291.672z" fill="#f00"/></g><g stroke="#000" transform="matrix(.46167602 0 0 .45797554 229.662019 62.432882)"><g stroke-width="4"><g fill-rule="evenodd"><path d="m301.04145 96.756029s17.12948-26.240901 42.64146-26.240901c0 0-7.28913 6.924682-4.73794 11.298166 2.5512 4.373483-1.09337 14.578278-6.92468 16.400563-5.83131 1.822283-8.38251 9.111423-8.38251 9.111423l-24.05416-5.1024z" fill="#fff" stroke-linecap="round" stroke-linejoin="round"/><path d="m544.4987 85.093406s24.05416-3.280112 38.9969-12.391536c0 0-27.33428 32.07221-69.61128 28.7921-42.27701-3.280113 29.88547-17.129477 30.61438-16.400564z" fill="#fff" stroke-linecap="round" stroke-linejoin="round"/><path d="m338.94497 105.503s16.76502-12.755997 24.41862-21.867421 17.85839-26.969816 44.82821-26.969816-34.25896 20.045133-32.80113 36.08124 61.22877-28.427643 61.22877-28.427643 15.67165-14.213822 38.26798-11.298166c0 0-38.26798 19.316219-38.63244 31.707756-.36445 12.391536 42.64147-11.298166 52.11735-18.951762 9.47588-7.653597 25.51198-11.662623 35.71678-6.195769 0 0-31.3433 12.02708-33.53004 24.783074-2.18674 12.755993 30.69208.575704 48.47278-8.382511 11.93597-6.01354 23.32524-13.849364 26.60535-18.951762 0 0-.72891 29.521014-53.57517 44.09929 0 0-22.23187 8.01806-37.90352.36446 0 0-2.91566-2.551199-9.84034-.72891-6.92468 1.82228-24.78307 5.83131-38.9969-2.186746 0 0-6.56022-3.64457-14.57827.728914-8.01806 4.373482-30.97885 11.662622-40.45473 11.662622l-28.42764 5.1024z" fill="#fff" stroke-linecap="round" stroke-linejoin="round"/><path d="m526.27585 176.20765s31.70776-29.15656 32.80113-49.93061c0 0 1.45783 25.87645-3.28011 37.53907s-29.15656 13.12045-29.52102 12.39154z" fill="#fff" stroke-linecap="round" stroke-linejoin="round"/><path d="m358.99011 130.65053s17.12947 17.12947 41.91255 4.73794c24.78307-12.39154 39.72581-1.82229 39.72581-1.82229s-4.73794 4.37349-15.3072 5.83131c-10.56925 1.45783-25.14753 6.19577-27.69872 14.21383 0 0-.36446 16.76502 42.277-1.82229 0 0 32.80113-19.68067 48.83724-9.84034 0 0-33.16559 10.93371-41.5481 25.51199 0 0 13.12045 13.48491 37.90353-3.64457 0 0 30.24993-26.60535 49.56614-28.7921 0 0-24.95897 23.75241-27.33427 29.52101-2.55119 6.19577-9.47588 12.756 8.38251 10.2048s61.95769-21.86742 71.79802-45.19266c0 0-7.65359 68.88236-98.40338 57.21974 0 0-39.36135 5.83131-55.033-7.6536 0 0-25.14753 2.91566-49.56615-12.75599 0 0-35.71678-17.12948-37.17461-25.87645-1.45782-8.74696 2.18675-9.47588 2.18675-9.47588z" fill="#fff" stroke-linecap="round" stroke-linejoin="round"/><path d="m389.29611 326.98834s30.50283 14.96254 64.15367 9.84176c33.53487-5.10313 104.35209-2.82169 125.39125 63.78915 3.03713 9.61569 6.19411 15.37228 17.49646 28.43174 0 0-20.88964 6.83604-29.14838-11.27991 0 0-12.88522 70.4475 17.2899 100.95061 0 0 6.23182 5.90383 7.54378 15.74354 1.31197 9.83972 5.8486 9.30186 8.85575 11.80766 6.28842 5.24002 10.41677 11.77208 4.91985 25.58326 0 0-9.51172 42.96675-.65598 84.62154 0 0 4.26388 9.83971-3.60789 11.47966-3.27886.21737-8.19474 8.81492-1.31196 13.11962 0 0 5.90383 4.59187.32799 13.44761 0 0-3.27991 8.52775-10.82369 17.05551 0 0-4.59186 6.8878-8.52775.32799 0 0-8.85574 9.51172-11.15168-3.27991 0 0-4.26387-18.03947 4.59187-32.79904 0 0 4.91986-4.91986 1.96794-11.80766 0 0-2.95191-5.24785.98397-13.11962 3.93589-7.87177 7.54379-47.55862 7.54379-47.55862s3.2799-32.47105-22.63135-55.43039c0 0-12.13564 53.13446-8.19976 93.80528 0 0 2.62392 11.47966-4.26387 17.71148-6.8878 6.23182.32799 8.85574.32799 8.85574s4.91985 3.27991-.65599 12.46364c-5.57583 9.18374-12.79162 15.41555-12.79162 15.41555s-10.16771 9.83972-11.47967-.32799c0 0-8.19976 7.21579-8.52775-3.60789-.32799-10.82369 3.60789-29.51914 9.83971-34.11101 0 0 5.70499-2.73697 3.27991-9.18373-2.23887-5.95175 1.72174-10.70337 2.29593-13.44761 4.70598-22.49148 8.52775-34.439 3.2799-71.82991 0 0-2.95191-11.80766-12.46363-19.02345-9.51173-7.21579-62.97417-42.63876-70.18996-67.56604 0 0-127.5883 26.23924-198.43424-40.01484 0 0-6.8878 6.55981-9.83971 7.87178-2.95191 1.31196-9.18373 4.91985-12.79163.65598 0 0-3.60789-1.96795-5.90383-.98397 0 0-37.71891 2.29593-90.19738-37.39092 0 0-7.21579-2.95191-8.85574 3.27991s-14.75957 59.03828-9.51172 70.51795c0 0 5.90383 13.44761-2.95192 11.80765 0 0-9.18373.98398-1.63995 12.46364 0 0 7.54378 2.62393 6.55981 22.95933 0 0-3.60789 15.08757-9.51172 9.83972 0 0-1.63996 13.11962-7.87177 3.2799 0 0-22.959337-28.53517-11.15168-46.24665 0 0 4.263876-4.26388 2.295933-16.07154-1.967943-11.80765-1.967943-13.7756.655981-19.67942 0 0 14.103586-44.9347 14.431576-59.36628 0 0-25.446423 17.02737-29.519138 26.23924-1.969139 4.4539-.983971 8.52775-.983971 8.52775s.655981 11.15168-6.8878 11.15168-4.591866 8.19976-4.591866 8.19976 7.064142 14.1338-5.488394 30.2524c0 0-3.993988 6.13362-9.129116 2.42492 0 0-8.843832 10.12761-10.270256-1.28378-1.426424-11.4114-1.996994-19.68466-.855855-27.81528 0 0 .285285-8.27326 7.702692-15.54803 7.417407-7.27476 5.135128-13.26574 5.135128-13.26574s-1.569067-5.7057 6.41891-12.4099c0 0 46.073506-38.51346 54.061486-53.06299 7.98798-14.54952 19.47061-12.33698 20.8258-12.26725 4.11022.21148 9.4144 5.7057 13.1231 5.7057 0 0 23.96393 5.42042 44.21916 16.83181l3.7087 2.85285s-11.69668-37.65761 20.25523-65.04496c0 0-6.84684-19.68465 20.25523-52.49241l8.55855-37.94289 12.55253.57056c-2.81628-1.12651 36.65586-44.79102 29.09906-53.06298 0 0-15.1201 1.42642-45.93087-3.99399l-5.13513-1.42643c-6.08425 4.15128-26.62112 9.51967-24.81978-3.7087 0 0-9.12912.85585-8.55855-9.98497.57057-10.84083.57057-11.98197 6.84684-13.69368 0 0 13.69133-5.11751 16.87994-4.43424 0 0 33.68558-20.35021 40.76874-22.32031 7.36982-2.04983 9.78987-3.75328 15.48756-7.99832 5.19332-4.658641 24.55776-3.654596 26.4898-.56842 1.7562 2.80529 9.49602-.31584 10.40705-1.682387.91103-1.36655 10.9324-4.555166 17.08187 2.277587 0 0 6.83275 5.23844 7.97154 10.93239 0 0 23.68687-7.0605 40.9965 1.82207 0 0-13.20998 3.18862-20.04273 11.61567-6.83275 8.42706-9.11034 12.0712-17.76515 15.25981 0 0 6.14947 7.74378 2.7331 12.29895 0 0 25.96445 38.94667-.45552 96.79728l5.01068 25.50893-7.74378 10.9324-2.27758 16.3986z" fill="#fff" stroke-linecap="round" stroke-linejoin="round"/><path d="m227.375 194.21875 3.8125 63.40625s33.3165 2.66526 58.96875 12.09375c.00911.00335.02214-.00335.03125 0 25.73924 9.18729 52.625 28.3125 52.625 28.3125l43.53125-46.25c.00001.00001-12.08171-6.2324-23.375 5.46875.00001-.00001-9.50638-19.44845-23.21875.21875.00001-.00001 13.19654 2.47995 7.40625 12.3125-6.95631 11.81261-21.99661-4.89694-20.03125-10.9375.07593-.15135-16.6673 10.09974-20.65625-3.78125-4.23706-14.7444 15.31889-15.77205 16-8.15625 0 .00001 13.29005-10.41862-6.71875-18.65625.00001.00001 2.98491-11.91265-3.46875-20.75-10.61624 2.65406-15.62499 13.84376-15.625 13.84375-20.64268-6.4877-17.09376 10.03125-17.09375 10.03125 5.40052-5.41283 19.75944 7.88966 7.0625 16.5-11.95343 8.10612-18.24263-10.47736-18.28125-10.3125-2.35916 5.89791-24.6289 9.12104-22.40625-4.40625 1.85008-11.25983 13.56251-4.71875 13.5625-4.71875 2.06426-23.88654-17.6875-15.0625-17.6875-15.0625-1.17958-16.21925-14.4375-19.15625-14.4375-19.15625z" fill="#fdc803"/></g><path d="m562.5068 547.98297c.64112-1.02581-92.35105-43.70889-110.30072-103.67007 0 0-4.38456-15.52911-13.49213-19.40467" fill="none" stroke-linecap="round" stroke-linejoin="round"/><path d="m452.61961 477.10413s8.18506-1.81356 12.06062-6.85179" fill="none" stroke-linecap="round" stroke-linejoin="round"/><path d="m254.69646 437.54233s-2.55891-28.31856 14.15928-38.72478" fill="none" stroke-linecap="round" stroke-linejoin="round"/><path d="m107.97847 401.78293 2.03659-11.94156s.01791-5.01251 4.11216-7.74201c4.09424-2.7295 12.62393-7.84731 17.91234-5.11781 5.2884 2.7295 6.31197 1.02356 7.84731 1.02356s28.06794-2.86849 65.59856 22.89116c0 0 1.35001-7.95262 13.10202-13.4369 0 0-13.84126-39.43453 1.56694-48.83614" fill="none" stroke-linecap="round" stroke-linejoin="round"/><path d="m195.60574 376.22967s6.52889 19.84785 10.18507 24.2875" fill="none"/><path d="m345.48018 303.18341c.07268-.43607-21.09915-9.63176-39.40552 4.62343" fill="#fff" fill-rule="evenodd" stroke-linecap="round" stroke-linejoin="round"/><path d="m337.68419 165.90249s14.85687 23.21385 4.02374 53.54662" fill="#fff" fill-rule="evenodd" stroke-linecap="round" stroke-linejoin="round"/><path d="m349.13636 139.90297s-13.92831.61904-20.42819 0" fill="#fff" fill-rule="evenodd" stroke-linecap="round" stroke-linejoin="round"/><path d="m361.65719 120.02631s-11.3681 1.21259-18.79526 8.63975c0 0-3.94094 3.6378-5.91141.30315-1.97047-3.33464 3.48622-6.36613 3.48622-6.36613s11.82282-4.85039 21.22045-2.57677z" fill="#fff" fill-rule="evenodd"/><path d="m323.3088 118.20741s6.28012 4.85039 20.76573-6.36613" fill="#fff" fill-rule="evenodd" stroke-linecap="round" stroke-linejoin="round"/><path d="m316.46374 147.41038s2.25692 18.10992-29.79666 21.15925" fill="#fff" fill-rule="evenodd" stroke-linecap="round" stroke-linejoin="round"/><path d="m225.43112 155.2972s-3.89212 3.00466-15.22609 4.18254" fill="none" stroke-linecap="round" stroke-linejoin="round"/><path d="m242.94253 158.5054s-3.09007 2.33628-7.47294 4.58356" fill="none" stroke-linecap="round" stroke-linejoin="round"/></g><path d="m210.10898 145.63888c2.41231-2.64188 7.15453-7.15056 11.79138-6.67741 6.55007.66837 5.347 5.07964 5.347 5.07964s.13852 3.704-6.41185 1.69985c-3.48711-1.06692-5.73982-.30717-9.95375.82195-2.24898.60261-.77278-.92403-.77278-.92403z" fill-rule="evenodd" stroke-width="2"/><g stroke-linecap="round"><path d="m293.54305 118.77656a5.607286 4.268867 0 1 1 -11.21458 0 5.607286 4.268867 0 1 1 11.21458 0z" stroke-linejoin="round" stroke-width="4.000002" transform="matrix(.493754 .869601 -.869601 .493754 249.5892 -191.195)"/><path d="m275.18583 120.23663s7.4832-16.21276 26.51375-1.52069" fill="none" stroke-linejoin="round" stroke-width="4.6"/><path d="m568.0366 419.65366s-5.61267-13.04975-15.6149-22.69253" fill="none" stroke-linejoin="round" stroke-width="4"/><path d="m215.65547 311.7384c3.49789-3.54433 7.64491-6.84375 12.10241-10.38808" fill="none" stroke-linejoin="round" stroke-width="4"/><path d="m51.711823 460.41128s-3.39789 9.76895-.84947 25.48423" fill="none" stroke-linejoin="round" stroke-width="4"/><path d="m101.32783 521.31637s2.54843 6.79579 8.91949 16.98949" fill="none" stroke-linejoin="round" stroke-width="4"/><path d="m530.31244 680.70459s-4.24737 5.94632-4.6721 17.41423" fill="none" stroke-linejoin="round" stroke-width="4"/><path d="m581.53799 691.06594c-.70473-.14095-3.35174 9.26851-1.2742 21.23687" fill="none" stroke-linejoin="round" stroke-width="4"/><path d="m275.41412 96.884563c-4.0048 2.647504-6.72447 9.316957.63197 12.280337" fill="none" stroke-width="4" transform="translate(6.259348 4.311515)"/><path d="m275.18583 120.23663s.98689-6.18048 7.17816-6.7603" fill="none" stroke-linejoin="round" stroke-width="4.6"/></g></g></svg>