<?xml version="1.0" encoding="UTF-8" standalone="no"?>
<!-- Generator: Adobe Illustrator 16.0.0, SVG Export Plug-In . SVG Version: 6.00 Build 0)  -->

<svg
   xmlns:dc="http://purl.org/dc/elements/1.1/"
   xmlns:cc="http://creativecommons.org/ns#"
   xmlns:rdf="http://www.w3.org/1999/02/22-rdf-syntax-ns#"
   xmlns:svg="http://www.w3.org/2000/svg"
   xmlns="http://www.w3.org/2000/svg"
   xmlns:sodipodi="http://sodipodi.sourceforge.net/DTD/sodipodi-0.dtd"
   xmlns:inkscape="http://www.inkscape.org/namespaces/inkscape"
   version="1.1"
   x="0px"
   y="0px"
   width="361.15px"
   height="216.52px"
   viewBox="0 0 361.15 216.52"
   enable-background="new 0 0 361.15 216.52"
   xml:space="preserve"
   id="svg2"
   inkscape:version="0.48.4 r9939"
   sodipodi:docname="MNLF_flag.svg"><metadata
   id="metadata94"><rdf:RDF><cc:Work
       rdf:about=""><dc:format>image/svg+xml</dc:format><dc:type
         rdf:resource="http://purl.org/dc/dcmitype/StillImage" /></cc:Work></rdf:RDF></metadata><defs
   id="defs92" /><sodipodi:namedview
   pagecolor="#ffffff"
   bordercolor="#666666"
   borderopacity="1"
   objecttolerance="10"
   gridtolerance="10"
   guidetolerance="10"
   inkscape:pageopacity="0"
   inkscape:pageshadow="2"
   inkscape:window-width="1280"
   inkscape:window-height="900"
   id="namedview90"
   showgrid="false"
   inkscape:zoom="0.69314376"
   inkscape:cx="215.65466"
   inkscape:cy="5.2513864"
   inkscape:window-x="-4"
   inkscape:window-y="-4"
   inkscape:window-maximized="1"
   inkscape:current-layer="svg2" />
<g
   id="Layer_7"
   style="fill:#db161b;fill-opacity:1">
	<rect
   x="0"
   y="0"
   fill="#FF163D"
   width="361.15"
   height="216.52"
   id="rect5"
   style="fill:#db161b;fill-opacity:1" />
</g>



<g
   id="g3141"
   transform="matrix(0.95762511,0,0,1,12.246864,-18.568179)"><g
     id="Layer_10"
     style="fill:#ffffff">
	<path
   id="path8"
   d="m 270.058,177.437 c -10.99,0 -10.99,2.396 -21.98,2.396 -10.992,0 -10.992,-2.396 -21.984,-2.396 -10.992,0 -10.992,2.396 -21.984,2.396 -10.992,0 -10.992,-2.396 -21.983,-2.396 -10.992,0 -10.992,2.396 -21.985,2.396 -10.994,0 -10.994,-1.396 -21.988,-1.396 -10.994,0 -10.994,0.396 -21.988,0.396"
   stroke-miterlimit="6"
   inkscape:connector-curvature="0"
   style="fill:#ffffff;stroke:#ffffff;stroke-width:13;stroke-linecap:round;stroke-miterlimit:6" />
	<g
   id="g10"
   style="fill:#ffffff">
		<path
   id="path12"
   d="m 338.999,180.833 c 0,0 -0.221,0.057 -0.647,0.166 -0.434,0.095 -1.047,0.309 -1.902,0.444 -0.854,0.167 -1.916,0.342 -3.197,0.463 -1.282,0.142 -2.809,0.143 -4.467,0.039 -1.666,-0.088 -3.357,-0.285 -5.003,-0.216 -1.661,0.066 -3.392,0.267 -5.307,0.659 -0.988,0.216 -2.008,0.439 -3.057,0.669 -0.56,0.123 -0.984,0.272 -1.484,0.406 -0.491,0.152 -0.989,0.308 -1.493,0.464 -0.985,0.373 -1.93,0.705 -3.002,0.789 -0.55,0.06 -1.114,0.117 -1.741,0.224 -0.661,0.135 -1.33,0.271 -2.006,0.408 -1.433,0.288 -3.026,0.552 -4.604,0.704 -1.576,0.152 -3.158,0.243 -4.711,0.263 l -1.172,0.016 -1.183,-0.012 -1.092,-0.016 -1.261,-0.051 c -1.681,-0.07 -3.293,-0.208 -4.962,-0.41 -3.357,-0.398 -6.446,-1.065 -9.242,-1.43 -2.815,-0.38 -5.632,-0.516 -8.712,-0.458 l -0.604,0.011 -0.509,0.024 c -0.343,0.02 -0.674,0.023 -1.027,0.053 -0.711,0.049 -1.412,0.111 -2.099,0.197 -1.382,0.17 -2.689,0.44 -4.402,0.818 -1.695,0.374 -3.737,0.763 -5.708,0.963 -1.976,0.205 -3.92,0.299 -5.797,0.305 l -0.788,0.004 -0.648,-0.009 -1.329,-0.024 c -1.021,-0.038 -2.043,-0.084 -3.025,-0.173 -1.981,-0.16 -4.087,-0.489 -5.953,-0.889 -1.866,-0.398 -3.298,-0.728 -4.733,-0.926 -1.432,-0.205 -2.926,-0.305 -4.491,-0.352 l -1.188,-0.016 -0.525,-0.003 -0.657,0.009 c -0.415,0.01 -0.929,0.005 -1.263,0.026 l -1.082,0.049 c -1.512,0.094 -2.92,0.258 -4.378,0.534 -1.441,0.267 -3.22,0.716 -5.224,1.062 -1.995,0.351 -4.036,0.547 -5.964,0.635 -0.976,0.055 -1.916,0.063 -2.858,0.074 h -0.773 l -0.644,-0.009 c -0.45,-0.01 -0.809,-0.003 -1.333,-0.027 -2.035,-0.063 -3.931,-0.226 -5.916,-0.521 -1.963,-0.29 -3.843,-0.738 -5.293,-1.04 -1.476,-0.308 -2.763,-0.503 -4.162,-0.625 -0.692,-0.063 -1.403,-0.103 -2.125,-0.128 -0.353,-0.021 -0.725,-0.021 -1.09,-0.027 l -1.009,-0.015 -1.208,0.017 -0.602,0.009 -0.505,0.022 c -0.65,0.022 -1.317,0.063 -1.998,0.124 -1.344,0.12 -2.569,0.303 -3.92,0.579 -1.34,0.271 -2.953,0.66 -4.692,0.954 -1.734,0.297 -3.475,0.474 -5.133,0.58 -1.674,0.084 -3.185,0.126 -4.826,0.098 -1.449,-0.033 -2.718,-0.015 -4.348,-0.123 -1.565,-0.063 -3.027,-0.21 -4.456,-0.353 -0.682,-0.083 -1.358,-0.165 -2.026,-0.247 -0.63,-0.08 -1.22,-0.144 -1.827,-0.166 -0.603,-0.025 -1.145,0.012 -1.7,-0.073 -0.548,-0.071 -1.087,-0.226 -1.625,-0.38 -0.541,-0.154 -1.074,-0.307 -1.6,-0.457 -0.546,-0.131 -1.085,-0.261 -1.616,-0.388 -0.536,-0.127 -1.064,-0.252 -1.585,-0.375 -0.106,-0.03 -0.314,-0.063 -0.337,-0.091 l -0.41,-0.081 c -0.272,-0.057 -0.542,-0.112 -0.81,-0.168 -4.265,-0.878 -7.983,-1.644 -11.045,-2.273 -3.115,-0.602 -5.546,-1.262 -7.197,-1.653 -1.648,-0.43 -2.527,-0.658 -2.527,-0.658 0,0 0.875,-0.245 2.516,-0.706 1.637,-0.428 4.031,-1.086 7.052,-1.92 1.489,-0.423 3.232,-0.855 5.105,-1.338 1.875,-0.481 3.85,-0.891 5.989,-1.39 0.267,-0.061 0.535,-0.122 0.806,-0.184 l 0.408,-0.089 c 0.251,-0.029 0.318,-0.054 0.487,-0.08 0.583,-0.105 1.173,-0.212 1.773,-0.319 0.604,-0.106 1.217,-0.214 1.838,-0.322 0.64,-0.087 1.289,-0.174 1.946,-0.263 1.315,-0.264 2.699,-0.099 4.021,0.181 0.643,0.131 1.317,0.221 1.966,0.296 0.61,0.074 1.227,0.149 1.851,0.226 1.189,0.116 2.4,0.239 3.571,0.284 1.102,0.091 2.624,0.082 4.011,0.112 1.195,0.023 2.57,-0.014 3.821,-0.076 1.264,-0.085 2.485,-0.207 3.724,-0.419 1.235,-0.205 2.596,-0.531 4.287,-0.878 1.679,-0.348 3.553,-0.633 5.364,-0.79 0.896,-0.079 1.817,-0.138 2.766,-0.168 l 0.694,-0.027 0.602,-0.008 1.209,-0.017 1.42,0.015 c 0.445,0.008 0.888,0.009 1.349,0.034 0.908,0.032 1.832,0.084 2.778,0.168 1.877,0.159 3.873,0.469 5.667,0.848 1.817,0.383 3.215,0.713 4.603,0.915 1.362,0.207 2.864,0.333 4.251,0.377 0.33,0.021 0.829,0.017 1.236,0.025 l 0.644,0.01 0.516,-0.002 c 0.776,-0.011 1.559,-0.016 2.308,-0.06 1.521,-0.07 2.938,-0.208 4.368,-0.459 1.426,-0.239 3.031,-0.646 5.025,-1.026 1.976,-0.376 4.051,-0.619 6.037,-0.737 l 1.545,-0.067 c 0.541,-0.026 0.905,-0.018 1.366,-0.028 l 0.658,-0.01 0.79,0.002 1.443,0.021 c 1.94,0.056 3.952,0.185 5.991,0.477 2.037,0.282 4.021,0.745 5.571,1.073 1.552,0.327 2.898,0.533 4.384,0.658 0.75,0.069 1.462,0.096 2.173,0.129 l 1.268,0.022 0.648,0.009 0.162,0.003 c -0.163,-0.002 -0.003,-0.001 -0.021,-0.002 l 0.073,-10e-4 0.292,-0.005 c 1.576,-0.003 3.071,-0.084 4.5,-0.229 1.435,-0.149 2.745,-0.394 4.354,-0.745 1.592,-0.353 3.58,-0.774 5.517,-1.009 0.972,-0.121 1.927,-0.208 2.871,-0.271 0.473,-0.037 0.969,-0.05 1.451,-0.073 l 0.727,-0.03 0.631,-0.011 c 3.496,-0.07 7.157,0.098 10.618,0.569 3.48,0.47 6.457,1.112 9.092,1.411 1.324,0.162 2.677,0.275 3.923,0.326 l 0.926,0.041 1.08,0.017 0.971,0.01 0.965,-0.014 c 1.283,-0.015 2.487,-0.09 3.636,-0.198 1.148,-0.111 2.207,-0.288 3.354,-0.516 0.565,-0.111 1.177,-0.244 1.814,-0.401 0.675,-0.186 1.341,-0.37 2,-0.552 1.4,-0.395 2.896,-0.383 4.296,-0.262 0.697,0.067 1.367,0.123 2.048,0.205 0.667,0.089 1.393,0.164 1.969,0.268 0.569,0.105 1.131,0.21 1.684,0.313 0.171,0.002 0.08,0.007 0.134,0.011 l 0.057,0.011 0.114,0.022 0.229,0.046 0.452,0.096 c 0.299,0.063 0.595,0.127 0.889,0.189 2.357,0.538 4.616,1.209 6.565,2.091 1.971,0.866 3.489,1.813 4.774,2.563 2.536,1.492 4.764,2.382 6.354,2.87 1.601,0.509 2.488,0.76 2.488,0.76 z"
   inkscape:connector-curvature="0"
   style="fill:#ffffff" />
	</g>
	<g
   id="g14"
   style="fill:#ffffff">
		<path
   id="path16"
   d="M 91.507,165.727"
   stroke-miterlimit="6"
   inkscape:connector-curvature="0"
   style="fill:#ffffff;stroke:#ffffff;stroke-linecap:round;stroke-miterlimit:6" />
		<path
   id="path18"
   d="M 127.163,184.635"
   stroke-miterlimit="6"
   inkscape:connector-curvature="0"
   style="fill:#ffffff;stroke:#ffffff;stroke-linecap:round;stroke-miterlimit:6" />
		<path
   id="path20"
   d="m 77.825,201.635 13.682,-10.23 c 0,0 7.359,-6.673 35.656,-6.908 v -11.861 0.139 C 98.866,172.54 91.507,165.867 91.507,165.867 l -13.682,-13.23 v 48.998 z"
   stroke-miterlimit="6"
   inkscape:connector-curvature="0"
   style="fill:#ffffff;stroke:#ffffff;stroke-linecap:round;stroke-miterlimit:6" />
	</g>
</g><g
     id="Layer_11">
	
		<line
   id="line23"
   y2="178"
   x2="317.27399"
   y1="178"
   x1="108.33"
   stroke-miterlimit="10"
   style="fill:none;stroke:#1a1617;stroke-width:1.25;stroke-linecap:round;stroke-miterlimit:10" />
</g><g
     id="Layer_8">
	<path
   id="path26"
   d="m 36.279,173.166 h 36.296 l 4.25,-2.531 v 14.25 L 71.82,183.274 38.93,183.27 c -8.936,3.297 -7.707,11.402 -7.707,11.402 -13.347,1.923 -16.635,-10.439 -16.635,-10.439 0,0 2.411,-10.243 21.691,-11.067"
   stroke-miterlimit="6"
   inkscape:connector-curvature="0"
   style="fill:#fbed06;stroke:#fbed06;stroke-miterlimit:6" />
	
		<rect
   id="rect28"
   height="2.125"
   width="29.75"
   stroke-miterlimit="6"
   y="176.50999"
   x="77.824997"
   style="fill:#fbed06;stroke:#fbed06;stroke-width:2;stroke-miterlimit:6" />
</g><g
     id="Layer_9">
	
		<line
   id="line31"
   y2="183.13499"
   x2="48.325001"
   y1="173.50999"
   x1="47.950001"
   stroke-miterlimit="6"
   style="fill:none;stroke:#1a1617;stroke-width:2.5;stroke-linecap:round;stroke-miterlimit:6" />
	
		<line
   id="line33"
   y2="183.13499"
   x2="56.325001"
   y1="173.50999"
   x1="55.950001"
   stroke-miterlimit="6"
   style="fill:none;stroke:#1a1617;stroke-width:2.5;stroke-linecap:round;stroke-miterlimit:6" />
	
		<line
   id="line35"
   y2="183.13499"
   x2="71.324997"
   y1="173.50999"
   x1="70.949997"
   stroke-miterlimit="6"
   style="fill:none;stroke:#1a1617;stroke-width:2.5;stroke-linecap:round;stroke-miterlimit:6" />
	
		<line
   id="line37"
   y2="183.13499"
   x2="63.325001"
   y1="173.50999"
   x1="62.950001"
   stroke-miterlimit="6"
   style="fill:none;stroke:#1a1617;stroke-width:2.5;stroke-linecap:round;stroke-miterlimit:6" />
	
		<line
   id="line39"
   y2="183.13499"
   x2="40.325001"
   y1="173.50999"
   x1="39.950001"
   stroke-miterlimit="6"
   style="fill:none;stroke:#1a1617;stroke-width:2.5;stroke-linecap:round;stroke-miterlimit:6" />
</g></g>


<g
   id="g3093"
   transform="matrix(0.83880627,0,0,0.92688603,15.782289,4.2278244)"><g
     transform="matrix(0.85204611,0,0,0.87642921,2.6599889,15.227968)"
     id="Layer_4">
	<polygon
   style="fill:#fbed06"
   id="polygon42"
   points="60.227,7.528 65.77,24.906 84.01,24.906 69.194,35.443 74.925,52.758 60.227,41.956 45.534,52.758 51.264,35.443 36.448,24.906 54.688,24.906 " />
</g><g
     transform="matrix(0.85204611,0,0,0.87642921,2.6599889,15.227968)"
     id="Layer_6"
     style="fill:#fff200;fill-opacity:1">
	<path
   style="fill:#fff200;stroke:#1e2358;stroke-width:0.92309998999999998;stroke-miterlimit:6;fill-opacity:1"
   inkscape:connector-curvature="0"
   id="path45"
   d="M 26.911,93.398"
   stroke-miterlimit="6" />
	<path
   style="fill:#fff200;stroke:#fbed06;stroke-width:1.41149998000000010;stroke-miterlimit:6;fill-opacity:1"
   inkscape:connector-curvature="0"
   id="path47"
   d="m 60.928,88.646 c -19.495,0 -35.286,-15.789 -35.286,-35.283 0,-7.159 2.81,-14.817 6.467,-20.373 -12.462,8.963 -20.583,23.599 -20.583,40.133 0,27.29 22.112,49.404 49.402,49.404 27.29,0 49.402,-22.114 49.402,-49.404 0,-16.535 -8.122,-31.17 -20.583,-40.133 3.658,5.556 6.467,13.214 6.467,20.373 0,19.495 -15.791,35.283 -35.286,35.283 z"
   stroke-miterlimit="6" />
</g><g
     transform="matrix(0.85204611,0,0,0.87642921,2.6599889,15.227968)"
     sodipodi:docname="Ph_mnlf-tripoli.svg"
     inkscape:version="0.48.4 r9939"
     id="svg2985"
     style="fill:#008000;fill-opacity:1">
	<g
   id="Layer_2"
   style="fill:#008000;fill-opacity:1">
		<g
   transform="matrix(0.98009419,0.19853305,-0.19853305,0.98009419,-468.03974,-40.103197)"
   id="g6098_2_"
   style="fill:#008000;fill-opacity:1">
			<g
   transform="matrix(0.97382216,-0.22731126,0.22731126,0.97382216,-46.28749,139.53764)"
   id="g6158_2_"
   style="fill:#008000;fill-opacity:1">
				<g
   transform="matrix(0.92478087,-0.02686382,0.02712594,0.93380438,47.187335,19.722255)"
   id="text5990_2_"
   style="fill:#008000;fill-opacity:1">
					<path
   style="fill:#008000;fill-opacity:1"
   d="m 599.216,35.337 c -1.923,0.072 -3.479,-0.539 -4.668,-1.839 -0.362,-0.395 -0.788,-1.075 -1.281,-2.036 -0.338,-0.673 -0.687,-1.023 -1.047,-1.047 -0.48,-0.036 -1.121,0.297 -1.922,1.003 -0.797,0.7 -1.349,1.385 -1.646,2.043 -0.518,1.29 -1.043,2.577 -1.57,3.862 -0.565,1.201 -1.24,1.798 -2.021,1.802 -0.961,-0.005 -1.819,-0.641 -2.58,-1.912 -0.79,-1.362 -1.188,-3.018 -1.187,-4.975 -0.002,-0.782 0.115,-1.835 0.341,-3.157 0.083,-0.492 0.201,-0.739 0.342,-0.737 0.159,-0.001 0.222,0.279 0.198,0.846 -0.01,0.456 -0.04,0.969 -0.089,1.531 -0.025,0.433 -0.036,0.787 -0.034,1.065 0,1.118 0.195,2.211 0.595,3.278 0.489,1.372 1.153,2.061 1.981,2.056 0.721,0.002 1.311,-0.422 1.766,-1.261 0.42,-1.01 0.836,-2.009 1.246,-3.009 0.612,-1.442 1.35,-2.621 2.218,-3.535 0.96,-1.021 1.878,-1.531 2.757,-1.533 0.446,0.002 0.911,0.398 1.408,1.192 0.769,1.261 1.2,1.948 1.296,2.054 1.034,1.189 2.332,1.784 3.893,1.784 l 0.004,2.525 z"
   inkscape:connector-curvature="0"
   id="path6001_2_" />
				</g>
				
					<path
   style="fill:#008000;fill-opacity:1"
   d="m 610.753,24.663 c 0.179,0.639 0.365,1.315 0.562,2.029 0.197,0.709 0.375,1.389 0.54,2.039 0.163,0.646 0.296,1.229 0.398,1.746 0.102,0.516 0.153,0.898 0.151,1.149 -0.002,0.093 -0.012,0.285 -0.034,0.572 -0.025,0.29 -0.067,0.618 -0.128,0.985 -0.064,0.368 -0.15,0.754 -0.258,1.161 -0.112,0.407 -0.244,0.777 -0.4,1.114 -0.156,0.336 -0.339,0.611 -0.552,0.83 -0.211,0.218 -0.458,0.328 -0.739,0.328 -0.512,10e-4 -1,-0.087 -1.453,-0.27 -0.45,-0.176 -0.866,-0.399 -1.241,-0.654 -0.374,-0.259 -0.71,-0.546 -1.009,-0.859 -0.295,-0.31 -0.554,-0.596 -0.772,-0.854 -0.218,-0.258 -0.47,-0.566 -0.752,-0.926 -0.2,0.423 -0.38,0.795 -0.539,1.114 -0.154,0.319 -0.347,0.667 -0.573,1.043 -0.226,0.378 -0.507,0.722 -0.842,1.043 -1.323,0.493 -0.872,0.181 -1.334,0.391 -0.602,-2.851 -0.477,-2.497 0.51,-2.793 0.478,-0.234 0.88,-0.504 1.207,-0.809 0.331,-0.306 0.579,-0.598 0.75,-0.879 0.175,-0.281 0.259,-0.461 0.259,-0.54 0,-0.156 -0.042,-0.582 -0.128,-1.277 -0.086,-0.696 -0.252,-1.746 -0.503,-3.152 0.233,-1.24 -0.008,0.037 0.237,-1.227 0.387,-0.954 -0.053,0.029 0.415,-0.952 0.4,-0.703 -0.015,-0.018 0.365,-0.717 0.148,0.696 0.276,1.348 0.386,1.956 0.127,0.705 0.25,1.418 0.374,2.144 0.128,0.729 0.351,1.419 0.68,2.077 0.236,0.453 0.522,0.874 0.867,1.264 0.346,0.391 0.716,0.727 1.116,1.007 0.396,0.283 0.798,0.506 1.206,0.669 0.408,0.163 0.791,0.246 1.147,0.245 0.39,0.001 0.617,-0.054 0.68,-0.164 0.062,-0.109 0.096,-0.226 0.095,-0.351 -0.296,-1.032 -0.656,-2.291 -1.079,-3.774 -0.517,-1.766 -0.539,-1.485 -0.748,-2.297 0.53,-1.371 -0.017,-0.037 0.546,-1.353 0.585,-1.085 0.015,0.06 0.593,-1.058 l 0,0 z"
   sodipodi:nodetypes="ccccccccccsccccccccccccccccccccccccccccccc"
   inkscape:connector-curvature="0"
   id="path5368-3_2_" />
			</g>
		</g>
		<path
   style="fill:#008000;fill-opacity:1"
   d="m 87.982,107.807 c -0.333,-0.549 -0.835,-1.282 -1.504,-2.19 -0.67,-0.91 -1.488,-1.96 -2.454,-3.157 -0.504,-0.619 -1.056,-1.294 -1.651,-2.025 -0.595,-0.731 -1.19,-1.469 -1.78,-2.219 -0.593,-0.751 -1.162,-1.497 -1.706,-2.237 -0.544,-0.743 -1.023,-1.442 -1.429,-2.097 -0.043,-0.075 -0.107,-0.275 -0.195,-0.6 -0.086,-0.327 -0.17,-0.669 -0.247,-1.036 -0.075,-0.362 -0.144,-0.854 -0.204,-1.472 0.378,0.394 0.786,0.912 1.218,1.555 1.067,1.561 2.093,2.98 3.073,4.259 0.975,1.276 1.865,2.438 2.665,3.479 0.343,0.447 0.714,0.934 1.109,1.466 0.397,0.528 0.787,1.069 1.169,1.616 0.383,0.546 0.741,1.079 1.08,1.592 0.339,0.516 0.625,0.981 0.858,1.411 0.102,0.185 0.207,0.415 0.317,0.689 0.109,0.272 0.209,0.546 0.298,0.809 0.09,0.271 0.146,0.51 0.167,0.715 0.024,0.205 -0.004,0.329 -0.079,0.374 -0.074,0.036 -0.166,-0.021 -0.273,-0.187 -0.104,-0.157 -0.2,-0.323 -0.29,-0.48 l -0.142,-0.265 z"
   inkscape:connector-curvature="0"
   id="path5346-2_2_" />
		<path
   style="fill:#008000;fill-opacity:1"
   d="M 93.405,103.301 C 93.179,102.69 92.82,101.87 92.327,100.838 91.833,99.808 91.219,98.609 90.482,97.239 90.099,96.531 89.679,95.757 89.223,94.92 88.767,94.083 88.315,93.236 87.869,92.38 87.423,91.523 87,90.674 86.599,89.833 c -0.402,-0.84 -0.744,-1.626 -1.022,-2.356 -0.026,-0.083 -0.05,-0.296 -0.073,-0.64 -0.02,-0.344 -0.033,-0.709 -0.035,-1.091 -0.002,-0.382 0.029,-0.891 0.098,-1.528 0.307,0.461 0.611,1.052 0.92,1.773 0.762,1.754 1.51,3.362 2.241,4.816 0.731,1.454 1.396,2.775 1.992,3.959 0.259,0.509 0.534,1.063 0.828,1.667 0.292,0.603 0.578,1.212 0.854,1.829 0.275,0.617 0.533,1.214 0.771,1.789 0.238,0.577 0.431,1.099 0.578,1.567 0.067,0.208 0.126,0.458 0.18,0.754 0.054,0.295 0.098,0.586 0.135,0.871 0.034,0.287 0.042,0.539 0.021,0.752 -0.017,0.213 -0.071,0.335 -0.157,0.366 -0.084,0.029 -0.166,-0.048 -0.238,-0.228 -0.073,-0.183 -0.139,-0.362 -0.195,-0.542 l -0.092,-0.29 z"
   inkscape:connector-curvature="0"
   id="path5346-2-7_2_" />
		<g
   transform="matrix(0.05040781,0.93524541,-0.8082845,0.05832559,252.71614,-227.8003)"
   id="g6098-7_2_"
   style="fill:#008000;fill-opacity:1">
			<g
   transform="matrix(0.97382216,-0.22731126,0.22731126,0.97382216,-46.28749,139.53764)"
   id="g6158-1_2_"
   style="fill:#008000;fill-opacity:1">
				<g
   transform="matrix(0.92478087,-0.02686382,0.02712594,0.93380438,47.187335,19.722255)"
   id="text5990-2_2_"
   style="fill:#008000;fill-opacity:1">
					
						<path
   style="fill:#008000;fill-opacity:1"
   d="m 272.797,246.085 c -1.922,0.072 -3.48,-0.543 -4.672,-1.84 -0.358,-0.395 -0.787,-1.075 -1.279,-2.037 -0.338,-0.672 -0.686,-1.02 -1.044,-1.045 -0.48,-0.036 -1.122,0.297 -1.919,1.001 -0.801,0.701 -1.349,1.383 -1.651,2.046 -0.518,1.286 -1.041,2.569 -1.568,3.858 -0.567,1.202 -1.239,1.804 -2.019,1.803 -0.961,0 -1.824,-0.637 -2.579,-1.912 -0.794,-1.358 -1.19,-3.018 -1.189,-4.977 -0.001,-0.782 0.113,-1.832 0.34,-3.155 0.083,-0.492 1.487,-7.284 1.633,-7.285 0.156,0.002 -1.067,6.827 -1.09,7.394 -0.011,0.456 -0.041,0.968 -0.092,1.531 -0.022,0.435 -0.036,0.789 -0.034,1.063 -0.002,1.119 0.196,2.214 0.594,3.284 0.493,1.37 1.154,2.055 1.984,2.055 0.719,-0.002 1.31,-0.42 1.765,-1.263 0.422,-1.01 0.838,-2.013 1.247,-3.011 0.612,-1.442 1.351,-2.618 2.217,-3.532 0.958,-1.022 1.88,-1.535 2.758,-1.532 0.442,-0.001 0.911,0.393 1.405,1.188 0.771,1.263 1.202,1.949 1.298,2.057 1.033,1.189 2.331,1.785 3.894,1.78 l 0.001,2.529 z"
   sodipodi:nodetypes="ccccsccccsccccscscccccccc"
   inkscape:connector-curvature="0"
   id="path6001-60_2_" />
				</g>
				
					<path
   style="fill:#008000;fill-opacity:1"
   d="m 314.603,230.228 c 0.179,0.639 0.367,1.32 0.561,2.029 0.198,0.712 0.376,1.39 0.541,2.039 0.163,0.648 0.296,1.23 0.399,1.744 0.101,0.518 0.15,0.9 0.152,1.15 0.001,0.097 -0.012,0.286 -0.035,0.576 -0.023,0.288 -0.066,0.615 -0.13,0.984 -0.06,0.367 -0.147,0.755 -0.256,1.161 -0.109,0.405 -0.243,0.777 -0.398,1.113 -0.156,0.335 -0.342,0.614 -0.549,0.832 -0.212,0.218 -0.46,0.328 -0.739,0.326 -0.517,0.001 -1.002,-0.088 -1.456,-0.268 -0.451,-0.18 -0.867,-0.398 -1.243,-0.656 -0.372,-0.257 -0.711,-0.543 -1.004,-0.855 -0.299,-0.313 -0.558,-0.598 -0.775,-0.857 -0.218,-0.256 -0.47,-0.567 -0.751,-0.924 -0.201,0.42 -0.381,0.791 -0.538,1.111 -0.156,0.321 -0.35,0.669 -0.575,1.045 -0.226,0.373 -0.507,0.723 -0.845,1.042 -1.323,0.489 -0.87,0.178 -1.33,0.389 -0.604,-2.85 -0.48,-2.496 0.511,-2.793 0.478,-0.232 0.879,-0.502 1.208,-0.807 0.327,-0.305 0.576,-0.6 0.748,-0.878 0.172,-0.282 0.258,-0.463 0.257,-0.542 0.001,-0.155 -0.041,-0.581 -0.128,-1.275 -0.087,-0.698 -0.253,-1.747 -0.503,-3.153 0.234,-1.24 -0.006,0.037 0.239,-1.227 0.383,-0.956 -0.054,0.028 0.415,-0.95 0.403,-0.707 -0.014,-0.019 0.363,-0.721 0.152,0.697 0.277,1.349 0.389,1.96 0.123,0.703 0.25,1.416 0.375,2.143 0.126,0.726 0.351,1.419 0.681,2.077 0.233,0.452 0.521,0.874 0.866,1.265 0.342,0.39 0.714,0.727 1.112,1.007 0.398,0.279 0.802,0.505 1.208,0.667 0.403,0.166 0.79,0.247 1.148,0.248 0.393,-10e-4 0.616,-0.054 0.68,-0.163 0.063,-0.11 0.094,-0.229 0.093,-0.352 -0.296,-1.032 -0.655,-2.289 -1.078,-3.772 -0.517,-1.769 -0.539,-1.486 -0.748,-2.3 0.528,-1.37 -0.02,-0.033 0.543,-1.352 0.581,-1.089 0.016,0.058 0.592,-1.063 l 0,0 z"
   sodipodi:nodetypes="ccccccccccsccccccccccccccccccccccccccccccc"
   inkscape:connector-curvature="0"
   id="path5368-3-4_2_" />
			</g>
		</g>
		<g
   transform="matrix(0.68780119,0.31328048,-0.31328048,0.68780119,-181.84778,-16.858075)"
   id="text6257_2_"
   style="fill:#008000;fill-opacity:1">
			<path
   style="fill:#008000;fill-opacity:1"
   d="m 335.039,19.037 c 0.071,-0.302 0.288,-0.271 0.649,0.09 0.96,0.986 1.684,2.305 2.164,3.957 0.482,1.655 0.65,3.305 0.507,4.964 -0.292,2.14 -1.15,4.124 -2.58,5.961 -1.431,1.835 -3.298,3.051 -5.609,3.648 -0.625,0.171 -1.213,0.162 -1.765,-0.032 -2.884,-0.974 -4.675,-1.676 -5.372,-2.108 -0.097,-0.064 -0.143,-0.136 -0.146,-0.239 0.002,-0.093 0.043,-0.18 0.128,-0.248 0.086,-0.07 0.188,-0.091 0.307,-0.056 1.683,0.516 3.137,0.698 4.363,0.542 1.226,-0.156 2.635,-0.743 4.219,-1.767 2.353,-1.531 4.059,-3.303 5.12,-5.317 0.098,-0.179 0.12,-0.371 0.07,-0.581 -0.361,-1.295 -1.319,-2.912 -2.883,-4.845 -0.071,-0.11 -0.096,-0.198 -0.07,-0.273 l 0.898,-3.696 z"
   inkscape:connector-curvature="0"
   id="path6262_2_" />
		</g>
		<g
   transform="matrix(-0.63020174,0.37194585,0.36645327,0.5809098,401.13508,-71.230427)"
   id="text6323_2_"
   style="fill:#008000;fill-opacity:1">
			<path
   style="fill:#008000;fill-opacity:1"
   d="m 501.746,-38.494 c 0.217,-0.434 0.375,-0.649 0.473,-0.649 0.045,10e-4 0.07,0.072 0.068,0.217 0.003,0.683 -0.211,1.507 -0.646,2.47 -0.566,1.24 -2.024,3.426 -4.381,6.561 -1.009,1.335 -3.744,4.84 -8.204,10.512 0.71,0.803 1.118,1.473 1.228,2.001 0.164,0.817 0.252,1.514 0.253,2.091 -0.002,0.78 -0.153,1.472 -0.454,2.074 -0.166,0.348 -0.672,0.805 -1.514,1.371 -0.876,0.588 -1.537,0.883 -1.982,0.883 -0.987,-0.002 -1.478,-0.68 -1.479,-2.038 10e-4,-1.011 0.21,-2.103 0.631,-3.281 0.146,-0.385 0.619,-1.149 1.425,-2.289 -0.168,-0.157 -1.63,-1.371 -4.381,-3.644 -1.922,-1.598 -3.401,-2.945 -4.435,-4.038 -1.743,-1.839 -2.922,-3.229 -3.534,-4.165 -0.073,10e-4 -0.18,-0.04 -0.325,-0.125 -0.178,-0.087 -0.264,-0.176 -0.254,-0.271 0.025,-0.371 0.064,-1.069 0.11,-2.092 -0.011,-0.07 0.019,-0.108 0.092,-0.108 0.107,0 0.778,0.376 2.016,1.134 1.526,0.928 2.29,1.424 2.291,1.5 0,0.07 -0.098,0.112 -0.29,0.123 -0.24,0.016 -0.7,0.025 -1.387,0.036 0.89,0.926 2.667,2.592 5.337,4.995 1.465,1.189 3.436,2.879 5.914,5.066 1.753,-2.295 4.381,-5.744 7.878,-10.351 3.077,-4.073 4.926,-6.733 5.55,-7.983 l 0,0 z m -11.896,23.438 c -0.05,-0.661 -0.695,-1.599 -1.932,-2.811 -0.446,0.625 -0.885,1.247 -1.316,1.876 -0.49,0.753 -0.739,1.334 -0.736,1.73 -0.002,0.504 0.274,0.757 0.827,0.756 0.516,0.001 1.196,-0.246 2.038,-0.74 0.768,-0.458 1.141,-0.726 1.119,-0.811 z"
   inkscape:connector-curvature="0"
   id="path6335_2_" />
		</g>
		<g
   transform="matrix(1.195445,-0.21570201,0.14532029,1.2855092,-719.19132,219.51579)"
   id="text6275_2_"
   style="fill:#008000;fill-opacity:1">
			<path
   style="fill:#008000;fill-opacity:1"
   d="m 688.885,6.794 c 10e-4,-0.059 0.008,-0.169 0.019,-0.324 0.071,-1.598 -0.049,-3.66 -0.36,-6.185 -0.205,-1.442 -0.493,-4.05 -0.866,-7.824 l -0.054,-0.577 c -0.012,-0.242 -0.019,-0.481 -0.017,-0.723 0,-0.971 0.144,-1.908 0.432,-2.811 0.073,-0.157 0.139,-0.282 0.2,-0.378 0.18,-0.169 0.3,-0.168 0.359,-0.002 0.095,0.302 0.247,0.724 0.45,1.263 0.649,1.586 0.956,2.602 0.921,3.048 -0.121,0.216 -0.32,0.607 -0.596,1.173 0.228,1.743 0.54,4.494 0.937,8.255 0.133,1.696 0.181,2.777 0.144,3.248 -0.012,0.094 -0.03,0.232 -0.054,0.414 -0.288,3.414 -1.538,5.834 -3.748,7.265 -1.996,1.311 -4.67,1.965 -8.023,1.964 -0.589,0.014 -0.997,0.013 -1.226,0.001 -0.132,-0.108 -0.199,-0.221 -0.198,-0.341 -0.002,-0.229 0.252,-0.422 0.756,-0.577 5.529,-1.791 9.123,-3.714 10.782,-5.771 0.06,-0.12 0.108,-0.492 0.142,-1.118 z"
   sodipodi:nodetypes="cccccsccccccccccccsccc"
   inkscape:connector-curvature="0"
   id="path6280_2_" />
		</g>
		<path
   style="fill:#008000;fill-opacity:1"
   d="m 101.78,80.641 c -0.049,-0.617 -0.173,-1.439 -0.374,-2.465 -0.2,-1.029 -0.473,-2.22 -0.822,-3.574 -0.182,-0.699 -0.383,-1.463 -0.603,-2.294 -0.219,-0.826 -0.429,-1.664 -0.633,-2.513 -0.204,-0.849 -0.385,-1.692 -0.547,-2.529 -0.164,-0.838 -0.28,-1.624 -0.348,-2.361 -0.003,-0.082 0.037,-0.303 0.117,-0.666 0.079,-0.361 0.174,-0.741 0.286,-1.144 0.111,-0.398 0.294,-0.941 0.553,-1.618 0.177,0.449 0.315,1.037 0.416,1.758 0.262,1.76 0.551,3.36 0.869,4.804 0.318,1.447 0.608,2.756 0.868,3.934 0.112,0.505 0.229,1.057 0.354,1.659 0.124,0.598 0.234,1.205 0.332,1.822 0.098,0.616 0.186,1.217 0.259,1.792 0.072,0.58 0.116,1.108 0.129,1.583 0.007,0.209 -0.008,0.468 -0.039,0.771 -0.032,0.306 -0.074,0.608 -0.122,0.902 -0.048,0.298 -0.115,0.559 -0.197,0.786 -0.084,0.228 -0.175,0.363 -0.272,0.403 -0.096,0.042 -0.155,-0.027 -0.176,-0.21 -0.02,-0.183 -0.035,-0.365 -0.041,-0.545 l -0.009,-0.295 z"
   inkscape:connector-curvature="0"
   id="path5346-9_2_" />
		<path
   style="fill:#008000;fill-opacity:1"
   d="M 98.342,82.722 C 98.3,82.106 98.187,81.281 98.005,80.251 97.821,79.22 97.566,78.026 97.237,76.668 97.065,75.961 96.878,75.195 96.67,74.366 c -0.207,-0.833 -0.405,-1.674 -0.595,-2.524 -0.191,-0.853 -0.361,-1.698 -0.51,-2.538 -0.147,-0.84 -0.252,-1.629 -0.311,-2.366 -0.002,-0.086 0.041,-0.308 0.125,-0.664 0.087,-0.36 0.187,-0.739 0.305,-1.14 0.118,-0.401 0.311,-0.935 0.578,-1.608 0.168,0.452 0.297,1.037 0.391,1.76 0.234,1.764 0.5,3.369 0.794,4.82 0.294,1.449 0.565,2.763 0.808,3.945 0.104,0.507 0.213,1.06 0.327,1.665 0.114,0.6 0.216,1.208 0.307,1.827 0.087,0.619 0.166,1.215 0.231,1.795 0.063,0.581 0.098,1.106 0.105,1.585 0.003,0.209 -0.015,0.466 -0.051,0.77 -0.038,0.306 -0.084,0.603 -0.137,0.901 -0.052,0.298 -0.121,0.558 -0.209,0.783 -0.086,0.226 -0.179,0.361 -0.275,0.399 -0.098,0.039 -0.156,-0.031 -0.174,-0.212 -0.021,-0.185 -0.029,-0.368 -0.031,-0.548 l -0.006,-0.294 z"
   inkscape:connector-curvature="0"
   id="path5346-9-4_2_" />
		<g
   transform="matrix(0.76226388,-0.36802002,0.36802002,0.76226388,-552.56178,374.28479)"
   id="text6337_2_"
   style="fill:#008000;fill-opacity:1">
			<path
   style="fill:#008000;fill-opacity:1"
   d="m 836.44,13.94 0.11,0.147 c 0,1.898 0.481,3.143 1.442,3.733 0.491,0.312 0.948,0.417 1.37,0.321 0.614,-0.143 1.154,-0.495 1.624,-1.064 0.469,-0.563 0.751,-1.184 0.848,-1.855 -0.121,-1.415 0.273,-2.632 1.19,-3.642 0.191,0.003 0.286,0.061 0.287,0.182 0.073,1.104 -0.097,2.068 -0.258,3.4 -0.748,2.491 0.058,-0.012 -0.809,2.501 -1.706,2.853 -0.003,-0.053 -1.708,2.843 -0.567,0.936 -1.239,1.603 -2.02,2 -0.817,0.241 -1.519,0.155 -2.108,-0.263 -0.591,-0.414 -1.058,-1.24 -1.407,-2.476 -0.122,0.155 -0.317,0.369 -0.586,0.638 -0.271,0.273 -0.679,0.664 -1.219,1.18 -1.549,0.904 -3.015,1.445 -4.398,1.622 -0.372,0.003 -0.593,-0.059 -0.665,-0.18 l 0.18,-0.231 c 0.913,-0.543 2.577,-1.747 4.992,-3.608 0.733,-0.577 1.324,-1.407 1.768,-2.486 0.348,-0.904 0.708,-1.81 1.081,-2.724 0.191,-0.046 0.287,-0.059 0.286,-0.038 l 0,0 z"
   sodipodi:nodetypes="cccccccccccccccccccccccc"
   inkscape:connector-curvature="0"
   id="path6344_2_" />
		</g>
		<g
   transform="matrix(0.99967591,0.02545724,-0.02545724,0.99967591,-529.21786,67.384045)"
   id="text6370_2_"
   style="fill:#008000;fill-opacity:1">
			<g
   transform="matrix(0.82620091,-0.09627436,0.09079818,0.77920572,10.589106,96.009327)"
   id="g6381_2_"
   style="fill:#008000;fill-opacity:1">
				<path
   style="fill:#008000;fill-opacity:1"
   d="m 735.841,2.456 c -0.203,0.45 -0.401,0.91 -0.595,1.37 -0.181,0.383 -0.485,0.602 -0.917,0.665 -0.048,0.008 -0.211,0.002 -0.488,-0.023 -0.349,-0.035 -0.673,-0.054 -0.974,-0.05 -1.501,0 -3.142,0.33 -4.921,0.994 -1.334,0.492 -3.713,1.456 -7.14,2.903 -1.18,0.503 -2.344,0.756 -3.498,0.752 l 10e-4,-2.99 c 2.38,-0.001 5.256,-0.8 8.635,-2.397 -0.756,-0.064 -2.089,-0.284 -4.002,-0.667 -1.767,-0.359 -3.075,-0.55 -3.931,-0.557 -0.145,-0.004 -0.254,-0.114 -0.332,-0.324 -0.078,-0.221 -0.096,-0.398 -0.045,-0.529 0.193,-0.514 0.683,-1.194 1.479,-2.033 0.9,-0.973 1.859,-1.756 2.883,-2.342 1.659,-0.965 2.962,-1.524 3.91,-1.68 -0.324,-0.194 -0.486,-0.542 -0.485,-1.044 -0.001,-0.218 0.043,-0.396 0.128,-0.541 0.286,-0.542 0.581,-1.083 0.883,-1.622 0.312,-0.506 0.647,-0.758 1.009,-0.76 0.156,0.002 0.325,0.042 0.503,0.126 0.708,0.315 1.419,0.628 2.129,0.939 0.6,0.323 0.902,0.667 0.9,1.029 -10e-4,0.649 -0.305,1.436 -0.919,2.36 -0.505,0.761 -1.135,1.168 -1.893,1.23 -0.916,0.071 -2.12,0.383 -3.626,0.939 -1.669,0.619 -2.81,1.252 -3.424,1.887 1.516,0.243 3.828,0.595 6.943,1.048 2.727,0.388 5.275,0.575 7.641,0.581 0.376,-0.005 0.423,0.238 0.146,0.736 z"
   inkscape:connector-curvature="0"
   id="path6375_2_" />
				<path
   style="fill:#008000;fill-opacity:1"
   d="m 717.427,9.066 c -1.621,-0.144 -2.916,-0.563 -3.879,-1.257 -0.12,0.492 -0.244,0.816 -0.375,0.974 -0.169,0.217 -0.458,0.323 -0.867,0.323 -0.31,-0.004 -0.956,-0.176 -1.93,-0.522 -1.224,-0.434 -2.049,-0.906 -2.47,-1.428 -0.768,1.278 -1.555,1.915 -2.359,1.91 l 0,-2.99 c 0.397,-0.002 0.995,-0.074 1.799,-0.213 0.565,-0.471 1.101,-1.19 1.604,-2.166 0.48,-0.922 0.813,-1.449 0.995,-1.568 0.323,-0.121 0.619,-0.183 0.883,-0.185 0.54,0.007 1.063,0.277 1.568,0.837 0.454,0.489 0.906,0.983 1.352,1.49 1.274,1.104 2.499,1.722 3.675,1.842 l 0.004,2.953 z m -4.943,-3.132 c -0.561,-1.554 -1.165,-2.342 -1.799,-2.363 -0.35,-0.01 -0.586,0.132 -0.703,0.424 -0.122,0.296 -0.237,0.582 -0.342,0.871 0.011,-10e-4 0.958,0.358 2.844,1.068 z"
   inkscape:connector-curvature="0"
   id="path6377_2_" />
				<path
   style="fill:#008000;fill-opacity:1"
   d="m 705.615,9.066 c -1.069,0.005 -2.089,-0.705 -3.05,-2.126 -0.429,-0.624 -0.99,-1.702 -1.676,-3.224 0.014,0.176 0.019,0.359 0.017,0.543 0.002,1.68 -0.469,3.074 -1.403,4.182 -1.116,1.309 -2.725,1.934 -4.817,1.886 -0.562,-0.008 -1.056,-0.264 -1.477,-0.753 -0.42,-0.489 -0.642,-1.057 -0.667,-1.693 -0.025,-0.774 0.222,-1.689 0.741,-2.76 0.095,-0.192 0.196,-0.299 0.307,-0.325 0.12,-0.026 0.179,0.063 0.181,0.251 -0.005,0.941 0.026,1.472 0.087,1.603 0.134,0.3 0.558,0.454 1.283,0.453 1.286,0.001 2.397,-0.297 3.336,-0.9 1.043,-0.66 1.568,-1.542 1.567,-2.632 -0.002,-0.386 -0.145,-1.169 -0.444,-2.354 -0.294,-1.185 -0.576,-2.102 -0.854,-2.75 -0.036,-0.636 -0.038,-1.141 -0.002,-1.515 0.047,-0.577 0.15,-0.867 0.308,-0.868 0.146,-10e-4 0.345,0.279 0.594,0.833 0.76,1.778 1.508,3.548 2.255,5.316 1.26,2.502 2.502,3.785 3.717,3.84 l -0.003,2.993 z"
   inkscape:connector-curvature="0"
   id="path6379_2_" />
			</g>
		</g>
		<g
   transform="matrix(0.88951483,0.45690627,-0.45690626,0.88951482,-279.21252,-217.8815)"
   id="text6444_2_"
   style="fill:#008000;fill-opacity:1">
			<path
   style="fill:#008000;fill-opacity:1"
   d="m 435.714,131.191 c 0,2.56 -0.904,3.842 -2.704,3.842 -0.567,-0.003 -1.072,-0.205 -1.515,-0.613 -0.3,-0.375 -0.607,-0.739 -0.921,-1.1 -0.214,0.443 -0.533,0.962 -0.955,1.551 -0.541,0.755 -1.346,1.135 -2.415,1.135 -0.782,0.001 -1.425,-0.246 -1.93,-0.739 -0.564,-0.566 -0.812,-1.366 -0.74,-2.398 -1.358,1.033 -2.396,1.742 -3.12,2.127 -1.561,0.853 -3.099,1.28 -4.613,1.28 -0.002,-0.842 -10e-4,-1.682 -0.002,-2.523 1.756,-10e-4 3.205,-0.246 4.345,-0.741 0.71,-0.301 1.968,-1.063 3.769,-2.288 0.192,-0.134 0.323,-0.199 0.397,-0.198 0.109,-0.001 0.163,0.095 0.163,0.288 0,0.073 -0.008,0.167 -0.017,0.288 -0.013,0.121 -0.063,0.439 -0.145,0.955 0.528,1.059 1.273,1.587 2.234,1.587 1.312,0 2.309,-0.762 2.993,-2.289 0.255,-0.553 0.615,-1.051 1.083,-1.498 0.048,-0.023 0.096,-0.041 0.143,-0.052 0.073,-0.001 0.109,0.066 0.109,0.197 0,0.121 -0.14,0.644 -0.417,1.569 0.544,0.719 1.197,1.082 1.967,1.082 0.239,0 0.529,-0.06 0.867,-0.181 0.394,-0.143 0.594,-0.294 0.594,-0.452 10e-4,-0.133 -0.102,-0.334 -0.306,-0.604 -0.205,-0.27 -0.307,-0.484 -0.308,-0.638 -0.059,-0.83 0.067,-1.504 0.38,-2.02 0.036,-0.06 0.078,-0.091 0.124,-0.091 0.181,0.003 0.383,0.293 0.607,0.875 0.221,0.581 0.335,1.133 0.333,1.649 l 0,0 z"
   inkscape:connector-curvature="0"
   id="path6449_2_" />
		</g>
		<g
   transform="matrix(0.89387264,0.19574796,-0.17737217,0.8099606,-416.46691,24.078772)"
   id="text6467_2_"
   style="fill:#008000;fill-opacity:1">
			<path
   style="fill:#008000;fill-opacity:1"
   d="m 495.03,-34.912 c -0.966,1.167 -2.553,2.465 -4.764,3.9 -2.162,0.785 -3.866,1.215 -5.114,1.293 -1.697,0.112 -3.139,-0.324 -4.323,-1.303 -0.484,-0.397 -1.724,-1.765 -3.723,-4.102 -0.154,-0.19 -0.178,-0.353 -0.069,-0.479 0.199,-0.242 0.426,-0.256 0.685,-0.041 1.188,0.981 2.022,1.583 2.504,1.809 1.95,0.925 3.973,1.402 6.066,1.431 2.154,0.034 4.111,-0.415 5.865,-1.353 0.357,-0.185 0.643,-0.684 0.856,-1.487 -0.72,0.434 -1.193,0.689 -1.426,0.763 -0.586,0.2 -1.107,0.113 -1.562,-0.262 -0.62,-0.513 -0.921,-1.204 -0.902,-2.079 0.023,-0.762 0.247,-1.344 0.678,-1.754 0.821,-0.786 1.732,-1.39 2.735,-1.808 1.1,-0.45 2.071,-0.573 2.907,-0.382 0.594,0.491 0.835,1.408 0.725,2.749 -0.124,1.301 -0.502,2.335 -1.138,3.105 l 0,0 z m -1.989,-2.179 c 0.162,-0.445 0.004,-0.863 -0.478,-1.263 -0.403,0.151 -0.63,0.255 -0.677,0.308 -0.195,0.276 -0.065,0.601 0.389,0.977 0.132,0.106 0.385,0.099 0.766,-0.022 l 0,0 z"
   inkscape:connector-curvature="0"
   id="path6472_2_" />
		</g>
		<path
   style="fill:#008000;fill-opacity:1"
   d="m 21.041,90.384 c 0.478,-0.258 1.108,-0.643 1.891,-1.152 0.782,-0.51 1.685,-1.128 2.705,-1.854 0.529,-0.377 1.107,-0.792 1.732,-1.241 0.625,-0.448 1.257,-0.895 1.9,-1.341 0.641,-0.445 1.281,-0.876 1.921,-1.291 0.637,-0.417 1.241,-0.78 1.809,-1.098 0.063,-0.031 0.243,-0.088 0.533,-0.168 0.291,-0.079 0.597,-0.159 0.924,-0.232 0.327,-0.075 0.768,-0.153 1.325,-0.23 -0.333,0.281 -0.776,0.585 -1.329,0.918 -1.349,0.822 -2.572,1.601 -3.668,2.342 -1.098,0.739 -2.093,1.413 -2.986,2.018 -0.382,0.258 -0.803,0.539 -1.259,0.841 -0.454,0.298 -0.918,0.596 -1.391,0.889 -0.473,0.293 -0.931,0.569 -1.375,0.829 -0.444,0.262 -0.853,0.484 -1.224,0.667 -0.165,0.083 -0.367,0.167 -0.608,0.259 -0.241,0.09 -0.481,0.174 -0.72,0.251 -0.237,0.079 -0.449,0.132 -0.635,0.159 -0.186,0.03 -0.3,0.021 -0.342,-0.028 -0.043,-0.047 0.004,-0.113 0.146,-0.196 0.139,-0.079 0.281,-0.156 0.423,-0.227 l 0.228,-0.115 z"
   inkscape:connector-curvature="0"
   id="path5346-2-7-6_2_" />
		<g
   transform="matrix(0.66297183,0.41338475,-0.4858239,0.67551112,-302.37404,-40.899227)"
   id="text6275-0_2_"
   style="fill:#008000;fill-opacity:1">
			<path
   style="fill:#008000;fill-opacity:1"
   d="m 449.719,-69.851 c 0.012,-0.059 0.039,-0.163 0.083,-0.313 0.392,-1.537 0.688,-3.556 0.883,-6.06 0.085,-1.434 0.322,-4.017 0.708,-7.743 l 0.064,-0.566 c 0.036,-0.237 0.079,-0.469 0.126,-0.705 0.195,-0.943 0.527,-1.828 0.996,-2.648 0.104,-0.14 0.194,-0.253 0.273,-0.332 0.215,-0.131 0.333,-0.108 0.357,0.062 0.037,0.308 0.105,0.745 0.194,1.304 0.33,1.654 0.433,2.693 0.306,3.117 -0.165,0.189 -0.441,0.532 -0.829,1.03 -0.123,1.73 -0.367,4.455 -0.724,8.172 -0.207,1.669 -0.379,2.725 -0.509,3.177 -0.03,0.089 -0.076,0.22 -0.138,0.391 -0.972,3.258 -2.7,5.384 -5.185,6.38 -2.251,0.919 -5.042,1.08 -8.376,0.485 -0.586,-0.09 -0.995,-0.164 -1.218,-0.216 -0.112,-0.13 -0.153,-0.251 -0.129,-0.369 0.044,-0.219 0.334,-0.363 0.869,-0.425 5.857,-0.757 9.817,-1.986 11.881,-3.684 0.084,-0.105 0.206,-0.457 0.368,-1.057 l 0,0 z"
   sodipodi:nodetypes="cccccsccccccccccccsccc"
   inkscape:connector-curvature="0"
   id="path6280-3_2_" />
		</g>
		<g
   transform="matrix(0.62733954,0,0,0.62733954,84.631013,73.1473)"
   id="text6688_1_"
   style="fill:#008000;fill-opacity:1">
			
				<path
   style="fill:#008000;fill-opacity:1"
   d="m -37.327,-81.919 c 0.155,1.091 0.232,1.764 0.232,2.016 0,0.795 -0.244,1.305 -0.734,1.533 -0.097,0.061 -0.174,0.091 -0.219,0.091 -0.058,0 -0.11,-0.528 -0.141,-1.585 -0.053,-1.637 -0.497,-3.085 -1.339,-4.346 0.121,-0.264 0.32,-0.95 0.596,-2.054 0.252,0.493 0.478,0.971 0.683,1.44 0.497,1.129 0.799,2.099 0.922,2.905 z m 2.467,6.47 c -0.141,1.009 -0.431,1.729 -0.862,2.162 -0.303,0.303 -0.587,0.45 -0.865,0.45 -0.205,0 -0.47,-0.128 -0.793,-0.392 -0.191,0.225 -0.384,0.454 -0.578,0.683 -0.276,0.276 -0.592,0.416 -0.953,0.416 -0.734,0 -1.101,-0.674 -1.101,-2.021 0,-0.23 0.106,-0.628 0.311,-1.199 0.214,-0.569 0.391,-0.856 0.532,-0.856 0.065,0 0.117,0.054 0.168,0.161 0.058,0.167 0.052,0.387 -0.019,0.651 -0.072,0.321 -0.111,0.54 -0.111,0.646 0,0.493 0.264,0.693 0.792,0.596 0.422,-0.083 0.754,-0.514 0.993,-1.298 0.238,-0.783 0.392,-1.173 0.45,-1.173 0.206,0 0.309,0.175 0.309,0.525 0,0.085 -0.036,0.223 -0.1,0.423 -0.067,0.199 -0.08,0.37 -0.048,0.512 0.245,0.241 0.484,0.361 0.722,0.361 0.194,0 0.349,-0.24 0.47,-0.722 0.085,-0.407 0.174,-0.822 0.271,-1.244 0.026,-0.121 0.064,-0.18 0.129,-0.18 0.084,0 0.161,0.169 0.231,0.505 0.072,0.34 0.091,0.669 0.052,0.994 z"
   sodipodi:nodetypes="cccccccccccscccccscccccccccccccccc"
   inkscape:connector-curvature="0"
   id="path6693_1_" />
		</g>
		<g
   transform="matrix(0.62733954,0,0,0.62733954,83.246887,73.871048)"
   id="text6688-2_1_"
   style="fill:#008000;fill-opacity:1">
			
				<path
   style="fill:#008000;fill-opacity:1"
   d="m -28.954,-59.945 c 0.039,0.315 0.051,0.625 0.051,0.94 0,1.07 -0.193,1.959 -0.593,2.667 -0.431,0.771 -1.018,1.153 -1.745,1.153 -0.978,0 -1.829,-0.496 -2.565,-1.494 -0.489,-0.83 -0.978,-1.659 -1.456,-2.485 -0.134,0.945 -0.553,1.925 -1.261,2.937 -0.883,1.262 -1.87,1.894 -2.958,1.894 -1.061,0 -1.978,-0.509 -2.761,-1.518 -0.646,-0.84 -0.975,-1.613 -0.975,-2.325 -1.185,1.213 -2.267,1.82 -3.239,1.82 -0.555,0 -1.097,-0.181 -1.625,-0.542 -0.592,-0.393 -0.881,-0.869 -0.881,-1.424 0,-0.361 0.212,-0.862 0.643,-1.514 0.387,-0.586 0.734,-1.015 1.051,-1.28 1.03,-0.851 2.022,-1.47 2.969,-1.858 0.62,-0.237 1.057,-0.605 1.321,-1.097 0.085,-0.12 0.226,-0.986 0.431,-2.597 0.026,-0.216 0.079,-0.325 0.161,-0.325 0.11,0 0.235,0.146 0.391,0.431 0.147,0.29 0.228,1.331 0.241,3.121 -0.012,0.964 -0.019,1.929 -0.019,2.902 0.148,1.972 1.025,2.958 2.635,2.958 1.069,0 1.881,-0.393 2.434,-1.173 0.24,-0.335 0.547,-1.062 0.915,-2.181 -0.058,-0.54 -0.225,-1.761 -0.501,-3.662 -0.252,-1.705 -0.381,-2.612 -0.381,-2.719 0,-0.051 0.2,-0.753 0.601,-2.114 0.071,-0.25 0.141,-0.376 0.212,-0.376 0.135,0 0.329,0.77 0.581,2.31 0.393,2.341 0.733,4.096 1.004,5.264 0.496,2.089 1.367,3.298 2.614,3.622 0.375,0.093 0.665,0.146 0.872,0.146 0.502,0 0.753,-0.233 0.753,-0.687 0,-0.17 -0.035,-0.367 -0.111,-0.595 -0.071,-0.225 -0.573,-1.708 -1.515,-4.433 -0.848,-2.49 -1.274,-4.083 -1.274,-4.779 0,-0.155 0.051,-0.419 0.162,-0.792 0.153,-0.483 0.256,-0.854 0.302,-1.118 0.039,-0.204 0.097,-0.307 0.18,-0.307 0.455,10e-4 1.57,3.744 3.336,11.23 z m -14.296,-0.07 v -1.875 c -0.065,0.18 -0.464,0.451 -1.212,0.813 -0.739,0.361 -1.481,0.714 -2.216,1.062 -0.097,0.047 -0.141,0.103 -0.141,0.161 0,0.329 0.482,0.49 1.455,0.49 0.795,0 1.502,-0.22 2.114,-0.651 z"
   sodipodi:nodetypes="cccscccsccscsccccccccccccccccccccccccccccccsccsc"
   inkscape:connector-curvature="0"
   id="path6693-4_1_" />
		</g>
		<path
   style="fill:#008000;fill-opacity:1"
   d="m 67.204,38.99 c -0.03,-0.389 -0.11,-0.909 -0.237,-1.559 -0.124,-0.649 -0.297,-1.402 -0.516,-2.256 -0.117,-0.443 -0.244,-0.929 -0.384,-1.451 -0.136,-0.522 -0.271,-1.053 -0.397,-1.588 -0.129,-0.537 -0.245,-1.069 -0.347,-1.599 -0.101,-0.529 -0.176,-1.026 -0.218,-1.492 -0.002,-0.053 0.02,-0.193 0.07,-0.421 0.05,-0.228 0.111,-0.467 0.181,-0.724 0.071,-0.252 0.189,-0.593 0.352,-1.022 0.111,0.284 0.196,0.655 0.261,1.112 0.166,1.11 0.35,2.123 0.548,3.037 0.204,0.912 0.388,1.74 0.552,2.485 0.068,0.321 0.144,0.668 0.223,1.048 0.075,0.377 0.146,0.762 0.209,1.151 0.063,0.39 0.118,0.769 0.163,1.134 0.046,0.365 0.075,0.698 0.084,0.999 0.003,0.134 -0.005,0.296 -0.026,0.488 -0.022,0.192 -0.045,0.384 -0.078,0.569 -0.029,0.189 -0.07,0.354 -0.122,0.498 -0.053,0.145 -0.11,0.229 -0.172,0.255 -0.061,0.025 -0.102,-0.02 -0.111,-0.135 -0.015,-0.114 -0.023,-0.229 -0.027,-0.344 L 67.204,38.99 z"
   inkscape:connector-curvature="0"
   id="path5346-9-5_1_" />
	</g>
</g></g>
</svg>