<svg enable-background="new 0 0 708.66 425.2" height="425.2" viewBox="0 0 708.66 425.2" width="708.66" xmlns="http://www.w3.org/2000/svg"><g clip-rule="evenodd" fill-rule="evenodd"><path d="m-49-58h769v529h-769z" fill="#fff"/><path d="m0 .003h708.661v212.599h-708.661z" fill="#2b5df2"/><path d="m351.047 41.723h5.209c5.369.242 9.981.598 14.839 1.246-.492 3.594.674 5.999 0 8.947-.188.817-1.137 1.791-1.703 2.604-.577.837-1.556 1.818-1.696 2.493-.112.527.095 1.193.113 1.698.133 3.325.039 7.076.226 10.758 2.341.491 5.007.657 7.477 1.021-.074 1.4-.32 2.625-.453 3.963.453.375 1.467.191 2.036.453.323-1.225.369-2.731.679-3.965 2.774.436 5.373 1.047 8.155 1.474-.204 1.381-.641 2.53-.792 3.961.593.352 1.37.519 2.149.681 1.985-5.263 3.576-10.917 5.439-16.309-.575-.335-1.367-.446-1.928-.792 1.322-4.118 2.661-8.213 3.965-12.345 2.409.724 4.714 1.555 7.134 2.265-.432 1.645-1.01 3.142-1.47 4.756.566.339 1.356.454 2.036.679.741-1.446 1.053-3.325 1.702-4.869 2.301.791 4.63 1.558 7.019 2.265-.527 1.588-.944 3.282-1.584 4.755.534.411 1.409.479 2.036.795.732-1.456 1.107-3.271 1.702-4.869 2.495.974 5.283 1.66 7.814 2.604-1.221 4.294-2.718 8.312-3.965 12.571-.869-.151-1.506-.536-2.379-.681-1.395 3.934-2.612 8.034-3.966 12.005 1.531.776 3.286 1.321 4.984 1.925-1.249 3.392-2.713 6.575-4.078 9.854-1.107.515-2.11 1.131-3.282 1.584-1.33 4.371-2.548 8.857-3.85 13.251.827.417 1.877.611 2.714 1.018-.736 2.318-1.403 4.711-2.148 7.023-4.444 1.969-8.581 3.753-13.815 4.755 26.176 7.441 47.232 20.274 74.178 26.613-5.15 16.239-9.29 36.092-6.798 57.759 2.233 19.354 8.497 36.313 8.833 57.304v4.868c-.615 18.094-5.373 32.763-12.114 44.963-10.027 18.138-24.985 32.446-42.808 42.808-6.051 3.521-12.565 6.399-19.368 9.174-13.199 5.387-27.595 8.927-38.844 17.213-.039 0-.077 0-.115 0-11.262-7.99-25.846-12.182-39.184-17.327-13.439-5.187-25.718-12.052-36.014-20.951-20.355-17.589-36.285-39.538-38.052-75.879 0-1.696 0-3.395 0-5.095.412-10.313 1.871-20.031 3.738-29.445 1.821-9.195 3.936-18.278 5.095-27.86 2.555-21.115-1.541-40.822-6.794-57.531 27.506-6.478 47.324-19.302 73.613-26.613-5.429-1.328-9.712-2.902-13.931-4.871-.577-2.439-1.463-4.576-2.039-7.02 1.007-.164 1.711-.63 2.719-.792-1.197-4.468-2.587-8.737-3.737-13.251-1.161-.613-2.412-1.136-3.511-1.811-1.243-3.325-2.765-6.373-3.965-9.74 1.724-.542 3.298-1.233 4.983-1.813-1.238-4.085-2.68-7.963-3.849-12.118-.948.109-1.614.503-2.492.681-1.233-4.203-2.862-8.615-3.964-12.571 2.569-.866 5.115-1.755 7.813-2.491.571 1.542.994 3.233 1.585 4.757.704-.203 1.383-.429 2.038-.679-.375-1.741-1.02-3.208-1.473-4.871 2.384-.712 4.717-1.475 7.023-2.265.571 1.58 1.047 3.254 1.583 4.869.815-.129 1.513-.376 2.152-.679-.479-1.598-1.044-3.108-1.471-4.756 2.417-.716 4.72-1.545 7.134-2.265 1.274 4.2 2.704 8.245 3.964 12.458-.736.096-1.236.423-1.925.566 1.793 5.532 3.48 11.166 5.437 16.534.546-.472 1.771-.267 2.153-.907-.217-1.33-.634-2.461-.794-3.848 2.774-.437 5.381-1.038 8.153-1.474.18 1.294.459 2.486.566 3.852.492.116 1.477-.16 2.151-.227-.09-1.419-.422-2.597-.451-4.077 2.504-.289 4.919-.667 7.475-.907.08-4.26.128-8.553.339-12.684-.692-1.513-3.032-3.327-3.397-4.983-.62-2.807.454-5.704 0-8.947 4.424-.592 9.026-1.008 14.046-1.245z"/><g fill="#fcef3c"><path d="m344.706 44.44v5.098c-.645-.075-1.584.147-2.039-.114 0-1.624 0-3.248 0-4.871-1.272.126-2.679.114-3.851.341-.26 1.627-.042 3.733-.113 5.548 9.967.265 20.42.038 30.575.113 0-1.887 0-3.775 0-5.661-1.181-.212-2.595-.2-3.85-.341-.258 1.439-.039 3.356-.112 4.984-.659-.06-1.563.126-2.036-.114 0-1.662 0-3.322 0-4.984-1.16-.087-2.343-.15-3.626-.113.009 1.746.02 3.495-.227 4.985-.904-.077-2.114.148-2.83-.114 0-1.586 0-3.171 0-4.758-1.477-.26-3.433-.041-5.098-.113-.074 1.625.151 3.548-.113 4.985-.981 0-1.962 0-2.943 0 0-1.662 0-3.323 0-4.985-1.346-.061-2.496.073-3.737.114z"/><path d="m308.579 50.896c.266 1.776 1.02 3.057 1.358 4.758-1.9.627-3.788 1.268-5.774 1.809-.489-1.511-.933-3.068-1.473-4.529-1.145.328-2.239.706-3.398 1.021.412 1.59.968 3.033 1.473 4.53-1.908.696-3.922 1.287-5.889 1.925-.389-1.498-.907-2.865-1.358-4.303-1.376.246-2.545.702-3.852 1.019.503 1.914 1.157 3.676 1.7 5.55 7.46-2.505 15.216-4.718 22.423-7.475-.832-1.585-1.102-3.73-2.04-5.21-1.083.274-2.018.699-3.17.905z"/><path d="m396.123 49.989c-.719 1.7-1.199 3.637-1.928 5.323 7.389 2.54 14.942 4.916 22.421 7.362.603-1.854 1.211-3.701 1.815-5.55-1.394-.268-2.509-.812-3.965-1.019-.511 1.414-.804 3.045-1.47 4.303-1.818-.71-3.854-1.204-5.667-1.925.398-1.567.992-2.938 1.363-4.53-1.146-.326-2.239-.707-3.398-1.021-.559 1.48-.843 3.235-1.588 4.529-1.833-.691-3.96-1.094-5.661-1.922.456-1.546 1.015-2.987 1.471-4.531-1.092-.376-2.176-.764-3.393-1.019z"/><path d="m340.968 52.708v1.247c8.583-.41 17.457-.389 26.049 0-.051-.619.198-.931.112-1.586-8.684 0-17.366 0-26.048 0-.131.019-.123.179-.113.339z"/><path d="m350.369 55.199v4.077c.44.238 1.301.056 1.923.113-.362-2.938 3.872-2.872 3.511 0 .587-.055 1.403.124 1.815-.113 0-1.358 0-2.717 0-4.077-2.189-.17-5.068-.196-7.249 0z"/><path d="m341.762 55.541v3.962h3.396c-.523-3.25 3.59-2.976 3.285-.114.384-.029.917.087 1.131-.113-.166-1.231-.105-2.688-.113-4.077-2.557.125-5.219.14-7.699.342z"/><path d="m358.637 55.199c-.258 1.178-.043 2.827-.113 4.189h1.131c-.331-3.066 3.714-2.906 3.284.114h3.287c0-1.321 0-2.642 0-3.962-2.444-.203-5.081-.207-7.589-.341z"/><path d="m314.24 57.125c-7.34 2.586-15.15 4.707-22.309 7.475.327.314.214 1.069.565 1.358 7.363-2.529 14.953-4.829 22.312-7.36-.18-.5-.17-1.191-.568-1.473z"/><path d="m393.742 57.125c-.336.343-.302 1.061-.565 1.473 7.426 2.505 14.999 4.859 22.422 7.36.194-.486.38-.979.453-1.584-7.485-2.371-14.885-4.822-22.31-7.249z"/><path d="m355.691 64.147c1.315-.062 2.988.092 3.963 0 .174-.476.09-2.244.113-3.511-1.088-.308-2.869.074-3.965-.227-.255 1.027-.041 2.523-.111 3.738z"/><path d="m341.875 60.749v3.398h3.169c.188-.958.188-2.667 0-3.625-1.015.116-2.516-.251-3.169.227z"/><path d="m348.329 64.26c1.173-.188 2.626-.094 3.962-.113-.038-1.182.056-2.801 0-3.625-1.32 0-2.641 0-3.962 0z"/><path d="m362.938 64.147h3.168c0-1.17 0-2.342 0-3.511-.909-.184-2.094-.095-3.168-.114z"/><path d="m313.448 61.202c-3.119.919-6.174 1.903-9.172 2.945.21 1.073.647 1.917.905 2.943.764-.179 1.314-.571 2.151-.678-.306-1.485.092-2.921 1.926-2.605.47.361.854.806 1.02 1.471 1.426-.383 2.959-.663 4.078-1.358-.405-.805-.661-1.756-.908-2.718z"/><path d="m393.742 64.147c1.377.322 2.528.866 3.965 1.131.218-2.305 4.042-1.633 2.945 1.02.635.344 1.47.491 2.15.792.436-.885.659-1.981 1.018-2.943-3.028-1.01-6.084-1.996-9.173-2.945-.3.981-.673 1.891-.905 2.945z"/><path d="m295.103 67.09c.353 1.081.537 2.33 1.131 3.172 1.036-.514 2.436-.658 3.398-1.246-1.554-2.766 2.823-3.942 2.943-1.134.576-.104.961-.396 1.586-.453-.191-1.092-.537-2.03-.907-2.943-2.766.82-5.473 1.701-8.151 2.604z"/><path d="m404.729 64.487c-.363.922-.709 1.858-.909 2.943.598.084 1.05.31 1.587.453.345-2.766 4.39-1.798 2.945 1.247 1.172.374 2.381.712 3.51 1.133.463-.973.718-2.153 1.135-3.172-2.759-.866-5.44-1.811-8.268-2.604z"/><path d="m314.694 65.278c-1.434.341-2.642.909-4.078 1.246.414 1.284.802 2.596 1.245 3.852 1.378-.362 2.673-.802 3.964-1.247-.252-1.406-.773-2.548-1.131-3.851z"/><path d="m392.159 69.129c1.29.445 2.586.885 3.964 1.247.43-1.271.908-2.488 1.245-3.852-1.414-.364-2.651-.899-4.079-1.246-.339 1.321-.868 2.452-1.13 3.851z"/><path d="m341.875 65.732c.025 2.933-.169 5.645-.226 8.493h2.265c.074-1.547-.152-3.397.113-4.757h5.662c.031-.837-.021-2.533 0-3.736-2.606 0-5.21 0-7.814 0z"/><path d="m351.047 69.356c.449.042 1.086-.104 1.36.112v4.644h3.285c0-1.584 0-3.171 0-4.756h1.246c0-1.208 0-2.416 0-3.624-1.965 0-3.927 0-5.891 0z"/><path d="m358.295 65.844v3.512c1.702.261 3.888.041 5.776.112v4.644c.55.246 1.533.052 2.267.113.034-2.943-.16-5.653-.231-8.493-2.568.073-5.43-.149-7.812.112z"/><path d="m302.915 69.356c.502 1.161.892 2.431 1.247 3.737 1.613-.576 3.406-.974 4.869-1.699-.491-1.17-.792-2.53-1.246-3.737-1.673.517-3.504.875-4.87 1.699z"/><path d="m400.199 67.657c-.367 1.333-.799 2.603-1.249 3.851 1.628.525 3.262 1.042 4.87 1.586.422-1.317.846-2.625 1.248-3.964-1.733-.383-3.093-1.138-4.869-1.473z"/><path d="m299.971 70.147c-1.161.39-2.508.589-3.398 1.247.597 1.063.729 2.593 1.361 3.625.992-.518 2.459-.56 3.282-1.247-.546-1.077-.864-2.382-1.245-3.625z"/><path d="m406.879 73.999c1.128.307 2.235.634 3.284 1.021.485-1.218.884-2.515 1.245-3.852-1.231-.24-2.166-.78-3.398-1.02-.296 1.364-.831 2.488-1.131 3.851z"/><path d="m316.393 70.376c-3.162.952-6.338 1.89-9.288 3.057.381.94.763 1.881 1.021 2.943.357.057.4-.203.792-.113.328 1.485.834 2.791 1.132 4.304.983-.224 1.876-.54 2.719-.904-.341-1.471-.899-2.725-1.247-4.19 1.859-.708 3.861-1.274 5.776-1.926-.179-1.182-.682-2.038-.905-3.171z"/><path d="m391.706 70.376c-.396 1.003-.699 2.098-1.021 3.169 1.883.723 4.124 1.087 5.776 2.039-.359 1.415-.9 2.649-1.247 4.078.844.364 1.736.68 2.719.904.359-1.49.74-2.956 1.244-4.304.348-.082.338.198.681.113.386-.973.666-2.051 1.021-3.056-3.075-.967-6.057-2.022-9.173-2.943z"/><path d="m345.044 71.846c-.085 1.672.18 2.993.114 4.646-1.598.138-3.213.257-4.869.338-.066-1.482-.152-2.945-.227-4.416-1.781.068-3.456.244-5.097.453.177 1.521.348 3.049.452 4.643-1.84.389-3.843.61-5.774.905-.223-1.664-.55-3.224-.907-4.756-1.461.239-2.915.483-4.304.793.197 1.691.685 3.091.794 4.87-1.937.404-3.701.979-5.776 1.244-.312-1.689-.917-3.084-1.246-4.755-1.727.349-3.297.854-4.757 1.473.469 1.457.843 3.008 1.247 4.53-1.74.601-3.496 1.186-5.323 1.699-.464-1.575-.839-3.238-1.472-4.644-1.375.588-3.016.912-4.417 1.472.313 1.726 1.064 3.011 1.359 4.758-1.807.534-3.361 1.319-5.096 1.923-.493-1.658-1.181-3.124-1.699-4.757-1.121.163-1.771.796-2.829 1.021.729 1.949 1.554 3.804 2.377 5.662 14.738-5.789 31.471-10.792 51.302-11.664 24.465-1.077 44.332 5.098 61.496 11.664.837-1.84 1.724-3.634 2.38-5.662-.918-.371-1.861-.708-2.721-1.133-.718 1.547-1.096 3.435-1.928 4.869-1.536-.838-3.547-1.208-4.982-2.151.548-1.456.957-3.047 1.476-4.53-1.552-.488-3.114-.966-4.645-1.472-.472 1.568-.845 3.231-1.473 4.644-1.686-.619-3.605-1.001-5.097-1.813.317-1.572.776-2.997 1.133-4.53-1.62-.419-2.992-1.084-4.757-1.359-.401 1.634-.729 3.349-1.357 4.755-1.939-.401-3.946-.739-5.665-1.357.155-1.695.62-3.081.795-4.757-1.405-.297-2.804-.592-4.303-.793-.305 1.623-.586 3.27-1.022 4.756-1.86-.326-3.831-.546-5.661-.905.215-1.485.356-3.046.453-4.643-1.568-.212-3.713-.436-5.097-.453-.059 1.486-.046 3.048-.226 4.416-1.595-.179-3.487-.06-4.868-.455.002-1.543.19-2.904.111-4.53-1.888 0-3.775 0-5.665 0-.113 1.548-.16 3.161-.336 4.646-1.965 0-3.927 0-5.891 0-.209-1.453-.076-3.249-.338-4.646-1.888.001-3.775.001-5.664.001z"/><path d="m305.633 73.659c-2.357 1.001-5.16 1.561-7.474 2.604.922 2.363 1.656 4.913 2.492 7.363.727-.178 1.439-.373 2.038-.679-.378-1.51-.927-2.847-1.36-4.306 1.78-.712 3.921-1.06 5.55-1.923-.514-.921-.558-2.312-1.246-3.059z"/><path d="m401.218 76.831c1.685.765 3.87 1.036 5.436 1.926-.503 1.344-.921 2.776-1.358 4.19.662.277 1.379.51 2.148.679.732-2.556 1.573-4.998 2.382-7.476-2.571-.827-5.127-1.668-7.703-2.491-.229 1.127-.675 2.043-.905 3.172z"/><path d="m351.727 78.641c-10.48.488-19.811 1.617-28.652 3.738-8.805 2.113-16.903 4.724-24.576 7.815.833.603 2.494 2.153 3.625 2.151.533-.001 1.84-.784 2.717-1.133 6.678-2.649 13.905-4.892 21.178-6.455 8.641-1.855 17.97-3.51 28.085-3.51 10.181 0 19.491 1.549 28.086 3.51 8.498 1.941 16.511 4.512 23.896 7.702 1.068-.857 2.587-1.267 3.512-2.265-15.898-5.781-35.335-12.601-57.871-11.553z"/><path d="m353.425 82.265c-8.695.469-10.983 6.899-9.627 16.536h1.586c-.108-5.745-.659-10.534 2.604-13.136 2.611-2.08 8.452-2.398 11.439-.453 3.601 2.345 3.551 7.834 3.172 13.589h1.585c1.798-9.832-1.728-17.021-10.759-16.536z"/><path d="m338.25 84.305c.191 1.054.382 2.108.453 3.285 1.453-.095 2.686-.41 4.077-.567.804-1.688 2.059-2.924 3.512-3.962-2.66.435-5.523.666-8.042 1.244z"/><path d="m365.203 87.022c1.392.157 2.625.472 4.075.567.043-1.242.398-2.171.453-3.397-2.681-.263-5.523-.966-8.04-1.019 1.689.763 2.636 2.268 3.512 3.849z"/><path d="m329.417 85.665c.236 1.122.421 2.294.679 3.396 2.483-.385 4.929-.809 7.362-1.245-.285-1.112-.019-2.774-.681-3.511-2.41.496-4.963.852-7.36 1.36z"/><path d="m370.528 87.816c2.486.419 4.927.883 7.47 1.245.146-1.179.407-2.238.566-3.396-2.483-.496-5.017-.947-7.584-1.36-.171 1.151-.284 2.361-.452 3.511z"/><path d="m350.482 86.23c.981.339 1.729.911 2.717 1.247 0-.681 0-1.36 0-2.039-.862.309-2.021.32-2.717.792z"/><path d="m354.785 87.477c.989-.408 1.939-.854 2.833-1.36-.942-.23-1.912-.431-2.833-.679-.183.453-.183 1.586 0 2.039z"/><path d="m319.224 87.929c.089 1.381.394 2.549.679 3.738 3.029-.71 5.917-1.559 8.946-2.265-.124-1.272-.397-2.395-.678-3.511-3.013.649-5.894 1.429-8.947 2.038z"/><path d="m379.813 85.891c-.269 1.127-.54 2.254-.679 3.511 3.075.701 5.984 1.563 9.06 2.265.243-1.192.386-2.482.68-3.624-2.962-.775-6.006-1.474-9.061-2.152z"/><path d="m349.009 87.022c-.096.358-.583.324-.68.681 1.749.743 3.194 1.789 4.87 2.604 0-.378 0-.755 0-1.132-1.406-.709-2.687-1.543-4.19-2.153z"/><path d="m358.748 87.022c-1.251.862-2.835 1.393-4.076 2.267v.905c1.601-.48 3.356-1.775 4.982-2.605-.331-.157-.43-.554-.906-.567z"/><path d="m317.751 88.268c-2.52.989-5.463 1.561-7.814 2.718.403.995.542 2.253.907 3.285 2.719-.676 5.199-1.595 7.815-2.377-.203-1.31-.4-2.623-.908-3.626z"/><path d="m334.513 89.516c.082 1.581.335 2.987.453 4.53 2.391-.329 4.832-.605 7.023-1.134-.053-1.676.054-3.191.226-4.644-.077 0-.153 0-.226 0-2.426.485-5.001.814-7.476 1.248z"/><path d="m366.106 93.024c2.345.298 4.504.782 6.911 1.021.109-1.551.421-2.901.452-4.53-2.563-.42-5.122-.841-7.7-1.248.221 1.478.332 3.07.337 4.757z"/><path d="m389.326 91.893c2.691.743 5.131 1.741 7.928 2.377.203-1.232.628-2.24.792-3.51-2.712-.761-5.268-1.68-7.929-2.492-.277 1.195-.565 2.378-.791 3.625z"/><path d="m347.423 89.854c1.895 1.052 3.888 2.001 5.776 3.057 0-.376 0-.755 0-1.132-1.929-.864-3.602-1.988-5.55-2.832-.018.361-.255.5-.226.907z"/><path d="m360.106 88.948c-.734.527-1.678.911-2.946 1.585-1.048.563-2.785.991-2.488 2.265 2.136-.806 3.932-1.953 5.887-2.943-.11-.346.015-.924-.453-.907z"/><path d="m332.927 89.742c-2.437.695-5.05 1.213-7.586 1.811.196 1.54.577 2.896.904 4.304 2.556-.503 5.158-.958 7.588-1.586-.365-1.447-.27-3.354-.906-4.529z"/><path d="m374.263 94.271c2.43.629 5.005 1.112 7.588 1.586.242-1.459.559-2.842.905-4.19-2.467-.778-5.288-1.204-7.812-1.925-.331 1.406-.534 2.939-.681 4.529z"/><path d="m308.804 91.325c-2.148.685-4.104 1.561-6.115 2.38.348 1.086.515 2.354 1.134 3.169 1.895-.786 3.859-1.5 5.887-2.151-.199-1.234-.623-2.244-.906-3.398z"/><path d="m347.197 92.345c2.042.978 3.923 2.117 6.002 3.057 0-.3 0-.603 0-.905-1.951-1.106-3.904-2.211-6.002-3.172z"/><path d="m360.56 91.325c-.854.554-1.764.954-3.173 1.699-1.051.558-2.996 1.097-2.714 2.378 2.199-.933 4.181-2.083 6.226-3.169-.062-.351.032-.862-.339-.908z"/><path d="m398.272 94.724c2.117.636 4.036 1.477 6.117 2.151.281-1.111.647-2.143 1.018-3.169-2.087-.784-4.022-1.719-6.23-2.38-.278 1.155-.645 2.223-.905 3.398z"/><path d="m324.093 91.893c-2.678.38-5.538 1.558-8.381 2.152.162 1.536.681 2.717.907 4.19 2.831-.603 5.496-1.375 8.38-1.926-.246-1.527-.693-2.855-.906-4.416z"/><path d="m382.986 96.197c2.704.769 5.597 1.346 8.38 2.039.376-1.361.719-2.753 1.018-4.19-2.887-.666-5.563-1.538-8.38-2.266-.356 1.459-.691 2.934-1.018 4.417z"/><path d="m347.083 93.932v.905c1.988 1.146 4.042 2.225 6.116 3.285 0-.377 0-.755 0-1.133-2.113-.87-4.083-2.484-6.116-3.057z"/><path d="m360.672 93.818c-.914.498-1.763 1.038-3.172 1.813-1.083.597-3.095 1-2.828 2.378 2.03-.653 4.214-2.126 6.226-3.172-.046-.367.149-.979-.226-1.019z"/><path d="m314.355 94.385c-2.476.959-5.182 1.688-7.702 2.604.448 1.364.628 2.997 1.246 4.19 2.392-.968 4.938-1.781 7.474-2.604-.252-1.485-.431-3.042-1.018-4.19z"/><path d="m392.611 98.574c2.626.809 5.149 1.719 7.702 2.604.265-1.466.775-2.696 1.018-4.19-2.583-.891-5.187-1.759-7.816-2.604-.26 1.438-.733 2.664-.904 4.19z"/><path d="m340.289 94.837c.16 1.312.22 2.723.227 4.19.594.066.856-.199 1.473-.113 0-1.434 0-2.87 0-4.303-.645 0-1.207.079-1.7.226z"/><path d="m365.993 98.914c.597-.067.858.199 1.476.113-.004-1.474.229-2.716.227-4.19-.456-.146-.967-.242-1.589-.226.046 1.517-.199 2.743-.114 4.303z"/><path d="m331.456 96.31c.31 1.274.439 2.731.792 3.964 2.446-.273 4.766-.669 7.021-1.133-.302-1.321-.051-3.196-.678-4.19-2.336.494-4.791.872-7.135 1.359z"/><path d="m368.827 99.254c2.438.243 4.537.825 7.022 1.02.127-1.422.544-2.554.679-3.964-2.412-.496-4.873-.942-7.362-1.359-.089 1.454-.326 2.766-.339 4.303z"/><path d="m329.869 96.536c-2.721.639-5.518 1.2-8.379 1.7.173 1.523.526 2.869.904 4.19 2.831-.606 5.687-1.186 8.494-1.812-.313-1.385-.479-2.917-1.019-4.078z"/><path d="m347.197 98.688c1.209-.074 2.717.15 3.737-.113-1.338-.587-2.464-1.387-3.737-2.039-.184.488-.184 1.664 0 2.152z"/><path d="m357.16 98.688h3.625c.131-.468.305-1.865-.113-2.152-1.076.811-2.458 1.315-3.512 2.152z"/><path d="m377.094 100.613c2.861.612 5.731 1.216 8.607 1.812.313-1.35.552-2.772.904-4.077-2.789-.681-5.797-1.149-8.607-1.813-.331 1.329-.553 2.77-.904 4.078z"/><path d="m303.936 97.782c.343 1.429.747 2.8 1.131 4.19.625-.057 1.011-.351 1.586-.455-.333-1.439-.755-2.793-1.134-4.19-.621.058-1.008.35-1.583.455z"/><path d="m401.331 101.518c.564.113.999.359 1.584.455.434-1.344.787-2.762 1.132-4.19-.573-.105-.96-.397-1.585-.454-.394 1.38-.757 2.793-1.131 4.189z"/><path d="m320.016 98.688c-2.399.582-4.686 1.278-7.021 1.926.266 1.397.715 2.608 1.019 3.963 2.393-.517 4.637-1.175 6.911-1.811-.243-1.421-.647-2.678-.909-4.078z"/><path d="m387.058 102.765c2.292.616 4.543 1.273 6.911 1.811.387-1.273.78-2.542 1.018-3.963-2.332-.648-4.606-1.355-7.019-1.926-.27 1.395-.57 2.753-.91 4.078z"/><path d="m351.387 100.613c-17.929.833-33.292 4.35-47.111 9.059.155 1.09.534 1.957.792 2.946 14.255-4.635 30.123-9.4 48.924-9.4 18.796 0 34.69 4.746 48.924 9.4.28-.938.865-2.144.905-2.946-15.07-4.619-32.559-9.984-52.434-9.059z"/><path d="m311.522 100.953c-2.025.768-4.11 1.477-6.229 2.151.323 1.304.644 2.605 1.021 3.852 2.165-.666 4.337-1.324 6.455-2.039-.437-1.299-.498-2.978-1.247-3.964z"/><path d="m396.348 100.953c-.398 1.265-.771 2.552-1.022 3.964 2.11.724 4.266 1.399 6.457 2.039.247-1.339.66-2.513.907-3.852-2.167-.665-4.199-1.463-6.342-2.151z"/><path d="m352.066 105.03c-9.821.458-19.07 1.951-27.179 4.077 3.402.787 7.2 1.179 10.305 2.266-.47 1.228-1.976.383-2.832.226-1.121-.21-2.366-.361-3.512-.566-3.526-.634-6.998-1.861-10.078-.565 5.882 1.175 11.904 2.213 17.667 3.509-.063 1.188-1.304.795-1.925.68-4.383-.817-8.677-1.625-13.137-2.493-2.957-.573-5.513-1.65-7.588-.226 4.414.908 9.299 1.973 13.704 2.945 1.535.338 3.117.949 4.642 1.019 1.326.061 2.76-.391 4.19-.566 10.589-1.299 22.65-1.312 33.181-.112 1.951.222 4.426.85 6.117.792 1.414-.05 3.15-.681 4.644-1.019 4.718-1.071 9.395-2.167 13.93-3.059-2.225-1.418-4.713-.33-7.59.226-4.56.886-8.905 1.691-13.136 2.493-.727.137-1.861.46-1.924-.794 5.939-1.121 11.941-2.175 17.667-3.509-3.323-1.082-6.543.041-9.965.679-1.097.203-2.43.369-3.512.566-.827.152-2.587 1.075-2.832-.339 3.21-.945 7-1.306 10.195-2.265-9.248-1.863-19.932-4.482-31.032-3.965z"/><path d="m319.111 114.771c-3.755-.854-7.659-2.319-10.985-1.474 2.28.865 4.9 1.624 7.7 2.378 3.701.997 8.096 2.501 11.892 1.133-2.5-.941-5.572-1.351-8.607-2.037z"/><path d="m397.48 112.845c-5.729 1.227-12.018 2.593-17.554 3.963 1.397.188 2.646.523 3.965.792 5.734-1.061 11.184-2.403 15.966-4.417-.767-.012-1.733-.476-2.377-.338z"/></g><path d="m248.896 147.951c3.909 11.919 6.229 25.493 6.229 40.43 0 15.1-2.772 28.552-5.323 41.45-1.25 6.309-2.656 13.04-3.399 19.934-2.462 22.86 2.528 43.607 10.08 58.664 9.25 1.237 15.729 4.944 23.103 8.382 6.922 3.222 15.411 7.155 25.255 5.208 8.472-1.678 14.715-6.207 21.63-9.854 7.025-3.703 14.397-6.787 24.802-6.794 0-61.608 0-124.197 0-186.184-44.263-1.005-65.704 21.8-102.377 28.764z" fill="#2b5df2"/><path d="m318.316 163.013c-.046 1.654-.029 2.914-.678 3.851-.34.49-.917.535-1.358.908-.483.405-.771 1.137-1.247 1.583-.587.554-1.847.884-1.473 1.925.814.559 1.818-.109 2.604.114 1.334.378 2.159 3.608 2.833 4.758 3.799 2.628 5.835 8.339 8.042 12.911 1.235 2.559 2.726 5.543 4.19 8.268.505.939 1.235 2.106 1.358 2.717.237 1.171-.217 2.195 0 3.056.409 1.625 2.046 2.201 2.264 4.304.199 1.908-.094 3.88 0 5.777.119 2.384.34 4.818.566 7.135.234 2.381.76 4.679.794 6.906.111 7.755-5.523 11.911-8.946 16.648.431 3.815 1.018 8.521 1.018 13.25 0 4.872.727 9.844.227 13.934-.178 1.449-2.498 2.655-2.492 3.85.008 1.599 3.517 2.185 4.077 3.62.625 1.604.271 5.022-.227 5.891-.563.984-2.114 1.272-3.171 1.812 1.156 1.713 2.71 3.031 3.851 4.756-.431 1.15-2.997 3.465-3.056 4.76-.065 1.365 1.162 1.947.792 3.621-.265 1.197-1.988 4.541-3.169 5.439-2.937 2.219-6.353.624-8.269-1.815.566-2.274-1.338-2.728-1.473-4.643-.811-.078-1.17 1.233-2.264 1.245-.678-2.041-1.522-3.914-2.266-5.888-.747.405-.753 1.354-1.359 1.927-.578.543-1.646.866-2.492 1.358-2.235 1.295-4.71 2.935-7.021 4.189-.788-.155-1.189-.698-1.925-.905-.425 1.491.186 2.942-.112 4.189-.32 1.331-2.318 2.697-2.831 3.965-1.281-1.715-3.344-3.21-2.946-6.23-.76 2.501-1.65 4.629-5.436 4.077-2.161-.316-7.258-3.943-7.588-6.001-.217-1.346.416-2.173 1.131-3.058-1.32-2.115-3.112-3.758-4.416-5.888.685-1.585 1.641-2.892 2.607-4.19-1.31-6.419-2.4-12.1-3.059-19.142-.088-.943.005-1.966-.227-2.833-.691-2.574-3.726-4.389-3.963-7.131-.103-1.182.304-2.524.452-3.851.425-3.77.848-7.967 1.134-11.666.146-1.908.593-4.413.225-6.457-.293-1.643-1.837-2.634-2.377-4.304-.113-4.558.649-8.838 1.245-13.023-.131-1.608-1.992-2.399-2.036-3.964-.027-.882.893-1.627.905-2.376.019-1.249-1.402-1.993-1.473-3.06-.045-.695.266-1.624.568-2.152.191-.334.775-.583.905-1.131.214-.919-.788-1.612-.905-2.491-.221-1.619 1.217-3.769 2.036-5.436.913-1.854 1.869-3.444 1.813-5.551 2.423-2.833 5.051-6.747 7.476-10.19.854-1.214 1.894-2.858 2.944-3.512 1.4-.872 3.078-.988 4.19-1.926 1.595-1.346 2.238-4.172 3.963-5.21.872-.523 2.006-.523 2.947-.792-.015-.917-1.135-.938-1.7-1.245-.681-.37-1.095-.907-1.699-1.246-.832-1.192-1.495-3.162-.905-5.095-4.22-2.441-7.629-6.304-6.796-13.026.507-4.089 2.832-7.647 5.663-9.965 5.523-4.522 20.292-5.51 27.181-1.359 4.17 2.513 7.134 6.896 7.134 12.797-.003 5.325-2.16 8.818-5.78 11.211z"/><path d="m356.71 119.413v185.957c10.369.019 17.716 3.077 24.688 6.794 6.921 3.69 13.285 8.186 21.743 9.854 9.868 1.947 18.3-1.893 25.255-5.096 7.382-3.398 13.915-7.21 23.106-8.494.113 0 .132-.094.228-.113 4.891-10.44 8.844-22.535 10.189-36.468 1.437-14.818-1.05-29.237-3.625-42.129-2.564-12.84-5.321-26.228-5.321-41.337 0-14.975 2.208-28.667 6.343-40.43-36.818-6.971-57.946-29.634-102.492-28.877-.134.017-.122.177-.114.339z" fill="#fff"/><path d="m326.358 316.354c-6.658 3.456-12.936 7.571-21.178 9.175-9.265 1.8-17.64-1.648-24.688-4.528-7.423-3.037-13.573-6.536-22.084-8.381 3.374 5.406 7.521 11.028 12.119 15.627 1.615 1.613 3.09 3.451 4.87 4.528 2.424 1.471 5.787 2.48 8.946 3.512 3.362 1.101 6.912 1.915 10.193 2.379 7.887 1.116 15.111-.433 21.064-3.172 11.366-5.229 20.913-13.525 35.674-14.608 0-4.114 0-8.23 0-12.343-10.253.41-17.65 4.045-24.916 7.811z" fill="#fff"/><path d="m356.823 308.882c.075 3.964-.149 8.229.114 12.004 14.703 1.122 24.152 9.295 35.56 14.495 5.975 2.724 12.899 4.331 20.84 3.285 4.885-.644 10.444-2.31 14.72-3.962 1.54-.598 3.317-1.075 4.53-1.815 1.708-1.039 3.234-2.965 4.755-4.529 4.675-4.799 8.791-9.91 12.119-15.739-8.451 1.937-14.787 5.533-22.195 8.606-7.092 2.938-15.795 6.305-25.257 4.19-16.129-3.608-25.762-16.02-44.96-16.874-.14.042-.232.145-.226.339z" fill="#2b5df2"/><path d="m349.801 324.169c-9.652 1.115-16.962 5.539-24.234 9.97-7.484 4.552-15.072 8.414-25.821 8.379-6.816-.023-11.917-1.351-17.327-3.398 6.311 5.62 14.058 9.798 21.744 14.042 9.389-1.733 17.065-4.198 23.782-8.38 6.67-4.152 13.507-8.249 23.216-9.061.189-3.625.189-8.037 0-11.665-.429-.09-1.143.09-1.36.113z" fill="#2b5df2"/><path d="m426.133 338.894c.165-.071-.011-.137 0 0-5.606 2.281-12.08 3.771-19.706 3.511-21.054-.729-29.362-17.037-49.717-18.349v11.665c14.524.9 22.09 10.168 34.313 14.268 2.918.981 6.181 1.737 9.629 2.494 1.03.226 2.493.765 3.281.679.658-.07 1.982-1.038 2.945-1.585 6.719-3.824 13.898-7.974 19.255-12.683z" fill="#fff"/><path d="m282.19 339.119c.075.075-.047-.047 0 0z"/><path d="m329.53 348.065c-6.196 3.78-12.682 6.051-20.952 7.813 14.286 5.835 28.181 12.061 42.694 17.667 0-11.361 0-22.726 0-34.087-9.274.399-15.345 4.703-21.742 8.607z" fill="#fff"/><path d="m356.823 339.911v33.521c14.473-5.569 28.456-11.629 42.467-17.665-8.267-1.593-14.502-3.878-20.726-7.588-6.067-3.621-12.395-8.409-21.627-8.607-.133.019-.124.18-.114.339z" fill="#2b5df2"/><path d="m319.451 160.975c.674-.624 1.371-1.411 1.813-2.152 3.341-5.617 1.402-13.375-2.152-16.987-3.363-3.417-9.04-4.521-15.743-4.417-3.381.055-6.504.617-9.06 1.586-4.789 1.818-8.805 6.07-9.287 12.118-.377 4.743 1.806 8.338 4.53 10.192.673.459 1.817 1.559 2.604.34-.472-.81-1.479-.964-2.151-1.473-2.373-1.793-4.392-5.232-3.625-9.627 1.014-5.8 5.729-9.992 11.891-11.325 6.598-1.426 14.785-.915 19.253 2.945 4.193 3.622 5.378 12.384 1.812 17.101-.729.964-1.766 1.477-2.377 2.491 1.044.629 1.834-.182 2.492-.792z" fill="#fcef3c"/><path d="m320.584 150.896c-.777-9.192-8.302-11.854-18.687-11.1-4.757.348-9.334 1.888-11.892 5.097-1.533 1.924-3.194 5.298-2.718 9.06.414 3.277 2.615 5.316 5.435 6.454.445-2.407 1.345-5.275 2.833-6.341 1.448-1.036 4.194-.124 5.435-1.7.263-.605.04-1.698.113-2.491.642-.717 1.405-1.315 2.265-1.812 1.003.542 2.397.244 3.511 0 .685.674 1.838.786 2.152 1.699.244.708-.199 1.594 0 2.718 1.517.508 2.292 2.708 4.19 1.813 2.019 1.111 2.579 3.496 2.151 6.794 3.616-1.755 5.639-5.114 5.212-10.191z" fill="#2b5df2"/><path d="m302.463 151.802c-.4 1.619 1.384 5.368 2.83 5.097-1.034-1.363-1.786-4.861-.226-6.229.307.248.031.375.226.68.452.077 1.254-.198 1.36.226-.817 1.067-.113 2.437-.113 3.625 1.425-.31.801-2.673 1.131-4.077-1.35-2.03-4.742-1.211-5.208.678z" fill="#fff"/><path d="m305.974 155.2c-.337-1.217.327-2.74-.907-3.059-.51.998-.262 3.403.907 3.059z"/><path d="m297.82 158.37c-.018.423.425 1.296.452 2.038.024.65-.271 1.062.34 1.248-2.247 2.263.574 4.007 1.021 5.548.239.825-.363 1.646.679 1.924.665-.089.728-.779 1.245-1.018.327-1.492 2.364-3.363.907-4.871-.962-.092-1.646.693-2.492.342.667-1.497-.081-2.53-.339-3.964.283-.094.444-.31.792-.339.838 1.206 1.695 1.588 3.625 1.131.163 2.064-.313 4.048-.113 5.777.59.308 1.194.201 1.697-.113.058-1.785-.516-4.397.228-5.776 1.116.71 2.067-.337 3.057-.453 1.032-.121 1.75.525 2.943.453.208-2.308-.705-5.389-3.057-5.89-.696.776-1.18 1.764-2.604 1.813-.563.414-.304 1.224-.793 1.472-1.081.553-3.235-2.352-3.284-3.624-1.826.447-4.214 2.18-4.304 4.302z" fill="#f2c3ad"/><path d="m297.026 155.2c-1.699 1.508-2.946 3.471-2.831 6.794-.774.925-1.859 1.54-1.813 3.283.354.139.719.266 1.247.229.669-1.143 1.28-2.344 1.926-3.511.123 2.173-1.843 2.824-1.247 5.096.195-.005.291.087.34.226 2.151-.069 1.423-2.634 1.925-4.529.127-.48.464-.952.453-1.245-.019-.583-.592-1.131-.679-1.699-.294-1.931.874-3.025 1.021-4.643-.116-.001-.228-.001-.342-.001z" fill="#fff"/><path d="m313.109 158.936c-.236 1.272-1.027 2.815-.34 4.419.338.296 1.31.458 1.699.338.127-.811-.428-1.361-.454-2.264-.039-1.5 1.044-3.426-.339-4.304-.74.228-.436 1.105-.566 1.811z" fill="#fff"/><path d="m308.918 161.429c.369.363.585 1.852 0 2.152-.891.115-1.604-.48-2.377-.113-.935 2.618.733 4.533 2.377 5.321 1.003-.222 1.019-1.97 1.586-3.057.283-.542.638-.817.792-1.247.344-.95.018-2.167-.453-3.057-.477-.34-1.381-.208-1.925.001z" fill="#f2c3ad"/><path d="m316.052 165.506c.51-.874-.564-1.654-1.471-1.813-.253.914.424 1.828 1.471 1.813z" fill="#fff"/><path d="m314.013 167.204c-.148-.961-.413-1.619.114-2.718-.188-.265-.66-.246-1.132-.226-1.009.731-.611 3.574 1.018 2.944z" fill="#fff"/><path d="m297.026 169.583c.203-1.065.784-2.94-.565-3.173-.452.912.098 2.46.565 3.173z" fill="#fff"/><path d="m300.99 172.188c.94-.359 2.194-3.477 3.738-3.285.398.05 3.713 4.206 4.076 1.812.193-1.278-2.731-2.223-2.943-3.056-.521.044-.863.269-1.36.339-.297-.045-.622-.059-.792-.226-1.379 1.49-3.596 2.141-4.532 4.077.662.72 1.286.539 1.813.339z" fill="#fff"/><path d="m299.745 173.093c.079 2.042-1.748 2.179-1.925 3.964 1.515 1.335 1.613-1.918 2.943-2.378.951-.33.676.236 1.813.678.689-.291.373-1.59.906-2.038.319.208.612.444.567 1.021.035.3-.636-.108-.452.339-.238.179-.039.792-.229 1.018-1.978.189-1.001 4.67.794 2.833-.204-.884-.281-3.101.905-3.286-.354 1.163-.802 3.112.34 3.852 1.239-.498.628-2.846 1.02-4.19-.225-.424-.784-1.243-.113-1.586 1.549.339-.25 6.16 2.038 5.663.188-.042.199-.251.452-.34.073-1.109-1.302-2.871-.112-3.625-.062.929.357 1.379.226 2.378.517-.102.642.189 1.019.227.58-.365.264-1.333.113-1.926-.165-.061-.586.132-.565-.113-.125-.605.104-1.245-.227-2.039-1.206.15-1.11-1.002-1.813-1.357-.7.15-2.371.171-2.604-.794-2.468-.202-2.944 1.588-5.096 1.699z" fill="#fff"/><path d="m296.347 173.545c-.543 2.46 2.583 1.442 2.491-.226-.632-1.114-2.232-.948-2.491.226z" fill="#fff"/><path d="m311.635 172.867c-.969.162-1.628.635-1.925 1.473.523.46.773 1.192.907 2.039.48.085.869.263 1.474.226-.432-1.007.393-2.855-.456-3.738z" fill="#fff"/><path d="m290.684 177.735c-.327.429-1.033.817-.792 1.134 1.724-.767 3.638-1.344 5.095-2.378-.328-.548-.702-1.574-.565-2.491.072-.484.636-.824.339-1.021-2.087.604-2.918 3.247-4.077 4.756z" fill="#fff"/><path d="m313.448 174c-.279 1.832 1.498 2.19 2.604 2.264.263-1.938-1.223-3.649-2.604-2.264z" fill="#fff"/><path d="m299.745 178.303c.363.48 1.122.292 1.584 0-.001-.952.656-1.701.455-2.493-1.442-.355-1.786 1.289-2.039 2.493z" fill="#fff"/><path d="m312.203 178.53c8.892 4.055 11.533 14.362 16.193 22.648.909-.073 1.493-.472 2.378-.566-3.363-6.867-6.883-13.578-9.965-20.726-2.125-1.158-4.667-1.902-7.135-2.717-.583.362-.911.976-1.471 1.361z" fill="#fff"/><path d="m297.707 188.268c.164-.068-.012-.136 0 0-3.43.953-6.604 2.156-9.968 3.172-1.946 2.431-3.764 4.993-5.776 7.361-.239-.326-.838-.293-1.018-.678 1.018-1.251 1.936-2.574 2.944-3.965.782-1.078 1.785-3.152 2.946-3.85 1.098-.66 2.934-.944 4.303-1.358 4.378-1.322 8.051-2.781 10.759-5.889-.012-.646.46-1.309.114-1.926-1.483.047-2.33 1.31-3.399 2.04-3.194 2.177-7.669 2.75-12.571 3.511-1.43 1.498-2.85 3.464-4.304 5.208-.378.455-.883 1.492-1.585 1.134.689-1.272 1.628-2.492 2.606-3.851.754-1.053 1.723-3.081 2.831-3.851 1.116-.777 3.254-1.069 4.87-1.474 3.334-.831 5.817-1.423 6.794-4.643-.417-.487-.856-.954-1.245-1.473-4.249 2.466-9.605 3.02-12.572 6.568-1.047 1.256-2.036 2.731-3.058 4.078-3.004 3.96-5.603 8.414-7.247 13.931.269.9 1.004 1.335 1.021 2.49-.65 1.655-2.332 2.275-2.267 4.644.652-.011.423.484.794.568 1.394.314 1.619-1.812 3.056-1.7-.115.711-.542.781-.792 1.132-.422 1.559-2.846 2.462-2.491 4.529.212 1.242 1.865 2.663 3.622 2.381.463-2.057.675-3.195 1.586-4.533.872-1.275 2.512-1.673 3.286-2.831.775-1.156.444-2.771 1.018-4.417 2.232-.977 4.595-1.823 6.683-2.942.796-.608 1.546-3.039 2.719-3.398.837-.259 1.866.183 3.17 0 2.231-2.219 3.665-5.33 5.324-8.269.517-.914 1.458-1.72 1.357-2.83-1.921.637-3.008 2.549-4.19 4.191-.679.943-1.198 1.718-1.923 2.377-1.115 1.009-2.717 1.667-3.625 3.057-1.236-.462-2.577-.821-3.739-1.358.618-.97 1.13-2.042 1.813-2.945.492 3.541 3.598.427 4.983-.905 1.324-1.272 2.33-2.422 3.171-3.286z" fill="#fff"/><path d="m331.456 204.689c-1.074-.472-2.216-.878-3.285-1.359-.742-1.159-1.161-2.231-1.585-3.622-.798-2.613-2.78-5.883-4.53-8.495-.856-1.28-1.917-2.501-2.831-3.737-2.257-3.057-4.627-6.502-7.928-8.042-.216-.208-.48.496-.792.567.474.719 1.309 1.369 2.039 2.038.668.617 1.898 1.209 1.584 2.152-1.622-.646-3.25-2.257-4.869-3.283-.451.417-1.079.656-1.473 1.131 6.342 3.305 11.301 8.1 14.835 14.27 3.557 6.204 5.886 13.387 10.307 18.916.34-3.922-.128-7.931-1.472-10.536z" fill="#fff"/><path d="m303.255 181.926c-.245 2.249 3.202 3.008 3.624 1.247.408-1.708-1.146-2.761-2.378-2.492-.883.192-1.191.751-1.246 1.245z" fill="#fff"/><path d="m313.788 193.139c-.038 0-.075 0-.114 0-1.536-1.744-3.301-3.698-4.643-5.89-.371-.606-.666-1.851-1.813-1.472 1.66 6.092 5.322 10.938 8.946 16.082 2.539 3.599 5.16 7.476 7.702 11.325.999 1.508 2.485 3.007 2.604 4.869.059.886-.238 1.854-.227 2.72.08 5.915 1.311 12.008 1.248 18.572 2.829-2.938 7.094-6.313 6.568-12.346-.18-2.056-1.124-4.46-1.926-6.567-2.33-6.12-5.109-12.056-7.927-17.555-3.752-7.317-7.431-13.375-14.157-17.779-.299-.197-.676-.896-1.132-.453-.526.423.402 1.459.792 2.039 1.315 1.943 3.077 4.174 4.079 6.455z" fill="#fff"/><path d="m308.24 201.972c1.29-.634 2.377-1.473 3.622-2.151-2.801-3.993-5.337-8.251-6.794-13.591-1.06 6.103 1.78 10.984 3.172 15.742z" fill="#e20909"/><path d="m299.745 197.216c-.512 1.461-2.313 1.73-3.624 2.378.376.565.7 1.187.904 1.925-.221 1.029-1.532 1.441-1.809 2.604-.6 2.487.495 5.677.112 8.381.746 1.065 1.171 2.45 2.039 3.398.187 1.631.104 3.355.566 5.209 1.273-.16 2.835-.031 4.077-.229-1.715-4.025-3.723-7.755-5.438-11.777 3.137-2.072 6.563-3.857 9.514-6.116-1.496-4.631-3.01-9.809-2.719-15.854-2.155 2.294-2.525 6.945-3.622 10.081z" fill="#e20909"/><path d="m290.571 201.407c.059 2.314 4.969 2.126 4.417-.454-.185-.871-1.208-1.326-2.604-1.132-1.094.149-1.84.478-1.813 1.586z" fill="#fff"/><path d="m306.766 214.769c2.014-.324 4.457.284 6.456-.793 1.007-.538 1.783-1.893 2.377-2.603.58-.693 2.189-1.937 2.265-2.831.079-.91-1.074-2.323-1.812-3.399-.97-1.414-1.689-2.597-2.604-3.17-4.383 2.791-9.146 5.199-13.477 8.042 1.39 2.686 2.466 5.686 3.965 8.266 1.094-.755.924-3.206 2.83-3.512z" fill="#fcef3c"/><path d="m291.705 203.897c.239 2.704-.043 5.931.226 8.608h1.924c.028-2.936-.198-5.615-.113-8.608-.68 0-1.359 0-2.037 0z" fill="#fff"/><path d="m319.451 210.692c-1.826 1.536-3.447 3.272-5.096 4.985-.297 3.478-.125 6.157.792 8.382.474 1.146 1.355 2.004 1.813 3.167.554 1.421.185 3.38 1.586 4.304.476-1.252.362-3.309.452-5.322.106-2.387.082-4.76.227-6.792.894-.655 1.122-3.059 2.604-2.38.139.718-.612.951-.904 1.585-.529 1.143-.557 2.756-.34 3.964 1.902-.852 2.446-3.063 3.623-4.646-1.24-2.76-2.825-5.175-4.757-7.247z" fill="#e20909"/><path d="m281.285 211.372c-2.314 1.516-3.347 4.582-3.511 7.812-.914.099-2.078-.416-2.717.113-.235 3.914-1.552 6.903-1.133 11.102.308 3.066 2.425 5.473 3.85 8.153 3.611 6.789 6.623 13.34 9.741 20.273.552 1.225 1.009 3.093 3.169 2.827-.354-11.759-1.114-24.099-1.583-36.123-.62-.122-2.068-.224-2.946 0 .271 3.261.172 7.729.339 11.438.045.983.463 2.222-.226 2.942-1.583-.612-3.143-1.701-4.755-2.603-1.476-.824-3.9-1.323-3.965-3.284 1.932-.04 3.147 1.605 5.211 1.809 1.038-4.923.929-11.72 1.584-16.987.111-.886.29-1.943.567-2.715.358-.995 1.442-1.595 1.245-2.721-1.781-.795-3.652 1.901-3.851 3.398-.275 2.085-.105 4.956-.227 7.702-.054 1.257-.189 2.579-.226 3.739-.041 1.307.193 2.641-.452 3.507-1.321-.306-.684-2.279-.68-3.281.01-3.902-.754-8.736-.567-12.911.741-1.564 2.468-2.138 3.397-3.511-.451-.922-1.587-1.123-2.264-.679z" fill="#e20909"/><path d="m290.458 214.09c-.87-.079-4.169 2.399-4.304 2.832-.507 1.646.365 3.176 0 5.208 1.221-.401 2.326-.921 3.06-1.811-.533-1.826.243-3.223.792-4.982 1.958-.491 3.683.617 5.436.34-.176-1.394-3.603-1.459-4.984-1.587z" fill="#f2c3ad"/><path d="m289.892 216.808c1.246.397 4.172 1.074 5.325.114-1.267-.785-4.441-1.533-5.325-.114z" fill="#f2c3ad"/><path d="m306.992 216.582c-1.031.265-1.036 1.394-1.699 2.038-.604.225-1.288.373-1.47 1.021 2.068 1.981 3.283-2.899 4.869-1.021-1.254 1.917-3.389 2.955-4.304 5.211.254.273.455.602.793.792 1.27-1.033 1.518-3.09 3.511-3.398.027.161.187.191.226.341-.597 1.779-2.372 2.383-3.057 4.076.296.117.381.448.679.565 1.061-.874 2.075-2.965 3.737-2.489-.854 1.449-2.288 2.317-3.285 3.622.239.214.254.651.566.796 1.065-1.089 2.181-2.127 3.285-3.173.01.289.442.16.453.452-.201.464-1.246 1.215-.904 1.471.489.789 1.199-.362 1.583-.791.417-.465 1.195-1.187 1.247-1.812.037-.471-.416-1.381-.565-2.153-.36-1.829-.382-3.815-.34-5.66-1.758.409-3.93-.246-5.325.112z" fill="#f2c3ad"/><path d="m292.157 218.393c-.987.051-2.668-.701-2.492.68 1.959-.438 4.565.903 6.23 0-.195-1.14-2.673-.731-3.738-.68z" fill="#f2c3ad"/><path d="m322.733 223.262c-.692 1.151-1.755 2.279-2.037 3.285-.665 2.375-.028 4.873-1.246 7.023.961-.615 1.931-1.519 3.057-2.493.669-.578 2.667-1.882 2.945-2.828.124-.422-.089-1.102-.112-1.702-.077-1.958-.014-5.334-.34-6.792-.858.959-1.437 2.138-2.267 3.507z" fill="#fcef3c"/><path d="m290.005 220.432c1.798.713 4.28.633 6.342.681.191-.38-.072-.386-.113-.793-1.775.359-4.868-.94-6.229.112z" fill="#f2c3ad"/><path d="m302.237 235.492c1.035-1.665 1.947-3.938 2.377-5.661.53-2.11-.725-3.816-2.039-4.755-1.642-.094-3.932.144-5.89.113.055 10.215.139 20.396.34 30.464 4.487-5.803 9.988-12.341 12.911-20.047.362-.956 1.313-2.341.455-3.395-1.707.401-1.927 2.598-2.606 3.961-2.25 4.509-5.385 8.484-8.495 11.893-.156-.332-.522-.457-.679-.795 2.901-3.967 5.983-8.161 8.154-12.795.744-1.589 1.693-3.349 1.586-4.983-1.423.069-1.816 1.714-2.491 2.72-1.762 2.614-3.744 5.068-5.55 7.472-.35.463-.706 1.205-1.36.566.547-1.522 2.142-2.911 3.287-4.758z" fill="#e20909"/><path d="m293.629 225.303c.032 10.96.681 22.441.339 32.844-.78-.146-.54-1.069-.565-1.59-.507-10.03-.755-19.335-1.134-29.444-.037-.979-.011-1.638-.452-1.81-1.649-.646-.937 3.18-.905 3.963.882 23.582 1.399 46.41 2.492 69.534.163 3.473-.201 6.121 1.699 7.363 1.574-1.537 1.503-3.94 1.357-7.25-.503-11.467-.152-23.227-.679-34.313-.649-13.645.045-26.77-.678-39.41-.076 0-.153 0-.229 0-.242.21-.83.073-1.245.113z" fill="#fff"/><path d="m310.73 229.153c1.558 2.363 2.984 4.866 4.53 7.248.973-.65 2.057-1.189 2.717-2.153-1.542-2.495-2.888-5.188-4.19-7.928-.955 1.007-2.163 1.764-3.057 2.833z" fill="#fcef3c"/><path d="m325.453 231.756c-.025-.087-.095-.129-.226-.112-.532.564-1.174 1.018-1.812 1.474.676 2.192.79 4.947 2.491 6.114-.131-2.51-.599-4.687-.453-7.476z" fill="#e20909"/><path d="m319.451 236.401c-.235.613-.186 1.761-.227 2.489-.101 1.783.064 3.996.792 5.21.396-1.932 2.422-4.051 2.947-5.663.467-1.438-.563-2.757-.568-4.528-.53 1.029-2.445 1.175-2.944 2.492z" fill="#e20909"/><path d="m311.975 279.211c-.051 1.127-.416 3.202-.114 4.303.213.769 1.527 1.704 2.152 2.376.821.886 1.527 1.732 2.38 2.268 1.741-1.167 3.274-2.542 5.322-3.399-.05.578.311.746.34 1.244-2.282 1.796-4.591 3.563-7.134 5.097-.725-.492-1.258-1.748-2.038-1.81-1.256 2.149.526 4.08 1.018 6.112 1.706-1.124 2.513-3.148 4.19-4.303 2.285.85 4.739 1.528 7.024 2.38.916-.707 1.513-1.732 2.151-2.719-1.347-1.675-2.835-3.208-3.965-5.096 1.463-.801 3.1-1.429 4.53-2.264-.137-1.192.257-3.046-.227-4.077-.734-1.567-4.33-1.721-4.53-4.077-.161-1.907 1.936-2.977 2.492-4.304.588-1.411.421-3.814.339-5.664-.21-4.795-.107-10.624.113-15.626.155-3.563.258-7.491-2.152-9.289-.75 2.425-4.137 4.958-3.057 7.814.763 2.02 2.733 3.96 2.605 6.682-.976.576-.521 2.576-1.473 3.174-.326.202-.899.155-1.245.339-.464.818-1.653.913-1.699 2.15.253.159.663.168.68.566.348.932.973 1.614 1.586 2.492.465.667 1.511 1.861 1.47 2.605-.031.608-1.328 1.87-1.81 2.49-1.912 2.465-4.052 5.221-5.663 7.248.267 1.244.616 2.403.904 3.626.603.039.929.354 1.586.339.754-.608.923-1.796 1.7-2.38 1.804.877 3.77 1.592 5.437 2.604-.218.575-.315 1.269-.907 1.474-1.353-.648-2.599-1.402-3.965-2.037-.519.951-.934 2.008-1.585 2.827-1.311-.234-2.533-.562-3.736-.905.047-1.786-1.754-4.221-1.473-5.887.113-.676 1.33-1.865 1.812-2.492 1.957-2.557 4.091-5.276 5.663-7.59-3.064-2.177-4.938-7.232-4.984-12.571-.01-1.114-.26-2.874.794-3.508.158 2.069.255 4.199.227 6.453-.038.302.634-.105.452.34-.099 1.234.329 1.939 1.131 2.269.954-1.482 2.441-3.122 2.833-4.871.378-1.692-.548-2.066-1.247-3.398-1.769-3.369-2.454-8.473-2.152-12.796-1.05.608-1.887 1.436-3.057 1.924-.785-.879-1.377-1.943-2.151-2.829 3.146 12.782.027 29.601-.567 42.696z" fill="#e20909"/><path d="m300.99 252.933c-.788.945-3.812 3.566-4.078 4.648-.164.671.084 1.446.113 2.148.071 1.631-.053 3.294 0 4.757 3.158-4.046 6.5-9.188 9.175-13.929.392-.698.583-1.627 1.358-2.041-1.23 6.024-4.022 10.745-7.247 15.177-.785 1.078-2.905 3.208-3.172 4.417-.365 1.649.113 3.801.113 5.661 0 5.893.263 11.6.341 17.327 2.447-.417 3.395-2.118 4.53-3.96 1.44-2.342 2.343-4.726 3.396-7.361.472-1.179.88-2.967 2.039-3.399-.573 3.964-2.665 8.907-4.417 12.459-1.124 2.278-2.063 4.313-5.434 3.963v4.305c2.333 1.824 4.045.318 6.342-.906 1.405-.753 2.64-1.574 3.736-2.04 1.035-2.399 2.218-4.651 3.172-7.133-.318-1.062-2.167-1.646-2.378-2.945-.182-1.107.657-3.484.906-5.21 1.828-12.714 2.654-27.349 2.264-41.109-3.248 5.359-6.768 10.391-10.759 15.171z" fill="#e20909"/><path d="m285.929 262.224c-2.802-6.517-5.528-12.942-8.382-19.594-.493-1.152-1.287-3.7-2.264-2.833-.325 3.89-.377 7.474-.792 10.986-.239 2.017-.815 3.996-.793 5.773.028 2.17 1.252 4.149 2.264 5.892 3.088 5.304 6.99 9.673 9.741 14.721 1.739-1.055 3.503-3.062 5.323-4.415.089-2.467-.166-4.593-.113-7.022-3.446.577-4.012-1.25-4.984-3.508z" fill="#e20909"/><path d="m281.399 284.871c1.242.224.862-1.173 1.924-1.131.521 1.564-.831 2.778-1.586 3.852-.833 1.182-1.658 2.449-2.491 3.507.989 1.015 1.731 2.273 2.831 3.173.919-.774.65-3.274 1.699-3.625.476-.155 1.07.437 1.699.683.947.363 2.543.507 3.171.791 1.043.473 1.583 1.487 2.151 2.263.412.565.699 1.326 1.247 1.249 0-.604 0-1.209 0-1.813-1.658-.738-1.384-2.91-2.717-3.852-.956-.671-2.494-.249-3.172-1.81 1.656-.878 3.318 1.014 5.663.565-.222-4.613-.405-9.258-.679-13.815-1.123.397-1.879 1.424-2.832 2.376-.681.682-2.287 1.689-2.604 2.606-.804 2.318 1.539 4.19 1.473 6.792-.554.406-1.306.042-1.926-.113-.943-2.469-.479-5.143-1.473-7.357-.346-.776-1.006-1.521-1.473-2.38-1.34-2.481-2.363-5.889-4.075-7.702-.705 6.151 2.073 10.647 3.17 15.741z" fill="#e20909"/><path d="m290.571 300.274c-.113-.565-.708-1.077-.906-1.588-.396-1.017.531-2.626.114-3.738-.659-1.754-3.653-1.768-5.549-1.696-1.065.983-1.774 2.369-2.492 3.853-.45.932-1.517 2.406-.453 3.17.722-.148.621-1.115 1.36-1.248.579.871-.489 1.783-.227 3.059.322.208.463.594 1.131.453.492-.526-.128-2.166.792-2.264-.003.943-.675 3.239.794 3.056.718-.449.089-2.248.905-2.603.345.933-.173 1.924-.226 2.829.276.292.484.651 1.133.57.688-.712.211-2.583.905-3.286.628.729-.227 2.942.566 3.512 1.515-.184 2.54-2.166 2.153-4.079z" fill="#f3b9ae"/><path d="m318.998 294.496c-1.086.395-1.455 1.679-2.604 2.154 1.164 1.476 4.103 2.766 2.492 5.321.907 1.094 1.884 2.12 3.849 2.155 2.233-1.19-.764-2.155-1.019-3.286-.271-1.209.594-1.389 1.248-2.38.265-.227.72-.263 1.245-.227-.293-.787-.007-1.557.566-1.811-.606-.097-.218-.795-.114-1.135-2.111.15-3.8-1.463-5.663-.791z" fill="#f3b9ae"/><path d="m325.114 297.782c.185.643.591 1.069 1.357 1.131.047-.141.146-.23.34-.227.546-1.033-1.188-1.951-1.697-.904z" fill="#f3b9ae"/><path d="m325.453 300.389c.297-.199.267-.793.114-1.136-1.448-1.366-2.112 1.463-.114 1.136z" fill="#f3b9ae"/><path d="m322.507 300.502c.583.561 1.137 1.716 2.38 1.244-.027-1.1-1.862-2.743-2.38-1.244z" fill="#f3b9ae"/><path d="m420.582 140.817c-.278 2.588-.391 5.346-.681 7.928 2.767.858 5.089 2.161 6.798 4.078-.01 4.27-.566 9.729-.34 14.268.063 1.237.348 2.45.34 3.624-.031 3.464-1.774 6.218-2.72 8.72 3.231 2.02 6.73 3.764 9.97 5.777.182 2.458 1.235 3.42 2.826 4.982 5.124 5.019 10.878 9.922 15.855 14.836-1.071 2.778-2.336 6.386-3.511 9.625-.346.96-1.146 2.376-1.13 3.172.02 1.203 1.282 1.979 1.356 3.173-4.474 1.226-8.642 2.758-13.135 3.964-.757 1.658-1.437 3.395-2.038 5.209-1.33.144-2.675.269-3.963.453.558 3.308 1.342 6.683 2.036 10.194.199 1.001.773 2.617.679 3.394-.116.992-1.53 2.389-2.035 3.171-.766 1.176-1.301 2.163-2.042 3.174-.137 3.94-.168 8.447-.34 12.344-.031.777-.221 1.521-.113 2.263.151 1.016.839 2.103 1.25 3.172 1.189 3.13 2.336 6.603 3.508 9.626-1.043 1.107-2.272 2.033-3.283 3.172-.012 4.619.29 8.923.341 13.478 3.26.813 6.785 1.368 10.189 2.039.492 1.623 1.168 3.063 1.698 4.644-1.909.846-3.644 1.864-5.435 2.833-5.068-1.012-10.413-1.745-16.196-2.042 1.955-6.929-.788-13.628-1.695-20.046-1.133-.827-2.594-1.334-3.853-2.038.979-3.175 1.821-6.483 2.833-9.625h1.924c-3.118-7.669-6.165-17.247-4.982-28.878-.774 2.886-1.448 5.877-2.037 8.945-1.116.055-1.915.426-3.059.453-1.838 6.091-3.468 12.387-5.321 18.458 2.271 1.503 1.566 5.982 2.263 9.06-1.167.347-2.146.878-3.284 1.25-1.12 3.572-2.072 7.038-3.17 10.756-.343 1.163-.971 2.341-1.136 3.512-.343 2.5.082 4.903-.113 7.814-3.459.234-7.558-.156-9.285 1.811-3.148.099-6.368.128-9.397.343-1.008-1.486-2.42-2.567-2.043-5.438.758-.405 1.625-.949 2.608-1.471 1.412-.754 2.508-1.819 4.076-.905 2.216-1.444 4.174-3.149 6.228-4.756-.426-3.851.52-7.706-.113-11.215-.352-1.973-2.123-3.627-2.603-5.207 1.307-2.697 2.716-5.286 3.964-8.042.619-.016 1.128.079 1.584.227.767-1.346 1.334-2.896 2.041-4.304-1.112-3.101-1.736-6.675-1.475-10.874.077-1.235.679-2.625.564-3.512-.101-.79-1.073-1.311-1.244-2.035-.175-.745.121-1.916 0-2.945-.18-1.558-1.069-2.845-1.018-3.852.046-.968 1.12-2.631 1.697-3.851.651-1.368 1.36-2.669 1.813-3.621 2.05-4.322 3.989-7.812 4.87-13.141.601.044.925.359 1.585.339-.854-5.371-1.902-10.553-2.832-15.854-1.253 3.125-2.416 6.343-3.51 9.628-2.941 2.61-5.894 5.206-8.72 7.928.597 1.517 1.128 3.098 1.585 4.757-3.03.683-7.203 1.337-10.648.564-1.818.858-2.414 2.942-3.62 4.418.507.585.854 1.333 1.471 1.813-.921.854-2.086 1.458-3.058 2.263-.672-.608-1.168-1.401-1.697-2.149-.843.97-3.344 1.162-3.739-.341-1.24.565-2.328-.289-2.38-1.586-1.327-.157-2.516-1.835-1.584-3.173-1.221-.418-1.364-2.782-.113-3.282-.339-.265-.478-.729-.678-1.135-3.925.683-7.538-1.807-4.418-4.528 1.572.881 3.88 1.766 5.889.677-2.872-11.312-4.498-25.789-2.489-38.842 1.893-12.316 6.567-22.88 12.571-30.352-.352 3.288.771 7.134.226 10.645-.138.858-.742 2.044-1.135 3.06-2.627 6.774-4.999 14.077-6.114 22.648-1.3 9.975-.613 20.774.566 31.031 1.899-1.038 9.375-4.85 8.832.905 1.443-1.124 3.686-2.427 3.965-5.095 1.265-.282 2.429-.668 3.737-.906 3.257-7.843 6.556-15.644 9.739-23.556 1.395-.718 2.61-1.62 4.076-2.265 0-.718 0-1.436 0-2.152 1.201-1.141 2.704-1.978 4.078-2.945 1.602-.048 2.789.928 4.077.791 1.566-.163 2.542-2.131 3.963-2.604.176-4.026-1.366-6.335-1.811-9.738-.07-.446.621-.134.906-.226-.219-1.783-.621-3.382-.793-5.21-1.713-1.422-3.776-2.489-5.664-3.738.046-.905-.823-1.845-.679-2.717.123-.748 1.709-1.644 2.267-2.152 2.184-1.983 4.751-4.527 6.679-6.228 1.455-.359 2.93-.696 4.643-.793-.877-2.481-1.856-4.863-2.715-7.361.921-1.042 2.35-2.179 3.398-2.718 1.266.617 2.39 1.383 3.623 2.035z"/><path d="m417.074 140.026c-.718.49-1.49.926-2.041 1.583 1.226 3.381 2.228 6.982 3.739 10.08.029-3.595.155-7.093.338-10.533-.709-.347-1.326-.786-2.036-1.13z" fill="#fff"/><path d="m416.391 150.67c-2.106.184-4.065 1.427-6.113 2.832-1.822 1.248-3.71 2.616-4.417 4.077-1.232 2.548 1.265 5.111 4.303 3.851 1.184-.492 1.768-1.761 2.266-3.172-1.88-1.107-2.331 2-4.076 1.7-.756-1.089.646-1.931 1.246-2.604 2.035-2.296 4.504-4.739 6.791-6.684.168-.07-.012-.138 0 0z" fill="#e20909"/><path d="m421.034 158.144c-1.943 1.625-5.631 1.292-7.81 2.604.856-.164 2.092-.063 3.166-.112.916-.041 2.163-.539 2.494.339-.08.759-1.061.575-1.586.681-1.87.374-3.995.868-5.891 1.131.224.571.362 1.224.907 1.473 3.79-.882 9.23-1.012 12.455.452-.039-3.433 1.203-8.083 0-10.984-.683-1.658-2.343-1.941-4.188-2.492 1.721 1.643 2.385 5.297.453 6.908z" fill="#e20909"/><path d="m416.843 154.406c-.302 2.5 3.321 2.839 3.625.568.203-1.506-.905-2.204-2.036-2.039-1.152.166-1.511.831-1.589 1.471z" fill="#fff"/><path d="m363.505 183.173c-1.654 11.873-.507 25.093 2.376 35.672 1.615-.229 1.182-1.778 1.021-2.828-1.378-8.941-1.725-19.017-.909-28.654.793-9.328 3.521-17.114 6.458-24.124.443-1.063 1.198-2.106 1.358-3.057.373-2.174-.191-4.958-.113-6.795-5.095 7.692-8.564 18.117-10.191 29.786z" fill="#fff"/><path d="m412.885 155.878c.006.406.174.655.225 1.021.705-.048 1.351-.157 1.924-.341-.051-.4-.283-.618-.453-.905-.643 0-1.206.08-1.696.225z" fill="#e20909"/><path d="m413.563 158.144c.167.171.183.498.226.792 1.183-.25 2.553-.319 3.511-.792-.748-.826-2.672-.212-3.737 0z" fill="#e20909"/><path d="m425.342 166.751c-1.705-2.646-12.482-2.599-14.273 0-1.318 1.913-.041 6.356.794 9.059.799 2.58 2.005 4.689 3.512 5.776 3.101 2.238 6.959.162 7.587-2.944-.998-.208-2.244-.171-3.284-.339-.25 1.951-2.37 1.314-2.834 0-.964-.202-2.114-.223-3.055-.455 0-.376 0-.754 0-1.132 1.499-.013 2.677-.343 3.624-.907.072-.53-.146-1.355.113-1.697.684.034 1.191.242 1.923.227.017-1.91.107-3.748.229-5.551 1.399-1.748 3.715.055 6.003-.226-.012-.723-.046-1.354-.339-1.811z" fill="#f2c3ad"/><path d="m420.354 169.242c.058.509-.055.849-.112 1.247 1.02.308 1.494-.438 2.154-.453.885-.023 1.4.979 2.714.679.014-.481.193-.792.113-1.359-1.539.286-3.186-.551-4.869-.114z" fill="#f2c3ad"/><path d="m420.015 176.717c.47.213.926.434 1.476.566 1.105-1.991 3.327-3.462 3.507-6.003-1.708-.057-2.683 1.375-3.732-.113-.343 0-.683 0-1.022 0-.05 1.879-.096 3.758-.229 5.55z" fill="#f2c3ad"/><path d="m407.557 183.285c.622 1.532 1.558 2.75 2.155 4.304.885.558 2.096 1.043 3.173 1.586 1.014.51 2.121 1.677 3.167.791-.608-.756-1.378-1.431-2.264-2.264-.569-.535-2.07-1.426-2.267-2.266-.295-1.284.542-3.262 0-4.982-1.244 1.02-2.641 1.89-3.964 2.831z" fill="#e20909"/><path d="m422.622 181.926c.316 1.421 1.015 2.458 1.245 3.964-1.183 1.345-2.697 2.362-3.738 3.851.175.24.409.421.565.679 2.618-1.954 4.874-4.263 7.475-6.229-1.467-1.144-3.175-3.546-5.547-2.265z" fill="#e20909"/><path d="m413.675 184.646c1.557 1.648 2.989 3.428 4.645 4.982 1.213-1.506 2.613-2.823 3.737-4.417-.185-.874-.402-1.712-.566-2.604-2.317.137-2.696 2.212-3.512 3.85-.732-2.174-1.849-3.964-4.19-4.53.039.982-.027 1.86-.114 2.719z" fill="#f2c3ad"/><path d="m412.543 190.193c-.419-.215-.939-.483-1.36-.679-.761-.353-1.979-.594-2.83-1.247-.674-.513-1.336-1.851-2.039-2.831-.774-1.076-1.732-3.257-3.286-2.604 1.449 2.478 3.125 4.727 4.757 7.021 1.911.201 4.033 1.528 5.665 1.247.338-.707-.648-.774-.907-.907z" fill="#e20909"/><path d="m407.896 191.439c-2.009-2.479-3.498-5.481-5.547-7.928-.648.484-1.436.83-1.924 1.473 2.229 2.526 4.403 5.107 6.566 7.699 1.919.055 3.756.339 5.437.455 1.009.069 2.237.385 2.945-.228-2.072-.909-5.119-.842-7.477-1.471z" fill="#e20909"/><path d="m429.53 184.646c-1.31 1.249-1.724 3.044-3.171 4.19-.686.54-1.849 1.006-2.72 1.471-.822.44-2.271.657-2.375 1.925 2.176.06 4.524-.679 6.904-.793 1.271-1.9 2.735-3.609 3.965-5.549-.859-.426-1.553-1.014-2.603-1.244z" fill="#e20909"/><path d="m400.199 187.476c-1.211.944-2.463 1.842-3.738 2.717-1.887 4.909-4.019 9.571-5.892 14.496.935 1.145 1.983 2.173 2.833 3.399-.22.497-.624.811-1.019 1.131-1.096-.753-1.635-2.063-2.944-2.605-.59 1.195.687 1.775 1.018 2.718-.334.53-.553 1.18-1.244 1.359-.596-.194-.444-1.139-1.132-1.246-.352 1.656-2.661 3.628-2.719 5.323-.05 1.494 1.157 2.742 1.356 4.415 2.131-1.567 3.867-3.764 5.778-5.546.664-.618 1.611-1.147 2.038-1.813.521-.812.845-2.05 1.247-3.056 1.281-3.227 2.2-6.268 3.734-9.173.535.184 1.291.144 1.814.34 1.143 6.667 2.357 13.27 3.512 19.933 1.805.805 4.782 1.233 6.905 1.017 0-.528 0-1.056 0-1.587 1.038-.132 2.215-.124 3.397-.113-.123-.791.209-1.642 0-2.148-2.89.277-5.423.917-8.267 1.244-.112-1.064-.261-2.669-.112-3.625 2.802.106 5.559.259 8.379.339.161-1.006.316-2.024.342-3.169-2.732.107-5.839.806-8.834 1.021-.078-.852-.257-2.816 0-3.965 3.074.248 5.915.728 8.945 1.021.219-1.188.102-3.29.113-4.304-3.094.002-6.03.761-9.059.453 0-1.17 0-2.341 0-3.511 3.14.068 6 .417 9.059.565.12-.866.285-2.149.114-2.943-3.059.111-6.235.71-9.173.566.089-.971-.188-3.497.113-4.303 3.043.392 6.292 1.18 9.06 1.473.101-.689-.066-2.031 0-3.059-3.11-.437-6.907-.189-10.307-.34-1.95-2.165-3.245-4.981-5.317-7.024z" fill="#2b5df2"/><path d="m441.533 197.442c-2.826-2.824-6.013-6.174-8.946-8.606-1.194 1.785-2.282 3.681-3.625 5.321-2.815.014-5.376.286-8.268.227-.027 1.254-1.174 1.391-2.263 1.585-.112.789-.05 1.463 0 2.266 3.16-.163 6.028-.617 9.287-.68-.376.985-.359 2.359-.906 3.17-2.923.088-5.85-.416-8.381-.339.05.931-.118 2.081.113 2.831 2.879.162 5.676-.363 8.268-.114-.23 1.168-.277 2.519-.68 3.511-2.547-.245-4.833-.755-7.475-.903-.124 1.168-.388 2.771-.113 3.962 2.349.142 5.274-.29 7.248.228-.343 1.092-.464 2.407-1.135 3.17-2.201-.367-4.233-.898-6.452-1.247-.059 1.189-.305 2.192-.341 3.401 1.956.27 4.433.02 6.228.452-.244 1.112-.406 2.31-.905 3.168-1.933-.409-3.511-1.17-5.548-1.471.035.67-.333 1.436-.114 1.923.738.122 1.288-.237 1.811 0 .052.521-.111 1.25.112 1.587 1.883-.423 3.614-.993 5.322-1.587 1.644-6.585 3.424-13.037 5.1-19.589 1.706-1.233 2.896.588 3.966 1.471 2.464 2.04 5.271 4.162 7.357 5.89.861-1.444 1.447-3.156 2.493-4.417.422.146.69.442.905.792-.873 2.862-2.15 5.327-3.059 8.155 1.661 1.547 3.202 3.218 5.098 4.532 1.121-3.449 2.437-6.699 3.509-10.194-2.563-2.907-5.663-5.557-8.606-8.495z" fill="#2b5df2"/><path d="m416.616 191.439c-.562 2.285 3.024 3.057 3.285.793.165-1.409-.818-2.006-1.923-1.813-.842.148-1.275.672-1.362 1.02z" fill="#e20909"/><path d="m426.585 219.297c.11.422.894 1.145 1.472 1.476.008-.483.152-.831.226-1.244 2.037-1.534 4.464-2.475 6.344-4.078 1.769-1.513 2.767-3.714 4.53-5.209.25.087.441.237.793.225.164-.59.355-1.157.564-1.698-3.006-2.353-5.961-4.761-8.946-7.134-1.642 5.903-3.422 11.674-4.983 17.662z" fill="#fff"/><path d="m439.384 212.845c-.691 1.084-1.758 1.79-2.382 2.945.427.142 1.026.104 1.362.34-.101.479.343 1.003 0 1.357-.862-.102-2.173-1.058-2.719-.113.908.261 1.876.466 2.605.905.013.465.017.924-.229 1.136-1.428-.308-2.728-.745-4.072-1.136-1.741.984-3.595 1.846-5.328 2.833-.094.812-.312 1.502-.452 2.261.548.363 1.401.415 1.929.797.309 2.296.265 4.943 2.603 5.209.815-.847.585-2.048.903-2.946.492-1.369 1.484-2.89 2.608-3.736 2.613-1.966 6.943-1.374 10.419-2.716-1.586-3.211-4.261-5.335-7.247-7.136z" fill="#e20909"/><path d="m378.226 219.642c-1.188.667-3.194 1.969-4.416 2.036-.938.051-1.811-.761-2.715-.794-2.385-.083-4.625 1.547-6.571 2.038 2.071.656 3.959-1.36 6.005-.905 1.15.258 1.825 2.42 3.281 2.946.58.21.971-.059 1.701.34-.195.722-1.482 1.268-1.022 1.923 1.189-.008 1.553-1.751 2.605-2.263 3.343-.055 6.85.056 9.512-.68-1.512-2.75-2.651-5.875-3.394-9.402-1.19 2.127-2.732 3.492-4.986 4.761z" fill="#e20909"/><path d="m368.148 218.845c-2.334.96-4.717 2.497-7.25 2.38-.823-.038-1.388-.713-1.697.341 5.72 1.642 10.254-4.28 15.97-3.627.104-.347.551-.354.565-.79-2.954-.347-5.236.733-7.588 1.696z" fill="#fff"/><path d="m371.886 219.755c1.05.405 2.145.092 3.059-.227 0-.306-.043-.649.113-.796-1.143.257-2.202.594-3.172 1.023z" fill="#fff"/><path d="m426.246 220.66c-2.001 1.134-4.247 2.018-6.91 2.488v2.381c2.884-.216 5.108-1.081 7.136-2.156-.14-.838.29-2.244-.226-2.713z" fill="#fcef3c"/><path d="m413.9 220.999v6.909h3.512c0-2.305 0-4.607 0-6.909-1.169 0-2.34 0-3.512 0z" fill="#fcef3c"/><path d="m402.689 221.112c-.125.706-.362 1.294-.453 2.036 2.766 1.237 5.778 2.223 9.512 2.493.188-.558.188-1.821 0-2.38-3.473-.265-6.352-1.118-9.059-2.149z" fill="#fcef3c"/><path d="m370.188 223.373c-2 .61-3.972 1.244-5.891 1.93v.904c2.268-.486 4.051-1.459 6.231-2.037.058-.44-.288-.466-.34-.797z" fill="#e20909"/><path d="m401.331 224.963c-1.877 3.831-3.785 7.967-5.665 11.666-.585 1.154-1.673 2.582-1.019 3.963 1.627-2.301 2.329-5.524 3.964-7.814.816.749.062 2.057-.226 2.942-.996 3.066-2.209 6.229-3.061 9.175.903 1.063 1.964 1.968 3.061 2.829.885-2.813 1.299-6.098 2.267-8.833.531.262 1.276.309 1.47.906-.476 2.997-1.053 5.895-1.584 8.833 1.078.207 2.092.477 3.169.683.422-2.149.384-4.755.796-6.91.54.063 1.137.071 1.584.228-.016 2.285-.188 4.42-.114 6.795 1.756-.248 3.494-.506 5.096-.908 1.113-5.946 2.169-11.946 3.06-18.118-.824-.079-1.748.12-2.266 0 .068-1.051-.087-1.874-.114-2.833-4.032-.309-7.62-1.063-10.418-2.604z" fill="#2b5df2"/><path d="m430.551 239.231c-.976-4.554-1.845-10.066-3.06-14.042-2.099 1.334-4.814 2.056-7.929 2.376-.26.76.028 2.063-.338 2.72-.558.359-2.29-.151-2.493.225.136 6.135.705 12.811 1.021 19.143.745.026 1.606.473 2.148.34-.113-2.116-.28-4.176-.339-6.344.449-.084 1.284-.246 1.702 0 .093 2.207.314 4.287.453 6.457 1.788.011 3.183-.363 4.867-.453-.171-3.797-.979-7.554-.792-11.326.492.086 1.046-.142 1.245 0 .453 3.245.652 6.746 1.131 9.965 2.019-1.116 1.246-2.95.793-5.436-.463-2.556-.836-4.818-1.243-7.136-.17-.943-.962-2.756.338-3.055 1.248 3.773 1.46 8.579 2.721 12.345 1.207-1.133.222-3.685-.225-5.779z" fill="#2b5df2"/><path d="m364.637 228.136c.098.541.473.811.566 1.356 1.594-.741 3.522-1.615 5.095-2.38.462-.223 1.455-.449 1.021-1.244-2.16.37-4.4 1.635-6.682 2.268z" fill="#e20909"/><path d="m371.772 228.021c-1.919.761-3.722 1.64-5.321 2.717.4.124.572.482 1.018.564 1.494-.921 3.134-1.697 4.417-2.828-.035-.155-.159-.219-.114-.453z" fill="#e20909"/><path d="m369.166 231.987c.11.19.379.225.453.45 1.088-.685 2.182-1.369 2.945-2.38-.161-.029-.128-.249-.228-.339-1.241.567-2.283 1.34-3.17 2.269z" fill="#e20909"/><path d="m372.564 231.987c.233.556.573 1.01 1.019 1.355.288-.433.959-.475 1.248-.905-.563-.269-.608-1.057-1.135-1.36-.362.316-.76.596-1.132.91z" fill="#fff"/><path d="m396.688 250.217c-.199 2.299-.394 4.729-.227 6.907.263 3.393 1.881 5.88 3.396 7.813-.324.355-.316 1.042-.907 1.137-.779-.317-1.022-1.167-1.81-1.475-1.479 2.208-1.636 5.82-.226 8.267.607-.297 1.482-.327 2.035-.679.092-1.42.075-2.946.566-3.964.356.023.832-.078 1.021.112-.015 1.272-.333 2.233-.225 3.626.729-.103 1.316-.34 2.036-.453-.391-2.896.64-4.963 1.244-7.135 1.206-4.328 2.316-8.562 3.285-12.912-3.947.757-7.576-.301-10.191-1.583.003.114.003.227.003.339z" fill="#2b5df2"/><path d="m417.525 252.028c.313 4.454 1.296 8.918 2.717 12.909.425 1.187 1.505 2.775 1.476 3.852-.04 1.199-1.139 2.107-1.136 3.286 1.104.592 2.629.769 4.415.679-.038-1.167-.227-2.188-.451-3.172.324-.469.8-.785 1.36-1.019.137.807.265 1.619.453 2.379 2.26-.511.967-3.854.906-5.892-1.203.726-1.854 1.998-3.173 2.608-.21-.548-.336-1.175-.453-1.816.367-.776 1.072-1.013 1.584-1.696 2.143-2.849 1.757-7.981 1.928-12.344-2.756.897-6.644.94-9.626.226z" fill="#2b5df2"/><path d="m391.819 271.734c-.485 1-1.459 2.349-1.476 3.173-.02 1.159 1.163 2.149 1.588 3.281.448-1.51.835-3.091 1.357-4.529.422-.181 1.102-.109 1.585-.228-.555-1.561-.905-3.318-1.585-4.755-.342.926-.935 1.948-1.469 3.058z" fill="#e20909"/><path d="m426.472 274.907c-.031.611.71 1.681 1.02 2.376.379.858.69 1.584 1.018 2.381.908-.309 1.89-1.504 2.72-2.268-.874-1.917-1.283-4.303-2.38-6.002-.392 1.128-2.326 2.522-2.378 3.513z" fill="#e20909"/><path d="m416.961 279.323c1.951.652 3.546 1.658 5.549 2.265.494-1.503 1.345-2.658 1.696-4.305-1.042-.434-.814 1.064-1.696 1.131-.165-.062-.278-.175-.341-.339.324-1.077 1.51-1.877 1.585-2.829-2.509.091-3.898-.932-5.096-2.152-.445 2.195-1.31 3.974-1.697 6.229z" fill="#e20909"/><path d="m397.141 275.246c-.067.48.082.75.113 1.132.846-.172 1.665-.371 2.604-.453.035.383.182.652.114 1.132-.854.394-1.826.668-2.718 1.019-.048.562-.387 1.425-.113 1.926 2.357-.966 4.971-1.673 7.362-2.604.047-1.409-.203-2.517-.113-3.965-2.545.48-4.837 1.201-7.249 1.813z" fill="#e20909"/><path d="m394.762 274.793c-.591.177-1.89 4.086-2.037 5.208-.5 3.732.19 8.598-.113 12.233-1.121.936-2.196 1.814-3.513 2.827-.735.57-2.859 2.61-3.736 2.721-.672.085-1.351-.499-1.924-.453-1.39.118-2.587 1.753-3.965 1.924.434 1.19.973 2.274 1.697 3.172 2.861-.495 5.414.207 7.703-.453.956-.275 1.618-1.155 2.492-1.356 1.955-.462 3.68.045 5.774-.453-.042-1.812.124-4.803-.114-6.797 1.673-1.581 2.003-4.456 2.717-7.136.533-1.99 1.127-3.995 1.475-5.888-1.869.473-3.757 1.523-5.552 1.697-.163-2.286-.105-4.799-.114-7.246-.205.063-.526-.08-.79 0z" fill="#e20909"/><path d="m423.414 283.514c-.968-.351-1.959-.687-2.946-1.022.832 4.12 1.44 8.455 2.493 12.345.683-.003.98-.167 1.697 0 .383 1.628 1.557 3.044 1.701 4.53-.947.004-1.845-.04-2.605-.227-.255-.699.387-2.602-.114-3.168-1.065-.079-.721 1.4-.793 2.15-.094.983-.299 2.001-.225 2.832 3.476.07 6.737.573 9.625 1.018 1.437.223 3.109.66 4.078.566 1.603-.156 2.683-1.476 4.188-1.697-.237-1.085-.851-1.795-1.13-2.833-3.462-.808-7.22-1.312-10.535-2.263-.18-2.188-.121-4.425-.228-6.684-.094-2.114.1-4.554-.226-6.339-.346-1.94-2.058-3.599-2.603-5.101-.863 1.894-1.377 4.134-2.377 5.893z" fill="#e20909"/><path d="m302.576 157.353c.117 1.014 1.198 1.066 1.926 1.47-.688.634-1.289-.564-2.152-.114.059-.624-.66-.472-.793-.905.016-.476.518-.461 1.019-.451z"/><path d="m417.525 167.658c.224.267.266.714.34 1.131-2.079.56-3.344-.655-5.437-.453.071-.382-.146-1.051.114-1.246 1.858-.528 3.137 1.087 4.983.568z"/><path d="m417.64 170.601c.137.937-.969.448-1.249.454-1.269 1.156-2.263-.072-3.962 0 0-.227 0-.454 0-.679h1.246c1.043-1.692 2.428.144 3.965.225z"/><path d="m313.788 193.139c.135-.012.069.164 0 0z"/><path d="m415.374 221.451c2.005-.636 1.695 2.162.338 2.154-.924-.008-1.756-1.705-.338-2.154z"/><path d="m415.261 225.303c1.863-.756 1.962 2.048.565 2.149-1.24.094-1.815-1.642-.565-2.149z"/><path d="m427.719 229.944c.569.456.49 1.448.113 2.043-1.534.492-1.55-2.405-.113-2.043z"/><path d="m399.404 232.552c-.94-.066-.957-2.225.112-2.153.555.302.749 2.032-.112 2.153z"/><path d="m425.906 235.492c.887-.253 1.323.301 1.359.909.152 2.702-3.967-.158-1.359-.909z"/><path d="m400.879 237.646c-.337-2.106 2.092-1.83 2.148-.564.051 1.064-1.458 1.502-2.148.564z"/><path d="m406.427 240.136c.082.991-.217 1.482-.792 1.588-2.36.421-.957-3.683.792-1.588z"/><path d="m420.242 240.819c.499-.059 1.138.136 1.135 1.017-.022 2.831-4.045-.677-1.135-1.017z"/><path d="m278 251.011h.341c2.812 6.211 5.737 12.304 8.38 18.685-.875.374-1.599.894-2.605 1.135-1.471-4.07-3.019-7.983-4.643-12.118-.517-1.315-1.362-2.794-1.473-4.076-.096-1.122.265-2.539 0-3.626z"/><path d="m286.606 206.049c-1.073.4-2.208.199-3.17.906-.824 3.697 2.518 4.774 4.417 6.454.66-.357 1.515-.521 2.265-.791.08-2.289-.078-5.269-.113-7.816-1.506.035-2.295.836-3.399 1.247z" fill="#e20909"/></g></svg>