<svg fill-rule="evenodd" height="682" image-rendering="optimizeQuality" shape-rendering="geometricPrecision" text-rendering="geometricPrecision" viewBox="0 0 1024 682" width="1023" xmlns="http://www.w3.org/2000/svg" xmlns:xlink="http://www.w3.org/1999/xlink"><clipPath id="a"><path d="m512 478c74-64 74-210 0-274-74 64-74 210 0 274z"/></clipPath><path d="m0 0h1024v682h-1024z" fill="#fff"/><path d="m601.70955 173.23782c-15.60091 6.06702-22.94476 19.66757-25.27469 40.75856l-154.80742 289.5953a3.5126257 3.5126257 0 0 0 6.19355 3.31574l153.5562-287.31182c14.93802-12.89747 24.78892-27.6402 20.33236-46.35778z" fill="#f7da4d"/><path d="m422.29045 173.23782c-4.45656 18.71758 5.39434 33.46031 20.33236 46.35777l153.5562 287.31183a3.512627 3.512627 0 1 0 6.19355-3.31574l-154.80743-289.59531c-2.32992-21.09098-9.67377-34.69153-25.27468-40.75855z" fill="#f7da4d"/><path d="m0 0h341v682h-341z" fill="#003cc8"/><path d="m683 0h341v682h-341z" fill="#003cc8"/><path d="m463 570c4-3 8-6 13-7 4-1 8 2 11-1 0 1 1 1 1 3 0-4 6-2 6-7 1 3 3 5 3 8s8 3 11 3c-2-1-6-1-7-3-1-1-1-5-2-1h1c-3 1-1-3-1-4 0-3-4-5 0-7 0 2 1 3 1 5 1-3-1-6 0-8 2 1 3 1 4 2-1-2-4-4-5-6 2 1 4 1 5 2 0 0 1 0 1-1v1c1-1 3-3 3-4 0-2-6-3-7-5 3 3 6 1 8 2-1-2-2-3-3-6-1 1-1 1-1 1 0-1 0-3 1-4 0 1 1 1 2 2 0-2-1-3-1-5 0 0 1 0 1 1-1-2-1-3-2-4h2c-2 0-7-6-8-9 4 3 4 4 9 4s10 1 15 1c4 0 7 0 11 1 4 2 8 4 12 5 7 2 13 11 18 15 3 4 8 9 11 11 2 2 6 3 8 6-1 0-1 0-2 0 4 1 7 1 9 5s-2 6-6 7c-14 7-6-8-14-11 0 4 0 15-4 17-1 1-7 0-8-1-3-3 0-3 0-6 2-7-11-5-15-6-3 0-5 0-7-1-2 0-3-2-5-3s-5 1-8-1c-2 9-18 7-25 7-3 0-6 5-10 5-3 0-9-1-12 1-4 2-4 10-10 10-1 0-2 0-3 0-3 0-2-1-5-2 0-1-2 0-2 0-1-1 0-3-2-3-2-1 0-6 2-6-2-1-3-1-4-2-5 5-19 3-15-5 3-5 8-4 11-8 0 1 1 2 1 3 0-2 1-3 1-4 1 2 0 4 0 6 1-1 1-2 2-4 1 3-2 5-1 8 0 0 0-1 1-1 1 7 3 6 10 4z" fill="#f7da4d" stroke="#000" stroke-linecap="square"/><path d="m567 547c5 2 11 4 17 6 4 2 10 6 15 6 2 0 5-2 6-5 0 0-1-3-1-4 0-2 2-5 0-7 2 0 5 2 5 5 1-1 1-2 1-3 1 6 0 8-4 12-5 5-8 4-15 2-5-1-10-5-16-7-3-1-5-3-8-5z" fill="#f7da4d" stroke="#000" stroke-linecap="square"/><path d="m473 575c4-1 7-5 11-8-2 2-4 4-6 5 4 0 8-1 11-2 2 0 6-2 3-3 1-1 5-2 5-4 3 14-15 6-22 12-3 3-2 9-9 9-2 0-5 0-6-2-2-2-3 1-4-3-1-1-3-1-1-4 0 2 0 4 2 4 1-1 2-2 3-4 0 2-1 4-2 5 4 3 5 0 6-3 0 1-1 4 0 5 2 0 3-1 4 0 2 1 4-5 5-7z"/><path d="m453 566c0 3 0 6 4 6-1 1-3 0-4-1-3 3-5 2-8 2-5 0-7 0-8-5 1 4 5 4 5 0 2 5 4 5 5 0 2 3 2 4 4 2 1-1 2-2 2-4z" fill="#050000"/><path d="m560 578c7 2 13-3 7-8 1 1 1 2 1 3-2 0-2 1-1 2-1 0-2 0-4 0l2 2c-3 1-3-2-5-3s-2 3 0 4z"/><path d="m577 574c3 3 18-3 13-7 1 3-3 6-5 2 0 1-1 3-1 4-1-2-1-4-3-5 0 2 3 5 0 6-3 0-2-4-3-5-1 1 0 3 1 4-2 0-3-2-3-4-1 2 0 2 0 4 0 1 2 2 1 1z"/><path d="m607 556c5-1 3-9 3-11 0 2 0 2-1 3 0-3-3-5-5-5 4 3-4 12 3 13z"/><path d="m557 567c0-2-2-3-3-4-1 5-10 2-12 0-1 6 11 4 15 4z"/><path d="m440 569c-1 1-1 2-1 3 1-1 1-2 1-3z" fill="#050000"/><path d="m445 570c-1 1-1 1 0 3 0-1 0-2 0-3z" fill="#050000"/><path d="m581 573c-1-1-1-2-1-3 0 1 1 2 1 3" fill="none"/><g fill="#050000"><path d="m588 570c-1-1-2-1-2-3 1 1 1 2 2 3z"/><path d="m449 569v3c1-1 0-2 0-3z"/><path d="m566 575c-1-1-2-1-3-2 1 0 2 1 3 2z"/><path d="m455 578c1-2 1-3 3-3-1 1-2 2-3 3z"/><path d="m460 580c0-1 1-2 2-2-1 0-1 1-2 2z"/><path d="m465 583c0-2 1-3 2-4 0 2-1 3-2 4z"/></g><path d="m479 483c1-1 1-2 1-3-1 1-1 1-2 1 1-1 2-3 1-5-1 2-1 2-2 3 0-4-3-1-4-4-2 1-3 2-5 3 0-1-1-1-1-2 0 4-5 3-8 0 2 2 4 3 4 6-2-1-4-1-5-3 1 2 1 3 1 5-1-1-2-2-3-3v2c-2-1-4-1-6 0 2 1 2 2 4 2-3 1-5 1-7 3 1 0 1 1 2 1-2 1-4 1-5 3 2-2 5-1 7-1-2 0-5 1-7 3h2c-3 4-8 8-7 14 0-1 1-1 2-2-1 2-1 5-2 7 1-1 2-1 2-1-1 1-2 2-2 3h1c-2 2-3 3-3 5h3c-1 0-1 1-1 2l2-2c-1 0-1 0-1 0 1-1 2-2 3-2 1 3-3 5-4 8 4-2 2 7 2 9 1 0 2-1 2-2 0 3-2 5-3 8 2 0 3-1 4-2-1 1-3 3-3 5 2-2 5 6 5 8 0 3-2 7-1 10 2-1 3-2 4-4 0 1 0 2 1 3 0-2 1-3 1-4 1 2 0 4 0 6 1-1 1-2 2-4 1 3-2 5-1 8 0 0 0-1 1-1 0 3 0 6 4 6 1 0 5-1 6-2s4-3 5-3c3 0 6-3 10-4 3 0 6 2 9-1 0 1 1 1 1 3 0-4 6-2 6-7 1 3 3 5 3 8s8 3 11 3c-3-1-5-1-7-3-1-1-1-5-2-1h1c-4 1-1-2-1-4 0-1-2-3-2-5 2 1 3 1 3 3 1-3-1-6 0-8 2 1 3 1 4 2-1-2-4-4-5-6 2 1 4 1 5 2 0 0 1 0 1-1v1c1-1 3-3 3-4 0-2-6-3-7-5 3 3 6 1 8 2-1-2-2-3-3-6-1 1-1 1-1 1 0-1 0-3 1-4 0 1 1 1 2 2 0-2-1-3-1-5 0 0 1 0 1 1-1-2-1-3-2-4h2c-3 0-4-7-8-9 1 2 2 4 4 4-1-5-5-8-8-12 4 3 8 6 11 9-1-1-3-6 0-5-1-2-2-4-3-7-1-1-7-1-8-1 3-1 7-2 10-1-3-3-8-3-11-6 3-1 6 0 9 1 0-1 0-1 2-2-3 0-5-1-8-2 2-1 3-3 4-4-7 0-6-3-7-9-1 0-2 1-4 1 0-1 0-1 0-2-1 0-2 1-3 1 1-1 0-2 1-3-2 2-5 2-5 4 0-2 0-4 2-5-3 0-4 5-7 4z" fill="#f7da4d" stroke="#000" stroke-linecap="square"/><path d="m493 498c-5 1 9 23 11 25 1 2 3 5 3 7s-4 5-5 7c-4 6-8 12-12 18-5 6-13 7-20 8-4 1-6 2-9 0-4-3-7-7-9-10-5-5-9-15-6-22 3-6 4-10 6-17 0-2 0-5 1-7 2-3 6-5 6-8-1 0-2-1-1-2s4-1 5-1c-2-1-4-1-6-2 3-1 6-1 4-4 2 1 6 3 3 0 5 9-8 16-6 25s5 26 17 23c6-1 6-5 9-10 1-4 5-6 6-11 1-1 0-3 1-5 1-1 2-3 2-5 0-4-9-4-4-9 1-1 3-1 4 0z" fill="#ebb155"/><path d="m464 492c-1 0-2-1-3-1 1 0 1 1 1 1-2 0-3 1-4 1 0 1 1 1 1 1h4c-1-1 0-1 1-2z"/><path d="m457 572c-4 0-4-3-4-6-1 0-1 1-1 1-1-3 2-5 1-8-1 2-1 3-2 4 0-2 1-4 0-6 0 1-1 2-1 4-1-1-1-2-1-3-1 2-2 3-4 4-1-3 1-6 1-9 0-2-3-11-5-9 0-2 2-4 3-5-1 1-2 2-4 2 1-3 3-5 3-8 0 1-1 2-2 2 0-2 2-11-2-9 1-3 5-5 4-8-1 0-2 1-3 2h1c-1 1-1 1-2 2 0-1 0-2 1-2-1 0-2 0-3 0 0-2 1-3 3-5-1 0-1 0-1 0 0-1 1-2 2-3 0 0-1 0-2 1 1-2 1-5 2-7-1 1-2 1-2 2-1-6 4-10 7-14-1 0-1 0-2 0 2-2 5-3 7-3 0-1 0-3 1-4-1 4 2 0 3 0 1 1 1 3 2 4-1 0-3 0-4 0 0 2 2 2 4 3-2 0-2 0-4 1 0 1-1 3-1 3 1 1 3-2 5-2-1 2 0 2 0 3 1 0 2 0 3-1h-1c1-1 2-1 3-1 0 1 0 1 1 2-2 1-4 3-5 4-2 2-3 2-4 5 1-1 1-1 3-2 0 3 0 6-3 8 1 0 2 1 3 2-3 0-6 3-8 6 2-1 5-3 7-4 0 3-5 7-7 9 2-3 6-5 8-6-3 4-8 6-11 10 3-2 7-4 10-7-3 4-8 7-11 10 3-2 8-7 12-6-4 1-9 6-8 10 1-4 5-6 6-9 0 2 0 3-1 4-1 2 0 2 0 4 0 0-2 4 0 3 1-1 2-3 3-4-2 5 0 11-2 16 3-4 1-10 4-13 0 1 1 2 1 4 0-1 0-2 0-3 3 1 2 4 2 7 0 6 4 11 2 17 3-6 3-13 2-19-1 3-1 6-1 9-2-5-1-9 2-13 0 6 1 12 3 17-1-3-2-11 1-13 1 2 0 4 0 6 1-3 3-4 3-7 0 3 1 7 1 10 0-3 3-3 4-5s1-5 2-7c2 5 5 13 1 18 2-2 4-6 4-8 0 0-1 1-1 1-1-3 0-7 0-10 2 3 1 8 2 11 0-4 0-9 0-14 0 4 2 8 1 12 0-3 4-7 3-10 0 1 1 1 1 2-1-3-4-5-5-8 2 2 5 4 7 6 0-3-3-6-2-10 1 3 6 6 6 8 2-1 2-3 1-5 0 1 0 1-1 2-2-3-5-6-7-10 3 3 6 4 9 7-1-3-2-5-3-8 1 1 3 2 3 4 1 0 10 0 4-3v3c-1-4-6-5-8-8 2 2 6 3 8 4-1-2-4-4-6-6 0 0 0-2-1-2 0-1-2-2-2-3 1 0 3 0 3 1 0-2-1-4-2-6 3 4 7 7 8 12-2 0-3-2-4-4 4 2 5 9 8 9-1 0-1 0-2 0 1 1 1 2 2 4 0-1-1-1-1-1 0 2 1 3 1 5-1-1-2-1-2-2-1 1-1 3-1 4 0 0 0 0 1-1 1 3 2 4 3 6-2-1-5 1-8-2 1 2 6 3 7 5 0 1-2 3-3 4v-1c0 1-1 1-1 1-1-1-3-1-5-2 1 2 4 4 5 6-1-1-2-1-4-2-1 2 1 5 0 8 0-2-1-2-3-3 0 2 2 4 2 5 0 2-3 5 1 4h-1c1-4 1 0 2 1 2 2 4 2 7 3-3 0-11 0-11-3s-2-5-3-8c0 5-6 3-6 7 0-2-1-2-1-3-2 2-4 1-6 1-3 0-5 0-8 2-6 2-10 5-16 7z"/><path d="m481 533c1-1 2-2 2-3 0 0 1 1 1 2-3-1 1 7 1 9 0-3-2-5-4-6 0 2 0 3 1 4 0-1 0-2-1-3 2 2 2 4 1 5 0-1-1-2-2-3v5c-1-1-2-3-2-4-1 0-1 0-1 1 0 0-1-1-1-1v3s1-1 1-1c0 1-1 3-2 4 1-2-1-4-1-6-1 3-1 5-2 8 0-2 1-6 0-8 0 0-1 1-1 1s0 0 0-1c-1 1-1 2-2 4 1-1 1-1 1-2 0 3-1 5-1 8-1-3 0-7-2-10 0 0-1 1-1 1 0-1 0-2 0-3-1 2-2 4-2 6-1-3 1-6 1-9-1 0-1 0-1 1 0-1 0-2 0-2-2 2-3 3-4 6 0-3 2-5 3-7-1 1-2 1-2 2 0-2 1-5 1-7-1 0-1 0-2 1h1c-1 1-2 2-3 4 0-2 3-5 3-8-1 1-1 1-1 1h1c-1 1-2 2-3 3 0-1 1-3 1-4-1 0-1 0-1-2 0-1 0-2 1-3 0 3 3 7 4 9 1 3 2 6 3 8 4 4 14 3 15-3z"/><path d="m466 498c-1 3-3 5-5 7 3 1-3 5-3 7h1c-1 2 0 4 0 6h-1c0-2-1-3 0-5 0 0 0 0-1 0 0-2 2-4 2-7 1 1 1 1 1 1s1-1 1-1c-1 0-2-1-3 0 1-1 1-2 2-3v1c2-1 2-3 2-3 1-1 3-1 4-3z"/><path d="m485 526c4 2 4 5 4 8-1-2-3-5-4-8z"/><path d="m493 523c2 0 3 3 3 5-1-2-2-3-3-5" fill="none"/><path d="m453 498c-4 3-6 6-9 9 4-2 6-7 9-9z" fill="#b5660a"/><path d="m453 502c-3 2-8 5-9 9 2-3 6-7 9-9" fill="none"/><path d="m455 505c-3 1-7 3-8 6 2-2 6-5 8-6" fill="none"/><path d="m449 517c-3 1-6 4-7 7 2-2 5-6 7-7" fill="none"/><path d="m451 521c-5 1-7 8-9 11 2-3 5-10 9-11" fill="none"/><path d="m454 535c-4 3-5 9-5 13 3-3 3-9 5-13z" fill="#b5660a"/><path d="m461 546c-4 3-3 12-3 16 1-4 0-14 3-16" fill="none"/><path d="m452 511c-2 1-4 2-6 4 1-1 4-3 6-4" fill="none"/><path d="m495 539c3 1 3 7 5 9-1-3-2-7-5-9" fill="none"/><path d="m489 544c3 2 5 6 6 9-3-2-4-6-6-9" fill="none"/><path d="m475 548c4 1 3 7 3 10-2-3 0-7-3-10z" fill="#b5660a"/><path d="m485 500c0-1-1-1-2-2v3c-1-1-2-2-3-3v1s1 1 1 0v3c-2-2-7-1-4-5-1 1-1 1-2 1-1-2-4 1-4 3 0-2 1-3 2-4-2 0-3-2-5-3 0-1-1-2-2-2 2-2 6 2 7 0 0-4-7-5-6-9l2 2c0-3-3-4-5-5 2 0 4-1 3-4 0 1 1 2 2 3 1-1 2-2 4-3-1 2 4 5 5 1 1 2-1 4 0 6 0-1 0-1 1-2-1 3 0 6 2 8 0-1 0-4-1-5 2-1 3-4 5-4-2 2-2 4-1 7l2-2c-1 1-1 3-1 4 1 0 1-1 1-1 1 1 1 1 1 3 1-2 3-3 5-2-2 1-3 1-4 3 1-1 3-1 4 0h4c-4 2-7 6-11 8z" fill="#eba12b"/><path d="m493 495c3-2 9 3 13 3-2 1-2 1-2 2-3-1-6-2-9-1 0 1 1 1 1 1-3 1-6-3-9 1 3-1 4 2 6 2 0 0 0-1-1-1 2 0 3 1 5 3-1-1-1-2-1-3 3 0 7 1 10 3-3-1-7 0-10 1 1 0 7 0 8 1 1 3 2 5 3 7-3-1-1 4 0 5-3-2-5-5-8-7 1 1 3 2 5 2-2-2-4-2-6-4h2c0 1 0 1-1 1h4c-2-3-9-3-11-8v3s0-1-1-1c2 3 4 5 5 9-3-5-5-2-1 2-1 0-1 0-2 0 1 2 3 3 4 5-2-1-4-3-5-4 0 2 0 4-1 6 0-1 0-2 0-3-2 1-2 2-2 4-2 0-3 0-4 0 2-1 3-2 3-5v2c1-2 4-8 0-7 1-2 1-3 1-4 0 1-1 1-1 1 0-2-1-3-1-5 1-1 0 0 1-1 1 0 2 2 3 4 0-1 0-2 0-2s1 1 1 1c-1-2-5-4-5-7-1-3 3-5 6-6z"/><path d="m490 497c-1 0-2 0-3 1 0-1 0-2 0-2-1 4-5-4-8-4 1 1 2 1 2 2 0 0-1 0-2 0l3 3c0-1 0-2 0-2 1 2 4 2 3 5 2-1 3-2 5-3" fill="none"/><path d="m470 531c-1 1-3 2-4 1 1 2 5-1 7-1 1 0 7 3 7 1-1 1-6-1-6-3-1-3 6-4 5-6-1 2-3 1-4-1 0 1-1 1 0 2-2 0-5-1-7-1 1 4 5 3 5 8-1 0-2 0-3 0z"/><path d="m466 499c-1 3-5 6-4 9 0 3 3 2 5 5 0-1 0-1-1-2 2 0 1-1 2 0 0-4 3-4 2-8 0-1-1-8-4-4z" fill="#ffe087"/><path d="m468 522c-2 0-2 3 0 3-3 2-1-5-1-7 0 1-1 3-2 4 1-2 0-3 1-4 0-1 2-3 2-4 0-3-3-3-5-4s-1-1-1-1c1-1 2-1 4-1-1-1-1-2 0-3 0 1 1 2 1 3 0-1 1-1 2-2-3 2 0 5 0 7s-3 7-1 9z" fill="#590019"/><path d="m476 500v3s0 0-1-1v4c1-1 1-1 2-3v2h2c0-1 0-1-1-1h3c-2 2 0 2-1 4 0-1-1-1-1-2-2 0-3 2-4 4 0-1 1-1 1-1-1 1-2 2-3 2 0 0 0-1-1-1 0 1-1 1-1 2-1-1-1-2-2-3h2c2-1 2-4 0-6 1 0 2-2 3-4 0 2 1 2 2 1z" fill="#ffe087"/><path d="m487 504c-2-1-3-2-3-3 0 1-1 1-1 2 0-1-1-2-1-2-1 2-2 1-4 2 1 0 2 1 3 0-1 2 1 3 0 5 0 2-2 0-2 3 0 5 6-1 8-1-2-2-2-3-3-4 1 0 1 1 2 1 0-1 0-2 1-3z" fill="#ffe087"/><path d="m487 510c-3 0-6-2-8 1-1 3 2 5 0 8 2 0 3-2 3-4 0 1-1 2-1 2-2-3 1-7 6-7z" fill="#590019"/><path d="m467 511c0-5-5 1 0 0" fill="none"/><path d="m480 512c0-2 1-2 3-2 0 1-1 2-3 2" fill="none"/><path d="m466 510c2-2-2-2 0 0" fill="none"/><path d="m481 512c3-3-2-3 0 0" fill="none"/><path d="m484 510c-6-2-2 6-1 0 0 2-3 2-4 5 0-3 0-7 5-5z"/><path d="m464 509c1-1 3 0 4 2-2 0-3 0-4-2 1 2 3 2 4 4 0-2-1-7-4-4z"/><path d="m462 523c0 2 1 3 2 4 0 2-1 4 1 5 2 2 5-2 7-2 1-3-2-2-3-4 2 1 2 4-1 4s-5-5-6-7z" fill="#ffe087"/><path d="m480 525c-4 1-8 3-4 5 4 3 8 1 8-5 0 1-3 5-5 5-3-1 0-4 1-5z" fill="#ffe087"/><path d="m480 534c-2 0-3 0-4-1 0 1 0 1 1 2-1-1-2-1-2-3v3c-1-1-1-1-2-2 0 1-1 2-2 3 1-2 0-3 0-4-1 1-1 2-2 3 0-1 0-1 1-2-1 1-3 1-4 1 1 6 12 5 14 0z" fill="#ffe087"/><path d="m480 491c-4-2-5-6-5-10-3 2-1 7 1 9-2-1-3-3-4-5 0 2 1 5 2 7-1-2-2-4-3-5 0 2 0 5 1 7-1-1-2-2-4-2 3 4 4 3 7 2 4 0 5 1 8 3-1-1-2-2-2-4 2 1 3 2 4 3 0-2 0-4 2-4-3 0-4-3-4-5-1 2 0 3 0 5-2-1-4-5-4-6 0 2 0 4 1 5z"/><path d="m536 539c2 3 11 9 9 14-1 3-9 5-11 8-2 2-7 0-9 0 2-2 3-5 3-7-1 3-5 3-6 6-1 2 0 3-3 5-2 1-5 2-8 3-4 1-9 0-13-2-2-1 0-5-1-7 10 4 23 1 30-7 1 1 3 3 2 5 3 0 10-2 11-6s-4-8-4-12z" fill="#eba12b"/><path d="m542 537c-2 1-4 1-6 0 1 1 1 3 2 4 1 3 3 5 5 8 4 7-6 8-10 12 8-6 16-4 25-5 3-1 5 3 8 3 2 0 5 1 5 3 2-5-11-6-14-8-2-1-8-13-9-9-3-3-6-4-10-6 1 0 3-2 4-2z"/><path d="m524 561c2-2 3-5 4-8 1 3-1 6 2 5-1 2-7 5-6 3z"/><path d="m505 522c7 2 16 2 22 2 8 0 14 5 21 6 7 2 15 13 20 19 3 3 5 6 8 7 2 1 6 2 5 5 2 0 4 1 5 2-5-1-10-3-14-7-6-4-11-12-16-17-6-6-15-10-23-11-7-1-16 2-24 1 1-2-2-5-4-7z" fill="#ffe087"/><path d="m485 564c-1 0-3 0-4 0-3 0-7 2-9 3-5 2-10 6-14 6 0 0 1 0 1 1 0 0-1 2-1 2 1-1 3-2 5-2-1 1-1 2-2 3 2-1 3-2 5-3v2c3-4 7-7 11-8 3-2 6-1 8-4z" fill="#ffe087"/><path d="m448 561c-4 2-8 2-10 7 2-1 3-3 5-3v4c1-3 5-4 5-8z" fill="#ffe087"/><path d="m512 478c74-64 74-210 0-274-74 64-74 210 0 274z" fill="none" stroke="#eba12b" stroke-width="5"/><g clip-path="url(#a)" fill="none" stroke="#84088c" stroke-width="6.393"><path d="m515.19629 204.19629v273.60742"/><path d="m531.11102 204.19629v273.60742"/><path d="m545.88898 204.19629v273.60742"/><path d="m561.80371 204.19629v273.60742"/></g><path d="m512 478c74-64 74-210 0-274-74 64-74 210 0 274z" fill="none" stroke="#eba12b" stroke-width="5"/><path d="m529 341c0 9.38884-7.61116 17-17 17s-17-7.61116-17-17 7.61116-17 17-17 17 7.61116 17 17z" fill="#eba12b"/><path d="m463 570c4-3 8-6 13-7 4-1 8 2 11-1 0 1 1 1 1 3 0-4 6-2 6-7 1 3 3 5 3 8s8 3 11 3c-2-1-6-1-7-3-1-1-1-5-2-1h1c-3 1-1-3-1-4 0-3-4-5 0-7 0 2 1 3 1 5 1-3-1-6 0-8 2 1 3 1 4 2-1-2-4-4-5-6 2 1 4 1 5 2 0 0 1 0 1-1v1c1-1 3-3 3-4 0-2-6-3-7-5 3 3 6 1 8 2-1-2-2-3-3-6-1 1-1 1-1 1 0-1 0-3 1-4 0 1 1 1 2 2 0-2-1-3-1-5 0 0 1 0 1 1-1-2-1-3-2-4h2c-2 0-7-6-8-9 4 3 4 4 9 4s10 1 15 1c4 0 7 0 11 1 4 2 8 4 12 5 7 2 13 11 18 15 3 4 8 9 11 11 2 2 6 3 8 6-1 0-1 0-2 0 4 1 7 1 9 5s-2 6-6 7c-14 7-6-8-14-11 0 4 0 15-4 17-1 1-7 0-8-1-3-3 0-3 0-6 2-7-11-5-15-6-3 0-5 0-7-1-2 0-3-2-5-3s-5 1-8-1c-2 9-18 7-25 7-3 0-6 5-10 5-3 0-9-1-12 1-4 2-4 10-10 10-1 0-2 0-3 0-3 0-2-1-5-2 0-1-2 0-2 0-1-1 0-3-2-3-2-1 0-6 2-6-2-1-3-1-4-2-5 5-19 3-15-5 3-5 8-4 11-8 0 1 1 2 1 3 0-2 1-3 1-4 1 2 0 4 0 6 1-1 1-2 2-4 1 3-2 5-1 8 0 0 0-1 1-1 1 7 3 6 10 4z" fill="#f7da4d" stroke="#000" stroke-linecap="square"/><path d="m567 547c5 2 11 4 17 6 4 2 10 6 15 6 2 0 5-2 6-5 0 0-1-3-1-4 0-2 2-5 0-7 2 0 5 2 5 5 1-1 1-2 1-3 1 6 0 8-4 12-5 5-8 4-15 2-5-1-10-5-16-7-3-1-5-3-8-5z" fill="#f7da4d" stroke="#000" stroke-linecap="square"/><path d="m473 575c4-1 7-5 11-8-2 2-4 4-6 5 4 0 8-1 11-2 2 0 6-2 3-3 1-1 5-2 5-4 3 14-15 6-22 12-3 3-2 9-9 9-2 0-5 0-6-2-2-2-3 1-4-3-1-1-3-1-1-4 0 2 0 4 2 4 1-1 2-2 3-4 0 2-1 4-2 5 4 3 5 0 6-3 0 1-1 4 0 5 2 0 3-1 4 0 2 1 4-5 5-7z"/><path d="m453 566c0 3 0 6 4 6-1 1-3 0-4-1-3 3-5 2-8 2-5 0-7 0-8-5 1 4 5 4 5 0 2 5 4 5 5 0 2 3 2 4 4 2 1-1 2-2 2-4z" fill="#050000"/><path d="m560 578c7 2 13-3 7-8 1 1 1 2 1 3-2 0-2 1-1 2-1 0-2 0-4 0l2 2c-3 1-3-2-5-3s-2 3 0 4z"/><path d="m577 574c3 3 18-3 13-7 1 3-3 6-5 2 0 1-1 3-1 4-1-2-1-4-3-5 0 2 3 5 0 6-3 0-2-4-3-5-1 1 0 3 1 4-2 0-3-2-3-4-1 2 0 2 0 4 0 1 2 2 1 1z"/><path d="m607 556c5-1 3-9 3-11 0 2 0 2-1 3 0-3-3-5-5-5 4 3-4 12 3 13z"/><path d="m557 567c0-2-2-3-3-4-1 5-10 2-12 0-1 6 11 4 15 4z"/><path d="m440 569c-1 1-1 2-1 3 1-1 1-2 1-3z" fill="#050000"/><path d="m445 570c-1 1-1 1 0 3 0-1 0-2 0-3z" fill="#050000"/><path d="m581 573c-1-1-1-2-1-3 0 1 1 2 1 3" fill="none"/><path d="m588 570c-1-1-2-1-2-3 1 1 1 2 2 3z" fill="#050000"/><path d="m449 569v3c1-1 0-2 0-3z" fill="#050000"/><path d="m566 575c-1-1-2-1-3-2 1 0 2 1 3 2z" fill="#050000"/><path d="m455 578c1-2 1-3 3-3-1 1-2 2-3 3z" fill="#050000"/><path d="m460 580c0-1 1-2 2-2-1 0-1 1-2 2z" fill="#050000"/><path d="m465 583c0-2 1-3 2-4 0 2-1 3-2 4z" fill="#050000"/><path d="m479 483c1-1 1-2 1-3-1 1-1 1-2 1 1-1 2-3 1-5-1 2-1 2-2 3 0-4-3-1-4-4-2 1-3 2-5 3 0-1-1-1-1-2 0 4-5 3-8 0 2 2 4 3 4 6-2-1-4-1-5-3 1 2 1 3 1 5-1-1-2-2-3-3v2c-2-1-4-1-6 0 2 1 2 2 4 2-3 1-5 1-7 3 1 0 1 1 2 1-2 1-4 1-5 3 2-2 5-1 7-1-2 0-5 1-7 3h2c-3 4-8 8-7 14 0-1 1-1 2-2-1 2-1 5-2 7 1-1 2-1 2-1-1 1-2 2-2 3h1c-2 2-3 3-3 5h3c-1 0-1 1-1 2l2-2c-1 0-1 0-1 0 1-1 2-2 3-2 1 3-3 5-4 8 4-2 2 7 2 9 1 0 2-1 2-2 0 3-2 5-3 8 2 0 3-1 4-2-1 1-3 3-3 5 2-2 5 6 5 8 0 3-2 7-1 10 2-1 3-2 4-4 0 1 0 2 1 3 0-2 1-3 1-4 1 2 0 4 0 6 1-1 1-2 2-4 1 3-2 5-1 8 0 0 0-1 1-1 0 3 0 6 4 6 1 0 5-1 6-2s4-3 5-3c3 0 6-3 10-4 3 0 6 2 9-1 0 1 1 1 1 3 0-4 6-2 6-7 1 3 3 5 3 8s8 3 11 3c-3-1-5-1-7-3-1-1-1-5-2-1h1c-4 1-1-2-1-4 0-1-2-3-2-5 2 1 3 1 3 3 1-3-1-6 0-8 2 1 3 1 4 2-1-2-4-4-5-6 2 1 4 1 5 2 0 0 1 0 1-1v1c1-1 3-3 3-4 0-2-6-3-7-5 3 3 6 1 8 2-1-2-2-3-3-6-1 1-1 1-1 1 0-1 0-3 1-4 0 1 1 1 2 2 0-2-1-3-1-5 0 0 1 0 1 1-1-2-1-3-2-4h2c-3 0-4-7-8-9 1 2 2 4 4 4-1-5-5-8-8-12 4 3 8 6 11 9-1-1-3-6 0-5-1-2-2-4-3-7-1-1-7-1-8-1 3-1 7-2 10-1-3-3-8-3-11-6 3-1 6 0 9 1 0-1 0-1 2-2-3 0-5-1-8-2 2-1 3-3 4-4-7 0-6-3-7-9-1 0-2 1-4 1 0-1 0-1 0-2-1 0-2 1-3 1 1-1 0-2 1-3-2 2-5 2-5 4 0-2 0-4 2-5-3 0-4 5-7 4z" fill="#f7da4d" stroke="#000" stroke-linecap="square"/><path d="m493 498c-5 1 9 23 11 25 1 2 3 5 3 7s-4 5-5 7c-4 6-8 12-12 18-5 6-13 7-20 8-4 1-6 2-9 0-4-3-7-7-9-10-5-5-9-15-6-22 3-6 4-10 6-17 0-2 0-5 1-7 2-3 6-5 6-8-1 0-2-1-1-2s4-1 5-1c-2-1-4-1-6-2 3-1 6-1 4-4 2 1 6 3 3 0 5 9-8 16-6 25s5 26 17 23c6-1 6-5 9-10 1-4 5-6 6-11 1-1 0-3 1-5 1-1 2-3 2-5 0-4-9-4-4-9 1-1 3-1 4 0z" fill="#ebb155"/><path d="m464 492c-1 0-2-1-3-1 1 0 1 1 1 1-2 0-3 1-4 1 0 1 1 1 1 1h4c-1-1 0-1 1-2z"/><path d="m457 572c-4 0-4-3-4-6-1 0-1 1-1 1-1-3 2-5 1-8-1 2-1 3-2 4 0-2 1-4 0-6 0 1-1 2-1 4-1-1-1-2-1-3-1 2-2 3-4 4-1-3 1-6 1-9 0-2-3-11-5-9 0-2 2-4 3-5-1 1-2 2-4 2 1-3 3-5 3-8 0 1-1 2-2 2 0-2 2-11-2-9 1-3 5-5 4-8-1 0-2 1-3 2h1c-1 1-1 1-2 2 0-1 0-2 1-2-1 0-2 0-3 0 0-2 1-3 3-5-1 0-1 0-1 0 0-1 1-2 2-3 0 0-1 0-2 1 1-2 1-5 2-7-1 1-2 1-2 2-1-6 4-10 7-14-1 0-1 0-2 0 2-2 5-3 7-3 0-1 0-3 1-4-1 4 2 0 3 0 1 1 1 3 2 4-1 0-3 0-4 0 0 2 2 2 4 3-2 0-2 0-4 1 0 1-1 3-1 3 1 1 3-2 5-2-1 2 0 2 0 3 1 0 2 0 3-1h-1c1-1 2-1 3-1 0 1 0 1 1 2-2 1-4 3-5 4-2 2-3 2-4 5 1-1 1-1 3-2 0 3 0 6-3 8 1 0 2 1 3 2-3 0-6 3-8 6 2-1 5-3 7-4 0 3-5 7-7 9 2-3 6-5 8-6-3 4-8 6-11 10 3-2 7-4 10-7-3 4-8 7-11 10 3-2 8-7 12-6-4 1-9 6-8 10 1-4 5-6 6-9 0 2 0 3-1 4-1 2 0 2 0 4 0 0-2 4 0 3 1-1 2-3 3-4-2 5 0 11-2 16 3-4 1-10 4-13 0 1 1 2 1 4 0-1 0-2 0-3 3 1 2 4 2 7 0 6 4 11 2 17 3-6 3-13 2-19-1 3-1 6-1 9-2-5-1-9 2-13 0 6 1 12 3 17-1-3-2-11 1-13 1 2 0 4 0 6 1-3 3-4 3-7 0 3 1 7 1 10 0-3 3-3 4-5s1-5 2-7c2 5 5 13 1 18 2-2 4-6 4-8 0 0-1 1-1 1-1-3 0-7 0-10 2 3 1 8 2 11 0-4 0-9 0-14 0 4 2 8 1 12 0-3 4-7 3-10 0 1 1 1 1 2-1-3-4-5-5-8 2 2 5 4 7 6 0-3-3-6-2-10 1 3 6 6 6 8 2-1 2-3 1-5 0 1 0 1-1 2-2-3-5-6-7-10 3 3 6 4 9 7-1-3-2-5-3-8 1 1 3 2 3 4 1 0 10 0 4-3v3c-1-4-6-5-8-8 2 2 6 3 8 4-1-2-4-4-6-6 0 0 0-2-1-2 0-1-2-2-2-3 1 0 3 0 3 1 0-2-1-4-2-6 3 4 7 7 8 12-2 0-3-2-4-4 4 2 5 9 8 9-1 0-1 0-2 0 1 1 1 2 2 4 0-1-1-1-1-1 0 2 1 3 1 5-1-1-2-1-2-2-1 1-1 3-1 4 0 0 0 0 1-1 1 3 2 4 3 6-2-1-5 1-8-2 1 2 6 3 7 5 0 1-2 3-3 4v-1c0 1-1 1-1 1-1-1-3-1-5-2 1 2 4 4 5 6-1-1-2-1-4-2-1 2 1 5 0 8 0-2-1-2-3-3 0 2 2 4 2 5 0 2-3 5 1 4h-1c1-4 1 0 2 1 2 2 4 2 7 3-3 0-11 0-11-3s-2-5-3-8c0 5-6 3-6 7 0-2-1-2-1-3-2 2-4 1-6 1-3 0-5 0-8 2-6 2-10 5-16 7z"/><path d="m481 533c1-1 2-2 2-3 0 0 1 1 1 2-3-1 1 7 1 9 0-3-2-5-4-6 0 2 0 3 1 4 0-1 0-2-1-3 2 2 2 4 1 5 0-1-1-2-2-3v5c-1-1-2-3-2-4-1 0-1 0-1 1 0 0-1-1-1-1v3s1-1 1-1c0 1-1 3-2 4 1-2-1-4-1-6-1 3-1 5-2 8 0-2 1-6 0-8 0 0-1 1-1 1s0 0 0-1c-1 1-1 2-2 4 1-1 1-1 1-2 0 3-1 5-1 8-1-3 0-7-2-10 0 0-1 1-1 1 0-1 0-2 0-3-1 2-2 4-2 6-1-3 1-6 1-9-1 0-1 0-1 1 0-1 0-2 0-2-2 2-3 3-4 6 0-3 2-5 3-7-1 1-2 1-2 2 0-2 1-5 1-7-1 0-1 0-2 1h1c-1 1-2 2-3 4 0-2 3-5 3-8-1 1-1 1-1 1h1c-1 1-2 2-3 3 0-1 1-3 1-4-1 0-1 0-1-2 0-1 0-2 1-3 0 3 3 7 4 9 1 3 2 6 3 8 4 4 14 3 15-3z"/><path d="m466 498c-1 3-3 5-5 7 3 1-3 5-3 7h1c-1 2 0 4 0 6h-1c0-2-1-3 0-5 0 0 0 0-1 0 0-2 2-4 2-7 1 1 1 1 1 1s1-1 1-1c-1 0-2-1-3 0 1-1 1-2 2-3v1c2-1 2-3 2-3 1-1 3-1 4-3z"/><path d="m485 526c4 2 4 5 4 8-1-2-3-5-4-8z"/><path d="m493 523c2 0 3 3 3 5-1-2-2-3-3-5" fill="none"/><path d="m453 498c-4 3-6 6-9 9 4-2 6-7 9-9z" fill="#b5660a"/><path d="m453 502c-3 2-8 5-9 9 2-3 6-7 9-9" fill="none"/><path d="m455 505c-3 1-7 3-8 6 2-2 6-5 8-6" fill="none"/><path d="m449 517c-3 1-6 4-7 7 2-2 5-6 7-7" fill="none"/><path d="m451 521c-5 1-7 8-9 11 2-3 5-10 9-11" fill="none"/><path d="m454 535c-4 3-5 9-5 13 3-3 3-9 5-13z" fill="#b5660a"/><path d="m461 546c-4 3-3 12-3 16 1-4 0-14 3-16" fill="none"/><path d="m452 511c-2 1-4 2-6 4 1-1 4-3 6-4" fill="none"/><path d="m495 539c3 1 3 7 5 9-1-3-2-7-5-9" fill="none"/><path d="m489 544c3 2 5 6 6 9-3-2-4-6-6-9" fill="none"/><path d="m475 548c4 1 3 7 3 10-2-3 0-7-3-10z" fill="#b5660a"/><path d="m485 500c0-1-1-1-2-2v3c-1-1-2-2-3-3v1s1 1 1 0v3c-2-2-7-1-4-5-1 1-1 1-2 1-1-2-4 1-4 3 0-2 1-3 2-4-2 0-3-2-5-3 0-1-1-2-2-2 2-2 6 2 7 0 0-4-7-5-6-9l2 2c0-3-3-4-5-5 2 0 4-1 3-4 0 1 1 2 2 3 1-1 2-2 4-3-1 2 4 5 5 1 1 2-1 4 0 6 0-1 0-1 1-2-1 3 0 6 2 8 0-1 0-4-1-5 2-1 3-4 5-4-2 2-2 4-1 7l2-2c-1 1-1 3-1 4 1 0 1-1 1-1 1 1 1 1 1 3 1-2 3-3 5-2-2 1-3 1-4 3 1-1 3-1 4 0h4c-4 2-7 6-11 8z" fill="#eba12b"/><path d="m493 495c3-2 9 3 13 3-2 1-2 1-2 2-3-1-6-2-9-1 0 1 1 1 1 1-3 1-6-3-9 1 3-1 4 2 6 2 0 0 0-1-1-1 2 0 3 1 5 3-1-1-1-2-1-3 3 0 7 1 10 3-3-1-7 0-10 1 1 0 7 0 8 1 1 3 2 5 3 7-3-1-1 4 0 5-3-2-5-5-8-7 1 1 3 2 5 2-2-2-4-2-6-4h2c0 1 0 1-1 1h4c-2-3-9-3-11-8v3s0-1-1-1c2 3 4 5 5 9-3-5-5-2-1 2-1 0-1 0-2 0 1 2 3 3 4 5-2-1-4-3-5-4 0 2 0 4-1 6 0-1 0-2 0-3-2 1-2 2-2 4-2 0-3 0-4 0 2-1 3-2 3-5v2c1-2 4-8 0-7 1-2 1-3 1-4 0 1-1 1-1 1 0-2-1-3-1-5 1-1 0 0 1-1 1 0 2 2 3 4 0-1 0-2 0-2s1 1 1 1c-1-2-5-4-5-7-1-3 3-5 6-6z"/><path d="m490 497c-1 0-2 0-3 1 0-1 0-2 0-2-1 4-5-4-8-4 1 1 2 1 2 2 0 0-1 0-2 0l3 3c0-1 0-2 0-2 1 2 4 2 3 5 2-1 3-2 5-3" fill="none"/><path d="m470 531c-1 1-3 2-4 1 1 2 5-1 7-1 1 0 7 3 7 1-1 1-6-1-6-3-1-3 6-4 5-6-1 2-3 1-4-1 0 1-1 1 0 2-2 0-5-1-7-1 1 4 5 3 5 8-1 0-2 0-3 0z"/><path d="m466 499c-1 3-5 6-4 9 0 3 3 2 5 5 0-1 0-1-1-2 2 0 1-1 2 0 0-4 3-4 2-8 0-1-1-8-4-4z" fill="#ffe087"/><path d="m468 522c-2 0-2 3 0 3-3 2-1-5-1-7 0 1-1 3-2 4 1-2 0-3 1-4 0-1 2-3 2-4 0-3-3-3-5-4s-1-1-1-1c1-1 2-1 4-1-1-1-1-2 0-3 0 1 1 2 1 3 0-1 1-1 2-2-3 2 0 5 0 7s-3 7-1 9z" fill="#590019"/><path d="m476 500v3s0 0-1-1v4c1-1 1-1 2-3v2h2c0-1 0-1-1-1h3c-2 2 0 2-1 4 0-1-1-1-1-2-2 0-3 2-4 4 0-1 1-1 1-1-1 1-2 2-3 2 0 0 0-1-1-1 0 1-1 1-1 2-1-1-1-2-2-3h2c2-1 2-4 0-6 1 0 2-2 3-4 0 2 1 2 2 1z" fill="#ffe087"/><path d="m487 504c-2-1-3-2-3-3 0 1-1 1-1 2 0-1-1-2-1-2-1 2-2 1-4 2 1 0 2 1 3 0-1 2 1 3 0 5 0 2-2 0-2 3 0 5 6-1 8-1-2-2-2-3-3-4 1 0 1 1 2 1 0-1 0-2 1-3z" fill="#ffe087"/><path d="m487 510c-3 0-6-2-8 1-1 3 2 5 0 8 2 0 3-2 3-4 0 1-1 2-1 2-2-3 1-7 6-7z" fill="#590019"/><path d="m467 511c0-5-5 1 0 0" fill="none"/><path d="m480 512c0-2 1-2 3-2 0 1-1 2-3 2" fill="none"/><path d="m466 510c2-2-2-2 0 0" fill="none"/><path d="m481 512c3-3-2-3 0 0" fill="none"/><path d="m484 510c-6-2-2 6-1 0 0 2-3 2-4 5 0-3 0-7 5-5z"/><path d="m464 509c1-1 3 0 4 2-2 0-3 0-4-2 1 2 3 2 4 4 0-2-1-7-4-4z"/><path d="m462 523c0 2 1 3 2 4 0 2-1 4 1 5 2 2 5-2 7-2 1-3-2-2-3-4 2 1 2 4-1 4s-5-5-6-7z" fill="#ffe087"/><path d="m480 525c-4 1-8 3-4 5 4 3 8 1 8-5 0 1-3 5-5 5-3-1 0-4 1-5z" fill="#ffe087"/><path d="m480 534c-2 0-3 0-4-1 0 1 0 1 1 2-1-1-2-1-2-3v3c-1-1-1-1-2-2 0 1-1 2-2 3 1-2 0-3 0-4-1 1-1 2-2 3 0-1 0-1 1-2-1 1-3 1-4 1 1 6 12 5 14 0z" fill="#ffe087"/><path d="m480 491c-4-2-5-6-5-10-3 2-1 7 1 9-2-1-3-3-4-5 0 2 1 5 2 7-1-2-2-4-3-5 0 2 0 5 1 7-1-1-2-2-4-2 3 4 4 3 7 2 4 0 5 1 8 3-1-1-2-2-2-4 2 1 3 2 4 3 0-2 0-4 2-4-3 0-4-3-4-5-1 2 0 3 0 5-2-1-4-5-4-6 0 2 0 4 1 5z"/><path d="m536 539c2 3 11 9 9 14-1 3-9 5-11 8-2 2-7 0-9 0 2-2 3-5 3-7-1 3-5 3-6 6-1 2 0 3-3 5-2 1-5 2-8 3-4 1-9 0-13-2-2-1 0-5-1-7 10 4 23 1 30-7 1 1 3 3 2 5 3 0 10-2 11-6s-4-8-4-12z" fill="#eba12b"/><path d="m542 537c-2 1-4 1-6 0 1 1 1 3 2 4 1 3 3 5 5 8 4 7-6 8-10 12 8-6 16-4 25-5 3-1 5 3 8 3 2 0 5 1 5 3 2-5-11-6-14-8-2-1-8-13-9-9-3-3-6-4-10-6 1 0 3-2 4-2z"/><path d="m524 561c2-2 3-5 4-8 1 3-1 6 2 5-1 2-7 5-6 3z"/><path d="m505 522c7 2 16 2 22 2 8 0 14 5 21 6 7 2 15 13 20 19 3 3 5 6 8 7 2 1 6 2 5 5 2 0 4 1 5 2-5-1-10-3-14-7-6-4-11-12-16-17-6-6-15-10-23-11-7-1-16 2-24 1 1-2-2-5-4-7z" fill="#ffe087"/><path d="m485 564c-1 0-3 0-4 0-3 0-7 2-9 3-5 2-10 6-14 6 0 0 1 0 1 1 0 0-1 2-1 2 1-1 3-2 5-2-1 1-1 2-2 3 2-1 3-2 5-3v2c3-4 7-7 11-8 3-2 6-1 8-4z" fill="#ffe087"/><path d="m448 561c-4 2-8 2-10 7 2-1 3-3 5-3v4c1-3 5-4 5-8z" fill="#ffe087"/><path d="m512 200.6875-1.625 1.40625c-37.71143 32.61529-56.375 85.81895-56.375 138.90625s18.66357 106.29096 56.375 138.90625l1.625 1.40625 1.625-1.40625c37.71143-32.61529 56.375-85.81895 56.375-138.90625s-18.66357-106.29096-56.375-138.90625z" fill="#f7da4e"/><path d="m512 200.6875-1.625 1.40625c-37.71143 32.61529-56.375 85.81895-56.375 138.90625s18.66357 106.29096 56.375 138.90625l1.625 1.40625 1.625-1.40625c37.71143-32.61529 56.375-85.81895 56.375-138.90625s-18.66357-106.29096-56.375-138.90625zm0 6.71875c35.18593 31.51606 53 82.48022 53 133.59375s-17.81407 102.07769-53 133.59375c-35.18593-31.51606-53-82.48022-53-133.59375s17.81407-102.07769 53-133.59375z" fill="#eba12b"/><path d="m556.875 284.34375v113.3125c.02658-.09596.06731-.18523.09375-.28125 1.66067-6.03006 3.04741-12.18325 4.15625-18.40625s1.94472-12.53437 2.5-18.875.8125-12.7108.8125-19.09375-.25722-12.75312-.8125-19.09375-1.39116-12.652-2.5-18.875-2.49558-12.37619-4.15625-18.40625c-.02644-.09602-.06717-.18529-.09375-.28125z" fill="#84088c" transform="matrix(1.0009775 0 0 1.0009775 0 -.333333)"/><path d="m541.75 435.4375c.64375-1.19106 1.32107-2.352 1.9375-3.5625 2.07722-4.0791 3.85847-8.37715 5.625-12.65625v-156.4375c-1.76653-4.2791-3.54778-8.57715-5.625-12.65625-.61643-1.2105-1.29375-2.37144-1.9375-3.5625z" fill="#84088c" transform="matrix(1.0009775 0 0 1.0009775 0 -.333333)"/><path d="m534.1875 233.90625c-1.53046-2.29083-3.1042-4.56003-4.75-6.75-.90346-1.20218-1.87432-2.32993-2.8125-3.5v234.6875c.93818-1.17007 1.90904-2.29782 2.8125-3.5 1.6458-2.18997 3.21954-4.45917 4.75-6.75z" fill="#84088c" transform="matrix(1.0009775 0 0 1.0009775 0 -.333333)"/><path d="m519.0625 214.96875c-.40492-.42658-.7772-.89152-1.1875-1.3125-2.06128-2.11491-4.17803-4.15717-6.375-6.125v266.9375c2.19697-1.96783 4.31372-4.01009 6.375-6.125.4103-.42098.78258-.88592 1.1875-1.3125z" fill="#84088c" transform="matrix(1.0009775 0 0 1.0009775 0 -.333333)"/><path d="m512 324c9.38884 0 17 7.61116 17 17s-7.61116 17-17 17-17-7.61116-17-17 7.61116-17 17-17z" fill="#eba12b"/></svg>