<svg height="1200" width="1800" xmlns="http://www.w3.org/2000/svg"><path d="m0 0h900v1200h-900z" fill="#ff0"/><path d="m900 0h900v1200h-900z" fill="#00f"/><g stroke="#000"><g fill="#fff"><path d="m694.74801 315.06631s-54.90716-29.44296-73.20955-63.66047 0-73.20955 0-73.20955 42.17506 7.1618 60.47745 41.37931c18.30239 34.2175 12.7321 95.49071 12.7321 95.49071z" fill-rule="evenodd" stroke-width="4"/><rect height="788.3418" ry="17.506546" stroke-linecap="round" stroke-linejoin="round" stroke-width="3.999982" transform="matrix(-.846928 .531707 .531707 .846928 0 0)" width="25.740768" x="-435.4534" y="583.56903"/><path d="m1142.9629 319.84085s54.9071-29.44296 73.2095-63.66047 0-73.20955 0-73.20955-42.175 7.1618-60.4774 41.37931c-18.3024 34.2175-12.7321 95.49071-12.7321 95.49071z" fill-rule="evenodd" stroke-width="4"/><rect height="768.0943" ry="17.506575" stroke-linecap="round" stroke-linejoin="round" stroke-width="3.999988" transform="matrix(.846928 .531707 -.531707 .846928 0 0)" width="28.061817" x="1122.0713" y="-392.67993"/><g stroke-width="4.269334" transform="translate(149.6021 28.64721)"><path d="m1253.7344 440.86314c-33.409-11.79139-55.0265-34.39153-64.8526-57.9743-8.8436-23.58277-29.4785-58.95693-45.2003-66.81787-16.7045-8.84353-29.4785-18.66964-23.5828-31.44366 4.9131-11.79139 5.8957-19.65228.9826-25.548-5.8957-6.8783-14.7392-11.79139-19.6523-3.93044-3.9304 6.87825-1.9652 5.89566-3.9304 11.79133-3.9305-9.82616-14.7393-17.68705-21.6176-10.80875-5.8957 5.89567-7.8609 5.89567-5.8957 15.72183-9.8261-3.93044-17.6871-1.96517-17.6871 7.86094 0 8.84353 4.9131 20.63492 13.7566 17.68711 9.8262-2.94786 13.7566-7.86094 13.7566-7.86094 1.9653 5.89567-4.913 18.66969 8.8436 23.58277-11.7914 0-24.5654 0-25.548 6.87831-.9826 5.89566-4.9131 16.70446 3.9305 23.58277 9.8261 5.89567 10.8087-.98264 12.7739-8.84358 5.8958.98264 14.7393-5.89567 19.6524-.98259 4.9131 4.91309 12.7739 23.58278 14.7392 31.44367 1.9652 6.8783 5.8957-6.87826 5.8957-11.79134 0 14.7392.9826 29.47844.9826 29.47844 1.9652-4.91308 4.9131-13.75661 4.9131-13.75661 0 11.79139-.9826 26.53058 1.9652 36.35675 4.9131-8.84353 8.8436-12.77397 8.8436-19.65228-.9827 20.63491-5.8958 29.47844-2.9479 47.1655 4.9131-4.91309 8.8435-12.77398 12.774-21.61755-7.8609 19.65232-5.8957 30.46112 0 42.25246 1.9652-8.84353 8.8435-11.79134 6.8783-18.66964-3.9305 10.80875-3.9305 25.54794 4.9131 33.40888 0-10.80874 5.8957-7.86094 4.913-14.73924-1.9652 12.77402-.9825 13.75666 5.8958 23.58277 5.8956 8.84358 13.7566 11.79139 13.7566 23.58283 14.7392 6.87825 71.7309-41.26988 70.7483-59.93957z"/><path d="m1340.2045 629.52527c-13.7566 0-23.5828-1.96523-35.3741.98258-12.7741-11.79133-32.4264-12.77397-46.1829-3.93044-13.7566 8.84352-26.5307 28.49585-50.1134 14.73924-12.774-7.86089-3.9305-23.58277.9826-27.51321-17.6871 1.96522-29.4785 17.68705-11.7914 37.33938-11.7914-6.87831-22.6002 3.93044-39.3046-19.65233.9826 21.61755 13.7566 40.28724 46.1829 30.46108-27.5132 6.8783-11.7914 31.44371-43.2351 23.58277 12.774 15.72183 31.4437 7.86094 43.2351-9.82616-3.9305 13.7566-4.9131 12.77402 0 22.60018 9.8262-11.79143 13.7566.98259 24.5654-5.89572-5.8957 10.80875 0 22.60019 4.9131 30.46108 4.913 6.87831 7.8609 7.86094.9826 16.70447-24.5654-1.96522-59.9396-5.89572-71.731-2.94786-10.8087-8.84353-13.7566-12.77402-22.6001-17.68711 1.9652-14.73919-1.9652-21.61749-9.8262-17.68705-8.8435 3.9305-10.8087 3.9305-11.7913 13.75666-8.8436-4.91308-12.774-3.9305-17.6871 3.93039-3.9304 8.84358-.9826 9.82617.9826 16.70447-6.8783 6.87836-5.8957 22.60019-1.9652 26.53064 3.9305 3.93049 9.8261 4.91308 13.7566-3.93045 10.8088 0 25.548 2.94786 34.3915 0-1.9652 4.91303-8.8435 6.8783-11.7913 9.82611-12.7741 2.94791-17.6871 9.82617-12.7741 17.68711 4.9131 6.8783 10.8088 9.82616 16.7045 8.84352 6.8783-1.96522 10.8088-4.91308 8.8435-14.73924 5.8957-5.89567 10.8088-18.66964 17.6871-13.75656 9.8262 8.84353-1.9652 15.72183 18.6697 23.58272-1.9652-5.89566 13.7566-5.89566 11.7914-11.79138 4.9131 12.77402 9.8262 14.73924 18.6697 22.60018 3.9304-5.89572 12.774-10.8088 9.8262-16.70446 6.8783 14.73924 17.687 16.70446 18.6697 25.54799 9.8261-10.80875 12.7739-14.73925 11.7913-26.53063 6.8783 17.6871 12.774 23.58277 21.6175 14.73924 7.861-8.84352 9.8262-11.79138 9.8262-11.79138 10.8088 6.8783 22.6001 1.96522 30.4611-14.7392-14.7393 6.87826-24.5654 7.86089-34.3915-.98263-3.9305-11.79139-8.8436-14.73925-5.8958-29.47849 1.9653-14.7392 14.7393-41.26983 50.1134-39.30461 35.3742 1.96522 36.3568-78.60921 11.7914-71.7309z"/><path d="m1583.8931 281.67945c-6.8783 11.79138-19.6523 14.73924-28.4958 11.79138-7.861-3.93044-12.774-6.8783-15.7219-15.72183-2.9478-6.8783-6.8783-20.63496-21.6175-19.65233 12.774-8.84352 17.6871-21.6175 4.913-35.37416-7.8609 27.51327-9.8261 22.60019-49.1307 33.40894-40.2872 10.80875-56.009 48.14818-54.0439 89.41801 1.9653 34.39152 11.7914 57.9743 48.1482 93.34845 39.3046 37.33939 59.9395 56.99171 59.9395 101.2094-9.8261-24.56541-28.4958-25.54805-43.235-31.44371-13.7567-4.91309-14.7393-22.60014-4.9131-37.33939-27.5132 5.89567-25.5481 30.46108-13.7566 42.25247-8.8435 1.96522-9.8262 3.93044-11.7915 12.77397-12.7739 3.9305-21.6175.98264-32.4262-12.77397-4.9131 19.65233 5.8957 26.53063 23.5828 26.53063-26.5307 14.73919-22.6002 51.09594 0 57.97424-15.7219-16.70447-1.9653-34.39152 7.8609-45.20027-2.9478 24.56541 22.6001 26.53063 29.4785 12.77397-17.6872.98264-15.7219-30.46102 8.8435-30.46102 22.6001 0 36.3567 23.58272 35.3741 44.21768-.9826 20.63492-18.6697 54.04385-56.9917 53.06122-33.4089-.98264-51.096-22.60019-64.8526-40.28724-2.9478-12.77398-5.8957-24.56536-9.8261-32.4263-11.7914-25.548-44.2177-58.95688-52.0787-89.41801-7.8608-29.47844-133.6356 1.96522-133.6356 1.96522-8.8436 8.84358-20.6349 18.66974-31.4437 28.49591-9.8262 8.84347-63.87 40.28719-74.6788 55.02643-9.8261 1.96522-21.6175 2.94781-29.4784 11.79139-10.8088 0-31.4437-2.94786-31.4437-2.94786-4.9131-11.79139-17.6871-12.77403-20.6349-2.94786-3.9305 8.84353-4.9131 19.65227 15.7218 15.72188l11.7914 1.96522c-10.8088 7.86089-13.7566 7.86089-20.6349 12.77398-11.7914 0-26.5306.98263-22.6002 14.73924 4.9131 13.75661 6.8783 11.79139 17.6871 10.80875 10.8088-.98258 13.7566-3.93044 14.7392-13.75661 8.8435-2.94786 12.774-.98263 21.6176-7.86094-.9827 12.77402-4.9131 21.61755-4.9131 21.61755-9.8262 4.91308-14.7393 12.77397-6.8783 19.65233 6.8783 5.89567 14.7392 7.86089 19.6523.98264 5.8957-7.861 5.8957-10.80881 2.9478-19.65233 2.9479-7.86094 7.861-18.66969 13.7566-22.60019 4.9131-2.94781 8.8436-3.93044 6.8783 2.94786-3.9304 18.66969 6.8783 18.66969 1.9653 32.4263 12.774-13.75661 20.6349-22.60014 16.7044-38.32197 4.9131 14.7392 7.861 17.68706 7.861 17.68706 5.8956-8.84353 3.9304-16.70442 1.9652-23.58278 5.8957 10.80875 7.8609 14.73925 7.8609 14.73925 3.9305-5.89572 6.8783-5.89572 5.8957-14.73925 5.8957 7.86095 10.8087 8.84353 15.7218 10.80875-4.9131-6.8783.9827-9.82611 0-17.68705 2.9479 12.77402 14.7393 17.68705 25.548 13.75666-9.8261-5.89572-6.8783-11.79144-9.8261-16.70447 5.8957 6.87831 12.774 13.75656 20.6349 11.79139-5.8957-4.91308 0-11.79139-3.9305-18.66974 5.8957 9.82616 9.8262 13.75666 24.5654 11.79138-8.8435-4.91303-1.9652-10.80875-8.8435-15.72183 6.8783 7.86094 15.7218 11.79139 31.4437 12.77402-2.9478-5.89572 1.9652-9.82616 1.9652-12.77402 2.9479 9.82616 3.9305 8.84353 2.9479 13.75661 9.8261-8.84353 16.7044-11.79139 19.6523-16.70447 7.8609 14.73925 17.687 23.58277 27.5132 29.47849 14.7392 9.82612 42.2525 5.89567 53.0612 21.6175 8.8435 11.79139 5.8957 29.47849-.9826 49.13077-5.8957 19.65233-6.8783 38.32202 2.9478 56.99171 10.8088 17.68705 20.635 34.39152 12.7741 45.20032-6.8783 10.80875-31.4438 15.72183-19.6523 43.23505 1.9652-14.73925 2.9478-16.70447 12.774-21.61755 0 13.75661-1.9653 23.58277 9.8261 31.44371-2.9478-12.77402.9826-18.66969 4.9131-24.56541 7.8609 12.77403 12.774 17.68706 25.5479 9.82617-6.8783-3.93045-25.5479-14.73925-14.7392-33.40889 10.8088 12.77398 21.6176 16.70442 27.5133 13.75656 6.8783-2.94781 13.7566-1.96522 26.5306-24.56536-2.9479 16.70447-.9826 27.51322 8.8435 38.32202-10.8088 7.86089-16.7044 27.51322-19.6523 36.35675-1.9652 8.84352-5.8957 8.84352-13.7566 10.80875-6.8783 1.96527-5.8957-8.84353-14.7393-8.84353-8.8434 0-14.7392 12.77402-12.7739 21.61755 1.9652 8.84353 2.9478 12.77397 6.8783 14.73919-8.8436 4.91309-7.8609 12.77403-.9827 20.63497 5.8958 6.8783 7.861 1.96522 13.7567.98258 6.8783 10.80875 19.6523 17.68711 24.5654 7.86094 3.9305-8.84352-.9826-18.66969 0-26.53063.9825-6.87825 14.7392-8.84352 18.6696-15.72183 4.9131 9.82616 5.8958 17.68706 5.8958 17.68706-2.9479 9.82616-2.9479 22.60018 11.7914 14.73924 13.7565-8.84353 17.687-10.80875 15.7218-23.58272-1.9653-12.77408-10.8088-8.84358-15.7218-6.87836.9825-6.8783 2.9478-12.77397-.9827-23.58277 14.7392 5.89572 22.6002 4.91308 33.409-10.80875-11.7915-.98264-13.7567-7.86089-25.548-8.84353 20.6349 0 33.4088-3.93044 37.3393-21.61755-8.8435 4.91309-13.7566-2.94786-19.6523-3.93044 9.8262-2.94786 22.6001-1.96522 28.4958-14.73925-7.8609 4.91309-13.7565-8.84352-21.6175-8.84352 13.7566-4.91309 19.6523-6.87836 24.5654-15.72183-7.8609.98258-14.7392-12.77403-24.5654-3.9305 8.8435-10.80875 30.4611-3.93045 33.4089-16.70447-8.8435.98264-16.7044-.98259-21.6175-8.84353-3.9304-7.86089-4.9131-16.70446-11.7914-16.70446 8.8435.98263 13.7566 0 13.7566 0-11.7914-6.87831-18.6697-16.70447-16.7044-34.39153-12.774 15.72183-34.3916 29.47844-46.183 27.51322-11.7913-1.96522-25.5479-9.82616-24.5653-26.53063.9826-14.7392 3.9304-17.68706 3.9304-30.46103 12.774 10.80875 32.4263 18.66969 62.8874 13.75661 50.1134-6.8783 80.5745-46.18291 78.6092-100.22676-1.9652-53.06126-15.7218-80.57448-60.9221-122.82689-42.2524-39.30466-50.1134-56.99171-52.0786-94.33109-1.9652-40.28724 16.7045-65.83524 38.322-71.73091 14.7392-4.91308 22.6001 11.79139 14.7392 22.60014-6.8783 9.82616-8.8435 27.51322-1.9652 40.28724 7.8609-1.96522 8.8435-5.89572 17.687-12.77402-15.7218 14.73924-20.6349 35.37416-13.7566 54.04385 7.8609 19.65233 28.4959 17.6871 37.3394 17.6871-13.7566-25.54804 6.8783-34.39157 6.8783-55.02648 2.9479 24.56535 14.7393 33.40893 35.3742 20.63491-15.7219-.98264-18.6697-19.65228-14.7392-29.47844 2.9478-8.84358 8.8435-10.8088 0-22.60014 17.687 5.89567 23.5827-8.84357 23.5827-22.60018z"/><path d="m1299.9173 362.25393c-13.7566-2.94786-26.5306-2.94786-41.2698-1.96528-14.7393.98264-41.2699-16.70441-34.3916-37.33938-10.8088 5.89572-15.7218 19.65233-4.9131 35.37421 10.8088 15.72183 23.5828 14.7392 41.2699 13.75656 18.6697-.98258 32.4263-2.94781 44.2177 5.89572 11.7913 7.86094 5.8956-12.77402-4.9131-15.72183z"/><path d="m1255.6996 343.58424c-1.9652 4.91308-.9826 12.77397 5.8957 18.66969 3.9305-7.86094 3.9305-15.72183 7.8609-18.66969-6.8783-2.94786-13.7566 0-13.7566 0z"/><path d="m1260.6127 372.08004c-1.9652 2.94786-2.9479 11.79139-1.9652 15.72188 4.913 3.93045 10.8087 2.94786 13.7565 0-4.913-5.89572-10.8087-8.84352-11.7913-15.72188z"/><path d="m1331.361 267.92284c-7.8609 9.82616-18.6697 17.6871-26.5306 18.66969-8.8436.98264-21.6176-.98259-24.5654 5.89572-3.9305 5.89566-6.8783 6.8783-17.6871 6.8783-10.8087 0-16.7045 1.96522-20.6349.98259-4.9131-.98259-5.8957 6.8783.9826 12.77402-1.9652 8.84353 1.9653 15.72183 0 20.63491-1.9652 4.91309-1.9652 9.82617 6.8783 10.80875 9.8262.98264 17.6871 2.94786 25.548-.98258 8.8436-4.91308 12.774 0 20.6349-2.94786 0 6.8783-2.9478 21.61755 6.8784 32.4263 1.9652 4.91308 1.9652 8.84352-6.8784 10.80875-8.8435 1.96527-35.3741 2.94786-40.2872 0-5.8957-2.94781-8.8435-4.91303-7.8609 2.94786.9826 8.84352.9826 17.68705-4.9131 22.60013 8.8436 1.96523 6.8783-.98258 13.7566-6.87825 14.7392 2.94781 37.3394 3.93044 48.1482-2.94791-4.9131 11.79139-5.8957 21.61755-22.6002 21.61755-16.7044 0-21.6175 1.96527-26.5306 12.77402-13.7566 1.96522-17.6871 4.91308-29.4784 9.82611-11.7914 4.91309-26.5307 2.94792-37.3394.98264 3.9304 9.82617 13.7566 18.66969 25.548 18.66969-9.8262 2.94786-13.7567 14.73925-14.7393 20.63497-.9826 6.8783-9.8261 12.77397-21.6175 16.70447 19.6523.98258 29.4785-3.9305 46.1829-23.58283 17.6871-20.63486 14.7392-10.80875 27.5133-13.75661-8.8436 5.89572-15.7219 6.87831-19.6524 16.70447-4.913 9.82616-5.8956 13.75661-14.7392 14.73925 12.774 8.84352 21.6175 6.8783 26.5306-3.93045 3.9305-10.8088 14.7393-18.66974 24.5654-19.65233-13.7566 7.86095-13.7566 8.84353-13.7566 19.65233 0 10.80875-3.9305 22.60014-9.8261 17.68706 5.8956 11.79138 13.7566 12.77397 20.6349 5.89566 5.8956-7.86089 6.8782-14.73919 13.7566-20.63491-5.8957 9.82616-11.7914 22.60019-13.7566 26.53063-2.9479 4.91308-2.9479 9.82617-6.8783 13.75661 8.8435.98264 22.6001-.98258 26.5306-6.8783 4.913-6.87831 17.6871-32.4263 18.6696-46.18291-3.9304 24.56536-4.913 28.4958-4.913 35.37416 0 5.89566-2.9479 14.73919-2.9479 14.73919 11.7914 0 20.6349-4.91308 21.6175-17.68705.9827-12.77397 0-17.68706 2.9479-29.47844 0 15.72183 1.9652 17.68705 1.9652 29.47844 0 11.79138 5.8957 16.70447 16.7045 19.65233-4.9131-10.80881 2.9479-13.75667-2.9479-26.53064-4.913-12.77402-4.913-14.73924-1.9652-22.60013 4.9131 13.75655 7.861 12.77397 6.8783 23.58272-.9826 10.8088 11.7914 21.61755 27.5133 17.6871-8.8436-8.84352-11.7914-28.49585-7.861-55.02648.9827 32.4263 17.6871 43.2351 33.4089 26.53063-11.7914-2.94786-15.7218-8.84358-12.7739-26.53063 8.8435 8.84358 18.6696 5.89572 20.6349-5.89567-13.7566-2.94786-17.6871-14.73925-15.7219-20.63497 2.9479-6.87825 2.9479-10.80874-2.9478-16.70441 11.7914 2.94786 24.5654 4.91308 26.5306-8.84353-9.8262 0-17.6871-2.94786-18.6697-12.77402-.9826-9.82617-1.9652-17.68706-9.8261-23.58278 12.7739 2.94786 16.7044 1.96523 23.5827-11.79138-11.7914 1.96522-21.6175-2.94786-22.6002-14.73925-.9825-11.79133 5.8958-24.56536-6.8783-31.44366 5.8958-4.91308 6.8783-9.82611 7.861-18.66969-4.9131 4.91308-9.8261 11.79139-19.6523 8.84358-3.9305-15.72189-14.7392-29.47849-32.4263-28.49586 3.9305-7.86094 4.913-7.86094 0-17.6871z"/><path d="m1295.9868 328.84499c-.9826 7.86094 7.8609 18.66969 13.7567 22.60014"/><path d="m1381.4744 381.9062c-11.7914-6.8783-14.7393-12.77397-19.6523-23.58272"/><path d="m1383.4396 427.10653c-3.9305-4.91308-9.8261-7.86094-11.7914-15.72188"/><path d="m1381.4744 470.34158c2.9478-16.70447-2.9479-27.51322-11.7914-33.40889"/><path d="m1360.8394 470.34158c-.9826-8.84353-.9826-21.61755-1.9652-24.56536"/><path d="m1291.0738 433.0022c-11.7914 2.94785-19.6524 2.94785-28.4959 5.89571-8.8435 1.96523-5.8957 3.93045-17.687 10.80875-11.7914 7.86095-17.6871 10.80875-30.4611 13.75661"/><path d="m1308.7608 577.44669c15.7219 13.75656 28.4959 30.46103 30.4611 47.1655"/><path d="m1253.7344 563.69003c11.7914 3.9305 14.7392 3.9305 21.6175 2.94786"/><path d="m1069.9853 271.85328c9.8261 3.9305 24.5654 14.73925 29.4785 24.56541"/><path d="m1097.4986 266.9402c2.9478 7.86094 5.8956 13.75666 8.8435 19.65233"/><path d="m1509.2143 319.01883c4.9131-7.86094 9.8262-10.80875 9.8262-18.66969"/><path d="m1511.1796 353.4104c-1.9653 15.72183 0 27.51322 20.6349 33.40889"/><path d="m1282.2302 309.19272c1.9653-3.9305 4.9131-7.86095 4.9131-7.86095 4.913 4.91303 15.7219 7.86095 11.7914 14.7392-11.7914 1.96522-19.6523-2.94781-23.5828-6.87825z"/><path d="m1344.135 311.15789c9.8261.98263 25.548 7.86094 31.4436 12.77402"/><path d="m1116.1682 256.13145c1.9653-9.82616-12.774-19.65228-22.6001-19.65228 6.8783 6.87831 8.8435 10.80875 7.8609 18.6697 5.8957 6.87825 9.8262 6.87825 14.7392.98258z"/><path d="m1081.7767 255.14887c-5.8957-5.89572-19.6523-13.75661-30.4611.98258 15.7219 2.94786 13.7567 2.94786 19.6523 8.84358 6.8783-2.94791 8.8435-2.94791 10.8088-9.82616z"/><path d="m1054.2635 275.78378c-5.8957-2.94786-16.7045 1.96522-21.6175 11.79139 12.7739-1.96523 21.6175-1.96523 26.5305 4.91308 3.9305-4.91308-.9826-11.79139-4.913-16.70447z"/><path d="m1063.107 331.79285c-7.8609-.98264-22.6002.98259-26.5306-5.89572 5.8957 17.68711 16.7045 21.61755 30.4611 17.68711 2.9478-5.89572 0-6.87831-3.9305-11.79139z"/><path d="m1024.785 557.79436c-11.7914-5.89572-23.5828 4.91309-23.5828 18.66969 7.861-4.91308 15.7219-5.89571 21.6176-1.96522 3.9304-6.8783 2.9478-11.79138 1.9652-16.70447z"/><path d="m1006.1153 606.92513c-6.87828 8.84353-9.82614 21.61755-1.9652 34.39152 3.9304-8.84352 8.8435-21.61755 16.7045-23.58277 1.9652-5.89567-6.8783-10.80875-14.7393-10.80875z"/><path d="m1046.4026 631.49049c-3.9305 6.87836-4.9131 24.56541 6.8783 31.44371.9826-9.82616.9826-19.65232 8.8435-23.58277-.9826-6.8783-7.8609-11.79139-15.7218-7.86094z"/><path d="m1435.5182 718.94322c8.8435-.98258 11.7914 1.96528 18.6696-2.9478 0 7.86089-1.9651 13.75661-.9825 19.65227"/><path d="m1354.9437 709.11711c.9827 9.82611 13.7567 21.61755 24.5654 17.68711"/><path d="m1119.1161 715.01283c6.8783 2.94781 9.8261 8.84348 12.774 12.77397 1.9652 4.91308 6.8783 8.84353 13.7566 12.77398"/><path d="m1102.4116 735.64769c8.8436-4.91303 15.7219-4.91303 19.6523 1.96528 3.9305 5.89566 6.8783 5.89566 13.7566 7.86089"/><path d="m1125.9944 701.25617c-6.8783-3.93044-25.548-9.82616-29.4785 4.91308 6.8783 0 17.6871 3.9305 22.6002 8.84358 5.8957 0 7.8609-6.87835 6.8783-13.75666z"/><path d="m1104.3769 718.94322c-3.9305-3.93039-25.548-2.9478-18.6697 18.66975 5.8956-3.9305 10.8087-1.96528 16.7044-1.96528 3.9305-4.91303 4.9131-11.79138 1.9653-16.70447z"/><path d="m1100.4464 741.54341c-9.8262-2.94786-28.4958-.98263-25.548 23.58277 9.8261-9.82616 18.6697-7.86094 24.5654-6.8783 4.9131-9.82616 4.9131-8.84353.9826-16.70447z"/><path d="m1125.0118 781.83065c-5.8957 6.87831-9.8262 24.56536 5.8956 34.39153 0-8.84353 1.9653-14.73925 9.8262-21.61756-4.9131-8.84352-3.9304-19.65227-15.7218-12.77397z"/><path d="m1376.5613 873.21383c9.8261-2.94781 14.7392-5.89566 18.6697-14.73919"/><path d="m1389.3353 894.83138c-.9826-8.84352.9826-10.80875 5.8957-13.75661 5.8957-3.93044 9.8261-8.84352 11.7914-12.77397"/><path d="m1368.7004 847.66589c-9.8262 0-23.5828 13.75656-12.774 30.46103 5.8957-9.82612 9.8261-7.8609 15.7218-9.82612 4.9131-5.89572 6.8783-19.65233-2.9478-20.63491z"/><path d="m1368.7004 885.00527c-6.8783 7.86089-7.861 19.65228 10.8087 27.51322-.9826-7.86094-1.9652-10.8088 2.9478-16.70447-.9825-7.86094-4.913-12.77402-13.7565-10.80875z"/><path d="m1389.3353 894.83138c-10.8088 10.80875-11.7914 26.53064 11.7914 31.44372-.9827-10.8088-2.9479-14.73925 1.9652-20.63497 1.9652-7.86089-6.8783-13.75655-13.7566-10.80875z"/><path d="m1464.014 877.14433c3.9305 14.73925 1.9653 25.54799-16.7044 30.46108 3.9304-9.82617 4.9131-17.68711-1.9652-20.63492 3.9304-5.89572 9.8261-13.75666 18.6696-9.82616z"/></g><g stroke-width="4.269334" transform="matrix(-1 0 0 1 1683.187 28.81154)"><path d="m1253.7344 440.86314c-33.409-11.79139-55.0265-34.39153-64.8526-57.9743-8.8436-23.58277-29.4785-58.95693-45.2003-66.81787-16.7045-8.84353-29.4785-18.66964-23.5828-31.44366 4.9131-11.79139 5.8957-19.65228.9826-25.548-5.8957-6.8783-14.7392-11.79139-19.6523-3.93044-3.9304 6.87825-1.9652 5.89566-3.9304 11.79133-3.9305-9.82616-14.7393-17.68705-21.6176-10.80875-5.8957 5.89567-7.8609 5.89567-5.8957 15.72183-9.8261-3.93044-17.6871-1.96517-17.6871 7.86094 0 8.84353 4.9131 20.63492 13.7566 17.68711 9.8262-2.94786 13.7566-7.86094 13.7566-7.86094 1.9653 5.89567-4.913 18.66969 8.8436 23.58277-11.7914 0-24.5654 0-25.548 6.87831-.9826 5.89566-4.9131 16.70446 3.9305 23.58277 9.8261 5.89567 10.8087-.98264 12.7739-8.84358 5.8958.98264 14.7393-5.89567 19.6524-.98259 4.9131 4.91309 12.7739 23.58278 14.7392 31.44367 1.9652 6.8783 5.8957-6.87826 5.8957-11.79134 0 14.7392.9826 29.47844.9826 29.47844 1.9652-4.91308 4.9131-13.75661 4.9131-13.75661 0 11.79139-.9826 26.53058 1.9652 36.35675 4.9131-8.84353 8.8436-12.77397 8.8436-19.65228-.9827 20.63491-5.8958 29.47844-2.9479 47.1655 4.9131-4.91309 8.8435-12.77398 12.774-21.61755-7.8609 19.65232-5.8957 30.46112 0 42.25246 1.9652-8.84353 8.8435-11.79134 6.8783-18.66964-3.9305 10.80875-3.9305 25.54794 4.9131 33.40888 0-10.80874 5.8957-7.86094 4.913-14.73924-1.9652 12.77402-.9825 13.75666 5.8958 23.58277 5.8956 8.84358 13.7566 11.79139 13.7566 23.58283 14.7392 6.87825 71.7309-41.26988 70.7483-59.93957z"/><path d="m1340.2045 629.52527c-13.7566 0-23.5828-1.96523-35.3741.98258-12.7741-11.79133-32.4264-12.77397-46.1829-3.93044-13.7566 8.84352-26.5307 28.49585-50.1134 14.73924-12.774-7.86089-3.9305-23.58277.9826-27.51321-17.6871 1.96522-29.4785 17.68705-11.7914 37.33938-11.7914-6.87831-22.6002 3.93044-39.3046-19.65233.9826 21.61755 13.7566 40.28724 46.1829 30.46108-27.5132 6.8783-11.7914 31.44371-43.2351 23.58277 12.774 15.72183 31.4437 7.86094 43.2351-9.82616-3.9305 13.7566-4.9131 12.77402 0 22.60018 9.8262-11.79143 13.7566.98259 24.5654-5.89572-5.8957 10.80875 0 22.60019 4.9131 30.46108 4.913 6.87831 7.8609 7.86094.9826 16.70447-24.5654-1.96522-59.9396-5.89572-71.731-2.94786-10.8087-8.84353-13.7566-12.77402-22.6001-17.68711 1.9652-14.73919-1.9652-21.61749-9.8262-17.68705-8.8435 3.9305-10.8087 3.9305-11.7913 13.75666-8.8436-4.91308-12.774-3.9305-17.6871 3.93039-3.9304 8.84358-.9826 9.82617.9826 16.70447-6.8783 6.87836-5.8957 22.60019-1.9652 26.53064 3.9305 3.93049 9.8261 4.91308 13.7566-3.93045 10.8088 0 25.548 2.94786 34.3915 0-1.9652 4.91303-8.8435 6.8783-11.7913 9.82611-12.7741 2.94791-17.6871 9.82617-12.7741 17.68711 4.9131 6.8783 10.8088 9.82616 16.7045 8.84352 6.8783-1.96522 10.8088-4.91308 8.8435-14.73924 5.8957-5.89567 10.8088-18.66964 17.6871-13.75656 9.8262 8.84353-1.9652 15.72183 18.6697 23.58272-1.9652-5.89566 13.7566-5.89566 11.7914-11.79138 4.9131 12.77402 9.8262 14.73924 18.6697 22.60018 3.9304-5.89572 12.774-10.8088 9.8262-16.70446 6.8783 14.73924 17.687 16.70446 18.6697 25.54799 9.8261-10.80875 12.7739-14.73925 11.7913-26.53063 6.8783 17.6871 12.774 23.58277 21.6175 14.73924 7.861-8.84352 9.8262-11.79138 9.8262-11.79138 10.8088 6.8783 22.6001 1.96522 30.4611-14.7392-14.7393 6.87826-24.5654 7.86089-34.3915-.98263-3.9305-11.79139-8.8436-14.73925-5.8958-29.47849 1.9653-14.7392 14.7393-41.26983 50.1134-39.30461 35.3742 1.96522 36.3568-78.60921 11.7914-71.7309z"/><path d="m1583.8931 281.67945c-6.8783 11.79138-19.6523 14.73924-28.4958 11.79138-7.861-3.93044-12.774-6.8783-15.7219-15.72183-2.9478-6.8783-6.8783-20.63496-21.6175-19.65233 12.774-8.84352 17.6871-21.6175 4.913-35.37416-7.8609 27.51327-9.8261 22.60019-49.1307 33.40894-40.2872 10.80875-56.009 48.14818-54.0439 89.41801 1.9653 34.39152 11.7914 57.9743 48.1482 93.34845 39.3046 37.33939 59.9395 56.99171 59.9395 101.2094-9.8261-24.56541-28.4958-25.54805-43.235-31.44371-13.7567-4.91309-14.7393-22.60014-4.9131-37.33939-27.5132 5.89567-25.5481 30.46108-13.7566 42.25247-8.8435 1.96522-9.8262 3.93044-11.7915 12.77397-12.7739 3.9305-21.6175.98264-32.4262-12.77397-4.9131 19.65233 5.8957 26.53063 23.5828 26.53063-26.5307 14.73919-22.6002 51.09594 0 57.97424-15.7219-16.70447-1.9653-34.39152 7.8609-45.20027-2.9478 24.56541 22.6001 26.53063 29.4785 12.77397-17.6872.98264-15.7219-30.46102 8.8435-30.46102 22.6001 0 36.3567 23.58272 35.3741 44.21768-.9826 20.63492-18.6697 54.04385-56.9917 53.06122-33.4089-.98264-51.096-22.60019-64.8526-40.28724-2.9478-12.77398-5.8957-24.56536-9.8261-32.4263-11.7914-25.548-44.2177-58.95688-52.0787-89.41801-7.8608-29.47844-133.6356 1.96522-133.6356 1.96522-8.8436 8.84358-20.6349 18.66974-31.4437 28.49591-9.8262 8.84347-63.87 40.28719-74.6788 55.02643-9.8261 1.96522-21.6175 2.94781-29.4784 11.79139-10.8088 0-31.4437-2.94786-31.4437-2.94786-4.9131-11.79139-17.6871-12.77403-20.6349-2.94786-3.9305 8.84353-4.9131 19.65227 15.7218 15.72188l11.7914 1.96522c-10.8088 7.86089-13.7566 7.86089-20.6349 12.77398-11.7914 0-26.5306.98263-22.6002 14.73924 4.9131 13.75661 6.8783 11.79139 17.6871 10.80875 10.8088-.98258 13.7566-3.93044 14.7392-13.75661 8.8435-2.94786 12.774-.98263 21.6176-7.86094-.9827 12.77402-4.9131 21.61755-4.9131 21.61755-9.8262 4.91308-14.7393 12.77397-6.8783 19.65233 6.8783 5.89567 14.7392 7.86089 19.6523.98264 5.8957-7.861 5.8957-10.80881 2.9478-19.65233 2.9479-7.86094 7.861-18.66969 13.7566-22.60019 4.9131-2.94781 8.8436-3.93044 6.8783 2.94786-3.9304 18.66969 6.8783 18.66969 1.9653 32.4263 12.774-13.75661 20.6349-22.60014 16.7044-38.32197 4.9131 14.7392 7.861 17.68706 7.861 17.68706 5.8956-8.84353 3.9304-16.70442 1.9652-23.58278 5.8957 10.80875 7.8609 14.73925 7.8609 14.73925 3.9305-5.89572 6.8783-5.89572 5.8957-14.73925 5.8957 7.86095 10.8087 8.84353 15.7218 10.80875-4.9131-6.8783.9827-9.82611 0-17.68705 2.9479 12.77402 14.7393 17.68705 25.548 13.75666-9.8261-5.89572-6.8783-11.79144-9.8261-16.70447 5.8957 6.87831 12.774 13.75656 20.6349 11.79139-5.8957-4.91308 0-11.79139-3.9305-18.66974 5.8957 9.82616 9.8262 13.75666 24.5654 11.79138-8.8435-4.91303-1.9652-10.80875-8.8435-15.72183 6.8783 7.86094 15.7218 11.79139 31.4437 12.77402-2.9478-5.89572 1.9652-9.82616 1.9652-12.77402 2.9479 9.82616 3.9305 8.84353 2.9479 13.75661 9.8261-8.84353 16.7044-11.79139 19.6523-16.70447 7.8609 14.73925 17.687 23.58277 27.5132 29.47849 14.7392 9.82612 42.2525 5.89567 53.0612 21.6175 8.8435 11.79139 5.8957 29.47849-.9826 49.13077-5.8957 19.65233-6.8783 38.32202 2.9478 56.99171 10.8088 17.68705 20.635 34.39152 12.7741 45.20032-6.8783 10.80875-31.4438 15.72183-19.6523 43.23505 1.9652-14.73925 2.9478-16.70447 12.774-21.61755 0 13.75661-1.9653 23.58277 9.8261 31.44371-2.9478-12.77402.9826-18.66969 4.9131-24.56541 7.8609 12.77403 12.774 17.68706 25.5479 9.82617-6.8783-3.93045-25.5479-14.73925-14.7392-33.40889 10.8088 12.77398 21.6176 16.70442 27.5133 13.75656 6.8783-2.94781 13.7566-1.96522 26.5306-24.56536-2.9479 16.70447-.9826 27.51322 8.8435 38.32202-10.8088 7.86089-16.7044 27.51322-19.6523 36.35675-1.9652 8.84352-5.8957 8.84352-13.7566 10.80875-6.8783 1.96527-5.8957-8.84353-14.7393-8.84353-8.8434 0-14.7392 12.77402-12.7739 21.61755 1.9652 8.84353 2.9478 12.77397 6.8783 14.73919-8.8436 4.91309-7.8609 12.77403-.9827 20.63497 5.8958 6.8783 7.861 1.96522 13.7567.98258 6.8783 10.80875 19.6523 17.68711 24.5654 7.86094 3.9305-8.84352-.9826-18.66969 0-26.53063.9825-6.87825 14.7392-8.84352 18.6696-15.72183 4.9131 9.82616 5.8958 17.68706 5.8958 17.68706-2.9479 9.82616-2.9479 22.60018 11.7914 14.73924 13.7565-8.84353 17.687-10.80875 15.7218-23.58272-1.9653-12.77408-10.8088-8.84358-15.7218-6.87836.9825-6.8783 2.9478-12.77397-.9827-23.58277 14.7392 5.89572 22.6002 4.91308 33.409-10.80875-11.7915-.98264-13.7567-7.86089-25.548-8.84353 20.6349 0 33.4088-3.93044 37.3393-21.61755-8.8435 4.91309-13.7566-2.94786-19.6523-3.93044 9.8262-2.94786 22.6001-1.96522 28.4958-14.73925-7.8609 4.91309-13.7565-8.84352-21.6175-8.84352 13.7566-4.91309 19.6523-6.87836 24.5654-15.72183-7.8609.98258-14.7392-12.77403-24.5654-3.9305 8.8435-10.80875 30.4611-3.93045 33.4089-16.70447-8.8435.98264-16.7044-.98259-21.6175-8.84353-3.9304-7.86089-4.9131-16.70446-11.7914-16.70446 8.8435.98263 13.7566 0 13.7566 0-11.7914-6.87831-18.6697-16.70447-16.7044-34.39153-12.774 15.72183-34.3916 29.47844-46.183 27.51322-11.7913-1.96522-25.5479-9.82616-24.5653-26.53063.9826-14.7392 3.9304-17.68706 3.9304-30.46103 12.774 10.80875 32.4263 18.66969 62.8874 13.75661 50.1134-6.8783 80.5745-46.18291 78.6092-100.22676-1.9652-53.06126-15.7218-80.57448-60.9221-122.82689-42.2524-39.30466-50.1134-56.99171-52.0786-94.33109-1.9652-40.28724 16.7045-65.83524 38.322-71.73091 14.7392-4.91308 22.6001 11.79139 14.7392 22.60014-6.8783 9.82616-8.8435 27.51322-1.9652 40.28724 7.8609-1.96522 8.8435-5.89572 17.687-12.77402-15.7218 14.73924-20.6349 35.37416-13.7566 54.04385 7.8609 19.65233 28.4959 17.6871 37.3394 17.6871-13.7566-25.54804 6.8783-34.39157 6.8783-55.02648 2.9479 24.56535 14.7393 33.40893 35.3742 20.63491-15.7219-.98264-18.6697-19.65228-14.7392-29.47844 2.9478-8.84358 8.8435-10.8088 0-22.60014 17.687 5.89567 23.5827-8.84357 23.5827-22.60018z"/><path d="m1299.9173 362.25393c-13.7566-2.94786-26.5306-2.94786-41.2698-1.96528-14.7393.98264-41.2699-16.70441-34.3916-37.33938-10.8088 5.89572-15.7218 19.65233-4.9131 35.37421 10.8088 15.72183 23.5828 14.7392 41.2699 13.75656 18.6697-.98258 32.4263-2.94781 44.2177 5.89572 11.7913 7.86094 5.8956-12.77402-4.9131-15.72183z"/><path d="m1255.6996 343.58424c-1.9652 4.91308-.9826 12.77397 5.8957 18.66969 3.9305-7.86094 3.9305-15.72183 7.8609-18.66969-6.8783-2.94786-13.7566 0-13.7566 0z"/><path d="m1260.6127 372.08004c-1.9652 2.94786-2.9479 11.79139-1.9652 15.72188 4.913 3.93045 10.8087 2.94786 13.7565 0-4.913-5.89572-10.8087-8.84352-11.7913-15.72188z"/><path d="m1331.361 267.92284c-7.8609 9.82616-18.6697 17.6871-26.5306 18.66969-8.8436.98264-21.6176-.98259-24.5654 5.89572-3.9305 5.89566-6.8783 6.8783-17.6871 6.8783-10.8087 0-16.7045 1.96522-20.6349.98259-4.9131-.98259-5.8957 6.8783.9826 12.77402-1.9652 8.84353 1.9653 15.72183 0 20.63491-1.9652 4.91309-1.9652 9.82617 6.8783 10.80875 9.8262.98264 17.6871 2.94786 25.548-.98258 8.8436-4.91308 12.774 0 20.6349-2.94786 0 6.8783-2.9478 21.61755 6.8784 32.4263 1.9652 4.91308 1.9652 8.84352-6.8784 10.80875-8.8435 1.96527-35.3741 2.94786-40.2872 0-5.8957-2.94781-8.8435-4.91303-7.8609 2.94786.9826 8.84352.9826 17.68705-4.9131 22.60013 8.8436 1.96523 6.8783-.98258 13.7566-6.87825 14.7392 2.94781 37.3394 3.93044 48.1482-2.94791-4.9131 11.79139-5.8957 21.61755-22.6002 21.61755-16.7044 0-21.6175 1.96527-26.5306 12.77402-13.7566 1.96522-17.6871 4.91308-29.4784 9.82611-11.7914 4.91309-26.5307 2.94792-37.3394.98264 3.9304 9.82617 13.7566 18.66969 25.548 18.66969-9.8262 2.94786-13.7567 14.73925-14.7393 20.63497-.9826 6.8783-9.8261 12.77397-21.6175 16.70447 19.6523.98258 29.4785-3.9305 46.1829-23.58283 17.6871-20.63486 14.7392-10.80875 27.5133-13.75661-8.8436 5.89572-15.7219 6.87831-19.6524 16.70447-4.913 9.82616-5.8956 13.75661-14.7392 14.73925 12.774 8.84352 21.6175 6.8783 26.5306-3.93045 3.9305-10.8088 14.7393-18.66974 24.5654-19.65233-13.7566 7.86095-13.7566 8.84353-13.7566 19.65233 0 10.80875-3.9305 22.60014-9.8261 17.68706 5.8956 11.79138 13.7566 12.77397 20.6349 5.89566 5.8956-7.86089 6.8782-14.73919 13.7566-20.63491-5.8957 9.82616-11.7914 22.60019-13.7566 26.53063-2.9479 4.91308-2.9479 9.82617-6.8783 13.75661 8.8435.98264 22.6001-.98258 26.5306-6.8783 4.913-6.87831 17.6871-32.4263 18.6696-46.18291-3.9304 24.56536-4.913 28.4958-4.913 35.37416 0 5.89566-2.9479 14.73919-2.9479 14.73919 11.7914 0 20.6349-4.91308 21.6175-17.68705.9827-12.77397 0-17.68706 2.9479-29.47844 0 15.72183 1.9652 17.68705 1.9652 29.47844 0 11.79138 5.8957 16.70447 16.7045 19.65233-4.9131-10.80881 2.9479-13.75667-2.9479-26.53064-4.913-12.77402-4.913-14.73924-1.9652-22.60013 4.9131 13.75655 7.861 12.77397 6.8783 23.58272-.9826 10.8088 11.7914 21.61755 27.5133 17.6871-8.8436-8.84352-11.7914-28.49585-7.861-55.02648.9827 32.4263 17.6871 43.2351 33.4089 26.53063-11.7914-2.94786-15.7218-8.84358-12.7739-26.53063 8.8435 8.84358 18.6696 5.89572 20.6349-5.89567-13.7566-2.94786-17.6871-14.73925-15.7219-20.63497 2.9479-6.87825 2.9479-10.80874-2.9478-16.70441 11.7914 2.94786 24.5654 4.91308 26.5306-8.84353-9.8262 0-17.6871-2.94786-18.6697-12.77402-.9826-9.82617-1.9652-17.68706-9.8261-23.58278 12.7739 2.94786 16.7044 1.96523 23.5827-11.79138-11.7914 1.96522-21.6175-2.94786-22.6002-14.73925-.9825-11.79133 5.8958-24.56536-6.8783-31.44366 5.8958-4.91308 6.8783-9.82611 7.861-18.66969-4.9131 4.91308-9.8261 11.79139-19.6523 8.84358-3.9305-15.72189-14.7392-29.47849-32.4263-28.49586 3.9305-7.86094 4.913-7.86094 0-17.6871z"/><path d="m1295.9868 328.84499c-.9826 7.86094 7.8609 18.66969 13.7567 22.60014"/><path d="m1381.4744 381.9062c-11.7914-6.8783-14.7393-12.77397-19.6523-23.58272"/><path d="m1383.4396 427.10653c-3.9305-4.91308-9.8261-7.86094-11.7914-15.72188"/><path d="m1381.4744 470.34158c2.9478-16.70447-2.9479-27.51322-11.7914-33.40889"/><path d="m1360.8394 470.34158c-.9826-8.84353-.9826-21.61755-1.9652-24.56536"/><path d="m1291.0738 433.0022c-11.7914 2.94785-19.6524 2.94785-28.4959 5.89571-8.8435 1.96523-5.8957 3.93045-17.687 10.80875-11.7914 7.86095-17.6871 10.80875-30.4611 13.75661"/><path d="m1308.7608 577.44669c15.7219 13.75656 28.4959 30.46103 30.4611 47.1655"/><path d="m1253.7344 563.69003c11.7914 3.9305 14.7392 3.9305 21.6175 2.94786"/><path d="m1069.9853 271.85328c9.8261 3.9305 24.5654 14.73925 29.4785 24.56541"/><path d="m1097.4986 266.9402c2.9478 7.86094 5.8956 13.75666 8.8435 19.65233"/><path d="m1509.2143 319.01883c4.9131-7.86094 9.8262-10.80875 9.8262-18.66969"/><path d="m1511.1796 353.4104c-1.9653 15.72183 0 27.51322 20.6349 33.40889"/><path d="m1282.2302 309.19272c1.9653-3.9305 4.9131-7.86095 4.9131-7.86095 4.913 4.91303 15.7219 7.86095 11.7914 14.7392-11.7914 1.96522-19.6523-2.94781-23.5828-6.87825z"/><path d="m1344.135 311.15789c9.8261.98263 25.548 7.86094 31.4436 12.77402"/><path d="m1116.1682 256.13145c1.9653-9.82616-12.774-19.65228-22.6001-19.65228 6.8783 6.87831 8.8435 10.80875 7.8609 18.6697 5.8957 6.87825 9.8262 6.87825 14.7392.98258z"/><path d="m1081.7767 255.14887c-5.8957-5.89572-19.6523-13.75661-30.4611.98258 15.7219 2.94786 13.7567 2.94786 19.6523 8.84358 6.8783-2.94791 8.8435-2.94791 10.8088-9.82616z"/><path d="m1054.2635 275.78378c-5.8957-2.94786-16.7045 1.96522-21.6175 11.79139 12.7739-1.96523 21.6175-1.96523 26.5305 4.91308 3.9305-4.91308-.9826-11.79139-4.913-16.70447z"/><path d="m1063.107 331.79285c-7.8609-.98264-22.6002.98259-26.5306-5.89572 5.8957 17.68711 16.7045 21.61755 30.4611 17.68711 2.9478-5.89572 0-6.87831-3.9305-11.79139z"/><path d="m1024.785 557.79436c-11.7914-5.89572-23.5828 4.91309-23.5828 18.66969 7.861-4.91308 15.7219-5.89571 21.6176-1.96522 3.9304-6.8783 2.9478-11.79138 1.9652-16.70447z"/><path d="m1006.1153 606.92513c-6.87828 8.84353-9.82614 21.61755-1.9652 34.39152 3.9304-8.84352 8.8435-21.61755 16.7045-23.58277 1.9652-5.89567-6.8783-10.80875-14.7393-10.80875z"/><path d="m1046.4026 631.49049c-3.9305 6.87836-4.9131 24.56541 6.8783 31.44371.9826-9.82616.9826-19.65232 8.8435-23.58277-.9826-6.8783-7.8609-11.79139-15.7218-7.86094z"/><path d="m1435.5182 718.94322c8.8435-.98258 11.7914 1.96528 18.6696-2.9478 0 7.86089-1.9651 13.75661-.9825 19.65227"/><path d="m1354.9437 709.11711c.9827 9.82611 13.7567 21.61755 24.5654 17.68711"/><path d="m1119.1161 715.01283c6.8783 2.94781 9.8261 8.84348 12.774 12.77397 1.9652 4.91308 6.8783 8.84353 13.7566 12.77398"/><path d="m1102.4116 735.64769c8.8436-4.91303 15.7219-4.91303 19.6523 1.96528 3.9305 5.89566 6.8783 5.89566 13.7566 7.86089"/><path d="m1125.9944 701.25617c-6.8783-3.93044-25.548-9.82616-29.4785 4.91308 6.8783 0 17.6871 3.9305 22.6002 8.84358 5.8957 0 7.8609-6.87835 6.8783-13.75666z"/><path d="m1104.3769 718.94322c-3.9305-3.93039-25.548-2.9478-18.6697 18.66975 5.8956-3.9305 10.8087-1.96528 16.7044-1.96528 3.9305-4.91303 4.9131-11.79138 1.9653-16.70447z"/><path d="m1100.4464 741.54341c-9.8262-2.94786-28.4958-.98263-25.548 23.58277 9.8261-9.82616 18.6697-7.86094 24.5654-6.8783 4.9131-9.82616 4.9131-8.84353.9826-16.70447z"/><path d="m1125.0118 781.83065c-5.8957 6.87831-9.8262 24.56536 5.8956 34.39153 0-8.84353 1.9653-14.73925 9.8262-21.61756-4.9131-8.84352-3.9304-19.65227-15.7218-12.77397z"/><path d="m1376.5613 873.21383c9.8261-2.94781 14.7392-5.89566 18.6697-14.73919"/><path d="m1389.3353 894.83138c-.9826-8.84352.9826-10.80875 5.8957-13.75661 5.8957-3.93044 9.8261-8.84352 11.7914-12.77397"/><path d="m1368.7004 847.66589c-9.8262 0-23.5828 13.75656-12.774 30.46103 5.8957-9.82612 9.8261-7.8609 15.7218-9.82612 4.9131-5.89572 6.8783-19.65233-2.9478-20.63491z"/><path d="m1368.7004 885.00527c-6.8783 7.86089-7.861 19.65228 10.8087 27.51322-.9826-7.86094-1.9652-10.8088 2.9478-16.70447-.9825-7.86094-4.913-12.77402-13.7565-10.80875z"/><path d="m1389.3353 894.83138c-10.8088 10.80875-11.7914 26.53064 11.7914 31.44372-.9827-10.8088-2.9479-14.73925 1.9652-20.63497 1.9652-7.86089-6.8783-13.75655-13.7566-10.80875z"/><path d="m1464.014 877.14433c3.9305 14.73925 1.9653 25.54799-16.7044 30.46108 3.9304-9.82617 4.9131-17.68711-1.9652-20.63492 3.9304-5.89572 9.8261-13.75666 18.6696-9.82616z"/></g><path d="m706.6313 614.32361v279.6817c36.07427 77.45359 59.41645 193.52779 136.87003 216.86999h180.98147c52.1397-21.7931 88.3643-139.5013 118.2228-212.2228v-287.51192z" fill-rule="evenodd" stroke-width="4"/><path d="m1139.5226 647.74536a218.03714 39.7878 0 1 1 -436.07433 0 218.03714 39.7878 0 1 1 436.07433 0z" stroke-linecap="round" stroke-width="3.4" transform="translate(0 -34)"/><rect height="235.54376" ry="22.281168" stroke-linecap="round" stroke-linejoin="round" stroke-width="4" width="44.562336" x="732.09552" y="662.06897"/><rect height="235.54376" ry="22.281168" stroke-linecap="round" stroke-linejoin="round" stroke-width="4" width="44.562336" x="1072.6791" y="655.70294"/><rect height="235.54376" ry="22.281168" stroke-linecap="round" stroke-linejoin="round" stroke-width="4" width="44.562336" x="983.55438" y="674.80109"/><rect height="235.54376" ry="22.281168" stroke-linecap="round" stroke-linejoin="round" stroke-width="4" width="44.562336" x="821.22015" y="681.16711"/><rect height="235.54376" ry="22.281168" stroke-linecap="round" stroke-linejoin="round" stroke-width="4" width="44.562336" x="903.97876" y="690.71619"/><rect height="140.46576" ry="14.046527" stroke-linecap="round" stroke-linejoin="round" stroke-width="3.587276" width="172.29601" x="811.46472" y="152.5788"/><path d="m811.67109 283.28912s46.90716 233.15651 90.67374 232.36075 80.39257-229.17772 80.39257-229.17772-38.99204 85.14588-82.75862 85.94164-88.30769-89.12467-88.30769-89.12467z" fill-rule="evenodd" stroke-width="4"/></g><rect fill="#2b0000" height="47.745358" ry="17.506569" stroke-linecap="round" stroke-linejoin="round" stroke-width="4" width="171.88329" x="811.67108" y="181.43236"/><path d="m855.62373 350.08021s23.02717 114.45861 44.51257 114.06797c21.4854-.39065 39.4654-112.50539 39.4654-112.50539s-19.1415 41.79887-40.6269 42.18952c-21.4855.39064-43.35107-43.7521-43.35107-43.7521z" fill-rule="evenodd" stroke-width="4"/></g></svg>