<svg height="1200.0002" width="1800" xmlns="http://www.w3.org/2000/svg"><g transform="translate(561.72688 58.134113)"><path d="m-561.72688-58.134113h900.00004v599.999943h-900.00004z" fill="#0a0a64" fill-rule="evenodd"/><g transform="translate(431.90861 103.53589)"><g fill-rule="evenodd"><path d="m-734.54515-122.23695-1.83534-1.43169 9.17667-5.80214 22.94168 13.11132 16.97684 8.66553 28.14179-4.5965 15.75328-3.39086 17.43568 7.45989 7.11192 11.227511-2.753 16.878938-17.51215 29.990264-.68825 17.180344 3.82361 19.893042-6.04131-2.486627-7.26486-7.836653-4.81775-11.75498-8.25901 20.043742 2.37064 21.4000912 7.11192 12.8852588 14.22384 8.590172 16.59448-.45211 14.68268-3.466217 10.24728 6.631014 7.87664 8.590183 16.28859-14.543017-7.11192-3.315507-10.62964-9.569762-6.72956-.753519-6.72956 2.712688.76472-5.4253756 5.96484-6.4049542 12.61792.3767596 16.36506 7.0077737 6.95898.3767596 9.48256-8.1380525 5.12364-12.1317396-3.36478-10.097231-3.5942-3.315507 11.47084-5.425365 5.58248-6.857074 2.753-8.740882-2.2177-8.966932-11.24142-6.404954-12.23556-3.089447-6.72956-4.295097-6.19425-6.404954 4.35892-1.808458 2.98242-4.295087-.22942-5.199314-5.506-4.822555h-2.29417v-2.486628h60.41308l16.90037 18.009223 9.78845 10.32328 12.61792 3.616917-4.28244 3.616917-5.96484.753529-8.33548-1.883818-7.7237-3.390857 11.16495 16.502185-.45883 15.673296-13.15323 39.4846649-2.90595 13.4880781 8.33548 13.337378 11.01201-9.720461 13.2297-1.205639 24.01228 3.918326 13.84148-3.616917 8.56489-9.117641 4.66481-11.83033.84119-16.803585-5.58247-22.53037-5.506-7.158483-5.58248 15.447246-7.18839 6.857074-5.65894 3.315507 2.75299-9.645112.91768-17.406404-2.75301-12.357799-17.66509-27.428275-2.82948-10.624693 3.28831-9.419049 9.25315-7.91201 12.31203-2.26057 27.14765 4.7472 13.84148 4.21974 10.09433-1.28099 11.77674-6.63101 13.07675-9.193 9.32962-2.71269 9.55903 2.93875-8.56489 3.69227-13.84149 15.37189-8.25899 7.459888-7.80017 3.993677 21.10634 12.131743 18.35333 17.029644 14.0709 5.726785 9.55903-1.507048-1.30003 11.679619-6.50014 9.871171-9.78844 4.973256h-10.85906l-14.83562-6.706364-14.75915-9.117642 19.5769 26.976166 15.06503 14.0908973 10.09434 5.50072506 11.012-1.73310856.76472 10.0972313-10.09432 13.0359679-9.25315 2.185218-15.06504-5.576085-15.90622-12.960608 3.13536 10.47398 20.6475 31.045193 10.09434 10.097231 6.95898 1.808458 9.78845-2.561988-1.83534 14.844427-5.506 8.966932-9.94139 6.028195-9.94139-.828869-6.95898-3.014098-24.85348-24.263478 9.94139 21.249381 29.51829 39.107893 8.02959 4.82256 11.08848-.90423-3.74715 12.43315-8.259 7.83665-15.67682 3.69227-14.07089-5.57608-20.57104-23.35925-22.55931-34.134636 14.98856 34.360696 26.07704 40.91636 18.65923 19.06416 12.46498 5.65143 13.84148-1.13028-8.79432 16.12541-14.07089 7.98735-10.17081.90423-11.47084-3.61691-21.25929-15.22119-25.38878-35.9431-35.63607-70.831265-.07648 12.131739 8.33548 36.093806 6.88251 23.20854 7.57075 17.70782 12.46498 15.29654-14.14737 4.44579-17.66509-3.0141-13.84148-12.28244-10.70612-17.78317-9.71197-29.31209-4.1295-20.04374-17.97098 62.31645 16.44153 17.33105 21.02987 14.99513 14.52973 3.39086h19.34748l-13.61206 10.9261-20.72398 7.23383 4.81775 13.86485-.68825 23.43459-8.48842 25.39377-6.95897-15.6733-12.23556-16.57753-13.15324-14.09091-2.06475 17.25571-10.40022 26.82545-6.42367 22.07826 2.29416 14.54302 14.75915 12.05638 14.52973-1.35634 7.1884-7.08312 1.60591-6.32961-5.12364-10.70004 13.61206.45211 11.31789 10.02187.68826 10.62469-7.34135 11.37822 5.96484.22605 13.84148-6.10354 19.80632-13.18667 21.94753-5.95284 22.10048 2.56198 14.75915 7.00778 14.98856 15.44724 3.74714 17.70782-2.06475 20.94797-1.91181-5.27468-5.506-10.85074-10.62965-7.30918-16.13564-.22606-16.82389 7.53524-21.41224 18.38599-17.12977 11.37822-15.90624 4.52114-20.95339-.22606-17.51216-6.78172-15.67681-11.83032-15.21797-15.2212.45883 10.62469 6.8825 14.99514 8.5649 12.28244-17.12979-1.88381-2.82947 1.80846-4.20598 9.64511-5.65894-6.85707-1.75887-4.14439-17.43567-.30141 8.79431-8.51482 5.42953-9.79581 4.05303-10.77539-1.22356-9.11764-13.91795 21.32473-11.54731 11.45357-18.35334 6.17889-18.35334 1.73311-10.78259-1.95917-12.61792-4.97325-21.33576-16.57754-16.82389-13.11132-17.28273-7.98735-15.4474-.90423-9.25314 3.91833-5.506 6.10354-1.37651 7.45988.68826 13.18668-6.95898-12.20709-2.06475-12.73456 2.52358-13.18667 6.72956-12.96061 12.46498-11.37822 16.8239-7.76129 15.21797-1.13029 20.34162 4.44579 40.5303 20.34515-3.28831-14.01555 2.753-11.22751 10.70612-6.55566 13.2297-1.28099-3.51773 11.60427 4.28245 11.0768 12.92381 6.17891 12.23556-.97959 9.25315-6.1789 3.21183-13.18666-2.98242-22.22896-13.84148-29.08604-8.71783-20.64656-19.34748 20.49585-6.65309 8.96694-7.7237 13.9402-6.42367-29.46279.61178-17.70783 4.66481-19.13951-13.30617-2.26057-13.45912-7.23383-3.05889-4.37044 22.8652.30141 16.44154-9.26835c.84119-.45211 2.06475-1.43169 2.82947-1.88381l15.29445-16.12541 3.82362-14.0909-2.06475-15.59796-16.2886-42.87552-4.28244 25.24306-7.57075 25.54447-9.78845 16.05006-11.54731 8.96694-11.54731 4.97326-9.32962 1.20564-10.78259-.75352 4.9707-7.912 6.3472-11.67963 11.31789-42.80018 4.20597-20.79726 2.52359-23.585305-20.34162 49.054425-18.12393 38.12832-19.34748 24.03742-17.3592 10.17258-16.59448 3.4662-13.53559-2.48662-12.31203-9.11765-4.35892-6.93242-1.07061-5.35003 14.22384 2.18523 16.44154-10.02187 21.02987-23.2839 11.85319-19.21486 15.37093-27.65434 12.08261-29.990259-7.26486 7.158484-23.17109 32.326185-16.59448 17.78317-15.52387 9.87116-15.90623 2.41128-12.15908-5.50073-3.13537-6.10354-2.06475-14.31696 7.80017 3.69227 7.49428-2.93875 14.37678-11.75498 19.34748-25.770515 19.34748-30.442383-18.81217 17.481764-15.82976 12.05639-18.7357 3.089447-9.55903-7.459894-4.28245-11.453559-.30588-10.775401 6.11777 4.671856 9.32962-3.390867 13.00028-11.754969 19.88279-23.509959 5.20011-9.042282-.91766-1.5070487-21.18282 12.7345487-12.31204 3.014097-11.70025-5.199315-5.20011-7.535233-1.52944-8.2134234 1.22355-7.8366427 7.03544 2.71268757 13.84149-5.12396547 12.61792-12.433149 23.40051-32.100131-7.7237 4.521146-19.65337 12.131739-12.61792 2.411278-7.64722-1.507049-8.64137-6.028195-3.67067-10.32328.61178-7.610594 12.31203 1.883809 14.68267-8.514823 17.58862-16.351475 16.90037-13.638782-6.80603-2.411278-10.40023-13.638789-3.13536-5.72678-7.34134-4.44579z" fill="#fff"/><path d="m-725.90379 99.600559 20.34162-28.859974v51.088935h-47.4128l11.47084-5.04862z" fill="#ba2b1a"/><path d="m-750.22196-32.944343-8.79431-7.459883h41.0656l-10.62965 5.877484-13.15323 2.712688z" fill="#ba2b1a"/><path d="m-488.15155-58.03669v-8.213413l3.05889 2.335928 10.24728 2.863387-2.06475 2.863388-3.74714 1.808458z" fill="#ba2b1a"/><path d="m-534.8761-40.404226h48.10105l-3.67067 17.180344-10.40023 29.0860344-2.60005 9.6451116h-36.55374v-47.245968z" fill="#ba2b1a"/><path d="m-539.99974-57.207811v-36.09381h-33.11249v2.938744l6.04131 2.938745 1.83534 3.993674-.76472 4.219736-3.97656 4.219737-2.98242 1.130289 8.79431 8.062702 10.09434 4.144387z" fill="#ba2b1a"/><path d="m-469.33938-87.574837v-6.028194h37.242v53.198805h-14.9121l-.61178-8.590172-5.12364-11.52892-8.02959-11.37822z" fill="#ba2b1a"/><path d="m-382.08453-93.603031h-50.01285v-17.481759l16.82388 3.54156 11.92968 3.39086 12.92381-1.80846 13.00029-10.39863v19.064162z" fill="#ba2b1a"/><path d="m-370.30781-80.114951-7.11191-4.747199v41.669886l4.28244 2.788038h43.89507l4.20598-10.700041-.91767-6.706364-8.64136 2.185218-12.92381-4.521146z" fill="#ba2b1a"/><path d="m-423.07367-23.374581-6.27072-17.029645h49.32461l2.60006 3.240157v52.671333h-48.02458l4.51187-15.974716z" fill="#ba2b1a"/><path d="m-357.53694 20.405169-7.49428-4.897905h34.03015l-5.73542 5.952845-8.259 2.335917z" fill="#ba2b1a"/><path d="m-373.21375 15.507264h-4.20597v51.767104h49.85991l1.75885-9.192992-2.06475-2.486628-7.26486 2.938748-9.55903-2.185229-12.31204-14.618367-13.84147-20.345151z" fill="#ba2b1a"/><path d="m-377.41972 132.60491v-10.77539h48.94224l.30588 7.68594-10.47669 12.73456-14.30031 4.37044-13.68854-4.37044z" fill="#ba2b1a"/><path d="m-421.54422 67.274368h39.53616l4.58834 8.740882v45.81427h-8.41195l-19.11807-28.633915z" fill="#ba2b1a"/><path d="m-422.07952 67.274368h-10.01786v54.555152h37.39492l-18.58275-39.484666z" fill="#ba2b1a"/><path d="m-369.84897 159.35502-7.57075-10.17258v27.20222h24.16523z" fill="#ba2b1a"/><path d="m-400.8967 176.38466h23.47698v23.58531l-14.45327-11.52892z" fill="#ba2b1a"/><path d="m-432.09738 190.09881v-13.71415h6.50014l8.25899 9.49441-10.32374 4.21974z" fill="#ba2b1a"/><path d="m-479.96901 141.19509-4.66481-19.36557h38.46554l6.04131 24.79094 8.02959 19.36557v10.39863h-30.13007l-9.71199-14.76907z" fill="#ba2b1a"/><path d="m-488.15155 67.274368h56.05417v-43.026222l-12.6944 4.596496-16.59448-1.205639-17.74156-2.486628-9.02373 4.671846z" fill="#ba2b1a"/><path d="m-602.55404 5.9375022 6.34719-3.9936763v8.8162321l-4.43539.828879-3.82361 2.109868z" fill="#ba2b1a"/><path d="m-585.88309 15.507264h45.88335v51.767104h-56.20711v-35.566339l6.80603 6.254255 4.58834-4.219736 11.92967-8.966943-6.42367-3.014087z" fill="#ba2b1a"/><path d="m-539.99974 121.82952v-54.555152h51.84819v41.443832l-3.90009 13.11132z" fill="#ba2b1a"/><path d="m-592.53618 121.82952h52.53644v54.55514h-43.20682l2.753-8.74087-.38236-13.18668z" fill="#ba2b1a"/><path d="m-650.88451-26.388679v-14.015547h10.78259l.53531 9.268341 4.05303 18.084584-3.82362-.452119-6.27072-5.500725z" fill="#ba2b1a"/><path d="m-641.17253-114.85241-9.71198.60282v20.646559h31.88893l-1.52944-7.911999-5.88837-7.00778z" fill="#ba2b1a"/><path d="m-700.59147-93.603031h49.70696v53.198805h-54.67766v-49.581889z" fill="#ba2b1a"/><path d="m-715.9624-125.77851 10.40023 8.28876v22.530377l-7.41781-7.384537-6.42367-11.37821-11.47084-7.38454-6.11778-2.48663 8.10606-5.35002z" fill="#ba2b1a"/><path d="m-708.92695-40.404226h3.36478v55.91149h-4.35892l2.52359-6.5556644-8.87078 6.5556644h-41.06561l-2.98241-10.6246906.68824-8.4394726 7.11193 2.71268762 16.21211-6.40495422z" fill="#ba2b1a"/><path d="m-705.56217 62.753222v-47.245958h50.01286l4.6648 4.521146v47.245958h-53.07174l5.58247-10.624691z" fill="#ba2b1a"/><path d="m-650.88451 121.82952v-54.555152h54.67766v47.396672l-2.37064-8.51483-1.60591 15.67331h-39.61263l6.42367-37.525508-10.4767 20.571208z" fill="#ba2b1a"/><path d="m-500.00475 176.38466h-39.99499v53.12345h51.84819v-40.841z" fill="#ba2b1a"/><path d="m-466.35696 229.50811h-21.79459v30.21633l9.86492 14.69371 4.74128 11.00145h.8412l7.64722-21.09867 1.45298-19.66698z" fill="#ba2b1a"/><path d="m-758.48097 73.528622-1.75886-6.254254h50.08933l-14.83562 11.754979-11.8532 5.123966-14.14737-2.260579z" fill="#ba2b1a"/><path d="m-687.2853 121.82952h36.40079l-18.7357 41.21777-8.48842 13.33737h-27.45354v-25.31841z" fill="#ba2b1a"/><path d="m-656.08462 176.38466h5.20011v-13.33737z" fill="#ba2b1a"/><path d="m-622.81919 176.38466-10.32375 8.06271-13.15323 4.21974-4.58834.22606v-12.50851z" fill="#ba2b1a"/><path d="m-596.20685 192.81149v36.69662h-18.20039l2.37064-8.59017-11.62378-2.26057-14.45326-7.08313-3.67067-4.97326 14.83562 1.20564 11.24142-2.26058z" fill="#ba2b1a"/><path d="m-558.35308 285.4196-18.04745-41.66988-19.80632 21.24938v-35.49099h56.20711v55.91149z" fill="#ba2b1a"/><path d="m-729.34504 176.38466h23.78287v26.37335l-20.26515 4.14438-19.04159-4.44579-7.57075-7.91201-3.74714-7.45988-.5353-3.69228 12.84733 1.50705z" fill="#ba2b1a"/><path d="m-539.99974 335.90572v-50.48612h21.4887l-5.35305 20.2698.61177 13.26203 10.32376 11.0768 12.6944 2.48663 12.08261-4.52115v7.91201z" fill="#ba2b1a"/><path d="m-488.15155 389.10453v-53.19881h20.18868l-3.44125 4.06903 6.8825.22606 9.02373-4.29509h23.40051v47.92413l-7.26487 5.27468z" fill="#ba2b1a"/><path d="m-377.41972 335.90572h-54.67766v-14.54301l17.20625-5.72678h20.26515l17.20626 6.17889z" fill="#ba2b1a"/><path d="m-361.20761 335.90572h-16.21211v19.06416l9.10019 3.39086 7.11192 7.53524 4.89423 12.73456 2.52358-8.89158-1.14709-18.15994z" fill="#ba2b1a"/><path d="m-501.53419 389.10453 13.38264 5.50073v-5.50073z" fill="#ba2b1a"/><path d="m-523.09937 389.10453h-16.90037v20.26979l2.14122-.1507 2.75301-6.48031 2.14122-3.54156 12.00614.60282 5.88837 1.43169-.45884-2.56198-5.42953-5.27466z" fill="#ba2b1a"/><path d="m-596.20685 389.10453v-53.19881h56.20711v53.19881h-13.99442l7.11192-14.16626 1.9118-10.24793-2.44711-2.86339-19.57689 27.27758z" fill="#ba2b1a"/><path d="m-614.40724 335.90572h18.20039v-28.1818l-10.62964 2.03451-6.8825 5.19932-2.98242 10.02187z" fill="#ba2b1a"/><path d="m-650.88451 321.212 29.59476 14.69372h-29.59476z" fill="#ba2b1a"/><path d="m-705.56217 357.23046v-21.32474h54.67766v44.83469l-18.27687-15.07049-14.07089-7.38453-15.52387-2.48663z" fill="#ba2b1a"/><path d="m-717.95067 335.90572h12.3885v-11.37821z" fill="#ba2b1a"/><path d="m-620.90738 400.33203-19.5769-11.2275h44.27743v11.52891z" fill="#ba2b1a"/><path d="m-468.42171 223.32922 9.25315-2.63734 7.57075 5.80214 15.1415 7.68595 13.61206 5.42536 8.64137 1.281 9.55903-3.99367 12.54145-13.26203 9.32961-7.00778h11.08848l7.26487 7.45989 2.14122 8.51482-1.14708 2.48664-3.5942.45211-4.28245-2.78804-2.37064 5.35003-4.28244 2.93873-4.43539.37676-3.90008-3.31549-2.21771 4.29508-8.41194 2.41128-7.49428.75352 10.24728.90423 12.84734-2.71269 13.15322-4.74721 14.37679-5.12395 10.78259-.22606 8.10605 6.02819 3.21185 7.38454-1.91182 11.30286-1.52944.30141-4.9707-8.28877-4.20597-3.01409-.22942 4.97325-2.29417 4.74721-5.04716 3.76761-6.57661.75353-5.27659-4.59649-2.67653-5.80214-5.04717 4.82256-16.90037 5.35001 7.87664 1.95917 26.84176.82887 13.2297 6.70637 4.28246 10.85075-2.52359 10.17258-4.28245 7.15847-.99413-6.63101-3.28832-5.50073-3.51772-2.71269-2.98242 4.4458-3.51773 3.76762-8.56488.67818-5.8119-5.19933-2.21769-4.67185.22942-6.17889-2.52359 2.71269-2.2177.22605-12.3885-3.46621-13.765-5.19931-7.03545 6.17889-.76472 9.72046-3.05889 3.16481-6.50015 2.03451-4.51186-.52746-6.95897-4.06904 1.98828 12.43315-4.9707-2.03452-7.18839-8.0627-1.6824-8.21341 4.05304-5.87749 11.08848-9.04229 3.36478-3.69227.07647-2.8634-11.39437-7.38453-13.07675-6.4803-6.27073-1.80846-6.3472.52746-1.3765-11.60427z" fill="#e9cc0c"/><path d="m-623.58391 217.67778-14.45326 10.32328-14.45325 8.51483-12.00615 4.21973-10.4767-.30141-6.42367-3.3155-7.72369-11.22751-6.42367-9.41906-8.02959-2.10986-6.72956 2.10986-4.28245 4.5965-1.83533 3.91833-.61178 10.70005 2.2177-.15071 4.1295-4.74721 1.14708 4.74721 3.82362 5.27466 8.56489-2.56198 3.05889 5.27467 8.259 4.2951-9.86492-.30141-18.42981-6.63102-19.11807-6.78172-9.78845 2.26058-8.02958 9.19299-.91767 14.69372 4.28245 5.12396 5.88836-11.00145 2.44711 6.3296 6.11778 3.39086 5.73542-1.5824 3.5942-3.1648 1.60592-3.76762 5.506 3.08945 12.92381 1.95917 9.02373-.45212-10.17081 3.91832-14.98856 3.24016-12.92382.67817-6.42367 4.67184-2.82946 7.83666 1.60591 8.66553 5.506 8.28876 1.60592 1.13029.84119-5.27467 3.28831-4.29509c0 .60282.15294.75353.30589 1.28099l3.74714 5.27467 9.17667-.45212 4.35892-4.8979.5353-8.43947 28.98299-9.87117 9.1002-2.10986 6.65308 5.57607-1.45297 6.10355 2.14122 6.25425 5.81189 2.86339 4.74128-.60282 3.28831-2.41128 2.2177 4.59651-.15295 9.6451 4.05303-1.43169 6.72956-6.78172 1.45297-11.98103-3.59419-9.41906-9.1002-7.53524-3.44125-3.69227 1.22355-2.71268 11.47084-7.98736 10.4767-5.87749 2.753-.37676 11.62378.22606 3.97656-23.58531z" fill="#e9cc0c"/><path d="m-464.52162 234.55673-.61178-4.89791c.99413 2.03451 3.2883 5.57608 5.73542 6.25425 2.60006.82888 6.11778 1.4317 8.94725 1.95917 1.60592.30141-1.45297.82887-1.9118.90422-1.83534.30141-11.85321-1.8838-12.15909-4.21973z"/><path d="m-463.83337 244.05113.22942 2.10987c7.03545-3.1648 19.34747 5.35002 22.63579 6.93242 5.506 2.71269 13.22969 7.38453 13.22969 9.04229 0 2.10987-4.51186 6.02819-9.78845 9.94651-6.8825 5.04862-11.70025 10.9261-6.8825 19.51629 2.06475 3.61691 13.2297 13.33737 17.89451 9.41905-4.89423-.97959-4.12951-6.40496-4.20598-9.94652 3.0589 2.63734 12.6944 3.4662 17.28273-.37676 4.66481-3.91833 2.60005-8.74088 4.05303-12.96062.53531-1.4317 1.9118-2.71269 3.13536-3.84298 4.20598-3.69226 21.33576 10.62469 31.81246 6.63102-3.13536 5.95284 5.8119 14.16625 9.55903 14.16625 7.03545 0 11.47084-1.80845 14.14737-8.74088 5.12364 1.28099 6.95897 9.72046 6.04131 14.99513 6.95897-4.06903 9.63551-12.43315 9.63551-17.85851 0-8.66554-4.89423-16.57754-13.45912-18.5367-13.61206-3.08946-27.60649-1.95917-41.75386-3.46622 1.6824.15071-3.21183.07535-1.30003.60282 2.82948.82888 8.33549 2.48663 15.67682 2.63734 10.09434.30141 17.89451.22606 26.00057 2.48663 5.506 1.5824 17.51214 14.01555 7.49428 29.68885 0-5.42537-3.36478-9.26835-6.27073-12.05639-2.60006-2.48662-1.30003-8.59017 1.91181-10.9261-5.96484.97958-4.81776 7.23384-5.96484 10.54934-1.52944 4.5965-4.81775 7.53525-9.6355 7.38454-2.90594-.07535-8.10606-3.1648-9.25315-5.72679-1.52944-3.3155-1.9118-10.09722 1.98829-12.58385-4.43539.67817-5.20012 5.72679-8.48843 5.50073-4.28244-.22606-20.41809-6.78171-24.70054-8.28876-3.97655-1.35635-5.12363 1.13028-7.49428 4.06902-1.60592 1.95917-5.88836 2.71269-7.26485-.37676-1.75887 3.61692 5.04716 2.93874 3.67066 10.17257-.68825 3.84298-2.06475 5.12397-4.97069 6.0282-5.50601 1.65776-9.1002.82888-12.46498-2.33593-2.75301-2.56198-.38237-8.51482-8.33548-7.23382 2.753 1.5824 4.05303 3.01409 4.51186 4.67184.99414 4.21974 2.21769 8.28877 2.37064 13.33738-4.43539-.07535-9.55903-9.41905-10.70611-12.88526-3.36478-10.17258 16.05917-15.37189 17.66509-23.20855.22942-1.05493.15294-1.80846-.61179-2.86338-1.68238-2.48663-15.29444-10.62469-26.22997-14.99514-3.74715-1.50705-8.25901-.97958-11.16495-.67817z"/><path d="m-403.57324 246.76382-3.59419-.60282c2.29416 0 4.05303-.37676 6.04131-.45211 14.6062-.45212 23.85933-4.37045 38.31259-10.02187 7.72371-2.93875 18.42982-6.10356 25.61822-.67818 7.9531 6.02819 9.40608 21.32474 1.75885 26.37334-1.30003-5.65142-5.35305-11.45357-7.87664-11.45357.22942 5.42538-6.57661 12.43315-12.23556 12.65921-5.73542.30141-9.86492-4.14438-11.39437-8.43947-3.44125 4.37045-15.9827 8.13806-21.25929 8.13806-7.03544 0-11.70025-4.74719-16.518-7.23383 4.20597.07536 7.11192 1.65776 9.78845 3.16481 8.48842 4.82255 27.68295-3.16481 28.6771-11.00145 1.14708 3.39085 1.30002 6.40495 4.43539 9.56975 6.27072 6.17889 11.012 3.76761 15.44739-2.03452 1.07061-1.35634 1.3765-5.65142 1.07061-8.36411-.15294-1.5824-.76473-2.63734-.76473-4.4458 0-1.13029.38237-2.03452 1.14709-2.48663 1.07061 1.80846-.15294 5.87749 2.06476 7.38454 3.2883 2.18522 6.27072 7.38454 8.10605 10.17258.91766-3.0141.8412-4.21974.99414-5.95285.76473-12.13174-10.85906-19.59162-24.62407-14.46765-11.39436 4.29508-24.54759 10.17257-36.70668 10.47398-2.60005 0-6.27072.07535-8.48842-.30141z"/><path d="m-457.86853 221.37005-2.98243.60282c9.78846 6.85707 35.78902 22.00291 47.7187 20.2698 7.18838-1.05493 12.23556-6.93242 17.12977-11.98103 3.74715-3.84297 7.95312-8.51482 12.38851-11.07681 7.34134-4.14437 19.50043 2.33593 19.80631 15.5226-3.44125.67818-4.28244-.67817-5.73542-2.26057-3.13536-3.39086-6.88249-4.74721-4.05302-10.47399-1.60592.52747-2.29417.75353-2.52359 4.59651-.15294 3.08944 3.90009 5.35001 3.67067 7.45988-.30589 2.8634-4.89423 7.7613-9.86492 6.10354-2.52359-.82888-3.21183-5.0486-6.42367-4.67184 1.60592.75352 1.91181 2.33593 1.52944 3.84296-.84119 2.78805-6.27072 3.91833-7.95311 4.2951-3.21184.75352-11.16495-.45212-12.46497 2.71269 19.11805-1.05494 19.72984-2.26058 21.79459-6.70638 1.22355 2.18523 4.12949 3.61692 7.4178 2.48664 3.67067-1.20564 6.42368-4.37044 8.41195-7.7613.91767 2.33593 7.57076 3.31551 8.259-.67817 1.60592-10.17258-4.97069-19.44092-15.1415-19.44092-11.92967 0-17.97098 9.87116-24.39465 17.10499-11.62379 13.03597-24.54759 6.93242-36.70668-.30141-8.64136-5.19931-13.84148-5.80213-19.88278-9.64511z"/><path d="m-577.70056-128.03908-5.04717.97958 6.11778 12.80991 4.28245 21.023322 59.57189.376762 2.98241-15.522594 7.49429-20.94797-7.03545 2.48663-6.42367 5.65143-7.1884.67817-2.37064 3.76762-5.12363-5.87749-4.20598-.45211-4.28245-9.41905-6.80603-.60282-7.26486 8.36411-1.91181 1.88381-4.66481 1.65776-2.14122 2.93874-5.73542-3.54156-3.44125-.45212z" fill="#e9cc0c"/><path d="m-614.33077 231.16587-.22942-3.99368c-.99414 3.01409-4.1295 6.25425-6.72956 7.7613-1.52944.90423-5.81189.45212-7.4178-.60282.15294.52747 1.83533 2.03452 2.14122 2.18522 1.68239.82888 4.28245.90423 6.27072.22606 1.75887-.67817 5.8119-5.57608 5.96484-5.57608z"/><path d="m-570.51217-92.095982-3.90008.150705c0-3.164801-.8412-6.329604-1.07061-9.192993-.30589-3.08945-.99414-8.28877-2.14123-12.05639-1.9118-6.55566-9.55903-15.29654-6.11778-16.05006 5.88837-1.28099 10.17081 1.43169 13.61206 5.95284 1.68239-.07535 5.96484-.07535 7.7237 3.1648 1.83534-3.1648 4.51186-4.52114 7.7237-4.5965.61178-1.13028 1.07061-2.26057 1.45297-2.86339 1.91181-2.93874 5.27659-7.7613 9.63551-7.61059 4.35891.22606 6.19425 2.26057 8.02958 5.57608.91767 1.65775 1.68239 3.69226 1.98828 5.27466 2.37064-.1507 3.90009.30141 5.27659.90423.99414.37677 2.67652 1.95917 3.36478 3.08945.84119-1.35634 1.45296-1.95916 3.13536-2.41127 1.52945-.37677 1.68238-.60282 5.65895.07535 1.9118-2.26057 4.20597-3.99368 6.95897-5.65143 1.52944-.97958 2.98242-1.5824 4.89422-1.95917 2.37064-.52746 4.51186 0 4.20598 1.05494-.38236 1.5824-3.13537 5.42537-4.4354 8.81623-3.05889 8.21341-6.19425 18.53669-6.57661 27.80504l-2.98241-.075351c.84119-8.364119 2.82947-17.783169 5.58247-25.243059 1.07061-3.08945 2.21769-5.42537 4.05303-8.36412-.22941-2.41127-6.57662 2.48663-8.10606 4.29509-.91766 1.05493-1.60592 3.76762-3.2883 2.86339-2.06475-1.05493-2.98243-1.28099-4.9707.15071-2.52359 2.33592-2.82947 2.71268-2.67654 5.87748 0 1.281 1.07062 2.33593 1.60593 2.8634.53531.52746 2.06474 1.80845 4.58833 2.18522.76472.07535 0 1.95916-.30589 2.03451-1.68238.37676-4.1295-.75352-5.20011-1.28099-.91767-.52747-2.82948-1.50705-4.05303-2.86339-1.98828 1.05493-4.89422 2.33592-6.57661 2.78804-2.06476.52747-3.67067-.15071-2.52359-1.35635 1.07061-1.13028 2.44711-1.13028 3.82361-1.5824 1.3765-.45211 2.44712-1.43169 3.51773-3.54156.45883-.90423 1.14708-2.18522.45883-4.7472-.30589-1.13029-2.60006-2.56198-4.05303-2.78804-.91767-.15071-2.60006-.22606-3.13536-.75353-.91767-.97958-1.22356-1.43169-1.3765-2.33592-.07647-1.13029-.53531-2.18522-.99414-2.93874-.91767-1.73311-2.753-4.5965-5.42953-4.5965-1.83534-.07535-4.1295 1.95916-5.81189 4.06903-1.22356 1.65775-1.91181 3.54156-2.98242 5.04861-.07647.15071-.61178 1.28099-2.06475 1.28099-2.753-.45211-5.35306.75353-5.35306 5.50073-.07647 3.08945.07647 3.01409 1.60592 4.5965 1.75886 1.7331 3.82361 2.41127 5.20011 3.24015.61178.30141-.15294 1.5824-.91767 1.65775-1.30002 0-3.74714-.67817-5.04716-1.43169-1.45298-.82888-1.91181-2.26058-2.90595-2.78804-2.06475.22605-3.44125 3.76762-7.7237 4.52114-3.74714.67817-1.3765-1.65775-.22941-3.01409 3.13536-3.39086 6.65308-2.18522 5.27658-8.66553-.5353-2.26057-4.05303-2.41128-6.42367-2.48663-2.90594-.07535-2.67653-3.39086-6.11778-5.19932-2.21769-1.20564-2.67653-1.05493-3.90008-.82888-1.22356.15071.30589 2.71269.91766 3.31551.99414.97958 1.22356 1.35634 1.75887 2.33593.76472 1.43169 1.30002 3.3155 1.83533 4.44579.15294.30141.68825 1.43169 1.3765 4.67185.68825 4.29509 1.14708 5.42537 2.06475 10.09722.61178 2.938746 1.45297 6.178899 2.06475 9.569758z"/><path d="m-598.11865 110.37595-1.45297-5.35002c-5.58248 36.99803-12.6944 85.6757-61.78959 82.96301 6.19426-6.70636 14.14737-27.12688 19.50043-50.18472 6.57661-28.63391 11.8532-60.658681 10.17081-71.961541-6.19425 25.619817-25.31232 69.324221-38.15966 94.039801-10.32375 13.86485-21.94753 43.70441-56.58946 44.83469-12.61793.45211-27.75944-8.43947-29.2124-19.66698 9.71197 2.48663 15.75328 2.03452 26.22998-5.72678 20.03573-14.76908 30.5889-33.98394 38.77143-47.77343 6.57661-11.00145 28.60062-53.123452 29.13593-72.639725-10.40023 18.913453-22.02401 35.641688-31.65951 48.451595-5.65895 7.53525-16.67096 19.36557-19.80632 21.8522-13.765 10.9261-20.18867 12.80991-28.67709 12.65921-12.46498-.22606-18.50629-3.84298-18.88865-21.09868 2.67653 2.03452 4.35892 2.18523 8.02959 2.26058 4.28244.07535 9.1002-3.76763 11.31789-5.27468 12.69439-10.02187 27.14765-31.12054 35.02429-43.704388 1.3765-2.260578 5.73542-9.419052 10.09434-16.502186 5.58247-9.042281 10.78259-18.009224 6.95898-17.331054-10.24729 13.638788-24.39465 33.15506-41.52444 39.710724-16.97684 6.631014-28.60062-2.185218-29.7477-22.831779 1.60591 1.130289 2.06474 3.240147 7.11192 2.938737 9.02372-.602809 21.02986-13.714138 25.77114-19.742322 5.35306-6.932424 24.92996-28.332515 20.57104-33.4564806-1.91181 1.4316989-13.15323 9.4190516-17.28273 11.5289196-5.88836 2.938748-12.46498 6.631014-19.5769 4.370446-13.15322-4.069036-15.67681-11.15216-14.91209-24.7155977 2.44711 2.56198795 10.32376 2.26057821 14.52973.2260599 5.81189-2.7880374 9.48256-4.4457858 17.74157-14.1662472 9.40608-11.15216 12.15908-15.447246 19.57689-25.544477 1.30003-1.733099 10.40023-13.412728 5.81189-13.262018-11.54731 10.47398-26.9947 19.440922-32.5007 20.721911-6.04131 1.431699-11.47084 2.034518-16.97685-1.054929-5.65894-3.240157-11.16494-8.213423-9.6355-19.516283 0 .15071 2.90595.67818 3.21184.75353 3.05889.22606 7.95311.452109 10.62964-.678169 5.12364-2.185229 10.09434-5.651436 14.14737-9.117642 6.95897-5.952845 17.58861-16.652885 24.54759-22.379671-.15294-.226058 3.05889-2.335925 6.57661-5.27467 1.98828-1.5824 5.58248-2.335925 5.58248-2.712686.22941-.828877-6.95898-.30141-10.78259-2.938745-4.35892-2.938744-9.32961-12.885263-12.08262-16.577533-2.52358-3.39086-8.71783-6.85707-12.54145-8.21341-3.59419-1.20564-5.65894-1.35634-1.83533-3.84297 7.80017-5.04861 17.3592 3.39085 23.09462 7.68594 5.42953 4.06903 13.38265 11.90568 26.15351 11.90568 13.61206 0 19.42396-3.1648 26.53587-5.57607 8.71784-2.8634 18.12393-1.58241 25.38879 1.65775 10.01787 4.44579 11.24142 13.111318 10.17081 22.379665-.5353 6.254245-8.71783 15.070488-18.27687 34.13464-2.52358 5.048616-2.14122 12.28245-1.83533 18.687404.30589 7.233833 3.36478 16.200765 4.51186 20.345152-2.44711-1.356349-7.11192-4.445797-8.56489-6.329605-6.19425-7.761303-6.42367-12.885269-7.80017-18.084584-7.87664 6.857074-10.85906 23.736009-10.85906 33.6825301 0 4.74720595 3.67067 17.8585239 9.1002 23.8867189 4.20597 4.521146 13.2297 11.45357 25.69468 11.0768 7.41781-.22605 13.84147-2.109868 21.10634-3.164797 4.97069-.678169 12.92381 6.103544 17.81803 12.885258l2.06475-2.185218c-7.80017-8.213412-10.40022-10.70004-11.92967-11.679619-4.1295-2.712688-6.19425-3.918327-10.01786-3.164808-7.87664 1.507049-16.97684 2.938748-20.03573 2.938748-8.41195 0-15.06504-2.109868-21.18282-7.987353-6.34719-6.028194-9.02372-21.6261508-8.259-29.462794.68825-6.329604 2.21769-11.905689 6.3472-18.009234.76472 2.863398 5.04716 9.795822 7.18839 11.90569 1.9118 1.808458 7.87664 7.309183 11.62378 5.576075-1.60592-11.75498-4.51186-18.762753-3.67067-28.407865 1.07061-12.885258 12.15909-27.428275 17.81804-37.977616 13.53559-25.092348-13.2297-43.176928-34.94782-36.545918-12.6944 3.84298-30.97127 8.96694-42.28916 1.13029-16.36506-11.22751-29.13593-23.58531-40.91266-9.3437 5.73542 2.78804 15.60034 6.02819 19.34748 12.20709 1.91181 3.1648 8.10606 17.406408 15.52387 18.310637-9.1002 6.028192-18.96512 15.29654-28.21826 24.414182-4.43539 4.370436-9.17667 7.836653-14.52972 9.946521-6.11779 2.411278-10.70612 1.582399-16.05918.52746-4.35892 12.809918 4.66481 27.880395 18.65923 27.880395 8.79431 0 10.70611-.52747 19.11806-3.993677 1.91181-.753519 14.52973-9.343701 17.28273-11.00145-.45883 2.561978-19.19453 25.921227-21.71812 28.633915-5.42953 6.028194-21.71812 19.9683919-30.66538 11.2275096-2.60005 12.0563893-1.60591 23.9620684 11.47084 30.3670224 13.45912 6.480305 32.8066-8.288762 39.1538-13.337378-4.9707 9.419052-17.97098 23.886719-21.94754 28.106455-4.89422 5.123956-11.39436 11.37821-16.518 14.919777-6.57662 4.521146-12.00615-1.657759-13.84148-3.014097-1.83533 15.522596 1.75886 31.346602 15.21797 33.30576 8.87079 1.205639 17.12979.07536 26.22999-6.781714.61178-.452109 14.22384-12.809909 18.42981-16.803585-4.89422 9.795811-19.34748 30.291663-26.22998 38.128316-5.12364 5.802131-11.16495 13.488091-18.42982 18.310631-3.2883 2.18523-12.46497 3.39087-16.21211-1.20564.07647 12.73456-.15295 20.19446 9.55903 26.59941 11.70026 7.7613 31.88893.22606 44.58333-12.3578 17.81803-17.78316 32.19481-41.293122 37.77729-49.205125-4.1295 14.919787-27.07118 56.288255-35.5596 67.591115-7.87664 10.47398-17.20626 20.34516-27.22412 28.55857-3.97656 3.24016-10.62965 8.36411-25.15938 3.31551 7.57076 38.95719 52.68939 28.40785 65.38378 15.74865 35.48313-35.56634 41.37149-70.52987 56.66594-103.308156-1.83533 17.406406-6.0413 33.757876-9.94139 49.807946-1.83533 7.61059-5.42953 19.74233-7.87664 26.90081-1.3765 4.06902-6.95898 13.63878-12.46498 18.91345 42.82446 9.11764 64.54258-24.33883 68.74856-78.74327z"/><path d="m-556.21186-32.868983c-13.2297-8.590182-30.97126.979579-43.8186-1.356349-13.61206-2.486628-26.38293-9.720461-15.9827-27.805035 7.41781 11.83033 17.28273 13.186668 34.7184 13.337378 12.61793.1507 25.23585 1.959158 33.80074 8.816232-.76472 2.486628-4.51186 6.103545-8.71784 7.007774z"/><path d="m-616.01316-58.79022c-6.42367 11.001461 2.44711 18.687404 14.14737 21.927561 11.62378 3.240147 18.65923-1.205639 33.49485-1.280999 5.88836 0 12.15908 1.280999 13.91795 2.712687 3.36477-1.280989 5.20011-3.993676 4.89422-4.295086-3.82361-2.938747-11.92967-4.822556-15.90623-5.651425-14.6062-3.014097-17.74156-.602819-28.83004-1.582408-14.6062-1.205639-17.20626-4.973256-21.71812-11.83033z" fill="#e9cc0c"/><path d="m-496.10466 37.585524-2.75301-2.637337c0 .452109 10.32376-8.966943 13.38264-10.097221 6.42368-2.260579 12.46498-1.05494 17.51216-.30141 11.62377 1.808458 26.38292 6.329604 35.40665-2.938748 18.81217-19.2902122 6.72956-48.225547.99414-59.980516-2.06475 5.802135-3.97656 12.131739-6.27072 14.693717-3.67067 4.144386-7.11193 8.138063-14.14738 9.192992 2.52359-4.897906 4.05304-13.488078 4.05304-20.119092 0-8.364123.22942-13.638788-3.21184-20.420502-4.43539-9.042292-17.43568-23.359249-19.34748-33.531826-.68825-3.692268-.07647-8.364118 1.3765-11.453571 13.38265-28.03109 54.2953-5.72678 68.13678-5.65143 19.271.22606 30.35948-31.04519 54.06588-14.16625-8.02959-.37676-16.05917 8.81623-19.80631 13.78949-5.20011 6.781718-9.86492 11.152158-17.20626 14.693722 9.63551 4.671849 19.19454 13.638785 26.22999 20.571209 4.28244 4.219736 11.08847 10.021871 17.66509 11.981029 6.57661 1.959169 8.7943 1.431699 15.1415-.30141 5.73542 13.186679-8.33547 29.914914-18.96512 30.517733-15.1415.979579-26.30645-8.138063-35.48312-13.864847 11.54731 14.618366 32.5007 49.9586551 52.38349 38.2036755 6.42368 14.3923075-7.80017 31.7233615-19.72984 29.3874435-16.13565-3.240157-28.21826-15.5225957-29.28888-17.6324639 4.89423 11.0014499 20.11221 37.5254959 33.1125 47.1706079 5.73541 4.219736 12.15909 1.054929 17.0533-1.356349 4.51187 13.412738-3.36478 27.729695-14.22383 33.004361-7.11193 3.390856-17.43567 1.054939-24.24171-5.500725l-17.97098-17.255705c8.33547 15.221186 17.74157 32.401541 38.46554 54.329089 4.66481 4.97326 14.75915 3.0141 17.05332 2.33593 3.21183 23.35925-26.61235 34.73746-39.99499 23.96207-13.30617-10.70005-31.35362-34.28535-39.61263-50.109356 10.40023 25.318406 29.51829 57.795296 52.00114 79.346086 3.2883 3.1648 20.26515 15.14584 28.29472 2.18522 5.20012 17.70781-13.00028 32.85365-27.98883 32.85365-24.08877 0-44.73627-22.98249-56.13064-41.29312-9.86492-15.82401-40.07146-71.961557-41.67738-80.25032 3.2883 13.035968 13.2297 89.06655 37.70082 97.43067-3.59419 8.96693-27.37706 8.43947-35.48313 4.67185-22.94167-10.70004-36.70668-56.51431-38.54201-79.79821l1.30003-6.10354c2.2177 17.78317 7.64723 36.62127 14.68268 53.1988 4.28244 10.32328 14.75913 24.56489 22.94167 28.1818 11.31789 5.04862 18.58275 4.67186 28.83004.90423-17.66509-15.14583-27.60648-60.96009-32.50071-85.977101-1.83533-9.419052-2.753-15.974706-7.11192-25.845877-.61178-1.431699 1.83533-2.863387 3.21184-1.205639.99414 1.280989 2.29417 2.335928 2.98241 3.767627 13.68854 28.25715 26.4594 55.68543 42.67152 81.68201 9.32961 14.91978 29.82418 46.19103 53.98941 47.69807 11.08847.67818 24.01229-8.81623 28.14179-21.24938-23.17109 5.27468-37.4714-17.25569-52.00113-36.99802-6.3472-8.66554-18.58276-31.57267-22.55932-40.2382-6.11778-13.638786-12.77087-27.051514-20.57104-39.484663-.76472-1.130278 1.75887-2.938737 2.75301-1.959158 3.36478 3.390857 10.32376 15.974706 12.54145 19.516273 6.0413 9.720461 25.00642 40.464248 39.07732 53.198798 8.33547 7.6106 37.24198 10.32328 40.91266-14.61836-19.11807 6.10354-26.38293-13.18667-37.4714-27.880398-8.79431-11.679619-18.65924-30.668433-26.68882-43.779751-.91768-5.952834-.07647-7.158473.99414-6.329604 2.60005 2.034518 8.10605 10.62469 10.47669 13.488088 7.03545 8.514822 14.91209 15.974705 23.09463 22.45502 8.87078 4.445786 13.765 3.842966 22.024-2.637338 6.50014-5.123965 7.87665-12.885258 8.48842-20.721911-18.12393 6.103544-22.02401-5.576086-32.11834-17.255705-5.42953-6.254255-18.58276-28.181805-19.5769-37.5255066 4.1295-1.2809888 19.04159 19.4409226 35.5596 18.5367036 10.09434-.527469 16.13564-15.2965464 15.52387-22.07826022-3.36478 1.50704862-9.17668 3.24015722-14.22385.75351915-9.78845-4.97325543-15.29445-11.37820993-24.39465-22.15360993-3.59419-4.219726-24.70054-31.874062-29.21239-37.374797-.68826-.753519 1.52944-.678169 2.52358-.527459 3.2883.602819 8.5649 10.323281 23.40051 19.064153 8.87078 5.802145 17.97098 11.30287 28.83003 7.535243 7.1884-2.486628 14.45326-9.042292 14.68268-22.68107-26.84176 9.569752-42.36563-33.004361-69.05445-34.436057-.91766-.075352-.91766-1.657753.07648-1.733106 7.87664-.452114 13.45911-.904229 21.94753-11.754974 3.97656-5.12397 11.54732-15.89936 20.49457-17.33106-21.41223-4.82255-28.52415 17.55712-46.5716 17.70782-10.55318.07535-13.38265-2.93874-22.17695-4.82255-9.86492-2.10987-23.24757-4.67185-33.34191-1.4317-3.36478 1.05493-9.63551 6.93242-11.24142 10.398633-1.3765 2.863391-1.60592 8.138061-.76473 11.52892 3.97657 9.268344 11.01202 18.838106 16.13565 26.599399 3.21184 4.822556 4.89423 11.00145 5.35306 15.899366.84119 9.268341.84119 18.009224-2.29417 26.674746 4.35892-2.561978 8.25901-5.877485 10.7826-10.549331 1.9118-3.390867 4.89421-10.247931 4.58832-15.145836 12.84735 2.938737 20.34162 51.6164039 4.81776 66.61153-8.71784 8.439473-24.31818 9.117642-33.34191 6.631014-5.96483-1.582398-24.77701-5.048615-34.56545 8.138063z"/><path d="m-574.10636-94.356555h63.0896l.07648 2.260573-63.47197-.075353z"/></g><path d="m-541.29977-101.28898h29.51829" fill="none" stroke="#000" stroke-linecap="round" stroke-width="2.125488"/><path d="m-511.705-92.698801-4.43539.226056c7.03545 2.335925 12.15908 11.981035 17.20626 17.33106 2.75299 2.938737 6.34719 7.309183 9.17666 10.47398 2.29417 2.637338 9.55904 4.521146 12.92382 4.747206-1.75887 2.637328-7.34135 2.938737-12.46498 1.280989-12.15909-4.069026-10.17081-8.364123-15.4474-10.549341-2.06475-.828879-3.74714 0-2.67653 1.205639 10.09434 11.30286 18.04745 18.235284 17.51214 32.100132-.30588 8.364112-4.05302 18.762753-6.42366 25.770527-9.02373 26.373336-17.05332 34.285339-1.45298 49.129766 15.06504 14.241607 17.35921 24.790948 13.68854 45.211449-2.52359 14.316958-7.03544 28.935328-10.01787 41.669888-3.21183 13.63878-9.78844 32.17548-13.45912 45.21144 4.51187 4.52115 8.71784 10.09723 13.30618 14.61837 7.11192 7.00778 13.45911 10.62469 22.17695 16.57754 9.55904 6.4803 25.0829 5.57607 34.1831 5.19931-5.58247 5.35002-18.96512 12.5085-32.65365 15.44725 5.73542 11.98103 5.73542 22.53037 4.43539 36.69662-.76472 7.7613-5.58248 18.53669-7.03545 24.86629-.84119-14.61836-26.07703-38.88184-37.4714-52.21922-3.74715-4.37044-6.80603-11.00145-8.48842-13.86484-.53531-.82888-1.91181-.82888-1.75887-.07535.99414 8.74087 17.89451 28.48321 24.08877 33.68252 9.55903 7.91201 22.10048 29.99027 23.47698 38.73115 2.29416-8.96694 10.70611-22.53037 10.70611-35.56634 0-11.37822.5353-21.7015-4.05302-30.51773 11.24141-1.35634 26.53587-11.37821 35.02428-20.34515-29.82417.97958-33.80074-2.26057-46.5716-10.54934-9.71197-6.3296-18.58275-17.2557-25.77115-24.26347 6.72956-18.15994 9.55903-29.99027 14.07089-48.52696 1.52945-6.0282 8.5649-31.195903 9.17668-34.05929 1.98827-9.419052 2.52358-26.448696-1.83533-35.717048-8.02959-17.180345-22.94169-18.838103-20.03573-33.90858 1.45296-7.6859427 10.70611-30.442372 13.91794-41.820592 5.506-19.290213.45884-25.469118-7.34133-34.812809 3.97655 2.260568 9.94139 3.842966 14.37678 3.842966 4.20597 0 10.85906-4.822556 11.92967-8.138052-12.69439 2.109857-16.44153-.75353-25.23584-12.809919-3.28831-4.445786-12.54145-15.221183-16.74742-16.276117z" fill-rule="evenodd"/><path d="m-569.51803-73.408587c1.22356 3.692267 7.26487 7.761303 12.61792 9.569762 5.42953 1.808458 12.6944 2.788037 18.27687 6.178894 10.09434 6.178895 4.89423 22.90714-3.59419 29.688854-6.04131 4.747195-22.40637 6.480304-34.25957 12.508499-.61178.301409-1.3765-1.054929-1.52945-1.507049-.61178-1.657749 3.82361-7.459894 5.12364-9.117642 6.88251-8.138063 25.84762-6.706364 25.77115-16.803585-.07647-7.535243-21.10634-7.836653-25.31231-11.830329-6.04131-5.726785-14.52973-12.508499-16.13565-2.034519-3.67067-6.857063-4.51186-6.329604-5.81189-9.343701-2.44711-5.350015-2.06475-9.871161-.38236-13.035969 2.14122-4.144376 5.73542-4.822545 10.55317-5.576074 2.06475-4.144383 6.3472-6.85707 10.17081-7.309184 3.59419-.452115 8.10606 2.561983 9.25314 6.25425.99414 3.466211.91767 7.685947-4.74128 12.357793z" fill-rule="evenodd"/><path d="m-576.17111-75.819865c13.15322 1.657759 12.3885-13.412726 2.06475-13.412726-4.66481 0-6.42367 4.370441-7.87665 7.309182-3.21183.15071-11.92967-.527459-11.62378 8.966942.15295 3.390857 2.60006 8.288762 4.1295 9.946521 6.42367-7.535243 13.68854 3.842966 19.34748 6.631004 2.753 1.356349 8.02959 2.486638 13.30618 3.692267 8.33547 1.808458 15.44739 6.781724 8.79431 15.824016-4.35892 5.877484-20.72399 4.445786-25.84763 14.693717-3.05889 6.178894.91767 2.712687 5.88837 1.280988 17.58862-5.048605 33.03601-9.343701 32.34776-26.900805-.38236-10.323281-22.8652-13.337379-27.22412-16.276126-2.98242-2.034518-13.45912-10.323281-13.30617-11.75498z" fill="#e9cc0c" fill-rule="evenodd"/><path d="m-543.1351-81.16988-11.47084-1.205639-9.48256-.527469c-1.52944 4.897905-1.98828 13.262028 3.67067 15.824006 3.67067 1.657758 10.85906 1.883808 13.84148-1.883809 2.52358-3.315507 3.13536-7.987352 3.44125-12.207089z" fill-rule="evenodd"/><path d="m-545.3528-81.09453-9.02372-1.356338-7.80017-.30141c-.07647 4.144376-2.98242 12.885258 5.04717 14.467657 10.85906 2.109868 12.08261-8.288763 11.77672-12.809909z" fill="#fff" fill-rule="evenodd"/><path d="m-551.16469-81.39594-3.2883-1.054928-2.29417-.075361c-1.91181 1.582399-2.98242 5.123966-2.37064 7.158484.61178 1.808458 2.29417 3.541557 4.58833 3.466207 2.82948-.1507 4.66481-3.842966 4.12951-3.541557-5.8119 3.466207-8.64137-5.726785-.76473-5.952845z" fill-rule="evenodd"/><path d="m-564.54733-83.279748c10.55317.07535 20.26515 1.507049 32.04188 1.959158.22941.45212.07647.75353-.61179.904229-3.05889.60282-13.765 0-15.1415-.150699-3.13536-.45212-13.30617-.904229-16.51801-1.205639-.45883-.07535.15295-1.356349.22942-1.507049z" fill-rule="evenodd"/><path d="m-552.31177-24.65557-4.66481 1.733098c16.51801 5.123965 2.98242 36.169158-12.77087 29.6888536-9.6355-4.0690262-35.33018-15.9747055-35.10076 8.1380624 4.9707-2.863387 8.48842-3.541567 10.93553-2.788037 3.51773 1.130279 10.62965 7.535243 13.2297 10.021871 3.97656 3.918327 17.20626 5.274665 17.20626 3.993676 0-.226059 0-.678169-.30589-.753529-5.58247-.527459-8.259-1.130279-11.70025-2.712688-5.35306-2.411267-10.24729-12.508498-20.26515-12.8852581-2.44711-.0753498-4.1295.3767601-7.80017 2.7126881 3.82361-19.290213 28.75357-2.034519 38.00671-1.733109 11.31789.37677 18.04745-11.22751 19.27101-21.023321.61177-4.973256-2.06475-12.207089-6.04131-14.392307z" fill-rule="evenodd"/><path d="m-569.67097 25.378425-4.58834-1.356339c-10.24728 8.439473-22.25342 15.447247-27.53001 28.483215-4.74128 11.981029-5.20011 31.497302-.45883 46.793848 5.12364 16.954291 13.91795 38.731131 19.04159 54.781201 6.57661 20.49585-10.62965 36.99804-25.0829 45.66356-15.90623 9.49441-21.10634 5.72678-36.32432 5.72678 4.35892 8.66554 21.18281 16.35148 31.1242 16.50218-3.21183 6.55566-5.88836 29.68885-4.81775 37.67621.76473 6.25425 5.81189 25.24306 7.87665 31.34661 5.35305-14.31697 12.84733-23.2839 23.70639-33.90859 7.49428-7.00778 14.30032-16.05007 20.64751-23.58531 1.22356-1.35634 12.84734-16.87894 7.7237-16.87894-6.27072 11.52892-8.02959 13.63879-17.58862 24.26348-2.21769 2.48663-7.41781 8.89158-12.61792 14.24161-4.20597 4.37044-8.56489 7.83664-10.4767 9.72046-4.51186 4.5965-9.78845 16.05006-11.08848 19.21486-1.60591-8.43947-5.506-21.24938-5.506-32.32619 0-10.9261 3.05889-22.83178 4.9707-31.87406-9.02373 0-21.87107-6.10355-27.91237-11.30287 28.14179 3.39086 37.4714-7.83664 54.06588-26.22264 13.61206-15.07048-.61178-46.34173-6.27073-57.79529-2.90594-7.08314-6.80603-18.83811-8.71783-25.619831-2.44711-8.740872-3.36478-20.194442-2.44711-29.990253 2.21769-22.53037 18.35334-36.470567 32.27129-43.553701z" fill-rule="evenodd"/><path d="m-577.3182 245.25677 1.91181-3.31551c5.12364 20.49586 22.63578 42.87552 24.70054 60.43264.91766 10.24793 2.52358 17.55711-3.05889 26.90081-3.36478 5.65143-13.53559 8.59018-19.88279 8.28877-13.68853-.60282-21.94754-10.54934-20.72398-21.17403.30589-3.1648 2.60006-5.42538 2.60006-7.83666-7.41781 0-17.97098 1.73311-21.56518 9.04229-1.91181 3.91833-2.29417 8.13807-1.45297 12.58386.91766 4.21973 2.67653 9.04228 4.35892 12.88526-3.67067-2.03452-35.33019-18.31063-38.38908-19.51627-36.24785-14.61837-53.75999-.97958-65.84261 10.85074-6.19425 6.10355-19.88278 26.298-5.35305 47.47203-3.51773-18.386 8.41194-26.52406 22.55931-27.05152 19.19454-.67818 34.64193 14.54302 48.48341 25.61982 7.49428 6.02819 15.14151 12.20709 24.16523 16.20076 16.97684 7.53525 46.11277 1.95917 59.266-10.54933 7.18839-6.78172 16.21212-24.56489 18.50628-26.67475 4.12951 1.8838 2.52359 11.22751.38237 16.27611-2.29417 5.72679-4.20598 11.22751-8.48843 16.87895-2.37063 3.08944-8.02958 6.40495-5.35305 6.02819 4.58833-.60282 8.87078-.67817 13.45911-.37676 2.29417.07535 2.98242 5.04861 8.33548 10.09722 1.07061-2.33592 2.60006-4.97326 3.36478-7.45989 1.68239-6.0282 15.06504-.90423 19.27101-.75352-7.95312-3.46622-19.5769-32.47689-16.36506-38.95719.45883-1.05494 1.14707-.90423 1.9118-.07536 17.12978 19.13951 31.81246 33.45647 59.87777 34.43605 12.54146.37676 26.91824-4.52114 32.42424-8.59018 11.24142-8.28876 19.19454-14.61836 27.68296-22.75643 12.00614-11.60427 46.49513-22.1536 54.14236 11.52892 7.49428-44.0058-27.14766-58.02136-43.43624-58.47347-24.85349-.75353-34.18311 7.15848-42.82447 12.65921-12.38851 7.98736-17.89451 13.56343-33.3419 11.00145 3.28831-1.5824 9.55903-6.40495 10.40023-10.62469.99414-4.59649.76472-10.7754-2.67653-14.16625-5.96484-5.87749-10.85906-7.38454-19.27101-7.15848 7.72369 7.98735 4.35891 20.04374-4.1295 23.28389-13.45912 5.04862-22.48285 1.4317-30.58891-9.19299-9.02373-11.83033 3.51773-39.86143 7.7237-50.41077 5.27659-12.96061 7.64723-18.8381 6.3472-35.03886l3.51773 5.80213c0 25.24306-19.27101 45.21145-17.51216 69.92704.68826 9.56976 14.0709 20.11909 24.70054 17.55711 4.43539-.97958 11.77674-4.7472 12.23556-10.62469.38237-5.19931-5.81189-12.28245-5.81189-12.73456 11.54731-3.61691 22.55932-.67817 27.45355 9.0423 3.44125 6.85706.5353 16.20076-5.04718 22.98247 10.62965 0 20.95341-12.50849 30.20654-16.80358 13.45912-6.3296 24.24171-9.3437 39.91852-8.66552 16.28859 0 40.45382 15.52259 43.58918 28.10644 4.89423 19.66698 1.45298 29.01068-2.21769 47.24597.61178-8.59018-.15294-13.86485-3.97655-20.94797-10.85906-20.19445-37.85377-11.37822-50.70111 1.20564-3.44126 3.31549-22.40638 17.93387-26.38293 20.49585-8.79431 5.65143-20.49457 8.81623-31.12421 8.81623-30.43596 0-41.67738-15.07049-60.03071-33.07971 1.22355 10.70004 5.12363 22.30432 14.6062 32.85365.5353.67817 1.45296 3.69227.5353 3.46622-9.17667-2.41128-14.14736-2.41128-17.58862-1.95917-3.82361.52747-.30589 2.93875-7.26486 11.60427-6.72956-6.17889-6.57662-8.89158-7.34134-10.24792-1.45297-2.71269-8.48842-2.18523-12.31203-1.50705-3.21184.52746-9.6355.22605-7.49428-.82888 2.29417-1.05493 6.27072-5.27466 8.18253-7.15848 3.74714-3.61691 15.21798-21.55078 10.40023-28.25716-7.03545 11.67963-15.06504 32.7783-41.9068 37.07339-12.54145 2.03452-24.2417 2.63734-33.41838-.60282-31.27715-11.00145-39.61262-40.53959-72.87805-42.87552-29.51829-2.03451-21.94754 25.92124-18.96512 35.94311-21.25929-19.21488-18.04745-50.93824 7.87664-70.30381 30.20654-22.60572 69.58975 2.10987 91.46082 14.09091-1.60592-8.28878-4.58834-17.25571 3.2883-25.16771 6.04131-6.0282 25.61821-7.912 24.08876-4.82256-2.29416 4.89791-4.74128 13.33738-2.06475 17.48176 2.29417 3.61691 11.92967 9.56976 17.97098 9.72046 24.92996.75353 20.18868-26.90081 15.37093-40.31353-6.11779-16.72824-17.6651-34.58676-20.49457-48.82837z" fill-rule="evenodd"/><path d="m-622.89566 219.63695-2.90595-1.65776c-13.61206 9.64511-45.34805 33.68253-58.27186 13.41273-5.81189-8.96693-6.11778-18.53669-19.271-18.08457-13.2297.37676-15.67682 13.71413-14.14737 24.41418 2.14122.07536 5.27659-2.26057 6.27072-4.7472.38236 2.63733 1.83534 7.30918 5.50601 8.74087 2.67652 1.05494 5.506-2.03451 7.87664-1.95916.91767 2.71269 5.20011 7.83666 11.62378 8.13807 3.51772.22606 7.80017-.52747 10.70612-2.56199-6.11778.82888-11.92968 3.24016-18.12393-2.86339-2.60005-2.56199-2.29416-2.93875-1.68239-6.70636-2.90594 2.03452-8.56489 4.14437-9.32961 3.76761-2.06475-.97958-5.65895-3.99367-4.1295-8.74088.61177-2.03451 10.32375-4.8979 3.90008-12.05638 2.98242 6.55566-8.94725 10.09722-10.24728 15.89936-1.45297-2.03452-.76472-8.96693 2.67653-13.56344 1.60591-2.26057 4.35892-3.61691 6.80603-4.21973 9.78845-2.33592 13.2297 7.45989 18.58276 15.97471 3.74714 5.95284 8.79431 9.94652 15.06503 9.87117 17.12978-.15071 36.78315-14.46767 49.09519-23.05784z" fill-rule="evenodd"/><path d="m-696.3855 260.93007c3.44125-.75352 5.65895-2.56198 8.79431-3.61691-3.74714 1.65775-13.07676 2.63733-16.21212 2.33592-5.65894-.52746-17.43567-1.50705-17.05331-6.63101.22942-3.0141-2.37064-5.19931-5.35306-5.19931 4.66481 2.33591 2.67653 8.43946.45884 11.98103-2.2177 3.54156-7.80017 2.93874-10.93554 1.35633-9.86491-4.82254 5.65895-17.93387-6.95897-18.53669 3.97656 2.71269 2.06475 7.68595 1.68238 9.04229-.61177 2.56199-4.20597 8.21342-6.72955 10.32328-3.28831-3.16479-3.28831-24.64023 12.08262-25.99657 6.95897-.60282 29.67123 10.32328 35.86548 11.98103 2.44712.67817 4.74128 1.05493 6.72956 1.28098 8.02959.97958 13.00028-1.65774 15.9827-2.78803-5.04717.97958-11.08847.82888-17.43567-.45211-7.18839-1.4317-14.37679-5.04862-19.34748-7.30919-13.07676-6.02819-18.88865-6.40496-20.03573-6.3296-8.18254-.37677-16.36506 7.912-17.58862 14.69372-.91766 4.82255-2.90595 16.12541 2.98242 18.91345 1.3765.67818 2.06475 1.4317 3.59419 1.50705-.53531-5.12397 2.60006-8.66552 3.67068-10.02187.84119 3.46621 2.52358 4.82255 4.35891 6.25425 2.90594 2.26057 12.31203 1.65775 16.28859-6.10354 1.68239 1.05493 8.33548 3.3155 14.6062 3.54155 2.98242.15071 8.10606.30141 10.55317-.22605z" fill-rule="evenodd"/><path d="m-732.25099 300.41474c-1.52944-1.4317.91767-7.98736 2.44712-7.15848 1.83533 2.48662 4.1295 4.37043 7.4178 4.37043 6.72956 0 12.31204-3.08945 11.92968-10.24792 0-1.13029-.53531-2.71269.68825-3.76763 3.90008-2.41127 20.87692-8.51482 23.85934-9.26834 5.73542-1.4317 13.45912-5.57608 17.58862 1.95916-1.68239 5.8775-.07647 12.28245 4.97069 14.54302 4.89423 2.26058 9.25315-.37676 11.16495-1.28099 1.98828 1.50705 1.30003 12.58385 1.22356 13.71414 3.74714-.45211 6.8825-2.71269 8.64137-4.37044 8.7943-8.36412 6.65308-16.57753 5.04716-22.83178-.91766-3.39087-5.20011-6.48031-7.87664-9.11764-2.67653-2.63734-4.89422-3.46622-6.8825-4.97327-3.5942-2.63733 8.79431-9.11764 10.4767-10.09722 10.24728-5.50072 11.92967-9.41905 24.70054-5.95284l.38236-6.48031c-2.06475 6.63102-9.02373 2.03452-13.99443 3.99368-4.28244 1.65776-24.85348 13.63879-24.62406 17.33105.22941 3.99368 12.54145 11.52892 14.37678 16.50218 2.60006 7.00778 2.06475 14.46767-3.90008 19.96839-1.60592 1.50705-3.67067 3.08945-4.35892 3.0141.38236-4.06903.5353-5.42538 0-8.36411-.38236-2.56199-1.60592-3.39087-1.52945-5.19933 0-2.56198 1.75887-4.67184 3.21184-6.93241-4.1295 1.50705-3.97656 3.69226-5.58248 6.4803-1.68239 2.93875-3.13536 3.1648-5.88836 3.1648-4.43539 0-10.01787-6.48031-6.95897-11.0768 1.68239-2.56198 4.74127-5.95285 4.74127-8.59017-.76472 1.05493-4.1295 5.80213-8.259 1.7331-2.753-2.71269-4.1295-4.06903-9.1002-2.56198-8.94725 2.63734-20.34162 6.78171-28.90651 10.54934-6.8825 3.08945-5.65895-5.27468-11.47084-3.16481 2.98242.90423 5.20012 4.21974 5.73542 5.35003 1.3765 2.71268.30589 8.13806-1.83533 10.32328-2.60006 2.48662-9.86492 3.4662-12.00615.22606-1.45297-2.33593-1.75886-4.82256-1.60591-8.13807.22941-4.37044-1.98828-8.43947-6.88251-7.30918 3.36478 1.65775 4.43539 3.76762 4.43539 7.53524 0 4.06903-2.21769 8.66553-3.44125 11.52891-5.35305-3.4662-6.27072-12.05638-6.27072-15.52259 0-5.12396 4.66481-11.83033 10.78259-11.60427 8.33547.37676 13.45911-1.20564 21.10634-2.63733 4.05303-.75353 14.91209-4.82256 18.42981-7.68595-4.89422 1.4317-22.8652 7.00777-28.21826 7.38454-10.78259.82887-18.50629-.07536-22.10048 6.85706-2.14123 4.06903-3.44126 11.37822-1.68239 16.20077 1.22356 3.24016 5.27658 11.00146 10.01786 11.60428z" fill-rule="evenodd"/></g></g><g fill-rule="evenodd" transform="translate(872.52491 -159.98046)"><path d="m27.475052 759.98075h900.000038v599.99995h-900.000038z" fill="#0a0a64"/><path d="m480.97156 1279.9711-30.8774-146.8414-125.7034 84.8802 81.999-125.6662-148.9051-28.8665 146.8415-30.8773-84.8802-125.70343 125.6662 81.9989 28.8664-148.905 30.8774 146.8414 125.7034-84.8801-81.999 125.66613 148.90513 28.8664-146.84153 30.8774 84.8802 125.7034-125.6662-81.9989z" style="opacity:.99;fill:#ffc800;stroke:#000;stroke-width:2.456594;stroke-linecap:round;stroke-linejoin:round"/></g><g fill-rule="evenodd" transform="translate(1126.1914 -222.52826)"><path d="m-226.19145 822.52852h-899.99995v599.99998h899.99995z" fill="#ffc800"/><g stroke="#000" transform="translate(72.226926 97.917245)"><g fill="#0a0a64" stroke-linecap="round" stroke-width="5.079465" transform="matrix(.4292728 0 0 .4286371 -898.53371 530.30605)"><path d="m321.10538 731.9314c.00489 21.23968-17.51398 38.46039-39.12628 38.46039-21.61231 0-39.13118-17.22071-39.12629-38.46039-.00489-21.23968 17.51398-38.46039 39.12629-38.46039 21.6123 0 39.13117 17.22071 39.12628 38.46039z" transform="matrix(.958435 0 0 .97525 9.741368 18.54607)"/><path d="m321.10538 731.9314c.00489 21.23968-17.51398 38.46039-39.12628 38.46039-21.61231 0-39.13118-17.22071-39.12629-38.46039-.00489-21.23968 17.51398-38.46039 39.12629-38.46039 21.6123 0 39.13117 17.22071 39.12628 38.46039z" transform="matrix(.958435 0 0 .97525 86.74137 18.54607)"/><path d="m321.10538 731.9314c.00489 21.23968-17.51398 38.46039-39.12628 38.46039-21.61231 0-39.13118-17.22071-39.12629-38.46039-.00489-21.23968 17.51398-38.46039 39.12629-38.46039 21.6123 0 39.13117 17.22071 39.12628 38.46039z" transform="matrix(.958435 0 0 .97525 162.7414 18.54607)"/><path d="m321.10538 731.9314c.00489 21.23968-17.51398 38.46039-39.12628 38.46039-21.61231 0-39.13118-17.22071-39.12629-38.46039-.00489-21.23968 17.51398-38.46039 39.12629-38.46039 21.6123 0 39.13117 17.22071 39.12628 38.46039z" transform="matrix(.958435 0 0 .97525 48.74137 -46.45393)"/><path d="m321.10538 731.9314c.00489 21.23968-17.51398 38.46039-39.12628 38.46039-21.61231 0-39.13118-17.22071-39.12629-38.46039-.00489-21.23968 17.51398-38.46039 39.12629-38.46039 21.6123 0 39.13117 17.22071 39.12628 38.46039z" transform="matrix(.958435 0 0 .97525 125.7414 -46.45393)"/><path d="m321.10538 731.9314c.00489 21.23968-17.51398 38.46039-39.12628 38.46039-21.61231 0-39.13118-17.22071-39.12629-38.46039-.00489-21.23968 17.51398-38.46039 39.12629-38.46039 21.6123 0 39.13117 17.22071 39.12628 38.46039z" transform="matrix(.958435 0 0 .97525 48.74137 83.54607)"/><path d="m321.10538 731.9314c.00489 21.23968-17.51398 38.46039-39.12628 38.46039-21.61231 0-39.13118-17.22071-39.12629-38.46039-.00489-21.23968 17.51398-38.46039 39.12629-38.46039 21.6123 0 39.13117 17.22071 39.12628 38.46039z" transform="matrix(.958435 0 0 .97525 125.7414 83.54607)"/><path d="m321.10538 731.9314c.00489 21.23968-17.51398 38.46039-39.12628 38.46039-21.61231 0-39.13118-17.22071-39.12629-38.46039-.00489-21.23968 17.51398-38.46039 39.12629-38.46039 21.6123 0 39.13117 17.22071 39.12628 38.46039z" transform="matrix(.958435 0 0 .97525 86.74137 148.5461)"/></g><path d="m-740.13207 786.78625c-3.00491-1.28591-28.76127-12.25589-28.76127-12.25589l9.01472 11.82724-39.06381-8.57273 15.02454 11.79999-33.054-1.08407 24.89782 15.43094-14.166 13.28775 37.34673-9.43002-.85855 13.91166 18.888-21.19848 1.71709 13.28774 16.48532-10.71593 14.42232 26.14686 13.52007-9.85865 15.88092 12.17405-.63972-17.3177 25.32708 9.85865-6.43908-17.57411 17.17091-5.14365-80.0466-10.97214 13.50933-16.03199-8.15618-4.71501z" fill="#249842" stroke-linejoin="round" stroke-width="2.106535"/><g fill="none" stroke-width="2.946514" transform="matrix(.4292728 0 0 .4286371 -898.10444 528.5915)"><g stroke-linecap="round"><path d="m220.26022 669.36218 65.73978-34s10.75-3.25 25.17899-6.75 42.65204-8.07014 57.368-9.07014l-21.16272 42.94958"/><path d="m285.02343 635.65944-85.5485-25.13177"/><path d="m239.98578 586.32981 83.26615 39.65833"/><path d="m563.42422 638.72908-103.60843-4.96637-61.22735-8.40053"/><path d="m460.2243 634.37651c7.42805 3 77.53255 38.15319 77.53255 38.15319"/><path d="m458.90648 634.4557 26.16126 68.3093"/><path d="m429.46838 629.8593-10.2957 68.69059"/></g><path d="m300 680.36218 13.84786-51.81852"/><path d="m306 576.85912 64.34725 41.45143 14.05788 5.22029" stroke-linecap="round"/></g><g stroke-width="4.094323"><path d="m-614.33238 820.72246-20.57596-11.48239c-46.07914 80.01782-242.07168 455.20543-242.07168 455.20543l12.541 6.2307z"/><path d="m-588.128 942.71816c-5.49535-12.78208-14.85753-29.20216-24.70507-43.32899-6.95873-9.98279-7.98464-12.20881-6.74614-14.63883 1.86414-3.65789 2.48356-10.88663-4.13715-12.93341-4.50552-1.39285-8.4407.16479-12.42182 6.75777-1.94525 3.22146-3.82268 6.07694-4.10252 5.93432l-31.33539-15.96928 26.37884-51.76141 8.39467 4.27812 20.18946 10.28908 6.78329 3.43004c20.32828 10.26962 54.5521 18.17326 72.29939 16.69684 3.19682-.26599 6.12233.02653 6.50117.65001 1.53734 2.53086-7.05909 29.41563-15.97768 49.96916-4.85523 11.18878-21.17166 38.60863-27.51375 46.23659-7.25482 7.79492-6.80242 7.79576-13.6073-5.61001z" fill="#0a0a64"/><path d="m-882.50436 828.63421 20.576-11.48239c46.07909 80.01783 242.07166 455.20548 242.07166 455.20548l-12.54098 6.2306z"/><path d="m-908.70872 950.62992c5.49531-12.78208 14.85754-29.20217 24.70503-43.329 6.95871-9.98279 7.98467-12.2088 6.74619-14.63883-1.8641-3.65788-2.48354-10.88663 4.13718-12.93341 4.50555-1.39285 8.4406.1648 12.42176 6.75778 1.94521 3.22145 3.82271 6.07693 4.10257 5.93432l31.33536-15.96929-26.37883-51.7614-8.39471 4.2781-20.18939 10.2891-6.78332 3.43003c-20.32828 10.26962-54.55207 18.17325-72.29932 16.69683-3.1969-.26597-6.12243.02655-6.50124.65002-1.53737 2.53086 7.05903 29.41564 15.97766 49.96917 4.85517 11.18877 21.17165 38.60862 27.51371 46.23659 7.25488 7.79492 6.80254 7.79576 13.60735-5.61001z" fill="#0a0a64"/></g><path d="m-942.35598 1028.8634c48.96381 89.6932 192.80042 111.9086 288.45929 117.2432 4.91526-16.4433 21.93706-63.1446 27.06695-77.2163l75.27448 1.1383.18605-41.912z" fill="#0a0a64" stroke-width="4.255257"/></g></g><g transform="translate(-1.6654 121.76288)"><path d="m1801.6654-121.76288h-900.00004v600h900.00004z" fill="#ffc800" fill-rule="evenodd"/><g transform="translate(-332.50636 194.39682)"><path d="m1507.9634-208.69677-.5438 388.36209c5.1652 20.93275 19.77 27.38627 40.7027 27.92997v-447.48346c-21.9191 2.24627-36.416 2.63661-40.1589 31.1914z" fill="#0a0a64" fill-rule="evenodd" stroke="#000" stroke-width="1.913394"/><path d="m1545.8185 149.62176c-16.3197 12.77275-22.3721 38.24665 2.3039 52.97884 0 0 313.3301.45376 312.0504.09611-22.9871-16.39057-22.4577-38.22148-2.9017-53.18188z" fill="#646464" fill-rule="evenodd" stroke="#000" stroke-width="1.275596"/><path d="m1548.2864-149.24081h309.83466v389.4744h-309.83466z" fill="#0a0a64" fill-rule="evenodd" stroke="#000" stroke-width="1.275596" transform="scale(1 -1)"/><path d="m1672.9092-195.13635s10.6902 16.18635 10.6034 34.20192c-.0141 3.01417-.0101 10.19647 0 18.83497-12.8982.02339-23.7694.01441-26.4885-.13952-6.9332-.39244-17.3999-10.60339-17.4-10.60339 0 0-.6796 36.82154 0 46.20049 4.4857-3.94188 9.1019-10.79081 15.7656-11.14153 2.9389-.15467 14.5582-.23489 28.1627-.27904.0293 16.5996.0528 35.087493.0797 54.252699-22.6059.03555-42.6358.029746-47.2766-.139516-10.7598-.392452-27.0069-10.603392-27.0068-10.603392 0 0-1.055 36.841471 0 46.220423 6.9612-3.941885 14.134-10.810765 24.4754-11.161468 4.9915-.169283 26.2008-.239275 49.8479-.279043.0241 29.713407-.0046 54.815321-.1594 61.069161-.3924 15.861836-10.6035 39.802564-10.6034 39.802585 0 0 36.8414 1.555098 46.2205 0-3.942-10.262203-10.7909-20.830438-11.1416-36.075452-.1553-6.751616-.2351-33.5237568-.279-64.816225 25.3068-.011194 48.9035.008447 53.0966.039862 9.0707.06796 22.3628 10.603402 22.3629 10.603391v-45.403234s-10.9791 10.690049-23.1999 10.603392c-5.5116-.037779-28.2247.039447-52.2995.099654-.0144-19.368879-.0058-37.619047 0-54.252697 14.2777-.00291 27.1295.01162 29.558.03986 5.8449.06796 14.4102 10.6034 14.4102 10.6034v-45.38332s-7.0738 10.69006-14.9484 10.60339c-3.1736-.03374-15.4773.02481-28.9998.07973.0089-7.77727.009-17.86684.0199-20.01091.068-13.37181 10.6034-32.96618 10.6034-32.96619z" style="opacity:.99;fill:#ffc800;fill-rule:evenodd;stroke:#000;stroke-width:1.913394;stroke-linejoin:bevel"/><path d="m1547.839 202.37781h313.9379v5.98079h-313.9379z" style="opacity:.99;fill:#0a0a64;fill-rule:evenodd;stroke:#000;stroke-width:.20729;stroke-linejoin:bevel"/><g fill="none" stroke="#fff" stroke-width="1.913394"><path d="m1849.4073 156.16265h-303.3889"/><path d="m1846.1451 162.68715h-303.3889"/><path d="m1842.8829 169.21165h-303.389"/><path d="m1841.7954 176.27985h-303.3889"/><path d="m1843.4266 182.53248h-303.389"/><path d="m1846.1451 189.05698h-303.3889"/><path d="m1851.0385 196.12518h-303.389"/></g></g></g></svg>