<svg height="400" width="600" xmlns="http://www.w3.org/2000/svg"><path d="m0 0h600v400h-600z" fill="#009"/><path d="m197.447 85.183v206.042c0 9.883 9.304 17.807 20.9 17.807h60.753c11.597 0 20.9 7.926 20.9 17.805 0-9.88 9.302-17.805 20.9-17.805h60.753c11.598 0 20.901-7.926 20.901-17.807v-206.042z" fill="#fff" stroke="#dfdf43" stroke-width="3.054"/><path d="m123.966 63.21c-6.418 0-6.527 2.356-12.196 2.356-5.67 0-5.78-2.356-12.197-2.356s-6.528 2.356-12.197 2.356c-5.668 0-5.779-2.356-12.196-2.356h-.001c-6.416 0-6.527 2.356-12.196 2.356s-5.779-2.356-12.196-2.356h-.001c-6.417 0-6.527 2.356-12.196 2.356s-5.779-2.356-12.197-2.356h-.001c-6.417 0-6.527 2.356-12.196 2.356s-5.779-2.356-12.196-2.356m121.966 7.37c-6.418 0-6.527 2.356-12.196 2.356-5.67 0-5.78-2.356-12.197-2.356s-6.528 2.356-12.197 2.356c-5.668 0-5.779-2.356-12.196-2.356h-.001c-6.416 0-6.527 2.356-12.196 2.356s-5.779-2.356-12.196-2.356h-.001c-6.417 0-6.527 2.356-12.196 2.356s-5.779-2.356-12.197-2.356h-.001c-6.417 0-6.527 2.356-12.196 2.356-5.669.001-5.779-2.356-12.196-2.356m121.966 7.37c-6.418 0-6.527 2.356-12.196 2.356-5.67 0-5.78-2.356-12.197-2.356s-6.528 2.356-12.197 2.356c-5.668 0-5.779-2.356-12.196-2.356h-.001c-6.416 0-6.527 2.356-12.196 2.356s-5.779-2.356-12.196-2.356h-.001c-6.417 0-6.527 2.356-12.196 2.356s-5.779-2.356-12.197-2.356h-.001c-6.417 0-6.527 2.356-12.196 2.356-5.669.001-5.779-2.356-12.196-2.356m121.966 7.37c-6.418 0-6.527 2.356-12.196 2.356-5.67 0-5.78-2.356-12.197-2.356s-6.528 2.356-12.197 2.356c-5.668 0-5.779-2.356-12.196-2.356h-.001c-6.416 0-6.527 2.356-12.196 2.356s-5.779-2.356-12.196-2.356h-.001c-6.417 0-6.527 2.356-12.196 2.356s-5.779-2.356-12.197-2.356h-.001c-6.417 0-6.527 2.356-12.196 2.356-5.669.001-5.779-2.356-12.196-2.356" fill="none" stroke="#0058ff" stroke-width="4.7" transform="matrix(1.65453 0 0 2.19378 195.793 28.432)"/></svg>