<svg clip-rule="evenodd" fill-rule="evenodd" stroke-miterlimit="1" viewBox="0 0 426 286" xmlns="http://www.w3.org/2000/svg"><g stroke-width=".5"><path d="m.25.25h425v285h-425z" fill="#0063e7" stroke="#000"/><g stroke="#000"><path d="m200.493 209.572h22.982v4.054h-22.982z" fill="#c8c9ca"/><g fill-rule="nonzero"><path d="m250.924 243.023-6.302-33.087h8.275l6.302 33.087zm-2.829-1.02h-9.161l-3.212-28.377h6.967" fill="#bab8be"/><path d="m250.924 243.023-2.829-1.02-5.406-28.377 1.933-3.69zm-30.312 0-2.22-1.02v-28.377l2.22-3.69" fill="#f2efec"/><path d="m239.05 243.023-3.746-33.087h-14.692v33.087z" fill="#bab8be"/><g><path d="m175.872 242.003h9.161l3.212-28.377h-6.967" fill="#bab8be"/><path d="m173.043 243.023 2.829-1.02 5.406-28.377-1.933-3.69z" fill="#57605f"/><path d="m173.043 243.023 6.302-33.087h-8.275l-6.302 33.087z" fill="#bab8be"/><path d="m203.355 243.023 2.22-1.02v-28.377l-2.22-3.69" fill="#57605f" stroke-miterlimit="4"/><path d="m184.917 243.023 3.746-33.087h14.692v33.087z" fill="#bab8be"/></g></g><path d="m205.575 213.626h12.816v28.378h-12.816z" fill="#c8c9ca" stroke-miterlimit="4"/></g><g fill="none" stroke="#000"><path d="m236.709 222.344h-16.097m16.565 4.136h-16.565m17.033 4.136h-17.033m17.501 4.136h-17.501m17.97 4.135h-17.97m14.176 4.136v-4.136m-10.087 4.136v-4.136m1.216 0v-4.135m6.123 4.135v-4.135m-1.177 0v-4.136m-6.123 4.136v-4.136m1.334 0v-4.136m7.222 0v-4.136m18.733 4.136v-4.136m-1.887 8.272v-4.136m4.82 8.272v-4.136m-2.276 8.271v-4.135m2.355 8.271v-4.136" stroke-miterlimit="4"/><path d="m255.26 222.344h-8.275m9.063 4.136h-8.275m9.063 4.136h-8.275m9.063 4.136h-8.275m9.062 4.135h-8.274"/><path d="m235.772 214.072h-15.16m15.629 4.136h-15.629m6.326 4.136v-4.136m4.984 4.136v-4.136m1.595 0v-4.136m-4.673 4.136v-4.136m2.148 0v-4.136m17.54 4.136v-4.136m2.221 8.272v-4.136m1.609 8.272v-4.136" stroke-miterlimit="4"/><path d="m245.41 214.072h8.275m.787 4.136h-8.274m-7.723 19.741h8.848m-9.306-4.054h8.533m-8.992-4.054h8.22m-8.679-4.054h7.907m-8.366-4.053h7.594m-8.053-4.054h7.281"/><path d="m241.982 242.003v-4.054m1.527 0v-4.054m-3.969 0v-4.054m1.429 0v-4.054m-2.678 0v-4.053m.722 0v-4.054m1.998 0v-4.054" stroke-miterlimit="4"/><path d="m187.258 222.344h16.097m-16.565 4.136h16.565m-17.033 4.136h17.033m-17.501 4.136h17.501m-17.97 4.135h17.97m-14.176 4.136v-4.136m10.088 4.136v-4.136m-1.217 0v-4.135m-6.123 4.135v-4.135m1.177 0v-4.136m6.123 4.136v-4.136m-1.334 0v-4.136m-7.222 0v-4.136m-18.733 4.136v-4.136m1.887 8.272v-4.136m-4.82 8.272v-4.136m2.276 8.271v-4.135m-2.355 8.271v-4.136" stroke-miterlimit="4"/><path d="m168.707 222.344h8.275m-9.063 4.136h8.275m-9.063 4.136h8.275m-9.063 4.136h8.275m-9.062 4.135h8.275"/><path d="m188.195 214.072h15.16m-15.629 4.136h15.629m-6.326 4.136v-4.136m-4.984 4.136v-4.136m-1.595 0v-4.136m4.673 4.136v-4.136m-2.148 0v-4.136m-17.54 4.136v-4.136m-2.221 8.272v-4.136m-1.609 8.272v-4.136" stroke-miterlimit="4"/><path d="m178.557 214.072h-8.275m-.787 4.136h8.274m7.723 19.741h-8.847m9.306-4.054h-8.534m8.992-4.054h-8.22m8.679-4.054h-7.907m8.366-4.053h-7.594m8.053-4.054h-7.281"/><path d="m181.985 242.003v-4.054m-1.527 0v-4.054m3.969 0v-4.054m-1.429 0v-4.054m2.678 0v-4.053m-.722 0v-4.054m-1.998 0v-4.054" stroke-miterlimit="4"/><path d="m205.575 237.949h12.817m-12.817-4.054h12.817m-12.817-4.054h12.817m-12.817-4.054h12.817m-12.817-4.053h12.817m-12.817-4.054h12.817"/><path d="m208.451 242.085v-4.136m6.162 4.136v-4.136m-2.433.082v-4.136m-3.847.082v-4.136m6.398 4.136v-4.136m-3.964.082v-4.136m-2.198.082v-4.135m4.788 4.135v-4.135m-2.59.081v-4.135m4.082 4.135v-4.135m-2.119 0v-4.136m-3.109.164v-4.136m4.894 4.136v-4.136" stroke-miterlimit="4"/></g><g fill="#ffce00" fill-rule="nonzero" stroke="#1b1918" stroke-miterlimit="4"><path d="m211.713 206.522a1.955 1.955 0 0 0 -.971-.084 1.96 1.96 0 0 0 -1.013.506 2.518 2.518 0 0 1 .169-1.941 2.522 2.522 0 0 1 1.688-1.265l2.837 1.346zm18.108-.168c.447-.087.926.006 1.308.253.33.213.586.539.715.91.128.371.13.786.003 1.157a7.584 7.584 0 0 0 .506-2.827c-.006-.49-.062-.986-.238-1.444-.176-.459-.479-.879-.901-1.13a1.803 1.803 0 0 0 -1.149-.234c-.395.053-.77.243-1.046.53l-2.19 2.181zm-6.754 8.186c.506.187.946.55 1.224 1.012.258.428.378.937.338 1.435a2.482 2.482 0 0 0 1.604-1.224 2.487 2.487 0 0 0 .042-2.236l-2.693-1.413zm-11.481-1.14a2.998 2.998 0 0 0 -.76.971 3.008 3.008 0 0 0 -.253 1.856 4.023 4.023 0 0 0 2.786-.843l.564-2.474zm-5.529-4.167c.39.025.77.198 1.044.478.258.262.421.616.453.982.033.367-.066.743-.274 1.047.374-.042.737-.18 1.044-.398.306-.218.556-.516.717-.855.308-.648.281-1.429 0-2.089a3.001 3.001 0 0 0 -1.044-1.283l-2.844-.088zm-3.731 5.371a3.292 3.292 0 0 1 .746 2.178 2.165 2.165 0 0 0 1.552-1.462c.122-.394.129-.816.075-1.225a4.309 4.309 0 0 0 -.374-1.281l-3.03-.819zm-12.237-.06a5.84 5.84 0 0 0 -2.985 1.552 4.334 4.334 0 0 1 1.074-3.461l1.96-.807 1.527.389zm.224-7.6a2.214 2.214 0 0 0 -1.15-.068 2.21 2.21 0 0 0 -1.112.608 2.206 2.206 0 0 0 -.589 1.123 3.672 3.672 0 0 1 .597-3.073 3.668 3.668 0 0 1 2.507-1.438l3.284 1.817z"/><path d="m221.318 191.694c.153 1.296.263 2.596.328 3.899.047.928.071 1.866-.099 2.78-.274 1.475-1.044 2.818-1.97 3.998-.27.343-.555.678-.889.959-.333.282-.718.512-1.141.622-.466.122-.963.095-1.432-.016-.783-.186-1.495-.597-2.268-.819-.363-.104-.746-.166-1.118-.105-.458.075-.88.344-1.143.726.222.269.382.589.465.928a2.352 2.352 0 0 1 -.338 1.856 4.685 4.685 0 0 0 1.73.676 4.725 4.725 0 0 0 2.617-.296 3.32 3.32 0 0 1 -.152 1.662 3.323 3.323 0 0 1 -.945 1.376c-.739.64-1.737.933-2.448 1.604a3.048 3.048 0 0 0 -.929 1.856c.323.094.626.252.887.464.464.379.785.929.886 1.52a8.752 8.752 0 0 0 2.237-1.309c.737-.593 1.373-1.302 1.984-2.025a49.208 49.208 0 0 0 2.279-2.911 177.232 177.232 0 0 1 3.208 5.401 2.925 2.925 0 0 1 1.208-.933 2.933 2.933 0 0 1 2-.08 3.84 3.84 0 0 0 -.645-1.551c-.404-.57-.955-1.019-1.381-1.572a4.503 4.503 0 0 1 -.885-2.09 4.507 4.507 0 0 1 .252-2.256 8.253 8.253 0 0 1 2.533.549c.444.173.875.385 1.334.519.458.133.957.183 1.409.029a1.66 1.66 0 0 0 .929-.801 2.28 2.28 0 0 1 -.971-1.519 2.255 2.255 0 0 1 .169-1.266 2.627 2.627 0 0 0 -1.942-.38c-.415.083-.802.266-1.21.38a2.334 2.334 0 0 1 -.625.097c-.212 0-.425-.041-.613-.139a1.259 1.259 0 0 1 -.454-.419 1.728 1.728 0 0 1 -.237-.575c-.091-.406-.061-.828-.027-1.243.126-1.491.312-2.977.57-4.451a46.703 46.703 0 0 1 1.288-5.423m-15.355-1.845a1053.126 1053.126 0 0 1 -6.178 7.489c-1.56 1.873-3.131 3.745-4.891 5.433-.543.521-1.109 1.028-1.765 1.398-.655.371-1.411.598-2.16.522-.876-.09-1.652-.578-2.469-.908a3.443 3.443 0 0 0 -.779-.228 1.683 1.683 0 0 0 -.804.06 1.364 1.364 0 0 0 -.802.759c.411.277.684.75.717 1.245.023.332-.06.67-.232.955a1.647 1.647 0 0 1 -.738.648c.052.45.326.869.717 1.097.336.197.739.252 1.128.232s.77-.111 1.151-.189a17.854 17.854 0 0 1 1.883-.283 12.695 12.695 0 0 0 -1.671 1.79c-.222.29-.433.59-.684.855-.252.264-.551.494-.898.607a2.203 2.203 0 0 1 -.804.088c-.271-.014-.539-.058-.808-.094a3.997 3.997 0 0 0 -.81-.045 1.681 1.681 0 0 0 -.772.23 1.296 1.296 0 0 0 -.567 1.403c.417-.051.851.057 1.194.298.253.178.456.425.582.707.125.282.172.598.135.904a1.9 1.9 0 0 0 1.372.209c.422-.097.799-.337 1.128-.618.33-.28.62-.604.932-.903.968-.929 2.136-1.616 3.253-2.358.63-.418 1.248-.856 1.851-1.312a6.414 6.414 0 0 1 1.462 2.655c.099.365.166.74.285 1.099s.298.709.581.96c.366.325.899.452 1.373.328.085-.387.272-.75.537-1.044a2.319 2.319 0 0 1 1.462-.746 1.792 1.792 0 0 0 -.179-.925c-.169-.344-.442-.623-.716-.892-.273-.268-.555-.537-.746-.869a2.03 2.03 0 0 1 -.09-1.82c.242-.152.53-.229.815-.219.286.011.567.11.797.279.192.142.344.328.507.501.163.174.345.34.567.424a.936.936 0 0 0 .777-.06c.034-.392.169-.776.388-1.104a2.39 2.39 0 0 1 1.552-1.014 1.112 1.112 0 0 0 -.209-.895 1.267 1.267 0 0 0 -.435-.347 1.793 1.793 0 0 0 -.535-.163c-.37-.056-.746-.022-1.12.003-.399.027-.808.041-1.191-.074a1.473 1.473 0 0 1 -.529-.276 1.08 1.08 0 0 1 -.339-.485c-.085-.257-.056-.54.029-.797.085-.256.223-.491.359-.725 1.113-1.912 2.166-3.868 3.492-5.639a19.655 19.655 0 0 1 3.621-3.719c1.367-1.069 2.888-1.921 4.402-2.77l.185-.104c1.084-.611 2.157-1.24 3.22-1.887l-3.164-5.329-5.369 5.663zm-49.259-58.095a1.977 1.977 0 0 0 -1.766 1.177c-.123.278-.18.58-.281.867a1.821 1.821 0 0 1 -.199.409 1.036 1.036 0 0 1 -.325.314c-.214.124-.47.148-.717.156s-.5.003-.735.079c-.315.102-.565.337-.808.561-.243.225-.501.454-.821.538a1.198 1.198 0 0 1 -.571.003 1.642 1.642 0 0 1 -.525-.23c-.322-.209-.578-.504-.825-.798a42.85 42.85 0 0 1 -1.042-1.29 3.131 3.131 0 0 1 1.844-.785 3.13 3.13 0 0 1 1.649.333 8.357 8.357 0 0 1 3.434-2.178"/><path d="m165.881 137.059a2.223 2.223 0 0 0 1.277 1.388c.48.192 1.015.208 1.528.148.514-.06 1.017-.192 1.525-.287 2.496-.467 5.167-.004 7.327 1.332 1.357.84 2.537 2.062 3.025 3.58.264.82.318 1.693.301 2.554-.016.861-.101 1.72-.107 2.581-.006.961.088 1.922.278 2.863l2.61-1.727c.102.887.244 1.769.427 2.642.174.829.386 1.657.751 2.421.657 1.38 1.787 2.506 2.355 3.925.367.92.487 1.937.961 2.807a3.838 3.838 0 0 0 1.389 1.445l1.304-1.415a23.217 23.217 0 0 1 3.858 5.357 23.223 23.223 0 0 1 2.248 6.522 13.844 13.844 0 0 1 7.706 1.063c1.513.683 2.926 1.667 3.886 3.022.825 1.166 1.283 2.557 1.556 3.96.225 1.155.326 2.381-.084 3.484-.239.643-.642 1.213-1.08 1.741-.252.303-.522.604-.664.972a1.267 1.267 0 0 0 -.087.58.878.878 0 0 0 .241.528 1 1 0 0 0 .331.211c.122.051.249.086.376.121.128.034.255.069.377.121a1 1 0 0 1 .329.214.988.988 0 0 1 .213.36c.046.133.072.271.095.41.046.277.084.567.241.8.148.219.392.364.651.415.259.052.531.014.778-.079.494-.187.876-.581 1.24-.964.485-.509.969-1.02 1.452-1.531a3.322 3.322 0 0 0 -.487 1.653 3.324 3.324 0 0 0 .413 1.673c.282.509.701.94 1.201 1.237.5.296 1.079.457 1.66.461a3.339 3.339 0 0 0 2.386-.997 9.838 9.838 0 0 0 3.164 2.553 9.826 9.826 0 0 0 3.109.972 6.59 6.59 0 0 0 1.138-2.609 6.595 6.595 0 0 0 -.102-2.941 2.167 2.167 0 0 1 1.346.055c.428.162.801.463 1.048.848.201.312.317.67.411 1.028.094.359.169.724.296 1.072.172.472.441.909.785 1.275a6.74 6.74 0 0 0 1.962-3.179c.233-.84.3-1.725.196-2.59l3.023 3.375a5.616 5.616 0 0 0 1.334-4.043c-.094-1.256-.613-2.445-1.252-3.531-.229-.39-.477-.777-.596-1.213a1.707 1.707 0 0 1 -.054-.67c.029-.224.116-.443.262-.615.166-.196.403-.324.653-.38.25-.055.513-.04.762.019a2.217 2.217 0 0 1 1.471 1.193 2.697 2.697 0 0 0 .278-2.47 2.672 2.672 0 0 0 -1.096-1.294 5.375 5.375 0 0 1 2.178-2.841 5.34 5.34 0 0 1 2.165-.805 127.498 127.498 0 0 1 4.163 8.215c.648 1.403 1.274 2.828 1.624 4.333.146.627.244 1.266.455 1.873.21.608.549 1.193 1.076 1.562.392.274.871.413 1.349.428s.956-.091 1.399-.271a4.277 4.277 0 0 0 1.452-.981c.569.953 1.24 1.846 1.997 2.658.62.663 1.303 1.276 2.085 1.738.572.337 1.198.591 1.854.692.656.1 1.344.041 1.953-.221a3.104 3.104 0 0 0 1.464-1.32 3.129 3.129 0 0 0 2.886-.333 4.25 4.25 0 0 0 4.163.222 4.275 4.275 0 0 0 2.026-2.165c.439.205.935.287 1.417.234a2.669 2.669 0 0 0 1.331-.539c.387-.299.688-.708.86-1.166.445.257.958.395 1.471.395.514 0 1.027-.138 1.471-.395a2.971 2.971 0 0 0 1.36-1.748 2.955 2.955 0 0 0 2.165-.722 2.946 2.946 0 0 0 .944-1.693 2.363 2.363 0 0 0 1.51-.314 2.36 2.36 0 0 0 .987-1.184 2.372 2.372 0 0 0 -.027-1.721 3.47 3.47 0 0 0 1.857-.656 3.474 3.474 0 0 0 1.196-1.565c.216-.57.278-1.198.176-1.799a3.47 3.47 0 0 0 -.759-1.642 195.165 195.165 0 0 1 -33.759-17.214 195.078 195.078 0 0 1 -17.054-12.246 19.175 19.175 0 0 0 5.2-.805 6.38 6.38 0 0 0 -.628-3.14 6.373 6.373 0 0 0 -1.912-2.314 8.562 8.562 0 0 1 2.22-.472c1.932-.148 3.866.364 5.801.25.779-.046 1.563-.198 2.258-.555.694-.358 1.293-.936 1.572-1.666a2.678 2.678 0 0 0 -.111-2.137 6.314 6.314 0 0 0 -1.861-.072c-.518.058-1.031.18-1.553.183a3.434 3.434 0 0 1 -1.887-.555 10.433 10.433 0 0 1 2.22-.583c1.082-.158 2.181-.144 3.275-.138 1.683.009 3.418-.011 4.968-.666a6.468 6.468 0 0 0 3.053-2.693 5.276 5.276 0 0 0 -1.36-1.276 5.287 5.287 0 0 0 -2.435-.828 13.879 13.879 0 0 0 3.937-.689c1.083-.357 2.13-.853 3.022-1.564a7.448 7.448 0 0 0 2.387-3.386l-1.638-.777a38.035 38.035 0 0 1 4.052-1.943c.721-.294 1.456-.569 2.114-.985s1.243-.994 1.512-1.724a2.655 2.655 0 0 0 -.078-2.002 8.335 8.335 0 0 0 -2.081-.078c-.591.052-1.176.167-1.766.235a11.21 11.21 0 0 1 -3.729-.196 47.031 47.031 0 0 0 8.439-4.239c1.705-1.083 3.391-2.333 4.382-4.093a7.11 7.11 0 0 0 .888-2.918l-2.588-.563c.278-.722.7-1.388 1.233-1.949.587-.615 1.318-1.12 1.713-1.873a2.592 2.592 0 0 0 -.106-2.59 13.28 13.28 0 0 0 -4.109.68 49.528 49.528 0 0 0 4.985-4.396c1.327-1.339 2.61-2.807 3.218-4.592.182-.534.301-1.097.261-1.659-.04-.563-.251-1.126-.653-1.52a1.922 1.922 0 0 0 -.749-.453 54.468 54.468 0 0 1 -10.594 8.067 41.978 41.978 0 0 0 6.162-7.182c1.072-1.582 2.035-3.234 3.111-4.814.352-.517.718-1.029 1.008-1.584s.505-1.16.532-1.786a3.173 3.173 0 0 0 -1.007-2.435 211.682 211.682 0 0 1 -5.576 4.6 56.804 56.804 0 0 0 4.996-7.271c.865-1.496 1.681-3.102 1.721-4.829a5.74 5.74 0 0 0 -1.18-3.601 8.098 8.098 0 0 0 -1.041.881c-.887.89-1.552 1.97-2.275 2.997a30.26 30.26 0 0 1 -6.717 6.883 773.889 773.889 0 0 0 8.659-12.878c.585-.888 1.171-1.783 1.596-2.759.424-.975.684-2.044.583-3.103a4.79 4.79 0 0 0 -1.477-3.007 302.134 302.134 0 0 0 -9.25 11.145 289.636 289.636 0 0 1 3.719-5.717c.783-1.172 1.577-2.342 2.194-3.609.618-1.266 1.056-2.642 1.081-4.051a7.261 7.261 0 0 0 -1.226-4.151 39.134 39.134 0 0 0 -2.104 2.319c-1.601 1.913-3.016 3.974-4.558 5.934a57.71 57.71 0 0 1 -5.045 5.612 169.11 169.11 0 0 0 6.442-9.809c1.171-1.926 2.305-3.879 3.248-5.926.569-1.235 1.077-2.56.967-3.915a4.498 4.498 0 0 0 -.762-2.161 4.5 4.5 0 0 0 -1.732-1.501 223.99 223.99 0 0 1 -12.902 18.627 196.785 196.785 0 0 1 6.135-12.259c1.365-2.506 2.793-5 3.711-7.702.411-1.211.718-2.466.788-3.743s-.104-2.581-.622-3.75a6.788 6.788 0 0 0 -3.219-3.331 308.783 308.783 0 0 1 -15.154 27.527c-4.442 7.18-9.228 14.237-15.307 20.096-2.999 2.892-6.286 5.465-9.459 8.164-2.627 2.235-5.245 4.646-6.707 7.77-1.205 2.576-1.542 5.482-1.499 8.326.035 2.232.308 4.511 1.298 6.512.648 1.312 1.601 2.478 2.786 3.336.969.702 2.084 1.197 2.994 1.975.538.461 1.008 1.037 1.193 1.721.147.541.108 1.118-.012 1.665-.12.548-.317 1.075-.487 1.61a17.004 17.004 0 0 0 -.783 4.294 10.343 10.343 0 0 1 -3.353-3.489c-.973-1.668-1.455-3.568-2.109-5.385-.171-.474-.355-.946-.609-1.381-.255-.435-.583-.834-1.001-1.117a2.634 2.634 0 0 0 -1.609-.444c.118-.961.164-1.932.138-2.9-.015-.574-.057-1.153-.231-1.7-.173-.547-.489-1.065-.962-1.39a2.051 2.051 0 0 0 -1.818-.24c.052-.797.013-1.599-.116-2.387-.122-.744-.329-1.486-.731-2.123a3.89 3.89 0 0 0 -1.453-1.352 3.88 3.88 0 0 0 -1.932-.452 230.18 230.18 0 0 1 -.565-1.963c-.124-.438-.248-.878-.429-1.296-.181-.417-.423-.815-.755-1.127a2.544 2.544 0 0 0 -2.276-.61 3.318 3.318 0 0 0 -.991-2.632 3.303 3.303 0 0 0 -1.446-.809 3.302 3.302 0 0 0 -1.655.003 8.84 8.84 0 0 0 -1.727-3.552 8.825 8.825 0 0 0 -3.317-2.531l-1.668 3.356a18.813 18.813 0 0 0 -3.65-6.751c-1.998-2.364-4.543-4.192-6.79-6.32-.441-.417-.872-.847-1.35-1.222-.479-.374-1.01-.693-1.594-.858a3.437 3.437 0 0 0 -2.689.373 57.316 57.316 0 0 0 3.258 5.201c.853 1.211 1.752 2.389 2.566 3.627.6.914 1.152 1.858 1.653 2.829a199.929 199.929 0 0 1 -3.987-4.446c-1.597-1.837-3.167-3.709-4.977-5.335-1.742-1.565-3.688-2.884-5.617-4.211-.325-.224-.651-.448-1.005-.622s-.74-.296-1.134-.301a2.021 2.021 0 0 0 -1.43.578 2.022 2.022 0 0 0 -.592 1.424 174.68 174.68 0 0 0 -4.297-2.826c-.414-.263-.83-.525-1.275-.73-.446-.204-.924-.351-1.414-.369a2.838 2.838 0 0 0 -1.609.432l3.497 6.069a29.059 29.059 0 0 0 -5.773-4.995c-1.497-.984-3.083-1.827-4.573-2.822-.796-.532-1.569-1.109-2.432-1.525s-1.841-.665-2.783-.49a3.285 3.285 0 0 0 -1.586.78 65.52 65.52 0 0 0 7.371 7.099 162.576 162.576 0 0 1 -6.988-4.68c-1.392-.985-2.785-2.002-4.357-2.664-1.076-.454-2.276-.735-3.414-.472a3.782 3.782 0 0 0 -1.776.971 288.235 288.235 0 0 0 10.297 10.436 60.569 60.569 0 0 0 -7.855-5.801 70.68 70.68 0 0 0 -6.22-3.417c-.756-.37-1.523-.731-2.339-.934s-1.693-.241-2.489.031a3.4 3.4 0 0 0 -2.119 2.198 265.687 265.687 0 0 0 4.749 3.258c4.659 3.121 9.441 6.111 13.62 9.851 4.594 4.112 8.364 9.043 12.167 13.895 4.577 5.838 9.245 11.608 14.13 17.191 2.592 2.962 5.375 5.965 9.027 7.431 1.833.736 3.821 1.05 5.796 1.036 1.128-.008 2.266-.123 3.34-.472.934-.304 1.82-.783 2.793-.916.734-.1 1.489.005 2.188.251.699.247 1.345.631 1.93 1.085a8.582 8.582 0 0 1 2.401 2.889c1.084 2.146 1.16 4.685.707 7.046-.068.349-.147.699-.294 1.023-.148.324-.37.622-.673.809-.377.232-.845.272-1.283.214-.439-.058-.859-.206-1.285-.328-.701-.2-1.43-.334-2.077-.671a2.716 2.716 0 0 1 -.856-.67 1.83 1.83 0 0 1 -.425-.99c-.037-.42.106-.853.386-1.169.279-.315.691-.51 1.113-.524a2.336 2.336 0 0 0 -1.665-1.332 2.318 2.318 0 0 0 -1.332.139c-.417.177-.78.48-1.027.86a5.332 5.332 0 0 0 -1.847-.717c-1.142-.212-2.315-.044-3.474.039-.337.024-.677.041-1.011-.005-.335-.046-.667-.158-.932-.368a1.464 1.464 0 0 1 -.53-.923 2.194 2.194 0 0 0 1.296-.451c.35-.27.614-.649.746-1.07a2.184 2.184 0 0 0 -.001-1.305 5.074 5.074 0 0 1 -1.393.393c-.819.108-1.65.015-2.473-.059-.635-.057-1.286-.101-1.903.059a2.978 2.978 0 0 0 -1.634 1.104 17.443 17.443 0 0 0 -4.705-.044c-.747.094-1.488.237-2.237.314-1.372.14-2.757.057-4.131.159-.667.05-1.34.145-1.954.409a3.805 3.805 0 0 0 -2.04 2.14"/><path d="m163.106 133.285a5.592 5.592 0 0 0 -2.331.943 5.63 5.63 0 0 0 -2.165 3.053c.88.254 1.822.292 2.72.111.73-.147 1.429-.436 2.164-.555a4.808 4.808 0 0 1 2.387.222 4.122 4.122 0 0 1 1.027-1.554 4.109 4.109 0 0 1 1.721-.971 241.96 241.96 0 0 1 -3.745-2.784c-.52-.394-1.041-.792-1.5-1.256s-.857-1-1.091-1.609c-.304-.79-.324-1.678-.706-2.433a2.819 2.819 0 0 0 -1.57-1.374 5.922 5.922 0 0 0 -4.357.392 5.882 5.882 0 0 0 -2.256 2.045 5.88 5.88 0 0 0 -.923 2.901c.341.248.753.397 1.174.425.421.027.849-.067 1.22-.268.31-.169.575-.407.851-.627.275-.22.572-.428.913-.519a1.517 1.517 0 0 1 1.134.149c.339.195.596.528.698.905a6.201 6.201 0 0 1 2.442.75 6.195 6.195 0 0 1 2.193 2.054z"/></g></g><path d="m207.215 140.592a28.772 28.772 0 0 0 13.107-8.839c2.669-3.2 4.618-6.978 5.786-10.97a32.61 32.61 0 0 0 1.284-9.735 4.342 4.342 0 0 1 -.102-.041 11.219 11.219 0 0 1 -5.43-5.062c-.511-1.017-.857-2.101-1.091-3.193a15.286 15.286 0 0 1 -.352-3.832c.087-3.466 1.476-6.797 3.491-9.566a22.154 22.154 0 0 1 6.596-5.994.146.146 0 0 1 .22.124.145.145 0 0 1 -.07.124 21.817 21.817 0 0 0 -6.379 6.008c-1.934 2.749-3.215 5.997-3.246 9.315.005 1.228.181 2.454.493 3.641.274 1.031.65 2.025 1.164 2.934a10.207 10.207 0 0 0 5.029 4.501c.129.057.26.112.392.163a.541.541 0 0 1 .349.492 33.552 33.552 0 0 1 -1.539 10.366c-1.272 4.074-3.338 7.905-6.124 11.125a29.274 29.274 0 0 1 -13.461 8.811.196.196 0 0 1 -.254-.186c0-.085.056-.161.137-.187zm-25.899-8.685.049.019a18.371 18.371 0 0 1 3.08 2.184c.339.264.666.54.983.826a18.304 18.304 0 0 1 3.993 3.285.19.19 0 0 0 .151.076.19.19 0 0 0 .151-.3 19.248 19.248 0 0 0 -3.419-4.21 18.935 18.935 0 0 0 -1.183-.707 19.06 19.06 0 0 0 -3.686-1.331l-.05-.019a.103.103 0 0 0 -.034-.007.095.095 0 1 0 -.035.184zm-7.453-22.276.01.022a10.13 10.13 0 0 0 3.722 4.476 10.262 10.262 0 0 0 5.674 1.687c1.289.003 2.552-.236 3.758-.469l.541-.141c1.364-.353 2.701-.657 4.034-.605a7.542 7.542 0 0 1 3.732 1.167 7.685 7.685 0 0 1 2.687 2.941.183.183 0 0 0 .332-.157 8.196 8.196 0 0 0 -2.651-3.321 8.33 8.33 0 0 0 -4.03-1.563c-1.488-.159-2.971.084-4.369.347l-.552.105c-1.195.308-2.343.596-3.509.665a9.353 9.353 0 0 1 -5.236-1.308 9.482 9.482 0 0 1 -3.667-4.033l-.009-.021a.255.255 0 0 0 -.466.208zm56.34 47.662a10.85 10.85 0 0 0 1.349 2.494l.072.052a10.8 10.8 0 0 0 2.736 1.444.154.154 0 0 0 .149-.269 10.01 10.01 0 0 1 -2.018-2.154 9.96 9.96 0 0 1 -1.911-1.785.216.216 0 0 0 -.188-.109.22.22 0 0 0 -.189.327zm-2.542 2.692c-.101.036-.2.077-.296.121a3.911 3.911 0 0 0 -2.366 2.157c-.024.051-.046.104-.068.156a3.863 3.863 0 0 0 .751 2.72.31.31 0 1 0 .549-.288c-.205-.729-.102-1.478.206-2.042l.006-.106c.082-.723.52-1.471 1.224-1.944.077-.035.156-.067.236-.096a.36.36 0 0 0 -.242-.678zm-26.458 6.211a10.25 10.25 0 0 0 4.429 3.335c.782.327 1.66.575 2.402.844l.067.025c.767.197 1.497.452 2.113.873a4.244 4.244 0 0 1 1.734 3.297v.001c0 .148.123.27.271.27.147 0 .269-.12.271-.267a4.91 4.91 0 0 0 -1.798-3.925c-.681-.571-1.492-.938-2.287-1.227l-.074-.019c-.868-.221-1.636-.348-2.436-.594a9.605 9.605 0 0 1 -4.286-2.937.262.262 0 0 0 -.203-.098.261.261 0 0 0 -.203.422zm-8.497-12.96.031.038c.346.456.736.882 1.165 1.269a9.15 9.15 0 0 0 1.085.85l.015.161c.124.739.301 1.468.528 2.179a15.8 15.8 0 0 0 2.163 4.503.194.194 0 0 0 .161.087.194.194 0 0 0 .16-.3 15.342 15.342 0 0 1 -1.918-4.446c-.163-.7-.276-1.409-.338-2.121a16.908 16.908 0 0 1 -.048-.313.366.366 0 0 0 -.185-.283 8.45 8.45 0 0 1 -1.255-.765 8.607 8.607 0 0 1 -1.209-1.091.915.915 0 0 1 -.029-.036.212.212 0 0 0 -.162-.076.212.212 0 0 0 -.164.344zm-2.077-3.894a3.183 3.183 0 0 1 -1.233-1.739 3.065 3.065 0 0 1 -.063-1.346 3.167 3.167 0 0 1 1.101-2.248.22.22 0 1 0 -.258-.356c-.6.373-1.101.931-1.413 1.599-.129.286-.223.59-.279.903a3.785 3.785 0 0 0 1.885 3.6.245.245 0 0 0 .26-.413zm62.101-31.411.006-.009a20.471 20.471 0 0 0 3.071-7.718c.423-2.368.424-4.785.272-7.161a55.64 55.64 0 0 0 -.312-2.995 55.3 55.3 0 0 0 -5.261-16.264l-.009-.017a.23.23 0 0 0 -.206-.13.23.23 0 0 0 -.206.328l.008.017a54.47 54.47 0 0 1 4.536 16.224c.141.972.256 1.949.344 2.928.238 2.321.323 4.654.004 6.938a19.766 19.766 0 0 1 -2.723 7.543l-.006.009a.285.285 0 1 0 .481.307zm-13.327-43.319.088.064a4.728 4.728 0 0 0 3.404 1.043 4.73 4.73 0 0 0 2.734-1.918.126.126 0 0 0 .027-.076.121.121 0 0 0 -.215-.076 4.183 4.183 0 0 1 -2.686 1.236 4.183 4.183 0 0 1 -3.106-.434 5.968 5.968 0 0 1 -.083-.06.138.138 0 0 0 -.218.112c0 .043.021.083.055.109zm-17.531 125.186-.022.052c-.323.684-.651 1.365-.985 2.043-.263.533-.522 1.043-.866 1.474a3.541 3.541 0 0 1 -.304.395c-.345.393-.8.699-1.308.872a3.138 3.138 0 0 1 -1.608.106.125.125 0 0 0 -.153.121c0 .056.039.106.094.12a3.459 3.459 0 0 0 1.779.04 3.525 3.525 0 0 0 1.982-1.308c.338-.519.566-1.106.772-1.652.268-.709.53-1.42.786-2.133l.022-.052a.105.105 0 0 0 .008-.039.104.104 0 0 0 -.103-.103.1.1 0 0 0 -.094.064zm-18.328-.444a10.08 10.08 0 0 1 -1.828 2.571 9.27 9.27 0 0 1 -.974.858c-.375.406-.79.78-1.244 1.106a7.933 7.933 0 0 1 -3.703 1.351 4.344 4.344 0 0 1 -.116.004.076.076 0 0 0 -.072.075c0 .041.034.075.075.075h.001l.118-.004a8.307 8.307 0 0 0 4.003-.999 8.97 8.97 0 0 0 1.511-.993c.313-.349.598-.72.855-1.103a10.366 10.366 0 0 0 1.373-2.941zm-49.588-70.424a6.759 6.759 0 0 1 2.517-2.406l.009-.004a6.889 6.889 0 0 1 4.363.562l.056.019a.172.172 0 0 1 -.112.325l-.053-.019c-1.337-.242-2.685-.019-3.777.549l-.008.001a5.904 5.904 0 0 0 -2.873 1.086.083.083 0 0 1 -.061.026.083.083 0 0 1 -.061-.139z" fill="#fefc32" fill-rule="nonzero"/><g stroke="#000" stroke-miterlimit="4" stroke-width=".5"><path d="m165.158 125.627a11.262 11.262 0 0 1 .497 2.634 2.18 2.18 0 0 0 1.02-.405c.268-.196.494-.462.603-.776.122-.354.084-.76-.101-1.086a1.341 1.341 0 0 0 -.88-.641" fill-rule="nonzero"/><g fill="none"><path d="m173.847 127.262a3.502 3.502 0 0 0 2.442-1.526 3.47 3.47 0 0 0 .527-1.365 41.161 41.161 0 0 1 -5.338-.041c-1.01-.074-2.044-.183-3.023.081-.765.206-1.453.63-2.198.902a5.826 5.826 0 0 1 -2.669.314m11.461 2.983c.795.42 1.796.42 2.591 0 .505-.267.914-.681 1.374-1.02.673-.497 1.479-.837 2.315-.864.698-.022 1.385.17 2.045.397.661.228 1.312.493 1.998.624.493.094.996.118 1.494.175.499.057 1.001.151 1.45.374.497.247.914.65 1.177 1.139l-3.65 1.491a19.435 19.435 0 0 1 9.013 8.187c.477.84.901 1.755.888 2.72a3.215 3.215 0 0 1 -.943 2.22 3.964 3.964 0 0 0 -2.387-1.887c-1.011-.28-2.103-.147-3.108-.444-.978-.29-1.794-.961-2.538-1.658-.744-.698-1.46-1.446-2.347-1.95a5.28 5.28 0 0 0 -3.941-.5m44.456-16.854a20.628 20.628 0 0 1 -1.609 4.082c-2.178 4.163-5.704 7.454-9.376 10.385-1.466 1.171-3.005 2.318-4.793 2.885a8.39 8.39 0 0 1 -4.421.168m9.908-3.608a44.068 44.068 0 0 1 -17.115-6.157"/><path d="m191.637 134.867a4.599 4.599 0 0 1 3.414-.222c.951.315 1.792.943 2.775 1.137.73.145 1.509.033 2.169-.312a3.331 3.331 0 0 0 1.495-1.603 21.981 21.981 0 0 1 -5.246-3.802m-4.278 15.658a6.584 6.584 0 0 0 .746 4.121 6.624 6.624 0 0 0 4.514 3.258 13.606 13.606 0 0 0 .314 3.611c.44 1.966 1.316 3.818 2.433 5.495a20.91 20.91 0 0 0 4.71 5.024m-1.334-8.125a4.354 4.354 0 0 0 .51 2.198c.385.721.968 1.319 1.61 1.824s1.347.923 2.04 1.356a56.582 56.582 0 0 1 3.533 2.394"/><path d="m213.24 169.273a6.412 6.412 0 0 1 1.099 2.983 6.395 6.395 0 0 1 -.565 3.322 6.386 6.386 0 0 1 -2.183 2.566 6.362 6.362 0 0 0 -1.099-3.808c-.813-1.186-2.006-2.059-3.25-2.782-1.243-.722-2.56-1.317-3.776-2.085a15.584 15.584 0 0 1 -4.042-3.689m-2.081-1.178a15.567 15.567 0 0 1 -2.983-4.435m-1.89-.128a12.172 12.172 0 0 1 -.667-4.773m-1.996 2.311a24.91 24.91 0 0 0 -2.983-6.908 4.655 4.655 0 0 1 2.591.353 4.65 4.65 0 0 1 1.688 1.295m-7.458-2.826a7.118 7.118 0 0 0 2.302-5.937m30.113 34.414a10.368 10.368 0 0 0 -1.554 7.438m2.276-2.775a5.624 5.624 0 0 1 1.332 2.442c.343 1.357.169 2.803.5 4.163a5.755 5.755 0 0 0 1.11 2.248m4.074-.152c-2.717-2.553-4.329-6.242-4.357-9.97-.02-2.621.716-5.222 1.961-7.528a18.032 18.032 0 0 1 3.22-4.286m.079 8.753c-.184.852-.296 1.72-.335 2.591-.028.611-.02 1.226.084 1.828.104.603.306 1.194.643 1.704a3.614 3.614 0 0 0 2.277 1.53m-1.429-11.594a17.715 17.715 0 0 0 4.829 6.273c.321.264.652.518.937.82.284.303.523.662.617 1.067a1.749 1.749 0 0 1 -.325 1.455 1.746 1.746 0 0 1 -1.34.654m-.15-19.634a6.387 6.387 0 0 1 1.591 2.894c.204.835.236 1.7.322 2.555s.232 1.723.639 2.479c.339.631.845 1.158 1.394 1.618.548.46 1.143.862 1.709 1.3.844.654 1.623 1.39 2.323 2.195m-22.892-12.766 4.042 4.631a4.683 4.683 0 0 0 1.296-1.648 4.666 4.666 0 0 0 .431-1.688m-16.627-12.409a13.55 13.55 0 0 0 3.677 4.713c1.836 1.498 4.113 2.509 6.481 2.614 2.8.123 5.564-1.034 7.712-2.836a14.254 14.254 0 0 0 3.556-4.491"/><path d="m209.432 151.414a4.657 4.657 0 0 0 2.672 3.148 4.66 4.66 0 0 0 4.119-.282 4.622 4.622 0 0 0 1.875-2.146 4.615 4.615 0 0 0 .244-2.839m1.766-2.394c.755.39 1.555.69 2.38.893.43.106.872.185 1.315.169.443-.017.891-.135 1.251-.395.436-.316.712-.821.827-1.347s.082-1.075-.008-1.607a7.767 7.767 0 0 0 -.584-1.913m1.767-1.06c.753.307 1.561.48 2.374.511.509.019 1.027-.019 1.51-.182.483-.162.931-.457 1.218-.878.316-.464.415-1.05.365-1.609-.051-.558-.24-1.095-.463-1.61a12.62 12.62 0 0 0 -1.393-2.433m1.491-1.138a5.94 5.94 0 0 0 2.494.887c.46.053.93.052 1.379-.058.45-.109.878-.331 1.19-.672.406-.445.588-1.065.572-1.667-.015-.602-.214-1.188-.488-1.724a6.304 6.304 0 0 0 -1.418-1.83m-.393-2.394a6.138 6.138 0 0 0 2.865 1.452c.443.092.901.133 1.348.064.446-.069.883-.256 1.204-.574.248-.246.42-.564.508-.901.089-.338.096-.695.039-1.039-.113-.689-.472-1.316-.9-1.867a7.745 7.745 0 0 0 -2.63-2.159m.502-1.025a8.589 8.589 0 0 0 2.859.167c.382-.042.764-.111 1.12-.256.355-.146.684-.374.906-.688a1.8 1.8 0 0 0 .308-.851 2.267 2.267 0 0 0 -.099-.903c-.18-.583-.559-1.086-.987-1.521a7.164 7.164 0 0 0 -3.903-2.027 6.053 6.053 0 0 0 2.434-.942c.662-.442 1.254-1.046 1.491-1.806.219-.699.114-1.478-.207-2.137s-.845-1.205-1.441-1.631a6.007 6.007 0 0 0 -2.669-1.059 8.383 8.383 0 0 0 3.629-3.442c.428-.771.736-1.628.745-2.509a3.467 3.467 0 0 0 -.227-1.295 2.81 2.81 0 0 0 -.74-1.081 2.867 2.867 0 0 0 -1.319-.648 3.692 3.692 0 0 0 -1.477.007c-.973.193-1.85.713-2.643 1.307a14.236 14.236 0 0 0 -2.11 1.943 6.907 6.907 0 0 0 1.86-3.178c.15-.568.226-1.162.16-1.746s-.281-1.159-.665-1.604c-.521-.605-1.321-.927-2.118-.97-.796-.044-1.59.17-2.317.499a7.63 7.63 0 0 0 -3.219 2.747m-26.219 46.904a20.06 20.06 0 0 0 2.277 4.16c.256.359.527.713.871.989.343.276.769.47 1.209.463.477-.007.93-.25 1.263-.59.334-.341.561-.772.739-1.215a7.161 7.161 0 0 0 .348-4.162m1.721.611c.473.646.993 1.259 1.554 1.831.302.309.62.608.99.831.37.222.8.364 1.23.335.285-.019.562-.113.807-.26.245-.146.458-.343.633-.568.35-.45.547-1.002.67-1.559a7.003 7.003 0 0 0 -1.166-5.551m1.966.446a5.959 5.959 0 0 0 3.1 2.159c.466.135.954.213 1.438.176.484-.036.965-.193 1.349-.49.399-.31.677-.762.814-1.247.138-.486.14-1.004.05-1.501a4.154 4.154 0 0 0 -.996-2.022 4.135 4.135 0 0 0 -1.909-1.196m2.08-.668a6.386 6.386 0 0 0 2.708 1.884c.42.151.86.258 1.305.252s.898-.132 1.247-.409c.362-.287.592-.721.683-1.175s.052-.926-.055-1.376a4.734 4.734 0 0 0 -1.8-2.705"/><path d="m225.25 130.416a6.325 6.325 0 0 0 3.022 1.688c.391.091.793.145 1.193.113s.798-.154 1.123-.388c.269-.195.483-.463.624-.764.142-.3.212-.633.22-.965.014-.664-.222-1.316-.569-1.882a5.084 5.084 0 0 0 -3.022-2.237 6.708 6.708 0 0 0 2.511.274c.597-.048 1.192-.179 1.728-.446.535-.267 1.008-.677 1.295-1.202.319-.586.389-1.291.251-1.944s-.474-1.254-.913-1.757a4.94 4.94 0 0 0 -3.553-1.665 12.793 12.793 0 0 0 4.215-.993c.544-.231 1.08-.505 1.515-.907.435-.401.763-.945.805-1.535.032-.442-.098-.887-.322-1.27s-.539-.706-.885-.983a5.309 5.309 0 0 0 -2.016-.996m-2.473-.589a5.243 5.243 0 0 0 2.983-2.041c.397-.561.684-1.214.736-1.9.051-.685-.149-1.404-.618-1.907-.333-.357-.783-.592-1.255-.72-.471-.128-.965-.154-1.453-.14a9.088 9.088 0 0 0 -3.768.939m0 0a6.85 6.85 0 0 0 2.394-2.434c.275-.476.493-.991.577-1.534s.027-1.117-.224-1.606a2.558 2.558 0 0 0 -.917-.976 3.808 3.808 0 0 0 -1.257-.49 5.063 5.063 0 0 0 -2.3.053m10.597 39.211c.353.246.788.371 1.217.35a1.965 1.965 0 0 0 1.845-2.234m2.394-2.002a2.964 2.964 0 0 0 1.932-.395 2.966 2.966 0 0 0 1.247-1.528 2.961 2.961 0 0 0 .064-1.772 2.96 2.96 0 0 0 -.967-1.486m1.884-1.177a2.73 2.73 0 0 0 1.899-.157 2.722 2.722 0 0 0 1.32-1.374 2.728 2.728 0 0 0 .024-2.059 2.729 2.729 0 0 0 -1.437-1.474m.667-4.513a2.7 2.7 0 0 0 2.218-.307 2.7 2.7 0 0 0 1.197-1.891 2.69 2.69 0 0 0 -.465-1.879 2.688 2.688 0 0 0 -1.615-1.065"/><path d="m247.034 113.381a4.715 4.715 0 0 0 3.611-.706 3.64 3.64 0 0 0 .902-.857c.244-.338.418-.731.471-1.145.075-.569-.081-1.153-.364-1.653s-.687-.922-1.127-1.291a8.083 8.083 0 0 0 -3.415-1.687"/><path d="m247.112 106.042a4.569 4.569 0 0 0 3.807-.471 4.272 4.272 0 0 0 1.333-1.323 3.865 3.865 0 0 0 .591-1.778 3.749 3.749 0 0 0 -.376-1.906 3.869 3.869 0 0 0 -1.273-1.47 3.962 3.962 0 0 0 -3.101-.588m0 0a7.853 7.853 0 0 0 3.219-2.277c.354-.42.667-.886.84-1.408s.197-1.107-.016-1.614c-.203-.486-.61-.869-1.076-1.113-.467-.245-.991-.361-1.514-.418a7.316 7.316 0 0 0 -5.024 1.335"/><path d="m244.522 93.011a8.356 8.356 0 0 0 3.454-3.18c.332-.555.603-1.159.687-1.8.084-.642-.032-1.326-.413-1.85-.397-.547-1.05-.872-1.718-.978-.669-.106-1.354-.011-2.01.154a9.64 9.64 0 0 0 -3.886 2.002"/><path d="m240.636 87.359a10.442 10.442 0 0 0 5.065-5.475c.193-.484.349-.989.378-1.51.029-.52-.079-1.06-.378-1.487a2.081 2.081 0 0 0 -.709-.626 2.657 2.657 0 0 0 -.903-.291c-.63-.09-1.273.019-1.885.195-2.237.646-4.107 2.159-5.883 3.664a214.917 214.917 0 0 0 -4.83 4.218"/><path d="m236.459 81.718a5.7 5.7 0 0 0 1.638-3.358 3.767 3.767 0 0 0 -.011-1.071 2.263 2.263 0 0 0 -.405-.983 1.909 1.909 0 0 0 -1.372-.744 1.904 1.904 0 0 0 -1.459.55m18.817 114.906a343.944 343.944 0 0 0 -9.499-16.328m18.852 19.875a33.108 33.108 0 0 1 -6.213-5.235c-1.81-1.953-3.377-4.116-4.942-6.27-2.127-2.926-4.26-5.847-6.401-8.763m20.442 19.935a137.458 137.458 0 0 1 -19.316-22.036m25.505 20.093a117.205 117.205 0 0 1 -24.062-22.758m27.67 21.287a299.823 299.823 0 0 1 -27.06-23.563m31.362 21.815a1351.078 1351.078 0 0 1 -30.474-23.147m33.583 20.732a589.874 589.874 0 0 1 -32.639-22.564m35.109 19.345a255.65 255.65 0 0 1 -34.165-21.232m-21.815-11.545a621.83 621.83 0 0 0 11.823 11.989m-5.717-10.935a18.88 18.88 0 0 0 6.494 4.441m-1.609 1.665a52.385 52.385 0 0 0 5.773 1.887m-2.165 3.386 2.942.278m-2.887 1.998 1.443 1.665m-6.772-2.942a5.346 5.346 0 0 1 2.554 1.999c.417.616.703 1.321.832 2.053m-.277 2.387.222 1.888m-5.773-3.386 1.998 2.053m-13.981-66.574 2.434-2.237m2.119 7.457 2.355-1.727m-1.138 7.654 2.433.078m-4.435 7.224 2.97.694m-4.635 4.191 2.026 2.081m-4.802 3.081 1.888 1.138m-6.689 3.608 1.748 1.776m-8.936 1.943 1.415 2.193m-7.993.416.361 2.026m53.655-87.558a51.283 51.283 0 0 1 -9.971 12.456m14.71-7.771a36.666 36.666 0 0 1 -4.996 5.884m10.935-2.221a58.304 58.304 0 0 1 -8.104 8.882m7.993 1.72a140.65 140.65 0 0 1 -16.808 14.766m21.304-9.826a398.32 398.32 0 0 1 -8.509 8.334m4.279 4.867a68.332 68.332 0 0 1 -9.224 4.239m12.756.314a50.478 50.478 0 0 1 -13.62 7.301m14.889-1.569a22.514 22.514 0 0 1 -6.96 4.787 22.584 22.584 0 0 1 -10.99 1.806m6.829 5.22a8.367 8.367 0 0 1 -3.218.353 8.373 8.373 0 0 1 -3.611-1.177m-.903 13.934a34.96 34.96 0 0 1 -7.362.161m15.07-6.578a51.025 51.025 0 0 1 -11.74 1.582m-5.689 11.018a10.363 10.363 0 0 1 -3.899.136m-2.54 4.888a10.483 10.483 0 0 1 -4.682-.375m3.1-47.861a16.889 16.889 0 0 1 6.161-5.107m-8.437-1.388a33.196 33.196 0 0 1 2.664-2.72 33.242 33.242 0 0 1 2.72-2.22m-8.659-1.61 2.165-1.72m7.351-6.964a114.016 114.016 0 0 0 13.739-16.956 114.058 114.058 0 0 0 11.018-21.153m-20.007 45.184a405.046 405.046 0 0 0 24.756-33.638m-20.316 36.413a84.07 84.07 0 0 0 13.322-12.989 84.062 84.062 0 0 0 10.325-15.986m-15.987 29.863a139.218 139.218 0 0 0 18.762-21.537m-20.649 31.973a140.678 140.678 0 0 0 20.982-20.982m-14.876 23.979a54.442 54.442 0 0 0 13.877-12.989m-13.766 19.983a59.944 59.944 0 0 0 14.302-10.087m-16.014 16.759a23.818 23.818 0 0 0 11.932-5.809m-10.676 11.069a34.45 34.45 0 0 0 8.714-4.396m-23.356 9.116a15.978 15.978 0 0 0 6.55 2.165c1.896.192 3.815.041 5.695-.271a33.474 33.474 0 0 0 4.463-1.061m-12.323 7.715a19.052 19.052 0 0 0 4.829-.388m-8.215 5.44a35.68 35.68 0 0 0 4.801-.278m-17.514-29.405 2.924-2.924m-7.948-1.727 2.08-2.532m3.67 14.111 1.884-.157m-.628 7.339 1.492.432m4.021 6.176 1.138.361m.805-9.353 1.582.444m.304-5.753 1.982.805m-2.728-9.047 2.944-.039m-3.529-6.809 2.054-1.11m-18.79-6.217-1.97 1.804m-1.582 1.887a4.689 4.689 0 0 0 -1.749 1.998m-1.221 3.247a2.792 2.792 0 0 0 -.194 1.916m-7.244 29.724a10.322 10.322 0 0 0 3.886-3.941 10.307 10.307 0 0 0 1.276-5.273m-47.07-12.046a8.447 8.447 0 0 1 .212-2.584c.098-.408.228-.811.425-1.181.197-.371.465-.709.806-.953.496-.354 1.128-.492 1.734-.441.607.052 1.19.284 1.705.608a5.059 5.059 0 0 1 1.89 2.165 4.873 4.873 0 0 1 1.504-2.849c.791-.729 1.865-1.187 2.936-1.092a3.267 3.267 0 0 1 2.136 1.078c.54.612.835 1.436.806 2.252a7.904 7.904 0 0 1 1.155-2.104c.273-.355.579-.69.942-.953.364-.263.788-.452 1.234-.495.659-.065 1.321.193 1.84.604s.908.964 1.23 1.543a9.68 9.68 0 0 1 1.093 3.126 8.3 8.3 0 0 1 1.499-2.562c.327-.38.692-.734 1.122-.992s.93-.417 1.431-.387c.349.02.69.132.992.308.301.176.564.416.778.691.43.551.663 1.234.781 1.922a6.735 6.735 0 0 1 -.386 3.629 4.351 4.351 0 0 1 1.767-1.411c.444-.193.927-.311 1.411-.287.483.024.967.199 1.318.532.404.383.603.943.663 1.497.06.555-.006 1.114-.055 1.669-.06.664-.096 1.33-.108 1.996a5.384 5.384 0 0 1 1.947.263 3.64 3.64 0 0 1 1.14.59c.337.269.611.625.743 1.034.145.453.108.951-.042 1.402-.151.451-.411.858-.708 1.23a6.801 6.801 0 0 1 -1.915 1.643 7.712 7.712 0 0 1 2.593.786c.544.278 1.059.624 1.478 1.068.42.444.742.99.869 1.587.117.55.066 1.128-.104 1.663a4.717 4.717 0 0 1 -.804 1.472 6.118 6.118 0 0 1 -2.589 1.916"/><path d="m202.564 129.611a10.096 10.096 0 0 0 2.248-1.117c.312-.208.614-.434.872-.705s.472-.589.589-.945c.108-.333.128-.695.057-1.038a2.032 2.032 0 0 0 -.468-.928 2.028 2.028 0 0 0 -.962-.6 2.029 2.029 0 0 0 -1.135.014 4.271 4.271 0 0 0 1.011-1.385c.183-.4.304-.844.238-1.279a1.843 1.843 0 0 0 -.344-.801 2.893 2.893 0 0 0 -.629-.611 4.023 4.023 0 0 0 -1.969-.753 2.872 2.872 0 0 0 2.482-.987c.295-.35.503-.775.58-1.226a2.242 2.242 0 0 0 -.175-1.339c-.258-.541-.745-.95-1.292-1.195-.546-.245-1.15-.336-1.749-.355a7.81 7.81 0 0 0 -2.843.44 3.637 3.637 0 0 0 1.709-2.735c.057-.616-.06-1.268-.432-1.762a2.158 2.158 0 0 0 -.851-.661 2.71 2.71 0 0 0 -1.058-.221c-.726-.009-1.435.237-2.08.57a7.814 7.814 0 0 0 -2.395 1.922 4.958 4.958 0 0 0 -.34-3.179 3.75 3.75 0 0 0 -.705-1.045 2.531 2.531 0 0 0 -1.064-.661c-.594-.177-1.245-.089-1.815.153-.571.242-1.069.628-1.521 1.051a10.203 10.203 0 0 0 -2.048 2.682 6.16 6.16 0 0 0 -1.496-2.561 4.49 4.49 0 0 0 -1.155-.877 2.93 2.93 0 0 0 -1.401-.337c-.663.02-1.302.312-1.801.749-.498.437-.862 1.013-1.114 1.626a5.75 5.75 0 0 0 -.416 2.51m3.905-2.098.491 1.551m7.438-1.708-.039 2.198m7.466.029-.916 1.36m4.996 3.442-1.61.222m9.12 5.427-1.296.314m.314-7.536-1.491.667m-2.865-6.633-1.139 1.531m-3.964-6.476-1.217 2.198m-6.28-3.729-.117 2.08m-7.262-1.845.157 2.081m-7.81-.707 1.138 2.237m36.284 9.641a12.64 12.64 0 0 0 1.86-7.327m-4.58-1.304a14.81 14.81 0 0 0 1.707-4.926m-5.204 2.151a37.361 37.361 0 0 0 .972-8.465m-4.913 5.967a193.405 193.405 0 0 0 .888-10.963m-5.384 7.743a42.373 42.373 0 0 0 1.292-11.18m-4.345 8.349a46.895 46.895 0 0 0 -2.367-11.077m-.908 13.464a46.65 46.65 0 0 0 -7.688-16.584m2.238 13.992a91.475 91.475 0 0 0 -9.97-15.386 91.443 91.443 0 0 0 -11.009-11.519m15.484 28.318a102.22 102.22 0 0 0 -20.583-25.742m12.968 27.626a84.412 84.412 0 0 0 -10.911-17.584 84.38 84.38 0 0 0 -11.833-11.995m14.109 26.989a93.717 93.717 0 0 0 -9.969-13.424 93.86 93.86 0 0 0 -10.378-9.975m21.525 28.815a208.151 208.151 0 0 0 -27.161-30.144m30.929 29.124a86.602 86.602 0 0 0 -11.068-18.055 86.61 86.61 0 0 0 -16.721-16.014m29.045 21.273a111.894 111.894 0 0 0 -20.253-21.43m26.847 19.546a101.31 101.31 0 0 0 -14.68-15.935m25.513 13.109a23.605 23.605 0 0 0 -3.297-5.809 23.551 23.551 0 0 0 -3.376-3.532m53.313 70.352 2.776 1.11m-23.092-22.092a3.895 3.895 0 0 0 1.832-1.72 3.877 3.877 0 0 0 .444-1.888m-.055-1.387.055-1.027m-21.3-31.416.55 3.258m4.592.824-.118 4.003m4.082.432-.235 2.277m4.317 1.884-.471 2.708m4.031 5.011-.61 2.498m15.733 49.56a21.035 21.035 0 0 0 4.631 4.749m-63.31-31.713c.228.118.494.16.746.118a1.2 1.2 0 0 0 .965-.905c.048-.206.04-.425-.023-.626m.805 1.118c.294.141.654.134.942-.019.219-.117.394-.315.483-.547a1.05 1.05 0 0 0 .007-.729m-1.805 4.69a.808.808 0 0 0 .625.213.811.811 0 0 0 .572-.33.812.812 0 0 0 .144-.553.809.809 0 0 0 -.262-.507m1.845-.216a.987.987 0 0 0 .633-.024.986.986 0 0 0 .486-.408c.15-.25.18-.57.078-.844m1.237-.765a.866.866 0 0 0 .656.116.866.866 0 0 0 .541-.391.865.865 0 0 0 .105-.615.861.861 0 0 0 -.341-.523m-1.217 5.181a1.372 1.372 0 0 0 1.61-.393c.228-.282.337-.659.294-1.02m1.02-10.383a16.749 16.749 0 0 1 -5.362-1.328"/></g></g></svg>