<svg height="600" viewBox="0 0 325 217" width="900" xmlns="http://www.w3.org/2000/svg"><g fill-rule="evenodd"><path d="m-.25 0h325.5v217h-325.5z" fill="#f00"/><path d="m-.25 0h108.5v217h-108.5z" fill="#009c31"/><path d="m216.75 0h108.5v217h-108.5z" fill="#009cce"/><path d="m162.033 114.82h1.997v48.274h-1.997z" fill="#b5cece"/><path d="m107.368 123.443c-.077 1.19-.156 2.38-.156 3.588 0 30.534 24.786 55.32 55.32 55.32 29.725 0 53.993-23.5 55.256-52.917l-14.914-.812c.02.473.031.959.031 1.436 0 17.923-14.556 32.449-32.48 32.449-17.923 0-32.449-14.526-32.449-32.45 0-1.67.131-3.327.374-4.93z" fill="#bdbdbd" stroke="#6b6b6b" stroke-width="1.99686"/><path d="m108.515 120.279h108.905v-64.94c0-13.381-19.322-20.69-53.878-20.69-39.586 0-55.027 10.301-55.027 20.69z" fill="#fff"/><path d="m108.522 77.047v5.866h108.892v-5.866z" fill="#f00"/><path d="m144.867 64.346c-.18.299-6.65-.86-6.953-.686-.294.17-2.336 6.253-2.676 6.245-.349-.007-2.58-6.19-2.882-6.365-.294-.17-6.583 1.104-6.747.806-.168-.306 4.071-5.33 4.071-5.679 0-.34-4.247-5.15-4.07-5.44.18-.298 6.65.861 6.953.687.294-.17 2.336-6.253 2.675-6.246.35.007 2.58 6.19 2.883 6.365.294.17 6.583-1.103 6.746-.806.169.307-4.07 5.33-4.07 5.679 0 .34 4.247 5.15 4.07 5.44zm55.603 0c-.182.299-6.652-.86-6.954-.686-.294.17-2.336 6.253-2.676 6.245-.35-.007-2.58-6.19-2.882-6.365-.295-.17-6.584 1.104-6.747.806-.168-.306 4.071-5.33 4.071-5.679 0-.34-4.247-5.15-4.071-5.44.181-.298 6.65.861 6.953.687.295-.17 2.336-6.253 2.676-6.246.35.007 2.58 6.19 2.882 6.365.295.17 6.584-1.103 6.747-.806.168.307-4.07 5.33-4.07 5.679 0 .34 4.246 5.15 4.07 5.44zm0 42.958c-.182.3-6.652-.86-6.954-.686-.294.17-2.336 6.253-2.676 6.246-.35-.008-2.58-6.19-2.882-6.365-.295-.17-6.584 1.103-6.747.805-.168-.306 4.071-5.329 4.071-5.678 0-.34-4.247-5.15-4.071-5.44.181-.299 6.65.86 6.953.686.295-.17 2.336-6.253 2.676-6.246.35.008 2.58 6.19 2.882 6.365.295.17 6.584-1.103 6.747-.805.168.306-4.07 5.329-4.07 5.678 0 .34 4.246 5.15 4.07 5.44zm-55.603 0c-.18.3-6.65-.86-6.953-.686-.294.17-2.336 6.253-2.676 6.246-.349-.008-2.58-6.19-2.882-6.365-.294-.17-6.583 1.103-6.747.805-.168-.306 4.071-5.329 4.071-5.678 0-.34-4.247-5.15-4.07-5.44.18-.299 6.65.86 6.953.686.294-.17 2.336-6.253 2.675-6.246.35.008 2.58 6.19 2.883 6.365.294.17 6.583-1.103 6.746-.805.169.306-4.07 5.329-4.07 5.678 0 .34 4.247 5.15 4.07 5.44z" fill="#bdbdbd"/><path d="m163.53 34.645c-1.173 0-2.301.013-3.432.031v85.616h5.897v-85.616c-.827-.009-1.62-.031-2.465-.031z" fill="#f00"/></g><path d="m108.515 120.279h108.905v-64.94c0-13.381-19.322-20.69-53.878-20.69-39.586 0-55.027 10.301-55.027 20.69z" fill="none" stroke="#b5cece" stroke-width="1.99686"/></svg>