<svg xmlns="http://www.w3.org/2000/svg" width="600" height="400" version="1.0"><path fill="#fff" d="M0 0h600v400H0z"/><path d="M197.96 117.926v149.492c0 56.326 45.714 102.04 102.04 102.04 56.326 0 102.04-45.714 102.04-102.04V117.926H197.96z" fill="#fff" fill-rule="evenodd"/><path d="M351.808 163.907a21.01 21.01 0 0 0-15.327 6.194l-49.21 49.63 29.683 29.683 13.438-13.543v50.6a20.992 20.992 0 0 0 10.419 18.425 20.969 20.969 0 0 0 21.154 0 20.992 20.992 0 0 0 10.419-18.424V184.903a20.99 20.99 0 0 0-12.991-19.421 20.92 20.92 0 0 0-7.585-1.575z" fill-rule="evenodd"/><path d="M228.561 188.468v97.872c0 12.216 9.962 22.204 22.177 22.204s22.177-9.988 22.177-22.204v-7.82a48.022 48.022 0 0 0 27.216 8.424c13.552 0 25.81-5.638 34.591-14.671l-61.807-61.807v-23.372l-8.398 8.105v10.937c-7.855 8.59-12.677 19.998-12.677 32.517 0 12.527 4.815 23.95 12.677 32.544v15.143c0 7.708-6.071 13.805-13.779 13.805s-13.779-6.097-13.779-13.805V195.2l-8.398-6.732zm38.449 27.982l55.35 55.35a40.091 40.091 0 0 1-4.855 2.809l-27.977-27.977-5.957 5.957 25.09 25.064a39.658 39.658 0 0 1-4.567.709l-23.148-23.148-5.958 5.957 16.43 16.43c-17.86-3.971-31.18-19.876-31.18-38.948 0-8.233 2.516-15.858 6.772-22.203zm1.05 58.238c.355.316.711.638 1.076.944-.365-.308-.72-.626-1.076-.944z" fill-rule="evenodd"/><path d="M270.357 184.839a19.736 19.736 0 1 1-39.473 0 19.736 19.736 0 1 1 39.473 0z" fill="none" stroke="#000" stroke-width="8.39831955" stroke-linecap="round" stroke-linejoin="round"/><path d="M230.884 182.372l-22.516 19.701h33.148" fill="none" stroke="#000" stroke-width="8.3984"/><g><path d="M197.96 117.926v77.921l19.736-17.295v-38.37h164.608v123.036c0 46.36-35.945 83.985-82.304 83.985-46.36 0-82.304-37.625-82.304-83.985v-49.603h-19.737v53.803c0 56.326 45.715 102.04 102.041 102.04 56.326 0 102.04-45.714 102.04-102.04V117.926H197.96z" fill="#019903" fill-rule="evenodd"/><path d="M351.808 163.907a21.01 21.01 0 0 0-15.327 6.194l-49.21 49.63 29.683 29.683 13.438-13.543v50.6a20.992 20.992 0 0 0 10.419 18.425 20.969 20.969 0 0 0 21.154 0 20.992 20.992 0 0 0 10.419-18.424V184.903a20.99 20.99 0 0 0-12.991-19.421 20.92 20.92 0 0 0-7.585-1.575z" fill-rule="evenodd"/><path d="M228.561 188.468v97.872c0 12.216 9.962 22.204 22.177 22.204s22.177-9.988 22.177-22.204v-7.82a48.022 48.022 0 0 0 27.216 8.424c13.552 0 25.81-5.638 34.591-14.671l-61.807-61.807v-23.372l-8.398 8.105v10.937c-7.855 8.59-12.677 19.998-12.677 32.517 0 12.527 4.815 23.95 12.677 32.544v15.143c0 7.708-6.071 13.805-13.779 13.805s-13.779-6.097-13.779-13.805V195.2l-8.398-6.732zm38.449 27.982l55.35 55.35a40.091 40.091 0 0 1-4.855 2.809l-27.977-27.977-5.957 5.957 25.09 25.064a39.658 39.658 0 0 1-4.567.709l-23.148-23.148-5.958 5.957 16.43 16.43c-17.86-3.971-31.18-19.876-31.18-38.948 0-8.233 2.516-15.858 6.772-22.203zm1.05 58.238c.355.316.711.638 1.076.944-.365-.308-.72-.626-1.076-.944z" fill-rule="evenodd"/><path d="M270.357 184.839a19.736 19.736 0 1 1-39.473 0 19.736 19.736 0 1 1 39.473 0z" fill="none" stroke="#000" stroke-width="8.39831955" stroke-linecap="round" stroke-linejoin="round"/><path d="M230.884 182.372l-22.516 19.701h33.148" fill="none" stroke="#000" stroke-width="8.3984"/></g><path d="M140.964 125.814l5.252 4.127c1.014.796 1.701 1.235 2.061 1.317.36.082.742.028 1.145-.162s.941-.714 1.614-1.571l.512.402-7.537 9.593-.511-.402c.68-.866 1.061-1.517 1.142-1.953.082-.435.042-.816-.118-1.143-.16-.328-.747-.89-1.761-1.686l-12.164-9.556c-1.013-.797-1.7-1.236-2.06-1.318-.361-.082-.743-.027-1.145.163-.403.19-.941.714-1.615 1.57l-.511-.401 6.842-8.708c1.78-2.267 3.24-3.803 4.379-4.607 1.139-.804 2.39-1.207 3.755-1.208 1.364-.001 2.613.444 3.746 1.334 1.383 1.086 2.134 2.481 2.255 4.186.072 1.085-.198 2.31-.81 3.678l9.885.478c1.283.055 2.124.037 2.522-.052a2.977 2.977 0 0 0 1.502-.944l.511.402-4.637 5.902-13.288-.671-.966 1.23zm-9.192-7.222l8.21 6.451.62-.788c1.006-1.28 1.641-2.331 1.906-3.152.264-.82.233-1.653-.094-2.499-.326-.845-.983-1.655-1.969-2.43-1.428-1.122-2.746-1.617-3.952-1.484-1.207.132-2.393.94-3.559 2.423l-1.162 1.48zm19.308-21.918l6.775 6.946.34-.331c1.082-1.056 1.535-2.16 1.358-3.315-.176-1.154-.843-2.459-2.002-3.915l.478-.467 8.715 8.934-.478.467c-1.05-.875-2.04-1.465-2.968-1.771-.928-.306-1.71-.357-2.347-.154-.637.204-1.362.702-2.176 1.496l4.689 4.807c.916.94 1.517 1.475 1.8 1.607.285.132.602.159.95.08.35-.078.768-.355 1.254-.83l1.02-.993c1.593-1.555 2.51-3.17 2.751-4.845.24-1.675-.166-3.472-1.22-5.392l.466-.454 4.523 6.172-14.748 14.385-.454-.465.566-.553c.495-.482.807-.96.938-1.43.103-.33.075-.695-.086-1.095-.104-.291-.574-.865-1.408-1.72l-10.948-11.225c-.753-.772-1.237-1.225-1.45-1.36-.37-.212-.747-.287-1.129-.226-.548.076-1.098.384-1.652.924l-.566.553-.454-.466 14.282-13.93 4.922 5.045-.479.467c-1.446-.996-2.65-1.548-3.615-1.655-.964-.107-1.971.106-3.022.64-.617.307-1.572 1.09-2.864 2.35l-1.761 1.719zm31.329-28.356l4.99 6.76-.524.387c-1.996-1.382-3.98-2.088-5.953-2.117-1.974-.03-3.71.51-5.21 1.616-1.432 1.057-2.328 2.34-2.685 3.85-.357 1.509-.202 3.13.467 4.866a20.755 20.755 0 0 0 2.683 4.88c1.357 1.838 2.764 3.29 4.22 4.356 1.457 1.066 2.909 1.568 4.355 1.505 1.447-.063 2.835-.584 4.165-1.566.462-.34.899-.74 1.311-1.197.413-.457.804-.968 1.174-1.533l-2.943-3.988c-.557-.754-.969-1.204-1.236-1.35-.267-.144-.63-.186-1.087-.125-.458.06-.918.261-1.38.602l-.495.366-.386-.524 9.32-6.878.387.523c-.672.57-1.094 1.03-1.264 1.381-.17.351-.206.753-.106 1.203.047.242.329.712.843 1.41L196 86.733a23.475 23.475 0 0 1-2.913 4.061 24.876 24.876 0 0 1-3.815 3.46c-1.82 1.343-3.513 2.21-5.08 2.603-1.568.392-3.11.524-4.623.396-1.515-.127-2.903-.504-4.167-1.13-1.62-.815-3.025-2.028-4.215-3.64-2.13-2.886-2.914-6.071-2.355-9.557.559-3.485 2.375-6.362 5.45-8.63.951-.704 1.865-1.261 2.74-1.674.47-.231 1.3-.512 2.49-.844 1.19-.332 1.87-.56 2.04-.686.264-.194.438-.472.521-.832.084-.36.022-.88-.186-1.556l.523-.386zm28.323 10.894l.326.563-10.786 6.243-.326-.563.685-.396c.598-.347 1.018-.732 1.26-1.156.181-.295.243-.656.186-1.083-.03-.308-.344-.98-.942-2.014l-7.855-13.57c-.61-1.055-1.048-1.682-1.312-1.881-.264-.2-.623-.3-1.078-.3-.454-.001-.97.165-1.548.5l-.685.396-.326-.563 10.787-6.243.326.563-.685.396c-.599.347-1.019.732-1.26 1.156-.182.295-.249.659-.202 1.091.03.308.344.98.943 2.014l7.854 13.57c.61 1.056 1.05 1.681 1.32 1.877.27.196.631.295 1.085.296.454.001.97-.165 1.549-.5l.684-.396zm3.903-27.92c3.42-1.653 6.69-1.877 9.81-.672 3.119 1.205 5.388 3.428 6.809 6.67 1.213 2.769 1.47 5.56.772 8.374-.924 3.732-3.345 6.456-7.262 8.173-3.929 1.721-7.55 1.721-10.863 0-2.618-1.36-4.559-3.484-5.824-6.372-1.42-3.241-1.502-6.427-.244-9.556 1.258-3.13 3.525-5.335 6.802-6.617zm.644.945c-1.996.875-3.068 2.56-3.215 5.056-.115 2.046.515 4.636 1.888 7.77 1.633 3.725 3.494 6.19 5.584 7.399 1.458.845 3.008.908 4.65.188 1.106-.484 1.911-1.157 2.417-2.018.643-1.101.897-2.52.763-4.26-.135-1.738-.734-3.82-1.797-6.246-1.266-2.887-2.48-4.93-3.645-6.127-1.165-1.198-2.292-1.91-3.383-2.136-1.09-.225-2.178-.1-3.262.374zm24.333-9.77l15.263 11.13-2.721-9.88c-.38-1.379-.834-2.256-1.364-2.633-.722-.506-1.719-.572-2.99-.198l-.172-.627 7.592-2.091.173.627c-.938.392-1.546.733-1.825 1.022-.278.29-.45.683-.513 1.18-.064.498.054 1.29.353 2.374l5.27 19.133-.576.159-20.81-14.852 4.023 14.608c.365 1.322.913 2.131 1.645 2.428a3.445 3.445 0 0 0 2.267.123l.542-.15.173.627-8.151 2.246-.173-.627c1.262-.36 2.072-.863 2.429-1.508.357-.645.367-1.578.031-2.798l-4.467-16.219-.66-.474c-.654-.477-1.193-.76-1.62-.849-.425-.09-.991-.049-1.698.122l-.173-.627 8.152-2.246zm29.506-5.071l1.31 9.614.47-.064c1.498-.204 2.52-.822 3.065-1.854.545-1.033.786-2.479.721-4.339l.662-.09 1.685 12.366-.662.09c-.323-1.327-.766-2.39-1.33-3.189-.565-.798-1.163-1.305-1.795-1.52-.633-.216-1.512-.247-2.639-.094l.906 6.654c.178 1.3.341 2.088.49 2.363.15.276.39.486.717.63.327.145.827.171 1.5.08l1.411-.192c2.207-.3 3.905-1.053 5.095-2.255 1.19-1.203 1.934-2.89 2.23-5.059l.644-.087-.04 7.651-20.413 2.78-.088-.644.784-.107c.685-.093 1.22-.29 1.605-.59.28-.205.474-.515.583-.932.09-.296.054-1.036-.108-2.22l-2.116-15.537c-.145-1.068-.264-1.72-.355-1.956-.171-.39-.429-.675-.772-.853-.486-.265-1.112-.345-1.878-.24l-.784.106-.088-.644 19.769-2.693.951 6.984-.662.09c-.569-1.66-1.209-2.821-1.92-3.481-.71-.66-1.647-1.088-2.81-1.285-.678-.12-1.911-.059-3.7.185l-2.438.332zm71.719 16.362l9.568-14.044 9.495 2-.134.636-.757-.16c-.688-.144-1.264-.14-1.727.014-.32.1-.607.321-.858.664-.184.248-.398.952-.642 2.11l-3.24 15.377c-.25 1.193-.344 1.952-.28 2.276.062.325.265.64.608.946.343.306.841.527 1.495.665l.757.16-.134.636-12.178-2.565.134-.636.756.159c.688.145 1.264.14 1.728-.014.32-.1.608-.327.862-.68.184-.249.399-.958.645-2.128l3.641-17.286-13.425 19.393-.413-.087-4.634-23.035-3.46 16.426c-.24 1.147-.36 1.858-.359 2.134.028.605.254 1.14.677 1.607.422.466 1.167.812 2.234 1.036l-.135.637-7.98-1.681.133-.637.241.05c.514.121 1.013.14 1.498.056.484-.084.873-.25 1.165-.5.292-.25.558-.631.797-1.144.05-.12.185-.703.404-1.747l3.109-14.758c.248-1.181.34-1.931.276-2.25-.065-.32-.268-.632-.611-.937-.343-.306-.841-.528-1.495-.665l-.74-.156.135-.637L337.522 37l3.315 16.758zm31.156 10.785l-7.857-3.027-1.77 1.805c-.583.604-.966 1.14-1.147 1.611-.24.623-.166 1.18.223 1.669.228.288.905.7 2.03 1.234l-.234.607-7.397-2.85.234-.607c.844.187 1.628.109 2.35-.234.723-.344 1.788-1.217 3.195-2.622l14.794-14.682.311.12.994 21.33c.1 2.023.31 3.353.628 3.99.242.483.69.882 1.348 1.198l-.234.607-10.76-4.146.233-.607.443.17c.864.334 1.517.447 1.96.342.308-.083.525-.288.652-.616.075-.197.12-.412.135-.645.016-.107.01-.58-.018-1.42l-.113-3.227zm-.09-1.428l-.362-8.937-6.363 6.346 6.725 2.59zM393.523 70l-3.24 5.841c-.625 1.128-.95 1.876-.973 2.245-.024.368.09.737.342 1.104.252.367.854.815 1.807 1.344l-.315.569-10.669-5.917.316-.568c.963.534 1.666.807 2.109.818.443.01.813-.089 1.11-.3.298-.21.76-.878 1.384-2.005l7.502-13.528c.625-1.128.95-1.876.973-2.245.024-.368-.09-.736-.342-1.104-.252-.367-.854-.815-1.807-1.344l.315-.569 9.685 5.371c2.52 1.398 4.269 2.595 5.244 3.592.975.996 1.572 2.168 1.79 3.515.217 1.346-.023 2.65-.722 3.91-.853 1.538-2.11 2.502-3.775 2.892-1.06.244-2.312.172-3.76-.215l1.1 9.835c.15 1.276.3 2.103.452 2.482.244.55.634.995 1.17 1.333l-.315.568-6.564-3.64-1.45-13.225-1.368-.76zm5.668-10.223l-5.063 9.131.876.486c1.424.79 2.563 1.25 3.415 1.382.852.13 1.67-.033 2.452-.49.783-.457 1.478-1.234 2.086-2.33.881-1.589 1.16-2.968.838-4.139-.323-1.17-1.309-2.213-2.959-3.128l-1.645-.912zm37.34 22.66l-4.961 6.606-.549-.412c.883-2.033 1.107-3.932.672-5.695-.435-1.762-1.365-3.178-2.79-4.248a7.067 7.067 0 0 0-4.045-1.433 7.483 7.483 0 0 0-4.195 1.049c-1.653.971-3.13 2.324-4.432 4.058-1.28 1.705-2.231 3.42-2.852 5.145-.621 1.724-.741 3.29-.361 4.696.38 1.407 1.3 2.659 2.763 3.757 1.199.9 2.495 1.463 3.887 1.688 1.392.224 3.123.11 5.193-.344l-1.235 1.645c-1.906.313-3.626.286-5.16-.082-1.533-.368-3.073-1.132-4.62-2.293-2.033-1.527-3.533-3.291-4.5-5.292-.967-2.001-1.305-4.087-1.016-6.258.29-2.172 1.082-4.12 2.377-5.844 1.365-1.818 3.135-3.185 5.31-4.101 2.176-.917 4.41-1.218 6.702-.903 2.292.314 4.347 1.154 6.165 2.519 1.34 1.006 2.537 2.359 3.59 4.059.61.984 1.03 1.565 1.265 1.74.3.226.643.311 1.028.256.386-.055.79-.296 1.215-.725l.549.412zm2.094 19.538l-5.226 5.215c-.863.861-1.354 1.447-1.475 1.758-.12.31-.123.685-.007 1.125.115.439.409.895.88 1.368l.56.56-.46.459-8.804-8.822.46-.459.559.56c.488.49.968.796 1.44.921.332.1.697.067 1.095-.098.29-.108.858-.583 1.704-1.428l11.098-11.076c.863-.86 1.357-1.444 1.481-1.75.125-.307.13-.68.014-1.12-.116-.439-.41-.895-.881-1.368l-.56-.56.461-.459 8.804 8.822-.46.46-.56-.56c-.488-.49-.968-.797-1.44-.922-.331-.1-.7-.071-1.106.086-.29.107-.859.583-1.705 1.427l-4.778 4.769 5.948 5.96 4.778-4.769c.863-.86 1.356-1.444 1.48-1.75.125-.307.128-.682.008-1.126-.12-.443-.415-.901-.887-1.374l-.546-.547.46-.46 8.791 8.81-.46.459-.547-.548c-.496-.498-.977-.805-1.44-.921-.332-.1-.7-.071-1.107.086-.29.107-.858.583-1.704 1.427l-11.099 11.076c-.862.861-1.356 1.445-1.48 1.751-.125.307-.128.682-.008 1.125.12.444.416.902.887 1.375l.547.547-.46.46-8.792-8.81.46-.459.547.547c.497.498.977.805 1.44.922.332.1.701.07 1.107-.086.29-.108.858-.583 1.704-1.428l5.226-5.215-5.947-5.96zm28.463 15.334l-7.74 5.85.285.38c.912 1.205 1.951 1.793 3.118 1.763 1.167-.03 2.546-.529 4.136-1.496l.403.533-9.956 7.526-.403-.533c1-.932 1.71-1.84 2.129-2.722.42-.883.569-1.653.447-2.31-.122-.657-.526-1.439-1.212-2.345l-5.356 4.049c-1.047.791-1.654 1.32-1.82 1.585-.167.266-.234.576-.2.932.035.357.257.806.667 1.348l.858 1.136c1.343 1.776 2.83 2.888 4.462 3.337 1.632.449 3.465.27 5.502-.534l.392.519-6.69 3.713-12.423-16.435.518-.392.477.631c.417.552.851.921 1.302 1.11.314.144.68.161 1.097.052.302-.067.93-.46 1.883-1.182l12.509-9.454c.86-.65 1.37-1.073 1.531-1.268.257-.341.378-.705.365-1.091-.006-.554-.243-1.139-.71-1.756l-.476-.63.518-.393 12.031 15.916-5.623 4.25-.403-.532c1.17-1.31 1.868-2.437 2.095-3.38.227-.943.142-1.97-.256-3.079-.227-.65-.885-1.695-1.973-3.135l-1.484-1.963z" font-size="34.53" font-weight="400" fill="#07814b" font-family="Bitstream Vera Sans"/></svg>