<svg height="530" width="800" xmlns="http://www.w3.org/2000/svg"><path d="m0 .333h800v530z" fill="#ec1b23"/><path d="m0 530.333v-530l800 530z" fill="#fff100"/><path d="m557.435 181.771c2.233 5.36-12.197 10.547-15.322 14.453-3.683 4.954-19.897 19.787-20.182 24.349-.912 14.583 7.181 28.404 13.281 53.125 5.489 22.245 7.596 39.322 10.025 44.4 1.743 3.642 8.625 13.69 7.812 20.183-1.041 8.333-8.289 14.888-13.541 15.495-5.253.607-16.319-3.949-20.27-4.645-3.949-.694-41.71-5.121-61.806-13.541-18.382-7.702-48.915-33.508-48.915-33.508l18.229-31.25s32.845 8.679 51.953 18.1c11.399 5.62 38.542 29.947 38.542 29.947s-14.062-15.494-16.537-29.036c-1.861-10.19 3.082-46.051-2.604-59.766-2.225-5.366-11.806-15.104-9.375-21.875 2.43-6.771 13.021-3.906 20.052-8.203 3.812-2.33 11.83-13.955 21.919-17.535 8.072-2.865 10.286.868 13.541.347 5.211-3.818 11.461-5.207 13.198-1.04zm-166.236 253.491c-7.692-1.061-1.566-14.736-3.387-19.396-1.875-3.887-7.778-20.9-12.177-25.523-10.074-10.584-29.091-8.504-53.55-15.582-22.009-6.368-37.852-13.083-43.465-13.517-4.025-.312-16.83-.8-22.046-4.749-6.696-5.069-8.749-14.622-6.648-19.475 2.101-4.852 11.58-12.159 14.156-15.231 2.577-3.073 24.304-28.176 46.357-42.721 16.637-10.974 66.16-24.4 66.16-24.4l10.323 35.192s-19.221 16.697-38.007 26.745c-20.177 10.792-58.258 20.905-58.258 20.905s21.733-5.333 34.697-.705c9.756 3.483 38.34 25.694 53.061 27.628 5.76.756 18.982-2.671 23.632 2.818 4.648 5.489-3.127 13.23-2.922 21.468.112 4.466 7.055 13.171 5.111 23.699-1.556 8.424-6.832 10.79-8.008 13.87-.76 3.921-2.4 9.337-5.029 8.974zm-144.497-261.477c4.201-4.368 9.027 2.431 18.402 7.465 7.532 4.045 33.333 5.729 38.542 2.604 12.529-7.517 20.71-19.67 39.068-37.314 16.521-15.876 29.214-27.282 32.398-31.925 2.282-3.331 7.162-12.892 13.19-15.435 7.738-3.265 17.039-.266 20.19 3.98 3.151 4.244 7.556 15.42 8.93 19.188 1.373 3.768 10.351 24.396 13.138 50.675 3.284 30.969-6.569 69.914-6.569 69.914l-41.761-2.815s-5.63-37.538-3.285-51.614c1.499-8.991 12.124-49.9 12.124-49.9s-9.754 23.952-20.245 32.865c-7.894 6.708-41.42 18.274-50.456 30.056-3.535 4.609-6.306 16.96-14.9 18.002-9.597 1.163-16.667-4.688-22.917-13.802-6.511-1.562-14.679-4.457-21.354-8.073-6.25-3.385-7.373-8.945-7.292-12.24-4.247-1.913-10.362-8.347-7.203-11.631z" style="stroke-miterlimit:10;fill:#ffc8a0;stroke:#000;stroke-width:3;stroke-linecap:round;stroke-linejoin:round" transform="matrix(1 0 0 .99375 0 .333)"/><path d="m423.003 258.681c-.347 14.757 9.723 26.215 9.723 26.215s5.095-5.815 8.594-5.815c4.08 0 30.209 13.542 34.896 12.674 1.813-.336-2.594-19.643-6.338-29.688-3.559-9.549-10.156-18.664-17.447-21.962-4.333-1.959-16.667-3.125-21.875.348-5.209 3.471-7.435 13.194-7.553 18.228z" style="stroke-miterlimit:10;fill:#ebb437;stroke:#000;stroke-width:2;stroke-linecap:round;stroke-linejoin:round" transform="matrix(1 0 0 .99375 0 .333)"/><path d="m376.249 258.16c.054 12.587-9.321 26.909-9.321 26.909s-5.496-6.509-8.995-6.509c-4.079 0-31.543 14.756-36.23 13.888-1.814-.336 3.929-20.858 7.672-30.902 3.559-9.548 10.156-18.664 17.448-21.962 4.333-1.96 16.667-3.125 21.875.347 5.207 3.473 7.53 13.194 7.551 18.229z" style="stroke-miterlimit:10;fill:#ebb432;stroke:#000;stroke-width:2;stroke-linecap:round;stroke-linejoin:round" transform="matrix(1 0 0 .99375 0 .333)"/><path d="m336.719 248.351c-7.7.301-16.52 6.949-23.52 9.449 1.2-4.8 6.609-9.598 7.808-14.397-3.299-.347-12.083 3.683-14.583 5.382-2.2 3.701-7.726 14.15-9.896 19.965-1.476-3.299.677-8.29-1.823-5.989-2.9 2.499-8.594 10.069-15.191 12.674.694-2.69 4.691-8.948 2.691-8.247-1.2.9-11.5 6.886-12.5 7.986-1.215-2.256 2.426-5.936-.174-6.336-1.2.8-12.441 5.162-13.542 6.162-1.6-1.2 4.985-5.831 3.385-7.031-3.2.899-10.229 4.494-12.76 4.08-.968-.157 4.253-3.939 1.302-3.992-5.068-.091-11.214.862-12.326-.001 3.5-2 18.209-6.955 19.909-10.556 1.1-1.6-7.231-2.28-7.93-3.681 2.1-1.1 10.851-4.166 13.542-4.514 1-1.5.703-.991 1.302-2.691-3.212-1.302-9.846-.581-11.545-.781 3.9-2.1 15.885-6.163 21.528-6.771-3.1-2.101-7.785-2.377-11.285-2.778 3.199-1.5 8.288-1.084 11.788-.884 5.301.399 7.13-.23 12.431-.331-3.2-1.3-6.509-2.486-9.809-3.385 12.966-2.213 19.531 6.771 33.579 5.315-4.933-2.365-8.26-6.912-9.36-10.611 12.934 4.253 24.914 1.91 34.201 2.344 5.8.1 17.03 3.085 22.83 3.385 2.431-9.635 8.854-15.321 20.92-15.538 3.646-4.427 12.5-13.455 23.525-4.861 9.461-8.333 14.539 1.432 18.445 1.432 15.104 0 20.79 10.114 22.18 14.801 3.124-3.298 3.906-7.031 5.381-9.201 1.216-1.91 2.258-3.212 4.341-5.035.199-2-.348-3.993.954-7.378.868-2.777 1.65-4.861 1.39-7.118-1.389-2.344-3.906-4.774-3.56-7.986-2.5-4-4.809-9.61-5.208-14.41-.601-8.099-.158-10.763 1.042-18.663.781 3.472 2.04 5.354 2.43 4.861.858-1.084.175-12.207 1.129-14.236.955 2.344 2.994 4.708 3.732 3.038.87-1.968.662-12.149 1.042-14.583.3 0 .984 11.2 3.386 13.194-.501-2.5.743-9.311 2.344-11.111.781 1.389 1.403 4.596 2.604 5.295 1.042-1.476 3.653-13.119 3.553-15.918 1.9 3.6 2.351 11.317 2.177 15.571 1.389 1.91 3.125 4.861 3.732 9.288 1.216-1.823 3.385-5.255 3.385-8.854 2.604 10.677-1.041 20.66.781 21.875.545-.334 2.952-2.517 4.255-7.726 1.128 11.632-.608 16.841-1.997 20.052.521.174 2.951-.781 3.992-1.823-1.735 6.51-5.381 12.152-11.544 14.757-1.389 6.336-4.466 5.254-7.466 8.854.259 4.948-.521 12.5-2.604 17.188.954-1.215 13.977-11.632 22.396-23.351-.26 7.118-3.646 14.583-7.552 22.135-2.604 4.34-6.815 9.458-9.114 11.458-5.469 5.122-11.11 9.765-17.23 11.588-7.683 4.948-.076 15.123-6.12 21.615-3.516 3.776-8.463 5.339-13.802 3.516.253 4.946 2.518 10.851 8.333 15.364-1.562 20.443-17.101 28.386-24.609 33.594 1.736 3.298 1.579 6.939 1.433 7.553-.8 2.599-.944 1.746-.745 4.445 1.001 4.601 4.601 7.9 8.001 10.9-1.7-.2-3.3-.4-5-.6 1.4 2.8 3.2 5.699 6.5 6.399 5 1.2 13.121 4.378 17.72 6.979-4.599 2.499-12.713-.298-17.013 2.604 2.43 3.125 6.787 5.762 9.893 6.518 4.797 1.3 9.897 1.601 14.797 1.401 2.1.101 7.597.851 10.028 1.72 7.552 2.517 11.065 5.683 16.666 9.982-1.4-.1-5.295-.302-6.694-.402 2.1 2.801 14.391 6.991 16.591 9.69-3.56.868-6.32 2.24-3.82 4.34 2.2 1.101 7.102 2.533 9.201 3.733-1.899-.499-7.672.337-9.572-.063 3.583 2.407 11.136 4.316 15.649 5.879-3.56 1.042-11.629.465-13.629-.435 1.997 2.345 3.386 3.994 5.469 5.903-5.729-.955-11.775-3.894-13.976-5.295.087 1.736 2.518 4.688 4.254 7.292-2.7.1-14.746-5.059-16.146-6.858-1.499.601 1.631 5.137 2.431 6.338-3.398-1-10.59-6.077-12.761-7.64.261 2.691.954 5.903.521 7.031-4.254-6.423-19.879-11.284-21.268-22.482-2.899-2-4.745-3.934-5.545-7.434-.3-2.001-2.823-4.8-4.524-5.501-.043 6.111-1.783 15.539-2.083 15.539-2.8-9.602-5.632-14.857-11.632-22.657-1.909-1.737-4.004-6.924-5.903-6.424-1.4.302-3.414 4.769-4.514 4.167-1.959-.165 1.572-6.251.348-8.16-1.027-1.602-6.945.868-9.375-.868-1.601-6.2-1.455-11.669-.955-17.969.5-2.3-2.518-3.819-3.038-7.031-.701-3.199 2.229-7.304 1.128-10.503-12.413-6.163-22.179-14.106-23.481-31.554 0 0 .998-7.422 5.599-13.933-5.729-1.823-12.109-6.467-13.672-14.974-7.682 11.588-19.922 12.891-25.781 12.37 1.432-6.509 6.38-13.931 8.203-15.45z" stroke="#000" stroke-linecap="round" stroke-linejoin="round" transform="matrix(1 0 0 .99375 0 .333)"/><path d="m362.327 265.625c-3.299 4.948-4.081 12.848-4.081 12.848m.608-17.362c-4.34 6.25-5.902 18.229-5.902 18.229m1.649-22.135c-5.035 8.073-7.292 24.653-7.292 24.653m1.129-22.831c-8.594 14.062-8.247 26.303-8.247 26.303m-.608-21.094c-8.594 13.715-7.552 24.652-7.552 24.652m103.299-21.353c3.559 4.428 4.167 11.632 4.167 11.632m-.174-13.368c3.385 3.906 5.469 13.716 5.469 13.716m-1.389-17.276c5.208 6.338 7.031 19.358 7.031 19.358m-2.952-24.305c9.636 13.541 9.983 27.257 9.983 27.257m-.434-24.045c8.594 13.715 8.507 28.038 8.507 28.038" fill="none" stroke="#000" stroke-linecap="round" stroke-linejoin="round" stroke-miterlimit="10" transform="matrix(1 0 0 .99375 0 .333)"/><path d="m399.566 242.014c10.417 0 28.109 4.906 29.427 24.305 1.91 28.125-21.181 44.792-29.341 44.792-9.288 0-31.076-16.319-29.166-45.573 1.256-19.229 18.83-23.524 29.08-23.524z" style="stroke-miterlimit:10;fill:#ffc8a0;stroke:#000;stroke-width:2;stroke-linecap:round;stroke-linejoin:round" transform="matrix(1 0 0 .99375 0 .333)"/><path d="m419.358 271.44s-3.126-1.866-6.077-1.822c-2.951.043-6.076 2.083-6.076 2.083s3.689 2.17 6.38 2.171 5.773-2.432 5.773-2.432zm-26.91.088s-3.559-2.301-5.513-2.604c-1.953-.303-6.64 1.562-6.64 1.562s3.603 2.777 6.033 3.039c2.431.261 6.12-1.997 6.12-1.997z" stroke="#000" stroke-linecap="round" stroke-linejoin="round" stroke-miterlimit="10" transform="matrix(1 0 0 .99375 0 .333)"/><path d="m421.094 265.191s-3.299-2.908-9.028-2.734-8.55 3.646-9.244 5.078c-.442.912-.26 11.675.087 13.021s3.732 4.86 3.298 6.597-2.127.955-3.342 1.648c-1.215.696-2.213 1.562-3.038 1.562-1.562 0-1.779-.913-3.472-1.432-1.53-.471-3.473 0-3.993-1.433-.518-1.424 1.605-3.212 1.605-3.212m-.217-18.922s-2.387-2.777-7.986-2.907c-5.599-.131-9.071 3.429-9.461 4.688s.478 2.517.478 2.517" fill="none" stroke="#000" stroke-linecap="round" stroke-linejoin="round" stroke-miterlimit="10" transform="matrix(1 0 0 .99375 0 .333)"/><path d="m420.486 275.521s-3.429 3.386-7.205 3.386-8.94-3.906-8.94-3.906m-11.415.91s-4.341 2.865-7.118 2.865c-2.778 0-4.515-1.085-4.515-1.085" fill="none" stroke="#000" stroke-linecap="round" stroke-linejoin="round" stroke-miterlimit="10" transform="matrix(1 0 0 .99375 0 .333)"/><path d="m399.479 296.949c-.89 0-2.361-.642-2.361-.642-1.003-.113-3.933-.049-5.517-.351-1.685-.321-3.736-1.934-3.928-2.2-.167-.23.373-.684.606-.85.235-.167.683-.166.728.117.163 1.036 1.908 2.012 2.789 2.158 2.344.388 5.625-.984 5.755-.886l1.919.44 1.894-.496c.122-.1 3.802 1.07 6.492.853.828-.065 2.474-.927 2.851-2.093.087-.273.51-.257.733-.076.223.18.59.698.408.92-.207.253-2.148 1.66-3.797 2.048-1.486.351-4.927.324-6.25.497.001 0-1.28.56-2.322.56z"/><g stroke-miterlimit="10"><path d="m404.688 301.302s-3.45 1.498-5.078 1.498c-2.019 0-5.426-1.498-5.426-1.498" fill="none" stroke="#000" stroke-linecap="round" stroke-linejoin="round" stroke-width="1.5" transform="matrix(1 0 0 .99375 0 .333)"/><path d="m429.167 231.293c-.868.043-2.344-2.647-2.344-4.688 0-2.04-.173-3.906-1.649-5.381-1.13-1.129-3.212-1.302-4.861-1.237s-4.774.543-4.817-1.172c-.044-1.714 3.017-3.754 6.163-3.754s5.815 1.801 6.987 3.472 1.966 4.625 2.041 6.294c.085 1.909-.1 6.396-1.52 6.466zm-51.042-12.087c.26.89-6.242 4.874-8.203 6.25-3.06 2.148-5.815 4.883-5.208 8.529.476 2.858 2.57 4.266 4.427 4.73 2.604.651 5.946-.26 5.946-.26s.282 1.671 1.389 2.388c1.107.716 3.472 1.605 3.472 1.605s-4.362 1.888-9.375 1.628c-5.013-.261-9.57-3.386-9.961-7.748s.261-7.617 2.604-10.612c1.598-2.042 4.752-4.688 7.552-5.794 2.164-.856 7.097-1.606 7.357-.716z" fill="#ebb437" stroke="#ebb437" stroke-linecap="round" stroke-linejoin="round" stroke-width=".5" transform="matrix(1 0 0 .99375 0 .333)"/><ellipse cx="377.539" cy="234.147" fill="#ebb437" rx="2.409" ry="1.139" stroke="#ebb437" stroke-linecap="round" stroke-linejoin="round" stroke-width=".5" transform="matrix(-.838 .54229 -.5457 -.83276 821.684 223.273)"/><path d="m391.602 226.627s-6.185-.065-8.333 1.562c-1.807 1.369-2.213 2.604-1.823 3.516.391.912 1.758 1.758 4.492.651 3.11-1.258 5.664-5.729 5.664-5.729z" fill="#ebb437" stroke="#ebb437" stroke-linecap="round" stroke-linejoin="round" stroke-width=".5" transform="matrix(1 0 0 .99375 0 .333)"/><ellipse cx="391.081" cy="222.461" fill="#ebb437" rx="5.013" ry="2.409" stroke="#ebb437" stroke-linecap="round" stroke-linejoin="round" stroke-width=".5" transform="matrix(-.9441 .32764 -.3297 -.9382 833.64 301.982)"/><path d="m398.503 217.513c1.822-2.019-.679-6.445-6.532-6.445-5.469 0-10.606 8.437-11.927 9.886-2.182 2.395-6.627 6.588-11.445 9.5-2.909 2.033.086 5.483 2.755 5.028 1.099-.188 8.326-6.663 10.091-8.594 2.083-2.279 4.439-5.638 5.403-7.031 1.172-1.693 3.3-3.711 4.818-3.711 3.321 0 5.357 3.005 6.837 1.367zm16.211-1.628c.718-1.301-.087-4.167-5.426-4.167-4.688 0-9.802 8.79-10.785 10.417-1.628 2.691-3.624 6.467-8.442 9.766 4.948.261 8.052 0 8.052 0s2.994-2.669 4.166-4.948 2.148-5.729 3.061-7.096c.911-1.367 2.233-2.904 3.58-3.255 1.497-.391 4.752 1.171 5.794-.717z" fill="#ebb437" stroke="#ebb437" stroke-linecap="round" stroke-linejoin="round" stroke-width=".5" transform="matrix(1 0 0 .99375 0 .333)"/><path d="m409.549 218.793c.607-.781 3.516.521 4.036 1.042.521.521 2.561 5.382 4.904 6.988 2.344 1.606 4.819 2.17 5.687 2.561s2.561 3.082 2.387 4.601-5.469 4.948-5.469 4.948.869-4.688-1.996-6.554c-2.277-1.483-6.511-.998-8.03-1.259-1.519-.26-6.554-2.04-6.51-3.472.043-1.433 2.127-4.774 2.127-4.774s3.992 3.906 4.947 2.908c.956-.999-2.691-6.207-2.083-6.989z" fill="#ebb437" stroke="#ebb437" stroke-linecap="round" stroke-linejoin="round" stroke-width=".5" transform="matrix(1 0 0 .99375 0 .333)"/><path d="m418.74 236.082c-.036-.943-6.027-2.916-8.943-2.965-2.915-.049-7.178.83-7.581 2.673-.341 1.555 3.5 4.617 4.715 4.617 1.214 0 1.991-2.479 3.838-3.014 1.846-.535 8.068 1.313 7.971-1.311z" fill="#ebb437" stroke="#ebb437" stroke-linecap="round" stroke-linejoin="round" transform="matrix(1 0 0 .99375 0 .333)"/><path d="m419.271 251.042c-3.622.499-10.63-.801-13.541-2.995-1.74-1.311-9.433-8.562-13.281-9.245-4.492-.797-10.417 5.469-14.695.801-1.845-2.013 3.755-4.19 6.103-4.824 2.347-.633 9.114-1.705 11.978-.925s9.007 6.188 11.589 8.38c2.579 2.193 10.024 7.332 11.847 8.808z" fill="#ebb437" stroke="#000" stroke-linecap="round" stroke-linejoin="round" stroke-width="2" transform="matrix(1 0 0 .99375 0 .333)"/><path d="m433.724 221.68c2.084-.456 3.061 5.794 3.19 8.789s-.911 9.375-1.953 9.375-1.692-1.823-1.692-1.823 1.106-4.102-.912-5.925c.391-1.562.977-2.995.781-5.013s-.815-5.097.586-5.403z" fill="#ebb437" stroke="#ebb437" stroke-linecap="round" stroke-linejoin="round" stroke-width=".5" transform="matrix(1 0 0 .99375 0 .333)"/><path d="m431.572 233.129c3.386 1.318-3.727 9.856-5.269 10.766-3.023 1.785-11.971 2.313-13.979 1.298-2.341-1.183-5.64-4.134-5.64-4.134s11.246 1.82 15.538.086c4.958-2 7.264-8.828 9.35-8.016z" fill="#ebb437" stroke="#000" stroke-linecap="round" stroke-linejoin="round" transform="matrix(1 0 0 .99375 0 .333)"/><ellipse cx="433.529" cy="244.77" fill="#ebb437" rx="1.931" ry="3.971" stroke="#ebb437" stroke-linecap="round" stroke-linejoin="round" stroke-width=".5" transform="matrix(.8633 -.50145 .5046 .8579 -64.27 250.977)"/><ellipse cx="428.322" cy="246.268" fill="#ebb437" rx="1.541" ry="2.082" stroke="#ebb437" stroke-linecap="round" stroke-linejoin="round" stroke-width=".5" transform="matrix(.8505 -.52271 .526 .84518 -65.497 260.8)"/><path d="m439.41 230.252c-.044 5.339-1.997 9.766-1.866 11.198.13 1.432 1.562 2.56 3.038 3.428 1.477.869 3.386 1.562 3.906 1.085.521-.477.608-2.04.131-2.908-.479-.868-2.258-1.085-2.692-2.474-.434-1.388.044-2.995-.26-4.948-.305-1.952-1.605-4.556-2.257-5.381z" fill="#ebb437" stroke="#ebb437" stroke-linecap="round" stroke-linejoin="round" stroke-width=".5" transform="matrix(1 0 0 .99375 0 .333)"/><path d="m413.629 246.181c2.275.104 8.371-.895 9.636-.173 1.266.721 5.497 6.931 5.902 8.68.403 1.75.057 4.427-1.057 5.713-4.412-4.151-10.488-11.529-14.481-14.22z" fill="#ebb437" stroke="#000" stroke-linecap="round" stroke-linejoin="round" stroke-width="2" transform="matrix(1 0 0 .99375 0 .333)"/><path d="m430.599 249.696c-1.995.521 1.042 5.99.912 7.292-.131 1.302-2.04 2.907-1.996 3.559s3.992 3.342 6.423 3.342c1.998 0 5.989-3.081 6.641-4.557s1.302-4.991.825-7.552c-.478-2.561-4.602-5.251-4.602-5.251s-1.084 2.083-1.128 3.689c-.044 1.605 1.259 3.559 1.433 4.861s-.738 3.56-1.216 4.123c-.478.564-3.081 1.129-3.862.521s1.648-3.342 1.648-5.382c0-1.823-3.082-5.166-5.078-4.645z" fill="#ebb437" stroke="#ebb437" stroke-linecap="round" stroke-linejoin="round" stroke-width=".5" transform="matrix(1 0 0 .99375 0 .333)"/><path d="m393.75 239.583c2.212 0 6.25 4.167 6.25 4.167s-6.666 3.736-9.859 4.535c-3.195.799-8.497 1.117-11.55 2.057s-5.785 8.372-8.557 8.231-1.926-4.838-1.926-4.838.799-5.215 4.321-7.282c3.523-2.067 9.208-2.114 12.824-2.865 3.618-.753 5.256-4.005 8.497-4.005z" fill="#ebb437" stroke="#000" stroke-linecap="round" stroke-linejoin="round" stroke-width="2" transform="matrix(1 0 0 .99375 0 .333)"/><path d="m367.274 246.962s-.737 3.429-1.605 3.95c-.869.521-5.339-4.514-5.208-6.858.13-2.35 6.813 2.908 6.813 2.908z" fill="#ebb437" stroke="#ebb437" stroke-linecap="round" stroke-linejoin="round" stroke-width=".5" transform="matrix(1 0 0 .99375 0 .333)"/><ellipse cx="364.132" cy="253.877" fill="#ebb437" rx="1.012" ry="2.684" stroke="#ebb437" stroke-linecap="round" stroke-linejoin="round" stroke-width=".5" transform="matrix(.7859 -.61444 .6183 .78099 -79.027 278.068)"/><path d="m359.299 246.779c-1.897-1.314-2.918 1.747-2.918 4.378 0 3.162 1.605 6.664 4.329 9.631s9.343 4.663 9.343 4.663l.911-5.556s-6.162.168-9.038-3.388c-2.676-3.307-.73-8.415-2.627-9.728z" fill="#ebb437" stroke="#000" stroke-linecap="round" stroke-linejoin="round" transform="matrix(1 0 0 .99375 0 .333)"/><path d="m359.375 241.189c-3.646 2.561-5.078 7.509-5.078 7.509s-1.78-6.857-1.736-9.505c.043-2.648 1.649-5.946 3.646-5.772 1.996.173 1.302 5.121 3.168 7.768zm-11.805 1.433c2.344 0 3.385 7.725 3.298 8.941s-3.125 4.86-6.597 7.031c-3.473 2.17-8.637 3.56-10.156 2.344-1.52-1.216 2.167-8.184 4.297-10.981 2.213-2.908 6.814-7.335 9.158-7.335zm81.011 37.261c.3 1.035 1.643 1.164 3.301.683s2.208-1.926 1.907-2.961c-.3-1.036-1.338-1.271-2.996-.791-1.658.481-2.514 2.034-2.212 3.069zm6.445 2.148s-3.972 1.497-6.901 1.389c0 .825-1.823 4.254-1.823 4.254s6.315.261 7.812-1.085c1.498-1.346.912-4.558.912-4.558zm.13 6.902s-6.38 1.172-9.636.737c-.195.955-1.302 2.257-1.302 2.257s4.731 3.646 7.031 2.734c2.301-.911 3.907-5.728 3.907-5.728zm-4.687 7.812s-5.403-1.042-7.747-2.475c-.456 1.172-1.823 2.604-1.823 2.604s2.474 3.19 4.883 3.125 4.687-3.254 4.687-3.254zm-4.167 5.078s-5.664-1.303-7.096-2.409c-.456.911-2.865 3.19-2.865 3.19s2.084 2.539 4.232 2.344 5.729-3.125 5.729-3.125zm-12.11 2.994 5.859 2.214s-3.189 2.8-5.989 2.93-3.841-1.628-3.841-1.628zm-44.01-28.515c.13 1.562-.719 1.294-2.377.813s-2.758-1.711-2.457-2.747c.3-1.035 1.483-1.281 3.142-.801 1.657.482 1.603 1.661 1.692 2.735zm-5.989 1.042s3.27 3.346 7.319 4.008c-.154.811 1.405 4.977 1.405 4.977s-5.745-1.344-7.552-3.06-1.172-5.925-1.172-5.925zm1.172 9.375s4.968 1.817 8.919 2.864c.261 1.303 1.367 3.776 1.367 3.776s-5.664.586-7.422-.521c-2.55-1.605-2.864-6.119-2.864-6.119zm3.906 8.854s5.507.672 8.594.781c.13 1.106 2.083 3.06 2.083 3.06s-4.098 2.555-6.51 1.106c-2.413-1.448-4.167-4.947-4.167-4.947zm6.51 7.682s4.492-.977 5.924-2.083c.456.911 2.344 2.734 2.344 2.734s-1.953 2.409-4.102 2.214-4.166-2.865-4.166-2.865zm10.417 3.06-3.634 1.562s1.028 2.055 3.829 2.148c1.953.064 2.799-1.433 2.799-1.433zm22.005 3.711c-2.214 1.822-5.859 2.669-5.859 2.669s7.489 12.107 9.636 9.961c3.254-3.255-1.303-10.807-3.777-12.63zm-10.872 3.321s-1.889 1.692-3.386 2.474c3.125 1.433 7.683 9.505 9.114 5.859 1.433-3.646-5.728-8.333-5.728-8.333zm8.008 9.505s-1.209 2.569-.977 4.036c.586 3.711 9.114 8.073 9.18 4.818.064-3.256-8.203-8.854-8.203-8.854zm-14.128-12.696 2.93 1.823s-2.019 3.385-4.297 2.344c-2.279-1.042 1.367-4.167 1.367-4.167z" fill="#ebb437" stroke="#ebb437" stroke-linecap="round" stroke-linejoin="round" stroke-width=".5" transform="matrix(1 0 0 .99375 0 .333)"/><ellipse cx="391.113" cy="321.321" fill="#ebb437" rx="2.897" ry="3.939" stroke="#ebb437" stroke-linecap="round" stroke-linejoin="round" stroke-width=".5" transform="matrix(1 0 0 .99375 0 .333)"/><path d="m397.136 322.591a574.935 574.935 0 0 1 -1.953 3.061s1.758 2.864 2.278 5.533c1.433.131 3.19-1.302 3.19-3.906 0-1.823-2.343-4.557-3.515-4.688zm6.054 8.138-1.237 1.497s2.995 6.315 4.883 8.528c1.302-6.64-3.646-10.025-3.646-10.025zm6.576 4.883c-.456.781-.325 4.166.456 5.924s4.112 5.311 6.836 6.186c5.469 1.758 17.708.977 17.708.977s-10.026-4.297-14.714-6.771c-3.768-1.988-6.25-6.705-6.25-6.705s-3.58-.392-4.036.389zm-17.253-8.203c-1.562 0-2.669 1.692-2.669 3.775 0 1.562 1.433 4.818 3.255 4.948 1.823.13 2.019-4.167 2.019-4.167s-1.043-4.556-2.605-4.556zm6.771 5.924s-1.722 2.245-1.367 4.167c.911 4.948 5.823 12.835 8.203 15.039 2.669 2.474 5.338 6.698 6.25 8.138 2.474 3.906 7.161 13.803 7.161 13.803s.521-7.292-1.302-12.761c-.634-1.902-3.842-6.185-5.209-8.073s-4.492-4.297-6.575-7.161-7.161-13.152-7.161-13.152zm-3.972 4.948c.391 2.995 2.734 6.511 2.734 6.511s-4.569.061-5.859-2.019c-1.172-1.888-.521-4.102-.521-4.102s1.954-.194 3.646-.39z" fill="#ebb437" stroke="#ebb437" stroke-linecap="round" stroke-linejoin="round" stroke-width=".5" transform="matrix(1 0 0 .99375 0 .333)"/><path d="m415.625 351.497c-1.692 1.237 11.676 13.087 16.494 24.546.846-.326 4.144-4.103 5.056-8.855 2.148 1.042 4.883 1.562 8.072 1.758 3.19.195 7.748-.195 7.748-.195s-1.758-5.599-5.469-6.641-7.553.521-10.808-.13c-3.254-.652-20.042-11.251-21.093-10.483zm37.565 12.37 3.32 4.948 5.403.13s-1.106-3.06-3.711-4.427c-1.264-.664-5.012-.651-5.012-.651m6.706 10.872-4.297-3.45h-6.576l3.646 3.386zm1.042-3.58 4.362 4.232 5.728.26-5.208-4.557z" fill="#ebb437" stroke="#ebb437" stroke-linecap="round" stroke-linejoin="round" transform="matrix(1 0 0 .99375 0 .333)"/><path d="m448.698 374.805-4.037-3.516-5.664-.195 5.469 5.339 4.362.39zm-6.445 3.45-5.144-3.971-2.409 3.32 3.906 4.362 4.297.39zm9.57 4.167-2.865-3.32h-3.125l-.13 3.515 3.581 3.06 2.604-.13zm-2.929 6.836-4.428-4.622-3.45.195.13 2.604 5.404 4.557 2.344-.065zm10.416-9.441-3.385-2.603-3.647-.066.066 1.888 3.385 2.93 3.711.065zm7.943-2.343-5.99.13 6.445 4.232h2.995v-2.083zm1.302 8.007-4.297-3.906-2.605-.064.261 2.734 2.93 3.45 3.645.196zm-12.044 2.475-.066-2.8 3.451.196 3.906 4.101-.13 3.255-3.386-.391zm-3.256.781-2.213-.065 3.06 4.231 3.32.196-3.581-6.446zm25.976-4.883-3.775-3.385-2.539.065-.065 3.19 3.515 2.148 2.93.586zm-6.77 9.44-4.036-3.255-2.605.065v2.799l4.036 2.8 2.93.066zm6.901-2.344-5.729-4.752-2.735-.065.066 3.059 5.273 3.842 3.776.325zm-.195-188.171c-14.323 17.014-33.767 32.291-33.767 32.291s2.836 2.601 6.856 1.563c5.382-1.389 16.902-15.141 19.618-18.837 3.126-4.254 5.904-9.636 7.293-15.017zm-26.996 14.495c.607 1.736 1.042 5.989.347 7.726-.694 1.736-8.507 7.466-8.507 7.466l-.607-3.56c-.001 0 5.554-5.555 8.767-11.632zm16.058-24.739c-3.43.456-11.154.586-14.41 0-.478 2.496 3.112 5.386 2.951 7.292-.304 3.602-2.56 7.053-2.776 9.896-.218 2.843 1.909 11.806 1.909 11.806s3.429-5.057 4.514-8.854c1.084-3.798.565-9.31 1.129-11.545.563-2.237 7.053-4.038 6.683-8.595zm7.096-14.41-5.533 5.143v6.771s4.036-2.799 5.143-5.273c.726-1.623.39-6.641.39-6.641zm-8.008 4.102s.391 5.99-.586 7.162-2.344.586-2.344.586l-.13-5.599zm-5.859 7.291-.064-8.854s-2.67.781-2.67 2.409 2.734 6.445 2.734 6.445zm-3.775 0-3.19-8.724-3.646 3.646s.13 4.492 1.692 5.273 5.144-.195 5.144-.195zm17.838-15.039-3.711 2.669-1.368-7.812 3.777-3.32zm-7.552-2.864 1.692 6.966-1.367 1.562-1.953-5.664zm-4.753-1.823 1.237 11.068s-2.539-2.734-2.8-4.623c-.259-1.888 1.563-6.445 1.563-6.445zm-5.924-1.563 2.604 6.641-3.06 4.232-1.563-5.99zm-8.92 9.57.066-5.012 1.692-2.8 3.19 2.8v5.468l-3.059 2.669zm3.776-19.14 2.344 1.758 1.107 5.729-2.083 2.799-3.125-2.213-.196-4.623zm8.399 1.302-1.693-4.492-1.888 4.036 1.042 6.25 2.669 1.953zm5.989 2.213-2.344-4.426-1.431 2.408-.066 5.86 3.646 2.864zm5.209-1.757-1.107-3.255-2.149 4.036.196 6.51 2.474-2.018zm-8.789-10.547.195 5.143 4.166 2.279 2.084-3.841-2.343-6.576-2.28-1.888z" fill="#ebb437" stroke="#ebb437" stroke-linecap="round" stroke-linejoin="round" transform="matrix(1 0 0 .99375 0 .333)"/><path d="m349.87 234.505s-4.102-1.888-7.422-2.474-15.82-.391-20.442-.521c-4.623-.13-14.974-1.367-17.708-2.474 0 .977.065 3.581 4.818 5.599 4.752 2.019 19.596.781 24.219.912 4.622.13 14.778 3.255 15.755 2.734s.78-3.776.78-3.776zm-7.747 5.599c0-.781-5.794-1.758-8.008-1.302s-6.286 2.792-9.245 5.403c-3.32 2.93-7.031 8.529-7.031 8.529s9.701-5.338 19.401-7.748c1.758-.976 4.883-4.101 4.883-4.882zm-13.217-2.278s-3.581 2.93-5.599 3.45c-2.018.521-6.38-.325-10.612 1.172-4.232 1.498-9.917 8.248-11.306 10.331-.521-5.469-3.516-12.175-5.729-15.104 2.344-.065 5.447 1.062 5.447 1.062s2.018 1.953 3.906 1.823 3.19-1.823 5.534-2.148c2.344-.326 18.359-.586 18.359-.586z" fill="#ebb437" stroke="#ebb437" stroke-linecap="round" stroke-linejoin="round" stroke-width=".5" transform="matrix(1 0 0 .99375 0 .333)"/><path d="m291.927 253.255 5.599-4.232 1.042 5.144-3.256 3.711-3.32-.131zm3.385-8.268 2.409.716-7.487 5.859-3.06-.26-.065-3.06zm-.585-2.93-7.682 2.865-.065-2.799s3.06-3.646 4.753-3.646c1.691 0 2.994 3.58 2.994 3.58zm-6.836 23.698 5.208-5.338-4.622-1.367-4.232 3.255-.065 3.581zm-4.428-5.533 5.274-4.167v-2.214l-3.971-.13-3.646 2.93v3.515zm-6.184-8.204 4.557-3.32 2.213-.065-.13 2.734-4.557 3.711-2.018-.326zm3.711-8.398 3.841-.196v1.953l-7.552 3.646-2.474-.39zm-3.777-5.469 6.055-.911 3.841.586-2.408 2.864-7.292 1.628-3.19-.651zm-2.669 6.511c-2.344-.781-3.776-2.539-3.776-2.539s-4.297 1.823-5.469 3.646c-.225.351-1.042 2.995-.195 3.516s3.581.391 3.581.391 3.776-2.215 5.859-5.014zm.391 9.961-.195-3.581-3.842-.13-2.669 1.887.456 1.368zm-.065 7.226 3.776-2.279-.391-2.278-3.32-.261-2.474 2.279-.13 2.799zm-1.563 2.539 5.078-2.279 2.865.521-.065 2.279-5.143 2.474h-3.255zm-11.002 1.107 4.101-3.19 3.06.325-.195 3.125-4.427 2.474-2.474.065zm1.822-7.617 3.646-2.019 3.125.456-.586 2.018-3.255 1.693-2.864.13zm-6.25-3.711 3.668-3.603 1.867.044-.218 1.91 2.258-.305-.153 1.693-3.58 3.125-3.907-.065zm-6.51 9.244 5.339-3.971 4.492.326v3.19l-5.208 3.841-5.274-1.237z" fill="#ebb437" stroke="#ebb437" stroke-linecap="round" stroke-linejoin="round" transform="matrix(1 0 0 .99375 0 .333)"/></g></svg>