<svg height="400" width="600" xmlns="http://www.w3.org/2000/svg" xmlns:xlink="http://www.w3.org/1999/xlink"><path d="m0 0h600v400h-600z" fill="#0f47af"/><path d="m0 0h600v194h-600z" fill="#fff"/><path d="m201.016 76.986v150.863c0 52.402 44.638 97.948 98.984 97.948s98.984-45.546 98.984-97.948v-150.863l-98.984.517z" fill="#fff" stroke="#000" stroke-width="1.84"/><g id="a"><path d="m282.172 81.988-.62 1.112a12.15 12.15 0 0 1 -.567 1.348l-.803 1.658-.567-.813c-.313-.447-.566-1.15-.566-1.562 0-.57-.158-.71-.664-.577-1.21.316-1.85 1.35-1.636 2.663.138.854.075 1.209-.236 1.209-.506 0-1.37-.925-1.679-1.797-.292-.823-.748-.747-1.177.192-.26.57-.236 1.138.075 2.043.237.69.347 1.333.246 1.434-.403.403-1.471.148-2.01-.482-.315-.366-.702-.587-.856-.492-.527.326-.279 2.35.427 3.509.918 1.505.645 2.251-.716 1.979-.562-.113-1.016-.073-1.016.096 0 .538 1.754 2.418 2.257 2.418.265 0 .481.3.481.663 0 .45-.383.783-1.22 1.059-1.19.393-1.208.418-.61 1.08.472.521.954.646 2.076.556.804-.064 1.465-.076 1.465-.032s-.308.582-.684 1.198c-.376.617-.684 1.26-.685 1.423 0 .27 1.724.081 3.166-.342.37-.109.6.012.6.31 0 .54-1.397 1.273-2.418 1.273-.972 0-.822.474.513 1.647.996.874 1.101 1.099.685 1.444-.48.398-1.412.341-2.631-.171-.92-.386-.762.737.3 2.129.73.957.81 1.24.427 1.486-.51.329-2.29.083-2.899-.406-.918-.737-1.12.977-.267 2.278.729 1.113.374 1.424-.995.867-2.037-.829-2.642-.861-2.642-.15 0 .357.252 1.01.556 1.444.794 1.133.168 1.626-1.176.93-.575-.296-1.146-.697-1.263-.887s-.434-.342-.706-.342c-.672 0-.624 1.345.075 2.118.772.852.075.787-1.048-.097-1.13-.888-1.915-.635-1.925.62l-.011.953-.663-.856c-.976-1.247-.857-1.521.855-1.979 1.803-.482 1.927-.804.514-1.337-1.25-.472-1.32-.985-.171-1.273 1.182-.297 1.118-1.223-.086-1.23-.518-.003-1.161-.145-1.423-.31-.388-.246-.342-.438.246-1.07.862-.925.718-1.327-.406-1.112-.953.182-2.383-.472-2.086-.952.11-.18.556-.321.995-.321 1.006 0 2.436-1.126 2.107-1.658-.135-.22-.532-.396-.877-.396s-.971-.283-1.401-.631l-.781-.631 1.476.032c1.71.039 2.233-.644.888-1.155-.486-.185-.877-.41-.877-.492 0-.084.539-.481 1.198-.888.659-.408 1.198-.886 1.198-1.07s-.14-.256-.31-.15c-.172.106-.562.096-.867-.021-.532-.204-.523-.55.075-2.14.14-.374.036-.39-.535-.085-1.596.854-1.884.564-1.733-1.808l.14-2.193-.867.685c-.83.655-.873.657-.963.053-.167-1.118-.861-3.199-1.07-3.198-.11 0-.51.463-.887 1.027-.881 1.319-1.202 1.296-1.209-.086-.011-2.418-.776-2.346-1.818.172-.632 1.523-1.323 1.723-1.038.3.227-1.137-.279-1.646-.899-.9-.482.581-1.189.708-.845.15.125-.201.114-1.087-.021-1.968-.204-1.325-.294-1.474-.524-.866-.664 1.75-1.4.606-1.359-2.108l.022-1.026-.856 1.026c-.467.565-.849 1.153-.856 1.305-.027.615-.809-.27-1.401-1.593l-.631-1.412-.653 1.465-.663 1.476-1.037-1.048c-.576-.576-1.16-1.048-1.295-1.048s-.148.693-.032 1.54c.231 1.684-.022 1.906-.973.856-1.185-1.31-1.602-.605-.685 1.155.281.54.514 1.007.514 1.038s-.63-.012-1.402-.086l-1.4-.128.587.898c.325.495 1.344 1.5 2.268 2.236 1.69 1.345 1.726 2.003.096 1.594l-.823-.214.61 1.123c.473.855.958 1.187 2.053 1.433 1.647.371 1.808.746.535 1.23-.725.276-.812.437-.481.835.405.488 2.4 1.279 2.963 1.176.702-.127.868.067.47.546-.234.282-.732.513-1.101.513-1.119 0-.514.8 1.24 1.648 1.198.577 1.556.904 1.284 1.176s-.624.258-1.283-.043c-.5-.227-.996-.33-1.092-.235-.285.286.637 2.186 1.156 2.385.265.102.481.351.481.557 0 .249-.514.293-1.54.139-.847-.127-1.54-.141-1.54-.032s.466.729 1.037 1.38c.983 1.119 1 1.196.353 1.4-.376.12-1.003.048-1.39-.16-1.396-.747-1.825.362-.696 1.797.595.757.616.915.171 1.284-.79.656-.598 1.027.524 1.027 1.344 0 1.32.639-.032.91-.827.165-1.011.35-.877.866.106.406.013.608-.235.524-.247-.084-.349-.686-.278-1.562.128-1.593-.078-1.706-1.316-.738-.47.368-1.13.67-1.455.674-.505.006-.532-.112-.203-.835.296-.648.285-.972-.053-1.38-.396-.476-.528-.478-1.241-.01-.438.286-1.108.524-1.498.524-.604 0-.657-.097-.342-.685.408-.763-.061-2.11-.492-1.412-.274.443-2.546.51-3.199.097-.333-.212-.272-.42.257-.899.381-.345.695-.985.695-1.422 0-.727-.076-.767-.866-.407-.656.299-.958.304-1.262 0-.221-.22-.693-.406-1.048-.406-.582 0-.563-.1.235-1.049 1.176-1.398 1.124-1.768-.225-1.519-1.185.22-2.95-.708-2.054-1.08.733-.304 1.493-1.206 1.359-1.615-.07-.214-.584-.44-1.134-.503-1.073-.124-1.85-.608-1.85-1.155 0-.193.378-.246.887-.118 1.062.267 3.905-.108 3.905-.513 0-.157-.418-.482-.93-.728-1.194-.571-.927-1.126.48-1.005.737.063 1.318-.141 1.797-.62.96-.96.891-1.267-.32-1.509-1.165-.233-1.38-1.097-.353-1.423.897-.284 2.064-1.801 2.064-2.684 0-.55-.098-.609-.417-.29-.466.467-1.848.55-2.107.13-.095-.154.116-.731.481-1.284.37-.56.673-1.599.674-2.343.002-1.244-.042-1.3-.6-.813-.329.287-.906.683-1.283.877-.631.325-.684.24-.684-1.07 0-1.634-1.613-4.428-1.808-3.134-.245 1.619-.456 2.225-.77 2.225-.185 0-.332-.249-.332-.556 0-.69-2.336-2.943-2.77-2.674-.19.117-.175.449.032.834.413.772.415 1.06.043 1.647-.213.336-.584.144-1.498-.77-.67-.67-1.54-1.22-1.936-1.22h-.717l.685 1.284c1.345 2.51.723 2.862-.974.557-.628-.855-1.209-1.487-1.283-1.412-.074.074-.155 1.16-.182 2.417-.027 1.258-.158 2.29-.289 2.29-.397 0-1.722-1.558-1.722-2.022 0-.24-.193-.367-.428-.29-.681.225-.727 2.83-.064 3.84.318.487.51.967.417 1.06-.359.359-1.343-.322-1.829-1.262-.28-.542-.662-.984-.845-.984-.527 0-.38 3.491.192 4.588.285.546.434 1.064.343 1.156-.298.298-1.977-1.005-2.15-1.669-.247-.945-.77-.434-.77.749 0 1.329.847 3.347 1.518 3.605.291.111.535.334.535.502 0 .42-1.962.393-2.225-.032-.116-.188-.366-.342-.556-.342-.63 0 .094 1.515 1.348 2.824 1.358 1.417.833 1.822-.749.578-1.046-.823-1.08-.691-.396 1.615.349 1.172.787 1.854 1.38 2.171 1.074.575.44 1.112-.77.653-1.144-.435-1.194-.409-.93.46.297.98 1.504 2.31 2.096 2.31.25 0 .46.172.46.385 0 .255-.47.324-1.37.203-.752-.1-1.368-.059-1.368.086 0 .581 1.407 2.002 2.385 2.407 1.553.643 1.285 1.143-.503.941-1.32-.149-1.54-.08-1.54.45 0 .823 1.501 1.965 2.942 2.235.64.12 1.166.337 1.166.481 0 .623-1.087 1.103-2.054.91-1.304-.261-1.392.469-.193 1.668.594.594 1.219.845 2.129.845 1.211 0 1.254.03.706.578-.327.327-1.11.588-1.787.588-1.536 0-1.543.591-.032 1.744.865.66 1.394.829 2.054.663.544-.136.888-.086.888.14 0 .573-1.356 1.16-2.278.983-.627-.12-.817-.022-.739.385.145.749 2.25 2.108 3.263 2.108 1.331 0 .713.842-.706.962-.691.059-1.251.218-1.251.353s.602.857 1.337 1.605c1.194 1.216 1.467 1.873.78 1.872-.13 0-.687-.391-1.24-.867-1.507-1.296-3.654-1.638-2.685-.428.192.24.458.786.588 1.21.214.698.124.77-.984.77-.655 0-1.186-.04-1.22-.086h-.01l-.792.085.043.31 1.113.76c.047-.053.18.046.438.257.315.258.578.671.578.92s-.154.546-.343.663a.406.406 0 0 1 -.203.064l.01.075-.716.866 1.22.93.075.226c.09-.387.396-.32.92.203.464.464.484.67.128 1.24-.358.574-.336.725.117.9.3.114.924.03 1.391-.183 1.144-.52 1.166-.516 1.166.492 0 1.2 1.03.991 1.669-.342l.481-1.005.588.727c.667.823 1.343.468 1.412-.749.035-.612.052-.63.193-.085.095.367.368.547.652.438.774-.297.552.425-.374 1.23-.666.58-.757.838-.45 1.209.312.375.234.51-.352.663-.827.216-.906.535-.385 1.508.366.684-.117.98-.524.321-.276-.446-2.225-.446-2.225 0 0 .189.154.343.342.343.646 0 .342.706-.428.994-.492.185-.861.32-1.166.418v.01l-1.433.642 1.508.503.021.096c.253.18.471.423.471.61 0 .303-.094.505-.225.599l.022.128-.578.653.728.214c.024-.005.047-.02.074-.022a.876.876 0 0 1 .236.011c.396.075.634.495.706 1.24.094.982.204 1.099.855.9.411-.127.934-.38 1.156-.557.445-.355 1.134.629 1.134 1.615 0 .822.645.468 1.305-.706.314-.56.622-1.083.673-1.166.052-.082.321.187.61.6.765 1.091 1.144.924 1.39-.621.244-1.52.45-1.619 1.68-.813 1.098.72 1.064 1.033-.192 1.797-.903.549-.969.681-.514 1.06.84.696.608 1.128-.524.962-.97-.143-1.04-.095-.845.684.179.712.114.805-.406.6-1.119-.442-2.835-.624-2.835-.3 0 .175.184.504.406.727.223.223.339.453.257.503s-.553.442-1.048.877l-.91.792-.032-.054-.524.492 1.295-.214.053.086c.402.066.845.51.845 1.005 0 .155-.007.291-.021.407l.128.225-.214 1.294 1.027.064c.374-.335 1.476.72 1.476 1.476 0 .916.492 1.04 1.134.289.686-.801 1.04-.831 1.605-.15.633.764.947.63 1.198-.513.242-1.104.491-1.252 1.101-.642.288.288.447.068.62-.856.129-.683.32-1.24.418-1.24.302 0 1.451 1.452 1.465 1.85.007.206.237-.126.503-.738.698-1.606 1.343-1.451 1.07.257-.173 1.081-.113 1.369.289 1.369.4 0 .434.18.182.845-.253.663-.194.926.267 1.209.446.273.272.303-.706.139-1.933-.326-3.165.926-1.53 1.55.763.292.754.297-.16.535-.508.133-1.16.6-1.455 1.049-.51.78-.492.828.342 1.037.481.121.819.32.75.439-.07.119-.349.714-.61 1.326-.165.385-.336.71-.471.91l.107-.075-.214 1.144.91-.342c.041-.045.087-.088.149-.14.11-.09.193-.152.267-.17a.21.21 0 0 1 .075 0c.145.019.229.236.321.716.085.443.123.727.107.877v.011l.107.203.717 1.359.481-.588a.275.275 0 0 1 .128-.16h.011l.021-.033.011.021c.025-.008.046-.02.075-.021.167-.01.4.094.674.342.358.324.652.795.652 1.049 0 .158-.033.27-.085.342l.043.053.428 1.156.17-.557a.455.455 0 0 1 .076-.246l.042-.128.022.021a3.71 3.71 0 0 1 .192-.224c.758-.837 1.041-.811 1.284.117.197.756.209.754 1.24-.235.452-.432.718-.66.867-.695.021-.005.037-.002.054 0 .08.012.117.113.117.289 0 .324-.567.922-1.251 1.326-1.133.668-1.179.75-.546.984.383.142.793.421.91.61.222.36.17.51-.054.492l.043.043.428.93.941.214-.15 1.006 1.434-.289-.065.941.385-.246c.01-.116.126-.259.31-.481.34-.409.546-.429.92-.118.366.304.588.3.888 0 .246-.245.458-.372.6-.396.235-.039.264.21-.118.632-.312.344-.567.806-.567 1.026 0 .326-.136.427-.481.321l.502.407v.717l.93.15.44.716 1.07.364.727.641.299-.438c-.14-.184-.04-.348.086-.674.224-.582.258-.579.577-.01.489.87.9.741 1.669-.514l.685-1.113-.086 1.712c-.07 1.368.013 1.691.428 1.626.285-.045.718.224.952.599.3.48.351.678-.032.577l.449.535 1.294.867 1.648.278.427.438-.053-.727c-.175-.048-.238-.21-.235-.47.009-1.116.547-1.685 1.133-1.199.427.355.546.255.739-.62.158-.721.433-1.048.887-1.048.739 0 .847-.362.278-.931-.209-.21-.304-.583-.213-.834.026-.074.056-.123.096-.14.015-.005.026-.012.043-.01.115.012.277.221.46.61.5 1.063 1.368 1.516 1.743.909.181-.293.48-.315.995-.086.185.083.294.16.31.257l.867.118.32-.984c-.042-.064-.008-.203.086-.45.108-.282.412-.513.674-.513.224 0 .356.072.417.171l.653.192-.129-.877a4.26 4.26 0 0 1 -.417-.727c-.406-.891-.4-.889.802-.663 1.064.2 1.21.134 1.21-.482 0-.518.221-.695.855-.695.318 0 .538.026.663.086l.973.053.129-1.09c-.003-.005-.008-.007-.01-.012-.098-.157.279-.55.834-.877 1.236-.73 1.258-1.014.128-1.53-.638-.29-.822-.581-.674-1.048.154-.484-.009-.691-.663-.855-1.008-.253-1.17-.888-.225-.888.355 0 .885.367 1.177.813.749 1.143 1.946 1.411 1.947.438 0-.654.204-.745 1.797-.802l1.315-.043.065-.064.791-.075-.214-.62a.158.158 0 0 1 -.096-.096c-.163-.426.08-.7.941-1.06 1.385-.578 2.22-1.849 1.508-2.289-.379-.234-.355-.453.097-1.24.833-1.453 1.081-3.177.46-3.177-.354 0-.503-.375-.503-1.263 0-.985-.098-1.175-.417-.855-.655.655-1.3.473-1.305-.364-.003-.424-.143-1.002-.321-1.284-.278-.438-.396-.413-.824.172-.639.873-1.047.463-1.005-1.017.024-.864-.083-1.11-.439-.973-.338.13-.481-.09-.481-.749v-.941l1.112.845c1.868 1.402 2.067 1.47 1.808.652-.337-1.063.338-.892 1.187.3.903 1.267 1.37 1.305 1.37.118v-.899l.834.899c1.062 1.146 2.399 1.258 2.054.17-.199-.625-.136-.69.406-.449.762.34 2.215.357 3.06.033.463-.178.507-.327.203-.632-.58-.578-.492-.952.224-.952.686 0 2.118-1.344 2.118-1.99 0-.222-.237-.406-.524-.406-.468 0-.468-.1 0-1.005.58-1.123.702-2.76.203-2.76-.177 0-.418.154-.535.342-.375.608-.778.367-1.144-.684-.405-1.163-1.08-1.377-1.08-.342 0 .844-.528.897-.845.085-.2-.512-.31-.457-.75.375-.282.534-.593.892-.684.802-.09-.09.158-.753.546-1.476.929-1.734.938-2.645.021-2.354-.87.276-.86.044.043-1.176.79-1.07.633-1.733-.407-1.733-.733 0-.762-.045-.46-.835.04-.105.105-.165.193-.17.263-.016.786.46 1.84 1.604 1.537 1.67 1.848 1.87 2.054 1.348.211-.539.322-.484.877.428.77 1.267 1.591 1.352 1.882.192.162-.645.434-.856 1.124-.856.502 0 1.26-.241 1.679-.535.118-.083.231-.143.332-.192l.02-.075.792-.503-.267-.17c-.19.122-.422.008-.802-.247-.442-.296-.417-.43.203-.952 1.47-1.238 1.996-3.145.866-3.145-.466 0-.692-.322-.834-1.198-.107-.66-.433-1.45-.727-1.743-.59-.59-.72-1.509-.214-1.509.177 0 .418.154.535.343s.824.342 1.572.342c1.274 0 1.331-.049.973-.717-.437-.817-.427-.822.653-1.155.168-.052.305-.092.406-.107.022-.003.037-.009.054-.01l.599-.225-1.006-.856 1.434-.93-.93-1.37 1.647-1.658-1.006-.139v-.043c-.4.103-.808-.07-.813-.577-.003-.33-.144-.833-.32-1.113-.274-.432-.433-.393-1.038.257-.877.941-1.167.988-.696.107.535-.998.448-2.183-.139-1.958-.268.104-.65-.02-.856-.267-.283-.341-.05-.772.995-1.818 1.657-1.657 1.782-2.286.385-1.98-.546.12-1.089.08-1.198-.096-.108-.175.412-.415 1.156-.534.826-.133 1.495-.474 1.711-.878.5-.934.452-1.048-.439-1.048-.434 0-1.076-.207-1.422-.46-.575-.42-.497-.496.877-.845 2.238-.567 3.145-2.46 1.177-2.46-1.871 0-2.513-.8-.952-1.187 1.874-.466 3.413-2.663 1.626-2.322-.472.09-1.117-.045-1.423-.3-.491-.406-.38-.501.941-.823 1.018-.248 1.637-.629 1.915-1.187.54-1.085.305-1.37-1.113-1.37-1.287 0-1.622-.572-.438-.748 1.002-.149 2.075-1.681 1.936-2.76-.112-.87-.124-.881-1.466-.417-.745.258-1.438.379-1.54.267-.101-.111-.016-.256.193-.331.93-.335 1.564-1.077 2-2.343.259-.75.436-1.403.396-1.444-.04-.04-.641.097-1.337.31-1.587.487-1.946.17-.974-.866.757-.805 1.423-2.575 1.423-3.787 0-.633-.02-.633-.685-.032-.827.75-1.228.496-.716-.46.502-.938.478-3.476-.032-3.476-.22 0-.674.245-1.006.545-.571.517-.581.486-.235-.641.201-.656.26-1.768.128-2.471l-.246-1.284-.995.963c-1.19 1.14-1.572.935-1.048-.567.455-1.305.481-2.365.075-3.006-.24-.378-.431-.329-1.016.257-.983.983-1.412.912-1.412-.236 0-.528-.206-1.246-.46-1.593-.5-.683-1.252-.457-1.252.374 0 .809-.651.2-1.208-1.134-.007-.016-.015-.026-.022-.043a9.702 9.702 0 0 0 -.064.064l-.717-2.085zm.706 50.938c.192-.037.745.586 1.145 1.358.285.553.359 1.006.17 1.006-.31 0-1.38-1.726-1.38-2.225 0-.085.02-.131.065-.14zm1.893 3.24c.264.01.439.188.439.514 0 .177-.424.316-.941.31-.892-.01-.905-.037-.29-.502.246-.186.477-.285.675-.31.04-.006.08-.013.117-.011zm1.049 1.06c.158.004.343.071.61.192.893.407 1.022.828.48 1.637-.3.449-.4.438-.802-.086-.59-.77-.775-.754-.994.086-.099.376-.346.684-.546.684-.405 0-.176-.802.556-1.946.257-.402.43-.574.696-.567zm-49.537 1.144c.174 0 .32.087.32.193 0 .556-1.805 3.894-2.395 4.428-1.095.99-.894 1.88.428 1.894l1.112.01-.856.717-.855.717.727.492c.478.319.68.72.567 1.155-.172.657-.78.949-.78.374 0-.162-.402-.886-.889-1.604-1.157-1.705-.946-3.694.546-5.124.553-.53 1.183-1.48 1.39-2.107.208-.628.511-1.145.685-1.145zm20.527 1.733c.153-.033.21.203.075.717-.128.489.026.897.46 1.22.635.471.628.502-.129 1.122-.745.612-.743.643-.106.845.536.17.607.384.395 1.134-.144.51-.203 1.085-.139 1.273s-.345.61-.909.93c-1.28.73-1.299 1.143-.053 1.787 1.03.533 1.796 1.95 1.668 3.102-.058.522.128.685.781.685.67 0 .881.194.963.898.095.824.167.868.93.514.46-.213.844-.5.845-.642.001-.141.175-.257.386-.257.385 0 .284.963-.225 2.182-.238.57-.145.635.824.492 1.515-.222 1.608.165.363 1.584l-1.07 1.208.91.353c.5.19 1.054.343 1.23.343.462 0 .395.457-.182 1.219-.774 1.024-.628 1.264.674 1.112.68-.079 1.213.01 1.24.214.027.198.066.75.086 1.22.033.751.178.848 1.166.77 1.026-.08 1.1-.028.77.588-.303.568-.512.621-1.272.332-.675-.256-.98-.232-1.188.096-.217.342-.285.343-.289.01-.009-.742-.484-.465-1.326.771-.448.658-.942 1.198-1.091 1.198-.365 0-.775-1.944-.503-2.385.375-.606-.716-.384-1.626.331-1.185.933-1.311.861-.695-.374.388-.777.42-1.153.14-1.433-.282-.281-.49-.27-.792.032-.575.574-2.322.525-2.322-.064 0-.26.231-.665.514-.899.282-.234.513-.797.513-1.252 0-.677-.107-.77-.599-.513-.366.192-.932.187-1.455-.01-.828-.315-.834-.338-.17-.707 1.67-.929 2.06-2.397.556-2.096-1.266.253-1.743-.431-.77-1.113.977-.685.954-1.697-.043-1.68-1.344.025-1.169-.597.31-1.09 1.727-.576 2.154-1.363.984-1.808-.715-.272-.805-.474-.642-1.476.176-1.084.113-1.171-.877-1.37-1.414-.282-1.394-1.261.043-2.47l1.101-.92-.759-.62c-.948-.768-.964-1.017-.043-1.017.637 0 .706-.142.514-1.166-.124-.657-.048-1.55.182-2.053.245-.538.499-.834.652-.867zm-12.483.075c.016-.002.033.009.053.021.486.3 1.248 3.176.963 3.637-.13.212-.048.62.193.91.329.396.341.682.053 1.144-.318.51-.242.67.45.984.679.31.834.63.834 1.754 0 1.25-.081 1.38-.877 1.38-.714 0-.858.144-.77.77.08.58-.085.795-.664.878-1.106.157-.976 1.26.257 2.171 1.25.924 1.329 1.467.171 1.177-.6-.15-.856-.081-.856.246 0 .553 1.076 1.604 1.648 1.604.22 0 .406.142.406.31 0 .465-.865.689-1.39.364-.257-.158-.588-.21-.738-.118-.503.311-.273 1.1.62 2.161.792.942.815 1.071.289 1.273-.324.124-.87.047-1.22-.171-.349-.218-.716-.396-.813-.396-.395 0-.136 1.613.375 2.343.704 1.006.43 1.247-.877.791l-1.038-.363v1.53c0 1.124-.134 1.518-.513 1.518-.283 0-.514-.13-.514-.289 0-.25-1.589-1.135-2.054-1.144-.094-.002-.125.475-.064 1.059.171 1.632-.694 1.315-1.455-.535-.585-1.424-.686-1.517-.93-.856-.444 1.2-.974.849-.974-.642 0-1.26.06-1.35.664-1.026.978.523 1.048.464 1.048-.845 0-1.042.108-1.199.834-1.199 1.112 0 1.372-.513.728-1.433-.502-.715-.475-.778.524-1.198l1.048-.438-1.048-1.06c-1.322-1.321-1.337-1.612-.043-1.422 1.385.203 2.31-.15 1.776-.685-.845-.844-.459-1.337.855-1.09 1.048.196 1.219.154 1.049-.29-.204-.53 2.135-3.337 2.78-3.337.174 0 .519-.252.77-.556.396-.477.326-.67-.513-1.39-.535-.461-1.185-.753-1.444-.653-.317.122-.47-.086-.47-.631 0-.445.253-.907.567-1.027.435-.167.475-.305.17-.61-.554-.555-.496-.952.14-.952.35 0 .478-.208.364-.599-.431-1.467-.61-3.043-.364-3.07zm33.684 1.487c.193.004.436.224.631.652.212.465.276.839.14.824-.651-.07-1.103-.423-1.103-.845 0-.425.138-.635.332-.631zm-8.012.952c.037-.003.064 0 .075.01.33.33.493 3.274.182 3.274-.18 0-.955.54-1.722 1.198-1.177 1.007-1.433 1.106-1.616.63-.13-.34.079-.882.535-1.368.414-.44.69-.842.61-.899s-.592-.297-1.145-.535l-1.005-.438 2-1.006c.962-.485 1.827-.843 2.086-.866zm-43.782 2.375c.228.014.106.609-.363 1.732-.713 1.706-1.079 1.699-.942-.02.067-.842.206-1.442.31-1.338s.4.017.653-.193c.153-.127.266-.186.342-.181zm34.487.759c.535-.014.864.31.877.92.003.141-.529.257-1.188.257-1.419 0-1.575-.56-.288-1.049.219-.083.42-.123.599-.128zm-19.822 1.177c.283 0 .514.142.514.31s-.231.394-.514.503c-.312.12-.513-.004-.513-.31a.51.51 0 0 1 .513-.503zm-9.177 4.107a.72.72 0 0 1 .556.225c.122.122-.048.426-.375.674-.947.72-1.539.603-1.101-.214.226-.424.582-.668.92-.685zm39.513.064c.533-.008.696.238.557.781-.097.38-.826.498-1.712.278-.944-.234-.708-.699.492-.962.263-.058.486-.094.663-.097zm-38.936 6.215c.123-.023.214.04.214.182 0 .188-.154.44-.342.556-.188.117-.342.06-.342-.128s.154-.44.342-.556a.376.376 0 0 1 .128-.054z" fill="#da121a"/><path d="m249.856 183.982c-1.457-2.258-1.585-3.522-.754-7.445.58-2.737.664-5.306.174-5.306-.363 0-1.196 2.713-1.565 5.1-.298 1.927-.958 3.5-1.753 4.179-.76.649-2.808 1.491-3.046 1.253-.094-.094-.205-.945-.246-1.89-.067-1.57.052-1.868 1.362-3.423 1.544-1.83 2.665-3.793 3.031-5.304.354-1.46-.27-1.113-1.216.675-1.142 2.16-4.489 5.56-5.526 5.613-2.862.148-2.857.15-2.97-.646-.176-1.24 1.167-3.061 2.607-3.534 2.51-.824 5.205-3.05 5.205-4.298 0-.343-.35-.255-1.283.323-1.88 1.163-3.766 1.991-5.719 2.512-3.564.949-5.726.365-7.265-1.962-1.408-2.126-.734-4.407 1.67-5.65 1.238-.64 1.722-.602 1.558.121-.421 1.858 2.199 3.75 4.65 3.359 1.864-.298 4.764-1.997 6.029-3.53 1.446-1.755 2.713-5.143 2.974-7.955.192-2.07.147-2.4-.328-2.4-1.313 0-1.655-2.444-.512-3.66.718-.764.73-.886.296-3.103-.46-2.356-2.619-8.913-3.112-9.451-.362-.396-.778 2.478-.612 4.222.139 1.452-.026 1.605-1.107 1.027-.835-.447-.883.188-.148 1.947.282.676.513 1.384.513 1.572 0 .331-1.272.2-2.436-.25-.362-.14-.617 0-.733.403-.099.34-.433 1.205-.742 1.92-.555 1.284-.553 1.298.134.93.383-.205.697-.497.697-.648 0-.478 1.692-1.07 3.058-1.07.806 0 1.629.26 2.124.673.781.651.784.674.097.685-.39.006-1.072.396-1.514.867-.442.47-1.167.856-1.61.856s-.894.225-1 .5-.519.604-.918.731c-.4.127-1.387.89-2.193 1.698-1.424 1.423-1.467 1.531-1.467 3.668 0 1.842-.133 2.346-.811 3.077-.446.482-.911 1.274-1.034 1.762-.354 1.412-.782 1.047-1.546-1.317-.701-2.17-.673-2.944.143-3.958.521-.648.876-2.054.518-2.054-.148 0-.712.442-1.252.982a4.117 4.117 0 0 1 -2.35 1.164c-.754.1-1.664.301-2.024.446-.562.225-.625.146-.443-.566.194-.764.14-.745-.716.253-2.364 2.76-5.777 2.9-6.439.265-.518-2.064 1.084-3.707 2.587-2.654.68.476.79.467 1.246-.111 2.079-2.64 3.076-6.323 3.428-12.67.3-5.388-.018-6.278-1.017-2.854-1.257 4.304-4.456 8.918-6.547 9.443-2.504.628-4.755-.946-4.08-2.853.292-.83.513-.946 1.852-.969 1.432-.025 1.552-.103 2.097-1.369.989-2.296 2.012-8.115 1.994-11.335l-.017-3.015-.924 1.886c-1.765 3.601-3.697 5.6-5.824 6.025-.919.184-1.252.04-2.281-.99-1.404-1.403-1.583-2.793-.508-3.947.817-.877 1.448-.95 2.04-.236 1.209 1.456 2.397-.565 2.397-4.074 0-2.276-.582-5.01-2.337-10.987-1.798-6.123-1.933-6.98-1.936-12.322-.003-4.358.111-5.498.755-7.533 1.233-3.896 4.077-7.778 6.67-9.104 1.56-.797 4.45-.874 5.063-.136.234.283.63.514.88.514.554 0 1.931 1.819 2.532 3.343 1.079 2.736-.513 6.312-3.478 7.815-.905.458-1.646 1.055-1.646 1.326 0 .27.366 1.499.813 2.73 1.312 3.614 5.003 7.823 9.285 10.588 3.144 2.03 4.9 2.828 6.862 3.122 1.368.205 1.406.181 2.995-1.865l1.61-2.072h-1.37c-.752 0-1.368-.079-1.368-.176s.683-1.014 1.518-2.04c3.03-3.72 3.832-7.36 2.189-9.94-.482-.756-1.128-1.584-1.436-1.84-.308-.255-.56-.596-.56-.758 0-.161-.539-1.136-1.198-2.166s-1.198-1.958-1.198-2.06c0-.746 1.903.534 4.743 3.188 1.045.977 1.76 1.344 1.76.903 0-.093-.73-.921-1.625-1.84-.894-.919-2.077-2.242-2.627-2.94-1.033-1.311-1.362-1.375-3.535-.69-.65.206-.768.119-.762-.566.016-1.693 1.817-3.035 4.071-3.035 1.473 0 2.507.832 5.568 4.486 1.012 1.208 1.345 1.42 1.694 1.076.239-.235 1.076-.428 1.861-.428 1.374 0 1.523.113 4.04 3.071 1.436 1.69 2.611 3.21 2.611 3.38s-.481.406-1.07.523c-1.038.208-1.064.257-.848 1.608.123.766.468 1.767.768 2.224.532.813.369 1.033-.647.873-.14-.023-.255.229-.254.558.004 1.326.754 3.156 2.058 5.017.756 1.079 1.275 2.122 1.153 2.32-.127.204-.8.28-1.573.176l-1.352-.181.626.73c.344.402.794.915 1 1.14s.57.883.81 1.462c.497 1.198.748 1.195 4.293-.062 6.961-2.467 11.448-6.652 13.594-12.68 1.398-3.927 1.33-4.388-.764-5.132-2.548-.905-3.588-2.618-3.588-5.91 0-2.257.093-2.59 1.063-3.79 1.394-1.727 2.76-2.494 4.892-2.746 3.325-.394 6.236 1.536 7.91 5.247 3.119 6.905 3.86 14.703 2.03 21.34-1.628 5.902-2.089 8.935-1.953 12.847.146 4.238.316 4.79 1.31 4.257.888-.475 1.96.11 2.239 1.222.264 1.052-.538 2.355-1.876 3.047-.9.465-1.102.445-2.478-.25-1.926-.971-3.476-3.273-4.1-6.09-.427-1.921-.503-2.048-.696-1.15-.612 2.85-.07 8.476 1.123 11.673.827 2.216 1.434 2.788 2.174 2.048 1.353-1.353 3.192 1 2.092 2.678-1.123 1.715-3.712 1.93-5.75.48-1.99-1.417-3.815-6.686-4.253-12.278-.212-2.7-.3-3.048-.52-2.053-.72 3.25-.626 9.014.241 14.824 1.387 9.289 1.48 9.65 2.274 8.857.525-.525 2.069-.521 2.596.006.664.664.493 2.566-.298 3.303-1.352 1.26-4.105 1.158-5.775-.214-.696-.572-2.759-5.134-2.759-6.103 0-.537-.541-.644-.837-.165-.106.172-.8.415-1.54.54-2.577.435-2.716 1.886-.182 1.886 1.193 0 1.757.218 2.695 1.041 1.066.936 1.915 2.84 1.467 3.29-.096.095-.574-.089-1.064-.41-.603-.395-1.231-.514-1.953-.37-.866.174-1.28.023-2.233-.813-1.072-.941-2.172-1.348-2.172-.803 0 .123.388 1.044.863 2.047l.862 1.823-.72 2.232c-.75 2.321-1.69 3.05-1.69 1.312 0-.505-.308-1.247-.685-1.649-.378-.402-.77-1.413-.874-2.247-.383-3.109-.483-3.669-.805-4.516-.428-1.123-1.645-1.964-2.846-1.964-.95 0-1.606-.52-2.764-2.192-.338-.489-.906-.889-1.263-.889-.948 0-1.158-.592-.36-1.02.43-.23 1.536-.282 2.936-.139 2.037.209 2.293.324 2.767 1.24.287.555.572.957.633.892.133-.141-1.08-4.97-1.365-5.432-.11-.18-.537-.013-.947.368-.758.707-2.19 1.233-2.503.92-.095-.094.143-1.11.53-2.255.909-2.7.917-3.27.039-2.8-1.024.547-1.068.474-.866-1.444.105-.988.06-2.245-.099-2.793-.269-.928-.422-.691-2.211 3.423-2.972 6.834-3.305 8.712-1.81 10.207 1.088 1.088 1.088 2.248 0 3.422-1.035 1.116-1.064 1.987-.172 5.166.927 3.303 2.069 5.56 3.614 7.144 1.637 1.679 3.057 2.27 5.458 2.27 3.49 0 5.904-1.708 5.545-3.923-.185-1.137-.14-1.21.723-1.2 2.16.029 3.823 1.963 3.827 4.448.004 2.59-1.615 4.048-5.347 4.814-1.833.376-2.337.355-3.99-.164-1.039-.327-2.56-1.02-3.378-1.538-1.618-1.026-3.028-1.517-3.028-1.055 0 .323 2.808 2.649 5.215 4.318 1.059.734 1.687 1.479 1.97 2.333.227.69.342 1.326.255 1.413-.343.343-3.891.23-4.595-.147-.412-.22-1.62-1.71-2.684-3.308-1.925-2.894-2.444-3.48-2.779-3.146-.203.203.295 1.051 2.878 4.906 1.823 2.72 1.862 2.83 1.627 4.535-.264 1.923-.502 2.05-2.37 1.27-1.242-.52-2.107-1.903-2.45-3.92-.345-2.034-1.584-5.66-2.122-6.213-.438-.451-.47-.306-.266 1.198.127.941.6 3.26 1.05 5.154.452 1.903.722 3.816.602 4.278-.181.704-2.067 4.088-2.277 4.088-.037 0-.64-.885-1.338-1.968zm-18.271-31.692c1.317-.616 1.563-.854 1.194-1.16-.255-.212-.897-.435-1.426-.496-.842-.098-1.018.05-1.41 1.172-.247.706-.351 1.278-.232 1.271s.962-.36 1.874-.787zm36.982-4.335c.817-.753 1.719-1.369 2.004-1.369 1.118 0 1.32-.827.805-3.293-.27-1.295-.661-4.964-.869-8.154-.207-3.189-.43-5.851-.494-5.916-.253-.253-.552 4.066-.58 8.378-.015 2.494-.14 4.535-.278 4.535-.624 0-2.556-5.19-3.27-8.783l-.466-2.341-.032 2.352c-.028 2.015-.103 2.293-.529 1.94-.273-.227-.89-1.2-1.37-2.163-.966-1.94-1.097-1.634-.405.951.714 2.67 3.004 6.884 4.296 7.905.79.625.184 1.508-1.035 1.508h-1.087l.21 2.004c.24 2.303.738 3.815 1.256 3.815.197 0 1.027-.616 1.844-1.369zm-32.732-1.112c.422-1.177.767-2.228.767-2.337s-.462-.13-1.027-.047-1.027.072-1.027-.024.588-1.153 1.306-2.35c1.419-2.363 1.884-3.441 2.463-5.704.207-.812.454-1.736.548-2.053.094-.318-.26.192-.789 1.133l-.96 1.712-.1-2.824c-.057-1.624-.247-2.824-.448-2.824-.192 0-.277.116-.189.258.088.143-.215 1.952-.673 4.022-.81 3.66-1.7 5.989-2.286 5.989-.158 0-.18-1.233-.049-2.74.145-1.662.094-3.31-.13-4.192-.203-.8-.464-2.048-.58-2.773s-.279-1.25-.363-1.166-.165 3.522-.181 7.64c-.02 5.342.083 7.526.363 7.619.215.072.77.731 1.234 1.465s.958 1.335 1.098 1.335.601-.963 1.023-2.14zm10.608-51.907c-.807-.819-.754-1.133.171-1.002.495.07.81.385.88.88.13.914-.229.956-1.05.122z"/><path d="m267.377 160.877c-.044-.424.116-1.177.356-1.674.388-.805.338-1.047-.458-2.219-.825-1.214-1.166-2.823-.697-3.292.339-.339 2.273.374 3.083 1.135.506.475 1.317.761 2.341.826.862.054 1.568.066 1.568.027s-.424-.54-.942-1.111c-.727-.805-1.317-1.082-2.602-1.222-.914-.1-1.901-.421-2.195-.715-.483-.483-.428-.632.585-1.578.72-.672 1.476-1.045 2.12-1.045.658 0 1.063-.205 1.18-.599.097-.33.405-1.043.684-1.587.617-1.202.455-1.432-.598-.85-.44.243-1.02.396-1.29.34-.269-.055-1.15.618-1.956 1.496-.88.96-1.7 1.552-2.052 1.484-.56-.108-1.293-2.4-1.975-6.184-.351-1.949-2.255-2.657-2.255-.839 0 .887 1.098 4.791 1.73 6.15.355.764.358 1.032.011 1.369-.342.331-.55.254-1-.373-1.7-2.36-2.013-2.625-2.563-2.169-.406.337-.7.35-1.256.052-.399-.213-.909-.327-1.133-.252-.234.078-.08.312.361.548.423.226.77.586.77.8 0 .797 1.153 1.641 2.242 1.641 2.166 0 3.913 2.997 3.917 6.72.002 1.469.114 1.787.686 1.937.386.1.685.466.685.838 0 .613.268 1.116.595 1.116.076 0 .102-.346.058-.77zm-32.054-1.451c.203-.379.39-1.656.418-2.839.045-1.982.14-2.236 1.225-3.243 1.39-1.292 4.653-3.335 5.326-3.335.26 0 .472-.176.472-.39 0-.215.251-.574.558-.799.474-.346.375-.415-.65-.454-.908-.034-1.584.251-2.699 1.138-2.532 2.013-2.872 1.58-1.47-1.87.795-1.956.826-2.205.343-2.74-.293-.322-.532-.78-.532-1.016s-.188-.367-.417-.29c-.361.12-1.087 2.193-1.77 5.052-.111.47-.339 1.064-.505 1.319-.464.712-1.654-.083-2.361-1.577-.423-.894-.891-1.327-1.622-1.5a48.294 48.294 0 0 1 -1.883-.492l-.855-.248.725.821c.399.452.821 1.228.938 1.725.141.598.515.979 1.108 1.128 1.182.296 2.536 1.201 2.526 1.687-.005.214-1.058.894-2.34 1.512-2.18 1.05-3.813 2.572-3.813 3.552 0 .33.091.334.41.014.227-.226.86-.41 1.406-.41.646 0 1.599-.48 2.715-1.37.946-.753 1.87-1.369 2.055-1.369.472 0 .012 2.297-.762 3.81-.452.883-.58 1.652-.445 2.663.186 1.386.207 1.407.86.816.369-.334.836-.916 1.039-1.295zm29.861-35.63c7.482-1.806 13.051-4.399 16.131-7.51 2.724-2.75 3.651-4.243 4.587-7.382 1.329-4.456.618-7.338-3.193-12.94l-1.022-1.502.82-.63c.45-.346.934-.633 1.075-.637.42-.013.292-1.198-.203-1.875-.697-.954-2.2-.47-2.341.753-.155 1.34-1.159 1.426-1.42.122-.254-1.272-1.313-1.923-2.283-1.404-1.237.662-.492 2.739.983 2.739.593 0 1.414.614 1.414 1.057 0 .13-.53.335-1.18.457-1.214.227-1.75 1.012-1.369 2.005.501 1.306 2.626.645 3.256-1.012.166-.438.499-.796.739-.796.54 0 2.835 4.72 3.377 6.947 1.332 5.468-3.168 12.08-10.869 15.969-2.764 1.396-9.588 3.88-12.61 4.59-1.568.37-1.72.493-1.816 1.484-.104 1.067-.092 1.076 1.027.777a331.14 331.14 0 0 1 4.897-1.212zm-22.763-.341c0-.24-.638-.526-1.455-.651-4.029-.62-14.058-3.489-15.504-4.437a9.88 9.88 0 0 1 -1.22-.952c-.262-.255-1.051-.816-1.754-1.245-1.707-1.045-3.505-3.198-4.604-5.513-.718-1.511-.973-2.563-1.062-5.196-.055-1.618.027-2.19.423-3.605.711-2.539 2.876-5.749 4.622-6.679.272-.032.359.272.359.707 0 1.628 2.487 1.932 2.672.327.082-.71-.103-1.015-.83-1.37-1.506-.733-1.422-1.312.19-1.312 1.157 0 1.472-.147 1.785-.833.505-1.108.18-1.833-.946-2.116-1.188-.298-1.987.213-2.124 1.358-.12 1-1.087 1.272-1.095.308-.007-.843-.388-1.325-1.26-1.597-.572-.179-.883-.032-1.307.616-.695 1.06-.223 2.151 1.068 2.475l.873.22-1.173 1.24c-1.867 1.973-2.829 3.487-3.615 5.689-1.098 3.077-1.202 4.489-.594 8.053.71 4.156 1.784 6.344 4.197 8.549 3.625 3.314 7.933 4.871 16.451 5.948 4.535.573 5.903.576 5.903.016zm6.166-23.255c.237-.285.635-1.4.885-2.476.438-1.882.425-1.99-.334-2.819-.434-.474-1.28-1.562-1.879-2.419-1.452-2.074-2.808-2.854-4.557-2.62-1.284.173-2.677 1.034-2.677 1.656 0 .155.374.112.83-.096 1.442-.657 2.468-.097 4.022 2.194.796 1.174 1.976 2.634 2.621 3.245.937.885 1.093 1.206.774 1.59-.603.727-1.524.314-3.424-1.536-1.953-1.903-2.337-2.094-1.48-.736 2.68 4.246 4.114 5.349 5.219 4.017zm5.472-.68c.368-.443.296-.365-.643-.3-.588.042-1.15-.194-1.086-1.326.043-.748-.52-.79-.8-.06-.554 1.442 1.561 2.853 2.529 1.686z" fill="#fcdd09"/></g><g id="b"><g fill="#da121a"><path id="c" d="m313.843 81.618c-2.633 0-2.944 2.57-4.803 2.57s-1.87-1.162-2.737-1.685c-.59 2.316.671 4.946 2.503 4.946 2.154 0 2.272-2.974 4.223-2.974 1.191 0 1.286 1.224 1.87 2.585.521 1.217 2.041 1.937 3.604 2.283-2.362 2.025-4.274 4.62-5.633 4.62-1.37 0-2.465-1.965-2.465-1.965-.697 1.08-1.232 4.302 1.568 4.302 1.517 0 3.046-1.01 3.046-1.01-3.135 6.102-5.233 12.645-5.233 18.797 0 2.441-2.162 5.791-4.652 6.996.365 1.126 1.174 2.096 2.541 2.096 3.64 0 1.81-7.586 5.738-8.774-.794 5.025-.723 10.063-.347 16.336.25 4.155-1.63 7.322-4.418 8.688-.992.486.207 2.05 2.111 2.05 4.313 0 5.075-8.305 4.728-14.52l2.307 1.05v18.982c0 5.722-.847 7.496-3.634 9.34-1.347.59.667 1.77 2.85 1.77 4.88 0 3.439-10.678 4.027-18.913l2.616 1.165s-.065 2.547-.196 4.55c-.132 2.014.9 2.745 1.485 4.107 0 0-.86 4.942-.86 10.738 0 4.542-1.201 5.718-3.083 6.599-.441.207-.682 1.377 2.616 1.405 4.732.04 3.869-8.202 3.869-12.872 0-7.912.55-18.75.55-18.75l2.42.884s-.158 12.704-.158 17.703c0 1.158-1.174 2.308-2.345 2.259.54.79 1.067 1.436 2.33 1.436 1.855 0 2.373-1.871 2.36-3.051-.057-5.248.196-17.663.196-17.663l3.084 1.413s.217 1.79 0 3.416c-.226 1.693-1.87 2.547-1.87 2.547 1.145 2.293 2.834 1.769 3.348.885.789-1.357.558-5.885.558-5.885l1.908.931s.164 6.678-.219 10.691c-.317 3.327.428 4.944.543 5.171-.217 2.003-.738 3.967-2.21 5.808-.565-1.287-2.009-3.921-4.524-3.921-2.116 0-3.34 2.36-3.34 2.36l.377.714s.756-.388 1.599-.388c.337 0 .892.305 1.191.272.51.712 2.994 3.33 2.994 3.33s-2-.342-4.268-.349c-2.667-.008-4.223 2.722-3.499 5.179.608-.954 1.166-1.542 2.526-1.46 1.516-1.14 3.935-1.406 5.406-1.374-.107 1.12-2.304 2.367-2.812 4.946-.348 1.767.58 3.312 1.681 3.944-1.246.284-2.058 3.086-4.192 3.222 0 0 .497.877 2.126.877 3.076 0 4.036-2.872 5.467-2.872 1.167 0 2.24 2.135 5.112 2.135 2.167 0 3.5-1.165 3.5-1.165l.007 2.182s-5.57.023-6.402.38c-.831.357-3.596 3.486-3.596 3.486 3.085.308 4.049-1.397 5.429-1.397 1.265 0 3.128-.225 4.494-.513v1.608c-2.153 1.067-3.838 3.424-5.392 5.613 1.23-.057 1.897.366 5-1.289 1.251.795 2.06 1.75 2.345 2.896l.543.101c.395-1.576 1.069-2.123 1.741-2.67.858.686 3.218.804 5.06 1.117-1.829-1.969-2.384-3.373-4.532-4.666l-.083-1.397c2.224.162 2.496 1.723 3.997 1.723.607 0 .615-.28 1.229-.28 1.642 0 2.758 1.068 3.717 2.105 1.408-2.02-.74-4.115-2.73-4.115-.73 0-1.546.194-1.907.194-1.203 0-1.594-1.705-4.05-2.391l-.014-2.438c1.109.351 2.42 2.903 4.999 2.903 2.705 0 3.122-2.344 5.308-2.344 1.42 0 3.431 2.073 3.431 2.073.58-1.667.036-4.007-1.267-5.202a7.007 7.007 0 0 0 1.93-1.646c.639-2.485-1.435-4.867-2.322-6.833 0 0 2.097 1.321 3.56 1.74.767.22 2.156.372 2.156.372.798.635 1.386 1.532 1.96 2.454.461-1.048.77-2.505.34-3.712-.248-.696-1.055-2.406-2.813-2.919-1.478-.431-3.101-.435-4.29-.458 1.051-.963 1.957-1.887 2.797-3.012.867-.117 1.334-.114 2.089 0 0 0-.521-2.811-2.903-2.811-.911 0-.724.505-.724.505-1.797-.353-2.634 1.237-3.883 3.71l-3.024-4.937s.287-2.57.287-6.662c0-4.047-1.189-8.13-2.346-9.573.407-.555.787-1.35.935-2.181.197-1.096.091-2.35.091-4.139l1.56.753s-.21 2.756-.21 5.389c0 2.287.576 4.829 2.209 4.829 1.187 0 1.855-1.289 1.855-1.289-3.454-.129-2.797-6.964-.912-6.964.69 0 1.14.923 1.146 1.708.009 1.418-.168 2.254.075 3.548.153.813.766 1.486 1.41 1.56-.358 1.77-.475 4.5-.475 6.755 0 2.487.302 5.311 2.805 5.311 1.174 0 1.622-.73 1.885-1.297-.777.01-1.43-.577-1.719-1.444-1.103-3.307-.127-6.763.317-10.357-.934-6.229.154-8.092.965-9.224-.107 3.68.781 5.528 1.689 7.027 0 0-.2 9.202-.241 15.606-.043 6.826 1.511 10.186 5.006 10.186a3.55 3.55 0 0 0 1.848-.551c-4.874-2.821-4.404-10.405-4.404-16.134 0-3.488-.602-13.907 1.772-17.159l1.252.466c.017 4.02.015 9.812.958 14.542.776 3.9 2.32 7.368 4.592 7.368 1.461 0 2.666-1.26 2.918-2.228-3.827-.443-4.383-5.249-4.343-11.064.022-3.312.18-7.13.18-10.21l1.825 2.012c-.226 2.085-.645 10.093 4.622 10.093 1.235 0 2.056-1.057 2.165-2.391-3.25-1.11-3.292-4.176-2.519-6.973-1.585-1.445-1.977-3.936-1.99-6.156a80.25 80.25 0 0 1 .58-9.938c2.342 0 1.96 6.917 5.942 6.917 1.895 0 2.85-2.771 2.85-2.771-1.79-.253-3.186-.759-3.634-2.058-.968-2.804-.74-5.814-.74-9.006 0-1.145-.08-2.706-.746-3.673-.353-2.254-2.089-4.92-3.823-6.226.375-1.594.642-3.043.31-4.752a13.7 13.7 0 0 0 -.544-1.972c.482.132 1.051.24 1.637.24 4.32 0 3.018-2.691 2.775-2.631-.14.034-1.503 1.444-2.941 1.444-.815 0-1.548-.256-2.074-.482-.608-1.241-1.39-2.353-2.277-3.361a46.306 46.306 0 0 0 1.72-2.764c1.296-2.304 2.851-4.022 3.777-4.022 1.205 0 1.007.706 2.18.706 2.196 0 2.077-2.756 1.831-3.206-.237-.436-.885 1.226-2.133 1.226-1.258 0-1.207-1.444-2.858-1.444-1.045 0-2.385.973-3.537 4.651-.496 1.586-1.353 2.928-1.983 3.789-1.407-1.369-3.013-2.53-4.637-3.556-2.056-1.3-4.345-.735-4.532 2.213-.13 2.063.886 3.275 1.878 4.503.216 1.807.239 3.494.128 5.272-.002.007.002.015 0 .023v.008c-.274 1.255-1.416 2.865-2.64 3.695-.86.585-1.477.482-2.721.482-4.168 0-4.992 2.304-4.992 4.612 0 2.872 1.301 6.102 2.224 6.102.794 0 1.916-1.652 1.916-3.51 0-1.69-1.403-2.358-1.403-3.695 0-1.393 1.016-1.755 2.345-1.755 4.443 0 4.562-2.729 5.505-4.953 4.496 3.942 1.156 10.264-2.986 12.912-2.857 1.825-6.69 2.728-10.82 1.73.31-3.097.207-6.195.112-9.293a2.18 2.18 0 0 1 1.448-.683c.698-2.702.206-5.692-.897-7.407 2.125-1.215 2.031-3.627 5.12-3.703-2.459-3.069-6.007-2.19-8.287-4.985 1.103-.692 2.05-1.469 2.737-2.376-3.612.04-3.664-2.857-8.95-2.857-3.812 0-6.98 3.237-8.785 6.048-1.289.004-3.656.531-5.376 1.817-1.348 1.008-2.534 2.88-2.534 5.047 0 1.913 1.793 3.323 4.23 3.362 0 0 .045-2.219 1.524-3.13 1.478-.91 3.724-.17 3.724-.17s1.41-1.312 2.82-1.312c1.316 0 2.24.78 2.24 1.848 0 .96-1.527 1.661-3.092 1.661-1.491 0-2.734.38-3.845 1.017-1.837 1.053-1.825 2.873-1.825 2.873.945-.754 2.11-1.793 5.309-1.793 1.936 0 3.724-.57 4.954-1.538.047.262.075.512.075.73 0 1.82-.599 2.535-3.484 3.455.535.61 1.486.672 1.486 1.654 0 1.014-3.48 3.801-5.588 5.225.912 2.497 1.1 5.839-4.607 5.839-3.054 0-8.313-1.934-11.785-3.929-3.557-2.044-5.06-4.072-5.06-7.5 0-2.043.612-4.388 3.363-6.157.136-.088.258-.204.37-.334 1.404 2.563 2.115 5.881 4.81 5.893 2.747.012 4.456 2.64 4.14 5.707 1.365-.615 2.39-2.46 2.39-4.962 0-1.879-1.312-2.764-3.114-2.764-1.398 0-1.629.35-3.16.35-1.931 0-3.336-2.88-4.63-4.954.528-1.26.55-3.206.325-4.767-.221-1.54.265-2.24 1.523-3.059 1.18-.766 1.303-3.098-1.13-3.098-1.887 0-4.297.843-6.214 1.895-.496.272-.976.598-1.44.955-.657-.165-1.556-.477-2.232-1.04-1.37-1.142-1.063-2.156-1.063-3.456 0-1.301-.807-2.655-2.066-2.655zm39.843 72.966c.554 2.184 1.996 3.91 3.182 5.77l2.783 5.744c-2.168.267-4.732-.105-5.867 2.042-1.384-.253-.367 4.155 1.539 4.744-.047-1.143-.165-2.377.233-2.53 1.933-2.11 4.442-1.097 6.206-1.6.785 1.491 1.422 3.027 1.81 4.635-.334.542-.68 1.092-1.033 1.654-2.508.14-4.143 2.546-6.304 2.546-1.46 0-3.2-1.101-3.484-2.181-.359-1.37-.573-3.818-.573-8.937 0-5.09.495-10.91 1.508-11.887zm-8.754.528c2.573 2.833 2.305 12.505 2.812 18.805.13 1.606-1.33 2.733-2.691 2.733-2.434 0-2.954-2.764-5.414-2.764-2.123 0-2.03 1.571-3.461 1.94-.063-.967-.217-1.862.008-3.05 1.335-1.567 1.872-3.707 3.076-5.187 3.476-.223 5.011 2.1 5.829 2.252-.034.342 1.721 2.266 2.526 3.199-.177-1.67.009-3.34-.596-5.008l-.513-.093c-.303-1.044-.954-1.881-3.076-3.215-.924-.26-1.706-.458-2.549-.388 1.58-1.81 1.803-3.747 2.466-5.707.303-1.053 1.063-2.406 1.583-3.517z"/></g><g stroke="#000"><path d="m340.739 99.227c.314-1.844 2.269-2.982 5.43-2.982 2.546 0 4.372.124 4.372.124l-3.408 2.485s-.993-1.304-2.594-1.304c-2.544 0-2.628 1.444-3.8 1.677z" stroke-width=".245"/><path d="m344.992 90.997c.421-.593 1.069-1.266 1.83-1.57.345-.138.779-.14 1.098-.132.32.008.523.149.774.23.162.051.327.19.254.37-.076.185-.218.362-.43.373-.33.018-.695-.11-.995.089-.259.172-.356.708-.328 1.108-.629.458-1.557.082-2.203-.468z" stroke-width=".073"/></g><path d="m340.189 156.867c-.217 2.003-.738 3.966-2.21 5.808-.565-1.287-2.009-3.921-4.524-3.921-2.116 0-3.34 2.36-3.34 2.36l.377.714s.756-.388 1.599-.388c.337 0 .892.305 1.191.272.51.712 2.994 3.33 2.994 3.33s-2-.342-4.268-.349c-2.667-.008-4.223 2.721-3.499 5.179.608-.955 1.166-1.542 2.526-1.46 1.516-1.14 3.935-1.406 5.406-1.374-.107 1.12-2.304 2.367-2.812 4.946-.348 1.766.58 3.312 1.681 3.944a.91.91 0 0 1 .204-.024 2.966 2.966 0 0 0 .626-.07l.038-.007c-.063-.968-.217-1.863.008-3.052 1.335-1.567 1.872-3.707 3.076-5.186 3.476-.223 5.011 2.1 5.829 2.251-.034.343 1.721 2.267 2.526 3.2-.177-1.67.009-3.34-.596-5.009l-.513-.093c-.303-1.043-.954-1.88-3.076-3.214-.924-.261-1.706-.458-2.549-.388 1.58-1.81 1.803-3.835 2.466-5.795l-3.137-1.628zm19.311 1.413-2.707 1.928 2.858 5.89c-2.168.267-4.732-.105-5.867 2.042-1.384-.253-.367 4.155 1.539 4.744-.047-1.143-.165-2.377.233-2.53 1.933-2.11 4.442-1.097 6.206-1.6.785 1.491 1.422 3.027 1.81 4.635-.334.541-.68 1.092-1.033 1.654.075-.004.149-.008.226-.008a2.847 2.847 0 0 1 .694.093c.005 0 .01.006.015.008.052.015.107.028.158.046l.045.016c.038.014.076.03.113.046.031.013.06.025.091.04.047.021.09.045.136.07.075.04.154.084.226.131l.038.023c.058.04.117.08.173.125.069.053.131.11.196.17a7.007 7.007 0 0 0 1.93-1.646c.638-2.484-1.435-4.867-2.322-6.832 0 0 2.097 1.32 3.559 1.74.768.219 2.157.372 2.157.372.798.634 1.385 1.531 1.96 2.453.46-1.047.769-2.505.34-3.71-.249-.697-1.055-2.408-2.813-2.92-1.479-.431-3.102-.435-4.29-.458 1.051-.963 1.956-1.887 2.797-3.013.867-.117 1.333-.113 2.089 0 0 0-.521-2.81-2.904-2.81-.91 0-.723.504-.723.504-1.798-.352-2.634 1.237-3.884 3.712zm-46.351-58.991c-1.002 2.375-1.82 4.791-2.398 7.197 5.899 6.351 14.145 14.006 30.29 12.958-14.75-2.192-22.463-8.368-27.892-20.155zm72.116 2.903c-5.293 9.62-12.477 15.277-25.765 17.252 15.094.98 23.556-4.85 29.46-10.66-.389-2.233-2.092-4.84-3.8-6.126zm-42.437-13.273c-1.286 0-3.673.515-5.399 1.805-1.348 1.008-2.53 2.885-2.53 5.051 0 1.913 1.79 3.318 4.227 3.357 0 0 .041-2.219 1.52-3.13 1.477-.91 3.73-.17 3.73-.17s1.407-1.308 2.818-1.308c1.315 0 2.238.78 2.238 1.849 0 .96-1.529 1.656-3.093 1.656a7.512 7.512 0 0 0 -3.843 1.018c-1.837 1.053-1.823 2.873-1.823 2.873.945-.754 2.105-1.792 5.305-1.792 3.573 0 6.631-1.961 6.631-4.722 0-2.393-2.397-4.183-5.36-4.183-2.22 0-4.421-2.304-4.421-2.304z" fill="#fcdd09"/><g fill="none" stroke="#000" stroke-width=".245"><use xlink:href="#c"/><path d="m334.466 158.948c-.643.617-1.127 1.85-1.176 2.795m-2.775 3.292c-.42.818-.451 2.295.422 3.354m14.146 1.491c.737-.24 1.253-.858 1.508-1.925m-13.03 4.254c1.097-.253 1.864.106 2.564.59m17.637-4.594c.753.538 1.294 1.366 1.706 2.372m11.005-11.112 1.493 2.372m4.308 6.456c-.92-.235-1.807.13-2.005 1.274m-3.796 4.655c-.694-.381-1.165-.832-2.943-.878m-27.374 2.492c-.32.11-.51-.03-.854.107m27.234-.906c.646-.021 1.312-.001 2.162.813"/></g></g><use x="96.866" xlink:href="#a" y="115.393"/><use x="-96.601" xlink:href="#b" y="115.922"/><path d="m300 78.466v246.575m-98.858-131.589h197.188" stroke="#000" stroke-width="1.83"/></svg>