<svg xmlns="http://www.w3.org/2000/svg" width="600" height="400" version="1.0"><path fill="#00943a" stroke="#395475" stroke-width=".6" stroke-linecap="round" d="M.3.3h599.4v399.4H.3z"/><g stroke="#fff"><path fill="#b2b2b2" stroke-width="3.5001371999999997" stroke-linecap="round" d="M221.745 79.467h156.51v241.066h-156.51z"/><path d="M252.628 79.508c-1.775.878-3.53 3.39-3.53 5.189s1.755 4.31 3.53 5.188l-6.12 23.388v59.122l6.12 23.388c-1.775.878-3.53 3.39-3.53 5.188 0 1.8 1.755 4.31 3.53 5.19l-6.12 23.387v57.179l6.12 23.388v10.377h13.23v-10.377l6.146-23.388v-57.179l-6.145-23.388c1.774-.879 3.555-3.39 3.555-5.189s-1.78-4.31-3.555-5.188l6.145-23.388v-59.122l-6.145-23.388c1.774-.878 3.555-3.39 3.555-5.188 0-1.8-1.78-4.31-3.555-5.19h-13.231zM292.332 79.508c-1.775.878-3.53 3.39-3.53 5.189s1.755 4.31 3.53 5.188l-6.12 23.388v59.122l6.12 23.388c-1.775.878-3.53 3.39-3.53 5.188 0 1.8 1.755 4.31 3.53 5.19l-6.12 23.387v57.179l6.12 23.388v10.377h13.23v-10.377l6.146-23.388v-57.179l-6.145-23.388c1.774-.879 3.555-3.39 3.555-5.189s-1.78-4.31-3.555-5.188l6.145-23.388v-59.122l-6.145-23.388c1.774-.878 3.555-3.39 3.555-5.188 0-1.8-1.78-4.31-3.555-5.19h-13.231zM332.036 79.508c-1.775.878-3.53 3.39-3.53 5.189s1.755 4.31 3.53 5.188l-6.12 23.388v59.122l6.12 23.388c-1.775.878-3.53 3.39-3.53 5.188 0 1.8 1.755 4.31 3.53 5.19l-6.12 23.387v57.179l6.12 23.388v10.377h13.23v-10.377l6.146-23.388v-57.179l-6.145-23.388c1.774-.879 3.555-3.39 3.555-5.189s-1.78-4.31-3.555-5.188l6.145-23.388v-59.122l-6.145-23.388c1.774-.878 3.555-3.39 3.555-5.188 0-1.8-1.78-4.31-3.555-5.19h-13.231z" fill="red" fill-rule="evenodd" stroke-width="3.60014112"/><path d="M221.906 113.372h156.188M377.932 172.454H222.068M377.932 229.922H222.068M377.932 286.422H222.068" fill="none" stroke-width="3.60014112"/></g></svg>