<svg xmlns="http://www.w3.org/2000/svg" width="1000" height="700"><path fill="#900" d="M0 0h1000v700H0z"/><path fill="#fff" d="M150 93.5l176.688 116.109c98.493 62.6 220.087 129.025 263.344 165.922 18.088 15.429 14.832 64.477-6.625 88.234-9.994 11.065-83.697 56.4-140.781 90.735 5.805-10.561 9.11-22.689 9.11-35.594 0-40.85-33.089-73.969-73.907-73.969s-73.906 33.12-73.906 73.969c0 24.86 12.253 46.859 31.047 60.266l-52.516 30.89 97.375-16.328c18.458-2.819 86.47-13.434 164.937-28.547 86.173-16.597 175.608-30.44 186.281-32.578 32.107-6.432 88.229-7.534 93.875-73.875 1.509-34.744-17.793-63.96-56.953-93.531C627.591 268.443 459.6 221.85 304.25 155.172 216.011 119.947 150 93.5 150 93.5z"/></svg>