<svg height="400" width="600" xmlns="http://www.w3.org/2000/svg"><path d="m0 0h600v400h-600z" fill="#1a15a3" fill-rule="evenodd"/><g stroke-width="3.327"><path d="m300 104.936-17.582 62.355-97.678-33.836 76.84 66.545-76.84 66.545 96.05-33.274 19.21 99.819 19.21-99.819 96.05 33.274-76.84-66.545 76.84-66.545-97.678 33.836z" fill="#fff" fill-rule="evenodd" stroke="#ffec50"/><path d="m300 66.909-26.618 38.026 26.618 38.025 26.618-38.026z" fill="#fff" fill-rule="evenodd" stroke="#fff"/><path d="m184.74 133.454 92.208 79.855 23.052 119.781 23.052-119.782 92.208-79.855" fill="none" stroke="#ffec50"/><path d="m289.821 140.937 2.5-8.883-18.993-27.12 26.683-38.086 26.652 38.1-18.982 27.081 3.926 13.998" fill="none" stroke="#ffec50"/></g></svg>