<svg xmlns="http://www.w3.org/2000/svg" version="1.0" width="400" height="266"><path fill="#019066" d="M0 0h400v266H0z"/><path d="M160.822 66.353s-14.466 9.738-15.363 47.576c-36.262-10.839-49.983-.142-49.983-.142s4.789 16.765 40.496 29.31c-21.524 31.146-15.505 47.506-15.505 47.506s17.376.666 40.355-29.452c22.979 30.118 40.354 29.452 40.354 29.452s6.006-16.37-15.504-47.505c35.707-12.546 40.496-29.24 40.496-29.24s-13.721-10.768-49.983.071c-.897-37.838-15.363-47.576-15.363-47.576z" fill="#fff"/><path d="M160.822 114.07c-11.596 0-21.027 9.36-21.027 20.957 0 11.596 9.43 21.026 21.027 21.026 11.596 0 21.027-9.43 21.027-21.026s-9.431-20.956-21.027-20.956zm0 7.01c7.705 0 13.947 6.24 13.947 13.947 0 7.705-6.242 14.017-13.947 14.017-7.706 0-13.947-6.312-13.947-14.017 0-7.706 6.241-13.947 13.947-13.947zM0 0h400v53.2H0zM0 212.8h400V266H0z" fill="#f9f400"/></svg>