<svg height="314" width="471" xmlns="http://www.w3.org/2000/svg"><g fill-rule="evenodd"><path d="m0 0h471v314h-471z" fill="#d84b24" stroke="#d84b24"/><path d="m290.62 136.516a100.056 93.338 0 1 1 -200.11 0 100.056 93.338 0 1 1 200.11 0z" fill="#fff" stroke="#fff" stroke-width="1.023" transform="matrix(.94458 0 0 1.01257 9.247 .658)"/><path d="m279.286 146.143a66.429 65 0 1 1 -132.857 0 66.429 65 0 1 1 132.857 0z" fill="#d84b24" stroke="#d84b24" stroke-width="1.051" transform="matrix(.94122 0 0 .96191 -12.132 -1.926)"/><path d="m64.347 202.984c13.742.34 26.371-6.862 33.234-19.092 4.007 10.371 10.017 18.267 17.324 26.163-9.203 9.907-19.114 18.963-34.295 20.506zm215.313-17.324c-5.445 9.24-11.415 18.216-18.738 26.517 10.96 10.724 20.742 16.499 34.649 20.506 8.269-10.116 14.474-19.819 18.03-28.992-12.443.704-25.716-5.06-33.94-18.03zm-120.561-169.352 44.548.707c-11.213 12.39-1.39 25.213 6.717 30.052l-39.951 6.718c-7.998-10.371-11.749-24.985-11.314-37.477z" fill="#fff" stroke="#fff"/><path d="m153.819 38.792 4.455-28.475c-.52 11.73 2.895 38.475 18.696 51.922 9.767 8.312 19.63 14.212 28.798 16.294l-24.748-2.473c-6.16-3.948-23.16-21.468-27.2-37.267z" fill="#d84b24" stroke="#d84b24"/></g></svg>