<svg xmlns="http://www.w3.org/2000/svg" xmlns:xlink="http://www.w3.org/1999/xlink" width="300" height="210"><path fill="#6499cd" d="M0 0h300v210H0z"/><use transform="translate(0 -123.295)" width="300" height="210" xlink:href="#a"/><path d="M257.436 79.416c31.47 0 42.563 5.418 42.563 5.418s-51.85-28.632-81.256-28.632c-29.407 0-141.873 30.437-167.153 30.437S0 81.48 0 81.48s41.61 24.748 83.084 25.746l12.986 18.784c-19.922 4.135-36.524 7.15-44.48 7.15-25.28 0-51.59-5.157-51.59-5.157s43.337 25.794 85.64 25.794c42.304 0 118.658-27.855 171.797-27.855 31.47 0 42.563 5.417 42.563 5.417s-51.85-28.634-81.256-28.634c-.472 0-1.021.03-1.533.045l-12.02-17.385c18.465-3.48 36.39-5.97 52.245-5.97zm-72.46 27.844c-17.272 3.24-38.005 7.778-58.13 12.162l-10.59-15.323c17.665-3.019 37.672-7.752 58.047-12.278l10.672 15.439z" fill="#fff"/><path d="M51.59 171.548C26.31 171.548 0 166.39 0 166.39s43.336 25.794 85.64 25.794 118.658-27.856 171.797-27.856c31.47 0 42.563 5.418 42.563 5.418s-51.85-28.635-81.256-28.635c-29.408 0-141.874 30.437-167.154 30.437z" id="a" fill="#fff"/></svg>