<svg height="310" width="440" xmlns="http://www.w3.org/2000/svg" xmlns:xlink="http://www.w3.org/1999/xlink"><path d="m0 0h440v310h-440z" fill="#08b"/><path d="m58 249 108.917-177.968c7.09-12.294 20.124-22.032 36.033-22.032h135.01l-37.091 59.167c-7.49 12.989-19.758 20.727-40.658 20.727h-29.286l-15.242 23.81h38.98c13.379 0 18.482 6.426 12.506 16.789l-48.511 79.507h-34.88l42.042-68.783h-49.365c-5.98 0-8.114-4.16-4.45-10.512l38.362-60.69c2.647-4.588 8.489-8.163 15.472-8.163h41.119c3.692 0 8.026-3.18 10.173-6.902l9.093-15.32h-72.678c-9.56 0-20.007 5.83-23.889 12.561l-96.777 157.809z" fill="#fff"/><use height="310" transform="translate(58.133)" width="440" xlink:href="#a"/><path id="a" d="m298.987 153.762-57.076 95.238h34.88l57.076-95.238z" fill="#fff"/></svg>