<svg xmlns="http://www.w3.org/2000/svg" version="1" width="900" height="600"><path fill="#005933" d="M0 0h900v600H0z"/><path d="M570.017 480H650c-9.702-118.493-60.684-225.29-138.568-305.96a502.95 502.95 0 0 0-61.42-54.04h-.029a502.771 502.771 0 0 0-61.42 54.04 503.254 503.254 0 0 0-26.74 29.999C327.96 181.565 290.296 164.362 250 153.606v83.024a300.104 300.104 0 0 1 66.397 32.599C279.714 331.94 256.3 403.358 250 479.629V480h79.972c5.522-56.515 22.23-109.745 47.882-157.452 38.062 43.272 63.903 97.554 72.134 157.452h80.01c-9.443-87.328-48.412-165.794-106.736-225.213a422.526 422.526 0 0 1 26.735-29.596c66.322 66.808 110.349 155.77 120.02 254.809z" fill="#fff"/></svg>