<svg xmlns="http://www.w3.org/2000/svg" width="510" height="340" version="1.0"><g fill-rule="evenodd"><path style="marker:none" color="#000" fill="#fff" stroke="#fff" overflow="visible" d="M0 0h510v340H0z"/><path d="M131.605 274.466c10.815 1.223 45.445-15.736 49.094-48.513l.118-30.405c-6.723.353-45.137-25.553-44.32-69.322-.018-45.366 37.693-75.37 66.796-75.635l.126-15.026h25.128l.126 15.405c9.285.525 21.483 6.518 26.517 12.122 6.214-6.423 18.105-10.427 27.148-12.5l-.127-15.027 26.264-.126.505 14.268c39.354 6.341 64.683 39.294 64.145 72.353-1.053 43.704-26.345 65.088-42.553 75.003l.926 28.132c-.424 29.159 33.332 49.543 48.32 49.271v22.224c-45.462-1.736-73.064-32.521-73.237-71.09l-.757-119.072 24.748-.126.38 58.463c11.05-4.934 23.633-33.05 17.803-51.14-14.137-39.975-44.694-38.65-52.78-38.385-8.213.265-13.806 1.062-20.708 4.546 7.315 10.499 12.887 20.345 14.43 37.758l-.036 154.802c-.051 11.364-11.667 30.09-33.335 29.926-21.794-.165-34.704-20.452-34.724-30.684v-154.3c-.124-7.56 6.646-29.822 14.647-37.881-13.608-4.547-23.505-5.964-39.27-2.778-18.339 3.328-34.913 30.243-35.607 43.31-1.087 19.279 6.491 36.73 20.455 46.72l-1.262-60.23 25.001-.127-.7 113.144c1.049 34.03-18.175 58.354-30.11 64.39-12.236 6.19-20.712 12.682-43.196 12.61l.045-22.08z" fill="red" stroke="red"/><path d="M255.569 97.563c-3.609 5.39-8.305 10.964-9.597 23.234l-.379 147.987c.199 4.971 5.589 8.521 10.137 8.398 3.961-.108 9.816-3.08 9.94-8.65l-.757-147.861c-.556-8.113-5.12-17.56-9.344-23.108z" fill="#fff" stroke="#fff"/></g></svg>