<svg height="700" width="1050" xmlns="http://www.w3.org/2000/svg"><path d="m0 0h1050v700h-1050z" fill="#950017"/><path d="m542.73 569.947c66.766-6.12 125.958-42.307 160.745-98.27 17.58-28.281 29.94-66.247 31-95.22l.255-7-41.208-.26c-46.964-.298-42.521-1.24-43.68 9.26-1.085 9.838-5.445 24.344-10.548 35.093-21.299 44.87-64.144 72.429-113.064 72.723-16.04.096-25.952-1.362-39.584-5.823-28.259-9.249-50.853-26.5-67.125-51.254-9.727-14.796-15.849-30.751-19.105-49.793l-1.7-9.946h-82.986l-.309 3.727c-.464 5.604 2.527 25.443 5.777 38.312 14.945 59.176 54.394 108.66 108.532 136.143 21.699 11.015 47.141 18.891 68.5 21.205 5.775.626 11.85 1.29 13.5 1.476 6.645.748 20.606.58 31-.373zm4-136.977c35.093-11.08 57.731-45.126 53.533-80.513-.727-6.125-4.942-19.676-17.99-57.829-15.197-44.432-18.062-53.67-16.646-53.67.218 0 3.525 1.272 7.348 2.828 40.076 16.31 70.01 54.243 76.676 97.171l1.164 7.5h83.915l-.283-5.5c-1.484-28.848-13.785-66.072-30.972-93.72-34.508-55.514-94.399-92.352-159.563-98.144-5.4-.48-10.182-1.27-10.626-1.754-.444-.485-2.257-5.292-4.03-10.682-1.802-5.477-3.704-9.64-4.312-9.437-.599.2-2.612 4.932-4.474 10.518-3.88 11.643-1.435 10.227-21.168 12.253-21.996 2.26-47.408 10.034-69.572 21.285-47.388 24.056-84.379 65.913-102.477 115.96-6.33 17.504-13.534 53.34-11.69 58.146.55 1.434 4.843 1.57 41.866 1.336l41.254-.26.689-2.5c.379-1.376 1.584-6.797 2.678-12.049 8.5-40.792 37.877-75.478 76.963-90.868 4.03-1.587 5.397-1.78 5.767-.814.418 1.087-17.283 54.428-30.606 92.23-4.117 11.68-4.231 12.347-4.291 25-.045 9.548.412 14.711 1.72 19.442 7.516 27.178 27.686 47.399 54.627 54.766 11.205 3.064 29.594 2.748 40.5-.695z" fill="#fff"/></svg>