<svg xmlns="http://www.w3.org/2000/svg" version="1.0" width="1500" height="1000"><path fill="#00594c" d="M0 0h1500v1000H0z"/><path d="M754.278 170c-81.544 0-134.22 61.735-134.22 177.99 0 109.382 36.692 161.1 82.67 181.492a421.462 421.462 0 0 0 5.776-7.423c19.336-25.427 36.156-53.398 49.036-80.448-2.987.654-6.093 1.045-9.358 1.045-18.458 0-41.152-49.024-39.624-94.666 1.527-45.642 13.918-87.923 45.72-87.923 22 0 42.78 33.744 42.78 87.923 0 57.757-45.561 148.08-104.222 212.438-78.318-62.753-132.831-139.308-245.34-139.308-55.274 0-109.996 50.981-109.996 114.74 0 68.174 99.432 188.758 246.623 188.758 37.452 0 79.324-18.12 119.515-48.249a387.257 387.257 0 0 0 40.159 19.864c-22.551 46.5-39.561 92.863-49.143 133.767h97.698c7.79-35.664 20.45-72.76 36.63-108.519 27.56 5.037 57.897 7.893 91.547 7.893 149.813 0 241.971-123.443 241.971-191.162 0-33.042-22.973-120.647-117.322-120.647-94.863 0-189.404 91.506-257.693 199.893-5.142-2.056-10.125-4.272-15.026-6.534 62.278-73.027 108.927-171.073 108.927-262.934 0-145.306-88.736-177.99-127.108-177.99zm287.263 339.566c22.366 0 31.764 16.846 31.764 31.05 0 39.421-91.557 100.365-155.236 100.365-15.358 0-29.86-.81-43.635-2.3 48.874-74.31 110.586-129.115 167.107-129.115zm-584.526 2.143c62.701 0 104.726 53.029 166.572 106.742-20.667 11.959-41.403 18.923-61.174 18.923-69.887 0-133.74-65.67-133.74-93.412 0-16.668 11.478-32.253 28.342-32.253z" fill="#fff"/></svg>