<svg xmlns="http://www.w3.org/2000/svg" width="1350" height="900"><path fill="#650065" d="M0 0h1350v900H0z"/><path d="M1007.446 322.34l-117.395.176C840.31 241.562 775.417 201.054 674.999 200c-91.5 0-171.485 49.17-215.046 122.516l-117.399-.176 332.447 196.81 332.446-196.81zm-455.948-16.86l92.321 54.657v-97.714a190.991 190.991 0 0 1 31.18-2.582c10.622 0 21.033.904 31.177 2.582v97.714l92.327-54.657a191.122 191.122 0 0 1 40.009 47.55l-163.513 96.799-163.514-96.8a191.1 191.1 0 0 1 40.013-47.55z" fill="#fed61c"/><path d="M864.098 429.93c.691 6.595 1.06 13.288 1.06 20.07 0 87.76-59.467 161.594-140.291 183.512l-49.868-93.087-49.864 93.085C544.31 611.594 484.84 537.76 484.84 450c0-6.784.37-13.475 1.062-20.07l-55.267-32.721A250.727 250.727 0 0 0 425 450c0 138.07 111.929 250 250 250 138.07 0 250-111.93 250-250 0-18.119-1.974-35.768-5.636-52.791l-55.265 32.72z" fill="#fed61c"/></svg>