<svg height="700" width="1000" xmlns="http://www.w3.org/2000/svg"><path d="m0 0h1000v700h-1000z" fill="#76b138"/><path d="m384.403 234.589h114.887v93.117h-114.887z" fill="#fff"/><g fill="none" stroke="#76b138"><path d="m441.847 234.589v93.117" stroke-width="2.511"/><path d="m384.403 281.797 57.444-47.208 57.444 47.208" stroke-width="2.510943"/><path d="m384.403 304.751 57.444-47.21 57.444 47.21" stroke-width="2.510943"/><path d="m384.403 327.706 57.444-47.21 57.444 47.21" stroke-width="2.510943"/></g><path d="m541.647 234.589h94.183v62.828c0 29.344-23.189 61.526-97.493 61.526-74.306 0-82.351 40.7-82.351 60.106v47.326h-92.763v-62.472c0-26.978 22.243-60.579 92.763-60.579s85.66-36.915 85.66-52.534v-56.2z" fill="#fff"/><path d="m467.455 466.375h56.874s.436 6.197.436-38.52c0-44.72 67.297-49.497 112.012-56.008h-123.734c-26.917 0-45.588 18.669-45.588 41.678z" fill="#fff"/><path d="m616.315 429.036c0 20.624-16.72 37.339-37.339 37.339-20.624 0-37.339-16.715-37.339-37.34 0-20.618 16.715-37.336 37.34-37.336 20.618 0 37.338 16.718 37.338 37.337z" fill="#fff"/></svg>