<svg height="700" width="1000" xmlns="http://www.w3.org/2000/svg"><path d="m0 350v-350h1000v700h-1000z" fill="#234794"/><path d="m327.84 140c-62.954 0-73.811.142-73.594 1.086.14.608 14.635 18.783 32.22 40.386 17.586 21.603 32.281 40.057 32.665 41.003.575 1.416-.267 3.177-4.786 9.943-11.263 16.862-18.425 31.466-24.794 50.501-7.898 23.604-10.51 40.095-10.51 66.292 0 19.876.966 29.473 4.712 46.16 12.925 57.566 50.851 108.049 102.854 136.923 22.282 12.373 51.246 21.724 75.912 24.499 4.125.464 8.744.983 10.264 1.16 7.075.82 35.616-.332 45.394-1.826 13.107-2.004 21.711-4.03 34.046-8.043 7.014-2.282 9.796-3.526 9.622-4.318-.49-2.237-89.462-111.566-91.43-112.352-1.086-.432-4.106-1.38-6.711-2.097-12.52-3.446-25.828-11.688-36.094-22.352-22.457-23.327-29.266-56.167-18.035-86.94 8.188-22.435 26.582-40.857 49.022-49.046 14.429-5.266 7.497-4.915 112.031-5.403l95.082-.444 3.948-6.316c2.18-3.474 20.115-31.007 39.843-61.184 19.729-30.178 36.032-55.503 36.242-56.275.366-1.344-5.68-1.395-138.849-1.16-138.06.244-139.326.246-149.555 1.925-12.748 2.092-24.408 4.932-35.107 8.536-4.5 1.515-8.392 2.763-8.66 2.763s-3.041-3.02-6.168-6.71l-5.699-6.711zm254.901 140.674c-26.513-.007-45.222.095-45.222.272 0 .235 3.332 3.609 7.402 7.5 12.12 11.586 19.756 24.336 23.98 40.066 1.825 6.794 2.048 9.148 2.048 20.699 0 11.632-.211 13.862-2.097 20.896-9.022 33.644-36.754 57.723-71.793 62.368-2.063.274-3.75.84-3.75 1.259 0 1.33 97.608 121.781 101.2 124.884 1.5 1.295 6.297 1.382 76.086 1.382 47.13 0 74.627-.281 74.926-.765.26-.42-17.415-22.535-39.276-49.145-21.862-26.61-39.992-48.797-40.288-49.292s1.572-4.612 4.145-9.153c12.459-21.99 21.09-47.624 25.04-74.408 2.114-14.33 1.93-43.63-.37-58.421-1.738-11.181-5.119-25.604-7.87-33.553l-1.504-4.342-73.94-.222c-10.166-.028-19.879-.022-28.717-.025z" fill="#fcd400"/></svg>