<svg height="1000" width="1500" xmlns="http://www.w3.org/2000/svg"><path d="m0 0h1500v1000h-1500z" fill="#4b0082"/><path d="m750 166.667-27.778 27.777v141.216c-40.266 6.765-75.65 27.975-100.625 58.125l-122.326-70.625-37.952 10.173 10.174 37.934 122.274 70.608c-6.742 18.1-10.434 37.685-10.434 58.125s3.692 40.025 10.434 58.125l-122.274 70.59-10.174 37.952 37.952 10.156 122.326-70.608c24.975 30.15 60.36 51.36 100.625 58.125v141.216l27.778 27.777 27.778-27.777v-141.216c40.266-6.765 75.65-27.975 100.625-58.125l122.326 70.608 37.952-10.156-10.174-37.952-122.274-70.59c6.742-18.1 10.434-37.685 10.434-58.125s-3.692-40.025-10.434-58.125l122.274-70.608 10.174-37.934-37.952-10.173-122.326 70.625c-24.975-30.15-60.36-51.36-100.625-58.125v-141.216z" fill="#fff"/><circle cx="750" cy="500" fill="#4b0082" r="111.111"/><circle cx="750" cy="500" fill="#fff" r="55.556"/></svg>