<svg xmlns="http://www.w3.org/2000/svg" width="1500" height="1000"><path fill="indigo" d="M0 0h1500v1000H0z"/><path d="M750 166.667l-27.778 27.777V335.66c-40.266 6.765-75.65 27.975-100.625 58.125L499.271 323.16l-37.952 10.173 10.174 37.934 122.274 70.608c-6.742 18.1-10.434 37.685-10.434 58.125 0 20.44 3.692 40.025 10.434 58.125l-122.274 70.59-10.174 37.952 37.952 10.156 122.326-70.608c24.975 30.15 60.36 51.36 100.625 58.125v141.216L750 833.333l27.778-27.777V664.34c40.266-6.765 75.65-27.975 100.625-58.125l122.326 70.608 37.952-10.156-10.174-37.952-122.274-70.59c6.742-18.1 10.434-37.685 10.434-58.125 0-20.44-3.692-40.025-10.434-58.125l122.274-70.608 10.174-37.934-37.952-10.173-122.326 70.625c-24.975-30.15-60.36-51.36-100.625-58.125V194.444L750 166.667z" fill="#fff"/><circle fill="indigo" cx="750" cy="500" r="111.111"/><circle fill="#fff" cx="750" cy="500" r="55.556"/></svg>