<svg xmlns="http://www.w3.org/2000/svg" version="1.0" width="1800" height="1200"><path d="M0 0h1800v1200H0V0z" fill="#fff"/><path d="M890.103 999.732c-5.518-1.21-171.6-132.726-170.593-135.087.902-2.112 40.354-33.695 236.469-189.298l104.29-82.747-1.078-11.467c-3.932-41.834-31.195-87.168-67.094-111.568-27.245-18.518-50.86-26.265-83.958-27.544-36.994-1.428-65.305 5.92-93.31 24.218-42.199 27.572-69.018 72.18-73.03 121.472l-1.084 13.333 68.88 55.479c38.817 31.264 68.5 56.373 68.01 57.527-1.073 2.518-171.11 137.808-174.149 138.561-1.856.461-172.511-131.867-185.481-143.824-7.19-6.628-14.513-43.156-17.232-85.953-6.28-98.847 27.557-202.39 90.864-278.048 64.494-77.074 150.686-125.752 250.565-141.508 27.791-4.384 88.796-4.368 115.762.03 112.592 18.366 206.207 76.206 269.897 166.755 62.125 88.324 85.928 202.28 64.41 308.355-3.077 15.174-5.013 20.89-8.07 23.827-6.364 6.116-385.16 296.352-388.068 297.341-1.437.488-4.137.554-6 .146z" fill="#29437f"/></svg>