<svg height="700" width="1000" xmlns="http://www.w3.org/2000/svg"><path d="m0 0h1000v700h-1000z" fill="#714d94"/><path d="m449.739 288.465v63.366l-31.369 30.169m31.368-30.17 23.774 23.925m28.588-105.571v101.708l-47.156 46.457m47.155-46.457 47.155 46.457m5.38-129.884v63.366l31.368 30.169m-31.368-30.17-23.775 23.925" fill="none" stroke="#f5bf05" stroke-width="16.07"/><path d="m260.274 435.145h74.47l98.604-175.27c3.944-7.01 13.011-13.222 18.785-13.222h102.461c8.944 0 14.715 3.693 18.16 9.641l108.733 187.808h-425.184l-37.523 65.898h554.57c7.2 0 11.455-13.298 3.843-26.748l-144.814-255.854c-10.679-18.865-40.993-42.398-63.433-42.398h-125.648c-30.874 0-54.624 24.88-59.802 33.963z" fill="#fff" fill-rule="evenodd"/></svg>