<svg enable-background="new 0 0 471.43 300" height="300" viewBox="0 0 471.43 300" width="471.43" xmlns="http://www.w3.org/2000/svg" xmlns:xlink="http://www.w3.org/1999/xlink"><rect fill="#009645" height="50%" width="100%" y="50%"/><rect fill="#fff" height="50%" width="100%"/><g transform="matrix(.425534 0 0 .425534 189.118 15.213)"><path d="m.498.498v194.561c3.071 54.22 64.719 63.871 109.502 86.443 44.782-22.572 106.432-32.223 109.502-86.443v-194.561z" fill="#d9d9d9" stroke="#000" stroke-width="1.5"/><g id="a"><path d="m53.6 100.856c-12.301-12.248-2.289-11.505-2.69-28.009 1.347-16.503-12.372-20.917-6.606-34.767 1.952-4.688 8.127-8.599 9.296-11.396 1.169 2.797 7.345 6.708 9.296 11.396 5.765 13.85-7.953 18.264-6.606 34.767-.401 16.504 9.611 15.761-2.69 28.009zm-23.853-28.494c1.909.001 4.75-.35 4.319-2.305-.431-1.956-1.129-1.623-6.767-2.881-3.652-.816-7.691-4.889-7.409-9.824.282-4.934 1.873-9.384 10.002-9.764 8.371-.392 18.552 11.975 18.216 24.191-.336 12.217-3.366 19.018-9.764 19.237-6.312.219-6.504-8.602-1.226-11.725 0 0-.253 3.563 2.471 3.425 2.638-.133 5.957-2.992 6.142-6.912.288-6.108-2.273-13.679-5.834-17.96-2.801-3.368-7.077-3.753-6.945-2.28.307 3.432 8.234 6.546 8.307 13.327.042 3.93-2.599 7.356-5.247 7.116-2.637-.241-4.299-1.516-6.265-3.645zm47.706-.001c-1.909.001-4.75-.349-4.319-2.305s1.129-1.623 6.767-2.881c3.652-.816 7.691-4.889 7.409-9.824-.282-4.934-1.873-9.384-10.002-9.764-8.372-.392-18.553 11.975-18.216 24.191.336 12.216 3.366 19.017 9.764 19.236 6.312.219 6.505-8.602 1.226-11.725 0 0 .253 3.563-2.471 3.425-2.638-.133-5.957-2.992-6.142-6.912-.287-6.108 2.273-13.679 5.834-17.96 2.801-3.367 7.076-3.753 6.944-2.28-.307 3.432-8.233 6.546-8.307 13.327-.042 3.93 2.599 7.356 5.247 7.116 2.638-.24 4.3-1.515 6.266-3.644z" fill="red" stroke="#000" stroke-width="1.024"/><path d="m53.1 36.644v55.25h1v-55.25z"/><path d="m44.184 74.347h18.832v3.433h-18.832z" fill="red" stroke="#000" stroke-width="1.168"/><path d="m44.184 67.391h18.832v3.432h-18.832z" fill="red" stroke="#000" stroke-width="1.168"/><path d="m44.184 70.861h18.832v3.432h-18.832z" fill="red" stroke="#000" stroke-width="1.168"/></g><use transform="translate(0 115.075)" xlink:href="#a"/><use transform="translate(112.8)" xlink:href="#a"/><use transform="translate(112.8 115.075)" xlink:href="#a"/><path d="m113.788 196.537c.866-.34 1.435-1.508 2.548-1.709 6.262-1.143 9.145-21.18-2.611-23.725l.231-46.397c.86-.338 1.425-1.498 2.53-1.699 6.221-1.133 9.084-21.04-2.594-23.567l.063-44.229c.861-.338 1.426-1.498 2.531-1.699 6.221-1.133 9.084-21.04-2.594-23.567l.146-29.352h-12.125l.054 26.118c-8.805 1.823-9.067 11.901-5.094 17.282-.7 7.98 2.945 9.271 4.971 11.92l.123 40.292c-8.805 1.823-9.067 11.901-5.094 17.282-.7 7.98 2.945 9.271 4.971 11.92l-.124 42.441c-8.863 1.834-9.127 11.979-5.127 17.396-.705 8.032 2.964 9.332 5.003 11.997l.214 48.574c-.883 5.023-1.204 7.924-3.133 11.726 2.247 1.983 5.918 4.327 10.208 6.063 2.206-1.399 5.895-3.843 9.702-5.763-1.675-3.476-3.676-6-3.737-9.603l-.709-51.743" fill="red"/><g fill="none" stroke="#000"><path d="m103.126 189.014c4.312 7.676 8.413 7.195 12.252 6.391m-3.459-9.322c2.821 2.552 5.979 3.05 9.739-1.39m-17.319-12.355c-6.6 3.826-5.475 6.684-5.559 13.947m11.016-9.702c.719 5.289-4.57 8.333-10.813 10.409m2.365-18.937c2.284 3.971 4.87 7.283 8.347 8.629 1.314.098 2.628-.033 3.942-.201 2.618.043 3.942-1.063 4.735-2.641m-21.772 11.469c2.457 1.688 4.874 3.271 6.83 3.703 3.05-.045 6.125 0 8.389-2.931 2.188-1.308 2.623-4.897 2.123-9.702.043-1.643-.105-3.188.271-4.998m-11.087-123.993c4.531 8.066 8.829 7.125 12.834 6.266m-4.041-9.197c2.86 2.587 6.067 3.063 9.897-1.578m-17.477-12.167c-6.6 3.825-5.475 6.682-5.559 13.947m11.016-9.702c.719 5.289-4.57 8.333-10.813 10.41m2.661-18.432c2.212 3.745 4.723 6.834 8.052 8.123 1.314.098 2.628-.034 3.941-.202 2.527.042 3.85-.986 4.65-2.477m-21.554 11.396c2.411 1.652 4.776 3.189 6.697 3.613 3.05-.046 6.125 0 8.389-2.931 2.188-1.308 2.623-4.898 2.123-9.702.041-1.524-.086-2.965.197-4.61m1.761 93.195c.021-.004.041-.008.061-.013m-12.835-6.266c4.508 8.026 8.786 7.135 12.774 6.279m-3.982-9.21c2.861 2.587 6.066 3.063 9.898-1.578m-17.477-12.166c-6.6 3.826-5.475 6.683-5.559 13.947m11.016-9.703c.718 5.289-4.571 8.334-10.814 10.41m2.579-18.571c2.232 3.808 4.764 6.958 8.134 8.263 1.313.098 2.627-.034 3.942-.202 2.592.044 3.915-1.04 4.711-2.593m-21.461 11.617c2.357 1.611 4.664 3.092 6.542 3.507 3.05-.045 6.125 0 8.388-2.931 2.188-1.308 2.623-4.898 2.123-9.702.043-1.583-.097-3.077.232-4.803m-12.334-43.519c4.195.793 8.259.931 12.131-.666m-12.511 69.559c4.347 1.048 8.458 1.598 12.503.17m-12.372 72.147c4.355.904 8.585 1.186 12.588-.416m-12.997 52.211c1.598 5.609 3.233 11.066 7.449 14.508m-6.903-30.551c3.741 4.773 7.463 9.371 13.023 10.771m-12.947 1.659c7.106 9.828 10.249 11.049 16.142 12.559m-16.272-37.692c3.715 4.744 7.403 9.326 12.883 10.791m-.108-12.285c.1.021.199.043.301.063m-13.108-10.139c3.628 4.598 7.334 8.873 12.807 10.076m-12.845-21.418c3.694 4.718 7.3 9.376 12.601 11.074m-12.795-11.322c.065.082.13.166.194.248m.124-37.877c3.462 4.406 6.951 8.594 11.937 10.164m-11.918-21.303c3.449 4.377 6.956 8.484 11.972 9.959m-11.929-20.031c3.428 4.323 6.96 8.303 12.015 9.63m-11.972-20.11c3.405 4.258 6.959 8.104 12.044 9.288m-11.947-47.851c3.393 4.267 6.907 8.167 11.915 9.465m-11.95-22.174c3.451 4.384 6.952 8.51 11.958 10.009m-11.986-19.847c3.461 4.397 6.968 8.542 11.988 10.044m-12.013-20.445c3.479 4.428 6.987 8.629 12.018 10.174m-11.898-47.004c3.4 4.291 6.899 8.25 11.881 9.622m-11.925-21.625c3.442 4.365 6.952 8.445 11.973 9.892"/><path d="m113.788 196.537c.866-.34 1.435-1.508 2.548-1.709 6.262-1.143 9.145-21.18-2.611-23.725l.231-46.397c.86-.338 1.425-1.498 2.53-1.699 6.221-1.133 9.084-21.04-2.594-23.567l.063-44.229c.861-.338 1.426-1.498 2.531-1.699 6.221-1.133 9.084-21.04-2.594-23.567l.146-29.352h-12.125l.054 26.118c-8.805 1.823-9.067 11.901-5.094 17.282-.7 7.98 2.945 9.271 4.971 11.92l.123 40.292c-8.805 1.823-9.067 11.901-5.094 17.282-.7 7.98 2.945 9.271 4.971 11.92l-.124 42.441c-8.863 1.834-9.127 11.979-5.127 17.396-.705 8.032 2.964 9.332 5.003 11.997l.214 48.574c-.883 5.023-1.204 7.924-3.133 11.726 2.247 1.983 5.918 4.327 10.208 6.063 2.206-1.399 5.895-3.843 9.702-5.763-1.675-3.476-3.676-6-3.737-9.603l-.709-51.743" stroke-linecap="round" stroke-linejoin="round"/></g></g></svg>