<svg height="300" width="471.42999" xmlns="http://www.w3.org/2000/svg"><g transform="matrix(1.714291 0 0 1.714292 -.000001 -.001087)"><path d="m.000002 87.500328h275v87.499664h-275z" fill="#009645"/><path d="m.000002.00066h275v87.499664h-275z" fill="#fff"/></g><g transform="matrix(.425532 0 0 .425532 188.9055 14.99998)"><path d="m.49999249.50000751v194.55763249c3.07095301 54.21973 64.71821851 63.87056 109.50000751 86.44237 44.78178-22.57181 106.42905-32.22264 109.50001-86.44237v-194.55763249z"/><path d="m.5.5v141.71875c.15213676.00199.36067916-.00242.5 0 1.586077.45364 5.0135875.80653 4.46875-2-.5031561-1.36653.9785453-2.94363 2.375-2.53125 4.68813-.28638 9.374183-.0625 14.0625-.34375 1.033055-.40901 2.348218.36795 2.5 1.46875-.410911.99112-.110294 2.22359.71875 2.90625 1.967376.57692 4.037642.45764 6.0625.53125 1.417604.28899 2.850626-1.10455 2.65625-2.53125-.566917-1.50789 1.403384-3.11582 2.78125-2.3125 2.831893.22344 5.660551.28632 8.5.3125 2.095836.12224 4.29948-.67123 6.3125.21875 1.078558 1.01558.540469 2.72911 1.5 3.8125 1.180177.68418 2.576558.56128 3.875.40625 1.391696.38412 2.959409-.78402 3-2.21875-.365507-1.58434 1.501346-3.12898 2.96875-2.40625 2.628089-.09388 5.277751-.04109 7.90625 0 2.210553.23947 4.540396-.56464 6.65625.375.991938.91866.57188 2.50726 1.4375 3.5 1.337092.89462 3.006328.7071 4.53125.8125 1.309566.44791 2.860252-.5852 2.9375-1.96875-.288517-1.05816.360283-2.30511 1.40625-2.65625 4.582153-.60892 9.220456.08802 13.8125-.34375 1.29478-.53916 2.97186.16056 3.4375 1.5-.20843 1.04295.15759 2.234 1 2.90625 1.97048.72725 4.23673.74682 6.15625-.15625.88361-.95608.45049-2.45324 1.28125-3.4375 1.31506-.65403 2.82069-.655 4.25-.5 1.39861.5189 3.17078-.37973 3.53125-1.84375.37036-17.47453-.01888-34.93022.15625-52.40625.06633-1.368224.00359-2.957095-.46875-4.09375-1.33998-.659798-5.58459-.053507-4.9375-1.625.91253-.937933 21.73493-22.688725 32-32.625 1.83161-1.539081 3.58818-4.073566 5.84375-5.0625 1.50559.547887 9.69224 8.959932 13.34375 12.65625 7.58048 7.579587 16.92795 17.255664 24.625 24.71875-.08201 1.119783-.88329.895052-4.5 1.9375-.59559 2.724627-.53601 6.080073-.40625 8.8125.01222 4.137834-.17171 8.268023-.1875 12.40625.09241 11.65578.16958 23.31333.3125 34.96875.17801 25.79647.0923 51.57814.1875 77.375.41386 1.18627-.44807 2.62869-1.6875 2.84375-39.29205.24885-78.58246.14054-117.875.1875-14.188503-.1105-48.086936-.32436-62.4375-.3125 15.546987 36.74716 66.444246 46.61365 104.90625 66 44.78181-22.57178 106.42903-32.21775 109.5-86.4375v-194.5625z" fill="#09f"/><path d="m50.593542 139.12466c.488431 1.34453.228513 2.82647.687074 4.17787 2.976243.42125 5.985263.14172 8.972588.03165.913607-.56298 1.286331-1.84664.816489-2.81149-.086031-1.08608 1.084136-2.04964 2.133384-1.75664 4.079429.12584 8.162415-.06195 12.241047.10691 1.009582.36691 1.539162 1.66835 1.072725 2.63606-.101948 1.23282 1.217179 2.33398 2.411784 2.01329 2.58232.02504 5.165993.05673 7.747294-.04056 1.00723-.40097 1.543258-1.68438 1.120316-2.68271-.108787-1.23048 1.221433-2.32898 2.408976-1.98933 4.102287.1552 8.219929-.22048 12.311531.22022.92926.58104 1.35284 1.8466.96115 2.87016.03825 1.14245 1.32413 2.03653 2.40825 1.67442 1.99139-.20013 3.99597.07833 5.98757-.11737 1.22651.54929 2.73148-.87944 2.24685-2.133-.29296-1.49646 1.44349-2.91904 2.85284-2.3373 1.01801-.07467 2.11011-.24563 3.06473.22234-.20335 1.08167-1.00492 1.94269-1.89969 2.52768-.60632 1.2652-.42046 2.76233.10322 4.02159.10686 1.30751-1.34793 2.44678-2.59178 2.03277-4.62302-.11789-9.24984.21243-13.87033-.05201-1.41151-.34987-2.167933-2.19471-1.42319-3.43974.28122-1.10799.18315-2.31635-.31143-3.35039-1.967045-1.08193-4.273554-.26965-6.364839-.77302-1.762709-.21335-3.225381 1.85596-2.580207 3.47001.170696 1.20315.379478 2.59455-.424963 3.62758-1.217618 1.06028-2.931816.71893-4.400199.6347-3.836133-.15025-7.677612.16666-11.511554-.07928-1.23448-.35096-1.903602-1.91501-1.352807-3.06276.237215-1.26113.337828-2.66586-.34033-3.81537-1.554269-1.15416-3.573729-.6805-5.363658-.73714-1.371878-.17978-3.101657.38176-3.500031 1.85014-.392054 1.2127-.176325 2.51977.183838 3.71189.041207 1.40729-1.581387 2.49027-2.881101 2.02495-4.149445-.11661-8.303356.15318-12.450324-.08775-1.434896-.4202-2.001324-2.26701-1.409179-3.55233.189663-1.03102.176572-2.14765-.304334-3.10141-1.626129-1.12058-3.683443-.80136-5.541533-.89028-.924338-.14775-1.954416-.02479-2.646418.66695-.846342.81327-.700667 2.10844-.675656 3.17675.059178 1.156.169654 2.60107-.833746 3.40744-1.006922.78041-2.357277.64627-3.533973.46747-4.446562-.15086-8.901107.14044-13.343408-.16988-1.484203-.30049-2.117379-2.20536-1.434439-3.46655.247043-1.04912.118625-2.16741-.284243-3.1612-1.396606-.90924-3.150856-.81204-4.743346-.77067-1.168704.13003-2.509961-.49044-3.536272.32524-.8370768.59003-1.2382608 1.70071-.9650438 2.68703.068386 1.20743.3204728 2.45645-.066524 3.63699-.9657031 1.04694-2.5364433 1.07278-3.841594.83396-1.3205918.03064-2.8131788.26071-3.9404362-.6006-1.29694561-1.31367-.0521635-3.99135 1.8095956-3.74752 1.0118725.0992 2.2944898.06909 2.8950004-.89967.4134782-.97992.0894911-2.22572.8891712-3.04413 1.962886-1.03784 4.2298258-.49042 6.3404168-.55927 2.596332-.12751 5.205668-.18387 7.795854.07857.947341.52 1.385842 1.79337.959937 2.78658.011243 1.22783 1.353077 2.22954 2.533276 1.89118 3.17974-.1062 6.369175.0423 9.541306-.25481.791955-1.28505.338786-2.92036 1.046784-4.23548 2.7956-1.00839 5.782008-.20534 8.662877-.43908 2.057622.01571 4.113532.14176 6.160704.34635zm-25.009574 24.46256c.426402 3.57322.195111 7.17664.081174 10.76091-.847751.97039-2.270935 1.38237-3.508145 1.02943-5.93363.0436-11.871107.13412-17.8013609-.12649-.9990155.37289-2.2228939-.00905-2.8299593-.88648-.5071329-3.18151.0062432-6.40186-.1563086-9.59986.2960697-1.21767 1.7054089-2.01997 2.903534-1.65368 7.1035168.16095 14.2188918-.04723 21.3110658.47617zm83.026302.02748c.58043 3.47855.38336 7.01664.3772 10.52589-.46137.96632-1.70552 1.46331-2.70557 1.08071-7.219024.20595-14.4429.30969-21.664151.16416-1.233998-.52783-1.914105-2.06785-1.473922-3.33571.107691-2.56988-.085687-5.14819.155585-7.7131.797729-.94301 2.146161-1.37252 3.343386-1.07391 7.32225-.07164 14.666762-.39349 21.967472.35196zm-97.04266 13.9629c.319149 3.5702.208709 7.1592.098273 10.7364-.854809.97008-2.2706578 1.39629-3.5202093 1.06937-2.0663329.00733-4.1307301.12093-6.1971322.12317-1.11130031-3.52304-.7813305-7.26154-.6829238-10.89426.5046056-1.36165 2.1788993-2.14075 3.5459348-1.65316 2.0567619.03861 4.1191642.02391 6.1673355.24276.220125.0803.42827.20299.588722.37572zm27.922781-.24737c.700004 3.52617.462269 7.1413.277481 10.70515-.423439 1.02702-1.68598 1.61051-2.742485 1.26749-7.154072.15847-14.310528.18074-21.465993.13353-1.310231.26648-2.611105-1.14802-2.236667-2.4316.104444-3.0817-.023903-6.1666.104245-9.24781 2.051762-1.2009 4.515685-.92746 6.787328-.84416 6.42601.0557 12.867681-.18871 19.276091.4174zm13.054448 13.57809c1.083606.62698 1.621267 2.05037 1.223683 3.23743-.104516 2.88676.079851 5.78371-.209876 8.66306-4.015466 1.25139-8.261119.47261-12.377268.85506-4.137251-.01333-8.271564-.18456-12.406532-.30401-1.026852-.39806-1.621183-1.64948-1.283115-2.69728-.027473-2.49109-.188957-4.98306-.066614-7.47399-.402889-1.16426.78114-2.51129 1.987296-2.26103 7.708599-.16067 15.428745-.53125 23.132426-.01924zm-40.977229 13.90793c.510363 3.01203.268076 6.07841.47272 9.11352-.717334.84355-1.927932 1.22591-3.0002599.95286-1.045932.24669-2.2203873.00705-3.0332422-.71194-1.3380727-2.66706-2.2428531-5.5452-2.7260379-8.48794.5327797-1.05722 1.8721046-1.62077 3.0004028-1.26272 1.7636896.09166 3.5575934-.04005 5.2864172.39622zm73.572126-55.41182c3.099037.06524 6.2067-.02563 9.296341.27432 1.208554 2.56305.804969 5.46151.796147 8.19816-.160305 1.03851.175925 2.15161-.303021 3.13488-4.114042.95647-8.361726.31004-12.528845.70074-3.678242.0219-7.356746-.01261-11.034101-.09489-1.141044-.63894-1.45264-2.13881-1.151017-3.33003.048536-2.52442-.265968-5.0563.026346-7.5743 1.095027-1.4478 3.078567-1.56711 4.745582-1.53084 3.38721-.06015 6.765753.47263 10.152568.22196zm-71.126135.41229c.525747 3.56357.272678 7.17401.161277 10.75689-1.402589 1.37592-3.547719 1.58279-5.3949914 1.22495-2.0618164.05422-4.1249887.13353-6.187496.06568-1.0935435-.77009-1.59828792-2.27362-1.1938119-3.54813.0223203-2.6209-.049878-5.24489.1137349-7.8627 2.0468513-1.31129 4.5895845-1.20639 6.9154766-1.03174 1.8658038.04945 3.7426868.06697 5.5858108.39505zm27.153255-.05497c.673234 3.45148.447881 6.9846.369477 10.47608-.432373 1.11896-1.788358 1.77372-2.933427 1.41665-7.066874.15513-14.139045.35656-21.206029.09649-1.171264-.36373-1.880965-1.77414-1.47524-2.93161.055333-2.40471-.160138-4.81533.068312-7.21534-.329133-1.15028.868145-2.40131 2.031603-2.12282 7.714869.04532 15.446128-.40814 23.145304.28055zm27.070804.1924c.615492 3.4363.379387 6.94197.230221 10.40756-.479156.99535-1.735354 1.52976-2.784661 1.1848-7.128431.25297-14.266553.30995-21.395369.03945-1.127734-1.34522-1.412064-3.22196-1.125466-4.91458-.058263-2.07575-.084428-4.15691.085712-6.22844.97311-.97342 2.475544-1.36563 3.803774-1.01604 6.835605-.01614 13.677425-.153 20.506765.2189.243517.05591.481737.15227.679024.30835zm52.52011-.30235c.54845 3.57292.29409 7.19624.24945 10.79283-.44578 1.00368-1.73103 1.52722-2.75119 1.12094-6.34278.11585-12.68983.19465-19.031113-.03414-1.45066.31316-2.895135-1.28586-2.436801-2.69754.218348-2.81768-.082395-5.64448.09073-8.46358.820551-.97185 2.229078-1.39335 3.449474-1.03819 6.80927.14471 13.62572-.05974 20.42945.31968zm-39.328246 14.07285c.678089 3.32639.09998 6.72092.172335 10.0782-.345437 1.03046-1.551111 1.66936-2.598695 1.38866-7.452975.22391-14.912928.26116-22.36631.034-1.203175-.30217-1.962874-1.73213-1.548635-2.8997.151888-2.60422-.065367-5.21992.193516-7.81942.555384-1.13732 1.969838-1.73922 3.181728-1.40912 7.445483.23521 14.904706-.23015 22.342051.30428.233457.04094.464488.14271.62401.3231zm-27.950263.10994c.4432 3.46699.184887 6.96772.010957 10.44366-.612604.93239-1.846475 1.39959-2.92314 1.10867-6.931607.10192-13.86838.17941-20.796523-.11802-1.305315.35626-2.707963-1.00143-2.394655-2.31782.014044-2.846-.151457-5.70135.14484-8.53877.510369-.96563 1.743416-1.47235 2.785379-1.14582 7.517244.17024 15.045112-.25191 22.554839.24649.232484.03735.462794.1397.618303.32161zm13.878943 13.49564c.484046 3.59298.405481 7.2297.271935 10.84336-.619798.98518-1.90196 1.49379-3.02858 1.20246-6.945909.01421-13.894325.11919-20.83793-.11589-1.06458.43306-2.380206-.59382-2.218834-1.73183-.17211-3.44947-.399898-6.91875-.020658-10.36302 8.606882-.38671 17.231899-.29182 25.834067.16492zm27.675431-.08246c.52867 3.50652.243191 7.05975.306178 10.5889-.405973 1.0799-1.713663 1.71424-2.812974 1.36458-6.962189.176-13.933639.26545-20.89172-.0951-1.335092.34142-2.742653-1.06031-2.406897-2.39699.047369-2.82951-.194639-5.66462.054629-8.48951.633946-1.00637 1.947162-1.51985 3.096367-1.21799 7.551138.04277 15.118848-.4464 22.654417.24611zm-69.587084 13.9629c.803094 3.31482.295464 6.74366.536278 10.10892-.224745 1.16319-1.52136 1.98345-2.668562 1.68829-6.165467.22441-12.338372.2654-18.5055222.08375-1.3620445.29434-2.7596631-1.09756-2.4710918-2.46098-.1372138-2.88577-.7742319-5.72632-.8320872-8.61795.4704722-1.02485 1.736611-1.59704 2.8170734-1.27683 7.0395008.24883 14.1227028-.58756 21.1239118.4748zm55.873039.13743c.854588 3.43892.222959 6.99401.412525 10.48539-.357913 1.0929-1.626083 1.78491-2.738833 1.4963-7.143211.06086-14.288232.30007-21.43101.08066-1.404742.19597-2.709997-1.34141-2.289066-2.69595.124612-2.88834-.097651-5.78359.126215-8.66886.541039-1.0703 1.886243-1.64594 3.035142-1.30787 7.445443.15167 14.917435-.47896 22.340741.34099.19849.04808.384147.14333.544286.26934zm27.42809-.13743c.71767 3.56097.33783 7.20624.38736 10.80811-.32714 1.05012-1.56506 1.70574-2.61741 1.38614-4.80757.11912-9.850329-.09603-14.651537.20495.825931.74251 2.366023.84099 3.109358 1.7065.850566 2.3891.283356 4.94446.418507 7.41104-.114383 1.30421-1.517974 2.31805-2.791862 2.01573-6.984537.02806-13.974127.34421-20.955237-.01407-1.49994.23108-2.893071-1.45427-2.384546-2.8842.050559-2.10427-.340761-4.23935.14106-6.3179 2.390718-1.31088 5.201541-.96208 7.816739-.94545 4.243925-.01301 12.291774.31581 16.53386.17832-.393071-1.01791-5.532142-1.87157-6.502143-1.37214-1.049044.09081-2.086053-.16063-3.132742-.17422-1.207216-2.44425-.735695-5.23404-.909345-7.85483.162028-1.28488-.448775-2.73448.387116-3.88004.955081-.95558 2.400988-.63708 3.609885-.63068 6.953908-.02979 13.916297-.27175 20.863167.15988.23375.03492.46669.09387.67777.20286zm-41.389476 13.63307c.502577 2.92689.227387 5.90411.132124 8.85152-1.607058 1.32015-3.80832 1.25757-5.770569 1.19763-5.817097-.12187-11.637628.13487-17.453173-.09954-1.305874.44513-2.962755-.70987-2.702106-2.14641-.031751-2.22965.021334-4.45922.033627-6.68879.331755-1.09022 1.659944-1.06442 2.583423-1.21402 2.417837-.27896 4.854709.05973 7.276829-.14749 5.052173-.11089 10.108817-.17839 15.159642.02458.25303.0502.502676.12113.740203.22252zm-27.950266.54972c.851061 2.11446.542627 4.43345.476483 6.64916.465471 1.27314-.766972 2.78907-2.108215 2.59269-7.344092.30624-14.696298.20687-22.044208.15347-1.348007.22823-2.622079-1.27843-2.174027-2.57004.085793-2.0736.335777-4.15408.119603-6.22801.978845-1.11957 2.60349-1.06912 3.959809-.97407 7.258104-.11237 14.522545-.04865 21.770555.3768zm88.000732-126.215819c.65053 2.02133.56788 4.173752.50055 6.268166-.47737.953831-1.63941 1.501734-2.67894 1.263585-1.31001.436427-2.79778-.929674-2.47473-2.27225.00373-1.399868.15081-2.798648.07199-4.198628.53191-1.108023 1.94926-1.686117 3.10428-1.266249.49696.011042 1.00631.026971 1.47685.205376zm25.47679.05497c.3833 2.152038.24232 4.349056.0933 6.516288-1.93971 1.30644-4.38885 1.144823-6.61326 1.0166-5.20927-.14517-10.42337.020993-15.63096-.20392-1.18159-1.007327-1.42965-2.689265-1.28728-4.156286-.50673-1.617414.9773-3.463217 2.67422-3.273154 2.8612-.308704 5.74271.127563 8.60549-.156372 4.05315-.074498 8.1193-.159821 12.15849.256844zm25.06455.659663c.26154 2.033649.13409 4.094405-.11832 6.122065-2.87665 1.123751-6.00783.451566-9.0008.745427-4.00969.05827-8.01803-.092657-12.02629-.17367-1.06227.334385-2.25721-.743806-2.0335-1.834886-.06172-1.67161-.29187-3.360846.00728-5.022973 2.94538-1.289446 6.21313-.617768 9.3148-.830852 4.2649-.048322 8.52987.060475 12.79477.010851.5975-.296559 1.1074.453951 1.06206.984038zm7.22804-.687148c.62176 2.113375.54826 4.353589.30145 6.519894-.48825.987298-1.77188 1.483386-2.79715 1.081317-1.04617.168592-2.16744-.262346-2.82729-1.092509-.47922-1.818029-.20352-3.70761-.20783-5.559289.40093-.990926 1.60878-1.563006 2.62938-1.245539.97347.023574 1.93619.182653 2.90144.296126zm-51.36583 9.400218c.88441 2.979647.2757 6.107459.51077 9.15326-.35694 1.493014-2.09036 2.423716-3.545 2.004721-2.19803.056229-4.38398-.398099-6.58226-.217594-1.44574-.655193-2.16756-2.504956-1.61357-3.979742.10425-2.057036-.05703-4.117719.05917-6.174454 1.34815-1.269248 3.32468-1.02675 5.02457-1.081912 2.0517-.063163 4.11474-.02112 6.14632.295721zm31.63299.247375c.76415 3.05295.25538 6.21329.40373 9.315874-.31715 1.036774-1.56377 1.667326-2.58675 1.30857-6.12421.091181-12.24934.373424-18.37458.186121-1.51622.432106-3.1271-1.248205-2.63231-2.745112.12103-2.43371-.02761-4.872189.10291-7.305639.71645-1.098862 2.16887-1.635394 3.43185-1.300068 6.41443.025994 12.82848-.090058 19.24291-.064438.13742.201566.27483.403129.41224.604692zm19.67787-.329834c.77614 3.032516.29779 6.180932.50932 9.265832-.22297 1.288288-1.70718 2.177555-2.94817 1.766478-2.58919-.115265-5.18738.09442-7.77147-.155099-.97452-.779292-1.4002-2.149043-1.10121-3.35212.00722-2.048319.02836-4.097206-.03205-6.144979.51235-1.248352 2.00628-1.984901 3.30944-1.642973 2.67924-.055612 5.37198-.097401 8.03414.262861zm-57.43957 13.083355c.44056 3.97971.25246 7.9889.27871 11.98347-1.08828 1.48529-3.50917 1.69105-4.8324.41061-.89374-3.2729-.02116-6.67137-.36631-9.99556-.04702-.96665.01832-2.20923.99879-2.7092 1.27274-.61395 2.64663.10114 3.92121.31068zm25.2844.10994c.44347 3.91087.25005 7.85255.17411 11.77706-.7456 1.05839-2.16333 1.58447-3.41932 1.2739-5.93715.22344-11.89125.27307-17.81875-.18988-1.19008.42968-2.55814-.83046-2.2544-2.05142.00473-3.36603-.11323-6.73362.02595-10.0984.3972-1.01167 1.65621-1.57602 2.67563-1.19951 6.67959.08583 13.36533-.23814 20.03998.14022.22175.04815.44863.15115.5768.34803zm24.62481-.16492c.99809 3.72673.20188 7.59938.50478 11.38869-.22352 1.19785-1.57329 1.77652-2.686 1.65143-4.689.23588-9.38638.16443-14.0792.15736-1.62338-.03918-3.25607-.10162-4.87282.01362-1.04635-.11326-1.80242-1.22822-1.55286-2.24342-.04362-2.9285-.19959-5.85855-.06656-8.78695-.45567-1.02716.45794-2.34642 1.57692-2.29417 3.50951-.65856 7.08279-.01278 10.61809-.26135 3.52092-.00213 7.06011-.11689 10.55765.37479zm7.66777.19241c.44375 3.93295.23866 7.89656.13691 11.84202-1.15375 1.49157-3.50124 1.85502-5.05126.78065-1.11175-2.25719-.54265-4.82125-.58102-7.22743-.01541-1.51389-.03944-3.02833.00572-4.54195.7944-1.30192 2.61691-1.82153 3.98718-1.16475.50202.09802.99941.21862 1.50247.31146zm-18.49609 15.14479c.37286 3.30865.12367 6.64228.25343 9.96148-.48622 1.03261-1.77041 1.6036-2.8627 1.2729-1.61375-.05795-3.24511.07115-4.84134-.2332-1.22863-2.2362-.90253-4.8727-.76771-7.31364.02521-1.28405.01843-2.56862.05586-3.85245 2.68354-.63726 5.48552-.35184 8.16246.16491zm18.41365-.10994c.60233 3.30355.38869 6.67793.20612 10.00958-.72749.93876-2.02471 1.38375-3.17677 1.10333-4.12883.03093-8.26538.22596-12.38832-.09012-1.08093-.3655-1.71991-1.6788-1.34083-2.75506.0681-2.47847-.0301-4.95898.07288-7.4368.93204-1.26657 2.73268-1.74161 4.19555-1.2149 4.14378.05572 8.31389-.21739 12.43137.38397zm-45.42949-.21989c.7548 3.2237.11194 6.54233.35819 9.80589-.35509 1.3089-1.92427 2.12108-3.19789 1.65576-4.20326-.05425-8.41362.23916-12.61102-.0927-1.32278-.64061-1.99158-2.35285-1.45985-3.72188.13144-2.27423-.00081-4.5518.01929-6.82755 1.16714-1.10489 2.90766-1.27921 4.42906-1.02675 4.15481-.04781 8.31216-.00973 12.46222.20723zm10.52601.35732c.33437 3.40139.12418 6.82192-.01564 10.22768-1.86272 1.1163-4.10987.97381-6.19698 1.04081-1.65748-.2293-2.81661-2.08599-2.3895-3.68391-.07835-2.25317.18863-4.50405.07845-6.75697.30098-1.19537 1.76278-1.91744 2.89714-1.44173 1.86639.292 3.79902.06357 5.62653.61412zm2.58341 13.13832c.65118 3.92099.33372 7.90606.29182 11.85714-.50549 1.02077-1.78672 1.57499-2.87672 1.24489-5.87476.06909-11.75076.13935-17.62549.02975-1.3759.59271-3.10315-.77897-2.83771-2.25353-.12754-3.30808.0719-6.62034-.09426-9.92757.67094-1.05582 2.04983-1.55672 3.2537-1.27013 6.63004-.08588 13.27074-.17072 19.88866.31945zm25.00957.08246c.65227 3.89637.40637 7.86167.24844 11.78729-.47043 1.04815-1.76876 1.6327-2.86527 1.29024-6.01808.04117-12.03726.09014-18.05466-.03877-1.31272.36943-2.73727-.98777-2.43182-2.31701.12259-3.31683-.18396-6.63679.02458-9.95196.5258-1.09835 1.90158-1.69639 3.06351-1.33335 6.51548.24252 13.04729-.25633 19.55313.29366.17545.04447.33445.14281.46209.2699zm-50.2665-.16492c.65849 4.02943.60949 8.12861.50543 12.19698-.50339.9636-1.75889 1.44627-2.77806 1.06813-1.53256.48076-3.2323-1.14684-2.81863-2.699.15106-3.10007.2664-6.20274.27588-9.30682.48012-1.26071 2.03793-1.96355 3.30465-1.51298.50846.05214 1.01045.1514 1.51073.25369zm57.82434.60469c.30088 3.98161.27418 7.98534-.0248 11.96619-1.48053.7935-3.32847 1.01831-4.89455.33859-1.1535-1.24231-.85854-3.05167-.84458-4.59782-.04753-2.71167-.02022-5.42522.11133-8.13432 1.57154-.52524 3.24702-.29299 4.86699-.23575.33737.09438.67418.31423.78561.66311zm-15.28057 53.62523c2.50162.06427 5.0232-.30804 7.50827.12012 1.08343 2.84213.45692 5.91606.56194 8.86917.24808 1.08956-.76742 2.23469-1.87428 2.14973-3.48409.53182-7.0129-.03177-10.51134.25644-3.26604.00013-6.53217-.05691-9.79591-.18042-1.22819-1.16075-1.64475-3.06278-1.09102-4.64845.04332-2.05122.0245-4.10341.08666-6.1543 4.32105-1.15739 8.80633-.28508 13.20272-.45641.63793.00206 1.27501.04396 1.91296.04412zm15.63785.82459c.30141 3.07827.13203 6.17387.05361 9.25846-.60538.95272-1.83387 1.4565-2.93389 1.20467-1.43932.66135-3.29151-.78298-3.00117-2.34026-.09959-2.59319.07037-5.18784-.01359-7.78124.45289-1.04142 1.78736-1.58394 2.83861-1.1553 1.03453.0031 2.52503-.40101 3.05643.81367zm-41.08544-40.52643c-1.06123-.0041-2.12604.40354-2.87713 1.15957-.25742 2.98038.03205 5.96664.04294 8.95013-.28677 1.20618 1.09586 2.41057 2.25017 1.95839 5.95299.34294 11.91471.10063 17.87257.12024 1.25952.36673 2.72264-.09829 3.52986-1.13379.07343-3.50419.24767-7.03015-.15459-10.522-6.53536-.31006-13.07535-.30343-19.61603-.38652-.34098-.09538-.69405-.14465-1.04779-.14602zm-18.49094.12025c-1.27801-.01586-2.56814.36979-3.55562 1.19393-.31003 2.87272-.22566 5.76653-.16318 8.6495-.28524 1.1381.86802 2.37787 2.02688 2.11299 4.15133.19092 8.3078.11281 12.46184.13743 1.19442.44823 2.67352-.12685 3.25502-1.26264.04279-3.43775.19261-6.89681-.34354-10.30725-4.12377-.43783-8.27816-.38905-12.4189-.36935-.41246-.09269-.83649-.14932-1.2625-.15461zm30.78101 13.35649c-.84579.03983-1.67542.51053-2.09557 1.25405-.05355 2.06957.02902 4.14046.02576 6.21012-.42737 1.37171.01454 2.97075 1.09073 3.92535 5.39875.21518 10.80358.30164 16.20641.29204 2.00476.33799 4.29336.243 5.90886-1.14239.08797-3.2809.27817-6.58102-.09447-9.85202-6.71146-.78992-13.47853-.15734-20.20863-.57549-.27077-.08748-.55115-.12494-.83309-.11166zm-32.53305.11166c-.84862.07517-1.66414.66301-1.90664 1.49456.11652 2.50742-.21658 5.01783-.04294 7.52429-.26391 1.56435 1.56723 3.00045 3.02313 2.37067 1.02623.3208 2.24384-.26696 2.62807-1.27123.03382-3.18094.13952-6.38595-.33495-9.5428-.82377-.23902-1.66911-.39917-2.52501-.46382-.27119-.09896-.55879-.13672-.84166-.11167zm16.92784.10308c-3.88171-.04214-7.76201.02648-11.63736.28345-.08597 2.59837-.01407 5.20202-.146 7.79916-.42848 1.16717.19128 2.60448 1.33121 3.10076 5.46018.32765 10.92937.18087 16.39535.18038 2.00106.2719 4.29684.3748 5.95181-.98778.02628-3.33548.19097-6.68959-.25766-10.00663-3.87596-.17091-7.75565-.32721-11.63735-.36934zm-27.80942 4.78428c-1.08329-.03559-2.18325.41039-2.8943 1.23687-.30892 2.74501-.06698 5.50968-.09447 8.26299-.35163 1.0381.13123 2.28766 1.09073 2.81731 2.07002.29174 4.15643.02716 6.23522.05154 1.11464.32497 2.40155-.06952 3.13478-.9706.04665-3.64017.2646-7.305-.23189-10.92569-2.02782-.46074-4.11605-.27336-6.1751-.27486-.34147-.12184-.70387-.18569-1.06497-.19756zm30.37736 7.97095c-.86971.05937-1.71228.569-2.10417 1.35712-.22406 2.65926-.00929 5.33158.14601 7.98813-.24405 1.14793.99386 2.30096 2.12134 1.97556 6.64166.31875 13.28831.09378 19.93381.18896 1.14271.32769 2.47116-.24754 3.01454-1.30558-.05359-3.21499.31045-6.45876-.26624-9.64588-7.30389-.79353-14.6558-.11438-21.97785-.46383-.27982-.08796-.57753-.11427-.86744-.09448zm-12.52196.06013c-2.93546.2438-6.03334-.46297-8.82893.74727-.13376 2.04917-.01263 4.10057.05153 6.15-.3708 1.54694.03658 3.27829 1.12509 4.4493 2.05893.11729 4.12132.23374 6.18369.26627 3.41359-.22811 6.98446.42074 10.24602-.90189.28521-2.52974.02378-5.08248.15459-7.61877.42091-1.12543-.22609-2.52325-1.35697-2.92899-2.5255-.08842-5.04745-.18316-7.57502-.16319zm-32.610363 5.7377c-.812572.11291-1.571163.68769-1.82934 1.47738.072668 2.9079-.067167 5.8104-.068709 8.71822-.299183 1.23981.996118 2.52664 2.233 2.21606 6.382142.29112 12.777862.14635 19.160842-.03436 1.11388.3567 2.4392-.28284 2.85995-1.3743.13141-3.46199.36203-6.96875-.30918-10.39315-7.06329-.5925-14.15299-.35629-21.230653-.55831-.26716-.07267-.54505-.08918-.81591-.05154zm86.387823-31.54536c.99334 3.24551.26095 6.65644.48269 9.97667-.50853 1.26449-2.06005 1.72388-3.30853 1.48511-2.40426.05608-4.80895-.00918-7.21341-.00872-1.45191-.62432-1.89261-2.42142-1.6581-3.85804-.02457-2.08077.21715-4.16081.06813-6.24064.47397-1.35387 2.08949-1.79813 3.38617-1.64585 2.74928-.05816 5.51253-.08489 8.24305.29147zm.24735 13.52312c.45013 3.16124.14925 6.35751.14639 9.53462-.34491 1.04417-1.59682 1.67593-2.64156 1.33311-1.00616.28779-2.15064.03302-2.93553-.6605-.61663-2.96912.01514-6.01262-.36007-9.00225.27065-1.19689 1.61074-2.0199 2.8008-1.72551 1.01886-.01036 2.01982.23113 2.98997.52053zm-.43973 12.69854c1.17461 2.50358.87902 5.33853.78581 8.01583.59096 1.5732-.99525 3.42617-2.63901 3.10742-2.44005.1117-4.88316-.17662-7.32145.01084-2.03507-.01245-4.07048-.06092-6.10215-.18268-1.08406-.64278-1.57404-2.11705-1.09122-3.28114.13478-2.27487-.1497-4.55049-.03157-6.82564.97443-1.08626 2.60876-1.48367 3.98788-1.03719 4.13688.08497 8.28354-.1868 12.41171.19256zm-56.99985 13.13832c.34075 3.24482.20883 6.51189.1546 9.76694-1.12632 1.48073-3.51035 1.75167-4.94007.56128-1.01586-2.92247-.15285-6.04417-.60804-9.04022.01673-1.18858 1.26386-2.11615 2.40832-1.93045 1.03042-.03476 2.03644.26907 2.98519.64245zm25.14699-.30234c.37503 3.36149.33661 6.74988.29274 10.12651-.84721 1.04717-2.34731 1.50399-3.63536 1.11341-5.73097-.05816-11.465.05617-17.19319-.17801-1.3186.603-3.00519-.74977-2.703-2.16798-.0696-2.62558.00473-5.25188.06515-7.87686.52211-1.01454 1.79035-1.57031 2.89021-1.26773 6.76069.12588 13.52777-.1163 20.28345.25066zm-32.32007 6.81653c.60689 3.66412.33409 7.3885.31044 11.08181-.54268 1.05911-1.89138 1.61697-3.02384 1.25258-2.0525.04134-4.10755.05999-6.15821-.05386-1.12259-.55954-1.71393-1.98927-1.31567-3.17858.09182-2.77634-.13285-5.55977.11457-8.33135.94237-1.07866 2.5482-1.49349 3.90385-1.05049 2.05733.02166 4.13695-.12748 6.16886.27989zm19.32059 6.2943c.5322 3.35853.25591 6.7666.1942 10.14723-.64916.93934-1.90524 1.40534-3.01023 1.11968-4.06631-.05163-8.13962.21124-12.20011-.1067-1.277.38891-2.69379-.92777-2.39958-2.22995-.02091-2.75064-.23824-5.50964.04085-8.25429 1.27421-1.26562 3.28375-1.59198 4.9597-1.04304 4.13851.09231 8.29848-.19275 12.41517.36707zm22.701-.27486c1.28512.02159 2.5845.00099 3.84762.27486.77363 3.16291.28112 6.43384.444 9.64675-.49189 1.11231-1.83077 1.72963-3.0035 1.46-6.83103.05237-13.66549.2357-20.49452-.02716-1.49547-.40315-2.33303-2.24282-1.76249-3.6588.14697-2.08346-.11532-4.1731.05468-6.2558.67369-1.44225 2.4973-2.02822 3.97107-1.62559 5.64395.28161 11.29691.01467 16.94314.18574zm22.72848.35732c.37127 3.33871.15689 6.70112.16236 10.05098-.87054 1.11547-2.45515 1.60257-3.80333 1.17728-4.14454.00763-8.29414.00623-12.4301-.2944-1.32015-2.45085-.99055-5.32817-.79571-7.99374-.03277-1.01735-.24057-2.53266 1.02695-2.89272 2.33384-.98182 4.90718-.45331 7.35458-.4481 2.82999.08988 5.66536.1221 8.48525.4007zm-64.58517 7.88849c.53155 2.74034.40383 5.55156.18984 8.31818-.80842 1.00917-2.23787 1.46479-3.48184 1.11482-6.48148-.04222-12.96489.14474-19.444775-.06848-1.096036-.45802-1.716135-1.80819-1.349421-2.93816.013147-2.07211-.094437-4.15497.178336-6.2159 1.744808-1.28465 4.02632-1.13055 6.07383-1.02428 5.73113.25184 11.46873.0299 17.20226.14092.31762.06622.62349.33027.63177.6729zm6.67839 4.94748c1.51262 1.57818.30109 4.65331-1.88143 4.77529-2.14296.41261-3.96577-2.52332-2.56595-4.23052.7132-.83055 1.95753-1.13038 2.98012-.75622.49142.05327.97881.1368 1.46726.21145zm25.53174.16492c.31632 1.09789.21229 2.25089.25382 3.37777-2.37965 1.25714-5.14399.83651-7.72533.90584-4.8966.08597-9.79536.00435-14.68799-.20452-1.67113-.73207-1.63371-3.5376.05639-4.22478 7.36638-.24313 14.73852-.0752 22.10311.14569zm24.56986 0c.50308.98125.54007 2.11499.50001 3.1943-.68065 1.0662-2.10404 1.58333-3.3106 1.20492-5.79377-.10346-11.59139.11754-17.38272-.13716-1.1624.47358-2.60198-.63706-2.4391-1.88171-.476-1.33641.87483-2.89937 2.26591-2.62187 6.78913-.07422 13.58372-.11213 20.3665.24152zm8.05253.79709c.22944 1.10959.08236 2.30835-.47742 3.30027-1.38213.50395-2.87991.45046-4.3255.37437-1.52367-.84019-1.79736-3.23649-.50232-4.39863 1.38536-.46422 2.85508-.10764 4.27745-.23501.49393.04125 1.05889.40598 1.02779.959z" fill="#fff"/><path d="m158.53515 45.149942c10.07603 10.072969 21.02699 20.988291 30.76927 31.387485.55149.961446-.96832 1.154029-2.33894 1.028276-21.88394.496193-43.8569.300797-65.74299.078695-1.34508-.136331-2.74299.40792-3.26149-.633521 7.88495-8.337094 18.58976-18.751091 26.63294-26.934425 2.59429-2.635833 6.84888-6.466455 9.42251-9.119455 1.27604.838164 3.63519 3.667488 4.5187 4.192945z" fill="#f00"/><path d="m109.38254 19.395539c-3.87633 1.888034-8.13893 3.509899-10.857429 7.043197-3.427905 3.554274-6.42962 7.481824-9.747754 11.134167-3.965829 4.636992-7.946386 9.262292-11.971622 13.847106-3.587837 4.078012-9.257422 10.070224-13.02119 14.035652-.824751-.933422-1.893709-2.113599-3.361228-3.847011-6.916724-8.348491-14.423375-16.196886-21.47422-24.43447-5.359461-5.833985-9.90851-12.957915-17.352663-16.359246-2.092076-.954252-4.32345-1.676296-6.630189-1.825029-2.657945 1.37412-.090688 4.801699.613712 6.7582 2.543865 4.25974 5.972829 7.890461 8.975371 11.819623 7.361771 8.962698 15.035103 17.663916 22.50959 26.531187 2.888993 3.226775 6.88366 7.8028 9.348407 10.730085-1.105103 1.181023-3.255277 3.900217-4.975879 5.827091-3.70652 4.616346-7.73792 8.957459-11.675537 13.372244-.680831.852723-2.813927 3.111185-3.758919 3.647589-.537525.0474-.701859-.649251-1.845703-1.631732-1.817063-1.37459-3.513355-5.914985-6.313578-3.577153-1.197214 2.395496-3.966682 3.630742-4.897283 6.209118.396655 2.977813 4.39156 2.425273 6.208266 4.166233 2.262516 1.50537 2.693732 2.68072-.171603 6.46656-1.818756 2.58658-4.044673 4.86735-6.174468 7.19637-1.658891 2.27733-4.825411 1.68459-6.716529 3.53236-1.863983 2.09885-1.575531 5.38205-.493177 7.79272 1.891882 3.94667 7.64241 5.10787 11.133492 2.65353 2.289805-1.5192 1.871045-4.48935 2.221469-6.84359.456583-2.59069 2.812612-4.21671 4.536776-5.98756 1.885507-1.6969 3.901649-3.23908 5.849141-4.86249 2.257662-1.38672 3.575357 2.2253 5.621033 4.41306 2.578513 1.18312 4.189123-2.11013 5.814666-3.51767 2.401673-1.49488 1.95175-4.73748-.913988-5.3079-1.34886-.82664-2.867458-2.08619-4.009584-3.26973.609942-.97978 1.148145-1.84281 1.875596-2.48766 3.880183-4.219693 7.474814-8.978806 11.265296-13.285559 1.432223-1.538189 3.400503-4.330622 4.989986-5.668639 1.754165 1.876833 3.599218 3.909 5.221288 5.589363 4.465138 5.107563 9.250863 10.305264 13.31966 15.742505-1.057359 2.5584-4.57195 2.84287-6.371323 4.84233-1.644566 2.66425 2.241475 4.16901 3.285071 6.16792 1.072299 2.33969 4.271724 2.60038 5.085031-.07123 2.499469-3.2858 3.635459-3.85398 5.566136-1.86568 2.273881 1.68472 4.385036 4.17286 6.644495 5.87755 2.096368 1.96655 2.726563 4.9195 2.787616 7.6806.294044 2.93242 3.311108 4.49427 6.018338 4.16523 4.29401-.19353 8.36587-4.02755 7.89189-8.492.0028-3.19799-2.93103-4.78751-5.70312-5.07092-2.38935-1.20512-3.88131-3.54218-5.78567-5.34281-1.57113-1.63583-2.627713-3.6656-3.653119-5.64417-2.189858-3.1175-.416278-4.22817 3.006659-5.65 2.20914-.29672 5.46078-2.79653 2.69677-4.767375-2.01791-1.535008-3.00233-5.838252-6.040666-5.04883-2.010284 1.311046-2.79227 4.065656-5.103393 4.958684-2.576518.149225-3.54752-2.705403-5.210828-4.146132-4.4305-4.895072-11.319185-13.139008-15.501728-18.249221 1.901384-2.041025 5.584824-6.733263 7.179788-8.43526 8.516537-10.047158 17.358792-19.825195 25.430737-30.241325 2.60208-3.410389 5.39548-6.699156 7.70156-10.320048.97114-1.791285 1.81363-4.041474 1.07687-6.036709-1.04831-1.332558-2.87881-.234781-4.14232.086875z"/><path d="m18.331195 20.659896c5.576995 1.996788 10.216032 5.9943 13.756208 10.6685 19.453629 22.069029 39.176981 45.027874 58.579889 67.141368-.81732 1.400006-1.392307 2.101156-2.728604 2.435256-14.009885-16.487117-30.477109-33.984095-44.835297-50.165822-6.584904-7.609174-13.416968-15.001185-19.95074-22.655014-1.917421-1.097854-1.123147 1.29121.384386 2.345012 11.965711 13.458842 23.684967 27.135071 35.729124 40.524568 8.922031 10.114972 18.274609 20.759661 26.932583 31.098286.450476.9866-1.337059 1.77908-2.44024 2.30024-19.945332-23.543872-42.902635-48.323921-62.192722-72.421529-2.18748-2.831532-4.42049-5.666069-6.196054-8.776132-.871592-2.220775.408076-3.307047 2.961467-2.494733z" fill="#fff"/><path d="m112.26826 21.374533c-.60007 4.976023-4.93366 8.133626-7.5048 12.095355-10.319837 13.615583-22.715827 26.613482-33.755587 39.63244-1.006491-.830864-1.271631-1.523287-2.078582-2.420965 11.286142-13.385816 25.593328-28.66529 36.665349-42.234002-1.11693-2.032802-2.85699 1.856961-3.82883 2.628752-10.999391 12.705929-22.785914 25.856019-34.059358 38.320098-.88574-.658643-1.983458-1.940663-2.81683-3.098973 11.111726-11.969919 24.627402-28.109995 35.695638-40.568532 3.05833-2.699081 6.86915-4.544861 10.78812-5.554835.5705.025059 1.28535.58153.89488 1.200662zm-52.638799 57.526045c-1.269316 1.628828-1.769724 2.219494-3.3274 4.087782-5.116889 6.086599-10.881785 12.433944-16.149412 18.39053-1.206413-.15177-2.614273-1.27185-2.966401-2.323135.451869-.718507 1.426662-2.096957 2.479366-3.073728 5.686204-6.482725 11.657255-13.633909 17.3925-20.057395 1.18989 1.100016 1.994479 2.247206 2.571347 2.975946zm3.443037 3.598895c-1.492076 1.753105-2.810059 3.222239-4.395908 5.154651-4.644154 5.484822-9.601666 11.301572-14.369665 16.680066-1.065618.06454-2.08073-.78024-2.663518-1.96047.749769-.99076 13.943898-16.223842 19.208366-22.353651.402805.339762 1.729187 1.940515 2.220725 2.479404z" fill="#fff"/><path d="m30.945916 94.899645c5.491037 6.065855 12.08986 11.016305 18.98897 15.365115.679993 2.49422-1.746966 4.99659-4.122645 5.27623-2.209576-1.27855-3.069255-3.90426-4.894384-5.60734-3.224117-3.91411-7.382503-7.02102-12.084182-8.92303-2.228823-.37079-4.734736-2.901378-2.292894-4.765879.965921-1.258023 3.198903-3.872308 4.405135-1.345096zm4.040008 11.159325c1.442202 1.64155 5.448081 3.733 3.12246 6.17519-1.904427 1.61794-4.093288 2.87014-5.824682 4.70017-1.624297 1.48294-3.146042 3.08408-4.484544 4.83125-2.728091.55192-5.776907-3.23905-2.928521-5.14482 2.98552-3.19268 6.010432-6.58634 7.409181-10.81218.652859-.92331 2.165553-.64037 2.706106.25039zm-13.411729 14.18279c2.330722 1.47741 5.216309 3.06169 5.779681 6.01379.140378 3.08545-3.535978 4.60534-6.127482 3.75198-3.557642-.68804-6.153285-4.90674-4.487881-8.29292.89021-1.71485 3.146184-2.55538 4.835682-1.47285z" fill="#ff0"/><path d="m100.14824 94.624784c1.4618 1.212995 4.41775 4.316063 1.27847 5.358836-5.462292 2.07826-10.646849 5.33027-14.054815 10.17567-1.46191 1.82905-2.96925 3.62799-4.633829 5.27757-2.374368-.00743-4.74519-2.34698-4.448424-4.77046 1.273409-1.92528 3.926601-2.43902 5.640667-3.97146 5.351151-3.48104 9.816411-8.106394 14.225855-12.653415.723815-.682679 1.633521-.226309 1.992076.583259zm-3.297967 12.808486c1.752266 4.00583 4.765157 7.25813 7.733367 10.39607.41174 2.94513-4.19278 5.18012-5.579911 2.06527-2.636325-3.26477-5.925878-5.96101-9.497869-8.14312-1.310932-2.87427 2.516859-4.36951 4.113081-6.05726 1.399858-.88572 3.276499.0033 3.231332 1.73904zm13.026967 12.80849c3.07134 1.44293 2.62401 6.0058.40445 8.03444-2.24407 2.22789-6.4931 2.70363-8.64195.09668-1.671339-2.74686.60152-5.88654 3.08656-7.15238 1.48008-.98022 3.41038-1.75021 5.15094-.97874z" fill="#ff0"/><path d="m.4999915.49999708v194.55763292c3.0709527 54.21973 64.7182185 63.87056 109.5000085 86.44237 44.78178-22.57181 106.42905-32.22264 109.50001-86.44237v-194.55763292z" fill="none" stroke="#000" stroke-width=".999985"/></g></svg>