<svg height="300" width="471" xmlns="http://www.w3.org/2000/svg"><path d="m0 0h471v150h-471z" fill="#fff"/><path d="m0 150h471v150h-471z" fill="#009e49"/><g transform="matrix(.141828 0 0 .141631 58.5368 -157.7429)"><path d="m919 1184v500c0 60-3 144 18 210 54 97 172 150 263 187 50 25 41 19 75 35 59-25 122-57 175-82 56-31 134-72 159-137 25-72 16-160 16-235v-478z" fill="#2d2f31"/><path d="m928 1194v447c0 84-9 178 13 250 12 28 53 68 71 75 32 40 225 125 266 140 56-28 144-65 194-90 59-38 84-57 109-88 28-34 32-40 38-81v-656z" fill="#2c80b6"/><path d="m1172 1353h16v335h-157l-6-29h-41l-15 191h609l-22-191h-44l-3 29h-159v-335h16v-94h-66v29h-3v-29h-25v29h-3v-29h-28v29h-4v-29h-65z" fill="#2d2f31"/><g fill="#fff"><path d="m1181 1266v78h28v-78h-9v25h-9v-25z"/><path d="m1219 1266v78h100v-78h-10v28h-18v-28h-13v28h-15v-28h-16v28h-19v-28z"/><path d="m1328 1266v78h31v-78h-12v25h-10v-25z"/><path d="m1194 1688h28v-335h-28m34 335h78l-3-335h-75m85 0v335h31v-335z"/></g><path d="m1256 1387v35h22v-35z" fill="#2d2f31"/><path d="m1259 1488v31h22v-31z" fill="#2d2f31"/><path d="m1259 1594v31h22v-31z" fill="#2d2f31"/><g fill="#fff"><path d="m991 1666-13 178h238c0-32-4-69 9-97 22-31 72-28 88 3 9 16 6 66 6 94h250l-19-178h-31l-3 28h-494l-3-28z"/><path d="m1222 1844h12c0-25-3-69 7-85 12-18 43-22 56 4 6 15 3 53 3 81h13c0-22 3-69-7-88-12-28-56-31-72-9-15 22-12 69-12 97z"/><path d="m1241 1844h53c0-19 3-66-7-81-9-19-34-13-43 3-7 18-3 56-3 78z"/><path d="m981 1944c53 56 78 6 128 18 25 7 57 26 85 16 22-3 44-16 65-19 25-6 60 16 85 19 31 10 62-12 87-19 35-9 63 29 97 16 10-3 38-22 38-34-16 0-38 6-53 3-29-7-54-25-85-19-22 6-53 28-81 22s-66-28-100-22c-19 6-34 19-53 22-44 12-75-31-122-22-28 9-53 22-91 19z"/><path d="m1041 1988c34 34 43 15 72 25 28 9 68 21 103 12 15-3 31-12 47-16 18-6 37 7 53 13 34 12 68 0 100-13 28-15 43 25 90-15-28 3-56-31-84-19-25 13-56 28-88 19-28-6-53-25-84-19-19 6-34 16-56 19-50 3-106-31-153-6z"/><path d="m941 1887c28 85 115 10 159 22 19 4 37 16 56 19 35 10 60-9 88-15 31-10 59 6 84 12 41 9 75-6 103-16 25-9 63 16 85 19 34 10 93-12 93-53-28 0-43 9-65 19-28 9-63-13-88-19-28-6-65 16-90 22-32 9-60-16-88-19-31 0-56 10-84 19-28 12-66-13-88-19-34-6-62 13-90 19-25 6-50-3-75-10z"/></g></g></svg>