<svg height="300" width="471.42999" xmlns="http://www.w3.org/2000/svg"><g transform="matrix(1.714291 0 0 1.714292 -.000001 -.001087)"><path d="m.000002 87.500328h275v87.499664h-275z" fill="#009645"/><path d="m.000002.00066h275v87.499664h-275z" fill="#fff"/></g><g transform="matrix(.425532 0 0 .425532 188.9055 14.99986)"><g fill-rule="evenodd"><g transform="matrix(1.032262 0 0 1.031077 -1.000094 -.772913)"><path d="m213.59375 37.65625c-.83472.949122-1.67575 1.745135-2.5 2.78125-1.90703 2.397223-3.79368 4.974966-5.65625 7.5625s-3.7282 5.169186-5.5625 7.5625-3.64653 4.622934-5.46875 6.4375c-1.72699 1.719723-3.67433 3.293398-5.75 4.8125s-4.27351 2.976115-6.53125 4.46875-4.57056 3.015928-6.84375 4.65625-4.50298 3.381588-6.625 5.34375c-2.07381 1.917588-3.92753 4.015421-5.625 6.15625s-3.2335 4.334054-4.71875 6.5-2.90659 4.288308-4.34375 6.28125c-1.43716 1.99294-2.91556 3.84694-4.46875 5.46875-1.50734 1.57394-3.30488 3.14266-5.28125 4.6875s-4.13074 3.0884-6.34375 4.65625-4.47024 3.13828-6.6875 4.78125-4.38588 3.35482-6.375 5.125c-2.08938 1.85941-4.05966 3.93348-5.96875 6.125s-3.75838 4.48321-5.59375 6.78125-3.66305 4.6023-5.53125 6.78125-3.77366 4.22824-5.78125 6.0625c-2.005583 1.83244-4.24652 3.62445-6.625 5.40625s-4.878269 3.57086-7.40625 5.40625-5.077164 3.72555-7.53125 5.71875-4.843205 4.08852-7 6.34375c-2.1568 2.25522-4.144716 4.53131-6.03125 6.78125s-3.656875 4.47055-5.40625 6.65625-3.473427 4.31252-5.21875 6.375-3.500624 4.0572-5.375 5.9375c-1.87437 1.88031-3.919777 3.4365-6.0625 4.8125s-4.400023 2.57023-6.65625 3.78125-4.535119 2.42714-6.75 3.8125-4.356313 2.94473-6.375 4.84375c-2.438551 2.294-4.263968 4.36306-5.6875 6.25-.974031 1.29111-1.559907 2.39385-2.21875 3.53125 21.140491 22.49902 58.865199 31.24618 89.375 47.40625 43.42442-22.07192 103.63724-31.27787 106.625-84.03125z" fill="#009731"/><path d="m213.59375 24.15625c-1.60701 1.223231-3.22023 2.455885-4.71875 3.84375-1.96769 1.822383-3.87422 4.040277-5.78125 6.4375s-3.79368 4.974966-5.65625 7.5625-3.7282 5.169186-5.5625 7.5625-3.64653 4.622935-5.46875 6.4375c-1.72699 1.719722-3.67433 3.293398-5.75 4.8125s-4.27351 2.976115-6.53125 4.46875-4.57056 3.015928-6.84375 4.65625-4.50298 3.381587-6.625 5.34375c-2.07381 1.917589-3.92753 4.015422-5.625 6.15625s-3.2335 4.334054-4.71875 6.5-2.90659 4.288308-4.34375 6.28125-2.91556 3.846934-4.46875 5.46875c-1.50734 1.57394-3.30488 3.14266-5.28125 4.6875s-4.13074 3.0884-6.34375 4.65625-4.47024 3.13828-6.6875 4.78125-4.38588 3.35482-6.375 5.125c-2.08938 1.8594-4.05966 3.93348-5.96875 6.125s-3.75838 4.48321-5.59375 6.78125-3.66305 4.6023-5.53125 6.78125c-1.868198 2.17895-3.773662 4.22824-5.78125 6.0625-2.005583 1.83244-4.24652 3.62445-6.625 5.40625s-4.87827 3.57086-7.40625 5.40625-5.077165 3.72555-7.53125 5.71875-4.843205 4.08852-7 6.34375c-2.1568 2.25522-4.144715 4.53131-6.03125 6.78125s-3.656875 4.47055-5.40625 6.65625-3.473428 4.31252-5.21875 6.375-3.500624 4.0572-5.375 5.9375c-1.87437 1.88031-3.922926 3.43315-6.0625 4.8125s-4.371292 2.5988-6.625 3.8125-4.53323 2.42915-6.75 3.8125-4.377488 2.9242-6.40625 4.8125c-2.321083 2.04174-4.192791 4.01521-5.6875 5.84375-.407069.49798-.583981.87093-.9375 1.34375 1.990173 3.0725 4.225874 5.94068 6.71875 8.59375.658843-1.1374 1.244719-2.24014 2.21875-3.53125 1.423532-1.88694 3.248949-3.956 5.6875-6.25 2.018687-1.89902 4.160119-3.45839 6.375-4.84375s4.493773-2.60148 6.75-3.8125 4.513527-2.40525 6.65625-3.78125 4.18813-2.93219 6.0625-4.8125c1.874376-1.8803 3.629677-3.87502 5.375-5.9375s3.469375-4.1893 5.21875-6.375 3.519716-4.40631 5.40625-6.65625 3.87445-4.52603 6.03125-6.78125c2.156795-2.25523 4.545914-4.35055 7-6.34375s5.003269-3.88336 7.53125-5.71875 5.02777-3.62445 7.40625-5.40625 4.619417-3.57381 6.625-5.40625c2.00759-1.83426 3.91305-3.88355 5.78125-6.0625s3.69588-4.48321 5.53125-6.78125 3.68466-4.58973 5.59375-6.78125 3.87937-4.26559 5.96875-6.125c1.98912-1.77018 4.15774-3.48203 6.375-5.125s4.47449-3.2134 6.6875-4.78125 4.36738-3.11141 6.34375-4.65625 3.77391-3.11356 5.28125-4.6875c1.55319-1.62181 3.03159-3.47581 4.46875-5.46875 1.43716-1.992942 2.8585-4.115304 4.34375-6.28125s3.02128-4.359171 4.71875-6.5 3.55119-4.238662 5.625-6.15625c2.12202-1.962162 4.35181-3.703428 6.625-5.34375s4.58601-3.163615 6.84375-4.65625 4.45558-2.949648 6.53125-4.46875 4.02301-3.092777 5.75-4.8125c1.82222-1.814566 3.63445-4.044186 5.46875-6.4375s3.69993-4.974966 5.5625-7.5625 3.74922-5.165277 5.65625-7.5625c.82425-1.036115 1.66528-1.832128 2.5-2.78125z" fill="#fff"/><path d="m213.59375 12.4375c-.17339.118509-.3254.224666-.5.34375-2.01876 1.376898-4.11843 2.795619-6.1875 4.3125s-4.11695 3.13331-6.03125 4.90625c-1.96769 1.822383-3.87422 4.040277-5.78125 6.4375s-3.79368 4.974966-5.65625 7.5625-3.7282 5.169185-5.5625 7.5625-3.64653 4.622934-5.46875 6.4375c-1.72699 1.719723-3.67433 3.293398-5.75 4.8125s-4.27351 2.976115-6.53125 4.46875-4.57056 3.015928-6.84375 4.65625-4.50298 3.381587-6.625 5.34375c-2.07381 1.917588-3.92753 4.015422-5.625 6.15625s-3.2335 4.334053-4.71875 6.5-2.90659 4.288308-4.34375 6.28125-2.91556 3.846935-4.46875 5.46875c-1.50734 1.573939-3.30488 3.142657-5.28125 4.6875s-4.13074 3.0884-6.34375 4.65625-4.47024 3.13828-6.6875 4.78125-4.38588 3.35482-6.375 5.125c-2.08938 1.85941-4.05966 3.93348-5.96875 6.125s-3.758383 4.48321-5.59375 6.78125-3.663052 4.6023-5.53125 6.78125-3.773662 4.22824-5.78125 6.0625c-2.005583 1.83244-4.24652 3.62445-6.625 5.40625s-4.87827 3.57086-7.40625 5.40625-5.077165 3.72555-7.53125 5.71875-4.843206 4.08852-7 6.34375c-2.1568 2.25522-4.144716 4.53131-6.03125 6.78125s-3.656875 4.47055-5.40625 6.65625-3.473427 4.31252-5.21875 6.375-3.500624 4.0572-5.375 5.9375c-1.87437 1.88031-3.921148 3.45936-6.0625 4.875s-4.40112 2.66352-6.65625 3.90625-4.503046 2.48217-6.71875 3.84375-4.383176 2.85282-6.40625 4.625c-1.5465372 1.35474-2.5793529 2.5807-3.59375 3.8125 1.370164 3.3699 3.0726584 6.44774 4.96875 9.375.353519-.47282.530431-.84577.9375-1.34375 1.494709-1.82854 3.366417-3.80201 5.6875-5.84375 2.028762-1.8883 4.18948-3.42915 6.40625-4.8125s4.496292-2.5988 6.75-3.8125 4.485426-2.43315 6.625-3.8125 4.18813-2.93219 6.0625-4.8125c1.874376-1.8803 3.629678-3.87502 5.375-5.9375s3.469375-4.1893 5.21875-6.375 3.519715-4.40631 5.40625-6.65625 3.87445-4.52603 6.03125-6.78125c2.156795-2.25523 4.545915-4.35055 7-6.34375s5.00327-3.88336 7.53125-5.71875 5.02777-3.62445 7.40625-5.40625 4.619417-3.57381 6.625-5.40625c2.007588-1.83426 3.913052-3.88355 5.78125-6.0625 1.8682-2.17895 3.69588-4.48321 5.53125-6.78125s3.68466-4.58973 5.59375-6.78125 3.87937-4.2656 5.96875-6.125c1.98912-1.77018 4.15774-3.48203 6.375-5.125s4.47449-3.2134 6.6875-4.78125 4.36738-3.11141 6.34375-4.65625 3.77391-3.11356 5.28125-4.6875c1.55319-1.621816 3.03159-3.475808 4.46875-5.46875s2.8585-4.115304 4.34375-6.28125 3.02128-4.359172 4.71875-6.5 3.55119-4.238661 5.625-6.15625c2.12202-1.962163 4.35181-3.703428 6.625-5.34375s4.58601-3.163615 6.84375-4.65625 4.45558-2.949648 6.53125-4.46875 4.02301-3.092778 5.75-4.8125c1.82222-1.814565 3.63445-4.044186 5.46875-6.4375s3.69993-4.974966 5.5625-7.5625 3.74922-5.165277 5.65625-7.5625 3.81356-4.615117 5.78125-6.4375c1.49852-1.387865 3.11174-2.620519 4.71875-3.84375z" fill="#00f"/><path d="m212.46875 1.25c-.57581.4867561-1.03084.988877-1.65625 1.46875-1.76334 1.3529921-3.69999 2.6856022-5.71875 4.0625s-4.11843 2.7956195-6.1875 4.3125c-2.06907 1.51688-4.11696 3.13331-6.03125 4.90625-1.96769 1.822383-3.87422 4.040277-5.78125 6.4375s-3.79368 4.974966-5.65625 7.5625-3.7282 5.169185-5.5625 7.5625-3.64653 4.622934-5.46875 6.4375c-1.72699 1.719722-3.67433 3.293398-5.75 4.8125s-4.27351 2.976115-6.53125 4.46875-4.57056 3.015928-6.84375 4.65625-4.50298 3.381587-6.625 5.34375c-2.07381 1.917589-3.92753 4.015421-5.625 6.15625s-3.2335 4.334054-4.71875 6.5-2.90659 4.288309-4.34375 6.28125-2.91556 3.846937-4.46875 5.46875c-1.50734 1.573941-3.30488 3.142656-5.28125 4.6875s-4.13074 3.088397-6.34375 4.65625-4.47024 3.13828-6.6875 4.78125-4.38588 3.35482-6.375 5.125c-2.089378 1.85941-4.059657 3.93348-5.96875 6.125s-3.758383 4.48321-5.59375 6.78125-3.663052 4.6023-5.53125 6.78125-3.773664 4.22824-5.78125 6.0625c-2.005583 1.83243-4.24652 3.62445-6.625 5.40625s-4.87827 3.57086-7.40625 5.40625-5.077165 3.72555-7.53125 5.71875-4.843205 4.08852-7 6.34375c-2.1568 2.25522-4.144715 4.53131-6.03125 6.78125s-3.656875 4.47055-5.40625 6.65625-3.473428 4.31252-5.21875 6.375-3.500624 4.0572-5.375 5.9375c-1.87437 1.88031-3.922926 3.43315-6.0625 4.8125s-4.371292 2.5988-6.625 3.8125-4.53323 2.42915-6.75 3.8125c-1.8035009 1.12545-3.5303707 2.46725-5.21875 3.90625.7743097 3.81735 1.8659142 7.39147 3.21875 10.71875 1.0143971-1.2318 2.0472128-2.45776 3.59375-3.8125 2.023074-1.77218 4.190546-3.26342 6.40625-4.625s4.46362-2.60102 6.71875-3.84375 4.514898-2.49061 6.65625-3.90625 4.18813-2.99469 6.0625-4.875c1.874376-1.8803 3.629677-3.87502 5.375-5.9375s3.469375-4.1893 5.21875-6.375 3.519716-4.40631 5.40625-6.65625 3.87445-4.52603 6.03125-6.78125c2.156794-2.25523 4.545915-4.35055 7-6.34375s5.00327-3.88336 7.53125-5.71875 5.02777-3.62445 7.40625-5.40625 4.619417-3.57381 6.625-5.40625c2.007588-1.83426 3.913052-3.88355 5.78125-6.0625s3.695883-4.48321 5.53125-6.78125 3.68466-4.58973 5.59375-6.78125 3.87937-4.26559 5.96875-6.125c1.98912-1.77018 4.15774-3.48203 6.375-5.125s4.47449-3.2134 6.6875-4.78125 4.36738-3.111407 6.34375-4.65625 3.77391-3.113561 5.28125-4.6875c1.55319-1.621815 3.03159-3.475808 4.46875-5.46875s2.8585-4.115303 4.34375-6.28125 3.02128-4.359172 4.71875-6.5 3.55119-4.238662 5.625-6.15625c2.12202-1.962163 4.35181-3.703428 6.625-5.34375s4.58601-3.163615 6.84375-4.65625 4.45558-2.949648 6.53125-4.46875 4.02301-3.092777 5.75-4.8125c1.82222-1.814566 3.63445-4.044185 5.46875-6.4375s3.69993-4.974966 5.5625-7.5625 3.74922-5.165277 5.65625-7.5625 3.81356-4.615117 5.78125-6.4375c1.9143-1.77294 3.96218-3.389369 6.03125-4.90625s4.16874-2.935602 6.1875-4.3125c.1746-.119084.32661-.225241.5-.34375v-11.1875z" fill="#fff"/><path d="m1.46875 186.875v2.28125c.2297662 2.98793.6680659 5.78512 1.21875 8.5 1.6883793-1.439 3.4152491-2.7808 5.21875-3.90625 2.21677-1.38335 4.496292-2.5988 6.75-3.8125s4.485426-2.43315 6.625-3.8125 4.18813-2.93219 6.0625-4.8125c1.874376-1.8803 3.629678-3.87502 5.375-5.9375s3.469375-4.1893 5.21875-6.375 3.519715-4.40631 5.40625-6.65625 3.87445-4.52603 6.03125-6.78125c2.156795-2.25523 4.545915-4.35055 7-6.34375s5.00327-3.88336 7.53125-5.71875 5.02777-3.62445 7.40625-5.40625 4.619417-3.57382 6.625-5.40625c2.007586-1.83426 3.913052-3.88355 5.78125-6.0625s3.695883-4.48321 5.53125-6.78125 3.684657-4.58973 5.59375-6.78125 3.879372-4.26559 5.96875-6.125c1.98912-1.77018 4.15774-3.48203 6.375-5.125s4.47449-3.213397 6.6875-4.78125 4.36738-3.111406 6.34375-4.65625 3.77391-3.113559 5.28125-4.6875c1.55319-1.621813 3.03159-3.475809 4.46875-5.46875s2.8585-4.115304 4.34375-6.28125 3.02128-4.359171 4.71875-6.5 3.55119-4.238661 5.625-6.15625c2.12202-1.962163 4.35181-3.703428 6.625-5.34375s4.58601-3.163615 6.84375-4.65625 4.45558-2.949648 6.53125-4.46875 4.02301-3.092778 5.75-4.8125c1.82222-1.814566 3.63445-4.044185 5.46875-6.4375s3.69993-4.974966 5.5625-7.5625 3.74922-5.165277 5.65625-7.5625 3.81356-4.615117 5.78125-6.4375c1.91429-1.77294 3.96218-3.38937 6.03125-4.90625 2.06907-1.5168805 4.16874-2.9356022 6.1875-4.3125s3.95541-2.7095079 5.71875-4.0625c.62541-.479873 1.08044-.9819939 1.65625-1.46875h-16.0625c-1.80994 1.2336679-3.65919 2.4942138-5.5 3.84375-2.06907 1.5168805-4.11695 3.1333098-6.03125 4.90625-1.96769 1.822383-3.87422 4.040277-5.78125 6.4375s-3.79368 4.974966-5.65625 7.5625-3.7282 5.169185-5.5625 7.5625-3.64653 4.622934-5.46875 6.4375c-1.72699 1.719723-3.67433 3.293398-5.75 4.8125s-4.27351 2.976115-6.53125 4.46875-4.57056 3.015928-6.84375 4.65625-4.50298 3.381588-6.625 5.34375c-2.07381 1.917589-3.92753 4.015421-5.625 6.15625s-3.2335 4.334054-4.71875 6.5-2.90659 4.288308-4.34375 6.28125-2.91556 3.846935-4.46875 5.46875c-1.50734 1.573941-3.30488 3.142656-5.28125 4.6875s-4.13074 3.088398-6.34375 4.65625-4.47024 3.138284-6.6875 4.78125c-2.217258 1.642966-4.38588 3.354816-6.375 5.125-2.08938 1.85941-4.059656 3.93348-5.96875 6.125s-3.758383 4.48321-5.59375 6.78125-3.663052 4.6023-5.53125 6.78125-3.773663 4.22824-5.78125 6.0625c-2.005583 1.83243-4.24652 3.62445-6.625 5.40625s-4.87827 3.57086-7.40625 5.40625-5.077165 3.72555-7.53125 5.71875-4.843205 4.08852-7 6.34375c-2.1568 2.25522-4.144716 4.53131-6.03125 6.78125s-3.656875 4.47055-5.40625 6.65625-3.473427 4.31252-5.21875 6.375-3.500624 4.0572-5.375 5.9375c-1.87437 1.88031-3.922926 3.43315-6.0625 4.8125s-4.3712924 2.5988-6.625 3.8125c-1.7330916.93333-3.4659329 1.92675-5.1875 2.9375z" fill="#00f"/><path d="m180.25 1.25h-178.21875l-.53125 175.03125c1.2659729-.70837 2.5628357-1.37076 3.78125-2.15625 2.1395742-1.37935 4.18813-2.93219 6.0625-4.8125 1.874376-1.8803 3.629678-3.87502 5.375-5.9375s3.469375-4.1893 5.21875-6.375 3.519715-4.40631 5.40625-6.65625 3.87445-4.52603 6.03125-6.78125c2.156795-2.25523 4.545915-4.35055 7-6.34375s5.00327-3.88336 7.53125-5.71875 5.02777-3.62445 7.40625-5.40625 4.619417-3.57381 6.625-5.40625c2.007586-1.83426 3.913052-3.88355 5.78125-6.0625s3.695883-4.48321 5.53125-6.78125 3.684655-4.58973 5.59375-6.78125 3.87937-4.265596 5.96875-6.125c1.98912-1.770184 4.157742-3.482034 6.375-5.125s4.474492-3.213397 6.6875-4.78125c2.21301-1.567853 4.36738-3.111406 6.34375-4.65625s3.77391-3.113559 5.28125-4.6875c1.55319-1.621814 3.03159-3.475808 4.46875-5.46875s2.8585-4.115304 4.34375-6.28125 3.02128-4.359171 4.71875-6.5 3.55119-4.238661 5.625-6.15625c2.12202-1.962162 4.35181-3.703428 6.625-5.34375s4.58601-3.163615 6.84375-4.65625 4.45558-2.949648 6.53125-4.46875 4.02301-3.092777 5.75-4.8125c1.82222-1.814566 3.63445-4.044185 5.46875-6.4375s3.69993-4.974966 5.5625-7.5625 3.74922-5.165277 5.65625-7.5625c1.90703-2.3972231 3.81356-4.615117 5.78125-6.4375 1.07192-.992764 2.2404-1.8455309 3.375-2.75z" fill="#00f"/><path d="m180.25 1.25c-1.1346.9044691-2.30308 1.757236-3.375 2.75-1.96769 1.822383-3.87422 4.0402769-5.78125 6.4375-1.90703 2.397223-3.79368 4.974966-5.65625 7.5625s-3.7282 5.169185-5.5625 7.5625-3.64653 4.622934-5.46875 6.4375c-1.72699 1.719723-3.67433 3.293398-5.75 4.8125s-4.27351 2.976115-6.53125 4.46875-4.57056 3.015928-6.84375 4.65625-4.50298 3.381588-6.625 5.34375c-2.07381 1.917589-3.92753 4.015421-5.625 6.15625s-3.2335 4.334054-4.71875 6.5-2.90659 4.288308-4.34375 6.28125-2.91556 3.846936-4.46875 5.46875c-1.50734 1.573941-3.30488 3.142656-5.28125 4.6875s-4.13074 3.088397-6.34375 4.65625c-2.213008 1.567853-4.470242 3.138284-6.6875 4.78125s-4.38588 3.354816-6.375 5.125c-2.08938 1.859404-4.059655 3.93348-5.96875 6.125s-3.758383 4.48321-5.59375 6.78125-3.663052 4.6023-5.53125 6.78125-3.773664 4.22824-5.78125 6.0625c-2.005583 1.83244-4.24652 3.62445-6.625 5.40625s-4.87827 3.57086-7.40625 5.40625-5.077165 3.72555-7.53125 5.71875-4.843205 4.08852-7 6.34375c-2.1568 2.25522-4.144715 4.53131-6.03125 6.78125s-3.656875 4.47055-5.40625 6.65625-3.473428 4.31252-5.21875 6.375-3.500624 4.0572-5.375 5.9375c-1.87437 1.88031-3.9229258 3.43315-6.0625 4.8125-1.2184143.78549-2.5152771 1.44788-3.78125 2.15625l-.03125 10.59375c1.7215671-1.01075 3.4544084-2.00417 5.1875-2.9375 2.2537076-1.2137 4.485426-2.43315 6.625-3.8125s4.18813-2.93219 6.0625-4.8125c1.874376-1.8803 3.629677-3.87502 5.375-5.9375s3.469375-4.1893 5.21875-6.375 3.519716-4.40631 5.40625-6.65625 3.87445-4.52603 6.03125-6.78125c2.156795-2.25523 4.545915-4.35055 7-6.34375s5.00327-3.88336 7.53125-5.71875 5.02777-3.62445 7.40625-5.40625 4.619417-3.57382 6.625-5.40625c2.007587-1.83426 3.913052-3.88355 5.78125-6.0625s3.695883-4.48321 5.53125-6.78125 3.684656-4.58973 5.59375-6.78125 3.87937-4.26559 5.96875-6.125c1.98912-1.770184 4.157742-3.482034 6.375-5.125 2.21726-1.642966 4.47449-3.213398 6.6875-4.78125s4.36738-3.111406 6.34375-4.65625 3.77391-3.113559 5.28125-4.6875c1.55319-1.621815 3.03159-3.475808 4.46875-5.46875s2.8585-4.115304 4.34375-6.28125 3.02128-4.359171 4.71875-6.5 3.55119-4.238661 5.625-6.15625c2.12202-1.962162 4.35181-3.703428 6.625-5.34375s4.58601-3.163615 6.84375-4.65625 4.45558-2.949648 6.53125-4.46875 4.02301-3.092777 5.75-4.8125c1.82222-1.814566 3.63445-4.044185 5.46875-6.4375s3.69993-4.974966 5.5625-7.5625 3.74922-5.165277 5.65625-7.5625 3.81356-4.615117 5.78125-6.4375c1.9143-1.7729402 3.96218-3.3893695 6.03125-4.90625 1.84081-1.3495362 3.69006-2.6100821 5.5-3.84375z" fill="#fff"/></g><g stroke="#3f3f3f"><path d="m58.660874 53.447411.301343 31.207268h-2.744459l-.613763-31.343851c-9.552835.236541-17.854529 18.121332-27.920176 18.263173-11.09977.156413-14.156489-12.240706-6.454567-19.64954v-1.307696c-7.701922-7.408834-4.645203-19.805953 6.454567-19.649539 10.065647.14184 18.777565 17.753463 27.71135 18.488013-.855862-9.043861-18.487724-17.745779-18.629729-27.79987-.156593-11.087028 12.254774-14.140239 19.672122-6.447158h1.3092c7.417348-7.693081 19.828711-4.63987 19.672117 6.447158-.141998 10.054091-17.773862 18.756009-18.589453 27.79987 8.974058-.73455 17.685976-18.346172 27.751624-18.488013 11.099769-.156413 14.15649 12.240706 6.454569 19.64954v1.307696c7.701921 7.408834 4.6452 19.805953-6.454569 19.649539-10.065648-.14184-18.367342-17.890048-27.920176-18.12659z" fill="#fcff00" stroke-width="1.031669"/><g fill="#ff0" stroke-linecap="round" stroke-linejoin="round" stroke-width="1.034821" transform="matrix(1.03375981 0 0 .94026528 20.145834 -26.355358)"><g stroke-width="1" transform="matrix(.998551 0 0 1.072409 10.49881 10.83787)"><path d="m150.4375 105.78125v15.65064c0 1.44646-.54852 2.4309-1.02141 3.11555-3.49788 5.951-1.51496 12.60253-1.35359 16.01506l3.375 4.125 4.10185-5.55789c.62924-5.75817.6543-11.23015-2.71875-15.125-.32785-.23898-.47614-1.01664-.5706-1.95581v-16.26755z"/><path d="m157.28125 112.125v19.90625c-.15074 2.73391-4.71817 4.89131-6.0625 8.33184-1.58541-2.87589-5.05098-3.99835-5.28125-6.21875v-21.92559h-1.8125v27.5625l-.04665 4.03488c-.09382 1.56826.47597 3.23087 1.10982 4.54021.80423 5.17619 3.2068 3.43095 4.28058 7.92491h3.46875c.79331-5.60898 5.80176-13.44153 5.81424-13.53012s.31488-.63744.37326-2.09488.03125-8.96875.03125-8.96875l-.09375-19.5625z"/><path d="m140.21875 115.65625v28.65625h.03125v7.25c1.26007 7.27207 8.09522 10.50368 9.125 16h3.75c.81806-5.78395 10.3095-14.56643 10.52951-21.75348l-.02951-1.49652v-28.65625h-1.78125v18.71875c-.01182 2.28326.02334 3.4259-.19552 4.84385-.21993 1.42477-.7836 2.5055-1.55448 3.15615-4.47487 3.77702-7.50349 6.17656-8.84375 11.0625-1.75819-3.13284-5.58694-4.77591-7.40625-6.6875-1.39038-1.46092-1.7371-2.87445-1.84375-4.25v-26.84375z"/></g><g stroke-width="1.034821"><path d="m150.552 180.11299v7.23362c1.25824 7.79863 8.08445 11.25909 9.11274 17.15339h3.75231c.81688-6.20276 9.96514-16.28049 10.18483-23.98795l.02099-5.01762-2.71225.48352c-3.29777.5879-9.58563 7.09235-9.36973 13.37882-.79884-3.1645-6.30598-8.62584-8.20525-8.87646z"/><path d="m150.552 193.61299v7.23362c1.25824 7.79863 8.08445 11.25909 9.11274 17.15339h3.75231c.81688-6.20276 9.96514-16.28049 10.18483-23.98795l.02099-5.01762-2.71225.48352c-3.29777.5879-9.58563 7.09235-9.36973 13.37882-.79884-3.1645-6.30598-8.62584-8.20525-8.87646z"/><path d="m150.552 207.11299v7.23362c1.25824 7.79863 8.08445 11.25909 9.11274 17.15339h3.75231c.81688-6.20276 9.96514-16.28049 10.18483-23.98795l.02099-5.01762-2.71225.48352c-3.29777.5879-9.58563 7.09235-9.36973 13.37882-.79884-3.1645-6.30598-8.62584-8.20525-8.87646z"/><path d="m150.552 220.61299v7.23362c1.25824 7.79863 8.08445 11.25909 9.11274 17.15339l-.26806 8.57514 5.10127-.07206c.1513-1.14889-.49246-10.9338.12082-12.30889 2.69777-6.04888 8.80411-13.90228 8.98311-20.18214l.02099-5.01762-2.71225.48352c-3.29777.5879-9.58563 7.09235-9.36973 13.37882-.79884-3.1645-6.30598-8.62584-8.20525-8.87646z"/><path d="m161.45056 161.27271.18043 69.56728"/></g></g><g fill="#ff0" stroke-linecap="round" stroke-linejoin="round" stroke-width="1.034821" transform="matrix(1.03375981 0 0 .94026528 -41.87866 26.061729)"><g stroke-width="1" transform="matrix(.998551 0 0 1.072409 10.49881 10.83787)"><path d="m150.4375 105.78125v15.65064c0 1.44646-.54852 2.4309-1.02141 3.11555-3.49788 5.951-1.51496 12.60253-1.35359 16.01506l3.375 4.125 4.10185-5.55789c.62924-5.75817.6543-11.23015-2.71875-15.125-.32785-.23898-.47614-1.01664-.5706-1.95581v-16.26755z"/><path d="m157.28125 112.125v19.90625c-.15074 2.73391-4.71817 4.89131-6.0625 8.33184-1.58541-2.87589-5.05098-3.99835-5.28125-6.21875v-21.92559h-1.8125v27.5625l-.04665 4.03488c-.09382 1.56826.47597 3.23087 1.10982 4.54021.80423 5.17619 3.2068 3.43095 4.28058 7.92491h3.46875c.79331-5.60898 5.80176-13.44153 5.81424-13.53012s.31488-.63744.37326-2.09488.03125-8.96875.03125-8.96875l-.09375-19.5625z"/><path d="m140.21875 115.65625v28.65625h.03125v7.25c1.26007 7.27207 8.09522 10.50368 9.125 16h3.75c.81806-5.78395 10.3095-14.56643 10.52951-21.75348l-.02951-1.49652v-28.65625h-1.78125v18.71875c-.01182 2.28326.02334 3.4259-.19552 4.84385-.21993 1.42477-.7836 2.5055-1.55448 3.15615-4.47487 3.77702-7.50349 6.17656-8.84375 11.0625-1.75819-3.13284-5.58694-4.77591-7.40625-6.6875-1.39038-1.46092-1.7371-2.87445-1.84375-4.25v-26.84375z"/></g><g stroke-width="1.034821"><path d="m150.552 180.11299v7.23362c1.25824 7.79863 8.08445 11.25909 9.11274 17.15339h3.75231c.81688-6.20276 9.96514-16.28049 10.18483-23.98795l.02099-5.01762-2.71225.48352c-3.29777.5879-9.58563 7.09235-9.36973 13.37882-.79884-3.1645-6.30598-8.62584-8.20525-8.87646z"/><path d="m150.552 193.61299v7.23362c1.25824 7.79863 8.08445 11.25909 9.11274 17.15339h3.75231c.81688-6.20276 9.96514-16.28049 10.18483-23.98795l.02099-5.01762-2.71225.48352c-3.29777.5879-9.58563 7.09235-9.36973 13.37882-.79884-3.1645-6.30598-8.62584-8.20525-8.87646z"/><path d="m150.552 207.11299v7.23362c1.25824 7.79863 8.08445 11.25909 9.11274 17.15339h3.75231c.81688-6.20276 9.96514-16.28049 10.18483-23.98795l.02099-5.01762-2.71225.48352c-3.29777.5879-9.58563 7.09235-9.36973 13.37882-.79884-3.1645-6.30598-8.62584-8.20525-8.87646z"/><path d="m150.552 220.61299v7.23362c1.25824 7.79863 8.08445 11.25909 9.11274 17.15339l-.26806 8.57514 5.10127-.07206c.1513-1.14889-.49246-10.9338.12082-12.30889 2.69777-6.04888 8.80411-13.90228 8.98311-20.18214l.02099-5.01762-2.71225.48352c-3.29777.5879-9.58563 7.09235-9.36973 13.37882-.79884-3.1645-6.30598-8.62584-8.20525-8.87646z"/><path d="m161.45056 161.27271.18043 69.56728"/></g></g><g fill="#ff0" stroke-linecap="round" stroke-linejoin="round" stroke-width="1.034821" transform="matrix(1.03375981 0 0 .94026528 -10.84265 -.155345)"><g stroke-width="1" transform="matrix(.998551 0 0 1.072409 10.49881 10.83787)"><path d="m150.4375 105.78125v15.65064c0 1.44646-.54852 2.4309-1.02141 3.11555-3.49788 5.951-1.51496 12.60253-1.35359 16.01506l3.375 4.125 4.10185-5.55789c.62924-5.75817.6543-11.23015-2.71875-15.125-.32785-.23898-.47614-1.01664-.5706-1.95581v-16.26755z"/><path d="m157.28125 112.125v19.90625c-.15074 2.73391-4.71817 4.89131-6.0625 8.33184-1.58541-2.87589-5.05098-3.99835-5.28125-6.21875v-21.92559h-1.8125v27.5625l-.04665 4.03488c-.09382 1.56826.47597 3.23087 1.10982 4.54021.80423 5.17619 3.2068 3.43095 4.28058 7.92491h3.46875c.79331-5.60898 5.80176-13.44153 5.81424-13.53012s.31488-.63744.37326-2.09488.03125-8.96875.03125-8.96875l-.09375-19.5625z"/><path d="m140.21875 115.65625v28.65625h.03125v7.25c1.26007 7.27207 8.09522 10.50368 9.125 16h3.75c.81806-5.78395 10.3095-14.56643 10.52951-21.75348l-.02951-1.49652v-28.65625h-1.78125v18.71875c-.01182 2.28326.02334 3.4259-.19552 4.84385-.21993 1.42477-.7836 2.5055-1.55448 3.15615-4.47487 3.77702-7.50349 6.17656-8.84375 11.0625-1.75819-3.13284-5.58694-4.77591-7.40625-6.6875-1.39038-1.46092-1.7371-2.87445-1.84375-4.25v-26.84375z"/></g><g stroke-width="1.034821"><path d="m150.552 180.11299v7.23362c1.25824 7.79863 8.08445 11.25909 9.11274 17.15339h3.75231c.81688-6.20276 9.96514-16.28049 10.18483-23.98795l.02099-5.01762-2.71225.48352c-3.29777.5879-9.58563 7.09235-9.36973 13.37882-.79884-3.1645-6.30598-8.62584-8.20525-8.87646z"/><path d="m150.552 193.61299v7.23362c1.25824 7.79863 8.08445 11.25909 9.11274 17.15339h3.75231c.81688-6.20276 9.96514-16.28049 10.18483-23.98795l.02099-5.01762-2.71225.48352c-3.29777.5879-9.58563 7.09235-9.36973 13.37882-.79884-3.1645-6.30598-8.62584-8.20525-8.87646z"/><path d="m150.552 207.11299v7.23362c1.25824 7.79863 8.08445 11.25909 9.11274 17.15339h3.75231c.81688-6.20276 9.96514-16.28049 10.18483-23.98795l.02099-5.01762-2.71225.48352c-3.29777.5879-9.58563 7.09235-9.36973 13.37882-.79884-3.1645-6.30598-8.62584-8.20525-8.87646z"/><path d="m150.552 220.61299v7.23362c1.25824 7.79863 8.08445 11.25909 9.11274 17.15339l-.26806 8.57514 5.10127-.07206c.1513-1.14889-.49246-10.9338.12082-12.30889 2.69777-6.04888 8.80411-13.90228 8.98311-20.18214l.02099-5.01762-2.71225.48352c-3.29777.5879-9.58563 7.09235-9.36973 13.37882-.79884-3.1645-6.30598-8.62584-8.20525-8.87646z"/><path d="m161.45056 161.27271.18043 69.56728"/></g></g></g></g><path d="m.49798456.49835844v194.56016156c3.07100004 54.22044 64.71932044 63.87139 109.50186544 86.4435 44.78254-22.57211 106.43086-32.22306 109.50187-86.4435v-194.56016156z" fill="none" stroke="#000" stroke-width=".995969"/></g></svg>