<svg height="300" width="471.42999" xmlns="http://www.w3.org/2000/svg"><g transform="matrix(1.714291 0 0 1.714292 -.000001 -.001087)"><path d="m.000002 87.500328h275v87.499664h-275z" fill="#009645"/><path d="m.000002.00066h275v87.499664h-275z" fill="#fff"/></g><g transform="matrix(.425532 0 0 .425532 188.9055 14.99998)"><path d="m.49997382.49966223v194.55779777c3.07094898 54.21975 64.71827118 63.87061 109.50008618 86.44239 44.78181-22.57178 106.42913-32.22264 109.5001-86.44239v-194.55779777z" fill="#f31313"/><path d="m.4999915.49999708v194.55763292c3.0709527 54.21973 64.7182185 63.87056 109.5000085 86.44237 44.78178-22.57181 106.42905-32.22264 109.50001-86.44237v-194.55763292z" fill="none" stroke="#000" stroke-width=".999985"/><g transform="matrix(.765532 0 0 .765532 -.558764 .089866)"><path d="m136.71972 57.75028c-20.79265 0-37.664565 16.71109-37.664565 37.317399 0 20.606301 16.871915 37.317411 37.664565 37.317401 20.79265 0 37.66457-16.7111 37.66457-37.317401 0-20.606307-16.87192-37.317402-37.66457-37.317399zm.07008 7.815531c16.28454.000003 29.50099 13.338597 29.50099 29.748307 0 16.409682-13.21646 29.713082-29.50099 29.713082-16.28454 0-29.501-13.3034-29.501-29.713082 0-16.409713 13.21646-29.748307 29.501-29.748307z" fill="#ff0" stroke="#000" stroke-width="1.373459"/><path d="m269.3435 10.750721c-8.33081 8.244003-17.6629 14.382291-47.56053 33.194898-27.24232 17.380473-35.2083 24.902253-40.08921 40.465162-4.88091 15.676499-2.95925 20.086489 2.04317 27.604269 2.61072 2.83995 3.5148 4.04089 2.37971 8.13041-1.81616 6.13429-6.46605 10.84044-12.14154 15.15715-5.10792 3.86234-12.82659 6.76723-13.62115 4.60887-1.01759-.83981-1.77154-2.86425-3.58769-5.13622l-3.44991-5.15253-2.62732-6.04533c-.66966-3.35498-2.64454-12.66169-1.89858-15.61461 2.48521-5.50536 6.74824-9.693503 7.1828-12.875719-.90939-.571331-3.0888-.628992-4.76941.318006-5.06985 1.699843-9.42669 6.868453-9.64618 5.904953-.06136-1.27998 3.93554-7.90088 6.48171-9.604931 1.61381-1.113676 5.64643-3.288937 8.10712-3.423545 3.99252 1.439512 6.31369.638326 6.11713-.231976.04061-1.107653-2.59352-7.517777-6.33319-9.653968-4.08359-3.09577-11.08428-2.790061-15.49885 1.193264-6.51281.09883-12.25964 1.467253-15.49111 3.949789-5.91326 4.101535-6.1203 16.240794-6.66998 24.365337l-.33469 18.76302-2.07762 6.02285c-1.13511 2.38555-2.61072 5.79348-3.29178 7.72465-1.24861 3.40794-1.36212 3.52154-6.58356 2.72635-6.924087-.90878-12.372549-5.22551-15.777839-12.49577-3.518798-7.49746-3.405289-11.01899.22702-14.42693 4.540384-4.20312 6.129521-8.29263 6.129521-15.4493 0-7.951849-3.859328-19.53883-9.080771-26.922692-6.810578-9.996612-24.518081-27.149889-36.890631-35.896925-19.069618-13.404548-31.328658-22.719573-35.415005-26.809097-2.156683-2.1583599-4.313366-3.8623278-4.880914-3.8623278-1.7026445 0-.3405289 13.0637558 1.816155 17.1532788 4.880913 9.769417 22.247887 27.263487 34.052888 34.760946 6.016011 3.74873 21.429018 17.490069 20.293923 17.94446-.681059.227196-5.310651-3.631128-9.851036-7.493456-4.540386-3.74873-9.53481-7.838252-11.123944-8.747036-9.53481-6.247882-27.355822-19.425234-31.442168-23.287562-2.724231-2.61275-5.1079336-4.316719-5.5619721-3.975925-.3405289.454391-.6810578 3.635132-.5675482 7.156666.1135097 12.382167 10.1226593 24.15571 28.9652583 37.105867 6.668768 5.014621 26.683065 17.482065 26.208725 19.928564 0 1.135979-2.529817-1.079328-11.043039-6.418426-3.06476-2.044761-10.057753-6.020686-15.733234-9.087828-12.599569-6.702275-21.587133-12.67432-23.630306-15.173473-.794567-1.135978-2.270192-1.931163-3.1782695-1.931163-2.6107215 0-1.3621155 10.678199 1.9296635 17.266875 3.632309 7.383861 12.713079 16.244494 22.134378 21.469994 4.426876 2.49915 8.740242 4.9983 9.648319 5.56629.908077.68159 14.250215 7.53839 17.087955 8.78797 3.056459 2.61274-7.804468-2.3169-16.520407-5.27043-13.657457-4.57226-22.134378-9.19743-30.988129-15.558907-2.497212-1.817565-2.497212-1.817565-2.497212 3.407937 0 11.58697 9.080771 22.94676 24.064042 29.98983 5.107932 2.49915 12.25904 5.11191 15.664329 5.90709 3.405288.79519 10.970132 2.45051 12.559267 3.0185 2.497212.68158-1.050191.90877-4.954122.27583-2.383702.1136-15.550819-2.38555-24.404571-2.83994-15.664329-.79519-16.118368-.68158-16.118368 1.47676 0 3.06715 9.761828 12.83657 16.004858 15.90371 8.059185 3.97593 19.183128 5.45271 28.490919 3.74874 4.313365-.68159 11.168903-1.29422 11.395922-.95343.681058.68158-5.493422 1.52141-16.503856 3.22538-12.145531 1.93116-26.901783 7.61106-26.901783 10.451 0 3.18074 13.394137 9.99661 19.750676 9.99661l8.187147-.39558-9.776282 6.75706c-6.583558 7.38387-7.037597 10.56461-1.702645 12.04138 1.929665.56799 6.129521.68158 9.53481.3408 5.448462-.56799 12.182436-5.75532 8.93711-2.43451-4.23646 5.82797-7.347975 13.79429-6.893937 15.04387.567549 1.70397 6.24303 1.13597 13.848176-1.36318 2.837741-.90878 6.802577-4.12215 8.136391-5.38804 2.80144-3.40207-2.687929 7.66-3.141968 12.31751-.567548 7.04307-.340529 8.51984 1.021587 8.51984 3.06476 0 13.394137-5.90709 16.231878-9.31502l5.051326-8.19966-.525096 7.61135c.194419 2.63677 3.192429 9.90333 4.213999 9.90333 1.81616 0 11.23747-10.6782 11.91852-13.63175 1.06962-7.26608 1.14192-5.89 3.97284-1.47676 1.36211 1.70397 3.85933 4.77111 5.67548 6.70227l3.17827 3.40794-5.33496 2.49915c-3.06476 1.36318-10.32937 4.31672-16.23187 6.58867-5.9025 2.27196-12.259039 4.77111-14.188703 5.56629-1.816154.79519-4.767404 1.93118-6.470049 2.61277-4.426875 1.81756-3.972837 4.43031 1.135097 6.70226 2.428305 1.92717 6.956692 1.68365 7.183712 1.79725 1.175699-.51935-2.643327 1.4971-3.324385 2.29229-.794568.90877-1.021586 1.93116-.567548 2.27194 1.475626 1.59038-3.17827 4.99831-6.697068 4.88472-4.313367-.1136-8.172693-4.65752-7.832165-9.42863.567548-10.1102.340528-11.92778-1.362115-13.63174-1.702646-1.70397-6.924087-2.83994-13.053608-2.83994-3.291779 0-7.037598 3.29433-7.037598 6.13427 0 1.93117.22702 1.93117 2.724232.3408 3.178269-2.15836 4.767405-.68158 4.199857 3.74873-.113511 1.59037 1.021587 4.08953 3.178269 6.58867 1.929663 2.15837 3.518798 4.54392 3.518798 5.22551s.794568 2.27196 1.929664 3.40794c1.021587 1.13597 1.589136 2.38555 1.248606 2.72634-1.362116 1.24958-8.399712-2.83994-12.826588-7.38386-4.426876-4.65751-7.718656-5.67989-11.691493-3.63512-1.021586.56798-3.291779 1.59037-5.107932 2.49914-1.929664.90879-3.5188 2.72635-4.086348 4.88471-1.248605 4.77111-.340529 5.79349 2.610723 3.06714 2.95125-2.83995 4.767403-3.06714 5.675481-.68158 2.059476 2.94954 4.057742 4.63719 10.446886 4.32071 1.589135 0 5.776991 2.21932 7.678353 2.96988 1.589135 1.93116-1.666343 1.57004-10.747113 1.22925-4.086347-.1136-5.675482.34079-6.810577 2.04476-.908078 1.13598-3.064761 2.83994-4.994425 3.74872-3.745818 1.81758-4.767404 5.4527-2.95125 10.45102 1.475625 3.97592 3.291779 3.97592 3.745818-.1136.227019-2.38556 1.021587-3.18074 3.632308-3.40794 2.270192-.3408 4.086347 1.70396 4.540385 2.61275 1.021587 2.83994 6.356539 2.04476 9.648319-1.59037 3.859327-4.08953 19.410146-9.76942 21.226301-7.72465 1.589134 1.81756 4.653894 11.58698 5.448462 17.60766l.681058 4.88471-4.086347-.79518c-3.972837-.68159-4.086346-.68159-2.724231 1.70397 2.837741 5.56629 9.534809 5.3391 15.664329-.3408 4.653894-4.43031 4.994425-9.65581.794567-12.95015-5.527841-2.61276-6.896783-7.71271-5.555145-12.37876.670818-3.5164 1.240074-4.31501 3.852501-5.45611 6.299932-4.05719 5.221444-1.59037 6.243032 2.72634 1.13509 5.33911 3.51879 6.58869 6.35654 3.40795 2.04318-2.38556 8.35757-8.71503 4.08449-3.46089-2.9331 4.62304-4.31151 12.32152-2.8359 15.95665 1.47564 3.63512 1.47564 3.63512 3.85934 1.59037 2.04317-1.81757 11.12394-13.51815 15.21029-19.65243.90808-1.47677 2.83774-3.97593 4.08635-5.5663 1.36211-1.59037 4.88091-6.70227 7.83216-11.24618 2.95126-4.54392 5.67548-8.06545 6.01601-7.61107.45404.4544 1.02159 8.29265 1.36212 17.38049.45404 14.65411.79457 16.69888 2.49721 17.03966 1.13509.22721 3.40529-1.02237 5.10792-2.83993 3.23919-1.70397.60787-21.15075 4.47548-2.83995 1.60944.86013 3.36352-1.34951 4.72564-2.25829 1.58572-1.46995 3.06136-2.7127 3.51539-2.7127.34053 0 1.81273 5.42538 2.83432 9.85569 1.70264 6.47509 1.70264 8.29265.56755 9.76943-1.92967 2.27195-9.98885 1.24957-12.03202-1.59037-3.97284-5.3391-4.99443-6.13429-8.62673-5.79351-7.49163.6816-13.16712 15.56292-6.69707 17.72127.79457.2272 1.36212-.68158 1.36212-1.93115 0-2.61276 1.81615-3.29435 2.4972-1.02239.34054.90879 3.40529 1.47677 9.19428 1.59037 4.88092 0 10.34568.61264 10.68621.95343-.06091 1.99611-5.67948 9.92764-11.02673 10.29276-4.19986.90879-6.12952 3.29434-5.44847 6.81587.34053 1.59037.11351 3.18074-.34053 3.52154-.56755.3408-1.02159 2.04476-1.02159 3.74873 0 4.20311 4.31338 8.06545 8.85376 8.06545 2.97173-.1119 2.08071-1.12916-1.32457-3.7419-3.29179-2.72636.41649-5.34593 4.72987-5.34593 4.08633 0 6.35652-2.49916 8.28619-8.86064.79457-2.61275 3.06476-6.70226 5.10793-9.08782l3.63231-4.20313 2.2702 5.11191c1.2486 2.83994 2.61071 6.81586 2.95124 8.74703.90808 3.97593 4.54039 8.29265 6.9241 8.29265 1.13509 0 1.70264 1.13598 1.70264 3.40793 0 1.81756-.45403 3.40793-1.1351 3.40793-.56754 0-1.13509.4544-1.13509 1.13599 0 2.04475 4.08635 1.13598 6.58356-1.47678 1.36211-1.47677 2.4972-3.74872 2.4972-5.1119 0-1.24958.56755-2.72635 1.1351-3.06715 3.17827-1.93115.11352-8.51984-5.78899-12.15496-1.58913-1.02239-3.63231-3.86233-4.65389-6.47508l-1.81615-4.65751h5.44846c3.06475 0 5.90249.45438 6.24302 1.13598 1.13511 1.81756 5.33495 1.36317 7.71867-.79519 2.04317-1.93117 2.15667-1.93117 3.74581.11359.79457 1.13599 1.2486 2.61276.90807 3.06715-.34052.56799.11352 1.02238 1.02159 1.02238 1.81615 0 3.06476-2.38556 3.06476-5.90709 0-2.95354-9.76183-12.26856-12.9401-12.26856-1.2486 0-3.85933 1.24957-5.67548 2.83994-6.47005 5.5663-13.96168 2.27196-16.5724-7.27027-.68106-2.61275-1.58914-5.5663-1.92966-6.47507-.45404-1.13598.22701-1.59037 2.4972-1.59037 2.95126 0 2.17034-.22719 1.48929-4.77111l-3.25254-10.47921 5.16854 9.34322c2.04317 4.43032 7.83217 8.17905 12.48606 8.17905 4.73669.55944 7.22708 1.81244 11.22552 7.94673 6.12951 6.70228 6.709 7.27539 10.3413 7.27539 2.95126 0 4.88093-.90879 7.49165-3.52154l3.5188-3.40793-4.08634-4.31672c-2.2702-2.27196-10.55641-10.2804-11.11543-11.96217-4.06794-3.97004 12.28223 11.05109 14.18018 11.96217.56755 1.13597 2.2702 1.70397 5.90251 1.70397 6.69705 0 9.64831-1.59037 9.64831-5.1119 0-2.38556-4.01775-6.95411 3.17827-2.83995 4.08635 0 8.1727-4.20312 8.1727-8.29265 0-2.61275-7.13542-6.54835 3.29178-3.06714 4.08634 0 8.05917-4.54391 8.05917-9.08783 0-3.06714-.56754-3.40794-11.57797-7.15666-49.60371-16.92609-57.50478-20.65049-58.45347-24.62642-1.89736-9.3886 1.47162-2.77764 3.96884.67093 1.81615 1.59037 5.10793 4.18946 7.37813 4.64385l4.19986.68158v-7.04306c0-3.74873-2.17914-10.01509-1.95213-10.01509.11352 0 5.2439 4.10799 8.64918 5.47117 7.15112 2.61275 9.1943 2.27197 9.1943-1.81757 0-4.08952-2.14654-13.21183-5.7567-17.67478-1.02158-1.36317 2.60489.9759 4.42104 1.65748 1.2486.45441 3.94638 1.13598 7.8057 1.47678 5.78899.568 7.26463.34079 7.83216-1.13598.90808-2.38556-3.33853-12.69279-8.42432-16.28328-5.88649-3.67977 1.71711-.16809 9.44592-2.57397 3.17826-.68158 6.47004-2.15836 7.37812-2.95355 1.36211-1.47677 1.1351-2.15834-2.2702-5.79348-2.15669-2.27196-7.0376-5.5663-10.6699-7.27026l-8.2782-3.06715 6.46205-.68158c7.03759-.90879 14.64274-6.13429 19.52365-13.29095 5.22144-7.72466 5.67548-10.67821 1.24861-9.88302-4.31337.79518-16.5764 4.94966-20.20472 5.3391-3.42559.50303-22.95755 1.24959-23.6386.1136-2.2379-2.35323 16.20756-1.6227 22.27649-3.86233 10.10236-1.36317 20.65875-8.29264 27.24231-18.06206 4.08635-6.13428 6.24303-12.26856 4.31337-12.26856-.56756 0-4.42689 1.47677-8.39972 3.29432-4.08635 1.81758-10.66991 4.20314-14.64274 5.22551-3.97284 1.02238-10.78341 3.31467-15.3238 4.56424-4.42687 1.13598-13.73097 2.94953-14.185 2.94953-2.78914-.94941 6.92038-3.4689 11.57428-4.71846 5.78899-1.70398 6.92409-2.00012 16.34539-6.08965 14.86975-6.588666 24.63159-17.266865 26.90178-29.76263.68105-3.521534.90808-6.588676.56755-6.929469-.34053-.340794-3.06476.908781-6.01602 2.839945-2.95124 1.931165-8.74423 5.655573-13.73866 7.92753-4.99442 2.271958-32.74368 15.640176-34.17071 14.305321 1.84877-4.341338 7.38644-5.19317 14.42403-8.714705 28.94496-14.540526 39.61486-24.877933 45.06333-43.394384 2.72423-9.542221 1.2486-10.678199-5.56197-4.543913-5.33495 4.77111-19.68577 15.6725-28.42602 20.443611-3.40528 1.931163-10.07805 5.635255-14.50493 8.475202-7.03759 4.657513-11.8619 8.235996-12.02002 5.67589.15812-2.036755 11.13625-8.012804 28.73025-19.599786 6.24302-3.975925 13.73466-9.542221 16.68591-12.041374 7.49163-6.588676 15.21029-19.425235 16.79942-28.058673.57555-8.0814608.48234-9.9356597-7.69835-1.525414z"/><g fill="#fff"><path d="m274.90947 14.532081c-7.71095 20.86598-15.46161 26.143521-39.86619 41.138438-5.90249 3.521534-12.37254 7.724655-14.3022 9.201428-2.95126 2.271957-4.28906 3.018501-8.03489 1.99612-6.69706-1.184621-11.80899-.340793-17.50479 3.910969-2.38369 2.385555-4.42687 4.998306-4.42687 5.79349 0 .908784 1.58914.113599 3.74582-1.931162 5.10793-4.884708 7.83216-6.020687 13.84818-6.020687 4.42688 0 5.53766.973738 5.08362 2.564108.13383 4.458945-3.83502 8.454885-6.21872 9.931657-2.15669 1.363174-3.97284 2.61275-3.97284 2.839947 0 .227195 3.29179-.677585 7.37813-.90478 4.08634-.227196 7.37813.677583 7.37813.90478 0 .340793-.11752 2.884585-1.1391 5.497335-2.04317 4.998311-6.23903 8.588799-8.84976 8.702397-3.17826 0 .11352 2.271959 3.51881 2.271959 2.04317.1136 5.10793.79518 7.03758 1.47677l3.29179 1.47677-3.45789 5.18086c-2.3917 4.47495-7.0985 5.49733-10.16326 5.49733-2.15668 0-3.85933.4544-3.85933 1.13598 0 .56799 5.53797 1.92717 6.55957 1.92717 2.15667 0 8.67103 5.52165 8.67103 6.65762 0 2.49917-5.69579 4.47897-10.80372 4.59256-3.06477.1136-5.9025.2272-6.35654.3408-.56756.1136 1.81216 1.09134 4.19585 2.56811 5.22145 3.18074 8.40371 9.13247 6.47405 11.06364-1.70264 1.70396-6.92409 1.59037-11.6915-.45441l-3.97283-1.59037 5.10793 6.0207c2.95125 3.29433 6.37284 6.94948 4.99442 10.90539-4.62129 2.56011-8.74023 1.02238-12.71307-1.02238-2.49721-1.36318-4.65389-2.15836-4.88092-1.93116-.22701.2272.56756 2.27195 1.81616 4.54391 1.36211 2.27196 3.35668 6.24789 3.69721 8.86063l.16211 4.65751s-7.93337 1.74892-13.0536-6.24788l-4.19986-4.77111.56755 5.11191c.34053 2.72634.68106 6.13429.90808 7.49746.56754 3.97593-1.02159 6.20005-3.73217-1.2564-.79457-2.27196-3.64254-9.99321-6.93432-16.80908-3.29177-6.81587-6.01261-9.58663-6.56992-12.83314 2.01587-.56116 3.84226-1.13599 6.79352-2.27195 7.15111-2.61275 15.09678-10.79181 17.93452-18.51646 2.49721-6.70227 2.72424-6.13428-3.29177-13.85894-1.24861-1.59037-2.49722-4.43031-2.83775-6.47507-1.67435-5.424377 3.06476-19.311636 6.24303-25.673117 5.22144-10.11021 17.09534-20.196099 46.38083-38.144561 18.50207-11.246189 30.03546-19.177722 36.61902-25.993595 2.38369-2.4991534 4.85661-4.8157488 4.97012-4.8157488.11352 0-.31623 4.9822948-.54325 7.2542528z"/><path d="m30.90437 26.431229c2.383702 1.590371 9.263186 6.90515 15.506216 11.449066 31.555677 23.741952 43.680906 39.146623 46.745667 58.344662 1.248604 8.179043.681057 10.337403-4.880916 18.289253-4.653894 6.58868-3.745816 13.97253 2.610723 22.03799 4.540384 5.67989 6.924086 7.04306 15.55082 9.31502l4.7674 1.24958-2.3837 5.33909c-2.15668 4.65752-2.49722 7.49746-2.49722 22.03798-.1135 12.60937 1.28522 13.806-.05259 15.5466-.63646 1.89884-2.92295 3.1201-3.37699 3.23369-.34054.22719-2.11873-2.7664-2.34574-4.58397-.22703-1.93116.10327-3.20123-.23726-4.56441l-.567565-2.16517-4.089751 1.15305c-2.270193 1.13596-6.122694 2.49574-8.052358 2.72293-3.745817.34079-4.086346-2.02427-2.497211-11.22569l.681058-3.87258-5.682308.3408c-4.880916.34078-6.915555-.44757-7.483104-1.81074-1.021587-2.72635.899545-6.92947 4.191324-10.79179l2.951251-3.52155h-4.653896c-2.610721 0-6.470049-.79518-8.626732-1.59037l-3.972837-1.70397 2.383703-4.08951c1.362115-2.27196 3.745817-4.99831 5.334952-6.02069l2.724232-1.81756-4.086348-1.36318c-4.313365-1.59037-12.032021-7.15666-12.032021-8.86063 0-1.36318 3.29178-3.86233 7.945676-6.02069l3.972836-1.70397-4.536972-3.07227c-3.745818-2.95354-7.716949-8.96568-7.716949-11.12405 0-1.13597 6.1244-2.61616 10.664787-2.84336l4.313366-.1136-3.972838-4.54391c-4.086347-4.430312-7.945674-11.814173-6.810578-12.950151.340529-.340795 3.632309-.681588 7.378127-.795185 4.086346-.113598 6.470049-.56799 6.01601-1.249576-.340529-.681587-1.589135-2.385556-2.724231-3.975926-2.253128-1.81415-3.054522-5.449282-3.395051-8.402826l-.123748-5.001722 3.859327.795185c2.156684.454392 5.107934 1.59037 6.583559 2.271957 2.156683 1.249577 2.610722 1.249577 2.156683-.113598-.681057-2.158359-6.581853-2.867272-11.682959-4.323551-3.632309-.113597-2.854806 1.45628-2.627787 4.409824 1.808153 7.22993.8031 2.526478-12.704547-8.378918-4.653893-3.748729-10.329376-8.292644-12.599568-9.883015-7.037597-5.2255-19.183128-16.524334-23.382984-22.999412-3.895933-3.363297-5.894501-10.779787-5.444462-14.386596l-.093209-4.543915 8.075486 7.465134c3.745818 3.180739 8.424015 6.929469 10.921227 8.40624z"/><path d="m273.20682 44.383999c-2.20128 8.491515-7.37812 13.964228-12.59956 19.416926-5.67548 6.020687-10.12666 8.929593-27.49363 18.13102-12.59957 6.475079-15.1983 8.645749-12.82659 3.387617 0-2.839946-4.82031-3.570174-8.79315-3.570174-3.4659-1.898837 4.36627-6.767231 31.15455-22.784531 12.35224-8.085765 22.06947-14.471566 25.36125-17.879503 2.95125-3.067141 6.82688-5.339098 7.05389-5.225501.90408 2.28427-1.17569 6.024993-1.85676 8.524146z"/><path d="m37.467626 57.581365c6.01601 4.316718 12.100927 8.99455 13.690063 10.01693 3.632308 2.385556 19.827174 15.362684 20.281213 16.61226-1.338224 1.239331-4.55763.547675-6.373784.547675-7.840878.54196-7.479691 1.512458-5.413567 6.281684-.340529 1.703973-4.975064-2.653209-17.007086-11.059451-8.059183-5.793491-16.458895-12.041374-18.615579-13.972537-7.718655-7.383862-15.1170829-17.936151-14.0791937-28.845851 1.8973617 1.034692 21.5019237 16.216169 27.5179337 20.41929z"/><path d="m36.466342 84.775895c14.529233 7.724653 29.277485 16.918075 29.958543 18.054045.227019.45439-4.029743.21088-6.867484 1.00607-5.107934 1.47676-5.221443 1.59037-4.653895 5.22549l4.475782 6.86882-10.536397-5.30675c-20.658751-10.33741-36.696215-24.817289-36.635308-31.685806-.859473-2.673704-2.5458161-10.288764-1.524229-10.288764.567548 0 15.040176 9.879012 25.782988 16.126895z"/><path d="m267.50704 74.300569c-.34052 1.249577-1.02158 3.407936-1.36211 4.771111-1.02159 3.74873-3.51451 10.844441-11.12394 15.903701-3.97285 3.521534-13.73467 8.519839-24.85862 12.722949-9.76183 3.74873-14.91467 6.12228-9.14168.26783 2.27019-3.52153 3.69323-4.47094 1.19601-6.40211-1.36212-1.13597-5.64317-1.594362-7.1188-2.048753-6.61217-.389436-1.16341-2.766994 8.02687-5.903091 3.74583-1.363174 9.87534-3.975925 13.62116-5.679892 3.74582-1.817566 23.38298-10.678199 25.53967-12.495766 4.6539-3.975925 6.01601-4.20312 5.22144-1.135979z"/><path d="m136.59896 80.977467c-1.99863.227194-6.14898.045542-9.15699 2.374299-2.93094 1.663333-4.31731 3.43007-5.36719 6.16442-2.95125 6.020686-2.23667 13.751834-2.35018 26.247594 0 7.49747-.70235 14.65413-1.3834 15.9037-.68105 1.24958-3.384 8.63343-5.99473 16.47169-4.19986 12.60937-4.7603 15.3286-4.6468 23.96205.34053 21.2428 9.76184 38.28958 31.21515 56.12444l6.45586 5.32491.10642-3.72743c.34052-7.49747 1.92965 6.82297 2.83774 24.88504.45404 9.54222 1.14219 17.59347 1.59623 17.82066s1.70264-.12071 2.83773-1.02949c1.70266-1.24957 1.92256-3.17363 1.80907-14.30623 0-7.04306.23411-12.62356.46112-12.28277.34054.34081 1.36923 5.36042 2.16379 11.0403.90808 5.7935 1.92967 10.79889 2.27019 11.2533.45404.34078 2.1354-.70999 3.72454-2.41396 3.06475-2.95355 3.31674-2.3674 2.06812-11.68243-.56753-5.2255-1.25938-10.24196-1.14586-10.46916.22702-.1136 1.1422 2.27905 2.16377 5.57339 1.1351 3.18074 2.25574 8.04468 3.27732 9.52146 1.70265 2.61276 10.67018 6.94315 11.69177 5.92075.22702-.22719-1.35502-5.66569-3.5117-12.14076-2.15669-6.47508-3.97284-12.38928-3.97284-12.95726.11351-1.47678 4.7674 5.91418 8.51322 13.52524 5.10793 9.99662 8.51322 13.16315 14.75625 13.84474l5.46265.70999-3.54717-5.0054c-2.04317-2.72636-5.78192-8.17904-8.61964-11.92779-2.72423-3.86232-6.35655-9.2014-7.94567-11.92777-1.70264-2.72635-3.83805-6.25499-4.85963-7.84535-1.02159-1.59037-1.3905-2.38556-.70944-1.70398 2.15668 2.04478 11.13813 13.51816 15.11097 19.31165 2.04317 3.06714 6.00182 8.64763 8.72605 12.28277 2.72424 3.52153 4.66809 7.02887 4.32756 7.59686-.34054.68158 2.26309 4.19601 5.7819 8.05834 5.67548 5.7935 7.04468 6.70938 9.5419 6.14139 3.17827-.79518 6.34629-3.38888 6.34629-4.86566 0-1.02238-8.73711-10.01566-17.0233-18.98989-6.24302-6.92948-6.67578-8.73992-.88679-4.08242 2.2702 1.93116 7.25043 5.91418 10.99625 8.98133 10.44288 8.40624 12.13133 9.30081 16.67172 9.30081 3.06477 0 4.55458-.68869 5.46266-2.16545 1.70265-3.29434-1.81616-6.69517-16.4589-15.4422-11.12395-6.81588-16.91294-10.79892-13.62115-9.54933 3.51879 1.36318 23.62419 12.15496 28.73212 15.3357 5.78899 3.74874 6.11533 3.86943 9.2936 2.16547 2.15668-1.13598 3.40529-2.60564 3.40529-4.08242 0-3.06714-5.7961-8.41334-10.677-10.11731-4.42687-1.47677-25.51839-10.91251-26.42647-11.82128-1.92965-1.93116 3.49043-.00001 19.15476 6.81588 9.53481 4.08951 18.73617 8.08674 20.32531 8.76833 2.49721.90878 3.64651.76678 6.03021-.70999 8.2579-6.71458 2.49011-7.47614-30.54119-18.49515-21.45332-7.15668-38.94799-15.69072-42.35328-20.8026-1.36211-2.15837-4.63261-10.56463-7.12983-18.74367-4.88091-15.67649-12.84078-35.20823-17.94871-43.84166l-2.94416-5.11191-.3547 3.40794c-1.58514 8.5928-1.26983 10.39924-6.94529 5.06015l-4.72493-3.2497-2.27019 5.11192c-1.36211 2.72634-3.79352 5.16364-4.24756 5.16364-2.04317 0-4.77629-3.44238-6.02492-5.82793l-3.59698-3.31164-2.3766 3.08845c-4.65391 6.13428-5.13934 5.60784-9.22567 1.17751l-3.25021-4.76711-2.95435 4.01559c-1.13509 1.47677-2.38369 2.29327-2.83773 1.95246-.34053-.45439.90098-2.61986 2.94416-5.00541l3.65358-4.08242 1.34793 3.15944c.79457 1.70397 2.90265 4.93955 4.03775 5.84832 1.81614 1.47678 1.64484.31436 4.93661-3.43437l3.51171-4.11792 4.43396 3.97593 5.24077 6.19122 2.57321-4.01556c1.47563-1.36318 2.16777-4.19912 2.50831-5.33511.68105-1.81757 1.00739-1.35706 4.7532 1.25571 2.2702 1.47677 4.92253 3.36639 5.26304 3.36639.45404 0 1.34083-2.48904 2.02189-5.21538 1.24862-4.54392.66784-5.8889-2.85095-11.22798-6.24303-9.65583-8.37135-15.36412-8.37134-23.42957l-.53207-4.79241-9.4404 3.04576-.5098-6.38988c.30757-5.43808 2.56511-20.861356 2.90566-22.338131 1.61758-2.868423-2.66364-2.692889-3.7136-2.465692z"/></g><path d="m131.98651 83.803816c.22842 1.461278.47146 5.607747-.88679 7.490359-.18764 1.296616-1.61387 1.259356-3.22794 2.804445-.20241 1.151997-4.93451 2.302175-2.89133-1.10576.56756-.795191.47834-1.890534.25133-3.594501-.22703-2.271956 2.72043-5.495447 6.75473-5.594543z"/><path d="m131.4899 86.601159c0 1.703968-2.04317 3.521533-2.95125 2.61275-.79456-.795184.79457-4.20312 1.92967-4.20312.56754 0 1.02158.681587 1.02158 1.59037z" fill="#fff"/><path d="m158.12436 82.207782c3.56341 4.564233 3.42959 5.838129.70535 5.497336-.42142-2.353229-12.23872.519044-14.59412 5.679893-1.11587 1.710125-2.39945 3.924612-3.48874 6.236671-.64555 1.742498-.5064 6.232138-.65637 8.109578l-1.3661 2.9514-.07906-9.2322c.73381-3.270018 2.50951-16.973404 3.03853-18.993693-.49872-2.811473 1.78777-3.275794 3.93847-4.356976 7.21231-1.807406 10.87445 1.357321 12.50204 4.107991zm-6.28364 17.968778c-1.92965 2.15836-3.69104 7.29889-4.48561 7.29889-.79456.79117-6.75185 3.25771-8.43234 2.83994 1.76356-9.07611 12.80445-14.431227 15.18814-14.431227.68107 0-.34052 2.134039-2.27019 4.292397z" fill="#ff0"/><g fill="#fff"><path d="m16.460345 102.33492c3.518799 3.18073 14.03859 8.20336 29.929939 13.54246 14.03059 5.40406 18.704024 5.25153 16.88787 6.50111-3.179976 1.93799-8.844046 5.89131-8.844046 6.91369 0 .45439 2.727592 3.77911 4.316726 5.36948l7.518945 4.1731-13.133824-3.28463c-15.550819-4.31672-30.04375-11.98872-34.823155-19.23869-4.690499-3.65543-7.678051-15.88336-6.088915-15.88336.340529 0 3.328384.99805 4.23646 1.90684z"/><path d="m264.55578 105.42638c0 2.83994-7.2646 12.49577-12.25903 16.24449-5.90249 4.43032-17.70751 8.17905-30.19356 9.42863-4.99442.45438-9.57942 1.42813-11.43218.72623-4.33796-1.96781 4.07805-1.65103 7.90108-4.61688 2.04317-1.59037 4.09865-2.81163 1.82845-5.08359-1.36212-1.36318-3.80672-3.4729-3.80672-4.04087 0-.4544 4.14726-.84384 7.43903-1.52542 12.25904-2.61275 29.85304-7.83825 34.27992-10.2238 5.44845-2.83995 8.77283-4.85238 6.24301-.90879z"/><path d="m255.36151 135.87061c-6.83089 12.11863-15.66432 14.19973-29.62601 15.5629-5.22144.56799-8.39971 1.02238-7.15112 1.13598 1.24862.22719 3.06478.45439 3.97285.68158.90808.22721 3.5188.90879 5.67549 1.47678 7.37812 1.81756 20.43172 9.99661 20.43172 12.60936 0 1.24959-8.17269 3.52154-12.82659 3.52154-5.90249 0-15.43731-2.15836-20.31822-4.65751-2.3837-1.24958-4.31337-1.93117-4.31337-1.70398 0 .9088 9.87534 6.02069 12.94011 6.81587 5.44846 1.36318 10.78341 5.6799 13.73466 11.019 1.58914 2.95355 2.83774 5.5663 2.83774 6.02069 0 .34079-2.83774.68158-6.35654.68158-7.37813 0-14.75625-3.18074-24.29106-10.3374-3.4053-2.61276-5.22144-3.63513-3.97283-2.27195 1.2486 1.47677 4.65389 4.31671 7.60514 6.47508 2.95125 2.15835 6.35654 5.67988 7.71866 7.83824 2.4972 4.08953 4.88091 15.33572 3.51879 16.6989-1.13509 1.24956-11.69149-3.97594-14.41572-7.15668-1.36212-1.47677-4.54039-5.90708-7.1511-9.88301-2.72424-3.97592-5.10795-7.04306-5.33496-6.70227-.34053.22719 2.04317 4.8847 5.33496 10.2238 4.99442 8.51985 5.9025 10.9054 6.47004 17.38047l.56755 7.49747-3.5188-1.81756c-6.47004-3.40795-13.84817-14.54053-16.68591-25.10513-.45404-1.93117-1.02159-2.83996-1.24861-2.27196-.22702.68159 1.02158 5.79348 2.95125 11.35978 3.97284 11.70058 4.42688 15.33572 1.58914 12.95017-2.61073-2.15837-5.789-8.86065-8.51324-18.17568-5.23773-13.56678-4.99042-16.19583-3.53909-20.22041-.28793-4.79143-3.45021-13.29157 2.97955-5.05527 1.38641 1.54174 6.23503 3.80569 8.2782 3.80569 3.17828 0 3.74582-.45439 4.31337-3.74873.45404-2.04475-1.35412-5.90309-2.03518-7.60706-1.85675-3.47088-3.30852-6.39042-2.26875-5.84531 5.28207 2.76918 11.28062 3.27321 13.09678 2.59162 2.72422-1.02238 4.37427-1.74861 3.69322-5.04295-.61217-5.5706-8.37573-11.12058-4.6013-9.81005 5.98741.71823 10.94153-.2352 10.14697-4.09754l-1.26892-4.24374 14.1118.31647c8.85375 0 15.2955-2.10572 20.17642-3.58249 3.74582-1.24958 7.56054-1.79724 8.69563-1.79724 1.92967-.11361.86747 1.17661-1.40272 4.47095z"/><path d="m45.482207 140.86891c2.837741.22719 8.286203.68159 12.14553 1.13598l10.139371-.24069-4.784116 5.71371c-2.95125 5.79349-3.863151 5.09558 6.213789 8.23433 2.83774.79519-1.588197.33015-8.390773.60598-7.151108 1.13598-16.458898.11359-23.950534-2.61274-6.01601-2.27197-14.302213-8.63346-16.458896-12.60938-1.362115-2.49915-1.929664-2.49915 25.085629-.22719z"/><path d="m71.67463 163.7304c-1.983799 4.82364-1.020117 8.28293 4.119415 8.63057-1.465386 2.04988-21.117558 6.67682-26.906549 6.10883-5.898501.65328-16.681917-5.51765-16.681917-7.10802 0-1.36317 13.276628-6.51971 20.654753-8.11008 3.745819-.79519 9.4213-1.25359 12.48606-1.93518 3.17827-.79518 6.105218-1.88251 7.597145-2.24363 3.231175-1.31053-.587849 2.15836-1.268907 4.65751z"/><path d="m83.621443 174.94828c-1.702645 4.43031-1.035239 9.55246-.454038 12.15496 1.475624 1.93116 1.816153 1.93116 8.172693-.34079 3.745818-1.24958 6.924087-2.27195 7.151107-2.27195.113509 0 .340528 1.24957.340528 2.83994s.794568 4.20312 1.816157 5.67989l1.81614 2.83996 2.83775-2.27197 2.95125-2.27195 2.61072 5.79348c1.47563 3.18074 2.72423 7.04307 2.72423 8.51985 0 3.97592-2.61071 9.42861-6.69706 14.08613-2.83775 3.29433-3.63232 3.74873-4.6539 2.27196-2.04317-3.06714-2.610719-9.54222-1.58913-17.38047 1.2486-8.97424.22701-11.13259-1.702646-3.40794-.794568 2.83995-2.043174 6.58868-2.951252 8.17905-2.562117 7.18528-9.421298 11.24618-13.280626 13.29094-2.610721 1.36318-3.06476 1.36318-3.632309-.22719-1.135095-2.83995 2.497213-16.24449 6.12952-23.06037 1.929665-3.40793 3.17827-6.36148 2.951251-6.58867-.227019-.2272-2.497212 2.49915-5.221443 6.02068-4.880915 6.47508-11.577982 10.56461-20.091205 12.15498l-3.632309.68158 2.270194-5.3391c1.362115-3.18074 5.561971-8.63343 10.442886-13.63173 4.426876-4.43033 7.718655-8.17905 7.264616-8.17905-.454038 0-3.972838 2.27195-7.945674 5.1119-8.172694 6.02068-16.231877 8.74703-22.474906 7.83826-2.497214-.45441-4.426877-1.13599-4.426877-1.59037 0-2.38556 12.59957-12.60938 21.226301-17.26689 10.556396-5.56629 19.523657-7.38386 18.048032-3.63512z"/><path d="m136.97096 229.02085c3.97285 3.29434 7.15112 6.47508 6.81059 7.15666.891 2.58545-7.38496 12.59571-16.35221 25.20507-15.89135 22.49237-16.6791 22.83318-17.70068 19.53883-1.36212-4.65751 2.83774-13.95887 11.91851-24.75066 3.74581-4.54392 6.69707-8.40625 6.47005-8.63344-.22702-.2272-5.56198 4.65751-12.03203 10.90539-6.35653 6.13429-11.805 11.24619-12.14552 11.24619-.22703 0-.90808-1.70397-1.47564-3.74872-1.58913-5.56631-1.55499-8.51985 13.39415-18.40286 6.35654-4.77111 11.23744-9.08783 10.89692-9.42862-.34053-.34081-1.58913.22719-2.61073 1.13597-1.13509.90878-6.35653 4.65751-11.69148 8.40624-8.39972 5.7935-11.2238 8.04496-14.983271 6.70229-10.442887 0-8.626733-2.61276 7.718651-11.35979 6.47005-3.52154 12.03202-6.81589 12.48606-7.49747.45404-.90879.11351-.90879-1.36211-.22719-18.048035 9.08783-25.993708 11.24619-30.534094 7.95185-1.816153-1.47677.340529-2.49916 20.545234-10.6782 12.37255-4.99831 22.70194-9.20143 22.92896-9.31503.1135 0 3.63229 2.49916 7.71864 5.79349z"/></g><path d="m66.254469 234.24636c1.816155 0 4.629592-.08528 5.991709 1.2779 2.156682 2.04476 1.953965 3.9476.818869 6.90114-2.95125 7.95186 6.356539 21.3564 11.691492 16.92609.908077-.68159 5.477067-2.53178 6.271635-3.32697 2.58242.26383 8.091488.91709 8.091488 2.28026 0 1.36318-2.294494 2.22733-2.862043 3.02252-.454039.56798-3.555405 1.54573-4.804012 2.2273-1.248606.6816-2.270193 1.70398-2.270193 2.27197-.113509.56798-.454038 2.27195-.794567 3.86232-1.135096 4.08953 1.702645 11.70058 4.880915 13.29095 4.086347 2.15836 4.880914 6.81587 1.589134 9.88301-5.334952 4.88471-8.286202 6.0207-11.918511 4.43033-1.451322-.77087-.883774-2.17467 1.702644-1.36318 2.497213-.56799 3.29178-1.36318 3.064761-2.95355-.11351-1.24957-.340528-4.08951-.340528-6.24788 0-2.15836-.794568-5.67989-1.702646-7.72465-.908077-2.04476-1.362115-4.20312-1.021587-4.77111.340529-.568-1.135095-1.93116-3.291779-3.06715-3.29178-1.47677-4.767404-1.59037-8.286203-.56798-2.383702.68158-6.697068 1.81757-9.648319 2.61275-2.95125.68159-5.334952 1.59037-5.221442 2.04476.227019 2.15836-.567549 3.29434-2.951251 4.43031-2.270193 1.02238-3.291779.79519-5.675482-1.02238-1.589134-1.24957-2.95125-1.93117-2.95125-1.59037 0 .45439-.681058.2272-1.589135-.45439-1.362116-1.13598-2.156684-.90878-3.972837.90878-1.414719 2.52349-2.955251 4.49128-2.047174 2.10573-.652755-3.28233 2.274193-4.71848 5.111934-6.64963 3.567403-5.68821 6.449746-4.90103 15.43731-4.54392 6.924087-.79518 11.237454-1.93117 13.394137-3.40794 3.972837-2.83995 4.086346-3.52153.227019-2.15835-4.313367 1.70396-6.810578 1.36317-12.713079-1.24959-2.837741-1.36317-7.714655-1.97979-9.871337-2.0934-2.383703-.11361-3.636309-1.76892-4.771406-3.35929-1.362115-2.04477-2.383702-2.38556-4.767404-1.81756-3.632308.90877-1.929663-1.02239 2.043173-2.27197 2.043174-.68158 2.809438.36912 4.013441-1.24158 2.525513-3.85832 5.493067-1.14397 9.267186 3.62714 4.880914 4.77111 14.302214 8.63344 16.345387 6.58868 1.362116-1.36317-3.405289-11.13259-7.491636-15.56292-1.816154-1.93115-2.724231-3.86232-2.270192-4.9983 1.248606-3.29433-.34053-6.02069-3.632309-6.02069-2.270192 0-2.610721-.34079-1.475625-1.02237.908077-.568 2.497213-.6816 3.405289-.1136 1.021587.45438 3.29178.90878 4.994424.90878z" fill="#ff0"/><path d="m173.06702 263.44101c1.70266 1.13598 3.17828 3.74872 4.08635 7.15667.68107 2.95353 1.81616 6.24788 2.38372 7.27026.56754 1.13598 1.02158 2.61275 1.02158 3.40793.1135.79519 1.70264 2.49916 3.74581 3.74873 3.17827 2.04477 4.31336 2.15837 8.51323 1.13599 2.72424-.56799 5.22144-1.70398 5.67547-2.38556.45404-.68159 1.92968-1.59037 3.17828-2.04476 1.92966-.56799 3.06476 0 4.88092 2.27196 1.36211 1.70397 2.38369 2.61274 2.38369 2.15836 0-.45439.79457-.2272 1.70265.56798.90808.79519 1.70265 2.27196 1.70265 3.29433-.11351 1.59037-.22703 1.59037-1.24861-.11359-.90808-1.59037-2.56182-1.5094-4.11866.36911-2.77312 3.44457-5.45675 3.19306-6.81887 1.4891-.90808-1.02239-2.22959-2.3126-6.65646-1.97181-3.63232.3408-6.9241 0-7.83217-.79518-1.1351-.90878-1.47563-.568-1.2486 1.70397 0 1.59037.45404 2.83995.79456 2.83995.45404 0 1.13509 1.36317 1.47563 2.95354 1.13509 4.43031 4.19985 8.51985 7.1511 9.65581 1.47563.568 2.49722 1.47678 2.15668 2.04478-.45402.56797-.1135 1.24956.68106 1.47677 1.58913.56798 2.27019 4.31671.79457 4.31671-.56755 0-1.02159 2.04476-1.02159 4.54392 0 2.49915-.56754 4.54391-1.24861 4.54391-.56753 0-.90807-.4544-.56753-1.02238.90808-1.36318-2.04318-8.29264-3.06477-7.38386-1.1351 1.24957-4.19986-1.81757-4.19986-4.20312 0-1.24958-.45403-2.15836-1.13509-2.15836-.56755 0-1.1351-1.02238-1.1351-2.15837 0-1.24956-.45404-2.61274-1.13509-2.95354-.56756-.34079-1.1351-1.47677-1.1351-2.38556 0-.90877-1.24861-3.63512-2.83775-5.90708-1.58913-2.27196-2.83774-3.74873-2.83774-3.29435 0 .4544.11352.9088.34054 1.13599.1135.22719-1.58914 2.04476-3.85933 3.97593-2.49721 2.27195-5.22144 6.24787-6.69708 10.2238-3.17825 7.83826-3.63229 8.51984-7.15109 8.63344-5.10794.34079-8.96726 6.24788-4.99443 7.83825 1.02158.45439 1.02158.68159-.11351.68159-2.15669.11359-3.85932-5.4527-2.72423-8.86063.56754-1.59037.90808-4.08953.79456-5.45269-.1135-2.04478.68106-2.61277 4.76741-3.63515 2.72423-.68158 4.88092-1.70396 4.88092-2.27195 0-.56798 1.47562-2.49916 3.17826-4.43031 3.17827-3.29435 5.9025-8.29265 5.9025-10.6782 0-.568-.90808-.1136-1.92966 1.24956-1.92966 2.27197-2.3837 2.27197-8.51321.79519-3.74583-.79519-4.84432-1.33884-6.58356-.45438-2.2136 1.67564-6.67278 1.55804-6.58357-2.27196-.45404-2.95355-1.58913-3.18074-3.6323-.79518-2.72424 3.29433-2.38371.79518.45403-3.74874 4.19985-6.70227 6.41745-6.49939 11.07134-1.27389 4.99443 5.67989 10.38198 7.18098 15.14939 4.00024 3.29178-2.15835 3.51879-4.88471 1.02158-12.72297-.90808-3.06714-2.15668-6.92946-2.72423-8.74703-1.1351-3.52152-.11351-3.86232 3.85932-1.36317z" fill="#ff0"/><path d="m148.86518 136.54819-2.24589 3.75272-2.95125-1.93115c-1.58913-1.02237-4.39858-4.00855-4.85262-3.55416-1.1351 1.02239 4.87692 5.90308 7.69036 7.64368 2.27018 0 3.61601-5.29446 4.31337-8.97423-.22703-1.81757-.47835-.57199-1.95397 3.06314zm-25.35725 1.15628c-2.35941 4.10584-2.42831 1.57407-3.90394-.35708-1.81615-2.61277-2.04317-.22722-.22702 3.06713l1.24861 2.27195 5.55515-5.66621 1.34463 3.41858c2.15669 4.08953 2.22129 4.74279 9.21859-.59231 3.06476-4.08951 3.5188-5.3391 2.04317-5.3391-.56755 0-1.70264 1.24959-2.49721 2.72635-.79457 1.59037-2.2702 3.18074-3.17827 3.52154-1.92967.68158-3.84702 2.51976-5.9025-4.65752 0-2.72635-1.54452-1.23326-3.70121 1.60667z"/><path d="m155.01899 163.47489c-.45404 1.24957-1.47561 3.97592-2.38369 6.02068-1.81615 4.31672-3.5188 3.97593-8.74025-2.04476l-3.29178-3.63512-2.08779 3.81368c-4.08633 6.58867-3.7295 7.65169-9.40498 2.08539l-6.21472-6.69426-3.06477 4.5439c-3.06476 4.20314-3.13366 5.69621-5.06332 3.87865-1.24862-1.13599-2.3148-3.99224-2.42831-5.01462 0-1.02237-.34053-1.24958-.56755-.56799-.68106 1.59037 2.72423 9.54222 3.97283 9.54222.56756 0 2.61073-2.38555 4.54039-5.22549 3.40529-5.33911 3.40529-5.33911 4.54039-2.38556 2.4649 2.85626 3.74182 3.7284 6.01202 5.43237l3.29577 3.65545s5.15653-6.76723 5.49706-7.90321c.68106-1.93116 1.88106-1.07102 5.39987 2.45052 6.016 5.90709 6.68876 3.77705 9.4293-2.59243.34052-1.47677 1.04188-2.88459 2.14867-3.9476.11351-1.10766 2.3351 1.5214 4.37828 3.33896 5.21745 4.36137 6.74967 4.72248 7.20371.29217.22701-1.70397.67706-4.13418-.004-5.27014-1.02159-1.70398-1.1351-1.24959-1.24862 2.15836 0 2.38555-.34052 4.31671-.90808 4.31671-1.36211 0-6.24301-3.63514-8.3997-6.24788-1.81616-2.27197-1.92966-2.27197-2.61073 0z"/><path d="m167.73208 177.67461c-.34054.90879-1.1351 3.18074-1.70266 5.11192-1.94996 6.46706-3.7255 5.83412-8.49291.72221-3.97283-4.20311-4.44717-5.15253-2.63101-1.74459 2.4972 5.1119 7.40641 9.52189 9.22257 7.93152 1.81615-1.47677 5.53367-10.20348 4.73911-12.24825-.45404-1.13597-.68106-1.13597-1.1351.22719z"/><path d="m147.64087 182.44572c0 1.47678-1.02158 3.86234-2.27019 5.45271l-2.15668 2.83994-5.10794-5.1119c-6.24302-6.02068-6.56325-4.24777-.43373 2.11371 5.789 6.02069 5.17254 8.24 8.81715 2.45453 2.04317-5.22551 3.87563-10.24813 2.39999-10.24813-.68105 0-1.2486 1.13597-1.2486 2.49914z"/><path d="m115.51764 183.35452c.34054 1.36317 2.83775 4.77111 5.44846 7.72466l4.88092 5.33909 1.81616-4.43032c2.27019-5.56629 4.43918-11.7332 2.05548-7.53009-.90808 1.81757-3.85132 7.76961-4.6459 7.76961-1.81615 0-8.07949-7.96418-8.07949-9.78175 0-.79518-.45404-1.36317-1.02159-1.36317-.56754 0-.79457 1.02239-.45404 2.27197z"/></g></g></svg>