<svg height="300" width="471.42999" xmlns="http://www.w3.org/2000/svg"><g transform="matrix(1.714291 0 0 1.714292 -.000001 -.001087)"><path d="m.000002 87.500328h275v87.499664h-275z" fill="#009645"/><path d="m.000002.00066h275v87.499664h-275z" fill="#fff"/></g><g transform="matrix(.112394 0 0 .112394 187.9951 15.55807)"><path d="m637.86347-2.1868417c-208.35942 1.49371134-416.72557.5902024-625.087615 1.24371198-4.8416465-1.49287578-10.1758921 3.67385142-8.8285953 8.55160002.2553005 251.7789897-3.47344357 503.6491097 5.0799165 755.3388797 2.2289588 25.74109 11.8364908 50.54834 26.2730228 71.8914 20.224536 31.30697 47.263599 57.76218 77.010021 80.03375 39.03151 28.71438 83.37269 49.03069 127.88771 67.66397 54.71426 22.98523 110.74769 43.41773 162.69724 72.39703 14.38842 7.5583 15.61362 7.9463 26.91932 1.1106 31.96017-18.2265 65.97411-32.5052 100.31961-45.5654 57.79099-22.3884 116.93887-42.33393 171.10649-72.88673 36.62016-20.64246 70.72255-46.94738 96.12159-80.709 19.18334-25.44052 33.4104-54.88227 39.66234-86.20036 7.09881-56.48753 9.80255-569.292 8.39736-768.7748822-1.87344-3.8457299-6.68829-5.9484474-10.78873-4.7171176-65.58577 1.1667508-131.18671-.8403013-196.76968.6225481z" fill="#ff0" stroke="#000" stroke-width="3.612273"/><path d="m245.30061 74.539156c-.78047 3.110195-.50516 7.624424-2.02353 14.94528-2.30871 2.263909-5.93278.016534-6.96638-2.493746-3.74857-6.161637-4.96597-7.229518-10.62892-11.499046-11.02107-6.406486-12.91898-2.807227-9.54729 9.36624 1.07968 2.62864 4.2585 5.433934 2.92455 8.399971-2.12725 2.642706-5.5196.930095-7.98503-.164059-4.4723-1.952149-9.57062-3.170673-14.73216-3.318349-7.98216-.584691-10.17667.400929-3.99515 11.871973-2.36949 2.38854-9.20899 1.93766-12.65428 2.60259-4.11329 1.90269-8.12823 4.35737-10.87676 8.03904-1.19823 2.88466 2.29931 5.36925 4.92905 5.21718 2.57668-.14135 7.5234-.32252 7.26212 3.37967-1.04478 3.14975-4.86567 3.07543-7.39357 4.33125-3.98771 1.51571-8.03086 3.93905-9.92381 7.90777-.65802 3.2226 3.09935 5.07786 5.84914 4.72499 3.92655-.33518 8.42858-.17399 11.56683 2.52656 2.4447 2.47942 2.06552 6.31032 2.16877 9.51557.03546 4.08615.92148 8.09302 1.41301 12.14061 1.70483 11.26029 3.68936 22.7329 2.00446 34.12489-.84443 8.97377-2.18346 18.10938-.55863 27.07023 1.78066 5.59288 7.76182 9.70631 13.66989 8.82653 2.72132-.02642 6.33589.65341 7.22927 3.64217.63831 3.22427-3.60646 5.93719-6.37491 4.26563-3.0291-.59322-5.361 4.25713-2.56309 5.97185 6.84899 4.69157 14.88501 7.2181 21.88496 11.6484-.35369 3.08621-3.72949 4.3117-6.37491 4.82341-3.23801.70453-6.61343 1.37317-9.4309 3.21563-.36231 3.20642 3.04729 5.15774 5.81627 5.54529 5.88979 1.51881 11.28761 4.56089 15.9701 8.39998.4893 3.13803-3.30433 5.70671-6.11201 4.46248-3.274-.50394-4.73423 5.01537-1.64302 6.20154 7.38385 4.82585 16.4626 5.12391 24.94097 6.20154 2.89794.10951 6.36781.38455 8.11649 3.05156 1.0499 2.92525-1.73867 5.5339-4.33757 6.29999-3.15681.94661-5.96738 2.69321-8.74083 4.42966-1.21829 3.34565 3.16323 5.23598 5.88198 4.59374 6.419.02597 12.71608 1.87099 18.63179 4.2328 2.57697 1.10958 1.89357 4.97283-.16429 6.29998-1.4792.90548-3.91814.41031-4.40328 2.62499-.9091 2.16674.81024 4.73172 3.2203 4.46249 3.07483.50597 6.22361.39693 9.26661 1.11561 2.51093 2.05236-1.42439 6.80347 2.66168 7.80936 4.45392 1.93275 9.31946 2.54839 13.8999 4.10155 10.85575 2.76244 22.93685 2.89969 33.05745-2.42813 5.99862-2.87504 11.5134-6.65921 17.28453-9.94215 2.85334 1.23388 4.33843-4.29874 1.41298-4.82342-2.98905.87195-6.27109-3.15457-4.17325-5.74218 9.94497-10.43678 16.15066-23.63172 23.33081-35.96238 3.97214-6.69883 7.52387-13.65256 11.6654-20.24524.68294-2.27993 4.64709-2.61955 3.7132.42657-1.03106 2.6777-3.18159 4.76858-4.33754 7.4156-6.78515 12.17606-11.96059 25.17138-19.05899 37.17643-1.62596 2.5359-3.94765 4.64106-5.35622 7.28436-.41893 3.48512 4.02921 5.08036 6.67064 3.47811 5.82896-1.55617 11.22034-4.31553 16.59446-6.98905 1.40725-3.20436 6.9803.51846 4.27183 2.95313-5.37657 6.08427-12.32085 10.63441-19.78188 13.7812-10.68955 4.18525-20.67563 10.20595-29.24568 17.84995-16.58422 13.8268-30.80086 30.71386-49.78333 41.47487-4.66764 2.58171-9.19571 5.61806-14.19565 7.51403-5.71827 1.21644-11.56375.31116-17.35025.72189-6.05431.15359-12.10165.51281-18.13888.98437-3.1613-1.05643-6.50673-2.31612-9.89092-1.64063-5.82447-.15493-11.78827.11766-17.44882-1.50936-6.95036-4.47561-10.60254-12.96431-18.50035-16.1437-5.46277-2.20908-11.70789-3.01709-17.3831-1.11562-2.75662 1.4934-1.52725 6.69873 1.74158 6.36561 4.04177.1845 6.88604 3.6048 8.77372 6.82497 1.53282 2.01717 4.1359 4.12227 2.37514 6.52047-2.56562 2.83409-8.70993 1.27456-11.96545 2.4094-5.53695 1.48976-7.04277 2.92854-12.02287 5.67686-2.7583 2.18885-2.01528 9.52575 1.1412 7.93537 5.4602-1.1848 11.47882-1.05244 16.46303 1.70625 3.20659 1.19236 2.75807 5.3394.3286 7.08748-2.06063 1.56549-4.50643 2.59911-6.53921 4.2328-3.87307 2.76177-7.18578 6.4181-8.97086 10.86092-1.62223 2.92344 2.36069 6.75692 5.19193 4.7906 3.29837-1.36482 6.66534-3.76788 10.41671-2.88751 3.1634 1.5509 2.12528 6.11551-.19717 7.97344-3.19339 3.45225-6.94585 6.87242-8.01791 11.64838.29251 3.51838 5.18842 3.64615 7.22928 1.5422 4.05667-2.61553 8.98155-4.85466 13.8999-3.80624 3.01317 1.24019 2.9515 5.04822 2.00447 7.64527-2.28869 7.65632-1.80032 16.19129 1.5773 23.46087.40996 2.88665 3.97433 3.74103 5.35623.98438 1.29495-1.94754.42693-4.38372 1.08439-6.52967 1.03575-5.017 4.47335-9.74211 9.29945-11.68122 4.97746-.97763 9.29455 3.28215 14.29424 2.26408 6.08124-.39175 12.10112-1.69769 18.20459-1.8047 2.95421-.68274 6.33745-2.49703 9.13517-.36093 6.47589 3.54631 13.48187 6.13285 20.66912 7.80935 5.46692 1.14658 11.19081 1.77258 16.7259.7875 5.22575-1.32112 9.48581-6.10487 9.72663-11.54997.9506-2.75423 4.00639-4.61978 6.90067-4.13435 2.74713-.23806 6.30488-.48401 7.95218 2.23123 1.61183 3.44501-.4307 7.11766-2.2345 10.04059-.77157 3.7068 5.17643 4.22785 6.17774 1.08283 2.60352-1.56392 5.85087-1.83789 8.01791-4.13438 3.51929-1.70771 5.11625 2.57805 7.42643 3.83906 2.86198-.0122 4.11352-3.04627 6.14488-4.56093 18.17725-14.87386 35.48846-30.78092 52.90507-46.52798 4.88699-4.43084 9.72238-8.90861 14.85285-13.05933 1.40079-1.59752 4.06265-3.29863 5.45481-.62345 1.2189 2.59405-1.47621 4.47583-2.46454 6.6281-4.10558 6.38665-10.11309 11.2557-16.46299 15.2906-7.93518 5.23257-16.04395 10.7395-21.49063 18.70305-3.46973 4.84691-5.91568 11.10377-4.14039 17.06246 1.99737 7.3454 7.20037 13.16089 10.4167 19.94994 5.18669 10.13357 9.09866 20.92639 11.73113 31.99208-.88289 2.51002.98511 6.0854 3.91037 4.39686 1.50107-2.60465 4.91133-1.97635 5.4548.98438.45281 2.68673 1.16766 5.28827 2.76027 7.54684 3.20664 5.28328 7.64618 10.19145 8.51082 16.53744 1.06399 2.96041 5.76657 1.59494 5.88199-1.31248.35518-2.66119.99077-5.2717 1.47871-7.90778.46126-2.98124.68182-5.99443 1.01867-8.99061 1.47042-2.99057 6.71113-.91498 5.84913 2.26406.12154 3.80608-.18732 7.67493.69006 11.41871.77363 4.89897 2.20169 9.70263 4.50187 14.10933-.98124 2.97389 5.03499 4.64511 5.12621 1.24688-.34645-3.0024 4.31487-5.53885 6.07916-2.55937 1.83372 2.47478 2.25733 5.60404 3.28603 8.43279-.51813 2.22172 1.38532 5.23616 3.84463 4.79061 2.01062-.97725 1.82912-3.60589 2.89172-5.31561.75162-2.18216 3.58132-2.98669 5.32337-1.44375 2.66724 2.11847 3.01073 5.77383 4.53471 8.62967 2.59768 5.91528 6.45836 11.31355 11.50112 15.38899 5.58802 5.46695 10.12955 12.29158 17.15306 16.07809 3.02008 1.20486 6.02975 2.49178 9.2666 2.98593 3.15861-.61717 4.34401-4.04313 4.99476-6.79216 3.3743-7.85411 8.4437-15.21368 9.46377-23.88742 1.80533-10.14607 1.02884-20.51771.09858-30.71242-2.23183-2.36438 1.37028-7.70083 3.74608-4.13437 1.6819 2.54267 1.61342 5.74492 2.46451 8.59686 3.24317 15.34787.48363 31.5265-6.07916 45.64204-5.05017 11.46655-11.2995 22.616-13.66987 35.04364-1.04408 7.23092.77936 14.42871 1.54443 21.59057 1.13472 7.62128 4.78475 14.93638 10.64674 20.01555 6.90045 6.27791 14.81456 12.17004 18.63178 20.96713 2.50702 6.97602 6.01256 13.83679 11.73113 18.73588 4.89424 4.77503 9.39397 10.20256 11.8297 16.66869 1.31282 2.72533 2.86108 5.36896 4.83048 7.6781 3.17105 1.62815 4.35545-2.90646 3.2203-4.92185 1.96944-2.87956 5.17986.77673 5.48767 3.01873 1.32008 2.17904 3.62393 5.68397 6.60492 4.33125 2.3826-1.5191 2.11827-4.80365 1.44585-7.18592-.45758-2.62764 2.1824-6.10266 4.99475-4.72499 3.22399 1.90665 3.57591 6.01149 5.5534 8.89216 1.98436 3.60738 4.4501 6.9667 7.26212 9.97497 3.58175 1.36346 4.71577 5.34041 6.14488 8.49841 2.06342 3.28535 3.99179 6.92806 3.81179 10.92654.54381 9.50434-3.4383 19.63002-11.5011 25.06867-7.80248 4.45841-17.06389 4.14027-25.72962 5.02028-5.33468.4166-10.88269 1.53063-15.11572 5.0203-2.33968 1.84696-5.32193 2.12643-8.14935 2.3625-6.16444 1.5556-10.53128 6.55337-14.68855 11.02495-3.04289 3.49319-5.72243 7.347-7.68931 11.54999-.26512 2.57729 2.79483 3.7284 4.89618 3.01873 2.17061-.7603 9.66233-5.94097 9.66092-3.4453-.42246 3.93323-.22305 7.97862-1.47871 11.77965-.98626 5.3274-1.45018 10.87007-.29575 16.20931-.95371 2.98407 4.34346 4.6144 5.45482 1.83751.01996-2.3344.85407-5.22872 3.38461-5.97185 2.57846-.36687 3.71927 2.53757 4.07467 4.59372.84274 6.60667 3.54299 12.82724 6.70351 18.63744 2.57303 1.96447 5.94594-1.55822 4.99476-4.26561-.31448-3.09063.67565-6.2096 2.26736-8.82653 2.67769-2.09664 5.59055 1.63023 5.02764 4.33123.55597 6.08233 2.87157 11.79284 4.63329 17.58745 1.92769 2.54273 5.72753-.61273 5.02762-3.21561-.15894-3.66707 1.33104-7.10547 3.02314-10.2703.29997-2.26779 1.92485-4.98735 4.60045-4.62654 2.19371.68344 2.04923 3.39367 2.20163 5.24999.14277 5.88963-.77579 12.05814 1.54443 17.65306.04598 2.20407 2.14191 5.99618 4.66618 4.39687 1.99723-2.44597 1.02171-6.01344 2.85884-8.56403 2.07945-3.9611 4.04331-8.63841 8.34651-10.63123 3.41829-1.13153 7.4775.12187 10.51529-2.23123 9.6192-5.62532 15.72809-15.6111 19.25613-25.92179 2.17242-5.15857 7.16688-8.4223 12.28976-10.20467 8.31547-3.24108 17.71628-4.68865 24.61235-10.76246 3.12789-3.08061 4.50051-7.51961 4.76474-11.81246 1.27283-3.44553 5.92789-1.16908 7.91934-3.57656 1.33739-2.40082-.46108-4.90211-1.47871-7.05466-1.11192-2.53353-.68634-6.33237 2.23449-7.41559 2.99878-.85707 4.01956 3.00668 6.47349 3.4781 3.82729-.22928 1.87446-4.48751.13143-6.07029-2.36643-3.04628-2.05612-7.10417-3.15457-10.63122-1.49979-2.6646 1.08792-4.89514 3.58176-5.2828 2.47734-.21648 3.34483-2.77127 2.66168-4.85624-.95378-2.93708-2.36867-5.7416-4.04181-8.33434-2.72418-4.02567-6.54352-7.1496-9.85809-10.63123-1.44483-1.93052-.35253-5.46085 2.33307-5.3484 3.42901.18712 5.74365 3.31681 9.03658 3.97029 2.56629 1.79664 6.77024-.79858 5.78343-3.93748-.85032-3.23275-4.01925-4.99843-5.68485-7.74374-5.06639-6.17944-10.34703-12.20747-14.78713-18.86711-1.29574-3.04137 2.52726-6.6136 5.45481-4.98749 2.27036.8172 5.74864 1.91429 7.29499-.65625.96477-2.37406-1.37852-4.36146-2.66168-6.10311-2.09033-3.19303-1.84895-7.23914-2.95743-10.79528-1.33529-5.11192-5.60743-8.54685-9.06944-12.23902-1.67462-2.12769.09852-5.03117 2.23449-6.03747 1.79415-.88107 3.96312-.98848 5.3891-2.55938 1.92854-1.44764 1.82837-4.43531-.19717-5.74217-2.25841-1.84289-5.09847-2.87137-7.09782-5.05312-3.34468-2.79536-6.69355-5.59445-10.28527-8.07183-3.52213.68658-3.96402-6.02959-.26288-5.57811 3.96702-.14669 8.16513-.37885 11.63254-2.52656 1.04925-3.08643-2.35858-5.2097-4.86333-6.00468-3.40952-1.63126-5.64552-5.74318-9.75951-5.74215-3.26234.33125-6.74136-3.32861-5.02762-6.49687 2.59933-5.2684 8.60276-7.02244 13.2427-9.94213 5.8796-4.25339 8.54686-11.4124 10.28527-18.17808 1.41146-6.17893.97907-12.96133-2.1359-18.57184-.48105-3.02392-4.75956-5.16646-7.1307-2.82184-3.78409 3.48619-6.39895 8.58508-11.53396 10.3359-4.00755.52486-6.92489-2.82016-9.39805-5.44687-6.71214-7.30251-8.99734-17.22433-11.99399-26.38116-4.26563-11.58796-12.05944-21.77672-21.8521-29.26866-4.22473-3.63763-8.39632-7.41266-11.76399-11.87808-.19999-3.52044 4.52345-3.75415 6.63779-2.13281 3.24839-.33447.75091-4.41511-1.15011-5.11874-3.7126-3.21214-6.76164-7.17579-10.94249-9.84372-3.46632-2.48058-7.40615-4.16764-11.33678-5.74215-3.30053-1.63874-6.82012-4.35685-7.1307-8.30156.36897-3.05166 4.10334-4.70592 6.80208-3.57655 5.833.748 11.09679 3.78277 15.60863 7.4156.61217-4.81621-3.12778-8.5244-5.84913-12.00933-8.24678-9.67744-18.89124-16.80852-28.25984-25.29835-1.50363-2.67139 2.08737-5.43229 4.60044-4.42969 2.26706.84296 5.34077 1.61186 7.1964-.45937 2.3134-2.98292-1.21267-5.85388-2.53024-8.39997-2.58841-4.08545-5.8115-7.7321-9.49663-10.8609-4.88447-4.71075-9.12296-10.04407-13.1441-15.48744-1.46665-2.40048-3.55637-4.67858-3.77895-7.6125.41262-2.71601 3.6704-3.38575 5.91486-2.65778 2.57612.96544 5.10103 2.25904 7.91932 2.39529 3.53851 1.03474 5.74684-2.854 4.46901-5.8406-2.02741-6.14863-3.90113-12.76373-2.56309-19.26087 1.06145-3.02998 5.95135-2.40152 6.40774-5.84062.10224-3.78275-2.42731-7.03289-2.62883-10.79526-.14733-2.40588-.20933-5.39523 2.03735-6.92344 2.21411-1.73698 4.57402.39037 5.91485 2.13281 1.67383 2.07189 2.59433 4.63023 3.94324 6.8906 2.75354 2.33686 4.61038-2.00208 4.60044-4.33123.86389-3.6854 1.5102-7.43777 2.16877-11.15622 1.34068-2.73217 5.46414-1.61159 6.67064.72188 2.16019 3.30462 5.73441 6.23044 9.89095 5.97186 3.78976-.23209 3.87089-5.15235 2.26736-7.64529-2.0415-4.16388-3.38309-9.43161-1.08439-13.7484 2.07981-2.46322 5.68751-1.97401 8.51082-1.47655 3.43715.07867 4.83588-4.78572 2.39879-6.95623-4.38913-6.76813-6.96108-14.67488-7.525-22.70619-.39383-3.09113 3.20872-5.60626 5.88199-3.93749 2.55497 2.05282 4.36964 5.26776 7.78789 6.0703 2.85302 1.00757 5.26752-1.75879 5.06048-4.46248.05617-3.24517-1.1672-6.76636.69007-9.74529 1.20308-2.33005 4.06586-2.65881 6.3749-2.13281 3.04343.99213 5.12352-2.12652 3.12172-4.59373-1.77739-2.89469-2.22691-6.3272-2.99027-9.58121-.66163-3.8356-1.12935-7.81593-.65721-11.68122 1.26242-2.92378 5.49902-3.45685 7.82074-1.50936 2.74016 1.70862 7.47326-.9696 5.98057-4.33125-2.74472-9.64577-8.65177-17.9928-11.92827-27.43116.16114-3.48016 4.50304-5.44953 7.49214-4.06875 3.23339.50535 5.92223-3.88003 3.84466-6.46403-3.24417-6.77622-7.06212-13.36564-9.29947-20.57338-.03585-3.07404 3.63558-3.45823 5.75055-4.56092 2.75199-2.49078-.23992-5.89332-2.0702-7.9078-5.41508-7.37912-6.95-16.5947-10.08811-25.00304-2.5579-7.56613-5.23068-15.35975-10.4167-21.59056-2.1443-1.96748-5.28283-3.54073-5.71771-6.72654-1.27521-3.92873-5.78118-6.4249-5.55339-10.89371.73972-5.95507 4.76687-10.72217 6.70351-16.27496 1.57685-3.70669 2.77306-7.71204 2.62882-11.779633 1.11118-2.615285.14106-6.820309-3.15459-7.087479-7.67366-.461443-15.38762-.200159-23.06792-.131252-7.32278.278827-14.62462.910728-21.88495 1.903119-4.13385 1.360176-6.10423 6.00557-10.31814 7.218715-2.434 1.5238-3.87704 4.71218-6.99924 5.0203-3.19923-1.55012-1.95269-6.186897.59148-7.776548 3.03291-2.772126 6.58825-5.021596 10.44958-6.431225 2.30358-.080803 6.24618-1.187077 4.79761-4.265601-1.39983-3.102902-4.99308-4.057909-7.59074-5.873419-4.78529-2.788585-9.4004-5.838006-14.03134-8.859345-6.56653-2.899313-13.89975-1.935391-20.86628-2.231252-10.29248.065228-20.60714.569877-30.7901 2.132819-8.05833 4.01999-17.28827 2.766402-25.95962 3.576553-5.80458.364518-12.10161.304402-17.12022 3.674985-3.68337 3.302401-6.19875 8.554032-11.5011 9.515598-6.45156 1.405441-12.62924-1.664953-18.89466-2.657818-5.41697-1.240906-11.27699-2.06531-16.59445.032819-6.29296 1.033391-12.39604-1.971489-18.69752-1.345312-2.95701-.063008-6.54604 1.031893-7.49214 4.167178-1.74153 4.472418-.8396 9.379756-1.28155 14.043688-.0509 4.42287.12392 8.82099.55863 13.22341 3.06965 5.33312 1.29011 11.63452 1.84017 17.42339.12882 5.27698.60246 10.60283 2.2345 15.6515 2.43059 2.01962.77258 6.66092-2.36595 6.75935-6.82024 2.08124-14.10153.72355-20.80056-1.14842-4.1619-1.77629-6.33178-6.47408-6.07915-10.82809-.09203-3.02321 1.13543-6.24624-.1643-9.12183-1.9187-2.44738-5.33965-1.33331-7.88647-.7547-7.66869 1.83501-15.44454 6.16891-18.8618 13.58433-2.85156 6.5307-1.88635 14.0679.42717 20.60619 4.68923 11.94152 17.20723 19.80393 29.87 20.1796 10.55694.45146 20.79441-2.73327 30.85583-5.47965 2.23992-1.66111 6.47705-2.32791 7.16354 1.27968.57305 4.10648-1.92399 8.40775-.03286 12.40309 2.34239 3.51278 4.57643 7.09903 6.63778 10.79529 1.40995 2.3042 2.5535 4.82266 4.20612 6.95622 3.11556 3.11891 7.877 2.67875 11.6654 4.39686 3.913 1.42603 8.34809 3.33042 12.48691 1.73906 4.25873-1.84947 8.45474-3.92169 12.45405-6.26717 3.25234-2.61633 6.68405-6.10774 11.23822-5.61094 4.41992.16222 8.27478 4.40731 7.62358 8.85936-.2349 6.43541-6.08294 11.82924-12.42117 12.1406-7.0602.98842-14.18147.07947-21.26063-.13126-6.08641-.57609-12.18901-1.82568-17.77742-4.36406-1.82245-2.71172-6.901-1.47879-7.09781 1.83751-1.38563 3.0494-5.41696 2.92703-8.08363 1.8703-2.9184-.82691-5.99711-.81368-9.00373-.75468-2.01965 2.06002-.21588 5.20737 1.9059 6.39843 3.60916 1.42998-1.74402 5.08912-2.89169 1.96873-1.02899-1.98676-3.79464-2.29423-5.84914-2.52656-13.93467-.63935-27.52662-5.2269-39.5638-12.14059-8.45285-5.08817-15.9322-11.83924-21.65492-19.88432-2.48511.71463-3.20908 6.23533-6.44062 3.675-3.03045-1.66769-4.86186-4.76414-7.49216-6.92341-4.14392-4.09147-8.32966-8.1277-12.42118-12.27184-.2928 3.12268.86039 6.1781.55861 9.2859-1.44763 2.99363-4.45632-1.15959-5.71768-2.55936-2.24264-2.87689-3.98808-6.14978-5.09335-9.61403-.19975-2.26717.59305-6.98957-3.056-6.43124-2.71778.47355-4.14027 3.40181-3.9761 5.93905-.27579 2.22235-.07469 5.83179-2.95744 6.26716-2.85226-.00617-3.97769-3.10036-4.73187-5.38121-1.28495-4.17305-4.81363-7.74492-4.43613-12.33747.33862-8.84595 1.68222-17.97702 6.30916-25.69211 3.36271-6.93965 6.66635-14.63628 5.12622-22.50931-1.56401-8.7252-3.57839-17.40237-4.00896-26.282728-1.615-10.580125-3.2037-20.196089-10.10255-27.722167-3.18841-2.101259-3.93667 1.857331-4.50123 4.967541zm156.69169 63.081064c1.41816-.16772 2.64672.80218 3.48318 1.8375 2.62967 2.33548 6.46344 3.28302 8.31366 6.46404 2.63298 1.2804 4.40868 5.69109 1.57729 7.64529-3.53389 2.29887-7.90299.99271-11.82971 1.60782-2.73236.19638-6.17774 1.01044-9.03246-.66994-1.93147-3.60829.08412-7.63968 1.86894-10.48629 1.27038-2.56067 2.97978-5.09342 5.6191-6.39842zm27.83266 35.6999c1.54973-.02552 3.07932.07342 4.63331.39374 3.87977.45263 7.79312.71251 11.69826.91876 4.23382.26794 8.63.80475 12.74978-.525 5.82795.18416 11.45517 2.21857 16.52874 4.98747 1.40801 3.38458-3.86148 4.71453-5.94772 2.75624-4.64283-1.69444-9.65916-1.50197-14.52424-1.77185-8.12905-.13433-16.25216 1.63843-23.5937 5.11872-4.37922 1.83237-8.65917 4.07531-13.2427 5.31561-3.23999.00865-5.55562-2.96412-6.44061-5.8078-1.24284-2.3982-3.92452-4.76715-2.79312-7.7109 1.38457-2.38541 4.5881-2.26407 6.99924-2.23124 4.64845-.12517 9.28356-1.36719 13.93276-1.44375zm-29.34836 5.28484c.93652 2.50269.61527 4.76258.2225 6.49068.34214 2.44897.37137 4.91022-2.19 6.23847-2.53371.93619-8.70146-9.27787-7.14572-11.52671 3.36109-.25512 8.24619-2.43512 9.11322-1.20244zm-18.10032-33.93273c3.52226 3.90021 5.90779 7.6219 4.57983 11.5853-2.7542.60977-6.24285.41514-7.63306.76221-2.13416.53276-1.5266-2.2636-.61064-5.94511"/><path d="m438.59865 584.86634c-6.56305 3.01936-11.71591 8.459-18.49082 11.08217-7.84775 3.98577-16.33405 6.44411-24.61231 9.34128-8.59174 4.28583-15.6328 10.97137-22.40708 17.64122-10.48422 10.60581-19.54257 22.64138-31.10345 32.1618-5.88649 4.83879-12.40139 8.93297-19.38109 12.00783-1.30975 1.20478-.18458 3.78584 1.59061 3.65096 2.75796.29499 5.54134 1.50656 7.23847 3.76564 1.22312 2.51158.38362 5.65496-1.54027 7.57714-1.86887 2.44222-3.67553 5.10406-4.20316 8.1937.14651 2.26384 3.11462 3.66388 4.98558 2.41379 1.17718-.41951 2.83129-.14998 3.39195 1.08356.68068 2.32299-.59352 4.56248-1.02561 6.80162-1.48357 5.28526-3.50713 10.46522-6.47813 15.10388-.67935 1.69542.81833 3.80095 2.64332 3.72808 2.33823.41833 4.69263-.10699 7.03235-.22185 1.3209.41657 1.91599 2.18529 1.19255 3.34318-2.62721 10.66288-2.08081 22.12377 1.79879 32.41707 1.35215 4.12608 2.84207 8.48632 2.01817 12.87846-1.22321 5.65511-4.92255 10.5982-9.64825 13.85601-2.09386 1.29301-4.94581 1.53665-7.04876.12847-3.04915-1.75746-4.98608-4.81112-6.88468-7.66687-2.47426-4.00024-3.85296-8.52645-5.45036-12.91294-1.42587-3.42868-3.06014-7.01313-6.08736-9.33044-1.89149-1.36063-3.70147-3.07044-4.41277-5.35366-2.35023-4.71861-6.64212-8.14771-11.22496-10.57808-3.21047-1.80302-6.39358-3.99456-10.1349-4.46446-2.60385-.07612-5.31786 1.88715-5.50256 4.59152-.28537 2.63876 1.16421 4.99974 2.26029 7.28332.5507 1.23587 1.19317 2.60182.92123 3.9795-.60725 1.4107-2.46292 1.93171-3.82013 1.34994-5.75676-.83977-11.6514-1.90941-17.4487-.78978-2.49047.40206-4.9963.81729-7.38562 1.6504-1.90667.99147-1.95917 4.05125-.17772 5.19784 2.09668 1.82014 4.82526 2.63876 7.07658 4.2298.85998.66959 2.15903 1.00475 2.56573 2.10434.42254 1.13446-.1767 2.605-1.4231 2.87279-4.33948 1.79809-9.26967 2.38595-13.0534 5.36134-3.52134 2.61952-6.42281 5.97556-8.94082 9.5458-.4847 1.61389 1.30545 3.3223 2.90089 2.82758 3.26003-.16284 6.65925.50984 9.36592 2.40323 1.57916 1.65094 1.07584 4.71209-.92321 5.80179-5.76332 5.32805-10.74155 11.8299-12.99411 19.43641-.48979 1.86422.69341 4.15894 2.70627 4.41871 1.7737.38201 3.45099-.65055 4.71419-1.78729 1.41484-.93474 3.01433-1.79059 4.75909-1.75093 1.54277.40972 2.05923 2.73166.81165 3.73879-3.09485 4.4685-4.29144 9.89431-5.10419 15.17935-.48927 2.3108-.47015 4.9089.87869 6.94292 1.37047 1.74651 4.53249 1.34783 5.44462-.66845 2.12068-2.62376 5.46665-3.6455 8.48011-4.86104 2.76085-1.17437 5.88718-2.1985 8.87796-1.28752 4.60153 1.33283 8.15592 5.06969 12.93565 5.93212 7.06499 1.89534 14.27707 3.21546 21.2948 5.28886 2.42122.73169 4.71521 1.85353 6.76505 3.33524 5.61014 3.85659 10.17958 8.95338 15.16531 13.53739 4.88052 4.59378 10.24409 8.94418 16.63634 11.22426 7.59829 2.81364 16.08078 3.66642 23.96611 1.57234 4.57832-1.84256 7.99262-5.85552 9.89377-10.32006 2.66889-5.35095 4.74216-11.14858 8.80413-15.66109 1.65646-1.88349 3.75119-3.52521 6.24173-4.09425 2.13012-.14453 4.07366 1.73283 4.20399 3.82146 1.00789 3.83299 2.47555 7.57226 4.60844 10.92607.02638 1.39594 2.00309 2.21494 3.00946 1.24384 1.22908-3.35792.76732-7.11202 2.26678-10.39447 2.82544-9.29642 7.71048-17.91132 9.59595-27.50082.38349-2.02011.66829-4.12173 1.70521-5.93572 1.86222-1.61221 4.83319-1.32719 6.64307.22081 1.08288.6561 2.89046.4826 3.36865-.84323.52447-1.73904-.77385-3.27881-1.01359-4.94451-1.41742-6.22442-.27482-12.83598 2.46022-18.54364 3.1231-8.02395 3.69001-16.70955 4.27901-25.21146.04627-1.28662.50349-2.59628.35923-3.85883-.23998-1.08007.24773-2.35896 1.29396-2.82497 2.0742-.05144 3.55554 1.63175 4.8689 3.00374 2.73349 2.63184 5.36588 5.46813 7.11175 8.86846.11081 1.21141 1.46584 2.12782 2.63279 1.77053 1.48578-1.44931 1.36256-3.6913 1.26038-5.59755.04242-5.49886.15572-11.02497 1.06688-16.46077.85875-1.74658 3.91738-1.37806 4.33764.52104 1.07396 2.34121 1.58859 4.92985 2.97754 7.12623 1.18051 1.00481 3.24518.51403 3.86776-.89785 2.14948-2.80972 3.83309-5.99096 4.82656-9.38996.92602-1.91165 2.31215-3.61283 2.8718-5.69104.92114-1.22088 3.17353-.77648 3.56546.69945.95773 2.15447 2.1422 4.39521 4.24159 5.63739 1.7561.73371 3.96235-.87879 3.79765-2.77126.30612-4.19871.38713-8.56552 2.20259-12.45275.93684-1.31381 3.15598-1.32824 4.12456-.0441 2.96182 2.65583 5.35916 6.01353 8.90096 7.96813 1.71457.44902 3.48985-1.42883 2.96979-3.11327-.05408-4.75105-.6885-9.61329.62542-14.26131 2.06157-5.85566 6.42913-10.50979 8.83529-16.19828 1.58856-2.8471 3.51778-5.60646 4.20188-8.84834-.07143-2.33356-1.74635-4.43994-3.89068-5.27703-6.21861-4.28834-10.75333-10.48384-14.82217-16.73733-6.49464-10.75604-9.0878-23.59768-8.2613-36.06462.2247-5.2001.82174-10.37387 1.39782-15.54407-.21427-2.71904-2.16498-5.02265-4.49805-6.2872-8.85166-6.71684-17.91454-13.36795-25.17301-21.86024-2.66433-3.21744-4.85208-6.78813-6.99884-10.36024-1.77701-1.74396-4.88467-1.51682-6.6283.15849-.51465.30623-1.06431.55902-1.64342.71649z"/><g fill="#fff"><path d="m291.0691 741.31584c2.54707 1.8801 4.27399 4.93645 4.28772 8.12892-.53083 2.4592-3.02932 4.30833-5.53888 4.11296-1.95569.22991-4.00069-.37245-5.50187-1.6491-2.10583-4.03329-3.14717-8.50316-4.04282-12.93164.29308-2.03295 3.07429-3.1297 4.67978-1.84621 2.29556.96488 4.33375 2.46272 6.11607 4.18507z"/><path d="m276.16366 755.50178c.344 2.56445-1.18982 4.95316-3.02123 6.6065-2.37917 2.09579-6.36189 1.726-8.47072-.57887-2.35971-1.86161-5.02456-3.68785-6.44739-6.31234-4.70067-2.10149-1.54533-5.26654 4.12629-4.91895 3.38389-.11628 11.01151.96243 13.81305 5.20366z"/><path d="m262.99326 771.97574c.0225 2.74979-1.2355 5.48037-3.34007 7.25366-.73057 1.36188-2.73248 1.78468-3.96454.85968-3.51649-1.43505-7.42096-1.97749-10.62946-4.1154-1.07355-1.3828-.26448-3.69266 1.41028-4.157 4.47637-2.8404 10.01718-4.0295 15.25349-3.10179 1.1878.55048 1.61609 2.0716 1.2703 3.26085z"/><path d="m258.47168 793.81568c.80188 2.46141.94565 5.17301.18735 7.66384-2.21431 2.66208-5.77634 4.00989-9.20097 3.82466-2.35798.27842-4.75959.34075-7.10934-.04584-1.41283-1.10776-1.43917-3.5005-.0884-4.66763 3.02264-4.67181 6.92934-8.89402 11.8132-11.65166 1.75238-.59509 3.80367.92912 3.78911 2.76466.17639.71077.30655 1.43995.60905 2.11197z"/><path d="m260.57474 810.19562c3.73 3.29793 3.63715 9.88314-.18342 13.07562-3.57597 2.5553-7.86978 3.77414-12.06528 4.88833-1.64044-.11908-2.67963-2.25491-1.77194-3.62046 1.44231-5.14094 4.04364-10.1644 8.30423-13.52441 1.59911-1.15971 3.88507-1.91497 5.71641-.81908z"/><path d="m194.85416 107.11781c3.12828.6471 5.80556 3.20953 6.46959 6.34675-1.74031 2.5745-4.35688 4.39881-7.0682 5.83685-2.96707-.56288-5.32497-2.95116-8.41707-3.04806-2.5305-1.57142-5.58272-2.47603-7.52888-4.85305.42406-3.52253 4.32996-5.27907 7.53197-5.19808 3.01813-.30465 6.16451-.2383 9.01259.91559z"/><path d="m492.75242 107.32781c2.87374.15629 6.19301 2.06461 6.26908 5.24245-.74707 3.89243-4.80593 5.5342-7.97999 7.09565-3.60095 1.85167-7.96707 3.2945-11.92825 1.69694-2.25119-2.31414.02584-5.82938 2.41529-6.99689 2.41523-2.15798 1.68924-6.47899 4.89666-7.94841 2.13077-.86192 4.29059.38665 6.32721.91026z"/></g><path d="m178.18305 126.73875c3.35317-1.05529 7.06462-2.4354 10.57223-1.35098"/><path d="m381.92124 131.26774c1.07245 3.9346-.82041 7.79884-2.28273 11.36031-3.81856 6.35517-5.98431-3.35224-5.0864-6.14157.34757-2.61567-.31338-5.5374 2.15175-7.31859 1.9371-1.18554 4.56277-.00821 5.21738 2.09985z" fill="#fff"/><path d="m394.74989 134.94274c.09036 3.93741-.51251 6.47761-2.36614 9.88027-1.88217 7.65095-6.09572 2.19122-6.19955-4.12784.80331-2.88138.63181-6.10172 2.78946-8.16298 1.55634-.79971 6.18137.51045 5.77623 2.41055z" fill="#fff"/><path d="m340.80642 149.74767c-.18503 3.14225.7686 6.82663 3.74264 8.41829 4.4853 3.7831 10.23379 6.37515 16.19218 6.09865 6.86382.71401 13.6945-.81232 20.28346-2.57111 13.6343-2.13988 27.49473-5.17617 41.33607-3.12653 4.5421.85736 8.85425 2.63478 12.94914 4.73875 2.53525.18345 6.10482 2.67888 4.48281 5.48659-1.95005 2.27858-5.18218 1.07549-7.73119.99133-15.78436-.61021-31.28382 3.12394-46.47627 6.95115-13.14965 3.25132-26.67361 6.90975-40.33316 5.18543-7.34956-1.22515-14.43972-5.27444-19.00501-10.84597-3.01207-3.69252-4.87269-9.20898-4.45633-14.23455.09529-3.65776 1.95998-7.07555 4.77275-9.36752 2.29019-2.22764 5.25129-4.54897 8.6339-4.16469 2.94361.92446 4.09534 4.0771 5.60901 6.44018z" fill="#f00"/><g fill="#fff"><path d="m409.57645 188.59756c2.01388 2.03028 3.30423 5.60895 1.29695 8.073-2.5805 1.83507-4.19512 5.80315-6.42242-3.69805-1.24615-10.01975 1.18018-13.37026 5.12547-4.37495z"/><path d="m401.24629 207.54817c-1.54638 2.8326-6.05445 1.94992-6.7991-1.15984-1.94978-3.66914-4.64214-6.72611-5.51103-10.81027-.96487-6.30628 4.33962-3.35764 7.54019.51319 5.72567 3.53645 5.2613 7.62066 4.76994 11.45692z"/><path d="m173.50252 381.59812c7.12362 2.4306 13.47319 7.34972 16.61428 14.2075-.3738 4.93206-7.61761 6.88593-10.75057 3.27242-4.67573-3.79246-7.06009-9.74833-12.05775-13.20534-2.37999-2.53842-1.02346-4.50673 6.19404-4.27458z"/><path d="m172.8772 405.10689c2.86745 2.33503 3.16939 7.34594.23468 9.75117-3.51263 1.49426-7.19776-.24568-10.70205-.83066-2.51066-1.26036-7.22726-.46694-7.62095-4.19983.23983-3.00718 3.59054-4.20902 6.05046-4.97666 3.90512-1.17326 8.19422-1.14082 12.03786.25598z"/><path d="m176.34724 430.3068c1.99673 2.75733.02574 7.31797-3.39724 7.64778-4.6434 1.34326-9.51665 1.31526-14.28698 1.82846-2.5644-2.17729-1.02437-6.27423 1.52682-7.75631 3.49905-3.30835 8.25925-6.35416 13.29063-5.24574 1.47825.57681 2.59986 1.96567 2.86677 3.52581z"/><path d="m180.97397 446.05678c3.51562 2.42386 2.1627 8.87173-2.05063 9.64689-3.47397 1.46873-7.20602 2.22736-10.94414 2.63039-2.58177-2.13188-1.23041-6.34759 1.31109-7.90918 2.59888-2.20381 4.9689-4.79381 8.10682-6.25339 1.47805-.2526 2.6439.92458 3.57686 1.88529z"/><path d="m190.85835 463.48672c3.3821 2.51383 3.833 7.75575 1.49315 11.11578-1.1493 3.29657-1.95883 6.86603-4.29109 9.58114-2.88089 1.29393-6.24686-2.24967-4.95265-5.07515.57934-5.65439 1.01686-11.65499 4.23683-16.53928 1.13185-.8461 2.87854-.27498 3.51376.91751z"/><path d="m541.64853 833.50556c.07685 5.09284-4.17752 8.57994-7.31652 12.02027-2.16768 2.58154-4.18384 5.32649-5.64024 8.37792-3.08638.99301-5.42103-3.04386-4.28026-5.65305 1.50824-7.69173 2.60023-15.93624 7.54456-22.32181 1.7954-2.05943 5.46536-2.34764 7.09446.0656 1.82893 2.03375 2.54067 4.83413 2.598 7.51107z"/><path d="m549.11439 840.96053c3.33935 3.01053 3.6406 8.41081 1.36502 12.13557-1.90288 4.99246-4.24865 9.88312-5.1544 15.18911-2.61443 2.49941-6.7711-.87676-6.15728-4.0431-.44436-4.87578-2.64709-9.83665-.88072-14.70299 1.10358-3.67265 3.10967-6.97048 4.78931-10.39274 1.84212-2.30111 4.89256.00245 6.03807 1.81415z"/><path d="m566.25432 856.39548c3.16026 3.25624 3.10201 8.87835.17917 12.2653-1.1016 2.26252-1.87444 5.50701-4.76989 5.98576-3.50402-.007-3.96453-4.36022-4.20446-7.0212-.63531-4.5436-1.0163-9.27319.28256-13.74077 2.63581-2.74794 7.44243-.80896 8.51262 2.51091z"/><path d="m584.13032 868.78544c2.51145 3.8677 1.91602 9.0097-.24245 12.89281.35768 3.32043-5.28988 4.79786-6.44578 1.56598-1.45157-4.41663-.62869-9.10615-.23789-13.62075.98431-2.73418 5.32569-3.27691 6.92612-.83804z"/><path d="m188.75528 125.38777c3.62466 4.04603-1.0308 11.39246-6.24286 10.0242-2.46854-1.01195-5.49409-1.18739-7.49307-2.96655-2.25672-2.63242.33829-5.44917 3.1637-5.70667"/><path d="m230.60616 85.907884c3.35549 3.487533 7.5443 6.931959 8.26621 12.016513-.01196 5.571103-8.58135 8.196713-11.72316 3.594613-2.44547-4.412208-2.29493-9.90097-5.42823-13.985302-1.00543-2.668056-3.31517-5.248875-2.42537-8.279006 2.2812-2.107867 5.32824.315664 6.88279 2.168194 1.46351 1.507117 2.92854 3.013098 4.42776 4.484988z"/><path d="m251.11098 79.817908c3.92279 7.879049 5.90534 16.770453 5.34699 25.572042-1.12926 3.02793-5.65439 3.36319-7.67437 1.07588-3.17063-1.87472-4.4422-6.17949-3.10447-9.551406 1.00999-5.750196.86567-11.671485 2.35834-17.342089.56092-1.308478 2.58171-.890341 3.07351.245573z"/><path d="m214.2023 98.087847c2.2875 1.420266 5.75092 1.948023 6.45412 4.984693.40247 3.96453-3.12072 6.93623-6.39789 8.43813-4.58342 2.35576-10.22184-.45585-12.66239-4.61228-2.73671-2.83473-5.47074-5.69895-7.75555-8.91899-.1566-3.330045 4.08152-4.940008 6.77672-3.731946 4.62346.816036 9.64607.968873 13.58499 3.840393z"/><path d="m460.68078 107.32781c1.18607 2.62411-.46689 6.64911-3.65017 6.58827-2.91458-.89917-6.59842.32168-8.90425-2.17673-1.47077-2.15611.22775-4.66807 1.93729-6.06908 2.36014-1.83878 4.63933-4.38924 7.79262-4.65568 3.06289.16841 3.44654 4.02657 2.82451 6.31322z"/><path d="m597.69504 102.28784c-.36619 4.73771-4.51523 7.80238-7.96038 10.49975-8.29604 5.95235-17.89338 9.65744-26.72681 14.68828-2.68534.64432-5.21933 3.12836-8.10375 1.90302-1.93708-1.20922-1.46295-4.06183-.40103-5.73817 2.74327-4.1252 6.79178-7.24401 10.93927-9.87294 8.00591-4.9254 17.16612-7.35838 25.97172-10.4147 1.99506-.40722 4.33502-1.57102 6.28098-1.06524z"/><path d="m532.27677 820.7856c-2.375 3.72487-7.43063 4.42752-11.30047 6.23522-4.76342 1.59083-6.75123 1.14554-4.52932-3.39846 3.14622-3.75504 4.27231-6.98496 7.9032-9.16923 1.17122-.59138 3.47664-.43213 5.86897-.28679 1.71145 2.11852 2.53481 4.53034 2.05762 6.61926z"/></g></g></svg>