<svg height="300" width="471.42999" xmlns="http://www.w3.org/2000/svg"><g transform="matrix(1.714291 0 0 1.714292 -.000001 -.001087)"><path d="m.000002 87.500328h275v87.499664h-275z" fill="#009645"/><path d="m.000002.00066h275v87.499664h-275z" fill="#fff"/></g><g transform="matrix(.425532 0 0 .429881 188.9065 14.99888)"><path d="m.47018842.46994702h219.04587158v179.46269298c1.23062 76.28964-79.00555 77.53936-109.97862 98.74944-32.899446-21.55997-109.22964063-27.92466-109.06725158-98.74944z" fill="#ff0" fill-rule="evenodd" stroke="#000" stroke-width=".939866"/><g stroke-linejoin="round"><g transform="matrix(1.036107 0 0 1.036107 -11.416 -9.5393)"><path d="m47.899236 191.49485 37.674452-.03681s3.112679 1.57464 3.982752 4.67572c2.743822 9.77941 8.675428 19.01563 14.73815 22.26348 8.89024 4.76259 14.51148 3.22299 12.90564-7.74811-1.23097-8.40993-10.46405-17.7287-16.93265-24.66208-3.747759-4.01704-6.098145-7.87599-5.523394-8.90565 0 0 4.429669-17.32769-1.773819-28.32478-6.203489-10.9971-10.574128-13.34042-19.174418-14.60931-8.600291-1.2689-19.092461 2.32943-19.092461 2.32943s-6.845232-4.89986-12.766743-5.46382c-5.921512-.56395-10.567874 2.50143-10.567874 2.50143-1.532783-.131-2.92781 1.66167-2.656013 3.44949.106372.69969.64441 3.33865 1.353042 3.92125 0 0-.016971 3.2552 3.031642 8.14587 3.048613 4.89066 8.810731 9.6525 8.810731 9.6525-4.237904 1.89383-3.612942 3.4505-3.494153 4.2991 2.397497.32217 3.807685-.0617 6.138206 1.26681 3.656861 2.08459 4.657722 2.86966 9.975448 9.02326 2.797159-4.14119 5.881618-6.92455 11.454784-11.17699l2.088439 2.15372c-4.93847 4.5463-12.461952 8.94925-12.766745 18.79452-5.258171 3.15767-7.321865 6.21659-7.405016 8.45097z" fill-rule="evenodd" stroke="#000"/><path d="m42.527979 136.81578c0 .92144-.708481 1.66928-1.581429 1.66928-.872949 0-1.58143-.74784-1.58143-1.66928 0-.92145.708481-1.66929 1.58143-1.66929.872948 0 1.581429.74784 1.581429 1.66929z" fill="#f00" stroke="#f00"/></g><g transform="matrix(1.036107 0 0 1.036107 78.23081 -113.5117)"><path d="m47.899236 191.49485 37.674452-.03681s3.112679 1.57464 3.982752 4.67572c2.743822 9.77941 8.675428 19.01563 14.73815 22.26348 8.89024 4.76259 14.51148 3.22299 12.90564-7.74811-1.23097-8.40993-10.46405-17.7287-16.93265-24.66208-3.747759-4.01704-6.098145-7.87599-5.523394-8.90565 0 0 4.429669-17.32769-1.773819-28.32478-6.203489-10.9971-10.574128-13.34042-19.174418-14.60931-8.600291-1.2689-19.092461 2.32943-19.092461 2.32943s-6.845232-4.89986-12.766743-5.46382c-5.921512-.56395-10.567874 2.50143-10.567874 2.50143-1.532783-.131-2.92781 1.66167-2.656013 3.44949.106372.69969.64441 3.33865 1.353042 3.92125 0 0-.016971 3.2552 3.031642 8.14587 3.048613 4.89066 8.810731 9.6525 8.810731 9.6525-4.237904 1.89383-3.612942 3.4505-3.494153 4.2991 2.397497.32217 3.807685-.0617 6.138206 1.26681 3.656861 2.08459 4.657722 2.86966 9.975448 9.02326 2.797159-4.14119 5.881618-6.92455 11.454784-11.17699l2.088439 2.15372c-4.93847 4.5463-12.461952 8.94925-12.766745 18.79452-5.258171 3.15767-7.321865 6.21659-7.405016 8.45097z" fill-rule="evenodd" stroke="#000"/><path d="m42.527979 136.81578c0 .92144-.708481 1.66928-1.581429 1.66928-.872949 0-1.58143-.74784-1.58143-1.66928 0-.92145.708481-1.66929 1.58143-1.66929.872948 0 1.581429.74784 1.581429 1.66929z" fill="#f00" stroke="#f00"/></g><g transform="matrix(1.036107 0 0 1.036107 33.00781 -62.54465)"><path d="m47.899236 191.49485 37.674452-.03681s3.112679 1.57464 3.982752 4.67572c2.743822 9.77941 8.675428 19.01563 14.73815 22.26348 8.89024 4.76259 14.51148 3.22299 12.90564-7.74811-1.23097-8.40993-10.46405-17.7287-16.93265-24.66208-3.747759-4.01704-6.098145-7.87599-5.523394-8.90565 0 0 4.429669-17.32769-1.773819-28.32478-6.203489-10.9971-10.574128-13.34042-19.174418-14.60931-8.600291-1.2689-19.092461 2.32943-19.092461 2.32943s-6.845232-4.89986-12.766743-5.46382c-5.921512-.56395-10.567874 2.50143-10.567874 2.50143-1.532783-.131-2.92781 1.66167-2.656013 3.44949.106372.69969.64441 3.33865 1.353042 3.92125 0 0-.016971 3.2552 3.031642 8.14587 3.048613 4.89066 8.810731 9.6525 8.810731 9.6525-4.237904 1.89383-3.612942 3.4505-3.494153 4.2991 2.397497.32217 3.807685-.0617 6.138206 1.26681 3.656861 2.08459 4.657722 2.86966 9.975448 9.02326 2.797159-4.14119 5.881618-6.92455 11.454784-11.17699l2.088439 2.15372c-4.93847 4.5463-12.461952 8.94925-12.766745 18.79452-5.258171 3.15767-7.321865 6.21659-7.405016 8.45097z" fill-rule="evenodd" stroke="#000"/><path d="m42.527979 136.81578c0 .92144-.708481 1.66928-1.581429 1.66928-.872949 0-1.58143-.74784-1.58143-1.66928 0-.92145.708481-1.66929 1.58143-1.66929.872948 0 1.581429.74784 1.581429 1.66929z" fill="#f00" stroke="#f00"/></g></g></g></svg>