<svg height="300" width="471.42999" xmlns="http://www.w3.org/2000/svg"><g transform="matrix(1.714291 0 0 1.714292 -.000001 -.001087)"><path d="m.000002 87.500328h275v87.499664h-275z" fill="#009645"/><path d="m.000002.00066h275v87.499664h-275z" fill="#fff"/></g><g stroke="#323232" transform="matrix(.480039 0 0 .479963 184.0806 14.98174)"><path d="m.59375.53125v168.15625c-.00045425.25171.05955187.46943.0625.71875 1.4968169.05128 2.1243033.16157 5.09375.125 2.6415068-.03253 5.107491-.34144 7.53125-.78125s4.79985-1.01855 7.28125-1.59375 5.060569-1.15506 7.875-1.59375 5.858399-.75097 9.28125-.78125c3.465926-.03028 6.290038.2738 8.84375.71875s4.851069 1.0502 7.25 1.65625 4.904668 1.20322 7.90625 1.65625 6.482084.76411 10.84375.75c4.361667-.01411 7.864745-.34282 10.84375-.8125s5.458211-1.09938 7.84375-1.71875 4.668731-1.22431 7.25-1.6875c2.58127-.46319 5.46506-.78012 9.03125-.78125 3.56592-.00113 6.66782.30851 9.53125.78125s5.47066 1.11023 7.96875 1.75 4.90507 1.28129 7.375 1.78125 5.00233.85293 7.78125.90625 5.48445-.26056 8.15625-.75 5.31165-1.13273 7.96875-1.8125 5.32768-1.38856 8.0625-1.90625 5.53253-.87182 8.4375-.875c2.90497-.00317 5.69643.33413 8.4375.84375s5.43034 1.20076 8.125 1.875 5.39054 1.35307 8.15625 1.84375 5.60826.79106 8.5625.75c2.9121-.04047 5.19015-.15173 7.0625-.3125.50964-.04376.79714-.10697 1.25-.15625v-168.75z" fill="#0097fd" stroke-width=".50109"/><path d="m42.37636 136.88883-.09511-.17008c-.877806-1.58916-1.586467-3.38497-1.84375-5.71875-.864264-20.86463 3.162269-32.339937-5.5625-39.90625-2.763304-2.011428-6.216725-2.575438-9.3125-2.125s-5.810417 1.902423-7.0625 3.9375c-5.180169 8.41961 1.519526 12.95057 6.53125 15.65625l2.625-5.65625c-1.829129-1.14476-4.499803-1.95723-2.8125-4.75.834746-1.381649 4.938255-2.159997 5.5625 2.09375.815541 5.5573-.692725 9.93863-2.0625 15.1875-1.674335 6.41592-4.717061 13.09653-6.0625 20.21875-1.747113 9.24854-1.633399 18.30918 1.28125 25.3125l.15625.5c1.543017-.45849 3.602223-.97394 5.5625-1.46875s-.398155.09423.59375-.15625 1.858685-.46745 2.8125-.71875l13.5625-16.96875c-1.366705-1.66275-2.770418-3.29462-3.87364-5.26742z" fill="#fff" fill-rule="evenodd" stroke-width=".5"/><path d="m104.5406 14.830385c-.31326-3.176335 7.84745-3.45445 7.93688-.036177l.03618 138.903652-8.01531.07438z" fill="#fff" fill-rule="evenodd" stroke-width=".5"/><path d="m28.384232 159.95901c.135018.23301.795315.07206 1.490768-.11526 2.442844-.3323 4.951161-.63066 7.84375-.65625 3.465926-.03028 6.290038.2738 8.84375.71875s4.851069 1.01895 7.25 1.625c.607502.15348 1.371987.28632 2 .4375 4.974385.6948 7.23694 1.06107 10.09375 1.53125 2.109703.19019 3.979014.44616 6.65625.4375 4.361667-.01411 7.864745-.31157 10.84375-.78125s5.458211-1.09938 7.84375-1.71875 4.668731-1.22431 7.25-1.6875c2.58127-.46319 5.46506-.78012 9.03125-.78125 3.56592-.00113 6.66782.30851 9.53125.78125s5.47066 1.11023 7.96875 1.75c2.47567.63403 4.86598 1.25193 7.3125 1.75.10572.01532.20743.04682.3125.0625 2.39503.4746 4.8417.82339 7.53125.875 2.77892.05333 5.48445-.26057 8.15625-.75s5.31165-1.16398 7.96875-1.84375 5.32768-1.35731 8.0625-1.875 5.53253-.87182 8.4375-.875 5.69643.33413 8.4375.84375 5.43034 1.20076 8.125 1.875c2.17911.54525 4.37552 1.05301 6.59375 1.5 6.69887-12.80902 9.63378-18.33319 13.5625-25.6875-1.79637-2.07543-5.60888-4.12164-8.3125-5.25-4.23399 5.20549-8.0067 10.54451-13.125 15.75-4.3768.78661-7.60983 1.15046-12 1.1875-42.224-2.00554-71.75799 2.67934-126.15625-9.625-2.794721-.7893-5.238697-1.7084-7.587472-2.68998l-.068778-.02877c-4.29561-1.79881-8.138463-3.9344-12.3125-6.6875-3.704567 8.49811-4.769017 18.09878-1.59375 29.9375" fill="#fff" fill-rule="evenodd" stroke-width=".5"/><path d="m201.125 204.40625c-1.18793-.13007-2.43302-.10657-3.59375-.3125-2.76571-.49068-5.46159-1.16951-8.15625-1.84375s-5.38393-1.33413-8.125-1.84375-5.53253-.84692-8.4375-.84375c-2.90497.00318-5.70268.32606-8.4375.84375s-5.4054 1.22648-8.0625 1.90625-5.29695 1.35432-7.96875 1.84375-5.37733.77207-8.15625.71875-5.31132-.40629-7.78125-.90625-4.87691-1.14148-7.375-1.78125-5.10532-1.27726-7.96875-1.75-5.96533-.78238-9.53125-.78125c-3.56619.00113-6.44998.31806-9.03125.78125-2.581269.46319-4.864461 1.06813-7.25 1.6875s-4.864745 1.24907-7.84375 1.71875-6.482084.79839-10.84375.8125-7.842168-.29697-10.84375-.75-5.507319-1.0502-7.90625-1.65625-4.696288-1.2113-7.25-1.65625-5.377824-.71778-8.84375-.6875c-3.422851.03028-6.466819.31131-9.28125.75s-5.3936 1.01855-7.875 1.59375c-2.130454.49385-4.176392.96678-6.25 1.375.303485.31972.531632.6856.84375 1 19.826574 19.97167 73.83785 35.87599 92.4375 44.9375 17.11724-8.67739 70.40265-19.80993 93.0625-44.53125.17645-.1925.29502-.43041.46875-.625z" fill="#0097fd" stroke-width=".50109"/><path d="m206.875 196.71875c-.30702.00634-.45918.02677-.78125.03125-2.95424.04106-5.79679-.25932-8.5625-.75s-5.46159-1.16951-8.15625-1.84375-5.38393-1.36538-8.125-1.875-5.53253-.84692-8.4375-.84375c-2.90497.00318-5.70268.35731-8.4375.875s-5.4054 1.22648-8.0625 1.90625-5.29695 1.32306-7.96875 1.8125-5.37733.80332-8.15625.75-5.31132-.40629-7.78125-.90625-4.87691-1.14148-7.375-1.78125-5.10532-1.27726-7.96875-1.75-5.96533-.78238-9.53125-.78125c-3.56619.00113-6.44998.31806-9.03125.78125-2.581269.46319-4.864461 1.06813-7.25 1.6875s-4.864745 1.24907-7.84375 1.71875-6.482083.79839-10.84375.8125c-4.361666.01411-7.842168-.29697-10.84375-.75s-5.507319-1.0502-7.90625-1.65625-4.696288-1.2113-7.25-1.65625-5.377824-.74903-8.84375-.71875c-3.422851.03028-6.466819.34256-9.28125.78125s-5.3936 1.01855-7.875 1.59375-4.857491 1.15394-7.28125 1.59375c-1.548818.28105-3.195064.36522-4.8125.5 1.708019 2.60967 3.65555 5.06975 5.84375 7.375 2.073608-.40822 4.119546-.88115 6.25-1.375 2.4814-.5752 5.060569-1.15506 7.875-1.59375s5.858399-.71972 9.28125-.75c3.465926-.03028 6.290038.24255 8.84375.6875s4.851069 1.0502 7.25 1.65625 4.904668 1.20322 7.90625 1.65625 6.482084.76411 10.84375.75 7.864745-.34282 10.84375-.8125 5.458211-1.09938 7.84375-1.71875 4.668731-1.22431 7.25-1.6875c2.58127-.46319 5.46506-.78012 9.03125-.78125 3.56592-.00113 6.66782.30851 9.53125.78125s5.47066 1.11023 7.96875 1.75 4.90507 1.28129 7.375 1.78125 5.00233.85293 7.78125.90625 5.48445-.22932 8.15625-.71875 5.31165-1.16398 7.96875-1.84375 5.32768-1.38856 8.0625-1.90625 5.53253-.84057 8.4375-.84375c2.90497-.00317 5.69643.33413 8.4375.84375s5.43034 1.16951 8.125 1.84375 5.39054 1.35307 8.15625 1.84375c1.16073.20593 2.40582.18243 3.59375.3125 2.13727-2.39388 4.0666-4.96067 5.75-7.6875z" fill="#fff" stroke-width=".5"/><path d="m209.625 191.59375c-1.16925.05482-2.0752.13602-3.53125.15625-2.95425.04106-5.79679-.25932-8.5625-.75s-5.46159-1.16951-8.15625-1.84375-5.38393-1.36538-8.125-1.875-5.53253-.84692-8.4375-.84375c-2.90497.00318-5.70268.35731-8.4375.875s-5.4054 1.22648-8.0625 1.90625-5.29695 1.32307-7.96875 1.8125-5.37733.80333-8.15625.75c-2.77892-.05332-5.31132-.40629-7.78125-.90625s-4.87691-1.14148-7.375-1.78125-5.10532-1.27726-7.96875-1.75-5.96533-.78238-9.53125-.78125c-3.56619.00113-6.44998.31806-9.03125.78125-2.581269.46319-4.864461 1.06813-7.25 1.6875s-4.864745 1.24907-7.84375 1.71875-6.482084.79839-10.84375.8125-7.842168-.29697-10.84375-.75-5.507319-1.0502-7.90625-1.65625-4.696288-1.2113-7.25-1.65625-5.377824-.74903-8.84375-.71875c-3.422851.03028-6.466819.34256-9.28125.78125s-5.3936 1.01855-7.875 1.59375-4.857491 1.15394-7.28125 1.59375c-2.403859.4362-4.8518163.74458-7.46875.78125.8169914 1.61545 1.6707279 3.21298 2.65625 4.71875 1.617436-.13478 3.263682-.21895 4.8125-.5 2.423759-.43981 4.79985-1.01855 7.28125-1.59375s5.060569-1.15506 7.875-1.59375 5.858399-.75097 9.28125-.78125c3.465926-.03028 6.290038.2738 8.84375.71875s4.851069 1.0502 7.25 1.65625 4.904668 1.20322 7.90625 1.65625 6.482084.76411 10.84375.75c4.361667-.01411 7.864745-.34282 10.84375-.8125s5.458211-1.09938 7.84375-1.71875 4.668731-1.22431 7.25-1.6875c2.58127-.46319 5.46506-.78012 9.03125-.78125 3.56592-.00113 6.66782.30851 9.53125.78125s5.47066 1.11023 7.96875 1.75 4.90507 1.28129 7.375 1.78125 5.00233.85293 7.78125.90625 5.48445-.26056 8.15625-.75 5.31165-1.13273 7.96875-1.8125 5.32768-1.38856 8.0625-1.90625 5.53253-.87182 8.4375-.875c2.90497-.00317 5.69643.33413 8.4375.84375s5.43034 1.20076 8.125 1.875 5.39054 1.35307 8.15625 1.84375 5.60826.79106 8.5625.75c.32207-.00448.47423-.02491.78125-.03125 1.01424-1.6429 1.91981-3.35686 2.75-5.125z" fill="#0097fd" stroke-width=".50109"/><path d="m212.78125 182.46875c-1.81487.14788-3.93029.24293-6.6875.28125-2.95424.04106-5.79679-.25932-8.5625-.75s-5.46159-1.16951-8.15625-1.84375-5.38393-1.36538-8.125-1.875-5.53253-.84692-8.4375-.84375c-2.90497.00318-5.70268.35731-8.4375.875s-5.4054 1.22648-8.0625 1.90625-5.29695 1.32306-7.96875 1.8125-5.37733.80332-8.15625.75-5.31132-.40629-7.78125-.90625-4.87691-1.14148-7.375-1.78125-5.10532-1.27726-7.96875-1.75-5.96533-.78238-9.53125-.78125c-3.56619.00113-6.44998.31806-9.03125.78125-2.581269.46319-4.864461 1.06813-7.25 1.6875s-4.864745 1.24907-7.84375 1.71875-6.482083.79839-10.84375.8125c-4.361666.01411-7.842168-.29697-10.84375-.75s-5.507319-1.0502-7.90625-1.65625-4.696288-1.2113-7.25-1.65625-5.377824-.74903-8.84375-.71875c-3.422851.03028-6.466819.34256-9.28125.78125s-5.3936 1.01855-7.875 1.59375-4.857491 1.15394-7.28125 1.59375-4.8897432.74872-7.53125.78125c-1.9676399.02423-2.0909058-.07492-3.375-.09375.858061 3.22811 2.0015056 6.25433 3.4375 9.09375 2.6169337-.03667 5.064891-.34505 7.46875-.78125 2.423759-.43981 4.79985-1.01855 7.28125-1.59375s5.060569-1.15506 7.875-1.59375 5.858399-.75097 9.28125-.78125c3.465926-.03028 6.290038.2738 8.84375.71875s4.851069 1.0502 7.25 1.65625 4.904668 1.20322 7.90625 1.65625 6.482084.76411 10.84375.75 7.864745-.34282 10.84375-.8125 5.458211-1.09938 7.84375-1.71875 4.668731-1.22431 7.25-1.6875c2.58127-.46319 5.46506-.78012 9.03125-.78125 3.56592-.00113 6.66782.30851 9.53125.78125s5.47066 1.11023 7.96875 1.75 4.90507 1.28129 7.375 1.78125 5.00233.85293 7.78125.90625c2.77892.05333 5.48445-.26057 8.15625-.75s5.31165-1.13273 7.96875-1.8125 5.32768-1.38856 8.0625-1.90625 5.53253-.87182 8.4375-.875c2.90497-.00317 5.69643.33413 8.4375.84375s5.43034 1.20076 8.125 1.875 5.39054 1.35307 8.15625 1.84375 5.60825.79106 8.5625.75c1.45605-.02023 2.362-.10143 3.53125-.15625 1.33771-2.84907 2.36087-5.91824 3.15625-9.125z" fill="#fff" stroke-width=".5"/><path d="m213.75 177.5c-.22803.02204-.35248.04178-.59375.0625-1.87235.16077-4.15039.27203-7.0625.3125-2.95425.04105-5.79679-.29057-8.5625-.78125s-5.46159-1.13826-8.15625-1.8125-5.38393-1.36538-8.125-1.875-5.53253-.84692-8.4375-.84375c-2.90497.00318-5.70268.35731-8.4375.875s-5.4054 1.19523-8.0625 1.875-5.29695 1.35432-7.96875 1.84375-5.37733.80333-8.15625.75c-2.77892-.05332-5.31132-.40629-7.78125-.90625s-4.87691-1.14148-7.375-1.78125-5.10532-1.27726-7.96875-1.75-5.96533-.78238-9.53125-.78125c-3.56619.00113-6.44998.31806-9.03125.78125-2.581269.46319-4.864461 1.06813-7.25 1.6875s-4.864745 1.24907-7.84375 1.71875-6.482084.76714-10.84375.78125c-4.361667.01411-7.842168-.26572-10.84375-.71875s-5.507319-1.08145-7.90625-1.6875-4.696288-1.2113-7.25-1.65625-5.377824-.71778-8.84375-.6875c-3.422851.03028-6.466819.34256-9.28125.78125s-5.3936 1.01855-7.875 1.59375-4.857491 1.12269-7.28125 1.5625-4.8897431.74872-7.53125.78125c-2.5322497.03118-2.909123-.0578-4.34375-.09375.2803012 1.66294.5518515 3.33784.96875 4.90625 1.2840942.01883 1.4073601.11798 3.375.09375 2.6415068-.03253 5.107491-.34144 7.53125-.78125s4.79985-1.01855 7.28125-1.59375 5.060569-1.15506 7.875-1.59375 5.858399-.75097 9.28125-.78125c3.465926-.03028 6.290038.2738 8.84375.71875s4.851069 1.0502 7.25 1.65625 4.904668 1.20322 7.90625 1.65625 6.482084.76411 10.84375.75c4.361667-.01411 7.864745-.34282 10.84375-.8125s5.458211-1.09938 7.84375-1.71875 4.668731-1.22431 7.25-1.6875c2.58127-.46319 5.46506-.78012 9.03125-.78125 3.56592-.00113 6.66782.30851 9.53125.78125s5.47066 1.11023 7.96875 1.75 4.90507 1.28129 7.375 1.78125 5.00233.85293 7.78125.90625 5.48445-.26056 8.15625-.75 5.31165-1.13273 7.96875-1.8125 5.32768-1.38856 8.0625-1.90625 5.53253-.87182 8.4375-.875c2.90497-.00317 5.69643.33413 8.4375.84375s5.43034 1.20076 8.125 1.875 5.39054 1.35307 8.15625 1.84375 5.60826.79106 8.5625.75c2.75721-.03832 4.87263-.13337 6.6875-.28125.3974-1.60222.70517-3.28181.96875-4.96875z" fill="#0097fd" stroke-width=".50109"/><g stroke-width=".5"><path d="m214.40625 169.28125c-.45286.04928-.74036.11249-1.25.15625-1.87235.16077-4.1504.27203-7.0625.3125-2.95424.04106-5.79679-.25932-8.5625-.75s-5.46159-1.16951-8.15625-1.84375-5.38393-1.36538-8.125-1.875-5.53253-.84692-8.4375-.84375c-2.90497.00318-5.70268.35731-8.4375.875s-5.4054 1.22648-8.0625 1.90625-5.29695 1.32306-7.96875 1.8125-5.37733.80332-8.15625.75-5.31132-.40629-7.78125-.90625-4.87691-1.14148-7.375-1.78125-5.10532-1.27726-7.96875-1.75-5.96533-.78238-9.53125-.78125c-3.56619.00113-6.44998.31806-9.03125.78125-2.581269.46319-4.864461 1.06813-7.25 1.6875s-4.864745 1.24907-7.84375 1.71875-6.482083.79839-10.84375.8125c-4.361666.01411-7.842168-.29697-10.84375-.75s-5.507319-1.0502-7.90625-1.65625-4.696288-1.2113-7.25-1.65625-5.377824-.74903-8.84375-.71875c-3.422851.03028-6.466819.34256-9.28125.78125s-5.3936 1.01855-7.875 1.59375-4.857491 1.15394-7.28125 1.59375-4.8897432.74872-7.53125.78125c-2.9694467.03657-3.5969331-.07372-5.09375-.125.03387233 2.86452.31454939 5.54161.75 8.125 1.434627.03595 1.8115003.12493 4.34375.09375 2.6415069-.03253 5.107491-.34144 7.53125-.78125s4.79985-.9873 7.28125-1.5625 5.060569-1.15506 7.875-1.59375 5.858399-.75097 9.28125-.78125c3.465926-.03028 6.290038.24255 8.84375.6875s4.851069 1.0502 7.25 1.65625 4.904668 1.23447 7.90625 1.6875 6.482083.73286 10.84375.71875c4.361666-.01411 7.864745-.31157 10.84375-.78125s5.458211-1.09938 7.84375-1.71875 4.668731-1.22431 7.25-1.6875c2.58127-.46319 5.46506-.78012 9.03125-.78125 3.56592-.00113 6.66782.30851 9.53125.78125s5.47066 1.11023 7.96875 1.75 4.90507 1.28129 7.375 1.78125 5.00233.85293 7.78125.90625c2.77892.05333 5.48445-.26057 8.15625-.75s5.31165-1.16398 7.96875-1.84375 5.32768-1.35731 8.0625-1.875 5.53253-.87182 8.4375-.875c2.90497-.00317 5.69643.33413 8.4375.84375s5.43034 1.20076 8.125 1.875 5.39054 1.32182 8.15625 1.8125 5.60825.8223 8.5625.78125c2.91211-.04047 5.19015-.15173 7.0625-.3125.24127-.02072.36572-.04046.59375-.0625.38932-2.49167.64589-5.04705.65625-7.78125z" fill="#fff"/><path d="m72.655318 142.87713c0 4.39257-3.564986 7.95756-7.957559 7.95756s-7.95756-3.56499-7.95756-7.95756 3.564987-7.95756 7.95756-7.95756 7.957559 3.56499 7.957559 7.95756z" fill="#ff0" fill-rule="evenodd"/><path d="m89.660173 145.21025c0 4.39257-3.564986 7.95756-7.957559 7.95756s-7.95756-3.56499-7.95756-7.95756 3.564987-7.95756 7.95756-7.95756 7.957559 3.56499 7.957559 7.95756z" fill="#ff0" fill-rule="evenodd"/><path d="m106.72785 147.31903c0 4.39257-3.56499 7.95756-7.957566 7.95756-4.392573 0-7.95756-3.56499-7.95756-7.95756s3.564987-7.95756 7.95756-7.95756c4.392576 0 7.957566 3.56499 7.957566 7.95756z" fill="#ff0" fill-rule="evenodd"/><path d="m123.71026 148.13563c0 4.39257-3.56498 7.95756-7.95756 7.95756-4.39257 0-7.95756-3.56499-7.95756-7.95756s3.56499-7.95756 7.95756-7.95756c4.39258 0 7.95756 3.56499 7.95756 7.95756z" fill="#ff0" fill-rule="evenodd"/><path d="m140.77793 148.49457c0 4.39257-3.56498 7.95756-7.95756 7.95756-4.39257 0-7.95756-3.56499-7.95756-7.95756s3.56499-7.95756 7.95756-7.95756c4.39258 0 7.95756 3.56499 7.95756 7.95756z" fill="#ff0" fill-rule="evenodd"/><path d="m157.73792 148.67404c0 4.39257-3.56498 7.95756-7.95756 7.95756-4.39257 0-7.95756-3.56499-7.95756-7.95756s3.56499-7.95756 7.95756-7.95756c4.39258 0 7.95756 3.56499 7.95756 7.95756z" fill="#ff0" fill-rule="evenodd"/><path d="m174.92674 148.49457c0 4.39257-3.56499 7.95756-7.95756 7.95756s-7.95756-3.56499-7.95756-7.95756 3.56499-7.95756 7.95756-7.95756 7.95756 3.56499 7.95756 7.95756z" fill="#ff0" fill-rule="evenodd"/><path d="m63.981892 133.20748c11.408105-36.939562 97.323928 2.16144 113.799778 9.77514-8.61376-14.45954-32.0741-91.218726-4.48802-109.407676l-108.272558 8.252435c-30.215314 39.899302-10.876969 84.075701-1.0392 91.380101z" fill="#fff" fill-rule="evenodd"/><path d="m60.729433 37.119233 117.222017-8.944076c4.64356.735814 2.95882 6.529602.189 6.447214l-117.059072 8.869694c-3.149392-.876585-3.293667-5.445182-.351945-6.372832z" fill="#fff" fill-rule="evenodd"/></g><path d="m.59264959.53806577h213.82374041v169.16914423c-.05575 14.71619-5.38983 26.18702-13.76036 35.31905-22.65985 24.72131-75.935 35.8538-93.05224 44.53119-18.599651-9.0615-72.620351-24.96581-92.446921-44.93748-9.1248904-9.19167-14.59186541-20.62765-14.56421941-35.94657z" fill="none"/></g></svg>