<svg height="300" width="471.42999" xmlns="http://www.w3.org/2000/svg"><g transform="matrix(1.714291 0 0 1.714292 -.000001 -.001087)"><path d="m.000002 87.500328h275v87.499664h-275z" fill="#009645"/><path d="m.000002.00066h275v87.499664h-275z" fill="#fff"/></g><g transform="matrix(.439259 0 0 .438757 184.9248 11.03753)"><g fill-rule="evenodd"><path d="m221.6875 45.34375c-2.58586 2.480184-4.8416 4.362004-6.84375 5.78125-2.14076 1.517506-4.10175 2.651456-6.125 3.84375s-4.1198 2.43425-6.59375 4.21875-5.31964 4.112125-8.8125 7.40625c-3.45788 3.26113-5.88878 5.98426-7.8125 8.46875s-3.32877 4.724659-4.78125 7.03125-2.92458 4.678818-4.96875 7.40625-4.67622 5.815487-8.375 9.5625c-3.69879 3.74701-6.62354 6.31745-9.1875 8.3125s-4.74272 3.40855-6.90625 4.78125-4.315 2.71378-6.8125 4.59375-5.34039 4.29566-8.90625 7.8125-6.06804 6.36629-8.03125 8.875-3.41051 4.69447-4.84375 6.875-2.86782 4.34269-4.84375 6.875-4.47122 5.43597-8.0625 9-6.57638 6.10252-9.25 8.15625-5.055461 3.60051-7.46875 5.1875-4.845961 3.2112-7.65625 5.375-5.979128 4.87208-9.84375 8.65625c-1.932312 1.89208-3.587543 3.65143-5.03125 5.28125s-2.693541 3.13282-3.78125 4.5625c-2.175419 2.85935-3.765419 5.38097-5.3125 7.8125s-3.05164 4.78054-5.03125 7.28125c-.989805 1.25035-2.07815 2.54542-3.375 3.90625s-2.794746 2.77906-4.53125 4.3125c-3.439498 3.03728-6.687408 5.49121-9.625 7.46875s-5.552959 3.47568-7.75 4.59375-3.969657 1.8536-5.1875 2.3125-1.90625.65625-1.90625.65625-1.670343-1.32897-2.78125-2.21875c19.94574 26.4197 61.041842 35.16203 93.78125 52.5 43.43582-22.07383 103.66771-31.27328 106.65625-84.03125z" fill="#009731" stroke="#009731"/><path d="m221.6875 25.1875c-.76865 1.138062-1.33878 2.138677-2.25 3.34375-2.06739 2.734078-4.51726 5.614863-7.34375 8.375s-5.17174 4.669994-7.3125 6.1875-4.0705 2.620206-6.09375 3.8125-4.1198 2.4655-6.59375 4.25-5.31964 4.080874-8.8125 7.375c-3.45788 3.26113-5.88878 5.984259-7.8125 8.46875s-3.36002 4.755909-4.8125 7.0625-2.92458 4.647569-4.96875 7.375-4.64496 5.815489-8.34375 9.5625c-3.69879 3.747012-6.65479 6.348697-9.21875 8.34375-2.56396 1.99505-4.74272 3.40855-6.90625 4.78125s-4.315 2.71378-6.8125 4.59375-5.34039 4.29566-8.90625 7.8125-6.06804 6.36629-8.03125 8.875-3.37926 4.66322-4.8125 6.84375-2.86782 4.37394-4.84375 6.90625-4.50247 5.40472-8.09375 8.96875c-3.591283 3.56403-6.545131 6.10252-9.21875 8.15625s-5.055462 3.63176-7.46875 5.21875-4.87721 3.2112-7.6875 5.375-5.979125 4.87208-9.84375 8.65625c-1.932313 1.89208-3.587543 3.62018-5.03125 5.25s-2.66229 3.16407-3.75 4.59375c-2.175419 2.85935-3.765419 5.38097-5.3125 7.8125s-3.05164 4.74929-5.03125 7.25c-.989805 1.25035-2.1094 2.54542-3.40625 3.90625s-2.763496 2.81031-4.5 4.34375c-3.439498 3.03728-6.687408 5.49122-9.625 7.46875s-5.584209 3.47568-7.78125 4.59375c-1.801824.91695-3.092335 1.44477-4.25 1.90625 1.333466 2.41684 2.803226 4.71028 4.4375 6.875 1.110907.88978 2.78125 2.21875 2.78125 2.21875s.688407-.19735 1.90625-.65625 2.990459-1.19443 5.1875-2.3125 4.812408-2.61621 7.75-4.59375 6.185502-4.43147 9.625-7.46875c1.736504-1.53344 3.2344-2.95167 4.53125-4.3125s2.385195-2.6559 3.375-3.90625c1.97961-2.50071 3.484169-4.84972 5.03125-7.28125s3.137081-4.95315 5.3125-7.8125c1.087709-1.42968 2.337543-2.93268 3.78125-4.5625s3.098938-3.38917 5.03125-5.28125c3.864622-3.78417 7.033461-6.49245 9.84375-8.65625s5.242961-3.78801 7.65625-5.375 4.79513-3.13377 7.46875-5.1875 5.65872-4.59222 9.25-8.15625 6.08657-6.46769 8.0625-9 3.41051-4.69447 4.84375-6.875 2.88054-4.36629 4.84375-6.875 4.46539-5.35816 8.03125-8.875 6.40875-5.93253 8.90625-7.8125 4.64897-3.22105 6.8125-4.59375 4.34229-2.7862 6.90625-4.78125 5.48871-4.56549 9.1875-8.3125c3.69878-3.747013 6.33083-6.835068 8.375-9.5625s3.51627-5.099659 4.96875-7.40625 2.85753-4.54676 4.78125-7.03125 4.35462-5.20762 7.8125-8.46875c3.49286-3.294125 6.33855-5.62175 8.8125-7.40625s4.5705-3.026456 6.59375-4.21875 3.98424-2.326244 6.125-3.84375c2.00215-1.419246 4.25789-3.301066 6.84375-5.78125z" fill="#fff"/><path d="m208.46875 9.53125c-1.17951 1.897416-2.39693 3.838648-4.03125 6-2.06739 2.734079-4.51726 5.614862-7.34375 8.375-2.82649 2.760137-5.17174 4.669993-7.3125 6.1875s-4.0705 2.620206-6.09375 3.8125-4.1198 2.4655-6.59375 4.25-5.31964 4.080875-8.8125 7.375c-3.45788 3.26113-5.88878 5.98426-7.8125 8.46875s-3.36002 4.75591-4.8125 7.0625-2.92458 4.647569-4.96875 7.375-4.64496 5.815487-8.34375 9.5625-6.65479 6.348697-9.21875 8.34375-4.74272 3.408546-6.90625 4.78125-4.315 2.713784-6.8125 4.59375-5.34039 4.29566-8.90625 7.8125-6.06803 6.36629-8.03125 8.875-3.379263 4.66322-4.8125 6.84375-2.867824 4.37394-4.84375 6.90625-4.502468 5.40472-8.09375 8.96875-6.545131 6.10252-9.21875 8.15625-5.055462 3.63176-7.46875 5.21875-4.87721 3.2112-7.6875 5.375-5.979125 4.87208-9.84375 8.65625c-1.932312 1.89208-3.587544 3.62018-5.03125 5.25s-2.662291 3.16407-3.75 4.59375c-2.175419 2.85935-3.765419 5.38097-5.3125 7.8125s-3.051639 4.74929-5.03125 7.25c-.989805 1.25035-2.1094 2.54542-3.40625 3.90625s-2.763496 2.81031-4.5 4.34375c-3.439496 3.03728-6.687408 5.49122-9.625 7.46875-1.216144.81869-2.117545 1.24492-3.21875 1.90625.787804 4.16356 1.90993 8.06641 3.375 11.65625.746495-.33709 1.226549-.48028 2.125-.9375 2.197041-1.11807 4.812408-2.61621 7.75-4.59375s6.185503-4.43147 9.625-7.46875c1.736504-1.53344 3.2344-2.95167 4.53125-4.3125s2.385195-2.6559 3.375-3.90625c1.979611-2.50071 3.484169-4.84972 5.03125-7.28125s3.137081-4.95315 5.3125-7.8125c1.087709-1.42968 2.337544-2.93268 3.78125-4.5625s3.098938-3.38917 5.03125-5.28125c3.864624-3.78417 7.03346-6.49245 9.84375-8.65625s5.242961-3.78801 7.65625-5.375 4.795131-3.13377 7.46875-5.1875 5.658719-4.59222 9.25-8.15625c3.591283-3.56403 6.08657-6.46769 8.0625-9s3.41051-4.69447 4.84375-6.875 2.88054-4.36629 4.84375-6.875 4.46539-5.35816 8.03125-8.875 6.40875-5.93253 8.90625-7.8125 4.64897-3.22105 6.8125-4.59375c2.16353-1.372705 4.34229-2.786197 6.90625-4.78125s5.48871-4.565488 9.1875-8.3125c3.69878-3.747012 6.33083-6.835069 8.375-9.5625s3.51627-5.099659 4.96875-7.40625 2.85753-4.54676 4.78125-7.03125 4.35462-5.20762 7.8125-8.46875c3.49286-3.294125 6.33855-5.62175 8.8125-7.40625s4.5705-3.026456 6.59375-4.21875 3.98424-2.326244 6.125-3.84375 4.48601-3.427362 7.3125-6.1875c2.82649-2.760137 5.24511-5.609671 7.3125-8.34375s3.78173-5.359631 5.125-7.625c1.42615-2.40514 1.44317-2.700041 2.09375-4.0625v-2.375z" fill="#fff"/><path d="m184.3125 9.53125c-.44518.4596102-.75251.919709-1.21875 1.375-2.82649 2.760138-5.17174 4.669994-7.3125 6.1875s-4.0705 2.620206-6.09375 3.8125-4.1198 2.4655-6.59375 4.25-5.31964 4.080875-8.8125 7.375c-3.45788 3.26113-5.88878 5.98426-7.8125 8.46875s-3.36002 4.755909-4.8125 7.0625-2.92458 4.647569-4.96875 7.375-4.64497 5.815488-8.34375 9.5625c-3.69878 3.747013-6.65479 6.348697-9.21875 8.34375s-4.74272 3.408546-6.90625 4.78125-4.315 2.713784-6.8125 4.59375-5.34039 4.295661-8.90625 7.8125c-3.56586 3.516841-6.068035 6.366287-8.03125 8.875-1.963215 2.50871-3.379263 4.66322-4.8125 6.84375s-2.867824 4.37394-4.84375 6.90625-4.502468 5.40472-8.09375 8.96875c-3.591283 3.56403-6.545131 6.10252-9.21875 8.15625s-5.055462 3.63176-7.46875 5.21875-4.87721 3.2112-7.6875 5.375-5.979125 4.87208-9.84375 8.65625c-1.932313 1.89208-3.587543 3.62018-5.03125 5.25s-2.66229 3.16407-3.75 4.59375c-2.175419 2.85935-3.765419 5.38097-5.3125 7.8125s-3.051638 4.74929-5.03125 7.25c-.989806 1.25035-2.109399 2.54542-3.40625 3.90625-1.269365 1.33199-2.717017 2.75328-4.40625 4.25l-.03125 14.84375c.0236568.30758.0978302.57041.125.875.0816524-.05455.1366093-.0697.21875-.125 2.937592-1.97754 6.185505-4.43147 9.625-7.46875 1.736505-1.53344 3.234399-2.95167 4.53125-4.3125s2.385194-2.6559 3.375-3.90625c1.979612-2.50071 3.484169-4.84972 5.03125-7.28125s3.137081-4.95315 5.3125-7.8125c1.087709-1.42968 2.337543-2.93268 3.78125-4.5625s3.098938-3.38917 5.03125-5.28125c3.864623-3.78417 7.03346-6.49245 9.84375-8.65625s5.242961-3.78801 7.65625-5.375 4.79513-3.13377 7.46875-5.1875 5.658718-4.59222 9.25-8.15625c3.591283-3.56403 6.086574-6.46769 8.0625-9s3.410513-4.69447 4.84375-6.875 2.880534-4.36629 4.84375-6.875c1.96322-2.50871 4.46539-5.35816 8.03125-8.875s6.40875-5.932534 8.90625-7.8125 4.64897-3.221046 6.8125-4.59375 4.34229-2.786197 6.90625-4.78125 5.48871-4.565487 9.1875-8.3125c3.69879-3.747012 6.33083-6.835069 8.375-9.5625s3.51627-5.099659 4.96875-7.40625 2.85753-4.54676 4.78125-7.03125 4.35462-5.20762 7.8125-8.46875c3.49286-3.294125 6.33855-5.62175 8.8125-7.40625s4.5705-3.026456 6.59375-4.21875 3.98424-2.326244 6.125-3.84375 4.48601-3.427362 7.3125-6.1875 5.24511-5.609671 7.3125-8.34375c.28866-.381744.4445-.6861816.71875-1.0625z" fill="#fff"/><path d="m221.6875 11.90625c-.65058 1.362459-.6676 1.65736-2.09375 4.0625-1.34327 2.265369-3.05761 4.890921-5.125 7.625s-4.48601 5.583613-7.3125 8.34375c-2.82649 2.760138-5.17174 4.669994-7.3125 6.1875s-4.10175 2.651456-6.125 3.84375-4.1198 2.43425-6.59375 4.21875-5.31964 4.112125-8.8125 7.40625c-3.45788 3.26113-5.88878 5.98426-7.8125 8.46875s-3.32877 4.724659-4.78125 7.03125-2.92458 4.678819-4.96875 7.40625-4.67622 5.815488-8.375 9.5625c-3.69879 3.747012-6.62354 6.317447-9.1875 8.3125s-4.74272 3.408545-6.90625 4.78125c-2.16353 1.3727-4.315 2.71378-6.8125 4.59375s-5.34039 4.29566-8.90625 7.8125-6.06804 6.36629-8.03125 8.875-3.41051 4.69447-4.84375 6.875-2.86782 4.34269-4.84375 6.875-4.471217 5.43597-8.0625 9c-3.591281 3.56403-6.576381 6.10252-9.25 8.15625s-5.055461 3.60051-7.46875 5.1875-4.84596 3.2112-7.65625 5.375-5.979126 4.87208-9.84375 8.65625c-1.932312 1.89208-3.587544 3.65143-5.03125 5.28125s-2.693541 3.13282-3.78125 4.5625c-2.175419 2.85935-3.765419 5.38097-5.3125 7.8125s-3.051639 4.78054-5.03125 7.28125c-.989805 1.25035-2.07815 2.54542-3.375 3.90625s-2.794746 2.77906-4.53125 4.3125c-3.439497 3.03728-6.687408 5.49121-9.625 7.46875s-5.552959 3.47568-7.75 4.59375c-.898451.45722-1.378505.60041-2.125.9375.841981 2.0631 1.768247 4.04485 2.8125 5.9375 1.157665-.46148 2.448176-.9893 4.25-1.90625 2.197041-1.11807 4.843658-2.61622 7.78125-4.59375s6.185502-4.43147 9.625-7.46875c1.736504-1.53344 3.20315-2.98292 4.5-4.34375s2.416445-2.6559 3.40625-3.90625c1.97961-2.50071 3.484169-4.81847 5.03125-7.25s3.137081-4.95315 5.3125-7.8125c1.08771-1.42968 2.306293-2.96393 3.75-4.59375s3.098937-3.35792 5.03125-5.25c3.864625-3.78417 7.03346-6.49245 9.84375-8.65625s5.274212-3.78801 7.6875-5.375 4.795131-3.16502 7.46875-5.21875 5.627467-4.59222 9.21875-8.15625c3.59128-3.56403 6.11782-6.43644 8.09375-8.96875s3.41051-4.72572 4.84375-6.90625 2.84929-4.33504 4.8125-6.84375 4.46539-5.35816 8.03125-8.875 6.40875-5.93253 8.90625-7.8125 4.64897-3.22105 6.8125-4.59375 4.34229-2.7862 6.90625-4.78125c2.56396-1.995053 5.51996-4.596738 9.21875-8.34375 3.69879-3.747011 6.29958-6.835069 8.34375-9.5625s3.51627-5.068409 4.96875-7.375 2.88878-4.578009 4.8125-7.0625 4.35462-5.20762 7.8125-8.46875c3.49286-3.294126 6.33855-5.5905 8.8125-7.375s4.5705-3.057706 6.59375-4.25 3.95299-2.294994 6.09375-3.8125 4.48601-3.427363 7.3125-6.1875 5.27636-5.640922 7.34375-8.375c.91122-1.205073 1.48135-2.205688 2.25-3.34375z" fill="#00f" stroke="#00f"/><path d="m9.65625 198.3125c.209615 2.34993.556696 4.57229.96875 6.75 1.101205-.66133 2.002606-1.08756 3.21875-1.90625 2.937592-1.97753 6.185504-4.43147 9.625-7.46875 1.736504-1.53344 3.20315-2.98292 4.5-4.34375s2.416445-2.6559 3.40625-3.90625c1.979611-2.50071 3.484169-4.81847 5.03125-7.25s3.137081-4.95315 5.3125-7.8125c1.087709-1.42968 2.306294-2.96393 3.75-4.59375s3.098938-3.35792 5.03125-5.25c3.864625-3.78417 7.03346-6.49245 9.84375-8.65625s5.274212-3.78801 7.6875-5.375 4.795131-3.16502 7.46875-5.21875 5.627468-4.59222 9.21875-8.15625 6.117824-6.43644 8.09375-8.96875 3.410513-4.72572 4.84375-6.90625 2.84928-4.33504 4.8125-6.84375 4.46539-5.35816 8.03125-8.875 6.40875-5.932534 8.90625-7.8125 4.64897-3.221046 6.8125-4.59375 4.34229-2.786197 6.90625-4.78125 5.51996-4.596737 9.21875-8.34375 6.29958-6.835069 8.34375-9.5625 3.51627-5.06841 4.96875-7.375 2.88878-4.57801 4.8125-7.0625 4.35462-5.20762 7.8125-8.46875c3.49286-3.294125 6.33855-5.5905 8.8125-7.375s4.5705-3.057706 6.59375-4.25 3.95299-2.294993 6.09375-3.8125 4.48601-3.427363 7.3125-6.1875c2.82649-2.760138 5.27636-5.640921 7.34375-8.375 1.63432-2.161352 2.85174-4.102584 4.03125-6h-7.28125c-.27425.3763184-.43009.680756-.71875 1.0625-2.06739 2.734079-4.48601 5.583612-7.3125 8.34375s-5.17174 4.669994-7.3125 6.1875-4.10175 2.651456-6.125 3.84375-4.1198 2.43425-6.59375 4.21875-5.31964 4.112125-8.8125 7.40625c-3.45788 3.26113-5.88878 5.98426-7.8125 8.46875s-3.32877 4.724659-4.78125 7.03125-2.92458 4.678819-4.96875 7.40625-4.67621 5.815488-8.375 9.5625c-3.69879 3.747013-6.62354 6.317447-9.1875 8.3125s-4.74272 3.408546-6.90625 4.78125-4.315 2.713784-6.8125 4.59375-5.34039 4.29566-8.90625 7.8125-6.06803 6.36629-8.03125 8.875c-1.963216 2.50871-3.410513 4.69447-4.84375 6.875s-2.867824 4.34269-4.84375 6.875-4.471217 5.43597-8.0625 9c-3.591282 3.56403-6.57638 6.10252-9.25 8.15625s-5.055461 3.60051-7.46875 5.1875-4.84596 3.2112-7.65625 5.375-5.979127 4.87208-9.84375 8.65625c-1.932312 1.89208-3.587543 3.65143-5.03125 5.28125s-2.693541 3.13282-3.78125 4.5625c-2.175419 2.85935-3.765419 5.38097-5.3125 7.8125s-3.051638 4.78054-5.03125 7.28125c-.989806 1.25035-2.078149 2.54542-3.375 3.90625s-2.794745 2.77906-4.53125 4.3125c-3.439495 3.03728-6.687408 5.49121-9.625 7.46875-.0821407.0553-.1370976.07045-.21875.125z" fill="#00f" stroke="#00f"/><path d="m184.3125 9.53125h-174.21875l-.53125 173.0625c1.689233-1.49672 3.136885-2.91801 4.40625-4.25 1.296851-1.36083 2.416444-2.6559 3.40625-3.90625 1.979612-2.50071 3.484169-4.81847 5.03125-7.25s3.137081-4.95315 5.3125-7.8125c1.08771-1.42968 2.306293-2.96393 3.75-4.59375s3.098937-3.35792 5.03125-5.25c3.864625-3.78417 7.03346-6.49245 9.84375-8.65625s5.274212-3.78801 7.6875-5.375 4.795131-3.16502 7.46875-5.21875 5.627467-4.59222 9.21875-8.15625c3.591282-3.56403 6.117824-6.43644 8.09375-8.96875s3.410513-4.72572 4.84375-6.90625 2.849285-4.33504 4.8125-6.84375c1.963215-2.508713 4.46539-5.358159 8.03125-8.875 3.56586-3.516839 6.40875-5.932534 8.90625-7.8125s4.64897-3.221046 6.8125-4.59375 4.34229-2.786197 6.90625-4.78125 5.51997-4.596737 9.21875-8.34375c3.69878-3.747012 6.29958-6.835069 8.34375-9.5625s3.51627-5.068409 4.96875-7.375 2.88878-4.57801 4.8125-7.0625 4.35462-5.20762 7.8125-8.46875c3.49286-3.294125 6.33855-5.5905 8.8125-7.375s4.5705-3.057706 6.59375-4.25 3.95299-2.294994 6.09375-3.8125 4.48601-3.427362 7.3125-6.1875c.46624-.455291.77357-.9153898 1.21875-1.375z" fill="#00f" stroke="#00f"/><path d="m39.31062 56.954921h37.352084m-51.061837-18.606094 64.77159 37.352084m-41.688842-34.973862 18.606094 32.455743m0-32.595638-18.606095 32.595638m41.688844-34.833965-64.771592 37.352083m32.410824 18.610494-9.338027-21.178169-23.009844 2.502118 13.671818-18.676053-13.671819-18.676051 23.009845 2.502115 9.338025-21.178169 9.338027 21.178169 23.009844-2.502117-13.671818 18.676053 13.671819 18.676051-23.009845-2.502116zm.044919-74.708567v74.704168" fill="#ff0" stroke="#3f3f3f"/></g><path d="m10.083986 9.5200329h211.616914v188.4948071c-2.98854 52.75797-63.21857 61.95524-106.65439 84.02907-43.337678-22.95055-101.389368-30.80257-105.5264775-84.59302z" fill="none" stroke="#000" stroke-width=".865648"/><path d="m108.3039 183.03985c-1.2058.01572-2.11025-.10608-3.33515.33515-2.19159.78946-4.43801-.32964-5.15625.21875-1.023127.65389-.264779 2.84394-1.15625 3.75-3.125512 3.17666-5.244533 7.84172-5.1875 13.46875-1.515492.40302-4.614205-1.69357-4.5625 1.125 2.583265 3.2936 4.459144 8.51097 6.602353 10.51721 10.174387 5.36048 8.875367 7.16631 6.647647 7.04529-2.06995-.11245-3.060983.4787-3.40625 1.47305.565506 1.90532 1.195131 6.01164 1.6961 7.69809 4.08911 3.27185 6.72946 3.24458 3.8039 5.07886-.80394.50405-2.28138-1.90926-3.21875.46875.11826 2.11388-.79362 4.4549.09375 6.09375 1.90347 2.49328 4.82774 5.23224 2.82971 6.21445-.54044.26567-1.60107-2.3661-3.17346-.6207-.13819 1.60656-.908795 3.11215-.4375 4.53125 1.30638 2.74067 2.05733 6.58248-.565155 7.79851l.408905 4.82649 14.96445-2.99545-5.85004-3.24229 6.43614-3.39788c1.59239-1.25764 2.13166-2.30087 2.76195-3.83313-.16221-2.10123-1.80544.03091-2.53125-.4375-2.46052-1.58791 1.30245-1.69461 4.90625-5.625.9646-1.243 1.83313-5.39872 2.5625-8.34375-.41648-3.0221-3.26447.43409-4.09375.21875-3.60793-.93685 1.73273-2.69489 5.53125-7.71875.51588-1.31176.77358-8.00811.65625-12.71875-1.83154-2.24168-2.75857.46953-3.65625.5625-4.21157.43623-.2975-4.12616 2.90625-10.78125.93146-3.80058-1.71849-11.34564-3.28125-18.0625-3.17606-1.59865-1.95705 3.99243-3.6875 1.25-2.17755-3.45101-5.89121-4.94482-9.5086-4.89765z" fill="#ff0" fill-rule="evenodd" stroke="#262626"/><path d="m128.83345 233.68866c.4358-8.63082-.04985-16.5725 5.23276-16.89745l.76311-1.41721.10901 1.4172c5.16227 1.6927 3.66799 8.04092 3.81556 16.02533z" fill="#ff0" fill-rule="evenodd" stroke="#262626" stroke-linejoin="bevel" stroke-width=".960262"/><path d="m156.77983 249.34395c9.37527 1.4536 17.8045 3.74429 19.33027-1.8622l1.69345-.50474-1.49922-.43279c-.67003-5.92645-7.82721-5.73383-16.37765-7.67061z" fill="#ff0" fill-rule="evenodd" stroke="#262626" stroke-linejoin="bevel" stroke-width="1.054209"/><path d="m157.5 129.59375c-.35525.04719-.7321.42573-1.15625 1.4375-5.94468 8.04039-9.66524 4.58521-10.96875 12.1875-1.80785.6058-3.81145-1.77647-5 .40625-.06452 1.62654 1.83507 11.20854 2.59375 12.125 6.8679 6.49784 11.25587 6.02336 8.96875 10.8125-2.54501.30899-4.93439-2.83627-7-.375-.52021.9229.3068 9.32963 1.84375 11.5 2.69685 3.8474 7.53219 4.8497 5.40625 9.84375-2.19508.38116-2.33604-2.76525-4.40625-.78125-.69396 1.43139-.32958 8.69166.25 11.03125 1.49143 3.30882 4.92074 4.61884 3.375 8.9375-2.01884.41696-2.77199-2.48318-4.375-.59375-.52813 2.76113-1.72623 4.08825-1.625 6.59375.42588 2.19235 1.58501 3.14267 2.65625 5.5-.9599 6.30447-2.02751 1.26896-2.46875 3.5-.49605 2.50823.40053 6.91063.78125 9.40625.37779 2.4764-.18888 3.97852-.84375 4.5625-2.48213 2.21344-5.25485 4.5131-7.375 5.8125-1.16709.71527-2.47864 2.01834-2.65625.78125l-.15625-1.125c-.119-.82887 3.65388.15858 4.1875-8.90625.02226-.37807.25772-.30119-.375-1.09375-4.19439.05835-7.09097.03262-11.0625-.21875-.78644.60462-.71089 1.30045-.71875 1.875-.03869 2.82798.23885 5.29089 1.6875 7.46875.34401.51717 2.26127.99909 2.28125 1.6875l.0625 2c.02533.87269-1.32274 1.56178-1.96875 2.125-.981.85528-2.95268 1.93103-4.40625 2.875-12.99043 8.43617-17.49707 9.35237-32.21875 8.625l-.731966 7.94945c17.717206.74923 27.791736-5.25952 36.044466-11.07445 4.27341-3.33167 7.96168-5.85147 12.78125-9.3125.60248-.43265 2.84988-2.20376 3.5625-2.40625 4.01042-1.13958 5.83754.08908 7.5625.09375.97694 7.08095 4.2089 7.04943 7.125 7.625.29491.0582.95397-.22291 1-.4375.74204-3.45979 1.65335-6.68928 3.0625-10.78125.11081-.3218-.26426-1.12024-.5625-1.1875-2.687-.60598-4.61385-1.03278-6.875.6875-1.88905.47387-6.08268-.0453-5.59375-.40625 1.67587-1.2372 3.31496-2.44605 4.90625-3.625 3.67711-1.19659 8.09607-2.18144 10.3125-3 1.90699-.59269 3.9009-1.95187 4.375-4.03125-.01555-1.10262-.8013-1.38833-2.3125-1.40625-1.0688-3.27309 2.39539-.90232 7.15625-2.5625 3.05095-1.67708 6.42532-5.34634 8.03125-7.5625.22473-2.65186-1.54734-1.62158-3.03125-2.71875-1.04673-3.82253 4.47895-.91215 8.8125-3.0625 2.5519-1.49846 5.55894-6.21312 8.6875-9.75.19535-2.6968-.80759-2.13099-3.34375-2.375-4.15797-3.18442 4.8667-2.43734 10.4375-5.46875 3.22209-2.23827 6.54187-7.70774 9.5-12.1875 1.60047-4.49953-2.30847-1.88852-3.34375-3.8125 1.29426-10.28676-3.53739-8.47076-3.75-15.09375-.041-.95708-.13794-1.5657-.78125-1.46875-.21444.03232-1.85787.03025-1.71875.125-6.3572 1.02082-11.36454-2.25624-18.28125 3.28125-1.71227-.25568-1.81713-2.97792-3.75-.375-1.82139 6.17978-3.35463 10.52207-4.46875 15.21875.68356 4.69931 3.97286 8.50305.15625 8.09375-.50848-.68581-1.89312-1.66451-2.78125-.625-1.32293 2.31223-2.90785 6.68483-3.375 8.96875-.6113 3.63072 3.08238 12.60105-.65625 11.84375-.49156-1.69218-1.18491-4.31583-3.3125-2.46875-.63654 1.96672-3.14631 5.19252-3.78125 7.65625-.14675 2.52753.59215 4.7205-1.0625 6.75-1.34982-.89474-2.45705-.17153-2.40625 1.125-.46652 7.32783-2.73212 2.54653-4.21875 4-.19171.24118-.37521.48964-.5625.71875-.18036.52136-.28959 1.94102-.21875 3.28437.33064 1.39656-.48075 1.83916-.9375 1.99688-1.19924.77418-2.39807 1.54312-3.65625 2.375-.54635.36124-.61562-6.41776 2.40625-12.71875 1.69781-1.52543 3.82507-2.00997 5.59375-3.3125 1.21886-1.42716 1.91289-2.66386 2.625-5.0625-.29951-.83542-1.83423-1.04717-2.25-1-1.91233-3.75626 2.54898-4.47862 6.34375-7.1875 1.8879-2.41765 3.94861-8.48165 4.25-9.84375-.56868-2.39623-2.27905-.8608-3.75-1.71875-2.34694-4.27277 4.02175-7.50658 8-12.0625 1.32723-1.71176 1.95314-11.14483 1.9375-13.5625-.98093-1.82827-2.86833.07254-4.90625 1-4.88092-1.59426 2.52761-5.80257 5.3125-13.3125.10115-2.54885.01801-14.52763-.59375-16.125-1.78286-2.20586-3.17678 1.36393-5.09375 1.09375-5.03073-7.51005-8.25636-5.19991-11.5-7.875-.57374-.17819-1.09541-.9849-1.6875-.90625z" fill="#ff0" fill-rule="evenodd" stroke="#262626"/><path d="m106.28519 191.93964c8.18124 31.05489 6.36689 46.2547 2.24772 57.79859" fill="#ff0" fill-rule="evenodd" stroke="#262626"/><path d="m200.24487 169.71479c-10.30423 18.88587-21.58388 37.92181-40.16485 58.08103" fill="#ff0" fill-rule="evenodd" stroke="#262626"/><path d="m152.42423 214.48522c5.13952-14.33557 9.29192-32.19655 8.11153-69.10324" fill="#ff0" fill-rule="evenodd" stroke="#262626"/><path d="m95.969389 261.63052c0 2.5915-3.142528 3.93049-4.167075 3.93049s-2.347493-.91481-2.602096-3.49377c-.25584-2.5915 2.34965-4.58556 3.712126-4.58556 1.024547 0 3.057045 1.55734 3.057045 4.14884z" fill="#ff0" stroke="#262626"/><path d="m103.53929 254.87059 8.8422-.57046-6.99867 4.29822-6.122013 1.02611z" fill="#fffe00"/></g></svg>