<svg height="300" width="471.42999" xmlns="http://www.w3.org/2000/svg"><g transform="matrix(1.714291 0 0 1.714292 -.000001 -.001087)"><path d="m.000002 87.500328h275v87.499664h-275z" fill="#009645"/><path d="m.000002.00066h275v87.499664h-275z" fill="#fff"/></g><g transform="matrix(.425532 0 0 .425532 188.9055 14.99985)"><path d="m.49796714.49836885v194.56018115c3.07100486 54.22042 64.71931886 63.87139 109.50187286 86.44346 44.78254-22.57207 106.43087-32.22304 109.50188-86.44346v-194.56018115z" fill="#003c87"/><g transform="matrix(.40055 0 0 .40055 -125.2508 -15.41559)"><path d="m744.25005 115.49629c-32.99084 16.8164-64.89634 35.91118-71.71906 54.25064-3.85247 10.35542-5.37717 20.01828.56304 35.84702 5.10379 13.59996 11.26834 22.24252 10.08591 29.35816 1.1392 12.09648-9.8583 21.05322-23.54512 24.67423-25.7505 6.81261-61.02039-5.26163-42.89379-50.84713l-27.51511-3.3555 14.0931-62.41232c-16.43789-.18942-27.33144 2.87655-34.30128 8.74976-22.80594 19.21766-24.59125 36.17979-24.08443 46.28045 1.45332 57.11817-14.10398 64.21249-28.04117 65.00573-14.24846-.21841-22.65763-21.58455-18.26474-34.13512 9.19535-21.61949 18.53575-30.39098 10.7376-55.03021-18.88184-33.66296-54.92207-43.89462-74.49211-56.37241l-10.7376 36.91051-12.07981 36.9105-2.0133 36.91051 3.3555 34.89721 7.38211 30.1995 14.0931 31.54171 17.4486 23.4885 19.46191 16.10641 28.8573 14.7642 182.53924 6.711 27.5151-16.1064 20.80411-21.47521 12.0798-28.1862 13.422-28.18621 11.40871-32.8839 2.0133-31.54171-4.6977-37.58161-7.38211-35.5683z" fill="#fff" fill-opacity=".980263" fill-rule="evenodd" stroke="#000" stroke-width="2.5"/><path d="m587.89601 152.91593c-6.91353 8.36791-23.49304 2.34763-21.63159 31.87989 5.63146-13.25661 20.9727-.77901 21.63159-31.87989z" fill-rule="evenodd"/><path d="m582.05618 167.16893a5.2065096 5.2696185 0 1 1 -10.41302 0 5.2065096 5.2696185 0 1 1 10.41302 0z" fill="#fff" transform="matrix(1.240972 0 0 1.240972 -141.0951 -39.53347)"/><g fill="#ff0" fill-rule="evenodd" stroke="#000" stroke-width="2.5"><path d="m649.0543 161.4401c-3.85971 3.86179-9.31989 6.31796-13.04165 8.02755-10.59548 4.86701-38.67376 13.13453-47.07755 41.08886l5.55361 2.7768c8.07939-21.20704 54.77898-25.01507 60.01327-51.19642.15486-.77457 3.60984-10.41405-5.44768-.69679z"/><path d="m644.72364 164.86544c4.56964-11.11101-6.66684-30.22503-21.20469-30.03998-15.3127.18844-30.28633 16.23517-34.92333 33.99628-5.18465 20.4512-4.76333 37.68236-1.6887 51.74085l2.09087.47421c10.07658-6.28686 20.15315-14.28432 30.22973-11.49004 5.63429-7.78264 11.74699-12.37446 21.44844-15.63804 1.13481-1.41182 1.75628-2.4616.16756-2.98061-18.60603-6.0783-41.15362 12.86988-47.3689 17.85265l-1.51027-2.51568c4.93764-12.52422 5.72665-26.69114 19.43763-39.88502 15.41531-14.82754 27.12827-1.55846 33.32166-1.51462z"/></g></g><g fill-rule="evenodd"><g stroke="#000" transform="matrix(.40055 0 0 .40055 -125.2508 -15.41559)"><path d="m345.03638 331.43735c-13.19108 19.95446-9.78803 53.91633-5.2765 77.00853l30.65498 141.04677 35.79179-8.13786-31.52896-147.76337c-8.49405-36.69627-18.75042-51.7351-29.64131-62.15407z" fill="#fff" stroke-width="2.5"/><path d="m352.11784 378.20172 38.74483 167.8943-4.30497 1.18758z" stroke-linecap="square"/></g><g fill="#ff0" stroke="#000" stroke-width="2.5" transform="matrix(.40055 0 0 .40055 -125.2508 -15.41559)"><path d="m456.04169 508.22312-49.6998 49.23962-16.79669 31.06237 5.06201 22.77908 19.09761-3.91156-5.52219-24.8499 47.62897-54.07154z"/><path d="m356.87218 550.0998 58.21319-13.57541c18.03935-3.36139 17.05599 15.20891 3.91156 15.64623l-60.05393 14.72587c-13.01965 1.12794-15.27418-13.20733-2.07082-16.79669z"/><path d="m401.97015 557.46274c-6.90275-1.78752-21.16844.58218-29.68183 4.37174-16.36319 8.69064-.431 18.56579 3.91156 14.95596l28.76146-4.83193z"/><path d="m406.73411 569.96787c-6.90275-1.78752-21.77356.17876-29.68183 4.37174-16.36319 8.69064-.431 18.56579 3.91156 14.95596l28.76146-4.83193z"/><path d="m412.25631 581.70255c-6.90275-1.78752-21.37015.78389-29.68183 4.37174-16.36319 8.69064-1.35137 16.95515 3.91156 14.95596 3.87488-1.27897 5.64494-2.57629 6.95111-3.25866 9.55497-4.99172 19.5822-2.64582 20.88998-5.02464z"/><path d="m406.97205 553.85787c-9.48605 1.08686-13.28332 7.36615-6.41373 15.05415l8.10939 1.2269c13.94452.47325 14.1038-17.90295-1.69566-16.28105z"/><path d="m409.8295 566.9304c-8.81473 1.00861-12.34326 6.83585-5.95983 13.97039l7.53548 1.13857c12.95768.43918 13.10569-16.6141-1.57565-15.10896z"/><path d="m412.20588 579.87161c-8.16922 1.0111-11.43936 6.8527-5.52339 14.00481l6.98366 1.14138c12.00878.44026 12.14595-16.65504-1.46027-15.14619z"/><path d="m392.7245 607.33125 21.98612-5.04269c12.45081-3.05393 11.64941 8.03821 6.98134 11.02371-.7661.48997-2.21033 1.00649-2.54377 3.09582 1.01854 9.78735-16.09601 17.75411-24.60832 4.43756-.51914-.19449-.81354-1.886-2.67891-1.71486-4.16986.38256-11.21375-9.4711.86354-11.79954z"/></g><g fill="#ff0" stroke="#000" stroke-width="2.5" transform="matrix(.40055 0 0 .40055 -125.2508 -15.41559)"><path d="m742.04563 582.31264c.80897 5.91071 3.42266 9.56552 6.67266 12.42495-5.07397 5.64294-19.52163 1.20173-21.62861-16.5666z"/><path d="m804.86066 568.73723c18.50113 17.58612 4.30402 28.09763-2.7611 31.29246-.17264-7.85966 1.2014-12.05751-6.44257-14.72586z"/><path d="m832.01148 519.03743c10.26412 5.12919 13.35654 13.53337 7.82311 23.00917-4.37174-5.70424-8.74348-8.47987-13.11523-11.2745z"/><path d="m799.56856 486.82459c14.6278-12.98932 25.71065-7.39895 28.53136 4.37174-6.5612-.86242-13.12627.03273-18.17724 3.91157z"/><path d="m681.53153 470.0279 16.79669.46018 57.753 56.37246c5.54155-3.70679 11.48929-6.79531 18.86752-8.0532l12.88514-13.11523c-1.90886-3.22684-6.08075-24.44616 13.8055-21.62862 2.26618 2.43116 3.65034 4.2743 7.59302 7.82312 1.61064 1.23376 3.22129 1.62851 4.83193 2.30092.29746 16.72827-7.80007 13.30858-13.11522 16.5666l-11.2745 14.03559c6.51927-1.52945 13.72881-2.60984 20.24807-4.83193 14.68882-21.03879 25.66068-3.41298 25.77026.92037-4.96597 4.8949-4.58136 9.02544-5.5222 13.34532-9.15818 5.48843-11.68378 1.85705-16.3365 1.15046-10.41599 3.18004-22.27157 5.40035-34.51375 7.36293l15.18605 11.96477c6.52063 3.55657 14.30627 4.99707 14.95595 17.94715l-3.91155 1.84073c-5.22624 4.37174-5.13056 8.74348-7.59303 13.11522-14.10548.80801-15.98709-13.22724-22.31889-21.8587l-13.57541-13.11523c-1.69791 5.15804-2.77662 10.22082-12.19486 16.5666 2.25319 9.17286-.26628 14.67443-5.98238 17.71706-6.50665-4.16449-12.49502-6.90371-16.5666-4.37174-7.65802-9.01686-3.7851-15.89836 5.06201-21.85871 3.36344-1.50208 19.98251-7.3657 12.65505-21.39853l-61.20439-53.61136z"/></g><g fill="#fff" stroke="#000" stroke-linecap="round" stroke-linejoin="round" transform="matrix(.40055 0 0 .40055 -125.2508 -15.41559)"><path d="m348.60548 59.610671c.87894-3.640439 3.64154-1.769099 7.68438 2.650921 12.60679 13.78293 51.62569 42.174658 78.76529 56.011348 1.71504 7.35961 1.61597 11.09101 6.73633 25.26127-10.74641 3.28356-12.53263 5.25967-17.12152 7.85906-45.10469-20.37108-83.66883-48.61999-76.06448-91.782599z" stroke-width="2.5"/><path d="m339.58411 100.91518c.89422-3.714923 3.60866-1.686187 7.5373 2.98584 12.54237 14.91571 47.57616 39.91517 75.64373 52.66654 1.74486 7.51021 2.76678 9.07252 7.97616 21.0066-8.40711 4.47346-14.43459 7.8934-17.69985 12.79143-43.64341-17.41973-77.82572-47.93074-73.45734-89.45041z" stroke-width="2.547306"/><g stroke-width="2.5"><path d="m337.91575 161.29953c.87894-3.64043 2.8489-.8845 7.68438 2.65093 25.64423 18.74957 44.94122 24.27094 66.41534 30.46939 2.55708 5.11416 7.22958 11.3717 13.47267 17.96357-9.06233 7.77446-11.40991 11.15397-14.87608 15.43744-28.60432-7.70606-70.75421-18.30472-72.69631-66.52133z"/><path d="m338.62874 258.60099c-.85347-3.64649 2.39749-3.05854 8.05523-1.09104 22.46225 7.81135 43.77891 8.35883 66.63541 6.7112 4.84372 5.80031 7.55728 8.33502 14.57755 13.91314-6.99612 8.04932-6.0178 12.02128-7.26176 15.8464-33.0632 5.39623-74.53236 2.93138-82.00643-35.3797z"/><path d="m336.72848 210.45283c-.24934-3.73671 2.99077-1.72914 8.12544 1.35569 16.94634 10.18111 36.89892 15.5621 65.52197 19.24292 2.43295 4.8265 7.10253 9.25898 13.13668 15.07609-5.34421 5.78409-6.73882 10.16852-10.341 14.02066-35.37821.7778-78.93871-9.32044-76.44309-49.69536z"/><path d="m346.45627 304.87571c-1.69129-3.34137 1.62262-3.6866 7.569-2.96434 20.05258 2.43563 45.69125 1.72867 67.93307-5.9031 6.0776 4.49088 5.05342 3.46632 15.89404 9.81147-3.8068 7.50294-3.04332 13.25303-4.29008 17.64599-36.88104 15.14042-75.85543 18.35847-87.10603-18.59002z"/><path d="m361.61811 345.77994c-1.68738-3.34335 2.70518-3.26669 8.69519-3.23616 26.98086.13752 50.94139-8.67092 66.53945-15.61428 4.66894 2.25254 9.81634 3.47617 15.31529 3.94234-1.29176 6.37313-.5314 12.12311-.66122 15.11057-20.87519 17.32061-69.07773 39.93162-89.88871-.20247z"/><path d="m393.91894 388.39924c-5.15981-3.63778-2.72094-5.87834 2.91643-7.90348 13.19407-4.73977 27.52268-8.84413 56.70976-31.67272 7.53081.62622.94725.74287 16.00511.21813-.17273 11.23554.59852 9.89315 1.66425 15.05832-16.8132 21.45063-49.34277 46.07961-77.29555 24.29975z"/><path d="m425.39219 417.68932c-3.40638-1.55623-1.04312-3.91183 4.066-7.03881 15.93177-9.75085 26.81625-20.19339 45.56878-44.20078 7.55154-.2819 7.26623.52606 22.15234-1.80164 1.17664 11.17509-1.43386 7.69137.24393 12.69135-24.24283 33.51799-43.35615 50.52308-72.03105 40.34988z"/><path d="m461.86846 428.22174c-3.40638-1.55623-.6339-3.32504 4.066-7.03881 13.40564-10.59289 16.99242-17.38658 35.74495-41.39397 7.55154-.2819 15.94692 5.88973 17.62471 10.88971-18.31626 34.72909-24.03661 44.09157-57.43566 37.54307z"/></g></g><g fill="#fff" stroke="#000" stroke-linecap="round" stroke-linejoin="round" stroke-width="2.5" transform="matrix(.40055 0 0 .40055 -125.2508 -15.41559)"><path d="m756.83448 417.72222c3.40638-1.55623 1.26678-4.31069-4.066-7.03881-14.43512-7.38465-22.40501-13.21986-45.19078-38.9968-5.1559.72639-8.97037.84397-17.49822.74166-2.03726 5.28241-3.41218 8.53629-6.04371 12.26462 18.12174 32.36144 52.12113 45.59275 72.79871 33.02933z"/><path d="m713.55465 435.57463c3.71424-.47924 2.53845-3.79882-1.80252-7.92642-11.03654-10.50969-24.285-33.00784-29.66009-41.77122-7.13039-2.50253-16.66325 1.50074-19.74465 5.78089 14.74762 42.35738 36.60716 43.44301 51.20726 43.91675z"/><path d="m800.09551 388.49703c2.87364-2.40155-6.2385-4.88146-11.95339-6.67626-21.53981-6.76471-34.09432-13.94123-58.52742-32.13562-7.35731 1.72491-3.26128 1.03076-18.23305 2.72208.24655 8.16609.43775 11.23381.14177 16.49947 26.17935 29.49209 68.16893 44.21299 88.57209 19.59033z"/><path d="m826.26758 343.85376c1.77643-3.2969-1.5012-3.25529-7.49049-3.1575-19.03274.31074-46.7035-5.04372-76.70129-17.86455-5.29159 2.53514-9.95729 3.13105-14.01385 4.41609 3.00565 15.03492 2.49207 15.72547 3.00218 19.30582 17.36134 14.23153 79.62677 34.02359 95.20345-2.69986z"/><path d="m840.07618 296.11787c1.40741-3.47051-1.87113-3.24909-7.78941-2.32431-19.83331 3.09911-47.19723 4.54464-77.09183.51022-5.68287 4.98098-9.35062 6.04773-15.4756 9.18335 2.54785 7.13293 2.84768 12.02773 4.61214 16.81445 40.15114 12.89738 81.22639 14.25515 95.7447-24.18371z"/><path d="m844.42432 253.4508c.64543-4.48055-2.24746-3.41463-7.96442-1.62645-14.52161 4.54214-36.34872 11.86162-70.00371 10.85598-5.22019 5.46397-11.07929 9.62616-14.82775 12.25291 3.31087 8.74298 3.16917 12.70172 4.89861 15.92513 40.30317 7.70227 84.77787-2.8223 87.89727-37.40757z"/><path d="m849.65852 201.68993c.64164-3.68966-2.61421-4.05055-6.98078.04996-7.09048 6.65846-28.45612 19.89552-72.74015 28.37664-4.21044 4.68847-6.78905 8.29442-12.6319 14.20296 5.63119 5.35385 7.83278 8.31063 11.00905 13.79621 41.84274-2.54726 78.5702-17.84631 81.34378-56.42577z"/><path d="m848.02548 157.39718c-.61806-4.48442-3.083-2.95079-7.87891.63814-13.59977 10.17714-41.5456 27.06575-74.16758 35.40098-3.50669 6.69392-9.11119 13.88692-11.98765 17.44737 8.52071 6.13855 13.74983 12.45504 16.3028 15.0749 41.31164-10.93046 73.72674-26.36842 77.73134-68.56139z"/><path d="m847.26073 99.360636c-1.25907-4.348184-4.01553-2.218741-7.47941 2.668254-12.11926 17.09842-54.2249 43.92501-81.31734 54.28111-2.50343 7.13009-5.43706 18.6537-7.76929 22.59216 9.09294 5.29356 11.3577 8.76567 14.26219 10.98946 46.40671-19.14944 89.75759-43.45753 82.30385-90.530984z"/><path d="m837.90978 55.687124c-1.24532-4.352149-3.73581-1.613375-7.70976 2.868689-17.81151 20.08891-56.95871 44.127717-85.50791 57.437067-.50277 10.26933-2.78703 21.10425-4.68212 24.58573 9.30239 4.87339 14.02254 9.48869 16.91999 11.72165 24.30141-14.74203 82.54887-36.54628 80.9798-96.613136z"/></g><g fill="#fff" stroke="#000" stroke-linecap="round" stroke-linejoin="round" stroke-width="2.5" transform="matrix(.40055 0 0 .40055 -125.2508 -15.41559)"><path d="m524.52785 482.09745c-13.22402 18.35031-22.23962 39.03863-30.88635 59.93188l29.42933 10.00517 25.74072 9.71347 22.341 7.86708 30.59745 1.8464 23.50634-6.31516 25.74072-9.90746 25.54673-15.34618c-4.43295-15.5587-15.07504-36.0847-27.19774-57.7952z"/><path d="m676.44228 540.14088c12.92189 27.59678 14.92665 78.22757 10.66943 81.28171-1.26682.19142-24.82245-17.13859-36.66406-66.15051 2.84518-4.59 5.69037-10.35744 8.53555-16.48913 7.05033 1.06796 12.4603 1.31575 17.45908 1.35793z"/><path d="m650.1965 555.48915c15.63775 50.48757 15.31463 84.04726 12.22135 86.32544-2.81874.77339-26.37437-25.09217-36.85805-77.20793 3.26877-4.04363 7.47165-9.42286 10.66944-14.35524 5.99112 2.12717 9.50991 4.07215 13.96726 5.23773z"/><path d="m493.81018 541.76984c-12.14593 28.76072-16.86655 88.31504-12.60933 91.36918 1.26682.19142 21.33064-20.04844 42.28977-81.4757-2.84518-4.59-4.72043-7.4476-7.56561-13.57929-7.05033 1.06796-17.11605 3.64363-22.11483 3.68581z"/><path d="m545.95784 561.09177c4.96422-.6617 10.16748-1.92698 16.41846-2.71586 3.28334 4.49745 5.93286 7.72727 8.72954 11.25141-.62286 11.97487-2.47531 27.24828-3.40146 36.43438-3.12866 31.03185-21.3893 54.29164-22.39918 53.77086-6.72059-3.54227-10.0154-35.85526-8.24723-52.01315 1.62418-14.84201 5.74598-26.53064 8.89987-46.72764z"/><path d="m523.74177 551.6864c-24.75526 54.94933-11.62883 88.65033-9.89348 90.98119 2.81874.77339 23.03768-25.42185 33.36624-81.86368-3.26877-4.04363-6.88968-7.28898-10.08747-12.22136-5.99112 2.12717-8.92794 1.93827-13.38529 3.10385z"/><path d="m624.95322 565.03549c-3.71836-1.40117-7.53941-3.00775-11.79674-5.48686-4.48867 4.89732-8.12299 8.8038-11.52241 12.07109l1.64606 28.25732c3.03272 27.9443 22.03233 54.53795 25.51389 55.69162 3.95798-.20587 9.68737-42.64633.54869-74.89562z"/><path d="m570.90766 569.69932c5.96723-1.76028 10.4508-4.01511 14.81452-6.30989 5.12107 3.43645 10.24214 5.5435 15.36321 7.95595l1.9204 29.08035c1.28009 26.84058-9.68239 65.03058-17.28361 67.21402-7.70421-3.94999-20.05418-33.32434-16.3705-77.9134z"/></g><g transform="matrix(.40055 0 0 .40055 -126.0519 -15.41559)"><path d="m524.79109 479.033c-18.68974 28.83279-38.04493 68.23521-55.00206 116.993-1.52894-15.2937-8.43403-58.24244 18.1563-94.67194-12.3713 11.4435-27.78989 34.14746-35.15391 53.03646-7.05489-25.93783-1.32193-43.43899 24.91104-76.64591-26.18897 34.30953-36.68346 35.12367-59.07556 27.13661 19.85704-13.27267 36.55278-25.22814 46.03439-34.17772-12.28562 8.70072-27.16447 20.32006-35.6548 24.90009-9.51079 2.38463-18.22357.77917-26.88249-1.09552 39.24405-19.09043 77.01181-41.22518 99.83871-66.36403z" stroke="#000" stroke-linecap="round" stroke-linejoin="round" stroke-width="5"/><path d="m524.791 479.0326c-18.68974 28.83279-38.04493 68.23521-55.00206 116.993-1.52894-15.2937-8.43403-58.24244 18.1563-94.67194-12.3713 11.4435-27.78989 34.14746-35.15391 53.03646-7.05489-25.93783-1.32193-43.43899 24.91104-76.64591-26.18897 34.30953-36.68346 35.12367-59.07556 27.13661 19.85704-13.27267 36.55278-25.22814 46.03439-34.17772-12.28562 8.70072-27.16447 20.32006-35.6548 24.90009-9.51079 2.38463-18.22357.77917-26.88249-1.09552 39.24405-19.09043 77.01181-41.22518 99.83871-66.36403z" fill="#fff"/></g><g transform="matrix(.40055 0 0 .40055 -125.2508 -15.41559)"><path d="m674.22621 423.69143c52.70395 49.28905 69.07133 51.50572 96.96883 68.65914-41.37187 2.04314-39.55709-6.09676-65.73055-23.75411 7.76959 9.79079 20.52602 21.86038 41.00024 35.79387-9.55695.02817-29.14032-.63322-59.22257-29.28589 47.25337 54.45377 37.14566 65.72673 35.46847 77.1195-15.47784-29.77249-28.06971-41.43371-39.37325-54.01619 15.23501 23.9652 30.90773 47.52723 23.42871 92.41325-12.88491-32.02632-22.63195-59.15014-54.89709-108.79485z" stroke="#000" stroke-linecap="round" stroke-linejoin="round" stroke-width="5"/><path d="m674.22623 423.69109c52.70395 49.28905 69.07133 51.50572 96.96883 68.65914-41.37187 2.04314-39.55709-6.09676-65.73055-23.75411 7.76959 9.79079 20.52602 21.86038 41.00024 35.79387-9.55695.02817-29.14032-.63322-59.22257-29.28589 47.25337 54.45377 37.14566 65.72673 35.46847 77.1195-15.47784-29.77249-28.06971-41.43371-39.37325-54.01619 15.23501 23.9652 30.90773 47.52723 23.42871 92.41325-12.88491-32.02632-22.63195-59.15014-54.89709-108.79485z" fill="#fff"/></g></g><g transform="matrix(.40055 0 0 .40055 -125.2508 -15.41559)"><path d="m493.53565 274.28321v164.05838c2.58379 45.72015 55.84588 65.51597 93.5238 84.54937 37.67789-19.0334 88.15168-38.82922 90.73549-84.54937v-164.05838z" fill="#007838" stroke="#000" stroke-width="2"/><g fill-rule="evenodd"><path d="m512.50025 305.31275c-3.3604 10.92999-5.28195 22.21388 14.125 32.3125 7.21478-22.55132-2.94471-25.50009-14.125-32.3125zm21.75 10.375c1.03138 10.5703-5.35868 18.06579-4.03125 28.875-7.0515-8.30445-16.92249-8.64103-24-16.5625 2.2511 5.28396 5.78414 15.12214 8.1875 17.28125 3.57835 4.00088 14.58786 8.43607 20.5 11l.5625.21875.15625-.59375c1.96487-6.14547 6.36158-17.1327 5.84375-22.46875.04018-3.23053-4.85734-12.51439-7.21875-17.75zm8.71875 19.375c.88906 10.50949-5.55503 17.90577-4.375 28.65625-6.89599-8.33635-16.69823-8.82482-23.625-16.78125 2.16785 5.27576 5.54731 15.10655 7.90625 17.28125 3.5022 4.01861 14.38074 8.53473 20.21875 11.15625l.53125.25.1875-.59375c2.02959-6.07731 6.50854-16.94468 6.0625-22.25.0812-3.20739-4.62825-12.4896-6.90625-17.71875zm8.71875 19.875c.59088 10.53045-6.06239 17.72039-5.1875 28.5-6.65701-8.52846-16.42651-9.28795-23.125-17.4375 2.01744 5.33506 5.07863 15.25931 7.375 17.5 3.38693 4.11622 14.14488 8.93284 19.90625 11.71875l.5625.25.15625-.5625c2.20101-6.01736 7.01425-16.74667 6.71875-22.0625.17205-3.20383-4.27737-12.61465-6.40625-17.90625zm7.84375 19.5625c.2218 10.54465-6.65203 17.47766-6.15625 28.28125-6.32898-8.7558-16.054-9.84019-22.4375-18.21875 1.82241 5.40227 4.54239 15.43047 6.75 17.75.14261.18698.32991.37204.5.5625 1.5073 5.60136 3.55308 15.08395 5.5625 17.4375.36376.5349.57461 1.29205 1.1315 1.86025 1.27405 5.35825 3.3146 14.94865 5.21225 17.3585.4603.7369.08543 1.33328.88623 2.13975.8427 5.78382 2.85986 15.20121 4.52002 17.704 2.25774 4.36413 10.33258 10.35101 15.5 14.34375 2.0492 11.80159 3.29454 23.07341 4.21875 34.125l2.09375-.25c-.91081-11.0686-2.14882-22.49105-3.8125-34.3125 3.50633-5.56576 9.72772-13.98235 10.4375-18.8125.80334-3.10256-1.62946-13.23064-2.625-18.84375-1.52747 10.43187-9.3525 16.14161-10.65625 26.875-4.29317-8.84326-14.70268-14.06625-19.75229-21.61078 4.08155 3.64878 12.76116 9.71971 16.59604 12.23578l.46875.3125.25-.53125c2.79035-5.49319 8.61964-15.19165 8.96875-20.3125.54116-3.04442-2.58311-12.5579-3.96875-17.875-.6864 10.14484-7.80248 16.20777-8.25 26.625-5.24065-8.88801-14.71512-11.32653-20.0955-19.76001 4.06996 4.08391 12.85402 9.33304 17.62675 12.19751l.53125.3125.21875-.5625c2.74734-5.79644 8.52292-16.05396 8.71875-21.375.46682-3.17563-3.95163-12.94533-5.58426-18.40625-.38247 10.54129-6.82445 17.09142-6.94699 27.90625-5.37951-8.36654-13.98184-10.43041-19.9375-17.5 4.3394 3.81056 12.75693 8.00099 17.59375 10.5625l.53125.28125.1875-.5625c2.40005-5.93678 7.57794-16.48959 7.46875-21.8125.28266-3.19586-3.81519-12.76227-5.75-18.125z" stroke="#000" stroke-linecap="round" stroke-linejoin="round" stroke-width="8"/><path d="m512.5 305.3125c-3.3604 10.92999-5.28195 22.21388 14.125 32.3125 7.21478-22.55132-2.94471-25.50009-14.125-32.3125zm21.75 10.375c1.03138 10.5703-5.35868 18.06579-4.03125 28.875-7.0515-8.30445-16.92249-8.64103-24-16.5625 2.2511 5.28396 5.78414 15.12214 8.1875 17.28125 3.57835 4.00088 14.58786 8.43607 20.5 11l.5625.21875.15625-.59375c1.96487-6.14547 6.36158-17.1327 5.84375-22.46875.04018-3.23053-4.85734-12.51439-7.21875-17.75zm8.71875 19.375c.88906 10.50949-5.55503 17.90577-4.375 28.65625-6.89599-8.33635-16.69823-8.82482-23.625-16.78125 2.16785 5.27576 5.54731 15.10655 7.90625 17.28125 3.5022 4.01861 14.38074 8.53473 20.21875 11.15625l.53125.25.1875-.59375c2.02959-6.07731 6.50854-16.94468 6.0625-22.25.0812-3.20739-4.62825-12.4896-6.90625-17.71875zm8.71875 19.875c.59088 10.53045-6.06239 17.72039-5.1875 28.5-6.65701-8.52846-16.42651-9.28795-23.125-17.4375 2.01744 5.33506 5.07863 15.25931 7.375 17.5 3.38693 4.11622 14.14488 8.93284 19.90625 11.71875l.5625.25.15625-.5625c2.20101-6.01736 7.01425-16.74667 6.71875-22.0625.17205-3.20383-4.27737-12.61465-6.40625-17.90625zm7.84375 19.5625c.2218 10.54465-6.65203 17.47766-6.15625 28.28125-6.32898-8.7558-16.054-9.84019-22.4375-18.21875 1.82241 5.40227 4.54239 15.43047 6.75 17.75.14261.18698.32991.37204.5.5625 1.5073 5.60136 3.55308 15.08395 5.5625 17.4375.36376.5349.57461 1.29205 1.1315 1.86025 1.27405 5.35825 3.3146 14.94865 5.21225 17.3585.4603.7369.08543 1.33328.88623 2.13975.8427 5.78382 2.85986 15.20121 4.52002 17.704 2.25774 4.36413 10.33258 10.35101 15.5 14.34375 2.0492 11.80159 3.29454 23.07341 4.21875 34.125l2.09375-.25c-.91081-11.0686-2.14882-22.49105-3.8125-34.3125 3.50633-5.56576 9.72772-13.98235 10.4375-18.8125.80334-3.10256-1.62946-13.23064-2.625-18.84375-1.52747 10.43187-9.3525 16.14161-10.65625 26.875-4.29317-8.84326-14.70268-14.06625-19.75229-21.61078 4.08155 3.64878 12.76116 9.71971 16.59604 12.23578l.46875.3125.25-.53125c2.79035-5.49319 8.61964-15.19165 8.96875-20.3125.54116-3.04442-2.58311-12.5579-3.96875-17.875-.6864 10.14484-7.80248 16.20777-8.25 26.625-5.24065-8.88801-14.71512-11.32653-20.0955-19.76001 4.06996 4.08391 12.85402 9.33304 17.62675 12.19751l.53125.3125.21875-.5625c2.74734-5.79644 8.52292-16.05396 8.71875-21.375.46682-3.17563-3.95163-12.94533-5.58426-18.40625-.38247 10.54129-6.82445 17.09142-6.94699 27.90625-5.37951-8.36654-13.98184-10.43041-19.9375-17.5 4.3394 3.81056 12.75693 8.00099 17.59375 10.5625l.53125.28125.1875-.5625c2.40005-5.93678 7.57794-16.48959 7.46875-21.8125.28266-3.19586-3.81519-12.76227-5.75-18.125z" fill="#ff0"/><g transform="matrix(-1 0 0 1 1176.316 -.00025)"><path d="m512.50025 305.31275c-3.3604 10.92999-5.28195 22.21388 14.125 32.3125 7.21478-22.55132-2.94471-25.50009-14.125-32.3125zm21.75 10.375c1.03138 10.5703-5.35868 18.06579-4.03125 28.875-7.0515-8.30445-16.92249-8.64103-24-16.5625 2.2511 5.28396 5.78414 15.12214 8.1875 17.28125 3.57835 4.00088 14.58786 8.43607 20.5 11l.5625.21875.15625-.59375c1.96487-6.14547 6.36158-17.1327 5.84375-22.46875.04018-3.23053-4.85734-12.51439-7.21875-17.75zm8.71875 19.375c.88906 10.50949-5.55503 17.90577-4.375 28.65625-6.89599-8.33635-16.69823-8.82482-23.625-16.78125 2.16785 5.27576 5.54731 15.10655 7.90625 17.28125 3.5022 4.01861 14.38074 8.53473 20.21875 11.15625l.53125.25.1875-.59375c2.02959-6.07731 6.50854-16.94468 6.0625-22.25.0812-3.20739-4.62825-12.4896-6.90625-17.71875zm8.71875 19.875c.59088 10.53045-6.06239 17.72039-5.1875 28.5-6.65701-8.52846-16.42651-9.28795-23.125-17.4375 2.01744 5.33506 5.07863 15.25931 7.375 17.5 3.38693 4.11622 14.14488 8.93284 19.90625 11.71875l.5625.25.15625-.5625c2.20101-6.01736 7.01425-16.74667 6.71875-22.0625.17205-3.20383-4.27737-12.61465-6.40625-17.90625zm7.84375 19.5625c.2218 10.54465-6.65203 17.47766-6.15625 28.28125-6.32898-8.7558-16.054-9.84019-22.4375-18.21875 1.82241 5.40227 4.54239 15.43047 6.75 17.75.14261.18698.32991.37204.5.5625 1.5073 5.60136 3.55308 15.08395 5.5625 17.4375.36376.5349.57461 1.29205 1.1315 1.86025 1.27405 5.35825 3.3146 14.94865 5.21225 17.3585.4603.7369.08543 1.33328.88623 2.13975.8427 5.78382 2.85986 15.20121 4.52002 17.704 2.25774 4.36413 10.33258 10.35101 15.5 14.34375 2.0492 11.80159 3.29454 23.07341 4.21875 34.125l2.09375-.25c-.91081-11.0686-2.14882-22.49105-3.8125-34.3125 3.50633-5.56576 9.72772-13.98235 10.4375-18.8125.80334-3.10256-1.62946-13.23064-2.625-18.84375-1.52747 10.43187-9.3525 16.14161-10.65625 26.875-4.29317-8.84326-14.70268-14.06625-19.75229-21.61078 4.08155 3.64878 12.76116 9.71971 16.59604 12.23578l.46875.3125.25-.53125c2.79035-5.49319 8.61964-15.19165 8.96875-20.3125.54116-3.04442-2.58311-12.5579-3.96875-17.875-.6864 10.14484-7.80248 16.20777-8.25 26.625-5.24065-8.88801-14.71512-11.32653-20.0955-19.76001 4.06996 4.08391 12.85402 9.33304 17.62675 12.19751l.53125.3125.21875-.5625c2.74734-5.79644 8.52292-16.05396 8.71875-21.375.46682-3.17563-3.95163-12.94533-5.58426-18.40625-.38247 10.54129-6.82445 17.09142-6.94699 27.90625-5.37951-8.36654-13.98184-10.43041-19.9375-17.5 4.3394 3.81056 12.75693 8.00099 17.59375 10.5625l.53125.28125.1875-.5625c2.40005-5.93678 7.57794-16.48959 7.46875-21.8125.28266-3.19586-3.81519-12.76227-5.75-18.125z" stroke="#000" stroke-linecap="round" stroke-linejoin="round" stroke-width="8"/><path d="m512.5 305.3125c-3.3604 10.92999-5.28195 22.21388 14.125 32.3125 7.21478-22.55132-2.94471-25.50009-14.125-32.3125zm21.75 10.375c1.03138 10.5703-5.35868 18.06579-4.03125 28.875-7.0515-8.30445-16.92249-8.64103-24-16.5625 2.2511 5.28396 5.78414 15.12214 8.1875 17.28125 3.57835 4.00088 14.58786 8.43607 20.5 11l.5625.21875.15625-.59375c1.96487-6.14547 6.36158-17.1327 5.84375-22.46875.04018-3.23053-4.85734-12.51439-7.21875-17.75zm8.71875 19.375c.88906 10.50949-5.55503 17.90577-4.375 28.65625-6.89599-8.33635-16.69823-8.82482-23.625-16.78125 2.16785 5.27576 5.54731 15.10655 7.90625 17.28125 3.5022 4.01861 14.38074 8.53473 20.21875 11.15625l.53125.25.1875-.59375c2.02959-6.07731 6.50854-16.94468 6.0625-22.25.0812-3.20739-4.62825-12.4896-6.90625-17.71875zm8.71875 19.875c.59088 10.53045-6.06239 17.72039-5.1875 28.5-6.65701-8.52846-16.42651-9.28795-23.125-17.4375 2.01744 5.33506 5.07863 15.25931 7.375 17.5 3.38693 4.11622 14.14488 8.93284 19.90625 11.71875l.5625.25.15625-.5625c2.20101-6.01736 7.01425-16.74667 6.71875-22.0625.17205-3.20383-4.27737-12.61465-6.40625-17.90625zm7.84375 19.5625c.2218 10.54465-6.65203 17.47766-6.15625 28.28125-6.32898-8.7558-16.054-9.84019-22.4375-18.21875 1.82241 5.40227 4.54239 15.43047 6.75 17.75.14261.18698.32991.37204.5.5625 1.5073 5.60136 3.55308 15.08395 5.5625 17.4375.36376.5349.57461 1.29205 1.1315 1.86025 1.27405 5.35825 3.3146 14.94865 5.21225 17.3585.4603.7369.08543 1.33328.88623 2.13975.8427 5.78382 2.85986 15.20121 4.52002 17.704 2.25774 4.36413 10.33258 10.35101 15.5 14.34375 2.0492 11.80159 3.29454 23.07341 4.21875 34.125l2.09375-.25c-.91081-11.0686-2.14882-22.49105-3.8125-34.3125 3.50633-5.56576 9.72772-13.98235 10.4375-18.8125.80334-3.10256-1.62946-13.23064-2.625-18.84375-1.52747 10.43187-9.3525 16.14161-10.65625 26.875-4.29317-8.84326-14.70268-14.06625-19.75229-21.61078 4.08155 3.64878 12.76116 9.71971 16.59604 12.23578l.46875.3125.25-.53125c2.79035-5.49319 8.61964-15.19165 8.96875-20.3125.54116-3.04442-2.58311-12.5579-3.96875-17.875-.6864 10.14484-7.80248 16.20777-8.25 26.625-5.24065-8.88801-14.71512-11.32653-20.0955-19.76001 4.06996 4.08391 12.85402 9.33304 17.62675 12.19751l.53125.3125.21875-.5625c2.74734-5.79644 8.52292-16.05396 8.71875-21.375.46682-3.17563-3.95163-12.94533-5.58426-18.40625-.38247 10.54129-6.82445 17.09142-6.94699 27.90625-5.37951-8.36654-13.98184-10.43041-19.9375-17.5 4.3394 3.81056 12.75693 8.00099 17.59375 10.5625l.53125.28125.1875-.5625c2.40005-5.93678 7.57794-16.48959 7.46875-21.8125.28266-3.19586-3.81519-12.76227-5.75-18.125z" fill="#ff0"/></g><path d="m587.43701 287.03125c-13.65597 17.09171-7.34195 26.61669.15625 35.25 7.46444-10.75593 15.57175-17.55126-.15625-35.25zm-14.59375 19.96875c-.0598 5.70346-.79356 16.07787.53125 19 1.659 5.06578 9.92664 13.46668 14.28125 18.15625l.40625.4375.375-.46875c4.23775-4.80569 12.62427-13.06538 14.28125-18.125 1.32484-2.92214.59105-13.29653.53125-19-3.27728 10.02491-12.08422 14.29598-15.1875 24.65625-3.10158-10.36487-11.94077-14.62929-15.21875-24.65625zm0 21.3125c-.0598 5.70348-.79356 16.07787.53125 19 1.659 5.0658 9.92664 13.46668 14.28125 18.15625l.40625.4375.375-.46875c4.23775-4.80567 12.62427-13.06538 14.28125-18.125 1.32484-2.92212.59105-13.29653.53125-19-3.27728 10.02493-12.08422 14.29598-15.1875 24.65625-3.10158-10.36485-11.94077-14.62929-15.21875-24.65625zm0 21.28125c-.0598 5.70346-.79356 16.07787.53125 19 1.659 5.06578 9.92664 13.46668 14.28125 18.15625l.40625.4375.375-.46875c4.23775-4.80569 12.62427-13.06538 14.28125-18.125 1.32484-2.92214.59105-13.29653.53125-19-3.27728 10.02491-12.08422 14.29598-15.1875 24.65625-3.10158-10.36487-11.94077-14.62929-15.21875-24.65625zm0 21.3125c-.0598 5.70347-.79356 16.07787.53125 19 1.659 5.06579 9.92664 13.46668 14.28125 18.15625l.40625.4375.375-.46875c4.23775-4.80568 12.62427-13.06538 14.28125-18.125 1.32484-2.92213.59105-13.29653.53125-19-3.27728 10.02492-12.08422 14.29598-15.1875 24.65625-3.10158-10.36486-11.94077-14.62929-15.21875-24.65625zm0 21.3125c-.0598 5.70348-.79356 16.07787.53125 19 1.659 5.0658 9.92664 13.46668 14.28125 18.15625l.40625.4375.375-.46875c4.23775-4.80567 12.62427-13.06538 14.28125-18.125 1.32484-2.92212.59105-13.29653.53125-19-3.27728 10.02493-12.08422 14.29598-15.1875 24.65625-3.10158-10.36485-11.94077-14.62929-15.21875-24.65625zm0 21.28125c-.0598 5.70346-.79356 16.07787.53125 19 1.659 5.06578 9.92664 13.46668 14.28125 18.15625l.40625.4375.375-.46875c4.23775-4.80569 12.62427-13.06538 14.28125-18.125 1.32484-2.92214.59105-13.29653.53125-19-3.27728 10.02491-12.08422 14.29598-15.1875 24.65625-3.10158-10.36487-11.94077-14.62929-15.21875-24.65625zm0 21.3125c-.0598 5.70348-.79356 16.07787.53125 19 1.53492 4.68692 8.60899 12.12151 13.125 16.9375v36.90625h3.1875v-37.09375c4.44847-4.89055 11.51127-12.1087 13.03125-16.75 1.32484-2.92212.59105-13.29653.53125-19-3.27728 10.02493-12.08422 14.29598-15.1875 24.65625-3.10158-10.36485-11.94077-14.62929-15.21875-24.65625z" stroke="#000" stroke-linejoin="round" stroke-width="8"/><path d="m587.4375 287.03125c-13.65597 17.09171-7.34195 26.61669.15625 35.25 7.46444-10.75593 15.57175-17.55126-.15625-35.25zm-14.59375 19.96875c-.0598 5.70346-.79356 16.07787.53125 19 1.659 5.06578 9.92664 13.46668 14.28125 18.15625l.40625.4375.375-.46875c4.23775-4.80569 12.62427-13.06538 14.28125-18.125 1.32484-2.92214.59105-13.29653.53125-19-3.27728 10.02491-12.08422 14.29598-15.1875 24.65625-3.10158-10.36487-11.94077-14.62929-15.21875-24.65625zm0 21.3125c-.0598 5.70348-.79356 16.07787.53125 19 1.659 5.0658 9.92664 13.46668 14.28125 18.15625l.40625.4375.375-.46875c4.23775-4.80567 12.62427-13.06538 14.28125-18.125 1.32484-2.92212.59105-13.29653.53125-19-3.27728 10.02493-12.08422 14.29598-15.1875 24.65625-3.10158-10.36485-11.94077-14.62929-15.21875-24.65625zm0 21.28125c-.0598 5.70346-.79356 16.07787.53125 19 1.659 5.06578 9.92664 13.46668 14.28125 18.15625l.40625.4375.375-.46875c4.23775-4.80569 12.62427-13.06538 14.28125-18.125 1.32484-2.92214.59105-13.29653.53125-19-3.27728 10.02491-12.08422 14.29598-15.1875 24.65625-3.10158-10.36487-11.94077-14.62929-15.21875-24.65625zm0 21.3125c-.0598 5.70347-.79356 16.07787.53125 19 1.659 5.06579 9.92664 13.46668 14.28125 18.15625l.40625.4375.375-.46875c4.23775-4.80568 12.62427-13.06538 14.28125-18.125 1.32484-2.92213.59105-13.29653.53125-19-3.27728 10.02492-12.08422 14.29598-15.1875 24.65625-3.10158-10.36486-11.94077-14.62929-15.21875-24.65625zm0 21.3125c-.0598 5.70348-.79356 16.07787.53125 19 1.659 5.0658 9.92664 13.46668 14.28125 18.15625l.40625.4375.375-.46875c4.23775-4.80567 12.62427-13.06538 14.28125-18.125 1.32484-2.92212.59105-13.29653.53125-19-3.27728 10.02493-12.08422 14.29598-15.1875 24.65625-3.10158-10.36485-11.94077-14.62929-15.21875-24.65625zm0 21.28125c-.0598 5.70346-.79356 16.07787.53125 19 1.659 5.06578 9.92664 13.46668 14.28125 18.15625l.40625.4375.375-.46875c4.23775-4.80569 12.62427-13.06538 14.28125-18.125 1.32484-2.92214.59105-13.29653.53125-19-3.27728 10.02491-12.08422 14.29598-15.1875 24.65625-3.10158-10.36487-11.94077-14.62929-15.21875-24.65625zm0 21.3125c-.0598 5.70348-.79356 16.07787.53125 19 1.53492 4.68692 8.60899 12.12151 13.125 16.9375v36.90625h3.1875v-37.09375c4.44847-4.89055 11.51127-12.1087 13.03125-16.75 1.32484-2.92212.59105-13.29653.53125-19-3.27728 10.02493-12.08422 14.29598-15.1875 24.65625-3.10158-10.36485-11.94077-14.62929-15.21875-24.65625z" fill="#ff0"/></g></g><path d="m.49798456.49835494v194.56016506c3.07100104 54.22044 64.71932144 63.87139 109.50187544 86.4435 44.78254-22.57211 106.43086-32.22306 109.50187-86.4435v-194.56016506z" fill="none" stroke="#000" stroke-width=".995969"/></g></svg>