<svg height="900" width="1350" xmlns="http://www.w3.org/2000/svg" xmlns:xlink="http://www.w3.org/1999/xlink"><path d="m0 0h1350v900h-1350z" fill="#fff"/><path d="m600 0h1350v100h-1350z"/><path d="m600 200h1350v100h-1350z"/><path d="m0 400h1350v100h-1350z"/><path d="m0 600h1350v100h-1350z"/><path d="m0 800h1350v100h-1350z"/><use x="-225" xlink:href="#a" y="-122.5"/><use x="-75" xlink:href="#a" y="-122.5"/><use x="75" xlink:href="#a" y="-122.5"/><use x="225" xlink:href="#a" y="-122.5"/><use x="-150" xlink:href="#a"/><g id="a"><use transform="matrix(0 -1 1 0 132.5 467.5)" xlink:href="#b"/><path id="b" d="m300 167.5-9-13.5 9-22.5 9 22.5z"/><use transform="matrix(0 1 -1 0 467.5 -132.5)" xlink:href="#b"/><path d="m300 167.5 40.5 99-31.5-13.5-9 18-9-18-31.5 13.5z"/></g><use x="150" xlink:href="#a"/><use x="-225" xlink:href="#a" y="122.5"/><use x="-75" xlink:href="#a" y="122.5"/><use x="75" xlink:href="#a" y="122.5"/><use x="225" xlink:href="#a" y="122.5"/></svg>