<svg enable-background="new 0 0 500 300" height="600" viewBox="0 0 1000 600" width="1000" xmlns="http://www.w3.org/2000/svg"><path d="m0 0h1000v600h-1000z" fill="#c80a0f"/><path d="m328.28386 201.46636c-2.02613 5.92853-5.36624 10.51586-4.83685 14.19814l-3.12456-1.38258c2.45034.84644-2.78659-9.58667-4.05399-7.61969l2.93143-2.07905.67941-1.14467 1.46053-.70854z" fill="#390000" fill-opacity=".5987"/><g stroke="#000"><path d="m515.3258 267.95743c-2.2666 3.55676 3.94745 19.34287 13.55378 18.94539-6.26754-9.76224-5.60284-21.11782-5.60284-21.11782z" fill="#002e56" stroke-opacity=".948408" stroke-width="3.443581"/><path d="m491.47046 250.87266c-3.46358.50028-11.81944 21.25146 1.50512 28.65623.4253-12.88383 6.70049-20.53189 6.70049-20.53189l-6.88895-5.76688z" fill="#002e56" stroke-opacity=".948408" stroke-width="3.443581"/><path d="m489.84563 238.47883c-3.36679-3.44025-17.91634 6.54814-17.31531 21.44677 8.93908-9.93356 19.52589-9.15916 19.52589-9.15916z" fill="#002e56" stroke-opacity=".948408" stroke-width="3.443581"/><path d="m506.66942 226.42766c-.23939-4.67381-12.89416-10.07405-19.53862-.72985 9.55284 1.05538 15.00033 9.77594 15.00033 9.77594z" fill="#002e56" stroke-opacity=".948408" stroke-width="3.443581"/><path d="m761.86843 269.91399c-.22921 4.27634.89899 5.77032 3.06118 8.17575 2.16473 2.40201 4.6147 9.54636 4.6147 9.54636s6.92969-18.81175 5.19535-21.33712c-1.73433-2.52879-12.44084 3.49166-12.87123 3.61501z" fill="#002e56" stroke-opacity=".948408" stroke-width="3.443581"/><path d="m725.21059 262.11517c-3.45083-.64419-9.97559 14.91233-4.54338 25.57919 2.73011-12.36299 10.18952-17.74267 10.18952-17.74267z" fill="#002e56" stroke-opacity=".948408" stroke-width="3.443581"/><path d="m708.3868 257.42765c-2.68427-2.97767-14.29996 5.67436-13.82627 18.58903 7.14107-8.60749 15.58862-7.93589 15.58862-7.93589z" fill="#002e56" stroke-opacity=".948408" stroke-width="3.443581"/><path d="m717.19599 237.47143c-1.85148-3.97137-14.901-.69559-17.48339 11.75992 8.79645-5.13298 16.6557-.90461 16.6557-.90461z" fill="#002e56" stroke-opacity=".948408" stroke-width="3.443581"/><path d="m283.44224 228.73025c1.25555-4.37228-8.50867-16.47142-17.47065-11.79075 8.32275 6.40078 10.51295 17.4 10.51295 17.4z" fill="#002e56" stroke-opacity=".948408" stroke-width="3.443581"/><path d="m246.0204 256.05012c-3.25729-3.94053-16.92821 7.28142-16.11325 24.24626 8.33804-11.22195 18.41804-10.23511 18.41804-10.23511z" fill="#002e56" stroke-opacity=".948408" stroke-width="3.443581"/><path d="m247.21482 232.03344c-1.40326-5.58527-17.407-4.82116-22.87995 10.50237 11.35593-4.27633 19.78311 3.23124 19.78311 3.23124z" fill="#002e56" stroke-opacity=".948408" stroke-width="3.443581"/><path d="m263.51653 277.35983c-.87609 4.12898 0 5.89366 1.75215 8.84391 1.75216 2.94684 3.06628 10.61546 3.06628 10.61546s9.64197-16.51255 8.32785-19.45937c-1.31411-2.94684-12.70825 0-13.14628 0z" fill="#002e56" stroke-opacity=".948408" stroke-width="3.443581"/><path d="m223.79751 87.518806c0-5.893664-15.34413-12.064878-24.17115.09937 11.77615.836077 17.97492 11.574882 17.97492 11.574882z" fill="#002e56" stroke-opacity=".948408" stroke-width="3.443581"/><path d="m207.87017 110.98382c-3.25728-3.94397-16.9282 7.28141-16.11325 24.24625 8.33804-11.22194 18.41806-10.23852 18.41806-10.23852z" fill="#002e56" stroke-opacity=".948408" stroke-width="3.443581"/><path d="m263.56746 85.476583c1.4822-5.551009-11.40941-18.335463-22.77299-10.903278 10.87206 6.143802 14.00455 19.07217 14.00455 19.07217z" fill="#002e56" stroke-opacity=".948408" stroke-width="3.443581"/><path d="m281.76394 105.75147c2.55693-3.17984-2.24877-19.829436-11.82453-20.936211 5.37872 10.673699 3.74371 21.851101 3.74371 21.851101z" fill="#002e56" stroke-opacity=".948408" stroke-width="3.443581"/><path d="m332.91428 125.27604c-9.63198-10.89488-.1123-30.763218 8.52184-22.28854-4.52241-8.131456 2.87324-14.56926 6.22934-10.495512-1.56254-6.61904 5.5315-11.005536 9.01114-4.898121-1.24972-7.382466 9.27104-11.701601 11.99828-3.635901.18289-7.255762 10.4646-12.983067 12.73463-2.357641 2.00212-8.17797 13.46457-9.250937 14.4143 2.372076 3.34488-6.760177 11.9373-6.264591 12.43623 3.554104 3.71547-4.615844 13.31698 2.293488 11.68223 10.461835 5.92935-1.247786 13.17421 10.42173 5.94701 19.02312 12.82286-6.64951 15.8517 14.90286 8.0598 24.68627 4.02991 2.39293 4.38285.28228 7.93789 2.07537 3.55665 1.79309 10.00258 4.74575 15.90305 6.0192 5.33417 0 24.8869-.59823 28.88633-1.19486 3.99942-.59822 9.46676-2.62869 15.9993-4.78425 6.84058-2.15556 16.73406-2.23575 25.76285-4.36725 7.1534-.78107 207.99413 3.17079 213.77268 2.57257 5.77855-.59984 14.20895-5.99676 13.76457-12.5741s-7.09886-11.34395-13.76457-11.94217c-6.6657-.59664-40.88621-.59664-47.10914.59822-6.22133 1.19326-15.11054 4.18282-19.55274 8.37044-2.13528 1.33919-5.66626 6.3977-8.6566 9.72727-2.79943 2.29509-10.70524 2.63512-10.70524-.35766 0-1.95507-.66577.37531-2.60693 1.13392-2.5219 1.53488-13.89611 1.95508-13.39397 0 .88875-2.21329-.0577-2.90936-3.05131-.59663-2.22191 1.79309-17.94046 2.45388-20.82653.67843 1.7294-2.81314 1.74544-2.65115-2.97912-.34002-2.99033 1.27666-15.37523 2.27586-16.264-.17963-.11871-1.93422-1.52244-.98636-3.26949-.43625-14.03568 3.56854-15.38165-.56134-13.15976-2.35603 2.22352-1.79149 5.58604-12.05765 2.03422-11.45782-3.55826.59664-25.77729 4.78104-33.33175 5.9791-7.55447 1.19807-62.21809 0-69.77256-.59661-7.55287-.59824-15.99769-7.50918-16.44368-17.3407-.79089-15.77054 12.44426-19.732019 20.4415-22.124945 8.00046-2.391323 27.99758-5.979108 35.99643-5.979108 8.00045 0 30.81787 2.750582 37.04079.357657 6.22133-2.388116 25.11313-9.071308 30.4521-9.565289 7.87694-.710501 30.44408 1.881301 41.19745 14.448974-5.59888 2.473119-8.23146 3.927799-1.87698 1.696861 5.77533-1.196463 30.57561-6.219683 36.35256-7.533227 20.00033-.837203 14.75279 2.153956 4.97642 4.543674-3.26467 10.112196-32.65154 24.222763-41.98674 26.015853-9.33038 1.7963-29.1366.47955-33.56597-.30312-4.4454-.32398-25.47246-1.34563-33.12639-6.16676-12.37047-8.153913-35.22318-13.513939-45.2418-13.327894-9.3753.182837-36.11352 2.912569-35.99642 11.959814-.13956 15.88601 24.88692 16.74247 35.55205 16.14263 10.66514-.59662 37.33117-1.79308 44.88564-4.78264 7.55286-2.98956 23.89547-3.72412 32.78469-3.72412s21.87892 1.92942 25.87835 1.3328c3.99782-.59824 13.33141-.73296 17.77522-3.72251 4.44541-2.99116 14.10627-6.11544 23.88585-6.11544 9.77798 0 82.3291-2.7169 92.10547-2.11867 14.1528-.0946 24.15538 14.93975 24.32382 27.72715.0818 5.9775-2.93259 14.81465-5.49139 16.18433 4.39088.39294 15.38166 1.59582 19.0057 2.33197 6.80848 1.31034 17.8442 8.60461 19.10675 15.2461-5.17053-3.05211-13.5159-7.66154-21.03347-8.16515-1.47272.0177-159.85826-.25821-172.29771-.18283 33.84351 3.88771 59.70581 29.22032 66.16617 43.72543 5.77856 8.96865 20.00033 5.38087 25.33129 4.18601 5.33258-1.19646 11.55549-6.57894 16.00091-10.76495 4.44541-4.18441 11.39347-5.24617 14.53141-4.18441 6.90794-.59664 8.1352 6.57893 5.46892 10.16351-2.66629 3.58939.44117 2.11386 7.55286 2.11386 17.94202-.21109 14.11587 9.24611 14.11587 9.24611s12.38772.72752 8.93994 14.7431l.0624.31452c7.32316.87662 12.87403 10.89719 12.88145 13.82431-7.28559.40725-3.11066-.77947 0 2.21169 3.10906 2.98955 7.6443 16.23084-3.55665 16.74086-3.36926-.008-2.89873.10937-2.89873.10937.79091 4.18282-1.54508 16.03644-7.7648 16.03644-8.6197 1.61505-16.44369-2.98956-17.33405-8.37204-.88877-5.37928-.77164 10.38645-12.99131 12.87401-11.53945 2.49556-17.67415-3.90375-18.56131-6.89329-.89037-2.99117-.44437-.59985-4.88657-1.19968-4.44542-.59663-10.0475-.65116-12.44587-7.7722 0-4.18441.86791-9.70161 8.78493-10.449 3.55665-.59663 4.54969-5.097 1.8802-5.69523-2.66628-.59823-.44278-9.56689 5.33417-7.17557 5.77855 2.39293 19.10836 2.98955 22.22063 5.98071 3.11226 2.98634 4.00103-2.39292-.88715-7.17556-4.8898-4.78586-34.66329-14.35275-42.66534-10.76497-18.6271 9.12103-50.05551 7.35221-55.94662 7.41894-6.01636-.85546-19.90594 1.23129-27.15735-20.57201-5.89085-22.25967-28.27993-33.25879-38.49908-34.45526-50.42516-4.61423-47.68668-1.06495-14.9854.43947-.24385 4.15553-1.42781 12.66389 3.87107 13.91007 8.89243-1.19646 22.72144-4.55348 27.73614-1.99174 5.0866 2.59848 10.71092 6.92043 12.09608 15.51851.0206 2.10836.44438 5.97911-3.55664 9.56529-3.99943 3.58779-2.22191 10.76335 4.00102 13.15628 6.22133 2.38972 8.89082 5.37927 12.88864 8.96866 3.99942 3.58458-1.77752 10.76336-5.33417 8.37204-3.55504-2.39292-3.55504-2.39292-3.99943 2.39132-.44438 4.78264-4.86251 13.83471-12.37366 14.49709-1.57539-.57738-1.13903-3.05211-.95775-4.9318.44438-4.18441-1.5032 5.19964-3.82616 7.80267-1.47914 1.7578-14.06136 5.19483-17.6148 3.40174 1.58823-3.74336.67058-2.2165-2.44008-.42021-3.03527 1.17401-19.41637 3.38892-12.11538-4.20686 1.89303-2.76663-2.60371 3.45466-5.08391 4.54047-2.08232 1.26222-11.80415 2.03847-11.80415-1.55092-3.08661 2.63671-10.42611 2.63993-11.5539.59823-2.2203-2.39132-2.43367 1.79309-6.43148 2.38972-3.99783.59663-12.67688-.59663-13.12287-5.38088-.44438-4.78103.89037-1.79308-3.99781-1.19646-11.90042 7.67436-17.77843-2.98795-17.77843-6.57574 0-3.58778-.44439-7.77539.88875-10.16672 1.33315-2.38972-8.27959-3.11305-5.33256-7.82192 3.3128-5.75938 6.79245-9.98068 13.33141-8.92055 3.11067.59663 2.66629-1.19646 1.33315-3.58778-1.33315-2.38971 3.55504-3.58618 9.33359-1.19646 5.77856 2.39132 9.77797 8.37204 11.55549 13.7529 1.77593 5.38088 15.55492 1.19646 21.33188 1.7931 5.77855.59823 6.22133-8.96867 2.66628-11.95822-3.55665-2.99116-13.33463-13.75291-17.33405-17.33909-4.00103-3.58939-1.33474-16.14584 2.2219-19.13699 20.69659-13.59895 9.3336-17.93892 1.77432-16.74086-7.55287 1.19486-26.96764 8.74733-33.18897 15.32467-6.22293 6.57734-54.56255 38.81448-59.00474 42.40226-4.44541 3.58779-10.90738 4.45867-13.57366.27427-2.66629-4.18763-4.44542-1.19647-4.00103 4.78424 3.53097 22.58203-17.33405 29.78006-20.99177 29.49457-2.54596-.25179-6.19406-1.6311-8.82344-3.75779-2.59248 12.62062-14.06296 13.8732-24.42328 12.62862-.15882-1.48836 1.93474-4.27262.7909-3.20607-3.4251 4.33678-13.95066 3.87809-22.98746 3.22212-.60159-2.63993 3.11548-5.83798 1.33796-4.04328-3.03367 5.55088-8.24913 4.5565-16.70197 3.96789-.0995-1.1692 3.9176-5.08256 2.04543-2.74256-3.69943 3.93422-11.40631 2.70407-17.38539 2.8003-.70748-.88051 3.09141-7.0617-.38502-2.97833-3.32243 3.48675-10.36033 4.06734-17.087 3.1339-1.19678-2.93983 1.40053-2.9687 2.11442-4.81472 1.77753-2.98794-.88876 0-3.10905 0-2.22191 0-5.33418.59823-6.66732-2.39132s-.56791 2.99116-1.85933 4.61905c-1.28984 1.41299-2.74651 4.72972-7.19031 5.92297-4.44541 1.19647-15.45469-.47791-17.77682-2.98795-2.39517-2.47792-3.55665-7.77219-1.77752-10.76496 1.77752-2.98794-8.46249 5.76901-12.88705 6.57895-13.01537 2.44264-14.66615-17.33909-8.8892-19.13218 5.77854-1.7963 4.88658-4.78425 1.77591-7.17557-3.11066-2.39293-4.88818-11.96142-.88715-14.94937 3.99782-2.98956 13.25602-4.64472 19.10836-1.19647 3.4251 2.28708 10.75657 10.12664 9.33359 4.18442-.99142-3.6728 1.5433-8.34477 4.37965-10.34958 2.46253-2.20688 10.04267-2.76982 12.06244 1.97915 4.68283 11.00393 7.99884 15.74167 13.7774 15.546 12.30629-3.26863 28.94088-6.97349 33.82746-6.97349 6.27265-1.44827 39.47927-4.61424 39.47927-7.6038-19.91531 6.70244-27.96709-1.9711-30.18738-1.37449-2.22031.59664-7.69245-1.94064-7.69245-3.61023 0-3.58779 5.01493-3.15956-2.09677-1.9647-4.2561-.33841-8.04858-.53088-11.6325-4.85001-.58716-2.20528 4.70691-9.78982 6.63042-16.16347-4.58979-1.2077-14.73837 6.81951-18.0624 13.90365-2.33098-2.71849-3.27589-.25019-11.60201 1.72734-3.92723 1.66318-10.31861 1.06656-13.87205-.72814-3.55505-1.79309-17.48164-12.05284-10.74695-13.37601-1.7711-.8404-3.81012-1.32477-5.15289-1.68562-4.88818-2.03047-8.94991-5.4843-7.52854-6.56368 1.07373-1.2729.85481-2.27989-1.10238-2.64075-2.66629-.59663-9.23253-5.25257-7.54806-7.05048.50521-.81847-5.67909-2.74736-7.37319-3.58618-3.11066-1.79469-6.22774-8.01758-6.67052-11.00553-2.86842.26783-8.98546-5.00397-6.22292-6.57894-4.67161-3.37127-8.64538-8.91895-5.5331-10.71525-2.72565-2.08819-1.199-2.19052-2.73366-4.4715-2.83313-3.37126-1.9556-6.9366.2679-6.9366 2.2219 0 1.33315-9.56689-2.66628-9.56689-3.99942 0-10.43251 3.01682-15.11054 0-3.84702-2.85964-7.11169-15.5476-3.55665-20.93008 3.55665-5.37927 10.66513-11.359983 14.22178-10.763355 3.55665.598235 1.77752 1.793095.88877-3.587786-.88877-5.380875 5.01812-9.422546 8.8892-10.763355 4.69087-2.084989 13.7774-.596627 16.44369 1.794695s3.55504 2.391322 3.55504-1.794695c0-2.941439 3.43313-4.473104 6.48924-5.24455 5.08712-1.169198 9.06568.237368 10.84321 2.253393 2.76254 3.846002 4.44541 8.372032.88876 11.959817-3.55505 3.586183-.47005.546909 5.3085-.647949 3.72029-1.196464 10.43413.344824 11.57956 4.235735 1.5433 4.18441 2.66628 11.36158-1.33314 14.94937-3.99943 3.58619-9.77637 12.55645-6.66571 15.546 3.11066 2.98794 12.88864 16.14263 15.11055 17.93893 2.22189 1.79308 4.88658 5.97911 8.44322 5.37928 3.55505-.59664 7.55447-1.19327 10.66514-1.7931 12.34639-2.41377 17.71353-2.38104 1.86664-1.88866 3.55825-4.8869 11.20648-7.61248 14.43907-8.47373-2.84596-4.16356 7.69083-12.95581 7.69083-14.15067z" fill="#ffc103" stroke-opacity=".948408" stroke-width="3.443657"/><path d="m353.6237 147.16521c5.93095 10.06088 20.07252 4.02564 23.72222 8.05127 3.64969 4.02564-3.54382 18.04639-5.82668 26.09605-5.26841 6.93178-17.00678 6.4811-21.32545 1.33439 2.32457-9.615 2.51708-30.11527 2.97269-30.78407z" fill="#002e56" stroke-opacity=".948408" stroke-width="3.625946"/><g fill="none"><path d="m778.75305 256.42988c-1.93313-5.20286-7.73414-6.50518-7.73414-6.50518" stroke-opacity=".948408" stroke-width="3.443657"/><path d="m409.88034 165.91568c4.38284 8.25656 5.67107 22.27089.72032 29.06957" stroke-opacity=".948408" stroke-width="3.145699"/><path d="m394.09923 184.79125c4.38283 2.35764 10.51914 16.5083 9.6416 21.23-.87592 4.71528-.87592 4.71528-.87592 4.71528" stroke-opacity=".948408" stroke-width="3.145699"/><path d="m392.34897 190.68535c2.62938 7.07774 6.1347 17.69194 5.25878 21.23001-.87595 3.53966-.87595 3.53966-.87595 3.53966" stroke-opacity=".948408" stroke-width="3.145699"/><path d="m376.56785 197.75187c1.75345 7.07773.87592 18.87395-1.75186 21.23-2.63099 2.35924-2.63099 2.35924-2.63099 2.35924" stroke-opacity=".948408" stroke-width="3.145699"/><path d="m372.17858 198.9371c-2.62938 8.25495-5.26036 20.05118-5.26036 20.05118" stroke-opacity=".948408" stroke-width="3.145699"/><path d="m330.11324 176.53629c-4.38284 3.53968-10.51914 11.79463-10.51914 11.79463" stroke-opacity=".948408" stroke-width="3.145699"/><path d="m335.36559 188.32931c-7.01383-4.71687-14.90198 3.53807-14.90198 3.53807" stroke-opacity=".948408" stroke-width="3.145699"/><path d="m431.86996 123.28407c-4.62348 2.04168-3.94167 12.69438-3.94167 12.69438" stroke-width="4.124283"/><path d="m333.5608 108.45659c4.93471 3.38731 2.96147 13.54923 2.96147 13.54923" stroke-width="3.617423"/><path d="m219.41116 99.858415c9.5983.922205 14.39825 8.303065 16.45491 14.760115 2.05667 6.45706 3.42831 10.14588 3.42831 10.14588" stroke-opacity=".948408" stroke-width="3.443657"/><path d="m263.98236 95.757401c-5.48496 6.455449-4.79834 18.448949-4.79834 18.448949" stroke-opacity=".948408" stroke-width="3.443657"/><path d="m424.15346 233.65378c3.38339-11.68076 9.72825-14.31266 17.66773-18.133 8.22024-3.25259 20.73027-13.09052 12.99452-5.9374-7.73575 7.15793-18.8966 11.71122-22.76447 14.31425-3.86948 2.60303-6.2855 8.40251-4.31225 11.05846" stroke-opacity=".948408" stroke-width="3.443657"/><path d="m407.91513 189.42153c7.25126 11.70802 2.77055 28.00622-6.41545 32.55951" stroke-linecap="round" stroke-opacity=".948408" stroke-width="3.443657"/><path d="m432.64238 149.5848c11.77207 4.75217 11.64616 15.44075 13.34188 22.05177-4.15023-1.86687-6.47149-.82021-9.58696-2.19791" stroke-opacity=".948408" stroke-width="3.443657"/><path d="m423.00962 187.58995c0 10.4089-7.39725 14.67832-10.78064 15.98064" stroke-opacity=".948408" stroke-width="2.922186"/><path d="m247.26435 88.413427c.96737 5.85401-.48288 7.156325-1.93474 12.359173-1.45025 5.20285.48288 14.31265.48288 14.31265" stroke-opacity=".948408" stroke-width="3.443657"/><path d="m740.76895 200.02931c-4.83684-.65115-12.0865 1.95187-12.0865 1.95187" stroke-opacity=".948408" stroke-width="3.443657"/><path d="m763.24146 208.99477c-6.76838 2.59982-14.50254 3.25258-14.50254 3.25258" stroke-opacity=".948408" stroke-width="3.443657"/><path d="m771.93976 224.00188c-5.80261-.64635-10.15337-.64635-10.15337-.64635" stroke-opacity=".948408" stroke-width="3.443657"/><path d="m783.22413 238.12367c-5.80101-.64955-14.98861 0-14.98861 0" stroke-opacity=".948408" stroke-width="3.443657"/><path d="m721.76807 268.53243c1.45186-7.80587 11.063-14.06085 16.37952-14.06085h5.31652" stroke-opacity=".948408" stroke-width="3.443657"/><path d="m713.78527 251.27515c5.80422-1.95188 14.98702-2.60143 14.98702-2.60143" stroke-opacity=".948408" stroke-width="3.443657"/><path d="m322.18178 147.07059c-16.14531 8.25977-18.90302 15.56364-16.38594 32.96689" stroke-opacity=".948408" stroke-width="3.443657"/><path d="m389.72279 183.28043c.94011 9.29103 1.49679 35.24434-8.37906 41.87781-9.87583 6.63348-22.24148 7.41615-31.89272 4.23253" stroke-opacity=".948408" stroke-width="3.420349"/><path d="m367.86954 197.67328c-.96897 9.13064-10.3924 31.87306-28.75158 28.7504" stroke-opacity=".948408" stroke-width="3.443657"/><path d="m656.34307 134.92953c2.41923-7.15792 13.53677-13.66309 13.53677-13.66309" stroke-opacity=".948408" stroke-width="3.443657"/><path d="m640.17212 134.55264c4.83685-8.45704 13.53675-13.66149 13.53675-13.66149" stroke-opacity=".948408" stroke-width="3.443657"/><path d="m616.58145 135.33209c7.34592-4.30309 9.40899-5.99995 11.8218-8.21646 2.60211-2.47631 7.73415-7.15631 7.73415-7.15631" stroke-opacity=".948408" stroke-width="3.443657"/><path d="m596.08539 135.07709c5.38071-2.73133 9.54697-4.33678 13.15014-6.92858 4.51921-3.08417 7.64752-7.25576 7.64752-7.25576" stroke-opacity=".948408" stroke-width="3.278067"/><path d="m600.4907 112.48863c-17.08859-5.65352-24.7361-16.8868-24.7361-16.8868" stroke-opacity=".948408" stroke-width="3.443657"/><path d="m628.94228 88.54815c-11.31966 4.58858-34.32799 2.601426-35.29536 2.601426" stroke-opacity=".948408" stroke-width="3.443657"/><path d="m337.66771 220.56967c5.80261-4.55331 10.36834-13.93415 10.36834-13.93415" stroke-opacity=".948408" stroke-width="3.443657"/><path d="m332.94155 173.80497c-8.51862-1.30232-30.06707 16.84349-23.1158 39.40629" stroke-opacity=".948408" stroke-width="3.726657"/><path d="m318.14224 162.59253c-10.96994 2.86125-15.43942 22.37354-9.59348 32.86585" stroke-opacity=".948408" stroke-width="4.288829"/><path d="m427.45182 155.52441c7.99725 10.63505 11.04214 17.13862 11.50416 20.84188.75401 6.4346 1.58468 19.02812-17.31673 18.77151 1.46441-4.87661 2.79834-14.13554-.2257-19.14433" stroke-opacity=".948408" stroke-width="3.145699"/><path d="m399.43178 115.07402c-.87592 5.33437-.87592 5.33437-.87592 5.33437" stroke-linecap="round" stroke-opacity=".948408" stroke-width="6.687458"/><path d="m363.37279 105.44298c-1.02994 4.0144-2.85558 8.13626-2.85558 8.13626" stroke-linecap="round" stroke-opacity=".948408" stroke-width="5.424829"/><path d="m377.10688 96.167984c1.37164 11.993496-4.11333 18.450546-7.54164 18.450546-3.42991 0-7.25608 4.47471-5.15128 11.67273" stroke-opacity=".948408" stroke-width="3.443657"/><path d="m391.43294 94.323571c-6.1716 8.301469-7.54163 17.528349-5.48337 24.905999 2.05506 7.38086.10588 9.52519.10588 9.52519" stroke-opacity=".948408" stroke-width="3.443657"/><path d="m418.92838 134.9151h-7.54163c-5.33991 9.43896-20.33155 6.2075-16.3023 8.00927" stroke-opacity=".948408" stroke-width="3.443657"/><path d="m378.48013 126.44685c11.73998.2983 9.37851 9.38565.68501 8.46344.68503 11.06969-12.97527 9.67435-11.80576 1.19326-8.21543.24217-11.58597-10.95902.34652-9.40812" stroke-opacity=".948408" stroke-width="3.443657"/><path d="m394.5216 140.65233c.48289 12.36078-22.866 22.09738-22.38151 3.23143" stroke-opacity=".948408" stroke-width="3.443657"/><path d="m372.10611 143.77133c-.49251 9.10821-13.44598 11.18501-17.86572 3.37753-3.43954-5.20446-5.25461-7.16243-7.70913-7.81357-2.45453-.64796-2.17859-8.22449-2.67591-9.33756-.29839-1.51402-1.88822-5.42899-2.68232-6.8997" stroke-opacity=".948408" stroke-width="3.470792"/><path d="m408.39962 106.80785c-5.80262 5.85239-6.28551 6.50516-6.28551 6.50516" stroke-opacity=".948408" stroke-width="3.443657"/><path d="m414.20222 117.85989c-7.73735.64956-8.15446.31274-8.15446.31274" stroke-opacity=".948408" stroke-width="3.443657"/><path d="m386.66667 113.47179c5.7192-2.03848 19.03136-.32558 18.83884 4.41696.008 5.82195-5.20421 6.17799-18.95594.66881l.1171-4.27423z" stroke-opacity=".948408" stroke-width="3.901814"/><path d="m368.62355 114.07644c.71229-6.91415-13.18383-13.73367-16.56722-9.87644-4.12135 6.37526 7.57212 12.06087 10.67316 12.06087 2.9005 0 2.91519.95483 2.91519.95483" stroke-opacity=".948408" stroke-width="3.169528"/><path d="m406.3654 139.97681c-5.25876 14.15067-.87592 27.12411-.87592 27.12411" stroke-opacity=".948408" stroke-width="3.443657"/><path d="m344.13128 143.50526c-4.38284 3.53647-7.88816 2.35764-7.88816 2.35764" stroke-opacity=".948408" stroke-width="3.443657"/><path d="m352.59753 145.18557c-.54385 12.92692-6.58933 20.00286-6.58933 20.00286" stroke-opacity=".948408" stroke-width="3.625424"/><path d="m345.39705 138.1324c-3.70906 14.08651 1.01641 25.2563 1.01641 25.2563" stroke-opacity=".948408" stroke-width="4.002351"/><path d="m382.10255 154.62306c-.87913 12.789 5.35408 20.84142 5.35408 20.84142" stroke-opacity=".948408" stroke-width="3.609944"/><path d="m389.96504 149.91259c2.12885 14.44897-2.80639 23.64727-2.80639 23.64727" stroke-opacity=".948408" stroke-width="3.985306"/><path d="m433.90256 141.7683c1.43741.69447 5.11439.0577 11.87795 2.81152-2.79943 4.008-10.0154 6.33837-12.82606 5.16757" stroke-opacity=".948408" stroke-width="3.443657"/><path d="m227.59128 152.38891c4.11494 1.84442 11.65657 0 11.65657 0" stroke-opacity=".948408" stroke-width="3.443657"/><path d="m231.59714 162.33592c9.08011 2.76983 18.16183-1.84441 18.16183-1.84441" stroke-opacity=".948408" stroke-width="3.133001"/><path d="m273.87897 203.19402c9.5983-2.76663 16.155-9.24807 16.155-9.24807" stroke-opacity=".948408" stroke-width="3.443657"/><path d="m244.71197 251.69375c4.83524-1.30232 14.98862 0 14.98862 0" stroke-opacity=".948408" stroke-width="3.443657"/><path d="m262.73424 267.06653c2.90211-5.20285 9.6705-9.75776 9.6705-9.75776" stroke-opacity=".948408" stroke-width="3.443657"/><path d="m317.02567 273.99831c2.41763-3.25097 2.41763-13.66148 2.41763-13.66148" stroke-opacity=".948408" stroke-width="3.443657"/><path d="m334.66453 273.91653c3.84863-4.26622 4.05878-13.42734 4.05878-13.42734" stroke-opacity=".948408" stroke-width="3.443657"/><path d="m348.68257 273.67595c3.86947-7.15793 3.23579-15.42572 3.23579-15.42572" stroke-opacity=".948408" stroke-width="3.443657"/><path d="m370.64331 274.46985c2.41602-3.90214 2.41602-13.00874 2.41602-13.00874" stroke-opacity=".948408" stroke-width="3.443657"/><path d="m527.33636 253.82043c-8.70632-1.95187-14.02285 9.75935-14.02285 9.75935" stroke-opacity=".948408" stroke-width="3.443657"/><path d="m538.76513 251.93432c-.96898 8.45703-7.73255 16.26452-7.73255 16.26452" stroke-opacity=".948408" stroke-width="3.443657"/><path d="m552.48958 251.22221c-.48448 7.15632-8.22184 16.91408-8.22184 16.91408" stroke-opacity=".948408" stroke-width="3.443657"/><path d="m569.5477 248.36899c-1.27378 9.51557-8.23468 16.65103-8.23468 16.65103" stroke-opacity=".948408" stroke-width="3.443657"/><path d="m582.11067 245.01697c.48449 8.45543-3.86787 21.46897-6.76999 24.06878" stroke-opacity=".948408" stroke-width="3.443657"/><path d="m597.09609 248.62399c1.45185 4.55491 0 11.06007 0 11.06007" stroke-opacity=".948408" stroke-width="3.443657"/><path d="m502.54732 230.88234c5.80261 1.30232 9.1876 7.80588 9.1876 7.80588" stroke-opacity=".948408" stroke-width="3.443657"/><path d="m492.64902 247.20941c3.0497-10.24051 16.187-5.23653 17.77843-2.48915" stroke-opacity=".948408" stroke-width="3.443657"/><path d="m450.69276 227.79816c-8.31969 2.75861-12.21966 2.94946-14.93888.51003" stroke-linecap="round" stroke-opacity=".948408" stroke-width="3.443657"/><path d="m459.95577 221.0027c-7.29778 2.75861-11.45443 3.70486-15.07846 1.45308" stroke-linecap="round" stroke-opacity=".948408" stroke-width="3.327292"/><path d="m472.30378 212.68199c-4.8529 2.7602-7.61704 3.70486-10.02664 1.45308" stroke-linecap="round" stroke-opacity=".948408" stroke-width="2.713285"/><path d="m480.86732 206.27305c-5.93897 2.76021-9.32236 3.70487-12.271 1.45308" stroke-linecap="round" stroke-opacity=".948408" stroke-width="3.001677"/><path d="m246.55045 88.413427c.96738 5.85401-.48288 7.156325-1.93313 12.359173-1.45025 5.20285.50764 14.46115.50764 14.46115" stroke-opacity=".948408" stroke-width="3.443657"/><path d="m264.92888 95.757401c-5.48498 6.455449-4.86997 18.413949-4.86997 18.413949" stroke-opacity=".948408" stroke-width="3.443657"/><path d="m220.12184 98.581759c9.82772.922207 14.74157 8.303071 16.84796 14.760121 2.10479 6.45705 3.60755 10.93945 3.60755 10.93945" stroke-opacity=".948408" stroke-width="3.484359"/></g></g><path d="m328.28386 437.51516c-2.02613 5.92853-5.36624 10.51587-4.83685 14.19815l-3.12456-1.38259c2.45034.84645-2.78658-9.58667-4.05398-7.61968l2.93142-2.07905.67941-1.14467 1.46053-.70853z" fill="#390000" fill-opacity=".5987"/><g stroke="#000"><g fill="#002e56" stroke-opacity=".948408" stroke-width="1.165707" transform="matrix(2.5467437 0 0 3.4265486 86.278438 -194.98227)"><path d="m168.469 203.992c-.89 1.038 1.55 5.645 5.322 5.529-2.461-2.849-2.2-6.163-2.2-6.163z"/><path d="m159.102 199.006c-1.36.146-4.641 6.202.591 8.363.167-3.76 2.631-5.992 2.631-5.992l-2.705-1.683z"/><path d="m158.464 195.389c-1.322-1.004-7.035 1.911-6.799 6.259 3.51-2.899 7.667-2.673 7.667-2.673z"/><path d="m165.07 191.872c-.094-1.364-5.063-2.94-7.672-.213 3.751.308 5.89 2.853 5.89 2.853z"/></g><g fill="#002e56" stroke-opacity=".948408" stroke-width="1.165707" transform="matrix(2.5467437 0 0 3.4265486 86.278438 -194.98227)"><path d="m265.276 204.563c-.09 1.248.353 1.684 1.202 2.386.85.701 1.812 2.786 1.812 2.786s2.721-5.49 2.04-6.227c-.681-.738-4.885 1.019-5.054 1.055z"/><path d="m250.882 202.287c-1.355-.188-3.917 4.352-1.784 7.465 1.072-3.608 4.001-5.178 4.001-5.178z"/><path d="m244.276 200.919c-1.054-.869-5.615 1.656-5.429 5.425 2.804-2.512 6.121-2.316 6.121-2.316z"/><path d="m247.735 195.095c-.727-1.159-5.851-.203-6.865 3.432 3.454-1.498 6.54-.264 6.54-.264z"/></g><g fill="#002e56" stroke-opacity=".948408" stroke-width="1.165707" transform="matrix(2.5467437 0 0 3.4265486 87.870153 -194.98233)"><path d="m76.793 192.544c.493-1.276-3.341-4.807-6.86-3.441 3.268 1.868 4.128 5.078 4.128 5.078z"/><path d="m62.099 200.517c-1.279-1.15-6.647 2.125-6.327 7.076 3.274-3.275 7.232-2.987 7.232-2.987z"/><path d="m62.568 193.508c-.551-1.63-6.835-1.407-8.984 3.065 4.459-1.248 7.768.943 7.768.943z"/><path d="m68.969 206.736c-.344 1.205 0 1.72.688 2.581.688.86 1.204 3.098 1.204 3.098s3.786-4.819 3.27-5.679-4.99 0-5.162 0z"/></g><g fill="#002e56" stroke-opacity=".948408" stroke-width="1.165707" transform="matrix(2.5467437 0 0 3.4265486 86.278438 -194.98227)"><path d="m53.998 151.333c0-1.72-6.025-3.521-9.491.029 4.624.244 7.058 3.378 7.058 3.378z"/><path d="m47.744 158.181c-1.279-1.151-6.647 2.125-6.327 7.076 3.274-3.275 7.232-2.988 7.232-2.988z"/><path d="m69.614 150.737c.582-1.62-4.48-5.351-8.942-3.182 4.269 1.793 5.499 5.566 5.499 5.566z"/><path d="m76.759 156.654c1.004-.928-.883-5.787-4.643-6.11 2.112 3.115 1.47 6.377 1.47 6.377z"/></g><path d="m332.91429 361.32484c-9.63199-10.89486-.1123-30.7632 8.52183-22.28853-4.52241-8.13145 2.87324-14.56926 6.22935-10.49552-1.56255-6.61903 5.53149-11.00553 9.01113-4.89812-1.24971-7.38246 9.27104-11.70159 11.99829-3.6359.18288-7.25576 10.46459-12.98306 12.73462-2.35764 2.00212-8.17797 13.46457-9.25093 14.4143 2.37208 3.34488-6.76018 11.9373-6.26459 12.43623 3.55411 3.71547-4.61585 13.31698 2.29349 11.68224 10.46183 5.92935-1.24778 13.1742 10.42174 5.947 19.02312 12.82286-6.64951 15.85171 14.90286 8.0598 24.68627 4.02991 2.39293 4.38285.28227 7.93789 2.07537 3.55665 1.79309 10.00257 4.74575 15.90305 6.0192 5.33417 0 24.88691-.59823 28.88633-1.19486 3.99943-.59824 9.46676-2.62869 15.99931-4.78425 6.84057-2.15556 16.73405-2.23575 25.76284-4.36725 7.1534-.78107 207.99414 3.17079 213.77269 2.57255 5.77855-.59983 14.20895-5.99674 13.76456-12.57408-.44438-6.57734-7.09885-11.34395-13.76456-11.94218-6.6657-.59662-40.88621-.59662-47.10914.59823-6.22133 1.19325-15.11055 4.18281-19.55275 8.37044-2.13527 1.3392-5.66625 6.39771-8.65659 9.72727-2.79944 2.29509-10.70524 2.6351-10.70524-.35766 0-1.95507-.66577.3753-2.60693 1.13391-2.5219 1.53488-13.89612 1.95509-13.39398 0 .88876-2.21329-.0578-2.90935-3.0513-.59662-2.22191 1.79309-17.94046 2.45387-20.82653.67842 1.7294-2.81313 1.74543-2.65114-2.97912-.34002-2.99034 1.27666-15.37524 2.27585-16.264-.17962-.11872-1.93423-1.52244-.98636-3.26949-.43624-14.03568 3.56854-15.38166-.56134-13.15976-2.35604 2.22351-1.79149 5.58604-12.05766 2.03421-11.45782-3.55825.59662-25.77728 4.78104-33.33175 5.97911s-62.21808 0-69.77255-.59663c-7.55287-.59823-15.9977-7.50917-16.44368-17.34069-.7909-15.77054 12.44426-19.73202 20.4415-22.12495 8.00045-2.39132 27.99757-5.9791 35.99642-5.9791 8.00045 0 30.81787 2.75058 37.0408.35765 6.22133-2.38811 25.11312-9.07131 30.4521-9.56529 7.87693-.7105 30.44407 1.8813 41.19745 14.44898-5.59888 2.47312-8.23147 3.9278-1.87699 1.69686 5.77534-1.19647 30.57562-6.21969 36.35256-7.53323 20.00034-.83721 14.7528 2.15396 4.97642 4.54367-3.26466 10.1122-32.65154 24.22277-41.98673 26.01585-9.33038 1.79631-29.1366.47956-33.56597-.30312-4.44541-.32398-25.47247-1.34562-33.1264-6.16676-12.37047-8.1539-35.22317-13.51393-45.24179-13.32788-9.3753.18283-36.11353 2.91256-35.99642 11.95981-.13957 15.88602 24.88691 16.74246 35.55205 16.14263 10.66513-.59663 37.33116-1.79309 44.88563-4.78265 7.55287-2.98955 23.89548-3.72411 32.7847-3.72411 8.88921 0 21.87891 1.92942 25.87834 1.33279 3.99783-.59823 13.33142-.73295 17.77522-3.72251 4.44541-2.99115 14.10628-6.11543 23.88586-6.11543 9.77797 0 82.3291-2.7169 92.10547-2.11867 14.1528-.0946 24.15537 14.93975 24.32382 27.72715.0818 5.9775-2.93259 14.81465-5.49139 16.18433 4.39087.39293 15.38166 1.59581 19.0057 2.33198 6.80848 1.31034 17.84419 8.60459 19.10675 15.24608-5.17054-3.0521-13.51591-7.66154-21.03347-8.16513-1.47272.0176-159.85827-.25822-172.29772-.18285 33.84351 3.88771 59.70582 29.22032 66.16618 43.72543 5.77855 8.96866 20.00032 5.38088 25.33129 4.18602 5.33257-1.19646 11.55549-6.57894 16.00091-10.76496 4.44541-4.18441 11.39346-5.24615 14.5314-4.18441 6.90795-.59663 8.1352 6.57894 5.46893 10.16352-2.66629 3.58939.44117 2.11386 7.55286 2.11386 17.94202-.21108 14.11586 9.24611 14.11586 9.24611s12.38772.72752 8.93995 14.7431l.0624.31451c7.32316.87663 12.87403 10.89719 12.88144 13.82431-7.28558.40727-3.11065-.77946 0 2.2117 3.10907 2.98954 7.64432 16.23083-3.55664 16.74085-3.36925-.008-2.89873.10939-2.89873.10939.79091 4.1828-1.54508 16.03641-7.7648 16.03641-8.6197 1.61507-16.44369-2.98954-17.33405-8.37202-.88876-5.37928-.77164 10.38644-12.99131 12.874-11.53946 2.49558-17.67415-3.90374-18.56131-6.8933-.89036-2.99115-.44438-.59983-4.88658-1.19966-4.44541-.59663-10.04749-.65116-12.44586-7.77221 0-4.18441.86791-9.70161 8.78493-10.449 3.55665-.59662 4.54969-5.097 1.8802-5.69522-2.66628-.59824-.44277-9.5669 5.33417-7.17557 5.77855 2.39292 19.10836 2.98955 22.22063 5.98071 3.11226 2.98634 4.00103-2.39293-.88716-7.17558-4.88979-4.78585-34.66328-14.35274-42.66533-10.76495-18.6271 9.12102-50.05551 7.35219-55.94661 7.41893-6.01637-.85545-19.90596 1.23128-27.15736-20.57201-5.89085-22.25966-28.27994-33.25878-38.49908-34.45524-50.42516-4.61425-47.68668-1.06495-14.98541.43944-.24384 4.15555-1.42779 12.66391 3.87108 13.91009 8.89242-1.19646 22.72144-4.55349 27.73614-1.99174 5.0866 2.59847 10.71091 6.92043 12.09608 15.51851.0205 2.10836.44438 5.97911-3.55665 9.56529-3.99942 3.58778-2.2219 10.76336 4.00103 13.15628 6.22133 2.38972 8.89082 5.37927 12.88864 8.96866 3.99942 3.58457-1.77752 10.76335-5.33417 8.37203-3.55504-2.39292-3.55504-2.39292-3.99943 2.39132-.44438 4.78265-4.86251 13.83471-12.37367 14.4971-1.57539-.57739-1.13903-3.05211-.95775-4.93181.44439-4.18441-1.50319 5.19965-3.82615 7.80268-1.47914 1.7578-14.06136 5.19483-17.6148 3.40174 1.58822-3.74337.67058-2.21651-2.44008-.42021-3.03527 1.17401-19.41638 3.38891-12.11539-4.20687 1.89303-2.76661-2.60371 3.45467-5.08391 4.54047-2.08232 1.26222-11.80415 2.03848-11.80415-1.55091-3.0866 2.63671-10.42609 2.63991-11.55389.59823-2.2203-2.39132-2.43367 1.79309-6.43149 2.38972-3.99782.59662-12.67688-.59663-13.12286-5.38088-.44438-4.78104.89036-1.79309-3.99782-1.19646-11.90042 7.67436-17.77843-2.98795-17.77843-6.57573 0-3.58779-.44438-7.77541.88876-10.16673 1.33315-2.38973-8.27959-3.11305-5.33256-7.82192 3.31279-5.75938 6.79244-9.98069 13.33141-8.92055 3.11067.59663 2.66628-1.19646 1.33315-3.58778-1.33315-2.38972 3.55504-3.58619 9.33359-1.19646 5.77855 2.39132 9.77797 8.37203 11.55549 13.7529 1.77592 5.38088 15.55492 1.19647 21.33188 1.7931 5.77854.59822 6.22133-8.96866 2.66627-11.95822-3.55664-2.99116-13.33462-13.75291-17.33404-17.33909-4.00103-3.58939-1.33475-16.14584 2.2219-19.137 20.69658-13.59893 9.33359-17.93892 1.77432-16.74085-7.55287 1.19485-26.96764 8.74733-33.18897 15.32467-6.22294 6.57734-54.56255 38.81447-59.00475 42.40227-4.44541 3.58778-10.90738 4.45866-13.57365.27425-2.66629-4.18762-4.44542-1.19647-4.00103 4.78424 3.53097 22.58205-17.33405 29.78007-20.99177 29.49458-2.54597-.2518-6.19406-1.6311-8.82344-3.75779-2.59249 12.6206-14.06296 13.8732-24.42329 12.62862-.15882-1.48836 1.93474-4.27263.79091-3.20607-3.4251 4.33678-13.95067 3.87808-22.98747 3.2221-.60159-2.63991 3.11548-5.83796 1.33796-4.04327-3.03367 5.55088-8.24912 4.55651-16.70197 3.9679-.0995-1.1692 3.9176-5.08256 2.04543-2.74256-3.69943 3.93421-11.4063 2.70407-17.38538 2.8003-.70749-.88051 3.09141-7.06171-.38503-2.97833-3.32243 3.48674-10.36032 4.06733-17.08699 3.1339-1.19678-2.93984 1.40052-2.9687 2.11441-4.81472 1.77753-2.98795-.88875 0-3.10905 0-2.2219 0-5.33418.59822-6.66732-2.39132-1.33313-2.98956-.5679 2.99115-1.85933 4.61905-1.28983 1.41298-2.7465 4.72971-7.19031 5.92297-4.4454 1.19647-15.45468-.47793-17.77682-2.98795-2.39516-2.47793-3.55665-7.77219-1.77752-10.76495 1.77752-2.98795-8.46248 5.769-12.88704 6.57893-13.01537 2.44265-14.66616-17.33909-8.88921-19.13217 5.77855-1.7963 4.88658-4.78425 1.77591-7.17558-3.11066-2.39293-4.88818-11.96142-.88715-14.94937 3.99782-2.98956 13.25602-4.64471 19.10836-1.19646 3.4251 2.28707 10.75658 10.12663 9.3336 4.18441-.99143-3.67278 1.5433-8.34476 4.37964-10.34956 2.46253-2.20688 10.04267-2.76983 12.06244 1.97913 4.68283 11.00394 7.99885 15.74167 13.7774 15.546 12.30629-3.26862 28.94088-6.97349 33.82746-6.97349 6.27266-1.44826 39.47927-4.61423 39.47927-7.60379-19.9153 6.70244-27.96709-1.97112-30.18738-1.37449-2.2203.59663-7.69244-1.94065-7.69244-3.61024 0-3.58778 5.01492-3.15956-2.09677-1.9647-4.25611-.33841-8.04859-.53087-11.6325-4.85001-.58716-2.20527 4.7069-9.78982 6.63041-16.16348-4.58979-1.20768-14.73836 6.81953-18.06239 13.90368-2.33098-2.71851-3.2759-.2502-11.60201 1.72733-3.92724 1.66318-10.31861 1.06655-13.87206-.72814-3.55504-1.79309-17.48164-12.05285-10.74694-13.37601-1.77111-.84041-3.81013-1.32477-5.15289-1.68564-4.88819-2.03045-8.94992-5.48429-7.52854-6.56367 1.07372-1.2729.8548-2.27989-1.10239-2.64075-2.66629-.59663-9.23253-5.25256-7.54805-7.05047.5052-.81849-5.67909-2.74738-7.37319-3.58618-3.11066-1.79469-6.22775-8.01759-6.67052-11.00554-2.86842.26785-8.98547-5.00397-6.22293-6.57893-4.67161-3.37127-8.64537-8.91895-5.5331-10.71525-2.72565-2.08819-1.199-2.19052-2.73366-4.4715-2.83313-3.37127-1.9556-6.93659.2679-6.93659 2.22191 0 1.33315-9.5669-2.66627-9.5669-3.99943 0-10.43252 3.01682-15.11055 0-3.84702-2.85964-7.11169-15.54761-3.55665-20.93008 3.55665-5.37927 10.66514-11.35999 14.22178-10.76336 3.55665.59824 1.77753 1.79309.88877-3.58778-.88877-5.38088 5.01813-9.42255 8.88921-10.76336 4.69086-2.08499 13.7774-.59662 16.44368 1.7947 2.66629 2.39132 3.55505 2.39132 3.55505-1.7947 0-2.94144 3.43312-4.4731 6.48924-5.24455 5.08711-1.16919 9.06568.23737 10.84321 2.25339 2.76254 3.84601 4.4454 8.37203.88875 11.95983-3.55504 3.58617-.47005.5469 5.30851-.64795 3.72028-1.19647 10.43412.34481 11.57956 4.23573 1.54329 4.18441 2.66628 11.36159-1.33315 14.94937-3.99942 3.58618-9.77637 12.55644-6.6657 15.546 3.11066 2.98795 12.88864 16.14263 15.11054 17.93893 2.2219 1.79309 4.88658 5.9791 8.44323 5.37927 3.55504-.59663 7.55446-1.19325 10.66513-1.7931 12.34639-2.41376 17.71354-2.38103 1.86664-1.88866 3.55825-4.88689 11.20649-7.61247 14.43908-8.47373-2.84596-4.16356 7.69083-12.9558 7.69083-14.15066z" fill="#ffc103" stroke-opacity=".948408" stroke-width="3.443657"/><path d="m353.6237 383.21403c5.93095 10.06086 20.07252 4.02563 23.72222 8.05126 3.64969 4.02563-3.54382 18.04638-5.82668 26.09604-5.2684 6.93179-17.00678 6.48111-21.32545 1.33439 2.32457-9.615 2.51709-30.11525 2.9727-30.78406z" fill="#002e56" stroke-opacity=".948408" stroke-width="3.625946"/><path d="m778.75306 492.47868c-1.93313-5.20285-7.73414-6.50516-7.73414-6.50516" fill="none" stroke-opacity=".948408" stroke-width="3.443657"/><path d="m409.88035 401.96449c4.38283 8.25656 5.67106 22.27089.72031 29.06956" fill="none" stroke-opacity=".948408" stroke-width="3.145699"/><path d="m394.09922 420.84006c4.38284 2.35763 10.51915 16.50829 9.64161 21.23-.87592 4.71528-.87592 4.71528-.87592 4.71528" fill="none" stroke-opacity=".948408" stroke-width="3.145699"/><path d="m392.34897 426.73416c2.62939 7.07774 6.1347 17.69194 5.25878 21.23-.87594 3.53967-.87594 3.53967-.87594 3.53967" fill="none" stroke-opacity=".948408" stroke-width="3.145699"/><path d="m376.56785 433.80067c1.75345 7.07773.87593 18.87397-1.75185 21.23-2.631 2.35924-2.631 2.35924-2.631 2.35924" fill="none" stroke-opacity=".948408" stroke-width="3.145699"/><path d="m372.17859 434.98591c-2.62939 8.25495-5.26037 20.05117-5.26037 20.05117" fill="none" stroke-opacity=".948408" stroke-width="3.145699"/><path d="m330.11324 412.5851c-4.38284 3.53967-10.51914 11.79463-10.51914 11.79463" fill="none" stroke-opacity=".948408" stroke-width="3.145699"/><path d="m335.3656 424.37813c-7.01383-4.7169-14.90199 3.53805-14.90199 3.53805" fill="none" stroke-opacity=".948408" stroke-width="3.145699"/><path d="m431.86996 359.33288c-4.62348 2.04168-3.94166 12.69437-3.94166 12.69437" fill="none" stroke-width="4.124283"/><path d="m333.5608 344.5054c4.93471 3.3873 2.96147 13.54922 2.96147 13.54922" fill="none" stroke-width="3.617423"/><path d="m219.41116 335.90722c9.5983.92221 14.39825 8.30307 16.45491 14.76012 2.05667 6.45705 3.42831 10.14588 3.42831 10.14588" fill="none" stroke-opacity=".948408" stroke-width="3.443657"/><path d="m263.98237 331.80621c-5.48498 6.45545-4.79836 18.44894-4.79836 18.44894" fill="none" stroke-opacity=".948408" stroke-width="3.443657"/><path d="m424.15347 469.70258c3.38338-11.68075 9.72824-14.31265 17.66773-18.13299 8.22024-3.25258 20.73027-13.09053 12.99452-5.93741-7.73575 7.15793-18.8966 11.71122-22.76448 14.31426-3.86947 2.60303-6.2855 8.4025-4.31225 11.05845" fill="none" stroke-opacity=".948408" stroke-width="3.443657"/><path d="m407.91513 425.47034c7.25126 11.70801 2.77055 28.00621-6.41545 32.55951" fill="none" stroke-linecap="round" stroke-opacity=".948408" stroke-width="3.443657"/><path d="m432.64238 385.6336c11.77207 4.75217 11.64617 15.44075 13.34188 22.05178-4.15023-1.86687-6.47149-.82022-9.58696-2.19791" fill="none" stroke-opacity=".948408" stroke-width="3.443657"/><path d="m423.00962 423.63876c0 10.4089-7.39724 14.67832-10.78063 15.98063" fill="none" stroke-opacity=".948408" stroke-width="2.922186"/><path d="m247.26435 324.46223c.96737 5.85402-.48288 7.15633-1.93474 12.35917-1.45025 5.20286.48288 14.31266.48288 14.31266" fill="none" stroke-opacity=".948408" stroke-width="3.443657"/><path d="m740.76895 436.07812c-4.83683-.65116-12.0865 1.95187-12.0865 1.95187" fill="none" stroke-opacity=".948408" stroke-width="3.443657"/><path d="m763.24146 445.04357c-6.76838 2.59983-14.50253 3.25258-14.50253 3.25258" fill="none" stroke-opacity=".948408" stroke-width="3.443657"/><path d="m771.93976 460.05069c-5.80261-.64635-10.15336-.64635-10.15336-.64635" fill="none" stroke-opacity=".948408" stroke-width="3.443657"/><path d="m783.22414 474.17247c-5.80101-.64954-14.98862 0-14.98862 0" fill="none" stroke-opacity=".948408" stroke-width="3.443657"/><path d="m721.76808 504.58124c1.45186-7.80587 11.063-14.06085 16.37951-14.06085h5.31653" fill="none" stroke-opacity=".948408" stroke-width="3.443657"/><path d="m713.78528 487.32395c5.80421-1.95187 14.98701-2.60143 14.98701-2.60143" fill="none" stroke-opacity=".948408" stroke-width="3.443657"/><path d="m322.18178 383.1194c-16.1453 8.25976-18.90302 15.56363-16.38594 32.96688" fill="none" stroke-opacity=".948408" stroke-width="3.443657"/><path d="m389.72279 419.32925c.94011 9.29102 1.49679 35.24432-8.37906 41.8778-9.87583 6.63347-22.24148 7.41615-31.89272 4.23252" fill="none" stroke-opacity=".948408" stroke-width="3.420349"/><path d="m367.86954 433.72208c-.96897 9.13065-10.3924 31.87307-28.75158 28.75039" fill="none" stroke-opacity=".948408" stroke-width="3.443657"/><path d="m656.34308 370.97835c2.41922-7.15793 13.53676-13.6631 13.53676-13.6631" fill="none" stroke-opacity=".948408" stroke-width="3.443657"/><path d="m640.17212 370.60144c4.83685-8.45704 13.53676-13.66149 13.53676-13.66149" fill="none" stroke-opacity=".948408" stroke-width="3.443657"/><path d="m616.58146 371.38091c7.34591-4.3031 9.40899-5.99996 11.8218-8.21646 2.60211-2.47633 7.73415-7.15633 7.73415-7.15633" fill="none" stroke-opacity=".948408" stroke-width="3.443657"/><path d="m596.0854 371.12589c5.3807-2.73133 9.54696-4.33677 13.15014-6.92857 4.5192-3.08419 7.64752-7.25577 7.64752-7.25577" fill="none" stroke-opacity=".948408" stroke-width="3.278067"/><path d="m600.49071 348.53745c-17.0886-5.65354-24.73611-16.88681-24.73611-16.88681" fill="none" stroke-opacity=".948408" stroke-width="3.443657"/><path d="m628.94229 324.59696c-11.31967 4.58858-34.32799 2.60142-35.29537 2.60142" fill="none" stroke-opacity=".948408" stroke-width="3.443657"/><path d="m337.66772 456.61847c5.8026-4.55329 10.36834-13.93414 10.36834-13.93414" fill="none" stroke-opacity=".948408" stroke-width="3.443657"/><path d="m332.94156 409.85377c-8.51863-1.30232-30.06708 16.8435-23.11581 39.40629" fill="none" stroke-opacity=".948408" stroke-width="3.726657"/><path d="m318.14224 398.64134c-10.96994 2.86125-15.43942 22.37354-9.59348 32.86584" fill="none" stroke-opacity=".948408" stroke-width="4.28883"/><path d="m427.45182 391.57323c7.99725 10.63504 11.04214 17.13861 11.50417 20.84187.754 6.43459 1.58467 19.02812-17.31674 18.7715 1.46442-4.87661 2.79834-14.13553-.22569-19.14432" fill="none" stroke-opacity=".948408" stroke-width="3.145699"/><path d="m399.43179 351.12283c-.87593 5.33437-.87593 5.33437-.87593 5.33437" fill="none" stroke-linecap="round" stroke-opacity=".948408" stroke-width="6.687458"/><path d="m363.3728 341.49179c-1.02994 4.01441-2.85559 8.13626-2.85559 8.13626" fill="none" stroke-linecap="round" stroke-opacity=".948408" stroke-width="5.42483"/><path d="m377.10688 332.21679c1.37165 11.9935-4.11333 18.45055-7.54163 18.45055-3.42991 0-7.25608 4.47471-5.15128 11.67274" fill="none" stroke-opacity=".948408" stroke-width="3.443657"/><path d="m391.43294 330.37238c-6.1716 8.30146-7.54163 17.52834-5.48337 24.90599 2.05506 7.38086.10588 9.5252.10588 9.5252" fill="none" stroke-opacity=".948408" stroke-width="3.443657"/><path d="m418.92838 370.96391h-7.54163c-5.3399 9.43895-20.33155 6.20749-16.3023 8.00926" fill="none" stroke-opacity=".948408" stroke-width="3.443657"/><path d="m378.48013 362.49564c11.73999.29832 9.37852 9.38566.68502 8.46346.68502 11.06969-12.97527 9.67435-11.80576 1.19325-8.21543.24219-11.58598-10.95902.34651-9.40811" fill="none" stroke-opacity=".948408" stroke-width="3.443657"/><path d="m394.52161 376.70115c.48289 12.36076-22.86601 22.09737-22.38152 3.23142" fill="none" stroke-opacity=".948408" stroke-width="3.443657"/><path d="m372.10611 379.82014c-.49251 9.10819-13.44598 11.185-17.86572 3.37752-3.43954-5.20445-5.25461-7.16241-7.70913-7.81358-2.45452-.64795-2.17859-8.22447-2.67591-9.33754-.29839-1.51402-1.88822-5.42899-2.68233-6.89971" fill="none" stroke-opacity=".948408" stroke-width="3.470792"/><path d="m408.39962 342.85665c-5.80262 5.85241-6.2855 6.50517-6.2855 6.50517" fill="none" stroke-opacity=".948408" stroke-width="3.443657"/><path d="m414.20223 353.90869c-7.73736.64956-8.15447.31276-8.15447.31276" fill="none" stroke-opacity=".948408" stroke-width="3.443657"/><path d="m386.66668 349.5206c5.7192-2.03848 19.03136-.32559 18.83884 4.41697.008 5.82193-5.20422 6.17798-18.95595.6688l.11711-4.27423z" fill="none" stroke-opacity=".948408" stroke-width="3.901814"/><path d="m368.62355 350.12525c.71229-6.91415-13.18383-13.73366-16.56721-9.87644-4.12135 6.37525 7.57212 12.06086 10.67314 12.06086 2.90052 0 2.9152.95483 2.9152.95483" fill="none" stroke-opacity=".948408" stroke-width="3.169528"/><path d="m406.36541 376.02562c-5.25877 14.15066-.87592 27.1241-.87592 27.1241" fill="none" stroke-opacity=".948408" stroke-width="3.443657"/><path d="m344.13128 379.55406c-4.38284 3.53646-7.88816 2.35765-7.88816 2.35765" fill="none" stroke-opacity=".948408" stroke-width="3.443657"/><path d="m352.59753 381.23438c-.54385 12.92693-6.58933 20.00285-6.58933 20.00285" fill="none" stroke-opacity=".948408" stroke-width="3.625424"/><path d="m345.39704 374.18121c-3.70905 14.0865 1.01641 25.25629 1.01641 25.25629" fill="none" stroke-opacity=".948408" stroke-width="4.002352"/><path d="m382.10255 390.67186c-.87913 12.78901 5.35408 20.84143 5.35408 20.84143" fill="none" stroke-opacity=".948408" stroke-width="3.609944"/><path d="m389.96504 385.9614c2.12885 14.44897-2.80638 23.64727-2.80638 23.64727" fill="none" stroke-opacity=".948408" stroke-width="3.985305"/><path d="m433.90256 377.81711c1.43742.69446 5.11439.0577 11.87796 2.81153-2.79944 4.00798-10.01541 6.33836-12.82607 5.16756" fill="none" stroke-opacity=".948408" stroke-width="3.443657"/><path d="m227.59129 388.43772c4.11493 1.84441 11.65656 0 11.65656 0" fill="none" stroke-opacity=".948408" stroke-width="3.443657"/><path d="m231.59714 398.38472c9.08011 2.76983 18.16184-1.84441 18.16184-1.84441" fill="none" stroke-opacity=".948408" stroke-width="3.133001"/><path d="m273.87898 439.24282c9.5983-2.76661 16.15499-9.24806 16.15499-9.24806" fill="none" stroke-opacity=".948408" stroke-width="3.443657"/><path d="m244.71197 487.74255c4.83525-1.30232 14.98862 0 14.98862 0" fill="none" stroke-opacity=".948408" stroke-width="3.443657"/><path d="m262.73425 503.11533c2.9021-5.20284 9.67049-9.75774 9.67049-9.75774" fill="none" stroke-opacity=".948408" stroke-width="3.443657"/><path d="m317.02568 510.04712c2.41762-3.25097 2.41762-13.66149 2.41762-13.66149" fill="none" stroke-opacity=".948408" stroke-width="3.443657"/><path d="m334.66454 509.96532c3.84861-4.26621 4.05877-13.42733 4.05877-13.42733" fill="none" stroke-opacity=".948408" stroke-width="3.443657"/><path d="m348.68258 509.72474c3.86947-7.15792 3.23579-15.42571 3.23579-15.42571" fill="none" stroke-opacity=".948408" stroke-width="3.443657"/><path d="m370.64332 510.51864c2.41601-3.90213 2.41601-13.00873 2.41601-13.00873" fill="none" stroke-opacity=".948408" stroke-width="3.443657"/><path d="m527.33637 489.86923c-8.70633-1.95186-14.02285 9.75936-14.02285 9.75936" fill="none" stroke-opacity=".948408" stroke-width="3.443657"/><path d="m538.76513 487.98312c-.96898 8.45704-7.73254 16.26452-7.73254 16.26452" fill="none" stroke-opacity=".948408" stroke-width="3.443657"/><path d="m552.48959 487.27102c-.48449 7.15632-8.22184 16.91408-8.22184 16.91408" fill="none" stroke-opacity=".948408" stroke-width="3.443657"/><path d="m569.54771 484.41779c-1.27378 9.51558-8.23468 16.65105-8.23468 16.65105" fill="none" stroke-opacity=".948408" stroke-width="3.443657"/><path d="m582.11068 481.06577c.48448 8.45543-3.86787 21.46897-6.76999 24.0688" fill="none" stroke-opacity=".948408" stroke-width="3.443657"/><path d="m597.09609 484.67281c1.45186 4.55489 0 11.06005 0 11.06005" fill="none" stroke-opacity=".948408" stroke-width="3.443657"/><path d="m502.54732 466.93115c5.80261 1.30232 9.18761 7.80588 9.18761 7.80588" fill="none" stroke-opacity=".948408" stroke-width="3.443657"/><path d="m492.64903 483.25822c3.0497-10.24051 16.18699-5.23653 17.77843-2.48916" fill="none" stroke-opacity=".948408" stroke-width="3.443657"/><path d="m450.69276 463.84696c-8.31969 2.75861-12.21965 2.94946-14.93888.51003" fill="none" stroke-linecap="round" stroke-opacity=".948408" stroke-width="3.443657"/><path d="m459.95578 457.05151c-7.29779 2.7586-11.45444 3.70486-15.07847 1.45308" fill="none" stroke-linecap="round" stroke-opacity=".948408" stroke-width="3.327292"/><path d="m472.30378 448.73079c-4.8529 2.76021-7.61704 3.70487-10.02664 1.45309" fill="none" stroke-linecap="round" stroke-opacity=".948408" stroke-width="2.713285"/><path d="m480.86733 442.32186c-5.93898 2.7602-9.32237 3.70486-12.27101 1.45308" fill="none" stroke-linecap="round" stroke-opacity=".948408" stroke-width="3.001677"/><path d="m246.55045 324.46223c.96738 5.85402-.48288 7.15633-1.93313 12.35917-1.45025 5.20286.50764 14.46115.50764 14.46115" fill="none" stroke-opacity=".948408" stroke-width="3.443657"/><path d="m264.92888 331.80621c-5.48497 6.45545-4.86997 18.41395-4.86997 18.41395" fill="none" stroke-opacity=".948408" stroke-width="3.443657"/><path d="m220.12185 334.63057c9.82771.9222 14.74156 8.30307 16.84795 14.76012 2.1048 6.45705 3.60755 10.93944 3.60755 10.93944" fill="none" stroke-opacity=".948408" stroke-width="3.484359"/></g></svg>