<svg height="600" viewBox="0 0 900.00001 599.99999" width="900" xmlns="http://www.w3.org/2000/svg"><path d="m0 0h900v600h-900z" fill="#fff"/><path d="m0 0 9.683-19.882s15.538 1.644 23.189 3.681c10.463 2.785 26.724 11.255 26.724 11.255 7.34 3.491-9.031 13.752-14.763 19.242-4.42 4.238-7.429 9.721-7.429 9.721-4.369 6.218 10.987 15.769 22.088 22.193 14.223 8.228 30.692 16.045 45.59 18.419 25.381 4.044 85.618 10.373 85.618 10.373l6.096-19.562-13.919-28.637-20.814-12.678c3.972-4.015-30.175-1.691-56.417-.931-8.405.243 1.576-21.672 1.576-21.672s6.539-4.33 9.032-7.735c2.494-3.406 3.884-7.326 1.838-10.883-2.047-3.556-8.031-5.247-12.995-6.114-4.964-.868-11.859 1.813-11.859 1.813 2.172-3.215 4.1-6.495 3.638-9.964-.817-6.142-15.206-13.576-15.206-13.576s2.794 6.042 1.822 8.952c-1.164 3.477-5.458 7.655-5.458 7.655s-.528-5.032-1.653-7.478c-3.119-6.77-19.814-13.44-19.814-13.44s3.668 6.938 3.621 10.636c-.046 3.642-4.521 7.047-4.521 7.047s-1.462-5.792-4.678-9.317c-3.865-4.236-15.578-8.902-15.578-8.902s2.493 5.703 2.695 8.702c.197 2.871-1.439 8.533-1.439 8.533s-6.702-9.432-10.781-12.643c-4.945-3.896-15.531-6.716-15.531-6.716s6.32 9.752 4.245 14.346c-1.998 4.426-15.773 7.06-15.773 7.06s-14.72-6.133-24.155-7.46c-4.678-.656-10.855-1.218-14.057 1.829-4.379 4.166-4.937 7.822-2.629 13.104 1.156 2.641 8.888 6.588 8.888 6.588s-5.849 2.926-7.485 4.853c-2.95 3.469-2.855 7.645-.698 11.532 2.271 4.092 6.767 5.52 11.982 5.535 3.848.009 10.279-4.13 10.279-4.13s1.699 10.876 6.582 12.832c4.713 1.886 12.466-4.181 12.466-4.181" fill="#cd0707" transform="matrix(.8739670625 0 0 -.8739670625 516.726701769 373.56762922094)"/><path d="m0 0 9.683-19.882s15.538 1.644 23.189 3.681c10.463 2.785 26.724 11.255 26.724 11.255 7.34 3.491-9.031 13.752-14.763 19.242-4.42 4.238-7.429 9.721-7.429 9.721-4.369 6.218 10.987 15.769 22.088 22.193 14.223 8.228 30.692 16.045 45.59 18.419 25.381 4.044 85.618 10.373 85.618 10.373l6.096-19.562-13.919-28.637-20.814-12.678c3.972-4.015-30.175-1.691-56.417-.931-8.405.243 1.576-21.672 1.576-21.672s6.539-4.33 9.032-7.735c2.494-3.406 3.884-7.326 1.838-10.883-2.047-3.556-8.031-5.247-12.995-6.114-4.964-.868-11.859 1.813-11.859 1.813 2.172-3.215 4.1-6.495 3.638-9.964-.817-6.142-15.206-13.576-15.206-13.576s2.794 6.042 1.822 8.952c-1.164 3.477-5.458 7.655-5.458 7.655s-.528-5.032-1.653-7.478c-3.119-6.77-19.814-13.44-19.814-13.44s3.668 6.938 3.621 10.636c-.046 3.642-4.521 7.047-4.521 7.047s-1.462-5.792-4.678-9.317c-3.865-4.236-15.578-8.902-15.578-8.902s2.493 5.703 2.695 8.702c.197 2.871-1.439 8.533-1.439 8.533s-6.702-9.432-10.781-12.643c-4.945-3.896-15.531-6.716-15.531-6.716s6.32 9.752 4.245 14.346c-1.998 4.426-15.773 7.06-15.773 7.06s-14.72-6.133-24.155-7.46c-4.678-.656-10.855-1.218-14.057 1.829-4.379 4.166-4.937 7.822-2.629 13.104 1.156 2.641 8.888 6.588 8.888 6.588s-5.849 2.926-7.485 4.853c-2.95 3.469-2.855 7.645-.698 11.532 2.271 4.092 6.767 5.52 11.982 5.535 3.848.009 10.279-4.13 10.279-4.13s1.699 10.876 6.582 12.832c4.713 1.886 12.466-4.181 12.466-4.181z" fill="none" stroke="#800000" stroke-width="1.322" transform="matrix(.8739670625 0 0 -.8739670625 516.726701769 373.56762922094)"/><path d="m0 0-5.739 12.79c-1.892 4.219 8.056 7.386 7.539 11.891-.555 4.832-3.57 9.697-8.536 11.894-6.472 2.862-34.652-2.499-41.832-3.409-10.957-1.405-21.329-5.663-31.088-10.232-10.544-4.935-29.128-18.303-29.128-18.303s1.377-5.794 3.12-8.266c6.072-8.614 18.572-12.174 18.268-22.282-.186-6.184-4.92-8.652-9.498-11.624-9.78-6.352-19.639-8.674-31.585-10.814-8.884-1.594-24.286-1.037-24.286-1.037s-5.513 14.729-11.203 20.412c-1.252 1.251-3.037 3.421-4.773 2.739-4.572-1.803-2.1-12.998-2.1-12.998s-9.959 4.262-15.34 4.394c-3.703.091-6.631.742-8.22-2.178-.881-1.623-1.413-3.949.026-5.236 3.343-2.993 15.539-8.114 15.539-8.114s-12.802-4.19-15.276-8.7c-1.308-2.38-2.879-4.679-.632-6.446 2-1.568 6.083-1.233 8.716-.752 9.212 1.683 26.512 8.268 26.512 8.268l21.237-6.259 1.362-8.061 15.36 15.822 6.741-14.483 7.142 13.645 14.65-10.475 7.439 14.432 13.685-9.848-2.598 15.389s11.354-2.278 17.132-2.294c2.124-.007 5.037-.678 6.303.808 1.437 1.684-.004 4.341-1.05 6.229-1.726 3.115-8.149 7.566-8.149 7.566s-7.536 13.298-6.403 20.141c.683 4.135 1.728 9.414 6.437 10.188 12.069 1.978 61.854-4.019 60.228 5.203" fill="#e94545" transform="matrix(.8739670625 0 0 -.8739670625 656.10487137555 352.82288833119)"/><path d="m0 0s-18.153-3.077-26.345-6.467c-12.527-5.182-32.712-21.174-32.712-21.174l16.628-19.857-6.842 19.57s15.12 7.336 21.985 11.31c10.277 5.947 27.286 16.618 27.286 16.618" fill="#ee6c6c" transform="matrix(.8739670625 0 0 -.8739670625 618.37920915568 327.3293530189)"/><path d="m0 0c4.763-.976 7.25-3.922 6.968-7.949-.141-2.002-1.606-3.786-5-4.889-6.901 4.005-9.997 4.669-18.172 2.755 7.445 10.078 13.228 8.221 16.204 10.083" fill="#cd0707" transform="matrix(.8739670625 0 0 -.8739670625 481.17660925367 379.39183661801)"/><path d="m0 0c4.763-.976 7.25-3.922 6.968-7.949-.141-2.002-1.606-3.786-5-4.889-6.901 4.005-9.997 4.669-18.172 2.755 7.445 10.078 13.228 8.221 16.204 10.083z" fill="none" stroke="#800000" stroke-width="1.322" transform="matrix(.8739670625 0 0 -.8739670625 481.17660925367 379.39183661801)"/><path d="m0 0c4.741 1.055 8.507-.553 10.393-4.239.937-1.832.585-4.005-1.841-6.35-8.242.769-11.339.11-17.573-4.884 1.256 11.938 7.37 12.622 9.021 15.473" fill="#cd0707" transform="matrix(.8739670625 0 0 -.8739670625 480.51772198939 406.06915682059)"/><path d="m0 0c4.741 1.055 8.507-.553 10.393-4.239.937-1.832.585-4.005-1.841-6.35-8.242.769-11.339.11-17.573-4.884 1.256 11.938 7.37 12.622 9.021 15.473z" fill="none" stroke="#800000" stroke-width="1.322" transform="matrix(.8739670625 0 0 -.8739670625 480.51772198939 406.06915682059)"/><path d="m0 0c2.853-3.467 2.505-7.111-.747-9.983-1.615-1.427-4.066-1.932-7.453-.817-2.178 6.976-4.008 9.25-11.612 12.497 13.21 3.323 16.166-1.393 19.812-1.697" fill="#cd0707" transform="matrix(.8739670625 0 0 -.8739670625 510.00213350414 367.73748583957)"/><path d="m0 0c2.853-3.467 2.505-7.111-.747-9.983-1.615-1.427-4.066-1.932-7.453-.817-2.178 6.976-4.008 9.25-11.612 12.497 13.21 3.323 16.166-1.393 19.812-1.697z" fill="none" stroke="#800000" stroke-width="1.322" transform="matrix(.8739670625 0 0 -.8739670625 510.00213350414 367.73748583957)"/><path d="m0 0s-11.492 2.296-15.555 5.743c-4.417 3.749-7.687 14.629-7.687 14.629s-13.105.481-18.684 2.802c-5.828 2.425-13.143 10.721-13.143 10.721 6.003-.304 10.532-.305 17.098 2.945 0 0-11.113 2.722-17.011 6.289-5.137 3.107-12.79 11.6-12.79 11.6 5.456.226 11.04-1.004 16.155 3.03 0 0-11.021 2.018-15.636 4.706-4.609 2.681-11.094 10.844-11.094 10.844 6.152-.663 12.13-.702 17.005 3.19 0 0-11.219 1.78-15.565 4.447-6.001 3.683-14.247 13.699-14.247 13.699 6.366-.757 12.715-1.442 18.176 1.025l-2.077 7.475c-2.508 9.023-12.04 7.84-17.481 11.24-5.345 3.339-7.317 10.022-6.911 13.477.717 6.095 5.888 14.623 19.714 9.98-4.897 11.598 4.039 17.538 12.197 19.037 7.836 1.441 14.06-.558 16.583-12.709 0 0 7.684 3.803 11.422 3.866 5.202.09 10.479-2.556 11.306-7.322.34-1.959-.205-5.816-1.909-7.853-2.695-3.223-7.472-4.868-9.981-9.858-2.84-5.649.737-17.144.737-17.144s22.97-25.83 33.154-39.515c5.418-7.283 14.813-22.594 14.813-22.594l.751.24 27.114-5.207-6.833-43.904z" fill="#cd0707" transform="matrix(.8739670625 0 0 -.8739670625 616.99913126315 246.9435196517)"/><path d="m0 0s-11.492 2.296-15.555 5.743c-4.417 3.749-7.687 14.629-7.687 14.629s-13.105.481-18.684 2.802c-5.828 2.425-13.143 10.721-13.143 10.721 6.003-.304 10.532-.305 17.098 2.945 0 0-11.113 2.722-17.011 6.289-5.137 3.107-12.79 11.6-12.79 11.6 5.456.226 11.04-1.004 16.155 3.03 0 0-11.021 2.018-15.636 4.706-4.609 2.681-11.094 10.844-11.094 10.844 6.152-.663 12.13-.702 17.005 3.19 0 0-11.219 1.78-15.565 4.447-6.001 3.683-14.247 13.699-14.247 13.699 6.366-.757 12.715-1.442 18.176 1.025l-2.077 7.475c-2.508 9.023-12.04 7.84-17.481 11.24-5.345 3.339-7.317 10.022-6.911 13.477.717 6.095 5.888 14.623 19.714 9.98-4.897 11.598 4.039 17.538 12.197 19.037 7.836 1.441 14.06-.558 16.583-12.709 0 0 7.684 3.803 11.422 3.866 5.202.09 10.479-2.556 11.306-7.322.34-1.959-.205-5.816-1.909-7.853-2.695-3.223-7.472-4.868-9.981-9.858-2.84-5.649.737-17.144.737-17.144s22.97-25.83 33.154-39.515c5.418-7.283 14.813-22.594 14.813-22.594l.751.24 27.114-5.207-6.833-43.904z" fill="none" stroke="#800000" stroke-width="1.322" transform="matrix(.8739670625 0 0 -.8739670625 616.99913126315 246.9435196517)"/><path d="m0 0s5.495-11.708 9.38-14.484c3.719-2.657 11.976-2.3 11.976-2.3l-1.443 5.773-3.42.657c-6.759 11.9-11.833 25.336-6.502 38.448 0 0-7.865 12.623-12.879 18.959-6.593 8.331-24.841 27.598-24.841 27.598s-2.504 12.26-1.494 20.155c.448 3.495 1.978 6.998 4.301 9.742 2.388 2.816 7.666 2.993 9.344 6.237.528 1.023.411 2.413-.163 3.413-.686 1.194-2.085 2.174-3.504 2.364-5.359.722-15.33-5.087-15.33-5.087s-3.34 9.959-7.502 12.854c-1.76 1.224-4.274 1.63-6.414 1.232-2.02-.374-4.173-1.518-5.144-3.239-3.083-5.469.044-18.609.044-18.609s-11.714 5.352-17.109 3.287c-2.056-.788-3.521-3.104-3.779-5.193-.28-2.284.991-4.742 2.639-6.425 4.492-4.588 17.866-8.082 17.866-8.082l11.502-23.344-17.633-1.264c5.655-4.504 10.395-6.575 27.705-9.97-5.028-6.365-10.716-7.783-15.941-10.043l28.22-9.646c-4.003-6.426-11.74-5.605-15.937-7.931 6.363-6.058 17.637-9.898 29.151-13.631-2.804-5.358-10.656-5.334-17.046-6.871 3.897-2.486 11.613-2.746 23.953-4.6" fill="#e94545" transform="matrix(.8739670625 0 0 -.8739670625 600.70610591205 224.1606875722)"/><path d="m0 0c-7.414 27.678-26.679 45.61-47.515 63.627 13.274-28.021 30.869-47.053 47.515-63.627" fill="#ee6c6c" transform="matrix(.8739670625 0 0 -.8739670625 605.99596984711 207.92185517071)"/><path d="m0 0c.039-4.475-2.531-7.206-6.879-7.603-2.16-.196-4.388.842-6.325 3.738 2.698 6.902 2.703 9.815-1.177 16.912 12.398-5.111 11.728-10.653 14.381-13.047" fill="#cd0707" transform="matrix(.8739670625 0 0 -.8739670625 590.30730320734 120.32029104126)"/><path d="m0 0c.039-4.475-2.531-7.206-6.879-7.603-2.16-.196-4.388.842-6.325 3.738 2.698 6.902 2.703 9.815-1.177 16.912 12.398-5.111 11.728-10.653 14.381-13.047z" fill="none" stroke="#800000" stroke-width="1.322" transform="matrix(.8739670625 0 0 -.8739670625 590.30730320734 120.32029104126)"/><path d="m0 0c1.987-4.058.84-7.555-2.942-9.625-1.882-1.029-4.363-.96-7.389.914-.555 7.344-1.821 9.997-8.45 14.931 13.514.223 15.322-5.085 18.781-6.22" fill="#cd0707" transform="matrix(.8739670625 0 0 -.8739670625 559.35994773906 111.35146625247)"/><path d="m0 0c1.987-4.058.84-7.555-2.942-9.625-1.882-1.029-4.363-.96-7.389.914-.555 7.344-1.821 9.997-8.45 14.931 13.514.223 15.322-5.085 18.781-6.22z" fill="none" stroke="#800000" stroke-width="1.322" transform="matrix(.8739670625 0 0 -.8739670625 559.35994773906 111.35146625247)"/><path d="m0 0c3.587-2.902 4.079-6.535 1.55-9.913-1.256-1.679-3.542-2.6-7.118-2.095-3.728 6.457-6.042 8.367-14.234 10.227 12.184 5.552 16.158 1.445 19.802 1.781" fill="#cd0707" transform="matrix(.8739670625 0 0 -.8739670625 536.90739130835 129.14150628906)"/><path d="m0 0c3.587-2.902 4.079-6.535 1.55-9.913-1.256-1.679-3.542-2.6-7.118-2.095-3.728 6.457-6.042 8.367-14.234 10.227 12.184 5.552 16.158 1.445 19.802 1.781z" fill="none" stroke="#800000" stroke-width="1.322" transform="matrix(.8739670625 0 0 -.8739670625 536.90739130835 129.14150628906)"/><path d="m0 0s-13.88-7.06-22.749-3.737c-3.819 1.431-7.42 4.513-8.404 8.035-.954 3.41.814 7.295 3.117 10.175 1.473 1.844 12.454 7.688 12.454 7.688s-2.963 8.697-6.507 13.721c-5.219 7.398-30.644 15.045-30.644 15.045 10.347 2.829 22.404 3.178 34.604.657l20.641-21.964z" fill="#e94545" transform="matrix(.8739670625 0 0 -.8739670625 693.26044138469 343.30477174775)"/><path d="m0 0s-13.88-7.06-22.749-3.737c-3.819 1.431-7.42 4.513-8.404 8.035-.954 3.41.814 7.295 3.117 10.175 1.473 1.844 12.454 7.688 12.454 7.688s-2.963 8.697-6.507 13.721c-5.219 7.398-30.644 15.045-30.644 15.045 10.347 2.829 22.404 3.178 34.604.657l20.641-21.964z" fill="none" stroke="#800000" stroke-width="1.322" transform="matrix(.8739670625 0 0 -.8739670625 693.26044138469 343.30477174775)"/><path d="m0 0s4.479.944 6.266 0c4.572-2.42 11.959-8.441 11.959-8.441s1.811 7.413-.213 13.313c-1.199 3.492-8.009 8.35-8.009 8.35s8.773 2.021 12.778-.497c3.945-2.484 8.899-11.111 8.899-11.111s1.872 9.475.569 15.393c-.996 4.519-9.682 10.925-9.682 10.925s7.158 1.261 10.25 0c5.371-2.196 11.391-11.918 11.391-11.918s4.521 12.771 1.14 19.862c-1.561 3.27-9.682 6.455-9.682 6.455s11.19 2.578 15.376 0c5.102-3.142 7.404-10.924 7.404-10.924s5.279 9.498 3.416 16.387c-1.148 4.252-9.111 10.427-9.111 10.427s6.137 4.453 7.974 7.448c1.562 2.549 3.599 5.791 2.277 8.441-1.364 2.733-5.524 3.992-8.906 4.437-4.081.537-12.086-2.347-12.086-2.347l-4.963 3.784c-8.736 6.664-13.511 17.47-14.848 28.291-1.385 11.205 9.009 32.216 9.009 32.216s4.836-13.719 12.297-21.311c5.219-5.314 12.74-9.41 20.586-10.878 10.035-1.88 15.137-2.355 24.328 1.632 8.295 3.596 17.246 9.536 19.338 17.403 8.226 30.945-2.418 81.046-1.872 77.235 0 0 5.746 6.415 7.486 10.877 2.077 5.331 3.742 18.494 3.742 18.494 1.367 4.466 5.765 8.447 10.606 10.333 3.038 1.184 6.89 1.074 9.98 0 5.057-1.755 11.853-9.789 11.853-9.789s-.541 11.515-4.366 15.772c-3.902 4.34-10.532 7.262-16.844 7.615-9.673.542-19.206-2.72-19.206-2.72s10.516 9.917 15.439 19.72c3.896 7.757 4.506 22.347 4.506 22.347 0 10.571-5.826 22.477-14.027 30.846-10.397 10.608-28.603 17.81-28.603 17.81s6.615-9.389 10.913-18.717c2.976-6.454 4.006-14.755 4.006-14.755s-6.123 5.44-11.483 9.277c-7.436 5.321-22.01 5.648-22.01 5.648s12.649-8.697 16.846-18.889c1.878-4.563 1.759-9.708 1.04-14.515-1.135-7.586-5.809-18.693-7.824-26.139-2.817-10.407-6.391-16.714-5.704-27.388.694-10.791 9.344-31.381 9.344-31.381s-14.275-1.646-19.502-4.687c-7.459-4.34-8.676-17.882-8.676-17.882s8.205 7.197 13.337 8.253c3.825.787 11.185-3.25 11.185-3.25s-14.561-5.173-18.643-10.566c-3.995-5.28-3.728-16.069-3.728-16.069s5.279 6.645 10.254 8.754c4.192 1.777 13.982 0 13.982 0s-13.407-7.178-16.779-13.004c-3.092-5.342-1.864-17.879-1.864-17.879s6.102 8.761 11.042 11.065c3.56 1.662 8.169 2.246 12.117 1.501 3.669-.694 6.502-1.687 8.533-4.439 3.7-5.011 2.973-11.623 0-17.88-2.187-4.602-4.044-8.66-9.321-10.566-6.602-2.384-15.058-2.806-21.439 0-7.935 3.491-8.649 6.683-12.118 13.818-6.637 13.654-5.911 32.515-12.117 46.325-5.157 11.471-17.384 19.078-21.44 30.883-4.189 12.196.162 25.587-1.864 38.197-1.255 7.812-6.202 19.82-7.457 27.634-.99 6.17 0 13.815 0 13.815l-62.779 2.853-33.83-26.094s-12.896-3.065-19.519-3.403c-16.074-.817-34.622 3.395-50.708 3.962-17.336.612-49.485 1.677-49.485 1.677l-6.175 12.067c-2.353 4.598-2.483 10.129-7.692 12.296-4.051 1.684-10.062 2.553-13.463 0-3.273-2.459-1.923-11.178-1.923-11.178s-10.347 1.917-14.743 0c-4.778-2.083-7.619-4.844-7.692-9.501-.085-5.48 3.392-11.456 8.974-13.972 2.468-1.119 8.333-1.119 8.333-1.119s-5.097-2.198-6.41-5.589c-1.69-4.366-.026-10.278 3.846-13.414 4.608-3.729 9.419-3.41 15.385-1.676 5.02 1.457 10.897 7.825 10.897 7.825s9.217.92 12.82-1.119c2.892-1.635 4.245-4.921 5.129-7.824.657-2.161.981-4.642 0-6.707-2.661-5.6-13.431-14.163-13.431-14.163s10.408-.613 15.219.816c10.074 2.993 23.622 14.143 23.622 14.143s-.807-5.281-3.429-8.285c-3.305-3.789-11.666-9.903-11.666-9.903s15.915 1.468 23.417 4.61c6.706 2.807 16.202 13.055 16.202 13.055s-.217-4.976-1.62-7.524c-1.672-3.04-5.322-9.978-5.322-9.978s14.386 2.774 20.755 6.023c4.859 2.477 10.815 10.409 10.815 10.409s.238-5.423-.75-8.269c-.891-2.566-5.116-7.999-5.116-7.999s13.74 2.229 19.612 5.026c5.999 2.854 14.499 12.639 14.499 12.639s8.074 1.757 13.276-.811c10.27-5.069 14.885-17.1 26.888-22.635 19.502-8.995 45.464-14.165 53.773-33.951 2.865-6.821 3.056-11.386-.927-17.784-4.867-7.82-25.358-17.273-30.596-25.87 0 0-8.201-9.792-10.198-19.399-1.279-6.15-.231-12.921 2.781-18.593 3.862-7.271 11.508-12.63 18.544-17.785 8.401-6.156 27.813-15.359 27.813-15.359l3.274-5.794s-12.273-7.345-16.87-12.536c-5.632-6.361-14.807-20.359-14.807-20.359s-5.701 5.197-12.01 7.211c-4.869 1.552-11.809 3.124-15.558 0-3.59-2.994-3.825-6.581-2.03-10.619 1.615-3.628 7.441-6.488 7.441-6.488s-4.835-3.915-6.087-6.488c-1.508-3.098-1.484-7.236.676-10.027 2.878-3.714 7.724-3.22 12.853-3.539 3.627-.225 10.823 1.181 10.823 1.181s-1.644-3.716-1.352-5.898c.457-3.411 1.395-7.619 4.736-9.437 4.594-2.502 11.799-2.123 16.234.589 7.53 4.604 10.47 21.666 10.47 21.666" fill="#cd0707" transform="matrix(.8739670625 0 0 -.8739670625 694.59525477511 469.48726226444)"/><path d="m0 0s3.335 8.745 1.846 12.867c-1.93 5.34-10.063 7.447-12.911 12.464-1.114 1.955-1.386 6.434-1.386 6.434s-6.124-3.733-9.684-4.022c-5.382-.435-10.277 3.398-15.679 3.619-4.668.193-13.833-2.011-13.833-2.011s-29.992 4.805-41.966 6.032c-18.335 1.879-51.65 0-51.65 0l-8.761 20.908s-.044 3.429-2.306 4.825c-1.632 1.006-4.608 1.254-5.996 0-2.991-2.703 0-11.66 0-11.66s-11.408 3.633-17.062 1.207c-2.262-.972-4.567-3.03-4.612-5.229-.046-2.305 2.458-4.29 4.612-5.629 5.744-3.567 20.29-5.628 20.29-5.628s-12.399-3.853-14.756-8.444c-1.005-1.958-1.699-4.883 0-6.433 2.338-2.135 6.916-1.289 10.145-.402 4.81 1.321 11.99 8.041 11.99 8.041s14.896-.218 20.29-4.022c3.692-2.599 4.973-7.216 5.994-11.257.699-2.749.149-5.632 0-8.444-.074-1.479-.459-4.423-.459-4.423l26.287 18.496c3.33-7.237.255-14.475-3.69-21.712l25.362 19.299c5.689-6.433 2.681-12.866 0-19.299l23.058 17.692c5.481-6.315 4.057-11.624 2.306-16.888 0 0 6.35 2.665 9.222 4.422 5.53 3.383 15.22 11.661 15.22 11.661s9.476-2.144 13.833-4.021c5.163-2.221 14.296-8.443 14.296-8.443" fill="#e94545" transform="matrix(.8739670625 0 0 -.8739670625 634.30009233982 269.80921080046)"/><path d="m0 0c-29.701 8.184-57.746 10.508-86.823 8.583 33.582-7.865 61.608-10.018 86.823-8.583" fill="#ee6c6c" transform="matrix(.8739670625 0 0 -.8739670625 594.81539311739 248.33173592551)"/><path d="m0 0s-3.916 9.899-7.618 13.889c-11.183 12.05-33.708 16.889-41.556 30.798-2.853 5.056-2.527 9.088-.693 14.494 2.889 8.511 10.553 15.215 16.623 22.342 7.033 8.255 19.294 13.748 22.855 23.551 3.152 8.67 1.353 18.822-2.769 27.175-3.169 6.419-9.49 11.543-15.93 15.7-11.627 7.504-28.753 7.241-39.478 15.702-2.379 1.875-4.849 7.246-4.849 7.246s30.285 6.502 40.864 15.098c2.948 2.396 4.848 7.246 4.848 7.246l15.929-5.435s-1.219-19.334 2.078-28.383c2.348-6.449 5.606-11.762 9.696-17.511 4.219-5.932 11.405-10.705 13.16-17.514 1.838-7.138 1.487-14.673-.692-21.739-3.176-10.288-14.963-21.552-17.317-32.005-1.821-8.098-2.096-16.712 0-24.76 2.724-10.447 19.394-26.571 19.394-26.571l8.311-3.622s9.899 3.615 11.774.603c2.599-4.175-9.696-11.474-9.696-11.474l8.312-7.851-29.783-6.037 12.467-9.663-24.24-.604 13.159-15.699h-24.935l12.468-11.475-11.775-.605s-3.741-14.582-9.696-19.324c-2.156-1.717-5.942-3.904-8.31-2.415-2.247 1.411 0 4.83 0 7.248v9.66s-10.083-2.16-15.239-2.415c-3.465-.17-8.594-1.987-10.388.605-2.349 3.394 5.541 10.87 5.541 10.87s-7.411 5.751-9.005 9.661c-.462 1.138-.979 2.77 0 3.624 2.123 1.849 6.128.747 9.005 0 6.873-1.786 18.006-10.265 18.006-10.265l14.545 22.341z" fill="#e94545" transform="matrix(.8739670625 0 0 -.8739670625 709.67712957926 423.24121125141)"/><path d="m0 0s-6.853 9.958-12.575 12.181c-5.53 2.147-8.272 1.173-13.97-.61-4.828-1.509-9.616-4.513-11.875-8.526-3.387-6.018-2.849-13.028-4.89-19.491-2.546-8.06-13.97-21.925-13.97-21.925l-9.781 12.789 1.171-1.16-8.881 21.082v15.058l6.415 22.373 6.414 20.651v10.756l-5.428 13.336-12.83 12.049 19.738-3.443 14.311-10.756-4.935 15.489-8.883 16.778 20.232-10.326 18.257-21.51 3.947-19.791-7.402-23.233-10.855-13.338h22.205l12.336-7.313z" fill="#e94545" transform="matrix(.8739670625 0 0 -.8739670625 823.56176387353 260.96073477205)"/><path d="m0 0s11.057-6.693 14.311-11.617c4.799-7.265 6.712-16.143 6.414-24.524-.179-5.08-2.968-9.843-4.935-14.628-2.41-5.867-6.683-11.156-8.387-17.208-1.968-6.986-2.846-14.359-1.975-21.512.546-4.467 4.441-12.908 4.441-12.908-5.098 2.098-10.197 5.521-15.296 18.931v8.603l8.389 21.512 6.414 20.652-.987 12.477-9.375 12.907-7.401 6.883z" fill="#ee6c6c" transform="matrix(.8739670625 0 0 -.8739670625 762.52574305523 183.56002330352)"/><path d="m0 0s4.479.944 6.266 0c4.572-2.42 11.959-8.441 11.959-8.441s1.811 7.413-.213 13.313c-1.199 3.492-8.009 8.35-8.009 8.35s8.773 2.023 12.778-.497c3.945-2.484 8.899-11.111 8.899-11.111s1.872 9.475.569 15.393c-.996 4.519-9.682 10.925-9.682 10.925s7.158 1.263 10.25 0c5.371-2.196 11.391-11.918 11.391-11.918s4.521 12.771 1.14 19.862c-1.561 3.27-9.682 6.455-9.682 6.455s11.19 2.578 15.376 0c5.102-3.142 7.404-10.924 7.404-10.924s5.279 9.498 3.416 16.387c-1.148 4.252-9.111 10.427-9.111 10.427s6.137 4.453 7.974 7.448c1.562 2.55 3.599 5.791 2.277 8.441-1.364 2.733-5.524 3.992-8.906 4.437-4.081.537-12.086-2.347-12.086-2.347l-4.963 3.784c-8.736 6.664-13.511 17.47-14.848 28.291-1.385 11.205 9.009 32.216 9.009 32.216s4.836-13.719 12.297-21.311c5.219-5.314 12.74-9.41 20.586-10.878 10.035-1.88 15.137-2.355 24.328 1.632 8.295 3.596 17.246 9.536 19.338 17.403 8.226 30.945-2.418 81.046-1.872 77.235 0 0 5.746 6.415 7.486 10.877 2.077 5.331 3.742 18.494 3.742 18.494 1.367 4.466 5.765 8.447 10.606 10.333 3.038 1.184 6.89 1.074 9.98 0 5.057-1.755 11.853-9.789 11.853-9.789s-.541 11.515-4.366 15.772c-3.902 4.34-10.532 7.262-16.844 7.615-9.673.542-19.206-2.72-19.206-2.72s10.516 9.917 15.439 19.72c3.896 7.757 4.506 22.347 4.506 22.347 0 10.571-5.826 22.477-14.027 30.846-10.397 10.608-28.603 17.81-28.603 17.81s6.615-9.389 10.913-18.717c2.976-6.454 4.006-14.755 4.006-14.755s-6.123 5.44-11.483 9.277c-7.436 5.321-22.01 5.648-22.01 5.648s12.649-8.697 16.846-18.889c1.878-4.563 1.759-9.708 1.04-14.515-1.135-7.586-5.809-18.693-7.824-26.139-2.817-10.407-6.391-16.714-5.704-27.388.694-10.791 9.344-31.381 9.344-31.381s-14.275-1.646-19.502-4.687c-7.459-4.34-8.676-17.882-8.676-17.882s8.205 7.197 13.337 8.253c3.825.787 11.185-3.25 11.185-3.25s-14.561-5.173-18.643-10.566c-3.995-5.28-3.728-16.069-3.728-16.069s5.279 6.645 10.254 8.754c4.192 1.777 13.982 0 13.982 0s-13.407-7.178-16.779-13.004c-3.092-5.342-1.864-17.879-1.864-17.879s6.102 8.761 11.042 11.065c3.56 1.662 8.169 2.246 12.117 1.501 3.669-.694 6.502-1.687 8.533-4.439 3.7-5.011 2.973-11.623 0-17.88-2.187-4.602-4.044-8.66-9.321-10.566-6.602-2.384-15.058-2.806-21.439 0-7.935 3.491-8.649 6.683-12.118 13.818-6.637 13.654-5.911 32.515-12.117 46.325-5.157 11.471-17.384 19.078-21.44 30.883-4.189 12.196.162 25.587-1.864 38.197-1.255 7.812-6.202 19.82-7.457 27.634-.99 6.17 0 13.815 0 13.815l-62.779 2.853-33.83-26.094s-12.896-3.065-19.519-3.403c-16.074-.817-34.622 3.395-50.708 3.962-17.336.612-49.485 1.677-49.485 1.677l-6.175 12.067c-2.353 4.598-2.483 10.129-7.692 12.296-4.051 1.684-10.062 2.553-13.463 0-3.273-2.459-1.923-11.178-1.923-11.178s-10.347 1.917-14.743 0c-4.778-2.082-7.619-4.844-7.692-9.501-.085-5.48 3.392-11.456 8.974-13.972 2.468-1.119 8.333-1.119 8.333-1.119s-5.097-2.198-6.41-5.589c-1.69-4.366-.026-10.278 3.846-13.414 4.608-3.729 9.419-3.41 15.385-1.676 5.02 1.457 10.897 7.825 10.897 7.825s9.217.92 12.82-1.119c2.892-1.635 4.245-4.921 5.129-7.824.657-2.161.981-4.642 0-6.707-2.661-5.598-13.431-14.163-13.431-14.163s10.408-.613 15.219.816c10.074 2.993 23.622 14.143 23.622 14.143s-.807-5.281-3.429-8.285c-3.305-3.789-11.666-9.903-11.666-9.903s15.915 1.468 23.417 4.61c6.706 2.807 16.202 13.055 16.202 13.055s-.217-4.976-1.62-7.524c-1.672-3.04-5.322-9.978-5.322-9.978s14.386 2.774 20.755 6.023c4.859 2.477 10.815 10.409 10.815 10.409s.238-5.423-.75-8.269c-.891-2.566-5.116-7.999-5.116-7.999s13.74 2.229 19.612 5.026c5.999 2.854 14.499 12.639 14.499 12.639s8.074 1.757 13.276-.811c10.27-5.069 14.885-17.1 26.888-22.635 19.502-8.995 45.464-14.165 53.773-33.951 2.865-6.821 3.056-11.386-.927-17.784-4.867-7.82-25.358-17.273-30.596-25.868 0 0-8.201-9.794-10.198-19.401-1.279-6.15-.231-12.921 2.781-18.593 3.862-7.271 11.508-12.63 18.544-17.785 8.401-6.156 27.813-15.359 27.813-15.359l3.274-5.794s-12.273-7.345-16.87-12.536c-5.632-6.361-14.807-20.359-14.807-20.359s-5.701 5.197-12.01 7.211c-4.869 1.552-11.809 3.124-15.558 0-3.59-2.994-3.825-6.581-2.03-10.619 1.615-3.628 7.441-6.488 7.441-6.488s-4.835-3.915-6.087-6.488c-1.508-3.098-1.484-7.236.676-10.027 2.878-3.714 7.724-3.22 12.853-3.539 3.627-.225 10.823 1.181 10.823 1.181s-1.644-3.716-1.352-5.898c.457-3.411 1.395-7.619 4.736-9.437 4.594-2.502 11.799-2.123 16.234.589 7.53 4.604 10.47 21.666 10.47 21.666z" fill="none" stroke="#800000" stroke-width="1.322" transform="matrix(.8739670625 0 0 -.8739670625 694.59525477511 469.48726226444)"/><path d="m0 0c3.145-3.271 3.113-6.929.119-10.006-1.489-1.529-3.889-2.192-7.363-1.301-2.773 6.811-4.796 8.959-12.657 11.697 12.886 4.181 16.24-.328 19.901-.39" fill="#cd0707" transform="matrix(.8739670625 0 0 -.8739670625 495.27867608819 207.7818456473)"/><path d="m0 0c3.145-3.271 3.113-6.929.119-10.006-1.489-1.529-3.889-2.192-7.363-1.301-2.773 6.811-4.796 8.959-12.657 11.697 12.886 4.181 16.24-.328 19.901-.39z" fill="none" stroke="#800000" stroke-width="1.322" transform="matrix(.8739670625 0 0 -.8739670625 495.27867608819 207.7818456473)"/><path d="m0 0c4.55-1.57 6.52-4.8 5.566-8.749-.474-1.963-2.22-3.543-5.762-4.202-6.159 4.838-9.111 5.888-17.519 5.032 9.048 9.026 14.46 6.454 17.715 7.919" fill="#cd0707" transform="matrix(.8739670625 0 0 -.8739670625 468.79677492079 221.07916361066)"/><path d="m0 0c4.55-1.57 6.52-4.8 5.566-8.749-.474-1.963-2.22-3.543-5.762-4.202-6.159 4.838-9.111 5.888-17.519 5.032 9.048 9.026 14.46 6.454 17.715 7.919z" fill="none" stroke="#800000" stroke-width="1.322" transform="matrix(.8739670625 0 0 -.8739670625 468.79677492079 221.07916361066)"/><path d="m0 0c4.833.676 8.417-1.223 9.912-5.042.743-1.898.166-4.035-2.491-6.179-8.131 1.417-11.283 1.003-18.01-3.476 2.49 11.789 8.65 11.988 10.59 14.697z" fill="#cd0707" transform="matrix(.8739670625 0 0 -.8739670625 477.47544264483 250.70997509599)"/><path d="m0 0c4.833.676 8.417-1.223 9.912-5.042.743-1.898.166-4.035-2.491-6.179-8.131 1.417-11.283 1.003-18.01-3.476 2.49 11.789 8.65 11.988 10.59 14.697z" fill="none" stroke="#800000" stroke-width="1.322" transform="matrix(.8739670625 0 0 -.8739670625 477.47544264483 250.70997509599)"/><path d="m0 0s4.472-3.704 7.146-4.985c8.384-4.015 19.5-3.095 27.153-8.098l17.149-11.214-23.58 33.641s-6.357-4.249-10.004-5.607c-5.632-2.096-17.864-3.737-17.864-3.737" fill="#ee6c6c" transform="matrix(.8739670625 0 0 -.8739670625 653.61948384321 276.33241705412)"/><path d="m0 0s-19.028-11.684-24.295-23.051c-2.957-6.38-3.032-12.959 0-19.314 7.603-15.933 36.441-24.298 36.441-24.298s-20.605 10.684-25.723 24.921c-1.923 5.351-1.133 11.303 0 16.821 2.056 10.027 13.577 24.921 13.577 24.921" fill="#ee6c6c" transform="matrix(.8739670625 0 0 -.8739670625 695.46153092746 347.1173656612)"/><path d="m0 0c3.982-2.478 5.003-6.026 2.989-9.659-1.002-1.805-3.134-2.972-6.754-2.869-4.641 5.989-7.216 7.626-15.614 8.56 11.274 6.863 15.816 3.23 19.379 3.968" fill="#cd0707" transform="matrix(.8739670625 0 0 -.8739670625 648.38084136975 443.1017631599)"/><path d="m0 0c3.982-2.478 5.003-6.026 2.989-9.659-1.002-1.805-3.134-2.972-6.754-2.869-4.641 5.989-7.216 7.626-15.614 8.56 11.274 6.863 15.816 3.23 19.379 3.968z" fill="none" stroke="#800000" stroke-width="1.322" transform="matrix(.8739670625 0 0 -.8739670625 648.38084136975 443.1017631599)"/><path d="m0 0c4.832.672 8.416-1.231 9.905-5.05.742-1.899.163-4.036-2.499-6.178-8.127 1.423-11.28 1.014-18.011-3.461 2.503 11.787 8.663 11.98 10.605 14.689" fill="#cd0707" transform="matrix(.8739670625 0 0 -.8739670625 646.27274192243 466.30881885154)"/><path d="m0 0c4.832.672 8.416-1.231 9.905-5.05.742-1.899.163-4.036-2.499-6.178-8.127 1.423-11.28 1.014-18.011-3.461 2.503 11.787 8.663 11.98 10.605 14.689z" fill="none" stroke="#800000" stroke-width="1.322" transform="matrix(.8739670625 0 0 -.8739670625 646.27274192243 466.30881885154)"/><path d="m0 0c4.774.936 8.488-.768 10.252-4.499.874-1.855.451-4.018-2.051-6.3-8.214.976-11.331.395-17.727-4.441 1.649 11.901 7.783 12.432 9.526 15.24" fill="#cd0707" transform="matrix(.8739670625 0 0 -.8739670625 671.76880824333 480.04740628062)"/><path d="m0 0c4.774.936 8.488-.768 10.252-4.499.874-1.855.451-4.018-2.051-6.3-8.214.976-11.331.395-17.727-4.441 1.649 11.901 7.783 12.432 9.526 15.24z" fill="none" stroke="#800000" stroke-width="1.322" transform="matrix(.8739670625 0 0 -.8739670625 671.76880824333 480.04740628062)"/><path d="m0 0s-22.72 4.25-31.908 6.104c-10.761 2.172-26.363-2.184-36.885.742-6.191 1.721-7.714 2.94-10.738 7.954-1.869 3.099-2.793 8.373-2.793 8.373s-5.105-5.618-4.298-10.504c.698-4.248 4.189-8.487 8.532-10.504 12.114-5.626 33.245-1.888 46.614-4.598 9.334-1.892 20.65-13.381 20.65-13.381z" fill="#cd0707" transform="matrix(.8739670625 0 0 -.8739670625 688.23172579964 161.32892313471)"/><path d="m0 0s-22.72 4.25-31.908 6.104c-10.761 2.172-26.363-2.184-36.885.742-6.191 1.721-7.714 2.94-10.738 7.954-1.869 3.099-2.793 8.373-2.793 8.373s-5.105-5.618-4.298-10.504c.698-4.248 4.189-8.487 8.532-10.504 12.114-5.626 33.245-1.888 46.614-4.598 9.334-1.892 20.65-13.381 20.65-13.381z" fill="none" stroke="#800000" stroke-width="1.322" transform="matrix(.8739670625 0 0 -.8739670625 688.23172579964 161.32892313471)"/><path d="m0 0c1.718 9.252 4.012 10.17 6.204 13.222l.098-13.023-6.302-.199h.001z" fill="#fff" transform="matrix(.8739670625 0 0 -.8739670625 635.11340608819 170.44797936568)"/><path d="m0 0c1.718 9.252 4.012 10.17 6.204 13.222l.098-13.023-6.302-.199h.001z" fill="none" stroke="#800000" stroke-width="1.322" transform="matrix(.8739670625 0 0 -.8739670625 635.11340608819 170.44797936568)"/><path d="m0 0c1.718-9.252 4.012-10.171 6.204-13.222l.098 13.023-6.302.199h.001z" fill="#fff" transform="matrix(.8739670625 0 0 -.8739670625 635.11340608819 146.42114256941)"/><path d="m0 0c1.718-9.252 4.012-10.171 6.204-13.222l.098 13.023-6.302.199h.001z" fill="none" stroke="#800000" stroke-width="1.322" transform="matrix(.8739670625 0 0 -.8739670625 635.11340608819 146.42114256941)"/><path d="m0 0 10.934 4.164c3.096 1.179 1.983 5.792 3.171 8.39 1.357 2.966 7.422 7.059 7.422 7.059l-14.382.406s10.428 4.342 11.134 10.515c.18 1.566-.476 6.518-.464 8.091.039 5.388 5.529 9.954 10.67 12.943 3.259 1.894 12.063 2.657 13.918 5.662l3.247 5.259s-4.464-2.72-8.738-3.2c-4.165-.469-10.669 1.214-10.669 1.214l9.278 7.685c1.458 1.208-1.001 6.401-.463 8.09.975 3.066 8.35 4.45 8.35 4.45s15.492-2.521 22.295.98c6.491 3.341 9.705 9.831 7.572 15.566l-1.444 3.881c-1.808 4.862-22.147-1.64-27.958-2.319-5.097-.594-10.028 1.423-12.71 5.247-4.982 7.107-.83 14.214 0 21.321l30.904 1.237c11.486 13.135 44.565 12.139 68.245 5.841 5.51 2.8 1.936 3.704 13.454 6.503 0 0 3.498-2.69 2.432-7.723-.444-2.103-6.478-6.582-6.23-8.298.163-1.123 3.843 1.996 7.868 1.682 5.079-.396 10.709-4.144 10.531-5.154-.562-3.214-1.373-8.883-4.767-11.796-2.57-2.206-7.546-1.815-9.71-3.396-2.576-1.886-10.892-2.39-10.892-2.39s10.381-5.543 13.245-9.974c5.299-8.195-.914-17.447 4.216-25.722 1.822-2.941 6.02-4.725 6.02-4.725s-4.727-3.55-9.031-2.625c-3.946.849-8.428 2.101-8.428 2.101s7.932-8.184 8.428-15.225c.574-8.14-9.991-14.448-10.837-22.571-.595-5.709 4.214-16.798 4.214-16.798s-6.048 1.664-9.031 3.673c-2.481 1.672-7.225 6.825-7.225 6.825l2.409-11.548c1.156-5.544-11.555-9.131-12.644-15.748-.7-4.262 3.612-8.924 3.612-8.924s-11.593 2.271-16.256 5.249c-3.691 2.357-8.428 9.448-8.428 9.448s-4.23-9.69-7.826-13.123c-4.03-3.845-12.565-5.713-19.445-8.523-11.731-4.793-22.098-9.325-22.098-9.325s2.086 6.739 1.203 10.499c-1.368 5.823-10.659 12.069-13.847 17.322-3.226 5.317 0 12.599 0 12.599s-7.654-6.366-13.245-7.35c-6.138-1.076-18.004 2.552-18.004 2.552v.002z" fill="#e94545" transform="matrix(.8739670625 0 0 -.8739670625 602.95928389175 236.24765204657)"/><path d="m0 0c.123-3.939 5.379-8.066 12.072-7.907s10.805 3.453 10.682 7.393c-.123 3.939-4.404 5.975-11.097 5.814-6.691-.159-11.78-1.361-11.657-5.3" fill="#fff" transform="matrix(.8739670625 0 0 -.8739670625 662.73128964343 130.10977090174)"/><path d="m0 0c.07-2.188 2.16-3.914 4.67-3.854s4.488 1.882 4.421 4.07c-.07 2.189-2.161 3.914-4.671 3.855-2.508-.06-4.487-1.883-4.42-4.071" fill="#2b2200" transform="matrix(.8739670625 0 0 -.8739670625 668.31226851114 130.66963420197)"/><path d="m0 0c-3.28-.078-6.067-.528-7.92-1.247-1.851-.72-2.651-1.507-2.6-3.121.101-3.227 4.709-7.179 10.878-7.032 3.149.075 5.591.878 7.22 2.053 1.627 1.176 2.477 2.733 2.423 4.41-.051 1.678-.878 2.853-2.543 3.704-1.665.85-4.242 1.31-7.458 1.233m-.06 1.881c3.479.082 6.503-.445 8.683-1.557 2.18-1.114 3.465-2.947 3.536-5.209.07-2.261-1.117-4.344-3.19-5.84-2.07-1.495-5.01-2.471-8.552-2.556-7.217-.172-12.948 4.213-13.094 8.862-.072 2.325 1.558 4.009 3.893 4.915 2.335.907 5.312 1.303 8.724 1.385" fill="#9c0000" transform="matrix(.8739670625 0 0 -.8739670625 672.91169147509 126.26230919836)"/><path d="m0 0s10.381-5.543 13.245-9.974c5.299-8.195-.914-17.446 4.216-25.722 1.822-2.941 6.019-4.725 6.019-4.725s-4.726-3.55-9.03-2.625c-3.946.849-8.429 2.101-8.429 2.101s7.933-8.184 8.429-15.224c.574-8.141-9.991-14.449-10.837-22.572-.595-5.709 4.214-16.798 4.214-16.798s-6.048 1.664-9.031 3.673c-2.481 1.672-7.225 6.824-7.225 6.824l2.408-11.547c1.157-5.543-11.554-9.131-12.643-15.748-.7-4.261 3.612-8.925 3.612-8.925s-11.594 2.272-16.256 5.25c-3.691 2.357-8.428 9.449-8.428 9.449s-4.23-9.691-7.827-13.125c-4.029-3.844-12.564-5.712-19.444-8.523-11.731-4.792-22.098-9.325-22.098-9.325s2.085 6.74 1.203 10.5c-1.369 5.823-10.66 12.069-13.847 17.323-3.226 5.316 0 12.599 0 12.599s-7.654-6.366-13.245-7.349c-6.138-1.079-18.004 2.55-18.004 2.55l10.934 4.165c3.096 1.18 1.983 5.792 3.171 8.389 1.355 2.967 7.422 7.06 7.422 7.06l-14.383.404s10.429 4.345 11.135 10.517c.18 1.566-.476 6.518-.464 8.091.039 5.388 5.529 9.954 10.67 12.943 3.259 1.895 12.063 2.657 13.918 5.663l3.247 5.258s1.957-3.48 1.787-6.513c-.165-2.986-.748-6.467-3.252-8.509-3.136-2.558-16.81-4.681-16.805-8.509.003-5.001.033-6.68-1.628-11.344l13.012 3.781s-10.38-12.447-13.553-18.435c-.924-1.74-1.085-5.673-1.085-5.673s7.258 6.367 11.673 8.569c3.238 1.616 24.651 20.74 24.651 20.74s-20.352-30.935-18.432-37.346c1.722-5.752 8.711-9.477 10.841-15.126.737-1.951.543-6.145.543-6.145s17.44 5.993 23.313 11.346c7.911 7.211 12.469 42.543 12.469 42.543s7.577-29.13 12.47-34.507c1.43-1.571 4.879-4.255 4.879-4.255s6.444 8.524 8.133 13.709c3.229 9.909-9.217 52.942-9.217 52.942l22.771-34.507s-.309 8.829 1.628 12.763c1.769 3.598 3.717 5.105 4.336 8.981 1.391 8.732-15.723 35.926-15.723 35.926l24.397-15.6s-1.303 13.389-3.254 19.855c-1.538 5.101-6.606 14.737-6.606 14.737" fill="#cd0707" transform="matrix(.8739670625 0 0 -.8739670625 719.19523917096 147.1802703599)"/><path d="m0 0s5.13-3.781 8.29-4.196c4.702-.618 9.178 2.328 13.903 2.798 7.173.711 14.638-1.466 21.659 0 6.319 1.318 13.305 3.28 17.381 7.693 5.544 6.004 6.684 22.381 6.684 22.381l2.675-2.564 1.068-11.424-2.94-12.357-10.43-8.158-12.299-3.498-15.509 1.166h-9.892l-8.825-3.964-10.427-3.497-9.627 2.564 8.289 6.994z" fill="#cd0707" transform="matrix(.8739670625 0 0 -.8739670625 634.16008281641 171.41878897044)"/><path d="m0 0s2.471-1.834 3.718-4.398c1.246-2.563 2.663-5.709 2.911-7.525.709-5.18-.668-12.491-3.177-16.736-3.227-5.459-9.021-8.236-16.182-10.464-4.508-1.402-9.584-1.202-14.968-.823-5.383.379-11.256 1.549-16.937.562-2.58-.449-5.631-1.696-8.035-2.821-2.405-1.127-4.316-2.867-4.316-2.867l.359-2.238s3.936 2.441 6.194 3.499 5.065 2.013 6.608 2.281c4.789.833 10.163-.293 15.643-.68 5.478-.384 11.174-.854 16.721.871 7.539 2.346 13.477 4.84 17.399 11.478 3.16 5.345 4.043 11.822 3.288 17.354-.37 2.689-2.485 9.23-5.413 10.653z" fill="#800000" transform="matrix(.8739670625 0 0 -.8739670625 690.62822738585 143.43602067074)"/><path d="m0 0-1.447-9.671s9.171.673 12.743 1.95c5.422 1.939 8.344 8.773 8.344 8.773z" fill="#9c0000" transform="matrix(.8739670625 0 0 -.8739670625 629.75694586296 126.4987137929)"/><path d="m0 0 9.823 2.837 9.356 1.804 22.686-1.771 17.497-2.692 16.372 5.93c-6.969.216-1.786.347-1.716-2.257.055-2.12-4.545-8.047-11.552-9.494-7.771-1.604-26.557 2.9-43.529 3.058-11.083.104-21.394-3.017-27.358-3.236z" fill="#ee6c6c" transform="matrix(.8739670625 0 0 -.8739670625 663.64449433116 121.12940974772)"/><path d="m0 0s10.381-5.542 13.245-9.974c5.299-8.194-.914-17.446 4.216-25.723 1.822-2.94 6.019-4.724 6.019-4.724s-4.726-3.55-9.03-2.624c-3.946.848-8.429 2.099-8.429 2.099s7.933-8.183 8.429-15.222c.574-8.142-9.991-14.451-10.837-22.574-.595-5.708 4.214-16.798 4.214-16.798s-6.048 1.664-9.031 3.674c-2.481 1.672-7.225 6.824-7.225 6.824l2.408-11.547c1.157-5.544-11.554-9.131-12.643-15.749-.7-4.26 3.612-8.924 3.612-8.924s-11.594 2.273-16.256 5.249c-3.691 2.358-8.428 9.45-8.428 9.45s-4.23-9.692-7.827-13.125c-4.029-3.845-12.564-5.712-19.444-8.523-11.731-4.792-22.098-9.325-22.098-9.325s2.085 6.739 1.203 10.499c-1.369 5.823-10.66 12.069-13.847 17.323-3.226 5.316 0 12.599 0 12.599s-7.654-6.366-13.245-7.348c-6.138-1.079-18.004 2.551-18.004 2.551v-.002l10.934 4.166c3.096 1.179 1.983 5.792 3.171 8.389 1.355 2.966 7.422 7.06 7.422 7.06l-14.383.403s10.429 4.345 11.135 10.518c.18 1.565-.476 6.518-.464 8.09.039 5.389 5.529 9.955 10.67 12.944 3.259 1.894 12.063 2.657 13.918 5.662l3.752 4.818s-4.717-2.718-8.989-3.199c-4.167-.469-10.671 1.214-10.671 1.214l9.279 7.684c1.457 1.207-1.001 6.402-.464 8.091.976 3.066 8.35 4.449 8.35 4.449s16.405-2.081 23.209 1.422c6.493 3.342 8.929 8.814 6.795 14.55l-1.443 3.881c-1.81 4.861-21.529.513-27.338-.165-5.096-.596-11.038 1.422-13.72 5.246-4.982 7.107-.83 12.858 0 19.964 19.778 2.477 17.592.623 31.272 1.224 26.887 22.737 55.548.176 71.633 7.862l9.973 4.288c2.982-6.41-.321-10.162-3.757-15.483 14.86 1.337 15.438-1.69 18.1-3.276 0 0-2.145-7.638-6.147-11.909-4.694-5.012-19.239-5.979-19.239-5.979z" fill="none" stroke="#800000" stroke-width="1.322" transform="matrix(.8739670625 0 0 -.8739670625 719.19523917096 147.1798298805)"/><path d="m0 0c6.706 10.485 14.598 11.501 27.136 9.9-4.235-7.78-10.161-16.497-27.136-9.9" fill="#800000" transform="matrix(.8739670625 0 0 -.8739670625 712.93658624299 141.29637450832)"/><g fill="#ee6c6c"><path d="m0 0s-24.708-23.144-24.793-36.3c-.025-4.267 5.071-7.588 5.614-11.829.615-4.798-2.806-14.275-2.806-14.275s10.867 9.627 11.228 15.091c.312 4.767-4.078 9.094-4.211 13.867-.333 11.951 14.968 33.446 14.968 33.446" transform="matrix(.8739670625 0 0 -.8739670625 675.39699510659 192.78536092102)"/><path d="m0 0s9.536 4.111 11.228 6.933c1.667 2.783 1.264 8.001 3.273 10.606 4.206 5.447 14.034 8.972 14.034 8.972s-13.203-.576-18.244-6.527c-1.945-2.295-1.613-7.004-2.338-9.788-.881-3.38-7.953-10.196-7.953-10.196" transform="matrix(.8739670625 0 0 -.8739670625 641.87301693639 209.53965909597)"/><path d="m0 0s-6.813 7.121-7.051 10.299c-.234 3.134 2.555 7.764 1.925 10.854-1.319 6.466-8.672 13.155-8.672 13.155s11.809-5.183 13.657-12.402c.714-2.787-1.773-6.975-2.401-9.776-.765-3.403 2.542-12.13 2.542-12.13" transform="matrix(.8739670625 0 0 -.8739670625 696.28768849578 229.92764663081)"/><path d="m0 0s-7.995 6.12-8.793 9.227c-.785 3.063 1.148 8.014-.02 10.982-2.448 6.21-10.899 11.83-10.899 11.83s12.584-3.531 15.691-10.415c1.198-2.655-.516-7.13-.641-9.983-.153-3.464 4.66-11.641 4.66-11.641z" transform="matrix(.8739670625 0 0 -.8739670625 714.81684597299 202.91446438199)"/></g><g transform="matrix(.99734148 0 0 .99734148 .196884 -585.04122)"><path d="m285.13086 587.40039c-.25686 1.33472-.50328 2.67356-.7207 4.02734-.98657 6.16492-1.55274 12.53329-1.55274 19.1836 0 6.65032.56617 13.01867 1.55274 19.18359.99032 6.16613 2.40531 12.12734 4.09961 17.94727 1.69929 5.81873 3.67744 11.48322 5.79687 17.09375 2.12318 5.61173 4.3838 11.16866 6.64453 16.70898 2.26448 5.54153 4.52509 11.09847 6.64453 16.70899 2.12318 5.61173 4.09953 11.27624 5.79883 17.09375 1.6943 5.81994 3.10999 11.78234 4.10156 17.94726.98657 6.16491 1.55079 12.53449 1.55079 19.1836 0 6.6491-.56422 13.01988-1.55079 19.18359-.99157 6.16613-2.40726 12.12854-4.10156 17.94727-1.6993 5.81871-3.67565 11.48397-5.79883 17.0957-2.11944 5.61174-4.38005 11.16551-6.64453 16.70703-2.26073 5.54153-4.52135 11.09845-6.64453 16.70898-2.11943 5.61173-4.09758 11.27577-5.79687 17.09571-1.6943 5.81751-3.10929 11.78039-4.09961 17.94531-.98657 6.16492-1.55274 12.53449-1.55274 19.18359 0 6.64911.56617 13.02064 1.55274 19.18555.99032 6.16371 2.40531 12.12854 4.09961 17.94727 1.69929 5.81751 3.67744 11.48201 5.79687 17.09375 2.12318 5.61294 4.3838 11.16503 6.64453 16.70898 2.26448 5.54032 4.52509 11.09846 6.64453 16.70898 2.12318 5.60932 4.09953 11.27699 5.79883 17.09571 1.6943 5.81636 3.10999 11.77786 4.10156 17.94526.98657 6.1662 1.55079 12.5341 1.55079 19.1856 0 6.6479-.56422 13.0172-1.55079 19.1797-.99157 6.1649-2.40726 12.1305-4.10156 17.9492-1.6993 5.8175-3.67565 11.482-5.79883 17.0938-2.11944 5.6117-4.38005 11.1654-6.64453 16.707-2.26073 5.5415-4.52135 11.1004-6.64453 16.7109-2.11943 5.6093-4.09758 11.2739-5.79687 17.0938-1.6943 5.82-3.10929 11.7804-4.09961 17.9453-.98657 6.1662-1.55274 12.5376-1.55274 19.1855 0 3.1682.13558 6.2692.37696 9.3184h54.21679c-.24137-3.0492-.37695-6.1502-.37695-9.3184 0-6.6479.56616-13.0193 1.55273-19.1855.99032-6.1649 2.40727-12.1253 4.10157-17.9453 1.69804-5.8199 3.67478-11.4845 5.79296-17.0938 2.12318-5.6105 4.38396-11.1694 6.64844-16.7109 2.26073-5.5428 4.52134-11.0953 6.64453-16.707 2.11943-5.6118 4.09758-11.2763 5.79688-17.0938 1.69429-5.8187 3.10929-11.7843 4.09961-17.9492.98657-6.1625 1.55468-12.5318 1.55468-19.1797 0-6.6515-.56811-13.0195-1.55468-19.1856-.99032-6.1674-2.40532-12.1289-4.09961-17.94526-1.6993-5.81872-3.67745-11.48639-5.79688-17.09571-2.12319-5.61052-4.3838-11.16866-6.64453-16.70898-2.26448-5.54395-4.52526-11.09604-6.64844-16.70898-2.11818-5.61174-4.09492-11.27624-5.79296-17.09375-1.6943-5.81873-3.11125-11.78356-4.10157-17.94727-.98657-6.16491-1.55273-12.53644-1.55273-19.18555 0-6.20607.56616-12.25491 1.55273-18.17773.99032-5.92282 2.40727-11.74601 4.10157-17.48242 3.39234-11.47041 7.91619-22.652 12.4414-33.95899 2.26073-5.65168 4.52134-11.33797 6.64453-17.09375 2.11943-5.75699 4.09758-11.60187 5.79688-17.55859 1.69429-5.95793 3.10929-12.00332 4.09961-18.25781.98657-6.2545 1.55468-12.68879 1.55468-19.33789 0-6.64911-.56811-13.01869-1.55468-19.1836-.99032-6.16492-2.40532-12.12732-4.09961-17.94726-1.6993-5.81751-3.67745-11.48202-5.79688-17.09375-2.12319-5.61052-4.3838-11.16746-6.64453-16.70899-2.26448-5.54032-4.52526-11.09725-6.64844-16.70898-2.11818-5.61053-4.09492-11.27502-5.79296-17.09375-1.6943-5.81993-3.11125-11.78114-4.10157-17.94727-.98657-6.16492-1.55273-12.53327-1.55273-19.18359 0-6.65031.56616-13.01868 1.55273-19.1836.21743-1.35378.46375-2.69262.72071-4.02734z" fill="#1353b4"/><path d="m285.13086 587.40039c-.25686 1.33472-.50328 2.67356-.7207 4.02734-.98657 6.16492-1.55274 12.53329-1.55274 19.1836 0 6.65032.56617 13.01867 1.55274 19.18359.99032 6.16613 2.40531 12.12734 4.09961 17.94727 1.69929 5.81873 3.67744 11.48322 5.79687 17.09375 2.12318 5.61173 4.3838 11.16866 6.64453 16.70898 2.26448 5.54153 4.52509 11.09847 6.64453 16.70899 2.12318 5.61173 4.09953 11.27624 5.79883 17.09375 1.6943 5.81994 3.10999 11.78234 4.10156 17.94726.98657 6.16491 1.55079 12.53449 1.55079 19.1836 0 6.6491-.56422 13.01988-1.55079 19.18359-.99157 6.16613-2.40726 12.12854-4.10156 17.94727-1.6993 5.81871-3.67565 11.48397-5.79883 17.0957-2.11944 5.61174-4.38005 11.16551-6.64453 16.70703-2.26073 5.54153-4.52135 11.09845-6.64453 16.70898-2.11943 5.61173-4.09758 11.27577-5.79687 17.09571-1.6943 5.81751-3.10929 11.78039-4.09961 17.94531-.98657 6.16492-1.55274 12.53449-1.55274 19.18359 0 6.64911.56617 13.02064 1.55274 19.18555.99032 6.16371 2.40531 12.12854 4.09961 17.94727 1.69929 5.81751 3.67744 11.48201 5.79687 17.09375 2.12318 5.61294 4.3838 11.16503 6.64453 16.70898 2.26448 5.54032 4.52509 11.09846 6.64453 16.70898 2.12318 5.60932 4.09953 11.27699 5.79883 17.09571 1.6943 5.81636 3.10999 11.77786 4.10156 17.94526.98657 6.1662 1.55079 12.5341 1.55079 19.1856 0 6.6479-.56422 13.0172-1.55079 19.1797-.99157 6.1649-2.40726 12.1305-4.10156 17.9492-1.6993 5.8175-3.67565 11.482-5.79883 17.0938-2.11944 5.6117-4.38005 11.1654-6.64453 16.707-2.26073 5.5415-4.52135 11.1004-6.64453 16.7109-2.11943 5.6093-4.09758 11.2739-5.79687 17.0938-1.6943 5.82-3.10929 11.7804-4.09961 17.9453-.98657 6.1662-1.55274 12.5376-1.55274 19.1855 0 3.1682.13558 6.2692.37696 9.3184h54.21679c-.24137-3.0492-.37695-6.1502-.37695-9.3184 0-6.6479.56616-13.0193 1.55273-19.1855.99032-6.1649 2.40727-12.1253 4.10157-17.9453 1.69804-5.8199 3.67478-11.4845 5.79296-17.0938 2.12318-5.6105 4.38396-11.1694 6.64844-16.7109 2.26073-5.5428 4.52134-11.0953 6.64453-16.707 2.11943-5.6118 4.09758-11.2763 5.79688-17.0938 1.69429-5.8187 3.10929-11.7843 4.09961-17.9492.98657-6.1625 1.55468-12.5318 1.55468-19.1797 0-6.6515-.56811-13.0195-1.55468-19.1856-.99032-6.1674-2.40532-12.1289-4.09961-17.94526-1.6993-5.81872-3.67745-11.48639-5.79688-17.09571-2.12319-5.61052-4.3838-11.16866-6.64453-16.70898-2.26448-5.54395-4.52526-11.09604-6.64844-16.70898-2.11818-5.61174-4.09492-11.27624-5.79296-17.09375-1.6943-5.81873-3.11125-11.78356-4.10157-17.94727-.98657-6.16491-1.55273-12.53644-1.55273-19.18555 0-6.20607.56616-12.25491 1.55273-18.17773.99032-5.92282 2.40727-11.74601 4.10157-17.48242 3.39234-11.47041 7.91619-22.652 12.4414-33.95899 2.26073-5.65168 4.52134-11.33797 6.64453-17.09375 2.11943-5.75699 4.09758-11.60187 5.79688-17.55859 1.69429-5.95793 3.10929-12.00332 4.09961-18.25781.98657-6.2545 1.55468-12.68879 1.55468-19.33789 0-6.64911-.56811-13.01869-1.55468-19.1836-.99032-6.16492-2.40532-12.12732-4.09961-17.94726-1.6993-5.81751-3.67745-11.48202-5.79688-17.09375-2.12319-5.61052-4.3838-11.16746-6.64453-16.70899-2.26448-5.54032-4.52526-11.09725-6.64844-16.70898-2.11818-5.61053-4.09492-11.27502-5.79296-17.09375-1.6943-5.81993-3.11125-11.78114-4.10157-17.94727-.98657-6.16492-1.55273-12.53327-1.55273-19.18359 0-6.65031.56616-13.01868 1.55273-19.1836.21743-1.35378.46375-2.69262.72071-4.02734z" fill="none" stroke="#540" stroke-width="1.599356"/></g><g transform="matrix(.99734148 0 0 .99734148 .196884 -585.04122)"><path d="m181.13086 587.40039c-.25686 1.33472-.50328 2.67356-.7207 4.02734-.98657 6.16492-1.55274 12.53329-1.55274 19.1836 0 6.65032.56617 13.01867 1.55274 19.18359.99032 6.16613 2.40531 12.12734 4.09961 17.94727 1.69929 5.81873 3.67744 11.48322 5.79687 17.09375 2.12318 5.61173 4.3838 11.16866 6.64453 16.70898 2.26448 5.54153 4.52509 11.09847 6.64453 16.70899 2.12318 5.61173 4.09953 11.27624 5.79883 17.09375 1.6943 5.81994 3.10999 11.78234 4.10156 17.94726.98657 6.16491 1.55079 12.53449 1.55079 19.1836 0 6.6491-.56422 13.01988-1.55079 19.18359-.99157 6.16613-2.40726 12.12854-4.10156 17.94727-1.6993 5.81871-3.67565 11.48397-5.79883 17.0957-2.11944 5.61174-4.38005 11.16551-6.64453 16.70703-2.26073 5.54153-4.52135 11.09845-6.64453 16.70898-2.11943 5.61173-4.09758 11.27577-5.79687 17.09571-1.6943 5.81751-3.10929 11.78039-4.09961 17.94531-.98657 6.16492-1.55274 12.53449-1.55274 19.18359 0 6.64911.56617 13.02064 1.55274 19.18555.99032 6.16371 2.40531 12.12854 4.09961 17.94727 1.69929 5.81751 3.67744 11.48201 5.79687 17.09375 2.12318 5.61294 4.3838 11.16503 6.64453 16.70898 2.26448 5.54032 4.52509 11.09846 6.64453 16.70898 2.12318 5.60932 4.09953 11.27699 5.79883 17.09571 1.6943 5.81636 3.10999 11.77786 4.10156 17.94526.98657 6.1662 1.55079 12.5341 1.55079 19.1856 0 6.6479-.56422 13.0172-1.55079 19.1797-.99157 6.1649-2.40726 12.1305-4.10156 17.9492-1.6993 5.8175-3.67565 11.482-5.79883 17.0938-2.11944 5.6117-4.38005 11.1654-6.64453 16.707-2.26073 5.5415-4.52135 11.1004-6.64453 16.7109-2.11943 5.6093-4.09758 11.2739-5.79687 17.0938-1.6943 5.82-3.10929 11.7804-4.09961 17.9453-.98657 6.1662-1.55274 12.5376-1.55274 19.1855 0 3.1682.13558 6.2692.37696 9.3184h54.21679c-.24137-3.0492-.37695-6.1502-.37695-9.3184 0-6.6479.56616-13.0193 1.55273-19.1855.99032-6.1649 2.40727-12.1253 4.10157-17.9453 1.69804-5.8199 3.67478-11.4845 5.79296-17.0938 2.12318-5.6105 4.38396-11.1694 6.64844-16.7109 2.26073-5.5428 4.52134-11.0953 6.64453-16.707 2.11943-5.6118 4.09758-11.2763 5.79688-17.0938 1.69429-5.8187 3.10929-11.7843 4.09961-17.9492.98657-6.1625 1.55468-12.5318 1.55468-19.1797 0-6.6515-.56811-13.0195-1.55468-19.1856-.99032-6.1674-2.40532-12.1289-4.09961-17.94526-1.6993-5.81872-3.67745-11.48639-5.79688-17.09571-2.12319-5.61052-4.3838-11.16866-6.64453-16.70898-2.26448-5.54395-4.52526-11.09604-6.64844-16.70898-2.11818-5.61174-4.09492-11.27624-5.79296-17.09375-1.6943-5.81873-3.11125-11.78356-4.10157-17.94727-.98657-6.16491-1.55273-12.53644-1.55273-19.18555 0-6.20607.56616-12.25491 1.55273-18.17773.99032-5.92282 2.40727-11.74601 4.10157-17.48242 3.39234-11.47041 7.91619-22.652 12.4414-33.95899 2.26073-5.65168 4.52134-11.33797 6.64453-17.09375 2.11943-5.75699 4.09758-11.60187 5.79688-17.55859 1.69429-5.95793 3.10929-12.00332 4.09961-18.25781.98657-6.2545 1.55468-12.68879 1.55468-19.33789 0-6.64911-.56811-13.01869-1.55468-19.1836-.99032-6.16492-2.40532-12.12732-4.09961-17.94726-1.6993-5.81751-3.67745-11.48202-5.79688-17.09375-2.12319-5.61052-4.3838-11.16746-6.64453-16.70899-2.26448-5.54032-4.52526-11.09725-6.64844-16.70898-2.11818-5.61053-4.09492-11.27502-5.79296-17.09375-1.6943-5.81993-3.11125-11.78114-4.10157-17.94727-.98657-6.16492-1.55273-12.53327-1.55273-19.18359 0-6.65031.56616-13.01868 1.55273-19.1836.21743-1.35378.46375-2.69262.72071-4.02734z" fill="#1353b4"/><path d="m181.13086 587.40039c-.25686 1.33472-.50328 2.67356-.7207 4.02734-.98657 6.16492-1.55274 12.53329-1.55274 19.1836 0 6.65032.56617 13.01867 1.55274 19.18359.99032 6.16613 2.40531 12.12734 4.09961 17.94727 1.69929 5.81873 3.67744 11.48322 5.79687 17.09375 2.12318 5.61173 4.3838 11.16866 6.64453 16.70898 2.26448 5.54153 4.52509 11.09847 6.64453 16.70899 2.12318 5.61173 4.09953 11.27624 5.79883 17.09375 1.6943 5.81994 3.10999 11.78234 4.10156 17.94726.98657 6.16491 1.55079 12.53449 1.55079 19.1836 0 6.6491-.56422 13.01988-1.55079 19.18359-.99157 6.16613-2.40726 12.12854-4.10156 17.94727-1.6993 5.81871-3.67565 11.48397-5.79883 17.0957-2.11944 5.61174-4.38005 11.16551-6.64453 16.70703-2.26073 5.54153-4.52135 11.09845-6.64453 16.70898-2.11943 5.61173-4.09758 11.27577-5.79687 17.09571-1.6943 5.81751-3.10929 11.78039-4.09961 17.94531-.98657 6.16492-1.55274 12.53449-1.55274 19.18359 0 6.64911.56617 13.02064 1.55274 19.18555.99032 6.16371 2.40531 12.12854 4.09961 17.94727 1.69929 5.81751 3.67744 11.48201 5.79687 17.09375 2.12318 5.61294 4.3838 11.16503 6.64453 16.70898 2.26448 5.54032 4.52509 11.09846 6.64453 16.70898 2.12318 5.60932 4.09953 11.27699 5.79883 17.09571 1.6943 5.81636 3.10999 11.77786 4.10156 17.94526.98657 6.1662 1.55079 12.5341 1.55079 19.1856 0 6.6479-.56422 13.0172-1.55079 19.1797-.99157 6.1649-2.40726 12.1305-4.10156 17.9492-1.6993 5.8175-3.67565 11.482-5.79883 17.0938-2.11944 5.6117-4.38005 11.1654-6.64453 16.707-2.26073 5.5415-4.52135 11.1004-6.64453 16.7109-2.11943 5.6093-4.09758 11.2739-5.79687 17.0938-1.6943 5.82-3.10929 11.7804-4.09961 17.9453-.98657 6.1662-1.55274 12.5376-1.55274 19.1855 0 3.1682.13558 6.2692.37696 9.3184h54.21679c-.24137-3.0492-.37695-6.1502-.37695-9.3184 0-6.6479.56616-13.0193 1.55273-19.1855.99032-6.1649 2.40727-12.1253 4.10157-17.9453 1.69804-5.8199 3.67478-11.4845 5.79296-17.0938 2.12318-5.6105 4.38396-11.1694 6.64844-16.7109 2.26073-5.5428 4.52134-11.0953 6.64453-16.707 2.11943-5.6118 4.09758-11.2763 5.79688-17.0938 1.69429-5.8187 3.10929-11.7843 4.09961-17.9492.98657-6.1625 1.55468-12.5318 1.55468-19.1797 0-6.6515-.56811-13.0195-1.55468-19.1856-.99032-6.1674-2.40532-12.1289-4.09961-17.94526-1.6993-5.81872-3.67745-11.48639-5.79688-17.09571-2.12319-5.61052-4.3838-11.16866-6.64453-16.70898-2.26448-5.54395-4.52526-11.09604-6.64844-16.70898-2.11818-5.61174-4.09492-11.27624-5.79296-17.09375-1.6943-5.81873-3.11125-11.78356-4.10157-17.94727-.98657-6.16491-1.55273-12.53644-1.55273-19.18555 0-6.20607.56616-12.25491 1.55273-18.17773.99032-5.92282 2.40727-11.74601 4.10157-17.48242 3.39234-11.47041 7.91619-22.652 12.4414-33.95899 2.26073-5.65168 4.52134-11.33797 6.64453-17.09375 2.11943-5.75699 4.09758-11.60187 5.79688-17.55859 1.69429-5.95793 3.10929-12.00332 4.09961-18.25781.98657-6.2545 1.55468-12.68879 1.55468-19.33789 0-6.64911-.56811-13.01869-1.55468-19.1836-.99032-6.16492-2.40532-12.12732-4.09961-17.94726-1.6993-5.81751-3.67745-11.48202-5.79688-17.09375-2.12319-5.61052-4.3838-11.16746-6.64453-16.70899-2.26448-5.54032-4.52526-11.09725-6.64844-16.70898-2.11818-5.61053-4.09492-11.27502-5.79296-17.09375-1.6943-5.81993-3.11125-11.78114-4.10157-17.94727-.98657-6.16492-1.55273-12.53327-1.55273-19.18359 0-6.65031.56616-13.01868 1.55273-19.1836.21743-1.35378.46375-2.69262.72071-4.02734z" fill="none" stroke="#540" stroke-width="1.599356"/></g><g transform="matrix(.99734148 0 0 .99734148 .196884 -585.04122)"><path d="m77.130859 587.40039c-.256863 1.33472-.503277 2.67356-.720703 4.02734-.986567 6.16492-1.552734 12.53329-1.552734 19.1836 0 6.65032.566167 13.01867 1.552734 19.18359.990319 6.16613 2.405315 12.12734 4.09961 17.94727 1.699296 5.81873 3.677443 11.48322 5.796875 17.09375 2.123183 5.61173 4.383804 11.16866 6.644531 16.70898 2.264479 5.54153 4.525099 11.09847 6.644531 16.70899 2.123187 5.61173 4.099527 11.27624 5.798827 17.09375 1.6943 5.81994 3.10999 11.78234 4.10156 17.94726.98657 6.16491 1.55079 12.53449 1.55079 19.1836 0 6.6491-.56422 13.01988-1.55079 19.18359-.99157 6.16613-2.40726 12.12854-4.10156 17.94727-1.6993 5.81871-3.67564 11.48397-5.798827 17.0957-2.119432 5.61174-4.380052 11.16551-6.644531 16.70703-2.260727 5.54153-4.521348 11.09845-6.644531 16.70898-2.119432 5.61173-4.097579 11.27577-5.796875 17.09571-1.694295 5.81751-3.109291 11.78039-4.09961 17.94531-.986567 6.16492-1.552734 12.53449-1.552734 19.18359 0 6.64911.566167 13.02064 1.552734 19.18555.990319 6.16371 2.405315 12.12854 4.09961 17.94727 1.699296 5.81751 3.677443 11.48201 5.796875 17.09375 2.123183 5.61294 4.383804 11.16503 6.644531 16.70898 2.264479 5.54032 4.525099 11.09846 6.644531 16.70898 2.123187 5.60932 4.099527 11.27699 5.798827 17.09571 1.6943 5.81636 3.10999 11.77786 4.10156 17.94526.98657 6.1662 1.55079 12.5341 1.55079 19.1856 0 6.6479-.56422 13.0172-1.55079 19.1797-.99157 6.1649-2.40726 12.1305-4.10156 17.9492-1.6993 5.8175-3.67564 11.482-5.798827 17.0938-2.119432 5.6117-4.380052 11.1654-6.644531 16.707-2.260727 5.5415-4.521348 11.1004-6.644531 16.7109-2.119432 5.6093-4.097579 11.2739-5.796875 17.0938-1.694295 5.82-3.109291 11.7804-4.09961 17.9453-.986567 6.1662-1.552734 12.5376-1.552734 19.1855 0 3.1682.13558 6.2692.376953 9.3184h54.216795c-.24137-3.0492-.37695-6.1502-.37695-9.3184 0-6.6479.56616-13.0193 1.55273-19.1855.99032-6.1649 2.40727-12.1253 4.10157-17.9453 1.69804-5.8199 3.67478-11.4845 5.79296-17.0938 2.12318-5.6105 4.38396-11.1694 6.64844-16.7109 2.26073-5.5428 4.52134-11.0953 6.64453-16.707 2.11943-5.6118 4.09758-11.2763 5.79688-17.0938 1.69429-5.8187 3.10929-11.7843 4.09961-17.9492.98657-6.1625 1.55469-12.5318 1.55468-19.1797 0-6.6515-.56811-13.0195-1.55468-19.1856-.99032-6.1674-2.40532-12.1289-4.09961-17.94526-1.6993-5.81872-3.67745-11.48639-5.79688-17.09571-2.12319-5.61052-4.3838-11.16866-6.64453-16.70898-2.26448-5.54395-4.52526-11.09604-6.64844-16.70898-2.11818-5.61174-4.09492-11.27624-5.79296-17.09375-1.6943-5.81873-3.11125-11.78356-4.10157-17.94727-.98657-6.16491-1.55273-12.53644-1.55273-19.18555 0-6.20607.56616-12.25491 1.55273-18.17773.99032-5.92282 2.40727-11.74601 4.10157-17.48242 3.39234-11.47041 7.91619-22.652 12.4414-33.95899 2.26073-5.65168 4.52134-11.33797 6.64453-17.09375 2.11943-5.75699 4.09758-11.60187 5.79688-17.55859 1.69429-5.95793 3.10929-12.00332 4.09961-18.25781.98657-6.2545 1.55468-12.68879 1.55468-19.33789 0-6.64911-.56811-13.01869-1.55468-19.1836-.99032-6.16492-2.40532-12.12732-4.09961-17.94726-1.6993-5.81751-3.67745-11.48202-5.79688-17.09375-2.12319-5.61052-4.3838-11.16746-6.64453-16.70899-2.26448-5.54032-4.52526-11.09725-6.64844-16.70898-2.11818-5.61053-4.09492-11.27502-5.79296-17.09375-1.6943-5.81993-3.11125-11.78114-4.10157-17.94727-.98657-6.16492-1.55273-12.53327-1.55273-19.18359 0-6.65031.56616-13.01868 1.55273-19.1836.21743-1.35378.46375-2.69262.72071-4.02734z" fill="#1353b4"/><path d="m77.130859 587.40039c-.256863 1.33472-.503277 2.67356-.720703 4.02734-.986567 6.16492-1.552734 12.53329-1.552734 19.1836 0 6.65032.566167 13.01867 1.552734 19.18359.990319 6.16613 2.405315 12.12734 4.09961 17.94727 1.699296 5.81873 3.677443 11.48322 5.796875 17.09375 2.123183 5.61173 4.383804 11.16866 6.644531 16.70898 2.264479 5.54153 4.525099 11.09847 6.644531 16.70899 2.123187 5.61173 4.099527 11.27624 5.798827 17.09375 1.6943 5.81994 3.10999 11.78234 4.10156 17.94726.98657 6.16491 1.55079 12.53449 1.55079 19.1836 0 6.6491-.56422 13.01988-1.55079 19.18359-.99157 6.16613-2.40726 12.12854-4.10156 17.94727-1.6993 5.81871-3.67564 11.48397-5.798827 17.0957-2.119432 5.61174-4.380052 11.16551-6.644531 16.70703-2.260727 5.54153-4.521348 11.09845-6.644531 16.70898-2.119432 5.61173-4.097579 11.27577-5.796875 17.09571-1.694295 5.81751-3.109291 11.78039-4.09961 17.94531-.986567 6.16492-1.552734 12.53449-1.552734 19.18359 0 6.64911.566167 13.02064 1.552734 19.18555.990319 6.16371 2.405315 12.12854 4.09961 17.94727 1.699296 5.81751 3.677443 11.48201 5.796875 17.09375 2.123183 5.61294 4.383804 11.16503 6.644531 16.70898 2.264479 5.54032 4.525099 11.09846 6.644531 16.70898 2.123187 5.60932 4.099527 11.27699 5.798827 17.09571 1.6943 5.81636 3.10999 11.77786 4.10156 17.94526.98657 6.1662 1.55079 12.5341 1.55079 19.1856 0 6.6479-.56422 13.0172-1.55079 19.1797-.99157 6.1649-2.40726 12.1305-4.10156 17.9492-1.6993 5.8175-3.67564 11.482-5.798827 17.0938-2.119432 5.6117-4.380052 11.1654-6.644531 16.707-2.260727 5.5415-4.521348 11.1004-6.644531 16.7109-2.119432 5.6093-4.097579 11.2739-5.796875 17.0938-1.694295 5.82-3.109291 11.7804-4.09961 17.9453-.986567 6.1662-1.552734 12.5376-1.552734 19.1855 0 3.1682.13558 6.2692.376953 9.3184h54.216795c-.24137-3.0492-.37695-6.1502-.37695-9.3184 0-6.6479.56616-13.0193 1.55273-19.1855.99032-6.1649 2.40727-12.1253 4.10157-17.9453 1.69804-5.8199 3.67478-11.4845 5.79296-17.0938 2.12318-5.6105 4.38396-11.1694 6.64844-16.7109 2.26073-5.5428 4.52134-11.0953 6.64453-16.707 2.11943-5.6118 4.09758-11.2763 5.79688-17.0938 1.69429-5.8187 3.10929-11.7843 4.09961-17.9492.98657-6.1625 1.55469-12.5318 1.55468-19.1797 0-6.6515-.56811-13.0195-1.55468-19.1856-.99032-6.1674-2.40532-12.1289-4.09961-17.94526-1.6993-5.81872-3.67745-11.48639-5.79688-17.09571-2.12319-5.61052-4.3838-11.16866-6.64453-16.70898-2.26448-5.54395-4.52526-11.09604-6.64844-16.70898-2.11818-5.61174-4.09492-11.27624-5.79296-17.09375-1.6943-5.81873-3.11125-11.78356-4.10157-17.94727-.98657-6.16491-1.55273-12.53644-1.55273-19.18555 0-6.20607.56616-12.25491 1.55273-18.17773.99032-5.92282 2.40727-11.74601 4.10157-17.48242 3.39234-11.47041 7.91619-22.652 12.4414-33.95899 2.26073-5.65168 4.52134-11.33797 6.64453-17.09375 2.11943-5.75699 4.09758-11.60187 5.79688-17.55859 1.69429-5.95793 3.10929-12.00332 4.09961-18.25781.98657-6.2545 1.55468-12.68879 1.55468-19.33789 0-6.64911-.56811-13.01869-1.55468-19.1836-.99032-6.16492-2.40532-12.12732-4.09961-17.94726-1.6993-5.81751-3.67745-11.48202-5.79688-17.09375-2.12319-5.61052-4.3838-11.16746-6.64453-16.70899-2.26448-5.54032-4.52526-11.09725-6.64844-16.70898-2.11818-5.61053-4.09492-11.27502-5.79296-17.09375-1.6943-5.81993-3.11125-11.78114-4.10157-17.94727-.98657-6.16492-1.55273-12.53327-1.55273-19.18359 0-6.65031.56616-13.01868 1.55273-19.1836.21743-1.35378.46375-2.69262.72071-4.02734z" fill="none" stroke="#540" stroke-width="1.599356"/></g></svg>