<svg height="750" width="1125" xmlns="http://www.w3.org/2000/svg" xmlns:xlink="http://www.w3.org/1999/xlink"><clipPath id="a"><path d="m0 600h900v-600h-900z"/></clipPath><g transform="matrix(1.25 0 0 -1.25 0 750)"><path d="m551.829 0h348.171v300h-348.171z" fill="#fff"/><path d="m0 0h551.829v600h-551.829z" fill="#ffd203"/><path d="m551.829 300h348.171v300.001h-348.171z" fill="#ffd203"/><g clip-path="url(#a)"><path d="m0 0c7.631-5.995 21.244-10.723 11.98-21.622 8.175-1.09 11.456 6.906 11.456 12.901 0 5.994-22.891 8.177-23.436 8.721" fill="#ed2939" transform="translate(688.3262 503.1616)"/><path d="m0 0c7.631-5.995 21.244-10.723 11.98-21.622 8.175-1.09 11.456 6.906 11.456 12.901 0 5.994-22.891 8.177-23.436 8.721z" fill="none" stroke="#000" stroke-width=".625" transform="translate(688.3262 503.1616)"/><path d="m0 0c91.022 30.63 58.757 136.265-19.376 126.264-6.041-.59-10.669-1.616-15.001-4.374-6.877-3.203-17.814-4.215-19.378-.626 1.133 2.339 7.168 4.559 6.875 8.126-5.154 2.462-13.529 5.478-11.876 15.001 14.899-2.683 19.379 8.751 18.753 15.003-.625 4.191-4.377 15.001 23.752 25.003 50.004 11.251 115.013-6.876 125.016-92.51 3.751-58.757-42.507-79.385-55.008-88.761-12.5-9.376-26.877-16.253-33.753-36.253-2.5 17.5-11.877 26.877-20.004 33.127" fill="#002395" transform="translate(697.7461 376.1992)"/><path d="m0 0c91.022 30.63 58.757 136.265-19.376 126.264-6.041-.59-10.669-1.616-15.001-4.374-6.877-3.203-17.814-4.215-19.378-.626 1.133 2.339 7.168 4.559 6.875 8.126-5.154 2.462-13.529 5.478-11.876 15.001 14.899-2.683 19.379 8.751 18.753 15.003-.625 4.191-4.377 15.001 23.752 25.003 50.004 11.251 115.013-6.876 125.016-92.51 3.751-58.757-42.507-79.385-55.008-88.761-12.5-9.376-26.877-16.253-33.753-36.253-2.5 17.5-11.877 26.877-20.004 33.127z" fill="none" stroke="#000" stroke-width=".625" transform="translate(697.7461 376.1992)"/><path d="m0 0c4.359-3.815 11.445-7.074 17.985 4.359 6.541 9.266 15.836.544 15.836.544" fill="none" stroke="#000" stroke-width=".625" transform="translate(657.2607 529.3218)"/><path d="m0 0c8.719-15.27 28.426-15.192 49.789-13.076" fill="none" stroke="#000" stroke-width=".625" transform="translate(681.79 524.5449)"/><path d="m0 0c64.001-17.438 56-94.284 14.855-124.258" fill="none" stroke="#000" stroke-width="1.92" transform="translate(735.751 518.7671)"/><path d="m0 0c-26.705-6.539-53.41-2.18-73.575 33.246-7.084 13.081-23.526 12.114-24.466 3.461 10.874 9.391 16.14-7.59 14.908-13.997-12.948-.188-16.067-4.315-22.199-9.01 4.446-.055 12.324 3.538 22.493-9.885 11.897-14.858 28.34-15.925 33.79-15.925 6.539-.545 9.078-1.727 17.072 1.483-4.603-6.539-22.157-9.349-30.697-3.186-2.339-9.076 5.614-6.872 20.709-14.526 10.605-6.181 18.178-16.947 29.43-21.8 11.239-4.622 19.388-3.866 30.832 5.942-25.07-5.448-41.186 6.592-18.297 44.197" fill="#ed2939" transform="translate(730.8359 378.9014)"/><path d="m0 0c-26.705-6.539-53.41-2.18-73.575 33.246-7.084 13.081-23.526 12.114-24.466 3.461 10.874 9.391 16.14-7.59 14.908-13.997-12.948-.188-16.067-4.315-22.199-9.01 4.446-.055 12.324 3.538 22.493-9.885 11.897-14.858 28.34-15.925 33.79-15.925 6.539-.545 9.078-1.727 17.072 1.483-4.603-6.539-22.157-9.349-30.697-3.186-2.339-9.076 5.614-6.872 20.709-14.526 10.605-6.181 18.178-16.947 29.43-21.8 11.239-4.622 19.388-3.866 30.832 5.942-25.07-5.448-41.186 6.592-18.297 44.197z" fill="none" stroke="#000" stroke-width=".625" transform="translate(730.8359 378.9014)"/><path d="m0 0c-6.539-16.894-14.798-35.623-2.809-48.157-15.804-.547-27.175 15.624-27.175 21.619 5.995 3.816 23.445 16.727 29.984 26.538" fill="#ed2939" transform="translate(790.2402 412.147)"/><path d="m0 0c-6.539-16.894-14.798-35.623-2.809-48.157-15.804-.547-27.175 15.624-27.175 21.619 5.995 3.816 23.445 16.727 29.984 26.538z" fill="none" stroke="#000" stroke-width=".625" transform="translate(790.2402 412.147)"/><path d="m0 0c-7.629-20.164-15.826-24.523-32.176-24.523 8.719-4.36 13.101-5.452 10.376-16.35 10.9 9.263 21.8 26.704 21.8 40.873" fill="#ed2939" transform="translate(753.1816 436.1265)"/><path d="m0 0c-7.629-20.164-15.826-24.523-32.176-24.523 8.719-4.36 13.101-5.452 10.376-16.35 10.9 9.263 21.8 26.704 21.8 40.873z" fill="none" stroke="#000" stroke-width=".625" transform="translate(753.1816 436.1265)"/><path d="m0 0c3.813-2.724 4.904-6.539 4.359-13.625 5.995 9.81 13.079 10.357 18.53 4.362.544 6.539 7.631 7.083 12.534 3.268" fill="none" stroke="#000" stroke-width=".625" transform="translate(743.3721 541.8555)"/><path d="m0 0c17.44-2.18 29.43-15.805 32.701-22.891" fill="none" stroke="#000" stroke-width=".625" transform="translate(719.3896 501.5264)"/><path d="m0 0c10.898 1.088 24.177 1.833 34.334 10.355-2.18-8.175-10.711-11.625-13.438-16.528 3.271-.546 11.258-.913 13.438.178 5.45 1.089 12.534 4.904 19.62 7.628 7.083 2.727 13.091 5.085 18.539.725-11.445-1.09-22.532-10.366-15.814-20.89-8.719 1.636-18.155-4.012-17.61-16.002-4.903 10.899-31.441 32.899-38.525 33.988z" fill="#ed2939" transform="translate(749.3672 556.5718)"/><path d="m0 0c10.898 1.088 24.177 1.833 34.334 10.355-2.18-8.175-10.711-11.625-13.438-16.528 3.271-.546 11.258-.913 13.438.178 5.45 1.089 12.534 4.904 19.62 7.628 7.083 2.727 13.091 5.085 18.539.725-11.445-1.09-22.532-10.366-15.814-20.89-8.719 1.636-18.155-4.012-17.61-16.002-4.903 10.899-31.441 32.899-38.525 33.988z" fill="none" stroke="#000" stroke-width=".625" transform="translate(749.3672 556.5718)"/><path d="m0 0c7.631-10.899 20.168-25.071 24.526-26.704-11.444-2.182-14.706-9.644-6.542-25.07-5.994 5.45-8.718 7.629-12.533 3.815 3.27 8.718-5.995 48.503-5.451 47.959" fill="#ed2939" transform="translate(800.5947 495.5317)"/><path d="m0 0c7.631-10.899 20.168-25.071 24.526-26.704-11.444-2.182-14.706-9.644-6.542-25.07-5.994 5.45-8.718 7.629-12.533 3.815 3.27 8.718-5.995 48.503-5.451 47.959z" fill="none" stroke="#000" stroke-width=".625" transform="translate(800.5947 495.5317)"/><path d="m0 0c23.595 13.049 29.718-1.706-.099-2.852-.513.8-.19 1.823-.19 2.37z" fill="#ffd203" transform="translate(651.6201 506.6885)"/><path d="m0 0c23.595 13.049 29.718-1.706-.099-2.852-.513.8-.19 1.823-.19 2.37z" fill="none" stroke="#000" stroke-width=".625" transform="translate(651.6201 506.6885)"/><path d="m0 0c9.811-7.086 23.979-5.995 31.609-5.451 7.631.545-1.634-3.27-1.634-8.174s1.413-7.233 3.271-11.446c2.145-4.863 1.278-12.188-5.63-16.181 3.449 10.711-7.997 20.541-12.356 23.812-5.165 3.23-15.26 17.984-15.26 17.44" fill="#ed2939" transform="translate(688.8711 515.1519)"/><path d="m0 0c9.811-7.086 23.979-5.995 31.609-5.451 7.631.545-1.634-3.27-1.634-8.174s1.413-7.233 3.271-11.446c2.145-4.863 1.278-12.188-5.63-16.181 3.449 10.711-7.997 20.541-12.356 23.812-5.165 3.23-15.26 17.984-15.26 17.44z" fill="none" stroke="#000" stroke-width=".625" transform="translate(688.8711 515.1519)"/><path d="m0 0c0 2.074-1.781 3.752-3.975 3.752s-3.971-1.678-3.971-3.752c0-2.072 1.777-3.753 3.971-3.753s3.975 1.681 3.975 3.753" fill="#fff" transform="translate(683.5801 527.9585)"/><path d="m0 0c1.059-3.275 2.903-4.465 5.314-7.912-3.193.727-6.676 3.916-8.424 4.456" fill="none" stroke="#000" stroke-width=".625" transform="translate(647.9287 404.2876)"/><path d="m0 0c4.99 1.047 4.867 2.066 6.047 2.83-.228-1.723-3.369-2.575-1.936-6.522" fill="none" stroke="#000" stroke-width=".625" transform="translate(696.5137 345.1094)"/><path d="m0 0c3.901 1.282 7.804-1.71 9.838-3.75 2.606-2.486 7.723-4.386 11.387-5.227" fill="none" stroke="#000" stroke-width=".625" transform="translate(668.1621 512.0088)"/><path d="m0 0c8.721 4.362 13.403 7.987 15.036 11.255 1.636-3.815-1.089-7.63-1.089-10.899 6.539 0 16.895 4.904 19.074 7.084 4.907-3.815 1.957-12.147.706-14.651" fill="#002395" stroke="#000" stroke-width=".625" transform="translate(712.8945 562.9766)"/><path d="m0 0c8.479-3.083 10.86-1.397 17.026.915-3.853-6.166-7.707-6.936-13.103-5.395" fill="none" stroke="#000" stroke-width=".75" transform="translate(768.6689 543.5322)"/><path d="m122 0h-61v600h61z" fill="#ed2939"/><path d="m244 0h-61v600h61z" fill="#ed2939"/><path d="m367.415 0h-61v600h61z" fill="#ed2939"/><path d="m489.414 0h-61v600h61z" fill="#ed2939"/><path d="m0 0c-5.535.506-11.069-.253-14.088-1.771s-9.434-2.151-13.711-.632c2.767-4.807 8.302-6.073 14.591-3.289 3.455 1.597 8.429 3.415 10.566 2.909 5.661-1.139 3.523 2.53 2.642 2.783" fill="#ed2939" transform="translate(729.3311 237.3037)"/><path d="m0 0c-5.535.506-11.069-.253-14.088-1.771s-9.434-2.151-13.711-.632c2.767-4.807 8.302-6.073 14.591-3.289 3.455 1.597 8.429 3.415 10.566 2.909 5.661-1.139 3.523 2.53 2.642 2.783z" fill="none" stroke="#000" stroke-width=".625" transform="translate(729.3311 237.3037)"/><path d="m812.74 23.866h-172.438v28.62h172.438z" fill="#002395" stroke="#fff" stroke-width=".625"/><path d="m0 0c3.558 6.978 6.937 9.304 8.184 13.775 1.245 4.473 4.09 7.335 9.072 11.451 8.894 7.872 18.267 12.155 27.217 5.546 5.103-3.768 1.601-12.344 7.827-15.386 6.227-3.041 10.14-16.459 9.429-21.289-8.005 6.619-15.833 8.944-23.66 3.219-6.048-4.114-12.452-5.545-19.213-.715-6.759 4.831-19.034 3.399-18.856 3.399" transform="translate(645.1367 53.0205)"/><path d="m0 0c3.558 6.978 6.937 9.304 8.184 13.775 1.245 4.473 4.09 7.335 9.072 11.451 8.894 7.872 18.267 12.155 27.217 5.546 5.103-3.768 1.601-12.344 7.827-15.386 6.227-3.041 10.14-16.459 9.429-21.289-8.005 6.619-15.833 8.944-23.66 3.219-6.048-4.114-12.452-5.545-19.213-.715-6.759 4.831-19.034 3.399-18.856 3.399z" fill="none" stroke="#000" stroke-width="2.104" transform="translate(645.1367 53.0205)"/><path d="m0 0c-2.134-13.418 2.846-25.404 8.718-23.258 1.067-4.83 5.514-8.766 9.071-8.408-.533-5.01 5.693-15.386 10.852-14.85 2.668-7.157 7.115-17.891 13.875-11.986 1.958-8.23 6.227-17.533 12.809-15.565 3.024.894-2.136 108.238-1.6 106.449z" fill="#ed2939" transform="translate(750.2715 188.4414)"/><path d="m0 0c-2.134-13.418 2.846-25.404 8.718-23.258 1.067-4.83 5.514-8.766 9.071-8.408-.533-5.01 5.693-15.386 10.852-14.85 2.668-7.157 7.115-17.891 13.875-11.986 1.958-8.23 6.227-17.533 12.809-15.565 3.024.894-2.136 108.238-1.6 106.449z" fill="none" stroke="#000" stroke-width=".625" transform="translate(750.2715 188.4414)"/><path d="m0 0c-11.255 3.325-11.594 7.958-14.439 13.683-2.847 5.725-2.932 13.852-11.386 17.891-6.705 3.203-7.324 7.619-8.035 11.912-.713 4.294 3.765 23.154 3.765 23.154s-2.127-.209-2.717.715c2.933.42 10.293-2.826 12.68.716 1.63-2.024 4.018-2.234 5.693-.716 1.422-2.53 7.662-2.234 8.538.716 3.393-1.858 9.588 1.597 8.539 4.294 4.988-1.352 8.877 2.776 7.827 6.441 7.001.123 7.08 5.68 4.269 8.587 2.724.376 4.32 3.326 2.136 5.725 2.846 2.147 4.98-2.147 4.98-5.725 0-3.579 3.141-67.522 3.141-73.963 0-6.441 1.934-17.703 3.976-21.975 4.233-8.862 7.574-10.142 12.937-9.723-4.198 7.252-4.356 14.82-5.068 20.545-.711 5.725-3.646 82.528-4.053 82.513l-.005.014c2.692-.729 4.636.004 6.087 1.076-2.588.186-3.648 2.849-4.168 3.686-1.135 2.287-2.174 8.562-3.596 12.14-1.423 3.578-10.766 19.632-15.656 22.899-5.692 3.014-14.789 6.654-17.077 2.147-3.324-5.715 2.846-17.175 6.404-17.89 3.558-.716-4.269 2.863-3.558-1.432.713-4.293 2.847-9.302.713-12.165-2.136-2.863-4.982-4.293-7.828-4.293s-4.269 0-5.693-2.148c-1.423-2.146-4.981-3.578-7.827-1.431-2.847 2.147-7.115 2.863-9.251 2.863-2.134 0-7.072-.847-7.324-.087l.166 8.963c1.804-1.248 8.698.222 11.484 3.474-4.529.299-7.183 7.093-7.096 9.873 2.401-.399 4.92 1.133 7.013 2.649-3.125.097-6.963 4.145-8.033 8.898 2.688-.166 3.387 1.517 5.37 2.951-3.274-.208-9.166 4.285-10.665 8.367-2.135 2.146-16.531 2.605-20.801 2.605-4.269 0-3.557-1.178-3.557-3.325 0-2.146 1.423-.716-3.558-3.578-7.371-1.977-7.958-9.928-4.144-12.798 1.422 1.431 1.828 2.781 3.011 4.207 1.004 1.07 3.233.568 4.092-.618.727-.876 2.46-2.179 3.723-2.211 1.285.097 2.507.917 4.203-.326 7.791-3.582 3.062-13.803-6.616-13.301 1.894-4.305 5.251-5.694 11.29-3.503-.845-2.448-3.436-6.546-4.976-7.867-10.679-6.04-17.872-18.916-13.264-36.83 2.845-5.009 8.809-20.064-.877-24.793-9.919-4.215-10.552-10.063-13.06-16.294-2.896-6.537-10.275-17.328-16.062-16.517 4.342-7.379 20.877 3.803 23.429 8.479 2.3-5.192 2.206-12.953 8.704-14.522-3.875 9.505-.624 13.954 7.716 20.684 4.399-5.813-4.49-32.629-15.435-35.337 5.038-2.485 12.475 1.394 15.192 2.022-1.057-2.406-13.191-9.918-18.97-10.005 8.31-6.919 18.383 3.38 22.781 7.884-.631-4.858-12.682-16.443-18.181-17.498.288-8.646 46.081-10.374 47.684-.724-5.693 1.554-14.71 9.331-17.469 17.439 7.203-7.265 13.188-12.57 22.828-7.596-9.596 2.443-15.043 7.029-17.136 9.743 4.79-1.409 7.083-2.19 12.776-1.474-7.892 4.004-18.148 26.356-16.169 36.212 9.875-6.686 11-12.269 8.212-21.307 8.398-.216 7.774 12.498 9.412 16.625 5.162-9.534 14.468-17.312 22.979-10.82" fill="#ed2939" transform="translate(780.1885 121.0859)"/><path d="m0 0c-11.255 3.325-11.594 7.958-14.439 13.683-2.847 5.725-2.932 13.852-11.386 17.891-6.705 3.203-7.324 7.619-8.035 11.912-.713 4.294 3.765 23.154 3.765 23.154s-2.127-.209-2.717.715c2.933.42 10.293-2.826 12.68.716 1.63-2.024 4.018-2.234 5.693-.716 1.422-2.53 7.662-2.234 8.538.716 3.393-1.858 9.588 1.597 8.539 4.294 4.988-1.352 8.877 2.776 7.827 6.441 7.001.123 7.08 5.68 4.269 8.587 2.724.376 4.32 3.326 2.136 5.725 2.846 2.147 4.98-2.147 4.98-5.725 0-3.579 3.141-67.522 3.141-73.963 0-6.441 1.934-17.703 3.976-21.975 4.233-8.862 7.574-10.142 12.937-9.723-4.198 7.252-4.356 14.82-5.068 20.545-.711 5.725-3.646 82.528-4.053 82.513l-.005.014c2.692-.729 4.636.004 6.087 1.076-2.588.186-3.648 2.849-4.168 3.686-1.135 2.287-2.174 8.562-3.596 12.14-1.423 3.578-10.766 19.632-15.656 22.899-5.692 3.014-14.789 6.654-17.077 2.147-3.324-5.715 2.846-17.175 6.404-17.89 3.558-.716-4.269 2.863-3.558-1.432.713-4.293 2.847-9.302.713-12.165-2.136-2.863-4.982-4.293-7.828-4.293s-4.269 0-5.693-2.148c-1.423-2.146-4.981-3.578-7.827-1.431-2.847 2.147-7.115 2.863-9.251 2.863-2.134 0-7.072-.847-7.324-.087l.166 8.963c1.804-1.248 8.698.222 11.484 3.474-4.529.299-7.183 7.093-7.096 9.873 2.401-.399 4.92 1.133 7.013 2.649-3.125.097-6.963 4.145-8.033 8.898 2.688-.166 3.387 1.517 5.37 2.951-3.274-.208-9.166 4.285-10.665 8.367-2.135 2.146-16.531 2.605-20.801 2.605-4.269 0-3.557-1.178-3.557-3.325 0-2.146 1.423-.716-3.558-3.578-7.371-1.977-7.958-9.928-4.144-12.798 1.422 1.431 1.828 2.781 3.011 4.207 1.004 1.07 3.233.568 4.092-.618.727-.876 2.46-2.179 3.723-2.211 1.285.097 2.507.917 4.203-.326 7.791-3.582 3.062-13.803-6.616-13.301 1.894-4.305 5.251-5.694 11.29-3.503-.845-2.448-3.436-6.546-4.976-7.867-10.679-6.04-17.872-18.916-13.264-36.83 2.845-5.009 8.809-20.064-.877-24.793-9.919-4.215-10.552-10.063-13.06-16.294-2.896-6.537-10.275-17.328-16.062-16.517 4.342-7.379 20.877 3.803 23.429 8.479 2.3-5.192 2.206-12.953 8.704-14.522-3.875 9.505-.624 13.954 7.716 20.684 4.399-5.813-4.49-32.629-15.435-35.337 5.038-2.485 12.475 1.394 15.192 2.022-1.057-2.406-13.191-9.918-18.97-10.005 8.31-6.919 18.383 3.38 22.781 7.884-.631-4.858-12.682-16.443-18.181-17.498.288-8.646 46.081-10.374 47.684-.724-5.693 1.554-14.71 9.331-17.469 17.439 7.203-7.265 13.188-12.57 22.828-7.596-9.596 2.443-15.043 7.029-17.136 9.743 4.79-1.409 7.083-2.19 12.776-1.474-7.892 4.004-18.148 26.356-16.169 36.212 9.875-6.686 11-12.269 8.212-21.307 8.398-.216 7.774 12.498 9.412 16.625 5.162-9.534 14.468-17.312 22.979-10.82z" fill="none" stroke="#000" stroke-width=".625" transform="translate(780.1885 121.0859)"/><path d="m0 0c3.024-8.945 1.424-21.827-6.937-22.721-1.601-3.936-5.159-6.62-9.429-7.872-1.78-8.051-6.404-15.923-10.495-13.597-1.957-8.23-9.962-20.574-13.698-12.524-1.779-11.27-11.564-19.142-15.477-14.491-3.202 3.757 4.456 99.477 4.456 99.477z" fill="#ed2939" transform="translate(710.877 187.5469)"/><path d="m0 0c3.024-8.945 1.424-21.827-6.937-22.721-1.601-3.936-5.159-6.62-9.429-7.872-1.78-8.051-6.404-15.923-10.495-13.597-1.957-8.23-9.962-20.574-13.698-12.524-1.779-11.27-11.564-19.142-15.477-14.491-3.202 3.757 4.456 99.477 4.456 99.477z" fill="none" stroke="#000" stroke-width=".625" transform="translate(710.877 187.5469)"/><path d="m0 0c-6.541 1.012-13.561-.358-16.076-2.383-2.516-2.023-8.701-2.826-10.21-.802-1.51 2.025-3.523 3.037-6.038 3.542-9.632 2.653-8.529 18.519-4.529 20.241 6.482 2.5 8.564 15.252-.534 15.298-9.561.228-16.456-.654-20.481-4.702-4.026-4.048-8.479-10.827-9.678-18.693-1.053-6.911-4.689-15.712-9.528-19.647 2.785-1.039 4.958-.375 5.859-.209-1.865-4.397-.019-85.8-7.399-98.553-1.51-5.06 9.056-4.048 12.578 4.049 3.522 8.095 8.051 97.662 8.555 102.216.502 4.554 2.068-1.344 4.528-3.159-1.276-5.572 1.001-8.966 4.528-9.707-.208-4.855 5.001-5.714 7.547-4.845-.3-3.246 3.345-4.559 7.045-3.542 1.92-3.813 7.761-4.467 9.266-2.203 2.57-3.103 5.772-.746 6.835 1.191 2.663-2.714 9.378-4.851 9.118-.531-.862 6.274 4.136 19.576 8.614 22.439" fill="#ed2939" transform="translate(719.5127 211.3926)"/><path d="m0 0c-6.541 1.012-13.561-.358-16.076-2.383-2.516-2.023-8.701-2.826-10.21-.802-1.51 2.025-3.523 3.037-6.038 3.542-9.632 2.653-8.529 18.519-4.529 20.241 6.482 2.5 8.564 15.252-.534 15.298-9.561.228-16.456-.654-20.481-4.702-4.026-4.048-8.479-10.827-9.678-18.693-1.053-6.911-4.689-15.712-9.528-19.647 2.785-1.039 4.958-.375 5.859-.209-1.865-4.397-.019-85.8-7.399-98.553-1.51-5.06 9.056-4.048 12.578 4.049 3.522 8.095 8.051 97.662 8.555 102.216.502 4.554 2.068-1.344 4.528-3.159-1.276-5.572 1.001-8.966 4.528-9.707-.208-4.855 5.001-5.714 7.547-4.845-.3-3.246 3.345-4.559 7.045-3.542 1.92-3.813 7.761-4.467 9.266-2.203 2.57-3.103 5.772-.746 6.835 1.191 2.663-2.714 9.378-4.851 9.118-.531-.862 6.274 4.136 19.576 8.614 22.439z" fill="none" stroke="#000" stroke-width=".625" transform="translate(719.5127 211.3926)"/><path d="m0 0c.178-10.733-.178-60.827-2.489-65.121" fill="#ed2939" stroke="#000" stroke-width=".625" transform="translate(672.4521 194.7021)"/><path d="m0 0c1.423 8.409.355 47.231.355 47.231" fill="#ed2939" stroke="#000" stroke-width=".625" transform="translate(684.0156 143.3564)"/><path d="m0 0c.711 7.156.533 31.308.533 31.308" fill="#ed2939" stroke="#000" stroke-width=".625" transform="translate(694.0576 156.7754)"/><path d="m0 0c.533 6.619-.535 22.899-.535 22.899" fill="#ed2939" stroke="#000" stroke-width=".625" transform="translate(703.4863 165.0049)"/><path d="m0 0c-2.134 5.546 0 23.079 0 23.079" fill="#ed2939" stroke="#000" stroke-width=".625" transform="translate(758.8096 165.1836)"/><path d="m0 0c-2.489 5.546-.711 30.414-.711 30.414" fill="#ed2939" stroke="#000" stroke-width=".625" transform="translate(768.0605 156.7754)"/><path d="m0 0c-2.49 8.588 0 47.231 0 47.231" fill="#ed2939" stroke="#000" stroke-width=".625" transform="translate(778.9121 141.9258)"/><path d="m0 0c-2.846 8.767-2.615 66.182-2.615 66.182" fill="#ed2939" stroke="#000" stroke-width=".625" transform="translate(792.7871 130.4756)"/><path d="m0 0c0-2.301-1.531-4.565-2.863-6.312-.214-.282.634.306.962.438 1.458.594 2.934 1.066 4.358 1.876.598.339.819.222 1.142.837" fill="none" stroke="#000" stroke-width="2.104" transform="translate(671.2871 81.1084)"/><path d="m0 0c2.229-.561 4.382-2.16 5.543-4.149" fill="#f00" stroke="#000" stroke-width="2.104" transform="translate(686.0518 74.4893)"/><path d="m0 0c.876 12.352.7 37.894-.024 41.294" fill="#ed2939" stroke="#000" stroke-width=".625" transform="translate(664.8994 158.5947)"/><path d="m0 0c-.219-10.808-1.38-37.06 1.472-45.441" fill="#ed2939" stroke="#000" stroke-width=".625" transform="translate(796.3311 202.4922)"/><path d="m0 0c6.142-9.484 9.431-16.982 11.185-22.056 1.755-5.073 5.702-7.719 11.405-9.263 4.97-1.154 7.817-5.414 6.209-8.853-11.807 8.127-25.421 6.839-29.236-.852-2.414 4.632.876 6.837 3.728 8.601 2.85 1.766 5.92 2.869 2.851 7.721-3.071 4.851-16.26 20.273-19.112 24.022-1.654 1.886 1.543 7.457 2.421 10.988 2.867-4.375 10.549-10.528 10.549-10.308" fill="#ed2939" transform="translate(767.5371 121.2598)"/><path d="m0 0c6.142-9.484 9.431-16.982 11.185-22.056 1.755-5.073 5.702-7.719 11.405-9.263 4.97-1.154 7.817-5.414 6.209-8.853-11.807 8.127-25.421 6.839-29.236-.852-2.414 4.632.876 6.837 3.728 8.601 2.85 1.766 5.92 2.869 2.851 7.721-3.071 4.851-16.26 20.273-19.112 24.022-1.654 1.886 1.543 7.457 2.421 10.988 2.867-4.375 10.549-10.528 10.549-10.308z" fill="none" stroke="#000" stroke-width=".625" transform="translate(767.5371 121.2598)"/><path d="m0 0c-7.677-7.059-16.888-20.292-18.203-22.938-1.317-2.648-1.535-4.853.877-6.838 2.413-1.985 6.914-6.632 5.162-9.493-10.912 9.604-18.102 8.389-28.848.891-2.193 3.087-.439 7.058 3.729 8.823 4.145 1.458 7.677.441 11.184 5.292 3.51 4.854 10.528 23.601 12.94 26.247 3.728 1.986 8.346 6.955 11.197 8.059 1.535-2.647 3.464-9.445 3.024-9.226z" fill="#ed2939" transform="translate(707.2266 119.7168)"/><path d="m0 0c-7.677-7.059-16.888-20.292-18.203-22.938-1.317-2.648-1.535-4.853.877-6.838 2.413-1.985 6.914-6.632 5.162-9.493-10.912 9.604-18.102 8.389-28.848.891-2.193 3.087-.439 7.058 3.729 8.823 4.145 1.458 7.677.441 11.184 5.292 3.51 4.854 10.528 23.601 12.94 26.247 3.728 1.986 8.346 6.955 11.197 8.059 1.535-2.647 3.464-9.445 3.024-9.226z" fill="none" stroke="#000" stroke-width=".625" transform="translate(707.2266 119.7168)"/><path d="m0 0c-.617 2.997-1.278 11.15-1.374 13.793.849.24 3.717-12.341 3.717-12.341l1.535 14.01 2.913-13.415 2.027 14.053 2.471-13.771 2.925 13.645 1.365-13.662 3.814 13.474.091-13.801 4.762 12.285-.182-13.373s4.125 10.979 4.628 10.5c-.44-2.362-2.337-11.237-3.656-13.256-5.482 1.544-25.036 1.859-25.036 1.859" fill="#ed2939" transform="translate(718.5127 258.7959)"/><path d="m0 0c-.617 2.997-1.278 11.15-1.374 13.793.849.24 3.717-12.341 3.717-12.341l1.535 14.01 2.913-13.415 2.027 14.053 2.471-13.771 2.925 13.645 1.365-13.662 3.814 13.474.091-13.801 4.762 12.285-.182-13.373s4.125 10.979 4.628 10.5c-.44-2.362-2.337-11.237-3.656-13.256-5.482 1.544-25.036 1.859-25.036 1.859z" fill="none" stroke="#000" stroke-width=".625" transform="translate(718.5127 258.7959)"/><path d="m0 0c1.974-6.176 8.334-3.75 8.992-.441.657 1.764-5.482.441-8.992.441" fill="#ed2939" transform="translate(718.4111 253.4365)"/><path d="m0 0c1.974-6.176 8.334-3.75 8.992-.441.657 1.764-5.482.441-8.992.441z" fill="none" stroke="#000" stroke-width=".625" transform="translate(718.4111 253.4365)"/><path d="m0 0c3.736 4.473 14.943 6.262 19.925 2.325 4.98-3.934 7.115-5.366 11.385-5.724 1.245 6.619 7.65 13.954 7.472 16.102-5.514 6.977-5.694 10.913-9.073 12.88-2.718 1.438-5.326 1.73-6.582 7.515-3.368 15.506-24.728 6.976-25.44 2.683-.833-3.862-.889-6.261-6.225-11.093-5.337-4.829-8.539-8.944-6.404-14.849 2.134-5.903-.712-14.312 6.582-14.133 4.98 1.073 8.36 4.294 8.36 4.294" transform="translate(720.207 49.2637)"/><path d="m0 0c3.736 4.473 14.943 6.262 19.925 2.325 4.98-3.934 7.115-5.366 11.385-5.724 1.245 6.619 7.65 13.954 7.472 16.102-5.514 6.977-5.694 10.913-9.073 12.88-2.718 1.438-5.326 1.73-6.582 7.515-3.368 15.506-24.728 6.976-25.44 2.683-.833-3.862-.889-6.261-6.225-11.093-5.337-4.829-8.539-8.944-6.404-14.849 2.134-5.903-.712-14.312 6.582-14.133 4.98 1.073 8.36 4.294 8.36 4.294z" fill="none" stroke="#000" stroke-width="2.104" transform="translate(720.207 49.2637)"/><path d="m0 0c-.533 7.872-4.439 15.258-10.139 16.639-3.75 1.059-4.626 6.62-7.471 10.198-2.847 3.578-18.679 5.367-20.637 1.073-1.956-4.294-2.313-6.44-4.624-8.588-2.314-2.146-3.38-4.829-6.048-13.059-11.386-15.923-10.039-19.829 0-11.808 2.946 2.355 18.5 3.936 21.346.716 3.736-4.831 12.808-7.156 16.723-2.327 2.49 2.327 7.649 4.294 10.85 7.156" transform="translate(808.9756 55.3457)"/><g fill="none"><path d="m0 0c-.533 7.872-4.439 15.258-10.139 16.639-3.75 1.059-4.626 6.62-7.471 10.198-2.847 3.578-18.679 5.367-20.637 1.073-1.956-4.294-2.313-6.44-4.624-8.588-2.314-2.146-3.38-4.829-6.048-13.059-11.386-15.923-10.039-19.829 0-11.808 2.946 2.355 18.5 3.936 21.346.716 3.736-4.831 12.808-7.156 16.723-2.327 2.49 2.327 7.649 4.294 10.85 7.156z" stroke="#000" stroke-width="2.104" transform="translate(808.9756 55.3457)"/><path d="m0 0c-.353-2.933-4.15-5.937-6.659-7.065-.215-.096-.434-.185-.651-.279" stroke="#000" stroke-width="2.104" transform="translate(786.0293 66.2607)"/><path d="m0 0c1.239-2.493 1.666-3.465 3.687-5.664 2.104-2.29 4.424-4.741 7.04-6.392.253-.159.404-.132.7-.108" stroke="#000" stroke-width="2.104" transform="translate(796.3457 67.8701)"/><path d="m0 0c1.353-1.814 5.615-5.837 1.79-7.461-1.547-.658-2.639-1.121-4.348-1.126" stroke="#000" stroke-width="2.104" transform="translate(718.9619 74.668)"/><path d="m0 0c1.425-2.866 4.086-4.444 6.425-6.45" stroke="#000" stroke-width="2.104" transform="translate(725.7227 60.7139)"/><path d="m0 0c2.106 0 8.771 3.727 10.968 4.704.005.003-.297-.371-1.096-1.353-2.132-2.625-2.782-5.861-4.375-8.752" stroke="#000" stroke-width="2.104" transform="translate(659.5459 56.2412)"/><path d="m0 0c5.888 4.9 12.305 3.004 17.543-1.836" stroke="#002395" stroke-linecap="square" stroke-width="7.75" transform="translate(645.4043 50.708)"/><path d="m0 0c-6.299-6.521-12.597-6.602-19.662-.081" stroke="#002395" stroke-linecap="square" stroke-width="7.75" transform="translate(682.5879 48.957)"/><path d="m0 0c6.256 6.604 12.469 6.562 19.533.041" stroke="#002395" stroke-linecap="square" stroke-width="7.75" transform="translate(682.5195 48.9785)"/><path d="m0 0c-6.299-6.521-12.597-6.602-19.661-.081" stroke="#002395" stroke-linecap="square" stroke-width="7.75" transform="translate(721.6924 49.1055)"/><path d="m0 0c6.256 6.602 12.47 6.561 19.534.04" stroke="#002395" stroke-linecap="square" stroke-width="7.75" transform="translate(721.624 49.127)"/><path d="m0 0c-6.299-6.521-12.598-6.602-19.662-.081" stroke="#002395" stroke-linecap="square" stroke-width="7.75" transform="translate(760.7988 49.252)"/><path d="m0 0c6.255 6.602 12.469 6.562 19.533.041" stroke="#002395" stroke-linecap="square" stroke-width="7.75" transform="translate(760.7305 49.2734)"/><path d="m0 0c-6.299-6.521-12.597-6.603-19.661-.081" stroke="#002395" stroke-linecap="square" stroke-width="7.75" transform="translate(799.9033 49.3994)"/><path d="m0 0c2.417 2.557 5.526 4.824 9.172 4.937" stroke="#002395" stroke-linecap="square" stroke-width="7.75" transform="translate(799.835 49.4199)"/></g><path d="m0 0c-2.322-1.167-7.046-5.138-5.825-4.187" fill="#ed2939" stroke="#000" stroke-width=".625" transform="translate(743.8271 211.8721)"/><path d="m0 0c0-3.938.415.307-.908-6.245" fill="#ed2939" stroke="#000" stroke-width=".625" transform="translate(783.5957 193.541)"/><path d="m0 0c-1.699-3.416-.881-.684-.836-6.831-.001.219.005-.438.006-.656" fill="#ed2939" stroke="#000" stroke-width=".625" transform="translate(772.8262 187.709)"/><path d="m0 0c-.052-2.559-.104-9.557.156-10.383" fill="#ed2939" stroke="#000" stroke-width=".625" transform="translate(762.1582 187.7607)"/><path d="m0 0c0-1.376-.207-7.386-.207-7.98" fill="#ed2939" stroke="#000" stroke-width=".625" transform="translate(753.666 187.709)"/><path d="m0 0c1.657-5.655.725-22.748-.064-26.764" fill="#ed2939" stroke="#000" stroke-width=".625" transform="translate(678.1777 194.375)"/><path d="m0 0c1.115-3.364.199-7.407.104-10.938" fill="#ed2939" stroke="#000" stroke-width=".625" transform="translate(689.1455 187.709)"/><path d="m0 0c.726-2.292.104-5.834.104-9.063" fill="#ed2939" stroke="#000" stroke-width=".625" transform="translate(698.2588 186.9795)"/><path d="m0 0v-6.859" fill="#ed2939" stroke="#000" stroke-width=".625" transform="translate(706.5439 186.876)"/><path d="m0 0c6.191 4.901 12.938 3.005 18.446-1.835" fill="none" stroke="#fff" stroke-linecap="square" stroke-width="7.75" transform="translate(640.7119 38.1289)"/><path d="m0 0c-6.623-6.521-13.246-6.602-20.675-.081" fill="none" stroke="#fff" stroke-linecap="square" stroke-width="7.75" transform="translate(679.8105 36.3789)"/><path d="m0 0c6.578 6.604 13.111 6.562 20.539.041" fill="none" stroke="#fff" stroke-linecap="square" stroke-width="7.75" transform="translate(679.7383 36.4004)"/><path d="m0 0c-6.622-6.521-13.245-6.602-20.673-.081" fill="none" stroke="#fff" stroke-linecap="square" stroke-width="7.75" transform="translate(720.9287 36.5273)"/><path d="m0 0c6.578 6.603 13.112 6.562 20.54.041" fill="none" stroke="#fff" stroke-linecap="square" stroke-width="7.75" transform="translate(720.8574 36.5479)"/><path d="m0 0c-6.623-6.521-13.245-6.602-20.674-.081" fill="none" stroke="#fff" stroke-linecap="square" stroke-width="7.75" transform="translate(762.0488 36.6738)"/><path d="m0 0c6.578 6.602 13.111 6.562 20.541.041" fill="none" stroke="#fff" stroke-linecap="square" stroke-width="7.75" transform="translate(761.9766 36.6953)"/><path d="m0 0c-6.623-6.521-13.246-6.603-20.673-.082" fill="none" stroke="#fff" stroke-linecap="square" stroke-width="7.75" transform="translate(803.168 36.8213)"/><path d="m0 0c2.542 2.557 5.812 4.823 9.645 4.937" fill="none" stroke="#fff" stroke-linecap="square" stroke-width="7.75" transform="translate(803.0957 36.8418)"/><path d="m0 0v-600" fill="none" stroke="#960" stroke-width="2" transform="translate(551.8291 600)"/><path d="m0 0h348.171" fill="none" stroke="#960" stroke-width="2" transform="translate(551.8291 300)"/></g></g></svg>