<?xml version="1.0" encoding="UTF-8" standalone="no"?>
<!-- Created with Inkscape (http://www.inkscape.org/) -->
<svg
   xmlns:dc="http://purl.org/dc/elements/1.1/"
   xmlns:cc="http://web.resource.org/cc/"
   xmlns:rdf="http://www.w3.org/1999/02/22-rdf-syntax-ns#"
   xmlns:svg="http://www.w3.org/2000/svg"
   xmlns="http://www.w3.org/2000/svg"
   xmlns:sodipodi="http://sodipodi.sourceforge.net/DTD/sodipodi-0.dtd"
   xmlns:inkscape="http://www.inkscape.org/namespaces/inkscape"
   width="1050"
   height="700"
   id="svg4677"
   sodipodi:version="0.32"
   inkscape:version="0.44"
   version="1.0"
   sodipodi:docbase="C:\flags"
   sodipodi:docname="Flag of CANU.svg">
  <defs
     id="defs4679" />
  <sodipodi:namedview
     id="base"
     pagecolor="#ffffff"
     bordercolor="#666666"
     borderopacity="1.0"
     gridtolerance="10000"
     guidetolerance="10"
     objecttolerance="10"
     inkscape:pageopacity="0.0"
     inkscape:pageshadow="2"
     inkscape:zoom="0.35"
     inkscape:cx="375"
     inkscape:cy="447.99855"
     inkscape:document-units="px"
     inkscape:current-layer="layer1"
     height="700px"
     width="1050px"
     inkscape:window-width="847"
     inkscape:window-height="579"
     inkscape:window-x="22"
     inkscape:window-y="29" />
  <metadata
     id="metadata4682">
    <rdf:RDF>
      <cc:Work
         rdf:about="">
        <dc:format>image/svg+xml</dc:format>
        <dc:type
           rdf:resource="http://purl.org/dc/dcmitype/StillImage" />
      </cc:Work>
    </rdf:RDF>
  </metadata>
  <g
     inkscape:label="Layer 1"
     inkscape:groupmode="layer"
     id="layer1">
    <g
       id="g4740">
      <rect
         y="500"
         x="0"
         height="200"
         width="1050"
         id="rect4726"
         style="fill:#0c0;fill-opacity:1;stroke:none;stroke-width:30;stroke-miterlimit:4;stroke-dasharray:none;stroke-opacity:1" />
      <rect
         y="450"
         x="0"
         height="50"
         width="1050"
         id="rect4729"
         style="fill:red;fill-opacity:1;stroke:none;stroke-width:30;stroke-miterlimit:4;stroke-dasharray:none;stroke-opacity:1" />
      <rect
         y="250.00002"
         x="0"
         height="200"
         width="1050"
         id="rect4731"
         style="fill:white;fill-opacity:1;stroke:none;stroke-width:30;stroke-miterlimit:4;stroke-dasharray:none;stroke-opacity:1" />
      <rect
         y="200"
         x="0"
         height="50"
         width="1050"
         id="rect4733"
         style="fill:red;fill-opacity:1;stroke:none;stroke-width:30;stroke-miterlimit:4;stroke-dasharray:none;stroke-opacity:1" />
      <rect
         y="0"
         x="0"
         height="200"
         width="1050"
         id="rect4735"
         style="fill:#39f;fill-opacity:1;stroke:none;stroke-width:30;stroke-miterlimit:4;stroke-dasharray:none;stroke-opacity:1" />
    </g>
    <path
       style="fill:#666;fill-opacity:1;stroke:none"
       id="path4668"
       d="M 515.49403,224.35197 C 520.25467,229.74736 520.57204,231.96901 517.71568,238.95128 C 512.95502,248.78997 512.95502,270.37158 517.08091,278.62337 C 521.84156,287.19253 512.95502,298.61812 495.49931,307.18728 C 484.70849,312.58268 477.7262,313.53479 461.54001,312.58268 C 436.14986,310.99579 427.26332,304.96565 412.3466,278.94076 C 386.95647,235.14277 371.08764,224.35197 339.66734,229.11261 C 320.30737,231.96901 316.18148,234.50801 302.85166,251.96373 C 294.59986,263.07191 291.74347,269.73682 291.74347,278.94076 C 291.74347,292.58795 294.59986,296.39649 328.24179,325.27776 L 344.11062,338.92494 L 328.55916,328.45152 C 319.67262,322.73874 306.66018,312.26532 299.04313,304.96565 C 287.93494,294.49221 285.39594,290.04895 285.39594,280.52763 C 285.39594,274.49746 286.66546,265.61094 288.5697,261.16765 C 291.4261,253.23324 291.4261,253.23324 278.09628,254.82012 C 269.84446,256.08964 256.19728,254.50274 243.18485,251.32897 C 203.83013,241.49031 185.1049,250.69422 166.06231,289.41418 C 155.58889,310.67842 154.63674,314.80434 156.22364,330.99053 C 157.81051,346.542 156.85839,351.62001 148.92397,368.12359 C 143.84594,378.91442 140.03741,388.11834 140.67216,388.75309 C 142.57643,390.65737 158.44526,370.02787 158.44526,365.26723 C 158.44526,362.7282 159.71477,360.82394 161.61904,360.82394 C 165.42755,360.82394 167.3318,373.20164 169.55346,414.77798 C 172.09247,458.89334 171.77509,457.94118 187.96131,457.62382 L 201.29113,457.30645 L 203.51276,437.94646 C 204.78226,427.15568 209.54292,409.38256 213.98619,398.27439 C 218.74683,387.1662 225.41174,370.6626 228.90289,361.45869 C 236.83731,341.78134 238.74158,341.46398 233.98092,360.50657 C 231.44189,370.6626 231.44189,375.74065 233.98092,380.18391 C 237.15468,384.94456 236.51992,385.89671 228.90289,386.84883 C 217.47732,388.11834 216.5252,398.59177 224.77701,424.61664 C 228.58552,435.40746 231.44189,447.78516 231.44189,451.91106 C 231.44189,458.57595 232.71143,459.21071 246.04123,459.21071 L 260.95794,459.21071 L 259.05367,447.1504 C 253.65827,411.60421 250.16713,397.63964 246.04123,392.87898 C 241.91534,388.11834 242.86746,387.80097 257.1494,388.75309 C 272.3835,390.02259 273.01824,389.70521 277.46152,378.59703 C 280.00055,372.56688 282.22216,363.36295 282.53953,358.6023 C 283.17431,341.46398 292.06083,407.16094 292.6956,433.82057 L 293.33036,460.79759 L 305.0733,461.43235 C 315.54674,462.06711 317.45097,461.11494 319.03786,454.13268 C 319.99001,450.00678 320.30737,443.34188 319.03786,439.21599 C 317.45097,433.18583 322.52901,403.6698 329.51131,380.18391 C 334.58933,362.7282 337.7631,371.93213 338.08046,405.25668 C 338.39786,424.29927 339.66734,445.24613 340.61949,451.27628 C 342.84111,462.38447 343.15851,462.70184 356.17094,461.74973 C 371.08764,460.48022 371.40501,459.21071 365.05747,435.40746 C 360.29683,416.99961 360.61422,371.93213 366.00963,359.55444 C 375.53093,336.70334 374.89617,322.10398 363.47059,286.2404 C 362.2011,282.74928 366.32701,290.04895 372.35717,302.74402 C 381.24371,321.46922 385.05222,325.9125 392.35189,327.4994 C 397.11255,328.76891 412.3466,332.26003 425.67644,335.75118 C 439.32364,338.92494 453.60558,341.78134 457.73149,341.78134 C 470.42655,341.78134 470.42655,337.33806 457.73149,333.52956 L 445.67117,329.72103 L 459.9531,329.40364 C 477.7262,328.76891 496.76879,320.51709 512.95502,305.6004 L 525.6501,294.49221 L 532.31498,303.37876 C 541.51892,316.07383 569.13071,329.08628 586.58641,329.08628 C 597.37722,329.08628 599.91621,330.0384 596.42508,332.26003 C 593.88608,333.84692 588.17331,335.4338 584.04737,335.4338 C 578.01725,335.4338 577.0651,336.38593 579.92149,339.24232 C 583.73001,343.05087 589.44279,342.4161 639.5883,331.62528 C 665.93058,325.9125 667.51747,324.643 678.94302,292.90533 C 680.84728,287.8273 682.75155,284.33617 683.70368,284.97091 C 684.33843,285.92304 683.06892,292.2706 680.52991,298.93549 C 674.49974,316.07383 674.49974,342.09871 680.84728,357.65017 C 684.97319,367.80622 685.60791,377.64489 684.33843,405.89142 C 683.38631,425.5688 681.48203,446.19827 680.52991,451.91106 L 678.30826,462.06711 L 691.95545,461.43235 L 705.92004,460.79759 L 707.82428,438.58123 C 709.0938,426.20353 710.04592,405.57404 710.36331,392.56161 C 710.68068,371.61477 711.31546,369.39312 715.12397,374.47113 C 720.83676,382.08819 727.50165,414.77798 727.81904,437.6291 C 728.13641,458.25858 729.40592,460.48022 743.68788,461.43235 L 754.1613,462.06711 L 756.70031,426.52092 C 757.96982,406.84356 759.87407,376.69276 761.14358,359.23707 L 763.04785,327.4994 L 764.95209,352.25476 C 767.49112,383.99243 772.56914,390.65737 793.51598,388.75309 C 807.48058,387.1662 807.79795,387.4836 802.40255,392.87898 C 799.2288,396.05274 796.05502,405.25668 794.78551,413.82585 C 793.51598,422.07764 791.29438,433.18583 789.70749,438.26387 C 783.99469,456.35431 785.58158,459.21071 800.49829,459.21071 L 814.46287,459.21071 L 818.27138,442.38976 C 820.17565,432.86846 824.61892,418.58649 827.79268,410.01734 L 833.50546,394.78325 L 837.63135,405.57404 C 839.853,411.60421 842.39201,425.5688 843.66153,436.99434 L 845.56577,457.62382 L 859.84773,457.62382 L 874.12968,457.62382 L 879.52509,408.43044 C 882.38146,381.45343 884.92049,358.6023 884.92049,357.65017 C 885.23785,356.69805 887.77687,361.14131 890.31588,367.17147 C 895.71129,379.54917 903.6457,389.38783 908.40636,389.38783 C 910.31062,389.38783 909.35849,386.84883 906.50211,383.67506 C 903.32834,380.50129 901.10669,376.69276 901.10669,375.42327 C 901.10669,374.47113 898.88507,368.12359 896.02869,361.45869 C 892.53753,353.84164 890.95064,342.73346 891.26802,330.0384 C 892.22016,307.18728 883.33362,284.33617 866.51262,264.65879 C 850.96119,247.20309 837.63135,244.3467 805.57631,251.32897 C 791.29438,254.18537 775.10816,256.08964 769.39538,255.1375 L 758.92196,253.55062 L 760.50883,272.27583 C 762.73047,293.85746 760.50883,297.3486 729.72329,320.83449 C 695.12922,347.49413 698.93776,341.46398 738.29246,308.13943 C 748.44852,299.57025 755.43079,290.68371 756.70031,284.97091 C 759.23932,272.59322 751.62229,256.08964 736.07083,242.12504 C 722.10625,229.42997 698.93776,224.66933 680.84728,230.6995 C 667.51747,234.82539 647.20534,256.40701 636.73192,277.35386 C 632.28865,285.60567 624.35422,296.71386 618.95882,302.10926 C 610.07229,310.04367 605.94637,311.63056 587.22116,312.58268 C 564.05266,313.85219 547.23171,308.13943 535.1714,294.80959 C 529.77598,289.0968 529.45861,286.55778 532.94974,271.3237 C 536.12352,257.35913 536.12352,252.59849 531.99762,243.0772 C 528.1891,233.5559 528.1891,231.01686 531.68024,225.93885 C 537.07565,218.63918 534.85401,215.78279 528.1891,221.1782 C 524.38059,224.35197 522.15894,224.35197 519.61993,221.81295 C 512.95502,215.14804 509.46386,217.68704 515.49403,224.35197 z M 527.87173,266.56306 C 526.91958,271.3237 524.69797,274.49746 523.11107,273.22798 C 519.61993,271.3237 519.30256,245.61619 522.47632,242.12504 C 525.96745,238.63391 530.09335,256.40701 527.87173,266.56306 z M 404.4122,287.8273 C 403.46007,289.41418 401.23843,291.00107 399.33417,291.00107 C 397.74729,291.00107 396.47777,289.41418 396.47777,287.8273 C 396.47777,285.92304 398.69941,284.65353 401.55579,284.65353 C 404.09483,284.65353 405.36432,285.92304 404.4122,287.8273 z M 651.966,287.8273 C 651.01389,289.41418 648.79225,291.00107 646.88798,291.00107 C 645.30111,291.00107 644.03159,289.41418 644.03159,287.8273 C 644.03159,285.92304 646.25322,284.65353 649.10961,284.65353 C 651.64865,284.65353 652.91813,285.92304 651.966,287.8273 z M 287.61758,339.24232 C 286.66546,341.46398 286.03071,339.8771 286.03071,335.4338 C 286.03071,330.99053 286.66546,329.40364 287.61758,331.30792 C 288.25233,333.52956 288.25233,337.33806 287.61758,339.24232 z M 828.11006,386.53144 C 831.28383,392.87898 831.28383,393.51372 827.79268,390.02259 C 825.57107,388.11834 821.12776,386.21407 817.954,386.21407 C 812.87599,386.21407 812.55859,385.26195 815.73236,379.54917 C 818.27138,374.47113 818.27138,370.6626 815.73236,364.94983 C 813.82811,360.82394 812.24122,354.79377 812.55859,351.9374 C 812.55859,349.08099 815.41498,353.84164 818.58876,362.7282 C 821.76252,371.61477 825.88843,382.40556 828.11006,386.53144 z " />
  </g>
</svg>
