<?xml version="1.0" encoding="UTF-8"?>
<svg xmlns="http://www.w3.org/2000/svg" xmlns:xlink="http://www.w3.org/1999/xlink" width="326pt" height="217pt" viewBox="0 0 326 217" version="1.1">
<defs>
<clipPath id="clip0">
  <rect width="326" height="217"/>
</clipPath>
</defs>
<g id="surface0" clip-path="url(#clip0)">
<path style="fill: none; stroke-width: 0.1; stroke-linecap: butt; stroke-linejoin: miter; stroke: rgb(85.098046%,13.725491%,11.764707%); opacity: 1;stroke-miterlimit: 10;" d="M 0 0 L 326 0 L 326 71.70723 C 296.956497 71.775543 267.913071 71.742767 238.869904 71.722687 C 240.342987 69.356979 241.731247 66.939926 243.120331 64.52359 C 237.701614 64.332581 232.286652 64.07312 226.877228 63.732498 C 228.522232 58.568436 230.321396 53.455841 232.054214 48.320938 C 226.719971 49.494308 221.325287 50.377823 215.889603 50.904388 C 216.296127 45.585785 217.100983 40.312927 217.831543 35.032776 C 212.684509 36.976883 207.614883 39.114441 202.508087 41.157135 C 202.130371 35.75351 201.60173 30.360367 200.867233 24.993591 C 196.215576 27.909927 191.75737 31.117981 187.146881 34.095749 C 185.599365 28.926788 183.939423 23.792358 182.167236 18.69664 C 178.397324 22.588318 174.685638 26.534912 170.955429 30.463654 C 168.173492 25.918045 165.473709 21.323364 162.667206 16.793472 C 159.669327 21.226257 157.009903 25.873352 154.189514 30.417877 C 150.43486 26.529678 146.762711 22.563858 143.020538 18.664719 C 141.261093 23.787415 139.623825 28.950287 137.906296 34.086823 C 133.347305 31.040283 128.85965 27.889145 124.28212 24.871445 C 123.734634 30.25737 123.451065 35.665909 122.857971 41.047714 C 117.722412 39.163513 112.679352 37.043121 107.586044 35.05217 C 107.929443 40.42128 108.601212 45.765274 109.595032 51.053101 C 104.065475 50.327179 98.562469 49.410767 93.123413 48.174438 C 94.833023 53.466446 96.648193 58.726776 98.728088 63.886551 C 93.174896 64.123825 87.619797 64.306046 82.0634 64.419098 C 83.462662 66.84227 84.850632 69.272675 86.308151 71.662888 C 57.539612 71.815247 28.769028 71.746735 0 71.698746 L 0 0 Z M 0 0 " transform="matrix(1,0,0,1,0,0)"/>
<path style="stroke: none; fill-rule: nonzero; fill: rgb(85.098046%,13.725491%,11.764707%); opacity: 1;" d="M 0 0 L 326 0 L 326 71.70723 C 296.956497 71.775543 267.913071 71.742767 238.869904 71.722687 C 240.342987 69.356979 241.731247 66.939926 243.120331 64.52359 C 237.701614 64.332581 232.286652 64.07312 226.877228 63.732498 C 228.522232 58.568436 230.321396 53.455841 232.054214 48.320938 C 226.719971 49.494308 221.325287 50.377823 215.889603 50.904388 C 216.296127 45.585785 217.100983 40.312927 217.831543 35.032776 C 212.684509 36.976883 207.614883 39.114441 202.508087 41.157135 C 202.130371 35.75351 201.60173 30.360367 200.867233 24.993591 C 196.215576 27.909927 191.75737 31.117981 187.146881 34.095749 C 185.599365 28.926788 183.939423 23.792358 182.167236 18.69664 C 178.397324 22.588318 174.685638 26.534912 170.955429 30.463654 C 168.173492 25.918045 165.473709 21.323364 162.667206 16.793472 C 159.669327 21.226257 157.009903 25.873352 154.189514 30.417877 C 150.43486 26.529678 146.762711 22.563858 143.020538 18.664719 C 141.261093 23.787415 139.623825 28.950287 137.906296 34.086823 C 133.347305 31.040283 128.85965 27.889145 124.28212 24.871445 C 123.734634 30.25737 123.451065 35.665909 122.857971 41.047714 C 117.722412 39.163513 112.679352 37.043121 107.586044 35.05217 C 107.929443 40.42128 108.601212 45.765274 109.595032 51.053101 C 104.065475 50.327179 98.562469 49.410767 93.123413 48.174438 C 94.833023 53.466446 96.648193 58.726776 98.728088 63.886551 C 93.174896 64.123825 87.619797 64.306046 82.0634 64.419098 C 83.462662 66.84227 84.850632 69.272675 86.308151 71.662888 C 57.539612 71.815247 28.769028 71.746735 0 71.698746 L 0 0 Z M 0 0 "/>
<path style="fill: none; stroke-width: 0.1; stroke-linecap: butt; stroke-linejoin: miter; stroke: rgb(95.686281%,77.647066%,1.960784%); opacity: 1;stroke-miterlimit: 10;" d="M 154.189514 30.417877 C 157.009903 25.873352 159.669327 21.226257 162.667206 16.793472 C 165.473709 21.323364 168.173492 25.918045 170.955429 30.463654 C 174.685638 26.534912 178.397324 22.588318 182.167236 18.69664 C 183.939423 23.792358 185.599365 28.926788 187.146881 34.095749 C 191.75737 31.117981 196.215576 27.909927 200.867233 24.993591 C 201.60173 30.360367 202.130371 35.75351 202.508087 41.157135 C 207.614883 39.114441 212.684509 36.976883 217.831543 35.032776 C 217.100983 40.312927 216.296127 45.585785 215.889603 50.904388 C 221.325287 50.377823 226.719971 49.494308 232.054214 48.320938 C 230.321396 53.455841 228.522232 58.568436 226.877228 63.732498 C 232.286652 64.07312 237.701614 64.332581 243.120331 64.52359 C 241.731247 66.939926 240.342987 69.356979 238.869904 71.722687 C 237.37175 74.109375 235.825943 76.464935 234.296616 78.830795 C 239.644089 79.926941 244.889511 81.443741 250.169434 82.821365 C 246.601624 86.950226 242.747299 90.816101 239.038361 94.814926 C 243.789459 97.230972 248.527206 99.676285 253.194077 102.255646 C 249.030167 105.594116 244.482727 108.399048 240.038712 111.337906 C 243.969055 115.04866 248.281418 118.323883 252.247314 121.997559 C 247.26329 124.017197 242.079514 125.668915 237.490204 128.531448 C 240.886063 132.655701 244.283218 136.798523 247.186676 141.293945 C 241.878113 141.74202 236.578461 142.594696 231.517365 144.292999 C 233.619186 149.05307 235.815704 153.772842 238.16777 158.416519 C 232.770935 157.723419 227.32663 157.546509 221.892273 157.645966 C 222.870148 162.753189 224.008392 167.828964 224.937653 172.947113 C 219.747574 171.577606 214.582077 170.115097 209.356049 168.892456 C 209.519119 174.154984 209.521576 179.423782 209.241684 184.684113 C 204.565384 182.376709 199.996368 179.854843 195.250092 177.693924 C 193.842712 182.806 192.736404 187.992142 191.697113 193.190491 C 187.49501 189.797318 183.453796 186.21286 179.278534 182.789658 C 176.975403 187.541595 174.781357 192.345154 172.556305 197.134537 C 169.045303 193.168365 165.906876 188.895355 162.732605 184.66246 C 159.191406 188.707352 156.043625 193.070343 152.81424 197.362442 C 150.419098 192.540924 148.192673 187.639542 145.979401 182.734299 C 141.837372 186.186356 137.75293 189.707947 133.539337 193.073578 C 132.377914 187.844711 131.196976 182.62114 130.044067 177.391891 C 125.232178 179.869995 120.503662 182.503708 115.732864 185.05864 C 115.51738 179.675217 115.579376 174.287811 115.729828 168.905121 C 110.383179 170.171829 105.0914 171.678802 99.924438 173.552231 C 101.160706 168.270218 102.345505 162.976486 103.457932 157.667908 C 97.931442 157.509384 92.39624 157.716446 86.911789 158.428711 C 89.237762 153.817215 91.721741 149.275558 93.706665 144.502228 L 93.961853 143.848953 C 88.676895 142.562836 83.290161 141.765976 77.887955 141.17717 C 81.106644 136.693237 84.578049 132.401764 87.930206 128.01944 C 82.948456 125.963654 77.925415 124.011108 72.896317 122.076828 C 76.833496 118.303391 81.166412 114.977112 85.200516 111.311295 C 80.723083 108.330826 76.16275 105.468048 71.841034 102.262222 C 76.561096 99.726974 81.328644 97.282043 86.082703 94.811249 C 82.485519 90.696228 78.617691 86.832703 74.889557 82.839783 C 80.183426 81.441162 85.461548 79.973969 90.825485 78.857666 C 89.329605 76.452438 87.782181 74.080292 86.308151 71.662888 C 84.850632 69.272675 83.462662 66.84227 82.0634 64.419098 C 87.619797 64.306046 93.174896 64.123825 98.728088 63.886551 C 96.648193 58.726776 94.833023 53.466446 93.123413 48.174438 C 98.562469 49.410767 104.065475 50.327179 109.595032 51.053101 C 108.601212 45.765274 107.929443 40.42128 107.586044 35.05217 C 112.679352 37.043121 117.722412 39.163513 122.857971 41.047714 C 123.451065 35.665909 123.734634 30.25737 124.28212 24.871445 C 128.85965 27.889145 133.347305 31.040283 137.906296 34.086823 C 139.623825 28.950287 141.261093 23.787415 143.020538 18.664719 C 146.762711 22.563858 150.43486 26.529678 154.189514 30.417877 Z M 154.189514 30.417877 " transform="matrix(1,0,0,1,0,0)"/>
<path style="stroke: none; fill-rule: nonzero; fill: rgb(95.686281%,77.647066%,1.960784%); opacity: 1;" d="M 154.189514 30.417877 C 157.009903 25.873352 159.669327 21.226257 162.667206 16.793472 C 165.473709 21.323364 168.173492 25.918045 170.955429 30.463654 C 174.685638 26.534912 178.397324 22.588318 182.167236 18.69664 C 183.939423 23.792358 185.599365 28.926788 187.146881 34.095749 C 191.75737 31.117981 196.215576 27.909927 200.867233 24.993591 C 201.60173 30.360367 202.130371 35.75351 202.508087 41.157135 C 207.614883 39.114441 212.684509 36.976883 217.831543 35.032776 C 217.100983 40.312927 216.296127 45.585785 215.889603 50.904388 C 221.325287 50.377823 226.719971 49.494308 232.054214 48.320938 C 230.321396 53.455841 228.522232 58.568436 226.877228 63.732498 C 232.286652 64.07312 237.701614 64.332581 243.120331 64.52359 C 241.731247 66.939926 240.342987 69.356979 238.869904 71.722687 C 237.37175 74.109375 235.825943 76.464935 234.296616 78.830795 C 239.644089 79.926941 244.889511 81.443741 250.169434 82.821365 C 246.601624 86.950226 242.747299 90.816101 239.038361 94.814926 C 243.789459 97.230972 248.527206 99.676285 253.194077 102.255646 C 249.030167 105.594116 244.482727 108.399048 240.038712 111.337906 C 243.969055 115.04866 248.281418 118.323883 252.247314 121.997559 C 247.26329 124.017197 242.079514 125.668915 237.490204 128.531448 C 240.886063 132.655701 244.283218 136.798523 247.186676 141.293945 C 241.878113 141.74202 236.578461 142.594696 231.517365 144.292999 C 233.619186 149.05307 235.815704 153.772842 238.16777 158.416519 C 232.770935 157.723419 227.32663 157.546509 221.892273 157.645966 C 222.870148 162.753189 224.008392 167.828964 224.937653 172.947113 C 219.747574 171.577606 214.582077 170.115097 209.356049 168.892456 C 209.519119 174.154984 209.521576 179.423782 209.241684 184.684113 C 204.565384 182.376709 199.996368 179.854843 195.250092 177.693924 C 193.842712 182.806 192.736404 187.992142 191.697113 193.190491 C 187.49501 189.797318 183.453796 186.21286 179.278534 182.789658 C 176.975403 187.541595 174.781357 192.345154 172.556305 197.134537 C 169.045303 193.168365 165.906876 188.895355 162.732605 184.66246 C 159.191406 188.707352 156.043625 193.070343 152.81424 197.362442 C 150.419098 192.540924 148.192673 187.639542 145.979401 182.734299 C 141.837372 186.186356 137.75293 189.707947 133.539337 193.073578 C 132.377914 187.844711 131.196976 182.62114 130.044067 177.391891 C 125.232178 179.869995 120.503662 182.503708 115.732864 185.05864 C 115.51738 179.675217 115.579376 174.287811 115.729828 168.905121 C 110.383179 170.171829 105.0914 171.678802 99.924438 173.552231 C 101.160706 168.270218 102.345505 162.976486 103.457932 157.667908 C 97.931442 157.509384 92.39624 157.716446 86.911789 158.428711 C 89.237762 153.817215 91.721741 149.275558 93.706665 144.502228 L 93.961853 143.848953 C 88.676895 142.562836 83.290161 141.765976 77.887955 141.17717 C 81.106644 136.693237 84.578049 132.401764 87.930206 128.01944 C 82.948456 125.963654 77.925415 124.011108 72.896317 122.076828 C 76.833496 118.303391 81.166412 114.977112 85.200516 111.311295 C 80.723083 108.330826 76.16275 105.468048 71.841034 102.262222 C 76.561096 99.726974 81.328644 97.282043 86.082703 94.811249 C 82.485519 90.696228 78.617691 86.832703 74.889557 82.839783 C 80.183426 81.441162 85.461548 79.973969 90.825485 78.857666 C 89.329605 76.452438 87.782181 74.080292 86.308151 71.662888 C 84.850632 69.272675 83.462662 66.84227 82.0634 64.419098 C 87.619797 64.306046 93.174896 64.123825 98.728088 63.886551 C 96.648193 58.726776 94.833023 53.466446 93.123413 48.174438 C 98.562469 49.410767 104.065475 50.327179 109.595032 51.053101 C 108.601212 45.765274 107.929443 40.42128 107.586044 35.05217 C 112.679352 37.043121 117.722412 39.163513 122.857971 41.047714 C 123.451065 35.665909 123.734634 30.25737 124.28212 24.871445 C 128.85965 27.889145 133.347305 31.040283 137.906296 34.086823 C 139.623825 28.950287 141.261093 23.787415 143.020538 18.664719 C 146.762711 22.563858 150.43486 26.529678 154.189514 30.417877 Z M 154.189514 30.417877 "/>
<path style="fill: none; stroke-width: 0.1; stroke-linecap: butt; stroke-linejoin: miter; stroke: rgb(85.098046%,13.725491%,11.764707%); opacity: 1;stroke-miterlimit: 10;" d="M 159.946945 39.296005 C 161.013702 36.026245 162.180237 32.774124 163.728592 29.696823 C 164.915985 32.746765 165.548492 36.074081 167.357071 38.84552 C 170.487411 39.911011 173.912094 39.377853 177.169891 39.584763 C 174.668488 42.095688 172.034454 44.467575 169.450424 46.890686 C 170.317474 50.207489 171.243149 53.510483 172.012482 56.853027 C 169.466644 55.153702 167.049118 53.238983 164.326355 51.825455 C 163.386795 51.143829 162.397003 52.082764 161.572739 52.471603 C 159.340225 53.816849 157.225967 55.344009 155.087952 56.829773 C 155.876892 53.403122 157.227341 50.030975 157.32283 46.48996 C 154.950439 44.046616 152.176025 42.033569 149.803055 39.588303 C 153.18187 39.440384 156.565323 39.418961 159.946945 39.296005 Z M 159.946945 39.296005 " transform="matrix(1,0,0,1,0,0)"/>
<path style="stroke: none; fill-rule: nonzero; fill: rgb(85.098046%,13.725491%,11.764707%); opacity: 1;" d="M 159.946945 39.296005 C 161.013702 36.026245 162.180237 32.774124 163.728592 29.696823 C 164.915985 32.746765 165.548492 36.074081 167.357071 38.84552 C 170.487411 39.911011 173.912094 39.377853 177.169891 39.584763 C 174.668488 42.095688 172.034454 44.467575 169.450424 46.890686 C 170.317474 50.207489 171.243149 53.510483 172.012482 56.853027 C 169.466644 55.153702 167.049118 53.238983 164.326355 51.825455 C 163.386795 51.143829 162.397003 52.082764 161.572739 52.471603 C 159.340225 53.816849 157.225967 55.344009 155.087952 56.829773 C 155.876892 53.403122 157.227341 50.030975 157.32283 46.48996 C 154.950439 44.046616 152.176025 42.033569 149.803055 39.588303 C 153.18187 39.440384 156.565323 39.418961 159.946945 39.296005 Z M 159.946945 39.296005 "/>
<path style="fill: none; stroke-width: 0.1; stroke-linecap: butt; stroke-linejoin: miter; stroke: rgb(1.960784%,58.039218%,25.882354%); opacity: 1;stroke-miterlimit: 10;" d="M 168.956924 68.370407 C 171.514786 67.340927 173.651123 65.469879 176.258148 64.548019 C 179.306534 64.068527 182.257812 65.271881 185.169983 65.988235 C 187.535812 66.724503 190.095596 67.268112 192.062485 68.870392 C 194.041718 72.704269 193.290375 77.546051 195.822266 81.09903 C 200.174896 82.787598 205.948883 81.287491 209.339462 85.033371 C 210.435852 90.38826 208.140152 95.68782 208.779007 101.010651 C 210.498322 105.869431 216.592911 104.319366 220.084961 106.874725 C 222.278381 111.99144 217.313049 115.855606 214.547577 119.484924 C 213.660049 123.628357 214.321793 127.947968 215.164764 132.053314 C 216.086502 135.579803 214.449081 139.047104 213.126923 142.238113 C 211.699402 144.156357 209.013428 143.425903 206.962189 143.571274 C 203.351547 143.850372 200.982544 139.580017 197.288239 140.528183 C 192.606766 141.952927 188.427902 145.768005 183.207687 144.708893 C 178.513855 143.593643 174.644348 139.677948 169.500763 140.381516 C 169.381516 143.428619 168.84552 146.768112 170.48143 149.533936 C 173.143341 154.086472 177.025146 157.897949 181.708725 160.348953 C 185.78186 162.314514 189.57457 164.864639 192.234604 168.598053 C 180.497864 169.052414 168.749374 169.649414 157.003174 169.07692 C 147.535248 168.256195 138.014694 169.192856 128.541809 168.478928 C 131.8004 165.376007 136.133224 164.022568 139.956161 161.845474 C 143.344513 159.119873 146.829697 156.169617 149.066162 152.400955 C 150.340439 147.49501 151.641403 142.509918 151.644608 137.404877 C 148.065292 137.074203 144.807877 138.386459 141.715057 140.012985 C 137.433929 142.044861 134.224869 136.812424 130.013672 137.270111 C 124.966599 137.081635 120.032272 138.706787 114.996628 138.368225 C 112.286484 137.221878 109.697357 135.28894 108.198257 132.737793 C 107.881195 129.532013 108.939423 126.404434 109.092728 123.221283 C 106.568695 119.55954 101.99234 116.889542 101.771759 112.013733 C 100.956497 105.923431 106.435837 102.025009 110.018829 98.019119 C 112.697388 95.529724 110.646576 91.395554 112.385864 88.448364 C 114.63916 84.43158 118.108841 80.358505 123.063858 80.099838 C 125.397522 79.423096 128.436462 80.219574 130.228622 78.285843 C 131.573578 74.379745 130.758987 68.474167 135.477371 66.743607 C 142.793793 65.484344 150.812088 63.956406 157.811035 67.336456 C 161.245148 69.081772 165.248917 68.783325 168.956924 68.370407 Z M 168.956924 68.370407 " transform="matrix(1,0,0,1,0,0)"/>
<path style="stroke: none; fill-rule: nonzero; fill: rgb(1.960784%,58.039218%,25.882354%); opacity: 1;" d="M 168.956924 68.370407 C 171.514786 67.340927 173.651123 65.469879 176.258148 64.548019 C 179.306534 64.068527 182.257812 65.271881 185.169983 65.988235 C 187.535812 66.724503 190.095596 67.268112 192.062485 68.870392 C 194.041718 72.704269 193.290375 77.546051 195.822266 81.09903 C 200.174896 82.787598 205.948883 81.287491 209.339462 85.033371 C 210.435852 90.38826 208.140152 95.68782 208.779007 101.010651 C 210.498322 105.869431 216.592911 104.319366 220.084961 106.874725 C 222.278381 111.99144 217.313049 115.855606 214.547577 119.484924 C 213.660049 123.628357 214.321793 127.947968 215.164764 132.053314 C 216.086502 135.579803 214.449081 139.047104 213.126923 142.238113 C 211.699402 144.156357 209.013428 143.425903 206.962189 143.571274 C 203.351547 143.850372 200.982544 139.580017 197.288239 140.528183 C 192.606766 141.952927 188.427902 145.768005 183.207687 144.708893 C 178.513855 143.593643 174.644348 139.677948 169.500763 140.381516 C 169.381516 143.428619 168.84552 146.768112 170.48143 149.533936 C 173.143341 154.086472 177.025146 157.897949 181.708725 160.348953 C 185.78186 162.314514 189.57457 164.864639 192.234604 168.598053 C 180.497864 169.052414 168.749374 169.649414 157.003174 169.07692 C 147.535248 168.256195 138.014694 169.192856 128.541809 168.478928 C 131.8004 165.376007 136.133224 164.022568 139.956161 161.845474 C 143.344513 159.119873 146.829697 156.169617 149.066162 152.400955 C 150.340439 147.49501 151.641403 142.509918 151.644608 137.404877 C 148.065292 137.074203 144.807877 138.386459 141.715057 140.012985 C 137.433929 142.044861 134.224869 136.812424 130.013672 137.270111 C 124.966599 137.081635 120.032272 138.706787 114.996628 138.368225 C 112.286484 137.221878 109.697357 135.28894 108.198257 132.737793 C 107.881195 129.532013 108.939423 126.404434 109.092728 123.221283 C 106.568695 119.55954 101.99234 116.889542 101.771759 112.013733 C 100.956497 105.923431 106.435837 102.025009 110.018829 98.019119 C 112.697388 95.529724 110.646576 91.395554 112.385864 88.448364 C 114.63916 84.43158 118.108841 80.358505 123.063858 80.099838 C 125.397522 79.423096 128.436462 80.219574 130.228622 78.285843 C 131.573578 74.379745 130.758987 68.474167 135.477371 66.743607 C 142.793793 65.484344 150.812088 63.956406 157.811035 67.336456 C 161.245148 69.081772 165.248917 68.783325 168.956924 68.370407 Z M 168.956924 68.370407 "/>
<path style="fill: none; stroke-width: 0.1; stroke-linecap: butt; stroke-linejoin: miter; stroke: rgb(1.960784%,58.039218%,25.882354%); opacity: 1;stroke-miterlimit: 10;" d="M 0 71.698746 C 28.769028 71.746735 57.539612 71.815247 86.308151 71.662888 C 87.782181 74.080292 89.329605 76.452438 90.825485 78.857666 C 85.461548 79.973969 80.183426 81.441162 74.889557 82.839783 C 78.617691 86.832703 82.485519 90.696228 86.082703 94.811249 C 81.328644 97.282043 76.561096 99.726974 71.841034 102.262222 C 76.16275 105.468048 80.723083 108.330826 85.200516 111.311295 C 81.166412 114.977112 76.833496 118.303391 72.896317 122.076828 C 77.925415 124.011108 82.948456 125.963654 87.930206 128.01944 C 84.578049 132.401764 81.106644 136.693237 77.887955 141.17717 C 83.290161 141.765976 88.676895 142.562836 93.961853 143.848953 L 93.706665 144.502228 C 62.473648 144.347488 31.235168 144.525787 0 144.438705 L 0 71.698746 Z M 0 71.698746 " transform="matrix(1,0,0,1,0,0)"/>
<path style="stroke: none; fill-rule: nonzero; fill: rgb(1.960784%,58.039218%,25.882354%); opacity: 1;" d="M 0 71.698746 C 28.769028 71.746735 57.539612 71.815247 86.308151 71.662888 C 87.782181 74.080292 89.329605 76.452438 90.825485 78.857666 C 85.461548 79.973969 80.183426 81.441162 74.889557 82.839783 C 78.617691 86.832703 82.485519 90.696228 86.082703 94.811249 C 81.328644 97.282043 76.561096 99.726974 71.841034 102.262222 C 76.16275 105.468048 80.723083 108.330826 85.200516 111.311295 C 81.166412 114.977112 76.833496 118.303391 72.896317 122.076828 C 77.925415 124.011108 82.948456 125.963654 87.930206 128.01944 C 84.578049 132.401764 81.106644 136.693237 77.887955 141.17717 C 83.290161 141.765976 88.676895 142.562836 93.961853 143.848953 L 93.706665 144.502228 C 62.473648 144.347488 31.235168 144.525787 0 144.438705 L 0 71.698746 Z M 0 71.698746 "/>
<path style="fill: none; stroke-width: 0.1; stroke-linecap: butt; stroke-linejoin: miter; stroke: rgb(1.960784%,58.039218%,25.882354%); opacity: 1;stroke-miterlimit: 10;" d="M 238.869904 71.722687 C 267.913071 71.742767 296.956497 71.775543 326 71.70723 L 326 144.431564 C 294.50592 144.394272 263.009232 144.624268 231.517365 144.292999 C 236.578461 142.594696 241.878113 141.74202 247.186676 141.293945 C 244.283218 136.798523 240.886063 132.655701 237.490204 128.531448 C 242.079514 125.668915 247.26329 124.017197 252.247314 121.997559 C 248.281418 118.323883 243.969055 115.04866 240.038712 111.337906 C 244.482727 108.399048 249.030167 105.594116 253.194077 102.255646 C 248.527206 99.676285 243.789459 97.230972 239.038361 94.814926 C 242.747299 90.816101 246.601624 86.950226 250.169434 82.821365 C 244.889511 81.443741 239.644089 79.926941 234.296616 78.830795 C 235.825943 76.464935 237.37175 74.109375 238.869904 71.722687 Z M 238.869904 71.722687 " transform="matrix(1,0,0,1,0,0)"/>
<path style="stroke: none; fill-rule: nonzero; fill: rgb(1.960784%,58.039218%,25.882354%); opacity: 1;" d="M 238.869904 71.722687 C 267.913071 71.742767 296.956497 71.775543 326 71.70723 L 326 144.431564 C 294.50592 144.394272 263.009232 144.624268 231.517365 144.292999 C 236.578461 142.594696 241.878113 141.74202 247.186676 141.293945 C 244.283218 136.798523 240.886063 132.655701 237.490204 128.531448 C 242.079514 125.668915 247.26329 124.017197 252.247314 121.997559 C 248.281418 118.323883 243.969055 115.04866 240.038712 111.337906 C 244.482727 108.399048 249.030167 105.594116 253.194077 102.255646 C 248.527206 99.676285 243.789459 97.230972 239.038361 94.814926 C 242.747299 90.816101 246.601624 86.950226 250.169434 82.821365 C 244.889511 81.443741 239.644089 79.926941 234.296616 78.830795 C 235.825943 76.464935 237.37175 74.109375 238.869904 71.722687 Z M 238.869904 71.722687 "/>
<path style="fill: none; stroke-width: 0.1; stroke-linecap: butt; stroke-linejoin: miter; stroke: rgb(85.098046%,13.725491%,11.764707%); opacity: 1;stroke-miterlimit: 10;" d="M 0 144.438705 C 31.235168 144.525787 62.473648 144.347488 93.706665 144.502228 C 91.721741 149.275558 89.237762 153.817215 86.911789 158.428711 C 92.39624 157.716446 97.931442 157.509384 103.457932 157.667908 C 102.345505 162.976486 101.160706 168.270218 99.924438 173.552231 C 105.0914 171.678802 110.383179 170.171829 115.729828 168.905121 C 115.579376 174.287811 115.51738 179.675217 115.732864 185.05864 C 120.503662 182.503708 125.232178 179.869995 130.044067 177.391891 C 131.196976 182.62114 132.377914 187.844711 133.539337 193.073578 C 137.75293 189.707947 141.837372 186.186356 145.979401 182.734299 C 148.192673 187.639542 150.419098 192.540924 152.81424 197.362442 C 156.043625 193.070343 159.191406 188.707352 162.732605 184.66246 C 165.906876 188.895355 169.045303 193.168365 172.556305 197.134537 C 174.781357 192.345154 176.975403 187.541595 179.278534 182.789658 C 183.453796 186.21286 187.49501 189.797318 191.697113 193.190491 C 192.736404 187.992142 193.842712 182.806 195.250092 177.693924 C 199.996368 179.854843 204.565384 182.376709 209.241684 184.684113 C 209.521576 179.423782 209.519119 174.154984 209.356049 168.892456 C 214.582077 170.115097 219.747574 171.577606 224.937653 172.947113 C 224.008392 167.828964 222.870148 162.753189 221.892273 157.645966 C 227.32663 157.546509 232.770935 157.723419 238.16777 158.416519 C 235.815704 153.772842 233.619186 149.05307 231.517365 144.292999 C 263.009232 144.624268 294.50592 144.394272 326 144.431564 L 326 217 L 0 217 L 0 144.438705 Z M 0 144.438705 " transform="matrix(1,0,0,1,0,0)"/>
<path style="stroke: none; fill-rule: nonzero; fill: rgb(85.098046%,13.725491%,11.764707%); opacity: 1;" d="M 0 144.438705 C 31.235168 144.525787 62.473648 144.347488 93.706665 144.502228 C 91.721741 149.275558 89.237762 153.817215 86.911789 158.428711 C 92.39624 157.716446 97.931442 157.509384 103.457932 157.667908 C 102.345505 162.976486 101.160706 168.270218 99.924438 173.552231 C 105.0914 171.678802 110.383179 170.171829 115.729828 168.905121 C 115.579376 174.287811 115.51738 179.675217 115.732864 185.05864 C 120.503662 182.503708 125.232178 179.869995 130.044067 177.391891 C 131.196976 182.62114 132.377914 187.844711 133.539337 193.073578 C 137.75293 189.707947 141.837372 186.186356 145.979401 182.734299 C 148.192673 187.639542 150.419098 192.540924 152.81424 197.362442 C 156.043625 193.070343 159.191406 188.707352 162.732605 184.66246 C 165.906876 188.895355 169.045303 193.168365 172.556305 197.134537 C 174.781357 192.345154 176.975403 187.541595 179.278534 182.789658 C 183.453796 186.21286 187.49501 189.797318 191.697113 193.190491 C 192.736404 187.992142 193.842712 182.806 195.250092 177.693924 C 199.996368 179.854843 204.565384 182.376709 209.241684 184.684113 C 209.521576 179.423782 209.519119 174.154984 209.356049 168.892456 C 214.582077 170.115097 219.747574 171.577606 224.937653 172.947113 C 224.008392 167.828964 222.870148 162.753189 221.892273 157.645966 C 227.32663 157.546509 232.770935 157.723419 238.16777 158.416519 C 235.815704 153.772842 233.619186 149.05307 231.517365 144.292999 C 263.009232 144.624268 294.50592 144.394272 326 144.431564 L 326 217 L 0 217 L 0 144.438705 Z M 0 144.438705 "/>
</g>
</svg>
