<svg height="984.8" width="800" xmlns="http://www.w3.org/2000/svg" xmlns:xlink="http://www.w3.org/1999/xlink"><path d="m0 0h800v984.8h-800z" fill="#1e9943"/><g id="a"><path d="m70 84.8h200l-21.977 209.4c-22.718 1.635-52.342 15.479-52.76 46.171-1.6626 122.74 48.44 135.38 46.544 210.25-.97433 38.615-37.258 60.93-38.081 62.083l18.921 372.1h-105.58l19.728-372.71c-2.6366 0-39.97-31.184-38.895-63.821 2.4411-73.983 45.351-83.738 46.752-207.69.35439-31.751-25.917-42.739-52.36-46.112z" fill="#e4e4e4"/><path d="m70 466.3h200" fill="none" stroke="#1e9943" stroke-width="7"/><circle cx="170" cy="409.8" fill="#1e9943" r="12.5"/></g><use x="230" xlink:href="#a"/><use x="460" xlink:href="#a"/></svg>