<svg height="434" viewBox="0 0 279 217" width="558" xmlns="http://www.w3.org/2000/svg"><path d="m0 0h279v217h-279z" fill="#f00"/><g fill="#ff0"><circle cx="162.6875" cy="43.241211" r="5.4375"/><path d="m139.5 80.1787109c-41.75 0-21.25-13 0-13s41.75 13 0 13z"/><path d="m139.5 65.1787109s-7.5.5-12.625 1.625-11.625 4.375-11.625 4.375l-3.375-17-18.125-19.125s6.5-2 17.4375 8.9375c5.6923828 9.5673828 11.25 17.875 11.25 17.875l14.4375-7.8125v-13.875s-3.25 2-5.625 2-5.375-1.25-5.375-5 3.375-4.25 5.375-4.25 5.625 1.875 5.625 1.875v-2.5s-3-1.375-3-4.625 3.2294922-5 5.625-5 5.625 1.75 5.625 5-3 4.625-3 4.625v2.5s3.625-1.875 5.625-1.875 5.375.5 5.375 4.25-3 5-5.375 5-5.625-2-5.625-2v13.875l14.4375 7.8125s5.5576172-8.3076172 11.25-17.875c10.9375-10.9375 17.4375-8.9375 17.4375-8.9375l-18.125 19.125-3.375 17s-6.5-3.25-11.625-4.375-12.625-1.625-12.625-1.625z"/><circle cx="116.3125" cy="43.241211" r="5.4375"/><path d="m62.101105 127.033783h161.304642v8.17511h-161.304642z" transform="matrix(.6395604 -.7687408 .7687408 .6395604 -49.344345 157.001709)"/></g><path d="m180.9423828 69.3427734-9.8251953 11.3837891 4.1152344 11.6889648s11.1835938 1.7421875 11.7988281 1.8383789c.9755859 1.1181641 7.0859375 8.4580078 7.0859375 17.0683594 0 8.9345703-3.5068359 10.7529297-3.5419922 10.7714844l.5292969 1.7089844c.5693359-.0947266 14.015625-2.46875 24.0507813-15.6972656 9.9619141-13.1293945 11.8417969-25.7749023 11.9130859-26.3061523l.3251953-2.2890625-1.7890625 1.4638672c-.0732422.0595703-7.3857422 5.9663086-15.2333984 5.9663086-7.1572266 0-12.4658203-4.1425781-13.3564453-4.8828125-.1484375-.4980469-3.2431641-10.9633789-3.2431641-10.9633789l-12.4960938-2.137207z" fill="#f00"/><path d="m190.9560547 122.9111328s13.546875-2.2568359 23.4794922-15.3505859c9.9335938-13.0942383 11.7402344-25.8876953 11.7402344-25.8876953s-7.5263672 6.1708984-15.8046875 6.1708984c-8.2773438 0-14.1455078-5.2680664-14.1455078-5.2680664l-3.1621094-10.6860352-11.4384766-1.9565429-9.4824219 10.9873047 3.7626953 10.6860352 11.5898438 1.8061523s7.5244141 8.1274414 7.5244141 17.909668c0 9.7832031-4.0634766 11.5888671-4.0634766 11.5888671z" fill="#ff0"/><path d="m87.2299805 65.8115234-6.9804688 5.8051758 104.3198242 125.3901367 7.6738282-6.3808593-104.3188477-125.3916016z" fill="#f00"/><path d="m55.594177 127.033402h161.304321v8.17586h-161.304321z" fill="#ff0" transform="matrix(-.6395586 -.7687424 .7687424 -.6395586 122.58532 319.719452)"/><path d="m97.7246094 68.9570313-12.4960938 2.137207s-3.0947266 10.465332-3.2431641 10.9633789c-.890625.7402344-6.1987305 4.8828125-13.3583984 4.8828125-7.8476563 0-15.1577148-5.9067383-15.2304688-5.9663086l-1.7900391-1.4638672.3232422 2.2890625c.0742188.53125 1.953125 13.1767578 11.9135742 26.3061523 10.0361328 13.2285156 23.4829102 15.6025391 24.0507813 15.6972656l.5292969-1.7089844c-.0351563-.0185547-3.5419922-1.8369141-3.5419922-10.7714844 0-8.6103516 6.1113281-15.9501953 7.0874023-17.0683594.6147461-.0961914 11.796875-1.8383789 11.796875-1.8383789l4.1157227-11.6889648-9.8242188-11.3837891z" fill="#f00"/><path d="m88.0424805 122.9111328s-13.5454102-2.2568359-23.4790039-15.3505859c-9.934082-13.0942383-11.7397461-25.8876953-11.7397461-25.8876953s7.5253906 6.1708984 15.8032226 6.1708984 14.1479492-5.2680664 14.1479492-5.2680664l3.1601563-10.6860352 11.4389648-1.956543 9.4819336 10.9873047-3.7626953 10.6860352-11.5893555 1.8061523s-7.5253906 8.1274414-7.5253906 17.909668c0 9.7832032 4.0639649 11.5888672 4.0639649 11.5888672z" fill="#ff0"/></svg>