<svg height="200" width="200" xmlns="http://www.w3.org/2000/svg"><path d="m.47616.47616v89.75165c0 89.91866 99.5148 156.8222 99.5148 156.8222s99.53288-66.90354 99.53288-156.8222v-89.75165h-199.04768z" fill="none"/><path d="m.07127531.02066473-.00055737 199.94343527s199.88205206-.0488 199.88205206-.0488l-.02405-199.84402469z" fill="#ffd90f"/><path d="m170.80896 115.26c1.17416-1.92573-.34391-2.30297-.69443-2.31881-1.31325-.0594-2.77513.13767-2.87677 1.7856l-1.88484 33.13292-1.98401.3968 1.28963-35.91053c.0928-2.58375-5.51916-4.03547-5.15842-2.67841 3.48532 13.11204 3.46145 28.17506-3.67044 40.07694l-25.99049 5.15842c-.32922.0654-1.16866.99432-1.58721 1.78561-.15072.285-1.11853 2.05667.79364 1.88481.22119-1.07934.96756-1.79424 1.8848-1.98401l23.01449-4.76162c-5.63747 5.8666-10.19989 6.85153-12.69765 6.94403l-13.39208.496c-36.970327-38.40993 5.57262-86.66844 37.49774-113.0884h2.976c1.8517 0 2.4065-2.84151.99204-2.87681l-63.58742-1.58721-.69444-18.15366-1.68637-.3968v1.984c-1.02937 0-1.6333.2032-2.28161.64482-3.195487 2.1765-5.517117-.2176-9.126457-.74402-2.28317-.33299-4.95754 1.7837-5.35682 2.08321-.39677.29763-2.10927 1.65079-5.95202-1.488-1.11194-.90827-3.36177-1.48801-5.85279-1.48801-4.34101 0-7.72097 7.34842-10.71364 3.07521-.3968.72812-.86922 2.76713 2.97601 3.17441 2.41011.25364 5.4304-1.62622 7.3408-1.5872 4.49178.0917 4.27482 1.49965 5.45604 2.57921.54699.51793 4.59804 3.08321 8.3328 1.1904 2.99655-1.53949 3.07483-1.46626 4.06725-1.38881.96337.1307 1.15961 1.9476 5.55522 2.18242.43699.0366 1.23316 2.63584 5.356817 3.0752l-.0992 5.15842-58.032167-1.488c-1.59978-.041-1.1765 2.97601-.3968 2.97601h4.06718c-3.84056 70.84657 33.18453 106.49407 45.23535 116.16361-21.00587-.73844-28.96647-2.03359-33.52968-2.57921-14.49789-1.73355-19.69957-23.71212-19.93927-24.70089l8.03523-8.53123c1.08885-1.15605 1.36103-2.24411-.0992-2.18241l-7.04323.2976c-1.37976.0583-.81839 2.0336-.59523 2.57922 0 0-.25576.31001-1.28957.2976-.64279-11.35272 1.5128-22.02248 1.984-23.41129.86912-2.56178.6273-3.04651-.0992-3.57121l-3.57121-2.57921c-1.64593-1.45712-2.24742-.99365-2.28161-.5952-.22319 2.60219.10949 16.20162.5952 30.45451-.83055.004-1.1904-.496-1.1904-.496-.10288-1.70866-.67752-2.48002-1.28964-2.48002h-5.25758c-1.92388 0-.496 1.48804-.496 1.48801 1.80242 2.19374 7.46446 7.87041 8.43202 8.82883l1.28958 31.64492c.4568 11.20878 10.2183 13.10362 13.19368 13.10336l103.267527-.009c7.41314-.00064 7.83686-7.93603 7.83686-7.93603l1.48797-19.04647 1.88484-.3968-1.48804 22.61768c-.16221 2.46611 1.14581 3.44097 3.27364 3.57122 2.14019.131 3.85574-1.3123 4.06719-2.97602l1.48803-11.70564c.36061-5.02979-1.19047-7.44002-1.6864-8.13442-2.69901-3.77879-2.43122-6.8727-2.38085-7.93603l.99201-20.93127c.29865-6.30137 1.04622-8.29325 1.28963-8.69243zm-67.55546-88.52392-.0992 8.13443s-4.265617-1.0133-4.265617-4.36482c0-3.35151 4.364787-3.76961 4.364787-3.76961zm-2.47998 118.04842-.1984 14.58245-4.761617-.0992c-5.95789-7.6583-5.2068-14.48325 4.960017-14.48325zm4.06718.7936c10.02981 3.54271 17.17122 11.12911 19.5425 13.88805h-19.8401z"/></svg>