<svg height="600pt" viewBox="0 0 338 258" width="800pt" xmlns="http://www.w3.org/2000/svg"><path d="m-2.895663.250612h343.87454v257.50974h-343.87454z" fill="#00cd0e" opacity=".96"/><g fill="#fff" transform="matrix(.1 0 0 -.1 .079613 257.6296)"><path d="m2162 2392c0-64-22-152-45-180-5-7-18-10-27-7-14 4-20-4-31-40-15-51-25-56-41-21-10 23-36 42-45 33-2-3 1-24 6-48 17-71 15-82-13-75-23 6-24 4-19-29 4-27 2-35-10-35-10 0-13-6-10-20 3-11 0-20-6-20s-11-8-11-17-6-24-14-32c-11-13-11-28-1-86 7-38 10-73 8-77s-14 1-25 12c-34 31-41 25-35-30 6-53 1-58-35-39-19 10-20 9-16-17 3-16 9-37 13-46 6-15 2-18-19-18-24 0-26-3-26-44 0-36-4-46-21-51-17-6-19-12-13-33 18-64-1-329-25-355-6-6-23 83-37 188-1 11-5 32-9 48-5 17-3 27 4 27 9 0 10 34 2 93-1 4-10 7-21 7s-20 7-20 15 3 15 8 15c4 0 7 18 7 40 1 22-3 40-7 40s-8-4-8-9c0-6-9-9-20-8-23 1-28 35-8 55 8 8 9 12 1 12-7 0-9 9-5 22 5 22 5 22-20 6-23-15-27-15-32-3-3 9-1 27 5 42 5 14 7 33 4 41-4 12-10 11-30-8l-25-23v26c0 15-4 27-10 27-14 0 1 33 24 51 19 16 19 16-2 39-12 13-22 29-23 34 0 6-3 20-5 31-15 62-16 96-4 110 19 23 4 30-24 11-25-16-26-16-32 11-4 15-7 40-7 55 0 27-1 28-23 13-13-8-25-15-28-15-10 0-15 70-6 94 13 35-13 36-36 1s-39-19-65 66c-12 38-25 72-30 75-12 7-11 61 1 69 15 9 12 25-4 25-42 0-109-154-90-204 4-11 1-22-7-27-19-12-25-11-42 5-24 25-125 75-169 85l-41 9 7-54c4-37 21-82 51-138 25-45 45-87 45-92s-38-9-85-9h-85l-41-41-41-41 66-6c36-3 73-10 83-15 10-6 31-15 46-21 21-8 27-16 22-30-5-16 1-20 37-26 53-9 79-25 73-45-4-11 9-21 46-35 36-15 49-24 46-36-4-14 7-18 57-22 130-13 182-18 204-23l23-5-21-17-22-18 42-29c36-25 40-31 26-40-13-10-10-17 24-50 43-42 49-55 25-55-15 0-21-16-7-22 12-5 69-119 90-183 19-57 33-129 47-239l7-48-34 25c-18 13-48 32-67 42-28 14-32 21-29 45 2 16 1 27-3 24-4-2-11 21-15 53-15 125-107 261-218 324l-39 22 7-42c6-38 4-42-11-37-42 11-83 17-83 11 0-7 42-87 50-95 3-3 19-25 35-49 17-24 51-67 77-95 53-58 55-71 4-32-64 49-197 98-313 115-39 6-74 11-77 11-15 0-3-29 24-57l30-30-48-18c-56-22-118-61-126-81-4-9 7-17 36-24 25-7 42-18 45-30 3-10 18-24 34-30 39-17 42-24 24-59-8-17-15-32-15-34 0-25 202 1 323 42 41 13 54 14 50 5-3-7-13-16-24-19-10-3-50-31-89-61s-75-54-80-54c-6 0-10-6-10-13s-25-37-55-67c-30-29-52-57-49-62 3-4 30-8 60-8 51 0 54-1 44-19-5-11-10-27-10-35 0-13 4-13 37 0 96 40 271 192 328 284 15 25 29 46 30 48 11 13 155-98 155-119 0-5-10-9-22-9s-60-18-106-41c-66-32-100-58-168-126-80-80-122-138-110-150 3-3-6-14-19-25-47-37-28-43 73-22 19 4 22 0 22-31 0-19 3-35 7-35 26 0 251 218 277 268 9 17 21 32 26 32 14 0 14 0-18-72-43-95-86-279-80-341l3-38 35 30c37 32 50 37 50 20 0-14 79-129 89-129 5 0 21 17 37 37 16 21 34 44 41 51s17 21 22 30c9 15 13 14 40-12 17-16 34-26 38-23 3 4 1 53-5 109-12 105-46 227-83 299-29 57-19 58 22 1 43-60 206-221 247-245l32-18v36c0 40-4 39 88 18 36-8 28 28-25 104-73 107-133 171-182 195-26 12-52 27-58 34-7 7-30 18-50 24-21 7-42 16-48 21-5 5-20 9-34 9-22 0-20 5 30 49 30 28 67 55 83 62 26 11 30 10 47-12 11-13 26-37 34-54 20-41 108-132 175-182 51-37 131-83 145-83 3 0 3 16-1 35l-6 35h57 56l-20 28c-59 78-194 200-264 237-66 35-33 40 43 6 51-22 320-68 320-55-1 5-9 27-20 49-10 22-17 43-14 46 2 4 19 10 38 13 18 4 53 20 76 37l43 31-44 40c-24 22-62 48-83 58l-40 18 32 30c18 17 32 33 32 36s-31 6-70 6c-82 0-186-31-296-89-41-21-74-36-74-34 0 3 12 17 28 33 15 15 40 45 55 66 15 22 50 68 77 104 55 72 63 96 28 86-13-4-36-9-52-13-28-6-29-6-22 30 4 21 3 37-1 37-39 0-179-134-211-201-27-59-52-149-52-191 0-43-12-58-82-102l-58-36 6 62c7 72 40 218 59 263 38 86 45 102 62 128 16 24 16 29 3 37-12 8-8 17 28 50 41 40 52 60 32 60-21 0-8 19 32 45 35 23 39 29 25 37-30 16-18 28 31 28 26 0 72 7 102 15s70 15 89 15c24 0 32 4 28 14s10 20 46 33c38 14 51 23 49 36s11 21 58 34c57 15 59 17 44 34-16 17-15 19 7 29 13 5 31 14 39 19 28 16 109 31 142 25l33-5-48 45c-45 42-53 46-100 46-58 0-97 8-97 20 0 5 16 36 35 70s38 73 41 86 10 24 16 24c5 0 7 8 4 18-3 9-2 33 4 52 12 43 7 48-33 28-18-9-43-19-57-22s-56-26-95-51l-70-45-5 74c-5 78-27 122-81 165l-26 20z"/><path d="m1050 2358c-34-56-20-100 40-125l25-10v61c0 57-18 106-38 106-4 0-16-15-27-32z"/><path d="m2310 2376c0-7-7-19-15-26-10-8-15-31-15-72v-59l39 23c29 17 41 30 44 53 2 16 1 32-4 33-5 2-7 8-3 13 3 5 1 9-5 9-5 0-13 9-16 20-7 23-25 27-25 6z"/><path d="m820 2120c-25-10-44-20-42-24 1-3 2-10 2-15s13-12 30-16c16-4 32-11 35-16 8-13 95-11 95 1 0 6-9 29-20 50-23 45-33 47-100 20z"/><path d="m2505 2129c-11-5-30-28-42-49l-21-39 35-7c22-4 45-1 66 9 18 8 44 20 59 27 23 11 25 15 15 31-11 18-58 40-81 38-6 0-20-5-31-10z"/></g></svg>