<svg height="600" width="960" xmlns="http://www.w3.org/2000/svg" xmlns:xlink="http://www.w3.org/1999/xlink"><path d="m0 0h960v600h-960z" fill="#ffd02f"/><g fill="#ff3517"><path id="a" d="m621.75 104.81c-13.45 13.21-22.3 23.23-31.03 35.35l-7.72 10.72c-1.83-1.33-3.67-2.66-5.62-4.04l-10.79 14.16c-.05.33 2.48 2.09 5.88 4.5l-181.69 252.12 10.28 8.88 182.32-252.75c4.46 3.72 8.35 7.64 9.4 10.84 4.03 12.24-.63 25.22-22.59 47.16 60 10.6 107.5-51.36 78.62-112.94-12.04 25.86-27.04 50.13-44.15 44.75-3.52-1.1-6.94-2.84-10.38-4.94l4.06-5.62c14.2-19.68 16.72-31.22 23.41-48.19z"/><use transform="matrix(-1 0 0 1 959.99999 -.000003)" xlink:href="#a"/><path d="m471.77 510 16.065-.0809-.0841-355.54h26.41l-.25233 16.977h14.046v-16.977h17.663v-13.581l-17.495.16168-.0841-16.977h-14.214l-.0841 16.977h-25.99v-28.699l15.728-.0809v-15.117h-15.728v-16.977l-15.897-.08087.0841 16.896-15.897.16168v15.198h15.728l.0841 28.699-26.326-.16169v-16.734h-14.13v16.815h-17.579l.0841 13.582 17.579-.16169v16.896l14.13-.0809.0841-16.815 26.074.0809z"/></g></svg>