<svg height="2410" width="2000" xmlns="http://www.w3.org/2000/svg"><path d="m0 0h2000v2410h-2000z" fill="#f7d617"/><path d="m922.04 2410c-28.355-300.09-66.65-660.35-42.029-989.21 9.7243-129.89 89.991-232.79 163.42-289.75-71.17-55-176.02-183.7-370.99-150.14-102.22 17.6-219.44 131.84-356 239.44 8.54-557.51 581.8-1165.4 1167.8-1144.9-71.5 82.227-280.9 217.95-271.2 499.99 3.4967 100.87 68.52 257.76 131.62 395.75 0 0 208.54-104.24 215.54-99.822 72.274 45.6 71.725 36.756 128.54 39.016 6.7997.27171 19.077 19.239 16.33 21.054-87.768 57.999-175.04 124.14-247.35 197.88l.8834 84.804-259.71 186.39c-13.354-6.9115-29.2-18.729-36.218-14.134-39.418 25.808-96.901 47.701-111.31 192.58-17.64 177.42 10.176 581.07 18.41 831.09z"/><g fill="#f7d617"><path d="m920.66 2072.3c37.32 106.7 120.24 163 113.44 221.1-59.22-92.5-134.95-166.4-113.44-221.1z"/><path d="m905.37 1709.6c38.196 124.53 123.62 206.09 120.58 261.19-41.629-76.298-140.55-201.27-120.58-261.19z"/><path d="m914.55 1389.9c33.351 140.85 123.24 218.74 108.01 277.15-41.983-78.858-139.54-231.93-108.01-277.15z"/><path d="m1024.9 1188.2c-18.436 54.578-44.417 123.35-72.345 178.99-3.4827 6.9391 31.27 45.116 37.701 40.758 37.94-25.715 121.64-49.016 185.28-39.909 1.5869.2283 3.171-7.6413.5877-8.9216-30.976-15.351-121.02-9.9705-176.53 19.79-7.4909 4.0165-24.455-11.548-24.455-11.548-3.0931-4.8105 51.995-128 57.234-176.79.4451-4.1426-6.0017-6.7403-7.4754-2.3775z"/><path d="m1353.4 997.31c94.118-.61137 165.43-10.682 157.6 1.6982-26.877 42.484-42.796 72.785-64.194 100.88-4.5377 5.9571-27.075 1.0874-20.379-8.1516 17.997-24.832 36.837-47.5 49.928-73.024 5.4877-10.7-75.515-2.1509-115.48-4.4154-8.6498-.4891-14.112-16.94-7.4722-16.982z"/></g></svg>