<svg enable-background="new 0 0 2400 1500" viewBox="0 0 2400 1500" xmlns="http://www.w3.org/2000/svg"><path d="m0 0h2400v1500h-2400z" fill="#198909"/><path d="m1182.1 89.2c3.7-4.2 8.5-8.7 14.5-8.2 7.7.5 13 7 17.1 13 4.3 1 8.7 2.2 12.3 5 6.9 5.4 11.4 13.1 17.9 18.9 2.1 2.3 5.4 4.4 5 8-.4 9.6-10.5 15.3-11.2 24.7 6 1.6 12.3 2.1 18.4 3.4-3.4 9.6-9.4 18.2-11 28.3-2.3 11.4 1.8 22.9 6.9 33-4 4.2-8.5 8.1-11.8 12.9-1.2 1.6-2.1 3.9-1.1 5.9 4.5 2.8 12-.7 15 4.9 2.8 7.1-2.6 15-8.6 18.6-.2 2.3.5 4.9-.9 6.9-4.5 2.9-10.4 1.2-15.2 3.3-.4 2-.9 3.9-1.1 6 3.4 2.3 6.7 6.1 5.9 10.7-1.8 9.2-9.1 16.1-11.4 25.1-5.3 3.3-9.9 8-12.1 13.9 3.4 4 1.8 9.1.2 13.5.6 1.5 1.7 2.9 1.7 4.7.2 35.5-2.1 71 2.7 106.2 11.5-19.9 22.8-40.5 39.4-56.8 16.2-15.8 33.9-30.2 52-43.7 8.2-5.9 16.3-12 25.6-16.1 8.1-4 16.7-7.4 23.8-13 2.8-2.5 6-5.5 5.8-9.7-.4-3.9-3.6-6.6-6.5-9 3.7-9.7-2-19.7.5-29.4 1.2-4 5.9-4.2 9.3-4.4-3.7-8.2-11.5-13.5-15.7-21.3-2.5-4.4-1.5-9.8 1.5-13.7.2-2.7-.5-6 1.6-8.1 3.8-3.4 10.3 1 13.5-3.6-4.8-2.8-9.7-6-11.7-11.4-4.3-12-1.7-25.5 4.4-36.4 1.6-3.3 1.7-7.1 2.9-10.5 5.9-2.9 11.4 1.8 14.5 6.6 2.2 2.9 2.1 6.7 2.2 10.2 2.2-1 5-2 5.3-4.8-.1-7.2-3.7-13.9-7.9-19.5-3.4-4.7-3.2-10.9-.6-15.8 6.3-11.9 19.9-19.1 33.2-18.6 1.5 5.3 4.5 10.2 9.3 13 1-1 2-2 3.1-3.1-3.3-4-5.2-9.3-3.6-14.5 4.3-13.2 22.3-22.7 34.5-13.5 9.1 7.7 6 21.1 10.5 31 1.8 4.9 7.6 6.7 9.3 11.7 3.9 9.3 5.6 19.7 4.3 29.9-.9 4.2-2.3 8.5-5.5 11.3-3.8 3.4-9.7 1.8-13.4 5.3-1.5 2.1 1.7 3.3 3.1 4.3 2.8 2.2 8.1 3.3 7.9 7.7-.9 1.2-2 2.3-2.8 3.4 0 6.4-1 13-4.9 18.2-5.9 8.1-16.2 11.5-25.8 12.4 4.7 2.3 8.1 7.4 7.2 12.8-1.3 6.9-6.3 12.8-12.4 16.1-2.9 1.5-5.5 3.6-8.5 5-5.4 1.7-11.8 1.3-16.1 5.6 1.7 5.2 2.3 11.2-.4 16.1-5.3 9.9-14.8 16.3-23.4 23.1 21.8-6 44.9-7.9 65.6-17.7 6.3-3.1 12.6-7.1 16.1-13.5 2.5-4 1.7-9.2 3.9-13.4 3.8-7.4 11.2-12.4 14-20.4 1.5-4 .5-8.2-.2-12.3-.9-4.2.9-9.1 4.8-11.2 5.9-3.1 13-.5 18.9-3.2 3.2-1.6 3.7-5.6 2.7-8.7-2.2-7.4-2.5-15.8 1.7-22.7 3.8-7.1 11.9-12 20.1-11 3.7.4 7 2.1 10.1 3.9-1.7-11.5 2.2-23.8 10.2-32.3 4.8-5.3 13.1-8.2 19.7-4.8 1.5 2.5 2 5.8 4.7 7.4 3.8 1.1 6.6-2.5 8.7-5.2 4.5-5.5 6.4-12.9 11.7-17.8 4.7-4.7 10.5-8.2 17.2-9.1 4.9-.5 9.8 2.5 11.5 7.1 1.6 3.6 2.6 8.5 6.9 9.7 9.2-3.8 12.9-14.5 21.3-19.4 5.9-4.5 13.6-2.1 19.9.1 15.3 5.5 22.9 26.9 13 40.2-3.2 3.9-3.2 10.2-8.1 12.6-5.9 2.8-12.5 2.7-18.8 3.8 8.2.5 14.6 7.6 15.1 15.6.9 6.6-2.8 12.9-7.9 16.8-.6 3.1-1.7 6.3-4.9 7.5-7.1 2.6-14.7-.4-22 1.6-2.3.5-3.4 2.7-4.8 4.3 4.3 5.2 8.3 12.3 6.1 19.1-2.8 3.3-7.4 4.9-11 7.1-9.8 5.3-21.2 6.1-32.1 4.9 2.2 7 3.1 15.3-1.6 21.6-3.8 5.2-10.4 6.3-16.3 6.9-3.1 3.2-6.9 7.5-11.9 5.9-5.6-2.6-9.9-7.9-16.2-9.1-1.2 4.9-2 9.9-3.6 14.7-.9 3.2-3.6 6.1-7 6.6-7.4.2-13.5-5.2-21-4.8-12.4-.6-23.3 7.5-35.7 7-4.3.1-8.3-1.5-12.1-3.3-10.5 7.6-21.2 15.6-33.7 20-5.5 2-11.3 2.7-17.1 3.4-.9 2.2-1.6 4.4-2.3 6.6.5.6 1.3 2 1.7 2.6 7.5-4.8 16.4-4.8 24.9-4.5.4.6 1.2 1.7 1.6 2.2 2.6.1 5.2.4 7.9.6 2.1 6 8.5 9.7 14.6 9.1 4.4-.2 6.5-4.9 10.4-6.5 8.5-3.8 18-3.3 27.1-2.7 3.9 2.3 5.9 7.4 6 11.8.4 4.9-5.3 6.5-7.2 10.3 3.3.4 6.6.5 10.1.1 4-3.6 9.6-1.7 14.4-2.8 1.8-.9 2.5-3.1 3.4-4.8 7.2-.9 15.6 1 19.7 7.5 2 3.6 6.6 5.9 6.3 10.4.1 4.3-2.9 8-2.7 12.4-.1 2.5.9 4.7 1.7 6.9 5.6-.5 10.5-6.3 16.4-3.4 4.4 2.9 8.1 7 12.6 9.7 1.6 5.2-1.8 10.7.1 15.6 6.7 5.2 12.5 12.8 13.1 21.5 0 4-.4 8.8-3.4 11.8-3.6 3.6-7.6 7.7-13 7.6-1.8.5-2.7-1.5-3.8-2.3-2.9-.2-5.9-.4-8.8-.4-.9 4.7-4.3 8.5-8.8 9.7-8.7 2.6-18.5 2.3-26.7-1.6-4-2-5.5-6.6-8.8-9.4-4-3.6-9.2-5.5-14.4-6.1-2.3 2.3-3.9 5.5-7.1 6.7-4.7 2-9.8.2-14.4-1.5-3.1.1-6.3.6-9-1-3.6-2.1-6.3-5.3-9.4-7.6-1.2-1.1-3.2-2-3.4-3.8-1.6-8.6 1.1-17.3-1.3-25.8-4.4 1.8-6.4 6.7-10.4 9.1-2.3 1.3-4.8-.6-6.4-2.2-4.5-4.9-9.1-10.1-11.5-16.3-1.8-4.4-2-9.2-3.9-13.6-1.3-3.1-4.9-3.9-7.6-5.4-.5-6-7.6-4.2-11.5-6-2.9-9.4-1.5-19.3-1.5-28.9.1-2.3-1.8-4.2-3.4-5.6-4.3-3.6-10.3-2.7-15.3-1.6-20.1 5.3-39.5 13.2-58 22.7-12.8 6.7-25.3 14.5-35.9 24.4-13.9 13.6-27.5 27.5-39.3 42.9-12.5 16.3-22.9 34.7-27.2 55-5.6 27-7.7 54.5-9.1 81.9-2 64.4.7 129.2 12.5 192.6 4.9-2.5 7.2-7.6 10.3-11.8 12.8-18.6 23.6-38.9 40-54.6 31.4-32.1 71.4-54.2 112.5-71.5 9.9-4.3 18-12.5 21.3-22.8-3.6 2.3-8 4.2-12.3 2.7-9.2-2.9-14.6-11.9-18.3-20.2-9.1 8-22.8 9-33.6 4.3-3.4-1.2-5.5-4.3-6.5-7.6 1.1-3.9 3.4-7.2 6.5-9.9-10.4-.1-21.1-2.1-30.4-7.1-5-2.8-10.2-7.6-9.8-13.9-.1-4 2.5-7.4 4.2-10.8 1-2.5-.5-5.3-3.1-6-7.7-2.6-16.9-.4-23.9-5.5-3.1-2.9-6.4-6-8.2-9.9-2.5-7.9 3.6-14.4 5.6-21.5 1.2-3.2-2-5.4-3.1-8-2.9-7.5-1-16.4 4.5-22.2 7.4-8.1 19.6-11.2 29.9-7.7 5.3 1.7 9.1 5.9 11.9 10.4 6.9-2.3 14.4-2.7 21.3-.9 7.2 2 14 8.1 14.2 15.9.6 4.9-3.4 10.5.7 14.6 4.4-1.3 4.9-8 9.7-9.2 5.5-.7 11.8.1 15.8 4.3 4 4.3 5.2 10.3 5.6 15.9.7 7.7 1.1 15.5 3.1 22.9.7-3.7 1.5-8.6 5.8-9.8 7.1 0 12.8 5.8 16.2 11.5 2.6 4.4-1.1 9-1.3 13.4-1.1 10.9 8.1 19.9 7.2 30.8 0 3.4-2 6.3-2.8 9.4 2.2 6.1 3.6 13.4 8.6 18 6.1 4.9 47.1 12.3 60.7 13.4 10.1.7 19.6-3.1 28.2-7.9 12-6.9 22.6-15.8 33.6-24 14.4-10.2 24.3-25.1 37.3-36.8-4.8-6.5-6.3-15.6-2.5-22.9 5.4-10.5 15.2-17.8 21.7-27.5-2.8-9.9-2.1-21 2.6-30.2 2-3.9 5.5-8.1 10.3-7.9 4.9-.2 8.1 3.9 12 6.1 3.6-9.8 2-20.6 5.8-30.3 1.7-4.8 5.5-8.6 10.1-10.8 5-2.1 6.1-9.1 11.9-10.1 8.5-1.1 16.2 4.3 24.8 3.8-.6-5-1.6-10.9 1.8-15.3 5.3-6.9 14.1-9.4 19.6-16.1 2.6-3.3 7.4-4.2 11.3-2.8 3.6 2.2 4.7 6.7 7.5 9.6 2.1.5 3.3-1.7 4.7-2.8 6.3-6.9 17.1-9.2 25.4-5.2 9.4 4.7 15.6 15.1 15.3 25.6-.2 6.3-3.4 12.1-8.2 16.3 15.8 7.1 15.9 31.5 2.3 41-4.8 3.8-11.5 3.2-16.7 6.4 2.5 6.5 9.9 9.2 12.8 15.3 1.1 3.2-.5 6.4-3.2 8-4.3 2.7-6.1 7.7-10.5 10.3-7.4 4.5-16.4 4.2-24.8 5.4-5.9.6-11.4 2.6-16.3 5.5 4.5 5.3 9.9 11.4 8.1 18.9-2.6 8.6-11.4 13.4-19.5 15.5-5.6 1.2-10.5 5.4-16.6 4.5-10.1 0-18-9-28.1-8.1-6.7.7-8.3 8.8-14 11.3-6.7 3.2-14.5 2.2-21.6 1.8-7-.2-14.7.6-19.6 6-14.1 14.2-27.5 29.4-44.8 39.9-6.1 4.2-13.4 6.7-19 11.7-2.5 1.8-2.8 5.8-.4 7.9 6 5.9 14.7 7.1 21.7 11.4 11.4 7 23.6 12.9 34.8 20.1 5.6 3.3 10.5 7.6 16.1 11 6.3 3.9 14 4.9 19.6 9.7 6.1 5.5 6.9 14.4 7 22.1 2.1-3.1 4.8-6.9 9-5.9 8.2 1.8 11.9 11 19.5 13.9 2.9 1.1 5.2-1.7 7.1-3.4 5.8-1.5 11.9-2.6 17.8-1.2 4.4 1.1 7.9 4.7 8.8 9.1 1.3 6.7.4 13.7-1.6 20.2 3.6-3.3 8.3-5.8 13.4-4.9 6.4 1.2 11.4 6.3 14.4 11.8 3.4 6.3 6.1 14 3.3 21 9.3-2.8 21.2 2 24.3 11.7 1.5 6.5-4 11.8-9.4 14.1 7 7.5 11 17.5 11.2 27.8.1 6.1-2.9 13-9.3 14.7-7.9 2.9-15.5-2.2-23.3-1.5-7.4.5-14.7 1.2-22.1 1.7-9 .2-18.6-1.8-24.9-8.6-1.1-3.6-1.5-7.4-3.2-10.7-5.6 2-9.1 7.5-14.7 9.6-3.7 1.2-5.6-2.8-8.3-4.4-6.6-4.3-14.5-7.4-19-14.1-3.4-5-3.2-11.5-1.2-17.1-4.2 4.5-11.8 5.8-16.6 1.6-7.6-6.4-10.8-16.7-11.3-26.4 2.2-1.6 5.8-3.1 5.4-6.3-1.5-7.9-10.1-12.6-10.3-20.9-.4-3.1 2.3-4.9 4.4-6.7-7.1-5.9-5.5-15.8-4.9-23.9.7-6.7 1.5-15-4-20-24-22.1-53.8-37.2-85-46.4-11-3.6-22.9-3.6-34.5-3.1-12.9.4-25.6 2.3-38.1 5.6-12.6 3.2-25.4 6.5-37.4 11.7-12.3 5-22.9 13-34.3 19.4-14.8 8.5-29.4 17.5-41.6 29.7-15.6 15.8-28.3 34.2-40.1 53-14 22.8-23.7 48.5-27.4 75.2-4.3 28.5-1.6 57.3.9 85.7 2.5 31.9 5.3 63.9 9.1 95.7.5 2.6.9 5.8 3.4 7 5.3.7 9.2-3.9 12.9-7 9.7-9.6 17.9-20.6 26.3-31.4 5.2-6.3 9.6-13.4 16.2-18.2 32-24 69.2-41.3 108.6-49.1 8.1-1.8 17.1-1.5 24.4-5.8 4.9-3.3 7.7-8.7 10.8-13.6 2.1-1.2 4.5-2 5.9-4 2.6-4 3.1-9.1 5.3-13.2 1.6-2.9 5.3-4.5 5.9-8 1.7-6.4 2.2-14-2.3-19.3-3.9-4.4-10.4-4.5-15.8-3.4-4.8 1-9.8 4.2-14.8 2-6-4.3-5-14.7-12.9-16.9-10.2 5.2-23.1 2.3-30.9-5.5-2.2-2.2-3.9-5.3-3.7-8.6-.1-5.5 5.8-8.1 8.3-12.4-4.8-6.6-14-3.9-20.9-3.9-2.8-3.4-6-8-3.9-12.6 2.9-5.5 8.8-8.3 13.2-12.6-7.6-3.1-15.7-6.3-21.3-12.5-3.1-3.3-3.9-8.6-1.1-12.1 3.1-3.3.4-7.4 0-11-.7-3.4-.4-7.5 2.1-10.2 3.9-3.2 9.7-3.6 14.2-1.5 7.2 2.8 13.9-5.2 21.2-2.6 4.2 2.5 8.6 6.3 8.3 11.5.4 5.3-.9 12.8 5.4 15 .9-4.2 2.1-9.1 6.1-11.3 6.9-4 15.8-.2 20.5 5.4 4.4 4.9 5 12.5 2 18.2 3.4-3.8 9.2-4.4 13.7-2.1 6.3 3.3 10.8 9.6 12 16.6.7 4.3-.2 9.1-3.7 12 6-2.5 10.5 3.3 13.4 7.9 1.2 9.1-3.3 17.8-2.6 26.9.2 4.9 4.7 7.7 6.4 12 4.4 11.4 9.4 23.3 8.2 35.9-.4 8.6-5.9 15.7-12.3 20.9 1.8 1.5 3.8 2.8 6.3 2.7 11.3-.5 22.4-5.2 33.9-3.2 11 4.3 23.2 3.1 34.8 3.8 8.7.6 17.4.1 26 1.3 12.6 2.8 22.8-8.7 35.3-8.1 4-.4 7.5 2 10.3 4.7 1 3.6 1.1 9.2 5.6 10.1 6.9-1.3 11.5-7.6 18.3-9.4 5.2-1.7 9.6 2.3 14.5 3.2 6.3 2.5 4.2 10.3 4.7 15.6-.4 2.9 2.5 4.5 5 4.7 3.7-2.8 7.9-5.8 12.8-5.5 5-.1 9.3 3.7 11 8.2 2 4.8 1.5 10.2.6 15.1 7.7-1.6 15.9-1.3 23.6 1.1 3.8 1.5 8.2 3.7 9.2 8 .7 4.4-2.5 8.1-4.8 11.4 7 6.5 12 15.8 11.3 25.5-.1 5.2-4.2 10.1-9.3 10.8-3.9 1-7.9.1-11.8-.5-2.2 7.1-9.8 10.5-16.6 12.3-7.6 2.1-16.8 1.1-22.1-5.4-4 5-10.4 8.7-17.1 7.7-3.9-.4-6.6-3.4-9.1-6-5.5-.1-10.7-2.9-13.6-7.5-3.4-4.9-5.9-10.5-10.7-14.5-.2 3.2.5 7.5-2.9 9.3-7.1 4.5-17.3-.6-18.4-8.8-4-.1-8.7-.5-10.9-4.4-3.9-6.9-3.1-15.2-5.8-22.4-.9-1.8-1.2-4.4-3.4-5-3.3 3.4-5.8 8.7-11 9.4-3.9.5-6.9-2.9-8.2-6.1-3.2-7.2-2.8-15.5-1.1-23.1-10.1-14.6-28.8-20.6-45.9-20.2-18 3.4-34.3 13.4-52.9 15.5-3.6.2-9.6 3.2-7.7 7.6 5.4 6.3 14.6 8.1 19.3 15.2 2.5 4 5.8 8 10.7 9.1 11.8 2.7 23.6-2.9 35.5-1.6 6.5.5 11.5 5 17.2 7.9 6.3 6.3-.4 15.8 3.3 23.2 5.3-3.9 12-5.9 18.6-5 10.8 1.2 21.5 6.3 28.7 14.6 1.6 4-1.6 9.4 1.8 13 4 3.7 10.1 2.1 15 1.7 8.2-.7 18.2-2.3 24.5 4.2 3.2 3.2 9.1 5.6 7.9 11-1.7 4.9-6.5 7.6-10.4 10.4 16.3-2.1 31.6 6.9 42.6 18.3 1.6 1.8 3.7 5.2 1.3 7.4-3.8 3.3-9.3 3.2-13.9 5.2 1.8 4.7 8.1 4.2 12.3 4.9 5.6 1.3 6.5 7.9 7.9 12.5.6 4.9 6.7 8.1 4.7 13.5-2 4.4-5.5 7.9-7.6 12.1 2.9 2.9 6 6.3 7.5 10.4 3.4 9.8-1.7 21.2-10.4 26.5-5 3.3-11.3 4.2-17.2 3.6-6.5.2-9.2-6.7-14.6-9.2-2.2 2.9-3.7 6.5-4.5 10.2-9 3.6-19.1 3.1-28.1.2-5.8-2.1-12-5.8-13.7-12-1.5-3.8.2-7.6 1.5-11-1.7-1-3.4-2.1-5.3-2.8-2.1.4-3.3 2.3-3.8 4.2-2 5.9-2.1 12.4-5.6 17.7-2.8 3.9-9 3.4-12.4.5-8.3-6.1-17.4-11.8-24-20-2.5-2.9-3.7-6.7-2.9-10.5.7-2.6 2.8-4.5 3.9-7.1.5-2 .1-3.9.1-5.9-5.4.9-10.7 4.2-16.2 2.9-3.2-.7-4.2-4-5.6-6.5-3.8-1.7-7.7-3.9-9.1-8.2-3.4-10.8 3.2-21.8 1-32.8-.6-3.3-3.2-5.6-5.8-7.5-.9 4.2-1.2 9.2-5.2 11.7-5.5 1.7-10.5-2.5-14-6.1-6.7-7.5-11.7-17.5-9.9-27.8 3.1-2.6 7.6-5.6 6.4-10.3-2-6-7.2-11-6.4-17.9-7.5-6.7-12.5-16.3-12.8-26.4-.2-4 .1-8.1.5-12.1-10.5-5.6-21.6-11.3-33.7-12.3-15.7-2.2-31 2.8-45.5 8.3-20.2 8-40.2 17.4-57.8 30.4-7.7 5.4-12.9 13.4-19.4 20-10.2 11.4-22 21.5-30.9 34.1-11.3 15.5-17.5 34.2-20 53.1-4 28.9-1.6 58.1 1.7 87.1 1.6 13.1 6.3 25.9 13.4 36.9 5.8 8.5 13.5 16.2 23.7 19.1 7.7 2.3 15.8.9 23.3-1.6 9.1-.4 18.4-.9 27.1-3.9 16.8-5.3 32.4-14.5 49.9-17.3 9.8-1.8 19.9-1.1 29.6.9 27.8 3.9 52 19.4 78.5 27.2 13.4 4.3 27.6 5.4 41.5 3.8-3.8 11-10.5 22.4-22.2 26.4-5.3 2.2-11.2.1-16.3 2.2-12.9 4.8-27.1 3.1-40-.5-16.6-4.3-33.5-10.9-50.9-8.1-27.6 6.9-52.6 21.3-80.5 27.6 5.5 4.7 13 6.3 20 6.5 16.7 0 32.4-7.6 49.1-8 9.3-.1 17.5 4.8 25.4 9.1 13.4 7.2 26.6 16.1 42.1 18.3 11.8 2.1 23.6-2 33.2-8.5.1 7.6-2.7 15.6-9 20.2-11.2 8.2-25.6 9.3-39 9.4-13.7-.6-27.7-2.1-40.8-6.5-7.9-4.9-17.1-8.2-26.5-6.9-8.3.9-14 7.5-20.5 12-8.5 6.7-18.9 11.4-29.8 11.4-6.3.4-12.3-1.1-18.4-1.7 2.5 7.7 10.3 11.3 17.1 14.6 6.5 3.3 13.7 5.5 19.9 9.6 1.5 1.1 4.2 2.8 2.5 4.9-5 8-13.5 13.6-22.7 15.5-13.9 2.8-28.1-.6-40.8-6.1-8-3.4-15.1-8.3-22-13.5-7.7-2.8-16.6-1.2-23.9 2.1 5.4 8.5 12.6 15.8 20.1 22.6 5 4.7 11 8.5 17.9 9.8-1.2 6.1-6.4 10.4-12.4 11.7-13.5 2.6-27.6 0-40.1-5.3-6.4-2.9-13.1-6.5-16.4-13.1-4.2-5.8-9-11.9-15.8-14.2-.4.2-1.1.6-1.5.9-1 7.9-2.9 15.8-7.9 22.3-5.2 7.4-12.8 12.6-21.3 15.3-10.2-10.3-15.9-24-20-37.8-7.7 6-16.4 10.5-25.1 14.8-13.1 6.3-26.6 11.8-40.8 15.2-7.9 1.7-16.2 3.3-24.2 1 9-4.4 17.3-10.4 23.2-18.5 4.9-6.9 7.2-15.1 9.4-23.2-7.9 2.5-15.7 4.9-23.4 8.1-2.3.9-4.7 2-7.2 2-17.3.1-34.2 4.2-51.5 5-12.4.4-25.8.9-36.8-5.8-6.5-3.7-10.2-10.4-12.1-17.3 21.7-8.1 45.5-6.6 67.5-14 8.6-2.8 16.6-7.4 23.8-12.8-16.7 2.3-34.2 3.2-50.2-3.2-9.7-3.6-20.1-9.9-30.7-6-14.4 6.9-30.3 10.3-46.1 10.9-12.3.1-25.1-1.5-35.9-7.7-9.2-5.3-15.9-14.2-18.9-24.3 12-1.8 23.3 4.3 35.3 4.4 3.9 0 7.9-1.3 10.7-4.2 1.8-2.3 5-1.6 7.6-2 24.5-1.5 45.8-17.4 70.5-17.9 6.5-.2 12.8 3.1 19.3 1.5-9.6-6.3-21.1-8.1-30.3-14.7-25-15.6-58-18.3-84.8-5.3-4.3 2.5-9.3 1.3-14 1.5-15.6-.5-31.3-1.6-46.5-5.5-7.6-2.2-15.8-4.8-21.3-10.8-2.5-2.6-3.1-6.1-3.4-9.4 32-7.9 65.1-14.8 93.3-32.6 10.9-3.3 22.4-.9 33.6-.2 17.9 2.1 35.7 5.2 53.4 9.1 4.5.7 7.6 4.5 11.7 6.5 19.4 10.2 43.8 9.2 63-.9 9.6-5 18.2-12.6 22.8-22.6 3.7-7.4 4.5-15.7 4.8-23.8 2-31.8 3.8-63.8 1.2-95.7-2.1-27-8.1-54.7-24-77-11.7-15.9-24.7-30.9-39-44.4-13.5-12.3-28.6-22.9-45.5-29.6-23.2-9.2-48.9-11-73.4-6.9-10.7 2-17.3 11.4-22.8 19.9-4.9 7.9-11.2 15.3-20 18.8 6.5 8 9.9 19.1 6.5 29.2-2.6 8.6-9.2 15.1-16.4 20-2.6 1.6-4.3 4.3-4.3 7.4-.6 6.9 1.1 14.2-2.2 20.6-2.8 4.8-2.1 11.5-7 15.1-5.2 3.9-12.1 1.3-17.5-.7-2.2 10.7-3.8 21.6-7.7 31.9-2.9 7.5-7.5 14.5-13.5 19.6-2.6 2.2-6.1 3.2-9.4 2.3-3.9-3.2-3.9-9.1-7.6-12.4-2.5-2.1-5.3.5-7.6 1.5.7 8.6 1.3 18.3-3.9 25.6-3.7 5.6-10.1 8.1-15.6 11.4-2.9 2-7.1 2-9.7-.5-3.3-2.8-6.7-5.9-11.3-6.3.7 14.8-15.9 26.9-29.8 21.7-3.6-.9-3.9-5-6.3-7.2-2.2-2.5-5.9-2.2-8.8-1.5-7.9 2.2-14.7 7.6-23.2 7.4-4.7.2-9.8-2-11.7-6.5-3.6-8.5-.2-18.3 4.9-25.4-5.2-6.1-11.2-13.1-10.7-21.7.4-6 5.8-9.8 10.7-12.3-.4-2.9-1.5-7 1.8-8.6 7.1-3.6 15.5-.9 23.1-2.8-.4-2.5-2.6-3.7-4-5.2-4-3.6-8-8.5-7.4-14.1.7-4.7 4-8.5 7.7-11.3 6.7-5.5 15-9.1 21.2-15.1 4.2.9 9.8 3.2 12.9-1 3.7-5.6.6-12.5-1.5-18.2 9.6-5.9 20-11.5 31.4-12.1 6.3-.5 12.5 1.6 17.1 5.9 2.5-.2 4.8-.7 7-1.7-.6-6.1-3.7-11.5-4.7-17.5 14.8-5.2 31.8-10.8 47-3.9 6.9-14.7 22.8-23.7 38.9-24 7.1-10.1 15.9-19.3 19.6-31.3-12.3-9.2-28.3-10.3-42.9-8.2-21.6 3.2-42.1 11.3-62.2 19.5-2.6 10.1-10.4 18.5-20.2 22.1-5.9 2.1-12.3 1-17.9-1.3.7-3.7 2.6-7.9.5-11.4-.9-2-4-2.1-5.2-.4-2.6 3.2-2.3 7.9-5.3 10.8-8.2 9.8-22.1 13-34.5 12-6.4-.2-12.6-2.8-16.7-7.9 1.8-3.4 3.2-7 2.9-10.9-3.7-1.2-7.6-1.2-11.3-.1-11.9 3.6-25.5 1.2-35.3-6.4-5.8-4.5-9.1-11.5-9.6-18.8 2.5-2.5 7.5-5.8 4.9-9.7-6.1-5.2-14.7-6-21-11-3.3-3.4-5.3-8.1-5.4-12.9-.1-6.7 4.2-12.9 9.9-15.9 9.8-5.9 23.9-5.5 32 3.1-2.5-3.9-3.8-9.3-.6-13.2 5.4-6.1 14.2-6.9 22-6.3 5.3.2 10.2 2.7 14 6.3 2.5.2 5.5-.7 7.4 1.5 4.2 4.3 3.1 12.9 9.8 14.5-1.1-3.9-1.8-8.7 1.3-11.8 3.8-3.4 9.1-4.3 14-4 5.5-.1 10.4 2.5 15.7 3.7 3.3.5 5.4 3.7 6 6.9 1.2 5 .6 10.4 2.6 15.3 1 2.7 3.8 3.9 6.3 5.2 1.7-3.9 3.8-8.1 7.9-9.9 4.3-2.1 9.3-.7 13.2 1.7 7.7 4.9 12.5 13.5 13.5 22.4 32.3-2.6 64.4-7.7 96.7-9.6 7.6-.4 15.3-.5 22.9.6-8.6-10.4-12.5-24.4-11.8-37.9.1-8.2 2.7-16.3 7.5-22.9-9.9 2.1-19-8.2-17.7-17.7.6-3.7 4.3-5.2 7.6-6-1.2-11.4-3.3-22.9-1.6-34.3.9-4.3 3.1-8.7 7.1-10.7 3.1-1.6 6.6-1 9.9-1-.7-7.1-.9-14.5 1.2-21.5 1.8-6.7 5.4-12.9 9.1-18.9 5.8 1.8 12.4 1.6 17.3-2.2 4.5-3.2 6-8.8 6.9-14 8.6-2.6 17.7-1.1 26.5-1.7 5.9-.4 11.2-4.2 17.2-3.6 8.5.2 17.2 7.6 16.6 16.4-.2 4.5-3.6 8-7 10.5 2.9 2.3 5.9 5.2 6.6 9 2 9.9-1.7 20.7-8.7 28-2.7 1.5-6.3.2-8.8 2 4 3.6 9.3 4.9 14.6 5.5 3.3 5.6 2.8 12.9-.7 18.3-6.4 10.2-16.7 16.8-26.5 23.3 1.8 3.2 3.7 7.2 1.7 10.9-2.7 4.9-8.1 7.6-12.5 10.7-3.7 2.9-8.8 2-12.6 4.5-5 2.9-8 9-13.6 10.9-5.8.5-12.3 1.1-16.6 5.6-2.5 2.8-1.8 6.9 0 9.8 4.7 8.1 12.4 13.9 18.2 21.2 15.2 2 30.7 2.1 45.8 4.7 23.4 5 46.5 13.2 66.9 26.1 15.5 9.8 28.9 22.6 40.2 37 9.1 11.5 17.7 23.7 24.8 36.6-.1-61.1 5.9-122.4-1-183.4-3.3-30.4-6.9-61.6-20.4-89.4-8.6-18.2-21.7-33.7-35.9-47.6-11.4-11.3-25-19.9-39.5-26.7-23.2-11.2-48.1-18.5-73.2-23.8-14.7-3.1-29.8-1-44.3 2.1-21.1 4.7-41.3 12.1-61.9 18.2-12.3 3.4-20.7 14.1-26.7 24.7-3.8 6.9-6.9 14-9.2 21.5-1.2 4.4-4.9 7.7-5.9 12.3-2.3 10.4 3.2 21.2-.6 31.5-1.5 4-5.3 6.4-9 8.2-2.2 11.5-6.4 23.2-14.6 31.9-5 5.3-11.7 8.8-18.8 10.2-1.6-6.3-2.5-12.6-5.2-18.5-2.6 9.4.5 20-4.9 28.7-5.8 9.8-16.9 13.9-26.6 18.8-5 2.3-10.2 6.7-16.1 4.9-5.4-2.2-6-8.8-7.9-13.6.1 10.4-6.4 21.3-16.9 23.8-6.3 1.6-12.6-1.7-16.2-6.7-9.3 4.9-19.6 8.8-30.3 8.2-5.2-.1-11-2.1-13.4-7-2.9-5.6-1.6-12.3-.1-18.2 1.7-1.2 4.2-2.1 4.5-4.4 1-6.5-4.8-12.8-2-19.3 3.7-4.7 10.7-5.4 13.9-10.7 2.1-2.7 1.3-6.3-.1-9-3.4-6.6-9-12-11-19.3 10.7-14.1 28.9-18 45.3-21.5-2.5-5.2-3.6-11.7.5-16.3 6.7-8.2 17.8-11.5 28-12.1 1.3-2.5 2.3-6.1 5.8-6.3 8-1.1 14.5 7.1 22.3 4.8 3.2-4.5 5.9-9.9 11.4-12 8.5-3.2 17.1.9 25.3 2.8 7 2.1 14.5 2.8 21.6.9 1.2-12.8 8.3-24 17.4-32.8 13.6-13 30.3-22.7 47.6-29.7-28.7-15.1-56.2-33.4-79.6-55.8-9.6-5-21.3-1.1-30.9-6-2.9-1.5-4.3-4.5-5.3-7.5-6.5 5.6-15.7 6-23.8 5.4-7.7-.9-15.7-3.1-21.7-8.2-3.2-2.7-4.4-7.2-2.9-11.2 1.7-3.9 5.6-6.6 7.2-10.7-.1-.4-.4-1-.5-1.3-11 1.2-21.7 6.7-33 4.4-3.7-.6-5.8-3.9-7.5-7-4.3-1.7-9.6-3.6-11-8.5-2-7.7 3.9-14.2 5.5-21.3-5.2-1.3-10.5.1-15.7-1.2-14.7-2.3-27.5-14.1-30.3-28.8-.6-4.2-3.1-8.5-2-12.8 3.1-4.5 9.1-4.9 13.2-8.2-4.9-8.2-8-18.6-3.7-27.8 7-14.8 26-20.9 41.1-16.6 3.1 1.6 5.3 4.3 8.6 5.6 7.2-2.5 11.7-12.1 20.2-9.9 9.2 3.3 20.6 5.9 25.4 15.3 4.5 8.5-2.2 18 1.5 26.6 5.6.9 9.9-4.4 15.6-4 4.2-.1 6.9 3.7 10.7 4.8 4.5 1.5 8.1 5.4 9.4 9.9 2.8 8.8-.7 18.9 3.7 27.4 2.3 4.4 7.7 2.9 11.8 3.4 5.2.4 9.7 4 11.5 8.8 3.4 9.2 1.7 19.3 3.3 28.7.4 4.2 4.4 6.4 5.5 10.2 3.3 9.2 4.4 19.1 9 28 2.8 5.9 8.3 9.8 12.1 15.1 11.2 13 29.1 16.2 42.6 26 10.4 6.5 22.2 13.5 35.1 11.8 5.6-.5 47.6-3.4 63.7-6.9 4.7-.9 8.6-3.7 11.9-6.9-3.2-3.8-6.7-8.6-4.8-13.9 3.9-6.5 12.5-7.6 16.8-13.6 1.3-3.1-.9-6-2.6-8.2.4-7.1.2-15.5 5.5-21 3.4-3.4 8.6-2.9 13-2.5 1.7-12.5 0-26.4 7.5-37.3 2.3-3.8 6.4-5.9 9.9-8.5 1.6-2.6 1.8-6.5 5.3-7.5 5.6.5 9.2 5.9 14.5 7.4 2.2.7 4.2-.7 6.1-1.7-2.5-5.6-4-12.3-1.2-18 4.7-9.8 15.8-14.6 26.1-15.5 4.3-.7 7.7 2.8 12 2.5 5.9-.4 10.4-4.5 15.8-6.3 5.8-2 12.8-2.7 18 1.2 7.4 5.3 9.8 15.1 9.3 23.7-.1 7.7-3.8 15.7-10.8 19.5 4.2 1.2 8.8 3.2 10.3 7.7 1.8 7.2-2.3 14.1-6.9 19.4-4.2 4.5-8.8 9.2-15 10.9-3.8-.4-7.6-1.2-11.4-.5-2.5 6.6 2.9 13.4.7 20.1-1.5 2.8-4.7 3.4-7.5 3.9-8.2 7.7-18 14.1-29.3 15.8-6.1 1.2-12.4.5-18.4-.6-5.2 4.9-9 11.7-15.7 14.6-5.8 1.6-11.8-1.6-17.5.1-5.3 1-11.5 2.8-14 8-.1 3.9 3.9 5.9 6.9 7.4 8.1 3.4 16.8 5.3 25.1 8 24.9 7.7 49.8 16.7 71.9 31 14.5 9.3 26.6 21.6 38.3 34.2 19.1 22 34.1 48.1 40.4 76.8 8.2-58.3 17.8-116.7 17.2-175.7-.4-34-4-68.1-11.8-101.2-2.9-12.1-5.4-24.7-11-35.8-9.9-19.3-25.5-35-42.1-48.7-26.7-21.2-56.3-40.6-89.9-48.6-10.1-2.1-20.7-4.8-30.9-1.6-12.1 3.7-21.5 13.2-27.8 23.9-4 7.6-4.9 17.7-12.8 22.7-4.3 2.9-9.6-1.3-14 1-1.5.9-2.5 2.5-2.9 3.9-2.2 7.1-.5 15-2.8 22.1-2.7 5.5-7.7 10.8-14.2 11-5.8.6-11.5-1-17.2.2-3.9 1.2-3.8 5.6-4.2 9-9.9 2.7-16.8 11.2-26.3 14.7-5.2 1.8-10.7-.4-14.1-4.3-.7 6.1-3.4 12.4-9 15.6-8.1 5-18.8 3.1-26-2.6-5 3.8-11.7 5.6-17.8 3.7-5.6-2-9-8.1-8.6-14 .2-5.8 3.9-10.5 5.2-15.9 1.6-6.6 1.7-13.6 4.9-19.9 2.2-4 6.3-6.5 10.4-8.1-.9-7.5-.4-15.9 5.3-21.6 8.7-8.6 21.3-10.5 32.9-12.4-.4-3.8-1-7.9 1-11.3 3.1-6.4 10.1-9.9 16.9-10.5 3.8 0 4.8-5.2 8.6-5.4 8.1-1.6 15.6 5.6 23.4 2.5.6-1.8 1.3-3.7 2-5.5 4.4-3.9 10.3-5.9 16.2-5.4 8.3.4 16.2 4 24.5 3.6 5.6-.2 9.4-5.2 11.5-9.8 2.3-.1 4.8-.4 7.1-.5-2.5-2.5-4.9-4.8-7.5-7.1-12.9.4-21.5-10.9-33.2-13.6-5.6-1.5-10.4 3.3-15.9 2.5-11-.7-18.5-11-29.4-12-4.4-.7-7.9 2.9-12.3 2.9-8.2.1-16.6.9-24.5-1.2-2.6-.7-6.4-2.2-5.8-5.5.9-6.1 7.2-8.3 12.3-10.1-3.3-3.6-7.9-5.4-11.4-8.6-11.4 8.2-26 7.7-39.4 7.5-9.2 2.7-19.3-.6-25.6-7.5-2.8-2.5-4.5-6.6-2.9-10.3 2.1-2.6 5.5-3.2 8.6-4 2.5-2.3 4.3-5 5.4-8.1-9.4-3.7-19.9.5-29.4-2-2-.5-3.2-2.1-4.5-3.3-3.4.4-7.1 1.1-10.4 0-9-3.4-13.1-15.9-7.2-23.7 5.6 2.1 12.3 2.7 17.4-1.1-4.2-5.8-12-2.2-17.8-4.4-9.2-3.3-17.3-9.8-22.3-18.2-2.1-3.2-3.6-7.9-.9-11.2 2.7-3.1 7.2-2.8 10.9-3.4-5.2-8.2-14.7-14.1-16.2-24.3.2-8.1-.6-17.3 5.2-23.8 6.6-7 16.9-9.3 26.3-9 7.2.1 14.2 2.5 20.5 6 9.2-1.7 17.9-5.8 27.2-5.9 5.8 0 11.5 3.4 13.7 8.8 1.6 2.8 3.1 7.5 7.1 7.1 5-1.5 9.7-4.3 15-5.2 7.2 7.9 16.8 13 24.3 20.5 4.5 4.5 8.1 10.5 8.1 17.2.1 3.7.5 7.2 1.3 10.8 2.2-3.2 4.5-6.3 7-9.2 6.5.7 12.6 4.4 16.2 10.1 7.6 11.9 9 26.4 9.9 40.1 5.5-3.4 10.1-8.5 16.4-10.4 4-1.2 8.1.6 11.5 2.7.2 12.9.2 26.4 5.6 38.4 2.8 6.4 8.1 11.5 14.1 15.1.6 8 2.9 16.3 9 21.8 5.9 6.1 14.5 8.1 22.2 11.2 16.3 6.1 33 13.1 50.8 12.8-4.7-7.1-13.6-9.1-19.6-14.7-3.8-3.1-6.4-7.6-6.3-12.6-3.6 1.6-7.4 2.9-11.2 2.3-8-1-14.4-6.1-21-10.1-2.9-1.8-7.1-4.4-5.9-8.6 1.5-4 3.9-7.5 5.4-11.5-11.9-3.2-20.7-13.5-24.7-24.9-1.5-4.9-2.5-10.8.6-15.3 2.2-3.4 7.1-3.9 9.2-7.2l-.2-1.2c-4.2-2.5-9-3.7-13.4-5.6-1.1-7.7-5.5-14.4-7.1-22-.2-4.8-1.5-9.4-1.3-14.1 1.7-5.6 9.1-6 11.5-11.2-3.3-.2-7.1 0-9.7-2.3-6.7-5.4-7.9-15.1-6.7-23.1.9-4.4 3.1-9.7 8.1-10.8 2.9-.9 6.5-1.5 8.3-4.2 3.7-5.5 3.2-12.6 2.1-18.9 10.4-12 30.3-15.2 43.3-5.6 5 3.8 7.4 10.3 13.4 12.9 2-2.3 3.6-5.2 6.4-6.5 7.2.1 12.4 6.5 15.2 12.6 2.3 5.6 5.2 11 7.9 16.6-2.8 6.7-7.1 13.1-7.5 20.7 4.8-3.3 8.5-9.4 15.1-9.2 3.6 0 5.5 3.7 6.5 6.6 3.1 10.2 1.7 21 3.8 31.3.5 2.9.9 6.4-1.3 8.6-2.8 2.3-6.6 3.1-9.6 5.3-1.5 1.5-1.1 3.8-1.5 5.8 5.4-1.6 12.9-.7 14.7 5.4 1 5.4.7 11 2.3 16.3 1 11.9-11.5 18.3-14.5 28.9 3.7-.2 8.1-1.5 11.3 1 4.5 3.2 4.7 10.2 2 14.6-2.3 4.2-8.1 5-9.8 9.7-3.7 8.1-1.2 17.2 0 25.6 1.3 6.9 2.2 13.7 2 20.9 13 2.1 25.3 7.4 36.8 13.6 12.1 6.7 25.1 11.9 36.8 19.7 23.6 15.5 45.9 33.4 64 55 7.5 9.2 14.7 19.4 16.7 31.4-.6-34.5-2.8-69.1-1.3-103.7-1-5.4-7.1-9-6.5-14.8.1-3.9 3.8-7.1 2.6-11-2.5-3.3-6.9-3.3-10.4-4-.2-7-6.3-11.2-10.1-16.3-2-2.2-1.6-5.3-1.8-8 2.1-.6 4.5-.6 6.1-2.5 5.9-7.1-1-20.9-10.7-17.9-1.1-1.8-2.1-4.4-4.5-4.7-4.5-.6-9.2.2-13.5-1.7.4-5.8-.2-11.7-.5-17.4-.1-3.6-.1-7.7 2.9-10.1 2.8-1.3 6.1-1.2 9.1-2.1 2.1-1.3.2-4.2-1.6-4.7-2.3-1.3-4.9-.6-7.2 0-.2-5.4-5.5-8.2-8.1-12.5 5.6-11.3 9-24.3 6.6-36.9-.6-6.1-3.7-11.7-4.2-17.7 5.2-5.9 13.6-3.8 20.4-5.5-2.5-2.9-5.6-5-7.5-8.5-5.2-10.7-2.5-24.4 6-32.5 2.7-.7 5.8-1 7.7-3.2 3.2-3.8 4.7-9 8.6-12.1 2.1-3.7 7.1-4.4 11.9-5z" fill="#ffe600"/></svg>