<?xml version="1.0" encoding="utf-8"?>
<!-- Generator: Adobe Illustrator 13.0.2, SVG Export Plug-In . SVG Version: 6.00 Build 14948)  -->
<!DOCTYPE svg PUBLIC "-//W3C//DTD SVG 1.1//EN" "http://www.w3.org/Graphics/SVG/1.1/DTD/svg11.dtd">
<svg version="1.1"
	 id="svg1" xmlns:svg="http://www.w3.org/2000/svg" inkscape:version="0.43" xmlns:dc="http://purl.org/dc/elements/1.1/" xmlns:sodipodi="http://inkscape.sourceforge.net/DTD/sodipodi-0.dtd" xmlns:inkscape="http://www.inkscape.org/namespaces/inkscape" xmlns:rdf="http://www.w3.org/1999/02/22-rdf-syntax-ns#" sodipodi:docbase="D:\Mis documentos\Comptabilitat\Tercer Examen\Wikipedia anglesa\Bèlgica" sodipodi:docname="spain_asturias.svg" xmlns:cc="http://web.resource.org/cc/" sodipodi:version="0.32"
	 xmlns="http://www.w3.org/2000/svg" xmlns:xlink="http://www.w3.org/1999/xlink" x="0px" y="0px" width="748.392px"
	 height="495.176px" viewBox="-86.66 -51.253 748.392 495.176" enable-background="new -86.66 -51.253 748.392 495.176"
	 xml:space="preserve">
<sodipodi:namedview  inkscape:current-layer="svg1" inkscape:window-y="58" inkscape:window-x="44" inkscape:cy="287.82702" inkscape:cx="372.04724" inkscape:zoom="0.75192064" inkscape:window-width="808" inkscape:window-height="540" id="base">
	</sodipodi:namedview>
<path id="path583" fill="#0066FF" d="M-86.66-51.253v495.176h748.392V-51.253H-86.66z"/>
<path id="path584" sodipodi:nodetypes="cccccccccccccccccccccccccccccc" fill="#F7D517" d="M268.727,200.114
	c6.438,5.701,12.369,11.587,18.322,16.606c0,7.803,0.906,136.631,0.019,154.773c-12.844,3.645-13.131,15.293-8.498,21.908
	c3.344,4.648,5.206,6.139,8.11,6.078c12.304,0.27,16.699,0.227,35.091,0.223c3.062,0.297,7.245-1.77,11.766-6.746
	c3.175-6.076,2.49-17.373-10.774-21.475c-0.547-10.975-1.217-146.902-1.458-154.797c5.709-5.355,12.081-11.461,17.761-16.484
	c17.361-0.295,81.329-0.312,92.4-0.266c9.507,13.066,34.407,8.42,17.247-7.076c9.933-0.063,18.062-0.606,18.114-8.062
	c0.195-9.187-7.071-9.411-19.437-9.255c19.425-17.404-1.27-23.239-16.311-8.072c-9.557-0.089-78.113,0.235-92.309-0.06
	c-5.452-5.055-14.176-13.468-17.915-17.519c-0.019-8.951-0.277-105.377-0.325-119.865c19.177-18.172,10.576-30.74-7.667-14.09
	c-0.14-11.112,0.088-19.905-8.032-20.073c-7.598,0.197-9.629,8.747-9.066,19.772c-17.521-16.604-24.928-3.823-7.604,14.795
	c-0.732,8.4-1.314,104.64-1.306,119.624c-5.384,4.945-14.136,13.456-18.462,17.425c-10.026-0.199-77.625,0.035-90.629,0.299
	c-14.763-14.855-34.8-8.51-14.237,8.244c-12.006,0.154-20.719-0.295-20.641,7.911c0.085,8.12,8.583,8.946,21.015,8.837
	c-20.39,15.613-1.991,25.555,14.103,7.52C187.929,200.121,254.649,200.195,268.727,200.114z"/>
<g>
	<polygon fill="#E03940" points="30.365,0.312 16.934,46.791 -28.536,46.325 9.114,73.78 -3.288,116.38 32.817,90.799 
		70.023,117.466 55.791,74.599 94.306,47.299 46.404,47.004 	"/>
</g>
</svg>
