<svg height="720" width="1080" xmlns="http://www.w3.org/2000/svg" xmlns:xlink="http://www.w3.org/1999/xlink"><path d="m0 0h1080v720h-1080z" fill="#fcdd09"/><path d="m0 80h1080v80h-1080zm0 160h1080v80h-1080zm0 160h1080v80h-1080zm0 160h1080v80h-1080z" fill="#da121a"/><path d="m0 0h540v360h-540z" fill="#40104c"/><g fill="#fff" stroke="#40104c" stroke-width="1.44"><path d="m249.88 88.404h40.236v172.33h-40.236zm-2.59-5.129h45.437l-2.965 4.796h-39.668l-2.803-4.796z"/><path d="m253.34 75.036h-6.556v8.666h46.478v-8.666h-6.556v3.7h-6.127v-3.7h-7.493v3.7h-6.127v-3.7h-7.492v3.7h-6.127z"/><g id="a"><path d="m48.217 157.76h40.285v103h-40.285zm40.391-44.24h40.236v147.22h-40.236zm120.982 44.24h40.285v103h-40.285zm-80.64 0h40.285v103h-40.285zm40.33-44.24h40.236v147.22h-40.236zm-125.728 39.96h45.003v4.065h-40.664l-4.34-4.065z"/><path d="m48.633 144.94h-6.556v8.666h46.478v-8.666h-6.556v3.7h-6.127v-3.7h-7.493v3.7h-6.127v-3.7h-7.492v3.7h-6.127zm37.385-36.25h45.437l-2.965 4.796h-39.668l-2.803-4.796z"/><path d="m92.064 100.45h-6.556v8.666h46.478v-8.666h-6.556v3.7h-6.127v-3.7h-7.493v3.7h-6.127v-3.7h-7.492v3.7h-6.127zm117.476 51.04v6.89h40.39v-6.89z"/><path d="m215.24 144.94h-5.697v8.666h40.39v-8.666h-5.698v3.7h-5.324v-3.7h-6.511v3.7h-5.325v-3.7h-6.511v3.7h-5.324zm-86.34 6.55v6.89h40.39v-6.89z"/><path d="m134.59 144.94h-5.697v8.666h40.39v-8.666h-5.698v3.7h-5.324v-3.7h-6.511v3.7h-5.325v-3.7h-6.511v3.7h-5.324zm32.1-36.25h45.437l-2.965 4.796h-39.668l-2.803-4.796z"/><path d="m172.73 100.45h-6.556v8.666h46.478v-8.666h-6.556v3.7h-6.127v-3.7h-7.493v3.7h-6.126v-3.7h-7.493v3.7h-6.127z"/><path d="m48.394 216.6h221.61v14.724h-221.61m0-29.444 221.61-.133v-14.361l-221.61-.23m19.966-14.296v13.998m0 15.233v14.325m0 15.044v14.407m-19.966.253h221.61m-161.274-132.73v13.998m0 119.16v13.998m0-43.84v13.998m0-87.475v58.385m121.01-42.734v43.067m0 15.194v14.325m-80.65-72.586v43.067m0 15.194v14.325m6.73-58.846v13.998m-13.463-13.998v13.998m94.108-13.998v13.998m-13.463-13.998v13.998m-53.572-29.028h39.932m-120.6 0h39.932m60.696-44.2v13.998m0 119.16v13.998m0-43.84v13.998m0-87.475v58.385m-19.96-58.994h39.932m-120.6 0h39.932m40.736-14.88h39.932m-120.6 0h39.932m121.336 29.85 19.966-.01v14.866l-221.61-.01m201.644-44.696 19.966-.075v15.106l-19.966-.151m0-47.089 19.966.322v15.503l-19.966-.152" fill="none"/><g stroke-linejoin="round"><path d="m103.23 165.43-4.908-2.073c1.732-5.167 4.524-9.624 10.405-11.505v6.426m-4.907 3.112-3.436-2.384m5.696-.836-2.061-3.317"/><path d="m114.22 165.43 4.908-2.073c-1.732-5.167-4.524-9.624-10.405-11.505v6.426m4.907 3.112 3.436-2.384m-5.686-.836 2.061-3.317m109.359 84.077-6.196-2.617c2.187-6.522 5.711-12.15 13.136-14.525v8.113m-6.2 3.929-4.337-3.01m7.187-1.05-2.602-4.187m12.892 13.347 6.196-2.617c-2.187-6.522-5.711-12.15-13.136-14.525v8.113m6.19 3.929 4.337-3.01m-7.187-1.05 2.602-4.187m-93.532 13.347-6.196-2.617c2.187-6.522 5.711-12.15 13.136-14.525v8.113m-6.19 3.929-4.337-3.01m7.187-1.05-2.602-4.187m12.882 13.347 6.196-2.617c-2.187-6.522-5.711-12.15-13.136-14.525v8.113m6.2 3.929 4.337-3.01m-7.187-1.05 2.602-4.187m28.858-60.153-4.908-2.073c1.732-5.167 4.524-9.624 10.405-11.505v6.426m-4.907 3.112-3.436-2.384m5.686-.836-2.061-3.317"/><path d="m194.89 165.43 4.908-2.073c-1.732-5.167-4.524-9.624-10.405-11.505v6.426m4.907 3.112 3.436-2.384m-5.696-.836 2.061-3.317m61.939-20.813-4.005-2.036c1.413-5.074 3.692-9.451 8.491-11.299v6.311m-4.006 3.054-2.804-2.341m4.654-.819-1.682-3.257m8.332 10.387 4.005-2.036c-1.413-5.074-3.692-9.451-8.491-11.299v6.311m3.996 3.054 2.804-2.341m-4.644-.819 1.682-3.257m-2.282 96.617-7.063-3.202c2.493-7.98 6.51-14.865 14.972-17.77v9.925m-7.059 4.797-4.95-3.68m8.2-1.28-2.966-5.123"/></g><path d="m108.69 157.03c-3.301.324-5.243 3.262-6.188 8.075v20.646h12.376v-20.646c-.945-4.813-2.886-7.751-6.188-8.075zm121 71.31c-4.168.409-6.62 4.118-7.812 10.195v22.28h15.624v-22.28c-1.193-6.077-3.644-9.787-7.812-10.195zm-80.65 0c-4.168.409-6.62 4.118-7.812 10.195v22.28h15.624v-22.28c-1.193-6.077-3.644-9.787-7.812-10.195zm40.31-71.31c-3.301.324-5.243 3.262-6.188 8.075v20.646h12.376v-20.646c-.945-4.813-2.887-7.751-6.188-8.075zm71.15-31.24c-2.694.318-4.279 3.204-5.05 7.93v11.47h10.1v-11.47c-.77-4.726-2.356-7.612-5.05-7.93zm9.44 81.51c-4.75.5-7.545 5.039-8.904 12.473v41.013h17.808z" fill="#40104c"/></g><use transform="matrix(-1 0 0 1 540 0)" xlink:href="#a"/></g></svg>