<?xml version="1.0" encoding="UTF-8" standalone="no"?>
<!-- Created with Inkscape (http://www.inkscape.org/) -->
<svg
   xmlns:dc="http://purl.org/dc/elements/1.1/"
   xmlns:cc="http://web.resource.org/cc/"
   xmlns:rdf="http://www.w3.org/1999/02/22-rdf-syntax-ns#"
   xmlns:svg="http://www.w3.org/2000/svg"
   xmlns="http://www.w3.org/2000/svg"
   xmlns:sodipodi="http://inkscape.sourceforge.net/DTD/sodipodi-0.dtd"
   xmlns:inkscape="http://www.inkscape.org/namespaces/inkscape"
   height="601"
   width="901"
   id="svg2"
   sodipodi:version="0.32"
   inkscape:version="0.43"
   version="1.0"
   sodipodi:docbase="/home/odder/Desktop"
   sodipodi:docname="Nieznana flaga.svg">
  <defs
     id="defs4" />
  <sodipodi:namedview
     id="base"
     pagecolor="#ffffff"
     bordercolor="#666666"
     borderopacity="1.0"
     inkscape:pageopacity="0.0"
     inkscape:pageshadow="2"
     inkscape:cx="391.16574"
     inkscape:cy="344.83835"
     inkscape:zoom="1"
     inkscape:document-units="px"
     inkscape:current-layer="layer1"
     inkscape:window-width="1152"
     inkscape:window-height="802"
     inkscape:window-x="0"
     inkscape:window-y="40" />
  <metadata
     id="metadata7">
    <rdf:RDF>
      <cc:Work
         rdf:about="">
        <dc:format>image/svg+xml</dc:format>
        <dc:type
           rdf:resource="http://purl.org/dc/dcmitype/StillImage" />
      </cc:Work>
    </rdf:RDF>
  </metadata>
  <g
     inkscape:groupmode="layer"
     inkscape:label="Warstwa 1"
     id="layer1">
    <rect
       style="fill:#f1ed3b;fill-opacity:1;fill-rule:evenodd;stroke:#000000;stroke-width:0;stroke-linecap:butt;stroke-linejoin:miter;stroke-miterlimit:4;stroke-dasharray:none;stroke-opacity:1"
       id="rect1307"
       width="900"
       height="600"
       x="0.5"
       y="0.5"
       ry="0" />
    <path
       sodipodi:type="arc"
       style="opacity:1;fill:#f5c864;fill-opacity:1;stroke:#000000;stroke-width:0;stroke-linecap:round;stroke-linejoin:round;stroke-miterlimit:4;stroke-dasharray:none;stroke-opacity:1"
       id="path7424"
       sodipodi:cx="496.69806"
       sodipodi:cy="276.00003"
       sodipodi:rx="89.150932"
       sodipodi:ry="95.754707"
       d="M 585.84899 276.00003 A 89.150932 95.754707 0 1 1  407.54713,276.00003 A 89.150932 95.754707 0 1 1  585.84899 276.00003 z"
       transform="matrix(2.243386,0,0,2.08867,-549.5855,-275.973)" />
    <path
       style="fill:#9a6920;fill-opacity:1;stroke:#000000;stroke-width:0;stroke-linecap:round;stroke-linejoin:round;stroke-miterlimit:4;stroke-opacity:1"
       d="M 513.77404,237.15194 L 548.62424,238.39694 L 600.95018,237.00998 L 636.76885,239.27403 L 766.93373,293.21489 L 636.867,358.04954 L 596.90462,363.74596 L 557.04212,365.78069 L 537.02796,363.77231 L 487.75769,365.28422 L 364.57276,298.41668 L 486.24778,235.21932 L 513.77404,237.15194 z "
       id="path3061"
       sodipodi:nodetypes="ccccccccccccc" />
    <rect
       style="fill:#ffffff;fill-opacity:1;fill-rule:evenodd;stroke:#000000;stroke-width:0;stroke-linecap:butt;stroke-linejoin:miter;stroke-miterlimit:4;stroke-dasharray:none;stroke-opacity:1"
       id="rect10045"
       width="125"
       height="600"
       x="0"
       y="0.5" />
    <rect
       style="fill:#65bfe3;fill-opacity:1;fill-rule:evenodd;stroke:#000000;stroke-width:0;stroke-linecap:butt;stroke-linejoin:miter;stroke-miterlimit:4;stroke-dasharray:none;stroke-opacity:1"
       id="rect11793"
       width="125"
       height="600"
       x="125.3"
       y="0.5" />
    <path
       style="fill:#9a6920;fill-opacity:1;stroke:#000000;stroke-width:0;stroke-linecap:round;stroke-linejoin:round;stroke-miterlimit:4;stroke-opacity:1"
       d="M 406.59806,420.02701 L 458.66658,306.11798 L 408.73767,175.14671 L 503.30839,226.44396 L 565.66101,100.57319 L 622.08389,226.3458 L 721.04609,175.70936 L 674.99151,300.52362 L 724.16266,419.80448 L 629.31857,375.45512 L 562.45104,500.05181 L 499.25367,376.96503 L 406.59806,420.02701 z "
       id="path12673"
       sodipodi:nodetypes="ccccccccccccc" />
    <path
       sodipodi:type="arc"
       style="opacity:1;fill:#f5c864;fill-opacity:1;stroke:#f5c864;stroke-width:8.22629155;stroke-linecap:round;stroke-linejoin:round;stroke-miterlimit:4;stroke-dasharray:none;stroke-opacity:1"
       id="path14449"
       sodipodi:cx="520.5"
       sodipodi:cy="317.5"
       sodipodi:rx="35.5"
       sodipodi:ry="30.5"
       d="M 556 317.5 A 35.5 30.5 0 1 1  485,317.5 A 35.5 30.5 0 1 1  556 317.5 z"
       transform="matrix(1.690141,0,0,1.967213,-316.7185,-324.0901)" />
    <path
       sodipodi:type="arc"
       style="opacity:1;fill:#f5c864;fill-opacity:1;stroke:#9a6920;stroke-width:15;stroke-linecap:round;stroke-linejoin:round;stroke-miterlimit:4;stroke-dasharray:none;stroke-opacity:1"
       id="path15324"
       sodipodi:cx="534"
       sodipodi:cy="313"
       sodipodi:rx="22"
       sodipodi:ry="22"
       d="M 556 313 A 22 22 0 1 1  512,313 A 22 22 0 1 1  556 313 z"
       transform="matrix(1.510217,0,0,1.469426,-243.0584,-158.9304)" />
  </g>
</svg>
