<?xml version="1.0" encoding="UTF-8" standalone="no"?>
<!-- Created with Inkscape (http://www.inkscape.org/) -->
<svg
   xmlns:dc="http://purl.org/dc/elements/1.1/"
   xmlns:cc="http://creativecommons.org/ns#"
   xmlns:rdf="http://www.w3.org/1999/02/22-rdf-syntax-ns#"
   xmlns:svg="http://www.w3.org/2000/svg"
   xmlns="http://www.w3.org/2000/svg"
   xmlns:sodipodi="http://sodipodi.sourceforge.net/DTD/sodipodi-0.dtd"
   xmlns:inkscape="http://www.inkscape.org/namespaces/inkscape"
   id="svg2"
   sodipodi:version="0.32"
   inkscape:version="0.46"
   width="662"
   height="442"
   version="1.0"
   sodipodi:docname="Cantabrian Lábaru Flag.svg"
   inkscape:output_extension="org.inkscape.output.svg.inkscape">
  <metadata
     id="metadata7">
    <rdf:RDF>
      <cc:Work
         rdf:about="">
        <dc:format>image/svg+xml</dc:format>
        <dc:type
           rdf:resource="http://purl.org/dc/dcmitype/StillImage" />
      </cc:Work>
    </rdf:RDF>
  </metadata>
  <defs
     id="defs5">
    <inkscape:perspective
       sodipodi:type="inkscape:persp3d"
       inkscape:vp_x="0 : 526.18109 : 1"
       inkscape:vp_y="0 : 1000 : 0"
       inkscape:vp_z="744.09448 : 526.18109 : 1"
       inkscape:persp3d-origin="372.04724 : 350.78739 : 1"
       id="perspective9" />
    <inkscape:perspective
       id="perspective2446"
       inkscape:persp3d-origin="372.04724 : 350.78739 : 1"
       inkscape:vp_z="744.09448 : 526.18109 : 1"
       inkscape:vp_y="0 : 1000 : 0"
       inkscape:vp_x="0 : 526.18109 : 1"
       sodipodi:type="inkscape:persp3d" />
  </defs>
  <sodipodi:namedview
     inkscape:window-height="712"
     inkscape:window-width="1024"
     inkscape:pageshadow="2"
     inkscape:pageopacity="0.0"
     guidetolerance="10.0"
     gridtolerance="10.0"
     objecttolerance="10.0"
     borderopacity="1.0"
     bordercolor="#666666"
     pagecolor="#ffffff"
     id="base"
     showgrid="false"
     inkscape:zoom="0.43901235"
     inkscape:cx="372.04724"
     inkscape:cy="161.72666"
     inkscape:window-x="-4"
     inkscape:window-y="-4"
     inkscape:current-layer="svg2" />
  <rect
     style="opacity:1;fill:#b90058;fill-opacity:1"
     id="rect3224"
     width="662"
     height="442"
     x="-1.7167321e-07"
     y="2.2674765e-06" />
  <path
     style="fill:#ffd700;fill-opacity:1"
     d="M 405.69975,367.06801 C 403.4359,366.03996 400.4363,363.68734 399.03397,361.83998 C 395.2235,356.82025 394.78691,352.48816 397.33051,344.93757 L 399.49575,338.51015 L 391.61866,330.99564 C 369.03907,309.4554 351.27416,296.69155 337.30071,291.96893 C 331.97049,290.16747 329.1695,289.84809 321.56948,290.17524 C 312.75034,290.55486 311.84936,290.81403 302.06948,295.78463 C 289.71502,302.06376 274.2743,313.42677 261.01618,325.99625 C 249.22622,337.17384 248.66323,338.05549 251.01944,341.65152 C 255.20563,348.04046 251.80102,362.12751 245.25227,365.51401 C 240.87241,367.77892 232.98991,368.50298 229.30942,366.97847 C 225.2113,365.28097 219.53197,358.49748 218.26282,353.78422 C 215.7193,344.33832 222.71928,334.53088 233.37976,332.60437 C 237.47216,331.86482 240.72817,328.69334 247.86449,318.49569 C 259.32578,302.11775 277.61358,282.9768 289.62475,274.78727 C 300.64646,267.27237 316.67347,260.98113 324.79604,260.98113 C 333.45129,260.98113 351.99287,268.3484 363.81584,276.48518 C 379.4381,287.23669 390.596,299.18382 404.29522,319.82777 C 408.80047,326.61693 413.39926,332.4482 414.61797,332.91705 C 422.90398,336.10472 425.77518,337.74026 428.46679,340.80584 C 431.35873,344.09958 431.50037,344.65588 431.1605,351.38616 C 430.88227,356.89591 430.26457,359.24439 428.40774,361.85207 C 423.72887,368.42294 413.73723,370.71798 405.69975,367.06801 z M 456.56288,325.69372 C 451.54684,323.80528 447.6482,319.48538 445.30293,313.21707 C 444.12757,310.07566 442.65203,306.88621 442.02393,306.1294 C 441.39583,305.37259 435.24206,301.03136 428.34889,296.48224 C 412.59784,286.08738 397.85103,273.74759 389.20496,263.72748 C 378.92488,251.8137 368.94481,230.441 369.01088,220.48113 C 369.07674,210.55559 380.01438,186.3671 389.57426,175.00543 C 398.16203,164.79909 407.81697,156.8487 427.51193,143.76552 C 443.65107,133.04445 444.27898,132.49963 446.3353,127.43319 C 449.70382,119.13368 455.96324,114.76318 464.3878,114.82844 C 475.49533,114.91448 482.57962,124.00914 480.8093,135.91003 C 480.26913,139.54125 479.23454,141.3407 475.77758,144.66161 C 470.45557,149.77416 465.15998,150.95975 458.30541,148.5733 C 450.7812,145.95371 449.77908,146.31164 441.06492,154.73113 C 424.37731,170.85442 408.74757,190.5601 403.13665,202.55036 C 400.26847,208.67951 399.88529,210.57689 399.52298,220.44383 C 399.05858,233.09113 400.46058,238.25849 407.16958,248.62695 C 416.35854,262.82806 438.01743,287.1082 446.50957,292.72803 C 450.1766,295.15476 450.37055,295.1764 454.31319,293.59887 C 463.89516,289.76492 473.89242,292.98974 478.89661,301.52874 C 481.89309,306.64186 481.7167,310.27035 478.10302,317.85289 C 476.53279,321.1477 474.9986,322.67627 471.87521,324.05789 C 466.24355,326.54905 460.47243,327.16558 456.56288,325.69372 z M 191.73724,324.13769 C 184.45157,320.73422 180.71137,313.62373 181.56018,304.79006 C 182.11679,298.99727 184.59826,295.17448 189.38692,292.73268 C 193.67313,290.5471 202.76768,290.4469 206.78371,292.54102 C 208.48169,293.42642 210.78556,293.82907 212.16813,293.48207 C 215.52467,292.63963 236.46751,271.36275 244.65097,260.48113 C 256.15383,245.18566 263.18567,227.97328 262.00481,218.00279 C 260.40855,204.52488 248.66174,185.36189 227.35401,161.47571 C 221.69112,155.12755 215.73573,148.99218 214.11983,147.84156 C 211.25003,145.79808 211.05592,145.7891 205.75953,147.45502 C 199.44845,149.4401 194.67916,148.93918 188.79649,145.67339 C 180.93343,141.30818 178.45657,129.90016 183.66355,122.03188 C 187.64016,116.02282 191.54483,113.98936 199.1155,113.98487 C 209.00075,113.979 213.20727,117.27043 217.30226,128.21529 C 218.74203,132.06342 220.19605,134.05742 222.55452,135.41808 C 259.62278,156.80376 285.04613,187.02421 289.36023,214.8293 C 292.22189,233.27314 282.98612,252.53779 261.33645,273.28336 C 253.68763,280.61276 246.09095,286.60856 236.56057,292.83812 C 218.63128,304.55766 216.31584,306.50722 216.31584,309.88384 C 216.31584,311.37199 215.02653,314.6226 213.45071,317.10741 C 208.67119,324.64393 199.30948,327.67502 191.73724,324.13769 z M 321.87366,245.48901 C 316.92546,243.72629 313.76267,241.37853 309.88945,236.59304 C 307.23869,233.31793 306.79959,231.88959 306.47648,225.49117 C 305.86578,213.39748 309.10348,206.76081 317.70524,202.47438 C 328.63645,197.02712 342.38626,200.46241 349.00868,210.29531 C 355.48775,219.91536 354.11087,231.43466 345.44401,240.11821 C 338.8241,246.75086 330.64657,248.61421 321.87366,245.48901 z M 314.81584,180.09485 C 291.35603,173.27669 267.98259,152.64697 248.79771,121.82636 C 241.28453,109.7564 239.64904,107.98113 236.04266,107.98113 C 231.53728,107.98113 226.37657,105.04765 223.22279,100.69398 C 217.8258,93.243646 218.41759,86.477426 225.12173,78.982576 C 231.71595,71.610626 242.39021,71.243186 249.86253,78.130926 C 255.97596,83.766086 257.21093,88.874306 254.44209,97.073296 C 252.34985,103.26877 252.3494,103.29937 254.30637,106.46581 C 259.49301,114.85796 286.11992,137.64478 299.94797,145.52503 C 313.99597,153.53063 329.50416,155.09578 341.31584,149.70006 C 352.64951,144.5227 370.04358,131.80591 389.29887,114.6197 L 401.11143,104.07647 L 399.10634,97.507476 C 396.68126,89.562506 397.1971,85.794046 401.40916,80.684076 C 405.63943,75.552026 409.49701,73.781126 416.44595,73.781126 C 427.04885,73.781126 433.31584,79.781466 433.31584,89.933226 C 433.31584,94.440986 432.73405,96.506956 430.45071,100.10741 C 427.7526,104.36189 422.51195,107.98113 419.04957,107.98113 C 416.42324,107.98113 412.33311,112.04471 407.11852,119.83473 C 385.73108,151.78523 364.31119,170.02513 337.55809,179.06825 C 327.76832,182.37741 323.35507,182.57663 314.81584,180.09485 z"
     id="path2452" />
</svg>
