<svg viewBox="0 0 1276.2 847" xmlns="http://www.w3.org/2000/svg"><path d="m0 0h1276.2v847h-1276.2z" fill="#fcdd09"/><path d="m0 0h425.4v847h-425.4z" fill="#0072bc"/><path d="m1276.2 188.3v-94.1h-850.2v-94.2h-94.2v847h94.2v-94.2h850.2v-94.1h-850.2v-94h850.2v-94.1h-850.2v-94.2h850.2v-94.1h-850.2v-94z" fill="#da121a"/><g stroke="#000"><path d="m194.2 772.3s-38.6 85.3-55.8 44.4c0 0 4.9 1.9 8.7-1.9 3.4-3.4 3-6.6-.9-11.3-4.2-5.1-16.3-2.8-18.7 3.2-5.5 14 7.6 32.5 19.5 31.6 31.4-2.1 34.8-35.7 55.6-64.3 1.2-1.9-8.4-1.7-8.4-1.7zm.7-98.1s-38.6-85.3-55.8-44.4c0 0 4.9-1.9 8.7 1.9 3.4 3.4 3 6.6-.9 11.3-4.2 5.1-16.3 2.8-18.7-3.2-5.5-14 7.6-32.3 19.5-31.6 31.4 2.1 34.8 35.7 55.6 64.3 1.1 1.7-8.4 1.7-8.4 1.7z" fill="#fcdd09"/><path d="m324.4 694.2c-5.5 10.6-50.9 28-50.9 28s44.2 16.8 50.3 28l.6 16.4c-22.5-30.6-45-33.5-62.4-34.4-12.3-.6-11.2 6.6-8.9 9.5 20.2 25.7-5.9 33.1-9.8 54.4-.2 1.1-3.2-3.6-4.2-9.8-.6-4 .6-10 .6-10-9.1 14.9-20.4 3-27.4 18 0 0-1.5-2.3-2.3-3-2.1-1.9-8.5-.9-9.5-17.8 0-.6-7.4 1.3-7.4 1.3 4.2-14 39.9-29.5 30.6-38.8-10.6-10.2-11.3 21.9-27.8 24.2-.9.2 2.5-9.3 2.5-9.3-7.8.4-11.2 9.3-11.9 14.6l-1.9-4.9c-7.4-4.2 1.9-25.1-1.5-28.7-2.6-2.8-11.5 8.7-15.3 10.6s-25.3 1.9-14.7 14.9c.8 1.1-2.1-5.9 2.8-6.8 5.5-.9 5.3 5.5 5.3 6 0 2.6-4.9 9.3-12.7 5.5-.4-.2-14.7-10.6 4-25.3 0 0-11.5 7-23.4-5.5-2.6-2.6-6-6-10.2-8.7 4.2-2.6 7.2-5.7 9.8-8.5 12.1-12.5 23.4-5.7 23.4-5.7-18.7-14.7-4.5-25.1-4-25.3 7.6-3.8 12.5 2.8 12.7 5.5 0 .6.2 7-5.3 6-4.9-.9-2.1-7.8-2.8-6.8-10.6 13 11 13 14.9 14.9 3.8 1.9 12.7 13.4 15.3 10.6 3.4-3.6-5.9-24.6 1.5-28.7l1.7-4.9c.9 5.3 4.3 14.2 12.1 14.6 0 0-3.4-9.5-2.5-9.3 16.4 2.1 17.4 34.4 27.8 24 9.3-9.1-26.5-24.6-30.6-38.6 0 0 7.4 1.9 7.4 1.3.9-17 7.4-16.1 9.3-18 .8-.8 2.1-3 2.1-3 7 14.9 18.5 2.8 27.4 17.8 0 0-1.3-6-.8-10 .9-6.2 4-10.8 4.2-9.8 4.2 21.4 30.2 28.5 10 54.3-2.3 2.8-3.4 10.2 9.1 9.5 17.4-.9 39.9-4 62.2-34.6z" fill="#fcdd09"/><path d="m184.5 760.4c2.5-20.8 20-27.6 19.7-37.8-.4-10.2-18.1-20.8-20.2-38.2m25.1 106.3c-13.8-28.7 30.6-38.4 29.3-68.1-1.3-28.2-43.5-40.6-29.5-68.4m64.1 68h-154.3" fill="none"/><path d="m259 563.2c-4.9-13.4-19.1-17.2-27.2-17.4-9.1-.4-23.3 12.1-32 17.4-7.8 4.7-21.7-1.5-24-7-4.9-12.1 2.8-14.4 6.6-13.8 0 0-4.5 8.7 3 7.6 4.7-.8 6-7.8 5.3-10.6-1.5-5.7-9.6-5.1-12.9-4.2-10.4 3-8.7 17.6-5.1 23.1 5.1 8.3 18 9.5 26.1 8.3 12.5-1.9 22.5-14.6 29.9-14.2 1.9 0 4 6.8 2.1 7.2-12.5 2.3-10.8 11.2-10.8 11.2v.2s-1.7 8.7 10.8 11.2c1.9.4-.6 7.4-2.5 7.4-7.4.4-17-12.7-29.5-14.4-8.1-1.1-21 0-26.1 8.3-3.4 5.5-5.1 20 5.1 23.1 3.2.9 11.2 1.5 12.9-4.2.8-2.8-.4-10-5.3-10.6-7.6-1.1-3 7.6-3 7.6-3.8.8-11.5-1.7-6.6-13.8 2.3-5.5 16.3-11.7 24-7 8.7 5.5 22.9 17.8 32 17.4 8.1-.4 22.3-4 27.2-17.4v-15.6z" fill="#fcdd09"/><path d="m321.6 554.3c-1.7 8.9-24.2 16.6-24.2 16.6s22.1 11.5 25.1 20.8l-.6 10.8c-7.2-24.4-34.6-26.3-34.6-26.3 5.9 8.3 11 19.7-3 31 0 0 4.2-10.6 2.1-13 0 0-1.9 6.6-9.8 12.7-3.2 2.5-12.1 2.1-16.1 4.5l3.4-10.8c-4.2 8.7-15.9 9.8-15.9 9.8-.8-3-.4-10.2 3.2-15.7 6.8-10.4 5.3-18 5.3-18-5.9 13-29.1 14.2-33.5 11-.6-.4 5.1-6 5.1-6-2.1.4-7.9-3.8-7.8-4.9.2-1.7 4-5.3 4.7-6.4 0 0-4.3-3.6-4.5-5.3-.2-1.1 5.7-5.3 7.8-4.9 0 0-5.9-5.7-5.1-6 4.3-3.2 27.6-2.1 33.5 11 0 0 1.7-7.4-5.1-18-3.6-5.5-4-12.9-3.4-15.7 0 0 11.9 1.1 15.9 9.8l-3.4-10.8c4 2.3 12.9 1.9 16.1 4.5 7.9 6 9.8 12.7 9.8 12.7 2.1-2.5-2.1-13-2.1-13 14 11.3 8.9 22.7 3 31 0 0 27.6-1.9 34.6-26.3zm-130.3 19.5c-7.6.2-18 5.5-27.4 4.2-6.8-.9-18.9-9.1-18.9-9.1s12.3-6.4 18.5-7.8c10-2.3 20 6.4 27.6 6.6 1.6 0 1.7 6.1.2 6.1z" fill="#fcdd09"/><path d="m191.5 558.7c4.2-.9 3.4 12.1 3.4 12.1 0 1.7.6 11.3-3.4 12.1-4.5-.6-3.2-12.1-3.2-12.1s-.6-12.3 3.2-12.1zm28.2 11.7 78.3.6m-34.4 31 11.2-31.2m-.1 0-11-30.6m-68.8-70.4s-38.6 85.3-55.8 44.4c0 0 4.9 1.9 8.7-1.9 3.4-3.4 3-6.6-.9-11.3-4.2-5.1-16.3-2.8-18.7 3.2-5.5 14 7.6 32.5 19.5 31.6 31.4-2.1 34.8-35.7 55.6-64.3 1.1-1.9-8.4-1.7-8.4-1.7zm.6-98.1s-38.6-85.3-55.8-44.4c0 0 4.9-1.9 8.7 1.9 3.4 3.4 3 6.6-.9 11.3-4.2 5.1-16.3 2.8-18.7-3.2-5.5-14 7.6-32.3 19.5-31.6 31.4 2.1 34.8 35.7 55.6 64.3 1 1.9-8.4 1.7-8.4 1.7z" fill="#fcdd09"/><path d="m325 391.7c-5.5 10.6-50.9 28-50.9 28s44.2 16.8 50.3 28l.6 16.4c-22.5-30.6-45-33.5-62.4-34.4-12.3-.6-11.2 6.6-8.9 9.5 20.2 25.7-5.9 33.1-9.8 54.4-.2 1.1-3.2-3.6-4.2-9.8-.6-4 .6-10 .6-10-9.1 14.9-20.4 3-27.4 18 0 0-1.5-2.3-2.3-3-2.1-1.9-8.5-.9-9.5-17.8 0-.6-7.4 1.3-7.4 1.3 4.2-14 39.9-29.5 30.6-38.8-10.6-10.2-11.3 21.9-27.8 24.2-.9.2 2.5-9.3 2.5-9.3-7.8.4-11.2 9.3-11.9 14.6l-1.9-4.9c-7.4-4.2 1.9-25.1-1.5-28.7-2.6-2.8-11.5 8.7-15.3 10.6s-25.3 1.9-14.7 14.9c.8 1.1-2.1-5.9 2.8-6.8 5.5-.9 5.3 5.5 5.3 6 0 2.6-4.9 9.3-12.7 5.5-.4-.2-14.7-10.6 4-25.5 0 0-11.5 7-23.4-5.5-2.6-2.6-6-6-10.2-8.7 4.2-2.6 7.2-5.7 9.8-8.5 12.1-12.7 23.4-5.7 23.4-5.7-18.7-14.7-4.5-25.1-4-25.3 7.6-3.8 12.5 2.8 12.7 5.5 0 .6.2 7-5.3 6-4.9-.9-2.1-7.8-2.8-6.8-10.6 13 11 13 14.9 14.9 3.8 1.9 12.7 13.4 15.3 10.6 3.4-3.6-6-24.6 1.5-28.7l1.7-4.9c.9 5.3 4.3 14.2 12.1 14.6 0 0-3.4-9.5-2.5-9.3 16.4 2.1 17.4 34.4 27.8 24 9.3-9.1-26.5-24.6-30.6-38.6 0 0 7.4 1.9 7.4 1.3.9-17 7.4-16.1 9.3-18 .8-.8 2.1-3 2.1-3 7 14.9 18.5 2.8 27.4 17.8 0 0-1.3-6-.8-10 .9-6.2 4-10.8 4.2-9.8 4.2 21.4 30.2 28.5 10 54.3-2.3 2.8-3.4 10 9.1 9.5 17.4-.9 39.9-4 62.2-34.6z" fill="#fcdd09"/><path d="m185.3 457.9c2.5-20.8 20-27.6 19.7-37.8-.4-10.2-18.1-20.8-20.2-38.2m24.9 106.3c-13.8-28.7 30.6-38.4 29.3-68.1-1.3-28.2-43.5-40.6-29.5-68.4m64.1 68.2h-154.3" fill="none"/><path d="m193.6 170.5s-38.6 85.3-55.8 44.4c0 0 4.9 1.9 8.7-1.9 3.4-3.4 3-6.6-.9-11.3-4.2-5.1-16.3-2.8-18.7 3.2-5.5 14 7.6 32.5 19.5 31.6 31.4-2.1 34.8-35.7 55.6-64.3 1.1-1.9-8.4-1.7-8.4-1.7zm.6-98.1s-38.6-85.3-55.8-44.4c0 0 4.9-1.9 8.7 1.9 3.4 3.4 3 6.6-.9 11.3-4.2 5.1-16.3 2.8-18.7-3.2-5.5-14 7.6-32.5 19.5-31.6 31.2 2.3 34.8 35.7 55.6 64.5 1.2 1.7-8.4 1.5-8.4 1.5z" fill="#fcdd09"/><path d="m323.7 92.5c-5.5 10.6-50.9 28-50.9 28s44.2 16.8 50.3 28l.6 16.4c-22.5-30.6-45-33.5-62.4-34.4-12.5-.6-11.2 6.6-8.9 9.5 20.2 25.7-5.9 33.1-9.8 54.4-.2 1.1-3.2-3.6-4.2-9.8-.6-4 .6-10 .6-10-9.1 14.9-20.4 3-27.4 17.8 0 0-1.5-2.3-2.3-3-2.1-1.9-8.5-.9-9.5-17.8 0-.6-7.4 1.3-7.4 1.3 4.2-14 39.9-29.5 30.6-38.8-10.6-10.2-11.3 21.9-27.8 24.2-.9.2 2.5-9.3 2.5-9.3-7.8.4-11.2 9.3-11.9 14.6l-1.9-4.9c-7.4-4.2 1.7-25.1-1.5-28.7-2.6-2.8-11.5 8.7-15.3 10.6s-25.3 1.9-14.7 14.9c.8 1.1-2.1-5.9 2.8-6.8 5.5-.9 5.3 5.5 5.3 6 0 2.6-4.9 9.3-12.7 5.5-.4-.2-14.7-10.6 4-25.5 0 0-11.5 7-23.4-5.5-2.6-2.6-6-6-10.2-8.7 4.2-2.6 7.2-5.7 9.8-8.5 12.1-12.5 23.4-5.7 23.4-5.7-18.7-14.7-4.5-25.1-4-25.3 7.8-3.8 12.5 2.8 12.7 5.5 0 .6.2 7-5.3 6-4.9-.9-2.1-7.8-2.8-6.8-10.6 13 11 13 14.9 14.9 3.8 1.9 12.7 13.4 15.3 10.6 3.4-3.6-5.9-24.6 1.5-28.7l1.7-4.9c.9 5.3 4.3 14.2 12.1 14.6 0 0-3.4-9.5-2.5-9.3 16.4 2.1 17.4 34.4 27.8 24 9.3-9.1-26.5-24.6-30.6-38.6 0 0 7.4 1.9 7.4 1.3.9-17 7.4-16.1 9.3-18 .8-.8 2.1-3 2.1-3 7 14.9 18.5 2.8 27.4 17.8 0 0-1.3-6-.8-10 .9-6.2 4-10.8 4.2-9.8 4.2 21.4 30.2 28.5 10 54.3-2.3 2.8-3.4 10.2 9.1 9.5 17.4-.9 39.9-4 62.2-34.6z" fill="#fcdd09"/><path d="m184 158.6c2.5-20.8 20-27.6 19.7-37.8-.4-10.2-18.1-20.8-20.2-38.2m25 106.3c-13.8-28.7 30.6-38.4 29.3-68.1-1.3-28.2-43.5-40.6-29.5-68.4m64.1 68.2h-154.2" fill="none"/><path d="m258.3 262.6c-4.9-13.4-19.1-17.2-27.2-17.4-9.1-.4-23.3 12.1-32 17.4-7.8 4.7-21.7-1.5-24-7-4.9-12.1 2.8-14.4 6.6-13.8 0 0-4.5 8.7 3 7.6 4.7-.8 6-7.8 5.1-10.6-1.5-5.7-9.5-5.1-12.7-4.2-10.4 3-8.7 17.6-5.1 23.1 5.1 8.3 18 9.5 26.1 8.3 12.3-1.9 22.5-14.6 29.9-14.2 1.9 0 4 6.8 2.1 7.2-12.5 2.3-10.8 11.2-10.8 11.2v.2s-1.7 8.7 10.8 11c1.9.4-.6 7.4-2.5 7.4-7.4.4-17-12.7-29.5-14.4-8.1-1.1-21 0-26.1 8.3-3.4 5.5-5.1 20 5.1 23.1 3.2.9 11.2 1.5 12.9-4.2.8-2.8-.4-10-5.1-10.6-7.6-1.1-3 7.6-3 7.6-3.8.8-11.5-1.7-6.6-13.8 2.3-5.5 16.3-11.7 24-7 8.7 5.3 22.9 17.8 32 17.4 8.1-.4 22.3-4 27.2-17.4v-15.1h-.2z" fill="#fcdd09"/><path d="m321 253.7c-1.7 8.9-24.2 16.6-24.2 16.6s22.1 11.5 25.1 20.8l-.6 10.8c-7.2-24.4-34.6-26.3-34.6-26.3 5.9 8.3 11 19.7-3 31 0 0 4.2-10.6 2.1-13 0 0-1.9 6.6-9.8 12.7-3.2 2.6-12.1 2.1-16.1 4.5l3.4-10.8c-4.2 8.7-15.9 9.8-15.9 9.8-.8-3-.4-10.2 3.4-15.7 6.8-10.4 5.1-18 5.1-18-5.9 13-29.1 14.2-33.5 11-.6-.4 5.1-6 5.1-6-2.1.4-7.9-3.8-7.8-4.9.2-1.7 4-5.3 4.7-6.4 0 0-4.3-3.6-4.5-5.3-.2-1.1 5.7-5.3 7.8-4.9 0 0-5.9-5.7-5.1-6 4.3-3.2 27.6-2.1 33.5 11 0 0 1.7-7.4-5.3-18-3.6-5.5-4-12.9-3.2-15.7 0 0 11.9 1.1 15.9 9.8l-3.4-10.8c4 2.3 12.9 1.9 16.1 4.5 7.9 6 9.8 12.7 9.8 12.7 2.1-2.5-2.1-13-2.1-13 14 11.3 8.9 22.7 3 31 0 0 27.6-1.9 34.6-26.3zm-130.2 19.7c-7.6.2-18 5.5-27.4 4.2-6.8-.9-18.9-9.1-18.9-9.1s12.3-6.4 18.5-7.8c10-2.3 20 6.4 27.6 6.6 1.3 0 1.7 5.9.2 6.1z" fill="#fcdd09"/><path d="m191 258.1c4.2-.9 3.4 11.9 3.4 11.9 0 1.9.6 11.3-3.4 12.1-4.5-.6-3.2-12.1-3.2-12.1s-.6-12.1 3.2-11.9zm28.1 11.9 78.3.6m-34.6 30.8 11.2-31.2m.1 0-11-30.6m60.2 421.5c-7.8-20.8-35.7-18.5-35.7-18.5s28 .2 35.2-24.2zm0 124.3c-7.8 20.8-35.7 18.5-35.7 18.5s28-.2 35.2 24.2z" fill="#fcdd09"/><path d="m258.8 804.5s11.5 9.3 19.3 7.4c0 0-8.9 8.5-1.5 15.3 0 0 2.3-8.9 12.9-10.4 8.9-1.3 12.5-8.7 12.5-12.3v.2c.2-3.6-3.4-10.8-12.5-12.3-10.6-1.7-12.9-10.4-12.9-10.4-7.4 6.6 1.5 15.3 1.5 15.3-7.7-1.9-19.3 7.2-19.3 7.2zm63.5-323.2c-7.8 20.8-35.7 18.5-35.7 18.5s28-.2 35.2 24.2zm1-120.4c-7.8-20.8-35.7-18.5-35.7-18.5s28 .2 35.2-24.2zm0-181.7c-7.8 20.8-35.7 18.5-35.7 18.5s28-.2 35.2 24.2zm0-119.5c-7.8-20.8-35.7-18.5-35.7-18.5s28 .2 35.2-24.2z" fill="#fcdd09"/><path d="m321.4-1.5h10.4v850.4h-10.4zm-62 642.8s11.5 9.3 19.3 7.4c0 0-8.9 8.5-1.5 15.3 0 0 2.3-8.9 12.9-10.4 8.9-1.3 12.5-8.7 12.5-12.3v.2c.2-3.6-3.4-10.8-12.5-12.3-10.6-1.7-12.9-10.4-12.9-10.4-7.4 6.6 1.5 15.3 1.5 15.3-7.8-1.9-19.3 7.2-19.3 7.2zm-.6-141.2s11.5 9.3 19.3 7.4c0 0-8.9 8.5-1.5 15.3 0 0 2.3-8.9 12.9-10.4 8.9-1.3 12.5-8.7 12.5-12.3v.2c.2-3.6-3.4-10.8-12.5-12.3-10.6-1.7-12.9-10.4-12.9-10.4-7.4 6.6 1.5 15.3 1.5 15.3-7.7-1.9-19.3 7.2-19.3 7.2zm.6-157.5s11.5 9.3 19.3 7.4c0 0-8.9 8.5-1.5 15.3 0 0 2.3-8.9 12.9-10.4 8.9-1.3 12.5-8.7 12.5-12.3v.2c.2-3.6-3.4-10.8-12.5-12.3-10.6-1.7-12.9-10.4-12.9-10.4-7.4 6.6 1.5 15.3 1.5 15.3-7.8-1.9-19.3 7.2-19.3 7.2zm0-144.8s11.5 9.3 19.3 7.4c0 0-8.9 8.5-1.5 15.3 0 0 2.3-8.9 12.9-10.4 8.9-1.3 12.5-8.7 12.5-12.3v.2c.2-3.6-3.4-10.8-12.5-12.3-10.6-1.7-12.9-10.4-12.9-10.4-7.4 6.6 1.5 15.3 1.5 15.3-7.8-1.9-19.3 7.2-19.3 7.2zm.7-157s11.5 9.3 19.3 7.4c0 0-8.9 8.5-1.5 15.3 0 0 2.3-8.9 12.9-10.4 8.9-1.3 12.5-8.7 12.5-12.3v.2c.2-3.6-3.4-10.8-12.5-12.3-10.6-1.7-12.9-10.4-12.9-10.4-7.4 6.6 1.5 15.3 1.5 15.3-7.7-1.8-19.3 7.2-19.3 7.2z" fill="#fcdd09"/><path d="m390.2 800.3c0 7.8-6.4 14.2-14.2 14.2s-14.2-6.2-14.2-14.2c0-7.8 6.4-14.2 14.2-14.2 8 0 14.2 6.4 14.2 14.2zm0-188.3c0 7.8-6.4 14.2-14.2 14.2s-14.2-6.2-14.2-14.2c0-7.8 6.4-14.2 14.2-14.2 8 .2 14.2 6.4 14.2 14.2zm0-188.1c0 7.8-6.4 14.2-14.2 14.2s-14.2-6.2-14.2-14.2c0-7.8 6.4-14.2 14.2-14.2 8 0 14.2 6.2 14.2 14.2zm0-188.3c0 7.8-6.4 14.2-14.2 14.2s-14.2-6.2-14.2-14.2c0-7.8 6.4-14.2 14.2-14.2 8 0 14.2 6.4 14.2 14.2zm0-188.1c0 7.8-6.4 14.2-14.2 14.2s-14.2-6.2-14.2-14.2c0-7.8 6.4-14.2 14.2-14.2 8 0 14.2 6.2 14.2 14.2z" fill="#fff"/><path d="m352.6 142.4 23.4-23.5 23.5 23.5-23.5 23.2z" fill="#fcdd09"/><path d="m354.3 142.4 7 7.1h7.4v7.4l7.2 7h.3l7-7v-7.4h7.4l7.2-7.1v-.2l-7.2-7.2h-7.4v-7.4l-7-7h-.3l-7.2 7v7.4h-7.4l-7 7.2z" fill="#da121a"/><path d="m366.2 123.6c1.1 1.1 0 4-2.5 6.2-2.5 2.5-5.3 3.6-6.2 2.5-1.1-1.1 0-3.8 2.5-6.2 2.2-2.5 5.1-3.6 6.2-2.5zm19.7 0c-1.1 1.1 0 4 2.5 6.2 2.5 2.5 5.3 3.6 6.2 2.5 1.1-1.1 0-3.8-2.5-6.2-2.3-2.5-5.1-3.6-6.2-2.5zm0 37.3c-1.1-1.1 0-3.8 2.5-6.2 2.5-2.5 5.3-3.6 6.2-2.5 1.1 1.1 0 4-2.5 6.2-2.3 2.3-5.1 3.4-6.2 2.5zm-19.7 0c-1.1 1.1-4 0-6.2-2.5-2.5-2.5-3.6-5.3-2.5-6.2 1.1-1.1 4 0 6.2 2.5 2.3 2.2 3.5 5.1 2.5 6.2zm2.5-45.2c0-1.1 2.6-2.3 5.9-2.6.6 0 1.5-.8 1.5-.8s.9.8 1.3.8c3.4.2 6 1.3 6 2.6 0 1.5-3.4 2.6-7.6 2.6-3.9.1-7.1-1.3-7.1-2.6zm14.9 53.1c0 1.1-2.6 2.3-5.9 2.6-.6 0-1.5.8-1.5.8s-.9-.8-1.3-.8c-3.4-.2-6-1.3-6-2.6 0-1.5 3.4-2.6 7.6-2.6 3.7 0 7.1 1.3 7.1 2.6zm-34.4-19.1c-1.1 0-2.3-2.6-2.6-5.9 0-.6-.8-1.5-.8-1.5s.8-.9.8-1.3c.2-3.4 1.3-6 2.6-6 1.5 0 2.6 3.4 2.6 7.4.2 3.9-1.1 7.3-2.6 7.3zm53.7-14.9c1.1 0 2.3 2.6 2.6 5.9 0 .6.8 1.5.8 1.5s-.8.9-.8 1.3c-.2 3.4-1.3 6-2.6 6-1.5 0-2.6-3.4-2.6-7.4-.1-3.9 1.1-7.3 2.6-7.3zm-31 227.3c0 2.3 1.9 4.2 4.2 4.2s4.3-1.9 4.3-4.2-1.9-4.2-4.3-4.2c-2.3-.2-4.2 1.7-4.2 4.2zm0-66.4c0 2.3 1.9 4.2 4.2 4.2s4.3-1.9 4.3-4.2-1.9-4.2-4.3-4.2c-2.3-.2-4.2 1.7-4.2 4.2zm19.8 33.3c0 15.3-7 27.8-15.9 27.8-8.7 0-15.9-12.5-15.9-27.8s7-28 15.9-28 15.9 12.5 15.9 28z" fill="#fcdd09"/><path d="m389.3 328.6c0-13.2-5.3-24-11.9-25.3-.4 0-1.3 1.7-1.3 1.7s-.9-1.7-1.3-1.7c-6.6 1.3-11.9 12.1-11.9 25.3v.4c0 13.2 5.3 24 11.9 25.3.4 0 1.3-1.7 1.3-1.7s.9 1.7 1.3 1.7c6.6-1.3 11.9-12.1 11.9-25.3v-.2z" fill="#078930"/><path d="m396.8 329c0-1.1-.9-2.1-2.1-2.1-1.1 0-2.1.9-2.1 2.1 0 1.1.9 2.1 2.1 2.1 1.2-.1 2.1-1 2.1-2.1zm-37.4 0c0-1.1-.9-2.1-2.1-2.1s-2.1.9-2.1 2.1c0 1.1.9 2.1 2.1 2.1s2.1-1 2.1-2.1zm30.3 24.5c0-1.1-.9-2.1-2.1-2.1s-2.1.9-2.1 2.1c0 1.1.9 2.1 2.1 2.1s2.1-.9 2.1-2.1zm-23.1 0c0-1.1-.9-2.1-2.1-2.1-1.1 0-2.1.9-2.1 2.1 0 1.1.9 2.1 2.1 2.1 1.1 0 2.1-.9 2.1-2.1zm-5.7-11.7c0-2.3-1.9-4.2-4.2-4.2s-4.3 1.9-4.3 4.2 1.9 4.2 4.3 4.2c2.3 0 4.2-1.9 4.2-4.2zm38.8-.2c0-2.3-1.9-4.2-4.2-4.2s-4.2 1.9-4.2 4.2 1.9 4.2 4.2 4.2 4.2-1.9 4.2-4.2zm-37.3-37.4c0 1.1.9 2.1 2.1 2.1 1.1 0 2.1-.9 2.1-2.1s-.9-2.1-2.1-2.1c-1.1-.2-2.1.8-2.1 2.1zm23.1 0c0 1.1.9 2.1 2.1 2.1s2.1-.9 2.1-2.1-.9-2.1-2.1-2.1c-1.2-.2-2.1.8-2.1 2.1zm5.7 11.7c0 2.3 1.9 4.2 4.2 4.2s4.2-1.9 4.2-4.2-1.9-4.2-4.2-4.2-4.2 1.8-4.2 4.2zm-38.8 0c0 2.3 1.9 4.2 4.3 4.2 2.3 0 4.2-1.9 4.2-4.2s-1.9-4.2-4.2-4.2c-2.4.1-4.3 2-4.3 4.2zm19.5 419.5c0 2.3 1.9 4.2 4.2 4.2s4.3-1.9 4.3-4.2-1.9-4.2-4.3-4.2c-2.3.1-4.2 2-4.2 4.2zm0-66.3c0 2.3 1.9 4.2 4.2 4.2s4.3-1.9 4.3-4.2-1.9-4.2-4.3-4.2c-2.3 0-4.2 1.9-4.2 4.2zm19.8 33.3c0 15.3-7 28-15.9 28-8.7 0-15.9-12.5-15.9-28 0-15.3 7-27.8 15.9-27.8s15.9 12.4 15.9 27.8z" fill="#fcdd09"/><path d="m389.3 702.2c0-13.2-5.3-24-11.9-25.3-.4 0-1.3 1.7-1.3 1.7s-.9-1.7-1.3-1.7c-6.6 1.3-11.9 12.1-11.9 25.3v.4c0 13.2 5.3 24 11.9 25.3.4 0 1.3-1.7 1.3-1.7s.9 1.7 1.3 1.7c6.6-1.3 11.9-12.1 11.9-25.3v-.2z" fill="#078930"/><path d="m396.8 702.4c0-1.1-.9-2.1-2.1-2.1-1.1 0-2.1.9-2.1 2.1 0 1.1.9 2.1 2.1 2.1 1.2-.1 2.1-1 2.1-2.1zm-37.4 0c0-1.1-.9-2.1-2.1-2.1s-2.1.9-2.1 2.1c0 1.1.9 2.1 2.1 2.1s2.1-1 2.1-2.1zm30.3 24.5c0-1.1-.9-2.1-2.1-2.1s-2.1.9-2.1 2.1.9 2.1 2.1 2.1 2.1-.9 2.1-2.1zm-23.1 0c0-1.1-.9-2.1-2.1-2.1-1.1 0-2.1.9-2.1 2.1s.9 2.1 2.1 2.1c1.1 0 2.1-.9 2.1-2.1zm-5.7-11.7c0-2.3-1.9-4.2-4.2-4.2s-4.3 1.9-4.3 4.2 1.9 4.2 4.3 4.2c2.3 0 4.2-1.9 4.2-4.2zm38.8-.2c0-2.3-1.9-4.2-4.2-4.2s-4.2 1.9-4.2 4.2 1.9 4.2 4.2 4.2 4.2-1.7 4.2-4.2zm-37.3-37.4c0 1.1.9 2.1 2.1 2.1 1.1 0 2.1-.9 2.1-2.1 0-1.1-.9-2.1-2.1-2.1-1.1 0-2.1 1-2.1 2.1zm23.1 0c0 1.1.9 2.1 2.1 2.1s2.1-.9 2.1-2.1c0-1.1-.9-2.1-2.1-2.1s-2.1 1-2.1 2.1zm5.7 11.7c0 2.3 1.9 4.2 4.2 4.2s4.2-1.9 4.2-4.2-1.9-4.2-4.2-4.2-4.2 1.9-4.2 4.2zm-38.8.2c0 2.3 1.9 4.2 4.3 4.2 2.3 0 4.2-1.9 4.2-4.2s-1.9-4.2-4.2-4.2c-2.4-.1-4.3 1.7-4.3 4.2zm47.1-171.3-23.5 23.5-23.4-23.5 23.4-23.4z" fill="#fcdd09"/><path d="m354.3 518.6 7 7h7.4v7.4l7.2 7h.3l7-7v-7.4h7.4l7.2-7v-.4l-7.2-7h-7.4v-7.4l-7-7.1h-.3l-7.2 7.1v7.4h-7.4l-7 7z" fill="#da121a"/><path d="m366.2 499.9c1.1 1.1 0 3.8-2.5 6.2-2.5 2.5-5.3 3.6-6.2 2.5-1.1-1.1 0-3.8 2.5-6.2 2.2-2.5 5.1-3.7 6.2-2.5zm19.7-.2c1.1-1.1 4 0 6.2 2.5 2.5 2.5 3.6 5.3 2.5 6.2-1.1 1.1-4 0-6.2-2.5-2.5-2.2-3.7-5.1-2.5-6.2zm0 37.2c-1.1-1.1 0-3.8 2.5-6.2s5.3-3.6 6.2-2.5c1.1 1.1 0 3.8-2.5 6.2s-5.1 3.7-6.2 2.5zm-19.7 0c-1.1 1.1-4 0-6.4-2.5-2.5-2.5-3.6-5.3-2.5-6.2 1.1-1.1 4 0 6.2 2.5 2.7 2.5 3.7 5.3 2.7 6.2zm2.5-45.2c0-1.1 2.6-2.3 5.9-2.6.6 0 1.5-.8 1.5-.8s.9.8 1.3.8c3.4.2 6 1.3 6 2.6 0 1.5-3.4 2.6-7.6 2.6-3.9.1-7.1-1-7.1-2.6zm14.9 53.4c0 1.1-2.6 2.3-5.9 2.6-.6 0-1.5.8-1.5.8s-.9-.8-1.3-.8c-3.4-.2-6-1.3-6-2.6 0-1.5 3.4-2.6 7.6-2.6 3.7-.1 7.1 1 7.1 2.6zm-34.4-19.3c-1.1 0-2.3-2.6-2.6-5.9 0-.6-.8-1.5-.8-1.5s.8-.9.8-1.3c.2-3.4 1.3-6 2.6-6 1.5 0 2.6 3.4 2.6 7.4.2 4.1-1.1 7.3-2.6 7.3zm53.7-14.8c1.1 0 2.3 2.6 2.6 5.9 0 .6.8 1.5.8 1.5s-.8.9-.8 1.3c-.2 3.4-1.3 6-2.6 6-1.5 0-2.6-3.4-2.6-7.4-.1-4.1 1.1-7.3 2.6-7.3z" fill="#fcdd09"/></g></svg>