<svg height="370" width="700" xmlns="http://www.w3.org/2000/svg"><path d="m0 0h700v370h-700z" fill="#4d87ca"/><g fill="#fff" transform="translate(0 .80011)"><path d="m313.56 184.43h28l8.75-28 8.75 28h28l-21 15.75 7 28-22.75-17.5-22.75 17.5 8.75-28z"/><path d="m335.26 240.43c0 7 .71477 12.663 3.2923 17.625 7.2077 13.875-8.7852 40-19.042 66.375h61.25c-10.238-26.327-28-52.5-19.659-66.227 2.2574-3.7152 3.5302-10.837 3.9092-17.773z"/><path d="m357.68 124.93h28l8.75-28 8.75 28h28l-21 15.75 7 28-22.75-17.5-22.75 17.5 8.75-28z"/><path d="m266.98 124.93h28l8.75-28 8.75 28h28l-21 15.75 7 28-22.75-17.5-22.75 17.5 8.75-28z"/><path d="m312.81 68.928h28l8.75-28 8.75 28h28l-21 15.75 7 28-22.75-17.5-22.75 17.5 8.75-28z"/><g transform="matrix(1.75 0 0 1.75 4.742852 -25.572113)"><path d="m169.89 175.15.82071-4.9243c-17.484-20.866-43.152-51.921-55.125-79.199 1.4754 15.192 21.136 41.486 32.246 55.838 7.3956 9.5538 15.064 19.029 22.058 28.285z"/><path d="m131.59 147.52c5.41-3.52 11.37-2.25 16.37-1.25l4 4.7264c-6.5586 2.3729-15.958 2-20.37-3.4764z"/><path d="m122.88 135.6c5.4121-3.5236 10.412-2.5236 15.412-1.5236l4 5c-6.5586 2.3729-15 2-19.412-3.4764z"/><path d="m115.1 123.44c5.6143-3.1916 10.545-1.8926 15.476-.59354l3.6919 5.2316c-6.6894 1.974-15.093 1.0939-19.168-4.6381z"/><path d="m107.61 109.38c5.9371-2.5413 10.691-.69708 15.445 1.1471l3.0814 5.6129c-6.8687 1.2107-15.121-.60696-18.526-6.76z"/><path d="m102.35 92.662c6.4163-.73344 11.4 2.3956 15.426 5.5247l2.4381 6.2605c-6.93-.81-16.37-4.917-17.87-11.788z"/><path d="m112.86 70.482c5.4628 6.9831 7.1398 14.565 3.0665 22.592-6.4347-5.118-7.7374-17.335-3.0665-22.592z"/><path d="m153.52 127.49c-4.5464 4.5867-4.3058 11.601-4.3388 16.7l3.4027 4.7927c3.6516-5.9423 5.4059-16.063.93613-21.492z"/><path d="m144.66 116.88c-4.5464 4.5867-4.4548 11.135-3.4548 16.135l2.79 4.98c3.6516-5.9423 5.1266-15.695.65682-21.125z"/><path d="m136.04 105.52c-4.5464 4.5867-4.5794 9.6856-4.6124 14.784l4.0866 4.9295c3.6516-5.9423 4.9955-14.284.52577-19.714z"/><path d="m131.4 94.538c-5.3602 3.6021-5.9921 10.009-7.028 15.002l2.6324 4.2232c4.7497-5.1074 7.7093-13.022 4.3957-19.225z"/><path d="m125.48 83.439c-5.3542 3.611-6.3819 8.6053-7.4096 13.6l3.0457 5.6324c4.7413-5.1152 7.6878-13.034 4.3639-19.232z"/></g><g transform="matrix(-1.75 0 0 1.75 693.50636 -25.81785)"><path d="m169.89 175.15.82071-4.9243c-17.484-20.866-43.152-51.921-55.125-79.199 1.4754 15.192 21.136 41.486 32.246 55.838 7.3956 9.5538 15.064 19.029 22.058 28.285z"/><path d="m131.59 147.52c5.41-3.52 11.37-2.25 16.37-1.25l4 4.7264c-6.5586 2.3729-15.958 2-20.37-3.4764z"/><path d="m122.88 135.6c5.4121-3.5236 10.412-2.5236 15.412-1.5236l4 5c-6.5586 2.3729-15 2-19.412-3.4764z"/><path d="m115.1 123.44c5.6143-3.1916 10.545-1.8926 15.476-.59354l3.6919 5.2316c-6.6894 1.974-15.093 1.0939-19.168-4.6381z"/><path d="m107.61 109.38c5.9371-2.5413 10.691-.69708 15.445 1.1471l3.0814 5.6129c-6.8687 1.2107-15.121-.60696-18.526-6.76z"/><path d="m102.35 92.662c6.4163-.73344 11.4 2.3956 15.426 5.5247l2.4381 6.2605c-6.93-.81-16.37-4.917-17.87-11.788z"/><path d="m112.86 70.482c5.4628 6.9831 7.1398 14.565 3.0665 22.592-6.4347-5.118-7.7374-17.335-3.0665-22.592z"/><path d="m153.52 127.49c-4.5464 4.5867-4.3058 11.601-4.3388 16.7l3.4027 4.7927c3.6516-5.9423 5.4059-16.063.93613-21.492z"/><path d="m144.66 116.88c-4.5464 4.5867-4.8588 11.135-3.8588 16.135l3.2 4.98c3.6516-5.9423 5.1266-15.695.65682-21.125z"/><path d="m136.04 105.52c-4.5464 4.5867-4.5794 9.6856-4.6124 14.784l4.0866 4.9295c3.6516-5.9423 4.9955-14.284.52577-19.714z"/><path d="m131.4 94.538c-5.3602 3.6021-6.3961 8.5948-7.4321 13.587l3.0364 5.6374c4.7497-5.1074 7.7093-13.022 4.3957-19.225z"/><path d="m125.48 83.439c-5.3542 3.611-5.7758 10.222-6.8036 15.216l2.4396 4.0161c4.7413-5.1152 7.6878-13.034 4.3639-19.232z"/></g></g></svg>