<svg height="300" width="570" xmlns="http://www.w3.org/2000/svg"><path d="m0-.00218h570v300h-570z" fill="#0039ad"/><g transform="matrix(.2375 0 0 .2375 89.039317 -38.36957)"><g fill="#fff"><path d="m787.54 386.01h25.2l7.875-25.2 7.875 25.2h25.2l-18.9 14.175 6.3 25.2-20.475-15.75-20.475 15.75 7.875-25.2z"/><path d="m698.35 413.13h25.2l7.875-25.2 7.875 25.2h25.2l-18.9 14.175 6.3 25.2-20.475-15.75-20.475 15.75 7.875-25.2z"/><path d="m641.21 482.42h25.2l7.875-25.2 7.875 25.2h25.2l-18.9 14.175 6.3 25.2-20.475-15.75-20.475 15.75 7.875-25.2z"/><path d="m624.07 570.99h25.2l7.875-25.2 7.875 25.2h25.2l-18.9 14.175 6.3 25.2-20.475-15.75-20.475 15.75 7.875-25.2z"/><path d="m654.07 659.56h25.2l7.875-25.2 7.875 25.2h25.2l-18.9 14.175 6.3 25.2-20.475-15.75-20.475 15.75 7.875-25.2z"/><path d="m732.64 714.56h25.2l7.875-25.2 7.875 25.2h25.2l-18.9 14.175 6.3 25.2-20.475-15.75-20.475 15.75 7.875-25.2z"/><path d="m841.92 713.13h25.2l7.875-25.2 7.875 25.2h25.2l-18.9 14.175 6.3 25.2-20.475-15.75-20.475 15.75 7.875-25.2z"/><path d="m921.21 661.7h25.2l7.875-25.2 7.875 25.2h25.2l-18.9 14.175 6.3 25.2-20.475-15.75-20.475 15.75 7.875-25.2z"/><path d="m948.35 573.13h25.2l7.875-25.2 7.875 25.2h25.2l-18.9 14.175 6.3 25.2-20.475-15.75-20.475 15.75 7.875-25.2z"/><path d="m939.07 480.99h25.2l7.875-25.2 7.875 25.2h25.2l-18.9 14.175 6.3 25.2-20.475-15.75-20.475 15.75 7.875-25.2z"/><path d="m879.78 415.27h25.2l7.875-25.2 7.875 25.2h25.2l-18.9 14.175 6.3 25.2-20.475-15.75-20.475 15.75 7.875-25.2z"/></g><path d="m661.8 373.21c-12.574 4.1841-72.284 52.718-104.66 77.727l-14.28-23.95-17.86 16.8-10-16.8c-22.414 11.347-34.785 53.887-51.429 79.659l-11.218-16.088-6.6396 38.23-19.789-13.23c-1.6737 29.671 5.9362 78.873-4.4968 93.945-5.4337 4.4981-17.571-20.868-26.006-31.38-4.063 52.52 7.1318 98.473 8.8636 124.95-6.7241-.049-16.094-13.328-26.006-29.318 6.3223 27.989 22.74 75.813 17.435 92.175-6.029.56907-17.086-10.609-26.299-25.958 9.1339 25.649 24.391 64.761 24.156 71.672-7.1429 8.9-21.591-5.4442-28.734-12.597 4.899 24.013 34.7 46.946 33.734 61.883-5.3781 5.1961-20.867-2.5242-29.448-3.7336 15.591 33.703 44.643 56.245 66.591 70.877 1.0646 6.7041-20.31 5.9283-28.896 9.4156 26.906 31.665 78.519 62.615 111.92 81.299l-20.324 13.571c61.739 33.955 133.18 64.833 217.31 70-84.523 31.123-167.41 71.523-184.32 112.31 37.353-5.7946 83.857-20.25 132.97-17.224 34.775-34.726 53.365-78.849 162.78-79.367 84.021-.3803 122.92 41.989 155.71 83.23 32.254-6.7996 84.11 6.0852 125.67 14.789-10.496-48.165-111.95-81.942-179.24-115.16 65.58-4.8176 132.14-16.775 213.73-69.075-18.154.4869-22.831-2.7212-22.76-11.348 31.959-16.45 90.269-50.379 105.83-83.23-9.4383 2.6199-17.936-1.6507-21.121-8.4106 28.529-18.862 58.306-38.159 67.549-69.236-10.045 4.5008-24.062 9.1636-28.23.58435 12.539-18.695 37.734-39.294 35.666-66.753-7.1429 11.361-22.808 22.792-29.951 18.182 5.8492-16.566 20.967-43.033 22.938-66.088-5.4337 17.398-17.936 20.384-26.51 18.945-.1205-14.481 6.908-46.86 16.51-84.026-6.3107 8.9249-17.668 23.408-27.224 22.597 4.7531-35.736 11.355-72.937 10-123.94-8.3334 15.36-16.667 25.69-25 28.23-7.0718-8.1412 1.6386-59.931-5.7142-92.516-4.2682 14.135-11.867 17.704-19.286 16.088l-5.9253-41.883-13.864 21.25c-16.878-43.838-33.665-72.223-49.075-85.032l-9.7079 19.951-20.081-17.516-14.919 23.23c-41.821-44.118-70.279-56.641-100.08-76.721 7.0369 22.385 45.499 60.062 67.938 89.578-10.952-.89798-29.21-6.2193-40.162-1.2175 16.154 15.238 36.348 31.694 61.591 46.932l-21.591 5c18.2 20.759 46.792 40.488 55.876 64.286l-25.666-4.789c12.697 19.583 32.109 33.151 47.727 64.416-4.8985 5.8834-15.185 7.6572-29.367-1.9318 19.057 34.385 32.177 70.778 35.162 98.734l-18.23-15.162c2.2821 36.033 11.822 84.054 11.088 108.02-6.4286 3.1733-12.857-11.68-19.286-24.74-2.0864 40.611-10.107 64.259-18.572 76.169l-8.4-16.15c-3.9984 31.913-12.29 52.1-19.286 69.026l-9.2857-29.74c-9.5179 25.75-18.138 66.625-30.714 74.026l-14.286-21.088c-9.83 19.46-18.52 48.53-31.4 58.93l-9.2857-17.857c-36.025 45.615-59.014 90.855-139.29 94.286-88.188-2.0287-115.02-56.889-152.94-99.448l-7.776 24.448-28.571-55-17.857 16.429-27.857-80.032-10 32.175-19.052-58.08-8.8051 5.2231-19.286-71.169-18.571 22.597 9.3668-106.59-15.795 11.591 32.516-97.808-27.516 2.8083c17.629-9.8019 31.804-40.336 46.299-68.945l-27.727 11.802c14.064-20.183 32.363-40.815 58.734-64.075l-8.7336-10.211c4.7237-17.807 38.827-30.096 53.945-51.088l-43.23 6.8019c20.864-28.17 67.85-73.054 68.23-89.156z" fill="#046e24" stroke="#fff" stroke-linejoin="round" stroke-width="12"/><g transform="matrix(1.1052118 0 0 1.0386938 -1919.3956 217.78488)"><path d="m2358 625.35c68.043 50.178 189.95 50.178 251.39-2.5827 4.6376 105.39-54.989 155.67-123.97 204.04-72.116-49.861-138.79-101.79-127.41-201.45z" fill="#a54a00"/><g stroke="#a54a00" stroke-linejoin="round" stroke-width="8"><path d="m2362.3 626.21c46.901-39.02 153.58-64.412 243.64-4.3046-74.427 62.369-170.38 51.306-243.64 4.3046z" fill="#fff"/><g fill="none" stroke-linecap="round"><path d="m2551.8 622.83c-63.197-6.9799-111.7-1.3463-156.74 20.599"/><path d="m2530.7 635.81c-33.926-4.3972-78.064 3.8818-111.92 16.357"/><path d="m2521.3 606.61c-48.138-5.9001-99.891 6.9625-139.61 26.611"/></g></g></g></g></svg>