<svg fill-rule="evenodd" height="300" viewBox="0 0 169.33334 84.666666" width="600" xmlns="http://www.w3.org/2000/svg"><g transform="matrix(.08063493 0 0 .08063493 45.155552 36.688882)"><g fill="#9000cc"><path d="m0 20v100h60v-20.000001h-40v-79.999999z"/><path d="m80 20v100h60v-20.000001h-40v-20h40v-19.999999h-40v-20h40v-20z"/><path d="m210 40.000003v20h20c5.52285 0 10 4.47715 10 10s-4.47715 9.999995-10 9.999995h-20v20h20c16.56854 0 30-13.43146 30-29.999995 0-16.56854-13.43146-30-30-30zm20-40c-38.65993 0-70 31.34007-70 70 0 38.659927 31.34007 69.999997 70 69.999997s70-31.34007 70-69.999997c0-38.65993-31.34007-70-70-70zm0 20c27.61424 0 50 22.38576 50 50 0 27.614233-22.38576 49.999997-50 49.999997s-50-22.385764-50-49.999997c0-27.61424 22.38576-50 50-50z"/></g><path d="m320 20v100h20v-62.78125l40 62.78125h20v-100h-20v62.78125l-40-62.78125z" fill="#f00"/><g fill="#9000cc"><path d="m420 20h20v100h-20z"/><path d="m460 20v100h50c16.56854 0 30-13.43146 30-30v-40c0-16.56854-13.43146-30-30-30zm20 20h30c5.52285 0 10 4.47715 10 10v40c0 5.522847-4.47715 10-10 10h-30z"/><path d="m660 20-20 20h30c5.52285 0 10 4.47715 10 10s-4.47715 10-10 10c-16.56854 0-30 13.43146-30 30v30h60v-20h-40v-10c0-5.52285 4.47715-10 10-10 16.56854 0 30-13.43146 30-30 0-16.56853-13.43146-30-30-30z"/><path d="m790 .000003c-38.65993 0-70 31.34007-70 70 0 38.659927 31.34007 69.999997 70 69.999997s70-31.34007 70-69.999997c0-38.65993-31.34007-70-70-70zm0 20c27.61424 0 50 22.38576 50 50 0 27.614235-22.38576 49.999997-50 49.999997s-50-22.385762-50-49.999997c0-27.61424 22.38576-50 50-50z"/><path d="m880 40v80h20v-100z"/><path d="m920 20v60h30c5.52285 0 10 4.47715 10 10s-4.47715 10-10 10h-30l20 20h10c16.56854 0 30-13.43146 30-30s-13.43146-30-30-30h-10v-20h40v-20z"/></g></g><path d="m-.000004.000053h169.33334v84.66655h-169.33334z" fill="#d40000"/><circle cx="50.333519" cy="42.632027" fill="#fff" r="22.263981" stroke-width="2.508646"/><path d="m37.122965 26.819982c5.392084-5.954521 11.305213-1.667998 12.474994 4.623936.241834-2.311968 1.060656-4.768434 1.396814-7.080401.473883-2.031251-.04566-2.617271-.96332-2.841794-.324117-.07927-.26993-.402387.144498-.433494 4.324404-.32487 4.805813 4.704463 5.250094 9.729531 2.760514-4.843693 7.023205-6.916587 10.307524-3.178956.265666.302292-.06849.40891-.288996.288996-3.053022-1.661977-4.799039.540614-5.924418 2.88996-.784704 1.638397-1.578942 2.87541-3.034458 4.09411l-7.2249.433494c-2.593187-1.366961-3.514362-4.266704-4.8166-7.321232-1.045603-2.45195-3.035712-3.975451-6.74324-1.252316-.543874.399628-.838389.335657-.577992.04817zm3.30765 18.123461c.733026-2.87265 1.882488-5.851165 5.059437-6.364936l.173347 1.14896c-2.088949.02734-3.637536 2.090705-4.118695 5.09531zm17.383912-6.162488c3.462433.06999 3.675166 2.757252 3.268514 6.693318l-1.167523-.116903c.210224-2.771552.169082-5.353952-2.305195-5.407386zm-8.182701 26.103463.831365-17.82142h1.240525l-.530327 17.816653c-.278711.01004-.558174.01505-.839393.01505-.234809 0-.469117-.005-.70217-.01254z" fill="#008033"/><path d="m33.875 1.09375 44.625 49.625-44.625 49.65625 44.625 49.625-44.625 49.65625 44.625 49.625-44.625 49.625h5.90625l6.34375-6.34375.90625 3.3125h5.875l2.9375-7.90625-1.5-2.46875 3.09375-3.46875 3.3125 5.46875-3.125 8.375h9.09375l3.75-10.78125-5.8125-11.0625 15.59375-17.375v8.625l-8.625 9.59375 5.125 9.75-2.65625 7.5625 4.125 6.71875h6.25v-297.8125h-6.25l-4.125 6.71875 2.65625 7.5625-5.125 9.75 8.625 9.59375v8.625l-15.59375-17.375 5.8125-11.0625-3.75-10.78125h-9.09375l3.125 8.375-3.3125 5.46875-3.09375-3.46875 1.5-2.46875-2.9375-7.90625h-5.875l-.90625 3.3125-6.34375-6.34375z" fill="#fc0" transform="matrix(.28222223 0 0 .28222223 0 -.000002)"/><path d="m22.073599 56.344235-1.160499-1.899045.744817-2.130593-1.44473-2.747218 2.435896-2.710341v-2.435644l-4.403426 4.899636 1.643664 3.125773-1.062662 3.040228h-2.56484l.879281-2.361389-.929704-1.54081-.875769.974107.422456.699912-.829609 2.22818h-1.653197l-.255882-.932464-1.79017 1.789668 1.79017 1.789668.255882-.932464h1.653197l.829609 2.228179-.422456.699913.875769.974107.929704-1.540811-.879281-2.361388h2.56484l1.062662 3.040228-1.643664 3.125773 4.403426 4.899636v-2.435644l-2.435896-2.710341 1.44473-2.747218-.744817-2.130593zm0-28.01756-1.160499-1.899045.744817-2.130593-1.44473-2.747218 2.435896-2.710341v-2.435644l-4.403426 4.899636 1.643664 3.125773-1.062662 3.040228h-2.56484l.879281-2.361388-.929704-1.540811-.875769.974108.422456.699912-.829609 2.228179h-1.653197l-.255882-.932464-1.79017 1.789668 1.79017 1.789668.255882-.932464h1.653197l.829609 2.22818-.422456.699912.875769.974107.929704-1.54081-.879281-2.361389h2.56484l1.062662 3.040228-1.643664 3.125773 4.403426 4.899636v-2.435644l-2.435896-2.710341 1.44473-2.747218-.744817-2.130593z" fill="#d40000"/><path d="m9.6608198 70.352513 1.1604992-1.899045-.744817-2.130593 1.44473-2.747218-2.4358956-2.710341v-2.435644l4.4034256 4.899636-1.643664 3.125773 1.062662 3.040228h2.56484l-.879281-2.361389.929704-1.54081.875769.974107-.422456.699913.829609 2.228179h1.653197l.255882-.932464 1.79017 1.789668-1.79017 1.789668-.255882-.932464h-1.653197l-.829609 2.22818.422456.699912-.875769.974107-.929704-1.54081.879281-2.361389h-2.56484l-1.062662 3.040228 1.643664 3.125773-4.4034256 4.899636v-2.435644l2.4358956-2.710341-1.44473-2.747218.744817-2.130593zm0-28.01756 1.1604992-1.899045-.744817-2.130592 1.44473-2.747218-2.4358956-2.710341v-2.435645l4.4034256 4.899637-1.643664 3.125772 1.062662 3.040228h2.56484l-.879281-2.361388.929704-1.540811.875769.974108-.422456.699912.829609 2.228179h1.653197l.255882-.932464 1.79017 1.789668-1.79017 1.789668-.255882-.932463h-1.653197l-.829609 2.228179.422456.699912-.875769.974107-.929704-1.54081.879281-2.361388h-2.56484l-1.062662 3.040227 1.643664 3.125773-4.4034256 4.899636v-2.435644l2.4358956-2.710341-1.44473-2.747218.744817-2.130593zm0-28.017559 1.1604992-1.899045-.744817-2.130593 1.44473-2.7472182-2.4358956-2.7103409v-2.4356442l4.4034256 4.8996361-1.643664 3.1257722 1.062662 3.040228h2.56484l-.879281-2.361388.929704-1.5408103.875769.9741073-.422456.699912.829609 2.228179h1.653197l.255882-.932463 1.79017 1.789668-1.79017 1.789667-.255882-.932463h-1.653197l-.829609 2.228179.422456.699912-.875769.974107-.929704-1.54081.879281-2.361388h-2.56484l-1.062662 3.040228 1.643664 3.125772-4.4034256 4.899636v-2.435644l2.4358956-2.710341-1.44473-2.747218.744817-2.130593z" fill="#fc0"/><path d="m48.778134 35.153704c-1.742004-1.340871-3.572061-1.709893-5.442758-1.637644-.07074 1.92664.911893 3.997778 1.974806 5.587256-1.168026 1.722185-2.010931 3.688462-2.022972 5.53909 1.733976.293762 3.467952-.116151 5.201928-.72249-.06422 2.006916.834877 3.37162 2.697296 4.09411 1.542315-1.065924 2.487322-2.64336 3.13079-4.479438 1.268371.702421 2.536742 1.143942 3.805114 1.20415 1.038077-2.181519.38031-3.746412-.04817-5.394592 1.157489-1.364704 1.750784-2.729407 2.263802-4.09411-1.818267-.987403-3.560521-1.212178-5.250094-.915154-.03914-1.975057-1.083234-3.54848-2.4083-5.009264-1.896537 1.280413-3.161145 3.263246-3.901446 5.828086z" fill="#f60"/><path d="m50.463944 39.149977c-1.138424.660024-2.106234 1.560026-2.841794 2.745462-.636795 1.026261.750812 1.633429 1.20415 1.011486.824015-1.130497 1.284426-2.440411 1.637644-3.756948zm.72249 0c-.385328 1.605533-.577992 3.211066-.577992 4.8166.03964.942347 1.44498 1.011486 1.493146-.04817-.072-1.641658-.329385-3.25547-.915154-4.768434zm.529826-.192664c.96332.621893 1.92664 1.464798 2.88996 2.600964.217248.884372-.644471 1.321454-1.252316.866988-.762629-.939237-1.260595-2.143387-1.637644-3.467952z" fill="#fff"/><path d="m31.523668 53.757821c.960059-.983138 1.86292-2.144892 2.389234-3.419786.908381-2.198326 1.979322-4.184923 3.74867-5.261634 2.131596-1.296969 5.226763-1.186338 6.351138 1.441217 1.038078 2.424857 1.41011 6.298457 2.672711 8.412995-.98088.07952-1.961761-.03086-2.942139-.270683.204705.796746.424964 1.388285.810543 2.105256-1.351407-.339922-2.452703-.850933-3.482753-1.954737-.790976.963822-1.621589 1.594244-2.491838 2.074901-.720734-.902109-1.201139-1.844357-1.441217-2.826742-1.028294.709445-2.184529 1.165015-3.452649 1.232999.02509-.672066.12468-1.343631.390345-2.014944-.850932.361245-1.701614.521296-2.552045.481158z" fill="#f60"/><path d="m64.682948 55.360846c.718727.361245 1.438708.276202 2.158188.127188-.87351-3.154873-1.62485-6.38074-3.131542-9.16308-1.328328-2.455211-5.293745-2.687261-6.823015-.284229-1.9151 3.008619-2.206856 6.632358-2.328525 10.446001.703926-.238321 1.338111-.450804 1.720429-.948268-.09282.706936-.12468 1.414374-.02509 2.122314.724747-.311323 1.44799-.766893 2.171734-1.31729.466357.695397.996685 1.21845 1.592739 1.610049.708191-.533589 1.35768-1.247549 2.002652-1.97606.934722.805777 1.952229 1.486373 3.016396 2.09798.0018-.935725-.100848-1.845109-.354973-2.714605z" fill="#f60"/><path d="m49.693789 36.887178c-1.20415-.883043-2.408299-1.188095-3.612449-.915154.160553 1.396814.770656 2.536743 1.830307 3.419786l-1.685809 3.419786c1.123873.144498 2.247746-.06422 3.371619-.433494.385328 1.075707.930959 1.990861 1.830308 2.552798 1.011486-.770656 1.701866-1.733976 2.071138-2.88996.96332.521798 1.92664.602075 2.88996.48166.08028-1.300482-.192664-2.424606-.626158-3.467952.690881-.657767 1.156235-1.541061 1.589478-2.456466-1.300983-.522049-2.521189-.61813-3.564284-.24083-.397369-1.071693-.951278-2.091207-1.733976-3.034458-1.109072 1.02704-1.76709 2.279607-2.360134 3.564284zm-8.41174 15.426165c1.620585.912143 3.523995 1.520139 5.146086 1.631021m-14.405096-1.029448c1.731467-.184385 3.839834-.596054 5.326457-1.262852m3.392442-7.368144c-3.984482 4.076299-4.278997 7.689-1.831562 11.277617 2.284874-1.738742 3.689716-4.322145 2.25176-11.247513zm20.829035 7.866863c1.303743 1.708387 2.911033 3.233644 4.464888 3.630261m-6.273872-11.450714c-1.723942.721236-1.742004 2.969986-1.691079 5.282456.05268 2.385973.563693 4.870786 1.818016 5.685594 1.611554-.993925 1.889763-3.800849 1.914348-5.81203.02007-1.719175.03612-4.263945-1.596753-5.18788zm-1.491641 7.566327c-.596055 2.497106-1.709141 4.168616-3.745158 4.546168" fill="none" stroke="#fff" stroke-linejoin="round" stroke-width=".301037"/><g fill="#fff" fill-rule="nonzero"><path d="m48.835833 67.329595 1.011736 3.912735 4.034405.2466-3.408497 2.170982 1.011235 3.912735-3.118498-2.570108-3.407995 2.170982 1.481104-3.760209-3.117745-2.570108 4.033401.246851zm-.740803 1.880481"/><path d="m46.445093 8.5143941 1.675776 3.6774239 4.015338-.457828-2.979519 2.730159 1.675776 3.677926-3.517122-1.99036-2.979518 2.729909.805275-3.960149-3.51687-1.989356 4.015087-.457828zm-.402888 1.9800739"/><path d="m68.275329 13.353572-.943753 3.929041 3.445876 2.112029-4.028383.316842-.943502 3.929292-1.54658-3.733367-4.028634.317093 3.073091-2.624796-1.547082-3.733116 3.445876 2.111276zm-1.536797 1.312025"/><path d="m82.499351 30.605529-3.163152 2.51567 1.415629 3.785547-3.369613-2.230437-3.162901 2.515168 1.079721-3.89392-3.369362-2.230437 4.037164-.176358 1.079721-3.89392 1.415127 3.785045zm-2.018959.088301"/><path d="m83.083865 52.957563-4.041428.03512-1.214937 3.854284-1.282169-3.832459-4.041178.03512 3.248446-2.403784-1.28242-3.832207 3.29034 2.346838 3.247943-2.403785-1.214937 3.854033 3.29034 2.346838zm-1.64517-1.172542"/><path d="m69.783025 70.93201-3.205798-2.46048-3.33098 2.288889 1.3494-3.808877-3.2063-2.460229 4.039923.105614 1.348899-3.809128 1.147956 3.874855 4.039422.105614-3.330227 2.288637zm-.573727-1.937675"/></g></svg>