<svg clip-rule="evenodd" fill-rule="evenodd" height="60mm" image-rendering="optimizeQuality" shape-rendering="geometricPrecision" text-rendering="geometricPrecision" viewBox="0 0 120 60" width="120mm" xmlns="http://www.w3.org/2000/svg"><path d="m.000046-.000085h120v60h-120z" fill="#fff"/><path d="m0 19.999901h120v39.999901h-120z" fill="#10693d"/><path d="m0 40h120v19.999901h-120z" fill="#fccc00"/><circle cx="12.1197" cy="10" fill="#0038a6" r="9.331"/><g fill="#fccc00"><path d="m13.7374 9.4144c.0763 0 .1382.0619.1382.1383v.1382c0 .0763-.0619.1382-.1382.1382h-.1383v-.4147zm0 .553c.1527 0 .2765-.1238.2765-.2765v-.1382c0-.1527-.1238-.2765-.2765-.2765h-.2765v.6912zm-.553-.6912h.1383v.6912h-.1383zm-.2764 0h.1382v.6912h-.1382l-.2765-.434v.434h-.1382v-.6912h.1382l.2765.4339zm-2.0736 0h.4147v.1382h-.2765v.1383h.2765v.1382h-.2765v.1382h.2765v.1383h-.4147zm-.5529 0h.1382v.5529h.2765v.1383h-.4147zm1.4515.5529h.1382c.1145 0 .2073-.0928.2073-.2073s-.0945-.207-.2073-.2074h-.1382v.1383h.1382c.0381 0 .0691.0309.0691.0691 0 .0381-.031.0691-.0691.0691h-.1382zm.1382-.6912c.2671 0 .4838.2167.4838.4839 0 .2671-.2167.4838-.4838.4838-.2672 0-.4839-.2167-.4839-.4838 0-.2672.2167-.4839.4839-.4839zm0 .1383c.1908 0 .3456.1547.3456.3456 0 .1908-.1548.3456-.3456.3456s-.3456-.1548-.3456-.3456c0-.1909.1548-.3456.3456-.3456z"/><path d="m18.4621 7.3269c.2688-.1352.2509-.4311.1119-.6602-3.1457-5.1862-8.5617-4.1306-10.9833-2.0907 4.0731-2.0436 7.8059-1.8059 10.2596 2.5247.1256.2218.3552.3554.6118.2262z"/><path d="m17.8077 5.2599c.1337.1681.3779.2461.5557.1377.2754-.1675.2044-.4697.0471-.6804-2.2959-3.074-5.584-3.6817-8.8171-2.0643 2.667-.652 5.4552-1.3589 8.2143 2.607z"/><path d="m19.7007 6.6314c0 .2151-.1744.3895-.3895.3895s-.3896-.1744-.3896-.3895c.0913-1.2511-.0926-2.0332-.886-2.9237-.9145-1.0264-2.4409-2.0199-4.487-2.6086 1.3834.2207 2.6618.7563 3.7596 1.531 1.3448 1.0299 2.3764 2.4423 2.3925 4.0013z"/><path d="m12.7148 16.4579c.1215.027.0677.1123-.0173.1634-.3283.2553-.3487.5802-.5938.8238-.1422.1414-.3418.2495-.6122.287-2.1681.3003-3.8498-1.3404-4.7839-3.2252.5609.7319 1.1369 1.468 2.0335 1.9553.4116.2238.8355.3998 1.2956.4912.2646.0526.5877.0794.6998-.0959.2992-.4931.93-.53 1.5838-.4489.1267.0157.2711.0218.3945.0493z"/><path d="m19.9827 6.7216c.0428.5164-.0275 1.0063-.1811 1.535-.0471.1617-.2167.2077-.4229.07-.3269-.218-.4468-.4999-1.3518-.5144-.0757-.0014-.1546-.0074-.2301-.0054-.0256.0008-.0463.0054-.0555.0187-.0076.0114-.0055.0288.0046.0566.0326.0893.0722.1797.1192.2622.2789.488.6755.9615 1.2057 1.2462.2772.1489.6174.1649.9254.0112.2865-.2052.4766-.5655.469-.9404.011-.3667-.0079-1.0459-.068-1.3799l-.0035-.0191c.2593.7298.3542 1.4045.2027 2.1797-.1026.5251-.3124.987-.6184 1.4634-.091.1417-.2666.1376-.4253-.053-.2515-.3017-.2863-.6061-1.15-.8771-.0724-.0227-.146-.0509-.2192-.0704-.0247-.0066-.0459-.0082-.0584.0022-.0106.0087-.0135.026-.0118.0557.0058.0947.0184.1926.0399.285.1289.5472.3747 1.1137.8021 1.5373.2237.2215.5452.3336.8841.2736.333-.1155.6176-.4068.7168-.7686.1501-.456.2882-.9472.3354-1.4262.0042.1115.0064.2236.0064.3361 0 .7293-.0838 1.2869-.4615 1.9262-.2721.4607-.6242.8262-1.0718 1.173-.1332.1032-.2973.0406-.3832-.192-.1361-.3686-.0673-.6671-.7908-1.211-.0606-.0455-.1208-.0968-.1831-.1396-.0211-.0145-.0406-.023-.0558-.0175-.0129.0047-.0214.0201-.0297.0485-.0262.0913-.0471.1878-.0576.2821-.0614.5588-.019 1.1748.2424 1.7169.1367.2835.4024.4966.7419.5533.3524.0025.718-.1772.9323-.4849.2231-.2882.6034-.843.7533-1.1498-.2158.7258-.5111 1.3043-1.0675 1.839-.4048.3892-.8616.6511-1.4121.8641-.1571.0609-.2964-.0461-.3123-.2936-.025-.3921.1263-.6584-.4112-1.3865-.0452-.061-.0881-.1273-.1357-.1861-.016-.02-.0324-.0337-.0484-.0328-.0137.0007-.0264.013-.0423.038-.0513.0799-.099.1663-.1359.2539-.2188.5179-.3543 1.1202-.2588 1.7144.05.3107.2435.591.5526.7424.3369.1031.7387.0355 1.032-.1981.3764-.2697.768-.5758 1.0805-.9187-.3786.5549-.7894.9743-1.3781 1.3171-.5745.3347-1.1519.4772-1.8276.5211-.1682.0109-.2691-.1328-.21-.3736.0934-.3818.3175-.5905.0226-1.4461-.0247-.0718-.046-.1479-.0736-.2183-.0093-.0238-.0207-.0418-.0364-.0457-.0133-.0034-.029.0047-.0518.0236-.0727.061-.1441.1291-.2057.2015-.3636.4286-.6734.9628-.7601 1.5583-.0456.3115.0554.6367.3048.8738.2907.1994.6942.2551 1.0441.12.4579-.1506.9359-.3321 1.351-.5797-.5561.4391-1.1041.7354-1.8074.8845-.6314.1338-1.2126.0934-1.8548-.0649-.1636-.0403-.2164-.208-.0873-.4198.2044-.3356.481-.4669.4585-1.3717-.0021-.0758.0008-.1548-.0044-.2302-.0018-.0256-.0073-.0461-.0209-.0547-.0118-.0071-.029-.0042-.0564.0069-.0879.0362-.1764.0796-.257.1299-.4761.2988-.9328.7144-1.1955 1.2561-.1373.2831-.1394.6237.0269.9249.2168.2779.5846.4531.9589.4299.4557-.005.9508-.0282 1.3962-.1293-.9337.3386-1.9411.5235-2.9916.5235-.1662 0-.3312-.0047-.4951-.0138-3.7079-.6653-6.3514-4.8049-6.0292-9.2851.3417-4.7526 2.8956-7.985 7.2566-8.4566-.2433-.0272-.4885-.0359-.7332-.0359-4.9764 0-9.0122 4.0358-9.0122 9.0122 0 4.449 3.2262 8.1446 7.4658 8.8782v.002c.5028.087 1.0197.1329 1.5473.1329 4.9765 0 9.0122-4.0357 9.0122-9.0122 0-1.6992-.4709-3.2887-1.2888-4.6453.0685.4637.1011.9027.1396 1.3669z"/><path d="m12.0639 11.363c2.2805-1.7537005 3.5203-2.6275 5.9136-1.36-1.1285-2.0825-4.7801-1.7378-5.9136-.9545-1.1336-.7833-4.7852-1.128-5.9137.9545 2.3933-1.2675 3.6331-.3937005 5.9137 1.36z"/><g fill-rule="nonzero"><path d="m7.932 13.0245c0-.272.0977-.4967.2931-.674s.4533-.266.7736-.266c.3182 0 .5756.0887.772.266s.2946.402.2946.674c-.002.2737-.1007.4988-.2961.6752-.1955.1765-.4523.2647-.7705.2647-.3203 0-.5782-.0882-.7736-.2647-.1954-.1764-.2931-.4015-.2931-.6752zm.5227 0c0 .2668.0464.4708.139.612.0927.1411.2277.2117.405.2117.1752 0 .3096-.0706.4033-.2117.0937-.1412.1406-.3452.1406-.612 0-.2651-.0469-.4687-.1406-.6107-.0937-.1421-.2281-.2131-.4033-.2131-.1773 0-.3128.071-.4065.2131-.0937.142-.1395.3456-.1375.6107zm1.8251-.94h.0847c-.0061.0448.008.074.0422.0878.0343.0138.0847.0086.1511-.0155.0927-.0327.1612-.0529.2055-.0607.0443-.0077.0947-.0116.1511-.0116.1934 0 .3495.0392.4683.1175.1189.0783.1783.1872.1783.3267-.002.1239-.0418.2225-.1193.2956-.0776.0732-.1778.1184-.3007.1356v.0181c.1572.0207.2805.0727.3702.1562.0896.0835.1344.1933.1344.3293 0 .1514-.0791.2728-.2372.3641-.1581.0912-.352.1368-.5816.1368-.1975 0-.3576-.0482-.4805-.1446s-.1904-.2195-.2024-.3692l.1208-.0181c.0101.117.0595.2121.1481.2853s.1994.1098.3324.1098c.1229 0 .2196-.0353.29-.1059.0706-.0706.1058-.173.1058-.3073-.002-.1429-.0372-.244-.1058-.3034-.0684-.0594-.1641-.0891-.287-.0891-.0443 0-.0766.0004-.0967.0013-.0201.0008-.0373.0021-.0514.0039v-.1111c.0141.0035.0212.0048.0212.0039s.0494-.0013.1481-.0013c.1007 0 .1777-.0275.2311-.0826s.0801-.1455.0801-.2712c0-.1119-.0277-.1967-.0831-.2543-.0554-.0577-.1284-.0865-.2191-.0865-.1188 0-.215.0331-.2886.0994-.0735.0663-.1153.1683-.1253.306h-.0847zm1.5351.94c0-.272.0977-.4967.2931-.674.1953-.1773.4532-.266.7735-.266.3183 0 .5757.0887.772.266.1964.1773.2946.402.2946.674-.002.2737-.1007.4988-.2961.6752-.1954.1765-.4522.2647-.7705.2647-.3203 0-.5782-.0882-.7735-.2647-.1954-.1764-.2931-.4015-.2931-.6752zm.5227 0c0 .2668.0463.4708.139.612.0926.1411.2276.2117.4049.2117.1752 0 .3097-.0706.4034-.2117.0937-.1412.1405-.3452.1405-.612 0-.2651-.0468-.4687-.1405-.6107-.0937-.1421-.2282-.2131-.4034-.2131-.1773 0-.3128.071-.4064.2131-.0937.142-.1395.3456-.1375.6107zm2.4505-.1136h.7947v-.5604c0-.0499-.0151-.0887-.0453-.1162s-.0745-.0422-.1329-.0439h-.0967v-.0697h1.0122v.0697h-.0967c-.0584 0-.1022.0138-.1314.0413-.0292.0276-.0438.0672-.0438.1188v1.3479c0 .0517.0146.0917.0438.1201s.074.0418.1345.04h.0967v.0698h-1.0153v-.0698h.0967c.0584.0018.1027-.0116.1329-.04s.0453-.0684.0453-.1201v-.6713h-.7947v.6713c0 .0517.0147.0917.0439.1201s.074.0418.1344.04h.0967v.0698h-1.0153v-.0698h.0967c.0585.0018.1028-.0116.133-.04s.0453-.0684.0453-.1201v-1.3479c0-.0499-.0151-.0887-.0453-.1162s-.0745-.0422-.133-.0439h-.0967v-.0697h1.0153v.0697h-.0967c-.0604 0-.1052.0142-.1344.0426s-.0439.0676-.0439.1175z"/><path d="m9.589 5.8583v.6171h-.0876c-.0221-.1377-.0906-.2531-.2055-.346-.1148-.093-.2427-.1395-.3837-.1395-.2095 0-.3682.0719-.4759.2157-.1078.1437-.1617.3421-.1617.5952-.002.2358.0514.4273.1601.5745.1088.1472.2761.2208.5017.2208.1249 0 .2392-.0301.3429-.0904.1038-.0602.202-.1601.2946-.2995l.0907.0439c-.0907.1566-.2055.2772-.3445.3615-.139.0844-.3041.1265-.4956.1265-.3142 0-.572-.0886-.7735-.2659-.2014-.1774-.3022-.4012-.3022-.6714 0-.2686.0972-.4928.2916-.6727s.4498-.2698.7661-.2698c.0604 0 .1178.0042.1721.0129.0545.0086.1109.0215.1693.0387.147.0465.2221.0697.2251.0697h.0106c.0322 0 .0569-.009.074-.0271s.0317-.0495.0438-.0942zm.1058 1.8437v-.0697h.0181c.0565.0017.1028-.0121.139-.0414.0363-.0292.0736-.086.1118-.1704l.7101-1.5622h.0665l.8068 1.6552c.0201.043.0443.0736.0725.0917.0282.018.0615.0271.0997.0271h.0091v.0697h-.9609v-.0697h.0876c.0665.0017.1148-.0056.1451-.022.0302-.0163.0463-.0417.0483-.0762 0-.0051-.002-.0159-.006-.0322-.0041-.0164-.0071-.028-.0091-.0349l-.1511-.3176h-.6587l-.1209.2711c-.012.0241-.0196.0439-.0226.0594-.0031.0155-.0045.0301-.0045.0439 0 .0396.0186.0676.0558.0839.0373.0164.0993.0246.1859.0246h.012v.0697zm.8461-1.255-.2629.5862h.55zm1.2993 1.255v-.0697h.0967c.0584.0017.1027-.0116.1329-.0401.0302-.0284.0454-.0684.0454-.12v-1.348c0-.0499-.0152-.0887-.0454-.1162s-.0745-.0422-.1329-.0439h-.0967v-.0697h1.0727c.2095.0017.3807.0422.5137.1214.1329.0792.1994.1945.1994.346 0 .1584-.0675.2819-.2024.3706-.135.0886-.3415.1329-.6195.1329-.0443 0-.0851-.0004-.1224-.0013-.0373-.0008-.071-.003-.1012-.0064v.6146c0 .0516.0146.0916.0438.12.0292.0285.074.0418.1345.0401h.136v.0697zm.7403-1.6914v.7282c.0262.0069.0504.0112.0725.0129.0222.0017.0443.0026.0665.0026.143 0 .2473-.0323.3127-.0969.0655-.0645.0982-.163.0982-.2956 0-.1257-.0306-.2152-.0921-.2686-.0614-.0533-.1647-.0809-.3097-.0826zm1.0848 1.6914v-.0697h.0967c.0584.0017.1027-.0116.1329-.0401.0302-.0284.0453-.0684.0453-.12v-1.348c0-.0499-.0151-.0887-.0453-.1162s-.0745-.0422-.1329-.0439h-.0967v-.0697h1.0153v.0697h-.0967c-.0605 0-.1053.0142-.1345.0426s-.0438.0676-.0438.1175v.5552c.0363-.0034.0745-.006.1148-.0078.0403-.0017.0947-.0025.1632-.0025.2599 0 .4583.049.5953.1472.1369.0981.2054.2238.2054.377-.002.1601-.0694.2849-.2024.3744s-.3586.1343-.6769.1343zm.7403-.8987v.6069c-.002.0602.0131.1046.0453.133.0323.0284.0776.0426.136.0426.1108 0 .204-.0327.2795-.0981.0756-.0655.1143-.1619.1163-.2892 0-.1257-.0403-.2239-.1208-.2944-.0806-.0706-.1934-.1068-.3385-.1085-.0221 0-.0428.0009-.0619.0026s-.0378.0034-.0559.0051zm1.0787.8987v-.0697h.0967c.0584.0017.1028-.0116.133-.0401.0302-.0284.0453-.0684.0453-.12v-1.348c0-.0499-.0151-.0887-.0453-.1162s-.0746-.0422-.133-.0439h-.0967v-.0697h1.0153v.0697h-.0967c-.0604 0-.1052.0142-.1344.0426s-.0438.0676-.0438.1175v1.348c0 .0516.0146.0916.0438.12.0292.0285.074.0418.1344.0401h.0967v.0697z"/></g></g></svg>