<svg fill-rule="evenodd" height="400" viewBox="0 0 158.99845 112.88889" width="563.38031" xmlns="http://www.w3.org/2000/svg"><g transform="matrix(.08063493 0 0 .08063493 39.988107 50.800003)"><g fill="#9000cc"><path d="m0 20v100h60v-20.000001h-40v-79.999999z"/><path d="m80 20v100h60v-20.000001h-40v-20h40v-19.999999h-40v-20h40v-20z"/><path d="m210 40.000003v20h20c5.52285 0 10 4.47715 10 10s-4.47715 9.999995-10 9.999995h-20v20h20c16.56854 0 30-13.43146 30-29.999995 0-16.56854-13.43146-30-30-30zm20-40c-38.65993 0-70 31.34007-70 70 0 38.659927 31.34007 69.999997 70 69.999997s70-31.34007 70-69.999997c0-38.65993-31.34007-70-70-70zm0 20c27.61424 0 50 22.38576 50 50 0 27.614233-22.38576 49.999997-50 49.999997s-50-22.385764-50-49.999997c0-27.61424 22.38576-50 50-50z"/></g><path d="m320 20v100h20v-62.78125l40 62.78125h20v-100h-20v62.78125l-40-62.78125z" fill="#f00"/><g fill="#9000cc"><path d="m420 20h20v100h-20z"/><path d="m460 20v100h50c16.56854 0 30-13.43146 30-30v-40c0-16.56854-13.43146-30-30-30zm20 20h30c5.52285 0 10 4.47715 10 10v40c0 5.522847-4.47715 10-10 10h-30z"/><path d="m660 20-20 20h30c5.52285 0 10 4.47715 10 10s-4.47715 10-10 10c-16.56854 0-30 13.43146-30 30v30h60v-20h-40v-10c0-5.52285 4.47715-10 10-10 16.56854 0 30-13.43146 30-30 0-16.56853-13.43146-30-30-30z"/><path d="m790 .000003c-38.65993 0-70 31.34007-70 70 0 38.659927 31.34007 69.999997 70 69.999997s70-31.34007 70-69.999997c0-38.65993-31.34007-70-70-70zm0 20c27.61424 0 50 22.38576 50 50 0 27.614235-22.38576 49.999997-50 49.999997s-50-22.385762-50-49.999997c0-27.61424 22.38576-50 50-50z"/><path d="m880 40v80h20v-100z"/><path d="m920 20v60h30c5.52285 0 10 4.47715 10 10s-4.47715 10-10 10h-30l20 20h10c16.56854 0 30-13.43146 30-30s-13.43146-30-30-30h-10v-20h40v-20z"/></g></g><path d="m0-.000002h158.99844v112.88889h-158.99844z" fill="#2492d1"/><g transform="matrix(.89527027 0 0 .89527027 -252.34741 -520.71889)"><circle cx="370.666426" cy="644.680547" fill="#fff" r="41.768891"/><path d="m373.33028 608.87496c20.00591.33483 36.12715 16.66001 36.12715 36.74571 0 20.29498-16.45847 36.75345-36.75349 36.75345-14.85279 0-27.64933-8.81586-33.445-21.49849 6.04471 9.88451 16.93783 16.48308 29.36993 16.48308 18.99691 0 34.40258-15.40566 34.40258-34.40261 0-17.40179-12.92807-31.78759-29.70117-34.08114z" fill="#f60"/><path d="m333.4869 652.73354-.16844-1.37158 2.7163-.33354-.22532-1.83505c-.0593-.48253-.0453-.905.0432-1.26916.0886-.36415.28878-.68259.59895-.95512.31003-.27411.6834-.43718 1.12319-.49115.46039-.0565.87063.0151 1.23257.21632.36176.19974.61445.4401.75836.72265.1453.2809.2521.70618.32204 1.27568l.3937 3.20669-6.7946.83426zm24.61482-42.08334 3.44642-1.18238c-.19758-.34518-.43374-.5986-.70844-.7604-.44661-.26047-.94124-.30252-1.48241-.12667-.54266.17629-.91866.50462-1.12997.98389-.13428.30642-.17652.66817-.1256 1.08556zm3.88914.002-3.53727 1.21355c.22518.49134.51862.84203.87835 1.05185.46468.26964.95828.31875 1.48273.14832.52301-.16992.89245-.49774 1.10584-.9861.1702-.38977.19387-.86539.0704-1.42762zm-23.01837 40.0153-.1645-1.33997c-.0523-.42555-.10933-.7204-.17129-.88467-.0633-.16243-.17665-.30108-.33989-.41431-.16481-.11305-.35317-.15574-.56669-.12953-.3038.0373-.51701.17109-.64243.40486-.12546.23381-.15243.62896-.0837 1.18897l.17132 1.39532 1.79715-.22067zm-6.27892-4.39502-.16839-1.37161 6.79466-.83425.16838 1.37159zm4.91397-8.68194.60614-1.26682c.71168.30768 1.21346.72261 1.50682 1.24665.29196.5223.38732 1.14895.28509 1.87658-.12646.89969-.53829 1.59669-1.23366 2.08965-.69695.49275-1.57901.66492-2.64446.5152-1.12852-.15863-1.96346-.57371-2.50666-1.24401-.54158-.66997-.74652-1.47943-.61301-2.42958.11647-.82866.45582-1.46823 1.0195-1.91697.33229-.26873.7814-.44064 1.34611-.51899l.13301 1.40128c-.36307.0294-.66438.15772-.90394.3848-.23931.22549-.38384.52066-.43485.88369-.0704.5019.052.936.36948 1.2993.31596.36307.87799.60144 1.6861.71503.85708.12045 1.48938.0532 1.89586-.20517.40786-.25653.64573-.63194.71494-1.12436.0513-.36461-.0201-.69335-.21524-.98792-.1936-.29444-.53181-.53349-1.01123-.71836zm-3.33469-5.44834.58405-1.25241 2.48024 1.15659.78139-1.67566c.20544-.44059.44115-.79147.70924-1.05334.26806-.26191.6066-.42587 1.01404-.4926.4082-.0682.81126-.009 1.21283.17864.42036.19599.73029.47418.93062.83666.20092.36104.28785.6988.26015 1.01466-.0255.31523-.16038.73246-.40287 1.2525l-1.3654 2.92805zm5.74683 1.15505.57051-1.22354c.18121-.3886.28905-.6689.32358-.84098.0324-.17129.01-.34899-.0687-.53151-.0799-.18321-.21695-.31921-.41195-.41015-.27737-.12936-.52906-.12885-.7593.003-.23034.13178-.46257.45261-.70103.96397l-.59412 1.27409 1.64104.76523zm-2.99583-7.0545.58401-1.25245 6.20429 2.89314-.58402 1.2524zm7.77933.19961-5.3201-4.3081.86968-1.07394 2.36213 1.9128-.60479-4.08297 1.16954-1.44428.45041 3.68104 4.95798.51805-1.12545 1.3898-3.68077-.56051.18321 1.59221 1.60779 1.30196zm3.38737-6.64064-.84321-1.00487 1.97431-1.65662.84319 1.00486zm3.87151-1.02469-3.62768-5.80544 1.17195-.73233 1.61068 2.57768.75745-4.05743 1.57609-.98485-.77263 3.62714 4.51922 2.10398-1.51657.94766-3.29778-1.7283-.34519 1.5651 1.09635 1.75449zm4.8749-6.88621c-.21569-.66397-.29796-1.2523-.24565-1.76701.0411-.37874.14575-.7429.31622-1.08988.17097-.34546.38788-.63212.6512-.85844.3501-.30482.78938-.54143 1.31994-.71385.95955-.31174 1.82313-.26386 2.59273.14471.76907.40708 1.32601 1.14118 1.67028 2.20075.34185 1.05199.32228 1.96667-.056 2.74658-.37889.77842-1.04639 1.32374-2.00136 1.63404-.96867.31473-1.83474.26932-2.59785-.13464-.7635-.40549-1.31298-1.12698-1.6494-2.16226zm8.54388-5.95885 4.78425-.33456.47751 6.829-1.3785.0964-.39668-5.67305-2.05427.14363.2039 2.91599c.0583.83475.0706 1.4203.038 1.75491-.0326.33465-.15122.60175-.35299.80123-.20332.19951-.53399.31531-.99506.34757-.16057.0111-.45574.0175-.88247.0154l-.0746-1.06685.30722-.0167c.28935-.0203.48067-.072.5738-.15678.0948-.0849.1307-.27917.10938-.5844l-.0868-1.17313-.27262-3.89862z" fill="#f60" fill-rule="nonzero"/><circle cx="371.607089" cy="643.583134" fill="#2492d1" r="27.036141" stroke-width=".451806"/><path d="m371.60709 616.54707c12.5827 0 23.15993 8.59999 26.17433 20.24148l-16.06354-14.36217-13.69189 14.6179-7.67275-9.59094-15.71303 18.05745c-.0449-.63682-.0693-1.27932-.0693-1.92757 0-14.92934 12.10681-27.03615 27.03614-27.03615z" fill="#006"/><g fill="#fff"><path d="m445.827 544.724 35.564 31.797-34.539-26.087-21.407 33.815 8.67 11.129-26.059-7.466 3.854-4.421-14.834-18.71-33.314 31.037 34.778-39.968 16.982 21.228z" transform="matrix(.45180566 0 0 .45180566 180.29043 376.31703)"/><path d="m397.6555 650.84228c-1.13606 2.17219-3.41078 3.65538-6.03143 3.65538-3.30171 0-6.05442-2.35404-6.67249-5.47458.78812 2.18986 3.47696 3.80376 6.67258 3.80376 2.80314 0 5.21619-1.24193 6.29862-3.02502-.0823.34947-.17155.69632-.26728 1.04046z"/><path d="m384.95208 649.02331c-.61808 3.12058-3.37089 5.47463-6.67267 5.47463-3.30166 0-6.05438-2.35405-6.67246-5.47463.78809 2.18986 3.47701 3.8038 6.67259 3.8038 3.19554 0 5.88445-1.61394 6.67254-3.8038z"/><path d="m358.26211 649.02331c-.61807 3.12058-3.37087 5.47463-6.67267 5.47463-2.61741 0-4.88954-1.47971-6.02691-3.64762-.096-.34489-.18552-.69244-.26819-1.04267 1.08406 1.78011 3.49503 3.01946 6.29524 3.01946 3.19552 0 5.88445-1.61394 6.67253-3.8038z"/><path d="m371.60709 649.02331c-.61807 3.12058-3.37088 5.47463-6.67267 5.47463-3.30166 0-6.05438-2.35405-6.67245-5.47463.78809 2.18986 3.47701 3.8038 6.67259 3.8038 3.19553 0 5.88445-1.61394 6.67253-3.8038z"/><path d="m381.82694 668.61812c-1.80668-.93655-3.14055-2.65937-3.54771-4.71517.70273 1.9527 2.91694 3.44727 5.65402 3.74813-.68534.35178-1.38857.67363-2.10631.96704z"/><path d="m378.27936 663.90308c-.61807 3.12058-3.37088 5.47462-6.67268 5.47462-3.30165 0-6.05437-2.35404-6.67244-5.47462.78808 2.18985 3.47701 3.8038 6.67257 3.8038 3.19554 0 5.88446-1.61395 6.67255-3.8038z"/><path d="m364.93437 663.90308c-.40726 2.05608-1.74112 3.77909-3.5483 4.71554-.71724-.29322-1.41931-.61599-2.10419-.96754 2.7364-.30123 4.9499-1.79561 5.65249-3.748z"/><path d="m389.31245 664.01422c-2.21412-.80055-3.89452-2.71761-4.36065-5.07102.7125 1.97987 2.97885 3.48871 5.76853 3.75998-.45357.45338-.92318.8906-1.40788 1.31104z"/><path d="m384.95208 658.94316c-.61808 3.12057-3.37089 5.47461-6.67267 5.47461-3.30166 0-6.05438-2.35404-6.67246-5.47461.78809 2.18985 3.47701 3.80379 6.67259 3.80379 3.19554 0 5.88445-1.61394 6.67254-3.80379z"/><path d="m358.26211 658.94316c-.46595 2.35255-2.14517 4.26911-4.35821 5.07017-.48443-.42019-.95359-.85745-1.40692-1.31057 2.78814-.27211 5.0529-1.78051 5.76513-3.7596z"/><path d="m371.60709 658.94316c-.61807 3.12057-3.37088 5.47461-6.67267 5.47461-3.30166 0-6.05438-2.35404-6.67245-5.47461.78809 2.18985 3.47701 3.80379 6.67259 3.80379 3.19553 0 5.88445-1.61394 6.67253-3.80379z"/><path d="m391.62434 653.98324c-.61806 3.12057-3.37087 5.47462-6.67267 5.47462-3.30166 0-6.05438-2.35405-6.67244-5.47462.78807 2.18986 3.47701 3.80379 6.67257 3.80379 3.19553 0 5.88446-1.61393 6.67254-3.80379z"/><path d="m394.35415 658.19813c-1.3866-.98829-2.38716-2.48349-2.73013-4.21507.49256 1.36865 1.72767 2.51225 3.36483 3.17755-.20417.35077-.4154.69695-.6347 1.03752z"/><path d="m378.27936 653.98324c-.61807 3.12057-3.37088 5.47462-6.67268 5.47462-3.30165 0-6.05437-2.35405-6.67244-5.47462.78808 2.18986 3.47701 3.80379 6.67257 3.80379 3.19554 0 5.88446-1.61393 6.67255-3.80379z"/><path d="m351.58984 653.98324c-.34283 1.73091-1.34254 3.22561-2.72836 4.21394-.21922-.34049-.43085-.6862-.63497-1.03694 1.63648-.66536 2.87091-1.80875 3.36333-3.177z"/><path d="m364.93437 653.98324c-.61807 3.12057-3.37088 5.47462-6.67268 5.47462-3.30165 0-6.05437-2.35405-6.67243-5.47462.78808 2.18986 3.477 3.80379 6.67257 3.80379 3.19553 0 5.88446-1.61393 6.67254-3.80379z"/><path d="m372.21206 670.61195c-.27696-.54489-.48307-1.13178-.60528-1.74895.22811.63388.61594 1.21915 1.12874 1.73137-.17418.007-.34848.0137-.52346.0176z"/><path d="m371.60709 668.863c-.12225.61726-.32828 1.20429-.60528 1.74926-.17504-.004-.34935-.0103-.52351-.0176.51298-.5123.90063-1.09772 1.12879-1.73173z"/></g></g></svg>