<svg fill-rule="evenodd" height="300" viewBox="0 0 169.33334 84.666665" width="600" xmlns="http://www.w3.org/2000/svg"><path d="m0-.000032h169.33334v84.666672h-169.33334z" fill="#fff"/><path d="m0 42.333282h169.33334v42.333336h-169.33334z" fill="#c71d77"/><path d="m29.979853 3.4802768c9.766234 0 17.686354 7.9201222 17.686354 17.6863582s-7.92012 17.686358-17.686354 17.686358c-9.766236 0-17.686358-7.920122-17.686358-17.686358s7.920122-17.6863582 17.686358-17.6863582z" fill="#c71d77" fill-rule="evenodd"/><circle cx="29.97987159274" cy="21.1658294091" fill="#fff" fill-rule="evenodd" r="16.55259009729" stroke-width="1.6090941"/><g fill="#c71d77" fill-rule="nonzero"><path d="m40.408387 7.5915122c-10.343413 5.1162758-17.426485 15.6738638-21.790026 26.3754668-.515554-.457949-1.003109-.946631-1.460253-1.462989 4.616652-10.703694 12.207553-20.151329 22.729259-25.2991431.17636.1253484.34966.2548805.52102.3866653z"/><path d="m40.957097 8.032404c-10.234969 5.24436-15.831238 17.428099-18.799373 28.363019-.591342-.30444-1.162731-.64235-1.711593-1.010993 3.18665-11.106129 9.536779-22.405993 20.019866-27.748185.16622.1290493.32986.261156.4911.396159z"/><path d="m14.759431 29.006946c5.856781-10.208254 13.811981-17.284728 24.528866-22.2067863.18859.1224521.37492.2482832.55836.3778153-10.53844 4.922702-18.342064 13.394582-23.948631 23.721266-.418203-.603893-.799398-1.235463-1.138595-1.892295z"/><path d="m19.552923 7.5915122c10.343257 5.1164368 17.426654 15.6737028 21.790034 26.3751448.51555-.457948 1.00311-.946469 1.46025-1.462989-4.61649-10.703694-12.207715-20.151168-22.729421-25.298982-.176356.1255093-.349495.2550414-.520863.3868262z"/><path d="m19.004222 8.032404c10.234964 5.244198 15.831395 17.428099 18.799525 28.363019.59135-.30444 1.16274-.642189 1.7116-1.010993-3.18649-11.106129-9.536943-22.405993-20.02003-27.7480241-.166219.1290493-.329864.2609951-.491095.3959981z"/><path d="m45.201887 29.006946c-5.85679-10.208415-13.812146-17.284728-24.529035-22.2067863-.188586.1224521-.374758.2484441-.558195.3779762 10.538601 4.9225411 18.34223 13.3944211 23.94879 23.7211051.41821-.603893.79924-1.235463 1.13844-1.892295z"/></g></svg>