<svg fill-rule="evenodd" height="400" viewBox="0 0 169.33333 112.88889" width="600" xmlns="http://www.w3.org/2000/svg"><g transform="matrix(.08063492 0 0 .08063492 45.155559 50.800002)"><path d="m0 20v100h60v-20.000001h-40v-79.999999z" fill="#9000cc"/><path d="m80 20v100h60v-20.000001h-40v-20h40v-19.999999h-40v-20h40v-20z" fill="#9000cc"/><path d="m210 40.000003v20h20c5.52285 0 10 4.47715 10 10s-4.47715 9.999995-10 9.999995h-20v20h20c16.56854 0 30-13.43146 30-29.999995 0-16.56854-13.43146-30-30-30zm20-40c-38.65993 0-70 31.34007-70 70 0 38.659927 31.34007 69.999997 70 69.999997s70-31.34007 70-69.999997c0-38.65993-31.34007-70-70-70zm0 20c27.61424 0 50 22.38576 50 50 0 27.614233-22.38576 49.999997-50 49.999997s-50-22.385764-50-49.999997c0-27.61424 22.38576-50 50-50z" fill="#9000cc"/><path d="m320 20v100h20v-62.78125l40 62.78125h20v-100h-20v62.78125l-40-62.78125z" fill="#f00"/><g fill="#9000cc"><path d="m420 20h20v100h-20z"/><path d="m460 20v100h50c16.56854 0 30-13.43146 30-30v-40c0-16.56854-13.43146-30-30-30zm20 20h30c5.52285 0 10 4.47715 10 10v40c0 5.522847-4.47715 10-10 10h-30z"/><path d="m660 20-20 20h30c5.52285 0 10 4.47715 10 10s-4.47715 10-10 10c-16.56854 0-30 13.43146-30 30v30h60v-20h-40v-10c0-5.52285 4.47715-10 10-10 16.56854 0 30-13.43146 30-30 0-16.56853-13.43146-30-30-30z"/><path d="m790 .000003c-38.65993 0-70 31.34007-70 70 0 38.659927 31.34007 69.999997 70 69.999997s70-31.34007 70-69.999997c0-38.65993-31.34007-70-70-70zm0 20c27.61424 0 50 22.38576 50 50 0 27.614235-22.38576 49.999997-50 49.999997s-50-22.385762-50-49.999997c0-27.61424 22.38576-50 50-50z"/><path d="m880 40v80h20v-100z"/><path d="m920 20v60h30c5.52285 0 10 4.47715 10 10s-4.47715 10-10 10h-30l20 20h10c16.56854 0 30-13.43146 30-30s-13.43146-30-30-30h-10v-20h40v-20z"/></g></g><path d="m-.000001 0h169.33334v112.88889h-169.33334z" fill="#4582c3"/><g transform="matrix(1 0 0 .99999671 42.333338 14.111112)"><circle cx="42.33333095844" cy="42.33361083426" fill="#fff" r="42.33333390685"/><circle cx="42.33333095844" cy="41.7026683677" fill="#3a53a6" r="41.70266927195"/><circle cx="42.33333095844" cy="40.52017759476" fill="#fff" r="40.52017302449"/><path d="m8.7555278 59.623955c-3.2132212-5.634462-5.0505599-12.154656-5.0505599-19.103732 0-15.542651 9.1859631-28.942212 22.4226571-35.0705212-10.268138 5.7049012-17.2196776 16.6599082-17.2196776 29.2368782 0 5.793041 1.4752446 11.241826 4.0693896 15.992519-1.803898 2.738854-3.2360315 5.743816-4.2218092 8.944856zm49.7829622-54.1744357c13.236694 6.1283097 22.422657 19.5278707 22.422657 35.0705217 0 6.949076-1.837338 13.469269-5.05056 19.103732-.985777-3.20104-2.41791-6.206002-4.221809-8.944856 2.594145-4.750694 4.06939-10.199479 4.06939-15.99252 0-12.576969-6.951494-23.531976-17.219678-29.2368777z" fill="#f00000"/><path d="m42.333331 2.5228433c-16.759453 0-30.350713 13.5912597-30.350713 30.3507137 0 5.210872 1.314613 10.114988 3.629147 14.400028 6.450485-7.533298 16.028834-12.309219 26.721658-12.309219 10.692732 0 20.271035 4.775876 26.721474 12.309174 2.314534-4.284995 3.629148-9.189111 3.629148-14.399983 0-16.759454-13.59126-30.3507137-30.350714-30.3507137z" fill="#3a53a6"/><path d="m42.333331 37.535198c15.413635 0 28.319167 10.756602 31.619615 25.170955-.76958 1.094812-1.594361 2.148154-2.470648 3.15542-.603748-15.576867-13.42447-28.024912-29.148967-28.024912-15.724587 0-28.545446 12.448136-29.149011 28.025185-.876105-1.0069-1.701708-2.058919-2.471151-3.15332 3.299536-14.41554 16.20566-25.173328 31.620162-25.173328z" fill="#f00000"/><path d="m69.992864 67.477604c-7.016595 7.198212-16.816206 11.6708-27.659898 11.6708s-20.643302-4.472588-27.659898-11.6708c-.0026-.155704-.0059-.311181-.0059-.467478 0-3.803921.768576-7.428644 2.15819-10.727815 6.131777 7.2348 15.283479 11.82947 25.507638 11.82947 10.22416 0 19.375862-4.59467 25.507638-11.82947 1.389615 3.299171 2.158191 6.923894 2.158191 10.727815 0 .156297-.0032.311774-.0059.467478z" fill="#f00000"/><path d="m65.973201 52.421774c-5.628805 6.720607-14.129633 11.002909-23.640052 11.002909-9.51042 0-18.011247-4.282302-23.640053-11.002909 1.752895-2.734566 3.97719-5.344632 6.55993-7.31783-1.820596 1.691351-3.384574 3.649631-4.628064 5.811745 4.685455 6.917644 12.659588 11.473216 21.708187 11.473216 9.048826 0 17.021956-4.556576 21.70732-11.474676-1.243353-2.161521-2.807012-4.119299-4.627197-5.810285 2.58274 1.973198 4.807035 4.583264 6.559929 7.31783z" fill="#f00000"/><path d="m100.162 102.968-16.1493 28.166-10.2249-9.9-28.0779 21.261 25.968-30.837 8.9265 6.492 19.5576-35.6742 19.557 35.6742 8.926-6.492 25.968 30.837-28.078-21.261-10.224 9.9z" fill="#fff" transform="matrix(.45620962 0 0 .45620962 -3.361537 -25.492442)"/><path d="m29.026016 59.86529c5.679901-10.368549 16.97118-16.399093 28.915615-15.819023.176006.115741.350688.233215.523957.352742-11.800866-.732764-22.70715 5.746963-28.23568 16.068432-.406666-.191516-.807993-.392249-1.203892-.602151zm-6.523068-4.752198c.331254.321947.670172.636047 1.016709.941707 5.826755-9.921053 16.847958-15.940694 28.201282-15.083658-.426784-.149272-.742025-.218479-1.177796-.347723-11.297347-.513966-22.125756 4.732992-28.040195 14.489674zm3.112034 2.621745c.365744.266016.738102.523592 1.11671.772363 5.743634-10.466772 17.119266-16.850969 29.00672-15.771805-.24909-.13335-.50069-.262549-.754114-.388645-12.004883-.865521-23.472943 4.937602-29.369316 15.388087z" fill="#f00000" fill-rule="nonzero"/><path d="m55.64051 59.86529c-5.679901-10.368549-16.971181-16.399093-28.915615-15.819023-.176006.115741-.350689.233215-.523957.352742 11.800866-.732764 22.70715 5.746963 28.23568 16.068432.406665-.191516.807993-.392249 1.203892-.602151zm6.523067-4.752198c-.331253.321947-.670172.636047-1.016708.941707-5.826755-9.921053-16.847958-15.940694-28.201282-15.083658.426784-.149272.742025-.218479 1.177796-.347723 11.297347-.513966 22.125756 4.732992 28.040194 14.489674zm-3.112034 2.621745c-.365743.266016-.738101.523592-1.116709.772363-5.743634-10.466772-17.119266-16.850969-29.00672-15.771805.24909-.13335.50069-.262549.754114-.388645 12.004882-.865521 23.472943 4.937602 29.369315 15.388087z" fill="#f00000" fill-rule="nonzero"/><path d="m8.155384 48.623829c-.5376886-.415698-1.2205432-.7652-1.9888914-.968031-.1458503 1.264339.9013333 2.887716 2.950855 2.770196.7652004-1.203572.8346355-2.198109.5426157-3.561355-.5775613.244848-1.2870129 1.128708-1.5045793 1.75919z" fill="#fff"/><path d="m7.2355286 45.26567c-.5043398-.39307-1.1454968-.723548-1.8676766-.915339-.1419268 1.195543.5533366 2.91226 2.4820997 2.801173.7244609-1.138061 1.0774759-2.260245.8078103-3.549265-.5443493.231572-1.2151599 1.067256-1.4222334 1.663431z" fill="#fff"/><path d="m6.8111167 42.307607c-.4268297-.420534-.9879675-.79677-1.6396173-1.051609-.2625487 1.104347.2348111 2.707057 2.0431804 2.804229.798823-.989701 1.2129701-1.926618 1.1023849-3.16135-.5321685.159947-1.2480983.872273-1.505948 1.40873z" fill="#fff"/><path d="m6.5488418 39.738691c-.3255968-.454431-.7819889-.888469-1.3412106-1.224239-.3285166.935503-.059946 2.42261 1.5194061 2.825443.8943077-.792208 1.3382453-1.513658 1.4344143-2.672157-.515745.06606-1.2891571.614606-1.6126098 1.070953z" fill="#fff"/><path d="m6.5625281 37.46996c-.3149671-.412185-.7510122-.800876-1.2798961-1.094219-.1821188.658813-.093112 2.164487 1.4500623 2.449025.809544-.770538 1.2416201-1.326795 1.2993306-2.410657-.477469.07984-1.1813548.618848-1.4694968 1.055851z" fill="#fff"/><path d="m6.6545 35.422035c-.2514171-.407304-.6164761-.802929-1.0759704-1.118443-.260222.747818-.0989975 1.975524 1.1345933 2.44834.8173908-.643803 1.2385179-1.18537 1.3930361-2.181732-.4470398.033578-1.1454967.472314-1.451659.851835z" fill="#fff"/><path d="m6.8563727 33.621832c-.1793816-.400142-.6396515-.825876-.991754-1.051381-.2745926.709999-.1828489 1.702438.8900193 2.216038.8821725-.468983 1.3661197-.840794 1.5341873-1.781772-.4120941-.019024-1.1064908.304292-1.4324526.617115z" fill="#fff"/><path d="m7.0472508 31.999551c-.1884601-.351008-.6232279-.635637-.9911154-.915887-.2472199.684269.00543 1.407772.8815795 1.932641.7959946-.478564 1.2646131-.816205 1.3724154-1.688523-.3764185.0141-.9856409.361683-1.2628795.671769z" fill="#fff"/><path d="m7.1727085 30.593969c-.1053844-.342568-.297175-.695036-.5747785-1.003433-.3393743.544395-.3078503 1.437881.5703076 1.955816.7324902-.343389.8456758-.573866 1.1574951-1.286374-.3375951-.047948-.8511959.102921-1.1530242.333991z" fill="#fff"/><path d="m8.472541 49.455044 1.682273 3.431606" fill="none"/><g fill="#fff"><path d="m25.2341 164.628.9762-.475 3.8338 7.272-1.4052.617z" fill-rule="nonzero" transform="matrix(.45620962 0 0 .45620962 -3.361537 -25.492442)"/><path d="m76.510731 48.623829c.537689-.415698 1.220543-.7652 1.988892-.968031.14585 1.264339-.901334 2.887716-2.950855 2.770196-.765201-1.203572-.834636-2.198109-.542616-3.561355.577561.244848 1.287013 1.128708 1.504579 1.75919z"/><path d="m77.430906 45.26567c.50434-.39307 1.145497-.723548 1.867677-.915339.141926 1.195543-.553337 2.91226-2.4821 2.801173-.724461-1.138061-1.077476-2.260245-.80781-3.549265.544349.231572 1.21516 1.067256 1.422233 1.663431z"/><path d="m77.855181 42.307607c.42683-.420534.987968-.79677 1.639617-1.051609.262549 1.104347-.234811 2.707057-2.04318 2.804229-.798823-.989701-1.21297-1.926618-1.102385-3.16135.532169.159947 1.248098.872273 1.505948 1.40873z"/><path d="m78.117502 39.738691c.325596-.454431.781988-.888469 1.34121-1.224239.328517.935503.05995 2.42261-1.519406 2.825443-.894308-.792208-1.338245-1.513658-1.434414-2.672157.515745.06606 1.289157.614606 1.61261 1.070953z"/><path d="m78.103815 37.46996c.314967-.412185.751013-.800876 1.279896-1.094219.182119.658813.09311 2.164487-1.450062 2.449025-.809544-.770538-1.24162-1.326795-1.299331-2.410657.477469.07984 1.181355.618848 1.469497 1.055851z"/><path d="m78.011661 35.422035c.251417-.407304.616476-.802929 1.07597-1.118443.260222.747818.099 1.975524-1.134593 2.44834-.817391-.643803-1.238518-1.18537-1.393036-2.181732.44704.03358 1.145497.472314 1.451659.851835z"/><path d="m77.810016 33.621832c.179382-.400142.639652-.825876.991754-1.051381.274593.709999.182849 1.702438-.890019 2.216038-.882173-.468983-1.36612-.840794-1.534187-1.781772.412094-.01902 1.10649.304292 1.432452.617115z"/><path d="m77.618864 31.999551c.188461-.351008.623228-.635637.991116-.915887.24722.684269-.0054 1.407772-.88158 1.932641-.795994-.478564-1.264613-.816205-1.372415-1.688523.376419.0141.985641.361683 1.262879.671769z"/><path d="m77.493407 30.593969c.105384-.342568.297175-.695036.574778-1.003433.339375.544395.307851 1.437881-.570307 1.955816-.732491-.343389-.845676-.573866-1.157495-1.286374.337595-.04795.851195.102921 1.153024.333991z"/></g><path d="m76.193665 49.455044-1.682045 3.431606" fill="none"/><path d="m175.089 164.628-.976-.475-3.834 7.272 1.405.617z" fill="#fff" fill-rule="nonzero" transform="matrix(.45620962 0 0 .45620962 -3.361537 -25.492442)"/><path d="m67.273855 66.722577c-1.345408.612097-2.921338.302102-3.691876-1.187331-.185176-.357942-.0023-.783175.337777-.95909.264374-.136817.574459-.09334.789882.08554.395488.328516.835046.890567 1.419496.588145.352422-.182347.490152-.616111.307941-.968624-.53486-1.03368-1.796279-1.70554-2.934021-1.70554-1.299513 0-2.430137.724552-3.009843 1.791581-1.24495 2.291632.986463 4.317796-.437505 6.770105-1.44769 2.493368-5.877348 2.496653-5.877348-.928934 0-.403107.357988-.696678.740747-.696678.297586 0 .553018.18107.662143.438965.200322.4735.33244 1.174695.990477 1.174695.417432 0 .718667-.304292.718667-.718667 0-1.729902-1.689801-3.2671-3.385258-3.2671-1.443812 0-2.670195.933131-3.10884 2.22904-.578018 1.707684-.53737 3.633299-1.656543 5.252843-.924327 1.337698-2.680734 1.871646-4.253288 1.663569-1.759008-.232804-3.288177-1.394405-3.165456-3.398808.02463-.402331.399913-.673456.781943-.650053.297038.01816.540928.21451.63404.47861.171033.484951.26004 1.192806.916845 1.233043.396127.02427.737006-.27733.761231-.673411.112319-1.832183-1.07191-4.137867-3.148531-4.137867-.885776 0-1.678075.4011-2.205226 1.031536-.930348 1.112558-1.090706 2.125252-1.657774 3.376727-.752062 1.659918-2.573798 2.429042-4.267796 2.233921-2.281595-.262776-4.23586-2.68858-3.366507-5.020541.140832-.377559.57893-.527515.937511-.393937.278789.104016.454886.362869.466976.642663.02235.513555-.09872 1.216711.517752 1.44664.371811.138642.785867-.0505.924463-.422404.715793-1.919685.07797-4.621997-2.394827-4.621997-1.823013 0-2.227032 1.41904-3.201907 2.462893-1.129027 1.208728-3.041914 1.60563-4.594304.652836-1.571323-.964427-2.540677-2.99935-1.414889-4.651285.227056-.333078.688147-.374137 1.004437-.158441.245897.167565.355022.460908.299866.735546-.101141.504112-.38682 1.15786.156982 1.528531.327969.223406.775146.138733.998689-.189236.809133-1.187377.859818-3.050765-.189738-4.100321-.49444-.49444-1.177477-.800283-1.93182-.800283-1.921098 0-2.795333 2.156959-4.996955 2.156959-1.116573 0-2.101301-.565928-2.682786-1.426613l1.191391-4.446675 5.594499-.387687c5.822193 4.850786 13.309459 7.769934 21.478394 7.769934 8.168753 0 15.655837-2.919239 21.477802-7.769979l5.494725.380798.276098.970768c.267066 2.461753.325825 5.387425-2.307736 6.585614z" fill="#fff"/><path d="m20.227922 19.771627-3.355376-2.437847.492707-.67811 1.32027.959272.964336-1.327296-1.320316-.959227.492159-.67738 3.35533 2.437848-.492113.677334-1.467125-1.065934-.964335 1.327251 1.467124 1.065979zm5.576798-6.493231-.666659.621677-.907584-.442341-1.21265 1.130761.392796.92241-.649734.605892-1.647008-4.135038.64759-.603931zm-2.246741-.148177-1.467855-.735866.640154 1.507727zm3.083931-.500052-2.378859-3.3973926 1.100286-.7704012c.416885-.2919285.701149-.4650144.851561-.5196227.230021-.085631.471265-.089554.722225-.01063.250916.078924.471128.2536069.659999.5233637.146215.2088527.231207.4109992.254428.6058007.02372.1955315.0062.3740919-.05388.5375518-.05976.1620913-.140787.2989542-.242704.4092663-.14106.147036-.366747.329839-.677562.547497l-.446995.31296.897274 1.281447-.685775.48016zm-1.290434-3.302501.674642.963423.374914-.262503c.270532-.1894178.439558-.3336713.505571-.4329881.06601-.099271.09845-.2044731.09749-.3169744-.0018-.1119539-.03718-.2180226-.107483-.31848-.0864-.1234047-.194206-.1999566-.323496-.2296559-.127921-.029517-.255934-.015374-.380525.042428-.09334.041789-.262868.1498649-.509677.3226771zm3.552413-3.1517698.781578-.300049.594168 1.5479192 1.045769-.4014645c.274912-.1055213.525325-.1592171.752381-.1605401.227055-.00128.443618.069709.649277.2120918.206572.1420637.357167.3376864.453381.5882823.100686.2623662.11866.5140114.05342.7562587-.06437.241928-.168616.4257348-.313645.5517399-.143797.1265526-.378152.2516909-.702654.3762817l-1.82739.7014678zm2.018362 2.921977.763604-.2931147c.242475-.093112.407486-.1698924.494942-.2303402.08622-.061041.151096-.1479944.193752-.2605869.04229-.1134137.03978-.2303859-.0069-.3521026-.06642-.1730859-.176325-.2788353-.332121-.3182975-.155841-.039508-.392112.00255-.711231.1250927l-.795127.3052042.393115 1.024145zm1.663341-4.3352688.781624-.300049 1.486331 3.8719879-.781624.300049zm3.69986 3.1691514-.720218-4.0843991.825465-.1455765.283398 1.6071809 1.615712-.2849029-.283398-1.6071809.824508-.1453484.720218 4.0843991-.824553.145394-.314876-1.7859238-1.615712.2849029.314921 1.7859238zm6.338622-2.7630792c.02952-.4219483.116789-.7710855.263005-1.0483241.109125-.2034238.250504-.3842197.425004-.5404259.174455-.1552937.361364-.2671107.560636-.3344929.265834-.091744.566293-.1249102.903478-.1013697.609724.042656 1.084.2655596 1.423557.6697157.339648.403198.485908.941936.438782 1.6153014-.046716.6685296-.265332 1.1778876-.654843 1.5300814-.389512.3512814-.888195.506119-1.495091.4636915-.615563-.0430206-1.091755-.2650578-1.428711-.6651993-.336911-.4010995-.481803-.9310326-.435817-1.5889781zm.862145.032254c-.03276.4681624.05128.831214.250185 1.08806.199774.2569829.465927.396583.799188.4198953.332349.023221.614286-.077099.844992-.3029688.229655-.2249569.361683-.5767858.395214-1.0564902.03317-.4739562-.04617-.834818-.236864-1.0833154-.191791-.2476762-.460088-.383581-.804024-.4076689-.344803-.0240879-.630527.0750009-.857993.2962625-.226508.2213529-.357349.5693496-.390698 1.0462255zm5.373008-1.3778899 2.995017.8025184-.180203.6724986-2.186339-.5858188-.248954.9289796 1.082038.2899213c.299365.080247.536776.1828488.714105.308352.177329.1255033.308991.3057061.396173.5400154.08622.2340355.09448.4831716.02372.7471345-.07272.2714447-.20493.4849508-.397496.6402902-.191654.1555674-.386592.2452583-.585636.2679319-.198086.022947-.463144-.010128-.795174-.099089l-1.890666-.5066205zm-.08458 3.5503145.787236.2109514c.251873.067473.431346.1025559.539559.1055669.109353.00233.212958-.029927.311728-.096443.09909-.067382.16606-.1644636.200321-.2922023.049726-.1856314.019753-.3386441-.090011-.4589922-.108715-.12012-.323224-.2225847-.642206-.3080784l-.822683-.2204404-.283945 1.059638zm5.583686-1.7522555 2.588944 1.3191301-1.882869 3.6954352-.745994-.380114 1.564206-3.069926-1.111646-.5663843-.804024 1.5779835c-.230112.4516931-.406528.759589-.527834.9231858-.121306.1636424-.26629.2653315-.433308.3059341-.16784.0401921-.375689-.0028741-.62519-.1300197-.086908-.0442523-.242156-.1330763-.463098-.2673845l.294164-.5772876.164737.087182c.156571.079791.272084.1126381.346902.097629.07564-.014508.154974-.1041526.239145-.2693462l.320944-.6363211 1.074921-2.1096958zm3.9677 2.1735195.767299.5372781-.442523 2.3189137 1.911427-1.2903891.715884.5012375-2.954824 1.7787616c-.320487.191699-.596859.315332-.829024.370852-.231618.0547-.450872.01081-.656486-.133167-.202511-.14179-.351281-.266016-.446948-.371857l.357257-.510224c.09284.07441.17847.139098.256755.193889.15981.111908.294164.16241.403426.152876.109263-.0096.262458-.0886.459723-.235724zm4.272951 7.0419608.378699.761915c-.412322.224957-.797591.309767-1.157175.254337-.358262-.05543-.693028-.243616-1.002247-.563829-.382349-.395945-.561549-.852519-.537506-1.368401.02473-.516521.271536-1.001882.740428-1.45467.49663-.479613 1.006216-.723366 1.52885-.732673.521903-.0087.984774.195395 1.388565.613557.352194.364694.530937.765291.534951 1.201747.0046.258853-.08107.537369-.254291.836187l-.718621-.45913c.121397-.184354.172492-.376053.153423-.575098-.01839-.19836-.105385-.377467-.259675-.537232-.213278-.220897-.4662-.324319-.758129-.308215-.291198.01542-.614605.194801-.970266.538281-.377195.364193-.580938.691204-.609223.981627-.02961.290423.06086.543984.270122.760729.154974.160449.338507.248999.551968.265697.212731.01738.453062-.05493.720127-.214829zm3.530287.0063.510179.785593-1.279029 1.984284 2.255637-.480389.476009.732901-3.406015.542342c-.368937.05771-.671495.0688-.907584.0333-.235221-.03609-.422039-.158852-.558811-.369393-.134627-.207347-.226052-.378243-.275049-.512232l.52236-.339237c.05821.103787.113368.195851.165422.276007.106251.163596.211909.260769.316792.292841.104928.03203.276508.01615.514559-.04635l1.66553-2.899669z" fill="#fff" fill-rule="nonzero"/></g></svg>