<svg fill-rule="evenodd" height="300" viewBox="0 0 169.33334 84.666671" width="600" xmlns="http://www.w3.org/2000/svg"><g transform="scale(1.128889)"><path d="m0 0h150v75h-150z" fill="#fff"/><path d="m72.7363 40.5579-51.8917-40.5579h129.1554v63.827l-50.8689-36.6064z" fill="#07adeb"/><g fill="#900" fill-rule="nonzero"><path d="m8.5723 46.2882c2.726-5.3736 5.7561-9.8421 9.2411-13.7076.4018.2577.8305.4973 1.282.7162l.0261.0134c-3.5653 4.2452-6.5731 9.0201-9.0135 14.2198zm9.5036-13.9969c4.261-4.6595 9.1979-8.4383 15.0797-11.8726l.011.0048h.0019l.1163.0582v.0003l.1305.0672v-.0002c.1518.0794.2991.1618.4428.2448-5.5435 3.2666-10.3751 7.3909-14.4798 12.2122l-.1156-.056c-.4171-.2023-.8139-.4224-1.1868-.6587zm15.2525-11.9734c.7189-.4175 1.4522-.8307 2.1995-1.2391l.6581.4156c-.7323.3863-1.4536.7879-2.1628 1.2024-.1678-.0986-.3449-.198-.5313-.2952l-.0004-.0004-.1305-.0673-.0009-.0002zm-28.0446 23.3109c2.9476-4.9277 6.4594-9.1681 10.42-12.8322l.0302.0337.0007.0016.0994.1103.003.0022.0977.1045-.0002.0002.0015.0017.0055.006c.1771.1861.3683.3694.5722.5485l.0015.0006.12.1038.0022.0022.1005.0843c-3.9034 3.9536-7.2891 8.4059-9.8724 13.1118zm10.7031-13.0925c4.7184-4.3101 10.0618-7.8132 15.8378-10.6907.2494.0924.4931.191.7311.2943-5.5796 2.8208-10.9168 6.7503-15.545 11.382l-.0024-.002-.1235-.1036-.0002.0002-.1165-.1007.0004-.0004c-.1986-.1746-.3799-.3475-.5426-.5181l-.0015-.0018-.0009-.0009-.003-.0032-.0003.0002-.0004-.0005-.0996-.1064.0006-.0004-.0994-.1104-.0004.0002zm16.0417-10.7918c.8507-.4209 1.7112-.8288 2.5799-1.2234l.6315.3558c-.8345.3633-1.6655.7526-2.4912 1.1658-.2346-.1044-.4746-.2041-.7202-.2982zm-29.6536 21.5323c3.4183-4.9084 7.4941-9.0956 12.0156-12.6318.035.0939.0731.1868.1132.2796h.0009c.0985.2278.2093.4496.3315.6629.0602.1055.1242.2106.1916.3151-4.3245 3.7461-8.1464 8.0483-11.0867 12.6405zm12.336-12.8803c4.8009-3.7052 10.093-6.6837 15.6282-9.0168.3076.0799.6094.1681.9048.2643-5.5704 2.3791-11.0546 5.8391-15.921 10.0046-.053-.0835-.1032-.1682-.1518-.253-.1197-.2091-.2246-.4173-.3133-.6232l.0006-.0002c-.0536-.1244-.1033-.2496-.1475-.3757zm15.8791-9.122c1.0743-.4484 2.1582-.8734 3.2487-1.2739l.614.3965c-.9926.3469-1.9861.731-2.9767 1.1485-.2891-.0978-.5847-.1885-.886-.2711z"/><path d="m43.186 46.2882c-2.6624-5.2485-5.6151-9.6343-8.9984-13.4376-.1999.1189-.4053.2321-.6138.3398l-.0041.0022-.0016.0007c-.2384.1228-.4834.2406-.7348.3508 3.4799 4.1863 6.4215 8.8817 8.8171 13.9859zm-9.2614-13.7304c-4.2842-4.7469-9.2548-8.5824-15.1898-12.0616l-.0515.0269-.0186.0099h-.0026c-.2091.1112-.4126.2281-.6112.3497 5.5678 3.304 10.4145 7.4765 14.5236 12.353.282-.1204.5542-.2496.8156-.384v-.0003l.0042-.0021.0015-.0007c.1778-.092.3547-.1888.5288-.2908zm-15.36-12.161c-.762-.4445-1.54-.884-2.3342-1.318l-.658.4156c.7854.4143 1.5578.8457 2.3165 1.2926.2187-.1362.4441-.2665.6757-.3902zm27.91 23.232c-2.8635-4.7872-6.2593-8.9259-10.0819-12.5177-.1682.1793-.348.3545-.5378.5251l.0061.0061-.1653.1351-.0024.002-.0086.0072-.0065.0042-.0064.0041-.1154.0972-.0022.0022-.1307.106-.0015.0015-.1124.0887c3.7814 3.8795 7.0638 8.2281 9.5831 12.8175zm-10.3642-12.7803c-4.7699-4.4245-10.192-8.0098-16.0627-10.9459l-.1243.0484v.0002l-.129.0525v-.0002l-.1281.0537h-.0004l-.0031.0013c-.113.0479-.2236.0968-.332.146 5.6502 2.8756 11.0471 6.8862 15.7066 11.6092.0491-.0374.0968-.0757.1446-.1136l.0002.0002.129-.1047.0002.0003.0939-.0791.0418-.0361c.2376-.2041.4592-.4147.6633-.6322zm-16.2639-11.046c-.889-.4415-1.7881-.8687-2.6966-1.2814l-.6315.3558c.8789.3825 1.7541.794 2.6232 1.2319.1452-.0679.2976-.1362.4568-.2036l.0007-.0002.0032-.0013v-.0003l.1288-.0538.0007-.0005zm29.5369 21.4743c-3.3107-4.7539-7.2379-8.8313-11.5895-12.2959-.1772.4301-.4069.8483-.6867 1.251 4.1696 3.6684 7.8556 7.853 10.7101 12.3112zm-11.9046-12.5444c-4.8873-3.8399-10.2981-6.9152-15.9646-9.3125l-.1268.0342c-.231.0653-.4561.1342-.6733.2065v.0002l-.0896.0305c5.6779 2.44 11.263 6.0002 16.191 10.2844.2748-.4005.4966-.8159.6633-1.2433zm-16.211-9.4162c-1.1073-.464-2.224-.9026-3.3482-1.3156l-.614.3965c1.0311.3602 2.0635.7603 3.0923 1.1971l.1298-.0462h.0005l.1324-.0448h.0007c.201-.0668.4042-.1288.6065-.187z"/><path d="m26.0046 19.6006-.1456.0007c-1.704.0148-3.3202.3113-4.7379.8233-.2862.1036-.5575.2126-.8117.326-.2466.11-.499.235-.7541.3732l-.0007-.0009-.104.0571.0007.0014c-1.2784.7114-2.322 1.6525-2.9463 2.7546-.1191.2102-.2225.4235-.3066.6377-.0843.2139-.1539.4359-.2065.6652h-.003l-.0005.002.0022.0004c-.2921 1.2803-.0015 2.562.7861 3.705.1577.2291.3375.4555.5372.676.2065.2277.4254.4434.6556.6429l.0002-.0002.0053.0043.003.0033c.7798.6755 1.7487 1.2587 2.8629 1.7108.2089.0848.4331.1682.6711.2495 1.4176.483 3.0227.758 4.7388.7583v-.0031h.0039c2.4796 0 4.6959-.5661 6.4299-1.5068.3409-.1848.6563-.3792.9438-.58.2868-.2004.5577-.415.8102-.6418l-.0014-.0011.0022-.002.009-.0063c1.1652-1.0507 1.835-2.2924 1.9178-3.578h.0002c.0158-.2455.0105-.4936-.0167-.7421-.0271-.2499-.0762-.501-.1471-.7504l-.0007.0002-.0015-.0046v-.0031c-.3449-1.2063-1.1781-2.2769-2.3038-3.1446-.224-.1726-.4614-.3384-.709-.4954-.2586-.1642-.517-.3131-.7723-.4464l.0006-.0014-.0024-.001h-.0031c-1.0624-.5527-2.2873-.9723-3.6049-1.221-.2674-.0502-.5336-.0935-.7968-.1286-.6537-.0867-1.3248-.1329-2.0041-.1331zm-.157-.8487.1538-.0007h.003c.7561.0004 1.5002.0488 2.2219.1399.3059.0386.6037.0839.891.1356 1.4822.2662 2.8629.7167 4.0652 1.311l-.0006.0013.0024.0011h.0031c.3194.1581.6194.3216.8962.4885.2877.1739.566.3587.8321.5533 1.3929 1.0211 2.4339 2.3141 2.8843 3.8077l.0009-.0002.0011.0042v.0028c.0987.3296.167.658.2038.9839.0373.3273.0447.6534.0228.9766v.0028c-.1115 1.639-.9685 3.1893-2.4562 4.4673l.0011.0011-.0024.0019-.0092.0062c-.2998.257-.6269.5034-.9779.7368-.3535.235-.7211.4513-1.0999.6468-1.9695 1.0158-4.4618 1.627-7.2259 1.627h-.0044v-.0031c-1.9173-.0004-3.7052-.2908-5.2792-.8005-.2485-.0806-.5014-.1708-.7578-.2696-1.2757-.4922-2.4004-1.1393-3.322-1.8978l-.0003.0002-.005-.0042-.0031-.0028c-.2986-.2463-.5675-.4953-.8053-.7449-.2462-.2586-.4704-.5273-.6707-.8043-1.0564-1.4582-1.4426-3.1105-1.0419-4.7789l.0031-.0028.0013-.0046-.0031-.0007c.0703-.2908.1651-.5772.2814-.8579.1163-.2805.2525-.5505.4062-.8082.7778-1.3057 2.0465-2.4035 3.5841-3.2172h.0033l.1112-.0582.0031-.0028c.2665-.1376.5579-.2738.8715-.4067.3063-.13.6153-.2485.9243-.3549 1.5845-.5446 3.3894-.8593 5.2901-.875z"/><path d="m26.0046 19.6006-.1456.0007c-1.704.0148-3.3202.3113-4.7379.8233-.2862.1036-.5575.2126-.8117.326-.2466.11-.499.235-.7541.3732l-.0007-.0009-.104.0571.0007.0014c-1.2784.7114-2.322 1.6525-2.9463 2.7546-.1191.2102-.2225.4235-.3066.6377-.0843.2139-.1539.4359-.2065.6652h-.003l-.0005.002.0022.0004c-.2921 1.2803-.0015 2.562.7861 3.705.1577.2291.3375.4555.5372.676.2065.2277.4254.4434.6556.6429l.0002-.0002.0053.0043.003.0033c.7798.6755 1.7487 1.2587 2.8629 1.7108.2089.0848.4331.1682.6711.2495 1.4176.483 3.0227.758 4.7388.7583v-.0031h.0039c2.4796 0 4.6959-.5661 6.4299-1.5068.3409-.1848.6563-.3792.9438-.58.2868-.2004.5577-.415.8102-.6418l-.0014-.0011.0022-.002.009-.0063c1.1652-1.0507 1.835-2.2924 1.9178-3.578h.0002c.0158-.2455.0105-.4936-.0167-.7421-.0271-.2499-.0762-.501-.1471-.7504l-.0007.0002-.0015-.0046v-.0031c-.3449-1.2063-1.1781-2.2769-2.3038-3.1446-.224-.1726-.4614-.3384-.709-.4954-.2586-.1642-.517-.3131-.7723-.4464l.0006-.0014-.0024-.001h-.0031c-1.0624-.5527-2.2873-.9723-3.6049-1.221-.2674-.0502-.5336-.0935-.7968-.1286-.6537-.0867-1.3248-.1329-2.0041-.1331zm-.157-.8487.1538-.0007h.003c.7561.0004 1.5002.0488 2.2219.1399.3059.0386.6037.0839.891.1356 1.4822.2662 2.8629.7167 4.0652 1.311l-.0006.0013.0024.0011h.0031c.3194.1581.6194.3216.8962.4885.2877.1739.566.3587.8321.5533 1.3929 1.0211 2.4339 2.3141 2.8843 3.8077l.0009-.0002.0011.0042v.0028c.0987.3296.167.658.2038.9839.0373.3273.0447.6534.0228.9766v.0028c-.1115 1.639-.9685 3.1893-2.4562 4.4673l.0011.0011-.0024.0019-.0092.0062c-.2998.257-.6269.5034-.9779.7368-.3535.235-.7211.4513-1.0999.6468-1.9695 1.0158-4.4618 1.627-7.2259 1.627h-.0044v-.0031c-1.9173-.0004-3.7052-.2908-5.2792-.8005-.2485-.0806-.5014-.1708-.7578-.2696-1.2757-.4922-2.4004-1.1393-3.322-1.8978l-.0003.0002-.005-.0042-.0031-.0028c-.2986-.2463-.5675-.4953-.8053-.7449-.2462-.2586-.4704-.5273-.6707-.8043-1.0564-1.4582-1.4426-3.1105-1.0419-4.7789l.0031-.0028.0013-.0046-.0031-.0007c.0703-.2908.1651-.5772.2814-.8579.1163-.2805.2525-.5505.4062-.8082.7778-1.3057 2.0465-2.4035 3.5841-3.2172h.0033l.1112-.0582.0031-.0028c.2665-.1376.5579-.2738.8715-.4067.3063-.13.6153-.2485.9243-.3549 1.5845-.5446 3.3894-.8593 5.2901-.875z"/></g></g></svg>