<svg clip-rule="evenodd" fill-rule="evenodd" height="60mm" image-rendering="optimizeQuality" shape-rendering="geometricPrecision" text-rendering="geometricPrecision" viewBox="0 0 120 60" width="120mm" xmlns="http://www.w3.org/2000/svg"><path d="m0-.000011h120v60h-120z" fill="#da2724"/><path d="m65.1111 29.3334c.2454 0 .4445.199.4445.4444v.4444c0 .2454-.1991.4444-.4445.4444h-.4444v-1.3332zm0 1.7777c.4909 0 .8889-.3981.8889-.8889v-.4444c0-.4908-.398-.8889-.8889-.8889h-.8889v2.2222zm-1.7778-2.2222h.4445v2.2222h-.4445zm-.8889 0h.4445v2.2222h-.4445l-.8888-1.3952v1.3952h-.4445v-2.2222h.4445l.8888 1.3952zm-6.6666.0001h1.3333v.4444h-.8889v.4444h.8889v.4444h-.8889v.4445h.8889v.4444h-1.3333zm-1.7778-.0001h.4444v1.7778h.8889v.4444h-1.3333zm4.6668 1.7778h.4443c.3681 0 .6667-.2986.6667-.6667s-.3041-.6654-.6667-.6667h-.4443v.4445h.4443c.1227 0 .2222.0995.2222.2222s-.0995.2222-.2222.2222h-.4443zm.4443-2.2222c.859 0 1.5556.6966 1.5556 1.5555s-.6966 1.5555-1.5556 1.5555-1.5555-.6966-1.5555-1.5555.6965-1.5555 1.5555-1.5555zm0 .4444c.6136 0 1.1111.4976 1.1111 1.1111s-.4975 1.1111-1.1111 1.1111c-.6135 0-1.1111-.4976-1.1111-1.1111s.4976-1.1111 1.1111-1.1111z" fill="#fff"/><path d="m49.2602 32.7919c-21.1101.1344-41.6831 3.431-49.2602 7.7849v-21.3872c7.5771 4.3538 28.1501 7.6504 49.2602 7.7849z" fill="#1f63a5"/><path d="m70.7398 32.7919c21.1101.1344 41.6831 3.431 49.2602 7.7849v-21.3872c-7.5771 4.3538-28.1501 7.6504-49.2602 7.7849z" fill="#1f63a5"/><path d="m49.2602 26.9745c-21.1101-.1345-41.6831-3.4311-49.2602-7.7849v1.3278c7.1995 3.4375 28.5957 6.6843 49.2602 6.8201zm0 .7877c-21.1912-.0839-39.854-2.3657-49.2602-5.6983v1.308c7.9099 2.5817 28.5299 4.6566 49.2602 4.7429zm0 .7778c-21.2082-.0564-37.2218-1.1362-49.2602-3.6016v1.287c9.3981 1.6965 28.4903 2.6087 49.2602 2.6673zm0 .778c-21.2593-.025-37.6205-.336-49.2602-1.4964v1.2982c11.7468.3633 28.416.5241 49.2602.5508zm0 1.1309c-21.2593.025-37.6205.336-49.2602 1.4964v-1.2982c11.7468-.3633 28.416-.5241 49.2602-.5508zm0 .7781c-21.2082.0564-37.2218 1.1362-49.2602 3.6016v-1.287c9.3981-1.6965 28.4903-2.6087 49.2602-2.6673zm0 .7777c-21.1912.0839-39.854 2.3657-49.2602 5.6983v-1.308c7.9099-2.5817 28.5299-4.6566 49.2602-4.7429zm0 .7872c-21.1101.1344-41.6831 3.431-49.2602 7.7849v-1.3279c7.1995-3.4375 28.5957-6.6843 49.2602-6.82z" fill="#fff"/><path d="m70.7398 26.9745c21.1101-.1345 41.6831-3.4311 49.2602-7.7849v1.3278c-7.1995 3.4375-28.5957 6.6843-49.2602 6.8201zm0 .7877c21.1912-.0839 39.854-2.3657 49.2602-5.6983v1.308c-7.9099 2.5817-28.5299 4.6566-49.2602 4.7429zm0 .7778c21.2082-.0564 37.2218-1.1362 49.2602-3.6016v1.287c-9.3981 1.6965-28.4903 2.6087-49.2602 2.6673zm0 .778c21.2593-.025 37.6205-.336 49.2602-1.4964v1.2982c-11.7468.3633-28.416.5241-49.2602.5508zm0 1.1309c21.2593.025 37.6205.336 49.2602 1.4964v-1.2982c-11.7468-.3633-28.416-.5241-49.2602-.5508zm0 .7781c21.2082.0564 37.2218 1.1362 49.2602 3.6016v-1.287c-9.3981-1.6965-28.4903-2.6087-49.2602-2.6673zm0 .7777c21.1912.0839 39.854 2.3657 49.2602 5.6983v-1.308c-7.9099-2.5817-28.5299-4.6566-49.2602-4.7429zm0 .7872c21.1101.1344 41.6831 3.431 49.2602 7.7849v-1.3279c-7.1995-3.4375-28.5957-6.6843-49.2602-6.82z" fill="#fff"/><path d="m52.5259 17.8543h14.9481v24.2913h-14.9481z" fill="#1f63a5"/><path d="m60 34.7655 2.2105-2.2105-2.2105-2.2106-2.2105 2.2106zm6.9319-16.0392c-.017 3.528-2.6708 6.4336-6.0914 6.8472v3.749l2.3919 2.3919h1.6173v-3.7919h1.3169v5.473h-2.9342l-2.3919 2.3919v2.7848h3.8851v1.6811h-9.1821v-1.6811h3.616v-2.7848l-2.3919-2.3919h-2.6651v-5.473h1.3169v3.7919h1.3482l2.3919-2.3919v-3.7491c-3.4314-.4151-6.0914-3.3379-6.0914-6.8811 0-.0213.0006-.0424.0008-.0636 1.1228 2.7352 3.8125 4.6622 6.9518 4.6622 3.1019 0 5.765-1.8812 6.9112-4.5646z" fill="#fff"/></svg>