<svg clip-rule="evenodd" fill-rule="evenodd" height="148.629mm" image-rendering="optimizeQuality" shape-rendering="geometricPrecision" text-rendering="geometricPrecision" viewBox="0 0 218.573 148.629" width="218.573mm" xmlns="http://www.w3.org/2000/svg"><path d="m-.0001-.0006h218.573v148.63h-218.573z" fill="#1d82b3"/><path d="m126.502 89.5422.636-.2177.611-.2389.585-.2601.554-.2827.521-.3054.486-.3291.447-.353.407-.3782.356-.3928.131-.2066.101-.2211.167-.0785.053-.0271.052-.0296.051-.0326.05-.0365.047-.0394.046-.0434.045-.0498.064-.089.052-.0921.04-.0922.03-.0895.019-.0862.013-.0805.006-.0745.002-.0669-.001-.0388-.001-.0335-.002-.0276-.002-.0257-.004-.0371v-.0585l.001-.0554v-.0703l.001-.084.001-.0975.001-.1102.001-.1228.001-.134.001-.1451.001-.1551.002-.1637v-.3473l.519-.0616.092-.0341.08-.0509.067-.0613.055-.0671.047-.0725.041-.0769.075-.1675.165-.1296.064-.0762.05-.0814.041-.0878.035-.0938.031-.101.058-.2314.057-.227.052-.2137.045-.201.039-.1905.03-.1807.02-.1725.011-.1664v-.1625l-.011-.1613-.024-.1629-.037-.1674-.053-.1747-.07-.1842-.089-.196-.105-.1991-1.23-1.8178.001-.2061.002-.3631.369-.0459.145-.0342.141-.0492.135-.0642.127-.0787.112-.0876.101-.0975.09-.1076.077-.1158.065-.1242.051-.1288.06-.2236.05-.2003.035-.1611.021-.1228.01-.0868.001-.0508-.001-.0019-.009-.01-.042-.0396-.059-.0593-.071-.0797-.075-.0998-.059-.0957-.094-.1344-.099-.1167-.108-.107-.116-.097-.122-.0876-.126-.0786-.132-.0699-1.081-.4985 1.294-.2787.272-.0654.274-.0735.28-.0813.283-.0895.292-.0984.24-.0939.25-.1171.257-.1367.262-.1542.267-.1702.27-.1839.272-.1958.273-.2057.271-.2138.268-.2198.264-.2237.258-.2259.25-.2263.242-.2241.23-.2206.218-.2145.059-.06.059-.0598.061-.0614.061-.0625.064-.0666.153-.1538.28.0591.11.0115.113.0015.115-.0086.118-.0179.136-.0321.137-.0428.136-.0532.135-.063.135-.0727.134-.0811.131-.0897.131-.0976.129-.1061.127-.1129.124-.1206.122-.1271.118-.1338.116-.1399.111-.1462.108-.1528.147-.23.132-.2322.115-.2327.1-.2319.084-.2301.067-.2265.05-.2224.034-.2169.015-.2105-.003-.2033-.022-.195-.043-.1852-.066-.1744-.092-.1609-.142-.1738.116-.281.031-.077.031-.0777.029-.0784.033-.0901.405-1.67.043-.2032.043-.2042.045-.2089.047-.2126.048-.216.051-.2186.052-.2208.054-.2221.057-.223.058-.223.062-.2227.063-.2215.066-.2199.07-.2174.072-.2144.074-.2106.067-.1766.084-.2081.097-.2353.11-.2572.118-.2739.126-.2854.13-.2923.132-.294.132-.2916.129-.2837.139-.303.209-.4534.095-.2046.177-.3819h.001l.022-.0468.322-.6884.076-.1595-.326-.1242-.079-.0277-.091-.0287-.103-.0284-.115-.0278-.125-.0247-.134-.0208-.678-.0719.409-.6731.134-.2774.107-.2918.078-.3041.048-.315.017-.3236-.017-.3239-.048-.3148-.078-.3044-.107-.2914-.134-.2775-.159-.2617-.183-.2443-.205-.2252-.226-.2049-.244-.1828-.262-.1593-.277-.1335-.198-.0725-.638-.2334.48-.4355.189-.2084.169-.226.147-.242.124-.2566.099-.27.073-.2813.045-.291.015-.2993-.015-.2996-.045-.2912-.073-.2813-.098-.2696-.125-.2566-.147-.2419-.169-.226-.189-.2082-.208-.1897-.227-.169-.242-.1472-.256-.1236-.27-.099-.281-.0724-.646-.0982.551-.7353.137-.2249.115-.2384.092-.2508.067-.2611.042-.2705.014-.2782-.014-.2783-.042-.2703-.067-.2611-.092-.2507-.115-.2382-.137-.2249-.157-.2097-.176-.1938-.194-.1758-.21-.1568-.225-.1369-.238-.1151-.251-.0919-.261-.0674-.27-.0415-.278-.0141-.794.0407.409-.6724.105-.2182.084-.2283.062-.2386.038-.247.013-.2539-.013-.2535-.038-.2469-.062-.2384-.084-.2286-.105-.2176-.125-.2049-.143-.1914-.16-.1768-.177-.1605-.192-.1433-.205-.1244-.217-.1051-.229-.0836-.238-.0618-.247-.0378-.254-.013-.253.013-.247.0378-.74.1916.181-.7038.037-.2411.013-.2479-.013-.2475-.037-.241-.06-.2324-.081-.2234-.103-.2121-.122-.2002-.139-.1869-.157-.1725-.172-.1566-.187-.1399-.2-.1216-.212-.1024-.224-.0818-.232-.0601-.241-.0369-.247-.0128-.248.0128-.24.0369-.233.0601-.595.2183-.031-.6015-.033-.2142-.053-.2067-.073-.1985-.091-.1885-.108-.1781-.124-.166-.139-.1536-.153-.1394-.166-.1242-.178-.1083-.188-.0912-.198-.0728-.207-.0535-.214-.0327-.219-.0114-.221.0114-.214.0327-.206.0535-.198.0728-.639.3089-.111-.7274-.053-.207-.073-.1985-.091-.1885-.108-.1781-.124-.166-.139-.1536-.153-.1394-.166-.1242-.178-.1081-.188-.0913-.199-.0728-.206-.0535-.214-.0327-.22-.0114-.22.0114-.214.0329-.207.0534-.198.0727-.189.0912-.639.3887-.144-.5558-.065-.1767-.081-.1678-.096-.1582-.111-.1479-.124-.1364-.136-.1236-.148-.1106-.158-.096-.168-.0813-.177-.0645-.184-.0478-.191-.0292-.195-.01-.196.01-.191.0292-.184.0477-.176.0646-.168.0813-.158.0962-.434.3241-.213-.5821-.078-.1603-.091-.1507-.106-.1408-.118-.1305-.13-.1181-.141-.1055-.151-.0918-.16-.0775-.169-.0616-.175-.0455-.182-.0276-.187-.0098-.187.0098-.182.0276-.176.0455-.168.0616-.16.0775-.483.2938-.296-.4871-.106-.1405-.118-.1306-.13-.1182-.141-.1054-.151-.0916-.16-.0776-.168-.0615-.176-.0456-.182-.0277-.19-.0097-.263.0192-.254.0566-.633.2399-.012-.7013-.008-.1597-.013-.158-.018-.157-.07-.4923h.011l-.096-.2977-.004-.0183h-.004l-.11-.3382-.125-.3132-.143-.3027-.162-.2919-.18-.2801-.196-.2678-.212-.2544-.227-.2408-.242-.2259-.256-.2104-.269-.1943-.281-.1777-.294-.1599-.451-.2103-.054-.2051-.036-.1362-.042-.1618-.048-.1818-.052-.1968-.054-.2066-.055-.2113-.219-.8371.896.2356.31.0813.312.0822.305.0805.291.0764.266.07.232.0613.19.05.139.0364.404.1057v-4.0014l-.409.1158-.138.039-.19.0533-.232.0652-.266.0746-.29.0814-.305.0858-.312.0874-.309.0867-.903.2537.158-.6853.06-.2599.059-.2623.06-.2578.056-.2451.051-.2255.054-.2347.056-.2458.09-.3883h-4.048l.09.3883.056.2458.054.2347.052.2255.056.2451.059.2578.06.2623.06.2599.157.6853-.903-.2537-.309-.0867-.311-.0874-.306-.0858-.289-.0814-.266-.0746-.232-.0652-.19-.0533-.139-.039-.408-.1158v4.0014l.403-.1057.139-.0364.19-.05.232-.0613.266-.07.291-.0764.306-.0805.312-.0822.309-.0813.896-.2356-.219.8371-.055.2113-.054.2066-.052.1968-.047.1818-.043.1618-.035.1362-.055.2051-.451.2103-.293.1599-.282.1777-.268.1943-.256.2104-.242.2259-.228.2408-.212.2544-.196.2678-.18.2801-.161.2919-.144.3027-.125.3132-.11.3382h-.004l-.004.0183-.095.2977h.01l-.07.4923-.017.157-.013.158-.008.1597-.013.7013-.632-.2399-.255-.0566-.263-.0192-.19.0097-.182.0277-.175.0456-.169.0615-.16.0776-.151.0916-.14.1054-.131.1182-.118.1306-.105.1405-.297.4871-.4823-.2938-.1604-.0775-.1685-.0616-.1756-.0455-.1818-.0276-.187-.0098-.1868.0098-.182.0276-.1755.0455-.1686.0616-.1602.0775-.1509.0918-.1409.1055-.1304.1181-.1183.1305-.1054.1408-.0916.1507-.0776.1603-.213.5821-.4336-.3241-.1581-.0962-.1682-.0813-.1763-.0646-.1841-.0477-.1906-.0292-.1959-.01-.1955.01-.1908.0292-.184.0478-.1766.0645-.1679.0813-.1582.096-.1478.1106-.1365.1236-.1238.1364-.1106.1479-.0962.1582-.0811.1678-.0647.1767-.1443.5558-.6393-.3887-.1886-.0912-.1983-.0727-.2071-.0534-.214-.0329-.2202-.0114-.2196.0114-.214.0327-.2064.0535-.1984.0728-.1883.0913-.1777.1081-.1658.1242-.1534.1394-.139.1536-.1241.166-.108.1781-.0911.1885-.0724.1985-.0535.207-.1111.7274-.6385-.3089-.198-.0728-.2068-.0535-.2139-.0327-.2201-.0114-.2198.0114-.214.0327-.2064.0535-.1983.0728-.1884.0912-.1777.1083-.1659.1242-.1533.1394-.1389.1536-.1241.166-.1079.1781-.0912.1885-.0724.1985-.0535.2067-.0327.2142-.0309.6015-.5953-.2183-.2326-.0601-.2405-.0369-.2475-.0128-.2474.0128-.2409.0369-.2324.0601-.2232.0818-.2121.1024-.2002.1216-.1867.1399-.1725.1566-.1565.1725-.1398.1869-.1218.2002-.1025.2121-.0815.2234-.06.2324-.0368.241-.0129.2475.0129.2479.0367.2411.1815.7038-.7399-.1916-.2468-.0378-.2539-.013-.2535.013-.2469.0378-.2384.0618-.2287.0836-.2172.1051-.2052.1244-.1915.1433-.1769.1605-.1605.1768-.1432.1914-.1246.2049-.1053.2176-.0836.2286-.0618.2384-.0377.2469-.013.2535.013.2539.0377.247.0618.2386.0836.2283.1053.2182.4087.6724-.7935-.0407-.2779.0141-.2705.0415-.2611.0674-.2508.0919-.2383.1151-.225.1369-.2097.1568-.194.1758-.1757.1938-.1571.2097-.1368.2249-.1151.2382-.0919.2507-.0674.2611-.0415.2703-.0142.2783.0142.2782.0415.2705.0674.2611.0919.2508.1151.2384.1368.2249.5505.7353-.6456.0982-.2812.0724-.2698.099-.2564.1236-.2419.1472-.2262.169-.2084.1897-.1893.2082-.1691.226-.1471.2419-.1241.2566-.0989.2696-.0725.2813-.0446.2912-.0153.2996.0153.2993.0446.291.0725.2813.0991.27.1241.2566.1469.242.1691.226.1893.2084.4797.4355-.638.2334-.1975.0725-.2774.1335-.2619.1593-.2441.1828-.2256.2049-.2049.2252-.1829.2443-.1592.2617-.1339.2775-.107.2914-.0782.3044-.0485.3148-.0164.3239.0164.3236.0485.315.0782.3041.107.2918.1339.2774.4092.6731-.6788.0719-.1339.0208-.1248.0247-.1147.0278-.1028.0284-.0916.0287-.0792.0277-.3254.1242.0762.1595.3217.6884.0217.0468h.0008l.1777.3819.0949.2046.209.4534.1385.303.1291.2837.1318.2916.1324.294.1299.2923.1256.2854.1186.2739.1095.2572.0977.2353.0836.2081.0669.1766.0746.2106.0719.2144.0692.2174.0661.2199.0639.2215.0611.2227.0587.223.0563.223.0545.2221.0522.2208.0504.2186.0482.216.0469.2126.0449.2089.0438.2042.0427.2032.4052 1.67.0326.0901.0293.0784.0305.0777.0309.077.1167.281-.1428.1738-.0912.1609-.0664.1744-.043.1852-.0224.195-.0028.2033.0154.2105.0334.2169.0505.2224.0672.2265.0835.2301.0999.2319.1157.2327.1317.2322.1468.23.1082.1528.1113.1462.1152.1399.1183.1338.1219.1271.1242.1206.1267.1129.1288.1061.1311.0976.1319.0897.1335.0811.1346.0727.1358.063.1358.0532.1367.0428.1363.0321.1177.0179.1146.0086.1129-.0015.1104-.0115.2798-.0591.1538.1538.0639.0666.061.0625.0602.0614.0592.0598.0595.06.2179.2145.2303.2206.2412.2241.2504.2263.258.2259.2639.2237.2683.2198.2708.2138.2725.2057.272.1958.2704.1839.2668.1702.2628.1542.2566.1367.2504.1171.2393.0939.2921.0984.2835.0895.2792.0813.2748.0735.271.0654 1.2945.2787-1.0814.4985-.1311.0699-.1267.0786-.122.0876-.1156.097-.1085.107-.0991.1167-.0936.1344-.0588.0957-.0747.0998-.071.0797-.0599.0593-.0414.0396-.0096.01-.0003.0019.001.0508.0093.0868.0213.1228.0349.1611.0498.2003.0603.2236.0511.1288.0648.1242.0776.1158.0894.1076.101.0975.1119.0876.1274.0787.1347.0642.1408.0492.1454.0342.3685.0459.0022.3631.0018.2061-1.2301 1.8178-.1051.1991-.0895.196-.0701.1842-.0528.1747-.0372.1674-.0238.1629-.0112.1613.0002.1625.0107.1664.0208.1725.03.1807.0383.1905.0458.201.0519.2137.0571.227.0579.2314.0305.101.0352.0938.0413.0878.0501.0814.0637.0762.1646.1296.0753.1675.0411.0769.047.0725.0553.0671.0661.0613.0805.0509.0924.0341.5186.0616v.3473l.0014.1637.0014.1551.0012.1451.0011.134.001.1228.001.1102.0008.0975.0008.084.0005.0703.0005.0554.0004.0585-.0042.0371-.0019.0257-.002.0276-.0014.0335-.0006.0388.0018.0669.0065.0745.0124.0805.0198.0862.0293.0895.0397.0922.0525.0921.0642.089.045.0498.0452.0434.0478.0394.0496.0365.0515.0326.0517.0296.0527.0271.1673.0785.1008.2211.1317.2066.3551.3928.4071.3782.4475.353.4856.3291.5213.3054.554.2827.5845.2601.6116.2389.6362.2177.6576.1979.6762.1786.6917.1606.7046.1432.7143.1269.7211.1117.725.0974.7264.0839.7246.0716.7201.0607.7124.0506.7022.0411.6891.0335.673.0265.654.0206.633.0156.609.0118.581.0092.551.0077.519.0069.483.0076.446.0093.403.0119.986.0252.998.0152 1.009.0053.042-.0003.042.0003 1.009-.0053.998-.0152.986-.0252.402-.0119.446-.0093.484-.0076.519-.0069.551-.0077.582-.0092.608-.0118.633-.0156.654-.0206.673-.0265.689-.0335.702-.0411.713-.0506.72-.0607.725-.0716.726-.0839.725-.0974.721-.1117.714-.1269.705-.1432.692-.1606.676-.1786z" fill="#0a0b0c"/><path d="m138.48 51.8105c0-1.2836.7804-2.387 1.8918-2.8641-1.5729-.0169-2.8479-1.2989-2.8479-2.8757 0-1.1251.6554-2.0917 1.5986-2.5644-.006-.015-.0127-.0301-.0194-.0448-.1521.0267-.3063.0469-.4661.0469-1.472 0-2.6703-1.1978-2.6703-2.6703 0-.7181.288-1.3679.7512-1.8483-.0659-.1051-.1323-.2074-.1982-.3103-.1479.0279-.2986.0458-.4541.0458-1.3405 0-2.4314-1.0906-2.4314-2.4313 0-.369.0892-.7154.2371-1.0289-.0141-.0147-.029-.0316-.0437-.0459-.0678-.0679-.1468-.1397-.2199-.2093-.2992.1368-.6291.2178-.9787.2178-1.3055 0-2.3676-1.064-2.3676-2.3718 0-.1638.0166-.323.0484-.4776-.0696-.049-.138-.0984-.2082-.147-.29.1516-.6146.2459-.964.2459-1.1576 0-2.0993-.9432-2.0993-2.1028 0-.043.01-.0832.0127-.1257-.1121-.0676-.2195-.1308-.3296-.1963-.3563.2786-.7984.4517-1.2839.4517-1.1583 0-2.1007-.9432-2.1007-2.1027 0-.04.01-.0775.012-.1167-.0462-.0269-.1126-.0647-.1973-.1126-.3405.3656-.8221.5978-1.3594.5978-1.0275 0-1.8633-.8359-1.8633-1.8633 0-.0725.0134-.1414.0215-.2118-.0156-.0058-.0325-.0118-.0476-.0177-.3105.5177-.8719.8688-1.5186.8688-.886 0-1.6161-.6542-1.748-1.5036-.3239.4365-.8383.7237-1.4227.7237-.9017 0-1.6402-.6778-1.7528-1.5495-.8484 1.7324-2.6245 2.9308-4.68 2.9308-.004 0-.007-.0008-.011-.0008-1.9613-.004-3.6702-1.0971-4.5569-2.7044-.2011.7598-.8878 1.3239-1.71 1.3239-.5843 0-1.0989-.2872-1.4226-.7237-.1319.8494-.8622 1.5036-1.7482 1.5036-.6659 0-1.2405-.3727-1.5441-.9165-.0092.0035-.0183.0067-.0273.0102.0125.0878.0269.1753.0269.267 0 1.0274-.836 1.8633-1.8635 1.8633-.565 0-1.066-.2581-1.4079-.6564-.0599.0327-.1099.0605-.1569.0871.0063.067.0203.1321.0203.2008 0 1.1595-.943 2.1027-2.1027 2.1027-.516 0-.983-.1941-1.3494-.5039-.0919.0547-.1829.1079-.276.1638.0071.0703.0213.1382.0213.2104 0 1.1596-.9432 2.1028-2.1027 2.1028-.3832 0-.7381-.1109-1.0477-.2905-.0516.0358-.1013.0718-.1524.1079.044.1807.0742.3669.0742.5613 0 1.3078-1.064 2.3718-2.3717 2.3718-.386 0-.7456-.1016-1.0682-.2661-.0754.0715-.1543.1437-.2243.2135.1762.3366.2856.7133.2856 1.1189 0 1.3407-1.0906 2.4313-2.4313 2.4313-.1983 0-.3885-.0305-.5736-.0756-.0544.0851-.1095.1706-.1641.257.5128.4868.8368 1.1702.8368 1.9314 0 1.4725-1.1976 2.6703-2.6702 2.6703-.2048 0-.4021-.028-.5942-.0717-.0012.0028-.0023.0056-.0037.0086 1.0061.4489 1.7113 1.4547 1.7113 2.6254 0 1.5773-1.2752 2.8591-2.8481 2.8757 1.1109.4771 1.8913 1.5805 1.8913 2.8641 0 1.3795-.9059 2.5387-2.1496 2.9485.3276-.0816.6839-.1236 1.0265-.0631 1.0276.1815 1.8893.7988 1.9254.8251l.1248.0903-.1321.0792c-.0149.0089-1.4787.8931-1.9389 1.6404-.5506.893-.9392 2.0595-.4932 2.5051.2488.2488.5852.4141.9229.4534.3485.0399.6599-.0568.8768-.2739.4891-.4891 1.3755-2.4315 1.3844-2.4511l.0596-.1312.1038.1005c.0343.0332.715.6999 1.0271 1.2618-.1394-1.0068-.2432-2.1772-.2432-3.4315 0-2.9824.0652-6.0923.5399-8.6283.3654-1.9532 1.4417-5.3616 2.4606-7.3226 1.0427-2.0054 4.2556-5.2739 6.2209-6.6434 6.1091-4.2575 11.6639-5.8584 11.7191-5.8738l.0163.0569.0604.13c-.0566.0314-5.6997 3.1495-7.1966 4.6463-3.4749 3.4749-5.7906 6.6317-6.8829 9.3827-1.1951 3.009-1.785 6.4031-1.785 10.3057 0 1.0696.044 2.1773.1325 3.3262.1748 2.2742 1.3249 6.8987 1.9573 9.3174.3114-.1255.634-.2186.9307-.2186.8961 0 1.9828.4287 2.2404.5352.0081-.0035.0161-.0063.0242-.0097.0596-.1143.2014-.3616.447-.6321-.2971.1066-.6123.1752-.946.1752-1.5519 0-2.8149-1.2626-2.8149-2.8146 0-1.5519 1.263-2.8145 2.8149-2.8145.967 0 1.8211.4904 2.328 1.2352-.261-2-.5318-4.2077-.5927-5.208-.1972-3.2354-.0355-7.3717.3607-9.2203.397-1.852 2.2783-6.7325 4.4595-9.4591 1.5719-1.9647 4.936-5.0746 6.6239-6.5978-.2203.1387-.4788.2222-.7581.2222-.7889 0-1.4311-.6419-1.4311-1.4308s.6422-1.4312 1.4311-1.4312c.789 0 1.4312.6423 1.4312 1.4312 0 .339-.1238.6466-.3217.8922.3973-.3559.6489-.5777.6604-.5876l.2693-.2364-.1055.3427c-.0191.0626-1.9311 6.2919-2.2851 7.7077l-.2584.9711c-.349 1.2765-.7835 2.8657-.9946 4.9785-.2467 2.4738-.4513 5.1934-.2687 8.3247.0181.3159.038.6134.0584.9025.4921-.2071 1.05-.3705 1.5888-.3705 0 0 2.1113.0814 2.2612.087.071-.2007.4363-1.2069.9737-1.972.5815-.8273 1.6041-1.8529 1.6146-1.8631l.072-.0718.0718.0718c.0104.0102 1.033 1.0358 1.6141 1.8631.5377.7651.9032 1.7713.974 1.972.1501-.0056 2.2614-.087 2.2614-.087.5469 0 1.113.1676 1.6104.3792.0207-.2918.0406-.5921.0591-.9112.1826-3.1313-.0213-5.8516-.2686-8.3247-.2112-2.1128-.6457-3.702-.9945-4.9785l-.2587-.9711c-.3538-1.4158-2.2658-7.6451-2.2851-7.7077l-.1055-.3427.2694.2364c.0551.048 5.5023 4.835 7.6359 7.5018 2.1812 2.7266 4.0621 7.6071 4.4591 9.4591.3966 1.8483.5578 5.9849.3609 9.2203-.0659 1.0828-.3775 3.5836-.6573 5.7013.4259-1.0139 1.4283-1.7285 2.5954-1.7285 1.5517 0 2.8145 1.2626 2.8145 2.8145 0 1.552-1.2628 2.8146-2.8145 2.8146-.4975 0-.9586-.1408-1.3643-.3685.356.3301.5563.6663.6336.8142.0137.0056.0279.0112.042.0167.2724-.1127 1.3433-.531 2.2289-.531.3034 0 .6333.0974.9512.2278.6315-2.4167 1.7846-7.0496 1.9592-9.3266.0883-1.1489.1331-2.2566.1331-3.3262 0-3.9026-.5899-7.2967-1.7853-10.3057-1.0931-2.7513-3.4088-5.9081-6.8827-9.3827-1.3838-1.3839-6.3026-4.1483-7.0835-4.5833.1101.2025.1783.4313.1783.6776 0 .7889-.6421 1.4308-1.431 1.4308-.789 0-1.4311-.6419-1.4311-1.4308s.6421-1.4312 1.4311-1.4312c.4858 0 .915.2449 1.1736.6165l.0262-.0559.0162-.0569c.0553.0154 5.61 1.6163 11.7186 5.8738 1.9656 1.3695 5.1789 4.6384 6.2211 6.6434 1.0198 1.9614 2.0951 5.3698 2.4611 7.3226.4742 2.536.5395 5.6459.5395 8.6283 0 1.2349-.101 2.3873-.2372 3.3831.3225-.5513.9651-1.1812.9986-1.2134l.1037-.1005.0596.1312c.009.0196.8955 1.962 1.3852 2.4511.4841.4847 1.3214.2984 1.7984-.1795.4463-.4456.0576-1.6114-.4932-2.5051-.4595-.7473-1.924-1.6315-1.9384-1.6404l-.1321-.0792.125-.0903c.0362-.0263.8983-.6436 1.9254-.8251.6908-.122 1.4357.1612 1.8806.3776.001-.0572.003-.1151.004-.1726-1.5906-.1397-2.847-1.4639-2.847-3.0904zm-48.0828-3.7482c1.3516 0 2.4513 1.0998 2.4513 2.4514 0 1.3515-1.0997 2.451-2.4513 2.451-1.3515 0-2.4513-1.0995-2.4513-2.451 0-1.3516 1.0998-2.4514 2.4513-2.4514zm.2243 10.1987c-1.4283 0-2.5907-1.1622-2.5907-2.5904 0-1.4283 1.1624-2.5907 2.5907-2.5907 1.4282 0 2.5906 1.1624 2.5906 2.5907 0 1.4282-1.1624 2.5904-2.5906 2.5904zm.2689-10.2336c-1.2748 0-2.312-1.037-2.312-2.312 0-1.2747 1.0372-2.312 2.312-2.312 1.2749 0 2.3122 1.0373 2.3122 2.312 0 1.275-1.0373 2.312-2.3122 2.312zm1.2556-4.5338c-1.198 0-2.1731-.9745-2.1731-2.1726 0-1.1982.9751-2.1731 2.1731-2.1731 1.1982 0 2.1731.9749 2.1731 2.1731 0 1.1981-.9749 2.1726-2.1731 2.1726zm2.0178-3.8178c-1.0957 0-1.9872-.8914-1.9872-1.9871 0-1.0959.8915-1.9875 1.9872-1.9875 1.096 0 1.9875.8916 1.9875 1.9875 0 1.0957-.8915 1.9871-1.9875 1.9871zm4.7982-6.0628c-.4306 0-.8197-.1653-1.1207-.4293.2806.318.4565.7306.4565 1.1867 0 .9935-.8085 1.8017-1.8021 1.8017s-1.8021-.8082-1.8021-1.8017c0-.9937.8085-1.8022 1.8021-1.8022.4561 0 .8685.1759 1.1862.4566-.2637-.301-.4291-.6902-.4291-1.1209 0-.9424.7668-1.7091 1.7092-1.7091s1.7093.7667 1.7093 1.7091c0 .9425-.7669 1.7091-1.7093 1.7091zm4.1244-3.8616c0 .8402-.6834 1.5235-1.5234 1.5235-.8401 0-1.5238-.6833-1.5238-1.5235 0-.8399.6837-1.5234 1.5238-1.5234.84 0 1.5234.6835 1.5234 1.5234zm8.3666 15.9088h-5.7037v-6.8999h5.6021.1016zm.1376-15.3902h.1016v6.8999h-5.7036v-6.8999zm15.5522 27.991c-1.4279 0-2.5905-1.1622-2.5905-2.5904 0-1.4283 1.1626-2.5907 2.5905-2.5907 1.4286 0 2.5908 1.1624 2.5908 2.5907 0 1.4282-1.1622 2.5904-2.5908 2.5904zm.2241-5.2963c-1.3514 0-2.4509-1.0995-2.4509-2.451 0-1.3516 1.0995-2.4514 2.4509-2.4514 1.3516 0 2.4517 1.0998 2.4517 2.4514 0 1.3515-1.1001 2.451-2.4517 2.451zm1.8198-7.2493c0 1.275-1.0377 2.312-2.3132 2.312-1.2743 0-2.3121-1.037-2.3121-2.312 0-1.2747 1.0378-2.312 2.3121-2.312 1.2755 0 2.3132 1.0373 2.3132 2.312zm-1.395-4.3944c0 1.1981-.9753 2.1726-2.1735 2.1726-1.1983 0-2.1724-.9745-2.1724-2.1726 0-1.1982.9741-2.1731 2.1724-2.1731 1.1982 0 2.1735.9749 2.1735 2.1731zm-2.2038-3.6323c0 1.0957-.891 1.9871-1.9869 1.9871-1.0958 0-1.9875-.8914-1.9875-1.9871 0-1.0959.8917-1.9875 1.9875-1.9875 1.0959 0 1.9869.8916 1.9869 1.9875zm-5.0759-5.7848c0 .4307-.1651.8199-.4291 1.1209.3179-.2807.7301-.4566 1.1862-.4566.9937 0 1.8019.8085 1.8019 1.8022 0 .9935-.8082 1.8017-1.8019 1.8017-.9935 0-1.8019-.8082-1.8019-1.8017 0-.4561.1758-.8687.4563-1.1867-.301.264-.6902.4293-1.1207.4293-.9423 0-1.7091-.7666-1.7091-1.7091 0-.9424.7668-1.7091 1.7091-1.7091.9425 0 1.7092.7667 1.7092 1.7091zm-4.3099-3.6759c.8401 0 1.5235.6835 1.5235 1.5234 0 .8402-.6834 1.5235-1.5235 1.5235-.8402 0-1.5236-.6833-1.5236-1.5235 0-.8399.6834-1.5234 1.5236-1.5234z" fill="#eb8a1b"/><path d="m101.641 38.6753c.5991-2.659 2.7623-7.5707 3.4539-9.1076-.6227.6225-3.1483 3.148-3.1483 3.148-1.4471 1.4473-4.5321 5.1856-5.8501 8.9749-.4741 1.3627-.7829 2.7259-.988 4.0014 1.8221-.5997 3.7136-1.0839 5.6638-1.4398.2053-1.8845.5048-3.9616.8687-5.5769z" fill="#1d82b3"/><path d="m88.4622 41.0368c1.1029-2.777 3.4338-5.9568 6.9284-9.4513 1.0356-1.0359 3.8957-2.761 5.6988-3.804-2.5575 1.1404-7.6169 3.6228-11.3744 6.9118-3.3093 2.897-6.616 8.5265-6.616 16.0145 0 .4463.0164.9012.0403 1.3603 1.1281-.8951 2.3191-1.7353 3.5757-2.5076.1616-3.1597.7367-5.9795 1.7472-8.5237z" fill="none"/><path d="m88.4622 41.0368c1.1029-2.777 3.4338-5.9568 6.9284-9.4513 1.0356-1.0359 3.8957-2.761 5.6988-3.804-2.5575 1.1404-7.6169 3.6228-11.3744 6.9118-3.3093 2.897-6.616 8.5265-6.616 16.0145 0 .4463.0164.9012.0403 1.3603 1.1281-.8951 2.3191-1.7353 3.5757-2.5076.1616-3.1597.7367-5.9795 1.7472-8.5237z" fill="#1d82b3"/><path d="m134.462 50.7078c0-7.4883-3.3071-13.1175-6.6169-16.0145-3.7571-3.289-8.8167-5.7714-11.3741-6.9118 1.8034 1.043 4.6635 2.7681 5.699 3.804 3.4945 3.4943 5.825 6.6739 6.9282 9.4513 1.0106 2.5442 1.5857 5.364 1.7469 8.5237 1.2569.7723 2.448 1.6125 3.576 2.5076.024-.4588.0409-.914.0409-1.3603z" fill="#1d82b3"/><path d="m121.464 41.6906c-1.3178-3.7893-4.4029-7.5276-5.8502-8.9749 0 0-2.5253-2.5255-3.1482-3.148.6919 1.5369 2.8547 6.4486 3.4538 9.1076.364 1.6153.6636 3.6924.8688 5.5769 1.9502.3559 3.8418.8401 5.6637 1.4398-.2049-1.2755-.514-2.6387-.9879-4.0014z" fill="#1d82b3"/><path d="m86.6628 51.4171c0-.6336.0215-1.2492.0522-1.8566-1.2566.7723-2.4476 1.6125-3.5757 2.5076.0137.2576.0266.5146.0479.7764.3661 4.4499.7171 6.7435.9786 7.9262.8441.0288 1.6465.0554 1.6465.0554l.0182.075c.0109.0447.2043.8443.2043 1.5211 0 .2383-.0242.4618-.0888.6314 0 0-.5797 1.1603-.6532 1.3081.1807.1311.8788.6557 1.1133 1.1377.2613.5374.2641 1.9424.2641 2.002v.1288l-.1255-.03c-.0072-.0014-.7458-.1768-1.5603-.1768-.7661 0-1.423.5692-1.423 1.035 0 .515.2498 1.2836.8071 1.8407.6513.651 1.5457.7484 2.0208.7484 1.0279 0 3.6953-.3469 3.6953-1.9318 0-1.8331-.2874-2.3669-.5683-2.6477-.3027-.3028-1.9986-1.3803-2.0158-1.3909l-.1219-.078.1143-.0888c.0359-.0279.6041-.4632 1.2733-.7693-.6326-2.4209-1.7936-7.0873-1.9699-9.382-.0889-1.1535-.1335-2.2666-.1335-3.3419z" fill="#00a13a"/><path d="m122.541 56.3415c.179-1.7681.3078-3.0458.3078-4.9533 0-1.1254-.003-3.2456-.3967-5.6962-1.8219-.5997-3.7135-1.0839-5.6637-1.4398.1906 1.7516.2996 3.3363.2996 4.2212 0 .8402-.1016 2.1504-.2586 3.5278l.0984.075-.1143.0602c-.145 1.2459-.3337 2.5359-.5345 3.5758-.1086.5621-.2583 1.2549-.419 1.9687 1.2694-.3216 1.9951-1.4887 2.0036-1.5024l.0727-.1201.0914.1062c.0232.0276.5807.6831.7405 1.6415.0279.1684.0396.3287.0396.4786 0 .5796-.167.995-.2386 1.1484.1112.0941.8207.6943.8207.6943.3581.3582.832 1.5093.8521 1.5584l.0346.0848s-2.2225 1.1981-2.3178 1.2493c-.007.1177-.1093 1.8784-.1093 1.8784-.1186.9493-1.3175 1.3671-1.3686 1.3837l-.0763.0311-1.0119-1.742c-.268-.5549-1.1206-.5506-1.6301-.5479h-.0946c-.4325 0-.8922.5066-.8922 1.4455 0 .9019.7139 2.0458 1.6254 2.6037.8423.5151 2.0493.6873 3.491.4946 1.3933-.1855 2.2419-1.2148 2.8883-2.1971.7162-1.0889.2875-3.6976.2833-3.7242l-.0198-.1184h.1199c.0181 0 .1634.0021.3755.0127.1993-.9115.7276-3.4201.9061-5.2425z" fill="#00a13a"/><path d="m100.772 44.2522c-1.9502.3559-3.8417.8401-5.6638 1.4398-.3938 2.4506-.3965 4.5708-.3965 5.6962 0 1.9075.1289 3.1852.3076 4.9533l.0957.956c.1787 1.8217.7061 4.3281.9062 5.2411.1997-.0099.3357-.0113.3529-.0113h.1201l-.02.1184c-.0042.0266-.4331 2.6353.2833 3.7242.6465.9823 1.495 2.0116 2.8882 2.1971 1.442.1927 2.6492.0211 3.4911-.4946.9115-.5579 1.6254-1.7018 1.6254-2.6037 0-.9389-.4595-1.4455-.8922-1.4455h-.0946c-.5093-.0027-1.3622-.007-1.6301.5479l-1.0093 1.7384-.0789-.0275c-.0511-.0166-1.2498-.4344-1.3685-1.3837 0 0-.1023-1.7607-.1094-1.8784-.0953-.0512-2.3178-1.2493-2.3178-1.2493l.0347-.0848c.02-.0491.4939-1.2002.852-1.5584 0 0 .7094-.6002.8208-.6943-.0718-.1534-.2386-.5688-.2386-1.1484 0-.1499.0116-.3102.0396-.4786.1597-.9584.7172-1.6139.7407-1.6415l.0913-.1059.0725.1198c.0085.0137.7428 1.1983 2.0281 1.5107-.1615-.7168-.3121-1.413-.4211-1.977-.2001-1.0366-.3884-2.321-.5331-3.5628l-.1395-.0735.1204-.0906c-.1561-1.3714-.2566-2.6749-.2566-3.5119 0-.8849.1088-2.4696.2994-4.2212z" fill="#00a13a"/><path d="m134.422 52.0681c-1.128-.8951-2.3191-1.7353-3.576-2.5076.0315.6077.0527 1.2233.0527 1.8566 0 1.0749-.0449 2.1884-.1331 3.3419-.1767 2.2975-1.3404 6.9723-1.9724 9.391.6599.3056 1.217.7324 1.2526.7603l.1143.0888-.122.078c-.0173.0106-1.713 1.0881-2.0151 1.3909-.2815.2808-.5687.8153-.5687 2.6477 0 1.5849 2.6673 1.9318 3.6952 1.9318.4749 0 1.369-.0974 2.0206-.7484.5579-.5571.807-1.3257.807-1.8407 0-.4658-.6563-1.035-1.423-1.035-.8147 0-1.5531.1754-1.5602.1768l-.1257.03v-.1288c0-.0596.003-1.4646.2644-2.002.2339-.482.9325-1.0066 1.1134-1.1377-.0737-.1478-.6537-1.3081-.6537-1.3081-.0646-.1696-.0883-.3924-.0883-.6307 0-.6768.1934-1.4771.2044-1.5225l.0183-.0743s.8165-.0273 1.6689-.0561c.2614-1.1834.6118-3.4767.978-7.9255.022-.2618.0347-.5188.0484-.7764z" fill="#00a13a"/><path d="m93.5949 68.0148c-.2001.459-.8892 2.0006-1.6187 3.1579-.524.832-1.4933 1.4883-2.5127 1.9152 1.8998-.4326 4.1663-.8984 6.1464-1.1661l2.8502-.4089c.4604-.0681.9172-.1355 1.3728-.2012-.8547-.0836-1.7059-.3359-2.8697-.8165-1.613-.6654-2.9929-2.0753-3.3683-2.4804z" fill="#eb8a1b"/><path d="m125.562 71.1727c-.7293-1.1573-1.4181-2.6982-1.6181-3.1579-.3757.4051-1.7557 1.815-3.3685 2.4804-1.1584.4785-2.0066.7301-2.8577.8145.4591.0662.9192.1343 1.3832.2032l2.8502.4089c1.9635.2657 4.21.7257 6.1005 1.1555-1.0105-.4269-1.97-1.079-2.4896-1.9046z" fill="#eb8a1b"/><path d="m108.769 66.2358c-.3162.4192-1.5373 1.9928-2.8242 3.0482-.9019.7399-1.7445 1.2476-2.6291 1.575 1.7316-.1877 3.5159-.3133 5.4643-.3133 1.9367 0 3.7115.1236 5.433.3097-.8811-.328-1.7211-.8343-2.6201-1.5714-1.2869-1.0554-2.508-2.629-2.8239-3.0482z" fill="#eb8a1b"/><path d="m113.223 16.4283c0-.2353 0-3.0822 0-3.3215-.2391.0672-3.4436.9671-3.4436.9671s.6152-2.685.6674-2.9128c-.2299 0-3.3201 0-3.5636 0 .0693.2371.8501 2.9148.8501 2.9148s-3.2759-.9039-3.5147-.9698v3.6659c.253-.0946 3.3995-1.2748 3.3995-1.2748s-.6691 2.3423-.7356 2.5757h.0294c.578-.2229 1.2023-.3507 1.8576-.3521.004 0 .007-.0008.011-.0008.5732 0 1.1236.0964 1.64.2684-.1243-.4741-.6463-2.4678-.6463-2.4678s3.2124.8454 3.4488.9077z" fill="#fff500"/><path d="m116.596 52.2517-1.2416.6558c-.2243 2.2236-.5024 3.4683-.7204 4.4433l-.071.3195c.1943.0575.4066.096.6518.096.1507 0 .2891-.0256.4282-.0488.1671-.7384.3231-1.4605.4361-2.0437.1926-.9975.3747-2.2254.5169-3.4221z" fill="#fff500"/><path d="m124.054 51.3475c0-2.464-.1616-4.9142-.441-6.2159-.3931-1.8356-2.2574-6.6727-4.4192-9.375-1.851-2.3139-6.218-6.2391-7.3407-7.2365.4031 1.3165 1.8749 6.142 2.1828 7.3727l.2572.9666c.3508 1.2839.7879 2.8819 1.0008 5.0119.1816 1.8162.3398 3.7651.3398 5.9127 0 .7867-.0214 1.6005-.0705 2.4443-.0201.3487-.0423.6749-.065.9916.5155.2397.93.501 1.1424.647.149-1.3283.2442-2.5821.2442-3.3935 0-1.6187-.4417-6.551-1.1634-9.7534-.7071-3.1368-3.6407-9.5121-3.6704-9.5759l.1643-.1145 3.5424 3.5424c1.4587 1.4585 4.5686 5.2277 5.8985 9.052 1.3958 4.0131 1.3958 8.0432 1.3958 9.7642 0 1.9177-.1295 3.1996-.3087 4.9736l-.0953.9553c-.1796 1.8351-.7047 4.3288-.9037 5.2347.3282.0238.7583.07 1.2005.1605.2596-1.8771.9251-6.7776 1.0249-8.4156.0568-.9336.0843-1.9428.0843-2.9492z" fill="#fff500"/><path d="m135.107 46.7729c-.3623-1.9385-1.43-5.3206-2.4411-7.266-1.0293-1.9805-4.2097-5.2137-6.1567-6.5706-3.3395-2.3271-6.5044-3.8526-8.6941-4.761 2.7535 1.3065 6.9388 3.5413 10.1647 6.3653 3.3435 2.9268 6.6858 8.6114 6.6858 16.1679 0 .7018-.0288 1.4196-.0892 2.1528-.3007 3.6437-.6418 6.3602-.9788 7.9018.5829-.019 1.1506-.038 1.4618-.0483.2674-1.2403.5843-3.166.5843-5.3508 0-2.9725-.0652-6.0709-.5367-8.5911z" fill="#fff500"/><path d="m101.918 57.7201c.1326.021.2629.0462.4054.0462.2543 0 .4723-.0427.6723-.1041l-.0691-.3114c-.2175-.973-.495-2.2151-.7192-4.4308l-1.2407-.6554c.1417 1.1927.3229 2.4152.5148 3.4092.1128.5839.2695 1.3071.4365 2.0463z" fill="#fff500"/><path d="m101.927 47.784c0-2.1476.1582-4.0965.3397-5.9127.2129-2.13.6499-3.728 1.001-5.0119l.2571-.9666c.3079-1.2307 1.7796-6.0562 2.1829-7.3727-1.1228.9974-5.4896 4.9226-7.3408 7.2365-2.1618 2.7023-4.0264 7.5394-4.4195 9.375-.2791 1.3017-.4407 3.7519-.4407 6.2159 0 1.0064.0271 2.0156.0842 2.9492.0662 1.0853.3804 3.6021.661 5.7251.1377.3314.2155.6937.2155 1.0747 0 .1045-.0197.204-.0309.3056.0691.5093.1307.9599.1787 1.3053.4446-.0891.8755-.1346 1.2003-.157-.1986-.9073-.7232-3.3989-.9029-5.2333l-.0952-.9553c-.1795-1.774-.3087-3.0559-.3087-4.9736 0-1.721 0-5.7511 1.3957-9.7642 1.3299-3.8243 4.4397-7.5935 5.8985-9.052l3.5425-3.5424.1644.1145c-.0298.0638-2.9634 6.4391-3.6705 9.5759-.7216 3.2024-1.1635 8.1347-1.1635 9.7534 0 .8085.0948 2.0564.2426 3.3797.221-.1511.6329-.4086 1.1433-.6433-.0224-.3137-.0444-.6365-.0644-.9815-.049-.8438-.0703-1.6576-.0703-2.4443z" fill="#fff500"/><path d="m93.7581 62.9449c.2111-.0785.4343-.1386.6582-.1906-.0301-.22-.0655-.4757-.1059-.7708-.1201.3589-.3075.6834-.5523.9614z" fill="#eb8a1b"/><path d="m135.294 60.707c0-.0323.0007-.0778.002-.1304-.01.0456-.0189.087-.0282.1311.008 0 .022-.0007.0262-.0007z" fill="#eb8a1b"/><path d="m115.138 53.022-.7231.382c-.4921.2907-1.3404 1.4542-1.3404 2.1319 0 .4686.2719 1.6274 1.2976 2.0566l.0638-.2858c.2123-.9495.4813-2.1588.7021-4.2847z" fill="#eb8a1b"/><path d="m123.328 61.4097c-.0723.5347-.1355.995-.1845 1.3495.2233.0527.4471.1135.6574.1927.1291.049.2487.1059.3606.1667-.4591-.4427-.7579-1.0411-.8335-1.7089z" fill="#eb8a1b"/><path d="m82.2448 60.707c.0078 0 .0291.0007.0482.0014-.018-.0827-.0355-.1681-.0533-.2565.0031.1094.0046.1997.0051.2551z" fill="#eb8a1b"/><path d="m103.187 57.584c1.0093-.4357 1.2772-1.5827 1.2772-2.0481 0-.6777-.8482-1.8412-1.3404-2.1319l-.6991-.3693c.2203 2.1181.4886 3.3246.7005 4.272z" fill="#eb8a1b"/><path d="m82.8954 50.7085c0-7.5561 3.3419-13.2408 6.6856-16.1679 3.2258-2.824 7.4117-5.0592 10.1652-6.3653-2.1895.9084-5.3551 2.4339-8.6947 4.761-1.9469 1.3565-5.1271 4.5898-6.1564 6.5706-1.0114 1.945-2.0788 5.3275-2.4418 7.266-.4712 2.5202-.5363 5.6186-.5363 8.5911 0 2.1855.3167 4.1112.5846 5.3515.3189.0103.8832.0292 1.4613.049-.3373-1.5415-.6787-4.2588-.9781-7.9032-.0603-.7332-.0894-1.451-.0894-2.1528z" fill="#fff500"/><path d="m125.396 64.3841c.006-.0028.019-.0078.0268-.0106-.0141-.0055-.0283-.0111-.042-.0167.005.0077.0117.0202.0152.0273z"/><path d="m78.422 43.4218c.0153.0068.0281.017.0429.0235.0014-.003.0025-.0058.0037-.0086-.0161-.0039-.0303-.011-.0466-.0149z"/><path d="m97.7525 26.5648c.0046.0247.0043.0501.0078.0748.009-.0035.0181-.0067.0273-.0102-.012-.0214-.0238-.0424-.0351-.0646z"/><path d="m92.1427 64.3841c.0021-.0042.0063-.0113.0088-.0161-.0081.0034-.0161.0062-.0242.0097.0042.0015.0118.005.0154.0064z"/><g fill="#fff"><path d="m102.503 26.5629c.818 0 1.4844-.6303 1.5579-1.4296-.1759-.3753-.3114-.7726-.3937-1.1899-.2879-.3198-.7006-.5252-1.1642-.5252-.8669 0-1.5723.7053-1.5723 1.5722 0 .0089.002.0169.002.0257.0971.2046.1539.4295.1657.6677.2572.5185.787.8791 1.4041.8791z"/><path d="m99.3317 27.3427c.8672 0 1.5723-.7052 1.5723-1.5723s-.7051-1.5725-1.5723-1.5725c-.867 0-1.5721.7054-1.5721 1.5725s.7051 1.5723 1.5721 1.5723z"/><path d="m95.9237 28.5667c.9154 0 1.6603-.7447 1.6603-1.6601 0-.9151-.7449-1.66-1.6603-1.66-.9153 0-1.6602.7449-1.6602 1.66 0 .9154.7449 1.6601 1.6602 1.6601z"/><path d="m92.2765 30.3008c1.0474 0 1.8995-.8519 1.8995-1.8994 0-1.0473-.8521-1.8993-1.8995-1.8993-1.0475 0-1.8994.852-1.8994 1.8993 0 1.0475.8519 1.8994 1.8994 1.8994z"/><path d="m88.5697 32.2739c1.0475 0 1.8995-.8519 1.8995-1.8995 0-1.047-.852-1.8991-1.8995-1.8991-1.0474 0-1.8995.8521-1.8995 1.8991 0 1.0476.8521 1.8995 1.8995 1.8995z"/><path d="m85.0721 35.0245c1.1956 0 2.1684-.973 2.1684-2.1686 0-1.1954-.9728-2.1682-2.1684-2.1682-1.1958 0-2.1686.9728-2.1686 2.1682 0 1.1956.9728 2.1686 2.1686 2.1686z"/><path d="m81.6339 38.5222c1.2285 0 2.2281-.9996 2.2281-2.2282 0-1.2282-.9996-2.2276-2.2281-2.2276-1.2286 0-2.228.9994-2.228 2.2276 0 1.2286.9994 2.2282 2.228 2.2282z"/><path d="m79.0628 43.3053c1.3603 0 2.467-1.1068 2.467-2.4672 0-1.36-1.1067-2.4666-2.467-2.4666-1.3602 0-2.4671 1.1066-2.4671 2.4666 0 1.3604 1.1069 2.4672 2.4671 2.4672z"/><path d="m79.9731 46.0707c0-1.4748-1.2003-2.6748-2.6752-2.6748-1.4752 0-2.6755 1.2-2.6755 2.6748 0 1.4752 1.2003 2.6756 2.6755 2.6756 1.4749 0 2.6752-1.2004 2.6752-2.6756z"/><path d="m76.1022 54.725c1.6066 0 2.914-1.3075 2.914-2.9145 0-1.6064-1.3074-2.9136-2.914-2.9136-1.6068 0-2.9143 1.3072-2.9143 2.9136 0 1.607 1.3075 2.9145 2.9143 2.9145z"/><path d="m113.641 24.9904c0 .8671.7051 1.5725 1.5723 1.5725.6172 0 1.1468-.3606 1.404-.8791.012-.2382.0688-.4631.1658-.6677 0-.0088.002-.0168.002-.0257 0-.8669-.7053-1.5722-1.5723-1.5722-.6202 0-1.1526.3636-1.4085.8867-.0398.1461-.086.289-.1379.4295-.0139.0837-.0259.1686-.0259.256z"/><path d="m116.812 25.7704c0 .8671.7053 1.5723 1.5723 1.5723.8672 0 1.5726-.7052 1.5726-1.5723s-.7054-1.5725-1.5726-1.5725c-.867 0-1.5723.7054-1.5723 1.5725z"/><path d="m120.132 26.9066c0 .9154.7449 1.6601 1.6601 1.6601.9156 0 1.6604-.7447 1.6604-1.6601 0-.9151-.7448-1.66-1.6604-1.66-.9152 0-1.6601.7449-1.6601 1.66z"/><path d="m123.54 28.4014c0 1.0475.8514 1.8994 1.8975 1.8994 1.0451 0 1.8958-.8519 1.8958-1.8994 0-1.0473-.8507-1.8993-1.8958-1.8993-1.0461 0-1.8975.852-1.8975 1.8993z"/><path d="m129.137 28.4753c-1.0453 0-1.896.8521-1.896 1.8991 0 1.0476.8507 1.8995 1.896 1.8995 1.0452 0 1.8958-.8519 1.8958-1.8995 0-1.047-.8506-1.8991-1.8958-1.8991z"/><path d="m130.465 32.8559c0 1.1956.9709 2.1686 2.1643 2.1686 1.1947 0 2.1671-.973 2.1671-2.1686 0-1.1954-.9724-2.1682-2.1671-2.1682-1.1934 0-2.1643.9728-2.1643 2.1682z"/><path d="m133.837 36.294c0 1.2286.9999 2.2282 2.2282 2.2282 1.2281 0 2.2281-.9996 2.2281-2.2282 0-1.2282-1-2.2276-2.2281-2.2276-1.2283 0-2.2282.9994-2.2282 2.2276z"/><path d="m136.17 40.8381c0 1.3604 1.1072 2.4672 2.467 2.4672 1.3602 0 2.467-1.1068 2.467-2.4672 0-1.36-1.1068-2.4666-2.467-2.4666-1.3598 0-2.467 1.1066-2.467 2.4666z"/><path d="m143.077 46.0707c0-1.4748-1.2003-2.6748-2.6752-2.6748-1.4747 0-2.6748 1.2-2.6748 2.6748 0 1.4752 1.2001 2.6756 2.6748 2.6756 1.4749 0 2.6752-1.2004 2.6752-2.6756z"/><path d="m144.512 51.8105c0-1.6064-1.3077-2.9136-2.9148-2.9136-1.6064 0-2.914 1.3072-2.914 2.9136 0 1.607 1.3076 2.9145 2.914 2.9145 1.6071 0 2.9148-1.3075 2.9148-2.9145z"/><path d="m94.2805 61.0965c0-1.4489-1.1788-2.6281-2.628-2.6281-1.4489 0-2.6277 1.1792-2.6277 2.6281 0 1.449 1.1788 2.6283 2.6277 2.6283 1.4492 0 2.628-1.1793 2.628-2.6283z"/><path d="m90.6213 53.2522c-1.3338 0-2.4184 1.0846-2.4184 2.4184 0 1.3334 1.0846 2.418 2.4184 2.418 1.3336 0 2.4182-1.0846 2.4182-2.418 0-1.3338-1.0846-2.4184-2.4182-2.4184z"/><path d="m90.397 52.802c1.2618 0 2.2887-1.0264 2.2887-2.2883s-1.0269-2.2887-2.2887-2.2887c-1.2619 0-2.2886 1.0268-2.2886 2.2887s1.0267 2.2883 2.2886 2.2883z"/><path d="m93.049 45.7154c0-1.1903-.9683-2.1586-2.1588-2.1586-1.1904 0-2.1586.9683-2.1586 2.1586 0 1.1901.9682 2.1585 2.1586 2.1585 1.1905 0 2.1588-.9684 2.1588-2.1585z"/><path d="m92.1458 39.2922c-1.1185 0-2.0288.9102-2.0288 2.0288 0 1.1185.9103 2.0283 2.0288 2.0283 1.1187 0 2.0288-.9098 2.0288-2.0283 0-1.1186-.9101-2.0288-2.0288-2.0288z"/><path d="m94.1636 35.833c-1.0232 0-1.8554.8323-1.8554 1.8557 0 1.0229.8322 1.8555 1.8554 1.8555 1.0235 0 1.8558-.8326 1.8558-1.8555 0-1.0234-.8323-1.8557-1.8558-1.8557z"/><path d="m96.4955 32.6879c-.9275 0-1.6822.7548-1.6822 1.6825 0 .9273.7547 1.6819 1.6822 1.6819.9276 0 1.6823-.7546 1.6823-1.6819 0-.9277-.7547-1.6825-1.6823-1.6825z"/><path d="m98.9618 30.3083c-.8799 0-1.5956.7157-1.5956 1.5956 0 .8797.7157 1.5956 1.5956 1.5956.88 0 1.5958-.7159 1.5958-1.5956 0-.8799-.7158-1.5956-1.5958-1.5956z"/><path d="m101.563 28.3288c-.7845 0-1.4229.6383-1.4229 1.4226 0 .7842.6384 1.4225 1.4229 1.4225.7843 0 1.4225-.6383 1.4225-1.4225 0-.7843-.6382-1.4226-1.4225-1.4226z"/><path d="m104.074 29.1587c.7368 0 1.3359-.599 1.3359-1.3353 0-.7369-.5991-1.3358-1.3359-1.3358-.7367 0-1.3358.5989-1.3358 1.3358 0 .7363.5991 1.3353 1.3358 1.3353z"/><path d="m126.111 63.7248c1.4491 0 2.6282-1.1793 2.6282-2.6283 0-1.4489-1.1791-2.6281-2.6282-2.6281-1.449 0-2.6271 1.1792-2.6271 2.6281 0 1.449 1.1781 2.6283 2.6271 2.6283z"/><path d="m127.143 53.2522c-1.3334 0-2.418 1.0846-2.418 2.4184 0 1.3334 1.0846 2.418 2.418 2.418 1.334 0 2.4186-1.0846 2.4186-2.418 0-1.3338-1.0846-2.4184-2.4186-2.4184z"/><path d="m127.367 48.225c-1.2618 0-2.2882 1.0268-2.2882 2.2887s1.0264 2.2883 2.2882 2.2883c1.262 0 2.2891-1.0264 2.2891-2.2883s-1.0271-2.2887-2.2891-2.2887z"/><path d="m126.873 47.8739c1.1905 0 2.159-.9684 2.159-2.1585 0-1.1903-.9685-2.1586-2.159-2.1586-1.1901 0-2.1579.9683-2.1579 2.1586 0 1.1901.9678 2.1585 2.1579 2.1585z"/><path d="m125.618 43.3493c1.1188 0 2.0291-.9098 2.0291-2.0283 0-1.1186-.9103-2.0288-2.0291-2.0288-1.1182 0-2.0281.9102-2.0281 2.0288 0 1.1185.9099 2.0283 2.0281 2.0283z"/><path d="m123.601 39.5442c1.0229 0 1.8552-.8326 1.8552-1.8555 0-1.0234-.8323-1.8557-1.8552-1.8557-1.0235 0-1.8559.8323-1.8559 1.8557 0 1.0229.8324 1.8555 1.8559 1.8555z"/><path d="m121.269 36.0523c.9277 0 1.6824-.7546 1.6824-1.6819 0-.9277-.7547-1.6825-1.6824-1.6825-.9276 0-1.6823.7548-1.6823 1.6825 0 .9273.7547 1.6819 1.6823 1.6819z"/><path d="m118.803 33.4995c.88 0 1.5959-.7159 1.5959-1.5956 0-.8799-.7159-1.5956-1.5959-1.5956-.8799 0-1.5958.7157-1.5958 1.5956 0 .8797.7159 1.5956 1.5958 1.5956z"/><path d="m116.202 31.1739c.7844 0 1.4227-.6383 1.4227-1.4225 0-.7843-.6383-1.4226-1.4227-1.4226-.7845 0-1.4228.6383-1.4228 1.4226 0 .7842.6383 1.4225 1.4228 1.4225z"/><path d="m113.691 26.4876c-.7367 0-1.3359.5989-1.3359 1.3358 0 .7363.5992 1.3353 1.3359 1.3353.7366 0 1.3358-.599 1.3358-1.3353 0-.7369-.5992-1.3358-1.3358-1.3358z"/></g><path d="m108.769 23.6459h4.9647c.0337-.2333.0567-.4697.0567-.7121 0-.409-.0547-.8042-.1475-1.1846h-3.709v-3.6866c-.3713-.0877-.7562-.1393-1.1539-.1393-.004 0-.007.0006-.011.0006-.4583.0012-.9005.0684-1.3223.185v3.6403h-3.5296c-.0928.3804-.1475.7756-.1475 1.1846 0 .2424.0232.4788.0569.7121z" fill="#eb8a1b"/><path d="m108.769 23.8492h-4.9117c.4312 2.3229 2.467 4.089 4.9117 4.0947.004 0 .007.0004.011.0004 2.4496 0 4.4909-1.7687 4.923-4.0951z" fill="#fff500"/><path d="m110.138 18.1153v3.4307h3.4535c-.4791-1.6578-1.7915-2.9621-3.4535-3.4307z" fill="#fff500"/><path d="m107.244 18.1668c-1.5772.5096-2.8125 1.781-3.2742 3.3792h3.2742c0-.1687 0-2.7487 0-3.3792z" fill="#fff500"/><path d="m143.287 54.5285c-1.0482.5237-1.513.9371-1.5175.9413l-.0575.0515-.0653-.0413c-.012-.0073-1.2046-.754-2.17-.5838-.7762.1372-1.4536.5369-1.7136.7051.3256.2036 1.4466.9315 1.8728 1.623.3193.5193.7153 1.3695.7153 2.0385 0 .2853-.072.5376-.2517.7176-.5472.5472-1.516.7497-2.087.1794-.4442-.445-1.1534-1.9262-1.3644-2.3774-.2254.2284-.8891.9263-1.0066 1.3747-.1436.5487-.1457 1.6368-.1457 1.648v.098s-3.4571.1157-3.6071.1206c-.0405.1773-.1827.8358-.1827 1.4041 0 .2124.0208.4078.0762.5529l.7223 1.4447-.072.0505c-.008.0063-.8778.6195-1.1178 1.1121-.2078.4293-.2368 1.4872-.2417 1.7864.2431-.0497.8242-.1542 1.4805-.1542.9012 0 1.6262.6778 1.6262 1.2382 0 .5564-.2674 1.3859-.8659 1.985-.7034.7022-1.6583.8073-2.1649.8073-.0392 0-3.8985-.0247-3.8985-2.135 0-1.9064.3172-2.4812.6277-2.792.2858-.2855 1.5948-1.1273 1.924-1.3377-.2801-.2061-1.3326-.9403-2.1508-.9403-.9537 0-2.2487.5542-2.2614.5598l-.0916.0391-.0414-.0903c-.005-.0098-.4762-1.0138-1.5281-1.4118-.9505-.3594-2.1554-.4028-2.4458-.4085.036.2432.1178.8668.1178 1.5876 0 .7689-.0962 1.6213-.4509 2.1601-.671 1.0204-1.5563 2.0902-3.0308 2.2871-1.4883.1984-2.7417.0177-3.6242-.5225-.9821-.6019-1.7223-1.796-1.7223-2.7776 0-1.0707.5645-1.6486 1.0955-1.6486l.0939-.0007c.5575-.0022 1.4904-.0071 1.8137.6635 0 0 .8385 1.4428.9158 1.5758.1958-.0763 1.0641-.4485 1.1563-1.1856l.1149-1.9779s2.1029-1.1344 2.255-1.2163c-.0889-.2118-.4784-1.1141-.7713-1.407l-.9315-.7884.0396-.0728c.003-.0048.2495-.4667.2495-1.1322 0-.1387-.0107-.2852-.0361-.4387-.1167-.6993-.4608-1.2286-.6143-1.4378-.2095.3147-1.1336 1.5675-2.7385 1.5675-1.7075 0-2.3437-1.4925-2.3437-2.4336 0-.7968.9534-2.0195 1.44-2.3071 0 0 1.9723-1.0419 2.2337-1.1799-.399-.2739-1.6928-1.0974-2.8545-1.0974l-2.4037.0925-.0244-.0718c-.004-.0114-.4057-1.1844-.9736-1.9919-.5115-.728-1.3379-1.5784-1.5196-1.7625-.1819.1841-1.0084 1.0345-1.5203 1.7625-.5675.8075-.9694 1.9805-.973 1.9919l-.0309.0714-2.3973-.0921c-1.1617 0-2.4553.8235-2.8545 1.0974.2613.138 2.2336 1.1799 2.2336 1.1799.4866.2876 1.4399 1.5103 1.4399 2.3071 0 .9411-.6361 2.4336-2.3437 2.4336-1.6049 0-2.5291-1.2528-2.7385-1.5675-.1534.2092-.4974.7385-.6141 1.4378-.0256.1535-.0361.3-.0361.4387 0 .6655.2463 1.1274.2495 1.1322l.0347.077-.9267.7842c-.2929.2929-.6824 1.1952-.7715 1.407.1521.0819 2.2054 1.1889 2.2054 1.1889l.0501.033.1145 1.9723c.0923.7371.9606 1.1093 1.1566 1.1856.0769-.133.9156-1.5758.9156-1.5758.3233-.6706 1.2564-.6657 1.8137-.6635l.0939.0007c.5311 0 1.0955.5779 1.0955 1.6486 0 .9816-.7402 2.1757-1.7224 2.7776-.8817.5408-2.1358.7209-3.6241.5225-1.4745-.1969-2.3597-1.2667-3.031-2.2871-.3544-.5388-.4509-1.3912-.4509-2.1601 0-.7208.082-1.3444.1182-1.5876-.2909.0057-1.4957.0491-2.446.4085-1.0521.398-1.5236 1.402-1.5281 1.4118l-.0419.0903-.091-.0391c-.0129-.0056-1.3081-.5598-2.2617-.5598-.8179 0-1.8703.7342-2.1513.9403.3301.2104 1.6393 1.0522 1.9243 1.3377.3103.3101.6279.8849.6279 2.792 0 2.1103-3.8596 2.135-3.8985 2.135-.5066 0-1.4612-.1051-2.1644-.8073-.5985-.5984-.8668-1.428-.8668-1.985 0-.5604.7253-1.2382 1.6263-1.2382.6566 0 1.2374.1045 1.4801.1542-.0041-.2992-.0328-1.3571-.2414-1.7864-.2395-.4926-1.109-1.1058-1.1176-1.1121l-.0682-.0576.7189-1.4376c.055-.1451.076-.3405.076-.5536 0-.5683-.1418-1.2261-.1824-1.4034-.1502-.0049-3.607-.1206-3.607-.1206v-.098c0-.0112-.0017-1.0993-.146-1.648-.1179-.4484-.7811-1.1463-1.0074-1.3747-.2102.4512-.9191 1.9324-1.3637 2.3774-.5703.5703-1.5398.3678-2.087-.1794-.1799-.18-.2516-.4323-.2516-.7176 0-.669.3959-1.5192.7153-2.0385.4258-.6915 1.5465-1.4194 1.8727-1.623-.26-.1682-.9371-.5679-1.7138-.7051-.9652-.1702-2.1584.5765-2.1703.5838l-.0651.0413-.0572-.0515c-.0045-.0042-.4691-.4176-1.5174-.9413-.8434-.4219-1.7101-.1458-1.987-.0364.0407.0872.1249.2669.2358.5062.2674.008 1.3485.0656 1.9445.4765 0 0 .9202.7484 1.0292.8365.1581-.0881.7996-.4285 1.3792-.4285h1.4381l-.2579.1844c-.0107.0078-1.0796.7769-1.3785 1.4602-.3027.6923-.4824 2.1082-.0747 2.7521.4614.7288 1.075 1.1639 1.6408 1.1639.7029 0 1.4556-.2424 1.789-.576.3608-.3608.8017-1.5645.8057-1.5772l.088-.241.1012.236c.0168.0394.4116.9698.4116 1.7217v.9663c.3139-.0849 1.4147-.3728 1.8939-.3728h1.7523l-.0146.1141c-.0046.0365-.1162.8941-.3213 1.3726-.1762.4114-.8023.9845-1.0248 1.1815.1497.1006.4413.3194.891.7693.6722.6725.68 1.3009.68 1.3278v.1016h-.1016c-.0154 0-1.5411.0105-2.3188.8288-.3006.3161-.4524.7166-.4524 1.1911 0 .0378.0008.0762.0029.1155.1083 2.1682 2.9178 3.4242 3.9674 3.5364.9974.1058 3.3601-.4219 4.0733-1.5672.7234-1.1613.7427-2.845.5924-3.4882-.15-.6433-1.3586-2.1868-1.3708-2.2022l-.1265-.1612.2047-.0034c.0524-.0008 1.2911-.019 1.8259.3062 0 0 .7933.4919.9602.5956.0928-.2075.3317-.667.7983-1.1337.6183-.618 1.6915-.8828 1.737-.894l.1318-.0324-.0064.136c-.0245.5296-.05 1.9922.1262 2.3905.0143.0332 1.4744 3.2743 4.1772 3.5573 2.4342.2544 4.5437-.3965 5.3756-1.659.7418-1.1266.9397-2.8061.9397-3.621 0-.5838-.8154-1.5128-1.7816-1.5128-.9807 0-1.9059.2136-2.2001.5086l-1.2798 1.1816-.0532-.1418c-.005-.0139-.0867-.236-.0867-.5569 0-.1639.0216-.3546.0849-.5557 0 0 .371-.9102.4502-1.1049-.1982-.0413-1.1837-.2452-1.1837-.2452l-1.3027-.499-.1362-.049.9269-1.0285s.6889-.6497.7576-.714c-.0099-.0939-.1816-1.7364-.1816-1.7364l.1805.1219c.01.0064 1.0064.6699 2.1554.6699.8734 0 3.3661-.4812 3.3661-2.6187 0-2.1178-.7304-2.7465-.9543-2.8889l-2.1144-1.2485.2475-.0575c.0543-.0125 1.3354-.3071 2.2632-.3071.5459 0 1.6073.2253 1.877.2844.0403-.2539.1948-1.1163.5609-1.8232.4175-.8057 1.2484-1.897 1.2836-1.9429l.081-.1058.0808.1058c.035.0459.866 1.1372 1.2835 1.9429.3661.7069.5206 1.5693.5609 1.8232.2698-.0591 1.331-.2844 1.8771-.2844.9277 0 2.2089.2946 2.2631.3071l.2467.0579-2.1136 1.2481c-.2239.1424-.9543.7711-.9543 2.8889 0 2.1375 2.4926 2.6187 3.366 2.6187 1.1491 0 2.1454-.6635 2.1556-.6699l.1804-.1222s-.1719 1.6428-.1814 1.7367c.0685.0643.7572.714.7572.714l.8277.9186.1017.1065-1.441.5514s-.9854.2039-1.1838.2452c.0791.1947.4502 1.1049.4502 1.1049.0632.2011.0847.3918.0847.5557 0 .3209-.0815.543-.0864.5569l-.0523.1431-1.2809-1.1829c-.2942-.295-1.2193-.5086-2.2001-.5086-.9661 0-1.7816.929-1.7816 1.5128 0 .8149.198 2.4944.9398 3.621.8318 1.2625 2.9413 1.9134 5.3754 1.659 2.703-.283 4.1631-3.5241 4.1775-3.5573.1758-.3976.1507-1.8609.126-2.3905l-.006-.136.1319.0324c.0456.0112 1.1185.276 1.7371.894.466.4667.7049.9262.7973 1.1337.1677-.1037.9616-.5956.9616-.5956.5345-.3252 1.7733-.307 1.8259-.3062l.2039.0034-.1263.1612c-.012.0154-1.2212 1.5589-1.3711 2.2022-.15.6432-.1302 2.3269.5927 3.4882.7132 1.1453 3.076 1.673 4.0734 1.5672 1.0498-.1122 3.8587-1.3682 3.9673-3.5364.002-.0393.003-.0777.003-.1155 0-.4745-.1521-.875-.4527-1.1911-.7769-.8183-2.3029-.8288-2.3185-.8288h-.1016v-.1016c0-.0269.008-.6553.6796-1.3278.4505-.4499.742-.6687.8912-.7693-.2227-.197-.8482-.7701-1.0243-1.1815-.2053-.4785-.3165-1.3361-.3214-1.3726l-.0148-.1141h1.7521c.4795 0 1.58.2879 1.8941.3728 0-.2047 0-.9663 0-.9663 0-.7519.3951-1.6823.412-1.7217l.101-.236.0875.241c.005.0127.4456 1.2164.8066 1.5772.3333.3336 1.0853.576 1.7885.576.5662 0 1.1791-.4351 1.6403-1.1639.4079-.6439.2283-2.0598-.0741-2.7521-.2992-.6833-1.3679-1.4524-1.3785-1.4602l-.2583-.1844h1.4384c.5794 0 1.2212.3404 1.3797.4285.1082-.0881 1.0292-.8365 1.0292-.8365.5949-.4102 1.6746-.4685 1.9434-.4765.1114-.2393.1954-.4193.2364-.5065-.2771-.1091-1.1436-.3852-1.9872.0367z" fill="#eb8a1b"/><path d="m72.3422 55.1404c.5122 1.1051 1.5147 3.2873 1.7845 4.0257-.3647-.9989-1.7699-3.9945-1.7842-4.0246z"/><path d="m120.498 70.3075c1.8383-.7589 3.3847-2.5259 3.4002-2.5435l.107-.1232.063.1507c.008.019.8137 1.9212 1.6661 3.2736.8335 1.3214 2.8471 2.1943 4.319 2.3442 1.2586.1282 2.5553-.0603 4.0813-.5927 1.1717-.4086 2.8855-1.8531 3.9972-2.966.1549-.1548.3161-.3207.4809-.4968-.1775-.1507-.3083-.3612-.3616-.6383-.1284-.6697.1401-1.5987.7015-2.4257v.0007c.8273-1.2205 1.9909-1.8293 2.7136-1.4544.0832-.1976.1679-.3944.2388-.597l.4009-1.6521c.2219-1.0484.4995-2.3522.9148-3.4909.3204-.8771 1.4301-3.267 1.7201-3.8886-.3411.0164-1.2325.0906-1.7313.4347l-1.1246.914-.061-.0356c-.007-.0042-.7459-.4346-1.338-.4346 0 0-.5023 0-.8235 0 .3462.2765.9739.8258 1.2082 1.3601.1884.4306.3285 1.1028.3285 1.7313 0 .4666-.077.9087-.2682 1.2115-.5067.7994-1.1675 1.2577-1.8128 1.2577-.6249 0-1.4964-.199-1.9332-.6347-.2886-.2895-.6023-1.0161-.7558-1.4015-.1171.3195-.3034.9018-.3034 1.3965v1.2325l-.1292-.0359c-.0137-.0042-1.4495-.4-1.9681-.4 0 0-1.3171 0-1.5189 0 .0342.2362.1337.84.2893 1.2038.1905.4436 1.0624 1.1883 1.0716 1.1952l.1125.0967-.1301.0708c-.004.0014-.3355.1843-.9629.8122-.4651.4644-.5808.9019-.6101 1.0875.2992.0091 1.5948.0882 2.3534.8856.3384.3553.5095.8031.5095 1.3305 0 .042-.001.084-.004.1267-.1143 2.2885-3.052 3.6121-4.1493 3.7284-1.0684.114-3.5003-.4311-4.2671-1.6615-.5423-.8715-.6983-1.9597-.6983-2.7584 0-.3769.035-.6895.0805-.8836.1365-.5864.9915-1.7355 1.2807-2.1138-.3587.0071-1.1378.0462-1.5104.2731l-1.1676.724-.0427-.1185c-.002-.0057-.2169-.5928-.798-1.1729-.4721-.473-1.2325-.7231-1.5101-.8037.005.1409.013.3763.013.707 0 .5957-.0293 1.3362-.1609 1.6355-.061.1372-1.5238 3.3812-4.3426 3.6762-2.5085.2628-4.6935-.4238-5.5661-1.7487-.7687-1.1668-.9735-2.8961-.9735-3.7332 0-.6776.8891-1.716 1.9848-1.716 1.0462 0 2.0099.2334 2.3437.5675 0 0 .8392.775 1.0375.9578.017-.0847.0343-.1969.0343-.3328 0-.1463-.0188-.3145-.0749-.4918l-.5355-1.3167 1.4166-.2928s.9198-.3537 1.1347-.4364c-.151-.1674-.7198-.7981-.7198-.7981l-.8267-.7798s.1161-1.1078.1486-1.4161c-.3391.1955-1.1468.5962-2.0901.5962-1.3799 0-3.5692-.7657-3.5692-2.8219 0-2.1605.7334-2.8601 1.0482-3.0605 0 0 1.3264-.7833 1.6767-.9901-.4228-.0864-1.2973-.2482-1.9636-.2482-.5889 0-1.9244.2993-1.9376.3022l-.108.0245-.0154-.1095c-.001-.011-.1524-1.0836-.5576-1.8653-.3518-.6789-.9954-1.5534-1.1837-1.8054-.1887.252-.8323 1.1265-1.184 1.8054-.4052.7817-.5563 1.8543-.5576 1.8653l-.0154.1095-.1079-.0245c-.0132-.0029-1.3487-.3022-1.9376-.3022-.6663 0-1.5409.1618-1.9638.2482.3504.2068 1.6767.9901 1.6767.9901.3151.2004 1.0483.9 1.0483 3.0605 0 2.0562-2.1893 2.8219-3.5693 2.8219-.9432 0-1.7509-.4007-2.09-.5962.0327.3083.1433 1.3663.1433 1.3663l.004.0512-.8253.7784s-.5686.6307-.7196.7981c.2147.0827 1.1347.4364 1.1347.4364l1.2965.2684.1177.0309-.5335 1.3102c-.0561.1773-.0747.3455-.0747.4918 0 .1359.0171.2481.0344.3328.1983-.1828 1.0374-.9578 1.0374-.9578.3338-.3341 1.2975-.5675 2.3437-.5675 1.0958 0 1.9848 1.0384 1.9848 1.716 0 .8371-.2048 2.5664-.9734 3.7332-.8727 1.3249-3.0577 2.0115-5.5661 1.7487-2.8186-.295-4.2816-3.539-4.3427-3.6762-.1316-.2993-.1608-1.0398-.1608-1.6355 0-.3307.0075-.5661.0129-.707-.2776.0806-1.0379.3307-1.5106.8037-.5801.5801-.7962 1.1672-.7982 1.1729l-.0431.1179-1.1667-.7234c-.3723-.2269-1.1518-.266-1.5106-.2731.2896.3783 1.1446 1.5274 1.2814 2.1138.0452.1941.08.5067.08.8836 0 .7987-.1556 1.8869-.6983 2.7584-.7661 1.2304-3.1984 1.7755-4.2673 1.6615-1.0971-.1163-4.0343-1.4399-4.149-3.7284-.002-.0427-.0032-.0847-.0032-.1267 0-.5274.171-.9752.5092-1.3305.7584-.7974 2.054-.8765 2.3531-.8856-.0287-.1856-.1448-.6231-.6093-1.0875-.6273-.6279-.9595-.8108-.9626-.8122l-.1311-.0708.1132-.0967c.0089-.0069.881-.7516 1.0708-1.1952.156-.3638.2551-.9676.2903-1.2038-.2026 0-1.5195 0-1.5195 0-.5181 0-1.9538.3958-1.9684.4l-.1287.0359v-1.2325c0-.4947-.1867-1.077-.3032-1.3965-.1538.3854-.4672 1.112-.7566 1.4015-.436.4357-1.3077.6347-1.9325.6347-.6454 0-1.3061-.4583-1.8124-1.2577-.1915-.3028-.2686-.7449-.2686-1.2115 0-.6285.14-1.3007.3286-1.7313.2336-.5343.8614-1.0836 1.2079-1.3601-.3209 0-.8233 0-.8233 0-.5921 0-1.3312.4304-1.3387.4346l-.0686.0286-1.1169-.907c-.4989-.3441-1.3896-.4183-1.731-.4347.2903.6216 1.3997 3.0115 1.7203 3.8886.4154 1.1379.6922 2.4418.9147 3.4902l.4009 1.6528c.071.2026.156.3994.2391.597.7147-.3644 1.9002.2551 2.7137 1.4544.5608.8263.8294 1.756.7012 2.425-.0532.2777-.1842.4876-.3618.6383.1646.1761.3259.342.4803.4968 1.1126 1.1136 2.8268 2.5574 3.9975 2.966 1.5283.5317 2.823.7209 4.0817.5927 1.4717-.1499 3.4858-1.0228 4.3186-2.3442.8524-1.3531 1.6584-3.2546 1.6665-3.2736l.0634-.1507.1069.1232c.0154.0176 1.5616 1.7846 3.4002 2.5435 1.8575.765 2.9018.9467 4.4635.77 1.5929-.1807 2.8419-.7456 4.3118-1.9506 1.4669-1.2032 2.8569-3.1011 2.8706-3.1201 0 0 .0414.0293.0825.0596.0408-.0303.0822-.0596.0822-.0596.0137.019 1.4037 1.9169 2.8706 3.1201 1.4567 1.1947 2.6972 1.7586 4.2698 1.9442.0194.0028.0384.005.0579.0077 1.5524.1733 2.5954-.0077 4.4478-.7713zm-11.7471-6.8293c-1.4901 0-2.7023-1.9052-2.7023-4.2474 0-2.3431 1.2122-4.2489 2.7023-4.2489 1.4904 0 2.7026 1.9058 2.7026 4.2489 0 2.3422-1.2122 4.2474-2.7026 4.2474z" fill="#fff500"/><path d="m78.7457 69.2564c.1763-.1195.2913-.3143.342-.5794.1189-.6181-.1376-1.4889-.6694-2.2722v-.0007c-.7866-1.1576-1.9217-1.7677-2.529-1.3566-.1763.1199-.2915.3147-.3423.5804-.1184.6177.1375 1.4882.6688 2.2716.5314.7825 1.2456 1.3432 1.8639 1.4614.2658.0505.4895.0155.666-.1045z" fill="#fff"/><path d="m141.65 65.0475c-.6083-.4111-1.7426.1975-2.5295 1.3566v.0007c-.5316.7826-.7882 1.6537-.6696 2.2722.0511.2651.1658.4599.3426.5794.1764.12.4001.155.6655.1045.6188-.1182 1.3325-.6789 1.864-1.4614.7868-1.1612.9339-2.4399.327-2.852z" fill="#fff"/><path d="m111.25 59.2308c0-2.2307-1.1212-4.0457-2.4994-4.0457-1.3781 0-2.499 1.815-2.499 4.0457 0 2.2301 1.1209 4.0442 2.499 4.0442 1.3782 0 2.4994-1.8141 2.4994-4.0442z" fill="#fff"/><path d="m111.489 30.4732c-.1923 0-5.105 0-5.2972 0v6.4934h5.2972c0-.1944 0-6.2989 0-6.4934zm-.4368 5.9395h-4.4236v-5.3852h4.4236z" fill="#fff500"/><path d="m111.052 31.0275h-4.424v5.3852h4.424z" fill="#00a13a"/><path d="m111.25 38.9636c-.1923 0-5.1049 0-5.2973 0v6.4933h5.2973c0-.1943 0-6.2989 0-6.4933zm-4.8605 5.9395v-5.3852h4.4237v5.3852z" fill="#fff500"/><path d="m106.389 44.9031h4.424v-5.3852h-4.424z" fill="#da251d"/><path d="m87.0308 77.8018c.2385.2382.2648 1.711.2648 2.3334.0003.5147-.0185 2.2154-.2648 2.4621-.1669.1668-.7352.609-1.2914.8407.0089 1.0526.015 1.7875.015 1.7875-.0003.0008-.0094.0498-.0094.1239 0 .1277.0267.3327.17.5066.0785.0954.1898.1655.3205.2212-.0102-.0641-.021-.128-.021-.1926 0-2.8269 9.9167-5.0413 22.5766-5.0413 12.6585 0 22.5742 2.2144 22.5742 5.0413 0 .061-.0103.1207-.0194.1811.121-.0534.2262-.1201.2999-.2097.1414-.1717.1686-.3743.1686-.5087 0-.0805-.009-.1366-.0102-.1479 0 0 .006-.7229.0152-1.7621-.5557-.2325-1.1231-.6732-1.2893-.84-.2537-.2538-.2653-2.1019-.2647-2.4699 0-.6199.0266-2.0881.2647-2.3256.235-.2346.6736-.1302 1.3362.1606.004-.3504.006-.668.008-.9396-.2752-.0717-7.0248-1.8196-10.9738-2.3419l-2.8762-.4187c-2.8146-.4298-5.473-.8359-9.2443-.8359-3.7712 0-6.4294.4061-9.244.8359l-2.8766.4187c-3.9404.5216-10.6677 2.2624-10.9736 2.3419.0021.2716.0049.5892.0077.9396.6635-.29 1.1024-.3952 1.3369-.1606zm26.4772 1.7279c-.3715.098-1.575.0261-2.8483-.0512l-1.8793-.086-1.8315.0846c-1.2397.0751-2.5217.1514-2.8961.0526-.6132-.1619-.6839-1.3292-.6839-2.1929 0-.5642 0-1.4163.5632-1.9788.5411-.5416.5671-.5443 1.9294-.7113l.1223-.0147c1.4588-.1786 2.7896-.1211 2.7907-.1204.0134-.0007 1.3435-.0582 2.8027.1204l.1223.0147c1.3624.167 1.3883.1697 1.9296.7113.5629.5625.5629 1.4146.5629 1.9788 0 .8637-.0707 2.031-.684 2.1929zm5.9982-3.5901.4047-.0484c.7392-.0932 1.5768-.1997 3.2983.0491 1.839.2659 4.0798.7264 4.3087 1.4137.2316.6937.2316 1.6517.2316 2.2851 0 .6495-.2651 1.4187-.7548 1.5644-.4198.1242-.9117-.0413-.941-.0511h-.0007c-.008-.0022-2.1907-.5745-2.1907-.5745-1.3295-.302-3.4136-.3105-3.7037-.3105-.2533.0029-.7251.0072-1.075-.3397-.2908-.2879-.4383-.7625-.4383-1.4096l-.0004-.2414c-.002-1.5419-.002-2.2461.8613-2.3371l-29.4635 1.4144c.2292-.6873 2.4699-1.1485 4.3092-1.4137 1.7215-.2488 2.559-.1423 3.298-.0491l.405.0484c.8635.091.8628.7952.861 2.3371l-.0003.2414c0 .6471-.1475 1.1217-.4382 1.4096-.3501.3469-.8216.3426-1.1315.3397-.2334 0-2.318.0085-3.6474.3105 0 0-2.1877.5738-2.1906.5745h-.0007c-.0301.0098-.5213.1753-.941.0511-.4898-.1457-.7542-.9149-.7542-1.5644 0-.6334 0-1.5914.2307-2.2851z" fill="#fff500"/><path d="m91.5072 81.1524h.0007c-.0003 0-.0003 0 .0014-.0007-.0004 0-.0021.0007-.0021.0007z" fill="#fff500"/><path d="m126.053 81.1524h.0007l-.002-.0007c.001.0007.001.0007.001.0007z" fill="#fff500"/><path d="m88.6794 86.9608c0-2.2741 8.8338-4.0551 20.1117-4.0551 11.2762 0 20.1092 1.781 20.1092 4.0551 0 .6062-.6326 1.1767-1.7662 1.6879 2.5351-.784 4.028-1.737 4.028-2.7641 0-2.6674-10.0356-4.8381-22.371-4.8381-12.3368 0-22.3735 2.1707-22.3735 4.8381 0 1.0271 1.4928 1.9801 4.0277 2.7641-1.1336-.5112-1.7659-1.0817-1.7659-1.6879z" fill="#fff500"/><path d="m108.791 90.813c10.7902 0 19.906-1.7641 19.906-3.8522 0-2.0878-9.1158-3.8519-19.906-3.8519-10.7916 0-19.9086 1.7641-19.9086 3.8519 0 2.0881 9.117 3.8522 19.9086 3.8522z" fill="#eb8a1b"/><path d="m132.131 74.3356c-.0574-.0152-5.8478-1.5758-10.2131-2.1658l-2.8533-.4099c-3.3492-.4958-6.5131-.9648-10.2837-.9648-3.7705 0-6.9343.469-10.2835.9648l-2.8535.4099c-4.3657.59-10.1555 2.1506-10.2102 2.1651-.6565.1975-1.3224.7022-1.223 1.5238.0378.3126.1976.5826.45.7591.2654.1854.6087.2466.9402.1697.0694-.0185 6.9999-1.821 11.0265-2.3546l2.8716-.4174c2.8241-.4314 5.4918-.8387 9.2819-.8387s6.4576.4073 9.282.8387l2.8717.4174c4.0265.5336 10.9569 2.3361 11.0232 2.3531.3345.0784.6786.0166.9431-.1691.2523-.1763.4121-.4456.4499-.7589.0995-.8209-.5659-1.3256-1.2198-1.5224z" fill="#fff500"/><path d="m90.6433 80.9442c.3391.101.7729-.0462.7774-.0476.0034-.0015-.0007 0 .0029-.0008l2.2154-.5814c1.3579-.3084 3.4703-.3172 3.766-.3166.2437.0022.6123.0054.882-.2613.238-.2361.3589-.6461.3589-1.2184v-.2414c.0021-1.5873-.0221-2.0058-.619-2.0683l-.4106-.0491c-.7221-.0917-1.5405-.1954-3.2259.0484-2.385.344-3.9528.8165-4.0914 1.2318-.2173.6516-.2173 1.5828-.2173 2.1996 0 .6277.252 1.2134.5616 1.3051zm.7332-3.3365c.1279-.3299 1.131-.6146 2.9814-.8443 1.191-.1485 1.7702-.0853 2.2816-.0293l.2811.0293c.5941.0526.5934.4749.5919 1.4008v.1443c0 .3642-.0901.6383-.2669.814-.2432.2403-.5894.2375-.8148.2361-.162 0-1.6073.0049-2.5323.1866 0 0-1.519.3425-1.5204.3425h.0007c-.0141.0051-.3538.1039-.6421.0302-.3387-.0862-.5216-.5495-.5216-.9404 0-.3797 0-.9527.1614-1.3698z" fill="#eb8a1b"/><path d="m91.507896 81.152397h-.000694" fill="none"/><path d="m91.5384 77.6709c-.1496.386-.1496.9403-.1496 1.3066 0 .3708.1752.717.3906.7723.2414.0614.5465-.0275.5498-.0289h.0017l1.5345-.3468c.9408-.1835 2.4016-.1891 2.6067-.1891.1716.0014.4595.0042.6509-.1856.1433-.1423.2158-.3751.2158-.6909l.0003-.1451c.0011-.9417-.0158-1.1897-.4341-1.2274l-.2844-.029c-.5017-.0554-1.0707-.1168-2.241.029-1.9804.2459-2.7662.5408-2.8412.7349z" fill="#00a13a"/><path d="m118.915 78.2767v.2414c0 .5723.1207.9823.3586 1.2184.2698.2667.6382.2635.9413.2607.2367 0 2.3491.0088 3.7068.3172l2.2152.5814c.003.0008-.0009-.0007.003.0008.004.0021.4386.1486.778.0476.3095-.0917.561-.6774.561-1.3051 0-.6168 0-1.548-.217-2.1996-.1383-.4153-1.7063-.8878-4.0914-1.2318-1.6852-.2438-2.5037-.1401-3.2256-.0484l-.4107.0491c-.597.0625-.6211.481-.6189 2.0683zm1.1333-.1125c-.001-.9259-.002-1.3482.5921-1.4008l.2808-.0293c.5113-.0554 1.0906-.1192 2.2817.0293 1.85.2304 2.8535.5144 2.9816.8443.1612.4171.1612.9901.1612 1.3698 0 .3909-.1828.8535-.5212.9404-.2885.0737-.6287-.0259-.6432-.0302h.001l-1.5206-.3425c-.9248-.1817-2.3704-.1866-2.5719-.1866-.1859.0014-.532.0042-.7752-.2361-.1767-.1757-.2667-.4498-.2667-.814v-.1443z" fill="#eb8a1b"/><path d="m126.054 81.152397h-.001" fill="none"/><path d="m120.222 78.1634.0004.1451c0 .3158.0726.5486.2159.6909.1912.1898.4792.187.6922.1856.1635 0 1.6246.0056 2.5652.1891l1.5345.3468c.002 0 0-.0007.001 0 .004.0007.3087.0903.5501.0289.2155-.0553.3909-.4015.3909-.7723 0-.3663 0-.9206-.15-1.3066-.0751-.1941-.8606-.4883-2.841-.7349-1.1704-.1458-1.7395-.0844-2.2408-.029l-.2847.029c-.4182.0377-.4351.2857-.4341 1.2274z" fill="#00a13a"/><path d="m113.922 77.3368c0-.5194 0-1.3041-.4838-1.7882-.4756-.4753-.4756-.4753-1.7716-.6333l-.1226-.0156c-1.4356-.176-2.7445-.1192-2.7697-.1192-.0132 0-1.3221-.0568-2.7578.1192l-.1226.0156c-1.2957.158-1.2957.158-1.7715.6333-.484.4841-.484 1.2688-.484 1.7882 0 1.4914.2629 1.8743.4829 1.9321.3327.0879 1.6496.0085 2.811-.0614l1.8479-.0857 1.8953.0878c1.1415.0685 2.4335.1465 2.7637.0593.22-.0578.4828-.4407.4828-1.9321zm-1.3119 1.2c-.3416.0667-.9975.0512-2.0057-.0469l-1.7517-.0576c-.0003 0-.1446 0-.145 0l-1.7516.0576c-1.0079.0981-1.6642.1136-2.0053.0469-.5499-.1073-.5499-1.0258-.5499-1.3278 0-.3221 0-.8616.463-1.2038.4344-.3201.4554-.3215 1.5516-.4202l.0982-.0092 2.2634-.0713 2.2697.0713.0981.0092c1.0963.0987 1.1173.1001 1.5519.4202.463.3422.463.8817.463 1.2038 0 .302 0 1.2205-.5497 1.3278z" fill="#eb8a1b"/><path d="m111.128 75.7719-.0981-.0084s-2.2467-.0713-2.253-.0713l-2.2467.0713-.0981.0084c-1.065.0961-1.065.0961-1.4566.3847-.3864.2861-.3864.7289-.3864 1.0524 0 .7071.1334 1.0918.3976 1.1429.3185.0625.9749.0455 1.9511-.0498l1.7701-.0574c.002-.0008.1422 0 .1443 0l1.7702.0574c.9761.096 1.6325.1123 1.9513.0498.2639-.0511.3973-.4358.3973-1.1429 0-.3235 0-.7663-.386-1.0524-.3924-.2886-.3924-.2886-1.457-.3847z" fill="#da251d"/><path d="m84.8783 79.0092s-.0013.0007-.0017.0014l.0011-.0007c.5927-.2762.9734-.3987 1.1645-.2075.1723.1723.1909 1.2354.1905 1.6845 0 .3698-.0138 1.5896-.1905 1.7663-.1563.1557-.8041.6545-1.2822.7078.0746.2107.1653.342.2694.3655.4848.1123 1.5118-.5927 1.8234-.9046.2634-.3257.2641-4.1472.0014-4.4436-.1951-.1948-.9964.1795-1.3387.3394l-.0031.0013c-.0064.0029-.5458.2467-.7932.7791.0845-.054.1478-.0833.1574-.0875.0004-.0007.0017-.0014.0017-.0014z" fill="#eb8a1b"/><path d="m85.4097 78.0904c.0011 0 .0032-.0014.0035-.0014" fill="none"/><path d="m84.6019 82.7779c.3486.0801 1.0877-.4273 1.3123-.651.1895-.2346.1899-2.9839.0008-3.1971-.1399-.1408-.7169.1285-.9631.2432l-.0021.0013c-.0049.0022-.495.2209-.6268.7085-.0462.1716-.0669 1.0889-.0669 1.3483-.0003.8772.1387 1.4991.3458 1.5468z" fill="#da251d"/><path d="m84.8766 79.0106c.0004-.0007.0017-.0014.0017-.0014" fill="none"/><path d="m131.518 82.2532c-.1722-.1725-.1892-1.3588-.1899-1.718-.001-.4625.0141-1.557.1899-1.7328.1919-.1912.5726-.0687 1.1654.2075l-.0007-.0007.002.0014c.009.0042.0727.0335.1567.0875-.2466-.5324-.7868-.7762-.7928-.7791l-.003-.0013c-.3426-.1599-1.1443-.5342-1.3383-.3394-.2635.2964-.2628 4.1173-.0008 4.4421.313.3134 1.3398 1.0184 1.8246.9061.1037-.0235.1948-.1548.2695-.3661-.4777-.0534-1.1258-.5515-1.2828-.7072z" fill="#eb8a1b"/><path d="m132.148 78.089.0006.0007c.0004.0007.001.0007.002.0007l-.002-.0014z"/><path d="m132.611 79.1743-.002-.0013c-.2466-.1147-.8232-.3833-.9632-.2439-.1892.2139-.1884 2.9632 0 3.1964.2254.2251.9653.7325 1.3129.6524.2074-.0477.346-.6696.346-1.551 0-.2552-.0208-1.1725-.0674-1.3441-.1316-.4876-.6212-.7063-.6262-.7085z" fill="#da251d"/><path d="m119.704 123.841-2.944.341-2.93.26-2.914.178-2.897.099-2.88.02-2.859-.057-2.8386-.133-2.8165-.208-2.7929-.283-2.7682-.355-2.7417-.428-2.714-.498-2.6853-.567-2.6549-.636-2.6232-.703-2.5905-.769-2.5561-.834-2.5206-.898-2.4833-.961-2.445-1.022-2.4057-1.083-2.3646-1.143-2.3223-1.2-2.2787-1.258-2.2336-1.314-2.7758-1.736 1.1639-.18.474-.078.4751-.084.4761-.089.4777-.096.4789-.102.4804-.109.4815-.117.4837-.124.485-.133.4871-.14.4888-.15.4909-.159.493-.169.4952-.178.4973-.189.5001-.2.5021-.211.5052-.222.5074-.235.5105-.246.5132-.26.5162-.272.5191-.286.5225-.3.5255-.314.5292-.329.5322-.343.5361-.36.5395-.375.5432-.391.717-.534 1.3152 1.154 1.2083.977 1.2649.941 1.3218.905 1.3802.867 1.4386.831 1.4983.792 1.5588.755 1.6204.715 1.6822.675 1.7453.636 1.8089.595 1.8737.555 1.9389.512 2.0053.471 2.0719.427 2.1401.385 2.2084.341 2.2778.296 2.3479.252 2.419.207 2.49.161 2.563.114 2.637.068 2.71.02 2.785-.028 2.861-.076 2.938-.125 3.014-.175 3.092-.225 3.171-.274 3.368-.338-.012-.029-.22-.494-.236-.497-.253-.499-.268-.501-.286-.503-.301-.506-.318-.508-.334-.51-.352-.513-.649-.909.634-.024.158-.003.157.002.16.007.159.01.161.016.162.02.163.027.163.031.165.038.166.045.166.05.167.058.169.064.169.072.17.08.17.087.171.095.173.103.173.112.174.121.04.029-.015-.176-.021-.227-.023-.222-.025-.219-.027-.215-.028-.212-.031-.208-.033-.205-.036-.202-.037-.199-.04-.198-.043-.195-.046-.192-.047-.192-.051-.189-.054-.189-.057-.187-.06-.186-.063-.186-.066-.185-.07-.185-.073-.186-.077-.185-.08-.186-.085-.186-.088-.188-.092-.189-.096-.19-.1-.191-.105-.193-.106-.189-.079-.123-.079-.111-.077-.097-.073-.081-.07-.068-.066-.052-.063-.04-.06-.029-.059-.02-.059-.01-.064-.003-.072.007-.079.016-.089.028-.099.041-.196.097.046.055.104.2.063.212.021.218-.021.219-.063.212-.104.2-.146.179-.18.146-.199.105-.212.062-.219.021-.219-.021-.212-.062-.199-.105-.179-.146-.147-.179-.104-.2-.063-.212-.021-.219.021-.218.063-.212.104-.2.147-.179.178-.146.035-.018-.134.015.025-.595.081-.303.141-.276.192-.244.233-.211.27-.174.299-.137.323-.095.342-.052.356-.005.364.045.366.1.362.156.351.216.335.279.308.34.138.185.128.182.126.186.121.189.118.193.115.197.111.2.108.204.105.207.101.21.098.214.094.218.092.221.088.224.085.227.083.231.079.233.076.237.073.24.07.243.068.245.064.25.062.251.059.255.056.258.054.26.051.263.048.266.046.269.043.272.038.256.069-.203.077-.204.08-.196.084-.188.089-.18.092-.173.096-.166.099-.159.102-.152.106-.146.109-.139.112-.134.115-.127.118-.122.119-.115.123-.111.124-.105.127-.101.128-.096.13-.092.132-.087.133-.084.546-.325-.051 1.116-.016.622-.003.61.01.599.023.588.035.578.047.566.06.556.072.545.084.535.037.201.15.063.028.012.015.006.014.007.028.013.079.037.136.199-.003-.098.012-.116.025-.116.038-.115.048-.116.06-.119.07-.123.082-.13.095-.134.108-.128.118-.116.127-.105.137-.093.145-.079.153-.065.161-.05.167-.036.173-.019.178-.002.183.014.186.031.19.048.192.066.152.065-.014-.095-.003-.116.012-.116.025-.116.037-.115.049-.116.059-.119.071-.123.082-.13.095-.135.108-.127.117-.116.128-.105.136-.093.146-.079.153-.065.161-.05.167-.036.173-.019.178-.002.183.014.186.031.189.048.193.066.199.085-.01-.063-.003-.116.012-.116.025-.116.038-.116.048-.116.06-.118.07-.123.082-.131.095-.134.108-.127.118-.117.127-.105.136-.092.146-.079.153-.066.161-.05.167-.035.173-.019.178-.003.183.014.186.031.19.049.192.065.245.105-.008-.048-.004-.122.012-.123.027-.124.042-.124.055-.126.069-.129.083-.134.096-.135.107-.128.118-.116.127-.105.137-.093.145-.079.153-.065.161-.05.167-.036.173-.019.179-.002.182.014.186.031.19.048.188.064-.016-.096-.004-.122.011-.123.028-.124.041-.124.056-.126.068-.129.083-.134.096-.135.108-.128.118-.116.127-.105.136-.093.146-.079.153-.065.161-.05.167-.036.173-.019.178-.002.183.014.186.031.19.048.192.066.257.109.134.2.092.132.094.129.097.128.074.094-.016-.093-.019-.154-.01-.154-.004-.155.004-.154.01-.155.019-.154.026-.153.033-.152.04-.151.048-.149.055-.146.063-.145.07-.142.077-.139.085-.136.092-.132.1-.128.107-.125.114-.12.119-.114.125-.106.128-.1.133-.092.135-.085.14-.077.142-.07.144-.063.147-.055.149-.048.15-.041.152-.032.153-.026.154-.019.155-.011.155-.003.154.003.155.011.154.019.153.026.151.032.151.041.149.048.147.055.144.063.142.07.139.077.096.06-.042-.154v-.271l.053-.268.098-.258.138-.237.176-.203.205-.154.224-.102.235-.053.237-.006.233.037.226.075.213.11.191.139.091.078.08.074.076.074.072.075.067.075.063.077.058.077.057.083.115.204.088.22.056.228.018.234-.023.233-.069.229-.118.215-.17.193-.22.16-.254.118-.271.077-.277.032-.274-.022-.18-.066.018.036.063.145.055.147.048.148.04.151.033.152.026.153.018.154.012.155.003.155-.003.154-.012.155-.018.154-.026.153-.033.151-.04.151-.048.149-.055.147-.063.144-.07.142-.077.139-.085.136-.092.133-.1.128-.106.124-.114.121-.121.114-.124.106-.128.1-.133.092-.136.084-.138.078-.142.07-.145.062-.147.056-.149.047-.15.041-.152.033-.153.026-.154.018-.155.011-.154.004-.155-.004-.124-.009.016.037.037.125.021.134.005.141-.012.147-.027.154-.044.167-.059.157-.08.151-.099.14-.115.127-.132.114-.145.099-.159.083-.171.067-.181.048-.191.028-.198.009-.205-.013-.211-.035-.214-.058-.217-.081-.196-.095.041.116.029.141.01.15-.009.157-.028.165-.046.178-.059.158-.081.151-.098.14-.116.127-.132.114-.145.099-.159.084-.171.066-.181.048-.191.028-.198.009-.205-.013-.21-.035-.214-.058-.218-.081-.23-.111-.135-.099.016.034.032.256-.041.279-.104.315-.079.174-.095.164-.11.154-.125.144-.139.131-.153.116-.166.101-.177.084-.189.064-.199.044-.206.021-.214-.003-.219-.029-.223-.054-.225-.082-.178-.085.008.059-.041.28-.105.318-.088.178-.112.16-.134.137-.153.115-.168.092-.179.068-.19.048-.198.027-.204.007-.21-.01-.214-.028-.218-.046-.221-.062-.221-.079-.222-.095-.187-.094.145.159.105.218.032.256-.041.28-.105.318-.087.178-.113.16-.134.138-.152.114-.169.092-.179.068-.19.048-.197.027-.205.007-.21-.01-.214-.028-.218-.046-.22-.062-.222-.079-.221-.095-.208-.105.013.028.032.255-.041.28-.105.316-.067.143-.082.13-.096.117-.108.104-.12.089-.129.075-.137.061-.143.048-.15.034-.154.022-.158.01h-.162l-.165-.013-.168-.022-.077-.016.127.234.237.403.247.394.258.383.27.375.281.365.291.356.303.347.314.337.324.329.871.831-.912-.077-.179-.019-.18-.023-.179-.026-.18-.03-.179-.034-.179-.038-.179-.042-.18-.045-.179-.049-.179-.053-.178-.056-.18-.061-.178-.063-.179-.068-.178-.071-.179-.076-.178-.079-.178-.082-.178-.086-.179-.09-.178-.094-.025-.014.022.286.019.231.021.227.023.222.025.219.026.215.029.211.031.208.033.205.035.203.038.199.04.197.043.195.045.193.048.191.051.19.054.189.057.187.059.186.064.186.066.185.07.185.073.185.077.186.08.186.084.186.088.188.093.188.096.19.1.192.105.193.106.189.079.123.079.111.076.097.074.081.069.068.067.052.063.041.06.028.058.019.06.011.064.002.072-.006.079-.016.089-.028.099-.041.196-.096-.046-.056-.104-.2-.063-.212-.021-.218.021-.219.063-.212.105-.2.146-.179.178-.146.2-.105.212-.063.219-.02.218.02.213.063.199.105.179.146.146.179.105.2.063.212.021.219-.021.218-.063.212-.104.2-.146.179-.18.146-.036.019.137-.015-.026.594-.081.303-.141.275-.192.246-.234.21-.269.174-.299.137-.324.095-.342.052-.356.005-.364-.046-.365-.099-.362-.156-.352-.216-.334-.279-.307-.339-.139-.186-.129-.182-.125-.186-.122-.189-.118-.193-.114-.197-.112-.2-.107-.204-.105-.207-.101-.211-.098-.214-.095-.217-.091-.221-.089-.224-.085-.227-.082-.231-.079-.233-.076-.237-.073-.24-.07-.243-.068-.246-.064-.249-.063-.252-.058-.254-.057-.258-.053-.26-.051-.264-.048-.266-.046-.269-.043-.271-.041-.274-.044-.314.025-.147.055-.32.013-.078-.019.04-.097.196-.1.195-.103.192-.106.19-.108.188-.11.185-.113.182-.116.18-.117.176-.12.174-.122.171-.123.167-.126.164-.127.161-.13.157-.131.154-.132.15-.135.146-.135.142-.137.138-.138.134-.139.13-.141.126-.142.121-.143.116-.723.565.278-1.174.093-.453.079-.453.065-.456.051-.457.037-.459.023-.461.008-.463-.007-.465-.021-.466-.009-.112-.013.25-3.176.907-2.995.768-2.987.68-2.979.594-2.968.508z" fill="#0a0b0c"/><path d="m137.517 119.761c-31.9669 9.5921-63.1039 3.8879-86.119-10.9579 5.0669-.7569 10.3142-2.3251 16.2052-6.7909 12.0895 11.0609 33.5422 16.1029 68.6791 12.347.8249 1.7255 1.3545 3.5049 1.2347 5.4018z" fill="#fff"/><path d="m162.73 102.616c-1.1554-1.1555-3.0397-1.1555-4.1949-.0002-1.1554 1.1553-1.1554 3.0397.0001 4.1951 1.1552 1.1552 3.0396 1.1552 4.1948 0 1.1553-1.1553 1.1553-3.0397 0-4.1949zm-16.1701 24.5455c.3441.3442.9056.3442 1.2498 0 .3443-.3443.3443-.9058 0-1.2499-.3442-.3442-.9057-.3442-1.2498 0-.3443.3441-.3443.9056 0 1.2499zm-5.0835-7.8335c-.0972.5695-.1944 1.139-.2917 1.7084.3923 2.9376 1.1907 5.4235 2.5834 7.2501 1.4721 1.8611 3.9721.9445 3.875-.5-.4445.0693-.8889-.0279-1.3334-.2917-.677.3611-1.0725.1667-1.5416-.5833-1.2038-2.1239-1.6498-3.8995-1.8334-6.4584-.4861-.375-.9722-.75-1.4583-1.1251zm-7.6886-16.1045c-.3441-.3443-.9056-.3443-1.2499 0-.3442.3442-.3442.9057 0 1.2499.3443.3442.9058.3442 1.2499 0 .3443-.3442.3443-.9057 0-1.2499zm5.0835 7.8334c.0972-.5694.1944-1.1389.2916-1.7084-.3922-2.9376-1.1906-5.4234-2.5833-7.2501-1.4721-1.8611-3.9721-.9444-3.875.5001.4445-.0694.8889.0279 1.3333.2916.6771-.3611 1.0726-.1666 1.5417.5834 1.2038 2.1238 1.6498 3.8994 1.8333 6.4584.4862.375.9723.75 1.4584 1.125zm-5.2385-2.1962c4.0496 5.5496 5.2082 10.7307 3.9719 15.6073 1.4841-1.1263 2.8643-3.0732 3.667-5.2492-.722-2.5858-1.6805-4.8755-2.4022-7.4612-1.9589-2.4906-3.6371-2.9746-5.2367-2.8969zm10.5336 8.134c.8475.2402 1.6153.0701 1.868-.5666.331-.834-.0324-.9225-.637-1.3462-1.241-.8696-2.0953-1.7391-2.6713-2.6087-.0345-.0162-.069-.0312-.1031-.0456.3302 1.6784.8481 3.1974 1.5434 4.5671zm-2.1591-10.9102c-.3766 6.8596 1.4716 11.8367 5.163 15.2546-1.8581-.1369-3.716-.8997-5.5737-2.2882-.8018-2.5621-1.6036-5.124-2.4055-7.686.2876-3.1555 1.4321-4.475 2.8162-5.2804zm12.848.7008c.8517.9165 1.7552 1.6274 3.0211 2.5444 1.0668.5747 2.0129.1244 2.2261-.5799.1206-.3983.0777-.6592-.063-.8664-.6197-.1146-1.2116-.4101-1.6892-.8877-.3359-.3359-.5824-.7283-.7388-1.1475-.3127-.3389-.5714-.6822-.8172-1.0533-.9567-.4486-1.7509-.1666-2.1818.4943-.433.6643-.2519.9638.2428 1.4961zm-11.1824 6.39c.7321.9168 1.5331 1.3183 2.8151 2.2352 1.0977.5955 2.2636.5437 2.5868-.2707.331-.834-.0325-.9225-.6371-1.3462-1.2409-.8696-2.0953-1.7391-2.6712-2.6087-.9566-.4486-1.7509-.1667-2.1817.4943-.4332.6643-.3653.9281.0881 1.4961zm2.7827-1.649c.7321.9168 1.5331 1.3183 2.8151 2.2352 1.0977.5954 2.2636.5436 2.5868-.2708.331-.834-.0325-.9225-.6371-1.3462-1.2409-.8695-2.0953-1.7391-2.6712-2.6086-.9566-.4486-1.7509-.1667-2.1817.4943-.4332.6643-.3653.9281.0881 1.4961zm5.8231-3.092c.8518.9166 1.7552 1.6274 3.0212 2.5445 1.0667.5746 2.0128.1243 2.2261-.58.26-.8587-.2387-1.0771-.8432-1.5008-1.2409-.8694-1.8892-1.5845-2.4651-2.4541-.9567-.4486-1.7509-.1665-2.1817.4943-.4331.6643-.252.9638.2427 1.4961zm-2.9888 1.4945c.7321.9169 1.7392 1.8336 3.0211 2.7505 1.0978.5954 2.0575.0285 2.3807-.7861.3312-.834-.0324-.9225-.637-1.3462-1.241-.8695-2.0953-1.7391-2.6712-2.6086-.9567-.4487-1.751-.1667-2.1818.4942-.4331.6644-.3654.9281.0882 1.4962zm13.6205-7.7086c.3155.084.4835.2662.5043.5473.0408.5531 1.0171.434 1.4251.0581.408-.376.3615-.9608.0582-1.4252-.1191-.1823-.2872-.3647-.5043-.5472-.4246-.3568-1.0171-.4342-1.4251-.0582-.408.376-.5943 1.2825-.0582 1.4252z" fill="#ea952f"/><path d="m162.455 102.892-.0962-.0915-.0994-.0851-.1028-.0796-.1056-.0733-.1084-.0679-.1104-.0614-.113-.0557-.1155-.0499-.1176-.0444-.1185-.0381-.1202-.0323-.1215-.0264-.1228-.0208-.1228-.0146-.1237-.009-.1238-.003-.1242.003-.1237.009-.1229.0146-.1227.0208-.1218.0264-.1198.0323-.1187.0381-.1173.0443-.1156.05-.1131.0557-.1104.0612-.1082.0678-.1057.0735-.1023.0794-.0995.0852-.096.0916-.0916.096-.0852.0995-.0794.1023-.0735.1058-.0678.1081-.0612.1104-.0557.1131-.05.1157-.0443.1172-.0381.1187-.0323.1199-.0264.1217-.0208.1227-.0146.1229-.009.1237-.003.1242.003.1239.009.1237.0146.1228.0208.1228.0264.1215.0323.1202.0381.1185.0444.1176.0499.1155.0557.1129.0614.1105.0679.1084.0733.1055.0796.1028.0851.0994.0915.0962.0958.091.0996.0854.1024.0793.1055.0734.1081.0675.1109.0616.1132.0559.1154.0499.1169.0439.1191.0383.12.0323.1215.0265.1227.0206.1233.015.1236.009.1239.003.1235-.003.1237-.009.1232-.015.1227-.0206.1213-.0265.1204-.0323.1191-.0383.1172-.0439.115-.0499.1132-.0559.1107-.0616.1085-.0675.1053-.0734.1027-.0794.0996-.0854.096-.0909.0908-.0959.0854-.0997.0795-.1027.0733-.1052.0675-.1086.0617-.1107.0558-.1132.05-.115.0438-.1172.0383-.119.0323-.1205.0265-.1212.0207-.1228.0149-.1232.009-.1237.003-.1234-.003-.124-.009-.1236-.0149-.1233-.0207-.1227-.0265-.1215-.0323-.12-.0383-.1191-.0438-.1169-.05-.1154-.0558-.1132-.0617-.1108-.0675-.1082-.0733-.1055-.0793-.1024-.0854-.0996zm-15.618 23.9933.0774.0631.085.0447.0911.0269.0945.009.0944-.009.0913-.0269.0852-.0448.0775-.063.0629-.0774.0448-.0852.0269-.0914.009-.0943-.009-.0945-.0269-.0912-.0446-.085-.0631-.0774-.0776-.0632-.0851-.0448-.0909-.0268-.0948-.009-.0948.009-.0908.0268-.0849.0447-.0775.0633-.0633.0775-.0447.0849-.0269.0909-.009.0948.009.0947.0269.091.0448.085zm-4.4435-2.1587.0759.2243.0785.2204.0816.2174.0839.2135.0873.2104.0899.2067.0928.203.0958.1994.0991.1961.1016.1923.1047.1886.1078.1845.111.1813.1139.1773.1171.1735.1202.1697.115.1546.2561.2826.2636.2198.2717.1674.2761.1191.2769.0749.2744.0343.2667-.004.2546-.0384.2367-.0698.2141-.0975.186-.1206.1535-.1381.118-.1511.0665-.1299-.0893-.007-.2015-.0344-.1997-.0532-.197-.0706-.194-.088-.006-.003-.0964.0396-.1465.0457-.1481.0308-.1499.0131-.1497-.006-.148-.0262-.1424-.0463-.1344-.0645-.125-.0797-.1166-.0932-.1086-.1045-.1031-.115-.0988-.1252-.0964-.1358-.0984-.1516-.1184-.2119-.1089-.2008-.1046-.1996-.1002-.1981-.0963-.1972-.0923-.1961-.0887-.196-.0844-.1951-.0808-.1952-.077-.195-.0736-.1951-.0698-.1952-.0666-.1959-.0631-.1965-.0598-.1976-.0565-.1981-.0539-.1999-.0503-.201-.0478-.2028-.0447-.2042-.0421-.2065-.0394-.2087-.0367-.2107-.0343-.2129-.0322-.2163-.0296-.2191-.0276-.2223-.0255-.2252-.0236-.229-.0215-.2327-.0199-.2365-.005-.0661-.1363-.1054-.0911-.0702-.0912-.0705-.0911-.0701-.0911-.0705-.0911-.0701-.0911-.0704-.0912-.0701-.0345-.0266-.0186.1085-.0179.1071-.0549.3201-.0179.107-.0549.3201-.008.0478.0294.2129.0397.2673.0422.2645.0447.2619.047.2587.0494.2559.0521.2525.0548.2502.0568.2467.0598.2435.0624.2404.0651.2374.0675.2338.0705.2307.0731.2275zm-8.882-21.2258-.0776-.0633-.0849-.0447-.091-.0269-.0948-.009-.0947.009-.091.0269-.0849.0447-.0775.0633-.0634.0775-.0446.0849-.0269.091-.009.0947.009.0948.0269.091.0446.0849.0634.0776.0772.063.0852.0447.0912.0269.0945.009.0944-.009.0914-.0269.0851-.0447.0774-.063.0629-.0774.0448-.0851.0269-.0914.009-.0944-.009-.0945-.0269-.0912-.0448-.0852zm3.8528.6625-.0958-.1996-.0987-.1958-.1017-.1922-.1048-.1885-.108-.1849-.1104-.181-.1141-.1772-.1171-.1735-.1202-.1699-.1146-.1541-.2565-.283-.2638-.22-.2715-.1672-.276-.119-.2774-.0752-.2739-.0341-.2667.004-.2544.0386-.2372.07-.214.0974-.1859.1204-.1535.1383-.1182.1507-.0662.1301.0896.007.2017.0348.1995.0531.1971.0708.194.088.006.003.0959-.0393.1466-.0462.1483-.0304.1492-.0134.1504.006.1483.0263.1423.0468.1337.0638.1252.0799.1163.0929.1091.1045.1028.1149.0992.1255.0963.1358.0988.152.1181.2116.1088.2008.1044.1993.1004.1983.0962.197.0923.1964.0885.1956.0847.1955.0806.1948.0771.1951.0733.1949.0702.1956.0664.1957.0632.1965.0598.1972.0569.1989.0534.1997.0504.201.0476.2022.0448.2047.042.2061.0395.2085.0368.2108.0345.2137.0318.216.0299.2191.0273.2219.0257.2255.0235.229.0217.2329.0197.2362.005.0665.0451.0349.0911.0701.0911.0705.0911.0701.0912.0704.0911.0701.0911.0705.0911.0701.0912.0705.0341.0261.0369-.2151.0179-.1071.118-.6881-.0295-.2125-.0399-.2674-.0423-.2649-.0445-.2617-.0471-.2588-.0495-.2559-.0521-.253-.0544-.2496-.0573-.2469-.0597-.2435-.0624-.2406-.0649-.237-.0678-.2342-.0702-.2305-.0731-.2273-.0758-.2239-.0786-.2207-.0816-.2173-.0843-.2139-.087-.21-.0902-.2068-.0928-.2032zm.9773 18.5111-.0681.4753-.0427.2456.049-.0493.127-.133.1256-.137.125-.1413.1233-.1448.1221-.1483.1204-.1521.1191-.1552.1172-.1588.1157-.1616.1133-.1648.1118-.168.1096-.171.1075-.1731.1052-.1763.103-.1786.1004-.181.0981-.183.0951-.1853.0928-.1877.09-.1894.087-.1908.0839-.193.0813-.1945.0777-.1959.0304-.0799-.0331-.1166-.0689-.2374-.0704-.2363-.0712-.2348-.0726-.2339-.0733-.2326-.0744-.2317-.075-.2308-.076-.2303-.0767-.2297-.0771-.2295-.0775-.2286-.0781-.2287-.0794-.2316-.1559-.4535-.079-.2287-.0789-.2291-.0785-.2295-.0783-.2295-.0782-.2306-.0779-.2311-.0774-.2323-.0764-.2326-.0764-.234-.0753-.2351-.0745-.2364-.0736-.2374-.0728-.2392-.0714-.2408-.0704-.2425-.047-.1665-.1309-.1629-.1759-.2098-.1739-.1983-.1717-.1873-.1702-.1764-.168-.1658-.1662-.1556-.164-.1454-.1626-.136-.1605-.1265-.1587-.1174-.1569-.1087-.1555-.1004-.1536-.0921-.1521-.0845-.1503-.0768-.1494-.0699-.148-.0629-.1467-.0564-.1454-.0499-.1447-.0442-.1436-.0383-.1431-.0329-.1424-.0277-.1422-.0229-.1413-.0181-.1029-.01.2859.4175.3419.5214.3256.52.3085.5179.2923.5162.2757.5146.2596.5128.243.511.2269.5093.2105.5074.1947.506.1785.504.1627.5026.1466.5008.131.4992.115.4973.0993.4956.0837.4938.0684.4922.0526.4902.0375.4885.022.4868.007.4851-.008.4831-.0235.4813-.0385.4791-.053.4775zm5.5341-7.2864.0529.1346.0539.1335.0551.1329.0559.1318.057.1309.058.13.0592.1294.0598.1281.0612.1273.0459.0935.1092.0214.1289.0177.1232.009.1168.0005.1102-.007.1021-.0148.0935-.0214.0842-.028.0757-.0336.0669-.039.0585-.0435.051-.0488.0451-.0549.0392-.0623.0333-.0709.0744-.2256.0201-.1374-.008-.0618-.0184-.0379-.0554-.0613-.1165-.0915-.1753-.1188-.2183-.1478-.2355-.1682-.2252-.1677-.2167-.1679-.208-.1677-.2-.1686-.1917-.1689-.1836-.169-.1755-.169-.1662-.168.0305.1064.0427.1436.0435.1427.0445.1417.0457.1405.047.1403.0476.139.0488.138.0498.1371.0509.1365.0517.135zm-4.1543-5.053-.0425.2504-.0376.261-.0334.2719-.0209.207.0513.1638.2255.7208.0751.2399.2255.7208.0751.2399.2255.7208.0752.24.1503.4805.0752.2402.0752.24.2255.7208.0751.2398.2255.7209.0752.2398.4509 1.4414.0372.1186.0696.0513.1698.1216.1693.1176.1697.1143.1694.1104.1692.107.1688.103.1693.0997.1687.096.1685.0924.1682.0884.1689.0853.1682.0815.1679.0779.1677.0742.1679.0706.1675.067.1673.0633.1673.0599.1675.0564.167.0527.1671.0492.1666.0457.167.0422.1665.0386.0318.007-.1752-.1886-.3158-.3618-.3045-.3717-.293-.3811-.2816-.3911-.2698-.4006-.2582-.4107-.2464-.4203-.2348-.4303-.2224-.4401-.2106-.45-.1986-.4598-.1864-.4699-.174-.4796-.162-.49-.1496-.4999-.1373-.5101-.1245-.52-.1121-.5304-.0995-.5405-.0869-.5508-.0741-.5607-.0617-.5714-.0485-.5818-.0361-.5922-.0228-.6025-.0101-.6131.003-.6238.0127-.5059-.0808.0644-.1088.092-.1066.0967-.1046.1009-.102.1054-.0996.1103-.0973.1158-.095.1214-.0923.1269-.0897.133-.0871.14-.0848.1467-.0816.1534-.0787.1609-.0755.1687-.0727.1767-.0691.1849-.0658.1933-.0622.2028-.0588.2114-.0546.2208-.0508.2304-.0464.2408zm16.2185-3.0264.169.1506.1729.1495.1776.1494.1826.1493.1885.1508.1944.152.2012.1545.2078.1568.2158.1603.2236.1642.2043.1488.1509.0728.1607.0604.1534.0412.146.0243.1377.009.1298-.005.1211-.0181.1122-.0296.1027-.0399.0932-.0488.0837-.057.0735-.0635.0625-.069.0523-.0743.0416-.0781.0326-.0863.0282-.1081.0171-.0968.006-.0802-.002-.0646-.008-.053-.002-.005-.0607-.0147-.1281-.0361-.1268-.0407-.1254-.0456-.124-.0501-.1229-.0553-.1207-.0597-.1191-.0648-.1169-.0693-.1149-.0742-.1123-.0787-.1102-.0837-.1074-.0884-.1049-.0933-.1026-.0988-.1352-.1429-.127-.1496-.1178-.1548-.1082-.1594-.0993-.1645-.0893-.1681-.08-.1717-.0408-.1011-.0718-.0796-.116-.1347-.1115-.1358-.1075-.1366-.1042-.1381-.1009-.1391-.0985-.1413-.0303-.0449-.0581-.0249-.145-.0493-.1381-.0351-.1311-.0218-.1245-.01-.1176.002-.1111.0121-.1053.0222-.1003.0314-.0949.0404-.0898.0489-.0856.0582-.0811.0667-.0762.0755-.0715.0844-.0678.0957-.0612.0993-.0475.0891-.0335.076-.0213.0636-.0114.0518-.004.0419.001.0358.006.0358.0118.0391.0194.0451.0292.0532.0406.0618.0518.0693.0632.0771.0744.0847.0844.0922.1555.1645.1573.1604.1592.1569.162.1543.165.1518zm-11.8343 5.7781.13.1439.1326.1356.1364.1293.1404.1241.1462.1207.1529.1193.1602.1194.1675.1201.1767.1229.1961.1344.3898.2646.2158.1477.2266.1572.2126.1505.1697.0854.1843.079.1818.0647.1779.0505.1717.0357.1645.0218.1551.008.1439-.005.131-.0182.1177-.0292.1027-.0394.088-.0477.0746-.0562.0633-.0648.0529-.0754.0452-.0921.0735-.2226.0201-.1374-.008-.0618-.0183-.0379-.0554-.0613-.1166-.0915-.1752-.1188-.2183-.1478-.2355-.1682-.2252-.1678-.2168-.1678-.2079-.1677-.2-.1686-.1918-.1689-.1835-.169-.1755-.169-.1682-.1699-.1603-.1702-.1527-.1703-.1454-.1703-.1385-.1711-.1309-.1712-.1242-.1717-.05-.0732-.0595-.0255-.145-.0493-.1381-.035-.1311-.0219-.1244-.01-.1176.002-.1112.0121-.1052.0222-.1004.0314-.0949.0404-.0898.0489-.0855.0582-.0811.0667-.0762.0755-.0716.0844-.0689.0972-.0654.1037-.0545.0955-.0417.0828-.0296.0711-.0192.0585-.0102.0477-.004.0392.0009.0348.005.0349.0109.0396.0187.0472.0285.0569.0399.0667.0514.0766.0632.0859.0733.0941.1291.1551zm2.7827-1.649.13.1438.1326.1357.1364.1293.1404.124.1462.1208.1529.1193.1602.1194.1675.12.1767.123.1961.1343.3898.2647.2158.1477.2266.1572.2126.1504.1697.0855.1843.079.1818.0647.1779.0504.1717.0357.1645.0218.1551.008.1439-.005.131-.0182.1177-.0292.1027-.0393.088-.0478.0746-.0562.0633-.0647.0529-.0755.0452-.092.0735-.2226.0201-.1375-.008-.0618-.0183-.0379-.0554-.0612-.1166-.0915-.1752-.1188-.2183-.1479-.2355-.1682-.2252-.1677-.2168-.1678-.2079-.1677-.2-.1686-.1918-.1689-.1835-.169-.1755-.169-.1682-.1699-.1603-.1702-.1527-.1703-.1453-.1703-.1385-.1711-.131-.1712-.1242-.1718-.05-.0732-.0595-.0254-.145-.0493-.1381-.0351-.1311-.0218-.1244-.01-.1176.002-.1112.0121-.1052.0222-.1004.0314-.0948.0403-.0899.049-.0855.0581-.0811.0668-.0762.0755-.0716.0844-.0689.0972-.0654.1037-.0545.0954-.0417.0828-.0296.0712-.0192.0585-.0102.0476-.004.0392.0009.0348.005.0349.0109.0396.0187.0473.0285.0568.0399.0668.0514.0765.0632.086.0733.0941.1291.1551zm5.676-3.268.1555.1645.1573.1604.1593.157.162.1542.1649.1519.169.1505.1729.1496.1776.1494.1826.1492.1885.1509.1945.152.2012.1544.2078.1569.2157.1603.2236.1642.2044.1487.1508.0728.1607.0604.1534.0413.146.0242.1378.009.1298-.005.1211-.0182.1121-.0296.1027-.0399.0932-.0488.0837-.0569.0735-.0635.0625-.0691.0524-.0742.0415-.0782.0323-.0858.0303-.1167.0168-.1021.005-.0834-.004-.0658-.0109-.0533-.0162-.046-.0228-.0438-.0316-.0457-.0428-.0492-.055-.0532-.0677-.057-.0798-.0608-.0907-.0645-.1005-.0688-.1093-.0742-.1155-.0797-.2316-.1654-.2188-.1626-.2069-.1605-.1955-.1586-.1851-.1575-.1751-.1564-.166-.1561-.1571-.1558-.1494-.1562-.142-.1566-.1358-.158-.1295-.1591-.1244-.1606-.1196-.1624-.1162-.1647-.0467-.0692-.0586-.0251-.145-.0493-.1381-.035-.1311-.0218-.1245-.01-.1176.002-.1111.012-.1052.0222-.1004.0314-.0949.0404-.0898.0489-.0855.0582-.0812.0667-.0762.0756-.0715.0843-.0677.0957-.0613.0993-.0475.0892-.0335.0759-.0213.0636-.0114.0518-.004.0419.001.0359.006.0358.0118.0391.0194.045.0292.0532.0406.0618.0518.0693.0632.0771.0744.0848.0844.0921zm-2.9698 1.5166.135.1649.1414.1655.1481.1658.1544.1664.1609.1663.1675.1669.1741.1669.1808.1676.1872.1673.1938.1681.2003.1679.2069.1685.2133.1682.22.1687.2265.1686.207.1502.1546.0744.1619.0585.154.0376.1466.019.1391.002.1324-.0134.1261-.0275.1195-.0408.1131-.0533.1068-.065.0997-.0762.0919-.0862.0829-.0953.0738-.1031.0633-.1099.0515-.1132.0752-.2278.0201-.1375-.008-.0618-.0183-.0379-.0555-.0612-.1165-.0915-.1753-.1188-.2183-.1479-.2355-.1682-.2252-.1677-.2167-.1678-.208-.1677-.2-.1687-.1917-.1688-.1836-.169-.1755-.169-.1682-.17-.1603-.1701-.1526-.1703-.1454-.1703-.1385-.1711-.131-.1712-.1242-.1718-.05-.0732-.0594-.0254-.145-.0493-.1381-.0351-.1311-.0218-.1245-.01-.1176.002-.1111.0121-.1053.0222-.1003.0314-.0949.0403-.0898.049-.0856.0581-.0811.0667-.0762.0756-.0715.0844-.0689.0972-.0655.1037-.0545.0954-.0416.0828-.0296.0712-.0192.0585-.0103.0476-.004.0392.0009.0348.005.0349.0109.0396.0187.0473.0286.0568.0398.0668.0514.0765.0632.086.0744.0953z" fill="#f2b004"/><path d="m153.713 111.961.063-.059.058-.066.052-.073.044-.077.036-.077.048-.147-.018-.014-.164-.111-.222-.15-.242-.174-.232-.172-.222-.172-.215-.173-.206-.174-.198-.175-.19-.175-.182-.175-.175-.176-.167-.178-.159-.177-.152-.178-.145-.179-.137-.18-.114-.157-.063-.021-.107-.027-.099-.017-.089-.007-.081.001-.074.009-.068.014-.065.02-.059.025-.057.031-.055.038-.053.044-.052.051-.049.058-.054.075-.055.088-.045.079-.031.061-.018.044-.004.013.011.023.027.046.041.061.055.074.069.088.129.158.136.159.143.16.149.161.156.16.162.162.169.162.176.163.182.163.189.164.196.164.202.165.209.165.216.165.222.166.177.128.105.051.124.044.112.028.103.013.095.001.088-.008.082-.019.078-.026.075-.035.072-.044z" fill="#f9d000"/><path d="m156.554 110.402.054-.028.047-.032.038-.033.031-.033.024-.035.019-.035.016-.043.02-.079.011-.065.002-.039-.001-.012-.002-.005-.018-.02-.033-.032-.05-.042-.068-.051-.082-.059-.097-.067-.11-.074-.12-.082-.237-.17-.225-.167-.213-.166-.202-.164-.193-.163-.182-.163-.173-.163-.165-.163-.156-.164-.149-.164-.143-.166-.136-.167-.13-.168-.125-.169-.099-.142-.062-.021-.107-.027-.098-.016-.09-.007-.081.001-.074.008-.068.014-.064.021-.06.025-.057.031-.055.037-.053.044-.052.051-.049.059-.051.071-.048.079-.035.065-.021.047-.004.013.006.011.025.039.04.053.053.065.068.077.079.087.151.16.153.155.154.152.157.15.161.148.164.146.169.146.173.146.179.146.185.148.192.15.198.152.206.155.213.159.222.163.176.128.103.05.127.047.116.032.108.018.098.006.088-.004.08-.012.07-.019z" fill="#f9d000"/><path d="m151.077 113.283.02-.021.018-.025.02-.041.045-.136-.018-.014-.164-.111-.222-.151-.243-.173-.231-.172-.223-.173-.214-.173-.206-.174-.198-.174-.19-.175-.182-.175-.175-.177-.167-.177-.159-.178-.152-.177-.145-.179-.137-.18-.114-.157-.063-.022-.108-.027-.098-.016-.089-.007-.082.001-.074.008-.068.014-.064.021-.06.025-.056.031-.055.037-.054.044-.051.051-.05.059-.053.075-.055.087-.045.079-.031.061-.018.045-.005.012.012.023.027.046.041.061.055.075.066.085.12.144.12.132.122.125.126.12.13.115.138.113.145.113.154.115.162.116.173.121.195.133.389.265.218.149.229.159.19.134.133.067.162.07.158.056.153.043.144.03.134.018.123.006.107-.004.091-.013.075-.018.056-.022.04-.021z" fill="#f9d000"/><path d="m148.294 114.932.021-.021.017-.025.02-.041.045-.136-.018-.014-.164-.111-.222-.151-.242-.173-.232-.172-.222-.173-.215-.173-.206-.174-.198-.174-.19-.175-.182-.175-.175-.177-.167-.177-.159-.178-.152-.177-.145-.179-.137-.18-.114-.157-.063-.022-.107-.027-.099-.016-.089-.007-.081.001-.074.008-.068.014-.064.021-.06.025-.057.031-.055.037-.053.044-.052.051-.049.059-.054.075-.055.087-.045.079-.031.061-.018.045-.004.012.011.023.027.046.042.061.055.075.066.085.12.144.119.132.122.125.126.12.131.115.137.113.145.113.154.115.162.116.174.121.194.133.39.265.217.149.229.159.19.134.133.067.162.07.159.056.152.043.144.03.134.018.123.006.107-.004.091-.013.075-.018.056-.022.04-.021z" fill="#f9d000"/><path d="m159.19 108.45-.137-.055-.136-.062-.134-.066-.132-.072-.13-.077-.127-.082-.125-.087-.122-.093-.119-.098-.116-.103-.115-.111-.148-.157-.141-.165-.13-.172-.12-.176-.11-.183-.1-.186-.088-.191-.019-.046-.029-.032-.122-.142-.117-.142-.112-.143-.109-.144-.105-.145-.064-.092-.061-.021-.108-.027-.098-.016-.089-.007-.082.001-.073.008-.069.014-.064.021-.06.025-.056.031-.055.037-.054.044-.051.051-.05.059-.051.071-.048.079-.035.065-.02.047-.005.013.006.011.026.039.039.053.054.065.067.077.08.087.151.16.152.155.155.152.157.15.16.147.165.147.168.146.174.146.179.146.185.148.191.15.199.152.205.155.214.159.222.163.175.128.104.05.126.047.117.032.108.018.097.006.089-.004.079-.012.071-.019.062-.024.054-.028.046-.032.039-.033.03-.034.025-.034.018-.035.017-.044v-.002l-.031-.01z" fill="#f9d000"/><path d="m144.1 118.903-.264-.421-.253-.431-.24-.44-.228-.451-.216-.461-.203-.47-.191-.481-.177-.49-.166-.501-.153-.51-.14-.521-.127-.53-.114-.541-.101-.55-.089-.561-.075-.57-.063-.581-.049-.591-.037-.601-.023-.611-.01-.621.001-.192-.08.101-.084.116-.082.122-.08.128-.078.135-.075.142-.073.149-.071.157-.068.165-.064.174-.062.182-.059.192-.056.201-.053.211-.048.221-.045.231-.041.241-.036.253-.032.263-.013.124.028.087.225.721.075.24.226.721.075.24.225.721.076.24.15.48.075.24.075.24.226.721.075.24.225.721.076.24.449 1.437.131.094.165.114.165.111.164.107.165.104.163.1.164.097.164.093.163.089.162.085.163.083.163.078.161.076.162.071.161.068.161.064.072.028-.246-.321-.289-.401z" fill="#f9d000"/><path d="m144.713 116.311.098.007.09.001.081-.006.071-.01.06-.014.049-.016.039-.017.029-.017.022-.016.016-.016.015-.018.014-.022.013-.028.047-.142-.018-.014-.164-.111-.222-.151-.243-.173-.231-.172-.223-.172-.049-.04.031.083.052.131.053.13.054.13.054.128.056.128.056.127.058.126.058.125.018.037z" fill="#f9d000"/><path d="m138.862 114.36-.077-.233-.077-.234-.077-.235-.076-.237-.075-.239-.074-.239-.074-.241-.072-.243-.071-.245-.026-.092-.078-.098-.171-.203-.168-.192-.166-.181-.163-.169-.161-.159-.159-.148-.155-.139-.154-.128-.152-.12-.149-.11-.146-.101-.145-.094-.143-.085-.141-.079-.138-.07-.137-.064-.135-.058-.134-.051-.122-.042.106.16.329.528.313.525.297.524.28.522.264.522.247.519.231.519.214.516.199.516.182.514.166.513.15.511.133.51.118.509.101.506.086.506.07.504.054.502.039.5.022.499.007.497-.008.496-.024.493-.034.413.043-.055.113-.154.112-.156.11-.16.108-.162.106-.166.105-.168.101-.171.101-.173.097-.176.095-.177.092-.18.09-.182.088-.184.084-.185.082-.187.078-.189.059-.148-.065-.225-.07-.234-.071-.233-.072-.232-.072-.23-.074-.23-.075-.23-.075-.229-.077-.228-.076-.229-.078-.228-.078-.228-.079-.231-.156-.453-.079-.229-.079-.229-.078-.23-.079-.23-.078-.231z" fill="#f9d000"/><path d="m136.03 102.751.107.151.11.169.126.225.111.206.107.204.103.203.099.202.094.202.091.201.087.201.083.201.08.201.075.2.073.202.068.202.065.202.062.204.059.205.055.206.052.206.049.208.046.211.043.211.04.214.038.216.035.219.033.221.03.223.028.226.026.23.024.233.022.236.011.134.091.07.068.053.054-.313-.021-.151-.039-.263-.042-.261-.044-.258-.046-.254-.048-.251-.052-.249-.053-.245-.056-.242-.059-.238-.061-.236-.063-.232-.067-.229-.068-.225-.071-.221-.074-.218-.077-.215-.079-.211-.082-.208-.084-.204-.088-.2-.09-.197-.092-.193-.095-.189-.098-.185-.101-.181-.104-.179-.106-.173-.11-.17-.112-.167-.115-.162-.1-.135-.226-.249-.221-.185-.224-.138-.225-.096-.224-.061-.22-.028-.213.003-.202.031-.185.055-.111.05.071.025.067.031.131-.042.189-.038.196-.018.202.008.202.036.192.063.178.085.163.104.146.116.133.127.12.135z" fill="#f9d000"/><path d="m133.125 103.755-.017.008-.016.014-.014.017-.009.016-.005.018-.002.02.002.021.005.018.009.016.014.017.016.013.016.009.019.005.02.002.02-.002.019-.005.016-.009.017-.013.013-.016.008-.017.006-.018.002-.021-.002-.02-.006-.018-.008-.017-.014-.016-.016-.014-.016-.008-.018-.005-.021-.002-.021.002z" fill="#f9d000"/><path d="m144.83 128.155-.147-.117-.132-.127-.121-.135-.112-.142-.107-.151-.11-.169-.126-.225-.111-.206-.107-.204-.103-.203-.099-.202-.095-.202-.091-.201-.087-.201-.083-.201-.079-.201-.076-.201-.072-.201-.069-.202-.065-.203-.061-.204-.059-.203-.055-.206-.052-.208-.049-.208-.046-.21-.043-.212-.041-.214-.037-.216-.035-.218-.033-.221-.03-.224-.029-.226-.026-.229-.024-.233-.021-.237-.012-.134-.091-.07-.068-.052v.003l-.053.309.021.152.039.263.041.261.044.257.047.255.048.251.051.248.054.246.056.242.058.238.061.235.064.233.066.228.069.225.071.222.074.219.077.214.079.212.081.207.085.204.087.2.09.197.092.192.096.19.098.185.101.181.103.178.107.174.109.17.113.166.115.163.101.136.225.248.221.185.224.138.225.096.223.061.221.027.213-.003.202-.03.185-.055.111-.05-.071-.025-.067-.031-.131.041-.189.039-.197.018-.201-.008-.201-.036-.193-.062-.179-.086z" fill="#f9d000"/><path d="m147.224 126.63.016-.009.016-.013.014-.016.008-.017.006-.018.002-.02-.002-.021-.006-.018-.008-.016-.013-.017-.017-.013-.017-.009-.018-.005-.02-.002-.021.002-.017.005-.017.008-.016.014-.014.017-.009.016-.005.018-.002.021.002.02.005.018.009.016.014.017.016.013.016.009.019.005.02.002.02-.002z" fill="#f9d000"/><path d="m161.651 102.778-.095-.047-.098-.043-.101-.037-.1-.033-.102-.027-.103-.023-.105-.017-.104-.013-.105-.007-.105-.002-.106.002-.106.007-.104.013-.104.017-.104.023-.101.027-.101.033-.099.037-.099.043-.096.047-.093.052-.091.057-.09.062-.087.067-.084.073-.082.078-.078.082-.072.084-.068.087-.062.09-.057.091-.052.093-.047.096-.043.098-.037.1-.032.101-.028.101-.022.104-.018.104-.012.104-.008.105-.002.106.002.106.008.105.012.104.018.105.022.103.028.102.032.1.038.1.042.099.047.095.052.093.057.092.063.09.067.087.073.084.077.082.082.077.084.073.087.067.089.062.092.058.094.052.096.047.098.042.099.038.101.032.102.028.103.022.105.018.104.012.105.008.106.002.105-.002.105-.008.104-.012.105-.018.103-.022.102-.028.102-.032.099-.038.097-.042.096-.047.094-.053.092-.057.089-.062.087-.067.085-.073.081-.077.077-.081.073-.085.068-.087.062-.089.057-.092.052-.094.047-.096.043-.097.037-.1.032-.101.028-.102.022-.103.018-.105.013-.105.007-.105.003-.104-.003-.106-.007-.105-.013-.105-.018-.104-.022-.103-.028-.102-.032-.101-.037-.1-.043-.097-.047-.096-.052-.094-.057-.092-.062-.089-.068-.087-.072-.085-.078-.081-.081-.078-.085-.072-.087-.068-.09-.062-.092-.057z" fill="#dea817"/><path d="m150.391 108.901-.028.009-.025.01-.023.013-.024.017-.026.021-.027.026-.027.033-.038.053-.027.043.057.073.124.152.13.153.138.154.144.155.15.155.157.157.164.157.171.158.178.159.184.16.191.16.198.161.204.161.212.162.218.163.146.106.056.027.085.031.072.017.06.008.049.001.043-.005.04-.008.036-.013.036-.017.036-.022.036-.027.035-.032.028-.033-.136-.093-.25-.178-.237-.177-.229-.177-.22-.178-.213-.179-.205-.18-.196-.181-.189-.182-.181-.183-.174-.184-.165-.185-.158-.185-.152-.187-.143-.188-.039-.054-.013-.003-.066-.011-.055-.004-.045.001-.036.004z" fill="#fff500"/><path d="m155.536 109.704.22.162.147.106.056.027.092.035.08.022.069.011.057.004.048-.002.017-.003-.077-.052-.11-.075-.123-.085-.243-.173-.231-.172-.22-.171-.209-.169-.199-.169-.19-.17-.181-.17-.171-.17-.164-.171-.156-.173-.149-.173-.143-.175-.136-.175-.129-.177-.024-.033-.009-.002-.066-.011-.054-.004h-.045l-.037.004-.03.007-.029.008-.024.011-.024.013-.024.016-.026.022-.027.026-.027.032-.002.003.017.019.074.082.147.155.147.15.15.148.152.145.156.143.16.142.165.143.169.142.175.143.182.146.188.147.196.151.203.153z" fill="#fff500"/><path d="m150.245 112.914.071.02-.012-.009-.237-.176-.229-.177-.221-.178-.213-.18-.204-.18-.196-.181-.189-.181-.181-.183-.174-.185-.165-.184-.158-.185-.152-.188-.144-.188-.038-.053-.013-.003-.066-.011-.055-.005-.045.001-.036.004-.031.007-.028.008-.025.011-.023.013-.024.016-.026.021-.027.027-.028.033-.037.052-.028.044.055.07.111.133.109.121.111.114.116.109.121.107.127.105.138.108.147.11.158.112.169.119.193.131.39.265.219.15.231.16.168.119.097.049.139.06z" fill="#fff500"/><path d="m147.462 114.563.071.02-.012-.009-.237-.176-.229-.177-.22-.178-.213-.18-.205-.18-.196-.181-.189-.181-.181-.183-.174-.185-.165-.184-.158-.185-.152-.187-.143-.189-.039-.053-.013-.003-.066-.011-.055-.004h-.044l-.037.004-.031.007-.028.008-.025.011-.023.013-.024.016-.026.022-.027.026-.027.033-.038.052-.027.044.054.07.111.133.109.121.111.114.116.109.121.107.128.105.137.108.148.11.157.112.17.119.192.131.39.265.219.15.231.16.169.119.096.049.14.06z" fill="#fff500"/><path d="m156.7 106.678-.094-.201-.114-.132-.122-.149-.117-.149-.114-.151-.096-.132-.008-.002-.066-.011-.055-.005-.045.001-.036.004-.031.007-.028.008-.025.011-.023.013-.024.016-.026.021-.027.027-.028.032-.001.003.016.019.075.082.146.154.148.151.15.148.152.145.156.143.16.142.164.143.169.142.054.044-.08-.118-.121-.201z" fill="#fff500"/><path d="m143.099 118.673.159.1.158.097.159.094.161.091-.233-.371-.258-.441-.247-.451-.233-.462-.221-.471-.208-.481-.195-.492-.182-.501-.168-.511-.156-.521-.143-.531-.13-.541-.116-.55-.103-.561-.09-.57-.077-.579-.064-.591-.049-.599-.038-.61v-.008l-.032.084-.058.171-.055.182-.054.191-.049.2-.047.21-.042.222-.04.233-.035.243-.031.255-.004.04.229.733.075.24.225.721.076.239.225.721.075.24.151.481.075.24.075.24.225.721.076.24.225.72.075.24.411 1.313.023.016.159.111.161.108z" fill="#fff500"/><path d="m138.277 115.071.169.523.153.522.136.521.121.519.103.519.088.516.072.516.055.514.039.513.023.511.008.509-.001.025.008-.013.097-.168.094-.17.092-.172.09-.174.087-.177.085-.178.081-.179.079-.182.077-.183.008-.02-.028-.096-.069-.232-.07-.23-.071-.23-.073-.229-.073-.229-.074-.228-.075-.227-.076-.228-.076-.227-.077-.227-.078-.228-.079-.23-.156-.453-.079-.229-.079-.23-.079-.23-.079-.231-.078-.232-.079-.233-.078-.235-.077-.235-.078-.237-.076-.239-.076-.239-.074-.241-.075-.244-.072-.246-.072-.247-.005-.017-.026-.033-.165-.197-.163-.185-.159-.174-.157-.162-.154-.152-.151-.141-.148-.132-.145-.121-.142-.112-.073-.054.004.007.301.532.285.531.267.529.252.528.235.528.218.526.202.525z" fill="#fff500"/><path d="m161.47 103.123-.077-.039-.081-.034-.083-.032-.082-.026-.084-.023-.085-.018-.086-.015-.085-.01-.087-.006-.087-.002-.088.002-.087.006-.085.01-.087.015-.085.018-.083.023-.082.026-.082.031-.081.035-.079.039-.076.042-.075.047-.073.051-.071.055-.07.06-.067.064-.065.068-.059.069-.056.072-.051.073-.047.075-.042.076-.038.078-.035.082-.031.081-.027.083-.022.083-.019.085-.014.087-.01.085-.007.087-.002.087.002.088.006.087.011.085.014.086.019.085.022.084.027.082.031.082.034.081.039.078.042.076.047.075.052.074.055.072.06.069.064.068.067.063.069.06.072.055.073.051.075.047.077.043.078.039.08.034.082.031.083.027.084.022.085.019.086.014.087.011.086.006.087.002.086-.002.086-.006.087-.011.086-.014.085-.019.084-.023.084-.026.081-.031.079-.034.079-.039.077-.043.076-.047.072-.051.072-.055.07-.06.067-.063.063-.067.06-.07.056-.072.05-.072.047-.076.043-.077.039-.079.035-.079.03-.081.027-.084.022-.084.019-.085.014-.087.011-.086.006-.086.002-.086-.002-.087-.006-.086-.011-.087-.014-.086-.019-.085-.022-.084-.027-.083-.031-.082-.034-.08-.039-.078-.043-.077-.047-.075-.051-.074-.055-.071-.059-.07-.064-.067-.067-.064-.07-.059-.072-.056-.073-.051-.076-.047z" fill="#0a0b0c"/><path d="m161.402 103.252-.071-.035-.075-.032-.076-.029-.075-.024-.077-.021-.078-.017-.079-.013-.078-.01-.08-.005-.08-.002-.081.002-.08.006-.078.009-.079.013-.079.017-.076.021-.076.024-.075.029-.075.032-.072.035-.069.039-.069.043-.068.047-.065.051-.064.054-.062.06-.059.062-.055.064-.051.065-.047.067-.043.069-.038.07-.036.072-.032.075-.029.075-.024.076-.021.076-.016.078-.014.08-.009.078-.006.08-.002.08.002.081.006.079.009.079.013.079.017.078.021.077.024.075.029.076.032.074.035.072.039.07.043.069.048.068.051.066.054.063.059.062.062.059.064.055.065.05.067.047.069.043.071.04.072.035.074.032.075.028.076.025.077.02.078.017.079.014.08.009.079.006.08.002.079-.002.079-.006.08-.009.079-.014.078-.017.077-.021.077-.024.075-.028.073-.032.072-.035.071-.04.069-.043.067-.047.066-.051.064-.055.062-.058.057-.061.056-.064.051-.066.046-.067.043-.069.04-.071.035-.073.032-.073.028-.074.025-.077.02-.077.018-.078.013-.08.009-.079.006-.079.002-.08-.002-.079-.006-.079-.009-.08-.013-.079-.018-.078-.02-.077-.025-.077-.028-.075-.032-.073-.035-.072-.04-.071-.043-.069-.046-.067-.051-.066-.055-.064-.059-.061-.061-.059-.064-.055-.066-.051-.068-.047-.069-.043z" fill="#004f81"/><path d="m160.6 106.362-.509-1.274-1.107-.384.001-.055 1.184-.447.406-1.136.058-.002h.004l.444 1.164 1.2.442v.015l-1.122.429-.549 1.248z" fill="#004f81"/><path d="m159.057 104.676 1.152-.435.397-1.114.436 1.141 1.116.411-1.037.396-.514 1.168-.477-1.195z" fill="#2c6693"/><path d="m159.205 104.674 1.044-.394.359-1.007.395 1.034 1.011.372-.931.356-.473 1.078-.442-1.105z" fill="#5981a8"/><path d="m159.354 104.672.934-.353.322-.9.354.928.906.333-.825.315-.433.988-.406-1.016z" fill="#84a5c3"/><path d="m159.502 104.67.825-.312.284-.794.314.822.802.295-.72.275-.393.896-.37-.924z" fill="#c3dce3"/><path d="m159.65 104.668.717-.271.246-.687.273.715.697.257-.613.234-.354.806-.333-.835z" fill="#86bbdb"/><path d="m159.798 104.665.609-.229.207-.58.233.609.592.218-.507.193-.313.715-.298-.744z" fill="#52a2d2"/><path d="m159.947 104.664.5-.189.169-.474.192.503.487.18-.401.153-.273.624-.261-.654z" fill="#008eca"/><path d="m160.095 104.662.391-.148.132-.367.151.397.383.141-.295.112-.234.533-.225-.563z" fill="#007cc3"/></svg>