<svg fill-rule="evenodd" height="400" viewBox="0 0 169.33333 112.88889" width="600" xmlns="http://www.w3.org/2000/svg"><g transform="matrix(.08063492 0 0 .08063492 45.155551 79.022223)"><path d="m0 20v100h60v-20.000001h-40v-79.999999z" fill="#9000cc"/><path d="m80 20v100h60v-20.000001h-40v-20h40v-19.999999h-40v-20h40v-20z" fill="#9000cc"/><path d="m210 40.000003v20h20c5.52285 0 10 4.47715 10 10s-4.47715 9.999995-10 9.999995h-20v20h20c16.56854 0 30-13.43146 30-29.999995 0-16.56854-13.43146-30-30-30zm20-40c-38.65993 0-70 31.34007-70 70 0 38.659927 31.34007 69.999997 70 69.999997s70-31.34007 70-69.999997c0-38.65993-31.34007-70-70-70zm0 20c27.61424 0 50 22.38576 50 50 0 27.614233-22.38576 49.999997-50 49.999997s-50-22.385764-50-49.999997c0-27.61424 22.38576-50 50-50z" fill="#9000cc"/><path d="m320 20v100h20v-62.78125l40 62.78125h20v-100h-20v62.78125l-40-62.78125z" fill="#f00"/><g fill="#9000cc"><path d="m420 20h20v100h-20z"/><path d="m460 20v100h50c16.56854 0 30-13.43146 30-30v-40c0-16.56854-13.43146-30-30-30zm20 20h30c5.52285 0 10 4.47715 10 10v40c0 5.522847-4.47715 10-10 10h-30z"/><path d="m660 20-20 20h30c5.52285 0 10 4.47715 10 10s-4.47715 10-10 10c-16.56854 0-30 13.43146-30 30v30h60v-20h-40v-10c0-5.52285 4.47715-10 10-10 16.56854 0 30-13.43146 30-30 0-16.56853-13.43146-30-30-30z"/><path d="m790 .000003c-38.65993 0-70 31.34007-70 70 0 38.659927 31.34007 69.999997 70 69.999997s70-31.34007 70-69.999997c0-38.65993-31.34007-70-70-70zm0 20c27.61424 0 50 22.38576 50 50 0 27.614235-22.38576 49.999997-50 49.999997s-50-22.385762-50-49.999997c0-27.61424 22.38576-50 50-50z"/><path d="m880 40v80h20v-100z"/><path d="m920 20v60h30c5.52285 0 10 4.47715 10 10s-4.47715 10-10 10h-30l20 20h10c16.56854 0 30-13.43146 30-30s-13.43146-30-30-30h-10v-20h40v-20z"/></g></g><path d="m-.000002-.000003h169.33333v112.88889h-169.33333z" fill="#d61a0c"/><path d="m-.000002 75.259071h169.33333v18.814909h-169.33333z" fill="#fecc00"/><g transform="matrix(1.2778242 0 0 1.2778242 21.590427 -39.343282)"><g fill-rule="nonzero"><path d="m54.481033 44.861632c.0607-.05975.167721-.121396.26441-.130186.102746-.0095.233882.06236.30729.116644.72968-.311803 1.465419-.486295 2.266725-.522405 1.14043-.05096 3.093569.115694 4.111891.947884.813185.664232 1.075337 1.667943.845256 3.038455.164276.06486.295174.285196.237684.453392-.02067.06034-.09016.150141-.136006.194328.338411.7083.523949 1.363147.571937 2.132739.497461.165701 2.920504.86533 2.920504 1.632189.389844.34435.851076.953467.951209 1.807394.277001.415501.320951.962731.475605 1.426933.05452.163445.112962.320713.19029.475605.212977.412175.322256.881365.04763 1.236644.260372.429398.468478.784676.468478 1.270734.0083.18245.06996.281871.149785.441514.272131.301589.525137.631923.803207.938263.433437.477505.890987.936124 1.280593 1.432635.80487 1.02533 1.639435 2.481959 2.315307 3.591149.586904.96285 1.186518 1.231774 1.939955 2.179064 1.451165 1.824141 2.347378 3.884779 3.08573 6.180368.270943.792279.503281 1.608908.70628 2.421024.147766.59213.358842 1.225597.399109 1.837564.01235.185419-.0048.373927.0083.599495.04633.768047.328433 1.586933.639168 2.271714-1.686473-1.088047-1.892085-2.243681-2.378262-4.042879l-.285315.57075c-.423222-.59415-.478099-1.121425-.618381-1.854907l-.142658.190171c-.331047-.509814-.336867-.986132-.475605-1.521959-.04763.09503-.04763.237802-.09514.38046-.821143-.801663-.882791-2.384795-1.039108-3.5023-.135056-.961188-.335442-2.070497-.897758-2.736035.639881 1.666399.87412 3.344795.795248 5.096836l-.237791-.09514c.152635.611611.211076 1.351388 0 1.855025.253957.761871.339955 1.779717.142777 2.568433.684186 1.168225 1.140192 2.421973 1.574817 3.696865.242672.711032.378084 1.233437.728374 1.609977.21749.233526.518248.411462.978648.54343.05333 1.476584.01069 2.33942-.124721 3.589961-.141945 1.31219-.439139 2.719999-.434744 4.07982.0012.413719.03801.82637.08612 1.251254.109161.964276.139332 1.832576-.0974 2.779747-1.139243.214402-2.037 1.041484-2.33063 2.045196h-5.61247c.38925-1.415531 1.63991-2.306636 3.329353-2.378143.06687-.388419.289235-.77078.570868-1.141618.754981-.794892 1.52386-2.040326 1.569591-3.186695.07543-1.058233.06925-2.196644-.07697-3.260578-.133393-.971522-.560891-1.787438-1.061559-2.589813-.487839-.781826-.814966-1.663786-1.144587-2.52092-.340193-.91795-1.088522-1.698232-1.902538-2.282998.2283 1.121068.220935 1.895174.118901 2.807898-.06307.754624-.02708 1.495827.235189 2.210066.111299.302657.216303.572293.074.87994-.273556.684068-.667439 1.365998-1.046474 1.997683-.482138.832902-.964513 1.666161-1.409591 2.499182-.816154 1.534788-1.574461 3.336599-1.919761 5.063458-1.203385.44769-2.47899.889442-3.17648 1.902538h-5.289976c.329859-1.39807 1.297936-2.127394 2.644929-2.36674.367037-.06521.739064-.106548 1.065122-.106548.799881-.207157.695827-.512903.903697-.903697.144914-.381173.637624-.722078.935292-.998841.488196-.488196.890512-.972234 1.241039-1.472665.751655-1.072605 1.739094-2.963503 2.056837-4.235069.04941-1.098856-.156555-2.936182-.38046-4.138023-.317981-1.010245-1.463281-2.650986-2.014788-5.018201-.711388-.713289-1.295797-1.604395-1.878069-2.420074-.982331.481188-2.513911 1.075456-3.955217.874477l.142657.428091c-.452561.06272-.918069.0721-1.379301.04751l.09514.142777c-.647008.30242-1.758456.474417-3.09167.190171.126979.126978.327721.227349.475605.332947-.902033.04454-1.807037.08671-2.71109.04763.741084 2.355811 1.034001 4.99979.285316 6.706456.404691 2.042226.295293 3.961631.365612 5.880086.01069.423578.384974 1.167631.518604 2.084275.114269.783608.0133 1.762019-.218322 2.689947l-.04751.237803c-1.176184-.332947-2.612501 1.698232-2.972412 1.997683h-5.065952c.199317-.849176.526088-1.371106 1.221559-1.830438.548894-.362524 1.173927-.59795 1.822598-.690482.296956 0 .415857-.338292.570749-.570749.291017-.582153.876614-1.012264 1.406503-1.356139.198248-.128404.392457-.268449.543667-.451255.237209-.937787-.08338-2.827022-.332947-3.757563-.171403-.800713-.417045-2.233466-.856184-2.996525-.286384-.286265-.61066-.547705-.689532-1.032575-.201455-1.239257-1.032694-3.03988-1.413392-4.027319-.315367.837535-.57265 1.545597-1.226547 2.158515-.209533 1.773303-.764365 2.388358-1.284276 3.329471-.288285.522405-.312635.908567-.381054 1.365879-.185894 1.242583-.284603 2.485642-.284603 3.74236.000357.524543.0048 1.081039.04739 1.598217v1.331789c0 .142776.01307.33366 0 .475724-.01318.143132-.149071.256451-.332947.332947-1.221796.50827-1.820934 1.330719-2.568432 2.378143h-5.452708c.127929-.840742.526444-1.647275 1.285583-2.081544.51706-.295768 1.137223-.413838 1.74135-.534521l.237802-.04751c.25372-.12674.59617-.452204.640832-.774461.05143-.373214.274506-.656748.533095-.911061.216065-.21274.531433-.472042.810453-.719822.243979-.216659.584766-.508032.65069-.855352.164395-.864023.240891-2.509873.320237-3.226725.177936-1.607007.134462-2.256866-.719821-3.596138.207156-1.301736.217847-2.32671-.04751-3.656717-.128879.113675-.334491.255382-.523237.327246.09384-.27902.02055-.899183 0-1.189012-.318218.234001-.652947.419064-.998841.570749.219866-.381054.441039-1.022123.428092-1.522078-.373452.30634-.748686.470022-1.189131.618381.655204-.695708.842999-1.293659.713526-2.187972-.114863-.574313-.252056-1.06536-.538441-1.544884-.488552 1.228091-1.157772 2.04187-1.718069 3.067675-.542361.99112-1.041128 2.273852-.977936 3.376272-.269398-.431299-.613749-.976392-.713407-1.474447-.185538.371671-.153942 1.150289-.190289 1.426934-.217135-.300045-.508033-.557328-.665895-.903816-.287453.999673-.982568 1.673169-1.854906 1.997683.400297-.635367.755218-1.418975.618262-2.187854-.182925.732294-.302063 1.27216-.903696 1.759881-.146103-.764603-.526444-1.192338-1.189131-1.855025-1.269191-1.015115-2.752664-2.580311-3.139182-4.090511 0 .825419.04775 1.316228.237802 2.140341-1.090779-1.090779-1.997683-2.644097-1.997683-4.233168-.146459.512546-.174372 1.016064-.190289 1.522078-.524306-.723029-.917713-2.369591-.713408-3.376985-.314179.420965-.56778.578827-.998841.76092.510289-1.045404.670052-1.806443.618381-3.044037-.22533.333541-.555426.634773-.8702.879584.275219-1.145657.348983-2.500251.394477-3.69449.03623-.945983.115575-1.873674.475723-2.797564-.175085.116645-.327364.207038-.523236.285316v-.19029c-.27415.262628-.574551.501381-.903697.665894.09289-.216659.135887-.462063.237802-.665894-.319999.372739-.711031.519079-1.18913.618382.477505-.596763.665894-1.316585.665894-2.092828 0-1.293184-.336867-2.857193.428092-3.995366-.460639.113912-.86438.408493-1.284157.618381-.432606.325227-.810928.308716-1.189131-.09514-.06972-.104529-.332947-.464202-.332947-.57075-.532264.05001-.920445-.05998-1.136154-.578708-.25562-.616362.03825-1.313734.448285-1.817846.364068-1.366236 1.418856-1.766295 2.739241-2.322553.635961-.267973 1.237832-.572294 1.829369-.921871.850363-.501499 1.773302-1.342835 2.029279-2.323384.146696-.565642-.06058-1.01357-.392695-1.453303.356585.107261.679079.248731.998841.475605.139213-.278426-.07804-.791566-.19017-1.046354.352783.08742.949428.560653 1.189012 1.093986.141232-.208463.150972-.841217.142776-1.046473.385212.565404.758545 1.16086.889087 1.788031.299094-.356941.322969-1.087215.39507-1.550229.470854.460163.727186 1.0302.856184 1.664736.246117-.453512.333897-.746192.428092-1.236644.234476.312516.523236.831596.523236 1.236644.231389-.231388.313467-.649028.38046-.95121.26346.380698.434031.922583.428092 1.426933.24683-.156199.481782-.33651.713408-.523236v.808552l.380579-.475605c.112843.338886.153348.790972.09514 1.141499l.285316-.190171c.100727.349221.04811.605791 0 .903697l.190289-.04763c.02269.262153-.0055.652947-.04763.951329.78242.127097 1.356733.89455 1.701321 1.547616.245286.465152.647839 1.494402.724454 2.162315.234239.703786.295768 1.76285.221886 2.272546.175916.851907.286028 1.649294.158693 2.436346l-.332947-.190289c0 .428092 0 .856184-.04763 1.284157.887305-2.399524 1.79017-4.287096 3.662419-6.18322.947408-.959524 2.153525-1.956703 3.377103-2.568432.374521-1.311002 1.045285-3.042018 2.217074-3.810184.07103-.867587.299213-1.69063.578233-2.391447-.199436-.149072-.228181-.324751-.06141-.533689-.294699-.617313-.386874-1.220015-.249443-1.83804.472754-2.120622 3.015292-2.74031 4.833733-2.7257 1.09553.0095 2.258172.193853 3.504438.53464z"/><path d="m33.860165 54.294144c-.09503.285316-.332947.665895-.808552 1.093987-.523236.427973-1.284156.285315-1.284156.285315 1.170363-.10631 2.045433-1.090185 2.045195-2.187972l-.181618.190289c-.138381.55412-.722078.930185-1.245315 1.046473.948834-.59308 1.253867-1.260162 1.141499-2.045314l-.523118.523236v-.903696c-.174135.143251-.291967.268091-.467052.38046-.09004.545924-.198842.951328-.293987 1.141499.237803-.04751.428092-.04751.475605.04763.09515.142657-.190289.428091-.332947.618262-.190289.19029-.761039.998842-1.284157 1.236763-.570868.237802-1.189131.19017-1.522078 0 .771136-.04763 1.290809-.676941 1.807394-1.189131-.720178-.04799-1.496897.153942-2.140341.475605.597001-.682405 1.628388-.787171 2.473288-.618263-.323326.768998-.909636 1.060608-1.284157 1.284157 0 0 .475605-.04751.998841-.475605.57075-.428092.665895-.951328.998842-1.189131 0 0-.380579.04763-.856184 0-.428092 0-1.284276 0-1.75988.19029-.475605.142657-.951329.523236-.951329.523236.17853-.624914.844781-.753437 1.275723-.856183.444366-.888968.629904-2.192487.0086-3.044157-.08707.618025-.158812.875546-.52003 1.236763.187083.935649-.280445 1.879138-1.002048 2.473288.777193-1.067023 1.148151-2.332531.237802-3.805076-.0329.585716-.312635.924246-.285315.951209.05013-.000119-.392695-.838366-.766622-1.202791.02625.237328.02851.510646-.08956.727186.190289.19029.523237.618263.665894 1.284157.237803 1.093986-.570749 1.664736-.570749 1.664736.285434-.475605.428092-1.046354.332947-1.617104-.04751-.428092-.370007-1.007631-.57075-1.236644-.137193-.156436-.301707-.264647-.475605-.380579.511953 1.47896-.964038 2.900905-2.109694 3.555871-.593081.339005-1.222034.611967-1.790527.915219-.475723.19017-.903815.38046-1.331788.618262-.808671.428092-1.093986.998842-1.189131 1.284276.142658-.142777.38046-.332947.570749-.428092.332948-.19029.808552-.332947.998842-.285434.237802 0 .237802.332947.04751.475723-.190171.142658-.618263 0-1.093868.237803-.332947.142658-.713526.475605-.903815.665894-.190171.332947-.332947.808552-.190171 1.189012.190171.475724.618263.475724.856065.428092.285434-.190289 1.046473-.665894 1.474565-.95121.57075-.380578 1.331789-.761039 1.426934-.80867.04751 0 .142657.190289.19017.237802.04763.09515.285435.285434.142777.380579-.142777.142658-.428092 0-.618382 0-.190289 0-.428091.04751-.618381.142658-.163444.09799-.686681.421202-1.043979.644157-.494253.308597-.942657.460876-.335322 1.06821.09514.142658.332947.332947.808552 0 .8721-.608879 1.784824-.89455 2.378261-.998841-1.352931 1.364453-1.141618 2.715366-1.141618 4.613628 0 .713526-.142657 1.284276-.285315 1.617223.332947-.237803.845612-.679792.893244-2.011581.04751-1.379301.390913-3.601008 1.247097-4.171757-.998842 1.617222-.816036 3.496479-.91118 4.447808-.142658.998841-.372977 1.497727-.420609 1.592753.423816-.356466.669101-.868062.861173-1.361009.622895-1.59798.381172-2.511417 1.13651-3.823369-.679792 1.807394.0835 2.378381-1.331789 4.946576 1.305063-1.213838 1.970007-3.15308 1.95017-4.994207.237803.80867.0091 1.903132.0091 1.903132.385211-.501856.612561-1.41066.737757-1.84576l-.223786-.342688c.541173.39709 1.440475.423222 1.855025.237803-.000237.01568-.427854-.07246-.808552-.428092.856065.190289 1.375145-.086 1.565434-.276169-.04751 0-.756882.03837-1.327631-.437238 1.144468.360623 1.44475-.165346 1.522791-.214403 0 0-.761752-.02352-1.237476-.546636 0 0 .808671.38046 1.426933.332947.665895-.09515.998842-.475724.998842-.475724s-.713407.285434-1.664736-.237802c.993496.365968 2.426963.01817 2.845196-.998842-.553051 0-1.183786-.132917-1.656065-.427973 1.902895.33556 3.19893-.301351 3.164364-2.129175l-.120327.03635zm-3.454905-.450779c.428092-.04751.651284-.03611.936718-.03611.240178-.814966.398634-1.707022-.0026-2.509635-.132799.442702-.244811.664707-.562198.92876-.03373.495679-.109873 1.184855-.371907 1.616985zm1.14435-.02494c.170215 0 .293986-.01069.458262-.01069.250512-.573956.401841-1.630526.187558-2.224319-.118426.316555-.192309.38236-.408137.598307.04787.428329-.05618 1.287007-.237683 1.637178zm14.504878.451017c-.13945-.674209-.187082-1.462568-.156317-2.158039-1.01856.859747-1.61853 2.434802-2.006117 3.681542-1.275604.681574-2.462478 1.583608-3.46322 2.627586-1.126176 1.174877-1.868804 2.372085-2.430526 3.388625-.730156 1.426815-1.724721 4.376302-1.95017 6.706575l-.57075-.09514c.940044-1.881395.907973-5.81345.951329-5.80276l.348864.206088c0-1.854907-.586786-2.727007-.586786-2.727007.164039.137669.322732.227468.401723.449235.02245-.943014-.197773-1.772234-.687038-2.589576.12389.03849.329978.307647.38046.38046-.06141-.587031-.341381-1.269792-.667795-1.843511-.338173-.594387-.757832-1.269665-1.486443-1.390824-.250275.783727-.661737 1.395219-1.698351 1.522079l.332947.09514s-.428092.998842-1.093986 1.236644c0 0-.452205.68003-1.213244.822806 0 0-.308834.318693-.546637.413838h.475605s-.328671.65164-1.232368.699153l.380579.19029s-.765315.641781-1.811788.261202c0 0-.38046 1.703103-.998841 2.178827 0 0-.380461 1.331788-1.1415 2.187853-.285434.761039-.665894 1.997683-.665894 3.377103 0 1.379302-.142658 2.33063-.237802 2.90138.229725-.229725.365137-.484395.523236-.761039.334373 1.037446.259659 1.971313-.09514 2.996524.518841-.570749.977817-1.505211 1.089591-2.727482.135649 1.207186-.302539 1.863815-.395308 2.584825-.09515.903696.01912 1.807393.209413 2.378143.09514-.618263.332947-1.569591.808552-2.282999-.395308 1.845048-.03706 3.594594 1.093986 5.136865-.142657-.998841.142658-2.425774.523237-2.853866-.500787 2.283592 1.365404 3.933955 2.948893 5.517444.524662.419777 1.021172.970571 1.236644 1.617104.261677-.39222.427973-.942064.492471-1.417312.08006-.58833-.200267-1.438337.221055-1.959673 0 0-.237803.998841.142657 1.712249.38046.761039.142658 1.37942-.09514 1.95017 1.011194-.821381 1.214194-1.812264 1.046473-3.044038.246592.522524.180312 1.369324.618262 1.807394-.03017-.713883.472042-1.394743.665895-2.092828.0019.660312-.120208 1.258144.237802 1.855025.133749-.802612.59997-1.805255.996585-2.476138 1.296035-2.19213 2.574846-3.658499 2.047571-6.370777.665894 1.569591 0 3.186814 0 3.186814s.428092.475605.665894 1.75988c.142658.665895 0 1.189012-.142776 1.569591.142776-.09514 1.37942-1.236644 1.046473-4.613747.523118 3.139182-.428092 4.2808-.428092 4.2808.04751.38046-.04751.998842-.142657 1.331789 0 0 .998841-.57075 1.236643-1.569591 0 .713407-.570749 1.379301-.570749 1.379301.05036.333185.09229.641901.09503.927097.09514-.09515.665894-.689294.998841-2.116228-.142657 1.474566-.570749 1.95017-.570749 1.95017.523236 1.189013.190289 3.519643.09514 3.900221.918664 1.248641.90144 2.288106.734076 3.643533-.03409.463608-.07709 1.009294-.126028 1.535144-.09324 1.004662-.208226 1.938292-.322613 2.098529-.09515.190289-.332948.380579-.665895.665894-.237802.19029-.475723.428092-.761039.713526-.332947.332948-.38046.523118-.428092.761039-.11023.441277-.454461.799881-.833258 1.032339-.497817.304676-1.292828.681454-1.562346 1.028061-.285434.380461-.395426.88101-.405404 1.078782h3.990139c.332947-.570749.903697-1.18913 1.379302-1.617222.380579-.332947.713526-.523118.951328-.618263.190171-.09515.380461-.190289.380461-.285434.04763-.09515.04763-.761039 0-1.522078 0-.523118 0-1.141499-.04751-1.807394 0-1.902538.332947-3.900221.428091-4.47097.04751-.428092.285316-.808552.57075-1.331789.566949-.756169.903459-1.867022.998841-2.806235.681455-.617074 1.125939-1.802761 1.341292-2.645284 1.439286-1.635872 1.348655-4.559939.656391-6.486946.436526.666606.670171 1.627081.732294 2.548714.28781-1.185924.349814-2.619034.02875-3.690332.15026.177342.238872.345775.325464.618025.660549-2.197713-.337817-4.212619-.631685-4.850956.742509 1.141855 1.575768 2.825121.781826 5.279404.07317 1.098856-.0569 2.208521-.428092 3.376984 1.664736.761039 4.423458.713526 5.469812.665895-.152041-.152042-.286503-.358011-.428091-.523237 1.09256.242791 2.225032.418708 3.329471.142776l-.618262-.618381c.613986.23804 1.350318.342687 2.045195.285434l-.190289-.475723c1.35602.229606 3.016005-.227706 4.22034-.838367-1.921544-3.290035-2.193912-7.250598-1.520772-11.056625-1.130452.503163-2.530422.551864-3.847838.30634-1.826042-.340074-3.652797-.09799-5.417904.415145-2.746012.798337-5.479077-.294343-6.180844-3.032516-.636911-2.484572-.03005-5.380844.826488-7.793077zm6.198543 36.078025c-.05737-1.878901.02055-3.889768-.338768-5.745982-.24196-1.249116-.629071-2.472575-1.168938-3.624051 0 0 .932442 1.407215 1.312903 3.071951.285434-.856184.256807-1.597505.256807-2.025597-.09515-.523237-.332947-1.379302-.903815-2.092828.376659.263103.724216.557327.870437 1.011195-.104885-1.284157-.468953-2.539925-.659123-3.205819-1.141618-.04763-2.29262-.237802-3.291461-.665894-.02067-.000238-.0133 1.681246-1.200535 3.193465.237803.523237.57075 1.331789.903697 2.14046.428092.998841.57075 1.759762.665895 2.187853 0 .415739.419302.605078.618381.903697.285315.332947.618262 1.522078 1.046354 3.662419.38046 1.902657.332947 2.996524.19029 3.377103-.09515.237803-.380579.38046-.665895.57075-.575144.344944-1.077356.822568-1.37942 1.426933-.144202.192071-.333303.523118-.618262.523118-1.189131.618381-1.664736 1.56971-1.807513 2.045314h3.567393c.63216-.691194 1.592397-2.026665 2.90138-2.092827.223548-.93363.320712-1.895055.2087-2.566413-.122464-.733838-.42239-1.287958-.508507-2.094847zm24.890264-6.563799c-.190289 0-.523237-.142657-.856184-.428091-.332947-.285316-.584053-.95121-.869368-1.807394-.325345-1.301618-.970453-2.611313-1.583133-3.778113.263104-1.46043-.06604-2.772975-.829338-3.641869.475604.285434.808552.682999.808552.682999.01069-1.105627-.238516-2.04674-.951329-2.728195.343519.209651.723979.522049 1.034714.97853.08125-2.757297-.712932-4.556851-.988745-5.223576-.254195-.214759-.455056-.367157-.696303-.537728.527157 1.251254.738827 3.051758.106192 4.333895l-.108449-.141236c.19029 1.426933-.07673 2.387408-.11605 2.413778l-.108567-.206563c.09503.903697-.406949 1.759881-.406949 1.759881l-.142657-.09515c.09502.761039-.237922 1.522078-.237922 1.522078l-.09503-.190289c-.09514.998841-.761039 2.473406-.998841 2.949011 1.378589.866399 1.909071 1.798366 2.212798 2.498351.373214.860816.561247 1.768195 1.164186 2.543369.332948.475605.903697 1.617223 1.046355 2.616064.142776.903697.142776 1.902539.04763 3.47213-.04763 1.379301-1.236644 2.806235-1.664736 3.281839-.220223.346845-.439733.709369-.463489 1.133185-1.089473.282346-1.955872.832546-2.469368 1.910971h4.312158c.618382-1.569591 1.902539-1.950169 2.33063-1.997682.19029-.856184.09515-1.712368.04763-2.568433-.04763-.428092-.09514-.856184-.09514-1.236644 0-1.093986.237802-2.853866.428091-4.138142.09419-1.131759.142658-2.240118.142658-3.376985zm-14.193075-32.376531c.0083.399585-.02031.733244-.08315 1.132591 1.55902 2.95887 1.422776 7.501348-.51896 10.390612-.390557.581202-.837179.954298-1.374313 1.257549-.88291 4.701171-.306458 9.715809 3.102003 13.36433-.481425-2.038306-1.296747-4.9461-1.296747-4.9461 1.093986 2.568551 1.617104 5.707733 2.5208 7.895706.332947.808552 1.093987 2.235485 1.189131 2.568432 0 0 .523237 3.234327.332947 4.233168-.190289.95121-1.141499 3.139182-2.092827 4.375826-.761039 1.046355-1.569591 1.759881-1.950051 2.092828-.388419.582509-.303371 1.207305-1.284276 1.331789-.09515 0-.237802.04751-.332947.04751-1.474446.428091-1.957772 1.569591-2.148062 1.950169h3.812798c.285434-.428091 1.046473-1.18913 3.139182-1.855025.142776-.475605.665894-2.758722 1.95017-5.04172.523236-.998841 1.046354-1.855025 1.426933-2.568432.618262-.998842.998841-1.712368 1.046354-1.95017 0-.142658-.04751-.332948-.142657-.618263-.142658-.475724-.332948-1.236763-.237803-2.283117.145509-1.128552.0036-2.032367-.142776-3.044037.536778-.864855 1.171313-3.160207.998841-4.138143l.259183.612918c.133512-.630497.09598-1.212413-.02126-1.80193l.353734.596526c.261559-.418708.351121-1.767483.217016-2.546696l.245048.731462c.162732-.515753.157387-1.963592-.245048-2.729145.248136.205969.411581.469904.516941.710676.528701-1.541202.128641-3.081335-.612086-4.753554l1.712249 1.331788c.665894.713407 1.077119 1.766057 1.310883 3.28184.151685.983162.129591 2.056718.639287 2.949011 0-.142657.332947-1.093986.332947-1.093986 0 .285434.19029 1.902538.38046 2.33063 0 0 .332947-.713407.332947-.713407v.76092c.04763.285434.142777 1.093986.380579 1.56971.132561-.2985.269993-.571343.428092-.856184.287216 1.421232.549131 2.991417 1.664736 4.090511-.19029-.523237-.380579-1.284276-.332947-2.092828 0-.142658-.237921-1.522078-1.093986-4.185655-.903697-2.758722-1.95017-4.803918-3.139301-6.183219-.596526-.656155-1.505092-1.345687-1.902538-2.14046-.285316-.475605-1.474447-2.568432-2.235486-3.472129-.696065-.795486-1.458886-1.580638-2.092827-2.425775-.190171-.237802-.239228-.523355-.237803-.761039.0012-.207275-.400534-1.223103-.808552-1.569591.156912-.0784.389725.104291.475605.19029.181618-.545093-.219035-1.148864-.761039-1.284276 0 0 .04763-.142658.428092 0-.276051-.828389-.230913-1.590022-1.141499-2.045196 0 0 .237802-.142658.570749.142658-.142539-.6185-.664944-1.329888-1.284157-1.569591 0 0 .09503-.04751.332948-.04751-.186133-.186132-.781826-.668033-2.587557-1.222272z" fill="#c1c1c1"/><path d="m63.737748 76.184558c-.45078-1.766175-.958812-3.578558-.958812-3.578558l-.175204-.914031s1.83994 4.243503 2.838781 6.90708c.95121 2.663577 1.854906 4.138142 1.854906 4.138142-.38046 1.189012-.142657 3.186695-.142657 3.186695.618381-1.236644 2.14034-2.187853 2.14034-2.187853.0011-.740134.164514-1.343073.19029-2.092828.04751-.856184-.09515-1.855025-.09515-2.140341.703905-1.600236 1.12-3.260458.903697-5.279641.277357.312517.49948.709131.665894 1.189131.01318-.942895-.357297-2.158039-.428092-2.140459.132205.0759.223786.14242.353972.365612.475605-2.425775-.258827-3.980399-.258827-3.980399.523237.285315.856184.665894.856184.665894.38046-2.90138-1.236644-5.374667-1.236644-5.374667l.570749.142657c-.237797-.618381-1.28427-2.092827-1.759875-2.758722-.475605-.665894-1.379302-1.664735-1.854906-2.473287-.520505-.983163-.393052-2.157565-1.240564-2.950675.17556-.0024.351239.03029.527037.09681.04763-.761039-.79311-1.542271-.79311-1.542271.15513-.03849.38735.01354.516704.07792-.09253-.821737-.459332-1.404127-.960237-1.674832l.570749-.04763c-.237802-.856065-1.284157-1.284157-1.284157-1.284157l.332947-.190289c-.402316-.134106-1.111447-.31513-1.495233-.410394.725405 1.476704 1.584558 3.709813 1.542746 5.927838-.04751 2.378143-1.236643 4.85143-1.95017 5.564956-.665894.713408-1.426814 1.189131-1.712248 1.522079-.285434.285315-.428092 2.092708-.428092 2.092708l.380579-1.331788c-.02352-.000119-.107736 1.855025-.285434 2.901498l.285434-.665894c.142657 1.093867.04751 2.473288.09503 3.329353l.190289-.95121s.285434.523237.285434.903697c.04751.38046.237803 1.95017.665895 3.234326l.04751-.998841s.313348 1.298411 1.244246 2.722374zm-29.595593-21.080199-.01057-.0012-.000475.0012.01105.000357zm-1.055976 26.258995c.01164-.06307.02138-.125197.0297-.186251.03742-.274744-.0036-.606741-.0152-.935531-.05761-.779569.23412-.998485.426428-1.404602 0 0-.04751 1.093868.04763 1.379302.142658.332947.285316.951209.285316.951209.428092-.713407.570868-2.045195.903815-2.901379.38046-.856065 1.141499-1.617104 1.141499-1.617104-1.141499 1.807393-.856183 4.042879-.856183 4.042879.142657-.523118.713526-1.379302.713526-1.379302.142657-1.426933 1.854906-3.805076 2.282998-4.66126.428092-.903697.665894-2.378262.665894-2.378262l.523237.475724c.05013.557208.130779 1.107527.04751 1.664735l.142776.475605c-.09313.269043-.09182.538797-.04763.808552l.190289-.523118.235546.57467c-.19029.618262-.04751.903697-.04751.903697.04751-.332948.19017-.57075.19017-.57075l.192547.709487c-.142658.428092-.19029 1.236644-.19029 1.236644.332947-.428092.618381-1.664735.665894-2.14034-.002.09811-.0056.193378-.01093.286741.03362-.493898.02768-1.061797-.03659-1.713675.125553.753556.166296 1.391299.155487 1.926533.128166 1.312308-.07792 2.924661-.155487 2.925017.222005-.183044.468478-.483801.651047-.75023.0053-.01936.01021-.0386.01485-.05832l-.000475.03718c.05488-.08089.103222-.1581.143132-.227468.04751.856183-.332947 1.75988-.332947 1.75988.257521-.319525.580609-.986013.710557-1.36968l.000475.000594.0024-.01069-.0012.01212.191477.273318-.38046 1.474447.285315-.428092.04763.570749c-.190289.332948-.285434.951329-.285434.951329l.332947-.618381.04763.380579-.237921.808552.285434-.332948c.237802 2.425775-.04751 2.90138-.04751 2.90138s.475605.57075.570749 1.426933c.09515.856184-.285434 3.852708-.380579 5.136865-.09514 1.284276-.951209 1.426934-1.664735 2.092828-.760921.713407-.903697 1.379302-.903697 1.379302h.380579c.38046-1.236644 1.474446-1.569591 1.474446-1.569591-.808552.523236-1.141499 1.617222-1.141499 1.617222l.57075.04751c.38046-.998841 1.331788-1.189012 1.331788-1.189012-.761039.38046-1.093986 1.236644-1.093986 1.236644.57075.237802.95121.09515 1.522078-.237802.57075-.380579.427973-1.284276.38046-2.568433-.04751-1.284276.04751-3.71005.19029-4.471089.142657-.761039-.09515-.95121-.09515-1.093987 0-.19017.09515-.332947.475605-1.236643.380579-.903697.475605-2.996525.475605-2.996525.523236 2.14046-.285316 3.472248-.285316 3.472248 1.284157-1.522078.856184-3.424616.856184-3.424616 2.045196-1.95017 1.236644-4.042998 1.236644-4.042998.190171 1.902657-.523237 2.663578-.523237 2.663578-.190289-2.235486-1.522078-3.662419-1.522078-3.662419 1.046473 2.235604.04763 4.233168.04763 4.233168s.142658-1.569591-.761039-2.806235c-.951329-1.236644-1.474446-2.758722-1.617223-3.614787-.142658-.856183 0-1.664735 0-1.664735-1.902538-.332948-1.664736-2.996525-1.664736-2.996525-.332947.332947-.76092.998842-.76092.998842-.713526-1.522078-.04763-4.613747-.04763-4.613747l-.428092.285434c-.04751-1.617223.951329-4.042998.951329-4.042998-.332947.237921-.808552.570869-.808552.570869.38046-1.95017 2.425656-4.804037 2.425656-4.804037-1.849324 1.908121-2.883444 4.214876-3.404067 5.7012-.405642 1.158367-.623251 2.404751-1.055382 3.548625-.554357 1.466488-1.817846 1.288552-2.40772-.07804-.292323-.677297-.269755-1.456866-.314892-2.179895.142658.04763.421321.24493.421321.24493-.09514-.285316-.339955-.917357-.339955-.917357.142777.04763.441752.196822.441752.196822-.09503-.332947-.38046-.95798-.38046-.95798.332947.09515.523236.196941.523236.196941-.190289-.475605-.428091-.856183-.428091-.856183.224261.0071.523236.188982.523236.188982-.142776-.428092-.475723-.997534-.475723-.997534.190289.04763.570749.332947.570749.332947-.285315-1.331789-1.141499-2.378143-1.141499-2.378143.57075.237802 1.046473.856065 1.046473.856065.04751-.237803-.04763-.760921-.04763-.760921.19029.142658.523237.38046.523237.38046-.142658-.38046-.951328-1.331788-.951328-1.331788.285434.142658.80867.428092.80867.428092-.190289-.428092-.475723-.523237-.475723-.523237.190289-.998841-.713408-1.664736-.713408-1.664736.618263.09515 1.1415.475605 1.1415.475605-.142658-.285315-.523237-.618262-.523237-.618262.04763-.998842-.76092-1.379302-.76092-1.379302.76092.04751 1.284157.332947 1.284157.332947-.523237-.570868-1.093987-.761039-1.093987-.761039l-.761039.475605-.237802.19029c-.618263.903696-2.473288 2.5208-4.042879 3.947734-1.617223 1.522078-2.378262 3.519761-2.90138 5.232009-.523236 1.712368-.190289 4.375945-.190289 4.375945l.428092-1.236644c.332947 1.141499.09514 2.187854-.04763 2.90138-.09503.713407-.04751 1.712248-.04751 1.712248.428092-1.284275 1.236644-2.33063 1.236644-2.33063.04763.665895-.285315 1.046355-.332947 2.568433-.04751 1.522078.570749 2.711209.570749 2.711209.285435-1.855025 1.236644-2.901499 1.236644-2.901499-.76092 3.139301 1.189131 5.041839 2.52092 6.183339 1.331788 1.141499 1.37942 1.712248 1.37942 1.712248.150379-.112724.241485-.285434.32-.470022zm7.763026-2.064558c.08944-.119851.172828-.252175.242078-.397208l-.0017-.0012c-.06842.14242-.150853.275456-.240415.398515zm-3.246918 17.374544h2.953644c.145627-.267023.633348-.874714.908329-1.067973 0 0-1.553436-.274863-2.373629-.08137-.901796.212858-1.38726.507676-1.488344 1.149339zm13.999103-16.932673s-.09514-.808671-.285315-1.189131c0 0-1.95017-.09515-2.425775-.237802 0 0-.09515 1.379301-.380579 2.092827 0 0 .332947 1.759762.523237 2.473288.237802.713407 1.141499 2.71109 1.522078 3.567274.38046.856184.761039 2.949011.808552 4.470971.04751 1.474446 0 2.14034 0 2.14034l.09515.380579s-.761039.09515-1.426934.57075c-.665894.523236-.970571 1.052412-.970571 1.052412l.565286-.02886s.88089-1.071061 1.641929-1.261351c0 0-.966651.831596-1.156822 1.259688l.823875.09324s.285434-.306577.428092-.401722c.190289-.09503.57075-.142658.665894-.237803.09514-.04751.428092-.951209.332947-1.75988-.04751-.808552-.475604-1.759762-.618381-2.140341-.09503-.428091-.04751-1.664735-.142658-2.71109-.142657-1.046473-.285315-2.235485-.237802-2.996524.04751-.713526-.04751-1.95017-.332947-2.711209-.285434-.76092-.998842-1.759762-.998842-1.759762l.285435-.09515s.951209.713408 1.284156 1.474447c0 0-.04751-1.522078-1.426933-3.044038h.380579s.57075.285316 1.046354.998842zm-4.752841 16.932673h2.360207c.266073-.434625 1.18141-1.162999 1.222746-1.138173 0 0-.703667-.119971-1.475871-.06878-.856778.0569-1.681247.260965-2.107082 1.206948zm13.599757-23.020867c-.761039.713408-2.425775.761039-2.425775.761039l.04751.237803c-.665894.38046-1.759881.142658-1.759881.142658l.04763.190289c-.475605.523237-2.235485.428092-2.235485.428092-.618381.523118-2.045315.09515-2.045315.09515l.04763.285315c-1.425627.689888-2.984409-.310141-3.387081-.63513-.02922.218085-.06664.437476-.112962.658768 1.033407.360742 2.263399.451967 2.263399.451967l2.187854.808671-.899421-.781826 1.601306-.07436 2.151981.475605-.960593-.618263 1.015233-.09515 1.657609.428092-.63121-.57657.731225-.138975 1.316822.252769-.743578-.481663.759495-.191358 1.230823.232101-.686681-.401366c.761039-.285316 1.400207-.407305 1.400207-.407305zm-12.604479-3.995365s.523237.951209.428092 2.045195c0 0-.475605-.761039-.713407-1.141499 0 0 .19017-.618381.285315-.903696zm-.428092 1.379301c.0259-.01283.7785 1.085434.713526 1.902538 0 0-.332947-.618262-.665894-1.046354 0 0 .285315.906904.38046 1.477653 0 0-.618263-1.097193-1.141499-1.239851.08208-.000118.711388 1.236525.618381 1.95017-.213333-.737639-.667795-1.760237-1.056926-2.322553.33853.193972.988745.07246 1.151952-.721603zm-.285315 5.327155s-.808552-2.520801-1.95017-3.044038c0 0 1.426933 3.186814 1.141618 4.994208 0 0-.808671-1.807394-1.522078-2.235486 0 0 .998841 1.902538.713407 3.567274 0 0-1.093986-2.758722-2.520801-3.71005 0 0 .523118.998841.76092 1.95017.237922.951328.332948 1.807393.285435 2.187972 0 0-.475605-1.474565-1.189131-2.425775-.713408-.998841-1.331789-2.758722-.95121-4.185655 0 0 1.379302-.142658 1.664736-1.569591.06497.259302.382123 1.094105 1.170125.856184.676823-.204544.827558-.713526.970215-1.093986-.04062 0 1.505805 1.474327 1.426934 4.708773zm23.689492 20.309776h3.096658c.142658-.50245.437238-.818886.800832-1.189131-1.573511-.255026-3.010541.0702-3.89749 1.189131zm4.943963-13.127597s.713407.713408.808552.903697c.04751.142658-.237803 2.140341-.285434 2.473288l-.998842-.761039s.475724 1.284275.57075 2.616064c.09514 1.331789.190289 2.90138.190289 3.709932.04763.761039.142658 2.092827-.523236 2.33063-.665895.237802-1.807394-.04751-1.807394-.04751s1.284276-1.902539 1.331789-3.709932c.09514-1.807512-.09515-4.375945-.475605-5.660102 0 0 .713407.142658 1.093986.523118 0 0 .285315-1.093986.09515-2.378143zm-3.091669-8.371192s.237802.856065.38046 1.189013c.190289.380579.237802 1.331788.618381 2.378261.38046 1.046355 1.284157 3.329472 1.236644 3.900222 0 .618262-.523237 1.950051-.523237 1.950051s-.665894-.761039-1.046354-1.712249c-.380579-.903697-1.093986-2.092828-1.331789-2.473288-.285434-.380579-.285434-1.617223-.04763-2.473406.237802-.903697.713526-2.758604.713526-2.758604zm-13.112868-9.752156c-.887542-.146459-1.995188-.110824-2.868596-.0936-1.902657.03765-4.803917 1.236644-7.419982.856183-2.71109-.380579-4.708773-2.378261-4.66126-4.804036 0-1.455798.233526-2.397742.457194-3.133837.173541-1.372769.547824-2.739004.987676-3.977786-.03433-.166058-.06331-.339005-.08671-.515872-.214997.102865-.429637.286978-.644633.588092-.951328 1.236644-.761039 1.902538-.761039 1.902538s-.475723.285434-.523236.903697c0 0-1.236644 0-2.663578 2.092827-1.426933 1.997683-1.664735 3.472129-1.664735 3.472129l.903696-.332947s-1.141499 1.95017-1.284156 3.757564l.761039-.38046s-.856184 2.520919-.618382 4.518483c0 0 .713408-.808552.903697-.903697 0 0-.428092 3.139301 1.093986 3.234327 1.569591.142777 1.997683-1.379301 2.140341-1.902538.07234.417283.419064 1.68184 1.074862 1.359346.725523-.356703.732531-1.311714.732531-1.311714s.428092.856065 1.046473.618262c.618263-.285315 1.379302-1.75988.998842-4.328313.550913.663519 1.060727 1.647988 1.35994 2.696599.335085.974372.455174 2.182984-.02815 3.677029.02067.310497.02494.62147.01223.934818.324157.418233 1.071061 1.246978 2.318396 1.15801 0 0-.665895-.285435-.951329-.618382 0 0 .856184.04751 1.236644-.04751 0 0 .856184.427973 1.664736.332947l-.998842-.428091.761039-.19029s1.426934.618381 2.378262.332947l-1.712367-.570749 1.331788-.332947s1.189131.665894 2.283117.570749c0 0-1.37942-.523236-1.807512-.761039l1.093986-.285315s1.426934.570749 2.378262.19017l-1.902538-.428091.713407-.427974s1.474446.142658 2.092828-.142776l-1.569591-.09515.38046-.427973s.856184 0 1.474446-.332947l-1.189012-.04763s.237802-.428092.285315-.665894c0 0 .57075-.04751.951329-.19029l-.856182-.142657c.276644-1.791002.384024-3.569769.395308-5.376212zm17.155746 10.750998c-.14824-.80974-.183875-1.604157-.000593-2.47994-.440208.268211-.541292.683356-.665301.957862-.169265-.932323-.264053-1.851106-.217015-2.788536-.32487.3238-.484989.804513-.591537 1.218945 0 0-.142658-1.189131-.332947-1.997683-.190289-.808671-.380579-1.664736-.998841-3.091669 0 0 2.758721 4.138023 3.376984 7.182179 0 0-.332947.523118-.57075.998842zm-9.370033 13.412912c-1.617223 2.378262-2.711209 4.375945-2.711209 4.375945s.951329-.951329 1.331789-1.474565c0 0-.38046.998841-.427973 1.284275-.09514.285316.09503.95121-.332947 1.093986-.475724.190171-1.331789-.190289-1.759881-.618381 0 0 1.379302-1.141499 2.140341-2.615945.713407-1.474565 1.902538-3.757564 1.902538-3.757564v.903697s.903697-1.426933 1.046473-1.997683c.142658-.57075-.04763-1.093986-.523236-.713407-.475605.332947-.428092-.332947-.09515-.665895.665894-.665894 1.617104-.80867 1.617104-.80867s.237921.618381.332947.80867c0 0-.903697 1.759762-2.520801 4.185537zm-5.041839 7.087035h-2.434564s.189695-.789309 1.38821-1.085196c1.228091-.302896 2.031179-.08671 2.378143.03884-.432487.121871-1.200653.746192-1.331789 1.046355zm15.268056-20.547579s.38046 1.093986.428092 1.997683c0 0-.428092-.665894-.428092-1.997683zm-44.363812-21.151943c.377847-.399347.605196-.928879.605078-1.488463l-.181619.190289c-.06212.24885-.213808.46147-.409561.631091-.01283.02043-.0272.0348-.0272.0348l.0013-.01283-.02898.0234c-.336867.423935-.828389.465033-.828389.465033.523118.09514.808552-.09502.808552-.09502-.475604.523117-1.236644.475604-1.236644.475604-.120564.150141-.265835.29173-.428091.428092.720653-.06782 1.331907-.341499 1.725552-.651996zm.328909-2.225508-.0093-.07151-.146102.146102c-.08612.545924-.277594 1.105271-.709962 1.471121.612917-.35029.846562-.933868.86533-1.545716zm-.532383.356585v-.808552c-.07056.05797-.131374.113081-.191002.165464-.02423.652947-.125316 1.07118-.141945 1.07118.09514-.09514.237802-.237803.332947-.428092zm-3.424617 2.616064c.321901-.01984.600327-.141589.852621-.313348-.344944.14539-.740252.218203-1.280712.218203 0 0 .475604-.142776.856183-.332947.428092-.190289.665895-.475724.95121-.570749 0 0-.237802-.09515-1.046354.237802-.761039.332947-.856184.523118-.856184.523118-.101559-.134937-.222836-.243742-.32879-.32297.27118-.279257.699391-.4604 1.048255-.566117.580015-.304677 1.313852-.330809 1.944112-.204781-.323326.768998-.909636 1.060609-1.284157 1.284157 0 0 .475605-.04751.998842-.475605.570749-.428091.665894-.951328.998841-1.189131 0 0-.380579.04763-.856184 0-.428092 0-1.284275 0-1.75988.19029-.475605.142658-.951329.523237-.951329.523237.05915-.206919.172235-.359317.312042-.474536.06331-.103103.191002-.26631.353853-.42928.332947-.285315.951328-.618263.713526-2.140341 0 0-.26536.619807-.583103 1.005256-.0664.715427-.473705 1.38726-1.03412 1.848611-.102034.07768-.212383.139451-.332947.19029l-.190171-.237922c.703311-.790497.801425-2.209115.291849-3.202018-.08279-.144201-.186489-.309665-.296125-.46242.03148.274388.0043.548775-.03944.822925.129948.217372.255026.498411.329028.84383.17853.821619-.232814 1.348181-.448879 1.559376-.0095.02186-.01853.04122-.02673.05785-.142658.237803-.285435.428092-.380579.57075 0 0-.190171.998841-.998842 1.284275-.76092.237803-1.664617.04751-2.378143.332948-.665894.285315-3.472129 1.712248-3.614787 2.282998-.190289.570749.332948.570749.57075.523236.285315-.09514.808552-.475604 1.284157-.761039.45945-.229725 1.096362-.54818 1.396406-.484038l.07816-.0392c.04751 0 .142658.190289.190171.237802.04763.09514.285434.285434.142776.380579-.130542.130423-.380104.02209-.567424.0024-.102984.012-.267379.0645-.431417.187676-.423579.211789-1.337966.838723-1.499035 1.073912-.05108.0746-.0086.203237.01509.283415.03278.111537.06759.211195.15216.212264.09503.0012.374165-.134937.665894-.285434.283296-.146102.864499-.455887 1.236644-.579777.305865-.101915.859272-.09063.976629-.05333.01604.0048.02875.01485.02851.03314-.0019.07554-.205612.307171-.29173.695115-.09514.38046-.38046 1.522078-.428091 2.806235 0 0 .285434-1.331789.523236-2.235486.237803-.856184.428092-1.284157 1.046355-1.426933 0 0-.380461.808671-.523118 1.331788-.142777.57075-.19029 1.284276-.19029 1.284276s.618382-2.045315.951329-2.711209l.38046-.09503s-.523237.95121-.808552 1.902538c-.285434.998842-.285434 1.379302-.428092 2.187854 0 0 .38046-1.189012.713407-2.378143.285434-1.141499.761039-1.807394.761039-1.807394l.04751.190171s-.09503.237921-.237802 1.093986c-.09514.903697-.237803 1.902539-.57075 3.044156 0 0 .57075-.998841.665895-1.950169.09514-.95121.237802-2.092828.237802-2.092828s.09514.09515.237802.237802c.09515.19029.19029.570869.19029.856184.04502.359792-.03742.8468-.207394 1.341172-.01129.10833-.02376.202643-.0354.27807.241841-.27605.604483-.986725.290423-2.332649.427973.285315 1.046354.570749 1.664735.665894l-.000831.000594c.138975-.01663.263341-.04633.362405-.08754-.979955-.138381-1.781974-.634179-2.597178-1.292471l.475724-.190171s1.379302 1.331789 2.520801.856065c0 0-.618263.237802-2.425656-.903697 0 0 .427973-.190289.713407-.38046 0 0 1.1434.787053 2.065389.611255.07364-.01366.150497-.03338.218441-.06462 0 0-.278783-.0095-.604484-.13173-.340906-.05797-.881603-.202643-1.584201-.510052 0 0 .237802-.190289.38046-.38046.776956.388419 1.647631.699391 2.525789.655204.313942-.143251.470735-.322375.470735-.322375s-.405761.162138-1.01357.01734c-.645583-.06486-1.286058-.283652-1.887809-.492947l.237802-.285316c.0101.01342 2.869546 1.047068 3.661468-.480712-.32285-.01663-.66233-.07768-.975322-.187795-.382836-.03516-1.564721-.323445-2.399405-.04906.09514-.332947.141351-.804514.141351-.804514.174135 0 .349577-.03421.523236-.04751zm2.194387.750943c1.28974-.01473 2.136421-.637506 2.20282-1.970957-.0569.188626-.143727.414669-.203474.5268-.872338 1.636228-3.337549 1.168819-3.337549 1.168819.562673.160831.989814.247186 1.338203.275338zm-10.518065.390556c.251462-.143727.584528-.260252.814372-.288285.19219-.09503.570037-.236377 1.088166-.377609.380579-.09515 1.095887-.32879 1.807393-.618381.69072-.281158 1.590853-.576095 2.089027-.963207.95311-.740371 1.169413-2.156852.431893-3.127304 0 0 .09515.951328-.38046 1.664736-.222955.334372-.532977.668982-.930186 1.003355-.539747.455055-1.270259.905478-1.923681 1.232249-1.141499.570749-1.855025.713407-2.853867 1.379301-.04751.04751-.09514.04751-.142657.09514zm10.937842-5.274534c-.06521.173541-.116882.271299-.187082.360505.04276 1.16775-.144083 1.774847-.144083 1.774847.370957-.649027.369176-1.490244.331165-2.135352zm-.66435.255976c-.03908-.185181-.100846-.368225-.189933-.546399-.01544.05143-.03017.100134-.04549.145984.158456 1.248641-.315605 2.184528-.335085 2.184646.500193-.545567.565761-1.264795.570512-1.784231z" fill="#fff"/><path d="m54.12231 47.392885c-.09123-.243029.176748-.530126.426666-.452086-.03682-.595812-.08244-1.191387-.136718-1.786131-1.218114-.33271-2.374223-.535352-3.43792-.544142-1.545597-.01235-4.135173.607215-4.555069 2.489917-.119257.535827-.02471 1.100994.232458 1.647987 2.330867-.859153 4.966412-1.266339 7.470583-1.355545zm1.110734 9.626366c-.0721.09158-.209175.181856-.334491.176036-.08232-.0036-.202168-.07899-.261796-.127335-1.213244.651046-2.553229 1.039821-3.929442 1.036852-1.929264-.0048-3.399672-.752487-4.21345-2.534817-.109399-.239466-.23614-.580253-.313942-.838486-.73657 2.226696-1.237713 4.931609-.700698 7.171252.621945 2.593496 3.208908 3.710169 5.838157 2.945567 1.814164-.527513 3.692233-.795843 5.568995-.446147 1.994832.371789 4.024586.1132 5.246739-1.651076 1.827349-2.638752 1.919643-7.082046.665775-9.722342-.03148.134462-.101559.370245-.140638.503163-.69856 2.368996-1.991744 3.818617-4.873287 3.840354-.765078.0059-1.600474-.09598-2.551922-.353021zm-.607097-8.522758c-.257282.171047-.575263-.117832-.516228-.377966-2.522701.08184-4.975915.450186-7.362967 1.354714h-.000118c-.687275 1.667349-.841217 4.150852-.0095 5.971549.759495 1.664379 2.187735 2.37743 3.990496 2.376717 1.321692-.000831 2.652174-.379034 3.816123-1.007156v-.0095c.129948-2.766562.18827-5.540132.08279-8.308119zm1.182598-.396258c.07115.238871-.18922.512308-.43415.433674.102035 2.732234.04644 5.469812-.08018 8.200145.936719.253126 1.775798.362762 2.51997.353734 1.48181-.01782 2.924067-.560296 3.752099-1.82034v-.0012l.0012-.0024.000594.000357c.321663-.489859.63121-1.135679.840029-1.872368.414907-1.465656.347557-3.022775-.3219-4.38319-.602108-.205969-1.233912-.354447-1.862746-.492354-1.471833-.323206-2.924305-.406473-4.415262-.416094zm-.509814-1.12392c.261559-.168433.588448.135531.507795.399466 1.522078.0177 3.070526.123058 4.557919.408611.551864.105954 1.106221.258827 1.64193.432725.193972-1.221321-.04549-2.137015-.748686-2.711091-.954773-.7785-2.877979-.932442-3.923621-.885404-.75902.03433-1.48775.187676-2.177401.480831.05702.624083.104291 1.249473.142064 1.874862z" fill="#e08600"/><path d="m46.68653 49.258957c.620994-.234001 1.357445-.468715 2.004453-.639999 1.857164-.491879 3.693421-.682287 5.591208-.729325l.168315-.15216-.138857-.125553c-1.903013.05963-3.848194.319287-5.677206.804157-.65366.173304-1.406503.356941-2.032368.592131-.05987.02245-.126028.09087-.09657.173422.02886.0816.122109.09966.181025.07733zm8.938378-1.382865c1.567571.0048 3.099033.08125 4.643799.407068.580252.122108 1.272397.304439 1.857163.502806.08968.02934.154298-.02209.170809-.08956.01651-.06735-.0152-.150141-.117238-.184232-.589874-.197891-1.280593-.367156-1.859064-.488908-1.524335-.321188-3.130748-.415383-4.695351-.424648l-.153466.138738.153348.138738zm-.560891 8.965936.0012-.01782h.000119c.132561-2.827022.188864-5.644185.07519-8.462773l-.179599-.162375-.120921.109398c.116645 2.833674.0601 5.666041-.07329 8.507792h-.000238l-.000119.01663c.0059.08909.07471.136363.145152.138738.07032.0024.141945-.03991.152398-.129591zm.01794-9.675542c-.0392-.676585-.08873-1.353288-.150378-2.030229-.01853-.205613-.315843-.182688-.297669.01746.05939.653184.108092 1.306131.146577 1.95896l.18055.163207.12092-.109399zm-.563266 1.13069.275456-.248968-.176748-.159881-.258827.234001c-.132205.119495.04122.282346.160119.174848zm.785983-.710675.257045-.232339c.09871-.08932-.06521-.260846-.160118-.174848l-.273675.247424zm.221054.501737-.981024-.887186c-.12484-.112369-.285315.06105-.183637.15311l-.000238.000238.01924.01734.980905.886948c.150616.135888.318575-.03183.164751-.170452zm-.08267-2.377787c.01722.394358-.02791.796792.03896 1.197921l.0048.02114c.140994.01307.268923.125078.314179.259896 1.599643.03813 3.34432.232576 5.051698.556496 1.011076.191714.977936-.650572.778857-1.375026-.06355-.108923-.139926-.207631-.23222-.295887-1.421469-1.358039-4.960473-.816985-5.956107-.364543zm.260965 3.784883c-.01425 1.626369.0083 3.251551.349814 4.868892.224855 1.063816.115219 1.720564 1.500103 1.781737 3.418321.151566 5.122849-2.542895 4.60769-5.891728-.219035-.549369-.607573-.989814-1.149102-1.162048-1.231298-.391745-2.402018-.663757-3.624646-.731106-1.422657-.07851-1.673763-.165227-1.683859 1.134253zm-8.575498-1.07308c-.990051-2.724988 3.349071-4.084572 7.180873-2.884632.04193.464677.0797.928998.111774 1.393675-.140519.01995-.265241.136243-.304558.272724-2.504884.09776-4.843947.53072-6.988089 1.218233zm7.308564.124959c.08802 2.019776.127454 4.076494-.104766 6.027852-.09419.797386.03207 1.618648-.879109 1.886859-1.585507.466458-4.295766.509695-5.228683-.581678-.740728-.866636-1.096243-2.476851-1.08876-4.47976.0036-.84585-.03421-1.556169.938619-1.88876 2.010392-.687512 3.982418-1.130571 6.037592-1.252323.03647.147528.173422.275457.325107.28781zm-8.210954 7.579863c1.345092 2.264706 3.823488 2.777965 7.072781 2.073585 1.31504-.285197 2.831536-.237684 4.411223-.172947 1.936985.07946 3.580934-.740609 4.92864-2.344765.31216 6.154355-2.201039 8.794057-7.442195 7.503961-.880653-.216659-1.609264-.2966-2.415322.148122-2.610125 1.440237-5.178082 2.400711-6.43195-.790022-.723978-2.220163-.519791-4.33057-.123177-6.417934z" fill="#fecc00"/></g><path d="m26.773249 54.38917-.176986.128998-.393882-.176629c1.522078-1.1415 1.474565-2.282999 1.474565-2.282999.285315 1.093868-.380579 1.902539-.903697 2.33063zm1.927839 2.758604.181737-.427974c.912962-.224736 1.882939.394477 2.739479.346132-.64867.573957-2.126561-.06283-2.921216.08184zm4.255381-.190171-.03623-.229131.274031.03884c-.04751 1.807394-1.426814 3.139182-1.426814 3.139182.76092-.142657 1.236643.09515 1.236643.09515-1.855025 1.046355-2.473406 2.90138-2.473406 2.90138 1.855025-.523237 1.902657 0 1.902657 0-1.189131.332947-1.759881 1.522078-1.759881 1.522078.903697-.142658 1.52196.285315 1.52196.285315-1.712249.856184-1.997683 2.52092-1.997683 2.52092.903815-.57075 2.045314-.856184 2.045314-.856184-3.234326 3.139301-.998841 5.850391-.998841 5.850391-2.33063-1.75988-.665894-4.708773-.665894-4.708773-.475605.285315-1.284276.95121-1.284276.95121.142777-2.425775 1.902538-3.662419 1.902538-3.662419-.856065.04763-1.664736.761039-1.664736.761039.428092-1.474446 1.712368-2.520919 1.712368-2.520919-1.189131.237921-1.902538 1.093986-1.902538 1.093986.665894-2.568433 2.663577-3.947734 2.663577-3.947734-1.046473.04751-2.33063 1.236644-2.33063 1.236644.475605-1.189131 1.712249-2.187973 2.568432-2.949012.856184-.76092.713408-1.521959.713408-1.521959zm4.094192 9.677204.237803-.713526s1.042791 2.594327.995159 4.687036c-.04751 2.092828-.903697 3.805195-.903697 3.805195-.04751-.713526-.38046-1.522078-.38046-1.522078-.237802 1.236644-.665894 1.95017-.665894 1.95017l-.237802-.285434c-.04763 1.664736-1.236763 3.186814-1.236763 3.186814l-.190171-.380579-.523236.903697-.428092-.808552c-.04965 1.123919-.908805 1.495114-1.046355 2.378262-.190289-1.046474.475605-1.426934.665895-2.33063.19017-.903816-.237803-2.045315-.237803-2.045315.475605.618381 1.069517 2.036287 1.069517 2.036287.475724-.761039.02435-2.226577.02435-2.226577.523236.570869.774699 1.445464.774699 1.445464 1.093986-1.379302.79501-3.680949.79501-3.680949.269993.419302.400654.711269.507795.940994.618382-.951209.443415-2.98619.443415-2.98619.237803.95121.618381 1.617104.618381 1.617104.808552-2.568432-.281752-5.971193-.281752-5.971193zm23.254987 28.659231c-.903697.142658-1.617104.475605-2.187854 1.807394h.532858c.570869-1.189131 1.131878-1.617223 1.654996-1.807394zm-13.036609-.08148c-.925672.150497-1.955872.986488-2.183815 1.888878h.732294c.285315-.998842.928403-1.555931 1.451521-1.888878zm-9.673998.241365c.269043-.153585.600802-.295412.878872-.445315-1.47409.06699-2.364959.88778-2.616065 2.092828h.74833c.04751-.618382.379153-1.299361.988863-1.647513zm33.850498-.142895c-1.466012.392695-1.960028 1.219658-2.197831 1.790408h.376897c.142776-.285434.679435-1.314803 1.820934-1.790408zm-2.150318-11.574995c.324989.09906.57562-.151092.238396-.45565-.193734-.174966-.351002-.290779-.428567-.543192-.190289-.618381-.332947-.761039-.380578-1.37942 0-.618263.09514-1.569591-.57075-2.520801 0 0 1.141499-1.236763.998841-3.852708l.761039.332947s0-1.189131-.142657-1.855025c0 0 .38046.190289.618262.475605 0 0 .04763-.856065-.285315-1.712249l.38046.332947c-.04751-.285434.04751-1.331788-.38046-2.568432l.475605.237802s-.285434-1.712249-.713526-2.71109c0 0 .618381.332947.761039.57075 0 0 .142776-1.569591-.95121-3.614906-1.046473-2.045196-2.806235-2.806235-2.806235-2.806235s2.092709 1.141499 2.90138 5.184497c0 0-.665895-.523237-1.95017-.951329 0 0 1.426933.665895 1.617223 2.949012 0 0-.761039-.713526-1.569591-1.141618 0 0 1.521959 1.236762 1.569591 3.377103 0 0-.665895-.713526-1.379421-1.236644 0 0 1.141499 1.141499 1.189131 2.806235 0 0-.713407-.665894-1.141499-1.236644 0 0 .856065 1.617104.903697 2.90138 0 0-.475605-.475605-1.093986-1.236644l.193021.742509c.799287 1.038277.145152 3.352278-.478456 4.346843l-.76092-.428092s.618263.618263.95121 1.141499c.332947.523237.523236 1.331789.618381 1.950051.04751.618382.04751 1.141618.142658 1.426934.09515.285434.242791.719821-.332947 1.189131-.568255.463251-.864974 1.094461-.903697 1.522078.499361-.682405 1.032457-1.300074 1.950051-1.236644zm-9.890538-18.420186.916763.260253c-.82138.744528-1.681246 1.638128-2.822033 1.845522-1.046354.237803-.976154-.182925-.856184-.808552 0 0-.475604.665895-1.474446 1.236644-.998841.523118-1.236644.523118-1.141499.237803.09514-.285435.09514-.665895.09514-.665895s-2.283117 1.950051-4.85155.523237c.000238.06272 2.948655.736807 4.994207-1.331789 0 0 .601633-.05357 1.172383-.481662 0 0-.544736.927334-.782539 1.498084.690126-.08612 1.949814-1.302925 2.519376-1.773779-.168315.310735-.272368.600921-.230438.978055.02803.251938.244098.381886.888492-.03053 1.284276-.903697 1.572323-1.487394 1.572323-1.487394z" fill="#cdc9c6"/><path d="m26.87077 54.920247c.06557.106547.103934.231269.103934.365256 0 .387705-.313704.701291-.701291.701291-.351834 0-.643801-.260252-.693096-.599614-.218916.08315-.437238.16879-.655204.254195-.031-.268211.02649-.515754.300045-.668508.03742-.169859.14824-.292561.308359-.358248.09158-.172709.258114-.243504.442108-.234476.152873-.08386.322851-.08897.479644-.01188.116407-.03872.229131-.0335.338292.01615l.000238-.000356c.02304.01069.0468.02376.0702.03896l.000832.000357c.01176.0071.02388.01639.03575.02542.121277-.01247.222598.01354.303727.07982l.000119-.000238c.01841.01485.03575.03207.05191.0512l.000357.000712c.04288.05203.07329.115576.105954.173898-.164158.0544-.328434.109636-.491878.16582z" fill-rule="nonzero"/><path d="m26.100703 55.194515c.02388.02197.0392.05262.0392.08731 0 .06604-.05357.119614-.119614.119614-.06581 0-.119376-.05357-.119376-.119614l.000594-.0139-.131255.04846c.03908.136243.164989.236021.313111.236021.180074 0 .326414-.146221.326414-.326414 0-.04775-.01093-.09265-.02958-.133749l-.279495.102271z" fill="#fff" fill-rule="nonzero"/><path d="m25.153176 55.331115c.613511-.23804 1.231298-.465152 1.854906-.675278-.05666-.01271-.113556-.000594-.169146.0095-.128641-.113081-.217016-.149429-.399109-.0702-.153823-.09134-.261203-.102628-.416214-.0059-.164751-.01497-.265597.01449-.340311.188745-.181619.06022-.247305.140164-.271062.327721-.107142.0544-.208582.104885-.259064.22533z" fill="#c1c1c1" fill-rule="nonzero"/></g></svg>