<svg height="250" viewBox="0 0 400 250" width="400" xmlns="http://www.w3.org/2000/svg"><g fill-rule="evenodd"><path d="m188.701 17.625-.076 5.75-5.469.125-5.469.125 5.549 5.356 5.548 5.356-5.572 5.576-5.573 5.577 5.493.067 5.493.068.067 5.618.068 5.618 5.62-5.616 5.62-5.616 5.62 5.616 5.62 5.616.068-5.618.067-5.618 5.493-.068 5.493-.067-5.573-5.577-5.572-5.576 5.548-5.356 5.549-5.356-5.469-.125-5.469-.125-.075-5.75-.075-5.75-5.611 5.75-5.611 5.75-5.613-5.75-5.613-5.75zm14.174 8.255 2.875-2.681v2.65 2.651h2.75c3.343 0 3.343-.208 0 3.125l-2.75 2.742 2.808 2.816 2.809 2.817h-2.809-2.808v2.75c0 3.336.216 3.331-3.058.067l-2.692-2.683-2.692 2.683c-3.274 3.264-3.058 3.269-3.058-.067v-2.75h-2.808-2.809l2.809-2.817 2.808-2.816-2.75-2.742c-3.343-3.333-3.343-3.125 0-3.125h2.75v-2.651-2.65l2.875 2.681 2.875 2.682zm-70.864 17.058-.011 5.812-5.562.01-5.563.011 5.577 5.41 5.577 5.411-5.7 5.704-5.7 5.704h5.686 5.685v5.685 5.686l5.706-5.702 5.705-5.701 5.41 5.578 5.41 5.579.009-5.562.01-5.563 5.813-.01 5.812-.01-5.821-5.677-5.821-5.678 5.742-5.375 5.742-5.375-5.729-.067-5.729-.067-.067-5.726-.067-5.726-5.375 5.739-5.375 5.739-5.677-5.821-5.677-5.821zm130.269.036-5.594 5.786-5.531-5.671-5.53-5.671-.125 5.604-.125 5.603-5.595.067-5.595.068 5.595 5.475 5.595 5.476-5.623 5.644-5.623 5.645h5.686 5.685v5.56 5.561l5.64-5.623 5.64-5.623 5.61 5.693 5.61 5.692v-5.63-5.63h5.685 5.686l-5.7-5.704-5.7-5.704 5.577-5.411 5.577-5.41-5.558-.011-5.558-.01-.067-5.781-.067-5.781zm-121.78 8.276c3.232 3.004 2.513 3.007 5.712-.025l2.663-2.525.071 2.642.071 2.641 2.641.071 2.642.071-2.525 2.663c-3.032 3.199-3.029 2.48-.025 5.712 3.034 3.265 3.045 3-.125 3h-2.625v2.808 2.809l-2.812-2.792-2.813-2.791-2.875 2.781-2.875 2.781-.071-2.798-.07-2.798h-2.801-2.8l2.867-2.875 2.867-2.875-2.867-2.875-2.867-2.875h2.809 2.808v-2.625c0-3.17-.265-3.159 3-.125m114.616 1.23c1.569 1.607 1.249 1.696 4.396-1.23 3.261-3.032 2.988-3.044 2.988.125v2.625h2.808 2.809l-2.867 2.875-2.867 2.875 2.867 2.875 2.867 2.875h-2.809-2.808v2.808 2.809l-2.875-2.867-2.875-2.867-2.875 2.867-2.875 2.867v-2.809-2.808h-2.75c-3.335 0-3.327.191-.125-3 1.444-1.439 2.625-2.729 2.625-2.866 0-.138-1.207-1.462-2.683-2.942l-2.683-2.692h2.808 2.808v-2.65-2.649l1.438 1.254c.79.69 1.995 1.826 2.678 2.525m-80.834 7.491-8.282 8.471v5.427 5.428l15.5 15.64 15.5 15.64v44.712 44.711h-98.5-98.5v25 25h200 200v-25-25h-98.5-98.5v-44.706-44.707l15.5-15.646 15.5-15.646-.009-5.46-.009-5.46-8.325-8.491-8.326-8.491-7.915 7.596-7.916 7.596v4.411 4.411l5.754 5.439 5.753 5.439 5.613-5.455 5.612-5.455-3.476-3.484-3.476-3.483-1.952 1.845c-2.424 2.291-2.352 1.985-.862 3.656l1.257 1.411-1.274 1.465c-1.59 1.828-1.151 1.978-4.413-1.508l-2.782-2.972 4.993-4.802 4.993-4.802 1.943 1.773c1.068.975 3.967 3.799 6.441 6.275l4.499 4.502-14.998 14.999c-8.249 8.25-15.068 15-15.153 15s-6.803-6.733-14.929-14.963l-14.775-14.962 6.205-6.35 6.204-6.35 5.034 4.84 5.035 4.84-2.782 2.972c-3.262 3.486-2.823 3.336-4.413 1.508l-1.274-1.465 1.257-1.411c1.497-1.68 1.56-1.414-.865-3.672l-1.957-1.822-3.468 3.48-3.469 3.48 5.608 5.455 5.607 5.455 5.755-5.432 5.755-5.433v-4.418-4.417l-7.86-7.543c-4.323-4.148-7.908-7.542-7.968-7.542-.059 0-3.835 3.812-8.39 8.471m-31.096 30.968-8.436 8.439 7.814 7.811 7.814 7.811h4.125 4.126l5.821-5.825 5.821-5.825-5.785-5.462-5.786-5.461-3.462 3.474-3.462 3.474 2.129 1.974 2.13 1.974 1.342-1.325 1.341-1.325 1.519 1.316 1.519 1.315-2.781 2.973c-1.53 1.635-2.854 2.973-2.943 2.973s-2.399-2.24-5.134-4.977l-4.972-4.976 6.35-6.511 6.349-6.511 17.188 17.174 17.187 17.175v-4.125-4.126l-14.938-14.936-14.939-14.937h-5.75-5.751zm78.751 6.499-14.937 14.939v4.123 4.124l17.188-17.176 17.187-17.175 6.353 6.508 6.354 6.507-4.976 4.981c-2.737 2.74-5.046 4.981-5.132 4.981s-1.409-1.339-2.94-2.975l-2.785-2.975 1.516-1.313 1.517-1.314 1.34 1.324 1.34 1.323 2.14-1.972 2.141-1.973-3.472-3.474-3.471-3.474-5.786 5.461-5.785 5.462 5.821 5.825 5.821 5.825h4.128 4.129l7.811-7.814 7.811-7.814-8.439-8.436-8.439-8.436h-5.749-5.75zm-56.124 16.124-7.063 6.778v5.645 5.645l4.315 4.31 4.314 4.309 6.217-6.22c3.418-3.42 6.174-6.329 6.122-6.463-.051-.134-1.585-1.805-3.409-3.712l-3.315-3.469-2.127 2.127-2.127 2.127 1.255 1.408c1.523 1.709 1.525 1.448-.023 3.236l-1.278 1.475-2.66-2.787c-1.462-1.533-2.742-2.929-2.844-3.102-.122-.208 1.515-1.95 4.829-5.137l5.013-4.822 6.984 6.981 6.984 6.981v29.564 29.564h-93.5-93.5v3 3h96.5 96.5v-33.794-33.793l-9.909-9.769c-5.45-5.373-9.978-9.79-10.062-9.815-.085-.025-3.332 3.004-7.216 6.733m51.125 3.034-9.938 9.819v33.793 33.792h96.5 96.5v-3-3h-93.5-93.5v-29.564-29.564l6.984-6.981 6.984-6.981 5.024 4.833c2.764 2.657 4.993 4.911 4.954 5.008s-1.319 1.493-2.845 3.103l-2.774 2.928-1.289-1.488c-1.561-1.802-1.56-1.551-.019-3.238l1.27-1.389-2.136-2.136-2.136-2.135-3.321 3.462c-1.827 1.904-3.363 3.572-3.414 3.707-.052.135 2.704 3.044 6.122 6.464l6.217 6.22 4.314-4.309 4.315-4.31v-5.65-5.651l-7.111-6.79c-3.911-3.734-7.146-6.783-7.188-6.776s-4.548 4.432-10.013 9.833" fill="#a42404"/><path d="m0 94v94h93.5 93.5v-29.439-29.439l-6.98-6.977-6.98-6.976-4.885 4.7c-4.284 4.121-4.848 4.753-4.582 5.133.167.239 1.392 1.567 2.722 2.953l2.417 2.518 1.144-1.339c1.397-1.635 1.406-1.402-.125-3.078l-1.27-1.389 2.272-2.271 2.272-2.271 3.485 3.625c1.916 1.994 3.49 3.738 3.497 3.877.007.138-2.829 3.092-6.302 6.563l-6.314 6.311-4.436-4.441-4.435-4.44v-5.65-5.649l7.251-6.93 7.251-6.929 9.999 9.826 9.999 9.827v33.943 33.942h-96.5-96.5v3 3h98.5 98.5v-44.568-44.567l-15.5-15.662-15.5-15.661v-4.271-4.271h-5.75-5.75v5.625 5.625h4.312 4.311l14.939 14.937 14.938 14.936v4.376 4.375l-17.187-17.166-17.188-17.165-6.212 6.389-6.212 6.39 4.835 4.839c2.659 2.661 4.903 4.839 4.986 4.839.084 0 1.349-1.282 2.812-2.848l2.658-2.848-1.39-1.187-1.39-1.188-1.336 1.32-1.337 1.321-2.27-2.094-2.27-2.093 3.56-3.568c1.959-1.961 3.633-3.538 3.72-3.503.088.035 2.768 2.529 5.957 5.544l5.798 5.481-5.827 5.831-5.828 5.832h-4.378-4.379l-7.811-7.814-7.811-7.814 8.564-8.561 8.564-8.561h1.209 1.209l-5.323-5.511-5.323-5.51-5.7 5.696-5.7 5.696v-5.811-5.81h-5.81-5.811l5.694-5.698 5.694-5.698-5.696-5.539-5.696-5.539 5.813-.013 5.812-.013.013-5.812.013-5.813 5.674 5.804 5.675 5.805 5.375-5.741c2.956-3.157 5.459-5.741 5.563-5.742.103-.001.187 2.586.187 5.749v5.75h5.75c3.162 0 5.75.086 5.75.19 0 .105-2.582 2.608-5.737 5.563l-5.738 5.372 5.675 5.527 5.675 5.527.076-1.277.076-1.277 8.336-8.5 8.336-8.5 2.738 2.687c1.506 1.479 2.811 2.688 2.901 2.688.089 0 .162-2.419.162-5.375v-5.375h-5.685-5.686l5.696-5.7 5.696-5.7-5.698-5.538-5.698-5.537 5.688-.013 5.687-.012.013-5.937.013-5.938 5.741 5.875 5.741 5.875 5.734-5.875 5.734-5.875.012 5.938.012 5.937 5.688.013 5.687.014-5.694 5.54-5.694 5.541 5.692 5.696 5.692 5.696h-5.686-5.685v5.375c0 2.956.083 5.375.183 5.375.101 0 1.405-1.209 2.897-2.687l2.713-2.688 8.35 8.5 8.349 8.5.004 1.374.004 1.375 5.563-5.582 5.562-5.582-5.562-5.425c-3.06-2.983-5.563-5.505-5.563-5.605 0-.099 2.531-.18 5.625-.18h5.625v-5.771c0-3.174.09-5.733.199-5.687.109.045 2.669 2.637 5.687 5.759l5.489 5.676 5.676-5.801 5.675-5.801.012 5.813.012 5.812 5.813.013 5.812.014-5.694 5.54-5.694 5.541 5.692 5.696 5.692 5.696h-5.811-5.81v5.81 5.811l-5.69-5.686-5.689-5.685-5.496 5.5-5.496 5.5h1.372 1.371l8.564 8.561 8.564 8.561-7.811 7.814-7.811 7.814h-4.379-4.378l-5.824-5.828-5.824-5.827 5.911-5.587 5.91-5.587 3.605 3.605 3.604 3.605-2.271 2.094-2.271 2.095-1.337-1.321-1.336-1.32-1.389 1.187-1.389 1.186 2.666 2.849c1.466 1.567 2.731 2.849 2.81 2.849s2.324-2.182 4.988-4.849l4.843-4.848-6.221-6.386-6.221-6.385-17.187 17.171-17.188 17.171v-4.374-4.373l14.937-14.939 14.936-14.938h4.189 4.188v-5.625-5.625h-5.625-5.625v4.271 4.271l-15.498 15.667-15.499 15.666-.001 44.563-.002 44.562h98.5 98.5v-3-3h-96.5-96.5l.001-33.937.002-33.938 10.004-9.838 10.004-9.838 4.926 4.713c2.709 2.592 5.969 5.714 7.244 6.937l2.319 2.224v5.654 5.653l-4.44 4.435-4.439 4.434-6.341-6.344c-3.488-3.49-6.3-6.455-6.248-6.589.051-.134 1.64-1.862 3.531-3.84l3.437-3.598 2.269 2.27 2.27 2.269-1.27 1.389c-1.532 1.676-1.523 1.442-.118 3.086l1.15 1.347 2.537-2.651c1.395-1.458 2.619-2.79 2.718-2.961.118-.202-1.526-1.953-4.706-5.01l-4.889-4.7-6.98 6.977-6.981 6.978v29.439 29.439h93.5 93.5v-94-94h-200-200zm194.5-67.773v2.523h-2.808-2.809l2.807 2.815 2.807 2.815-2.809 2.81-2.81 2.81h2.811 2.811v2.683 2.683l2.75-2.741 2.75-2.741 2.75 2.741 2.75 2.741v-2.683-2.683h2.808 2.809l-2.807-2.815-2.807-2.815 2.809-2.81 2.81-2.81h-2.811-2.811v-2.523-2.523l-2.75 2.557-2.75 2.557-2.75-2.557-2.75-2.557zm-.127 25.289-5.498 5.517 4.946 4.796 4.946 4.796-.009 4.409-.008 4.409-5.876 5.547-5.876 5.548-5.745-5.582-5.746-5.581 3.598-3.601 3.598-3.6 2.149 1.966c2.53 2.315 2.465 2.049.913 3.791l-1.236 1.386 1.158 1.342c1.448 1.677 1.034 1.827 4.143-1.503l2.654-2.843-4.907-4.718-4.907-4.718-6.064 6.229-6.064 6.23 14.652 14.832c8.058 8.158 14.715 14.832 14.792 14.832s6.806-6.666 14.953-14.814l14.812-14.814-6.231-6.227-6.232-6.228-4.885 4.697-4.885 4.696 2.662 2.845c3.118 3.333 2.689 3.176 4.133 1.504l1.158-1.342-1.236-1.386c-1.547-1.736-1.616-1.452.915-3.782l2.146-1.976 3.604 3.604 3.604 3.604-5.752 5.579-5.751 5.578-5.876-5.554-5.875-5.553-.007-4.403-.007-4.403 4.944-4.795 4.945-4.795-5.498-5.517c-3.024-3.035-5.556-5.518-5.627-5.518s-2.603 2.482-5.627 5.516m-56.623-.039v2.523h-2.808-2.809l2.867 2.875 2.867 2.875-2.742 2.75-2.741 2.75h2.683 2.683v2.683 2.683l2.75-2.741 2.75-2.742 2.875 2.867 2.875 2.867v-2.809-2.808h2.523 2.523l-2.523-2.713c-3.031-3.26-3.029-2.544-.012-5.747l2.511-2.665-2.502-.071-2.503-.071-.071-2.503-.071-2.502-2.665 2.511c-3.203 3.017-2.487 3.019-5.747-.012l-2.713-2.523zm113.25-.026v2.549h-2.683-2.683l2.683 2.692c1.476 1.48 2.683 2.8 2.683 2.933s-1.207 1.453-2.683 2.933l-2.683 2.692h2.683 2.683v2.808 2.809l2.875-2.867 2.875-2.867 2.75 2.742 2.75 2.741v-2.683-2.683h2.683 2.683l-2.741-2.75-2.742-2.75 2.867-2.875 2.867-2.875h-2.809-2.808v-2.518-2.519l-2.638 2.456c-3.266 3.041-2.833 2.96-4.951.919-.982-.947-2.208-2.107-2.723-2.579l-.938-.857z" fill="#fce304"/><path d="m189 12.078c0 .043.366.409.813.813l.812.734-.734-.812c-.685-.758-.891-.928-.891-.735m8.5 8.75c0 .043.366.409.813.813l.812.734-.734-.812c-.685-.758-.891-.928-.891-.735m-3.198 5.235.053 2.562.081-2.447c.058-1.722.165-2.395.362-2.273.17.105.209.059.101-.116-.471-.763-.645-.1-.597 2.274m-8.552 5.515c0 .043.366.409.813.813l.812.734-.734-.812c-.685-.758-.891-.928-.891-.735m21.116 1.485-1.241 1.312 1.313-1.241c1.219-1.152 1.427-1.384 1.24-1.384-.039 0-.63.591-1.312 1.313m-21.37 4.375-2.871 2.937 2.938-2.871c2.728-2.667 3.05-3.004 2.87-3.004-.036 0-1.358 1.322-2.937 2.938m-53.246-.11c0 .043.366.409.813.813l.812.734-.734-.812c-.685-.758-.891-.928-.891-.735m62.053 5.36c-.061 3.241-.063 3.239 1.581 1.5l1.241-1.313-1.304 1.232-1.303 1.232-.081-2.732-.081-2.732zm54.197-2.36c0 .043.366.409.813.813l.812.734-.734-.812c-.685-.758-.891-.928-.891-.735m-107.75 5.75c0 .043.366.409.813.813l.812.734-.734-.812c-.685-.758-.891-.928-.891-.735m-20 2.75c0 .043.366.409.813.813l.812.734-.734-.812c-.685-.758-.891-.928-.891-.735m60.863 3.485-.988 1.062 1.063-.988c.988-.919 1.177-1.137.988-1.137-.041 0-.519.478-1.063 1.063m37.127.5c.613.653 1.147 1.187 1.187 1.187.188 0-.011-.224-1.114-1.26l-1.188-1.115zm21.51 2.062c.466.481.904.875.973.875s-.257-.394-.723-.875-.904-.875-.973-.875.257.394.723.875m-110.5 2.75c.466.481.904.875.973.875s-.257-.394-.723-.875-.904-.875-.973-.875.257.394.723.875m39.237 7.563-.862.937.938-.862c.872-.801 1.052-1.013.861-1.013-.042 0-.464.422-.937.938m62.138.312c.537.55 1.033 1 1.101 1 .069 0-.314-.45-.851-1s-1.033-1-1.101-1c-.069 0 .314.45.851 1m23.992 1.313-1.492 1.562 1.563-1.492c.859-.821 1.562-1.524 1.562-1.563 0-.184-.247.041-1.633 1.493m-77.63 1.125-.862.937.938-.862c.872-.801 1.052-1.013.861-1.013-.042 0-.464.422-.937.938m3.263 2.187c-1.024 1.031-1.806 1.875-1.737 1.875.068 0 .963-.844 1.987-1.875s1.806-1.875 1.737-1.875c-.068 0-.963.844-1.987 1.875m9.25-.297c0 .043.366.409.813.813l.812.734-.734-.812c-.685-.758-.891-.928-.891-.735m-18.75 6.491c0 .038.872.909 1.938 1.937l1.937 1.869-1.869-1.937c-1.735-1.8-2.006-2.052-2.006-1.869m10 4.509c0 .043.366.409.813.813l.812.734-.734-.812c-.685-.758-.891-.928-.891-.735m-31.631 3.485-1.994 2.062 2.063-1.994c1.915-1.852 2.176-2.131 1.994-2.131-.038 0-.966.928-2.063 2.063m-4.499 4.5-2.245 2.312 2.313-2.245c2.147-2.085 2.426-2.38 2.244-2.38-.037 0-1.078 1.041-2.312 2.313m75.999 3.5-1.994 2.062 2.063-1.994c1.915-1.852 2.176-2.131 1.994-2.131-.038 0-.966.928-2.063 2.063m-41.744.687c.955.963 1.793 1.75 1.862 1.75.068 0-.657-.787-1.612-1.75s-1.793-1.75-1.862-1.75c-.068 0 .657.787 1.612 1.75m-22.625 1.125c-1.024 1.031-1.806 1.875-1.737 1.875.068 0 .963-.844 1.987-1.875s1.806-1.875 1.737-1.875c-.068 0-.963.844-1.987 1.875m-6.513.813-.862.937.938-.862c.872-.801 1.052-1.013.861-1.013-.042 0-.464.422-.937.938m99.013-.36c0 .043.366.409.813.813l.812.734-.734-.812c-.685-.758-.891-.928-.891-.735m-55.75 4.241c0 .038.872.909 1.938 1.937l1.937 1.869-1.869-1.937c-1.735-1.8-2.006-2.052-2.006-1.869m-12.51 15.744c1.036 1.103 1.26 1.302 1.26 1.114 0-.04-.534-.574-1.187-1.187l-1.188-1.115zm37.126.75-1.241 1.312 1.313-1.241c1.219-1.152 1.427-1.384 1.24-1.384-.039 0-.63.591-1.312 1.313m-42.62 2.25c2.434 2.496 2.754 2.801 2.754 2.62 0-.037-1.209-1.246-2.687-2.687l-2.688-2.621zm4.879 4.937c1.094 1.1 2.045 2 2.113 2 .069 0-.769-.9-1.863-2s-2.045-2-2.113-2c-.069 0 .769.9 1.863 2m53.875-.422c0 .043.366.409.813.813l.812.734-.734-.812c-.685-.758-.891-.928-.891-.735m-51.5 2.75c0 .043.366.409.813.813l.812.734-.734-.812c-.685-.758-.891-.928-.891-.735m-19.875 11.172c2.334 2.338 4.301 4.25 4.369 4.25.069 0-1.785-1.912-4.119-4.25s-4.301-4.25-4.369-4.25c-.069 0 1.785 1.912 4.119 4.25" fill="#da9504"/><path d="m204.117 19.063-1.492 1.562 1.563-1.492c.859-.821 1.562-1.524 1.562-1.563 0-.184-.247.041-1.633 1.493m-8.242.187c.816.825 1.541 1.5 1.609 1.5.069 0-.543-.675-1.359-1.5s-1.541-1.5-1.609-1.5c-.069 0 .543.675 1.359 1.5m-15.687 4.187c1.546.043 4.078.043 5.625 0 1.546-.044.281-.08-2.813-.08s-4.359.036-2.812.08m33.062-.014c4.613.179 9.251.186 9.25.015 0-.104-2.503-.165-5.562-.138-3.06.028-4.719.083-3.688.123m-11.391 3.39-.734.812.813-.734c.446-.404.812-.77.812-.813 0-.193-.206-.023-.891.735m-13.109 1.879c0 .105 1.266 1.427 2.813 2.937l2.812 2.746-2.737-2.804-2.737-2.803 2.737-.081 2.737-.081-2.812-.053c-1.547-.029-2.813.033-2.813.139m19.608-.005 2.734.081-1.484 1.553-1.483 1.554 1.563-1.492c2.017-1.927 2.041-1.892-1.25-1.83l-2.813.053zm-24.108 1.438c.747.756 1.414 1.375 1.483 1.375s-.486-.619-1.233-1.375-1.414-1.375-1.483-1.375.486.619 1.233 1.375m30.993.313-1.618 1.687 1.688-1.618c.928-.89 1.687-1.649 1.687-1.687 0-.184-.255.05-1.757 1.618m1.5 9.369 5.618 5.683-5.493.073-5.493.072 5.563.058c3.059.031 5.562-.028 5.562-.133 0-.104-2.559-2.719-5.687-5.812l-5.688-5.623zm28.564 3.131.058 5.687.072-5.612.073-5.613 1.557 1.488 1.558 1.487-1.492-1.562c-.821-.86-1.58-1.563-1.688-1.563-.107 0-.169 2.559-.138 5.688m-93.198-3.625-.734.812.813-.734c.446-.404.812-.77.812-.813 0-.193-.206-.023-.891.735m46.258 2.25-1.492 1.562 1.564-1.494 1.565-1.494 2.81 2.744 2.811 2.744-2.746-2.812c-3.24-3.319-2.683-3.165-4.512-1.25m-18.309 1.254c-1.407 1.411-2.558 2.649-2.558 2.75s2.503.157 5.563.126l5.562-.058-5.491-.072-5.49-.073 2.611-2.62c1.436-1.441 2.555-2.62 2.486-2.62s-1.276 1.155-2.683 2.567m-32.071.871-.862.937.938-.862c.872-.801 1.052-1.013.861-1.013-.042 0-.464.422-.937.938m112.88.625-1.492 1.562 1.563-1.492c.859-.821 1.562-1.524 1.562-1.563 0-.184-.247.041-1.633 1.493m-121.617.312c.747.756 1.414 1.375 1.483 1.375s-.486-.619-1.233-1.375-1.414-1.375-1.483-1.375.486.619 1.233 1.375m116 2.75c.747.756 1.414 1.375 1.483 1.375s-.486-.619-1.233-1.375-1.414-1.375-1.483-1.375.486.619 1.233 1.375m-111.391.688-.734.812.813-.734c.446-.404.812-.77.812-.813 0-.193-.206-.023-.891.735m-6.265 3.312c0 1.513.041 2.099.091 1.303.05-.795.049-2.033-.001-2.75-.05-.716-.091-.066-.09 1.447m124.75 0c0 1.513.041 2.099.091 1.303.05-.795.049-2.033-.001-2.75-.05-.716-.091-.066-.09 1.447m-115.735-.562-.734.812.813-.734c.446-.404.812-.77.812-.813 0-.193-.206-.023-.891.735m17 0-.734.812.813-.734c.446-.404.812-.77.812-.813 0-.193-.206-.023-.891.735m74.516 1.937c.677.688 1.287 1.25 1.356 1.25s-.429-.562-1.106-1.25c-.677-.687-1.287-1.25-1.356-1.25s.429.563 1.106 1.25m-103.5 4c1.508 1.513 2.798 2.75 2.866 2.75.069 0-1.108-1.237-2.616-2.75s-2.798-2.75-2.866-2.75c-.069 0 1.108 1.237 2.616 2.75m130.496.063-2.746 2.812 2.813-2.746c1.546-1.51 2.812-2.776 2.812-2.812 0-.181-.329.133-2.879 2.746m-137.496-1.313c.677.688 1.287 1.25 1.356 1.25s-.429-.562-1.106-1.25c-.677-.687-1.287-1.25-1.356-1.25s.429.563 1.106 1.25m31.484-.437-.734.812.813-.734c.446-.404.812-.77.812-.813 0-.193-.206-.023-.891.735m112.758.75-1.492 1.562 1.563-1.492c.859-.821 1.562-1.524 1.562-1.563 0-.184-.247.041-1.633 1.493m-84.627 0c.613.653 1.147 1.187 1.187 1.187.188 0-.011-.224-1.114-1.26l-1.188-1.115zm24.997.375-.862.937.938-.862c.872-.801 1.052-1.013.861-1.013-.042 0-.464.422-.937.938m-60.128.125-.734.812.813-.734c.446-.404.812-.77.812-.813 0-.193-.206-.023-.891.735m2.75 2.75-.734.812.813-.734c.446-.404.812-.77.812-.813 0-.193-.206-.023-.891.735m17.261 3-2.245 2.312 2.313-2.245c2.147-2.085 2.426-2.38 2.244-2.38-.037 0-1.078 1.041-2.312 2.313m67.378 3.375-5.623 5.687 5.688-5.623c3.128-3.093 5.687-5.652 5.687-5.687 0-.178-.527.338-5.752 5.623m-11.498-3.063c1.163 1.169 2.17 2.125 2.239 2.125s-.826-.956-1.989-2.125-2.17-2.125-2.239-2.125.826.956 1.989 2.125m-34.76-.812c1.036 1.103 1.26 1.302 1.26 1.114 0-.04-.534-.574-1.187-1.187l-1.188-1.115zm-42.99-.485c0 .043.366.409.813.813l.812.734-.734-.812c-.685-.758-.891-.928-.891-.735m55.987.86-.862.937.938-.862c.872-.801 1.052-1.013.861-1.013-.042 0-.464.422-.937.938m-47.987 1.687c.886.894 1.667 1.625 1.736 1.625.068 0-.6-.731-1.486-1.625s-1.667-1.625-1.736-1.625c-.068 0 .6.731 1.486 1.625m62 2c.466.481.904.875.973.875s-.257-.394-.723-.875-.904-.875-.973-.875.257.394.723.875m-85.446-.192 2.68.083.083 2.743.084 2.742-.013-2.813-.013-2.813-2.75-.012-2.75-.013zm15.518.002c.795.05 2.033.049 2.75-.001.716-.05.065-.091-1.447-.09-1.512 0-2.099.041-1.303.091m96.491 0c.79.049 2.084.049 2.875 0 .79-.05.143-.09-1.438-.09s-2.228.04-1.437.09m15.545.144c-.07.182-.09 1.503-.045 2.938l.082 2.608.052-2.804.053-2.805 2.813-.079 2.812-.08-2.82-.054c-2.142-.04-2.851.026-2.947.276m-121.488 2.234-2.245 2.312 2.313-2.245c2.147-2.085 2.426-2.38 2.244-2.38-.037 0-1.078 1.041-2.312 2.313m5.255.437c1.508 1.513 2.798 2.75 2.866 2.75.069 0-1.108-1.237-2.616-2.75s-2.798-2.75-2.866-2.75c-.069 0 1.108 1.237 2.616 2.75m52.478 2.75c0 2.406.037 3.391.083 2.188.046-1.204.046-3.172 0-4.375-.046-1.204-.083-.219-.083 2.187m2.75 0c0 2.406.037 3.391.083 2.188.046-1.204.046-3.172 0-4.375-.046-1.204-.083-.219-.083 2.187m20.147-4.172c0 .043.366.409.813.813l.812.734-.734-.812c-.685-.758-.891-.928-.891-.735m-32.76 1.735c.613.653 1.147 1.187 1.187 1.187.188 0-.011-.224-1.114-1.26l-1.188-1.115zm22.001.375-1.366 1.437 1.438-1.366c.79-.752 1.437-1.399 1.437-1.438 0-.186-.239.031-1.509 1.367m41.5.75-1.366 1.437 1.438-1.366c.79-.752 1.437-1.399 1.437-1.438 0-.186-.239.031-1.509 1.367m-31.494 2.125c3.131 3.193 3.503 3.55 3.503 3.371 0-.036-1.547-1.583-3.437-3.437l-3.438-3.372zm2.503-3.244c0 .038.872.909 1.938 1.937l1.937 1.869-1.869-1.937c-1.735-1.8-2.006-2.052-2.006-1.869m-48.133 1.744-1.492 1.562 1.563-1.492c.859-.821 1.562-1.524 1.562-1.563 0-.184-.247.041-1.633 1.493m70.191 6.243-.058 5.682-4.187.075c-3.129.056-2.734.077 1.562.084 3.162.005 5.105-.032 4.317-.082l-1.433-.09-.072-5.675-.072-5.675zm16.067-.806c2.61 2.612 4.801 4.75 4.87 4.75s-2.01-2.138-4.62-4.75-4.801-4.75-4.87-4.75 2.01 2.138 4.62 4.75m-84.132-2.062-1.618 1.687 1.688-1.618c.928-.89 1.687-1.649 1.687-1.687 0-.184-.255.05-1.757 1.618m51.257.187c.747.756 1.414 1.375 1.483 1.375s-.486-.619-1.233-1.375-1.414-1.375-1.483-1.375.486.619 1.233 1.375m-81.125 1.375c.816.825 1.541 1.5 1.609 1.5.069 0-.543-.675-1.359-1.5s-1.541-1.5-1.609-1.5c-.069 0 .543.675 1.359 1.5m41.484 1.063-.734.812.813-.734c.446-.404.812-.77.812-.813 0-.193-.206-.023-.891.735m21.391-.735c0 .043.366.409.813.813l.812.734-.734-.812c-.685-.758-.891-.928-.891-.735m-30.5 3.797c.747.756 1.414 1.375 1.483 1.375s-.486-.619-1.233-1.375-1.414-1.375-1.483-1.375.486.619 1.233 1.375m24.5-1.297c0 .043.366.409.813.813l.812.734-.734-.812c-.685-.758-.891-.928-.891-.735m-9.641.985-.734.812.813-.734c.446-.404.812-.77.812-.813 0-.193-.206-.023-.891.735m25.008.75-1.492 1.562 1.563-1.492c.859-.821 1.562-1.524 1.562-1.563 0-.184-.247.041-1.633 1.493m-65.04 2.624c1.623.043 4.21.043 5.75-.001 1.539-.043.21-.079-2.952-.079s-4.422.036-2.798.08m35.782.626-.734.812.813-.734c.446-.404.812-.77.812-.813 0-.193-.206-.023-.891.735m66.391 7.812c4.605 4.606 8.428 8.375 8.497 8.375s-3.642-3.769-8.247-8.375-8.428-8.375-8.497-8.375 3.642 3.769 8.247 8.375m-99.633-3.062-1.492 1.562 1.563-1.492c.859-.821 1.562-1.524 1.562-1.563 0-.184-.247.041-1.633 1.493m85.633.062c.886.894 1.667 1.625 1.736 1.625.068 0-.6-.731-1.486-1.625s-1.667-1.625-1.736-1.625c-.068 0 .6.731 1.486 1.625m-104.003 7.313-4.122 4.187 4.188-4.122c2.303-2.267 4.187-4.152 4.187-4.188 0-.178-.423.232-4.253 4.123m50.753-.313c2.128 2.131 3.925 3.875 3.994 3.875s-1.616-1.744-3.744-3.875-3.925-3.875-3.994-3.875 1.616 1.744 3.744 3.875m55.247.938c1.854 1.89 3.401 3.437 3.437 3.437.179 0-.178-.372-3.371-3.503l-3.438-3.372zm-29.625 2.5-3.997 4.062 4.063-3.997c3.774-3.713 4.175-4.128 3.997-4.128-.036 0-1.865 1.828-4.063 4.063m-29.997.437c2.197 2.2 4.05 4 4.119 4s-1.672-1.8-3.869-4-4.05-4-4.119-4 1.672 1.8 3.869 4m-23.625-3.672c0 .043.366.409.813.813l.812.734-.734-.812c-.685-.758-.891-.928-.891-.735m-13.757 2.36-1.618 1.687 1.688-1.618c.928-.89 1.687-1.649 1.687-1.687 0-.184-.255.05-1.757 1.618m5.5.25-1.618 1.687 1.688-1.618c.928-.89 1.687-1.649 1.687-1.687 0-.184-.255.05-1.757 1.618m99.007-.063c.886.894 1.667 1.625 1.736 1.625.068 0-.6-.731-1.486-1.625s-1.667-1.625-1.736-1.625c-.068 0 .6.731 1.486 1.625m-86.5 1.453c0 .043.366.409.813.813l.812.734-.734-.812c-.685-.758-.891-.928-.891-.735m-7.763 8.11-.862.937.938-.862c.872-.801 1.052-1.013.861-1.013-.042 0-.464.422-.937.938m83.263-.61c0 .043.366.409.813.813l.812.734-.734-.812c-.685-.758-.891-.928-.891-.735m-10.125 4.172c.537.55 1.033 1 1.101 1 .069 0-.314-.45-.851-1s-1.033-1-1.101-1c-.069 0 .314.45.851 1m-62.766.313-.734.812.813-.734c.446-.404.812-.77.812-.813 0-.193-.206-.023-.891.735m51.514 11-6.998 7.062 7.063-6.998c6.563-6.504 7.175-7.127 6.998-7.127-.035 0-3.214 3.178-7.063 7.063m16.627-6.188c.466.481.904.875.973.875s-.257-.394-.723-.875-.904-.875-.973-.875.257.394.723.875m-73.513.313-.862.937.938-.862c.872-.801 1.052-1.013.861-1.013-.042 0-.464.422-.937.938m21.888 2.312c1.508 1.513 2.798 2.75 2.866 2.75.069 0-1.108-1.237-2.616-2.75s-2.798-2.75-2.866-2.75c-.069 0 1.108 1.237 2.616 2.75m29.62.438-2.37 2.437 2.438-2.37c2.263-2.201 2.551-2.505 2.37-2.505-.038 0-1.134 1.097-2.438 2.438m-48.004 2.25-1.366 1.437 1.438-1.366c.79-.752 1.437-1.399 1.437-1.438 0-.186-.239.031-1.509 1.367m66.499-.375c.613.653 1.147 1.187 1.187 1.187.188 0-.011-.224-1.114-1.26l-1.188-1.115zm-8.753 2.375-.862.937.938-.862c.872-.801 1.052-1.013.861-1.013-.042 0-.464.422-.937.938m-49.237-.61c0 .043.366.409.813.813l.812.734-.734-.812c-.685-.758-.891-.928-.891-.735m61.109 2.985-.734.812.813-.734c.446-.404.812-.77.812-.813 0-.193-.206-.023-.891.735m-4.122 4.375-.862.937.938-.862c.515-.473.937-.895.937-.937 0-.191-.212-.011-1.013.862m4.885 6.125-4.247 4.312 4.313-4.247c4.006-3.946 4.425-4.378 4.247-4.378-.036 0-1.977 1.941-4.313 4.313" fill="#cc7a04"/><path d="m191.371 37.313-2.746 2.812 2.813-2.746c2.612-2.55 2.926-2.879 2.745-2.879-.036 0-1.302 1.266-2.812 2.813m17.004-.063c1.508 1.513 2.798 2.75 2.866 2.75.069 0-1.108-1.237-2.616-2.75s-2.798-2.75-2.866-2.75c-.069 0 1.108 1.237 2.616 2.75m-14.127 14.188-5.623 5.687 5.688-5.623 5.687-5.623 5.688 5.623 5.687 5.623-5.623-5.687c-3.093-3.129-5.681-5.688-5.752-5.688s-2.659 2.559-5.752 5.688m-16.011 4.25-.862.937.938-.862c.872-.801 1.052-1.013.861-1.013-.042 0-.464.422-.937.938m44.013.687c.466.481.904.875.973.875s-.257-.394-.723-.875-.904-.875-.973-.875.257.394.723.875m25.871 6.188-2.746 2.812 2.813-2.746c2.612-2.55 2.926-2.879 2.745-2.879-.036 0-1.302 1.266-2.812 2.813m2.752 14.25-5.498 5.562 5.563-5.498c3.059-3.024 5.562-5.527 5.562-5.562 0-.178-.519.329-5.627 5.498m-36.127 13.563c-8.184 8.181-14.821 14.874-14.75 14.874.072 0 6.824-6.694 15.004-14.875s14.818-14.875 14.749-14.874c-.068 0-6.82 6.694-15.003 14.875m-36.871 6.874c8.249 8.25 15.055 15 15.123 15 .069 0-6.624-6.75-14.873-15s-15.055-15-15.123-15c-.069 0 6.624 6.75 14.873 15m43.999.063-14.999 15.062 15.063-14.999c14.001-13.943 15.174-15.126 14.999-15.126-.035 0-6.813 6.778-15.063 15.063m-42.749-13.063c.816.825 1.541 1.5 1.609 1.5.069 0-.543-.675-1.359-1.5s-1.541-1.5-1.609-1.5c-.069 0 .543.675 1.359 1.5m48.618 1.438-1.618 1.687 1.688-1.618c.928-.89 1.687-1.649 1.687-1.687 0-.184-.255.05-1.757 1.618m-54.368 1.312c.816.825 1.541 1.5 1.609 1.5.069 0-.543-.675-1.359-1.5s-1.541-1.5-1.609-1.5c-.069 0 .543.675 1.359 1.5m2.375 16.625c9.418 9.419 17.18 17.125 17.249 17.125.068 0-7.581-7.706-16.999-17.125s-17.18-17.125-17.249-17.125c-.068 0 7.581 7.706 16.999 17.125m48.249.063-17.124 17.187 17.188-17.124c15.977-15.919 17.299-17.251 17.124-17.251-.035 0-7.769 7.734-17.188 17.188m-71.14-11.375-.734.812.813-.734c.446-.404.812-.77.812-.813 0-.193-.206-.023-.891.735m-10.484 14.937c4.261 4.263 7.803 7.75 7.872 7.75s-3.361-3.487-7.622-7.75-7.803-7.75-7.872-7.75 3.361 3.487 7.622 7.75m8.677-2.883c2.711 2.743 4.961 4.935 5 4.872.04-.063-2.177-2.306-4.927-4.986l-5-4.872zm97.698.008c-2.679 2.681-4.814 4.875-4.745 4.875s2.316-2.194 4.995-4.875 4.814-4.875 4.745-4.875-2.316 2.194-4.995 4.875m8.623 2.938-7.748 7.812 7.813-7.748c4.296-4.262 7.812-7.778 7.812-7.813 0-.177-.675.488-7.877 7.749m-93 2-5.748 5.812 5.813-5.748c5.401-5.341 5.925-5.877 5.747-5.877-.035 0-2.651 2.616-5.812 5.813m71.002-.063c3.16 3.162 5.802 5.75 5.871 5.75s-2.461-2.588-5.621-5.75-5.802-5.75-5.871-5.75 2.461 2.588 5.621 5.75m-30.882-.062-1.618 1.687 1.688-1.618c.928-.89 1.687-1.649 1.687-1.687 0-.184-.255.05-1.757 1.618m-8.493.687c.466.481.904.875.973.875s-.257-.394-.723-.875-.904-.875-.973-.875.257.394.723.875m-19.125.625c.537.55 1.033 1 1.101 1 .069 0-.314-.45-.851-1s-1.033-1-1.101-1c-.069 0 .314.45.851 1m45.125.875c-.607.619-1.048 1.125-.979 1.125s.622-.506 1.229-1.125 1.048-1.125.979-1.125-.622.506-1.229 1.125m-51.256 11.063-2.119 2.187 2.173-2.105c1.978-1.916 2.214-2.073 2.625-1.75.413.324.422.317.109-.082-.493-.629-.466-.647-2.788 1.75m55.857-1.899c-.116.187-.068.22.137.094.207-.128 1.054.521 2.476 1.899l2.161 2.093-2.119-2.187c-2.196-2.266-2.357-2.382-2.655-1.899m-35.101 4.289c0 .043.366.409.813.813l.812.734-.734-.812c-.685-.758-.891-.928-.891-.735m-17.877 9.235-6.248 6.312 6.313-6.248c5.865-5.806 6.425-6.377 6.248-6.377-.036 0-2.876 2.841-6.313 6.313m52.502-.063c3.435 3.438 6.302 6.25 6.371 6.25s-2.686-2.812-6.121-6.25c-3.435-3.437-6.302-6.25-6.371-6.25s2.686 2.813 6.121 6.25" fill="#ecb804"/><path d="m206.859 16.063-.734.812.813-.734c.446-.404.812-.77.812-.813 0-.193-.206-.023-.891.735m-26.109 10.765c0 .043.366.409.813.813l.812.734-.734-.812c-.685-.758-.891-.928-.891-.735m82.859 14.485-.734.812.813-.734c.757-.685.927-.891.734-.891-.043 0-.409.366-.813.813m-87.246 16.25-.988 1.062 1.063-.988c.988-.919 1.177-1.137.988-1.137-.041 0-.519.478-1.063 1.063m47.637.562c.466.481.904.875.973.875s-.257-.394-.723-.875-.904-.875-.973-.875.257.394.723.875m-42.641 5.938-.734.812.813-.734c.446-.404.812-.77.812-.813 0-.193-.206-.023-.891.735m-9.25 9.5-.734.812.813-.734c.446-.404.812-.77.812-.813 0-.193-.206-.023-.891.735m4.141 2.515c0 .043.366.409.813.813l.812.734-.734-.812c-.685-.758-.891-.928-.891-.735m-26.75 1.5c0 .043.366.409.813.813l.812.734-.734-.812c-.685-.758-.891-.928-.891-.735m81.493 4.86-1.618 1.687 1.688-1.618c.928-.89 1.687-1.649 1.687-1.687 0-.184-.255.05-1.757 1.618m-61.118 1.062c1.094 1.1 2.045 2 2.113 2 .069 0-.769-.9-1.863-2s-2.045-2-2.113-2c-.069 0 .769.9 1.863 2m14.875.828c0 .043.366.409.813.813l.812.734-.734-.812c-.685-.758-.891-.928-.891-.735m-2.625 2.922c.816.825 1.541 1.5 1.609 1.5.069 0-.543-.675-1.359-1.5s-1.541-1.5-1.609-1.5c-.069 0 .543.675 1.359 1.5m63.875 4.125c.466.481.904.875.973.875s-.257-.394-.723-.875-.904-.875-.973-.875.257.394.723.875m-38.383 14.688-1.492 1.562 1.563-1.492c.859-.821 1.562-1.524 1.562-1.563 0-.184-.247.041-1.633 1.493m-14.492.937c1.094 1.1 2.045 2 2.113 2 .069 0-.769-.9-1.863-2s-2.045-2-2.113-2c-.069 0 .769.9 1.863 2m-18.25 1.5c.537.55 1.033 1 1.101 1 .069 0-.314-.45-.851-1s-1.033-1-1.101-1c-.069 0 .314.45.851 1m49.491.563-1.241 1.312 1.313-1.241c1.219-1.152 1.427-1.384 1.24-1.384-.039 0-.63.591-1.312 1.313m-34.491 14.187c.537.55 1.033 1 1.101 1 .069 0-.314-.45-.851-1s-1.033-1-1.101-1c-.069 0 .314.45.851 1m19.491.563-1.241 1.312 1.313-1.241c1.219-1.152 1.427-1.384 1.24-1.384-.039 0-.63.591-1.312 1.313" fill="#f4cc04"/><path d="m188.608 17.5c0 3.231.035 4.553.079 2.938.043-1.616.043-4.26 0-5.876-.044-1.615-.079-.293-.079 2.938m22.75 0c0 3.231.035 4.553.079 2.938.043-1.616.043-4.26 0-5.876-.044-1.615-.079-.293-.079 2.938m-5.766 8.5c0 1.444.042 2.034.092 1.313.051-.722.051-1.904 0-2.625-.05-.722-.092-.132-.092 1.312m-51.224 16.875.007 5.75 5.813.007 5.812.007-5.745-.074-5.746-.074-.074-5.683-.074-5.683zm51.227-.125c0 1.581.04 2.228.09 1.438.049-.791.049-2.085 0-2.875-.05-.791-.09-.144-.09 1.437m-16.988 8.625c0 3.163.036 4.422.08 2.798.043-1.623.043-4.21-.001-5.75-.043-1.539-.079-.211-.079 2.952m22.75 0c0 3.163.036 4.422.08 2.798.043-1.623.043-4.21-.001-5.75-.043-1.539-.079-.211-.079 2.952m-87.78-2.688c1.623.043 4.21.043 5.75-.001 1.539-.043.21-.079-2.952-.079s-4.422.036-2.798.08m113.25 0c1.623.043 4.21.043 5.75-.001 1.539-.043.21-.079-2.952-.079s-4.422.036-2.798.08m34 0c1.623.043 4.21.043 5.75-.001 1.539-.043.211-.079-2.952-.079s-4.422.036-2.798.08m-90.968 5.376-.734.812.813-.734c.446-.404.812-.77.812-.813 0-.193-.206-.023-.891.735m40.141.015c0 .043.366.409.813.813l.812.734-.734-.812c-.685-.758-.891-.928-.891-.735m-52.641 12.735-.734.812.813-.734c.446-.404.812-.77.812-.813 0-.193-.206-.023-.891.735m64.891-.235c0 .043.366.409.813.813l.812.734-.734-.812c-.685-.758-.891-.928-.891-.735m-77.893 10.047c0 3.162.036 4.422.08 2.798.043-1.623.043-4.21-.001-5.75-.043-1.539-.079-.21-.079 2.952m21.893 4.75c.747.756 1.414 1.375 1.483 1.375s-.486-.619-1.233-1.375-1.414-1.375-1.483-1.375.486.619 1.233 1.375m48.367 7.438-1.492 1.562 1.563-1.492c.859-.821 1.562-1.524 1.562-1.563 0-.184-.247.041-1.633 1.493m-48.367 1.062c.747.756 1.414 1.375 1.483 1.375s-.486-.619-1.233-1.375-1.414-1.375-1.483-1.375.486.619 1.233 1.375m22.125 13.875c.677.688 1.287 1.25 1.356 1.25s-.429-.562-1.106-1.25c-.677-.687-1.287-1.25-1.356-1.25s.429.563 1.106 1.25m-19.5 8.75c.537.55 1.033 1 1.101 1 .069 0-.314-.45-.851-1s-1.033-1-1.101-1c-.069 0 .314.45.851 1m41.234.813-.734.812.813-.734c.446-.404.812-.77.812-.813 0-.193-.206-.023-.891.735m-61.501 12.687c0 3.231.035 4.553.079 2.938.043-1.616.043-4.26 0-5.875-.044-1.616-.079-.294-.079 2.937m82.75 0c0 3.231.035 4.553.079 2.938.043-1.616.043-4.26 0-5.875-.044-1.616-.079-.294-.079 2.937" fill="#e4b404"/><path d="m137.5 42.578c0 .043.366.409.813.813l.812.734-.734-.812c-.685-.758-.891-.928-.891-.735m110.625 14.172c1.508 1.513 2.798 2.75 2.866 2.75.069 0-1.108-1.237-2.616-2.75s-2.798-2.75-2.866-2.75c-.069 0 1.108 1.237 2.616 2.75m-74.138 3.188-.862.937.938-.862c.872-.801 1.052-1.013.861-1.013-.042 0-.464.422-.937.938m52.388.562c.537.55 1.033 1 1.101 1 .069 0-.314-.45-.851-1s-1.033-1-1.101-1c-.069 0 .314.45.851 1m-100.377 4.938-5.623 5.687 5.688-5.623c5.284-5.225 5.8-5.752 5.622-5.752-.035 0-2.594 2.559-5.687 5.688m8.873-2.875-2.746 2.812 2.813-2.746c2.612-2.55 2.926-2.879 2.745-2.879-.036 0-1.302 1.266-2.812 2.813m130.004-.063c1.508 1.513 2.798 2.75 2.866 2.75.069 0-1.108-1.237-2.616-2.75s-2.798-2.75-2.866-2.75c-.069 0 1.108 1.237 2.616 2.75m8.875 2.875c3.091 3.094 5.677 5.625 5.746 5.625s-2.405-2.531-5.496-5.625-5.677-5.625-5.746-5.625 2.405 2.531 5.496 5.625m-50.375 3.625c3.435 3.438 6.302 6.25 6.371 6.25s-2.686-2.812-6.121-6.25c-3.435-3.437-6.302-6.25-6.371-6.25s2.686 2.813 6.121 6.25m-83.004-.937-2.746 2.812 2.813-2.746c2.612-2.55 2.926-2.879 2.745-2.879-.036 0-1.302 1.266-2.812 2.813m119.004-.063c1.508 1.513 2.798 2.75 2.866 2.75.069 0-1.108-1.237-2.616-2.75s-2.798-2.75-2.866-2.75c-.069 0 1.108 1.237 2.616 2.75m-85.516 3.813-.734.812.813-.734c.446-.404.812-.77.812-.813 0-.193-.206-.023-.891.735m-36.361 5.125-5.623 5.687 5.688-5.623c5.284-5.225 5.8-5.752 5.622-5.752-.035 0-2.594 2.559-5.687 5.688m124.752-.063c3.091 3.094 5.677 5.625 5.746 5.625s-2.405-2.531-5.496-5.625-5.677-5.625-5.746-5.625 2.405 2.531 5.496 5.625m-106.141 12.188-.734.812.813-.734c.446-.404.812-.77.812-.813 0-.193-.206-.023-.891.735m30.391 2.562c.886.894 1.667 1.625 1.736 1.625.068 0-.6-.731-1.486-1.625s-1.667-1.625-1.736-1.625c-.068 0 .6.731 1.486 1.625m25.618 9.938-1.743 1.812 1.813-1.743c.996-.959 1.812-1.775 1.812-1.813 0-.183-.263.06-1.882 1.744m-54.909.567c-.778.754-1.337 1.37-1.241 1.37s.785-.619 1.532-1.375c1.756-1.778 1.548-1.774-.291.005m85.344-.006c.786.812 1.465 1.426 1.51 1.364.044-.062-.599-.727-1.429-1.478l-1.509-1.364zm-53.678.626c.955.963 1.793 1.75 1.862 1.75.068 0-.657-.787-1.612-1.75s-1.793-1.75-1.862-1.75c-.068 0 .657.787 1.612 1.75m-1.885 17.563c1.036 1.103 1.26 1.302 1.26 1.114 0-.04-.534-.574-1.187-1.187l-1.188-1.115zm25.01.812c-.607.619-1.048 1.125-.979 1.125s.622-.506 1.229-1.125 1.048-1.125.979-1.125-.622.506-1.229 1.125" fill="#fcd404"/></g></svg>