<svg id="svg" version="1.1" xmlns="http://www.w3.org/2000/svg" xmlns:xlink="http://www.w3.org/1999/xlink" width="400" height="250" viewBox="0, 0, 400,250"><g id="svgg"><path id="path0" d="M188.701 17.625 L 188.625 23.375 183.156 23.500 L 177.687 23.625 183.236 28.981 L 188.784 34.337 183.212 39.913 L 177.639 45.490 183.132 45.557 L 188.625 45.625 188.692 51.243 L 188.760 56.861 194.380 51.245 L 200.000 45.629 205.620 51.245 L 211.240 56.861 211.308 51.243 L 211.375 45.625 216.868 45.557 L 222.361 45.490 216.788 39.913 L 211.216 34.337 216.764 28.981 L 222.313 23.625 216.844 23.500 L 211.375 23.375 211.300 17.625 L 211.225 11.875 205.614 17.625 L 200.003 23.375 194.390 17.625 L 188.777 11.875 188.701 17.625 M202.875 25.880 L 205.750 23.199 205.750 25.849 L 205.750 28.500 208.500 28.500 C 211.843 28.500,211.843 28.292,208.500 31.625 L 205.750 34.367 208.558 37.183 L 211.367 40.000 208.558 40.000 L 205.750 40.000 205.750 42.750 C 205.750 46.086,205.966 46.081,202.692 42.817 L 200.000 40.134 197.308 42.817 C 194.034 46.081,194.250 46.086,194.250 42.750 L 194.250 40.000 191.442 40.000 L 188.633 40.000 191.442 37.183 L 194.250 34.367 191.500 31.625 C 188.157 28.292,188.157 28.500,191.500 28.500 L 194.250 28.500 194.250 25.849 L 194.250 23.199 197.125 25.880 L 200.000 28.562 202.875 25.880 M132.011 42.938 L 132.000 48.750 126.438 48.760 L 120.875 48.771 126.452 54.181 L 132.029 59.592 126.329 65.296 L 120.629 71.000 126.315 71.000 L 132.000 71.000 132.000 76.685 L 132.000 82.371 137.706 76.669 L 143.411 70.968 148.821 76.546 L 154.231 82.125 154.240 76.563 L 154.250 71.000 160.063 70.990 L 165.875 70.980 160.054 65.303 L 154.233 59.625 159.975 54.250 L 165.717 48.875 159.988 48.808 L 154.259 48.741 154.192 43.015 L 154.125 37.289 148.750 43.028 L 143.375 48.767 137.698 42.946 L 132.021 37.125 132.011 42.938 M262.280 42.974 L 256.686 48.760 251.155 43.089 L 245.625 37.418 245.500 43.022 L 245.375 48.625 239.780 48.692 L 234.185 48.760 239.780 54.235 L 245.375 59.711 239.752 65.355 L 234.129 71.000 239.815 71.000 L 245.500 71.000 245.500 76.560 L 245.500 82.121 251.140 76.498 L 256.780 70.875 262.390 76.568 L 268.000 82.260 268.000 76.630 L 268.000 71.000 273.685 71.000 L 279.371 71.000 273.671 65.296 L 267.971 59.592 273.548 54.181 L 279.125 48.771 273.567 48.760 L 268.009 48.750 267.942 42.969 L 267.875 37.188 262.280 42.974 M140.500 51.250 C 143.732 54.254,143.013 54.257,146.212 51.225 L 148.875 48.700 148.946 51.342 L 149.017 53.983 151.658 54.054 L 154.300 54.125 151.775 56.788 C 148.743 59.987,148.746 59.268,151.750 62.500 C 154.784 65.765,154.795 65.500,151.625 65.500 L 149.000 65.500 149.000 68.308 L 149.000 71.117 146.188 68.325 L 143.375 65.534 140.500 68.315 L 137.625 71.096 137.554 68.298 L 137.484 65.500 134.683 65.500 L 131.883 65.500 134.750 62.625 L 137.617 59.750 134.750 56.875 L 131.883 54.000 134.692 54.000 L 137.500 54.000 137.500 51.375 C 137.500 48.205,137.235 48.216,140.500 51.250 M255.116 52.480 C 256.685 54.087,256.365 54.176,259.512 51.250 C 262.773 48.218,262.500 48.206,262.500 51.375 L 262.500 54.000 265.308 54.000 L 268.117 54.000 265.250 56.875 L 262.383 59.750 265.250 62.625 L 268.117 65.500 265.308 65.500 L 262.500 65.500 262.500 68.308 L 262.500 71.117 259.625 68.250 L 256.750 65.383 253.875 68.250 L 251.000 71.117 251.000 68.308 L 251.000 65.500 248.250 65.500 C 244.915 65.500,244.923 65.691,248.125 62.500 C 249.569 61.061,250.750 59.771,250.750 59.634 C 250.750 59.496,249.543 58.172,248.067 56.692 L 245.384 54.000 248.192 54.000 L 251.000 54.000 251.000 51.350 L 251.000 48.701 252.438 49.955 C 253.228 50.645,254.433 51.781,255.116 52.480 M174.282 59.971 L 166.000 68.442 166.000 73.869 L 166.000 79.297 181.500 94.937 L 197.000 110.577 197.000 155.289 L 197.000 200.000 98.500 200.000 L 0.000 200.000 0.000 225.000 L 0.000 250.000 200.000 250.000 L 400.000 250.000 400.000 225.000 L 400.000 200.000 301.500 200.000 L 203.000 200.000 203.000 155.294 L 203.000 110.587 218.500 94.941 L 234.000 79.295 233.991 73.835 L 233.982 68.375 225.657 59.884 L 217.331 51.393 209.416 58.989 L 201.500 66.585 201.500 70.996 L 201.500 75.407 207.254 80.846 L 213.007 86.285 218.620 80.830 L 224.232 75.375 220.756 71.891 L 217.280 68.408 215.328 70.253 C 212.904 72.544,212.976 72.238,214.466 73.909 L 215.723 75.320 214.449 76.785 C 212.859 78.613,213.298 78.763,210.036 75.277 L 207.254 72.305 212.247 67.503 L 217.240 62.701 219.183 64.474 C 220.251 65.449,223.150 68.273,225.624 70.749 L 230.123 75.251 215.125 90.250 C 206.876 98.500,200.057 105.250,199.972 105.250 C 199.887 105.250,193.169 98.517,185.043 90.287 L 170.268 75.325 176.473 68.975 L 182.677 62.625 187.711 67.465 L 192.746 72.305 189.964 75.277 C 186.702 78.763,187.141 78.613,185.551 76.785 L 184.277 75.320 185.534 73.909 C 187.031 72.229,187.094 72.495,184.669 70.237 L 182.712 68.415 179.244 71.895 L 175.775 75.375 181.383 80.830 L 186.990 86.285 192.745 80.853 L 198.500 75.420 198.500 71.002 L 198.500 66.585 190.640 59.042 C 186.317 54.894,182.732 51.500,182.672 51.500 C 182.613 51.500,178.837 55.312,174.282 59.971 M143.186 90.939 L 134.750 99.378 142.564 107.189 L 150.378 115.000 154.503 115.000 L 158.629 115.000 164.450 109.175 L 170.271 103.350 164.486 97.888 L 158.700 92.427 155.238 95.901 L 151.776 99.375 153.905 101.349 L 156.035 103.323 157.377 101.998 L 158.718 100.673 160.237 101.989 L 161.756 103.304 158.975 106.277 C 157.445 107.912,156.121 109.250,156.032 109.250 C 155.943 109.250,153.633 107.010,150.898 104.273 L 145.926 99.297 152.276 92.786 L 158.625 86.275 175.813 103.449 L 193.000 120.624 193.000 116.499 L 193.000 112.373 178.062 97.437 L 163.123 82.500 157.373 82.500 L 151.622 82.500 143.186 90.939 M221.937 97.438 L 207.000 112.377 207.000 116.500 L 207.000 120.624 224.188 103.448 L 241.375 86.273 247.728 92.781 L 254.082 99.288 249.106 104.269 C 246.369 107.009,244.060 109.250,243.974 109.250 C 243.888 109.250,242.565 107.911,241.034 106.275 L 238.249 103.300 239.765 101.987 L 241.282 100.673 242.622 101.997 L 243.962 103.320 246.102 101.348 L 248.243 99.375 244.771 95.901 L 241.300 92.427 235.514 97.888 L 229.729 103.350 235.550 109.175 L 241.371 115.000 245.499 115.000 L 249.628 115.000 257.439 107.186 L 265.250 99.372 256.811 90.936 L 248.372 82.500 242.623 82.500 L 236.873 82.500 221.937 97.438 M165.813 113.562 L 158.750 120.340 158.750 125.985 L 158.750 131.630 163.065 135.940 L 167.379 140.249 173.596 134.029 C 177.014 130.609,179.770 127.700,179.718 127.566 C 179.667 127.432,178.133 125.761,176.309 123.854 L 172.994 120.385 170.867 122.512 L 168.740 124.639 169.995 126.047 C 171.518 127.756,171.520 127.495,169.972 129.283 L 168.694 130.758 166.034 127.971 C 164.572 126.438,163.292 125.042,163.190 124.869 C 163.068 124.661,164.705 122.919,168.019 119.732 L 173.032 114.910 180.016 121.891 L 187.000 128.872 187.000 158.436 L 187.000 188.000 93.500 188.000 L 0.000 188.000 0.000 191.000 L 0.000 194.000 96.500 194.000 L 193.000 194.000 193.000 160.206 L 193.000 126.413 183.091 116.644 C 177.641 111.271,173.113 106.854,173.029 106.829 C 172.944 106.804,169.697 109.833,165.813 113.562 M216.938 116.596 L 207.000 126.415 207.000 160.208 L 207.000 194.000 303.500 194.000 L 400.000 194.000 400.000 191.000 L 400.000 188.000 306.500 188.000 L 213.000 188.000 213.000 158.436 L 213.000 128.872 219.984 121.891 L 226.968 114.910 231.992 119.743 C 234.756 122.400,236.985 124.654,236.946 124.751 C 236.907 124.848,235.627 126.244,234.101 127.854 L 231.327 130.782 230.038 129.294 C 228.477 127.492,228.478 127.743,230.019 126.056 L 231.289 124.667 229.153 122.531 L 227.017 120.396 223.696 123.858 C 221.869 125.762,220.333 127.430,220.282 127.565 C 220.230 127.700,222.986 130.609,226.404 134.029 L 232.621 140.249 236.935 135.940 L 241.250 131.630 241.250 125.980 L 241.250 120.329 234.139 113.539 C 230.228 109.805,226.993 106.756,226.951 106.763 C 226.909 106.770,222.403 111.195,216.938 116.596 " stroke="none" fill="#a42404" fill-rule="evenodd"></path><path id="path1" d="M0.000 94.000 L 0.000 188.000 93.500 188.000 L 187.000 188.000 187.000 158.561 L 187.000 129.122 180.020 122.145 L 173.040 115.169 168.155 119.869 C 163.871 123.990,163.307 124.622,163.573 125.002 C 163.740 125.241,164.965 126.569,166.295 127.955 L 168.712 130.473 169.856 129.134 C 171.253 127.499,171.262 127.732,169.731 126.056 L 168.461 124.667 170.733 122.396 L 173.005 120.125 176.490 123.750 C 178.406 125.744,179.980 127.488,179.987 127.627 C 179.994 127.765,177.158 130.719,173.685 134.190 L 167.371 140.501 162.935 136.060 L 158.500 131.620 158.500 125.970 L 158.500 120.321 165.751 113.391 L 173.002 106.462 183.001 116.288 L 193.000 126.115 193.000 160.058 L 193.000 194.000 96.500 194.000 L 0.000 194.000 0.000 197.000 L 0.000 200.000 98.500 200.000 L 197.000 200.000 197.000 155.432 L 197.000 110.865 181.500 95.203 L 166.000 79.542 166.000 75.271 L 166.000 71.000 160.250 71.000 L 154.500 71.000 154.500 76.625 L 154.500 82.250 158.812 82.250 L 163.123 82.250 178.062 97.187 L 193.000 112.123 193.000 116.499 L 193.000 120.874 175.813 103.708 L 158.625 86.543 152.413 92.932 L 146.201 99.322 151.036 104.161 C 153.695 106.822,155.939 109.000,156.022 109.000 C 156.106 109.000,157.371 107.718,158.834 106.152 L 161.492 103.304 160.102 102.117 L 158.712 100.929 157.376 102.249 L 156.039 103.570 153.769 101.476 L 151.499 99.383 155.059 95.815 C 157.018 93.854,158.692 92.277,158.779 92.312 C 158.867 92.347,161.547 94.841,164.736 97.856 L 170.534 103.337 164.707 109.168 L 158.879 115.000 154.501 115.000 L 150.122 115.000 142.311 107.186 L 134.500 99.372 143.064 90.811 L 151.628 82.250 152.837 82.250 L 154.046 82.250 148.723 76.739 L 143.400 71.229 137.700 76.925 L 132.000 82.621 132.000 76.810 L 132.000 71.000 126.190 71.000 L 120.379 71.000 126.073 65.302 L 131.767 59.604 126.071 54.065 L 120.375 48.526 126.188 48.513 L 132.000 48.500 132.013 42.688 L 132.026 36.875 137.700 42.679 L 143.375 48.484 148.750 42.743 C 151.706 39.586,154.209 37.002,154.313 37.001 C 154.416 37.000,154.500 39.587,154.500 42.750 L 154.500 48.500 160.250 48.500 C 163.412 48.500,166.000 48.586,166.000 48.690 C 166.000 48.795,163.418 51.298,160.263 54.253 L 154.525 59.625 160.200 65.152 L 165.875 70.679 165.951 69.402 L 166.027 68.125 174.363 59.625 L 182.699 51.125 185.437 53.812 C 186.943 55.291,188.248 56.500,188.338 56.500 C 188.427 56.500,188.500 54.081,188.500 51.125 L 188.500 45.750 182.815 45.750 L 177.129 45.750 182.825 40.050 L 188.521 34.350 182.823 28.812 L 177.125 23.275 182.813 23.262 L 188.500 23.250 188.513 17.313 L 188.526 11.375 194.267 17.250 L 200.008 23.125 205.742 17.250 L 211.476 11.375 211.488 17.313 L 211.500 23.250 217.188 23.263 L 222.875 23.277 217.181 28.817 L 211.487 34.358 217.179 40.054 L 222.871 45.750 217.185 45.750 L 211.500 45.750 211.500 51.125 C 211.500 54.081,211.583 56.500,211.683 56.500 C 211.784 56.500,213.088 55.291,214.580 53.813 L 217.293 51.125 225.643 59.625 L 233.992 68.125 233.996 69.499 L 234.000 70.874 239.563 65.292 L 245.125 59.710 239.563 54.285 C 236.503 51.302,234.000 48.780,234.000 48.680 C 234.000 48.581,236.531 48.500,239.625 48.500 L 245.250 48.500 245.250 42.729 C 245.250 39.555,245.340 36.996,245.449 37.042 C 245.558 37.087,248.118 39.679,251.136 42.801 L 256.625 48.477 262.301 42.676 L 267.976 36.875 267.988 42.688 L 268.000 48.500 273.813 48.513 L 279.625 48.527 273.931 54.067 L 268.237 59.608 273.929 65.304 L 279.621 71.000 273.810 71.000 L 268.000 71.000 268.000 76.810 L 268.000 82.621 262.310 76.935 L 256.621 71.250 251.125 76.750 L 245.629 82.250 247.001 82.250 L 248.372 82.250 256.936 90.811 L 265.500 99.372 257.689 107.186 L 249.878 115.000 245.499 115.000 L 241.121 115.000 235.297 109.172 L 229.473 103.345 235.384 97.758 L 241.294 92.171 244.899 95.776 L 248.503 99.381 246.232 101.475 L 243.961 103.570 242.624 102.249 L 241.288 100.929 239.899 102.116 L 238.510 103.302 241.176 106.151 C 242.642 107.718,243.907 109.000,243.986 109.000 C 244.065 109.000,246.310 106.818,248.974 104.151 L 253.817 99.303 247.596 92.917 L 241.375 86.532 224.188 103.703 L 207.000 120.874 207.000 116.500 L 207.000 112.127 221.937 97.188 L 236.873 82.250 241.062 82.250 L 245.250 82.250 245.250 76.625 L 245.250 71.000 239.625 71.000 L 234.000 71.000 234.000 75.271 L 234.000 79.542 218.502 95.209 L 203.003 110.875 203.002 155.438 L 203.000 200.000 301.500 200.000 L 400.000 200.000 400.000 197.000 L 400.000 194.000 303.500 194.000 L 207.000 194.000 207.001 160.063 L 207.003 126.125 217.007 116.287 L 227.011 106.449 231.937 111.162 C 234.646 113.754,237.906 116.876,239.181 118.099 L 241.500 120.323 241.500 125.977 L 241.500 131.630 237.060 136.065 L 232.621 140.499 226.280 134.155 C 222.792 130.665,219.980 127.700,220.032 127.566 C 220.083 127.432,221.672 125.704,223.563 123.726 L 227.000 120.128 229.269 122.398 L 231.539 124.667 230.269 126.056 C 228.737 127.732,228.746 127.498,230.151 129.142 L 231.301 130.489 233.838 127.838 C 235.233 126.380,236.457 125.048,236.556 124.877 C 236.674 124.675,235.030 122.924,231.850 119.867 L 226.961 115.167 219.981 122.144 L 213.000 129.122 213.000 158.561 L 213.000 188.000 306.500 188.000 L 400.000 188.000 400.000 94.000 L 400.000 0.000 200.000 0.000 L 0.000 0.000 0.000 94.000 M194.500 26.227 L 194.500 28.750 191.692 28.750 L 188.883 28.750 191.690 31.565 L 194.497 34.380 191.688 37.190 L 188.878 40.000 191.689 40.000 L 194.500 40.000 194.500 42.683 L 194.500 45.366 197.250 42.625 L 200.000 39.884 202.750 42.625 L 205.500 45.366 205.500 42.683 L 205.500 40.000 208.308 40.000 L 211.117 40.000 208.310 37.185 L 205.503 34.370 208.312 31.560 L 211.122 28.750 208.311 28.750 L 205.500 28.750 205.500 26.227 L 205.500 23.704 202.750 26.261 L 200.000 28.818 197.250 26.261 L 194.500 23.704 194.500 26.227 M194.373 51.516 L 188.875 57.033 193.821 61.829 L 198.767 66.625 198.758 71.034 L 198.750 75.443 192.874 80.990 L 186.998 86.538 181.253 80.956 L 175.507 75.375 179.105 71.774 L 182.703 68.174 184.852 70.140 C 187.382 72.455,187.317 72.189,185.765 73.931 L 184.529 75.317 185.687 76.659 C 187.135 78.336,186.721 78.486,189.830 75.156 L 192.484 72.313 187.577 67.595 L 182.670 62.877 176.606 69.106 L 170.542 75.336 185.194 90.168 C 193.252 98.326,199.909 105.000,199.986 105.000 C 200.063 105.000,206.792 98.334,214.939 90.186 L 229.751 75.372 223.520 69.145 L 217.288 62.917 212.403 67.614 L 207.518 72.310 210.180 75.155 C 213.298 78.488,212.869 78.331,214.313 76.659 L 215.471 75.317 214.235 73.931 C 212.688 72.195,212.619 72.479,215.150 70.149 L 217.296 68.173 220.900 71.777 L 224.504 75.381 218.752 80.960 L 213.001 86.538 207.125 80.984 L 201.250 75.431 201.243 71.028 L 201.236 66.625 206.180 61.830 L 211.125 57.035 205.627 51.518 C 202.603 48.483,200.071 46.000,200.000 46.000 C 199.929 46.000,197.397 48.482,194.373 51.516 M137.750 51.477 L 137.750 54.000 134.942 54.000 L 132.133 54.000 135.000 56.875 L 137.867 59.750 135.125 62.500 L 132.384 65.250 135.067 65.250 L 137.750 65.250 137.750 67.933 L 137.750 70.616 140.500 67.875 L 143.250 65.133 146.125 68.000 L 149.000 70.867 149.000 68.058 L 149.000 65.250 151.523 65.250 L 154.046 65.250 151.523 62.537 C 148.492 59.277,148.494 59.993,151.511 56.790 L 154.022 54.125 151.520 54.054 L 149.017 53.983 148.946 51.480 L 148.875 48.978 146.210 51.489 C 143.007 54.506,143.723 54.508,140.463 51.477 L 137.750 48.954 137.750 51.477 M251.000 51.451 L 251.000 54.000 248.317 54.000 L 245.634 54.000 248.317 56.692 C 249.793 58.172,251.000 59.492,251.000 59.625 C 251.000 59.758,249.793 61.078,248.317 62.558 L 245.634 65.250 248.317 65.250 L 251.000 65.250 251.000 68.058 L 251.000 70.867 253.875 68.000 L 256.750 65.133 259.500 67.875 L 262.250 70.616 262.250 67.933 L 262.250 65.250 264.933 65.250 L 267.616 65.250 264.875 62.500 L 262.133 59.750 265.000 56.875 L 267.867 54.000 265.058 54.000 L 262.250 54.000 262.250 51.482 L 262.250 48.963 259.612 51.419 C 256.346 54.460,256.779 54.379,254.661 52.338 C 253.679 51.391,252.453 50.231,251.938 49.759 L 251.000 48.902 251.000 51.451 " stroke="none" fill="#fce304" fill-rule="evenodd"></path><path id="path2" d="M189.000 12.078 C 189.000 12.121,189.366 12.487,189.813 12.891 L 190.625 13.625 189.891 12.813 C 189.206 12.055,189.000 11.885,189.000 12.078 M197.500 20.828 C 197.500 20.871,197.866 21.237,198.313 21.641 L 199.125 22.375 198.391 21.563 C 197.706 20.805,197.500 20.635,197.500 20.828 M194.302 26.063 L 194.355 28.625 194.436 26.178 C 194.494 24.456,194.601 23.783,194.798 23.905 C 194.968 24.010,195.007 23.964,194.899 23.789 C 194.428 23.026,194.254 23.689,194.302 26.063 M185.750 31.578 C 185.750 31.621,186.116 31.987,186.563 32.391 L 187.375 33.125 186.641 32.313 C 185.956 31.555,185.750 31.385,185.750 31.578 M206.866 33.063 L 205.625 34.375 206.938 33.134 C 208.157 31.982,208.365 31.750,208.178 31.750 C 208.139 31.750,207.548 32.341,206.866 33.063 M185.496 37.438 L 182.625 40.375 185.563 37.504 C 188.291 34.837,188.613 34.500,188.433 34.500 C 188.397 34.500,187.075 35.822,185.496 37.438 M132.250 37.328 C 132.250 37.371,132.616 37.737,133.063 38.141 L 133.875 38.875 133.141 38.063 C 132.456 37.305,132.250 37.135,132.250 37.328 M194.303 42.688 C 194.242 45.929,194.240 45.927,195.884 44.188 L 197.125 42.875 195.821 44.107 L 194.518 45.339 194.437 42.607 L 194.356 39.875 194.303 42.688 M248.500 40.328 C 248.500 40.371,248.866 40.737,249.313 41.141 L 250.125 41.875 249.391 41.063 C 248.706 40.305,248.500 40.135,248.500 40.328 M140.750 46.078 C 140.750 46.121,141.116 46.487,141.563 46.891 L 142.375 47.625 141.641 46.813 C 140.956 46.055,140.750 45.885,140.750 46.078 M120.750 48.828 C 120.750 48.871,121.116 49.237,121.563 49.641 L 122.375 50.375 121.641 49.563 C 120.956 48.805,120.750 48.635,120.750 48.828 M181.613 52.313 L 180.625 53.375 181.688 52.387 C 182.676 51.468,182.865 51.250,182.676 51.250 C 182.635 51.250,182.157 51.728,181.613 52.313 M218.740 52.813 C 219.353 53.466,219.887 54.000,219.927 54.000 C 220.115 54.000,219.916 53.776,218.813 52.740 L 217.625 51.625 218.740 52.813 M240.250 54.875 C 240.716 55.356,241.154 55.750,241.223 55.750 C 241.292 55.750,240.966 55.356,240.500 54.875 C 240.034 54.394,239.596 54.000,239.527 54.000 C 239.458 54.000,239.784 54.394,240.250 54.875 M129.750 57.625 C 130.216 58.106,130.654 58.500,130.723 58.500 C 130.792 58.500,130.466 58.106,130.000 57.625 C 129.534 57.144,129.096 56.750,129.027 56.750 C 128.958 56.750,129.284 57.144,129.750 57.625 M168.987 65.188 L 168.125 66.125 169.063 65.263 C 169.935 64.462,170.115 64.250,169.924 64.250 C 169.882 64.250,169.460 64.672,168.987 65.188 M231.125 65.500 C 231.662 66.050,232.158 66.500,232.226 66.500 C 232.295 66.500,231.912 66.050,231.375 65.500 C 230.838 64.950,230.342 64.500,230.274 64.500 C 230.205 64.500,230.588 64.950,231.125 65.500 M255.117 66.813 L 253.625 68.375 255.188 66.883 C 256.047 66.062,256.750 65.359,256.750 65.320 C 256.750 65.136,256.503 65.361,255.117 66.813 M177.487 67.938 L 176.625 68.875 177.563 68.013 C 178.435 67.212,178.615 67.000,178.424 67.000 C 178.382 67.000,177.960 67.422,177.487 67.938 M180.750 70.125 C 179.726 71.156,178.944 72.000,179.013 72.000 C 179.081 72.000,179.976 71.156,181.000 70.125 C 182.024 69.094,182.806 68.250,182.737 68.250 C 182.669 68.250,181.774 69.094,180.750 70.125 M190.000 69.828 C 190.000 69.871,190.366 70.237,190.813 70.641 L 191.625 71.375 190.891 70.563 C 190.206 69.805,190.000 69.635,190.000 69.828 M171.250 76.319 C 171.250 76.357,172.122 77.228,173.188 78.256 L 175.125 80.125 173.256 78.188 C 171.521 76.388,171.250 76.136,171.250 76.319 M181.250 80.828 C 181.250 80.871,181.616 81.237,182.063 81.641 L 182.875 82.375 182.141 81.563 C 181.456 80.805,181.250 80.635,181.250 80.828 M149.619 84.313 L 147.625 86.375 149.688 84.381 C 151.603 82.529,151.864 82.250,151.682 82.250 C 151.644 82.250,150.716 83.178,149.619 84.313 M145.120 88.813 L 142.875 91.125 145.188 88.880 C 147.335 86.795,147.614 86.500,147.432 86.500 C 147.395 86.500,146.354 87.541,145.120 88.813 M221.119 92.313 L 219.125 94.375 221.188 92.381 C 223.103 90.529,223.364 90.250,223.182 90.250 C 223.144 90.250,222.216 91.178,221.119 92.313 M179.375 93.000 C 180.330 93.963,181.168 94.750,181.237 94.750 C 181.305 94.750,180.580 93.963,179.625 93.000 C 178.670 92.037,177.832 91.250,177.763 91.250 C 177.695 91.250,178.420 92.037,179.375 93.000 M156.750 94.125 C 155.726 95.156,154.944 96.000,155.013 96.000 C 155.081 96.000,155.976 95.156,157.000 94.125 C 158.024 93.094,158.806 92.250,158.737 92.250 C 158.669 92.250,157.774 93.094,156.750 94.125 M150.237 94.938 L 149.375 95.875 150.313 95.013 C 151.185 94.212,151.365 94.000,151.174 94.000 C 151.132 94.000,150.710 94.422,150.237 94.938 M249.250 94.578 C 249.250 94.621,249.616 94.987,250.063 95.391 L 250.875 96.125 250.141 95.313 C 249.456 94.555,249.250 94.385,249.250 94.578 M193.500 98.819 C 193.500 98.857,194.372 99.728,195.438 100.756 L 197.375 102.625 195.506 100.688 C 193.771 98.888,193.500 98.636,193.500 98.819 M180.990 114.563 C 182.026 115.666,182.250 115.865,182.250 115.677 C 182.250 115.637,181.716 115.103,181.063 114.490 L 179.875 113.375 180.990 114.563 M218.116 115.313 L 216.875 116.625 218.188 115.384 C 219.407 114.232,219.615 114.000,219.428 114.000 C 219.389 114.000,218.798 114.591,218.116 115.313 M175.496 117.563 C 177.930 120.059,178.250 120.364,178.250 120.183 C 178.250 120.146,177.041 118.937,175.563 117.496 L 172.875 114.875 175.496 117.563 M180.375 122.500 C 181.469 123.600,182.420 124.500,182.488 124.500 C 182.557 124.500,181.719 123.600,180.625 122.500 C 179.531 121.400,178.580 120.500,178.512 120.500 C 178.443 120.500,179.281 121.400,180.375 122.500 M234.250 122.078 C 234.250 122.121,234.616 122.487,235.063 122.891 L 235.875 123.625 235.141 122.813 C 234.456 122.055,234.250 121.885,234.250 122.078 M182.750 124.828 C 182.750 124.871,183.116 125.237,183.563 125.641 L 184.375 126.375 183.641 125.563 C 182.956 124.805,182.750 124.635,182.750 124.828 M162.875 136.000 C 165.209 138.338,167.176 140.250,167.244 140.250 C 167.313 140.250,165.459 138.338,163.125 136.000 C 160.791 133.662,158.824 131.750,158.756 131.750 C 158.687 131.750,160.541 133.662,162.875 136.000 " stroke="none" fill="#da9504" fill-rule="evenodd"></path><path id="path3" d="M204.117 19.063 L 202.625 20.625 204.188 19.133 C 205.047 18.312,205.750 17.609,205.750 17.570 C 205.750 17.386,205.503 17.611,204.117 19.063 M195.875 19.250 C 196.691 20.075,197.416 20.750,197.484 20.750 C 197.553 20.750,196.941 20.075,196.125 19.250 C 195.309 18.425,194.584 17.750,194.516 17.750 C 194.447 17.750,195.059 18.425,195.875 19.250 M180.188 23.437 C 181.734 23.480,184.266 23.480,185.813 23.437 C 187.359 23.393,186.094 23.357,183.000 23.357 C 179.906 23.357,178.641 23.393,180.188 23.437 M213.250 23.423 C 217.863 23.602,222.501 23.609,222.500 23.438 C 222.500 23.334,219.997 23.273,216.938 23.300 C 213.878 23.328,212.219 23.383,213.250 23.423 M201.859 26.813 L 201.125 27.625 201.938 26.891 C 202.384 26.487,202.750 26.121,202.750 26.078 C 202.750 25.885,202.544 26.055,201.859 26.813 M188.750 28.692 C 188.750 28.797,190.016 30.119,191.563 31.629 L 194.375 34.375 191.638 31.571 L 188.901 28.768 191.638 28.687 L 194.375 28.606 191.563 28.553 C 190.016 28.524,188.750 28.586,188.750 28.692 M208.358 28.687 L 211.092 28.768 209.608 30.321 L 208.125 31.875 209.688 30.383 C 211.705 28.456,211.729 28.491,208.438 28.553 L 205.625 28.606 208.358 28.687 M184.250 30.125 C 184.997 30.881,185.664 31.500,185.733 31.500 C 185.802 31.500,185.247 30.881,184.500 30.125 C 183.753 29.369,183.086 28.750,183.017 28.750 C 182.948 28.750,183.503 29.369,184.250 30.125 M215.243 30.438 L 213.625 32.125 215.313 30.507 C 216.241 29.617,217.000 28.858,217.000 28.820 C 217.000 28.636,216.745 28.870,215.243 30.438 M216.743 39.807 L 222.361 45.490 216.868 45.563 L 211.375 45.635 216.938 45.693 C 219.997 45.724,222.500 45.665,222.500 45.560 C 222.500 45.456,219.941 42.841,216.813 39.748 L 211.125 34.125 216.743 39.807 M245.307 42.938 L 245.365 48.625 245.437 43.013 L 245.510 37.400 247.067 38.888 L 248.625 40.375 247.133 38.813 C 246.312 37.953,245.553 37.250,245.445 37.250 C 245.338 37.250,245.276 39.809,245.307 42.938 M152.109 39.313 L 151.375 40.125 152.188 39.391 C 152.634 38.987,153.000 38.621,153.000 38.578 C 153.000 38.385,152.794 38.555,152.109 39.313 M198.367 41.563 L 196.875 43.125 198.439 41.631 L 200.004 40.137 202.814 42.881 L 205.625 45.625 202.879 42.813 C 199.639 39.494,200.196 39.648,198.367 41.563 M180.058 42.817 C 178.651 44.228,177.500 45.466,177.500 45.567 C 177.500 45.668,180.003 45.724,183.063 45.693 L 188.625 45.635 183.134 45.563 L 177.644 45.490 180.255 42.870 C 181.691 41.429,182.810 40.250,182.741 40.250 C 182.672 40.250,181.465 41.405,180.058 42.817 M147.987 43.688 L 147.125 44.625 148.063 43.763 C 148.935 42.962,149.115 42.750,148.924 42.750 C 148.882 42.750,148.460 43.172,147.987 43.688 M260.867 44.313 L 259.375 45.875 260.938 44.383 C 261.797 43.562,262.500 42.859,262.500 42.820 C 262.500 42.636,262.253 42.861,260.867 44.313 M139.250 44.625 C 139.997 45.381,140.664 46.000,140.733 46.000 C 140.802 46.000,140.247 45.381,139.500 44.625 C 138.753 43.869,138.086 43.250,138.017 43.250 C 137.948 43.250,138.503 43.869,139.250 44.625 M255.250 47.375 C 255.997 48.131,256.664 48.750,256.733 48.750 C 256.802 48.750,256.247 48.131,255.500 47.375 C 254.753 46.619,254.086 46.000,254.017 46.000 C 253.948 46.000,254.503 46.619,255.250 47.375 M143.859 48.063 L 143.125 48.875 143.938 48.141 C 144.384 47.737,144.750 47.371,144.750 47.328 C 144.750 47.135,144.544 47.305,143.859 48.063 M137.594 51.375 C 137.594 52.888,137.635 53.474,137.685 52.678 C 137.735 51.883,137.734 50.645,137.684 49.928 C 137.634 49.212,137.593 49.862,137.594 51.375 M262.344 51.375 C 262.344 52.888,262.385 53.474,262.435 52.678 C 262.485 51.883,262.484 50.645,262.434 49.928 C 262.384 49.212,262.343 49.862,262.344 51.375 M146.609 50.813 L 145.875 51.625 146.688 50.891 C 147.134 50.487,147.500 50.121,147.500 50.078 C 147.500 49.885,147.294 50.055,146.609 50.813 M163.609 50.813 L 162.875 51.625 163.688 50.891 C 164.134 50.487,164.500 50.121,164.500 50.078 C 164.500 49.885,164.294 50.055,163.609 50.813 M238.125 52.750 C 238.802 53.438,239.412 54.000,239.481 54.000 C 239.550 54.000,239.052 53.438,238.375 52.750 C 237.698 52.063,237.088 51.500,237.019 51.500 C 236.950 51.500,237.448 52.063,238.125 52.750 M134.625 56.750 C 136.133 58.263,137.423 59.500,137.491 59.500 C 137.560 59.500,136.383 58.263,134.875 56.750 C 133.367 55.237,132.077 54.000,132.009 54.000 C 131.940 54.000,133.117 55.237,134.625 56.750 M265.121 56.813 L 262.375 59.625 265.188 56.879 C 266.734 55.369,268.000 54.103,268.000 54.067 C 268.000 53.886,267.671 54.200,265.121 56.813 M127.625 55.500 C 128.302 56.188,128.912 56.750,128.981 56.750 C 129.050 56.750,128.552 56.188,127.875 55.500 C 127.198 54.813,126.588 54.250,126.519 54.250 C 126.450 54.250,126.948 54.813,127.625 55.500 M159.109 55.063 L 158.375 55.875 159.188 55.141 C 159.634 54.737,160.000 54.371,160.000 54.328 C 160.000 54.135,159.794 54.305,159.109 55.063 M271.867 55.813 L 270.375 57.375 271.938 55.883 C 272.797 55.062,273.500 54.359,273.500 54.320 C 273.500 54.136,273.253 54.361,271.867 55.813 M187.240 55.813 C 187.853 56.466,188.387 57.000,188.427 57.000 C 188.615 57.000,188.416 56.776,187.313 55.740 L 186.125 54.625 187.240 55.813 M212.237 56.188 L 211.375 57.125 212.313 56.263 C 213.185 55.462,213.365 55.250,213.174 55.250 C 213.132 55.250,212.710 55.672,212.237 56.188 M152.109 56.313 L 151.375 57.125 152.188 56.391 C 152.634 55.987,153.000 55.621,153.000 55.578 C 153.000 55.385,152.794 55.555,152.109 56.313 M154.859 59.063 L 154.125 59.875 154.938 59.141 C 155.384 58.737,155.750 58.371,155.750 58.328 C 155.750 58.135,155.544 58.305,154.859 59.063 M172.120 62.063 L 169.875 64.375 172.188 62.130 C 174.335 60.045,174.614 59.750,174.432 59.750 C 174.395 59.750,173.354 60.791,172.120 62.063 M239.498 65.438 L 233.875 71.125 239.563 65.502 C 242.691 62.409,245.250 59.850,245.250 59.815 C 245.250 59.637,244.723 60.153,239.498 65.438 M228.000 62.375 C 229.163 63.544,230.170 64.500,230.239 64.500 C 230.308 64.500,229.413 63.544,228.250 62.375 C 227.087 61.206,226.080 60.250,226.011 60.250 C 225.942 60.250,226.837 61.206,228.000 62.375 M193.240 61.563 C 194.276 62.666,194.500 62.865,194.500 62.677 C 194.500 62.637,193.966 62.103,193.313 61.490 L 192.125 60.375 193.240 61.563 M150.250 61.078 C 150.250 61.121,150.616 61.487,151.063 61.891 L 151.875 62.625 151.141 61.813 C 150.456 61.055,150.250 60.885,150.250 61.078 M206.237 61.938 L 205.375 62.875 206.313 62.013 C 207.185 61.212,207.365 61.000,207.174 61.000 C 207.132 61.000,206.710 61.422,206.237 61.938 M158.250 63.625 C 159.136 64.519,159.917 65.250,159.986 65.250 C 160.054 65.250,159.386 64.519,158.500 63.625 C 157.614 62.731,156.833 62.000,156.764 62.000 C 156.696 62.000,157.364 62.731,158.250 63.625 M220.250 65.625 C 220.716 66.106,221.154 66.500,221.223 66.500 C 221.292 66.500,220.966 66.106,220.500 65.625 C 220.034 65.144,219.596 64.750,219.527 64.750 C 219.458 64.750,219.784 65.144,220.250 65.625 M134.804 65.433 L 137.484 65.516 137.567 68.259 L 137.651 71.001 137.638 68.188 L 137.625 65.375 134.875 65.363 L 132.125 65.350 134.804 65.433 M150.322 65.435 C 151.117 65.485,152.355 65.484,153.072 65.434 C 153.788 65.384,153.137 65.343,151.625 65.344 C 150.113 65.344,149.526 65.385,150.322 65.435 M246.813 65.435 C 247.603 65.484,248.897 65.484,249.688 65.435 C 250.478 65.385,249.831 65.345,248.250 65.345 C 246.669 65.345,246.022 65.385,246.813 65.435 M262.358 65.579 C 262.288 65.761,262.268 67.082,262.313 68.517 L 262.395 71.125 262.447 68.321 L 262.500 65.516 265.313 65.437 L 268.125 65.357 265.305 65.303 C 263.163 65.263,262.454 65.329,262.358 65.579 M140.870 67.813 L 138.625 70.125 140.938 67.880 C 143.085 65.795,143.364 65.500,143.182 65.500 C 143.145 65.500,142.104 66.541,140.870 67.813 M146.125 68.250 C 147.633 69.763,148.923 71.000,148.991 71.000 C 149.060 71.000,147.883 69.763,146.375 68.250 C 144.867 66.737,143.577 65.500,143.509 65.500 C 143.440 65.500,144.617 66.737,146.125 68.250 M198.603 71.000 C 198.603 73.406,198.640 74.391,198.686 73.188 C 198.732 71.984,198.732 70.016,198.686 68.813 C 198.640 67.609,198.603 68.594,198.603 71.000 M201.353 71.000 C 201.353 73.406,201.390 74.391,201.436 73.188 C 201.482 71.984,201.482 70.016,201.436 68.813 C 201.390 67.609,201.353 68.594,201.353 71.000 M221.500 66.828 C 221.500 66.871,221.866 67.237,222.313 67.641 L 223.125 68.375 222.391 67.563 C 221.706 66.805,221.500 66.635,221.500 66.828 M188.740 68.563 C 189.353 69.216,189.887 69.750,189.927 69.750 C 190.115 69.750,189.916 69.526,188.813 68.490 L 187.625 67.375 188.740 68.563 M210.741 68.938 L 209.375 70.375 210.813 69.009 C 211.603 68.257,212.250 67.610,212.250 67.571 C 212.250 67.385,212.011 67.602,210.741 68.938 M252.241 69.688 L 250.875 71.125 252.313 69.759 C 253.103 69.007,253.750 68.360,253.750 68.321 C 253.750 68.135,253.511 68.352,252.241 69.688 M220.747 71.813 C 223.878 75.006,224.250 75.363,224.250 75.184 C 224.250 75.148,222.703 73.601,220.813 71.747 L 217.375 68.375 220.747 71.813 M223.250 68.569 C 223.250 68.607,224.122 69.478,225.188 70.506 L 227.125 72.375 225.256 70.438 C 223.521 68.638,223.250 68.386,223.250 68.569 M175.117 70.313 L 173.625 71.875 175.188 70.383 C 176.047 69.562,176.750 68.859,176.750 68.820 C 176.750 68.636,176.503 68.861,175.117 70.313 M245.308 76.556 L 245.250 82.238 241.063 82.313 C 237.934 82.369,238.329 82.390,242.625 82.397 C 245.787 82.402,247.730 82.365,246.942 82.315 L 245.509 82.225 245.437 76.550 L 245.365 70.875 245.308 76.556 M261.375 75.750 C 263.985 78.362,266.176 80.500,266.245 80.500 C 266.314 80.500,264.235 78.362,261.625 75.750 C 259.015 73.138,256.824 71.000,256.755 71.000 C 256.686 71.000,258.765 73.138,261.375 75.750 M177.243 73.688 L 175.625 75.375 177.313 73.757 C 178.241 72.867,179.000 72.108,179.000 72.070 C 179.000 71.886,178.745 72.120,177.243 73.688 M228.500 73.875 C 229.247 74.631,229.914 75.250,229.983 75.250 C 230.052 75.250,229.497 74.631,228.750 73.875 C 228.003 73.119,227.336 72.500,227.267 72.500 C 227.198 72.500,227.753 73.119,228.500 73.875 M147.375 75.250 C 148.191 76.075,148.916 76.750,148.984 76.750 C 149.053 76.750,148.441 76.075,147.625 75.250 C 146.809 74.425,146.084 73.750,146.016 73.750 C 145.947 73.750,146.559 74.425,147.375 75.250 M188.859 76.313 L 188.125 77.125 188.938 76.391 C 189.384 75.987,189.750 75.621,189.750 75.578 C 189.750 75.385,189.544 75.555,188.859 76.313 M210.250 75.578 C 210.250 75.621,210.616 75.987,211.063 76.391 L 211.875 77.125 211.141 76.313 C 210.456 75.555,210.250 75.385,210.250 75.578 M179.750 79.375 C 180.497 80.131,181.164 80.750,181.233 80.750 C 181.302 80.750,180.747 80.131,180.000 79.375 C 179.253 78.619,178.586 78.000,178.517 78.000 C 178.448 78.000,179.003 78.619,179.750 79.375 M204.250 78.078 C 204.250 78.121,204.616 78.487,205.063 78.891 L 205.875 79.625 205.141 78.813 C 204.456 78.055,204.250 77.885,204.250 78.078 M194.609 79.063 L 193.875 79.875 194.688 79.141 C 195.134 78.737,195.500 78.371,195.500 78.328 C 195.500 78.135,195.294 78.305,194.609 79.063 M219.617 79.813 L 218.125 81.375 219.688 79.883 C 220.547 79.062,221.250 78.359,221.250 78.320 C 221.250 78.136,221.003 78.361,219.617 79.813 M154.577 82.437 C 156.200 82.480,158.787 82.480,160.327 82.436 C 161.866 82.393,160.537 82.357,157.375 82.357 C 154.213 82.357,152.953 82.393,154.577 82.437 M190.359 83.063 L 189.625 83.875 190.438 83.141 C 190.884 82.737,191.250 82.371,191.250 82.328 C 191.250 82.135,191.044 82.305,190.359 83.063 M256.750 90.875 C 261.355 95.481,265.178 99.250,265.247 99.250 C 265.316 99.250,261.605 95.481,257.000 90.875 C 252.395 86.269,248.572 82.500,248.503 82.500 C 248.434 82.500,252.145 86.269,256.750 90.875 M157.117 87.813 L 155.625 89.375 157.188 87.883 C 158.047 87.062,158.750 86.359,158.750 86.320 C 158.750 86.136,158.503 86.361,157.117 87.813 M242.750 87.875 C 243.636 88.769,244.417 89.500,244.486 89.500 C 244.554 89.500,243.886 88.769,243.000 87.875 C 242.114 86.981,241.333 86.250,241.264 86.250 C 241.196 86.250,241.864 86.981,242.750 87.875 M138.747 95.188 L 134.625 99.375 138.813 95.253 C 141.116 92.986,143.000 91.101,143.000 91.065 C 143.000 90.887,142.577 91.297,138.747 95.188 M189.500 94.875 C 191.628 97.006,193.425 98.750,193.494 98.750 C 193.563 98.750,191.878 97.006,189.750 94.875 C 187.622 92.744,185.825 91.000,185.756 91.000 C 185.687 91.000,187.372 92.744,189.500 94.875 M244.747 95.813 C 246.601 97.703,248.148 99.250,248.184 99.250 C 248.363 99.250,248.006 98.878,244.813 95.747 L 241.375 92.375 244.747 95.813 M215.122 98.313 L 211.125 102.375 215.188 98.378 C 218.962 94.665,219.363 94.250,219.185 94.250 C 219.149 94.250,217.320 96.078,215.122 98.313 M185.125 98.750 C 187.322 100.950,189.175 102.750,189.244 102.750 C 189.313 102.750,187.572 100.950,185.375 98.750 C 183.178 96.550,181.325 94.750,181.256 94.750 C 181.187 94.750,182.928 96.550,185.125 98.750 M161.500 95.078 C 161.500 95.121,161.866 95.487,162.313 95.891 L 163.125 96.625 162.391 95.813 C 161.706 95.055,161.500 94.885,161.500 95.078 M147.743 97.438 L 146.125 99.125 147.813 97.507 C 148.741 96.617,149.500 95.858,149.500 95.820 C 149.500 95.636,149.245 95.870,147.743 97.438 M153.243 97.688 L 151.625 99.375 153.313 97.757 C 154.241 96.867,155.000 96.108,155.000 96.070 C 155.000 95.886,154.745 96.120,153.243 97.688 M252.250 97.625 C 253.136 98.519,253.917 99.250,253.986 99.250 C 254.054 99.250,253.386 98.519,252.500 97.625 C 251.614 96.731,250.833 96.000,250.764 96.000 C 250.696 96.000,251.364 96.731,252.250 97.625 M165.750 99.078 C 165.750 99.121,166.116 99.487,166.563 99.891 L 167.375 100.625 166.641 99.813 C 165.956 99.055,165.750 98.885,165.750 99.078 M157.987 107.188 L 157.125 108.125 158.063 107.263 C 158.935 106.462,159.115 106.250,158.924 106.250 C 158.882 106.250,158.460 106.672,157.987 107.188 M241.250 106.578 C 241.250 106.621,241.616 106.987,242.063 107.391 L 242.875 108.125 242.141 107.313 C 241.456 106.555,241.250 106.385,241.250 106.578 M231.125 110.750 C 231.662 111.300,232.158 111.750,232.226 111.750 C 232.295 111.750,231.912 111.300,231.375 110.750 C 230.838 110.200,230.342 109.750,230.274 109.750 C 230.205 109.750,230.588 110.200,231.125 110.750 M168.359 111.063 L 167.625 111.875 168.438 111.141 C 168.884 110.737,169.250 110.371,169.250 110.328 C 169.250 110.135,169.044 110.305,168.359 111.063 M219.873 122.063 L 212.875 129.125 219.938 122.127 C 226.501 115.623,227.113 115.000,226.936 115.000 C 226.901 115.000,223.722 118.178,219.873 122.063 M236.500 115.875 C 236.966 116.356,237.404 116.750,237.473 116.750 C 237.542 116.750,237.216 116.356,236.750 115.875 C 236.284 115.394,235.846 115.000,235.777 115.000 C 235.708 115.000,236.034 115.394,236.500 115.875 M162.987 116.188 L 162.125 117.125 163.063 116.263 C 163.935 115.462,164.115 115.250,163.924 115.250 C 163.882 115.250,163.460 115.672,162.987 116.188 M184.875 118.500 C 186.383 120.013,187.673 121.250,187.741 121.250 C 187.810 121.250,186.633 120.013,185.125 118.500 C 183.617 116.987,182.327 115.750,182.259 115.750 C 182.190 115.750,183.367 116.987,184.875 118.500 M214.495 118.938 L 212.125 121.375 214.563 119.005 C 216.826 116.804,217.114 116.500,216.933 116.500 C 216.895 116.500,215.799 117.597,214.495 118.938 M166.491 121.188 L 165.125 122.625 166.563 121.259 C 167.353 120.507,168.000 119.860,168.000 119.821 C 168.000 119.635,167.761 119.852,166.491 121.188 M232.990 120.813 C 233.603 121.466,234.137 122.000,234.177 122.000 C 234.365 122.000,234.166 121.776,233.063 120.740 L 231.875 119.625 232.990 120.813 M224.237 123.188 L 223.375 124.125 224.313 123.263 C 225.185 122.462,225.365 122.250,225.174 122.250 C 225.132 122.250,224.710 122.672,224.237 123.188 M175.000 122.578 C 175.000 122.621,175.366 122.987,175.813 123.391 L 176.625 124.125 175.891 123.313 C 175.206 122.555,175.000 122.385,175.000 122.578 M236.109 125.563 L 235.375 126.375 236.188 125.641 C 236.634 125.237,237.000 124.871,237.000 124.828 C 237.000 124.635,236.794 124.805,236.109 125.563 M231.987 129.938 L 231.125 130.875 232.063 130.013 C 232.578 129.540,233.000 129.118,233.000 129.076 C 233.000 128.885,232.788 129.065,231.987 129.938 M236.872 136.063 L 232.625 140.375 236.938 136.128 C 240.944 132.182,241.363 131.750,241.185 131.750 C 241.149 131.750,239.208 133.691,236.872 136.063 " stroke="none" fill="#cc7a04" fill-rule="evenodd"></path><path id="path4" d="M191.371 37.313 L 188.625 40.125 191.438 37.379 C 194.050 34.829,194.364 34.500,194.183 34.500 C 194.147 34.500,192.881 35.766,191.371 37.313 M208.375 37.250 C 209.883 38.763,211.173 40.000,211.241 40.000 C 211.310 40.000,210.133 38.763,208.625 37.250 C 207.117 35.737,205.827 34.500,205.759 34.500 C 205.690 34.500,206.867 35.737,208.375 37.250 M194.248 51.438 L 188.625 57.125 194.313 51.502 L 200.000 45.879 205.688 51.502 L 211.375 57.125 205.752 51.438 C 202.659 48.309,200.071 45.750,200.000 45.750 C 199.929 45.750,197.341 48.309,194.248 51.438 M178.237 55.688 L 177.375 56.625 178.313 55.763 C 179.185 54.962,179.365 54.750,179.174 54.750 C 179.132 54.750,178.710 55.172,178.237 55.688 M222.250 56.375 C 222.716 56.856,223.154 57.250,223.223 57.250 C 223.292 57.250,222.966 56.856,222.500 56.375 C 222.034 55.894,221.596 55.500,221.527 55.500 C 221.458 55.500,221.784 55.894,222.250 56.375 M248.121 62.563 L 245.375 65.375 248.188 62.629 C 250.800 60.079,251.114 59.750,250.933 59.750 C 250.897 59.750,249.631 61.016,248.121 62.563 M250.873 76.813 L 245.375 82.375 250.938 76.877 C 253.997 73.853,256.500 71.350,256.500 71.315 C 256.500 71.137,255.981 71.644,250.873 76.813 M214.746 90.376 C 206.562 98.557,199.925 105.250,199.996 105.250 C 200.068 105.250,206.820 98.556,215.000 90.375 C 223.180 82.194,229.818 75.500,229.749 75.501 C 229.681 75.501,222.929 82.195,214.746 90.376 M177.875 97.250 C 186.124 105.500,192.930 112.250,192.998 112.250 C 193.067 112.250,186.374 105.500,178.125 97.250 C 169.876 89.000,163.070 82.250,163.002 82.250 C 162.933 82.250,169.626 89.000,177.875 97.250 M221.874 97.313 L 206.875 112.375 221.938 97.376 C 235.939 83.433,237.112 82.250,236.937 82.250 C 236.902 82.250,230.124 89.028,221.874 97.313 M179.125 84.250 C 179.941 85.075,180.666 85.750,180.734 85.750 C 180.803 85.750,180.191 85.075,179.375 84.250 C 178.559 83.425,177.834 82.750,177.766 82.750 C 177.697 82.750,178.309 83.425,179.125 84.250 M227.743 85.688 L 226.125 87.375 227.813 85.757 C 228.741 84.867,229.500 84.108,229.500 84.070 C 229.500 83.886,229.245 84.120,227.743 85.688 M173.375 87.000 C 174.191 87.825,174.916 88.500,174.984 88.500 C 175.053 88.500,174.441 87.825,173.625 87.000 C 172.809 86.175,172.084 85.500,172.016 85.500 C 171.947 85.500,172.559 86.175,173.375 87.000 M175.750 103.625 C 185.168 113.044,192.930 120.750,192.999 120.750 C 193.067 120.750,185.418 113.044,176.000 103.625 C 166.582 94.206,158.820 86.500,158.751 86.500 C 158.683 86.500,166.332 94.206,175.750 103.625 M223.999 103.688 L 206.875 120.875 224.063 103.751 C 240.040 87.832,241.362 86.500,241.187 86.500 C 241.152 86.500,233.418 94.234,223.999 103.688 M152.859 92.313 L 152.125 93.125 152.938 92.391 C 153.384 91.987,153.750 91.621,153.750 91.578 C 153.750 91.385,153.544 91.555,152.859 92.313 M142.375 107.250 C 146.636 111.513,150.178 115.000,150.247 115.000 C 150.316 115.000,146.886 111.513,142.625 107.250 C 138.364 102.987,134.822 99.500,134.753 99.500 C 134.684 99.500,138.114 102.987,142.375 107.250 M151.052 104.367 C 153.763 107.110,156.013 109.302,156.052 109.239 C 156.092 109.176,153.875 106.933,151.125 104.253 L 146.125 99.381 151.052 104.367 M248.750 104.375 C 246.071 107.056,243.936 109.250,244.005 109.250 C 244.074 109.250,246.321 107.056,249.000 104.375 C 251.679 101.694,253.814 99.500,253.745 99.500 C 253.676 99.500,251.429 101.694,248.750 104.375 M257.373 107.313 L 249.625 115.125 257.438 107.377 C 261.734 103.115,265.250 99.599,265.250 99.564 C 265.250 99.387,264.575 100.052,257.373 107.313 M164.373 109.313 L 158.625 115.125 164.438 109.377 C 169.839 104.036,170.363 103.500,170.185 103.500 C 170.150 103.500,167.534 106.116,164.373 109.313 M235.375 109.250 C 238.535 112.412,241.177 115.000,241.246 115.000 C 241.315 115.000,238.785 112.412,235.625 109.250 C 232.465 106.088,229.823 103.500,229.754 103.500 C 229.685 103.500,232.215 106.088,235.375 109.250 M204.493 109.188 L 202.875 110.875 204.563 109.257 C 205.491 108.367,206.250 107.608,206.250 107.570 C 206.250 107.386,205.995 107.620,204.493 109.188 M196.000 109.875 C 196.466 110.356,196.904 110.750,196.973 110.750 C 197.042 110.750,196.716 110.356,196.250 109.875 C 195.784 109.394,195.346 109.000,195.277 109.000 C 195.208 109.000,195.534 109.394,196.000 109.875 M176.875 110.500 C 177.412 111.050,177.908 111.500,177.976 111.500 C 178.045 111.500,177.662 111.050,177.125 110.500 C 176.588 109.950,176.092 109.500,176.024 109.500 C 175.955 109.500,176.338 109.950,176.875 110.500 M222.000 111.375 C 221.393 111.994,220.952 112.500,221.021 112.500 C 221.090 112.500,221.643 111.994,222.250 111.375 C 222.857 110.756,223.298 110.250,223.229 110.250 C 223.160 110.250,222.607 110.756,222.000 111.375 M170.744 122.438 L 168.625 124.625 170.798 122.520 C 172.776 120.604,173.012 120.447,173.423 120.770 C 173.836 121.094,173.845 121.087,173.532 120.688 C 173.039 120.059,173.066 120.041,170.744 122.438 M226.601 120.539 C 226.485 120.726,226.533 120.759,226.738 120.633 C 226.945 120.505,227.792 121.154,229.214 122.532 L 231.375 124.625 229.256 122.438 C 227.060 120.172,226.899 120.056,226.601 120.539 M191.500 124.828 C 191.500 124.871,191.866 125.237,192.313 125.641 L 193.125 126.375 192.391 125.563 C 191.706 124.805,191.500 124.635,191.500 124.828 M173.623 134.063 L 167.375 140.375 173.688 134.127 C 179.553 128.321,180.113 127.750,179.936 127.750 C 179.900 127.750,177.060 130.591,173.623 134.063 M226.125 134.000 C 229.560 137.438,232.427 140.250,232.496 140.250 C 232.565 140.250,229.810 137.438,226.375 134.000 C 222.940 130.563,220.073 127.750,220.004 127.750 C 219.935 127.750,222.690 130.563,226.125 134.000 " stroke="none" fill="#ecb804" fill-rule="evenodd"></path><path id="path5" d="M206.859 16.063 L 206.125 16.875 206.938 16.141 C 207.384 15.737,207.750 15.371,207.750 15.328 C 207.750 15.135,207.544 15.305,206.859 16.063 M180.750 26.828 C 180.750 26.871,181.116 27.237,181.563 27.641 L 182.375 28.375 181.641 27.563 C 180.956 26.805,180.750 26.635,180.750 26.828 M263.609 41.313 L 262.875 42.125 263.688 41.391 C 264.445 40.706,264.615 40.500,264.422 40.500 C 264.379 40.500,264.013 40.866,263.609 41.313 M176.363 57.563 L 175.375 58.625 176.438 57.637 C 177.426 56.718,177.615 56.500,177.426 56.500 C 177.385 56.500,176.907 56.978,176.363 57.563 M224.000 58.125 C 224.466 58.606,224.904 59.000,224.973 59.000 C 225.042 59.000,224.716 58.606,224.250 58.125 C 223.784 57.644,223.346 57.250,223.277 57.250 C 223.208 57.250,223.534 57.644,224.000 58.125 M181.359 64.063 L 180.625 64.875 181.438 64.141 C 181.884 63.737,182.250 63.371,182.250 63.328 C 182.250 63.135,182.044 63.305,181.359 64.063 M172.109 73.563 L 171.375 74.375 172.188 73.641 C 172.634 73.237,173.000 72.871,173.000 72.828 C 173.000 72.635,172.794 72.805,172.109 73.563 M176.250 76.078 C 176.250 76.121,176.616 76.487,177.063 76.891 L 177.875 77.625 177.141 76.813 C 176.456 76.055,176.250 75.885,176.250 76.078 M149.500 77.578 C 149.500 77.621,149.866 77.987,150.313 78.391 L 151.125 79.125 150.391 78.313 C 149.706 77.555,149.500 77.385,149.500 77.578 M230.993 82.438 L 229.375 84.125 231.063 82.507 C 231.991 81.617,232.750 80.858,232.750 80.820 C 232.750 80.636,232.495 80.870,230.993 82.438 M169.875 83.500 C 170.969 84.600,171.920 85.500,171.988 85.500 C 172.057 85.500,171.219 84.600,170.125 83.500 C 169.031 82.400,168.080 81.500,168.012 81.500 C 167.943 81.500,168.781 82.400,169.875 83.500 M184.750 84.328 C 184.750 84.371,185.116 84.737,185.563 85.141 L 186.375 85.875 185.641 85.063 C 184.956 84.305,184.750 84.135,184.750 84.328 M182.125 87.250 C 182.941 88.075,183.666 88.750,183.734 88.750 C 183.803 88.750,183.191 88.075,182.375 87.250 C 181.559 86.425,180.834 85.750,180.766 85.750 C 180.697 85.750,181.309 86.425,182.125 87.250 M246.000 91.375 C 246.466 91.856,246.904 92.250,246.973 92.250 C 247.042 92.250,246.716 91.856,246.250 91.375 C 245.784 90.894,245.346 90.500,245.277 90.500 C 245.208 90.500,245.534 90.894,246.000 91.375 M207.617 106.063 L 206.125 107.625 207.688 106.133 C 208.547 105.312,209.250 104.609,209.250 104.570 C 209.250 104.386,209.003 104.611,207.617 106.063 M193.125 107.000 C 194.219 108.100,195.170 109.000,195.238 109.000 C 195.307 109.000,194.469 108.100,193.375 107.000 C 192.281 105.900,191.330 105.000,191.262 105.000 C 191.193 105.000,192.031 105.900,193.125 107.000 M174.875 108.500 C 175.412 109.050,175.908 109.500,175.976 109.500 C 176.045 109.500,175.662 109.050,175.125 108.500 C 174.588 107.950,174.092 107.500,174.024 107.500 C 173.955 107.500,174.338 107.950,174.875 108.500 M224.366 109.063 L 223.125 110.375 224.438 109.134 C 225.657 107.982,225.865 107.750,225.678 107.750 C 225.639 107.750,225.048 108.341,224.366 109.063 M189.875 123.250 C 190.412 123.800,190.908 124.250,190.976 124.250 C 191.045 124.250,190.662 123.800,190.125 123.250 C 189.588 122.700,189.092 122.250,189.024 122.250 C 188.955 122.250,189.338 122.700,189.875 123.250 M209.366 123.813 L 208.125 125.125 209.438 123.884 C 210.657 122.732,210.865 122.500,210.678 122.500 C 210.639 122.500,210.048 123.091,209.366 123.813 " stroke="none" fill="#f4cc04" fill-rule="evenodd"></path><path id="path6" d="M188.608 17.500 C 188.608 20.731,188.643 22.053,188.687 20.438 C 188.730 18.822,188.730 16.178,188.687 14.562 C 188.643 12.947,188.608 14.269,188.608 17.500 M211.358 17.500 C 211.358 20.731,211.393 22.053,211.437 20.438 C 211.480 18.822,211.480 16.178,211.437 14.562 C 211.393 12.947,211.358 14.269,211.358 17.500 M205.592 26.000 C 205.592 27.444,205.634 28.034,205.684 27.313 C 205.735 26.591,205.735 25.409,205.684 24.688 C 205.634 23.966,205.592 24.556,205.592 26.000 M154.368 42.875 L 154.375 48.625 160.188 48.632 L 166.000 48.639 160.255 48.565 L 154.509 48.491 154.435 42.808 L 154.361 37.125 154.368 42.875 M205.595 42.750 C 205.595 44.331,205.635 44.978,205.685 44.188 C 205.734 43.397,205.734 42.103,205.685 41.313 C 205.635 40.522,205.595 41.169,205.595 42.750 M188.607 51.375 C 188.607 54.538,188.643 55.797,188.687 54.173 C 188.730 52.550,188.730 49.963,188.686 48.423 C 188.643 46.884,188.607 48.212,188.607 51.375 M211.357 51.375 C 211.357 54.538,211.393 55.797,211.437 54.173 C 211.480 52.550,211.480 49.963,211.436 48.423 C 211.393 46.884,211.357 48.212,211.357 51.375 M123.577 48.687 C 125.200 48.730,127.787 48.730,129.327 48.686 C 130.866 48.643,129.537 48.607,126.375 48.607 C 123.213 48.607,121.953 48.643,123.577 48.687 M236.827 48.687 C 238.450 48.730,241.037 48.730,242.577 48.686 C 244.116 48.643,242.787 48.607,239.625 48.607 C 236.463 48.607,235.203 48.643,236.827 48.687 M270.827 48.687 C 272.450 48.730,275.037 48.730,276.577 48.686 C 278.116 48.643,276.788 48.607,273.625 48.607 C 270.462 48.607,269.203 48.643,270.827 48.687 M179.859 54.063 L 179.125 54.875 179.938 54.141 C 180.384 53.737,180.750 53.371,180.750 53.328 C 180.750 53.135,180.544 53.305,179.859 54.063 M220.000 54.078 C 220.000 54.121,220.366 54.487,220.813 54.891 L 221.625 55.625 220.891 54.813 C 220.206 54.055,220.000 53.885,220.000 54.078 M167.359 66.813 L 166.625 67.625 167.438 66.891 C 167.884 66.487,168.250 66.121,168.250 66.078 C 168.250 65.885,168.044 66.055,167.359 66.813 M232.250 66.578 C 232.250 66.621,232.616 66.987,233.063 67.391 L 233.875 68.125 233.141 67.313 C 232.456 66.555,232.250 66.385,232.250 66.578 M154.357 76.625 C 154.357 79.787,154.393 81.047,154.437 79.423 C 154.480 77.800,154.480 75.213,154.436 73.673 C 154.393 72.134,154.357 73.463,154.357 76.625 M176.250 81.375 C 176.997 82.131,177.664 82.750,177.733 82.750 C 177.802 82.750,177.247 82.131,176.500 81.375 C 175.753 80.619,175.086 80.000,175.017 80.000 C 174.948 80.000,175.503 80.619,176.250 81.375 M224.617 88.813 L 223.125 90.375 224.688 88.883 C 225.547 88.062,226.250 87.359,226.250 87.320 C 226.250 87.136,226.003 87.361,224.617 88.813 M176.250 89.875 C 176.997 90.631,177.664 91.250,177.733 91.250 C 177.802 91.250,177.247 90.631,176.500 89.875 C 175.753 89.119,175.086 88.500,175.017 88.500 C 174.948 88.500,175.503 89.119,176.250 89.875 M198.375 103.750 C 199.052 104.438,199.662 105.000,199.731 105.000 C 199.800 105.000,199.302 104.438,198.625 103.750 C 197.948 103.063,197.338 102.500,197.269 102.500 C 197.200 102.500,197.698 103.063,198.375 103.750 M178.875 112.500 C 179.412 113.050,179.908 113.500,179.976 113.500 C 180.045 113.500,179.662 113.050,179.125 112.500 C 178.588 111.950,178.092 111.500,178.024 111.500 C 177.955 111.500,178.338 111.950,178.875 112.500 M220.109 113.313 L 219.375 114.125 220.188 113.391 C 220.634 112.987,221.000 112.621,221.000 112.578 C 221.000 112.385,220.794 112.555,220.109 113.313 M158.608 126.000 C 158.608 129.231,158.643 130.553,158.687 128.938 C 158.730 127.322,158.730 124.678,158.687 123.063 C 158.643 121.447,158.608 122.769,158.608 126.000 M241.358 126.000 C 241.358 129.231,241.393 130.553,241.437 128.938 C 241.480 127.322,241.480 124.678,241.437 123.063 C 241.393 121.447,241.358 122.769,241.358 126.000 " stroke="none" fill="#e4b404" fill-rule="evenodd"></path><path id="path7" d="" stroke="none" fill="#f4d404" fill-rule="evenodd"></path><path id="path8" d="M137.500 42.578 C 137.500 42.621,137.866 42.987,138.313 43.391 L 139.125 44.125 138.391 43.313 C 137.706 42.555,137.500 42.385,137.500 42.578 M248.125 56.750 C 249.633 58.263,250.923 59.500,250.991 59.500 C 251.060 59.500,249.883 58.263,248.375 56.750 C 246.867 55.237,245.577 54.000,245.509 54.000 C 245.440 54.000,246.617 55.237,248.125 56.750 M173.987 59.938 L 173.125 60.875 174.063 60.013 C 174.935 59.212,175.115 59.000,174.924 59.000 C 174.882 59.000,174.460 59.422,173.987 59.938 M226.375 60.500 C 226.912 61.050,227.408 61.500,227.476 61.500 C 227.545 61.500,227.162 61.050,226.625 60.500 C 226.088 59.950,225.592 59.500,225.524 59.500 C 225.455 59.500,225.838 59.950,226.375 60.500 M125.998 65.438 L 120.375 71.125 126.063 65.502 C 131.347 60.277,131.863 59.750,131.685 59.750 C 131.650 59.750,129.091 62.309,125.998 65.438 M134.871 62.563 L 132.125 65.375 134.938 62.629 C 137.550 60.079,137.864 59.750,137.683 59.750 C 137.647 59.750,136.381 61.016,134.871 62.563 M264.875 62.500 C 266.383 64.013,267.673 65.250,267.741 65.250 C 267.810 65.250,266.633 64.013,265.125 62.500 C 263.617 60.987,262.327 59.750,262.259 59.750 C 262.190 59.750,263.367 60.987,264.875 62.500 M273.750 65.375 C 276.841 68.469,279.427 71.000,279.496 71.000 C 279.565 71.000,277.091 68.469,274.000 65.375 C 270.909 62.281,268.323 59.750,268.254 59.750 C 268.185 59.750,270.659 62.281,273.750 65.375 M223.375 69.000 C 226.810 72.438,229.677 75.250,229.746 75.250 C 229.815 75.250,227.060 72.438,223.625 69.000 C 220.190 65.563,217.323 62.750,217.254 62.750 C 217.185 62.750,219.940 65.563,223.375 69.000 M140.371 68.063 L 137.625 70.875 140.438 68.129 C 143.050 65.579,143.364 65.250,143.183 65.250 C 143.147 65.250,141.881 66.516,140.371 68.063 M259.375 68.000 C 260.883 69.513,262.173 70.750,262.241 70.750 C 262.310 70.750,261.133 69.513,259.625 68.000 C 258.117 66.487,256.827 65.250,256.759 65.250 C 256.690 65.250,257.867 66.487,259.375 68.000 M173.859 71.813 L 173.125 72.625 173.938 71.891 C 174.384 71.487,174.750 71.121,174.750 71.078 C 174.750 70.885,174.544 71.055,173.859 71.813 M137.498 76.938 L 131.875 82.625 137.563 77.002 C 142.847 71.777,143.363 71.250,143.185 71.250 C 143.150 71.250,140.591 73.809,137.498 76.938 M262.250 76.875 C 265.341 79.969,267.927 82.500,267.996 82.500 C 268.065 82.500,265.591 79.969,262.500 76.875 C 259.409 73.781,256.823 71.250,256.754 71.250 C 256.685 71.250,259.159 73.781,262.250 76.875 M156.109 89.063 L 155.375 89.875 156.188 89.141 C 156.634 88.737,157.000 88.371,157.000 88.328 C 157.000 88.135,156.794 88.305,156.109 89.063 M186.500 91.625 C 187.386 92.519,188.167 93.250,188.236 93.250 C 188.304 93.250,187.636 92.519,186.750 91.625 C 185.864 90.731,185.083 90.000,185.014 90.000 C 184.946 90.000,185.614 90.731,186.500 91.625 M212.118 101.563 L 210.375 103.375 212.188 101.632 C 213.184 100.673,214.000 99.857,214.000 99.819 C 214.000 99.636,213.737 99.879,212.118 101.563 M157.209 102.130 C 156.431 102.884,155.872 103.500,155.968 103.500 C 156.064 103.500,156.753 102.881,157.500 102.125 C 159.256 100.347,159.048 100.351,157.209 102.130 M242.553 102.124 C 243.339 102.936,244.018 103.550,244.063 103.488 C 244.107 103.426,243.464 102.761,242.634 102.010 L 241.125 100.646 242.553 102.124 M188.875 102.750 C 189.830 103.713,190.668 104.500,190.737 104.500 C 190.805 104.500,190.080 103.713,189.125 102.750 C 188.170 101.787,187.332 101.000,187.263 101.000 C 187.195 101.000,187.920 101.787,188.875 102.750 M186.990 120.313 C 188.026 121.416,188.250 121.615,188.250 121.427 C 188.250 121.387,187.716 120.853,187.063 120.240 L 185.875 119.125 186.990 120.313 M212.000 121.125 C 211.393 121.744,210.952 122.250,211.021 122.250 C 211.090 122.250,211.643 121.744,212.250 121.125 C 212.857 120.506,213.298 120.000,213.229 120.000 C 213.160 120.000,212.607 120.506,212.000 121.125 " stroke="none" fill="#fcd404" fill-rule="evenodd"></path></g></svg>