<svg height="460" width="686" xmlns="http://www.w3.org/2000/svg"><path d="m-.000002.000002h686v196h-686z" fill="#ec1a23"/><path d="m-.000002 196h686v70h-686z" fill="#fdf100"/><path d="m-.000002 265.99998h685.79358v194h-685.79358z" fill="#283595"/><g stroke="#000" transform="matrix(2 0 0 2 -34.142 -50.86732)"><g transform="matrix(.49257578 0 0 .49257578 -190.17439 -283.91068)"><path d="m84.375 253.48214.08929-52.94643h-2.142857l.08928-4.19642h1.964285l.08929-19.82143 2.410712-.0893.178572-21.51786-7.053572-9.37499-.08929-20.08928h9.642858l-.08929 10.08928 4.910714.0893.08929-10.26786 9.017858.0893v9.91071h4.01786l-.17857-10.08928 10.35714.0893v19.73215l-7.32143 10.44642.17857 20.89286 16.98661.0223.067 12.94643 5.49107.0223-.17857-12.8125h17.56696l.0223 12.85715 6.04911.067-.0893-13.01339 18.14732.0446v12.94643h5.84822v-12.96875l16.94196-.067-.13392-21.13839-7.32143-10.35714.0446-19.41965h9.62054l.0893 9.95536 4.91072.0223-.0223-10.02232 8.92858.0223.067 9.93304 4.12946.0446-.0223-9.97768 9.77679.0447.0223 19.88839-6.89732 9.97768.13393 20.95982 2.83482.0223.0893 20.08929 1.38393.0223.067 3.83928-1.5625.0447.0893.0223-.0223 53.8393-53.95078-.31138.0196-37.7553-.25692-3.61754-1.34513-4.08923-3.48244-3.17116-3.93858-2.93969-5.15105-1.11575-4.7643.0591-4.93346 1.18827-3.53697 3.08545-3.04429 3.70396-1.53158 3.93566-.0876 2.53472-.00029 37.99655-53.21509-.30714h.00002z" fill="#fff" transform="translate(379.28571 547.7193)"/><g fill="none"><path d="m110.4223 176.31562-1.07329.0631.0631 13.32138-6.06092-.0631v-13.38452l-16.478111.12627" transform="translate(379.28571 547.7193)"/><path d="m197.27963 176.48112 1.05751-.0238-.0315 13.05306h5.61898l-.0631-12.94258 16.85692-.0631" transform="translate(379.28571 547.7193)"/><path d="m556.32142 801.55858-.0893-3.39285h-7.41072l8.21429-.0893v-4.73214l-8.30357.0893 7.23214-.0893v-4.91071l-6.96428-.0893 7.85714-.13393-.0223-4.08482h-8.03572 7.12054v-4.91071l-7.07589-.0447 8.16964.0447.0223-5-8.30357.0223 7.16518-.0223-.0223-5.06697h-7.16518l8.2366-.0223-.067-4.82143-8.125-.0223 6.07143-.0223.067-6.07143-6.22768 2.36607 7.54465-2.87946-3.125-5.53572-6.25 4.44197 4.86607-3.52679-3.68304-4.48661-4.59821 4.2634 6.02678-5.625-5.66964-4.01786-3.52678 6.98661 2.96875-5.89286-6.74108-1.54018-1.60714 6.27232 2.09822-7.99107-4.30804.0223m-23.28571 60.15623.0893-3.03571h7.41072l-8.21429-.0893v-4.73214l8.30357.0893-7.23214-.0893v-4.91071l6.96428-.0893-7.85714-.13393.0223-4.08482h8.03572-7.12054v-4.91071l7.07589-.0447-8.16964.0447-.0223-5 8.30357.0223-7.16518-.0223.0223-5.06697h7.16518l-8.2366-.0223.067-4.82143 8.125-.0223-6.07143-.0223-.067-6.07143 6.22768 2.36607-7.54465-2.87946 3.125-5.53572 6.25 4.44197-4.86607-3.52679 3.68304-4.48661 4.59821 4.2634-6.02678-5.625 5.66964-4.01786 3.52678 6.98661-2.96875-5.89286 6.74108-1.54018 1.60714 6.27232-2.09822-7.99107 4.30804.0223m70.06072 7.12052-54.46429.13397m54.19643-4.0625-57.1875.17857m-81.98036 3.83929h53.70536m-53.52678-4.19643 56.25.26786"/><path d="m526.07157 737.54073.0893 5.80357m-13.66073-5.625v6.33929m-13.57143-6.42858.0893 7.05358m-13.92859-6.96429-.0893 6.60714m-12.94641-6.60714v6.25m67.58914-6.42857-.0893 5.80357m13.66073-5.625v6.33929m13.57143-6.42858-.0893 7.05358m13.92859-6.96429.0893 6.60714m12.94641-6.60714v6.25m-87.43241 53.92857.0893 3.92857m-14.64287-3.92857v3.75m7.5-10.625.17857 6.875m6.60714-13.48214v6.78571m-14.01786-6.60714-.0893 6.51786m-6.7857.26785.0893 6.60715m-6.69644-.0893.0893 3.75m-6.60716-10.44643-.0893 6.51786m6.60714-13.30357-.0893 6.875m-6.51784-12.94643-.17857 6.25m13.30357-6.42857v6.42857m13.92859-6.42856.17857 6.51786m6.96429-13.66072v6.96429m-7.14286-13.30357v6.25m6.96429-12.94643.0893 6.78571m-14.10716-6.78571.0893 6.875m-13.57144-6.69643v6.33928m-6.51786-13.30357-.0893 6.96429m13.2143-6.875-.0893 6.69643m14.10716-6.78572v6.875m6.96428-9.82143.0893 2.76786m-14.01787-2.67857.0893 2.67857m-13.75001-2.67857.0893 2.85714m13.39284 19.91072v6.875m-13.57143-6.96429v7.14286m-6.16071-13.66072v6.42858m12.85714-6.25.0893 6.51785m74.39668 26.69643-.0893 3.92857m14.64287-3.92857v3.75m-7.5-10.625-.17857 6.875m-6.60714-13.48214v6.78571m14.01786-6.60714.0893 6.51786m6.7857.26785-.0893 6.60715m6.69644-.0893-.0893 3.75m6.60716-10.44643.0893 6.51786m-6.60714-13.30357.0893 6.875m6.51784-12.94643.17857 6.25m-13.30357-6.42857v6.42857m-13.92859-6.42856-.17857 6.51786m-6.96429-13.66072v6.96429m7.14286-13.30357v6.25m-6.96429-12.94643-.0893 6.78571m14.10716-6.78571-.0893 6.875m13.57144-6.69643v6.33928m6.51786-13.30357.0893 6.96429m-13.2143-6.875.0893 6.69643m-14.10716-6.78572v6.875m-6.96428-9.82143-.0893 2.76786m14.01787-2.67857-.0893 2.67857m13.75001-2.67857-.0893 2.85714m-13.39284 19.91072v6.875m13.57143-6.96429v7.14286m6.16071-13.66072v6.42858m-12.85714-6.25-.0893 6.51785m-61.29286-40.08928.0447 6.62946m-26.83036-6.62946v6.56249m-13.66071-6.65178-.067 6.74107m68.05625-6.65178-.0447 6.58482m26.83036-6.58482v6.65178m13.66071-6.74107v6.83036m15.18541 59.95367-45.25887.26783m45.4399-6.8745h-46.52611m46.4356-6.51737h-45.80198m45.71146-6.42812h-45.16835m45.16835-7.05305-46.52611-.0893m46.52611-6.51736-45.53041.17856m45.43988-6.51739-47.15972-.17856m47.42635-6.78521-52.22379-.17856m-86.70913 46.69472 44.64285.26785m-44.82143-6.875h45.89286m-45.80357-6.51785h45.17857m-45.08928-6.42858h44.55357m-44.55357-7.05357 45.89285-.0893m-45.89281-6.51784 44.91071.17857m-44.82143-6.51786 46.51786-.17857m-46.42857-6.78571 51.16071-.17857m24.78573-27.05357-.0893 7.14285m27.2893-7.14285-.0893 7.14285m27.1893-7.14285-.0893 7.14285m-68-7.14285.0893 7.14285m-27.2893-7.14285.0893 7.14285m-27.1893-7.14285.0893 7.14285m-8.16966 6.51786 139.22992.0112m-19.50172-6.55414 19.31801-.0145m-42.81879.0153 17.35524-.016m-41.06226.1107 17.35524-.016m-40.96756-.0471 17.35524-.016m-41.34286.0485 18.51623-.27034m-43.45437.39661 18.51623-.27034m.42452 4.87869 6.20425-.0802m-6.39365-5.34937 6.20425-.0802m-6.20425-4.90743 6.20425-.0802m-4.7766-.10391.13338 5.28878m-6.22727-10.26123.15754 3.55207m-.18754-14.0285.12826 5.17458m-.0863-15.48973.13356 4.82274m5.88521 10.58723.13338 5.28878m-12.26002-5.19086.13338 5.28878m11.90397-15.92241.13338 5.28878m-12.26002-5.19086.13338 5.28878m12.08255-15.65456.13338 5.28878m-12.26002-5.19086.13338 5.28878m17.84949-10.03774.13356 4.82274m-12.00856-5.0906.13356 4.82274m-12.27642-4.64417.13356 4.82274m18.03609-10.00132.13356 4.82274m-12.27642-4.73345.13356 4.82274m18.21465-10.00131.13356 4.82274m-12.32106-4.82274.13356 4.82274m-12.23177-4.82274.13356 4.82274m.48818 36.52632 23.35037-.24312m-23.28724-4.93391 23.35037-.24312m-23.28723-5.24959 23.35037-.24312m-23.60291-4.87077 23.35037-.24312m-25.20238-4.69183 28.0014-.2222m-32.34475-5.28344 35.29914-.19634m-36.05329-4.66848 37.62818-.1894m-37.69131-5.01921 37.62818-.1894m-9.84898-4.86135 6.4386-.0847 3.15784-.0416m-23.26029.00003 9.59645-.12627m-23.7118.31567 9.59645-.12627m114.62933 56.82039-6.20425-.0802m6.39365-5.34937-6.20425-.0802m6.20425-4.90743-6.20425-.0802m4.7766-.10391-.13338 5.28878m6.22727-10.26123-.15754 3.55207m.18754-14.0285-.12826 5.17458m.0863-15.48973-.13356 4.82274m-5.88521 10.58723-.13338 5.28878m12.26002-5.19086-.13338 5.28878m-11.90397-15.92241-.13338 5.28878m12.26002-5.19086-.13338 5.28878m-12.08255-15.65456-.13338 5.28878m12.26002-5.19086-.13338 5.28878m-17.84949-10.03774-.13356 4.82274m12.00856-5.0906-.13356 4.82274m12.27642-4.64417-.13356 4.82274m-18.03609-10.00132-.13356 4.82274m12.27642-4.73345-.13356 4.82274m-18.21465-10.00131-.13356 4.82274m12.32106-4.82274-.13356 4.82274m12.23177-4.82274-.13356 4.82274m-.48818 36.52632-23.03787-.24312m22.97474-4.93391-22.97091-.26544m22.90777-5.22727-22.92626-.17616m23.1788-4.93773-23.35037-.24312m25.20238-4.69183-27.48801-.19988m31.83136-5.30576-35.6786-.19634m36.43275-4.66848-37.62818-.1894m37.69131-5.01921-37.62818-.1894m9.84898-4.86135-6.4386-.0847-3.15784-.0416m23.26029.00003-9.08306-.037m23.19841.22638-9.59645-.12627" stroke-width=".5"/></g></g><g fill="#ffd211"><path d="m72.771539 42.982345c5.207952.01226 5.394164 5.211488 2.006006 5.997238 1.362032-1.827466 1.431806-3.029002 1.028989-4.001624.08349 1.134078-.167645 1.966179-1.216075 2.078764.807139-3.001438-1.860661-2.66567-2.099554-2.96224z" stroke-width=".094074"/><g transform="matrix(.49257578 0 0 .49257578 -190.17439 -283.91068)"><path d="m531.94501 652.32987.584-.00011-.00026-1.38107.80519-.008-.004-.76128-.817-.008-.004-.89216-.58774-.004.008.89967-.88388-.008.0158.75761.87599.008.008 1.39685-.0001.00011v.00011z" stroke-width=".2"/><path d="m535.71428 663.56747 2.45536-3.70535c4.77465-5.22243-3.49653-9.36435-5.89286-4.73215-2.86336-4.52617-10.56813-.8197-5.71428 4.82143l2.36607 3.58259 6.78571.0335z" stroke-width=".2"/><path d="m533.34174 653.34711c0 .61531-.49836 1.11411-1.11313 1.11411-.61476 0-1.11312-.4988-1.11312-1.11411 0-.61532.49836-1.11412 1.11312-1.11412.61477 0 1.11313.4988 1.11313 1.11412z" stroke-width=".226118"/><g stroke-width=".2"><path d="m526.65178 660.04073 11.33929-.0893"/><path d="m530.4029 663.57047h3.875l.10175 38.50782c-1.14275.14891-2.96879.12233-3.86719-.0938 0-13.95833-.0602-21.878-.10956-38.41407v.00003z"/></g></g><path d="m75.868902 55.215878c-1.899503.204205-1.454221-2.620747.873073-2.161914 1.767066.60606 2.87475 2.843257 2.592516 4.385014-2.903237 15.859775-25.393705-3.106574-8.225966-7.128983l.02076.789928c-6.282288 1.400375-5.693758 11.906748 3.242873 9.437595l-.08315 1.247259c1.481835-.03727 6.298709-5.277076 1.288833-7.733007-.181608.318381.03653.736703.291029 1.164108z" stroke-width=".094074"/><path d="m71.139706 56.572273c-1.073055 1.669551-3.956015 6.304013-5.997235 3.050588-.410123 1.3854 1.386163 5.370661 5.997235-2.29184-.02053-.01752.0078-.75844 0-.758748z" stroke-width=".094074"/><path d="m73.031389 50.850472c1.654349-.140745 1.07655 1.182533.01038 1.226471-5.569014.953815-4.733457-4.753448-2.93106-5.903694l-1.122536-.478115c.700567-.507453 1.449849-1.620349 2.099553-1.5175l.0054-1.200486c-.691794.08482-1.356046.679707-1.938448 1.366787l.06236-1.538284c-1.60852 2.281947-2.280194 3.949306-2.137476 5.138259 1.251938 10.429559 13.473892 2.267958 5.936428 2.241357l.01562.665205h-.000008z" stroke-width=".094074"/></g></g></svg>