<svg clip-rule="evenodd" fill-rule="evenodd" height="142.57mm" image-rendering="optimizeQuality" shape-rendering="geometricPrecision" text-rendering="geometricPrecision" viewBox="0 0 215.163 142.57" width="215.163mm" xmlns="http://www.w3.org/2000/svg"><path d="m.0002.0018h215.167v142.568h-215.167z" fill="#00a652"/><path d="m.0046 59.4892h215.1624v-59.4968h-215.1624z" fill="#e40102"/><path d="m97.8303 39.2148h17.9437v-1.3281h-17.9437z" fill="#da251d"/><path d="m96.5324 50.4502c3.2863-.3761 7.3632-.5993 11.7709-.5993 3.5741 0 6.97-.1394 9.8237.4027 3.8146.7247 6.5188 1.7776 7.0364-.4211-.1756-.1338.0006-.2301-.1923-.3648l1.7119-.7372-.8407-1.1058-.5031-.6615.1109-.5364c1.3925.2299 1.4779-.2486 1.3368-1.1086-.0293-.1789-.0556-.3437-.1692-.538-.1699-.1055-.3394-.2066-.5088-.3036l1.5651-3.5877c.4059-.2057.7483-.511 1.0292-.9031.5825.2998.9733.2983 1.5936.1174.7609-.3127 1.4464-1.0218 1.1308-1.8924 1.1138-1.0845.2183-3.0539-1.3421-3.0931 1.9208-3.1129 1.688-7.409 1.1325-9.8702-1.3099-4.7381-5.5251-8.4596-13.3343-8.8978l-.0276-.1578-1.1839-.134c-.387.6968-.7673 1.4077-1.1333 2.1139-1.061.172-1.8338.2234-2.8408.1918l.2365-.7547-1.1824-.2476c-.6352.7009-2.4487 1.4816-3.3346 1.0725 1.9654-.4299 2.8215-2.2145 2.8215-4.128l-.2283-.0717c-.1203-.7588-.3315-1.3801-.8447-1.9584l-1.2241-2.8357 2.4113 1.0968v-4.8212l-2.4113 1.0971 1.0969-2.4113h-4.8211l1.0969 2.4113-2.4112-1.0971v4.8212l2.4112-1.0968-1.1846 2.7281c-.0028.0028-.0059.0057-.0087.0086-.5701.6108-.8062 1.2545-.9324 2.0622l-.0979.0292c-.0564 1.8939.7879 3.612 2.6522 4.1264-.1231.05-.2408.1117-.3513.1829-1.1423-.1695-2.1905-.4731-2.8336-1.457l-1.051.7948.2582.7112c-1.0916.0008-1.9295-.0742-3.0811-.2791-.2602-.6035-.5332-1.21-.8147-1.804l-.9745.0086-.1785.1107c-8.2914.2583-13.2363 3.8193-14.3841 8.506-.6094 2.6509-.5166 7.5707 1.3563 10.5518-2.5523-.0786-2.4157 1.5474-2.0155 2.9491.4178-.0491.8404-.0861 1.2529-.1663l-.0394.1968 2.1094 1.1445c.2623 1.0478 1.0446 1.8171 2.1119 2.0337.1345.0475.2577.0545.3626.0293l1.2768 2.4038c-.2035.1142-.4038.2404-.6044.3779-.0798.0772-.1969.1934-.2109.2306-.0569.1503-.1102.2828-.1097.4276.0027.9374.523 1.3214 1.4953.9937l.001.085-1.6119 1.4584 1.6388 1.102.0123.1205c-.5815 3.1553 1.1232 2.2947 6.1742 1.3432z" fill="#1f1a17"/><path d="m90.3632 46.6862.6945.4669.6945.467-.6147.5562-.6147.556-.6943-.4671-.6944-.467.6145-.556z" fill="#f2c12e"/><path d="m125.029 47.184.507.666.505.6664-.76.3278-.763.3277-.505-.6662-.507-.6662.762-.3278z" fill="#f2c12e"/><path d="m107.707 44.1632 1.203.7741 1.202.7741-1.248.7106-1.247.7105-1.202-.7742-1.203-.7743 1.248-.7103z" fill="#f2c12e"/><path d="m102.361 31.8159c-.5969-6.3421-1.9647-11.8346-3.5998-15.0862h-.796c1.6661 3.7746 3.1225 9.1705 4.0102 15.3073l.0278-.0228z" fill="#fc0"/><path d="m111.063 18.122c-.948 2.6277-1.7449 6.0339-2.2639 9.8654l-.1372-.0807-.069-.029-.2036-.1197-.2451-.1027-.2159-.059c.537-.1871.9242-.6987.9242-1.2983 0-.5444-.3191-1.0167-.7799-1.2389.6413-.2416 1.0993-.8619 1.0993-1.5858 0-.5659-.2802-1.0688-.7087-1.3766.6136-.346 1.0295-1.0039 1.0295-1.7562 0-.5181-.1973-.9918-.5206-1.3493.8044-.1676 1.5207-.4708 2.0909-.8692zm-4.698 9.8495c-.0587-.414-.1209-.8225-.1859-1.2254.1441.4158.4831.7419.9065.8688-.1332.0381-.2639.0884-.3947.1431l-.2232.1313zm.128-5.8748c-.4284.3078-.7089.8107-.7089 1.3766 0 .7239.4584 1.3442 1.0996 1.5858-.4586.2213-.7772.6901-.78 1.2313-.5374-3.176-1.2667-5.9813-2.1039-8.1853.5449.3918 1.2316.6924 2.0029.8659-.3342.3599-.5394.8416-.5394 1.3695 0 .7523.416 1.4102 1.0297 1.7562z" fill="#fc0"/><path d="m107.561 14.1912c1.1856 0 2.2764.1653 3.133.4409.0003.0229.0008.0459.0008.069 0 .5034-.1104.9805-.3068 1.4064-.8038-.2205-1.7783-.3498-2.827-.3498-1.0128 0-1.9563.1207-2.744.3276-.1901-.4203-.2968-.8895-.2968-1.3842 0-.0328.0007-.0658.0016-.0987.842-.2577 1.8966-.4112 3.0392-.4112z" fill="#fc0"/><path d="m110.086 16.709c-.5738.7787-1.4719 1.282-2.4785 1.282-1.1281 0-2.1198-.6318-2.6717-1.5751.6056-.1041 1.2731-.1619 1.9738-.1619 1.2056 0 2.3133.1711 3.1764.455z" fill="#fc0"/><path d="m107.257 8.4094-.5031 1.1055-.7478 1.6438c.4857-.2433 1.0286-.3796 1.6011-.3796.5412 0 1.056.1218 1.5212.3407l-.7302-1.6049-.503-1.1055 1.1054.5029 1.807.822v-1.6441-1.644l-1.807.8219-1.1053.503.5029-1.1055.822-1.8069h-1.6441-1.644l.8218 1.8069.5031 1.1055-1.1056-.503-1.8068-.8219v1.644 1.6441l1.8068-.822z" fill="#fc0"/><path d="m110.438 14.0681c-.127-.8947-.6568-1.6546-1.3883-2.0686v2.0686z" fill="#fc0"/><path d="m106.76 11.7248v2.095h1.6629v-2.1046c-.2583-.0859-.533-.1325-.8178-.1325-.295 0-.5788.0499-.8451.1421z" fill="#fc0"/><path d="m104.657 14.0681c.1271-.8947.6568-1.6546 1.3885-2.0686v2.0686z" fill="#fc0"/><path d="m112.421 17.8623c-1.2354 2.6871-2.2963 6.6576-2.9526 11.2768-.0107.0002-.0212.0007-.0317.0015l-.0356-.174-.0741-.2137-.1043-.2044-.1341-.1912-.0971-.1031c.6593-4.2974 1.6688-7.9862 2.8346-10.5324.1991.0563.3978.103.5949.1405z" fill="#fc0"/><path d="m103.39 17.7075c1.0856 2.7237 2.0673 6.3244 2.8018 10.4237l-.0908.0964-.1393.1988-.1086.2127-.0772.2224-.0113.0554c-.7694-4.3077-1.8124-8.0663-2.9617-10.8386.2044-.1152.4005-.2391.5871-.3708z" fill="#fc0"/><path d="m107.478 19.2114c.6219 0 1.1291.5072 1.1291 1.1291s-.5072 1.1293-1.1291 1.1293c-.622 0-1.1291-.5074-1.1291-1.1293s.5071-1.1291 1.1291-1.1291z" fill="#fc0"/><path d="m107.528 22.4439c.5945 0 1.0794.4849 1.0794 1.0793s-.4849 1.0793-1.0794 1.0793c-.5944 0-1.0793-.4849-1.0793-1.0793s.4849-1.0793 1.0793-1.0793z" fill="#fc0"/><path d="m107.484 25.6763c.3932 0 .7142.3207.7142.7142 0 .3932-.321.7142-.7142.7142-.3936 0-.7142-.321-.7142-.7142 0-.3935.3206-.7142.7142-.7142z" fill="#fc0"/><path d="m96.3283 38.0194c-1.3065-.3733-2.5578-2.6689-.913-3.5306-.8509 1.1721-.2277 2.7727.913 3.5306z" fill="#fc0"/><path d="m100.581 33.53-.1255-.9349c-1.0634.1517-2.0941.3733-3.0851.6575.0511.1408.102.2819.1529.4235l.1473.0622.3615.2479.3117.3133.2567.3693.196.418c.0628.1929.1135.3769.1478.5775.0459.3592.0361.6825-.0386 1.0374l-.0601.2162c-.0043.0125-.0086.0247-.0131.0372.6189-.1544 1.2518-.284 1.8972-.3883l-.1752-.1271-.1768-.1722-.1541-.1996-.1275-.2245c-.1171-.2894-.2116-.5797-.2116-.8952l.0424-.2921.0697-.2646.0995-.2458.1275-.2247.1541-.1995.1768-.1724z" fill="#fc0"/><path d="m111.633 39.9247c-.316-.0587-.618-.1457-.9018-.2575.0449-.5026.0956-1.0125.1535-1.5301l.3996.0834.4611.0178.0534-.0068c-.0631.5734-.1184 1.1382-.1658 1.6932z" fill="#fc0"/><path d="m103.002 39.9247c.1953-.0587.382-.1457.5578-.2575-.0243-.4363-.0512-.8781-.0814-1.3255l-.024.0038-.4479-.0075-.1013-.0202c.0368.5437.0689 1.0796.0968 1.6069z" fill="#fc0"/><path d="m98.5927 27.4186c-.5094-1.1957-1.0317-2.3312-1.5606-3.3973-1.1206.2265-2.1975.5339-3.2195.9135.5471 1.0878 1.0869 2.2383 1.6134 3.443 1.0037-.3929 2.063-.7154 3.1667-.9592z" fill="#fc0"/><path d="m94.8644 29.6263c-1.2296.522-2.3733 1.1463-3.4125 1.8546.4055.964.8022 1.9654 1.1871 2.9999 1.0622-.6325 2.2171-1.181 3.4465-1.631-.3944-1.1157-.8024-2.1927-1.2211-3.2235z" fill="#fc0"/><path d="m101.825 39.8061-.5085-2.4773c-.8497.2108-1.6649.4771-2.4395.7923.8566 1.2653 1.5606 1.5166 2.948 1.685z" fill="#fc0"/><path d="m97.6763 19.1008-.4244-1.3766-.3081-.8625-2.9376.3266c.4945.6474.9963 1.377 1.4993 2.1802.7086-.122 1.4332-.2121 2.1708-.2677z" fill="#fc0"/><path d="m99.9061 27.1694-.6212-2.8529-.1891-.6138c-.3827.0415-.7617.0916-1.1363.151.5166 1.0666 1.0256 2.1987 1.5214 3.3875.1411-.0254.2828-.0493.4252-.0718z" fill="#fc0"/><path d="m98.8726 22.9793-1.0095-3.2728c-.6772.0555-1.3434.1397-1.9959.2515.5839.9715 1.1681 2.0394 1.745 3.1908.4151-.0678.8352-.1242 1.2604-.1695z" fill="#fc0"/><path d="m96.6785 23.3213c-.5921-1.1519-1.1908-2.2141-1.7875-3.1736-1.112.2418-2.1792.564-3.1905.9572.5892.9681 1.1792 2.0192 1.7626 3.1445 1.0199-.3845 2.0959-.6964 3.2154-.9281z" fill="#fc0"/><path d="m100.287 31.762c-.4214-1.1808-.859-2.3226-1.3081-3.4187-1.1031.2306-2.1646.5377-3.1759.9116.443 1.0484.875 2.1343 1.2924 3.2521 1.0215-.3185 2.0884-.569 3.1916-.745z" fill="#fc0"/><path d="m90.7586 21.4981c-1.2404.5567-2.3833 1.2243-3.4046 1.9841.5922.9228 1.1876 1.949 1.7779 3.0658 1.0332-.7438 2.1859-1.3945 3.433-1.9345-.5994-1.149-1.2047-2.1932-1.8063-3.1154z" fill="#fc0"/><path d="m92.9133 25.2935c-1.2482.5328-2.4028 1.1761-3.4394 1.9124.5614 1.0998 1.1168 2.2789 1.6585 3.527 1.0133-.7531 2.1462-1.4152 3.3751-1.9685-.5203-1.2324-1.0538-2.394-1.5942-3.4709z" fill="#fc0"/><path d="m88.7992 19.1047-.5124.2324c-.9332.597-1.776 1.3231-2.5041 2.1524.3286.4256.6603.8879.9937 1.3839 1.0177-.761 2.1568-1.4303 3.3933-1.989-.4617-.6697-.92-1.2657-1.3705-1.7797z" fill="#fc0"/><path d="m94.3551 19.3983c-.4549-.6997-.9073-1.3378-1.3539-1.9077-1.1073.1526-2.1662.461-3.1532.903.4389.6021.8827 1.2576 1.3277 1.9632 1.0076-.3931 2.0712-.7156 3.1794-.9585z" fill="#fc0"/><path d="m86.9858 35.5345c.1803-.3613.3812-.7153.6013-1.0612-.6493-1.1852-1.3047-2.2902-1.9568-3.3045-.5514.8684-.9813 1.788-1.2728 2.7463.2017.4968.4353.9776.6983 1.4397.0009-.0008.0017-.0014.0027-.0022.1334-.0817.2498-.1372.3981-.189l.2819-.052c.3013-.0103.5302.0349.8094.1474l.2438.131c.0694.0471.1335.0949.1941.1445z" fill="#fc0"/><path d="m84.0971 33.2124c.273-.9028.6689-1.7712 1.1733-2.595-.5873-.8845-1.1707-1.6919-1.7436-2.4141-.0364.3817-.0557.7681-.0557 1.1591 0 1.3446.2202 2.6391.626 3.85z" fill="#fc0"/><path d="m88.8093 27.7029c-1.0114.798-1.8926 1.6903-2.6184 2.6565.6421 1.0587 1.2868 2.1748 1.9297 3.3423.678-.9071 1.4927-1.7496 2.4235-2.5104-.569-1.2562-1.1501-2.424-1.7348-3.4884z" fill="#fc0"/><path d="m86.5457 24.1251c-1.0014.8501-1.8608 1.7964-2.5503 2.8181.6061.8857 1.2206 1.8321 1.839 2.8334.7202-.9857 1.602-1.8963 2.6174-2.7111-.6373-1.1122-1.2766-2.0991-1.9061-2.9404z" fill="#fc0"/><path d="m83.4813 26.2038c.0466.0661.0935.1325.14.1993.6788-1.0172 1.5255-1.9608 2.513-2.8096-.3156-.3922-.6279-.7465-.9357-1.0602-.7724 1.1004-1.3599 2.339-1.7173 3.6705z" fill="#fc0"/><path d="m89.2628 33.2451c-.3333.3366-.6493.6827-.9467 1.0369.2947.3972.5897.8028.8842 1.2168l.0103-.0003c.178.0234.3225.0577.4913.1165.2019.0962.3561.1922.5146.3507l.3296-.2751.2157-.1256.2245-.0935.2299-.0593.0098-.001c.2714-.1972.5509-.3884.8374-.5734-.3913-1.0201-.7934-2.0009-1.2032-2.9364-.5693.4225-1.1025.8717-1.5974 1.3437z" fill="#fc0"/><path d="m94.1398 34.5966c-.405.2068-.7982.4256-1.179.6557.3519.9849.693 2.0065 1.0207 3.0605.2248-.1177.4535-.2317.6855-.3419-.2856-.4279-.4982-.9342-.6053-1.4926-.1266-.6606-.0896-1.3077.0781-1.8817z" fill="#fc0"/><path d="m93.5969 39.0074c-.1206-.3232-.2425-.642-.3652-.9556-.1401.0958-.2785.1931-.4149.2919-.1015.1102-.2143.2072-.3525.2864l.0493.0745.0985.1977.0703.2055.0402.2107.0073.2022c.2819-.1775.5712-.3484.867-.5133z" fill="#fc0"/><path d="m95.0383 40.4367.184-1.2885-.8591.368z" fill="#f2c12e"/><path d="m89.6928 40.1634c.6795.7243 1.6854 1.2355 2.8423 1.3528 2.0215.2048 3.8331-.8602 4.3213-2.4407.0251-.0809.0466-.1631.0648-.2469.002-.0103.0044-.0207.0065-.0311.0026-.013.0051-.0259.0077-.039.0033-.0179.0065-.0359.0095-.0538.0013-.0074.0027-.0151.0038-.0226.004-.0238.0074-.0477.0107-.0719.0007-.0048.0011-.0094.0018-.0142.0032-.0234.0059-.0472.0084-.0708.0004-.0035.0008-.007.0013-.0105.0002-.0021.0003-.004.0005-.0061l.353-.1427c.2223-.0529.4063-.1253.6075-.2419.0042-.0027.0082-.0056.0123-.0083l.1848-.0744c.0507.113.1075.2234.1702.331.0008.0016.0017.003.0027.0046.0122.0214.025.0424.0379.0635.0003.0005.0005.0009.0008.0014.7657 1.2492 2.3231 2.1077 4.1128 2.1077 2.3424 0 4.2863-1.47 4.5789-3.362h1.2525c.2924 1.892 2.2365 3.362 4.5787 3.362 1.7898 0 3.3472-.8585 4.1129-2.1077.0003-.0005.0005-.0009.0008-.0014.0129-.0211.0257-.0421.0379-.0635.001-.0016.002-.003.0028-.0046.0626-.1076.1194-.218.1701-.331l1.1576.4673c.0002.0021.0003.004.0005.0061.0005.0035.001.007.0013.0105.0025.0236.0052.0474.0084.0708.0007.0048.0011.0094.0018.0142.0033.0242.0067.0481.0107.0719.0011.0075.0024.0152.0038.0226.003.0179.0062.0359.0096.0538.0025.0131.0051.026.0076.039.0021.0104.0045.0208.0067.0311.018.0838.0396.166.0646.2469.4882 1.5805 2.2999 2.6455 4.3213 2.4407 1.1569-.1173 2.1629-.6285 2.8423-1.3528l.5704.7514c-.6784.6325-1.542 1.1346-2.5357 1.4231-2.5994.7548-5.2297-.1995-6.26-2.1469-1.0836.8462-2.5643 1.3834-4.2031 1.4164-2.2426.0452-4.2316-.8652-5.3345-2.2553h-.4055c-1.103 1.3901-3.092 2.3005-5.3345 2.2553-1.6389-.033-3.1196-.5702-4.2032-1.4164-1.0303 1.9474-3.6606 2.9017-6.26 2.1469-.9937-.2885-1.8573-.7906-2.5356-1.4231l.5703-.7514z" fill="#fc0"/><path d="m114.313 33.53.1256-.9349c1.0633.1517 2.0943.3733 3.0851.6575-.051.1408-.1022.2819-.1527.4235l-.1475.0622-.3613.2479-.3119.3133-.2566.3693-.1963.418c-.0625.1929-.1135.3769-.1478.5775-.0456.3592-.0359.6825.0386 1.0374l.0603.2162c.0044.0125.0086.0247.0131.0372-.6187-.1544-1.2516-.284-1.8972-.3883l.1752-.1271.1767-.1722.154-.1996.1277-.2245c.1169-.2894.2115-.5797.2115-.8952l-.0421-.2921-.0699-.2646-.0995-.2458-.1277-.2247-.154-.1995-.1767-.1724z" fill="#fc0"/><path d="m113.605 39.7726-.5368.0335.5086-2.4773c.9183.2757 1.8006.6055 2.6409.9834l-.5997.7558-1.0569.5536z" fill="#fc0"/><path d="m117.535 18.7299.5167-1.3445.3656-.8399 2.9087.5241c-.537.6127-1.0868 1.3068-1.6431 2.0741-.6987-.1697-1.4155-.3084-2.1479-.4138z" fill="#fc0"/><path d="m114.766 26.6295.8126-2.8045.2303-.5995c.379.0671.7537.1427 1.1233.2274-.5874 1.0294-1.1718 2.1245-1.7466 3.2767-.1391-.0346-.2789-.0679-.4196-.1001z" fill="#fc0"/><path d="m116.08 22.5186 1.2281-3.1968c.6721.1011 1.331.2301 1.9745.3857-.6481.9299-1.3032 1.9557-1.9568 3.0656-.4093-.0956-.8247-.1805-1.2458-.2545z" fill="#fc0"/><path d="m118.246 23.0082c.6687-1.1092 1.3376-2.1287 1.9979-3.0458 1.0931.3166 2.1362.7103 3.1184 1.1708-.6532.9259-1.3127 1.9349-1.971 3.0181-.9916-.4525-2.044-.8363-3.1453-1.1431z" fill="#fc0"/><path d="m114.076 31.1859c.5002-1.1497 1.0136-2.2593 1.5358-3.3225 1.0853.3044 2.1236.6827 3.107 1.1241-.5125 1.016-1.0169 2.07-1.5088 3.1572-.9978-.3867-2.0453-.7086-3.134-.9588z" fill="#fc0"/><path d="m124.276 21.589c1.2001.6393 2.2952 1.3825 3.2631 2.2097-.6533.8805-1.3165 1.8644-1.9811 2.9386-.9805-.8119-2.0866-1.5389-3.2945-2.1619.6755-1.1059 1.35-2.107 2.0125-2.9864z" fill="#fc0"/><path d="m126.392 19.3336.4955.2663c.8907.6588 1.6826 1.4401 2.3531 2.3166-.3567.4027-.7188.8413-1.0849 1.3136-.9639-.828-2.0552-1.5727-3.2513-2.2135.506-.637 1.0035-1.2007 1.4876-1.683z" fill="#fc0"/><path d="m120.829 19.2511c.501-.6673.9957-1.2734 1.4796-1.812 1.0946.2271 2.1303.6064 3.0853 1.1141-.4789.571-.9657 1.1949-1.4573 1.8691-.979-.4603-2.0183-.8539-3.1076-1.1712z" fill="#fc0"/><path d="m115.899 27.2077c.5888-1.1584 1.1865-2.2561 1.7863-3.2841 1.1028.3018 2.1565.6813 3.1505 1.1288-.6193 1.0484-1.2358 2.1598-1.8425 3.3262-.9747-.4599-2.0097-.853-3.0943-1.1709z" fill="#fc0"/><path d="m121.709 25.4711c1.2093.6159 2.3177 1.3357 3.3024 2.1405-.6346 1.0591-1.2682 2.1982-1.893 3.4067-.96-.8197-2.0458-1.5569-3.2343-2.1918.6022-1.1945 1.2131-2.3174 1.8249-3.3554z" fill="#fc0"/><path d="m125.641 28.1521c.9555.8646 1.7739 1.8143 2.433 2.8275-.712 1.0128-1.4306 2.0829-2.1511 3.2045-.6151-.951-1.3709-1.8468-2.2482-2.6688.6524-1.2147 1.311-2.3404 1.9663-3.3632z" fill="#fc0"/><path d="m131.219 26.7756c-.051.0626-.1022.1259-.1532.1892-.6085-1.0603-1.3897-2.0591-2.3174-2.9726.3411-.3701.6769-.7026 1.0051-.9949.6965 1.1502 1.1989 2.4258 1.4655 3.7783z" fill="#fc0"/><path d="m119.706 29.4115c1.1429.6915 2.1866 1.4719 3.1144 2.3207-.5383.8966-1.0733 1.8313-1.6012 2.8006-.9615-.777-2.0268-1.4839-3.1797-2.1038.5487-1.0486 1.1058-2.0565 1.6665-3.0175z" fill="#fc0"/><path d="m124.738 33.7893c.2819.3808.5455.7682.7896 1.1611-.0639.0644-.1278.129-.1921.1941-.051-.0042-.1029-.0067-.1569-.0083-.1737.0105-.3202.0327-.4881.0751-.2124.078-.3722.1583-.5407.3109l-.1703-.0797-.1966-.062-.2051-.0348-.2114-.0059-.2137.0244-.212.0558-.2051.0872-.191.114-.1376-.0441c-.2158-.207-.4385-.4098-.6677-.609.5325-.9541 1.0698-1.868 1.6083-2.7359.5035.4993.9677 1.0197 1.3904 1.5571z" fill="#fc0"/><path d="m121.723 36.0004c.0881.0797.175.1601.2607.2414l-.0522.114c-.1121.2488-.1468.4873-.1602.7576l.0197.2212c.0568.2361.1235.4499.2783.6429-.151.19-.1974.3957-.2259.6317l.0074.1907.0906.3532c.0785.17.1587.3051.2692.4565l.2478.2609c.1497.1236.2932.2239.4598.3235.0769.0383.1512.0724.2261.104-.077.1145-.154.2295-.2312.3452-.2709.0361-.5533.0464-.8424.0278-.4806-.0311-.9332-.1392-1.3383-.3067-.3058-.3442-.6316-.6781-.9758-1.0007.6525-1.2145 1.3112-2.3406 1.9664-3.3632z" fill="#fc0"/><path d="m127.087 35.8379c-.1545-.3691-.3296-.7325-.524-1.089.7279-1.1387 1.4565-2.1968 2.1756-3.1647.4914.9033.8582 1.85 1.0843 2.826-.1426.2926-.2965.5785-.461.8571-.2315-.1306-.5004-.1868-.7646-.2069-.1797.0034-.3305.0219-.5067.0605-.1815.0595-.3269.1247-.4926.22-.1652.1188-.2911.2322-.4289.3821-.029.0389-.0563.0771-.0821.1149z" fill="#fc0"/><path d="m130.131 33.7266c-.2114-.9192-.5477-1.8123-.9953-2.6683.6457-.8428 1.2824-1.609 1.9028-2.291.0105.3835.0037.7703-.0228 1.1603-.0907 1.3415-.3982 2.6183-.8847 3.799z" fill="#fc0"/><path d="m128.302 24.4946c.9417.9157 1.7352 1.9181 2.3542 2.984-.6646.8427-1.3418 1.7455-2.0262 2.7026-.6522-1.0322-1.4703-2.0001-2.4285-2.8817.711-1.0667 1.4155-2.0081 2.1005-2.8049z" fill="#fc0"/><path d="m116.628 16.3272 1.0039.1713c-2.1365 4.6844-3.9653 9.9435-5.2134 15.1316l-.0259-.0292-.2778-.1977-.31-.1293c1.2201-5.1207 2.8128-10.2511 4.8232-14.9467z" fill="#fc0"/><path d="m107.566 33.0794c.8292 0 1.5054.8642 1.5054 1.9235 0 1.0594-.6762 1.9233-1.5054 1.9233-.829 0-1.5051-.8639-1.5051-1.9233 0-1.0593.6761-1.9235 1.5051-1.9235z" fill="#fc0"/><path d="m100.501 34.9925h.0003c.1042-1.1944 1.1634-1.4912 1.8701-.9931l.0611-.0768c-1.6248-1.4662 1.8251-2.9003 3.1006.0575l-.009.0402c-1.459.6364-2.3588.7203-3.9514.8852 1.5357-.0405 2.2839.1052 3.9514.8849l.0351.1564c-1.2539 3.0394-4.7629 1.5957-3.1267.1195l-.0611-.0767c-.7067.4981-1.7659.2012-1.8701-.9933h-.0003c0-.0006.0002-.0012.0002-.0019 0-.0004-.0002-.0012-.0002-.0019z" fill="#fc0"/><path d="m107.409 28.0675v.0004c1.1793.1062 1.4722 1.1894.9804 1.912l.0759.0624c1.4476-1.6615 2.8635 1.8662-.0567 3.1704l-.0397-.0091c-.6284-1.4918-.7114-2.412-.8738-4.0402.0398 1.5701-.1042 2.3352-.8738 4.0402l-.1545.0359c-3.0008-1.2822-1.5756-4.8702-.118-3.1972l.076-.0624c-.4919-.7226-.199-1.8058.9803-1.912v-.0004c.0007.0001.0013.0001.0019.0001.0005 0 .0013 0 .002-.0001z" fill="#fc0"/><path d="m114.515 34.89h-.0003c-.1046-1.1109-1.1693-1.3868-1.8792-.9236l-.0613-.0714c1.6409-1.5966-2.0796-2.9878-3.3221-.2065 1.0569.6139 1.8348.7651 2.9974 1.0398-1.3241-.0815-1.7958.2535-2.8609 1.2651 1.1798 2.8225 4.8703 1.44 3.1856-.1046l.0613-.0716c.7099.4634 1.7746.1874 1.8792-.9235h.0003c0-.0007-.0001-.0013-.0001-.0018 0-.0006.0001-.0013.0001-.0019z" fill="#fc0"/><path d="m107.532 31.9624c.0576.2968.125.497.2444.7761-.1012-.022-.2052-.0335-.3112-.0335-.0574 0-.1142.0035-.1701.01.0889-.2521.1667-.4952.2369-.7526z" fill="#fc0"/><path d="m104.602 34.8437c.3734.0976.7429.2005 1.1139.3095-.0057-.0492-.0075-.0993-.0049-.1503 0-.1859.0169-.3668.0488-.5406-.3956.1577-.7461.2767-1.1578.3814z" fill="#fc0"/><path d="m110.311 34.8425c-.3374.1176-.5455.2112-.851.4378.0512-.3471.0485-.4936-.0368-.8363.3041.1646.5735.2856.8878.3985z" fill="#fc0"/><path d="m96.4841 34.127c.8178-.1567 1.6416.5326 1.8337 1.5349.1923 1.002-.3178 1.9474-1.1356 2.1041-.8178.1571-1.6416-.5324-1.8337-1.5345-.1923-1.0024.3178-1.9476 1.1356-2.1045z" fill="#fc0"/><path d="m119.135 34.09c-.8666-.2609-1.834.3924-2.1537 1.4544-.3197 1.0619.1261 2.1408.9926 2.4017.8665.2608 1.834-.3924 2.1537-1.4544s-.1261-2.1408-.9926-2.4017z" fill="#fc0"/><path d="m86.7157 38.9572c.3733-.4084 1.182-.2807 1.8004.2846.618.5651.8176 1.3592.4442 1.7677s-1.182.2806-1.8004-.2845c-.6182-.5652-.8177-1.3593-.4442-1.7678z" fill="#fc0"/><path d="m90.4497 36.6269-.1865.4832-.303.0025c.2862-1.2935-2.3125-1.6843-2.033.9896.9518.4527 2.0679.4008 2.9591-.237-.7899.7911-.8969 1.0213-1.3327 1.9581 1.0676 1.4832 3.7711.0915 1.9375-1.3394l-.0559-.1414c2.5233-.3687.5502-3.6901-.9855-1.7156z" fill="#fc0"/><path d="m86.1906 38.3423.9129.074c.1795-.7977.1742-.9741-.0123-1.7762-.5554-1.1557-1.9882-1.332-2.1215.1357l-.0987.0246c-.9086-1.3377-2.463-.2483-1.8009 1.1595.7135-.0822 1.1198-.1443 1.7514-.4688.2626.4161.4337.4303.9127.5058l.2716.222z" fill="#fc0"/><path d="m84.3899 38.404 1.5912.8633.0122-.3329-.3576-.3331-.5921-.4934-.5797-.074z" fill="#fc0"/><path d="m89.402 39.5416c.242-.4266.4581-.7316.7609-1.1151-.5512.2553-.7447.2731-1.3275.3007.3115.2893.402.4176.5666.8144z" fill="#f2c12e"/><g fill="#fc0"><path d="m122.551 36.4852.0002.0001c.5582-.8145 1.4379-.5984 1.7431.0448l.1491-.0303c-.3226-1.1236 2.5232-1.1917 2.1262 1.2965l-.0228.0252c-.2627.5852-2.0189-.2307-3.062-.5938.7633.5454 1.0753.8714 1.5285 1.7704l.0362.7389c-2.0577.8082-3.6582-1.609-1.6966-1.6999l.0244-.0984c-.6716.0772-1.2876-.5604-.8277-1.4505l-.0002-.0002c.0002-.0005.0007-.0009.0008-.0012.0002-.0005.0005-.0012.0008-.0016z"/><path d="m124.646 38.1159 1.054.5719.008-.2205-.238-.2207-.39-.3267-.385-.0491z"/><path d="m107.613 43.1441 2.071 1.2343 2.0708 1.2343-2.0708 1.2344-2.071 1.2345-2.071-1.2345-2.071-1.2344 2.071-1.2343zm0 .6102 1.5591.9295 1.5592.9289-1.5592.9292-1.5591.9294-1.559-.9294-1.5593-.9292 1.5593-.9289z"/><path d="m105.687 47.5401c-5.8715.1616-10.9153.9996-13.7624 2.1826l.4446-.3834 2.0829-1.7969-2.0931-1.4802-.5369-.3795c2.891-1.2324 8.1514-2.0995 14.264-2.235l-1.0527.6274-2.5799 1.5376 2.5799 1.5376zm-9.3902-2.6254 3.1966-.3722c.8283-.0965 1.5849.5023 1.6814 1.3308.0965.8282-.5024 1.585-1.3306 1.6813l-3.1966.3723c-.8283.0965-1.5849-.5025-1.6814-1.3308-.0963-.8282.5026-1.585 1.3306-1.6814z"/><path d="m109.129 43.4411c6.8034.1223 12.5926 1.1503 15.3056 2.5856l-1.2206.4819-2.3131.9135 1.6532 1.912c-3.0052-.9941-7.6753-1.6757-13.0024-1.8014l.6411-.3824 2.58-1.5376-2.58-1.5376zm9.2309 1.4294-3.1966-.3723c-.8282-.0963-1.585.5024-1.6814 1.3308-.0965.8283.5024 1.5851 1.3308 1.6812l3.1964.3725c.8283.0963 1.5849-.5024 1.6814-1.3309.0965-.8281-.5024-1.585-1.3306-1.6813z"/><path d="m124.737 46.5398-.309.1223-2.314.9134 1.73 2.0006.215.2488.15-.7222-1.162-1.3439 1.567-.619z"/><path d="m90.8768 45.7717.7177.5076 1.8592 1.3145-1.8501 1.5958-.6844.5903-.0099-.9362 1.4489-1.2499-1.4731-1.0417z"/><path d="m108.526 42.1988h-.0001c.0325.0611.0642.1203.0955.1723.1229.1844.2714.2744.4331.3122-.2818.0585-.6238.08-.8855-.0458-.1255-.0541-.2302-.1583-.3543-.4028h.0003c-.0268-.0548-.0528-.1079-.0787-.1545-.1483-.1768-.2998-.2691-.4698-.3125.5611-.0872.9637-.1183 1.2595.4311zm-.2809-.4083c.1787-.0301.3587-.0577.6179-.0415.2438.0536.4587.1789.636.4612h-.0003c.0314.061.062.1202.0923.1722.121.2151.277.309.4462.3444-.5492.0619-1.0621.0462-1.323-.5256h.0001c-.0322-.0609-.0641-.1202-.0953-.172-.1113-.1218-.2352-.1976-.3739-.2387zm.8813.0132c.7287-.1519 1.126-.0386 1.5173.6496.1163.1628.2453.2448.3854.2812-.5729.139-1.0686.0446-1.3485-.5219h.0002c-.0313-.061-.0619-.1203-.0922-.1721-.1738-.1488-.2494-.2151-.4622-.2368zm1.0127.0192c.201-.0316.3634-.0461.5679-.0275.2826.0475.5307.1735.7225.5144h-.0001c.0312.0611.0618.1203.0921.1722.0957.1714.2113.2705.3376.3263-.3127.0572-.5012.0218-.7772-.1006-.1255-.0536-.231-.1592-.3607-.4066h.0003c-.0258-.0559-.0507-.1102-.0755-.1577-.164-.1826-.3263-.2772-.5069-.3205zm1.0187.0237c.6466-.0958 1.0782.0668 1.3748.7034.0812.1752.1813.2706.2907.3214-.2829.0418-.5232.007-.7869-.0974-.1486-.0754-.2698-.1968-.4253-.4618h.0004c-.0315-.0609-.0621-.1202-.0924-.172-.1041-.1474-.2248-.2395-.3613-.2936zm.9515.0525c.6622-.0308 1.0857-.0255 1.404.7268.1221.1811.2214.2776.3174.327-.2891.0043-.6824.0313-.9277-.1513-.1177-.101-.1644-.1571-.2991-.4079h.0001c-.0234-.0574-.0465-.1131-.0693-.1618-.1379-.1774-.2754-.2781-.4254-.3328zm.9994.0827c.7225-.0663 1.0703.1268 1.3107.7332.104.1625.2295.2511.3712.2966-.7365.0512-.9294.006-1.2089-.5452h.0001c-.0225-.0584-.0446-.115-.0665-.1649-.1355-.1672-.2663-.2653-.4066-.3197zm.8679.0605c.6699-.0287 1.1149.0749 1.383.769.105.1784.2229.2746.3536.3264-.2997.0217-.6126-.0185-.8833-.1529-.1201-.0596-.2147-.1676-.3151-.4101h.0003c-.0211-.0569-.0418-.1126-.063-.1614-.1401-.2058-.2939-.3141-.4755-.371zm.922.1022c.6598-.0289 1.1205.073 1.3566.7717.1037.2009.2274.3014.3663.3526-.3089.0108-.6433-.0292-.914-.1875-.1019-.0597-.1818-.1675-.2669-.4102h.0001c-.0178-.0569-.0354-.1125-.0536-.1613-.1569-.199-.3114-.307-.4885-.3653zm.9712.143c.6613-.0668 1.1119.1087 1.3432.7812.078.1798.166.2734.2697.3284-.2323.0035-.4243-.0134-.6399-.0878-.093-.0458-.1655-.0753-.24-.1233-.1016-.0595-.1818-.1674-.2669-.4099h.0002c-.0179-.057-.0354-.1126-.0533-.1616-.1287-.177-.2612-.2753-.413-.327zm.9078.0918c.6105-.0106.9597.1386 1.1334.7965.0894.1906.1872.284.3029.3368-.2171.0056-.4885-.0225-.6735-.1496-.0973-.0668-.1692-.1802-.2366-.4283h.0001c-.0137-.058-.0272-.1148-.0416-.1649-.146-.213-.3004-.3271-.4847-.3905zm.7411.0992c.6372.0072.9738.1166 1.1468.8177.0864.2121.1877.2988.3119.343-.2424.0089-.5423-.0506-.7389-.169-.0971-.0668-.1692-.1804-.2366-.4285.0001 0 .0001.0002.0001.0002-.0137-.0582-.0271-.115-.0414-.1651-.1246-.2221-.2671-.3366-.4419-.3983zm.8112.1329c.1755.0146.3233.0277.4936.0725.4211.0856.3885.539.4592.7086.1243.2232.3081.3382.5207.41-.2547-.0129-.6165-.0531-.8325-.2119-.0908-.0669-.1579-.1804-.2207-.4285 0 0 0 .0002.0001.0002-.0127-.0582-.0253-.1148-.0387-.1649-.1089-.2084-.2325-.3219-.3817-.386zm-10.2239.0805c-.2844.0371-.6003.1036-.9191-.068-.1253-.0473-.2302-.1452-.3541-.3764h.0002c-.0267-.0549-.0528-.108-.079-.1547-.1648-.1889-.3331-.2774-.5257-.3108.1996-.0215.3089-.0575.6016-.062.4594.0282.6528.243.904.6637.0971.1918.2283.276.3721.3082zm-1.0225.0022c-.2902.0427-.514.0392-.7962-.0421-.1319-.0494-.2419-.1524-.3722-.3954h.0002c-.0282-.0574-.0556-.1132-.0828-.1624-.1404-.1626-.2847-.2497-.4451-.2895.6153-.0636 1.0345-.051 1.3642.5917.0881.1737.2041.2591.3319.2977zm-.9319.0145c-.2883.0274-.4656.0475-.7496-.0408-.1331-.0482-.2443-.1483-.376-.3843h.0002c-.0284-.056-.0561-.1102-.0837-.1577-.1464-.1598-.2958-.2454-.4616-.2851.2192-.0347.2489-.0437.4696-.0457.368.0366.6489.2007.8795.618.0866.166.1982.2532.3216.2956zm-.8467.0241c-.2773.0242-.5252.0651-.7995-.0171-.1373-.0497-.2519-.1526-.3878-.3956h.0003c-.0295-.0574-.058-.1133-.0864-.1621-.1398-.1518-.2838-.2336-.4431-.27.1585-.0121.2605-.0367.4777-.0349.4031.0185.6356.2039.8738.5825.0963.1789.2242.2624.365.2972zm-.8987.0364c-.2922.0333-.5252.0837-.8156-.0059-.1371-.0482-.2519-.1483-.3876-.3845h.0002c-.0292-.0558-.0581-.11-.0865-.1577-.1503-.1588-.3053-.2387-.4794-.2696.1808-.0357.2226-.0522.4495-.0678.4777.0329.6869.1921.9422.593.099.1804.2315.262.3772.2925zm-.9009.0486c-.364.0223-.5668.0805-.8494-.0148-.143-.0482-.2624-.1483-.4037-.3845h.0001c-.0304-.0558-.0601-.11-.0899-.1575-.1341-.1376-.2743-.2088-.43-.236.1591-.014.3192-.0276.4802-.0407.3786.0169.6677.1622.9016.5466.102.181.2398.2595.3911.2869zm-.7786.0521c-.3369.0442-.6325.1174-.9687.0133-.1349-.0482-.2478-.1483-.3811-.3843h.0002c-.0289-.0561-.0569-.1102-.0848-.1579-.126-.1368-.2577-.2079-.4041-.2355.5552-.0797.9976-.0976 1.2715.465.1413.2404.3482.3005.567.2994zm-.9709.078c-.3053.0518-.5315.1072-.8398.0289-.1418-.046-.2601-.141-.4001-.3653-.0301-.0533-.0596-.1046-.089-.1499-.1821-.1789-.3752-.2397-.6043-.2368.5997-.1022 1.0793-.2 1.467.426.1184.2134.2857.2845.4662.2971zm-.8947.0855c-.3031.0465-.5322.0816-.843.0395-.1418-.0459-.2602-.1409-.4002-.3655h.0001c-.0301-.0529-.0596-.1044-.0891-.1497-.152-.1357-.3114-.1934-.4927-.1999.472-.1376 1.0359-.2287 1.388.3981.1127.1839.2677.2566.4369.2775zm-.8629.0778c-.2592.052-.5983.1204-.856.0649-.1553-.0378-.2896-.1303-.4573-.3596h.0002c-.0366-.0545-.0721-.1075-.1072-.1534-.1467-.1244-.2945-.1859-.4543-.2044.5297-.1925 1.0744-.1478 1.4026.3934.124.1813.2907.2471.472.2591zm-.8941.1306c-.3186.073-.5731.1451-.8781.0807-.1619-.0396-.3017-.1359-.4763-.3749h.0002c-.0383-.0566-.0753-.1116-.1118-.1598-.1263-.103-.2539-.161-.3888-.1856.1156-.025.232-.0497.3492-.0741.414-.0388.7375.0712.9997.4504.1392.1934.3169.2574.5059.2633zm-.9199.1277c-.5094.1054-.9851.3007-1.3826-.2465h.0001c-.0395-.0558-.0781-.1099-.1156-.1568-.0813-.0518-.1605-.1006-.2461-.1263-.1026-.0309-.2118-.0325-.3252-.0253.3436-.1.74-.2462 1.0963-.1088.1722.0669.3146.2123.4482.4108.1553.1697.3336.2381.5249.2529zm-.9789.1614c-.3202.0704-.5968.1516-.9133.1342-.1915-.0373-.3428-.1256-.5056-.3489h.0001c-.045-.0513-.0893-.1009-.1315-.1438-.1687-.1016-.3376-.1496-.5202-.1472.5372-.1814.9389-.367 1.4652.112h-.0001c.0394.0558.0781.1098.1157.1569.1482.1535.3135.2197.4897.2368zm-1.0184.1945c-.4104.1043-.4973.1693-.8837.1268-.1974-.0303-.3557-.1129-.5326-.33.0002 0 .0002-.0001.0004-.0001-.0472-.0494-.093-.0976-.1369-.1387-.1449-.0802-.2884-.1228-.4388-.1289.1319-.0343.2658-.0682.4012-.1015-.0182.0076-.0367.0156-.0552.0239.3869-.1242.709-.1156 1.0462.1747l-.0001.0002c.0451.051.0892.1009.1317.1437.1465.1527.305.216.4678.2299zm-.899.1902c-.1692.038-.3361.0767-.5005.1161-.1633.0096-.3004.0241-.4239.018-.1978-.0097-.3589-.0759-.5434-.2688.0002 0 .0002-.0002.0004-.0002-.0492-.0475-.0967-.0937-.1423-.1333-.1647-.0829-.3259-.1193-.4949-.1102.282-.1181.4319-.1554.6772-.1945.2439-.0273.4721.0309.7127.2223h-.0001c.0467.0496.0928.0976.1366.1389.1839.1781.3803.225.5782.2117zm-1.0109.2432c-.2328.0596-.4604.1212-.6823.1838-.3059.008-.4864-.0467-.7696-.2444l.0004-.0002c-.074-.0468-.1461-.0924-.2135-.1299-.1421-.086-.2853-.1143-.4275-.1069.4703-.2082.9623-.4244 1.44-.0299h-.0002c.049.0476.0967.094.1421.1334.1663.149.3384.1978.5106.1941zm-.9963.2746c-.8207.2717-.9028.19-1.5553-.1314-.1968-.0518-.3637-.068-.5737-.0161.4273-.3244.8121-.4792 1.4413-.0734-.0002.0002-.0002.0002-.0003.0002.0784.0563.1459.0926.2132.1301.1643.0915.3182.1073.4748.0906zm-.8146.2361c-.0972.0502-.1936.1008-.2882.151-.785.3239-1.1185-.3897-1.8622-.1602 1.1511-.7769 1.2589.0752 2.1504.0092zm-.7788.317c-.1521.0541-.3025.1078-.4498.1619-.1019.0303-.1925.0574-.2788.0711-.2005.032-.3744.0075-.6001-.1373 0 0 .0001-.0002.0001-.0002-.059-.0325-.1164-.0642-.1701-.0902-.1536-.0359-.3035-.042-.449-.0102.5852-.3658.7382-.2861 1.3834-.0313.2121.0655.3686.0743.5643.0362zm-.7536.2759c-.1685.12-.2822.1773-.4881.2452-.1259.0359-.2639.0472-.5262-.0225h.0002c-.2422-.1529-.3153-.2133-.4057-.2181v-.1558c.2858-.1867.584.0069.8297.1357.2085.0593.4004.0561.5901.0155zm-.6073.3069c-.1236.0641-.2437.1276-.3609.1918-.0553.0201-.1078.0375-.1591.0498-.0995.0241-.1934.033-.2925.0198v-.483c.137.1146.347.3418.8125.2216zm-.6777.3792c-.0458.0285-.0909.0572-.1348.0859v-.0649c.0456-.0028.0906-.01.1348-.021zm29.3912-3.2076c.2236.0428.4438.0869.6605.1322.2045.0735.3503.2158.4447.531.1346.3103.2645.4929.4799.5997-.2471.0054-.5638-.0997-.855-.2639-.1773-.1016-.2983-.2314-.3855-.4908h.0001c-.0226-.066-.0446-.1301-.0677-.187-.0562-.1537-.1504-.2658-.277-.3212zm.9507.2124c.7062.1067.8712.1638 1.1491.7072.1603.2943.3049.4712.5296.575-.4355-.045-.6243-.0325-.9416-.2684-.1575-.1145-.261-.2527-.3173-.52.0002 0 .0002.0002.0003.0002-.0333-.0666-.066-.1315-.099-.1893-.0906-.1261-.1964-.2293-.3211-.3047zm.8645.2306c.8008.0186 1.0704.174 1.2683.7641.1096.2621.2159.4375.366.5578-.4432-.1113-.3693-.0657-.7436-.2703-.1649-.1185-.2746-.2596-.3407-.532 0 0 .0001.0002.0001.0002-.0502-.0654-.0928-.1365-.132-.1905-.121-.1394-.2575-.251-.4181-.3293zm1.065.2366c.5764.1335 1.1197.1808 1.2005.7947.0989.3119.2056.5044.3966.6326-.3329-.0569-.5412-.1121-.8172-.2952-.1556-.1275-.2578-.2761-.3111-.5616 0 0 0 .0002.0002.0002-.0299-.0641-.0589-.1266-.0884-.1821-.1039-.1647-.2285-.2956-.3806-.3886zm1.1513.3465c.5327.1105.9159.2314 1.0015.8446.0872.2646.1778.4459.3136.5768-.3699-.0954-.4941-.1218-.718-.3371-.1532-.1354-.2487-.2877-.2883-.5662 0 0 0 0 .0002.0001-.0129-.0671-.0255-.1323-.0404-.1908-.0719-.1303-.1599-.2406-.2686-.3274zm.8836.3621c.218.0026.37.046.5449.1244.332.1826.4358.3497.5252.7773.1085.2668.2134.4562.3625.6036-.3049-.0825-.4205-.1139-.7105-.2705-.1695-.1727-.2792-.3554-.3429-.6888h.0002c-.0145-.0667-.0289-.1316-.0451-.1898-.0889-.1474-.1981-.2677-.3343-.3562zm.9555.3846c.328.1536.6989.2805.8138.7021.0519.2358.1184.3758.262.478v.322c-.0437-.0192-.088-.0384-.133-.0573-.1262-.083-.2257-.1302-.3238-.2178-.1446-.1602-.2301-.3281-.2511-.6226h.0001c-.0135-.0656-.0273-.1294-.0429-.1864-.0858-.1636-.1916-.3038-.3251-.418zm.8532.4373c.0764.0457.1507.092.2226.1382v.4528c-.0502-.0685-.0811-.1505-.0933-.2669 0 0 0 0 0-.0001-.0047-.0437-.0094-.0861-.0159-.1244-.0298-.0748-.0673-.1414-.1134-.1996z"/><path d="m106.116 48.1324c.5384-.0709 1.1243-.1059 1.4559.2041.0908.1112.1627.2384.2298.3602h-.0003c.0488.0801.0963.158.1433.226.236.2034.4213.2907.6047.3249-.8303.1812-1.1404.1121-1.7084-.5434h.0003c-.0486-.08-.0963-.158-.1433-.2259-.192-.211-.3086-.3167-.582-.3459z"/><path d="m104.959 48.1739c.5042-.0802.9607-.1944 1.3756.1701.0909.1112.1627.2384.23.3602h-.0004c.0487.0801.0963.158.1432.2261.2249.1925.4039.2834.5782.3242-.8065.1602-1.1229.1186-1.6888-.5421h.0004c-.0488-.0801-.0964-.1581-.1432-.226-.1735-.1744-.2872-.2743-.495-.3125z"/><path d="m103.691 48.2062c.5147-.0845.9937-.2064 1.3987.1459.0907.1112.1626.2384.2299.3603h-.0003c.0486.08.0961.158.1432.2261.2387.1959.4264.2867.6094.3268-.852.2174-1.2828.171-1.7339-.5128h.0003c-.0486-.0802-.0961-.158-.1433-.2261-.1788-.1749-.2971-.2761-.504-.3202z"/><path d="m102.301 48.2724c.3702-.0896.7715-.1746 1.2043-.0617.1292.0396.2097.0943.3255.1818.0908.1111.1628.2382.2299.36h-.0003c.0486.0801.0963.1581.1432.2261.2171.1743.3925.2658.5595.3127-.4243.1172-.6973.1059-1.1168.0335-.2818-.1095-.4076-.3259-.5725-.5161h.0003c-.0451-.0743-.0892-.1464-.1326-.2094-.1998-.2196-.3114-.3157-.6405-.3269z"/><path d="m101.01 48.3579c.4323-.106.7562-.1237 1.1792-.0789.1941.0384.2781.0921.4157.1961.084.103.1505.2207.2129.3336h-.0004c.045.074.0892.146.1327.2092.2153.1856.3851.2678.552.3026-.3409.0979-.7539.1531-1.1868.0541-.2989-.0984-.4228-.3166-.5879-.5069h.0003c-.043-.0707-.0849-.1392-.1262-.1994-.1866-.205-.2923-.2969-.5915-.3104z"/><path d="m99.8344 48.4547c.3426-.0783.6941-.1392 1.0642-.0885.1744.0363.2537.0875.3814.184.08.0981.1433.2101.2026.3175h-.0003c.0429.0704.0849.1393.1263.1993.2188.2152.3876.2899.5627.3138-.3272.0853-.6826.1175-1.0935.054-.2899-.0942-.4096-.3052-.5693-.4895h.0002c-.0413-.0679-.0816-.1342-.1217-.192-.1762-.1935-.2774-.2828-.5526-.2986z"/><path d="m98.6437 48.5738c.3467-.0767.7026-.148 1.08-.1089.1587.0351.2342.084.354.1746.0772.0944.1382.2025.1953.3058h-.0001c.0413.0683.0816.1344.1216.1923.2167.2134.3826.2834.5565.3044-.3468.0737-.6866.11-1.0192.0625-.2835-.0867-.3977-.2892-.5506-.4657h.0003c-.039-.0641-.0773-.1267-.1148-.181-.1861-.2048-.2838-.2856-.623-.284z"/><path d="m97.6757 48.6881c.3018-.0767.6113-.1483.9283-.11.1759.0336.2493.0802.3712.1724.0726.0889.1303.1907.1839.2883h-.0002c.0391.0642.0772.1266.1147.1811.2216.218.3865.2773.5662.2907-.3396.0582-.6711.1098-.9948.0735-.2655-.0858-.3749-.2786-.5208-.447h.0003c-.0378-.062-.0746-.1224-.1111-.175-.1676-.1844-.2611-.2649-.5377-.274z"/><path d="m96.6839 48.8241c.2929-.0835.5938-.1733.9181-.1266.1493.0321.2185.077.3293.1608.0703.0859.126.1844.1781.2788h-.0002c.0377.0624.0745.1227.1109.1753.2053.202.3605.2632.5258.2797-.3141.0625-.6226.1144-.9471.0827-.25-.0819-.3537-.2644-.4918-.4235h.0004c-.0359-.0592-.0712-.1166-.1058-.1666-.1605-.1767-.2493-.2531-.5177-.2606z"/><path d="m95.7656 48.9705c.2583-.0826.5225-.1706.8558-.1371.1411.0304.207.0732.3122.1526.0666.0818.1197.1755.1692.2653h-.0002c.0357.059.071.1164.1054.1665.1958.1926.3435.2503.5012.2658-.3183.0789-.6265.1548-.9378.0973-.2393-.0783-.3383-.2529-.4705-.4052h.0003c-.0344-.0565-.0679-.1113-.1009-.1593-.141-.155-.2241-.2291-.4347-.2459z"/><path d="m94.792 49.1521c.272-.0982.5501-.2167.8902-.1672.1107.0285.1708.0684.2617.1371.0638.0784.1145.1677.1618.2537h-.0001c.0342.0563.0677.1113.1007.1591.1903.1874.3331.2413.487.2548-.3189.0825-.6235.1507-.9038.1112-.2098-.075-.3001-.232-.4193-.3697h.0003c-.0321-.0523-.063-.1033-.0936-.1476-.1475-.162-.2268-.2288-.4849-.2314z"/><path d="m94.0129 49.3229c.2106-.0856.4071-.199.7432-.1634.1298.0271.1883.065.2832.1365.059.0727.106.1557.1497.2351h-.0001c.0317.0523.0629.1032.0936.1477.165.1623.2914.2165.4239.2331-.2772.0778-.5311.1906-.8377.1234-.1997-.0724-.2862-.2222-.4002-.3538h.0003c-.0306-.0502-.0605-.0992-.09-.1419-.1205-.1325-.1934-.1985-.3659-.2167z"/><path d="m93.2552 49.5185c.3243-.1173.5919-.2919.8958-.0628.0566.0697.1016.1494.1438.2258h-.0002c.0305.0501.0603.0989.0898.1416.1596.1572.2819.2087.4101.2244-.2124.0822-.4426.154-.7116.1261-.1816-.0667-.2604-.2033-.3645-.3234h.0003c-.0281-.0458-.0556-.0907-.0823-.1296-.1207-.1325-.1891-.1926-.3812-.2021z"/><path d="m92.5724 49.7311c.1934-.1033.3981-.232.6388-.2.0924.0233.1414.0562.2167.1126.0518.0638.0929.1367.1315.2065h-.0002c.028.0459.0554.0907.082.1296.1481.1456.2606.1923.3793.2057-.1841.0739-.3302.1648-.6325.1365-.1741-.0583-.248-.1833-.3457-.2929h.0003c-.0258-.041-.051-.0811-.0757-.1161-.1198-.1277-.1839-.1803-.3945-.1819z"/><path d="m91.9794 49.9598c.14-.1062.2854-.2222.5723-.2217.1004.0212.1475.051.2227.1062.0479.0569.086.1223.1214.1848.0255.0413.051.0812.0755.1161.1472.1408.2566.1783.376.1867-.1695.0799-.306.1783-.5464.1474-.1781-.0431-.2574-.1613-.3596-.2623h.0003c-.0269-.0378-.0535-.0747-.079-.1064-.1209-.1143-.1852-.1607-.3832-.1508z"/><path d="m91.4296 50.2423c.1464-.1218.3132-.2865.53-.2738.0947.0145.1411.0399.2151.0877.0493.0515.0893.1116.1269.1694h-.0001c.0268.0376.0534.0744.0789.1063.1587.134.2695.1585.3929.1558-.158.0749-.2664.1687-.4863.1748-.1735-.0257-.2642-.1308-.3747-.2174h.0003c-.0313-.0344-.0621-.0679-.0911-.0964-.132-.0984-.2012-.1375-.3919-.1064z"/><path d="m91.4101 50.2544c.0924.004.1412.0241.2186.0621.0549.0454.1016.1006.1458.1533h-.0002c.0311.0345.0616.068.0908.0965.1618.1075.2712.1246.3847.1123-.1199.0767-.2089.1645-.3305.1803-.6796.0995-1.1321-.4713-.5092-.6045z"/><path d="m91.7072 51.2445c.0002-.0003.0002-.0007.0002-.001.0001.0003.0003.0005.0003.0008-.0002.0002-.0003.0002-.0005.0002z"/><path d="m122.969 49.7801c.2338.0443.4544.0819.6437.1779.4412.4544.1389.8033.027.7643-.2214-.0814-.2451-.1479-.2258-.4318h.0001c-.0094-.0503-.0189-.0987-.0304-.1429-.0863-.1633-.2161-.2848-.4146-.3675z"/><path d="m122.103 49.5511c.5512.089.9324.0929 1.0219.6558.0424.2164.1032.3556.2355.4575-.2296-.0284-.357-.0265-.6341-.1839-.1616-.1766-.1239-.3793-.2194-.581-.094-.1619-.223-.2816-.4039-.3484z"/><path d="m121.248 49.2982c.4854.0741.9511.1035 1.1225.6879.0728.2442.1531.3938.3009.4975-.1787-.0145-.378-.041-.5968-.1603-.0673-.0383-.1269-.0733-.178-.1012-.1179-.1026-.1915-.2163-.2225-.4231h.0001c-.0089-.0494-.0178-.0971-.0284-.1401-.1012-.1569-.2288-.2789-.3978-.3607z"/><path d="m120.043 49.078c.5659-.0675 1.2613.0322 1.4354.6675.1118.2667.2182.4238.4098.533-.752-.0572-.8979.0153-1.4027-.7705h.0005c-.0485-.085-.096-.1677-.1422-.24-.1126-.0787-.2069-.1417-.3008-.19z"/><path d="m118.682 48.828c.3475.0027.8129-.0707 1.2993.2978.0897.118.161.2529.2278.3822h-.0001c.0483.085.0955.1675.142.2397.1883.1621.3448.2561.4916.3096-.3198.0075-.6639-.0016-1.0509-.1396-.2933-.1271-.4269-.3712-.6013-.586h.0006c-.0485-.085-.0961-.1679-.1424-.24-.1386-.1169-.2471-.2033-.3666-.2637z"/><path d="m117.329 48.6564c.373-.0034.7346-.0128 1.087.1191.0997.0402.173.0942.2719.1738.0899.1182.1612.2531.228.3824h-.0003c.0483.085.0958.1676.1421.2398.1856.1524.341.2478.4852.3076-.3197-.0021-.6517-.0064-.9987-.1139-.3597-.1181-.5088-.3808-.7076-.61h.0006c-.052-.085-.1027-.1676-.1523-.2399-.1326-.118-.2356-.2031-.3559-.2589z"/><path d="m115.843 48.491c.5849-.0787 1.0904-.1323 1.4555.2821.0963.118.1726.2527.2437.3821h-.0002c.0517.0851.1022.1677.152.2398.2109.1621.3839.2481.5485.29-.8912.0547-1.145.1969-1.7795-.6498h.0006c-.0518-.0849-.1027-.1675-.1521-.2398-.1739-.1494-.2994-.2481-.4685-.3044z"/><path d="m114.355 48.3533c.5895-.0818 1.2052-.1263 1.5703.2999.0962.118.1722.2527.2437.382h-.0002c.0515.0852.1022.1678.1518.2399.2224.1765.4044.2774.5756.3359-.3868.0517-.7837.0102-1.1925-.0945-.3546-.1193-.5029-.38-.7005-.6077h.0006c-.0518-.085-.1028-.1677-.1522-.24-.1659-.1929-.2802-.2546-.4966-.3155z"/><path d="m112.895 48.2681c.5557-.0821 1.2102-.1079 1.5701.2585.096.118.1722.2529.2437.3822h-.0003c.0516.085.1022.1676.1518.2398.2269.2.4094.299.5863.347-.4213.0604-.8517.1055-1.3155-.0432-.3282-.1287-.4548-.3991-.6281-.6369h.0006c-.052-.0848-.1027-.1677-.1523-.24-.1685-.1521-.2895-.2516-.4563-.3074z"/><path d="m111.345 48.186c.5769-.0646 1.1546-.1536 1.6201.2473.0961.118.1723.2529.2436.3822h-.0002c.0517.085.1022.1678.1518.2397.2163.2128.3915.3114.5639.3557-.3907.0544-.7668.0364-1.1352-.0306-.3332-.1239-.4721-.3795-.6577-.6046h.0006c-.0499-.082-.0992-.1619-.1468-.2317-.2065-.2269-.3282-.3347-.6401-.358z"/><path d="m110.038 48.1461c.7051-.0842 1.0854-.1695 1.5751.2607.0928.1139.1662.244.235.3689h-.0001c.0497.0821.0987.1616.1465.2313.2081.2049.3766.3.5428.343-.3428.029-.6939.0557-1.1377-.0375-.3505-.1132-.4948-.368-.6876-.5901h.0007c-.0499-.082-.099-.162-.1469-.2315-.1797-.1976-.295-.3051-.5278-.3448z"/><path d="m108.64 48.1303c.5477-.0951 1.1775-.1851 1.5526.2231.0928.1139.1661.2441.235.369h-.0001c.0497.082.0987.1617.1465.2314.2245.2208.4032.3142.5822.352-.3665.0643-.6964.0975-1.1513.0021-.3376-.1263-.4785-.3844-.6667-.6123h.0007c-.0501-.0818-.0992-.1618-.1469-.2315-.1932-.1883-.3175-.2934-.552-.3338z"/><path d="m108.4 48.1015c.1824.0499.275.113.419.2253.0928.1138.1663.244.2352.3688h-.0002c.0498.0821.0986.1619.1466.2315.2207.2172.397.3113.5731.3502-.3441.0413-.6969.0898-1.0462-.0118-.3261-.1142-.4647-.3565-.6485-.5688h.0003c-.0488-.08-.0963-.158-.1433-.2261-.2059-.2261-.325-.331-.6439-.3506.3591-.0118.6724-.0974 1.1079-.0185z"/></g><path d="m107.627 39.7305c.5131.7652.7931 1.0669 1.5214 1.6275-1.1336-.1156-1.9341-.123-3.07.0292.6499-.5541 1.0384-.9699 1.5486-1.6567z" fill="#f2c12e"/><path d="m117.341 40.6501c-.6536.5474-1.1002.7437-1.8846 1.0811 1.0814.1465 2.1346.3013 3.1555.4651-.5873-.5627-.8759-.8567-1.2709-1.5462z" fill="#f2c12e"/><path d="m97.9817 40.9175c.4597.3501.8094.5432 1.3362.7867-.7761.114-1.5317.2328-2.2642.3564.4034-.3974.6367-.66.928-1.1431z" fill="#f2c12e"/><path d="m128.261 38.2101c-.3734-.4083-1.1821-.2806-1.8002.2845-.6183.5652-.818 1.3593-.4445 1.7678.3734.4086 1.1822.2805 1.8004-.2846s.8178-1.3593.4443-1.7677z" fill="#fc0"/><path d="m129.541 36.3334-.1664.4308.0082-.2019c.1658-1.0879-2.1595-1.4311-2.0917 1.0869.8491.4037 1.8445.3575 2.6392-.2113-.7046.7054-.7999.9106-1.1885 1.7463.6903 1.0811 2.9806-.2715 1.7281-1.1944l-.05-.1263c2.2505-.3288.4908-3.2911-.8789-1.5301z" fill="#fc0"/><path d="m128.717 38.562c.1449-.2549.2741-.4375.4552-.667-.3297.153-.4453.1636-.7937.1802.1859.1727.2403.2497.3385.4868z" fill="#fc0"/><path d="m89.1099 41.8002 1.2238 2.0482c.9784-.3347.9779-.3543 2.1864-.6774-1.2516-.1479-2.3934-.6222-3.4102-1.3708z" fill="#f2c12e"/><path d="m126.555 41.4867-1.0868 2.5298c-1.083-.4671-1.0835-.4875-2.4167-.97 1.2767-.2121 2.4492-.7464 3.5035-1.5598z" fill="#f2c12e"/><path d="m94.5035 40.5916-.6646-.8466c-.3793.1716-.7333.3204-1.1284.4506-.0606.2276-.1708.3679-.4425.4959l.0305.2896c.9084.0832 1.7104.0097 2.205-.3895z" fill="#f2c12e"/><path d="m112.342 18.5626c-1.1302 3.4107-1.967 6.9388-2.5356 10.4967l.1334.0677.1823.1332.1572.1542.2451.3546.1629.3986.0879.4328.0123.4576-.0464.3258c.2049.0449.4123.0963.629.1548.86-4.4854 2.2005-8.9437 4.0712-13.139-.9811.1405-2.0184.1982-3.0993.163z" fill="#f2c12e"/><path d="m102.798 18.7817c1.1014 3.3241 1.9191 6.7441 2.4795 10.1809-.0728.0198-.1443.0439-.2072.0638l-.2075.1078-.1821.1357-.1566.1569-.2431.3591-.1604.4034-.0842.4369-.0075.4627.0724.4699c-.3767.0678-.7565.1458-1.1593.2367-.5461-4.5513-1.634-9.0358-3.2267-13.3297.9716.1946 2.0042.3027 3.0827.3159z" fill="#f2c12e"/><path d="m118.143 45.1852-2.7646-.2941c-.6626-.0707-1.2615.404-1.3308 1.0546-.0691.6509.4163 1.241 1.0788 1.3113l2.7648.2945c.6627.0704 1.2616-.4043 1.3306-1.0549.0694-.6506-.4161-1.2407-1.0788-1.3114z" fill="#f2c12e"/><path d="m96.6247 45.2181 2.7654-.2878c.6629-.0691 1.2607.4069 1.3283 1.0578.0677.6509-.4191 1.2399-1.0819 1.3089l-2.7654.2879c-.6627.0692-1.2605-.407-1.3283-1.0579-.0677-.6508.4192-1.2399 1.0819-1.3089z" fill="#f2c12e"/><path d="m109.962 39.0047.1973-1.2498c-.3888-.2472-.6189-.4171-.9338-.752l-.3691.2377c.1782.864.5016 1.1896 1.1056 1.7641z" fill="#f2c12e"/><path d="m104.187 39.4618-.1982-1.1356c.8135-.1905 1.257-.4605 1.8543-1.3332l.4232.2704c-.3473 1.1111-.9606 1.7496-2.0793 2.1984z" fill="#f2c12e"/><path d="m.0048 58.6569h215.162v25.262h-215.162z" fill="#fff"/></svg>