<svg xmlns="http://www.w3.org/2000/svg" width="347" height="220" viewBox="0 0 347 220" style="image-rendering:optimizeQuality;shape-rendering:geometricPrecision;text-rendering:geometricPrecision"><defs><style type="text/css">  
    .str6 {stroke:#F8C300;stroke-width:0.6;stroke-linecap:round;stroke-linejoin:round}
    .str5 {stroke:white;stroke-width:0.7;stroke-linejoin:round}
    .str4 {stroke:white;stroke-width:0.8;stroke-linecap:round;stroke-linejoin:round}
    .str2 {stroke:#007CC3;stroke-linecap:round;stroke-linejoin:round}
    .str1 {stroke:#F8C300;stroke-linecap:round}
    .str3 {stroke:white;stroke-linecap:round;stroke-linejoin:round}
    .str0 {stroke:#DA251D;stroke-width:4;stroke-linecap:round}
    .fil5 {fill:none}
    .fil3 {fill:#007CC3}
    .fil2 {fill:#00923F}
    .fil1 {fill:#0093DD}
    .fil6 {fill:#DA251D}
    .fil4 {fill:#F8C300}
    .fil0 {fill:white}
   </style></defs><rect class="fil0" width="347" height="220"/><path class="fil1 str0" d="M173.6 144.5c0.7-5.8 5.6-10.3 11.6-10.3l24.5-0.6c6.5 0 11.7-5.2 11.7-11.7l0-101.4-95.9 0 0 101.4c0 6.5 5.4 11.7 11.8 11.7l24.5 0.6c6 0 11 4.5 11.7 10.3l0.1 0z"/><rect class="fil2" y="165" width="347" height="55"/><rect class="fil3" y="192.5" width="347" height="27.5"/><path class="fil4 str1" d="M173.6 144.5c0.7-5.8 5.6-10.3 11.6-10.3l24.5-0.6c6.5 0 11.7-5.2 11.7-11.7l0-101.4-95.9 0 0 101.4c0 6.5 5.4 11.7 11.8 11.7l24.5 0.6c6 0 11 4.5 11.7 10.3l0.1 0z"/><path class="fil3 str2" d="M221.5 32.9c-3.3 0.3-5.8 0.9-8.3 3.8-6 0.7-9 4.1-9.3 9.5-4.5 3.2-6 8.2-4.4 14.9-5.3 3.3-7.4 7.5-4.9 12.7l0.1 12.3c0.4 1.7 1.3 3.3 2.5 4.9-3.8 6-2.1 11.4 5.1 14.7 0 10.3 5.7 13.2 14.1 12.7 1.1 1.5 2.8 2.6 5.1 3.4l0.1-89z"/><path class="fil5 str3" d="M221.5 32.9c-3.3 0.3-5.8 0.9-8.3 3.8-6 0.7-9 4.1-9.3 9.5-4.5 3.2-6 8.2-4.4 14.9-5.3 3.3-7.4 7.5-4.9 12.7l0.1 12.3c0.4 1.7 1.3 3.3 2.5 4.9-3.8 6-2.1 11.4 5.1 14.7 0 10.3 5.7 13.2 14.1 12.7 1.1 1.5 2.8 2.6 5.1 3.4"/><path class="fil6 str4" d="M141.1 39.8c-3.9 1-6.8 2.3-9 4.1l0-11.6c2.2 1.8 5.1 3.1 9 4.1-1-3.9-2.3-6.8-4.1-9l11.6 0c-1.8 2.2-3.1 5.1-4.1 9 3.9-1 6.8-2.3 9-4.1l0 11.6c-2.2-1.8-5.1-3.1-9-4.1 1 3.9 2.3 6.8 4.1 9l-11.6 0c1.8-2.2 3.1-5.1 4.1-9z"/><circle class="fil6 str4" cx="142.8" cy="24.6" r="2.5"/><circle class="fil6 str4" transform="matrix(-7.62561e-14 -0.958836 0.958837 -7.62561e-14 129.308 38.0643)" r="2.6"/><circle class="fil6 str4" transform="matrix(2.53943e-14 0.958836 -0.958837 2.53943e-14 156.229 38.0643)" r="2.6"/><circle class="fil6 str4" cx="142.8" cy="51.5" r="2.5"/><path class="fil5 str3" d="M221.5 50.6c-7.8 1-11.4 5.6-8.8 15.3"/><path class="fil5 str3" d="M211.8 59.2c-7.4 1.1-11.7 4.4-12.1 11"/><path class="fil5 str3" d="M218.7 51.2c-0.9-1.5-0.5-3.4 1.1-5.5"/><path class="fil5 str3" d="M218.9 43.1c-3.1 2.6-4.3 5.5-2.9 9.2"/><path class="fil5 str3" d="M209.4 54.7c-1.2 1.7-1.2 3.4-0.2 5.1"/><path class="fil5 str3" d="M208.2 50.8c-3 2.5-4.2 5.6-2.3 10.1"/><path class="fil5 str3" d="M208.4 47.9c-5.7 2.5-7.6 7.3-5.1 14.7"/><path class="fil5 str3" d="M221.5 77.4c-2-1.8-2.3-3.6-0.8-5.2"/><path class="fil5 str3" d="M221.5 81.5c-5.2-3.2-6.9-6.9-3.3-11.4"/><path class="fil5 str3" d="M221.5 85.1c-8.6-4.8-11.7-10.9-3.7-17.3"/><path class="fil5 str3" d="M221.5 110.3c-14.8-5.5-15.4-15.3-2.2-22.2"/><path class="fil5 str3" d="M210.5 66.5c-9.3 8.2-11.9 17.1 1.3 27.4"/><path class="fil5 str3" d="M214.2 91.5c-5.6-3.5-8.2-8-7.8-13.2"/><path class="fil5 str3" d="M216 90.1c-3.5-2-5.3-5.4-7.1-8.5"/><path class="fil5 str3" d="M213.7 83.9c0.8 1.7 2.2 2.9 4.4 4.8"/><path class="fil5 str3" d="M213.1 96.8c-0.8 4.6 2.8 7.6 8.3 9.8"/><path class="fil5 str3" d="M215.8 98.1c-0.1 2.4 1.9 4.1 5.6 5.3"/><path class="fil5 str3" d="M207.1 94.4c-3.6-0.2-7.5-0.9-9.9-3.4"/><path class="fil5 str3" d="M206.2 99.5c-1.9-1.6-2.5-3.3-1.5-5.3"/><path class="fil5 str3" d="M202.2 93.7c-1.4 3.1-0.5 5.8 2.6 8.1"/><path class="fil5 str3" d="M203.6 103.3c-4.4-2.8-5.9-5.6-3.5-10.3"/><path class="fil5 str3" d="M202.3 105.8c3.9 1 7.2 0.5 10.7-0.3"/><path class="fil5 str3" d="M215 112.2c-0.3 2.8 0.1 4.7 1.3 6.3"/><path class="fil5 str3" d="M209 111.2c1.7 1.8 3.3 3.1 6 3"/><path class="fil5 str3" d="M205.9 110.5c2.2 4.2 5.3 6.2 9.3 5.8"/><path class="fil6 str5" d="M178.6 73.1l-13.8 0-2 2.4-4.2 0 0-8.7c-11.4-10 4.4-17.1 9.3-29.3l10.7 35.6zm-1.7 8.1l1.2 1.9-10.1 33.6c-4.9-12.2-20.7-19.3-9.3-29.3l0-8.7 4.2 0 2 2.4 12.1 0zm2.9 3.2c2.3 1.2-0.2 3.2 8.8 1.5l1.3 1.4c4.3-2.9 9 0.3 16.4 1.6-4.4-5.3-4.9-11-0.8-17-4.7-0.1-8.9 0.6-11.9 2.7l-6.3 0c-1.8-1.1-3.9-1.7-6.6-1.7l-11.8-38.6c0.1-0.4 0.2-0.9 0.2-1.3 1.5 0.8 2.9 0.9 4.1 0 1.7-1.2 3.4 0.3 7.5-0.4-3.8 0.2-5.7-1.5-7.6-0.7-1.7 0.7-2.9 0.3-3.9-0.9 0-1 0-1.9-0.2-3-0.9-5.9-8.6-0.4-2.7 1.5 2.7 15.7-27.3 25.4-14.1 38.9l0 7-13.6 0c0.3-1.1 1-2.1 1.8-3-3.8 1.6-8.3 3.1-13.4 4.7 5.1 1.6 9.6 3.1 13.4 4.7-0.8-1-1.4-2-1.8-3l13.6 0 0 7c-13.3 13.5 16.7 23.2 14.1 38.9-5.9 1.9 1.8 7.3 2.7 1.5 0.2-1 0.2-2 0.2-3 1-1.2 2.3-1.6 3.9-0.9 1.9 0.8 3.9-0.9 7.6-0.7-4.1-0.6-5.9 0.8-7.5-0.4-1.2-0.9-2.6-0.7-4.1 0-0.1-0.5-0.1-0.9-0.2-1.3l10.9-35.6z"/><path class="fil4" d="M179 75.6c-0.2 0.8 1.7 0.9 2.5 0.9 1.6 0 1.5 0.6 2.4 1.8 2.3 2.9 2.9 1.7 3.6 2.6-0.7 0.6-2.3-1.2-2.3 1 0 3.3 3.9 4 4.2 0.3 0.3-3.5-0.4-4.2-2.4-6.3-0.9-0.9-7.3-2.4-7.9-0.3z"/><path class="fil4" d="M179.2 78.1c-1.6 0.2-0.7 1.7 0.6 1.4 2-0.5 3.7-1.9-0.6-1.4z"/><path class="fil4" d="M179.7 80.6c-1.1 0.5-0.3 1.8 1.1 1.1 2.3-1.1 2.9-2.9-1.1-1.1z"/><path class="fil4" d="M181.2 82.5c-0.9 0.5-0.2 1.8 1.1 0.9 2-1.3 1.7-2.7-1.1-0.9z"/><path class="fil4" d="M182.9 84c-0.9 0.7 0.2 1.7 1.1 0.6 1.1-1.4-0.2-1.4-1.1-0.6z"/><path class="fil4" d="M200 78.6c-0.5-3 0.9-2.2 1-3.7-5.8 0.5-6.6 1.8-4 5.7 0.5-2.1-1.2-2.6 0.8-3.6 0 0.9 0.3 1.9 0.9 2.8 0.3-1.1-0.3-2.7 0.5-3.2 0.2 0.7 0.3 1.5 0.8 2z"/><path class="fil4" d="M192.5 82.1c-0.1-1.6 0.1-3.2 0.7-3.8 0.1 1.2 0.3 2.3 1.1 2.9-0.1-2-0.1-3.1 0.4-3.5-1.2-0.8-1.8-1.1-2.6-1.2-0.5 2.6-0.3 4.6 0.5 5.6z"/><polygon class="fil4 str6" points="164.7 76.3 164 77.1 176.8 77.1 177.5 76.3 "/><path class="fil5 str6" d="M178.4 75.4l-0.8 1m-12-1l-0.8 1m2.7-1l-0.8 1m2.7-1l-0.8 1m2.7-1l-0.8 1m2.7-1l-0.8 1m2.7-1l-0.8 1m2.7-1l-0.8 1"/></svg>