<svg height="600" viewBox="0 0 900 600" width="900" xmlns="http://www.w3.org/2000/svg"><path d="m0 .3h900v600h-900z" fill="#fff"/><path d="m0 400.3c60 30 120 30 180 0 60 30 120 30 180 0 60 30 120 30 180 0 60 30 120 30 180 0 60 30 120 30 180 0v200h-900z" fill="#0039a6"/><path d="m900 600.3v-110c-60 30-120 30-180 0-60 30-120 30-180 0-60 30-120 30-180 0-60 30-120 30-180 0-60 30-120 30-180 0v110z" fill="#fff"/><path d="m900 600.3v-100c-60 30-120 30-180 0-60 30-120 30-180 0-60 30-120 30-180 0-60 30-120 30-180 0-60 30-120 30-180 0v100z" fill="#d52b1e"/><path d="m550 98.5v172.5c0 21-14.1 36.4-33.5 36.4h-43.7c-14.3 0-21.5 11-22.9 19.8-1.3-8.8-8.6-19.8-22.9-19.8h-43.6c-19.4 0-33.5-15.3-33.5-36.4v-172.5z" fill="#149adb"/><path d="m550 140h-200v-41.5h200z" fill="#d52b1e"/><g stroke="#000"><path d="m416.7 152.5h-33.3v-12.5h33.3z" fill="#fff" stroke-width="1.14"/><path d="m450 152.5h-33.3v-12.5h33.3z" fill="#fff" stroke-width="1.14"/><path d="m483.4 152.5h-33.4v-12.5h33.4z" fill="#fff" stroke-width="1.14"/><path d="m516.7 152.5h-33.3v-12.5h33.3z" fill="#fff" stroke-width="1.14"/><path d="m550 152.5h-33.3v-12.5h33.3z" fill="#fff" stroke-width="1.14"/><path d="m383.4 152.5h-33.4v-12.5h33.4z" fill="#fff" stroke-width="1.14"/><path d="m433.4 140h-33.4v-12.6h33.4z" fill="#fff" stroke-width="1.14"/><path d="m466.7 140h-33.3v-12.6h33.3z" fill="#fff" stroke-width="1.14"/><path d="m500 140h-33.3v-12.6h33.3z" fill="#fff" stroke-width="1.14"/><path d="m533.3 140h-33.3v-12.6h33.3z" fill="#fff" stroke-width="1.14"/><path d="m550 140h-16.7v-12.6h16.7z" fill="#fff" stroke-width="1.14"/><path d="m366.7 140h-16.7v-12.6h16.7z" fill="#fff" stroke-width="1.14"/><path d="m375 127.4h-16.6v-12.5h16.6z" fill="#fff" stroke-width="1.14"/><path d="m400 140h-33.3v-12.6h33.3z" fill="#fff" stroke-width="1.14"/><path d="m408.4 127.4h-16.7v-12.5h16.7z" fill="#fff" stroke-width="1.14"/><path d="m441.7 127.4h-16.7v-12.5h16.7z" fill="#fff" stroke-width="1.14"/><path d="m475 127.4h-16.6v-12.5h16.6z" fill="#fff" stroke-width="1.14"/><path d="m508.4 127.4h-16.7v-12.5h16.7z" fill="#fff" stroke-width="1.14"/><path d="m541.7 127.4h-16.7v-12.5h16.7z" fill="#fff" stroke-width="1.14"/><path d="m550 98.5v172.5c0 21-14.1 36.4-33.5 36.4h-43.7c-14.3 0-21.5 11-22.9 19.8-1.3-8.8-8.6-19.8-22.9-19.8h-43.6c-19.4 0-33.5-15.3-33.5-36.4v-172.5z" fill="none" stroke-width="2"/><path d="m375.3 170.6c3.7-4.7 10.5-5.6 15.2-1.9s5.6 10.5 1.9 15.2-10.5 5.6-15.2 1.9c-4.7-3.7-5.6-10.5-1.9-15.2zm-2.4 20.6c7.7 6 18.8 4.7 24.8-3s4.7-18.8-3-24.8-18.8-4.7-24.8 3c-6 7.7-4.7 18.8 3 24.8z" fill="#fff" stroke-width="1.14"/><path d="m475.3 297.2c-1.5-1.1-2.5-2.7-2.8-4.6 4.1.3 9 2.3 17.3 1.7 11-.9 13.2-4.4 18.8-8.5 4-2.9 8.2-2.8 12-1.7-2.4-3.5-2.9-8-1.3-12 2.6-6.5 5.5-9.4 3.6-20.3-1.4-8.2-4.6-12.5-5.8-16.4 1.8-.2 3.7.4 5.1 1.6-.7-2.1-6.6-10.7-11.5-13.9 1.4 3.5-.8 14.3.4 17.5 1.5-2 2.5-3.8 3.8-4.3.7 1.7 4.6 14.4.8 20.4-3.9 6.2-11.1 7-19.3 1.6-6.3-4.2-77.2-56.6-91.1-67.3 2.5-4.9 1.1-11-3.3-14.3-5.1-3.9-12.4-2.8-16.3 2.3-3.8 5-2.9 12.1 2 16 4.3 3.5 10.5 3.4 14.7-.2 13.8 10.9 81.7 67 87.3 72.2 7.3 6.7 8.2 13.8 3.1 19.1s-18.2 4.5-20 4.1c.1-1.4 1.6-2.8 3.2-4.7-3.4-.4-13.4 4.3-17 3.8 4.2 4 14 7.6 16.3 7.9zm-74.7-106.9c-2.3 3.2-6.8 4-10 1.7s-4-6.8-1.7-10 6.8-4 10-1.7l.4.4c2.9 2.4 3.4 6.6 1.3 9.6z" fill="#fff" stroke-width="1.14"/><path d="m383.5 188c-6-.2-10.6-5.2-10.4-11.1.2-6 5.2-10.6 11.1-10.4 6 .2 10.6 5.2 10.4 11.1-.1 2.3-.9 4.5-2.3 6.3-1.2 1.5-2.8 2.7-4.6 3.4.3 1.7 1.3 3.2 2.7 4.3.6.5 1.3.9 2 1.1 2.1-1.1 3.9-2.6 5.3-4.5 6-7.7 4.7-18.8-3-24.8s-18.8-4.7-24.8 3-4.7 18.8 3 24.8c4 3.2 9.3 4.4 14.3 3.4-1.9-1.7-3.2-4-3.7-6.6z" fill="#fff" stroke-width="1.14"/><path d="m422.4 208c-8.9 10-26.2 22.1-26.2 22.1l-3.8-5.4 21.7-24.2 21.7-24.2 5.7 3.1c.1.1-10.1 18.6-19.1 28.6z" fill="#fff" stroke-width="1.14"/><path d="m431.2 181.5 7.1 3.8" fill="none" stroke-width="1.14"/><path d="m429.5 183.4 7.4 4" fill="none" stroke-width="1.14"/><path d="m427.8 185.3 7.8 4.3" fill="none" stroke-width="1.14"/><path d="m397 219.7 4.5 6.6" fill="none" stroke-width="1.14"/><path d="m398.7 217.8 4.8 6.9" fill="none" stroke-width="1.14"/><path d="m400.5 215.9 5.1 7.3" fill="none" stroke-width="1.14"/><path d="m383.4 284.5 2.8-2.3-2-2.5-2.8 2.2c-2.3-1.4-5.2-.7-6.6 1.6s-.7 5.2 1.6 6.6 5.2.7 6.6-1.6c.6-1.2.8-2.7.4-4z" fill="#f3d400" stroke-width="1.14"/><path d="m526.4 196.6c-.7-2.1-1.9-4.1-3.4-5.7 1.7-.5 3.2-1.4 4.6-2.5 6.6-5.2 7.7-14.7 2.5-21.3s-14.7-7.7-21.3-2.5c-1.3 1.1-2.5 2.4-3.4 3.9-1.2-1.9-2.8-3.4-4.7-4.6-7.1-4.5-16.4-2.4-20.9 4.7s-2.4 16.4 4.7 20.9c2.6 1.7 5.7 2.5 8.8 2.4l-2.8 2.2-4 .7-.1 2.5-1.5 1.2c-1-.6-2.2-.6-3.2-.1-.8.8-1 2-.6 3l-99 77.7 4.2 5.4 99.1-77.7c1.2.6 2.4.7 3.1.1.8-.8 1.1-2 .6-3l1.6-1.2 2.5.5 1.7-3.8 2.7-2.1c-2.2 8.1 2.5 16.4 10.5 18.7 8.1 2.2 16.4-2.5 18.6-10.5.7-3 .7-6.1-.3-8.9zm-11.1 14.6c-5.5 1.8-11.3-1.2-13.1-6.6-.9-2.6-.7-5.5.6-7.9.2-.4.4-.8.6-1.2l-2.4-3.2 3.4-2.7c2.3 1.6 5.4 1 6.9-1.3 1.3-1.9 1.1-4.4-.3-6.1-1.7-2.2-4.9-2.6-7.1-.9-1.6 1.3-2.3 3.5-1.7 5.5l-3.4 2.7-2.5-3.1c-.4.1-.9.3-1.4.4-2.7.6-5.5.1-7.8-1.4s-4-3.8-4.6-6.5c-1.5-5.6 1.8-11.3 7.3-12.8 5.6-1.5 11.3 1.8 12.8 7.3 0 .1.1.3.1.4s.1.3.1.4c.2.7.3 1.4.3 2.1l4.7-.1c.1-5.8 4.9-10.3 10.6-10.2s10.3 4.9 10.2 10.6c-.1 5.8-4.9 10.3-10.6 10.2-.7 0-1.4-.1-2.1-.3l-1.2 4.6c.7.2 1.3.4 2 .7 5.2 2.6 7.3 8.8 4.7 14-1.2 2.8-3.4 4.7-6.1 5.4z" fill="#f3d400" stroke-width="1.14"/><path d="m384.6 270.8 3 3.9 7.4-5.8-3-3.9z" fill="#f3d400" stroke-width="1.14"/><path d="m397.8 259.1-2.8-.3-.3-3.7-5.6-7.1-4.1 3.2 5.2 6.8-3.9 3.1-5.3-6.8-4.2 3.2 5.3 6.9-4 3-5.3-6.7-4.1 3.2 5.7 7.2 3.4 1.2-.3 2.7 1 .6 19.6-15.4z" fill="#f3d400" stroke-width="1.14"/></g></svg>