<svg height="600" width="900" xmlns="http://www.w3.org/2000/svg"><path d="m0 0h900v600h-900z" fill="#fff" fill-rule="evenodd"/><path d="m0-.00001v600h92.460937l20.039063-20.03906-17.109375-17.10938-14.296875 14.29688 5.742187 5.74219 8.554688-8.55469 5.625005 5.625-14.179693 14.29687-17.226562-17.10937 20.039062-20.03906-20.039062-19.92188 17.226562-17.22656 14.179693 14.29687-5.625005 5.74219-8.554688-8.55469-5.742187 5.74219 14.296875 14.29688 17.109375-17.22657-20.039063-19.92187 20.039063-20.03906-17.109375-17.10938-14.296875 14.29688 5.742187 5.625 8.554688-8.55469 5.625005 5.74219-14.179693 14.29687-17.226562-17.10937 20.039062-20.03907-20.039062-20.03906 17.226562-17.10937 14.179693 14.29687-5.625005 5.74219-8.554688-8.67188-5.742187 5.74219 14.296875 14.29688 17.109375-17.10938-20.039063-20.03906 20.039063-20.03906-17.109375-17.10938-14.296875 14.29688 5.742187 5.74218 8.554688-8.55468 5.625005 5.625-14.179693 14.29687-17.226562-17.10937 20.039062-20.03907-20.039062-19.92187 17.226562-17.22656 14.179693 14.29687-5.625005 5.74219-8.554688-8.55469-5.742187 5.74219 14.296875 14.29687 17.109375-17.22656-20.039063-19.92187 20.039063-20.03907-17.109375-17.10937-14.296875 14.29687 5.742187 5.625 8.554688-8.55468 5.625005 5.74218-14.179693 14.29688-17.226562-17.10938 20.039062-20.03906-20.039062-20.03906 17.226562-17.10938 14.179693 14.29688-5.625005 5.74219-8.554688-8.55469-5.742187 5.625 14.296875 14.29687 17.109375-17.10937-20.039063-20.03906 20.039063-19.92188-17.109375-17.22656-14.296875 14.29687 5.742187 5.74219 8.554688-8.55469 5.625005 5.74219-14.179693 14.29688-17.226562-17.22657 20.039062-19.92187-20.039062-20.03906 17.226562-17.10938 14.179693 14.29688-5.625005 5.625-8.554688-8.55469-5.742187 5.74219 14.296875 14.29687 17.109375-17.10937-20.039063-20.03907 20.039063-20.03906-17.109375-17.10937-14.296875 14.29687 5.742187 5.74219 8.554688-8.67188 5.625005 5.74219-14.179693 14.29688-17.226562-17.10938 20.039062-20.03906-20.039062-20.03906 17.226562-17.10938 14.179693 14.29688-5.625005 5.74218-8.554688-8.55468-5.742187 5.625 14.296875 14.29687 17.109375-17.10937-20.039063-20.03907 20.039063-19.92187-17.109375-17.22656-14.296875 14.29687 5.742187 5.74219 8.554688-8.55469 5.625005 5.74219-14.179693 14.29687-17.226562-17.22656 20.039062-19.92187-20.039062-20.03907 17.226562-17.10937 14.179693 14.29687-5.625005 5.625-8.554688-8.55468-5.742187 5.74218 14.296875 14.29688 17.109375-17.10938-20.039063-20.03906z" fill="#a92211"/><path d="m463.26974 122.26524h85.078423v5.530654h-85.078423z" fill="#b17842" stroke="#b17842" stroke-width=".9375"/><path d="m505.79157 31.152102c-4.12192 3.89035-7.88184 8.15039-11.49115 12.55335 4.27197 3.27611 7.83645 6.90593 11.49115 10.42895 3.6547-3.52302 7.21918-7.15284 11.49115-10.42895-3.60931-4.40296-7.36923-8.663-11.49115-12.55335zm-36.01848 17.76783c-2.62423 3.47251-4.45073 7.31352-5.98699 11.29802 3.52505 2.2211 6.86994 4.73421 10.13925 7.33888 1.85512-3.97139 3.55097-7.90601 5.89043-11.8774-3.25427-2.40929-6.5953-4.67209-10.04269-6.7595zm72.03696 0c-3.44739 2.08741-6.78843 4.35021-10.04269 6.7595 2.33945 3.97139 4.03531 7.90601 5.89042 11.8774 3.26931-2.60467 6.61421-5.11778 10.13925-7.33888-1.53625-3.9845-3.36275-7.82551-5.98698-11.29802zm-51.46877.19312c-5.25448 7.41989-9.10086 14.16834-12.74648 21.6304 3.92316 3.6241 7.17978 7.35227 9.94612 11.1049 1.69425-4.51168 4.13585-8.94244 6.85606-13.32587 1.79134 1.88687 3.40614 3.97446 5.02135 6.08354-4.32584 6.72242-7.83104 13.5529-10.23582 20.18194-3.91896-6.45365-8.55779-12.48858-14.09838-18.25065-3.11036 7.54088-5.80359 15.05516-7.62858 22.59604-5.45247-10.80432-11.7865-21.20584-19.02317-31.28682 6.21667 1.72909 9.87212 3.69948 13.32587 6.66293-.74563.90694-1.24328 1.5994-1.73815 2.31754l6.37324 9.55987c1.51824-4.55184 3.2166-8.89966 5.11791-13.32587-9.62976-9.30696-25.11858-20.23601-41.32952-21.43727 15.79301 17.3611 26.20829 39.60151 33.21812 61.608008-.29201.0942-.57716.19353-.86908.28969l.77251 10.13925c28.35947-3.02135 56.71368-3.15814 85.07314 0l.67595-10.13925c-.25833-.0832-.51419-.11143-.77252-.19313 7.01011-22.034958 17.40419-44.320488 33.21812-61.704568-16.21094 1.20126-31.79632 12.13031-41.42608 21.43727 1.90131 4.42621 3.69623 8.77403 5.21447 13.32587l6.27668-9.55987c-.49487-.71814-.99253-1.4106-1.73816-2.31754 3.45376-2.96345 7.1092-4.93384 13.32587-6.66293-7.23666 10.08098-13.57069 20.4825-19.02316 31.28682-1.82499-7.54088-4.42166-15.05516-7.53201-22.59604-5.5406 5.76207-10.27599 11.797-14.19495 18.25065-2.41593-6.65974-5.88134-13.52598-10.23582-20.2785 1.60593-2.09412 3.33822-4.11238 5.11791-5.98698 2.72021 4.38343 5.16181 8.81419 6.85606 13.32587 2.76635-3.75263 5.92639-7.4808 9.84956-11.1049-3.64562-7.46206-7.39543-14.21051-12.64992-21.6304-5.82142 5.12761-11.04309 10.68902-15.54685 16.41593-4.50376-5.72691-9.62887-11.28832-15.45029-16.41593zm15.45029 35.1494c4.07257 7.23712 7.12403 14.98462 8.59422 22.499478-5.70097-.3762-11.4308-.35214-17.09188 0 1.46806-7.507568 4.4313-15.268448 8.49766-22.499478z" fill="#d1a345" stroke="#b17842" stroke-linejoin="round" stroke-width=".9375"/><path d="m530.93644 118.77898 8.0572-2.66296-7.85236-3.96032-8.26204 2.52641zm-33.79923-4.50656 8.67172-3.68719 8.67172 3.68719-8.67172 3.41407zm-16.45579 4.50656-8.0572-2.66296 7.85236-3.96032 8.26204 2.52641z" fill="#b17842"/><path d="m548.34814 123.63087c2.6916 1.37904.58545 4.47453 0 4.16502-5.37243-2.84026-23.60794-4.65278-42.53921-4.50656-18.93126-.14622-37.16677 1.6663-42.5392 4.50656-.58545.30951-2.6916-2.78598 0-4.16502 5.40846-2.77104 23.60794-4.65278 42.5392-4.50656 18.93127-.14622 37.13075 1.73552 42.53921 4.50656zm.95597-13.79673c1.66777.75991 1.63984 4.50669-.20487 3.6911-5.25652-2.32404-24.35904-4.24309-43.29031-4.09687-18.93126-.14622-38.03378 1.77283-43.2903 4.09687-1.84471.81559-1.87264-2.93119-.20488-3.6911 5.23008-2.38301 24.56389-4.2431 43.49518-4.09687 18.9313-.14623 38.26511 1.71386 43.49518 4.09687z" fill="#d1a345" stroke="#b17842" stroke-linejoin="round" stroke-width="1.875"/><path d="m358.47656 127.3828v2.8125 303.63281c0 20.88762 16.11674 37.03125 35.27344 37.03125h74.88281c12.08985 0 19.72928 4.03669 24.96094 9.375 5.23166 5.33832 8.0397 12.15732 9.49219 17.57813l.46875 1.64062h4.45312l.46875-1.64062c1.45249-5.42081 4.26053-12.23981 9.49219-17.57813 5.23166-5.33831 12.87109-9.375 24.96094-9.375h74.88281c19.15669 0 35.27344-16.14363 35.27344-37.03125v-303.63281-2.8125h-2.8125-144.49219-144.49219zm5.625 5.625h141.67969 141.67969v300.82031c0 18.01864-13.64888 31.40625-29.64844 31.40625h-74.88281c-13.38623 0-22.74908 4.81024-28.94532 11.13282-3.94053 4.02086-6.36656 8.42587-8.20312 12.77343-1.83622-4.33905-4.15406-8.76138-8.08594-12.77343-6.19624-6.32258-15.67627-11.13282-29.0625-11.13282h-74.88281c-15.99956 0-29.64844-13.38761-29.64844-31.40625z"/><path d="m500.93422 201.41062c1.05934-2.54284 3.14333-4.27179 6.39555-3.83837 1.8846.25128 2.60907.443 3.94692 1.78083.78885.78887 1.02397 3.15327 1.49201 3.46563-1.11266 2.29117-5.8017 2.20397-7.701 1.10714-1.61051-.92979-3.43879-.46728-4.13347-2.51524z" fill="#1f1a17" fill-rule="evenodd" stroke="#1f1a17" stroke-width=".280371"/><path d="m485.57614 300.21763c-2.66243 0-4.81118-.81719-6.83741-2.29078-2.45749-1.78746-5.32485-4.29572-5.69022.0964-.14475 1.73928-3.7611-4.93738-3.7611-2.02514 0 .66155-.52173 2.94535-.19312 3.47189 1.50671 2.41001-7.33935-2.64844-8.19735-3.27909-2.21134-1.62447-3.15657-3.96862-5.11144-5.97941-.6855-2.05897-4.11506-7.35035-5.49743-9.54805-2.80297-4.45612-5.75054-4.38145-6.36498-5.9794-1.77791-4.6217-8.27426-18.32566-14.75595-14.27352-2.5329 1.58362-1.44672-11.54452-1.44672-14.27315 0-9.41781.24938-18.40733 10.03005-7.81212 10.5231 11.39952 16.26518 17.54818 30.76538 23.62843 6.37972 2.6753 10.16621-9.11535 15.60476-9.00757 10.1835 12.33042 13.93425 36.05817 1.45556 47.27145z" fill="#1f1a17" fill-rule="evenodd" stroke="#1f1a17" stroke-width=".280371"/><path d="m504.19901 380.88029c-1.05045-.61114-2.66171-4.21106-4.93151-4.06759l.0188 14.19626c.007 3.85935-2.06595 7.68702-1.3143 8.99213-2.09835-.8643-2.99903-4.47784-3.5808-4.40134-.348.42424.72746 2.89793 1.07074 6.66968.69285 7.61306 2.91922 13.23266.93086 15.64635-.80723.97976-5.15081 2.22746-7.64325 4.30999-3.64373 3.04361-6.93052 7.00563-7.67966 7.34152-4.33286 1.94235-7.857 1.9287-17.63832 1.9287-5.20233 0-12.41508 2.60576-14.26215 4.38071-.0263-1.47907.15863-2.18145.58249-3.7095.63728-2.29488 2.0682-2.69261 1.96369-2.67641-.10463.015-2.96449.45259-5.58461 2.7702-2.62009 2.31769-1.80915 2.08841-1.92653 1.95191-2.2827-3.30266 4.36819-8.0925 3.80745-8.33569-1.67302-.72558-6.86467 3.732-8.21906 4.06725-.70241-2.8755 6.95482-8.44132 6.93349-8.26507-.0983.79253-5.89002 2.6127-6.7179 2.93876-.1545-.62115-.19275-2.52446 2.67461-4.06875 4.79498-2.58292 8.10833-3.06228 14.33535-3.42697 4.02746-.2355 7.23922.15937 9.48401-.71123 2.1087-.81791 3.86378-2.06194 5.12468-3.65475 1.96151-2.47736 3.59445-6.8514 1.88568-12.61414-.84956-2.86586-2.26905-4.25925-2.68961-5.26593-1.23517 1.0773-2.68267.80835-3.03037 2.73671-1.7757-2.27828-1.96811-7.15864-3.1584-7.99166-.92501-.64721-3.43733 2.5281-3.87773 4.64194-.4077-4.37779.34388-13.29259-.65197-13.49093-.69912 1.96519-2.12779 2.16904-3.76774 2.96452.6693-.74066 1.29405-2.14177 1.78856-3.80047 1.05821-3.54915.49305-8.50385.5361-9.78096.23663-6.9975 2.14654-13.41625 4.56837-17.83816 3.49987-6.39002 12.22923-9.11426 17.62732-13.69144 5.5905-4.74091 11.2623-13.90119 12.83561-19.44163 1.31168-8.52887-5.33257-12.13506-6.39371-11.31747-.4809-.31537-.85249-.868-1.17334-1.27236-3.25005-4.09773-1.04644-10.3535-2.96194-15.33393-1.21642-3.16209-2.00895-5.81898-3.11827-4.02675-.74693-1.83528-.64058-.91248-1.15313-4.36416-.51217-3.45202 2.53658-16.15406 1.97325-15.98446-2.853.85987-3.0399 1.78193-4.47817 2.13516.99675-1.97033 2.09539-3.35414 3.10391-5.56144 1.3419-2.93579 3.54878-8.19368 4.6092-10.2935 1.06005-2.10021 4.0275-6.1641 4.42268-6.98718-2.16975.76826-4.55697 3.16688-5.01135 3.17423-.24225-1.30031 2.9277-5.3414 3.0852-9.39977.0941-2.41737-1.95229-4.4565-3.51717-6.0232-1.56375-1.56523-3.76957-2.35704-6.11148-2.35704-1.47251 0-2.43027 1.24512-3.06792 1.31687-.5313.06-.83118-1.06666-.83118-3.62716 0-.66266.0225-1.48206.58023-1.57626 1.20023-1.02803 4.32334-.97725 6.98131-.21968 1.90042.54125 3.70293 2.0027 4.59851 2.21647 6.02392 1.43976 7.01073-4.03188 2.95384-6.58173-2.17231-1.36506-5.93048-1.12295-9.40088-.96989-2.04578.0905-3.83471.77304-5.32819.44742-.68325-.14903-1.40846-1.28044-1.75691-1.87135-.44299-.75207-1.12958-2.47183-2.26027-3.8461-1.06628-1.29662-2.53842-2.3033-2.62339-3.35158-.0416-.5118.68839-1.31024 1.10565-1.62336 3.04395-2.2827 9.28755-3.70625 14.03696-4.48889 2.90745-.47943 4.46126-.0592 6.7083-1.38346 2.07664-1.2234 6.16815-4.54886 8.47148-4.66879 3.02227-.15709 6.50441.39186 9.675.82859 1.10122.15162 1.99717.7094 3.05501.7094 3.86962-1.08763 10.33177-5.27405 12.53977.53168.39848 1.04752.81795 2.51192.95813 3.8711.0735.7116-.21188 1.48281-.0187 1.97511.23212.59496 2.03951.75023 3.30964 1.96333 3.6912 3.52451 9.00352 10.02051 10.81743 11.87676 1.10607 1.13215 1.77312 1.96775 1.56413 2.22272-.2055.25095-1.95375-.44668-2.559-.16335-.168.41321.144 1.43093.8028 2.99394 1.06556 2.52628 6.89411 4.67689 9.48184 6.25831.64683.39479 1.43647 1.531 1.35405 1.88349-.68183-.0184-3.5823.17366-2.65362 2.78531.195.5486 1.75545 1.07365 3.8244 1.77642 4.11064 1.3967 9.41265 5.70234 10.4826 7.17705 1.06999 1.47435 1.71979 2.28271 2.49132 3.32031.80141 1.07807 1.84635 1.84265.0964 2.02183-.47722.0486.18375 2.69296 1.30433 2.69296-11.96873 16.52017-21.47082 34.1607-10.01352 53.25738 3.17243 5.2873 20.0046 14.71102 26.66284 12.20607 1.25171 1.49051 6.87461 7.43683 5.88413 10.52237-1.55018-.60345-.98498-1.10457-.8301.6446l.48127 5.43892c.28238 3.18893-2.18959-.28883-3.94691-.28883-2.46116 0 .30375.75831 1.6881 2.7452 1.5255 2.18889 3.3078 10.87817 4.19677 17.20087.41468 2.95087 4.62758 5.52904 5.82484 6.94856-3.15727-1.0008-.77524 4.8914 2.35556 10.09225 2.29152 3.80635 5.21186 7.65501 6.94234 11.28809 1.21238 2.54576 5.19458 9.91125 3.28275 12.56703-.95554 1.32825-3.17239 2.52443-5.15336 5.02977-3.86524 4.49658-7.16419 12.47167-7.65206 18.17227-.66709 8.00891-9.19853 8.64874-14.96235 10.12643-2.85702 3.39828-3.43838 2.91517-3.92997 3.01631-.95921-1.11889-.57581-2.25548-.38561-5.01499.0225-.32737-.97796.74801-2.4111 1.49456-2.05864 1.07292-4.83915 2.0583-5.31124 2.21794-.21225-.918 1.1649-3.77137.97283-3.42956-.2865.51075-1.74844.63911-3.19444 1.32791-1.33451.63544-2.52041 1.52955-3.07597 1.76468-.0484-1.10937-.6792-.16538.0338-2.79972.37567-1.38892.65715-1.86615.55447-1.86765-.10237 0-2.54685.22725-3.53332 1.14323-1.57073 1.45882-2.78528 1.96732-3.22095 2.07697-.11475-1.00931.75832-3.55361 2.09103-5.23391 1.51774-2.10206 3.00533-3.85534 5.43413-4.4139 2.58585-.59415 5.5029-.345 7.62484-2.38822 2.90152-2.79417 7.05266-7.97625 8.23635-12.49347 1.87575-7.15755.77152-16.97126-7.78452-19.11637-1.32645-.33225-.86651 1.80881.62108 3.09619-1.17191 1.45522-5.5515-4.01494-5.99378-3.44097-.14737 1.35072-.0829 3.11535.85508 4.09812-.80618.14287-1.74038-1.37719-3.4296-2.65872-3.56865-2.7066-4.33362-2.76067-8.36037-2.76067 4.80128-6.52691 9.55287-14.32359 4.44807-23.8823-15.04399-28.16845-40.5933-4.36525-50.6823 9.47338-2.82469 3.87479-3.81668 7.90042-3.78278 8.65068z" fill="#1f1a17" fill-rule="evenodd" stroke="#1f1a17" stroke-width=".280371"/><path d="m510.91545 205.49281c2.44238.7771 4.37775-3.41447 7.6263-1.55786 1.99313 1.13915 1.99534 3.44797 1.99534 5.54891" fill="none" stroke="#1f1a17" stroke-width=".280371"/><path d="m581.36014 324.16441c1.90485 1.27603.65126.50775 2.12044 2.40854-.078.0968-.37126-.195-.89262-.21634 2.43799 2.71209 2.13113 1.00448 3.18821 4.55512-.94155-.59569-1.68772-1.77493-2.83462-2.03141 1.00009 1.29516 1.94201 3.44797 2.07079 5.06325-.39882-.45476-1.56192-1.66678-1.73007-1.92798-.015 1.68001 2.14842 3.62899 1.60572 5.97021-1.41807-.98756-1.91258-1.71792-3.76662-2.25807.216.58391.0769.69946.33863 1.32939-.95963-.40365-3.969.0831-4.89731-.40034l1.54091-12.91326c1.12298.33705 2.13405-.33116 3.25661.42094z" fill="#a92211" fill-rule="evenodd" stroke="#1f1a17" stroke-width=".280371"/><path d="m502.63204 207.70681c-1.8618.53167.72705 2.39824-1.85884 2.81548-1.79261.28883-3.26805 1.14798-5.24794 1.14798" fill="none" stroke="#1f1a17" stroke-width=".280371"/><path d="m486.15247 235.90307.8952-.5302c.051.19612.0908.40216.11663.61887l.85031-.45807-.37237 1.09425 1.17334-.92169c.0386.34256.0375.77304.007 1.25872l-.3768 1.23334.2835-.0879c-.19875 1.99976-.56149 4.40462-.27713 5.60045l6.21709-2.13517.23925.77083-.5442 1.28743.76901-.56369.2295.73994-.79699 1.4747.98535-.86834.291.93678s1.44417-.63213 2.11568-.89814l-1.25839 1.95707-.48311.6038-.5232.92611-.80539-.32194-2.0535 1.04678.32213-4.14705-2.4564 1.93242-1.24804 2.29522 1.24804-.36244-5.667 6.7646c-2.0097 3.17056-4.3428 6.53096-5.94555 9.93294l4.88407-2.87067.13238 2.19182 4.0194-6.47613-.22088 6.78152 2.0325-3.76145.86978-1.64323c.88676 2.04722.50115 2.62452 1.43388 5.90912l1.36028-3.86338.3225 3.01969.9261-2.29485.6921 2.14105.53167-1.98578.80393 1.74552 1.19329-2.14252.7215 1.17557 26.81921-4.11469.16125-2.13406-.20138-1.24805 3.14037-5.07353v.72484l1.20795-1.5299-4.22768-5.87859-.72484 3.22096-5.75756-4.63055-.0405 2.4159-.84551 2.97959-1.36875-1.40921-1.36909-2.53659-.44302 1.57037-1.4493 1.73117-1.57039-.92611-.24188-1.0869 1.81215 1.16748.92573-1.12737.24187-2.09359.68438-.0806 2.53699 3.54327.40248-2.25474-.16125-3.10027 5.51618 3.86522.12112-4.10697 1.44934.84554.24188-.76496 4.23941 4.64416.29812-3.63673 2.65804.68254-1.9545-3.46087 5.13866 2.35151-1.91737-2.87508 6.8415 2.20285-3.94249-4.77954 5.57063 2.40045-3.55763-4.73577 4.96943 2.43098-4.7277-4.20263.92613.0802-7.29476-4.22836 3.83209.82455-1.73411-3.47114 2.09358-1.02656-3.58155-3.24193-.95553 2.60097-4.04329.65016.48349 1.32863-1.93283-.28185.2415 2.4159-1.52989-.84553 2.15982 2.61275-.48312-.0405.0401 1.28852-2.44166-1.28375.0405 2.93912-2.93948-1.5299.282 3.74453-3.8652-2.29521-.72484 5.51617-3.26145-3.78463 2.01342.9261 1.16745-3.90568 3.18082 1.48979.44303-3.3019 2.85888 1.81212-.76533-3.78502 1.97328 1.0468-1.24841-2.17417 2.21464.36244-.88601-2.69774 2.09392.60416s-.96656-1.44969-.7248-1.40958c.2415.0404 2.99355-.046 2.99355-.046l-1.88606-1.93684 3.83726.59937-2.29706-1.53872c.18187-.0386.36487-.0784.5508-.11959l2.36404-.23621c-.46917-.98572-2.84937-.79733-2.14549-2.43981.23437-.65678-2.09543-1.92286-2.68193-2.25144v-.65677h1.173c0-.49268-.93825-1.47802-1.64212-1.47802l-3.1194-1.22303c-1.02176-.00032-1.26645-1.21458-1.16528-2.20581l-.14587-2.6282c-.35213-3.1205-.85106-3.96161-2.49353-4.94695-3.40162-2.13554-10.01572 1.62556-10.2501 1.46145-.61335 0-6.56883-1.32127-8.70993-1.5413-1.85588 0-3.3648-.30135-4.55693.039-4.78691 1.36616-5.41684 4.55658-9.71771 5.40985-5.53013 1.09683-7.5321 1.33342-11.45546 2.19329-3.0495 1.14945-3.7611 2.4067-4.3476 5.19864-.82122 3.77765 1.77682 6.2204 3.43916 7.02142.93825.1641 10.63459-1.13179 11.90145-.92905 4.48849.16777 10.19782 7.84156 6.3672 10.38107-2.46338 1.47838-13.25471-2.95641-16.77368-2.95641-3.87075 0-2.81512 2.7923-1.8765 2.62783 2.81475-.49267 1.52475-.65677 4.2225 0 2.80883.67812 6.57653 1.13253 8.06929 3.48919l-.40102 1.67818z" fill="#a92211" fill-rule="evenodd"/><path d="m573.96773 343.8994c-.14025.10927-1.70839-.30615-2.33937-.29438.93162 1.62447-1.78346-.78002-2.02849-.8378-1.66379-.39551 5.70417 5.79762 4.5507 5.31857.37425.78226 1.87801-12.33523 5.03565-10.37668 1.21017.75024 5.90359 6.68329 6.21893 11.29136.054.79255-2.41222-1.31056-2.18445-.57802.45 1.44823 2.60835 4.01902 2.98804 5.27664.22237.73625-3.31403-.70682-3.10137-.0128 2.71024.29839 2.73529 2.82467 3.89427 4.74864l-1.6914-.26123 4.437 4.96941-5.03528-3.36849 5.26815 5.04079-3.91747-1.55566 5.0397 3.78207-5.93562-2.0071 7.5597 5.37819-6.25687-.42828 7.58032 3.49837c-1.56558.14201-4.07088.10744-5.49078.0158.63401 1.09535 3.98775-.2259 6.88972 2.49681.96698.90735 2.14361 2.92699 3.27686 4.75305l3.85384 6.77862 2.27021 4.33875c.30375.58098.93859 5.571.29438 6.06956-3.24229 2.50755-9.38505 10.63091-10.52606 14.98324l-.89667 3.56501c-.6222 1.92547-2.25693 8.81734-3.83355 9.96341-1.6944 1.23124-1.36766 1.30478-3.23568 2.01416l-.38854.98903-.261-.90581-1.44968.63832-.57915-.95775-1.37055 1.8861-.36262-1.78564-1.21493 1.43205-.27937-1.29258-.92498-.34275-3.04031 1.08206 2.0049-2.92474c-5.76784 4.22835-4.54369 2.83425-5.77114 1.06958-.0892-.1275-1.57845.0735-1.64838-.0836-.1185-.26775 4.42635-3.01489 4.25306-3.27612-.096-.14512-4.54553 2.24037-4.72365 2.21464l-1.27856.64763-1.65278-.68914-.24975-.47284 2.61533-1.24181 3.2817-1.99133c1.20018-1.39556 2.82465-2.30145 4.88808-4.58673-1.90447-.5883-5.67952 3.60986-6.96255 4.60661l-3.69228 1.75219-1.24399.37012-.46695.18938-.84551-.33-.62513-1.73494 2.78749-.50295 1.34704-.5625 2.2485-1.31063-.94009-.24937 5.54081-3.30184-2.17894-.2475 3.67868-1.42582-1.7856-.86239 4.47379-5.94263-1.39932.0592 2.12157-1.47581-1.54354-.0604 2.6109-1.97145-1.38416-.0337 2.3754-1.52989-1.70243-.0866 2.59583-1.878-2.04465-.52098-1.81395-1.65795.50625-6.43564-1.25539.17887.49526-2.0292-1.26424 1.23188-.10275-3.37365-1.08285 2.12524-.78626-2.1738.9051-2.5377-1.58216 2.31768.35962-4.33987-1.12995 3.16834-.6807-5.09453-.27375 5.03636-1.83712-6.62808.48712 5.5092-2.85446-4.17908.81019 4.89983-3.01635-3.69889.62955 4.81526-4.30088-5.41646c.0945 1.8099-.10425 3.45938.306 5.5791l-7.01002-3.51274 1.17517-6.25095 5.99892-3.15948 5.92458-9.26365c3.04107-7.06999.60308-22.18829 5.93674-27.40534 1.22194-.30465 1.96628-.45993 2.77354.067.5313.34733-4.73539 5.24646-4.81451 5.3083z" fill="#a92211" fill-rule="evenodd" stroke="#1f1a17" stroke-width=".280371"/><path d="m459.24934 290.28939.6288-3.45385c.43233 1.24547 1.14615 4.59521 1.49827 5.58056l-.015-5.01615 1.69804 6.58282.41317-3.955 1.3728 5.08715-.0825-3.93772 3.90274 8.43284c0-.16448-.14925-5.96909.43748-8.26836l1.12226 3.31221.87161-2.98398.35213-.32824.82087.32857.46916.98535.70384-.32857.93825.49267.82125-.98535 1.05559 1.80659.70391-.98531.70384.82123.82091-.32857.93825 1.64246 1.17296-.49267 2.20913 4.01388-.0113-.6288c-4.92855-12.03168-4.94475-28.59933.17438-41.49862-2.41444 1.08322-9.0381 6.77746-11.49964 7.3831-1.36211.0296-1.10749-.19721-3.99439-.98719-6.66412-1.82425-11.55262-4.63935-16.5735-9.39537-3.96825-3.76698-15.59775-18.04491-18.8673-17.19203v1.97069c0 1.47801-1.05562 1.47801-.11737 3.1205.5865.98534 1.173 1.64248 1.75953 2.62783 1.64209 2.79231 0 3.12049-.11737 6.56958-2.5833 1.70247-3.29048 7.5001-.62625 9.59884.90296.7116 2.43176-.0345 3.91894 1.38052 1.48725 1.4151 4.2534 5.43595 4.60515 6.09274.80396 1.12552 1.69031 6.23622 3.63562 7.89968 1.06448.9103 2.7294-1.38198 3.6117.007 3.41119 5.17511 6.76313 10.10256 10.54298 15.02893z" fill="#a92211" fill-rule="evenodd"/><path d="m1940.66 879.377 34.73 12.339-13.59-2.951 25.97 13.948-13.29-2.95 9.66 6.974-17.81-3.487 19.62 8.048-14.49-2.951 23.56 10.998-14.5-3.755 15.1 8.047-11.48-1.342 12.69 6.17-10.27-1.342 8.46 5.366-42.28 14.216-43.79-1.609-12.08-16.631 4.83-8.047 7.25-4.56 5.13-3.488.61-5.096-7.85 1.878 12.68-16.9-13.29 6.169 6.35-7.242 10.26-3.219 4.53-2.414 14.8-.268z" fill="#a92211" fill-rule="evenodd" stroke="#1f1a17" stroke-width=".9" transform="matrix(.31152308 0 0 .31152308 -62.205998 -34.02169)"/><path d="m501.12427 354.57217.23475 1.14984c-1.75946.49267-1.87683-3.1205-3.75371 3.44908l-1.05558.32858-.23438 1.9707-1.056-.1641-4.10512 4.10584.11737 1.64247-3.04987 2.62786.11737.82123.35175-.82123c1.05562 0 1.87687 3.12049 1.87687 3.77728 0 1.31391-.93862.98568-.23475 2.46371l.23475-.49268c2.58034.3285-.35212-1.1498 2.58034-.3285 1.64213-2.46339.70388-6.56961 2.81513-9.03298.93862-.82123 2.69775-6.40548 3.75371-6.89815.93829 0 3.28425 1.47802 3.87075 2.46338-.11738-3.28461 2.346 4.43477 1.52475.16447-.82088-4.10622-.58646-2.62786.82125.16406 1.52475 2.7923-.5865-4.10584-.46946-4.27033.23475-.98535 2.4633 5.91281 2.81546 3.12087.117-.98569-2.46338-5.9128-1.52513-5.42013.35213.32858 3.04988 6.40548 1.99425 2.46375 0-.16447-2.346-7.22671-.5865-3.28498 1.8765 3.94176.35175-1.9707-.23475-3.1205l.11738.82124-2.22863-.1641-.70387-.98569-.58646 1.64248-.82092-.32858.117 1.1498-.23437-.16406-2.46334 1.14942z" fill="#1f1a17" fill-rule="evenodd"/><path d="m488.33936 370.50346.82088 7.39082-.46913.16425-2.58034-2.29928-.93862.16425c-.11738.98535 1.52509 5.2557 1.52509 7.06227v1.31396c0 .65711 0 .49267-.35213.98531l-1.64209-1.47799-.23437.16388-.23475 1.97107-.70388.3285 1.40772 1.14945v1.97108h.23437l.46913-.49268.23475-.98572 2.346-.82091.11737-.98569.117-.16425-.35175-1.97108v-1.64208c0-.98573 0-.49268.46909-1.14983l.93862 2.13517c1.40738-.49267.82088-5.91281.82088-7.39083-.70388-1.47802.23475-1.14983.23475-2.46374 0-.65678-.82121-3.77728-1.87684-3.77728l-.35175.82124z" fill="#1f1a17" fill-rule="evenodd"/><path d="m561.23265 432.99502 6.41985-4.93891c.70387-5.77188-6.90848 2.02996-6.41985 4.93891z" fill="#d1a345" fill-rule="evenodd"/><path d="m1739.98 988.363-6.87 36.167 10.84-11.98" fill="none" stroke="#1f1a17" stroke-width="8" transform="matrix(.31152308 0 0 .31152308 -62.205998 -34.02169)"/><path d="m567.20764 433.23175 5.78441-3.5466c1.33196-5.21523-7.42579.57552-5.78441 3.5466z" fill="#d1a345" fill-rule="evenodd"/><path d="m556.0053 430.96071 7.27822-5.59488-.99896-1.5987h-.85657c-1.99793-.39964-5.56549 5.99486-5.42269 7.19358z" fill="#d1a345" fill-rule="evenodd"/><path d="m511.2114 205.9358c.11737 2.46336 2.93246 3.28461 4.69196 1.80659l-.70387-1.64249.35212-.32857 1.99388.82125.93862-.82125c2.69771.32857 1.52475 2.7923 2.22859 3.77765 1.17304-1.80659-.46946-4.92708-2.81509-5.74834-1.87687-.65714-5.74762.98534-6.68621 2.13516z" fill="#1f1a17" fill-rule="evenodd"/><path d="m502.18031 200.68009 7.50709.65678h.46912l.82125-.1641c-.23475-1.31391-2.69771-2.79194-4.22283-2.79194h-1.29038c-1.17262 0-3.40162.98535-3.28425 2.29927z" fill="#a92211" fill-rule="evenodd"/><path d="m495.90315 211.90333c1.15642 0 1.88715-.007 2.89755-.35542.30375-.10485.53389-.46471.87457-.46471.59498 0 3.00019-.66156 3.06128-1.2028.0562-.49672-.54641-.83523-.54641-1.44858 0-.70314.48787-.63875.80287-.87754" fill="none" stroke="#1f1a17" stroke-width="1.246092"/><path d="m509.32359 210.91894c.39112.0644.74177.13687 1.14503.13687h.77894" fill="none" stroke="#1f1a17" stroke-linejoin="round" stroke-width="1.246092"/><path d="m507.90305 212.44976c.88784 0 1.56742.32121 2.38206.49231.38227.0802.61591.0968.87052-.0548" fill="none" stroke="#1f1a17" stroke-linejoin="round" stroke-width="1.246092"/><path d="m506.89371 214.17217c.73663.0258 1.33416.21856 2.1072.21856.52726 0 .62769-.008 1.05379-.10928" fill="none" stroke="#1f1a17" stroke-linejoin="round" stroke-width="1.246092"/><path d="m505.19902 215.81203c.47025 0 .49193.12841.87056.24616.6255.19463 1.58213.19132 2.29006.19132" fill="none" stroke="#1f1a17" stroke-linejoin="round" stroke-width="1.246092"/><path d="m504.05573 217.2332c1.30105.43123 2.46559.57399 3.93918.57399" fill="none" stroke="#1f1a17" stroke-linejoin="round" stroke-width="1.246092"/><path d="m501.48878 217.99861c0 .62329 2.54063.8746 3.38984.8746" fill="none" stroke="#1f1a17" stroke-linejoin="round" stroke-width="1.246092"/><path d="m498.92495 219.33785c.46398 0 .88195.21819 1.28263.35543.99934.34145 1.93316.35543 3.069.35543" fill="none" stroke="#1f1a17" stroke-linejoin="round" stroke-width="1.246092"/><path d="m457.80386 277.69763c.84739 3.14333 1.66718 4.59191 1.66718 4.59191l.65602-2.62415 1.39414 5.08422s.87458-4.12756.87458-3.96345c0 .16407 1.31208 4.51023 1.31208 4.67397 0 .1641.98389-2.84271.95667-2.59658-.0263.24615 1.50337 4.29129 1.50337 4.29129s.60124-3.19778.65606-3.00644c.0544.19132 1.42136 2.73308 1.42136 2.73308s.32776-2.51451.35513-2.35041c.0263.16373.84735 2.26874.84735 2.26874s.0821-2.56973.32813-2.24151c.24562.32782 1.44858 2.48726 1.44858 2.48726l.21863-2.48726 1.06627 1.66715s.27338-2.65141.43714-2.4873c.16425.1641 1.03868 1.99534 1.03868 1.99534" fill="none" stroke="#1f1a17" stroke-linejoin="round" stroke-width=".623046"/><path d="m448.26191 425.12283 2.11163-.82129.23437-.16463c-.11737-.82091-.5865-1.64212-.5865-1.64212l-1.05562-.3285c-2.58038 0-6.33409 2.79195-6.56846 5.0916 3.28425 0 2.81512-1.80694 5.86462-2.13514z" fill="#d1a345" fill-rule="evenodd"/><path d="m451.53915 428.12898v-.4926l.11737-.3285-2.81508-.98532c-1.87692 1.14942-4.22288 3.28456-3.63638 5.74831.93859.16424 2.11121-.82122 2.69775-1.47837 1.40771-1.31392 1.64246-.82129 3.519-1.64208l.11738-.82133z" fill="#d1a345" fill-rule="evenodd"/><path d="m453.8382 428.67108c-1.8765 1.14982-3.63604 2.95635-3.0495 5.4201.93825.16425 1.87646-1.31393 2.46296-1.97104 2.69817-1.31393 6.4515-.16425.58654-3.44917z" fill="#d1a345" fill-rule="evenodd"/><path d="m441.31185 423.8113c.86647-.40691 3.75004-2.09467 6.16706-2.67382.0499-.49047.33338-.95663.36638-1.28374l-.26663-.85256c-1.93354.46357-6.55084 1.80952-6.26674 4.81012z" fill="#d1a345" fill-rule="evenodd"/><path d="m473.20872 217.56622c-.36498.4912-.37087.9353-.20128 1.65058.003.011-.009.14644 0 .16116.0184.0294.0607.0416.0806.12105" fill="none" stroke="#1f1a17" stroke-width=".623046"/><path d="m474.49531 218.13008c-.33887.50775-.2009 1.69105.16115 2.17416" fill="none" stroke="#1f1a17" stroke-width=".623046"/><path d="m475.50153 218.33132c-.188.43822-.13614 2.06267.76532 2.06267" fill="none" stroke="#1f1a17" stroke-width=".623046"/><path d="m476.83173 218.21045c-.76201.73662.23143 1.89489.7852 1.97584" fill="none" stroke="#1f1a17" stroke-width=".623046"/><path d="m477.95633 218.05251c-.84074.88673.45588 2.15687 1.23002 1.78046" fill="none" stroke="#1f1a17" stroke-width=".623046"/><path d="m479.24604 218.16995c.0423.64647.36903 1.58399 1.22855 1.35034" fill="none" stroke="#1f1a17" stroke-width=".623046"/><path d="m480.60428 218.16933c.0537.33961.35323 1.11191 1.12332.9526" fill="none" stroke="#1f1a17" stroke-width=".623046"/><path d="m480.40174 339.57857-6.5607 4.10622c-2.80961 1.75801-6.00518 5.80352-8.78719 9.87811-3.16796 4.6401-3.74674 9.68715-4.66991 15.03295l.11737 3.65918 1.46074-3.35856-2.44095 7.37391 4.56394-7.16787-3.69889 9.43182 4.71514-7.32056-3.31144 10.70816 5.43705-9.37404-6.37935 15.08926 6.24874-12.29441-5.41534 14.68012 5.51689-13.09503-2.94094 10.98521 3.85714-7.99384-2.35005 9.11314 2.9049-6.07211-2.0178 8.5995 2.874-6.44337-1.73963 9.5775 2.9748-6.71861-1.79921 7.29885 2.86954-4.60331-.279 4.75672 1.75249-1.60642c-.114 1.00556.015 2.64952-.0506 3.69154.50888-.35513 1.34595-1.57995 1.93834-2.12153l-.93019 4.63864 1.88093-2.67641-.97208 4.5231c.73369-.54454 1.0659-.46875 1.68994-.96068l-1.23405 2.65763 1.00335-.14663-1.67779 2.2941 1.35473-.61447-1.56375 1.99905 1.7238-.32963-2.29632 1.68004 1.96962-.16763-2.62047 1.6035 2.60757-.4323-3.1032 1.61382 2.01262-.0431-2.5557 1.31947 1.61231.84034c-1.06665.50775-1.61857.0439-2.62083.47647l1.70651.91508-2.90381.26887 4.15038 1.68364-5.44443-.8289c-3.22058 1.37685-2.40192 1.39448-9.06533 1.78519-4.76115.27937-5.00509.47914-9.69082 2.14954.27075.63427.0491 1.16677.25012 1.50637.60308 1.0185 1.36871.87713 1.49824 1.14758.42975.90071 1.22749.71347 1.55269 1.82947.26325.90251-.0551 2.71684.57033 3.34706.53944.54349 1.23848.79733 1.58768 1.22123.567.68921 1.35547.89482 1.78084 1.18001 1.17592.78848 1.64981.59565 2.88206.71783l.74655-.79103.30712-.63397.51439-.38749-.0225.79515-.49121 1.03612.37087.36825c.88857-1.22523.97433-1.22343 1.71574-2.06598l.21525.58102-.26812.59123-.4695.86685.40327.0337.79178-.87424.3465-.67665.35362-.38378.44779.1995-.38895.59385-.76605 1.13247.68621.0694 1.12736-1.18256.50963-.59644-.81795 1.61228.64721.11137 1.54133-1.66931c-.0439 2.87917 4.20555 1.10235 6.6321 1.21564 3.4362.0188 5.11181-1.39812 7.57961-3.58519 1.95041-1.72927 3.19151-3.96821 4.68277-5.10109 4.47492-3.40054 8.59362-3.8064 8.86662-6.25691.66048-5.93374-1.73779-12.32449-1.90703-17.30348-.0581-1.71611.14588-1.84818.54675-3.91747.1155-.59681 1.93166 1.51222 2.70251 3.42004.19088-1.66313-.68175-6.08944-.80175-6.78045.46437.47943 1.36729 1.45631 1.61787 1.79152.19612-2.36625-1.06707-4.55437-1.63294-6.81465.45626.90071.53276.48934 1.58437 2.22533-.246-2.02699-2.13701-5.95478-2.13776-7.07734.79624.6645 2.08733 2.93287 2.34896 3.31035.1065-.26288-.28125-2.57595-1.23558-6.66045l1.32975 2.814-.83595-5.11031.8757.97173.17737-2.75328 1.4427 1.36065.33863-2.39348 1.75841 3.84833-.43343-4.28434 2.02879 5.7693-.42202-5.83995 1.37613 1.45668-1.17562-5.45324c1.58659 3.32582 1.42357 3.13377 2.02665 3.81261-.16763-1.33709-1.05525-3.36408-1.19985-5.39992l1.44454 2.17307-.76459-4.94879 1.3452 2.34819-.23963-2.75514 1.4997 2.85486.57473-1.97842.65092 5.88853 2.59032-7.52035-4.2468-23.86537.67443-1.49238-5.66958-11.8466-1.43682.83376-1.13508.475c4.78687 7.14211 9.3225-6.68842.56733-.23767l-5.50878-7.733-.46988 7.77091-.53497-4.46313-.4857 4.75821-.93053 4.27438-.60671-.1122.45367-3.93588c-.88125 2.49758-.78742 4.66621-1.61861 7.25139l-.1155-5.27994-1.07475 5.57797-.35662 1.03906-.14325-4.31669-.89337 3.97635-.80651 1.66935.12638-4.38658-1.93354 5.968.67886-4.27141-2.07112 6.95664.38962-4.44287-2.10536 5.78585.0401-4.01534-2.5362 4.67651 1.06778-3.68123z" fill="#a92211" fill-rule="evenodd" stroke="#1f1a17" stroke-width=".280371"/><path d="m481.27714 282.29259 2.32024 4.30933.77673-5.23543.98715 3.10505 1.53214-5.1291.94853 2.57707 1.7433-3.49027 1.01403 3.35598 2.99543-7.2341-2.66903 3.80157-.64316-4.12684-2.20474 4.20816-1.13029-1.72013-1.19396 4.20776c.0593-4.82885-.26212-6.65936-.58687-7.94199-.79587 2.09027-.96289 4.31926-2.55683 8.71245l-.58174-4.42779-3.49211 6.54898 2.74451-16.44804 1.74109-3.62752 1.08874 3.30335 2.59436-5.48159-.29437 7.4221 3.38839-5.40505 2.33936 4.67911 2.8236-5.00178.3045 3.17423.94267-2.78163.63765 1.10419 1.3875-2.01153.56037.26932.92722-1.28743 2.61311 63.61178-2.74297-2.66244c.33375-6.45366-1.56818-2.33237-1.45485-9.79422l-.55485 7.2179-1.19764-5.36605-1.35626 2.68671.38377-6.9747-1.51443 2.28748.62696-3.90092-1.82168 1.69179.30188-5.46907-2.01926 3.2629-.44892-5.80649-1.4655 3.45938-.17137-5.23138-1.94014 4.88185-.42757-7.68739-1.43644 2.28087-.37931-8.55756-2.20253 1.04899-1.23626-10.40796z" fill="#a92211" fill-rule="evenodd" stroke="#1f1a17" stroke-width=".280371"/><path d="m599.38177 389.94873c.85066 1.21053 2.20137 1.49201 2.59767 3.11351.13462.55042.22575 1.13659.35775 1.69256.0926.39071.0559.98865.1875 1.4103" fill="none" stroke="#1f1a17" stroke-linejoin="round" stroke-width=".934569"/><path d="m598.54376 392.31629c.67478.82789 2.05313 1.9659 2.28345 2.9487.10238.43451.0589.77929.41798 1.10231.27712.249.16875.83231.21412 1.1484" fill="none" stroke="#1f1a17" stroke-linejoin="round" stroke-width=".934569"/><path d="m598.2852 394.21038c1.12222 1.54425 1.85036 3.03626 2.0244 4.84354" fill="none" stroke="#1f1a17" stroke-linejoin="round" stroke-width=".934569"/><path d="m598.20731 396.25709c-.0427 1.08544.98498 2.19292 1.33196 3.18304.13201.3768.43861.9.39109 1.36507" fill="none" stroke="#1f1a17" stroke-linejoin="round" stroke-width=".934569"/><path d="m597.16995 398.0047c.1755.65681.33975 1.23776.67882 1.79153.13388.219.30525.39037.39885.6369.20325.53643.17175 1.05378.29888 1.62041" fill="none" stroke="#1f1a17" stroke-linejoin="round" stroke-width=".934569"/><path d="m596.02354 400.14175c.26625.50337.42607 1.2558.6921 1.66054.41134.6255 1.12811 1.75984 1.14356 2.43503" fill="none" stroke="#1f1a17" stroke-linejoin="round" stroke-width=".934569"/><path d="m596.80239 404.41278-.98021.12582-.007-.0552-.0115-.0537-.0109-.0537-.0137-.053-.0149-.0533-.0178-.0504-.0187-.0533-.0203-.0544-.0237-.0537-.0234-.0511-.024-.0541-.0271-.0559-.028-.0555-.029-.0552-.0299-.0548-.0338-.0592-.0324-.0589-.0327-.0589-.035-.0611-.0349-.0614-.0368-.064-.0346-.064-.0379-.0674-.036-.0673-.0368-.0703-.0368-.0695-.0353-.074-.0349-.0732-.0353-.078-.0324-.0795-.0327-.0806-.0316-.0824.93161-.33261.0221.0618.0231.0607.0265.0589.0259.0581.0284.0607.0296.0578.0293.0607.0308.0585.0324.0592.0313.0585.0353.0603.0331.0596.035.0614.035.0611.0364.0633.0353.0633.0338.0629.0364.0674.035.0669.0346.0681.0338.0684.0342.0703.0324.0754.0296.0743.0299.0743.0283.0776.0259.0828.024.0813.0218.0846.0199.0861.0149.089.0149.0905zm.004 1.37204-.98093-.10006.004-.0449.004-.0416.004-.0412.003-.0386.003-.0397.003-.0368.003-.0368.003-.0397.003-.035v-.0353-.0342-.0346-.0335-.0338l.003-.0331v-.0313-.0353-.0335-.0331-.0308l-.003-.0316v-.0331l-.003-.0324-.003-.0357v-.0342l-.004-.035-.004-.0349-.003-.0357-.004-.0364-.005-.0368-.003-.0394-.006-.0379.9802-.12583.005.046.007.0438.004.0441.004.0438.006.0438.003.043.003.0423.004.0423.003.0401.003.0434.003.0412v.0434.0427l.003.0412v.0408.039.043.0412.0412.0416l-.003.042-.003.0423-.003.0427-.003.0431-.003.0397-.003.0441-.004.0449-.003.0434-.004.046-.004.0449-.004.046-.004.0449z" fill="#1f1a17"/><g stroke="#1f1a17"><path d="m594.13571 403.72428c.2775.6369.70643 1.11596.80981 1.80476.0514.34012.336.60454.30001.95812" fill="none" stroke-linejoin="round" stroke-width=".934569"/><path d="m593.7681 406.66818c-.18375.64905-.0435 1.12038-.0488 1.7838-.003.24112.11363.3852.27412.55777.11475.12338.11475.45701.13688.61005" fill="none" stroke-linejoin="round" stroke-width=".934569"/><path d="m486.91571 388.02974-.49781-5.35058 2.73746 2.364-1.8666-9.70552 4.85314 5.47496s-2.48872-12.69211-1.86652-11.44775c.62216 1.244 3.6084 6.09714 3.6084 6.09714" fill="none" stroke-linejoin="round" stroke-width=".311523"/><path d="m491.89384 366.74961c1.05341 1.34076 1.73741 2.00711 2.1153 3.60841.25725 1.08799.49781 2.4652.49781 3.60877" fill="none" stroke-linejoin="round" stroke-width=".311523"/><path d="m493.51065 364.38515c.49267 1.134 1.36909 2.09138 1.61745 3.23529.21975 1.01074.39079 2.28564.74655 3.2353" fill="none" stroke-linejoin="round" stroke-width=".311523"/><path d="m494.0091 362.64374c.4095 1.43313 1.68112 3.05058 2.36438 4.35531.69172 1.32126.49781.85104.49781-.62217 0-1.31688-.10838-2.69998.1245-3.98187 0 .63726.0964 1.28632.24862 1.86656.46508 1.76687.12488-1.63587.12488-2.3644 0-3.56423 1.11964 4.08893 1.11964.6222 0-.41578-.13088-4.70817.62223-1.86621.69612 2.62565.62217-1.55894.62217-1.9909 0-.76644-.0971-1.62999.1245-2.36441.27975-.92575 1.18331 1.92765 1.49313 1.61747.56479-.56442.87128-2.10387.87128-2.86185" fill="none" stroke-linejoin="round" stroke-width=".311523"/><path d="m491.61662 389.58116c.66635.47576 1.336 1.32532 1.61562 2.11235.22261.62772.31056 1.3073.31056 1.98798" fill="none" stroke-linejoin="round" stroke-width="1.246092"/><path d="m489.5668 388.4628c.5589 1.02509 1.16933 2.07187 1.73963 3.04435.38632.65934.84442 1.45961.99417 2.17453.11184.53389.0317 1.46182.31052 1.92615" fill="none" stroke-linejoin="round" stroke-width="1.246092"/><path d="m489.44219 390.3257c1.205 1.77201 3.04433 4.60441 3.04433 6.77233" fill="none" stroke-linejoin="round" stroke-width="1.246092"/><path d="m489.8752 392.56244c.20091.53573.42315 1.24805.68364 1.73964.55339 1.0464.68327 1.84007.68327 3.04433" fill="none" stroke-linejoin="round" stroke-width="1.246092"/><path d="m489.50449 394.42846c0 1.15385.88379 1.88973.93199 3.04433.0293.70977.0622 1.44123.0622 2.17456" fill="none" stroke-linejoin="round" stroke-width="1.246092"/><path d="m488.57304 397.59665c.12252.91837 1.1969 1.44049 1.42908 2.29889.0865.32049.0644 1.52624-.0622 1.86362" fill="none" stroke-linejoin="round" stroke-width="1.246092"/><path d="m487.82538 398.59041c0 .93753.12215 1.77126.18617 2.67162.0501.70056.0556 1.06261-.43489 1.55307" fill="none" stroke-linejoin="round" stroke-width="1.246092"/><path d="m486.274 400.45332v1.98836c0 .44741.19243 1.05413-.43492.4971-.34511-.30651-.43819-.76314-.68326-1.11856-.63725-.92279-.62143 1.4302-.62143 1.80182 0 .16629-.16374.38523-.18657.37271-.4695-.25829-.56588-1.30473-.99379-1.30473-.31495 0-.22408.7013-.31093.9942-.45439 1.52989-.35467-.25314-.37271-.80763-.0187-.58208-.43492-.92942-.43492-1.55347" fill="none" stroke-linejoin="round" stroke-width="1.246092"/><path d="m477.09653 421.67427c.38523-.38523 1.68481-.57766 1.68481-.57766l1.20316-1.492 1.05893.38485 1.63659-2.31029" fill="none" stroke-width=".623046"/><path d="m484.12449 415.60892c-.11738.2546-.0283.2285-.0964.43308-.0464.14018-.10672.22037-.14423.38523-.0256.10962-.13505.17146-.14461.33666-.0178.31349-.24065.44043-.24065.77008v.52947" fill="none" stroke-width=".623046"/><path d="m485.95313 414.21329c-.0916.70239-.0769 1.24697-.33704 1.82905-.0206.0456.0184.14458 0 .19243-.0813.21155-.35763.88232-.52946 1.01108" fill="none" stroke-width=".623046"/><path d="m487.01231 412.7211c-.25941 1.29808.22959 3.23236-.9147 3.9951" fill="none" stroke-width=".623046"/><path d="m488.6478 410.41271c0 1.23114.20972 2.94903-.33703 4.04329-.10524.21084-.8665 1.43276-.8665 1.63662" fill="none" stroke-width=".623046"/><path d="m489.51384 412.19151c.10782.72005.34735 1.4379.57765 2.11786.078.23034.20421.41872.28885.6255.29507.72302.17807.12879.33704-.52946.15784-.6542.096-1.66861.096-2.35851 0-2.36954-.0725 2.5881.77008 2.21427.55816-.24762.38523-4.19783.38523-5.10225 0-1.63954.0408-.43893.24065.33704.0677.26271.47059 3.4362 1.05893 2.59913.81535-1.15974.52947-2.79782.52947-4.09114" fill="none" stroke-width=".623046"/><path d="m437.16859 258.68132c-.1635.35359-.14438 1.15902-.14438 1.54021 0 .24724-.0187.50371.048.72227.0945.30206.19275.68327.19275 1.01073" fill="none" stroke-linejoin="round" stroke-width=".311523"/><path d="m438.37106 259.33957c-.12525.54419-.0476 1.2201-.0476 1.78121 0 .53903-.11475 1.82976.14437 2.2621" fill="none" stroke-linejoin="round" stroke-width=".311523"/><path d="m439.35859 260.82741c-.13988.74692-.0937 1.71644.0484 2.4549.0472.24653.10275 1.92727.24075 1.97327" fill="none" stroke-linejoin="round" stroke-width=".311523"/><path d="m440.86013 262.66696c-.39222 1.37167-.0454 3.33796.14437 4.66879" fill="none" stroke-linejoin="round" stroke-width=".311523"/><path d="m441.29314 261.70403c.35475.88712.28875 3.33501.28875 4.33214 0 .86355.063 2.09284.24075 2.98437" fill="none" stroke-linejoin="round" stroke-width=".311523"/></g><path d="m1617.96 973.98.02-.517.03-.552.04-.587.04-.613.06-.638.06-.659.06-.671.07-.682.08-.687.08-.69.08-.689.08-.677.09-.665.08-.647.08-.626.08-.595.08-.566.07-.529.07-.489.06-.44.06-.388.05-.334.04-.276.03-.206.02-.137.97.3-.02.137-.03.206-.04.269-.05.329-.05.389-.06.439-.07.482-.07.524-.08.561-.08.596-.08.619-.08.642-.08.658-.09.672-.08.677-.08.679-.07.681-.07.671-.07.662-.06.64-.05.621-.04.592-.04.558-.02.524-.02.477-.01.43.01.365.02.297.03.214.02.097-.02-.035-.14-.119-.31 1.366-.3-.284-.15-.347-.08-.352-.04-.365-.02-.399-.01-.438z" fill="#1f1a17" transform="matrix(.31152308 0 0 .31152308 -62.205998 -34.02169)"/><path d="m443.45824 266.51737c-.81683 1.76907-.67887 4.39248-.43088 6.13505" fill="none" stroke="#1f1a17" stroke-linejoin="round" stroke-width=".311523"/><path d="m443.89125 266.99869c-.70016 2.70877-.25913 6.76347.0855 7.57885" fill="none" stroke="#1f1a17" stroke-linejoin="round" stroke-width=".311523"/><path d="m1627.37 990.14-.17-.892-.17-.929-.17-.962-.17-.99-.16-1.014-.15-1.036-.15-1.048-.14-1.058-.13-1.066-.12-1.065-.11-1.064-.1-1.056-.07-1.046-.07-1.027-.05-1.007-.02-.981-.01-.952.01-.919.03-.88.06-.84.08-.793.11-.744.14-.692.17-.633.21-.576.92.378-.18.491-.15.567-.13.633-.1.697-.08.755-.05.806-.04.854-.01.896.01.933.03.965.05.988.06 1.015.08 1.03.09 1.044.11 1.052.12 1.057.13 1.055.13 1.051.15 1.041.15 1.024.17 1.005.16.982.17.955.17.92.17.885.17.839.17.795.17.742.16.686.16.624.15.56.14.486-.95.288-.15-.51-.16-.574-.16-.64-.16-.698-.17-.754-.17-.802z" fill="#1f1a17" transform="matrix(.31152308 0 0 .31152308 -62.205998 -34.02169)"/><path d="m445.64824 269.40644c-.19313.58871-.252 1.49753-.21563 2.06857.03.49046.82969 3.86815.91245 4.36892" fill="none" stroke="#1f1a17" stroke-linejoin="round" stroke-width=".311523"/><path d="m446.63576 270.03136c.0739 1.56485.47723 4.21696 1.32203 5.48414" fill="none" stroke="#1f1a17" stroke-linejoin="round" stroke-width=".311523"/><path d="m448.80086 271.18618c-.19087.82896-.24487 4.73025.38524 5.15043" fill="none" stroke="#1f1a17" stroke-linejoin="round" stroke-width=".311523"/><path d="m450.86936 275.03723c-.50002 1.49972.153 3.31662.43309 4.71698" fill="none" stroke="#1f1a17" stroke-linejoin="round" stroke-width=".311523"/><path d="m452.84441 277.34748c-.31912.957.44633 5.80832 1.10715 6.69064" fill="none" stroke="#1f1a17" stroke-linejoin="round" stroke-width=".311523"/><path d="m454.04692 279.08079c.0743 1.3474.71712 2.74228.7701 4.13971.0337.8941.5622 1.76686.67369 2.55094" fill="none" stroke="#1f1a17" stroke-linejoin="round" stroke-width=".311523"/><path d="m456.16526 280.33312c-.70717 1.76832.336 5.70162.96293 7.26792" fill="none" stroke="#1f1a17" stroke-linejoin="round" stroke-width=".311523"/><path d="m458.47676 284.61656c0 .49229-.0375.89481.14438 1.34777.267.67223.249 1.33893.43342 2.02182.1185.43971.2445 2.0899.48128 2.4067" fill="none" stroke="#1f1a17" stroke-linejoin="round" stroke-width=".311523"/><path d="m459.96896 289.0433c.30488 1.13251.44486 2.39973 1.05893 3.32102.55597.83485.90514 1.83898 1.44416 2.64733" fill="none" stroke="#1f1a17" stroke-linejoin="round" stroke-width=".311523"/><path d="m465.5016 294.81893c-.45735 1.48722.0484-.48532.0484.52947 0 .35655.12862.80173.24074 1.15498.14813.46765.28875 1.10197.43305 1.49235.17888.48239.72229 1.00852.81833 1.492" fill="none" stroke="#1f1a17" stroke-linejoin="round" stroke-width=".311523"/><path d="m476.61675 262.4411c0 1.35513-1.6182 2.56602-1.92506 3.89871-.28463 1.23738-.38524 2.41112-.38524 3.75447" fill="none" stroke="#1f1a17" stroke-linejoin="round" stroke-width=".311523"/><path d="m475.24605 263.36352c-.34163.88747-1.83787 2.77022-2.09543 3.69818-.20399.73367-.14475 1.65758-.14475 2.5031" fill="none" stroke="#1f1a17" stroke-linejoin="round" stroke-width=".311523"/><path d="m473.89096 264.37661-.22592-.21267.0327-.0346.032-.0361.0327-.0364.0317-.0368.0316-.0368.0313-.0375.032-.0383.0308-.0383.0313-.039.0317-.0397.0305-.0394.0305-.0397.0313-.0408.0313-.0401.0299-.0408.0308-.0408.0308-.0416.0308-.0416.0302-.0412.0308-.0419.0305-.0416.0308-.0427.0308-.042.0308-.0423.0308-.042.0317-.0427.0312-.0423.0308-.042.0316-.043.0324-.0416.0316-.0416.0324-.0431.24504.18986-.0308.0401-.0316.0416-.0308.0416-.0308.0408-.0308.0419-.0313.0423-.0302.0412-.0308.0419-.0308.0423-.0308.0419-.0308.0419-.0305.0423-.0308.0419-.0316.0427-.0308.0416-.0308.0416-.0308.0423-.032.0416-.0313.0416-.0313.0408-.032.042-.0327.0408-.0317.0405-.032.0405-.0339.0405-.032.0397-.0335.0397-.0339.0397-.0346.039-.0335.0379-.0349.0383-.035.0383zm-.22592-.21267.22592.21267-.006.006-.006.006-.006.005-.006.005-.007.004-.007.004-.007.004-.007.003-.007.003-.007.002-.007.002-.007.002-.007.002-.007.001-.007.00063-.007.00031h-.008l-.007-.00031-.007-.00063-.007-.00062-.007-.002-.007-.002-.007-.002-.007-.002-.007-.003-.007-.003-.007-.004-.007-.004-.007-.004-.006-.004-.006-.005-.006-.005-.006-.006-.006-.006-.005-.006-.005-.006-.004-.007-.004-.007-.004-.007-.003-.007-.003-.007-.003-.007-.003-.007-.003-.007v-.007-.007-.007-.007-.008-.007-.007-.007-.007l.003-.007.003-.007.003-.007.003-.007.003-.007.004-.007.004-.007.004-.007.004-.006.005-.006.005-.006zm-1.27161 4.14964h-.31127v-.1744l.003-.16962.005-.16373.007-.15896.009-.15416.0115-.14975.0146-.14607.0165-.14166.0202-.13835.0227-.13467.0249-.13208.0293-.12842.0324-.1273.0357-.12363.039-.12179.043-.11995.0467-.11921.0508-.11627.0552-.1159.0582-.11517.0629-.11443.0677-.11369.0718-.11296.0758-.11369.0802-.11407.0854-.11369.0894-.1159.0949-.11664.0993-.11737.10448-.11995.10929-.12179.11517-.12436.22591.21267-.11149.12068-.10707.11811-.10081.11627-.0964.11369-.0905.11149-.0857.11001-.0802.10928-.0765.10744-.0714.10634-.0666.10633-.0625.10634-.0585.10559-.0545.1056-.0501.10708-.0471.10817-.043.10817-.0394.11112-.0368.11223-.0335.11553-.0302.117-.0265.12032-.0243.12326-.0215.12731-.0187.13098-.0159.13504-.0134.13945-.0115.14386-.009.14902-.007.15453-.005.16006-.003.16447v.17219z" fill="#1f1a17"/><path d="m473.19934 262.58534c-.0439.66523-.74618 1.6675-1.15497 2.16606-.15637.19061-.28499.57656-.43342.8183-.174.28369-.18975.67113-.38486.9147" fill="none" stroke="#1f1a17" stroke-linejoin="round" stroke-width=".311523"/><path d="m471.27413 262.53704c-.15975.20494-.69795 1.41032-.83007 2.26395" fill="none" stroke="#1f1a17" stroke-linejoin="round" stroke-width=".311523"/><path d="m469.8972 262.53674c-.54161.0445-1.03834.98645-1.22119 1.44453" fill="none" stroke="#1f1a17" stroke-linejoin="round" stroke-width=".311523"/><path d="m468.17449 262.10341c-.34763.41688-1.04385 1.11007-1.4265 1.49274" fill="none" stroke="#1f1a17" stroke-linejoin="round" stroke-width=".311523"/><path d="m466.54522 262.1573c-.50298-.11591-1.55531.77342-1.67306 1.24622" fill="none" stroke="#1f1a17" stroke-linejoin="round" stroke-width=".311523"/><ellipse fill="#1f1a17" fill-rule="evenodd" rx="9.79371" ry="10.1587" stroke="#1f1a17" stroke-width=".9" transform="matrix(.15053823 -.02067803 .02067803 .15053823 495.84399 208.60495)"/><path d="m492.4515 207.70122c.024.74913.43968 1.54682 1.10641 2.07003.51843.40695 1.22341.63838 1.79885.61299.93971-.0419 2.35446-1.16563 1.95378-3.19999-2.50826-.41688-2.66168-.12657-4.85901.51695z" fill="#fff" fill-rule="evenodd" stroke="#1f1a17" stroke-width="1.246092"/><path d="m493.36426 207.56602c-.0335.25167.27044 1.2153.38047 1.43754.51068 1.03207 2.84563 1.00706 2.8552-.55743 0-.22297.0277-1.51591-.39589-1.55713-.47906-.0467-1.11045-.0165-1.55714.16815-.25608.10597-1.1351.32747-1.28264.50887z" fill="#1f1a17" fill-rule="evenodd" stroke="#1f1a17" stroke-width=".280371"/><path d="m495.08699 209.21553c.39846-.18507.51401-.35874.72151-.70939.0199-.0331.0277-.12952.0379-.0923.0691.24762.12436.50113.0673.75354-.05.22334-.33667.28148-.52797.21782-.0659-.0217-.24103-.163-.29878-.16962z" fill="#fff" fill-rule="evenodd" stroke="#1f1a17" stroke-width=".280371"/><path d="m461.68548 226.95833c6.09567 0 9.16834-3.519 15.3689-3.519 3.0852 0 5.70455.28663 8.20471.80211 1.40222.2892 2.99246.25903 4.44876.98976 2.27241 1.35218 2.01559 4.00541.15122 4.44363-1.31905.30981-3.47043.2789-4.44104-.0221-3.84647-1.19323-11.1729-4.09774-14.94246-2.27203-1.67007.80873-3.54438 1.24695-5.58349 1.36101-.89407.05-1.67191.16337-2.48801-.23474-.51326-.2502-1.66272-1.25247-.71859-1.54866z" fill="none" stroke="#1f1a17" stroke-linejoin="round" stroke-width=".623046"/><path d="m461.68548 226.95833c6.09567 0 9.16834-3.519 15.3689-3.519 3.0852 0 5.70455.28663 8.20471.80211 1.40222.2892 2.99246.25903 4.44876.98976 2.27241 1.35218 2.01559 4.00541.15122 4.44363-1.31905.30981-3.47043.2789-4.44104-.0221-3.84647-1.19323-11.1729-4.09774-14.94246-2.27203-1.67007.80873-3.54438 1.24695-5.58349 1.36101-.89407.05-1.67191.16337-2.48801-.23474-.51326-.2502-1.66272-1.25247-.71859-1.54866z" fill="#a92211" fill-rule="evenodd"/><path d="m480.29895 221.34061c.10125.0861-.25912 1.67707-.2865 1.91146-.0772.66082-.13125 1.52843-.31538 2.1587-.0401.13763-.34837 1.48796-.55777 1.28375-.93495-.91102-1.98728-3.60435-2.02185-4.97346l3.18157-.38045z" fill="#fff" fill-rule="evenodd" stroke="#1f1a17" stroke-width=".934569"/><path d="m453.04069 424.23187.9699-.21938c.231-.18525 2.13735-1.04824 2.38387-1.06778.225-.0187 4.31963-.62328 4.31963-.62328l.98017-.54563 1.05638-.24075 1.22857-.28012s0 0-.36525.32962c-.36487.33-1.22085.59055-1.22085.59055l.83524.50411-.64646.29175-4.86274.4416-4.23352 2.35515-.71048-1.53202h.2655z" fill="#1f1a17" fill-rule="evenodd" stroke="#1f1a17" stroke-width=".280371"/><path d="m455.16529 428.3284 1.47176-1.60976 1.48279-.45881 2.385.44662-2.40893.5817s-1.29367.75356-1.43681.77385c-.14325.0188-.97391.62884-.97391.62884l-.5199-.36225z" fill="#1f1a17" fill-rule="evenodd" stroke="#1f1a17" stroke-width=".280371"/><path d="m450.79147 421.72098c.48128-.24038 1.06594-.62592 1.54021-.62592.20849 0 .65459-.23437.91469-.28875.53352-.111 1.07843-.43316 1.63624-.43316.2745 0 .91508-.0967 1.05893-.28875" fill="none" stroke="#1f1a17" stroke-width="1.869138"/><path d="m2043.91 1501.8v2.32l5.1-3.4 5.02-5.1 6.56-3.71 3.56-1.39-3.71-3.25-3.09-.15-4.48.31-5.72 4.63-2.47 5.88z" fill="#d1a345" fill-rule="evenodd" stroke="#1f1a17" stroke-width=".9" transform="matrix(.31152308 0 0 .31152308 -62.205998 -34.02169)"/><path d="m486.15247 207.27878 3.80228-.64868c2.16169-.62255 4.398-2.52812 6.50411-3.32436l-.015-.17846-1.03132.0625-1.51043.93751-2.06962 1.39597-1.87725 1.10676" fill="none" stroke="#1f1a17" stroke-width=".280371"/><path d="m1793.47 762.149-4.33 2.112-4.58 2.505-4.3 2.42-3.17 2.028-4.15 1.271.15-.357 6.72-4.076 2.5-1.687 2.98-2.025 2.23-1.728 1.69-1.31 5.18-.634z" fill="#1f1a17" fill-rule="evenodd" stroke="#1f1a17" stroke-width=".9" transform="matrix(.31152308 0 0 .31152308 -62.205998 -34.02169)"/><path d="m471.42679 210.94073c-1.24662.2811-5.0088.76311-4.62098 2.63519.15788.76348.57105 1.37794 1.12073 1.95303.42979.44962 1.83933 3.18894 2.7879 2.46042.99675-.76605.89077-.64021 1.12076-1.75029.13688-.66156-.24263-1.14872-.62884-1.64874-.35137-.45515 1.32056-1.05563 1.50342-1.5472.45108-1.2131-1.07918-1.58104-1.28299-2.10241z" fill="#1f1a17" fill-rule="evenodd" stroke="#1f1a17" stroke-width=".280371"/><path d="m469.86604 210.86066c-.31088 0-.489.14607-.70129.35839-.0791.079-.48345.21233-.6045.27559-.83674.43675.14475 1.32973.8109.66119.2805-.28148.59681-.54345.86614-.81279.38122-.38118-.0645-.50996-.37125-.48237z" fill="#fff" fill-rule="evenodd"/><path d="m484.17431 255.26983c-1.55895 2.75257-5.6376 8.33312-6.36022 11.25826 1.06481-.95848 5.1438-2.78641 5.87197-3.39719" fill="none" stroke="#1f1a17" stroke-width="2.492185"/><path d="m423.98437 162.65624-2.57812.46875-3.63281 35.85938-25.66407 1.40625v4.57031l31.875 4.21875 31.75782-4.21875v-4.57031l-25.66407-1.40625-3.63281-35.85938z" fill="#405a9f"/><path d="m416.97205 202.91536h13.921176v222.0757h-13.921176z" fill="#405a9f"/><path d="m411.81235-187.7189h7.559726v7.559726h-7.559726z" fill="#d1a345" stroke="#405a9f" stroke-width="2.8125" transform="matrix(.70710678 .70710678 -.70710678 .70710678 0 0)"/><path d="m415.21075-136.03922h7.559726v7.559726h-7.559726z" fill="#d1a345" stroke="#405a9f" stroke-width="2.8125" transform="matrix(.70710678 .70710678 -.70710678 .70710678 0 0)"/><path d="m-184.3205 463.49207h7.559726v7.559726h-7.559726z" fill="#d1a345" stroke="#405a9f" stroke-width="2.8125" transform="matrix(-.70710678 .70710678 .70710678 .70710678 0 0)"/><path d="m421.30267 202.91536h5.25978v68.730438h-5.25978z" fill="#d4cac6"/><path d="m408.51987 196.94914h30.825447v13.589708h-30.825447z" fill="#d1a345" stroke="#103e6f" stroke-width=".9375"/><path d="m423.98437 406.28905c-1.97017 1.70029-2.81463 3.28155-3.39843 4.6875.49762 1.16914 1.1679 2.43154 1.875 4.10157-.91879.0724-3.31707-.03-5.50782.46875v9.49218c0 1.6782 1.97734 5.625 7.03125 5.625 5.05392 0 6.91407-3.9468 6.91407-5.625v-9.49218c-2.19075-.49876-4.47184-.39638-5.39063-.46875.7071-1.67003 1.26019-2.93243 1.75781-4.10157-.5838-1.40595-1.31107-2.98721-3.28125-4.6875z" fill="#d1a345" stroke="#103e6f" stroke-width=".9375"/><path d="m423.98437 361.87499c-3.89733 0-5.41923.42088-7.03125 1.05469-1.21076 1.21866-1.21218 4.65839 0 6.09375 2.24907.23801 3.77378.58594 7.03125.58594 3.25748 0 4.66501-.34793 6.91407-.58594 1.21219-1.43536 1.21076-4.87509 0-6.09375-1.61202-.63381-3.01673-1.05469-6.91407-1.05469z" fill="#d1a345" stroke="#103e6f" stroke-width=".9375"/><path d="m423.93259 295.54688c-3.89734 0-5.41924.42088-7.03125 1.05468-1.21077 1.21867-1.21219 4.6584 0 6.09375 2.24906.23802 3.77377.58594 7.03125.58594 3.25747 0 4.665-.34792 6.91406-.58594 1.21219-1.43535 1.21076-4.87508 0-6.09375-1.61201-.6338-3.01673-1.05468-6.91406-1.05468z" fill="#d1a345" stroke="#103e6f" stroke-width=".9375"/><path d="m569.68144 368.40682c12.93364-27.72095 8.91783-71.77671 11.07946-107.98215 0 0-11.02748-2.20561-39.78583-2.20561-28.75836 0-39.78584 2.20561-39.78584 2.20561 2.16164 36.20544-1.85418 80.2612 11.07946 107.98215 6.16896 13.22214 13.43389 22.46494 28.70638 29.86861 15.27248-7.40367 22.53741-16.64647 28.70637-29.86861z" fill="#405a9f" stroke="#d1a345" stroke-width="2.879268"/><path d="m535.36379 308.91074 6.27808-6.27812 6.27814 6.27812-6.27814 6.27812zm6.27808 10.46353-10.46353-10.46353 10.46353-10.46353 10.46356 10.46353zm27.2052 2.09271-6.27811 6.27811-10.46353-10.46352 2.09269-2.09271 8.37084 8.37082 2.09269-2.0927-10.46353-10.46354-10.46353 10.46354 10.46353 10.46352 2.09273-2.0927-8.37084-8.37082 2.09269-2.09271 10.46357 10.46353-6.27815 6.27812-12.55625-12.55624-12.55626 12.55624-6.27811-6.27812 10.46353-10.46353 2.09276 2.09271-8.37087 8.37082 2.09269 2.0927 10.4636-10.46352-10.4636-10.46354-10.46353 10.46354 2.09269 2.0927 8.37084-8.37082 2.09273 2.09271-10.46357 10.46352-6.27807-6.27811 12.55622-12.55624-12.55622-12.55624 6.27807-6.27812 10.46357 10.46353-2.09273 2.09271-8.37084-8.37083-2.09269 2.09271 10.46353 10.46353 10.4636-10.46353-10.4636-10.46353-2.09269 2.09271 8.37087 8.37082-2.09276 2.09271-10.46353-10.46353 6.27811-6.27812 12.55626 12.55623 12.55625-12.55623 6.27815 6.27812-10.46357 10.46353-2.09269-2.09271 8.37084-8.37082-2.09273-2.09271-10.46353 10.46353 10.46353 10.46353 10.46353-10.46353-2.09269-2.09271-8.37084 8.37083-2.09269-2.09271 10.46353-10.46353 6.27811 6.27812-12.55622 12.55624z" fill="#d1a345" fill-rule="evenodd"/><path d="m416.96637 232.39626c-4.04182 7.50857-4.52272 12.87094-1.26202 21.28867.39296 1.01442.80576 1.73006 1.9755 1.81064.2355.0161 1.71532 3.2342 2.52371 3.7313.3165.19428 3.45679 2.74667 3.45679 1.20685 0-1.58767-1.92102-3.92962-2.68857-5.32228-.0874-.15859 1.34153 1.21678 3.29198 1.86582 2.80811.93384-2.12783-6.53351-2.79821-7.35256-.14775-.18064 1.95858.69062 3.07267.93273 3.75229.81646.44929-2.53511-.38411-3.78575-.88376-1.32607-3.97961-2.79819-1.26203-2.79819 4.61359 0 1.51407-1.72565-.0548-3.95058-1.79298-2.54358-3.64117-5.39733-5.87088-7.62669z" fill="#1f1a17" fill-rule="evenodd"/><path d="m415.95395 235.6632c0 4.45098-2.44864 8.54249-.79257 12.84665.23325.60636 2.48764 6.27302 3.17055 3.77214.64279-2.35335-.92388-3.46305-.51915-5.49408.55118-2.76618-.95557-5.41315.19125-8.30957.56517-1.42835-.21037-3.80413-2.05016-2.81512z" fill="#a92211" fill-rule="evenodd"/><path d="m419.0972 237.63109c-1.4232 0-.82163 2.20507-.49193 2.95199.96251 2.18189 2.71984 2.81512 4.97494 2.81512.7653 0 .0994-.29363-.27338-.76532-.34125-.43196-1.02618-.77047-1.42132-1.14798-.61999-.59128-1.19363-1.30581-1.77679-1.99534-.47576-.56221-.67886-1.45373-1.01149-1.85847z" fill="#bb9858" fill-rule="evenodd"/><path d="m420.29967 244.87462c-.41944-.39921-2.29999-.3363-1.61269 1.2028.89779 2.01006 3.25369 3.66984 5.49409 3.8266.88823.0622-1.23517-1.9729-1.61265-2.35078-.44377-.44337-1.92176-2.22972-2.26875-2.67861z" fill="#bb9858" fill-rule="evenodd"/><path d="m420.76696 250.34123c-.58024-.54786-.90844-1.38124-1.63991-.41025-1.7109 2.27093 2.65357 5.14711 3.96311 6.36869.60341.56294.6027.55374.54675-.3006-.0566-.87497-.97136-2.63189-1.50338-3.36188-.56261-.77267-.75172-1.68148-1.36657-2.29594z" fill="#bb9858" fill-rule="evenodd"/><path d="m420.19066 255.56205c-.18713-.4029-.57255-1.92985-1.14799-1.99534-1.36432-.15563-1.1226 1.61452-.49417 2.48507.71385.98866 1.28118 1.81431 1.96998 2.79009.4566.64721 3.06679 2.86479 2.02294.60158-.32362-.70203-.6807-1.35071-1.06631-2.05017-.28463-.51695-1.09793-1.42871-1.28445-1.83123z" fill="#bb9858" fill-rule="evenodd"/><path d="m432.01598 234.42583c-.72814-.2064-1.46438-.88526-2.41111-.58686-1.16527.36682-3.24266 2.97516-4.11614 4.21365-.19463.27634-1.81838 1.96885-1.58288 1.96885 1.0527 0 1.80731.16962 2.77646-.44888.93274-.59497 1.51482-1.31245 2.5815-1.31245.39405 0 2.80077.42719 2.80077-.13834 0-1.25984.12637-2.4549-.0488-3.69598z" fill="#1f1a17" fill-rule="evenodd"/><path d="m431.30572 234.6791c-.64683-.0442-1.35-.40805-2.13221-.081-.96289.40253-2.47586 2.44645-3.09694 3.402-.13875.21303-1.35697 1.57589-1.155 1.54497.90439-.13871 1.57002-.12326 2.3379-.67038.73954-.52689 1.1649-1.09058 2.08107-1.23113.33862-.0519 2.10682-.0371 2.04799-.42092-.13126-.85509-.0604-1.68848-.0829-2.54358z" fill="#bb9858" fill-rule="evenodd"/></svg>