<svg height="300" viewBox="0 0 450 300" width="450" xmlns="http://www.w3.org/2000/svg"><path d="m0 0h450v240h-450z" fill="#395c98"/><path d="m0 240h450v60h-450z" fill="#d5312b"/><path d="m108 180c12-20 32-18 50-18 22-32 48-35 67-35s45 3 67 35c18 0 38-2 50 18l33-52-35 41 23-52-35 46 24-52-33 47 19-53-30 51 14-52-26 50 15-55-20 46 11-54-19 48 9-56-16 51 5-59-15 52 2-58-12 54-3-58-8 57-4-60-8 58-8-60-8 60-8-58-4 60-8-57-3 58-12-54 2 58-15-52 5 59-16-51 9 56-19-48 11 54-20-46 15 55-26-50 14 52-30-51 19 53-33-47 24 52-35-46 23 52-35-41z" fill="#edbb32" stroke="#000" stroke-width=".5"/></svg>