<svg height="800" viewBox="0 0 450 300" width="1200" xmlns="http://www.w3.org/2000/svg" xmlns:xlink="http://www.w3.org/1999/xlink"><path d="m0 0h450v300h-450z" fill="#008000"/><path d="m0 0h450v264h-450z" fill="#0038a8"/><path d="m0 0h450v204h-450z" fill="#fff"/><g transform="matrix(5.62503444 -5.62503444 5.62503444 5.62503444 -61.875 192.75)"><path id="a" d="m0 3v-1h1v1h1v-3h1v1h1v1h-1v1h1v-1h1v1h1v1h-3v1h1v1h1v-1h1v1h-1v2z" fill="#0038a8"/><use x="5" xlink:href="#a" y="5"/><use x="10" xlink:href="#a" y="10"/><use x="15" xlink:href="#a" y="15"/><use x="20" xlink:href="#a" y="20"/><use x="25" xlink:href="#a" y="25"/><use x="30" xlink:href="#a" y="30"/><use x="35" xlink:href="#a" y="35"/><use x="40" xlink:href="#a" y="40"/></g></svg>