<svg clip-rule="evenodd" fill-rule="evenodd" height="800" image-rendering="optimizeQuality" shape-rendering="geometricPrecision" text-rendering="geometricPrecision" viewBox="0 0 1800 1200" width="1200" xmlns="http://www.w3.org/2000/svg"><path d="m0 0h1800v1200h-1800z" fill="#fff"/><path d="m0 0h750v450h-750z" fill="#da251d"/><path d="m1050 750h750v450h-750z" fill="#da251d"/><path d="m1050 0h750v450h-750z" fill="#0071b4"/><path d="m0 750h750v450h-750z" fill="#0071b4"/><path d="m857.203 748.72c-6.34724.145276-12.6874.745276-18.9945 1.4374-10.748 1.17992-21.6555 2.73425-32.478 2.77087h-.0354331l-.0366142-.0011811c-5.71772-.282283-11.4189-1.50236-16.6429-3.86811-16.0772-7.28031-22.4079-22.6476-22.6583-39.4972v-256.232h264.872l.11811 255.523c.0212598 9.03071-1.79055 18.2055-6.33071 26.0988-3.82677 6.65433-9.42165 12.0331-16.5094 15.1169-4.99724 2.17441-10.4717 3.05433-15.9177 2.7-17.3906-1.47638-34.7598-4.11024-52.2449-4.11142h-.0354331l-.0354331-.0023622c-6.53386-.344882-13.5661 1.67362-19.4197 4.45748-7.45276 3.54449-16.8909 10.4102-19.4776 18.6248l-1.28622 4.08543-1.27677-4.08898c-1.72205-5.51339-6.51378-10.1445-11.152-13.3547-5.93268-4.10551-13.0795-6.99921-20.1307-8.48858-3.39094-.715748-6.86102-1.13031-10.3276-1.17047z" fill="#684833"/><path d="m767.7 454.668h262.186l.11811 254.187c.0625984 27.4134-16.9476 43.9051-37.3075 42.5787-17.478-1.48346-34.8756-4.11378-52.3524-4.11496-15.6354-.826772-36.2563 11.3386-40.2496 24.0165-3.97795-12.7417-24.1181-23.7484-42.9-23.9539-17.1567.389764-35.1366 4.15157-51.4689 4.20827-19.2177-.950787-37.5886-12.7181-38.0256-42.0331v-254.889z" fill="#da251d"/><path d="m932.498 603.804c.753543-.334252 1.6252-.303543 2.17323.505512.535039.787795.250394 1.63937-.34252 2.21339-.133465.129921-.271654.255118-.40748.381496-.15.141732-.3.284646-.445276.432283 1.13386-.398031 2.42717-1.0252 2.85118-1.22362 1.69016-.791339 3.99331-1.93346 5.88307-1.86378l1.11614.0413386.35315 1.05591c.243307.727559-.069685 1.31457-.464173 1.8685 3.25157-.611811 7.43976-1.10197 9.74173.0448819l.890551.444094v.993307c0 .311811-.0531496.612992-.158268.896457l6.39213-.162992-.174803.522047h1.87913c-.320079 1.09843-.422835 2.41535-1.34882 3.17244.0401575.0011811.0791339.0023622.116929.00354331 2.37638.057874 4.7622.20315 6.17953 2.41535l.0850394.132283.057874.147638c1.8874 4.81654 6.10984 8.58071 9.90236 11.9339l.146457.129921.111024.16063c2.72953 3.94961 3.71457 11.7177 4.8437 16.4776l.438189 1.84961-1.90157.124016c-.949606.0614173-1.86024-.121654-2.69882-.572835-.314173-.168898-.604724-.367323-.874016-.588189 1.67362 2.26299 2.88189 4.59567 1.20472 7.46929-.765354 1.31102-1.20709 2.60433-1.11378 4.13031.0791339 1.28504.485433 2.52756.583465 3.8185.0897638 1.19409-.080315 2.29252-.577559 3.3874-.229134.50315-.633071.891732-1.16457 1.06181-.758268.244488-1.39252-.00826772-1.95827-.411024.336614 1.32874.810236 2.60551 1.27323 3.92717 1.09843 3.13701 1.70787 5.75787 1.26969 9.11929l-.270472 2.0752-1.94055-.796063c-.108661-.0448819-.179528-.0732283-.230315-.0933071.520866 1.63228 1.34646 3.25748 1.98898 4.55669 1.60866 3.25394 4.58622 7.68425 3.64961 11.4142l-.119291.477165-.364961.328346c-4.49409 4.0311-10.0335 7.40669-14.5677 11.3929-3.20315 1.90866-15.6744 3.16299-18.1311-.885827-.861024-1.4185.155906-3.69331 2.20866-5.69528.895276-.871654 1.94646-1.60039 2.99528-2.25709 1.19291-.746457 4.5189-2.47677 5.07402-3.73228.162992-.368504.461811-1.33465.47126-1.74449-.271654-1.59803-1.69961-4.88031-3.3189-6.71811l-.955512 6.31299-2.16969-1.66772c-2.59016-1.99252-4.82244-9.32717-5.60787-12.8705-1.22362 4.27087-2.88898.727559-3.71457-1.06535-.424016-.92126-.83622-1.84724-1.26969-2.76378-.131102-.276378-.390945-.820866-.690945-1.40197v.235039c0 1.31929.141732 3.71457-1.65591 3.96732.441732.933071.23622 2.16732.0295276 3.13465-.114567.535039-.325984 1.18583-.424016 1.7315l.935433 3.74764c1.39488 5.58661 1.69843 11.876-3.72874 15.4559-2.39291 1.57913-6.49252 2.94567-9.24449 3.78661-2.33031.712205-4.82953 1.37835-7.24488 1.71969-2.35276.132283-11.6433.0354331-12.2327-4.51417l-.0106299-.0814961-.0023622-.0826772c-.109843-4.21535 6.34252-6.18071 9.46181-7.72441 1.49173-.738189 5.17795-2.47677 5.68701-4.20827.0779528-.265748.0862205-.531496.0448819-.80315-.0153543-.101575-.0448819-.197244-.0791339-.292913-.15-.406299-.381496-.81378-.553937-1.21654-.32126-.75-.517323-1.49882-.611811-2.30906-.0448819-.374409-.0956693-1.22953-.17126-2.02087-.146457.109843-.327165.20315-.559843.265748-.930709.251575-1.67362-.318898-2.10118-1.06535-.193701-.338976-.360236-.708661-.514961-1.06654-.457087-1.05472-.862205-2.14843-1.25669-3.22795-.539764-1.47638-1.02283-2.98583-1.5685-4.45276-.261024-.692126-.383858-1.51417-.330709-2.31496-.0507874-.0129921-.100394-.0283465-.151181-.046063-1.30748-.444094-1.74213-1.84606-2.12126-3.04252-.255118 1.04291-.706299 2.15197-1.95945 2.19449-.422835.0153543-.672047-.0755906-.964961-.255118-.946063-.582283-1.4752-1.18465-2.20394-1.81299-.416929 1.08543-.964961 2.18976-2.4 2.04331-.920079-.0944882-1.7374-.0330709-2.64921.0779528-.92126.112205-2.13425.542126-3.00354.109843-.753543-.375591-1.4374-2.50748-1.97362-1.82126l-1.09724 1.40551h-.33189c.0165354.349606.0448819.719291.0177165.990945l-.214961 2.14724-1.25906-.516142c.11811.659055.190157 1.34882.201969 2.09173l.0555118 3.56339-1.48346-1.26732-.249213 7.77165-2.21929 2.21575c-.285827.720472-.3 1.74921-.301181 2.47677-.0023622 2.15197.285827 4.98189-1.85551 6.29291-.406299.248031-.774803.361417-1.12559.377953v.881102h-.457087c-.0141732.161811-.0259843.314173-.0366142.427559-.0708661.772441-.131102 1.54252-.227953 2.3126-.277559 2.19685-1.01457 5.4685-3.87047 5.35748-7.12795-.277559-13.8402.864567-20.5276 3.28583-.755906.274016-1.64055.0129921-2.03622-.794882-.0543307-.109843-.0944882-.223228-.121654-.336614-.96378.292913-1.88976.26811-2.50866-.470079-.650787-.778346-.464173-1.69134-.0188976-2.47087-.023622-.00826772-.0484252-.0177165-.0720472-.0271654l-1.52362-.583465.605906-1.51181c.162992-.406299.379134-.785433.64252-1.13386 1.57559-2.07992 4.65591-2.72126 7.04055-3.40866 2.5937-.748819 5.21693-1.53425 5.21693-4.69016v-1.6063h.623622c.0838583-.816142.0023622-2.09055-.297638-2.54055l-.616535-.0377953-.445276-.638976c-1.29331-1.85197-.392126-4.71142-.794882-5.49803-.0555118-.0188976-.13937-.0295276-.18189-.034252l-1.08661-.113386-.295276-1.04882c-.175984-.623622-.220866-1.46929-.271654-2.12008-.0744094-.94252-.13937-1.88622-.233858-2.82756-.0271654-.277559-.0862205-.824409-.17126-1.41496-.0685039.0472441-.142913.092126-.223228.133465-1.05709.551575-2.03976-.0354331-2.78386-.770079l-.330709-.324803-.105118-.451181c-.327165-1.3937-.946063-3.39567-1.54134-4.69134-.13937-.304724-.276378-.605906-.406299-.903543l-.477165-.744094c-.0779528 1.28858-.883465 3.27638-1.62874 4.24488-.540945.702756-1.16339 1.38543-1.81654 1.98661-.820866.755906-2.0185 1.68898-3.12992.635433-.138189-.131102-.240945-.266929-.315354-.400394-1.88504 1.24961-8.70591 3.26102-6.10157-.740551l-3.95079 3.46417c-.519685.395669-1.20709.501969-1.80827.212598-.348425-.167717-.576378-.387402-.722835-.638976-.092126.112205-.179528.218504-.258661.315354-.801969 4.57795-5.19213 5.62205-5.58661 9.10157l-.0377953.329528-.165354.287008c-.466535.814961-.548031 1.55197-1.24843 2.31969-.636614.699213-1.74449 1.36063-2.67992 1.40669-5.31024.923622-6.07087.616535-8.47795-4.1374-.625984-1.33465-.657874-2.94567-.372047-4.42205l.115748-.592913.431102-.335433c.144094-.27874.328346-1.47283.48189-2.01378.252756-.999213.648425-1.93937 1.11969-2.85354.911811-1.76811 2.17205-3.48661 2.75669-5.39291l.0271654-.0897638.0377953-.0850394c.39685-.904724.948425-1.37126 1.43858-2.14134.180709-.283465.242126-.491339.196063-.829134l-.0909449-.664961.409843-.531496c.713386-.924803 1.2626-1.99843 1.7811-3.04016 1.44921-2.90906 2.75551-5.63504 5.8311-7.07244 1.23071-1.1374 2.80394-1.90866 4.31339-2.59961 1.28386-.58937 2.94921-1.25551 4.04173-2.1437l.0649606-.0519685.069685-.046063c1.45157-.947244 3.2126-1.44803 4.46457-2.63386l1.02165-.967323-.692126-2.20748c-.343701-1.09606-.250394-2.25354-.0980315-3.37323.0496063-.368504.276378-1.68071.21378-2.29606-1.07598.762992-2.38346 1.41378-3.58228.744094-1.06299-.594094-1.26614-1.88386-1.70315-3.08504-.219685.185433-.440551.362598-.662598.526772-.774803.575197-1.72913.970866-2.63504.357874-.349606-.237402-.552756-.522047-.670866-.839764-.355512.726378-.892913 1.29213-1.80709 1.61102l-1.06417.372047-.715748-.870472c-.509055-.62126-.714567-1.35591-.891732-2.11063-.531496.647244-1.20472 1.04764-2.19921 1.04764h-1.18465l-.35315-1.12677c-.057874-.18189-.13937-.351969-.245669-.510236-1.01102-1.50354-4.3311-2.07756-5.98937-2.34213-1.74449-.27874-3.5315-.45-5.25827-.805512-3.70394-.761811-5.06575-2.24291-6.64843-4.43504l-1.10315-1.38661c-.973228-2.52992-.656693-5.50039-1.11496-6.06024-.0153543-.0141732-.0590551-.0330709-.0779528-.0401575l-1.0122-.403937v-1.0878c0-.308268-.112205-.685039-.172441-.989764-.109843-.561024-.141732-1.08898-.0389764-1.65591l.15-.823228.761811-.349606c3.55512-1.62992 8.34685-2.83465 10.9819-5.81457l.682677-.772441.272835.0814961c.544488-.706299 1.32402-2.11299 1.60984-2.61614.590551-1.04173 1.79646-3.41102 2.68583-4.11969l.046063-.0377953.0496063-.0330709c1.83661-1.25197 3.99213-2.87835 6.2752-3.90827-.131102-.10748-.258661-.227953-.379134-.36378-1.47992-1.65-.954331-4.30866.0685039-6.04843.954331-1.62165 2.80984-3.75591 4.76339-3.75591h.17126l.166535.0354331c.497244.106299 1.85197 1.27677 3.05669 1.59449.985039.258661 2.14843.693307 2.12835 1.9311 2.31378-1.39488 4.94764-1.69488 7.55551.253937l.0295276.0224409.0283465.0224409c2.11299 1.73504 2.02795 5.73189.955512 8.37165.325984-.457087.724016-.852756 1.19055-1.18228 1.85787-1.31693 3.67205-1.13268 5.66339-1.74331l2.08583-.640157v2.17559c0 .252756-.00354331.26811-.0625984.504331-.0248031.0992126-.0531496.191339-.0862205.276378.618898-.0129921 1.24016-.0531496 1.87323-.108661 1.27913-.111024 3.05197-.446457 3.89409.806693.483071.720472.373228 1.49291.0531496 2.20276.738189-.238583 1.40551-.490157 1.72677-.616535 1.55787-.618898 3.37323-1.42205 4.84016-2.27835 3.24449-2.98819 6.97323-3.50669 11.3031-3.16181 2.67992.21378 5.77795.988583 8.39882 1.61339 3.92598.936614 7.83425 1.9689 11.7366 3 4.44213 1.17402 8.88543 2.37756 13.3488 3.46417 1.22008.297638 5.77559 1.45512 7.04882 1.37244 1.23543-.520866 2.31732-.838583 3.66732-.967323 1.88031-.179528 3.00354-.413386 4.81181-1.06772zm-82.3417-2.15079-.15.114567c-.218504.167717-.65315.523228-1.05236.904724.291732-.057874.562205-.121654.744094-.167717l.458268-.851575zm1.32638 1.39016.0661417.0980315c.0968504.145276.174803.292913.23622.441732l.209055-.27874c.0472441-.0614173.114567-.154724.190157-.259843-.0318898-.0011811-.0590551-.0011811-.0838583-.0011811h-.617717zm3.00118 3.26457-.0141732.0437008c.00944882-.0129921.0200787-.0259843.0307087-.0389764l-.0165354-.00472441z" fill="#1f1a17"/><path d="m843.615 598.368c.212598 1.47756.772441 2.7685 2.19803 2.7685.805512 0 2.02087-1.66417 2.29016-2.68701.262205-1.00039.383858-2.36811-.172441-2.81811-.426378-.346063-1.78583.708661-1.95709-.101575-.390945-1.85197-1.09843-1.32283-1.74567-.56811-1.17992 1.37717-.727559 2.61024-.612992 3.4063z" fill="#1f1a17"/><path d="m921.728 675.18c.317717-1.86732-.336614-4.34173 1.24724-4.56142 2.43425-.336614 1.55079 4.86496 4.07717 4.81063 1.63937-.0354331 1.06654-4.17638 2.49449-3.81496 5.9811 1.51535 1.73386 4.76457 6.41929 5.72598 1.12795.230315-.350787 4.15394-.249213 4.56024l1.00157 4.01102c1.23898 4.96181 1.67835 10.6063-3.05551 13.7291-4.17874 2.75787-21.8008 7.97598-19.3677 3.93307 2.43189-4.04291-3.11811-.473622-4.07717-.746457 2.38937-4.67244-2.51457 1.05354-2.78858-1.06063-.0767717-2.94567 5.45906-4.70551 8.56654-6.24449 3.9626-1.96063 7.05945-3.76181 6.60945-6.69331-.175984-1.14449-1.00748-1.79409-1.2378-3.76181-.327165-2.78504-.114567-6.55748-2.72598-3.13937-.398031.520866-3.36496-8.34921-3.53858-8.80866-1.02874-2.7189 1.18937-5.12717 2.81339-2.12835 1.92992 3.56102 3.80079 4.24961 3.81142 4.18937zm-81.9024-83.5063c-.68622 1.45276-2.05866 2.39409-1.8874 4.44449-7.69843 4.38543-5.62559-5.72835-1.28622-5.72835 2.38228.509055 5.91614 1.16811 3.17362 1.28386zm84.698 15.6992c3.68622-1.58504 3.50551-.231496 8.58898-2.08228 1.20591-.590551-2.83937 2.04449-2.12953 3.7748 2.47795 1.23543 8.09055-3.32362 11.1685-3.21024.0791339.23622-2.33386 2.58189-1.07126 3.44646 3.15591-.70748 8.78976-1.78346 11.1567-.603543 0 1.26378-2.08701 1.07126-1.53307 2.5689l8.06575-.178346c-.194882.582283.689764.472441.946063.472441-.644882.964961-2.84646 1.16575-3.25394 2.30079 2.44606 1.80945 7.09961-.283465 8.91378 2.54764 1.97244 5.03268 6.15354 8.85472 10.3335 12.5504 2.44606 3.53858 3.57638 11.6126 4.60276 15.9378-3.62953.235039-4.49646-4.64055-6.70512-6.99921-4.19173 5.85 6.09331 8.88543 3.04843 14.1024-3.16654 5.42717.479528 7.82835-1.18228 11.4803-.562205 1.23661-2.99764-3.53858-3.62835-.47126.630709 5.2689 3.70748 8.57126 2.9185 14.6256-1.34055-.550394-1.2626-3.14528-2.9185-2.12244-.628346 6.00945 7.40551 12.9992 5.97756 18.6933-3.9437 3.53858-10.3583 8.24882-14.3811 11.7862-3.55984.330709-7.40433-.0519685-10.5177 1.35591 0-3.99094-.486614-1.25787-2.84055-1.25787.818504-.40748 1.03937-1.56969 1.18346-2.35866-.680315-.271654-2.69646.485433-3.39213 1.17874.989764-4.93583 8.79449-6.33661 10.2543-9.63661.271654-.614173.683858-2.03858.595276-2.59488-.381496-2.39882-3.03189-8.3622-6.12638-9.30236l-.93189 6.16063c-2.60433-2.00197-4.69961-7.06417-5.06339-10.4858.595276-2.96929-2.9185-5.30315-2.9185-1.17992-1.06654-1.3748-5.89843-15.1476-5.89843-4.92874 0 9.80079-3.53031-13.8803-5.99528-13.3677-2.20866 2.67283.956693 7.64055-.23622 10.5366-.752362 1.82362-1.62874-1.8815-3.4252-2.69528-1.02165 8.32087-.992126.779528-4.34409 1.64055-.890551.229134-1.96417.729921-2.80157.583465-2.0185-.355512-3.21732-4.57087-4.3937-2.70118-5.05276 8.03268-2.94213-3.40866-6.62717-1.31102-.210236.119291-.570472 3.51969-1.04764 3.22559-1.28976-.793701-1.1811-1.05591-2.51575-2.08465-2.07992-1.60276-1.83071 2.18031-2.76969 2.08465-4.49409-.461811-5.5311 2.23228-5.99528-4.24606 1.13504.376772-.224409-10.7185-3.86457-9.35787-.285827 1.30276 1.54134 6.92008.23622 6.92008l-.709843 6.44764c-.737008 0-.415748 1.86378-.472441 2.4378-.673228-.276378-1.70197-5.66693-1.89331-6.68386-1.18346-1.02283-1.12323-3.48543-1.75394-3.24921-1.34764 5.59961 2.28661 8.64213 2.36693 13.8402-3.8315-3.27402-1.09016.402756-1.41969 1.96535l-.237402 7.39134-1.97126 1.9689c-1.33228 2.57835.392126 7.07953-1.65709 8.33268-1.13504.694488-1.89331-1.82953-1.89331 1.02283-.901181 0-.0011811 8.2122-2.9185 8.09882-7.73031-.3-14.5925 1.01102-21.1406 3.3815-.451181.162992 3.31299-1.57205.947244-2.90906-2.8878 2.15906-6 3.14882-1.89331-.943701-.709843-1.02283-1.65709.157087-2.68228-.23622 1.85669-4.62638 13.0157-2.13543 13.0157-9.82913.879921 0 1.17756-5.60787-1.0252-5.74134-1.2626-1.80827.866929-5.89724-2.13071-6.21142-.401575-1.42205-.281102-10.3028-2.36575-9.35787-.947244.393307-.0295276 3.33425-1.73622 1.65118-.866929-3.69567-3.39213-6.44646-3.39213-10.6146-.555118-.552756-1.73622-.220866-1.73622.70748-.398031-1.38661.0814961-9.25748-1.62874-9.47126-2.08346 3.63543-1.11969-.458268-2.83937-1.8874.23622-1.65-.263386-3.19016-.0271654-4.84134-2.28661.0791339-.157087-5.11063-3.31299-2.67402-.788976-2.51575 1.73622-6.44764-1.49882-7.15512-4.24606 3.38504-2.38937-.173622-4.81181-2.91024-5.25 4.91811-.999213-.197244-4.57441-.70748-1.2626.70748-.552756 2.8311-2.13071 3.3815-.709843-.864567-.551575-2.75197-1.41969-3.61654-1.81417-.314173-1.34055 1.96535-2.9185 1.96535-1.79528-5.72835-16.5685-3.02126-15.6189-6.99803 3.31299.157087 5.91614-.786614 7.73031-3.30236-1.0252-1.57323-2.62913.00590551-4.12795.00590551-2.05157 1.80827-5.0811-.596457-7.52598.26811-1.60157-1.92165.532677-5.62205-1.83425-6.56575 0-.864567-.394488-1.49409-.237402-2.35866 3.94488-1.80827 8.59843-2.91024 11.5169-6.2126 1.06063.317717 4.02756-6.41929 5.04921-7.23425 2.72244-1.85669 6.83858-5.14134 10.3335-4.56024.262205 3.91299 2.67874 1.93819 4.57559 1.49291-.158268-1.88622-2.84055-3.06614-1.18346-5.34685 2.44252-2.63858 5.32205-4.04055 8.20394-1.8874 1.76929 1.45394 1.15394 5.7437 0 7.47165-3.40748 2.61142-3.64488 4.82126 1.18228 3.5374.714567 1.0689-1.17402 3.49724 2.36693 2.91024-.116929.348425-1.32402 1.78346-.473622 2.12244 2.09528.835039.672047.0425197.947244 1.96535 1.65591 1.65236 2.2878-.94252 3.39094-1.49291-3.54449-1.30157 2.06339-3.69685.237402-4.24724l-3.39213-1.02165c1.73268-2.30433.915354-2.8311-1.18346-2.8311 1.19173-2.21457 4.19409-2.04803 6.2315-2.67283 0 .725197-1.65591 1.01102-1.65591 2.20039 6.34488.959055 10.2201-2.24646 5.52165 3.53976 2.26299.788976 9.37205-2.71535 10.9583-3.66024 1.0122-.959055 2.25945-1.89567 4.2189-2.44488v4.40197c-.00944882.343701.0484252.683858.0862205 1.02402.441732 2.19921 2.52756 4.17283 6.23031 4.16693l3.15354-.00590551v.00590551h35.8311v-.672047c.938976.137008 1.58268.165354 1.84724.0519685zm-95.6457 6.08386c.548031 2.73071 1.16693 2.07165-3.94134.872835-.982677-.230315 1.95827-6.80315 3.94134-.872835zm9.01417 18.4996c1.30394.227953 2.80866.219685 3.54331 1.51654.194882.343701.662598.27874.660236-.24685-.0141732-2.68465 4.08543.973228 4.12205-2.79449.0165354-1.69724 1.21772-1.32874 2.59134-1.32874 1.35827 0 2.1189-.511417 2.56535-1.94764-1.62638.545669-2.17441.636614-4.27441.3-.948425-.152362-2.28425-.688583-2.28425.92126 0 .862205.426378 2.23701-.0271654 2.50276-.271654.159449-1.29213-.0377953-1.70433-1.10551-.264567-.687402-1.31102-1.64764-1.56614-.657874-.316535 1.22953-.343701 2.19094-2.47323 1.64409-.204331-.0519685-1.24606-.719291-1.57323-.903543-1.52717-.861024-2.21929 1.63819.420472 2.1zm15.5126 24.7594c-.41811 1.74921-2.40827 2.99764-1.15512 4.99606 3.62717-.833858 3.04606-1.7563 2.65984 1.33346-.0177165.137008-1.52717 3.5811-.501969 3.5811 6.23386 0-1.51654 7.30866-1.43976 6.61299.0838583-.75-.0826772-1.49882-.500787-2.08228-1.5874 1.91575-4.0937 2.66575-6.34961 3.33189.146457-.170079 1.42913-2.90315.500787-2.74843l-1.50354.249213-4.59449 3.49843c-.884646.672047 1.96181-6.10866-3.34252.499606-.500787 4.41378-5.15669 5.17205-5.65748 9.58583-.669685 1.16693-.669685 2.49921-2.33976 2.58189.500787-1.08307-.904724-2.52874-1.23898-3.27874-1.17047.249213-.883465 2.31732-1.30039 3.31654-1.00276-.499606-.0248031-3.72756-2.28071-2.81102-1.08543.666142.023622 1.81181-1.06181 2.31142.167717-1.33228-2.07638-3.26929-1.57559-5.85118.752362-.583465.668504-1.91575 1.00276-2.83228.751181-2.99764 2.94213-5.19331 3.86102-8.19213.584646-1.33228 2.00551-1.99843 1.75394-3.8315 2.5063-3.24803 3.15709-7.99134 7.25079-9.74055 2.17205-2.16614 6.20197-3.01654 8.45787-4.84843 2.42244-1.58268 4.09252-2.26181 6.34843-3.84449 2.39055.98622.767717 3.92953.975591 5.67165.114567.947244-1.11969 2.93858 2.0315 2.49094z" fill="#e1dfe2"/><path d="m918.97 556.355h3.7063v51.6378h-35.8311v-.00590551l-3.15354.00590551c-3.70276.00590551-5.78858-1.96772-6.23031-4.16693-.0377953-.340157-.0956693-.680315-.0862205-1.02402v-50.4898-.0814961-.302362h.0129921c.185433-2.34803 2.40354-4.63701 6.70866-4.81772l35.374.0649606-.807874 1.19173c-1.38071 2.03858-1.38189 5.49567 0 7.53425l.307087.453543z" fill="#1f1a17"/><path d="m887.65 557.158h34.2201v50.0315h-34.2201zm19.5024 14.8441h3.13228v3.04252h-3.13228v2.6563h6.07559v3.04252h-6.07559v6.22087l3.45945 1.99134v3.29173l-3.45945-1.99134v5.30551h-3.05197v-7.06181l-3.46063-1.99134v-3.29173l3.46063 1.99134v-4.46457h-6.07677v-3.04252h6.07677v-2.6563h-3.13346v-3.04252h3.13346v-2.85591h3.05197zm-2.24646-2.05276h1.44094v2.85591h3.13228v1.43622h-3.13228v4.2626h6.07559v1.43622h-6.07559v7.48819l3.45945 1.99134v1.43622l-3.45945-1.99134v5.8937h-1.44094v-6.72283l-3.46063-1.99134v-1.43622l3.46063 1.99134v-6.65906h-6.07677v-1.43622h6.07677v-4.2626h-3.13228v-1.43622h3.13228zm-12.9591-8.50748h25.6264v41.4626h-25.6264zm.805512.80315h3.75118l-3.75118 3.73937zm4.89094 0h14.2335l4.89094 4.87559v30.1063l-4.89094 4.87441h-14.2346l-4.88976-4.87441v-30.1075l4.89094-4.87441zm15.3732 0h3.75118v3.73937zm3.75118 36.1169v3.73937h-3.75118zm-20.2642 3.73937h-3.75118v-3.73819z" fill="#c0a062"/><path d="m884.235 547.913h33.5846c.057874 0 .116929.0023622.175984.00472441-.479528.706299-.811417 1.55315-.998031 2.45433h-27.6874v.70748h27.5728c-.102756.858661-.0791339 1.74567.0720472 2.59134h-25.5768v.706299h25.735c.194882.720472.488976 1.3937.882283 1.97244-.0590551.00354331-.11811.00472441-.175984.00472441h-33.5846c-7.65709 0-7.6878-8.49449 0-8.44134z" fill="#fff"/><path d="m895.754 529.144-5.37165-14.0445 1.73976.424016c5.09528 1.24252 10.1846 1.24252 15.2787 0l1.74094-.424016-5.37165 14.0445 13.2154-5.20512-.432283 1.76102c-1.24724 5.07874-1.24724 10.1516 0 15.2303l.432283 1.75984-12.4299-4.89449 4.61102 11.6362-1.76575-.431102c-5.09409-1.2437-10.1835-1.2437-15.2787 0l-1.76457.431102 4.61102-11.6362-12.4299 4.89449.432283-1.75984c1.24724-5.07874 1.24724-10.1516 0-15.2303l-.432283-1.76102 13.2154 5.20512z" fill="#1f1a17"/><path d="m883.884 525.477 13.5083 5.31969-5.49331-14.3622c5.25 1.28031 10.4764 1.28031 15.7264 0l-5.49331 14.3622 13.5083-5.31969c-1.28504 5.23346-1.28504 10.4433 0 15.6768l-12.7559-5.02441 4.74094 11.961c-5.25-1.28031-10.4764-1.28031-15.7264 0l4.73976-11.961-12.7547 5.02441c1.28504-5.23346 1.28504-10.4433 0-15.6768z" fill="#e1dfe2"/><path d="m878.18 554.704c0 .635433.0295276 1.08189.10748 1.68543l.0011811.0011811.023622.185433c.231496 1.0748.862205 1.85551 1.69016 2.38701 1.02874.661417 2.36102.947244 3.62244.946063l3.21969-.00708661v-2.74843l-2.74843.00472441c-2.92087.00472441-4.89803-1.03819-5.91614-2.45433zm6.22559 32.987h.683858v10.6713h-.683858zm-2.47087-.680315h.683858v10.6713h-.683858zm-2.47205-.740551h.685039v10.6713h-.685039zm4.94291-19.226h.683858v10.6724h-.683858zm-2.47087-.680315h.683858v10.6724h-.683858zm-2.47205-.740551h.685039v10.6724h-.685039zm-1.28268-7.4374c0 .629528.0295276 1.0689.10748 1.66772l.0011811.0011811.023622.185433c.231496 1.0748.862205 1.85551 1.69016 2.38701 1.02874.660236 2.36102.947244 3.62244.944882l3.21969-.00590551v-2.72598l-3.21969.00590551c-1.39016.0023622-2.86772-.318898-4.02283-1.06181-.566929-.36378-1.05591-.825591-1.42205-1.39843zm0 3.46417v14.6232c.0023622.31063.0956693.565748.132283.861024.231496 1.0748.862205 1.85551 1.69016 2.38701 1.02874.661417 2.36102.947244 3.62244.946063l3.21969-.00708661v-16.3559l-3.21969.00590551c-1.39016.0023622-2.86772-.318898-4.02283-1.06181-.566929-.36378-1.05591-.825591-1.42205-1.39843zm0 17.0941c0 .629528.0295276 1.0689.10748 1.66772l.0011811.0011811.023622.185433c.231496 1.0748.862205 1.85551 1.69016 2.38701 1.02874.661417 2.36102.947244 3.62244.946063l3.21969-.00708661v-2.72598l-3.21969.00590551c-1.39016.0023622-2.86772-.318898-4.02283-1.06063-.566929-.36378-1.05591-.826772-1.42205-1.39961zm0 3.46417v13.0594c0 .55748.0614173 1.00039.132283 1.56378.231496 1.0748.862205 1.85433 1.69016 2.38701 1.02874.660236 2.36102.947244 3.62244.944882l3.21969-.00590551v-15.4949l-3.21969.00590551c-1.39016.0023622-2.86772-.318898-4.02283-1.06063-.566929-.364961-1.05591-.827953-1.42205-1.39961zm0 16.2331c0 .629528.0295276 1.0689.10748 1.66772l.0011811.0011811.023622.185433c.231496 1.0748.862205 1.85433 1.69016 2.38701 1.02874.660236 2.36102.947244 3.62244.944882l3.21969-.00590551v-2.72598l-3.21969.00590551c-1.39016.0023622-2.86772-.318898-4.02283-1.06181-.566929-.36378-1.05591-.826772-1.42205-1.39843zm0 3.46299v.914173c-.00826772.287008.0437008.594094.0779528.881102.523228 2.50984 3.10512 3.4937 5.43189 3.48898l3.15472-.00472441v-2.82402l-3.21969.00590551c-1.39016.0023622-2.86772-.318898-4.02283-1.06181-.566929-.36378-1.05591-.826772-1.42205-1.39961z" fill="#c0a062"/><path d="m972.548 389.583c.981496.178346 1.96417.415748 2.94449.703937.636614.186614 1.25906.448819 1.84488.758268 3.59646 1.89685 5.18386 5.42362.0366142 6.64724-2.45079.582283-4.47638 1.49055-6.49488 3.02008-3.52913 2.6752-6.20787 6.67087-8.2311 10.5449-2.21102 4.23307-3.92953 8.8311-5.52047 13.3276-2.03504 5.75315-3.86929 11.7543-6.30709 17.3409-1.31102 3.00354-3.18661 5.10118-6.09803 6.6626-4.49882 2.41299-10.6913 3.05079-15.7087 3.24331-20.0941.770079-40.2295.770079-60.3236 0-5.01732-.19252-11.2098-.830315-15.7087-3.24331-2.91142-1.56142-4.78701-3.65906-6.09803-6.6626-2.4378-5.58661-4.27205-11.5878-6.30709-17.3409-1.59094-4.49646-3.30945-9.09449-5.52047-13.3276-2.02323-3.87402-4.70197-7.86969-8.2311-10.5449-2.0185-1.52953-4.04291-2.4378-6.49488-3.02008-1.32874-.316535-3.09449-.994488-3.26575-2.5689-.252756-2.32559 3.2315-4.27323 5.14724-4.83661.980315-.288189 1.96299-.525591 2.94449-.703937-4.73031-9.19134-7.51181-19.5283-6.71693-29.9043.70748-9.23504 4.25079-17.9894 10.7858-24.6555 6.8811-7.01693 16.0406-10.6713 25.8024-11.1661 9.55866-.483071 19.0051 2.02677 27.6343 6.07677-.0129921-.258661-.0200787-.519685-.0200787-.78189 0-7.47874 5.1-13.7728 12.0224-15.613v-7.45394h-6.08031l-5.19567 8.02323h-4.31929v-24.3969h4.31929l5.19567 8.02323h6.08031v-8.92205l-10.0382-6.46063v-5.00551h28.4528v5.00551l-10.0382 6.46063v8.92205h6.07913l5.19685-8.02323h4.31929v24.3969h-4.31929l-5.19685-8.02323h-6.07913v7.45394c6.92126 1.84016 12.0213 8.13425 12.0213 15.613 0 .262205-.00590551.523228-.0188976.78189 8.62913-4.05 18.0756-6.55984 27.6331-6.07677 9.76181.494882 18.9224 4.14921 25.8035 11.1661 6.53504 6.66614 10.0783 15.4205 10.7858 24.6555.794882 10.376-1.98661 20.713-6.71693 29.9043z" fill="#1f1a17"/><path d="m971.713 389.444c4.73504-9.11693 7.53898-19.389 6.74882-29.7035-.692126-9.04606-4.15512-17.6244-10.5591-24.1547-6.73937-6.87283-15.7075-10.4409-25.2673-10.9252-9.3189-.472441-18.5398 1.95354-26.9787 5.87362l-10.2909 39.2445c1.00157.516142 1.98071 1.15394 2.92795 1.91575l10.1457-39.4748c42.2209-18.3626 71.6539 17.576 50.3657 56.9764.96378.0188976 1.93465.103937 2.90787.248031zm-79.3748-19.6654-10.2921-39.2445c-8.4378-3.92008-17.6587-6.34606-26.9776-5.87362-9.55984.484252-18.528 4.05236-25.2673 10.9252-6.40394 6.53031-9.86575 15.1087-10.5591 24.1547-.790157 10.3146 2.01378 20.5866 6.74882 29.7035.974409-.144094 1.94409-.229134 2.90787-.248031-21.2882-39.4004 8.14488-75.339 50.3657-56.9764l10.1457 39.4748c.947244-.761811 1.92638-1.39961 2.92795-1.91575z" fill="#7a6842"/><ellipse cx="874.129" cy="321.286" fill="#1f1a17" rx="5.69773" ry="5.67992"/><ellipse cx="874.129" cy="321.286" fill="#92c6c7" rx="4.89198" ry="4.87669"/><ellipse cx="856.976" cy="318.856" fill="#1f1a17" rx="5.69773" ry="5.67992"/><ellipse cx="856.976" cy="318.856" fill="#92c6c7" rx="4.89198" ry="4.87669"/><ellipse cx="838.496" cy="322.277" fill="#1f1a17" rx="5.69773" ry="5.67992"/><ellipse cx="838.496" cy="322.277" fill="#92c6c7" rx="4.89198" ry="4.87669"/><ellipse cx="823.622" cy="333.378" fill="#1f1a17" rx="5.69773" ry="5.67992"/><ellipse cx="823.622" cy="333.378" fill="#92c6c7" rx="4.89198" ry="4.87669"/><ellipse cx="815.044" cy="349.696" fill="#1f1a17" rx="5.69773" ry="5.67992"/><ellipse cx="815.044" cy="349.696" fill="#92c6c7" rx="4.89198" ry="4.87669"/><ellipse cx="923.575" cy="321.286" fill="#1f1a17" rx="5.69773" ry="5.67992"/><ellipse cx="923.575" cy="321.286" fill="#92c6c7" rx="4.89198" ry="4.87669"/><ellipse cx="940.728" cy="318.856" fill="#1f1a17" rx="5.69773" ry="5.67992"/><ellipse cx="940.728" cy="318.856" fill="#92c6c7" rx="4.89198" ry="4.87669"/><ellipse cx="959.208" cy="322.277" fill="#1f1a17" rx="5.69773" ry="5.67992"/><ellipse cx="959.208" cy="322.277" fill="#92c6c7" rx="4.89198" ry="4.87669"/><ellipse cx="974.083" cy="333.378" fill="#1f1a17" rx="5.69773" ry="5.67992"/><ellipse cx="974.083" cy="333.378" fill="#92c6c7" rx="4.89198" ry="4.87669"/><ellipse cx="982.66" cy="349.696" fill="#1f1a17" rx="5.69773" ry="5.67992"/><ellipse cx="982.66" cy="349.696" fill="#92c6c7" rx="4.89198" ry="4.87669"/><path d="m888.728 372.27-10.1457-39.4713c-8.35276-3.57638-17.6067-5.5878-26.6976-4.34882-7.45276 1.01457-14.3043 4.18346-19.5874 9.57047-5.82756 5.94331-8.94331 13.7587-9.57283 21.9862-.770079 10.0512 2.15315 20.074 6.91181 28.8626.103937.109843.206693.222047.307087.334252 3.33543.108661 6.56575 1.06417 9.50433 3.18543 2.75433 1.98898 4.83543 4.67244 6.50787 7.59094.101575-6.40039.901181-13.4457 3.36378-19.1244 1.73504-4.00157 4.7185-8.09291 9.34016-8.8063 4.57677-.703937 8.73898 2.21575 11.6634 5.41772 3.84449 4.20945 6.64488 9.89173 8.62913 15.4051 1.60748-9.75354 5.27126-16.6193 9.77598-20.602z" fill="#da251d"/><path d="m908.978 372.27 10.1445-39.4713c8.35276-3.57638 17.6067-5.5878 26.6976-4.34882 7.45394 1.01457 14.3055 4.18346 19.5874 9.57047 5.82756 5.94331 8.94331 13.7587 9.57402 21.9862.768898 10.0512-2.15433 20.074-6.91299 28.8626-.103937.109843-.205512.222047-.307087.334252-3.33425.108661-6.56457 1.06417-9.50315 3.18543-2.75551 1.98898-4.83661 4.67244-6.50906 7.59094-.101575-6.40039-.901181-13.4457-3.36378-19.1244-1.73504-4.00157-4.7185-8.09291-9.34016-8.8063-4.57677-.703937-8.73898 2.21575-11.6634 5.41772-3.84449 4.20945-6.64488 9.89173-8.62913 15.4051-1.6063-9.75354-5.27126-16.6193-9.7748-20.602z" fill="#da251d"/><path d="m899.206 313.8c8.34213.187795 15.0496 6.99094 15.0496 15.352 0 2.0315-.39685 3.96969-1.11496 5.74488.173622-.451181.269291-.940157.269291-1.45276 0-2.23346-1.81772-4.04409-4.05827-4.04409s-4.05709 1.81063-4.05709 4.04409c0 2.23465 1.81654 4.04528 4.05709 4.04528 1.67008 0 3.10394-1.0063 3.72638-2.44252-2.3185 5.55472-7.81535 9.46181-14.2264 9.46181-6.41102 0-11.9079-3.90709-14.2276-9.46181.622441 1.43622 2.05748 2.44252 3.72638 2.44252 2.24055 0 4.05827-1.81063 4.05827-4.04528 0-2.23346-1.81772-4.04409-4.05827-4.04409s-4.05709 1.81063-4.05709 4.04409c0 .512598.0956693 1.00157.269291 1.45276-.719291-1.7752-1.11614-3.71339-1.11614-5.74488 0-8.36102 6.70866-15.1642 15.0508-15.352-2.0752.179528-3.70394 1.91575-3.70394 4.02992 0 2.23346 1.81772 4.04528 4.05827 4.04528s4.05709-1.81181 4.05709-4.04528c0-2.11417-1.62874-3.85039-3.70276-4.02992zm-.354331 8.08701c4.02402 0 7.2874 3.25276 7.2874 7.26496 0 4.01102-3.26339 7.26496-7.2874 7.26496-4.02402 0-7.2874-3.25394-7.2874-7.26496 0-4.0122 3.26339-7.26496 7.2874-7.26496z" fill="#c0a062"/><path d="m884.478 336.632 3.25984 12.4264c-.0413386-.232677-.0625984-.47126-.0625984-.715748 0-2.28425 1.85906-4.13622 4.15039-4.13622 2.29016 0 4.14921 1.85197 4.14921 4.13622s-1.85906 4.13622-4.14921 4.13622c-1.80945 0-3.34843-1.15394-3.91654-2.76496l5.1685 19.7079c3.75945-1.6937 7.78937-1.6937 11.5488 0l5.16969-19.715c-.565748 1.61457-2.10591 2.77205-3.91772 2.77205-2.29134 0-4.14921-1.85197-4.14921-4.13622s1.85787-4.13622 4.14921-4.13622 4.14921 1.85197 4.14921 4.13622c0 .24685-.0212598.487795-.0625984.722835l3.2622-12.437c-2.72126 5.1874-8.17441 8.68346-14.3752 8.68346s-11.6528-3.49488-14.374-8.67992zm14.374 13.8295c4.55906 0 8.25591 3.68622 8.25591 8.2311 0 4.5437-3.69685 8.22992-8.25591 8.22992s-8.25709-3.68622-8.25709-8.22992c0-4.54488 3.69803-8.2311 8.25709-8.2311z" fill="#c0a062"/><path d="m820.517 396.911c3.55276.844488 9.48661 2.9315 15.2539 13.976 4.81772 9.22559 8.06693 22.0453 11.8524 30.7181 2.06929 4.74213 6.20551 8.85354 21.098 9.42402 20.0303.767717 40.2319.767717 60.2622 0 14.8925-.570472 19.0287-4.68189 21.098-9.42402 3.78543-8.67283 7.03465-21.4925 11.8524-30.7181 5.76732-11.0445 11.7012-13.1315 15.2539-13.976 5.44961-1.29567 1.35591-4.88976-1.92283-5.85354-14.8146-4.35354-21.1689 5.56417-24.3283 12.2303.737008-39.1524-22.3311-39.7949-32.5169-6.8752-3.94134-36.6083-35.1933-36.6083-39.1346 0-10.1858-32.9197-33.2539-32.2772-32.5169 6.8752-3.15945-6.66614-9.51378-16.5839-24.3283-12.2303-3.27874.96378-7.37244 4.55787-1.92283 5.85354z" fill="#fff"/><g fill="#1f1a17"><path d="m898.852 429.43c10.702 0 22.7622 1.03701 33.0402 4.15276 4.33937 1.31575 14.0031 4.77283 14.0031 10.4811 0 1.71024-.681496 2.13307-2.06339 2.8748-4.21535 2.26063-10.1575 2.83937-14.8902 3.02008-20.0492.767717-40.1303.767717-60.1795 0-4.73268-.180709-10.6748-.759449-14.8902-3.02008-1.38189-.741732-2.06339-1.16457-2.06339-2.8748 0-5.70827 9.66378-9.16535 14.0043-10.4811 10.278-3.11575 22.337-4.15276 33.039-4.15276z"/><path d="m892.329 383.276c1.17638 0 2.16732.863386 2.34213 2.00669h3.82559v-2.92559c-4.10433-.616535-1.00748-7.03701 2.03031-4.00394 1.38189 1.37953.575197 3.71929-1.31929 4.00394v2.92559h3.82559c.629528-4.09606 7.04882-1.00039 4.01575 2.02441-1.37598 1.37244-3.72638.582283-4.01575-1.31575h-3.10157l8.78268 15.1098-.630709.324803-8.87598-15.2705v4.55906l6.82087 11.7685-.637795.327165-6.18307-10.6394v12.2835h-.711024v-12.2835l-6.19606 10.6606-.636614-.327165 6.83268-11.7921v-4.55669l-8.8878 15.2929-.617717-.346063 8.7815-15.1098h-3.10157c-.629528 4.09488-7.04764 1.00394-4.01575-2.02323.42874-.427559 1.02047-.692126 1.67362-.692126v-.0011811zm7.69606-4.42441c-2.25945-2.24291-4.35118 2.82165-1.17283 2.82165 1.47874 0 2.21102-1.78701 1.17283-2.82165zm6.52323 5.61614c-2.25945-2.24291-4.35118 2.82165-1.17283 2.82165 1.47874 0 2.21102-1.78701 1.17283-2.82165zm-13.0465 0c-2.25945-2.24173-4.35236 2.82165-1.17283 2.82165 1.48228 0 2.20748-1.79055 1.17283-2.82165z" fill-rule="nonzero"/><path d="m909.702 407.381c1.17165.080315 2.10591 1.0122 2.19567 2.16378l3.81732.266929.205512-2.92087c-3.95669-.879921-.673228-7.03819 2.30433-3.85157 1.23071 1.31693.420472 3.73819-1.59567 3.90118l-.205512 2.91969 3.81614.266929c.87874-3.94016 7.05827-.679134 3.86339 2.29724-1.31811 1.22953-3.75118.41811-3.91299-1.59094l-3.09449-.214961 7.70433 15.685-.651969.27874-7.78465-15.8504-.318898 4.54724 5.97992 12.215-.657874.282283-5.4248-11.0433-.859843 12.2539-.709843-.0496063.861024-12.2539-6.92717 10.2047-.612992-.372047 7.64173-11.2878.318898-4.54488-9.93543 14.6362-.592913-.387402 9.8185-14.4626-3.09567-.214961c-.882283 3.94488-7.05709.670866-3.86339-2.29843.458268-.395669 1.06654-.618898 1.71732-.572835v-.0023622zm7.9878-3.87874c-2.09291-2.39528-4.53898 2.51102-1.36772 2.73307 1.47283.102756 2.32795-1.62756 1.36772-2.73307zm6.11457 6.05551c-2.10354-2.39409-4.53307 2.51457-1.36772 2.73425 1.47283.101575 2.32795-1.62874 1.36772-2.73425zm-13.0157-.907087c-2.08583-2.39764-4.5437 2.50984-1.36654 2.73307 1.47165.102756 2.33031-1.62874 1.36654-2.73307z" fill-rule="nonzero"/><path d="m888.002 407.381c-1.17283.080315-2.10236 1.00866-2.19567 2.16378l-3.81732.266929-.20315-2.92087c3.95433-.881102.670866-7.03701-2.30551-3.85157-1.23307 1.31811-.419291 3.73819 1.59567 3.90118l.205512 2.91969-3.81732.266929c-.87874-3.94016-7.05709-.679134-3.86339 2.29724 1.31929 1.22953 3.75118.41811 3.91299-1.59094l3.09449-.214961-7.70315 15.685.651969.27874 7.78465-15.8504.318898 4.54724-5.97992 12.215.657874.282283 5.4248-11.0433.859843 12.2539.708661-.0496063-.859843-12.2539 6.92717 10.2047.612992-.372047-7.64173-11.2878-.318898-4.54488 9.93543 14.6362.592913-.387402-9.81732-14.4626 3.09331-.214961c.883465 3.94488 7.05827.670866 3.86339-2.29843-.458268-.395669-1.06654-.618898-1.71732-.572835v-.0023622zm-7.9878-3.87874c2.09291-2.39528 4.54016 2.51102 1.36772 2.73307-1.47283.102756-2.32795-1.62756-1.36772-2.73307zm-6.11457 6.05551c2.10354-2.39528 4.53307 2.51457 1.36772 2.73425-1.47283.101575-2.32795-1.62874-1.36772-2.73425zm13.0157-.907087c2.08583-2.39764 4.54488 2.50984 1.36654 2.73307-1.47165.102756-2.33031-1.62874-1.36654-2.73307z" fill-rule="nonzero"/><path d="m939.384 411.344c1.1126.380315 1.76929 1.52008 1.55906 2.65748l3.61772 1.24134.956693-2.76732c-3.29173-1.71496.50315-6.94606 3.22677-3.12638.801969 1.12441-.284646 3.7748-2.55354 3.35669l-.957874 2.7685 3.61772 1.24134c1.34291-2.55236 5.28307-.86811 4.33937 1.86378-.946063 2.73661-5.09291 1.63465-4.57087-1.19409l-2.93268-1.0063 3.36969 17.1366-.702756.102756-3.40512-17.3197-1.48819 4.30866 2.60551 13.3429-.709843.102756-2.37047-12.0673-4.0122 11.615-.672047-.230315 4.0122-11.6126-9.34016 8.06693-.496063-.514961 10.3122-8.9315 1.48819-4.30866-13.3984 11.5748-.47126-.527953 13.239-11.4378-2.93386-1.0063c-1.90866 3.65315-7.00039-1.30984-3.13465-3.21614.544488-.264567 1.19055-.322441 1.80709-.111024l-.0011811-.0011811zm8.72244-1.68543c-1.39724-2.85827-5.03976 1.26024-2.03031 2.2878 1.40315.478346 2.67165-.975591 2.03031-2.2878zm4.33346 7.42677c-1.39606-2.85472-5.03858 1.25551-2.03031 2.2878 1.39488.479528 2.67165-.970866 2.03031-2.2878zm-12.3354-4.23425c-1.40315-2.85236-5.03504 1.25433-2.03031 2.2878 1.39488.479528 2.67165-.972047 2.03031-2.2878z" fill-rule="nonzero"/><path d="m858.32 411.344c-1.1126.380315-1.76929 1.52008-1.55906 2.65748l-3.61772 1.24134-.956693-2.76732c3.29173-1.71496-.50315-6.94606-3.22677-3.12638-.801969 1.12441.284646 3.7748 2.55354 3.35669l.957874 2.7685-3.61772 1.24134c-1.34291-2.55236-5.28307-.86811-4.33937 1.86378.946063 2.73661 5.09291 1.63465 4.57087-1.19409l2.93268-1.0063-3.3685 17.1366.701575.102756 3.40512-17.3197 1.48819 4.30866-2.60551 13.3429.709843.102756 2.37047-12.0673 4.0122 11.615.672047-.230315-4.0122-11.6126 9.34134 8.06693.494882-.514961-10.3122-8.9315-1.48819-4.30866 13.3984 11.5748.47126-.527953-13.239-11.4378 2.93386-1.0063c1.90748 3.65315 7.00039-1.30984 3.13465-3.21614-.544488-.264567-1.19055-.322441-1.80709-.111024l.0011811-.0011811zm-8.72244-1.68543c1.39724-2.85827 5.03976 1.26024 2.03031 2.2878-1.40315.478346-2.67165-.975591-2.03031-2.2878zm-4.33346 7.42677c1.39606-2.85472 5.03858 1.25551 2.03031 2.2878-1.39488.479528-2.67165-.970866-2.03031-2.2878zm12.3354-4.23425c1.40197-2.85236 5.03622 1.25433 2.03031 2.2878-1.39488.479528-2.67165-.972047-2.03031-2.2878z" fill-rule="nonzero"/><path d="m930.938 386.223c1.14331.262205 1.91693 1.32638 1.82953 2.48031l3.72756.858661.661417-2.85236c-2.68228-1.05236-1.42559-5.14724 1.40551-4.49528 2.8311.651969 2.16024 4.87913-.713386 4.65472l-.661417 2.85236 3.72874.858661c1.05945-2.6752 5.16378-1.41732 4.50945 1.40079-.654331 2.82047-4.88858 2.15906-4.67008-.709843l-3.02126-.695669 5.14606 16.6925-.688583.174803-5.20039-16.8709-1.02874 4.44094 3.98858 12.998-.694488.174803-3.6248-11.7531-2.77205 11.9705-.693307-.159449 2.77323-11.9693-8.4437 8.99764-.54685-.462992 9.3189-9.95551 1.02992-4.43976-12.111 12.9071-.524409-.477165 11.9669-12.7524-3.02244-.695669c-1.06299 2.67638-5.16378 1.41496-4.50945-1.40197.294094-1.27087 1.56969-2.0622 2.84055-1.76929v-.0011811zm8.49803-2.58425c-1.69134-2.69528-4.87795 1.7752-1.77874 2.4874 1.43622.329528 2.55709-1.24724 1.77874-2.4874zm5.08819 6.93543c-1.69134-2.69528-4.87677 1.7752-1.77874 2.48622 1.43504.330709 2.55827-1.24488 1.77874-2.48622zm-12.7122-2.92677c-1.69016-2.69409-4.87795 1.7752-1.77874 2.4874 1.43622.329528 2.55827-1.24488 1.77874-2.4874z" fill-rule="nonzero"/><path d="m866.766 386.223c-1.14449.263386-1.92047 1.32756-1.82953 2.48031l-3.72756.858661-.661417-2.85236c2.6811-1.05236 1.42559-5.14606-1.40551-4.49528-2.8311.650787-2.16142 4.87913.713386 4.65472l.660236 2.85236-3.72756.858661c-1.4185-3.57992-7.02992.0354331-3.45591 2.87362 1.19055.944882 3.7878.0177165 3.61535-2.18268l3.02244-.695669-5.14606 16.6925.687402.174803 5.20157-16.8709 1.02874 4.44094-3.98858 12.998.694488.174803 3.6248-11.7531 2.77205 11.9705.693307-.159449-2.77323-11.9693 8.4437 8.99764.54685-.462992-9.32008-9.95551-1.02874-4.43976 12.1122 12.9071.524409-.477165-11.9681-12.7524 3.02362-.695669c1.41142 3.57756 7.0311-.0307087 3.45472-2.87244-.636614-.506693-1.76929-.290551-1.78701-.3zm-8.49803-2.58425c1.69134-2.69528 4.87795 1.7752 1.77874 2.4874-1.43622.329528-2.55709-1.24606-1.77874-2.4874zm-5.08819 6.93543c1.69134-2.69528 4.87677 1.7752 1.77874 2.48622-1.43622.330709-2.55827-1.24488-1.77874-2.48622zm12.7122-2.92677c1.69016-2.69409 4.87795 1.7752 1.77874 2.4874-1.43622.329528-2.55827-1.24488-1.77874-2.4874z" fill-rule="nonzero"/><path d="m963.516 397.172c1.03819.549213 1.50709 1.77874 1.12323 2.86772l3.37795 1.79055 1.37717-2.58425c-2.77677-2.05984 1.13976-6.80906 3.67795-2.58425.943701 1.56969-1.8437 3.33898-3.05079 2.91614-1.22717 2.30433-.484252.962598-2.41654 3.02598l.0011811-.0023622-15.0508 9.34134-.382677-.595276 14.8701-9.23031-2.73898-1.45039c-2.06929 2.76614-6.82559-1.13031-2.59134-3.66732.579921-.175984 1.22835-.132283 1.80354.173622v-.0011811zm-.574016 11.876-8.66102 5.37638-.408661-.587008 9.89055-6.15591c-.274016.437008-.54685.892913-.820866 1.36772v-.0011811zm9.45354-12.1807c-.934252-3.03898-5.17205.455906-2.36457 1.94291 1.30276.689764 2.79213-.542126 2.36457-1.94291zm-8.40472 1.90512c-.934252-3.0378-5.17205.455906-2.36457 1.94291 1.30394.690945 2.78858-.539764 2.36457-1.94291z" fill-rule="nonzero"/><path d="m834.188 397.172c-1.03701.548031-1.50827 1.77756-1.12323 2.86772l-3.37795 1.79055-1.37717-2.58425c2.77677-2.05866-1.13858-6.80906-3.67795-2.58425-.944882 1.57205 1.85197 3.34016 3.05079 2.91614 1.22598 2.30079.484252.964961 2.4189 3.02717l-.0023622-.00472441 15.0508 9.34252.382677-.595276-14.8713-9.23031 2.73898-1.45276c1.72087 2.3126 5.35394.0377953 3.99213-2.51693-1.04882-1.96772-3.19488-.975591-3.20433-.975591zm.574016 11.876 8.66102 5.37638.408661-.587008-9.88937-6.15472c.272835.437008.54685.892913.819685 1.36535zm-9.45354-12.1807c.934252-3.03898 5.17323.455906 2.36457 1.94291-1.30276.690945-2.78976-.540945-2.36457-1.94291zm8.40472 1.90512c.936614-3.03543 5.17205.452362 2.36457 1.94291-1.29567.688583-2.79094-.529134-2.36457-1.94291z" fill-rule="nonzero"/></g><path d="m898.852 429.965c25.6807 0 46.5071 6.31417 46.5071 14.0988 0 1.47047-.553937 1.74449-1.78228 2.40236-4.12323 2.2122-10.0654 2.7815-14.6551 2.95748-20.0327.767717-40.1055.767717-60.1394 0-4.58976-.175984-10.5319-.745276-14.6551-2.95748-1.22835-.657874-1.7811-.93189-1.7811-2.40236 0-7.78465 20.8252-14.0988 46.5059-14.0988z" fill="#da251d"/><ellipse cx="813.265" cy="368.613" fill="#1f1a17" rx="5.69773" ry="5.67992"/><ellipse cx="813.265" cy="368.613" fill="#92c6c7" rx="4.89198" ry="4.87669"/><ellipse cx="817.944" cy="386.552" fill="#1f1a17" rx="5.69773" ry="5.67992"/><ellipse cx="817.944" cy="386.552" fill="#92c6c7" rx="4.89198" ry="4.87669"/><ellipse cx="984.439" cy="368.613" fill="#1f1a17" rx="5.69773" ry="5.67992"/><ellipse cx="984.439" cy="368.613" fill="#92c6c7" rx="4.89198" ry="4.87669"/><ellipse cx="979.761" cy="386.552" fill="#1f1a17" rx="5.69773" ry="5.67992"/><ellipse cx="979.761" cy="386.552" fill="#92c6c7" rx="4.89198" ry="4.87669"/><ellipse cx="898.852" cy="329.152" fill="#da251d" rx="6.61629" ry="6.5956"/><ellipse cx="898.852" cy="317.83" fill="#92c6c7" rx="3.3863" ry="3.37572"/><ellipse cx="909.352" cy="333.445" fill="#92c6c7" rx="3.3863" ry="3.37572"/><ellipse cx="888.351" cy="333.445" fill="#92c6c7" rx="3.3863" ry="3.37572"/><ellipse cx="898.852" cy="358.692" fill="#da251d" rx="7.5848" ry="7.56109"/><ellipse cx="905.878" cy="348.342" fill="#92c6c7" rx="3.47816" ry="3.46728"/><ellipse cx="891.825" cy="348.342" fill="#92c6c7" rx="3.47816" ry="3.46728"/><path d="m917.83 290.515h-3.07441l-5.19685 8.02323h-7.32402v-10.1622l10.0382-6.46063v-3.76535h-26.8417v3.76535l10.0382 6.46063v10.1622h-7.32402l-5.19685-8.02323h-3.07441v22.7906h3.07441l5.19685-8.02323h7.32402v8.06457c1.09134-.231496 2.22283-.354331 3.38268-.354331 1.15984 0 2.29134.122835 3.38268.354331v-8.06457h7.32402l5.19685 8.02323h3.07441v-22.7906z" fill="#c0a062"/></svg>