<svg clip-rule="evenodd" fill-rule="evenodd" height="376.5" image-rendering="optimizeQuality" shape-rendering="geometricPrecision" text-rendering="geometricPrecision" viewBox="0 0 160 106" width="563.79999" xmlns="http://www.w3.org/2000/svg"><path d="m0-.423201h160v106.84641h-160z" fill="#fff"/><g fill-rule="evenodd" transform="matrix(1.00555 0 0 1.00555 -.441939 -.301954)"><path d="m.4779-.0977-.0003 85.0497 139.6204-85.0502z" fill="#da251d" stroke="#da251d" stroke-width=".0762"/><path d="m21.9162 106.098 137.6058-88.2475v88.2475z" fill="#0093dd" stroke="#0093dd" stroke-width=".0762"/><g><path d="m14.0067 8.4471c.2068.1798.4945.5304.5394.7731.5574.0899 1.0069.4495 1.4115.8541.5573.0179 1.1507-.072 1.5552.2966.5394.2787 1.0339.6743 1.6542.7552.908.0809 1.8789.0539 2.7689-.018.5574-.018 1.0069.1169 1.5104.2607.7102.2428 1.5822.2428 2.3733.1708.6473.054 2.9937.1888 3.3353 1.0339.1798.1438.3416.3236.5484.4135.1798.072.1528.3057.3416.3776.6383.6743 2.2296 1.3935 2.9757.4585.1978-.2427.0899-.6473.1079-.9709-.7911-1.5913-3.2993-1.8789-4.8186-1.6991-.5304.0179-1.0429.1438-1.6003.1078-.9799 0-2.5441.1709-3.4521-.2697-.5394-.2337-1.0249-.4585-1.6182-.6203-1.1687-.3506-.8002-1.6092.2067-1.6092 1.4115-.5574 2.8049 1.0518 4.0006.6203.7102 0 1.3575-.1798 2.0767-.1348.8451-.1619 1.6542.0449 2.4992.0539 1.9958.4136 4.567 1.2227 4.9625 3.623.2967 2.0677-1.9778 3.9197-4.0005 3.2454.1618.7462.827 2.5172 1.6631 2.8319.3776.2337.89.0899 1.2316.4046.2787.7371.4945 1.5103.908 2.2205.045.3686-.9529 1.6811-1.1327 2.2205h-4.2433c-.3866-.5304.3506-1.8429.2607-1.6811.3057-.4045.7282-.7102 1.1867-.8361-.1528-.1258-.2427-.4045-.4765-.3776-.6023-.4674-1.3485-.6472-1.8969-1.2226-.0629.0809-.1708.1618-.1708.2247-.5214.6204-.2877 1.6093-.9709 2.1487-.872.3146-1.0429 1.2136-1.5643 1.6811h-7.8303c-.1259-1.1597.3866-2.0677 1.5013-2.3464.018-.0449.072-.1079.009-.1528-.4315-.3506-.9709-1.3935-1.4743-1.5913-.3596.5304-.4316 1.0699-.8271 1.5463-.4495.063-.89.3776-1.2946.6293-.845.4855-.9439 1.3665-1.1867 1.9778-.1078.081-.2337.027-.3865.027h-4.549c.036-1.3395.908-2.2925 2.2475-2.4543.2877-.7282 1.1238-1.1507 1.4384-1.8699.1708-.7462.2967-1.4834.5934-2.1756-.9889-.4225-2.0048-1.5103-2.4903-2.4813-.2877-.1888-.6473-.2787-.872-.5753-.4315.009-1.1507-.4046-1.5013-.2428-.3057.027-.6743.054-.944-.0809-.4675.1708-.917-1.5732-.3057-1.9868.3147-.1888.7642.0719 1.0339-.1618-.5933-.1528-1.2137.3776-1.7441-.3057-.2247-.2787.1439-.5843-.0989-.845-.5034-.063-.3955-.9889-.0269-1.2227.2337-.0629.4495-.1618.7012-.1438.1978-.1259.3866-.2607.6293-.2877.8451.0449 1.2946-.944 2.2205-.6922.4405.0539.926.0719 1.3845.0449.3956-.2517 1.2766-.4585 1.6002.054zm10.6172 9.2238c-.2067.7641.1709 1.8969.3956 2.6341-.3416.3596-.7012.7641-1.1867 1.0158-.2966.036-.6473.1259-.9259.2338-.045-.5754.1438-1.2137-.3686-1.5193-.3147-.5035-.7282-1.1867-.8901-1.7711 1.1238-.0539 2.0408-.4944 2.9757-.5933z" fill="#1f1a17"/><path d="m14.4704 20.7866c0 .0269 0 .0449-.027.0719-.3506-.063-.5753.0719-.4405-.3327zm-.1708-.7013c.3326.3057.7551.3506 1.1057.5035-.0629.2697-1.0518-.1079-1.1866-.2338-.009-.1168.0809-.3955.0809-.2697zm11.8488-.1708.3417.027c-.2338.1528-.5574.1169-.8541.1438v-.1888c.018.009.4046-.1798.5124.018zm-5.8345-.3326-.4855.4765c-.1798-.018-.1798.009-.1798-.1888.081-.027.1259-.072.2158-.0809v-.045c.1798-.009.2787-.1978.4495-.2158zm-5.7716-.1169c.1798.0629.3956.054.5754.1169.3776.1978.881.4135 1.2676.7012-.5035-.1618-1.1418-.4315-1.7171-.3506-.2697-.0719-.3147-.2967-.2607-.5484.0629 0 .0988.045.1348.0809zm12.4422.0899c-.4045.018-1.2766.0719-1.5732-.2247l.0089-.1169c.6024-.0539 1.0429.2517 1.5643.3416zm3.6949-.6023c-.1258.2247-.89.6563-1.0878.4585.1708-.1349.8451-.4675 1.0878-.4585zm-10.2396-.0899c.0719.2337-.917.6652-1.1867.6652-.0629-.0629-.0629-.1528-.1528-.1887.1078-.0989.2697.0089.4045-.045.3416-.036.6653-.2068.935-.4315zm-5.0434.2068c.1977 0 .9799.5753 1.1866.7012v.0449c-.6382-.4135-1.3664-.4944-2.0317-.8001.018-.0719.018-.1438.0539-.1978.3147-.0269.5934.018.7912.2518zm4.3871-.4585c-.2337.1977-.6563.009-.8541.2247-.0809-.018-.0719.0719-.1258.0899-.1618 0-.4855-.0359-.5574-.1888.1618 0 .3147-.0359.4765-.0989.3506-.0269.7102-.0449 1.0608-.0899zm10.7611-.2967c0 .009.009.018.0179.027-.1708.0629-.3775.0988-.5394.2067-.2157.054-.3685.2248-.5573.3147s-.3956-.018-.5934-.036v-.0449c.6024-.2158 1.0339-.4226 1.6722-.4675zm-4.4231.0809c.2427.027 1.0878.2068 1.2766.3956-.7103-.2967-1.4474.1078-2.1127-.2428-.2337-.4135.7372-.1798.8361-.1528zm-10.4105-.1708c.3237.2068.6293.5214.935.7192-.6024-.2158-1.2946-.5394-1.9329-.6473-.027-.6383.7552-.1169.9979-.0719zm10.1318-.4675c.3865.0899.7821.3147 1.1867.4225-.5125.018-.944-.2247-1.4834-.1528-.036-.027-.4585-.1708-.2607-.3236.2068-.018.3596.0809.5574.0539zm-9.97.0809c.2248.1079.4226.2338.6653.3147l-.018.009c.3956.3146.8181.6472 1.2316.9169-.0539.2428-.2247.5035-.4045.7192-.1349.2518-.1798.5934-.3057.8541-.9619.2427-2.4722 1.4204-2.5621 2.5622l-3.8298.018c-.0809-.6024.8451-.989 1.2227-1.1777.1888-.081.4135-.063.6023-.1259.5214-.7462 1.3755-1.4294 1.7171-2.2206.1348-.6382.3057-1.3305.5214-1.9508-.0629-.3416 1.0698.0539 1.1597.0809zm14.3751-.2247c-.1259.1348-.3686-.009-.5124.1798-.3057.1708-.6114.3326-.899.5663-.2338.063-.3866-.0809-.5844-.1528.5574-.3146 1.3665-.5754 1.9958-.6383zm-10.4644-.1439c-.1978.1978-.6203.1708-.8271.3596-.3146.0809-.9889 1.0968-1.3845.5574-.0629-.018-.1708-.027-.1708-.0899.3686.027.6383-.2158.944-.3416v-.045c.4135-.2067.9889-.3686 1.4384-.4405zm10.0958-.3596c-.2337.1169-.5394.0989-.7642.2697-.4225.0719-.6562.4855-1.0698.5574-.0269-.0629-.4045-.018-.4225-.2247.4495.0899.6473-.3866 1.0339-.4496.4225-.0269.8091-.1528 1.2226-.2067zm-10.5183-.2337c-.1349.0629-.2428.1079-.4136.1258-.4675.2607-.9349.6204-1.3665.962-.1618.0719-.7102.0809-.7102-.1888.2338.0629 1.1957-.6653 1.4744-.7732.3146-.0269.6832-.1078 1.0159-.1258zm9.916-.3237c-.8361-.0539-1.1418 1.0069-2.0138.7822-.1079-.054-.2697-.018-.3596-.0899.1798-.1169.4945-.027.6473-.2697.5484-.2338 1.0968-.4405 1.7261-.4495zm-11.0668-.1708c-.1078.063-.3506.1529-.4405.2068-.2966.2158-.4495.6293-.8001.8181-.2517.1079-.5214 0-.7641-.0719 0-.1708 1.78-1.0159 2.0137-1.0519.072.027-.009.063-.009.0989zm-2.0497-.89c-.1708.3776-.3686 1.1687-.6652 1.4294-.1978.0989-.3597-.0449-.4316-.018.2877-.2786.4585-.5843.7822-.89-.009-.1438.1977-.4405.2787-.5394zm-.7641-.5124c-.063.2607-.1439.5484-.2158.8091-.2607-.027-.5484.5933-.7282.7731-.1888.018-.4135.018-.4944-.1798.5214-.0719 1.1866-1.3125 1.5373-1.6991-.054.0899-.009.2427-.0989.2967zm11.8219.6203c.5483.0359 1.7081.0449 2.1306.4675-.6653-.072-1.3575.0359-2.0048.0899-.2877-.1259-.5484-.3147-.8271-.4405-.0899-.045-.7012-1.2317-.6473-1.1328.5305.5844.6294.7911 1.3486 1.0159zm-12.7299-1.3485c-.0809.5304-.7462 1.8609-1.3665 1.2406.7102-.2787.9349-.6293 1.3215-1.2406zm4.3152-.054c.2427.1888.3686.4945.6293.6383.4045.3327-.054.7192-.027 1.0159-.1618-.018-.1708-.4225-.1798-.5304.1259 0-.4585-1.0698-.4675-1.1238zm9.907-.3506c.0629.2967.1259.6563.2517.953-.5394-.5035-.8091-.8271-.9349-1.6182.2247.1977.5843.2876.6832.6652zm-5.8255-.7372c.2697.4765.3596.899.5483 1.3575 0 .6473.6833 1.1058.3776 1.7981-.0629-.5395-.3506-.8181-.6473-1.2227-.3056-.4046-.1887-1.4204-.3056-1.9329zm-2.4453.009c.0269.2697.1708.4405.3146.7013.2517.5843.3776 1.2406.2068 1.8969-.0629.2247-.1349.4315-.1618.6472-.054-.3865.0359-.845-.0809-1.2136-.1079-.7732-.3596-1.4834-.3776-2.2475.0989.009.0539.1528.0989.2157zm7.0661.063c.1888.5034.3776 1.0338.7282 1.4653-.3146-.1977-.5574-.3775-.881-.5843-.1708-.4315-.4585-.7911-.7192-1.2137-.027-.0359-.0989-.018-.1169-.0809.3956-.009.7192.1439.9889.4136zm-1.6901-.4046c.1438.0899.5124.2248.4855.4765 0 .1978.2787 1.3575.6383 1.3575 0 .0989.4944.4315.5573.5933-1.0967-.5933-1.5193-.9889-1.8879-2.1486 0-.009-.3686-.3236-.3596-.3776.2338-.0629.3776.0899.5664.0989zm-1.3125-.0719c.1528.0719.2966.1798.4495.2697.1348.0449.3865 2.0138.2966 2.3014-.1528-.3506-.2607-.7641-.5214-1.0698-.1169-.4135-.1618-.854-.3056-1.2406-.0899-.1618-.2877-.1888-.3507-.3596.1709-.027.2608.1169.4316.0989zm-.926-.0899c.3416.1798.5394 1.1687.6383 1.5732.1169.2697.2967.4585.4135.7372.018.2967-.0539.5934.0719.89l-.0629-.0089c-.2427-.8181-1.0428-1.4924-1.0518-2.3105-.1079-.3146-.4136-.926-.7282-1.0518.2877-.045.4765.1168.7192.1708zm-12.1995.7462c-.1888.0449-.3776.2067-.6023.1528.3955-.3506.7012-.7911.9709-1.2227-.009.4046-.1438.7642-.3686 1.0699zm7.5606-1.2227c1.1418.1978 3.8657-.6113 3.677 1.3305-.3237.6563.4045 1.0699.1528 1.7351-.1528-.2157-.1978-.7282-.4675-.9349-.2697-.4136.018-.8901-.027-1.3665-.1618-.1708-.1618-.4945-.5034-.4316-.7731.7013.2607 1.807-.1438 2.5352.0089.2608-.1349.5125-.072.7552-.0539-.3776-.0179-.8271-.0269-1.2496-.3686-.6653-.6024-1.2047-.971-1.834-.1708-.2247-.1977-.1348-.3596-.1618-.6742.872.3866 1.7261.054 2.688-.0719-.3326-.1618-.6832-.3147-.9889-.5214-.4495-.0359-1.5103-.8181-1.7261-.3865.2068-.3236 1.1238-.1348 1.4294-.3057 0-.4225-1.4653-.4945-1.6721-.0179-.1798-.2427-.1079-.2877-.2697.2428.0719.4765.1528.7372.1618zm-4.9894-.1798c-.1708.5754-1.6182 3.0297-2.3464 1.9868 1.0788-.2607 1.6991-1.0608 2.2744-1.9598.027-.009.045-.036.072-.027zm3.5061-.2517c.7102.5214.4315.7372.2067 1.4564 0 .3326.2248.5753.2518.899-.054.5214-.2877.9619-.5215 1.4024-.0539.5394-.6293.7462-.854 1.2047h-.045c.1349-.4765.6563-.7372.7372-1.2316.0809-.3956.1708-.7912.2338-1.2047 0-.6743-.6203-.2877-.8541 0-.018-.1708.1439-.2787.1708-.4405.5394-.4585.6473-1.4294.6113-2.0857zm-.4315-.3057c.0269.0989.1708.1259.1438.2607.0719.0809-.018.2068-.027.2877-.3506.4315-.5753 1.0159-.8181 1.5103 0 .2158-.3146.944-.5843.962.2517-.6473.4405-1.3485.7462-2.0138.1258-.4495.2067-.6742-.1978-.926-.1708.8541-.6923 2.0947-1.2496 2.76h-.054c.1439-.2877.6563-1.5014.5125-1.834-.2248-.0539-.2158.2967-.4316.2427-.0809-.2157.4495-1.2855.5574-1.4563.4136-.3237 1.0339-.009 1.4025.2067zm-7.0482-.1438c.3776.3416.5574 1.0428.0809 1.3934 0 .4585-1.1148.2428-1.3395.2428v-.045c.4135-.018 1.1327-.0989 1.2676-.5933.0359-.2787.1528-.6923-.1798-.8721-.1709-.1528-.3507-.2787-.5754-.3056-.1798-.1798.7192.1708.7462.1798zm.854-.3327c.3147.6383.2068 1.0609-.2966 1.5643-.1529-.1528.5124-1.0518-.1709-1.4384-.1977-.1708-.6742-.3596-.9259-.2877v-.0629c.5573.0899.854-.2967 1.3934.2247zm4.2343-.1438c.2248.3416-.0269 1.1957-.2607 1.4924-.1348-.018-.0359-.1798-.0809-.2608-.0719.1529-.7552 1.3306-.917 1.3306-.0449-.2967.6203-1.3575.6383-1.7621.0989-.1888.1888-1.0698-.009-1.2406h.063zm-3.2004-.4944c.1978.3236.2697.5753.4045.908h.063c-.054.2966.0629 1.2765-.2428 1.4923-.1348-.1888.2248-1.2137-.2067-1.3575-.1978.1888-.3237.4225-.4406.6473-.0449.0359-.1168 0-.1528.0539.018-.0989.1888-.6293.2248-.6832.0269-.3327-.027-.917.1528-1.1777.036.0719.1348.0719.1978.1169zm2.2745-.045c0 .3326-.3237 1.0069-.4855 1.3395-.5394.3866-1.0159 1.7171-1.6542 1.834.8001-.6293.6653-1.3755.953-2.2205.4315-.3507.5663-.971.5124-.1079.0539-.009.0809.0719.1259.0269.2427-.2427.0449-.7102.2876-.9979.1259-.0449.2608-.0269.2608.1259zm-4.6659-.0719.027.0449c-.4405.2518-.89.4585-1.3305.7732 0-.054-.054-.1798.0449-.2068.4405-.1618.6563-.854 1.2227-.6922zm3.4972-.7192c-.036.3955-.2068.6473-.5395.8361-.0269-.3507.3686-.6204-.0629-1.0069.036-.1529.5754-.0989.6024.1708zm.4854.0449c-.018.3686.1528.926-.3146 1.1867-.1798 0-.3147.009-.3506-.2247.2157-.4945.5034-.8181.2966-1.3575.2607-.009.2428.2517.3686.3955zm-.1528-.7641c.2068.2337.4765.4405.4854.7551-.0179.009-.0449-.009-.0629.018.0719.009.054.0899.0719.1259.3596.1438.7822.0989 1.0519.4315.2697.0899.4585.4046.7192.5394.4045.036.845-.009 1.2316.0899 1.6632 1.2316 3.0386 1.0249 4.9985.953.6113-.018 1.2226.1887 1.789.3596.6203.1348 1.3485.0988 2.0048.0629.6832.0539 1.4294.1348 2.1036.2877v.0449c.7372.063.8541.7552 1.4834 1.0339.0629.0629.0629.2068.1708.2068.908 1.0338 1.8429 1.1687 3.1735 1.0967.2157-.1708.8001-.3686.836-.7102.3057-.2247.2518-1.1507.1439-1.4114-.1169-.8271-1.6991-1.6452-2.4273-1.9329-.6563-.0989-1.3305-.1708-2.0048-.2247-1.789-.072-4.4411.6742-6.0323-.1978-.5754-.1978-1.2137-.4226-1.7441-.6833.1079-.3865 1.1418-.3326 1.4204-.3326.953.2158 2.0228.953 3.0477.6743 1.5193-.1888 3.2993-.2518 4.8186-.009 1.5283.3776 3.4072 1.0518 3.9287 2.706.5034 1.762-1.3755 3.3982-3.1465 2.9487-.4316-.0359-.8002-.1888-1.1957-.3236.027.4045.3236.7551.4765 1.1597.1887.908.6742 2.0947 1.4114 2.706.0719.3956 1.3125.6203 1.6182.6833 0 .6472.4765 1.3934.7102 1.9508-.1888.4855-.7012.908-.8271 1.4564l-3.3892.018c.018-.9889.9889-1.5553 1.8969-1.5643.0359-.018.009-.0539.018-.0809-.2608-.3147-.6473-.7282-.8541-1.0608-.7462-.3237-1.3755-.8002-2.0677-1.2137-.1708-.1169-.2248-.2967-.3686-.4315-.3956-.3057-.7821-.6024-1.1417-1.0069-1.816-1.1507-3.2994-1.0069-5.2772-.3326-.4854.1258-.9979.1258-1.4114.0539-.1349-.1798-.1618-.4046-.2517-.6023.0269-.1619-.1708-.1978-.2607-.3147-.4406-.1258-.8901-.5034-1.2586-.8451.1168.072.0809.3327.2427.3776.1978.2787.4944.4495.7462.6203.1078.009.1977.045.2607.1349.009.5214.2876.899.3686 1.4114.4585.7013.6383 1.6452 1.2765 2.2476 0 .4944-.1528 1.9418.1619 2.3374.1168-.018.1798-.1618.2517-.2517.1798-.4136.8271-.908 1.3125-.8361.1529.018 1.5014-1.0519 1.7531-1.3036-.0809-.4675-.3776-.917-.4495-1.4294.027-.5664-.3147-1.1417 0-1.6452-.1798-.4855 2.3284.4945 2.3464.5035.0629.0539.9799.881.9709.9619-.1798.1438-.1438.3956-.3686.4944-.3146.5035-.6203 1.2946-.6832 1.9239-.1888.3147-.5304.3776-.5934.4315-.5304.3956-.6023.9979-1.1147 1.3755h-6.9134c.3327-1.2676.9889-1.1237 1.4205-1.3485.0809-.2337.3506-.7372.0179-.854-.3865-.4226-.7282-.962-1.1687-1.3575-.1618-.2967-.4854-.4316-.7371-.6204-.7462-.3596-1.2946-.7371-1.825-1.3575-.6833-.4315-1.4564-.6023-2.1756-.9259-.6473-.4316-1.1148-.953-1.6991-1.4654l-.4136-.8541c-.3236-.2157-.7461-.2966-.9529-.6562-.3686-.1709-.8091 0-1.1238-.3147.1888-.0989.7282-.3326.7282-.5664-.0719-.0449-.1258-.1618-.2427-.1258-.4135.5034-1.6542 1.1327-2.1666.4045.0809-.1978-.036-.4225 0-.6563.0449 0 .0809.009.1169-.0089-.036-.027-.0809-.018-.1169-.036-.027-.1079.036-.1798.1169-.2517.1168.0809-.036.3955.2247.3056.1528.1888.935-.2067.9709-.4495.3956-1.3485-1.1866-.6023-1.789-.845.0989-.3057.054-.3417.009-.5664.3596-.1978.4675-.4675.4315-.8721.8541-.5304 1.9239.2158 2.8049.2158-.1258-.4315.0899-.4225-.3955-.6113-.3776.0719-.7822.0719-1.1867.0719.0899-.0449.2966-.4225.4765-.4135.2517-.2248 1.9238-.072 2.2564-.063.1619-.0989.3147-.1977.5125-.2157.1258-.1349.2877.0359.4495 0zm-5.3401 1.0338c0 .2518-.2967.7552-.5664.4675h.009c-.009-.0899-.0449-.1888-.0449-.3146.0719-.1619.4585-.2518.6023-.1529zm.9709 1.7621c-.1168.0359-.0989-.0899-.1708-.1349-.0629.1079.018.2787-.0719.3956-.1169-.0629-.1708-.2158-.2337-.3236-.1259.0539-.072.2067-.1349.3236-.1079-.045-.2517-.3147-.2517-.4225l.899-.036c.009.0629 0 .1438-.036.1978zm.5574.3686c-.1169.2427-.3236.5304-.6473.5304 0-.3686.2607-.5304.6473-.5304z" fill="#fff500"/></g></g></svg>