<svg height="533.33331" width="800" xmlns="http://www.w3.org/2000/svg" xmlns:xlink="http://www.w3.org/1999/xlink"><clipPath id="a"><path d="m319.2082 557.57697c6.42296-45.16572 13.92267-90.58479-24.24366-125.25891-46.76228 9.46954-280.784453 4.41528-269.710726 120.20815z"/></clipPath><clipPath id="b"><path d="m319.2082 557.57697c6.42296-45.16572 13.92267-90.58479-24.24366-125.25891-46.76228 9.46954-280.784453 4.41528-269.710726 120.20815z"/></clipPath><clipPath id="c"><path d="m287.89347 460.60232c6.42296-45.16572-7.29053-85.53403-52.52793-110.10662-46.76228 9.46954-143.403704 36.74017-129.29952 130.30968z"/></clipPath><clipPath id="d"><path d="m297.32204 187.63119c6.42296-45.16572-7.29053-85.53403-52.52793-110.106616-46.76228 9.46954-143.4037 36.740166-129.29952 130.309676z"/></clipPath><clipPath id="e"><path d="m187.88838 392.92211c-37.83281-61.95008-199.782296-62.49362-219.203109-4.04061-1.176083 97.79913 1.502606 193.5791 111.11678 233.34524z"/></clipPath><clipPath id="f"><path d="m187.88838 392.92211c-37.83281-61.95008-199.782296-62.49362-219.203109-4.04061-1.176083 97.79913 1.502606 193.5791 111.11678 233.34524z"/></clipPath><clipPath id="g"><path d="m28.284271 362.61753c-8.557464-64.84676 102.257949-74.9428 127.279219-76.77159 51.70115-4.54867 89.6097 7.09397 79.80205 74.75129-62.58429 80.13458-137.275865 10.94608-207.081269 2.0203z"/></clipPath><clipPath id="h"><path d="m28.284271 362.61753c-8.557464-64.84676 102.257949-74.9428 127.279219-76.77159 51.70115-4.54867 89.6097 7.09397 79.80205 74.75129-62.58429 80.13458-137.275865 10.94608-207.081269 2.0203z"/></clipPath><clipPath id="i"><path d="m94.954339 310.0896c-35.920694-44.81665-74.602273-37.17647-113.137085-32.32488-9.149651 65.29487-3.535106 116.44071 51.51778 120.20815z"/></clipPath><clipPath id="j"><path d="m94.954339 310.0896c-35.920694-44.81665-74.602273-37.17647-113.137085-32.32488-9.149651 65.29487-3.535106 116.44071 51.51778 120.20815z"/></clipPath><clipPath id="k"><path d="m-17.172593 148.46519c35.725295-49.377524 104.046061-10.7631 112.126932 20.20305 16.028231 31.30497 11.100481 98.18041 47.477171 137.38075l-178.797002 40.4061z"/></clipPath><clipPath id="l"><path d="m-17.172593 148.46519c35.725295-49.377524 104.046061-10.7631 112.126932 20.20305 16.028231 31.30497 11.100481 98.18041 47.477171 137.38075l-178.797002 40.4061z"/></clipPath><clipPath id="m"><path d="m193.78791.60200452c.18601-17.04678452-11.70701-48.80052052-23.46037-49.17294052-54.87524 2.954754-84.355186-83.577314-88.298174-101.867084-.358074-12.88035-3.641872-23.62013-12.6744-30.1539 1.7739-17.76437 21.744867-30.94558 32.216464-29.76018 5.07339 9.9266 15.18357 14.81642 27.85714 17.14285 17.47017 6.69749 98.46671 49.08176 87.14286 102.85715-1.43196 11.67175 28.12582 28.28745 45 30.71428-34.29941 10.325854-56.33847 30.868665-67.78352 60.23982452z"/></clipPath><clipPath id="n"><path d="m184.35934 273.57313c.18601-17.04678-11.70701-48.80052-23.46037-49.17294-54.87524 2.95476-84.35519-83.57731-88.298178-101.86708-.358074-12.88035-3.641872-23.62013-12.6744-30.1539 1.7739-17.76437 21.744867-30.94558 32.216464-29.76018 5.07339 9.9266 15.183574 14.81642 27.857144 17.14285 17.47017 6.69749 98.46671 49.08176 87.14286 102.85715-1.43196 11.67175 28.12582 28.28745 45 30.71428-34.29941 10.32585-56.33847 30.86867-67.78352 60.23982z"/></clipPath><g transform="translate(-9.428574 272.97113)"><path d="m-24.857139-311.066387h880v620h-880z" fill="#da251d"/><path d="m264.28572 220.83332c10.45299 13.82831-32.76124 70.68733-73.57144 62.49999-16.53342-47.57226 17.90809-86.04405 73.57144-62.49999z" fill="#fff" stroke="#000" stroke-linejoin="round" stroke-width="4" transform="translate(9.428574 -272.97113)"/><path clip-path="url(#l)" d="m-20.714285 108.33331h160.71428v203.57143h-160.71428z" fill="#ffd400" transform="translate(9.428574 -272.97113)"/><path clip-path="url(#n)" d="m35.714287 53.333313h225v237.85715h-225z" fill="#fff" transform="translate(9.428574 -272.97113)"/><path clip-path="url(#k)" d="m110.71429 207.97617c-12.52353-14.9999-57.65001-98.90456-116.4285757-60.71429-9.2161583-46.74833 37.9431777-30.2461 63.9285717-37.5 29.04876 28.50807 55.304874 60.33751 52.500004 98.21429z" fill="#f19e29" transform="translate(9.428574 -272.97113)"/><path d="m-7.744019-124.50594c35.725295-49.37752 104.046061-10.7631 112.126929 20.20305 16.02823 31.30497 11.10048 98.18041 47.47717 137.38075l-178.796998 40.4061z" fill="none" stroke="#000" stroke-linejoin="round" stroke-width="4"/><path clip-path="url(#m)" d="m192.28571 6.07647c12.60101-22.61905-.4899-57.73809-10-67.85714-9.22853-10.09983-37.95672-6.69809-50-21.42858-24.56956-25.41844-37.025355-67.63664-47.499993-88.21428-1.473725-6.66257-5.77791-13.16657-13.214286-16.78572l-7.857143 40.71429c19.377862 76.05089 78.794852 109.7074 128.571422 153.57143z" fill="#ccc"/><path clip-path="url(#j)" d="m-22.223356 260.59213h105.05586v114.14724h-105.05586z" fill="#ffd400" transform="translate(9.428574 -272.97113)"/><path clip-path="url(#i)" d="m81.822356 318.17082c-18.326209-30.06388-75.4363629-33.98762-87.8832713-27.77919-12.0298627-25.86478 20.8611303-27.5414 41.4162543-35.86042 76.093271 12.41581 48.733009 39.84907 46.467017 63.63961z" fill="#f19e29" transform="translate(9.428574 -272.97113)"/><path d="m104.38291 37.11847c-35.92069-44.81665-74.60227-37.17647-113.137082-32.32488-9.149651 65.29487-3.535106 116.44071 51.517782 120.20815z" fill="none" stroke="#000" stroke-linejoin="round" stroke-width="4"/><path clip-path="url(#h)" d="m15.714286 255.47617h230.71428v136.42857h-230.71428z" fill="#ffd400" transform="translate(9.428574 -272.97113)"/><path clip-path="url(#g)" d="m237.5 303.33331c-43.90184-10.6817-208.770321-14.23781-196.785714 75-46.5489098-24.27368-16.780793-56.17906-10.714286-85.71428 72.6486-7.94579 154.07436-39.0088 207.5 10.71428z" fill="#f19e29" transform="translate(9.428574 -272.97113)"/><path d="m37.71285 89.6464c-8.55747-64.84676 102.25794-74.9428 127.27921-76.77159 51.70115-4.54867 89.6097 7.09397 79.80205 74.75129-62.58429 80.13458-137.27586 10.94608-207.08126 2.0203z" fill="none" stroke="#000" stroke-linejoin="round" stroke-width="4"/><path clip-path="url(#f)" d="m-37.375645 313.12006h206.07112v239.40616h-206.07112z" fill="#ffd400" transform="translate(9.428574 -272.97113)"/><path clip-path="url(#e)" d="m170.71578 388.8815c-38.75921-42.23658-154.854177-42.21941-196.979746 10.10152-3.571915-80.07197 67.258877-64.71438 122.228458-69.70052 60.661058 5.9659 86.816888 25.35051 74.751288 59.599z" fill="#f19e29" transform="translate(9.428574 -272.97113)"/><path d="m197.31695 119.95098c-37.83281-61.95008-199.782292-62.49362-219.203105-4.04061-1.176083 97.79913 1.502606 193.5791 111.11678 233.34524z" fill="none" stroke="#000" stroke-linejoin="round" stroke-width="4"/><path clip-path="url(#d)" d="m101.35246 60.35199h212.13203v156.57364h-212.13203z" fill="#ffd400"/><path clip-path="url(#c)" d="m247.99245 352.51601c-78.26036 23.174-143.63585 52.92515-128.79445 112.12693l-55.55839-1.01015c32.450402-77.63969 108.8266-145.80611 184.35284-111.11678z" fill="#f19e29" transform="translate(9.428574 -272.97113)"/><path d="m297.32204 187.63119c6.42296-45.16572-7.29053-85.53403-52.52793-110.106616-46.76228 9.46954-143.4037 36.740166-129.29952 130.309676z" fill="none" stroke="#000" stroke-linejoin="round" stroke-width="4"/><path clip-path="url(#b)" d="m15.714286 409.04761h325v143.57143h-325z" fill="#ffd400" transform="translate(9.428574 -272.97113)"/><path d="m158.57143 222.61903c10.98475-18.53906 23.71136-35.33626 47.85714-40.71429" fill="none" stroke="#000" stroke-linejoin="round" stroke-width="4" transform="translate(9.428574 -272.97113)"/><path d="m59.285714 92.261884c-8.758385 7.351471-30.389431-4.240308-22.857143-19.642857 11.150226-19.41173 26.114901-30.104717 43.928572-34.285715 12.654769-3.314042 26.975467 17.308978 12.142857 24.285715" fill="#fff" stroke="#000" stroke-linejoin="round" stroke-width="4" transform="translate(9.428574 -272.97113)"/><path d="m40.357143 89.047598c10.461495-22.633743 29.553015-36.637461 54.285714-45" fill="none" stroke="#000" stroke-linejoin="round" stroke-width="4" transform="translate(9.428574 -272.97113)"/><path d="m238.396 232.30785c48.44537 34.38536 142.29269 78.37864 139.40105 162.63456 24.29388 33.33504 44.67806 66.67007 55.55839 100.00511 5.99538 20.20305 27.66328 40.4061 46.46702 60.60915l-152.53304-9.09137c41.69412-75.04224-49.58527-197.6477-66.67006-213.14219-21.6826-20.27441-40.51991-46.23941-59.599-71.72083z" fill="#fff" stroke="#000" stroke-linejoin="round" stroke-width="4" transform="translate(9.428574 -272.97113)"/><path clip-path="url(#a)" d="m50.002551 559.59728c-32.367844-113.05786 227.533979-117.12498 264.659969-111.62186l-12.62691-30.30457c-107.41843 27.66523-272.11027-7.08287-284.863017 123.74368z" fill="#f19e29" transform="translate(9.428574 -272.97113)"/><g stroke-linejoin="round"><path d="m328.63677 284.60584c6.42296-45.16572 13.92267-90.58479-24.24366-125.25891-46.76228 9.46954-280.784449 4.41528-269.710722 120.20815z" fill="none" stroke="#000" stroke-width="4"/><path d="m401.42857 534.0476c-26.6952-14.39731-43.71481-37.08799-57.14286-62.85714" fill="none" stroke="#000" stroke-width="4" transform="translate(9.428574 -272.97113)"/><path d="m337.14286 454.76188c-3.81772-59.42365-46.41886-95.57725-76.42857-139.28571" fill="none" stroke="#000" stroke-width="4" transform="translate(9.428574 -272.97113)"/><path d="m218.57143 256.90474c19.55389 27.202 41.68342 51.31323 70.71428 67.14286 26.27328 12.56041 56.56202 37.95218 80 65" fill="none" stroke="#000" stroke-width="4" transform="translate(9.428574 -272.97113)"/><path d="m289.28571 334.0476c47.94829 35 75.81725 70 91.42858 105 14.57042 35.21479 36.15782 66.92108 62.14285 96.42857" fill="none" stroke="#000" stroke-width="4" transform="translate(9.428574 -272.97113)"/><path d="m257.14286 280.47617c40.16491 27.82656 84.61886 52.79377 108.57143 91.42857" fill="none" stroke="#000" stroke-width="4" transform="translate(9.428574 -272.97113)"/><path d="m357.85714 346.90474c-25.2164-43.69346-84.07002-65.98141-127.85714-97.85714" fill="none" stroke="#000" stroke-width="4" transform="translate(9.428574 -272.97113)"/><path d="m193.78791.60200452c.18601-17.04678452-11.70701-48.80052052-23.46037-49.17294052-54.87524 2.954754-84.35519-83.577314-88.29817-101.867084-.35808-12.88035-3.64188-23.62013-12.6744-30.1539 1.7739-17.76437 21.74486-30.94558 32.21646-29.76018 5.07339 9.9266 15.18357 14.81642 27.85714 17.14285 17.47017 6.69749 98.46671 49.08176 87.14286 102.85715-1.43196 11.67175 28.12582 28.28745 45 30.71428-34.29941 10.325854-56.33847 30.868665-67.78352 60.23982452z" fill="none" stroke="#000" stroke-width="4"/><path d="m251.07143 213.69045c7.62468-1.69784 17.0896 6.23355 10.35714 8.57143-28.98079 12.39662-53.99683 27.02143-67.85714 56.42858-3.5717 7.14326-10.79898.66276-9.64286-5 14.83733-34.27852 32.6316-47.27292 67.14286-60.00001z" fill="#fff" stroke="#000" stroke-width="4" transform="translate(9.428574 -272.97113)"/><path d="m192.05357 280.56546 4.91072-7.94643" fill="none" stroke="#fff" stroke-width="4.9" transform="translate(9.428574 -272.97113)"/><path d="m264.78571-47.941384 7.23215-3.482145" fill="none" stroke="#fff" stroke-width="4.9"/></g></g></svg>