<svg height="400" width="600" xmlns="http://www.w3.org/2000/svg" xmlns:xlink="http://www.w3.org/1999/xlink"><path d="m0 0h600v400h-600z" fill="#fff"/><path d="m215.14467 76.039913v188.019997s6.71416 36.90567 84.85533 59.90018c79.60885-22.74989 84.85532-59.90018 84.85532-59.90018v-188.019997z" fill="#fc0" fill-rule="evenodd" stroke="#000" stroke-width="3"/><path d="m233.4468 113.97808v148.2616s19.69395 31.99714 66.5532 43.41758c48.01035-12.55481 66.55319-43.41758 66.55319-43.41758v-148.2616z" fill="#fc0" fill-rule="evenodd" stroke="#000" stroke-width="2"/><path d="m246.7512 178.83984v65.24621h53.24884l53.94137-27.38245-.48663-37.86376z" fill="#00aad4" fill-rule="evenodd"/><path d="m246.92257 163.09444 106.53221 1.37101-.20589-25.1926h-20.88777c-2.49139 3.00455-8.05039 7.107-17.38776 5.85831-3.01588-.40332-15.6172-6.0168-15.87171-5.85831-7.83034 4.87639-18.04932 6.36378-20.02681 6.64441-1.25676.17834-4.33131-2.05725-12.1471-6.64441h-20.17654z" fill="#80e5ff" fill-rule="evenodd"/><path d="m285.92464 179.00427-.16017-18.28101h-35.0214l.13628 19.44708z" fill="#d7eef4" fill-rule="evenodd"/><path d="m246.79848 240.76541c9.75274 1.69176 17.61799-5.034 27.37646-3.75573 28.68725 10.48776 57.86961-30.12267 79.75995-17.95929v36.69006c-13.171 9.33495-26.87014 17.9537-40.83543 26.05788-3.97774 1.97025-7.82089 4.93959-12.318 5.33475-10.62352-3.19788-20.55562-5.91744-30.41074-10.94728-8.48984-4.73068-17.40256-11.74045-24.10195-18.93647-1.50394-1.5514.22541-12.93089.52971-16.48392z" fill="#008400" fill-rule="evenodd" stroke="#000" stroke-width=".5"/><path d="m247.60987 177.53744c4.07585-.77051 9.47168 2.36953 12.4582-.94289 4.60304-2.6485 10.2173-.008 12.27989 4.56715 2.55828 2.78525 15.80005 7.45479 19.70472 6.83658 3.1152.18023 4.4862 3.72044 7.48505 3.8544.53635 1.98187-5.05971.056-6.7562.6598-4.17516 0-8.35031 0-12.52546 0 2.80981.0462 6.21928 2.34836 1.37489 3.17423-9.82194.45321-19.68801-.14642-29.50498.30712-2.04411.51235-2.81877.39708-5.0245.15796" fill="#d7eef4" fill-rule="evenodd" stroke="#000" stroke-width=".5"/><path d="m246.79848 178.85613c-.88139-3.31725.19006-21.92803.0325-24.84264 3.08805 1.95394 8.30467 7.27596 10.81857 11.87669 1.34228 2.45654 14.47926 12.05674 6.49115 10.70437-5.12416-.86752-4.15962 4.27068-12.39181 4.27068-8.90345 0-4.06904 1.30814-4.95044-2.0091z" fill="#0062ad" fill-rule="evenodd" stroke="#000" stroke-width=".5"/><path d="m332.69533 146.39744c-3.06341 3.4077-5.61187 6.36178-7.88627 10.18996-2.60411-1.06195-7.34082-9.44077-7.94953-6.81977-2.33557 4.72769-8.83486 10.79927-13.70533 12.68638-1.86317-2.64017-3.34442-6.3247-4.9945-7.55356-3.18919 2.41072-6.36826 4.22746-8.67416 7.75783-1.33757 3.49934-.79149-4.72665-4.58677-7.51722-1.81014 2.03858-4.02517 2.93662-5.90373 4.70072-2.90049-.91517-5.09523-3.69201-8.28702-4.36286-1.67898 1.89396-8.84128 2.58217-8.72288 6.12625.65869 4.43244 7.10354 4.4023 7.82113 8.86279-.098 3.72885 3.83538 5.32287 6.87588 6.00702 3.17541.98872 4.9199 3.26886 8.32258 3.11252l68.17015.68748c.33593-8.43344-.28688-16.88052.25085-25.30895 2.95683-4.55179-5.62753-4.30532-6.89742-8.17233-6.96076 5.46192-4.97896 3.81807-8.04904 6.66032-1.85027-2.60717-4.85697-6.23575-5.78394-7.05658z" fill="#0062ad" fill-rule="evenodd" stroke="#000" stroke-width=".5"/><path d="m353.24255 155.90682c-4.0764.56478-5.60641 4.67991-6.97554 7.97224-1.57708 4.91844-8.00678 2.15423-10.19046 6.30735-1.99051 3.56607-4.99194 6.01685-9.05751 6.55862-4.86964 2.61285-8.52799 7.02437-13.66517 9.20585-2.47564.90599-3.21427 2.96244.11919 2.31673 4.2889-.54435 7.37018 2.94576 11.32449 3.37185 7.23935.34156 14.58105-1.92641 21.74005-.20198 2.03689 1.72619 4.17115 1.25555 6.70495 1.075" fill="#214478" fill-rule="evenodd" stroke="#000" stroke-width=".5"/><path d="m258.76764 230.73667c.43724.56738 2.88783 3.44576-1.16519 5.82434-.38282 2.78784.56414 4.66928-.0701 7.10972-.26628 1.02462-.98583 2.54883-.36098 3.71446 1.73907.37582 4.41247-4.18901 3.6196-2.9975-.0996.14976-1.41936-5.20179-1.17062-5.75948.76878-1.22698 3.84441-.0199 3.1332 1.76302-.94158 2.36038-.15686 3.18967.13619 3.81849 1.66824 3.57959 2.22578 2.96437 1.31184-.98366.62935-.26947 1.88743-1.09631 1.31765-1.82698-5.49903-7.05186.49601-3.53331.47157-6.673 1.23973-1.05615 1.00989-2.98793 1.72155-3.92532 7.49575 1.31573 11.52072-2.43798 11.38561-2.4474 6.83452 7.38187 3.57246 2.68726 10.62488 11.84776 1.59632 1.23552 2.51553.66562 2.15411-.31814-1.79991-2.98608-5.75628-6.75635-5.3849-8.95288 1.45045.95563 3.2834 2.21213 4.87956 2.57414 1.21085.27463 1.87078 1.58209 2.52892 2.39898.37668.46754.67507-.62964 1.16531-.43861 1.68227.65554 2.96369.98906 3.51459-.30412-1.36391-.83776-4.66842-3.09439-6.34698-3.94521-1.58212-1.16463-7.07248-4.5398-7.96415-7.45584-.0455-1.05091-.16114-1.85576.37913-2.79813.52078-.90835 1.67251-1.96063 2.95335-2.63631 2.99084-.53857.2066 1.3438 5.12725.42642 1.51492-.21469 2.08499-.58056 1.26687-2.07068-1.06952-1.43479-3.44278-3.3813-4.42047-4.91256-1.79015-1.17249.42084-1.70038-2.75321.4682-.23511-.53671-2.53803-1.96396-2.27045-.82014.0644.27548-.4685 1.22765-.69605.73875-.33767-.7255-1.57048-1.93846-1.61551-1.22424-.0433.68704-.95723 2.35817-.88394 1.68362.1817-1.67232-1.49882 1.35057-3.21949.6035-.18705-.0812-.0711.42458-.1185.65929-.3989 1.97552-1.40069 4.76497-4.11332 2.18608.43871 2.82025-2.46761 1.08418-4.12227 2.08688l-1.85588-1.15458c-.16815-.61938-2.5525 1.91009-4.03816 3.8009-.33717.42912.087 1.08582.57908 1.58695-3.82761 2.05842-4.66748 3.38654-5.10918 4.17492-3.73477 1.5778-3.86212 1.47216-5.96723 4.75401-1.21578 2.24481-2.38225 6.07478-4.58191 6.93294 5.21302.16444 8.90783-4.90061 9.9582-7.50859z" fill="#a40" fill-rule="evenodd" stroke="#000" stroke-width=".5"/><path d="m340.75963 199.29123c-.0678-.007-.32207.39432-1.9091 1.47861-.23512-.53671-2.41999-.95665-2.15241.18717.0644.27549-.46497 1.21885-.69252.72995-.33766-.7255-1.13412-1.48161-1.17915-.76739-.0433.68704-1.40217 1.90985-1.32888 1.2353.1817-1.67232-1.4986 1.346-3.21926.59894-.18706-.0812-.0649.42037-.1123.65508-9.11819 4.58112-10.07034-1.90545-15.79685 5.03477-2.55694 2.20723-2.16826 2.22563-5.76472 6.10163-1.60238 2.54709-.0249 2.49306-3.18183 5.29681-1.21577 2.2448-.38324 7.3023-2.5829 8.16046 5.21302.16444 6.9042-8.67815 7.95457-11.28614 1.84458 1.73319 2.72471 5.08806 5.54013 5.20323 1.09431.0447-.0131 2.01809-.0936 2.56418 9.64435 3.32464 3.99005 5.06564 5.82087 4.58557 1.64899-.43238 3.35057-2.06407 4.94119-.56149.31974.30204 1.35104 3.35923 3.0321 1.02941.55241-.76561-.54393-2.08322-.93583-3.59359-.18357-.70757 1.32651.61171 2.3583.3369.96281-.25646 1.7974-.161 3.79947-4.13638.93909-1.86467.0691-5.24295.14974-9.84496-.0455-1.0509.0863-1.76545.39305-2.80749.32504-1.10411 1.15244-3.34827 3.83691-2.62033 3.06759-.62813.36469-.74436 3.78076.0936 1.51494-.21469 3.43845-.25052 2.62033-1.74065-1.06951-1.43479-3.45815-3.39121-4.43584-4.92247-.89508-.58625-.77448-1.00324-.84225-1.0107zm-13.1578 18.60434c1.18824 1.01865.49906 4.82948-1.66578 6.56954-.55562.16605-1.40055.39156-1.38504-.0187.0345-.91212.26867-2.73301-2.07754-2.39573-1.37014.19697.008-2.88437-.3369-3.81819 1.56764-.32175 3.72432-.0695 5.46526-.3369zm4.90376 2.45188c.90305 2.13812-1.09457 5.28728-2.22728 2.67648.85557-.64168 1.07056-2.51123 2.22728-2.67648zm-13.70058.4492c.92002.69764 2.2587 1.11464 1.44118 2.22728.0751.37564-1.03719 1.72835-1.32888.5615-.61869-1.11654-.21069-1.55001-.1123-2.78878z" fill="#a40" fill-rule="evenodd" stroke="#000" stroke-width=".5"/><path d="m310.00639 207.55567c-.0571-1.28895 6.69315-7.95009 9.56737-8.72352 1.63982-4.01115 1.02671-3.18312 4.18916-5.04219 5.16072 5.40701 2.16651 3.04984 3.02751 5.24422 1.67058 0 5.97336 5.29408 6.18153 5.79978-2.73498 2.63697-4.69357 8.14586-6.53796 10.08155-.91949-3.36261-7.45377-6.03535-12.21684-6.03535-4.53683 0-4.76538-.21522-4.21077-1.32449z" fill="#a40" fill-rule="evenodd" stroke="#000" stroke-width=".5"/><path d="m253.89215 160.89849h7.83976" fill="none" stroke="#000" stroke-width=".5"/><path d="m271.75852 179.4525c3.36121 0 17.41049 0 12.4576 0" fill="none" stroke="#000" stroke-width=".5"/><path d="m273.75378 164.75083c2.84062 1.03902 1.85333-2.16372 3.25237-2.16372.6044 0 1.49891-2.27332 1.73912-2.82796" fill="none" stroke="#000" stroke-width=".5"/><path d="m278.93985 171.12157c.024 0 3.10439-4.47295 6.19991-4.47295.55461 0 3.78307-3.29189 3.78307-3.84652" fill="none" stroke="#000" stroke-width=".5"/><path d="m286.88394 175.82842c1.7321 0 14.77015-11.44293 16.6383-13.31116" fill="none" stroke="#000" stroke-width=".5"/><path d="m258.02566 179.14912v.1455c0 5.2916 11.68993 12.99566 15.71427 13.53227 3.29079.43879 3.81757 1.16405 5.96561 1.16405" fill="none" stroke="#000" stroke-width=".5"/><path d="m320.56706 164.61683c.19401 0 .19401 0 0 0-1.97964 0 2.54962-1.32287 3.78307-7.85743" fill="none" stroke="#000" stroke-width=".5"/><path d="m304.29549 173.40913c1.03011-2.40369 16.49029-7.1299 22.8439-7.1299" fill="none" stroke="#000" stroke-width=".5"/><path d="m317.96037 171.96641c2.31149 0 8.70591-5.60692 9.60316-5.96584 1.63313-.65327 10.50817-12.373 10.7672-12.80471" fill="none" stroke="#000" stroke-width=".5"/><path d="m350.81544 259.03161c.95148-.30621-4.2712-2.04859-5.28727-2.24026-2.43687-1.83005-4.29179-3.06032-6.71245-4.83078 1.07033-1.77361-.88386-2.5558-1.12245-4.24267-.45119-2.76662-3.90619-5.0398-4.18767-6.31268-.15373-3.23191-3.1014-.36748-3.54079 1.52743.24732 2.68063.79155 4.33659-.9559 7.04922-2.70142.70108-4.2247 4.98604-2.37788 7.13053-1.67162 1.39276-2.98168 3.15562-3.99171 6.08014-2.84161.88831-4.02342 3.45592-3.88133 6.41551-1.60557.85959-3.24813-1.87929-7.56177 2.30117-1.45869 1.48717-2.26262 2.5468-4.06675 6.07302.17071 2.93164-3.76547 3.84443-5.12548 1.34094-.82827-3.58995-1.70104-4.43421-2.22077-5.41236-2.01442-1.90481.15051-2.81074-1.44675-4.9614-.42651-2.1923-4.83174-5.42123-3.66264-7.91698-.40004-3.6355-3.23815-3.2483-6.29197-2.01059 2.10342 3.48647-2.65754 1.91858-4.29692 3.87202-2.20839.27456-2.86903 2.51626-4.59243 3.05114-3.02242-.52597-5.39614.56925-6.83637 3.22955 1.88783.14406-4.76565.34485-7.47998 3.67416-11.32761-4.38614 27.82445 16.65703 35.50921 20.81371 0 0 44.77536-19.50235 50.13007-34.63082z" fill="#050" fill-rule="evenodd" stroke="#000" stroke-width=".5"/><path d="m245.71754 138.22794v119.43639c14.65067 16.88793 35.42798 26.2567 54.8024 36.50168 18.76025-7.30816 37.52158-17.14149 50.37095-33.07123 4.71332-3.96409 3.2272-9.94336 3.39155-15.31616 0-35.85023 0-71.70045 0-107.55068h-23.41526s-10.78363 13.2437-30.86719 0c-21.13771 13.74068-32.42039 0-32.42039 0zm2.07979 2.07987h18.5805s11.17047 14.38822 33.62216 0c19.85611 13.64976 31.9872 0 31.9872 0h20.21546v115.17266c-9.91359 15.48949-26.53692 25.03323-42.77885 32.69203-5.32698 3.30229-10.7288 4.40911-15.77771.0363-16.44177-8.49031-33.36458-17.31274-45.84876-31.32442 0-38.85886 0-77.71771 0-116.57657z" fill-rule="evenodd"/><path d="m279.29315 270.56012c1.35413 1.64959-1.63766 1.57976.47393 1.57976h.63191c.21534 0 .87664.51731 1.10583.6319" fill="none" stroke="#000" stroke-width=".5"/><path d="m288.61376 271.03405c.5192 0-.68221 2.55277-1.57977 3.00155" fill="none" stroke="#000" stroke-width=".5"/><path d="m294.77484 277.51108c-.0164.008-.10639 2.30084-.63191 3.00155-.15684.20911-1.03995.15797-1.42179.15797" fill="none" stroke="#000" stroke-width=".5"/><path d="m290.82543 280.35465c-.0294.0392-1.01985 0-1.57976 0" fill="none" stroke="#000" stroke-width=".5"/><path d="m302.9896 280.51263c-.93939 1.25252 3.53926 1.95657 3.15954 3.47548-.37672 1.50683 1.95429.73129.47392 2.21166-.0745.0745-.21063 0-.31595 0" fill="none" stroke="#000" stroke-width=".5"/><path d="m306.46509 284.30406c-.78283.78283-3.42371 1.21469-3.79143 2.6856-.24366.97459-1.63788 1.538-2.0537 2.36964-.25034.50068-2.60574 1.65788-3.00155 2.0537" fill="none" stroke="#000" stroke-width=".5"/><path d="m294.77484 286.83168c-.23668.47335.31536-1.34309-.15798-1.57977-1.5927-.79634-3.3011-1.09353-4.58132-2.05369" fill="none" stroke="#000" stroke-width=".5"/><path d="m297.77639 280.82858c-.66107-.33054.15797-1.47257.15797-2.21167 0-.37236.10532-.73722.15798-1.10583" fill="none" stroke="#000" stroke-width=".5"/><path d="m296.03864 272.45583c0-.69302-1.10934-1.74652-1.42178-2.52762" fill="none" stroke="#000" stroke-width=".5"/><path d="m337.58643 260.13368c0-.0855.0718 2.25474-2.05369 3.3175-.31596.15798-.31596.63191-.47393.94785" fill="none" stroke="#000" stroke-width=".5"/><path d="m324.79034 270.87607c-.57639.2882-2.36177 2.30649-3.00155 3.15953-.33586.44781-.73722.84253-1.10583 1.2638" fill="none" stroke="#000" stroke-width=".5"/><path d="m317.20748 280.19667c-.50946.67928.4435-2.14789-.31596-2.52762" fill="none" stroke="#000" stroke-width=".5"/><path d="m315.62772 275.77333c-.0312.0416-2.2236-1.50673-3.94941-2.36964" fill="none" stroke="#000" stroke-width=".5"/><path d="m333.32106 250.33914c-.45237.60317-.29106 1.48022-.47393 2.21167" fill="none" stroke="#000" stroke-width=".5"/><path d="m329.52964 258.55391c-.3056 1.22236-.15147.94135-1.10584 1.89572-.68514.68514-.94786.83483-.94786 1.73774" fill="none" stroke="#000" stroke-width=".5"/><path d="m343.58953 259.65975c-1.04945 1.04945-.70349 3.36029-1.73774 4.73928" fill="none" stroke="#000" stroke-width=".5"/><path d="m329.52964 277.19512c-.71139.71138.55995-2.02554.31594-3.00155-.18896-.75588-.50808-1.12721-.31594-1.89572" fill="none" stroke="#000" stroke-width=".5"/><path d="m329.52964 274.50953c-.24098-.9639 1.70092-1.02864 2.52762-1.57977.6335-.42233 1.11366-.95569 1.42178-1.26381" fill="none" stroke="#000" stroke-width=".5"/><path d="m313.25807 286.83168c.873-.582-2.25964-.20595-3.00155-.94786-.30522-.30521-.31596-.99444-.31596-1.26381" fill="none" stroke="#000" stroke-width=".5"/><path d="m290.66403 249.15402c2.36362-.90039 3.71019-2.36745 4.98064-3.26489 2.37011-1.91047 4.19633-2.1819 8.03971-2.75796 1.42304-.21329 2.81945-1.19182 4.42634-2.43676 1.15178-.30247 1.25305-.733 2.18772-2.11042.63339.54968 1.47624.56432 1.96146.0692.34376.96801.22446 1.13505 3.84603 3.1461-.12898 1.05781-2.1264.87864-3.69901.7123-1.15136-.0623-1.24438.3695-.17857 1.45527.60986-.20267 1.76897-.0889 6.66815.34163.27918 1.28782-.0568 1.99381-.91389 1.62275-1.4685-.37005-5.46007-.53847-6.55263-.72212 1.7057.36037 3.59233 2.55492 5.55322 2.46977 1.36358.79662.59283-1.00421 1.39697.39889.34195 1.26713-2.02259.0746-2.08314.44245-1.17842-.29414-4.30014-.98394-6.02423-1.08306-2.37603.81603-8.46699.79335-8.18869.51744-2.24839 1.9984-3.66119 3.92042-5.18893 4.5667-2.41286 1.02072-2.26328 2.73915-2.72305 2.90281-2.8281 1.00671-.001-2.87913-1.21301-2.17085-.15925-1.43523-2.83674.0461-1.25626-.73438-1.52928-1.20011 4.64097-1.17848 4.36227-4.59427-2.64135.72079-2.61229 1.44079-5.4011 1.22943zm2.39492 4.08105c.7483-.80284 1.26469-1.12379 1.94999-1.99396.35734-.45083 1.04748-1.56805.90061-2.12789" fill="#a40" fill-rule="evenodd" stroke="#000" stroke-width=".5"/><path d="m324.02958 193.88348c-.75833-.18946 1.86653-1.78542 1.23355-2.7064-.43858-.44101-1.81854-1.40023-1.39372-1.59348 1.18593-.41 3.46789.0805 4.8581-.53766 1.29754-.22147 1.8835.84128 1.76914 1.98797.50969 1.12412.67293 2.64213 1.72757 3.36617-.70343.97707-2.63186.2598-2.69559.80664-.0583.50066-.24064.83431-.6426.86583-1.08344.085-1.69836 1.21667-2.02825 1.07586-1.25114-.69736-2.11029-2.05257-2.8282-3.26493z" fill="#a40" fill-rule="evenodd" stroke="#000" stroke-width=".5"/><path id="a" d="m237.8348 143.56412-.6049 1.03269 2.19057 2.19065h1.46037l.36509.36511-.36509.3651h-.73021l1.46041 1.46044h1.46037l.36507.3651-.36507.36512h-1.46037l1.46037 1.46043v.73022h-.7302l-1.46037-1.46044v1.46044l-.3651.3651-.36511-.3651v-1.46044l-1.46036-1.46043v.73022l-.36507.3651-.36512-.3651v-1.46044l-2.19055-2.19065-1.03267.60493v3.09805l1.03267 1.03268v.51635h-.51632l-.51635-.51635v2.06537l1.03267 1.03268v.51634h-.51632l-1.03265-1.03268v2.06536l-.51633.51634-.51631-.51634v-2.06536l-1.03266 1.03268h-.51632v-.51634l1.03264-1.03268v-2.06537l-.51632.51635h-.51632v-.51635l1.03264-1.03268v-3.09805l-1.03264-.60493-2.19056 2.19065v1.46044l-.36511.3651-.36509-.3651v-.73022l-1.46035 1.46043v1.46044l-.36511.3651-.36512-.3651v-1.46044l-1.46034 1.46044h-.73021v-.73022l1.46039-1.46043h-1.46039l-.36509-.36512.36509-.3651h1.46039l1.46039-1.46044h-.73023l-.36507-.3651.36507-.36511h1.46041l2.19057-2.19065-.60491-1.03269h-3.09794l-1.03263 1.03269h-.51633v-.51634l.51633-.51635h-2.06528l-1.03267 1.03269h-.51631v-.51634l1.03265-1.03269h-2.06528l-.51633-.51634.51633-.51634h2.06528l-1.03265-1.03268v-.51634h.51631l1.03267 1.03268h2.06528l-.51633-.51634v-.51634h.51633l1.03263 1.03268h3.09794l.60491-1.03268-2.19057-2.19065h-1.46041l-.36507-.36511.36507-.36511h.73023l-1.46039-1.46043h-1.46039l-.36509-.36511.36509-.36511h1.46039l-1.46039-1.46042v-.73022h.73021l1.46034 1.46043v-1.46043l.36512-.36511.36511.36511v1.46043l1.46035 1.46043v-.73022l.36509-.3651.36511.3651v1.46044l2.19056 2.19065 1.03264-.60493v-3.09805l-1.03264-1.03267v-.51635h.51632l.51632.51635v-2.06538l-1.03264-1.03268v-.51634h.51632l1.03266 1.03268v-2.06537l.51631-.51634.51633.51634v2.06537l1.03265-1.03268h.51632v.51634l-1.03267 1.03268v2.06538l.51635-.51635h.51632v.51635l-1.03267 1.03267v3.09805l1.03267.60493 2.19055-2.19065v-1.46044l.36512-.3651.36507.3651v.73022l1.46036-1.46043v-1.46043l.36511-.36511.3651.36511v1.46043l1.46037-1.46043h.7302v.73022l-1.46037 1.46042h1.46037l.36507.36511-.36507.36511h-1.46037l-1.46041 1.46043h.73021l.36509.36511-.36509.36511h-1.46037l-2.19057 2.19065.6049 1.03268h3.09793l1.03265-1.03268h.51631v.51634l-.51631.51634h2.06529l1.03262-1.03268h.51633v.51634l-1.03263 1.03268h2.06526l.51633.51634-.51633.51634h-2.06526l1.03263 1.03269v.51634h-.51633l-1.03262-1.03269h-2.06529l.51631.51635v.51634h-.51631l-1.03265-1.03269z" fill="#fff" fill-rule="evenodd" stroke="#000" stroke-width=".3"/><use height="600" stroke="#000" stroke-width=".3" transform="translate(-.000001 28.748765)" width="900" xlink:href="#a"/><use id="b" height="600" stroke="#000" stroke-width=".3" transform="translate(-.000001 56.299662)" width="900" xlink:href="#a"/><use id="c" height="600" stroke="#000" stroke-width=".3" transform="translate(-.000001 26.353034)" width="900" xlink:href="#b"/><use id="d" height="600" stroke="#000" stroke-width=".3" transform="translate(-.000001 27.5509)" width="900" xlink:href="#c"/><use id="e" height="600" stroke="#000" stroke-width=".3" transform="translate(11.97865 22.759439)" width="900" xlink:href="#d"/><use height="600" stroke="#000" stroke-width=".3" transform="translate(22.759436 16.770113)" width="900" xlink:href="#e"/><use height="600" stroke="#000" stroke-width=".27" transform="matrix(1.1111112 0 0 1.1111112 -.872104 -38.38564)" width="900" xlink:href="#a"/><path d="m362.53669 143.56412.6049 1.03269-2.19057 2.19065h-1.46037l-.36509.36511.36509.3651h.7302l-1.46041 1.46044h-1.46036l-.36508.3651.36508.36512h1.46036l-1.46036 1.46043v.73022h.7302l1.46037-1.46044v1.46044l.36509.3651.36511-.3651v-1.46044l1.46037-1.46043v.73022l.36507.3651.36511-.3651v-1.46044l2.19056-2.19065 1.03267.60493v3.09805l-1.03267 1.03268v.51635h.51632l.51635-.51635v2.06537l-1.03267 1.03268v.51634h.51632l1.03265-1.03268v2.06536l.51633.51634.5163-.51634v-2.06536l1.03267 1.03268h.51631v-.51634l-1.03263-1.03268v-2.06537l.51632.51635h.51631v-.51635l-1.03263-1.03268v-3.09805l1.03263-.60493 2.19056 2.19065v1.46044l.36511.3651.3651-.3651v-.73022l1.46035 1.46043v1.46044l.36511.3651.36511-.3651v-1.46044l1.46034 1.46044h.73021v-.73022l-1.46038-1.46043h1.46038l.36509-.36512-.36509-.3651h-1.46038l-1.46039-1.46044h.73022l.36508-.3651-.36508-.36511h-1.4604l-2.19058-2.19065.60491-1.03269h3.09794l1.03264 1.03269h.51633v-.51634l-.51633-.51635h2.06528l1.03267 1.03269h.51631v-.51634l-1.03266-1.03269h2.06529l.51633-.51634-.51633-.51634h-2.06529l1.03266-1.03268v-.51634h-.51631l-1.03267 1.03268h-2.06528l.51633-.51634v-.51634h-.51633l-1.03264 1.03268h-3.09794l-.60491-1.03268 2.19058-2.19065h1.4604l.36508-.36511-.36508-.36511h-.73022l1.46039-1.46043h1.46038l.36509-.36511-.36509-.36511h-1.46038l1.46038-1.46042v-.73022h-.73021l-1.46034 1.46043v-1.46043l-.36511-.36511-.36511.36511v1.46043l-1.46035 1.46043v-.73022l-.3651-.3651-.36511.3651v1.46044l-2.19056 2.19065-1.03263-.60493v-3.09805l1.03263-1.03267v-.51635h-.51631l-.51632.51635v-2.06538l1.03263-1.03268v-.51634h-.51631l-1.03267 1.03268v-2.06537l-.5163-.51634-.51633.51634v2.06537l-1.03265-1.03268h-.51632v.51634l1.03267 1.03268v2.06538l-.51635-.51635h-.51632v.51635l1.03267 1.03267v3.09805l-1.03267.60493-2.19056-2.19065v-1.46044l-.36511-.3651-.36507.3651v.73022l-1.46037-1.46043v-1.46043l-.36511-.36511-.36509.36511v1.46043l-1.46037-1.46043h-.7302v.73022l1.46036 1.46042h-1.46036l-.36508.36511.36508.36511h1.46036l1.46041 1.46043h-.7302l-.36509.36511.36509.36511h1.46037l2.19057 2.19065-.6049 1.03268h-3.09794l-1.03265-1.03268h-.5163v.51634l.5163.51634h-2.06528l-1.03262-1.03268h-.51633v.51634l1.03262 1.03268h-2.06526l-.51632.51634.51632.51634h2.06526l-1.03262 1.03269v.51634h.51633l1.03262-1.03269h2.06528l-.5163.51635v.51634h.5163l1.03265-1.03269z" fill="#fff" fill-rule="evenodd" stroke="#000" stroke-width=".3"/><use height="600" stroke="#000" stroke-width=".3" transform="matrix(-1 0 0 1 600.37149 28.748765)" width="900" xlink:href="#a"/><use height="600" stroke="#000" stroke-width=".3" transform="matrix(-1 0 0 1 600.37149 56.299662)" width="900" xlink:href="#a"/><use height="600" stroke="#000" stroke-width=".3" transform="matrix(-1 0 0 1 600.37149 26.353034)" width="900" xlink:href="#b"/><use height="600" stroke="#000" stroke-width=".3" transform="matrix(-1 0 0 1 600.37149 27.5509)" width="900" xlink:href="#c"/><use height="600" stroke="#000" stroke-width=".3" transform="matrix(-1 0 0 1 588.39284 22.759439)" width="900" xlink:href="#d"/><use height="600" stroke="#000" stroke-width=".3" transform="matrix(-1 0 0 1 577.61205 16.770113)" width="900" xlink:href="#e"/><use height="600" stroke="#000" stroke-width=".27" transform="matrix(-1.1111112 0 0 1.1111112 601.24358 -38.38564)" width="900" xlink:href="#a"/><path d="m310.31565 120.30092.14973-12.68988-10.76206-5.78344-10.78079 5.78344.16845 12.68988 10.59362 5.78345" fill-rule="evenodd"/><g id="f" stroke-width=".834819" transform="matrix(.59893256 0 0 .59893256 214.54259 30.741788)"><path d="m121.87214 124.88907 14.88613-8.87808-3.60796 8.82661-11.27817.0515z" fill-rule="evenodd"/><path d="m121.43936 120.15759 11.59697-6.91642-2.81077 6.87633-8.7862.0401z" fill-rule="evenodd"/><path d="m119.27543 116.50286 11.27426-6.72396-2.73255 6.68498-8.54171.039z" fill-rule="evenodd"/><path d="m118.84265 113.04058 9.19689-5.48502-2.22906 5.45322z" fill-rule="evenodd"/><path d="m118.23676 110.18421 7.37919-4.40095-1.7885 4.37544-5.59069.0255z" fill-rule="evenodd"/><path d="m117.28463 107.78198 6.25395-3.72986-1.51577 3.70824-4.73818.0216z" fill-rule="evenodd"/><path d="m117.29247 105.5315 4.94776-2.95085-1.19919 2.93374-3.74857.0171z" fill-rule="evenodd"/><path d="m116.63549 103.85764 4.4795-2.67157-1.08569 2.65608-3.39381.0155z" fill-rule="evenodd"/><path d="m116.34038 102.4664 3.59416-2.14356-.87112 2.13113-2.72304.0124z" fill-rule="evenodd"/><path d="m115.87664 101.29635 3.04608-1.816695-.73828 1.806165-2.3078.0105z" fill-rule="evenodd"/><path d="m115.88046 100.20021 2.40988-1.437256-.58409 1.428926-1.82579.008z" fill-rule="evenodd"/><path d="m115.44592 99.529799 2.12024-1.264514-.51388 1.257174-1.60636.0073z" fill-rule="evenodd"/><path d="m115.30624 98.871289 1.70119-1.014589-.41232 1.008709-1.28887.0059z" fill-rule="evenodd"/><path d="m115.08674 98.317482 1.44177-.859879-.34944.854895-1.09233.005z" fill-rule="evenodd"/><path d="m115.08855 97.798656 1.14064-.680283-.27646.676341-.86418.0039z" fill-rule="evenodd"/><path d="m114.86836 97.508082 1.09675-.654101-.26582.650303-.83093.0038z" fill-rule="evenodd"/><path d="m114.79611 97.167452.87998-.524822-.21328.521779-.6667.003z" fill-rule="evenodd"/><path d="m114.68257 96.880981.74579-.444793-.18076.442215-.56503.0026z" fill-rule="evenodd"/><path d="m114.68351 96.612606.59002-.351893-.14301.349854-.44701.002z" fill-rule="evenodd"/><path id="g" d="m121.87214 124.88907 14.88613-8.87808-3.60796 8.82661-11.27817.0515z" fill-rule="evenodd"/><path id="h" d="m121.43936 120.15759 11.59697-6.91642-2.81077 6.87633-8.7862.0401z" fill-rule="evenodd"/><path id="i" d="m119.27543 116.50286 11.27426-6.72396-2.73255 6.68498-8.54171.039z" fill-rule="evenodd"/><path id="j" d="m118.84265 113.04058 9.19689-5.48502-2.22906 5.45322z" fill-rule="evenodd"/><path id="k" d="m118.23676 110.18421 7.37919-4.40095-1.7885 4.37544-5.59069.0255z" fill-rule="evenodd"/><path id="l" d="m117.28463 107.78198 6.25395-3.72986-1.51577 3.70824-4.73818.0216z" fill-rule="evenodd"/><path id="m" d="m117.29247 105.5315 4.94776-2.95085-1.19919 2.93374-3.74857.0171z" fill-rule="evenodd"/><path id="n" d="m116.63549 103.85764 4.4795-2.67157-1.08569 2.65608-3.39381.0155z" fill-rule="evenodd"/><path id="o" d="m116.34038 102.4664 3.59416-2.14356-.87112 2.13113-2.72304.0124z" fill-rule="evenodd"/><path id="p" d="m115.87664 101.29635 3.04608-1.816695-.73828 1.806165-2.3078.0105z" fill-rule="evenodd"/><path id="q" d="m115.88046 100.20021 2.40988-1.437256-.58409 1.428926-1.82579.008z" fill-rule="evenodd"/><path id="r" d="m115.44592 99.529799 2.12024-1.264514-.51388 1.257174-1.60636.0073z" fill-rule="evenodd"/><path id="s" d="m115.30624 98.871289 1.70119-1.014589-.41232 1.008709-1.28887.0059z" fill-rule="evenodd"/><path d="m115.08674 98.317482 1.44177-.859879-.34944.854895-1.09233.005z" fill-rule="evenodd"/><path id="t" d="m115.08855 97.798656 1.14064-.680283-.27646.676341-.86418.0039z" fill-rule="evenodd"/><path id="u" d="m114.86836 97.508082 1.09675-.654101-.26582.650303-.83093.0038z" fill-rule="evenodd"/><path id="v" d="m114.79611 97.167452.87998-.524822-.21328.521779-.6667.003z" fill-rule="evenodd"/><path id="w" d="m114.68257 96.880981.74579-.444793-.18076.442215-.56503.0026z" fill-rule="evenodd"/><path id="x" d="m114.68351 96.612606.59002-.351893-.14301.349854-.44701.002z" fill-rule="evenodd"/><use height="600" stroke-width=".834819" width="900" xlink:href="#g"/><use height="600" stroke-width=".834819" width="900" xlink:href="#h"/><use height="600" stroke-width=".834819" width="900" xlink:href="#i"/><use height="600" stroke-width=".834819" width="900" xlink:href="#j"/><use height="600" stroke-width=".834819" width="900" xlink:href="#k"/><use height="600" stroke-width=".834819" width="900" xlink:href="#l"/><use height="600" stroke-width=".834819" width="900" xlink:href="#m"/><use height="600" stroke-width=".834819" width="900" xlink:href="#n"/><use height="600" stroke-width=".834819" width="900" xlink:href="#o"/><use height="600" stroke-width=".834819" width="900" xlink:href="#p"/><use height="600" stroke-width=".834819" width="900" xlink:href="#q"/><use height="600" stroke-width=".834819" width="900" xlink:href="#r"/><use height="600" stroke-width=".834819" width="900" xlink:href="#s"/><use height="600" stroke-width=".834819" width="900" xlink:href="#t"/><use height="600" stroke-width=".834819" width="900" xlink:href="#u"/><use height="600" stroke-width=".834819" width="900" xlink:href="#v"/><use height="600" stroke-width=".834819" width="900" xlink:href="#w"/><use height="600" stroke-width=".834819" width="900" xlink:href="#x"/></g><use id="y" height="600" stroke-width=".834819" transform="matrix(.5 -.8660254 .8660254 .5 51.353312 315.38831)" width="900" xlink:href="#f"/><use id="z" height="600" stroke-width=".834819" transform="matrix(.5 -.8660254 .8660254 .5 49.832215 316.04881)" width="900" xlink:href="#y"/><use id="A" height="600" stroke-width=".834819" transform="matrix(.5 -.8660254 .8660254 .5 52.948078 314.93414)" width="900" xlink:href="#z"/><use id="B" height="600" stroke-width=".834819" transform="matrix(.5 -.8660254 .8660254 .5 51.697141 317.47964)" width="900" xlink:href="#A"/><use height="600" stroke-width=".834819" transform="matrix(.5 -.8660254 .8660254 .5 51.967188 316.98783)" width="900" xlink:href="#B"/><path d="m300.48673 111.11858c-3.57577-1.78548-8.27533-2.67276-12.1366-.37468-.42656 1.77921-.39571 6.01034 0 8.38646 5.26784-4.7356 8.29138-3.2386 11.38775-1.21803 6.54518 3.63985 7.68933 3.47753 11.20939 2.24377-.29259-1.71282.68754-3.77162.22905-7.13049-1.7782.95663-3.64532 1.54856-10.68959-1.90703z" fill="#fff" fill-rule="evenodd" stroke="#000" stroke-width=".5"/><path d="m291.24518 113.45708.82167.62169c.22757.17177.38788.27461.48096.30854.0931.0339.19659.0347.31057.002l.0238.069-1.0848.3745-.0238-.069c.0716-.0261.1225-.052.15257-.0777.0222-.0202.0378-.0447.0466-.0735.009-.0288.009-.055.001-.0786-.01-.0286-.0253-.0552-.0464-.0799-.016-.0181-.069-.061-.15914-.12863l-.65263-.50065-.29513.86121c-.031.0914-.048.15111-.0508.1792-.003.0281.00028.0552.009.0813.0137.0398.0419.0669.0844.0814.0426.0145.1117.007.20743-.0216l.0238.069-.89654.3095-.0238-.069c.0612-.0281.1114-.06.15052-.0958.0659-.0589.12418-.1277.17489-.2064.0507-.0787.10129-.19003.15172-.33399l.33649-.95894-.74927-.55698c-.20365-.15081-.36331-.24068-.47898-.26958s-.23566-.024-.35997.0148l-.0238-.069 1.16867-.40345.0238.069c-.0981.038-.16058.0777-.18737.11892-.0268.0412-.0342.0793-.0222.11405.0159.046.0689.10278.15896.17041l.58782.44584.25295-.72357c.029-.0851.0452-.14214.0484-.17107.003-.0289.00034-.0564-.009-.0825-.009-.0261-.0244-.0465-.0462-.0613-.0277-.0196-.0576-.0298-.0898-.0305-.0322-.00072-.0933.0138-.18318.0434l-.0238-.069.89654-.30951.0238.069c-.0695.0282-.12347.0593-.16176.0934-.0573.0517-.10545.1115-.14464.17926-.0392.0678-.0872.18448-.14405.35013l-.28004.81428zm2.89125.66427.0144.0715-1.12313.22602-.0144-.0715.0928-.0187c.10825-.0218.18051-.0692.21677-.14218.0226-.0475.0181-.14981-.0135-.30704l-.34078-1.6934c-.0267-.13273-.0527-.21868-.078-.25784-.0194-.0296-.0514-.052-.096-.0672-.0629-.0195-.12532-.0231-.18718-.0106l-.0928.0187-.0144-.0715 1.12314-.22602.0144.0715-.0947.0191c-.10697.0215-.17858.0688-.21484.14179-.0239.0477-.0201.1502.0115.30742l.34079 1.69341c.0267.13274.0527.21868.078.25784.0194.0296.052.0519.0979.0668.0616.0198.12339.0235.18525.011l.0947-.0191zm3.82553.41418-.70265-.12575-.6707-1.39005c-.0665-.009-.12039-.0175-.1618-.0249-.0168-.003-.0349-.007-.0541-.0107-.0193-.004-.0392-.009-.0596-.0137l-.13686.76476c-.0297.16563-.0299.27175-.0006.31835.039.0657.10764.1074.20599.125l.10287.0184-.0128.0718-1.12773-.20182.0129-.0718.099.0177c.11128.0199.19735-.002.2582-.066.0343-.0353.065-.12793.0918-.27803l.30429-1.70034c.0296-.16563.0299-.27175.0006-.31835-.0403-.066-.11024-.10786-.20988-.1257l-.099-.0177.0129-.0718.95887.17159c.2795.05.48193.10728.60728.17178.12533.0645.22448.1597.29744.2856.0729.1259.0959.26455.0688.41595-.0289.16175-.10681.29272-.23357.39289-.12677.10018-.30519.15506-.53527.16463l.40837.85232c.0932.19563.17934.3299.25844.40281.0791.0729.18907.12999.32993.17123l-.0129.0718zm-1.62709-1.68741c.0246.004.0459.009.0639.0124.018.004.0328.007.0444.009.25103.0449.45001.0245.59692-.0614.14692-.0859.23543-.21295.26553-.38117.0294-.16434.002-.30715-.0826-.42843-.0845-.12129-.21146-.1971-.38097-.22744-.075-.0134-.17884-.0193-.31134-.0177l-.19591 1.09473zm3.30976-.2982-.39183.98161.54575.21784c.14162.0565.24477.0729.30944.0492.0859-.0308.16078-.11558.22464-.25429l.0678.0271-.34503.8644-.0678-.027c.0311-.12769.045-.21204.0416-.25305-.005-.0515-.0275-.0995-.0678-.14385-.0403-.0444-.11236-.0873-.21613-.12873l-.54574-.21784-.32676.81861c-.0438.10988-.0657.17868-.0654.20638.00027.0277.01.0535.0286.0772.0188.0238.0624.0493.13078.0766l.42121.16813c.1404.056.24625.087.31753.0928.0713.006.14768-.008.22919-.0423.10591-.0455.229-.1287.36928-.24963l.0733.0292-.46281.53713-1.91376-.7639.0271-.0678.0879.0351c.0586.0234.11977.0315.18347.0244.0468-.004.0851-.0226.11475-.0561.0297-.0335.0686-.11063.11683-.2315l.64401-1.61343c.0629-.15749.0857-.26089.0686-.31019-.0244-.0664-.088-.12003-.19053-.16097l-.0879-.0351.0271-.0678 1.91377.7639-.18964.55488-.0714-.0285c.0265-.14087.034-.24193.0223-.3032-.0116-.0613-.0429-.1169-.0937-.1669-.0415-.0378-.12395-.0813-.24725-.13054l-.68127-.27194zm4.05369 1.7184-.33924.77585-.0608-.0327c.0383-.21823.0341-.40039-.0126-.54649-.0672-.21082-.21071-.37542-.43064-.49381-.2998-.16137-.5917-.16547-.87569-.0123-.2386.12985-.43235.3331-.58126.60975-.12088.22456-.18775.45281-.20063.68475-.0129.23193.0278.42887.12202.59081.0942.16194.21542.28278.36358.36254.0868.0467.17666.0809.26953.10252.0929.0216.18844.0313.28674.0289l.36636-.68063c.0636-.11807.0962-.20016.0978-.24628.002-.0461-.0111-.0889-.0385-.1282-.0273-.0393-.0885-.0846-.18338-.13567l.0355-.066.91157.49067-.0355.066-.0434-.0234c-.0903-.0486-.16842-.0518-.23439-.01-.0462.0304-.10327.10864-.17118.23481l-.38786.72057c-.17175.00011-.33148-.0179-.47918-.0542-.14772-.0362-.30087-.097-.45945-.18237-.45491-.24486-.72193-.5767-.80106-.9955-.0593-.3141-.012-.61411.14184-.90002.11153-.2072.26816-.37893.46989-.51518.23956-.16217.49508-.24857.76654-.2592.22668-.008.45751.0514.6925.17792.0856.0461.15976.095.22231.14654.0625.0516.1453.13569.24824.2523.0517.0592.0886.0947.1106.10656.022.0118.0462.0118.0728-.00001.0265-.0118.0574-.0464.0927-.10352l.0642.0346zm.1716 3.23906-.038.0623-.97846-.59594.038-.0623.0808.0492c.0943.0574.17955.0716.25573.0426.0488-.0195.11495-.0978.19837-.23473l.89852-1.47526c.0704-.11564.10963-.19643.1176-.24237.006-.0349-.002-.0731-.0249-.11447-.033-.057-.0764-.10196-.13032-.13479l-.0808-.0492.038-.0623.97845.59594-.038.0623-.0825-.0503c-.0932-.0567-.17786-.0706-.25403-.0416-.0499.0188-.11664.0967-.20006.23371l-.89852 1.47526c-.0704.11564-.10964.19643-.11761.24237-.006.0349.003.0734.0267.1155.0319.0564.0747.10093.12863.13376l.0825.0503zm2.61166-1.56804c.30678.16225.511.41933.61263.77124.10164.35191.0603.70218-.12409 1.0508-.18991.35908-.46085.59723-.81282.71445-.35198.11722-.68891.0907-1.0108-.0795-.32538-.17208-.53761-.43229-.63669-.78061-.0991-.34833-.0515-.7061.1427-1.07331.1985-.37535.48827-.61395.8693-.71581.33073-.0883.65065-.0507.95977.11276zm-.10042.10973c-.21149-.11185-.42264-.12314-.63344-.0339-.26245.11104-.49323.35481-.69235.73132-.20404.3858-.27856.72635-.22355 1.02163.0431.22503.16863.39255.37664.50255.22196.11739.45106.12776.68731.0311.23624-.0966.45301-.33146.65028-.70448.21388-.4044.29376-.74806.23964-1.03097-.0443-.22564-.17909-.39808-.40453-.5173zm.84187-.6344-.83226.32942-.0593-.0313.50107-.50458.39046.2065zm-.2986 1.10976.71154.14238 1.20942 2.28714.30255-1.51202c.0322-.16113.0343-.26528.006-.31247-.0369-.0637-.10685-.10583-.20997-.12647l-.0909-.0182.0143-.0716.91263.18262-.0143.0715-.0928-.0186c-.11086-.0222-.1962-.004-.25601.0533-.0366.0356-.0696.12684-.099.27378l-.44223 2.21003-.0696-.0139-1.30609-2.4573-.32306 1.6145c-.0322.16113-.035.26515-.008.31208.0381.0639.10813.10609.20997.12647l.0928.0186-.0143.0716-.91263-.18262.0143-.0715.0909.0182c.11214.0224.19812.005.25794-.053.0366-.0356.0696-.12683.099-.27378l.36484-1.82332c-.0583-.10416-.10421-.17435-.13784-.21058-.0337-.0362-.086-.0742-.15719-.1139-.035-.0191-.0906-.0362-.16667-.0515l.0143-.0715z" stroke-width=".834819"/></svg>