<svg height="600" width="900" xmlns="http://www.w3.org/2000/svg" xmlns:xlink="http://www.w3.org/1999/xlink"><defs><linearGradient id="a"><stop offset="0" stop-color="#0a44a8"/><stop offset="1" stop-color="#0e5ee8"/></linearGradient><linearGradient id="b"><stop offset="0" stop-color="#ccf307"/><stop offset="1" stop-color="#5baf00"/></linearGradient><linearGradient id="c" gradientUnits="userSpaceOnUse" x1="561.52667" x2="620.77295" xlink:href="#b" y1="188.37775" y2="299.48886"/><linearGradient id="d" gradientUnits="userSpaceOnUse" x1="695.66528" x2="763.76813" xlink:href="#b" y1="263.40933" y2="385.14847"/><linearGradient id="e" gradientUnits="userSpaceOnUse" x1="142.99516" x2="162.11528" xlink:href="#a" y1="-.388134" y2="325.21573"/><linearGradient id="f" gradientUnits="userSpaceOnUse" x1="370.04831" x2="855.55554" xlink:href="#a" y1="430.46368" y2="649.78735"/><linearGradient id="g" gradientUnits="userSpaceOnUse" x1="207.07246784968" x2="439.92270822364" y1="147.82609316847" y2="148.79227642778"><stop offset="0" stop-color="#ff7f2a"/><stop offset="1" stop-color="#ffd92a"/></linearGradient><linearGradient id="h" gradientUnits="userSpaceOnUse" x1="553.78827" x2="613.04346" xlink:href="#b" y1="53.418915" y2="160.6653"/><polygon id="i"/></defs><g transform="translate(0 -452.36218)"><path d="m0 452.36221h900v600h-900z" fill="#fff"/><g transform="translate(0 452.36218)"><path d="m291.125 0c-5.06135 0-10.06863.25650247-15 .75v170.03125c49.91367.83633 103.45195-22.90452 160.3125-54.09375-14.68104-66.743528-74.15784-116.6875-145.3125-116.6875z" fill="url(#g)"/><path d="m0 0v220.9375l162.5 50.75 113.59375-100.90625.0312.15625v-170.9375z" fill="url(#e)"/><path d="m659.875 0c-143.83552 52.895286-272.73119 172.6647-383.78125 170.78125l27.90625 148.46875 188.96875 67.21875-134.84375 45.59375c19.34707 15.0085 38.64635 29.9552 55.40625 46.1875l441.53125 2.90625 44.9375-43.8125v-437.34375z" fill="url(#h)"/><path d="m828.5625 72.40625c-155.36198.519199-312.65817 179.75914-524.5 246.8125-.02129.0024-.04122-.00241-.0625 0v.03125l188.96875 67.21875-125.03125 42.28125c27.06756 12.386 52.84861 24.11643 70.71875 34.0625l461.34375-68.65625v-308.375c-23.89192-9.349882-47.64332-13.454517-71.4375-13.375z" fill="url(#c)"/><path d="m852.875 200.25c-131.53057-.63182-207.67127 133.51271-360.8125 185.90625l.90625.3125-2.96875 1-26.21875 79.1875 386.46875 35.75 49.75-12.9375v-283.46875c-16.54915-3.86046-32.19644-5.67829-47.125-5.75z" fill="url(#d)"/><path d="m3.65625 271.9375 38.34375 100.53125-36.40625 98.46875 68.84375-96.1875zm489.0625 114.625-189.3125 64-8 77.96875c95.85706-11.6365 185.4685 57.48891 295.5625 71.46875h309.03125v-174.34375c-25.2581 34.57636-86.85335 36.74235-125 35.21875-106.05276-7.70776-192.62613-70.75243-282.28125-74.3125zm-329.28125 98.75-163.4375 45.8125v33.84375l163.9375-40.09375 80.34375 75.125z" fill="url(#f)"/></g><path d="m271.45454 309.68858-78.90127-118.26132-142.633207 41.48138 81.582327-118.29992-77.018183-116.1181982 136.259243 44.1759232 76.39953-70.428293 18.75614 103.624095 127.09979 46.927653-127.49286 44.73076z" fill="#fff" transform="matrix(1.4868815 0 0 1.4326725 -121.1014 662.91739)"/><path d="m482.09375 384.375a2.0015253 2.0015253 0 1 0 .15625 4l10.03125.15625h.03125c88.88953 3.37873 175.63412 66.57462 282.53125 74.34375h.03125.03125c19.15398.76502 44.22753.6003 67.8125-4.125 22.63367-4.5347 44.03657-13.26624 57.28125-29.78125v-7.0625l-1.625 2.5625c-12.18399 16.67893-33.37366 25.75411-56.4375 30.375-23.04013 4.61614-47.79618 4.78713-66.78125 4.03125-.0208-.002-.0417.002-.0625 0-105.46312-7.68739-192.02847-70.91202-282.6875-74.34375h-.03125l-10.0625-.15625a2.0002 2.0002 0 0 0 -.21875 0z" fill="#fff" transform="translate(0 452.36218)"/><path d="m275.62495 452.86218v218.35749" fill="none" stroke="#fff" stroke-width="4"/><path d="m670.58927-3.7946623c-148.14859 50.6923213-280.68839 176.5066323-394.48516 174.5765923" fill="none" stroke="#fff" stroke-width="4" transform="translate(0 452.36218)"/><g fill="#fff" transform="matrix(.04232804 0 0 .04232804 0 452.36218)"><use height="1" transform="matrix(120 0 0 120 22680 12600)" width="1" xlink:href="#i"/><use height="1" transform="matrix(120 0 0 120 18900 6615)" width="1" xlink:href="#i"/><use height="1" transform="matrix(120 0 0 120 22680 2520)" width="1" xlink:href="#i"/><use height="1" transform="matrix(120 0 0 120 26040 5607)" width="1" xlink:href="#i"/><use height="1" transform="matrix(71.648804 0 0 71.648804 24183.691 8181.45)" width="1" xlink:href="#i"/></g><g fill="#fff" transform="matrix(.04232804 0 0 .04232804 0 452.36218)"><use height="1" transform="matrix(120 0 0 120 22680 12600)" width="1" xlink:href="#i"/><use height="1" transform="matrix(120 0 0 120 18900 6615)" width="1" xlink:href="#i"/><use height="1" transform="matrix(120 0 0 120 22680 2520)" width="1" xlink:href="#i"/><use height="1" transform="matrix(120 0 0 120 26040 5607)" width="1" xlink:href="#i"/><use height="1" transform="matrix(71.648804 0 0 71.648804 24183.691 8181.45)" width="1" xlink:href="#i"/></g><g transform="matrix(-.01373793 .00748417 -.00748417 -.01373793 461.23862 509.64848)"><use height="15120" transform="matrix(.56064302 0 0 .56064302 8911.9484 4786.6884)" width="30240" xlink:href="#j"/><use height="15120" transform="translate(-3360 6992.9998)" width="30240" xlink:href="#j"/><use height="15120" transform="translate(-7140 1008)" width="30240" xlink:href="#j"/><use height="15120" transform="translate(-3360 -3087)" width="30240" xlink:href="#j"/><path id="j" d="m0-9 1.735535 5.3961245 5.3009483-2.0075327-3.1367717 4.72132446 4.8746396 2.89277214-5.6470253.4912708.7776278 5.6147606-3.9049537-4.1087198-3.9049537 4.1087198.7776278-5.6147606-5.6470253-.4912708 4.8746396-2.89277214-3.1367717-4.72132446 5.3009483 2.0075327z" fill="#fff" transform="matrix(120 0 0 120 24509.13 5039.6072)"/></g></g></svg>