<svg height="600" width="900" xmlns="http://www.w3.org/2000/svg" xmlns:xlink="http://www.w3.org/1999/xlink"><linearGradient id="a" gradientUnits="userSpaceOnUse" x1="375.08768" x2="392.49213" xlink:href="#b" y1="711.92914" y2="735.66571"/><linearGradient id="b"><stop offset="0" stop-color="#fc0"/><stop offset="1" stop-color="#ff5400"/></linearGradient><linearGradient id="c" gradientTransform="matrix(-1 0 0 1 521.985 0)" gradientUnits="userSpaceOnUse" x1="375.08768" x2="392.49213" xlink:href="#b" y1="711.92914" y2="735.66571"/><path d="m0 0h900v600h-900z" fill="#fff"/><g transform="matrix(.640598 0 0 .640598 289.851 104.396)"><path d="m246.46117 22.012207c-17.45803.287908-32.56116 5.717857-58.81527 16.066267-37.37302 13.033289-55.95558 9.575625-91.018589-4.742026l-59.169159 60.018477 15.99549 17.446405c31.680051 34.58657 33.458965 79.04452 5.803674 143.78247-21.331802 49.93548-22.773174 96.77752-3.85732 125.38058 18.457279 27.90972 53.830744 45.61923 102.201274 51.13603 48.39981 6.92653 57.25313 13.18681 92.39873 42.60746 35.14557-29.42065 43.96353-35.68093 92.36334-42.60746 48.37052-5.5168 83.744-23.22631 102.20128-51.13603 18.91584-28.60306 17.50987-75.4451-3.82194-125.38058-27.65526-64.73795-25.87637-109.1959 5.80368-143.78247l15.99549-17.446405-59.20455-60.018477c-35.06299 14.317651-53.61018 17.775315-90.9832 4.742026-28.00433-11.038303-43.33582-16.492413-62.3541-16.066267-1.18864-.02663-2.37495-.01919-3.53883 0z" fill="#fff" stroke="#000" stroke-width="25"/><path d="m68.387485 249.35164h181.137615v219.7337c-73.26473-58.07294-240.8904421-20.40943-181.137615-219.7337z" fill="#ed1c24" fill-rule="evenodd" stroke="#000" stroke-width="1.031091"/><path d="m434.66243 249.35164h-185.13761v219.7337c73.26471-58.07294 265.39286-24.40749 185.13761-219.7337z" fill="#008f4c" fill-rule="evenodd"/><path d="m249.52482 249.35164h180.78378c-45.83898-73.55953 42.72507-123.16724 23.55039-150.878122l-52.19002-75.424047c-26.84624 20.07661-41.46192 36.434249-152.14415-12.385575z" fill="#eac102" fill-rule="evenodd" stroke="#000" stroke-width="1.031091"/><path d="m58.159351 307.71721h41.004879l32.80392-33.31701 42.37164 55.97261h75.17565m-191.356089-3.55385h41.004879l29.61465-27.09782 40.09361 49.75343h80.64295m-191.356089-3.55386h41.004879l26.42539-20.87862 37.81556 43.53421h86.11026m-191.356089-3.55383h41.004879l23.23612-14.65944 35.53753 37.31506h91.57756" fill="none" stroke="#fff" stroke-width="6.566631"/><g stroke-miterlimit="10" transform="matrix(.29726152304 0 0 .32857500968 261.919959316 96.9844651136)"><path d="m78.00039 354.00177h144.00072l18.00009-18.00009v-234.00117h-162.00081z" fill="none" stroke="#000" stroke-linejoin="round" stroke-width="8.00004"/><path d="m258.00129 354.00177h144.00072v-252.00126h-162.00081v234.00117z" fill="none" stroke="#000" stroke-linejoin="round" stroke-width="8.00004"/><g fill-rule="evenodd" stroke-width="1.649606"><path d="m96.00048 330.00165-18.00009 24.00012h144.00072l18.00009-18.00009-18.00009-6.00003z" fill="#e9ddaf" stroke="#202020"/><path d="m384.00192 330.00165h-126.00063l-18.00009 6.00003 18.00009 18.00009h144.00072z" fill="#e9ddaf" stroke="#202020"/><path d="m402.00201 102.00051-18.00009-24.00012v252.00126l18.00009 24.00012z" fill="#e9ddaf" stroke="#202020"/><path d="m78.00039 102.00051v252.00126l18.00009-24.00012v-252.00126z" fill="#e9ddaf" stroke="#000"/><path d="m96.00048 330.00165h126.00063l18.00009 6.00003v-252.00126l-18.00009-6.00003h-126.00063z" fill="#fff" stroke="#202020"/><path d="m240.0012 336.00168 18.00009-6.00003h126.00063v-252.00126h-126.00063l-18.00009 6.00003z" fill="#fff" stroke="#202020"/></g></g><g fill-rule="evenodd" transform="translate(-2)"><path d="m451.06465 342.11458-199.53955-1.33267v144.43423c73.26471-58.07291 216.92066-37.06503 199.53955-143.10156z" fill="#fff"/><g fill="#00007d"><path d="m457.27236 338.28214c-9.2039 8.29452-13.24674-8.74658-22.87294 0-9.2039 8.29452-13.24675-8.74658-22.87295 0-9.2039 8.29452-13.24674-8.74658-22.87294 0-9.2039 8.29452-13.24674-8.74658-22.87294 0-9.2039 8.29452-13.24674-8.74658-22.87294 0-9.2039 8.29452-13.24675-8.74658-22.87295 0-9.2039 8.29452-13.24674-8.74658-22.87294 0-9.2039 8.29452-13.24674-8.74658-22.87294 0-9.2039 8.29452-13.24675-8.74658-22.764 0v7.62644h199.43191z"/><path d="m457.27236 363.42578c-9.2039 8.29452-13.24674-8.74658-22.87294 0-9.2039 8.29452-13.24675-8.74658-22.87295 0-9.2039 8.29452-13.24674-8.74658-22.87294 0-9.2039 8.29452-13.24674-8.74658-22.87294 0-9.2039 8.29452-13.24674-8.74658-22.87294 0-9.2039 8.29452-13.24675-8.74658-22.87295 0-9.2039 8.29452-13.24674-8.74658-22.87294 0-9.2039 8.29452-13.24674-8.74658-22.87294 0-9.2039 8.29452-13.24675-8.74658-22.764 0v7.62644h199.43191z"/><path d="m434.39942 388.56941c-9.2039 8.29451-13.24675-8.74659-22.87295 0-9.2039 8.29451-13.24674-8.74659-22.87294 0-9.2039 8.29451-13.24674-8.74659-22.87294 0-9.2039 8.29451-13.24674-8.74659-22.87294 0-9.2039 8.29451-13.24675-8.74659-22.87295 0-9.2039 8.29451-13.24674-8.74659-22.87294 0-9.2039 8.29451-13.24674-8.74659-22.87294 0-9.2039 8.29451-13.24675-8.74659-22.764 0v7.62643h173.80199z"/><path d="m365.78059 413.71305c-9.2039 8.29452-13.24674-8.74658-22.87294 0-9.2039 8.29452-13.24675-8.74658-22.87295 0-9.2039 8.29452-13.24674-8.74658-22.87294 0-9.2039 8.29452-13.24674-8.74658-22.87294 0-9.2039 8.29452-13.24675-8.74658-22.764 0v7.62643h96.83416z"/><path d="m297.16176 438.85669c-9.2039 8.29452-13.24674-8.74658-22.87294 0-9.2039 8.29452-13.24675-8.74658-22.764 0v7.62643h37.34212z"/></g></g><g stroke="#000"><g fill="#e3e4e5" fill-rule="evenodd" stroke-width="1.494473" transform="matrix(-.0326855 -.343241 .343606 -.0325352 136.487 245.944)"><path d="m244.52047 664.76064c13.78649-7.8458 31.22966 2.97793 36.24221 5.48795 11.95154 5.98466 15.21399 5.87684 46.3284 35.35365l-5.67711 1.00439c6.26956 1.65883 11.62087 5.17844 16.86806 8.90907 13.73665 11.27387 23.30969 20.53063 32.26506 30.42915l-7.38682 2.27991 12.08169 3.08712c2.90481 3.65578 5.65439 7.15798 9.05449 11.30389-11.44148-5.61232-21.7282-7.81995-32.14369-10.40719l37.25743 16.64174c6.16952 6.20566 12.1866 12.8768 17.33563 22.19829l-18.02691-2.25937c5.40139 1.57536 12.54261 4.1506 20.0586 8.86214 5.23925 5.81961 9.82974 14.44915 13.20174 24.80297 2.16118 6.62439 6.56224 17.30529-12.65636 11.60324-11.55885-3.76178-23.91973-10.41847-35.32139-21.72177-2.85949-4.15954-4.24517-11.30574-6.16462-17.37027.40478 4.33887-.91475 6.29025 1.83873 13.88113-9.96486-6.52881-21.2521-16.9565-32.21651-26.43238l-7.11513-14.04572-.74546 7.04541c-19.27072-18.66263-36.52465-35.9612-54.70702-59.52415-2.80298-6.19858-4.01637-6.77944-4.73771-10.13898-.62405 1.09768-1.07264 4.26946-1.07264 4.26946-15.26602-18.15616-31.87831-36.25586-24.56067-45.25968z"/><path d="m273.71987 687.13583c13.87616-.0768 25.55421 5.42632 37.43042 10.42639"/><path d="m282.21651 694.36973c9.51947-1.263 19.69863 3.14056 29.73711 6.33572"/><path d="m289.7224 700.23183c7.01557.15304 14.1091.68553 21.65656 3.42735"/><path d="m305.74141 716.47517c18.36895 1.82737 27.96745 6.62939 38.81047 11.00931"/><path d="m311.67568 722.73893c3.82213.45476 7.87452.20645 11.22376 2.10504"/><path d="m357.75533 769.51219c6.978 1.16502 13.89505 2.26973 23.44035 5.97529"/><path d="m393.35063 805.12766c4.05144.30251 8.00028.43604 13.59045 3.27291"/><path d="m365.06967 776.35886c3.82212.45476 7.87452.20644 11.22376 2.10503"/><path d="m299.92739 720.27197c.46911 3.02232.54131 8.69228 2.56997 15.30152"/><path d="m306.37825 726.25962c.053 2.0093.32441 4.865 1.42305 7.90906"/><path d="m187.36309 612.2468 12.4287 21.43726c75.4305 58.55771 146.01886 132.01793 217.29178 195.71181-87.02036-97.38885-151.65702-155.05567-229.72048-217.14907z"/></g><path d="m141.93726 118.35932c1.51621 35.63878 5.09761 86.78357 6.99416 97.77888 1.89801 10.99532 1.13881 23.88646.75921 25.78155 2.27761 1.51767 5.87872 1.13807 7.39712 0-1.14099-20.85402-6.20868-30.3959-8.1556-55.73506-1.51841-19.71667-3.961-62.51825-3.961-67.82537-.001-5.31151-3.03389 0-3.03389 0z" fill="#742e00" stroke-width=".515545"/><path d="m167.70931 241.71097c.3796-5.30786-.37741-12.89114-.37741-29.19358 0-16.30391 5.43998-69.27955 8.47242-79.51785 3.03463-10.23465 1.89801.76066 1.89801.76066-4.16978 19.33561-6.57879 65.48645-6.57879 78.37685 0 12.89114 2.65356 27.29849 2.65356 28.81544-1.13881 1.13808-4.92899 2.27542-6.06779.75848z" fill="#742e00" stroke-width=".515545"/></g><path d="m136.73379 101.4955c.15184.11534.29857.24455.44165.3869.0336-.28908.0255-.56575-.0124-.83366l-.42924.44676z" fill="#009036"/><path d="m177.64247 138.72569c-1.07311 1.9221-.48107 3.45292.50078 3.31495.98405-.13651-2.43821 1.14391-2.60319 3.5865-.15914 2.44114-.23068 3.09449-1.40453 2.77402-1.17676-.31974-2.48493-3.2018-2.87475-1.5352-.39129 1.66587.57451 2.66086-.65336 1.86443-1.2264-.79789-2.48858-.62269-2.48858-.62269s-1.59141-1.55126-1.49213.69058c.10001 2.24184.0241 5.47722-1.57024 5.21515-1.59724-.26207-.90447-3.09741-2.69663-1.23517-1.79508 1.85932-2.62947-1.8929-3.57921-.14892-.95192 1.74471-1.31181 6.30869.63584 5.87726 1.94984-.43362 1.34758 1.9075-.21243 1.96298-1.56221.0555-2.36084-3.37846-3.01054-4.09678-.64678-.71467-1.23079-6.11378 1.23955-5.65242 2.47033.46282 1.58556-3.76463 3.81208-2.94775 2.22797.81979 5.26405-1.37533 4.84722-2.60539-.42194-1.23151 1.5279-2.95359 2.23162-3.05068.70227-.0971 3.2894 4.05736 5.43634 1.50161 2.14037-2.55501 1.42278-2.61487.47669-3.45218-.94389-.83586.25696-4.22599.95412-3.03244.69861 1.19283 3.52445-.32996 2.45135 1.59214zm-25.86038 37.54336c-.50444-.10439-1.05121-.3066-1.49651-.43289-1.46804-.41683.36573.83074-.73073 3.32079-1.10523 2.49369-5.14142 2.49369-6.97592-.41465-1.83669-2.90541-2.20242 2.90834-4.40411 0-2.20461-2.90541-4.4063 0-4.77204 2.49297-.34602 2.33747-5.53489 3.21201-6.17437 1.25487.75045 5.85901-5.17937 6.96278-4.10408 3.31349-4.77057 0-8.80603-3.32225-6.23861-4.56763 2.20169-3.73762-.73292-4.15226-2.56815-3.73762-1.75274.39493-1.8345-5.26187.71759-5.05528-4.40703-.93002 1.98561-3.98217 6.98906-.34383-1.46877-2.49296-4.03839-3.73689-7.70738-3.73689-3.67046 0-4.03765-.83074-1.10304-3.73762-2.93461-2.49223 2.20242-3.32079 6.60872-2.49223-8.07676-2.49369-7.34164-4.56836-4.03692-5.81448 3.30108-1.24466.73147-1.66076-2.20169-2.90615-4.04057-1.66148-3.67265-4.56763-.73511-4.15226-5.13996-4.56763.365-9.13599 3.30254-9.13599-2.93754-1.66149 0-5.81448 6.97153-4.15226 1.83815-2.0776-1.09938-2.0776-5.50569-3.73908-4.40411-1.66076-.36719-5.81229.73512-7.89061 2.20242 1.24611 10.27772 0 5.87288-1.66149-3.30546-2.49151-4.40412-4.98301-.36793-4.15226.50079-1.70237 3.34707-2.28492 6.54011-2.33529.0474.79279.37376 1.44541 1.14099 1.4111 2.38347-.1095-.62342 3.68725 2.49443 4.53186 3.11784.84462-.12921 2.08198.79278 4.24863.922 2.16592 4.10408-.1241 6.19481-1.90239 2.09-1.77756 1.76807 1.3359 1.76807 1.3359s1.09939 1.433 1.23225 3.53468c.13578 2.10314.38617.17958 2.28053-.56648 1.89801-.7468.081 2.9952.63583 4.6837.55846 1.6885 1.24028 1.29503 3.72083-.30222 2.47471-1.59944 6.23642 1.6885 5.37794.57305-.85411-1.11252.18469-2.9733 2.82949-3.0609 2.64919-.0913-.90447-2.46449-.26645-4.20847.63657-1.74179-3.52373-.72636-3.6325 1.05704-.10731 1.78632.3599 2.72-3.68725 1.9513-4.04787-.76796-1.94327-7.0292-2.55355-7.82491-.61174-.7957-3.71061-1.93743-4.59537-.51392-.88039 1.42716-6.87226 2.85942-7.72125-.49494-.66138-2.61634-1.90166-2.80395-3.06456-4.36762 2.87622.192 5.54949.66869 6.59413 1.00303-3.30473-2.07467-5.87872-4.15153-1.10742-5.39911-3.46752.73585-11.18293-.26645-12.39692-1.20815l-2.25717 2.66816c-5.32027 3.377-5.32027-5.43123-1.16874-7.48692-1.55783-2.05569 1.29722-4.11065 3.1142-2.64188 2.85577-3.230269-2.59371-2.34988-2.33529-4.406305.25989-2.05496 3.89311-3.230266 2.07686-4.696114-1.81624-1.468767-.77891-4.406302 2.07687-2.937535 2.85431 1.469498 1.81624-2.05423 1.55563-3.522998-.25769-1.468767 2.33602-5.581608 4.15226-4.112841-1.29575-2.05423-3.89165-6.751074 2.33748-3.227346-1.81406-3.81938-1.29795-3.81938-.5205-5.286687.78111-1.470228 2.33748 1.467307 4.67203.587653 2.33528-.881845 1.03733-4.112841 2.33528-4.991766 1.30014-.882574 4.41214-2.644073 5.19106 0 1.42934-3.228806 3.72521-3.499637 4.50193-1.715508 1.41621-.446763 2.82803 1.265826 2.40098 4.517993 1.97758-1.659299 3.63469 1.804569 4.253 3.368967.61613 1.561478-2.08489 3.365317-.61831 5.604969 1.46658 2.238191 2.91271 2.595163 2.80832 4.302642l1.30963-1.593599c.21608-.15987 2.06445-.273751 2.41704-.305141-1.18844-3.440508-.22849-7.631459 1.8929-7.219737l.0876-4.459593c-1.09865-5.189596 1.8345-8.514033 3.12004-5.605698 1.60017-1.550528 2.3455-.124101 3.07916 1.524977l-.411-7.471588c1.10304-3.737619 2.20169 3.114926 2.75212.830744.55261-2.283451 2.20242-9.135996 3.67265-6.645224 1.46657 2.492233 1.46657 7.891341 3.12003 6.435713 1.652-1.452707 2.017-6.643034 4.58443-4.152261 1.28407-2.904685 4.2238.416102 3.12222 5.607889l.0876 4.459593c2.12066-.413183 4.64867 3.785799 3.45803 7.226307 2.38492.206591 1.65127 3.94421-.55042 4.359582 0 4.567633 3.30107-.415372 4.40411 1.246116 1.09865 1.661489-.73365 5.399108 1.46804 4.983006 2.20461-.415373 3.30326 2.491502.36573 3.737619-2.93754 1.246846 0 2.908335 1.10303 3.739809 1.10012.828554 1.8345 5.81156-.36792 6.227662 2.18636.41318 6.90584 1.64324.50224 4.10116l.10002.13286c3.07039 1.06216 3.10543 1.5206 3.34049 2.77986.40588.007.75337.0533.93587.26207.55042.62196-1.28189 2.4915-3.30254 3.32224-.16498-.2628-5.46335-.48253-5.72761-.66211-.20878.23287-.39785.51465-.55261.8614-.32412.73293-.29638 1.35927-.10731 1.91991.28981.22266.77161.23288 1.50089-.0431 1.65272-.62415 3.48941.41611 3.12222 1.871.91762 1.03734 7.8198 1.86589 5.61811 3.94421 3.30546-2.07832 6.4233-1.04025 6.4233 1.66149 2.57181-1.24611 3.30327 4.77496 0 6.85109 3.48796-.83075 4.95454-.41537 3.48796 2.90614 2.93535-2.28345 7.52415-.20659 4.5888 2.90907-2.35645 2.49734-4.0048 1.65492-4.56252.90447.66211 1.43665 1.14684 1.80311-1.67755 3.87048 2.01773-1.24465 3.48796-2.07613 3.48796-.62196 1.46658-2.07832 2.75284-2.70029 3.30108.20513 4.58953-.41537.73511 3.5303-1.09939 3.94567.88842 3.81938-2.3528 4.72239-4.06028 5.33925 3.0485.75482 3.60476 2.63677 2.40901 3.79675 1.83231 2.49296-8.62499 6.85254-11.19679 4.15226-1.652-.62197-4.21943.83074-.91616 2.07832 3.30327 1.24611-2.75284 2.49004-.73584 3.11419 2.01992.62197 8.07676 2.49078 5.87288 4.15227-2.20023 1.65929-6.97373 1.65929-5.68819 3.53102 1.28553 1.86808 5.87215 2.28127 3.67046 5.1896 2.56815 1.45271-.36793 4.77714-4.95673 3.53103l-3.94348.0971c.36792 2.40244-3.3405 5.26187-6.38753 3.91501-.17885 2.69882-3.48358 1.86808-3.8515-.62415-4.03619 0 .36792 3.73907-1.10012 4.983-1.4673 1.24685-4.77203-.82855-4.40192 1.66222.36354 2.49077-2.20461 3.73689-3.30546.4161-1.10011-3.32225-2.56742 0-3.30253 1.24393-.73512 1.24611-5.13923 2.07759-5.50569-.41318-.36719 2.49077-1.46804 7.88988-3.66973.41318-1.10304 4.15445-1.4695 3.73981-2.93753 4.15445-1.46658.41537-.73366-2.90834-2.93535-4.15445-2.20169-1.24393-3.30254 2.07759-4.7713 1.66149-1.46877-.41538-4.77204-1.66149-3.67046-4.15153-3.30254 1.24684-5.13923-.83148-4.03619-2.90615-1.10304-1.66149-.73585-3.32444 2.56742-2.49296-.75117-.68402-.82271-1.99656-.46939-3.1653z" fill="#009036" stroke="#000" stroke-width=".515545"/><path d="m176.58542 108.0867c1.71478.1606 2.5156-.81906 2.04109-1.52351-.47304-.70227 1.725 1.47022 3.43394.75555 1.71186-.71467 2.18271-.88623 2.42288.12045.2431 1.00813-1.19647 2.99812.0818 2.72291 1.27751-.27448 1.57389-1.35342 1.51476-.14162-.0613 1.21035.54824 2.11482.54824 2.11482s-.42779 1.75055 1.04755.90156c1.47461-.849 3.68871-1.90385 4.13401-.59495.44311 1.30816-1.74106 1.75711.21462 2.48858 1.95349.72781-.25477 2.65721 1.29357 2.7835 1.54615.12483 4.76765-1.17092 3.71645-2.50829-1.04975-1.33956.76504-1.68704 1.4111-.51319.64605 1.17238-1.36365 2.96673-1.59433 3.70769-.22995.74095-3.64929 3.0463-4.30045.99791-.64752-2.04839-3.16019.084-3.4719-1.89655-.3139-1.98269-2.97696-3.54928-3.6471-2.80467-.66795.74241-2.58932-.15257-2.92878-.65701-.33799-.50224 1.45855-3.90771-1.10084-4.66764-2.56012-.75774-2.32141-.18834-2.51851.82198-.19638 1.00814-2.95068 1.25999-2.4207.3161.53218-.94609-1.59286-2.58057.12264-2.42362z" fill="#fff"/><path d="m68.387485 249.35164h181.137615v219.7337c-73.26473-58.07294-240.8904421-20.40943-181.137615-219.7337z" fill="none" stroke="#000" stroke-width="1.031091"/><path d="m246.1875 6.34375c-20.55509.3389835-37.86267 6.743014-64.28125 17.15625-17.54838 6.119739-28.8156 8.342535-39.96875 7.40625s-22.33312-5.090849-39.40625-12.0625l-8.78125-3.5625-.90625-.40625-.71875.71875-6.65625 6.78125-59.15625 60-9.46875 9.5625-1 1 .96875 1.0625 9.09375 9.9375 16 17.46875c13.699057 14.95588 20.248591 30.38815 21.0625 50.59375.812619 20.17358-4.854793 45.37342-18.125 76.4375-22.615769 52.94111-25.929528 104.72798-2.5 140.15625 21.849818 33.03968 62.23422 52.21549 113.5 58.0625 47.39523 6.78278 49.07135 9.74495 84.09375 39.0625l9.09375 7.59375.96875.8125.96875-.8125 9.09375-7.59375c35.02267-29.31778 37.13724-32.34241 84.53125-39.125 51.26536-5.84695 91.18589-24.96708 113.03125-58 23.42467-35.42093 20.1495-87.20933-2.46875-140.15625-13.2702-31.06408-18.93761-56.26392-18.125-76.4375.81389-20.20559 7.36345-35.63787 21.0625-50.59375l16-17.46875 9.09375-9.9375.96875-1.0625-1-1-9.46875-9.59375-59.1875-60.03125-6.65625-6.71875-.71875-.71875-.90625.40625-8.78125 3.5625c-34.14056 13.940985-44.8067 16.7092-79.90625 4.46875-27.90099-10.997567-45.36097-17.3274917-67.25-16.96875-.28118-.0063-.42071.00244-.59375 0-1.22175-.017205-2.41474-.017897-3.5 0zm.0625 3c1.0473-.017271 2.21137-.016827 3.40625 0 .27082.00381.45353-.00384.625 0h.0312.0312c21.28473-.3488377 38.25581 5.796219 66.125 16.78125h.0312l.0312.03125c35.42665 12.354524 47.80381 9.445213 82.03125-4.53125l7.84375-3.21875 5.9375 6.03125 59.21875 60 8.4375 8.59375-8.125 8.875-16 17.46875c-14.07835 15.36998-21.00598 31.70172-21.84375 52.5-.83907 20.8303 4.96456 46.39952 18.34375 77.71875 22.38143 52.39254 25.35757 103.15838 2.75 137.34375-21.20994 32.07208-60.1971 50.90399-110.90625 56.6875h-.0312-.0312c-47.51485 6.79989-51.03428 10.48498-86.03125 39.78125l-8.125 6.8125-8.125-6.8125c-34.99002-29.29051-38.14059-32.91875-85.65615-39.71875h-.0312c-50.70877-5.78347-90.138319-24.68464-111.3438-56.75-22.611678-34.19159-19.598211-84.95581 2.78125-137.34375 13.379203-31.31922 19.182823-56.88844 18.34375-77.71875-.837783-20.79828-7.765398-37.13002-21.84375-52.5l-16-17.46875-8.125-8.875 8.4375-8.53125 59.1875-60.03125 5.9375-6.0625 7.84375 3.21875c17.10781 6.985815 28.55832 11.297133 40.28125 12.28125s23.5379-1.416915 41.25-7.59375h.0312.0312c26.39258-10.40295 43.29038-16.6395852 63.2501-16.96875z"/><path d="m246.21346 7.8453173c-20.25741.3340742-37.36411 6.6490447-63.76964 17.0571377-35.26048 12.296573-46.29194 9.286217-80.47288-4.671249l-8.77629-3.574214-6.652991 6.759157-59.169159 60.018477-9.448664 9.554828 9.094781 9.944096 15.99549 17.44641c13.888704 15.16293 20.619436 31.05875 21.445282 51.56069s-4.900245 45.88396-18.22495 77.07561c-22.497614 52.66453-25.674722 103.94741-2.654119 138.75734 21.527648 32.55251 61.44123 51.58451 112.42848 57.39975 47.4554 6.79138 49.89016 10.0831 84.89642 39.38713l9.09478 7.60847 9.09478-7.60847c35.00983-29.30702 37.83126-32.66667 85.28569-39.45791 50.98725-5.81523 90.47617-24.77647 112.00382-57.32897 23.01611-34.80316 19.88111-86.08761-2.61873-138.75734-13.32469-31.19165-19.05079-56.57367-18.22495-77.07561s7.55658-36.39776 21.44528-51.56069l15.99549-17.44641 9.09478-9.944096-9.44866-9.590216-59.20455-60.018478-6.65299-6.723768-8.77629 3.574214c-34.18399 13.958725-45.70522 16.791795-80.96832 4.494308-27.88508-10.9913-45.11998-17.2339864-66.70686-16.8801967-.22632-.00507-.41505.00313-.63698 0-1.20832-.017016-2.40177-.017584-3.46805 0zm.49543 28.3106027c1.06562-.01757 2.0539-.02059 2.97262 0h.31849.31849c16.14366-.361734 28.98904 4.100091 56.83354 15.075396l.2831.106164.24772.106165c36.10129 12.589792 60.67816 10.156359 92.08024-1.557083l43.24444 43.810657-6.90071 7.537701c-17.79134 19.42363-27.77162 43.01514-28.84142 69.5733-1.0698 26.55817 6.12383 55.77366 20.45441 89.31995 20.16376 47.20123 19.8407 89.63626 5.02513 112.03921-15.3869 23.26694-46.22028 39.65396-91.97407 44.87231l-.21233.0354h-.21233c-44.81375 6.41331-61.29693 14.76029-90.34621 38.32546-29.05693-23.56699-45.56872-31.91226-90.3816-38.32547h-.21233l-.21233-.0354c-45.75381-5.21836-76.587159-21.60537-91.974067-44.87231-14.811105-22.39619-15.105469-64.83277 5.06052-112.03921 14.330586-33.5463 21.52421-62.76178 20.45441-89.31995-1.0698-26.55816-11.050079-50.14967-28.841426-69.5733l-6.90071-7.537701 43.209053-43.810657c31.40871 11.714349 56.01194 14.147711 92.11563 1.557083l.24772-.106165.2831-.106164c26.10269-10.288716 39.20225-14.833643 53.86092-15.075386z" fill="#0071bc" stroke="#000" stroke-width="1.031091"/><g transform="translate(-10.9923 -164)"><g fill-rule="evenodd" stroke="#000"><path d="m373.56916 746.15349c-1.3634 12.16196 88.33157 14.93975 93.40965 5.78948-9.68602-5.4731-13.36481-8.82112-16.06426-13.38988 11.81382-7.46043 12.99949-14.66283 14.05041-24.3059-9.67278 11.95007-76.35849-3.79221-79.1579-10.81621z" fill="#eac102" stroke-width=".732141"/><path d="m370.14683 765.24397c8.058-14.94877 9.58753-32.70234 21.12606-33.31143 4.30582-5.95977-9.27578-18.85452-5.57602-28.14218-16.31744 11.29002-18.60028 23.91445-27.64761 35.89567z" fill="url(#a)" stroke-width=".732141"/><path d="m148.41554 746.15349c1.3634 12.16196-88.33157 14.93975-93.40965 5.78948 9.68602-5.4731 13.36481-8.82112 16.06426-13.38988-11.81382-7.46043-12.99949-14.66283-14.05041-24.3059 9.67278 11.95007 76.35849-3.79221 79.1579-10.81621z" fill="#eac102" stroke-width=".732141"/><path d="m151.83787 765.24397c-8.058-14.94877-9.58753-32.70234-21.12606-33.31143-4.30582-5.95977 9.27578-18.85452 5.57602-28.14218 16.31744 11.29002 18.60028 23.91445 27.64761 35.89567z" fill="url(#c)" stroke-width=".732141"/><path d="m260.98438 718.90625c42.46659.14558 77.80744 7.29505 108.92187 49.125 5.9374-15.51181 11.38884-32.32326 21.65625-36.34375-47.50301-45.83819-79.97503-55.49034-130.57812-55.65625-50.59797.16701-83.04664 9.82073-130.54688 55.65625 10.2674 4.02049 15.71885 20.83194 21.65625 36.34375 31.11314-41.82821 66.42646-48.97884 108.89063-49.125z" fill="#eac102" stroke-width=".661404"/></g><path d="m177.98158 701.81963 6.53363-2.18916 11.5893 14.3259.45568-18.36171 6.3114-2.1147.42195 1.25932-.53336.1787c-.64202.21514-1.05594.41425-1.24175.59733-.18585.18314-.29746.43201-.33483.74662-.0374.31467.0481.78311.25665 1.40534l4.56696 13.63024c.2879.85931.52673 1.39998.71651 1.62202.18973.22207.42793.35922.71462.41147.28664.0523.75591-.0308 1.40782-.24924l.53335-.17871.41699 1.2445-7.89665 2.64586-.41699-1.2445.56299-.18863c.50371-.16877.85839-.33156 1.06404-.48835.20562-.15678.35437-.35218.44626-.58621.0918-.23401.11456-.4531.0682-.65727-.0863-.42149-.16753-.74583-.24362-.97301l-5.09813-15.2155-.54585 20.74838-1.46674.49145-12.90613-15.94452 4.90948 14.65251c.2482.74078.48035 1.22052.69646 1.43923.21609.21873.48394.35419.80355.40639.3196.0522.83004-.0392 1.53131-.27414l.47409-.15885.41699 1.2445-7.28922 2.44234-.41698-1.2445.41483-.139c.70127-.23496 1.1777-.47699 1.42931-.72609.25161-.24908.3961-.53095.4335-.84559s-.0779-.87197-.346-1.67201l-4.52229-13.49691c-.25151-.75063-.47213-1.22874-.66186-1.43435-.18973-.20556-.43038-.32542-.72196-.35957-.29157-.0341-.75836.0564-1.40037.27146l-.71114.23828-.42195-1.25932zm51.31923-12.10975 2.56761-.23253 8.3813 17.53426c.41463.88287.80393 1.45687 1.16789 1.72199.36392.26514.83117.37187 1.40178.32019l.34235-.031.11838 1.30715-7.73398.70043-.11838-1.30715c.24709-.0433.48994-.0757.72857-.0974.49794-.0451.82003-.12656.96627-.2444.28298-.22436.41086-.48696.38363-.78782-.0197-.21785-.21337-.73897-.58088-1.56335l-1.81215-4.0719-7.87403.71311-1.25501 4.85172c-.13221.50356-.18985.84871-.17294 1.03544.0188.20749.0897.38411.21272.52985.12302.14575.28142.24907.47521.30997.19378.0609.49815.0725.91313.035.28009-.0254.5088-.0408.6861-.0465l.11839 1.30715-6.48907.58768-.11838-1.30715c.6017-.0545 1.02942-.15337 1.28316-.29663.25373-.14326.46718-.35609.64033-.63849.17315-.28239.38201-.86349.62657-1.7433l5.14143-18.58637zm-1.62398 12.38445 6.70693-.6074-4.20683-9.03238zm27.81191-13.75362 8.41808.25264-.0398 1.32753-.56225-.0169c-.6872-.0206-1.17859.0324-1.47418.15898-.23219.0973-.4093.26911-.53133.51554-.12204.24647-.1943.74453-.21679 1.49417l-.29435 9.80809c-.0525 1.74921.11943 3.05183.51582 3.90785.39636.85603 1.07792 1.58514 2.04468 2.18732.96673.60219 2.03838.92094 3.21495.95625 1.18695.0356 2.32066-.23778 3.40113-.82022 1.08044-.58243 1.84677-1.28893 2.29899-2.11949.45218-.83055.70563-2.15688.76033-3.97898l.2831-9.43326c.0206-.68717-.0322-1.18377-.15851-1.4898-.12631-.30599-.32523-.53602-.59675-.69008-.27156-.15403-.69887-.2398-1.28192-.25732l-.6091-.0183.0398-1.32753 7.29359.21889-.0398 1.32753-.49978-.015c-.82257-.0247-1.3921.11456-1.70861.41768-.31655.30316-.48778.88683-.51369 1.751l-.30138 10.04236c-.055 1.83251-.44447 3.35016-1.16836 4.55294-.72392 1.20278-1.75253 2.1411-3.08583 2.81495-1.33333.67384-2.86938.98468-4.60817.93249-1.6451-.0494-3.13869-.45894-4.48078-1.22871-1.3421-.76977-2.31699-1.70829-2.92467-2.81556-.60769-1.10727-.88684-2.48345-.83747-4.12855l.3206-10.68269c.0206-.68717-.0274-1.1706-.14406-1.45028-.11667-.27965-.29286-.48555-.52858-.6177-.23573-.13211-.65034-.20708-1.24382-.22491l-.78089-.0234zm38.83395 2.36678 8.30194 1.59158-.25007 1.30437-.76727-.14709c-.59338-.11374-1.02361-.13788-1.2907-.0724-.26711.0655-.47752.19484-.63123.38809-.15374.19328-.28355.56613-.38945 1.11855l-2.86249 14.93122c-.13141.68544-.18429 1.09955-.15862 1.24235.0261.19592.13357.35441.32249.47548.13145.0888.5399.19896 1.22534.33037l1.15091.22064c1.31971.253 2.50228.28085 3.54773.0835 1.04542-.19732 1.99119-.59404 2.83734-1.19019.84611-.59614 1.73579-1.5578 2.66905-2.885l1.2775.7222-3.67952 6.24706-15.40693-2.95368.24712-1.28903.6752.12945c.65474.12552 1.10544.15359 1.35208.0842.24664-.0694.45635-.22275.62913-.46009.17277-.23733.31996-.67314.44157-1.30743l2.79188-14.56292c.1412-.73657.17957-1.24097.11509-1.51321-.0645-.2722-.19385-.48261-.38809-.63123-.19425-.14859-.6392-.28958-1.33486-.42296l-.67521-.12945.25007-1.30437zm33.51817 8.27998 16.17757 7.22774-.4703 6.07055-1.46573-.0901c.0685-.99617.0268-1.82202-.12528-2.47754-.1521-.6555-.41083-1.27023-.77616-1.8442-.36539-.57395-.78649-1.03591-1.26332-1.38587-.47687-.34994-1.40482-.83298-2.78384-1.44911l-4.82188-2.1543-3.25695 7.28989 2.39668 1.07078c.88447.39517 1.61952.54388 2.20513.44612.58559-.0978 1.06384-.33188 1.43475-.7024.28185-.27338.60762-.82378.97732-1.65121l.14659-.32812 1.39806.62462-3.90068 8.73075-1.39807-.62462.33781-.75609c.29742-.66574.46207-1.16834.49395-1.50778.0318-.33945-.0269-.69943-.17638-1.07995-.14946-.38051-.35749-.68737-.62408-.92058-.26662-.2332-.77083-.51551-1.51265-.84695l-2.39668-1.07077-2.89364 6.47673c-.3017.67526-.45456 1.1004-.45859 1.27543-.004.17504.0504.32771.16331.45802.1129.13031.48797.33781 1.12519.6225l2.98158 1.3321c1.66434.74359 3.05415 1.12493 4.16943 1.14403 1.11524.0191 2.21435-.22574 3.29734-.73447.85005-.39603 1.79531-1.06898 2.83579-2.01884l1.09425 1.03651-5.01078 5.23993-16.79101-7.50181.53539-1.19834.57063.25495c.66575.29743 1.09858.43947 1.2985.42611.30252-.0132.58196-.1279.83834-.34422.18008-.14772.41247-.54019.69716-1.1774l6.11873-13.6953c.27618-.61818.39919-1.05951.36905-1.32399-.0302-.26446-.17193-.52175-.42526-.77186-.13195-.13879-.68296-.4249-1.65303-.85833l.54176-1.2126z"/></g></g><text x="383.64417" y="352.11255"><tspan x="383.64417" y="352.11255"/></text></svg>