<svg display="block" height="400" width="600" xmlns="http://www.w3.org/2000/svg" xmlns:xlink="http://www.w3.org/1999/xlink"><path d="m0 .000006h600v400h-600z" fill="#fff"/><g transform="matrix(.31185356 0 0 .31185303 192.800344 60.745387)"><g transform="matrix(1.25 0 0 1.25 -137.0535 -323.25371)"><g stroke="#000"><path d="m596.59448 411.78516c-8.11797 15.08302-17.82774 34.40731-25.33175 32.04376-1.61846-.64667-2.14494-4.40134.27685-16.54719l14.67302-27.44732c2.03022-3.11985 7.79793-.75713 8.16708 2.49522z" fill="#eac102" fill-rule="evenodd"/><path d="m172.6871 411.78516c8.11796 15.08302 17.82773 34.40731 25.33174 32.04376 1.61846-.64667 2.14494-4.40134-.27685-16.54719l-14.67302-27.44732c-2.03021-3.11985-7.79793-.75713-8.16708 2.49522z" fill="#eac102" fill-rule="evenodd"/><path d="m185.11254 428.45914 2.6748-7.43832c-5.42416-6.62111-13.80629-18.69242-22.7849-33.69945-1.85624-3.10557-8.21639-1.27303-6.69923 2.17679 12.12013 21.77675 20.73277 33.23301 26.80933 38.96098z" fill="#eac102" fill-rule="evenodd"/><g transform="matrix(.3926312 0 0 .3487948 -776.35414 331.25864)"><path d="m2259.2204-21.283662 13.5127-10.69977c38.7245-10.031734 73.2534 26.8272673 73.0253 42.666284 9.6794-8.8057395 19.3588-5.7881781 29.0382-5.2796724-5.7251 18.9206564-.1378 33.0145444-6.8636 53.3246894 8.9688 2.784611 15.989 6.738417 17.9509 13.727148l8.9754-5.80764 11.0873-.527967c2.1216 52.75337-15.0802 41.15878-11.6152 60.71623l18.4788-22.70259 20.0628 2.11187c9.8196 1.86427 12.6267 13.46219 23.2305 14.78308-7.4831 10.11579-12.0387 27.91081-19.0068 40.12551-8.5556 6.21222-16.0753 5.1735-23.2306 1.5839 23.3337 8.58781 29.4491 28.73746 38.5417 39.59754-9.5595.52797-18.1418 1.58391-22.1746 2.11188 14.7377 21.02796 23.1532 37.85908 37.4856 49.62891l-8.4475 1.5839-43.8213-21.64665-36.9577-38.01364-45.4051-70.21964-1.5839-110.87312c-23.1511-11.7939305-19.6064-39.159015-72.2829-36.190252z" fill="#eac102" fill-rule="evenodd" stroke-linecap="round" stroke-linejoin="round" stroke-width="2.702232"/><path d="m2257.8362-20.616681c63.0557 6.587504 63.0115 95.729549 75.5853 148.407001l40.3183 68.26621c25.4971 24.6386 41.9797 55.29007 57.751 58.90359 15.2759 3.50002 14.2178-3.0187 29.758.65753-30.4247-13.52566-16.494-44.74695-79.7203-63.68458 20.4457-11.32653 20.4445 19.87787 61.3938 10.9959-11.2314-28.08772-35.3707-29.44338-46.2744-39.86014 16.7073-5.39702 18.5396 5.3425 30.6969.45816 13.499-5.42337 10.385-26.33514 21.0754-40.31829-13.9929-6.17329-25.3676-24.564624-42.6091-15.57753-5.9916 4.96851-14.8141 21.73624-24.7407 25.6571-4.1769-22.38029 9.8671-24.38807 12.8285-35.736673 2.9343-11.244851-1.7545-14.661675.9163-30.696885-45.4223 16.762132-28.2802 47.083998-49.0312 60.368768-.2133-32.214271 8.8979-18.51426 25.6649-53.954494-6.3299-9.420974-10.7933-7.642714-16.0356-10.537736 8.3293-18.001305.7954-28.96192 9.6214-54.0631718-16.6788-5.5724121-22.3558 3.4658318-27.0316 9.1632498-1.695-15.5926208-38.1614-65.956579-80.1669-38.448009z" fill="#eac102" fill-rule="evenodd" stroke-linejoin="round" stroke-width="2.702232"/><path d="m2348.0296 39.81348c-13.4425 30.094041-12.093 60.18808-11.1117 90.28212m32.6405-15.97299c-2.7041 15.12086-12.2496 23.40027-22.2233 31.2515m69.4478-9.02821c-23.9583 1.77752-25.7122 17.05247-61.114 22.22329m6.9447 9.72269c17.1583 3.44456 34.1187 7.08707 45.8356 15.97299m-36.8073 5.55583c23.3688 28.19752 42.9779 30.73388 50.0024 45.14106" fill="none" stroke-width="1.351116"/><g stroke-width="2.433079" transform="matrix(-.9278259 .6104274 .6104274 .9278259 3844.2704 -1752.9019)"><path d="m2069.0625 730.6875c.2238.008.4309.0937.6563.0937 12.7586 0 23.0938-12.76605 23.0937-28.5 0-15.73395-10.3352-28.49999-23.0937-28.5-.2254 0-.4325.0858-.6563.0937z" display="inline" fill="#e3e4e5"/><path d="m2066.2861 668.73151h6.9503v66.52937h-6.9503c-2.4585-25.68971-2.8624-50.12503 0-66.52937z" display="inline" fill="#eac102"/></g></g><path d="m581.41241 421.11394 2.67476 7.43833c6.08111-5.69953 14.71644-17.17198 26.89524-39.05411 1.51716-3.44982-4.84303-5.28236-6.69923-2.17679-9.02063 15.07724-17.44971 27.19265-22.87077 33.79257z" fill="#eac102" fill-rule="evenodd"/><g transform="matrix(-.3926312 0 0 .3487948 1545.6397 331.25864)"><path d="m2259.2204-21.283662 13.5127-10.69977c38.7245-10.031734 73.2534 26.8272673 73.0253 42.666284 9.6794-8.8057395 19.3588-5.7881781 29.0382-5.2796724-5.7251 18.9206564-.1378 33.0145444-6.8636 53.3246894 8.9688 2.784611 15.989 6.738417 17.9509 13.727148l8.9754-5.80764 11.0873-.527967c2.1216 52.75337-15.0802 41.15878-11.6152 60.71623l18.4788-22.70259 20.0628 2.11187c9.8196 1.86427 12.6267 13.46219 23.2305 14.78308-7.4831 10.11579-12.0387 27.91081-19.0068 40.12551-8.5556 6.21222-16.0753 5.1735-23.2306 1.5839 23.3337 8.58781 29.4491 28.73746 38.5417 39.59754-9.5595.52797-18.1418 1.58391-22.1746 2.11188 14.7377 21.02796 23.1532 37.85908 37.4856 49.62891l-8.4475 1.5839-43.8213-21.64665-36.9577-38.01364-45.4051-70.21964-1.5839-110.87312c-23.1511-11.7939305-19.6064-39.159015-72.2829-36.190252z" fill="#eac102" fill-rule="evenodd" stroke-linecap="round" stroke-linejoin="round" stroke-width="2.702232"/><path d="m2257.8362-20.616681c63.0557 6.587504 63.0115 95.729549 75.5853 148.407001l40.3183 68.26621c25.4971 24.6386 41.9797 55.29007 57.751 58.90359 15.2759 3.50002 14.2178-3.0187 29.758.65753-30.4247-13.52566-16.494-44.74695-79.7203-63.68458 20.4457-11.32653 20.4445 19.87787 61.3938 10.9959-11.2314-28.08772-35.3707-29.44338-46.2744-39.86014 16.7073-5.39702 18.5396 5.3425 30.6969.45816 13.499-5.42337 10.385-26.33514 21.0754-40.31829-13.9929-6.17329-25.3676-24.564624-42.6091-15.57753-5.9916 4.96851-14.8141 21.73624-24.7407 25.6571-4.1769-22.38029 9.8671-24.38807 12.8285-35.736673 2.9343-11.244851-1.7545-14.661675.9163-30.696885-45.4223 16.762132-28.2802 47.083998-49.0312 60.368768-.2133-32.214271 8.8979-18.51426 25.6649-53.954494-6.3299-9.420974-10.7933-7.642714-16.0356-10.537736 8.3293-18.001305.7954-28.96192 9.6214-54.0631718-16.6788-5.5724121-22.3558 3.4658318-27.0316 9.1632498-1.695-15.5926208-38.1614-65.956579-80.1669-38.448009z" fill="#eac102" fill-rule="evenodd" stroke-linejoin="round" stroke-width="2.702232"/><path d="m2348.0296 39.81348c-13.4425 30.094041-12.093 60.18808-11.1117 90.28212m32.6405-15.97299c-2.7041 15.12086-12.2496 23.40027-22.2233 31.2515m69.4478-9.02821c-23.9583 1.77752-25.7122 17.05247-61.114 22.22329m6.9447 9.72269c17.1583 3.44456 34.1187 7.08707 45.8356 15.97299m-36.8073 5.55583c23.3688 28.19752 42.9779 30.73388 50.0024 45.14106" fill="none" stroke-width="1.351116"/><g stroke-width="2.433079" transform="matrix(-.9278259 .6104274 .6104274 .9278259 3844.2704 -1752.9019)"><path d="m2069.0625 730.6875c.2238.008.4309.0937.6563.0937 12.7586 0 23.0938-12.76605 23.0937-28.5 0-15.73395-10.3352-28.49999-23.0937-28.5-.2254 0-.4325.0858-.6563.0937z" display="inline" fill="#e3e4e5"/><path d="m2066.2861 668.73151h6.9503v66.52937h-6.9503c-2.4585-25.68971-2.8624-50.12503 0-66.52937z" display="inline" fill="#eac102"/></g></g><path d="m384.69173 355.7638c-1.3687.0168-2.7517.87895-2.7975 2.52601-1.2603 16.30334-7.9326 41.71551-32.69891 46.31782-24.5644 4.56482-46.2228-30.13427-47.1402-43.93151.0136-2.05972-1.653-2.85925-3.3374-2.77045-1.9089.10064-3.8464 1.3397-3.3742 3.16623 3.6638 18.83803-.18243 42.79041-17.1776 47.12103-20.8415 5.31072-49.78718-39.14153-54.6249-64.75364-1.2215-4.72352-8.2535-2.87278-6.9079.59367 15.31343 25.97423 14.54633 68.25571 5.3743 72.11048-9.4021 2.86473-29.0135-20.00166-40.0239-40.15997-1.8725-2.72803-8.7673-1.31129-7.1287 2.18843 8.0133 15.48601 15.9711 30.96868 16.3433 46.71361-.9195-.91318-2.1092-2.27569-3.411-3.86467l-2.6748 7.43832c6.4605 6.08993 10.0517 5.69722 11.8526 4.08584 3.6029-3.22369 3.6745-9.8907-1.1534-24.74785 8.887 8.96934 22.8577 19.9723 31.8522 13.91048 8.9946-6.06181 9.8235-16.98958 9.006-30.21892 11.0032 13.66319 27.7337 27.75873 42.7477 24.25895 15.2115-3.54582 21.8511-16.95133 23.8892-34.00211 8.3819 15.45473 25.6556 33.12361 46.944 30.41682 20.45161-2.6004 32.19981-25.41417 34.39201-32.91954 2.1922 7.50537 13.9526 30.31914 34.4043 32.91954 21.2884 2.70679 38.5498-14.96209 46.9317-30.41682 2.0381 17.05078 8.6776 30.45629 23.8892 34.00211 15.0139 3.49978 31.7444-10.59576 42.7477-24.25895-.8176 13.22934.0113 24.15711 9.006 30.21892 8.9945 6.06182 22.9652-4.94114 31.8522-13.91048-4.828 14.85715-4.7564 21.52416-1.1534 24.74785 1.7927 1.60404 5.3617 2.01034 11.7667-3.99271l-2.6748-7.43833c-1.2697 1.54579-2.4235 2.87617-3.3251 3.77155.3722-15.74493 8.3299-31.2276 16.3432-46.71361 1.6387-3.49972-5.2439-4.91646-7.1164-2.18843-11.0104 20.15831-30.6217 43.0247-40.0238 40.15997-10.0051-3.28887-9.37535-45.13859 5.3619-72.11048 1.3457-3.46645-5.6863-5.31719-6.9078-.59367-3.20036 26.01722-32.05298 69.54101-54.6127 64.75364-17.15621-3.6407-20.8537-28.283-17.1899-47.12103.8889-3.43818-6.7283-4.78985-6.6992-.39578-.9174 13.79724-22.5881 48.49633-47.1526 43.93151-24.7662-4.60231-31.426-30.01448-32.6865-46.31782.0112-1.71426-1.343-2.54281-2.7116-2.52601z" fill="#eac102" fill-rule="evenodd"/><path d="m338.43547 313.89342s11.35571-2.0761 17.49512 7.32569c6.03249 9.23797 20.74758 8.27094 20.74758 8.27094l-6.22426 20.79552-40.11195-15.59664c-.27907 0 2.46124-3.92363 7.60742-3.54469 5.14617.37894 8.06103 7.18826 15.90646 4.01732z" fill="#eac102" fill-rule="evenodd"/><path d="m430.84983 313.89342s-11.3557-2.0761-17.49511 7.32569c-6.03249 9.23797-20.74759 8.27094-20.74759 8.27094l6.22427 20.79552 40.11195-15.59664c.27907 0-2.46124-3.92363-7.60742-3.54469s-8.06103 7.18826-15.90647 4.01732z" fill="#eac102" fill-rule="evenodd"/><path d="m384.54449 259.20374c-6.90081 7.64115-13.93546 16.22983-14.31562 27.51691-5.53272-5.9117-11.06858-1.7774-16.60125-.718 2.77959 3.83533-.0789 14.34655 3.68643 21.5147-4.02731.32456-5.8456 3.96754-8.29449 6.13446 1.64881 6.28741 20.46545 7.17727 23.74062 18.6679-20.48716-2.09432-13.99873-17.28704-34.57869-18.42857-3.28943 17.37366 9.81668 13.93434 10.83807 23.39156-6.25738 1.20291-7.81995-5.27635-13.27115-5.01338-7.64013.36858-10.94644 8.93397-15.77792 11.86583 7.44784 2.07987 10.2456 9.35007 17.71948 11.11005 4.03915.95117 5.94115-6.37101 12.25122-3.07353-6.18864 8.79725-12.36187 6.21257-9.22839 18.66791 23.42404 2.11937 13.85088-14.24248 29.51607-11.81545-23.66111 14.92359-10.6612 20.595-16.60125 32.14608 12.18921-5.0943 16.57368-1.60863 31.01517-12.21854 14.44149 10.60991 18.826 7.12424 31.01517 12.21854-5.94005-11.55108 7.05986-17.22249-16.60124-32.14608 15.66519-2.42703 6.09206 13.93482 29.51606 11.81545 3.13349-12.45534-3.03974-9.87066-9.22839-18.66791 6.31007-3.29748 8.21208 4.0247 12.25122 3.07353 7.47388-1.75998 10.27156-9.03018 17.71949-11.11005-4.83149-2.93186-8.13779-11.49725-15.77793-11.86583-5.4512-.26297-7.01377 6.21629-13.27115 5.01338 1.02143-9.45722 14.12751-6.0179 10.83807-23.39156-20.58 1.14153-14.09164 16.33425-34.57868 18.42857 3.27516-11.49063 22.0918-12.38049 23.74061-18.6679-2.44889-2.16692-4.26717-5.8099-8.29449-6.13446 3.76531-7.16815.90688-17.67937 3.68643-21.5147-5.53267-1.0594-11.06853-5.1937-16.60124.718-.38017-11.28708-7.41478-19.87576-14.31562-27.51691l-.0983-.10077z" fill="#eac102" fill-rule="evenodd"/><path d="m384.8013 333.73678c-.71326-1.31615 0-63.59517 0-63.59517m-3.73983 85.88299c-1.84872 7.46818-8.42311 19.42366-16.1356 23.66377m8.09882-30.36899c-6.11904.31812-17.44312 6.62757-21.97199 9.58781m20.90205-12.43351c-21.63139 2.01474-30.45905-6.94102-37.15101-4.14998m38.0468-2.30415s-5.31106-1.588-11.53926-3.33376c-4.00226-1.12184-6.42552-6.14372-8.9805-8.90322m29.50482 4.60234s-.32044-4.15255-5.16682-15.78931c-4.69717-11.27811-10.80331-17.29311-10.80331-17.29311m22.35864 56.72211c1.84876 7.46818 8.42308 19.42366 16.1356 23.66377m-8.09878-30.36899c6.11904.31812 17.44313 6.62757 21.97195 9.58781m-20.902-12.43351c21.63138 2.01474 30.45904-6.94102 37.151-4.14998m-38.0468-2.30415s5.31106-1.588 11.53926-3.33376c4.00223-1.12184 6.42552-6.14372 8.9805-8.90322m-29.5049 4.60234s.32048-4.15255 5.16691-15.78931c4.69716-11.27811 10.8033-17.29311 10.8033-17.29311" fill="none" stroke-linecap="round" stroke-width=".5"/><path d="m2989.9221 81.516876c0 15.217764-12.3364 27.554204-27.5542 27.554204s-27.5542-12.33644-27.5542-27.554204 12.3364-27.5542 27.5542-27.5542 27.5542 12.336436 27.5542 27.5542z" style="display:inline;fill:#eac102;fill-rule:evenodd;stroke-width:1.983;stroke-linecap:round;stroke-linejoin:round" transform="matrix(.5156884 0 0 .4931367 -1142.6815 304.53326)"/><path d="m2989.9221 81.516876c0 15.217764-12.3364 27.554204-27.5542 27.554204s-27.5542-12.33644-27.5542-27.554204 12.3364-27.5542 27.5542-27.5542 27.5542 12.336436 27.5542 27.5542z" style="display:inline;fill:#e3e4e5;fill-rule:evenodd;stroke-width:2.494779;stroke-linecap:round;stroke-linejoin:round" transform="matrix(.409952 0 0 .391925 -829.45159 312.78372)"/><path d="m384.46833 410.76611c-56.61261.56447-113.87581.61709-169.47501 11.94058-12.4075 3.73883-30.1461 5.82662-34.8036 19.0699-1.5279 11.06141 12.5006 15.74938 21.2634 18.78935 41.7444 11.96344 85.853 12.97626 129.1053 14.8465 67.29051 1.28869 135.01471 1.81183 201.80631-7.1218 18.2471-3.36522 38.3394-5.44219 53.3445-16.77983 8.9596-8.3789-.9579-20.0949-10.8624-22.50474-33.9772-12.44682-71.0359-13.78245-106.9719-16.31661-27.7733-1.44701-55.5949-1.90497-83.4066-1.92335z" fill="#eac102" fill-rule="evenodd"/><path d="m384.64293 424.36335c-30.85712 0-56.87992.5738-78.81249 1.57132-4.38667.19951-8.62137.42171-12.6875.65225-48.77128 2.76678-74.92265 7.65796-88.9375 12.12586-1.16805.37241-2.27567.73194-3.28125 1.09696-5.01152 1.8212-8.09361 3.5648-9.96875 4.9808-.36877.27856-.68636.54611-.96875.80048-.29289.26383-.53742.50645-.75.74119-1.25317 1.38323-1.21876 2.22357-1.21875 2.22357l10.65625 36.73337h34.84375 302.24999 34.8438l10.6562-36.73337s.0344-.84034-1.2188-2.22357c-.2125-.23474-.4571-.47736-.75-.74119-1.7146-1.54923-4.9217-3.59514-10.9374-5.78128-.009-.003-.0228.003-.0313 0-13.0714-4.74427-39.351-10.22543-92.1875-13.22282-.01-.00057-.0213.00057-.0312 0-4.0661-.23054-8.2698-.45274-12.6563-.65225-21.9333-.99753-47.9536-1.57132-78.8125-1.57132z" fill="#eac102" fill-rule="evenodd"/><path d="m1796.3478 707.07074c0 12.73883-10.3269 23.0657-23.0657 23.0657s-23.0657-10.32687-23.0657-23.0657 10.3269-23.0657 23.0657-23.0657 23.0657 10.32687 23.0657 23.0657z" style="display:inline;fill:#eac102;fill-rule:evenodd;stroke-width:1.78393;stroke-linecap:round;stroke-linejoin:round" transform="matrix(.5526395 0 0 .5685945 -519.95504 40.358676)"/><path d="m1796.3478 707.07074c0 12.73883-10.3269 23.0657-23.0657 23.0657s-23.0657-10.32687-23.0657-23.0657 10.3269-23.0657 23.0657-23.0657 23.0657 10.32687 23.0657 23.0657z" style="display:inline;fill:#eac102;fill-rule:evenodd;stroke-width:1.804377;stroke-linecap:round;stroke-linejoin:round" transform="matrix(.5401856 0 0 .5685945 -496.50639 40.358676)"/><path d="m1796.3478 707.07074c0 12.73883-10.3269 23.0657-23.0657 23.0657s-23.0657-10.32687-23.0657-23.0657 10.3269-23.0657 23.0657-23.0657 23.0657 10.32687 23.0657 23.0657z" style="display:inline;fill:#e3e4e5;fill-rule:evenodd;stroke-width:2.06265;stroke-linecap:round;stroke-linejoin:round" transform="matrix(.4779164 0 0 .4918098 -385.79822 94.65086)"/><path d="m1796.3478 707.07074c0 12.73883-10.3269 23.0657-23.0657 23.0657s-23.0657-10.32687-23.0657-23.0657 10.3269-23.0657 23.0657-23.0657 23.0657 10.32687 23.0657 23.0657z" style="display:inline;fill:#eac102;fill-rule:evenodd;stroke-width:1.78393;stroke-linecap:round;stroke-linejoin:round" transform="matrix(-.5526395 0 0 .5685945 1289.2407 40.358676)"/><path d="m1796.3478 707.07074c0 12.73883-10.3269 23.0657-23.0657 23.0657s-23.0657-10.32687-23.0657-23.0657 10.3269-23.0657 23.0657-23.0657 23.0657 10.32687 23.0657 23.0657z" style="display:inline;fill:#eac102;fill-rule:evenodd;stroke-width:1.804377;stroke-linecap:round;stroke-linejoin:round" transform="matrix(-.5401856 0 0 .5685945 1265.7921 40.358676)"/><path d="m1796.3478 707.07074c0 12.73883-10.3269 23.0657-23.0657 23.0657s-23.0657-10.32687-23.0657-23.0657 10.3269-23.0657 23.0657-23.0657 23.0657 10.32687 23.0657 23.0657z" style="display:inline;fill:#e3e4e5;fill-rule:evenodd;stroke-width:2.06265;stroke-linecap:round;stroke-linejoin:round" transform="matrix(-.4779164 0 0 .4918098 1155.0839 94.65086)"/><path d="m269.11349 443.84929-20.41562-9.84209-1.30779.23765 19.47118 10.01371z" fill="none" stroke-linecap="round" stroke-linejoin="round"/><path d="m269.11349 443.84929-20.41562 17.26181-1.30779.23764 19.47118-17.09018z" fill="none" stroke-linecap="round" stroke-linejoin="round"/><path d="m247.36027 461.30749-18.33504-9.82602 18.29339-17.15415" display="inline" fill="none" stroke-linecap="round" stroke-linejoin="round"/><path d="m261.80059 445.31715-14.64903 13.15604-14.43461-7.94056 14.50607-12.92157z" fill="#008f4c" fill-rule="evenodd" stroke-linecap="round" stroke-linejoin="round"/><path d="m251.94977 447.14009-7.74896 6.93499-7.63553-4.17597 7.67333-6.81144z" fill="none" stroke-linecap="round" stroke-linejoin="round" stroke-width=".6"/><path d="m247.22302 458.39071-3.03708-4.31306" fill="none" stroke-linecap="round" stroke-linejoin="round" stroke-width=".6"/><path d="m232.93129 450.49369 3.66247-.6133" fill="none" stroke-linecap="round" stroke-linejoin="round" stroke-width=".6"/><path d="m251.93928 447.10912 9.57547-1.74003" fill="none" stroke-linecap="round" stroke-linejoin="round" stroke-width=".6"/><path d="m244.20401 443.14635 3.01901-5.53529" fill="none" stroke-linecap="round" stroke-linejoin="round" stroke-width=".6"/><path d="m500.17189 443.84929 20.41562-9.84209 1.30779.23765-19.47118 10.01371z" fill="none" stroke-linecap="round" stroke-linejoin="round"/><path d="m500.17189 443.84929 20.41562 17.26181 1.30779.23764-19.47118-17.09018z" fill="none" stroke-linecap="round" stroke-linejoin="round"/><path d="m521.92511 461.30749 18.33504-9.82602-18.29339-17.15415" display="inline" fill="none" stroke-linecap="round" stroke-linejoin="round"/><path d="m507.48479 445.31715 14.64903 13.15604 14.43461-7.94056-14.50607-12.92157z" fill="#008f4c" fill-rule="evenodd" stroke-linecap="round" stroke-linejoin="round"/><path d="m517.33561 447.14009 7.74896 6.93499 7.63553-4.17597-7.67333-6.81144z" fill="none" stroke-linecap="round" stroke-linejoin="round" stroke-width=".5"/><path d="m522.06236 458.39071 3.03708-4.31306" fill="none" stroke-linecap="round" stroke-linejoin="round" stroke-width=".5"/><path d="m536.35409 450.49369-3.66247-.6133" fill="none" stroke-linecap="round" stroke-linejoin="round" stroke-width=".5"/><path d="m517.3461 447.10912-9.57547-1.74003" fill="none" stroke-linecap="round" stroke-linejoin="round" stroke-width=".5"/><path d="m525.08137 443.14635-3.01901-5.53529" fill="none" stroke-linecap="round" stroke-linejoin="round" stroke-width=".5"/><rect display="inline" fill="#eac102" height="26.649967" rx="13.479209" ry="13.324984" width="52.713264" x="358.28619" y="427.55869"/><rect display="inline" fill="#ed1c24" height="23.013342" rx="12.128588" ry="11.506671" width="47.431377" x="360.92709" y="429.37701"/></g><path d="m186.98992 421.32734-2.7 5.66195c.6536.65867 1.3416 1.301 2.0538 1.93189l1.7872-6.71935c-.2971-.39777-.7482-.93869-1.141-.87449zm395.36021-.018c-.4887.008-.514.0226-1.3488 1.05762l2.0901 6.438c.5409-.46737 1.0873-.98996 1.6171-1.53176z" fill="#eac102" fill-rule="evenodd"/><g stroke="#000"><g stroke-width="2.181357" transform="matrix(-.4483888 .1357193 .1430547 .4253968 1021.2482 -112.99689)"><path d="m2069.0625 730.6875c.2238.008.4309.0937.6563.0937 12.7586 0 23.0938-12.76605 23.0937-28.5 0-15.73395-10.3352-28.49999-23.0937-28.5-.2254 0-.4325.0858-.6563.0937z" display="inline" fill="#ed1c24"/><path d="m2066.2861 668.73151h6.9503v66.52937h-6.9503c-2.4585-25.68971-2.8624-50.12503 0-66.52937z" display="inline" fill="#eac102"/></g><g fill-rule="evenodd" stroke-linecap="round" stroke-linejoin="round" transform="matrix(-.4546188 .1155684 .1218147 .4313073 1048.5404 -82.306701)"><path d="m2030.1562 670.59375c-6.0098 1.75489-10.6875 15.38298-10.6874 31.90625 0 16.52208 4.6782 30.11853 10.6874 31.875l.25.0625c.3519.083.7026.125 1.0626.125l10.8437-.0235v-18.3515c.7383-4.16079 1.1562-8.7794 1.1563-13.6875 0-4.9081-.418-9.55795-1.1563-13.71875v-18.17856z" display="inline" fill="#eac102" stroke-width="2.181357"/><path d="m2048.3786 702.48627c.01 11.4875-1.1487 22.11745-3.0292 27.87137-1.8805 5.75391-4.1992 5.75391-6.0797 0-1.8805-5.75392-3.0358-16.38387-3.0292-27.87137-.01-11.4875 1.1487-22.11745 3.0292-27.87137 1.8805-5.75391 4.1992-5.75391 6.0797 0 1.8805 5.75392 3.0358 16.38387 3.0292 27.87137z" display="inline" fill="#eac102" stroke-width="1.555318" transform="matrix(1.9787234 0 0 .9940993 -1999.3727 4.334517)"/><path d="m2042.9551 674.40063c25.1525 7.78075 23.5578 49.66352 0 57.97907-16.3463-3.47198-14.0669-57.71871 0-57.97907z" display="inline" fill="#e3e4e5" stroke-width="2.181357"/></g><g stroke-width="2.181357" transform="matrix(.4483888 .1357193 -.1430547 .4253968 -251.9626 -112.99689)"><path d="m2069.0625 730.6875c.2238.008.4309.0937.6563.0937 12.7586 0 23.0938-12.76605 23.0937-28.5 0-15.73395-10.3352-28.49999-23.0937-28.5-.2254 0-.4325.0858-.6563.0937z" display="inline" fill="#ed1c24"/><path d="m2066.2861 668.73151h6.9503v66.52937h-6.9503c-2.4585-25.68971-2.8624-50.12503 0-66.52937z" display="inline" fill="#eac102"/></g><g fill-rule="evenodd" stroke-linecap="round" stroke-linejoin="round" transform="matrix(.4546188 .1155684 -.1218147 .4313073 -279.2548 -82.306701)"><path d="m2030.1562 670.59375c-6.0098 1.75489-10.6875 15.38298-10.6874 31.90625 0 16.52208 4.6782 30.11853 10.6874 31.875l.25.0625c.3519.083.7026.125 1.0626.125l10.8437-.0235v-18.3515c.7383-4.16079 1.1562-8.7794 1.1563-13.6875 0-4.9081-.418-9.55795-1.1563-13.71875v-18.17856z" display="inline" fill="#eac102" stroke-width="2.181357"/><path d="m2048.3786 702.48627c.01 11.4875-1.1487 22.11745-3.0292 27.87137-1.8805 5.75391-4.1992 5.75391-6.0797 0-1.8805-5.75392-3.0358-16.38387-3.0292-27.87137-.01-11.4875 1.1487-22.11745 3.0292-27.87137 1.8805-5.75391 4.1992-5.75391 6.0797 0 1.8805 5.75392 3.0358 16.38387 3.0292 27.87137z" display="inline" fill="#eac102" stroke-width="1.555318" transform="matrix(1.9787234 0 0 .9940993 -1999.3727 4.334517)"/><path d="m2042.9551 674.40063c25.1525 7.78075 23.5578 49.66352 0 57.97907-16.3463-3.47198-14.0669-57.71871 0-57.97907z" display="inline" fill="#e3e4e5" stroke-width="2.181357"/></g><path d="m213.11794 486.90307s37.06156-17.86783 171.52462-17.86783c134.01755 0 171.52453 17.86783 171.52453 17.86783s-31.34738 17.86784-171.52453 17.86784c-140.62294 0-171.52462-17.86784-171.52462-17.86784z" fill="#eac102" fill-rule="evenodd"/><g fill="none"><path d="m340.98501 507.62386v-41.34063" stroke-width=".520082"/><path d="m333.10309 507.62386v-41.34063" stroke-width=".765678"/><path d="m325.66264 507.62386v-41.34063" stroke-width="1.025721"/><path d="m318.28669 507.62386v-41.34063" stroke-width="1.285764"/><path d="m311.71439 507.62386v-41.34063" stroke-width="1.545802"/><path d="m299.17981 505.39489-.17363-37.6268m6.11601 38.12181v-39.3576" stroke-width="1.805845"/><path d="m287.60739 503.70298v-34.66675m5.86312 35.65666-.17363-36.89245" stroke-width="2.051442"/><path d="m272.08181 501.72316v-30.45797m5.09412 30.95293v-31.9429m5.24803 32.93281v-33.18189" stroke-width="2.311484"/><path d="m266.64033 501.47408v-29.46485" stroke-width="2.571527"/><path d="m261.56602 499.98915v-27.48496" stroke-width="2.831566"/><path d="m256.12463 499.24506v-25.50509" stroke-width="3.091609"/><path d="m244.98383 497.01936-.1737-20.30632m5.88288 21.2963v-22.78123" stroke-width="3.337206"/><path d="m239.27453 495.28534v-17.83154" stroke-width="3.525014"/><path d="m234.04641 493.83932v-14.84891" stroke-width="3.785053"/><path d="m228.33711 491.8595v-11.63003" stroke-width="4.030649"/><path d="m222.46911 490.86959v-8.66024" stroke-width="4.276262"/><path d="m216.25849 488.89165v-4.20853" stroke-width="5.041923"/><path d="m372.34381 505.39489v-37.87262m-13.35298 39.11167.17354-40.10164m-9.90568 40.59659v-40.84566" stroke-width=".260042"/><path d="m428.30019 507.62386v-41.34063" stroke-width=".520082"/><path d="m436.18201 507.62386v-41.34063" stroke-width=".765678"/><path d="m443.62246 507.62386v-41.34063" stroke-width="1.025721"/><path d="m450.99841 507.62386v-41.34063" stroke-width="1.285764"/><path d="m457.57071 507.62386v-41.34063" stroke-width="1.545802"/><path d="m470.10538 505.39489.17363-37.6268m-6.1161 38.12181v-39.3576" stroke-width="1.805845"/><path d="m481.67771 503.70298v-34.66675m-5.86303 35.65666.17354-36.89245" stroke-width="2.051442"/><path d="m497.20339 501.72316v-30.45797m-5.09422 30.95293v-31.9429m-5.24803 32.93281v-33.18189" stroke-width="2.311484"/><path d="m502.64486 501.47408v-29.46485" stroke-width="2.571527"/><path d="m507.71917 499.98915v-27.48496" stroke-width="2.831566"/><path d="m513.16056 499.24506v-25.50509" stroke-width="3.091609"/><path d="m524.3013 497.01936.17372-20.30632m-5.88293 21.2963v-22.78123" stroke-width="3.337206"/><path d="m530.0106 495.28534v-17.83154" stroke-width="3.525014"/><path d="m535.23872 493.83932v-14.84891" stroke-width="3.785053"/><path d="m540.94802 491.8595v-11.63003" stroke-width="4.030649"/><path d="m546.81602 490.86959v-8.66024" stroke-width="4.276262"/><path d="m553.02659 488.89165v-4.20853" stroke-width="5.041923"/><path d="m396.94129 505.39489v-37.87262m13.35307 39.11167-.17354-40.10164m9.90559 40.59659v-40.84566" stroke-width=".260042"/></g><path d="m384.48911 456.76925c-52.17482.52021-104.94361.57554-156.18456 11.01141-11.435 3.44575-27.79124 5.3639-32.08365 17.56909-1.40822 10.19432 11.50827 14.52148 19.58428 17.32316 38.47209 11.02566 79.1413 11.9655 119.00318 13.68913 62.0158 1.18767 124.40827 1.64837 185.96427-6.58499 16.81677-3.10144 35.33335-5.01624 49.16225-15.46516 8.25728-7.72211-.86558-18.51768-9.99369-20.73862-31.31383-11.47114-65.46476-12.69248-98.58375-15.02799-25.59623-1.33357-51.23671-1.75909-76.86833-1.77603zm.14405 12.2683c134.01746.00002 171.53522 17.86964 171.53522 17.86964-.00009-.00001-31.35816 17.86964-171.53522 17.86964-140.62303 0-171.50647-17.86964-171.50647-17.86964 0-.00001 37.04332-17.86964 171.50647-17.86964z" fill="#eac102" fill-rule="evenodd"/><path d="m231.25548 38.547443c0 8.37296-6.78763 15.160585-15.16058 15.160585-8.37296 0-15.16059-6.787625-15.16059-15.160585s6.78763-15.160585 15.16059-15.160585c8.37295 0 15.16058 6.787625 15.16058 15.160585z" display="inline" fill="#e3e4e5" fill-rule="evenodd" stroke-linecap="round" stroke-width=".772516" transform="matrix(1.2202403 -.06710359 .06710359 1.2202403 -58.954035 323.52501)"/><path d="m231.25548 38.547443c0 8.37296-6.78763 15.160585-15.16058 15.160585-8.37296 0-15.16059-6.787625-15.16059-15.160585s6.78763-15.160585 15.16059-15.160585c8.37295 0 15.16058 6.787625 15.16058 15.160585z" display="inline" fill="#e3e4e5" fill-rule="evenodd" stroke-linecap="round" stroke-width=".772516" transform="matrix(1.2844633 -.07063541 .07063541 1.2844633 -65.722315 287.9293)"/><path d="m231.25548 38.547443c0 8.37296-6.78763 15.160585-15.16058 15.160585-8.37296 0-15.16059-6.787625-15.16059-15.160585s6.78763-15.160585 15.16059-15.160585c8.37295 0 15.16058 6.787625 15.16058 15.160585z" display="inline" fill="#e3e4e5" fill-rule="evenodd" stroke-linecap="round" stroke-width=".772516" transform="matrix(1.316575 -.07240125 .07240125 1.316575 -46.595113 314.87292)"/><path d="m231.25548 38.547443c0 8.37296-6.78763 15.160585-15.16058 15.160585-8.37296 0-15.16059-6.787625-15.16059-15.160585s6.78763-15.160585 15.16059-15.160585c8.37295 0 15.16058 6.787625 15.16058 15.160585z" display="inline" fill="#e3e4e5" fill-rule="evenodd" stroke-linecap="round" stroke-width=".772516" transform="matrix(-1.2202402 -.06710364 -.06710364 1.2202402 828.23962 323.52501)"/><path d="m231.25548 38.547443c0 8.37296-6.78763 15.160585-15.16058 15.160585-8.37296 0-15.16059-6.787625-15.16059-15.160585s6.78763-15.160585 15.16059-15.160585c8.37295 0 15.16058 6.787625 15.16058 15.160585z" display="inline" fill="#e3e4e5" fill-rule="evenodd" stroke-linecap="round" stroke-width=".772516" transform="matrix(-1.2844634 -.07063541 -.07063541 1.2844634 835.00792 287.92929)"/><path d="m231.25548 38.547443c0 8.37296-6.78763 15.160585-15.16058 15.160585-8.37296 0-15.16059-6.787625-15.16059-15.160585s6.78763-15.160585 15.16059-15.160585c8.37295 0 15.16058 6.787625 15.16058 15.160585z" display="inline" fill="#e3e4e5" fill-rule="evenodd" stroke-linecap="round" stroke-width=".772516" transform="matrix(-1.316575 -.0724013 -.0724013 1.316575 815.8807 314.87293)"/></g></g><g transform="translate(-1.928826 -147.21096)"><path d="m343.875 811.9375c-.28224-.42282-.59427-.82628-.875-1.25-3.43097-5.17843-6.74002-10.44395-10-15.71875s-6.46724-10.5731-9.65625-15.875c-6.37802-10.60379-12.712-21.17215-19.40625-31.46875-3.34713-5.1483-6.79879-10.25115-10.375-15.21875s-7.28219-9.81362-11.1875-14.53125c-4.28623 2.03258-8.08524 4.17382-11.59375 6.46875s-6.72487 4.75678-9.8125 7.375-6.07016 5.40378-9.09375 8.40625-6.08987 6.2086-9.40625 9.65625c-3.40166 2.55125-15.16746 12.45788-23.4375 18.71875-3.33605-3.69692-6.6587-7.34619-10.0625-10.75-1.60881-1.60882-2.97714-3.21274-4.25-4.75s-2.45336-3.02153-3.625-4.40625-2.3511-2.66131-3.65625-3.8125-2.73286-2.16331-4.40625-3c-1.83068-.76221-3.60236-1.20613-5.3125-1.375s-3.35776-.0571-4.9375.28125c-1.57974.33834-3.09178.89686-4.53125 1.65625s-2.80442 1.71819-4.09375 2.8125-2.49567 2.34443-3.625 3.6875-2.19679 2.77556-3.15625 4.28125-1.81403 3.07409-2.59375 4.65625-1.47239 3.17751-2.0625 4.75c-.9812 1.9624-2.15985 3.73271-3.46875 5.375s-2.74849 3.16957-4.28125 4.65625c-3.06553 2.97337-6.4745 5.78701-9.8125 9.125-1.37219 1.37219-3.08481 3.35381-4.5625 5 35.05418 48.98938 87.27446 85.8127 146.71875 98.65625 18.58618 4.52783 37.58548 6.63725 56.5625 6.53125z" display="inline" fill="#e3e4e5" fill-rule="evenodd" transform="translate(1.928826 147.21096)"/><path d="m94.4375 570.59375c.05042 28.17579-.01254 56.35737.15625 84.53125 1.687787 47.54054 18.59776 93.26696 46 131.5625 1.47769-1.64619 3.19031-3.62781 4.5625-5 3.338-3.33799 6.74697-6.15163 9.8125-9.125 1.53276-1.48668 2.97235-3.01396 4.28125-4.65625s2.48755-3.4126 3.46875-5.375c.59011-1.57249 1.28278-3.16784 2.0625-4.75s1.63429-3.15056 2.59375-4.65625 2.02692-2.93818 3.15625-4.28125 2.33567-2.59319 3.625-3.6875 2.65428-2.05311 4.09375-2.8125 2.95151-1.31791 4.53125-1.65625 3.22736-.45012 4.9375-.28125 3.48182.61279 5.3125 1.375c1.67339.83669 3.1011 1.84881 4.40625 3s2.48461 2.42778 3.65625 3.8125 2.35214 2.86899 3.625 4.40625 2.64119 3.14118 4.25 4.75c3.4038 3.40381 6.72645 7.05308 10.0625 10.75 8.27004-6.26087 20.03584-16.1675 23.4375-18.71875 3.31638-3.44765 6.38266-6.65378 9.40625-9.65625s6.00612-5.78803 9.09375-8.40625 6.30399-5.08007 9.8125-7.375 7.30752-4.43617 11.59375-6.46875c3.90531 4.71763 7.61129 9.56365 11.1875 14.53125s7.02787 10.07045 10.375 15.21875c6.69425 10.2966 13.02823 20.86496 19.40625 31.46875 3.18901 5.3019 6.39627 10.6002 9.65625 15.875s6.56903 10.54032 10 15.71875c.28073.42372.59276.82718.875 1.25v-241.34375z" display="inline" fill="#0071bc" fill-rule="evenodd" transform="translate(1.928826 147.21096)"/><path id="a" d="m1378.899 1512.454-40.426 118.858 102.589-72.347 100.563 75.255-37.16-119.969 102.59-72.344-125.564-1.805-37.159-119.964-40.439 118.857-125.556-1.802z" fill="#e3e4e5" fill-rule="evenodd" stroke="#000" stroke-width="5.313225" transform="matrix(.09378138 0 0 .09442935 -10.670463 611.73078)"/><use height="893.34314" transform="translate(0 34.658554)" width="687.49994" xlink:href="#a"/><use height="893.34314" transform="translate(0 69.31712)" width="687.49994" xlink:href="#a"/><use height="893.34314" transform="translate(38.82763 .000002)" width="687.49994" xlink:href="#a"/><use height="893.34314" transform="translate(38.82763 34.658554)" width="687.49994" xlink:href="#a"/><use height="893.34314" transform="translate(38.82763 69.317121)" width="687.49994" xlink:href="#a"/><use height="893.34314" transform="translate(77.655252 .000002)" width="687.49994" xlink:href="#a"/><use height="893.34314" transform="translate(77.655252 34.658554)" width="687.49994" xlink:href="#a"/><use height="893.34314" transform="translate(77.655252 69.317121)" width="687.49994" xlink:href="#a"/><use height="893.34314" transform="translate(116.48287 .000002)" width="687.49994" xlink:href="#a"/><use height="893.34314" transform="translate(116.48287 34.658554)" width="687.49994" xlink:href="#a"/><use height="893.34314" transform="translate(116.48287 69.317121)" width="687.49994" xlink:href="#a"/><use height="893.34314" transform="translate(155.31049 .000002)" width="687.49994" xlink:href="#a"/><use height="893.34314" transform="translate(155.31049 34.658554)" width="687.49994" xlink:href="#a"/><use height="893.34314" transform="translate(155.31049 69.317121)" width="687.49994" xlink:href="#a"/><use height="893.34314" transform="translate(194.13813 .000002)" width="687.49994" xlink:href="#a"/><use height="893.34314" transform="translate(194.13813 34.658554)" width="687.49994" xlink:href="#a"/><use height="893.34314" transform="translate(194.13813 69.317121)" width="687.49994" xlink:href="#a"/><g fill="#e3e4e5" fill-rule="evenodd" stroke="#000" transform="translate(1.928826 147.21096)"><path d="m210.57374 773.69897c1.50542 1.50542 26.66494-19.9987 31.90511-23.92883 13.26552-13.79061 22.73648-23.77481 39.88139-31.90512 31.24251 37.74105 50.36919 84.61148 82.95329 122.83468"/><path d="m141.63101 785.42049c1.21512-1.34051 2.39625-2.60424 3.53725-3.74524 6.67599-6.67599 13.62302-11.29348 17.54781-19.14307 4.7209-12.57994 15.66441-26.83603 30.30986-20.73832 6.69355 3.34677 9.51729 9.51729 15.95255 15.95255 7.4651 7.4651 14.45919 16.05445 22.33358 23.92884 5.0005 5.00049 8.37539 9.97064 12.76205 14.3573"/></g></g><g transform="translate(-1.928826 -147.21096)"><path d="m345.79059 717.81781v321.28129c.28132 0 .56245-.029.84375-.031 5.16878-.047 10.34579-.2821 15.5-.6562 2.42173-.1759 4.83444-.4719 7.25-.7188 3.19298-.3264 6.38415-.6757 9.5625-1.125 2.65324-.375 5.29724-.7905 7.9375-1.25 3.31556-.5772 6.61568-1.2287 9.90625-1.9375 2.08548-.4491 4.17621-.8737 6.25-1.375 4.20131-1.0159 8.35462-2.179 12.5-3.4062 1.42232-.4209 2.86636-.7733 4.28125-1.2188 5.3358-1.6807 10.62817-3.538 15.84375-5.5625 1.71489-.6655 3.39351-1.423 5.09375-2.125 3.66826-1.5151 7.31223-3.0671 10.90625-4.75 1.83986-.8612 3.64998-1.783 5.46875-2.6875 3.57662-1.7795 7.10503-3.649 10.59375-5.5937 1.58974-.8859 3.17978-1.7679 4.75-2.6875 3.57731-2.096 7.09327-4.32484 10.5625-6.59379 1.4868-.97224 3.00304-1.9027 4.46875-2.90625 4.67797-3.20347 9.2401-6.51486 13.6875-10.03125.77648-.61378 1.51223-1.28309 2.28125-1.90625 3.65302-2.96094 7.24235-6.01816 10.71875-9.1875 1.51567-1.3815 2.95727-2.8296 4.4375-4.25 2.76709-2.65562 5.48747-5.36685 8.125-8.15625 1.36623-1.44493 2.73255-2.89473 4.0625-4.375 2.76599-3.07875 5.42907-6.23983 8.03125-9.46875 1.06474-1.32105 2.15128-2.62296 3.1875-3.96875 3.5394-4.59745 6.96603-9.30777 10.15625-14.1875 33.12209-47.31075 45.32495-105.85145 42.59375-162.84375 0-16.09252 0-32.18873 0-48.28125z" display="inline" fill="#ed1c24" fill-rule="evenodd"/><path d="m509.53145 725.77184-47.43871-28.49685-13.39392 53.69455-13.39392-53.69455-47.43871 28.49685 28.49685-47.43871-53.69454-13.39392 53.69454-13.39392-28.49685-47.43871 47.43871 28.49685 13.39392-53.69455 13.39392 53.69454 47.43871-28.49684-28.49684 47.43871 53.69454 13.39392-53.69454 13.39392z" fill="#e3e4e5" stroke="#000" stroke-width="1.335744" transform="matrix(.7486464 0 0 .7486464 128.55894 352.65414)"/></g><path d="m592.96873 625.26705v-132c0-.0538-.0685-.0506-.0937-.0937 0 41.88221-.00001 83.77403 0 125.65625.10267 2.14241.0336 4.29137.0937 6.4375z" fill="#eac102" stroke="#000" stroke-width=".430974"/><path d="m343.86176 292.8881v277.71875h249c0-92.56584 0-185.15292 0-277.71875-82.99745 0-165.99873 0-249 0z" display="inline" fill="#0071bc" fill-rule="evenodd"/><g transform="translate(-1.928826 -147.21096)"><path d="m96.196838 440.09906c.05914 46.2865.04884 92.57297.04844 138.85942l249.545312-.00004v-138.85938c-83.19919 0-166.39836 0-249.593749 0z" display="inline" fill="#eac102" fill-rule="evenodd"/><g stroke="#000" stroke-width=".661311" transform="matrix(.756074 0 0 .756074 .371059 209.06936)"><g id="b" display="inline" fill="#ed1c24" stroke="#000" stroke-width="3.306555" transform="matrix(.2 0 0 .2 271.54606 323.87456)"><path d="m101.27235 5.3864909c.002 94.5276401 82.40347 137.6482791 82.40347 207.6925791 0 45.48719-36.91714 82.40433-82.40433 82.40433-45.487193 0-82.404343-36.91714-82.404343-82.40433 0-70.04427 82.406453-113.167049 82.405203-207.6925791z" fill="#ed1c24" stroke="#000" stroke-linecap="round" stroke-linejoin="round" stroke-width="3.306555"/></g><use id="c" height="910.8512" stroke="#000" stroke-width=".661311" transform="translate(-66.39251)" width="581.48883" xlink:href="#b"/><use height="910.8512" stroke="#000" stroke-width=".661311" transform="translate(66.392498)" width="581.48883" xlink:href="#b"/><use height="910.8512" stroke="#000" stroke-width=".661311" transform="translate(132.785)" width="581.48883" xlink:href="#b"/><use id="d" height="910.8512" stroke="#000" stroke-width=".661311" transform="translate(-66.39249 -.000018)" width="581.48883" xlink:href="#c"/><g stroke="#000" stroke-width=".661311"><use height="910.8512" transform="translate(-39.835495 56.658887)" width="581.48883" xlink:href="#c"/><use height="910.8512" transform="translate(30.983175 56.658887)" width="581.48883" xlink:href="#c"/><use height="910.8512" transform="translate(101.80184 56.658887)" width="581.48883" xlink:href="#c"/><use height="910.8512" transform="translate(172.62052 56.658887)" width="581.48883" xlink:href="#c"/><use height="910.8512" transform="translate(0 113.31778)" width="581.48883" xlink:href="#d"/><use height="910.8512" transform="translate(66.392489 113.31778)" width="581.48883" xlink:href="#d"/><use height="910.8512" transform="translate(132.785 113.31778)" width="581.48883" xlink:href="#d"/><use height="910.8512" transform="translate(199.17749 113.31778)" width="581.48883" xlink:href="#d"/><use height="910.8512" transform="translate(265.57 113.31778)" width="581.48883" xlink:href="#d"/></g></g></g><g transform="translate(-1.928826 -147.21096)"><path d="m96.245275 578.95848c-.000406 46.28646.0091 92.57289.107813 138.85933h249.437502v-138.85937z" display="inline" fill-rule="evenodd"/><g stroke="#000" stroke-width=".5" transform="translate(-.000006)"><g id="e" stroke="#000" stroke-width="1.10331" transform="matrix(.4702525 0 0 .4367306 271.17426 385.02335)"><a stroke="#000" stroke-width="1.10331"><g fill="#e3e4e5" stroke="#000" stroke-width="1.10331" transform="translate(-478.774 -78.6977)"><g fill="#e3e4e5" stroke="#000" stroke-width=".891331" transform="matrix(.848674 0 0 1.80541 184.518 -831.653)"><path d="m239.28287 778.97363-3.15709 2.38831v13.11749l11.21419-3.78309z" style="fill:#e3e4e5;fill-rule:evenodd;stroke:#000;stroke-width:.891331;stroke-linecap:round;stroke-linejoin:round"/><path d="m201.9089 778.97363 3.15709 2.38831v13.11749l-11.21419-3.78309z" style="fill:#e3e4e5;fill-rule:evenodd;stroke:#000;stroke-width:.891331;stroke-linecap:round;stroke-linejoin:round"/><path d="m264.51982 781.99856-5.21954 1.97582v13.11749l13.27664-3.3706z" style="fill:#e3e4e5;fill-rule:evenodd;stroke:#000;stroke-width:.891331;stroke-linecap:round;stroke-linejoin:round"/><path d="m176.88448 781.99856 5.21954 1.97582v13.11749l-13.27664-3.3706z" style="fill:#e3e4e5;fill-rule:evenodd;stroke:#000;stroke-width:.891331;stroke-linecap:round;stroke-linejoin:round"/><path d="m1055.9375 537.3125c-4.4036.68453-8.7188 1.42309-12.75 2.1875v15.56773c25.0191-7.77531 88.765-7.65827 113.625 0l-.1562-15.63023c-4.0582-.81852-8.2901-1.53522-12.5938-2.21875v7.23093l-12.5-1.65625v-7.29343c-4.2421-.50403-8.4773-.89588-12.7187-1.21875v7.26218l-12.5-.6875v-7.23093c-2.1349-.0589-4.3245-.19026-6.4063-.1875-2.0277.003-4.1899.15123-6.2812.21875v7.19968l-12.5.6875v-7.16843c-4.2545.3481-8.4791.73493-12.7188 1.25v7.44968l-12.5 1.53125z" style="fill:#e3e4e5;fill-rule:evenodd;stroke:#000;stroke-width:.891331;stroke-linecap:round;stroke-linejoin:round" transform="translate(-879.298 244.53)"/></g><path d="m372.5625 601.3125c-10.4548.0864-14.5102.58275-24.9375 2.0625-14.205 2.545-23.96875 8.3125-23.96875 8.3125l7.125 5.59375c4.43799 42.80254-2.1074 84.64225-11.4375 121.9375l-11.71875 11.65625v26.28125c20.4105 7.74018 37.91645 12.01374 54.65625 13.3125-.0716-4.48264-.26915-16.04068-.15625-25.6875.0335-2.85924.35405-5.22161.90625-7.15625.27599-.96732.6211-1.83265 1-2.59375.37879-.7611.7863-1.42851 1.25-2 .46359-.57149.9694-1.03899 1.5-1.4375.53049-.39851 1.108-.72661 1.6875-.96875 1.15889-.48429 2.378-.66645 3.625-.625 1.24689.0415 2.4841.24616 3.625.71875.57039.23629 1.1051.55392 1.625.9375.51979.38358 1.01545.84905 1.46875 1.40625s.8792 1.18034 1.25 1.9375.69645 1.64155.96875 2.625c.54449 1.9669.883 4.40742.9375 7.4375.18319 10.19918-.005 21.12601-.0625 25.4375 17.35329-1.20111 34.74055-5.59018 54.59375-13.34375v-26.28125l-11.71875-11.65625c-11.60671-53.14307-13.3566-84.20012-12.125-121.9375l7.46875-5.78125c.00001-.00005-10.57784-5.74115-24-8.0625-8.89569-1.44239-13.1077-2.21143-23.5625-2.125zm-19.40625 54.03125c.2191-.0135.43564-.007.65625 0 3.529.11525 6.84589 2.01259 7 10.4375.1539 8.42197-.0625 24.25-.0625 24.25l-13.84375-.96875c0 .00002-.25106-15.51514-.15625-23.46875.0887-7.45303 3.12045-10.04794 6.40625-10.25zm36.5 0c.2191-.0135.43564-.007.65625 0 3.529.11525 6.81465 2.01259 6.96875 10.4375.154 8.42197-.0313 23.28126-.0312 23.28125l-13.84375.96875c-.0001.00002-.25106-16.48389-.15625-24.4375.0887-7.45303 3.12045-10.04794 6.40625-10.25z" style="fill:#e3e4e5;fill-rule:evenodd;stroke:#000;stroke-width:1.10331;stroke-linecap:round;stroke-linejoin:round"/><path d="m319.341 739.3141c15.90299 6.00985 35.7118 10.64123 52.73885 10.68623 17.02703.045 36.24426-3.91966 52.71892-10.54206" style="fill:#e3e4e5;fill-rule:evenodd;stroke:#000;stroke-width:1.10331;stroke-linecap:round;stroke-linejoin:round"/><path d="m330.74391 617.36211c8.96756-4.13826 27.66638-6.94251 41.15339-6.85726 13.20976.0835 31.44039 3.18302 40.66347 6.78908" style="fill:#e3e4e5;fill-rule:evenodd;stroke:#000;stroke-width:1.10331;stroke-linecap:round;stroke-linejoin:round"/><path d="m372.09892 743.83673c-8.16-.19218-16.0936 3.86829-16.3125 17.125-.2192 13.26284.3124 29.12097.3125 29.12095l6.17025.45855c-.0395-2.08301-.21248-14.96317-.0878-25.61075.0335-2.85925.0549-5.22161.60715-7.15625.276-.96732.6211-1.83265 1-2.59375.3788-.7611.58686-1.42851 1.05056-2 .4636-.57149.81982-1.03899 1.35042-1.4375.5305-.39851.95843-.72661 1.53793-.96875 1.1589-.48429 3.32532-1.11518 4.57232-1.07373 1.2469.0415 2.98269.6949 4.12359 1.16748.5704.23629.90566.55392 1.42556.9375.5198.38358.71625.8178 1.16955 1.375s.92906 1.21159 1.29986 1.96875.6965 1.64155.9688 2.625c.5445 1.9669.49841 4.40826.58848 7.4375.33538 11.2796-.0301 23.39821-.0625 25.36075l6.31701-.45855s.4499-14.79584.0938-28.8397c-.3562-14.04875-7.9651-17.24529-16.125-17.4375z" style="fill:#e3e4e5;fill-rule:evenodd;stroke:#000;stroke-width:1.10331;stroke-linecap:round;stroke-linejoin:round"/><path d="m307.58709 751.263c16.05764 6.05757 32.11538 10.60175 48.17302 12.60292" fill="#e3e4e5" fill-rule="evenodd" stroke="#000" stroke-width="1.10331"/><path d="m436.10929 751.263c-16.0117 6.05757-32.02351 10.60175-48.03521 12.60292" fill="#e3e4e5" fill-rule="evenodd" stroke="#000" stroke-width="1.10331"/></g></a><g stroke="#000" stroke-width="1.10331" transform="translate(-478.239 -78.6977)"><path d="m372.3689 749.80441v-5.56442" fill="none" stroke="#000" stroke-width="1.10331"/><path d="m355.57529 785.15321h6.591" fill="none" stroke="#000" stroke-width="1.10331"/><path d="m355.57529 779.1456h6.591" fill="none" stroke="#000" stroke-width="1.10331"/><path d="m355.61087 761.12277h7.06008" fill="none" stroke="#000" stroke-width="1.10331"/><path d="m355.57529 767.13037h6.591" fill="none" stroke="#000" stroke-width="1.10331"/><path d="m355.57529 773.13799h6.591" fill="none" stroke="#000" stroke-width="1.10331"/><path d="m367.3413 752.25335-3.88333-6.3564" fill="none" stroke="#000" stroke-width="1.10331"/><path d="m364.14777 756.31131-7.00471-3.7753" fill="none" stroke="#000" stroke-width="1.10331"/><path d="m388.5192 785.15321h-6.591" fill="none" stroke="#000" stroke-width="1.10331"/><path d="m388.5192 779.1456h-6.591" fill="none" stroke="#000" stroke-width="1.10331"/><path d="m388.5192 761.12277h-6.591" fill="none" stroke="#000" stroke-width="1.10331"/><path d="m388.5192 767.13037h-6.591" fill="none" stroke="#000" stroke-width="1.10331"/><path d="m388.5192 773.13799h-6.591" fill="none" stroke="#000" stroke-width="1.10331"/><path d="m376.75319 751.60503 3.88333-5.70809" fill="none" stroke="#000" stroke-width="1.10331"/><path d="m380.48698 755.87911 6.46446-3.3431" fill="none" stroke="#000" stroke-width="1.10331"/><g stroke="#000" stroke-width="1.191646" transform="matrix(.828657 0 0 1.03449 189.012 -225.213)"><path d="m214.90854 807.81958s.21384-5.5146 5.71652-5.54493c5.50275-.0303 5.87071 5.5403 5.87071 5.5403" fill="none" stroke="#000" stroke-linecap="round" stroke-linejoin="round" stroke-width="1.191646"/><path d="m203.00082 808.68319s-.25923-5.51195 4.73794-5.95476c4.99724-.44281 5.7897 5.08136 5.7897 5.08136" fill="none" stroke="#000" stroke-linecap="round" stroke-linejoin="round" stroke-width="1.191646"/><path d="m190.9354 810.16398s-.51158-5.49428 4.46004-6.16565c4.97169-.67138 6.01651 4.81066 6.01651 4.81066" fill="none" stroke="#000" stroke-linecap="round" stroke-linejoin="round" stroke-width="1.191646"/><path d="m180.05727 811.90176s-.61129-5.47935 3.82024-6.27473c4.4316-.79539 5.51987 4.65839 5.51987 4.65839" fill="none" stroke="#000" stroke-linecap="round" stroke-linejoin="round" stroke-width="1.191646"/><path d="m171.6436 813.84656s-1.97709-5.15595 1.69018-6.13479c3.66731-.97885 5.23744 4.49723 5.23744 4.49723" fill="none" stroke="#000" stroke-linecap="round" stroke-linejoin="round" stroke-width="1.191646"/><path d="m238.40348 808.68319s.25923-5.51195-4.73794-5.95476c-4.99724-.44281-5.7897 5.08136-5.7897 5.08136" fill="none" stroke="#000" stroke-linecap="round" stroke-linejoin="round" stroke-width="1.191646"/><path d="m250.4689 810.16398s.51158-5.49428-4.46004-6.16565c-4.97169-.67138-6.01651 4.81066-6.01651 4.81066" fill="none" stroke="#000" stroke-linecap="round" stroke-linejoin="round" stroke-width="1.191646"/><path d="m261.34703 811.90176s.61129-5.47935-3.82024-6.27473c-4.4316-.79539-5.51987 4.65839-5.51987 4.65839" fill="none" stroke="#000" stroke-linecap="round" stroke-linejoin="round" stroke-width="1.191646"/><path d="m269.7607 813.84656s1.97709-5.15595-1.69018-6.13479c-3.66731-.97885-5.23744 4.49723-5.23744 4.49723" fill="none" stroke="#000" stroke-linecap="round" stroke-linejoin="round" stroke-width="1.191646"/></g><path d="m322.8397 725.38257c33.39685 12.03476 66.24149 12.10488 98.5242 0" fill="none" stroke="#000" stroke-width="1.10331"/><path d="m325.31688 711.8507c31.69598 9.57605 62.8487 9.73542 93.43056 0" fill="none" stroke="#000" stroke-width="1.10331"/><path d="m327.83346 698.31884c30.33732 6.95645 59.96333 7.1554 88.81519 0" fill="none" stroke="#000" stroke-width="1.10331"/><path d="m358.2222 611.15867.67477 16.1103" fill="none" stroke="#000" stroke-width="1.10331"/><path d="m384.96023 611.24302.1687 16.02595" fill="none" stroke="#000" stroke-width="1.10331"/><path d="m331.61359 630.65952c27.39399-5.48354 54.13884-4.90848 80.4194 0" fill="none" stroke="#000" stroke-width="1.10331"/><path d="m332.22592 644.19138c26.91593-2.89081 53.62497-2.67821 80.16963 0" fill="none" stroke="#000" stroke-width="1.10331"/><path d="m344.64231 628.53418-.25304 14.42336" fill="none" stroke="#000" stroke-width="1.10331"/><path d="m372.13947 626.5942v15.35117" fill="none" stroke="#000" stroke-width="1.10331"/><path d="m399.38359 628.70288.59043 14.42335" fill="none" stroke="#000" stroke-width="1.10331"/><path d="m385.29762 642.11407.1687 15.26683" fill="none" stroke="#000" stroke-width="1.10331"/><path d="m359.57175 642.5358-.42174 15.09814" fill="none" stroke="#000" stroke-width="1.10331"/><path d="m371.97078 657.54959v15.43552" fill="none" stroke="#000" stroke-width="1.10331"/><path d="m343.53792 657.63394-.84347 14.33901" fill="none" stroke="#000" stroke-width="1.10331"/><path d="m400.47222 657.63394.92782 14.59205" fill="none" stroke="#000" stroke-width="1.10331"/><path d="m341.9432 686.48065-1.18086 14.33901" fill="none" stroke="#000" stroke-width="1.10331"/><path d="m371.97078 688.08325v15.68856" fill="none" stroke="#000" stroke-width="1.10331"/><path d="m402.50443 686.565 1.09652 14.42336" fill="none" stroke="#000" stroke-width="1.10331"/><path d="m357.80046 702.92834-.84347 15.35118" fill="none" stroke="#000" stroke-width="1.10331"/><path d="m386.81587 703.09704.59043 15.18248" fill="none" stroke="#000" stroke-width="1.10331"/><path d="m339.58148 715.49606-1.60259 14.8451" fill="none" stroke="#000" stroke-width="1.10331"/><path d="m371.97078 719.20734v15.43552" fill="none" stroke="#000" stroke-width="1.10331"/><path d="m404.78181 715.66476 1.93998 14.5077" fill="none" stroke="#000" stroke-width="1.10331"/><path d="m388.24977 733.54635 1.01217 15.18248" fill="none" stroke="#000" stroke-width="1.10331"/><path d="m355.77613 733.37765-1.01217 15.35118" fill="none" stroke="#000" stroke-width="1.10331"/><g stroke="#000" stroke-width="1.10331" transform="translate(-82.2385 4.73972)"><path d="m416.332 739.85669-7.38686 12.72183" fill="none" stroke="#000" stroke-width="1.10331"/><path d="m436.64589 743.55013-4.10382 14.56854" fill="none" stroke="#000" stroke-width="1.10331"/></g><g stroke="#000" stroke-width="1.10331" transform="matrix(-1 0 0 1 825.731 4.73972)"><path d="m416.332 739.85669-7.38686 12.72183" fill="none" stroke="#000" stroke-width="1.10331"/><path d="m436.64589 743.55013-4.10382 14.56854" fill="none" stroke="#000" stroke-width="1.10331"/></g><path d="m307.5871 764.6004c16.14615 6.05757 32.29241 10.60175 48.43856 12.60292" fill="none" stroke="#000" stroke-width="1.10331"/><path d="m436.10933 764.6004c-15.89013 6.05757-31.78036 10.60175-47.67048 12.60292" fill="none" stroke="#000" stroke-width="1.10331"/><path d="m326.29628 757.52343v13.62311" fill="none" stroke="#000" stroke-width="1.10331"/><path d="m339.93555 774.60437v12.41695" fill="none" stroke="#000" stroke-width="1.10331"/><path d="m416.7854 757.52343v13.62311" fill="none" stroke="#000" stroke-width="1.10331"/><path d="m315.78372 767.52997v12.25112" fill="none" stroke="#000" stroke-width="1.10331"/><path d="m428.4105 767.52997v12.25112" fill="none" stroke="#000" stroke-width="1.10331"/><path d="m404.25393 774.60437v12.41695" fill="none" stroke="#000" stroke-width="1.10331"/><path d="m332.04699 657.71811 16.94357-.0784" fill="none" stroke="#000" stroke-width="1.10331"/><path d="m395.27163 657.71811 17.41423-.0784" fill="none" stroke="#000" stroke-width="1.10331"/><path d="m358.79586 657.56123h26.51356" fill="none" stroke="#000" stroke-width="1.10331"/><path d="m331.10567 671.21021 15.53161 1.01976" fill="none" stroke="#000" stroke-width="1.10331"/><path d="m413.54873 671.21021-16.39448 1.01976" fill="none" stroke="#000" stroke-width="1.10331"/><path d="m329.85059 684.70232c5.75331 1.04848 11.39944 1.77545 16.94357 2.19639" fill="none" stroke="#000" stroke-width="1.10331"/><path d="m414.96065 684.70232c-5.96639 1.04848-11.82164 1.77545-17.57111 2.19639" fill="none" stroke="#000" stroke-width="1.10331"/><path d="m360.75692 687.91846c7.61501.44273 15.10701.39338 22.51299 0" fill="none" stroke="#000" stroke-width="1.10331"/><path d="m360.75692 672.70062c7.61501.23104 15.10701.18673 22.51299 0" fill="none" stroke="#000" stroke-width="1.10331"/></g><g stroke="#000" stroke-width="1.10331" transform="translate(-478.587 -78.8755)"><path d="m362.23772 790.49543s-.33514-14.75018-.20028-26.19251c.13474-11.43702 5.0251-14.94529 10.04622-14.77949 5.02108.16582 9.70263 2.93792 9.92181 15.05827.21911 12.11614-.0619 25.92585-.0619 25.92585z" fill-rule="evenodd" stroke="#000" stroke-linecap="round" stroke-linejoin="round" stroke-width="1.10331"/><path d="m353.16797 655.34375c-3.2858.20206-6.31755 2.79697-6.40625 10.25-.0948 7.95361.15625 23.46877.15625 23.46875l13.84375.96875c-.00001 0 .2164-15.82803.0625-24.25-.15411-8.42491-3.471-10.32225-7-10.4375-.22061-.007-.43715-.0135-.65625 0zm36.5 0c-3.2858.20206-6.31755 2.79697-6.40625 10.25-.0948 7.95361.15615 24.43752.15625 24.4375l13.84375-.96875c-.00001.00001.18525-14.85928.0312-23.28125-.1541-8.42491-3.43975-10.32225-6.96875-10.4375-.22061-.007-.43715-.0135-.65625 0z" fill-rule="evenodd" stroke="#000" stroke-linecap="round" stroke-linejoin="round" stroke-width="1.10331"/></g></g><g stroke="#000" stroke-width=".5"><use height="910.8512" transform="translate(-74.867157)" width="581.48883" xlink:href="#e"/><use height="910.8512" transform="translate(74.867157)" width="581.48883" xlink:href="#e"/></g></g></g><g stroke="#000"><path d="m94.301311 292.84312c.20428 120.74472-.41112 241.50282.31223 362.23909 3.846883 108.35657 86.787309 207.32613 192.699859 230.20963 97.98283 23.87 207.67231-19.0271 262.97741-103.6212 33.1221-47.31073 45.3201-105.86015 42.5889-162.85245 0-108.65836 0-217.31672 0-325.97507-166.1928 0-332.38553 0-498.578399 0z" display="inline" fill="none" stroke-width="3"/><g stroke-width=".4"><path d="m370.10479 373.86605c-.75906-5.4993 2.0575-7.77146-.15782-13.07653 1.84734.78405 3.44164 2.28532 4.26308 3.56337 1.21147-5.73293 1.9491-11.84136 1.31925-17.26536 2.74633.59199 4.6556 4.80555 5.82379 6.7982 3.04126-8.15247 3.81519-15.50406 1.60487-19.8669 2.78759.25272 4.43223 3.11068 6.33583 6.3438 1.83136-2.15507 1.50674-6.60092 1.48124-11.19844.2881-2.18689.70306-4.63797 2.23985-5.81227 1.55673 10.28186 7.29542 9.39253 10.57344 20.83598 1.14492-2.26594 1.34557-4.71595 1.02843-7.80492 3.78238 1.90693 7.12258 9.09173 8.93685 19.37255 1.66722-.76017 2.42302-3.66513 3.0481-6.94613 3.66812 4.5454 4.98542 10.23102 3.17987 17.0216-.9323 1.92526-1.5217 3.88715-1.20951 6.07221 1.53839-.83525 2.04174-2.83469 2.93253-4.49642.65679 2.44693 1.3156 5.34601.76984 7.45879-1.77551 12.21719-17.67351 14.34787-27.72557 14.32581-5.62844-.0137-22.35217-2.70932-24.44407-15.32534z" fill="#ea1c24" stroke-width=".4"/><g fill="#eac102"><g stroke-width=".092003" transform="matrix(3.7021137 2.4072013 -2.6099404 3.4087875 202.42257 51.830551)"><g><path d="m84.2478 41.2137c5.6989 7.9971 18.7477 28.0809 17.7153 28.8167-1.0324.7357-15.7571-18.1538-21.4561-26.1509 0 0 3.7408-2.6658 3.7408-2.6658z"/><path d="m84.2478 41.2137c5.6989 7.9971 18.7477 28.0809 17.7153 28.8167-1.0324.7357-15.7571-18.1538-21.4561-26.1509 0 0 3.7408-2.6658 3.7408-2.6658z"/></g><g><path d="m84.9345 41.4797c.2643-.3186-.6486-2.9259-1.3399-2.7955-2.1052 1.0716-3.6726 2.1042-5.3544 3.7704-.2366.5087 1.7612 2.032 2.2677 2.1563 1.7406-.9073 2.9574-1.8382 4.4266-3.1312z"/><path d="m84.9345 41.4797c.2643-.3186-.6486-2.9259-1.3399-2.7955-2.1052 1.0716-3.6726 2.1042-5.3544 3.7704-.2366.5087 1.7612 2.032 2.2677 2.1563 1.7406-.9073 2.9574-1.8382 4.4266-3.1312z"/></g><g><path d="m87.772 46.2654c.2643-.3185-.6486-2.9259-1.3398-2.7954-2.1053 1.0715-2.9127 1.5626-4.5946 3.2288-.2365.5087 1.7613 2.032 2.2677 2.1563 1.7406-.9073 2.1975-1.2967 3.6667-2.5897z"/><path d="m87.772 46.2654c.2643-.3185-.6486-2.9259-1.3398-2.7954-2.1053 1.0715-2.9127 1.5626-4.5946 3.2288-.2365.5087 1.7613 2.032 2.2677 2.1563 1.7406-.9073 2.1975-1.2967 3.6667-2.5897z"/></g><g><path d="m103.012 69.3691c.251.3513.2905.8132.1037 1.2115-.1868.3984-.5716.6725-1.0091.7191-.4375.0465-.8612-.1416-1.1113-.4934-.251-.3513-.2905-.8132-.1037-1.2116.1868-.3983.5716-.6725 1.0091-.719.4375-.0466.8612.1415 1.1113.4934z"/><path d="m103.012 69.3691c.251.3513.2905.8132.1037 1.2115-.1868.3984-.5716.6725-1.0091.7191-.4375.0465-.8612-.1416-1.1113-.4934-.251-.3513-.2905-.8132-.1037-1.2116.1868-.3983.5716-.6725 1.0091-.719.4375-.0466.8612.1415 1.1113.4934z" stroke-linecap="round"/></g><g><path d="m84.3367 51.5124 5.876-4.1874c.1699-.1211.3817-.1154.473.0127l.0593.0831c.0912.1281.0274.3302-.1425.4513l-5.876 4.1874c-.17.1211-.3818.1155-.4731-.0126l-.0592-.0832c-.0914-.128-.0275-.3301.1424-.4512z"/><path d="m84.3367 51.5124 5.876-4.1874c.1699-.1211.3817-.1154.473.0127l.0593.0831c.0912.1281.0274.3302-.1425.4513l-5.876 4.1874c-.17.1211-.3818.1155-.4731-.0126l-.0592-.0832c-.0914-.128-.0275-.3301.1424-.4512z" stroke-linecap="round"/></g></g><path d="m380.6383 384.55287c-4.7346-4.5662-1.41568-11.43192-5.17603-15.86205 4.00432.57448 3.98909 6.39879 7.98857 6.97956-2.20169-3.55032 1.05137-8.23533-.87549-13.59082 3.06358 1.7919 4.63234 3.9823 4.64152 6.58846 2.61419-6.15715.82157-15.34291 4.78783-20.09459.0422 5.86813 4.31445 9.40243 3.85528 12.37796 2.04429-2.18203 1.50873-6.04647 3.24236-7.6579-.14573 6.75072 4.27931 12.30044 1.76683 17.63579 3.47879-1.81678 3.61764-6.94441 5.8151-8.19031-.90432 3.90791 1.6119 6.81432.52098 8.84476 2.22091-.49531 2.46615-3.18312 4.11591-2.99441-1.6467 1.93964 1.506 6.99995-.58427 8.65117 2.69283.77283 4.70179-.98031 5.85219-2.2855.1793 3.46654-4.70218 5.45076-5.08097 9.61277-8.63041-1.1482-16.99925-2.25957-30.86981-.0149z" fill-rule="evenodd" stroke-width=".4"/></g><path d="m444.10479 373.86605c-.75906-5.4993 2.0575-7.77146-.15782-13.07653 1.84734.78405 3.44164 2.28532 4.26308 3.56337 1.21147-5.73293 1.9491-11.84136 1.31925-17.26536 2.74633.59199 4.6556 4.80555 5.82379 6.7982 3.04126-8.15247 3.81519-15.50406 1.60487-19.8669 2.78759.25272 4.43223 3.11068 6.33583 6.3438 1.83136-2.15507 1.50674-6.60092 1.48124-11.19844.2881-2.18689.70306-4.63797 2.23985-5.81227 1.55673 10.28186 7.29542 9.39253 10.57344 20.83598 1.14492-2.26594 1.34557-4.71595 1.02843-7.80492 3.78238 1.90693 7.12258 9.09173 8.93685 19.37255 1.66722-.76017 2.42302-3.66513 3.0481-6.94613 3.66812 4.5454 4.98542 10.23102 3.17987 17.0216-.9323 1.92526-1.5217 3.88715-1.20951 6.07221 1.53839-.83525 2.04174-2.83469 2.93253-4.49642.65679 2.44693 1.3156 5.34601.76984 7.45879-1.77551 12.21719-17.67351 14.34787-27.72557 14.32581-5.62844-.0137-22.35217-2.70932-24.44407-15.32534z" fill="#ea1c24" stroke-width=".4"/><g fill="#eac102"><g stroke-width=".092003" transform="matrix(3.7021137 2.4072013 -2.6099404 3.4087875 276.42257 51.830551)"><path d="m84.2478 41.2137c5.6989 7.9971 18.7477 28.0809 17.7153 28.8167-1.0324.7357-15.7571-18.1538-21.4561-26.1509 0 0 3.7408-2.6658 3.7408-2.6658z"/><path d="m84.2478 41.2137c5.6989 7.9971 18.7477 28.0809 17.7153 28.8167-1.0324.7357-15.7571-18.1538-21.4561-26.1509 0 0 3.7408-2.6658 3.7408-2.6658z"/></g><g stroke-width=".092003" transform="matrix(3.7021137 2.4072013 -2.6099404 3.4087875 276.42257 51.830551)"><path d="m84.9345 41.4797c.2643-.3186-.6486-2.9259-1.3399-2.7955-2.1052 1.0716-3.6726 2.1042-5.3544 3.7704-.2366.5087 1.7612 2.032 2.2677 2.1563 1.7406-.9073 2.9574-1.8382 4.4266-3.1312z"/><path d="m84.9345 41.4797c.2643-.3186-.6486-2.9259-1.3399-2.7955-2.1052 1.0716-3.6726 2.1042-5.3544 3.7704-.2366.5087 1.7612 2.032 2.2677 2.1563 1.7406-.9073 2.9574-1.8382 4.4266-3.1312z"/></g><g stroke-width=".092003" transform="matrix(3.7021137 2.4072013 -2.6099404 3.4087875 276.42257 51.830551)"><path d="m87.772 46.2654c.2643-.3185-.6486-2.9259-1.3398-2.7954-2.1053 1.0715-2.9127 1.5626-4.5946 3.2288-.2365.5087 1.7613 2.032 2.2677 2.1563 1.7406-.9073 2.1975-1.2967 3.6667-2.5897z"/><path d="m87.772 46.2654c.2643-.3185-.6486-2.9259-1.3398-2.7954-2.1053 1.0715-2.9127 1.5626-4.5946 3.2288-.2365.5087 1.7613 2.032 2.2677 2.1563 1.7406-.9073 2.1975-1.2967 3.6667-2.5897z"/></g><g stroke-width=".092003" transform="matrix(3.7021137 2.4072013 -2.6099404 3.4087875 276.42257 51.830551)"><path d="m103.012 69.3691c.251.3513.2905.8132.1037 1.2115-.1868.3984-.5716.6725-1.0091.7191-.4375.0465-.8612-.1416-1.1113-.4934-.251-.3513-.2905-.8132-.1037-1.2116.1868-.3983.5716-.6725 1.0091-.719.4375-.0466.8612.1415 1.1113.4934z"/><path d="m103.012 69.3691c.251.3513.2905.8132.1037 1.2115-.1868.3984-.5716.6725-1.0091.7191-.4375.0465-.8612-.1416-1.1113-.4934-.251-.3513-.2905-.8132-.1037-1.2116.1868-.3983.5716-.6725 1.0091-.719.4375-.0466.8612.1415 1.1113.4934z" stroke-linecap="round"/></g><g stroke-width=".092003" transform="matrix(3.7021137 2.4072013 -2.6099404 3.4087875 276.42257 51.830551)"><path d="m84.3367 51.5124 5.876-4.1874c.1699-.1211.3817-.1154.473.0127l.0593.0831c.0912.1281.0274.3302-.1425.4513l-5.876 4.1874c-.17.1211-.3818.1155-.4731-.0126l-.0592-.0832c-.0914-.128-.0275-.3301.1424-.4512z"/><path d="m84.3367 51.5124 5.876-4.1874c.1699-.1211.3817-.1154.473.0127l.0593.0831c.0912.1281.0274.3302-.1425.4513l-5.876 4.1874c-.17.1211-.3818.1155-.4731-.0126l-.0592-.0832c-.0914-.128-.0275-.3301.1424-.4512z" stroke-linecap="round"/></g><path d="m454.6383 384.55287c-4.7346-4.5662-1.41568-11.43192-5.17603-15.86205 4.00432.57448 3.98909 6.39879 7.98857 6.97956-2.20169-3.55032 1.05137-8.23533-.87549-13.59082 3.06358 1.7919 4.63234 3.9823 4.64152 6.58846 2.61419-6.15715.82157-15.34291 4.78783-20.09459.0422 5.86813 4.31445 9.40243 3.85528 12.37796 2.04429-2.18203 1.50873-6.04647 3.24236-7.6579-.14573 6.75072 4.27931 12.30044 1.76683 17.63579 3.47879-1.81678 3.61764-6.94441 5.8151-8.19031-.90432 3.90791 1.6119 6.81432.52098 8.84476 2.22091-.49531 2.46615-3.18312 4.11591-2.99441-1.6467 1.93964 1.506 6.99995-.58427 8.65117 2.69283.77283 4.70179-.98031 5.85219-2.2855.1793 3.46654-4.70218 5.45076-5.08097 9.61277-8.63041-1.1482-16.99925-2.25957-30.86981-.0149z" fill-rule="evenodd" stroke-width=".4"/></g><path d="m516.10479 373.86605c-.75906-5.4993 2.0575-7.77146-.15782-13.07653 1.84734.78405 3.44164 2.28532 4.26308 3.56337 1.21147-5.73293 1.9491-11.84136 1.31925-17.26536 2.74633.59199 4.6556 4.80555 5.82379 6.7982 3.04126-8.15247 3.81519-15.50406 1.60487-19.8669 2.78759.25272 4.43223 3.11068 6.33583 6.3438 1.83136-2.15507 1.50674-6.60092 1.48124-11.19844.2881-2.18689.70306-4.63797 2.23985-5.81227 1.55673 10.28186 7.29542 9.39253 10.57344 20.83598 1.14492-2.26594 1.34557-4.71595 1.02843-7.80492 3.78238 1.90693 7.12258 9.09173 8.93685 19.37255 1.66722-.76017 2.42302-3.66513 3.0481-6.94613 3.66812 4.5454 4.98542 10.23102 3.17987 17.0216-.9323 1.92526-1.5217 3.88715-1.20951 6.07221 1.53839-.83525 2.04174-2.83469 2.93253-4.49642.65679 2.44693 1.3156 5.34601.76984 7.45879-1.77551 12.21719-17.67351 14.34787-27.72557 14.32581-5.62844-.0137-22.35217-2.70932-24.44407-15.32534z" fill="#ea1c24" stroke-width=".4"/><g fill="#eac102" stroke-width=".092003" transform="matrix(3.7021137 2.4072013 -2.6099404 3.4087875 348.42257 51.830551)"><path d="m84.2478 41.2137c5.6989 7.9971 18.7477 28.0809 17.7153 28.8167-1.0324.7357-15.7571-18.1538-21.4561-26.1509 0 0 3.7408-2.6658 3.7408-2.6658z"/><path d="m84.2478 41.2137c5.6989 7.9971 18.7477 28.0809 17.7153 28.8167-1.0324.7357-15.7571-18.1538-21.4561-26.1509 0 0 3.7408-2.6658 3.7408-2.6658z"/></g><g fill="#eac102" stroke-width=".092003" transform="matrix(3.7021137 2.4072013 -2.6099404 3.4087875 348.42257 51.830551)"><path d="m84.9345 41.4797c.2643-.3186-.6486-2.9259-1.3399-2.7955-2.1052 1.0716-3.6726 2.1042-5.3544 3.7704-.2366.5087 1.7612 2.032 2.2677 2.1563 1.7406-.9073 2.9574-1.8382 4.4266-3.1312z"/><path d="m84.9345 41.4797c.2643-.3186-.6486-2.9259-1.3399-2.7955-2.1052 1.0716-3.6726 2.1042-5.3544 3.7704-.2366.5087 1.7612 2.032 2.2677 2.1563 1.7406-.9073 2.9574-1.8382 4.4266-3.1312z"/></g><g fill="#eac102" stroke-width=".092003" transform="matrix(3.7021137 2.4072013 -2.6099404 3.4087875 348.42257 51.830551)"><path d="m87.772 46.2654c.2643-.3185-.6486-2.9259-1.3398-2.7954-2.1053 1.0715-2.9127 1.5626-4.5946 3.2288-.2365.5087 1.7613 2.032 2.2677 2.1563 1.7406-.9073 2.1975-1.2967 3.6667-2.5897z"/><path d="m87.772 46.2654c.2643-.3185-.6486-2.9259-1.3398-2.7954-2.1053 1.0715-2.9127 1.5626-4.5946 3.2288-.2365.5087 1.7613 2.032 2.2677 2.1563 1.7406-.9073 2.1975-1.2967 3.6667-2.5897z"/></g><g fill="#eac102" stroke-width=".092003" transform="matrix(3.7021137 2.4072013 -2.6099404 3.4087875 348.42257 51.830551)"><path d="m103.012 69.3691c.251.3513.2905.8132.1037 1.2115-.1868.3984-.5716.6725-1.0091.7191-.4375.0465-.8612-.1416-1.1113-.4934-.251-.3513-.2905-.8132-.1037-1.2116.1868-.3983.5716-.6725 1.0091-.719.4375-.0466.8612.1415 1.1113.4934z"/><path d="m103.012 69.3691c.251.3513.2905.8132.1037 1.2115-.1868.3984-.5716.6725-1.0091.7191-.4375.0465-.8612-.1416-1.1113-.4934-.251-.3513-.2905-.8132-.1037-1.2116.1868-.3983.5716-.6725 1.0091-.719.4375-.0466.8612.1415 1.1113.4934z" stroke-linecap="round"/></g><g fill="#eac102" stroke-width=".092003" transform="matrix(3.7021137 2.4072013 -2.6099404 3.4087875 348.42257 51.830551)"><path d="m84.3367 51.5124 5.876-4.1874c.1699-.1211.3817-.1154.473.0127l.0593.0831c.0912.1281.0274.3302-.1425.4513l-5.876 4.1874c-.17.1211-.3818.1155-.4731-.0126l-.0592-.0832c-.0914-.128-.0275-.3301.1424-.4512z"/><path d="m84.3367 51.5124 5.876-4.1874c.1699-.1211.3817-.1154.473.0127l.0593.0831c.0912.1281.0274.3302-.1425.4513l-5.876 4.1874c-.17.1211-.3818.1155-.4731-.0126l-.0592-.0832c-.0914-.128-.0275-.3301.1424-.4512z" stroke-linecap="round"/></g><path d="m526.6383 384.55287c-4.7346-4.5662-1.41568-11.43192-5.17603-15.86205 4.00432.57448 3.98909 6.39879 7.98857 6.97956-2.20169-3.55032 1.05137-8.23533-.87549-13.59082 3.06358 1.7919 4.63234 3.9823 4.64152 6.58846 2.61419-6.15715.82157-15.34291 4.78783-20.09459.0422 5.86813 4.31445 9.40243 3.85528 12.37796 2.04429-2.18203 1.50873-6.04647 3.24236-7.6579-.14573 6.75072 4.27931 12.30044 1.76683 17.63579 3.47879-1.81678 3.61764-6.94441 5.8151-8.19031-.90432 3.90791 1.6119 6.81432.52098 8.84476 2.22091-.49531 2.46615-3.18312 4.11591-2.99441-1.6467 1.93964 1.506 6.99995-.58427 8.65117 2.69283.77283 4.70179-.98031 5.85219-2.2855.1793 3.46654-4.70218 5.45076-5.08097 9.61277-8.63041-1.1482-16.99925-2.25957-30.86981-.0149z" fill="#eac102" fill-rule="evenodd" stroke-width=".4"/></g></g></g></svg>