<?xml version="1.0" encoding="UTF-8" standalone="no"?>
<!-- Created with Inkscape (http://www.inkscape.org/) -->
<svg
   xmlns:dc="http://purl.org/dc/elements/1.1/"
   xmlns:cc="http://web.resource.org/cc/"
   xmlns:rdf="http://www.w3.org/1999/02/22-rdf-syntax-ns#"
   xmlns:svg="http://www.w3.org/2000/svg"
   xmlns="http://www.w3.org/2000/svg"
   xmlns:sodipodi="http://sodipodi.sourceforge.net/DTD/sodipodi-0.dtd"
   xmlns:inkscape="http://www.inkscape.org/namespaces/inkscape"
   width="600"
   height="400"
   id="svg2"
   sodipodi:version="0.32"
   inkscape:version="0.45.1"
   version="1.0"
   sodipodi:docbase="C:\Documents and Settings\B1mbo\Escritorio"
   sodipodi:docname="Flag of O'Higgins Region, Chile.svg"
   inkscape:output_extension="org.inkscape.output.svg.inkscape">
  <defs
     id="defs4" />
  <sodipodi:namedview
     id="base"
     pagecolor="#ffffff"
     bordercolor="#666666"
     borderopacity="1.0"
     gridtolerance="10000"
     guidetolerance="10"
     objecttolerance="10"
     inkscape:pageopacity="0.0"
     inkscape:pageshadow="2"
     inkscape:zoom="1.6325"
     inkscape:cx="300"
     inkscape:cy="200"
     inkscape:document-units="px"
     inkscape:current-layer="layer1"
     width="600px"
     height="400px"
     inkscape:window-width="1440"
     inkscape:window-height="851"
     inkscape:window-x="0"
     inkscape:window-y="22" />
  <metadata
     id="metadata7">
    <rdf:RDF>
      <cc:Work
         rdf:about="">
        <dc:format>image/svg+xml</dc:format>
        <dc:type
           rdf:resource="http://purl.org/dc/dcmitype/StillImage" />
      </cc:Work>
    </rdf:RDF>
  </metadata>
  <g
     inkscape:label="Layer 1"
     inkscape:groupmode="layer"
     id="layer1">
    <rect
       style="opacity:1;fill:#ffffff;fill-opacity:1;stroke:none;stroke-width:1.2649653;stroke-linecap:butt;stroke-miterlimit:4;stroke-dasharray:none;stroke-opacity:1"
       id="rect17759"
       width="600"
       height="400"
       x="0"
       y="0" />
    <g
       id="g17723"
       transform="translate(0,-30.265564)">
      <g
         id="g17685">
        <path
           sodipodi:type="star"
           style="opacity:1;fill:#ffaaaa;fill-opacity:1;stroke:none;stroke-width:7.92379951;stroke-linecap:round;stroke-miterlimit:4;stroke-dasharray:none;stroke-opacity:1"
           id="path7102"
           sodipodi:sides="6"
           sodipodi:cx="237.66579"
           sodipodi:cy="214.32361"
           sodipodi:r1="177.50253"
           sodipodi:r2="153.72171"
           sodipodi:arg1="-1.0471976"
           sodipodi:arg2="-0.52359878"
           inkscape:flatsided="true"
           inkscape:rounded="0"
           inkscape:randomized="0"
           d="M 326.41705,60.601901 L 415.16832,214.3236 L 326.41706,368.04531 L 148.91453,368.04532 L 60.163254,214.32362 L 148.91451,60.60191 L 326.41705,60.601901 z "
           transform="matrix(0,0.6179999,-0.6179999,0,432.45197,53.122568)" />
        <path
           style="fill:#da121a;fill-opacity:1;stroke:none;stroke-width:4;stroke-linecap:round;stroke-miterlimit:4;stroke-dasharray:none;stroke-opacity:1"
           d="M 205,198 L 205,227.4375 L 228.75,220.5625 L 240.625,275.40625 L 252.5,282.28125 L 300,198 L 323.75,198 L 347.5,198 L 371.25,198 L 395,198 L 395,170.5625 L 286.93351,170.5625 L 254.18529,228.85988 L 246.82195,185.92116 L 205,198 z "
           id="path7056"
           sodipodi:nodetypes="ccccccccccccccc" />
        <path
           style="fill:#ffffff;fill-opacity:1;stroke:none;stroke-width:1;stroke-linecap:butt;stroke-miterlimit:4;stroke-opacity:1"
           d="M 300,90.3125 L 264.90625,110.5625 L 264.03125,112.3125 L 272.5625,110.09375 L 270.21875,119.125 L 278.09375,115.1875 L 277.65625,124.53125 L 284.5625,119 L 286.0625,128.25 L 291.65625,121.40625 L 295.0625,130.125 L 299.125,122.28125 L 304.25,130.09375 L 306.59375,121.59375 L 313.25,128.15625 L 313.75,119.34375 L 321.65625,124.40625 L 320.3125,115.65625 L 329.0625,118.96875 L 325.9375,110.71875 L 335.1875,112.125 L 333.65625,109.75 L 300,90.3125 z "
           id="path13947" />
        <g
           id="g9076">
          <path
             id="path7067"
             d="M 300,200 L 252.5,282.28125 L 264.375,289.125 L 267.34375,290.84375 L 311.875,213.71875 L 323.75,213.71875 L 335.625,213.71875 L 347.5,213.71875 L 359.375,213.71875 L 371.25,213.71875 L 383.125,213.71875 L 395,213.71875 L 395,206.84375 L 395,200 L 383.125,200 L 371.25,200 L 359.375,200 L 347.5,200 L 335.625,200 L 323.75,200 L 311.875,200 L 300,200 z "
             style="fill:#078930;fill-opacity:1;stroke:none;stroke-width:7.92379951;stroke-linecap:round;stroke-miterlimit:4;stroke-opacity:1" />
          <path
             id="path4103"
             d="M 311.875,213.71875 L 267.34375,290.84375 L 300,309.6875 L 395,254.84375 L 395,213.71875 L 383.125,213.71875 L 371.25,213.71875 L 359.375,213.71875 L 347.5,213.71875 L 335.625,213.71875 L 323.75,213.71875 L 311.875,213.71875 z M 228.75,220.5625 L 205,227.4375 L 205,254.84375 L 240.625,275.40625 L 228.75,220.5625 z "
             style="fill:#fcdd09;fill-opacity:1;stroke:none;stroke-width:7.92379951;stroke-linecap:round;stroke-miterlimit:4;stroke-dasharray:none;stroke-opacity:1" />
          <path
             style="fill:#ffffff;fill-opacity:1;stroke:#000000;stroke-width:1;stroke-linecap:round;stroke-miterlimit:4;stroke-dasharray:none;stroke-opacity:1"
             d="M 205.5,199.5 L 245.21875,188.46875 L 252.21875,229.1875 L 253.15625,234.75 L 255.9375,229.84375 L 288.09375,172.5625 L 394.5,172.5625 L 394.5,196 L 371.25,196 L 347.5,196 L 323.75,196 L 300,196 L 298.84375,196 L 298.28125,197 L 250.40625,280.5 L 240.15625,274.59375 L 235.6875,272 L 205.5,254.5625 L 205.5,199.5 z M 300,85.09375 L 298.75,85.8125 L 201.75,141.8125 L 200.5,142.5625 L 200.5,144 L 200.5,256 L 200.5,257.4375 L 201.75,258.15625 L 236.625,278.28125 L 236.625,278.59375 L 237.625,279.15625 L 249.5,286 L 251.21875,287 L 251.34375,286.78125 L 298.75,314.15625 L 300,314.90625 L 301.25,314.15625 L 398.25,258.15625 L 399.5,257.4375 L 399.5,256 L 399.5,144 L 399.5,142.5625 L 398.25,141.8125 L 301.25,85.8125 L 300,85.09375 z M 300,90.875 L 394.5,145.4375 L 394.5,168.5625 L 286.9375,168.5625 L 285.75,168.5625 L 285.1875,169.59375 L 255.1875,222.96875 L 248.78125,185.59375 L 248.40625,183.375 L 246.28125,184 L 205.5,195.78125 L 205.5,145.4375 L 300,90.875 z M 301.15625,200 L 323.75,200 L 347.5,200 L 371.25,200 L 394.5,200 L 394.5,254.5625 L 300,309.125 L 253.84375,282.46875 L 301.15625,200 z "
             id="path2162"
             sodipodi:nodetypes="cccccccccccccccccccccccccccccccccccccccccccccccccccccccccccccccccc" />
        </g>
        <g
           id="g13137"
           transform="matrix(0.2940178,0.1192091,-0.1192091,0.2940178,241.37676,122.0446)">
          <g
             id="g13139"
             style="fill:#ffffff"
             transform="matrix(40.43043,-15.47446,15.47446,40.43043,98.96673,76.07099)">
            <polygon
               id="polygon13141"
               style="fill:#ffffff"
               transform="matrix(0.951057,0.309017,-0.309017,0.951057,0,-1)"
               points="0,0 0,1 0.5,1 0,0 " />
            <polygon
               points="0,0 0,1 0.5,1 0,0 "
               transform="matrix(-0.951057,0.309017,0.309017,0.951057,0,-1)"
               style="fill:#ffffff"
               id="polygon13143" />
          </g>
          <g
             transform="matrix(27.210784,33.669772,-33.669772,27.210784,98.966754,76.07099)"
             style="fill:#ffffff"
             id="g13145">
            <polygon
               points="0,0 0,1 0.5,1 0,0 "
               transform="matrix(0.951057,0.309017,-0.309017,0.951057,0,-1)"
               style="fill:#ffffff"
               id="polygon11960" />
            <polygon
               points="0,0 0,1 0.5,1 0,0 "
               transform="matrix(-0.951057,0.309017,0.309017,0.951057,0,-1)"
               style="fill:#ffffff"
               id="use11962" />
          </g>
          <g
             transform="matrix(-2.2234033,-43.233515,43.233515,-2.2234033,98.96673,76.071028)"
             style="fill:#ffffff"
             id="g13149">
            <polygon
               points="0,0 0,1 0.5,1 0,0 "
               transform="matrix(0.951057,0.309017,-0.309017,0.951057,0,-1)"
               style="fill:#ffffff"
               id="polygon11966" />
            <polygon
               points="0,0 0,1 0.5,1 0,0 "
               transform="matrix(-0.951057,0.309017,0.309017,0.951057,0,-1)"
               style="fill:#ffffff"
               id="use11968" />
          </g>
          <g
             transform="matrix(-23.61325,36.283502,-36.283502,-23.61325,98.966746,76.070985)"
             style="fill:#ffffff"
             id="g13153">
            <polygon
               points="0,0 0,1 0.5,1 0,0 "
               transform="matrix(0.951057,0.309017,-0.309017,0.951057,0,-1)"
               style="fill:#ffffff"
               id="polygon11972" />
            <polygon
               points="0,0 0,1 0.5,1 0,0 "
               transform="matrix(-0.951057,0.309017,0.309017,0.951057,0,-1)"
               style="fill:#ffffff"
               id="use11974" />
          </g>
          <g
             transform="matrix(-41.804561,-11.245299,11.245299,-41.804561,98.96672,76.071016)"
             style="fill:#ffffff"
             id="g13157">
            <polygon
               points="0,0 0,1 0.5,1 0,0 "
               transform="matrix(0.951057,0.309017,-0.309017,0.951057,0,-1)"
               style="fill:#ffffff"
               id="polygon11978" />
            <polygon
               points="0,0 0,1 0.5,1 0,0 "
               transform="matrix(-0.951057,0.309017,0.309017,0.951057,0,-1)"
               style="fill:#ffffff"
               id="use11980" />
          </g>
        </g>
        <g
           id="g16708"
           transform="matrix(1.4169282,0,0,1.4169282,-143.38501,-92.17141)"
           style="stroke:#000000;stroke-width:0.35287604;stroke-miterlimit:4;stroke-dasharray:none;stroke-opacity:1">
          <path
             id="path15690"
             d="M 327.89471,233.40384 L 327.16326,238.00998 L 325.46314,233.66084 L 325.70037,238.32628 L 323.15019,234.41205 L 324.35609,238.91934 L 321.05469,235.63772 L 323.15019,239.78917 L 319.23596,237.25876 L 322.16175,240.89623 L 317.81261,239.23565 L 321.4303,242.1812 L 316.8044,241.44976 L 320.95585,243.58479 L 316.31017,243.84178 L 320.81747,245.06745 L 316.31017,246.27335 L 320.95585,246.53034 L 316.8044,248.66538 L 321.4303,247.93393 L 317.81261,250.87949 L 322.16175,249.21891 L 319.23596,252.85637 L 323.15019,250.32596 L 321.05469,254.47742 L 324.35609,251.19579 L 323.15019,255.70308 L 325.70037,251.78885 L 325.46314,256.4543 L 327.16326,252.10516 L 327.89471,256.71129 L 328.62616,252.10516 L 330.32628,256.4543 L 330.08905,251.78885 L 332.63923,255.70308 L 331.43333,251.19579 L 334.73473,254.47742 L 332.63923,250.32596 L 336.55346,252.85637 L 333.62767,249.21891 L 337.97681,250.87949 L 334.35912,247.93393 L 338.96525,248.66538 L 334.83357,246.53034 L 339.47924,246.27335 L 334.97195,245.06745 L 339.47924,243.84178 L 334.83357,243.58479 L 338.96525,241.44976 L 334.35912,242.1812 L 337.97681,239.23565 L 333.62767,240.89623 L 336.55346,237.25876 L 332.63923,239.78917 L 334.73473,235.63772 L 331.43333,238.91934 L 332.63923,234.41205 L 330.08905,238.32628 L 330.32628,233.66084 L 328.62616,238.00998 L 327.89471,233.40384 z M 327.89471,239.63102 C 330.88968,239.63102 333.31137,242.07248 333.31137,245.06745 C 333.31136,248.06242 330.88968,250.48411 327.89471,250.48411 C 324.89974,250.4841 322.47805,248.06242 322.47805,245.06745 C 322.47806,242.07248 324.89974,239.63102 327.89471,239.63102 z "
             style="fill:#ffffff;fill-opacity:1;stroke:#000000;stroke-width:0.35287604;stroke-linecap:butt;stroke-miterlimit:4;stroke-dasharray:none;stroke-opacity:1" />
          <path
             id="rect15704"
             d="M 348.66708,239.7101 C 344.59971,239.7101 341.2513,240.58352 340.83862,244.25693 L 330.0053,244.25693 L 330.0053,245.83843 L 340.83862,245.83843 C 341.2513,249.51406 344.59971,250.40503 348.66708,250.40503 L 348.66708,248.21069 C 345.526,248.21069 342.97365,248.18875 342.97365,245.04768 C 342.97366,241.90661 345.52601,241.88467 348.66708,241.88467 L 348.66708,239.7101 z "
             style="fill:#ffffff;fill-opacity:1;stroke:#000000;stroke-width:0.35287604;stroke-linecap:butt;stroke-miterlimit:4;stroke-dasharray:none;stroke-opacity:1" />
          <g
             transform="translate(0,-0.1260472)"
             id="g16704"
             style="stroke:#000000;stroke-width:0.35287604;stroke-miterlimit:4;stroke-dasharray:none;stroke-opacity:1">
            <path
               sodipodi:nodetypes="ccccccccccccccccccc"
               style="fill:#ffffff;fill-opacity:1;stroke:#000000;stroke-width:0.35287604;stroke-linecap:butt;stroke-miterlimit:4;stroke-dasharray:none;stroke-opacity:1"
               d="M 350.3672,239.11028 C 349.17325,239.18638 348.2717,239.52389 348.2717,239.9208 L 348.2717,242.25352 C 348.2717,242.70714 349.43225,243.06404 350.88119,243.06404 L 359.28294,243.06404 C 360.73188,243.06404 361.91219,242.70714 361.91219,242.25352 L 361.91219,239.9208 C 361.91219,239.46718 360.73188,239.11028 359.28294,239.11028 L 350.88119,239.11028 C 350.70006,239.11028 350.53776,239.0994 350.3672,239.11028 z M 357.82339,239.78242 L 360.21207,239.78242 C 360.55925,239.78242 360.84468,240.07312 360.84468,240.43479 L 360.84468,241.73953 C 360.84468,242.1012 360.55924,242.3919 360.21207,242.3919 L 357.82339,242.3919 C 357.47623,242.3919 357.21056,242.1012 357.21056,241.73953 L 357.21056,240.43479 C 357.21056,240.07312 357.47623,239.78242 357.82339,239.78242 z "
               id="rect15713" />
            <path
               sodipodi:nodetypes="ccccccccccccccccccc"
               id="path15720"
               d="M 350.3672,247.30802 C 349.17325,247.38412 348.2717,247.72162 348.2717,248.11854 L 348.2717,250.45126 C 348.2717,250.90488 349.43225,251.26178 350.88119,251.26178 L 359.28294,251.26178 C 360.73188,251.26178 361.91219,250.90487 361.91219,250.45126 L 361.91219,248.11854 C 361.91219,247.66492 360.73188,247.30802 359.28294,247.30802 L 350.88119,247.30802 C 350.70006,247.30802 350.53776,247.29714 350.3672,247.30802 z M 357.82339,247.98016 L 360.21207,247.98016 C 360.55925,247.98016 360.84468,248.27086 360.84468,248.63253 L 360.84468,249.93727 C 360.84468,250.29894 360.55924,250.58964 360.21207,250.58964 L 357.82339,250.58964 C 357.47623,250.58964 357.21056,250.29894 357.21056,249.93727 L 357.21056,248.63253 C 357.21056,248.27086 357.47623,247.98016 357.82339,247.98016 z "
               style="fill:#ffffff;fill-opacity:1;stroke:#000000;stroke-width:0.35287604;stroke-linecap:butt;stroke-miterlimit:4;stroke-dasharray:none;stroke-opacity:1" />
          </g>
          <path
             id="path15699"
             d="M 327.89003,242.67542 C 326.57517,242.67542 325.51778,243.75258 325.51777,245.06745 C 325.51777,246.38231 326.57517,247.43971 327.89003,247.43971 C 329.2049,247.43971 330.28206,246.38231 330.28206,245.06745 C 330.28206,243.75258 329.2049,242.67542 327.89003,242.67542 z M 327.73188,244.27669 C 327.78355,244.26611 327.83525,244.27669 327.89003,244.27669 C 328.32832,244.27669 328.68079,244.62916 328.68079,245.06745 C 328.68079,245.50573 328.32832,245.8582 327.89003,245.8582 C 327.45175,245.8582 327.09928,245.50573 327.09928,245.06745 C 327.09927,244.68394 327.37018,244.35077 327.73188,244.27669 z "
             style="fill:#ffffff;fill-opacity:1;stroke:#000000;stroke-width:0.35287604;stroke-linecap:butt;stroke-miterlimit:4;stroke-dasharray:none;stroke-opacity:1" />
        </g>
      </g>
      <path
         style="font-size:12px;font-style:normal;font-weight:normal;text-align:center;text-anchor:middle;fill:#000000;fill-opacity:1;stroke:none;stroke-width:1px;stroke-linecap:butt;stroke-linejoin:miter;stroke-opacity:1;font-family:Book Antiqua"
         d="M 177.86719,353.1825 L 177.86719,352.44421 C 178.54687,352.38562 178.93652,352.32996 179.03613,352.27722 C 179.10058,352.24207 179.14746,352.1864 179.17676,352.11023 C 179.23535,351.96961 179.27637,351.495 179.2998,350.6864 C 179.3291,349.4325 179.34375,348.4452 179.34375,347.72449 C 179.34375,346.75184 179.33203,345.51551 179.30859,344.0155 C 179.28515,342.89637 179.22949,342.21083 179.1416,341.95886 C 179.11816,341.8827 179.07129,341.82411 179.00098,341.78308 C 178.90722,341.7245 178.5293,341.66005 177.86719,341.58972 L 177.86719,340.85144 C 179.08008,340.89833 179.8623,340.92177 180.21387,340.92175 L 184.61719,340.84265 C 185.57226,340.84266 186.26806,340.93495 186.70459,341.11951 C 187.1411,341.30409 187.48681,341.59999 187.7417,342.0072 C 187.99657,342.41444 188.12401,342.89344 188.12402,343.44421 C 188.12401,344.14735 187.9204,344.76405 187.51318,345.29431 C 187.10595,345.82459 186.39843,346.29481 185.39063,346.70496 L 187.2627,349.52625 L 188.72168,351.68835 C 188.99706,352.03992 189.20214,352.25232 189.33691,352.32556 C 189.47167,352.3988 189.69139,352.43836 189.99609,352.44421 L 189.99609,353.12097 L 189.47754,353.12976 C 187.98925,353.14148 187.03124,353.15906 186.60352,353.1825 C 186.09374,352.36804 185.33202,351.18738 184.31836,349.6405 L 182.50781,346.88953 C 182.56054,346.78992 182.60449,346.68445 182.63965,346.57312 C 182.87402,346.60242 183.04687,346.61707 183.1582,346.61707 C 183.70312,346.61707 184.23925,346.39735 184.7666,345.95789 C 185.29394,345.51844 185.55761,344.89149 185.55762,344.07703 C 185.55761,343.36805 185.3496,342.81727 184.93359,342.42468 C 184.51757,342.03212 183.89355,341.83583 183.06152,341.83582 C 182.79785,341.83583 182.44042,341.85633 181.98926,341.89734 L 181.92773,344.49011 L 181.84863,347.77722 C 181.84863,348.52137 181.87793,349.47351 181.93652,350.63367 C 181.98339,351.50672 182.03027,351.99597 182.07715,352.10144 C 182.1123,352.17761 182.17675,352.23914 182.27051,352.28601 C 182.39355,352.35632 182.79199,352.40906 183.46582,352.44421 L 183.46582,353.1825 C 182.41113,353.14148 181.47656,353.12097 180.66211,353.12097 C 179.79492,353.12097 178.86328,353.14148 177.86719,353.1825 L 177.86719,353.1825 z M 191.45508,353.1825 L 191.45508,352.70789 C 191.76562,352.56726 192.0498,352.4032 192.30762,352.2157 C 192.4248,351.30164 192.4834,349.37976 192.4834,346.45007 C 192.4834,344.45204 192.46289,343.12782 192.42188,342.47742 C 192.40429,342.13172 192.34424,341.91346 192.2417,341.82263 C 192.13916,341.73182 191.7041,341.65419 190.93652,341.58972 L 190.93652,340.85144 C 192.31933,340.90419 193.41211,340.93055 194.21484,340.93054 L 199.05762,340.87781 C 199.56737,340.87782 200.02733,340.89833 200.4375,340.93933 L 200.49902,341.03601 C 200.37011,341.67469 200.27636,342.5243 200.21777,343.58484 L 199.52344,343.58484 C 199.49413,342.72938 199.46044,342.27235 199.42236,342.21375 C 199.38427,342.15516 199.25097,342.0995 199.02246,342.04675 C 198.53612,341.9413 197.79198,341.88856 196.79004,341.88855 C 196.29785,341.88856 195.72363,341.90907 195.06738,341.95007 C 194.99121,343.76063 194.94726,345.20203 194.93555,346.27429 C 195.56249,346.31531 196.15136,346.33582 196.70215,346.33582 C 197.51659,346.33582 198.00585,346.30946 198.16992,346.25671 C 198.26952,346.22156 198.33984,346.1366 198.38086,346.00183 C 198.41601,345.89637 198.45702,345.52723 198.50391,344.89441 L 199.25977,344.89441 C 199.23046,345.88465 199.21581,346.52918 199.21582,346.828 L 199.25977,348.80554 L 198.50391,348.80554 C 198.46288,348.03797 198.41015,347.59559 198.3457,347.47839 C 198.31054,347.40809 198.23144,347.35828 198.1084,347.32898 C 197.81542,347.26453 197.15624,347.23231 196.13086,347.2323 C 195.80859,347.23231 195.43066,347.24988 194.99707,347.28503 C 194.98535,347.59559 194.97949,347.91199 194.97949,348.23425 C 194.97949,349.91004 195.00878,351.1991 195.06738,352.10144 L 196.80762,352.12781 C 197.79784,352.12781 198.70312,352.07507 199.52344,351.9696 C 199.66991,351.43054 199.81054,350.81824 199.94531,350.13269 L 200.6748,350.13269 C 200.54003,351.16394 200.46093,352.15418 200.4375,353.10339 C 199.90429,353.16199 199.39159,353.19128 198.89941,353.19128 C 198.57714,353.19128 197.9414,353.17957 196.99219,353.15613 C 196.10742,353.13269 195.29296,353.12097 194.54883,353.12097 C 193.57031,353.12097 192.53906,353.14148 191.45508,353.1825 L 191.45508,353.1825 z M 210.02637,348.84949 L 210.02637,348.13757 C 211.09276,348.16102 212.04491,348.17273 212.88281,348.17273 C 213.65624,348.17273 214.4912,348.16102 215.3877,348.13757 L 215.3877,348.70007 C 215.12987,348.78211 214.88378,348.87879 214.64941,348.99011 C 214.57909,349.58191 214.54393,350.08582 214.54395,350.50183 C 214.54393,350.80066 214.57909,351.39246 214.64941,352.27722 C 213.48925,352.6991 212.51806,352.98474 211.73584,353.13416 C 210.9536,353.28357 210.14355,353.35828 209.30566,353.35828 C 207.04394,353.35828 205.27295,352.77087 203.99268,351.59607 C 202.7124,350.42127 202.07226,348.8993 202.07227,347.03015 C 202.07226,345.10828 202.72558,343.5702 204.03223,342.41589 C 205.33886,341.26161 207.21386,340.68446 209.65723,340.68445 C 210.51855,340.68446 211.34472,340.75184 212.13574,340.8866 C 212.92675,341.02137 213.67968,341.22645 214.39453,341.50183 L 214.47363,341.63367 C 214.3037,342.37782 214.17772,343.3036 214.0957,344.41101 L 213.35742,344.41101 C 213.35155,343.85438 213.31346,343.36219 213.24316,342.93445 C 212.86815,342.50087 212.38622,342.17567 211.79736,341.95886 C 211.20849,341.74208 210.51269,341.63368 209.70996,341.63367 C 208.20409,341.63368 207.00439,342.09071 206.11084,343.00476 C 205.21728,343.91883 204.7705,345.16981 204.77051,346.75769 C 204.7705,348.45105 205.24072,349.81482 206.18115,350.849 C 207.12158,351.88318 208.28027,352.40027 209.65723,352.40027 C 210.38964,352.40027 211.16894,352.22156 211.99512,351.86414 C 212.04198,351.41297 212.06542,350.98523 212.06543,350.58093 C 212.06542,349.67859 212.01268,349.18055 211.90723,349.08679 C 211.80175,348.99305 211.17479,348.91394 210.02637,348.84949 L 210.02637,348.84949 z M 216.89063,353.1825 L 216.89063,352.44421 C 217.69922,352.4032 218.15625,352.33582 218.26172,352.24207 C 218.36719,352.14832 218.43164,351.91687 218.45508,351.54773 C 218.49609,350.77429 218.5166,349.33289 218.5166,347.22351 C 218.5166,346.41492 218.50488,345.24305 218.48145,343.70789 C 218.46972,342.65907 218.44629,342.08339 218.41113,341.98083 C 218.37597,341.87831 218.31445,341.8036 218.22656,341.75671 C 218.09765,341.69227 217.65234,341.63661 216.89063,341.58972 L 216.89063,340.85144 C 218.09765,340.89833 219.02051,340.92177 219.65918,340.92175 C 220.76074,340.92177 221.75683,340.89833 222.64746,340.85144 L 222.64746,341.58972 C 221.85058,341.63661 221.40087,341.6996 221.29834,341.77869 C 221.1958,341.8578 221.12988,342.0409 221.10059,342.328 C 221.04785,342.89051 221.02148,344.03016 221.02148,345.74695 C 221.02148,348.03211 221.03027,349.62439 221.04785,350.5238 C 221.06542,351.42322 221.11816,351.95789 221.20605,352.12781 C 221.24121,352.20398 221.31591,352.26404 221.43018,352.30798 C 221.54443,352.35193 221.95019,352.39734 222.64746,352.44421 L 222.64746,353.1825 L 221.61035,353.15613 C 220.9541,353.13269 220.36816,353.12097 219.85254,353.12097 L 216.89063,353.1825 z M 230.64551,353.35828 C 228.48339,353.35828 226.82812,352.8031 225.67969,351.69275 C 224.53125,350.5824 223.95703,349.05457 223.95703,347.10925 C 223.95703,345.74989 224.23535,344.59412 224.79199,343.64197 C 225.34863,342.68983 226.1206,341.95887 227.10791,341.4491 C 228.09521,340.93934 229.36523,340.68446 230.91797,340.68445 C 232.4121,340.68446 233.63378,340.92909 234.58301,341.41833 C 235.53221,341.9076 236.26317,342.58729 236.77588,343.4574 C 237.28856,344.32752 237.54491,345.39539 237.54492,346.66101 C 237.54491,348.03211 237.26366,349.21717 236.70117,350.21619 C 236.13866,351.21521 235.34618,351.98865 234.32373,352.5365 C 233.30126,353.08435 232.07519,353.35828 230.64551,353.35828 L 230.64551,353.35828 z M 230.97949,352.40027 C 232.15722,352.40027 233.09618,351.96521 233.79639,351.09509 C 234.49657,350.22498 234.84667,348.90223 234.84668,347.12683 C 234.84667,345.26356 234.4453,343.83387 233.64258,342.83777 C 232.99218,342.03505 231.99023,341.63368 230.63672,341.63367 C 229.37109,341.63368 228.39111,342.05262 227.69678,342.8905 C 227.00244,343.7284 226.65527,345.01746 226.65527,346.75769 C 226.65527,348.0116 226.8457,349.07361 227.22656,349.94373 C 227.60742,350.81385 228.09228,351.4408 228.68115,351.82458 C 229.27001,352.20837 230.03613,352.40027 230.97949,352.40027 L 230.97949,352.40027 z M 229.47656,339.9989 L 228.60645,339.9989 L 230.64551,338.03015 C 231.12597,337.56728 231.4497,337.28749 231.6167,337.1908 C 231.78368,337.09413 231.958,337.04579 232.13965,337.04578 C 232.3623,337.04579 232.54247,337.11171 232.68018,337.24353 C 232.81786,337.37538 232.88671,337.54091 232.88672,337.74011 C 232.88671,337.91591 232.82958,338.06532 232.71533,338.18835 C 232.60106,338.31142 232.24218,338.53114 231.63867,338.84753 L 229.47656,339.9989 z M 238.86328,353.1825 L 238.86328,352.44421 C 239.57812,352.41492 239.99707,352.36804 240.12012,352.30359 C 240.20215,352.25671 240.26367,352.18054 240.30469,352.07507 C 240.36914,351.93445 240.41015,351.43933 240.42773,350.58972 C 240.46289,349.18348 240.48047,348.12293 240.48047,347.40808 L 240.46289,343.69031 C 240.46289,342.70594 240.43066,342.13758 240.36621,341.98523 C 240.33105,341.89735 240.27539,341.8329 240.19922,341.79187 C 240.08203,341.72157 239.63672,341.65419 238.86328,341.58972 L 238.86328,340.85144 C 239.78906,340.88075 240.47461,340.8954 240.91992,340.89539 C 241.41211,340.8954 241.97168,340.88075 242.59863,340.85144 C 243.94628,342.57411 245.46972,344.44325 247.16895,346.45886 C 248.29979,347.80652 249.27538,348.9198 250.0957,349.79871 L 250.0957,346.31824 C 250.09569,344.99989 250.07811,343.86317 250.04297,342.90808 C 250.01952,342.33973 249.97264,341.9911 249.90234,341.86218 C 249.86718,341.79188 249.80272,341.74208 249.70898,341.71277 C 249.61522,341.68348 249.20507,341.64247 248.47852,341.58972 L 248.47852,340.85144 C 249.11718,340.88075 249.75292,340.8954 250.38574,340.89539 C 251.25292,340.8954 252.03807,340.88075 252.74121,340.85144 L 252.74121,341.58972 C 252.08495,341.63075 251.68944,341.67762 251.55469,341.73035 C 251.4785,341.75965 251.41698,341.80067 251.37012,341.85339 C 251.32323,341.90614 251.28807,341.97352 251.26465,342.05554 C 251.22362,342.19618 251.20018,342.64735 251.19434,343.40906 L 251.16797,346.92468 L 251.15039,350.46667 C 251.15038,351.4159 251.17089,352.36511 251.21191,353.31433 L 251.09766,353.43738 C 250.38866,353.30847 249.88768,353.22351 249.59473,353.1825 C 248.08886,351.51257 246.26952,349.41492 244.13672,346.88953 C 243.05859,345.61219 242.18847,344.537 241.52637,343.66394 L 241.52637,347.08289 C 241.52636,348.01453 241.54101,349.1366 241.57031,350.4491 C 241.58789,351.4159 241.6289,351.97254 241.69336,352.11902 C 241.71679,352.18347 241.76074,352.23328 241.8252,352.26843 C 241.93652,352.33289 242.35839,352.39148 243.09082,352.44421 L 243.09082,353.1825 C 242.1416,353.14148 241.46191,353.12097 241.05176,353.12097 C 240.71191,353.12097 239.98242,353.14148 238.86328,353.1825 L 238.86328,353.1825 z M 259.02539,353.1825 L 259.02539,352.73425 C 259.42969,352.49988 259.71679,352.3241 259.88672,352.20691 C 259.96875,351.17566 260.00976,349.245 260.00977,346.41492 C 260.00976,345.19032 259.99658,344.16639 259.97021,343.34314 C 259.94385,342.51991 259.90429,342.04969 259.85156,341.9325 C 259.82812,341.87391 259.79004,341.82997 259.7373,341.80066 C 259.64941,341.7538 259.21875,341.68348 258.44531,341.58972 L 258.44531,340.84265 C 259.33008,340.87196 260.34668,340.88661 261.49512,340.8866 L 265.82813,340.84265 C 267.40429,340.84266 268.60106,341.04188 269.41846,341.44031 C 270.23583,341.83876 270.88475,342.44813 271.36523,343.26843 C 271.84569,344.08875 272.08592,345.08485 272.08594,346.25671 C 272.08592,347.76258 271.71092,349.06043 270.96094,350.15027 C 270.21093,351.24011 269.29686,352.01648 268.21875,352.47937 C 267.14062,352.94226 265.98925,353.17371 264.76465,353.17371 L 261.43359,353.12097 C 260.90039,353.12097 260.09765,353.14148 259.02539,353.1825 L 259.02539,353.1825 z M 262.58496,352.10144 C 263.07714,352.18347 263.58105,352.22449 264.09668,352.22449 C 265.40331,352.22449 266.39941,352.03699 267.08496,351.66199 C 267.7705,351.28699 268.32567,350.67322 268.75049,349.82068 C 269.17528,348.96814 269.38768,347.92078 269.3877,346.67859 C 269.38768,345.04383 268.96581,343.79872 268.12207,342.94324 C 267.37792,342.18153 266.1621,341.80067 264.47461,341.80066 C 264.11132,341.80067 263.48144,341.82997 262.58496,341.88855 L 262.51465,347.37292 C 262.51464,349.68152 262.53808,351.25769 262.58496,352.10144 L 262.58496,352.10144 z M 274.00195,353.1825 L 274.00195,352.70789 C 274.3125,352.56726 274.59668,352.4032 274.85449,352.2157 C 274.97168,351.30164 275.03027,349.37976 275.03027,346.45007 C 275.03027,344.45204 275.00976,343.12782 274.96875,342.47742 C 274.95117,342.13172 274.89111,341.91346 274.78857,341.82263 C 274.68603,341.73182 274.25098,341.65419 273.4834,341.58972 L 273.4834,340.85144 C 274.86621,340.90419 275.95898,340.93055 276.76172,340.93054 L 281.60449,340.87781 C 282.11425,340.87782 282.57421,340.89833 282.98438,340.93933 L 283.0459,341.03601 C 282.91698,341.67469 282.82323,342.5243 282.76465,343.58484 L 282.07031,343.58484 C 282.04101,342.72938 282.00732,342.27235 281.96924,342.21375 C 281.93114,342.15516 281.79784,342.0995 281.56934,342.04675 C 281.083,341.9413 280.33886,341.88856 279.33691,341.88855 C 278.84472,341.88856 278.2705,341.90907 277.61426,341.95007 C 277.53808,343.76063 277.49414,345.20203 277.48242,346.27429 C 278.10937,346.31531 278.69824,346.33582 279.24902,346.33582 C 280.06347,346.33582 280.55273,346.30946 280.7168,346.25671 C 280.8164,346.22156 280.88671,346.1366 280.92773,346.00183 C 280.96288,345.89637 281.0039,345.52723 281.05078,344.89441 L 281.80664,344.89441 C 281.77733,345.88465 281.76269,346.52918 281.7627,346.828 L 281.80664,348.80554 L 281.05078,348.80554 C 281.00976,348.03797 280.95702,347.59559 280.89258,347.47839 C 280.85741,347.40809 280.77831,347.35828 280.65527,347.32898 C 280.3623,347.26453 279.70312,347.23231 278.67773,347.2323 C 278.35546,347.23231 277.97753,347.24988 277.54395,347.28503 C 277.53222,347.59559 277.52636,347.91199 277.52637,348.23425 C 277.52636,349.91004 277.55566,351.1991 277.61426,352.10144 L 279.35449,352.12781 C 280.34472,352.12781 281.24999,352.07507 282.07031,351.9696 C 282.21679,351.43054 282.35741,350.81824 282.49219,350.13269 L 283.22168,350.13269 C 283.0869,351.16394 283.0078,352.15418 282.98438,353.10339 C 282.45116,353.16199 281.93847,353.19128 281.44629,353.19128 C 281.12402,353.19128 280.48827,353.17957 279.53906,353.15613 C 278.65429,353.13269 277.83984,353.12097 277.0957,353.12097 C 276.11718,353.12097 275.08594,353.14148 274.00195,353.1825 L 274.00195,353.1825 z M 284.98828,353.1825 L 284.98828,352.72546 C 285.31055,352.57312 285.61523,352.39441 285.90234,352.18933 C 285.97851,350.60144 286.0166,348.94617 286.0166,347.22351 C 286.0166,345.87 286.00195,344.59266 285.97266,343.39148 C 285.95508,342.53602 285.91406,342.04383 285.84961,341.91492 C 285.82031,341.83876 285.76025,341.78163 285.66943,341.74353 C 285.57861,341.70546 285.15234,341.65419 284.39063,341.58972 L 284.39063,340.85144 C 285.52148,340.88075 286.57031,340.8954 287.53711,340.89539 C 288.4746,340.8954 289.3623,340.88075 290.2002,340.85144 L 290.2002,341.58972 C 289.3916,341.64247 288.92578,341.71278 288.80273,341.80066 C 288.72656,341.8534 288.67236,341.96034 288.64014,342.12146 C 288.60791,342.2826 288.583,343.23036 288.56543,344.96472 L 288.5127,349.245 C 288.51269,350.04773 288.5332,350.97644 288.57422,352.03113 C 289.34179,352.07214 289.91015,352.09265 290.2793,352.09265 C 291.38671,352.09265 292.31835,352.00769 293.07422,351.83777 C 293.22655,351.30457 293.37597,350.66883 293.52246,349.93054 L 294.2959,349.93054 C 294.16698,350.76843 294.05272,351.80847 293.95313,353.05066 C 293.39647,353.13269 292.88378,353.17371 292.41504,353.17371 L 289.2334,353.13855 L 287.80957,353.12097 C 287.15332,353.11511 286.21289,353.13562 284.98828,353.1825 L 284.98828,353.1825 z M 300.49219,353.1825 L 300.49219,352.72546 C 300.81445,352.57312 301.11914,352.39441 301.40625,352.18933 C 301.48242,350.60144 301.52051,348.94617 301.52051,347.22351 C 301.52051,345.87 301.50586,344.59266 301.47656,343.39148 C 301.45898,342.53602 301.41797,342.04383 301.35352,341.91492 C 301.32422,341.83876 301.26416,341.78163 301.17334,341.74353 C 301.08252,341.70546 300.65625,341.65419 299.89453,341.58972 L 299.89453,340.85144 C 301.02539,340.88075 302.07422,340.8954 303.04102,340.89539 C 303.97851,340.8954 304.86621,340.88075 305.7041,340.85144 L 305.7041,341.58972 C 304.8955,341.64247 304.42968,341.71278 304.30664,341.80066 C 304.23046,341.8534 304.17626,341.96034 304.14404,342.12146 C 304.11181,342.2826 304.08691,343.23036 304.06934,344.96472 L 304.0166,349.245 C 304.0166,350.04773 304.0371,350.97644 304.07813,352.03113 C 304.8457,352.07214 305.41406,352.09265 305.7832,352.09265 C 306.89062,352.09265 307.82226,352.00769 308.57813,351.83777 C 308.73046,351.30457 308.87987,350.66883 309.02637,349.93054 L 309.7998,349.93054 C 309.67089,350.76843 309.55663,351.80847 309.45703,353.05066 C 308.90038,353.13269 308.38769,353.17371 307.91895,353.17371 L 304.7373,353.13855 L 303.31348,353.12097 C 302.65722,353.11511 301.71679,353.13562 300.49219,353.1825 L 300.49219,353.1825 z M 310.93359,353.1825 L 310.93359,352.44421 C 311.74219,352.4032 312.19922,352.33582 312.30469,352.24207 C 312.41015,352.14832 312.47461,351.91687 312.49805,351.54773 C 312.53906,350.77429 312.55957,349.33289 312.55957,347.22351 C 312.55957,346.41492 312.54785,345.24305 312.52441,343.70789 C 312.51269,342.65907 312.48926,342.08339 312.4541,341.98083 C 312.41894,341.87831 312.35742,341.8036 312.26953,341.75671 C 312.14062,341.69227 311.69531,341.63661 310.93359,341.58972 L 310.93359,340.85144 C 312.14062,340.89833 313.06347,340.92177 313.70215,340.92175 C 314.80371,340.92177 315.7998,340.89833 316.69043,340.85144 L 316.69043,341.58972 C 315.89355,341.63661 315.44384,341.6996 315.34131,341.77869 C 315.23876,341.8578 315.17285,342.0409 315.14355,342.328 C 315.09082,342.89051 315.06445,344.03016 315.06445,345.74695 C 315.06445,348.03211 315.07324,349.62439 315.09082,350.5238 C 315.10839,351.42322 315.16113,351.95789 315.24902,352.12781 C 315.28417,352.20398 315.35888,352.26404 315.47314,352.30798 C 315.5874,352.35193 315.99316,352.39734 316.69043,352.44421 L 316.69043,353.1825 L 315.65332,353.15613 C 314.99707,353.13269 314.41113,353.12097 313.89551,353.12097 L 310.93359,353.1825 z M 318.65039,353.1825 L 318.65039,352.76941 C 318.98437,352.57019 319.23926,352.38855 319.41504,352.22449 C 319.48535,351.4159 319.52051,349.62879 319.52051,346.86316 C 319.52051,344.85926 319.49121,343.44129 319.43262,342.60925 C 319.40332,342.15809 319.34179,341.89442 319.24805,341.81824 C 319.11914,341.70106 318.67383,341.62489 317.91211,341.58972 L 317.91211,340.85144 L 319.59961,340.8866 L 320.8916,340.91296 C 321.28418,340.91298 321.86425,340.89833 322.63184,340.86902 C 323.37597,340.83973 323.90917,340.82509 324.23145,340.82507 C 325.53222,340.82509 326.46386,341.04335 327.02637,341.47986 C 327.58886,341.91639 327.87011,342.51258 327.87012,343.26843 C 327.87011,344.04774 327.59179,344.68348 327.03516,345.17566 C 326.47851,345.66785 325.69335,346.01942 324.67969,346.23035 L 324.67969,346.30066 C 325.72265,346.40613 326.45507,346.56434 326.87695,346.77527 C 327.29882,346.98621 327.63866,347.31434 327.89648,347.75964 C 328.15429,348.20496 328.28319,348.7118 328.2832,349.28015 C 328.28319,349.97742 328.07079,350.6366 327.646,351.25769 C 327.22118,351.87879 326.65868,352.35339 325.9585,352.68152 C 325.25829,353.00964 324.27245,353.17371 323.00098,353.17371 C 322.74902,353.17371 322.37109,353.16492 321.86719,353.14734 C 321.39843,353.12976 321.01464,353.12097 320.71582,353.12097 C 320.38183,353.12097 319.69336,353.14148 318.65039,353.1825 L 318.65039,353.1825 z M 322.0166,345.93152 L 322.47363,345.93152 C 323.46386,345.93153 324.15966,345.75281 324.56104,345.39539 C 324.96239,345.03797 325.16308,344.4784 325.16309,343.71667 C 325.16308,343.04872 325.00048,342.55653 324.67529,342.24011 C 324.35009,341.92372 323.81542,341.76551 323.07129,341.7655 C 322.79589,341.76551 322.45898,341.78895 322.06055,341.83582 C 322.02539,343.63465 322.00781,344.73621 322.00781,345.1405 L 322.0166,345.93152 z M 322.03418,352.18054 C 322.37402,352.26843 322.69335,352.31238 322.99219,352.31238 C 323.82421,352.31238 324.46288,352.07361 324.9082,351.59607 C 325.35351,351.11853 325.57616,350.41687 325.57617,349.49109 C 325.57616,348.88758 325.47509,348.39393 325.27295,348.01013 C 325.07079,347.62635 324.79247,347.3407 324.43799,347.1532 C 324.08349,346.9657 323.57812,346.87195 322.92188,346.87195 L 322.03418,346.88074 L 322.03418,347.10925 L 322.0166,349.38562 L 322.03418,351.68835 L 322.03418,352.18054 z M 330.5332,353.1825 L 330.5332,352.70789 C 330.84375,352.56726 331.12793,352.4032 331.38574,352.2157 C 331.50293,351.30164 331.56152,349.37976 331.56152,346.45007 C 331.56152,344.45204 331.54101,343.12782 331.5,342.47742 C 331.48242,342.13172 331.42236,341.91346 331.31982,341.82263 C 331.21728,341.73182 330.78223,341.65419 330.01465,341.58972 L 330.01465,340.85144 C 331.39746,340.90419 332.49023,340.93055 333.29297,340.93054 L 338.13574,340.87781 C 338.6455,340.87782 339.10546,340.89833 339.51563,340.93933 L 339.57715,341.03601 C 339.44823,341.67469 339.35448,342.5243 339.2959,343.58484 L 338.60156,343.58484 C 338.57226,342.72938 338.53857,342.27235 338.50049,342.21375 C 338.46239,342.15516 338.32909,342.0995 338.10059,342.04675 C 337.61425,341.9413 336.87011,341.88856 335.86816,341.88855 C 335.37597,341.88856 334.80175,341.90907 334.14551,341.95007 C 334.06933,343.76063 334.02539,345.20203 334.01367,346.27429 C 334.64062,346.31531 335.22949,346.33582 335.78027,346.33582 C 336.59472,346.33582 337.08398,346.30946 337.24805,346.25671 C 337.34765,346.22156 337.41796,346.1366 337.45898,346.00183 C 337.49413,345.89637 337.53515,345.52723 337.58203,344.89441 L 338.33789,344.89441 C 338.30858,345.88465 338.29394,346.52918 338.29395,346.828 L 338.33789,348.80554 L 337.58203,348.80554 C 337.54101,348.03797 337.48827,347.59559 337.42383,347.47839 C 337.38866,347.40809 337.30956,347.35828 337.18652,347.32898 C 336.89355,347.26453 336.23437,347.23231 335.20898,347.2323 C 334.88671,347.23231 334.50878,347.24988 334.0752,347.28503 C 334.06347,347.59559 334.05761,347.91199 334.05762,348.23425 C 334.05761,349.91004 334.08691,351.1991 334.14551,352.10144 L 335.88574,352.12781 C 336.87597,352.12781 337.78124,352.07507 338.60156,351.9696 C 338.74804,351.43054 338.88866,350.81824 339.02344,350.13269 L 339.75293,350.13269 C 339.61815,351.16394 339.53905,352.15418 339.51563,353.10339 C 338.98241,353.16199 338.46972,353.19128 337.97754,353.19128 C 337.65527,353.19128 337.01952,353.17957 336.07031,353.15613 C 335.18554,353.13269 334.37109,353.12097 333.62695,353.12097 C 332.64843,353.12097 331.61719,353.14148 330.5332,353.1825 L 330.5332,353.1825 z M 340.95703,353.1825 L 340.95703,352.44421 C 341.63672,352.38562 342.02637,352.32996 342.12598,352.27722 C 342.19043,352.24207 342.2373,352.1864 342.2666,352.11023 C 342.32519,351.96961 342.36621,351.495 342.38965,350.6864 C 342.41894,349.4325 342.43359,348.4452 342.43359,347.72449 C 342.43359,346.75184 342.42187,345.51551 342.39844,344.0155 C 342.375,342.89637 342.31933,342.21083 342.23145,341.95886 C 342.20801,341.8827 342.16113,341.82411 342.09082,341.78308 C 341.99707,341.7245 341.61914,341.66005 340.95703,341.58972 L 340.95703,340.85144 C 342.16992,340.89833 342.95215,340.92177 343.30371,340.92175 L 347.70703,340.84265 C 348.6621,340.84266 349.3579,340.93495 349.79443,341.11951 C 350.23095,341.30409 350.57665,341.59999 350.83154,342.0072 C 351.08642,342.41444 351.21386,342.89344 351.21387,343.44421 C 351.21386,344.14735 351.01024,344.76405 350.60303,345.29431 C 350.19579,345.82459 349.48827,346.29481 348.48047,346.70496 L 350.35254,349.52625 L 351.81152,351.68835 C 352.0869,352.03992 352.29198,352.25232 352.42676,352.32556 C 352.56151,352.3988 352.78124,352.43836 353.08594,352.44421 L 353.08594,353.12097 L 352.56738,353.12976 C 351.07909,353.14148 350.12108,353.15906 349.69336,353.1825 C 349.18358,352.36804 348.42187,351.18738 347.4082,349.6405 L 345.59766,346.88953 C 345.65039,346.78992 345.69433,346.68445 345.72949,346.57312 C 345.96386,346.60242 346.13671,346.61707 346.24805,346.61707 C 346.79296,346.61707 347.32909,346.39735 347.85645,345.95789 C 348.38378,345.51844 348.64745,344.89149 348.64746,344.07703 C 348.64745,343.36805 348.43945,342.81727 348.02344,342.42468 C 347.60741,342.03212 346.98339,341.83583 346.15137,341.83582 C 345.88769,341.83583 345.53027,341.85633 345.0791,341.89734 L 345.01758,344.49011 L 344.93848,347.77722 C 344.93847,348.52137 344.96777,349.47351 345.02637,350.63367 C 345.07324,351.50672 345.12011,351.99597 345.16699,352.10144 C 345.20214,352.17761 345.2666,352.23914 345.36035,352.28601 C 345.48339,352.35632 345.88183,352.40906 346.55566,352.44421 L 346.55566,353.1825 C 345.50097,353.14148 344.5664,353.12097 343.75195,353.12097 C 342.88476,353.12097 341.95312,353.14148 340.95703,353.1825 L 340.95703,353.1825 z M 356.34668,353.1825 L 356.34668,352.44421 C 356.68066,352.44421 357.02929,352.41492 357.39258,352.35632 C 357.5625,352.32703 357.68261,352.27869 357.75293,352.2113 C 357.82324,352.14392 357.87597,352.01941 357.91113,351.83777 C 357.95214,351.58582 357.9873,350.66004 358.0166,349.06042 C 358.03417,347.92371 358.04296,346.76356 358.04297,345.57996 C 358.04296,343.25379 358.03564,342.06874 358.021,342.02478 C 358.00634,341.98085 357.7998,341.95887 357.40137,341.95886 C 356.58691,341.95887 355.88672,341.98231 355.30078,342.02917 C 354.96094,342.05848 354.76904,342.08778 354.7251,342.11707 C 354.68115,342.14637 354.64746,342.19764 354.62402,342.27087 C 354.60058,342.34413 354.55078,342.85829 354.47461,343.81335 L 353.71875,343.81335 C 353.73047,342.69422 353.69824,341.73036 353.62207,340.92175 L 353.71875,340.85144 C 355.56445,340.93348 357.36035,340.9745 359.10645,340.97449 C 360.84667,340.9745 362.79491,340.93348 364.95117,340.85144 L 365.04785,340.99207 C 364.93651,341.79481 364.85741,342.73524 364.81055,343.81335 L 364.08105,343.81335 C 364.02831,342.83485 363.97558,342.30458 363.92285,342.22253 C 363.88183,342.15809 363.78808,342.11415 363.6416,342.0907 C 363.17284,342.01454 362.2412,341.97645 360.84668,341.97644 C 360.72948,341.97645 360.65917,341.99403 360.63574,342.02917 C 360.6123,342.0702 360.60058,342.22547 360.60059,342.495 L 360.54785,348.40125 C 360.54784,350.11219 360.56249,351.16248 360.5918,351.55212 C 360.62109,351.94177 360.6914,352.17761 360.80273,352.25964 C 360.8789,352.31238 361.33886,352.3739 362.18262,352.44421 L 362.18262,353.1825 C 361.32128,353.14148 360.40722,353.12097 359.44043,353.12097 C 358.16894,353.12097 357.13769,353.14148 356.34668,353.1825 L 356.34668,353.1825 z M 365.90918,352.38269 C 366.45996,352.35339 366.7998,352.29773 366.92871,352.2157 C 367.0166,352.15711 367.1543,351.93445 367.3418,351.54773 C 367.69922,350.78601 368.15625,349.7284 368.71289,348.37488 L 371.82422,340.75476 L 373.11621,340.75476 L 377.08887,350.19421 C 377.60448,351.41882 377.92235,352.08972 378.04248,352.20691 C 378.16258,352.3241 378.53319,352.4032 379.1543,352.44421 L 379.1543,353.1825 C 378.19921,353.14148 377.29686,353.12097 376.44727,353.12097 C 375.43358,353.12097 374.46972,353.14148 373.55566,353.1825 L 373.55566,352.44421 C 374.25292,352.41492 374.65575,352.37537 374.76416,352.32556 C 374.87255,352.27576 374.92675,352.1864 374.92676,352.0575 C 374.92675,351.94617 374.8037,351.56531 374.55762,350.91492 L 373.97754,349.41199 C 373.25097,349.40027 372.43945,349.39441 371.54297,349.39441 C 370.76367,349.39441 370.05468,349.40027 369.41602,349.41199 L 369.0293,350.42273 C 368.92382,350.69812 368.79492,351.10828 368.64258,351.6532 C 368.60742,351.77625 368.58984,351.88757 368.58984,351.98718 C 368.58984,352.12195 368.64697,352.21716 368.76123,352.27283 C 368.87548,352.32849 369.28711,352.38562 369.99609,352.44421 L 369.99609,353.1825 C 369.42187,353.14148 368.70703,353.12097 367.85156,353.12097 C 367.03711,353.12097 366.38965,353.14148 365.90918,353.1825 L 365.90918,352.38269 z M 371.6748,343.86609 L 369.82031,348.37488 C 370.35937,348.40418 370.9541,348.41883 371.60449,348.41882 C 372.28417,348.41883 372.93456,348.40418 373.55566,348.37488 L 371.6748,343.86609 z M 380.5957,353.1825 L 380.5957,352.73425 C 381,352.49988 381.28711,352.3241 381.45703,352.20691 C 381.53906,351.17566 381.58008,349.245 381.58008,346.41492 C 381.58008,345.19032 381.56689,344.16639 381.54053,343.34314 C 381.51416,342.51991 381.47461,342.04969 381.42188,341.9325 C 381.39844,341.87391 381.36035,341.82997 381.30762,341.80066 C 381.21972,341.7538 380.78906,341.68348 380.01563,341.58972 L 380.01563,340.84265 C 380.90039,340.87196 381.91699,340.88661 383.06543,340.8866 L 387.39844,340.84265 C 388.9746,340.84266 390.17138,341.04188 390.98877,341.44031 C 391.80614,341.83876 392.45507,342.44813 392.93555,343.26843 C 393.416,344.08875 393.65624,345.08485 393.65625,346.25671 C 393.65624,347.76258 393.28124,349.06043 392.53125,350.15027 C 391.78124,351.24011 390.86718,352.01648 389.78906,352.47937 C 388.71093,352.94226 387.55956,353.17371 386.33496,353.17371 L 383.00391,353.12097 C 382.4707,353.12097 381.66797,353.14148 380.5957,353.1825 L 380.5957,353.1825 z M 384.15527,352.10144 C 384.64746,352.18347 385.15136,352.22449 385.66699,352.22449 C 386.97363,352.22449 387.96972,352.03699 388.65527,351.66199 C 389.34081,351.28699 389.89599,350.67322 390.3208,349.82068 C 390.74559,348.96814 390.958,347.92078 390.95801,346.67859 C 390.958,345.04383 390.53612,343.79872 389.69238,342.94324 C 388.94823,342.18153 387.73241,341.80067 386.04492,341.80066 C 385.68163,341.80067 385.05175,341.82997 384.15527,341.88855 L 384.08496,347.37292 C 384.08496,349.68152 384.10839,351.25769 384.15527,352.10144 L 384.15527,352.10144 z M 401.75098,353.35828 C 399.58886,353.35828 397.93359,352.8031 396.78516,351.69275 C 395.63672,350.5824 395.0625,349.05457 395.0625,347.10925 C 395.0625,345.74989 395.34082,344.59412 395.89746,343.64197 C 396.4541,342.68983 397.22607,341.95887 398.21338,341.4491 C 399.20068,340.93934 400.4707,340.68446 402.02344,340.68445 C 403.51757,340.68446 404.73925,340.92909 405.68848,341.41833 C 406.63768,341.9076 407.36864,342.58729 407.88135,343.4574 C 408.39403,344.32752 408.65038,345.39539 408.65039,346.66101 C 408.65038,348.03211 408.36913,349.21717 407.80664,350.21619 C 407.24413,351.21521 406.45165,351.98865 405.4292,352.5365 C 404.40673,353.08435 403.18066,353.35828 401.75098,353.35828 L 401.75098,353.35828 z M 402.08496,352.40027 C 403.26269,352.40027 404.20165,351.96521 404.90186,351.09509 C 405.60204,350.22498 405.95214,348.90223 405.95215,347.12683 C 405.95214,345.26356 405.55077,343.83387 404.74805,342.83777 C 404.09765,342.03505 403.09569,341.63368 401.74219,341.63367 C 400.47656,341.63368 399.49658,342.05262 398.80225,342.8905 C 398.10791,343.7284 397.76074,345.01746 397.76074,346.75769 C 397.76074,348.0116 397.95117,349.07361 398.33203,349.94373 C 398.71289,350.81385 399.19775,351.4408 399.78662,351.82458 C 400.37548,352.20837 401.14159,352.40027 402.08496,352.40027 L 402.08496,352.40027 z M 410.00391,353.1825 L 410.00391,352.44421 C 410.68359,352.38562 411.07324,352.32996 411.17285,352.27722 C 411.2373,352.24207 411.28418,352.1864 411.31348,352.11023 C 411.37207,351.96961 411.41308,351.495 411.43652,350.6864 C 411.46582,349.4325 411.48047,348.4452 411.48047,347.72449 C 411.48047,346.75184 411.46875,345.51551 411.44531,344.0155 C 411.42187,342.89637 411.36621,342.21083 411.27832,341.95886 C 411.25488,341.8827 411.20801,341.82411 411.1377,341.78308 C 411.04394,341.7245 410.66601,341.66005 410.00391,341.58972 L 410.00391,340.85144 C 411.2168,340.89833 411.99902,340.92177 412.35059,340.92175 L 416.75391,340.84265 C 417.70898,340.84266 418.40478,340.93495 418.84131,341.11951 C 419.27782,341.30409 419.62352,341.59999 419.87842,342.0072 C 420.13329,342.41444 420.26073,342.89344 420.26074,343.44421 C 420.26073,344.14735 420.05712,344.76405 419.6499,345.29431 C 419.24267,345.82459 418.53515,346.29481 417.52734,346.70496 L 419.39941,349.52625 L 420.8584,351.68835 C 421.13378,352.03992 421.33886,352.25232 421.47363,352.32556 C 421.60839,352.3988 421.82811,352.43836 422.13281,352.44421 L 422.13281,353.12097 L 421.61426,353.12976 C 420.12597,353.14148 419.16796,353.15906 418.74023,353.1825 C 418.23046,352.36804 417.46874,351.18738 416.45508,349.6405 L 414.64453,346.88953 C 414.69726,346.78992 414.74121,346.68445 414.77637,346.57312 C 415.01074,346.60242 415.18359,346.61707 415.29492,346.61707 C 415.83984,346.61707 416.37597,346.39735 416.90332,345.95789 C 417.43066,345.51844 417.69433,344.89149 417.69434,344.07703 C 417.69433,343.36805 417.48632,342.81727 417.07031,342.42468 C 416.65429,342.03212 416.03027,341.83583 415.19824,341.83582 C 414.93456,341.83583 414.57714,341.85633 414.12598,341.89734 L 414.06445,344.49011 L 413.98535,347.77722 C 413.98535,348.52137 414.01464,349.47351 414.07324,350.63367 C 414.12011,351.50672 414.16699,351.99597 414.21387,352.10144 C 414.24902,352.17761 414.31347,352.23914 414.40723,352.28601 C 414.53027,352.35632 414.92871,352.40906 415.60254,352.44421 L 415.60254,353.1825 C 414.54785,353.14148 413.61328,353.12097 412.79883,353.12097 C 411.93164,353.12097 411,353.14148 410.00391,353.1825 L 410.00391,353.1825 z M 192.80859,375.6825 L 192.80859,375.26941 C 193.14258,375.07019 193.39746,374.88855 193.57324,374.72449 C 193.64355,373.9159 193.67871,372.12879 193.67871,369.36316 C 193.67871,367.35926 193.64941,365.94129 193.59082,365.10925 C 193.56152,364.65809 193.5,364.39442 193.40625,364.31824 C 193.27734,364.20106 192.83203,364.12489 192.07031,364.08972 L 192.07031,363.35144 L 193.75781,363.3866 L 195.0498,363.41296 C 195.44238,363.41298 196.02246,363.39833 196.79004,363.36902 C 197.53417,363.33973 198.06738,363.32509 198.38965,363.32507 C 199.69042,363.32509 200.62206,363.54335 201.18457,363.97986 C 201.74706,364.41639 202.02831,365.01258 202.02832,365.76843 C 202.02831,366.54774 201.74999,367.18348 201.19336,367.67566 C 200.63671,368.16785 199.85155,368.51942 198.83789,368.73035 L 198.83789,368.80066 C 199.88085,368.90613 200.61327,369.06434 201.03516,369.27527 C 201.45702,369.48621 201.79686,369.81434 202.05469,370.25964 C 202.31249,370.70496 202.4414,371.2118 202.44141,371.78015 C 202.4414,372.47742 202.22899,373.1366 201.8042,373.75769 C 201.37938,374.37879 200.81689,374.85339 200.1167,375.18152 C 199.4165,375.50964 198.43066,375.67371 197.15918,375.67371 C 196.90722,375.67371 196.52929,375.66492 196.02539,375.64734 C 195.55664,375.62976 195.17285,375.62097 194.87402,375.62097 C 194.54004,375.62097 193.85156,375.64148 192.80859,375.6825 L 192.80859,375.6825 z M 196.1748,368.43152 L 196.63184,368.43152 C 197.62206,368.43153 198.31786,368.25281 198.71924,367.89539 C 199.1206,367.53797 199.32128,366.9784 199.32129,366.21667 C 199.32128,365.54872 199.15868,365.05653 198.8335,364.74011 C 198.50829,364.42372 197.97363,364.26551 197.22949,364.2655 C 196.9541,364.26551 196.61718,364.28895 196.21875,364.33582 C 196.18359,366.13465 196.16601,367.23621 196.16602,367.6405 L 196.1748,368.43152 z M 196.19238,374.68054 C 196.53222,374.76843 196.85156,374.81238 197.15039,374.81238 C 197.98242,374.81238 198.62109,374.57361 199.06641,374.09607 C 199.51171,373.61853 199.73437,372.91687 199.73438,371.99109 C 199.73437,371.38758 199.63329,370.89393 199.43115,370.51013 C 199.229,370.12635 198.95068,369.8407 198.59619,369.6532 C 198.24169,369.4657 197.73632,369.37195 197.08008,369.37195 L 196.19238,369.38074 L 196.19238,369.60925 L 196.1748,371.88562 L 196.19238,374.18835 L 196.19238,374.68054 z M 204.69141,375.6825 L 204.69141,375.20789 C 205.00195,375.06726 205.28613,374.9032 205.54395,374.7157 C 205.66113,373.80164 205.71972,371.87976 205.71973,368.95007 C 205.71972,366.95204 205.69922,365.62782 205.6582,364.97742 C 205.64062,364.63172 205.58056,364.41346 205.47803,364.32263 C 205.37549,364.23182 204.94043,364.15419 204.17285,364.08972 L 204.17285,363.35144 C 205.55566,363.40419 206.64843,363.43055 207.45117,363.43054 L 212.29395,363.37781 C 212.8037,363.37782 213.26366,363.39833 213.67383,363.43933 L 213.73535,363.53601 C 213.60644,364.17469 213.51269,365.0243 213.4541,366.08484 L 212.75977,366.08484 C 212.73046,365.22938 212.69677,364.77235 212.65869,364.71375 C 212.6206,364.65516 212.4873,364.5995 212.25879,364.54675 C 211.77245,364.4413 211.02831,364.38856 210.02637,364.38855 C 209.53417,364.38856 208.95996,364.40907 208.30371,364.45007 C 208.22753,366.26063 208.18359,367.70203 208.17188,368.77429 C 208.79882,368.81531 209.38769,368.83582 209.93848,368.83582 C 210.75292,368.83582 211.24218,368.80946 211.40625,368.75671 C 211.50585,368.72156 211.57616,368.6366 211.61719,368.50183 C 211.65234,368.39637 211.69335,368.02723 211.74023,367.39441 L 212.49609,367.39441 C 212.46679,368.38465 212.45214,369.02918 212.45215,369.328 L 212.49609,371.30554 L 211.74023,371.30554 C 211.69921,370.53797 211.64648,370.09559 211.58203,369.97839 C 211.54687,369.90809 211.46777,369.85828 211.34473,369.82898 C 211.05175,369.76453 210.39257,369.73231 209.36719,369.7323 C 209.04492,369.73231 208.66699,369.74988 208.2334,369.78503 C 208.22167,370.09559 208.21582,370.41199 208.21582,370.73425 C 208.21582,372.41004 208.24511,373.6991 208.30371,374.60144 L 210.04395,374.62781 C 211.03417,374.62781 211.93944,374.57507 212.75977,374.4696 C 212.90624,373.93054 213.04687,373.31824 213.18164,372.63269 L 213.91113,372.63269 C 213.77636,373.66394 213.69726,374.65418 213.67383,375.60339 C 213.14062,375.66199 212.62792,375.69128 212.13574,375.69128 C 211.81347,375.69128 211.17773,375.67957 210.22852,375.65613 C 209.34374,375.63269 208.52929,375.62097 207.78516,375.62097 C 206.80664,375.62097 205.77539,375.64148 204.69141,375.6825 L 204.69141,375.6825 z M 215.11523,375.6825 L 215.11523,374.94421 C 215.79492,374.88562 216.18457,374.82996 216.28418,374.77722 C 216.34863,374.74207 216.39551,374.6864 216.4248,374.61023 C 216.4834,374.46961 216.52441,373.995 216.54785,373.1864 C 216.57715,371.9325 216.59179,370.9452 216.5918,370.22449 C 216.59179,369.25184 216.58008,368.01551 216.55664,366.5155 C 216.5332,365.39637 216.47754,364.71083 216.38965,364.45886 C 216.36621,364.3827 216.31933,364.32411 216.24902,364.28308 C 216.15527,364.2245 215.77734,364.16005 215.11523,364.08972 L 215.11523,363.35144 C 216.32812,363.39833 217.11035,363.42177 217.46191,363.42175 L 221.86523,363.34265 C 222.8203,363.34266 223.5161,363.43495 223.95264,363.61951 C 224.38915,363.80409 224.73485,364.09999 224.98975,364.5072 C 225.24462,364.91444 225.37206,365.39344 225.37207,365.94421 C 225.37206,366.64735 225.16845,367.26405 224.76123,367.79431 C 224.35399,368.32459 223.64648,368.79481 222.63867,369.20496 L 224.51074,372.02625 L 225.96973,374.18835 C 226.24511,374.53992 226.45018,374.75232 226.58496,374.82556 C 226.71971,374.8988 226.93944,374.93836 227.24414,374.94421 L 227.24414,375.62097 L 226.72559,375.62976 C 225.23729,375.64148 224.27929,375.65906 223.85156,375.6825 C 223.34179,374.86804 222.58007,373.68738 221.56641,372.1405 L 219.75586,369.38953 C 219.80859,369.28992 219.85253,369.18445 219.8877,369.07312 C 220.12206,369.10242 220.29492,369.11707 220.40625,369.11707 C 220.95117,369.11707 221.4873,368.89735 222.01465,368.45789 C 222.54198,368.01844 222.80566,367.39149 222.80566,366.57703 C 222.80566,365.86805 222.59765,365.31727 222.18164,364.92468 C 221.76562,364.53212 221.14159,364.33583 220.30957,364.33582 C 220.04589,364.33583 219.68847,364.35633 219.2373,364.39734 L 219.17578,366.99011 L 219.09668,370.27722 C 219.09668,371.02137 219.12597,371.97351 219.18457,373.13367 C 219.23144,374.00672 219.27832,374.49597 219.3252,374.60144 C 219.36035,374.67761 219.4248,374.73914 219.51855,374.78601 C 219.6416,374.85632 220.04003,374.90906 220.71387,374.94421 L 220.71387,375.6825 C 219.65917,375.64148 218.72461,375.62097 217.91016,375.62097 C 217.04297,375.62097 216.11133,375.64148 215.11523,375.6825 L 215.11523,375.6825 z M 228.08789,375.6825 L 228.08789,374.94421 C 228.80273,374.91492 229.22168,374.86804 229.34473,374.80359 C 229.42676,374.75671 229.48828,374.68054 229.5293,374.57507 C 229.59375,374.43445 229.63476,373.93933 229.65234,373.08972 C 229.6875,371.68348 229.70508,370.62293 229.70508,369.90808 L 229.6875,366.19031 C 229.6875,365.20594 229.65527,364.63758 229.59082,364.48523 C 229.55566,364.39735 229.5,364.3329 229.42383,364.29187 C 229.30664,364.22157 228.86133,364.15419 228.08789,364.08972 L 228.08789,363.35144 C 229.01367,363.38075 229.69922,363.3954 230.14453,363.39539 C 230.63672,363.3954 231.19629,363.38075 231.82324,363.35144 C 233.17089,365.07411 234.69433,366.94325 236.39355,368.95886 C 237.5244,370.30652 238.49999,371.4198 239.32031,372.29871 L 239.32031,368.81824 C 239.3203,367.49989 239.30272,366.36317 239.26758,365.40808 C 239.24413,364.83973 239.19725,364.4911 239.12695,364.36218 C 239.09179,364.29188 239.02733,364.24208 238.93359,364.21277 C 238.83983,364.18348 238.42968,364.14247 237.70313,364.08972 L 237.70313,363.35144 C 238.34179,363.38075 238.97753,363.3954 239.61035,363.39539 C 240.47753,363.3954 241.26268,363.38075 241.96582,363.35144 L 241.96582,364.08972 C 241.30956,364.13075 240.91405,364.17762 240.7793,364.23035 C 240.70311,364.25965 240.64159,364.30067 240.59473,364.35339 C 240.54784,364.40614 240.51268,364.47352 240.48926,364.55554 C 240.44823,364.69618 240.42479,365.14735 240.41895,365.90906 L 240.39258,369.42468 L 240.375,372.96667 C 240.37499,373.9159 240.39549,374.86511 240.43652,375.81433 L 240.32227,375.93738 C 239.61327,375.80847 239.11229,375.72351 238.81934,375.6825 C 237.31347,374.01257 235.49413,371.91492 233.36133,369.38953 C 232.2832,368.11219 231.41308,367.037 230.75098,366.16394 L 230.75098,369.58289 C 230.75097,370.51453 230.76562,371.6366 230.79492,372.9491 C 230.8125,373.9159 230.85351,374.47254 230.91797,374.61902 C 230.9414,374.68347 230.98535,374.73328 231.0498,374.76843 C 231.16113,374.83289 231.583,374.89148 232.31543,374.94421 L 232.31543,375.6825 C 231.36621,375.64148 230.68652,375.62097 230.27637,375.62097 C 229.93652,375.62097 229.20703,375.64148 228.08789,375.6825 L 228.08789,375.6825 z M 243.05566,374.88269 C 243.60644,374.85339 243.94629,374.79773 244.0752,374.7157 C 244.16308,374.65711 244.30078,374.43445 244.48828,374.04773 C 244.8457,373.28601 245.30273,372.2284 245.85938,370.87488 L 248.9707,363.25476 L 250.2627,363.25476 L 254.23535,372.69421 C 254.75096,373.91882 255.06884,374.58972 255.18896,374.70691 C 255.30907,374.8241 255.67967,374.9032 256.30078,374.94421 L 256.30078,375.6825 C 255.34569,375.64148 254.44335,375.62097 253.59375,375.62097 C 252.58007,375.62097 251.6162,375.64148 250.70215,375.6825 L 250.70215,374.94421 C 251.39941,374.91492 251.80224,374.87537 251.91064,374.82556 C 252.01903,374.77576 252.07323,374.6864 252.07324,374.5575 C 252.07323,374.44617 251.95019,374.06531 251.7041,373.41492 L 251.12402,371.91199 C 250.39745,371.90027 249.58593,371.89441 248.68945,371.89441 C 247.91015,371.89441 247.20117,371.90027 246.5625,371.91199 L 246.17578,372.92273 C 246.07031,373.19812 245.9414,373.60828 245.78906,374.1532 C 245.7539,374.27625 245.73632,374.38757 245.73633,374.48718 C 245.73632,374.62195 245.79345,374.71716 245.90771,374.77283 C 246.02197,374.82849 246.43359,374.88562 247.14258,374.94421 L 247.14258,375.6825 C 246.56836,375.64148 245.85351,375.62097 244.99805,375.62097 C 244.18359,375.62097 243.53613,375.64148 243.05566,375.6825 L 243.05566,374.88269 z M 248.82129,366.36609 L 246.9668,370.87488 C 247.50585,370.90418 248.10058,370.91883 248.75098,370.91882 C 249.43066,370.91883 250.08105,370.90418 250.70215,370.87488 L 248.82129,366.36609 z M 257.12695,375.6825 L 257.12695,374.94421 C 257.80664,374.88562 258.19629,374.82996 258.2959,374.77722 C 258.36035,374.74207 258.40722,374.6864 258.43652,374.61023 C 258.49512,374.46961 258.53613,373.995 258.55957,373.1864 C 258.58887,371.9325 258.60351,370.9452 258.60352,370.22449 C 258.60351,369.25184 258.59179,368.01551 258.56836,366.5155 C 258.54492,365.39637 258.48926,364.71083 258.40137,364.45886 C 258.37793,364.3827 258.33105,364.32411 258.26074,364.28308 C 258.16699,364.2245 257.78906,364.16005 257.12695,364.08972 L 257.12695,363.35144 C 258.33984,363.39833 259.12207,363.42177 259.47363,363.42175 L 263.87695,363.34265 C 264.83202,363.34266 265.52782,363.43495 265.96436,363.61951 C 266.40087,363.80409 266.74657,364.09999 267.00146,364.5072 C 267.25634,364.91444 267.38378,365.39344 267.38379,365.94421 C 267.38378,366.64735 267.18017,367.26405 266.77295,367.79431 C 266.36571,368.32459 265.65819,368.79481 264.65039,369.20496 L 266.52246,372.02625 L 267.98145,374.18835 C 268.25682,374.53992 268.4619,374.75232 268.59668,374.82556 C 268.73143,374.8988 268.95116,374.93836 269.25586,374.94421 L 269.25586,375.62097 L 268.7373,375.62976 C 267.24901,375.64148 266.29101,375.65906 265.86328,375.6825 C 265.35351,374.86804 264.59179,373.68738 263.57813,372.1405 L 261.76758,369.38953 C 261.82031,369.28992 261.86425,369.18445 261.89941,369.07312 C 262.13378,369.10242 262.30663,369.11707 262.41797,369.11707 C 262.96288,369.11707 263.49902,368.89735 264.02637,368.45789 C 264.5537,368.01844 264.81737,367.39149 264.81738,366.57703 C 264.81737,365.86805 264.60937,365.31727 264.19336,364.92468 C 263.77734,364.53212 263.15331,364.33583 262.32129,364.33582 C 262.05761,364.33583 261.70019,364.35633 261.24902,364.39734 L 261.1875,366.99011 L 261.1084,370.27722 C 261.10839,371.02137 261.13769,371.97351 261.19629,373.13367 C 261.24316,374.00672 261.29003,374.49597 261.33691,374.60144 C 261.37207,374.67761 261.43652,374.73914 261.53027,374.78601 C 261.65332,374.85632 262.05175,374.90906 262.72559,374.94421 L 262.72559,375.6825 C 261.67089,375.64148 260.73632,375.62097 259.92188,375.62097 C 259.05468,375.62097 258.12305,375.64148 257.12695,375.6825 L 257.12695,375.6825 z M 270.75,375.6825 L 270.75,375.23425 C 271.1543,374.99988 271.4414,374.8241 271.61133,374.70691 C 271.69336,373.67566 271.73437,371.745 271.73438,368.91492 C 271.73437,367.69032 271.72119,366.66639 271.69482,365.84314 C 271.66845,365.01991 271.6289,364.54969 271.57617,364.4325 C 271.55273,364.37391 271.51465,364.32997 271.46191,364.30066 C 271.37402,364.2538 270.94336,364.18348 270.16992,364.08972 L 270.16992,363.34265 C 271.05469,363.37196 272.07129,363.38661 273.21973,363.3866 L 277.55273,363.34265 C 279.1289,363.34266 280.32567,363.54188 281.14307,363.94031 C 281.96044,364.33876 282.60936,364.94813 283.08984,365.76843 C 283.5703,366.58875 283.81053,367.58485 283.81055,368.75671 C 283.81053,370.26258 283.43553,371.56043 282.68555,372.65027 C 281.93553,373.74011 281.02147,374.51648 279.94336,374.97937 C 278.86523,375.44226 277.71386,375.67371 276.48926,375.67371 L 273.1582,375.62097 C 272.625,375.62097 271.82226,375.64148 270.75,375.6825 L 270.75,375.6825 z M 274.30957,374.60144 C 274.80175,374.68347 275.30566,374.72449 275.82129,374.72449 C 277.12792,374.72449 278.12401,374.53699 278.80957,374.16199 C 279.49511,373.78699 280.05028,373.17322 280.4751,372.32068 C 280.89989,371.46814 281.11229,370.42078 281.1123,369.17859 C 281.11229,367.54383 280.69042,366.29872 279.84668,365.44324 C 279.10253,364.68153 277.88671,364.30067 276.19922,364.30066 C 275.83593,364.30067 275.20605,364.32997 274.30957,364.38855 L 274.23926,369.87292 C 274.23925,372.18152 274.26269,373.75769 274.30957,374.60144 L 274.30957,374.60144 z M 291.90527,375.85828 C 289.74316,375.85828 288.08789,375.3031 286.93945,374.19275 C 285.79101,373.0824 285.2168,371.55457 285.2168,369.60925 C 285.2168,368.24989 285.49512,367.09412 286.05176,366.14197 C 286.6084,365.18983 287.38037,364.45887 288.36768,363.9491 C 289.35498,363.43934 290.62499,363.18446 292.17773,363.18445 C 293.67187,363.18446 294.89354,363.42909 295.84277,363.91833 C 296.79198,364.4076 297.52294,365.08729 298.03564,365.9574 C 298.54833,366.82752 298.80467,367.89539 298.80469,369.16101 C 298.80467,370.53211 298.52342,371.71717 297.96094,372.71619 C 297.39842,373.71521 296.60594,374.48865 295.5835,375.0365 C 294.56103,375.58435 293.33495,375.85828 291.90527,375.85828 L 291.90527,375.85828 z M 292.23926,374.90027 C 293.41698,374.90027 294.35595,374.46521 295.05615,373.59509 C 295.75634,372.72498 296.10643,371.40223 296.10645,369.62683 C 296.10643,367.76356 295.70507,366.33387 294.90234,365.33777 C 294.25194,364.53505 293.24999,364.13368 291.89648,364.13367 C 290.63085,364.13368 289.65087,364.55262 288.95654,365.3905 C 288.2622,366.2284 287.91504,367.51746 287.91504,369.25769 C 287.91504,370.5116 288.10547,371.57361 288.48633,372.44373 C 288.86718,373.31385 289.35205,373.9408 289.94092,374.32458 C 290.52978,374.70837 291.29589,374.90027 292.23926,374.90027 L 292.23926,374.90027 z M 311.41699,375.85828 C 309.25488,375.85828 307.59961,375.3031 306.45117,374.19275 C 305.30273,373.0824 304.72851,371.55457 304.72852,369.60925 C 304.72851,368.24989 305.00683,367.09412 305.56348,366.14197 C 306.12012,365.18983 306.89209,364.45887 307.87939,363.9491 C 308.86669,363.43934 310.13671,363.18446 311.68945,363.18445 C 313.18358,363.18446 314.40526,363.42909 315.35449,363.91833 C 316.3037,364.4076 317.03465,365.08729 317.54736,365.9574 C 318.06004,366.82752 318.31639,367.89539 318.31641,369.16101 C 318.31639,370.53211 318.03514,371.71717 317.47266,372.71619 C 316.91014,373.71521 316.11766,374.48865 315.09521,375.0365 C 314.07274,375.58435 312.84667,375.85828 311.41699,375.85828 L 311.41699,375.85828 z M 311.75098,374.90027 C 312.9287,374.90027 313.86767,374.46521 314.56787,373.59509 C 315.26806,372.72498 315.61815,371.40223 315.61816,369.62683 C 315.61815,367.76356 315.21679,366.33387 314.41406,365.33777 C 313.76366,364.53505 312.76171,364.13368 311.4082,364.13367 C 310.14257,364.13368 309.16259,364.55262 308.46826,365.3905 C 307.77392,366.2284 307.42675,367.51746 307.42676,369.25769 C 307.42675,370.5116 307.61718,371.57361 307.99805,372.44373 C 308.3789,373.31385 308.86376,373.9408 309.45264,374.32458 C 310.0415,374.70837 310.80761,374.90027 311.75098,374.90027 L 311.75098,374.90027 z M 320.5752,368.22937 L 320.15332,365.27625 C 320.11816,365.00672 320.10058,364.75477 320.10059,364.52039 C 320.10058,364.0868 320.19287,363.75282 320.37744,363.51843 C 320.56201,363.28407 320.79492,363.16688 321.07617,363.16687 C 321.35742,363.16688 321.59033,363.28407 321.7749,363.51843 C 321.95947,363.75282 322.05175,364.08094 322.05176,364.50281 C 322.05175,364.74891 322.03125,365.00672 321.99023,365.27625 L 321.57715,368.22937 C 321.53613,368.52821 321.36621,368.67762 321.06738,368.67761 C 320.78027,368.67762 320.61621,368.52821 320.5752,368.22937 L 320.5752,368.22937 z M 323.73047,375.6825 L 323.73047,374.94421 C 324.49805,374.90906 324.9331,374.85779 325.03564,374.79041 C 325.13818,374.72302 325.20703,374.58386 325.24219,374.37292 C 325.30078,374.05066 325.33008,373.23914 325.33008,371.93835 L 325.32129,367.13074 C 325.31543,365.5077 325.28613,364.62294 325.2334,364.47644 C 325.2041,364.38856 325.15429,364.32118 325.08398,364.27429 C 324.9668,364.19813 324.51562,364.13661 323.73047,364.08972 L 323.73047,363.35144 C 324.90234,363.39247 325.83105,363.41298 326.5166,363.41296 C 327.60058,363.41298 328.59081,363.39247 329.4873,363.35144 L 329.4873,364.08972 C 328.7666,364.13661 328.34179,364.18934 328.21289,364.24792 C 328.13671,364.28309 328.08105,364.33583 328.0459,364.40613 C 327.9873,364.51747 327.94628,364.85731 327.92285,365.42566 C 327.88769,366.26942 327.87011,367.12489 327.87012,367.99207 L 327.87012,368.72156 C 328.47949,368.75086 329.44628,368.76551 330.77051,368.7655 C 331.94823,368.76551 332.81542,368.75086 333.37207,368.72156 C 333.37792,366.81727 333.35741,365.55165 333.31055,364.92468 C 333.2871,364.59071 333.22558,364.38563 333.12598,364.30945 C 332.9912,364.19813 332.53417,364.12489 331.75488,364.08972 L 331.75488,363.35144 C 333.21386,363.39247 334.20116,363.41298 334.7168,363.41296 C 335.60155,363.41298 336.53612,363.39247 337.52051,363.35144 L 337.52051,364.08972 C 336.77049,364.13661 336.33397,364.19227 336.21094,364.25671 C 336.14061,364.29188 336.08788,364.34462 336.05273,364.41492 C 335.99999,364.53797 335.9619,365.01551 335.93848,365.84753 C 335.89745,367.12489 335.87694,368.15907 335.87695,368.95007 L 335.92969,372.94031 C 335.94139,373.84265 335.96776,374.36121 336.00879,374.49597 C 336.04979,374.63074 336.11717,374.72595 336.21094,374.78162 C 336.30467,374.83728 336.7412,374.89148 337.52051,374.94421 L 337.52051,375.6825 L 336.54492,375.65613 C 335.81249,375.63269 335.23827,375.62097 334.82227,375.62097 C 333.95507,375.62097 332.93261,375.64148 331.75488,375.6825 L 331.75488,374.94421 C 332.54003,374.90906 332.98681,374.84607 333.09521,374.75525 C 333.2036,374.66443 333.26952,374.42566 333.29297,374.03894 C 333.33397,373.37683 333.36034,371.96473 333.37207,369.80261 C 332.71581,369.77918 331.98632,369.76746 331.18359,369.76746 C 329.92382,369.76746 328.81933,369.77918 327.87012,369.80261 L 327.87012,370.38269 C 327.87011,371.91785 327.89062,373.06922 327.93164,373.83679 C 327.96093,374.35242 328.03125,374.65271 328.14258,374.73767 C 328.2539,374.82263 328.70214,374.89148 329.4873,374.94421 L 329.4873,375.6825 L 328.4502,375.65613 C 327.79394,375.63269 327.208,375.62097 326.69238,375.62097 L 323.73047,375.6825 z M 338.75977,375.6825 L 338.75977,374.94421 C 339.56836,374.9032 340.02539,374.83582 340.13086,374.74207 C 340.23633,374.64832 340.30078,374.41687 340.32422,374.04773 C 340.36523,373.27429 340.38574,371.83289 340.38574,369.72351 C 340.38574,368.91492 340.37402,367.74305 340.35059,366.20789 C 340.33886,365.15907 340.31543,364.58339 340.28027,364.48083 C 340.24512,364.37831 340.18359,364.3036 340.0957,364.25671 C 339.9668,364.19227 339.52148,364.13661 338.75977,364.08972 L 338.75977,363.35144 C 339.9668,363.39833 340.88965,363.42177 341.52832,363.42175 C 342.62988,363.42177 343.62597,363.39833 344.5166,363.35144 L 344.5166,364.08972 C 343.71972,364.13661 343.27001,364.1996 343.16748,364.27869 C 343.06494,364.3578 342.99902,364.5409 342.96973,364.828 C 342.91699,365.39051 342.89062,366.53016 342.89063,368.24695 C 342.89062,370.53211 342.89941,372.12439 342.91699,373.0238 C 342.93457,373.92322 342.9873,374.45789 343.0752,374.62781 C 343.11035,374.70398 343.18505,374.76404 343.29932,374.80798 C 343.41357,374.85193 343.81933,374.89734 344.5166,374.94421 L 344.5166,375.6825 L 343.47949,375.65613 C 342.82324,375.63269 342.2373,375.62097 341.72168,375.62097 L 338.75977,375.6825 z M 353.90332,371.34949 L 353.90332,370.63757 C 354.96972,370.66102 355.92186,370.67273 356.75977,370.67273 C 357.53319,370.67273 358.36815,370.66102 359.26465,370.63757 L 359.26465,371.20007 C 359.00682,371.28211 358.76073,371.37879 358.52637,371.49011 C 358.45604,372.08191 358.42089,372.58582 358.4209,373.00183 C 358.42089,373.30066 358.45604,373.89246 358.52637,374.77722 C 357.3662,375.1991 356.39501,375.48474 355.61279,375.63416 C 354.83056,375.78357 354.0205,375.85828 353.18262,375.85828 C 350.92089,375.85828 349.1499,375.27087 347.86963,374.09607 C 346.58935,372.92127 345.94922,371.3993 345.94922,369.53015 C 345.94922,367.60828 346.60254,366.0702 347.90918,364.91589 C 349.21582,363.76161 351.09081,363.18446 353.53418,363.18445 C 354.3955,363.18446 355.22167,363.25184 356.0127,363.3866 C 356.8037,363.52137 357.55663,363.72645 358.27148,364.00183 L 358.35059,364.13367 C 358.18065,364.87782 358.05467,365.8036 357.97266,366.91101 L 357.23438,366.91101 C 357.2285,366.35438 357.19042,365.86219 357.12012,365.43445 C 356.74511,365.00087 356.26317,364.67567 355.67432,364.45886 C 355.08544,364.24208 354.38964,364.13368 353.58691,364.13367 C 352.08105,364.13368 350.88134,364.59071 349.98779,365.50476 C 349.09423,366.41883 348.64746,367.66981 348.64746,369.25769 C 348.64746,370.95105 349.11767,372.31482 350.05811,373.349 C 350.99853,374.38318 352.15722,374.90027 353.53418,374.90027 C 354.26659,374.90027 355.04589,374.72156 355.87207,374.36414 C 355.91893,373.91297 355.94237,373.48523 355.94238,373.08093 C 355.94237,372.17859 355.88964,371.68055 355.78418,371.58679 C 355.6787,371.49305 355.05175,371.41394 353.90332,371.34949 L 353.90332,371.34949 z M 368.91504,371.34949 L 368.91504,370.63757 C 369.98144,370.66102 370.93358,370.67273 371.77148,370.67273 C 372.54491,370.67273 373.37987,370.66102 374.27637,370.63757 L 374.27637,371.20007 C 374.01854,371.28211 373.77245,371.37879 373.53809,371.49011 C 373.46776,372.08191 373.4326,372.58582 373.43262,373.00183 C 373.4326,373.30066 373.46776,373.89246 373.53809,374.77722 C 372.37792,375.1991 371.40673,375.48474 370.62451,375.63416 C 369.84228,375.78357 369.03222,375.85828 368.19434,375.85828 C 365.93261,375.85828 364.16162,375.27087 362.88135,374.09607 C 361.60107,372.92127 360.96094,371.3993 360.96094,369.53015 C 360.96094,367.60828 361.61426,366.0702 362.9209,364.91589 C 364.22753,363.76161 366.10253,363.18446 368.5459,363.18445 C 369.40722,363.18446 370.23339,363.25184 371.02441,363.3866 C 371.81542,363.52137 372.56835,363.72645 373.2832,364.00183 L 373.3623,364.13367 C 373.19237,364.87782 373.06639,365.8036 372.98438,366.91101 L 372.24609,366.91101 C 372.24022,366.35438 372.20214,365.86219 372.13184,365.43445 C 371.75682,365.00087 371.27489,364.67567 370.68604,364.45886 C 370.09716,364.24208 369.40136,364.13368 368.59863,364.13367 C 367.09277,364.13368 365.89306,364.59071 364.99951,365.50476 C 364.10595,366.41883 363.65918,367.66981 363.65918,369.25769 C 363.65918,370.95105 364.12939,372.31482 365.06982,373.349 C 366.01025,374.38318 367.16894,374.90027 368.5459,374.90027 C 369.27831,374.90027 370.05761,374.72156 370.88379,374.36414 C 370.93065,373.91297 370.95409,373.48523 370.9541,373.08093 C 370.95409,372.17859 370.90136,371.68055 370.7959,371.58679 C 370.69042,371.49305 370.06347,371.41394 368.91504,371.34949 L 368.91504,371.34949 z M 375.7793,375.6825 L 375.7793,374.94421 C 376.58789,374.9032 377.04492,374.83582 377.15039,374.74207 C 377.25586,374.64832 377.32031,374.41687 377.34375,374.04773 C 377.38476,373.27429 377.40527,371.83289 377.40527,369.72351 C 377.40527,368.91492 377.39355,367.74305 377.37012,366.20789 C 377.3584,365.15907 377.33496,364.58339 377.2998,364.48083 C 377.26465,364.37831 377.20312,364.3036 377.11523,364.25671 C 376.98633,364.19227 376.54101,364.13661 375.7793,364.08972 L 375.7793,363.35144 C 376.98633,363.39833 377.90918,363.42177 378.54785,363.42175 C 379.64941,363.42177 380.6455,363.39833 381.53613,363.35144 L 381.53613,364.08972 C 380.73925,364.13661 380.28955,364.1996 380.18701,364.27869 C 380.08447,364.3578 380.01855,364.5409 379.98926,364.828 C 379.93652,365.39051 379.91015,366.53016 379.91016,368.24695 C 379.91015,370.53211 379.91894,372.12439 379.93652,373.0238 C 379.9541,373.92322 380.00683,374.45789 380.09473,374.62781 C 380.12988,374.70398 380.20458,374.76404 380.31885,374.80798 C 380.4331,374.85193 380.83886,374.89734 381.53613,374.94421 L 381.53613,375.6825 L 380.49902,375.65613 C 379.84277,375.63269 379.25683,375.62097 378.74121,375.62097 L 375.7793,375.6825 z M 382.74023,375.6825 L 382.74023,374.94421 C 383.45508,374.91492 383.87402,374.86804 383.99707,374.80359 C 384.0791,374.75671 384.14062,374.68054 384.18164,374.57507 C 384.24609,374.43445 384.28711,373.93933 384.30469,373.08972 C 384.33984,371.68348 384.35742,370.62293 384.35742,369.90808 L 384.33984,366.19031 C 384.33984,365.20594 384.30762,364.63758 384.24316,364.48523 C 384.20801,364.39735 384.15234,364.3329 384.07617,364.29187 C 383.95898,364.22157 383.51367,364.15419 382.74023,364.08972 L 382.74023,363.35144 C 383.66601,363.38075 384.35156,363.3954 384.79688,363.39539 C 385.28906,363.3954 385.84863,363.38075 386.47559,363.35144 C 387.82324,365.07411 389.34667,366.94325 391.0459,368.95886 C 392.17675,370.30652 393.15233,371.4198 393.97266,372.29871 L 393.97266,368.81824 C 393.97264,367.49989 393.95507,366.36317 393.91992,365.40808 C 393.89647,364.83973 393.8496,364.4911 393.7793,364.36218 C 393.74413,364.29188 393.67968,364.24208 393.58594,364.21277 C 393.49218,364.18348 393.08202,364.14247 392.35547,364.08972 L 392.35547,363.35144 C 392.99413,363.38075 393.62987,363.3954 394.2627,363.39539 C 395.12987,363.3954 395.91503,363.38075 396.61816,363.35144 L 396.61816,364.08972 C 395.9619,364.13075 395.56639,364.17762 395.43164,364.23035 C 395.35546,364.25965 395.29393,364.30067 395.24707,364.35339 C 395.20018,364.40614 395.16503,364.47352 395.1416,364.55554 C 395.10057,364.69618 395.07714,365.14735 395.07129,365.90906 L 395.04492,369.42468 L 395.02734,372.96667 C 395.02733,373.9159 395.04784,374.86511 395.08887,375.81433 L 394.97461,375.93738 C 394.26561,375.80847 393.76464,375.72351 393.47168,375.6825 C 391.96581,374.01257 390.14648,371.91492 388.01367,369.38953 C 386.93554,368.11219 386.06543,367.037 385.40332,366.16394 L 385.40332,369.58289 C 385.40332,370.51453 385.41797,371.6366 385.44727,372.9491 C 385.46484,373.9159 385.50586,374.47254 385.57031,374.61902 C 385.59375,374.68347 385.63769,374.73328 385.70215,374.76843 C 385.81347,374.83289 386.23535,374.89148 386.96777,374.94421 L 386.96777,375.6825 C 386.01855,375.64148 385.33886,375.62097 384.92871,375.62097 C 384.58886,375.62097 383.85937,375.64148 382.74023,375.6825 L 382.74023,375.6825 z M 398.41113,371.96472 L 399.18457,371.96472 C 399.19043,372.83191 399.21826,373.34021 399.26807,373.48962 C 399.31787,373.63904 399.48633,373.83533 399.77344,374.07849 C 400.06054,374.32166 400.43261,374.51941 400.88965,374.67175 C 401.34668,374.8241 401.81543,374.90027 402.2959,374.90027 C 403.12206,374.90027 403.78271,374.68054 404.27783,374.24109 C 404.77294,373.80164 405.0205,373.25379 405.02051,372.59753 C 405.0205,371.99402 404.85644,371.53113 404.52832,371.20886 C 404.19433,370.8866 403.56152,370.65809 402.62988,370.52332 C 401.24707,370.3241 400.31396,370.10731 399.83057,369.87292 C 399.34717,369.63856 398.96631,369.28699 398.68799,368.81824 C 398.40967,368.34949 398.27051,367.787 398.27051,367.13074 C 398.27051,366.02918 398.65869,365.09608 399.43506,364.33142 C 400.21142,363.56678 401.45214,363.18446 403.15723,363.18445 C 403.82519,363.18446 404.41845,363.23427 404.93701,363.33386 C 405.45556,363.43348 405.97558,363.59755 406.49707,363.82605 L 406.58496,364.03699 C 406.4912,364.40614 406.42528,364.74012 406.38721,365.03894 C 406.34911,365.33778 406.31542,365.8534 406.28613,366.58582 L 405.52148,366.58582 C 405.49218,365.68348 405.44823,365.17665 405.38965,365.06531 C 405.27831,364.87196 404.9956,364.66835 404.5415,364.45447 C 404.0874,364.24061 403.56738,364.13368 402.98145,364.13367 C 402.17871,364.13368 401.55615,364.3285 401.11377,364.71814 C 400.67138,365.1078 400.45019,365.61024 400.4502,366.22546 C 400.45019,366.60047 400.54101,366.92713 400.72266,367.20544 C 400.90429,367.48377 401.15771,367.68885 401.48291,367.82068 C 401.8081,367.95252 402.50683,368.1034 403.5791,368.27332 C 404.55175,368.41981 405.21093,368.56336 405.55664,368.70398 C 406.12499,368.9325 406.55565,369.28113 406.84863,369.74988 C 407.14159,370.21863 407.28808,370.81043 407.28809,371.52527 C 407.28808,372.76746 406.81347,373.80017 405.86426,374.62341 C 404.91503,375.44666 403.61718,375.85828 401.9707,375.85828 C 401.23828,375.85828 400.57324,375.78796 399.97559,375.64734 C 399.37793,375.50671 398.75976,375.27527 398.12109,374.953 C 398.22656,374.54285 398.29687,374.17078 398.33203,373.83679 C 398.37891,373.3739 398.40527,372.74988 398.41113,371.96472 L 398.41113,371.96472 z "
         id="text17717" />
    </g>
  </g>
</svg>
