<?xml version="1.0" encoding="UTF-8" standalone="no"?>
<!-- Created with Inkscape (http://www.inkscape.org/) -->
<svg
   xmlns:dc="http://purl.org/dc/elements/1.1/"
   xmlns:cc="http://web.resource.org/cc/"
   xmlns:rdf="http://www.w3.org/1999/02/22-rdf-syntax-ns#"
   xmlns:svg="http://www.w3.org/2000/svg"
   xmlns="http://www.w3.org/2000/svg"
   xmlns:sodipodi="http://sodipodi.sourceforge.net/DTD/sodipodi-0.dtd"
   xmlns:inkscape="http://www.inkscape.org/namespaces/inkscape"
   id="svg1920"
   sodipodi:version="0.32"
   inkscape:version="0.44"
   width="640"
   height="400"
   version="1.0"
   sodipodi:docbase="C:\Mario"
   sodipodi:docname="Isla_de_Pascua_bandera.svg">
  <metadata
     id="metadata1925">
    <rdf:RDF>
      <cc:Work
         rdf:about="">
        <dc:format>image/svg+xml</dc:format>
        <dc:type
           rdf:resource="http://purl.org/dc/dcmitype/StillImage" />
      </cc:Work>
    </rdf:RDF>
  </metadata>
  <defs
     id="defs1923" />
  <sodipodi:namedview
     inkscape:window-height="740"
     inkscape:window-width="1280"
     inkscape:pageshadow="2"
     inkscape:pageopacity="0.0"
     guidetolerance="10.0"
     gridtolerance="10.0"
     objecttolerance="10.0"
     borderopacity="1.0"
     bordercolor="#666666"
     pagecolor="#ffffff"
     id="base"
     height="400px"
     inkscape:zoom="1.4142136"
     inkscape:cx="357.1004"
     inkscape:cy="218.50303"
     inkscape:window-x="-4"
     inkscape:window-y="-4"
     inkscape:current-layer="svg1920" />
  <rect
     style="opacity:1;fill:white;fill-opacity:1;stroke:none;stroke-width:2;stroke-linecap:butt;stroke-linejoin:round;stroke-miterlimit:4;stroke-dasharray:none;stroke-opacity:1"
     id="rect2510"
     width="640"
     height="401.38315"
     x="0"
     y="0" />
  <path
     style="fill:red"
     d="M 588.67827,81.399422 L 589.58946,73.591172 L 587.3741,81.214232 C 582.74669,97.137495 569.5727,110.71532 556.08234,113.46478 C 546.04682,115.51006 537.19464,118.74982 533.68697,121.66097 C 531.49233,123.48244 530.67288,123.41559 528.24309,121.21672 C 526.39889,119.54786 522.58512,118.62825 517.50805,118.62825 C 510.54625,118.62825 509.21691,119.19213 506.03665,123.49321 C 504.05841,126.16895 502.04541,127.96392 501.56361,127.48203 C 501.08169,127.00013 501.58703,125.52201 502.68627,124.19731 C 504.14786,122.43636 504.18678,121.78873 502.83092,121.78873 C 501.81106,121.78873 499.99929,124.12747 498.80508,126.98587 C 496.12006,133.41234 488.83062,140.05335 485.25544,140.05335 C 474.25796,136.18879 472.8107,119.04785 460.23056,118.14505 C 455.97596,118.35953 455.97486,118.36274 459.91152,119.07926 C 465.35762,120.07043 467.43358,125.8144 474.38067,134.66957 C 518.14524,190.45294 579.2087,141.63428 588.67827,81.399422 z "
     id="path2508"
     sodipodi:nodetypes="cccsssssssssssssc" />
  <path
     style="fill:red"
     d="M 326.50627,347.16812 C 257.38696,348.12023 166.814,300.86766 138.95437,234.15834 C 136.29344,226.5379 132.427,219.44213 129.46232,211.95004 C 120.60038,198.86008 112.13173,184.27071 100.97945,172.9775 C 74.852441,146.41246 50.112518,114.5932 48.53823,75.956408 C 48.622532,72.853038 49.612764,76.635082 50.873209,84.352441 C 61.266235,147.84635 122.9681,190.17059 167.01738,136.1167 C 169.94707,132.52137 172.62002,127.18992 174.36527,125.23437 C 177.58249,121.62975 183.30882,120.365 183.30882,123.25904 C 183.30882,124.1282 181.54312,124.83929 179.38503,124.83929 C 176.24339,124.83929 174.63063,126.47776 171.29706,133.05643 C 167.4459,140.65601 151.30489,157.0193 148.3312,158.02453 C 145.85194,158.86257 147.49654,160.83509 153.6791,164.07903 C 167.51413,171.33798 172.29679,174.51053 186.70204,185.98439 C 202.08849,198.72982 220.25417,208.77417 240.74164,209.22165 C 259.16669,205.36895 270.80051,204.97695 282.00497,215.7578 C 287.91395,221.44335 299.74506,222.81473 320.00037,222.81473 C 340.25569,222.81473 351.95041,221.29823 357.99579,215.7578 C 369.75877,204.97695 380.83407,205.36895 399.2591,209.22165 C 420.14216,209.11147 437.44249,198.22991 453.29871,185.98439 C 467.70399,174.51053 472.48662,171.33798 486.32165,164.07903 C 492.50428,160.83509 494.98661,158.02453 491.66955,158.02453 C 488.53046,158.02453 472.55486,140.65601 468.70374,133.05643 C 465.37011,126.47776 463.75737,124.83929 460.61572,124.83929 C 458.45763,124.83929 456.69194,124.1282 456.69194,123.25904 C 456.69194,120.365 462.4182,121.62975 465.63552,125.23437 C 467.38074,127.18992 470.68727,132.08698 472.98343,136.1167 C 522.33807,195.22327 580.2652,138.67683 590.10517,84.352441 C 591.30654,76.625698 592.35613,72.853038 592.44037,75.956408 C 590.72212,114.49584 564.25821,146.12381 539.02126,172.9775 C 528.3154,184.89592 518.46555,197.95763 510.53829,211.95004 C 507.09433,219.22623 504.40932,226.85518 501.04637,234.15834 C 466.43505,300.31536 401.31164,348.404 326.50627,347.16812 z "
     id="path1972"
     sodipodi:nodetypes="csssssssssssssssssssssssssssssssc" />
  <path
     style="fill:white"
     d="M 267.06217,213.42651 C 268.53028,207.15733 258.09065,209.73416 261.61432,214.83846 C 263.12537,217.26436 267.37217,216.75748 267.06217,213.42651 z "
     id="path1970" />
  <path
     style="fill:white"
     d="M 378.74942,213.96389 C 380.46471,208.28703 370.62077,208.1803 372.95846,214.30548 C 373.79658,217.30856 378.08497,216.86281 378.74942,213.96389 z "
     id="path1968" />
  <path
     style="fill:red"
     d="M 51.521349,81.28947 L 50.610281,73.481214 L 52.825567,81.104266 C 57.452966,97.027526 70.6272,110.6054 84.117481,113.35485 C 94.152807,115.40013 103.00497,118.63987 106.51291,121.55105 C 108.70775,123.37253 109.52694,123.30564 111.95666,121.1068 C 113.80053,119.43791 117.61455,118.5183 122.69162,118.5183 C 129.65371,118.5183 130.98326,119.08221 134.16316,123.38329 C 136.14133,126.05902 138.1542,127.85396 138.63607,127.3721 C 139.11795,126.89022 138.61281,125.41209 137.51336,124.08738 C 136.05193,122.32641 136.01296,121.67879 137.36868,121.67879 C 138.38868,121.67879 140.20037,124.01753 141.39472,126.87596 C 144.07973,133.3024 151.36888,139.94341 154.94406,139.94341 C 165.94198,136.07886 167.38889,118.93794 179.96902,118.03514 C 184.22373,118.24958 184.22512,118.25283 180.28801,118.96935 C 174.84213,119.9605 172.76609,125.70447 165.81904,134.55964 C 122.05432,190.34301 60.990805,141.52435 51.521349,81.28947 z "
     id="path1966"
     sodipodi:nodetypes="cccsssssssssssssc" />
  <path
     style="fill:white"
     d="M 125.43302,154.09957 C 130.96475,149.91062 127.48919,146.93643 117.38292,147.21105 L 108.24698,147.45931 L 116.14833,148.39624 C 120.49393,148.91154 123.83025,150.04427 123.56191,150.91341 C 123.29361,151.78254 121.87147,152.29448 120.40148,152.05104 C 118.93137,151.8076 114.88411,151.28699 111.40752,150.89415 L 105.08651,150.17988 L 110.6173,151.86441 C 113.65944,152.79091 117.21482,154.15857 118.5188,154.90369 C 121.70356,156.7239 122.01502,156.68764 125.43302,154.09957 z "
     id="path1964" />
  <path
     style="fill:white"
     d="M 105.08651,146.96279 C 105.08651,143.40224 97.367078,143.87331 96.673211,147.47619 C 96.224158,149.80797 96.976239,150.2617 100.60219,149.84657 C 103.30642,149.53694 105.08651,148.3923 105.08651,146.96279 z "
     id="path1962" />
  <path
     style="fill:white"
     d="M 99.983643,147.5883 C 100.50875,147.0632 101.87171,147.00706 103.01261,147.46355 C 104.27313,147.968 103.89852,148.34245 102.05777,148.41828 C 100.39188,148.4869 99.458542,148.1134 99.983643,147.5883 z "
     id="path1960" />
  <path
     style="fill:white"
     d="M 115.06005,131.48516 C 114.51239,126.75565 109.03712,124.33271 109.03712,128.81988 C 109.03712,130.26748 107.61481,133.25999 105.87664,135.46985 C 101.17905,141.44187 101.99437,142.28398 109.13391,138.83444 C 114.57369,136.20626 115.47694,135.08614 115.06005,131.48516 z "
     id="path1958" />
  <path
     style="fill:white"
     d="M 88.466932,133.48261 C 84.73439,126.83711 84.447959,121.22043 87.703805,118.5183 C 90.534591,116.16896 90.767719,117.45065 88.244526,121.49094 C 87.170442,123.21082 86.935689,125.6491 87.676044,127.39539 C 88.756658,129.94431 89.095592,129.67175 90.043646,125.4915 C 90.652179,122.80821 91.615059,119.86048 92.183317,118.94099 C 93.68596,116.50967 88.48017,114.98225 85.923283,117.10426 C 81.682545,120.62377 85.179512,139.06154 90.087752,139.06154 C 90.919723,139.06154 90.190347,136.55103 88.466932,133.48261 z "
     id="path1956" />
  <path
     style="fill:white"
     d="M 103.92473,134.48562 C 107.19199,130.06662 107.20462,129.88266 104.29767,129.1225 C 102.64214,128.68955 100.99515,129.14871 100.6379,130.14287 C 100.28066,131.13701 98.949271,133.74293 98.191403,133.03163 C 97.431306,132.31824 98.848022,128.14532 100.83568,126.64603 C 102.81755,125.15123 103.93884,123.42826 103.32771,122.81719 C 102.71676,122.20618 101.12932,122.58893 99.800266,123.66784 C 97.786327,125.30256 97.548025,125.19044 98.369902,122.99479 C 99.443469,120.12674 95.555631,117.62165 93.982149,120.16755 C 93.468435,120.99876 93.877314,121.67879 94.890735,121.67879 C 95.906747,121.67879 96.311157,122.77892 95.792233,124.13124 C 95.253345,125.53555 95.517779,126.17168 96.410905,125.61971 C 97.26878,125.08949 97.859071,125.94147 97.72266,127.51294 C 97.227517,133.21747 98.004687,139.06154 99.258483,139.06154 C 99.964165,139.06154 102.06397,137.00237 103.92473,134.48562 z "
     id="path1954"
     sodipodi:nodetypes="csssssssssssssc" />
  <path
     style="fill:white"
     d="M 92.740191,126.7962 C 92.344683,125.28534 92.035415,126.89362 92.052943,130.37017 C 92.070481,133.84671 92.39411,135.08288 92.772088,133.11716 C 93.150064,131.15149 93.135694,128.30706 92.740191,126.7962 z "
     id="path1952" />
  <path
     style="fill:white"
     d="M 127.43571,127.20966 C 126.1321,125.90597 124.68119,124.83929 124.21205,124.83929 C 123.74248,124.83929 123.76806,125.90597 124.2682,127.20966 C 124.76862,128.51337 126.21911,129.58006 127.49203,129.58006 C 129.49889,129.58006 129.4916,129.26552 127.43571,127.20966 z "
     id="path1950" />
  <path
     style="fill:white"
     d="M 521.10856,154.99786 C 522.61776,154.20233 526.3412,152.79285 529.38347,151.86566 L 534.91415,150.17988 L 528.59334,150.89415 C 525.11657,151.28699 521.06942,151.8076 519.59932,152.05104 C 518.12934,152.29448 516.70722,151.78254 516.43887,150.91341 C 516.17035,150.04427 519.50688,148.91154 523.85227,148.39624 L 531.75381,147.45931 L 522.61778,147.21105 C 512.51153,146.93643 509.03606,149.91062 514.56758,154.09957 C 518.16019,156.81987 517.75692,156.76449 521.10856,154.99786 z "
     id="path1946" />
  <path
     style="fill:white"
     d="M 543.30817,147.376 C 542.69632,144.19791 537.69159,142.76309 535.35804,145.09665 C 532.98185,147.47301 535.35743,150.12329 539.86407,150.12329 C 542.78744,150.12329 543.69758,149.39739 543.30817,147.376 z "
     id="path1944" />
  <path
     style="fill:white"
     d="M 536.13227,147.5883 C 536.65753,147.0632 538.02056,147.00706 539.16107,147.46355 C 540.42162,147.968 540.0472,148.34245 538.20629,148.41828 C 536.54045,148.4869 535.60732,148.1134 536.13227,147.5883 z "
     id="path1942" />
  <path
     style="fill:white"
     d="M 534.40673,135.9456 C 532.51325,133.38407 530.96372,130.14066 530.96372,128.73803 C 530.96372,124.30189 525.4806,126.82421 524.93809,131.5097 C 524.52326,135.09883 525.4087,136.25199 530.46945,138.7149 C 533.78319,140.32762 536.79941,141.41216 537.17239,141.12502 C 537.54489,140.83786 536.30074,138.50713 534.40673,135.9456 z "
     id="path1940" />
  <path
     style="fill:white"
     d="M 542.27565,134.71586 C 542.41335,132.32574 542.41439,129.08442 542.27788,127.51294 C 542.14159,125.94147 542.7319,125.08949 543.59001,125.61971 C 544.48314,126.17168 544.74744,125.53555 544.20872,124.13124 C 543.68936,122.77892 544.0939,121.67879 545.11006,121.67879 C 546.12336,121.67879 546.53247,120.99876 546.01877,120.16755 C 544.44506,117.62165 540.5572,120.12674 541.63078,122.99479 C 542.45277,125.19044 542.21423,125.30256 540.20062,123.66784 C 538.8715,122.58893 537.28392,122.20618 536.67312,122.81719 C 536.06181,123.42826 537.18329,125.15123 539.165,126.64603 C 541.153,128.14532 542.15023,129.94375 541.39026,130.65714 C 540.63245,131.36845 539.71986,131.13701 539.36302,130.14287 C 539.00551,129.14871 537.35862,128.68955 535.70315,129.1225 C 532.79611,129.88266 532.80868,130.06662 536.07595,134.48562 C 540.3078,140.20921 541.95561,140.27042 542.27565,134.71586 z "
     id="path1938" />
  <path
     style="fill:white"
     d="M 553.83664,134.39927 C 556.83588,128.59967 556.96265,119.49862 554.0774,117.10426 C 551.52098,114.98225 546.31455,116.50967 547.81753,118.94099 C 548.38589,119.86048 549.34875,122.80821 549.95702,125.4915 C 550.90525,129.67175 551.24401,129.94431 552.32463,127.39539 C 553.06514,125.6491 552.83022,123.21082 551.75614,121.49094 C 549.23313,117.45065 549.46609,116.16896 552.29703,118.5183 C 555.55304,121.22043 555.26628,126.83711 551.53377,133.48261 C 549.8105,136.55103 549.08094,139.06154 549.91291,139.06154 C 550.74488,139.06154 552.51051,136.96351 553.83664,134.39927 z "
     id="path1936" />
  <path
     style="fill:white"
     d="M 547.85176,126.7962 C 547.45624,125.28534 547.14683,126.89362 547.16448,130.37017 C 547.1821,133.84671 547.50585,135.08288 547.88377,133.11716 C 548.26188,131.15149 548.24739,128.30706 547.85176,126.7962 z "
     id="path1934" />
  <path
     style="fill:white"
     d="M 515.73261,127.20966 C 516.23254,125.90597 516.25833,124.83929 515.78858,124.83929 C 515.31951,124.83929 513.86855,125.90597 512.565,127.20966 C 510.50921,129.26552 510.50187,129.58006 512.50869,129.58006 C 513.78159,129.58006 515.23244,128.51337 515.73261,127.20966 z "
     id="path1929" />
</svg>
