<svg height="692.70001" width="501.82001" xmlns="http://www.w3.org/2000/svg"><g transform="translate(-140.71772 -130.4198)"><path d="m140.79321 130.32101h501.81931v692.7027h-501.81931z" fill="#0057f0"/><g fill-rule="evenodd"><path d="m416.20279 483.17574 40.40538 41.568 12.20887 20.63875-14.54 22.3725-2.11-4.00147c-4.775 3.47847-7.22412 6.95729-7.3475 10.43612l-4.2675-5.48859-6.60125 11.31414c-1.37862-1.72489-1.9825-3.83705-1.80987-6.33685-3.81513 3.57342-6.46763 8.31012-7.9565 14.20975-1.88475-1.37268-2.9945-3.13335-3.32825-5.2813-9.00738 8.82602-26.544-.47162-47.9565-18.00638 1.19375-4.5365 11.09975 3.12733 18.95737.90921 6.89813-1.94776 11.86475-8.7867 15.8645-14.48925 2.24325-3.1989 4.9805-5.64307 5.6435-7.63441 4.34125-13.03837-28.1115-7.87359-23.99912-42.47712l26.837-17.73288z" fill="#fff"/><path d="m262.13908 419.80574 31.39413-.29055c-.14457 5.13567-2.66387 8.72044-11.33682 10.75536l-35.7545-1.16256c1.74438-4.65165 6.97678-7.75276 15.69725-9.30225z" fill="#ffbb0f"/><g fill="#fff"><path d="m171.15446 502.06949c.39791-2.01438 1.66855-5.86985 6.42791-5.4613 9.0737 4.98154 16.35412 16.40625 27.96375 14.20225l41.18675 30.211v3.48804c-2.6876 4.13115-7.50685 4.58043-11.84068 5.70862l-.67535-6.15082c-8.95181-.84189-10.63666 5.00243-17.26262 4.4511l-1.00064-4.98544-10.14769.0213-.2576-7.50331c-2.57456 1.6037-5.09988 3.30555-8.46496 3.32822-2.03031-1.35177-3.28571-3.47952-3.76476-6.38115-7.1954.7852-11.1919-1.09452-13.73425-4.18536.22712-3.02031-.69661-9.76218-2.68831-14.89213-2.25709-5.81421-5.63883-9.97263-5.74158-11.85095z"/><path d="m80.1525 188.416h52.0909c-6.82186 6.82101-11.7828 17.3633-14.883 31.6267 10.1543-3.09997 19.9213-8.21651 28.836-16.2785v47.9053c-9.612-8.99235-17.9841-13.0235-25.1153-12.0926l-8.83701 54.8813-14.883-55.3465c-7.30999.59528-16.2612 10.8369-26.0456 21.3945v-53.9513c7.98435 7.44208 15.8902 12.5581 25.1153 12.5575-.541985-9.53434-8.91355-20.3868-16.2782-30.6964z" transform="matrix(1.25 0 0 1.25 85.545329 -37.974255)"/><path d="m353.677 188.416h52.0909c-6.82186 6.82101-11.7828 17.3633-14.883 31.6267 10.1543-3.09997 19.9213-8.21651 28.836-16.2785v47.9053c-9.612-8.99235-17.9841-13.0235-25.1153-12.0926l-8.83701 54.8813-14.883-55.3465c-7.30999.59528-16.2612 10.8369-26.0456 21.3945v-53.9513c7.98435 7.44208 15.8902 12.5581 25.1153 12.5575-.54198-9.53434-8.91355-20.3868-16.2782-30.6964z" transform="matrix(1.25 0 0 1.25 85.545329 -37.974255)"/><path d="m215.183 188.416h52.0909c-6.82186 6.82101-11.7828 17.3633-14.8833 31.6267 10.1546-3.09997 19.9216-8.21651 28.836-16.2785v47.9053c-9.61172-8.99235-17.9839-13.0235-25.1153-12.0926l-8.83673 54.8813-14.883-55.3465c-7.30999.59528-16.2612 10.8369-26.0456 21.3945v-53.9513c7.98435 7.44208 15.8902 12.5581 25.1153 12.5575-.54199-9.53434-8.91355-20.3868-16.2782-30.6964z" transform="matrix(1.25 0 0 1.25 85.545329 -37.974255)"/><path d="m298.279 489.639h52.0909c-6.82215 6.82101-11.7831 17.3631-14.8833 31.6264 10.1546-3.09997 19.9216-8.21651 28.836-16.2782v47.905c-9.61172-8.99235-17.9839-13.0232-25.1153-12.0926l-8.83673 54.8816-14.883-55.3465c-7.30999.59499-16.2612 10.8366-26.0456 21.3945v-53.9516c7.98435 7.44237 15.8902 12.5583 25.1153 12.5578-.54199-9.53462-8.91383-20.3868-16.2782-30.6964z" transform="matrix(1.25 0 0 1.25 83.545329 22.025745)"/><path d="m139.012 489.639h52.0909c-6.82186 6.82101-11.7828 17.3631-14.883 31.6264 10.1546-3.09997 19.9216-8.21651 28.836-16.2782v47.905c-9.61172-8.99235-17.9839-13.0232-25.1153-12.0926l-8.83673 54.8816-14.883-55.3465c-7.30999.59499-16.2612 10.8366-26.0456 21.3945v-53.9516c7.98435 7.44237 15.8902 12.5583 25.1153 12.5578-.54199-9.53462-8.91383-20.3868-16.2785-30.6964z" transform="matrix(1.25 0 0 1.25 83.545329 22.025745)"/><path d="m200.07658 388.94574c13.57975.017 11.36764-4.63465 17.77187-4.1478 1.95095.14811 6.20753 2.47359 11.54906 3.55749 3.65528.74126 7.81973.12969 12.10147.90602 3.59646.65233 8.75197 2.7737 12.35445 3.44587 12.86687 2.40201 23.028 3.41787 24.18987 5.52543.49323 2.86938-1.92012 6.90167-2.88035 10.35249.315 5.19059-2.28225 8.92489-6.62351 11.78788l-.43548-10.13245c-7.17201-1.08143-7.39488 3.65846-12.29917 5.51587-3.81473 1.44425-9.04253.75508-11.09906 1.90383-9.62965 5.37838-7.03099 10.7419 3.9554 12.40157 3.77362.56976 8.19318-2.21989 14.4195-1.97681 2.57173-1.73304 5.14346-4.62863 7.71591-8.68678 1.18559 3.69638.33626 7.39277-3.41965 9.34584l4.71862 2.03386c-15.069 4.34658-11.89807 7.5313-19.69937 9.77033-7.8013 2.23866-13.20525-1.98886-19.55338 4.393 14.00563 13.03837 17.28038 13.8685 29.38713 14.67425 16.13125 1.07362 36.3515-21.59688 55.13462-24.46725 2.57387.2289 2.04768 2.52567 2.14193 4.40965l2.8715-2.02288c1.99771-.52051 1.63807.86457 1.98284 4.89438 5.91413-5.16401 9.98681-4.51346 12.80087-.37418 7.13941 1.84466 10.69339 2.52638 10.08176 4.37174l6.55938.88123c24.81875-4.48158 72.89362-23.78763 107.595-21.00188 35.80437 2.87363 51.261 41.50275 103.63437 37.98213 29.18593-.11238 14.96263-32.95-19.41487-37.32413-30.36513 9.26044-8.31013 2.14548-12.31938-5.64732-9.97125 1.05696-17.72787 2.61567-23.27425 1.69476 1.1395-2.655 3.2315-3.53161 6.41625-6.32729-10.61537.44894-14.5935-.85961-18.76712-3.00295 2.92637-1.46055 2.4885-2.03102 8.96137-2.54055-5.29862-1.153-19.95912-1.81558-24.11325-3.82677 1.17038-.88938 1.12325-1.49103 5.53388-2.52887-6.10475.33521-18.78663-2.26948-22.494-4.80082 1.75687-.55205 2.41937-.90071 7.64687-.83835-9.29487-3.2113-18.09137-1.22244-24.30287-2.34886.40325-.78165.25687-1.84642 1.03787-3.11422-4.42562-.83906-6.6405-1.30146-10.9315-3.26267 3.98625-1.50095 1.75788-1.53461 10.0385-1.71815-4.19837-2.90976-10.57112-6.71846-10.95025-8.76544 1.40075.0255 2.92075-.62752 8.38775.44681-2.37362-2.76271-1.68912-4.2711-2.54337-5.18173 2.66312-.27674 6.50087.57153 16.10962 5.17181-2.53775-2.05654-3.4575-3.54934-4.40925-6.13134 4.961.48401 7.48138 1.19268 13.79263 4.41355-1.80788-1.47862-2.04275-2.95831-2.52638-4.32319 2.40588-.0112 4.70725-.023 10.96225 2.95795-2.35525-2.30527-3.16487-4.07976-2.7145-4.95461 2.28325.0755 8.06675.89681 12.29813 4.82458-1.4995-1.57572-2.058-3.51674-2.22063-4.07374 2.46613-.11938 5.32875.26857 8.04438 1.59591-1.89563-2.35771-1.18413-2.72267-1.4255-4.03051 4.269-.20941 6.27987-.36639 13.2945 2.60752 0-2.23725.00075-3.82181-.15688-4.6467 3.99038.15627 9.04988.26433 25.23788 6.9339-.33063-2.27763-.85575-3.39873-1.35675-5.33303 4.67962-.75189 8.71437.22463 17.58012 5.33906 8.5375-3.4285 16.13125-.87414 22.34488 10.42619 1.55225-7.09407 6.0111-6.6763 16.869 10.26638 3.3615-9.79512 7.33-.0797 11.4683 6.02894 4.0723-11.94166 5.8192 5.76709 8.7293 8.65064 11.3886.44042 5.6265 8.92347 12.364 14.11262 1.7097-3.28003 3.8074.41634 6.2926 11.0902 4.4305-6.76913 6.3415-4.40503 4.5716 11.30705 2.9402-.48791.648 3.67477-3.3881 9.00107 4.5603 4.55421.9819 5.91095-3.7595 9.30296 6.9676 2.79992 4.6333 6.76276-7.003 11.88886 7.7651 2.43815 1.9134 4.68603-5.884 7.90335 6.2415 8.2474 2.4711 10.09914-12.2004 8.22438 4.8523 4.87133-2.5519 3.61488-11.7064 1.48322 4.4716 9.61406-4.3316-.15095-13.32778-.51626-2.44875 9.58712-11.1185-1.29013-25.059-3.72934-2.06187 7.28718-8.19312-12.7495-33.8-17.96175 2.95725 3.05044.68213 3.48485 3.63938 5.66363 1.45137 5.23311 6.391 6.39637 6.09837 13.95537 3.96075 3.12626 14.31675 9.74091 5.77813 16.3555 3.84025.22429 5.52225 4.95036 8.28912 6.09236 7.0725 2.91863 13.64 1.41555 15.61713 6.08847 2.46162 5.8167 2.599 12.50687-1.0435 17.74237 1.74337.24414 1.88862 7.95119 1.30712 19.05063-2.45125-3.54863-4.90175-5.93434-7.352-7.15678 2.33113 6.53528 1.9485 12.68363-1.14587 18.44475l-3.35763-5.84185c-2.15437 7.21134-.52937 23.1435-9.95062 7.68154-3.19263 21.32362-6.09425 13.28737-8.70525 9.03084-9.24775 1.10763-13.5535 9.4826-17.27788 9.42768-21.82712-12.27862-13.69237-11.62135-20.19575-17.707-6.92262-6.47823-6.1735-2.19047-12.65037-11.25036 12.39162-3.04725 23.91562 3.11634 34.4115-2.07815 5.80037-2.87079 6.34112-9.40465 6.01762-19.2745-9.09425-1.33405-16.25037-3.88064-19.14162-9.09071-44.63113 2.02749-41.73163-14.30963-53.29638-21.267-3.13375-1.88504-15.64475-14.62788-18.321-15.06825-3.73075-.61335-6.76-4.47661-6.92475-6.22736-5.82337 3.7435-11.64612 5.54882-17.46887 5.4163-5.21075 6.10902-11.19713 9.50457-17.95825 10.18807-22.89225 17.91138-46.17209 31.17225-69.83896 39.7825l-8.44052 2.56359c-7.54547 15.53812-17.42637 27.07625-18.59675 20.37125-10.66181 5.03256-7.13445 12.52412-10.01516 12.78462-3.50044.31678-4.42949-4.93618-7.74532-4.26897-.83304 10.79859-3.21627 12.68288-7.14934 5.65406-8.17476 4.36465-10.53603 9.02055-14.05875 4.37493-5.03753.91877-8.33068 4.74448-11.62418 4.50071-2.35736-.35326-10.27878-4.76044-15.38475-9.80328-6.79748-6.71351-11.42611-15.46862-9.27461-20.44062 3.00189-5.90174 27.51413 20.17237 44.75938-15.96013-23.68413-8.91567-47.18663-28.4595-63.89302-53.07137l-2.43637 3.63189c-19.57188-34.3215-19.7635-62.01113-5.22638-84.70425-8.34236-20.00338-1.15688-29.22738 19.66752-19.67638z" stroke="#0055f0" stroke-width=".216"/></g><path d="m182.49133 398.00449c9.82843-10.85033 11.85875-5.61473 22.96413-1.16292l-.29055-3.19748c-9.01134-.87202-18.89475-8.42989-22.67363 4.3604z" fill="#0057f0"/><path d="m237.14033 442.76949c-7.94551 2.32512-18.023 2.13095-26.74312.58146 8.23571 5.71749 18.50637 6.10513 26.74312-.58146z" fill="#0057f0"/></g><path d="m227.54791 412.53827-2.61627 5.23251" fill="none" stroke="#0055f0" stroke-width="1.41732"/><path d="m213.01288 400.03952h-4.06873" fill="none" stroke="#0055f0" stroke-width="1.41732"/><path d="m219.11786 404.98077-4.35999 4.94123" fill="none" stroke="#0055f0" stroke-width="1.41732"/><path d="m223.47784 408.75949-3.48748 4.94125" fill="none" stroke="#0055f0" stroke-width="1.41732"/><path d="m217.95538 403.237-6.97754 2.03378" fill="none" stroke="#0055f0" stroke-width="1.41732"/><path d="m360.39029 501.19824c7.40238-.4461 12.94975-2.74641 13.37175-10.17426" fill="none" stroke="#0055f0" stroke-width="1.41732"/><path d="m353.70529 490.15199c10.31962-3.29386 17.97412-8.04082 19.76637-15.98775" fill="none" stroke="#0055f0" stroke-width="1.41732"/><path d="m340.33408 471.25699c9.30183-1.74331 17.15034-4.94079 21.80159-11.33681" fill="none" stroke="#0055f0" stroke-width="1.41732"/><path d="m341.49658 455.26949c2.45835-1.65934 5.09846-3.6698 10.75534-5.52331l-.29088 4.36039-10.46445 1.16292z" fill="#0057f0" fill-rule="evenodd"/><path d="m326.38033 452.36199c.96838-4.06914 5.42551-5.42551 13.37137-4.06949" fill="none" stroke="#0055f0" stroke-width=".992126"/><path d="m197.822 348.874-1.86 3.489-1.628.465.93-3.721z" fill="#0057f0" fill-rule="evenodd" transform="matrix(1.25 0 0 1.25 71.545329 2.025745)"/><path d="m319.11408 445.38574c2.80985-1.8411 4.45677-3.29421 4.94185-4.3604" fill="none" stroke="#0055f0" stroke-width=".992126"/><path d="m339.46158 445.38574c2.71276 1.45347 5.42551 2.1313 8.13934 2.03457" fill="none" stroke="#0055f0" stroke-width=".992126"/><path d="m332.48533 442.47949c-2.03457 2.03493-4.84477 3.29386-8.42989 3.77894" fill="none" stroke="#0055f0" stroke-width=".992126"/><path d="m541.19779 521.83699c6.395 2.61568 9.68887 6.39461 9.88337 11.33647" fill="none" stroke="#0055f0" stroke-width=".992126"/><path d="m502.53654 481.72199c3.48812-2.61602 9.30187-2.90692 15.11575-3.19749" fill="none" stroke="#0055f0" stroke-width="1.41732"/><path d="m516.48904 494.22199 5.23238-3.19784 4.0695 3.19784c-3.48838-1.16292-6.5895-1.16292-9.30188 0z" fill="#0057f0" fill-rule="evenodd"/><path d="m301.38158 546.25449c.87201-4.06985 6.83185-9.01205 8.42989-14.09813 1.59839-5.08677-.58146-11.48245-.87201-18.45887l6.39496-4.06949-3.77894 5.81351.58146 2.90693 4.3604-4.06949-3.77893 5.81351 3.19748.87202-2.61602 3.19783-.29091 2.90658 3.77893-2.90658c-1.74756 2.22733-3.20386 4.5528-2.61602 7.55788l9.01134.872-10.17427 1.45346c-1.35637 3.00366-3.87602 6.29824-4.65095 9.59245l-6.97642 2.61638z" fill="#0057f0" fill-rule="evenodd"/><path d="m254.29034 397.42325 17.44129 2.32501" fill="none" stroke="#0055f0" stroke-width=".992126"/><path d="m253.70908 405.56199c4.84406-2.61637 10.85173-3.29421 18.02237-2.03492" fill="none" stroke="#0055f0" stroke-width=".992126"/><path d="m128.057 316.783 4.419 3.953-6.977-4.418 5.116-2.791-6.743-.232-1.628 1.162-.465-1.86 10.232.698z" fill="#0057f0" fill-rule="evenodd" transform="matrix(1.25 0 0 1.25 71.545329 2.025745)"/><path d="m249.05792 387.83078 11.04621 6.10373" fill="none" stroke="#fff" stroke-width=".708662"/><path d="m250.2204 382.01703 15.11627 12.20874" fill="none" stroke="#fff" stroke-width=".992126"/><path d="m257.19788 377.36575 11.91748 17.73127" fill="none" stroke="#fff" stroke-width="1.41732"/><path d="m269.98785 381.43451 3.48877 14.535" fill="none" stroke="#fff" stroke-width=".992126"/><g fill-rule="evenodd"><path d="m463.29404 577.93824c-1.79425-6.49205-.43762-12.015 7.8485-15.40625 3.488.29091 5.03788 1.74437 4.65088 4.36003.242 3.87603-2.931 1.71993-5.55938 4.0337-2.6285 2.31343-3.83962 6.77055-6.94 7.01257z" fill="#ffbb0f"/><path d="m472.69029 585.59824c-3.59925-6.45449-5.70287-13.54188 3.66138-17.18475 3.4805-.36744 5.27525.7696 5.38512 3.41185.96375 3.76157-2.55687 2.23831-4.7055 5.00351-2.14837 2.76485-1.3405 7.95083-4.341 8.76934z" fill="#ffbb0f"/><path d="m479.66654 591.41324c-3.59962-6.45485-5.70325-13.54188 3.661-17.185 3.48063-.36744 5.27525.76996 5.3855 3.41185.96338 3.76192-2.55725 2.23866-4.70587 5.00351-2.14838 2.7652-1.3405 7.95119-4.34063 8.76969z" fill="#ffbb0f"/><path d="m489.64279 597.04949c-4.95275-3.11493-7.76862-10.89072-1.125-16.10613 3.364-.96697 5.32888.42271 5.8965 3.00544.43963 4.40894-1.83862 2.06752-3.47387 5.16366-1.63563 3.09614 1.51475 6.60969-1.29763 7.93702z" fill="#ffbb0f"/><path d="m502.92154 600.75699c-5.76425-1.00347-11.31875-7.13055-7.14962-14.47625 2.746-2.17028 5.09137-1.62957 6.59587.54496 2.07913 3.91287-.917 2.61-1.25612 6.0952-.33875 3.4852 3.90862 5.54137 1.80987 7.83603z" fill="#ffbb0f"/><path d="m189.82771 567.86449c.55381-6.71245 4.89401-9.97619 12.96925-10.01269 3.17373.31288 4.41815 2.79249 3.15318 5.11476-1.69016 3.43099-4.5861.86953-8.06245 1.2887-3.26445.39332-5.06622 4.45075-8.05996 3.60922z" fill="#ffbb0f"/><path d="m196.57408 579.78574c-2.93564-6.01229-2.19507-13.23775 5.11476-16.0225 3.48059-.36744 4.69383.47941 4.80402 3.1213.0914 4.63393-2.5572 2.23866-4.70552 5.00351-2.14866 2.7652-3.08516 4.4628-5.21327 7.89767z" fill="#ffbb0f"/><path d="m203.55033 587.92449c-2.8148-4.41178-5.87374-10.71639 1.91693-17.76613 3.48058-.36743 6.72873 2.22343 6.83893 4.86532.0917 4.05212-1.70646 4.23886-4.41496 6.45697-3.01996 2.47359-3.66626 4.75335-4.34091 6.44386z" fill="#ffbb0f"/><path d="m214.68908 599.37449c-5.53642-1.07256-9.613-12.42709-1.99701-21.048 3.36401-.96661 5.32879 2.16708 5.89642 4.7498.43973 4.11839-1.6611 3.04831-2.8924 6.32622-1.05377 2.80524.0612 5.73768-1.00701 9.97194z" fill="#ffbb0f"/><path d="m221.86408 602.79199c-3.14646-2.74819-3.4689-12.55638-.75437-16.51038 3.32893-2.14688 5.48256-.49146 6.01406 1.70753 2.44276 4.59744-3.95965 7.948-5.25969 14.80287z" fill="#ffbb0f"/></g><path d="m274.34783 409.05074c-2.4222-.96945-4.45678-.77527-6.10441.58146" fill="none" stroke="#0055f0" stroke-width=".708662"/><path d="m261.84908 427.94449c1.25928 1.74366 3.29386 1.93749 6.10441.58146" fill="none" stroke="#0055f0" stroke-width=".708662"/><path d="m392.36654 500.03449c8.91212-1.35744 26.35413 3.68044 47.67237 11.62736" fill="none" stroke="#0055f0" stroke-width=".992126"/><path d="m458.35154 548.87074c3.97275-2.61638 4.4575-5.62004 1.4535-9.01134 5.62 3.00366 3.97275 8.62335-1.4535 9.01134z" fill="#0057f0" fill-rule="evenodd"/><path d="m366.20529 579.68324c-1.79425-6.4917-.43762-12.015 7.8485-15.40625 3.488.2909 5.03788 1.74437 4.65088 4.3604.242 3.87567-2.931 1.71992-5.55938 4.03335-2.6285 2.31342-3.83962 6.77055-6.94 7.01256z" fill="#ffbb0f" fill-rule="evenodd"/><path d="m374.69654 586.36699c-2.39312-6.99201-3.20275-14.3405 6.66038-16.25913 3.4905.2576 5.05425 1.69619 4.69237 4.3154.27888 3.87355-2.91437 1.74792-5.52037 4.0865-2.6065 2.33859-2.73413 7.58588-5.83238 7.85729z" fill="#ffbb0f" fill-rule="evenodd"/><path d="m386.37279 594.65324c-4.42912-5.91627-7.46037-12.65888 1.33338-17.51988 3.4005-.82877 5.33087.0589 5.793 2.66244 1.45737 3.59929-2.23513 2.55969-3.9955 5.58674-1.76 3.0274-.26675 8.0589-3.13088 9.27071z" fill="#ffbb0f" fill-rule="evenodd"/><path d="m397.49529 596.75824c-4.95275-3.11493-7.76862-10.89071-1.125-16.1065 3.36375-.96662 5.32888.42307 5.8965 3.00578.43963 4.40894-1.83862 2.06717-3.47387 5.16367-1.63563 3.09614 1.51475 6.60969-1.29763 7.93701z" fill="#ffbb0f" fill-rule="evenodd"/><path d="m411.93654 599.88574c-5.76387-1.00347-11.31875-7.13055-7.14962-14.47625 2.746-2.17028 5.09137-1.62956 6.59587.5446 2.07913 3.91322-.917 2.61035-1.25575 6.09555-.33912 3.4852 3.90825 5.54137 1.8095 7.83602z" fill="#ffbb0f" fill-rule="evenodd"/><path d="m207.49033 520.67324c1.64692.0971 3.29386-.19346 4.9415-.87201" fill="none" stroke="#0055f0" stroke-width=".708662"/><path d="m211.85033 525.90574c2.51928-.0967 4.65023-.5811 6.39531-1.45346" fill="none" stroke="#0055f0" stroke-width=".708662"/><path d="m217.37283 531.42949c3.3913.0971 6.29823.0971 7.84878-.87201" fill="none" stroke="#0055f0" stroke-width=".992126"/><path d="m222.60533 536.37074c4.16657.48438 7.94516.19381 11.33681-.87236" fill="none" stroke="#0055f0" stroke-width="1.41732"/><path d="m155.52671 505.65824c.55381-6.71245 4.89401-9.97584 12.96925-10.01233 3.17373.31288 4.99961 2.21138 3.735 4.53367-1.69052 3.43098-4.29592 1.16007-7.77189 1.57925-3.2648.39331-5.93824 4.15985-8.93233 3.89941z" fill="#ffbb0f" fill-rule="evenodd"/><path d="m158.20408 517.57824c-2.93564-6.01229 3.61808-13.52838 10.92793-16.313 3.48058-.3678 3.24071 4.258 3.35091 6.90024.0918 4.63358-2.70213 3.57448-6.15898 4.13114-2.72941.43973-5.99173 1.84678-8.11985 5.28166z" fill="#ffbb0f" fill-rule="evenodd"/><path d="m161.40121 526.88074c-2.81445-4.41178 2.26595-14.20475 10.63772-16.02213 3.48095-.36743 4.98438 3.38599 5.09458 6.02824.0917 4.05213-5.77667 2.20465-7.903 2.67768-3.80977.84791-7.1543 5.62571-7.8293 7.31622z" fill="#ffbb0f" fill-rule="evenodd"/><path d="m166.14458 538.03949c-1.90311-10.83615 4.35083-14.34688 9.63036-16.39625 3.9476-1.5502 5.13815 3.22972 2.40839 5.62146-1.30465 2.37472-2.47004.80965-5.79934 3.12874-3.19393 2.22483-5.1711 3.41185-6.23941 7.6461z" fill="#ffbb0f" fill-rule="evenodd"/><path d="m173.31983 548.43324c-3.14646-2.74855 2.05405-14.01025 4.76859-17.96388 3.32894-2.14725 5.19201.96201 5.72351 3.16099 2.44276 4.25835-9.1917 7.5111-10.49209 14.80288z" fill="#ffbb0f" fill-rule="evenodd"/></g></svg>