<svg height="420" width="630" xmlns="http://www.w3.org/2000/svg"><g transform="translate(-20 -22.362183)"><path d="m20 22.362183h630v420h-630z" fill="#fff210" fill-rule="evenodd"/><path d="m20 124.36218v195.93347c19.206643 0 20.168305 20.06653 39.375 20.06653 19.206677 0 20.168289-20.06653 39.374999-20.06653 19.206651 0 20.168321 20.06653 39.375001 20.06653s20.16832-20.06653 39.375-20.06653 20.16832 20.06653 39.375 20.06653c19.2067 0 20.16834-20.06653 39.375-20.06653 19.20668 0 20.16833 20.06653 39.375 20.06653 19.20669 0 20.16832-20.06653 39.375-20.06653 19.20665 0 20.16828 20.06653 39.375 20.06653 19.20666 0 20.16828-20.06653 39.375-20.06653 19.20664 0 20.16831 20.06653 39.375 20.06653 19.20668 0 20.16831-20.06653 39.375-20.06653s20.16833 20.06653 39.375 20.06653c19.20671 0 20.16834-20.06653 39.375-20.06653 19.20664 0 20.1683 20.06653 39.375 20.06653 19.20668 0 20.16828-20.06653 39.375-20.06653v-195.93347l-23.62501 39.35851 15.75001-3.60667-23.62501 39.35851 15.75001-2.74794-23.625 36.72508-23.62501-36.72508 15.75001 2.74794-23.62501-39.35851 15.75001 3.60667-23.625-39.35851-23.62501 39.35851 15.75001-3.80703-23.62501 39.55887 15.75001-2.74794-23.625 36.72508-23.62501-36.72508 15.75001 2.74794-23.62501-39.35851 15.75001 3.60667-23.625-39.35851-23.62501 39.35851 15.75001-3.60667-23.625 39.35851 15.75-2.74794-23.625 36.72508-23.62501-36.72508 15.75001 2.74794-23.625-39.35851 15.75 3.60667-23.625-39.35851-23.62501 39.35851 15.75001-3.60667-23.625 39.35851 15.75-2.74794-23.625 36.72508-23.62501-36.72508 15.75001 2.74794-23.625-39.35851 15.75 3.60667-23.625-39.35851-23.62501 39.35851 15.75001-3.60667-23.625 39.35851 15.75-2.74794-23.625 36.72508-23.62501-36.72508 15.75001 2.94831-23.625-39.55888 15.75 3.69255-23.625-39.44439-23.62501 39.35851 15.75001-3.80703-23.625 39.55887 15.75-2.74794-23.625 36.72508-23.62501-36.72508 15.75001 2.74794-23.625-39.35851 15.75 3.60667-23.625-39.35851-23.625 39.35851 15.75-3.60667-23.625 39.35851 15.75-2.74794-23.625 36.72508-23.625-36.72508 15.75 2.74794-23.625-39.35851 15.75 3.60667-23.625001-39.35851-23.624999 39.35851 15.75-3.60667-23.625 39.35851 15.75-2.74794-23.625 36.72508-23.625-36.72508 15.75 2.74794-23.625-39.35851 15.75 3.60667z" fill="#00a650"/></g></svg>