<svg height="520" width="780" xmlns="http://www.w3.org/2000/svg" xmlns:xlink="http://www.w3.org/1999/xlink"><clipPath id="a"><path d="m-2.8571417 76.647896h780.0000017l-180 130.000004 180 130-180 130 180 130h-780.0000017z"/></clipPath><g transform="translate(2.857142 -76.647896)"><path d="m-2.8571417 76.647896h780.0000017l-180 130.000004 180 130-180 130 180 130h-780.0000017z" fill-rule="evenodd"/><g fill-rule="evenodd" transform="matrix(1.15998935 -.40426438 .17730417 1.13450152 -240.399851 17.943069)"><path d="m295.90427 322.47544 10.73288-6.18316 139.60028 228.13502-10.73289 6.18316z" fill="#ffd52b" fill-rule="nonzero"/><path d="m309.34055 311.59401-10.40422-14.41442c9.39638-.91405 17.84512-3.2349 25.34653-6.96286l-70.30075-48.11203 9.88028 82.91998c6.96432-4.60568 13.10891-10.69197 18.43418-18.259l8.06231 15.76359z" fill="#fff"/><path d="m453.7445 380.20375c2.20429-1.06176 5.17438.45351 4.788 4.62794l-1.78336 156.91688c-.12347 6.52528-3.57643 12.43139-9.36184 16.66711-6.60229 2.90078-13.59953 3.01498-19.56301-.004l-142.84086-73.59919c-6.33945-2.67066-2.2211-9.44725 3.36819-6.21667l142.42394 73.45098c3.78525 1.66082 7.41273 1.50946 12.0388-1.10422 4.57959-2.68965 6.45308-5.70737 6.76234-9.72703l1.95925-156.62945c-.0928-2.36549.88598-3.74533 2.20855-4.38235zm7.34832.82044c1.9898-1.47859 6.8002-.76388 6.38415 1.37589l.25973 27.063c.0961 5.0941-6.65465 4.97783-6.75551-.38445l-.69625-25.64527c-.25495-1.05495.14457-1.91632.80788-2.40917zm-180.78028 104.14667c.76349-.32913 1.73416-.25712 2.56669.4651l23.113 12.73108c4.80381 2.65293 1.4363 8.59826-3.12714 6.0778l-24.12273-13.31564c-2.13536-.66992-.72028-4.97109 1.57018-5.95834z" fill="#fff"/><g transform="translate(.006075 -.0035)"><g><path id="b" d="m366.5389 301.37687c30.33665 4.34132 65.49915 75.82272 81.81936 83.09612l.42286 18.80524c-31.54993-4.01158-60.7777-62.12608-82.58212-65.16287-20.09628-2.79874-18.25831 17.65812-14.54774 24.70821l-10.27134 5.91723-18.90717-30.89814 8.34261-4.80614c-2.39437-11.39419.35014-22.94338 8.22975-27.48291 7.87961-4.53954 16.24838-5.78597 27.49379-4.17674zm97.33115 57.83228c22.86738-11.09792 32.4705 32.35536 6.22651 42.6744-.32795-7.44441-.28885-15.03945 1.23846-22.48357-9.79484 1.12614-17.02448-15.55134-7.46497-20.19083z" fill="#ffd52b" fill-rule="nonzero"/><use fill="#ffd52b" height="1052.3622" transform="matrix(-.47871695 .85188179 .90485568 .47871695 156.48567 -90.15065)" width="744.09448" xlink:href="#b"/></g><g><path id="c" d="m388.67146 443.73839 38.14128 8.34964 4.449 12.59827c-5.30282-.45864-10.55438-.70908-15.85627.19343l17.46518 5.09971 4.449 12.59828c-5.06781-.61965-9.73932-.57393-13.81722-.20376l15.31541 4.78318 3.63475 10.73485c-4.05413.28831-8.27356-.17632-12.32541.10308l13.8236 4.47635 4.38384 13.02456-17.93352-2.4974z" fill="#fff"/><use height="1052.3622" transform="matrix(-.47871695 .85188179 .90485568 .47871695 156.48567 -90.15065)" width="744.09448" xlink:href="#c"/></g></g></g><g clip-path="url(#a)"><path id="d" d="m76.647919-777.14288h59.999973v780h-59.999973z" fill="#ffd52b" fill-rule="evenodd" transform="rotate(90)"/><use height="1052.3622" transform="translate(0 459.99998)" width="744.09448" xlink:href="#d"/></g></g></svg>