<svg height="600" width="600" xmlns="http://www.w3.org/2000/svg" xmlns:xlink="http://www.w3.org/1999/xlink"><path d="m0 0h600v600h-600z" fill="#0046b8"/><g id="a" fill="#f5f5f5" fill-rule="evenodd"><path d="m102.051 160.386c-5.44661 3.70366-18.9711 4.99249-21.7934-1.40104-1.96503-4.45225 7.50925-16.3206 21.5908-15.421 2.96545-3.97179 7.67215-4.64627 8.64621-1.91075.58407 1.64054-.31041 5.64897-1.73863 8.1411 1.80597 9.74226 8.30027 16.5592 18.5761 22.5593 14.5668 8.50555 49.7891-7.49284 85.5202-10.2457 15.0861-1.16232 23.4364 7.54994 43.2353 6.79297 7.35529-.28114 15.5871-1.38464 23.9121-4.9843-.89911 12.8147-13.4352 18.2745-24.1777 18.6911-15.2511.59154-23.0266-8.72251-33.7425-6.85341 20.4852 7.63205 15.562 14.2087 21.5202 17.8617 4.28711 2.62846 10.5525-.3189 11.9548 2.13467.46639.81608-1.03055 8.51853 6.51115 12.1937.96244.46889 7.41615-1.54056 7.50925.23002.12479 2.36871 1.65029 7.87605-7.15637 6.8309-8.6059-1.02135-10.7182-8.26568-14.4858-9.44682-4.51321-1.41469-12.0214.28467-24.0489-4.3603-14.5987-5.6382-11.8384-17.0329-16.9486-18.7982.7084 3.04591 3.01102 5.46879 3.71972 9.13789-8.6794 2.28447-17.3585 5.19198-26.0376 6.85341.41512-1.42787 1.08645-4.92418.97974-5.11417-.50269-.89454-34.7502 12.409-66.6049 8.85242 1.85986-2.69983 5.04816-5.39966 5.57958-8.09947-2.86755.45055-2.75728 5.76436-7.43113 7.42149-6.00922 2.13064-16.5281 1.48108-19.7203 4.66009-3.83199 3.81619 1.87438 10.0475-1.42482 12.3984-3.19989 2.27981-5.7864 1.41583-6.71916.72704-1.75793-1.29783-5.8727-14.1047 11.6489-24.3763.23119-1.80868-3.62474-5.42024-4.62487-7.52386-1.63685-3.44262-5.6625-20.996-2.86986-22.8955 2.66153-1.81012 6.56782-.45683 8.62073-4.05537zm-7.90876-12.0452c1.39363 0 2.32456.88344 2.32456 1.97296 0 1.08951-.930936 1.97296-2.32456 1.97296s-2.32455-.88345-2.32455-1.97296.930936-1.97296 2.32455-1.97296z"/><path d="m96.6765 189.461c2.08101 1.73424 2.76006 3.46833 3.23897 5.2021-11.1344 5.98445-14.2511 14.0807-13.3375 23.0423-1.87067-.90851-3.73223-3.03111-4.7413-4.28314-1.67484-2.07824-1.37818-8.66643 2.81843-13.5014 3.26368-3.76041 8.90239-7.75681 12.0214-10.4598z"/><path d="m263.261 216.459c-8.54336-1.97938-13.4037-8.46569-16.4048-9.73296-3.75909-1.58733-29.035-1.34558-34.8731-13.9425-2.65674-.27663-4.95906.27712-6.90805 1.66144 17.1327 21.5012 32.0266 13.7997 36.7856 15.6994 3.31186 1.32195 7.39065 9.06588 13.7298 9.82472 2.35081.2813 3.91677-1.42305 7.67062-3.51014z"/><path d="m256.088 168.901c7.35529-.28114 15.5871-1.38464 23.9121-4.9843-.89912 12.8147-13.4352 18.2745-24.1777 18.6912l.26563-13.7068z" fill="#2b2a29"/></g><use xlink:href="#a" y="120"/><use xlink:href="#a" y="240"/><use x="240" xlink:href="#a"/><use x="240" xlink:href="#a" y="120"/><use x="240" xlink:href="#a" y="240"/></svg>