<svg height="600" width="1000" xmlns="http://www.w3.org/2000/svg"><path d="m0 0h1000v600h-1000z" fill="#f00"/><g fill="#fff"><path d="m387.5 300-62.5 50-50-40-62.5 50 62.5 50 50-40 62.5 50-62.5 50-50-40-62.5 50 62.5 50 50-40 62.5 50-62.5 50-50-40-62.5 50h-212.5v-600h212.5l62.5 50 50-40 62.5 50-62.5 50-50-40-62.5 50 62.5 50 50-40 62.5 50-62.5 50-50-40-62.5 50 62.5 50 50-40z"/><g><path d="m511.395 551.058c-18.8072-16.9697-32.5088-32.8158-45.0413-52.0906-9.81596-15.0969-23.1956-43.3004-21.2971-44.8933.4442-.37272 6.52795-3.26904 13.5194-6.43622l12.7118-5.7586 2.40659 3.06334c12.0518 15.3406 50.1834 93.8498 53.3244 109.79.63588 3.22704-.97276 6.42062-3.23416 6.42062-.66089 0-6.23623-4.54273-12.3897-10.095z"/><path d="m532.089 546.794c-6.46463-19.8996-30.0572-69.2925-45.1334-94.4905l-8.27209-13.8257 10.1926-4.65963c5.60594-2.56277 10.7581-4.43935 11.4493-4.17016 2.11993.82567 13.1453 19.6886 22.8173 39.0372 9.52335 19.0513 19.7946 42.9693 25.3408 59.0097l3.20222 9.26126-8.88074 7.74345-8.88076 7.74344-1.83519-5.64908z"/><path d="m555.574 526.283c-6.98184-21.8518-30.4201-72.3096-41.9455-90.3002-7.33525-11.45-8.03866-9.80097 6.76211-15.852 7.27811-2.97552 9.74042-3.57633 10.4286-2.54456 7.74863 11.6173 20.8817 37.209 30.0815 58.6183 5.24358 12.2026 15.4931 39.6401 15.4931 41.4745 0 .6631-13.8672 11.2458-17.7595 13.5531-.81198.48134-1.87403-1.23613-3.06035-4.94904z"/><path d="m582.444 513.811c-.24018-.43176-1.7737-4.9217-3.40779-9.97766-6.61411-20.4642-25.7804-62.4587-37.1808-81.4656-2.7926-4.65582-4.91473-8.6046-4.71582-8.7751.70281-.60246 17.4344-6.01179 18.595-6.01179.6476 0 2.97347 2.74548 5.16861 6.10108 9.82539 15.0196 23.0234 44.0791 33.5503 73.8714 5.49932 15.5637 5.51211 15.6304 3.32575 17.3038-5.24517 4.01464-14.9354 9.67253-15.3352 8.95387z"/><path d="m602.455 490.585c-7.68706-23.785-22.8217-58.5619-32.7358-75.2215-6.71724-11.2876-6.58918-11.8005 2.63643-10.5584 10.8452 1.46019 17.3328 6.06282 22.1237 15.6956 4.2523 8.54982 5.74793 14.8951 11.2047 47.5368 4.48853 26.8497 4.66305 28.6378 2.92554 29.9769-1.01624.78323-2.16792 1.43955-2.55935 1.45846-.39141.019-2.00926-3.98061-3.59522-8.88787z"/><path d="m617.298 373.594c-11.2891-2.60915-20.0032-8.77356-22.7119-16.0665-.8503-2.28932-8.60306-66.191-8.60306-70.9102 0-.5081 3.79855-1.22112 8.44124-1.58447 17.8058-1.39366 36.5516-10.9865 44.4968-22.7705l3.55054-5.26603 4.80771 10.301c2.64426 5.66557 6.73579 16.2606 9.09233 23.5444 4.22202 13.0499 10.8832 43.9308 12.2606 56.839.70455 6.60295.70163 6.61215-2.34593 7.37403-5.06866 1.26714-12.2793 6.05048-19.0799 12.6571l-6.43859 6.25499-8.47902.56606c-5.38952.35982-10.8517.0177-14.9908-.93893z"/><path d="m584.591 279.154c-.24894-.44611-1.78119-4.9478-3.40498-10.0038-1.62381-5.05595-3.61786-10.5298-4.43126-12.1641-1.35836-2.72935-1.16643-3.74278 2.35552-12.4371 2.1089-5.2061 5.79033-13.1157 8.1809-17.5768 4.76673-8.8953 16.1434-26.4936 17.7983-27.5317.57337-.35967 3.36531 1.0398 6.20433 3.10995 2.83901 2.07015 7.53584 4.79117 10.4374 6.04671 11.5971 5.01817 17.6336 15.2948 17.8034 30.3089.0739 6.53242-.43682 9.32152-2.57503 14.0619-5.32207 11.7988-17.2976 20.6556-33.6786 24.9079-8.1236 2.10876-17.8551 2.77427-18.69 1.27816z"/><path d="m553.796 236.041-15.6716-12.549 3.57398-7.18211c6.72072-13.5056 23.8941-38.1355 31.2632-44.8375 2.11778-1.92604 2.44777-1.77314 16.1164 7.46843 7.67486 5.1891 13.9543 10.1259 13.9543 10.9707 0 .84479-2.16271 4.38864-4.806 7.87524-9.26407 12.2195-20.803 32.8494-25.5493 45.6783-1.04529 2.82539-2.19502 5.13433-2.55493 5.13097-.35992-.004-7.70664-5.65312-16.326-12.5551z"/><path d="m554.289 169.433c-6.18156-4.99677-6.54783-5.5324-5.15899-7.5449.82223-1.19146 2.51943-2.89459 3.77159-3.78476 2.11563-1.50403 2.76302-1.29684 9.15478 2.92987 3.78298 2.50159 6.87813 4.8791 6.87813 5.28333 0 .40422-1.79811 2.48099-3.99579 4.61502l-3.99577 3.88007z"/><path d="m544.007 183.168c-3.45425-2.64744-6.51605-5.05261-6.80398-5.34487-.49929-.50675 1.06972-3.13913 4.43762-7.4452 1.46416-1.87203 1.92955-1.67554 8.56244 3.61504 4.23671 3.37936 6.72401 6.09029 6.28144 6.84631-1.7179 2.93477-5.04587 7.19761-5.5983 7.17105-.32934-.016-3.42498-2.1949-6.87922-4.84233z"/><path d="m534.055 196.964-7.70888-5.92144 2.91393-4.1884c1.60266-2.30359 3.47373-3.98337 4.15791-3.73277.68418.25058 4.14626 2.74316 7.69352 5.53906l6.44952 5.08347-1.93691 2.82551c-1.0653 1.55405-2.36966 3.61087-2.89857 4.57075-.81926 1.48683-2.10311.86845-8.67052-4.17618z"/><path d="m526.059 213.784c-4.34963-3.52601-7.10034-6.57093-7.13689-7.90026-.0886-3.22375 3.96715-9.45484 5.54309-8.5161 3.97029 2.36495 13.5623 10.6294 13.5211 11.6497-.0265.65579-1.12854 3.28742-2.44902 5.84812l-2.40084 4.65575-7.07745-5.73724z"/><g fill="#ffe700"><path d="m641.068 480.329c-.25886-.45583-.80657-3.26212-1.21717-6.23619-1.22061-8.84168-6.60752-30.7676-9.69833-39.4743-3.44975-9.71785-8.30196-19.8188-11.7781-24.5188l-2.53671-3.42982 7.18276-.63789c25.2053-2.23842 44.7125-7.51986 55.9175-15.1392l6.6454-4.51886 3.96746 28.1779c5.34617 37.9698 5.52818 35.1538-2.60744 40.3428-3.66281 2.33621-15.0508 9.01033-25.3067 14.8314-10.2558 5.82105-18.9735 10.7746-19.3725 11.0078-.39903.23322-.93731.0511-1.19615-.40471z"/><path d="m621.187 497.473c-4.36945-.79214-3.59413 1.98352-9.64716-34.5372-5.97583-36.0551-9.28159-46.2094-17.7392-54.4898-5.24044-5.13065-12.2963-8.26499-20.5851-9.14431l-6.57307-.69732 7.53938-7.70358 7.53936-7.70363v-11.9737c0-10.2264.28437-12.2349 1.94862-13.7636 2.72508-2.50307 3.13378-2.31836 5.01356 2.26573 2.43756 5.94434 9.45921 12.6548 16.8874 16.139 6.25055 2.9318 7.18463 3.05744 22.7335 3.05744h16.2151l6.69405-6.59703c7.84019-7.72651 12.0284-10.4079 19.9404-12.7666 8.6117-2.56727 11.5136-2.25874 15.0669 1.60205 2.7596 2.99835 2.91905 3.55978 1.61266 5.67779-.79738 1.29274-1.7528 4.10914-2.12319 6.25869-.44339 2.57329-2.16667 5.40883-5.04522 8.30155-11.4576 11.5139-34.6615 18.3408-64.2396 18.9001-7.36605.13931-13.3929.53344-13.3931.87587-.00013.34242 1.23965 1.80243 2.75505 3.24446 4.72483 4.49596 12.1748 16.833 16.04 26.5622 4.32685 10.891 7.91639 24.245 11.0448 41.0895l2.23555 12.0369-2.54485 3.80618c-1.3997 2.09341-3.16071 5.31518-3.91341 7.15953-.75267 1.84435-1.9097 3.28931-2.57118 3.21099-.66145-.0783-2.86258-.4433-4.89141-.81111z"/><path d="m554.017 275.301c0-14.3223.95029-12.8422-16.3745-25.5037l-10.514-7.684h-12.6615-12.6615v-9.71277c0-9.49602.0603-9.72817 2.70318-10.4014 1.48672-.37872 7.18392-.48971 12.6604-.24658 8.99392.39924 10.356.74667 14.0791 3.59107 3.6116 2.75918 30.2447 24.3596 37.3487 30.2912 2.39109 1.99647 2.67004 3.25581 3.56716 16.1042.53527 7.6661.71858 14.3565.40736 14.8676-.3112.5111-4.61324.92927-9.56007.92927h-8.99423v-12.2348z"/><path d="m583.852 168.495c-6.15351-4.28705-11.5777-8.14656-12.0538-8.57672-.4761-.43015 1.4973-3.39032 4.38532-6.57819 5.10358-5.63344 5.33722-5.75649 8.32445-4.38465 1.69042.77631 5.59082 3.37676 8.66758 5.7788 6.31977 4.9339 6.63716 6.30279 3.66431 15.8039l-1.79961 5.75146-11.1882-7.79464z"/></g><path d="m522.029 246.383-3.35742 4.45899c-15.5679 20.6712-36.0254 47.9723-38.8692 51.873-14.3044 19.6212-22.4851 36.3817-32.6543 66.8945l-1.78906 5.36523-.26368 10.4961-.26367 10.4961 20.8555-33.8106c11.471-18.5955 27.5268-44.7042 35.6797-58.0195 8.15289-13.3153 15.0504-24.4613 15.3281-24.7695.0623-.0691.13112-.11699.20508-.1543.0301-.1055.0872-.20426.17969-.27148l25.5664-18.5781c-.96154-.66512-2.02897-1.39272-3.24023-2.1875-3.44937-2.26334-7.78441-5.28064-9.63281-6.70703-1.84839-1.42641-4.34756-3.15458-5.55274-3.83984l-2.1914-1.2461z"/><path d="m548.082 264.301-25.7383 18.7051c-.44462.83259-7.91274 13.0643-17.3242 28.3672-13.2997 21.6252-52.1523 85.2838-54.4961 89.2891-.50874.8694.46735.63342 8.09179-1.95508 6.96078-2.36317 7.46219-2.6068 10.8867-5.31641 12.2344-9.68033 21.4319-19.7664 30.3867-33.3203 4.45315-6.74021 9.20153-15.569 16.4922-30.6641 18.5934-38.4972 23.3775-47.8591 30.6816-60.0449 1.28187-2.13864 2.22251-4.06737 2.08984-4.28516-.0896-.14716-.53884-.45347-1.07031-.77539z"/></g><g><path d="m923.554 429.153c-9.37029-9.71044-20.1037-17.37-28.5835-20.3977l-5.84005-2.08513-1.21544-29.0825c-2.19531-52.5288-7.92271-83.2445-19.0748-102.297-4.45222-7.60636-4.19259-9.53672 2.26285-16.8242 4.24267-4.7895 18.1103-15.0572 18.9996-14.0674.20677.23012 2.53385 3.82508 5.17127 7.98881 29.2226 46.1339 43.8984 106.871 39.1975 162.223-.70714 8.32747-1.60829 16.9176-2.00256 19.0893l-.71667 3.94846-8.19825-8.49585z"/><path d="m819.941 250.222c-13.0756-7.99151-26.9089-21.6532-31.8155-31.4207-1.50486-2.99575-1.50208-4.03523.03-11.1207 1.5846-7.32942 2.00357-8.04983 6.72853-11.5702 3.70656-2.7616 5.21425-4.704 5.7028-7.34707 1.5611-8.44597 2.0809-8.25902 17.6857 6.36072 16.8041 15.7434 29.4472 26.4411 31.2493 26.4411.70098 0 5.22476-3.68927 10.0529-8.1984l8.77834-8.19841v-9.98351c0-9.8084.0553-10.025 3.15349-12.3499 1.73442-1.30151 3.37298-2.36636 3.64127-2.36636.26828 0 1.30202 2.16393 2.2972 4.80876 1.40324 3.72933 1.71806 7.31345 1.40246 15.9668-.49209 13.4922-2.06453 16.7844-13.7786 28.8481-12.7987 13.1806-29.0469 23.9144-36.2036 23.9167-1.4996.00047-5.51543-1.70366-8.92409-3.78696z"/><path d="m847.882 212.081c-3.33328-3.94187-3.14201-4.52922 3.51438-10.7922 10.6478-10.0184 10.5623-9.98857 10.5623-3.68443 0 5.19373-.19578 5.53388-6.2472 10.8548-5.8107 5.10924-6.35776 5.36229-7.8295 3.62184z"/><path d="m837.397 199.483-2.71827-3.33287 11.889-11.0358 11.8891-11.0358 3.08297 3.29218 3.08296 3.2922-7.45881 6.95783c-4.10234 3.8268-9.61653 8.81121-12.2538 11.0765l-4.79493 4.11867-2.71827-3.33284z"/><path d="m827.953 188.452c-1.22216-1.577-2.22212-3.23224-2.22212-3.67834 0-.44607 5.10699-5.51123 11.3489-11.2559l11.3489-10.4448 3.12342 3.0202 3.12342 3.02019-8.34541 7.86464c-4.58999 4.32555-10.1026 9.32186-12.2502 11.1029l-3.90475 3.23832-2.22214-2.86726z"/><path d="m818.378 176.798-2.39672-2.58936 9.77428-9.57737c5.37584-5.26756 10.436-9.96059 11.2447-10.429 1.47307-.85311 6.84491 1.93 6.84491 3.54628 0 .8276-21.7438 21.6388-22.6085 21.6388-.25405 0-1.54046-1.16522-2.85866-2.58938z"/><path d="m840.881 282.493c-5.36944-2.68608-8.22501-7.50965-8.21875-13.883.006-7.52046 2.15005-10.1396 13.3251-16.288 19.7852-10.8857 33.1374-25.3632 37.8479-41.0375 2.94954-9.81473 5.13393-12.4305 10.3805-12.4305 10.3304 0 14.5658 11.0812 8.88717 23.252-3.12058 6.68832-6.91924 10.3357-19.787 18.9991-18.5819 12.5105-24.1505 19.5536-25.295 31.9934-.81873 8.89862-2.69956 11.2033-9.11438 11.1684-2.49071-.0136-6.10218-.81183-8.02548-1.77398z" fill="#ffe700"/><path d="m812.885 184.421c-8.67964-7.90668-14.4-16.4451-15.3478-22.9088-1.36289-9.29379 8.6685-20.0756 18.8488-20.2587 3.29907-.0594 6.37916 1.7666 10.5291 6.24193l2.2791 2.45782-5.71517 5.55999c-3.14336 3.05802-8.14452 7.92579-11.1137 10.8173-3.48651 3.39532-5.39818 5.7273-5.39768 6.58441.0004.77489 2.78872 4.68871 6.70082 9.40578 3.68504 4.4432 6.60192 8.17791 6.48195 8.29926-.12002.12132-3.38938-2.6682-7.26536-6.199z" fill="#ffe700"/><path d="m853.799 556.674c-8.06799-9.51883-18.7057-19.9193-25.9011-25.3234-7.76445-5.83146-14.6941-9.59775-30.0817-16.3496-39.0916-17.1528-69.209-37.2792-80.1866-53.586l-4.33679-6.44207-.74875-13.4798c-1.22931-22.131 1.24161-50.7911 6.0261-69.8962 6.96471-27.8112 17.4862-56.4327 32.2253-87.6616 9.17773-19.4458 28.4444-54.4142 31.3112-56.8291.9081-.76494 2.09026.16846 5.16241 4.07611 6.7088 8.53329 19.8664 20.5693 28.3253 25.9108 6.22675 3.93201 7.96432 5.46999 7.7207 6.83383-.1729.96792-2.66692 7.91752-5.54229 15.4435l-5.22793 13.6836-1.45482 19.6056c-2.67533 36.0531-6.36068 61.7862-11.9494 83.4376-.60392 2.33958-2.06912 3.43472-10.1205 7.56425-9.09719 4.66596-9.81018 4.87072-21.1668 6.07857-13.2875 1.41324-16.937 2.63291-20.4088 6.82057-2.7306 3.29372-3.12744 5.97-1.00762 6.79562 2.28276.88909 2.84842.69465 5.95972-2.04843 4.42674-3.90282 5.89947-4.44953 13.7325-5.09773l7.18754-.59478-6.05309 5.86369c-5.17082 5.00906-7.13513 6.24488-13.4766 8.4787-6.06199 2.13537-7.47619 2.99129-7.71064 4.66672-.26741 1.91117.0405 2.049 4.49221 2.01172 8.85132-.074 12.5636-2.17101 27.8108-15.709 10.7195-9.51785 20.4832-15.2552 25.9609-15.2552 5.13462 0 16.3794 1.72612 23.8092 3.65477 16.7103 4.33771 30.9826 12.9645 46.3032 27.9877l9.57847 9.39246 12.4752.0104c16.7566.016 26.7137 2.08209 37.8561 7.85491 4.57087 2.36812 8.30858 4.74702 8.3063 5.2865-.0104 2.0554-8.16206 19.2161-13.8654 29.1849-8.56849 14.9763-17.7286 27.6787-28.9807 40.1874-12.6549 14.0684-35.96 36.0195-38.2413 36.0195-.2814 0-3.78342-3.86021-7.78229-8.57827v.00004z"/></g></g><path d="m600.901 142.428v-5.59596l2.46616 2.35149c1.35636 1.29332 3.09298 2.3515 3.85911 2.3515 1.80236 0 24.5755-13.1688 24.5755-14.211 0-1.06402-22.8466-14.9892-24.5923-14.9892-.75686 0-2.48591 1.05818-3.84227 2.3515l-2.46616 2.35149v-4.51447c0-3.79348.34037-4.51447 2.13108-4.51447 2.08196 0 2.1311-.72099 2.1311-31.2608v-31.2608l-3.87701-4.69864-3.87703-4.69865 4.67619-.352847c10.5222-.793971 16.9299 3.90423 16.9299 12.4133 0 4.20482-.54054 5.26471-4.79496 9.40216-2.6372 2.56472-4.79494 5.47655-4.79494 6.47074 0 3.0445 4.24415 2.07583 8.66465-1.9776 5.33188-4.88909 11.784-5.29191 16.7555-1.04609 12.4447 10.6282-.62858 30.7304-14.4303 22.1889-1.86727-1.15559-3.92198-3.10044-4.56607-4.32191-1.20586-2.2869-6.42377-3.18416-6.42377-1.10463 0 4.7798 6.52284 12.9152 12.0567 15.0373 4.81862 1.84784 12.4227 1.35703 17.4811-1.12833 4.73615-2.32704 9.8873-8.59544 9.8873-12.0318 0-3.02231 3.91577-2.37844 4.69481.771955.93751 3.79116 6.89407 10.3483 10.9711 12.0773 5.08523 2.15654 12.7879 1.8093 18.1341-.817476 5.02731-2.47009 9.88731-8.65 9.88731-12.5725 0-3.30985-2.70259-3.14187-4.92861.306331-5.79938 8.98339-19.1066 6.9855-22.6744-3.40424-1.92794-5.61432-.93086-9.54378 3.58453-14.1268 3.02641-3.0717 4.3107-3.61332 8.56808-3.61332 4.30277 0 5.53328.533079 8.73746 3.78521 2.05116 2.08187 4.16094 3.78522 4.68839 3.78522 1.75624 0 .98969-3.04104-1.54656-6.13558-3.78681-4.62036-4.95325-7.38535-4.95325-11.7414 0-12.2254 13.3464-17.4602 22.0342-8.64236 3.06877 3.11468 3.5388 4.31338 3.5388 9.02452 0 4.54331-.61055 6.24461-3.72938 10.3916-5.86748 7.80183-4.39763 10.0165 2.20212 3.31794 2.99353-3.03833 4.55348-3.78521 7.90592-3.78521 8.98712 0 14.5541 6.03868 13.5879 14.7392-1.31005 11.7968-14.375 16.1933-21.9837 7.3978-4.25456-4.91818-7.03282-5.06722-6.0988-.327191.93226 4.73098 5.56482 10.5671 9.82048 12.3718 4.51207 1.91348 12.2734 1.93498 16.7269.04642 4.07703-1.72898 10.0336-8.28614 10.9711-12.0773.88118-3.56344 3.40893-3.41296 4.7943.285408 3.40274 9.08379 11.3952 13.8987 21.6397 13.0364 8.3751-.704925 15.3314-6.41395 17.1965-14.1131.64583-2.6661.43516-2.9741-2.03438-2.9741-1.77736 0-3.38677.978936-4.53592 2.759-5.79935 8.9834-19.1066 6.98551-22.6744-3.40423-1.92795-5.61432-.93086-9.54379 3.58452-14.1268 3.0264-3.0717 4.3107-3.61331 8.5681-3.61331 4.30278 0 5.53326.533078 8.73745 3.78521 2.05116 2.08187 4.64043 3.78521 5.75392 3.78521 3.27601 0 2.43041-4.13031-1.70486-8.32745-3.35426-3.40446-3.7294-4.38102-3.7294-9.70844 0-5.0462.44202-6.37186 2.9853-8.9532 1.83445-1.8619 4.70096-3.32417 7.43566-3.79311 4.55956-.78186 10.8899.06014 10.8899 1.44847 0 .426845-1.91797 2.67696-4.26218 5.00025l-4.26215 4.22418v31.1437c0 30.4227.0494 31.1437 2.13107 31.1437 1.68711 0 2.13108.721 2.13108 3.46077 0 2.69169-.28414 3.17237-1.27864 2.16297-2.14985-2.18203-3.80063-1.56502-16.5094 6.17075l-12.2698 7.46855 9.9676 5.95193c14.0613 8.39639 15.5482 9.00889 18.0381 7.43062 1.89767-1.20284 2.05213-.97443 2.05213 3.03436v4.33511h-95.3661-95.3661v-5.59595zm109.899-8.00574c6.9514-3.91202 12.6332-7.44038 12.6262-7.84078-.0181-1.04199-23.5245-13.6418-26.1745-14.03-2.02558-.29671-27.7466 13.5367-26.854 14.4427 1.37414 1.39471 25.0872 14.486 26.2839 14.5105.81378.0166 7.16706-3.17039 14.1184-7.08242zm-53.4366 3.33373c4.21982-2.21481 6.40579-5.71538 6.40105-10.2506-.009-8.78036-7.45577-14.2556-16.1548-11.8781-5.34174 1.4599-8.34868 5.53255-8.34868 11.3076 0 9.69421 9.46715 15.3534 18.1025 10.8211zm90.6178-.0244c1.71912-.9023 3.85303-3.06815 4.74202-4.81299 5.3883-10.5758-4.88717-21.5661-15.8261-16.9271-4.8148 2.04185-7.33104 6.07146-7.25562 11.6194.12418 9.13181 9.9221 14.5388 18.3397 10.1208z" fill="#ffe700"/><path d="m598.124 135.512-8.10175-8.19426 8.13553-8.08282 8.13558-8.08283 12.9896 7.76091c7.14431 4.26853 13.1274 8.21551 13.2958 8.77111.22924.75635-20.422 13.4157-25.5898 15.6868-.41974.18444-4.40896-3.35205-8.86491-7.8589z" fill="#0000bd"/><path d="m689.055 138.302c-3.9286-2.35148-10.267-6.06177-14.0853-8.24505l-6.94243-3.96963 14.4007-8.11238 14.4008-8.11235 12.0224 6.55461c19.3017 10.5233 19.092 8.91577 2.38165 18.26-7.97405 4.459-14.619 8.06067-14.7666 8.00374-.14757-.057-3.48262-2.02745-7.41123-4.37894z" fill="#0000bd"/><path d="m647.048 137.199c-5.1037-2.08657-7.48327-10.1855-4.59947-15.6545 1.80585-3.42474 7.6653-6.22715 11.1592-5.33712 1.48936.37941 3.90525 2.13405 5.36865 3.89923 7.31313 8.8212-1.44904 21.3767-11.9284 17.0924z" fill="#f00"/><path d="m735.913 136.111c-6.70084-5.34973-5.59701-15.7952 2.01009-19.0212 4.64161-1.96841 8.80176-.72318 12.19 3.64874 7.22853 9.32712-5.08099 22.6529-14.2001 15.3724z" fill="#f00"/><path d="m796.091 135.176 8.10177-8.19426-8.13555-8.08282-8.13556-8.08283-12.9896 7.76091c-7.14431 4.26852-13.1274 8.2155-13.2958 8.7711-.22924.75636 20.422 13.4158 25.5898 15.6868.41975.18445 4.40896-3.35204 8.86491-7.8589z" fill="#0000bd"/></svg>