<svg height="600" width="600" xmlns="http://www.w3.org/2000/svg" xmlns:xlink="http://www.w3.org/1999/xlink"><path d="m0 0h600v600h-600z" fill="#e2004a"/><path d="m0 0h600v200h-600z" fill="#f9f500"/><g fill="#e2004a"><path id="a" d="m205.958 70.1762c-3.36555 1.95262 14.3478 10.8282 21.6103 10.8282 5.49115 0 7.61674 1.06506 18.9533 8.34301 3.36554 2.30764 7.97101 4.08275 10.4509 4.08275 4.25119-.177511 4.25119-.177511.88566-2.13013-1.94847-1.06506-6.55395-4.61528-10.2737-7.98799-4.95975-4.43777-8.14815-5.85786-13.4622-5.85786-7.08534 0-18.599-3.90524-20.5475-7.10043-1.41706-2.13013-4.42835-2.30764-7.61675-.17751zm-131.965 1.5976c-6.73108 7.63296-9.74235 17.7511-7.26248 24.1415 1.5942 4.26026 4.78261 3.3727 3.71981-1.06506-1.23993-4.43777 2.83414-14.9109 7.79388-20.2362 3.01127-3.19519 3.18841-3.90524.885668-4.79279-1.41707-.532532-3.71981.355022-5.13688 1.95262zm15.942-60.7087c-.531401.532532-4.95974 1.24258-9.91948 1.42009-7.43961.17751-9.91948 1.24258-14.525 5.68034l-5.49114 5.50284 6.19968 3.90524c3.71981 2.30764 9.03382 3.72773 13.4622 3.72773 4.60547 0 7.08535.710044 6.37681 1.77511-.5314.887555-3.89694 1.77511-7.43961 1.77511-4.95974 0-6.02254.532532-5.13688 2.84017.531401 1.5976 1.0628 7.10043 1.0628 12.4258 0 7.81048.885669 10.6506 4.07408 13.8458 2.30274 2.30764 5.31401 4.43777 6.73108 4.9703 1.77134.710044.708535 2.84017-4.07407 8.1655-5.31401 5.85786-6.73108 8.87554-6.73108 14.3784 0 4.61528.885669 7.27794 2.83414 7.98799 4.25121 1.59759 6.19968-.532532 4.07408-4.43777-1.41707-3.01768-.885668-4.43777 3.36554-8.52052 3.01127-2.66266 8.67955-5.85786 12.7536-7.10043 4.7826-1.42009 7.79388-3.55022 8.32528-5.68035.5314-1.77511 1.5942-3.37271 2.47987-3.37271 2.1256 0 1.94847 1.24258-.35427 5.68035-1.94847 3.72773-1.94847 3.72773 16.2963 2.66266 15.5878-1.06506 41.2721-6.39039 53.4944-11.0057 2.30275-.887554 3.01129-.355022 3.01129 2.30764 0 3.37271 0 3.37271 12.9308-.17751 6.90822-1.77511 13.1079-3.72773 13.4622-4.08275.35428-.35502-.17713-2.66266-1.23993-5.14781-2.83414-6.03537 0-5.68035 3.71981.710044s13.285 11.0057 26.2158 12.4258c8.50242 1.06506 11.1594 2.30764 16.6506 7.81048 7.43963 7.45545 13.8164 9.76309 17.7134 6.5679 4.2512-3.55022 3.1884-5.32532-3.01128-5.32532-4.95973 0-6.37679-1.06506-9.38808-6.5679-2.47986-4.61528-4.7826-6.5679-7.97101-6.74541-2.657-.17751-6.02254-2.66266-8.85667-6.39039-2.47989-3.19519-7.79389-9.40807-12.0451-13.4908-4.07408-4.26026-7.26248-7.63296-6.73109-7.63296.35427 0 3.36554 1.24258 6.9082 2.66266 3.36555 1.42009 11.868 3.37271 18.7762 4.43777 10.628 1.77511 13.285 1.5976 18.7762-1.06506 6.02254-2.84017 13.285-10.8282 13.285-14.5559 0-.887554-3.01127-.177511-6.55395 1.5976-8.32528 4.26026-21.7874 4.43777-39.5008.355021-21.0789-4.61528-36.1353-3.72773-66.9565 3.55022-27.9871 6.74541-49.7746 8.69803-56.6828 4.9703-4.95974-2.66266-16.2963-24.1415-14.3478-27.1592 2.47987-3.90524 1.77134-6.74541-1.5942-6.74541-1.77134 0-3.71981.532533-4.42834 1.06506zm-5.13688 7.27794c.885668 3.01768-4.60548 5.14781-7.08535 2.66266-1.0628-1.06506-1.23994-2.66266-.531401-3.90524 1.5942-2.48515 6.55395-1.5976 7.61675 1.24258z"/><use x="260" xlink:href="#a"/><path id="b" d="m203.538 166.018c4.4558 5.40694 20.1402 13.3371 26.7348 13.3371 4.09934 0 9.08984 1.80232 14.2586 5.40695 4.99049 3.42439 9.98099 5.40694 14.0803 5.22671h6.23812l-5.34697-2.34301c-2.85171-1.44186-7.66397-4.50578-10.3374-6.8488-3.2082-2.88369-9.08985-5.22671-15.8627-6.48832-6.05989-1.08139-13.7238-4.14533-17.4667-6.66857-7.48574-5.22671-16.2191-6.48833-12.298-1.62208zm-136.348.18023c-4.27757 6.66856-5.34696 10.4534-4.81226 17.122.356464 5.22671 3.74287 3.60463 3.74287-1.80231 0-5.22673 4.09934-12.436 9.26806-16.2208 4.27757-3.06394 4.09934-5.76741-.356464-5.76741-2.13878 0-5.16873 2.70347-7.84221 6.66856zm21.5661-63.081c-.712928.72093-4.81226 1.08139-9.08983.72093-8.3769-.5407-17.8232 3.24416-19.4273 7.74995-1.60409 4.14533 4.9905 8.65111 15.1497 9.91272l9.4463 1.44186-6.95105 3.06393c-6.77282 3.06394-6.77282 3.24417-5.70342 10.6336 1.96055 12.436 6.59458 20.1859 12.298 20.7266l4.9905.5407-7.12928 5.40694c-12.298 9.01157-17.1103 25.2324-7.66398 26.494 3.9211.5407 5.34696-2.16277 2.13878-4.14532-5.34696-3.42439 2.31702-10.8139 14.9715-14.4185 6.23812-1.80231 11.2286-4.68602 13.5456-7.56972 4.09934-5.22671 6.59458-4.50579 3.74287.90115-1.06939 2.16278-1.96054 4.14533-1.96054 4.50579 0 1.98255 14.2586 2.34301 25.8436.90115 11.5851-1.62208 39.5675-8.83133 43.6668-11.3546.89116-.54069 1.78233.18023 1.78233 1.80231 0 2.70348 1.42584 2.88371 11.2286 1.80232 17.645-1.80232 18.0014-2.16278 13.7239-7.56973-6.23812-8.11042-2.49524-6.66856 5.5252 2.16279 9.62453 10.4534 15.328 13.5174 25.4872 13.5174 6.77282 0 9.4463 1.08139 14.7933 6.12787 9.08982 8.11041 14.2586 10.6336 19.6055 9.1918 5.52519-1.26162 4.45581-5.22671-1.78231-5.94763-3.56465-.36047-5.88167-2.52325-8.37691-7.38949-2.31702-4.86625-4.81228-7.20926-8.37692-7.93018-3.56463-.72093-7.12927-3.9651-11.7633-10.8139-3.56464-5.22674-8.55515-10.8139-11.0504-12.0755-9.44629-5.04648-3.74288-5.04648 10.5157.18023 13.1892 4.86624 15.5062 5.22671 22.279 3.42439 7.66398-1.98254 19.7838-11.3546 19.7838-15.3197 0-1.62208-1.96056-1.62208-9.26807.18024-12.4762 3.24416-18.7144 3.06392-38.8546-1.08139-19.7838-4.14532-34.0423-4.50579-49.0138-1.0814-29.7648 6.84881-45.6274 10.093-56.1431 11.1744-15.5062 1.44184-22.6355-2.88371-27.2695-17.3022-1.78232-5.40694-3.38641-11.8953-3.56464-14.4185-.356463-4.32555-4.63403-6.84879-7.12928-4.14532zm-10.1592 6.66856c0 2.88371-3.38641 4.50579-6.59458 3.24418-4.09934-1.44186-2.49525-5.76742 2.13878-5.76742 2.67348 0 4.4558 1.0814 4.4558 2.52324z"/><use x="260" xlink:href="#b"/></g><g fill="#f9f500"><path d="m290.333 240.739c-7.69432.738-22.1951 3.69002-22.1951 4.57562 0 .29521 2.36748 9.00367 5.17886 19.3358 2.81139 10.1845 6.80651 27.8966 8.58212 39.2619l3.55123 20.6642 6.06666.4428 6.21465.44281v-42.8043c0-23.6162-.4439-42.8043-1.03578-42.6567-.73984 0-3.55122.4428-6.3626.73801z"/><path d="m300.691 282.805v42.5091h6.51057 6.36262l1.03576-8.56086c2.07155-18.1549 9.46993-50.4796 15.9805-70.2581.59187-1.77122-11.0976-4.87084-21.3073-5.60885l-8.58212-.73801v42.6567z"/><path d="m249.346 252.252c-5.9187 2.65681-10.8016 5.46124-10.8016 5.90404 0 .5904 2.21952 3.69003 5.0309 7.08485 2.66342 3.39483 6.51057 9.15127 8.28619 12.8413 1.77561 3.69002 6.95448 9.88927 11.5415 14.0221 4.43903 3.98523 10.0618 9.88928 12.4293 13.2841l4.43902 5.90404-1.03577-5.90404c-2.36749-14.4649-7.10244-35.4243-10.2098-46.0516-2.66342-8.70846-4.1431-11.6605-6.21464-11.8081-1.47968-.2952-7.69431 1.91882-13.4651 4.72324z"/><path d="m329.693 259.189c-3.2553 11.0701-8.13822 33.0626-10.3577 46.9371l-.73984 5.16604 2.51545-3.69003c4.1431-6.05164 16.7203-19.0405 19.3838-19.9261 1.3317-.29521 3.84716-3.98524 5.77073-8.11806 1.77562-3.98524 5.62278-10.3321 8.43416-14.0221 2.81138-3.69002 5.17887-7.08484 5.17887-7.38005 0-1.32841-21.1594-11.0701-23.9708-11.0701-1.92358 0-3.40325 2.95202-6.21463 12.1033z"/><path d="m218.865 286.052c-18.496 5.16604-28.4098 26.4206-23.9708 51.6604 2.07154 11.5129 4.43903 17.8597 14.7968 39.8523 7.25041 15.6457 8.13822 22.2878 2.95935 22.2878-1.62764 0-3.55122-1.47601-4.43903-3.39482-1.92357-4.28044-2.95935-4.13284-5.17886 1.1808-1.47968 3.69003-1.47968 5.01844.59186 8.11806 4.88294 7.52766 17.0163 5.90404 19.9756-2.50922 2.66343-7.52765 1.92359-13.7269-4.29106-34.9814-9.46992-32.7674-9.46992-47.5276.14797-58.45 12.2813-13.8745 37.5838-10.1845 49.8651 7.38005 4.43903 6.49445 6.36262 7.97046 9.6179 8.11806 3.69919 0 3.99513-.4428 3.25529-3.39482-4.29106-13.5793-19.0878-29.963-31.2212-34.0958-10.0618-3.39483-23.6748-4.13284-32.109-1.77122z"/><path d="m355.587 285.462c-13.3171 2.80442-27.374 14.6125-34.7724 29.3726-4.88294 9.29888-4.73497 10.4797.29593 10.4797 3.10732-.1476 5.0309-1.77121 9.17399-7.82285 11.6894-17.1217 35.8082-21.4022 49.1253-8.85607 10.2098 9.74167 10.8016 25.9778 1.92357 56.5312-6.95448 23.4686-7.84228 31.7342-4.43903 38.8191 1.92358 4.13284 3.69919 5.60885 7.54635 6.34686 7.10244 1.3284 12.4293-2.36162 12.4293-8.70846 0-4.28044-2.21951-10.0369-3.25529-8.41327-.29593.4428-1.18374 2.06641-2.07155 3.69003-.8878 1.62361-2.95935 2.95202-4.43902 2.95202-5.17887 0-3.99512-6.93726 4.43902-25.2398 12.5772-27.4538 14.6488-35.2766 13.909-51.2176-.8878-18.7453-6.51058-28.7822-20.1236-35.5719-5.9187-2.95202-20.8634-4.13284-29.7415-2.36162z"/><path d="m226.707 307.897c-7.69432 5.31363-10.5057 10.1845-11.3935 19.7785-.73983 8.85607.88781 17.5645 9.02603 47.0847 4.587 16.3837 4.88294 24.9446.88781 31.439-7.54635 12.3985-25.8943 8.26566-25.4504-5.75644 0-2.50921 1.18375-6.05165 2.51546-8.11806 2.66341-4.13282 2.66341-4.13282-3.40325-1.91881-6.80652 2.36162-9.6179 7.67525-8.7301 16.5313.59188 6.19925 1.62765 8.26566 5.77074 12.1033 9.91383 9.15127 26.3382 8.26566 35.6602-2.06641 9.91384-10.9225 10.2098-20.2214 2.21952-63.1733-3.55123-19.0405-2.81139-25.535 3.25529-31.7342 5.32683-5.16603 10.8016-5.31363 18.052-.44279 5.62277 3.83763 14.5008 5.01843 14.5008 1.91881 0-3.69003-7.69432-11.3653-15.0927-15.0553-10.0618-5.01843-20.8634-5.16604-27.8179-.5904z"/><path d="m343.602 309.373c-4.43903 2.65681-9.6179 7.23245-11.5415 10.0369l-3.55123 5.16604 5.17886.4428c3.55124.2952 6.80652-.73801 10.6537-3.24722 7.54635-5.16604 13.1691-5.01844 18.6439.4428 3.99512 3.98523 4.29106 5.16604 4.29106 15.3505 0 6.05164-1.33171 17.5645-3.10732 25.535-1.62765 8.11806-3.10733 20.9594-3.25529 28.6346-.14797 12.9889.14796 14.6125 3.84715 21.107 5.91871 9.88928 14.7968 13.8745 27.374 11.9557 9.32197-1.32841 16.4244-8.11806 17.6082-16.3837 1.18373-8.56086-1.77562-15.0553-7.84229-17.5645-6.65855-2.80442-7.25041-2.65681-4.43903 1.62361 3.25529 4.87084 2.95935 12.9889-.4439 17.1217-2.21951 2.80442-4.29106 3.54243-9.76587 3.54243-5.77073 0-7.54635-.73801-10.3577-4.13283-7.10244-8.11806-6.80651-13.7269 2.81138-50.4796 5.62278-21.845 6.36262-29.6678 3.69919-37.7859-3.55122-10.4797-11.8374-16.0885-23.8228-16.0885-6.36261 0-9.6179 1.03321-15.9805 4.72324z"/><path d="m255.413 331.809c-.4439 1.18081-.59187 4.57563-.29593 7.67526l.4439 5.75644 43.3545.4428 43.2065.2952 1.47968-3.69002c.73984-2.06642 1.03578-5.60884.59187-8.11806l-.88781-4.42804h-43.6504c-35.8082 0-43.6504.29521-44.2423 2.06642z"/><path d="m321.259 350.406c-.14797.4428-.14797 1.1808 0 1.77121 4.29106 27.1586 4.73496 34.391 4.73496 59.4832 0 16.8265-.8878 32.915-2.07154 40.1475l-2.07155 12.2509h8.43415 8.43416l3.25528-11.0701c8.43416-28.1918 7.99025-60.0736-1.47967-92.5459l-2.81139-9.74167-8.13821-.59041c-4.43903-.14759-8.28619-.14759-8.28619.29521z"/><path d="m258.668 357.639c-5.62277 18.8929-7.39838 32.0294-7.39838 54.022 0 18.3025.59187 24.3542 3.40325 34.6863 4.73497 17.7121 4.73497 17.7121 14.2049 17.7121 7.99025 0 7.99025 0 7.39838-4.13283-2.95935-16.3837-3.69919-26.273-3.69919-48.4132 0-22.4354 2.66342-51.808 5.32684-58.7452.73984-2.06642-.29594-2.36162-8.13822-2.36162h-8.87806l-2.21951 7.23245z"/><path d="m280.863 353.801c-5.4748 21.6974-7.10245 70.7009-3.10732 94.7599 1.18374 7.23245 2.21952 13.7269 2.21952 14.3173 0 .73801 3.99512 1.18081 8.87805 1.18081h8.87806v-56.8264-56.8264h-7.99025c-7.10245 0-7.99025.4428-8.87806 3.39482z"/><path d="m300.691 407.233v56.8264h8.87806c8.73008 0 8.73008 0 9.46992-4.87083.44391-2.50923 1.47968-8.70847 2.36749-13.4317 2.36748-13.5793 1.77561-59.188-.73984-75.867-3.40325-20.6642-2.66341-19.4833-11.9854-19.4833h-7.99025v56.8264z"/><path d="m256.153 469.521c-.88781.8856-1.33171 4.57563-1.03577 8.11806l.4439 6.34684 43.3545.4428 43.2065.29521 1.62765-3.98523c.88781-2.50922 1.03577-5.75644.29593-8.56086l-1.33171-4.42803h-42.6147c-30.7773 0-42.9106.44279-43.9464 1.77121z"/><path d="m259.26 496.089c-2.36748 8.85606-9.46993 25.0922-15.9805 36.4575-2.66342 4.72324-4.587 9.29887-4.43903 10.0369.59187 1.6236 18.052 9.44647 22.639 10.3321 2.36749.2952 3.40325-1.03321 5.62277-7.67526 3.99513-12.1033 7.99026-31.7342 9.02603-44.7231l1.03577-11.3653h-7.99025-7.99026l-1.92357 6.93726z"/><path d="m279.236 499.779c-1.33171 14.9077-4.73497 33.3578-8.28619 44.8707-1.62765 5.31364-2.81138 10.0369-2.36749 10.3321.59188.738 13.613 2.95202 22.935 3.98522l6.21465.73801v-35.2767-35.2767h-8.73009-8.73009l-1.03577 10.6273z"/><path d="m300.691 524.576v35.4243l6.3626-.88561c11.5415-1.62361 22.1952-3.54242 22.787-4.13282.44389-.29521-.73984-5.46125-2.36749-11.5129-3.99513-14.0221-7.54635-33.0626-7.54635-39.7047 0-2.95202-.4439-7.52766-.88781-10.0369-.8878-4.42803-1.03576-4.57564-9.61789-4.57564h-8.73009v35.4243z"/><path d="m322.294 499.041c1.03577 12.3985 5.62277 35.8671 9.32196 46.3467 3.10732 9.15126 2.95935 9.15126 18.7919 2.50921l10.6537-4.42803-8.58211-16.3837c-4.73497-9.15127-10.0618-21.4022-11.9854-27.3062l-3.40325-10.6273h-7.84229-7.69431l.73983 9.88928z"/></g></svg>