<svg height="389" width="676" xmlns="http://www.w3.org/2000/svg"><rect fill="#04a" height="195.16147" ry=".248342" width="489.39697" x=".0508" y=".048864"/><rect fill="#ffcb05" height="195.16147" ry=".248342" width="489.53955" x=".069065" y="194.84584"/><path d="m174.52283 140.35133c-12.00159-1.20813-27.75361-6.57173-38.62688-13.15256l-2.7054-1.6374 1.50909-.7726c.97104-.49715 1.69267-1.33296 2.02396-2.34421.34464-1.05199.98701-1.77115 1.94288-2.17511 1.50488-.63599 2.03416-1.4881 2.03416-3.27488 0-.59605.26789-1.18705.5953-1.31333.4564-.17603.55418.5018.41908 2.90501-.16157 2.87402-.0684 3.26343 1.12107 4.68421 1.243 1.48478 1.41089 1.54135 4.01327 1.35214 2.15681-.1568 2.98697-.4584 4.03221-1.46492l1.31623-1.26746 3.47898 1.6156c7.5892 3.52432 15.47592 4.70381 29.22175 4.37026 7.21484-.17509 10.02839-.43241 12.94791-1.18419 2.05155-.52829 3.80027-.88999 3.88601-.8038.2508.25206-1.34104 2.62621-3.52077 5.25116-5.18082 6.23897-15.05982 10.0807-23.68885 9.21208z"/><path d="m141.40228 335.6614c-.13602-.35627-.19209-8.08327-.12459-17.17113l.12272-16.52338 2.79908 1.70499c5.07141 3.08911 11.00273 5.84051 14.56454 6.75611 3.16771.8143 5.73532.83225 5.72478.04-.003-.16546-.83915-2.67808-1.85987-5.58358-3.06598-8.72741-4.93396-17.19747-5.82748-26.4236-.2614-2.69911-.45064-3.1725-1.45144-3.63083-1.85928-.85146-4.52235-1.11412-5.90226-.58215-.7056.27203-1.28291.39814-1.28291.28026 0-.11789.8114-1.97956 1.80309-4.13706 2.0311-4.41873 4.64992-7.63272 7.03797-8.63742 1.49974-.63097 1.5477-.71444.69977-1.21777-.54077-.321-2.76765-.51766-5.48536-.48444-5.22521.0638-5.04088.4113-2.35108-4.43095 1.65822-2.98518 4.35401-6.05144 6.89739-7.8453l1.37084-.96684-5.70079-2.54986-5.70078-2.54984 2.69715-1.2602c2.97044-1.38788 8.77343-2.72141 11.89112-2.73259 3.04883-.0109 3.34841-.37428 3.0486-3.69747-.1684-1.8666-.67946-3.58302-1.47113-4.9408-.6672-1.1443-1.05448-2.1786-.86062-2.29843 1.21779-.75277 6.73387-1.34765 10.20988-1.10109l3.96166.281 3.35167-2.82855c1.84343-1.55569 4.51698-3.54004 5.94124-4.40964 2.9914-1.82647 9.59471-4.58184 10.36329-4.32434.28742.0963 1.43364 5.0149 2.54721 10.93023 1.5513 8.24087 2.01758 11.81221 1.99457 15.27694-.042 6.31668 1.50227 12.6358 4.70875 19.26942l1.05022 2.17263-1.71132 3.76285c-.94122 2.06957-1.71131 4.06293-1.71131 4.4297 0 .97027-1.82322 1.29566-3.84635.68643-.96679-.29116-1.91391-.37164-2.10472-.17885-.19076.19278-.31704 2.96962-.28056 6.17075.0363 3.20113-.0242 5.82024-.13524 5.82024-.11079 0-1.02451-.422-2.03035-.93779-2.47219-1.26763-3.45212-1.23641-3.1047.099.37374 1.43643-.52106 15.08055-1.36191 20.76684-.38136 2.57892-1.09142 6.37696-1.57792 8.44009-2.5064 10.62898-8.33295 21.96846-12.22714 23.7961-2.23611 1.04946-34.29693 1.75248-34.67571.76035z"/><path d="m192.4836 93.531637c0-1.84592.17545-1.89159 7.50466-1.95285 10.67148-.0892 11.09372 1.04026.95975 2.56741l-8.46441 1.27552z" fill="#f00"/><path d="m208.05488 106.81898c-2.57171-1.10591-3.5192-1.22595-11.66283-1.47763-8.30442-.25664-8.9951-.34747-10.94502-1.4393-3.15184-1.76483-4.21667-3.67515-4.21667-7.564773 0-3.08713.55778-4.20214 1.15538-2.30966.37635 1.19185 3.79814 4.60681 5.50488 5.49391 2.18951 1.138013 7.11085 2.003213 14.33284 2.519833 3.72044.26614 7.97154.71717 9.44688 1.00229 2.38281.46049 2.68246.64488 2.68246 1.65093 0 1.22846-1.91654 3.46724-2.89453 3.38125-.33239-.0292-1.86391-.59481-3.40339-1.25685z" fill="#f00"/><path d="m112.35213 148.80537c-.005-3.45978-.17172-6.88905-.37155-7.62058-.58322-2.13505.564-1.58988 5.59765 2.66008 2.59925 2.19458 5.66623 4.70761 6.81549 5.58451 1.14927.87691 1.91562 1.76503 1.70302 1.97362-.21262.20858-3.39027 1.12483-7.06148 2.03609l-6.67491 1.65685-.008-6.29057z" fill="#ffcb05"/><path d="m241.00095 336.80821-5.36491-.17493.292-12.52972c.16062-6.89134.31807-14.71337.34988-17.38228l.0579-4.85256 2.72351 2.37147c4.06122 3.53628 7.45828 5.69252 8.96819 5.69252 1.17515 0 1.39875-.23818 1.87049-1.9928 1.76113-6.55007-4.2163-13.91923-16.19262-19.96276l-3.79667-1.91591.23946-2.99888c.22785-2.8526.18549-3.0134-.86841-3.29691-.60936-.16394-2.71604-.30094-4.68155-.30446l-3.57359-.007-.30728-4.10282c-.16902-2.25655-.37564-4.32588-.45919-4.59851-.087-.28394-1.81698-.54497-4.04984-.61107-2.14387-.0635-4.01413-.26244-4.15612-.44212-.14206-.17968-.73719-1.87442-1.32262-3.76607s-1.48029-3.85741-1.98865-4.36837c-1.05862-1.06401-3.63698-6.90037-4.75293-10.75863-1.46667-5.07091-1.79929-9.1849-.99712-12.33214 1.28795-5.05293 6.11221-12.75264 12.17035-19.42423 2.94915-3.24778 3.35054-4.30343 1.63634-4.30343-1.43332 0-10.05103 10.62679-12.93175 15.94667-.69697 1.2871-1.40224 2.3402-1.56729 2.3402s-1.0979-4.4838-2.07296-9.96401c-1.45491-8.17671-2.27047-11.38297-4.54687-17.87467-4.32555-12.33547-6.4607-21.65539-6.4607-28.20083v-2.5177l3.14898.26511c6.64851.55975 25.60787-2.13888 30.12857-4.28845 2.58388-1.2286 7.3091-5.77848 7.3091-7.03787 0-1.18948-1.59319-1.30639-2.33257-.17116-3.1749 4.87467-6.49657 6.49668-16.56121 8.08715-10.46706 1.65404-14.10796 1.84044-24.58502 1.25862-18.54815-1.03-30.63159-3.77145-43.59764-9.89124-9.87592-4.66131-20.35141-11.8094-28.50217-19.44885-3.11865-2.92302-3.84873-3.86643-3.84873-4.97336 0-1.76599 1.48654-3.24163 3.26559-3.24163 1.1885 0 1.39954-.17998 1.39954-1.19354 0-1.60202 2.051-3.64842 3.26762-3.2603.80937.25819.88644.12711.6434-1.09428-.32956-1.65628 1.07014-3.36087 2.75974-3.36087.94128 0 1.05035-.19168.89076-1.56559-.13782-1.18657.11106-1.89606 1.02803-2.9306 1.1617-1.31063 1.23138-1.32862 1.74994-.45157 1.5573 2.63387 7.73035 7.0654 15.01968 10.78237 12.0178 6.12812 26.66243 10.1015 37.24724 10.10592 5.84464.003 8.57243-.59046 13.4352-2.92015 5.05655-2.42254 10.44902-7.59678 12.53299-12.02588.93913-1.99593 2.0066-3.39072 3.43264-4.48513 1.13834-.8736 2.4038-2.10088 2.81214-2.72728.68391-1.04913 1.12234-1.16058 5.56088-1.4135 5.10646-.29099 10.97672-1.42364 12.21873-2.35756.48559-.36516.60543-.78541.34316-1.20321-.3385-.53912-.76718-.52241-2.67378.10426-7.78199 2.55782-29.60481 3.27102-31.24167 1.02104-.70611-.97057-1.27404-5.50553-.90242-7.206.28158-1.28865.326-1.30437 2.71725-.96181 1.33708.19153 4.68356.36365 7.43659.38248 5.6958.0389 8.30123-.69839 9.15975-2.59219.8149-1.79772.63059-5.50789-.41296-8.311223-1.57691-4.23622-1.72064-4.29603-10.41923-4.33616-8.97651-.0414-11.35528-.63638-14.27425-3.57026-2.34498-2.35694-3.85259-6.64097-2.66231-7.56521.39109-.30367 6.41263-5.29969 13.38121-11.10226 6.96858-5.80256 12.81212-10.51369 12.98571-10.46918.17355.0445 10.07356 4.92416 22.00006 10.84366 24.7264 12.27248 22.88129 10.89586 25.58245 19.08722 3.83147 11.619153 5.8579 28.481503 5.83187 48.527953-.0196 14.97293-.58519 19.72983-4.12681 34.69818-2.00853 8.48899-2.61509 11.72931-4.64685 24.82425-1.13675 7.32668-1.39566 12.98739-.76144 16.64791 1.40617 8.11588 4.63746 10.35457 16.95537 11.74685 2.3475.26534 2.77619.47481 3.38222 1.65278 1.06865 2.07699.91451 6.33175-.27251 7.52484-1.09786 1.10342-2.41118 1.0491-12.78725-.52888-3.07441-.46756-5.65991-.77965-5.74557-.69353-.0857.0861 1.0414 1.70757 2.50466 3.60323 1.46322 1.89566 3.58511 5.34567 4.71524 7.6667l2.05479 4.22005-2.23524.11948c-2.72108.14546-6.20057 1.02829-6.20057 1.57324 0 .21924 1.27471 1.81239 2.83272 3.54036 2.4525 2.72007 8.8301 11.78551 8.8301 12.55158 0 .14728-.78724.26855-1.74943.26951-1.84952.002-4.78174 1.4811-4.78174 2.41229 0 .30374 1.18252 2.54412 2.62787 4.97862 3.23651 5.45155 7.55672 14.12018 9.48344 19.02901 3.55187 9.04913 4.88344 17.99283 4.59 30.82849-.20114 8.79609-.54653 9.98646-3.13009 10.78647-1.71553.53123-24.73608.90611-35.03082.57045zm-26.49584-257.590203c3.68027-1.02736 4.90753-5.34056 2.27304-7.98851-1.17487-1.18086-1.717-1.37061-3.91606-1.37061-2.17268 0-2.76786.20236-4.00123 1.36037-1.14949 1.07928-1.44884 1.74437-1.44884 3.21902 0 2.80528 1.82201 4.65956 5.13164 5.22249.12829.0218 1.01093-.17743 1.96145-.44276z"/><path d="m231.99688 70.789487c-11.41791-5.72275-20.77994-10.40498-20.80447-10.40498-.19869 0 1.17906-21.45899 1.3915-21.67249.51154-.51418 7.03376 3.07402 8.65984 4.76419 2.37119 2.4647 2.24168 4.29979-.5071 7.18466-3.24184 3.40237-4.1347 4.7913-4.1347 6.43193 0 1.78854.847 2.65171 3.8874 3.96154 3.67053 1.58128 7.09925 1.21015 9.17202-.99278.93134-.98981.99335-1.39577.71545-4.68391l-.30426-3.60017 1.77853-1.98256c1.97316-2.19948 6.59989-4.64949 8.77628-4.64736 3.65349.004 6.70285 4.4164 7.12215 10.30657.22784 3.20104.21208 3.25589-1.3465 4.68319-3.67257 3.36321-3.67636 3.36888-3.67636 5.47795 0 2.75404 2.25201 5.31677 5.63795 6.4159 3.09877 1.00588 4.27229.98225 5.61822-.11319.99961-.81356 1.11726-1.34999 1.33461-6.08405.21118-4.60102.35925-5.3132 1.30091-6.25841.83432-.83741 1.5861-1.06636 3.49885-1.06551 2.24467.0008 8.96814 1.8203 9.41543 2.54775.19113.31083-15.88303 19.87511-16.47111 20.0474-.16766.0491-9.64674-4.59293-21.06464-10.31567z" fill="#ffcb05"/><path d="m210.20721 79.210157c-2.90357-1.47012-3.94811-3.04393-3.9744-5.9887-.0178-1.99914.44504-2.92163 2.17542-4.33529 4.59974-3.75776 11.37634-1.30792 11.37634 4.11268 0 3.39838-1.08617 5.12163-3.96403 6.28908-2.99017 1.21298-3.06612 1.21193-5.61333-.0777z"/><path d="m210.95504 78.520567c-1.89595-.99378-2.578-2.05765-2.59517-4.04827-.0116-1.35139.2906-1.97498 1.42049-2.93059 3.0035-2.54019 7.42843-.88414 7.42843 2.78011 0 2.29725-.70924 3.46214-2.5884 4.25132-1.9525.81996-2.00209.81925-3.66535-.0525z" fill="#f00"/><path d="m130.59239 123.16911c-2.85635-2.53076-3.34385-3.89903-1.86605-5.23759.44901-.40671 1.3937-.8843 2.09931-1.0613.75923-.19045 1.28291-.64127 1.28291-1.10443 0-1.15359 1.33311-2.8647 2.61289-3.35375.658-.25144 1.11921-.80797 1.11921-1.3505 0-.96092 1.6126-2.38266 2.70252-2.38266.34588 0 3.86514 2.54141 7.82058 5.64758l7.19171 5.6476-1.08901 1.73749c-1.29916 2.07277-2.72572 2.89346-5.04575 2.90281-1.31817.006-1.95165-.29177-2.73483-1.28254-.90862-1.14949-.99304-1.68393-.77773-4.9234.14151-2.12913.0598-3.63392-.19729-3.63392-1.17849 0-2.73856 1.59201-2.73856 2.79462 0 1.36928-1.01069 2.53103-2.63351 3.02709-.66835.2043-1.09852.82986-1.29517 1.88345-.22234 1.19119-.68006 1.76148-1.86886 2.32849-.86593.413-1.64766.74792-1.73717.74428-.0895-.004-1.36986-1.07613-2.8452-2.38332z"/><path d="m127.69871 335.28929-3.27852-.27074 3.41973-2.07702c1.88085-1.14235 3.23868-2.22923 3.01739-2.41529-.22128-.18605-1.91476-.63447-3.76327-.99649l-3.36094-.65821 3.72386-2.55321c2.04813-1.40429 3.73282-2.76424 3.74377-3.02213.0109-.25789-1.65639-1.28133-3.70518-2.2743l-3.72508-1.80538 4.03339-2.09889 4.03338-2.0989-3.75274-2.52078-3.75275-2.52078 3.97555-1.76618c2.18655-.9714 3.97555-1.87984 3.97555-2.01876 0-.1389-1.55751-1.2004-3.46113-2.35886l-3.46113-2.10631 8.23478-.12945c4.52913-.0713 8.29495-.0713 8.36848 0 .0735.0711.21817 7.77829.32143 17.12687l.18773 16.99741-5.74789-.081c-3.16135-.0445-7.22323-.20276-9.02641-.35167z" fill="#f00"/><path d="m223.46618 336.68829-4.54812-.26305 3.43354-2.18283c1.88841-1.20056 3.24871-2.28049 3.02282-2.39986-.22588-.11937-1.66907-.48369-3.20707-.80959-1.53801-.32592-2.98013-.68962-3.2047-.80823-.22453-.11861 1.20544-1.372 3.17769-2.7853 1.97231-1.41331 3.58603-2.72105 3.58603-2.9061 0-.18504-1.60157-1.13422-3.55902-2.10927-1.95747-.97505-3.55903-1.84868-3.55903-1.94141 0-.0927 1.73508-1.05191 3.8558-2.13151 2.12071-1.07962 3.66507-2.11527 3.4319-2.30145-.23316-.18618-1.88623-1.35745-3.67351-2.60283l-3.24959-2.26434 4.00796-1.85979c3.8586-1.79051 3.96679-1.88503 2.90264-2.53665-.60794-.37226-2.18757-1.38645-3.51031-2.25374-2.2644-1.48476-2.33329-1.59096-1.17829-1.81736 2.15697-.42282 15.24902-1.34126 15.52261-1.08896.1449.13365.0986 8.17639-.10267 17.87277l-.36616 17.62979-4.11718-.0886c-2.26446-.0487-6.16386-.20699-8.66529-.35168z" fill="#f00"/><path d="m79.759944 94.241387c.479131-2.33549.81561-13.59794.406249-13.59794-.228557 0-2.813999-.42126-5.745423-.93614s-6.027075-1.05476-6.879225-1.19975c-1.53981-.26196-1.51319-.28957 4.315244-4.47786 3.225536-2.31787 5.864605-4.40709 5.864605-4.64274 0-.23566-1.47375-3.10532-3.275001-6.37704-1.801245-3.2717-3.218279-5.99924-3.148958-6.0612.06931-.0619 3.008383.73167 6.531242 1.7636 3.522867 1.03193 6.671824 1.77339 6.997699 1.64768.325867-.12571 1.722946-3.00514 3.10462-6.39873 1.381681-3.3936 2.585199-6.09674 2.674497-6.00699.08929.0898 1.300357 2.89223 2.691243 6.22773 1.842084 4.41754 2.762804 6.09609 3.390184 6.18068.4737.0639 3.59038-.70475 6.92594-1.70804 3.33558-1.00329 6.12868-1.7649 6.20691-1.69245.0782.0725-1.33881 2.82511-3.14897 6.11703-1.81015 3.29192-3.29119 6.15425-3.29119 6.36075 0 .20649 2.6563 2.28423 5.90289 4.61722 3.24658 2.33298 5.81823 4.24381 5.71478 4.24629-.10346.003-3.2321.52797-6.95254 1.16774s-6.93045 1.16524-7.13334 1.16772c-.35422.004-.0717 9.09985.39826 12.81944l.22688 1.79592-5.16756-4.60928c-2.842165-2.53511-5.376545-4.68299-5.631973-4.77306-.4017-.14167-4.366839 3.18163-9.667388 8.10252-1.548 1.43714-1.549826 1.4375-1.309675.2669z" fill="#fff"/><path d="m306.43732 93.809967c.47913-2.33549.81562-13.59793.40625-13.59793-.22853 0-2.814-.42126-5.74538-.93614-2.93147-.51488-6.0271-1.05477-6.87932-1.19976-1.53978-.26195-1.51316-.28957 4.3153-4.47786 3.22557-2.31786 5.8646-4.40709 5.8646-4.64274s-1.47376-3.10532-3.27503-6.37703c-1.80126-3.27171-3.21827-5.99925-3.14895-6.0612.0692-.0619 3.00845.73166 6.53133 1.76359 3.5228 1.03193 6.67177 1.77339 6.99767 1.64768.32585-.12571 1.72292-3.00513 3.10462-6.39873 1.38163-3.39359 2.58516-6.09674 2.67448-6.00698.0893.0898 1.3003 2.89223 2.6912 6.22772 1.84213 4.41754 2.7628 6.09609 3.39021 6.18068.47373.0639 3.59036-.70475 6.92594-1.70804s6.12867-1.76489 6.20695-1.69244c.0782.0725-1.33888 2.8251-3.14897 6.11702-1.81016 3.29193-3.29123 6.15426-3.29123 6.36075s2.6563 2.28424 5.90287 4.61722c3.24665 2.33298 5.81826 4.24381 5.7148 4.24629-.10347.003-3.23212.52797-6.95257 1.16774-3.72038.63977-6.93043 1.16524-7.13333 1.16772-.35421.004-.0715 9.09986.39826 12.81944l.22687 1.79592-5.16759-4.60928c-2.84207-2.53511-5.37649-4.68299-5.63188-4.77306-.40176-.14166-4.36688 3.18164-9.66744 8.10253-1.54793 1.43713-1.54976 1.4375-1.30966.26689z" fill="#fff"/><path d="m152.90095 111.50096c-.75097-.62535-3.46561-2.78684-6.03253-4.80332-2.56693-2.01648-4.64915-3.711-4.62716-3.76561.022-.0546 10.50396-13.303003 23.29324-29.440893l23.25326-29.34162 2.00646-.42257c3.18029-.66977 9.83773-2.03159 10.48657-2.14509l.59121-.10341-.10637 1.64194c-.24933 3.84868-.96413 11.27804-1.10248 11.4586-.0827.10791-4.95415 6.27218-10.82549 13.69838-18.57267 23.4911-32.85224 41.325833-35.06812 43.798963l-.5032.56162z" fill="#fff"/><path d="m139.7534 113.10579h8.988798v12.510183h-8.988798z"/><rect height="8.950889" ry="2.339344" transform="matrix(.99946623 -.03266897 .03266897 .99946623 0 0)" width="8.495758" x="234.49657" y="78.964668"/><path d="m257.98495 92.888247c-.18214 2.5047-.80279 4.34917-2.31529 6.8807-.69338 1.160513-1.19214 2.199783-1.10836 2.309473.22913.30002 2.17968.69924 5.05906 1.03544 2.55577.29842 10.1175.46472 10.41367.22903.11535-.0918-10.41479-11.027223-11.63866-12.086543-.21831-.18896-.30227.1449-.41042 1.6319z"/><path d="m259.25446 103.12682c-.18214 2.5047-.80279 4.34917-2.31529 6.8807-.69338 1.16052-1.19214 2.19979-1.10836 2.30948.22913.30002 2.17968.69924 5.05906 1.03544 2.55577.29842 10.1175.46472 10.41367.22903.11535-.0918-10.41479-11.02723-11.63866-12.08655-.21831-.18896-.30227.1449-.41042 1.6319z"/><path d="m261.75446 116.62682c-.18214 2.5047-.80279 4.34917-2.31529 6.8807-.69338 1.16052-1.19214 2.19979-1.10836 2.30948.22913.30002 2.17968.69924 5.05906 1.03544 2.55577.29842 10.1175.46472 10.41367.22903.11535-.0918-10.41479-11.02723-11.63866-12.08655-.21831-.18896-.30227.1449-.41042 1.6319z"/><path d="m264.17082 128.6601c-.50849 2.4593-1.36528 4.20664-3.19619 6.51837-.83935 1.05975-1.46987 2.02478-1.40117 2.14449.18787.32744 2.06937.97859 4.87995 1.68886 2.49471.63046 9.96958 1.7853 10.29406 1.59041.12637-.0759-8.88147-12.29582-9.95612-13.50625-.19168-.21591-.31864.10406-.62053 1.56412z"/><path d="m264.25108 140.34156c-.68908 2.41492-1.67282 4.09407-3.66978 6.26396-.91547.99474-1.61568 1.91046-1.55603 2.03493.16313.34044 1.99128 1.12904 4.7416 2.04535 2.44121.81334 9.81013 2.51817 10.14813 2.34783.13165-.0663-7.94721-12.91935-8.92934-14.20599-.17518-.2295-.32546.0802-.73458 1.51392z"/><path d="m145.42842 152.53684c.46906 3.09266 1.55555 5.41963 4.05306 8.68068 1.14493 1.49495 1.98416 2.82128 1.86493 2.94736-.326.34492-3.26658.63625-7.6267.75565-3.87012.106-15.37538-.45993-15.84453-.77937-.18271-.12447 15.02009-12.47349 16.80324-13.649.31811-.20966.47151.20861.75 2.04468z"/><path d="m157.23119 157.41482c1.55122 2.68807 3.5648 4.52207 7.51146 6.84164 1.80925 1.06336 3.21072 2.05214 3.11434 2.1973-.26351.39704-3.56123 1.41752-8.55299 2.64675-4.43075 1.09111-17.89045 3.53466-18.5361 3.36515-.25146-.066 13.25665-15.18903 14.93017-16.71494.29857-.2722.61216.0683 1.53312 1.6641z"/><path d="m169.2135 162.55207c2.58141 2.24322 5.44428 3.69765 10.6797 5.4257 2.40005.79218 4.30783 1.55119 4.23946 1.68666-.18685.37057-3.68927 1.53162-9.08386 3.01136-4.7883 1.31346-19.59092 4.5366-20.38551 4.43877-.30947-.0381 10.8113-14.42884 12.29153-15.90561.2641-.26342.72609.0113 2.25868 1.34312z"/><g fill="#f00"><path d="m141.39798 108.58067c-.39533.94774-.89972 1.48364-1.88162 1.99916-.45012.23633-.79967.48865-.77676.56071.0626.19711.86743 1.00737 2.0873 2.10157 1.08278.97122 4.37664 3.5563 4.53616 3.56003.0621.002-3.17654-7.90777-3.57961-8.7418-.0719-.14877-.15076-.0425-.38547.52033z"/><path d="m153.13741 119.34947c-1.06184.38035-1.69153.94406-2.34906 2.10289-.30143.53123-.60959.93575-.68481.89892-.20573-.10072-.99441-1.19409-2.04561-2.83581-.93306-1.45721-3.37357-5.84707-3.36095-6.04552.005-.0773 8.1848 4.86414 9.04097 5.46162.15272.10656.0299.19209-.60054.4179z"/><path d="m138.3435 111.58961c-.47315 1.04552-1.16255 1.66206-2.57178 2.30001-.64603.29246-1.13894.59286-1.09535.66758.11916.20436 1.43116.99499 3.40278 2.05069 1.75004.93704 7.0267 3.39394 7.26678 3.3835.0935-.004-5.77807-8.13874-6.48969-8.99099-.12695-.15202-.23185-.0316-.51274.58921z"/><path d="m134.62927 114.98773c-.43739.9354-1.0747 1.487-2.37744 2.05776-.5972.26166-1.05287.53042-1.01257.59727.11016.18284 1.32301.8902 3.14564 1.8347 1.61779.83836 6.4957 3.03649 6.71764 3.02715.0865-.003-5.34143-7.28154-5.99927-8.04404-.11736-.136-.21433-.0282-.474.52716z"/><path d="m131.00234 118.0913c-.37889.91846-.93094 1.46007-2.05942 2.02049-.51732.25693-.91203.52082-.87713.58646.0954.17952 1.14604.87407 2.72486 1.80147 1.40139.82317 5.6268 2.98149 5.81905 2.97232.0749-.003-4.62692-7.14967-5.19677-7.89835-.10166-.13354-.18566-.0277-.41059.51761z"/></g><path d="m73.425648 548.51178a2.417006 2.9826884 0 0 1 -2.586563 5.03344l1.208271-2.58324z" transform="matrix(.90038887 -.43508606 .43508606 .90038887 -151.69685 -342.99272)"/><path d="m158.16254 122.94948c-.51317-.28882-2.22487-1.65392-3.8038-3.03355-1.57892-1.37964-3.19444-2.50844-3.59003-2.50844-.88372 0-12.47936-8.92042-16.63159-12.79452-4.5858-4.27863-5.01104-5.387743-2.99086-7.800843 1.4533-1.73595 2.96109-1.85673 5.01816-.40196 6.59605 4.664793 25.32773 19.589623 26.02152 20.733133 2.34879 3.87135-.40368 7.84342-4.0234 5.80618z" fill="#ffcb05"/><path d="m574.50512.10100805 90.63137.0341-87.46502 56.59825895c-48.10574 31.12903-87.67302 56.482623-87.92725 56.341333-.25424-.14132-1.49627-22.453653-2.76008-49.583033-1.26382-27.12936-2.48068-52.49829-2.70412-56.37543l-.40627-7.04930895 90.63137.0341z" fill="#04a"/><path d="m573.35752 389.94428 90.63137.004-87.44135-56.63482c-48.09272-31.14914-87.6494-56.51928-87.90368-56.3781-.2543.14121-1.50567 22.45304-2.78082 49.58188-1.27517 27.12883-2.50262 52.49725-2.72769 56.37429l-.40921 7.04915 90.63138.004z" fill="#ffcb05"/><path d="m572.22571 195.02712 90.63136.0461-87.41494-56.67558c-48.0782-31.17155-87.62305-56.560133-87.87739-56.419063-.25437.14109-1.51614 22.452323-2.80393 49.580573-1.28781 27.12823-2.52709 52.49608-2.75397 56.37301l-.4125 7.04896z" fill="#04a"/><path d="m571.93039 195.03251 90.63135-.0755-87.39653 56.70395c-48.06807 31.18716-87.60467 56.58859-87.85907 56.44761-.25441-.14101-1.52342-22.45184-2.82003-49.57967-1.29661-27.12781-2.54414-52.49525-2.77227-56.37211l-.41479-7.04882 90.63134-.0755z" fill="#ffcb05"/></svg>