<svg height="600" width="600" xmlns="http://www.w3.org/2000/svg"><path d="m0 0h600v600h-600z"/><g stroke-linecap="round" stroke-linejoin="round"><path d="m313.56 113.76c15.3697.0391 30.2404 4.99175 44.375 17.7188 9.90804 8.92134 19.2729 31.1121 8.6875 60.9688 0 0 5.04036 4.90904 7.96875 7.78125l-34.875 33.9375-19.25-19.25c0-.00001 14.4232-38.0434-9.5-48.7188-27.7921-12.4018-87.9226 31.0741-141.129 32.8438l4.68122-33.75c46.1334-10.9449 94.4924-51.6446 139.042-51.5312zm-179.656 13.75c1.67583.001 3.29441.36448 4.8125 1.125 21.0817 10.5613 3.30426 30.9498 6.94822 36.3393l-4.41984 30.6973s-.071-.10962-.40338-.22411c-53.7443-18.5156-26.7123-67.9536-6.9375-67.9375zm264.031 95.6562c3.80504 3.73203 9.40625 9.21875 9.40625 9.21875 33.5414-11.1684 53.2158 1.00469 63.0312 16.8125 35.162 56.6284-40.3835 134.013-51.125 180l-32 2.6875c1.71132-53.2691 52.1468-113.672 37.9062-146.656-8.17823-18.9424-40.3438-5.96875-40.3438-5.96875l-22.1875-22.1875 35.3125-33.9062zm43.125 227.375c3.24092-.13734 7.07097 1.36432 11.8438 5.90625 21.2432 20.2157-34.4657 64.668-60.4688 6.40625-.25596-.5735-.67456-1.3652-.67456-1.3652l30.4246-2.4473c.13288.18764.26742.37704.40625.5625 5.83492 2.26264 10.1864-8.71153 18.4688-9.0625z" fill="#ffe700" stroke="#ffe700"/><path d="m153.984 451.474 257.577-246.37-17.375-18.375-256.202 248.745z" fill="#ffe700" stroke="#ffe700"/><g stroke="#fff"><path d="m415.685 203.979-20-21.25 22.75-22.75-30.25-15.5 102.5-36.25-37.25 103.5-13.25-32.25z" fill="#fff"/><path d="m241.185 331.979-50.75-.5-50.75 70.5 28.75 1z" fill="#fff"/><path d="m260.419 353.474-1.25458 50.737-72.2122 48.2827-.006-28.7674 73.4724-70.2523z" fill="#fff"/><path d="m148.161 201.22 5.90684-40.5765" fill="none" stroke-width="12"/><path d="m384.257 454.182 41.3933-3.77412" fill="none" stroke-width="12"/></g><path d="m148.634 384.479h17.1026m-5.31695-17.5h21.5311m-6.81681-17.5h17.1026" fill="none" stroke="#000" stroke-width="5"/><path d="m204.935 445.53v-17.1026m17.5 5.31695v-21.5311m17.5 6.81681v-17.1026" fill="none" stroke="#000" stroke-width="5"/><path d="m423.935 436.854-274.3 24.6124-22.0282-22.4121 39.8273-277.612" fill="none" stroke="#fff" stroke-width="12"/></g></svg>