<svg height="600" width="600" xmlns="http://www.w3.org/2000/svg" xmlns:xlink="http://www.w3.org/1999/xlink"><path d="m0 0h600v600h-600z" fill="#0046b8"/><g id="a" fill="#f5f5f5" fill-rule="evenodd"><path d="m177.412 131.559c-8.56569 5.59615-29.8352 7.54355-34.2737-2.11693-3.09033-6.72725 11.8095-24.6602 33.9551-23.3008 4.66367-6.00128 12.0657-7.0204 13.5976-2.8871.91855 2.47882-.48817 8.53547-2.73428 12.301 2.84018 14.7203 13.0535 25.0206 29.2139 34.0865 22.9086 12.8517 78.3015-11.3215 134.495-15.481 23.7254-1.75625 36.8577 11.4078 67.9946 10.264 11.5674-.42479 24.5133-2.09215 37.6057-7.53116-1.41401 19.3628-21.1291 27.6123-38.0234 28.2419-23.9848.8938-36.2131-13.1795-53.0656-10.3554 32.2164 11.5318 24.4737 21.469 33.844 26.9886 6.7422 3.97154 16.5956-.48186 18.8009 3.22543.73348 1.23309-1.6207 12.8713 10.2399 18.4245 1.5136.70848 11.6631-2.32775 11.8095.34756.19624 3.57906 2.59535 11.9005-11.2546 10.3213-13.5342-1.54325-16.8562-12.4893-22.7814-14.2739-7.09776-2.13757-18.9056.43013-37.8209-6.58831-22.9589-8.5192-18.6178-25.7364-26.6545-28.4037 1.11407 4.6023 4.73532 8.26321 5.84988 13.8072-13.6498 3.45178-27.2991 7.84496-40.9484 10.3554.65285-2.15749 1.70862-7.44033 1.5408-7.72741-.79056-1.35162-54.6504 18.7497-104.747 13.3758 2.92494-4.07938 7.93907-8.15877 8.77481-12.2381-4.50969.68078-4.33628 8.70983-11.6867 11.2137-9.45049 3.21934-25.9931 2.23787-31.0134 7.04128-6.02644 5.76618 2.94777 15.1816-2.24076 18.7337-5.03236 3.44474-9.10006 2.13928-10.567 1.09854-2.76464-1.961-9.23578-21.3119 18.3198-36.832.36359-2.73287-5.7005-8.18986-7.27336-11.3684-2.57422-5.20172-8.90522-31.7245-4.51333-34.5946 4.1857-2.73505 10.329-.69026 13.5575-6.12757zm-12.4378-18.2001c2.19171 0 3.65575 1.33486 3.65575 2.9811 0 1.64622-1.46405 2.98109-3.65575 2.98109s-3.65574-1.33486-3.65574-2.98109 1.46405-2.9811 3.65574-2.9811z"/><path d="m168.96 175.49c3.27273 2.62041 4.34065 5.24058 5.09381 7.86027-17.5107 9.04236-22.4122 21.2756-20.9754 34.8164-2.94194-1.37274-5.86954-4.57995-7.45648-6.47173-2.63397-3.14018-2.16742-13.0948 4.43245-20.4003 5.13267-5.68189 14.0005-11.7204 18.9056-15.8046z"/><path d="m430.942 216.284c-13.4358-2.9908-21.0796-12.7915-25.7993-14.7063-5.9118-2.39842-45.6623-2.03313-54.8437-21.0668-4.17816-.41799-7.79894.41872-10.864 2.51039 26.944 32.4879 50.367 20.8511 57.8515 23.7214 5.20844 1.99743 11.623 13.6983 21.5923 14.8449 3.69703.42504 6.15977-2.15019 12.0633-5.30373z"/><path d="m419.661 144.425c11.5674-.4248 24.5133-2.09216 37.6057-7.53117-1.41402 19.3628-21.1291 27.6123-38.0234 28.2419l.41775-20.7107z" fill="#2b2a29"/></g><use xlink:href="#a" y="141.89"/><use xlink:href="#a" y="277.61"/></svg>