<svg height="520" width="780" xmlns="http://www.w3.org/2000/svg" xmlns:xlink="http://www.w3.org/1999/xlink"><g fill-rule="evenodd"><path d="m0 0h780v520h-780z" fill="#f00000"/><path d="m65.682 238.06 22.821-2.05-13.191 18.73 13.191 18.74-22.821-2.06-9.63 20.8-9.63-20.8-22.821 2.06 13.191-18.74-13.191-18.73 22.821 2.05 9.63-20.79z" fill="#fff" transform="translate(87.781769 161.842013)"/><path d="m250.37 217.27 9.63 20.79 22.82-2.05-13.19 18.73 13.19 18.74-22.82-2.06-9.63 20.8-9.63-20.8-22.82 2.06 13.19-18.74-13.19-18.73 22.82 2.05z" fill="#fff" transform="translate(-106.536231 5.254995)"/><path d="m412.26 273.48 13.19-18.74-13.19-18.73 22.82 2.05 9.63-20.79 9.63 20.79 22.82-2.05-13.19 18.73 13.19 18.74-22.82-2.06-9.63 20.8-9.63-20.8z" fill="#fff" transform="translate(-300.876231 -151.332023)"/><g transform="translate(-95.830221 -115.292229)"><path d="m381.22926 223.5972c6.9721-.99553 13.945-1.194 20.919-.59754l-1.7929-18.529c-2.1918-4.7818-5.1803-4.7818-8.9654 0l-10.161 19.126z" fill="#ffd90f"/><path d="m374.91985 299.25364.93445-2.698c-12.301-13.315-35.836-.99553-40.242-1.885-11.003-2.2221-8.50463-12.11505-8.50463-12.11505-2.24987-.13235-10.9094 6.72897-8.00466 16.7091s14.39989 14.68078 24.06992 4.94507 31.74692-4.95612 31.74692-4.95612zm-26.55975 8.01826c-1.9922 9.7622 2.7893 13.946 14.345 12.552l20.322 6.5747 1.1954-10.161 15.54 8.3679v-10.759l13.747 6.5747-3.5861-17.931 8.9654 1.7932-7.1725-16.138 5.3793-2.3907c-7.969-8.3679-14.245-11.954-13.747-25.701l2.6895-2.391c-3.4869 12.95 13.647 23.211 19.126 35.264l-8.6664-2.092 5.9768 17.931-8.0688-2.3907 2.092 18.23-13.149-5.9771-.59783 13.149c-3.9844-4.5828-9.1641-7.7709-15.54-10.759l-2.3907 10.161c-2.6898-.69761-5.6784-3.1881-8.0691-2.6898-2.3406 10.858-4.5315 20.919-9.2642 30.184-1.8057 3.3985-4.59454 7.42187-6.4312 9.5491 2.53376 5.45255 6.0806 5.7869 8.2242 8.9796-1.3986 3.9875-7.782 10.17-7.782 10.17l8.3798 11.049-5.1134 9.4691 11.09 9.9561-4.7815 8.3679 11.356 5.6781c3.229-.15959 4.4969-.58479 4.1839-3.5861-2.6144-15.167-.97087-27.968 3.5861-39.149l1.1956 1.1954c-9.2645 27.594 6.5747 68.934 2.3907 135.68-14.817-6.376-28.216-5.1809-40.644 1.1954 1.9925 2.9886 8.1686 4.1839 12.253 6.2759-4.3826.99581-8.6661 3.2865-12.253 7.4713l9.2642 4.7815c-4.3829 2.3905-8.2681 4.9799-11.057 8.9654l10.161 2.9886c-3.7851 2.1909-6.7737 5.578-8.9654 10.161 16.736-4.4827 41.839 0 64.551-1.7929 4.682-.59783 21.318-6.2759 18.529-34.069l.59783-37.057 7.77.59754c-2.6898-6.4752-2.3907-13.548-3.5864-20.322l6.5747-.59783-1.7929-21.517 5.3793.59783c-3.2553-13.528 9.6951-38.684 9.8422-46.602.10658-5.7266-3.2162-8.8756-6.2561-16.157l1.1954-1.1954c2.2473 5.9737 6.0035 8.9274 8.4611 15.877 2.1895 6.1906-5.946 19.064-6.0704 24.169 34.965-3.7857 54.391-24.008 73.517-32.873v13.448c15.241-11.556 44.528-13.548 46.62-21.218-6.6747-1.2954-14.445-1.495-22.712-1.1954 8.168-2.2915 15.142-2.7896 22.712-4.1839-1.9922-15.54-5.5786-26.299-10.758-32.276 20.743 14.187 7.6499 45.131 22.207 82.639 18.078 46.58 48.915 35.03 52.804 94.579-9.4638-.59783-28.49-11.057-39.747-.29906l10.161 4.1839c-3.1878 2.9886-7.5711 5.3793-9.5632 8.9654 3.7854.9961 8.7662.49805 11.356 2.9886-3.985 3.1876-8.2684 5.4788-11.954 9.5632 4.7812 0 9.1638 1.1954 13.149 3.5861-4.7818 3.1876-8.3679 6.774-10.759 10.759 12.95 1.6934 35.463.39827 53.195.59783 9.3637-.49805 19.424-7.3721 20.322-26.896l2.391-54.391c3.8849-7.77-17.632-10.759-25.103-48.414l6.5747-.59783c-3.7857-6.7742-3.985-14.743-5.9771-22.115l5.6781-.29877-5.6781-22.414 5.9771-1.1954c-5.5587-24.635-15.747-39.347-26.896-52 6.0764-7.272 13.348-3.4866 28.092-13.747l-4.7818-2.3907c8.1689-6.376 13.548-13.15 16.138-20.322h-4.7815c3.8846-11.904 3.8846-23.161-1.7932-33.471l-4.1839 7.7703c-2.5906-5.3799-6.376-8.7673-11.356-10.161.49776 4.3829.69704 9.3637-1.1954 14.943-2.9886-4.3829-5.9771-6.7742-8.9657-7.1725 4.9501 46.476-36.308 43.713-55.589 38.664-20.666-5.4125-49.316 1.5809-88.457 3.7732l1.4941-3.5861c-18.181 5.3785-31.928 2.5894-42.138-4.7815l4.1839-3.5864c-2.5897-6.1764-5.5789-11.955-8.9654-17.333l5.9768-.59754c-2.6895-6.3757-5.9768-12.751-8.9654-19.126l3.5861-.59754c-3.8347-11.656-11.505-22.215-20.919-32.276-3.1878 4.4827-2.4905 8.3679-5.9768 12.552l-2.3907-1.1954c7.5047-8.0444 1.3416-26.259 2.9883-43.034-2.9883-1.3944-7.1722-4.881-8.9654-4.1839-7.2612 9.2633-13.664 18.527-18.533 27.79l-2.2785.98958.49011-4.2735.00055-.005c-42.138.69704-53.195 25.004-63.954 31.379-1.3944 5.6781-1.2949 9.862 1.4941 11.954l5.6784-8.0691.59754 2.9886-5.3793 8.3679c1.57701 7.65768 5.7008 14.27687 11.71361 18.24292l2.03359-6.88662c7.1019-10.445 19.459-7.1422 24.477 3.5643 6.8244 14.562-2.8862 27.259-23.10457 13.83441z" fill="#ffd90f"/><path d="m364.79926 238.8372c.48898 5.5811 1.4777 10.96 8.3679 14.943l1.1954 4.4827c.99581-8.1686 5.5783-9.165 8.3679-13.747h-15.241l-.29906-5.0802-2.3907-.59783z" fill="#f00000"/><path d="m411.41926 235.8472c-7.2717-5.2798-.49805-2.7893 5.0805-19.425-3.2873 5.2795-16.736 18.628-6.2759 21.218l1.1954-1.7932z" fill="#f00000"/><path d="m360.09926 372.6272 5.48818 5.00854s-5.63403 6.29791-7.11283 9.68191c2.5994 5.8768 8.32576 10.80645 8.32576 10.80645s-4.31381 6.1154-7.10281 9.7665c4.3894 3.3182 12.54928 10.22047 12.54928 10.22047l-3.36908 6.53403c-12.412-.30558-24.039-4.5332-36.058-6.7992 5.5315 12.222 2.6311 28.955 8.1624 48.825-6.2722 1.207-8.0348-4.841-12.346-5.7903.009 3.589.99921 7.3743 1.7932 11.356-8.6998-1.8215-9.1647-7.5645-13.747-10.759-.19899 4.3829.77839 8.57-.59754 13.149-10.642-9.0989-6.774-9.9618-10.161-14.943-.59754 5.18-.41102 11.537-1.7929 15.54-15.75-15.733-8.7537-33.035-11.954-46.023 1.9287-10.448-12.81-35.799 31.08-47.816l36.842-8.7599z" fill="#ffd90f"/><path d="m577.51926 398.8572c-.94819 19.2 3.6269 38.187 16.275 56.864-8.0393 37.322 8.6278 36.014.58819 51.374l-11.765 41.962c-3.5779 14.902-19.428 17.386-22.158 18.432-7.4693-.32457-16.682 1.4236-24.443.47112-11.732-1.4394-22.687.33307-25.559-.47112 1.7651-3.9217 5.36-6.6668 10.784-9.4119-3.9869-3.0722-8.17-1.046-10.784-3.9217 1.1764-3.2032 3.6601-6.0795 9.0198-8.2355-3.3335-4.4447-7.6473-2.0262-9.4122-5.0984 1.8955-3.7908 6.1441-4.0524 8.0396-6.6668-1.3073-2.5492-6.9284-2.353-8.6278-4.7061 15.622-10.196 27.909-2.1569 39.217-3.5294 7.0591-.58819 4.314-11.765 6.4709-17.648-.45751-20.001-13.857-28.236-15.491-49.413-2.0914-.45751-4.1831 1.0457-6.2745 1.5687-2.0917-10.392 2.4837-16.863 3.7256-25.295l-7.0591.78435c.32684-5.2943 6.7323-26.079 14.51-27.648 10.474-4.6573 21.423-7.8931 32.942-9.4122z" fill="#ffd90f"/><path d="m418.29913 200.90445c5.95188-7.2413 12.49909-12.99474 18.74818-19.64117 4.3648-.29767 8.72915 1.48817 13.09442 2.38089 1.78565 3.27356.59528 6.24909-.59515 9.52292-6.0511 8.53163-11.805 2.77736-22.31967 12.79675l-8.9276-5.05935z"/><path d="m392.42817 203.38497c5.56556-6.77137 11.68786-12.15136 17.53134-18.36645 4.08152-.27837 8.16277 1.39157 12.24415 2.22645 1.66971 3.06106.55669 5.84348-.55642 8.90463-5.65835 7.97765-11.0388 2.59711-20.87133 11.96624l-8.34834-4.73091z"/></g></g><g transform="translate(-105.995491 -92.362187)"><g id="a" transform="matrix(1.0313972 0 0 1.0313972 233.49193 -298.68054)"><path d="m486.56926 465.5572c-12.471-5.982-13.486-13.364-13.894-18.318 8.5575-.17291 17.295 4.9326 17.295 15.187 0 10.255 10.771 12.819 10.485 0 .71405-11.818 5.5539-12.515 11.626-15.019-1.3059 6.6592 1.6279 13.278-9.0748 17.867-3.6833 2.2799-3.6833 12.248 2.2683 8.2619 5.9516-3.9889 14.471.20069 19.03 10.14-7.3953.9737-15.346 2.6779-20.73-6.7224-6.8017-6.5526-10.485-1.4253-5.6693 4.5567 4.1176 5.2844.55502 19.219-4.4994 24.871-4.3543-5.4184-4.2571-15.279-.0374-24.016 4.8192-10.538 0-11.109-7.0844-3.7018-7.6521 7.4041-17.645 6.7266-22.616 5.1321 2.2014-5.1846 10.713-10.83 20.633-9.121 9.921 1.709 2.2686-9.1165 2.2686-9.1165z" fill="#fff" fill-rule="evenodd" stroke="#f00000" stroke-width=".687089"/><path d="m495.17926 483.5872c-2.4007 19.962-13.894 20.524-20.006 14.71-5.3742-5.112-8.0263-18.512 8.4722-20.012-15.66 2.0914-22.159-4.4711-19.513-14.218 2.3465-8.6457 12.676-12.102 22.304-.10148-8.7052-14.825-1.1429-20.742 8.2375-20.548 9.7982.20239 12.221 9.0122 6.444 20.248 12.001-11.518 17.949-5.9491 20.425.85663 3.3775 9.2846-4.2086 15.85-17.474 13.078 16.349 5.286 12.777 18.257 7.1382 22.076-5.6381 3.8191-19.623 2.9727-16.028-16.09z" fill="#fff" fill-rule="evenodd" stroke="#f00000" stroke-width=".687089"/><ellipse cx="493.44926" cy="472.877187" fill="#fff" fill-rule="evenodd" rx="10.345" ry="10.397" stroke="#f00000" stroke-width=".687087"/><path d="m487.61926 452.5172c1.7924-3.384 4.7645.0955 7.1722 0 2.16-.0859 5.3385-2.3499 7.1725 0" fill="none" stroke="#f00000" stroke-width=".494704"/><path d="m470.38926 472.5672c-2.6082-2.8038 1.6543-4.4691 2.3545-6.7748.62816-2.0684-.46715-5.8141 2.3547-6.7748" fill="none" stroke="#f00000" stroke-width=".494704"/><path d="m488.48926 494.2672c-3.3418 1.8697-3.9501-2.666-6.0245-3.8922-1.8607-1.1001-5.7592-.92324-6.0245-3.8922" fill="none" stroke="#f00000" stroke-width=".494704"/><path d="m516.43926 472.5672c2.6082-2.8038-1.6543-4.4691-2.3545-6.7748-.62816-2.0684.46715-5.8141-2.3547-6.7748" fill="none" stroke="#f00000" stroke-width=".494704"/><path d="m498.33926 494.2672c3.3418 1.8697 3.9501-2.666 6.0245-3.8922 1.8607-1.1001 5.7592-.92324 6.0245-3.8922" fill="none" stroke="#f00000" stroke-width=".494704"/></g><use id="b" height="1052.3622" transform="translate(0 107.49)" width="744.09448" xlink:href="#a"/><use id="c" height="1052.3622" transform="translate(0 107.49002)" width="744.09448" xlink:href="#b"/><use height="1052.3622" transform="translate(0 107.49004)" width="744.09448" xlink:href="#c"/></g></svg>