<?xml version="1.0" encoding="UTF-8" standalone="no"?>
<!-- Created with Inkscape (http://www.inkscape.org/) -->

<svg
   xmlns:dc="http://purl.org/dc/elements/1.1/"
   xmlns:cc="http://creativecommons.org/ns#"
   xmlns:rdf="http://www.w3.org/1999/02/22-rdf-syntax-ns#"
   xmlns:svg="http://www.w3.org/2000/svg"
   xmlns="http://www.w3.org/2000/svg"
   xmlns:sodipodi="http://sodipodi.sourceforge.net/DTD/sodipodi-0.dtd"
   xmlns:inkscape="http://www.inkscape.org/namespaces/inkscape"
   width="750"
   height="500"
   id="svg2"
   version="1.1"
   inkscape:version="0.47 r22583"
   sodipodi:docname="Bandera de Manabí.svg">
  <defs
     id="defs4" />
  <sodipodi:namedview
     id="base"
     pagecolor="#ffffff"
     bordercolor="#666666"
     borderopacity="1.0"
     inkscape:pageopacity="0.0"
     inkscape:pageshadow="2"
     inkscape:zoom="0.7"
     inkscape:cx="408.46506"
     inkscape:cy="328.547"
     inkscape:document-units="px"
     inkscape:current-layer="layer1"
     showgrid="false"
     inkscape:window-width="1366"
     inkscape:window-height="706"
     inkscape:window-x="-8"
     inkscape:window-y="-8"
     inkscape:window-maximized="1" />
  <metadata
     id="metadata7">
    <rdf:RDF>
      <cc:Work
         rdf:about="">
        <dc:format>image/svg+xml</dc:format>
        <dc:type
           rdf:resource="http://purl.org/dc/dcmitype/StillImage" />
        <dc:title></dc:title>
      </cc:Work>
    </rdf:RDF>
  </metadata>
  <g
     inkscape:label="Capa 1"
     inkscape:groupmode="layer"
     id="layer1"
     transform="translate(422.85715,-246.64787)">
    <rect
       style="color:#000000;fill:#078930;fill-opacity:1;fill-rule:nonzero;stroke:none;stroke-width:1;marker:none;visibility:visible;display:inline;overflow:visible;enable-background:accumulate"
       id="rect2816"
       width="750"
       height="500"
       x="-422.85715"
       y="246.64787" />
    <g
       id="g3202">
      <rect
         style="color:#000000;fill:#ffffff;fill-opacity:1;fill-rule:nonzero;stroke:none;stroke-width:1;marker:none;visibility:visible;display:inline;overflow:visible;enable-background:accumulate"
         id="rect2818"
         width="750"
         height="100"
         x="-422.85715"
         y="546.64789" />
      <rect
         y="346.64786"
         x="-422.85715"
         height="100"
         width="750"
         id="rect2820"
         style="color:#000000;fill:#ffffff;fill-opacity:1;fill-rule:nonzero;stroke:none;stroke-width:1;marker:none;visibility:visible;display:inline;overflow:visible;enable-background:accumulate" />
    </g>
    <path
       style="fill:#da121a;stroke:none;stroke-width:1px;stroke-linecap:butt;stroke-linejoin:miter;stroke-opacity:1"
       d="M 0,0 0,500 250,250 0,0 z"
       id="path2822"
       transform="translate(-422.85715,246.64787)"
       sodipodi:nodetypes="cccc" />
    <g
       id="g3178"
       style="stroke:#da121a;stroke-width:0.94612983;stroke-miterlimit:4;stroke-dasharray:none"
       transform="matrix(1.0569374,0,0,1.0569374,-3.5831931,-31.335632)">
      <path
         transform="matrix(0.80163066,0,0,0.80163066,-487.89961,371.58954)"
         d="m 391.37151,298.57144 12.44489,-3.97368 -0.0665,-13.06373 7.62488,10.60786 12.4038,-4.10015 -7.73246,10.5297 7.73246,10.5297 -12.4038,-4.10015 -7.62487,10.60786 0.0665,-13.06373 -12.44489,-3.97368 z"
         inkscape:randomized="0"
         inkscape:rounded="0"
         inkscape:flatsided="false"
         sodipodi:arg2="-2.5132741"
         sodipodi:arg1="-3.1415927"
         sodipodi:r2="6.7604294"
         sodipodi:r1="17.914194"
         sodipodi:cy="298.57144"
         sodipodi:cx="409.28571"
         sodipodi:sides="5"
         id="path2828"
         style="color:#000000;fill:#da121a;fill-opacity:1;fill-rule:nonzero;stroke:#da121a;stroke-width:1.18025654;marker:none;visibility:visible;display:inline;overflow:visible;enable-background:accumulate;stroke-miterlimit:4;stroke-dasharray:none"
         sodipodi:type="star" />
      <path
         sodipodi:type="star"
         style="color:#000000;fill:#da121a;fill-opacity:1;fill-rule:nonzero;stroke:#da121a;stroke-width:1.18025654;marker:none;visibility:visible;display:inline;overflow:visible;enable-background:accumulate;stroke-miterlimit:4;stroke-dasharray:none"
         id="path2892"
         sodipodi:sides="5"
         sodipodi:cx="409.28571"
         sodipodi:cy="298.57144"
         sodipodi:r1="17.914194"
         sodipodi:r2="6.7604294"
         sodipodi:arg1="-3.1415927"
         sodipodi:arg2="-2.5132741"
         inkscape:flatsided="false"
         inkscape:rounded="0"
         inkscape:randomized="0"
         d="m 391.37151,298.57144 12.44489,-3.97368 -0.0665,-13.06373 7.62488,10.60786 12.4038,-4.10015 -7.73246,10.5297 7.73246,10.5297 -12.4038,-4.10015 -7.62487,10.60786 0.0665,-13.06373 -12.44489,-3.97368 z"
         transform="matrix(-0.80163066,0,0,0.80163066,613.764,371.58954)" />
      <path
         sodipodi:type="star"
         style="color:#000000;fill:#da121a;fill-opacity:1;fill-rule:nonzero;stroke:#da121a;stroke-width:1.18025653;marker:none;visibility:visible;display:inline;overflow:visible;enable-background:accumulate;stroke-miterlimit:4;stroke-dasharray:none"
         id="path2900"
         sodipodi:sides="5"
         sodipodi:cx="409.28571"
         sodipodi:cy="298.57144"
         sodipodi:r1="17.914194"
         sodipodi:r2="6.7604294"
         sodipodi:arg1="-3.1415927"
         sodipodi:arg2="-2.5132741"
         inkscape:flatsided="false"
         inkscape:rounded="0"
         inkscape:randomized="0"
         d="m 391.37151,298.57144 12.44489,-3.97368 -0.0665,-13.06373 7.62488,10.60786 12.4038,-4.10015 -7.73246,10.5297 7.73246,10.5297 -12.4038,-4.10015 -7.62487,10.60786 0.0665,-13.06373 -12.44489,-3.97368 z"
         transform="matrix(0.76596487,0.23645199,-0.23645199,0.76596487,-392.79444,219.76291)" />
      <path
         transform="matrix(0.79220676,0.12255681,-0.12255681,0.79220676,-444.83212,290.18967)"
         d="m 391.37151,298.57144 12.44489,-3.97368 -0.0665,-13.06373 7.62488,10.60786 12.4038,-4.10015 -7.73246,10.5297 7.73246,10.5297 -12.4038,-4.10015 -7.62487,10.60786 0.0665,-13.06373 -12.44489,-3.97368 z"
         inkscape:randomized="0"
         inkscape:rounded="0"
         inkscape:flatsided="false"
         sodipodi:arg2="-2.5132741"
         sodipodi:arg1="-3.1415927"
         sodipodi:r2="6.7604294"
         sodipodi:r1="17.914194"
         sodipodi:cy="298.57144"
         sodipodi:cx="409.28571"
         sodipodi:sides="5"
         id="path2906"
         style="color:#000000;fill:#da121a;fill-opacity:1;fill-rule:nonzero;stroke:#da121a;stroke-width:1.18025653;marker:none;visibility:visible;display:inline;overflow:visible;enable-background:accumulate;stroke-miterlimit:4;stroke-dasharray:none"
         sodipodi:type="star" />
      <path
         transform="matrix(0.66311724,0.45043007,-0.45043007,0.66311724,-258.23608,103.43756)"
         d="m 391.37151,298.57144 12.44489,-3.97368 -0.0665,-13.06373 7.62488,10.60786 12.4038,-4.10015 -7.73246,10.5297 7.73246,10.5297 -12.4038,-4.10015 -7.62487,10.60786 0.0665,-13.06373 -12.44489,-3.97368 z"
         inkscape:randomized="0"
         inkscape:rounded="0"
         inkscape:flatsided="false"
         sodipodi:arg2="-2.5132741"
         sodipodi:arg1="-3.1415927"
         sodipodi:r2="6.7604294"
         sodipodi:r1="17.914194"
         sodipodi:cy="298.57144"
         sodipodi:cx="409.28571"
         sodipodi:sides="5"
         id="path2912"
         style="color:#000000;fill:#da121a;fill-opacity:1;fill-rule:nonzero;stroke:#da121a;stroke-width:1.18025653;marker:none;visibility:visible;display:inline;overflow:visible;enable-background:accumulate;stroke-miterlimit:4;stroke-dasharray:none"
         sodipodi:type="star" />
      <path
         sodipodi:type="star"
         style="color:#000000;fill:#da121a;fill-opacity:1;fill-rule:nonzero;stroke:#da121a;stroke-width:1.18025654;marker:none;visibility:visible;display:inline;overflow:visible;enable-background:accumulate;stroke-miterlimit:4;stroke-dasharray:none"
         id="path2918"
         sodipodi:sides="5"
         sodipodi:cx="409.28571"
         sodipodi:cy="298.57144"
         sodipodi:r1="17.914194"
         sodipodi:r2="6.7604294"
         sodipodi:arg1="-3.1415927"
         sodipodi:arg2="-2.5132741"
         inkscape:flatsided="false"
         inkscape:rounded="0"
         inkscape:randomized="0"
         d="m 391.37151,298.57144 12.44489,-3.97368 -0.0665,-13.06373 7.62488,10.60786 12.4038,-4.10015 -7.73246,10.5297 7.73246,10.5297 -12.4038,-4.10015 -7.62487,10.60786 0.0665,-13.06373 -12.44489,-3.97368 z"
         transform="matrix(0.5047834,0.62274026,-0.62274026,0.5047834,-97.991794,32.310451)" />
      <path
         transform="matrix(0.29969946,0.7434998,-0.7434998,0.29969946,78.984756,10.564055)"
         d="m 391.37151,298.57144 12.44489,-3.97368 -0.0665,-13.06373 7.62488,10.60786 12.4038,-4.10015 -7.73246,10.5297 7.73246,10.5297 -12.4038,-4.10015 -7.62487,10.60786 0.0665,-13.06373 -12.44489,-3.97368 z"
         inkscape:randomized="0"
         inkscape:rounded="0"
         inkscape:flatsided="false"
         sodipodi:arg2="-2.5132741"
         sodipodi:arg1="-3.1415927"
         sodipodi:r2="6.7604294"
         sodipodi:r1="17.914194"
         sodipodi:cy="298.57144"
         sodipodi:cx="409.28571"
         sodipodi:sides="5"
         id="path2924"
         style="color:#000000;fill:#da121a;fill-opacity:1;fill-rule:nonzero;stroke:#da121a;stroke-width:1.18025653;marker:none;visibility:visible;display:inline;overflow:visible;enable-background:accumulate;stroke-miterlimit:4;stroke-dasharray:none"
         sodipodi:type="star" />
      <path
         sodipodi:type="star"
         style="color:#000000;fill:#da121a;fill-opacity:1;fill-rule:nonzero;stroke:#da121a;stroke-width:1.18025653;marker:none;visibility:visible;display:inline;overflow:visible;enable-background:accumulate;stroke-miterlimit:4;stroke-dasharray:none"
         id="path2930"
         sodipodi:sides="5"
         sodipodi:cx="409.28571"
         sodipodi:cy="298.57144"
         sodipodi:r1="17.914194"
         sodipodi:r2="6.7604294"
         sodipodi:arg1="-3.1415927"
         sodipodi:arg2="-2.5132741"
         inkscape:flatsided="false"
         inkscape:rounded="0"
         inkscape:randomized="0"
         d="m 391.37151,298.57144 12.44489,-3.97368 -0.0665,-13.06373 7.62488,10.60786 12.4038,-4.10015 -7.73246,10.5297 7.73246,10.5297 -12.4038,-4.10015 -7.62487,10.60786 0.0665,-13.06373 -12.44489,-3.97368 z"
         transform="matrix(0.72144413,0.34947116,-0.34947116,0.72144413,-328.4582,155.39564)" />
      <path
         sodipodi:type="star"
         style="color:#000000;fill:#da121a;fill-opacity:1;fill-rule:nonzero;stroke:#da121a;stroke-width:1.18025654;marker:none;visibility:visible;display:inline;overflow:visible;enable-background:accumulate;stroke-miterlimit:4;stroke-dasharray:none"
         id="path2936"
         sodipodi:sides="5"
         sodipodi:cx="409.28571"
         sodipodi:cy="298.57144"
         sodipodi:r1="17.914194"
         sodipodi:r2="6.7604294"
         sodipodi:arg1="-3.1415927"
         sodipodi:arg2="-2.5132741"
         inkscape:flatsided="false"
         inkscape:rounded="0"
         inkscape:randomized="0"
         d="m 391.37151,298.57144 12.44489,-3.97368 -0.0665,-13.06373 7.62488,10.60786 12.4038,-4.10015 -7.73246,10.5297 7.73246,10.5297 -12.4038,-4.10015 -7.62487,10.60786 0.0665,-13.06373 -12.44489,-3.97368 z"
         transform="matrix(0.59134616,0.54122217,-0.54122217,0.59134616,-181.81141,62.479553)" />
      <path
         transform="matrix(0.40929293,0.68926847,-0.68926847,0.40929293,-12.513121,15.107036)"
         d="m 391.37151,298.57144 12.44489,-3.97368 -0.0665,-13.06373 7.62488,10.60786 12.4038,-4.10015 -7.73246,10.5297 7.73246,10.5297 -12.4038,-4.10015 -7.62487,10.60786 0.0665,-13.06373 -12.44489,-3.97368 z"
         inkscape:randomized="0"
         inkscape:rounded="0"
         inkscape:flatsided="false"
         sodipodi:arg2="-2.5132741"
         sodipodi:arg1="-3.1415927"
         sodipodi:r2="6.7604294"
         sodipodi:r1="17.914194"
         sodipodi:cy="298.57144"
         sodipodi:cx="409.28571"
         sodipodi:sides="5"
         id="path2942"
         style="color:#000000;fill:#da121a;fill-opacity:1;fill-rule:nonzero;stroke:#da121a;stroke-width:1.18025653;marker:none;visibility:visible;display:inline;overflow:visible;enable-background:accumulate;stroke-miterlimit:4;stroke-dasharray:none"
         sodipodi:type="star" />
      <path
         sodipodi:type="star"
         style="color:#000000;fill:#da121a;fill-opacity:1;fill-rule:nonzero;stroke:#da121a;stroke-width:1.18025653;marker:none;visibility:visible;display:inline;overflow:visible;enable-background:accumulate;stroke-miterlimit:4;stroke-dasharray:none"
         id="path2954"
         sodipodi:sides="5"
         sodipodi:cx="409.28571"
         sodipodi:cy="298.57144"
         sodipodi:r1="17.914194"
         sodipodi:r2="6.7604294"
         sodipodi:arg1="-3.1415927"
         sodipodi:arg2="-2.5132741"
         inkscape:flatsided="false"
         inkscape:rounded="0"
         inkscape:randomized="0"
         d="m 391.37151,298.57144 12.44489,-3.97368 -0.0665,-13.06373 7.62488,10.60786 12.4038,-4.10015 -7.73246,10.5297 7.73246,10.5297 -12.4038,-4.10015 -7.62487,10.60786 0.0665,-13.06373 -12.44489,-3.97368 z"
         transform="matrix(0.18300217,0.78046264,-0.78046264,0.18300217,170.20809,20.007911)" />
      <path
         transform="matrix(0.05947441,0.79942137,-0.79942137,0.05947441,260.74937,43.862501)"
         d="m 391.37151,298.57144 12.44489,-3.97368 -0.0665,-13.06373 7.62488,10.60786 12.4038,-4.10015 -7.73246,10.5297 7.73246,10.5297 -12.4038,-4.10015 -7.62487,10.60786 0.0665,-13.06373 -12.44489,-3.97368 z"
         inkscape:randomized="0"
         inkscape:rounded="0"
         inkscape:flatsided="false"
         sodipodi:arg2="-2.5132741"
         sodipodi:arg1="-3.1415927"
         sodipodi:r2="6.7604294"
         sodipodi:r1="17.914194"
         sodipodi:cy="298.57144"
         sodipodi:cx="409.28571"
         sodipodi:sides="5"
         id="path2960"
         style="color:#000000;fill:#da121a;fill-opacity:1;fill-rule:nonzero;stroke:#da121a;stroke-width:1.18025652;marker:none;visibility:visible;display:inline;overflow:visible;enable-background:accumulate;stroke-miterlimit:4;stroke-dasharray:none"
         sodipodi:type="star" />
      <path
         sodipodi:type="star"
         style="color:#000000;fill:#da121a;fill-opacity:1;fill-rule:nonzero;stroke:#da121a;stroke-width:1.18025652;marker:none;visibility:visible;display:inline;overflow:visible;enable-background:accumulate;stroke-miterlimit:4;stroke-dasharray:none"
         id="path2978"
         sodipodi:sides="5"
         sodipodi:cx="409.28571"
         sodipodi:cy="298.57144"
         sodipodi:r1="17.914194"
         sodipodi:r2="6.7604294"
         sodipodi:arg1="-3.1415927"
         sodipodi:arg2="-2.5132741"
         inkscape:flatsided="false"
         inkscape:rounded="0"
         inkscape:randomized="0"
         d="m 391.37151,298.57144 12.44489,-3.97368 -0.0665,-13.06373 7.62488,10.60786 12.4038,-4.10015 -7.73246,10.5297 7.73246,10.5297 -12.4038,-4.10015 -7.62487,10.60786 0.0665,-13.06373 -12.44489,-3.97368 z"
         transform="matrix(-0.05947441,0.79942137,0.79942137,0.05947441,-134.88503,43.862501)" />
      <path
         transform="matrix(-0.29617486,0.74491085,-0.74491085,-0.29617486,488.85464,187.50552)"
         d="m 391.37151,298.57144 12.44489,-3.97368 -0.0665,-13.06373 7.62488,10.60786 12.4038,-4.10015 -7.73246,10.5297 7.73246,10.5297 -12.4038,-4.10015 -7.62487,10.60786 0.0665,-13.06373 -12.44489,-3.97368 z"
         inkscape:randomized="0"
         inkscape:rounded="0"
         inkscape:flatsided="false"
         sodipodi:arg2="-2.5132741"
         sodipodi:arg1="-3.1415927"
         sodipodi:r2="6.7604294"
         sodipodi:r1="17.914194"
         sodipodi:cy="298.57144"
         sodipodi:cx="409.28571"
         sodipodi:sides="5"
         id="path3020"
         style="color:#000000;fill:#da121a;fill-opacity:1;fill-rule:nonzero;stroke:#da121a;stroke-width:1.18025653;marker:none;visibility:visible;display:inline;overflow:visible;enable-background:accumulate;stroke-miterlimit:4;stroke-dasharray:none"
         sodipodi:type="star" />
      <path
         sodipodi:type="star"
         style="color:#000000;fill:#da121a;fill-opacity:1;fill-rule:nonzero;stroke:#da121a;stroke-width:1.18025653;marker:none;visibility:visible;display:inline;overflow:visible;enable-background:accumulate;stroke-miterlimit:4;stroke-dasharray:none"
         id="path3026"
         sodipodi:sides="5"
         sodipodi:cx="409.28571"
         sodipodi:cy="298.57144"
         sodipodi:r1="17.914194"
         sodipodi:r2="6.7604294"
         sodipodi:arg1="-3.1415927"
         sodipodi:arg2="-2.5132741"
         inkscape:flatsided="false"
         inkscape:rounded="0"
         inkscape:randomized="0"
         d="m 391.37151,298.57144 12.44489,-3.97368 -0.0665,-13.06373 7.62488,10.60786 12.4038,-4.10015 -7.73246,10.5297 7.73246,10.5297 -12.4038,-4.10015 -7.62487,10.60786 0.0665,-13.06373 -12.44489,-3.97368 z"
         transform="matrix(-0.18470643,0.78006106,-0.78006106,-0.18470643,422.75516,130.07114)" />
      <path
         sodipodi:type="star"
         style="color:#000000;fill:#da121a;fill-opacity:1;fill-rule:nonzero;stroke:#da121a;stroke-width:1.18025652;marker:none;visibility:visible;display:inline;overflow:visible;enable-background:accumulate;stroke-miterlimit:4;stroke-dasharray:none"
         id="path3032"
         sodipodi:sides="5"
         sodipodi:cx="409.28571"
         sodipodi:cy="298.57144"
         sodipodi:r1="17.914194"
         sodipodi:r2="6.7604294"
         sodipodi:arg1="-3.1415927"
         sodipodi:arg2="-2.5132741"
         inkscape:flatsided="false"
         inkscape:rounded="0"
         inkscape:randomized="0"
         d="m 391.37151,298.57144 12.44489,-3.97368 -0.0665,-13.06373 7.62488,10.60786 12.4038,-4.10015 -7.73246,10.5297 7.73246,10.5297 -12.4038,-4.10015 -7.62487,10.60786 0.0665,-13.06373 -12.44489,-3.97368 z"
         transform="matrix(-0.50136713,0.62549399,-0.62549399,-0.50136713,594.19581,330.82606)" />
      <path
         transform="matrix(-0.66064178,0.45405304,-0.45405304,-0.66064178,652.45229,496.18466)"
         d="m 391.37151,298.57144 12.44489,-3.97368 -0.0665,-13.06373 7.62488,10.60786 12.4038,-4.10015 -7.73246,10.5297 7.73246,10.5297 -12.4038,-4.10015 -7.62487,10.60786 0.0665,-13.06373 -12.44489,-3.97368 z"
         inkscape:randomized="0"
         inkscape:rounded="0"
         inkscape:flatsided="false"
         sodipodi:arg2="-2.5132741"
         sodipodi:arg1="-3.1415927"
         sodipodi:r2="6.7604294"
         sodipodi:r1="17.914194"
         sodipodi:cy="298.57144"
         sodipodi:cx="409.28571"
         sodipodi:sides="5"
         id="path3040"
         style="color:#000000;fill:#da121a;fill-opacity:1;fill-rule:nonzero;stroke:#da121a;stroke-width:1.18025653;marker:none;visibility:visible;display:inline;overflow:visible;enable-background:accumulate;stroke-miterlimit:4;stroke-dasharray:none"
         sodipodi:type="star" />
      <path
         sodipodi:type="star"
         style="color:#000000;fill:#da121a;fill-opacity:1;fill-rule:nonzero;stroke:#da121a;stroke-width:1.18025654;marker:none;visibility:visible;display:inline;overflow:visible;enable-background:accumulate;stroke-miterlimit:4;stroke-dasharray:none"
         id="path3046"
         sodipodi:sides="5"
         sodipodi:cx="409.28571"
         sodipodi:cy="298.57144"
         sodipodi:r1="17.914194"
         sodipodi:r2="6.7604294"
         sodipodi:arg1="-3.1415927"
         sodipodi:arg2="-2.5132741"
         inkscape:flatsided="false"
         inkscape:rounded="0"
         inkscape:randomized="0"
         d="m 391.37151,298.57144 12.44489,-3.97368 -0.0665,-13.06373 7.62488,10.60786 12.4038,-4.10015 -7.73246,10.5297 7.73246,10.5297 -12.4038,-4.10015 -7.62487,10.60786 0.0665,-13.06373 -12.44489,-3.97368 z"
         transform="matrix(-0.76483643,0.24007697,-0.24007697,-0.76483643,660.16137,674.32555)" />
      <path
         transform="matrix(-0.4053272,0.69160797,-0.69160797,-0.4053272,547.94276,256.72178)"
         d="m 391.37151,298.57144 12.44489,-3.97368 -0.0665,-13.06373 7.62488,10.60786 12.4038,-4.10015 -7.73246,10.5297 7.73246,10.5297 -12.4038,-4.10015 -7.62487,10.60786 0.0665,-13.06373 -12.44489,-3.97368 z"
         inkscape:randomized="0"
         inkscape:rounded="0"
         inkscape:flatsided="false"
         sodipodi:arg2="-2.5132741"
         sodipodi:arg1="-3.1415927"
         sodipodi:r2="6.7604294"
         sodipodi:r1="17.914194"
         sodipodi:cy="298.57144"
         sodipodi:cx="409.28571"
         sodipodi:sides="5"
         id="path3052"
         style="color:#000000;fill:#da121a;fill-opacity:1;fill-rule:nonzero;stroke:#da121a;stroke-width:1.18025653;marker:none;visibility:visible;display:inline;overflow:visible;enable-background:accumulate;stroke-miterlimit:4;stroke-dasharray:none"
         sodipodi:type="star" />
      <path
         transform="matrix(-0.58621078,0.54678026,-0.54678026,-0.58621078,628.99352,410.24522)"
         d="m 391.37151,298.57144 12.44489,-3.97368 -0.0665,-13.06373 7.62488,10.60786 12.4038,-4.10015 -7.73246,10.5297 7.73246,10.5297 -12.4038,-4.10015 -7.62487,10.60786 0.0665,-13.06373 -12.44489,-3.97368 z"
         inkscape:randomized="0"
         inkscape:rounded="0"
         inkscape:flatsided="false"
         sodipodi:arg2="-2.5132741"
         sodipodi:arg1="-3.1415927"
         sodipodi:r2="6.7604294"
         sodipodi:r1="17.914194"
         sodipodi:cy="298.57144"
         sodipodi:cx="409.28571"
         sodipodi:sides="5"
         id="path3058"
         style="color:#000000;fill:#da121a;fill-opacity:1;fill-rule:nonzero;stroke:#da121a;stroke-width:1.18025652;marker:none;visibility:visible;display:inline;overflow:visible;enable-background:accumulate;stroke-miterlimit:4;stroke-dasharray:none"
         sodipodi:type="star" />
      <path
         sodipodi:type="star"
         style="color:#000000;fill:#da121a;fill-opacity:1;fill-rule:nonzero;stroke:#da121a;stroke-width:1.18025652;marker:none;visibility:visible;display:inline;overflow:visible;enable-background:accumulate;stroke-miterlimit:4;stroke-dasharray:none"
         id="path3064"
         sodipodi:sides="5"
         sodipodi:cx="409.28571"
         sodipodi:cy="298.57144"
         sodipodi:r1="17.914194"
         sodipodi:r2="6.7604294"
         sodipodi:arg1="-3.1415927"
         sodipodi:arg2="-2.5132741"
         inkscape:flatsided="false"
         inkscape:rounded="0"
         inkscape:randomized="0"
         d="m 391.37151,298.57144 12.44489,-3.97368 -0.0665,-13.06373 7.62488,10.60786 12.4038,-4.10015 -7.73246,10.5297 7.73246,10.5297 -12.4038,-4.10015 -7.62487,10.60786 0.0665,-13.06373 -12.44489,-3.97368 z"
         transform="matrix(-0.71942496,0.35360919,-0.35360919,-0.71942496,662.85484,582.75461)" />
      <path
         transform="matrix(-0.79247257,0.12082617,-0.12082617,-0.79247257,643.54636,764.51881)"
         d="m 391.37151,298.57144 12.44489,-3.97368 -0.0665,-13.06373 7.62488,10.60786 12.4038,-4.10015 -7.73246,10.5297 7.73246,10.5297 -12.4038,-4.10015 -7.62487,10.60786 0.0665,-13.06373 -12.44489,-3.97368 z"
         inkscape:randomized="0"
         inkscape:rounded="0"
         inkscape:flatsided="false"
         sodipodi:arg2="-2.5132741"
         sodipodi:arg1="-3.1415927"
         sodipodi:r2="6.7604294"
         sodipodi:r1="17.914194"
         sodipodi:cy="298.57144"
         sodipodi:cx="409.28571"
         sodipodi:sides="5"
         id="path3070"
         style="color:#000000;fill:#da121a;fill-opacity:1;fill-rule:nonzero;stroke:#da121a;stroke-width:1.18025652;marker:none;visibility:visible;display:inline;overflow:visible;enable-background:accumulate;stroke-miterlimit:4;stroke-dasharray:none"
         sodipodi:type="star" />
    </g>
  </g>
</svg>
