<?xml version="1.0" encoding="UTF-8" standalone="no"?>
<!-- Created with Inkscape (http://www.inkscape.org/) -->

<svg
   xmlns:dc="http://purl.org/dc/elements/1.1/"
   xmlns:cc="http://creativecommons.org/ns#"
   xmlns:rdf="http://www.w3.org/1999/02/22-rdf-syntax-ns#"
   xmlns:svg="http://www.w3.org/2000/svg"
   xmlns="http://www.w3.org/2000/svg"
   xmlns:sodipodi="http://sodipodi.sourceforge.net/DTD/sodipodi-0.dtd"
   xmlns:inkscape="http://www.inkscape.org/namespaces/inkscape"
   width="750"
   height="500"
   id="svg2"
   version="1.1"
   inkscape:version="0.48.4 r9939"
   sodipodi:docname="Bandera Província Santo Domingo de los Tsáchilas.svg">
  <defs
     id="defs4" />
  <sodipodi:namedview
     id="base"
     pagecolor="#ffffff"
     bordercolor="#666666"
     borderopacity="1.0"
     inkscape:pageopacity="0.0"
     inkscape:pageshadow="2"
     inkscape:zoom="0.998"
     inkscape:cx="375"
     inkscape:cy="250"
     inkscape:document-units="px"
     inkscape:current-layer="layer1"
     showgrid="false"
     inkscape:window-width="1366"
     inkscape:window-height="716"
     inkscape:window-x="-8"
     inkscape:window-y="-8"
     inkscape:window-maximized="1"
     showguides="true"
     inkscape:guide-bbox="true" />
  <metadata
     id="metadata7">
    <rdf:RDF>
      <cc:Work
         rdf:about="">
        <dc:format>image/svg+xml</dc:format>
        <dc:type
           rdf:resource="http://purl.org/dc/dcmitype/StillImage" />
        <dc:title></dc:title>
      </cc:Work>
    </rdf:RDF>
  </metadata>
  <g
     inkscape:label="Capa 1"
     inkscape:groupmode="layer"
     id="layer1"
     transform="translate(0,-552.36218)">
    <rect
       style="fill:#ffffff;fill-opacity:1;stroke:none"
       id="rect2985"
       width="750.00397"
       height="499.99799"
       x="0"
       y="552.3642" />
    <path
       style="fill:#078930;fill-opacity:1;stroke:none"
       d="m 749.92169,605.38282 -296.3385,197.41598 296.3385,197.4611"
       id="path3801" />
    <path
       style="fill:#da121a;fill-opacity:1;stroke:none"
       d="M 671.77007,1052.2599 375.46128,854.91672 79.30698,1052.2599"
       id="path3799" />
    <path
       style="fill:#078930;fill-opacity:1;stroke:none"
       d="M 1.15536,1000.2599 297.47134,802.86184 1.15536,605.38282"
       id="path3797" />
    <path
       style="fill:#da121a;fill-opacity:1;stroke:none"
       d="M 79.30698,553.38282 375.50123,750.75438 671.77007,553.38282"
       id="path3004" />
    <path
       id="path3777"
       style="fill:#000000;stroke:#000000;stroke-width:1px;stroke-linecap:butt;stroke-linejoin:miter;stroke-opacity:1"
       d="m 749.62079,592.58369 -688.887009,459.20781 -30,0 718.925959,-479.54997 z"
       inkscape:connector-curvature="0"
       sodipodi:nodetypes="ccccc" />
    <path
       id="path3781"
       style="fill:#000000;stroke:#000000;stroke-width:1px;stroke-linecap:butt;stroke-linejoin:miter;stroke-opacity:1"
       d="M 689.65974,1051.7915 0.772731,592.58369 0.733781,572.24153 719.65974,1051.7915 z"
       inkscape:connector-curvature="0"
       sodipodi:nodetypes="ccccc" />
    <path
       id="path3785"
       style="fill:#000000;stroke:#000000;stroke-width:1px;stroke-linecap:butt;stroke-linejoin:miter;stroke-opacity:1"
       d="M 749.62079,1013.4493 60.733781,554.24158 l -30,-5e-5 718.925959,479.54997 z"
       inkscape:connector-curvature="0"
       sodipodi:nodetypes="ccccc" />
    <path
       id="path3789"
       style="fill:#000000;stroke:#000000;stroke-width:1px;stroke-linecap:butt;stroke-linejoin:miter;stroke-opacity:1"
       d="M 689.65974,554.24153 0.772731,1013.4493 0.733781,1033.7915 719.65974,554.24153 z"
       inkscape:connector-curvature="0"
       sodipodi:nodetypes="ccccc" />
    <g
       id="g4239"
       transform="matrix(2.0106395,4.8541129,-4.854113,2.0106393,1800.4218,815.74715)"
       style="fill:#fcd116;stroke:#000000;stroke-width:0.09516461;stroke-miterlimit:4;stroke-opacity:1;stroke-dasharray:none" />
    <g
       id="g4631"
       transform="translate(-1425.5215,-12.939229)">
      <path
         style="fill:#fcd116;stroke:none"
         inkscape:connector-curvature="0"
         d="m 1800.4218,815.74724 4.997,70.31319 c -64.9712,47.01835 -25.3055,74.82233 -71.3481,89.87253 30.6475,-32.80098 -9.3633,-32.31312 25.6504,-103.11417"
         id="path3431" />
      <path
         id="path4196"
         style="fill:#ffffff;stroke:none"
         d="m 1778.3048,869.14248 c -35.8466,59.08219 -12.3374,91.5678 -44.2341,106.79048 46.0426,-15.0502 6.3769,-42.85418 71.3481,-89.87253 l -4.997,-70.31319 z"
         inkscape:connector-curvature="0"
         sodipodi:nodetypes="ccccc" />
      <path
         id="path4341"
         d="m 1800.3491,815.62342 -46.1009,53.32559 c -79.2087,-12.5689 -70.7454,35.12602 -113.9793,13.27966 44.8623,-1.59398 16.1812,-29.49537 90.9633,-54.91957"
         inkscape:connector-curvature="0"
         style="fill:#fcd116;stroke:none" />
      <path
         sodipodi:nodetypes="ccccc"
         inkscape:connector-curvature="0"
         d="m 1746.989,837.82517 c -67.0986,16.5366 -73.383,56.14092 -106.7201,44.4035 43.2339,21.84636 34.7706,-25.84856 113.9793,-13.27966 l 46.1009,-53.32559 z"
         style="fill:#ffffff;stroke:none"
         id="path4343" />
      <path
         sodipodi:nodetypes="ccc"
         id="straightray"
         d="m 1831.9461,815.74724 -31.5243,173.38378 -31.5243,-173.38378"
         inkscape:connector-curvature="0"
         style="fill:#fcd116;stroke:none" />
      <path
         style="fill:#fcd116;stroke:none"
         inkscape:connector-curvature="0"
         d="M 1822.6756,837.87906 1677.9431,938.4187 1778.0227,793.36777"
         id="path4345"
         sodipodi:nodetypes="ccc" />
      <path
         sodipodi:nodetypes="ccccc"
         style="fill:#ffffff;stroke:none"
         inkscape:connector-curvature="0"
         d="m 1800.4218,815.74724 31.5243,0 -31.5243,173.38378 0,-173.38378 0,173.38378"
         id="path4192" />
      <path
         id="path4347"
         d="m 1800.3491,815.62342 22.3265,22.25564 -144.7325,100.53964 122.406,-122.79528 -122.406,122.79528"
         inkscape:connector-curvature="0"
         style="fill:#ffffff;stroke:none"
         sodipodi:nodetypes="ccccc" />
      <path
         style="fill:#fcd116;stroke:none"
         inkscape:connector-curvature="0"
         d="m 1800.2384,815.6023 -70.3132,4.99701 c -47.0183,-64.97122 -74.8223,-25.30548 -89.8725,-71.34811 32.801,30.64745 32.3131,-9.36326 103.1142,25.65045"
         id="path3431-1" />
      <path
         id="path4196-2"
         style="fill:#ffffff;stroke:none"
         d="m 1746.8432,793.48527 c -59.0822,-35.84654 -91.5678,-12.33736 -106.7905,-44.23407 15.0502,46.04263 42.8542,6.37689 89.8725,71.34811 l 70.3132,-4.99701 z"
         inkscape:connector-curvature="0"
         sodipodi:nodetypes="ccccc" />
      <path
         id="path4341-3"
         d="m 1800.3622,815.5296 -53.3256,-46.10094 c 12.5689,-79.20863 -35.126,-70.74539 -13.2796,-113.97927 1.5939,44.86235 29.4953,16.18121 54.9195,90.96329"
         inkscape:connector-curvature="0"
         style="fill:#fcd116;stroke:none" />
      <path
         sodipodi:nodetypes="ccccc"
         inkscape:connector-curvature="0"
         d="m 1778.1605,762.16953 c -16.5367,-67.09858 -56.141,-73.38303 -44.4035,-106.72014 -21.8464,43.23388 25.8485,34.77064 13.2796,113.97927 l 53.3256,46.10094 z"
         style="fill:#ffffff;stroke:none"
         id="path4343-4" />
      <path
         style="fill:#fcd116;stroke:none"
         inkscape:connector-curvature="0"
         d="m 1778.1066,837.8561 -100.5397,-144.7325 145.051,100.0796"
         id="path4345-1"
         sodipodi:nodetypes="ccc" />
      <path
         id="path4347-1"
         d="m 1800.3622,815.5296 -22.2556,22.3265 -100.5397,-144.7325 122.7953,122.406 -122.7953,-122.406"
         inkscape:connector-curvature="0"
         style="fill:#ffffff;stroke:none"
         sodipodi:nodetypes="ccccc" />
      <path
         sodipodi:nodetypes="ccc"
         id="straightray-3"
         d="M 1800.2384,847.1266 1626.8546,815.6023 1800.2384,784.078"
         inkscape:connector-curvature="0"
         style="fill:#fcd116;stroke:none" />
      <path
         sodipodi:nodetypes="ccccc"
         style="fill:#ffffff;stroke:none"
         inkscape:connector-curvature="0"
         d="m 1800.2384,815.6023 0,31.5243 -173.3838,-31.5243 173.3838,0 -173.3838,0"
         id="path4192-8" />
      <path
         id="path4526"
         d="m 1800.0324,815.7372 -4.997,-70.31319 c 64.9712,-47.01835 25.3055,-74.82233 71.3481,-89.87253 -30.6475,32.80098 9.3633,32.31312 -25.6504,103.11417"
         inkscape:connector-curvature="0"
         style="fill:#fcd116;stroke:none" />
      <path
         sodipodi:nodetypes="ccccc"
         inkscape:connector-curvature="0"
         d="m 1822.1494,762.34196 c 35.8466,-59.08219 12.3374,-91.5678 44.2341,-106.79048 -46.0426,15.0502 -6.3769,42.85418 -71.3481,89.87253 l 4.997,70.31319 z"
         style="fill:#ffffff;stroke:none"
         id="path4528" />
      <path
         style="fill:#fcd116;stroke:none"
         inkscape:connector-curvature="0"
         d="m 1800.1051,815.86102 46.1009,-53.32559 c 79.2087,12.5689 70.7454,-35.12602 113.9793,-13.27966 -44.8623,1.59398 -16.1812,29.49537 -90.9633,54.91957"
         id="path4532" />
      <path
         id="path4534"
         style="fill:#ffffff;stroke:none"
         d="m 1853.4652,793.65927 c 67.0986,-16.5366 73.383,-56.14092 106.7201,-44.4035 -43.2339,-21.84636 -34.7706,25.84856 -113.9793,13.27966 l -46.1009,53.32559 z"
         inkscape:connector-curvature="0"
         sodipodi:nodetypes="ccccc" />
      <path
         sodipodi:nodetypes="ccc"
         id="path4536"
         d="M 1777.7786,793.60538 1922.5111,693.06574 1822.4315,838.11667"
         inkscape:connector-curvature="0"
         style="fill:#fcd116;stroke:none" />
      <path
         sodipodi:nodetypes="ccccc"
         style="fill:#ffffff;stroke:none"
         inkscape:connector-curvature="0"
         d="m 1800.1051,815.86102 -22.3265,-22.25564 144.7325,-100.53964 -122.406,122.79528 122.406,-122.79528"
         id="path4538" />
      <path
         style="fill:#fcd116;stroke:none"
         inkscape:connector-curvature="0"
         d="m 1768.5081,815.7372 31.5243,-173.38378 31.5243,173.38378"
         id="path4540"
         sodipodi:nodetypes="ccc" />
      <path
         id="path4542"
         d="m 1800.0324,815.7372 -31.5243,0 31.5243,-173.38378 0,173.38378 0,-173.38378"
         inkscape:connector-curvature="0"
         style="fill:#ffffff;stroke:none"
         sodipodi:nodetypes="ccccc" />
      <path
         id="path4504"
         d="m 1800.0525,815.7686 70.3132,-4.99701 c 47.0183,64.97122 74.8223,25.30548 89.8725,71.34811 -32.801,-30.64745 -32.3131,9.36326 -103.1142,-25.65045"
         inkscape:connector-curvature="0"
         style="fill:#fcd116;stroke:none" />
      <path
         sodipodi:nodetypes="ccccc"
         inkscape:connector-curvature="0"
         d="m 1853.4477,837.88563 c 59.0822,35.84654 91.5678,12.33736 106.7905,44.23407 -15.0502,-46.04263 -42.8542,-6.37689 -89.8725,-71.34811 l -70.3132,4.99701 z"
         style="fill:#ffffff;stroke:none"
         id="path4506" />
      <path
         style="fill:#fcd116;stroke:none"
         inkscape:connector-curvature="0"
         d="m 1799.9287,815.8413 53.3256,46.10094 c -12.5689,79.20863 35.126,70.74539 13.2796,113.97927 -1.5939,-44.86235 -29.4953,-16.18121 -54.9195,-90.96329"
         id="path4510" />
      <path
         id="path4512"
         style="fill:#ffffff;stroke:none"
         d="m 1822.1304,869.20137 c 16.5367,67.09858 56.141,73.38303 44.4035,106.72014 21.8464,-43.23388 -25.8485,-34.77064 -13.2796,-113.97927 l -53.3256,-46.10094 z"
         inkscape:connector-curvature="0"
         sodipodi:nodetypes="ccccc" />
      <path
         sodipodi:nodetypes="ccc"
         id="path4498"
         d="M 1822.1843,793.5148 1922.724,938.2473 1777.673,838.1677"
         inkscape:connector-curvature="0"
         style="fill:#fcd116;stroke:none" />
      <path
         sodipodi:nodetypes="ccccc"
         style="fill:#ffffff;stroke:none"
         inkscape:connector-curvature="0"
         d="m 1799.9287,815.8413 22.2556,-22.3265 100.5397,144.7325 -122.7953,-122.406 122.7953,122.406"
         id="path4514" />
      <path
         style="fill:#fcd116;stroke:none"
         inkscape:connector-curvature="0"
         d="m 1800.0525,784.2443 173.3838,31.5243 -173.3838,31.5243"
         id="path4516"
         sodipodi:nodetypes="ccc" />
      <path
         id="path4518"
         d="m 1800.0525,815.7686 0,-31.5243 173.3838,31.5243 -173.3838,0 173.3838,0"
         inkscape:connector-curvature="0"
         style="fill:#ffffff;stroke:none"
         sodipodi:nodetypes="ccccc" />
      <path
         id="path4520"
         style="fill:none;stroke:#000000;stroke-width:1;stroke-miterlimit:4;stroke-opacity:1;stroke-dasharray:none"
         d="m 1973.4363,815.7686 -85.5289,15.5616 c 36.5432,35.4897 59.2524,10.7788 72.3308,50.7891 -30.6369,-28.6254 -32.2326,4.3912 -90.0799,-19.658 l 52.5657,75.7846 -71.5602,-49.3607 c 0.8258,50.9337 34.3545,49.465 15.3704,87.0346 -1.4888,-41.9025 -25.9282,-19.6457 -49.7657,-77.347 l -16.3467,90.5582 -15.5616,-85.5288 c -35.4897,36.5432 -10.7788,59.2523 -50.7891,72.3307 28.6254,-30.6368 -4.3912,-32.2326 19.658,-90.0799 l -75.7846,52.5657 49.3607,-71.5602 c -50.9337,0.8258 -49.465,34.3546 -87.0346,15.3704 41.9025,-1.4888 19.6457,-25.9281 77.5196,-49.9727 l -90.9356,-16.6539 85.5289,-15.5616 c -36.5432,-35.4897 -59.2524,-10.7788 -72.3308,-50.7891 30.6368,28.6254 32.2326,-4.3912 90.0799,19.658 l -52.5657,-75.7846 71.5602,49.3607 c -0.8258,-50.9337 -34.3545,-49.465 -15.3704,-87.0346 1.4888,41.9025 25.9281,19.6457 49.8151,77.5813 l 16.4606,-90.679 15.5616,85.5289 c 35.4897,-36.5432 10.7788,-59.2524 50.7891,-72.3308 -28.6254,30.6369 4.3912,32.2326 -19.658,90.0799 l 75.7846,-52.5657 -49.3607,71.5602 c 50.9337,-0.8258 49.465,-34.3545 87.0346,-15.3704 -41.9025,1.4888 -19.6457,25.9282 -77.6051,49.9153 z"
         inkscape:connector-curvature="0"
         sodipodi:nodetypes="ccccccccccccccccccccccccccccccccc" />
      <circle
         transform="matrix(5.2540541,0,0,5.2540539,1800.4218,815.74724)"
         id="circle3450"
         d="M 11,0 C 11,6.0751322 6.0751322,11 0,11 -6.0751322,11 -11,6.0751322 -11,0 c 0,-6.0751322 4.9248678,-11 11,-11 6.0751322,0 11,4.9248678 11,11 z"
         cy="0"
         cx="0"
         r="11"
         sodipodi:cx="0"
         sodipodi:cy="0"
         sodipodi:rx="11"
         sodipodi:ry="11"
         style="fill:#ffffff;stroke:none" />
    </g>
    <g
       id="g5007"
       transform="translate(-795.60438,-10.665969)">
      <path
         sodipodi:nodetypes="ccccccccccccccccccccccccccccccccccccccccccccccccccccccccccccccccccccccccccccccccccccc"
         transform="translate(0,552.36218)"
         inkscape:connector-curvature="0"
         id="path4667"
         d="m 1163.7357,276.31423 -6.2494,-10.97961 -9.1615,-6.01878 0.6104,24.38268 c -0.029,2.96505 -1.394,4.0316 -3.4978,4.0482 l -2.7419,-24.29859 c 0.023,-2.20009 -2.4688,-3.02226 -2.1713,0.2043 l 1.5747,28.44764 c -0.2204,1.53647 -1.3388,3.18301 -5.1868,3.50456 l 0.1075,-28.86819 c 0.044,-1.43141 -2.7206,-2.01592 -3.084,1.40183 -0.3177,10.02449 -0.02,24.92378 -1.8354,30.07339 -0.278,0.99235 -1.145,2.36996 -3.912,3.57039 l 2.1027,-29.57849 c 0.2036,-2.09915 -1.9874,-2.87302 -2.3831,0.70091 -1.9854,10.25679 -2.1597,18.53004 -3.2505,28.96574 -0.2797,2.61098 -1.5163,3.22251 -3.1525,4.23478 0.4913,-10.55922 -0.2336,-20.64574 2.1975,-31.37815 0.2105,-2.3513 -2.1677,-1.28048 -2.1027,-0.56073 -1.6947,4.87751 -2.5569,9.46715 -2.6019,15.00343 -0.6409,8.37266 1.024,21.44961 -3.8465,23.26638 -0.2138,-8.80879 -1.0457,-14.68189 -0.4206,-27.47576 2.2515,-15.54133 12.2452,-27.17621 20.8872,-40.23236 1.6324,-4.20282 0.6111,-6.0836 -0.7009,-7.71003 -2.3859,0.33797 -9.0095,0.34042 -6.593,-7.45223 L 1105.199,207.3657 c -1.6677,-1.69193 0.3886,-3.6456 2.1864,-1.84999 l 22.5362,22.28393 c 5.6545,-2.15779 8.0124,2.60322 7.6522,5.04542 3.021,3.00177 6.0812,-0.63222 7.3745,-2.79222 l 17.8414,-26.81742 c 11.4441,-13.03078 18.1612,-16.555 28.258,-23.82538 1.9071,-1.30276 2.5478,-0.14756 2.1055,0.77571 -9.5265,8.80168 -19.7571,17.04017 -28.4797,26.48496 -1.7647,2.33598 -0.3222,3.86222 1.1082,3.10284 l 24.5464,-21.46805 c 3.0998,-2.24863 3.3444,0.60203 1.9385,2.0753 l -28.258,27.14986 c -2.4234,2.67463 -0.9303,4.24161 0.2217,3.32447 l 27.039,-23.82539 c 2.831,-2.15887 5.4453,2.57777 2.5488,4.87589 l -34.3529,27.14986 c -2.57,2.08969 -0.8848,3.63496 0.4432,2.7704 l 27.704,-17.17644 c 4.9579,-2.18996 6.6394,2.80654 4.1002,4.43263 l -33.4664,17.6197 c -1.5415,0.63593 -1.9406,2.37149 0.1108,2.1055 l 29.477,-11.30321 c 6.1519,-1.27453 6.7421,4.8482 2.7704,6.42732 l -31.6933,9.41933 c -3.2504,0.75567 -2.6716,2.40251 -1.6622,3.32448 l 13.7411,12.07891 5.9365,4.26043 12.5525,8.08436 51.4343,25.36927 c 5.9537,3.17657 0.8925,5.98775 -2.7835,4.17696 l -54.0586,-28.43928 -1.1968,0.4535 52.6184,31.95966 c 4.5738,3.43861 -0.1657,5.56399 -3.0404,4.00043 l -52.0228,-35.03086 -1.2802,0.32004 52.5029,38.07118 -2.0802,2.72029 10.0811,8.00086 c 1.906,1.86884 0.1857,2.87659 -1.4402,1.76019 l -62.0472,-50.24254 -1.1201,0.16002 59.4869,52.48278 c 1.2002,1.45679 0.4026,3.70367 -1.7601,1.76019 l -7.5208,-7.52081 -3.5204,2.88031 -49.1088,-49.22215 -0.9601,0.32003 46.7085,50.18225 c 2.5378,2.68317 -1.6489,9.00868 -5.9206,4.6405 l -43.3452,-54.32702 -1.0793,0.33164 37.8638,54.47543 c 0.5017,1.10046 -0.8759,2.50079 -2.2403,0.16002 l -37.5297,-54.47247 -0.8643,0.30343 32.3134,54.16904 c 0.4029,1.43234 -0.899,3.27209 -2.8803,-0.32003 z"
         style="fill:none;stroke:#000000;stroke-width:1px;stroke-linecap:butt;stroke-linejoin:miter;stroke-opacity:1" />
      <path
         sodipodi:nodetypes="cccccccc"
         inkscape:connector-curvature="0"
         id="path4669"
         d="m 1105.5651,760.09465 3.985,10e-4 m 50.0593,0.0177 4.2304,10e-4 m 4.2378,0.001 5.9697,0.002 m 4.8643,0.002 7.502,0.003"
         style="fill:none;stroke:#000000;stroke-width:0.5;stroke-linecap:butt;stroke-linejoin:miter;stroke-miterlimit:4;stroke-opacity:1;stroke-dasharray:none" />
      <path
         inkscape:connector-curvature="0"
         id="path4669-4"
         d="m 1162.0769,757.03614 28.4596,0.0741"
         style="fill:none;stroke:#000000;stroke-width:0.5;stroke-linecap:butt;stroke-linejoin:miter;stroke-miterlimit:4;stroke-opacity:1;stroke-dasharray:none" />
      <path
         sodipodi:nodetypes="cccccc"
         inkscape:connector-curvature="0"
         id="path4669-2"
         d="m 1123.0003,776.7684 3.5057,0.003 m 21.9143,0.0195 16.9381,0.0151 m 6.4812,0.006 9.8014,0.009"
         style="fill:none;stroke:#000000;stroke-width:0.5;stroke-linecap:butt;stroke-linejoin:miter;stroke-miterlimit:4;stroke-opacity:1;stroke-dasharray:none" />
      <path
         sodipodi:nodetypes="cccccc"
         inkscape:connector-curvature="0"
         id="path4669-7"
         d="m 1120.1959,774.15693 3.7745,0.003 m 26.4019,0.0181 18.1995,0.0125 m 7.2437,0.005 10.9294,0.008"
         style="fill:none;stroke:#000000;stroke-width:0.5;stroke-linecap:butt;stroke-linejoin:miter;stroke-miterlimit:4;stroke-opacity:1;stroke-dasharray:none" />
      <path
         sodipodi:nodetypes="cc"
         style="fill:none;stroke:#000000;stroke-width:0.5;stroke-linecap:butt;stroke-linejoin:miter;stroke-miterlimit:4;stroke-opacity:1;stroke-dasharray:none"
         d="m 1136.2897,794.78304 25.2271,0.0236"
         id="path4710"
         inkscape:connector-curvature="0" />
      <path
         sodipodi:nodetypes="cc"
         style="fill:none;stroke:#000000;stroke-width:0.5;stroke-linecap:butt;stroke-linejoin:miter;stroke-miterlimit:4;stroke-opacity:1;stroke-dasharray:none"
         d="m 1136.3961,792.16803 34.3559,0.0236"
         id="path4712"
         inkscape:connector-curvature="0" />
      <path
         sodipodi:nodetypes="cc"
         inkscape:connector-curvature="0"
         id="path4714"
         d="m 1125.9351,810.77334 44.6739,0.0419"
         style="fill:none;stroke:#000000;stroke-width:0.5;stroke-linecap:butt;stroke-linejoin:miter;stroke-miterlimit:4;stroke-opacity:1;stroke-dasharray:none" />
      <path
         sodipodi:nodetypes="cc"
         inkscape:connector-curvature="0"
         id="path4716"
         d="m 1127.7965,808.1621 40.0919,0.0275"
         style="fill:none;stroke:#000000;stroke-width:0.5;stroke-linecap:butt;stroke-linejoin:miter;stroke-miterlimit:4;stroke-opacity:1;stroke-dasharray:none" />
      <path
         sodipodi:nodetypes="cccccccccccc"
         style="fill:none;stroke:#000000;stroke-width:0.5;stroke-linecap:butt;stroke-linejoin:miter;stroke-miterlimit:4;stroke-opacity:1;stroke-dasharray:none"
         d="m 1116.7854,828.72199 3.9041,0.002 m 2.5187,0.002 3.9986,0.003 m 2.9595,0.002 3.7152,0.002 m 3.054,0.002 4.089,0.003 m 3.258,0.002 4.412,0.003 m 15.069,0.01 36.6539,0.0234"
         id="path4718"
         inkscape:connector-curvature="0" />
      <path
         sodipodi:nodetypes="cccccccccccc"
         style="fill:none;stroke:#000000;stroke-width:0.5;stroke-linecap:butt;stroke-linejoin:miter;stroke-miterlimit:4;stroke-opacity:1;stroke-dasharray:none"
         d="m 1117.6669,826.19763 3.9356,0.002 m 1.952,9.1e-4 4.0301,0.002 m 2.4557,10e-4 3.7152,0.002 m 3.1799,10e-4 4.2247,0.002 m 2.5794,10e-4 5.0229,0.002 m 13.4398,0.006 33.0565,0.0154"
         id="path4720"
         inkscape:connector-curvature="0" />
      <path
         sodipodi:nodetypes="cccccccccccccccccccccc"
         inkscape:connector-curvature="0"
         id="path4722"
         d="m 1114.5306,846.68123 4.1538,0.002 m 3.1153,10e-4 3.6167,0.002 m 3.3659,10e-4 3.7957,0.002 m 4.3328,0.002 3.9388,0.002 m 33.084,0.0144 2.1388,9.2e-4 m 2.4643,0.001 2.3713,10e-4 m 3.1617,10e-4 5.6726,0.002 m 2.5573,10e-4 5.44,0.002 m 3.1617,10e-4 6.3235,0.003 m 4.1089,0.002 7.2476,0.003 m 7.4777,0.003 11.4245,0.005"
         style="fill:none;stroke:#000000;stroke-width:0.5;stroke-linecap:butt;stroke-linejoin:miter;stroke-miterlimit:4;stroke-opacity:1;stroke-dasharray:none" />
      <path
         sodipodi:nodetypes="cccccccccccccccccccccc"
         inkscape:connector-curvature="0"
         id="path4724"
         d="m 1114.4501,844.23856 4.4008,10e-4 m 2.9277,9.3e-4 3.6369,10e-4 m 3.437,10e-4 4.437,10e-4 m 3.4006,0.001 5.3858,0.002 m 30.4536,0.01 1.9172,6.1e-4 m 2.6307,8.4e-4 2.0065,6.3e-4 m 3.032,9.7e-4 5.2613,0.002 m 2.3186,7.4e-4 5.3506,0.002 m 2.9874,9.5e-4 5.9747,0.002 m 3.6116,10e-4 6.8666,0.002 m 7.0251,0.002 10.2904,0.003"
         style="fill:none;stroke:#000000;stroke-width:0.5;stroke-linecap:butt;stroke-linejoin:miter;stroke-miterlimit:4;stroke-opacity:1;stroke-dasharray:none" />
      <path
         sodipodi:nodetypes="cccccccccc"
         style="fill:none;stroke:#000000;stroke-width:0.5;stroke-linecap:butt;stroke-linejoin:miter;stroke-miterlimit:4;stroke-opacity:1;stroke-dasharray:none"
         d="m 1183.1306,862.7404 2.532,0.002 m 3.9187,0.004 2.4512,0.002 m 4.8331,0.005 7.635,0.007 m 3.7509,0.004 7.5016,0.007 m 4.8824,0.005 8.8224,0.008"
         id="path4710-3"
         inkscape:connector-curvature="0" />
      <path
         sodipodi:nodetypes="cccccccccccc"
         style="fill:none;stroke:#000000;stroke-width:0.5;stroke-linecap:butt;stroke-linejoin:miter;stroke-miterlimit:4;stroke-opacity:1;stroke-dasharray:none"
         d="m 1181.643,860.12825 2.242,0.002 m 3.982,0.003 2.3089,0.002 m 4.8185,0.003 7.1608,0.005 m 3.4801,0.002 7.2278,0.005 m 4.6177,0.003 8.5329,0.006 m 5.22,0.004 6.1904,0.004"
         id="path4712-1"
         inkscape:connector-curvature="0" />
      <path
         sodipodi:nodetypes="cccccccc"
         style="fill:none;stroke:#000000;stroke-width:0.5;stroke-linecap:butt;stroke-linejoin:miter;stroke-miterlimit:4;stroke-opacity:1;stroke-dasharray:none"
         d="m 1193.0465,880.13696 2.7936,0.003 m 5.8895,0.006 2.3909,0.002 m 6.4431,0.006 8.4816,0.008 m 12.71,0.0119 3.3474,0.003"
         id="path4710-9"
         inkscape:connector-curvature="0" />
      <path
         sodipodi:nodetypes="cccccccc"
         style="fill:none;stroke:#000000;stroke-width:0.5;stroke-linecap:butt;stroke-linejoin:miter;stroke-miterlimit:4;stroke-opacity:1;stroke-dasharray:none"
         d="m 1191.7377,877.52463 2.6678,0.002 m 5.6377,0.004 2.4665,0.002 6.2165,0.004 9.4884,0.007 m 11.0326,0.008 3.5929,0.002"
         id="path4712-8"
         inkscape:connector-curvature="0" />
      <path
         sodipodi:nodetypes="cccc"
         style="fill:#f9a8b3;stroke:#000000;stroke-width:0.5;stroke-linecap:butt;stroke-linejoin:miter;stroke-miterlimit:4;stroke-opacity:1;stroke-dasharray:none"
         d="m 1176.5679,742.17923 5.6058,0.005 m 6.3288,0.006 4.3037,0.004"
         id="path4710-6"
         inkscape:connector-curvature="0" />
      <path
         sodipodi:nodetypes="cc"
         style="fill:#f9a8b3;stroke:#000000;stroke-width:0.5;stroke-linecap:butt;stroke-linejoin:miter;stroke-miterlimit:4;stroke-opacity:1;stroke-dasharray:none"
         d="m 1179.859,739.56628 5.2802,0.004"
         id="path4712-5"
         inkscape:connector-curvature="0" />
      <path
         transform="translate(0,552.36218)"
         inkscape:connector-curvature="0"
         id="path4767"
         d="m 1182.5036,186.08304 c 0.6595,-0.46799 2.1187,-1.4922 3.2426,-2.27602 1.1239,-0.78382 2.8264,-1.97993 3.7834,-2.65801 1.8719,-1.32647 2.2843,-1.59108 2.6863,-1.72377 0.3416,-0.11271 0.5001,-0.0449 0.5001,0.21404 0,0.1778 -0.2744,0.4563 -1.9523,1.98149 -1.0737,0.97604 -2.8458,2.57079 -3.9379,3.54389 l -1.9857,1.76927 -1.7678,0 -1.7678,0 1.1991,-0.85089 z"
         style="fill:#f9a8b3;fill-opacity:1;stroke:none" />
      <path
         transform="translate(0,552.36218)"
         inkscape:connector-curvature="0"
         id="path4769"
         d="m 1179.213,188.52172 1.307,-0.98295 1.7726,0.0282 1.7726,0.0282 -1.0766,0.95377 -1.0766,0.95376 -2.003,9.5e-4 -2.0029,9.4e-4 1.3069,-0.98295 z"
         style="fill:#c6ecff;fill-opacity:1;stroke:none" />
      <path
         transform="translate(0,552.36218)"
         inkscape:connector-curvature="0"
         id="path4771"
         d="m 1190.3531,189.04201 c 0.5753,-0.52951 1.5017,-1.01356 1.8464,-0.96472 0.2966,0.042 0.3703,0.46388 0.1811,1.03719 l -0.1288,0.39019 -1.1962,-0.004 -1.1962,-0.004 0.4937,-0.45447 z"
         style="fill:#c6ecff;fill-opacity:1;stroke:none" />
      <path
         transform="translate(0,552.36218)"
         inkscape:connector-curvature="0"
         id="path4773"
         d="m 1162.9341,204.00956 c 0.5089,-0.74894 3.6313,-4.12947 6.0599,-6.56085 2.6274,-2.63046 4.2044,-4.08092 6.6566,-6.12253 l 1.444,-1.20223 2.0616,0 c 1.7196,0 2.0364,0.0227 1.9103,0.13689 -0.083,0.0753 -0.8013,0.71285 -1.5961,1.41679 -4.031,3.57052 -8.5343,7.78469 -11.4555,10.72008 l -1.96,1.96952 -1.682,0 -1.6819,0 0.2431,-0.35767 0,0 z"
         style="fill:#d38d5f;fill-opacity:1;stroke:none" />
      <path
         transform="translate(0,552.36218)"
         inkscape:connector-curvature="0"
         id="path4775"
         d="m 1172.9165,204.325 c 0,-0.0232 3.6449,-3.22936 8.0998,-7.12474 l 8.0999,-7.08251 1.2768,0.0289 1.2768,0.0289 -7.3883,7.09584 -7.3883,7.09584 -1.9884,0 c -1.0936,0 -1.9883,-0.019 -1.9883,-0.0422 z"
         style="fill:#d38d5f;fill-opacity:1;stroke:none" />
      <path
         transform="translate(0,552.36218)"
         inkscape:connector-curvature="0"
         id="path4777"
         d="m 1183.9114,204.27337 c 0.112,-0.10839 1.8988,-1.69259 3.9708,-3.52045 2.2638,-1.99708 3.9481,-3.40574 4.2203,-3.52975 1.8324,-0.83474 3.2141,2.09265 1.7987,3.8108 -0.1031,0.12516 -1.0932,0.94806 -2.2001,1.82867 l -2.0127,1.60112 -2.9902,0.003 c -2.9453,0.003 -2.9873,3.7e-4 -2.7868,-0.19373 l 0,0 z"
         style="fill:#d38d5f;fill-opacity:1;stroke:none" />
      <path
         transform="translate(0,552.36218)"
         inkscape:connector-curvature="0"
         id="path4779"
         d="m 1160.7409,207.39471 c 0,-0.0385 0.3524,-0.59391 0.783,-1.23432 l 0.7829,-1.16436 1.5746,0 1.5746,0 -0.6471,0.68425 c -0.3559,0.37634 -0.7883,0.93134 -0.9608,1.23332 l -0.3137,0.54906 -1.3967,0.001 c -0.7682,5.5e-4 -1.3968,-0.0305 -1.3968,-0.069 z"
         style="fill:#b8da6b;fill-opacity:1;stroke:none" />
      <path
         transform="translate(0,552.36218)"
         inkscape:connector-curvature="0"
         id="path4781"
         d="m 1170.7049,206.23226 1.4047,-1.2324 2.0488,-0.002 2.0489,-0.002 -1.2693,1.22967 -1.2692,1.22967 -2.1843,0.005 -2.1843,0.005 1.4047,-1.2324 z"
         style="fill:#b8da6b;fill-opacity:1;stroke:none" />
      <path
         transform="translate(0,552.36218)"
         inkscape:connector-curvature="0"
         id="path4783"
         d="m 1180.4315,207.35017 c 0.068,-0.063 0.6946,-0.61842 1.3926,-1.23432 l 1.2692,-1.11982 2.9418,0 2.9418,0 -1.5474,1.22855 -1.5475,1.22855 -2.7869,0.006 c -1.6139,0.003 -2.735,-0.0424 -2.6636,-0.10872 l 0,0 z"
         style="fill:#b8da6b;fill-opacity:1;stroke:none" />
      <path
         transform="translate(0,552.36218)"
         inkscape:connector-curvature="0"
         id="path4785"
         d="m 1105.6764,207.01845 c -0.2155,-0.24542 -0.4294,-0.56478 -0.4754,-0.7097 -0.1794,-0.5651 0.4517,-1.06377 1.0899,-0.86122 0.1476,0.0469 0.7219,0.51749 1.2762,1.04587 l 1.0078,0.96068 -1.2534,0.005 -1.2533,0.005 -0.3918,-0.44621 z"
         style="fill:#b8da6b;fill-opacity:1;stroke:none" />
      <path
         transform="translate(0,552.36218)"
         inkscape:connector-curvature="0"
         id="path4787"
         d="m 1155.7827,214.80928 4.4501,-6.6876 1.5267,-0.004 1.5266,-0.004 0,0.45892 c 0,1.01273 0.5743,1.7484 1.4664,1.87834 0.8218,0.11971 1.2099,-0.0702 2.5614,-1.25317 l 1.2343,-1.08044 2.2074,-0.002 2.2073,-0.002 -0.7132,0.69713 c -0.3922,0.38342 -2.3502,2.2596 -4.3511,4.16928 -2.0009,1.90968 -3.9103,3.76431 -4.243,4.1214 -1.3417,1.4397 -1.8315,3.10965 -1.1734,3.99986 l 0.292,0.39491 -5.7209,0 -5.7208,0 4.4502,-6.6876 z"
         style="fill:#c6a2c1;fill-opacity:1;stroke:none" />
      <path
         transform="translate(0,552.36218)"
         inkscape:connector-curvature="0"
         id="path4789"
         d="m 1113.7372,214.76878 c -6.8342,-6.56263 -6.9873,-6.72047 -6.5613,-6.76308 0.2398,-0.024 0.7928,-0.006 1.2288,0.0408 l 0.7927,0.0844 6.7431,6.676 6.7431,6.67601 -0.9744,0.003 -0.9745,0.003 -6.9975,-6.71945 0,0 z"
         style="fill:#c6a2c1;fill-opacity:1;stroke:none" />
      <path
         transform="translate(0,552.36218)"
         inkscape:connector-curvature="0"
         id="path4791"
         d="m 1164.6653,221.20454 c 0.2062,-0.16078 3.6415,-3.17187 7.6342,-6.69129 l 7.2593,-6.39895 2.7226,0 2.7226,0 -0.3672,0.30404 c -0.202,0.16722 -4.007,3.1783 -8.4555,6.69129 l -8.0882,6.38725 -1.9013,0 -1.9013,0 0.3748,-0.29234 0,0 z"
         style="fill:#c6a2c1;fill-opacity:1;stroke:none" />
      <path
         transform="translate(0,552.36218)"
         inkscape:connector-curvature="0"
         id="path4793"
         d="m 1182.8853,218.26104 c 5.3509,-3.31569 5.8042,-3.54305 7.0597,-3.54128 1.3978,0.002 2.3151,0.8752 2.3151,2.20397 0,1.12304 -0.2334,1.32875 -3.447,3.03863 l -2.8545,1.51879 -4.1477,0.008 -4.1476,0.008 5.222,-3.23584 z"
         style="fill:#ff2a7f;fill-opacity:1;stroke:none" />
      <path
         transform="translate(0,552.36218)"
         inkscape:connector-curvature="0"
         id="path4795"
         d="m 1153.4452,218.45039 c 1.4331,-2.17989 6.3935,-9.65699 6.742,-10.16248 0.01,-0.0117 0.7016,-0.0635 1.5413,-0.11511 l 1.5267,-0.0938 0,0.58313 c 0,1.06913 0.7866,1.83421 1.8858,1.83421 0.6258,0 0.9393,-0.18641 2.4151,-1.43577 l 1.1178,-0.94624 2.0655,0.001 2.0655,0.001 -1.6241,1.59278 c -0.8933,0.87603 -3.0982,3.02411 -4.8999,4.77351 -3.0111,2.92368 -3.3097,3.25381 -3.6955,4.08497 -0.4801,1.0345 -0.5519,1.91656 -0.1998,2.45399 0.121,0.18457 0.2199,0.36687 0.2199,0.40511 0,0.0383 -2.5117,0.0695 -5.5815,0.0695 l -5.5816,0 2.0028,-3.04649 z"
         style="fill:#ff2a7f;fill-opacity:1;stroke:none" />
      <path
         transform="translate(0,552.36218)"
         inkscape:connector-curvature="0"
         id="path4797"
         d="m 1169.0691,217.42939 c 2.5549,-2.23711 5.9823,-5.24819 7.6166,-6.69129 l 2.9713,-2.6238 2.6109,0 c 2.1983,0 2.5809,0.0277 2.4207,0.17525 -0.1046,0.0964 -3.4352,2.73633 -7.4012,5.86653 -3.9661,3.1302 -7.6788,6.06209 -8.2504,6.51532 l -1.0395,0.82405 -1.7868,7.8e-4 -1.7868,6.5e-4 4.6452,-4.06749 z"
         style="fill:#ff2a7f;fill-opacity:1;stroke:none" />
      <path
         transform="translate(0,552.36218)"
         inkscape:connector-curvature="0"
         id="path4799"
         d="m 1116.8199,217.64047 c -2.1327,-2.04957 -5.1932,-5.0168 -6.8011,-6.59385 l -2.9233,-2.86736 0.9517,-0.0384 0.9517,-0.0384 2.4264,2.3361 c 1.3345,1.28486 4.3555,4.26936 6.7133,6.63222 l 4.2869,4.29611 -0.8639,0 -0.864,0 -3.8777,-3.72648 0,0 z"
         style="fill:#ff2a7f;fill-opacity:1;stroke:none" />
      <path
         transform="translate(0,552.36218)"
         inkscape:connector-curvature="0"
         id="path4803"
         d="m 1122.3857,223.08891 -1.0366,-1.01166 1.0162,-0.003 1.0163,-0.003 1.0115,1.01466 1.0115,1.01466 -0.9912,0 -0.9912,0 -1.0365,-1.01166 z"
         style="fill:#ff8800;fill-opacity:1;stroke:none" />
      <path
         transform="translate(0,552.36218)"
         inkscape:connector-curvature="0"
         id="path4805"
         d="m 1149.68,223.98527 c 0.038,-0.0634 0.3306,-0.52001 0.6496,-1.01466 l 0.5801,-0.89936 3.5758,0.0129 c 1.9667,0.007 5.6391,0.0382 8.1609,0.0692 l 4.5851,0.0563 -1.1974,0.94547 -1.1974,0.94548 -7.6132,0 c -6.0662,0 -7.599,-0.0234 -7.5435,-0.1153 z"
         style="fill:#ff8800;fill-opacity:1;stroke:none" />
      <path
         transform="translate(0,552.36218)"
         inkscape:connector-curvature="0"
         id="path4807"
         d="m 1173.3351,224.15981 c 0.021,-0.0181 0.7514,-0.47518 1.6228,-1.01563 l 1.5844,-0.98263 4.0199,0.024 4.02,0.024 -1.8803,0.9916 -1.8802,0.9916 -3.7625,0 c -2.0694,0 -3.7453,-0.0149 -3.7241,-0.033 z"
         style="fill:#ff8800;fill-opacity:1;stroke:none" />
      <path
         transform="translate(0,552.36218)"
         inkscape:connector-curvature="0"
         id="path4809"
         d="m 1136.7502,239.20518 c -0.1002,-0.4691 -0.6509,-1.53497 -1.1176,-2.16308 l -0.425,-0.57192 -1.2257,0.0554 c -1.4208,0.0642 -2.3516,-0.0538 -3.3104,-0.41992 -0.8132,-0.31047 -1.6004,-1.01237 -1.9626,-1.74983 -0.2461,-0.50111 -0.2571,-0.58156 -0.2544,-1.86126 0,-1.14347 0.038,-1.46716 0.2424,-2.23127 l 0.2396,-0.89376 -2.3963,-2.28858 -2.3963,-2.28858 0.9505,-0.0265 0.9505,-0.0265 1.8491,1.84611 1.8491,1.8461 0.7302,-0.22602 c 1.7035,-0.5273 2.9231,-0.51008 4.0761,0.0575 1.4894,0.73323 2.6739,2.80636 2.4943,4.3657 l -0.054,0.46533 0.4813,0.40592 c 1.6024,1.35157 3.4448,1.3446 5.2422,-0.0198 1.0139,-0.7697 1.7934,-1.7633 4.1447,-5.2833 l 2.3051,-3.45068 7.3776,0 c 4.0578,0 7.3777,0.0177 7.3777,0.0394 0,0.0217 -1.1573,0.95399 -2.5718,2.07185 -1.4144,1.11786 -2.7485,2.23125 -2.9645,2.47421 -0.9757,1.0975 -1.0394,2.35402 -0.1529,3.01487 0.2081,0.15511 0.3935,0.19413 0.9225,0.19413 l 0.6619,0 6.2853,-3.89829 6.2852,-3.89829 3.6469,0.0241 3.647,0.0241 -11.1176,5.85139 c -6.1146,3.21827 -11.2227,5.93417 -11.3513,6.03533 -0.4126,0.3245 -0.7623,0.9754 -0.7623,1.41875 0,0.84645 0.4647,1.22262 1.5103,1.22262 0.5798,0 1.249,-0.2467 15.4366,-5.6906 l 14.8304,-5.6906 1.1069,-0.005 c 1.0048,-0.005 1.1541,0.0171 1.6185,0.2346 1.1007,0.51552 1.5901,1.23494 1.5798,2.32241 -0.01,1.07837 -0.6631,2.13475 -1.6522,2.67313 -0.253,0.13766 -4.8641,1.55518 -10.706,3.29117 l -10.2617,3.04937 -16.5477,0 -16.5477,0 -0.064,-0.29979 z"
         style="fill:#449900;fill-opacity:1;stroke:none" />
      <path
         transform="translate(0,552.36218)"
         inkscape:connector-curvature="0"
         id="path4813"
         d="m 1136.9723,241.11073 0,-0.99315 15.3276,0.0104 c 8.4302,0.006 15.268,0.0341 15.1952,0.063 -0.073,0.0289 -1.5406,0.47114 -3.2616,0.9827 l -3.1291,0.93011 -12.0661,0 -12.066,0 0,-0.99315 z"
         style="fill:#fde327;fill-opacity:1;stroke:none" />
      <path
         transform="translate(0,552.36218)"
         inkscape:connector-curvature="0"
         id="path4815"
         d="m 1129.0219,255.4193 c 0,-0.0324 0.6752,-1.03056 1.5004,-2.21803 4.87,-7.0081 5.5523,-8.0717 5.9281,-9.24025 l 0.363,-1.12883 10.9684,-0.0243 c 9.668,-0.0214 10.8978,-0.002 10.3725,0.16472 -1.4199,0.45036 -2.2538,1.25272 -2.2482,2.1634 0.01,1.05778 0.2941,1.38568 4.3186,4.92188 2.1022,1.84725 4.3432,3.82254 4.9798,4.38952 l 1.1576,1.03087 -18.6701,0 c -10.2685,0 -18.6701,-0.0265 -18.6701,-0.059 z"
         style="fill:#8d5fd3;fill-opacity:1;stroke:none" />
      <path
         transform="translate(0,552.36218)"
         inkscape:connector-curvature="0"
         id="path4817"
         d="m 1127.8301,257.13354 0.6702,-0.99315 19.3248,0 19.3247,0 1.0639,0.93903 c 0.5851,0.51646 1.0639,0.96337 1.0639,0.99315 0,0.0298 -9.4765,0.0541 -21.0588,0.0541 l -21.0588,0 0.6701,-0.99315 z"
         style="fill:#ffcccc;fill-opacity:1;stroke:none" />
      <path
         transform="translate(0,552.36218)"
         inkscape:connector-curvature="0"
         id="path4823"
         d="m 1117.6797,275.6017 c 0.091,-0.252 0.255,-0.68726 0.3632,-0.96726 l 0.1968,-0.50908 1.4051,-0.0184 1.4051,-0.0184 -0.048,0.15411 c -0.026,0.0848 -0.1672,0.5283 -0.3129,0.98562 l -0.265,0.8315 -1.4554,0 -1.4554,0 0.1666,-0.45817 z"
         style="fill:#00ccff;fill-opacity:1;stroke:none" />
      <path
         transform="translate(0,552.36218)"
         inkscape:connector-curvature="0"
         id="path4825"
         d="m 1123.9862,275.94109 c 0.1127,-0.36408 0.2439,-1.16071 0.2439,-1.48078 l 0,-0.36889 1.4594,0 c 0.8026,0 1.4593,0.009 1.4593,0.0205 0,0.0113 -0.076,0.44653 -0.1694,0.96726 -0.093,0.52073 -0.1695,0.95442 -0.1697,0.96376 -10e-5,0.009 -0.6438,0.017 -1.4303,0.017 -1.3306,0 -1.4274,-0.008 -1.3932,-0.11878 z"
         style="fill:#00ccff;fill-opacity:1;stroke:none" />
      <path
         transform="translate(0,552.36218)"
         inkscape:connector-curvature="0"
         id="path4827"
         d="m 1130.5685,275.73746 c 0.021,-0.17734 0.058,-0.62328 0.083,-0.991 l 0.044,-0.66858 0.2036,0.0407 c 0.1119,0.0224 0.6884,0.0407 1.2811,0.0407 l 1.0775,0 0,0.95029 0,0.95028 -1.3639,0 -1.3639,0 0.039,-0.32241 z"
         style="fill:#00ccff;fill-opacity:1;stroke:none" />
      <path
         transform="translate(0,552.36218)"
         inkscape:connector-curvature="0"
         id="path4829"
         d="m 1137.5341,275.10959 0,-0.95029 1.5273,0 1.5272,0 0,0.22701 c 0,0.12486 0.02,0.55249 0.044,0.95029 l 0.044,0.72327 -1.5715,0 -1.5715,0 0,-0.95028 z"
         style="fill:#00ccff;fill-opacity:1;stroke:none" />
      <path
         transform="translate(0,552.36218)"
         inkscape:connector-curvature="0"
         id="path4831"
         d="m 1144.6613,276.07426 c 0,-0.0294 -0.046,-0.41886 -0.1013,-0.86544 -0.056,-0.44657 -0.1015,-0.8654 -0.1018,-0.93074 -5e-4,-0.11026 0.1334,-0.11878 1.8661,-0.11878 l 1.8666,0 0,0.98423 0,0.98422 -1.7648,0 c -0.9706,0 -1.7648,-0.0241 -1.7648,-0.0535 z"
         style="fill:#00ccff;fill-opacity:1;stroke:none" />
      <path
         transform="translate(0,552.36218)"
         inkscape:connector-curvature="0"
         id="path4833"
         d="m 1163.9798,275.63564 c -0.1564,-0.27066 -0.4021,-0.69599 -0.546,-0.94516 -0.1439,-0.24918 -0.2616,-0.47063 -0.2616,-0.49212 0,-0.0215 2.1305,-0.0367 4.7345,-0.0339 l 4.7345,0.005 -0.8825,0.30022 c -0.4853,0.16512 -0.9261,0.31669 -0.9796,0.33681 -0.069,0.0261 0.019,0.15768 0.3068,0.45821 0.2222,0.23188 0.4932,0.52088 0.6021,0.64221 l 0.198,0.2206 -0.8222,0 -0.8222,0 -0.4592,-0.5795 c -0.5307,-0.66964 -0.354,-0.64725 -1.7077,-0.21637 l -0.901,0.28679 0.1738,0.25454 0.1738,0.25454 -0.3588,-1.2e-4 c -0.3513,-1.2e-4 -0.3629,-0.007 -0.5516,-0.3052 -0.106,-0.16779 -0.222,-0.32316 -0.2577,-0.34527 -0.036,-0.0221 -0.5033,0.11523 -1.0389,0.3052 -0.5356,0.18997 -0.9909,0.34539 -1.0119,0.34539 -0.021,0 -0.1661,-0.22145 -0.3226,-0.49211 z"
         style="fill:#00ccff;fill-opacity:1;stroke:none" />
      <path
         transform="translate(0,552.36218)"
         inkscape:connector-curvature="0"
         id="path4835"
         d="m 1173.7611,275.14353 -0.9824,-0.98423 0.61,0.003 0.61,0.003 1.1057,0.98137 1.1056,0.98136 -0.7332,0 -0.7332,0 -0.9825,-0.98422 z"
         style="fill:#00ccff;fill-opacity:1;stroke:none" />
      <path
         transform="translate(0,552.36218)"
         inkscape:connector-curvature="0"
         id="path4837"
         d="m 1178.178,275.15669 -1.183,-0.96345 0.7867,-0.0191 0.7867,-0.0191 1.2788,0.92614 c 0.7032,0.50938 1.3077,0.95323 1.3432,0.98633 0.038,0.0352 -0.3288,0.0586 -0.8825,0.0564 l -0.9468,-0.004 -1.1831,-0.96346 z"
         style="fill:#00ccff;fill-opacity:1;stroke:none" />
      <path
         transform="translate(0,552.36218)"
         inkscape:connector-curvature="0"
         id="path4839"
         d="m 1183.7183,275.1565 -1.4124,-0.96326 0.9948,-0.0188 0.9947,-0.0188 1.5376,0.92874 c 0.8457,0.51081 1.5666,0.95455 1.6021,0.98608 0.036,0.0315 -0.4685,0.0556 -1.12,0.0534 l -1.1844,-0.004 -1.4124,-0.96327 z"
         style="fill:#00ccff;fill-opacity:1;stroke:none" />
      <path
         transform="translate(0,552.36218)"
         inkscape:connector-curvature="0"
         id="path4841"
         d="m 1190.8358,275.1582 -1.8294,-0.96496 2.7164,-0.0177 2.7163,-0.0177 1.9978,0.9812 1.9978,0.9812 -2.8848,0.002 -2.8848,0.001 -1.8293,-0.96497 z"
         style="fill:#00ccff;fill-opacity:1;stroke:none" />
      <path
         transform="translate(0,552.36218)"
         inkscape:connector-curvature="0"
         id="path4865"
         d="m 1168.9729,284.38548 c -2.2921,-3.99121 -4.2274,-7.36203 -4.3007,-7.49071 l -0.1332,-0.23397 0.1387,0 0.1388,0 4.4546,7.46828 c 2.4501,4.10756 4.4547,7.47838 4.4547,7.49072 0,0.0123 -0.1317,0.0224 -0.2927,0.0224 l -0.2927,0 -4.1675,-7.25674 z"
         style="fill:#93aca7;fill-opacity:1;stroke:none" />
      <path
         transform="translate(0,552.36218)"
         inkscape:connector-curvature="0"
         id="path4867"
         d="m 1197.0652,284.16 -11.1038,-7.47907 1.2447,-0.0106 1.2446,-0.0106 12.2553,7.44354 c 6.7405,4.09394 12.2916,7.46447 12.3359,7.49005 0.062,0.0356 -0.5038,0.0464 -2.3962,0.0462 l -2.4768,-3.6e-4 -11.1037,-7.47907 0,10e-6 z"
         style="fill:#93aca7;fill-opacity:1;stroke:none" />
      <path
         transform="translate(0,552.36218)"
         inkscape:connector-curvature="0"
         id="path4869"
         d="m 1189.2717,284.15952 -9.2317,-7.47859 1.0041,-0.0107 1.0042,-0.0108 10.2815,7.45446 c 5.6548,4.09995 10.2987,7.47108 10.3197,7.4914 0.023,0.0224 -0.7838,0.0361 -2.0539,0.0349 l -2.0921,-0.002 -9.2318,-7.4786 z"
         style="fill:#93aca7;fill-opacity:1;stroke:none" />
      <path
         transform="translate(0,552.36218)"
         inkscape:connector-curvature="0"
         id="path4871"
         d="m 1186.2605,287.68544 c -2.1707,-2.17624 -5.5323,-5.54706 -7.4704,-7.49072 l -3.5238,-3.53392 0.7866,0 0.7866,0 7.8115,6.89217 c 4.2964,3.79069 8.1162,7.16151 8.4885,7.49071 l 0.6768,0.59854 -1.8046,0 -1.8046,0 -3.9466,-3.95678 z"
         style="fill:#93aca7;fill-opacity:1;stroke:none" />
      <path
         transform="translate(0,552.36218)"
         inkscape:connector-curvature="0"
         id="path4873"
         d="m 1172.4988,284.40321 c -2.7428,-3.98145 -5.0663,-7.35295 -5.1634,-7.49222 l -0.1764,-0.25321 0.3835,0.0116 0.3835,0.0116 4.9818,7.16854 c 2.74,3.94269 5.0806,7.30898 5.2012,7.48064 l 0.2194,0.31211 -0.4214,0 -0.4214,0 -4.9868,-7.23901 0,0 z"
         style="fill:#93aca7;fill-opacity:1;stroke:none" />
      <path
         transform="translate(0,552.36218)"
         inkscape:connector-curvature="0"
         id="path4875"
         d="m 1176.644,284.18428 c -3.2741,-4.10187 -5.9589,-7.47269 -5.9662,-7.49071 -0.01,-0.018 0.3822,-0.0324 0.8658,-0.0319 l 0.8793,8.5e-4 6.7859,7.28999 c 3.7323,4.00949 6.8646,7.37993 6.9608,7.48986 l 0.1748,0.19987 -1.8738,0 -1.8738,0 -5.9528,-7.45794 z"
         style="fill:#93aca7;fill-opacity:1;stroke:none" />
      <path
         transform="translate(0,552.36218)"
         inkscape:connector-curvature="0"
         id="path4877"
         d="m 1207.9358,284.17128 c -7.8054,-4.10735 -14.1992,-7.47552 -14.2085,-7.48483 -0.01,-0.009 1.3206,-0.008 2.9555,0.002 l 2.9725,0.0194 13.8739,6.83999 c 7.6307,3.76199 14.4448,7.12201 15.1425,7.46671 l 1.2686,0.62672 -3.9064,-0.001 -3.9065,-10e-4 -14.1916,-7.4679 0,0 z"
         style="fill:#93aca7;fill-opacity:1;stroke:none" />
      <path
         transform="translate(0,552.36218)"
         inkscape:connector-curvature="0"
         id="path4879"
         d="m 1122.4044,290.50898 c 0.1063,-3.68398 0.4481,-7.71594 0.9221,-10.87487 0.1398,-0.93111 0.4523,-2.76291 0.498,-2.91844 0.022,-0.0759 0.1326,-0.0821 1.4519,-0.0821 0.9625,0 1.4278,0.016 1.4278,0.0491 0,0.027 -0.062,0.45452 -0.1385,0.95005 -0.317,2.0617 -0.6858,5.06776 -0.9624,7.84454 -0.1541,1.54723 -0.5412,5.86919 -0.5412,6.04271 0,0.0733 -0.1098,0.0798 -1.3445,0.0798 l -1.3446,0 0.031,-1.0908 0,0 z"
         style="fill:#93aca7;fill-opacity:1;stroke:none" />
      <path
         transform="translate(0,552.36218)"
         inkscape:connector-curvature="0"
         id="path4881"
         d="m 1115.0435,291.23618 c 0.013,-0.19998 0.035,-0.98641 0.05,-1.74762 0.047,-2.49835 0.1496,-4.41347 0.279,-5.21339 0.357,-2.20622 0.8914,-4.40628 1.654,-6.80885 l 0.2643,-0.83276 1.4898,0 1.4899,0 -0.094,0.31669 c -0.1967,0.66426 -0.6504,2.56119 -0.8332,3.48351 -0.499,2.51845 -0.7465,4.81526 -0.8495,7.88189 -0.026,0.78702 -0.068,1.74763 -0.093,2.13468 -0.025,0.38706 -0.045,0.80403 -0.046,0.9266 l 0,0.22285 -1.6666,0 -1.6666,0 0.024,-0.3636 0,0 z"
         style="fill:#93aca7;fill-opacity:1;stroke:none" />
      <path
         transform="translate(0,552.36218)"
         inkscape:connector-curvature="0"
         id="path4883"
         d="m 1129.4506,291.35347 c 0.014,-0.13547 0.2461,-3.37092 0.515,-7.18988 0.2689,-3.81897 0.5018,-7.07553 0.5176,-7.2368 l 0.029,-0.29323 1.3639,0 1.364,0 -0.032,1.9822 c -0.082,4.98562 -0.2317,9.11025 -0.4291,11.78164 -0.038,0.51277 -0.069,0.99308 -0.069,1.06734 l 0,0.13504 -1.6424,0 -1.6425,0 0.026,-0.24631 0,0 z"
         style="fill:#93aca7;fill-opacity:1;stroke:none" />
      <path
         transform="translate(0,552.36218)"
         inkscape:connector-curvature="0"
         id="path4885"
         d="m 1137.4637,287.34215 c 0.017,-2.3417 0.031,-5.7091 0.031,-7.48311 l 10e-5,-3.22548 1.6186,0 1.6186,0 0,0.11799 c 0,0.0649 0.1794,3.3587 0.3988,7.31958 0.2193,3.96088 0.3988,7.27518 0.3988,7.36512 l 0,0.16353 -2.0486,0 -2.0486,0 0.031,-4.25763 z"
         style="fill:#93aca7;fill-opacity:1;stroke:none" />
      <path
         transform="translate(0,552.36218)"
         inkscape:connector-curvature="0"
         id="path4887"
         d="m 1145.8928,287.15283 c 0,-0.0261 -0.2639,-2.38341 -0.5864,-5.23841 -0.3226,-2.855 -0.5865,-5.21114 -0.5865,-5.23588 0,-0.0279 0.6683,-0.045 1.7594,-0.045 l 1.7593,0 0,0.24631 c 9e-4,0.13547 0.041,1.74528 0.088,3.57735 0.055,2.1219 0.072,3.50985 0.047,3.82366 -0.1379,1.72183 -0.8894,2.68059 -2.2626,2.88651 -0.1386,0.0208 -0.2196,0.0154 -0.2196,-0.0146 z"
         style="fill:#93aca7;fill-opacity:1;stroke:none" />
      <path
         transform="translate(0,552.36218)"
         inkscape:connector-curvature="0"
         id="path4889"
         d="m 1118.6322,273.15005 c 0.9616,-2.30897 2.3141,-4.99971 3.8836,-7.72616 1.0711,-1.86077 2.7981,-4.63682 4.0443,-6.50113 l 0.1568,-0.23458 10.5146,0.0164 c 5.783,0.009 10.5242,0.0257 10.5359,0.037 0.021,0.0201 0.37,13.3963 0.375,14.3615 l 0,0.48089 -1.8896,0 -1.8897,0 -0.5749,-5.14903 c -0.3162,-2.83197 -0.5869,-5.2644 -0.6015,-5.4054 -0.086,-0.82264 -0.5464,-1.5726 -1.1528,-1.87562 -0.2363,-0.11809 -0.3439,-0.14345 -0.6085,-0.14345 -0.754,0 -1.2255,0.50286 -1.3928,1.48545 -0.071,0.41644 -0.065,0.58392 0.1973,5.37189 0.1488,2.71812 0.2829,5.11622 0.2982,5.3291 l 0.028,0.38706 -1.52,0 -1.52,10e-6 0,-3.64773 0,-3.64772 -0.1375,-0.27167 c -0.4821,-0.95202 -1.7814,-1.21654 -2.7099,-0.55169 -0.339,0.24282 -0.6106,0.58658 -0.8355,1.05754 -0.3878,0.81249 -0.4394,1.30503 -0.4907,4.692 -0.016,1.03215 -0.04,1.98748 -0.054,2.12295 l -0.025,0.24631 -1.2686,0 -1.2686,0 0.04,-0.62164 c 0.064,-0.99089 0.047,-1.4672 -0.067,-1.84209 -0.2318,-0.76296 -0.7478,-1.20883 -1.3934,-1.20404 -0.3757,0.003 -0.6817,0.14364 -0.9968,0.45866 -0.4542,0.45426 -0.7276,1.19399 -0.9563,2.58747 l -0.102,0.62164 -1.5767,-0.002 -1.5767,-0.002 -0.1642,-0.24272 c -0.095,-0.13988 -0.2598,-0.30183 -0.3899,-0.3822 -0.3156,-0.19492 -0.8646,-0.2278 -1.3129,-0.0786 -0.3338,0.11111 -0.7711,0.39795 -0.8951,0.58724 l -0.078,0.11971 -1.4042,0 -1.4041,0 0.1807,-0.43397 0,0 z"
         style="fill:#0255d4;fill-opacity:1;stroke:none" />
      <path
         transform="translate(0,552.36218)"
         inkscape:connector-curvature="0"
         id="path4891"
         d="m 1162.5942,273.23684 c -0.1105,-0.19095 -1.2144,-2.12945 -2.453,-4.30778 l -2.2519,-3.9606 -4.7427,-3.11668 -4.7428,-3.11668 10.8625,-0.0118 10.8625,-0.0118 0.2139,0.18638 c 0.1176,0.10251 1.5811,1.16976 3.252,2.37166 3.0212,2.17309 3.0731,2.20782 9.3129,6.22656 l 6.2747,4.04128 2.0643,1.02179 2.0643,1.02179 -2.7446,6.5e-4 -2.7446,6.5e-4 -1.8274,-0.96087 c -1.005,-0.52848 -1.8603,-0.96087 -1.9006,-0.96087 -0.062,0 -1.9524,0.69724 -2.2957,0.84664 -0.1037,0.0452 -0.049,0.087 0.7156,0.55116 l 0.8278,0.5023 -0.9858,0.0127 -0.9857,0.0127 -0.4209,-0.28302 -0.4209,-0.28303 -1.1255,0.28209 -1.1254,0.28209 -7.741,0 -7.741,0 -0.201,-0.34718 0,0 z"
         style="fill:#0055d4;fill-opacity:1;stroke:none" />
      <path
         transform="translate(0,552.36218)"
         inkscape:connector-curvature="0"
         id="path4901"
         d="m 1115.018,293.99415 c -0.01,-0.0358 -0.01,-0.46988 0,-0.96473 l 0.017,-0.89971 1.6574,0 1.6575,0 -0.016,0.52345 c -0.01,0.2879 -0.016,0.72202 -0.016,0.96472 l 0,0.44127 -1.6423,0 -1.6423,0 -0.016,-0.065 z"
         style="fill:#ffdea9;fill-opacity:1;stroke:none" />
      <path
         transform="translate(0,552.36218)"
         inkscape:connector-curvature="0"
         id="path4903"
         d="m 1122.3098,293.37294 c 0.01,-0.37767 0.016,-0.81189 0.016,-0.96495 l 10e-5,-0.27828 1.3477,0 1.3478,0 -0.014,0.14223 c -0.01,0.0782 -0.044,0.50957 -0.081,0.95854 l -0.066,0.8163 -1.2833,0.006 -1.2833,0.006 0.016,-0.68666 z"
         style="fill:#ffdea9;fill-opacity:1;stroke:none" />
      <path
         transform="translate(0,552.36218)"
         inkscape:connector-curvature="0"
         id="path4905"
         d="m 1129.2564,293.97876 c 0.01,-0.0442 0.033,-0.42547 0.061,-0.84723 0.027,-0.42175 0.056,-0.81414 0.063,-0.87196 l 0.014,-0.10513 1.6262,0 1.6262,0 -0.032,0.36486 c -0.035,0.39651 -0.1487,1.39434 -0.1689,1.48419 l -0.012,0.0557 -1.5935,0 -1.5935,0 0.011,-0.0804 z"
         style="fill:#ffdea9;fill-opacity:1;stroke:none" />
      <path
         transform="translate(0,552.36218)"
         inkscape:connector-curvature="0"
         id="path4907"
         d="m 1137.4287,293.52113 c 0.01,-0.29591 0.016,-0.72447 0.016,-0.95235 l 0,-0.41434 2.0633,0 2.0633,0 -0.035,0.1546 c -0.1412,0.62323 -0.5396,1.24403 -1.0533,1.64151 l -0.1404,0.1086 -1.4652,0 -1.4653,0 0.016,-0.53802 z"
         style="fill:#ffdea9;fill-opacity:1;stroke:none" />
      <path
         transform="translate(0,552.36218)"
         inkscape:connector-curvature="0"
         id="path4909"
         d="m 1173.9905,293.14082 c -0.2978,-0.51869 -0.5452,-0.95281 -0.5497,-0.96472 0,-0.0119 0.135,-0.0217 0.31,-0.0217 l 0.3183,0 0.5417,0.90907 c 0.298,0.49998 0.5577,0.93411 0.5772,0.96472 l 0.035,0.0557 -0.3458,0 -0.3457,0 -0.5414,-0.94307 z"
         style="fill:#ffdea9;fill-opacity:1;stroke:none" />
      <path
         transform="translate(0,552.36218)"
         inkscape:connector-curvature="0"
         id="path4911"
         d="m 1178.5146,293.15008 c -0.3531,-0.51359 -0.6501,-0.94771 -0.6599,-0.96472 -0.014,-0.0242 0.075,-0.0309 0.4103,-0.0307 l 0.4282,1.9e-4 0.6555,0.94312 c 0.3605,0.51872 0.6592,0.95276 0.6638,0.96453 0,0.0118 -0.1862,0.0214 -0.4239,0.0214 l -0.4321,0 -0.6419,-0.93381 z"
         style="fill:#ffdea9;fill-opacity:1;stroke:none" />
      <path
         transform="translate(0,552.36218)"
         inkscape:connector-curvature="0"
         id="path4913"
         d="m 1183.7868,293.14973 c -0.4093,-0.51339 -0.7523,-0.94736 -0.7621,-0.96437 -0.014,-0.0246 0.3738,-0.0308 1.9068,-0.0303 l 1.9247,6.1e-4 0.8782,0.94411 c 0.4829,0.51927 0.8818,0.95312 0.8864,0.96412 0,0.011 -0.9138,0.0198 -2.0408,0.0196 l -2.049,-3.5e-4 -0.7442,-0.93345 z"
         style="fill:#ffdea9;fill-opacity:1;stroke:none" />
      <path
         transform="translate(0,552.36218)"
         inkscape:connector-curvature="0"
         id="path4915"
         d="m 1191.6714,293.11835 -0.9485,-0.96391 1.8467,0 1.8467,0 1.0436,0.91889 c 0.574,0.50538 1.0655,0.93951 1.0923,0.96472 0.048,0.0446 0,0.0458 -1.9418,0.045 l -1.9906,-8.1e-4 -0.9484,-0.96391 z"
         style="fill:#ffdea9;fill-opacity:1;stroke:none" />
      <path
         transform="translate(0,552.36218)"
         inkscape:connector-curvature="0"
         id="path4917"
         d="m 1203.2936,294.08421 -1.7934,-0.0127 -1.1829,-0.95854 -1.183,-0.95854 2.15,0 2.15,0 1.3334,0.96695 c 0.7334,0.53182 1.3381,0.97152 1.3438,0.97709 0.01,0.006 -0.2225,0.007 -0.5071,0.004 -0.2846,-0.003 -1.3244,-0.0116 -2.3108,-0.0186 z"
         style="fill:#ffdea9;fill-opacity:1;stroke:none" />
      <path
         transform="translate(0,552.36218)"
         inkscape:connector-curvature="0"
         id="path4919"
         d="m 1210.4092,293.15688 c -0.7733,-0.52211 -1.4124,-0.95569 -1.4202,-0.9635 -0.01,-0.008 1.121,-0.0142 2.5085,-0.0142 l 2.5228,0 1.5654,0.95079 c 0.861,0.52293 1.5717,0.95706 1.5794,0.96472 0.01,0.008 -1.1929,0.0134 -2.6679,0.0127 l -2.6819,-0.001 -1.4061,-0.9493 z"
         style="fill:#ffdea9;fill-opacity:1;stroke:none" />
      <path
         transform="translate(0,552.36218)"
         inkscape:connector-curvature="0"
         id="path4921"
         d="m 1224.9842,293.14897 -1.8164,-0.95742 3.9469,-0.006 3.9469,-0.006 1.8154,0.89677 c 0.9984,0.49322 1.8764,0.92671 1.951,0.96329 l 0.1357,0.0665 -4.0815,3.9e-4 -4.0815,3.9e-4 -1.8165,-0.95742 0,0 z"
         style="fill:#ffdea9;fill-opacity:1;stroke:none" />
      <path
         transform="translate(0,552.36218)"
         inkscape:connector-curvature="0"
         id="path4927"
         d="m 1115.6089,310.59109 c -0.028,-1.02155 -0.1295,-3.33836 -0.2592,-5.94543 -0.1915,-3.84848 -0.314,-7.38892 -0.3146,-9.09221 l -3e-4,-0.97312 1.6317,0 1.6317,0 0,1.22868 c 0,1.86121 -0.069,5.68218 -0.1168,6.63486 -0.1821,3.63217 -0.6012,5.99557 -1.3338,7.52209 -0.3078,0.64131 -0.7761,1.28758 -1.1003,1.5184 l -0.1102,0.0785 -0.027,-0.97174 0,0 z"
         style="fill:#d40000;fill-opacity:1;stroke:none" />
      <path
         transform="translate(0,552.36218)"
         inkscape:connector-curvature="0"
         id="path4929"
         d="m 1122.0865,304.5224 c 0.058,-1.37364 0.1827,-7.44349 0.1827,-8.91011 0,-0.43242 0.011,-0.84151 0.025,-0.90909 l 0.025,-0.12287 1.2446,0 1.2447,0 -0.1655,1.89708 c -0.2159,2.47651 -0.4742,5.13439 -0.5485,5.64449 -0.1329,0.91159 -0.4159,1.5708 -0.919,2.14028 -0.1524,0.17249 -0.8324,0.71375 -1.0288,0.81883 l -0.085,0.0455 0.026,-0.60412 z"
         style="fill:#d40000;fill-opacity:1;stroke:none" />
      <path
         transform="translate(0,552.36218)"
         inkscape:connector-curvature="0"
         id="path4931"
         d="m 1128.7789,300.7827 c 0.01,-0.0703 0.1058,-1.41937 0.2141,-2.99798 0.1082,-1.5786 0.2066,-2.94538 0.2185,-3.03729 l 0.022,-0.1671 1.564,0 1.564,0 -0.092,0.57994 c -0.2458,1.54355 -0.593,2.87918 -0.9021,3.46978 -0.3095,0.59149 -0.9213,1.23529 -1.6301,1.71529 -0.3811,0.25808 -0.8983,0.56514 -0.9519,0.56514 -0.013,0 -0.015,-0.0575 -0.01,-0.12778 z"
         style="fill:#d40000;fill-opacity:1;stroke:none" />
      <path
         transform="translate(0,552.36218)"
         inkscape:connector-curvature="0"
         id="path4933"
         d="m 1137.4459,294.80105 0,-0.22072 0.9141,0.004 0.9141,0.004 -0.3405,0.11268 c -0.3237,0.1071 -0.8946,0.23629 -1.301,0.29441 l -0.1867,0.0267 0,-0.22071 z"
         style="fill:#d40000;fill-opacity:1;stroke:none" />
      <path
         transform="translate(0,552.36218)"
         inkscape:connector-curvature="0"
         id="path4935"
         d="m 1178.5552,301.07911 c -2.032,-3.53896 -3.6946,-6.44247 -3.6946,-6.45225 0,-0.01 0.1505,-0.0176 0.3346,-0.0174 l 0.3346,3.5e-4 3.8353,6.43131 c 2.1094,3.53722 3.8353,6.44057 3.8353,6.45189 0,0.0113 -0.2138,0.0206 -0.4752,0.0206 l -0.4753,0 -3.6947,-6.43447 z"
         style="fill:#d40000;fill-opacity:1;stroke:none" />
      <path
         transform="translate(0,552.36218)"
         inkscape:connector-curvature="0"
         id="path4937"
         d="m 1188.2812,307.31624 c -0.076,-0.10854 -2.0747,-3.00819 -4.4413,-6.44366 l -4.303,-6.24632 0.414,-0.01 c 0.3605,-0.008 0.4214,-0.002 0.4715,0.0515 0.048,0.051 8.6796,12.46266 8.8677,12.75115 l 0.062,0.0944 -0.4661,0 -0.4661,0 -0.1383,-0.19734 z"
         style="fill:#d40000;fill-opacity:1;stroke:none" />
      <path
         transform="translate(0,552.36218)"
         inkscape:connector-curvature="0"
         id="path4939"
         d="m 1190.128,301.09015 c -2.8192,-3.53289 -5.1309,-6.4364 -5.1372,-6.45225 -0.01,-0.0158 0.9222,-0.0288 2.0633,-0.0288 l 2.0746,0 5.9163,6.3537 c 3.2539,3.49453 5.9521,6.39804 5.996,6.45224 l 0.08,0.0985 -2.9335,0 -2.9335,0 -5.1257,-6.42343 0,0 z"
         style="fill:#d40000;fill-opacity:1;stroke:none" />
      <path
         transform="translate(0,552.36218)"
         inkscape:connector-curvature="0"
         id="path4941"
         d="m 1199.6022,301.06134 -6.4522,-6.45225 2.0249,0.002 2.0248,0.002 7.173,6.33367 c 3.9451,3.48351 7.2337,6.38621 7.3079,6.45043 l 0.1348,0.11677 -2.8805,0 -2.8806,0 -6.4521,-6.45224 z"
         style="fill:#d40000;fill-opacity:1;stroke:none" />
      <path
         transform="translate(0,552.36218)"
         inkscape:connector-curvature="0"
         id="path4943"
         d="m 1210.2415,301.14213 c -4.3227,-3.50236 -7.9057,-6.40491 -7.9623,-6.4501 l -0.103,-0.0822 2.3166,-2.6e-4 2.3167,-2.5e-4 8.8546,6.42028 c 4.8701,3.53116 8.8694,6.43461 8.8873,6.45212 0.02,0.0196 -1.2161,0.0312 -3.2089,0.0301 l -3.2416,-0.002 -7.8594,-6.36793 0,0 z"
         style="fill:#d40000;fill-opacity:1;stroke:none" />
      <path
         transform="translate(0,552.36218)"
         inkscape:connector-curvature="0"
         id="path4945"
         d="m 1222.2251,301.10446 -9.5697,-6.44388 2.7045,-0.009 2.7046,-0.009 8.5159,5.17011 c 4.6838,2.84357 8.6315,5.25682 8.7727,5.36278 0.3198,0.23992 0.905,0.81492 1.0932,1.07398 0.2964,0.408 0.4285,0.75339 0.4114,1.07495 l -0.011,0.20592 -2.526,0.009 -2.5259,0.009 -9.5697,-6.44388 0,0 z"
         style="fill:#d40000;fill-opacity:1;stroke:none" />
      <path
         transform="translate(0,552.36218)"
         inkscape:connector-curvature="0"
         id="path4947"
         d="m 1239.7125,300.61469 c -0.4271,-0.0754 -0.8995,-0.2282 -1.3102,-0.42392 -0.1638,-0.078 -2.6001,-1.35425 -5.4139,-2.83604 l -5.1161,-2.69415 4.0807,-0.009 4.0808,-0.009 2.3284,1.14648 c 2.9259,1.4407 3.2065,1.60012 3.953,2.24599 0.4138,0.35802 0.7544,0.8648 0.8126,1.2091 0.081,0.47699 -0.4013,0.9829 -1.1874,1.24667 -0.5898,0.19791 -1.5149,0.24911 -2.2279,0.12331 z"
         style="fill:#d40000;fill-opacity:1;stroke:none" />
      <path
         transform="translate(0,552.36218)"
         inkscape:connector-curvature="0"
         id="path4951"
         d="m 1183.141,309.07583 -0.5884,-1.03099 0.4986,5.4e-4 0.4987,5.5e-4 0.5984,1.00611 c 0.3291,0.55336 0.6029,1.01763 0.6083,1.0317 0.01,0.0141 -0.2234,0.025 -0.5086,0.0243 l -0.5186,-0.001 -0.5884,-1.03099 z"
         style="fill:#ff8800;fill-opacity:1;stroke:none" />
      <path
         transform="translate(0,552.36218)"
         inkscape:connector-curvature="0"
         id="path4953"
         d="m 1189.504,309.10251 c -0.3785,-0.55211 -0.6927,-1.01595 -0.6982,-1.03075 -0.01,-0.0153 0.1951,-0.0263 0.4638,-0.0254 l 0.4737,0.002 0.4991,0.72405 c 0.2745,0.39823 0.5951,0.86207 0.7124,1.03074 l 0.2133,0.30668 -0.488,-10e-4 -0.488,-0.001 -0.6881,-1.00383 z"
         style="fill:#ff8800;fill-opacity:1;stroke:none" />
      <path
         transform="translate(0,552.36218)"
         inkscape:connector-curvature="0"
         id="path4955"
         d="m 1196.6249,309.23613 c -0.3949,-0.49664 -0.7697,-0.96786 -0.8328,-1.04714 l -0.1147,-0.14415 2.9782,0 2.9783,0 0.8014,0.8602 c 0.4407,0.47311 0.8811,0.94435 0.9784,1.0472 l 0.1771,0.187 -3.1239,-6e-5 -3.1239,-6e-5 -0.7181,-0.90299 z"
         style="fill:#ff8800;fill-opacity:1;stroke:none" />
      <path
         transform="translate(0,552.36218)"
         inkscape:connector-curvature="0"
         id="path4957"
         d="m 1207.6086,309.09204 -1.0469,-1.0472 2.932,7e-4 2.932,7.1e-4 1.137,1.00348 c 0.6253,0.55191 1.1566,1.02283 1.1807,1.04649 0.038,0.0374 -0.3554,0.043 -3.0221,0.043 l -3.0658,0 -1.0469,-1.0472 z"
         style="fill:#ff8800;fill-opacity:1;stroke:none" />
      <path
         transform="translate(0,552.36218)"
         inkscape:connector-curvature="0"
         id="path4959"
         d="m 1223.6113,310.13952 -2.2785,-0.0152 -1.2758,-1.03224 -1.2757,-1.03224 1.4149,-0.009 c 0.7782,-0.005 2.2662,-2.2e-4 3.3065,0.0111 l 1.8916,0.0205 1.3847,1.00228 c 0.7615,0.55125 1.4044,1.02088 1.4284,1.04362 0.048,0.0451 0.2967,0.0444 -4.5961,0.0117 z"
         style="fill:#ff8800;fill-opacity:1;stroke:none" />
      <path
         transform="translate(0,552.36218)"
         inkscape:connector-curvature="0"
         id="path4961"
         d="m 1233.9036,308.57039 c -0.3331,-0.0586 -0.6642,-0.15971 -0.9442,-0.28821 -0.4883,-0.22407 -0.6137,-0.20742 1.5625,-0.20742 l 1.9435,0 -0.1136,0.0772 c -0.2003,0.13606 -0.5358,0.27944 -0.843,0.36024 -0.2584,0.0679 -0.3722,0.08 -0.8376,0.0886 -0.3608,0.007 -0.6141,-0.003 -0.7676,-0.0304 z"
         style="fill:#ff8800;fill-opacity:1;stroke:none" />
      <path
         transform="translate(0,552.36218)"
         inkscape:connector-curvature="0"
         id="path4975"
         d="m 1239.0652,324.31037 c -0.1164,-0.0433 -0.291,-0.12509 -0.388,-0.18183 -0.097,-0.0567 -3.8792,-3.10199 -8.4048,-6.76724 l -8.2284,-6.66409 3.4641,-0.009 3.4641,-0.009 0.9019,0.65232 c 0.4961,0.35877 0.9304,0.67888 0.965,0.71135 0.06,0.0563 0.016,0.12062 -0.9524,1.38556 -0.5585,0.72959 -1.0108,1.34226 -1.005,1.3615 0.01,0.0192 2.3548,1.89493 5.2202,4.1682 5.5258,4.38392 5.5089,4.36964 5.7529,4.85402 0.1004,0.19945 0.1309,0.38121 0.077,0.46144 -0.095,0.14207 -0.5335,0.16059 -0.8669,0.0366 z"
         style="fill:#55d400;fill-opacity:1;stroke:none" />
      <path
         transform="translate(0,552.36218)"
         inkscape:connector-curvature="0"
         id="path4977"
         d="m 1227.5497,322.65655 -2.2609,-2.26087 -1.7601,1.44062 -1.7601,1.44062 -2.2518,-2.24943 c -1.2385,-1.23718 -4.063,-4.07155 -6.2768,-6.2986 l -4.025,-4.04917 3.0936,0 3.0937,0 7.9563,7.01678 c 4.3759,3.85924 8.0031,7.06272 8.0605,7.11886 l 0.1043,0.10207 -0.8565,0 -0.8564,0 -2.2608,-2.26088 0,0 z"
         style="fill:#55d400;fill-opacity:1;stroke:none" />
      <path
         transform="translate(0,552.36218)"
         inkscape:connector-curvature="0"
         id="path4979"
         d="m 1203.4691,317.81141 c -3.1169,-3.90735 -5.6724,-7.11832 -5.6788,-7.13548 -0.013,-0.0341 1.7628,-0.0341 4.561,-3e-5 l 1.7507,0.0213 6.6186,7.11011 6.6185,7.11011 -4.1014,-8.8e-4 -4.1015,-8.7e-4 -5.6671,-7.10427 z"
         style="fill:#55d400;fill-opacity:1;stroke:none" />
      <path
         transform="translate(0,552.36218)"
         inkscape:connector-curvature="0"
         id="path4981"
         d="m 1188.1525,317.79436 c -2.2388,-3.89844 -4.0757,-7.10193 -4.0822,-7.11885 -0.01,-0.0169 0.2219,-0.0305 0.5073,-0.0301 l 0.5189,6.6e-4 4.1454,6.949 c 2.2799,3.82195 4.1899,7.02514 4.2444,7.11819 l 0.099,0.1692 -0.6812,0 -0.6813,0 -4.0704,-7.08809 0,0 z"
         style="fill:#55d400;fill-opacity:1;stroke:none" />
      <path
         transform="translate(0,552.36218)"
         inkscape:connector-curvature="0"
         id="path4983"
         d="m 1195.5705,317.89477 c -2.6605,-3.86246 -4.8755,-7.07381 -4.9224,-7.13634 l -0.085,-0.1137 0.4865,0 0.4865,0 4.6863,6.74156 c 2.5774,3.70785 4.8089,6.91921 4.959,7.13634 l 0.2728,0.3948 -0.5232,0 -0.5232,0 -4.8371,-7.02266 0,0 z"
         style="fill:#55d400;fill-opacity:1;stroke:none" />
      <path
         transform="translate(0,552.36218)"
         inkscape:connector-curvature="0"
         id="path4991"
         d="m 1193.1417,326.48167 c -0.321,-0.55946 -0.5837,-1.02551 -0.5837,-1.03567 0,-0.0102 0.3043,-0.0185 0.6762,-0.0185 l 0.6762,0 0.6018,1.0102 c 0.331,0.55561 0.6082,1.02166 0.6161,1.03567 0.01,0.014 -0.3045,0.0255 -0.6942,0.0255 l -0.7086,0 -0.5838,-1.01718 z"
         style="fill:#0055d4;fill-opacity:1;stroke:none" />
      <path
         transform="translate(0,552.36218)"
         inkscape:connector-curvature="0"
         id="path4993"
         d="m 1201.5137,326.52261 c -0.3813,-0.55561 -0.7043,-1.0293 -0.7178,-1.05265 -0.019,-0.0332 0.089,-0.0424 0.4967,-0.0424 l 0.5211,0 0.7118,1.02511 c 0.3915,0.5638 0.7168,1.0375 0.7231,1.05264 0.01,0.0152 -0.2256,0.0275 -0.5151,0.0275 l -0.5264,0 -0.6934,-1.0102 z"
         style="fill:#0055d4;fill-opacity:1;stroke:none" />
      <path
         transform="translate(0,552.36218)"
         inkscape:connector-curvature="0"
         id="path4995"
         d="m 1210.419,326.52686 c -0.4389,-0.55142 -0.8114,-1.02647 -0.8277,-1.05566 -0.027,-0.048 0.3616,-0.0509 4.1087,-0.0301 l 4.1385,0.023 0.1785,0.1939 c 0.1962,0.21299 0.4126,0.5997 0.4979,0.88968 0.069,0.235 0.1305,0.76526 0.103,0.8903 l -0.021,0.0948 -3.6901,-0.002 -3.69,-0.002 -0.798,-1.00258 z"
         style="fill:#0055d4;fill-opacity:1;stroke:none" />
      <path
         transform="translate(0,552.36218)"
         inkscape:connector-curvature="0"
         id="path4997"
         d="m 1231.3768,326.49714 -1.0352,-1.03566 0.9086,0 0.9085,0 1.0018,0.8854 c 0.8813,0.77889 1.1705,1.06553 1.1705,1.15986 0,0.0143 -0.4317,0.0261 -0.9594,0.0261 l -0.9595,0 -1.0353,-1.03567 z"
         style="fill:#0055d4;fill-opacity:1;stroke:none" />
      <path
         transform="translate(0,552.36218)"
         inkscape:connector-curvature="0"
         id="path4999"
         d="m 1196.682,331.77744 c -0.3241,-0.0989 -0.8185,-0.61146 -1.235,-1.28035 -0.076,-0.12258 -0.4267,-0.72433 -0.7786,-1.33723 l -0.6398,-1.11437 0.7199,-0.005 c 0.3959,-0.003 0.7261,0.002 0.7338,0.01 0.019,0.0197 1.5528,2.59329 1.5961,2.67759 0.072,0.14095 0.059,0.57042 -0.025,0.78686 -0.089,0.22954 -0.207,0.31317 -0.3717,0.26289 z"
         style="fill:#ff2a7f;fill-opacity:1;stroke:none" />
      <path
         transform="translate(0,552.36218)"
         inkscape:connector-curvature="0"
         id="path5001"
         d="m 1205.0429,331.27594 c -0.2485,-0.0865 -0.5391,-0.36505 -0.8126,-0.77885 -0.095,-0.1439 -0.4966,-0.73257 -0.8923,-1.30816 -0.3957,-0.5756 -0.7349,-1.07052 -0.7538,-1.09983 l -0.034,-0.0533 0.5429,0 0.5428,0 0.8984,1.29217 c 0.4941,0.7107 0.9099,1.32335 0.9241,1.36146 0.016,0.0438 0.023,0.12097 0.017,0.20958 -0.01,0.11212 -0.02,0.15844 -0.064,0.2307 -0.1007,0.16199 -0.2043,0.20318 -0.3679,0.14623 l 0,0 z"
         style="fill:#ff2a7f;fill-opacity:1;stroke:none" />
      <path
         transform="translate(0,552.36218)"
         inkscape:connector-curvature="0"
         id="path5003"
         d="m 1215.0157,330.84684 c -0.6403,-0.11743 -1.2649,-0.45356 -1.9105,-1.02806 -0.1994,-0.17749 -0.3056,-0.30006 -0.8313,-0.95932 -0.3315,-0.4157 -0.6095,-0.76673 -0.6177,-0.78005 -0.012,-0.0193 0.6802,-0.0242 3.4362,-0.0242 l 3.4512,0 -0.013,0.0533 c -0.2595,1.07708 -0.9997,2.04666 -1.9066,2.49728 -0.1869,0.0929 -0.4452,0.1845 -0.6511,0.23096 -0.2202,0.0497 -0.7133,0.0549 -0.9574,0.0101 z"
         style="fill:#ff2a7f;fill-opacity:1;stroke:none" />
      <path
         transform="translate(0,552.36218)"
         inkscape:connector-curvature="0"
         id="path5005"
         d="m 1234.1737,328.86507 c -0.2988,-0.04 -0.7278,-0.29942 -1.104,-0.66767 l -0.129,-0.12625 0.8118,-3.1e-4 0.8119,-3.1e-4 0.01,0.0593 c 0.015,0.10431 0.01,0.33056 -0.01,0.41577 -0.057,0.24803 -0.1782,0.34761 -0.3889,0.31944 z"
         style="fill:#ff2a7f;fill-opacity:1;stroke:none" />
    </g>
  </g>
</svg>
