<svg height="600" viewBox="0 0 9 6" width="900" xmlns="http://www.w3.org/2000/svg"><path d="m0 0h9v6h-9z" fill="#fcdd09"/><path d="m0 0 9.004136 6h-9.004136z" fill="#078930"/><path d="m4.5095273.75074162-.1519906.45207958-.476565-.0031805.3853753.2834816-.1502808.4497622.3901652-.2768781.3836867.2811482-.1442397-.4546019.387412-.2760026-.4793104-.0040813z" fill="#fff"/><path d="m2.2549854 1.0743906.2690807.3937927.457781-.1325176-.2938777.3775075.2668057.3920268-.4507067-.1604802-.2928864.374803.0153254-.4766897-.4478192-.1603855.4601784-.1341303z" fill="#fff"/><path d="m4.939312 3.8270975c.188475.0439464.3207992.0971689.3969726.1596681.1093732.0888679.1640607.2041022.1640626.3457031-.0000019.1494143-.0600605.2729494-.1801758.3706054-.1474625.1181642-.3618178.1772461-.6430664.1772461h-1.0092774v-.0541992c.0917967 0 .1540525-.0085449.1867676-.0256348.0327145-.0170897.0556638-.0393065.0688476-.0666503.0131833-.0273437.0197752-.0947263.0197754-.2021485v-1.2890625c-.0000002-.1074201-.0065921-.175047-.0197754-.2028809-.0131838-.0278301-.0363772-.0500469-.0695801-.0666504-.0332033-.0165996-.095215-.0249003-.1860351-.0249024v-.0541991h.9521485c.2275377.000002.3886704.0202657.4833984.060791.094725.0405293.1694319.101076.2241211.1816406.0546857.0805681.0820295.1662614.0820313.2570801-.0000018.0957046-.0346698.1809095-.104004.2556152-.0693376.0747082-.1914077.1340343-.3662109.1779785zm-.5332032-.0395508c.138671.0000011.2409658-.0156238.3068848-.046875.0659168-.0312488.1164539-.075194.1516114-.1318358.0351549-.0566394.052733-.128905.0527343-.2167969-.0000013-.0878891-.0173353-.1599105-.0520019-.2160645-.0346692-.0561506-.0842298-.0988752-.1486816-.1281738-.0644542-.0292951-.1679698-.0434552-.310547-.0424805zm0 .1142579v.637207l-.0014648.0732422c-.0000007.0527346.0134269.0925295.0402833.1193848.0268545.0268556.0666494.0402832.1193847.0402831.078124.0000001.1501453-.0173337.2160645-.0520019.0659167-.0346677.1164537-.0849607.1516112-.1508788.035155-.0659177.052733-.1394039.0527345-.2204591-.0000015-.0927727-.0214858-.1760247-.0644532-.2497559-.04297-.0737296-.102052-.1252431-.1772461-.1545409-.0751964-.029296-.1875009-.0434561-.3369141-.0424805z"/><g fill="#fff"><path d="m5.024519 3.7702931c.188475.0439463.3207991.0971689.3969726.1596679.1093731.0888681.1640606.2041023.1640625.3457031-.0000019.1494146-.0600604.2729496-.1801758.3706055-.1474624.1181641-.3618177.1772461-.6430664.1772461h-1.0092773v-.0541992c.0917967 0 .1540525-.0085448.1867675-.0256347.0327147-.0170898.0556639-.0393065.0688478-.0666504.0131832-.0273436.019775-.0947264.0197754-.2021484v-1.2890626c-.0000004-.1074201-.0065922-.175047-.0197754-.2028809-.0131839-.0278301-.0363773-.0500468-.0695801-.0666504-.0332034-.0165996-.0952151-.0249003-.1860352-.0249023v-.0541992h.9521484c.2275379.000002.3886706.0202656.4833984.0607911.094725.0405292.169432.101076.2241211.1816405.0546857.0805681.0820295.1662614.0820313.2570801-.0000018.0957045-.0346698.1809096-.1040039.2556152-.0693375.0747083-.1914078.1340344-.3662109.1779786zm-.5332032-.0395508c.138671.0000011.2409657-.0156239.3068849-.046875.0659167-.0312488.1164537-.0751941.1516112-.1318359.035155-.0566393.052733-.1289049.0527344-.216797-.0000014-.0878889-.0173352-.1599104-.0520019-.2160644-.0346692-.0561505-.0842297-.0988751-.1486817-.1281738-.0644542-.029295-.1679696-.0434551-.3105469-.0424805zm0 .1142578v.6372071l-.0014649.0732421c-.0000007.0527346.013427.0925295.0402833.1193847.0268546.0268557.0666495.0402835.1193848.0402833.0781239.0000002.1501453-.0173339.2160644-.052002.0659167-.0346677.1164538-.0849607.1516114-.1508788.0351548-.0659176.0527329-.1394039.0527343-.220459-.0000014-.0927729-.0214857-.1760248-.0644532-.2497559-.0429699-.0737297-.1020519-.1252433-.177246-.154541-.0751964-.0292959-.1875009-.0434561-.3369141-.0424805z" stroke="#000" stroke-width=".01"/><path d="m6.7567932 1.0743906-.2690807.3937927-.457781-.1325176.2938777.3775075-.2668057.3920268.4507067-.1604802.2928864.374803-.0153254-.4766897.4478192-.1603855-.4601784-.1341303z"/></g></svg>