<svg enable-background="new 0 0 3797.1 2531.4" viewBox="0 0 3797.1 2531.4" xmlns="http://www.w3.org/2000/svg"><path d="m0 0h3797.1v2531.4h-3797.1z" fill="#ed1c24"/><path d="m3797.1 0v2531.4h-3797.1z" fill="#018b44"/><g fill="#fff"><path d="m2011.8 2040.6-113.2 83-113.3-83 44 133.3-114 82.1 140.5-.6 42.8 133.7 42.8-133.7 140.4.6-114-82.1z"/><path d="m1526.3 2038.7-66-124-18.2 139.3-138.2 24.4 126.7 60.4-19.4 139 96.5-101.9 126.3 61.5-67.1-123.3 97.5-101.1z"/><path d="m1363.3 1837.4-135.5-36.8-5.7-140.3-76.8 117.6-135.2-38 88.1 109.4-77.9 116.8 131.2-49.9 87.1 110.2-6.9-140.3z"/><path d="m1168.3 1548.5-106.1-91.9 55.7-128.8-120.2 72.5-105.3-92.8 31.8 136.7-120.8 71.5 139.9 12 30.6 137 54.6-129.4z"/><path d="m892.4 1224 105.3-92.9 120.2 72.6-55.7-128.9 106.1-91.9-139.8 13.2-54.6-129.4-30.6 137.1-139.9 11.9 120.8 71.5z"/><path d="m1145.3 753.6 76.8 117.5 5.7-140.3 135.5-36.7-131.6-48.8 6.9-140.2-87.1 110.1-131.2-49.9 77.9 116.8-88.1 109.4z"/><path d="m1634 294-126.3 61.5-96.5-101.9 19.4 139-126.8 60.4 138.3 24.5 18.2 139.2 66-123.9 138.1 25.6-97.5-101z"/><path d="m1898.6 142.3-42.8 133.8-140.5-.7 114 82.1-44 133.4 113.3-83.1 113.2 83.1-44-133.4 114-82.1-140.4.7z"/><path d="m2270.8 492.8 66 123.9 18.2-139.2 138.3-24.5-126.8-60.4 19.5-139-96.6 101.9-126.2-61.5 67 123.4-97.4 101z"/><path d="m2433.8 694.1 135.5 36.7 5.7 140.3 76.8-117.5 135.2 37.9-88-109.4 77.9-116.8-131.3 49.9-87-110.1 6.9 140.2z"/><path d="m2628.8 982.9 106.2 91.9-55.8 128.9 120.2-72.6 105.4 92.9-31.9-136.8 120.9-71.5-139.9-11.9-30.7-137.1-54.6 129.4z"/><path d="m2904.8 1307.5-105.4 92.8-120.2-72.5 55.8 128.8-106.2 91.9 139.8-13.2 54.6 129.4 30.7-137 139.9-12-120.9-71.5z"/><path d="m2651.8 1777.9-76.8-117.6-5.7 140.3-135.5 36.8 131.7 48.7-6.9 140.3 87-110.2 131.3 49.9-77.9-116.8 88-109.4z"/><path d="m2355 2054-18.2-139.3-66 124-138-25.7 97.4 101.1-67 123.3 126.2-61.5 96.6 101.9-19.5-139 126.8-60.4z"/></g></svg>