<svg enable-background="new -1642.2 -604.7 3122.4 2081.7" viewBox="-1642.2 -604.7 3122.4 2081.7" xmlns="http://www.w3.org/2000/svg"><path d="m-1642.2-604.7h1040.6v2081.7h-1040.6z" fill="#ed1c24"/><path d="m-601.6-604.7h1040.6v2081.7h-1040.6z" fill="#939598"/><path d="m439.7-604.7h1040.6v2081.7h-1040.6z" fill="#fff"/><path d="m-1104.1 436.4 165.5 246.4 165-246.4-165-247z" fill="#939598"/><path d="m84.7-56.8-165.4-246.8-166 246.8 166 246.2z" fill="#fff"/><path d="m-246.7 929.2 166 246.2 165.4-246.2-165.4-246.2z" fill="#fff"/><path d="m-1470.6 929.2 165.4 246.2 166-246.2-166-246.2z" fill="#939598"/><g fill="#ed1c24"><path d="m611.7 436.5 164.9 246.3 166-246.3-166-246.9z"/><path d="m1143.1 682.8-165 246.4 165 246.4 165.6-246.4z"/></g></svg>