<svg height="600" width="900" xmlns="http://www.w3.org/2000/svg"><g transform="matrix(.90112665 0 0 -1.0028515 .195364 601.7742)"><path d="m0 400.06723h1000.0826v199.93277h-1000.0826z" fill="#fcdd09"/><path d="m0 200.90146h1000.0826v199.93277h-1000.0826z" fill="#fff"/><path d="m0 1.735638h1000.0826v199.93277h-1000.0826z" fill="#fcdd09"/></g><path d="m.27555445.21641604 379.10924555 299.88610396-379.10924555 299.88609z" fill="#078930"/><g fill="#fff" fill-rule="evenodd"><path d="m89.354373 226.17048-12.511553-8.67269-11.917549 9.47241 4.381933-14.5792-12.691519-8.40713 15.219737-.33775 4.073759-14.6683 5.024381 14.37046 15.20924-.65838-12.114498 9.21918z" transform="matrix(.99982504 .0187051 -.0187051 .99982504 92.075619 32.035993)"/><path d="m89.354373 226.17048-12.511553-8.67269-11.917549 9.47241 4.381933-14.5792-12.691519-8.40713 15.219737-.33775 4.073759-14.6683 5.024381 14.37046 15.20924-.65838-12.114498 9.21918z" transform="matrix(.90203765 -.43165735 .43165735 .90203765 -60.460273 103.5288)"/><path d="m89.354373 226.17048-12.511553-8.67269-11.917549 9.47241 4.381933-14.5792-12.691519-8.40713 15.219737-.33775 4.073759-14.6683 5.024381 14.37046 15.20924-.65838-12.114498 9.21918z" transform="matrix(-.90203765 -.43165735 -.43165735 .90203765 389.15332 103.5288)"/><path d="m89.354373 226.17048-12.511553-8.67269-11.917549 9.47241 4.381933-14.5792-12.691519-8.40713 15.219737-.33775 4.073759-14.6683 5.024381 14.37046 15.20924-.65838-12.114498 9.21918z" transform="matrix(.60387605 -.79707823 .79707823 .60387605 -164.35738 238.81185)"/><path d="m89.354373 226.17048-12.511553-8.67269-11.917549 9.47241 4.381933-14.5792-12.691519-8.40713 15.219737-.33775 4.073759-14.6683 5.024381 14.37046 15.20924-.65838-12.114498 9.21918z" transform="matrix(-.60387605 -.79707823 -.79707823 .60387605 494.23873 238.81185)"/></g></svg>