<svg height="600" viewBox="0 0 7.5 5" width="900" xmlns="http://www.w3.org/2000/svg"><path d="m0 0h7.500808v5h-7.500808z" fill="#0f47af"/><g fill="#fff"><g transform="matrix(.0036864 0 0 .0036864 .005843 -.962858)"><path d="m1277.2271 1286.4849c-13.0971 3.9456-25.4925-10.8312-36.1005-24.1563-16.5182-12.2446-13.6308-18.8769-28.5796-33.2151-16.4638-7.4116-20.7535-25.2222-7.521-39.254 24.3724-3.0618-1.218-9.3774-6.0168-16.6075-7.594-.834-17.6214 10.7344-24.0669 1.5097 15.3484-2.0235-.5639-15.4408 7.5209-22.6465.9078-10.008 4.667-23.6407 3.0085-37.7443-3.6438-22.4335-2.0463-13.9938 24.0668-21.1367-2.0855-18.3109 24.0693-20.9733 23.2247-40.9191-3.5479-5.034-16.082-15.5962-14.6759-21.5074 1.8732-7.8741 18.8469-10.5729 23.4005-10.4039 3.2714-1.3612 10.4499-9.038 21.6122-9.2396 3.1958-12.63253 18.8025-3.2835 12.984-21.52352 12.5845-21.69835 21.4805 2.08468 37.966-7.54897l9.0489.01838c-9.8567-4.4213-8.0594-5.28199-19.5663-8.70266-.302-1.71549.7367-6.90802-2.7545-8.61647-4.5918-2.247-7.3436-4.92744-9.2529-6.56859-3.6152-3.1074 4.0446-4.77631.7437-9.92593 11.0191-4.31797 9.0236-26.85286 13.2514-35.71983 6.6968-25.48734 7.2443-34.4495 4.5126-45.29304-11.2978-3.56859 3.9264-20.37632-5.2533-19.62704-9.7784-13.124-8.2128-6.95129-18.5434-22.49486-5.7845-8.70333-7.5004-22.17631-10.0953-28.68698-23.7158-34.73615-46.552-42.0919-13.3972-44.65451 6.2588-.48377 6.3426-15.4757 16.1608-14.64181 22.0859 1.41848-.2093-28.96769 11.8602-28.93542 4.6039-9.1915 2.9704-6.58808-7.2016-21.37327-4.475-5.76805-5.7489-12.35335-1.3371-15.52821 3.4465-2.48019 13.0328-3.72323 14.1704-8.75316-8.0378-14.10987-18.5168-39.77836-38.7358-41.89929-16.2891-6.73846-40.5076-13.79259-38.6593-45.42439-7.1341 1.77449-10.2848 3.40028-13.4343 6.56201-2.8501 2.8611-8.6034 5.18725-12.7772 5.18725s-11.2066 2.41051-15.5956 5.37588c-9.374 6.33339-24.2702 11.50552-41.056 14.33569-6.6141 1.11514-13.3785 3.71168-15.032 5.75314-1.6535 2.04143-11.1236 4.63592-21.0447 5.75314-9.9211 1.11724-25.4792 3.43984-34.5735 5.18725-9.0943 1.74739-20.5937 3.22583-25.5543 3.20667-3.7517-.01449-7.1567-.0233-10.3091.15618-.0618.18042-3.9501 13.96462-1.4652 21.71787 3.8433 11.99137 2.5567 24.97328 10.1659 33.06615-3.7257 9.84805-7.5149 21.40376-7.2702 29.5671.1766 5.89215 4.1912 17.37519 4.8009 28.23385.6281 11.18748 19.7458 18.72407 22.6474 23.04976 5.8206 8.67747 9.0376 2.27316 10.7033 19.4522 2.4226 24.98541 4.267 44.90508 1.8561 48.26298-12.4275 1.39415-18.5169-.47121-25.1604-17.84126-4.3187-11.29185 6.4498 7.48054-11.1749 3.06711-4.0626-.43958-9.7828-18.16271-15.5181-27.15363-5.869-9.20071-5.8682 2.14139-10.0082 1.55214-11.80889-1.68074 6.016 21.58849-5.9108 21.65703-5.36768.03085-3.39783-2.9527-13.88842-4.83297-6.38872-1.14507 7.42654-21.16551 4.50998-25.41367-4.6612-6.78932-24.64764-2.84163-29.32276-2.98435-4.56493-.13935-5.05064 12.83867-10.14732 21.06739-3.36493 5.43277-9.8449 6.53523-16.88493 8.2349-8.74189 2.1106-5.71683 8.20433-12.77253 13.79893-9.15175 7.2566-7.88528 7.35867-18.65975 11.83889-8.09465 20.20831-24.89426-1.05441-36.33066 23.64939-.0708 2.64347-2.37664 3.5059-4.9511 4.11036-3.91384 4.05871 1.89237 8.02922 9.44256 12.49362-.66408 11.09115-1.84902 36.11365-.18045 28.11781 4.14085 15.76967-8.41377 7.83787-10.52933 22.6467-8.26854 3.44376-15.02681 15.73838-9.02516 22.64655-11.02097 3.40043-10.28137 6.54912-22.56286 13.58779-1.33454 5.42103-8.564 7.18275-10.52925 15.09777-8.34588 8.47441-5.99648 11.19053-7.52093 27.17575-7.48723 9.6452-5.34858 24.4897-7.52103 22.6466 6.91861 9.6968-1.25336 7.1366-4.5125 22.6465-3.18833 7.8206-1.42986 5.8464-8.83084 10.6048 5.89168 7.4923 11.27203 15.4778 12.26826 20.0311 2.67052 12.206 9.81764 9.2097 8.54942-3.5839-.52846-5.331-.0564-7.6475 1.03345-5.1872 1.08987 2.4602 3.90776 6.375 6.20067 8.6768 3.5544 3.5682 3.42203 4.9158-.56369 9.3371-6.35151 7.0455-3.07951 24.3329 4.60353 24.3329 7.5111 0 9.71581 4.5601 4.32169 9.0541-7.02128 5.8498-5.27925 9.0201 3.94588 7.1679 5.66978-1.1384 9.74136-.1051 12.40136 3.1123 3.40558 4.1194 3.04511 4.81-2.53664 4.81-5.46418 0-5.98353.8736-3.38219 5.7532 1.80663 3.3888 1.89658 6.2067.28185 6.7906-1.51805.5489-3.66314 4.7722-4.79144 9.337-1.57062 6.3545-1.01044 8.2996 2.53665 8.2996 5.72717 0 10.04801 11.99 5.35513 14.9016-2.10899 1.3085-.3007 3.7293 4.88538 6.4133 4.5787 2.3697 9.3711 5.6939 10.61631 7.3565 1.24513 1.6626 1.92151-.3772 1.5032-4.527-.64773-6.4246.36464-7.4184 6.76437-6.6963 16.64142 1.8778 21.97202 3.8791 18.69599 7.1678-1.76349 1.7703-2.38786 5.3624-1.40925 7.9224 1.15115 3.0114.53851 3.9297-1.69109 2.5464-1.89529-1.1758-7.15725-.167-11.74371 2.2636l-8.36152 4.4327 9.01917 3.5839c4.96054 2.0136 15.78354 3.9213 24.05111 4.2442 18.11467.7074 26.4651 4.0421 24.33297 9.62-1.01977 2.6677.77279 4.2885 5.07328 4.6213 3.66852.284 9.37618.6983 12.68321.9432s8.71853 1.539 12.02556 2.8294c20.36973 7.9479 34.30873 10.7443 36.45247 7.2621 1.00437-1.6313 6.42676 1.5346 12.11951 7.0736 5.69279 5.539 11.34699 9.9179 12.49529 9.7143 3.4138-.6054 10.7723 2.497 15.5957 6.6019 8.8647 7.5445 24.018-11.7017 18.0383-22.9182-2.5091-4.7065-2.1202-8.1052 1.879-14.9016 4.293-7.2956 4.5541-9.5691 1.3153-13.4868-2.1484-2.5988-6.1401-4.7576-8.8313-4.81-3.4527-.0673-2.2304-2.2863 4.1338-7.5451 4.9605-4.099 10.946-9.5283 13.3409-11.9779 5.5652-5.6923 6.7946-27.4213 1.785-31.5951-2.0912-1.7422-3.4422-6.4827-3.0064-10.4688.5465-4.9975-.9426-7.6418-4.8854-8.6769-3.1449-.8255-5.7309-2.6551-5.7309-4.0554 0-4.3437 16.0426-2.7316 26.7757 2.7351 7.6846 3.914 11.2285 4.4288 14.2803 1.8862 2.9979-2.4976 4.0398-2.5019 4.0398 0 0 1.8632 3.3822 3.3953 7.516 3.3953s7.516-1.3581 7.516-3.018-1.6911-3.0879-3.758-3.1124c-2.0669-.0244-.4485-1.7221 3.5701-3.7725 4.0185-2.0504 8.2856-7.4472 9.4889-11.9779 2.7121-10.2113 11.7437-20.3521 11.7437-13.2039 0 2.5105-1.3529 5.3875-3.0064 6.4133-1.6535 1.0259-3.0064 10.7687-3.0064 21.6922 0 14.178-1.2825 20.8092-4.5096 23.2012-2.4863 1.8429-5.6803 7.5902-7.1401 12.7323-2.3051 8.1192-1.7425 10.1049 4.8854 15.0902 4.1977 3.1575 9.1767 5.9069 10.9921 6.1304 1.8153.2235 5.0151.5631 7.1401.7545 2.9097.2622 3.0562 1.8201.6577 6.3191-3.6917 6.9247-.9976 21.1675 4.0398 21.3149 1.8876.0552.1984 2.8407-3.8519 6.2247-8.9209 7.453-6.3413 13.684 8.9252 21.5035 5.5684 2.8521 11.2658 7.266 12.6832 9.8086 1.4175 2.5427 4.5542 4.6214 6.9523 4.6214s4.5466 2.3767 4.7914 5.2816c.2448 2.9048.583 7.2895.7516 9.8086s3.8097 8.3819 8.0797 13.0153c6.9838 7.5783 7.4223 9.5206 4.5096 18.8627-1.7809 5.7119-4.2941 10.3745-5.5431 10.3745-1.2489 0-2.2547 2.7163-2.2547 6.0361 0 3.3308 2.0418 6.0361 4.5095 6.0361 2.4596 0 7.8503 5.4325 12.0256 12.0722 4.1753 6.6396 8.8897 12.0721 10.5224 12.0721 4.8722 0 3.3631 8.2609-1.879 10.2802-3.0767 1.1852-4.2795 4.0228-3.2883 7.828.8596 3.2997.4898 6.0361-.8455 6.0361-1.3354 0 1.4973 4.1818 6.2946 9.3371 4.7972 5.1553 8.7373 11.2668 8.7373 13.5812 0 2.3143 1.0147 4.2441 2.2548 4.2441 1.2402 0 2.2548 3.4171 2.2548 7.6394 0 5.3446-1.971 8.2003-6.4825 9.3371-6.4628 1.6283-9.9749 8.9574-10.0526 21.1262-.0226 3.5316-2.0475 8.0404-4.5096 10.0916-5.4568 4.5463-3.2022 9.1484 4.5096 9.1484 3.1272 0 7.0518 2.3767 8.7373 5.2816 1.6854 2.9049 3.144 4.0986 3.1943 2.7351s2.2056-.3322 4.7914 2.2635c2.5857 2.5957 3.929 5.9521 3.0064 7.4508-2.4646 4.0033 6.9125 6.7721 12.7772 3.7726 2.7738-1.4188 9.1319-2.1874 14.0924-1.6977 10.2095 1.0079 13.5244 1.0531 51.1086.0943 15.747-.4017 33.0105-2.8433 41.2439-5.7531 7.7811-2.75 20.8957-5.2038 29.2086-5.5105-.499-4.6421.6813-15.1837-5.2553-29.6126-13.5977-3.7618-9.8787-11.1518-26.6834-19.7579-1.0006-3.1727-3.2772-19.6418-4.2353-28.9631-.9707-9.4444-18.2706-4.8672-17.8898-10.9337.6933-11.0434 5.3471-5.7205 4.05-13.8399-2.1649-13.5523-13.5391-12.5526-14.1291-24.4823-.342-6.9163 6.9714-8.616 6.0511-14.7125-1.2604-8.3496-1.4377-11.1741-5.0414-17.9373 9.7203-12.3489-13.454-16.0135-22.5626-27.1757"/><path d="m724.63861 1128.3747c-1.07807.0479-1.879 1.2658-1.879 3.2067 0 2.5878 1.35288 4.7157 3.00639 4.7157 1.65352 0 3.00639-1.2675 3.00639-2.8294 0-1.562-1.35287-3.6898-3.00639-4.7157-.41338-.2565-.76804-.3932-1.12739-.3773z"/><path d="m1109.5504 1143.6535c-3.4702.1334-8.2978 6.3831-5.9188 8.7712 1.088 1.0922 3.714 1.9806 5.9188 1.9806 4.4786 0 5.5544-7.8028 1.4093-10.3745-.4138-.2567-.9135-.3963-1.4093-.3773z"/><path d="m1062.7635 1145.3512c-1.4766 0-3.4639 2.0372-4.4157 4.5271-1.0541 2.7576.0351 4.527 2.7246 4.527 2.4284 0 4.4156-2.0372 4.4156-4.527 0-2.4899-1.2479-4.5271-2.7245-4.5271z"/><path d="m745.49543 1152.9906c-.60942.128-1.50602.7436-2.72454 1.8863-2.2047 2.0674-3.94591 5.3669-3.94588 7.3565 0 1.9895 1.74121 2.9242 3.94588 2.0749 2.20468-.8494 4.03984-4.1488 4.03984-7.3565 0-2.9548-.29959-4.1746-1.3153-3.9612z"/><path d="m1084.5598 1186.0004c-.9836.1521-1.0334 1.6176-1.0334 4.5271 0 3.4152-1.9872 6.1304-4.5096 6.1304-6.6488 0-5.4827 4.0754 2.2548 7.9223 3.7204 1.8497 9.1319 3.5687 12.0255 3.7726 8.3109.5853 6.6856-13.0765-2.2548-18.9571-3.5815-2.3558-5.4989-3.5473-6.4825-3.3953z"/><path d="m843.39099 1191.9422c-.4729.0707-1.02223.2139-1.69109.4715-2.56617.9886-4.69749 2.3657-4.69749 3.0181 0 2.4443 5.75045 1.0758 7.51598-1.792.78996-1.2831.29135-1.9099-1.1274-1.6976z"/><path d="m819.15198 1220.8022c-1.55593 0-3.67556 1.3581-4.69749 3.018s.24063 3.0181 2.81849 3.0181 4.69749-1.3582 4.69749-3.0181-1.26257-3.018-2.81849-3.018z"/><path d="m776.21698 1247.1157c-.13815-.0217-.24049.0424-.3758.0943-1.08251.415-3.66404.7961-5.73093.8488-2.11686.0541-1.22036 2.0311 2.06689 4.5271 7.29876 5.5419 7.32269 5.5404 6.38858-.8488-.37162-2.5418-1.38171-4.4697-2.34874-4.6214z"/><path d="m743.42854 1248.8134c-1.42855-.0414-2.00325.7603-.84555 2.6407.85159 1.3833-.18426 2.6041-2.34874 2.7351-3.02665.1833-3.07809.6213-.1879 1.792 6.53241 2.6461 4.05331 7.2611-3.19429 5.9418-5.10686-.9297-8.48655 1.0215-12.77715 7.4507-3.20854 4.8078-7.70255 8.7665-10.05262 8.7712-6.90366.0141-15.31379 9.4156-15.31379 17.1651 0 3.9447-2.12221 7.9678-4.69749 8.9598-2.5753.9921-4.0178 3.5045-3.19429 5.6588 1.95166 5.1057-5.82391 11.9721-8.54942 7.5451-1.07153-1.7405-3.94769-3.1123-6.38857-3.1123-3.56194 0-3.81105 1.1908-1.1274 6.2247 1.83901 3.4496 2.6262 8.3054 1.69109 10.7518-.93513 2.4464-.50314 3.7244.9395 2.8294 2.4776-1.5372 6.63258 6.8159 10.71026 21.4092 1.00209 3.5863 5.47596 8.7953 9.95867 11.6006s16.50643 13.8047 26.68171 24.4272c16.34616 17.0648 19.84692 19.3216 30.06389 19.4287 6.3599.0666 18.99662 3.4543 28.09095 7.5451 13.63687 6.1341 19.43342 7.155 33.07029 5.6588 17.76385-1.949 21.20911-3.3916 16.15934-6.6963-1.76442-1.1547-4.14001-5.8706-5.26118-10.4688-1.1212-4.5982-4.87378-11.6293-8.36152-15.6561l-6.38858-7.3565-5.54303 6.602c-3.08967 3.6452-4.90694 4.6142-4.03984 2.0749 1.26765-3.712-.87924-4.5129-10.71026-3.9612-10.61769.5958-12.61319-.3447-15.1259-6.9792-1.59149-4.2022-2.31645-8.5459-1.59714-9.7143.71934-1.1684-2.4886-3.8748-7.14018-5.9418-8.14761-3.6204-8.3469-4.1498-5.44908-16.4106 3.28707-13.9075 11.7714-23.2954 20.95078-23.2954 4.81179 0 5.65763-1.7686 4.88538-9.8087-.81807-8.5174-2.04218-9.8896-9.48891-9.9972-6.81441-.0985-9.43853-2.1206-12.77716-10.0916-2.31083-5.5171-4.22773-14.1665-4.22773-19.24s-2.36754-11.9579-5.26119-15.2788c-3.80308-4.3647-4.01136-5.3849-.75159-3.5839 2.48027 1.3703 1.80383-.1947-1.5032-3.4897-3.66385-3.6504-8.51725-6.0615-10.89816-6.1303z"/><path d="m1119.697 1284.181c-8.1717-.0954-19.7877 1.2218-28.9365 3.6782-8.4848 2.2781-17.0076 7.2642-21.8903 12.8267-5.1395 5.8551-13.2703 10.5672-22.9237 13.1096-14.8785 3.9184-32.8064 17.2512-29.7821 22.1637 2.2143 3.5966 4.0439 3.2026 9.2071-1.9805 5.1981-5.2183 10.0526-5.9798 10.0526-1.5091 0 4.8866 14.7299-.0472 23.0177-7.7337 4.1138-3.8154 11.2177-10.4437 15.7835-14.7129 9.553-8.9323 13.5663-9.4795 25.3664-3.301 7.3673 3.8574 9.5449 3.9605 16.6291.2829 8.1955-4.2544 16.64-17.6257 13.2469-21.0319-1.1406-1.1451-4.8677-1.7348-9.7707-1.792z"/><path d="m1039.2761 1287.2934c-2.2816-.0319-3.852.8567-3.852 2.6407 0 1.5242-.8961 5.1052-1.9729 7.9224-1.625 4.2511-.7304 4.7467 5.2612 2.9237 10.6881-3.2519 14.0283-7.2994 8.7373-10.6574-2.8741-1.8242-5.8921-2.7976-8.1736-2.8294z"/><path d="m482.5303 1341.901c-1.04439.0432-1.94321.2531-2.44269.7545-.99899 1.0029.77664 1.7344 3.94589 1.6033 3.50229-.1448 4.18333-.8285 1.78504-1.7919-1.08513-.4359-2.24385-.6091-3.28824-.5659z"/><path d="m719.18953 1441.5906c-10.90036.6945-11.82287 6.0008-5.54304 21.3149 2.5456 6.2079 5.61819 11.3008 6.85833 11.3177 1.24014.0168 2.04044-.9243 1.78504-2.1693-.86475-4.2156 9.50903-24.8988 12.49531-24.8988 1.63133 0 3.00639-1.1557 3.00639-2.5464 0-1.3908-6.02297-2.7402-13.34085-3.0181-1.97099-.0748-3.704-.0992-5.26118 0z"/></g><path d="m3.7485016.48023881-.0588843.1751449-.184631-.00123219.1493023.10982658-.0582218.17424705.151158-.10726822.148648.10892257-.0558814-.17612208.1500914-.10692907-.1856948-.00158116z"/><path d="m2.9166411.62707636.0103068.18449083-.1719078.06736324.1793952.04658762.0105891.18341135.1005652-.15569805.1784521.04599092-.1172423-.14281431.0997006-.1549872-.1730251.0674339z"/><path d="m2.2065317 1.0343582.0610421.1744046-.1464991.1123749.1852793-.0049647.0610141.1732891.0534665-.1774728.1842077-.0052766-.152235-.1047195.0528327-.1765501-.147553.1127525z"/><path d="m1.6593806 1.6839984.1207802.1398401-.095045.1582926.1705333-.0726049.1203449.1388126-.0153851-.1847122.1694219-.0725018-.1800416-.0415534-.0156362-.1836213-.0958868.1590306z"/><path d="m1.3764208 2.4673476.1618937.0890703-.0340211.1814736.1346095-.1274103.1611281.0882586-.0787007-.1678139.1336034-.1269268-.1832489.0236956-.0785565-.1667038-.0345535.1824583z"/><path d="m1.3737449 3.3112133.1827838.0270773.0313444.181955.0817781-.1663294.1817833.0265833-.1322423-.1298742.0810036-.1655256-.1635081.0860626-.1317203-.1288838.0311886.1830635z"/><path d="m1.6587408 4.0879195.1820018-.0319127.0870957.1628019.025186-.1836268.1808967-.0320663-.166436-.0815744.0247044-.1826199-.128049.1332109-.1656285-.0807991.0872971.163903z"/><path d="m4.5811513.62707636-.0103068.18449083.1719078.06736324-.1793952.04658762-.0105891.18341135-.1005652-.15569805-.1784521.04599092.1172423-.14281431-.0997006-.1549872.1730251.0674339z"/><path d="m5.2912607 1.0343582-.0610421.1744046.1464991.1123749-.1852793-.0049647-.0610141.1732891-.0534665-.1774728-.1842077-.0052766.152235-.1047195-.0528327-.1765501.147553.1127525z"/><path d="m5.8384118 1.6839984-.1207802.1398401.095045.1582926-.1705333-.0726049-.1203449.1388126.0153851-.1847122-.1694219-.0725018.1800416-.0415534.0156362-.1836213.0958868.1590306z"/><path d="m6.1213716 2.4673476-.1618937.0890703.0340211.1814736-.1346095-.1274103-.1611281.0882586.0787007-.1678139-.1336034-.1269268.1832489.0236956.0785565-.1667038.0345535.1824583z"/><path d="m6.1240475 3.3112133-.1827838.0270773-.0313444.181955-.0817781-.1663294-.1817833.0265833.1322423-.1298742-.0810036-.1655256.1635081.0860626.1317203-.1288838-.0311886.1830635z"/><path d="m5.8390516 4.0879195-.1820018-.0319127-.0870957.1628019-.025186-.1836268-.1808967-.0320663.166436-.0815744-.0247044-.1826199.128049.1332109.1656285-.0807991-.0872971.163903z"/></g></svg>