<?xml version="1.0" encoding="UTF-8" standalone="no"?>
<!-- Created with Inkscape (http://www.inkscape.org/) -->

<svg
   xmlns:dc="http://purl.org/dc/elements/1.1/"
   xmlns:cc="http://creativecommons.org/ns#"
   xmlns:rdf="http://www.w3.org/1999/02/22-rdf-syntax-ns#"
   xmlns:svg="http://www.w3.org/2000/svg"
   xmlns="http://www.w3.org/2000/svg"
   version="1.0"
   width="324"
   height="216"
   id="svg2">
  <metadata
     id="metadata41">
    <rdf:RDF>
      <cc:Work
         rdf:about="">
        <dc:format>image/svg+xml</dc:format>
        <dc:type
           rdf:resource="http://purl.org/dc/dcmitype/StillImage" />
        <dc:title></dc:title>
      </cc:Work>
    </rdf:RDF>
  </metadata>
  <defs
     id="defs5" />
  <path
     d="M 0,0 L 324,0 L 324,216 L 0,216 z"
     id="rect6117"
     style="fill:#ce1126;fill-opacity:1;fill-rule:nonzero;stroke:none" />
  <path
     d="M 0,0 L 0,216 L 13.4375,216 L 27.3125,202 L 324,202 L 324,189 L 40.21875,189 L 121.9375,108 L 41.625,26 L 324,26 L 324,13 L 28.6875,13 L 15.75,0 z"
     id="path4171"
     style="fill:#008a22;fill-opacity:1;fill-rule:evenodd;stroke:none" />
  <path
     d="M 0,0 L 107.50171,108 L 0,216 z"
     id="path4173"
     style="fill:#ffffff;fill-opacity:1;fill-rule:evenodd;stroke:none" />
  <path
     d="M 38.315768,120.97548 L 30.510131,123.84612 L 32.9152,115.88469 L 24.637044,115.0843 L 30.258265,108.95484 L 23.147181,104.64195 L 30.871202,101.55845 L 26.335627,94.587293 L 34.63261,95.160479 L 33.570871,86.91177 L 40.797498,91.028121 L 43.419884,83.13562 L 48.144832,89.97984 L 53.931949,84.006753 L 55.219385,92.223259 L 63.025021,89.35263 L 60.619953,97.314045 L 68.898108,98.114435 L 63.276888,104.2439 L 70.387972,108.55678 L 62.663951,111.64029 L 67.199525,118.61144 L 58.902542,118.03826 L 59.964282,126.28697 L 52.737655,122.17062 L 50.115269,130.06312 L 45.39032,123.2189 L 39.603204,129.19198 L 38.315768,120.97548 z"
     id="path2161"
     style="fill:#ffcc00;fill-opacity:1;fill-rule:nonzero;stroke:#604011;stroke-width:1;stroke-miterlimit:4;stroke-opacity:1;stroke-dasharray:none" />
  <path
     d="M 34.142318,87.349434 L 41.251989,98.832895"
     id="path4103"
     style="fill:none;stroke:#604011;stroke-width:1px;stroke-linecap:butt;stroke-linejoin:miter;stroke-opacity:1" />
  <path
     d="M 40.822281,90.811675 L 43.114058,97.400535"
     id="path4105"
     style="fill:none;stroke:#604011;stroke-width:1px;stroke-linecap:butt;stroke-linejoin:miter;stroke-opacity:1" />
  <path
     d="M 43.543767,83.506635 L 44.832891,96.970826"
     id="path4109"
     style="fill:none;stroke:#604011;stroke-width:1px;stroke-linecap:butt;stroke-linejoin:miter;stroke-opacity:1" />
  <path
     d="M 47.697613,89.52255 L 47.411141,96.684354"
     id="path4111"
     style="fill:none;stroke:#604011;stroke-width:1px;stroke-linecap:butt;stroke-linejoin:miter;stroke-opacity:1" />
  <path
     d="M 53.713528,84.366052 L 49.559682,97.257298"
     id="path4115"
     style="fill:none;stroke:#604011;stroke-width:1px;stroke-linecap:butt;stroke-linejoin:miter;stroke-opacity:1" />
  <path
     d="M 55.432361,91.671092 L 51.421751,97.543771"
     id="path4117"
     style="fill:none;stroke:#604011;stroke-width:1px;stroke-linecap:butt;stroke-linejoin:miter;stroke-opacity:1" />
  <path
     d="M 63.023873,89.52255 L 52.997347,98.689659"
     id="path4121"
     style="fill:none;stroke:#604011;stroke-width:1px;stroke-linecap:butt;stroke-linejoin:miter;stroke-opacity:1" />
  <path
     d="M 60.588859,97.400535 L 54.143236,100.55172"
     id="path4123"
     style="fill:none;stroke:#604011;stroke-width:1px;stroke-linecap:butt;stroke-linejoin:miter;stroke-opacity:1" />
  <path
     d="M 68.753316,98.259951 L 55.289125,102.41379"
     id="path4125"
     style="fill:none;stroke:#604011;stroke-width:1px;stroke-linecap:butt;stroke-linejoin:miter;stroke-opacity:1" />
  <path
     d="M 63.317543,104.08347 L 56.005305,104.99204"
     id="path4127"
     style="fill:none;stroke:#604011;stroke-width:1px;stroke-linecap:butt;stroke-linejoin:miter;stroke-opacity:1" />
  <path
     d="M 69.703836,108.18519 L 55.575596,106.42441"
     id="path4129"
     style="fill:none;stroke:#604011;stroke-width:1px;stroke-linecap:butt;stroke-linejoin:miter;stroke-opacity:1" />
  <path
     d="M 62.880636,111.5809 L 55.718833,109.43236"
     id="path4131"
     style="fill:none;stroke:#604011;stroke-width:1px;stroke-linecap:butt;stroke-linejoin:miter;stroke-opacity:1" />
  <path
     d="M 66.57002,118.13501 L 55.002653,110.86472"
     id="path4133"
     style="fill:none;stroke:#604011;stroke-width:1px;stroke-linecap:butt;stroke-linejoin:miter;stroke-opacity:1" />
  <path
     d="M 58.72679,118.313 L 53.570292,113.01326"
     id="path4135"
     style="fill:none;stroke:#604011;stroke-width:1px;stroke-linecap:butt;stroke-linejoin:miter;stroke-opacity:1" />
  <path
     d="M 59.593405,125.482 L 51.278515,114.87533"
     id="path4139"
     style="fill:none;stroke:#604011;stroke-width:1px;stroke-linecap:butt;stroke-linejoin:miter;stroke-opacity:1" />
  <path
     d="M 52.567639,122.89655 L 49.416446,115.59151"
     id="path4141"
     style="fill:none;stroke:#604011;stroke-width:1px;stroke-linecap:butt;stroke-linejoin:miter;stroke-opacity:1" />
  <path
     d="M 49.98939,129.19894 L 47.554377,116.02122"
     id="path4143"
     style="fill:none;stroke:#604011;stroke-width:1px;stroke-linecap:butt;stroke-linejoin:miter;stroke-opacity:1" />
  <path
     d="M 45.405836,123.32626 L 45.97878,115.1618"
     id="path4147"
     style="fill:none;stroke:#604011;stroke-width:1px;stroke-linecap:butt;stroke-linejoin:miter;stroke-opacity:1" />
  <path
     d="M 39.676393,128.91247 L 43.973475,115.44828"
     id="path4149"
     style="fill:none;stroke:#604011;stroke-width:1px;stroke-linecap:butt;stroke-linejoin:miter;stroke-opacity:1" />
  <path
     d="M 30.795756,123.75597 L 40.392573,112.87003"
     id="path4151"
     style="fill:none;stroke:#604011;stroke-width:1px;stroke-linecap:butt;stroke-linejoin:miter;stroke-opacity:1" />
  <path
     d="M 32.801061,116.02122 L 38.960212,111.86737"
     id="path4153"
     style="fill:none;stroke:#604011;stroke-width:1px;stroke-linecap:butt;stroke-linejoin:miter;stroke-opacity:1" />
  <path
     d="M 24.923077,114.7321 L 37.964758,110.06464"
     id="path4155"
     style="fill:none;stroke:#604011;stroke-width:1px;stroke-linecap:butt;stroke-linejoin:miter;stroke-opacity:1" />
  <path
     d="M 30.222812,109.14589 L 37.527851,107.57029"
     id="path4157"
     style="fill:none;stroke:#604011;stroke-width:1px;stroke-linecap:butt;stroke-linejoin:miter;stroke-opacity:1" />
  <path
     d="M 24.241651,104.73015 L 36.811671,105.70822"
     id="path4159"
     style="fill:none;stroke:#604011;stroke-width:1px;stroke-linecap:butt;stroke-linejoin:miter;stroke-opacity:1" />
  <path
     d="M 30.65252,101.55438 L 37.384615,103.84615"
     id="path4161"
     style="fill:none;stroke:#604011;stroke-width:1px;stroke-linecap:butt;stroke-linejoin:miter;stroke-opacity:1" />
  <path
     d="M 26.498674,94.679049 L 37.95756,102.12732"
     id="path4163"
     style="fill:none;stroke:#604011;stroke-width:1px;stroke-linecap:butt;stroke-linejoin:miter;stroke-opacity:1" />
  <path
     d="M 34.621177,95.234616 L 39.676393,100.55172"
     id="path4165"
     style="fill:none;stroke:#604011;stroke-width:1px;stroke-linecap:butt;stroke-linejoin:miter;stroke-opacity:1" />
  <path
     d="M 38.244032,121.17772 L 41.395225,114.15915"
     id="path4167"
     style="fill:none;stroke:#604011;stroke-width:1px;stroke-linecap:butt;stroke-linejoin:miter;stroke-opacity:1" />
  <path
     d="M 56.041398,106.19151 A 9.4000083,9.4000008 0 1 1 37.241382,106.19151 A 9.4000083,9.4000008 0 1 1 56.041398,106.19151 z"
     id="path4169"
     style="fill:none;stroke:#604011;stroke-width:0.99999976;stroke-miterlimit:4;stroke-opacity:1;stroke-dasharray:none" />
</svg>
