<svg height="750" width="1500" xmlns="http://www.w3.org/2000/svg"><g transform="translate(35.821735 439.05026)"><path d="m-35.821735-439.05026h1500v750h-1500z" fill="#003d07"/><g transform="matrix(.11129706 0 0 .10883531 790.9196 -137.5007)"><g transform="matrix(8.9876989 0 0 9.1852387 -7108.3373 1263.1939)"><path d="m670.66633-343.52178 1.24849-1.19325.70711 1.78987z" fill="#806600" stroke="#806600"/><path d="m757.10152 188.68646c-24.12348-1.55607-24.52266-1.27335-31.40476-3.17283-3.20935-.88577-7.28853-1.9498-7.71215-2.12411-.42363-.17432-1.80945-.55514-2.48487-.63807-.67542-.0829-2.80524-.72322-3.00953-.94733-.20427-.22407 36.54753-88.90676 80.64309-196.2148l80.07434-194.86364-1.86616-4.67222c-2.47957-6.20797-4.87088-9.9211-8.88769-12.79761-1.00479-.71955-2.09005-1.42848-3.26558-2.03505-1.17552-.60659-2.4647-1.04105-3.83052-1.52976-1.36583-.48872-2.78587-.78161-4.36154-1.14757-1.57574-.36566-3.32197-.55341-5.08745-.99843l-2.4922-.62819 1.95507-1.97754c1.71543-1.73515 4.93771-3.6091 6.9348-3.62628 2.64802-.0228 19.29882 3.5244 25.83111 5.42085 8.30358 2.41069 17.43316 6.75817 24.99966 12.68474l6.55303 4.66235 1.14775 4.87778c1.76999 7.52225 2.71063 10.65353.52763 15.43902-.97551 2.13847-27.89386 86.44655-61.30558 187.48232-33.41173 101.03577-61.75012 186.9848-63.10844 191.14743-2.19165 6.7163-1.93844 8.22939-2.92093 8.18227-.60892-.0292-12.97537-1.62324-26.92908-2.52333z" fill="#f3ae00"/><path d="m586.86083-249.13384c7.64628-10.92309 24.68873-31.61144 34.2032-43.50498 4.75978-6.50739 10.05057-12.82059 15.2139-19.07183.30815.29021 1.01376.79551 1.2909 1.06741l-24.35294 30.77404c-23.16537 29.27335-23.90908 31.16546-24.17775 31.15833-.59937-.12384-1.59799-.27455-2.17731-.42297z" fill="#f3ae00"/><path d="m631.54436 246.94673c-7.203-1.55604-8.57539-3.61032-16.13595-16.19536l-1.23019-1.5111-1.47996 1.54237c-3.73259 3.88997-12.74113 4.69682-18.98707 2.94635-6.89343-1.93194-11.92123-11.78121-11.4009-18.09835.70908-8.60869 8.98926-13.67402 17.01416-12.17652 3.50309.6537 8.57877 5.13848 10.10897 9.04419 1.24416 3.1756 1.32852 4.25098-.0547 6.15512-.78473 1.08026-2.6447 2.46715-4.24455 3.00002-2.57841.85879-4.28736.97235-7.99839-.29624-3.94005-1.34686-4.80274-1.81039-4.79181-.5385.007.86143 4.74817 2.05349 7.93714 2.53535 3.6251.54776 8.09386-.79361 10.11534-3.40947 2.00032-2.58848-.55181-9.79617-.765-9.96959-1.27871-1.04017-4.6119-7.37029-10.38896-17.18104-5.80411-9.8567-13.74537-22.80705-21.82435-36.80611l-29.35186-50.8601-4.51931.13933c-4.68989.1446-7.61026-2.8312-7.62768-4.85787-.007-.75621.7266-2.73249 1.71134-3.92342 2.20269-2.6639 2.14334-2.12708-.10487-4.75271-2.29849-2.68443-1.97808-3.85993.34211-6.66598 1.05581-1.27689 2.09475-2.6778 1.88798-3.38101-.20135-.68474-3.88412-7.08254-6.16366-14.22675-9.43063-29.55615-13.61186-54.96717-17.19735-82.63925-2.89221-22.32151-.14362-58.99038 4.35362-85.98071 7.98282-47.90931 29.27484-93.7869 54.84225-125.86025 1.70602-2.14015 3.64213-4.05805 3.63948-4.36586-.003-.30781-1.11341-1.15193-1.91804-2.15694-1.73832-2.17125-2.39543-4.46351-.90845-5.71932 1.49626-1.26369 1.22057-3.81812.4875-3.96718l-2.01455-.40971 1.71604-2.74941c1.3314-2.1331 4.88105-2.03218 10.89184-1.11924 2.25776.34291 2.04554-.13131 25.79749-30.49293 13.25245-16.94034 24.93974-31.77629 25.20746-31.85667.26772-.0804 10.06972 8.74355 20.36295 18.92459l19.07293 18.86504-7.53898 6.8611c-53.2805 48.48971-92.3275 116.2761-99.89112 178.9571-2.13784 17.71667-1.66586 42.50502 1.03123 60.05201 5.30012 34.48213 17.19159 66.47619 40.86988 116.844l6.26669 12.17908 15.83608 17.41154c8.75987 9.63135 18.58046 20.50492 21.93435 24.38195l6.41869 7.4199-6.52101 7.68646c-22.2768 26.25816-33.19304 50.11167-35.41602 64.00419-1.5404 9.62675 1.58725 15.27084 9.0673 18.17766 16.24503 6.31297 44.77217-7.57243 86.44519-43.25476 4.87312-4.17256 12.94318-11.59454 13.11908-11.42162.1759.1729 2.53041-.1922-.984 3.35791-8.79559 8.88496-17.92755 17.08595-26.74787 24.31028-8.82029 7.22433-17.50256 13.4878-25.746 18.52925-8.24346 5.04145-20.77391 11.52465-23.11312 11.19722-5.45236 3.52896-17.98769 3.05221-21.4114 2.32191z" fill="#f3ae00"/><path d="m641.33299 126.21793c-11.63523-12.99094-22.43933-25.08542-22.52444-25.32944-.0851-.24401 32.75436-48.77875 72.12669-108.74039 63.62353-96.89474 76.05506-115.37833 110.82963-165.7009 21.51964-31.14126 39.72284-57.67486 40.00923-58.06566 2.73157-3.72738 22.38528 4.36549 22.62513 8.22383.0306.49274-200.4595 373.11521-201.35219 374.02632-.20916.21348-10.07881-11.42282-21.71405-24.41376z" fill="#f3ae00"/><path d="m600.41217 202.84939-7.86446-12.96783c-9.1019-15.00824-15.45573-25.93692-22.95452-38.49404-7.49878-12.55714-14.90786-27.05965-20.85878-38.07342l-3.89106-6.65154 1.51183-.13818c-.13488.0772 1.07647-.41028 1.48198.71086.0456.0517 14.05677 24.09719 28.06468 48.1502 14.00789 24.053 28.32495 48.64925 28.35717 48.73112-.49317-.0319-3.10259-1.25157-3.84684-1.26717z" fill="#f3ae00"/><path d="m633.93869 241.99191c-7.61224-1.11255-10.87436-5.85463-12.05637-12.86365-2.10947-12.50847 8.52987-35.37791 28.81214-61.127 4.60888-5.85115 13.05146-15.07686 13.3192-15.07917.0679-.00055 11.17142 6.71091 24.02612 14.96354l23.17843 14.88038 8.0699 2.2876c4.12936 1.17056 7.8527 2.07523 7.85376 2.19786.005.63903-23.94541 20.87583-32.56349 27.46405-26.02453 19.89478-44.7787 29.42398-57.19966 27.60861z" fill="#f3ae00"/><path d="m687.89106 166.28262c-12.44998-7.85007-23.71428-14.19552-23.65328-14.49977.13486-.67255 200.26156-373.79024 200.8191-374.40988.53598-.59569 3.27261 4.18755 4.84113 9.30717l1.67461 4.1987-79.77989 194.5225c-43.89316 107.02204-80.06347 195.54174-80.32768 195.61143-.2642.0697-11.12401-6.88009-23.57399-14.73015z" fill="#c37b24"/><path d="m903.10219-222.91952c-14.27465-9.04315-22.95985-12.30126-40.14106-15.40986l-9.02627-1.63312 3.86191-6.35409c1.90101-3.12773 3.84621-6.02657 3.93324-6.12466.25788-.29064 11.28434 1.70303 16.26935 2.80129 2.53758.55906 6.84918 1.81477 9.24823 2.6275 4.73201 1.60305 19.48661 8.69842 19.77371 9.54732.21475.63498 2.26811 19.10874 2.14764 19.22733-.047.0462-2.17971-1.89154-4.67891-3.69866z" fill="#fc0"/><path d="m616.70899-331.28676-.44102-7.09648 54.23647-37.86765 4.65023 4.66019" fill="#f3ae00" stroke="#c37b24" stroke-width="1.8"/><path d="m752.63403-262.65273c-1.22628-1.88953-4.60625-5.3606-6.54821-6.74396-2.06196-1.38233-5.11389-2.75614-7.34724-3.13696-3.51589-.66979-8.55141-.12649-12.74836 1.40965-1.04737.30902-2.07476.61787-2.27475.61958-.20085-.0983-4.06392-2.76516-8.60213-6.02627l-8.24128-5.92938.21109-2.20189c.2385-2.50214.0519-5.60066-.47446-7.4962-.98006-3.4917-3.71918-6.86828-7.00454-8.64011-3.1545-1.67294-8.25291-2.62915-12.70188-2.49089-1.06996.009-2.08079-.0821-2.25163-.18065-.17086-.0986-2.57796-2.07792-5.34763-4.35419-3.56567-2.96945-5.03851-4.45685-5.05195-4.85675-.003-.3.0928-2.00087.21732-3.80201.55379-7.70505-.83195-10.69324-7.04126-15.24003-1.2677-.88914-2.35453-1.67983-2.40539-1.77939-.22257-.2981 2.83841-2.52449 3.12097-2.22691.17085.0986 1.24941 1.0893 2.39882 2.17946 2.65226 2.57729 6.23276 4.9466 8.71126 5.92533 3.37106 1.27107 6.35267 1.44545 11.35646.7024 1.03825-.20894 1.0891-.10937 5.13592 4.156l4.08682 4.26502-.67673 2.70593c-1.15044 4.61005-.56035 8.10512 1.96793 11.3835 1.67885 2.18565 4.29508 4.06323 7.1653 5.2386 2.30679.7802 7.7352 1.73353 10.22424 1.61216l1.71907-.11478 5.86675 4.24973c3.22051 2.37239 5.99846 4.44859 6.16018 4.64721.16171.19861.30773.89738.31288 1.49737.0163 1.89993 1.49153 5.98739 2.83696 7.77589.71771.89387 2.05884 2.18238 3.12481 2.87325 4.58648 3.06068 11.80793 3.1986 16.91281.25461l1.94048-1.11672 8.57882-.17375 8.57968-.0738 1.84025 1.18423c1.01598.69129 2.75365 1.57638 3.85705 1.96692 1.1034.39052 1.99681.78285 1.96766.88311.00084.1-.39482.60341-.83137 1.00718-1.1105 1.10959-2.72723 3.82359-3.92483 6.43399l-1.01019 2.30877-11.14842 1.39589c-6.12376.75267-11.2784 1.397-11.45839 1.39855-.17086-.0986-.716-.69387-1.20286-1.48971z" fill="none"/><path d="m750.66936-258.53569c-1.51004-3.48715-3.66317-6.16874-6.32855-7.94589-2.01195-1.38276-3.25621-1.87208-5.76042-2.35056-2.36421-.47972-3.61416-.46895-5.88236-.24945-2.58732.32226-5.23035 1.145-7.44995 2.36413l-1.1448.60987-10.66408-7.4086-10.66322-7.3086.22306-.80196c.47623-1.60415.94124-4.50826.90096-5.70796-.18728-5.49859-2.7907-9.37635-7.61772-11.33493-.88341-.39241-1.55511-.58665-3.12675-.77318-2.7642-.47626-5.29325-.35451-7.94713.36832l-1.06824.20919-7.02875-5.63978-7.01873-5.63987.18311-.8016c1.59888-7.11402 1.68858-8.31483.77369-11.20707-1.10006-3.49067-4.16487-6.36443-9.92131-9.41505-.97512-.59165-1.79853-.98458-1.82939-1.08432 0 0 9.51345-7.78207 10.08999-8.18704 0 0 1.22285 1.48954 2.64913 3.37734 4.44056 5.86205 6.11167 7.14774 9.87669 7.71538 2.01251.28271 4.68069.0598 8.40368-.77227l2.6256-.52259 5.77137 5.95061c5.36708 5.45407 5.76137 5.9507 5.61395 6.25197-1.04105 2.20903-1.1776 2.61022-1.57039 4.61367-.47938 2.4042-.4499 3.504.17727 5.49869.32945 1.09719.61374 1.59478 1.53402 2.78691.95114 1.29187 1.34456 1.6885 2.5114 2.4785 2.12195 1.3818 2.92451 1.67492 5.88955 2.24945 2.14421.48166 2.75506.57632 3.88416.46662 1.59994-.0138 3.48643-.42998 4.33382-.73727.5674-.3049.62826-.20541.97997-.008.20171.19828 3.39222 2.57093 7.07616 5.33936l6.70274 4.94256-.11711 1.50106c-.43098 5.70393 1.76848 10.28519 5.90467 12.14969 1.74682.78502 4.48929 1.06143 6.68577.64255 2.08648-.41795 4.57694-1.5394 6.6131-3.15696l.97395-.7084 9.81964-.0844 9.81049.0157.57342.39509c3.10052 2.37343 5.48075 3.55302 8.57407 3.92644 1.9925.28287 3.19246.27256 5.03895-.14333 3.12473-.62688 5.81658-2.75011 7.37159-5.66358.50138-1.00434 1.27244-3.21106 1.21986-3.51061-.002-.19999.0963-.4009.19568-.50171.19913-.10172 16.84006-7.04502 17.53831-7.25104.10911-.10095 1.06255.29086 2.10595.68192 3.92274 1.46634 5.97524 1.7487 8.65085 1.22568.0992-.10086.004.49998-.11054 1.10099-.2771 1.50244-.34247 3.20307-.24239 6.70234.012 1.39994.0232 2.6999.0241 2.79989.00085.1-5.27831 2.54546-11.66401 5.40047l-11.62572 5.20013-1.50682-.78707c-.83341-.39285-1.69681-.78545-1.93853-.98338-1.89766-.88371-5.88611-1.84946-7.82605-1.83275-3.63986.0313-6.50687 1.55599-8.80012 4.67582-1.19621 1.61035-2.96176 5.62567-3.37369 7.72929l-.14395.70127-.97911.10841c-1.96735.31693-27.00235 3.33226-27.26233 3.3345-.17.001-.39257-.29664-.69858-.99404zm14.58882-2.52551c6.66288-.85731 12.20666-1.60499 12.31665-1.60594.10912-.10095.52224-.90452.91363-1.90793 1.17503-2.91021 3.02831-6.02625 4.51536-7.53909.35655-.40308 1.23135-1.01062 1.95703-1.51688l1.30222-.91123-1.08168-.19071c-3.98673-.76575-7.26951-2.23759-9.20405-3.92102l-.60514-.59482-9.42879.18106c-7.9597.0684-9.47964.0815-9.71706.38356-.63567.50548-2.43702 1.521-3.48353 1.93001-1.44479.61245-3.62128 1.03117-5.38121 1.04631-2.04906.11761-5.10411-.45615-6.60094-1.24331-1.77766-.88475-2.7045-1.67682-3.90821-3.26652-1.66886-2.18574-2.44688-4.27913-2.72524-7.57686-.10688-.7991-.19375-1.59839-.27461-1.69769-.10086-.0991-3.06051-2.37379-6.62274-4.94325l-6.48103-4.74446-1.42908.11228c-2.99903.12579-3.63987.0313-6.75491-.54194-2.68506-.57692-3.16591-.67278-4.38016-1.1624-7.00724-3.13987-9.67045-9.31721-7.03986-16.24008.28396-.70247.53794-1.40467.55707-1.50485-.002-.19998-9.4082-10.21949-9.67904-10.31717-.1.00085-.88825.20765-1.7765.41529-3.82298.83289-7.32457.663-10.48563-.60988-3.17106-1.27279-5.97901-3.34872-10.19496-7.51263-1.26113-1.28921-1.69369-1.5855-1.82283-1.48439-.0991.10085-1.36049 1.11174-2.82012 2.32433l-2.65099 2.22288 2.99795 2.0743c3.46135 2.47033 4.86162 3.65834 5.94534 5.24908 1.72143 2.48529 2.08721 5.48226 1.4931 11.98761-.12795 1.40115-.19763 2.6018-.14764 2.60136.23258.29801 11.58383 9.70078 11.75382 9.69932.11086.0991 1.05082.091 2.08993-.018 5.32894-.14582 10.13822.91288 13.16444 2.78693 4.74647 3.05931 6.60767 7.84349 5.79874 14.9507l-.27022 2.30242 9.22726 6.62092 9.22726 6.62091.92653-.40798c4.96348-1.94274 8.25819-2.57108 11.96064-2.3029 2.93161.1748 6.03095 1.2482 8.49548 2.92708 2.38452 1.67956 5.08936 4.55641 6.9025 7.24093.55772.89523 1.08372 1.59074 1.16371 1.59005.1-.00084 5.59464-.64811 12.25751-1.50543zm48.84323-16.12049c5.88829-2.55071 10.72006-4.69233 10.73919-4.79249-.00084-.1-.012-1.39995-.18406-2.79853-.16719-1.99863-.16579-2.99868-.0327-3.79985l.21141-1.00185-2.74507-.57641c-2.68419-.47695-2.76419-.47626-4.07102-1.26506-.74341-.39362-1.41597-.68785-1.5251-.5869-.1.00084-3.78696 1.5326-8.20047 3.47062-4.40436 1.83793-8.07132 3.36951-8.14046 3.47011-.0992.10085-.41398.70359-.73881 1.3064-1.03191 2.10895-2.45294 4.32125-4.01654 6.23476l-1.50447 1.813 1.00082.0914c.56084.0952 1.69251.28548 2.51335.37841 1.28259.28872 1.69423.48544 2.72935 1.07658.66256.29431 1.58768.88639 2.0511 1.28242.46256.29603.92427.49207 1.02426.4912.1-.00084 4.99177-2.14298 10.87919-4.79369z" fill="none"/><path d="m833.53503-286.14908c-2.79192-1.37605-2.98373-5.07453-.35672-6.59718 2.05046-1.11766 4.56467-.63926 5.97095 1.24872.68772.89412.98716 1.99159.8149 2.8931-.24971 1.20219-1.68759 2.61461-3.11495 2.92689-.89824.20772-2.41991.0208-3.31418-.47153z" fill="none"/><path d="m631.57674-252.51167c-.13085-.0989-.75255-.29354-1.39424-.48804-3.2602-1.17201-6.37158-3.64535-8.03559-6.43115-.83201-1.3929-1.65346-3.88593-1.78635-5.38484-.13203-1.39891.48129-4.50431 1.12095-5.70985 1.1219-2.10973 2.68895-3.62325 4.8077-4.94152 4.53748-2.6391 10.3864-2.78939 15.5477-.33367 6.07471 2.84788 9.34703 8.91998 7.90522 14.53258-1.4218 5.61243-6.75066 9.25838-13.5104 9.3165-1.01996.009-4.18328-.36406-4.66499-.55992z" fill="none"/><path d="m629.94666-246.69745c-11.40623-3.00205-18.34054-13.94284-15.12576-23.87084 2.06576-6.318 7.35602-10.96365 14.45286-12.52471 3.31386-.72852 6.07376-.75225 9.50965-.0818 4.20672.76387 7.40036 2.33648 10.5826 4.90921.67513.59422 1.2794 1.08904 1.36026 1.18835.11171.19904.31704 7.79756.23135 8.29832 0 0-.31343-.39732-.64943-1.09445-4.35292-8.4629-16.62256-11.85755-24.98013-6.88552-1.61134 1.01389-2.41615 1.62083-3.56493 2.93076-2.21843 2.51916-3.38744 6.12934-3.03822 9.52646.17461 1.69857.99435 3.99161 2.06893 5.68243 1.82572 2.98442 4.24283 4.96371 7.82731 6.63295.97426.49165 1.6351.58597 3.94931 1.06609 2.55421.47806 2.90505.57507 4.40414.46216 6.26805-.2539 11.56034-3.49951 13.66985-8.21781.27484-.60239.42312-.80368.45483-.60394.002.19998.0163 1.89993.0335 3.89986l.0318 3.69986-.49654.40428c-1.69618 1.61464-4.40232 3.23797-6.76536 4.05832-4.64607 1.64-9.26504 1.77971-14.02605.52059z" fill="none"/><path d="m660.11633-272.45775c-.17823-9.09881-.25185-16.49845-.24185-16.49853 0 0 1.40113 1.288 3.04483 2.87393l2.97482 2.87453.19026 10.49875c.149 5.69893.19112 10.59875.0928 10.7996.002.19998-1.03965 1.20898-2.36842 2.52046-1.25963 1.21087-2.55928 2.42209-2.86668 2.72474-.31655.40274-.58482.60505-.59482.60513 0 0-.16361-7.39886-.31098-16.39793z" fill="none"/><path d="m742.68146-254.76689c-2.41506-.57927-4.86015-1.1582-4.96185-1.35739 0 0 .17999-.002.43998-.004.85996-.007 2.16735-.31865 3.10215-.9267 1.0348-.60892 1.69876-1.31465 2.18928-2.41891 1.0202-2.30886-.0447-5.1998-2.51664-6.57861-.88426-.49241-1.76681-.78484-2.60764-.87762-4.34414-.46267-7.56566 2.86515-6.41302 6.65539.22687.79807 1.00629 1.89141 1.71228 2.58537l.50342.39568-.55083-.0953c-.70256-.29396-3.23106-1.27227-4.76616-1.85909-5.29958-2.25452-11.79029-5.79886-18.1353-9.84446-2.98623-1.8744-3.12708-1.97319-3.59222-2.56922-.48428-.49585-1.28941-1.08895-2.30367-1.58026-1.11426-.49043-4.32477-2.86292-8.86641-6.52401-3.10138-2.47343-2.99052-2.37438-3.21739-3.17246-.51546-1.79564-1.91659-3.08364-4.07081-3.56513l-1.06254-.29086-4.0808-3.56505c-5.73363-5.0509-8.0216-7.1313-8.28675-7.72905-.46858-.99601-1.36628-1.88832-2.58225-2.5779-.71255-.29388-1.01513-.59129-3.60825-3.2691-3.95424-3.96616-8.03277-8.43126-11.98388-13.19747-.83857-.99282-1.60629-1.88625-1.71714-1.9853-.18171-.19845-.3317-.19716-4.8538.74175-2.56647.42208-4.87208.94192-5.12208.94406l-.44912.10387 2.40227 2.57944c1.79712 1.98463 2.44398 2.7791 2.55655 3.07814.10257.29913.23515.598.32687.79722.12171.19896.18375 1.59847.23641 5.39817.0241 2.79989.0438 5.09981.0438 5.09981s-31.40191-30.33117-31.86533-30.72721c-.00084-.1 52.29546-35.65087 52.39546-35.65173.12999-.001 3.53339 3.86976 11.90648 13.49814 5.99995 6.94868 13.80618 15.7819 16.7653 19.15658 12.78246 14.19064 23.4432 24.69938 32.51648 32.02165 4.75335 3.85928 9.6324 7.21747 13.73202 9.4823 2.34109 1.27992 6.30212 2.54592 11.59224 3.70048l3.44675.7704-.57507 2.90504c-.31623 1.60279-.60507 2.90531-.64505 2.90566-.1.00084-4.22071-.0637-4.5007-.0613-.10911.10095-.4574.30394-.7748.60668-2.04446 1.81764-4.95318 3.1427-7.5605 3.46513-1.33909.11151-3.3516-.1712-4.44586-.66181-2.10765-.88191-3.58221-2.5693-4.39368-5.06241-.65717-1.99443-.77178-3.69351-.46273-7.2963l-.004-.49998-7.84042-5.83282-7.84043-5.83281-.85739.30738c-2.51132 1.02163-5.38949 1.24638-8.39625.4722-5.45097-1.25324-8.67181-4.82563-8.52136-9.42709.0845-1.80079.75472-4.10664 1.98491-6.41731.2157-.50186.3631-.80315.32224-.90279-.16171-.19863-12.78387-13.1906-12.90471-13.28956-.1.00084-1.33824.21151-2.9556.52543-4.2721.93676-6.16032 1.153-8.22196.97071-2.03165-.18253-3.65847-.96858-5.45387-2.75321-.55514-.59525-1.9697-2.28316-3.78026-4.66768-2.26571-2.98063-2.93343-3.87492-3.07256-3.77372-.12914.10111-.23.002-.43171-.19626-.15085-.0987-.31172-.19733-.37171-.19681-.1.00084-3.01925 2.42604-6.57505 5.25672l-6.46591 5.15577 2.72278 1.47665c3.6862 1.86838 5.06389 2.75657 6.66501 4.04286 3.03223 2.57401 4.25283 4.96361 4.24377 8.56383.0129 1.49994-.62957 4.70558-1.35063 6.91186-.4288 1.30373-.49622 1.60433-.38546 1.70335.10085.0992 13.11149 10.58768 15.47774 12.4674.11086.0991.55998-.005 1.50823-.21297 1.6765-.41442 3.46385-.72979 5.0238-.74321 1.48994-.0128 3.78243.26749 5.01669.7569 4.49359 1.56143 7.02616 5.3398 7.03001 10.43995.0112 1.29996-.58302 4.30517-1.10096 5.70968-.20574.50177-.36139 1.00315-.35139 1.00306 0 0 5.25162 3.65499 11.65921 8.00006l11.64006 8.10024 1.33393-.7115c4.81661-2.7415 10.1704-3.48756 14.53313-2.02501 4.40188 1.36221 7.67184 4.83423 9.63734 10.11752.20428.49827.39857.99661.42858.99636 0 0 3.88641-.43343 4.48553-.53858.18998-.002.19084.0984-.0971 1.50089-.17228.9015-.34624 1.60303-.38621 1.60338-.10085-.0991-.53084-.0954-1.07082-.0908-1.6808-.0856-3.72245-.26801-5.34496-.55408-.86083-.0926-1.69166-.18546-1.85251-.28408-.14999.001-1.51253-.28698-3.02504-.57402zm-49.15813-30.97854c2.20163.18108 4.07555-.53506 5.31347-1.94575 1.12792-1.40975 1.44416-3.01253.91956-4.70808-.26773-.89773-1.39058-2.38813-2.19485-2.88123-3.5105-2.36992-8.12087-1.23024-9.43988 2.38123-.40139 1.00349-.39282 2.00345.0275 3.19988.59546 1.79495 1.96572 2.98321 4.33337 3.86289 0 0 .51085.0956 1.07082.0908zm52.38566 6.24989c1.02997-.009 2.07735-.31787 3.05301-.82628 2.86529-1.72469 3.48861-4.83016 1.47547-7.51296-1.02113-1.29127-2.16711-1.98144-3.97049-2.36596-4.21672-.76377-7.80907 2.46723-6.87644 6.25936.18688.79841.69546 1.79408 1.17973 2.28994.45429.4961 1.64198 1.38593 2.28453 1.68041.5817.195 2.22422.4809 2.85419.47549zm-33.78539-24.91048c1.07996-.009 2.12735-.31831 3.14215-.92704 2.98527-1.72573 3.52602-5.13051 1.2429-7.81098-1.05028-1.19102-2.47625-1.87878-4.2479-2.06356-4.25414-.46344-7.42565 2.86394-6.28303 6.65426.27772.89765 1.39058 2.38813 2.22485 2.88098 1.14683.79017 2.57108 1.27795 3.92103 1.26634zm-49.25876-11.27699c2.17992-.0188 4.40866-1.33795 5.2523-3.24528.38311-.80333.47881-1.30417.39021-2.30344-.10945-1.0991-.37546-1.79684-1.13403-2.79035-.96113-1.29179-2.20711-1.9811-3.91049-2.36647-3.30589-.6716-6.4203 1.15523-6.99449 4.16028-.34539 1.70303.33094 3.59729 1.71121 4.78547.55427.49525 1.46939 1.08741 1.9811 1.28301.5617.19517 2.19422.48115 2.70419.47678zm20.40568-16.87605c2.55733-.322 4.5435-1.93913 4.99371-4.24309.59501-2.90523-1.63981-5.78611-4.8957-6.45815-4.54757-.86094-8.21648 2.77073-6.86215 6.75924.10258.29913.44772.89619.78201 1.39333.66772.8943 1.62456 1.6861 2.72796 2.07663.8534.39268 2.23508.58079 3.25417.47204z" fill="none"/><path d="m743.77188-281.47724c-.81341-.39303-1.28597-.68897-1.77197-1.38482-1.38542-1.78816-.93521-4.09211 1.03526-5.20909 2.44701-1.5211 5.79806-.24985 6.63039 2.34308.20514.59826.21687.79817.0138 1.59995-.17227.9015-.23105 1.0021-.68622 1.60595-.60396.70522-1.67876 1.31448-2.63787 1.42273-.8191.10705-1.98078-.083-2.61334-.37755z" fill="none"/><path d="m662.79867-288.4814c-1.97625-1.88308-2.95482-2.87471-2.96653-3.07461-.007-.79998-.18167-9.49879-.0825-9.59965-.00084-.1 4.77109 4.75916 5.62965 5.75181l.36342.39689.0404 4.69984c.0215 2.4999.0395 4.59983.0404 4.69982 0 0-1.38111-1.28818-3.00482-2.87428z" fill="none"/><path d="m680.86674-271.3361c-1.53113-1.28688-4.96765-4.35745-5.52364-5.05269-.00085-.1-.24081-9.39829-.19081-9.39872-.00084-.1.65427.4944 1.43027 1.18776 1.00855.99136 6.2379 5.54657 6.43876 5.64485.00084.1.17737 8.99881.0791 9.19966.00084.1-.0991.10086-.10911.10095 0 0-1.01684-.79129-2.14453-1.68162z" fill="none"/><path d="m679.94017-283.72859c-3.7391-3.36798-4.85851-4.45839-4.87023-4.6583-.10945-1.09911-.1533-6.19891-.0559-6.49976.14395-.70127.15441-.70125 1.85767.88406.87684.79249 3.13396 2.77317 5.01765 4.35703 3.32566 2.97151 3.40652 3.07082 3.12738 3.17322-.30999.003-1.28478.61108-1.78133 1.01536-.71568.50617-1.12019 2.30971-.7507 3.40659.11343.39904.18601.69842.14515.59878 0 0-1.24855-.98931-2.68967-2.27697z" fill="none"/><path d="m695.74962-271.06403c-.97598-.69163-2.35452-1.67982-3.05966-2.27378l-1.26768-.88914-.0224-2.59989c-.0206-2.39992-.0215-2.49992.18679-2.70171.12913-.10112.37654-.40326.54482-.60471l.30655-.40265 1.76283 1.4849c.96683.79172 2.92966 2.2749 4.36993 3.46256l2.60709 1.97766-.40913.10352c-.62825.20541-1.39479.61202-1.85219.91596-.22827.20197-.45654.40394-.49654.40428-.17913.10155-.56052 1.10486-.67536 1.70587-.0963.4009-.13398.70118-.14395.70127 0 0-.84514-.59276-1.82112-1.28439z" fill="none"/><path d="m695.01508-259.9573c-1.99369-1.58293-3.25309-2.67214-3.31481-2.87162-.10172-.19912-.27564-8.79795-.19908-9.19862 0 0 1.34682.78845 3.37964 2.27103 1.84111 1.28422 3.38051 2.37103 3.41137 2.47077.1-.00085.21166 9.49853.18424 9.79877 0 0-.0991.10085-.11917.10102-.1.00085-1.54027-1.1868-3.31224-2.57162z" fill="none"/><path d="m709.30224-249.87976c-1.00512-.59137-1.84939-1.08414-1.88025-1.18387 0 0-.12062-2.39905-.14384-5.09895-.0241-2.7999-.0447-5.19982-.0464-5.39981-.003-.29999-.15257-.2987 1.95766.8832.90427.49226 1.65854.98579 1.76939 1.08484.17258.29853.21945 1.09815.27643 5.39782.0241 2.7999.0438 5.09981.14469 5.19895.00084.1.002.19999-.0983.20085-.1.00084-.91427-.49216-1.91939-1.08355z" fill="none"/><path d="m708.75136-262.77549c-.80427-.49311-1.48768-.88724-1.52769-.8869-.00084-.1-.10601-.69912-.11288-1.49908l-.012-1.39995.31655-.40275c.17828-.20153.40397-.70349.51053-1.10442.10743-.30094.2348-.60204.28482-.60248 0 0 .94513.5919 1.99025 1.18294 1.64939 1.08586 2.75538 1.77638 3.71964 2.26811.2417.19793.2317.19801-.41655.40359-1.41651.4122-2.45874 1.32119-2.8984 2.52502-.0983.20084-.22656.40195-.29656.40256-.1.00084-.7834-.39329-1.58767-.88639z" fill="none"/><path d="m722.95191-242.99684c-2.07766-.88217-2.42936-1.07915-2.41022-1.17932 0 0-.0215-2.49991-.0473-5.4998-.0249-2.89989-.0456-5.2998-.0464-5.3998 0 0 .87341.39251 1.86767.88398l1.81681.78441.22601.69808c.19515.59834.24203 1.39797.33727 5.4973.0224 2.59991.14126 4.79897.14126 4.79897.00084.1-.15913.10137-1.79509-.58459z" fill="none"/><path d="m735.87926-238.70782c-.72168-.19382-1.32338-.38865-1.34338-.38848-.10086-.0991-.19682-10.09869-.0868-10.09964.1-.00084 3.33847.97134 3.4902 1.17004.1-.00084.10084.0991.1017.19914.00085.1.14602.69877.47288 1.49599.10172.19913.3579 7.89721.29049 8.19781.00084.1-1.02083-.0912-2.84505-.57558z" fill="none"/><path d="m748.40143-247.81579c-.34718-1.9971-2.12087-3.5819-4.52422-3.96126-1.5434-.38672-2.97162-.17447-4.08556.53514-.61739.30532-1.38048 1.11191-1.43791 1.41241.002.19999-.45912.10396-2.45506-.57894l-1.5851-.5864.20145-1.00175c.19138-1.0017.19054-1.10168-.0155-1.79994-.14429-.49878-.40858-.99652-.752-1.39358-.496-.69577-.516-.69559-.21516-.59818.61256.29474 3.5102 1.16987 4.76359 1.55911 2.19508.58112 6.5135 1.54409 8.716 1.82514 9.21257 1.42086 18.82619.63819 32.24819-2.67733 1.27736-.31099 2.36474-.62035 2.43474-.62096.1-.00084-.20827.20181-.60654.40524-.94566.50815-1.52962 1.21319-1.79187 2.11548-.29052 1.10254-.15538 1.7014.66834 3.29438.11171.19904-.15737.30137-1.96219.91691-2.75388.72369-3.12301.82686-3.20472.62756 0 0-.10172-.19913-.10172-.19913-.00084-.1-.24428-.49792-.56857-.99515-2.16399-2.7815-6.77813-3.24185-8.96741-.82294-.37655.40325-.43482.60376-.61708 1.50536-.16315.80143-.1705 1.10151.0138 1.59994l.18515.59843-1.0191.10877c-1.26995.0109-1.91907.1165-2.08993.018-.1.00085-.26256-.29775-.42599-.69636-1.78519-4.0848-8.95836-4.42315-10.09479-.51324-.21309.80187-.14311.80127-1.66564.51434l-.98082-.0916-.1043-.49911z" fill="none"/><path d="m748.25858-236.51415s-.0172-1.99993-.13868-4.49897c-.12064-2.39906-.13869-4.49899-.0395-4.59983-.002-.19999.0983-.20085.74911-.10645.39075.0971 1.10168.19054 1.58253.2864l.88082.0924.27344.39766c.14257.29878.26514.59774.276.69765.007.79997.21877 7.99842.18877 7.99868 0 0-3.53245-.26965-3.70244-.26818z" fill="none"/><path d="m761.74894-236.53013c-.10602-.69911-.22049-8.1984-.17135-8.29883 0 0 .43912-.10378.8791-.10756.44-.004 1.26996-.0109 1.83908-.11581.56998-.005 1.04996-.009 1.07997-.009.00084.1.11547 1.79907.16351 3.89874.11805 2.09906.13438 3.99899.13524 4.09899.002.19998.002.19998-2.6356.52267-1.1391.1098-1.2791.11101-1.29995.0112z" fill="none"/><path d="m775.0104-238.74421c-.003-.29999-.24362-7.39818-.20533-7.59851-.00084-.1.36827-.20318 1.04652-.40902.55912-.10481 1.6965-.41459 2.54388-.72189.83826-.20722 1.56651-.41349 1.60651-.41383.11999-.001.3579 7.89722.22876 7.99833-.1.00084-1.25737.31082-2.65474.62284-1.76649.41521-2.54475.6219-2.5656.52208z" fill="none"/><path d="m789.16884-245.96619c-.12579-2.99903-.13009-3.49901.0782-3.70081.10827-.20094.254-.70221.3305-1.10289l.14311-.80126 2.20219-.91896c1.21479-.61047 2.21132-1.01906 2.21217-.91905 0 0 .0181 2.09991.13869 4.49897.12062 2.39905.13868 4.49896.14953 4.59888.00084.1-.15827.20137-.4474.30385-1.00739.30868-4.56779 1.43933-4.62779 1.43984 0 0-.1129-1.49908-.17922-3.39858z" fill="none"/><path d="m760.37032-285.22007c.34708-1.50305.6455-2.80575.67505-2.90592 0 0 .58998-.005 1.41081.0879.73168.19374 1.96251.28315 2.71334.37669 8.6057.62604 16.74594-.54398 26.14723-3.92492 2.53216-.9218 5.64173-2.14858 10.88348-4.29372 11.53917-4.79938 15.62699-6.23458 21.54387-7.7855 4.78951-1.24121 11.47066-2.29869 17.15787-2.64759 2.79819-.22407 2.43647-.42096 3.1302 1.17313 1.09146 2.49071 3.00631 5.37436 4.73173 7.15959 1.7654 1.78489 4.0208 3.56556 5.93932 4.54911l.94341.39191-.15308.80134-.14312.80127-.46171-.19601c-2.95106-1.27467-5.65816-3.25148-7.397-5.43661-.97114-1.2917-1.448-2.08763-2.05088-3.5825l-.44944-1.09618-2.23562.51924c-1.22738.31056-4.27124 1.03675-6.77599 1.65831l-4.54038 1.13907-.21655.40188c-.34569.50299-1.67103 2.21445-2.36498 2.92044-.35655.40307-1.04223.90899-1.52963 1.21319-1.48135 1.01278-2.59044 1.12231-4.7738.74107-1.5134-.38697-2.07423-.48215-4.54359-1.561-1.43424-.48769-1.86595-.68399-2.04508-.58244-.36913.10318-18.83483 7.6622-19.03311 7.86391-.12999.001-.19827.20172-.21487.60186.002.19999-.1814 1.0016-.36578 1.60332-.7959 2.80694-2.13038 4.61848-4.37826 6.03785-3.16354 1.92727-7.6651 1.76597-11.683-.29957-.98427-.49156-2.19195-1.38121-3.18966-2.27267-.41256-.29646-.82512-.59293-.91513-.59215-.10085-.0991-3.78071-.0675-8.19055-.0296-4.41984.038-8.0797.0695-8.14056-.03-.1.00084.13054-1.10117.51591-2.80454zm26.9709 6.9684c2.02993-.0175 3.71213-.93195 4.73919-2.44084.46396-.70401.85192-2.1074.82504-2.90719-.009-.99997-.47804-2.09598-1.11489-2.89053-2.03313-2.68262-6.00901-3.34847-8.77343-1.52463-.65654.40566-1.46877 1.31267-1.77274 2.01531-.24569.50213-.53362 1.90467-.49848 2.50438.11633 1.89908 1.67433 3.98576 3.56113 4.76956.65169.19442 2.37507.57962 3.03419.47394z" fill="none"/><path d="m785.15497-280.13295c-1.17426-.48992-2.12282-1.48181-2.48312-2.67875-.21516-.59817-.21687-.79816-.0138-1.59994.17228-.90151.23106-1.00211.70622-1.60614 1.78274-2.01539 5.29347-1.94558 7.01318.33973 1.24371 1.58936 1.03092 3.59127-.53786 4.90481-1.14136 1.00984-3.17956 1.22737-4.64467.63994z" fill="none"/><path d="m790.68005-263.27983c-.9334-.39198-1.73025-1.18517-2.12711-1.98178-.40773-.89653-.46202-1.39608-.26977-2.29777.29797-1.4026 1.34932-2.41169 2.95583-2.82551.74824-.20644.82824-.20713 1.95992-.0168 1.07255.29077 1.23249.28962 1.76595.68484 1.16684.79 1.9097 2.28367 1.81002 3.48457-.20678 2.70188-3.32377 4.22873-6.09484 2.9525z" fill="none"/><path d="m803.37455-247.68838c-.11375-1.59908-.23532-7.59826-.18134-8.29875-.004-.49998.0905-1.10081.0897-1.20081-.002-.19999.41655-.40359 2.18047-1.11879 1.18565-.51021 2.18218-.91879 2.21304-.81905.10085.0991.44338 9.69655.35424 9.79732-.0991.10085-4.44351 1.93826-4.58436 1.83947 0 0-.10085-.0991-.10171-.19913z" fill="none"/><path d="m816.73067-257.50356c-.17782-4.39863-.17868-4.49863.0753-5.20084l.25484-.60221 2.55044-1.12197c1.39479-.61202 2.57045-1.12213 2.60045-1.12239.10085.0991.48165 9.49621.42424 9.79671.00084.1-.11824.20104-.20742.3018-.1.00084-1.33479.61149-2.75958 1.22377-1.41479.61218-2.61045 1.12247-2.66045 1.1229-.1.00085-.16719-1.99863-.27781-4.39777z" fill="none"/><path d="m831.05036-259.92675c-.00084-.1-.11804-2.09906-.20039-4.69845-.12149-2.49905-.18954-4.59854-.1804-4.69863-.00084-.1 4.26179-2.13671 4.32265-2.03723.00084.1.36821 9.09718.33908 9.19743.002.19998-3.99009 2.33438-4.19007 2.3361-.1.00085-.10086-.0991-.10086-.0991z" fill="none"/><path d="m831.44633-272.0306c-.10602-.69911-.18859-.99842-.64459-1.69453-.21343-.39817-.38686-.7967-.38945-1.09668-.003-.4-.003-.4-.3717-.19681-.22913.10197-.26913.10231-.68169-.19417-.24172-.19793-.54342-.39534-.67342-.39422-.23171-.19801-.10257-.29913 2.46616-1.62126 2.49873-1.32153 2.72786-1.4235 2.76958-1.22385.15601.69868.24773.8979.55288 1.4953.30428.49741.346.69705.40889 2.19657.007.79996.0138 1.59993.0138 1.59993-.5974.30515-3.08786 1.4266-3.19699 1.52755-.10999.00092-.17085-.0986-.20343-.39827z" fill="none"/><path d="m816.77533-265.10423s-.10171-.19912-.20343-.39826c-.12172-.19896-.22429-.49808-.22602-.69808-.003-.30001-.10256-.29913-.23256-.29802-.11999.001-.39171-.19663-.64341-.39448-.23172-.19801-.77428-.49336-1.18684-.78983l-.76341-.39344 1.59306-.81373c.88653-.40763 2.54959-1.22197 3.70439-1.83191 1.15481-.60995 2.14047-1.11845 2.19047-1.11888 0 0 .13171.19888.20343.39827.10172.19913.28601.69757.50858.99566.36428.4969.38514.59672.42545 1.79641.006.69998.0112 1.29995.0112 1.29995s-1.03567.50892-2.23132 1.01922l-2.65045 1.12284c-.25913.10222-.46826.20402-.45912.10395z" fill="none"/><path d="m802.09488-259.27781c-.14171-.19879-.80599-.69309-1.4294-1.08775-.26085-.0978-.91342-.39216-1.52425-.48691l-1.05254-.29094 2.54131-1.02189c1.40478-.6121 3.28784-1.42832 4.20437-1.83621l1.65391-.71425.10344.39913c.10515.59912.33031 1.19721.70545 1.794.30342.39741.43773.89627.36116 1.29695.002.19998-3.98352 1.93431-4.72177 2.14066-.50912.10438-.65911.10568-.79169-.19324z" fill="none"/><path d="m788.72179-253.76264c-1.14199-1.39023-3.29051-2.37179-5.35871-2.15401-.34.003-.63998.005-.65997.006-.00085-.1.44826-.20387 1.04652-.40902 1.6465-.41417 5.97516-1.75143 7.82908-2.46739.91738-.30791 1.68563-.51452 1.70563-.51469 0 0-.0983.20085-.20655.4018-.47139 1.00408-.38022 2.30335.21836 3.29824.15258.2987.24429.49792.20429.49827-.0991.10085-4.02438 1.83465-4.21351 1.93629-.1.00084-.32256-.29724-.56514-.59517z" fill="none"/><path d="m768.96005-3.78351c-3.08279-1.47356-4.60399-6.26066-4.01818-12.56592.23851-2.50215 1.2915-6.81137 2.35825-9.52064 3.75646-9.73265 10.82259-17.19366 16.57979-17.54317 1.05911-.10911 2.3125.28013 3.17763.87271.78426.49328 1.80455 1.68456 2.26227 2.58065 1.17058 2.39003 1.59808 5.58647 1.27247 9.58942-.19022 2.30171-1.32977 7.01169-2.37651 9.72079-3.36594 8.62925-9.46555 15.68195-14.95244 17.22917-1.5465.41331-3.09731.32664-4.30328-.36301zm6.42456-13.45573c1.78555-4.0155 3.28627-7.42853 3.3154-7.52878 0 0 1.41424.48786 3.76275 1.46771 2.53937 1.0782 3.72277 1.46804 3.78191 1.36754.12912-.10112.62966-1.20547.58879-1.30511 0 0-1.66595-.68571-3.66276-1.46857-1.9868-.78295-3.65276-1.46866-3.69361-1.56831 0 0 1.31244-3.2114 2.9897-7.02596 1.68728-3.81465 3.07971-7.02674 3.09885-7.12691-.00084-.1-.20171-.19826-.75341-.39354-.43091-.096-.79255-.29319-.81172-.19287 0 0-1.33502 2.91158-2.91401 6.52528-1.57986 3.51372-2.97229 6.7258-3.08971 7.02683-.16744.30144-.27655.40239-.41655.4036-.10998.00092-1.61509-.58614-3.36104-1.27116-1.74682-.78502-3.18192-1.37269-3.20107-1.27253-.1.00085-.6488 1.30563-.61879 1.30537.00084.1 1.42596.68776 3.14191 1.37305 1.71596.68527 3.21107 1.27244 3.33191 1.3714.22085.0981.14258.29878-2.98713 7.32595-1.77554 4.01541-3.25626 7.42827-3.3054 7.52869-.0974.30086.003.3.50428.49569.33171.19716.69256.29405.82255.29294.20085.0983.44655-.40385 3.47712-7.33016z" fill="none"/><path d="m767.12709.5324c-2.65109-1.27726-4.53681-4.26115-5.29289-8.45481-.32546-1.79727-.42609-4.19649-.27759-6.69786.10539-1.70097 1.26634-7.41117 1.89084-9.21659 2.37887-7.12072 5.78889-12.95025 10.19918-17.58834 3.00323-3.12593 6.57419-5.35671 9.57807-6.08256 6.59772-1.45677 10.91398 3.90632 10.81651 13.50751.018 2.09993-.15248 3.20143-.81409 6.50724-.70989 3.50623-1.03954 4.70912-2.20458 7.61924-4.46269 11.33878-12.83672 20.2111-19.95044 20.97227-1.11911.10963-3.04161-.17385-3.94501-.5661zm4.84176-2.1417c4.59725-.33953 9.80353-4.28444 13.91921-10.62005 6.61208-10.25722 8.56938-23.37454 4.3771-29.43872-2.64258-3.77742-7.05844-4.43949-11.85418-1.59815-5.75142 3.34956-10.82934 10.59348-13.80099 19.71937-.47795 1.40416-1.37833 6.01208-1.48547 7.51305-.36528 5.20333.55993 9.29553 2.71221 11.87712 1.54541 1.78678 3.69307 2.66835 6.12212 2.54746z" fill="none"/><path d="m870.47928-145.06146c.10281-2.00096 2.36558-35.42165 2.40471-35.52199 0 0 .53343.39543 1.1377.89026 3.23481 2.8723 5.50849 4.45281 7.52529 5.2355 1.73596.6851 3.17677.77267 8.36743.8281 1.82079.0843 3.33074.0714 3.34074.0713 0 0-22.68243 28.89606-22.76158 28.99674 0 0-.002-.19998-.004-.49998z" fill="none"/><path d="m792.04228-17.58246s.254-.7022.56708-1.50493c3.30852-8.32875 4.09799-16.53584 2.14649-22.51929-1.22177-3.68962-3.36318-6.17131-6.46252-7.24471-2.98849-.97434-6.47406-.44435-10.22501 1.78797-6.72622 3.95797-12.83464 12.31079-16.13941 22.23957-.22483.60195-.42967 1.20374-.46967 1.20408.003.39999-.70739.30609-1.42908.11229l-1.41254-.28782 21.98672-41.19053 22.80292-42.79763 5.00271 1.45705c2.77763.87616 3.77869-1.33252 5.04099 1.25671.22343.3981-8.28997 11.67171-17.57216 24.25197-9.28305 12.48026-16.83423 22.84555-16.79423 22.84521.00084.1.36256.2969.72427.49379l.64342.39449.21741-.30188c.11908-.10104 7.58202-10.26557 16.56853-22.34326 8.99565-12.17778 16.60681-22.5436 16.91336-22.94625l.54396-.7047.61084.0948.61084.0948-.18393.70162c-.33049 1.10288-14.18352 54.32393-14.15353 54.32368 0 0 .39075.0971.83255.29285l.79169.19324.18487-.60161c.10659-.40092 3.35069-12.72927 7.21331-27.56303 3.85262-14.83367 7.48869-29.26546 7.49869-29.26554 0 0 2.13992-.0184 4.64584.66009l4.80272 1.45876-17.45968 43.15169c-9.15537 22.67954-16.99432 41.44763-17.14174 41.7489-.24483.60213-.26483.6023-.58481.60506-.18085-.0985-.32084-.0973-.32084-.0973zm4.79951-23.34212c.27-.002.49998-.004.49998-.004-.00084-.1 3.35649-31.83003 3.35563-31.93002-.002-.19999-24.41449 24.01076-24.58191 24.31222-.0991.10085.98029 1.19162 1.14028 1.19024.1-.00085.88481-.60763 1.83961-1.21586 3.44011-2.32966 6.74623-3.95814 8.93185-4.47695 3.17386-.72732 4.88412.45803 6.1276 4.34748.51287 1.49565 1.04693 4.29116 1.29756 6.6891.004.49998.11772.89902.13772.89884.00084.1.20085.0983.4009.0963.19999-.002.58083.095.85084.0927z" fill="none"/><path d="m796.01562-48.61776c-.30944-1.09738-1.08489-2.89078-1.63175-3.68611-.94114-1.29196-2.07798-2.08221-3.67049-2.36853-1.83337-.38428-3.68986.0317-6.71858 1.35781-.6874.30592-1.24479.61071-1.23565.51064-.00085-.1 15.60703-15.53475 15.63702-15.535.10086.0991-2.02884 19.91817-2.11626 20.21894-.0983.20085-.11999.001-.26429-.49775z" fill="none"/><path d="m655.37661-313.11851c-1.60597-.68622-2.83021-1.17571-2.81022-1.17588.0983-.20085.80653-.40695 1.27566-.51099.67911-.10584 1.7708.0848 2.43334.3791 1.01427.4913 1.77025 1.18482 2.04713 1.98247.14343.39878.14429.49877.004.49998 0 0-1.37425-.4882-2.9402-1.17476z" fill="none"/><path d="m670.83757-297.95086c-1.49511-.58717-2.82936-1.07572-2.98021-1.17443l-.25084-.0979.21913-.10189c.58654-.40506 1.51564-.51305 2.45648-.42113l.69082.0941 1.36199 1.38835c.75598.69352 1.36112 1.28834 1.35198 1.38842 0 0 0 0-.1.00084 0 0-1.28425-.48897-2.77935-1.07614z" fill="none"/><path d="m687.57021-282.59414c-1.51769-.88698-2.80452-1.67595-2.86537-1.77543-.25172-.19785 1.5622-.91347 2.09304-.81802.1-.00084.83513.59284 1.67111 1.28567.83685.79284 1.74283 1.48508 2.0054 1.78283.37257.29682.47342.39595.44429.4962.003.3-.38397.70333-.49397.70427 0 0-1.32683-.78862-2.8545-1.67552z" fill="none"/><path d="m703.08139-269.72701c-1.63768-.88596-2.97364-1.5745-2.96364-1.57458-.002-.19998.86481-.60745 1.28392-.71107.48913-.1042 1.28911-.11108 1.66995-.0143.20998-.002.69255.29406 1.69853.98544 1.39854.98801 1.40854.98792 1.53198 1.38688.16429.4986.0129 1.49994-.17796 1.40158 0 0-1.39596-.68803-3.04278-1.4739z" fill="none"/><path d="m715.78657-261.03591c-1.72595-.68519-3.16105-1.27287-3.18106-1.2727-.10085-.0991.17742-.30153.64482-.60556.57654-.40498 1.45479-.61253 2.34562-.52018 2.01078.0827 3.81447 1.66726 3.61737 3.16901.003.3-.0963.4009-.17657.40153-.1.00084-1.5351-.58682-3.2502-1.1721z" fill="none"/><path d="m729.27313-253.35157c-1.67423-.48562-3.08848-.97348-3.14848-.97296-.28999.003.31312-.80272.94051-1.10813.24913-.10214.60739-.30523.80739-.30696.79825-.20686 1.86907-.11606 2.76161.17627 1.31425.48872 2.30539 1.78025 2.24399 2.78082l.003.39998-.27084-.0977c-.13999.001-1.63425-.48597-3.30763-.8716z" fill="none"/><path d="m742.97475-248.56917c-1.58338-.38638-2.88591-.67522-2.90591-.67505-.10086-.0991.35569-.50309.74396-.70643.5374-.30464 1.33565-.5115 2.07648-.41786 1.5708.0865 3.22934 1.07227 3.61878 2.16897.10172.19912.10343.39912.10343.39912.00085.1.10086.0991-3.62673-.7689z" fill="none"/><path d="m752.81642-247.25373c.28398-.70247.74966-1.20649 1.49791-1.41293 1.27565-.51098 2.91817-.22509 4.11501.56464.42256.29638 1.13027 1.19034 1.02027 1.19128 0 0-6.52062-.0439-6.67061-.0427 0 0-.002-.19998-.003-.29999z" fill="none"/><path d="m766.22248-247.769c-.00084-.1-.004-.49998.0932-.80082.0963-.40089.15569-.50135.3431-.80297.97137-1.00839 2.78873-1.32403 4.41554-.53799.6217.19467 1.33598.68854 1.5594 1.08664.14172.19879.44085.0962-2.97387.7256-1.52822.21313-2.89645.42491-3.05559.52628-.27.002-.27997.002-.33171-.19715z" fill="none"/><path d="m768.87303-245.39169s.25912-.10223.61911-.10533c.35912-.1031 1.18824-.21023 1.83735-.31581.64912-.10559 1.19824-.2103 1.2091-.11039.1-.00085-.80567.50694-1.2548.61081-.75825.20652-2.31905.11994-2.41076-.0793z" fill="#b0b0b0"/><path d="m780.97928-251.696c-.1343-.49887.0888-1.30081.34539-1.70303 1.16879-1.31009 3.6087-1.33107 5.3298-.0458.21085.0982.39257.29663.40257.29654.00084.1-5.81516 1.75006-5.93516 1.75109 0 0-.10172-.19914-.14257-.29878z" fill="none"/><path d="m794.59493-256.91324c-.19602-.69834.0971-1.5009.77277-2.00672.56569-.50488 1.67392-.71442 2.65475-.62285.79081.0933 1.98509.58296 2.39851.97942l.16171.19862-2.90215.92498c-1.60564.51383-2.93216.92524-2.95216.92542 0 0-.10172-.19914-.13343-.39887z" fill="none"/><path d="m808.2908-264.43126c-.003-.39999.0923-.90082.24048-1.10212.0992-.10086.68568-.50592 1.35307-.81166 1.20566-.51038 1.22566-.51056 1.73564-.51494.82084.0929 1.85423.48409 2.37764.87959.10086.0992-.50739.30438-2.73129 1.02352-1.56651.41348-2.87302.82473-2.90302.82498 0 0-.10085-.0991-.10257-.29913z" fill="none"/><path d="m835.69115-278.46733c-.10258-.29913-.008-.89997.16968-1.20151.0991-.10085 2.08961-1.21801 2.45873-1.32118.22913-.10197 1.63166.18598 2.09337.382.47085.0959 1.25511.58924 1.36683.78828.10085.0991-.37741.30325-2.93302.82525-1.6565.41425-3.03387.7261-3.05387.72628 0 0-.10085-.0992-.10171-.19914z" fill="none"/><path d="m822.75407-272.25588c-.15343-.3987-.004-.49998 1.86703-1.51612 1.00567-.50866 1.8822-.91621 1.9522-.9168.16999-.001 1.14254.29018 1.26338.38916.10086.0991-.26826.20231-1.0548.60909-.63825.20549-1.79391.71544-2.5613 1.02205-1.29565.51116-1.42565.51227-1.46651.41263z" fill="none"/><path d="m825.04462-269.87549c-.50171-.19567-1.18598-.68983-1.18683-.78982-.00085-.1 4.64263-2.03999 4.78349-1.9412.1-.00084.20632 1.89829.1789 2.19854 0 0-.37827.20327-.83653.40721-.59739.30515-.93653.40807-1.24651.41073-.45999.004-1.20082-.0897-1.69252-.28547z" fill="none"/><path d="m844.4577-277.74267s-.00084-.1-.002-.19998c-.003-.3-.006-.69998-.16944-1.09858-.29773-.89748-.99545-1.79151-1.94056-2.38341-.46257-.29603-.74427-.49362-1.28597-.68897l-.40171-.19655.5474-.30472c.47826-.20412.53826-.20463.58826-.20506 0 0 .97856.99162 2.09884 2.18203 1.13027 1.19033 2.04883 2.18247 2.04883 2.18247s-.28912.10249-.6374.30549c-.34827.203-.66739.30575-.72653.40627-.1.00084-.1.00084-.11.00092z" fill="none"/><path d="m864.65361-252.71535c-1.78754-6.68489-10.3517-14.11154-17.8297-13.84724-2.54905.12191-4.84435 1.84171-9.73182 4.48382-3.3044 1.82848-6.7988 3.65859-10.41405 5.38973-7.23964 3.56236-14.99099 6.92913-22.79577 9.89633s-15.66214 5.63485-23.11552 7.599c-7.46339 1.96423-14.52282 3.22496-20.73829 3.77842-8.53624.47339-16.81539-.55547-24.60316-2.58859-15.57553-4.06625-29.1738-11.94965-38.81965-19.567l-18.45827-14.84188-60.9684-58.87804 58.25912-39.90232c2.83686 4.27577 7.19828 10.2385 12.5374 17.09285 5.34826 6.75428 11.66337 14.30027 18.40846 21.84256 6.75423 7.44221 13.92758 14.78082 20.97234 21.12049 12.56442 12.09244 27.9066 19.26081 44.55943 19.51766 7.18059.0383 13.63004-1.21721 19.92519-2.9714 12.59945-3.60845 24.59-9.41174 40.70135-11.65033 17.36701-2.7494 32.33622-.578 45.0325 5.91309 6.34727 3.14555 12.12489 7.49604 17.35112 12.85131 16.7239 20.15698 18.39917 27.74286 12.56594 49.49381" fill="#f3ae00" stroke="#c37b24" stroke-width="1.8"/><path d="m852.56753-239.41097c36.28282 5.98831 40.91305 10.64869 57.6999 23.00483l-2.6956-21.57762c-18.60302-10.74048-25.68737-12.37964-46.2024-15.20339z" fill="#f3ae00" stroke="#c37b24" stroke-width="1.8"/><path d="m732.15428 187.63997c-22.22605 21.49186-72.25897 70.22377-104.35838 58.7993-2.34022-1.17993-4.12219-2.56466-5.63589-4.1517-3.0174-3.17418-4.95257-7.2577-8.07373-12.03104-4.00116 4.53457-11.84056 5.802-17.47066 4.65036-3.2759-.67185-6.44868-2.14464-8.95922-4.52315-4.9071-5.45802-7.19235-13.03865-4.61489-19.16104 1.24589-2.81081 3.43689-5.02972 6.0839-6.55254 5.31487-2.9458 12.47632-2.80736 17.60428 2.74877l-59.21643-101.6947c-11.20098 1.09634-16.29238-4.86012-8.58026-11.62667-5.37677-4.25393-4.35089-7.06285.0911-11.5012-13.28673-36.78715-21.72311-74.71602-23.86027-111.59901-.63031-58.19673 9.85484-109.98879 34.33956-158.40106 8.3687-16.47255 18.1411-31.35711 28.67239-44.04812-4.72109-4.75959-4.20916-6.86406-.87508-9.89284-.19117-1.29841-3.23105-1.27227-3.01965-2.27412.21057-1.10184.62364-1.90543 1.20674-2.71048 3.78375-4.23268 9.17074-2.27892 13.89659-1.61952l49.03259-62.72383" fill="none" stroke="#c37b24" stroke-width="1.8"/><path d="m654.88137-317.2144-8.22992 2.37084c6.33737 6.64576 12.58473 13.2923 18.89125 19.83832 6.30564 6.44603 12.67043 12.79156 19.26177 18.73512 6.58133 5.94364 13.37923 11.4854 20.54109 16.32401 7.17272 4.93852 14.69855 9.07398 22.74748 12.40491 25.24613 7.58324 39.36583 5.16177 61.75998-1.43099 20.64906-7.17777 42.23541-18.16375 58.97742-27.30801l-5.12483-6.35618c-26.44211 13.82782-48.10986 25.81453-73.68765 30.8346-24.03129 4.60677-45.65786-4.20764-64.85923-18.2431-19.19136-14.03553-35.96323-32.79204-50.27736-47.16952z" fill="none" stroke="#c37b24" stroke-width="1.8"/><path d="m678.74252-271.81785c-27.90609 23.84078-55.06169 55.87541-71.30297 83.71606-22.23538 36.6925-35.11681 73.80462-37.86197 113.92969-1.2763 20.21172.19956 39.49975 3.91363 58.56852 7.42727 38.03756 23.83648 75.09787 45.22847 117.11552l.67396-.70582 143.77313-218.94406 79.1096-114.3843c20.54503 2.82348 24.74442 7.38755 30.07349 23.54234m0 0c.29741-.30258-.55771-.89524.19172.19836m39.5746 13.16028c1.69886-7.11488 1.73889-7.11522-2.05649-21.68313" fill="none" stroke="#c37b24" stroke-width="1.8"/><path d="m853.29493-239.71723c-5.8712 1.05051-8.12134 3.36994-11.22597 7.49678" fill="none" stroke="#c37b24" stroke-width="1.8"/><path d="m912.20273-196.02203-128.06339 387.51524-53.28586-3.94207" fill="none" stroke="#c37b24" stroke-width="1.8"/><path d="m592.32768 220.0432c2.96623 1.87457 6.62727 3.14314 9.96629 3.01444 6.16375-.75302 10.10922-4.78709 8.1163-9.77014-.83802-2.09287-2.33688-4.28006-3.93401-6.26641" fill="none" stroke="#c37b24" stroke-width="1.8"/><path d="m872.58384-209.68194-160.77953 391.59663" fill="none" stroke="#c37b24" stroke-width="3.3"/><path d="m663.49218 151.6289 201.24987-375.44395" fill="#f3ae00" stroke="#c37b24" stroke-width="2.4"/><path d="m663.77474 151.92648-44.73077-49.91731" fill="none" stroke="#c37b24" stroke-width="1.8"/><path d="m636.0099-312.65201c-17.16539 21.54837-34.52507 42.59838-50.26396 63.73446" fill="none" stroke="#c37b24" stroke-width="1.8"/><path d="m543.29998 105.36043c18.67817 33.44067 37.43429 65.48062 57.02555 98.11341" fill="none" stroke="#c37b24" stroke-width="1.8"/><g fill="none" stroke="#c37b24" stroke-width="1.8" transform="matrix(.99996305 -.00859665 .00859665 .99996305 991480.84 -1009103.8)"><path d="m-999582.14 1000642.8 11.15000000002-4c17.88-6 12.32999999996-23.59999999998 13.23999999999-39.80000000005 2.71999999997 23.40000000002 10.06999999995 33.30000000005-4.30000000005 48.09999999998-2.14000000001 1.69999999995-5.02000000002 4.09999999998-10.25 6.40000000002"/><path d="m-999580.54 1000630.3c3.03000000003.5 6.77000000002.5 10.01000000001-.19999999995 11.15000000002-3.19999999995 8.30000000005-20.5 7.52000000002-29.19999999995-.70999999996-7.40000000002-2.06999999995-14.59999999998-3.31000000006-22.30000000005-3.96999999997-18.80000000005-6.84999999998-37.59999999998-8.19999999995-56s-1.17000000004-36.5.96999999997-54c2.44999999995-22.19999999995 6.01000000001-38 11.17000000004-52.80000000005 4.35999999999-13.5 10-25 15.73999999999-36.09999999998 1.43000000005-2.80000000005 2.87-5.5 4.30000000005-8.30000000005 1.43000000005-2.69999999995 2.84999999998-5.5 4.23999999999-8.30000000005 1.38-2.80000000005 2.73999999999-5.69999999995 4.04000000004-8.59999999998 7.92000000004-18.69999999995 9.94999999995-33.19999999995-5.46999999997-38.5"/><path d="m-999527.66 1000300.2c12.56999999995 6.59999999998 12.64000000001 14.19999999995 9.93000000005 26.90000000002-.98999999999 4.5-2.53000000003 9.09999999998-4.34999999998 13.59999999998-1.82999999996 4.40000000002-3.94999999995 8.80000000005-6.10999999999 13.09999999998-2.16000000003 4.19999999995-4.35999999999 8.30000000005-6.35999999999 12.09999999998-12.81000000006 22.69999999995-23.31000000006 46.09999999998-28.72999999998 69.40000000002-15.53000000003 58.90000000002-3.60999999999 112.19999999995 5.80000000005 165.09999999998"/><path d="m-999542.45 1000304.7c5.38 1.69999999995 9.58999999997 4 12.35999999999 7 12.95999999996 12.40000000002 5.96999999997 21.90000000002 4.32999999996 37.19999999995"/></g><path d="m75.632355-716.50916h8.558734v18.407978h-8.558734z" fill="#f3ae00" stroke="#c37b24" stroke-linecap="square" stroke-width="1.804368" transform="matrix(.65559421 .75511339 -.81585581 .57825539 0 0)"/><path d="m76.17923-746.38416h8.695369v17.847012h-8.695369z" fill="#f3ae00" stroke="#c37b24" stroke-linecap="square" stroke-width="1.804368" transform="matrix(.65559421 .75511339 -.81585581 .57825539 0 0)"/><g fill="none" stroke="#c37b24" transform="matrix(.99996305 -.00859665 .00859665 .99996305 991480.84 -1009103.8)"><path d="m-999603.42 1000512.6 28.31999999995 1.80000000005" stroke-width="1.8"/><path d="m-999595.53 1000578.9 28.39000000001-1.19999999995" stroke-width="1.8"/><path d="m-999594.03 1000582.3 27.92000000004-1.30000000005" stroke-width="1.8"/><path d="m-999575.43 1000515-25.89000000001 23 32.02000000002 24" stroke-width="1.8"/><path d="m-999594.68 1000578.3 23.69999999995-25.80000000005" stroke-width="1.8"/><path d="m-999597.91 1000567.1 24.96999999997-27" stroke-width="2"/><g stroke-width="1.8"><path d="m-999567.71 1000573.5-32.26000000001-22.80000000005 25.87-23.5"/><path d="m-999571.84 1000548.7-30.80000000005-22.30000000005 15.08999999997-12.59999999998"/><path d="m-999573.85 1000532-29.69999999995-19"/><path d="m-999599.07 1000561 18.60999999999 16.09999999998 10.89000000001-15.30000000005"/><path d="m-999591.02 1000419.4 24.81999999995 6.90000000002"/><path d="m-999592.1 1000423.4 24.67000000004 7"/><path d="m-999567.65 1000360.9 25.57999999996 9.09999999998"/><path d="m-999587.8 1000418.9 27.19999999995-10.09999999998-17.78000000003-24.80000000005 20.34999999998-7.69999999995 15.82999999996-5.90000000002"/><path d="m-999575.06 1000423.4-11.79000000004-16.09999999998 30.89000000001-10.09999999998-11.80000000005-17-5.48999999999-7.90000000002 18.81999999995-6.59999999998"/><path d="m-999547.4 1000381.1-34.89000000001 12.30000000005"/><path d="m-999564.1 1000418.7-18.10999999999-25.59999999998"/></g><path d="m-999575.49 1000423.5 11.46999999997-5.19999999995" stroke-width="1.5"/><path d="m-999587.37 1000419.2-2.62-3.09999999998" stroke-width="1.8"/><path d="m-999550.7 1000387.5-17.58999999997-26.19999999995" stroke-width="1.8"/><path d="m-999546.01 1000377.8-8.58999999997-11.5" stroke-width="1.8"/><path d="m-999596.58 1000439.5c16.80000000005 5.90000000002 26.78000000003 1.09999999998 28.43000000005-10.19999999995" stroke-width="1.8"/><path d="m-999585.83 1000445.8c6.65000000002.90000000002 12.97999999998-.90000000002 16.67000000004-4.90000000002" stroke-width="1.8"/><path d="m-999595.31 1000439.9c25.60999999999 8.30000000005 17.44999999995 53.90000000002-7.07999999996 55.19999999995" stroke-width="1.8"/><path d="m-999600.21 1000494.8c17.81999999995.40000000002 25.81000000006 8.40000000002 23.34999999998 19.5" stroke-width="1.8"/><path d="m-999592.19 1000491.8c6.81000000006.19999999995 14.13 4.5 16.88 9.30000000005" stroke-width="1.8"/></g><path d="m750.25668-236.62111c-14.19413-1.18704-29.78105-6.6247-43.30117-15.10603-5.28347-3.3144-6.56287-4.2724-18.54872-13.88902-9.23057-7.40597-11.32786-9.34733-39.47988-36.5447-16.35228-15.79777-29.73231-28.82446-29.73337-28.9482-.001-.17465 50.67476-35.06009 55.00502-37.86534l.98734-.63963 2.3303 3.32466c15.15566 21.6228 42.87956 52.10558 56.78566 62.43656 13.86375 10.29953 30.51365 14.93618 45.87853 12.77624 7.57344-1.06465 11.53981-2.16414 29.05629-8.05455 12.63387-4.2485 20.67203-5.98738 31.67255-6.85169 18.15995-1.4268 34.63207 3.51083 47.80858 14.331 3.72743 3.06084 5.59382 5.03203 9.15285 9.66676 8.59088 11.18744 11.33421 17.38401 11.40935 25.77117.0187 2.0893-.20685 5.26608-.50129 7.05957-.51785 3.15452-1.82162 8.93068-2.07383 9.18822-.068.0693-1.79493-.79297-3.83756-1.91644-11.64063-6.40245-20.25393-9.24491-34.67333-11.44253l-2.58544-.39404-1.20832-2.33073c-2.26242-4.36396-6.89869-8.50275-11.73055-10.47181-1.80102-.73394-2.88064-.92423-5.17063-.9113l-2.89432.0159-7.20274 3.88816c-23.32047 12.58875-48.73897 22.17712-68.16064 25.71155-5.29459.96353-14.68748 1.55517-18.98464 1.1958v-.00001zm21.81195-9.00615c.25698-.42391-1.03855-.41278-2.35158.0202-.77034.25403-.68068.30079.61457.32046.83409.0126 1.61575-.14064 1.73701-.34067z" fill="none"/><path d="m783.79722.12872-108.26221 138.63581" fill="none" stroke="#f3ae00" stroke-width="1.8"/><path d="m756.87105-11.89637-40.56592 169.1111" fill="none" stroke="#f3ae00" stroke-width="1.8"/><path d="m317.94551 632.77008a8.9651041 20.076782 0 1 1 -17.93021 0 8.9651041 20.076782 0 1 1 17.93021 0z" fill="#c37b24" stroke="#f3ae00" stroke-linecap="square" stroke-width="1.224479" transform="matrix(1.5256524 .53981067 -.51791453 1.2331534 634.07873 -970.36006)"/><path d="m766.61386 1.49705-65.94547 137.55143" fill="none" stroke="#f3ae00" stroke-width="1.8"/><path d="m756.46575 65.56299-36.38595 34.01716 1.54029-48.92934 37.12935-32.70611-2.69618 48.258" fill="none" stroke="#f3ae00" stroke-width="1.8"/><path d="m317.94551 632.77008a8.9651041 20.076782 0 1 1 -17.93021 0 8.9651041 20.076782 0 1 1 17.93021 0z" fill="#c37b24" stroke="#f3ae00" stroke-linecap="square" stroke-width="1.50491" transform="matrix(1.2160913 .43423687 -.42539162 1.02451 671.08552 -805.71211)"/><path d="m771.31024-29.03473 14.78623 6.56877" fill="none" stroke="#f3ae00" stroke-width="1.8"/><path d="m800.37848-71.91649-22.92486 22.79792c14.91176-10.32857 18.31914-7.15774 19.7903 6.93013z" fill="none" stroke="#f3ae00" stroke-width="1.8"/><path d="m802.37559-47.83277 16.25466-62.34204-38.92807 52.7366" fill="none" stroke="#f3ae00" stroke-width="1.8"/><path d="m297.995 815.29199a17.298862 15.846768 0 1 1 -31.74636-8.71559" fill="none" stroke="#f3ae00" stroke-linecap="square" stroke-width="1.401193" transform="matrix(.8610764 .94188173 1.0175359 -.80346904 -381.65359 551.768)"/><path d="m687.07462 165.75987 24.21915-.70645" fill="none" stroke="#f3ae00" stroke-width="2.4"/><path d="m706.82531 150.29597-19.13622 14.63259" fill="none" stroke="#f3ae00" stroke-width="1.8"/><path d="m675.65157 138.36352c23.80614-5.20485 32.45889 3.22108 40.88668 18.04917" fill="none" stroke="#f3ae00" stroke-width="1.8"/><path d="m320.72343 544.508a4.7350903 4.7982244 0 1 1 -9.47018 0 4.7350903 4.7982244 0 1 1 9.47018 0z" fill="#c37b24" stroke="#f3ae00" stroke-linecap="square" stroke-width="1.199486" transform="matrix(1.4894223 .40900071 -.41873023 1.3969633 580.98967 -1010.7352)"/><path d="m318.07177 544.76056a2.5253813 2.5253813 0 1 1 -5.05076 0 2.5253813 2.5253813 0 1 1 5.05076 0z" fill="#c37b24" stroke="#f3ae00" stroke-linecap="square" stroke-width="1.477038" transform="matrix(1.2476456 .34260798 -.32966111 1.0998118 609.52092 -828.0837)"/><path d="m867.75236-216.60514-45.20966 84.59589" fill="none" stroke="#f3ae00" stroke-width="1.8"/><path d="m867.85985-216.45328-34.14594 88.27304" fill="none" stroke="#f3ae00" stroke-width="1.8"/><path d="m865.64552-211.62253-37.59755 81.36602" fill="none" stroke="#f3ae00" stroke-width="1.8"/><g stroke="#c37b24"><path d="m334.86557 631.63367a6.0609155 6.0609155 0 1 1 -12.12183 0 6.0609155 6.0609155 0 1 1 12.12183 0z" fill="#f3ae00" stroke-linecap="square" stroke-width="1.468157" transform="matrix(1.255193 .34468057 -.33165538 1.1064651 619.97391 -828.94358)"/><path d="m-1819.4044-54.940332a7.8877969 6.75 0 1 1 -15.5769-2.035206" fill="none" stroke-linecap="square" stroke-width="1.316344" transform="matrix(1.4414715 .28060322 .24644185 -1.2492283 3397.4661 630.8832)"/><path d="m839.14865 25.42233-118.19109 135.59418" fill="none" stroke-width="1.8"/><path d="m863.3518-186.9621-1.63046 58.11617" fill="none" stroke-width="2"/><path d="m905.34255-175.42265-38.84193 47.63567" fill="none" stroke-width="1.8"/><path d="m894.34671-173.72806-25.63137 32.52155 2.71001-40.72481c10.71385 9.70826 9.6767 7.7171 22.92136 8.20326z" fill="none" stroke-width="1.8"/><path d="m861.09511-105.13967 5.74546 46.28629" fill="none" stroke-width="1.8"/><path d="m858.79119-34.77627-6.01614-62.19157-47.12604 50.10154" fill="none" stroke-width="1.8"/><path d="m851.09539-108.55384-35.15697 36.6642" fill="none" stroke-width="1.8"/><path d="m793.50414-16.55534 3.13849 170.46875" fill="none" stroke-width="1.8"/><path d="m334.91072 788.52289a6.7410712 5.7142859 0 1 1 -13.48214 0 6.7410712 5.7142859 0 1 1 13.48214 0z" fill="#f3ae00" stroke-linecap="square" stroke-width="1.501248" transform="matrix(1.1301886 .31035384 -.35228515 1.1752899 668.64459 -877.67194)"/><path d="m784.48291 4.76286 3.17048 172.32453" fill="none" stroke-width="1.8"/><path d="m846.34671 3.29112-115.63392 132.4996" fill="none" stroke-width="1.8"/><path d="m329.81482 727.21936a9.4701805 11.237947 0 1 1 -18.94037 0 9.4701805 11.237947 0 1 1 18.94037 0z" fill="#f3ae00" stroke-linecap="square" stroke-width="1.477038" transform="matrix(1.2476456 .34260798 -.32966111 1.0998118 642.82543 -817.26272)"/><path d="m325.01657 728.48199a5.8083773 6.6922607 0 1 1 -11.61676 0 5.8083773 6.6922607 0 1 1 11.61676 0z" fill="#f3ae00" stroke-linecap="square" stroke-width="1.477038" transform="matrix(1.2476456 .34260798 -.32966111 1.0998118 644.66693 -818.25858)"/><path d="m329.81482 727.21936a9.4701805 11.237947 0 1 1 -18.94037 0 9.4701805 11.237947 0 1 1 18.94037 0z" fill="#f3ae00" stroke-linecap="square" stroke-width="1.477038" transform="matrix(1.2476456 .34260798 -.32966111 1.0998118 606.39543 -827.49509)"/><path d="m325.01657 728.48199a5.8083773 6.6922607 0 1 1 -11.61676 0 5.8083773 6.6922607 0 1 1 11.61676 0z" fill="#f3ae00" stroke-linecap="square" stroke-width="1.477038" transform="matrix(1.2476456 .34260798 -.32966111 1.0998118 608.22685 -828.50086)"/><path d="m364.15999 460.66534a14.773481 14.015866 0 1 1 -29.54697 0 14.773481 14.015866 0 1 1 29.54697 0z" fill="#f3ae00" stroke-linecap="square" stroke-width="1.371756" transform="matrix(1.3463574 .3697146 -.35418337 1.1816228 584.96711 -876.11438)"/><path d="m252.85714 785.04077a3.3928571 3.75 0 1 1 -6.78572 0 3.3928571 3.75 0 1 1 6.78572 0z" fill="#f3ae00" stroke-linecap="square" stroke-width="1.436839" transform="matrix(1.8209799 .50004763 -.42432523 1.4156293 771.2393 -1438.5065)"/><path d="m252.85714 785.04077a3.3928571 3.75 0 1 1 -6.78572 0 3.3928571 3.75 0 1 1 6.78572 0z" fill="#f3ae00" stroke-linecap="square" stroke-width="1.077629" transform="matrix(1.82098 .50004769 -.42432523 1.4156292 768.1402 -1427.9195)"/><path d="m252.85714 785.04077a3.3928571 3.75 0 1 1 -6.78572 0 3.3928571 3.75 0 1 1 6.78572 0z" fill="#f3ae00" stroke-linecap="square" stroke-width="1.077629" transform="matrix(1.82098 .50004769 -.42432523 1.4156292 783.5586 -1435.1523)"/><path d="m252.85714 785.04077a3.3928571 3.75 0 1 1 -6.78572 0 3.3928571 3.75 0 1 1 6.78572 0z" fill="#f3ae00" stroke-linecap="square" stroke-width="1.077629" transform="matrix(1.82098 .50004769 -.42432523 1.4156292 758.45891 -1441.9867)"/><path d="m252.85714 785.04077a3.3928571 3.75 0 1 1 -6.78572 0 3.3928571 3.75 0 1 1 6.78572 0z" fill="#f3ae00" stroke-linecap="square" stroke-width="1.077629" transform="matrix(1.82098 .50004769 -.42432523 1.4156292 774.41651 -1449.3142)"/><path d="m329.81482 727.21936a9.4701805 11.237947 0 1 1 -18.94037 0 9.4701805 11.237947 0 1 1 18.94037 0z" fill="#f3ae00" stroke-linecap="square" stroke-width="1.477038" transform="matrix(1.2476456 .34260798 -.32966111 1.0998118 625.34443 -823.24785)"/><path d="m325.01657 728.48199a5.8083773 6.6922607 0 1 1 -11.61676 0 5.8083773 6.6922607 0 1 1 11.61676 0z" fill="#f3ae00" stroke-linecap="square" stroke-width="1.477038" transform="matrix(1.2476456 .34260798 -.32966111 1.0998118 627.18594 -824.24372)"/><path d="m-1819.5-55.637817a7.75 6.75 0 1 1 -15.5 0 7.75 6.75 0 1 1 15.5 0z" fill="#f3ae00" stroke-linecap="square" stroke-width="1.381421" transform="matrix(1.302743 .27867842 -.22531533 1.2550934 3122.6559 748.76202)"/><path d="m-1819.5415-54.940332a7.75 6.75 0 1 1 -15.3048-2.035206" fill="none" stroke-linecap="square" stroke-width="1.368119" transform="matrix(1.361994 .2651318 .24145509 -1.22395 3274.3445 605.6407)"/><path d="m-1819.5708-54.727722a7.75 6.75 0 1 1 -15.2755-2.247816" fill="none" stroke-linecap="square" stroke-width="1.27033" transform="matrix(1.4002272 .50582487 .52772186 -1.2584155 3313.3466 1038.1)"/><path d="m716.88257 169.71022c21.36845-18.88439 60.10946-13.11722 69.30015 16.00485" fill="none" stroke-width="1.800016"/><path d="m799.61152-32.00842c7.91406-8.86836 14.56436-10.02557 21.13981-10.58212 4.16673-21.33661 32.4994-10.67979 22.11624 7.61016 5.39419 3.95377 8.89202 10.67638 9.95248 18.86757" fill="none" stroke-width="1.8"/><path d="m794.62401-20.06511c-.069 7.10086 1.56202 14.18711 9.17278 21.22194-11.40741 17.79872 18.80635 29.73942 22.17795 7.80963 10.52876-.19052 16.42007-4.20931 22.16312-10.85892" fill="none" stroke-width="1.8"/><path d="m361.12953 633.90649a17.551401 18.687822 0 1 1 -35.10281 0 17.551401 18.687822 0 1 1 35.10281 0z" fill="none" stroke-linecap="square" stroke-width="1.427856" transform="matrix(1.3094973 .35959272 -.3361004 1.1212945 586.78326 -850.97907)"/><path d="m334.86557 631.63367a6.0609155 6.0609155 0 1 1 -12.12183 0 6.0609155 6.0609155 0 1 1 12.12183 0z" fill="#f3ae00" stroke-linecap="square" stroke-width="1.468157" transform="matrix(1.255193 .34468057 -.33165538 1.1064651 606.31556 -833.34633)"/><path d="m334.86557 631.63367a6.0609155 6.0609155 0 1 1 -12.12183 0 6.0609155 6.0609155 0 1 1 12.12183 0z" fill="#f3ae00" stroke-linecap="square" stroke-width="1.468157" transform="matrix(1.255193 .34468057 -.33165538 1.1064651 624.31466 -841.67138)"/><path d="m334.86557 631.63367a6.0609155 6.0609155 0 1 1 -12.12183 0 6.0609155 6.0609155 0 1 1 12.12183 0z" fill="#f3ae00" stroke-linecap="square" stroke-width="1.468157" transform="matrix(1.255193 .34468057 -.33165538 1.1064651 634.4555 -824.1679)"/><path d="m334.86557 631.63367a6.0609155 6.0609155 0 1 1 -12.12183 0 6.0609155 6.0609155 0 1 1 12.12183 0z" fill="#f3ae00" stroke-linecap="square" stroke-width="1.468157" transform="matrix(1.255193 .34468057 -.33165538 1.1064651 615.18233 -816.31193)"/><path d="m334.86557 631.63367a6.0609155 6.0609155 0 1 1 -12.12183 0 6.0609155 6.0609155 0 1 1 12.12183 0z" fill="#f3ae00" stroke-linecap="square" stroke-width="1.831562" transform="matrix(.91613512 .37673251 .3861047 -.89547339 288.87809 396.698)"/><path d="m334.86557 631.63367a6.0609155 6.0609155 0 1 1 -12.12183 0 6.0609155 6.0609155 0 1 1 12.12183 0z" fill="#f3ae00" stroke-linecap="square" stroke-width="1.831562" transform="matrix(.91613512 .37673251 .3861047 -.89547339 267.44375 453.2844)"/><path d="m252.85714 785.04077a3.3928571 3.75 0 1 1 -6.78572 0 3.3928571 3.75 0 1 1 6.78572 0z" fill="#f3ae00" stroke-linecap="square" stroke-width="1.615551" transform="matrix(1.1376176 .3264507 -.28819316 1.0085071 826.17814 -1053.8446)"/><path d="m252.85714 785.04077a3.3928571 3.75 0 1 1 -6.78572 0 3.3928571 3.75 0 1 1 6.78572 0z" fill="#f3ae00" stroke-linecap="square" stroke-width="1.146524" transform="matrix(1.6060083 .44291328 -.42272807 1.4181439 806.52848 -1335.226)"/><path d="m841.13396-134.26916c7.05598-1.66071 12.09331 1.4961 14.8519 5.97255 5.81173-2.15004 11.29786-.29713 14.80274 6.07297 7.72424-1.86646 11.83765-.15925 15.33169 6.11113" fill="none" stroke-width="1.8"/><path d="m834.63035-117.21261c4.10142 5.96496 10.00895 6.81421 15.07672 5.37059 2.92632 5.37504 8.26504 7.52922 15.18415 5.06965 4.55571 6.46108 8.94758 7.82337 15.78756 5.46448" fill="none" stroke-width="1.8"/><path d="m252.85714 785.04077a3.3928571 3.75 0 1 1 -6.78572 0 3.3928571 3.75 0 1 1 6.78572 0z" fill="#f3ae00" stroke-linecap="square" stroke-width="1.146524" transform="matrix(1.6060083 .44291328 -.42272807 1.4181439 791.31461 -1341.4255)"/><path d="m252.85714 785.04077a3.3928571 3.75 0 1 1 -6.78572 0 3.3928571 3.75 0 1 1 6.78572 0z" fill="#f3ae00" stroke-linecap="square" stroke-width="1.146524" transform="matrix(1.6060083 .44291328 -.42272807 1.4181439 776.97027 -1346.5224)"/><g fill="#f3ae00" stroke-linecap="square" transform="matrix(.99996305 -.00859665 .00859665 .99996305 991480.84 -1009103.8)"><path d="m217.67858 800.8443a16.517857 17.589285 0 1 1 -33.03572 0 16.517857 17.589285 0 1 1 33.03572 0z" stroke-width="1.4725" transform="matrix(1.2878065 .36557055 -.32976391 1.066725 -999476.61 999355.98)"/><path d="m217.67858 800.8443a16.517857 17.589285 0 1 1 -33.03572 0 16.517857 17.589285 0 1 1 33.03572 0z" stroke-width="2.099425" transform="matrix(.92216818 .26177655 -.22654467 .73282991 -999485.72 999644.25)"/><path d="m217.67858 800.8443a16.517857 17.589285 0 1 1 -33.03572 0 16.517857 17.589285 0 1 1 33.03572 0z" stroke-width="1.472524" transform="matrix(1.2878064 .36557055 -.32975355 1.0666915 -999525.84 999739.3)"/><path d="m217.67858 800.8443a16.517857 17.589285 0 1 1 -33.03572 0 16.517857 17.589285 0 1 1 33.03572 0z" stroke-width="2.099458" transform="matrix(.92216815 .26177655 -.22653754 .73280686 -999534.95 1000027.6)"/></g><g transform="matrix(.99996305 -.00859665 .00859665 .99996305 991480.84 -1009103.8)"><path d="m-999208.92 1000308.5c-16.15000000002-5.90000000002-19.82999999996-16.30000000005-17.06999999995-28.19999999995-10.51000000001-4.19999999995-16.05000000005-11-17.57999999996-18.80000000005-15.02000000002 3.80000000005-26.56000000006-4-29.41000000003-12l-12.12 3.30000000005" fill="none" stroke-width="1.8"/><path d="m252.85714 785.04077a3.3928571 3.75 0 1 1 -6.78572 0 3.3928571 3.75 0 1 1 6.78572 0z" fill="#f3ae00" stroke-linecap="square" stroke-width="1.131863" transform="matrix(1.3515378 .39036482 -.36171983 1.1949955 -999487.78 999173.84)"/><path d="m252.85714 785.04077a3.3928571 3.75 0 1 1 -6.78572 0 3.3928571 3.75 0 1 1 6.78572 0z" fill="#f3ae00" stroke-linecap="square" stroke-width="1.448785" transform="matrix(1.2670666 .36596707 -.33911236 1.1203083 -999306.27 999280.71)"/><path d="m-999446.59 1000205c4.5 10.09999999998 10.30000000005 15.5 22.66000000003 11.19999999995l13.16000000003 13.69999999995c-7.91000000003 14.40000000002 6.79000000004 20.19999999995 14.27000000002 15.69999999995l18.57999999996 13.90000000002c-3.12 12.69999999995 10.09999999998 16.80000000005 17.05000000005 8.19999999995l19.5-1.09999999998c7.53000000003 7.19999999995 19.31000000006 6.5 22.03000000003-4.5" fill="none" stroke-width="1.8"/><path d="m-999319.96 1000262.9 20.65000000002-8.59999999998c9.85999999999 2.80000000005 11.72999999998 3.19999999995 14.96999999997-2.09999999998" fill="none" stroke-width="1.8"/><path d="m-999288.18 1000256.2c-1.72999999998 3.90000000002-2.31000000006 8.40000000002-1.92000000004 12.90000000002l-22.54000000004 10.90000000002c-12.25-7.30000000005-20.75-3.40000000002-24.03000000003 9.5l-29.75 3.30000000005c-5.20999999996-13-16.13-14.19999999995-26.37-8.59999999998l-22.18000000005-15.69999999995c3.67000000004-11-4.26000000001-19.80000000005-18.26000000001-16.5l-14.26000000001-13.19999999995c4.18000000005-11.90000000002 1.64000000001-16.30000000005-11.06999999995-22.59999999998l12.48999999999-11.40000000002" fill="none" stroke-width="1.8"/><path d="m-999447.79 1000212.1c5.81000000006 7.40000000002 10.46999999997 10.80000000005 22.30000000005 8.80000000005l9.56999999995 9.80000000005c-5.55000000005 13.5 5.95999999996 23.19999999995 18.33999999997 19.90000000002l14.81000000006 11c0 16.30000000005 17.40000000002 17.90000000002 23.68999999994 10.5l15.88-1c3.22999999998 2.30000000005 6.96999999997 3.59999999998 10.38 4.19999999995-4.34999999998 3.40000000002-6.37 8.40000000002-7.31999999995 10.5l-23.62 2.5c-7.15000000002-10.40000000002-14.42000000004-13.5-28.87-9.09999999998l-17.23999999999-12.19999999995c.93999999994-16.80000000005-10.53000000003-21-21.80000000005-19.59999999998l-10.85999999999-10.09999999998c3.73999999999-12.09999999998-3.13-18.30000000005-9.10999999999-21.69999999995z" fill="#f3ae00" stroke-width="1.8"/><path d="m-999320.56 1000272.5c2.54000000004-2.19999999995 4.58999999997-6.30000000005 4.69999999995-6.59999999998l16.45999999996-7c1.03000000003.19999999995 2.16000000003.59999999998 5.51000000001 1.09999999998-.45999999996 1.59999999998-.81999999995 3.09999999998-1.26000000001 6.80000000005l-17.45999999996 8.5c-1.53000000003-1-5.33999999997-2.40000000002-7.94999999995-2.80000000005z" fill="#f3ae00" stroke-width="1.5"/><path d="m-999272.22 1000242.7c4.58999999997 17.19999999995 18.59999999998 18.19999999995 31.14000000001 15 1.34999999998 10.30000000005 7.84999999998 17.80000000005 19.68000000005 20.40000000002-6.17000000004 12.19999999995 1.66000000003 24.19999999995 13.15000000002 26.90000000002" fill="none" stroke-width="1.8"/><g fill="#f3ae00" stroke-linecap="square"><path d="m252.85714 785.04077a3.3928571 3.75 0 1 1 -6.78572 0 3.3928571 3.75 0 1 1 6.78572 0z" stroke-width="1.448785" transform="matrix(1.2670666 .36596707 -.33911236 1.1203083 -999278.82 999295.81)"/><path d="m252.85714 785.04077a3.3928571 3.75 0 1 1 -6.78572 0 3.3928571 3.75 0 1 1 6.78572 0z" stroke-width="1.448785" transform="matrix(1.2670666 .36596707 -.33911236 1.1203083 -999264.93 999319.91)"/><path d="m252.85714 785.04077a3.3928571 3.75 0 1 1 -6.78572 0 3.3928571 3.75 0 1 1 6.78572 0z" stroke-width="1.131863" transform="matrix(1.3515378 .39036482 -.36171983 1.1949955 -999507.59 999192.3)"/><path d="m252.85714 785.04077a3.3928571 3.75 0 1 1 -6.78572 0 3.3928571 3.75 0 1 1 6.78572 0z" stroke-width="1.131863" transform="matrix(1.3515378 .39036482 -.36171983 1.1949955 -999457.66 999203.37)"/><path d="m252.85714 785.04077a3.3928571 3.75 0 1 1 -6.78572 0 3.3928571 3.75 0 1 1 6.78572 0z" stroke-width="1.131863" transform="matrix(1.3515378 .39036482 -.36171983 1.1949955 -999476.36 999224.4)"/><path d="m252.85714 785.04077a3.3928571 3.75 0 1 1 -6.78572 0 3.3928571 3.75 0 1 1 6.78572 0z" stroke-width="1.131863" transform="matrix(1.3515378 .39036482 -.36171983 1.1949955 -999423.11 999228.97)"/><path d="m252.85714 785.04077a3.3928571 3.75 0 1 1 -6.78572 0 3.3928571 3.75 0 1 1 6.78572 0z" stroke-width="1.131863" transform="matrix(1.3515378 .39036482 -.36171983 1.1949955 -999432.29 999253.16)"/><path d="m252.85714 785.04077a3.3928571 3.75 0 1 1 -6.78572 0 3.3928571 3.75 0 1 1 6.78572 0z" stroke-width="1.131863" transform="matrix(1.3515378 .39036482 -.36171983 1.1949955 -999382.9 999228.41)"/><path d="m252.85714 785.04077a3.3928571 3.75 0 1 1 -6.78572 0 3.3928571 3.75 0 1 1 6.78572 0z" stroke-width="1.131863" transform="matrix(1.3515378 .39036482 -.36171983 1.1949955 -999334.76 999226.17)"/><path d="m252.85714 785.04077a3.3928571 3.75 0 1 1 -6.78572 0 3.3928571 3.75 0 1 1 6.78572 0z" stroke-width="1.131863" transform="matrix(1.3515378 .39036482 -.36171983 1.1949955 -999377.62 999248.27)"/></g></g><path d="m659.49668 73.96125-37.77961 30.71845" fill="#fc0" stroke-width="1.8"/><path d="m621.64707 104.6803 24.7898 27.78792c10.49206-16.09079-7.61772-33.43575-24.7898-27.78792z" fill="#f3ae00" stroke-width="1.8"/><path d="m660.55146 89.96758-16.83308 19.42316" fill="#fc0" stroke-width="1.8"/><path d="m657.28308 122.67462-7.36625 13.26381" fill="#fc0" stroke-width="1.8"/><path d="m624.96047 108.55196 18.27729 20.54364c7.76826-11.86722-5.58386-24.85292-18.27729-20.54364z" fill="#f3ae00" stroke-width="1.8"/></g><path d="m660.13392-307.90028 4.57467 427.87159-5.34793 2.39502-4.6712-432.6468z" fill="#fff"/><path d="m674.97312-292.56405 5.05899 384.03316-5.34521 2.15917-5.16093-388.31904z" fill="#fff"/><path d="m690.8743-278.63972 3.56119 344.71422-5.35359 1.91929-3.64641-348.56145z" fill="#fff"/><path d="m706.55218-265.72831 3.13804 305.0085-5.35594 1.69076-3.21854-308.41264z" fill="#fff"/><path d="m719.91367-257.56976 1.54574 272.05567-5.36467 1.47495-1.60846-275.09233z" fill="#fff"/><path d="m841.96725-275.34701 2.39368 68.03276-5.35955.31572-2.46587-68.79259z" fill="#fff"/><path d="m829.34359-268.72609 2.39368 82.26844-5.35955.38178-2.46587-83.18726z" fill="#fff"/><path d="m815.12307-262.44183 3.56119 102.70574-5.35359.57184-3.64641-103.852z" fill="#fff"/><path d="m800.98092-256.78124 3.56119 121.43706-5.35359.67613-3.64641-122.79237z" fill="#fff"/><path d="m786.57958-251.63352 4.58455 139.63902-5.34775.81685-4.68119-141.19714z" fill="#fff"/><path d="m773.45427-247.96588 3.56119 162.39619-5.35359.90418-3.64641-164.20862z" fill="#fff"/><path d="m760.06975-246.06679 3.56119 185.87274-5.35359 1.0349-3.64641-187.9472z" fill="#fff"/><path d="m746.93777-247.43815 3.56119 211.59707-5.35359 1.17813-3.64641-213.95863z" fill="#fff"/><path d="m733.55324-250.42587 3.56119 241.81693-5.35359 1.34638-3.64641-244.51575z" fill="#fff"/><g fill="#f3ae00" stroke="#c37b24" stroke-linecap="square" stroke-width="1.477038" transform="matrix(.99996305 -.00859665 .00859665 .99996305 991480.84 -1009103.8)"><path d="m252.85714 785.04077a3.3928571 3.75 0 1 1 -6.78572 0 3.3928571 3.75 0 1 1 6.78572 0z" transform="matrix(1.2446542 .35332088 -.33910363 1.0969372 -999488.29 999306.45)"/><path d="m252.85714 785.04077a3.3928571 3.75 0 1 1 -6.78572 0 3.3928571 3.75 0 1 1 6.78572 0z" transform="matrix(1.2446542 .35332088 -.33910363 1.0969372 -999472.96 999321.02)"/><path d="m252.85714 785.04077a3.3928571 3.75 0 1 1 -6.78572 0 3.3928571 3.75 0 1 1 6.78572 0z" transform="matrix(1.2446542 .35332088 -.33910363 1.0969372 -999457.6 999333.78)"/><path d="m252.85714 785.04077a3.3928571 3.75 0 1 1 -6.78572 0 3.3928571 3.75 0 1 1 6.78572 0z" transform="matrix(1.2446542 .35332088 -.33910363 1.0969372 -999444.16 999342.41)"/><path d="m252.85714 785.04077a3.3928571 3.75 0 1 1 -6.78572 0 3.3928571 3.75 0 1 1 6.78572 0z" transform="matrix(1.2446542 .35332088 -.33910363 1.0969372 -999430.46 999348.86)"/><path d="m252.85714 785.04077a3.3928571 3.75 0 1 1 -6.78572 0 3.3928571 3.75 0 1 1 6.78572 0z" transform="matrix(1.2446542 .35332088 -.33910363 1.0969372 -999417.39 999352.69)"/><path d="m252.85714 785.04077a3.3928571 3.75 0 1 1 -6.78572 0 3.3928571 3.75 0 1 1 6.78572 0z" transform="matrix(1.2446542 .35332088 -.33910363 1.0969372 -999404.24 999353.81)"/><path d="m252.85714 785.04077a3.3928571 3.75 0 1 1 -6.78572 0 3.3928571 3.75 0 1 1 6.78572 0z" transform="matrix(1.2446542 .35332088 -.33910363 1.0969372 -999390.71 999352.63)"/><path d="m252.85714 785.04077a3.3928571 3.75 0 1 1 -6.78572 0 3.3928571 3.75 0 1 1 6.78572 0z" transform="matrix(1.2446542 .35332088 -.33910363 1.0969372 -999377 999349.34)"/><path d="m252.85714 785.04077a3.3928571 3.75 0 1 1 -6.78572 0 3.3928571 3.75 0 1 1 6.78572 0z" transform="matrix(1.2446542 .35332088 -.33910363 1.0969372 -999363.37 999344.72)"/><path d="m252.85714 785.04077a3.3928571 3.75 0 1 1 -6.78572 0 3.3928571 3.75 0 1 1 6.78572 0z" transform="matrix(1.2446542 .35332088 -.33910363 1.0969372 -999349.03 999338.79)"/><path d="m252.85714 785.04077a3.3928571 3.75 0 1 1 -6.78572 0 3.3928571 3.75 0 1 1 6.78572 0z" transform="matrix(1.2446542 .35332088 -.33910363 1.0969372 -999335.04 999332.02)"/><path d="m252.85714 785.04077a3.3928571 3.75 0 1 1 -6.78572 0 3.3928571 3.75 0 1 1 6.78572 0z" transform="matrix(1.2446542 .35332088 -.33910363 1.0969372 -999322.34 999325.59)"/><path d="m252.85714 785.04077a3.3928571 3.75 0 1 1 -6.78572 0 3.3928571 3.75 0 1 1 6.78572 0z" transform="matrix(1.2446542 .35332088 -.33910363 1.0969372 -999503.8 999290.05)"/><path d="m252.85714 785.04077a3.3928571 3.75 0 1 1 -6.78572 0 3.3928571 3.75 0 1 1 6.78572 0z" transform="matrix(1.2446542 .35332088 -.33910363 1.0969372 -999486.88 999692.1)"/><path d="m252.85714 785.04077a3.3928571 3.75 0 1 1 -6.78572 0 3.3928571 3.75 0 1 1 6.78572 0z" transform="matrix(1.2446542 .35332088 -.33910363 1.0969372 -999471.73 999666.57)"/><path d="m252.85714 785.04077a3.3928571 3.75 0 1 1 -6.78572 0 3.3928571 3.75 0 1 1 6.78572 0z" transform="matrix(1.2446542 .35332088 -.33910363 1.0969372 -999456.99 999639.22)"/><path d="m252.85714 785.04077a3.3928571 3.75 0 1 1 -6.78572 0 3.3928571 3.75 0 1 1 6.78572 0z" transform="matrix(1.2446542 .35332088 -.33910363 1.0969372 -999443.67 999614.88)"/><path d="m252.85714 785.04077a3.3928571 3.75 0 1 1 -6.78572 0 3.3928571 3.75 0 1 1 6.78572 0z" transform="matrix(1.2446542 .35332088 -.33910363 1.0969372 -999429.13 999591.31)"/><path d="m252.85714 785.04077a3.3928571 3.75 0 1 1 -6.78572 0 3.3928571 3.75 0 1 1 6.78572 0z" transform="matrix(1.2446542 .35332088 -.33910363 1.0969372 -999414.18 999564.87)"/><path d="m252.85714 785.04077a3.3928571 3.75 0 1 1 -6.78572 0 3.3928571 3.75 0 1 1 6.78572 0z" transform="matrix(1.2446542 .35332088 -.33910363 1.0969372 -999401.1 999541.31)"/><path d="m252.85714 785.04077a3.3928571 3.75 0 1 1 -6.78572 0 3.3928571 3.75 0 1 1 6.78572 0z" transform="matrix(1.2446542 .35332088 -.33910363 1.0969372 -999387.61 999514.88)"/><path d="m252.85714 785.04077a3.3928571 3.75 0 1 1 -6.78572 0 3.3928571 3.75 0 1 1 6.78572 0z" transform="matrix(1.2446542 .35332088 -.33910363 1.0969372 -999373.03 999489.62)"/><path d="m252.85714 785.04077a3.3928571 3.75 0 1 1 -6.78572 0 3.3928571 3.75 0 1 1 6.78572 0z" transform="matrix(1.2446542 .35332088 -.33910363 1.0969372 -999359.95 999466.06)"/><path d="m252.85714 785.04077a3.3928571 3.75 0 1 1 -6.78572 0 3.3928571 3.75 0 1 1 6.78572 0z" transform="matrix(1.2446542 .35332088 -.33910363 1.0969372 -999345.69 999440.28)"/><path d="m252.85714 785.04077a3.3928571 3.75 0 1 1 -6.78572 0 3.3928571 3.75 0 1 1 6.78572 0z" transform="matrix(1.2446542 .35332088 -.33910363 1.0969372 -999331.96 999413.06)"/><path d="m252.85714 785.04077a3.3928571 3.75 0 1 1 -6.78572 0 3.3928571 3.75 0 1 1 6.78572 0z" transform="matrix(1.2446542 .35332088 -.33910363 1.0969372 -999319.84 999392.64)"/><path d="m252.85714 785.04077a3.3928571 3.75 0 1 1 -6.78572 0 3.3928571 3.75 0 1 1 6.78572 0z" transform="matrix(1.2446542 .35332088 -.33910363 1.0969372 -999502.83 999721.03)"/></g><path d="m658.03969 122.99664 8.02159-2.89099-.53999.005" fill="#f3ae00" stroke="#c37b24" stroke-width="1.8"/><path d="m673.68748 94.03913 7.51651-2.76472-.53999.005" fill="#806600" stroke="#c37b24" stroke-width="1.8"/><path d="m688.62684 68.30974 7.51651-2.76472-.53998.005" fill="#806600" stroke="#c37b24" stroke-width="1.8"/><path d="m703.24075 40.7831 7.5165-2.76472-.53998.005" fill="#806600" stroke="#c37b24" stroke-width="1.8"/><path d="m716.36963 16.16933 7.51651-2.76473-.53997.005" fill="#806600" stroke="#c37b24" stroke-width="1.8"/><path d="m730.71707-7.45489 7.51651-2.76472-.53998.005" fill="#806600" stroke="#c37b24" stroke-width="1.8"/><path d="m745.35044-33.88167 7.5165-2.76471-.53998.005" fill="#806600" stroke="#c37b24" stroke-width="1.8"/><path d="m758.23707-57.59333 7.51651-2.76471-.53998.005" fill="#806600" stroke="#c37b24" stroke-width="1.8"/><path d="m771.42876-84.20771 7.51651-2.76472-.53998.005" fill="#f3ae00" stroke="#c37b24" stroke-width="1.8"/><path d="m786.11022-109.62004 7.627-2.78049-.53998.005" fill="#806600" stroke="#c37b24" stroke-width="1.8"/><path d="m798.73908-133.1443 7.51651-2.76472-.53998.005" fill="#f3ae00" stroke="#c37b24" stroke-width="1.8"/><path d="m812.8459-159.16652 7.51651-2.76472-.53998.005" fill="#806600" stroke="#c37b24" stroke-width="1.8"/><path d="m825.78416-186.17876 7.51651-2.76472-.53998.005" fill="#806600" stroke="#c37b24" stroke-width="1.8"/><path d="m837.80747-206.78287 7.51652-2.76472-.53999.005" fill="#806600" stroke="#c37b24" stroke-width="1.8"/><path d="m668.71723-343.65496 1.23819-1.20394.72247 1.78373z" fill="#c37b24" stroke="#c37b24" stroke-width=".5"/><path d="m719.77456 162.5565c6.54686-3.92558 14.07153-7.09176 24.94514-7.65708 2.97353-24.97708 39.37435-16.83063 29.55693 8.13443 7.75022 5.55061 11.15883 10.29947 14.03445 16.76757" fill="none" stroke="#c37b24" stroke-width="1.800016"/><path d="m770.71842-8.40193 13.6973-30.34247" fill="none" stroke="#f3ae00" stroke-width="1.8"/><g fill="none" stroke="#f3ae00" stroke-width="1.8" transform="matrix(-.61772219 -.7863964 -.7863964 .61772219 1375.0771 60.86512)"><path d="m342.58586 605.78432 24.7113-5.26588"/><path d="m360.00232 586.96955-17.5235 18.84009"/></g><path d="m786.58054 69.94472.0568 2.9043c.90292.0198 5.27584.34525 7.61778.73383l-.21437-12.07127z" fill="#f3ae00"/><path d="m731.32345 187.54711-19.79827-5.53002-47.70871-29.89096c-18.95963 21.06377-55.82647 69.28248-38.03411 86.93017 4.35993 3.46265 10.34175 4.81128 17.84287 3.74675 9.57675-1.58238 20.53251-6.77675 31.45364-13.6709 10.932-6.79423 21.84024-15.18831 31.33283-23.07021 9.48345-7.78181 17.56126-15.05152 22.83238-19.59701" fill="none" stroke="#c37b24" stroke-width="1.8"/></g><g fill="none" stroke="#c37b24"><path d="m-2005.6353 2218.7159 180.3061-394.4135-222.4842-216.367 113.4614-272.0091-199.138-202.2179 123.0493-255.86259-143.8677-263.33677 161.8471-214.76485-71.9583-295.74694 197.8878-164.854523" stroke-width="16.355"/><path d="m-1869.3876-54.523664-11.8528-283.320566 224.6582-165.23437-13.0735-278.33559 309.9341-171.05171c-118.038 5.51725-192.5248-31.09163-252.1312-127.0201l73.5602 365.66747-227.9322 153.60691-6.778 280.0851-215.6805 168.12858 53.2963 253.84362-193.8429 237.14425 114.5594 239.88301-139.9451 270.29624 180.6289 226.55542" stroke-width="16.355"/><path d="m-1974.6487 1107.0754-120.8763 259.7774 211.7647 202.5332-113.3503 290.3015 297.6658 301.1374c-100.8231-49.4328-249.0695-20.6233-308.8579 58.5382" stroke-width="16.355"/><path d="m-2422.9061 299.59658c198.6145 61.77059 141.5676 436.81736-54.0803 453.13696" stroke-width="15.540518"/></g></g></g></svg>