<svg height="800" width="1200" xmlns="http://www.w3.org/2000/svg" xmlns:xlink="http://www.w3.org/1999/xlink"><linearGradient id="a" gradientTransform="matrix(.79509935 0 0 1.2851131 -358.6497 59.126546)" gradientUnits="userSpaceOnUse" x1="133.8" x2="416.2" y1="343.12" y2="343.12"><stop offset=".8" stop-color="#efb508"/><stop offset="1" stop-color="#b48906"/></linearGradient><path d="m0 0h1200v800h-1200z" fill="#212c59"/><g id="b" stroke="#000" stroke-width=".887"><g fill="#ff0" stroke-width="2.217" transform="translate(473.713783 -22.133009)"><path d="m-329.25 171.96c18.533 34.433 36.559 69.148 54.618 103.85h268.62c20.075-34.34 35.453-69.35 55.269-103.85l-68.589 57.651-6.3509-92.163-72.823 84.711-37.682-94.908-41.492 94.908-66.472-84.711-12.702 92.163z"/><path d="m-140.4 302.53c-48.324.15227-91.696 9.942-122.22 25.137 2.5365-1.9449-1.2129-19.374-4.3659-32.512-3.8136-15.891-9.4115-18.236-9.4115-18.236 33.751-16.114 83.914-27.48 136.2-27.588 52.31.10827 102.73 11.106 136.49 27.219 0 0-6.6757 3.5267-10.487 19.42-3.1523 13.135-5.7172 29.752-3.1767 31.697-30.525-15.195-74.708-24.985-123.03-25.137" stroke-width="1.994"/><path d="m-140.11 253.21c-52.291.13307-99.273 10.189-133.02 26.328-2.2503 1.0903-4.6301-.33598-5.3592-3.7759-.72925-3.4478.48213-7.4018 2.7325-8.5169 33.896-16.804 82.09-27.355 135.66-27.532 53.585.15787 101.96 10.728 135.86 27.532 2.2503 1.1151 3.4613 5.0691 2.7324 8.5169-.73314 3.4399-3.1125 4.8662-5.3594 3.7759-33.749-16.14-80.931-26.2-133.24-26.33"/><path d="m-139.97 366.02c-47.751-.11386-90.527-9.2507-121.05-24.11-2.2347-1.0972-3.403-4.4039-3.2735-7.8257-.0392-3.3273 1.1134-6.3432 3.2735-7.3952 30.525-14.84 73.301-23.977 121.05-24.092 47.743.11494 90.488 9.252 121.02 24.092 2.1603 1.052 3.2932 4.0679 3.2541 7.3952.11733 3.4218-1.0352 6.7285-3.2541 7.8257-30.529 14.859-73.273 23.996-121.02 24.11"/><path d="m-140.1 355.89c-43.093-.0875-82.043-8.1288-111.69-20.511 29.65-12.401 68.6-19.979 111.69-20.112 43.086.13307 82.244 7.7108 111.89 20.112-29.65 12.382-68.808 20.423-111.89 20.511" fill="url(#a)" stroke-width="2.217"/></g><g fill="#eac102" transform="translate(473.713783 -22.133009)"><path d="m-140.02 293.18c-11.17 0-20.182-6.802-20.182-15.184 0-8.3816 9.0118-15.211 20.182-15.211 11.181 0 20.222 6.8009 20.222 15.211 0 8.3816-9.0412 15.184-20.222 15.184"/><path d="m-11.264 288.19c-.38088-.1984-.67872-.49838-1.0687-.68326-10.722-5.0612-20.561-2.583-22.014 5.4626-1.4475 8.0107 5.9733 18.527 16.623 23.614.53642-1.0598 1.1154-1.9314 1.6149-3.0521.75128-1.6867 1.46-3.4004 2.062-5.1807.60269-1.7803 1.0903-3.6 1.4663-5.422.35299-1.7115.63549-3.4692.84477-5.1807.20987-1.7115.35296-3.3689.44715-5.0195.09413-1.6427.016-3.016.024-4.538z"/><path d="m-269.26 288.19c.38101-.1984.67866-.49838 1.0684-.68326 10.723-5.0612 20.561-2.583 22.014 5.4626 1.4476 8.0107-5.9729 18.527-16.623 23.614-.5364-1.0598-1.1156-1.9314-1.6151-3.0521-.75106-1.6867-1.4598-3.4004-2.0623-5.1807-.60247-1.7803-1.0903-3.6-1.466-5.422-.3529-1.7115-.63522-3.4692-.84477-5.1807-.2096-1.7115-.35269-3.3689-.44728-5.0195-.0941-1.6427-.016-3.016-.024-4.538z"/></g><g fill="#0000b3" transform="translate(473.713783 -22.133009)"><path d="m-140.01 288.41c-8.2975 0-14.991-4.6666-14.991-10.419 0-5.7512 6.6932-10.438 14.991-10.438 8.3038 0 15.019 4.6677 15.019 10.438 0 5.7524-6.7154 10.419-15.019 10.419"/><path d="m-11.091 293.37c-.70525-.41603-1.3114-.93129-2.062-1.2853-7.9641-3.759-15.203-2.308-16.2 3.2133-.99752 5.5201 4.6081 13.067 12.572 16.826.48133.22666.9173.2528 1.3916.442.63477-.76782 1.2967-1.4229 1.8632-2.3294.52456-.83774 1.0129-1.7431 1.4167-2.6913.40389-.94707.71989-1.964.94381-3.0115.22747-1.0598.3732-2.1963.44712-3.3734.07467-1.1771.0928-2.3925.0504-3.6147-.0504-1.4364-.26427-2.7837-.42275-4.1762z"/><path d="m-269.43 293.37c.70546-.41603 1.3119-.93129 2.0623-1.2853 7.9642-3.759 15.203-2.308 16.2 3.2133.99762 5.5201-4.6083 13.067-12.573 16.826-.48082.22666-.91693.2528-1.3914.442-.63509-.76782-1.2969-1.4229-1.8635-2.3294-.52421-.83774-1.0124-1.7431-1.4163-2.6913-.40397-.94707-.71989-1.964-.94424-3.0115-.22693-1.0598-.37277-2.1963-.4472-3.3734-.0744-1.1771-.0923-2.3925-.0499-3.6147.0501-1.4364.26426-2.7837.42245-4.1762z"/></g></g><use x="532.56585" xlink:href="#b"/><use x="266.28285" xlink:href="#b" y="363.70972"/></svg>