<svg xmlns="http://www.w3.org/2000/svg" width="1200" height="670"><rect fill="#ffcf19" width="1200" height="670"/><rect fill="#d30214" width="190" height="670" x="505"/><rect fill="#d30214" width="1200" height="190" y="240"/><path fill="#fff" stroke="#000" stroke-width="4.52" d="m478.54,178.73c-0.64364,47.3761-0.60563,94.7588,0,142.138,0.58338,45.6446,2.53285,81.264,20.0398,109.114,21.09,33.5503,56.2241,57.7606,101.419,81.5481,45.1947-23.7864,80.3288-47.9978,101.419-81.5481,17.5075-27.8517,19.4574-63.4711,20.0398-109.114,0.60563-47.3751,0.64364-94.7577,0-142.138h-242.918z"/><g fill="#d30214" stroke="#000" stroke-width="1.89"><path d="m638.092,305.827c0.23148-0.61914,2.05206-9.50851,2.44863-11.4322,1.88166-9.12752,13.8219-13.9307,18.6034-9.41431,2.97589,2.81089-0.4566,12.2277-0.4566,17.5143,0,5.28664,6.35858,19.824,6.35858,26.4324,0,6.6085-1.42485,39.5957-1.42485,48.8471,0,9.25144-9.30577,17.3038-13.9883,24.155-5.16005,7.54994-10.0498,13.1589-11.2916,23.7365-2.64723,13.0113-0.68114,15.2498,1.8521,30.3381-0.68168,3.11602-56.4209,13.7124-79.9955-0.61605,2.53699-11.3901,3.22457-20.0692,1.23278-35.3804-7.08976-14.5124-19.2283-24.755-22.8249-35.0353-3.59664-10.2795-3.00571-33.3635-1.46898-41.6638,0.74117-4.00324,2.78465-28.3793,2.91144-29.4279,0.27898-2.30719,0.9881-28.1943,0.96304-28.5623-0.0494-0.72641,0.39983-25.9749,0.99949-29.1042,2.21366-11.9352,20.1759-10.9456,21.7356-0.0884,0.85548,2.83558,0.91027,35.2971,0.98401,35.8468,0.0847,0.63111-0.11284,22.1574-0.3438,24.4707,0.56009-2.62549,0.19318-40.268,0.13712-45.8083-0.13735-13.5751-0.63142-40.1806-0.14782-42.1842,0.31169-9.96205,19.7811-13.7981,22.4138,0.0818,0.65501,3.45325,1.04855,42.9022,1.14435,41.7826,0.003,0.85922,0.99432,37.782,0.67999,37.9527,0.45594,2.40128-1.02714-60.2659-1.16129-61.0808-0.0771-1.08959-0.39876-20.6198-0.0817-30.2828,1.10922-13.5017,24.3326-14.0822,24.7261,1.04799,0.009,0.59884,0.97784,26.6778,0.94644,26.8497-0.0542,0.29711,0.0748,7.54854,0.108,7.89863-0.0392,0.37859,0.99335,51.3995,0.55698,53.5225,0.10619-2.94825-0.0824-23.4622-0.10358-24.1503-0.0202-0.30881-1.26643-51.9467,0.14928-54.8363,2.53575-8.16491,19.3553-9.40838,21.4915,2.54929,0.46793,1.05706,1.5129,24.355,1.526,25.4777,0.0144,1.23253,0.56394,26.3468,0.66751,27.8196,0.0238,0.63843,0.4209,9.6736,0.38104,10.1602,0.46976,9.12453,0.27152,12.5837,0.27152,12.5837z"/><path d="m638.446,303.768c-2.20679,9.657,1.37446,16.9883,1.37446,22.3486,0,5.36035-2.34847,17.2385-2.34847,17.2385l-1.14837,1.75488s-16.8479,2.4472-23.2051,7.80755c-6.35792,5.36035-13.9868,30.8218-11.4441,48.2423"/></g></svg>