<svg fill-rule="evenodd" height="500" viewBox="0 0 210 297" width="800" xmlns="http://www.w3.org/2000/svg"><path d="m0 82.875h210v131.25h-210z" fill="#ffd200" transform="matrix(2.2628571 0 0 2.2628571 -132.6 -187.53429)"/><g transform="matrix(.4784886 0 0 .4784886 -188.92006 59.034313)"><path d="m460.25462 25.573865 87.70515 76.476465 68.28256-43.700835 70.71037 41.27301 81.63559-76.47646 15.78086 41.87996-54.62604 83.152965-52.50171 29.13389-58.57125 6.06957-65.85474-4.85566-73.13819-47.34256-33.98954-66.158205z" fill="#fff" fill-rule="evenodd"/><path d="m817.33631 59.159328a18.115303 13.959989 0 1 1 -36.2306 0 18.115303 13.959989 0 1 1 36.2306 0z" fill="#fff" fill-rule="nonzero" transform="matrix(.9519323 .3063085 -.3063085 .9519323 -115.37573 -332.74389)"/><path d="m576.45542-61.305123c-1.75404-.01761-3.44641.18239-5.21875.5625-.41037.08801-.79355.21358-1.1875.3125-.02915.00732-.06469-.00738-.09375 0-1.26715.21027-2.33217.56173-3.5 1.09375-.08925.04066-.1909.0822-.28125.125-4.98063 2.04114-8.18433 5.31838-9.625 9.84375-.15549.46454-.25995.94611-.375 1.4375-.10929.484-.20757.98984-.28125 1.5-.05315.36801-.09034.74333-.125 1.125-.02673.30052-.04801.59663-.0625.90625-.00602.11733-.02688.2252-.03125.34375-.00874.27493-.00062.53037 0 .8125-.00631 1.05254.00763 2.13565.125 3.28125.47569 4.64299 1.70174 9.22147 2.875 11.59375.50512 1.02132.99807 1.691 1.4375 1.6875.09032-.0007.20311-.08235.34375-.1875.00686-.00513.02429.00536.03125 0 .02203-.01164.04067-.04827.0625-.0625.12863-.08386.25425-.23128.375-.40625.50952-.54974 1.126-1.35698 1.6875-2.34375 4.23811-7.4478 16.91168-5.86056 26.625 3.34375 3.97544 3.7671 7.54113 10.25092 6.75 12.3125-.41774 1.0886-1.83259.21243-5.34375-3.375-8.36216-8.5436-20.18074-12.06912-23.6875-7.0625-2.75998 3.9404-2.05717 5.39746 2.4375 4.96875 3.5111-.17235 5.93319 1.71219 8.3125 3.84375.79592.78837 1.63895 1.65048 2.59375 2.71875 6.02939 6.74596 11.32052 17.06236 13.625 26.531248 1.42148 5.84078 1.51037 7.9563.5 14.5-2.04944 13.27325-9.34383 25.93433-19.0625 33.125-2.62982 1.94575-6.88327 5.08519-9.4375 6.96875-2.55426 1.88354-5.77325 5.08422-7.1875 7.125l-2.59375 3.71875-4.59375-1.40625c-2.53139-.76183-7.13121-1.37499-10.21875-1.375-5.37192 0-5.69493-.14366-7.46875-3.4375-3.82229-7.09756-14.61003-15.62464-22.65625-17.90625-.85602-.24273-3.33104-3.49299-5.5-7.21875-2.43185-4.1773-5.73103-8.13516-8.625-10.34375-2.58118-1.96986-4.70633-3.81874-4.71875-4.09375-.01246-.275 3.25482-1.9916 7.25-3.8125 23.17674-10.56346 36.64169-30.908978 33.5-50.562498-1.27971-8.00556-3.72825-12.41717-10.28125-18.40625-6.33731-5.79194-13.57366-8.94919-24.0625-10.5-17.72844-2.62116-39.72913 7.4424-52.34375 23.9375-8.11773 10.61487-12.89055 23.72448-17.375 47.843748-2.08843 11.23237-2.21854 14.81466-2.25 56-.01848 24.199995-.41169 44.777195-.875 45.718755-1.27328 2.58763-4.1148 3.02724-8.21875 1.3125-4.45511-1.86146-4.44449-1.84846-4.4375-.28125.02996 6.71558 6.6267 15.03503 13.34375 16.84375 9.20757 2.47934 16.34393-2.41996 22.625-15.5 2.13643-4.44902 4.2163-9.78685 4.59375-11.875.91966-5.08745 1.87998-3.81253 1.5625 2.0625-.91083 16.85652-5.72298 46.86186-9.125 56.74999-2.478 7.20245-6.42862 14.02492-8.5625 14.84375-2.17364.83411-6.24844-.21162-10.3125-2.65625l-3.34375-2.03125.6875 4.40625c2.05497 12.66759 13.10722 20.52244 23.875 16.96875 10.27582-3.39131 23.00569-21.6275 32.1875-46.06249 1.55002-4.125 3.1161-7.85672 3.46875-8.28125.97705-1.17619-.73607 12.17803-3.5625 27.78124-8.23329 45.45186-21.02788 76.50001-31.53125 76.5-3.39861 0-8.2809-2.22029-11.8125-5.375l-2.375-2.125.5625 4.40625c.93782 7.33021 5.57214 15.11871 11.25 18.9375 4.45161 2.99405 5.54983 3.32436 10.46875 2.96875 7.50103-.54227 13.93876-4.02382 20.84375-11.25 12.82459-13.42107 22.6633-32.03869 37.1875-70.3125 2.35015-6.19305 4.44842-11.11408 4.65625-10.90625.20785.20785-.48995 7.09604-1.5625 15.28125-2.78965 21.28861-4.35647 39.03203-3.96875 45.21875l.34375 5.34375 2.625-2.0625c3.56715-2.8155 13.71191-17.83025 23.09375-34.125 8.69941-15.10943 9.21676-14.88714 5.6875 2.3125-2.83664 13.82429-9.58138 33.75943-16.21875 47.875-3.01977 6.42211-5.33066 11.8256-5.125 12.03125.20564.20566 3.84278.06229 8.09375-.34375 4.25095-.40605 8.05968-.53405 8.46875-.28125 1.54014.95186-3.61569 10.5966-16.1875 30.21875l-4.6875 7.28125-2.78125-4.71875c-1.52097-2.59531-4.68033-6.61783-7.03125-8.96875-2.35094-2.35094-4.54298-5.1414-4.875-6.1875-.33202-1.04609-1.6406-2.8735-2.90625-4.0625-2.03927-1.91578-3.00585-2.07752-8.53125-1.5-5.77315.60341-11.12503 3.13346-11.125 5.28125 0 .44134 1.34997 1.07625 3 1.40625 1.79505.35901 2.99997 1.22273 3 2.15625 0 3.4058 3.26795 6.52843 8.4375 8.03125 5.59365 1.62612 10.10791 5.57983 13.03125 11.375l1.71875 3.375-4.34375-.8125c-2.39253-.45345-8.16878-.90696-12.84375-1-4.675-.09303-9.73753-.52027-11.25-.9375-4.44603-1.22645-7.37168.16183-11.03125 5.21875-3.63078 5.01711-4.94798 8.53622-4.0625 10.84375.43102 1.12322 1.0151.99882 3-.5625 2.03356-1.59959 2.90724-1.73755 4.9375-.8125 1.91564.87283 3.6225.78678 7.6875-.46875 8.63126-2.66584 12.51136-3.05422 17.28125-1.71875 2.46721.69078 4.75134 1.65276 5.0625 2.15625.77895 1.26037-9.25823 16.34037-12.125 18.21875-1.27839.83764-2.58331 2.78135-2.90625 4.3125-.67912 3.22003 1.51261 12.28602 3.84375 15.84375 1.84132 2.81022 6.29478 3.54162 4.75.78125-1.46826-2.62363-.17753-5.33092 3.21875-6.75 2.61294-1.09175 3.36903-2.17778 4.46875-6.46875 1.48292-5.78607 9.4211-18.63527 13.5-21.84375 1.48361-1.16701 5.65884-2.64281 9.40625-3.3125 7.38135-1.31912 10.67148-.45486 16.5 4.25 1.93371 1.56092 4.03876 2.22816 6.78125 2.15625 3.22642-.08459 4.44463.41284 6.4375 2.78125l2.4375 2.9375.625-2.4375c.33708-1.34305-.123-5.32012-1-8.8125-2.01578-8.02745-4.93236-10.89754-10.875-10.71875-5.40316.16257-19.68753-1.2431-19.6875-1.9375 0-1.50208 23.6564-38.18749 24.625-38.1875.62395 0 2.7994 3.17209 4.84375 7.0625 2.04436 3.89044 3.83977 6.92795 4 6.75.16021-.17793 4.21861-12.01248 9.03125-26.3125 4.81267-14.29999 9.08929-26.38642 9.5-26.84375.83668-.93165 2.43248 5.79509 7.40625 31.34375 3.59769 18.48034 4.53107 21.66635 2.5 23.1875-.01788.01339-.04416.01812-.0625.03125-7.47086 2.67361-12.28124 6.7988-12.28125 11.4375 0 5.6777 7.2067 10.58794 17.6875 13l-.4375 10.28125c-.3822 9.27615-.84437 11.54377-3.5 17.21875-5.80223 12.39907-15.79061 19.12796-28.15625 19-7.37094-.07626-12.84237-1.66715-19.0625-5.59375l-4.15625-2.625-2.34375 2.5625c-7.26844 7.84278-2.09572 23.58055 9.78125 29.6875 2.13749 1.09906 6.3768 2.15888 9.40625 2.34375l5.5.3125-.125 8.34375c-.07481 4.57819.21976 9.88751.65625 11.8125.7605 3.35386.96687 3.49698 4.75 3.1875 5.20581-.42586 15.14835-2.98339 18.625-4.78125 2.67298-1.38225 2.79475-1.32174 3.4375 1.34375 1.94574 8.06907 8.83272 17.58347 16.34375 22.59375 1.35987.90711 2.77152 1.65625 3.125 1.65625.85773 0 5.6197-3.60033 9.78125-7.40625 3.22057-2.94533 10.12497-15.49809 10.125-18.40625 0-.94622.55455-1.15155 1.75-.625 5.72341 2.52104 15.3789 5.33068 19.21875 5.59375 5.47586.37517 5.79351-.38754 5.9375-14.21875l.09375-9.59375 5.46875-.125c12.47071-.32811 22.69762-10.54094 22.875-22.8125.07529-5.20855-2.01505-9.96502-4.875-11.0625-.77678-.29808-2.59441.40105-4.03125 1.53125-4.57053 3.59517-12.97079 6.11747-20.21875 6.09375-18.81981-.06158-31.21878-15.47126-31.21875-38.8125 0-5.73148.15335-6.99296 1.5625-7.75 9.87153-2.49715 16.56252-7.27612 16.5625-12.75 0-4.81156-5.17201-9.0599-13.125-11.71875-.8184-.55872-.96303-1.20685-.71875-2.28125.2677-1.17747 2.60149-12.05624 5.15625-24.15625 2.55476-12.09999 4.89252-23.2573 5.21875-24.78125.32622-1.52394.89282-2.9355 1.25-3.15625.35717-.22074 4.16017 10.48656 8.4375 23.78125 4.2773 13.29469 8.35545 25.50625 9.09375 27.15625 1.2358 2.76182 1.42571 2.84122 2.15625 1 .43645-1.09999 2.30759-4.62356 4.1875-7.84375 2.87259-4.92067 3.64662-5.63871 4.78125-4.5 2.01523 2.02247 23.37241 37.82402 22.59375 37.875-.36894.02415-4.03128.51093-8.15625 1.0625-4.125.55157-9.19241.95397-11.25.90625-2.05757-.04771-4.69223.415-5.84375 1.03125-4.6911 2.5106-8.95309 20.96875-4.84375 20.96875.51293 0 .93747-.51205.9375-1.15625 0-2.69354 3.33521-4.84375 7.5625-4.84375 3.01284 0 5.09849-.68397 7.09375-2.34375 6.00049-4.99154 9.76444-5.68953 19.25-3.5 4.38867 1.01303 5.6468 1.90964 9.4375 6.75 5.29742 6.76431 7.46655 10.86752 9.625 18.09375 1.16423 3.89773 2.21751 5.58854 3.59375 5.84375 3.47475.64438 4.66174 2.37493 4.09375 5.875-.6201 3.82123.07257 4.04433 3.625 1.25 1.57398-1.2381 3.19811-4.11026 4.15625-7.40625 2.33039-8.01624 2.03829-10.22234-1.8125-13.875-2.7647-2.62244-8.57645-10.55821-12-16.40625-1.13896-1.94555 4.70658-4.28125 10.6875-4.28125 2.98317 0 7.40582.69842 9.8125 1.5625 2.89538 1.03955 5.93714 1.39415 9.03125 1 3.95657-.50403 4.89763-.30149 6.09375 1.40625 1.702 2.42995 2.74997 1.65775 2.75-2.03125 0-3.55703-5.74142-12.05913-9.28125-13.75-2.22449-1.06258-3.51097-1.09083-6.4375-.125-2.01041.66349-7.28228 1.14111-11.71875 1.0625-4.43647-.07858-9.75003.28658-11.8125.78125-4.30386 1.03226-4.271 1.03604-2.125-3.21875 2.74709-5.44655 6.5338-8.674 12.0625-10.28125 5.4547-1.58572 9.31247-5.11154 9.3125-8.53125 0-1.70518 1.24391-2.28646 4.75-2.15625 2.05676.07639 1.41453-2.56904-1-4.125-3.19091-2.05624-12.65772-3.58063-15.5-2.5-1.28834.48982-3.09151 2.30984-4.03125 4.03125-.93977 1.72142-3.37468 4.67547-5.40625 6.59375-2.03156 1.91829-5.17158 5.94098-6.96875 8.90625-1.79714 2.96527-3.51623 5.36133-3.8125 5.34375-1.36507-.08101-21.03128-34.21182-21.03125-36.5 0-.33196 4.04997-.29348 9 .09375 4.95.38724 8.99997.48358 9 .21875 0-.26482-2.17649-5.15639-4.84375-10.875-6.06502-13.00336-11.39996-28.28871-14.59375-41.90625-2.53379-10.80339-4.19979-21.99999-3.28125-22 .28571 0 2.19175 3.26251 4.25 7.25 5.91854 11.466 19.29026 32.48566 23.40625 36.8125 5.83767 6.13666 6.34911 5.53865 5.59375-6.3125-.81878-12.84567-3.31305-39.04161-4.59375-48.15625-.53318-3.79452-.81142-7.03233-.625-7.21875.18642-.1864 3.1264 7.16906 6.5625 16.375 7.53297 20.18232 18.30575 42.79684 25.59375 53.75 6.26022 9.40852 14.72329 17.79579 20.75 20.53125 10.87176 4.93463 21.2771.9476 26.59375-10.1875 1.66486-3.48688 3.30679-8.06359 3.65625-10.15625l.625-3.78125-5.15625 3.53125c-8.66929 5.96343-13.38287 4.48599-19.65625-6.21875-8.66131-14.77939-19.05569-56.90338-21.75-88.21874l-.5625-6.5 2.53125 7c1.38088 3.84999 5.38613 12.85 8.90625 19.99999 9.88694 20.08201 19.40705 29.33479 29.03125 28.25 9.572-1.0789 14.83917-6.44129 16.46875-16.75.81283-5.14191.27186-6.12447-1.90625-3.5-.68259.82247-2.97646 2.0219-5.09375 2.65625-4.59072 1.37542-6.01718.50058-9.0625-5.46875-2.73014-5.3515-4.46065-11.29218-6.8125-23.37499-1.97903-10.16742-5.08488-38.68607-4.9375-45.3125.06767-3.04233.34583-2.58464 2.28125 3.5 3.03263 9.53418 8.36013 19.19829 12.15625 22.09375 5.74254 4.38005 12.78105 4.09267 18.9375-.75 3.1338-2.46505 6.53122-8.83663 6.53125-12.25 0-2.46597-.02188-2.47937-3.5625-1-8.89055 3.71471-10.069-.25077-8.75-29.812505 2.803-62.82027-1.92164-97.251488-16.34375-118.999998-11.06012-16.6786-28.90422-26.26304-48.34375-25.96875-18.79627.28454-35.16411 10.98088-39.09375 25.53125-1.80888 6.69786-.71071 19.24254 2.25 25.65625 5.49115 11.895298 14.72749 20.597298 29.71875 27.999998l8.375 4.125-5.6875 5.09375c-3.13411 2.79338-7.08626 7.52794-8.78125 10.53125-1.9934 3.53211-4.03716 5.79825-5.78125 6.40625-8.53203 2.97428-19.55426 11.92624-22.03125 17.90625-1.09781 2.65036-1.66974 2.92681-5.84375 2.9375-2.54577.00653-6.94023.62681-9.75 1.375l-5.09375 1.375-4.25-4.90625c-2.32857-2.7033-7.06596-6.71773-10.53125-8.90625-11.83166-7.47237-19.03315-17.98127-20.21875-29.46875-.49961-4.84067-.2862-5.83455 1.71875-7.96875l2.28125-2.4375 2.28125 4.875c2.22288 4.79787 4.7414 7.06251 7.875 7.0625 1.3385 0 1.47686-1.00892.9375-6.8125-.67571-7.2704.87587-12.52392 5.6875-19.28125l2.125-2.999998 2.34375 2.5625c1.29522 1.397568 2.83 2.531228 3.40625 2.531248 1.68278 0 1.31799-20.265298-.5-27.281248-.95904-3.70104-2.21375-7.10228-3.78125-10.25l.03125-.03125c-.17435-.35277-.38014-.68479-.5625-1.03125-.45435-.86322-.93241-1.7064-1.4375-2.53125-6.16495-10.06775-16.15327-17.32313-31.3125-22.8125-6.60289-2.3909-8.84923-2.26203-20.78125 1.15625-1.18352.33904-2.06091.56094-3 .5625-.13439-.0083-.2697-.01738-.40625-.03125-.31491-.03199-.63697-.0624-.96875-.125-.19193-.03621-.3942-.10943-.59375-.15625-1.90199-.51739-4.56925-1.76196-9.625-4.21875-9.78024-4.7526-15.55037-6.75968-20.8125-6.8125zm43.1875 19.6875c.60634-.02903 1.28061-.03401 1.96875.03125.04274.00614.08213.02477.125.03125 2.73396.41356 5.70066 1.50411 8.5625 3.125.20525.12852.41722.23899.625.375.05171.03082.10464.06261.15625.09375 2.2178 1.46614 4.53536 3.34052 6.5 5.15625.07805.07213.14188.14678.21875.21875.12195.12762.25568.24555.375.375 2.56589 2.78367 3.9593 4.73224 4.21875 5.6875.00237.00872-.00218.0227 0 .03125-.02262.11806-.07612.23236-.15625.3125-.2415.2415-2.10811-.76156-4.15625-2.21875l-3.71875-2.625-.0625.0625-.125-.09375-2.71875 3.125c-1.09755 1.26842-2.64516 2.49375-3.9375 3.15625-.02019.01035-.04244.02117-.0625.03125-.10192.04297-.21036.08645-.3125.125-.30064.11346-.57357.23731-.875.3125-.04153.01036-.08348.02162-.125.03125-2.24436.40318-4.4117-.19642-6.125-1.4375-.79238-.62405-1.50874-1.41802-2.15625-2.40625-1.0831-1.653-1.45534-3.46666-1.03125-5.15625.37092-1.4779.15573-3.20978-.5-4-.18246-.21985-.31442-.41848-.4375-.625-.12559-.46826-.24184-.88762-.34375-1.125-.03775-.08792-.07071-.16517-.09375-.25.00046-.0094-.00061-.0219 0-.03125-.00241-.00949.00223-.02181 0-.03125.10963-1.33543 1.77642-2.16582 4.1875-2.28125zm2.875 5.34375c-.08631.01394-.16865.06855-.25.09375-.06242-.00654-.13173-.04131-.1875-.03125-.15882.02865-.27717.16295-.40625.34375-.93122.71426-1.34992 2.2709-1.15625 3.875-.0985 1.13633.12036 1.99772.71875 2.71875.461.55547 1.02109.93532 1.625 1.1875.02123.00886.04116.02274.0625.03125 1.35418.84908 2.40039.95113 3.59375.3125 2.29886-1.2303 4.20352-4.6312 3-5.375-.17519-.10826-.36796-.12274-.5625-.0625-.01112.00344-.02015-.00394-.03125 0-.01797.00311-.04265.02441-.0625.03125-.27683.09543-.72829.54079-1.5625 1.375-.34819.34819-.71838.64535-1.09375.875-.46666.12672-1.00022.19356-1.53125.1875-1.17561-.01345-1.80228-.06437-2-.21875-.02533-.01978-.05182-.03857-.0625-.0625-.08507-.19064.27631-.52066 1.03125-1.09375.50662-.38458.87946-.76194 1.15625-1.125.02835-.02602.06839-.06876.09375-.09375.2415-.23802.34496-.4226.3125-.625.31258-.90403-.15221-1.68234-1.46875-2.1875-.44809-.17195-.85446-.21511-1.21875-.15625zm-161.59375 73.031248 1.3125 3.5c.73337 1.925 4.25319 9.22885 7.8125 16.21875 16.47649 32.35727 42.4834 54.912065 76.34375 66.218755 12.34088 4.12089 32.09443 8.198 43.875 9.0625 5.23754.45238 10.09767.80372 14.875 1l5.3125-26.53125-26.53125 5.3125v-21.250005l26.53125 5.3125-5.3125-26.53125h21.25l-5.3125 26.53125 26.90625-5.3125-.40625 21.250005-26.5-5.3125 5.3125 26.53125c1.4428-.22071 7.74997-.64877 11.875-.9375 17.03694-1.19256 37.25799-5.81672 53.34375-12.21875 14.16987-5.63951 26.66011-12.95682 37.53125-22.062505.83624-.70044 1.65141-1.43469 2.46875-2.15625.09391-.0829.18759-.16682.28125-.25 1.27272-1.14683 2.54914-2.29942 3.78125-3.5.61606-.60029 1.20646-1.1987 1.8125-1.8125 1.47734-1.49623 2.85021-2.9478 4.15625-4.34375 10.0962-11.14199 18.47376-24.29856 25.21875-39.59375l3.90625-8.875.3125 5.375c.69005 11.77415-4.48191 33.04365-11.46875 47.25-20.71675 42.123455-69.18885 69.377985-130.84375 73.562505-8.25.55993-15.45003.97942-16 .90625-.55-.07319-6.62503-.48554-13.5-.90625-21.96365-1.34404-50.02693-8.32983-69.46875-17.3125-10.59141-4.89352-20.15772-11.30773-29.5-19.71875-.63669-.54963-1.25216-1.09552-1.875-1.65625-3.46228-3.11711-6.69691-6.42786-9.71875-9.875-.34074-.37688-.66786-.74961-1-1.125-.06257-.07331-.12513-.14531-.1875-.21875-11.24622-12.76512-17.59784-24.808515-22.625-42.156255-2.64092-9.11328-5.05758-26.54203-4.375-31.4375z"/></g></svg>