<svg clip-rule="evenodd" fill-rule="evenodd" height="500.09521" image-rendering="optimizeQuality" shape-rendering="geometricPrecision" text-rendering="geometricPrecision" viewBox="0 0 210 297" width="999.99994" xmlns="http://www.w3.org/2000/svg"><g transform="matrix(1.484326 0 0 1.484326 -103.64682 -62.02521)"><path d="m-59.4479 41.8395v200l200.001-.0005c32.8131-.0002 62.0187-15.9466 80.2712-40.4835l119.728-159.516-400-.0001z" fill="#fff" stroke="#0a0b0c" stroke-width=".0762"/><path d="m140.553 221.839c26.2505-.0002 49.6152-12.7573 64.2169-32.3868l95.7825-127.613-360-.0006v160l200.001.0001z" fill="#d12421"/><g stroke="#0a0b0c" stroke-width=".7056"><path d="m.3702 124.475c3.1203-3.8086 1.5478-7.6231 1.0329-9.3904 6.34.1786 11.1099 2.4511 13.8971 5.9353 1.4362 1.7955 3.5554 3.1169 6.2291 3.1278 1.2424.005 1.813.5963.622 1.7711-3.6608 3.6109-9.6993 3.1297-13.3535 3.0985-.1548-.0926-.3088-.1843-.4624-.2749-3.5027-2.0664-6.673-3.5996-7.9652-4.2674z" fill="#f7d417"/><path d="m-28.7123 140.612c-3.3808-3.769-3.8615-10.2127-2.1803-14.5617 4.0062-10.3635 22.7132-11.4044 32.2814-11.0397-.0003.0069-.0006.014-.0008.0209.4983 1.7436 2.1334 5.5965-1.0178 9.4428 4.4586 2.3042 31.2711 14.9023 16.9818 24.208-.0062.0233-.0132.0459-.0194.0691-14.9229-.4209-27.7714-1.6416-39.5718-1.3171.1958-4.8734 5.7052-6.2768 12.274-6.1343 7.506.1628 15.7686.4939 18.3519.4562 3.012-.044 4.3512-.3617 4.4143-1.2679.1599-2.2969-3.7783-5.1327-7.9486-5.1226-7.0179.017-14.0901-1.0596-20.6631-1.4439-4.5727-.2674-13.1869 1.6962-12.9016 6.6902z" fill="#f7d417"/><path d="m.42 124.491c-4.2318-1.4179-9.3118-2.0031-15.6798-.6963" fill="none"/></g><path d="m6.96 115.953c-3.915 1.7268-2.9979 6.9257.8133 8.4127 2.6179 1.0214 4.8194.132 4.6089-3.1702-.1118-1.7552-.8809-3.2775-2.4595-4.2453-.7709-.4726-1.8571-1.0585-2.9627-.9972z" fill="#0a0b0c"/><g stroke="#0a0b0c" stroke-width=".7056"><path d="m55.65 90.7694c1.4342 0 2.7295.518 3.6397 1.3443.6767-2.759 3.5165-3.8553 6.778-3.8268 3.245.0284 3.3114.7561 1.9382 3.4309l-10.6645 20.7706-52.1323-2.3344-8.9567-23.2172c-.712-1.8444-.8132-3.0597 1.7384-3.0997 5.5267-.0866 6.8381 1.8669 7.0948 4.9867.8637-.609 1.9725-.976 3.1797-.976 2.7431 0 4.9803 1.8948 4.9803 4.218s-2.2372 4.218-4.9803 4.218c-.6515 0-1.2742-.1072-1.8455-.3014.9972 2.0172 2.9615 3.1858 5.2953 3.7293 2.5029.5829 7.7382.7059 10.2223.1848 2.4826-.5209 4.5021-2.0223 5.467-4.658-.8089.4811-1.7929.7645-2.8527.7645-2.743 0-4.9802-1.8948-4.9802-4.218s2.2372-4.218 4.9802-4.218c1.265 0 2.4224.403 3.3025 1.0651-.2802-.5414-.4363-1.1384-.4363-1.7656 0-2.4347 2.3446-4.4205 5.2193-4.4205 2.8748 0 5.2194 1.9858 5.2194 4.4205 0 .8678-.2977 1.6783-.8113 2.3624.6813-.2972 1.4528-.4649 2.2694-.4649 2.7431 0 4.9803 1.8948 4.9803 4.218s-2.2372 4.218-4.9803 4.218c-1.5298 0-2.902-.5896-3.8167-1.5141.4685 2.8714 2.445 4.4026 4.9095 5.1814 2.959.935 8.3478 1.2893 11.2893.7037 1.7641-.3513 3.7394-1.1426 4.7648-2.4223-.2644.037-.5352.0567-.8116.0567-2.743 0-4.9802-1.8948-4.9802-4.218s2.2372-4.218 4.9802-4.218z" fill="#f7d417"/><path d="m1.4031 115.084c6.34.1786 11.1099 2.4511 13.8971 5.9353 1.4362 1.7955 3.5554 3.1169 6.2291 3.1278 1.2424.005 1.813.5963.622 1.7711-3.6608 3.6109-9.6993 3.1297-13.3535 3.0985 8.4926 5.084 18.5206 13.1753 8.5542 19.6657-2.787 10.5487-14.169 13.2788-23.0352 13.8362 3.7281 9.9385 18.0796 8.7384 24.608 2.0212-9.2769 23.2007-30.091 26.3187-46.719 26.781 13.0914 12.5624 41.9734 8.7451 52.0716-11.6386-1.5933 4.0375-1.5504 14.7208-.4115 20.0178.8066 3.7515 2.5803 3.8355 4.7927 1.7122 3.1278-3.0019 8.7054-14.1009 10.4228-21.3226.4862 7.0316 4.4301 16.94 7.0653 21.0126 1.7984 2.7794 2.8483 2.6885 3.8844-.9413 2.3409-8.201 1.5484-19.5551.2497-27.4668 4.1982 9.8295 13.0671 22.4339 18.4183 26.9554 2.6067 2.2025 4.9384 2.7463 4.5034-2.0946-1.0563-11.754-9.4146-25.0473-15.5261-34.9037.428.3782 14.8477 16.1353 21.9956 20.1942 4.4866 2.5478 4.193-.8489 2.8347-3.8323-6.1268-13.4565-18.5071-26.6543-23.02-32.5531 5.6993 4.2975 14.1289 12.8031 20.73 14.8809 3.9407 1.2403 3.2554-1.4539 1.4157-4.8432-5.1258-9.4434-17.1474-19.5597-25.0356-27.2269 2.2555 1.8285 11.166 9.094 16.1536 10.8725 3.5337 1.2599 6.0939-.878 3.5388-4.8017-4.7463-7.2883-11.457-14.4824-16.1352-18.7985-2.5172-2.3225-4.7644-3.6489-6.4504-4.2031l-47.6728-2.1862c-3.3106.1869-4.5937 3.2521-4.6428 4.8778.0047.0164.0096.0335.0145.0503z" fill="#fff"/></g></g></svg>