<svg height="628pt" viewBox="0 0 903 628" width="903pt" xmlns="http://www.w3.org/2000/svg"><path d="m0 0h903v628h-903z" fill="#fff"/><path d="m1.07 1.07c34.98-.4 69.97.02 104.95-.19 245.32.08 490.64.02 735.97.04 19.98.14 39.97-.24 59.94.16.4 48.65.03 97.31.16 145.97 0 98.97-.03 197.94 0 296.91-.1 61.04.15 122.09-.13 183.13-300.31-.01-600.61-.01-900.91-.01-.33-26.68 0-53.38-.11-80.07-.03-167.32.03-334.65-.06-501.98.25-14.65-.25-29.31.19-43.96z" fill="#030"/><path d="m473.24 64.01c12.74 3.92 23.6 13.63 28.6 26.03 4.7 11.32 4.22 24.61-1.24 35.58-5.89 12.07-17.44 21.1-30.49 24.14-11.62 2.64-24.29.92-34.49-5.35-7.68-4.5-13.71-11.43-17.74-19.32 6.19 5.39 13.45 9.77 21.62 11.24 13.37 2.78 27.97-1.5 37.69-11.1 8.12-7.75 12.81-19 12.36-30.24-.29-12.14-6.66-23.72-16.31-30.98z" fill="#b8b6ae"/><path d="m435.58 80.88c2.59-2.39 4.77-5.18 7.19-7.74-.3 3.6-.67 7.18-1.07 10.77 3.33 1.31 6.63 2.7 9.86 4.27-3.54.84-7.1 1.57-10.63 2.42-.27 3.45-.54 6.9-1.07 10.32-1.87-2.9-3.63-5.88-5.35-8.87-3.6.59-7.16 1.39-10.75 2.06 2.28-2.7 4.88-5.14 6.95-8.01-1.52-3.18-3.58-6.05-5.27-9.13 3.39 1.26 6.58 3.15 10.14 3.91z" fill="#b8b6ae"/><path d="m327.39 144.06c.64-2.62 2.28-4.84 3.65-7.13 1.17 2.31 2.27 4.67 3.22 7.08 2.53-1.11 5.11-2.09 7.74-2.92-.67 3.12-1.72 6.16-3.37 8.9 2.87 1.02 5.5 2.59 7.94 4.41-2.72 1.18-5.51 2.57-8.56 2.48-3.1-.1-5.82-1.73-8.65-2.78-4.19 3.43-8.25 7.02-12.16 10.76 5.26-1.03 10.54-2.04 15.87-2.65-1.27 1.96-2.7 3.9-4.78 5.06-4.84 2.91-9.94 5.38-14.7 8.43 1.69-.1 3.38-.21 5.07-.3-.52 1.93-1.08 3.86-1.65 5.77 3.08.88 6.25 2.12 8.19 4.83-1.68 1.8-3.96 2.85-6.12 3.95 1.04 2.02 2 4.09 2.52 6.32-3.33 1.53-7.01.8-10.1-.89-1.84 2.07-4.16 3.62-6.8 4.46-.39-3.95.28-7.91 1.92-11.52-5.54 2.05-10.54 5.25-14.85 9.27 2.93-.63 5.96-1.08 8.82.15-4.85 6.47-11.17 11.52-17.6 16.31-3.08 2.05-4.24 5.67-5.21 9.05 3.04-4.01 6.26-8.04 10.68-10.6 5.64-3.33 11.57-6.14 17.31-9.3-1.02 5.86-5.9 9.68-9.61 13.9-6.06 6.63-12.3 13.1-18.93 19.16-3.24 3.11-6.71 6.41-7.38 11.1 6.73-7.62 14.83-13.97 23.71-18.89 1.7-1.03 3.71-1.16 5.63-1.35-4.98 6.84-12.24 11.48-17.92 17.69 3.63 1.85 6.96 4.75 7.3 9.09-.59-6.08 3.52-11.29 8.84-13.68 2.35 3.96 2.67 8.73.83 12.97 3.22.55 6.66 1.26 8.94 3.82-1.93 3.28-5.42 5.04-8.88 6.28 2.15 3.39 3.35 7.37 2.35 11.38-4.33-.7-8.45-2.57-11.2-6.07-2.2 3.81-5.9 6.39-10.16 7.41-.42-1.22-.83-2.44-1.23-3.66-1 1.41-1.99 2.83-2.99 4.24.94.11 2.81.31 3.75.41-.51 1.68-.5 3.68-1.73 5.05-1.88 1.53-4.31 2.18-6.24 3.63-2.52 4.86-4.04 10.17-5.61 15.4.64.8 1.15 1.66 1.51 2.61-.73 1-1.57 1.93-2.39 2.87-.02 1.24-.02 2.48-.02 3.73 5.75-10.21 12.62-19.78 20.47-28.48 1.75-1.99 3.85-3.63 6.12-4.99-.35 2.4-1.14 4.73-2.42 6.8-6.58 11.04-14.46 21.43-19.18 33.48-2.93 7.25-1.02 15.12-.14 22.58 2.67 2.09 5.12 4.46 7.16 7.19.47-2.49 1.17-4.93 2.1-7.29 2.3.85 4.61 1.66 6.92 2.48.45-1.37.93-2.73 1.39-4.1-.61-.98-1.23-1.97-1.84-2.95-2.32.44-4.72 1.17-7.09.61-3.27-.74-5.83-3.08-8.33-5.16 3.66-3.62 9.09-3.54 13.87-3.88-5.96-5.75-6.74-14.73-4.91-22.42 4.74 2.41 8.85 6.03 11.2 10.86 3.47-5.91 7.6-11.76 13.64-15.27.17 7.92.43 16.59-4.03 23.53 5.27-1.59 10.82-1.24 16.23-.78-3.51 5.38-8.67 9.55-14.54 12.09 2.23 2.69 4.05 5.69 5.5 8.87-6.17-.2-12.03-2.1-17.75-4.25-.63 1.85-1.24 3.7-1.84 5.55 1.76-.34 3.51-.69 5.27-1.04.17 2.7 1.07 5.61-.22 8.17-1.5 3.1-4.56 4.94-7.12 7.07.16 4.52.5 9.05 1.18 13.53 4.18-9.81 10.72-18.68 19.18-25.21.39 2.26.81 4.65-.01 6.88-1.99 5.84-5.23 11.15-8.23 16.51 3.66 1.58 6.13 4.71 6.99 8.6 1.58-5.2 4.94-9.68 9.56-12.57 1.12 5.59 3.12 11.65.92 17.23 4.6-1.81 9.45-.51 13.9 1.07-3.42 4.89-8.17 8.76-13.86 10.68 4.02 5.35 7.41 11.17 10.13 17.29-.09-2.32-.42-4.67.02-6.97 1.31-2.75 3.81-4.75 6.46-6.16 1.99 3.01 3.65 6.48 3.58 10.16-.21 4.28-5.16 6.32-6.28 10.01 2.22 5.94 5.37 11.54 8.49 17.07 1.47 2.93 4.19 4.82 6.85 6.59 1.36-1.06 2.74-2.09 4.14-3.1-5.06-2.43-8.68-7.15-10.21-12.49 5.25-.46 10.31 1.09 15.08 3.13-1.06-4.9-2.28-10.22-.36-15.05 5.16.89 8.01 6.98 8.51 11.82 4.32-2.67 9.28-4.38 14.43-3.59-.83 3.71-2.53 7.14-4.8 10.17 4.96 1.55 8.93 5 12.41 8.73-4.07 4.5-10.62 3.26-16.02 3.67 5.62 5.75 11.94 10.72 18.09 15.87-2.69-4.68-3.26-10.11-3.67-15.39-.14-1.1.01-2.14.44-3.14 3.6 1.93 5.66 5.72 8.45 8.59 5.52 5.92 9.94 12.72 14.86 19.12 4.34-1.19 8.27-3.51 12.67-4.51-.81-1.58-1.61-3.17-2.4-4.75-7-.45-13.78-3.44-19.06-8-2.98-2.5-4.1-6.38-3.97-10.16 4.91.56 9.71 1.88 14.15 4.06-.28-2.75-.85-5.62.15-8.3.81-2.57 3.07-4.22 5.03-5.91 2.95 3.88 5.22 8.27 6.23 13.07 3.84-3.56 9.06-4.8 14.17-4.92-1.63 5.8-4.19 11.38-8.28 15.88 4.15 3.1 4.29 9.04.87 12.74 2.06 1.45 4.08 2.96 6.04 4.55.56-2.77 1.12-5.72 3.13-7.85 4.14-4.68 10.02-7.5 13.64-12.69-.6-1.77-1.18-3.55-1.71-5.33 2.29 1.34 5.73 2.13 6.3 5.15-2.91 5.9-10.51 8.32-12.19 14.99-.76 5.54 2.77 10.4 5.24 15.06 1.38.57 2.77 1.12 4.16 1.71-2.37-4.46-2.36-10.01.66-14.18 4.03 6.4 8.52 12.61 10.69 19.96.45.01 1.35.04 1.8.06 2.11-6.87 6.04-12.88 9.96-18.82 1.53-1.55 2.34 1.25 2.58 2.38 1.21 3.56.37 7.31-1.18 10.62 1.38-.6 2.79-1.16 4.18-1.73 2.35-4.44 5.51-8.93 5.38-14.15-1.02-6.99-8.72-9.62-12.01-15.24-.91-3.37 3.82-4.36 5.82-5.86-.48 1.82-.99 3.63-1.51 5.44 4.96 7.35 16.16 10.36 16.63 20.44 2-1.55 4.04-3.04 6.12-4.48-1.37-2.19-3.06-4.6-2.44-7.34.21-2.26 1.92-3.85 3.32-5.45-4.11-4.47-6.61-10.07-8.31-15.84 5.12.09 10.34 1.34 14.21 4.89 1-4.81 3.26-9.22 6.26-13.07 1.79 1.6 3.86 3.11 4.81 5.41 1.15 2.79.57 5.89.38 8.8 4.42-2.2 9.22-3.5 14.12-4.05.11 3.76-.98 7.62-3.95 10.11-5.26 4.6-12.07 7.6-19.07 8.04-.81 1.58-1.63 3.17-2.46 4.75 4.39.73 8.05 3.7 12.45 4.23 4.03-3.71 6.49-8.81 10.08-12.93 4.15-4.82 8.12-9.81 12.6-14.32l1.4.76c-.2 5.85-.82 11.86-3.44 17.18 6.21-4.83 12.24-9.9 17.81-15.46-5.41-.4-11.97.83-16.06-3.63 3.44-3.79 7.47-7.17 12.41-8.77-2.22-3.04-3.87-6.44-4.96-10.03 5.19-1.03 10.21.79 14.61 3.44.34-4.83 3.07-9.28 7.18-11.81 1.86-.49 1.82 1.68 2.16 2.92.53 4.08-.3 8.17-1.18 12.14 4.75-2.07 9.81-3.48 15.05-3.38-1.35 5.49-5.1 10.24-10.17 12.75 1.39 1.01 2.76 2.04 4.14 3.09 2.17-1.58 4.62-3 6.04-5.38 3.44-5.45 6.24-11.29 8.95-17.13 1.11-1.5-.55-2.82-1.38-3.94-1.61-1.99-3.84-3.71-4.46-6.28-.52-3.81 1.19-7.48 3.1-10.66 2.14-.34 3.62 1.87 5.07 3.14 2.78 2.43 1.88 6.31 1.8 9.55 2.66-6.14 6.1-11.93 10.09-17.29-5.68-1.93-10.42-5.8-13.85-10.68 4.46-1.61 9.3-2.84 13.92-1.08-2.2-5.57-.26-11.63.91-17.22 4.56 2.86 7.83 7.29 9.53 12.38 1.05-3.74 3.33-6.88 7-8.39-2.88-5.11-5.93-10.18-7.95-15.72-.86-2.29-1.24-4.91-.1-7.17.93.41 1.79.96 2.57 1.63 7 6.37 12.7 14.18 16.36 22.92.72-4.41 1.33-8.9.95-13.38-2.17-2.42-5.38-3.95-6.8-7.01-1.39-2.62-.42-5.6.03-8.33 1.24.3 3.73.91 4.98 1.21-.6-1.88-1.18-3.75-1.78-5.62-5.75 2.11-11.63 4.06-17.81 4.23 1.47-3.18 3.3-6.18 5.54-8.87-5.91-2.5-11.03-6.72-14.56-12.08 5.29-.52 10.65-.59 15.89.45-3.98-7.02-3.93-15.39-3.67-23.21 6.03 3.54 10.16 9.39 13.63 15.3 2.31-4.88 6.46-8.5 11.25-10.87 1.68 7.71 1.11 16.91-5.2 22.46 4.68.3 10.09.08 13.79 3.48-3.21 4.91-9.64 6.93-15.12 4.88-.62 1.02-1.23 2.04-1.84 3.06.48 1.34.94 2.68 1.43 4.03 2.3-.84 4.61-1.65 6.91-2.51.89 2.37 1.58 4.81 2.1 7.3 2.03-2.72 4.47-5.09 7.13-7.19.87-7.46 2.81-15.35-.15-22.61-4.62-11.83-12.33-22.05-18.81-32.87-1.35-2.24-2.33-4.68-3.13-7.15 4.25 1.51 6.9 5.28 9.77 8.52 6.5 7.66 12.21 15.95 17.17 24.68l.06-3.75c-1-1.07-1.98-2.15-2.96-3.24.55-.45 1.64-1.35 2.18-1.8-1.69-5.26-3.15-10.67-5.69-15.59-1.76-1.73-4.42-2.17-6.28-3.79-1.09-1.33-1.33-3.13-1.89-4.7 1.28-.33 2.58-.64 3.88-.95-1.04-1.32-2.05-2.63-3.08-3.94-.28.88-.86 2.65-1.15 3.53-4.26-1.02-7.96-3.6-10.16-7.41-2.82 3.29-6.83 5.92-11.33 5.64-1.12-3.88.57-7.68 2.48-10.97-3.23-1.19-6.54-2.71-8.55-5.64.85-3.57 5.67-3.64 8.62-4.45-1.9-4.16-1.32-8.73.38-12.83 5.48 1.72 9.24 6.85 9.44 12.57.61-3.96 3.87-6.35 7.13-8.14-5.72-6.15-12.87-10.88-17.94-17.62 1.94.14 3.98.26 5.69 1.32 8.88 4.91 16.91 11.3 23.71 18.83-.85-5.13-4.88-8.57-8.4-11.98-8.21-7.48-15.67-15.72-23.15-23.9-2.2-2.3-3.81-5.1-4.4-8.25 7.08 4.14 14.95 7.05 21.35 12.28 2.58 2.22 4.53 5.02 6.67 7.64-1.04-3.35-2.14-7.01-5.24-9.05-6.45-4.79-12.77-9.84-17.59-16.33 2.85-1.24 5.87-.8 8.79-.06-4.25-4.14-9.34-7.27-14.86-9.41 1.65 3.62 2.31 7.59 1.98 11.57-2.67-.82-5.01-2.35-6.83-4.45-3.14 1.85-6.78 1.98-10.25 1.1.74-2.18 1.68-4.29 2.46-6.46-1.99-1.31-4.17-2.34-5.94-3.95 1.91-2.81 5.17-4.03 8.3-4.92-.62-1.9-1.23-3.81-1.78-5.73 1.7.09 3.4.18 5.12.29-4.76-3.05-9.85-5.52-14.69-8.43-2.09-1.16-3.52-3.11-4.8-5.06 5.23.57 10.39 1.62 15.56 2.56-3.63-3.83-7.71-7.19-11.69-10.65-2.87.99-5.61 2.56-8.69 2.74-3.1.15-5.94-1.28-8.69-2.49 2.45-1.8 5.09-3.35 7.96-4.39-1.69-2.73-2.7-5.78-3.37-8.9 2.61.83 5.2 1.81 7.71 2.93.97-2.42 2.07-4.77 3.27-7.08 1.36 2.3 2.98 4.54 3.63 7.17.66 2.66-.3 5.31-1.08 7.82 1.6 1.33 3.2 2.68 4.79 4.04.71-2.71 1.43-5.42 2.09-8.14 2.17 1.82 4.35 3.6 6.55 5.39-.37-2.05-.71-4.1-1.03-6.14 2.14.97 4.26 2.01 6.35 3.11 1.48-2.02 3.17-3.88 5-5.59.42 2.04.81 4.09 1.19 6.14 2.11-.24 4.23-.43 6.37-.57-1.7 4.03-4.73 7.35-9.09 8.42-.23 3.53-.35 7.07-.4 10.61 1.19-2.17 2.32-4.4 3.82-6.39 6.48 4.19 4.82 13.12 5.52 19.71 1.38 2.56 3.32 4.76 4.93 7.18-1.54-8.58-.52-17.55-3.86-25.79.53-.21 1.59-.62 2.12-.82 3.66 5.16 5.98 11.04 8.54 16.77 2.29.55 4.66.74 6.99 1.17-.62-4.71 1.31-9.24 4.82-12.35 2.37 2.69 3.82 5.99 4.7 9.44 3.59-1.17 7.41-1.5 11.06-.33-1.32 3.49-3.65 6.43-6.44 8.87 3.25 1.85 5.91 4.57 7.4 8.03-3.21 1.49-6.75.88-10.06.14.03 3.79-.66 7.72-3.72 10.28-1.65-2.32-2.95-4.85-4.1-7.44-2.07 8.94-3.08 18.74.55 27.42 1.29 3.37 2.39 6.8 3.59 10.2 1.69-12.2 6.14-23.8 7.79-36.01 3.63 1.75 4.98 5.86 4.45 9.66-1.66 13.27-6.97 25.78-8.74 39.02.63 5.38 2.07 10.64 2.79 16.02 1.16-6.22 3.99-11.87 7.2-17.25-.97-3.28-2.7-6.35-3.08-9.8-1.03-5.93.71-12.14 4.5-16.78 4.33 3.09 6.11 8.57 5.37 13.72 3.78-3.06 8.21-5.84 13.27-5.68-.09 2.62-.28 5.34-1.61 7.67-1.61 3.49-5.11 5.42-8.03 7.68 5.13 1.79 10.4 4.6 12.26 10.09-.23 3.79.53 7.86-1.48 11.31-4.17 7.88-9.89 14.8-14.69 22.29 1.87 1.98 3.54 4.14 5.05 6.41 2.68-3.81 6.74-6.35 11.32-7.2.72 4.46.32 9.08-1.83 13.11 3.83.48 7.13 2.46 9.55 5.45-2.82 2.68-6.49 4-10.37 3.84 2.71 3.78 3.26 8.47 2.33 12.96-5.66-.76-10.73-4.94-11.51-10.77-.77 4.77-3.43 9.12-7.88 11.25-.78-2.08-1.48-4.2-2.12-6.32-3.76 6.65-6.53 13.79-8.68 21.12 3.55-1.29 7.32-1.86 10.83-3.21 7.1-4.43 14.31-9.19 22.65-10.87-1.7 6.52-8.57 9.48-12.89 14.09 2.87 3.8 5.44 8.1 5.95 12.93-1.55 5.72-6.36 9.84-10.91 13.32.95-6.79 4.99-12.67 5.87-19.44.57-2.27-2.04-4.33-4.11-3.65-5.9 4.65-9.27 11.56-13.7 17.47-3.95 5.59-8.59 10.69-14.03 14.87 2.76-.07 6.09.63 7.85-2.11 3.97-4.81 10.65-5.49 16.48-5.22-.3 2.06-.19 4.38-1.59 6.08-1.42 2.13-4.08 2.64-6.33 3.39 7.29.53 13.73 5.43 16.35 12.23-6.14 1.82-13.06 1.84-18.38-2.15.76 2 1.75 3.99 1.9 6.17-.33 1.95-1.36 3.68-2.13 5.48-4.89-2.47-9.13-6.4-10.69-11.79-7.97 8.87-14.86 18.73-23.73 26.76-3.13 2.94-7.24 4.83-9.58 8.57 11.32-6.25 20.92-16.47 34.25-18.44 8.96-1.76 15.47 9.15 13.38 17-2.67 6.68-10.06 9.24-14.9 13.98-2.04 2.07-1.41 6.23-4.24 7.43-2.36-2.56-4.48-6.64-2.38-9.96 4.85-6.49 13.54-8.51 18.22-15.21-2.37-2.04-5.18-3.44-8.15-4.32-15.81 5.93-28.59 17.27-42.94 25.81 3.52.3 7.27.93 9.43 4.05 1.14-4.85 4.59-8.61 8.55-11.41 2.07 3.74 4.61 7.92 3.02 12.35 5.54-.34 11.35.64 16.12 3.59-2.36 2.98-5.76 4.8-9.09 6.49 3.15 3.34 4.67 7.71 6.01 12.01-5.79.64-12.6.55-16.51-4.49-.04 4.92-1.21 9.77-3.48 14.14-4.43-3.91-7.46-9.88-6.04-15.87-4.28 3.27-9.88 4.06-15.11 3.9-.48-.38-1.44-1.13-1.92-1.51-5.7 1.74-9.93-2.77-14.19-5.63-10.92 1.2-21.57 4.45-32.11 7.51 10.33.13 20.63 1.11 30.97 1.09.04.54.11 1.62.15 2.16-6.37 2.45-12.53 5.49-19.17 7.19 5.51 1.4 11 2.94 16.38 4.83 2.48-3.23 5.07-6.74 9.01-8.27 4.49-1.98 9.49-1.88 14.29-1.58-1.74 4.83-4.56 9.52-9.65 11.36 7.45 1.24 13.04 6.88 16.78 13.11-7.29 1.01-14.95-.34-21.18-4.33 1.36 5.6-.47 11.11-2.32 16.34-3.44-3.36-7.4-6.69-8.81-11.47-1.39-4.36-.14-8.89.75-13.2-7.48-2.45-15.05-4.73-22.79-6.16-6.7-.6-13.44.04-20.14.43 12.1 3.7 22.72 10.67 33.81 16.51-.03.56-.09 1.68-.13 2.25-13.09.76-23.47-8.31-35-12.92.69 2.65 1.04 5.36 1.13 8.1 4.38-.98 9.15-.5 12.45 2.82-2.71 2.94-6.04 5.27-9.9 6.4 2.69 3.33 2.9 7.62 2.18 11.67-2.62-.71-5.21-1.5-7.7-2.57-1.57 2.65-3.46 5.09-5.52 7.37-2.83-3.02-4.24-7.02-3.66-11.15-4.45 2.94-10.05 2.47-14.85.74 1.46-4.18 4.37-7.53 8.03-9.95-2.29-2.29-5.72-3.33-8.53-4.96-.61 1.42-1.21 2.87-1.87 4.28v2.37c-5.13 1.81-9.92 4.83-15.42 5.38-9.73-.17-18.44-5.67-28.05-6.4-.84.44-3.03.07-2.67 1.53 7.83 5.07 15.71 10.18 22.69 16.42-1.22.87-2.42 1.74-3.63 2.6-7.14-5.99-14.15-12.31-22.06-17.23-7.74 5.28-14.82 11.45-22.08 17.35-1.06-1-2.1-2.01-3.13-3.01 7.35-6.15 15.28-11.55 23.37-16.68-2.14-.51-4.34-1.37-6.53-.68-8.06 1.66-15.65 5.4-23.9 6.11-5.92-.04-11.03-3.49-16.49-5.34-.01-.6-.04-1.8-.05-2.4-.67-1.42-1.3-2.88-1.88-4.31-2.92 1.53-6.02 2.83-8.63 4.89 3.67 2.48 6.74 5.78 8.09 10.09-4.8 1.65-10.36 2.12-14.79-.78.54 4.12-.83 8.13-3.69 11.12-2.06-2.28-3.95-4.72-5.52-7.36-2.48 1.05-5.04 1.88-7.63 2.57-1-4.04-.51-8.31 2.09-11.66-3.65-1.33-7.71-3.06-9.46-6.79 3.19-3.17 7.9-3.23 12.05-2.46.1-2.71.44-5.4 1.07-8.03-11.82 4.53-22.49 14.44-35.96 12.52 1.79-3.05 5.31-4.13 8.17-5.87 8.51-4.85 17.15-9.63 26.56-12.53-7.14-.36-14.37-1.26-21.48-.23-7.2 1.72-14.53 3.25-21.36 6.15.5 4.06 1.99 8.16.82 12.25-1.16 5.16-5.42 8.68-9 12.23-1.88-5.23-3.67-10.76-2.3-16.35-6.25 3.99-13.92 5.33-21.21 4.33 3.74-6.24 9.34-11.89 16.81-13.11-5.13-1.81-7.92-6.53-9.68-11.36 5.19-.35 10.69-.37 15.42 2.11 3.4 1.66 5.62 4.85 7.9 7.75 5.36-1.91 10.85-3.45 16.37-4.84-6.62-1.68-12.76-4.73-19.12-7.15.02-.55.05-1.65.07-2.19 10.36 0 20.69-.99 31.06-1.08-10.55-3.24-21.27-5.96-32.16-7.8-4.02 3.31-8.54 7.51-14.21 5.93-2.09 2.52-5.52 1.33-8.3 1.07-3.43-.39-6.75-1.64-9.14-4.2 2.25 6.12-1.07 12.48-5.58 16.58-2.4-4.48-3.65-9.54-3.4-14.62-3.52 5.64-10.78 5.57-16.63 4.98 1.34-4.3 2.82-8.7 6.02-12.02-3.49-1.64-6.72-3.79-9.41-6.56 5.05-2.52 10.69-4.01 16.37-3.54-1.45-4.44.97-8.61 3.09-12.35 3.88 2.79 7.2 6.48 8.51 11.18 2.31-2.71 5.77-3.44 9.13-3.88-14.09-8.7-26.91-19.72-42.53-25.72-2.78 1.05-6.24 1.71-7.85 4.5 4.41 6.97 13.69 8.61 18.15 15.52 1.79 3.75-.99 7.41-3.32 10.14-1.31-2.63-1.92-5.61-3.57-8.05-4.7-4.65-11.71-7.12-14.7-13.35-2.79-8 3.99-19.55 13.22-17.67 13.23 2.09 22.96 12 34.06 18.54-2.03-3.73-6.01-5.54-9.03-8.3-9.08-8.11-16.12-18.11-24.17-27.18-1.56 5.36-5.75 9.27-10.58 11.78-.89-1.79-1.77-3.59-2.62-5.4.72-2.09 1.5-4.16 2.33-6.2-5.36 3.93-12.26 3.98-18.42 2.15 2.56-6.86 9.09-11.67 16.37-12.28-2.25-.7-4.87-1.17-6.3-3.26-1.48-1.71-1.34-4.09-1.64-6.19 4.07-.12 8.26.12 12.04 1.77 2.62 1.2 4.31 3.65 6.56 5.35 1.89.35 3.84.16 5.75.23-6.86-5.14-12.23-11.92-16.96-19-3.33-4.88-6.42-10.24-11.38-13.66-1.94.31-4.13 1.75-3.52 4.02.88 6.75 4.9 12.62 5.86 19.38-4.55-3.45-9.32-7.56-10.92-13.25.43-4.86 3.08-9.18 5.95-13-3.57-3.24-7.42-6.18-10.78-9.64-1.25-1.18-1.54-2.93-2.08-4.47 8.04 1.74 15.13 6.12 21.95 10.53 3.61 1.77 7.74 2.15 11.51 3.58-2.2-7.33-4.85-14.57-8.83-21.14-.57 2.15-1.22 4.26-1.93 6.36-4.47-2.14-7.18-6.48-7.9-11.29-.78 5.73-5.68 9.67-11.08 10.9-1.67-4.41-.85-9.29 1.9-13.07-4.21.06-8.33-1.28-11.48-4.12 3.03-2.54 6.56-4.47 10.5-5.13-1.9-4.11-2.45-8.7-1.66-13.15 4.6.85 8.63 3.45 11.32 7.27 1.47-2.34 3.14-4.55 5.03-6.57-4.04-5.91-8.26-11.7-12.15-17.7-1.91-3.16-4.12-6.48-4-10.33.09-2.97-.3-6.31 1.69-8.8 2.35-3.69 6.64-5.18 10.54-6.62-3.04-2.47-6.72-4.58-8.3-8.36-1.16-2.21-1.24-4.74-1.3-7.18 5.01-.06 9.43 2.64 13.18 5.69-.69-5.14 1.1-10.61 5.43-13.67 3.75 4.64 5.53 10.82 4.49 16.73-.38 3.45-2.07 6.51-3.1 9.76 3.17 5.42 6.06 11.08 7.19 17.33.72-5.37 2.18-10.61 2.81-15.98-1.76-13.26-7.08-25.79-8.73-39.07-.51-3.79.77-7.97 4.48-9.62 1.58 12.19 6.06 23.76 7.75 35.93 1.65-5.1 3.74-10.05 5.22-15.2 1.48-7.39.69-15.05-1.09-22.32-1.17 2.55-2.46 5.03-4.03 7.36-3.15-2.48-3.78-6.46-3.76-10.23-3.27.72-6.62.96-9.93.46.91-3.94 3.88-6.72 7.26-8.67-2.79-2.44-5.16-5.35-6.43-8.87 3.64-1.18 7.45-.81 11.05.31.9-3.3 2.31-6.43 4.21-9.28 4.18 2.49 5.82 7.5 5.31 12.15 2.3-.37 4.63-.62 6.96-.8 2.48-6.17 5.05-12.42 9.19-17.7 1.82 2.09.42 4.69-.05 7-1.77 6.44-.93 13.19-2.17 19.71 1.67-2.17 3.33-4.36 5-6.53.08-6.65-.83-14.84 4.7-19.69 2.39 1.13 2.99 4.11 4.37 6.17-.05-3.45.15-6.93-.5-10.33-1.64-1.05-3.51-1.7-5.08-2.85-1.74-1.57-2.67-3.8-3.85-5.76 2.11.13 4.23.33 6.34.56.38-2.07.79-4.13 1.23-6.18 1.82 1.77 3.52 3.65 5.05 5.67 2-1.13 4.04-2.19 6.11-3.2-.21 2.06-.48 4.11-.74 6.16 2.15-1.79 4.3-3.57 6.42-5.38.67 2.73 1.39 5.44 2.1 8.15 1.57-1.33 3.15-2.66 4.75-3.96-.73-2.56-1.68-5.25-1.03-7.94z" fill="#b8b6ae"/><path d="m330.81 141.53c.46 1.4.84 2.81 1.3 4.21-.75.02-2.25.06-3 .08.57-1.43 1.13-2.86 1.7-4.29z" fill="#030"/><path d="m591.82 141.57c.73 1.36 1.41 2.75 2.13 4.12-.74.04-2.22.12-2.96.16.26-1.43.54-2.86.83-4.28z" fill="#030"/><path d="m334.31 148.7c-.27-2.61 2.99-3.23 4.75-4.2-1.16 1.75-1.95 5.13-4.75 4.2z" fill="#030"/><path d="m583.87 144.46c1.93.94 4.59 1.69 4.96 4.17-2.95 1.1-3.8-2.25-4.96-4.17z" fill="#030"/><path d="m616.41 149.46c1.98.14.97 4.11-.86 3.22-.92-.93-.36-2.84.86-3.22z" fill="#030"/><path d="m306.76 152.81c-1.46-.14-1.77-2.87-.13-2.93 1.37.21 1.77 2.87.13 2.93z" fill="#030"/><path d="m312.13 151.27c1.58.09.75 2.48-.47 2.47-1.6-.09-.8-2.5.47-2.47z" fill="#335831"/><path d="m610.23 151.46c1.15-.72 2.61 1.17 1.65 2.12-1.16.73-2.6-1.18-1.65-2.12z" fill="#31562e"/><path d="m316.02 156.05c.99-1.72 2.69-2.86 4.14-4.17.46 1.47.91 2.94 1.37 4.41-1.74 3.18-4.4 5.67-7.17 7.95.38-2.75.49-5.63 1.66-8.19z" fill="#030"/><path d="m337.48 152.26c1.74.25 3.29 1.14 4.85 1.9-2.26.3-4.55.45-6.83.47.6-.84 1.26-1.63 1.98-2.37z" fill="#030"/><path d="m580.66 154.17c1.53-.8 3.09-1.69 4.85-1.9.66.76 1.3 1.54 1.92 2.35-2.27-.01-4.53-.15-6.77-.45z" fill="#030"/><path d="m301.85 152.87c1.63-.45 2.19.13 1.69 1.73-1.65.42-2.21-.15-1.69-1.73z" fill="#030"/><path d="m602.28 157.78c-1.3-1.9.13-4.1.39-6.08 4.42 2.67 5.76 7.69 5.91 12.55-2.21-2.03-4.74-3.85-6.3-6.47z" fill="#030"/><path d="m619.42 152.96c1.62-.61 2.18-.1 1.67 1.53-1.63.61-2.19.1-1.67-1.53z" fill="#030"/><path d="m308.53 158.91c1.74-1.33 3.5-2.65 5.25-3.98-1.97 5.03-.19 11.53-4.94 15.2 0-3.74-.06-7.48-.31-11.22z" fill="#030"/><path d="m609.17 154.93c1.74 1.34 3.49 2.66 5.23 4-.26 3.73-.32 7.46-.29 11.2-4.78-3.65-3.03-10.15-4.94-15.2z" fill="#030"/><path d="m313.64 169.62c3.76-3.05 8.74-3.58 13.35-4.27-5.26 3.33-11.05 5.8-15.98 9.64-3.9 2.9-7.3 6.41-11.29 9.19 3.88-5.5 8.65-10.37 13.92-14.56z" fill="#030"/><path d="m595.98 165.37c4.61.68 9.58 1.23 13.34 4.27 5.23 4.24 10.1 9.03 13.84 14.66-3.89-2.9-7.3-6.37-11.19-9.26-4.93-3.86-10.74-6.31-15.99-9.67z" fill="#030"/><path d="m299.77 178.93c-.2-4.52.51-9.05 2.4-13.18 3.56 4.29.52 9.54-2.4 13.18z" fill="#030"/><path d="m618.57 169.9c.76-1.35 1.53-2.7 2.33-4.02 1.69 4.08 2.39 8.49 2.26 12.9-2.18-2.59-3.64-5.66-4.59-8.88z" fill="#030"/><path d="m284.31 192.02c2.47-6.73 4.23-13.73 7.26-20.25-.53 7.13-.05 14.56-2.73 21.33-1.65 4.49-3.78 8.8-6.17 12.94.23-2.95.57-5.88.84-8.82.82-.54 1.64-1.09 2.47-1.62-.56-1.2-1.12-2.39-1.67-3.58z" fill="#030"/><path d="m632.83 189.11c-1.25-5.68-1.12-11.53-1.39-17.31 2.89 6.55 4.72 13.48 7.17 20.2-.52 1.09-1.01 2.19-1.5 3.29 3.54 2.19 2.51 6.69 2.84 10.21-2.95-5.18-5.56-10.62-7.12-16.39z" fill="#030"/><path d="m274.04 182.5c-4.98-1.52-1.49-7.65-.06-10.79 1.8 3.1 4.29 8.67.06 10.79z" fill="#030"/><path d="m647.17 180.92c-1.8-3.09.5-6.44 1.81-9.21 1.2 3.06 3.69 6.72 1.75 9.98-1.27 1.18-3 .92-3.56-.77z" fill="#030"/><path d="m310.56 180.77c1.7-1.1 3.43-2.16 5.19-3.16-.63 1.58-1.29 3.15-1.93 4.73-1.09-.53-2.18-1.05-3.26-1.57z" fill="#030"/><path d="m607.19 177.58c1.75 1.03 3.48 2.11 5.17 3.25-1.09.5-2.17 1-3.25 1.51-.65-1.58-1.3-3.17-1.92-4.76z" fill="#030"/><path d="m260.83 179.19c3.25.02 6.93.15 9.21 2.86-.83 1.35-1.84 2.58-2.77 3.85-2.46-1.91-4.64-4.17-6.44-6.71z" fill="#030"/><path d="m652.58 182.3c2.48-2.63 6.01-3.31 9.51-3.11-1.77 2.47-3.86 4.69-6.22 6.61-1.11-1.16-2.21-2.33-3.29-3.5z" fill="#030"/><path d="m296.07 190.91c4.25-3.89 8.51-7.82 13.07-11.35-.89 2.25-1.9 4.45-2.82 6.69-3.58 1.19-6.94 2.89-10.25 4.66z" fill="#030"/><path d="m613.74 179.57c4.63 3.48 8.81 7.49 13.15 11.31-3.27-1.76-6.72-3.16-10.06-4.77-1.38-1.98-2.15-4.33-3.09-6.54z" fill="#030"/><path d="m277.53 184.38c2.16-1.79 5.15-1.79 7.81-2.01-1.48 2.35-3.94 5.05-7.01 4.26-1.53-.3-1.79-1.05-.8-2.25z" fill="#030"/><path d="m637.58 182.36c2.71.2 5.69.29 7.93 2.05.73 1.15.45 1.89-.83 2.23-3.1.77-5.64-1.86-7.1-4.28z" fill="#030"/><path d="m314.46 184.32c2.82-.98 5.51-.03 7.89 1.57-2.41 1.38-5.08 2.13-7.86 2.19-.02-1.26-.03-2.51-.03-3.76z" fill="#030"/><path d="m600.95 185.62c2.28-1.7 5.02-2.17 7.69-1.14-.11.99-.32 2.97-.43 3.97-2.58-.46-5.26-1.02-7.26-2.83z" fill="#030"/><path d="m354.56 186.46c71.27-.03 142.54-.04 213.81 0-.07 55.17.02 110.34-.05 165.51-.14 13.62-4.7 27.94-15.46 36.88-12.8 10.75-29.84 13.95-45.9 16.42-9.87 1.52-19.88 2.51-29.48 5.4-4.43 1.4-8.99 3.19-12.18 6.7-1.92 2.11-2.57 4.96-3.55 7.56-1.04-2.94-1.8-6.24-4.29-8.34-5.38-4.69-12.6-6.29-19.37-7.81-15.99-3.18-32.49-3.98-48.04-9.19-9.62-3.17-18.97-8.25-25.36-16.29-9.42-11.47-10.64-27.02-10.1-41.27-.02-51.86.03-103.72-.03-155.57z" fill="#b8b6ae"/><path d="m259.89 193.58c2.08-2.86 5.09-4.75 8.4-5.87-.18 1.51.5 3.57-1.13 4.5-2.27 1.05-4.83 1.12-7.27 1.37z" fill="#030"/><path d="m281.94 188.16c3.34.06-1.47 3.03 0 0z" fill="#486644"/><path d="m640.14 188.15c3.34.1-1.5 3.01 0 0z" fill="#456442"/><path d="m654.66 187.71c3.29 1.13 6.27 3.05 8.4 5.85-2.48-.22-5.06-.3-7.34-1.36-1.59-.96-.89-3-1.06-4.49z" fill="#030"/><path d="m274.59 190.97c1.07-.66 2.15-1.32 3.3-1.85 2.31 1.06 4.19 3.18 3.99 5.87-2.65-.91-5.1-2.28-7.29-4.02z" fill="#030"/><path d="m640.37 194.67c1.04-2.46 3.6-7.14 6.76-4.68 1.39 3.39-4.49 4.09-6.76 4.68z" fill="#030"/><path d="m311.62 191.89c.83-.61 1.69-1.19 2.57-1.73 2.59.22 3.76 2.79 5.07 4.66-2.98.33-5.71-.61-7.64-2.93z" fill="#030"/><path d="m603.67 194.85c1.29-2.02 2.59-4.51 5.26-4.82.53.6 2.58 1.59 1.5 2.49-1.37 2.5-4.35 2.2-6.76 2.33z" fill="#030"/><path d="m270.46 191.58c.59-.02 1.77-.05 2.36-.06.09 3.55-.55 7.12-2.47 10.17-1-3.31-1.12-6.85.11-10.11z" fill="#030"/><path d="m307.92 190.44c.46.54 1.37 1.62 1.83 2.16-.15 1.77-1.83 2.86-2.8 4.19.23-2.13.54-4.25.97-6.35z" fill="#030"/><path d="m359.21 190.82c32.54 0 65.09-.01 97.63 0 .04 33.54-.05 67.08.05 100.62-32.58.02-65.16.03-97.74-.01.11-33.54 0-67.07.06-100.61z" fill="#030"/><path d="m466.1 190.82c32.55.02 65.09-.04 97.64.03.01 33.52-.05 67.05.04 100.58-32.57.05-65.15.02-97.72.01-.17-33.54.09-67.08.04-100.62z" fill="#030"/><path d="m612.99 192.95c.64-.87 1.32-1.71 2.05-2.52.41 2.12.67 4.26.9 6.41-1.07-1.23-2.12-2.49-2.95-3.89z" fill="#030"/><path d="m650.44 190.75c4.15 2.12 3.05 7.18 2.22 10.88-2.26-3.17-2.81-7.09-2.22-10.88z" fill="#030"/><path d="m276.49 195.31c1.58.56 3.17 1.13 4.76 1.67-.71 4.94-.51 10-1.65 14.89-.96-5.54-1.34-11.2-3.11-16.56z" fill="#030"/><path d="m641.65 196.96c1.6-.53 3.18-1.09 4.79-1.64-1.78 5.4-2.19 11.09-3.1 16.67-1.13-4.94-.97-10.04-1.69-15.03z" fill="#030"/><path d="m399.38 198.51c4.46-1.98 9.25-.24 13.54 1.3-2.8 3.01-2.3 7.27-2.11 11.04-.41.25-1.23.74-1.64.99-2.04 4.77-4.31 9.68-3.81 15.02 1.46 1.17 2.87 2.4 4.21 3.72-.1 1.26-.19 2.53-.28 3.8.61.16 1.82.48 2.43.65.02.77.07 2.3.1 3.07-.39.23-1.19.69-1.58.92.01 1.35.03 2.7.05 4.05 2.45 1.15 1.89 3.23.97 5.25.6.23 1.8.69 2.4.91-.71 12.61.22 25.24.47 37.85-.11.44-.33 1.3-.44 1.74-6.73.98-13.68.25-20.49.3-.02-10.36.6-20.72 1.09-31.06.18-3.01-.79-5.9-1.18-8.85.7-.14 2.09-.44 2.79-.59-.75-2.05-1.68-4.4.96-5.53-.04-1.19-.07-2.38-.11-3.56-1.73-1.88-2.06-4.79.96-5.51 0-1 .01-2 .02-2.99.68-1.02 1.37-2.04 2.05-3.07-3.78-3.8-7.17-7.96-11.68-10.95.85-6.09 7.98-7.42 12.85-9.01 3.39-.5 4.2-4.32 5.02-7.04-3.28.1-4.66 2.75-5.83 5.33-.73-3.44 1.72-5.6 4.06-7.59-3.19.06-5.52 1.98-7.25 4.47.51-1.66.58-3.88 2.43-4.66z" fill="#b8b6ae"/><path d="m282.66 211.14c3.93-4.75 7.09-11.33 13.86-12.31-3.7 5.02-8.67 8.93-13.86 12.31z" fill="#030"/><path d="m626.47 198.81c6.7 1.07 9.84 7.6 13.77 12.32-5.18-3.36-10.17-7.24-13.77-12.32z" fill="#030"/><path d="m262.34 217.16c-.93-4.21-2.06-8.53-1.23-12.86 1.52 4.57 2.35 9.32 3.65 13.95 1.79 7.19 4.06 14.44 3.64 21.93-2.15-7.63-4.18-15.31-6.06-23.02z" fill="#030"/><path d="m658.26 217.9c1.24-4.55 2.03-9.23 3.7-13.65.67 5.82-1.1 11.51-2.4 17.12-1.72 6.28-3.19 12.62-5.07 18.85-.35-7.63 1.91-15.01 3.77-22.32z" fill="#030"/><path d="m282.17 221.13c4.54-6.02 11.61-9.25 18.28-12.31-8.59 10.06-17.87 19.57-27.69 28.45 2.56-5.68 5.62-11.18 9.41-16.14z" fill="#030"/><path d="m622.54 208.83c6.65 3.07 13.71 6.3 18.23 12.32 3.77 4.96 6.8 10.45 9.42 16.09-9.89-8.79-19.12-18.31-27.65-28.41z" fill="#030"/><path d="m490.09 257.41c9.69-14.08 20-27.87 32.01-40.06 6.18 4.62 10.76 10.94 15.21 17.16 3.08 4.92 9.43 5.78 13.38 9.75 7.12 6.65 9.53 16.56 11.42 25.75 1.09 2.63-1.77 4.22-3.19 5.93-2.27-1.85-4.3-3.96-6.3-6.08-.53 1.28-1.05 2.57-1.56 3.86-3.71-1.51-7.3-5.47-11.52-3.39-10.86 3.53-22.18 6.09-33.67 5.56-.26-1.2-.5-2.4-.73-3.59 1.42-1.2 2.85-2.41 4.3-3.58-.34 1.45-.68 2.9-1.01 4.36 1.21-1.39 2.36-2.85 3.71-4.12 1.42 1.75 2.46 3.79 3.96 5.5 2.65-.37 1.07-3.18 1.09-4.91 2.35-2.71 2.93-6.33 4.48-9.47-1.43-3.89 1.48-6.93 3.75-9.7-1.08-.61-2.12-1.25-3.13-1.93.48-.91 1.37-1.48 2.1-2.18.93 1.1 1.87 2.18 2.83 3.27-.23-.78-.69-2.34-.92-3.11.01-.53.04-1.04.07-1.56-1.24-1.16-2.42-2.37-3.7-3.47-.24 1.5-.39 3.01-.45 4.53-.59-.47-1.79-1.4-2.38-1.86-1.03.9-2.05 1.81-3.06 2.73 1.01 1.5 1.99 3.02 2.67 4.71-1.98-.77-4.03-1.8-4.93-3.85 1.38-2.23 3.25-4.1 4.79-6.21-3.16-2.54-5.28-5.98-7.15-9.51-3.92 2.76-6.35 6.93-8.82 10.92.82 1.01 1.63 2.02 2.45 3.04-.55 1.11-1.09 2.22-1.62 3.33 1.02 1.06 2.01 2.15 2.99 3.27-2.02-.59-3.99-1.27-5.96-1.96-.52 1.69-1.04 3.38-1.58 5.06 1.99 1.1 3.91 2.31 5.89 3.45-.52.54-1.55 1.62-2.07 2.16 1.05 1.03 2.24 1.96 3.12 3.17.57 1.64-.93 3.05-1.53 4.46-.71.07-2.12.23-2.83.31 0 2.25-.01 4.51.02 6.77-4.07.14-7.67-1.54-11.18-3.33-6.43.9-12.91.91-19.38 1.24-1.77-1.28-3.45-2.69-4.91-4.32 2.5-.74 3.71 1.09 4.63 3.07 2.33-2.71-.98-4.98-1.95-7.44 2.04.76 3.73 2.13 5.23 3.68.02.9.05 2.7.06 3.61.98-.61 2.61-.87 2.17-2.43-.62-2.21-5.06-3.4-2.93-5.9.64.33 1.91.99 2.54 1.32 1.52-3.27 3.24-6.97 7.27-7.51.26-2.75-1.89-4.37-4.32-4.88-.61-1.9-1.26-3.8-2.26-5.53-1.06 4.32-4.47 7.29-8.67 8.41 2.25-4.17 5.05-8.05 8.47-11.34 3.18 3.16 5.76 6.85 8.2 10.6.76-.04 2.27-.11 3.03-.14.62.79 1.25 1.58 1.87 2.38z" fill="#b8b6ae"/><path d="m399.72 218.91c.72-.07 2.18-.2 2.91-.27.12 2.79.33 5.57.53 8.36-1.11-.27-2.22-.54-3.31-.8-.05-2.43-.09-4.86-.13-7.29z" fill="#f9f9f9"/><path d="m515.2 229.26c1.93-3.04 3.96-6.11 6.78-8.41 5.46 4.84 10.66 10.36 13.95 16.93-1.78-1.08-3.5-2.19-5.22-3.34-.35.06-1.04.18-1.38.24-.61-.94-1.19-1.88-1.78-2.82-.28.97-.82 2.89-1.1 3.85-3.3-3.29-4.83-7.79-4.49-12.43-2.17 2.09-4.39 4.12-6.76 5.98z" fill="#fff"/><path d="m254.09 238.43c-1.72-4.78-2.61-11.12 1.66-14.87 2.75 5.25 3.7 11.69 1.07 17.18-.63-3.44.14-7.25-1.62-10.4l-1.41.39c-.07 2.57.35 5.13.3 7.7z" fill="#030"/><path d="m666.11 240.74c-2.69-5.65-1.78-12.4 1.54-17.57 3.09 4.57 3.29 10.25 1.12 15.25-.01-2.59.37-5.15.45-7.72-2.42-1.18-2.42 1.89-2.57 3.35-.22 2.22-.28 4.46-.54 6.69z" fill="#030"/><path d="m239.22 230.26c4.61 1.48 9.25 3.81 11.76 8.18-2.19-.85-4.27-1.96-6.47-2.78.6 1.97 1.85 3.63 2.87 5.39-4.17-2.27-7.19-6.1-8.16-10.79z" fill="#030"/><path d="m671.88 238.25c2.79-4.08 7.17-6.61 11.83-7.99-1.03 4.77-4.08 8.91-8.67 10.75 1.28-1.65 2.61-3.26 3.88-4.93-2.46.33-4.73 1.35-7.04 2.17z" fill="#030"/><path d="m276.54 243.09c4.61-3.21 8.68-7.17 13.62-9.91-3.9 3.82-7.98 7.47-11.82 11.37-.61-.49-1.21-.97-1.8-1.46z" fill="#030"/><path d="m632.19 232.98c9.24 5.62 19.22 12.69 22.11 23.73 1.08 3.73 1.61 7.59 2.11 11.44-2.42-5.48-4.04-11.32-7.09-16.51-1.38-2.29-2.54-4.7-3.23-7.28-.5-.05-1.5-.15-2.01-.19-3.7-4.01-7.8-7.59-11.89-11.19z" fill="#030"/><path d="m538 242.25c2.06-1.28 4.46-1.29 6.33.41 6.22 4.55 11.2 11.02 13.49 18.43-4.62-5.53-7.94-12.12-13.48-16.86-.58.57-1.75 1.71-2.33 2.28-1.35-1.42-2.68-2.84-4.01-4.26z" fill="#fff"/><g fill="#030"><path d="m291.2 254.03c-1.07-4.53 1.89-8.38 5.19-11.05.73 2.93 1.51 6.33-.39 9-1.17 1.41-2.83 3.4-4.8 2.05z"/><path d="m626.95 252.02c-1.95-2.67-1.18-6.1-.39-9.02 3.19 2.67 6.24 6.42 5.18 10.9-1.88 1.66-3.59-.53-4.79-1.88z"/><path d="m275.06 244.48c.5.61.99 1.24 1.48 1.87-4.3 6.82-7.13 14.36-10.01 21.85.7-8.52 3.05-17.01 8.53-23.72z"/><path d="m236.85 254.05c2.03-4.79 6.84-7.6 11.89-8.05-1.7 1.5-3.63 2.72-5.21 4.36 2.87.81 5.38-1.15 7.92-2.13-3.98 3.72-8.98 6.35-14.6 5.82z"/><path d="m674.16 246.02c5.07.38 9.81 3.26 11.93 7.98-2.91-.24-6.06.04-8.67-1.47-2.13-1.23-4.03-2.8-5.97-4.29 2.23.98 4.44 2.03 6.8 2.72 1.7-2.52-3.01-3.09-4.09-4.94z"/><path d="m278.82 246.94c3.93.26 6.76 3.46 7.82 7.05-.48.69-1.43 2.09-1.9 2.78-3.51-1.89-6.88-5.53-5.92-9.83z"/><path d="m640.97 247.83c.95-.28 3.32-1.79 3.32.2.14 4.07-3.11 7.17-6.47 8.92-2.35-3.38-.29-7.55 3.15-9.12z"/><path d="m251.31 251.2c1.27-1.04 2.51-2.14 3.84-3.1 4.19 5.46 6.42 12.17 7.54 18.9-3.37-5.56-6.99-10.98-11.38-15.8z"/><path d="m667.65 248.1c1.4.96 2.65 2.12 3.94 3.25-4.5 4.68-7.99 10.16-11.37 15.67 1.09-6.74 3.41-13.36 7.43-18.92z"/><path d="m272.81 258.07c1.21-2.37 2.43-4.73 3.65-7.09 1.06 1.74 2.14 3.46 3.27 5.17-2.33.57-4.63 1.24-6.92 1.92z"/><path d="m493.17 258.96c-.53-3.33 2.14-6.16 4.46-8.18.55.16 1.64.46 2.19.62-.75 1.52-1.55 3.04-2.13 4.64.67 4.07 3.03 7.54 5.81 10.49-.47.71-.93 1.43-1.39 2.15-1.69-2.43-3.49-4.77-5.11-7.24-1.34-.7-3.99-.36-3.83-2.48z"/><path d="m646.44 250.95c1.27 2.44 2.52 4.9 3.76 7.36-2.29-.84-4.61-1.58-6.96-2.19 1.09-1.71 2.15-3.44 3.2-5.17z"/><path d="m235.13 256.12c4.61.43 9.36-.11 13.37-2.58 2.38 3.64 4.95 7.19 6.81 11.13 1.92 4.07 2.48 8.58 3.47 12.92 1.06 5.26 2.57 10.45 3.19 15.79-1.81-4.15-3.46-8.43-6.29-12.03-6.35-8.83-15.67-15.33-20.55-25.23z"/><path d="m665.34 271.92c1.09-6.92 5.28-12.68 9.08-18.37 4.08 2.42 8.93 3.26 13.59 2.18-4.85 10.08-14.29 16.64-20.73 25.56-2.82 3.58-4.53 7.82-6.21 12 .78-7.23 2.95-14.22 4.27-21.37z"/><path d="m294.59 255.71c3.36-.32 6.69.23 9.86 1.37-2.56 2.6-5.94 4.09-9.62 4-.07-1.8-.16-3.59-.24-5.37z"/><path d="m618.49 257.05c3.17-1.14 6.51-1.65 9.88-1.33-.11 1.78-.2 3.57-.29 5.35-3.68.08-7.07-1.36-9.59-4.02z"/><path d="m271.56 262.94c1.87-1.75 3.77-3.71 6.4-4.21 2.67-.7 5.09 1.1 7.42 2.1-2.29 1.36-4.57 3.12-7.35 3.21-2.2-.04-4.34-.62-6.47-1.1z"/><path d="m637.54 260.82c2.33-1.01 4.75-2.79 7.45-2.09 2.6.52 4.51 2.46 6.38 4.21-4.72 1.62-9.97 1.29-13.83-2.12z"/><path d="m256.24 260.99c2.29 3.67 4.8 7.29 6.16 11.44.93 3.54.22 7.23 0 10.82-1.91-7.46-2.67-15.28-6.16-22.26z"/><path d="m660.56 272.35c1.36-4.14 3.86-7.75 6.2-11.38-3.63 6.95-4.29 14.85-6.27 22.32-.18-3.63-.86-7.37.07-10.94z"/><path d="m290.4 263.86c1.16-.39 2.33-.74 3.52-1.04 3.46 1.75 4.66 5.75 5.06 9.33-4.14-1.08-7.9-3.81-8.58-8.29z"/><path d="m623.96 272.14c.17-3.84 2.04-7.29 4.99-9.71 1.15.56 2.31 1.13 3.47 1.69-.68 4.4-4.45 6.94-8.46 8.02z"/><path d="m280.38 273.57c-.3-4.58 2.44-8.71 6.86-10.01-.22 1.88.33 4.08-.99 5.68-1.46 2.01-3.77 3.12-5.87 4.33z"/><path d="m268.5 269.93c.65-1.76 1.29-3.51 1.94-5.26 2.98 1.12 6.12 1.7 9.3 1.72-2.52 2.95-4.71 6.16-6.73 9.47-1.45-2.02-2.93-4.02-4.51-5.93z"/><path d="m635.65 263.69c4.58 1.01 7.11 5.41 6.89 9.9-3.92-1.78-7.93-5.01-6.89-9.9z"/><path d="m643.16 266.4c3.19-.02 6.34-.62 9.34-1.73.63 1.75 1.26 3.5 1.91 5.25-1.58 1.92-3.05 3.92-4.49 5.95-2.04-3.3-4.23-6.52-6.76-9.47z"/><path d="m240.34 267.85c6.61 6.67 13.73 13.35 17.71 22.03 1.41 3.36 2.76 6.94 2.43 10.66-2.76-4.14-4.24-8.91-5.56-13.65-2.99-1.19-4.41-4.15-6.15-6.63-2.78-4.15-5.82-8.14-8.43-12.41z"/><path d="m670.22 281.19c3.88-4.7 8-9.22 12.41-13.43-2.6 4.28-5.63 8.27-8.43 12.42-1.75 2.48-3.18 5.47-6.17 6.68-1.36 4.73-2.83 9.5-5.54 13.66-.28-7.15 3.5-13.82 7.73-19.33z"/><path d="m270.32 276.25c1.8.16 1.72 3.41.01 3.68-1.69-.26-1.59-3.32-.01-3.68z"/><path d="m652.16 276.74c1.41-.36 1.73 2.05.71 2.67-1.42.36-1.77-2.07-.71-2.67z"/><path d="m265.83 312.92c4.66-9.81 11.27-18.56 18.23-26.85-6.85 12.65-17.09 24.22-18.87 39-.28-4.03-1.4-8.39.64-12.15z"/><path d="m638.4 285.75c5.3 5.75 9.88 12.14 14.09 18.73 2.18 3.67 4.55 7.35 5.66 11.52.37 2.77-.16 5.56-.42 8.32-2.41-14.52-12.03-26.23-19.33-38.57z"/><path d="m236.21 289c3.47 1.63 7.46 3.94 8.1 8.11-.55 1.95-3.57 3.7-5.27 1.89-2.74-2.49-2.54-6.62-2.83-10z"/><path d="m247.46 297.89c.38-3.47 2.19-6.46 4.62-8.88.62 1.32 1.36 2.62 1.79 4.04.3 2.51-1.45 4.51-2.75 6.44-1.23-.53-2.45-1.07-3.66-1.6z"/><path d="m669.08 293.02c.42-1.41 1.14-2.7 1.78-4.01 2.42 2.42 4.21 5.4 4.59 8.85-1.19.55-2.37 1.1-3.54 1.65-1.4-1.91-3.2-3.93-2.83-6.49z"/><path d="m678.5 297.2c.81-4.17 4.64-6.6 8.24-8.19-.32 3.83-.17 9.62-4.78 10.91-1.4-.53-2.79-1.35-3.46-2.72z"/><path d="m359.2 295.82c32.55-.02 65.09 0 97.63-.01.05 38.16-.03 76.33.05 114.49-10.02-5.7-21.72-6.63-32.88-8.33-15.03-2.18-30.64-4.2-44.03-11.88-8.83-5-15.7-13.38-18.53-23.16-1.69-5.49-2.28-11.25-2.25-16.98.01-18.04 0-36.08.01-54.13z"/><path d="m466.11 295.81c32.54.01 65.08-.02 97.63.02 0 16.39-.01 32.78 0 49.17.2 8.73-.21 17.72-3.68 25.87-3.81 9.56-11.76 17.01-21.01 21.28-15.36 7.3-32.59 8.52-49.16 11.13-8.2 1.24-16.56 2.81-23.83 7.03-.04-38.17-.06-76.33.05-114.5z"/><path d="m255.23 297.12c1.99-.66 2.29 2.61.58 3.09-2 .69-2.24-2.61-.58-3.09z"/><path d="m666.94 297.18c.82.74 1.63 1.5 2.42 2.29-.87-.04-2.62-.14-3.49-.18.27-.53.8-1.58 1.07-2.11z"/><path d="m252.05 302.91c1.81-.62 3.64-1.21 5.49-1.75.69 1.8 1.34 3.61 1.99 5.44-3.03.31-7.02.19-7.48-3.69z"/></g><path d="m410.42 307.17c.42-2.25-1.06-5.6 1.52-6.85 2.31.54 1.46 3.12 1.81 4.83 3.89 4.89 8.04 9.57 11.9 14.49-2.92-.82-5.81-1.72-8.72-2.52 3.76 4.01 7.83 7.72 11.49 11.83-3.47-.94-6.89-2.08-10.36-3.01 4.09 4.24 8.33 8.33 12.41 12.59-2.92.06-5.83.08-8.74.14 3.14 4.14 6.47 8.14 9.57 12.31-6-2.51-11.83-5.39-17.76-8.06.15 7.81.24 15.61.34 23.42-1.51.05-3.01.11-4.5.18-.11-7.88.15-15.76.24-23.64-4.79 2.11-9.33 4.76-14.18 6.71-2.93-.22-5.67-1.43-8.51-2.1 3.41 3.24 7.06 6.2 10.45 9.46-3.15-.76-6.26-1.67-9.39-2.5 3.7 3.45 7.55 6.73 11.33 10.1-2.68.06-5.37.08-8.05.13 2.97 3.32 6.05 6.54 8.98 9.9-5.52-2.13-10.97-4.44-16.5-6.52.18 6.18.49 12.37.47 18.56-1.45.03-2.9.06-4.33.1-.02-6.23.35-12.46.37-18.7-4.77 1.88-9.45 4-14.24 5.85 2.65-3.35 5.54-6.49 8.23-9.8-2.83.46-5.66.99-8.48 1.47 3.86-3.58 7.93-6.94 11.67-10.66-3.49.98-6.92 2.2-10.41 3.18 3.4-3.42 6.98-6.65 10.32-10.13-2.18.5-4.37 1.04-6.54 1.56 3.25-3.33 6.65-6.51 10.04-9.7.02-1.73.04-3.47.07-5.19l2.92.04c.01.83.01 2.47.02 3.3 3.63 3.7 7.17 7.49 10.77 11.23 3.01-3.62 5.79-7.43 8.52-11.26-3.1.6-6.18 1.29-9.27 1.89 4.3-4.65 8.85-9.06 13.13-13.73-3.97 1.44-7.9 3.01-11.84 4.52 3.79-4.53 7.91-8.76 11.72-13.28-2.58.79-5.14 1.63-7.7 2.45 3.64-4.29 7.49-8.39 11.23-12.59z" fill="#b8b6ae"/><path d="m665.43 301.09c2.03.94 5.99.85 4.96 4.11-1.97 1.67-4.6 1.46-6.99 1.45.63-1.87 1.31-3.72 2.03-5.56z" fill="#030"/><path d="m229.98 304.22c2.75-2.14 6.33-2.15 9.64-2 .06 1.33.11 2.67.16 4.01-2.27.14-4.56.45-6.81-.01-1-.51-3.13-.41-2.99-2z" fill="#030"/><path d="m260.31 302.16c1.34-.99 2.74 1.36 1.58 2.32-1.33.98-2.75-1.37-1.58-2.32z" fill="#71836b"/><path d="m507.29 305c.94-1.38 2.31-2.38 3.6-3.41-.43 1.14-.87 2.28-1.31 3.41.43 1.22.84 2.44 1.26 3.67-1.28-1.13-2.82-2.08-3.55-3.67z" fill="#b8b6ae"/><path d="m540.71 305.44c1.05-2.18 3.57-2.88 5.59-3.87-2.43 2.85-4.33 6.06-5.25 9.71-.31-1.91-1.16-3.96-.34-5.84z" fill="#b8b6ae"/><path d="m661.21 302.36c1.2-1.22 2.38 1.03 1.23 1.85-1.2 1.23-2.37-1.05-1.23-1.85z" fill="#687d63"/><path d="m683.28 302.24c3.72-.4 7.57.12 10.42 2.75-3.35 1.3-6.93 1.79-10.49 1.27.01-1.34.03-2.68.07-4.02z" fill="#030"/><path d="m291.16 317.13c2.48-5 5.99-9.46 10.03-13.29-.54 6.77.09 15.03-5.73 19.83.36-2.09.79-4.17 1.01-6.27-3.34.17-1.97 6.18-5.78 5-.26-1.77-.55-3.67.47-5.27z" fill="#030"/><path d="m621.75 303.83c4.04 3.88 7.58 8.35 10.05 13.39.96 1.73.49 3.76.58 5.64-3.37-.34-3.43-4.3-5.76-6.04.06 2.28.46 4.54.8 6.79-5.76-4.79-5.2-13.02-5.67-19.78z" fill="#030"/><path d="m253.9 308.74c2.09.06 4.19.05 6.28 0 1.66 4.09 2.52 8.45 1.81 12.86-2.56-4.37-4.99-8.84-8.09-12.86z" fill="#030"/><path d="m279.88 307.53c2.61 1.87 5.33 3.88 6.74 6.86 1.5 3.2 1.54 6.85 1.52 10.33-2.09-1.93-2.73-5.56-5.68-6.32.37 1.88.83 3.76 1.24 5.63-3.51-4.77-4.03-10.76-3.82-16.5z" fill="#030"/><path d="m635.21 317.9c.55-4.58 4.14-7.77 7.62-10.37.27 5.52.24 11.51-3.51 15.98.44-1.62.69-3.29 1.16-4.9-2.9-.25-3.08 3.72-4.69 5.45-2.25-1.19-.59-4.18-.58-6.16z" fill="#030"/><path d="m662.75 308.74c2.09.05 4.19.06 6.29 0-3.12 3.99-5.55 8.45-8.08 12.82-.75-4.4.09-8.75 1.79-12.82z" fill="#030"/><path d="m239.95 309.84c1.3-1 2.96-.2 4.41-.14-.66 4.49-3.79 7.89-7.83 9.71-.04-3.41.17-7.57 3.42-9.57z" fill="#030"/><path d="m248.7 309.95c.57-.28 1.71-.85 2.27-1.13 2.7 2.77 2.6 6.95 2.32 10.54-2.69-2.38-4.72-5.71-4.59-9.41z" fill="#030"/><path d="m505.25 316.93c3.4-2.02 3.61-5.77 3.35-9.33.82 1.73 3.36 3.34 2.53 5.55-.75 2.72-3.66 3.6-5.93 4.62.5 2.3.98 4.61 1.14 6.96-2.05-2.88-2.78-6.46-4.75-9.38-.46.82-1.4 2.44-1.87 3.26.06-1.73-.16-3.63 1.03-5.05 2.39-.96 3.18 2.06 4.5 3.37z" fill="#b9b7af"/><path d="m671.38 309.53c.79-1.21 3.4.08 2.79 1.44-.16 3.34-2.13 6.21-4.53 8.38-.17-3.27-.51-7.14 1.74-9.82z" fill="#030"/><path d="m678.56 309.73c1.47-.08 3.19-.95 4.49.17 3.18 2.02 3.36 6.12 3.37 9.5-4.08-1.77-7.16-5.21-7.86-9.67z" fill="#030"/><path d="m530.07 311.84c2.51-2.33 5.26.33 7.94.78 1.36-.05 2.73-.17 4.11-.36-2.29 1.43-4.37 3.14-6.37 4.93-1.67-2.01-3.62-3.76-5.68-5.35z" fill="#b8b7af"/><path d="m522.9 321.26c3.28-1.78 6.72-3.31 10.42-3.99-2.5 1.89-5.16 3.55-7.61 5.5.04 2.4 0 4.8-.21 7.2-2.44.88-4.66 2.21-6.71 3.79-3.67 2.75-8.35 3.44-12.79 3.93-1.28 1.26-2.57 2.52-3.87 3.75.42.58 1.24 1.75 1.65 2.33 2.11-1.68 4.11-3.5 6.39-4.95-.29 2.4-.65 4.81-1.13 7.19-1.47-.66-2.95-1.33-4.4-1.99-2.41 1.71-1.42 4.07-.56 6.37-1.37-2-2.55-4.11-3.87-6.13l1.66-.32c-4.05-2.95-9.44-1.24-13.48-3.95-.09-2.06-.19-4.12-.28-6.18.59.8 1.18 1.6 1.78 2.41 2.15.74 4.31 1.48 6.52 2.09-.29-2.34-1.27-4.36-3.73-4.95.07-.45.21-1.36.28-1.82 1.57-.09 3.59.68 4.69-.87 3.62-2.97 1.94-7.95 1.48-11.86 1.39 1.9 2.72 3.85 3.98 5.86-.93 2.6-.86 5.61-2.54 7.9-1.29 1.85-2.42 3.8-3.48 5.78.88.64 1.78 1.28 2.68 1.93 3.49-2.38 9.7-2.43 10.58-7.33-1.14-1.07-2.43-1.96-3.69-2.86 1.1-.49 2.21-.96 3.32-1.43 1.56.79 3.28.75 4.99.55 1.75 1.52 3.83 2.51 6.17 2.74 1.27-1.64 2.93-3.07 3.72-5.04-2.23-1.22-4.39-2.49-6.12-4.36.27-.23.83-.69 1.1-.91.58-1.7 2.23-2.58 3.14-4.08-.34 1.1-1.58 2.94-.08 3.7z" fill="#b8b7af"/><path d="m298 325.95c4.31-1.47 8.86-1.83 13.39-1.59-3.54 3.7-7.65 6.99-12.62 8.53 1.62-1.39 3.45-2.56 4.73-4.29-1.65.08-3.28.29-4.88.63-.21-1.1-.42-2.19-.62-3.28z" fill="#030"/><path d="m611.55 324.36c4.52-.24 9.09.12 13.4 1.6-.23 1.1-.45 2.2-.66 3.3-1.56-.33-3.12-.59-4.69-.78.85 2.07 3.05 2.97 4.64 4.39-5.02-1.46-9.15-4.78-12.69-8.51z" fill="#030"/><path d="m236.47 326.84c4.9 1.8 9.4 4.5 13.81 7.27-1.39.52-2.78 1.07-4.16 1.61-3.24-2.93-6.66-5.69-9.65-8.88z" fill="#030"/><path d="m672.65 334.11c4.41-2.79 8.92-5.46 13.82-7.31-2.99 3.21-6.39 5.98-9.64 8.9-1.4-.53-2.8-1.07-4.18-1.59z" fill="#030"/><path d="m272.65 330.68c3.56-1.27 7.37-2.03 11.16-1.69.27.59.8 1.76 1.06 2.35-2.73.03-5.48.2-8 1.36-1.51-.41-2.83-1.35-4.22-2.02z" fill="#030"/><path d="m639.05 328.97c3.77-.32 7.54.46 11.13 1.61-1.49.86-2.95 1.7-4.44 2.52-1.83-2.48-5.05-1.37-7.61-1.69.23-.61.69-1.83.92-2.44z" fill="#030"/><path d="m624.47 335.31c1.17 1.31 2.34 2.63 3.52 3.95-2.62.6-5.25 1.17-7.89 1.6 1.37-1.92 2.84-3.75 4.37-5.55z" fill="#030"/><path d="m247.75 337.1c2.93-.92 6.07-.92 8.5 1.18-2.85-.31-5.68-.69-8.5-1.18z" fill="#030"/><path d="m294.99 339.29c1.11-1.33 2.22-2.67 3.33-4 1.6 1.76 3.11 3.59 4.54 5.49-2.65-.32-5.27-.89-7.87-1.49z" fill="#030"/><path d="m666.73 338.28c2.4-2.14 5.53-2.08 8.45-1.18-2.81.48-5.62.87-8.45 1.18z" fill="#030"/><path d="m266.74 343.94c-2.94-1.83-5.58-4.08-7.93-6.61 2.2.91 4.69 1.47 6.55 3.03.55 1.15.95 2.37 1.38 3.58z" fill="#030"/><path d="m658.49 339.67c1.79-.97 3.71-1.65 5.62-2.33-2.37 2.5-4.99 4.77-7.91 6.61.69-1.44.67-3.53 2.29-4.28z" fill="#030"/><path d="m250.59 339.55c4.23.9 8.77 1.78 12.12 4.73 3.18 2.91 5.79 6.52 7.14 10.65 1.72 5.14 3.93 10.1 5.98 15.12-10.93-7.91-16.27-20.79-25.24-30.5z" fill="#030"/><path d="m666.16 341.08c2.02-.68 4.1-1.08 6.19-1.51-9 9.67-14.31 22.56-25.23 30.46 1.86-4.73 4-9.35 5.61-14.17 2.11-6.45 6.66-12.79 13.43-14.78z" fill="#030"/><path d="m482.44 340.9c2.75.37 5.42 1.1 8.12 1.75-.94.74-1.88 1.47-2.81 2.19.78 1.3 1.55 2.61 2.29 3.95-.96-.31-1.91-.62-2.86-.94.03-.68.09-2.03.12-2.71-1.66-1.38-3.3-2.76-4.86-4.24z" fill="#b8b6ae"/><path d="m268.96 342.51c2.98 2.23 5.44 5.12 7.1 8.45 3.6 6.98 5.76 14.59 7.69 22.16-3.97-5.77-6.58-12.28-9.23-18.72-1.63-4.11-5.8-7.11-5.56-11.89z" fill="#030"/><path d="m278.54 346.24c.39-1.24.79-2.47 1.19-3.7 1.2.38 2.4.76 3.61 1.15.21.57.64 1.71.85 2.28-.48 2.07-.96 4.13-1.44 6.2-1.64-1.81-3.09-3.77-4.21-5.93z" fill="#030"/><path d="m492.33 343.24c2.07.56-.58 3.34-1.88 2.3-.75-1.12.83-2.3 1.88-2.3z" fill="#b8b6ae"/><path d="m495.01 343.55c1.24-.95 4.08.33 3.49 1.97-1.21.67-4.43-.26-3.49-1.97z" fill="#b8b6ae"/><path d="m638.94 345.01c.73-1.83 3.02-1.9 4.53-2.74.17 1.56.41 3.13.36 4.71-.62 2.1-2.34 3.59-3.68 5.24-.47-2.38-1.35-4.76-1.21-7.21z" fill="#030"/><path d="m646.86 350.97c1.66-3.35 4.13-6.25 7.15-8.46.12 5.01-4.33 8.13-5.91 12.54-2.47 6.26-5.16 12.48-8.9 18.1 1.86-7.6 4.07-15.2 7.66-22.18z" fill="#030"/><path d="m435.22 343c2.49 4.89 6.27 8.86 9.88 12.94-2.02-.49-4.01-1.02-6.01-1.53 2.66 2.55 5.36 5.04 7.97 7.63-2.37-.6-4.72-1.28-7.08-1.9 2.79 2.73 5.63 5.41 8.4 8.16-1.95.05-3.9.1-5.85.14 2.19 2.71 4.43 5.39 6.63 8.1-4.13-1.8-8.24-3.62-12.38-5.38.08 5.08.09 10.16.35 15.24-.82 0-2.46-.01-3.28-.01.02-5.1.29-10.19.36-15.29-3.54 1.57-7.04 3.25-10.6 4.78 1.92-2.69 3.98-5.27 6.04-7.84-2.06.31-4.12.61-6.17.9 2.88-2.83 5.85-5.58 8.62-8.53-2.52.8-5.01 1.7-7.54 2.51 2.4-2.82 4.99-5.46 7.53-8.15-1.22.26-3.67.79-4.9 1.06 2.31-2.58 4.97-4.85 7.06-7.63.56-1.67.58-3.49.97-5.2z" fill="#b8b6ae"/><path d="m244.87 356.35c-2.47-2.58-5.16-5.82-3.68-9.6 1.39 3.13 2.62 6.33 3.68 9.6z" fill="#030"/><path d="m286.36 347.48c1.41-.4 2.82-.78 4.23-1.15.29 4.03-2.06 7.31-5.36 9.32.18-2.75.56-5.48 1.13-8.17z" fill="#030"/><path d="m495.8 347.89c1.91.1 3.83.22 5.74.43-.89.7-1.81 1.37-2.76 1.99-1.08-.71-2.05-1.55-2.98-2.42z" fill="#b8b6ae"/><path d="m502.64 354.66c.92-2.91 2.4-5.59 4.14-8.08.31 1.06.62 2.12.95 3.19-3.14 3.33-4.03 7.79-4.19 12.22-.33-1.34-.63-2.67-.92-4.01-.82.97-1.63 1.94-2.45 2.91.13 2.77-.1 5.53-.51 8.27.6-.72 1.82-2.14 2.42-2.86-.99 2.92-1.47 5.98-1.17 9.07 3.87-2.66 2.54-7.61 4.69-11.2-.15 2.99-.58 6.06.79 8.86.6-.87 1.82-2.61 2.43-3.48-.81 5.58-3.32 10.79-3.79 16.44-.3 4.5-1.4 9.25-4.73 12.52.51-2.34 1.3-4.6 2-6.88-1.44 1.23-2.83 2.49-4.26 3.72 1.02-2.12 2.09-4.23 3.05-6.38-1.48.87-2.94 1.77-4.37 2.69-.33-3.28-.7-6.55-.83-9.84.71.71 1.46 1.4 2.25 2.07.74-2.5 1.56-4.97 2.37-7.45-1.62 1.25-3.22 2.51-4.89 3.68.83-2.57 2.58-4.61 4.3-6.62-.65-1.13-1.47-2.18-2.2-3.24l1.91-.08c-.64-.6-1.27-1.19-1.9-1.77-1.74 3.75-1.79 8.71-6.19 10.57.81-1.99 1.81-3.88 2.81-5.77-1.05.29-2.09.58-3.12.88-.94-1.2-1.91-2.38-2.8-3.61-2.01-2.25.48-5.83-2.1-7.81-1.83-1.56-1.91-3.58-.68-5.57.54.65 1.61 1.97 2.15 2.62.58-.49 1.72-1.49 2.3-1.98-.77-.78-1.53-1.55-2.29-2.32 1.98-.31 3.96-.65 5.94-.99.68-1.67 1.39-3.31 2.1-4.96.7.97 1.4 1.95 2.11 2.93 1.47-.44 2.95-.86 4.44-1.25-2.12 2.22-4.94 3.4-8.02 3.23-1.3 1.19-2.63 2.35-3.97 3.49.16.9.49 2.71.66 3.62.74-1.42 1.46-2.84 2.2-4.26.71.83 1.42 1.68 2.13 2.53 1.73-2.55 4.43-4.03 7.24-5.1z" fill="#b8b6ae"/><path d="m508.38 346.72c4.83.11 8.41 3.56 12.44 5.73.84-.22 2.53-.67 3.38-.89 2.06 1.05 4.08 2.19 6.08 3.37-2.61 1.83-5.44 3.36-7.78 5.53-2.46 2.43-4.26 5.42-6.56 7.98.27-.96.81-2.89 1.08-3.85-2.11.59-3.72-.64-5.26-1.83 2.01-.25 4.02-.58 5.99-1.08 1.48-2.21 3.38-4.07 5.4-5.79-1.91-.28-3.82-.58-5.71-.92-.9-4.8-6.35-4.96-9.06-8.25z" fill="#b8b7af"/><path d="m632.36 346.31c1.4.39 2.8.79 4.22 1.21.54 2.67.92 5.37 1.13 8.09-3.35-1.95-5.7-5.27-5.35-9.3z" fill="#030"/><path d="m678.07 356.37c1.02-3.23 2.28-6.37 3.55-9.51.21.83.64 2.49.85 3.33-1.29 2.18-2.72 4.28-4.4 6.18z" fill="#030"/><path d="m279.12 351.8c1.25 1.11 2.47 2.24 3.69 3.37-.09 1.69-.18 3.38-.28 5.08-1.17-2.81-2.3-5.63-3.41-8.45z" fill="#030"/><path d="m302.42 352.41c.3-.04.9-.12 1.2-.16-2.37 5.86-5.23 11.51-8.51 16.9-2.16 3.72-4.71 7.44-5.24 11.82-.18 2.38.29 4.74.52 7.1-1.68-4.34-3.65-9.1-2.27-13.8 2.5-8.51 8.29-15.54 14.3-21.86z" fill="#030"/><path d="m619.35 351.63c6.63 5.92 12.25 13.31 15.2 21.76 1.83 4.96-.27 10.12-2 14.78.54-4.2 1.04-8.69-1.13-12.55-4.16-7.92-9.5-15.32-12.07-23.99z" fill="#030"/><path d="m640.12 355.1c1.22-1.1 2.45-2.2 3.7-3.28-1.14 2.8-2.27 5.6-3.41 8.4-.11-1.71-.21-3.41-.29-5.12z" fill="#030"/><path d="m507.34 359.39c1.12-.76 2.84.33 2.91 1.62-.6 1.9-4.11-.07-2.91-1.62z" fill="#b8b6ae"/><path d="m508.5 365.8c1.05-.17 2.09-.39 3.13-.66.69 1.8 2.48 3.21 2.82 5.08-1.38 2.37-3.84 3.84-5.84 5.61.61-2.72 3.57-5.56 2.24-8.48-.24-.07-.72-.2-.96-.27l-1.41 1.86c-.04-1.05-.03-2.1.02-3.14z" fill="#b8b6ae"/><g fill="#030"><path d="m252.84 367.35c4.25.01 8.52 1.01 12.13 3.3-2.76-.71-5.4-2.24-8.33-2.04.11 2.94 4.48 2.66 6.54 4.11-2.5-.26-5.14-.29-7.45-1.41-1.27-1.06-1.99-2.6-2.89-3.96z"/><path d="m657.97 370.63c3.61-2.28 7.88-3.3 12.13-3.27-.88 1.34-1.65 2.78-2.83 3.89-2.27 1.21-4.95 1.18-7.44 1.41 2.09-1.4 6.27-1.12 6.51-4.06-2.95-.18-5.6 1.31-8.37 2.03z"/><path d="m277.9 367.93c2.99 5.62 7.57 10.51 8.81 16.93-3.45-5.35-6.62-10.93-8.81-16.93z"/><path d="m636.09 384.86c1.49-6.35 5.87-11.34 8.98-16.92-2.41 5.89-5.18 11.81-8.98 16.92z"/><path d="m311.59 370.86c1.54 1.99 1.02 4.83 1.49 7.18.79 4.19-2.79 7.27-5.2 10.16 1.06-3.79 3.16-7.16 4.57-10.82-4.39 1.19-4.99 6.3-7.06 9.68.28-5.87 1.56-12.15 6.2-16.2z"/><path d="m610.8 370.57c5.08 3.92 6.46 10.43 6.77 16.5-2.13-3.4-2.73-8.56-7.16-9.76 1.45 3.71 3.55 7.13 4.77 10.93-2.07-2.19-4.22-4.46-5.32-7.31-.26-3.47.53-6.92.94-10.36z"/><path d="m293.16 388.8c-1.77-5.1-1.22-10.85 2.13-15.18-.29 3.12-1.02 6.22-.8 9.37.66 4.36 3.36 8.08 6.59 10.96-.45 2.96-.74 5.95-1.05 8.94-4.17-3.52-5.14-9.2-6.87-14.09z"/><path d="m296.76 383.02c-.29-3.29.57-6.53 1.1-9.75 4.12 3.9 4.6 9.94 4.61 15.28-1.65-2.75-1.37-6.89-4.62-8.38.29 3.18 1.19 6.25 1.93 9.35-1.22-2.06-2.48-4.15-3.02-6.5z"/><path d="m620.45 388.57c.06-5.32.42-11.45 4.66-15.27.47 2.88 1.07 5.76 1.13 8.7-.18 2.73-1.71 5.13-3.01 7.46.66-3.1 1.61-6.16 1.64-9.36-2.97 1.84-2.86 5.68-4.42 8.47z"/><path d="m627.63 373.62c1.77 2.81 3.48 5.93 3.14 9.37-.36 5.57-2.58 10.82-4.67 15.93-.65 1.17-1.52 3.63-3.25 2.86-.44-2.6-.64-5.23-1.02-7.83 3.23-2.88 5.92-6.59 6.61-10.95.21-3.15-.54-6.25-.81-9.38z"/><path d="m271.24 374.54c3.12.26 7.26.03 8.74 3.47 3.45 6.37 7.48 12.39 11.37 18.49-6.67-4.36-13.06-9.18-18.94-14.57-.33-2.48-.74-4.94-1.17-7.39z"/><path d="m644.74 375.79c2.12-1.09 4.6-1.01 6.91-1.31-.4 2.44-.8 4.89-1.1 7.36-5.94 5.64-12.65 10.41-19.4 15.03 3.45-5.16 7.02-10.26 9.98-15.73 1.1-1.84 1.96-3.92 3.61-5.35z"/><path d="m253.35 378.42c3.14-1.26 6.52-1.73 9.85-2.15-3.24 2.07-6.83 3.52-10.14 5.48l.79 1.39c3.38-.75 6.32-2.66 9.44-4.07-2.31 2.39-4.7 4.9-7.86 6.13-3.2 1.03-6.61.58-9.89.32 2.08-2.85 4.46-5.72 7.81-7.1z"/><path d="m659.73 376.26c3.37.43 6.79.93 9.97 2.21 3.29 1.41 5.59 4.26 7.69 7.05-3.19.24-6.49.7-9.6-.23-3.3-1.15-5.77-3.74-8.14-6.18 3.15 1.4 6.11 3.31 9.52 4.05l.65-1.39c-3.26-2.03-6.88-3.41-10.09-5.51z"/><path d="m264.06 390.54c2.9-3.47 3.95-7.99 5.91-11.98.41 6.21-2.75 12.08-8.21 15.06-1.45-5.21 2.26-9.88 5.13-13.84-1.25 3.74-3.34 7.12-4.54 10.88z"/><path d="m653.02 378.54c1.61 3.55 2.68 7.38 4.82 10.68.51 1.2 1.88 1.26 2.94 1.64-1.48-3.72-3.46-7.23-4.67-11.06 2.81 3.99 6.44 8.61 5.11 13.81-5.53-2.91-8.72-8.85-8.2-15.07z"/><path d="m309.79 390.01c3.79-3.53 9.03-6.21 14.24-4.06-2.82 5.4-9.59 8.08-15.53 7.54 3.13-1.92 7.76-2.09 9.38-5.81-2.74.61-5.39 1.56-8.09 2.33z"/><path d="m598.24 385.95c2.44-.35 4.95-1.04 7.42-.49 2.84.82 5.18 2.74 7.48 4.53-2.41-.65-4.74-1.59-7.17-2.14l-.71 1.36c3.02 1.89 6.47 2.89 9.73 4.27-6.58.92-12.75-2.49-16.75-7.53z"/><path d="m281.79 392.72c4.63 3.17 9.29 6.32 13.8 9.66 3.46 2.76 5.7 6.71 6.17 11.13-7.82-5.69-14.07-13.21-19.97-20.79z"/><path d="m628.43 401.51c4.26-2.91 8.44-5.95 12.71-8.84-5.88 7.59-12.12 15.17-19.99 20.79.52-4.88 3.31-9.15 7.28-11.95z"/><path d="m303.1 395.22c2.8.18 5.63.17 8.39.67 3.59 3.55 5.65 8.3 8.49 12.42-3.02-.37-5.9.57-8.71 1.52.05.56.15 1.68.2 2.24-2.6-3.16-5.66-5.9-9.07-8.17.13-2.9.36-5.8.7-8.68z"/><path d="m611.18 396.05c2.76-.81 5.75-.57 8.61-.85.36 2.9.61 5.81.73 8.73-3.42 2.22-6.46 4.96-9.04 8.13.05-.56.14-1.67.18-2.23-2.81-.98-5.71-1.88-8.71-1.45 2.7-4.13 4.85-8.69 8.23-12.33z"/><path d="m261 408.83c2.06-2.44 4.43-5.62 8.04-5.24 9.31.88 17.25 6.4 24.66 11.67 5.76 4.27 12.04 7.84 17.39 12.65 6.39 5.61 13.47 10.47 21.23 13.98-3.39-.31-6.8-.92-9.88-2.4-17.91-8.41-32.29-22.87-50.72-30.3-2.5-1.31-5.24-.09-7.82.24 2.88-1.02 5.94-2.27 9.02-1.32 5.27.87 9.33 4.77 14.47 5.99-1.27-2.94-4.29-4.25-6.96-5.6-3.54-1.71-7.41-3.08-11.4-2.86-2.97.14-5.47 1.86-8.03 3.19z"/><path d="m629.27 415.22c7.43-5.28 15.4-10.82 24.75-11.63 3.56-.3 5.85 2.89 7.97 5.23-2.83-1.44-5.66-3.34-8.97-3.22-5.43.15-10.49 2.57-15 5.41-1.22.69-1.74 2.06-2.4 3.21 5.05-1.51 9.19-5.21 14.46-6.13 3.05-.93 6.08.32 8.94 1.32-2.57-.31-5.31-1.54-7.79-.23-14.99 6.03-27.32 16.74-41.02 25.04-6.04 3.5-12.3 7.51-19.54 7.56 7.83-3.39 14.85-8.37 21.26-13.95 5.35-4.78 11.6-8.36 17.34-12.61z"/><path d="m326.64 406.99c.9-1.68 2.32-2.98 3.56-4.38.92 2.38 2.27 4.77 2.18 7.4-.57 2.52-2.77 4.18-4.37 6.05-.64-2.98-1.75-5.99-1.37-9.07z"/><path d="m590.56 410.03c-.14-2.66 1.25-5.05 2.21-7.43 1.44 1.89 4.06 3.59 3.61 6.32-.21 2.42-.96 4.76-1.64 7.08-1.5-1.88-3.61-3.53-4.18-5.97z"/><path d="m302.85 407.06c3.44 2.39 6.4 5.46 8.47 9.12-3.15-2.72-5.96-5.82-8.47-9.12z"/><path d="m611.67 416.12c1.89-3.34 4.46-6.31 7.69-8.41-2.16 3.14-4.8 5.93-7.69 8.41z"/><path d="m313.56 411.31c1.56-.24 3.17-1.18 4.78-.74 2.09 1.63 3.17 4.16 4.56 6.35-2.39-.33-5.08-.22-7.04-1.83-.99-1.12-1.6-2.49-2.3-3.78z"/><path d="m600.03 416.93c1.42-2.32 2.59-4.97 4.88-6.59 1.5.24 2.98.58 4.45 1-.71 1.27-1.33 2.62-2.28 3.74-1.97 1.61-4.67 1.5-7.05 1.85z"/><path d="m303.65 411.86c2.37 2.14 4.54 4.49 6.57 6.96-3.02-1.43-6.05-3.35-6.57-6.96z"/><path d="m612.67 418.84c2.05-2.49 4.25-4.85 6.65-7.01-.58 3.6-3.6 5.58-6.65 7.01z"/><path d="m258.95 416.93c2.78 2.26 5.34 4.81 8.42 6.69 3.64 2.4 7.81 4.47 10.16 8.32-.06 1.49-.2 2.97-.42 4.45-2.89-9.21-14.49-10.76-18.16-19.46z"/><path d="m314.93 417.54c3.36 1.17 6.89 1.67 10.42 2 2.67 5.63 5.37 11.25 8.33 16.74-6.98-5.45-14.53-10.71-18.75-18.74z"/><path d="m597.56 419.54c3.55-.33 7.1-.82 10.47-2.03-4.26 7.97-11.68 13.33-18.73 18.65 2.95-5.44 5.63-11.02 8.26-16.62z"/><path d="m655.62 423.58c3.07-1.88 5.62-4.44 8.35-6.77-3.47 8.82-15.27 10.24-18.03 19.49-.26-1.41-.53-2.82-.56-4.24 2.25-3.97 6.57-6.04 10.24-8.48z"/><path d="m307.4 419.98c9.58 4.05 16.58 11.88 24.71 18.07-9.67-3.52-18.66-9.7-24.71-18.07z"/><path d="m353.7 418.77c4.47 3.59 5.58 9.45 3.95 14.78-4.57-3.33-3.87-9.79-3.95-14.78z"/><path d="m564.71 425.97c.43-2.93 2.65-5.1 4.54-7.2-.09 5.01.55 11.42-3.96 14.82-.42-2.52-.93-5.07-.58-7.62z"/><path d="m590.86 438.12c7.99-6.33 15.09-14.02 24.62-18.13-6.01 8.42-15.05 14.45-24.62 18.13z"/><path d="m360.97 430.99c3.15-2.98 7.47-4.23 11.67-4.8-1.92 4.88-5.82 10.99-11.98 9.34.03-1.53.13-3.04.31-4.54z"/><path d="m550.28 426.2c4.28.5 8.57 1.93 11.84 4.84.11 1.8.45 5.1-2.21 4.92-5.17-.57-7.76-5.53-9.63-9.76z"/><path d="m340.56 430.05c4.06.52 7.95 1.83 11.67 3.5-.8 1.69-1.57 3.4-2.32 5.11-4.45-1.07-7.21-4.87-9.35-8.61z"/><path d="m570.68 433.55c3.72-1.68 7.63-2.99 11.71-3.49-2.18 3.72-4.93 7.52-9.37 8.62-.76-1.72-1.54-3.44-2.34-5.13z"/><path d="m292.56 438.95c-.13-2.45 1.22-4.64 2.1-6.84 1.73 1.97 3.68 3.86 4.75 6.29.99 2.21-.25 4.54-.86 6.68-2.18-1.84-4.63-3.55-5.99-6.13z"/><path d="m623.55 438.32c1.08-2.4 3-4.28 4.71-6.24.82 2.24 2.38 4.49 2.03 6.96-1.32 2.55-3.76 4.21-5.89 6.02-.66-2.15-1.89-4.51-.85-6.74z"/><path d="m354.32 435.54c2.59-1.87 6.83 1.63 4.71 4.38-1.26 2.27-4.69 2.14-5.91-.09-.09-1.45-.14-3.39 1.2-4.29z"/><path d="m565.3 435.39c3.94-2.26 6.63 4.62 2.7 6.03-3.73 1.58-6.64-4.54-2.7-6.03z"/><path d="m361.15 441.07c2.44-1.81 5.13-3.23 7.82-4.62 4.24 1.22 7.84 3.84 10.92 6.91-4.38 1.19-8.99 1.68-13.51 1.18-2.02-.63-3.54-2.27-5.23-3.47z"/><path d="m543 443.36c3.12-3.06 6.71-5.72 10.99-6.89 2.53 1.34 5.27 2.44 7.33 4.51-4.15 5.99-12.36 3.56-18.32 2.38z"/><path d="m315.25 438.33c2.23 1.16 4.49 2.27 6.79 3.3-2.02.29-4.03.6-6.04.93.88 2.29 1.84 4.55 2.88 6.78-3.39-.36-6.8-.62-10.21-.69 3.53-2.43 5.66-6.19 6.58-10.32z"/><path d="m408.81 440.89c.66-1.06 1.06-3.31 2.75-2.54 3.57 4.92 4.73 11.22 4.06 17.19-2.39-3.42-3.48-7.46-4.55-11.44-3.03 1.75-.46 5.56-.44 8.22-1.81-3.47-3.29-7.57-1.82-11.43z"/><path d="m507.3 455.6c-.82-6.44.83-13.01 4.7-18.23 3.78 4.26 3.02 10.3.39 14.94-.15-2.57 2.6-6.87-.56-8.06-1.06 3.94-2.21 7.93-4.53 11.35z"/><path d="m607.6 438.29c1 4.12 3.1 7.92 6.63 10.39-3.42.04-6.83.3-10.22.65 1.06-2.22 2.03-4.48 2.93-6.76-2-.33-4-.64-6-.92 2.25-1.06 4.47-2.18 6.66-3.36z"/><path d="m305.96 439.93c2.09-1.2 4.64-1.04 6.96-1.42-1.03 3.71-3.1 7.51-7.13 8.52-1.37.94-2.37-.99-3.51-1.47 1.15-1.91 2.06-4.05 3.68-5.63z"/><path d="m610.03 438.5c2.17.3 4.45.37 6.54 1.16 1.96 1.45 2.78 3.91 4.05 5.91-2.1 2.9-5.31.99-7.46-.81-1.7-1.69-2.27-4.12-3.13-6.26z"/><path d="m346.09 444.52c1.61-1.25 3.38-2.26 5.12-3.32.96.93 1.97 1.84 2.87 2.85-.82 1.48-1.86 2.86-3.19 3.92-1.75-.76-4.2-1.45-4.8-3.45z"/><path d="m568.48 444.01c1.13-.9 2.28-1.81 3.42-2.71 1.7 1.05 3.43 2.06 5.03 3.28-.9 1.86-3.06 2.65-4.85 3.4-1.34-1.2-2.45-2.61-3.6-3.97z"/><path d="m278.36 445.34c3.45-.96 6.95-2.11 10.59-1.96 2.13.3 3.8 1.86 5.64 2.87-.96 1.75-2.12 3.68-4.44 3.46-4.52 1.09-8.39-1.85-11.79-4.37z"/><path d="m327.98 443.52c4.81.8 9.67 1.26 14.54 1.44-.2 2.54-.43 5.08-.62 7.63-2.61-.51-5.22-1.02-7.84-1.43-1.89-2.66-3.89-5.23-6.08-7.64z"/><path d="m580.44 444.95c4.86-.18 9.72-.63 14.52-1.45-2.18 2.33-3.92 5.04-6.13 7.34-2.45 1.09-5.25 1.16-7.84 1.76-.16-2.56-.37-5.1-.55-7.65z"/><path d="m633.37 443.47c3.87-.48 7.64.86 11.25 2.1-2.46 1.51-4.85 3.29-7.65 4.11-2.33.41-4.68-.14-6.99-.39-.49-1.07-.97-2.14-1.44-3.2 1.58-.92 3.08-2.04 4.83-2.62z"/><path d="m318.66 444.23c2.62.13 5.45-.08 7.77 1.38 1.62 1.1 2.75 2.74 4 4.22-2.91-.26-5.96-.3-8.63-1.62-1.45-.94-2.16-2.62-3.14-3.98z"/><path d="m357.07 443.46c1.69 1.06 3.73 1.95 4.67 3.84 1.31 2.41.9 5.28 1.03 7.93-2.43-1.26-4.99-2.4-7.07-4.21-.43-2.61.69-5.1 1.37-7.56z"/><path d="m561.21 447.24c.94-1.85 2.95-2.72 4.62-3.78.69 2.46 1.83 4.96 1.39 7.58-2.1 1.79-4.64 2.93-7.05 4.21.13-2.67-.31-5.58 1.04-8.01z"/><path d="m596.59 445.56c2.3-1.42 5.1-1.2 7.7-1.3-1.01 1.35-1.76 3.01-3.21 3.96-2.66 1.33-5.71 1.34-8.6 1.61 1.28-1.5 2.45-3.17 4.11-4.27z"/><path d="m419.88 449.02c2.16-2.73 5.79-3.28 8.96-4.08-1.77 5.79-5.29 10.88-9.72 14.96 1.33-3.67 3.46-6.94 5.26-10.37-3.57.48-4.84 3.96-6.47 6.63.38-2.42.19-5.21 1.97-7.14z"/><path d="m494.09 444.92c3.12.83 6.73 1.36 8.91 4.03 1.8 1.96 1.66 4.75 1.97 7.22-1.61-2.66-2.85-6.23-6.46-6.57 1.74 3.2 3.86 6.24 4.92 9.78-4.4-3.83-7.63-8.89-9.34-14.46z"/><path d="m344.67 446.94c1.22.91 2.45 1.83 3.66 2.77-1.39.49-2.78.98-4.17 1.46.16-1.41.33-2.82.51-4.23z"/><path d="m574.56 449.67c1.23-.92 2.47-1.81 3.73-2.7.15 1.4.31 2.8.47 4.21-1.41-.5-2.81-1.01-4.2-1.51z"/><path d="m394.22 447.13c4.31.8 8.73 1.88 12.42 4.36 2.34 1.74 3.76 4.37 5.41 6.72-3.2-1.86-6.12-4.15-9.31-6.01-.14.44-.42 1.33-.56 1.78 2.36 2.26 5.19 3.93 7.82 5.85-6.35-2.42-13.69-5.54-15.78-12.7z"/><path d="m517.06 450.98c3.55-2.12 7.62-3.13 11.66-3.83-2.13 7.08-9.37 10.22-15.69 12.63 2.62-2.17 6.12-3.55 7.92-6.55l-.93-.87c-3.16 1.74-5.99 4.01-9.11 5.83 1.79-2.59 3.35-5.57 6.15-7.21z"/><path d="m538.66 465.14c6.68-5.5 13.41-10.95 19.59-17.02-.39 2.75-.46 5.53-.06 8.29-6.35 3.23-12.54 7.03-19.53 8.73z"/><path d="m364.81 448.2c6.11 6.08 12.82 11.48 19.47 16.94-7-1.7-13.2-5.48-19.54-8.73.23-2.74.24-5.48.07-8.21z"/><path d="m308.93 450.66c4.41.52 8.85.76 13.28 1.11-1.34 1.35-2.68 2.7-4 4.07-2.64-2.46-5.87-4.09-9.28-5.18z"/><path d="m383.88 449.25c6.7 7.11 12.78 14.79 18.23 22.91-6.44-1.44-10.98-6.38-15.17-11.12-2.76-3.27-2.57-7.8-3.06-11.79z"/><path d="m520.84 472.17c5.36-8.2 11.57-15.79 18.21-22.97-.47 3.99-.32 8.52-3.04 11.81-4.19 4.74-8.74 9.68-15.17 11.16z"/><path d="m345.48 453.28c1.74-.82 3.43-1.87 5.34-2.23 2.37.82 3.89 2.89 5.42 4.75-3.61-.72-7.19-1.61-10.76-2.52z"/><path d="m566.66 455.76c1.55-1.86 3.13-3.92 5.52-4.75 1.85.5 3.55 1.43 5.28 2.27-3.58.93-7.17 1.8-10.8 2.48z"/><path d="m600.74 451.76c4.1-.35 8.2-.59 12.32-.68-3.07 1.03-5.94 2.57-8.35 4.74-1.32-1.37-2.65-2.71-3.97-4.06z"/><path d="m284.94 453.9c3.12-1.34 6.65-1.04 9.91-.45-1.63 2.41-2.95 5.32-5.58 6.82-2.7 1.04-5.66 1.06-8.5 1.29 1.17-2.63 1.78-5.82 4.17-7.66z"/><path d="m304.43 452.5c5.01.47 10.16 2.04 13.23 6.32-3.3-.23-6.7-.38-9.76-1.74-1.91-.79-2.44-3.01-3.47-4.58z"/><path d="m320.16 457.07c1.72-1.75 3.47-3.67 5.87-4.46 2.03-.17 4.06.19 6.09.36-3.13 3.18-7.37 5.87-11.96 4.1z"/><path d="m590.81 452.96c2.04-.15 4.12-.56 6.19-.32 2.33.82 4.04 2.71 5.75 4.43-4.6 1.78-8.82-.92-11.94-4.11z"/><path d="m605.29 458.83c3.02-4.33 8.19-5.82 13.18-6.35-1.04 1.61-1.56 3.9-3.54 4.63-3.03 1.35-6.39 1.47-9.64 1.72z"/><path d="m628.08 453.45c3.25-.59 6.77-.88 9.9.45 2.43 1.81 2.95 5.06 4.14 7.68-2.84-.25-5.77-.28-8.46-1.31-2.64-1.49-3.96-4.41-5.58-6.82z"/><path d="m298.38 469.15c-.79-4.11-3.85-10.35.74-13.16 1.35-1.73 2.3.8 2.45 1.81 1.1 4.13-.66 8.16-3.19 11.35z"/><path d="m621.78 455.27c1.41.77 3.53 1.03 4.04 2.85 1.2 3.72-.49 7.62-1.53 11.19-3.04-4.08-3.84-9.17-2.51-14.04z"/><path d="m421.57 461.56c1.4-1.49 2.62.45 2.98 1.77.53 2.06.15 4.44-1.54 5.88-3.22-.75-3.15-5.49-1.44-7.65z"/><path d="m500.06 469.55c-2.75-2.55-2.45-7.21.75-9.25 1.73 2.83 2.8 7.27-.75 9.25z"/><path d="m342.53 464.73c11.67-.19 23.69-2.6 35.1.89 4.67 1.69 9.18 3.78 13.7 5.83-10.42-1.06-20.9-1.54-31.37-1.64-6.17 0-11.97-2.45-17.43-5.08z"/><path d="m545.39 465.58c11.4-3.45 23.39-1.02 35.04-.86-5.47 2.61-11.26 5.09-17.43 5.09-10.69.11-21.37.58-32 1.72 4.82-1.92 9.51-4.18 14.39-5.95z"/><path d="m438.57 466.04c-2.79 6.23.23 12.56 3.07 18.12-3.18-2.17-6.97-4.36-8.2-8.26-.95-4.13 2.67-7.13 5.13-9.86z"/><path d="m484.37 466.07c2.48 2.72 6.08 5.76 5.12 9.89-1.33 3.88-5.01 6.09-8.3 8.15 1.56-3.3 3.47-6.52 4.17-10.15.6-2.68-.39-5.32-.99-7.89z"/><path d="m318.86 468.77c5.95-.07 12.26 1.38 16.12 6.28-3.48-1.62-6.75-3.85-10.63-4.38 1.83 3.18 5.63 4.09 8.39 6.22-3.42-.3-7.08-.59-9.98-2.62-1.91-1.32-2.77-3.58-3.9-5.5z"/><path d="m588 475.08c3.77-4.96 10.14-6.5 16.1-6.05-1.17 1.82-2.18 3.83-3.9 5.2-2.87 2.07-6.53 2.35-9.93 2.64 2.42-2.22 6.54-2.69 7.89-5.89-3.82-.08-6.79 2.73-10.16 4.1z"/><path d="m407.36 474.15c3.13-1.45 6.13-3.68 9.66-3.92 5.21 1.31 9.34 5.07 13.55 8.22.05.25.17.76.23 1.01-4.4-2.27-8.85-4.76-13.81-5.52-3.21 0-6.42.87-9.63.21z"/><path d="m503.79 470.85c4.18-1.92 8.09 1.84 11.79 3.29-3.19.69-6.41-.2-9.61-.21-5.09.72-9.48 3.61-14.25 5.3 3.6-3.34 7.59-6.34 12.07-8.38z"/><path d="m381.75 475.73c4.27-1.53 8.85-1.2 13.3-1.4-11.11.33-20.44 6.9-30.12 11.54-3.18 1.58-6.55 2.84-10.12 3.17 8.64-5.06 17.38-10.18 26.94-13.31z"/><path d="m528.02 474.33c4.19.21 8.5-.12 12.55 1.22 9.83 3.07 18.73 8.4 27.62 13.49-6.11-.52-11.42-3.82-16.76-6.52-7.3-3.94-14.95-7.87-23.41-8.19z"/><path d="m413.31 476.18c5.34-.59 10.17 2 14.72 4.39-4.96-1.25-10.05-2.25-14.72-4.39z"/><path d="m494.98 480.57c4.48-2.34 9.31-5.2 14.58-4.13-4.75 1.74-9.68 2.91-14.58 4.13z"/><path d="m389.16 476.96c5.05-.3 10.49-1.07 15.08 1.58-4.42 1.32-8.94 3.14-11.5 7.24-.43-3.22-1.75-6.18-3.58-8.82z"/></g><path d="m406.36 477.15c1.36-.54 1.88-.09 1.55 1.34-1.38.52-1.89.08-1.55-1.34z" fill="#828f7b"/><path d="m515.14 477.1c1.42-.44 1.88.04 1.39 1.44-1.42.42-1.89-.06-1.39-1.44z" fill="#82907b"/><path d="m518.66 478.28c4.76-2.14 10.05-1.72 15.11-1.33-1.78 2.61-3.16 5.49-3.62 8.65-2.68-3.98-7.23-5.65-11.49-7.32z" fill="#030"/><path d="m449.8 477.47c2.93 3.59 5.51 7.51 7.08 11.9-2.04-1.32-4.27-2.51-5.81-4.44-1.65-2.13-1.24-4.97-1.27-7.46z" fill="#030"/><path d="m466.05 489.37c1.57-4.4 4.13-8.34 7.11-11.9-.08 2.47.3 5.29-1.28 7.42-1.53 1.96-3.78 3.14-5.83 4.48z" fill="#030"/><path d="m386.03 488.74c-.5-3.11-1.45-7.73 1.6-9.77 2.4 2.63 2.86 6.25 2.61 9.67-1.41.04-2.81.07-4.21.1z" fill="#030"/><path d="m412.23 478.74c2.78.08 5.46.89 7.82 2.37-2.84.15-5.63-.51-7.82-2.37z" fill="#697e64"/><path d="m502.57 480.71c2.61-1.05 5.36-1.75 8.17-2.05-2.24 2.19-5.21 2.69-8.17 2.05z" fill="#6e8168"/><path d="m532.72 488.26c-.7-3.67.72-7.23 3.24-9.87 1.33 3.39 2.01 7.07.77 10.61-1.35-.22-2.7-.39-4.01-.74z" fill="#030"/><path d="m312.24 489.57c3.58-4.87 8.68-8.84 14.88-9.39-2.33 1.24-4.99 2.15-6.47 4.51 4.42-.56 8.4-2.71 12.73-3.64-5.49 5.71-13.31 8.45-21.14 8.52z" fill="#030"/><path d="m595.86 480.15c6.16.62 11.23 4.55 14.79 9.42-7.78-.1-15.63-2.78-21.05-8.52 4.33.46 8.19 3.99 12.59 3.11-1.77-1.84-4.13-2.82-6.33-4.01z" fill="#030"/><path d="m405.06 487.46c.7-2.26 1.36-4.53 1.96-6.81 2.31 1.11 4.65 2.17 7.02 3.17-3.09.95-6.11 2.13-8.98 3.64z" fill="#030"/><path d="m508.83 483.86c2.38-1 4.74-2.08 7.07-3.19.6 2.31 1.28 4.61 2.03 6.9-2.87-1.62-5.94-2.82-9.1-3.71z" fill="#030"/><path d="m394.5 487.55c1.83-4 6.18-5.69 10.21-6.55-.82 5.11-4.11 10.3-9.84 10.39-2.49.37-1.04-2.81-.37-3.84z" fill="#030"/><path d="m518.24 480.98c5.15.81 11.46 4.57 10.95 10.44-2.57-.04-5.19-.79-7.2-2.42-2.3-2.04-2.87-5.24-3.75-8.02z" fill="#030"/><path d="m331.56 489.4c.57-2.52 2.45-4.42 4.04-6.35-.81 3.64-1.86 7.28-1.83 11.05l1.32.45c1.88-3.69 1.55-8.28 3.38-12.11.37 2.53.93 5.14.32 7.69-.56 3.75-3.39 6.51-5.86 9.16-.88-3.21-2.03-6.53-1.37-9.89z" fill="#030"/><path d="m584.49 482.43c1.46 3.75 1.93 7.77 2.75 11.7.49.05 1.49.17 1.98.22-.13-3.71-1-7.32-1.72-10.94 1.48 1.68 3.2 3.35 3.77 5.61.88 3.46-.43 6.92-1.26 10.26-2.5-2.62-5.29-5.41-5.88-9.15-.65-2.56-.05-5.17.36-7.7z" fill="#030"/><path d="m420.61 484.62c6.68.82 13.68-1.43 20.04 1.53-6.22 1.4-12.48 2.59-18.67 4.12-.2-1.95-.61-3.85-1.37-5.65z" fill="#030"/><path d="m481.89 486.13c6.55-2.82 13.65-.76 20.49-1.53-.84 1.78-1.26 3.7-1.41 5.66-6.33-1.51-12.71-2.83-19.08-4.13z" fill="#030"/><path d="m413.42 488.61c-.17-3.35 4.27-2.29 6.36-1.98.57 3.69-4.87 5.24-6.36 1.98z" fill="#030"/><path d="m504.35 486.58c1.66-1.02 5.56-.54 5.14 1.98-.75 3.75-9.07 1-5.14-1.98z" fill="#030"/><path d="m373.63 489.74c3.6-1.66 7.48-1.09 11.06.25-.63 1.32-1.25 2.67-1.88 4-3.47-.34-6.53-2.08-9.18-4.25z" fill="#030"/><path d="m417.57 493.37c7.55-1.41 14.98-3.41 22.55-4.7 4.23-.8 8.43.51 12.36 2.01-4.45 1.47-8.96 2.77-13.44 4.15-4.15 1.22-8.48 2.57-12.85 1.89-3.05-.59-5.85-2.01-8.62-3.35z" fill="#030"/><path d="m470.46 490.68c3.95-1.54 8.21-2.82 12.49-1.98 7.53 1.29 14.93 3.27 22.44 4.69-4.47 2.25-9.42 4.42-14.53 3.21-6.94-1.46-13.63-3.86-20.4-5.92z" fill="#030"/><path d="m538.23 489.98c3.58-1.32 7.46-1.9 11.05-.24-2.65 2.17-5.7 3.89-9.15 4.27-.65-1.34-1.28-2.69-1.9-4.03z" fill="#030"/><path d="m395.52 493.94c1.94.18 3.96.04 5.83.69 2.67 1.27 4.3 3.88 5.95 6.22-4.39 1.01-9.15.51-12.46-2.79.22-1.38.45-2.75.68-4.12z" fill="#030"/><path d="m515.63 500.98c1.66-2.53 3.4-5.43 6.4-6.51 1.77-.39 3.6-.43 5.41-.58.18 1.39.38 2.79.58 4.2-3.29 3.31-8.02 3.67-12.39 2.89z" fill="#030"/><path d="m380.13 505.19c-.21-3.18.88-6.12 3.04-8.44.73 1.67 3.27 3.34 2.04 5.37-.96 1.9-3.34 2.2-5.08 3.07z" fill="#030"/><path d="m536.94 500.4c1.04-1.2 2.08-2.39 3.13-3.57 1.82 2.42 2.87 5.26 2.75 8.33-2.61-.7-4.98-2.07-5.88-4.76z" fill="#030"/><path d="m387.51 501.34c1.76-.34 3.53-.68 5.3-1 .17 3 0 6.04-.91 8.93-2.24-2.16-3.69-4.92-4.39-7.93z" fill="#030"/><path d="m529.81 500.4c1.86.28 3.73.57 5.6.89-.71 3.01-2.15 5.79-4.34 7.99-.89-2.87-1.27-5.87-1.26-8.88z" fill="#030"/></svg>