<svg height="600" viewBox="-75 -40 120 80" width="600" xmlns="http://www.w3.org/2000/svg" xmlns:xlink="http://www.w3.org/1999/xlink"><path d="m-75-60h120v120h-120z" fill="#fff"/><path d="m-75-60h120v120z" fill="#01411c"/><circle cx="11.45889" cy="-26.7374" fill="#fff" r="24"/><circle cx="-7" cy="-40" fill="#01411c" r="22" transform="matrix(.747409 -.664364 .664364 .747409 49.40002 -6.944651)"/><g fill="#fff" transform="matrix(.747409 -.664364 .664364 .747409 23.41744 -37.36722)"><g id="a"><path id="b" d="m0 0h-8v4z" transform="matrix(.951057 .309017 -.309017 .951057 8 0)"/><use height="80" transform="scale(1 -1)" width="120" xlink:href="#b"/></g><use height="80" transform="matrix(.309017 .951057 -.951057 .309017 0 0)" width="120" xlink:href="#a"/><use height="80" transform="matrix(.309017 -.951057 .951057 .309017 0 0)" width="120" xlink:href="#a"/><use height="80" transform="matrix(-.809017 .587785 -.587785 -.809017 0 0)" width="120" xlink:href="#a"/><use height="80" transform="matrix(-.809017 -.587785 .587785 -.809017 0 0)" width="120" xlink:href="#a"/></g><path d="m-75-26 86 86h-86z"/></svg>