<svg height="1200" viewBox="0 0 1440 960" width="1800" xmlns="http://www.w3.org/2000/svg"><path d="m0 0h1440v960h-1440" fill="#004226" fill-rule="evenodd"/><g fill="#fff"><path d="m833.625 458.00391c-.95312-101.45312-111.86719-86.20703-114.15625-176.33985 2.40625 66.24219 132.48437 68.0586 131.64452 176.33985-.17577 106.75782-130.82031 107.72657-131.64452 176.34375 4.87109-87.55468 117.10156-70.98829 114.15625-176.34375zm0 0" fill-rule="evenodd" stroke="#fff" stroke-miterlimit="10" stroke-width="1.250125"/><path d="m605.30077 458.00391c.95704-101.44922 111.8711-86.20703 114.16017-176.33593-2.40625 66.23827-132.48048 68.05468-131.64453 176.33593.17578 106.76172 130.8203 107.72657 131.64453 176.34375-4.8711-87.55078-117.10157-70.98828-114.16016-176.34375zm0 0" fill-rule="evenodd" stroke="#fff" stroke-miterlimit="10" stroke-width="1.250125"/><path d="m850.78906 336.31641c-.82422-10.07813-4.78125-19.54297-11.05859-27.14844-6.82422-8.27344-16.39063-14.36328-27.65625-16.69531-.21094-.043-.39453-.0781-.57031-.11329-.004 0-.004 0-.0117 0-.0781-.0156-.1211-.0234-.16407-.0312l-3.0039-.5625.043 3.05079c.15625 11.29296 4.25781 21.99218 11.21093 30.41406 6.50782 7.88672 15.50391 13.78515 26.08985 16.34375-1.78125-.4336-3.51953-.95703-5.21485-1.57422 1.01172 1.07031 1.97266 2.19922 2.875 3.375-8.9375 2.8125-18.20703 2.58594-26.60156-.14844-8.34765-2.72265-15.83984-7.90625-21.29687-15.03125 8.9375-2.8125 18.20703-2.58203 26.60547.15235.17187.0586.34765.11718.51953.17578-1.04297-1.05469-2.03125-2.15625-2.97657-3.29297-.86718-1.05469-1.69531-2.13672-2.46875-3.26172-8.39843-1.51563-17.29687-.85156-25.82812 2.375l-.0117.008c-.40625.15625-.42187.16406-.45703.17578l-.0117.004c-.30859.12891.23828-.0898-.22656.0898l-2.85156 1.1211 1.67968 2.5664c6.19141 9.45313 15.39063 16.27735 25.78125 19.66016 10.19141 3.32031 21.53516 3.33203 32.29688-.74219l.008-.008c.26953-.10156-.0508.0195.35156-.14063.11328-.0391.22657-.0898.33203-.1289l2.59766-1.01953c2.10938-.13672 3.96484-1.66407 4.41406-3.83203.14844-.70313.12891-1.40235-.0273-2.0625l1.09766-2.42188c4.66015-10.28516 5.49218-21.71484 2.78515-32.28906-2.65625-10.375-8.72656-19.95703-17.94531-26.86328l.004-.008c-.0274-.0195-.10157-.0703-.19141-.13672.29297.21484.48437.34765-.42969-.31641l-2.46875-1.79297-1.26562 2.78906c-3.32813 7.34766-4.70703 15.27735-4.23438 23.0625 2.04688 1.63672 3.95313 3.42188 5.69922 5.34766-1.48437-7.73047-.91016-15.83594 1.86328-23.39453 7.16016 6.03515 11.92969 13.98047 14.125 22.54297 2.17969 8.51172 1.8125 17.61718-1.27734 26.04687-1.10156-.92969-2.14844-1.90625-3.13672-2.92187.48437 2.17187.82422 4.39062 1.00781 6.63672zm-14.90625-23.97657c-5.62109-6.80468-13.3164-11.97265-22.375-14.38672.78906 8.9375 4.33203 17.33204 9.91797 24.10547 5.62109 6.80469 13.32031 11.97266 22.37891 14.39453-.78907-8.94531-4.33203-17.33984-9.92188-24.11328" fill-rule="evenodd"/><path d="m902.53906 451.98047c4.375-9.1211 5.73047-19.28516 4.14844-29.01953-1.72266-10.58594-6.90625-20.67188-15.45703-28.36719-.16016-.14844-.30078-.26953-.4336-.38672-.008 0-.008-.004-.0117-.004-.0586-.0547-.0937-.0859-.12891-.11328l-2.30859-2.0039-1.50391 2.65625c-5.5625 9.82812-7.41016 21.14062-5.65625 31.92187 1.64062 10.08594 6.42969 19.72656 14.28125 27.26953-1.32422-1.27734-2.55859-2.60547-3.71094-3.98437.33203 1.42969.58985 2.89062.77344 4.35937-9.13281-2.08203-17.01563-6.95312-22.89063-13.55078-5.83203-6.55469-9.6875-14.8125-10.80468-23.72656 9.13672 2.08594 17.02734 6.96094 22.89843 13.5625.1211.13281.23829.27344.35938.41016-.37109-1.4375-.67188-2.88672-.90625-4.33985-.22266-1.35156-.38672-2.70312-.49219-4.0625-6.48828-5.54687-14.5-9.46484-23.5-10.98437l-.008.008c-.42969-.0742-.44531-.0742-.48438-.0781h-.0156c-.33203-.0547.25.0312-.23828-.0391l-3.02735-.47656.15625 3.0625c.57813 11.28516 5.07813 21.82031 12.33985 29.98437 7.1289 8.00782 16.91406 13.73438 28.26172 15.64844h.0156c.28125.0469-.0625-.0117.36719.0547.11719.0195.23437.0391.35937.0547l2.75391.43359c1.89453.94141 4.26172.5625 5.74219-1.08203.48047-.53125.82031-1.14844 1.01562-1.79688l2.16797-1.53515c9.21875-6.53125 15.70313-15.98047 18.69531-26.48047 2.9375-10.30078 2.53125-21.62891-1.94531-32.24219h.008c-.0117-.0352-.0508-.11719-.0937-.21875.14844.33594.24219.54297-.21093-.49219l-1.23047-2.79687-2.4961 1.77344c-6.57812 4.66797-11.76953 10.8125-15.28906 17.77734.94141 2.44141 1.6836 4.94531 2.21875 7.48828 2.61719-7.42578 7.20703-14.1289 13.41406-19.25781 3.14063 8.82031 3.2461 18.09375.82422 26.58984-2.41015 8.44922-7.32422 16.13282-14.24218 21.84766-.48438-1.35938-.89454-2.73438-1.23438-4.10938-.67969 2.125-1.50391 4.21094-2.48047 6.2461zm-.77344-28.22266c-1.42187-8.71875-5.46093-17.05469-12.05859-23.71875-3.83203 8.1211-5.01172 17.15625-3.59766 25.82031 1.41407 8.71875 5.45704 17.0586 12.0586 23.71875 3.82812-8.12109 5.01172-17.15625 3.59765-25.82031" fill-rule="evenodd"/><path d="m887.68359 388.32812c.65625-10.09375-1.8789-20.03125-6.98047-28.47265-5.55468-9.17969-14.125-16.59766-24.93359-20.54688-.20312-.0742-.37891-.13281-.55078-.1914 0-.004-.004-.004-.008-.004-.0742-.0234-.11719-.043-.16407-.0586l-2.88281-.99219-.40625 3.02344c-1.49219 11.20312 1.00781 22.3789 6.66406 31.72265 5.29297 8.75 13.32813 15.89844 23.4336 19.97266-1.70703-.6875-3.35156-1.46094-4.9336-2.31641.84375 1.20703 1.63282 2.46094 2.35547 3.76172-9.25781 1.47656-18.39062-.0977-26.30078-4.03125-7.85937-3.90625-14.51562-10.125-18.88281-17.97265 9.25391-1.48047 18.39453.0977 26.30469 4.02734.16406.0859.32422.16797.48437.25-.875-1.19531-1.69531-2.42578-2.46094-3.69141-.70312-1.16797-1.36328-2.35547-1.96875-3.58203-8.08965-2.72646-16.98418-3.36709-25.89824-1.41396l-.0156.008c-.42187.0937-.4375.0977-.47656.10547l-.008.004c-.32813.0781.24218-.0547-.24219.0547l-2.98438.69532 1.28907 2.78125c4.75 10.25 12.85937 18.35156 22.64453 23.21093 9.59765 4.76563 20.8164 6.42969 32.05859 3.96094l.0117-.004c.28125-.0625-.0586.0117.36328-.0859.11719-.0273.23438-.0547.35156-.0781l2.72266-.6289c2.10547.16797 4.16016-1.07032 4.92188-3.15235.24218-.67187.33203-1.37109.27343-2.04297l1.4336-2.23437c6.11328-9.5 8.60156-20.68359 7.46093-31.54297-1.11718-10.65234-5.73046-21.01172-13.84375-29.1875l.008-.004c-.0234-.0312-.0899-.0898-.16797-.16406.26172.25.42578.41016-.37891-.375l-2.18359-2.14062-1.65625 2.57422c-4.36328 6.78906-6.87891 14.42968-7.54688 22.20312 1.78516 1.91406 3.40625 3.96094 4.85547 6.11719-.33984-7.86328 1.40625-15.79297 5.25781-22.8711 6.19922 7.01172 9.76563 15.57032 10.6875 24.35938.91797 8.73828-.77343 17.69531-5.05468 25.58203-.95703-1.07812-1.85157-2.19531-2.67969-3.34766.16016 2.21875.17578 4.46875.0273 6.71875zm-11.2539-25.89453c-4.56641-7.55468-11.42969-13.78515-20.03907-17.49609-.52343 8.96094 1.75782 17.78516 6.29688 25.29297 4.57031 7.55469 11.4375 13.78515 20.04687 17.5.52344-8.95703-1.75781-17.78125-6.30468-25.29688" fill-rule="evenodd"/><path d="m889.73047 518.02344c7.75781-6.48438 13.20703-15.17188 15.80469-24.6875 2.8164-10.34375 2.28125-21.67188-2.3125-32.22657-.082-.19531-.16016-.36718-.23829-.52734 0-.004 0-.008 0-.008h-.008c-.0273-.0742-.0469-.11719-.0664-.15625l-1.26954-2.77735-2.47265 1.79688c-9.13672 6.64062-15.50781 16.16016-18.37891 26.69531-2.6875 9.86719-2.32422 20.6211 1.69531 30.74219 0-.004 0-.004 0-.004-.67968-1.70312-1.25-3.42578-1.72265-5.16406-.29297 1.44531-.66016 2.875-1.10547 4.29688-7.44922-5.6836-12.60156-13.38672-15.21484-21.82422-2.58985-8.38672-2.67579-17.5-.004-26.06641 7.45703 5.68359 12.61328 13.38672 15.21875 21.82422.0547.17578.10937.34766.16406.52344.25781-1.45313.57813-2.89844.96875-4.32813.35938-1.3125.77344-2.61719 1.23438-3.89453-3.60157-7.73828-9.26953-14.625-16.82813-19.73047l-.0153-.008c-.35938-.24219-.3711-.24609-.40625-.27344l-.0156-.004c-.27734-.17969.21875.13671-.19922-.13672l-2.5625-1.67969-1.12109 2.85156c-4.15234 10.50391-4.42578 21.96485-1.19922 32.40235 3.16797 10.23828 9.69922 19.50781 19.23438 25.95312l.0156.004c.23438.16406-.0508-.0312.3125.20703.10156.0664.19922.1289.30078.19531l2.32813 1.53516c1.32812 1.64062 3.64453 2.27734 5.67578 1.39453.66015-.28516 1.22265-.70313 1.66797-1.21094l2.60937-.5c11.09375-2.12891 20.90625-8.03516 27.98828-16.34766 6.94141-8.15625 11.26563-18.63671 11.59766-30.14843h.004c.004-.0391.004-.12891.004-.23438-.004.35938-.004.59375.0117-.53515l.0391-3.05469-3.0039.57422c-7.92578 1.51953-15.19532 4.96875-21.28516 9.84375-.15625 2.61328-.51562 5.19531-1.08203 7.73437 5.46094-5.66797 12.41406-9.87109 20.1875-11.96875-.79688 9.33203-4.53906 17.8125-10.27344 24.54297-5.6914 6.69141-13.34375 11.64453-22.01562 13.98047.1289-1.4375.32422-2.85938.58203-4.25391-1.4961 1.65235-3.10938 3.20703-4.84375 4.65235zm10.99219-26c2.32421-8.51953 2.09765-17.78125-1.14844-26.58203-6.85156 5.80078-11.66406 13.53515-13.97266 22.00781-2.32031 8.51953-2.10156 17.78125 1.14453 26.58203 6.85157-5.80078 11.66797-13.53516 13.97657-22.00781" fill-rule="evenodd"/><path d="m759.98828 639.82031c-.004 0 0 0-.004 0 10.04688 1.17969 20.10157-.83594 28.79297-5.49219 9.45703-5.0625 17.3086-13.24218 21.81641-23.82812.0859-.19922.15625-.37109.22656-.54297v-.004-.004c.0274-.0742.0469-.11328.0625-.15625l1.14844-2.83203-3.00391-.5625c-11.10547-2.06641-22.39843-.15235-32.02734 5.00781-9.01172 4.82812-16.57031 12.48828-21.16016 22.35937h.004c.77344-1.66406 1.63281-3.26562 2.5625-4.80468-1.25.78125-2.53906 1.5-3.875 2.15625-.99219-9.32032 1.05859-18.35547 5.39062-26.05078 4.30469-7.64844 10.86719-13.97266 18.92969-17.92579.9961 9.32032-1.05469 18.36329-5.39062 26.0586-.0859.15625-.17969.3125-.27344.47265 1.24219-.8125 2.50781-1.57031 3.8125-2.26562 1.20312-.64063 2.43359-1.23828 3.68359-1.78125 3.14453-7.93359 4.24219-16.78516 2.75782-25.78906l-.004-.0117c-.0742-.42969-.0781-.44141-.0859-.48047l-.004-.0156c-.0586-.32812.043.25-.0391-.24218l-.53515-3.01563-2.84766 1.14063c-10.48437 4.21093-18.99609 11.88672-24.35547 21.40625-5.26562 9.34375-7.5039 20.45703-5.6289 31.8125l.008.0117c.043.28125-.008-.0586.0664.37109.0156.11719.043.23828.0625.35156l.48829 2.75c0 .0117-.004.0274-.004.043l-18.12109 7.64453 8.73046 3.96485 11.9961-6.70704c.0937.0469.18359.0937.28515.13282.66407.28125 1.35157.40234 2.03125.3789l2.15235 1.55078c9.17578 6.59766 20.20703 9.66407 31.11328 9.08985 10.69531-.5625 21.28125-4.62891 29.87109-12.30469v.004c.0312-.0195.0937-.082.17188-.15625-.26172.24218-.4336.40625.39453-.35938l2.25-2.07031-2.48438-1.78906c-6.55078-4.71094-14.05078-7.6211-21.78125-8.69141-2 1.68359-4.13281 3.19922-6.36328 4.53516 7.8711.0625 15.70313 2.22656 22.57422 6.4375-7.32812 5.82812-16.05859 8.9375-24.88672 9.40234-8.77734.46484-17.63281-1.6875-25.28906-6.375 1.13281-.89844 2.29297-1.73437 3.48828-2.5-2.22656.043-4.46875-.0586-6.70703-.32422zm26.44141-9.89062c7.77734-4.16407 14.35547-10.69922 18.51172-19.10157-8.92188-.99218-17.84766.82813-25.58594 4.97657-7.78516 4.16797-14.36328 10.70312-18.51563 19.10547 8.91797.98437 17.85157-.83594 25.58985-4.98047" fill-rule="evenodd"/><path d="m812.60156 610.03125c10.04297-1.14844 19.375-5.40625 26.77735-11.92188 8.04687-7.09375 13.82812-16.84765 15.79687-28.1875.0391-.20703.0625-.39453.0898-.57421v-.004c.0156-.0859.0234-.12891.0312-.17188l.46875-3.01562-3.05078.13281c-11.28515.52344-21.83984 4.96875-30.03906 12.1875-7.67187 6.76563-13.28125 15.94531-15.49609 26.60938 0-.008 0-.008 0-.008.375-1.79687.84765-3.54687 1.40234-5.25781-1.03516 1.04688-2.13281 2.03906-3.28125 2.98047-3.09375-8.84375-3.16406-18.11328-.70312-26.59375 2.44921-8.43359 7.39453-16.08203 14.33593-21.76953 3.10157 8.84375 3.16797 18.11719.70313 26.60156-.0469.16797-.10156.34375-.15625.51953 1.01953-1.07422 2.08594-2.10547 3.19531-3.08203 1.02344-.89844 2.08203-1.76172 3.17578-2.57031 1.25-8.44531.30469-17.31641-3.20312-25.73828l-.004-.0117c-.16797-.39844-.17578-.41406-.19531-.45313l-.004-.008c-.13672-.30859.10156.23438-.0976-.22656l-1.21094-2.8125-2.51172 1.76562c-9.24219 6.48829-15.77344 15.90625-18.82031 26.39844-2.84766 9.81641-2.65625 20.57813 1.19531 30.76563 2.67187.0508 5.35547.3125 8.02734.8125l3.00391.5625-1.14844 2.83203c-.0156.043-.0351.082-.0625.15625v.004.004c-.0703.17188-.14062.34375-.22656.54297-.60156 1.41016-1.25781 2.77734-1.97656 4.10547.13672-.0234.27343-.0508.40625-.0899l2.45312 1.01954c10.4375 4.32421 21.88281 4.78906 32.36719 1.74218 10.28516-2.99218 19.66016-9.36328 26.27344-18.80078h.004c.0195-.0273.0664-.0937.12891-.1875-.20313.29688-.33594.49219.30078-.4414l1.71484-2.52735-2.82421-1.17187c-7.45704-3.09375-15.42579-4.21094-23.1875-3.49219-1.56641 2.10156-3.29688 4.05859-5.16016 5.86719 7.67969-1.73047 15.79687-1.41407 23.44141 1.10937-5.80079 7.35547-13.58985 12.375-22.08204 14.84375-8.42968 2.45313-17.54687 2.38281-26.07031-.43359.89063-1.13281 1.83594-2.21094 2.82031-3.23047-2.15625.55469-4.35937.96484-6.60156 1.21875zm23.48047-15.66797c6.62891-5.83594 11.53516-13.69922 13.66406-22.82812-8.91015 1.07421-17.1875 4.88281-23.77734 10.6875-6.625 5.83593-11.53516 13.69921-13.66406 22.82812 8.91406-1.07422 17.1914-4.88281 23.77734-10.6875" fill-rule="evenodd"/><path d="m855.25391 569.44531c9.45703-3.04687 17.66015-8.90625 23.61328-16.5664 6.58203-8.47266 10.4375-19.13672 10.2539-30.64063 0-.21484-.0117-.40234-.0156-.58203 0 0 0-.004 0-.008-.004-.0781-.004-.12891-.004-.17188l-.10937-3.05078-2.96875.70703c-10.98438 2.61719-20.52735 8.96094-27.23047 17.58203-6.27344 8.07422-10.06641 18.14063-10.25391 29.02735.0352-1.83594.16406-3.64453.39453-5.42969-.82031 1.21875-1.71484 2.40625-2.66406 3.54297-4.69141-8.11328-6.49609-17.20313-5.66016-25.9961.82813-8.73437 4.25391-17.17968 10.01954-24.07031 4.6914 8.11719 6.49609 17.21485 5.66015 26.00391-.0195.17969-.0391.35937-.0586.54687.80078-1.25 1.65234-2.45703 2.5625-3.625.83594-1.07422 1.71875-2.11718 2.64062-3.125-.35156-8.52343-2.9375-17.05859-7.95312-24.68359l-.0117-.008c-.24219-.35938-.24609-.375-.27344-.40625l-.008-.0156c-.19141-.27344.14062.21094-.13281-.19922l-1.71875-2.53906-2.13672 2.20313c-7.8711 8.10156-12.52735 18.57421-13.55469 29.44921-.98047 10.32032 1.29297 21.01563 7.16016 30.39844 3.21093-.82812 6.52343-1.34375 9.91015-1.5l3.05078-.13281-.46875 3.01562c-.008.043-.0156.0859-.0312.17188v.004c-.004.0351-.008.0664-.0117.0976 1.98828-.64062 3.92578-1.40625 5.78906-2.28515-.76953 1.1875-1.4961 2.42187-2.16016 3.69921 8.89844 1.17969 17.86328-.45312 25.69531-4.4414 7.875-4.00781 14.58985-10.40235 18.91797-18.70703-7.98437-1.05469-16.01953.15234-23.23828 3.29297 1.49219-2.12891 2.82813-4.375 3.96875-6.73047 7.4961-2.16407 15.53125-2.54688 23.4336-.90235l2.99609.6211-1.21094 2.80468c-.44531 1.03907-.35937.82032-.21875.49219-.0391.10156-.0703.17969-.0937.21094v-.004c-4.73047 10.50391-12.75 18.51563-22.29687 23.37891-9.73438 4.95703-21.0625 6.63672-32.1211 4.33203l-.7147-.14413c.47656-1.67578.87109-3.38672 1.17578-5.14063.0273-.17187.0508-.32421.0781-.47656zm19.67578-19.63281c5.42187-6.96875 8.77343-15.60938 9.16015-24.97656-8.55468 2.71875-15.97265 8.00781-21.36328 14.9414-5.41406 6.97266-8.77344 15.60938-9.15625 24.98047 8.55469-2.72656 15.97656-8.01172 21.35938-14.94531" fill-rule="evenodd"/><path d="m588.14062 336.31641c.82422-10.07813 4.77735-19.54297 11.0586-27.14844 6.82422-8.27344 16.39062-14.36328 27.65625-16.69531.20703-.043.39453-.0781.57031-.11329h.0117c.0781-.0156.12109-.0234.16797-.0312l3-.5625-.0391 3.05079c-.15625 11.29296-4.26172 21.99218-11.21485 30.41406-6.51172 7.88672-15.5039 13.78515-26.08984 16.34375 1.78125-.4336 3.52344-.95703 5.21484-1.57422-1.01172 1.07031-1.97265 2.19922-2.875 3.375 8.9375 2.8125 18.20703 2.58594 26.60547-.14844 8.34375-2.72265 15.83203-7.90625 21.29297-15.03125-8.94141-2.8125-18.20703-2.58203-26.60547.15235-.17187.0586-.34766.11718-.51953.17578 1.03906-1.05469 2.03125-2.15625 2.97656-3.29297.86719-1.05469 1.69141-2.13672 2.46875-3.26172 8.39844-1.51563 17.29688-.85156 25.82422 2.375l.0156.008c.40625.15625.41796.16406.45312.17578l.0156.004c.3125.12891-.23438-.0898.22265.0898l2.85156 1.1211-1.67968 2.5664c-6.1836 9.45313-15.39063 16.27735-25.78125 19.66016-10.1875 3.32031-21.52735 3.33203-32.29297-.74219l-.0117-.008c-.26563-.10156.0547.0195-.35156-.14063-.10938-.0391-.21875-.0898-.32813-.1289l-2.60156-1.01953c-2.10938-.13672-3.96094-1.66407-4.41406-3.83203-.14063-.70313-.125-1.40235.0312-2.0625l-1.09766-2.42188c-4.66016-10.28516-5.49609-21.71484-2.78516-32.28906 2.65625-10.375 8.73047-19.95703 17.94532-26.86328l-.004-.008c.0273-.0195.10156-.0703.19141-.13672-.29688.21484-.48438.34765.42968-.31641l2.46875-1.79297 1.26563 2.78906c3.32812 7.34766 4.70703 15.27735 4.23437 23.0625-2.04687 1.63672-3.95312 3.42188-5.69921 5.34766 1.48437-7.73047.90625-15.83594-1.86719-23.39453-7.15625 6.03515-11.92578 13.98047-14.1211 22.54297-2.17968 8.51172-1.8164 17.61718 1.27344 26.04687 1.10547-.92969 2.14844-1.90625 3.14063-2.92187-.48828 2.17187-.82422 4.39062-1.00782 6.63672zm14.90625-23.97657c5.61719-6.80468 13.32032-11.97265 22.3711-14.38672-.78516 8.9375-4.32422 17.33204-9.91797 24.10547-5.61719 6.80469-13.3125 11.97266-22.37109 14.39453.78515-8.94531 4.32421-17.33984 9.91796-24.11328" fill-rule="evenodd"/><path d="m536.39063 451.98047c-4.37501-9.1211-5.73438-19.28516-4.14844-29.01953 1.72265-10.58594 6.90625-20.67188 15.45703-28.36719.16016-.14844.30078-.26953.44141-.38672 0 0 .004-.004.004-.004.0586-.0547.0977-.0859.12891-.11328l2.30469-2.0039 1.50781 2.65625c5.55859 9.82812 7.41406 21.14062 5.65625 31.92187-1.64063 10.08594-6.42969 19.72656-14.28125 27.26953 1.32422-1.27734 2.5625-2.60547 3.71094-3.98437-.33204 1.42969-.58985 2.89062-.77735 4.35937 9.13672-2.08203 17.02344-6.95312 22.89063-13.55078 5.83593-6.55469 9.6875-14.8125 10.80859-23.72656-9.13672 2.08594-17.02344 6.96094-22.89844 13.5625-.12109.13281-.23828.27344-.35937.41016.37109-1.4375.67187-2.88672.90625-4.33985.21875-1.35156.38672-2.70312.49219-4.0625 6.48437-5.54687 14.49999-9.46484 23.49999-10.98437l.008.008c.43359-.0742.44922-.0742.48828-.0781h.0117c.32812-.0547-.25.0312.23828-.0391l3.03125-.47656-.16016 3.0625c-.57812 11.28516-5.07422 21.82031-12.33984 29.98437-7.12891 8.00782-16.91406 13.73438-28.26172 15.64844h-.0156c-.28125.0469.0586-.0117-.3711.0547-.11719.0195-.23437.0391-.35156.0547l-2.75781.43359c-1.89063.94141-4.26172.5625-5.74219-1.08203-.48047-.53125-.81641-1.14844-1.01563-1.79688l-2.16797-1.53515c-9.21512-6.53136-15.69949-15.98058-18.69559-26.48058-2.9414-10.30078-2.53125-21.62891 1.94141-32.24219h-.004c.0156-.0352.0469-.11719.0937-.21875-.14844.33594-.24219.54297.21094-.49219l1.22656-2.79687 2.49609 1.77344c6.58985 4.66797 11.77344 10.8125 15.29297 17.77734-.9414 2.44141-1.68359 4.94531-2.21875 7.48828-2.61718-7.42578-7.21093-14.1289-13.41406-19.25781-3.14062 8.82031-3.25 18.09375-.82031 26.58984 2.40625 8.44922 7.32031 16.13282 14.23828 21.84766.48047-1.35938.89453-2.73438 1.23437-4.10938.67969 2.125 1.50391 4.21094 2.48048 6.2461zm.77343-28.22266c1.41797-8.71875 5.46094-17.05469 12.0586-23.71875 3.83203 8.1211 5.01172 17.15625 3.59765 25.82031-1.41406 8.71875-5.45703 17.0586-12.05859 23.71875-3.82813-8.12109-5.00391-17.15625-3.59766-25.82031" fill-rule="evenodd"/><path d="m551.24219 388.32812c-.65235-10.09375 1.88281-20.03125 6.98828-28.47265 5.54687-9.17969 14.1289-16.59766 24.93359-20.54688.19922-.0742.375-.13281.54688-.1914.004-.004.004-.004.008-.004.0742-.0234.11719-.043.16406-.0586l2.89063-.99219.39843 3.02344c1.48829 11.20312-1.01171 22.3789-6.66406 31.72265-5.28906 8.75-13.33203 15.89844-23.43359 19.97266 1.70312-.6875 3.34766-1.46094 4.93359-2.31641-.84765 1.20703-1.6289 2.46094-2.35156 3.76172 9.25391 1.47656 18.38281-.0977 26.29687-4.03125 7.85938-3.90625 14.51563-10.125 18.87891-17.97265-9.25391-1.48047-18.38672.0977-26.29687 4.02734-.16797.0859-.32813.16797-.48829.25.875-1.19531 1.69922-2.42578 2.46094-3.69141.70703-1.16797 1.35938-2.35547 1.96875-3.58203 8.08985-2.72656 16.98438-3.36719 25.89844-1.41406l.0117.008c.42578.0937.4414.0977.48047.10547l.008.004c.32812.0781-.24219-.0547.24219.0547l2.98047.69532-1.28907 2.78125c-4.74609 10.25-12.85547 18.35156-22.64062 23.21093-9.59766 4.76563-20.81641 6.42969-32.05859 3.96094l-.0117-.004c-.28516-.0625.0586.0117-.36719-.0859-.11719-.0273-.23438-.0547-.35156-.0781l-2.71875-.6289c-2.10547.16797-4.16016-1.07032-4.92188-3.15235-.24609-.67187-.32812-1.37109-.27344-2.04297l-1.43359-2.23437c-6.10937-9.5-8.60156-20.68359-7.46094-31.54297 1.1211-10.65234 5.73047-21.01172 13.83985-29.1875l-.004-.004c.0234-.0312.0859-.0898.16406-.16406-.25781.25-.42187.41016.38282-.375l2.18359-2.14062 1.65234 2.57422c4.36719 6.78906 6.88672 14.42968 7.55078 22.20312-1.78515 1.91406-3.41015 3.96094-4.85937 6.11719.34766-7.86328-1.40625-15.79297-5.25391-22.8711-6.19922 7.01172-9.76562 15.57032-10.6875 24.35938-.91797 8.73828.77344 17.69531 5.0586 25.58203.95312-1.07812 1.84765-2.19531 2.67578-3.34766-.16016 2.21875-.17578 4.46875-.0312 6.71875zm11.25781-25.89453c4.5625-7.55468 11.42969-13.78515 20.03906-17.49609.52735 8.96094-1.75781 17.78516-6.30078 25.29297-4.57031 7.55469-11.42969 13.78515-20.03906 17.5-.51953-8.95703 1.75391-17.78125 6.30078-25.29688" fill-rule="evenodd"/><path d="m549.19922 518.02344c-7.76172-6.48438-13.20703-15.17188-15.80078-24.6875-2.82422-10.34375-2.28125-21.67188 2.30859-32.22657.0898-.19531.16016-.36718.23828-.52734 0-.004 0-.008.008-.008.0274-.074.0469-.117.0664-.15606l1.26953-2.77735 2.46875 1.79688c9.13672 6.64062 15.50782 16.16016 18.38282 26.69531 2.6875 9.86719 2.32031 20.6211-1.69532 30.74219 0-.004 0-.004 0-.004.67969-1.70312 1.25-3.42578 1.72266-5.16406.29297 1.44531.66016 2.875 1.10547 4.29688 7.44922-5.6836 12.60547-13.38672 15.21093-21.82422 2.59375-8.38672 2.67969-17.5.008-26.06641-7.45703 5.68359-12.61328 13.38672-15.21875 21.82422-.0547.17578-.10938.34766-.15625.52344-.26172-1.45313-.58594-2.89844-.97656-4.32813-.35938-1.3125-.77344-2.61719-1.23829-3.89453 3.60547-7.73828 9.27344-14.625 16.83203-19.73047l.01527-.00772c.35937-.24219.375-.24609.40625-.27344l.0117-.004c.27734-.17969-.21485.13671.19922-.13672l2.5664-1.67969 1.1211 2.85156c4.15625 10.50391 4.42578 21.96485 1.19531 32.40235-3.16406 10.23828-9.69531 19.50781-19.23047 25.95312l-.0117.004c-.23828.16406.0469-.0312-.3164.20703-.0977.0664-.19922.1289-.29688.19531l-2.33594 1.53516c-1.32812 1.64062-3.64062 2.27734-5.67187 1.39453-.66016-.28516-1.22266-.70313-1.67188-1.21094l-2.60546-.5c-11.09375-2.1289-20.91016-8.03515-27.98829-16.34765-6.94531-8.15625-11.26562-18.63671-11.59765-30.14843h-.004c-.004-.0391-.004-.12891-.004-.23438.004.35938.004.59375-.0117-.53515l-.0391-3.05469 3.0039.57422c7.92188 1.51953 15.19532 4.96875 21.28125 9.84375.15625 2.61328.51953 5.19531 1.08594 7.73437-5.46094-5.66797-12.41797-9.87109-20.19141-11.96875.80079 9.33203 4.54688 17.8125 10.27344 24.54297 5.69531 6.69141 13.35156 11.64453 22.01953 13.98047-.12891-1.4375-.32031-2.85938-.58203-4.25391 1.49609 1.65235 3.11328 3.20703 4.84375 4.65235zm-10.99219-26c-2.32031-8.51953-2.09765-17.78125 1.14844-26.58203 6.84766 5.80078 11.66406 13.53515 13.97266 22.00781 2.32031 8.51953 2.10156 17.78125-1.14844 26.58203-6.84766-5.80078-11.66406-13.53516-13.97266-22.00781" fill-rule="evenodd"/><path d="m678.94531 639.82031c-10.05078 1.17969-20.10156-.83594-28.79687-5.49219-9.45703-5.0625-17.3086-13.24218-21.8125-23.82812-.0859-.19922-.15235-.37109-.22266-.54297 0 0-.004-.004-.004-.004v-.004c-.0312-.0742-.0469-.11328-.0625-.15625l-1.14843-2.83203 3.0039-.5625c11.10157-2.06641 22.39453-.15235 32.02735 5.00781 9.01172 4.82812 16.57031 12.48828 21.16015 22.35937-.77734-1.66406-1.63672-3.26562-2.5664-4.80468 1.25.78125 2.54297 1.5 3.875 2.15625.99609-9.32032-1.05469-18.35547-5.39063-26.05078-4.30469-7.64844-10.86328-13.97266-18.92578-17.92579-1 9.32032 1.05078 18.36329 5.38672 26.0586.0859.15625.17969.3125.27344.47265-1.23438-.8125-2.51172-1.57031-3.8125-2.26562-1.20313-.64063-2.42969-1.23828-3.6836-1.78125-3.14453-7.93359-4.24218-16.78516-2.75781-25.78906l.004-.0117c.0742-.42969.0781-.44141.082-.48047l.004-.0156c.0664-.32812-.043.25.0469-.24218l.53516-3.01563 2.84765 1.14063c10.48438 4.21093 18.98828 11.88672 24.35156 21.40625 5.26172 9.34375 7.50391 20.45703 5.62891 31.8125l-.0117.0117c-.043.28125.0117-.0586-.0625.37109-.0195.11719-.043.23828-.0625.35156l-.48828 2.75c0 .0117.004.0274.004.043l18.125 7.64453-8.73047 3.96485-12-6.70704c-.0937.0469-.1875.0937-.28516.13282-.65625.28125-1.35156.40234-2.03125.3789l-2.15234 1.55078c-9.16797 6.59766-20.21094 9.66407-31.11328 9.08985-10.69922-.5625-21.28125-4.62891-29.86719-12.30469l-.008.004c-.0273-.0195-.0898-.082-.16797-.15625.26172.24218.43359.40625-.39453-.35938l-2.25-2.07031 2.48437-1.78906c6.55078-4.71094 14.05078-7.6211 21.78125-8.69141 2 1.68359 4.12891 3.19922 6.35938 4.53516-7.86719.0625-15.70313 2.22656-22.56641 6.4375 7.32422 5.82812 16.05469 8.9375 24.88281 9.40234 8.77344.46484 17.63282-1.6875 25.28907-6.375-1.13282-.89844-2.29688-1.73437-3.48829-2.5 2.22657.043 4.46875-.0586 6.71094-.32422zm-26.44531-9.89062c-7.78125-4.16407-14.35547-10.69922-18.51172-19.10157 8.92188-.99218 17.84766.82813 25.58594 4.97657 7.78515 4.16797 14.35937 10.70312 18.51562 19.10547-8.92187.98437-17.84765-.83594-25.58984-4.98047" fill-rule="evenodd"/><path d="m626.32812 610.03125c.004 0 .004 0 0 0-10.04687-1.14844-19.375-5.40625-26.77734-11.92188-8.04687-7.09375-13.82812-16.84765-15.79687-28.1875-.0391-.20703-.0625-.39453-.0937-.57421v-.004c-.0117-.0859-.0195-.12891-.0273-.17188l-.46484-3.01562 3.04687.13281c11.28516.52344 21.83985 4.96875 30.03907 12.1875 7.67187 6.76563 13.28125 15.94531 15.49218 26.60938 0-.008 0-.008 0-.008-.37109-1.79687-.83984-3.54687-1.40234-5.25781 1.03906 1.04688 2.13672 2.03906 3.28125 2.98047 3.09766-8.84375 3.16406-18.11328.70312-26.59375-2.44531-8.43359-7.38671-16.08203-14.33593-21.76953-3.09766 8.84375-3.16797 18.11719-.70313 26.60156.0547.16797.10547.34375.15625.51953-1.01953-1.07422-2.08203-2.10547-3.1914-3.08203-1.02735-.89844-2.08594-1.76172-3.17969-2.57031-1.2461-8.44531-.29688-17.31641 3.20312-25.73828l.0117-.0117c.16406-.39844.17578-.41406.1875-.45313l.0117-.008c.13281-.30859-.10547.23438.0937-.22656l1.21094-2.8125 2.50781 1.76562c9.25 6.48829 15.77734 15.90625 18.82422 26.39844 2.85156 9.81641 2.66016 20.57813-1.19531 30.76563-2.67188.0508-5.35157.3125-8.02735.8125l-3.0039.5625 1.14843 2.83203c.0156.043.0312.082.0625.15625v.004s.004.004.004.004c.0703.17188.13672.34375.22266.54297.59765 1.41016 1.26172 2.77734 1.97656 4.10547-.13672-.0234-.27344-.0508-.40625-.0899l-2.45703 1.01954c-10.4336 4.32421-21.87891 4.78906-32.36328 1.74218-10.28907-2.99218-19.66407-9.36328-26.27344-18.80078-.0234-.0273-.0742-.0937-.13281-.1875.20312.29688.33203.49219-.30078-.4414l-1.71485-2.52735 2.82031-1.17187c7.45704-3.09375 15.42579-4.21094 23.19532-3.49219 1.5664 2.10156 3.28906 4.05859 5.15625 5.86719-7.67578-1.73047-15.79688-1.41407-23.44141 1.10937 5.80078 7.35547 13.59375 12.375 22.07813 14.84375 8.43359 2.45313 17.55078 2.38281 26.07421-.43359-.89062-1.13281-1.83593-2.21094-2.82031-3.23047 2.15625.55469 4.36328.96484 6.60156 1.21875zm-23.48437-15.66797c-6.625-5.83594-11.53125-13.69922-13.66016-22.82812 8.91016 1.07421 17.1875 4.88281 23.77344 10.6875 6.62891 5.83593 11.53906 13.69921 13.66797 22.82812-8.91016-1.07422-17.19141-4.88281-23.78125-10.6875" fill-rule="evenodd"/><path d="m583.67578 569.44531c-9.45703-3.04687-17.66016-8.90625-23.61328-16.5664-6.58203-8.47266-10.4375-19.13672-10.25391-30.64063 0-.21484.0117-.40234.0156-.58203 0 0 0-.004 0-.008.004-.0781.004-.12891.004-.17188l.10937-3.05078 2.96875.70703c10.98438 2.61719 20.53125 8.96094 27.23047 17.58203 6.27344 8.07422 10.0664 18.14063 10.2539 29.02735-.0352-1.83594-.16796-3.64453-.39843-5.42969.82812 1.21875 1.71484 2.40625 2.66797 3.54297 4.69921-8.11328 6.49609-17.20313 5.66015-25.9961-.83203-8.73437-4.2539-17.17968-10.01562-24.07031-4.69532 8.11719-6.5 17.21485-5.66407 26.00391.0195.17969.0391.35937.0586.54687-.80078-1.25-1.65625-2.45703-2.5625-3.625-.83594-1.07422-1.71875-2.11718-2.64453-3.125.35156-8.52343 2.9414-17.05859 7.95703-24.68359l.008-.008c.24609-.35938.25-.375.27344-.40625l.0117-.0156c.1875-.27344-.14063.21094.13672-.19922l1.71484-2.53906 2.13672 2.20313c7.87109 8.10156 12.52344 18.57421 13.55859 29.44921.97656 10.32032-1.29687 21.01563-7.16797 30.39844-3.20703-.82812-6.52343-1.34375-9.90625-1.5l-3.04687-.13281.46484 3.01562c.008.043.0156.0859.0273.17188v.004c.004.0351.0117.0664.0156.0976-1.98828-.64062-3.92578-1.40625-5.79297-2.28515.77735 1.1875 1.5 2.42187 2.16406 3.69921-8.89843 1.17969-17.86718-.45312-25.6914-4.4414-7.88281-4.00781-14.59766-10.40235-18.92188-18.70703 7.98438-1.05469 16.01954.15234 23.24219 3.29297-1.5-2.12891-2.82812-4.375-3.97265-6.73047-7.4961-2.16407-15.53516-2.54688-23.4336-.90235l-3 .6211 1.21485 2.80468c.45312 1.03907.35937.82032.21875.49219.039.10156.0703.17969.0898.21094v-.004c4.73046 10.50391 12.75391 18.51563 22.30078 23.37891 9.73047 4.95703 21.05859 6.63672 32.125 4.33203l.71094-.14453c-.47657-1.67578-.875-3.38672-1.17578-5.14063-.0273-.17187-.0547-.32421-.0781-.47656zm-19.67578-19.63281c-5.42187-6.96875-8.77734-15.60938-9.16406-24.97656 8.55469 2.71875 15.97265 8.00781 21.36328 14.9414 5.41797 6.97266 8.77734 15.60938 9.16015 24.98047-8.55468-2.72656-15.97656-8.01172-21.35937-14.94531" fill-rule="evenodd"/><path d="m718.46484 186.92969 13.47657 35.125h46.09765 8.3125l-6.93359 4.57812-36.47266 24.08594 14.07031 36.67188 2.79688 7.29296-6.50781-4.32422-35.07813-23.3164-.30859.20703-.0586-.0391-35.04687 23.14843-6.14063 4.05079 2.39844-6.94141 13.125-38.00781-33.03906-22.85938-6.57813-4.54687h7.99219 41.09375l12.10547-35.05078 2.23438-6.48047 2.46093 6.40625zm9.42969 38.51172-11.64062-30.33204-10.44922 30.25391-.58203 1.69141h-1.78125-34.8711l28.01953 19.38281 1.5625 1.08594-.61328 1.77343-11.34375 32.84376 30.31641-20.01954 1.40234-.92578.0586.0391.26171-.17969 1.375.91406 29.94141 19.90234-11.98828-31.23828-.71875-1.86719 1.67578-1.10156 31.20703-20.60937h-39.5-1.71094"/><path d="m704.49609 234.75781c1.69141 0 3.0625 1.375 3.0625 3.0625s-1.37109 3.0625-3.0625 3.0625c-1.68359 0-3.0625-1.375-3.0625-3.0625s1.37891-3.0625 3.0625-3.0625" fill-rule="evenodd"/><path d="m719.32422 234.75781c1.68359 0 3.05859 1.375 3.05859 3.0625s-1.375 3.0625-3.05859 3.0625c-1.6875 0-3.0586-1.375-3.0586-3.0625s1.3711-3.0625 3.0586-3.0625" fill-rule="evenodd"/><path d="m734.43359 234.75781c1.6836 0 3.0586 1.375 3.0586 3.0625s-1.375 3.0625-3.0586 3.0625c-1.6914 0-3.0625-1.375-3.0625-3.0625s1.3711-3.0625 3.0625-3.0625" fill-rule="evenodd"/><path d="m956.85547 427.18359c8.35937 16.39453 14.86328 33.8086 19.2539 52.01172 4.26563 17.69531 6.52344 36.05078 6.52344 54.83594 0 68.33984-29.60156 130.36719-77.34375 175.29687-47.66406 44.85938-113.41406 72.67188-185.82031 72.67188-72.41016 0-138.16406-27.8125-185.82813-72.67188-47.74218-44.92968-77.34375-106.95703-77.34375-175.29687 0-18.78516 2.25782-37.14063 6.52344-54.83594 4.39063-18.20312 10.89844-35.61719 19.25391-52.01172l14.14453-27.75781-4.75 30.78516c-.77734 5.01562-1.375 10.20312-1.78906 15.55468-.40235 5.27344-.61328 10.47657-.61328 15.59375 0 59.58594 25.83203 113.6875 67.49609 152.89454 41.74609 39.29296 99.38281 63.64843 162.90625 63.64843 63.51562 0 121.14844-24.35547 162.89844-63.64843 41.66406-39.20704 67.49609-93.3086 67.49609-152.89454 0-5.11718-.21094-10.32031-.61719-15.59375-.41015-5.35156-1.01172-10.53906-1.78515-15.55468l-4.75-30.78516zm9.5664 54.35547c-1.8125-7.50781-4.01171-14.89062-6.57031-22.1289.0117.65234.0117 1.30078.0117 1.94921 0 62.44141-27.04297 119.10938-70.66016 160.16016-43.53906 40.97656-103.60156 66.38281-169.73437 66.38281-66.14063 0-126.20313-25.40625-169.74219-66.38281-43.61718-41.05078-70.66015-97.71875-70.66015-160.16016 0-.64843.004-1.29687.0117-1.94921-2.5625 7.23828-4.75782 14.62109-6.57032 22.1289-4.0625 16.84766-6.21093 34.41406-6.21093 52.49219 0 65.48437 28.39062 124.94141 74.17968 168.03125 45.87112 43.17187 109.19924 69.9375 178.99221 69.9375 69.78125 0 133.11328-26.76563 178.98437-69.9375 45.78907-43.08984 74.17969-102.54688 74.17969-168.03125 0-18.07813-2.14844-35.64453-6.21094-52.49219"/><path d="m725.35937 534.96875c-1.54687-2.1875-3.5625-4.32813-5.85156-6.47656-1.75781-1.65625-3.74219-3.35938-5.80859-5.10547.0547 1.13281.10937 2.26172.16015 3.39453l.20313 4.18359-2.46094-3.39453c-1.92969-2.66015-3.9375-5.27734-6.0625-7.82812-1.71875-2.0586-3.48828-4.04688-5.32812-5.92578-.10547.23437-.21094.47265-.3125.70703-.34766.79687-.69532 1.59375-1.04688 2.38281l-.86328 1.98437-1.28516-1.74609c-.66406-.89844-1.42187-1.80078-2.28125-2.70312-.45703-.48829-.9414-.97266-1.44921-1.45704-.27735.75-.6211 1.49219-1.01563 2.22657-.73828 1.36718-1.67969 2.73047-2.82812 4.08593l-.63282.75391-.875-.44141c-1.53515-.75781-3.2539-1.42968-5.16797-2.0039-1.52734-.46094-3.17578-.85547-4.94921-1.19922v3.50781c1.38281.95313 2.4375 1.91797 3.17578 2.89844.92578 1.24219 1.35937 2.5 1.29687 3.78516l-.0352.70703-.62891.33593c-.9375.4961-1.87109 1-2.80859 1.4961 2.09765 1.6914 4.18359 3.38672 6.28125 5.07422l.74609.60547-.38672.87109c-.47266 1.06641-.94922 2.14062-1.42578 3.21094 3.68359-.58594 7.08984-.7461 10.21484-.5 3.83203.3125 7.26953 1.25781 10.3086 2.82812l1.29687.67188-.86328 1.17578c-.48828.66406-.97656 1.33203-1.46875 2 3.44922-.51563 6.96484-.83203 10.46484-.8711 3.53907-.0469 7.07813.19532 10.55079.80469.0976-1.58203.33203-3.11719.5625-4.64844.0195-.1289.0391-.25781.0586-.39062.10547-1.05469.23828-2.10938.39062-3.17578.0195-.12891.0391-.26172.0586-.39453.0351-.47266.0586-.95313.0664-1.42969zm11.51954-18.8125c.21484.0117.42968.0234.64453.0391h.004c1.88672.11719 3.79297.31641 5.73828.59766 2.01563.30078 3.77344.85547 5.55079 1.42187 2.53906.80078 5.13671 1.625 8.46875 1.61328 3.71093-.0234 9.30078-2.35546 13.5-5.76953 3.30078-2.68359 5.68359-6 5.39453-9.2539-.25-2.85157-1.14844-5.22266-2.8125-6.9375-1.57032-1.60938-3.85547-2.6836-6.96875-3.08985-2.44922-.32422-4.36719.3125-6.28125.94922-1.05469.34375-2.10938.69531-3.32032.92188l-2.11718.39843.70312-2.03125c.34375-.99218.81641-1.94531 1.28516-2.90625.82422-1.66796 1.65625-3.33593 1.54297-5.01171-.1875-2.90625-1.78516-6.10547-4.07032-8.55079-2.12109-2.26171-4.80078-3.84765-7.45703-3.90234-6.69922-.13672-10.29687 6.41797-12.65625 10.70703-.30078.55469-.58593 1.06641-.875 1.57031l-.7539 1.3086-1.14453-.9961c-1.1836-1.03125-3.47266-2.38281-5.96485-2.9414-1.6914-.375-3.46484-.37891-4.98828.37109-6.91406 3.39844-7.28516 9.25-7.64062 14.96094-.0547.83594-.10547 1.67187-.21485 2.86719-.082.85937-.082 1.69922-.0156 2.51562.19531 2.40235 1.05468 4.27735 2.39062 5.57813 1.33985 1.3125 3.17578 2.08593 5.31641 2.28906.6914.0625 1.44922.0625 2.26953-.008 2.875-.23438 4.51172.60156 6.36328 1.625.125-.32032.27344-.64844.44141-.98047.82031-4.16016 3.58984-7.15235 7.23828-9.61719.5664 3.98438.75781 8.05469.42969 12.26172zm-12.09766 37.03125c-.18359-1.85156-.28125-3.72266-.30078-5.59766-3.50391-.66797-7.13281-.93359-10.78125-.88672-4.42188.0508-8.83985.55079-13.08203 1.32813l-3.08594.5625 1.85937-2.52734c.79297-1.08204 1.58985-2.16797 2.38282-3.25391-2.39453-1.03125-5.07422-1.66797-8.03516-1.90625-3.56641-.29297-7.52734 0-11.875.86719l-2.36719.46875.98047-2.19532c.66406-1.5 1.33594-3 2-4.5-2.33594-1.88281-4.67187-3.76562-7.0039-5.65234l-1.46485-1.18359 1.66016-.88672c1.25-.66406 2.5039-1.33203 3.7539-2.00391-.10156-.49219-.34375-.99219-.73437-1.51172-.65234-.87109-1.69141-1.76172-3.10938-2.67578l-.57421-.375v-.67578-5.66406-1.47266l1.45703.24219c2.4375.40625 4.67578.91406 6.70703 1.52344 1.69531.50781 3.24609 1.08593 4.66406 1.73437.76172-.97656 1.40625-1.94531 1.92578-2.91406.64063-1.19141 1.10156-2.38281 1.375-3.5625l.46094-2.01563 1.57031 1.35157c1.125.97265 2.14844 1.94531 3.06641 2.91406.41015.43359.80078.86328 1.17187 1.29687.0664-.16406.13672-.32812.20703-.48828.34766-.79687.69532-1.58984 1.04688-2.38281l.72266-1.65625 1.29296 1.26563c2.41407 2.36328 4.66407 4.83984 6.79297 7.38671 1.26172 1.50782 2.48828 3.0625 3.69922 4.65625-.0312-.71875-.0664-1.4375-.10156-2.15625l-.13672-2.85937 2.19141 1.84375c2.82031 2.36719 5.55859 4.66406 8.09765 7.05078 1.8125 1.69922 3.46094 3.40234 4.88282 5.14453.76953-3.78906 1.80078-7.625 3.0625-11.48437-.58594-1.00782-.92579-2.09375-.91407-3.28907-.15625-.082-.3125-.17187-.46875-.2539-1.57422-.8711-2.90234-1.60938-5.16797-1.42578h-.004c-.89453.0742-1.79688.0703-2.69531-.0156-2.71485-.25-5.07813-1.26562-6.83985-2.98437-1.76172-1.73047-2.89453-4.13282-3.14453-7.15625-.0742-.88672-.0625-1.86719.0391-2.94532.0625-.67187.12891-1.73437.19532-2.80078.40234-6.42187.8164-13.0039 9.04687-17.04687 2.08984-1.02735 4.42578-1.04297 6.61719-.55469 2.24609.50391 4.35937 1.55078 5.85937 2.57422.0508-.0937.10157-.1875.15625-.28516 2.64453-4.82031 6.69141-12.17187 14.89453-12.00781 3.375.0703 6.6875 1.98047 9.23047 4.69141 2.66016 2.84765 4.52344 6.61718 4.7461 10.10547.15234 2.3164-.82422 4.29687-1.80469 6.27343-.0547.11328-.10938.21875-.16406.32813.19531-.0664.39843-.12891.58593-.19141 2.1836-.72265 4.36329-1.4414 7.39844-1.04687 3.69531.48047 6.46875 1.8125 8.42969 3.82422 2.10156 2.16406 3.23047 5.05078 3.53125 8.46484.35937 4.18359-2.43359 8.23047-6.32813 11.39844-4.60937 3.74609-10.85546 6.3125-15.0664 6.33593-3.71875.0117-6.50391-.86718-9.22656-1.73046-1.69141-.53516-3.35547-1.06641-5.16016-1.32813-1.82422-.27344-3.66406-.45703-5.53125-.57422h-.004c-.46875-.0312-.9375-.0547-1.40234-.0742-1.15625 1.27344-2.71875 2.14453-4.52344 2.76953-1.66406 5.16016-2.91406 10.24219-3.66797 15.23438-.0976 1.26172-.27734 2.5-.46484 3.72656-.42188 4.27344-.45703 8.47266-.0547 12.58985"/><path d="m691.21875 512.07812c-3.22266-6.10937-7.26563-15.17187-11.38672-24.41406-5.49609-12.32812-11.13672-24.97656-14.76953-30.99609-1.08594 3.25-2.13281 7.58984-3.23438 12.14844-1.84765 7.66015-3.83984 15.91796-6.54687 21.09765l-3.30859 6.34766.96484-7.08985c.40234-2.91406.16406-7.20703-.0937-11.79687-.67188-12.17188-1.45703-26.35938 8.94141-26.82031.71484-.0312 1.55468.49218 2.48828 1.47265.39843-.78125.8125-1.42578 1.25-1.91406 1.45312-1.625 3.03515-1.89453 4.8164-.29687 9.79688 8.75 14.23438 22.80859 18.67578 36.89453 2.84375 9.01562 5.69141 18.04297 9.92969 25.54687l1.21485 2.15625-2.45704-.30469c-.78125-.0976-1.86718-.41406-2.95703-.72656-.97265-.28515-1.94922-.57031-2.57422-.64844l-.64843-.082-.30469-.57422zm-9.10938-25.42968c3.97266 8.91406 7.87891 17.66015 11.03516 23.72656.67578.14062 1.48438.375 2.28906.60937-3.64453-7.17187-6.22656-15.35156-8.80078-23.52343-4.33984-13.75391-8.67187-27.47657-17.96094-35.78125-.46484-.41407-.89062-.33594-1.28515.10547-.47266.53515-.9375 1.35156-1.38672 2.39062 4.39453 6.21484 10.32812 19.51172 16.10937 32.47266zm-18.76953-32.51172c-.58984-.71485-1.08203-1.09766-1.44531-1.08203-7.86719.35156-7.16016 13.17968-6.55078 24.18359.10547 1.80859.20312 3.56641.25781 5.23047 1.41406-4.32031 2.64063-9.39844 3.80469-14.23828 1.30469-5.40235 2.53906-10.50781 3.93359-14.09375"/></g><g stroke-miterlimit="10" stroke-width="2.500125"><path d="m702 427.86329c-.33204 3.9414-1.56641 6.42187-4.70313 10.13671-2.69531 2.11719-7.20312 3.92579-7.83984 1.87891-1.5664-2.33985 2.16406-6.32422 3.53124-7.60156 2.34767-2.19141 5.66407-3.61329 9.01173-4.41406zm0 0" fill="#fff" fill-rule="evenodd" stroke="#eb1923"/><path d="m702 427.86329c-.33204 3.9414-1.56641 6.42187-4.70313 10.13671-2.69531 2.11719-7.20312 3.92579-7.83984 1.87891-1.5664-2.33985 2.16406-6.32422 3.53124-7.60156 2.34767-2.19141 5.66407-3.61329 9.01173-4.41406zm0 0" fill="#fff" fill-rule="evenodd" stroke="#eb1923"/><g stroke="#fff"><path d="m693.17969 419.28516c1.74218 3.54296 1.95702 6.3125 1.18358 11.10546-1.21875 3.21094-4.15233 7.08204-5.75 5.65235-2.55077-1.19922-1.40233-6.53516-.89062-8.33203.87891-3.09375 2.9961-6.01563 5.45704-8.42578zm0 0" fill="#004226" fill-rule="evenodd"/><path d="m702 427.86329c-.33204 3.9414-1.56641 6.42187-4.70313 10.13671-2.69531 2.11719-7.20312 3.92579-7.83984 1.87891-1.5664-2.33985 2.16406-6.32422 3.53124-7.60156 2.34767-2.19141 5.66407-3.61329 9.01173-4.41406zm0 0" fill="#004226" fill-rule="evenodd"/><path d="m703.03906 434.96875c-.32812 3.9375-1.56641 6.42187-4.69922 10.13672-2.69532 2.11719-7.20703 3.92578-7.84375 1.8789-1.5664-2.33983 2.16406-6.32421 3.53125-7.60156 2.34766-2.19921 5.66406-3.61327 9.01172-4.41406zm0 0" fill="#004226" fill-rule="evenodd"/><path d="m704.77344 442.58985c-.33204 3.9414-1.56641 6.42187-4.70313 10.13671-2.69531 2.125-7.20312 3.92579-7.83985 1.88281-1.5664-2.33593 2.16406-6.32812 3.53125-7.60156 2.34766-2.19531 5.66016-3.61327 9.01173-4.41796zm0 0" fill="#004226" fill-rule="evenodd"/><path d="m706.68359 450.5625c-.33594 3.94141-1.57422 6.42187-4.70703 10.13673-2.69531 2.12108-7.20703 3.92187-7.84375 1.87889-1.56641-2.33593 2.16406-6.32031 3.53125-7.60156 2.35156-2.19531 5.66406-3.61327 9.01953-4.41406zm0 0" fill="#004226" fill-rule="evenodd"/><path d="m708.24219 458.53125c-.33204 3.94141-1.57423 6.42187-4.70704 10.13673-2.69531 2.12108-7.20703 3.92577-7.83984 1.87889-1.56641-2.33593 2.16406-6.32031 3.53125-7.60156 2.34375-2.19531 5.66015-3.61327 9.01563-4.41406zm0 0" fill="#004226" fill-rule="evenodd"/><path d="m709.28125 466.5c-.33204 3.94141-1.57031 6.42187-4.70704 10.13673-2.69531 2.12499-7.20702 3.92577-7.83594 1.88671-1.5664-2.33984 2.15625-6.32813 3.52344-7.60157 2.34766-2.19921 5.66406-3.61718 9.01954-4.42187zm0 0" fill="#004226" fill-rule="evenodd"/><path d="m710.32031 474.28125c-.33203 3.9375-1.57031 6.41797-4.70703 10.13281-2.69532 2.1211-7.20703 3.92969-7.83594 1.88281-1.5664-2.33983 2.16016-6.32421 3.52735-7.60156 2.34765-2.19531 5.66406-3.61719 9.01562-4.41406zm0 0" fill="#004226" fill-rule="evenodd"/><path d="m712.75 481.05469c-.33985 3.94141-1.57422 6.42187-4.71094 10.14062-2.69531 2.11719-7.20312 3.92188-7.83985 1.87892-1.5664-2.33986 2.16406-6.32423 3.53125-7.60548 2.34766-2.1914 5.66406-3.60938 9.01954-4.41406zm0 0" fill="#004226" fill-rule="evenodd"/><path d="m679.14844 417.80469c3.53906 1.75781 5.39843 3.82422 7.69531 8.10547.98437 3.28515.99609 8.14453-1.13281 7.98438-2.75391.59375-5.08594-4.33985-5.76954-6.08204-1.18359-2.99219-1.28125-6.59375-.79296-10.00781zm0 0" fill="#004226" fill-rule="evenodd"/><path d="m677.01562 432.53125c3.89844.66406 6.26563 2.10547 9.70313 5.54297 1.88281 2.86328 3.30077 7.51172 1.21094 7.97265-2.46094 1.36329-6.11719-2.69139-7.27735-4.16015-1.99219-2.52343-3.12109-5.94922-3.63672-9.35547zm0 0" fill="#004226" fill-rule="evenodd"/><path d="m679.4375 441.53906c3.90234.66406 6.26953 2.10938 9.70703 5.54688 1.88672 2.86329 3.30078 7.51172 1.21093 7.96875-2.46093 1.36328-6.11719-2.6875-7.27733-4.16015-1.99219-2.52344-3.125-5.94532-3.64063-9.35548zm0 0" fill="#004226" fill-rule="evenodd"/><path d="m681 450.89454c3.89844.66406 6.26562 2.10937 9.70312 5.54687 1.88282 2.86328 3.30078 7.51171 1.21094 7.96875-2.46094 1.36328-6.11719-2.6836-7.27735-4.16016-1.99219-2.52344-3.12109-5.9414-3.63671-9.35546zm0 0" fill="#004226" fill-rule="evenodd"/><path d="m683.42577 460.77344c3.89844.66406 6.26563 2.10937 9.70313 5.54297 1.88672 2.86328 3.30079 7.51171 1.21094 7.97265-2.46094 1.36329-6.11719-2.6914-7.27734-4.16015-1.99219-2.52344-3.125-5.94922-3.63673-9.35547zm0 0" fill="#004226" fill-rule="evenodd"/><path d="m685.5 470.12891c3.90234.66406 6.27344 2.10938 9.71094 5.54688 1.88281 2.86327 3.29687 7.51171 1.21093 7.96875-2.46093 1.36327-6.1211-2.69142-7.27734-4.16017-1.99219-2.52343-3.125-5.94531-3.64453-9.35546zm0 0" fill="#004226" fill-rule="evenodd"/><path d="m688.79687 479.85156c3.89844.66406 6.26563 2.10938 9.70313 5.54688 1.88281 2.86718 3.30078 7.51562 1.21094 7.96875-2.46094 1.36718-6.11719-2.6875-7.27344-4.15625-1.99219-2.53125-3.1211-5.94532-3.64063-9.35938zm0 0" fill="#004226" fill-rule="evenodd"/><path d="m690.35546 488.15235c3.89454.66406 6.26563 2.10546 9.70313 5.54296 1.88281 2.86329 3.30469 7.51173 1.21485 7.96875-2.46485 1.36719-6.125-2.6875-7.28125-4.15625-1.98438-2.52344-3.11719-5.94921-3.63673-9.35546zm0 0" fill="#004226" fill-rule="evenodd"/><path d="m693.09375 419.72266 3.02344-10.2461" fill="none"/><path d="m679.66406 418.88281-1.51562-16.29296" fill="none"/><path d="m669.75 423.58594 8.0625 9.57031" fill="none"/><path d="m718.96094 483.87891c-11.8125-31.57812-11.25-92.33985-35.77344-92.20704-7.63281.29688-10.61719 6.26954-11.59375 11.25392 2.0625-2.75782 3.50781-3.83985 7.89844-6.21485" fill="none"/><path d="m704.28906 392.34375c-6.66406-1.45313-14.10156-.082-19.86719 2.04687" fill="none"/><path d="m714.08984 465.40235c1.36718-16.75391.42968-38.66798-1.33984-55.41798" fill="none"/><path d="m719.75 413.94531c-3.26563-17.89844-14.875-39.61327-20.82813-39.94921-8.53906 2.94531-12.12109 12.48046-13.90625 23.86328-.75781-7-3.54297-13.88282 3.79297-21.33594 9.54297-2.52344 22.9336 27.5625 31.76172 58.15625" fill="none"/><path d="m717.72656 479.5625c6.32421-17.03906 11.04296-42.14063 20.54296-43.30078 9.96094.35157 10.9336 14.10157 15.64454 23.70703-.42187-8.21094.68359-22.55469-4.58594-22.75781-3.36328.32031-22.67968 32.26562-30.02343 45.98437" fill="none"/><path d="m723.57421 461.07031c.95704-22.58594 12.83594-53.11718 20.38673-53.41406 5.94531.28906 9.23046 7.58594 13.42968 22.75781-.23437-6.84375 4.71094-18.96875-2.21093-20.22656-12.69923-.45312-17.96094 13.75781-27.02344 38.875" fill="none"/><path d="m716.48437 475.42187c3.85157-34.39452 4.50782-82.67968 22.29688-82.51562 7.44921.41406 17.98437 14.15235 23.53125 23.22266-2.60156-9.44922.80469-21.76954-18.1875-20.14062-13.92188.25781-16.07422 43.20702-21.88281 70.28906" fill="none"/><path d="m718.53906 429.02344c.68359-20.59765 6.71094-55.98828 19.69531-56.19532 5.40625.19142 9.53907 16.14454 12.74609 25.25782-.35156-7.68359 5.6836-23.36328-4.63281-23.05469-6.51563-.20313-18.67578 20.16406-21.55469 34.17969" fill="none"/><path d="m780.51562 453.09766c-3.35156-.15235 5.82032-9.1836 10.11328-12.79297 5.35156-4.49609 15.05469-8.66407 17.20704-8.30078 1.625.27344-5.28125 11.44531-9.94141 15.04296-5.11719 3.95313-12.75391 6.26173-17.37891 6.05079zm0 0" fill="#004226" fill-rule="evenodd"/><path d="m808.02734 432.00391 5.34766-3.25391" fill="none"/><path d="m791.28906 450.10937c-1.03125 3.19923-7.32031-8.03906-9.66797-13.13281-2.92188-6.35156-4.375-16.80859-3.46484-18.78515.69531-1.5 9.64453 8.11328 11.88671 13.55859 2.45704 5.97656 2.67188 13.95312 1.2461 18.35937zm0 0" fill="#004226" fill-rule="evenodd"/><path d="m778.21094 418.00391-1.72657-6.01562" fill="none"/><path d="m786.41015 459.40625c-1.03125 3.19922-7.32421-8.03906-9.67188-13.13281-2.92187-6.35157-4.375-16.80859-3.45702-18.78515.6914-1.5 9.64062 8.12108 11.8789 13.55858 2.46094 5.97657 2.67187 13.95313 1.25 18.35938zm0 0" fill="#004226" fill-rule="evenodd"/><path d="m773.32812 427.30469-1.72266-6.01563" fill="none"/><path d="m780.82812 467.77344c-1.03125 3.19922-7.32031-8.03515-9.66797-13.13282-2.92578-6.34765-4.3789-16.80468-3.46094-18.78514.69141-1.49611 9.64454 8.11718 11.88673 13.55858 2.45312 5.97656 2.66796 13.95704 1.24218 18.35938zm0 0" fill="#004226" fill-rule="evenodd"/><path d="m767.7539 435.67187-1.73046-6.01562" fill="none"/><path d="m776.8789 476.14454c-1.03125 3.1914-7.32421-8.04298-9.66796-13.13673-2.92579-6.34375-4.37892-16.80469-3.46094-18.78906.6914-1.49219 9.64062 8.1211 11.88281 13.56641 2.45703 5.97656 2.66796 13.94921 1.24609 18.35938zm0 0" fill="#004226" fill-rule="evenodd"/><path d="m763.79687 444.03906-1.72266-6.01562" fill="none"/><path d="m772.46484 485.20704c-1.03515 3.19921-7.32422-8.03517-9.67188-13.13673-2.92187-6.34375-4.375-16.80469-3.45702-18.78125.6875-1.5 9.64062 8.11719 11.8789 13.5625 2.46094 5.97656 2.67187 13.95313 1.25 18.35548zm0 0" fill="#004226" fill-rule="evenodd"/><path d="m759.38281 453.10937-1.72656-6.01562" fill="none"/><path d="m767.11719 492.1836c-1.03516 3.19531-7.32423-8.04298-9.67188-13.13673-2.92187-6.35156-4.375-16.80858-3.45703-18.78515.69141-1.4961 9.64453 8.12109 11.87891 13.56251 2.46093 5.97656 2.67187 13.94921 1.25 18.35937zm0 0" fill="#004226" fill-rule="evenodd"/><path d="m754.03906 460.07812-1.72656-6.01562" fill="none"/><path d="m775.86719 463.32812c-3.35156-.15233 5.82031-9.1875 10.11327-12.79687 5.35157-4.49219 15.05469-8.66406 17.20704-8.30469 1.625.27344-5.28125 11.44531-9.94141 15.04688-5.11719 3.94922-12.7539 6.25781-17.3789 6.05468zm0 0" fill="#004226" fill-rule="evenodd"/><path d="m803.3789 442.23437 5.33985-3.25781" fill="none"/><path d="m771.44921 472.85937c-3.35546-.15233 5.82032-9.19139 10.11719-12.79687 5.35156-4.5 15.05469-8.66406 17.20312-8.30469 1.62501.27344-5.28515 11.44531-9.9414 15.04688-5.11328 3.94922-12.75 6.25781-17.37891 6.05468zm0 0" fill="#004226" fill-rule="evenodd"/><path d="m798.96094 451.75781 5.34375-3.25" fill="none"/><path d="m780.29296 455.70312c-2.91796 1.66407.0113-10.87108 1.71875-16.21875 2.1211-6.66015 8.09766-15.35937 10.11329-16.20702 1.52344-.63673 1.64452 12.49609-.375 18.02734-2.21094 6.07031-7.4336 12.10547-11.45704 14.39843zm0 0" fill="#004226" fill-rule="evenodd"/><path d="m792.28515 423.17969 2.78125-5.60938" fill="none"/><path d="m777.96094 470.20312c-2.66798 2.03517-1.42188-10.78125-.44142-16.30468 1.21876-6.8789 5.98829-16.29688 7.87501-17.40234 1.42187-.83594 3.28516 12.16796 2.01953 17.91796-1.39062 6.3125-5.76953 12.98048-9.45312 15.78906zm0 0" fill="#004226" fill-rule="evenodd"/><path d="m785.53906 436.375 2.01953-5.92188" fill="none"/><path d="m787.07421 471.57031 5.7461-2.48046" fill="none"/><path d="m780.33202 482.02735 5.7461-2.48048" fill="none"/><path d="m754.9375 471.96875c-3.77344-.42187-5.65235-3.49219-7.25781-6.93359" fill="none"/><path d="m749.28906 473.90235.64844-4.51173" fill="none"/><path d="m696.5625 363.10156c2.5625.0781 4.14452 2.45704 6.69921 2.45313m-6.69921-2.45313c2.5625.0781 4.14452 2.45704 6.69921 2.45313m-6.69921-2.45313c-2.5625.0781-4.14844 2.45704-6.69531 2.45313m-6.69923-2.45313c2.5625.0781 4.14454 2.45704 6.69923 2.45313m-6.69923-2.45313c-2.5625.0781-4.14452 2.45704-6.69531 2.45313m-6.69921-2.45313c2.57031.0781 4.15233 2.45704 6.69921 2.45313m-6.69921-2.45313c-2.5625.0781-4.14454 2.45704-6.69531 2.45313m-6.69532-2.45313c2.5664.0781 4.14844 2.45704 6.69532 2.45313m46.87499-2.45313c-2.5625.0781-4.14453 2.45704-6.69141 2.45313m6.69141-2.45313c2.56641.0781 4.14844 2.45704 6.70313 2.45313m6.6914-2.45313c-2.5625.0781-4.14452 2.45704-6.6914 2.45313m6.6914-2.45313c2.56641.0781 4.14454 2.45704 6.69922 2.45313m6.69532-2.45313c-2.5625.0781-4.14454 2.45704-6.69532 2.45313m6.69532-2.45313c2.5625.0781 4.14452 2.45704 6.69921 2.45313m6.69531-2.45313c-2.5664.0781-4.14452 2.45704-6.69921 2.45313m6.69921-2.45313c2.5625.0781 4.14454 2.45704 6.69923 2.45313m6.69531-2.45313c-2.56641.0781-4.14844 2.45704-6.70313 2.45313m6.70313-2.45313c2.5625.0781 4.14452 2.45704 6.6914 2.45313m6.69922-2.45313c-2.5625.0781-4.14453 2.45704-6.69922 2.45313" fill="none"/><path d="m657.71484 378.91406c2.5625.0704 4.14453 2.44923 6.69141 2.44531m6.70312-2.44531c-2.56641.0704-4.14843 2.44923-6.70312 2.44531m6.70312-2.44531c2.56251.0704 4.14453 2.44923 6.6914 2.44531m8.83204-2.80468c-4.69531-.10163-6.27735 2.8086-8.83204 2.80468m33.48829-2.44531c-2.5625.0704-2.54687 1.64844-5.09375 1.64844m5.09375-1.64844c2.5664.0704 4.14844 2.44923 6.69921 2.44531m6.69923-2.44531c-2.57031.0704-4.15235 2.44923-6.69923 2.44531m6.69142-2.44531c2.57031.0704 1.83593 1.47267 4.38671 1.46875m22.40235-1.46875c2.5625.0704 4.14452 2.44923 6.69921 2.44531m6.69531-2.44531c-2.5664.0704-4.14452 2.44923-6.69531 2.44531m6.69531-2.44531c2.56251.0704 4.14454 2.44923 6.69923 2.44531m6.69531-2.44531c-2.56641.0704-4.14844 2.44923-6.70312 2.44531m6.70312-2.44531c2.5625.0704 4.14453 2.44923 6.6914 2.44531m6.69923-2.44531c-2.5625.0704-4.14454 2.44923-6.69923 2.44531m6.69923-2.44531c2.5625.0704 4.14843 2.44923 6.69531 2.44531m-140.62891-2.44531c-2.57032.0704-4.15234 2.44923-6.69922 2.44531m-6.69531-2.44531c2.5625.0704 4.14453 2.44923 6.69531 2.44531m-6.69531-2.44531c-2.5625.0704-4.14454 2.44923-6.69922 2.44531" fill="none"/><path d="m640.33202 396.375c-2.57031.0704-4.15233 2.44923-6.69921 2.44923" fill="none"/><path d="m640.33202 396.375c2.56251.0704 4.14454 2.44923 6.69142 2.44923" fill="none"/><path d="m653.72656 396.375c-2.57031.0704-4.15235 2.44923-6.70312 2.44923" fill="none"/><path d="m653.72656 396.375c2.5625.0704 4.14453 2.44923 6.6914 2.44923" fill="none"/><path d="m667.11719 396.375c-2.5625.0704-4.14454 2.44923-6.69923 2.44923" fill="none"/><path d="m667.11719 396.375c2.5625.0704 4.14843 2.44923 6.69531 2.44923" fill="none"/><path d="m626.93359 396.375c2.56641.0704 4.14843 2.44923 6.69922 2.44923" fill="none"/><path d="m626.9375 396.375c-2.57031.0704-4.14844 2.44923-6.69922 2.44923" fill="none"/><path d="m761.5625 394.625c-2.5625.0743-4.14844 2.45704-6.69923 2.45312" fill="none"/><path d="m761.5625 394.625c2.5625.0743 4.14453 2.45704 6.69531 2.45312" fill="none"/><path d="m774.95312 394.625c-2.56641.0743-4.14843 2.45704-6.69531 2.45312" fill="none"/><path d="m774.95312 394.625c2.5664.0743 4.14844 2.45704 6.69532 2.45312" fill="none"/><path d="m788.34765 394.625c-2.5664.0743-4.14844 2.45704-6.69921 2.45312" fill="none"/><path d="m788.34375 394.625c2.57031.0743 4.14844 2.45704 6.69921 2.45312" fill="none"/><path d="m801.74219 394.625c-2.57032.0743-4.14844 2.45704-6.69923 2.45312" fill="none"/><path d="m801.73827 394.625c2.56642.0743 4.14844 2.45704 6.69923 2.45312" fill="none"/><path d="m815.13281 394.625c-2.56641.0743-4.14844 2.45704-6.69531 2.45312" fill="none"/><path d="m628.60156 413.58594c-2.5625.0743-4.14453 2.45703-6.69531 2.45312" fill="none"/><path d="m628.60156 413.58594c2.57032.0743 4.15234 2.45703 6.69922 2.45312" fill="none"/><path d="m642 413.58594c-2.56641.0743-4.14844 2.45703-6.69922 2.45312" fill="none"/><path d="m642 413.58594c2.5625.0743 4.14844 2.45703 6.69531 2.45312" fill="none"/><path d="m655.39453 413.58594c-2.56641.0743-4.15234 2.45703-6.69922 2.45312" fill="none"/><path d="m655.39453 413.58594c2.5625.0743 4.14453 2.45703 6.69531 2.45312" fill="none"/><path d="m668.78906 413.58594c-2.5625.0743-4.14844 2.45703-6.69922 2.45312" fill="none"/><path d="m668.78906 413.58594c2.5625.0743 4.14453 2.45703 6.69921 2.45312" fill="none"/><path d="m679.45312 414.44531c-.75391.004-1.41797 1.59766-3.96485 1.59375" fill="none"/><path d="m615.21094 413.58594c2.5664.0743 4.14843 2.45703 6.69531 2.45312" fill="none"/><path d="m615.21484 413.58594c-2.57032.0743-4.15234 2.45703-6.69922 2.45312" fill="none"/><path d="m775.28125 411.83594c-2.56641.0743-4.14844 2.45704-6.69922 2.45312" fill="none"/><path d="m761.88281 411.83594c2.57031.0743 4.15234 2.45704 6.69922 2.45312" fill="none"/><path d="m775.27734 411.83594c2.56641.0743 4.15235 2.45704 6.69922 2.45312" fill="none"/><path d="m788.67578 411.83594c-2.5664.0743-4.15234 2.45704-6.69922 2.45312" fill="none"/><path d="m788.67187 411.83594c2.5664.0743 4.14844 2.45704 6.69922 2.45312" fill="none"/><path d="m802.0625 411.83594c-2.5625.0743-4.14454 2.45704-6.69141 2.45312" fill="none"/><path d="m802.0625 411.83594c2.57031.0743 4.15234 2.45704 6.70313 2.45312" fill="none"/><path d="m815.45703 411.83594c-2.5625.0743-4.14453 2.45704-6.6914 2.45312" fill="none"/><path d="m815.45703 411.83594c2.56641.0743 4.14453 2.45704 6.69922 2.45312" fill="none"/><path d="m828.85156 411.83594c-2.5625.0743-4.14454 2.45704-6.69531 2.45312" fill="none"/><path d="m623.98437 428.6211c-2.5625.0781-4.14843 2.45702-6.69531 2.44921" fill="none"/><path d="m623.98437 428.6211c2.5625.0781 4.14453 2.45702 6.69922 2.44921" fill="none"/><path d="m637.375 428.6211c-2.5625.0781-4.14454 2.45702-6.69141 2.44921" fill="none"/><path d="m637.375 428.6211c2.57031.0781 4.15234 2.45702 6.70312 2.44921" fill="none"/><path d="m650.76952 428.6211c-2.5625.0781-4.14452 2.45702-6.6914 2.44921" fill="none"/><path d="m650.76952 428.6211c2.57032.0781 4.15235 2.45702 6.69923 2.44921" fill="none"/><path d="m664.16796 428.6211c-2.5664.0781-4.14844 2.45702-6.69921 2.44921" fill="none"/><path d="m664.16796 428.6211c2.56641.0781 4.14454 2.45702 6.69531 2.44921" fill="none"/><path d="m674.82031 429.58204c-.59766-.11325-1.40625 1.49608-3.95703 1.48827" fill="none"/><path d="m610.58984 428.6211c2.5625.0781 4.14453 2.45702 6.69922 2.44921" fill="none"/><path d="m610.58984 428.6211c-2.5625.0781-4.14453 2.45702-6.69531 2.44921" fill="none"/><path d="m748.13281 427.72266c-2.56641.0743-4.14844 2.45703-6.69922 2.44921" fill="none"/><path d="m748.1289 427.72266c2.56641.0743 4.15235 2.45703 6.69922 2.44921" fill="none"/><path d="m757.46484 429.45312c-.38672.0743-.0899.72657-2.63672.71875" fill="none"/><path d="m734.73437 427.72266c2.57032.0743 4.15234 2.45703 6.69922 2.44921" fill="none"/><path d="m804.22656 427.35547c-2.56641.0742-4.14844 2.45703-6.69922 2.44922" fill="none"/><path d="m793.38671 428.11329c.83594-.0781 1.59375 1.69921 4.14063 1.6914" fill="none"/><path d="m804.22656 427.35547c2.5625.0742 4.14844 2.45703 6.69531 2.44922" fill="none"/><path d="m817.62109 427.35547c-2.5664.0742-4.15234 2.45703-6.69922 2.44922" fill="none"/><path d="m817.62109 427.35547c2.5625.0742 4.14453 2.45703 6.69531 2.44922" fill="none"/><path d="m831.01562 427.35547c-2.57031.0742-4.15235 2.45703-6.69922 2.44922" fill="none"/><path d="m617.69531 445.3125c-2.5625.0743-4.14844 2.45704-6.69531 2.45312" fill="none"/><path d="m617.69531 445.3125c2.5664.0743 4.14844 2.45704 6.69921 2.45312" fill="none"/><path d="m631.08594 445.3125c-2.5625.0743-4.14454 2.45704-6.69142 2.45312" fill="none"/><path d="m631.08594 445.3125c2.57031.0743 4.15233 2.45704 6.70312 2.45312" fill="none"/><path d="m644.48437 445.3125c-2.56641.0743-4.14843 2.45704-6.69531 2.45312" fill="none"/><path d="m644.48437 445.3125c2.5664.0743 4.14844 2.45704 6.69532 2.45312" fill="none"/><path d="m657.8789 445.3125c-2.5664.0743-4.14844 2.45704-6.69921 2.45312" fill="none"/><path d="m657.8789 445.3125c2.56641.0743 4.14454 2.45704 6.69531 2.45312" fill="none"/><path d="m671.27344 445.3125c-2.5625.0743-4.14454 2.45704-6.69923 2.45312" fill="none"/><path d="m671.27344 445.3125c2.5625.0743 4.14452 2.45704 6.69921 2.45312" fill="none"/><path d="m681.04687 446.71485c-.37891.0156-.52343 1.05469-3.07422 1.05077" fill="none"/><path d="m604.30078 445.3125c2.56641.0743 4.15234 2.45704 6.69922 2.45312" fill="none"/><path d="m803.59765 442.07812c2.56641.0704 4.15235 2.45313 6.69922 2.44923" fill="none"/><path d="m816.99219 442.07812c-2.5625.0704-4.14844 2.45313-6.69532 2.44923" fill="none"/><path d="m816.99219 442.07812c2.5664.0704 4.14843 2.45313 6.69921 2.44923" fill="none"/><path d="m830.38281 442.07812c-2.5625.0704-4.14453 2.45313-6.69141 2.44923" fill="none"/><path d="m830.38281 442.07812c2.5664.0704 4.14844 2.45313 6.70313 2.44923" fill="none"/><path d="m654.44531 460.28516c-2.5625.0743-4.14454 2.44921-6.69141 2.44532" fill="none"/><path d="m641.05469 460.28516c2.5664.0743 4.14843 2.44921 6.69921 2.44532" fill="none"/><path d="m641.05469 460.28516c-2.5625.0743-4.14844 2.44921-6.69532 2.44532" fill="none"/><path d="m627.66015 460.28516c2.56641.0743 4.15235 2.44921 6.69922 2.44532" fill="none"/><path d="m627.66406 460.28516c-2.56641.0743-4.14843 2.44921-6.69922 2.44532" fill="none"/><path d="m614.27344 460.28516c2.5625.0743 4.14452 2.44921 6.6914 2.44532" fill="none"/><path d="m614.27344 460.28516c-2.57032.0743-4.15235 2.44921-6.70313 2.44532" fill="none"/><path d="m600.8789 460.28516c2.5625.0743 4.14454 2.44921 6.69141 2.44532" fill="none"/><path d="m801 459.03516c-2.5625.0743-4.14454 2.45703-6.69922 2.44921" fill="none"/><path d="m801 459.03516c2.5625.0743 4.14453 2.45703 6.69531 2.44921" fill="none"/><path d="m814.39452 459.03516c-2.5664.0742-4.14452 2.45703-6.69921 2.44921" fill="none"/><path d="m814.39452 459.03516c2.56251.0743 4.14454 2.45703 6.69142 2.44921" fill="none"/><path d="m827.78906 459.03516c-2.57031.0743-4.15235 2.45703-6.70312 2.44921" fill="none"/><path d="m827.78906 459.03516c2.5625.0743 4.14453 2.45703 6.6914 2.44921" fill="none"/><path d="m653.51562 475.25c-2.57031.0743-4.15235 2.45312-6.69922 2.45312" fill="none"/><path d="m640.12109 475.25c2.5625.0743 4.14453 2.45312 6.69531 2.45312" fill="none"/><path d="m640.12109 475.25c-2.5625.0743-4.14453 2.45312-6.69922 2.45312" fill="none"/><path d="m626.72656 475.25c2.5625.0743 4.14844 2.45312 6.69531 2.45312" fill="none"/><path d="m626.72656 475.25c-2.5625.0743-4.14453 2.45312-6.69922 2.45312" fill="none"/><path d="m613.33594 475.25c2.5625.0743 4.14452 2.45312 6.69531 2.45312" fill="none"/><path d="m613.33594 475.25c-2.56642.0743-4.14844 2.45312-6.70313 2.45312" fill="none"/><path d="m599.9414 475.25c2.5625.0743 4.14454 2.45312 6.69922 2.45312" fill="none"/><path d="m658.82812 474.9375c2.5664.0743 4.14844 2.45704 6.69922 2.45312" fill="none"/><path d="m672.21875 474.9375c-2.5625.0743-4.14454 2.45704-6.69141 2.45312" fill="none"/><path d="m672.21875 474.9375c2.57031.0743 3.54296 1.16797 4.25 1.17969" fill="none"/><path d="m786.54687 474.30469c2.5625.0704 4.14453 2.45312 6.69532 2.44922" fill="none"/><path d="m799.9414 474.30469c-2.57031.0704-4.15234 2.45312-6.69921 2.44922" fill="none"/><path d="m799.9414 474.30469c2.5625.0704 4.14454 2.45312 6.69141 2.44922" fill="none"/><path d="m813.33594 474.30469c-2.57032.0704-4.15235 2.45312-6.70313 2.44922" fill="none"/><path d="m813.32812 474.30469c2.57032.0704 4.15234 2.45312 6.69922 2.44922" fill="none"/><path d="m826.72656 474.30469c-2.56641.0704-4.14844 2.45312-6.69922 2.44922" fill="none"/><path d="m826.72265 474.30469c2.56641.0704 4.15235 2.45312 6.69922 2.44922" fill="none"/><path d="m614.12109 488.82812c-2.57032.0743-4.15234 2.45704-6.69922 2.45313" fill="none"/><path d="m614.12109 488.82812c2.5625.0743 4.14453 2.45704 6.69141 2.45313" fill="none"/><path d="m627.51562 488.82812c-2.57031.0743-4.15234 2.45704-6.70312 2.45313" fill="none"/><path d="m627.51562 488.82812c2.56251.0743 4.14453 2.45704 6.6914 2.45313" fill="none"/><path d="m640.90625 488.82812c-2.5625.0743-4.14454 2.45704-6.69922 2.45313" fill="none"/><path d="m640.90625 488.82812c2.5625.0743 4.14844 2.45704 6.69531 2.45313" fill="none"/><path d="m654.30078 488.82812c-2.56251.0743-4.14453 2.45704-6.69922 2.45313" fill="none"/><path d="m654.30078 488.82812c2.5625.0743 4.14453 2.45704 6.69922 2.45313" fill="none"/><path d="m667.69531 488.82812c-2.5625.0743-4.14844 2.45704-6.69531 2.45313" fill="none"/><path d="m667.69531 488.82812c2.5664.0743 4.14844 2.45704 6.69921 2.45313" fill="none"/><path d="m681.08594 488.82812c-2.5625.0743-4.14454 2.45704-6.69142 2.45313" fill="none"/><path d="m776.35937 488.14062c2.5664.0743 4.14844 2.45704 6.70313 2.45313" fill="none"/><path d="m789.7539 488.14062c-2.5625.0743-4.14453 2.45704-6.69921 2.45313" fill="none"/><path d="m789.7539 488.14062c2.56641.0743 4.14454 2.45704 6.69531 2.45313" fill="none"/><path d="m803.14844 488.14062c-2.57032.0743-4.14454 2.45704-6.69923 2.45313" fill="none"/><path d="m803.14844 488.14062c2.5625.0743 4.14452 2.45704 6.69531 2.45313" fill="none"/><path d="m816.54296 488.14062c-2.57031.0743-4.15234 2.45704-6.69921 2.45313" fill="none"/><path d="m816.54296 488.14062c2.5625.0743 4.14454 2.45704 6.69141 2.45313" fill="none"/><path d="m829.9375 488.14062c-2.57031.0743-4.15235 2.45704-6.70313 2.45313" fill="none"/><path d="m829.92969 488.14062c2.57031.0743 4.15233 2.45704 6.69921 2.45313" fill="none"/><path d="m619.67577 505.02344c-2.5625.0704-4.14452 2.44922-6.6914 2.44531" fill="none"/><path d="m619.67577 505.02344c2.57032.0704 4.15235 2.44922 6.69923 2.44531" fill="none"/><path d="m633.07031 505.02344c-2.5625.0704-4.14454 2.44922-6.69531 2.44531" fill="none"/><path d="m633.07031 505.02344c2.57031.0704 4.14844 2.44922 6.69922 2.44531" fill="none"/><path d="m646.46875 505.02344c-2.57031.0704-4.14844 2.44922-6.69922 2.44531" fill="none"/><path d="m646.46875 505.02344c2.5625.0704 4.14452 2.44922 6.69531 2.44531" fill="none"/><path d="m659.86327 505.02344c-2.57031.0704-4.15233 2.44922-6.69921 2.44531" fill="none"/><path d="m659.86327 505.02344c2.56251.0704 4.14454 2.44922 6.69142 2.44531" fill="none"/><path d="m673.25781 505.02344c-2.56641.0704-4.14844 2.44922-6.70312 2.44531" fill="none"/><path d="m673.25781 505.02344c2.5625.0704 4.14453 2.44922 6.69531 2.44531" fill="none"/><path d="m689.07812 504.66406c-4.94531.15625-6.57422 2.8086-9.125 2.80469" fill="none"/><path d="m785.19531 503.96875c-2.5625.0781-4.14844 2.45312-6.69922 2.44923" fill="none"/><path d="m785.19531 503.96875c2.5625.0781 4.14453 2.45312 6.69921 2.44923" fill="none"/><path d="m798.58594 503.96875c-2.5625.0781-4.14454 2.45312-6.69531 2.44923" fill="none"/><path d="m798.58594 503.96875c2.5664.0781 4.14844 2.45312 6.69531 2.44923" fill="none"/><path d="m811.98046 503.96875c-2.5625.0781-4.14452 2.45312-6.69921 2.44923" fill="none"/><path d="m811.98046 503.96875c2.56642.0781 4.14454 2.45312 6.69532 2.44923" fill="none"/><path d="m825.375 503.96875c-2.57031.0781-4.14844 2.45312-6.69922 2.44923" fill="none"/><path d="m825.375 503.96875c2.5625.0781 4.14453 2.45312 6.69531 2.44923" fill="none"/><path d="m629.85156 519.77344c-2.5625.0704-4.14453 2.45312-6.69531 2.44922" fill="none"/><path d="m629.85156 519.77344c2.57032.0704 4.15234 2.45312 6.69922 2.44922" fill="none"/><path d="m643.24609 519.77344c-2.5625.0704-4.14453 2.45312-6.69531 2.44922" fill="none"/><path d="m643.24609 519.77344c2.56641.0704 4.15235 2.45312 6.69922 2.44922" fill="none"/><path d="m656.64453 519.77344c-2.56641.0704-4.15234 2.45312-6.69922 2.44922" fill="none"/><path d="m656.64453 519.77344c2.5625.0704 4.14453 2.45312 6.69531 2.44922" fill="none"/><path d="m670.03906 519.77344c-2.57031.0704-4.15235 2.45312-6.69922 2.44922" fill="none"/><path d="m670.03906 519.77344c2.5625.0704 4.14453 2.45312 6.69531 2.44922" fill="none"/><path d="m762.39844 520.86719c2.5625.0704 4.14452 2.45312 6.6914 2.44922" fill="none"/><path d="m775.78906 520.86719c-2.56641.0704-4.14844 2.45312-6.69922 2.44922" fill="none"/><path d="m775.78515 520.86719c2.56641.0704 4.15235 2.45312 6.69922 2.44922" fill="none"/><path d="m789.18359 520.86719c-2.5664.0704-4.15234 2.45312-6.69922 2.44922" fill="none"/><path d="m789.17969 520.86719c2.5664.0704 4.14843 2.45312 6.69921 2.44922" fill="none"/><path d="m802.57031 520.86719c-2.5625.0704-4.14453 2.45312-6.69141 2.44922" fill="none"/><path d="m802.57031 520.86719c2.57031.0704 4.15234 2.45312 6.70313 2.44922" fill="none"/><path d="m815.96484 520.86719c-2.5625.0704-4.14453 2.45312-6.6914 2.44922" fill="none"/><path d="m645.92969 535.59766c-2.56642.0743-4.14844 2.45703-6.69532 2.44921" fill="none"/><path d="m645.92969 535.59766c2.5664.0743 4.14843 2.45703 6.69531 2.44921" fill="none"/><path d="m659.32421 535.59766c-2.5625.0743-4.14452 2.45703-6.69921 2.44921" fill="none"/><path d="m659.32421 535.59766c2.56641.0743 4.14454 2.45703 6.69531 2.44921" fill="none"/><path d="m672.71875 535.59766c-2.5625.0743-4.14454 2.45703-6.69922 2.44921" fill="none"/><path d="m672.71875 535.59766c2.5625.0743 4.14452 2.45703 6.69921 2.44921" fill="none"/><path d="m683.93359 536.17187c-.78907-.043-1.96484 1.88282-4.51563 1.875" fill="none"/><path d="m733.40625 535.88673c-2.5625.0781-4.14454 2.45702-6.69531 2.44921" fill="none"/><path d="m733.40625 535.88673c2.5625.0781 4.14844 2.45702 6.69921 2.44921" fill="none"/><path d="m746.80078 535.88673c-2.56251.0781-4.14453 2.45702-6.69922 2.44921" fill="none"/><path d="m746.80078 535.88673c2.5625.0781 4.14453 2.45702 6.69922 2.44921" fill="none"/><path d="m760.19531 535.88673c-2.5625.0781-4.14844 2.45702-6.69922 2.44921" fill="none"/><path d="m760.19531 535.88673c2.5625.0781 4.14453 2.45702 6.69531 2.44921" fill="none"/><path d="m773.58594 535.88673c-2.5625.0781-4.14454 2.45702-6.69531 2.44921" fill="none"/><path d="m773.58594 535.88673c2.5664.0781 4.14844 2.45702 6.69531 2.44921" fill="none"/><path d="m786.98046 535.88673c-2.5664.0781-4.14844 2.45702-6.69921 2.44921" fill="none"/><path d="m786.98046 535.88673c2.56642.0781 4.14454 2.45702 6.69532 2.44921" fill="none"/><path d="m800.375 535.88673c-2.57031.0781-4.14844 2.45702-6.69922 2.44921" fill="none"/><path d="m800.37109 535.88673c2.56641.0781 4.14844 2.45702 6.69922 2.44921" fill="none"/><path d="m665.82031 552.39062c-2.5625.0704-4.14844 2.44923-6.69531 2.44532" fill="none"/><path d="m665.82031 552.39062c2.5625.0704 4.14453 2.44923 6.69921 2.44532" fill="none"/><path d="m679.21094 552.39062c-2.5625.0704-4.14454 2.44923-6.69142 2.44532" fill="none"/><path d="m679.21094 552.39062c2.57031.0704 4.15233 2.44923 6.70312 2.44532" fill="none"/><path d="m692.60546 552.39062c-2.5625.0704-4.14452 2.44923-6.6914 2.44532" fill="none"/><path d="m692.60546 552.39062c2.57031.0704 4.15235 2.44923 6.69923 2.44532" fill="none"/><path d="m706.0039 552.39062c-2.5664.0704-4.14844 2.44923-6.69921 2.44532" fill="none"/><path d="m706.0039 552.39062c2.56641.0704 4.14454 2.44923 6.69531 2.44532" fill="none"/><path d="m719.39844 552.39062c-2.5625.0704-4.14454 2.44923-6.69923 2.44532" fill="none"/><path d="m719.39844 552.39062c2.5625.0704 4.14452 2.44923 6.69531 2.44532" fill="none"/><path d="m732.79296 552.39062c-2.5664.0704-4.14452 2.44923-6.69921 2.44532" fill="none"/><path d="m732.79296 552.39062c2.5625.0704 4.14454 2.44923 6.69141 2.44532" fill="none"/><path d="m746.1875 552.39062c-2.57031.0704-4.15235 2.44923-6.70313 2.44532" fill="none"/><path d="m746.1875 552.39062c2.5625.0704 4.14452 2.44923 6.6914 2.44532" fill="none"/><path d="m759.57812 552.39062c-2.56641.0704-4.14843 2.44923-6.69922 2.44532" fill="none"/><path d="m759.57421 552.39062c2.56641.0704 4.15235 2.44923 6.69923 2.44532" fill="none"/><path d="m772.97265 552.39062c-2.5664.0704-4.15234 2.44923-6.69921 2.44532" fill="none"/><path d="m772.96875 552.39062c2.5664.0704 4.14844 2.44923 6.69921 2.44532" fill="none"/><path d="m766.88281 485.5586c-2.84375 1.78125-.44531-10.86329 1.03515-16.27735 1.83985-6.74609 7.45313-15.6914 9.42579-16.61719 1.49219-.69921 2.16796 12.41406.38281 18.02735-1.95703 6.16015-6.92187 12.40625-10.84375 14.86719zm0 0" fill="#004226" fill-rule="evenodd"/><path d="m777.5 452.55469 2.54296-5.71875" fill="none"/><path d="m762.98437 484.66016c-3.35547.13671 5.01172-9.64844 8.98438-13.61329 4.94531-4.9375 14.25781-9.91796 16.42969-9.74218 1.64452.13281-4.28125 11.85547-8.61719 15.83593-4.76173 4.375-12.17188 7.32813-16.79688 7.51954zm0 0" fill="#004226" fill-rule="evenodd"/><path d="m788.58594 461.28906 5.04687-3.69921" fill="none"/><path d="m762.01171 488.17187c-4.09765-4.58202 1.81641-8.39062 6.6836-10.80077 6.25781-3.10156 16.10938-6.48438 18.1875-5.83204 1.57421.5-6.82031 10.60156-11.9336 13.51563-5.61327 3.20312-9.85156 6.57031-12.9375 3.11718zm0 0" fill="#004226" fill-rule="evenodd"/><path d="m769.21875 493.98048c-18.03125 6.90625-11.37891-3.95704-7.26563-6.15236 6.16407-3.28906 16.11328-6.48437 18.1914-5.82421 1.57423.49219-.96483 3.39844-5.42968 7.23828-5.61328 4.82812-.73828 2.91797-5.49609 4.73829zm0 0" fill="#004226" fill-rule="evenodd"/></g></g><path d="m887.46094 630.83203c1.17187 2.57813 1.66406 5.15625 2.83984 7.73438-6.25781 4.51171-7.36328 9.52734-5.91016 14.33203 1.55079.90625 2.95704.90625 4.20704 0 5.48046-7.64063 11.16015-13.67188 16.94921-18.88282 4.12891-.59375 7.35938-.28125 9.89844.72266 1.65625-.99609 3.23047-2.08203 4.625-3.33984 3.03516-2.45313 7.1211-12.26172 8.16016-18.89844-5.00391 1.90625-9.96875 4.09375-14.8125 7.09375-1.70703 1.0625-1.79297 5.86328-2.14844 8.80078-1.79687-3.75781-3.70703-12.36328-1.71875-14.60547 6.88672-4.99219 23.98828-11.72265 33.92578-19.32422.78516 2.4375 1.57813 4.86719 2.36328 7.30469-15.22265 12.74609-15.05078 30.67969-19.32812 33.92578-1.52735 1.66406-3.78906 3-5.84766 4.09375.27344 3.28125.21094 6.82422-1.35937 8.89844-6.625 7.41406-13.96094 15.90625-22.40625 23.31641 3.26172 4.57031 4.39843 8.85156 3.41406 14.33203-3.80859 2.53125-7.90625 3.98828-13.53516 5.0039-.1914-.41406-.38281-.83593-.5664-1.25 7.67578-3.8125 13.34765-7.80078 8.53125-15.58203-2.51172-.67969-5.10157 3.03906-7.28125 3.52735-.14844.33593-7.27735-3.0625-5.11719-13.08204 2.03125-2.27343 5.18359 1.26563 9.66797 3.07032 9.04687-8.13282 16.83984-16.625 23.76953-25.36719.14844-3.03125-2.125-4.08984-6.82813-3.17969-7.88281 6.25391-18.38671 20.12891-20.80859 20.47266-2.28125.42578-7.51172-6.36719-7.62109-12.39844-1.03907-4.53516 2.13281-12.55078 6.9375-16.71875" fill="#fff" fill-rule="evenodd"/><path d="m868.27344 672.17578c8.96875-3.59766 11.02343 6.21094 13.76172 14.69531.44531 2.35938-.98047 4.14063-3.07032 5.34375-2.9414-.48828-5.48047-.3125-8.41797-.80078-1.04687 5.58985-3.3164 8.84375-5.07421 8.01172-2.73829-2.62891-4.16407-2.84766-6.54688-3.33984.9375 9.70703-23.68359 22.26562-30.19141 23.24609-6.22656.8125-11.3125-5.3125-13.89062-12.69141.625-.17968.84375-.0898 1.46875-.26562 1.55469 3.61328 3.55469 6.77734 8.67969 6.8125 13.76172-3.47266 24.13672-9.44141 31.125-17.90234 1.36328-3.33985.875-5.87891-.26563-8.14454.57813-.22656 1.16016-.44921 1.73438-.66796 1.42578 3.07031 1.25 5.38671 2.00781 7.74218 1.42578-.17578 3.07031-.1289 4.14062-.66406 2.39844-.30078 3.65625-1.97266 4.27344-4.41016.5625-5.89062-.91015-15.97656.26563-16.96484" fill="#fff" fill-rule="evenodd"/><path d="m836.08203 689.01172 7.61328 3.73828 3.07031-6.41406-7.21093-3.47266" fill="#fff" fill-rule="evenodd"/><path d="m824.86328 693.95312 7.61328 3.73829 3.07031-6.41016-7.21093-3.47656" fill="#fff" fill-rule="evenodd"/><path d="m758.5625 716.67578 7.61719 3.74219 3.07031-6.41016-7.21094-3.47265" fill="#fff" fill-rule="evenodd"/><path d="m745.66406 704.85156 7.60938 3.73828 3.07422-6.41015-7.21485-3.47657" fill="#fff" fill-rule="evenodd"/><path d="m733.40234 707.85937 7.61328 3.73829 3.07032-6.41016-7.21094-3.47266" fill="#fff" fill-rule="evenodd"/><path d="m816.60937 726.53516c.39844 1.15625-.3164 4.20703-3.15234 6.04296-3.44141 2.23438-3.91797 2.09766-7.55078 4.83985-.16016-1.11328-.12109-2.97266 3.01562-5.35156 3.72266-2.28516 4.66016-2.64454 7.6875-5.53125" fill="#fff" fill-rule="evenodd"/><path d="m809.375 705.95312c2.94922 2.94922 4.64062 7.16016 5.07031 12.625-.70703 5.05469-2.27734 6.86329-4.24609 7.19922-2.94922-.76953-4.59766-1.7539-5.66406-2.83203.51171 2.28125-.95704 4.24219-4.21875 5.89844-2.14454-.4375-3.86329-1.29297-4.7461-3.30469-2.98828 4.625-7 7.96485-12.50781 9.4375-3.58203-.3125-6.05469-1.72656-7.43359-4.24609-2.47266 4.15234-3.60547 9.3164-11.44532 9.4414-3.43359-.29687-5.92578-1.71093-7.78906-3.89453-3.47266 5.22266-6.33594 10.86719-14.51172 12.74219-3.46094.32422-8.80469-4.55859-9.08594-12.15234-.11718-2.125.4336-3.69532.94141-5.19141.58984.39063 1.18359.78516 1.77344 1.17578-.90235 2.125-.62891 4.48828.35156 6.61328 1.61719 2.75 3.97266 4.04688 6.84766 3.65625 4.5039-1.84765 8.59375-4.24609 11.21093-8.61328-.65234-3.87109-4.4414-9.04687-11.09375-14.51562 1.10157-1.80469.90235-4.44532 2.00391-6.25 5.42188 5.40625 7.79297 13.33984 13.80469 18.05078 1.58984.58984 3.48047.98047 6.01953.9414 7.78906-.63671 9.43359-5.02734 11.44531-9.20312.42969.24219.86719.47656 1.29688.71094-.39063 2.77343.98437 4.66015 6.2539 4.60156 6.1836-.74219 10.33594-3.85938 10.85547-11.21094.51172.4375 1.02344.86719 1.53125 1.30078-.625 1.88672.31641 3.14453 2.83203 3.77344 3.36328-.0977 4.35157-3.44141 4.2461-8.25781.4375.19531.87109.39062 1.30078.58984-.3711 2.65235.33594 4.81641 3.42187 5.89844 2.59766-.66797 3.77735-2.12109 3.54297-4.36328-1.26172-1.41797-1.45703-3.1875-3.30859-4.12891.91015-2.125 1.02734-4.36719 1.30078-6.49219" fill="#fff" fill-rule="evenodd"/><path d="m676.69922 735.54687c1.98828-4.77343 5.96094-9.85546 8.59375-10.28515 4.02734-.36328 7.18359 5.15625 10.78906 5.08984-.0352.30469-.0664 1.00391-.0977 1.30078-10.05859 6.69532-13.42187 11.09375-21.1875 11.19141-6.49218.30469-5.32421-8.95313-6.6914-9.29297-4.73047 3.53125-8.89453 3.33203-11.48828 2.59766-3.24219 3.70703-7.25391 8.05468-12.09375 10.69531-4.66016-2.11719-5.94532-4.03516-8.79297-4.69922.26562-.39844.53515-.39844.80078-.80078 7.87109 1.75391 14.01953.0625 17.08594-4.29688-.91407-5.48437-3.91016.67579-5.69922-5.59375 1.5-5.64843 3.08594-10.64843 8-11.1875 4.375.49219 4.17969 7.64844 5.08984 12.38672 2.55078.86328 8.19531-.39062 8.19531-3.19922 3.5586-13.02343 6.8711-23.14843 12.28907-24.17968 8.60937-.26563 15.90625-.29688 23.38281-.89844-.47266 1.90234-2.89063 2.49609-7.09375 4.39844-6.94531 1.64843-12.41406-.65235-19.58594.69531-3.82812 7.43359-5.75781 14.85937-6.39453 22.28516.88281 2.76562 2.67969 3.69921 4.89844 3.79296zm7.1914-6.58984c3.66797-.23828 6.35157 3.19922 8.4961 3.19922-2.34375 1.98437-5.9336 5.1875-10.09375 5.59375-2.42578-.10156-3.01172-.37109-3.9961-2.09766 1.1836-4.15234 5.20704-7.64843 5.59375-6.69531" fill="#fff" fill-rule="evenodd"/><path d="m644.76562 715.60156c1.42969.0469-.0391 5.90625 2.03125 8.40625-1.05468 3.125-3.78515 2.09766-6.49609 4.92578-.92578-.57422-.94141-3.65234-2.19922-5.22265-13.96875 7.02343-14.08594 5.4375-16.07031 5.01172-1.58594-2.16797-1.07031-4.71094-1.09375-7.19141-9.27344-1.38281-15.16797 1.13281-38.94531-16.09375-2.31641-1.64063-3.375-3.64063-2.45313-9.35547 1.49219-4.11719 3.89063-6.30078 6.96875-7.89062.0977.4375.19531.88281.29297 1.32421-1.40234 1.44922-2.64453 3.05079-2.79687 5.75-1.32032 1.81641.3789 3.63282 2.5039 5.45313 10.21094 7.78906 21.85156 14.69531 34.86719 18.42187 3.69141-.67968 5.34375-1.75781 7.28906-3.68359-.0469.83203-.0937 1.66797-.14453 2.50781-.96484.75391-2.24219 1.70703-3.83203 2.14844-.73828 2.22656-.54297 3.91016.58984 5.51172 2.20703.76562 6.44922-.70313 12.08594-3.67969 1.91016-3.5 4.24219-5.34375 7.40234-6.34375" fill="#fff" fill-rule="evenodd"/><path d="m614.00781 697.84766c2.07813-.0586 2.45313 3.8164 4.0586 5.95312-.0703 1.38672-3.41797 1-5.72266 1.88672-1.57031.75391-2.48438-3.75-4.19141-6.00391-.82812-1.05859 3.64453-.96093 5.85547-1.83593" fill="#fff" fill-rule="evenodd"/><path d="m603.67578 692.57031c2.08203-.0586 2.44922 3.8086 4.05859 5.94531-.0703 1.39454-3.41796 1.00782-5.72265 1.89063-1.56641.75781-2.48828-3.75-4.19141-6-.83594-1.0625 3.64453-.96875 5.85547-1.83594" fill="#fff" fill-rule="evenodd"/><path d="m533.52344 627.42969c2.05468.33593 1.67968 4.20312 2.85156 6.60937-.33203 1.34766-3.54297.33203-5.97656.76563-1.67969.44531-1.72266-4.15235-2.96875-6.6875-.61719-1.20313 3.75781-.25391 6.09375-.6875" fill="#fff" fill-rule="evenodd"/><path d="m569.59766 691.65234c-2.96485-.33593-6.33203-.97265-10.11719-1.91015-3.30078-.85157-4.69141-.14453-5.74609.59375 2.0664.43359 3.69531.67968 9.61328 2.35547 2.0039.5039 4.72656-.37891 6.25-1.03907" fill="#fff" fill-rule="evenodd"/><path d="m498.80469 596.74609c8.94922-2.28515 18.10937-1.44922 20.89062 4.08203.94531 3.17188.0703 3.54688-1.60547 4.6875 2.70703 1.47266 5.83594 3.63282 5.29297 7.03125-.0586 2.32813-4.375 5.03125-7.5 3.95313-11.03125-3.92969-19.13281-8.75391-22.10547-21.69922.625-.28516.25-.11328.875-.39844.83594 1.01563 2.06641 1.85938 4.15235 2.34375zm16.72265 17.77735c2.17578-.40625 3.50391-1.42188 3.78907-3.71485.18359-2.1875-1.36719-3.50781-3.71094-4.42578-4.33985-1.10937-8.28125-1.9414-12.41016-2.21094.19531 2.65235 9.42188 11.2461 12.33203 10.35157zm-15.28515-16.36719c5.45312-.96094 11.35937-1.17188 15.96875 1.66406.76562 3-1.01172 3.49219-3.82813 3.53906-6.28515-.86328-10.70312-2.23046-12.14062-5.20312" fill="#fff" fill-rule="evenodd"/><path d="m596.25391 683.82031c-2.60547-.0469-5.15235.22656-7.46094 1.66016-1.42969-1.58594-4.19531-2.58203-8.29297-2.98438-33.83203-.10547-50.28906-15.43359-58.37109-28.58984-2.89454-4.96484-3.27344-10.63281-5.63672-12.70313-6.17969-1.02343-12.67188-3.64062-13.10157-7.29687-.45312-3.71094 3.44922-6.08203 6.26172-8.01172-3.48047-.28125-9.62109.14453-12.23047-1.44141-1.18359-3.64453-2.73046-7.29296-4.8125-10.9414.33594-.27735.66407-.55078 1-.82813 5.31641 9.72657 15.22266 12.78516 29.73438 10.9375 0 .39063.11328.88672.11328 1.83203-3.53516.32813-5.18359.55079-8.72266.32422-1.94531 2.32422-3.53906 5.10938-2.21875 7.13672.55469 8.16406 12.35157 5.64063 13.42969 7.29297.90625 2.33984-.043 3.15234 1.49219 8.01172 3.54687 16.97656 31.3125 30.76562 59.53125 33.11719 4.96094.64453 7.30859 1.54687 9.28516 2.48437" fill="#fff" fill-rule="evenodd"/></svg>