<svg height="300" width="500" xmlns="http://www.w3.org/2000/svg"><g><path d="m2.125386 2.125388h495.74924v295.74924h-495.74924z" fill="#fff" stroke="#fff" stroke-width="4.250771"/><path d="m0 269.84281v-48s14.642857-8.71428 40.357143-8.71428c47.5 0 56.073473 26.28807 105.357147 25.71428 53.57219-.62371 53.57037-26.34678 105.71428-25.71428 51.4254.61512 51.4239 25.17607 102.5 25.35714 50.71227.18105 52.14286-25.35714 101.78572-25 31.07268.22355 44.28571 9.35714 44.28571 9.35714v48s-11.42688-9.01311-45-9.14285c-45.71544-.17667-48.21898 24.98553-100.35714 24.28571-53.57335-.71428-54.28086-23.75282-103.57143-23.92857-52.85498-.18846-52.50105 23.60373-102.85714 23.92857-57.149602.35714-56.785718-23.92857-103.571433-24.28571-31.072575-.2372-44.642857 8.14285-44.642857 8.14285z" fill="#213a84"/><path d="m0 71v-48s14.642857-8.714286 40.357143-8.714286c47.5 0 56.073473 26.288069 105.357147 25.714286 53.57219-.623711 53.57037-26.346789 105.71428-25.714286 51.4254.615123 51.4239 25.176074 102.5 25.357143 50.71227.181045 52.14286-25.357143 101.78572-25 31.07268.223545 44.28571 9.357143 44.28571 9.357143v48s-11.42688-9.013112-45-9.142858c-45.71544-.176671-48.21898 24.985531-100.35714 24.285715-53.57335-.714286-54.28086-23.752819-103.57143-23.928572-52.85498-.188462-52.50105 23.603734-102.85714 23.928572-57.149602.357143-56.785718-23.928571-103.571433-24.285715-31.072575-.237196-44.642857 8.142858-44.642857 8.142858z" fill="#213a84"/><path d="m0 169.85714v-48s14.642857-8.71428 40.357143-8.71428c47.5 0 56.073473 26.28807 105.357147 25.71428 53.57219-.62371 53.57037-26.34678 105.71428-25.71428 51.4254.61512 51.4239 25.17607 102.5 25.35714 50.71227.18105 52.14286-25.35714 101.78572-25 31.07268.22355 44.28571 9.35714 44.28571 9.35714v48s-11.42688-9.01311-45-9.14285c-45.71544-.17667-48.21898 24.98553-100.35714 24.28571-53.57335-.71428-54.28086-23.75282-103.57143-23.92857-52.85498-.18846-52.50105 23.60373-102.85714 23.92857-57.149602.35714-56.785718-23.92857-103.571433-24.28571-31.072575-.2372-44.642857 8.14285-44.642857 8.14285z" fill="#213a84"/><g stroke="#213a84"><path d="m267.18535 191.91368s-2.52538-3.53554.25254-5.3033c2.77792-1.76777.50507-4.04061 1.76776-6.56599 1.26269-2.52539 0-8.83884 0-8.83884" fill="none" stroke-width="2.5"/><path d="m224.25387 243.43146s-3.283-3.283-1.2627-6.06092c2.02031-2.77792 8.5863-8.83883 9.34392-10.10152.75761-1.26269 4.54568-6.31346 6.06091-7.07107 1.51523-.75762.75762 4.54569.50508 5.55584s-10.10153 8.83883-11.11168 10.6066-3.53553 7.32361-3.53553 7.07107z" fill="#e66331" stroke-linecap="round" stroke-linejoin="round" stroke-width="2.5"/><path d="m245.46707 222.97587s3.78807-2.27284 6.31345-2.27284 4.04061 2.0203 1.51523 4.29314c-2.52538 2.27285-10.10152 8.5863-11.11168 8.08122-1.01015-.50507-1.01015-4.54568-.25254-5.80837.75762-1.26269 3.78808-4.04061 3.53554-4.29315z" fill="#e66331" stroke-width="2.5"/><rect fill="#fff" height="164.1498" rx="1754.8759" ry="0" stroke-width="3" width="140.91628" x="187.88837" y="85.847664"/><path d="m233.85031 239.39085s4.79823-2.02031 6.566-1.01016c1.76776 1.01016.25253 3.283-1.51523 3.78808-1.76777.50507-5.05077-2.52538-5.05077-2.77792z" fill="#e66331" stroke-width="2.5"/><path d="m269.96327 219.94541s1.26269 14.64721.25254 16.92006c-1.01016 2.27284-4.29315 8.58629-6.566 9.09137-2.27284.50508-7.3236-1.76777-5.3033-3.78807 2.02031-2.02031 4.29315-5.55584 4.29315-8.5863s1.01015-6.81853 3.53554-8.5863c2.52538-1.76776 3.78807-4.79822 3.78807-5.05076z" fill="#e66331" stroke-linecap="round" stroke-linejoin="round" stroke-width="2.5"/><path d="m263.90235 214.89465s5.80838-6.56599 6.06092-9.34391-1.51523-6.31346 2.52538-2.77792c4.04061 3.53553 2.52538 7.07107 1.51523 8.08122s-4.29315 5.3033-6.31346 6.06091c-2.0203.75762-3.53553 2.52538-4.79822 1.26269s1.01015-2.77792 1.01015-3.28299z" fill="#e66331" stroke-linecap="round" stroke-linejoin="round" stroke-width="2.5"/><path d="m249.25514 232.82486s3.53553-3.283 5.80838-4.79823c2.27284-1.51523 2.27284 1.01015.25254 4.29315-2.02031 3.283-5.80838 9.34391-7.07107 10.6066s-3.283 0-3.283-2.77792 4.29315-6.81853 4.29315-7.3236z" fill="#e66331" stroke-linecap="round" stroke-linejoin="round" stroke-width="2.5"/><path d="m254.3059 241.28488s.63135 3.15673-.75761 3.15673-3.6618-2.02031-2.27284-3.03046 3.03045 0 3.03045-.12627z" fill="#e66331" stroke-linecap="round" stroke-linejoin="round" stroke-width="2.5"/><path d="m256.95755 233.4562c1.38896-1.51523 2.14658-.88388 2.14658.37881s-1.01015 1.89403-1.6415 1.38896c-.63134-.50508-.37881-1.89404-.50508-1.76777z" fill="#e66331" stroke-linecap="round" stroke-linejoin="round" stroke-width="2.5"/><path d="m273.11999 227.90036c2.02031-3.40926 3.91435-2.90419 3.78808-.37881-.12627 2.52539.3788 6.18719-1.01016 6.31346s-3.15672-.75762-3.15672-2.65165c0-1.89404.50507-3.283.3788-3.283z" fill="#e66331" stroke-linecap="round" stroke-linejoin="round" stroke-width="2.5"/><path d="m275.89791 211.61165c.63135 0 2.02031 1.6415 1.38896 3.03046-.63134 1.38896-2.77792 2.27284-3.15672.88388-.37881-1.38896 1.76776-3.91434 1.76776-3.91434z" fill="#e66331" stroke-linecap="round" stroke-linejoin="round" stroke-width="2.5"/><path d="m289.4087 223.48094c2.39912-2.27284 4.54569-1.64149 3.78808.25254-.75762 1.89404-2.39912 6.31346-3.53554 3.78807-1.13642-2.52538 0-3.91434-.25254-4.04061z" fill="#e66331" stroke-linecap="round" stroke-linejoin="round" stroke-width="2.5"/><path d="m282.71644 242.0425c2.02031-2.27285 1.13643-3.53554 3.91435-5.93465 2.77791-2.39911 4.67195-3.78807 4.04061-.88388-.63135 2.90419-3.15673 7.19733-3.283 9.34391-.12627 2.14657-3.53553 3.6618-5.42957 3.6618s-5.17703-.37881-3.15673-2.14657c2.02031-1.76777 4.16688-4.04061 3.91434-4.04061z" fill="#e66331" stroke-linecap="round" stroke-linejoin="round" stroke-width="2.5"/><path d="m298.75262 222.47079s.75761-2.52538 3.53553-3.40926c2.77792-.88389 3.78807 2.90419 2.77792 4.54568-1.01015 1.6415-.75762 2.77792 1.13642 3.91434 1.89404 1.13643 2.90419 4.04061 2.14657 6.69227-.75761 2.65165-2.0203 5.80837-5.42956 6.06091-3.40927.25254-5.80838-1.89404-2.90419-3.6618 2.90419-1.76777 2.65165-6.06092-.37881-5.55584-3.03046.50507-5.93465-1.26269-5.05076-3.283.88388-2.0203 4.29314-5.17703 4.16688-5.3033z" fill="#e66331" stroke-linecap="round" stroke-linejoin="round" stroke-width="2.5"/><path d="m309.73802 215.52599c2.39912-2.27284 4.41942 1.6415 4.41942 3.66181 0 2.0203 0 4.92449-1.89403 4.79822-1.89404-.12627-4.04061.63135-4.04061-2.65165s1.64149-5.68211 1.51522-5.80838z" fill="#e66331" stroke-linecap="round" stroke-linejoin="round" stroke-width="2.5"/><path d="m318.70313 212.36927c1.76777-.37881 3.28299 2.39911 2.0203 3.53553s-4.16688 1.89404-4.29314-.12627c-.12627-2.0203 2.39911-3.28299 2.27284-3.40926z" fill="#e66331" stroke-linecap="round" stroke-linejoin="round" stroke-width="2.5"/><path d="m320.4709 219.31407c1.51522-.50508 3.53553 2.14657 2.39911 3.6618s-4.04061 3.15673-4.16688.63134c-.12627-2.52538 1.89403-4.16688 1.76777-4.29314z" fill="#e66331" stroke-linecap="round" stroke-linejoin="round" stroke-width="2.5"/><path d="m312.89475 226.1326c2.14658-1.01016 5.05076-.50508 3.78807 1.01015s-4.16688 3.6618-4.54568 1.89403c-.37881-1.76776.88388-2.90418.75761-2.90418z" fill="#e66331" stroke-linecap="round" stroke-linejoin="round" stroke-width="2.5"/><path d="m262.13459 97.211876c6.31345-.252538 3.03045 3.030454 6.81853 5.808374 3.78807 2.77792 13.13198 10.85914 13.88959 12.87945.75762 2.0203-2.27284 6.58385-.75761 9.1003s3.53553 8.32483 1.01015 10.59767c-2.52538 2.27285-6.44304 6.68283-3.09525 9.40233s7.13586 4.23473 7.64094 6.50758c.50507 2.27284 4.04061 4.54568 6.56599 5.80837s2.34376 5.01403.79307 7.68405-3.31845 12.26647-1.04561 14.53931 7.82868 1.76777 8.33376 5.05076c.50508 3.283 0 7.07107 3.283 9.59645 3.28299 2.52538 5.06963 9.09137 4.42885 11.61676-.64078 2.52538-4.42885 8.29192-6.19662 9.19672s-9.34391-.61043-11.36422.65226c-2.0203 1.26269-4.17759 3.283-5.80837 7.82868-1.63079 4.54569-1.51523 12.37437-2.77792 13.38453-1.2627 1.01015-6.06092 5.3033-7.07107 3.78807s1.26269-4.23601 2.0203-5.65354c.75762-1.41753 2.02031-6.47212 2.02031-8.23606s1.83256-5.55584.50507-7.32361c-1.32748-1.76776 3.03046-11.36421.75762-13.63705-2.27284-2.27285-12.37437-11.11168-13.13198-12.62691-.75762-1.51523-2.27285-1.26269-2.27285 1.26269s1.01015 9.34391-.75761 11.11168c-1.76777 1.76776-9.34391 9.09137-11.11168 9.59645-1.76777.50507-4.29315-.75762-2.02031-3.53554 2.27285-2.77792 3.283-7.57614-.50507-5.3033s-4.54569 8.5863-7.32361 6.56599c-2.77792-2.0203-5.55584-4.04061-8.08122-1.01015s-7.3236 13.13198-9.84899 14.39467c-2.52538 1.26269-8.83883 1.26269-9.59644 3.283-.75762 2.0203-1.76777 4.04061-3.283 5.80838-1.51523 1.76776-4.04061-.25254-4.04061-3.53554 0-3.28299 3.03046-8.08122 3.03046-11.11167 0-3.03046.50507-6.81853 2.27284-10.10153s.50508-6.06092.25254-9.34391c-.25254-3.283-1.76777-14.14214 1.76777-15.65737 3.53553-1.51522 7.82868-3.28299 7.82868-5.55583 0-2.27285 3.28299-.25254 5.3033-1.01016 2.0203-.75761.25254-4.79822 3.78807-8.33376 3.53553-3.53553 1.01015-12.87944 3.78807-16.41497 2.77792-3.53554 5.05077-11.61676 3.03046-14.39468-2.0203-2.77792-2.27284-5.55584.50508-8.08122s2.77792-11.86929.50507-14.64721c-2.27284-2.77792-3.53553-8.33376 0-9.59645 3.53554-1.26269 3.03046-6.31345 5.55584-6.31345s7.07107 1.01015 8.83884-1.01016c1.76776-2.020301 5.80837-3.030454 5.55584-3.030454z" fill="#e66331" stroke-width="2.5"/></g><path d="m146.03032 161.89252h-3.63538v-19.6919c-.00001-1.58421-.55812-2.92839-1.67431-4.03253-1.11623-1.10411-2.46608-1.65617-4.04956-1.65619-1.58424.00002-2.92842.55208-4.03254 1.65619-1.10412 1.10414-1.65619 2.44832-1.65618 4.03253 2.59203.02345 4.57213.50923 5.9403 1.45734 1.36816.94813 2.54406 2.63435 3.52771 5.05865-1.17555.69581-2.44739 1.04371-3.81555 1.0437-2.11231.00001-3.90033-.73204-5.36407-2.19616-1.46375-1.4641-2.19562-3.24023-2.19562-5.32837 0-2.11156.73187-3.90544 2.19562-5.38165 1.46374-1.47618 3.25176-2.21428 5.36407-2.2143 2.08813.00002 3.86425.73208 5.32837 2.19617 1.4641 1.46413 2.19615 3.25233 2.19617 5.36462v17.78357h1.87097v1.90833zm-7.9552-14.11194c-1.05616-2.85644-3.37208-4.2246-6.94775-4.10449.31127 1.17628 1.00103 2.17841 2.06927 3.00641 1.06823.82801 2.22637 1.24201 3.47443 1.242.69579.00001 1.1638-.04797 1.40405-.14392l0 0z" fill="#fff" stroke="#fff" stroke-linecap="round" stroke-linejoin="round" transform="matrix(.8738445 -.4862055 .4862055 .8738445 0 0)"/><path d="m167.69185 139.19215c-.00001 2.08815-.73188 3.87013-2.19562 5.34595-1.46375 1.47584-3.23969 2.21375-5.32782 2.21375-1.00855 0-1.99255-.20398-2.95203-.61194l.68335-1.72815c.74414.33619 1.51209.50428 2.30384.50427 1.58422.00001 2.93444-.56396 4.05066-1.69189 1.1162-1.12792 1.6743-2.47192 1.67431-4.03199-.00001-1.58421-.55811-2.92839-1.67431-4.03253-1.11622-1.10411-2.46644-1.65617-4.05066-1.65619-1.5835.00002-2.93335.55813-4.04956 1.67432-1.11621 1.11623-1.67432 2.46644-1.67432 4.05066h-1.83581c0-2.08812.73205-3.87028 2.19616-5.3465 1.46411-1.47617 3.24023-2.21427 5.32837-2.21429 2.08813.00002 3.86407.73207 5.32782 2.19616 1.46374 1.46413 2.19561 3.24025 2.19562 5.32837l0 0z" fill="#fff" stroke="#fff" stroke-linecap="round" stroke-linejoin="round" transform="matrix(.8909471 -.4541071 .4541071 .8909471 0 0)"/><path d="m232.95053 44.964119c-.00002 2.088145-.73207 3.870126-2.19617 5.345947-1.46412 1.475836-3.25233 2.213751-5.36462 2.213745-2.06397.000006-3.82782-.732049-5.29156-2.196167-1.46375-1.464102-2.19562-3.239857-2.19562-5.32727 0-2.08812.73187-3.870284 2.19562-5.346497 1.46374-1.476176 3.22759-2.214274 5.29156-2.214294 2.11229.00002 3.9005.732075 5.36462 2.196167 1.4641 1.464128 2.19615 3.240249 2.19617 5.328369l0 0zm-1.80066 0c-.00001-1.584214-.55189-2.92839-1.65564-4.032532-1.10377-1.104108-2.44776-1.65617-4.03198-1.656189-1.58424.000019-2.92823.552081-4.03198 1.656189-1.10377 1.104142-1.65565 2.448318-1.65564 4.032532-.00001 1.56007.55187 2.89802 1.65564 4.013855 1.10375 1.115852 2.44774 1.673774 4.03198 1.673767 1.58422.000007 2.92821-.557915 4.03198-1.673767 1.10375-1.115835 1.65563-2.453785 1.65564-4.013855l0 0z" fill="#fff" stroke="#fff" stroke-linecap="round" stroke-linejoin="round"/><path d="m267.77219 41.428589c-.00003 2.088145-.7319 3.870126-2.19562 5.345947-1.46377 1.475836-3.22763 2.213751-5.29157 2.213745-1.10451.000006-2.11269-.216059-3.02453-.648193l.7196-1.691895c.71995.312019 1.48826.468025 2.30493.468018 1.58348.000007 2.92124-.551872 4.01331-1.65564 1.09201-1.10375 1.63803-2.447742 1.63806-4.031982-.00003-1.560044-.55209-2.892135-1.65619-3.996277-1.10415-1.104108-2.43587-1.65617-3.99518-1.656189-1.56008.000019-2.89217.546039-3.99627 1.638062-1.10415 1.092056-1.65621 2.43019-1.65619 4.014404-.00002 2.088145-.73207 3.870126-2.19617 5.345947-1.46412 1.475836-3.24024 2.213751-5.32837 2.213745-2.06397.000006-3.82782-.732049-5.29156-2.196167-1.46375-1.464102-2.19562-3.239857-2.19562-5.32727 0-2.06395.73187-3.834029 2.19562-5.310242 1.46374-1.476177 3.22759-2.214274 5.29156-2.214294 1.39233.00002 2.67644.353962 3.85236 1.061828 1.17589.707905 2.10002 1.662066 2.7724 2.862488 1.41575-2.616192 3.59983-3.924296 6.55224-3.924316 2.06394.00002 3.8278.732075 5.29157 2.196167 1.46372 1.464128 2.19559 3.228164 2.19562 5.292114l0 0zm-14.93921 0c-.00002-1.584214-.55208-2.922348-1.65619-4.014404-1.10414-1.092023-2.44831-1.638043-4.03253-1.638062-1.58351.000019-2.92127.546039-4.01331 1.638062-1.09204 1.092056-1.63806 2.43019-1.63806 4.014404 0 1.58424.54602 2.928232 1.63806 4.031982 1.09204 1.103768 2.4298 1.655647 4.01331 1.65564 1.58422.000007 2.92839-.551872 4.03253-1.65564 1.10411-1.10375 1.65617-2.447742 1.65619-4.031982l0 0z" fill="#fff" stroke="#fff" stroke-linecap="round" stroke-linejoin="round"/><path d="m299.78079-79.845032c-.00003 2.088146-.7319 3.870126-2.19562 5.345948-1.46377 1.475836-3.22762 2.21375-5.29156 2.213745-1.10451.000005-2.11269-.216059-3.02454-.648194l.71961-1.691894c.71995.312019 1.48826.468024 2.30493.468017 1.58347.000007 2.92124-.551872 4.01331-1.655639 1.09201-1.10375 1.63803-2.447743 1.63806-4.031983-.00003-1.560044-.55209-2.892135-1.65619-3.996277-1.10415-1.104108-2.43588-1.65617-3.99518-1.656189-1.56008.000019-2.89217.546039-3.99628 1.638062-1.10414 1.092057-1.6562 2.43019-1.65619 4.014404-.00001 2.088146-.73207 3.870126-2.19616 5.345948-1.46413 1.475836-3.24025 2.21375-5.32837 2.213745-2.06397.000005-3.82783-.73205-5.29157-2.196167-1.46374-1.464103-2.19562-3.239858-2.19561-5.327271-.00001-2.06395.73187-3.834029 2.19561-5.310242 1.46374-1.476176 3.2276-2.214274 5.29157-2.214294 1.39232.00002 2.67644.353963 3.85235 1.061829 1.17589.707904 2.10003 1.662066 2.7724 2.862487 1.41576-2.616191 3.59984-3.924296 6.55225-3.924316 2.06394.00002 3.82779.732075 5.29156 2.196167 1.46372 1.464128 2.19559 3.228164 2.19562 5.292114l0 0zm-14.93921 0c-.00001-1.584214-.55207-2.922347-1.65619-4.014404-1.10413-1.092023-2.44831-1.638043-4.03253-1.638062-1.5835.000019-2.92127.546039-4.0133 1.638062-1.09205 1.092057-1.63807 2.43019-1.63806 4.014404-.00001 1.58424.54601 2.928233 1.63806 4.031983 1.09203 1.103767 2.4298 1.655646 4.0133 1.655639 1.58422.000007 2.9284-.551872 4.03253-1.655639 1.10412-1.10375 1.65618-2.447743 1.65619-4.031983l0 0z" fill="#fff" stroke="#fff" stroke-linecap="round" stroke-linejoin="round" transform="matrix(.9101015 .4143854 -.4143854 .9101015 0 0)"/><path d="m315.67997 37.645771c-.00001 1.463806-.51319 2.712987-1.53953 3.747549-1.02636 1.034572-2.27991 1.551856-3.76064 1.551852-1.44686.000004-2.68333-.513172-3.70943-1.53953-1.02609-1.026346-1.53914-2.271164-1.53914-3.734456 0-1.463788.51305-2.713098 1.53914-3.747934 1.0261-1.034811 2.26257-1.552223 3.70943-1.552237 1.48073.000014 2.73428.51319 3.76064 1.539529 1.02634 1.026365 1.53952 2.271439 1.53953 3.735227l0 0zm-1.26228 0c0-1.110546-.38688-2.052823-1.16061-2.826835-.77375-.773988-1.7159-1.160988-2.82645-1.161001-1.11056.000013-2.05271.387013-2.82645 1.161001-.77375.774012-1.16062 1.716289-1.16062 2.826835 0 1.093621.38687 2.031534 1.16062 2.813742.77374.782221 1.71589 1.173329 2.82645 1.173324 1.11055.000005 2.0527-.391103 2.82645-1.173324.77373-.782208 1.16061-1.720121 1.16061-2.813742l0 0z" fill="#fff" stroke="#fff" stroke-linecap="round" stroke-linejoin="round" stroke-width=".701007"/><path d="m267.29807-63.112c0 1.800319-.6601 3.360376-1.98029 4.680176-1.32019 1.319845-2.88006 1.979757-4.67963 1.979737-1.77611.00002-3.33617-.665934-4.68017-1.997864-1.34398-1.331886-2.00389-2.8859-1.97974-4.662049.02345-1.872041.67128-3.450042 1.94348-4.734008 1.27223-1.283903 2.84437-1.92587 4.71643-1.925904 1.79957.000034 3.35944.659945 4.67963 1.979737 1.32019 1.319854 1.98029 2.879911 1.98029 4.680175l0 0zm-2.19617 0c0-1.248018-.43194-2.303986-1.29584-3.167907-.86389-.863861-1.91985-1.295806-3.16791-1.295838-1.29637.000032-2.37047.420075-3.22229 1.260132-.85179.840117-1.27769 1.907987-1.27771 3.203613.00002.62405.11977 1.2001.35926 1.72815 1.43995-1.152073 2.83191-1.716038 4.1759-1.691895.84009.047635 1.58423.20364 2.23242.468018.3838.191921 1.00782.599879 1.87207 1.223877.21607-.503881.3241-1.07993.3241-1.72815l0 0zm-1.47656 3.347535c-.98364-.936011-1.96765-1.367773-2.95203-1.295288-1.03197-.072485-2.0277.359277-2.98718 1.295288.86353.768333 1.84754 1.152488 2.95202 1.152465 1.10377.000023 2.0995-.384132 2.98719-1.152465l0 0z" fill="#fff" stroke="#fff" stroke-linecap="round" stroke-linejoin="round" transform="matrix(.9432367 .3321211 -.3321211 .9432367 0 0)"/><path d="m302.28815 57.815927-4.79823 7.828682 4.54569 2.77792" fill="none" stroke="#fff" stroke-linecap="round" stroke-linejoin="round" stroke-width="2.5"/><path d="m327.50702-75.244568-1.6919.648193c-.3838-1.152083-1.06165-2.06999-2.03356-2.753723-.97194-.683697-2.05812-1.025555-3.25855-1.025573-1.55933.000018-2.88502.539995-3.97705 1.619934-1.09204 1.079971-1.63806 2.399977-1.63806 3.960022 0 1.56007.54602 2.891977 1.63806 3.995727 1.09203 1.103768 2.41772 1.655647 3.97705 1.65564 1.08031.000007 2.07641-.288018 2.98828-.864075.91185-.576041 1.60802-1.355886 2.0885-2.339538l1.61939.683349c-.59987 1.320565-1.50569 2.376716-2.71747 3.168457-1.2118.791754-2.56184 1.187628-4.05011 1.187622-2.06397.000006-3.81592-.719964-5.25586-2.159912-1.43994-1.439932-2.15991-3.191884-2.15991-5.255859 0-2.08812.71997-3.858199 2.15991-5.310242 1.43994-1.452007 3.19189-2.178019 5.25586-2.178039 1.56005.00002 2.99413.456135 4.30225 1.368347 1.30809.912249 2.22581 2.112138 2.75317 3.59967l0 0z" fill="#fff" stroke="#fff" stroke-linecap="round" stroke-linejoin="round" transform="matrix(.9180385 .3964913 -.3964913 .9180385 0 0)"/><path d="m303.6412-151.42146-1.72814 1.00854c-.79248-1.87204-2.20862-2.80807-4.24842-2.8081-1.24804.00003-2.32799.45596-3.23987 1.36779-.91185.9119-1.36778 1.99185-1.36779 3.23987.00001 1.27225.45594 2.35824 1.36779 3.258.91188.8998 1.99183 1.34969 3.23987 1.34967.52809.00002 1.03199-.07176 1.51172-.21533l.50427 1.94348c-.67162.21608-1.3557.32412-2.05224.32409-1.79955.00003-3.34734-.64798-4.64337-1.94403-1.29601-1.29599-1.94402-2.84415-1.94403-4.64447.00001-1.84787.64198-3.41983 1.9259-4.71588 1.28395-1.29599 2.83778-1.94399 4.6615-1.94403 2.80811.00004 4.81238 1.26017 6.01281 3.7804l0 0z" fill="#fff" stroke="#fff" stroke-linecap="round" stroke-linejoin="round" transform="matrix(.8221359 .5692913 -.5692913 .8221359 0 0)"/><path d="m336.95532-96.679344c0 .840104-.27613 1.54213-.82837 2.106079-.55225.563979-1.24841.845961-2.0885.845947-.76758.000014-1.45734-.294053-2.06927-.882202-.61194-.588119-.90583-1.27806-.88166-2.069824.04761-.792463.3534-1.488629.91736-2.088501.56397-.599834 1.24182-.89976 2.03357-.89978.79248.00002 1.47674.299946 2.0528.89978.57604.599872.86407 1.296038.86407 2.088501l0 0zm.03516 8.891235c-.00001.815926-.27595 1.511909-.82782 2.087952-.55189.576055-1.24787.86408-2.08795.864075-.76758.000005-1.45734-.305964-2.06928-.917908-.61194-.611932-.8941-1.289971-.84649-2.034119.02416-.840079.31219-1.547964.86407-2.123657.55188-.575673 1.23578-.863514 2.0517-.863525.81591.000011 1.50585.293895 2.06982.881652.56396.587779.84594 1.289621.84595 2.10553l0 0zm-1.83582-8.891235c0-.264387-.11994-.504621-.3598-.720703-.23987-.216047-.49201-.324079-.75641-.324097-.6958.000018-1.0437.348284-1.0437 1.0448 0 .743424.3479 1.115128 1.0437 1.115112.74414.000016 1.11621-.371688 1.11621-1.115112l0 0zm.03626 8.891235c-.00001-.312003-.11408-.563956-.34223-.755859-.22815-.191886-.49823-.287833-.81024-.287842-.67163.000009-1.00745.347909-1.00744 1.043701-.00001.719978.34789 1.079963 1.0437 1.079956.74413.000007 1.1162-.359978 1.11621-1.079956l0 0z" fill="#fff" stroke="#fff" stroke-linecap="round" stroke-linejoin="round" transform="matrix(.8965094 .4430247 -.4430247 .8965094 0 0)"/><path d="m142.9772 121.74599c-1.00783 1.43995-2.41188 2.15992-4.21216 2.15991-1.36818.00001-2.53822-.46196-3.51013-1.38593-.97193-.92393-1.50587-2.06999-1.60181-3.43817-1.05616.45632-1.8783 1.15834-2.46643 2.10608-.58814.94777-.88221 1.97389-.8822 3.07837-.00001 1.17555.28802 2.23738.86407 3.18549.57605.94813 1.40423 1.65033 2.48456 2.10662.09594-1.34398.63592-2.46001 1.61993-3.34808.984-.88805 2.148-1.33208 3.49201-1.33209 1.75194.00001 3.1439.68409 4.1759 2.05225-.55226 1.48755-1.47035 2.67536-2.75427 3.56341-1.28395.88807-2.71803 1.3321-4.30225 1.33209-2.08741.00001-3.85712-.726-5.30914-2.17804-1.45203-1.45201-2.17804-3.22209-2.17804-5.31024 0-2.08739.72601-3.86918 2.17804-5.3454 1.45202-1.47617 3.22173-2.21427 5.30914-2.21429 1.60839.00002 3.0606.44405 4.35663 1.33209 1.29601.88808 2.20805 2.10006 2.73615 3.63593l0 0zm-2.016-.18018c-1.1045-1.94383-2.77259-2.91575-5.00427-2.91577-.21607.00002-.43213.0121-.64819.03625-.00001.93606.33599 1.77596 1.00799 2.51972.67199.74379 1.48809 1.11568 2.44831 1.11566.8159.00002 1.54796-.25194 2.19616-.75586l0 0zm-.14392 5.68872c-.62403-.45629-1.30811-.68444-2.05224-.68445-.93605.00001-1.74006.32997-2.41205.98987-.67201.65992-1.02009 1.46998-1.04425 2.43018h.64819c2.13573 0 3.75585-.91186 4.86035-2.7356l0 0z" fill="#fff" stroke="#fff" stroke-linecap="round" stroke-linejoin="round" transform="matrix(.9289038 -.3703212 .3703212 .9289038 0 0)"/></g></svg>