<svg enable-background="new 0 0 500 333" height="333" viewBox="0 0 500 333" width="500" xmlns="http://www.w3.org/2000/svg"><path d="m.000134-.000389h500v333h-500z" fill="#0051ba"/><g stroke="#f9dd16" stroke-linecap="round" stroke-linejoin="round"><path d="m196.518 88s-7.322-.089-9.464.179c-2.143.268-4.197.982-8.393 4.107s-6.518 8.393-6.518 8.393 1.56-1.026 5.178-2.232c2.411-.804 4.732-.982 8.304-.803 2.964.148 6.964 1.161 9.107 2.232s5.268 2.321 5.625 3.929c.357 1.607.447 3.839.179 6.071s-2.321 6.25-3.214 7.411-5.803 6.786-6.25 8.036c-.446 1.25-2.053 4.375-1.964 7.946.089 3.572-.178 8.75 2.5 12.768 2.679 4.018 6.607 9.732 10.089 12.679 3.482 2.946 18.929 14.196 18.929 14.196" fill="none" stroke-width="2.5"/><path d="m180.089 97.464s2.768-1.429 5-1.696c2.232-.268 10.893.536 10.893.536" fill="none" stroke-width="2.5"/><path d="m192.5 87.732s-.268-5.178 0-6.607 2.321-4.464 4.732-5.268c2.411-.803 8.036-5.625 8.036-5.625l-.179 7.768s1.518-3.036 2.589-3.839c.863-.647 3.676-1.985 5.357-3.036 1.483-.927 5.536-6.339 5.536-6.339v8.125s-.089 2.054-.446 2.946c-.357.893-1.786 2.5-1.786 2.5" fill="none" stroke-width="2.5"/><path d="m226.786 68.714s-.982 2.5-.625 4.821 4.286 5.446 4.732 7.321.536 6.786.536 6.786" fill="none" stroke-width="2.5"/><path d="m218.661 71.571s4.643-3.214 5.446-5.357c.804-2.143-.268-7.946 1.072-10.893 1.339-2.946 5.982-6.071 5.982-6.071s-3.571 3.304-3.482 5.804 1.964 4.732 2.857 5.982 2.054 3.75 2.232 6.339 0 9.107 0 9.107 2.143-2.857 3.393-3.75 3.75-1.696 4.286-1.518-.268 2.678-1.161 3.839-1.071 7.946-1.25 9.643-.804 5.179-1.964 6.518-2.232 2.679-1.696 3.839 2.411 3.125 2.411 4.464-.804 9.286-.625 10.446 4.464 5.893 4.464 5.893-2.232-.446-3.929.179c-1.696.625-.714 2.679.447 3.571 1.161.893 2.946 2.143 4.018 2.232s2.411-.357 2.411-.357-3.303 2.054-4.375 2.679c-1.071.625-5.446 2.411-5.446 2.411" fill="none" stroke-width="2.5"/><path d="m223.839 79.696s-3.571 3.571-6.964 4.196-8.75-.803-10.446-.982c-1.697-.179 1.563 1.39 4.107 3.571 1.25 1.072 1.624 1.71 2.5 2.054s1.25.268 3.036.179 2.857-.804 4.018-1.518 3.661-3.571 3.661-3.571" fill="none" stroke-width="2.5"/><path d="m197.143 87.732c.178-1.25.268-2.053 2.589-3.303 3.657-1.969 6.339-2.589 8.304-1.607 1.964.982 1.875 2.857.982 3.214s-3.393 1.339-3.929 2.679c-.464 1.161.268 2.946 1.696 3.571 1.251.547 4.464-.357 4.643.179.178.536-2.947 2.857-5.357 2.589-2.411-.268-6.875-1.697-7.946-3.572s-.982-3.75-.982-3.75z" fill="#f9dd16" stroke-width="2.5"/><path d="m197.143 101.036s3.125-.268 6.696 1.607 3.571 3.571 9.107 3.928 9.643-2.768 10.714-4.018 2.321-2.947 2.143-3.393c-.179-.446-2.679-.536-2.054-2.054s2.054-1.607 2.321-4.018c.268-2.411.179-5.357.179-5.357s-1.786 3.661-2.946 4.197-3.572.446-5.268 2.768-.179 2.589-2.946 4.911c-2.768 2.322-5 3.482-6.786 3.482s-4.018-.179-4.018-.179" fill="#f9dd16" stroke-width="2.5"/><g fill="none"><path d="m236.25 103.268s-2.857-.447-4.821.178-6.161 4.375-7.232 5.089-4.732 2.232-7.768 2.232-8.393-1.786-10.089-2.232-5.625-.446-5.625-.446" stroke-width="2"/><path d="m236.071 110.857s-5.178-.268-6.161.447c-.982.714-3.929 3.393-5.982 3.661-2.054.268-5.982.446-7.322-.446-1.339-.893-4.196-.089-6.071.357s-5.179.893-7.143 0-4.018-2.232-4.018-2.232" stroke-width="2"/><path d="m233.304 126.929s-4.375-1.25-6.072-1.697c-1.696-.446-4.196-1.25-6.428-1.518s-5.447-.446-6.518-1.071-4.643-2.411-6.607-2.411-4.464-.536-6.25-.982-5.268-.446-5.268-.446" stroke-width="2"/><path d="m207.768 120.411s3.303-1.518 5.982-1.518 6.964.536 10.089 1.071 8.125.446 9.464.357 3.661-1.071 3.661-1.071" stroke-width="2"/><path d="m201.25 119.786s-.625 5.714-2.232 7.143-3.75 2.857-4.911 3.125-4.821.179-4.821.179" stroke-width="2"/><path d="m234.107 126.482s9.018 3.929 10.179 4.822 5.179 5.268 6.339 7.143 3.304 3.214 4.285 5c.982 1.786 1.25 5.625 1.25 5.625" stroke-width="2"/><path d="m229.286 142.643s7.232.09 12.5.893c5.268.804 11.25 2.768 12.857 4.286s7.5 7.143 8.125 8.661 1.875 6.428 1.875 6.428" stroke-width="2"/><path d="m248.571 135.321s5.894-2.857 8.661-3.036c2.768-.178 6.518-.178 8.393.536s9.196 6.607 10.625 7.679 3.75 2.857 4.821 4.554.804 4.911.804 4.911" stroke-width="2"/><path d="m255.893 147.554s7.947-.714 12.947-.357 9.018 1.607 12.5 2.946c3.481 1.34 5.803 2.143 6.964 4.018s1.25 3.661 1.25 3.661" stroke-width="2"/><path d="m261.34 154.875s9.464-.804 14.82-.268c5.357.535 10.805 1.607 11.965 2.5s5.268 3.75 5.982 5 1.428 4.643 1.428 4.643" stroke-width="2"/><path d="m264.732 163.089s7.321-.804 12.232-.447c4.91.357 12.5 1.161 15.893 3.125 3.393 1.965 4.285 2.59 5.714 3.929s3.036 3.214 3.036 3.214 8.393-7.053 10.179-8.928c1.785-1.875 6.518-7.679 8.035-8.75 1.518-1.072 6.161-3.75 6.161-3.75l-7.769.089" stroke-width="2"/><path d="m295.268 164.161c.715-.089 5.447-.536 8.661-1.875s11.25-6.786 12.321-8.036 3.036-6.696 4.107-8.125 4.196-4.196 4.196-4.196l-5.268.268s3.125-4.018 4.375-7.232 2.678-9.821 2.856-14.375.357-13.125-.268-16.607-3.571-9.196-3.75-11.339-.357-4.643-.357-7.143.804-4.732.804-4.732-4.107 2.768-5.893 5.179-4.643 7.054-4.554 10.179.089 7.054 1.696 7.857c1.607.804 2.5.982 3.75.982s3.75.089 4.196 1.875.625 5.625-.268 7.679c-.893 2.053-4.286 3.75-5.714 5.178-1.429 1.429-2.5 5.536-2.054 6.875s1.071 4.375 3.214 5 2.5 3.214.09 5.179c-2.411 1.964-6.161 2.5-8.125 5.179-1.965 2.679-2.857 4.643-2.054 6.875.804 2.232.714 5.714-.536 6.696s-7.231 4.464-8.481 5.179c-1.25.714-4.107 1.786-4.107 1.786" stroke-width="2"/><path d="m316.25 87.286s.446-5.536-.357-8.75-1.964-6.607-4.196-10-7.231-9.107-9.196-10.268-7.857-3.839-7.857-3.839.179 5.357 0 6.786c-.178 1.429-2.232 5.268-3.125 6.786s-4.821 7.054-5.982 8.661c-1.16 1.607-2.589 5.536-1.875 7.679.715 2.143 3.93 4.196 4.644 6.25s.179 3.929-.357 5.089-2.411 4.286-2.411 4.286" stroke-width="2"/><path d="m302.768 58.357s1.161 2.232 0 5.625c-1.16 3.393-4.018 6.161-4.91 7.5s-4.018 4.554-4.286 6.429 0 7.321 0 7.321" stroke-width="2"/><path d="m265.268 132.821c.357-.089 3.304-3.571 3.572-4.821s.714-3.661.445-4.375c-.268-.714-2.32-2.589-2.32-2.589s5.625.893 6.785 2.054 3.482 4.911 3.304 6.071-1.071 4.643-1.696 5.804-2.322 3.214-2.322 3.214" stroke-width="2"/><path d="m275.357 124.786c.089-.357 2.321-3.929 2.946-7.054s.981-7.053.446-10.536c-.535-3.482-1.518-5.982-2.679-7.411s-4.375-3.482-4.375-3.482 4.196-.804 6.964.089c2.769.893 7.322 3.393 7.947 4.196s3.303 3.929 4.553 5 2.322 3.571 2.322 3.571.982-2.589 2.768-3.214 4.91-.714 5.625-.178-1.071 4.375-1.429 5c-.356.625-1.875 3.214-1.875 5.089s-.714 3.839.089 4.197c.805.357 3.75-1.786 4.555-2.143.803-.357 6.249-.625 6.249-.625s-1.785 1.607-2.589 3.482-2.321 4.821-2.679 6.339c-.356 1.518-.893 6.339-.268 6.964s2.768-.357 3.929.179c1.16.536.356 2.321-.446 2.857-.804.535-3.304 2.589-4.107 5-.804 2.41-.446 5.535-1.607 6.964s-3.304 4.286-4.643 5.446c-1.339 1.161-6.519 4.375-6.519 4.375" stroke-width="2"/><path d="m297.232 79.875s2.946-2.143 4.643-.625c1.696 1.518 3.125 4.107 2.232 6.875s-4.554 6.696-5.536 8.571c-.981 1.875-2.589 3.839-2.589 5.357s.268 5.714.268 5.714" stroke-width="2"/><path d="m281.16 145.946c2.769-.625 6.161-3.839 6.786-5.179.625-1.339 3.571-6.964 2.589-9.643-.981-2.679-2.589-4.732-5.178-4.464-2.59.268-3.661 2.947-3.304 3.929.356.982 2.589 3.214 2.411 5.089-.18 1.875-.357 4.286-1.607 5s-4.018 2.054-4.018 2.054" stroke-width="2"/><path d="m291.16 132.107c.536-.357 2.68-1.518 3.93-1.875s4.82-.893 4.82-.893-2.678 2.232-3.75 4.643c-1.07 2.41-1.518 5.714-.893 6.964s.447 3.125.09 4.196c-.357 1.072-3.304 4.822-3.929 5.715s-3.304 3.214-3.304 3.214" stroke-width="2"/><path d="m294.465 130.768c-.269-.625-1.34-3.393-1.25-6.607.089-3.214 1.695-9.107 1.695-9.107s-2.053 1.875-2.589 2.857-2.946 4.732-2.946 4.732-.357-5.804-.893-6.964c-.536-1.161-3.304-4.822-4.197-5.089-.893-.268-5-2.321-5-2.321" stroke-width="2"/><path d="m272.426 137.346c-2.146-.316-7.576-.758-11.364-.821s-10.986.694-10.986.694" stroke-width="2"/><path d="m194.464 130.232s2.232 3.125 1.696 5.357-1.786 4.107-2.768 4.821-3.304 2.679-3.304 2.679" stroke-width="2"/><path d="m193.929 140.054c.625.357 3.036 1.875 3.928 4.375.893 2.5.982 5.179.714 6.25s-.803 3.571-.803 3.571" stroke-width="2"/><path d="m195.625 137.821s4.643-.357 6.25-1.339 2.946-3.036 2.321-4.822-5.268-4.554-5.268-4.554" stroke-width="2"/><path d="m207.589 120.411s.804 3.036.446 5.179c-.357 2.143-.714 3.393-1.607 4.196-.893.804-2.143 1.964-2.143 1.964" stroke-width="2"/><path d="m220.536 173.179s-.357 1.786 1.429 3.661 10.179 8.57 12.054 10.268c1.875 1.696 5.982 4.821 7.143 6.964 1.161 2.144 1.964 4.019 1.161 5.894s-1.071 3.125-3.661 4.731c-2.589 1.607-5 2.144-6.25 4.464-1.25 2.322-1.161 6.161-1.161 6.161s1.071-2.054 2.857-3.214c1.786-1.161 2.947-1.697 6.339-1.697 3.393 0 5.625.536 5.625.536" stroke-width="2"/><path d="m245.714 172.465s-2.054.803-2.232 3.303.447 6.072 3.125 7.768c2.679 1.697 7.411 5.805 7.947 6.786.536.982 1.606 6.071.893 8.661-.714 2.589-3.839 6.518-4.731 7.857-.894 1.339-3.84 3.125-4.644 5-.803 1.875-1.25 4.731-1.25 4.731s.714-1.339 4.107-2.679c3.393-1.339 11.161-.893 12.946-.714s5.893.804 8.66 2.054c2.769 1.25 4.019 3.66 3.84 3.214s.268-3.929-.893-5.446c-1.161-1.518-4.375-3.84-5.982-5.179s-2.143-2.768-.893-4.731c1.25-1.965 4.018-6.34 5.357-7.322s2.143-1.785 3.035-1.785 1.696.982 1.696.982" stroke-width="2"/><path d="m272.5 195.143c-.09-.803.804-3.482 1.785-5.178.982-1.697 3.036-3.482 5.09-4.107s4.375-.804 5.268-.715c.893.09 2.947 1.429 2.5.893-.446-.535-3.303-3.57-6.16-3.57s-4.554.268-6.697 1.606c-2.143 1.339-3.66 4.732-4.195 6.339-.536 1.607-3.394 6.965-3.394 6.607s1.964-2.232 3.125-2.41c1.16-.179 2.857.357 2.678.535z" stroke-width="2"/><path d="m281.785 182.196s3.305-3.304 5.982-4.731c2.679-1.43 5.179-2.322 7.857-2.59s5.179-.268 5.982.179c.803.446 2.41 1.964 2.41 1.964l-2.321-4.107" stroke-width="2"/><path d="m297.143 174.25c-.893-.179-3.928-1.34-10.089-1.25s-10.269.446-12.679 2.946-4.554 4.644-4.643 6.786c-.09 2.143 1.696 3.839 1.696 3.839" stroke-width="2"/><path d="m241.696 201.66s2.232-2.231 3.929-2.231 3.571.179 4.554.804c.981.625 2.768 3.482 2.768 3.482" stroke-width="2"/><path d="m255.893 195.59c.982.625 1.786 2.231 3.215 1.964 1.428-.269 3.303-.446 3.035 1.429s-.535 4.196-1.696 5.357c-1.161 1.16-3.304 3.125-3.393 4.285s-.536 4.196-.536 4.196" stroke-width="2"/><path d="m262.143 198.268s1.607-2.768 1.25-5.625-3.75-5.089-4.285-6.428c-.536-1.34-.893-4.019.268-5.536 1.16-1.519 5.357-4.554 7.321-5.089 1.964-.536 4.375-1.607 5.536-1.697 1.16-.089 4.196.536 4.196.536s-6.875-2.144-8.394-2.679c-1.518-.535-7.5-1.785-10.893-2.5s-9.375-1.965-13.661-2.143c-4.286-.179-9.464-.893-12.946-1.786s-11.964-5-13.839-6.339c-1.875-1.34-5.536-4.465-5.536-8.036s.268-8.661 1.964-10.536 4.821-5.089 5-6.786-.268-2.946-.982-5-.982-5.536-.982-5.536" stroke-width="2"/><path d="m229.375 142.732c.625-.447 1.964-2.322 2.321-3.929s-.803-5.089-2.321-6.518c-1.518-1.428-4.554-3.571-6.339-4.196s-4.732-1.875-5.804-1.339c-1.071.536-5.893 3.393-6.696 4.375s-2.679 5.089-2.768 6.071 3.75 7.143 3.75 7.143" stroke-width="2"/><path d="m209.911 132.107c-.089-.715.179-1.34-.714-1.875-.893-.536-3.125-.09-3.125-.09" stroke-width="2"/><path d="m207.411 137.821s-2.768.179-3.304 1.339c-.536 1.161-1.964 1.786-.714 4.554s2.411 5.446 3.303 6.875c.893 1.428 1.607 2.232 2.5 2.321s1.964.268 1.964.268" stroke-width="2"/><path d="m203.304 135.143-.536 6.25" stroke-width="2"/><path d="m203.125 144.071s-1.161-.089-2.054.446c-.893.536-2.321 2.59-2.321 2.59" stroke-width="2"/><path d="m198.393 152.464c.357 0 3.571-.089 4.732 1.161s1.607 2.946 1.875 4.018.982 4.375.982 4.375" stroke-width="2"/><path d="m209.107 153.089s-2.589-1.161-3.482-.714-1.071 3.393-1.071 3.393" stroke-width="2"/><path d="m206.429 160.946s3.214-1.161 4.643-.179 1.964 2.232 2.232 3.304c.268 1.071.089 3.036.089 3.036" stroke-width="2"/><path d="m212.946 155.5s-.803 1.875-.714 3.125.357 3.929.357 3.929" stroke-width="2"/><path d="m213.571 165.143s4.822-1.16 6.161-.268c1.339.893 4.107 2.59 4.554 4.107s-3.393 4.018-3.393 4.018" stroke-width="2"/><path d="m222.946 171.215c.893.445 4.643 2.143 6.25 3.928 1.607 1.786 2.857 2.768 2.679 3.929s-2.857 3.482-2.857 3.482" stroke-width="2"/><path d="m224.196 169.34c.357-.18 2.768-1.786 6.339-.447 3.571 1.34 5.625 2.5 6.161 4.554s.893 4.821-.803 5.269c-1.697.445-3.929 0-3.929 0" stroke-width="2"/><path d="m239.286 166.839c-.446 0-3.929.178-4.554 1.25-.625 1.07.982 4.106.982 4.106" stroke-width="2"/><path d="m234.554 188c-.447-.982-1.161-2.5.178-2.946s3.75-1.071 5.536-.357 2.857 3.75 4.196 4.375 2.768 1.429 4.018 1.607 1.697 3.304 1.518 4.375-.357 5.089-.357 5.089" stroke-width="2"/><path d="m247.857 184.607c-.357-.179-2.678-.893-3.571-.536s-1.25 3.304-1.25 3.304" stroke-width="2"/><path d="m242.589 166.839s2.679 4.821 4.196 6.071c1.518 1.25 4.464 1.875 4.732 3.572.268 1.696-.089 5.893-.178 6.785-.09.893.356 4.197.356 4.197" stroke-width="2"/><path d="m261.875 189.875c-.535-.179-2.143-.268-3.215.535-1.07.805-4.018.357-4.018.357" stroke-width="2"/><path d="m250.715 184.071s2.32-1.696 4.375-2.054c2.053-.357 3.75.268 3.75.268" stroke-width="2"/><path d="m261.875 178.804s-4.375-2.769-5.715-4.644c-1.339-1.875-2.231-5.535-2.231-5.535" stroke-width="2"/><path d="m255.804 173.357c-.446-.179-2.411-.179-2.946.625-.536.803-1.161 3.482-1.161 3.482" stroke-width="2"/><path d="m226.148 129.959s.884 2.904.252 4.419c-.631 1.515-5.43 6.566-7.576 8.839-2.146 2.272-3.662 4.798-3.157 7.45s2.778 3.915 5.556 5.682c2.778 1.768 8.333 3.662 11.743 4.167 3.409.505 7.703 1.768 12.501 2.272 4.798.505 11.869 1.768 16.162 3.031 4.294 1.262 6.44 2.526 8.587 4.167 2.146 1.642 5.051 4.42 5.051 4.42" stroke-width="2"/><path d="m219.464 142.464s-.804 2.857 1.339 4.553c2.143 1.697 7.946 4.465 11.428 4.911s9.197.357 13.125 1.339c3.929.982 10.536 3.036 12.768 4.554s6.607 5.268 6.607 5.268" stroke-width="2"/><path d="m224.732 136.75s.625 3.036 1.697 3.661c1.071.625 3.125 2.232 3.125 2.232s-1.429 3.393-2.143 4.732-2.857 4.643-3.661 5.714-2.589 3.125-2.589 3.125" stroke-width="2"/><path d="m242.589 130.321c-.804-.357-3.214.268-5.625 0s-5.625-1.339-5.625-1.339 5.536 3.75 6.518 5.178c.982 1.429.804 5.089-.089 6.607s-.893 6.34-1.339 7.232c-.447.893-.714 4.196-.714 4.196" stroke-width="2"/><path d="m232.946 152.286s.268 2.768.089 3.572c-.179.803-1.786 4.196-1.786 4.196" stroke-width="2"/><path d="m238.393 135.321s3.214.179 5.446.714c2.232.536 6.339 1.429 6.339 1.429" stroke-width="2"/></g></g><g fill="#f9dd16"><path d="m179.884 272.938c-4.101 0-7.432-1.265-9.995-3.795s-3.844-5.846-3.844-9.945c0-5.63 2.668-9.746 8.005-12.35l2.587 3.148c-4.295 2.636-6.443 5.703-6.443 9.201 0 2.831.907 5.137 2.721 6.919 1.814 1.781 4.137 2.672 6.968 2.672 2.701 0 4.958-.915 6.772-2.745 1.814-1.831 2.721-4.112 2.721-6.846 0-3.434-2.147-6.483-6.443-9.152l2.856-3.051 1.196.61c4.295 2.132 6.443 5.995 6.443 11.593 0 4.035-1.257 7.334-3.771 9.896s-5.771 3.845-9.773 3.845z"/><path d="m187.889 243.699-20.33-9.445 2.05-4.344 20.525 9.299z"/><path d="m210.489 272.84c-4.703 0-8.298-1.717-10.788-5.149-1.237-1.741-1.855-3.173-1.855-4.296 0-1.594.635-2.863 1.904-3.807 1.171-.862 2.587-1.294 4.247-1.294 3.661 0 6.476 1.603 8.444 4.808.977 1.563 1.562 3.206 1.757 4.931 3.921-1.822 5.882-4.784 5.882-8.884 0-2.767-.907-5.048-2.721-6.846s-4.104-2.697-6.87-2.697c-3.629 0-6.728 2.229-9.299 6.688l-3.637-1.953c3.335-5.89 7.647-8.835 12.936-8.835 4.035 0 7.342 1.273 9.921 3.82 2.579 2.546 3.868 5.82 3.868 9.823 0 4.035-1.29 7.326-3.868 9.872-2.579 2.546-5.887 3.819-9.921 3.819zm-6.151-10.543c-1.53 0-2.294.35-2.294 1.049 0 .163.049.358.146.586.439.603.806 1.155 1.098 1.66 1.839 2.033 4.238 3.05 7.2 3.05h.561c-.065-1.903-.724-3.437-1.977-4.6-1.252-1.163-2.83-1.745-4.734-1.745z"/><path d="m205.339 293.17v-20.477h4.027v20.477zm8.395 0c-1.236 0-1.855-.797-1.855-2.392v-18.085h4.101v16.376h3.734v4.101z"/><path d="m232.356 257.488c-1.562 0-2.835-.5-3.819-1.501-.984-1-1.477-2.281-1.477-3.844 0-1.497.5-2.754 1.501-3.771s2.266-1.525 3.795-1.525c1.497 0 2.746.509 3.747 1.525s1.501 2.273 1.501 3.771c0 1.563-.492 2.844-1.477 3.844-.985 1.001-2.242 1.501-3.771 1.501zm0 14.449c-1.562 0-2.835-.491-3.819-1.477-.984-.984-1.477-2.257-1.477-3.819 0-1.497.5-2.762 1.501-3.795s2.266-1.55 3.795-1.55 2.786.5 3.771 1.501c.984 1.001 1.477 2.282 1.477 3.844 0 1.563-.492 2.835-1.477 3.819-.985.985-2.242 1.477-3.771 1.477zm0-21.501c-1.074 0-1.61.569-1.61 1.708 0 1.074.537 1.611 1.61 1.611 1.139 0 1.708-.537 1.708-1.611 0-1.139-.569-1.708-1.708-1.708zm0 14.545c-1.074 0-1.61.553-1.61 1.659 0 1.14.537 1.709 1.61 1.709 1.139 0 1.708-.569 1.708-1.709 0-1.106-.569-1.659-1.708-1.659z"/><path d="m277.825 272.84c-1.839 0-3.808-.447-5.906-1.343l1.562-3.758c1.888.602 3.335.902 4.345.902 2.831 0 5.153-.882 6.968-2.647 1.813-1.766 2.721-4.047 2.721-6.846 0-2.701-.932-4.967-2.794-6.797-1.863-1.831-4.161-2.746-6.895-2.746-2.799 0-5.081.891-6.847 2.673-1.766 1.781-2.647 4.071-2.647 6.87v.439l-.122.146c-.195 4.002-1.55 7.188-4.063 9.555s-5.772 3.551-9.774 3.551c-4.036 0-7.351-1.272-9.946-3.819-2.595-2.546-3.893-5.837-3.893-9.872 0-4.101 1.273-7.399 3.819-9.896 2.546-2.498 5.886-3.747 10.02-3.747 4.962 0 8.875 2.115 11.739 6.346 2.814-4.23 6.719-6.346 11.715-6.346 4.067 0 7.383 1.257 9.945 3.771 2.563 2.514 3.844 5.805 3.844 9.872 0 4.035-1.29 7.326-3.868 9.872-2.581 2.547-5.888 3.82-9.923 3.82zm-23.454-23.235c-2.799 0-5.114.899-6.944 2.697s-2.746 4.079-2.746 6.846c0 2.766.916 5.039 2.746 6.821 1.831 1.781 4.146 2.672 6.944 2.672 2.733 0 4.999-.891 6.797-2.672 1.798-1.782 2.696-4.056 2.696-6.821 0-2.767-.898-5.048-2.696-6.846s-4.064-2.697-6.797-2.697z"/><path d="m277.85 245.944c-2.831 0-5.219-.984-7.164-2.953-1.943-1.968-2.916-4.385-2.916-7.248s.98-5.268 2.94-7.212c1.961-1.944 4.373-2.917 7.237-2.917 2.863 0 5.239.973 7.126 2.917 1.888 1.944 2.831 4.349 2.831 7.212 0 2.766-.984 5.158-2.953 7.175-1.968 2.018-4.336 3.026-7.101 3.026zm0-16.302c-1.79 0-3.246.569-4.369 1.708-1.123 1.14-1.684 2.604-1.684 4.394 0 1.708.561 3.12 1.684 4.234s2.53 1.672 4.223 1.672c1.773 0 3.218-.541 4.332-1.623s1.672-2.51 1.672-4.283c0-1.758-.533-3.214-1.599-4.369s-2.486-1.733-4.259-1.733z"/><path d="m277.85 293.17c-1.302 0-1.953-.797-1.953-2.392v-18.085h4.003v16.376h4.1v4.101z"/><path d="m320.535 265.884c-.977 2.1-2.645 3.816-5.003 5.15-2.229 1.204-4.564 1.806-7.005 1.806-4.035 0-7.326-1.272-9.872-3.819-2.547-2.546-3.819-5.837-3.819-9.872s1.272-7.317 3.819-9.848c2.546-2.53 5.837-3.796 9.872-3.796 5.337 0 9.641 2.945 12.911 8.835l-3.515 1.953c-2.555-4.458-5.687-6.688-9.396-6.688-2.766 0-5.039.899-6.821 2.697-1.781 1.798-2.672 4.079-2.672 6.846 0 2.766.891 5.039 2.672 6.821 1.782 1.781 4.056 2.672 6.821 2.672 3.71 0 6.842-2.221 9.396-6.662l3.515 1.952z"/><path d="m314.58 235.157c-.065.033-.163.049-.293.049-.098 0-.146-.049-.146-.146-.13-1.61-.729-2.917-1.794-3.917-1.065-1.001-2.42-1.501-4.063-1.501-1.79 0-3.246.569-4.369 1.708-1.122 1.14-1.684 2.604-1.684 4.394 0 1.708.562 3.12 1.684 4.234 1.123 1.114 2.53 1.672 4.223 1.672.374 0 .928-.049 1.659-.146v4.344c-.569.065-1.073.098-1.513.098-2.831 0-5.219-.984-7.163-2.953-1.944-1.968-2.917-4.385-2.917-7.248s.98-5.268 2.941-7.212 4.373-2.917 7.236-2.917c2.604 0 4.779.766 6.528 2.294 1.749 1.53 2.876 3.597 3.38 6.199-1.171.454-2.407.804-3.709 1.048z"/><path d="m330.37 257.488c-1.562 0-2.835-.5-3.819-1.501-.984-1-1.477-2.281-1.477-3.844 0-1.497.5-2.754 1.501-3.771s2.266-1.525 3.795-1.525c1.497 0 2.746.509 3.746 1.525 1.001 1.017 1.501 2.273 1.501 3.771 0 1.563-.492 2.844-1.477 3.844-.984 1.001-2.241 1.501-3.77 1.501zm0 14.449c-1.562 0-2.835-.491-3.819-1.477-.984-.984-1.477-2.257-1.477-3.819 0-1.497.5-2.762 1.501-3.795s2.266-1.55 3.795-1.55 2.786.5 3.771 1.501 1.477 2.282 1.477 3.844c0 1.563-.492 2.835-1.477 3.819-.985.985-2.242 1.477-3.771 1.477zm0-21.501c-1.073 0-1.61.569-1.61 1.708 0 1.074.537 1.611 1.61 1.611 1.139 0 1.709-.537 1.709-1.611 0-1.139-.57-1.708-1.709-1.708zm0 14.545c-1.073 0-1.61.553-1.61 1.659 0 1.14.537 1.709 1.61 1.709 1.139 0 1.709-.569 1.709-1.709 0-1.106-.57-1.659-1.709-1.659z"/></g></svg>