<?xml version="1.0" encoding="utf-8"?>
<!-- Generator: Adobe Illustrator 13.0.1, SVG Export Plug-In . SVG Version: 6.00 Build 14948)  -->
<!DOCTYPE svg PUBLIC "-//W3C//DTD SVG 1.1//EN" "http://www.w3.org/Graphics/SVG/1.1/DTD/svg11.dtd">
<svg version="1.1" id="Layer_1" xmlns="http://www.w3.org/2000/svg" xmlns:xlink="http://www.w3.org/1999/xlink" x="0px" y="0px"
	 width="324px" height="216px" viewBox="-2.302 0.506 324 216" enable-background="new -2.302 0.506 324 216" xml:space="preserve">
<rect x="-2.302" y="0.506" fill="#DD2119" width="324" height="72"/>
<rect x="-2.302" y="72.506" fill="#FFFFFF" width="324" height="72"/>
<rect x="-2.302" y="144.506" fill="#4A5A73" width="324" height="72"/>
<path fill="#FFC500" d="M159.693,79.043c3.037,4.777,5.583,9.84,8.539,14.666c6.123,0.211,12.25-0.105,18.373,0.13
	c-3.078,5.072-6.904,9.664-9.717,14.895c3.178,4.851,6.596,9.539,9.727,14.422c-6.123,0.261-12.25-0.046-18.373,0.124
	c-2.945,4.838-5.524,9.889-8.53,14.689c-2.809-4.863-5.445-9.823-8.362-14.622c-6.186-0.31-12.379,0.079-18.567-0.163
	c3.385-4.787,6.672-9.641,9.95-14.501c-3.003-5.158-6.579-9.947-9.943-14.869c6.192-0.215,12.39,0.171,18.58-0.176
	C154.259,88.839,156.916,83.907,159.693,79.043z"/>
</svg>
