<?xml version="1.0" encoding="UTF-8"?>
<svg xmlns="http://www.w3.org/2000/svg" width="324pt" height="214pt" viewBox="0 0 324 214">
<path fill="#ffffff" d="M0,0V110H324V0Z"/>
<path fill="rgb(218,37,29)" d="M0,0H43.6202L112.962,62.1446L122.887,53.3633L80.5226,0H118.816L134.474,44.4309L136.821,46.7702L152.037,42.8708L143.668,0H181.787L180.178,5.08974L171.236,42.8389L188.199,47.5269L211.599,0H246.082L240.821,5.87106L201.835,54.9586L210.329,62.9241L280.324,0H324V12.0096L219.44,74.1892L225.103,84.2218L228.061,83.1532L312.403,41.5144L324,35.5685V64.6056L228.229,94.1105L229.299,100.84L233.801,100.871L307.922,88.9544L324,86.1081V110H0V86.7487L93.0573,101.183L94.459,93.9102L9.57872,67.4164L0,64.6817V35.5574L97.7871,83.9386L103.297,73.7208L8.68279,17.3454L0,12.4679Z"/>
<path fill="rgb(26,59,133)" d="M0,107.976H324V214H0Z"/>
<path fill="#ffffff" d="M152.948,150.071L160.665,128.831L168.197,149.966L189.364,150.939L172.301,164.617L178.204,186.408L160.183,174.291L142.698,186.382L148.514,165.058L131.597,150.922Z"/>
</svg>