<svg height="400" width="600" xmlns="http://www.w3.org/2000/svg"><g><path d="m0 0h600v400h-600z" fill="#ef943a"/><g fill="none" stroke="#ce2921"><path d="m171.001 62.350746s-4.35275 5.285485-1.86546 11.814614c2.48729 6.52913 9.50004 9.83515 14.3019 8.394595 6.21822-1.865465 7.77277-6.84004 8.08368-12.436436.31091-5.596397-4.35275-9.327328-6.21821-10.260061-1.86547-.932732-4.66367-1.865465-4.66367-1.865465" stroke-linecap="round" stroke-linejoin="round" stroke-width="4"/><path d="m174.42102 80.383579s0-4.663664 4.97458-8.083684c4.97457-3.42002 11.5037-.621822 11.5037-.621822" stroke-linecap="round" stroke-linejoin="round" stroke-width="4"/><path d="m212.50761 48.981577s-3.42002-1.554555-5.75185-.466366c-2.33183 1.088188-4.66367 5.285485-.77728 7.617317s7.30641-.777277 10.41552.777277c3.10911 1.554555 5.59639 5.13003 4.81912 6.995496-.77728 1.865465-2.17638 5.285485-6.06277 6.84004-3.88638 1.554555-9.94915 3.109109-12.43643.310911-2.48729-2.798198-1.24365-6.84004 2.48728-7.928228 3.73093-1.088189 10.88189 2.176376 13.83554 3.42002 2.95365 1.243643 9.17187 4.974574 11.19279 6.684584s4.50821 5.440941 4.50821 7.306407c0 1.865465-1.3991 4.041842-4.1973 5.907307-2.79819 1.865466-5.28548 1.088188-5.28548 1.088188" stroke-linecap="round" stroke-linejoin="round" stroke-width="4"/><path d="m216.394 77.896292s-6.37368-.932732-8.70551-.310911c-2.74101.730936-6.06276 4.041842-6.06276 7.617318 0 3.575475 3.52737 6.813491 7.3064 7.306406 3.57548.466367 7.46187-1.865465 8.70551-6.062763 1.1924-4.02436-1.24364-8.55005-1.24364-8.55005z" stroke-linecap="round" stroke-linejoin="round" stroke-width="4"/><path d="m229.14134 73.077173s-2.17637-1.243644-5.13003-.466367c-2.95365.777278-4.04184 2.642743-4.04184 2.642743" stroke-linecap="round" stroke-linejoin="round" stroke-width="4"/><path d="m251.21602 41.67517s-3.57839-2.837207-6.84004-3.264564c-3.08661-.404422-7.3064 1.71001-9.79369 4.663664-1.94426 2.308807-2.5924 8.657023-1.3991 11.192792 1.24364 2.642743 7.46588 8.68698 11.81462 8.860961 2.64519.105828 8.31321-3.427931 8.55004-5.44094.31091-2.642742-1.55455-5.751853-4.66366-6.218219-2.53547-.380322-5.44094 3.886387-6.9955 5.440941-1.55455 1.554555-2.17637 3.109109-2.17637 3.109109" stroke-linecap="round" stroke-linejoin="round" stroke-width="4"/><path d="m275.62253 56.287983s-6.35308.996354-10.26007-2.331831c-4.19729-3.575476-5.13003-9.327328-3.42001-13.36917 1.49602-3.536019 6.37367-6.84004 11.65915-6.062762 5.28549.777277 9.76022 6.468066 10.88189 8.86096 2.33183 4.974575 4.04184 9.638239 8.23914 11.037338 4.19729 1.399099 8.39459-1.71001 10.1046-3.109109s3.26457-6.529129 2.95365-9.638239c-.3047-3.046918-2.7846-6.971006-4.97457-8.239139-2.57097-1.48876-8.55005-1.088188-8.55005-1.088188" stroke-linecap="round" stroke-linejoin="round" stroke-width="4"/><path d="m325.36826 35.379223a3.9641142 4.1195698 0 1 1 -7.92823 0 3.9641142 4.1195698 0 1 1 7.92823 0z" stroke-width="4"/><path d="m323.96918 52.401596a4.1972976 4.041842 0 1 1 -8.3946 0 4.1972976 4.041842 0 1 1 8.3946 0z" stroke-width="4"/><path d="m368.42942 34.601948a11.892343 12.047798 0 1 1 -23.78468 0 11.892343 12.047798 0 1 1 23.78468 0z" stroke-width="4" transform="translate(-11.037337 11.348248)"/><path d="m368.42942 34.601948a11.892343 12.047798 0 1 1 -23.78468 0 11.892343 12.047798 0 1 1 23.78468 0z" stroke-width="4" transform="matrix(.7706047 0 0 .7706047 102.23029 -1.389807)"/><path d="m360.03484 42.918814s3.42344-3.838816 8.08368-4.197297c4.04184-.310911 7.61732 1.710009 9.32733 7.461862 2.08022 6.997116.77728 9.638238-1.3991 12.436436-1.96523 2.526739-5.90731 5.596397-8.7055 4.663664-2.7982-.932733-4.97458-2.642743-4.97458-2.642743" stroke-linecap="round" stroke-linejoin="round" stroke-width="4"/><path d="m365.78669 63.438934s-.93273 6.995496-1.86546 10.104605c-.68039 2.267971-1.55456 6.995496-.77728 8.394595s4.81912 2.953654 4.81912 2.953654" stroke-linecap="round" stroke-linejoin="round" stroke-width="4"/><path d="m323.96918 52.401596a4.1972976 4.041842 0 1 1 -8.3946 0 4.1972976 4.041842 0 1 1 8.3946 0z" stroke-width="4" transform="translate(101.66787 26.738339)"/><path d="m323.96918 52.401596a4.1972976 4.041842 0 1 1 -8.3946 0 4.1972976 4.041842 0 1 1 8.3946 0z" stroke-width="4" transform="translate(109.28519 12.280981)"/><path d="m422.21702 39.343339s-.46636-7.772773-5.59639-10.260061c-3.81801-1.851156-9.66154-1.183804-11.34825 5.596397-1.2678 5.096292 4.81912 10.881882 4.81912 10.881882" stroke-linecap="round" stroke-linejoin="round" stroke-width="4"/><path d="m411.64605 59.241637s-1.63384-6.141011-6.06276-7.772773c-5.53538-2.039418-9.94915-.466366-12.74735 2.642743s-4.1973 9.327328-1.24364 14.923724c1.91564 3.629636 7.01188 5.259678 9.48278 4.974575 4.04184-.466366 7.30641-3.264565 7.30641-3.264565" stroke-linecap="round" stroke-linejoin="round" stroke-width="4"/><path d="m226.03224 252.93914h6.68458l-.07773-7.77278 9.32733.07773.07773 7.46186h10.95961v-7.61731h10.80415v7.46186l9.63824-.07773-.15546-7.30641h11.03734l.07773 7.53959 9.2496-.03764v-7.50195l10.95961-.07772v7.53959h11.19279l-.15545-7.53959 9.16942.03764.08018 7.50195h11.03733l.11781-7.42422 10.56609-.11782.12026 7.69749h11.42597l.11781-7.57967 9.05407-.03765v7.69505l5.79193-.04008" stroke-linecap="square" stroke-width="4"/><path d="m259.18905 244.72219.11782-12.25257" stroke-linecap="round" stroke-linejoin="round" stroke-width="4"/><path d="m279.45292 244.95782v-12.37039" stroke-linecap="round" stroke-linejoin="round" stroke-width="4"/><path d="m320.33411 244.95782v-12.72383" stroke-linecap="round" stroke-linejoin="round" stroke-width="4"/><path d="m340.95142 245.31126-.11781-13.54852" stroke-linecap="round" stroke-linejoin="round" stroke-width="4"/><path d="m320.56973 220.6883-.23562-14.13758" stroke-linecap="round" stroke-linejoin="round" stroke-width="4"/><path d="m279.80636 205.60821v13.43071" stroke-linecap="round" stroke-linejoin="round" stroke-width="4"/><path d="m286.28609 192.41313v11.5457" stroke-linecap="round" stroke-linejoin="round" stroke-width="4"/><path d="m313.73657 191.94188.23562 11.89913" stroke-linecap="round" stroke-linejoin="round" stroke-width="4"/></g><path d="m253.06277 235.06151 94.01494-.23562v-20.38169s-2.12064 6.2441-4.24128 8.60036c-2.12064 2.35627-10.60319 2.35627-10.60319 2.35627s2.00283-2.70971 2.59189-5.3016c.58907-2.59189.70688-12.95945.70688-12.95945s-2.00282 5.53722-3.5344 7.06879c-1.53157 1.53158-5.18378 3.06315-5.18378 3.06315l-52.42687-.11782s-3.18096-1.29594-4.71253-2.82751-5.41941-7.30442-5.41941-7.30442.47125 10.01412.94251 12.01695c.47125 2.00282 2.12063 6.71535 2.12063 6.71535s-2.94533 1.64938-6.36191-.58907-8.12911-11.19225-8.12911-11.19225l.23563 21.08856z" fill="#ce2921"/><path d="m280.63106 207.96447h40.76337s1.88501-2.00282 2.59189-4.24127 1.29594-10.48538 1.29594-10.48538-1.64938 4.47691-2.59189 5.18378c-.9425.70688-3.06314 1.88502-3.06314 1.88502l-38.76055-.11782s-2.12063-.9425-3.06314-1.88501c-.94251-.9425-3.5344-5.65503-3.5344-5.65503s-.11781 6.95098.8247 9.30724c.9425 2.35626 5.53722 6.00847 5.53722 6.00847z" fill="#ce2921"/><path d="m299.9375 119.5625s-1.88937 1.42281-2.125 2.71875c-.23563 1.29595 0 4.9375 0 4.9375s-.9397.70906-2 1.0625c-1.06032.35344-2.1469 1.89157-.96875 3.1875 1.17813 1.29595 2.5 1.53125 2.5 1.53125s-.37501 5.77342-.375 8.71875c0 2.94533-1.05063 18.49-.34375 20.375.70688 1.88501 1.65625 3.43751 1.65625 3.4375l-.125 3.0625s-3.52626-.2378-4.46875-1.0625c-.94251-.82469-3.1875-6.71875-3.1875-6.71875s-.12032 6.48999.46875 8.375 4 4.46875 4 4.46875v5.0625s-3.87468-.46842-5.40625-2c-1.53158-1.53157-3.65624-5.53126-3.65625-5.53125 0 0 .46125 6.95624 1.875 9.3125 1.41376 2.35626 5.65626 2.93749 5.65625 2.9375v4.46875s-8.81687-.11247-10.9375-2.46875c-2.12063-2.35626-2.71875-5.65624-2.71875-5.65625 0 0 .47092 9.18217 1.53125 11.65625 1.06032 2.47407 4.59376 3.90625 4.59375 3.90625h14.03125 14.03125c-.00001 0 3.53343-1.40093 4.59375-3.875 1.0603-2.47408 1.53125-11.65625 1.53125-11.65625 0 .00001-.59812 3.29999-2.71875 5.65625-2.12065 2.35628-10.9375 2.46875-10.9375 2.46875v-4.46875c-.00001-.00001 4.24249-.61249 5.65625-2.96875 1.41375-2.35628 1.875-9.28125 1.875-9.28125-.00001-.00001-2.12467 3.99968-3.65625 5.53125-1.53157 1.53158-5.40625 2-5.40625 2v-5.0625c.00001 0 3.41093-2.58374 4-4.46875s.46875-8.375.46875-8.375c.00001 0-2.24499 5.89406-3.1875 6.71875-.94251.82471-4.46875 1.0625-4.46875 1.0625l-.125-3.0625c0-.00001.94937-1.55249 1.65625-3.4375.70688-1.88502-.34375-17.42967-.34375-20.375.00001-2.94533-.375-8.71875-.375-8.71875s1.32187-.2353 2.5-1.53125c1.17812-1.29593.09157-2.83406-.96875-3.1875-1.0603-.35344-2-1.0625-2-1.0625s.23563-3.64155 0-4.9375c-.23563-1.29594-2.125-2.71875-2.125-2.71875v-.03125z" fill="#ce2921"/><path d="m272.14851 362.06415s12.95945-11.07444 20.97075-17.90761c8.01129-6.83317 16.9651-14.84446 20.49949-21.442 3.5344-6.59754 5.41941-13.66634 8.24693-16.25823s12.25257-5.18378 17.43635-7.30441c5.18378-2.12064 18.61449-11.07445 23.09139-15.08009 4.4769-4.00565 12.25258-14.37322 15.78697-20.4995 3.5344-6.12629 10.36756-18.37886 11.5457-23.09139 1.17813-4.71253 2.35626-15.31572 2.12063-21.442-.23562-6.12629-2.12063-18.61449-2.35626-22.14889-.23563-3.53439.23563-9.18943-1.41376-13.4307-1.64938-4.24128-3.5344-7.30442-3.5344-7.30442" fill="none" stroke="#ce2921" stroke-linecap="round" stroke-linejoin="round" stroke-width="3"/><path d="m320.21629 308.34133s.58907-7.30442 2.12064-9.30725c1.53157-2.00282 8.60037-6.47972 11.42788-8.60036 2.82752-2.12064 6.95098-6.83317 6.95098-6.83317s0 9.54287-.58906 10.83882c-.58907 1.29594-4.83035 6.2441-4.83035 6.2441s9.07162.35344 11.89914 1.17813 9.89631 4.12346 9.89631 4.12346-8.12911 3.5344-11.07444 3.77002c-2.94533.23563-13.90196.70688-17.08292.35344s-8.71818-1.64938-8.71818-1.76719z" fill="none" stroke="#ce2921" stroke-linecap="round" stroke-linejoin="round" stroke-width="3"/><path d="m340.95142 286.54588s5.65503-4.94815 7.77567-6.47972c2.12064-1.53158 8.9538-6.95098 10.24975-8.48255 1.29594-1.53158 2.35626-3.41659 2.35626-3.41659s-.9425 9.07162-1.64938 11.19226c-.70688 2.12063-5.53722 10.721-5.53722 10.721s7.30442-1.64939 10.24975-1.88501c2.94533-.23563 10.721-.94251 10.721-.94251s-7.42223 7.18661-10.48538 9.07162c-3.06314 1.88501-14.49102 6.47972-14.49102 6.47972" fill="none" stroke="#ce2921" stroke-linecap="round" stroke-linejoin="round" stroke-width="3"/><path d="m361.45092 267.9314s4.83034-5.53722 6.12628-7.54005c1.29595-2.00282 7.18661-12.13476 7.18661-12.13476s.35344 8.24693.23562 10.36756c-.11781 2.12064-1.41375 11.31007-1.41375 11.31007s5.30159-3.5344 8.9538-4.4769c3.65221-.94251 10.13194-1.17813 10.13194-1.17813s-6.95098 10.95662-9.18943 13.4307c-2.23846 2.47408-8.24692 9.42505-8.24692 9.42505" fill="none" stroke="#ce2921" stroke-linecap="round" stroke-linejoin="round" stroke-width="3"/><path d="m374.646 248.49222s1.17813-8.83599 2.47407-12.37039c1.29595-3.5344 3.06315-9.89631 3.06315-9.89631s3.29877 9.18943 3.53439 11.19226c.23563 2.00282-.11781 15.55134-.11781 15.55134s7.30442-10.13194 8.48255-11.42788c1.17813-1.29595 10.721-5.41941 10.721-5.41941s-3.65221 7.54005-5.06597 11.54569c-1.41375 4.00565-5.30159 10.36757-6.12628 11.31007-.8247.94251-4.94816 5.41941-4.94816 5.41941" fill="none" stroke="#ce2921" stroke-linecap="round" stroke-linejoin="round" stroke-width="3"/><path d="m379.82978 226.9324s.70688-9.18943.23562-11.54569c-.47125-2.35627.35344-12.01695.35344-12.01695s5.77285 9.07162 6.2441 10.95663c.47126 1.88501 4.83034 10.60319 4.83034 10.60319s3.41659-7.30442 4.94816-9.07162c1.22-1.40769 8.71818-8.48255 8.71818-8.48255s-1.7672 12.60601-2.70971 15.66915c-.9425 3.06315-5.65503 15.78697-5.65503 15.78697" fill="none" stroke="#ce2921" stroke-linecap="round" stroke-linejoin="round" stroke-width="3"/><path d="m380.41885 203.48757s-1.76721-5.65503-2.00283-8.36474c-.23563-2.7097-.47125-8.12911-.47125-8.12911s5.18378 5.18378 6.12628 6.71536c.94251 1.53157 5.65504 5.4194 5.65504 5.4194s.23562-5.65503 2.82751-9.30724 5.65504-6.95098 5.65504-6.95098 1.41375 10.60319 1.64938 12.84164.35344 16.0226.35344 16.0226" fill="none" stroke="#ce2921" stroke-linecap="round" stroke-linejoin="round" stroke-width="3"/><path d="m396.79488 184.40183s-1.88501-8.24692-3.41658-11.19225c-1.53158-2.94533-8.12912-10.36756-8.12912-10.36756s1.53158 5.06596 1.41376 8.36473c-.11781 3.29877-.82469 7.65786-.82469 7.65786s-4.83034-5.41941-7.30442-7.1866c-2.47408-1.7672-5.41941-3.65221-5.41941-3.65221s.8247 7.30442 1.41376 9.89631c.58907 2.59189 3.29877 9.42505 3.29877 9.42505" fill="none" stroke="#ce2921" stroke-linecap="round" stroke-linejoin="round" stroke-width="3"/><path d="m373.23224 167.79017s-.8247-3.77002-3.06315-6.36191-10.83881-10.48538-10.83881-10.48538 9.66068 2.12064 11.66351 3.29877c2.00282 1.17813 8.36473 4.12347 9.42505 5.18379 1.06032 1.06031 4.83034 4.35908 4.83034 4.35908" fill="none" stroke="#ce2921" stroke-linecap="round" stroke-linejoin="round" stroke-width="3"/><g fill="none" stroke="#ce2921" stroke-linecap="round" stroke-linejoin="round" stroke-width="3" transform="matrix(-1 0 0 1 600.02267 -.471253)"><path d="m272.14851 362.06415s12.95945-11.07444 20.97075-17.90761c8.01129-6.83317 16.9651-14.84446 20.49949-21.442 3.5344-6.59754 5.41941-13.66634 8.24693-16.25823s12.25257-5.18378 17.43635-7.30441c5.18378-2.12064 18.61449-11.07445 23.09139-15.08009 4.4769-4.00565 12.25258-14.37322 15.78697-20.4995 3.5344-6.12629 10.36756-18.37886 11.5457-23.09139 1.17813-4.71253 2.35626-15.31572 2.12063-21.442-.23562-6.12629-2.12063-18.61449-2.35626-22.14889-.23563-3.53439.23563-9.18943-1.41376-13.4307-1.64938-4.24128-3.5344-7.30442-3.5344-7.30442"/><path d="m320.21629 308.34133s.58907-7.30442 2.12064-9.30725c1.53157-2.00282 8.60037-6.47972 11.42788-8.60036 2.82752-2.12064 6.95098-6.83317 6.95098-6.83317s0 9.54287-.58906 10.83882c-.58907 1.29594-4.83035 6.2441-4.83035 6.2441s9.07162.35344 11.89914 1.17813 9.89631 4.12346 9.89631 4.12346-8.12911 3.5344-11.07444 3.77002c-2.94533.23563-13.90196.70688-17.08292.35344s-8.71818-1.64938-8.71818-1.76719z"/><path d="m340.95142 286.54588s5.65503-4.94815 7.77567-6.47972c2.12064-1.53158 8.9538-6.95098 10.24975-8.48255 1.29594-1.53158 2.35626-3.41659 2.35626-3.41659s-.9425 9.07162-1.64938 11.19226c-.70688 2.12063-5.53722 10.721-5.53722 10.721s7.30442-1.64939 10.24975-1.88501c2.94533-.23563 10.721-.94251 10.721-.94251s-7.42223 7.18661-10.48538 9.07162c-3.06314 1.88501-14.49102 6.47972-14.49102 6.47972"/><path d="m361.45092 267.9314s4.83034-5.53722 6.12628-7.54005c1.29595-2.00282 7.18661-12.13476 7.18661-12.13476s.35344 8.24693.23562 10.36756c-.11781 2.12064-1.41375 11.31007-1.41375 11.31007s5.30159-3.5344 8.9538-4.4769c3.65221-.94251 10.13194-1.17813 10.13194-1.17813s-6.95098 10.95662-9.18943 13.4307c-2.23846 2.47408-8.24692 9.42505-8.24692 9.42505"/><path d="m374.646 248.49222s1.17813-8.83599 2.47407-12.37039c1.29595-3.5344 3.06315-9.89631 3.06315-9.89631s3.29877 9.18943 3.53439 11.19226c.23563 2.00282-.11781 15.55134-.11781 15.55134s7.30442-10.13194 8.48255-11.42788c1.17813-1.29595 10.721-5.41941 10.721-5.41941s-3.65221 7.54005-5.06597 11.54569c-1.41375 4.00565-5.30159 10.36757-6.12628 11.31007-.8247.94251-4.94816 5.41941-4.94816 5.41941"/><path d="m379.82978 226.9324s.70688-9.18943.23562-11.54569c-.47125-2.35627.35344-12.01695.35344-12.01695s5.77285 9.07162 6.2441 10.95663c.47126 1.88501 4.83034 10.60319 4.83034 10.60319s3.41659-7.30442 4.94816-9.07162c1.22-1.40769 8.71818-8.48255 8.71818-8.48255s-1.7672 12.60601-2.70971 15.66915c-.9425 3.06315-5.65503 15.78697-5.65503 15.78697"/><path d="m380.41885 203.48757s-1.76721-5.65503-2.00283-8.36474c-.23563-2.7097-.47125-8.12911-.47125-8.12911s5.18378 5.18378 6.12628 6.71536c.94251 1.53157 5.65504 5.4194 5.65504 5.4194s.23562-5.65503 2.82751-9.30724 5.65504-6.95098 5.65504-6.95098 1.41375 10.60319 1.64938 12.84164.35344 16.0226.35344 16.0226"/><path d="m396.79488 184.40183s-1.88501-8.24692-3.41658-11.19225c-1.53158-2.94533-8.12912-10.36756-8.12912-10.36756s1.53158 5.06596 1.41376 8.36473c-.11781 3.29877-.82469 7.65786-.82469 7.65786s-4.83034-5.41941-7.30442-7.1866c-2.47408-1.7672-5.41941-3.65221-5.41941-3.65221s.8247 7.30442 1.41376 9.89631c.58907 2.59189 3.29877 9.42505 3.29877 9.42505"/><path d="m373.23224 167.79017s-.8247-3.77002-3.06315-6.36191-10.83881-10.48538-10.83881-10.48538 9.66068 2.12064 11.66351 3.29877c2.00282 1.17813 8.36473 4.12347 9.42505 5.18379 1.06032 1.06031 4.83034 4.35908 4.83034 4.35908"/></g><path d="m280.63106 354.99536s12.01694-4.00565 17.9076-4.47691c5.89066-.47125 15.78697-3.29877 20.02825-6.59754 4.24127-3.29877 12.95945-7.30441 20.4995-8.24692 7.54004-.94251 14.84446-3.5344 21.442-7.77567 6.59754-4.24128 19.55699-12.72383 25.21203-17.20073 5.65503-4.4769 17.9076-16.49385 21.442-21.91326 3.5344-5.4194 12.25257-19.79262 15.08009-28.03954s1.88501-19.55699 4.71253-28.27517 2.59189-18.14323 1.41376-27.80392c-1.17814-9.66068-5.41941-19.08573-5.65504-25.21202-.23562-6.12629-2.59189-13.43071-5.18378-18.14324-2.59189-4.71252-5.89066-12.25257-9.66068-16.72947s-9.89631-9.89631-9.89631-9.89631" fill="none" stroke="#ce2921" stroke-linecap="round" stroke-linejoin="round" stroke-width="3"/><path d="m340.36235 335.20274s2.70971-6.95098 4.83034-9.7785c2.12064-2.82752 9.54287-8.60036 12.13476-10.13194 2.59189-1.53157 9.30725-5.18378 9.30725-5.18378s0 5.41941-.94251 7.65786c-.9425 2.23845-4.83034 9.66069-4.83034 9.66069s8.60036-.11782 10.60319-.11782c2.00282 0 10.13193 2.94533 10.13193 2.94533s-4.94815 5.89066-7.77567 6.83317c-2.82751.9425-11.78132 2.94533-16.49385 2.7097-4.71252-.23562-16.9651-4.59471-16.9651-4.59471z" fill="none" stroke="#ce2921" stroke-linecap="round" stroke-linejoin="round" stroke-width="3"/><path d="m366.87032 310.69759s7.89349-6.36191 10.36757-8.48255c2.47407-2.12064 10.24974-9.54287 10.24974-9.54287s-.11781 7.89348-.9425 10.60319c-.82469 2.7097-4.00565 9.54287-4.00565 9.54287h11.07444c2.59189 0 11.19226-1.53157 11.19226-1.53157s-7.54005 8.48255-9.89631 10.13193c-2.35627 1.64939-6.71536 3.77002-10.13194 4.83034s-7.42223 2.00283-7.42223 2.00283" fill="none" stroke="#ce2921" stroke-linecap="round" stroke-linejoin="round" stroke-width="3"/><path d="m387.84107 293.26124s5.06597-6.12629 6.59754-8.12912c1.53158-2.00282 5.53722-7.89348 6.47973-10.13193s3.41658-6.12629 3.41658-6.12629.35344 10.60319-.35344 13.90196-1.88501 11.54569-1.88501 11.54569 6.59754-3.77002 9.54287-4.4769 9.42506-1.7672 9.42506-1.7672-4.59472 9.54287-6.83317 12.4882-10.24975 10.72101-10.24975 10.72101" fill="none" stroke="#ce2921" stroke-linecap="round" stroke-linejoin="round" stroke-width="3"/><path d="m404.80618 269.34515s3.06314-4.12346 4.83034-8.12911 5.18378-16.61166 5.18378-16.61166 2.23845 6.59754 2.23845 10.13194c0 3.53439.58907 16.14041.58907 16.14041s7.42223-10.24975 9.42505-12.01695c2.00283-1.7672 7.77567-8.36474 7.77567-8.36474s-.35344 11.89914-1.64938 14.84447c-1.29595 2.94533-5.3016 8.71817-6.95098 12.13476-1.64939 3.41658-7.18661 10.95662-7.18661 10.95662" fill="none" stroke="#ce2921" stroke-linecap="round" stroke-linejoin="round" stroke-width="3"/><path d="m415.05593 245.78252s1.17813-14.96228 1.29594-17.55417.58907-10.48538.58907-10.48538 5.4194 9.18943 6.00847 11.19225c.58907 2.00283 2.35626 9.54287 2.35626 9.54287s3.88784-7.30441 5.77285-9.54287c1.88501-2.23845 9.7785-7.65785 9.7785-7.65785s-.94251 11.19225-2.00283 14.84446-4.00565 14.96228-4.00565 14.96228" fill="none" stroke="#ce2921" stroke-linecap="round" stroke-linejoin="round" stroke-width="3"/><path d="m417.88344 218.56766s-.47125-8.83599-.35344-11.78132c.11782-2.94533-1.06032-14.13758-1.06032-14.13758s4.83034 4.00565 6.12629 6.36191 6.36191 8.36474 6.36191 8.36474 3.41659-4.83034 4.94816-7.42223 6.2441-8.83599 6.2441-8.83599 1.17813 11.19225.82469 15.43353c-.35344 4.24127-.47125 14.96227-.47125 14.96227" fill="none" stroke="#ce2921" stroke-linecap="round" stroke-linejoin="round" stroke-width="3"/><path d="m416.46968 192.76657s-2.94533-8.9538-4.00565-11.66351c-1.06031-2.7097-3.88783-10.48537-3.88783-10.48537s6.47972 2.94533 8.36474 5.06597c1.88501 2.12063 6.71535 8.9538 6.71535 8.9538s.23563-8.36474 1.29594-11.19226c1.06032-2.82751 5.53722-10.83881 5.53722-10.83881s1.17814 6.59754 2.47408 9.66068c1.29595 3.06315 4.12346 11.07444 4.24128 13.31289.11781 2.23846.9425 7.0688.9425 7.0688" fill="none" stroke="#ce2921" stroke-linecap="round" stroke-linejoin="round" stroke-width="3"/><path d="m428.48663 166.37641s-2.00282-9.89631-2.47408-11.66351c-.47125-1.76719-3.18095-5.53722-4.24127-8.48255s-3.41659-10.01412-3.41659-10.01412-2.00282 6.59754-2.12063 9.7785c-.11782 3.18095-.70688 11.42788-.70688 11.42788s-5.18378-2.94533-6.95098-3.77002c-1.7672-.8247-10.721-3.06315-10.721-3.06315s4.59471 7.89349 6.2441 10.83882c1.64938 2.94533 4.94815 9.77849 4.94815 9.77849" fill="none" stroke="#ce2921" stroke-linecap="round" stroke-linejoin="round" stroke-width="3"/><path d="m416.11624 141.75345s-5.89066-7.1866-8.36473-10.48537c-2.47408-3.29877-7.89349-12.60602-7.89349-12.60602s-1.29594 4.94816-1.64938 7.18661.11781 9.18943.11781 9.18943-5.89066-3.18096-7.18661-3.18096c-1.29594 0-7.42223-.9425-7.42223-.9425s3.5344 5.18378 5.89066 8.0113c2.35627 2.82751 8.71818 11.78132 8.71818 11.78132" fill="none" stroke="#ce2921" stroke-linecap="round" stroke-linejoin="round" stroke-width="3"/><path d="m397.97301 128.55837s-5.41941-8.71817-8.48255-10.83881-17.31854-7.77567-17.31854-7.77567 7.1866 6.83316 8.24692 8.9538 5.18378 12.25257 5.18378 12.25257" fill="none" stroke="#ce2921" stroke-linecap="round" stroke-linejoin="round" stroke-width="3"/><g fill="none" stroke="#ce2921" stroke-linecap="round" stroke-linejoin="round" stroke-width="3" transform="matrix(-1 0 0 1 600.0888 -.942506)"><path d="m280.63106 354.99536s12.01694-4.00565 17.9076-4.47691c5.89066-.47125 15.78697-3.29877 20.02825-6.59754 4.24127-3.29877 12.95945-7.30441 20.4995-8.24692 7.54004-.94251 14.84446-3.5344 21.442-7.77567 6.59754-4.24128 19.55699-12.72383 25.21203-17.20073 5.65503-4.4769 17.9076-16.49385 21.442-21.91326 3.5344-5.4194 12.25257-19.79262 15.08009-28.03954s1.88501-19.55699 4.71253-28.27517 2.59189-18.14323 1.41376-27.80392c-1.17814-9.66068-5.41941-19.08573-5.65504-25.21202-.23562-6.12629-2.59189-13.43071-5.18378-18.14324-2.59189-4.71252-5.89066-12.25257-9.66068-16.72947s-9.89631-9.89631-9.89631-9.89631"/><path d="m340.36235 335.20274s2.70971-6.95098 4.83034-9.7785c2.12064-2.82752 9.54287-8.60036 12.13476-10.13194 2.59189-1.53157 9.30725-5.18378 9.30725-5.18378s0 5.41941-.94251 7.65786c-.9425 2.23845-4.83034 9.66069-4.83034 9.66069s8.60036-.11782 10.60319-.11782c2.00282 0 10.13193 2.94533 10.13193 2.94533s-4.94815 5.89066-7.77567 6.83317c-2.82751.9425-11.78132 2.94533-16.49385 2.7097-4.71252-.23562-16.9651-4.59471-16.9651-4.59471z"/><path d="m366.87032 310.69759s7.89349-6.36191 10.36757-8.48255c2.47407-2.12064 10.24974-9.54287 10.24974-9.54287s-.11781 7.89348-.9425 10.60319c-.82469 2.7097-4.00565 9.54287-4.00565 9.54287h11.07444c2.59189 0 11.19226-1.53157 11.19226-1.53157s-7.54005 8.48255-9.89631 10.13193c-2.35627 1.64939-6.71536 3.77002-10.13194 4.83034s-7.42223 2.00283-7.42223 2.00283"/><path d="m387.84107 293.26124s5.06597-6.12629 6.59754-8.12912c1.53158-2.00282 5.53722-7.89348 6.47973-10.13193s3.41658-6.12629 3.41658-6.12629.35344 10.60319-.35344 13.90196-1.88501 11.54569-1.88501 11.54569 6.59754-3.77002 9.54287-4.4769 9.42506-1.7672 9.42506-1.7672-4.59472 9.54287-6.83317 12.4882-10.24975 10.72101-10.24975 10.72101"/><path d="m404.80618 269.34515s3.06314-4.12346 4.83034-8.12911 5.18378-16.61166 5.18378-16.61166 2.23845 6.59754 2.23845 10.13194c0 3.53439.58907 16.14041.58907 16.14041s7.42223-10.24975 9.42505-12.01695c2.00283-1.7672 7.77567-8.36474 7.77567-8.36474s-.35344 11.89914-1.64938 14.84447c-1.29595 2.94533-5.3016 8.71817-6.95098 12.13476-1.64939 3.41658-7.18661 10.95662-7.18661 10.95662"/><path d="m415.05593 245.78252s1.17813-14.96228 1.29594-17.55417.58907-10.48538.58907-10.48538 5.4194 9.18943 6.00847 11.19225c.58907 2.00283 2.35626 9.54287 2.35626 9.54287s3.88784-7.30441 5.77285-9.54287c1.88501-2.23845 9.7785-7.65785 9.7785-7.65785s-.94251 11.19225-2.00283 14.84446-4.00565 14.96228-4.00565 14.96228"/><path d="m417.88344 218.56766s-.47125-8.83599-.35344-11.78132c.11782-2.94533-1.06032-14.13758-1.06032-14.13758s4.83034 4.00565 6.12629 6.36191 6.36191 8.36474 6.36191 8.36474 3.41659-4.83034 4.94816-7.42223 6.2441-8.83599 6.2441-8.83599 1.17813 11.19225.82469 15.43353c-.35344 4.24127-.47125 14.96227-.47125 14.96227"/><path d="m416.46968 192.76657s-2.94533-8.9538-4.00565-11.66351c-1.06031-2.7097-3.88783-10.48537-3.88783-10.48537s6.47972 2.94533 8.36474 5.06597c1.88501 2.12063 6.71535 8.9538 6.71535 8.9538s.23563-8.36474 1.29594-11.19226c1.06032-2.82751 5.53722-10.83881 5.53722-10.83881s1.17814 6.59754 2.47408 9.66068c1.29595 3.06315 4.12346 11.07444 4.24128 13.31289.11781 2.23846.9425 7.0688.9425 7.0688"/><path d="m428.48663 166.37641s-2.00282-9.89631-2.47408-11.66351c-.47125-1.76719-3.18095-5.53722-4.24127-8.48255s-3.41659-10.01412-3.41659-10.01412-2.00282 6.59754-2.12063 9.7785c-.11782 3.18095-.70688 11.42788-.70688 11.42788s-5.18378-2.94533-6.95098-3.77002c-1.7672-.8247-10.721-3.06315-10.721-3.06315s4.59471 7.89349 6.2441 10.83882c1.64938 2.94533 4.94815 9.77849 4.94815 9.77849"/><path d="m416.11624 141.75345s-5.89066-7.1866-8.36473-10.48537c-2.47408-3.29877-7.89349-12.60602-7.89349-12.60602s-1.29594 4.94816-1.64938 7.18661.11781 9.18943.11781 9.18943-5.89066-3.18096-7.18661-3.18096c-1.29594 0-7.42223-.9425-7.42223-.9425s3.5344 5.18378 5.89066 8.0113c2.35627 2.82751 8.71818 11.78132 8.71818 11.78132"/><path d="m397.97301 128.55837s-5.41941-8.71817-8.48255-10.83881-17.31854-7.77567-17.31854-7.77567 7.1866 6.83316 8.24692 8.9538 5.18378 12.25257 5.18378 12.25257"/></g></g></svg>