<svg id="svg" xmlns="http://www.w3.org/2000/svg" xmlns:xlink="http://www.w3.org/1999/xlink" width="400" height="239.52095808383234" viewBox="0, 0, 400,239.52095808383234"><g id="svgg"><path id="path0" d="M2.335 118.728 C 1.938 118.832,1.916 121.876,1.916 178.422 L 1.916 238.007 2.526 238.285 C 2.988 238.495,51.267 238.563,200.632 238.563 L 398.127 238.563 398.576 238.024 C 399.255 237.210,399.301 119.411,398.623 118.896 C 398.216 118.587,3.515 118.420,2.335 118.728 M353.005 134.289 C 353.307 134.480,353.683 134.927,353.840 135.282 C 353.996 135.637,354.315 136.069,354.547 136.241 C 354.780 136.413,354.970 136.706,354.970 136.891 C 354.970 137.077,355.186 137.344,355.449 137.485 C 355.713 137.626,355.928 137.844,355.928 137.969 C 355.928 138.094,356.521 138.964,357.246 139.901 C 358.917 142.064,359.058 143.731,357.687 145.102 C 357.510 145.279,357.365 145.616,357.365 145.852 C 357.365 146.088,357.111 146.655,356.801 147.113 C 356.490 147.570,356.164 148.325,356.077 148.790 C 355.990 149.255,355.705 149.828,355.444 150.064 C 355.183 150.300,354.970 150.800,354.970 151.175 C 354.970 151.550,354.770 152.056,354.526 152.301 C 354.281 152.545,354.011 153.057,353.925 153.438 C 353.839 153.820,353.506 154.671,353.186 155.329 C 352.865 155.988,352.432 156.904,352.223 157.365 C 352.014 157.826,351.753 158.365,351.642 158.563 C 351.183 159.383,349.965 162.078,349.809 162.618 C 349.717 162.939,349.439 163.531,349.193 163.936 C 348.946 164.340,348.744 164.834,348.743 165.034 C 348.743 165.234,348.473 165.794,348.144 166.279 C 347.814 166.764,347.545 167.342,347.545 167.564 C 347.545 167.786,347.342 168.303,347.095 168.714 C 346.847 169.125,346.516 169.865,346.358 170.359 C 346.200 170.853,345.980 171.257,345.869 171.257 C 345.758 171.257,345.491 171.788,345.276 172.437 C 345.060 173.085,344.742 173.734,344.568 173.878 C 344.395 174.022,344.190 174.530,344.112 175.008 C 344.035 175.486,343.770 176.104,343.523 176.382 C 343.277 176.659,342.945 177.344,342.786 177.904 C 342.626 178.464,342.394 178.922,342.269 178.922 C 342.144 178.922,341.972 179.357,341.887 179.889 C 341.802 180.421,341.539 180.992,341.302 181.157 C 340.914 181.430,340.791 181.757,340.471 183.369 C 340.417 183.641,340.154 184.116,339.887 184.424 C 339.620 184.732,339.401 185.210,339.400 185.486 C 339.400 185.762,339.191 186.329,338.937 186.747 C 338.582 187.329,338.546 187.533,338.784 187.625 C 338.955 187.690,339.216 188.226,339.364 188.815 C 339.513 189.404,339.792 189.947,339.984 190.021 C 340.177 190.095,340.453 190.597,340.599 191.138 C 340.744 191.679,341.073 192.331,341.330 192.587 C 341.587 192.844,341.796 193.255,341.796 193.501 C 341.796 193.746,342.000 194.206,342.249 194.523 C 342.498 194.839,342.877 195.473,343.091 195.932 C 343.449 196.698,343.952 197.653,344.476 198.563 C 344.590 198.760,344.906 199.393,345.180 199.969 L 345.677 201.016 348.019 200.850 C 350.941 200.643,351.970 200.899,353.267 202.158 C 353.809 202.684,354.356 203.114,354.483 203.114 C 354.610 203.114,354.833 203.337,354.980 203.611 C 355.126 203.884,355.453 204.316,355.707 204.569 C 355.960 204.823,356.168 205.175,356.168 205.352 C 356.168 205.529,356.383 205.869,356.647 206.108 C 356.967 206.398,357.126 206.846,357.126 207.460 C 357.126 208.120,356.991 208.464,356.647 208.678 C 356.383 208.843,356.168 209.109,356.168 209.271 C 356.168 210.589,353.641 210.308,352.123 208.822 C 350.183 206.922,347.665 207.175,349.339 209.102 C 349.642 209.450,350.248 210.558,351.012 212.156 C 351.216 212.584,351.517 212.948,351.680 212.965 C 351.843 212.982,353.216 213.010,354.731 213.027 C 357.726 213.060,358.143 213.199,361.069 215.140 C 363.672 216.866,362.990 218.443,359.641 218.443 C 358.405 218.443,357.328 218.549,357.247 218.679 C 357.167 218.809,356.524 219.084,355.818 219.289 C 355.112 219.494,354.474 219.819,354.400 220.011 C 354.005 221.041,347.603 222.800,345.602 222.428 C 345.156 222.345,344.144 222.180,343.353 222.061 C 339.978 221.553,338.770 220.167,340.387 218.657 C 341.185 217.911,341.429 217.828,343.474 217.607 C 344.859 217.458,346.125 216.290,345.262 215.958 C 345.083 215.890,344.801 215.370,344.636 214.803 C 344.470 214.236,344.267 213.719,344.185 213.653 C 343.935 213.454,343.234 211.925,343.234 211.580 C 343.234 211.403,343.123 211.257,342.989 211.257 C 342.854 211.257,342.621 210.988,342.471 210.659 C 341.982 209.584,341.796 210.022,341.796 212.257 L 341.796 214.453 340.707 215.497 C 340.043 216.133,339.505 216.471,339.330 216.363 C 339.171 216.265,338.622 216.127,338.109 216.056 C 336.454 215.829,336.181 215.167,336.091 211.158 L 336.014 207.739 336.970 206.744 C 337.496 206.196,338.040 205.749,338.179 205.749 C 338.317 205.749,338.591 205.439,338.786 205.061 C 339.171 204.317,339.065 203.990,337.771 201.916 C 337.483 201.455,337.247 200.915,337.246 200.716 C 337.246 200.517,337.040 200.226,336.788 200.069 C 336.536 199.912,336.252 199.428,336.157 198.993 C 336.062 198.559,335.795 198.071,335.564 197.910 C 335.333 197.748,335.071 197.322,334.980 196.962 L 334.816 196.307 334.115 197.434 C 333.729 198.054,333.413 198.665,333.413 198.792 C 333.413 198.919,332.934 199.953,332.349 201.090 C 331.219 203.286,331.174 204.101,332.167 204.416 C 336.697 205.854,336.657 215.569,332.121 215.569 C 331.479 215.569,330.299 214.726,330.299 214.266 C 330.299 214.096,330.086 213.686,329.826 213.355 C 329.554 213.009,329.285 212.178,329.193 211.400 C 329.009 209.832,328.728 209.512,328.368 210.460 C 328.228 210.827,328.010 211.192,327.884 211.270 C 327.757 211.349,327.551 212.041,327.426 212.810 C 327.293 213.628,326.997 214.421,326.713 214.724 C 325.821 215.673,326.061 216.395,327.365 216.690 C 331.320 217.587,332.214 218.291,331.337 219.819 C 330.169 221.854,322.295 222.870,319.266 221.377 C 318.664 221.081,318.069 220.838,317.944 220.838 C 317.819 220.838,317.287 220.542,316.762 220.180 C 315.742 219.475,311.709 219.213,311.110 219.813 C 310.261 220.661,308.862 218.892,309.465 217.733 C 310.635 215.481,314.802 213.295,317.621 213.455 C 318.534 213.506,319.281 213.482,319.281 213.402 C 319.281 213.321,319.539 213.117,319.854 212.948 C 320.247 212.738,320.472 212.355,320.573 211.723 C 320.654 211.218,320.923 210.662,321.171 210.488 C 321.497 210.261,321.647 209.806,321.710 208.859 L 321.796 207.545 321.093 207.628 C 320.438 207.705,319.042 208.883,319.042 209.358 C 319.042 209.860,317.409 210.220,315.669 210.102 C 314.281 210.008,312.884 205.988,314.239 205.988 C 314.352 205.988,314.551 205.692,314.682 205.329 C 314.955 204.577,317.274 201.916,317.657 201.916 C 317.797 201.916,318.049 201.728,318.218 201.497 C 318.470 201.151,319.028 201.057,321.399 200.958 C 322.980 200.892,324.309 200.784,324.352 200.719 C 324.768 200.088,325.269 198.921,325.269 198.584 C 325.269 198.354,325.526 197.659,325.839 197.040 C 326.152 196.422,326.546 195.406,326.714 194.784 C 326.882 194.162,327.152 193.491,327.315 193.293 C 327.478 193.096,327.690 192.557,327.787 192.096 C 327.884 191.635,328.219 190.773,328.532 190.182 C 329.478 188.395,329.318 187.056,327.902 184.910 C 327.511 184.317,326.987 183.401,326.738 182.874 C 326.488 182.347,326.056 181.657,325.777 181.341 C 325.498 181.024,325.269 180.566,325.269 180.323 C 325.269 180.079,325.189 179.880,325.090 179.879 C 324.866 179.877,324.072 178.506,324.072 178.122 C 324.072 177.967,323.866 177.711,323.614 177.554 C 323.363 177.397,323.087 176.951,323.002 176.563 C 322.917 176.175,322.644 175.674,322.395 175.449 C 322.147 175.224,321.878 174.743,321.798 174.379 C 321.718 174.015,321.469 173.514,321.244 173.266 C 321.019 173.018,320.703 172.518,320.542 172.156 C 320.381 171.793,320.144 171.497,320.014 171.497 C 319.885 171.497,319.656 171.039,319.506 170.479 C 319.356 169.919,319.080 169.299,318.891 169.102 C 318.243 168.421,317.134 166.586,317.130 166.186 C 317.128 165.966,316.863 165.473,316.542 165.092 C 316.222 164.711,315.887 164.110,315.798 163.756 C 315.709 163.403,315.535 163.114,315.410 163.114 C 315.285 163.114,314.968 162.629,314.706 162.036 C 314.444 161.443,314.137 160.958,314.024 160.958 C 313.912 160.958,313.704 160.627,313.563 160.222 C 313.421 159.817,313.034 159.162,312.701 158.766 C 312.368 158.371,312.096 157.952,312.096 157.837 C 312.096 157.721,311.826 157.229,311.497 156.744 C 311.168 156.258,310.898 155.661,310.898 155.416 C 310.898 155.171,310.754 154.970,310.577 154.970 C 310.252 154.970,309.701 154.007,309.701 153.439 C 309.701 153.268,309.491 152.939,309.235 152.707 C 308.979 152.475,308.704 151.987,308.624 151.622 C 308.544 151.257,308.214 150.710,307.892 150.407 C 307.569 150.105,307.305 149.694,307.305 149.495 C 307.305 149.296,307.082 148.895,306.809 148.605 C 305.744 147.470,305.813 145.015,306.949 143.665 C 307.277 143.276,307.545 142.817,307.545 142.646 C 307.545 142.474,307.708 142.199,307.907 142.034 C 308.106 141.868,308.477 141.262,308.732 140.687 C 308.986 140.112,309.308 139.641,309.448 139.641 C 309.587 139.641,309.701 139.433,309.701 139.180 C 309.701 138.527,310.782 137.324,311.490 137.188 C 312.134 137.065,313.054 137.569,313.054 138.044 C 313.054 138.205,313.267 138.519,313.526 138.741 C 313.786 138.964,314.071 139.446,314.158 139.812 C 314.246 140.179,314.437 140.626,314.584 140.805 C 314.854 141.135,315.157 141.709,317.183 145.736 C 317.808 146.978,318.428 148.060,318.561 148.142 C 318.694 148.225,318.802 148.486,318.802 148.724 C 318.802 148.962,319.012 149.423,319.267 149.748 C 319.523 150.073,319.919 150.815,320.147 151.397 C 320.375 151.979,320.752 152.703,320.983 153.005 C 321.215 153.308,321.472 153.866,321.556 154.246 C 321.639 154.626,321.857 155.061,322.039 155.212 C 322.221 155.364,322.497 155.883,322.652 156.366 C 322.807 156.850,323.121 157.461,323.351 157.725 C 323.581 157.988,323.846 158.527,323.940 158.922 C 324.034 159.317,324.318 159.834,324.570 160.069 C 324.823 160.305,325.030 160.688,325.030 160.921 C 325.030 161.154,325.299 161.709,325.629 162.156 C 325.958 162.602,326.228 163.103,326.228 163.269 C 326.228 163.436,326.497 163.969,326.826 164.454 C 327.156 164.939,327.425 165.494,327.425 165.687 C 327.425 165.881,327.695 166.359,328.024 166.750 C 328.353 167.142,328.623 167.611,328.623 167.792 C 328.623 167.974,328.892 168.520,329.222 169.005 C 329.551 169.490,329.820 170.071,329.820 170.296 C 329.820 170.520,330.030 170.894,330.286 171.125 C 330.542 171.357,330.820 171.860,330.904 172.243 C 330.988 172.626,331.186 173.073,331.345 173.236 C 331.503 173.399,332.042 174.369,332.544 175.390 C 333.404 177.142,333.892 177.552,333.892 176.522 C 333.892 176.272,334.096 175.874,334.344 175.638 C 334.592 175.402,334.873 174.725,334.968 174.132 C 335.063 173.539,335.333 172.838,335.569 172.575 C 335.805 172.311,336.072 171.637,336.164 171.077 C 336.255 170.516,336.519 169.923,336.750 169.759 C 336.991 169.588,337.230 169.010,337.310 168.406 C 337.386 167.826,337.655 167.072,337.907 166.730 C 338.158 166.388,338.432 165.688,338.514 165.175 C 338.596 164.662,338.884 164.009,339.152 163.723 C 339.421 163.437,339.641 162.906,339.641 162.544 C 339.641 162.182,339.898 161.327,340.213 160.644 C 340.895 159.164,341.417 157.823,342.176 155.604 C 342.484 154.701,342.838 153.839,342.962 153.688 C 343.086 153.537,343.315 152.928,343.472 152.335 C 343.629 151.743,343.894 151.096,344.060 150.898 C 344.227 150.701,344.495 150.000,344.655 149.341 C 344.815 148.683,345.093 147.980,345.274 147.781 C 345.454 147.581,345.705 146.954,345.833 146.387 C 345.960 145.819,346.227 145.174,346.425 144.953 C 346.624 144.732,346.861 144.146,346.953 143.651 C 347.045 143.155,347.314 142.503,347.552 142.201 C 347.790 141.898,348.057 141.226,348.146 140.706 C 348.235 140.186,348.506 139.479,348.748 139.134 C 348.990 138.790,349.264 138.102,349.357 137.605 C 349.450 137.108,349.713 136.515,349.940 136.287 C 350.167 136.060,350.427 135.485,350.516 135.009 C 350.770 133.656,351.615 133.412,353.005 134.289 " stroke="none" fill="#dc2424" fill-rule="evenodd"></path><path id="path1" d="M2.353 1.128 C 0.991 1.337,1.083 -2.678,1.016 59.341 C 0.954 116.367,0.951 116.694,0.477 116.817 C -0.279 117.015,-0.277 239.521,0.479 239.521 C 0.957 239.521,0.958 239.361,0.958 178.723 L 0.958 117.925 1.497 117.641 C 1.912 117.423,47.944 117.372,201.018 117.421 L 400.000 117.485 400.000 116.946 C 400.000 116.645,399.853 116.407,399.666 116.407 C 399.049 116.407,399.042 115.776,399.042 58.721 L 399.042 1.792 398.503 1.435 C 397.995 1.098,4.533 0.793,2.353 1.128 M311.003 138.982 L 310.299 139.760 311.078 139.057 C 311.803 138.401,311.966 138.204,311.781 138.204 C 311.740 138.204,311.390 138.554,311.003 138.982 M349.260 140.250 C 348.859 141.131,348.936 141.318,349.370 140.518 C 349.572 140.144,349.693 139.793,349.638 139.738 C 349.584 139.684,349.414 139.914,349.260 140.250 M306.920 145.492 C 306.847 145.680,306.829 146.084,306.878 146.390 C 306.943 146.799,306.999 146.709,307.088 146.048 C 307.213 145.118,307.147 144.899,306.920 145.492 M349.281 201.842 C 349.512 201.902,349.889 201.902,350.120 201.842 C 350.350 201.782,350.162 201.732,349.701 201.732 C 349.240 201.732,349.051 201.782,349.281 201.842 M322.216 202.088 C 322.578 202.143,323.171 202.143,323.533 202.088 C 323.895 202.033,323.599 201.988,322.874 201.988 C 322.150 201.988,321.853 202.033,322.216 202.088 M317.470 203.413 L 316.766 204.192 317.545 203.488 C 318.271 202.832,318.433 202.635,318.248 202.635 C 318.207 202.635,317.857 202.985,317.470 203.413 M351.377 207.021 C 351.377 207.062,351.728 207.413,352.156 207.799 L 352.934 208.503 352.231 207.725 C 351.575 206.999,351.377 206.836,351.377 207.021 M334.215 210.778 C 334.215 211.898,334.257 212.356,334.307 211.796 C 334.358 211.237,334.358 210.320,334.307 209.760 C 334.257 209.201,334.215 209.659,334.215 210.778 M340.910 211.976 C 340.910 212.701,340.955 212.997,341.010 212.635 C 341.065 212.272,341.065 211.680,341.010 211.317 C 340.955 210.955,340.910 211.251,340.910 211.976 M340.132 214.478 C 339.829 214.800,339.299 215.107,338.953 215.161 L 338.323 215.258 338.937 215.293 C 339.338 215.317,339.790 215.080,340.240 214.611 C 340.618 214.216,340.873 213.892,340.805 213.892 C 340.738 213.892,340.435 214.156,340.132 214.478 M316.590 214.541 C 316.888 214.598,317.319 214.596,317.548 214.536 C 317.777 214.476,317.533 214.429,317.006 214.432 C 316.479 214.434,316.292 214.483,316.590 214.541 M360.479 216.747 C 360.479 216.999,360.344 217.260,360.180 217.326 C 360.001 217.399,360.049 217.455,360.299 217.466 C 360.592 217.479,360.719 217.304,360.719 216.886 C 360.719 216.557,360.665 216.287,360.599 216.287 C 360.533 216.287,360.479 216.494,360.479 216.747 M311.065 217.186 C 310.642 217.941,310.675 218.683,311.133 218.683 C 311.399 218.683,311.617 218.575,311.617 218.443 C 311.617 218.311,311.496 218.204,311.349 218.204 C 311.193 218.204,311.130 217.954,311.196 217.605 C 311.310 217.009,311.258 216.842,311.065 217.186 M358.147 217.417 C 358.511 217.472,359.050 217.471,359.345 217.414 C 359.639 217.357,359.341 217.312,358.683 217.314 C 358.024 217.316,357.783 217.362,358.147 217.417 M312.994 218.377 C 313.422 218.430,314.123 218.430,314.551 218.377 C 314.979 218.324,314.629 218.280,313.772 218.280 C 312.916 218.280,312.566 218.324,312.994 218.377 M353.892 219.072 C 353.462 219.438,353.373 219.584,353.672 219.436 C 354.111 219.217,354.935 218.429,354.700 218.452 C 354.651 218.456,354.287 218.736,353.892 219.072 M324.132 221.243 C 324.362 221.303,324.740 221.303,324.970 221.243 C 325.201 221.183,325.012 221.133,324.551 221.133 C 324.090 221.133,323.901 221.183,324.132 221.243 M345.813 221.491 C 346.243 221.544,346.890 221.543,347.250 221.489 C 347.610 221.434,347.257 221.390,346.467 221.392 C 345.677 221.393,345.382 221.438,345.813 221.491 " stroke="none" fill="#f4db33" fill-rule="evenodd"></path><path id="path2" d="M350.739 137.071 C 348.543 142.777,346.757 147.299,346.339 148.210 C 346.080 148.773,345.868 149.359,345.868 149.512 C 345.868 149.664,345.669 150.227,345.425 150.763 C 345.181 151.298,344.679 152.545,344.309 153.533 C 343.475 155.760,342.614 157.905,342.050 159.162 C 341.814 159.689,341.322 160.928,340.957 161.916 C 340.592 162.904,340.059 164.251,339.772 164.910 C 339.486 165.569,339.112 166.485,338.943 166.946 C 338.773 167.407,338.313 168.593,337.919 169.581 C 337.526 170.569,337.005 171.898,336.760 172.534 C 336.515 173.170,336.216 173.816,336.095 173.971 C 335.974 174.125,335.799 174.567,335.706 174.953 C 335.423 176.134,334.133 178.697,333.747 178.845 C 333.138 179.079,332.879 178.630,327.023 167.186 C 325.236 163.695,323.459 160.246,323.072 159.521 C 321.775 157.088,318.525 150.823,315.621 145.154 C 314.036 142.060,312.560 139.233,312.340 138.872 L 311.940 138.214 311.180 138.999 C 310.761 139.430,310.419 139.848,310.419 139.927 C 310.419 140.007,309.993 140.756,309.472 141.593 C 307.660 144.502,307.066 145.625,307.066 146.140 C 307.066 146.756,308.167 149.140,308.766 149.820 C 308.998 150.084,309.515 150.924,309.915 151.686 C 310.316 152.449,312.191 155.683,314.084 158.872 C 315.976 162.061,318.209 165.910,319.045 167.425 C 319.881 168.940,320.851 170.611,321.199 171.138 C 321.548 171.665,322.364 173.045,323.012 174.205 C 323.661 175.366,324.354 176.605,324.553 176.960 C 324.751 177.315,325.139 177.982,325.414 178.443 C 329.796 185.779,330.137 186.423,330.246 187.552 C 330.356 188.701,330.301 188.939,329.379 191.257 C 329.117 191.916,328.561 193.317,328.144 194.371 C 327.726 195.425,327.165 196.826,326.898 197.485 C 326.630 198.144,326.198 199.305,325.937 200.066 C 325.304 201.911,324.810 202.156,321.707 202.156 C 316.984 202.156,312.898 207.561,316.306 209.300 C 316.832 209.568,318.323 208.897,318.323 208.392 C 318.323 207.817,320.761 206.228,321.638 206.231 C 323.834 206.240,323.775 207.350,321.298 212.617 C 320.352 214.628,320.240 214.686,317.246 214.723 C 315.330 214.747,314.957 214.827,313.892 215.444 C 310.350 217.495,310.188 218.204,313.261 218.204 C 315.287 218.204,315.481 218.252,317.512 219.257 C 321.393 221.176,325.817 221.483,329.401 220.080 C 330.798 219.533,330.311 218.600,328.444 218.246 C 325.267 217.643,324.760 216.837,325.831 214.088 C 326.155 213.256,326.592 212.036,326.803 211.377 C 327.986 207.685,330.521 208.010,330.538 211.856 C 330.548 213.802,333.269 214.934,333.906 213.257 C 335.024 210.316,334.035 207.050,331.497 205.307 C 329.727 204.091,329.733 203.946,331.744 199.562 C 334.437 193.693,334.336 193.684,337.992 200.120 C 338.815 201.569,339.685 203.012,339.924 203.326 C 340.857 204.551,340.532 205.304,338.361 206.946 C 335.929 208.786,336.345 215.090,338.899 215.090 C 340.082 215.090,340.838 213.993,340.838 212.278 C 340.838 210.236,341.105 209.662,342.191 209.362 C 342.684 209.226,343.108 209.139,343.133 209.168 C 343.158 209.198,343.946 210.756,344.883 212.632 C 347.332 217.533,347.287 217.718,343.364 218.808 C 341.790 219.245,340.904 219.745,341.286 219.980 C 343.124 221.116,346.814 221.651,348.744 221.062 C 349.204 220.921,350.232 220.618,351.028 220.389 C 351.824 220.160,353.072 219.576,353.801 219.092 C 355.551 217.930,356.909 217.434,358.802 217.265 C 361.325 217.039,361.026 216.107,357.964 214.646 C 357.447 214.399,356.406 214.311,354.247 214.332 L 351.249 214.361 350.580 213.523 C 350.212 213.061,349.752 212.336,349.556 211.911 C 349.361 211.486,348.832 210.491,348.380 209.701 C 347.475 208.116,347.270 206.624,347.924 206.373 C 349.260 205.860,350.517 206.215,352.085 207.548 C 355.748 210.663,357.399 207.643,353.916 204.197 C 351.684 201.989,351.303 201.876,347.012 202.152 C 345.303 202.262,344.950 201.980,343.779 199.579 C 343.310 198.618,342.842 197.779,342.738 197.715 C 342.635 197.650,342.421 197.208,342.264 196.731 C 342.106 196.253,341.721 195.485,341.408 195.024 C 341.095 194.562,340.838 193.984,340.838 193.739 C 340.838 193.494,340.744 193.293,340.628 193.293 C 340.513 193.293,340.183 192.781,339.896 192.156 C 339.609 191.530,339.006 190.317,338.555 189.461 C 337.574 187.599,337.527 186.744,338.323 185.246 C 338.653 184.627,338.922 183.988,338.922 183.826 C 338.922 183.664,339.072 183.407,339.255 183.256 C 339.438 183.104,339.705 182.513,339.849 181.942 C 339.992 181.372,340.274 180.769,340.474 180.603 C 340.674 180.437,340.838 180.141,340.838 179.946 C 340.838 179.568,342.699 175.300,344.821 170.809 C 345.529 169.310,346.108 168.040,346.108 167.985 C 346.108 167.931,346.647 166.752,347.305 165.366 C 347.964 163.980,348.503 162.741,348.503 162.613 C 348.503 162.485,349.269 160.794,350.205 158.855 C 351.804 155.541,352.491 154.075,353.932 150.898 C 354.260 150.174,354.731 149.150,354.979 148.623 C 355.226 148.096,355.723 146.964,356.082 146.108 C 356.442 145.251,356.932 144.265,357.171 143.915 C 357.917 142.823,357.701 142.239,355.458 139.281 C 354.858 138.491,354.052 137.379,353.667 136.810 C 353.107 135.983,351.982 135.064,351.569 135.095 C 351.529 135.098,351.156 135.987,350.739 137.071 " stroke="none" fill="#f9ebea" fill-rule="evenodd"></path><path id="path3" d="M1.377 117.699 C 0.980 118.000,0.958 121.191,0.958 178.769 L 0.958 239.521 200.479 239.521 L 400.000 239.521 400.000 178.591 L 400.000 117.661 399.461 117.516 C 398.226 117.185,1.814 117.367,1.377 117.699 M398.623 118.896 C 399.301 119.411,399.255 237.210,398.576 238.024 L 398.127 238.563 200.632 238.563 C 51.267 238.563,2.988 238.495,2.526 238.285 L 1.916 238.007 1.916 178.422 C 1.916 121.876,1.938 118.832,2.335 118.728 C 3.515 118.420,398.216 118.587,398.623 118.896 M351.087 133.908 C 350.862 134.038,350.605 134.534,350.516 135.009 C 350.427 135.485,350.167 136.060,349.940 136.287 C 349.713 136.515,349.450 137.108,349.357 137.605 C 349.264 138.102,348.990 138.790,348.748 139.134 C 348.506 139.479,348.235 140.186,348.146 140.706 C 348.057 141.226,347.790 141.898,347.552 142.201 C 347.314 142.503,347.045 143.155,346.953 143.651 C 346.861 144.146,346.624 144.732,346.425 144.953 C 346.227 145.174,345.960 145.819,345.833 146.387 C 345.705 146.954,345.454 147.581,345.274 147.781 C 345.093 147.980,344.815 148.683,344.655 149.341 C 344.495 150.000,344.227 150.701,344.060 150.898 C 343.894 151.096,343.629 151.743,343.472 152.335 C 343.315 152.928,343.086 153.537,342.962 153.688 C 342.838 153.839,342.484 154.701,342.176 155.604 C 341.417 157.823,340.895 159.164,340.213 160.644 C 339.898 161.327,339.641 162.182,339.641 162.544 C 339.641 162.906,339.421 163.437,339.152 163.723 C 338.884 164.009,338.596 164.662,338.514 165.175 C 338.432 165.688,338.158 166.388,337.907 166.730 C 337.655 167.072,337.386 167.826,337.310 168.406 C 337.230 169.010,336.991 169.588,336.750 169.759 C 336.519 169.923,336.255 170.516,336.164 171.077 C 336.072 171.637,335.805 172.311,335.569 172.575 C 335.333 172.838,335.063 173.539,334.968 174.132 C 334.873 174.725,334.592 175.402,334.344 175.638 C 334.096 175.874,333.892 176.272,333.892 176.522 C 333.892 177.552,333.404 177.142,332.544 175.390 C 332.042 174.369,331.503 173.399,331.345 173.236 C 331.186 173.073,330.988 172.626,330.904 172.243 C 330.820 171.860,330.542 171.357,330.286 171.125 C 330.030 170.894,329.820 170.520,329.820 170.296 C 329.820 170.071,329.551 169.490,329.222 169.005 C 328.892 168.520,328.623 167.974,328.623 167.792 C 328.623 167.611,328.353 167.142,328.024 166.750 C 327.695 166.359,327.425 165.881,327.425 165.687 C 327.425 165.494,327.156 164.939,326.826 164.454 C 326.497 163.969,326.228 163.436,326.228 163.269 C 326.228 163.103,325.958 162.602,325.629 162.156 C 325.299 161.709,325.030 161.154,325.030 160.921 C 325.030 160.688,324.823 160.305,324.570 160.069 C 324.318 159.834,324.034 159.317,323.940 158.922 C 323.846 158.527,323.581 157.988,323.351 157.725 C 323.121 157.461,322.807 156.850,322.652 156.366 C 322.497 155.883,322.221 155.364,322.039 155.212 C 321.857 155.061,321.639 154.626,321.556 154.246 C 321.472 153.866,321.215 153.308,320.983 153.005 C 320.752 152.703,320.375 151.979,320.147 151.397 C 319.919 150.815,319.523 150.073,319.267 149.748 C 319.012 149.423,318.802 148.962,318.802 148.724 C 318.802 148.486,318.694 148.225,318.561 148.142 C 318.428 148.060,317.808 146.978,317.183 145.736 C 315.157 141.709,314.854 141.135,314.584 140.805 C 314.437 140.626,314.246 140.179,314.158 139.812 C 314.071 139.446,313.786 138.964,313.526 138.741 C 313.267 138.519,313.054 138.205,313.054 138.044 C 313.054 137.569,312.134 137.065,311.490 137.188 C 310.782 137.324,309.701 138.527,309.701 139.180 C 309.701 139.433,309.587 139.641,309.448 139.641 C 309.308 139.641,308.986 140.112,308.732 140.687 C 308.477 141.262,308.106 141.868,307.907 142.034 C 307.708 142.199,307.545 142.474,307.545 142.646 C 307.545 142.817,307.277 143.276,306.949 143.665 C 305.813 145.015,305.744 147.470,306.809 148.605 C 307.082 148.895,307.305 149.296,307.305 149.495 C 307.305 149.694,307.569 150.105,307.892 150.407 C 308.214 150.710,308.544 151.257,308.624 151.622 C 308.704 151.987,308.979 152.475,309.235 152.707 C 309.491 152.939,309.701 153.268,309.701 153.439 C 309.701 154.007,310.252 154.970,310.577 154.970 C 310.754 154.970,310.898 155.171,310.898 155.416 C 310.898 155.661,311.168 156.258,311.497 156.744 C 311.826 157.229,312.096 157.721,312.096 157.837 C 312.096 157.952,312.368 158.371,312.701 158.766 C 313.034 159.162,313.421 159.817,313.563 160.222 C 313.704 160.627,313.912 160.958,314.024 160.958 C 314.137 160.958,314.444 161.443,314.706 162.036 C 314.968 162.629,315.285 163.114,315.410 163.114 C 315.535 163.114,315.709 163.403,315.798 163.756 C 315.887 164.110,316.222 164.711,316.542 165.092 C 316.863 165.473,317.128 165.966,317.130 166.186 C 317.134 166.586,318.243 168.421,318.891 169.102 C 319.080 169.299,319.356 169.919,319.506 170.479 C 319.656 171.039,319.885 171.497,320.014 171.497 C 320.144 171.497,320.381 171.793,320.542 172.156 C 320.703 172.518,321.019 173.018,321.244 173.266 C 321.469 173.514,321.718 174.015,321.798 174.379 C 321.878 174.743,322.147 175.224,322.395 175.449 C 322.644 175.674,322.917 176.175,323.002 176.563 C 323.087 176.951,323.363 177.397,323.614 177.554 C 323.866 177.711,324.072 177.967,324.072 178.122 C 324.072 178.506,324.866 179.877,325.090 179.879 C 325.189 179.880,325.269 180.079,325.269 180.323 C 325.269 180.566,325.498 181.024,325.777 181.341 C 326.056 181.657,326.488 182.347,326.738 182.874 C 326.987 183.401,327.511 184.317,327.902 184.910 C 329.318 187.056,329.478 188.395,328.532 190.182 C 328.219 190.773,327.884 191.635,327.787 192.096 C 327.690 192.557,327.478 193.096,327.315 193.293 C 327.152 193.491,326.882 194.162,326.714 194.784 C 326.546 195.406,326.152 196.422,325.839 197.040 C 325.526 197.659,325.269 198.354,325.269 198.584 C 325.269 198.921,324.768 200.088,324.352 200.719 C 324.309 200.784,322.980 200.892,321.399 200.958 C 319.028 201.057,318.470 201.151,318.218 201.497 C 318.049 201.728,317.797 201.916,317.657 201.916 C 317.274 201.916,314.955 204.577,314.682 205.329 C 314.551 205.692,314.352 205.988,314.239 205.988 C 312.884 205.988,314.281 210.008,315.669 210.102 C 317.409 210.220,319.042 209.860,319.042 209.358 C 319.042 208.883,320.438 207.705,321.093 207.628 L 321.796 207.545 321.710 208.859 C 321.647 209.806,321.497 210.261,321.171 210.488 C 320.923 210.662,320.654 211.218,320.573 211.723 C 320.472 212.355,320.247 212.738,319.854 212.948 C 319.539 213.117,319.281 213.321,319.281 213.402 C 319.281 213.482,318.534 213.506,317.621 213.455 C 313.037 213.196,307.094 218.185,310.163 219.716 C 310.648 219.958,310.935 219.987,311.110 219.813 C 311.709 219.213,315.742 219.475,316.762 220.180 C 317.287 220.542,317.819 220.838,317.944 220.838 C 318.069 220.838,318.664 221.081,319.266 221.377 C 322.295 222.870,330.169 221.854,331.337 219.819 C 332.214 218.291,331.320 217.587,327.365 216.690 C 326.061 216.395,325.821 215.673,326.713 214.724 C 326.997 214.421,327.293 213.628,327.426 212.810 C 327.551 212.041,327.757 211.349,327.884 211.270 C 328.010 211.192,328.228 210.827,328.368 210.460 C 328.728 209.512,329.009 209.832,329.193 211.400 C 329.285 212.178,329.554 213.009,329.826 213.355 C 330.086 213.686,330.299 214.096,330.299 214.266 C 330.299 214.726,331.479 215.569,332.121 215.569 C 336.657 215.569,336.697 205.854,332.167 204.416 C 331.174 204.101,331.219 203.286,332.349 201.090 C 332.934 199.953,333.413 198.919,333.413 198.792 C 333.413 198.665,333.729 198.054,334.115 197.434 L 334.816 196.307 334.980 196.962 C 335.071 197.322,335.333 197.748,335.564 197.910 C 335.795 198.071,336.062 198.559,336.157 198.993 C 336.252 199.428,336.536 199.912,336.788 200.069 C 337.040 200.226,337.246 200.517,337.246 200.716 C 337.247 200.915,337.483 201.455,337.771 201.916 C 339.065 203.990,339.171 204.317,338.786 205.061 C 338.591 205.439,338.317 205.749,338.179 205.749 C 338.040 205.749,337.496 206.196,336.970 206.744 L 336.014 207.739 336.091 211.158 C 336.181 215.167,336.454 215.829,338.109 216.056 C 338.622 216.127,339.171 216.265,339.330 216.363 C 339.505 216.471,340.043 216.133,340.707 215.497 L 341.796 214.453 341.796 212.257 C 341.796 210.022,341.982 209.584,342.471 210.659 C 342.621 210.988,342.854 211.257,342.989 211.257 C 343.123 211.257,343.234 211.403,343.234 211.580 C 343.234 211.925,343.935 213.454,344.185 213.653 C 344.267 213.719,344.470 214.236,344.636 214.803 C 344.801 215.370,345.083 215.890,345.262 215.958 C 346.125 216.290,344.859 217.458,343.474 217.607 C 341.429 217.828,341.185 217.911,340.387 218.657 C 338.770 220.167,339.978 221.553,343.353 222.061 C 344.144 222.180,345.156 222.345,345.602 222.428 C 347.603 222.800,354.005 221.041,354.400 220.011 C 354.474 219.819,355.112 219.494,355.818 219.289 C 356.524 219.084,357.167 218.809,357.247 218.679 C 357.328 218.549,358.405 218.443,359.641 218.443 C 362.990 218.443,363.672 216.866,361.069 215.140 C 358.143 213.199,357.726 213.060,354.731 213.027 C 353.216 213.010,351.843 212.982,351.680 212.965 C 351.517 212.948,351.216 212.584,351.012 212.156 C 350.248 210.558,349.642 209.450,349.339 209.102 C 347.665 207.175,350.183 206.922,352.123 208.822 C 353.641 210.308,356.168 210.589,356.168 209.271 C 356.168 209.109,356.383 208.843,356.647 208.678 C 356.991 208.464,357.126 208.120,357.126 207.460 C 357.126 206.846,356.967 206.398,356.647 206.108 C 356.383 205.869,356.168 205.529,356.168 205.352 C 356.168 205.175,355.960 204.823,355.707 204.569 C 355.453 204.316,355.126 203.884,354.980 203.611 C 354.833 203.337,354.610 203.114,354.483 203.114 C 354.356 203.114,353.809 202.684,353.267 202.158 C 351.970 200.899,350.941 200.643,348.019 200.850 L 345.677 201.016 345.180 199.969 C 344.906 199.393,344.590 198.760,344.476 198.563 C 343.952 197.653,343.449 196.698,343.091 195.932 C 342.877 195.473,342.498 194.839,342.249 194.523 C 342.000 194.206,341.796 193.746,341.796 193.501 C 341.796 193.255,341.587 192.844,341.330 192.587 C 341.073 192.331,340.744 191.679,340.599 191.138 C 340.453 190.597,340.177 190.095,339.984 190.021 C 339.792 189.947,339.513 189.404,339.364 188.815 C 339.216 188.226,338.955 187.690,338.784 187.625 C 338.546 187.533,338.582 187.329,338.937 186.747 C 339.191 186.329,339.400 185.762,339.400 185.486 C 339.401 185.210,339.620 184.732,339.887 184.424 C 340.154 184.116,340.417 183.641,340.471 183.369 C 340.791 181.757,340.914 181.430,341.302 181.157 C 341.539 180.992,341.802 180.421,341.887 179.889 C 341.972 179.357,342.144 178.922,342.269 178.922 C 342.394 178.922,342.626 178.464,342.786 177.904 C 342.945 177.344,343.277 176.659,343.523 176.382 C 343.770 176.104,344.035 175.486,344.112 175.008 C 344.190 174.530,344.395 174.022,344.568 173.878 C 344.742 173.734,345.060 173.085,345.276 172.437 C 345.491 171.788,345.758 171.257,345.869 171.257 C 345.980 171.257,346.200 170.853,346.358 170.359 C 346.516 169.865,346.847 169.125,347.095 168.714 C 347.342 168.303,347.545 167.786,347.545 167.564 C 347.545 167.342,347.814 166.764,348.144 166.279 C 348.473 165.794,348.743 165.234,348.743 165.034 C 348.744 164.834,348.946 164.340,349.193 163.936 C 349.439 163.531,349.717 162.939,349.809 162.618 C 349.965 162.078,351.183 159.383,351.642 158.563 C 351.753 158.365,352.014 157.826,352.223 157.365 C 352.432 156.904,352.865 155.988,353.186 155.329 C 353.506 154.671,353.839 153.820,353.925 153.438 C 354.011 153.057,354.281 152.545,354.526 152.301 C 354.770 152.056,354.970 151.550,354.970 151.175 C 354.970 150.800,355.183 150.300,355.444 150.064 C 355.705 149.828,355.990 149.255,356.077 148.790 C 356.164 148.325,356.490 147.570,356.801 147.113 C 357.111 146.655,357.365 146.088,357.365 145.852 C 357.365 145.616,357.510 145.279,357.687 145.102 C 359.058 143.731,358.917 142.064,357.246 139.901 C 356.521 138.964,355.928 138.094,355.928 137.969 C 355.928 137.844,355.713 137.626,355.449 137.485 C 355.186 137.344,354.970 137.077,354.970 136.891 C 354.970 136.706,354.780 136.413,354.547 136.241 C 354.315 136.069,353.996 135.637,353.840 135.282 C 353.375 134.227,351.851 133.467,351.087 133.908 M352.256 135.206 C 352.648 135.401,353.329 136.118,353.771 136.799 C 354.212 137.480,355.069 138.641,355.675 139.378 C 357.653 141.785,358.077 142.977,357.296 143.933 C 357.126 144.141,356.684 145.012,356.314 145.868 C 355.944 146.725,355.445 147.856,355.205 148.383 C 354.964 148.910,354.064 150.904,353.203 152.814 C 352.343 154.725,351.029 157.527,350.283 159.042 C 349.538 160.557,348.792 162.174,348.625 162.635 C 348.270 163.617,343.683 173.757,342.178 176.886 C 341.608 178.072,341.066 179.385,340.974 179.804 C 340.883 180.223,340.660 180.688,340.479 180.838 C 340.298 180.988,340.079 181.454,339.992 181.873 C 339.905 182.292,339.657 182.904,339.442 183.234 C 338.074 185.329,337.589 187.378,338.189 188.524 C 338.493 189.105,339.817 191.683,341.130 194.251 C 345.549 202.896,345.081 202.380,348.103 201.922 C 351.250 201.445,355.223 203.887,355.830 206.671 C 355.906 207.020,356.005 207.428,356.050 207.577 C 356.168 207.971,354.908 209.102,354.352 209.102 C 353.788 209.102,353.096 208.650,351.531 207.261 C 350.887 206.689,350.125 206.228,349.824 206.228 C 347.080 206.228,347.010 206.935,349.333 211.244 C 351.034 214.400,350.996 214.374,353.778 214.205 C 357.448 213.981,360.719 215.198,360.719 216.787 C 360.719 217.485,360.718 217.485,359.199 217.485 C 357.537 217.485,355.183 218.173,354.383 218.891 C 353.302 219.863,351.076 220.707,347.820 221.381 C 345.479 221.865,340.056 220.338,341.177 219.510 C 341.760 219.079,343.337 218.515,344.474 218.331 C 346.807 217.953,346.860 217.035,344.801 212.754 C 342.598 208.176,341.272 207.928,341.022 212.046 C 340.805 215.624,337.937 216.616,336.986 213.442 C 336.090 210.450,336.874 207.733,339.073 206.210 C 340.146 205.467,340.523 204.415,339.990 203.648 C 339.831 203.420,338.759 201.617,337.607 199.641 C 334.598 194.481,334.178 194.268,332.949 197.284 C 332.636 198.053,331.911 199.624,331.339 200.774 C 329.898 203.672,329.933 203.986,331.850 205.394 C 332.703 206.020,333.576 206.800,333.790 207.127 C 334.369 208.009,334.551 212.051,334.064 213.210 C 333.087 215.537,330.323 213.920,330.305 211.011 C 330.297 209.853,329.093 208.483,328.405 208.850 C 327.940 209.099,326.707 211.488,326.707 212.140 C 326.707 212.330,326.451 213.045,326.139 213.728 C 324.786 216.691,325.121 217.358,328.330 218.086 C 330.414 218.559,330.423 218.566,330.078 219.473 C 329.808 220.183,329.564 220.286,326.754 220.870 C 323.834 221.476,320.668 220.970,317.403 219.375 L 315.372 218.383 313.020 218.496 L 310.668 218.609 310.818 217.987 C 311.233 216.266,314.739 214.508,317.776 214.498 C 320.595 214.489,320.206 214.924,322.777 208.914 C 324.193 205.606,321.353 205.406,318.172 208.590 C 316.965 209.798,316.597 209.819,315.519 208.741 C 313.244 206.466,317.526 201.933,321.960 201.921 C 325.027 201.914,325.037 201.907,326.209 198.881 C 326.762 197.454,327.361 195.964,327.541 195.569 C 327.720 195.174,328.026 194.419,328.220 193.892 C 328.414 193.365,328.811 192.341,329.102 191.617 C 330.594 187.902,330.594 187.457,329.097 184.993 C 328.573 184.130,328.144 183.360,328.144 183.282 C 328.144 183.204,327.892 182.756,327.585 182.288 C 326.784 181.070,323.027 174.722,322.230 173.240 C 321.518 171.918,318.446 166.530,316.797 163.713 C 316.257 162.790,315.698 161.820,315.555 161.557 C 315.411 161.293,314.704 160.108,313.982 158.922 C 311.165 154.291,310.180 152.597,310.180 152.388 C 310.180 152.268,309.725 151.480,309.170 150.636 C 306.292 146.261,306.294 146.402,309.035 142.086 C 309.262 141.729,309.678 141.006,309.960 140.479 C 310.547 139.380,311.585 138.204,311.966 138.204 C 312.205 138.204,313.580 140.745,316.501 146.587 C 317.127 147.838,317.757 149.078,317.901 149.341 C 318.046 149.605,318.914 151.275,319.831 153.054 C 320.748 154.832,322.042 157.311,322.706 158.563 C 323.370 159.814,324.438 161.862,325.079 163.114 C 333.351 179.262,333.292 179.158,333.889 178.532 C 334.351 178.047,335.200 176.115,337.508 170.299 C 338.057 168.916,338.686 167.299,338.906 166.707 C 339.126 166.114,339.489 165.284,339.713 164.862 C 339.937 164.441,340.120 163.969,340.120 163.814 C 340.120 163.660,340.400 162.873,340.742 162.066 C 342.027 159.036,341.999 159.107,345.743 149.461 C 346.484 147.551,347.528 144.856,348.063 143.473 C 349.531 139.677,349.825 138.950,350.633 137.107 C 351.043 136.174,351.377 135.285,351.377 135.131 C 351.377 134.776,351.398 134.778,352.256 135.206 " stroke="none" fill="#dd512f" fill-rule="evenodd"></path><path id="path4" d="M0.000 58.461 C 0.000 114.009,0.021 116.917,0.419 116.841 C 0.817 116.764,0.845 113.781,0.958 59.347 C 1.072 4.639,1.098 1.913,1.506 1.506 C 2.096 0.915,397.304 0.828,398.407 1.418 L 399.042 1.758 399.042 58.704 C 399.042 115.776,399.049 116.407,399.666 116.407 C 399.951 116.407,400.000 107.794,400.000 58.204 L 400.000 0.000 200.000 0.000 L 0.000 0.000 0.000 58.461 " stroke="none" fill="#f4e444" fill-rule="evenodd"></path></g></svg>