<svg height="335" width="500" xmlns="http://www.w3.org/2000/svg"><g><path d="m0 .000004h500v335h-500z" fill="#007b42"/><g stroke-linecap="round" stroke-linejoin="round"><path d="m196.09922 196.95107s2.25637-3.48712 4.30762-6.97424 4.51274-8.82036 4.71787-11.07673c.20512-2.25637 1.43587-10.66649 0-12.92286-1.43588-2.25637-2.87175-5.33324-2.05125-7.99986s7.38449-6.15374 7.38449-6.15374.8205-.20513 5.53837-3.07687c4.71786-2.87175 7.38449-4.923 9.43573-6.35887 2.05125-1.43587 2.25637.8205 3.69225.20513 1.43587-.61538 3.89737-2.87175 5.12811-3.07688 1.23075-.20512 1.84613 1.84613 3.89737-.20512 2.05125-2.05125 3.07687-3.07687 4.51275-1.641 1.43587 1.43588 3.28199-2.66662 4.51274-2.87174 1.23075-.20513 4.71787 0 6.35887 2.25637 1.64099 2.25637 3.28199 6.15374 2.46149 8.20499-.8205 2.05124.41025 5.53836.41025 7.38449 0 1.84612-1.64099 7.99986-1.43587 10.25623s.20512 2.25637.20512 2.25637 1.641 3.89737 1.641 5.53837.61538 6.15374.41025 7.58961c-.20512 1.43588-1.02562 2.66663 0 4.51275 1.02563 1.84612 3.69225 1.641 3.89737 5.12812.20513 3.48712-.41025 11.6921-.41025 11.6921s.61538-4.30762 2.4615-6.35886c1.84612-2.05125 2.66662-5.12812 1.43587-7.38449s-2.25637-7.58962-.61537-10.25624c1.64099-2.66662 6.97424-8.41011 7.58961-9.84598.61538-1.43588 2.66662-4.1025 3.48712-6.56399.8205-2.4615.20513-4.51275 1.43587-5.12812 1.23075-.61538 3.282 1.84612 3.89737 3.48712.61538 1.641 3.48712 7.17936 3.69225 8.20499.20512 1.02562 1.84612.61537 2.46149-.8205.61538-1.43587 1.641.41025 2.05125 1.641.41025 1.23074 2.66662 8.61523 2.25637 12.92285s-1.02562 11.28186-2.46149 13.53823c-1.43588 2.25637-4.923 7.38449-5.94862 8.20499s-1.43587 2.4615.8205 2.25637c2.25637-.20512 11.69211-.41025 13.53823 0s12.51261 6.76912 13.94848 10.05111c1.43587 3.282 2.4615 10.05111 1.23075 11.48699-1.23075 1.43587-3.07687 3.07687-2.87175 4.51274.20513 1.43587 4.923 1.641 6.35887 2.87175s2.66662 4.92299 1.23075 6.15374c-1.43588 1.23075-.20513 4.10249-1.641 6.35886-1.43587 2.25638-5.12812 5.94862-6.15374 7.99987-1.02563 2.05124-4.1025 5.74349-6.15374 7.38449-2.05125 1.64099-2.25638 4.92299-4.51275 6.35886-2.25637 1.43588-7.79474 7.17937-9.64086 7.79474-1.84612.61538-4.92299 1.84612-5.74349 3.48712s-4.30762 7.38449-5.74349 7.99987c-1.43587.61537-10.66649 3.69224-13.53823 2.46149-2.87175-1.23075-4.30762-2.87174-6.35887-2.05125-2.05125.8205-4.30762.61538-5.94861.41025-1.641-.20512-2.66663 1.84613-4.51275 1.84613s-3.07687-2.66662-4.30762-2.4615-2.25637 3.07687-4.51274 1.43587c-2.25637-1.64099-2.4615-6.76911-1.43587-8.20499 1.02562-1.43587 4.10249-6.35886 5.12811-6.97424 1.02563-.61537 1.43588-1.64099-2.05124-3.69224s-8.41012-6.97424-9.23061-9.64086c-.8205-2.66662-4.71787-5.12812-5.94862-3.89737s-3.282 6.56399-4.51274 7.58961c-1.23075 1.02563-4.71787 3.48712-2.4615 5.7435 2.25637 2.25637 3.07687 4.71786 2.25637 6.35886s-1.641 5.53837-2.87175 5.53837c-1.23074 0-23.79446 0-24.82008-.8205-1.02563-.8205-5.12812-2.66662-6.97424-5.12812-1.84613-2.46149-1.43588-9.02549 0-12.10236 1.43587-3.07687 8.61523-11.28185 8.61523-14.9741 0-3.69224-.41025-15.7946-1.43587-19.48685-1.02562-3.69224-1.641-16.20485-1.43587-18.2561.20512-2.05124 2.66662-6.15374 4.30762-7.79473 1.64099-1.641 5.74349-4.923 5.74349-5.94862s-4.30762.8205-4.71787 1.02562z" fill="#fff" stroke="#000" stroke-width="2"/><path d="m207.17595 191.00246s3.89737-6.97424 4.51275-8.82037c.61537-1.84612.61537-12.30748-.61538-14.1536s-4.71787-6.76912-4.10249-7.99986c.61537-1.23075 3.69224-4.1025 6.56399-3.69225s8.20499-4.30762 9.84599-6.15374c1.64099-1.84612 2.87174-1.84612 3.69224-.8205s2.66662-.8205 3.282-1.84612c.61537-1.02563 2.46149.61537 3.28199 1.02562s3.282-1.23075 3.48712-2.25637c.20513-1.02562 2.25637-2.05125 2.66662.61537.41025 2.66663.41025 6.76912.41025 6.76912s-.20512-6.35887.8205-7.58961c1.02562-1.23075 3.48712-3.282 5.12812-4.923s4.71787-1.23075 4.92299.8205c.20513 2.05125-1.02562 4.51274-1.02562 5.74349s2.05124 2.87175 1.84612 5.74349c-.20513 2.87175-2.25637 4.51275-2.05125 7.79474.20513 3.282 1.84612 5.7435 1.84612 9.02549 0 3.282 1.84613 5.53837 1.23075 6.97424-.61537 1.43587-2.66662 2.05125-3.69224 3.69225-1.02563 1.64099 1.641 3.07687 3.48712 4.92299s4.10249 1.84612 3.28199 3.69224c-.8205 1.84613-4.71786 2.66662-4.71786 2.66662s2.25637-.41025 2.66662.61538c.41025 1.02562 1.64099 3.69224 1.64099 5.74349s0 5.33324 1.84613 7.99986c1.84612 2.66662 6.76911 7.79474 8.61523 9.23062 1.84613 1.43587 4.30762 3.28199 9.43574 3.28199s9.43574.41025 12.51261 2.87175c3.07687 2.46149 4.92299 2.87174 6.76911 2.87174 1.84613 0 3.282-1.43587 3.282-3.89737 0-2.46149-.61538-5.74349-5.74349-5.74349-5.12812 0-15.17923 1.02562-20.10222-1.23075-4.923-2.25637-7.58962-6.56399-7.58962-9.02548 0-2.4615.8205-10.46136 1.84612-11.07674 1.02563-.61537 2.25638 2.05125 3.89737.8205 1.641-1.23075.8205-4.30762 1.641-7.58961.8205-3.282-2.25637 1.23074-2.66662-3.48712-.41025-4.71787 1.23075-10.05111 3.07687-11.89724 1.84612-1.84612 6.35887-5.12811 6.35887-6.76911s1.84612 4.51274 1.84612 6.56399-.61538 5.12812-.41025 6.35886c.20512 1.23075 3.07687-1.64099 3.89737-3.28199s1.84612-2.66662 1.84612 3.07687 0 10.46136-1.02562 12.30748c-1.02563 1.84612-5.33325 7.99987-6.56399 9.43574-1.23075 1.43587-3.48712 1.641-4.1025 3.89737-.61537 2.25637-1.02562 4.30762 2.25637 4.30762 3.282 0 15.17923-.61538 17.84585-.20513s9.84599 4.51275 11.07674 6.97424c1.23075 2.4615 2.66662 8.20499 1.23075 10.46136-1.43588 2.25637-3.48712 5.53837-2.87175 7.17937s5.74349 3.89737 6.97424 4.30762.20513.41025-.8205 1.84612c-1.02562 1.43587-3.07687 3.48712-2.25637 4.10249.8205.61538-.61537 1.43588-1.84612 2.05125s-1.02563 1.84612.41025 2.05125c1.43587.20512 1.43587 2.66662-1.23075 3.89737-2.66662 1.23074-5.74349 1.43587-3.69225 2.66662 2.05125 1.23075-2.87174 5.94861-4.30762 6.35886-1.43587.41025-4.10249.8205-3.48712 1.641.61538.8205 3.282 1.84612.8205 3.07687-2.46149 1.23075-5.74349 3.282-7.17936 3.69225s.41025.41025.61537 1.43587c.20513 1.02562-3.07687 3.28199-4.10249 3.48712-1.02562.20512-8.61524.61537-10.87161 0s-4.51274-1.43587-6.15374-.20513c-1.641 1.23075-.61538.41025 3.48712 1.84613 4.10249 1.43587 6.15374 3.28199 6.56399 4.10249s-2.25637 4.71787-4.92299 4.71787c-2.66663 0-12.71774.61537-13.74336 0s-3.48712-1.02562-4.10249-2.05125c-.61538-1.02562-1.23075 1.641-1.23075 1.641s-3.48712 2.05125-4.51275 1.23075c-1.02562-.8205 0-3.282.20513-4.1025.20512-.82049-1.84612 3.69225-1.84612 3.69225s-5.94862.8205-6.56399 0c-.61538-.8205 1.84612-5.33324 3.89737-6.76912 2.05124-1.43587 5.94861-2.66662 8.41011-3.28199 2.4615-.61538 5.53837-1.02563 5.53837-2.87175s-5.33325-4.30762-8.82037-4.51274c-3.48712-.20513-9.84598-1.641-12.10235-4.92299-2.25638-3.282-3.48712-5.7435-3.282-9.23062.20513-3.48712 2.25637-5.53836.41025-6.35886s-7.99986-1.23075-10.46136.20512c-2.4615 1.43588-4.71787 4.51275-6.15374 8.61524s-3.48712 6.76912-4.92299 9.64086c-1.43588 2.87175-1.23075 3.89737.41025 6.35887 1.64099 2.46149 2.25637 4.10249.61537 4.10249s-13.12798-.20512-14.76898 0c-1.641.20513-2.4615.61538-5.33324-.61537-2.87175-1.23075-4.30762-1.641-4.51275-4.30762-.20512-2.66662 4.30762-6.97424 5.53837-9.43574 1.23075-2.46149 5.12812-6.97424 5.12812-10.05111s1.02562-17.4356-.61537-20.30734c-1.641-2.87175-2.66663-11.69211-2.66663-14.97411 0-3.28199 2.25638-10.46136 3.89737-11.69211 1.641-1.23074 9.64086-7.38449 12.51261-9.64086s6.35887-3.69224 7.38449-5.94861c1.02562-2.25638 2.05125-4.71787 2.05125-6.56399 0-1.84613-1.02563-1.43588-3.69225 1.43587-2.66662 2.87174-5.33324 4.10249-6.56399 5.53837-1.23075 1.43587-4.51274 3.28199-4.71787 3.07687z" fill="#efd600" stroke="#10844a" stroke-width="2"/><path d="m213.12457 262.38585s-3.48712 1.84613-4.92299 0c-1.43588-1.84612-.8205-3.69224 1.23075-5.94861 2.05124-2.25637 2.05124-3.282 2.87174-5.53837s1.641-3.89737 2.66662-4.71787c1.02563-.8205 2.04162-.8205 4.50312-.8205s2.93262.36538 2.93262.36538-2.74989 4.0745-3.53143 5.14912c-1 1.375-3.125 7-3.125 7l-2.62543 4.51085z" fill="#efd600" stroke="#10844a" stroke-width="1.5"/><path d="m215.99632 167.61824c.41025-1.02562 2.87174-.61537 5.12811-1.02562 2.25638-.41025 5.12812-.41025 5.94862-1.84613.8205-1.43587 3.07687-4.92299 4.30762-6.35886 1.23075-1.43588 1.43587-2.05125 1.43587-2.05125" fill="#efd600" stroke="#10844a" stroke-width="2"/><path d="m224.61155 159.20813c-.61537 1.02562-.61537 2.66662.20513 2.05124.8205-.61537-.20513-2.05124-.20513-2.05124z" fill="#efd600" stroke="#10844a" stroke-width="2"/><path d="m247.99577 167.00287s-2.05125-.61538-4.71787-1.23075c-2.66662-.61538-4.92299-1.84613-6.56399.41025-1.641 2.25637-1.43587 4.71786-3.48712 6.15374-2.05125 1.43587-3.89737 3.69224-5.12812 4.51274-1.23074.8205-1.23074.20513-1.23074.20513" fill="#efd600" stroke="#10844a" stroke-width="2"/><path d="m194.04797 272.64209s.20513-2.05125 2.4615-3.282c2.25637-1.23074 1.84612-1.02562 4.71787-1.64099 2.87174-.61538 3.07687-.20513 3.89737-1.43588.8205-1.23074-.20513-.8205.61537.41025s2.4615 1.84613 3.69225 1.23075c1.23074-.61537 2.05124-1.43587 2.05124-1.43587" fill="#efd600" stroke="#10844a" stroke-width="1.5"/><path d="m226.5378 243.80926s1.15062-1.73075 2.38137-3.782 2.4615-4.10249.8205-5.94862c-1.641-1.84612-3.48712-.41024-4.51274.20513-1.02563.61537-4.1025.8205-5.53837 0s-3.48712.20512-3.69224 1.84612c-.20513 1.641 0 6.56399 0 6.56399l1.43587 2.05125" fill="#efd600" stroke="#10844a" stroke-width="1.5"/><path d="m234.66266 244.95025s5.94862-5.33324 8.20499-7.17936 4.71787-4.51274 8.20499-6.76912c3.48712-2.25637 9.43574-4.10249 12.71773-3.89737 3.282.20513 7.17937.20513 11.28186 2.25638 4.1025 2.05124 3.89737 3.48712 8.41011 3.07687 4.51275-.41025 6.97424.8205 4.71787 2.66662s-5.74349 7.38449-9.02548 7.38449c-3.282 0-4.923 1.84612-8.20499-.20513-3.282-2.05124 1.23075-3.28199-.8205-5.12811-2.05125-1.84613-5.74349-3.07688-9.23061-2.66663s-10.25624 2.4615-13.12798 4.51275c-2.87175 2.05124-5.94862 3.07687-7.99987 4.30762-2.05125 1.23074-4.71787 2.05124-5.12812 1.64099z" fill="#efd600" stroke="#10844a" stroke-width="1.5"/><path d="m248.61114 278.79583s-2.05124 1.43587-2.25637 2.4615c-.20512 1.02562-.61537 2.05124-.61537 2.05124" fill="#efd600" stroke="#10844a" stroke-width="1.5"/><path d="m259.893 279.20608c-1.64099-.61537-4.51274-1.02562-5.53836-.20512-1.02563.82049-1.84613 3.48712-1.84613 3.48712" fill="#efd600" stroke="#10844a" stroke-width="1.5"/><path d="m267.07237 271.82159c1.02562-.41025 4.71787-1.84612 6.97424-3.28199 2.25637-1.43588 4.30762-4.1025 6.76911-7.38449 2.4615-3.282 3.07687-1.641 4.71787-2.25638 1.641-.61537 4.51274-1.64099 4.71787-3.69224.20512-2.05125 1.02562-.8205 1.43587-6.35887.41025-5.53836-1.43587-4.92299 3.07687-7.38449 4.51275-2.46149 4.30762-1.23074 6.15374-2.66662 1.84613-1.43587 3.69225-4.71787 3.69225-4.71787" fill="#efd600" stroke="#10844a" stroke-width="1.5"/><path d="m198.76584 207.41243s4.51274-.61537 5.74349.41025c1.23075 1.02563 3.282 1.43587 1.84612 4.1025-1.43587 2.66662-3.07687 3.69224-1.02562 4.51274s3.48712 1.43587 6.56399-.61537c3.07687-2.05125 2.4615 0 2.66662 1.43587.20513 1.43587 3.48712 1.02562 4.71787-.8205s2.87175-4.10249 3.89737-2.05125c1.02562 2.05125 3.69225 3.07687 4.51274 1.02563.8205-2.05125 4.51275-1.641-1.43587-4.923-5.94862-3.28199-8.20499-3.28199-10.66648-5.94861-2.4615-2.66662-5.12812-1.23075-7.58962-1.84613-2.46149-.61537-3.48712-2.05124-3.48712-2.05124" fill="#efd600" stroke="#10844a" stroke-width="1.5"/><path d="m230.14992 204.33556c.8205.41025 0 3.07687 3.282 4.51275 3.28199 1.43587 7.79473 3.89736 8.61523 4.51274.8205.61537 2.87175 2.05125 4.923 1.641 2.05124-.41025 3.48712-1.84613 5.74349-3.48712 2.25637-1.641 5.94861-1.641 5.94861-1.641" fill="#efd600" stroke="#10844a" stroke-width="1.5"/><path d="m254.55976 203.30994s-5.33324 2.25637-7.79474 2.25637c-2.46149 0-4.92299 1.23075-9.64086.20512-4.71787-1.02562-6.15374-.61537-9.02549-2.46149-2.87174-1.84612-5.53836-3.89737-6.56399-3.89737-1.02562 0-1.02562 0-1.02562 0" fill="#efd600" stroke="#10844a" stroke-width="1.5"/><path d="m253.94439 191.00246s-4.1025 3.48712-7.79474 3.48712c-3.69225 0-7.38449 1.64099-10.87161-.8205-3.48712-2.4615-7.17937-4.71787-7.17937-4.71787h7.79474c5.12812 0 6.35887 0 9.23061-1.02562 2.87175-1.02563 5.33325-2.66663 5.33325-2.66663" fill="#efd600" stroke="#10844a" stroke-width="1.5"/><path d="m235.68829 194.48958.8205 3.89737-.41025.82049" fill="#efd600" stroke="#10844a" stroke-width="1.5"/><path d="m248.81627 194.48958v3.69224" fill="#efd600" stroke="#10844a" stroke-width="1.5"/><path d="m240.81641 147.10577s.41024 6.56399-.41025 8.82036c-.8205 2.25637-2.25638 4.1025-4.1025 5.94862s-3.07687 4.30762-4.71787 5.94861c-1.64099 1.641-6.15374 4.1025-8.20498 4.30762-2.05125.20513-4.30762.8205-5.53837 1.641s-1.02563 1.641-2.87175 1.641-1.84612 0-1.84612 0h-1.23075" fill="#efd600" stroke="#10844a" stroke-width="1.5"/><path d="m216.61169 168.84899s-1.02562.20512 1.23075 1.641c2.25637 1.43587 2.05125 1.43587 2.05125 1.43587" fill="#efd600" stroke="#10844a" stroke-width="1.5"/><path d="m248.20089 181.36159c-2.05124 0-5.12811.20513-9.84598.20513s-5.12812-.20513-6.35887.61537-1.43587.8205-1.43587.8205.20512-2.87174 1.84612-3.89737c1.641-1.02562 1.84612-2.46149 5.74349-2.66662 3.89737-.20512 11.28186-.61537 11.28186-.61537l1.02563-.20513 1.02562-.61537" fill="#efd600" stroke="#10844a" stroke-width="1.5"/><path d="m338.5279 83.875061c-.00005 3.87846-1.35941 7.18825-4.07807 9.9294-2.71876 2.74117-5.99489 4.11175-9.82839 4.11174-2.05149.00001-3.92405-.4013-5.61768-1.20394l1.33657-3.14247c1.33722.57954 2.76425.8693 4.28111.86928 2.94109.00002 5.42582-1.02503 7.45419-3.07513 2.02827-2.05007 3.04243-4.54636 3.04248-7.48888-.00005-2.89758-1.02543-5.37176-3.07615-7.42256-2.05082-2.05073-4.52432-3.07612-7.42052-3.07615-2.89764.00003-5.37183 1.01419-7.42256 3.04248-2.0508 2.02835-3.07618 4.51376-3.07615 7.45623-.00003 3.87846-1.35973 7.18825-4.0791 9.9294-2.71941 2.74117-6.01833 4.11175-9.89674 4.11174-3.83356.00001-7.10969-1.35969-9.82839-4.07909-2.71872-2.71938-4.07808-6.01761-4.07807-9.89471-.00001-3.83352 1.35935-7.12121 4.07807-9.86308 2.7187-2.7418 5.99483-4.11272 9.82839-4.11276 2.58606.00004 4.97114.65744 7.15524 1.97221 2.18406 1.31484 3.90052 3.08707 5.14937 5.31669 2.62958-4.85923 6.68622-7.28886 12.16994-7.2889 3.8335.00004 7.10963 1.35973 9.82839 4.07909 2.71866 2.71943 4.07802 5.9959 4.07807 9.82941l0 0zm-27.74762 0c-.00003-2.94247-1.02541-5.42788-3.07616-7.45623-2.05079-2.02829-4.54742-3.04245-7.48989-3.04248-2.94115.00003-5.42588 1.01419-7.45419 3.04248-2.02833 2.02835-3.04249 4.51376-3.04249 7.45623 0 2.94252 1.01416 5.43881 3.04249 7.48888 2.02831 2.0501 4.51304 3.07515 7.45419 3.07513 2.94247.00002 5.4391-1.02503 7.48989-3.07513 2.05075-2.05007 3.07613-4.54636 3.07616-7.48888l0 0z" fill="#efd600" stroke="#efd600" stroke-width="3.5"/><path d="m140.30011 83.827879c-.00003 3.833564-1.34851 7.11003-4.04543 9.829409-2.69697 2.719406-5.96221 4.079102-9.79573 4.079092-3.83356.00001-7.0988-1.348463-9.79574-4.045423-2.69696-2.696932-4.04543-5.962175-4.04543-9.795739 0-3.833517 1.34847-7.109983 4.04543-9.829408 2.69694-2.719359 5.96218-4.079055 9.79574-4.079093 3.83352.000038 7.09876 1.348511 9.79573 4.045423 2.69692 2.69698 4.0454 5.962223 4.04543 9.795739l0 0zm-3.27715 0c-.00003-2.897577-1.02541-5.360199-3.07616-7.38787-2.05079-2.02761-4.52497-3.041431-7.42256-3.041465-2.36163.000034-4.43416.712872-6.2176 2.138514 3.65532 1.650168 5.48298 4.481111 5.483 8.492837-.00002 3.610462-1.71613 6.418279-5.14835 8.423458 1.73855 1.248841 3.69953 1.873254 5.88295 1.87324 2.89759.000014 5.37177-1.036253 7.42256-3.108803 2.05075-2.072516 3.07613-4.535818 3.07616-7.389911l0 0zm-14.24316.267314c-.00001-2.986002-1.60457-5.080981-4.81369-6.284944-1.24747 1.828375-1.87121 3.83425-1.8712 6.01763-.00001 2.40789.71283 4.547762 2.13851 6.419622 3.03091-1.114131 4.54637-3.164898 4.54638-6.152308l0 0zm48.86341-.267314c-.00003 3.833564-1.34851 7.11003-4.04543 9.829409-2.69697 2.719406-5.96221 4.079102-9.79574 4.079092-3.83355.00001-7.09879-1.348463-9.79573-4.045423-2.69696-2.696932-4.04543-5.962175-4.04543-9.795739 0-3.833517 1.34847-7.109983 4.04543-9.829408 2.69694-2.719359 5.96218-4.079055 9.79573-4.079093 3.83353.000038 7.09877 1.348511 9.79574 4.045423 2.69692 2.69698 4.0454 5.962223 4.04543 9.795739l0 0zm-3.27715 0c-.00003-2.897577-1.02541-5.360199-3.07616-7.38787-2.05079-2.02761-4.52497-3.041431-7.42256-3.041465-2.36163.000034-4.43416.712872-6.2176 2.138514 3.65532 1.650168 5.48298 4.481111 5.483 8.492837-.00002 3.610462-1.71613 6.418279-5.14835 8.423458 1.73855 1.248841 3.69953 1.873254 5.88295 1.87324 2.89759.000014 5.37177-1.036253 7.42256-3.108803 2.05075-2.072516 3.07613-4.535818 3.07616-7.389911l0 0zm-14.24316.267314c-.00001-2.986002-1.60457-5.080981-4.81369-6.284944-1.24747 1.828375-1.87121 3.83425-1.8712 6.01763-.00001 2.40789.71283 4.547762 2.13851 6.419622 3.03091-1.114131 4.54637-3.164898 4.54638-6.152308l0 0z" fill="#efd600" stroke="#efd600" stroke-width="3.5"/><path d="m167.81485 52.938196-2.76 1.610731c-1.26565-2.989805-3.52734-4.48473-6.78507-4.484781-1.99322.000051-3.718.728213-5.17434 2.184488-1.45631 1.456373-2.18447 3.181152-2.18449 5.174343.00002 2.031879.72818 3.766309 2.18449 5.203294 1.45634 1.437062 3.18112 2.155574 5.17434 2.155538.84339.000036 1.64817-.114599 2.41434-.343904l.80537 3.103904c-1.07264.345106-2.16518.517642-3.27761.51761-2.87404.000032-5.34599-1.034894-7.41586-3.104781-2.06983-2.069817-3.10476-4.542351-3.10478-7.417611.00002-2.951207 1.0253-5.461758 3.07583-7.53166 2.05057-2.069802 4.53217-3.104728 7.44481-3.104782 4.48479.000054 7.68578 2.012589 9.60297 6.037611l0 0z" fill="#efd600" stroke="#efd600" stroke-width="3.009523"/><path d="m260.60167 52.309843-2.76 1.610731c-1.26565-2.989805-3.52734-4.48473-6.78507-4.484781-1.99322.000051-3.718.728213-5.17434 2.184488-1.45631 1.456373-2.18447 3.181152-2.18449 5.174343.00002 2.031879.72818 3.766309 2.18449 5.203294 1.45634 1.437062 3.18112 2.155574 5.17434 2.155538.84339.000036 1.64817-.114599 2.41434-.343904l.80537 3.103904c-1.07264.345106-2.16518.517642-3.27761.51761-2.87404.000032-5.34599-1.034894-7.41586-3.104781-2.06983-2.069817-3.10476-4.542351-3.10478-7.417611.00002-2.951207 1.0253-5.461758 3.07583-7.53166 2.05057-2.069802 4.53217-3.104728 7.44481-3.104782 4.48479.000054 7.68578 2.012589 9.60297 6.037611l0 0z" fill="#efd600" stroke="#efd600" stroke-width="3.009523"/><path d="m229.55836 63.237247a7.4355125 7.4355125 0 1 1 -14.87102 0 7.4355125 7.4355125 0 1 1 14.87102 0z" fill="none" stroke="#efd600" stroke-width="5.174125" transform="matrix(1.1596163 0 0 1.1596163 -41.319055 -15.958324)"/><path d="m229.89016 82.969912c-.00006 3.87846-1.34853 7.18825-4.04543 9.9294-2.69699 2.74117-5.96223 4.11175-9.79573 4.11174-1.96171.00001-3.81182-.37886-5.55035-1.1366l1.27128-3.14247c1.33721.57953 2.78601.86929 4.3464.86928 2.89756.00001 5.36053-1.03625 7.38889-3.1088 2.02828-2.07252 3.04244-4.58003 3.04249-7.52255-.00005-2.85268-1.02543-5.30442-3.07615-7.35522-2.05082-2.05074-4.50256-3.07612-7.35523-3.07615-2.94253.00003-5.43882 1.01419-7.48887 3.04248-2.05012 2.02835-3.07517 4.52464-3.07514 7.48888-.00003 2.96428-.88053 5.68367-2.64151 8.15818-1.76104 2.47454-4.09034 4.17977-6.98792 5.1157l-.93662-3.27715c2.18474-.66793 3.94575-1.93818 5.28303-3.81075 1.33722-1.87254 2.00585-3.96786 2.00587-6.28597-.00002-2.89758-1.03663-5.36054-3.10982-7.38889-2.07324-2.02829-4.55797-3.04245-7.45419-3.04248-2.94251.00003-5.42792 1.01419-7.45623 3.04248-2.02833 2.02835-3.04249 4.49131-3.04248 7.38889-.00001 2.363.69106 4.49165 2.07321 6.38595 1.38214 1.89434 3.16491 3.15371 5.34833 3.77811l-.93662 3.27511c-2.98604-.84614-5.39289-2.49526-7.22055-4.94735-1.82767-2.45207-2.7415-5.23778-2.7415-8.35714 0-3.83352 1.35969-7.12121 4.07909-9.86308 2.71939-2.7418 5.97341-4.11272 9.76207-4.11276 2.54117.00004 4.91503.64656 7.12158 1.93956 2.20651 1.29307 3.91174 3.05374 5.1157 5.282 1.24744-2.22826 2.95233-3.98893 5.11468-5.282 2.16228-1.293 4.5358-1.93952 7.12056-1.93956 3.8335.00004 7.09874 1.35973 9.79573 4.07909 2.6969 2.71943 4.04537 5.97345 4.04543 9.76207l0 0z" fill="#efd600" stroke="#efd600" stroke-width="3.5"/><path d="m216.5724 96.225791-.20945 19.897849h7.95914" fill="none" stroke="#efd600" stroke-width="6"/><path d="m262.22219 79.393968-3.14247 1.203934c-.71286-2.139844-1.97189-3.844736-3.77709-5.114679-1.80524-1.269879-3.82268-1.904835-6.05232-1.904869-2.89626.000034-5.35854 1.002971-7.38685 3.008815-2.02833 2.005906-3.04249 4.457644-3.04248 7.355222-.00001 2.897625 1.01415 5.371469 3.04248 7.42154 2.02831 2.050103 4.49059 3.075147 7.38685 3.075133 2.00654.000014 3.85665-.534954 5.55034-1.604905 1.69365-1.069921 2.98669-2.518382 3.87912-4.345386l3.00779 1.269232c-1.11417 2.452776-2.79662 4.414439-5.04734 5.884993-2.25076 1.470579-4.75828 2.205863-7.52255 2.205853-3.83355.00001-7.08757-1.33724-9.76207-4.011754-2.6745-2.674486-4.01175-5.928506-4.01175-9.76207 0-3.878409 1.33725-7.166098 4.01175-9.863077 2.6745-2.696913 5.92852-4.045386 9.76207-4.045423 2.89759.000037 5.56121.847212 7.99086 2.541525 2.42961 1.694384 4.13416 3.92302 5.11366 6.685916l0 0z" fill="#efd600" stroke="#efd600" stroke-width="3.5"/><path d="m229.55836 63.237247a7.4355125 7.4355125 0 1 1 -14.87102 0 7.4355125 7.4355125 0 1 1 14.87102 0z" fill="none" stroke="#efd600" stroke-width="5.174125" transform="matrix(1.1596163 0 0 1.1596163 67.769012 -16.203711)"/><path d="m229.55836 63.237247a7.4355125 7.4355125 0 1 1 -14.87102 0 7.4355125 7.4355125 0 1 1 14.87102 0z" fill="none" stroke="#efd600" stroke-width="8.214435" transform="matrix(.4869477 0 0 .4869477 167.05649 45.848887)"/><path d="m229.55836 63.237247a7.4355125 7.4355125 0 1 1 -14.87102 0 7.4355125 7.4355125 0 1 1 14.87102 0z" fill="none" stroke="#efd600" stroke-width="8.214435" transform="matrix(.4869477 0 0 .4869477 166.84704 60.929364)"/><path d="m229.55836 63.237247a7.4355125 7.4355125 0 1 1 -14.87102 0 7.4355125 7.4355125 0 1 1 14.87102 0z" fill="none" stroke="#efd600" stroke-width="8.214435" transform="matrix(.4869477 0 0 .4869477 274.71434 61.138815)"/><path d="m229.55836 63.237247a7.4355125 7.4355125 0 1 1 -14.87102 0 7.4355125 7.4355125 0 1 1 14.87102 0z" fill="none" stroke="#efd600" stroke-width="8.214435" transform="matrix(.4869477 0 0 .4869477 274.92379 44.592181)"/><path d="m371.13674 79.393968-3.14247 1.203934c-.71286-2.139844-1.97189-3.844736-3.77709-5.114679-1.80524-1.269879-3.82268-1.904835-6.05232-1.904869-2.89626.000034-5.35854 1.002971-7.38685 3.008815-2.02833 2.005906-3.04249 4.457644-3.04248 7.355222-.00001 2.897625 1.01415 5.371469 3.04248 7.42154 2.02831 2.050103 4.49059 3.075147 7.38685 3.075133 2.00654.000014 3.85665-.534954 5.55034-1.604905 1.69365-1.069921 2.98669-2.518382 3.87912-4.345386l3.00779 1.269232c-1.11417 2.452776-2.79662 4.414439-5.04734 5.884993-2.25076 1.470579-4.75828 2.205863-7.52255 2.205853-3.83355.00001-7.08757-1.33724-9.76207-4.011754-2.6745-2.674486-4.01175-5.928506-4.01175-9.76207 0-3.878409 1.33725-7.166098 4.01175-9.863077 2.6745-2.696913 5.92852-4.045386 9.76207-4.045423 2.89759.000037 5.56121.847212 7.99086 2.541525 2.42961 1.694384 4.13416 3.92302 5.11366 6.685916l0 0z" fill="#efd600" stroke="#efd600" stroke-width="3.5"/><path d="m324.64915 96.01634-.20945 19.89785h7.95914" fill="none" stroke="#efd600" stroke-width="6"/><path d="m368.67842 51.890941-2.76 1.610731c-1.26565-2.989805-3.52734-4.48473-6.78507-4.484781-1.99322.000051-3.718.728213-5.17434 2.184488-1.45631 1.456373-2.18447 3.181152-2.18449 5.174343.00002 2.031879.72818 3.766309 2.18449 5.203294 1.45634 1.437062 3.18112 2.155574 5.17434 2.155538.84339.000036 1.64817-.114599 2.41434-.343904l.80537 3.103904c-1.07264.345106-2.16518.517642-3.27761.51761-2.87404.000032-5.34599-1.034894-7.41586-3.104781-2.06983-2.069817-3.10476-4.542351-3.10478-7.417611.00002-2.951207 1.0253-5.461758 3.07583-7.53166 2.05057-2.069802 4.53217-3.104728 7.44481-3.104782 4.48479.000054 7.68578 2.012589 9.60297 6.037611l0 0z" fill="#efd600" stroke="#efd600" stroke-width="3.009523"/></g></g></svg>