<svg enable-background="new 0 0 600 400" height="400" viewBox="0 0 600 400" width="600" xmlns="http://www.w3.org/2000/svg"><path d="m0 0h600v400h-600z" fill="#213a84"/><g fill="#ef943a"><path d="m126.2 213.402c-2.901 0-6.007-.705-9.319-2.118l2.465-5.93c2.978.95 5.262 1.425 6.854 1.425 4.467 0 8.131-1.393 10.994-4.178 2.862-2.786 4.294-6.386 4.294-10.802 0-4.261-1.47-7.836-4.409-10.725-2.94-2.888-6.566-4.332-10.879-4.332-4.416 0-8.016 1.405-10.801 4.216-2.786 2.811-4.178 6.425-4.178 10.84v.693l-.192.231c-.308 6.315-2.445 11.341-6.412 15.076s-9.107 5.603-15.422 5.603c-6.367 0-11.598-2.008-15.692-6.026-4.095-4.018-6.142-9.209-6.142-15.576 0-6.47 2.008-11.674 6.026-15.615 4.018-3.94 9.286-5.911 15.808-5.911 7.83 0 14.003 3.338 18.522 10.012 4.441-6.674 10.603-10.012 18.484-10.012 6.418 0 11.649 1.983 15.692 5.95 4.043 3.966 6.065 9.159 6.065 15.577 0 6.367-2.035 11.559-6.104 15.576-4.07 4.019-9.288 6.026-15.654 6.026zm-37.006-36.659c-4.416 0-8.067 1.418-10.956 4.255-2.888 2.837-4.333 6.438-4.333 10.802s1.444 7.952 4.333 10.763c2.888 2.811 6.54 4.217 10.956 4.217 4.313 0 7.887-1.406 10.724-4.217 2.836-2.811 4.255-6.398 4.255-10.763s-1.419-7.965-4.255-10.802c-2.837-2.836-6.412-4.255-10.724-4.255z"/><path d="m177.724 213.788.231 31.614-6.624.077v-31.691c-5.776.102-9.666-.181-11.668-.848-4.107-1.206-6.315-3.761-6.624-7.663-.718-8.215 3.491-12.322 12.631-12.322 3.158 0 5.853.815 8.087 2.445 2.233 1.631 3.555 3.973 3.966 7.028v4.813c7.573 0 11.36-1.476 11.36-4.429 0-2.566-2.709-5.108-8.125-7.624-2.619-1.155-6.803-3.132-12.554-5.93-4.827-2.259-7.239-5.52-7.239-9.781 0-6.084 4.313-9.126 12.938-9.126 2.465 0 4.775.385 6.932 1.155 3.902 1.438 5.853 3.71 5.853 6.816 0 .565-.372 1.143-1.117 1.733h-6.469c.487-.59.731-1.065.731-1.425 0-.205-.09-.475-.27-.809-.565-.308-2.452-.616-5.661-.924-.642-.051-1.219-.077-1.733-.077-3.055 0-4.582.963-4.582 2.888 0 1.746 1.899 3.402 5.699 4.968 3.081 1.284 5.75 2.413 8.01 3.389 9.627 4.313 14.44 9.345 14.44 15.096.002 6.93-6.07 10.473-18.212 10.627zm-7.548-12.785c-1.001-.924-2.529-1.386-4.583-1.386-1.643 0-3.042.437-4.197 1.309-1.309.95-1.887 2.195-1.733 3.735.154 1.978 4.043 2.837 11.668 2.58-.103-3.466-.488-5.545-1.155-6.238z"/><path d="m259.476 213.711c-7.958 0-14.12-3.363-18.484-10.09-4.467 6.624-10.616 9.936-18.445 9.936-7.137 0-13.581-3.633-19.331-10.898l5.391-4.004c4.467 5.571 9.113 8.356 13.94 8.356 4.313 0 7.913-1.264 10.801-3.793 2.888-2.527 4.333-5.949 4.333-10.262v-2.349c0-4.159-1.515-7.522-4.544-10.089-2.901-2.413-6.431-3.62-10.59-3.62-5.725 0-10.616 3.389-14.672 10.166l-5.661-3.312 1.656-2.85c4.056-7.034 10.281-10.551 18.676-10.551 6.417 0 11.661 1.997 15.73 5.988 4.068 3.992 6.104 9.171 6.104 15.538v1.194c0 4.236 1.476 7.676 4.428 10.32 2.798 2.516 6.354 3.773 10.667 3.773 4.415 0 8.08-1.431 10.994-4.293 2.913-2.863 4.371-6.527 4.371-10.995 0-4.313-1.47-7.887-4.409-10.724-2.94-2.836-6.592-4.255-10.956-4.255-1.797 0-4.608.707-8.434 2.118l-2.156-6.315 3.003-1.001c2.157-.795 4.685-1.193 7.586-1.193 6.571 0 11.854 1.932 15.846 5.795 3.992 3.864 5.988 9.056 5.988 15.576 0 6.47-2.035 11.726-6.104 15.769-4.067 4.043-9.31 6.065-15.728 6.065z"/><path d="m251.582 148.247h.154c.128-2.311.911-4.184 2.349-5.622s3.287-2.157 5.545-2.157c2.798 0 4.929.938 6.392 2.811l-2.926 3.62c-.924-1.053-2.002-1.758-3.235-2.118-2.413 0-3.62 1.258-3.62 3.774-.205.847.27 1.848 1.425 3.003l2.118-.385c2.542 0 4.519.95 5.93 2.85l-2.85 3.697c-.77-1.001-1.771-1.604-3.003-1.81-2.208.103-3.568 1.361-4.082 3.774 0 2.413 1.284 3.684 3.851 3.812 1.309.052 2.336-.667 3.081-2.156 1.258 1.053 2.259 2.131 3.003 3.234-2.156 2.105-4.261 3.158-6.315 3.158-2.413 0-4.357-.737-5.834-2.214-1.476-1.476-2.214-3.447-2.214-5.911 0-2.054.77-3.992 2.311-5.815-1.284-1.899-1.977-3.748-2.08-5.545z"/><path d="m297.561 213.402c-1.309 0-3.286-.32-5.93-.963v-6.699c2.464.692 4.441 1.039 5.93 1.039 4.415 0 8.016-1.393 10.802-4.178 2.785-2.786 4.178-6.386 4.178-10.802 0-4.261-1.432-7.836-4.294-10.725s-6.425-4.332-10.686-4.332c-7.008 0-11.847 3.838-14.518 11.514-.051.411-.385 1.348-1.001 2.811l-5.854-3.466.462-1.656c3.003-10.448 9.974-15.673 20.91-15.673 6.238 0 11.398 2.022 15.48 6.065s6.123 9.197 6.123 15.461c0 6.418-1.997 11.623-5.988 15.614-3.991 3.995-9.197 5.99-15.614 5.99z"/><path d="m364.371 245.479c-2.156 0-3.234-1.258-3.234-3.773v-49.83c0-4.313-1.419-7.913-4.255-10.801-2.837-2.888-6.412-4.332-10.725-4.332-4.364 0-7.965 1.444-10.802 4.332s-4.255 6.489-4.255 10.801v.462c1.592-.462 3.324-.693 5.198-.693 4.698 0 8.78 1.335 12.246 4.005 3.773 2.901 5.66 6.611 5.66 11.129 0 4.775-2.336 7.162-7.008 7.162-.899 0-1.721-.077-2.465-.23-6.341-.41-11.302-2.562-14.884-6.45-3.581-3.89-5.371-9.017-5.371-15.384 0-6.315 2.027-11.495 6.084-15.538 4.056-4.043 9.255-6.065 15.596-6.065 6.315 0 11.526 2.022 15.634 6.065 4.107 4.043 6.162 9.223 6.162 15.538v47.134h4.235v6.469h-7.816zm-16.789-39.663c0-2.978-1.604-5.339-4.813-7.085-2.722-1.514-5.661-2.169-8.818-1.964l-1.656.539c.205.899.655 1.771 1.348 2.619 3.518 4.981 7.253 7.471 11.206 7.471.925 0 1.63-.206 2.118-.616l.616-.463v-.501z"/><path d="m345.618 170.967c-4.467 0-8.234-1.553-11.302-4.66-3.067-3.106-4.603-6.918-4.603-11.437 0-4.518 1.547-8.312 4.641-11.379s6.899-4.602 11.418-4.602 8.267 1.534 11.244 4.602c2.979 3.068 4.467 6.861 4.467 11.379 0 4.364-1.553 8.138-4.659 11.321-3.106 3.184-6.842 4.776-11.206 4.776zm0-25.723c-2.824 0-5.122.899-6.893 2.695-1.771 1.797-2.657 4.108-2.657 6.932 0 .796.09 1.694.27 2.695 2.67-2.002 5.609-3.183 8.818-3.542 3.261 0 6.418 1.027 9.473 3.081.154-.95.231-1.694.231-2.233 0-2.773-.841-5.07-2.522-6.893-1.682-1.824-3.921-2.735-6.72-2.735zm-.308 13.978c-2.258.257-4.313 1.13-6.161 2.619 1.9 1.566 3.979 2.349 6.238 2.349 2.517 0 4.775-.95 6.777-2.85-2.002-1.31-4.287-2.015-6.854-2.118z"/><path d="m430.952 213.402c-2.901 0-6.008-.705-9.319-2.118l2.465-5.93c2.978.95 5.262 1.425 6.854 1.425 4.467 0 8.131-1.393 10.994-4.178 2.862-2.786 4.293-6.386 4.293-10.802 0-4.261-1.47-7.836-4.409-10.725s-6.565-4.332-10.878-4.332c-4.416 0-8.017 1.405-10.802 4.216-2.786 2.811-4.178 6.425-4.178 10.84v.693l-.193.231c-.308 6.315-2.445 11.341-6.411 15.076-3.967 3.735-9.107 5.603-15.423 5.603-6.367 0-11.598-2.008-15.691-6.026-4.096-4.018-6.143-9.209-6.143-15.576 0-6.47 2.009-11.674 6.026-15.615 4.018-3.94 9.287-5.911 15.808-5.911 7.83 0 14.004 3.338 18.522 10.012 4.441-6.674 10.603-10.012 18.484-10.012 6.417 0 11.648 1.983 15.691 5.95 4.044 3.966 6.065 9.159 6.065 15.577 0 6.367-2.035 11.559-6.104 15.576-4.067 4.019-9.285 6.026-15.651 6.026zm-37.007-36.659c-4.415 0-8.067 1.418-10.955 4.255-2.889 2.837-4.332 6.438-4.332 10.802s1.443 7.952 4.332 10.763c2.888 2.811 6.54 4.217 10.955 4.217 4.313 0 7.888-1.406 10.725-4.217s4.255-6.398 4.255-10.763-1.418-7.965-4.255-10.802c-2.837-2.836-6.411-4.255-10.725-4.255z"/><path d="m430.991 170.967c-4.467 0-8.234-1.553-11.302-4.66-3.067-3.106-4.603-6.918-4.603-11.437 0-4.518 1.547-8.312 4.641-11.379s6.899-4.602 11.418-4.602 8.267 1.534 11.244 4.602c2.979 3.068 4.467 6.861 4.467 11.379 0 4.364-1.553 8.138-4.659 11.321-3.106 3.184-6.842 4.776-11.206 4.776zm0-25.723c-2.824 0-5.122.899-6.893 2.695-1.771 1.797-2.657 4.108-2.657 6.932 0 2.695.886 4.923 2.657 6.681s3.992 2.638 6.661 2.638c2.799 0 5.077-.854 6.836-2.561 1.758-1.707 2.638-3.959 2.638-6.758 0-2.773-.841-5.07-2.522-6.893-1.682-1.823-3.921-2.734-6.72-2.734z"/><path d="m430.991 245.479c-2.054 0-3.081-1.258-3.081-3.773v-28.534h6.315v25.839h6.47v6.469h-9.704z"/><path d="m498.342 202.428c-1.54 3.313-4.172 6.021-7.895 8.125-3.518 1.9-7.201 2.85-11.052 2.85-6.367 0-11.559-2.008-15.576-6.026-4.019-4.018-6.026-9.209-6.026-15.576s2.008-11.546 6.026-15.538 9.209-5.988 15.576-5.988c8.42 0 15.211 4.647 20.371 13.94l-5.545 3.081c-4.031-7.034-8.973-10.551-14.826-10.551-4.364 0-7.952 1.418-10.763 4.255-2.812 2.837-4.217 6.438-4.217 10.802s1.405 7.952 4.217 10.763c2.811 2.811 6.398 4.217 10.763 4.217 5.854 0 10.795-3.504 14.826-10.513l5.545 3.081z"/><path d="m488.945 153.946c-.102.052-.256.077-.462.077-.153 0-.23-.077-.23-.231-.205-2.542-1.149-4.602-2.831-6.18-1.681-1.579-3.818-2.368-6.411-2.368-2.824 0-5.122.899-6.893 2.695-1.771 1.797-2.657 4.108-2.657 6.932 0 2.695.886 4.923 2.657 6.681s3.992 2.638 6.661 2.638c.591 0 1.464-.077 2.619-.231v6.854c-.898.103-1.694.154-2.388.154-4.467 0-8.234-1.553-11.302-4.66-3.067-3.106-4.603-6.918-4.603-11.437 0-4.518 1.547-8.312 4.641-11.379s6.899-4.602 11.418-4.602c4.107 0 7.541 1.207 10.301 3.62 2.76 2.414 4.538 5.674 5.333 9.781-1.848.719-3.798 1.271-5.853 1.656z"/><path d="m513.86 189.181c-2.465 0-4.474-.79-6.026-2.368-1.554-1.579-2.33-3.601-2.33-6.065 0-2.362.79-4.345 2.368-5.95 1.579-1.604 3.575-2.407 5.988-2.407 2.361 0 4.332.803 5.911 2.407s2.368 3.588 2.368 5.95c0 2.464-.776 4.486-2.33 6.065-1.553 1.579-3.536 2.368-5.949 2.368zm0 22.797c-2.465 0-4.474-.776-6.026-2.329-1.554-1.553-2.33-3.563-2.33-6.027 0-2.361.79-4.357 2.368-5.987 1.579-1.63 3.575-2.445 5.988-2.445s4.396.789 5.949 2.368c1.554 1.579 2.33 3.601 2.33 6.064 0 2.465-.776 4.475-2.33 6.027s-3.536 2.329-5.949 2.329zm0-33.926c-1.694 0-2.541.899-2.541 2.696 0 1.694.847 2.542 2.541 2.542 1.797 0 2.695-.847 2.695-2.542.001-1.797-.898-2.696-2.695-2.696zm0 22.951c-1.694 0-2.541.873-2.541 2.618 0 1.798.847 2.695 2.541 2.695 1.797 0 2.695-.897 2.695-2.695.001-1.745-.898-2.618-2.695-2.618z"/></g></svg>