<svg enable-background="new -12.359 -16 357 250" height="200.30769" viewBox="-12.359 -16 300 200.30769" width="300" xmlns="http://www.w3.org/2000/svg"><path d="m-12.359-16h300v200.30769h-300z" fill="#004a94"/><g fill="#007b42" transform="matrix(.92307692 0 0 .92307692 -12.359 -16)"><path d="m132.791 44.36c-2.14 4.38-8.72 10.33-13.65 10.72.1-6.82 7.75-10.89 13.65-10.72z"/><path d="m151.4 138.94c-2.01-1.83-2.48-6.08-3.4-9.08 2.5 1.68 12.23 8.22 8.97 11.14-1.07 3.95-9.56 3.59-13.31 3.01.02 0 0-.04-.01-.04 1.32-2.56 4.67-4.04 7.32-4.8z"/><path d="m140.951 134.75c-1.42-3.04-2.13-5.04-1.62-8.89 3.06 2.09 8.69 8.04 6.64 11.14l.17.67c-3.2 3.43-9.82 4.51-14.27 3.13 1.62-2.229 6.76-5.58 8.52-5.79z"/><path d="m130.771 128.77c-1.26-2.56-1.57-6.1-.59-8.92 2.92 1.98 7.52 8.221 5.29 11.82l-.19.78s-.01.01-.04.01c-.02.01-.06.021-.1.04-1.23.41-10.51 3.21-15.27-2 2.9-1.93 7.12-1.06 10.44-1.5z"/><path d="m122.811 109.72c3.19 4.42 4.87 10.05 3.33 15.45h-.17c-5.23-.29-11.29.87-15.48-5.479 3.47-.051 8.58-.561 11.41 1.14-.441-3.261-.09-7.601.91-11.111z"/><path d="m114.841 110.97.13-.14c-.68-3.74.38-9.64 3.98-11.47 1.34 4.49 1.06 10.15-1.06 14.41l-1.5.421c-5.1.319-11.39-3.2-13.19-8.03 3.81-2.001 8.98 2.339 11.64 4.809z"/><path d="m110.021 97.05c.47-4.3 2.88-8.33 6.75-10.7 1.07 4.77-2.48 11.48-5.46 14.82-5.78.85-10.67-5.75-10.99-10.64 4.31.4 6.94 3.71 9.7 6.52z"/><path d="m108.331 84.1.31-.18c1.39-1.68 5.8-6.49 9.35-8.19-.91 4.61-4.44 11.97-8.85 13.1l-.5-.33c-4.59-.58-9.03-8.69-7.13-13.13 3.73 1.12 5.34 6.13 6.82 8.73z"/><path d="m120.951 65.53c-1.16 3.83-7.3 9.26-11.31 9.64-5.11-3.07-5.98-8.59-4.13-13.98 3.25 1.43 4.34 5.97 4.79 9.29l.68-.09c1.249-2.98 6.6-5.29 9.97-4.86z"/><path d="m115.931 60.1c2.49-2.43 6.2-3.13 9.85-2.61-1.38 4.37-7.59 7.97-11.97 6.01l-.34.33c-4.09-4.07-4.48-11.03-.65-15.35 2.21 2.91 2.96 7.86 2.83 11.24z"/></g><path d="m97.61731 34.153538c.0895-6.294461 7.152-9.359077 12.59631-9.207692-1.968 4.046769-8.04277 9.532615-12.59631 9.9" fill="none" stroke="#000" stroke-miterlimit="10" stroke-width=".692308"/><path d="m94.39854 39.126154c.11631-3.120923-.57969-7.687385-2.61877-10.38-3.528 3.991384-3.17354 10.417846.60646 14.176615" fill="none" stroke="#000" stroke-miterlimit="10" stroke-width=".692308"/><path d="m93.925 40.307692c2.24308-2.912308 6.07108-3.773538 9.82338-3.241846-1.27938 4.032923-7.00523 7.360615-11.05384 5.549538" fill="none" stroke="#000" stroke-miterlimit="10" stroke-width=".692308"/><path d="m90.08315 48.978154c1.15385-2.758154 6.09231-4.883077 9.20216-4.493539-1.06523 3.542769-6.74031 8.548616-10.43816 8.900308" fill="none" stroke="#000" stroke-miterlimit="10" stroke-width=".692308"/><path d="m89.617 50.461538c-.3-3.015692-1.092-8.439692-4.58031-9.98123-1.71231 4.973538-.90369 10.07723 3.81139 12.903692" fill="none" stroke="#000" stroke-miterlimit="10" stroke-width=".692308"/><path d="m87.925 61.461846c1.28123-1.546154 5.35015-5.988 8.62615-7.557231-.8363 4.252616-4.09753 11.053846-8.16461 12.096" fill="none" stroke="#000" stroke-miterlimit="10" stroke-width=".692308"/><path d="m87.77085 61.845846c-1.40308-2.327077-2.88-7.214769-6.43016-8.276308-1.74923 4.096616 2.34646 11.584616 6.58431 12.12277" fill="none" stroke="#000" stroke-miterlimit="10" stroke-width=".692308"/><path d="m89.15546 74c.324-4.125231 2.57908-8.032616 6.27692-10.291385.98031 4.403077-2.29384 10.596923-5.04553 13.676311" fill="none" stroke="#000" stroke-miterlimit="10" stroke-width=".692308"/><path d="m89.30962 73.692615c-2.58093-2.612307-5.03354-5.745231-9.06093-6.131077.29446 4.516616 4.80185 10.610768 10.13816 9.823388" fill="none" stroke="#000" stroke-miterlimit="10" stroke-width=".692308"/><path d="m93.85115 86.618466c-2.38615-2.23293-7.32923-6.52985-10.94953-4.62647 1.66615 4.46216 7.46584 7.70585 12.17723 7.41139" fill="none" stroke="#000" stroke-miterlimit="10" stroke-width=".692308"/><path d="m95.92531 90.000616c2.44338-4.00708 2.85415-9.79015 1.51661-14.28554-3.324 1.68646-4.29969 7.13446-3.67015 10.59323" fill="none" stroke="#000" stroke-miterlimit="10" stroke-width=".692308"/><path d="m100.16131 95.534466c-.40154-3.00739-.0822-7.01539.84092-10.25631 2.94554 4.08461 4.49815 9.27507 3.07662 14.26061" fill="none" stroke="#000" stroke-miterlimit="10" stroke-width=".692308"/><path d="m100.16131 95.534466c-2.61139-1.57016-7.32831-1.10124-10.52862-1.05047 3.86308 5.864314 9.46062 4.78708 14.292 5.05477" fill="none" stroke="#000" stroke-miterlimit="10" stroke-width=".692308"/><path d="m107.92531 103.07693c-3.06554.40892-6.95262-.396-9.63046 1.38461 5.016 5.48769 15.48277 1.33846 14.09169 1.84616" fill="none" stroke="#000" stroke-miterlimit="10" stroke-width=".692308"/><path d="m117.23269 108.62647c-1.62738.1883-6.372 3.28615-7.86554 5.34369 4.10585 1.27015 10.22308.27692 13.17323-2.89293" fill="none" stroke="#000" stroke-miterlimit="10" stroke-width=".692308"/><path d="m117.92315 108.76862c-1.42061-3.02492-2.15446-4.872-1.668-8.59108 2.82277 1.93108 8.01877 7.42339 6.13108 10.284" fill="none" stroke="#000" stroke-miterlimit="10" stroke-width=".692308"/><path d="m112.69392 105.53877c2.05846-3.32215-2.18769-9.075694-4.88861-10.907074-.95169 2.74246-.57785 6.212304.73477 8.599384" fill="none" stroke="#000" stroke-miterlimit="10" stroke-width=".692308"/><path d="m128.92808 113.01662c-3.20031-.57508-3.62677-5.73692-4.67262-9.14954 2.31139 1.55908 11.29108 7.59415 8.28462 10.28769" fill="none" stroke="#000" stroke-miterlimit="10" stroke-width=".692308"/><path d="m127.00162 112.46185c-2.46.708-5.56708 2.07785-6.78093 4.46585.0775.0406.009-.0923 0 0 3.456.54184 11.33169.87692 12.31939-2.77385" fill="none" stroke="#000" stroke-miterlimit="10" stroke-width=".692308"/><g fill="#007b42" transform="matrix(.92307692 0 0 .92307692 -12.359 -16)"><path d="m204.895 54.87c-.1-6.82-8.15-10.89-14.05-10.72 2.14 4.38 8.72 10.33 13.649 10.72z"/><path d="m172.845 138.71c2.01-1.83 2.479-6.08 3.399-9.08-2.5 1.68-12.229 8.22-8.97 11.14 1.07 3.95 9.56 3.591 13.31 3.011-.02 0 0-.04.011-.04-1.32-2.561-4.67-4.04-7.32-4.8z"/><path d="m182.505 134.75c1.42-3.04 2.13-5.04 1.619-8.89-3.06 2.09-8.689 8.04-6.64 11.14l-.17.67c3.2 3.43 9.82 4.51 14.27 3.13-1.619-2.229-6.76-5.58-8.52-5.79z"/><path d="m192.685 128.77c1.26-2.56 1.57-6.1.59-8.92-2.92 1.98-7.52 8.221-5.29 11.82l.19.78s.01.01.04.01c.02.01.06.021.1.04 1.23.41 10.51 3.21 15.27-2-2.899-1.93-7.119-1.06-10.439-1.5z"/><path d="m200.645 109.72c-3.19 4.42-4.87 10.05-3.33 15.45h.17c5.23-.29 11.29.87 15.48-5.479-3.471-.051-8.58-.561-11.41 1.14.439-3.261.09-7.601-.91-11.111z"/><path d="m207.635 59.88c-2.49-2.5-6.25-3.22-9.931-2.69 1.38 4.37 7.591 7.97 11.971 6.01l.71.21c3.71-4.11 3.949-10.75.25-14.93-2.21 2.91-2.96 7.86-2.83 11.24z"/><path d="m208.614 110.97-.13-.14c.68-3.74-.38-9.64-3.979-11.47-1.341 4.49-1.061 10.15 1.06 14.41l1.5.421c5.1.319 11.39-3.2 13.19-8.03-3.811-2.001-8.981 2.339-11.641 4.809z"/><path d="m213.435 97.05c-.47-4.3-2.88-8.33-6.75-10.7-1.07 4.77 2.479 11.48 5.46 14.82 5.78.85 10.67-5.75 10.99-10.64-4.311.4-6.941 3.71-9.7 6.52z"/><path d="m215.124 84.1-.31-.18c-1.39-1.68-5.8-6.49-9.35-8.19.909 4.61 4.439 11.97 8.85 13.1l.5-.33c4.59-.58 9.03-8.69 7.13-13.13-3.729 1.12-5.34 6.13-6.82 8.73z"/><path d="m213.154 70.48-.68-.09c-1.25-2.98-6.601-5.29-9.97-4.86 1.159 3.83 7.3 9.26 11.31 9.64 5.11-3.07 5.98-8.59 4.13-13.98-3.25 1.43-4.34 5.97-4.79 9.29z"/></g><g fill="none"><path d="m176.62438 34.464615c-.0905-6.294461-7.53784-9.670154-12.98123-9.518769 1.968 4.047692 8.42954 9.151385 12.98123 9.518769" stroke="#000" stroke-miterlimit="10" stroke-width=".692308"/><path d="m179.45731 39.126154c-.11723-3.120923.58061-7.687385 2.61969-10.38 3.528 3.991384 3.17354 10.417846-.60738 14.176615" stroke="#000" stroke-miterlimit="10" stroke-width=".692308"/><path d="m180.34808 40.019692c-2.24308-2.912308-6.48739-3.485538-10.2397-2.953846 1.27939 4.032923 7.00524 7.360615 11.05385 5.549538" stroke="#000" stroke-miterlimit="10" stroke-width=".692308"/><path d="m184.23792 49.462769c-1.15477-2.758154-6.55754-5.367692-9.6683-4.978154 1.06523 3.542769 6.7403 8.548616 10.43815 8.900308" stroke="#000" stroke-miterlimit="10" stroke-width=".692308"/><path d="m184.23792 50.461538c.3-3.015692 1.09293-8.439692 4.58123-9.98123 1.71231 4.973538.9037 10.07723-3.81138 12.903692" stroke="#000" stroke-miterlimit="10" stroke-width=".692308"/><path d="m185.93085 61.461846c-1.28216-1.546154-5.35016-5.988-8.62708-7.557231.83631 4.252616 4.55446 11.095385 8.62708 11.787693" stroke="#000" stroke-miterlimit="10" stroke-width=".692308"/><path d="m186.08408 61.845846c1.40307-2.327077 2.88-7.214769 6.43107-8.276308 1.74923 4.096616-2.34738 11.584616-6.5843 12.12277" stroke="#000" stroke-miterlimit="10" stroke-width=".692308"/><path d="m184.69946 74c-.32308-4.125231-2.57815-8.032616-6.276-10.291385-.98123 4.403077 2.29292 10.596923 5.04554 13.676311" stroke="#000" stroke-miterlimit="10" stroke-width=".692308"/><path d="m184.54623 73.692615c2.58185-2.612307 5.03354-5.745231 9.06092-6.131077-.29353 4.516616-4.80184 10.610768-10.13815 9.823388" stroke="#000" stroke-miterlimit="10" stroke-width=".692308"/><path d="m180.00562 86.618466c2.38707-2.23293 7.3283-6.52985 10.94861-4.62647-1.66615 4.46216-7.99661 7.72708-12.708 7.43354" stroke="#000" stroke-miterlimit="10" stroke-width=".692308"/><path d="m177.93054 90.000616c-2.44339-4.00708-2.85508-9.79015-1.51662-14.28554 3.324 1.68646 4.29877 7.13446 3.67016 10.59323" stroke="#000" stroke-miterlimit="10" stroke-width=".692308"/><path d="m173.69546 95.534466c.40062-3.00739.0812-7.01539-.84092-10.25631-2.94462 4.08461-4.49723 9.27507-3.07662 14.26061" stroke="#000" stroke-miterlimit="10" stroke-width=".692308"/><path d="m173.69546 95.534466c2.61046-1.57016 7.32831-1.10124 10.52769-1.05047-3.86307 5.864314-9.46061 4.78708-14.292 5.05477" stroke="#000" stroke-miterlimit="10" stroke-width=".692308"/><path d="m165.51885 102.84339c3.06553.40892 7.36523-.16246 10.04215 1.61815-5.016 5.48769-15.48277 1.33846-14.09169 1.84616" stroke="#000" stroke-miterlimit="10" stroke-width=".692308"/><path d="m156.62315 108.62647c1.62739.1883 6.37108 3.28615 7.86554 5.34369-4.10584 1.27015-10.224.27692-13.17323-2.89293" stroke="#000" stroke-miterlimit="10" stroke-width=".692308"/><path d="m155.93269 108.76862c1.42062-3.02492 2.15446-4.872 1.668-8.59108-2.82369 1.93108-8.01969 7.42339-6.132 10.284" stroke="#000" stroke-miterlimit="10" stroke-width=".692308"/><path d="m161.161 105.53877c-2.05846-3.32215 2.18769-9.075694 4.88954-10.907074.95169 2.74246.57692 6.212304-.73569 8.599384" stroke="#000" stroke-miterlimit="10" stroke-width=".692308"/><path d="m145.85177 112.70831c3.20031-.57508 3.62769-5.73692 4.67261-9.14954-2.31138 1.55908-11.29107 7.59416-8.28553 10.2877" stroke="#000" stroke-miterlimit="10" stroke-width=".692308"/><path d="m147.77638 112.15354c2.46093.708 5.56708 2.07785 6.78185 4.46585-.0775.0406-.0101-.0923 0 0-3.456.54184-11.33169.87692-12.32031-2.77385" stroke="#000" stroke-miterlimit="10" stroke-width=".692308"/><g stroke="#000" stroke-miterlimit="10" transform="matrix(.92307692 0 0 .92307692 -12.359 -16)"><path d="m158.311 141.17c-22.1-5.21-35.94-16.68-43.23-30.06-10.4-19.11-7.41-42.13 4.06-56.44" stroke-linecap="round"/><g stroke-width=".5"><path d="m113.471 63.83c0-.02 0-.05 0-.08"/><path d="m115.141 111.08c.01-.1-.03-.021-.06.03-.01.029-.02.05-.02.06"/></g></g><g stroke="#000" stroke-miterlimit="10" transform="matrix(.92307692 0 0 .92307692 -12.359 -16)"><path d="m164.832 141.17c53.67-12.67 59.4-62.17 39.9-86.5" stroke-linecap="round"/><g stroke-width=".5"><path d="m210.402 63.83c0-.02 0-.05 0-.08"/><path d="m208.732 111.08c-.02-.14.08.07.08.09"/></g></g><path d="m133.97731 114.87754s-2.38431 4.30246-3.28339 7.26" stroke="#000" stroke-linecap="round" stroke-linejoin="round" stroke-miterlimit="10" stroke-width="1.384615"/><path d="m133.58223 115.61416s-1.98831 3.56584-2.88738 6.52338" style="stroke:#003e1a;stroke-width:.692308;stroke-linecap:round;stroke-linejoin:round;stroke-miterlimit:10;stroke-dasharray:.692308 1.384615"/><path d="m143.15638 121.07508c-.49292-1.89323-1.04492-4.73446-2.77015-5.92985l-.59631-.528" stroke="#000" stroke-linecap="round" stroke-linejoin="round" stroke-miterlimit="10" stroke-width="1.384615"/><path d="m143.15638 121.07508c-.49292-1.89323-.87507-4.608-2.6003-5.80154" stroke="#003e1a" stroke-dasharray=".692308 1.384615" stroke-linecap="round" stroke-miterlimit="10" stroke-width=".692308"/><path d="m133.97731 114.59693c2.23107.33969 4.08184.30554 5.81261-.0572" stroke="#000" stroke-linecap="round" stroke-miterlimit="10" stroke-width="1.384615"/><path d="m135.52069 114.76585c1.47139.17446 1.82216.15877 3.27416-.0563" stroke="#003e1a" stroke-dasharray=".692308 1.384615" stroke-linecap="round" stroke-miterlimit="10" stroke-width=".692308"/><g stroke="#003e1a" stroke-dasharray=".5 2.54" stroke-linecap="round" stroke-linejoin="round" stroke-width=".5" transform="matrix(.92307692 0 0 .92307692 -12.359 -16)"><path d="m134.23 131.31c-.3-.189-.61-.39-.91-.59-29.3-19.45-30.05-55.28-14.79-75.26"/><path d="m142.101 135.62c-.44-.2-.88-.41-1.31-.63-.43-.2-.86-.42-1.28-.641"/><path d="m146.021 137.32c-.85-.34-1.68-.69-2.49-1.051"/><path d="m147.601 137.93c-.48-.18-.95-.359-1.42-.55"/><path d="m151.92 139.42c-.93-.29-1.84-.6-2.74-.92"/><path d="m155.111 140.35c-.52-.14-1.04-.279-1.56-.439"/><path d="m158.311 141.17c-1.09-.26-2.15-.53-3.2-.82-.53-.14-1.05-.29-1.56-.439-.55-.16-1.09-.32-1.63-.49-.93-.29-1.84-.6-2.74-.92-.53-.18-1.06-.37-1.58-.57-.48-.18-.95-.359-1.42-.55-.05-.02-.11-.04-.16-.06-.84-.34-1.67-.69-2.49-1.051-.49-.21-.96-.43-1.43-.649-.44-.21-.88-.41-1.31-.63-.43-.21-.86-.42-1.28-.641-1.85-.96-3.61-1.97-5.28-3.04-.31-.189-.61-.38-.91-.59-28.8-18.989-31.23-53.84-14.79-75.26.2-.27.4-.53.61-.79"/></g><path d="m165.002 141.08c53.671-12.67 59.23-62.08 39.73-86.41" stroke="#003e1a" stroke-dasharray=".5 2.54" stroke-linecap="round" stroke-linejoin="round" stroke-width=".5" transform="matrix(.92307692 0 0 .92307692 -12.359 -16)"/></g><g transform="matrix(.92307692 0 0 .92307692 -12.359 -16)"><path d="m212.391 142.25c4.75-1.88 9.55-4.61 14.63-5.37-2.38 4.29-20.05 17.95-27.3 21.44l-3.58-7.99c-.02.01-.05.02-.07.03l-.05-.11c-1.87-1.26-6.229-1.97-7.76-2.87 7.02-3.13 14.67-7.2 20.85-12.04 1.59-1.24 2.8-2.32 4.28-3.59.089 3.14-.76 7.15-1 10.5z" fill="#dedede"/><path d="m199.721 158.32 2.25 5.01c-45.16 23-78.83-.83-78.83 0l1.91-4.97 3.09-8.03c.03-.01.05-.01.08-.021.41.061 2.28 1.011 5.36 2.23 9.85 3.9 32.05 10.58 57.78-.05 1.561-.641 3.13-1.351 4.71-2.13.021-.011.051-.021.07-.03z" fill="#dedede"/><path d="m196.021 150.25.05.11c-1.58.779-3.149 1.489-4.71 2.13l-.1-.24c-1.18-.96-2.24-3.33-3-4.87 1.53.9 5.889 1.61 7.76 2.87z" fill="#101919"/><path d="m135.761 146.12c-.71 2-1.45 4.32-2.12 6.26l-.06.16c-3.08-1.22-4.95-2.17-5.36-2.23 2.69-.71 5.14-2.76 7.54-4.19z" fill="#101919"/><path d="m112.081 142.21c-.77-3.61-.5-7.62-1.32-11.21 4.86 4.31 11.23 8.71 17.36 11.77 2.44 1.23 5.66 2.41 7.64 3.351-2.4 1.43-4.85 3.479-7.54 4.189-.05-.01-.08 0-.08.021l-3.09 8.03-.29-.11c-5.79-2.25-23.62-16-28.74-22 5.16 1.75 10.87 4.28 15.87 6z" fill="#dedede"/></g><g fill="none" stroke="#101919" stroke-linecap="round" stroke-linejoin="round" transform="matrix(.92307692 0 0 .92307692 -12.359 -16)"><path d="m125.051 158.36-1.91 4.97c0-.83 33.67 23 78.83 0l-2.25-5.01-3.58-7.99c-.02.01-.05.02-.07.03-1.58.779-3.149 1.489-4.71 2.13-25.729 10.63-47.93 3.95-57.78.05-3.08-1.22-4.95-2.17-5.36-2.23-.05-.01-.08 0-.08.021z"/><path d="m96.021 136.25c5.12 6 22.95 19.75 28.74 22"/><path d="m110.761 131c4.86 4.31 11.23 8.71 17.36 11.77 2.44 1.23 5.66 2.41 7.64 3.351"/><path d="m128.141 150.33c.03-.01.05-.01.08-.021 2.69-.71 5.14-2.76 7.54-4.189"/><path d="m133.641 152.38c.67-1.939 1.41-4.26 2.12-6.26"/><path d="m112.141 142.5c-.02-.1-.04-.19-.06-.29-.77-3.61-.5-7.62-1.32-11.21"/><path d="m96.021 136.25c5.16 1.75 10.87 4.28 15.87 6"/><path d="m188.261 147.38c7.02-3.13 14.67-7.2 20.85-12.04 1.59-1.24 2.8-2.32 4.28-3.59"/><path d="m196.021 150.25c-1.87-1.26-6.229-1.97-7.76-2.87"/><path d="m188.261 147.38c.76 1.54 1.82 3.91 3 4.87"/><path d="m212.391 142.25c.24-3.35 1.09-7.36 1-10.5"/><path d="m199.721 158.32c7.25-3.49 24.92-17.15 27.3-21.44"/><path d="m212.391 142.25c4.75-1.88 9.55-4.61 14.63-5.37"/></g><path d="m132.768 75.009 22.176.172 7.017-21.038 7.689 21.144 21.177.172-17.042 11.896 6.69 21.645-18.841-12.674-18.043 11.897 6.017-20.039z" fill="#a52921" stroke="#000" stroke-miterlimit="10" stroke-width=".75" transform="matrix(.92307692 0 0 .92307692 -12.359 -16)"/><path d="m114.54377 139.508c-.28523-.0849-.38677-.26123-.30739-.52707l1.572-5.27723c.1357-.45508.0628-.89354-.22061-1.30985-.28339-.41908-.70985-.71169-1.27939-.88338-.576-.1717-1.09661-.16154-1.56276.0342-.46616.19292-.76616.51969-.90277.97569l-.0148.048c.22523.0148.46154.0582.70892.13292.62031.18462 1.116.48739 1.48985.90647.40615.456.53815.92307.396 1.40215-.15139.50492-.53539.66554-1.152.48185-.11816-.036-.22431-.0766-.31847-.12277-.8243-.2917-1.41138-.71539-1.7603-1.27016-.34985-.552-.42462-1.16677-.22339-1.83969.19846-.66923.62954-1.13815 1.29231-1.40585.66369-.26769 1.41323-.27692 2.25046-.0268.83354.25015 1.45846.67015 1.87292 1.25907.41447.59169.52247 1.22031.32308 1.88769l-1.488 4.99108.55939.16708-.204.68584-1.03108-.30923zm-.96554-4.86277c.0942-.31569-.0425-.62861-.41077-.94153-.31108-.26585-.67938-.45047-1.10215-.55477l-.23631-.009c-.00092.1043.0314.21415.096.3323.30646.66462.72185 1.07447 1.24338 1.23047.12185.0369.22154.0434.3.0194l.0951-.024.0148-.0526z" fill="#101919"/><path d="m120.241 137.23908-.68308 3.42646-.89446-.17907.71539-3.42831c-.78093-.15046-1.29877-.29077-1.55354-.42-.52708-.24646-.76616-.58616-.72-1.01631.0886-.90923.74861-1.23508 1.98092-.97662.42554.0886.77077.25293 1.03569.49293.264.24.38954.53077.3757.87323l-.10893.51969c1.02093.21231 1.56554.16062 1.632-.15877.0582-.27692-.25015-.62954-.924-1.05415-.32677-.19939-.84646-.53169-1.55815-.996-.6-.38123-.85108-.80216-.75508-1.26185.13662-.65908.78831-.86584 1.95046-.62215.33323.0701.63508.17631.91016.32215.49292.264.7043.56492.63507.90092-.0129.0609-.0766.11354-.19107.15693l-.87231-.18369c.0785-.0508.12277-.0951.13108-.13293.004-.0212-.002-.0545-.0185-.096-.0692-.0498-.31753-.13477-.74307-.25938-.0849-.0231-.16246-.0434-.23169-.0582-.4117-.0858-.6397-.024-.684.1837-.0388.18738.17907.42092.6563.69692.38585.22523.72093.42461 1.00246.59446 1.20185.73846 1.73631 1.41877 1.60616 2.04-.15323.75139-1.05231.96277-2.69354.636zm-.72831-1.59508c-.11446-.12923-.30923-.22153-.58615-.28061-.22154-.0471-.42092-.0388-.59631.024-.19754.0646-.30461.18184-.31846.35446-.024.21785.48092.42092 1.51477.60831.0655-.37662.06-.612-.0138-.70616z" fill="#101919"/><path d="m122.34931 130.9557c-.0157.003-.0369.003-.0646-.003-.0212-.004-.0305-.0138-.0268-.0305.0185-.28154-.0729-.52708-.2723-.73939-.19939-.21046-.47631-.34431-.828-.40431-.384-.0637-.71262-.0194-.98585.1357-.27323.15692-.43569.38769-.48739.696-.0489.29446.0314.55753.24.7883.20862.23262.49385.37846.85662.44031.0803.0139.20031.024.36092.0342l-.12554.7477c-.12369-.009-.23261-.0212-.32676-.0379-.60647-.10061-1.09016-.35631-1.45016-.76523-.36092-.408-.50031-.85938-.41815-1.35323.0822-.49108.36184-.86954.83815-1.13354s1.02092-.34431 1.63477-.24c.55754.0932 1.00246.30092 1.33385.62769.33138.32585.51323.72185.54738 1.188-.26584.036-.54092.0526-.82615.0489z" fill="#101919"/><path d="m129.97762 136.49508-.0582-.006c-.13846.86677-.84646 1.51846-2.124 1.95139l-.35538-.64523c.99323-.35539 1.5203-.85754 1.58215-1.50739.0452-.48-.11169-.89354-.47169-1.24431-.36-.348-.83446-.552-1.42523-.6083-.60554-.0572-1.12154.0508-1.54708.32492-.42554.27415-.66185.65077-.70708 1.13261-.0618.65908.39047 1.25539 1.36062 1.788l-.50308.5797-.37384-.21046c-1.00985-.55293-1.46954-1.2997-1.38093-2.244.0674-.70893.39693-1.25447.98862-1.6357.59261-.38307 1.33477-.53077 2.23015-.44584 1.07354.10246 1.88493.552 2.436 1.344.67846-.67477 1.55816-.96185 2.63816-.85846.88061.084 1.57661.37107 2.08984.86215s.73662 1.08738.67016 1.79077c-.0665.70061-.40062 1.24708-.9997 1.63754-.6.3923-1.33661.54554-2.20984.46246-.26031-.0249-.51969-.0757-.77354-.15139.0351-.15323.11261-.38861.23077-.70523.29908.072.50308.11262.61292.1237.61292.0582 1.12892-.048 1.55077-.31662.42092-.26862.65539-.64708.70154-1.13538.0434-.46616-.12-.87785-.49385-1.236-.372-.35816-.85477-.56493-1.44554-.62031-.60553-.0582-1.11415.0489-1.52584.32215-.41077.27323-.63877.65262-.68492 1.13631l-.012.11446z" fill="#101919"/><path d="m132.001 142.43785c-.28338-.007-.42185-.14954-.41446-.42831l.0766-3.15231.86954.0222-.0702 2.85415.89169.0222-.0175.71446-1.33569-.0323z" fill="#101919"/><path d="m139.31823 139.04739.0831 3.49292-.912.0212-.0526-3.50307c-.79569.0222-1.332-.00093-1.60892-.0692-.56769-.12646-.876-.4043-.92492-.83446-.11354-.90646.46061-1.368 1.71877-1.38554.43661-.007.80861.0775 1.11876.25385.30924.17539.49477.432.55754.768l.008.53262c1.044-.0148 1.56277-.18462 1.55815-.51047-.005-.28523-.38123-.55938-1.13261-.82707-.36185-.12277-.94154-.33231-1.73908-.63231-.66923-.24-1.00615-.59631-1.01354-1.06523-.0102-.67292.57877-1.01723 1.76954-1.03477.33877-.005.65631.0342.95539.11538.54.15139.81323.3997.81692.74216.002.0628-.048.12646-.15046.192l-.89077.0129c.0655-.0646.0978-.11908.0978-.15877 0-.0222-.0129-.0517-.0388-.0877-.0775-.0332-.33785-.0637-.78093-.0923-.0886-.005-.16892-.006-.23907-.005-.42093.005-.62954.11538-.62585.32677.002.192.26677.37107.792.53815.42646.13569.79569.25477 1.10769.35908 1.33385.45877 2.00585 1.0043 2.01508 1.63938.012.768-.81692 1.17139-2.48954 1.21108zm-1.06154-1.39754c-.13754-.10062-.34984-.14862-.63415-.14492-.22616.003-.41816.0545-.576.1523-.17908.10708-.25569.24831-.23262.41631.0249.21785.56216.30646 1.61262.26308-.0194-.38308-.0766-.612-.16985-.68677z" fill="#101919"/><path d="m140.00223 132.45108c-.0148.007-.0351.0101-.0628.012-.0212.00092-.0323-.006-.0332-.0222-.0434-.2797-.18554-.50031-.42554-.66185-.24184-.16246-.54092-.23354-.89631-.21415-.38953.0203-.70061.13661-.93323.348-.23353.21138-.34153.47261-.32492.78461.0157.29723.15139.53631.40523.71723.25477.18093.56585.26123.93416.24185.0803-.004.19938-.0185.35723-.0434l.0425.75508c-.12369.0185-.23262.0295-.32677.0351-.61569.0332-1.14369-.11169-1.584-.432-.44123-.32031-.67385-.73016-.70154-1.22862-.0268-.49846.16431-.92769.57046-1.28861.40708-.36185.92308-.55939 1.54339-.59262.56584-.0305 1.04584.0775 1.43907.324.39508.24646.65908.59169.792 1.04031-.25107.0932-.516.16892-.79569.22523z" fill="#101919"/><path d="m150.97485 138.08c-.39785.0489-.82985.0231-1.30247-.0757l.2557-.69046c.41907.0535.73846.0665.9563.0406.61016-.0757 1.09293-.28893 1.44462-.64339.35446-.35354.50031-.77261.44123-1.25723-.0582-.468-.30738-.83538-.74861-1.10031-.44124-.26769-.95631-.36554-1.54708-.29354-.60277.0757-1.07723.28893-1.41877.64431-.34339.35631-.48369.77539-.42369 1.26l.0101.0757-.0231.0277c.0434.69877-.17907 1.28584-.672 1.76215-.492.47631-1.16861.76708-2.03169.87323-.87046.10615-1.61261-.024-2.22646-.396-.61477-.37108-.96554-.90646-1.05323-1.60615-.0877-.71077.11723-1.31446.612-1.81293.49477-.5003 1.18892-.80492 2.08061-.91569 1.06893-.13108 1.95877.13292 2.66954.78739.51508-.80677 1.31262-1.27662 2.38985-1.40862.87692-.108 1.62.0203 2.22554.38769.60646.36646.95354.90277 1.04123 1.60616.0868.69784-.12185 1.30154-.62216 1.81107-.5003.50954-1.18615.81693-2.05753.924zm-5.55693-3.39784c-.60461.0738-1.08369.29077-1.44092.64984-.35631.36185-.504.78-.44585 1.25816.0609.47907.30739.84831.74031 1.10861.43292.25846.95077.35262 1.55539.27785.58984-.072 1.05877-.288 1.40769-.64339.34984-.35538.49477-.77353.43569-1.25169-.0582-.48-.30185-.84923-.72923-1.11415-.42646-.26216-.93415-.35723-1.52308-.28523z" fill="#101919"/><path d="m150.33238 133.48677c-.60276.11539-1.14461.0462-1.62553-.21138-.48-.25754-.768-.63046-.86308-1.12154-.0951-.49108.0332-.94246.38769-1.356.35354-.41354.83539-.67938 1.44646-.79846.61108-.11723 1.15016-.0471 1.61631.20677.468.25477.75046.62861.84462 1.11877.0923.47354-.0388.92307-.39139 1.34954-.35261.42646-.82338.69692-1.41508.8123zm-.54-2.79046c-.38215.0729-.67384.22985-.87507.47077-.20216.24092-.27416.516-.21416.82154.0582.29354.22339.51138.50031.65631.27692.14492.59631.18184.95631.11261.37846-.0738.66923-.22523.87046-.456s.27323-.49938.21323-.80307c-.0582-.30093-.21969-.528-.48554-.68031-.26584-.15508-.588-.19569-.96554-.12185z" fill="#101919"/><path d="m151.90254 141.57016c-.27877.0545-.44308-.0563-.49662-.32769l-.60092-3.096.85477-.16524.54369 2.80339.876-.168.13477.70154z" fill="#101919"/><path d="m160.18069 134.96923c-.12369.40431-.408.78-.85569 1.12247-.42277.31384-.89354.53169-1.40954.65261-.85384.19846-1.60154.144-2.24031-.16338-.64061-.30646-1.04123-.80308-1.20277-1.488-.15876-.68585-.0194-1.30523.41908-1.86093.43846-.55477 1.08369-.93323 1.93846-1.13077 1.12985-.264 2.15723.024 3.08308.864l-.66646.50493c-.71723-.63139-1.46954-.85569-2.25323-.67293-.58616.13477-1.03108.40062-1.33754.79293-.30462.39507-.40339.82523-.29262 1.29507.11077.46985.38862.81231.83539 1.02554.44861.21508.96461.25385 1.55077.11723.78646-.18184 1.36061-.71261 1.72431-1.59507l.82061.15877z" fill="#101919"/><path d="m157.58315 130.09908c-.012.009-.0305.0185-.0582.0258-.0203.006-.0323-.00093-.0369-.0185-.10062-.26216-.28708-.44677-.55754-.5557-.26862-.108-.57508-.11538-.92031-.0203-.37477.10153-.65446.28061-.83723.53723-.18185.25569-.23354.53353-.15046.83538.0785.28708.26031.49108.54738.61477.288.12369.60646.13662.96277.0406.0785-.0212.192-.0618.34062-.12l.20123.732c-.11723.0434-.22154.0766-.31385.10246-.59261.16154-1.13907.13292-1.63661-.0886-.49846-.21969-.81323-.57046-.94523-1.05323-.132-.48092-.0369-.94154.28615-1.38092.32123-.43939.78092-.74031 1.38185-.90369.54646-.14954 1.03753-.14493 1.47415.012.43846.15692.76892.44215.99508.85107-.22708.14585-.46893.27508-.73293.38954z" fill="#101919"/><path d="m161.941 132.94216c-.32677.0951-.61662.0868-.87046-.0203-.25385-.108-.41816-.29169-.49477-.55477-.0729-.25015-.0305-.492.13015-.72185.15877-.23169.39877-.3923.71631-.48553.31292-.0905.59723-.0822.85754.0277.25661.10984.42277.29077.49569.54184.0766.26124.036.50677-.12.73385-.15692.22615-.39508.38677-.71446.47908zm.70523 2.41938c-.32677.0951-.61661.0905-.86954-.0148-.25292-.10707-.41815-.28984-.49384-.552-.0729-.25015-.0305-.492.12738-.72738.15877-.23262.39785-.396.71723-.48739.31846-.0942.60554-.0849.85939.0231.25477.10708.42.29077.49569.55385.0766.2603.0369.50492-.12185.72923-.15784.22338-.396.38307-.71446.47538zm-1.04861-3.60092c-.22524.0637-.30831.192-.25293.384.0526.18.19016.23631.41446.17354.23723-.0702.32954-.19477.27877-.37477-.0563-.19108-.20307-.252-.4403-.18277zm.708 2.436c-.22339.0637-.30924.19015-.25477.37477.0572.19108.19661.25292.42.18923.23815-.0692.32769-.19939.27323-.39046-.0545-.18462-.20031-.24277-.43846-.17354z" fill="#101919"/></svg>