<svg height="700" width="1000" xmlns="http://www.w3.org/2000/svg"><path d="m0 .000004h1000v700h-1000z" fill="#fff"/><g fill-rule="evenodd"><path d="m0 0 250 250h750v200h-750l-250 250z" fill="#00994c"/><path d="m1000 200h-729.28932l-200.000002-200h929.289322z" fill="#002580"/><path d="m70.710678 700 200.000002-200h729.28932v200z" fill="#f3e718"/><path d="m0 0 250 250h750v-17h-742.95837l-232.999999-233z"/><path d="m0 700 250-250h750v17h-742.95837l-232.999999 233z"/><path d="m46.669048 0 217.000002 217h736.33095v-17h-729.28932l-200.000002-200z"/><path d="m46.669048 700 217.000002-217h736.33095v17h-729.28932l-200.000002 200z"/><g><path d="m152 398-6 12 18 24 18-24-6-12 36-36 12 6 24-18-24-18-12 6-36-36 6-12-18-24-18 24 6 12-36 36-12-6-24 18 24 18 12.6-6z" fill="#fff" stroke="#000" stroke-width="5"/><path d="m164 386 36-36-36-36-36 36z" fill="#038301" stroke="#000" stroke-width="5"/><path d="m116 350-12-6-8 6 8 6z"/><path d="m212 350 12-6 8 6-8 6z"/><path d="m164 302 6-12-6-8-6 8z"/><path d="m164 398 6 12-6 8-6-8z"/></g></g></svg>