<svg height="504" viewBox="-2100 -1470 4199.9999 2939.9999" width="720" xmlns="http://www.w3.org/2000/svg" xmlns:xlink="http://www.w3.org/1999/xlink"><linearGradient id="a" gradientUnits="userSpaceOnUse" x1="88.411598" x2="111.566" y1="48.3573" y2="48.3573"><stop offset="0" stop-color="#c0a062"/><stop offset=".50196099" stop-color="#ceb27c"/><stop offset="1" stop-color="#ceb27c"/></linearGradient><radialGradient id="b" cx="100" cy="74.105598" gradientUnits="userSpaceOnUse" r="40.570301"><stop offset="0" stop-color="#fff"/><stop offset="1" stop-color="#e8e8e7"/></radialGradient><linearGradient id="c" gradientUnits="userSpaceOnUse" x1="88.393898" x2="111.611" y1="43.4151" y2="43.4151"><stop offset="0" stop-color="#c0a062"/><stop offset=".50196099" stop-color="#dcc89c"/><stop offset="1" stop-color="#dcc89c"/></linearGradient><radialGradient id="d" cx="95.848602" cy="69.4571" gradientUnits="userSpaceOnUse" r="18.704201"><stop offset="0" stop-color="#fffcc8"/><stop offset=".40000001" stop-color="#7fcfd6"/><stop offset="1" stop-color="#00a3e4"/></radialGradient><linearGradient id="e" gradientUnits="userSpaceOnUse" x1="109.293" x2="88.659401" y1="78.526398" y2="78.526398"><stop offset="0" stop-color="#f5c491"/><stop offset="1" stop-color="#f5c491"/></linearGradient><linearGradient id="f" gradientUnits="userSpaceOnUse" x1="88.646896" x2="102.421" y1="78.587799" y2="78.587799"><stop offset="0" stop-color="#42929d"/><stop offset="1" stop-color="#42929d"/></linearGradient><linearGradient id="g" gradientUnits="userSpaceOnUse" x1="111.327" x2="98.325203" y1="76.399597" y2="76.399597"><stop offset="0" stop-color="#bb825b"/><stop offset="1" stop-color="#bb825b"/></linearGradient><linearGradient id="h"><stop offset="0" stop-color="#c2c1c1"/><stop offset="1" stop-color="#c2c1c1"/></linearGradient><linearGradient id="i" gradientUnits="userSpaceOnUse" x1="94.737" x2="95.207703" xlink:href="#h" y1="62.577" y2="62.577"/><linearGradient id="j" gradientUnits="userSpaceOnUse" x1="94.311699" x2="95.6763" xlink:href="#h" y1="66.701897" y2="66.701897"/><linearGradient id="k" gradientUnits="userSpaceOnUse" x1="94.148003" x2="95.814697" xlink:href="#h" y1="64.769699" y2="64.769699"/><linearGradient id="l" gradientUnits="userSpaceOnUse" x1="93.378998" x2="96.6063" xlink:href="#h" y1="68.676697" y2="68.676697"/><linearGradient id="m" gradientUnits="userSpaceOnUse" x1="94.205803" x2="95.757004" xlink:href="#h" y1="63.206501" y2="63.206501"/><linearGradient id="n" gradientUnits="userSpaceOnUse" x1="88.879501" x2="111.101" y1="44.969501" y2="44.969501"><stop offset="0" stop-color="#968247"/><stop offset=".50196099" stop-color="#a69464"/><stop offset="1" stop-color="#a69464"/></linearGradient><g transform="matrix(.18000001 0 0 .18000001 -1722 1205.4)"><path d="m-2100-14863.333h23333.332v16333.333h-23333.332z" fill="#009b3a"/><path d="m-116.6667-6696.6667 9683.3332 6183.33364 9683.3335-6183.33364-9683.3335-6183.3333z" fill="#fedf00"/><circle cx="9566.6665" cy="-6696.6667" fill="#fff" r="4083.3332925" stroke-width="5.5555555"/><g fill-rule="evenodd" transform="matrix(123.22304 0 0 122.99083 -2755.6389 -15306.024)"><path d="m111.582 52.0104c-7.6927-1.2115-15.4931-1.0754-23.1867.0533l-.6294.0924 2.6701-6.3494.196-.032c3.0825-.5027 6.1975-.8472 9.3236-.8575 3.1323-.0109 6.256.3299 9.342.8483l.1923.0323 2.7367 6.314-.6445-.1014z" fill="#5b4431"/><path d="m109.235 51.1114-.2811-1.1142.0427.0046c.6844.0729 1.3677.156 2.0494.2503l.0167.0023.5035 1.1616c-.7763-.1142-1.5534-.2157-2.3312-.3046zm1.6362-1.1849c-1.6345-.2201-3.2777-.3777-4.9235-.4837l-.0237-.0015-.1783-1.0696.0379.0027c1.5594.1114 3.1156.2741 4.6633.4951l.0166.0023.4602 1.0618zm-.5999-1.3836c-.5719-.0795-1.1449-.1514-1.7187-.2156l-.0206-.0023-.2758-1.0931.0432.0052c.5099.061 1.0191.128 1.5273.2013l.0165.0024.4809 1.1094zm-.6205-1.4316c-1.3836-.1947-2.7738-.3436-4.167-.4497l-.0234-.0017-.187-1.1225.0392.0042c1.3153.1421 2.6256.3292 3.9302.5483l.016.0027.4448 1.0262zm-4.6859-1.6062.1887 1.1322-.0378-.0027c-1.6342-.1157-3.2727-.1732-4.911-.1753l-.0298-.0001-.0009-1.2131h.03c1.5825.0039 3.1639.0971 4.7381.2567zm-5.0898-.2585.0009 1.2131-.0298.0001c-1.548.0055-3.096.06-4.6406.1626-.1078.0072-.2156.0147-.3234.0224l-.0379.0027.1887-1.1315.0227-.0022c1.5914-.1607 3.1897-.2577 4.7893-.267zm-5.1506.3016-.1869 1.1219-.0234.0018c-1.4126.1074-2.822.2564-4.2255.4491l-.0519.0071.4315-1.0262.0163-.0026c1.3286-.2167 2.6622-.4035 4.0008-.547zm-4.6058 1.8981c.5232-.0735 1.0472-.1408 1.5719-.2022l.043-.005-.2822 1.1188-.0207.0023c-.5856.0649-1.1703.1371-1.7542.2164l-.0518.0071.4772-1.135zm-.6118 1.4553c1.562-.2171 3.1315-.3813 4.7042-.4975l.038-.0028-.1782 1.0693-.0236.0015c-1.655.1106-3.307.2697-4.9516.4855l-.0517.0067.446-1.0604zm-.5803 1.38c.6857-.092 1.3726-.1742 2.0606-.2469l.0426-.0045-.2874 1.1463c-.7776.0875-1.5546.1851-2.3309.292l.4982-1.1845zm2.1327.8599.2868-1.1438.0209-.0021c1.8435-.1854 3.6937-.3047 5.5453-.3692l.034-.0011-.1015 1.0727c-1.9303.0838-3.8597.2334-5.7855.4435zm6.0869-.4559.1013-1.0702.0263-.0008c.4005-.0125.8011-.0222 1.2018-.0297 1.4133-.0263 2.8274-.0236 4.2405.0128l.0265.0007.0999 1.0562c-1.8981-.0565-3.7977-.0446-5.6963.031zm5.9975-.0213-.1-1.0576.0338.0011c1.8494.0553 3.698.1688 5.539.3546l.0209.0021.2804 1.1116c-1.9215-.2113-3.8471-.3471-5.7741-.4118zm4.7949-3.4694.2764 1.0955-.0427-.0046c-1.7425-.1847-3.4925-.3014-5.2438-.359l-.0266-.0009-.0931-1.117.0337.0012c1.6957.0649 3.3894.1908 5.0755.3824zm-5.4308-.3967.0932 1.1185-.0334-.001c-1.6527-.0467-3.307-.0413-4.9595.011l-.2189.0071.094-1.1283.0265-.001c1.6564-.0588 3.315-.062 4.9716-.0072zm-5.3256.0187-.0939 1.1278-.0265.001c-1.7537.0669-3.5055.189-5.2508.3733l-.0426.0044.2827-1.1205.0207-.0022c1.0489-.1168 2.1005-.2099 3.1536-.2799.6405-.0426 1.2816-.0767 1.923-.1026zm-2.6028 1.5609c1.0116-.0699 2.0246-.1202 3.0381-.1523.7424-.0235 1.485-.0376 2.2277-.0416l.03-.0002.0008 1.0858-.0297.0001c-.4588.0023-.9176.0078-1.3763.0164-1.3527.0252-2.7049.0779-4.0552.1624l-.0375.0023.1785-1.0712zm5.6247-.195c1.7382-.0018 3.477.0511 5.2114.1662l.0237.0016.1785 1.0718-.0374-.0023c-1.7895-.1069-3.5827-.1539-5.3753-.1516h-.03l-.0008-1.0856z" fill="url(#a)"/><path d="m99.978 47.5461c.5921 0 .9195.4379 1.0766.9175l.7489 2.2858c-.7171-.0069-2.7387-.0287-3.4559-.0165l.5557-2.2693c.1201-.4904.4832-.9175 1.0747-.9175z" fill="#5b4431"/><path d="m97.9081 50.462c.0457-.4347.08-.8671.1547-1.2987.1895-1.0949.6525-2.1889 1.9403-2.1889.4379 0 .8412.1255 1.1692.4223.777.7033.8243 2.0808.9255 3.0562l.0348.3346-.3364-.0048c-.126-.0018-.252-.0033-.3781-.0045l-.2687-.0025-.026-.2675c-.0379-.3886-.0572-.7755-.1172-1.1622-.0916-.5898-.2768-1.3775-1.0135-1.3775-.1693 0-.3241.0402-.4588.1455-.5457.4266-.5671 1.7591-.6245 2.3986l-.024.268-.269.0042c-.1349.0022-.2698.0046-.4047.0074l-.339.007z" fill="#5b4431"/><path d="m98.6116 50.4859c.0868-.9666.0889-2.8164 1.3811-2.8164 1.3297 0 1.3321 1.8217 1.4282 2.8098.1265.0011.253.0027.3796.0044-.1279-1.2319-.169-3.2103-1.7974-3.2103-1.5918 0-1.6705 2.0095-1.7976 3.2199.1353-.0029.2708-.0053.4061-.0074z" fill="#dcc89c"/><path d="m99.6875 97.852c-.7669-1.4856-2.6188-2.7529-4.0095-3.6123-2.0869-1.2896-4.3247-2.389-6.4866-3.5517-2.0785-1.1179-4.2234-2.3272-6.0696-3.8017-1.5855-1.2662-3.0911-2.8575-3.6965-4.8366-.1869-.6112-.2816-1.2406-.2816-1.8796 0-2.9734 1.0328-5.6446 2.141-8.3509.8258-2.0169 2.0057-4.5927 1.7596-6.8096-.2508-2.2587-1.828-3.8104-3.6502-4.9873l-.3232-.2087 6.0901-7.8418.1335-.0228c9.7603-1.664 19.6719-1.88 29.4188.0013l.1286.0249 6.0872 7.8384-.3232.2087c-1.8224 1.1769-3.3993 2.7286-3.65 4.9873-.2462 2.2169.9337 4.7927 1.7596 6.8096 1.1082 2.7064 2.141 5.3775 2.141 8.3509 0 .639-.0947 1.2684-.2817 1.8796-.6053 1.9791-2.1109 3.5704-3.6964 4.8366-1.8462 1.4745-3.9912 2.6838-6.0697 3.8017-2.1619 1.1627-4.3997 2.2621-6.4865 3.5517-1.3908.8594-3.2427 2.1267-4.0095 3.6123l-.3126.6054-.3125-.6054z" fill="#3f4446"/><path d="m100 97.6917c-2.9293-5.6747-20.5048-9.0096-20.5048-17.5216s8.8779-14.7672.0901-20.4418l5.7684-7.4339c10.3444-1.7636 20.097-1.7749 29.2925 0l5.7684 7.4339c-8.7878 5.6746.0901 11.9298.0901 20.4418s-17.5755 11.8469-20.5048 17.5216z" fill="url(#b)"/><path d="m99.7545 95.1048c-.9359-.9107-2.0423-1.6695-3.1505-2.3544-2.1274-1.3146-4.3769-2.4206-6.5781-3.6044-2.9215-1.5713-7.8959-4.2609-8.9194-7.6074-.136-.4447-.2052-.9036-.2052-1.3685 0-2.7038 1.0016-5.2247 2.0106-7.6887.9712-2.3718 2.1401-5.0457 1.8492-7.6646-.2369-2.1342-1.3804-3.7997-2.9922-5.1578l-.259-.2182 4.6136-5.8541.1349-.0221c9.1105-1.4892 18.3762-1.6824 27.4772-.0151l.1307.024 4.624 5.8673-.2591.2182c-1.6117 1.3581-2.7552 3.0236-2.9922 5.1578-.2909 2.6189.8781 5.2928 1.8493 7.6646 1.0089 2.464 2.0106 4.9849 2.0106 7.6887 0 4.1463-5.955 7.2711-9.1247 8.9759-2.2011 1.1838-4.4506 2.2898-6.578 3.6044-1.1083.6849-2.2146 1.4437-3.1506 2.3544l-.2455.2389-.2455-.2389z" fill="#3f4446"/><path d="m100 94.8539c.9694-.9433 2.1356-1.737 3.2109-2.4015 2.1252-1.3133 4.3953-2.4313 6.5963-3.615 2.9732-1.5991 8.94-4.7054 8.94-8.6675 0-2.6508-.9956-5.1412-1.9845-7.5562-.9986-2.4387-2.1721-5.1446-1.8732-7.8356.2514-2.2641 1.4719-4.0026 3.1147-5.3868l-4.3323-5.4973c-9.0677-1.6612-18.2773-1.4679-27.3568.0163l-4.3195 5.481c1.6428 1.3842 2.8633 3.1227 3.1147 5.3868.2989 2.691-.8745 5.3969-1.8732 7.8356-.9889 2.415-1.9845 4.9054-1.9845 7.5562 0 .4313.0637.8539.1899 1.2664.9866 3.2257 5.9676 5.9046 8.7502 7.4011 2.2009 1.1837 4.4711 2.3017 6.5963 3.615 1.0753.6645 2.2415 1.4582 3.2109 2.4015z" fill="#00923e"/><path d="m93.194 42.9684v-.1972c0-.1851 0-.3701 0-.5551v-.3252l.3236-.0319c.8625-.0851 1.7265-.1563 2.5915-.2124l.382-.0248 1.1451 1.086.7168-.0207c0-.071 0-.1421 0-.2132 0-.1881 0-.3761 0-.5641v-.3549l.3548-.0039c.862-.0096 1.7241-.011 2.5862-.0041l.356.0029v.3559.563.2107l.7277.0179 1.1341-1.0755v-.0115l.3814.0241c.8651.0545 1.7293.1246 2.592.2093l.3237.0319v.3252.5524.2134l1.8619-.8474.4181.0701c.8666.1452 1.731.3041 2.5927.4763l.2884.0577v.2942.5352.5348.0883l-.0409.0782-.6113 1.3153-.7306.6368-.1222.0926-.1514-.0242c-3.085-.4947-6.1871-.7945-9.312-.8462-3.764-.0622-7.4902.2397-11.2074.8243l-.1498.0236-.1212-.091-.8589-.6394-.5902-1.2958-.0389-.0766v-.0859c0-.1783 0-.3566 0-.5348 0-.1784 0-.3568 0-.5352v-.2954l.2899-.0567c.861-.1685 1.7245-.3244 2.5904-.4658l.4166-.068z" fill="#5b4431"/><path d="m90.9733 43.6461c.859-.1206 1.7181-.2272 2.5795-.3204 0-.1851 0-.3699 0-.5545 0-.1849 0-.3699 0-.5551.859-.0848 1.7181-.1556 2.5795-.2115v.5612.5607c.8591-.0403 1.718-.0698 2.5795-.0891 0-.188 0-.3756 0-.5635 0-.1881 0-.3758 0-.5641.859-.0096 1.718-.011 2.5794-.0041v.563.5626c.859.0152 1.718.0413 2.5794.0793 0-.1863 0-.3727 0-.5588 0-.1864 0-.3729 0-.5594.8592.0542 1.7182.1238 2.5795.2084v.5524.5522c.8591.0941 1.7181.2026 2.5795.3266 0-.1817 0-.3629 0-.5445 0-.1811 0-.3622 0-.5443.8589.1439 1.7203.3021 2.5816.4743v.5352.5348c-.1472.2811-.2946.562-.4394.8439l-.0146-.0023c-3.8129-.6048-7.634-.9567-11.4965-.9454-3.6409.0107-7.2443.3449-10.8379.9209l-.0065.0072c-.1418-.2745-.2826-.5493-.4224-.8243 0-.1786 0-.3567 0-.5348 0-.1782 0-.3567 0-.5352.859-.1681 1.718-.3232 2.5794-.4638v.5464z" fill="url(#c)"/><path d="m87.1105 61.2836-.355 1.1564-1.1557-.0024.9363.7123-.3593 1.1551.9337-.7162.9337.7162-.3593-1.1551.9363-.7123-1.1557.0024z" fill="#fff"/><path d="m86.1377 69.1433-.355 1.1564-1.1557-.0023.9363.7124-.3593 1.1549.9337-.716.9337.716-.3593-1.1549.9363-.7124-1.1557.0023z" fill="#fff"/><path d="m84.8781 76.1858-.355 1.1565-1.1557-.0025.9362.7124-.3592 1.1549.9337-.716.9336.716-.3592-1.1549.9363-.7124-1.1557.0025z" fill="#fff"/><path d="m99.9239 88.4404-.355 1.1565-1.1557-.0025.9363.7124-.3592 1.1551.9336-.7162.9341.7162-.36-1.1551.937-.7124-1.156.0025z" fill="#fff"/><path d="m106.894 85.5829-.354 1.1566-1.156-.0023.936.7122-.359 1.1551.933-.7162.934.7162-.359-1.1551.936-.7122-1.156.0023z" fill="#fff"/><path d="m92.8869 85.5829.355 1.1566 1.1557-.0023-.9363.7122.3592 1.1551-.9336-.7162-.9337.7162.3592-1.1551-.9362-.7122 1.1556.0023z" fill="#fff"/><path d="m87.3447 81.8287.355 1.1563 1.1557-.0023-.9363.7124.3593 1.1549-.9337-.7162-.9336.7162.3592-1.1549-.9363-.7124 1.1557.0023z" fill="#fff"/><path d="m114.387 86.1959-30.1267-30.1264.3151-.3614 30.1896 30.1894z" fill="#3f4446"/><path d="m99.9984 56.4844c2.4264 0 4.6817.7091 6.6025 2.1999 8.9299 6.9312 6.7037 27.6988-6.6025 27.6988-2.4799 0-4.7812-.7317-6.7283-2.277-8.8172-6.9981-6.4586-27.6218 6.7283-27.6218z" fill="#3f4446"/><path d="m99.9984 57.1144c15.0642 0 15.1633 28.6387 0 28.6387-15.1633 0-15.0643-28.6387 0-28.6387z" fill="#3f4446"/><path d="m111.321 71.9851h-22.6544c-.1864-7.3387 3.6016-14.8708 11.3272-14.8708 7.7256 0 11.5135 7.5321 11.3271 14.8708z" fill="url(#d)"/><g fill="#b49700"><path d="m88.6625 71.2208h6.3738v.2742h-6.378v-.0611h.0021c.0001-.0711.0013-.1421.0021-.2131z"/><path d="m88.7164 69.968 6.3504 1.2599-.0534.269-6.3155-1.253c.0055-.0921.0117-.184.0185-.2759z"/><path d="m88.8561 68.6637 6.2392 2.5772-.1047.2535-6.1719-2.5495c.0119-.0939.0243-.1877.0374-.2812z"/><path d="m89.1082 67.2543 6.0125 4.0049-.152.2282-5.9212-3.9441c.0195-.0966.0397-.1929.0607-.289z"/><path d="m89.5241 65.6857 5.6181 5.5965-.1936.1942-5.515-5.4938c.0294-.0994.0596-.1984.0905-.2969z"/><path d="m90.1937 63.9165 4.965 7.3921-.2276.153-4.8673-7.2467c.0423-.1001.0856-.1995.1299-.2984z"/><path d="m91.2546 61.9628 3.9151 9.3753-.2531.1056-3.8413-9.1985c.0586-.0951.1185-.1892.1793-.2824z"/><path d="m92.869 59.978 2.3058 11.391-.2687.0544-2.2691-11.2101c.0763-.0796.1535-.1582.232-.2353z"/><path d="m95.1233 58.304.0505 13.0963-.2742.0011-.0499-12.9435c.0902-.0527.1814-.104.2736-.1539z"/><path d="m97.912 57.3096-2.7453 14.1212-.2691-.0523 2.7233-14.0083c.0962-.0216.1934-.0416.2911-.0606z"/><path d="m100.997 57.1581-5.8432 14.3013-.2538-.1037 5.8096-14.219c.0964.0061.1923.0131.2874.0214z"/><path d="m104.09 57.9283-8.9547 13.5566-.2289-.1511 8.9256-13.5125c.0868.0345.1727.0702.258.107z"/><path d="m106.802 59.6812-11.6892 11.8252-.1951-.1928 11.6782-11.814c.0694.0596.1382.1201.2061.1816z"/><path d="m108.874 62.1847-13.7881 9.3383-.1538-.227 13.7943-9.3426c.05.0764.0991.1536.1476.2313z"/><path d="m110.271 65.1118-15.214 6.4225-.1067-.2527 15.2268-6.4278c.032.0856.0633.1716.0939.258z"/><path d="m111.066 68.2283-16.0399 3.3112-.0555-.2686 16.0489-3.313c.0162.0899.0317.1801.0465.2704z"/><path d="m111.329 71.4127-16.3339.1259-.0022-.2742 16.3335-.1259c.002.0914.002.1828.003.2742z"/><path d="m95.0367 67.2369c2.3103 0 4.184 1.8678 4.184 4.171h-8.3681c0-2.3032 1.8737-4.171 4.1841-4.171z"/></g><path d="m95.0367 67.5961c2.1208 0 3.8407 1.6655 3.8407 3.7192h-7.6815c0-2.0537 1.7199-3.7192 3.8408-3.7192z" fill="#f8c100"/><path d="m100.57 75.732c-.3653-.8374 1.8903-2.4246 2.2415-3.1076.6811-1.3245-3.747-1.0423-3.626-1.1344l-10.4468-.0574c.0336.0016.0004.0269-.0792.0698.0009.5456.0256 1.0908.0704 1.633 2.6233.0859 6.004-.0721 6.0872.4324.0226.1374.5665-.1461.4359.0008-1.2006 1.3494.287 3.6789 1.806 4.8736 4.7213 3.7132 2.9953 5.7996-.8285 6.6384 1.1282.4322 2.3816.6724 3.7632.6724 4.3601 0 7.4556-2.3702 9.2989-5.7443-2.8273-1.136-7.6118-1.7299-8.7226-4.2767z" fill="url(#e)"/><path d="m88.6636 71.1389c3.6079.0008 7.2156-.0053 10.8233-.0053h1.9492l-1.8596.5843c-.974.306-2.2157.8464-2.5074 1.9352-.2203.8226.1303 1.8059.4572 2.5554.4783 1.0967 1.0996 2.1479 1.6342 3.2207.9767 1.9601 1.8206 4.2066.8283 6.3237-7.6824-.0031-11.4428-7.3589-11.3252-14.614z" fill="#3f4446"/><path d="m99.4869 71.4326c-7.5469 2.3709 2.9346 8.8388.1741 14.3105-7.3573-.208-11.0141-7.2573-11.0027-14.3093 3.189-.0003 7.4423-.0012 10.8286-.0012z" fill="url(#f)"/><path d="m105.724 67.9527c1.6021-.1709 1.3753-3.4252 4.2269-3.4556.0299-.0003.0593.0006.0888.002.8877 2.2176 1.3161 4.7264 1.285 7.2247h-11.4521-.4153l.1317-.3938c.2361-.7063.7766-1.5026 1.2397-2.0815.371-.4637.8056-.9323 1.2777-1.2943.3572-.2738.8617-.5803 1.3319-.5043.3241.0525.6504.14.9676.2248.2804.075 1.0506.3065 1.3181.278z" fill="#3f4446"/><path d="m105.756 68.2499c-.4382.0467-1.607-.3824-2.3651-.505-1.0372-.1676-3.0755 2.3562-3.518 3.6798h11.4563c-.005-2.282-.3956-4.5624-1.167-6.6119-.0686-.0114-.1378-.0176-.2078-.0168-2.6777.0285-2.3491 3.2566-4.1984 3.4539z" fill="#00923e"/><path d="m92.9925 79.7295c-1.2408-2.5317-1.2366-5.0075 1.412-6.5027l.9271-.5233-.5191.9295c-.1944.3482-.3055.7239-.265 1.125.1231 1.2188 1.72 2.4647 2.6099 3.1698l.5013.3971-.6262.13c-1.232.2557-2.5629.6466-3.5976 1.3863l-.2871.2051z" fill="#3f4446"/><path d="m93.261 79.5978c-1.4324-2.9226-.8067-4.9267 1.2905-6.1107-.9546 1.7096.4081 3.0807 2.4203 4.6749-1.4214.2951-2.7111.7213-3.7108 1.4358z" fill="#fff"/><path d="m96.4878 79.6617h-.6522c.0031-.0121.0047-.0247.0047-.0377v-.3588c0-.0831-.0682-.151-.1515-.151h-.3599c-.0834 0-.1515.0679-.1515.151v.3588c0 .013.0018.0256.0049.0377h-2.6028v-.2266h-.5081v.2266h-.5706c-.1483.1168-.1483.2615 0 .4343 1.6026.2683 3.265.2682 4.987 0 .1482-.1448.1482-.2896 0-.4343z" fill="#3f4446"/><path d="m108.264 81.6095c-2.4734-1.282-5.8975-1.5556-7.8099-3.5806-1.942-2.0562-2.3011-4.3534-.7808-6.756l.0893-.1411 11.5638.1375c.0367 3.7845-.9821 7.5826-3.0624 10.3402z" fill="#3f4446"/><path d="m99.9255 71.4328c-1.0379 1.6402-1.6003 3.907.7455 6.3908 1.8602 1.9697 5.2686 2.2306 7.7726 3.5428 1.9063-2.6612 2.8656-6.2235 2.8832-9.7981z" fill="url(#g)"/><path d="m111.328 71.4861-6.0374.0001h-1.0393l.8804-.5523c.7884-.4945 1.3762-1.0821 2.003-1.7572.407-.4382.9284-1.0464 1.5421-1.1641.1281-.0245.2577-.0286.3871-.0132.3387.0405.6788.1079 1.0133.1741.2896.0571.5797.1172.8709.1656.0418.007.0886.0149.1377.0226.1611 1.0271.2431 2.0756.2422 3.1244z" fill="#3f4446"/><path d="m111.133 68.6695c-.5838-.0767-1.4767-.298-2.1044-.373-1.1019-.1318-1.7068 1.6168-3.7379 2.8909l6.0338-.0001c-.0118-.8444-.0747-1.6874-.1915-2.5178z" fill="#00923e"/><path d="m94.2222 63.6888h1.5183v.8043h-1.5183z" fill="#f8c300"/><path d="m94.9724 62.0468c.2937 0 .5318.2374.5318.5302 0 .2927-.2381.5301-.5318.5301s-.5318-.2374-.5318-.5301c0-.2928.2381-.5302.5318-.5302z" fill="#3f4446"/><path d="m94.9724 62.3424c.1299 0 .2353.1051.2353.2346s-.1054.2346-.2353.2346-.2354-.1051-.2354-.2346.1055-.2346.2354-.2346z" fill="url(#i)"/><path d="m93.9968 68.6101.2305-3.8164h1.5298l.2346 3.8164z" fill="#3f4446"/><path d="m94.3117 68.3146.1949-3.2254h.9717l.198 3.2254z" fill="url(#j)"/><path d="m93.8516 64.1974h2.2596v1.1444h-2.2596z" fill="#3f4446"/><path d="m94.148 64.4931h1.6667v.5532h-1.6667z" fill="url(#k)"/><path d="m94.0046 65.9515h2.8982v5.4507h-3.8203v-5.4507z" fill="#3f4446"/><path d="m93.379 66.247h.461v.4596h.4611v-.4596h.4611v.4596h.461v-.4596h.4611v.4596h.461v-.4596h.461v.4596 4.3999h-3.2273v-4.3999z" fill="url(#l)"/><path d="m94.9765 69.5912c.2504 0 .4336.2482.4336.5217v1.0684h-.8672v-1.0684c0-.2736.1832-.5217.4336-.5217z" fill="#3f4446"/><path d="m95.3932 68.7024h-.8011v-.7855h.8011z" fill="#3f4446"/><path d="m93.2247 67.2511h3.5377v.3085h-3.5377z" fill="#3f4446"/><path d="m93.2247 68.9742h3.5377v.3087h-3.5377z" fill="#3f4446"/><path d="m95.1356 63.5988v.8204h-.3086v-.8204z" fill="#3f4446"/><path d="m94.9813 62.5802c.505 0 1.0721.3228 1.0721.8787v.374h-2.1441v-.374c0-.5559.567-.8787 1.072-.8787z" fill="#3f4446"/><path d="m94.9813 62.8757h.0001c.4266 0 .7756.2625.7756.5832v.0784h-1.5512v-.0784c0-.3207.349-.5832.7755-.5832z" fill="url(#m)"/><path d="m94.4382 63.5917v.8275h-.3086v-.8275z" fill="#3f4446"/><path d="m95.833 63.5988v.8204h-.3085v-.8204z" fill="#3f4446"/><path d="m100.565 61.6174c1.0159-.0197 2.0193.075 2.9796.4264.8236.3012 1.5433.7659 2.1783 1.369l.4648.4417-2.1882.2484-.1031-.1159c-.9469-1.0642-2.1474-1.2499-3.4404-1.6272-.2243-.0655-.6565-.1263-.6106-.4609.0461-.3352.485-.2769.7196-.2815z" fill="#3f4446"/><path d="m100.571 61.9165c.9844-.0191 1.9474.0703 2.871.408.7184.2628 1.413.6761 2.0752 1.3052l-1.3973.1586c-1.012-1.1374-2.2771-1.3354-3.5799-1.7156-.5464-.1595-.5247-.1456.031-.1562z" fill="#fff"/><path d="m107.235 62.5766c.1883.1094.3297.3349.344.5455.1611.2326.1669.6196-.092.7877-.4225.2745-.8646.3032-1.2956.44.2156.6854.575 1.3532.552 2.0884-.004.1422-.0172.2843-.037.4254-.1425 1.022-.6434 1.9236-.8196 2.9151-.0349.1963.002.5906-.3248.6018-.3323.0113-.3182-.3795-.3528-.575-.1232-.6962-.1747-1.4233-.2524-2.1271-.0723-.6551-.2099-1.926-.5764-2.5064-.2435-.1499-.5047-.2694-.7743-.3641l-.007-.0023-.006-.0026c-.1768-.0716-.418-.103-.6151-.121-.1913.0479-.4191.0737-.6079.1258l-.454.1253.0798-.4641c.0372-.2178.1168-.4337.2063-.6366.1761-.3994.4892-.6726.9384-.639l1.3726-.2857.041.0028c.2414.0168.5005-.048.7271-.1266.2524-.0872.4942-.2018.7351-.3168.1832-.0876.4203-.2099.6187-.2484.243-.0472.5033.1334.6.3579z" fill="#3f4446"/><path d="m104.534 63.2089c.8146.0566 1.7704-.6212 2.1586-.6965.1311-.0255.3673.1959.252.3075-.0748.0722-.5163.237-.6417.3035-.0829.0436.6223-.3277.7155-.3136.197.0299.3191.3559.2317.4243 0 0-.6285.1712-.8179.258-.1741.0797.5237-.2438.8179-.258.1055-.005.2243.3279.0748.425-.4423.2874-1.0283.3002-1.4951.5083.1772.7125.6384 1.5252.6155 2.2615-.036 1.1486-.6612 2.2229-.8522 3.2976-.0747.4206-.003.514-.0889.0268-.2481-1.4016-.2624-3.8782-.9101-4.8005-.265-.1697-.5612-.312-.8882-.4269-.1726-.0698-.4235-.1185-.753-.1462-.1782.0491-.5137.1207-.6918.1699.0574-.3339.2698-1.133.8963-1.054z" fill="#fff"/><path d="m103.096 64.0381c.076.0059.1418-.054.1476-.1336.005-.0802-.0512-.1494-.1274-.1554-.0757-.006-.1417.0541-.1472.1338-.006.08.0513.1494.127.1552z" fill="#3f4446"/><path d="m105.643 66.0216.608 2.0893-.186.1984-.652-2.2208z" fill="#3f4446"/><path d="m105.914 65.5735.63 1.3237-.12.2824-.726-1.5032z" fill="#3f4446"/><path d="m107.242 62.8054-.996.477-.102-.2162.857-.4056z" fill="#3f4446"/><path d="m107.459 63.3912-1.075.2553-.054-.2331 1.021-.248z" fill="#3f4446"/><path d="m104.128 77.2079c.1173-.4695.2363-.8533.4603-1.2451l-.5531.5532-.1691-.1691.441-.4412c-.3231.192-.601.4425-.8479.7525l-.0136.0639.002.0785.1032 1.0515.5186-.5473.0389-.0422.019-.0514.001-.0033zm1.4429-.7463c.0124.4655.0265.9306.0414 1.396l.2165-.5028-.0002-.0296-.0101-.0168c-.0813-.3051-.1485-.5818-.2476-.8468zm.0597 1.9584c.0436 1.3262.0903 2.6525.1172 3.9792l.005.244h-1.3702l.1434-4.277-.1886-.4383.009.687-.2392.0031-.008-.6537-.2326.617-.2238-.0844.2466-.6542-.4616.4872-.1736-.1645.079-.0834-.0693-.7057-.1822.6868-.2312-.0614.1776-.669-.3911.5627-.1964-.1365.4355-.6267-.6016.3871-.1294-.2012.5648-.3634-.1906.0398-.0688.1221-.1395-.0786-.2556.0534-.0489-.2342.0687-.0143-.1438-.1375.5803-.6069-.7103.4151-.1206-.2066.779-.4551-.8708.196-.0526-.2333.7179-.1617-.7351-.0255.008-.239.8198.0284-.787-.2575.0744-.2273.7808.2553-.4117-.2788-.0628.01-.009-.0589-.2093-.1417.1342-.1981.2031.1376.5223-.0829-.7586-.0832.0261-.2378.8602.0944-.7765-.3375.0954-.2194.7822.3401-.6447-.5578.1564-.1809.6411.5546-.4572-.7354.1739-.1082.0462-.1131.2453.1004-.0258-.0981.1008-.0266-.1964-.1455.1425-.1922.7467.5532-.5527-.7209.1898-.1456.6028.7863-.3313-.9204.225-.081.279.7751-.0723-.8195.2383-.021.0797.9035.1776-.8983.2347.0464-.1761.8906.2636-.5117-.0866-.1681.2126-.1096.009.0166.0261-.0506.2126.1096-.1042.2021.2812.5458-.1761-.8907.2346-.0464.1777.8984.0796-.9036.2383.021-.0722.8196.279-.7752.225.0811-.3314.9205.603-.7864.1898.1455-.5527.7209.7466-.5531.1424.1922-.1562.1157.0843.0223-.0331.1254.2289-.0936.0312.0762.01-.0153.2031.1263-.4572.7354.641-.5546.1565.1809-.6447.5578.7822-.3401.0954.2194-.7765.3375.8602-.0944.0261.2378-.7586.0832.5834.0926.2174-.1473.1342.1981-.2938.1989-.0002.0017-.002-.0003-.3973.2691.7807-.2553.0744.2273-.787.2575.8199-.0284.008.239-.7351.0255.718.1617-.0526.2333-.8709-.196.7791.4551-.1207.2066-.7102-.415.5802.6068-.1437.1375.0686.0143-.0489.2342-.2556-.0534-.1395.0786-.0687-.1221-.1907-.0398.5648.3634-.1294.2012-.6016-.3871.4355.6267-.1964.1365-.3911-.5627.1776.669-.2312.0614-.1822-.6868-.0693.7057.0791.0834-.1736.1645-.4617-.4873.2466.6543-.2238.0844-.2325-.6168-.008.6535-.2392-.0031.009-.687-.2119.4921zm-1.0858-.615.0431-1.2879c-.0875.2221-.1536.453-.2186.7109-.006.0261-.0125.0509-.0213.0763l.003.0505.1939.4502zm2.0151-3.0989c-.2038.0818-.4468.1945-.6741.3326l.7614-.1303.0404.2358-.6482.1109c.3088.01.615.0581.906.1558l.0306.0091.0341-.0102.8066-.5465-1.1049-.1753-.0884-.0119zm-1.0836.3226c.3138-.2417.7005-.4287 1.0185-.5542l.0349-.0186.006-.038.2365-.8968-.9069.3708-.0526.0216-.0363.0492c-.1677.2581-.2947.5258-.3901.8049l.6594-.7592.1806.1569zm1.2469 1.6195c-.2645-.3431-.5744-.6054-.9407-.7992l.5011.5199-.1722.166-.4481-.4649c.1712.3464.2588.7009.3676 1.1089l.0236.0867.0563.0392.5186.5473.1032-1.0515.01-.0824-.0191-.07zm-1.5186-2.0821c.0941-.2485.2131-.4883.3628-.7207l.0117-.0281-.003-.0344-.5444-1.0567-.527 1.0226.01.0618c.1986.301.3448.6145.4512.943l.0006-1.0577.2392.0001-.0005.8701zm1.6511 1.0671c-.251-.0827-.5149-.1255-.7814-.1373l.5732.1879-.0745.2273-.4748-.1557c.3411.2146.6337.4924.8852.8418l.008.0117.001.0017.5122.107-.5677-1.0079-.0297-.0508-.0521-.0257zm-.007-2.4018.0307-.1163-.3126.2316zm.2009.1762-.1072.4064.3024-.4861zm-2.7443.5207-.0331-.0438-.0568-.0266-.8905-.3642.2438.9242.0409.0565c.3555.1403.7966.3573 1.126.6418l.008.0014-.8613-.8885.1718-.1664.6528.6735c-.0984-.2801-.2294-.5489-.4019-.8079zm-.7858.7657-.0603-.0187-.0666.0127-1.0438.1657.821.5561.0341.0069.0315-.0043c.2875-.0929.5902-.1437.8949-.1571l-.6487-.1111.0404-.2358.6712.1149zm.5688 1.0657-.4868.1642-.0764-.2267.5996-.2023c-.2726.0133-.5429.0588-.8001.1401l-.0454.0278-.0368.0469-.5678 1.0079.5136-.1073.0194-.0248.0251-.0259.0001-.0004.0002.0001c.2502-.3243.5312-.5908.8553-.7996zm-1.4732.5762-.4709.4925.2194-.0459zm.4326-2.9557-.2083-.0851.3226.5189zm.2009-.1762.2654.1086-.2943-.2181zm4.5678 3.5785.2193.0459-.4709-.4925z" fill="#3f4446"/><path d="m104.863 75.4541-.2331 6.9497h.8788c-.0478-2.3545-.153-4.5952-.2007-6.9497-.1713-.2344-.3146-.1824-.445 0z" fill="#3f4446"/><path d="m104.863 75.4541-.0113.3346.4718.3554-.009-.3812-.4366-.329-.0148.0202zm-.2198 6.5538-.0123.3652.0408.0307h.4969zm.0245-.7316-.0122.3652.8506.641-.009-.3809-.8298-.6253zm.0246-.7316-.0123.3652.8081.6089-.0104-.3823zm.0245-.7316-.0122.3651.762.5743-.0116-.3832zm.0245-.7316-.0122.3652.7138.5378-.0125-.3837zm.0246-.7316-.0123.3652.6642.5004-.0128-.384zm.0245-.7316-.0122.3651.614.4627-.0126-.3838zm.0246-.7316-.0123.3651.5645.4255-.0118-.3834zm.0245-.7316-.0123.3651.5168.3894-.0107-.3824z" fill="#957f66"/><path d="m89.7384 45.8982c-.3271-.2453-.5319-.3942-.8589-.6394 7.7363-1.2401 14.417-1.212 22.2215.0246l-.7306.6368c-7.0382-1.1277-13.428-1.1551-20.6321-.022z" fill="url(#n)"/><path d="m107.484 43.064 1.1863-.5251v.0043.5443.1315c-.395-.0547-.7904-.1065-1.1863-.155zm-16.1523-.5251v.0148.5464.1344c.406-.055.8124-.1071 1.2192-.1559zm5.8403.1849-.6814-.6564v.4984.1853c.2272-.0098.4542-.019.6814-.0273zm5.6707-.0122.6687-.6442v.4844.1846c-.2229-.009-.4457-.0174-.6687-.0248z" fill="#dcc89c"/><path d="m94.7648 50.1374c-.3347.0324-.6708.0389-1.0057.0667l-.8961.0741.0809-.8956c.0643-.7106.181-1.4151.2451-2.1256l.017-.1878.1032-.1579c.329-.503.9265-.8541 1.537-.6903.376.1008.6585.3733.8112.7265l.0816.1886-.0251.2041c-.0882.7133-.1824 1.4257-.2718 2.1387l-.0752.6003z" fill="#5b4431"/><path d="m94.7284 49.7612c-.3322.0321-.6674.0386-1.0005.0662l-.448.037.0404-.4478c.0644-.7111.1809-1.4145.2451-2.1255l.0086-.0939.0515-.079c.2386-.3648.6721-.6531 1.1228-.5321.2638.0708.4555.2648.5622.5115l.0408.0943-.0126.102c-.0881.713-.1822 1.4252-.2716 2.138l-.0376.3002z" fill="#dcc89c"/><path d="m94.692 49.385c.0978-.7799.1752-1.3573.2715-2.1374-.1975-.4569-.714-.393-1.0216.0775-.0715.7914-.1736 1.3342-.2451 2.1256.4023-.0333.6849-.0357.9952-.0657z" fill="#5b4431"/><path d="m105.038 50.1374c.3347.0324.6709.0389 1.0057.0667l.8962.0741-.0809-.8956c-.0643-.7106-.181-1.4151-.2451-2.1256l-.017-.1878-.1032-.1579c-.3291-.503-.9266-.8541-1.5371-.6903-.3759.1008-.6585.3733-.8112.7265l-.0816.1886.0252.2041c.0881.7133.1823 1.4257.2718 2.1387l.0752.6003z" fill="#5b4431"/><path d="m105.074 49.7612c.3322.0321.6674.0386 1.0005.0662l.4481.037-.0405-.4478c-.0643-.7111-.1809-1.4145-.2451-2.1255l-.008-.0939-.0516-.079c-.2386-.3648-.672-.6531-1.1228-.5321-.2638.0708-.4555.2648-.5621.5115l-.0409.0943.0126.102c.0881.713.1823 1.4252.2717 2.138l.0376.3002.301.0291z" fill="#dcc89c"/><path d="m105.111 49.385c-.0979-.7799-.1753-1.3573-.2716-2.1374.1976-.4569.714-.393 1.0216.0775.0716.7914.1736 1.3342.2451 2.1256-.4022-.0333-.6848-.0357-.9951-.0657z" fill="#5b4431"/></g></g></svg>