<svg height="1400" viewBox="0 0 1320 924" width="2000" xmlns="http://www.w3.org/2000/svg"><rect fill="#fff" height="100%" width="100%"/><rect fill="#0096e1" height="308" width="100%"/><rect fill="#f09bbe" height="308" width="100%" y="616"/><path d="m214.2 533.6-21.6-43.3-17 7-4.4-8.9 45.6-18.7 4.4 8.8-17 7 21.6 43.3zm36.1-14.6-23.2-53.3 25-8.9c6.2-2.3 11-3.4 14.2-3.5 3.3-.1 6.3.8 9.1 2.6 2.8 1.9 4.8 4.4 6.2 7.5 1.7 4 1.9 7.8.4 11.3-1.4 3.5-4.6 6.6-9.4 9.1 3.1.4 5.9 1.2 8.2 2.2 2.4 1 5.9 3.1 10.6 6.2l11.7 7.8-14.2 5.1-13.6-8.5c-4.9-3.1-8.1-4.9-9.7-5.6s-3.1-1-4.5-.9c-1.4 0-3.5.5-6.2 1.5l-2.4.9 9.7 22.2zm-1.5-35 8.7-3.2c5.7-2 9.2-3.5 10.4-4.4 1.2-1 2-2.1 2.3-3.5.4-1.3.2-2.8-.5-4.4-.8-1.8-1.9-3.1-3.5-3.8-1.5-.7-3.3-.9-5.3-.5-1.1.2-4 1.2-8.8 2.9l-9.2 3.4zm114.8-2.4-13.2 4-9.7-10.7-23.9 7.2-.4 13.8-12.9 3.9 3.4-61.4 12.8-3.8zm-30.2-14.7-15.6-17.7-.7 22.6zm20.4-42.2 24.3-6c4.9-1.2 8.5-1.9 11-2.1 2.4-.3 4.8 0 7 .7s4.2 1.8 6.1 3.5c1.8 1.6 3.1 3.6 3.8 5.9.7 2.6.7 5.2-.2 7.7-.9 2.6-2.5 4.7-4.8 6.4 4 .1 7.4 1.1 10.1 2.9 2.7 1.9 4.5 4.4 5.4 7.6.8 2.5.9 5.2.3 7.9-.6 2.6-1.8 5-3.6 7-1.8 1.9-4.3 3.5-7.4 4.6-2 .7-6.9 2-14.7 4l-20.8 5.1zm15.1 6.1 3.8 12.8 8-2c4.8-1.2 7.8-2 8.9-2.4 2-.7 3.5-1.8 4.4-3.1.8-1.4 1-3 .5-4.8-.5-1.7-1.5-3-2.8-3.8-1.4-.8-3.1-1.1-5.2-.8-1.3.2-4.8 1-10.6 2.4zm6.5 22 4.5 14.8 11.3-2.8c4.5-1.1 7.2-1.9 8.4-2.4 1.7-.8 3-1.9 3.7-3.3.9-1.5 1-3.2.4-5.2-.5-1.6-1.4-2.9-2.6-3.9-1.2-.9-2.8-1.4-4.6-1.5-1.9-.1-5.6.5-11.1 1.9zm112.1 1.7-13.5 2.6-8.4-11.7-24.6 4.7-2.2 13.7-13.2 2.5 11.1-60.6 13.2-2.5zm-28.1-17.8-13.3-19.2-3.5 22.4zm35.4 16.9-9.5-56.2 12.6-1.7 7.9 46.6 31.3-4.3 1.6 9.5zm53-7.2-6-57 12.7-1.1 2.3 22.5 24.9-2.2-2.4-22.4 12.7-1.1 6 57-12.7 1.1-2.6-24.9-24.9 2.1 2.6 24.9zm120.2-6.8-13.8.4-6-12.8-25.2.7-4.7 13.2-13.5.4 22.4-58 13.5-.4zm-24.3-21.9-9.4-21-7.8 21.5zm80.2 23.3 4.6-57.1 46.6 3.2-.7 9.6-34-2.3-1 12.7 31.6 2.1-.8 9.6-31.6-2.1-1.3 15.6 35.2 2.3-.8 9.7zm150.9-4.1 11.5 5.5c-3.1 5.9-7.1 9.9-12.1 12.2-4.9 2.3-10.7 2.9-17.3 1.8-8.3-1.4-14.5-5.1-18.8-11-4.3-6-5.6-13.5-3.8-22.3 1.9-9.4 6-16.2 12.4-20.5 6.3-4.4 13.9-5.8 22.6-4.4 7.5 1.3 13.3 4.3 17.2 9.2 2.4 2.8 3.8 6.6 4.3 11.4l-12.9.6c-.2-3-1.3-5.6-3.3-7.6-1.9-2.1-4.6-3.4-7.9-4-4.6-.7-8.7.2-12.1 2.7-3.5 2.5-5.9 7.1-7.2 13.8-1.4 7.2-1 12.5 1.2 16s5.6 5.6 10.1 6.3c3.3.6 6.4.1 9.2-1.5 2.7-1.5 5.1-4.2 6.9-8.2m23.7-3.2c1.5-5.7 3.7-10.2 6.7-13.7 2.1-2.5 4.7-4.6 7.7-6.3s6.1-2.8 9.3-3.3c4.2-.6 8.8-.3 13.8.8 9 2 15.5 6.1 19.6 12.4 4 6.3 4.8 14 2.4 23s-7 15.5-13.8 19.3c-6.7 3.9-14.6 4.8-23.6 2.8-9.1-2-15.6-6.1-19.7-12.4-4-6.2-4.8-13.8-2.4-22.6m12.8 2.4c-1.7 6.3-1.3 11.5 1 15.5 2.3 3.9 5.9 6.4 10.9 7.5 4.9 1.1 9.4.4 13.4-2.1s6.9-7 8.7-13.5c1.7-6.3 1.4-11.4-.8-15.3-2.2-3.8-5.9-6.3-11-7.4s-9.6-.5-13.6 2-6.8 6.9-8.6 13.3m48.8 40.9 18.7-54.7 12 3.3 12.2 43.4 12-36.5 12 3.2-19 54.7-12.2-3.4-12.2-42.5-12.2 35.6zm60.9 17.4 22-53.7 40 13.5-3 9.1-29-9.6-5 12.8 25 8.2-4 9.1-25-8.2-9 22.8zm50 17.1 24-53.1 11 4.3-23 53.1zm75 29.4-13-5.2 1-13.9-23-9.3-10 10-13-5 48-43.2 13 4.9zm-11-29.4 1-22.6-17 16.2z" fill="#0096e1"/></svg>