<svg height="1050" width="1500" xmlns="http://www.w3.org/2000/svg"><g transform="matrix(1.0454718 0 0 1.0499835 0 .016578)"><path d="m0 875h1435.0348v125h-1435.0348z" fill="#f3e718"/><path d="m0 750h1434.7997v125h-1434.7997z" fill="#00994c"/><path d="m0 125h1434.6235v125h-1434.6235z" fill="#f3e718"/><path d="m0 375h1434.8726v125h-1434.8726z" fill="#f3e718"/><path d="m0 625h1434.8726v125h-1434.8726z" fill="#f3e718"/><path d="m0 0h1434.8726v125h-1434.8726z" fill="#00994c"/><path d="m0 250h1434.8727v125h-1434.8727z" fill="#00994c"/><path d="m0 500h1434.8726v125h-1434.8726z" fill="#00994c"/><path d="m0 0h500v375h-500z" fill="#002580"/><g fill="#fff"><path d="m447.02282 339.72136-47.02282-34.16408-47.02282 34.16408 17.96112-55.27864-47.02282-34.16408h58.1234l17.96112-55.27864 17.96112 55.27864h58.1234l-47.02282 34.16408z"/><path d="m447.02282 164.72136-47.02282-34.16408-47.02282 34.16408 17.96112-55.27864-47.02282-34.16408h58.1234l17.96112-55.27864 17.96112 55.27864h58.1234l-47.02282 34.16408z"/><path d="m147.02282 164.72136-47.02282-34.16408-47.02282 34.16408 17.961118-55.27864-47.022819-34.16408h58.123402l17.961119-55.27864 17.96112 55.27864h58.1234l-47.02282 34.16408z"/><path d="m147.02282 339.72136-47.02282-34.16408-47.02282 34.16408 17.961118-55.27864-47.022819-34.16408h58.123402l17.961119-55.27864 17.96112 55.27864h58.1234l-47.02282 34.16408z"/><path d="m285.26712 236.04102-35.26712-25.62306-35.26712 25.62306 13.47084-41.45898-35.26711-25.62306h43.59255l13.47084-41.45898 13.47084 41.45898h43.59255l-35.26711 25.62306z"/></g></g></svg>