<svg id="svg" xmlns="http://www.w3.org/2000/svg" xmlns:xlink="http://www.w3.org/1999/xlink" width="400" height="219.30184804928132" viewBox="0, 0, 400,219.30184804928132"><g id="svgg"><path id="path0" d="M196.418 20.753 C 196.397 21.246,196.306 21.722,196.215 21.812 C 196.125 21.901,195.836 23.868,195.573 26.182 C 195.311 28.496,194.786 33.006,194.407 36.204 C 194.029 39.402,193.633 42.957,193.528 44.103 C 193.423 45.250,193.237 46.879,193.114 47.724 C 192.992 48.568,192.886 49.383,192.880 49.534 C 192.867 49.849,192.211 49.915,192.211 49.600 C 192.211 49.428,191.252 47.715,190.348 46.273 C 190.226 46.079,189.865 45.436,189.546 44.845 C 189.227 44.253,188.762 43.524,188.514 43.223 L 188.063 42.677 188.153 43.445 C 188.203 43.867,188.294 45.819,188.356 47.783 C 188.484 51.821,188.433 51.898,186.900 50.009 C 186.502 49.518,185.732 48.648,185.189 48.074 C 184.646 47.500,183.843 46.618,183.404 46.115 C 182.511 45.091,182.214 44.962,182.434 45.694 C 182.809 46.944,183.487 49.543,183.592 50.137 C 183.656 50.499,183.782 50.894,183.873 51.015 C 184.172 51.415,184.358 53.319,184.098 53.319 C 183.966 53.319,182.948 52.576,181.836 51.669 C 178.794 49.187,177.839 48.426,177.164 47.943 C 176.827 47.702,175.211 46.415,173.574 45.085 C 171.937 43.754,170.203 42.373,169.720 42.016 C 169.238 41.659,167.460 40.247,165.771 38.879 C 161.936 35.774,162.177 35.965,161.327 35.363 C 160.563 34.821,160.421 34.866,160.931 35.488 C 162.648 37.586,166.545 42.438,166.978 43.014 C 167.279 43.417,168.711 45.218,170.159 47.017 C 171.607 48.816,172.939 50.501,173.118 50.761 C 173.297 51.021,174.704 52.789,176.245 54.690 C 179.649 58.890,179.679 59.010,177.165 58.264 C 174.959 57.609,171.046 56.637,170.960 56.723 C 170.862 56.821,174.234 60.045,174.964 60.550 C 176.959 61.932,177.455 63.316,175.790 62.855 C 175.468 62.766,173.707 62.633,171.874 62.559 C 168.177 62.410,168.002 62.525,170.209 63.654 C 172.609 64.882,175.813 66.913,175.518 67.020 C 175.139 67.158,172.546 67.532,170.159 67.794 C 165.307 68.327,163.720 68.506,160.285 68.908 C 155.447 69.475,147.056 70.404,146.352 70.451 C 145.314 70.521,147.709 70.881,154.361 71.655 C 157.981 72.077,161.684 72.511,162.589 72.620 C 164.200 72.814,171.517 73.638,174.091 73.914 C 175.396 74.054,175.934 74.471,175.169 74.748 C 174.948 74.828,174.520 75.064,174.218 75.272 C 173.702 75.629,173.058 76.003,169.995 77.725 C 167.972 78.861,168.498 78.974,173.874 78.558 C 177.590 78.271,177.588 78.242,174.068 81.496 C 171.050 84.285,170.476 84.925,171.281 84.597 C 171.509 84.504,172.337 84.280,173.121 84.099 C 173.906 83.918,174.745 83.690,174.986 83.591 C 175.228 83.493,175.672 83.365,175.974 83.308 C 176.275 83.250,177.043 83.059,177.680 82.883 C 179.449 82.393,179.419 82.903,177.564 84.823 C 177.293 85.104,177.071 85.389,177.071 85.456 C 177.071 85.522,176.168 86.687,175.064 88.044 C 173.960 89.400,172.602 91.087,172.047 91.792 C 171.491 92.498,169.951 94.440,168.623 96.109 C 167.296 97.778,166.012 99.416,165.771 99.749 C 165.529 100.081,165.110 100.578,164.838 100.852 C 164.567 101.127,164.344 101.405,164.344 101.471 C 164.344 101.537,163.498 102.628,162.464 103.895 C 160.358 106.474,160.354 106.734,162.445 105.047 C 163.230 104.413,164.448 103.438,165.151 102.880 C 165.854 102.322,167.525 100.989,168.864 99.918 C 170.203 98.847,171.679 97.674,172.144 97.312 C 172.609 96.950,174.089 95.765,175.433 94.679 C 176.776 93.593,178.210 92.457,178.618 92.156 C 179.027 91.854,180.374 90.793,181.612 89.797 C 184.442 87.522,184.726 87.570,183.882 90.181 C 183.580 91.115,183.222 92.428,182.895 93.801 C 182.723 94.526,182.516 95.340,182.434 95.612 C 182.245 96.240,182.580 96.251,183.001 95.629 C 183.513 94.875,188.094 89.962,188.286 89.962 C 188.445 89.962,188.354 95.783,188.165 97.696 C 188.039 98.964,188.543 98.318,190.569 94.612 C 192.674 90.760,193.031 90.647,193.076 93.812 C 193.083 94.301,193.181 94.795,193.293 94.909 C 193.406 95.024,193.545 96.056,193.602 97.202 C 193.660 98.349,193.807 99.978,193.929 100.823 C 194.052 101.668,194.312 104.037,194.507 106.089 C 194.702 108.140,194.950 110.165,195.057 110.587 C 195.165 111.009,195.415 113.083,195.613 115.195 C 195.811 117.307,196.061 119.232,196.168 119.473 C 196.276 119.715,196.402 120.208,196.449 120.570 C 196.495 120.933,196.556 120.587,196.584 119.803 C 196.613 119.018,196.677 118.179,196.727 117.937 C 196.777 117.696,197.097 114.981,197.438 111.903 C 197.779 108.826,198.117 106.160,198.188 105.979 C 198.259 105.798,198.376 104.909,198.447 104.004 C 198.518 103.099,198.826 100.137,199.131 97.422 C 199.435 94.707,199.684 92.273,199.682 92.013 C 199.678 91.353,200.268 91.178,200.457 91.783 C 200.540 92.048,200.677 92.315,200.762 92.375 C 200.847 92.436,201.648 93.792,202.543 95.390 C 203.437 96.989,204.248 98.297,204.345 98.298 C 204.544 98.300,204.402 92.531,204.170 91.139 C 203.907 89.569,204.950 90.060,206.692 92.326 C 207.327 93.153,210.218 96.164,210.295 96.080 C 210.339 96.034,209.957 94.465,209.446 92.595 C 208.118 87.724,208.169 87.987,208.551 87.987 C 208.734 87.987,209.106 88.175,209.378 88.406 C 210.862 89.661,214.837 92.814,214.935 92.814 C 214.998 92.814,215.297 93.061,215.599 93.363 C 215.900 93.664,216.217 93.911,216.302 93.911 C 216.387 93.911,216.867 94.281,217.368 94.734 C 217.870 95.187,218.429 95.656,218.610 95.776 C 219.046 96.067,222.720 98.992,227.497 102.852 C 229.625 104.572,231.499 105.979,231.662 105.979 C 231.906 105.979,231.907 105.927,231.667 105.674 C 231.507 105.507,231.179 105.096,230.938 104.761 C 230.697 104.426,229.314 102.693,227.866 100.909 C 226.418 99.126,224.098 96.221,222.710 94.455 C 221.322 92.688,220.038 91.067,219.857 90.851 C 219.676 90.635,219.281 90.130,218.980 89.728 C 218.678 89.325,218.282 88.842,218.099 88.653 C 217.916 88.464,217.525 87.966,217.229 87.545 C 216.933 87.124,215.972 85.907,215.093 84.839 C 214.214 83.772,213.543 82.819,213.603 82.723 C 213.711 82.547,215.195 82.817,216.018 83.162 C 216.259 83.263,216.703 83.392,217.005 83.449 C 217.307 83.505,218.472 83.791,219.595 84.084 C 221.877 84.679,222.227 84.577,221.022 83.668 C 220.268 83.099,219.265 82.195,216.602 79.685 C 215.269 78.428,215.530 78.299,218.885 78.558 C 224.682 79.007,224.825 78.900,221.161 76.856 C 216.697 74.366,216.269 73.944,218.208 73.944 C 218.735 73.944,219.642 73.848,220.225 73.730 C 220.807 73.613,222.962 73.355,225.014 73.157 C 228.732 72.798,229.926 72.662,233.461 72.195 C 234.487 72.059,237.499 71.710,240.154 71.419 C 245.113 70.874,247.411 70.519,246.407 70.451 C 245.697 70.404,236.450 69.379,234.449 69.126 C 233.604 69.019,230.938 68.715,228.524 68.451 C 218.857 67.393,217.414 67.200,217.140 66.926 C 217.008 66.794,217.087 66.660,217.352 66.562 C 217.584 66.476,218.150 66.171,218.610 65.885 C 219.070 65.598,219.762 65.183,220.146 64.962 C 220.530 64.741,221.635 64.105,222.600 63.549 L 224.355 62.538 221.189 62.536 C 219.304 62.535,217.734 62.639,217.308 62.793 C 214.672 63.746,215.923 61.875,220.556 57.934 C 221.241 57.350,221.755 56.825,221.696 56.766 C 221.604 56.674,219.029 57.301,214.866 58.428 C 213.315 58.848,213.344 58.585,215.085 56.417 C 215.839 55.479,216.675 54.422,216.943 54.069 C 217.607 53.193,218.101 52.574,220.516 49.594 C 221.662 48.179,222.847 46.689,223.149 46.282 C 223.625 45.640,224.869 44.069,230.280 37.275 C 232.309 34.727,232.108 34.679,229.245 37.027 C 228.105 37.962,226.900 38.925,226.569 39.166 C 226.237 39.408,224.361 40.889,222.399 42.457 C 220.437 44.026,218.506 45.557,218.107 45.858 C 217.707 46.160,215.978 47.543,214.264 48.930 C 212.550 50.318,210.873 51.651,210.538 51.892 C 210.203 52.134,209.655 52.553,209.321 52.825 C 208.036 53.869,208.037 53.875,209.090 50.009 C 209.565 48.269,210.024 46.453,210.112 45.973 L 210.271 45.100 208.528 46.960 C 207.569 47.983,206.258 49.386,205.614 50.078 C 204.301 51.487,203.945 51.509,204.170 50.166 C 204.405 48.759,204.542 43.006,204.341 43.006 C 204.242 43.006,203.840 43.574,203.449 44.268 C 202.589 45.790,201.726 47.272,201.178 48.162 C 200.956 48.524,200.673 49.051,200.550 49.332 C 200.293 49.921,199.784 49.861,199.773 49.240 C 199.769 49.009,199.696 48.524,199.610 48.162 C 199.459 47.525,198.655 39.974,198.431 37.082 C 198.370 36.297,198.262 35.507,198.191 35.326 C 198.048 34.963,196.886 24.960,196.623 21.832 C 196.531 20.746,196.439 20.261,196.418 20.753 " stroke="none" fill="#f7972a" fill-rule="evenodd"></path><path id="path1" d="M1.975 69.446 L 1.975 138.673 200.878 138.673 L 399.781 138.673 399.781 69.446 L 399.781 0.219 200.878 0.219 L 1.975 0.219 1.975 69.446 M196.818 20.244 C 196.818 21.530,197.305 25.779,197.503 26.221 C 197.612 26.462,197.694 27.104,197.686 27.647 C 197.678 28.190,197.722 29.029,197.785 29.512 C 197.847 29.995,198.124 32.414,198.400 34.888 C 198.677 37.361,198.958 39.484,199.026 39.605 C 199.093 39.726,199.169 40.705,199.194 41.781 C 199.219 42.857,199.330 43.847,199.440 43.979 C 199.550 44.112,199.691 45.108,199.753 46.192 C 199.850 47.880,200.254 50.054,200.310 49.189 C 200.321 49.030,200.603 48.487,200.939 47.982 C 201.274 47.478,201.719 46.720,201.928 46.297 C 202.136 45.875,202.552 45.134,202.852 44.652 C 203.151 44.169,203.556 43.453,203.753 43.061 C 204.182 42.202,204.937 42.074,204.937 42.860 C 204.937 43.141,204.877 43.432,204.803 43.506 C 204.729 43.580,204.685 44.877,204.704 46.389 C 204.725 48.027,204.643 49.319,204.500 49.585 C 204.361 49.845,204.338 50.172,204.445 50.363 C 204.587 50.618,205.251 50.018,207.361 47.728 C 209.994 44.871,211.136 44.040,210.759 45.255 C 210.675 45.527,210.558 45.996,210.498 46.297 C 210.438 46.599,210.307 47.043,210.207 47.285 C 210.106 47.526,209.901 48.217,209.750 48.821 C 209.600 49.424,209.411 50.016,209.330 50.137 C 209.249 50.258,209.163 50.701,209.137 51.121 C 209.112 51.541,208.996 51.981,208.879 52.097 C 208.384 52.592,208.667 52.957,209.175 52.479 C 209.454 52.217,209.746 52.002,209.823 52.002 C 209.900 52.002,210.209 51.780,210.510 51.509 C 211.900 50.252,212.171 50.027,212.303 50.027 C 212.381 50.027,213.221 49.386,214.169 48.601 C 215.117 47.817,215.946 47.175,216.011 47.175 C 216.076 47.175,216.598 46.731,217.170 46.189 C 217.743 45.646,218.289 45.202,218.384 45.201 C 218.479 45.201,218.775 44.998,219.042 44.750 C 219.867 43.986,225.349 39.620,225.810 39.359 C 226.049 39.224,226.699 38.706,227.253 38.207 C 227.808 37.709,228.300 37.301,228.346 37.301 C 228.392 37.301,229.206 36.659,230.154 35.875 C 233.336 33.242,233.363 34.163,230.211 37.843 C 230.008 38.081,229.742 38.437,229.622 38.634 C 229.501 38.831,229.038 39.426,228.592 39.957 C 227.297 41.499,224.842 44.575,224.143 45.529 C 223.790 46.012,223.322 46.567,223.105 46.762 C 222.888 46.957,222.710 47.185,222.710 47.268 C 222.710 47.352,221.599 48.783,220.241 50.450 C 218.884 52.117,217.575 53.760,217.334 54.102 C 216.948 54.650,215.775 56.089,215.468 56.391 C 215.123 56.731,214.151 58.146,214.263 58.146 C 214.717 58.146,217.590 57.406,217.762 57.245 C 217.877 57.137,218.298 57.049,218.697 57.049 C 219.097 57.049,219.596 56.962,219.806 56.856 C 220.318 56.598,221.691 56.171,222.012 56.171 C 222.525 56.171,222.256 57.026,221.586 57.526 C 221.210 57.807,220.304 58.602,219.573 59.293 C 218.842 59.985,217.772 60.923,217.194 61.378 C 216.617 61.833,216.141 62.263,216.136 62.334 C 216.122 62.539,222.971 62.306,223.683 62.077 C 224.959 61.668,225.030 62.635,223.772 63.279 C 223.369 63.486,222.644 63.889,222.161 64.176 C 221.679 64.462,220.889 64.897,220.406 65.142 C 219.923 65.387,219.103 65.874,218.583 66.225 L 217.637 66.862 218.473 66.996 C 218.933 67.069,220.049 67.190,220.954 67.264 C 221.860 67.338,222.748 67.455,222.929 67.525 C 223.110 67.595,224.098 67.684,225.123 67.725 C 226.149 67.765,227.235 67.890,227.537 68.004 C 228.278 68.282,233.175 68.745,233.467 68.565 C 233.595 68.486,233.819 68.517,233.965 68.635 C 234.110 68.753,235.661 68.974,237.411 69.127 C 239.161 69.279,240.703 69.489,240.838 69.592 C 240.973 69.696,241.938 69.793,242.982 69.807 C 244.026 69.821,244.934 69.919,244.999 70.023 C 245.063 70.128,245.661 70.214,246.326 70.214 C 247.360 70.214,247.526 70.270,247.463 70.598 C 247.400 70.925,246.903 71.031,244.101 71.311 C 242.292 71.492,240.713 71.699,240.592 71.771 C 240.472 71.843,239.500 71.917,238.433 71.935 C 237.367 71.953,236.379 72.042,236.239 72.133 C 235.963 72.313,230.325 72.981,227.319 73.191 C 226.293 73.263,225.339 73.417,225.198 73.534 C 225.057 73.651,224.514 73.741,223.990 73.734 C 223.298 73.725,218.902 74.186,217.925 74.370 C 217.724 74.408,218.195 74.838,218.765 75.137 C 222.408 77.048,224.575 78.445,224.575 78.884 C 224.575 79.204,224.458 79.296,224.136 79.230 C 223.895 79.180,222.364 79.104,220.735 79.061 C 219.106 79.018,217.564 78.876,217.308 78.746 C 216.195 78.178,215.976 78.643,216.930 79.550 C 218.452 80.997,220.802 83.116,221.558 83.723 C 222.360 84.367,222.516 85.134,221.845 85.134 C 221.611 85.134,221.358 85.036,221.284 84.915 C 221.209 84.794,220.874 84.696,220.539 84.696 C 220.204 84.696,219.864 84.629,219.782 84.547 C 219.604 84.369,215.088 83.188,214.521 83.171 C 214.161 83.161,214.172 83.222,214.630 83.788 C 216.503 86.099,218.735 88.902,219.199 89.526 C 219.501 89.932,220.637 91.356,221.725 92.691 C 222.812 94.026,224.046 95.562,224.466 96.105 C 224.886 96.648,225.305 97.126,225.396 97.166 C 225.487 97.206,225.562 97.333,225.562 97.447 C 225.562 97.561,226.945 99.327,228.634 101.371 C 230.324 103.415,231.706 105.168,231.706 105.266 C 231.706 105.363,231.903 105.586,232.145 105.760 C 232.710 106.167,232.736 106.914,232.182 106.817 C 231.960 106.779,231.343 106.382,230.810 105.936 C 229.780 105.073,224.655 100.954,223.917 100.395 C 223.675 100.212,223.182 99.841,222.820 99.570 C 222.457 99.299,221.056 98.162,219.705 97.043 C 218.355 95.924,217.181 95.008,217.098 95.008 C 217.015 95.008,216.787 94.828,216.592 94.607 C 216.397 94.386,216.072 94.114,215.870 94.003 C 215.668 93.892,215.076 93.438,214.554 92.995 C 214.031 92.551,212.715 91.485,211.629 90.625 C 210.543 89.766,209.472 88.912,209.250 88.729 C 208.729 88.299,208.523 88.507,208.843 89.139 C 208.980 89.410,209.129 89.929,209.173 90.291 C 209.218 90.653,209.369 91.226,209.509 91.565 C 209.649 91.904,209.826 92.573,209.902 93.051 C 209.979 93.530,210.127 93.974,210.232 94.039 C 210.337 94.103,210.422 94.490,210.422 94.899 C 210.422 95.307,210.521 95.702,210.642 95.776 C 210.964 95.976,210.909 96.320,210.531 96.465 C 210.232 96.580,206.303 92.739,206.060 92.094 C 205.921 91.725,204.796 90.620,204.559 90.620 C 204.328 90.620,204.325 91.159,204.555 91.717 C 204.790 92.291,204.864 98.958,204.635 98.958 C 204.260 98.958,203.620 98.244,203.620 97.827 C 203.620 97.604,203.533 97.422,203.426 97.422 C 203.319 97.422,203.073 97.101,202.878 96.709 C 202.684 96.317,202.175 95.403,201.748 94.679 C 201.320 93.955,200.914 93.190,200.844 92.979 C 200.774 92.767,200.630 92.595,200.523 92.595 C 200.416 92.595,200.321 92.422,200.312 92.211 C 200.298 91.912,200.270 91.900,200.185 92.156 C 200.124 92.337,200.020 92.633,199.953 92.814 C 199.886 92.995,199.792 94.025,199.745 95.103 C 199.697 96.181,199.565 97.175,199.451 97.312 C 199.337 97.449,199.190 98.444,199.123 99.521 C 199.013 101.308,198.250 108.352,198.138 108.612 C 198.112 108.673,198.056 109.166,198.013 109.709 C 197.971 110.252,197.876 111.141,197.803 111.684 C 197.731 112.227,197.678 113.154,197.685 113.744 C 197.693 114.335,197.612 114.927,197.505 115.061 C 197.399 115.195,197.181 116.765,197.022 118.550 C 196.747 121.620,196.707 121.793,196.281 121.732 C 195.894 121.677,195.827 121.498,195.799 120.461 C 195.781 119.797,195.706 118.760,195.632 118.157 C 195.558 117.553,195.503 116.680,195.510 116.217 C 195.516 115.753,195.427 115.259,195.311 115.119 C 195.195 114.979,195.051 114.026,194.991 113.000 C 194.931 111.975,194.830 110.987,194.766 110.806 C 194.646 110.471,194.558 109.571,194.303 106.105 C 194.224 105.028,194.064 103.967,193.946 103.748 C 193.829 103.528,193.733 103.027,193.734 102.634 C 193.736 101.278,193.611 99.725,193.475 99.397 C 193.399 99.216,193.217 97.708,193.070 96.047 C 192.687 91.720,192.525 91.639,190.779 94.899 C 190.521 95.381,190.098 96.122,189.839 96.544 C 189.581 96.967,189.167 97.682,188.921 98.135 C 188.427 99.040,187.603 99.288,187.603 98.532 C 187.603 98.298,187.702 98.045,187.822 97.970 C 187.952 97.890,188.042 96.542,188.042 94.666 C 188.042 92.923,188.119 91.498,188.214 91.498 C 188.309 91.498,188.386 91.300,188.386 91.059 C 188.386 90.817,188.283 90.620,188.156 90.620 C 187.894 90.620,184.006 94.746,183.245 95.831 C 182.958 96.241,182.555 96.544,182.296 96.544 C 181.797 96.544,181.799 96.521,182.449 94.240 C 182.655 93.516,182.860 92.726,182.903 92.485 C 182.947 92.244,183.183 91.357,183.428 90.515 C 184.079 88.274,184.035 88.252,182.125 89.832 C 181.164 90.627,180.317 91.278,180.244 91.278 C 180.171 91.278,179.986 91.402,179.833 91.552 C 179.679 91.703,179.228 92.074,178.829 92.375 C 178.430 92.677,176.391 94.306,174.298 95.996 C 169.928 99.523,167.303 101.604,166.827 101.920 C 166.645 102.041,166.036 102.558,165.475 103.070 C 164.914 103.581,164.353 104.001,164.228 104.002 C 164.104 104.003,163.860 104.202,163.686 104.443 C 163.512 104.685,163.289 104.882,163.191 104.882 C 163.093 104.882,162.794 105.080,162.526 105.323 C 161.020 106.689,159.956 107.243,159.956 106.662 C 159.956 106.502,162.879 102.777,164.583 100.766 C 164.814 100.494,165.003 100.224,165.003 100.167 C 165.003 100.109,165.246 99.789,165.543 99.455 C 166.127 98.798,167.634 96.917,169.720 94.239 C 170.444 93.309,172.098 91.232,173.396 89.622 C 174.693 88.013,175.754 86.636,175.754 86.563 C 175.754 86.491,175.976 86.190,176.248 85.895 C 177.510 84.524,177.729 84.263,177.729 84.126 C 177.729 84.045,177.942 83.795,178.201 83.569 C 178.643 83.186,178.647 83.160,178.256 83.165 C 177.706 83.172,173.159 84.365,172.973 84.551 C 172.894 84.631,172.505 84.696,172.110 84.696 C 171.715 84.696,171.331 84.794,171.256 84.915 C 171.182 85.036,170.978 85.134,170.804 85.134 C 169.979 85.134,170.728 84.147,173.451 81.647 C 175.080 80.151,176.413 78.843,176.413 78.740 C 176.413 78.478,175.590 78.504,175.425 78.771 C 175.345 78.901,174.011 78.991,172.165 78.991 C 170.017 78.991,168.957 79.073,168.775 79.256 C 168.568 79.462,168.429 79.439,168.138 79.148 C 167.734 78.744,167.974 78.415,169.062 77.884 C 169.303 77.766,169.896 77.425,170.378 77.126 C 170.861 76.827,171.602 76.410,172.024 76.200 C 172.850 75.790,175.044 74.386,174.872 74.378 C 174.814 74.376,173.582 74.222,172.134 74.036 C 170.686 73.850,169.121 73.709,168.658 73.722 C 168.194 73.734,167.699 73.648,167.557 73.531 C 167.415 73.413,166.412 73.256,165.328 73.183 C 161.751 72.941,156.557 72.339,156.432 72.151 C 156.364 72.050,155.379 71.954,154.242 71.939 C 153.105 71.923,152.025 71.834,151.842 71.741 C 151.496 71.567,147.194 71.092,145.958 71.092 C 145.413 71.092,145.255 70.998,145.255 70.673 C 145.255 70.214,145.819 70.114,149.743 69.875 C 150.823 69.809,151.812 69.668,151.940 69.562 C 152.068 69.455,153.060 69.319,154.145 69.259 C 155.229 69.200,156.264 69.100,156.445 69.038 C 156.799 68.917,158.470 68.685,159.188 68.658 C 160.989 68.588,164.754 68.174,165.112 68.005 C 165.354 67.891,166.391 67.762,167.416 67.719 C 168.442 67.675,169.430 67.585,169.611 67.518 C 169.792 67.451,170.730 67.336,171.695 67.262 C 174.099 67.078,174.951 66.909,174.709 66.667 C 174.497 66.455,174.388 66.391,171.103 64.544 C 168.388 63.017,167.628 62.405,168.075 62.103 C 168.256 61.981,168.552 61.949,168.733 62.031 C 169.040 62.172,176.216 62.524,176.376 62.406 C 176.514 62.303,175.242 60.998,175.005 60.999 C 174.874 61.000,174.125 60.368,173.341 59.595 C 172.556 58.822,171.529 57.830,171.059 57.389 C 169.714 56.130,170.912 55.790,172.954 56.851 C 173.163 56.960,173.662 57.049,174.062 57.049 C 174.462 57.049,174.883 57.136,174.997 57.243 C 175.202 57.435,177.839 58.146,178.344 58.146 C 178.522 58.146,178.506 58.026,178.291 57.762 C 178.120 57.551,177.282 56.521,176.429 55.474 C 175.575 54.427,174.877 53.464,174.877 53.335 C 174.877 53.205,174.789 53.099,174.683 53.099 C 174.576 53.099,174.157 52.648,173.750 52.097 C 173.344 51.545,172.789 50.859,172.518 50.571 C 172.246 50.283,172.024 49.981,172.024 49.899 C 172.024 49.818,171.703 49.387,171.311 48.942 C 170.445 47.958,168.009 44.916,166.539 42.982 C 166.237 42.585,165.071 41.120,163.949 39.726 C 162.826 38.332,161.749 36.994,161.555 36.753 C 161.361 36.511,160.920 35.987,160.574 35.588 C 160.229 35.188,160.004 34.768,160.074 34.655 C 160.292 34.302,160.942 34.428,161.273 34.888 C 161.447 35.129,161.691 35.327,161.815 35.329 C 161.939 35.330,162.521 35.774,163.109 36.316 C 163.696 36.858,164.221 37.301,164.276 37.301 C 164.330 37.301,165.413 38.165,166.683 39.221 C 167.953 40.277,169.152 41.240,169.349 41.360 C 169.784 41.628,175.453 46.120,176.130 46.734 C 176.398 46.977,176.667 47.175,176.730 47.175 C 176.793 47.175,177.117 47.419,177.451 47.717 C 177.785 48.015,179.194 49.152,180.581 50.243 C 181.969 51.335,183.278 52.373,183.489 52.552 C 183.765 52.785,183.871 52.799,183.865 52.603 C 183.853 52.183,183.292 49.990,183.019 49.300 C 182.885 48.960,182.776 48.441,182.776 48.145 C 182.776 47.850,182.689 47.436,182.583 47.227 C 182.324 46.715,181.898 45.341,181.898 45.020 C 181.898 44.494,182.762 44.784,183.250 45.474 C 183.527 45.867,184.398 46.846,185.185 47.650 C 185.972 48.455,186.910 49.467,187.271 49.899 C 187.632 50.332,187.981 50.686,188.047 50.686 C 188.251 50.686,188.011 43.569,187.800 43.346 C 187.400 42.924,187.578 42.314,188.080 42.387 C 188.537 42.455,188.846 42.851,189.759 44.542 C 191.436 47.648,192.288 48.941,192.512 48.717 C 192.760 48.468,193.436 43.028,193.641 39.620 C 193.706 38.542,193.846 37.555,193.953 37.426 C 194.060 37.297,194.213 36.303,194.295 35.217 C 194.552 31.774,194.645 30.837,194.766 30.499 C 194.830 30.318,194.931 29.334,194.991 28.312 C 195.050 27.290,195.193 26.278,195.307 26.064 C 195.422 25.850,195.511 25.353,195.506 24.960 C 195.500 24.567,195.557 23.752,195.632 23.149 C 195.707 22.545,195.784 21.529,195.802 20.890 C 195.849 19.283,196.818 18.667,196.818 20.244 M1.975 181.569 L 1.975 219.199 200.878 219.199 L 399.781 219.199 399.781 181.569 L 399.781 143.939 200.878 143.939 L 1.975 143.939 1.975 181.569 " stroke="none" fill="#043404" fill-rule="evenodd"></path><path id="path2" d="M0.219 141.306 L 0.219 144.001 1.568 143.860 C 2.310 143.783,92.211 143.719,201.349 143.719 L 399.781 143.719 399.781 141.306 L 399.781 138.892 201.349 138.892 C 92.211 138.892,2.310 138.829,1.568 138.751 L 0.219 138.610 0.219 141.306 " stroke="none" fill="#fbfbfb" fill-rule="evenodd"></path><path id="path3" d="M196.053 19.609 C 195.837 19.767,195.716 20.035,195.784 20.206 C 195.870 20.424,195.911 20.394,195.923 20.106 C 195.936 19.808,196.060 19.728,196.380 19.811 C 196.621 19.874,196.818 19.842,196.818 19.740 C 196.818 19.388,196.443 19.324,196.053 19.609 M196.626 20.516 C 196.568 21.425,197.080 25.798,197.289 26.188 C 197.409 26.411,197.450 26.954,197.380 27.394 C 197.310 27.835,197.331 28.315,197.428 28.462 C 197.528 28.615,197.624 28.225,197.652 27.544 C 197.679 26.892,197.602 26.298,197.479 26.222 C 197.357 26.147,197.249 25.622,197.238 25.056 C 197.217 23.897,196.670 19.835,196.626 20.516 M195.820 21.762 C 195.611 22.699,195.572 23.917,195.750 23.917 C 195.883 23.917,196.159 21.247,196.041 21.103 C 196.009 21.065,195.909 21.361,195.820 21.762 M195.196 26.238 C 195.006 26.734,195.031 28.630,195.225 28.435 C 195.353 28.307,195.482 25.891,195.361 25.891 C 195.344 25.891,195.270 26.048,195.196 26.238 M194.895 29.402 C 194.895 29.824,194.940 29.997,194.995 29.786 C 195.050 29.575,195.050 29.229,194.995 29.018 C 194.940 28.807,194.895 28.980,194.895 29.402 M198.024 32.760 C 198.058 33.944,198.146 34.972,198.220 35.046 C 198.294 35.120,198.354 35.701,198.354 36.337 C 198.354 36.974,198.441 37.548,198.546 37.613 C 198.652 37.679,198.693 37.314,198.637 36.803 C 198.582 36.293,198.407 34.690,198.249 33.242 L 197.962 30.609 198.024 32.760 M194.554 32.200 C 194.299 34.514,194.247 35.599,194.406 35.306 C 194.598 34.949,194.937 31.157,194.776 31.157 C 194.717 31.157,194.617 31.626,194.554 32.200 M160.079 34.647 C 160.011 34.757,160.302 35.260,160.724 35.765 C 161.146 36.271,161.492 36.598,161.492 36.493 C 161.492 36.388,161.181 35.961,160.800 35.545 L 160.109 34.787 160.636 34.640 C 161.137 34.500,161.139 34.491,160.682 34.471 C 160.418 34.459,160.146 34.538,160.079 34.647 M232.382 34.651 C 232.372 34.822,232.195 35.168,231.988 35.419 C 231.634 35.849,231.642 35.848,232.124 35.404 C 232.405 35.145,232.582 34.800,232.517 34.636 C 232.421 34.395,232.396 34.398,232.382 34.651 M162.176 35.827 C 163.413 36.876,163.731 37.110,163.811 37.030 C 163.921 36.920,162.010 35.324,161.779 35.333 C 161.682 35.337,161.860 35.559,162.176 35.827 M229.622 36.310 C 229.018 36.846,228.461 37.288,228.383 37.293 C 228.305 37.297,227.910 37.615,227.505 37.999 C 226.407 39.040,227.203 38.509,229.128 36.915 C 230.606 35.692,231.000 35.312,230.773 35.331 C 230.743 35.333,230.225 35.774,229.622 36.310 M194.218 36.465 C 194.200 36.911,194.087 37.336,193.966 37.411 C 193.845 37.485,193.747 37.991,193.747 38.534 C 193.747 39.114,193.834 39.467,193.959 39.390 C 194.076 39.318,194.111 38.961,194.038 38.596 C 193.965 38.229,194.025 37.710,194.173 37.433 C 194.320 37.158,194.398 36.646,194.346 36.295 C 194.262 35.728,194.247 35.747,194.218 36.465 M231.119 36.478 C 230.874 36.750,230.596 37.120,230.500 37.301 C 230.314 37.650,230.365 37.603,231.254 36.588 C 231.545 36.256,231.733 35.985,231.673 35.985 C 231.612 35.985,231.363 36.207,231.119 36.478 M164.143 37.376 C 164.194 37.417,165.360 38.368,166.735 39.491 C 168.110 40.613,169.170 41.425,169.090 41.295 C 168.886 40.967,164.411 37.301,164.213 37.301 C 164.125 37.301,164.093 37.335,164.143 37.376 M164.176 40.025 C 165.294 41.403,166.243 42.496,166.285 42.455 C 166.369 42.371,162.392 37.521,162.239 37.521 C 162.186 37.521,163.057 38.648,164.176 40.025 M229.556 38.397 C 229.351 38.758,229.112 39.054,229.026 39.055 C 228.940 39.056,228.760 39.279,228.628 39.550 C 228.407 40.001,228.644 39.765,230.059 38.124 C 230.241 37.913,230.286 37.740,230.160 37.740 C 230.034 37.740,229.762 38.036,229.556 38.397 M198.734 39.934 C 198.797 40.839,198.912 41.650,198.988 41.736 C 199.168 41.938,199.141 39.928,198.958 39.495 C 198.882 39.314,198.774 38.969,198.719 38.727 C 198.663 38.486,198.670 39.029,198.734 39.934 M226.097 39.133 C 225.348 39.551,223.342 41.298,223.467 41.423 C 223.531 41.487,223.825 41.301,224.121 41.011 C 225.146 40.005,225.767 39.495,225.966 39.495 C 226.077 39.495,226.290 39.347,226.440 39.166 C 226.753 38.789,226.719 38.785,226.097 39.133 M193.631 41.406 C 193.405 41.931,192.713 48.491,192.883 48.491 C 192.957 48.491,193.144 47.035,193.300 45.255 C 193.456 43.475,193.677 41.837,193.792 41.616 C 193.907 41.394,193.956 41.168,193.901 41.113 C 193.846 41.058,193.725 41.189,193.631 41.406 M225.951 42.951 C 224.181 45.094,223.368 46.180,223.368 46.404 C 223.368 46.501,223.876 45.899,224.497 45.067 C 225.118 44.235,226.068 43.036,226.608 42.403 C 227.148 41.769,227.537 41.251,227.473 41.251 C 227.408 41.251,226.723 42.016,225.951 42.951 M169.611 41.561 C 169.611 41.793,170.271 42.418,170.390 42.299 C 170.446 42.244,170.293 42.020,170.051 41.800 C 169.809 41.581,169.611 41.474,169.611 41.561 M221.309 42.901 C 220.358 43.683,219.643 44.323,219.722 44.323 C 219.878 44.323,223.149 41.675,223.149 41.548 C 223.149 41.400,223.033 41.485,221.309 42.901 M170.949 42.741 C 171.116 43.007,171.319 43.225,171.402 43.225 C 171.484 43.225,171.855 43.481,172.227 43.794 C 172.598 44.106,172.902 44.313,172.902 44.253 C 172.902 44.193,172.394 43.719,171.774 43.200 C 171.082 42.621,170.763 42.443,170.949 42.741 M187.603 42.774 C 187.603 43.008,187.702 43.261,187.822 43.335 C 187.943 43.410,188.062 44.428,188.087 45.597 L 188.133 47.724 188.205 45.672 C 188.252 44.345,188.189 43.513,188.026 43.316 C 187.887 43.149,187.830 42.862,187.901 42.680 C 187.971 42.497,187.932 42.348,187.815 42.348 C 187.698 42.348,187.603 42.539,187.603 42.774 M203.667 43.235 C 203.407 43.722,203.280 44.068,203.385 44.003 C 203.681 43.821,204.505 42.348,204.312 42.348 C 204.218 42.348,203.928 42.747,203.667 43.235 M199.014 43.487 C 199.013 43.691,199.123 43.926,199.258 44.009 C 199.415 44.106,199.454 44.519,199.367 45.152 C 199.293 45.696,199.321 46.251,199.430 46.384 C 199.539 46.517,199.675 46.873,199.730 47.175 C 199.786 47.477,199.780 46.938,199.716 45.979 C 199.616 44.481,199.018 42.359,199.014 43.487 M188.927 43.609 C 188.923 43.760,189.003 43.884,189.105 43.884 C 189.207 43.884,189.398 44.106,189.529 44.377 C 189.660 44.649,189.774 44.759,189.782 44.621 C 189.790 44.484,189.603 44.138,189.366 43.853 C 189.128 43.568,188.931 43.459,188.927 43.609 M167.636 44.432 C 168.126 44.954,168.294 45.075,168.294 44.905 C 168.294 44.736,167.462 43.884,167.298 43.884 C 167.200 43.884,167.352 44.131,167.636 44.432 M204.546 46.559 C 204.519 48.124,204.402 49.403,204.279 49.479 C 203.939 49.689,204.009 50.905,204.361 50.905 C 204.718 50.905,206.253 49.545,206.253 49.228 C 206.253 49.108,206.920 48.348,207.735 47.541 C 208.549 46.734,209.456 45.754,209.749 45.363 C 210.254 44.688,207.302 47.741,205.488 49.767 C 204.605 50.754,203.937 50.637,204.496 49.593 C 204.638 49.326,204.704 48.096,204.662 46.464 L 204.593 43.774 204.546 46.559 M202.700 44.843 C 202.542 45.130,202.234 45.682,202.013 46.071 C 201.793 46.459,201.668 46.831,201.734 46.898 C 201.800 46.964,201.922 46.831,202.005 46.603 C 202.088 46.375,202.321 45.941,202.523 45.639 C 202.919 45.048,203.224 44.323,203.077 44.323 C 203.027 44.323,202.857 44.557,202.700 44.843 M210.470 45.554 C 210.326 46.023,210.049 46.921,209.855 47.548 C 209.660 48.176,209.550 48.818,209.609 48.975 C 209.669 49.131,209.790 48.838,209.879 48.322 C 209.968 47.807,210.127 47.332,210.232 47.267 C 210.337 47.202,210.422 46.902,210.422 46.599 C 210.422 46.297,210.528 45.853,210.656 45.612 C 210.785 45.372,210.854 45.069,210.811 44.939 C 210.767 44.809,210.614 45.086,210.470 45.554 M190.182 45.639 C 192.126 49.168,192.649 49.887,192.649 49.027 C 192.649 48.839,192.558 48.741,192.447 48.810 C 192.335 48.879,191.847 48.218,191.362 47.342 C 190.877 46.466,190.318 45.551,190.120 45.310 C 189.866 45.001,189.884 45.098,190.182 45.639 M168.694 45.804 C 168.931 46.135,169.352 46.604,169.631 46.846 C 169.909 47.087,169.760 46.816,169.299 46.242 C 168.389 45.112,167.999 44.829,168.694 45.804 M174.218 45.267 C 174.218 45.421,177.894 48.491,178.078 48.491 C 178.163 48.491,177.923 48.195,177.544 47.833 C 177.165 47.471,176.802 47.175,176.736 47.175 C 176.670 47.175,176.398 46.977,176.130 46.734 C 175.323 46.003,174.218 45.154,174.218 45.267 M182.006 45.529 C 182.102 45.771,182.226 46.241,182.283 46.574 C 182.341 46.908,182.464 47.228,182.558 47.286 C 182.812 47.443,182.351 45.565,182.073 45.310 C 181.903 45.154,181.884 45.218,182.006 45.529 M217.495 45.865 C 217.101 46.223,216.880 46.517,217.003 46.517 C 217.127 46.517,217.538 46.221,217.917 45.858 C 218.810 45.005,218.434 45.011,217.495 45.865 M183.382 45.968 C 183.645 46.462,184.970 47.778,184.970 47.545 C 184.970 47.463,184.560 46.975,184.059 46.462 C 183.558 45.949,183.253 45.727,183.382 45.968 M214.152 48.607 C 213.247 49.379,212.359 50.022,212.178 50.036 C 211.958 50.054,211.938 50.098,212.117 50.171 C 212.357 50.268,214.179 48.969,215.359 47.860 C 215.601 47.634,215.946 47.394,216.127 47.329 C 216.420 47.223,216.420 47.209,216.127 47.206 C 215.946 47.204,215.058 47.834,214.152 48.607 M219.917 50.538 C 218.442 52.354,217.295 53.896,217.369 53.964 C 217.443 54.031,217.550 53.958,217.606 53.801 C 217.662 53.644,218.843 52.131,220.231 50.440 C 221.619 48.749,222.720 47.336,222.677 47.300 C 222.635 47.265,221.393 48.722,219.917 50.538 M170.681 48.238 C 171.049 48.702,171.525 49.221,171.740 49.390 C 171.954 49.560,171.702 49.180,171.179 48.546 C 170.087 47.224,169.676 46.970,170.681 48.238 M200.666 48.401 C 200.461 48.713,200.332 49.006,200.378 49.052 C 200.424 49.098,200.635 48.843,200.847 48.485 C 201.320 47.684,201.178 47.619,200.666 48.401 M182.790 48.313 C 182.782 48.516,182.885 48.960,183.019 49.300 C 183.292 49.990,183.853 52.183,183.865 52.603 C 183.873 52.878,183.806 52.834,182.251 51.548 C 179.813 49.533,178.372 48.491,178.592 48.903 C 178.729 49.160,178.936 49.369,179.051 49.369 C 179.167 49.369,180.307 50.217,181.585 51.253 C 184.195 53.368,184.270 53.380,183.891 51.620 C 183.424 49.453,182.818 47.630,182.790 48.313 M185.635 48.105 C 185.625 48.337,186.247 49.097,187.383 50.241 L 188.371 51.234 188.439 50.526 C 188.477 50.136,188.407 49.643,188.284 49.429 C 188.115 49.135,188.092 49.241,188.190 49.863 C 188.392 51.155,188.116 50.983,186.178 48.601 C 185.883 48.239,185.639 48.016,185.635 48.105 M199.791 48.602 C 199.877 48.963,200.031 49.352,200.134 49.464 C 200.237 49.577,200.228 49.341,200.113 48.941 C 199.845 48.008,199.585 47.734,199.791 48.602 M172.031 49.873 C 172.027 49.969,172.271 50.294,172.573 50.596 C 172.874 50.898,173.125 51.214,173.129 51.299 C 173.134 51.384,173.482 51.849,173.903 52.331 C 174.521 53.041,174.608 53.091,174.358 52.593 C 174.188 52.254,173.893 51.809,173.702 51.605 C 173.512 51.401,173.059 50.889,172.697 50.466 C 172.334 50.044,172.034 49.777,172.031 49.873 M211.374 50.716 C 211.234 50.841,210.859 51.182,210.542 51.473 C 210.224 51.764,209.887 52.002,209.792 52.002 C 209.698 52.002,209.389 52.249,209.106 52.551 C 208.822 52.852,208.683 53.099,208.795 53.099 C 208.908 53.099,209.124 52.902,209.274 52.660 C 209.425 52.419,209.668 52.222,209.813 52.222 C 209.959 52.222,210.279 52.023,210.524 51.781 C 210.770 51.538,211.218 51.146,211.519 50.910 C 211.821 50.674,211.969 50.483,211.849 50.485 C 211.728 50.487,211.515 50.591,211.374 50.716 M209.039 50.850 C 208.811 51.257,208.667 52.248,208.852 52.133 C 208.964 52.064,209.099 51.710,209.152 51.347 C 209.249 50.688,209.215 50.538,209.039 50.850 M174.877 53.304 C 174.877 53.450,175.575 54.427,176.429 55.474 C 177.282 56.521,178.120 57.551,178.291 57.762 C 178.506 58.026,178.522 58.146,178.344 58.146 C 177.839 58.146,175.202 57.435,174.997 57.243 C 174.883 57.136,174.537 57.060,174.229 57.074 C 173.784 57.095,173.760 57.120,174.109 57.199 C 174.350 57.253,174.844 57.431,175.206 57.593 C 176.036 57.966,178.577 58.468,178.750 58.295 C 178.822 58.223,178.223 57.369,177.419 56.398 C 176.615 55.426,175.715 54.273,175.417 53.835 C 175.120 53.397,174.877 53.158,174.877 53.304 M170.425 56.315 C 170.362 56.417,170.573 56.513,170.893 56.529 C 171.213 56.545,171.845 56.658,172.297 56.780 C 172.749 56.902,173.071 56.925,173.013 56.831 C 172.955 56.737,172.634 56.606,172.301 56.539 C 171.968 56.472,171.435 56.353,171.117 56.273 C 170.800 56.194,170.488 56.213,170.425 56.315 M221.174 56.391 C 220.993 56.508,220.635 56.605,220.378 56.607 C 220.121 56.608,219.776 56.774,219.610 56.974 C 219.340 57.301,219.355 57.314,219.748 57.103 C 219.989 56.974,220.680 56.717,221.284 56.533 C 221.887 56.349,222.183 56.194,221.942 56.188 C 221.700 56.182,221.355 56.274,221.174 56.391 M221.707 57.126 C 221.474 57.408,221.125 57.728,220.931 57.837 C 220.737 57.947,219.602 58.965,218.408 60.100 C 217.214 61.235,216.790 61.704,217.466 61.143 C 218.143 60.582,219.195 59.653,219.806 59.079 C 220.417 58.506,221.246 57.773,221.649 57.451 C 222.051 57.130,222.324 56.810,222.255 56.741 C 222.186 56.671,221.939 56.845,221.707 57.126 M217.797 57.229 C 217.736 57.327,217.977 57.366,218.333 57.313 C 218.689 57.261,218.980 57.180,218.980 57.134 C 218.980 56.966,217.906 57.053,217.797 57.229 M214.152 57.817 L 213.637 58.365 214.124 58.365 C 214.724 58.365,217.492 57.682,217.374 57.564 C 217.326 57.517,216.656 57.627,215.885 57.809 C 214.076 58.235,214.008 58.230,214.482 57.707 C 215.059 57.069,214.762 57.168,214.152 57.817 M172.193 58.365 C 172.452 58.607,172.733 58.804,172.817 58.804 C 172.901 58.804,172.791 58.607,172.573 58.365 C 172.354 58.124,172.073 57.926,171.949 57.926 C 171.824 57.926,171.934 58.124,172.193 58.365 M173.770 59.956 C 174.308 60.529,174.860 60.998,174.996 60.998 C 175.240 60.998,176.517 62.301,176.376 62.406 C 176.336 62.435,174.658 62.402,172.648 62.332 C 170.638 62.262,169.039 62.279,169.095 62.370 C 169.152 62.460,170.554 62.534,172.213 62.534 C 173.871 62.534,175.321 62.616,175.436 62.715 C 175.551 62.815,175.938 62.839,176.296 62.769 L 176.948 62.642 176.106 61.710 C 175.643 61.198,175.156 60.779,175.024 60.779 C 174.892 60.779,174.335 60.359,173.788 59.846 L 172.792 58.914 173.770 59.956 M224.223 62.077 C 224.413 62.197,224.471 62.424,224.374 62.677 C 224.255 62.990,224.279 63.024,224.481 62.823 C 224.791 62.516,224.599 61.875,224.198 61.879 C 223.988 61.882,223.994 61.932,224.223 62.077 M223.350 62.183 C 223.300 62.232,221.605 62.306,219.583 62.348 C 217.562 62.390,215.908 62.484,215.908 62.557 C 215.908 62.766,223.454 62.507,223.686 62.290 C 223.817 62.168,223.810 62.095,223.668 62.095 C 223.543 62.095,223.400 62.135,223.350 62.183 M168.843 63.162 C 168.963 63.282,169.704 63.740,170.488 64.179 C 171.273 64.618,171.766 64.829,171.585 64.647 C 171.404 64.465,170.664 64.008,169.940 63.630 C 169.216 63.253,168.722 63.042,168.843 63.162 M223.587 63.133 C 223.102 63.318,222.176 64.070,222.434 64.070 C 222.556 64.070,222.779 63.922,222.929 63.741 C 223.079 63.560,223.333 63.412,223.492 63.412 C 223.651 63.412,223.842 63.313,223.917 63.193 C 224.065 62.952,224.063 62.952,223.587 63.133 M221.174 64.509 C 220.872 64.745,220.709 64.940,220.810 64.943 C 220.912 64.946,221.246 64.750,221.553 64.509 C 221.860 64.268,222.023 64.072,221.917 64.075 C 221.810 64.078,221.476 64.273,221.174 64.509 M172.042 65.014 C 172.668 65.469,173.341 65.796,173.341 65.646 C 173.341 65.542,173.089 65.343,172.782 65.203 C 172.269 64.969,171.824 64.856,172.042 65.014 M173.670 66.045 C 173.744 66.166,173.915 66.264,174.049 66.264 C 174.184 66.264,174.475 66.428,174.696 66.629 C 174.918 66.829,175.153 66.939,175.219 66.873 C 175.285 66.807,175.001 66.545,174.588 66.289 C 173.772 65.785,173.457 65.701,173.670 66.045 M218.157 66.290 C 217.409 66.769,217.167 67.090,217.828 66.727 C 218.331 66.450,219.120 65.840,218.980 65.836 C 218.919 65.834,218.549 66.038,218.157 66.290 M171.876 67.231 C 170.648 67.363,169.562 67.558,169.462 67.663 C 169.361 67.771,169.474 67.801,169.720 67.732 C 169.962 67.664,171.025 67.541,172.082 67.459 C 173.140 67.376,174.059 67.222,174.125 67.116 C 174.190 67.010,174.214 66.938,174.176 66.957 C 174.139 66.976,173.104 67.099,171.876 67.231 M218.450 67.128 C 218.560 67.232,219.490 67.371,220.516 67.436 C 222.186 67.543,222.244 67.535,221.064 67.359 C 220.340 67.251,219.411 67.112,218.999 67.051 C 218.574 66.987,218.337 67.021,218.450 67.128 M166.558 67.744 C 165.904 67.789,165.164 67.980,164.912 68.169 C 164.481 68.492,164.480 68.502,164.893 68.330 C 165.134 68.230,165.770 68.165,166.306 68.186 C 166.841 68.207,167.384 68.138,167.512 68.033 C 167.641 67.928,167.992 67.797,168.294 67.742 L 168.843 67.641 168.294 67.651 C 167.992 67.657,167.211 67.699,166.558 67.744 M225.243 68.035 C 225.331 68.178,225.716 68.215,226.227 68.128 C 226.708 68.047,227.283 68.092,227.575 68.235 C 228.062 68.471,228.066 68.467,227.660 68.142 C 227.167 67.747,225.006 67.652,225.243 68.035 M162.997 68.343 C 162.940 68.400,161.961 68.504,160.822 68.574 C 158.380 68.725,156.901 68.882,156.445 69.038 C 156.264 69.100,155.229 69.200,154.145 69.259 C 153.060 69.319,152.073 69.449,151.951 69.548 C 151.828 69.647,151.530 69.776,151.289 69.836 C 150.859 69.941,150.859 69.944,151.300 69.969 C 151.547 69.983,151.844 69.902,151.958 69.790 C 152.073 69.677,153.090 69.536,154.218 69.476 C 155.346 69.416,156.325 69.311,156.394 69.242 C 156.462 69.173,156.979 69.117,157.543 69.117 C 158.106 69.117,158.627 69.057,158.700 68.983 C 158.774 68.910,159.750 68.809,160.870 68.759 C 161.990 68.709,163.002 68.572,163.121 68.454 C 163.239 68.336,163.283 68.239,163.218 68.239 C 163.154 68.239,163.054 68.286,162.997 68.343 M229.512 68.500 C 229.512 68.598,229.893 68.678,230.359 68.678 C 230.825 68.678,231.689 68.728,232.279 68.790 C 232.869 68.851,233.253 68.852,233.132 68.792 C 232.711 68.582,229.512 68.324,229.512 68.500 M233.803 68.781 C 234.038 68.958,234.632 69.106,235.125 69.110 C 235.618 69.114,236.091 69.186,236.175 69.271 C 236.323 69.419,237.479 69.504,239.641 69.526 C 240.204 69.531,240.728 69.639,240.806 69.765 C 240.884 69.891,241.164 69.987,241.428 69.977 C 241.732 69.966,241.788 69.920,241.580 69.851 C 241.399 69.792,241.053 69.659,240.812 69.556 C 240.570 69.454,238.963 69.249,237.240 69.102 C 235.517 68.955,234.054 68.750,233.990 68.647 C 233.927 68.543,233.762 68.459,233.626 68.459 C 233.489 68.459,233.569 68.604,233.803 68.781 M147.230 70.141 L 146.462 70.448 147.230 70.307 C 147.652 70.230,148.294 70.177,148.656 70.189 C 149.018 70.201,149.434 70.134,149.580 70.040 C 150.053 69.737,148.026 69.824,147.230 70.141 M243.036 70.043 C 243.095 70.138,243.577 70.200,244.108 70.180 C 244.639 70.160,245.023 70.063,244.962 69.964 C 244.901 69.866,244.419 69.804,243.890 69.827 C 243.361 69.850,242.977 69.947,243.036 70.043 M245.174 70.915 C 245.114 71.012,244.651 71.093,244.145 71.095 C 243.639 71.097,243.082 71.189,242.908 71.299 C 242.587 71.502,242.668 71.497,245.639 71.122 C 246.880 70.966,246.907 70.950,246.119 70.847 C 245.660 70.787,245.234 70.817,245.174 70.915 M146.300 71.027 C 146.573 71.080,146.968 71.078,147.178 71.023 C 147.387 70.968,147.164 70.925,146.681 70.928 C 146.199 70.930,146.027 70.975,146.300 71.027 M147.687 71.171 C 147.737 71.214,148.321 71.310,148.985 71.384 C 149.791 71.474,150.083 71.449,149.863 71.309 C 149.564 71.118,147.472 70.985,147.687 71.171 M151.070 71.473 C 151.432 71.526,151.831 71.654,151.956 71.758 C 152.082 71.862,152.705 71.935,153.342 71.920 C 154.189 71.901,154.401 71.838,154.133 71.688 C 153.930 71.575,153.386 71.542,152.924 71.616 C 152.446 71.693,152.025 71.656,151.948 71.531 C 151.873 71.410,151.497 71.326,151.112 71.344 L 150.411 71.377 151.070 71.473 M240.609 71.504 C 240.543 71.610,240.057 71.648,239.527 71.588 C 238.998 71.529,238.512 71.566,238.447 71.670 C 238.294 71.919,240.295 71.996,240.589 71.753 C 240.712 71.650,241.159 71.525,241.581 71.474 L 242.348 71.381 241.538 71.346 C 241.092 71.327,240.674 71.398,240.609 71.504 M155.897 71.910 C 156.138 71.971,156.385 72.091,156.445 72.178 C 156.561 72.344,161.971 72.956,165.328 73.183 C 166.412 73.256,167.417 73.415,167.562 73.535 C 167.708 73.656,168.154 73.714,168.554 73.665 L 169.281 73.575 168.502 73.540 C 168.074 73.521,167.630 73.412,167.515 73.298 C 167.400 73.184,166.459 73.052,165.424 73.005 C 164.388 72.957,163.450 72.865,163.339 72.799 C 163.228 72.734,162.150 72.609,160.943 72.521 C 159.737 72.434,158.653 72.304,158.536 72.232 C 158.419 72.161,157.960 72.129,157.516 72.161 C 157.072 72.193,156.644 72.113,156.565 71.984 C 156.485 71.855,156.203 71.761,155.939 71.775 C 155.493 71.799,155.490 71.809,155.897 71.910 M236.204 71.969 C 236.129 72.090,235.605 72.205,235.039 72.226 C 234.024 72.262,234.022 72.264,234.873 72.351 C 235.347 72.400,235.940 72.341,236.189 72.220 C 236.439 72.100,236.791 71.953,236.972 71.893 C 237.180 71.824,237.124 71.778,236.820 71.767 C 236.556 71.758,236.279 71.849,236.204 71.969 M230.499 72.650 C 229.775 72.747,228.296 72.887,227.211 72.962 C 226.127 73.036,225.180 73.194,225.107 73.313 C 225.033 73.432,224.538 73.532,224.006 73.536 C 221.777 73.552,220.764 73.624,220.608 73.779 C 220.517 73.870,220.126 73.944,219.739 73.944 C 217.728 73.944,217.117 74.484,218.376 75.148 C 219.587 75.786,220.373 76.231,221.200 76.743 C 221.636 77.014,222.081 77.235,222.187 77.235 C 222.440 77.233,220.260 75.896,218.710 75.101 C 218.186 74.832,217.729 74.407,217.925 74.370 C 218.902 74.186,223.298 73.725,223.990 73.734 C 224.514 73.741,225.057 73.651,225.198 73.534 C 225.339 73.417,226.293 73.263,227.319 73.191 C 229.214 73.058,232.773 72.691,233.571 72.547 C 234.450 72.388,231.779 72.478,230.499 72.650 M169.777 73.762 C 170.327 73.980,172.024 73.978,172.024 73.759 C 172.024 73.658,171.433 73.583,170.710 73.593 C 169.987 73.603,169.567 73.679,169.777 73.762 M172.463 74.065 C 172.644 74.104,173.272 74.199,173.858 74.276 L 174.925 74.417 173.784 75.168 C 173.157 75.581,172.560 75.919,172.457 75.919 C 172.354 75.919,172.209 76.016,172.135 76.136 C 171.945 76.444,172.683 76.147,173.315 75.662 C 173.603 75.441,173.928 75.261,174.038 75.261 C 174.147 75.261,174.445 75.066,174.700 74.829 L 175.163 74.398 174.567 74.171 C 174.239 74.046,173.557 73.956,173.052 73.970 C 172.547 73.984,172.282 74.027,172.463 74.065 M170.927 76.796 C 170.625 77.032,170.477 77.226,170.598 77.226 C 170.719 77.226,171.064 77.032,171.366 76.796 C 171.668 76.560,171.816 76.367,171.695 76.367 C 171.574 76.367,171.229 76.560,170.927 76.796 M169.611 77.564 C 169.460 77.745,169.213 77.894,169.062 77.894 C 168.911 77.894,168.656 78.051,168.496 78.244 C 168.291 78.490,168.463 78.452,169.072 78.114 C 170.085 77.552,170.463 77.235,170.120 77.235 C 169.990 77.235,169.761 77.383,169.611 77.564 M222.490 77.323 C 222.490 77.385,222.935 77.697,223.478 78.015 C 224.021 78.333,224.465 78.659,224.465 78.739 C 224.465 78.954,217.834 78.756,217.403 78.528 C 216.897 78.260,216.184 78.282,216.005 78.572 C 215.868 78.795,217.353 80.527,217.682 80.527 C 217.764 80.527,217.423 80.109,216.924 79.599 C 216.050 78.705,216.036 78.669,216.537 78.593 C 216.822 78.550,217.163 78.622,217.294 78.753 C 217.441 78.900,218.649 78.991,220.464 78.991 C 222.166 78.991,223.585 79.091,223.845 79.230 C 224.418 79.537,224.896 79.152,224.570 78.647 C 224.349 78.305,222.490 77.122,222.490 77.323 M175.444 78.497 C 175.354 78.587,173.881 78.716,172.171 78.783 L 169.062 78.905 172.176 78.948 C 174.063 78.974,175.343 78.904,175.425 78.771 C 175.579 78.523,176.413 78.469,176.413 78.707 C 176.413 78.793,176.047 79.237,175.600 79.695 C 175.153 80.152,174.885 80.527,175.005 80.527 C 175.469 80.527,176.861 78.602,176.498 78.463 C 176.036 78.286,175.641 78.299,175.444 78.497 M167.873 78.690 C 167.841 79.132,168.499 79.532,168.786 79.245 C 168.978 79.052,168.927 78.991,168.576 78.991 C 168.320 78.991,168.061 78.867,168.001 78.716 C 167.931 78.544,167.883 78.534,167.873 78.690 M173.121 81.953 C 172.344 82.737,171.764 83.379,171.832 83.379 C 171.988 83.379,172.519 82.881,173.770 81.560 C 175.228 80.021,174.748 80.311,173.121 81.953 M219.748 82.501 C 220.219 82.984,220.695 83.379,220.806 83.379 C 220.917 83.379,220.600 82.984,220.103 82.501 C 219.606 82.019,219.129 81.624,219.045 81.624 C 218.960 81.624,219.276 82.019,219.748 82.501 M175.819 83.463 C 174.828 83.728,173.940 84.027,173.844 84.128 C 173.748 84.229,173.867 84.253,174.109 84.183 C 176.461 83.495,178.065 83.139,178.410 83.229 C 178.639 83.289,178.826 83.248,178.826 83.139 C 178.826 82.826,177.774 82.940,175.819 83.463 M213.933 83.126 C 213.933 83.228,214.155 83.499,214.427 83.729 L 214.920 84.147 214.502 83.653 C 213.941 82.990,214.271 82.997,216.887 83.705 C 217.968 83.997,218.896 84.194,218.948 84.142 C 219.064 84.027,218.902 83.975,216.615 83.398 C 214.663 82.906,213.933 82.832,213.933 83.126 M221.558 83.832 C 222.194 84.557,222.206 84.994,221.585 84.797 C 221.271 84.697,221.168 84.728,221.269 84.891 C 221.352 85.025,221.611 85.134,221.845 85.134 C 222.471 85.134,222.377 84.427,221.668 83.801 L 221.064 83.269 221.558 83.832 M177.746 83.992 C 177.737 84.149,177.507 84.518,177.235 84.813 C 175.886 86.279,175.717 86.487,175.811 86.580 C 175.996 86.765,177.986 84.258,177.874 83.981 C 177.789 83.771,177.760 83.773,177.746 83.992 M219.646 84.376 C 219.792 84.552,220.162 84.696,220.469 84.696 C 221.163 84.696,221.014 84.526,220.088 84.260 C 219.482 84.086,219.419 84.103,219.646 84.376 M171.914 84.476 C 171.545 84.635,171.586 84.667,172.176 84.680 C 172.561 84.689,172.937 84.597,173.012 84.476 C 173.174 84.213,172.527 84.213,171.914 84.476 M215.743 85.402 C 216.317 86.078,216.786 86.696,216.786 86.776 C 216.786 86.856,216.909 87.052,217.060 87.212 C 217.211 87.371,217.553 87.784,217.820 88.128 C 218.087 88.473,219.556 90.285,221.084 92.156 C 222.612 94.026,224.083 95.904,224.353 96.328 C 224.906 97.196,225.562 97.814,225.562 97.467 C 225.562 97.342,225.487 97.206,225.396 97.166 C 225.305 97.126,224.886 96.648,224.466 96.105 C 224.046 95.562,222.812 94.026,221.725 92.691 C 220.637 91.356,219.501 89.932,219.199 89.526 C 217.882 87.756,215.212 84.479,214.968 84.333 C 214.821 84.245,215.170 84.726,215.743 85.402 M173.788 89.100 C 172.793 90.315,172.167 91.193,172.396 91.050 C 172.625 90.906,172.975 90.529,173.173 90.211 C 173.371 89.893,174.042 89.015,174.664 88.261 C 175.286 87.507,175.751 86.890,175.696 86.890 C 175.642 86.890,174.783 87.884,173.788 89.100 M208.667 88.143 C 208.667 88.241,208.930 88.518,209.252 88.758 C 209.574 88.997,210.666 89.860,211.678 90.675 C 212.690 91.489,213.625 92.156,213.756 92.156 C 213.887 92.156,213.623 91.904,213.168 91.595 C 212.714 91.287,211.515 90.344,210.505 89.500 C 209.494 88.656,208.667 88.045,208.667 88.143 M183.324 88.645 C 183.106 88.886,182.854 89.084,182.765 89.084 C 182.676 89.084,182.271 89.395,181.866 89.776 C 181.461 90.156,180.834 90.650,180.472 90.872 C 180.110 91.094,179.940 91.277,180.095 91.277 C 180.250 91.278,181.164 90.627,182.125 89.832 C 183.983 88.295,184.045 88.309,183.549 90.171 C 183.275 91.200,183.250 92.118,183.519 91.255 C 184.298 88.757,184.216 87.659,183.324 88.645 M208.591 89.084 C 208.730 89.265,208.890 89.660,208.945 89.962 L 209.046 90.510 209.076 89.934 C 209.092 89.616,208.934 89.222,208.722 89.056 C 208.388 88.794,208.371 88.798,208.591 89.084 M187.263 91.113 C 186.471 91.965,186.464 91.984,187.174 91.333 C 187.603 90.941,188.072 90.620,188.217 90.620 C 188.362 90.620,188.481 90.521,188.481 90.400 C 188.481 89.979,188.124 90.188,187.263 91.113 M204.190 90.342 C 203.977 90.555,204.041 91.460,204.279 91.607 C 204.407 91.687,204.499 92.985,204.501 94.747 C 204.503 96.399,204.577 97.865,204.666 98.005 C 204.864 98.318,204.758 92.176,204.557 91.717 C 204.312 91.156,204.365 90.735,204.697 90.603 C 204.965 90.497,204.960 90.456,204.668 90.344 C 204.477 90.271,204.263 90.270,204.190 90.342 M205.156 90.972 C 205.156 91.087,205.354 91.324,205.595 91.498 C 205.837 91.671,206.034 91.918,206.034 92.045 C 206.034 92.172,206.775 93.012,207.680 93.911 C 208.585 94.810,209.325 95.435,209.325 95.300 C 209.325 95.164,208.634 94.441,207.789 93.692 C 206.945 92.943,206.253 92.209,206.253 92.062 C 206.253 91.914,206.007 91.562,205.705 91.278 C 205.403 90.995,205.156 90.857,205.156 90.972 M209.537 92.444 C 209.727 93.191,209.960 93.925,210.055 94.076 C 210.151 94.227,210.186 94.424,210.134 94.515 C 210.081 94.605,210.118 94.877,210.215 95.118 C 210.363 95.486,210.394 95.449,210.407 94.888 C 210.415 94.519,210.339 94.125,210.238 94.010 C 210.136 93.895,209.932 93.235,209.784 92.544 C 209.636 91.852,209.442 91.241,209.354 91.186 C 209.265 91.131,209.348 91.697,209.537 92.444 M170.618 93.074 C 169.941 93.957,169.128 95.000,168.812 95.392 C 168.496 95.784,168.291 96.105,168.356 96.105 C 168.421 96.105,169.078 95.340,169.816 94.405 C 170.553 93.470,171.366 92.479,171.620 92.204 C 171.875 91.928,172.031 91.651,171.967 91.586 C 171.903 91.522,171.296 92.192,170.618 93.074 M176.346 94.139 C 174.572 95.593,173.121 96.835,173.121 96.901 C 173.121 96.967,173.936 96.350,174.931 95.530 C 178.563 92.539,178.785 92.361,179.478 91.877 C 179.777 91.668,179.920 91.498,179.796 91.498 C 179.672 91.498,178.120 92.686,176.346 94.139 M182.977 91.882 C 182.967 91.972,182.934 92.264,182.904 92.530 C 182.875 92.796,182.920 92.970,183.005 92.918 C 183.162 92.821,183.228 91.717,183.077 91.717 C 183.032 91.717,182.987 91.791,182.977 91.882 M191.738 92.869 C 190.892 94.203,190.581 94.873,190.897 94.677 C 191.016 94.604,191.114 94.455,191.114 94.347 C 191.114 94.008,192.243 92.482,192.451 92.540 C 192.560 92.570,192.649 92.397,192.649 92.156 C 192.649 91.514,192.545 91.595,191.738 92.869 M199.993 92.046 C 199.937 92.227,199.842 92.528,199.783 92.716 C 199.724 92.903,199.762 93.003,199.867 92.938 C 199.971 92.874,200.105 92.572,200.163 92.269 C 200.277 91.669,200.159 91.514,199.993 92.046 M214.701 93.138 C 215.184 93.554,215.648 93.898,215.733 93.903 C 215.818 93.907,216.145 94.168,216.460 94.483 C 216.774 94.797,217.082 95.005,217.143 94.943 C 217.204 94.882,216.889 94.550,216.442 94.207 C 215.995 93.863,215.473 93.409,215.281 93.198 C 215.089 92.987,214.806 92.814,214.652 92.814 C 214.498 92.814,214.372 92.715,214.372 92.595 C 214.372 92.474,214.248 92.377,214.098 92.378 C 213.947 92.380,214.218 92.722,214.701 93.138 M193.100 96.050 C 193.399 98.845,193.907 101.209,193.952 100.013 C 193.960 99.809,193.886 99.592,193.788 99.532 C 193.690 99.471,193.478 97.935,193.316 96.118 C 193.154 94.301,192.962 92.814,192.888 92.814 C 192.814 92.814,192.910 94.270,193.100 96.050 M184.274 94.295 C 183.719 94.868,183.152 95.560,183.013 95.831 C 182.635 96.569,182.032 96.487,182.210 95.721 C 182.314 95.274,182.293 95.203,182.127 95.447 C 182.005 95.628,181.903 95.949,181.901 96.160 C 181.896 96.802,182.707 96.601,183.234 95.831 C 183.502 95.439,184.122 94.698,184.611 94.185 C 185.100 93.673,185.451 93.253,185.391 93.253 C 185.331 93.253,184.829 93.722,184.274 94.295 M182.447 94.131 C 182.363 94.510,182.341 94.866,182.397 94.922 C 182.453 94.978,182.561 94.708,182.639 94.323 C 182.821 93.408,182.644 93.231,182.447 94.131 M188.088 95.599 C 188.062 96.829,187.943 97.896,187.822 97.970 C 187.421 98.219,187.575 98.958,188.029 98.958 C 188.263 98.958,188.510 98.868,188.578 98.759 C 188.645 98.649,188.503 98.612,188.261 98.675 C 187.783 98.800,187.651 98.339,188.050 97.940 C 188.187 97.803,188.249 96.847,188.206 95.537 L 188.134 93.363 188.088 95.599 M199.671 94.204 C 199.671 94.485,199.597 94.790,199.506 94.880 C 199.416 94.971,199.333 95.506,199.323 96.069 C 199.312 96.632,199.229 97.340,199.138 97.641 L 198.972 98.190 199.286 97.631 C 199.581 97.103,200.007 93.692,199.778 93.692 C 199.719 93.692,199.671 93.922,199.671 94.204 M190.155 95.721 L 189.760 96.434 190.213 95.886 C 190.614 95.399,190.792 95.008,190.612 95.008 C 190.578 95.008,190.372 95.329,190.155 95.721 M217.444 95.077 C 217.444 95.137,217.937 95.600,218.541 96.105 C 219.144 96.611,219.638 96.974,219.638 96.914 C 219.638 96.854,219.144 96.391,218.541 95.886 C 217.937 95.381,217.444 95.017,217.444 95.077 M202.662 96.300 C 202.993 96.912,203.301 97.375,203.347 97.329 C 203.470 97.207,202.572 95.503,202.295 95.332 C 202.166 95.252,202.331 95.688,202.662 96.300 M209.634 96.050 C 209.863 96.322,210.179 96.544,210.334 96.544 C 210.754 96.544,210.947 96.103,210.654 95.812 C 210.457 95.617,210.431 95.648,210.543 95.941 C 210.635 96.182,210.585 96.325,210.408 96.325 C 210.254 96.325,209.923 96.152,209.672 95.941 C 209.216 95.557,209.216 95.557,209.634 96.050 M167.619 96.902 C 167.112 97.453,167.110 97.466,167.577 97.181 C 167.846 97.017,168.114 96.757,168.173 96.604 C 168.330 96.194,168.213 96.257,167.619 96.902 M189.278 97.078 C 188.765 97.861,188.835 98.027,189.383 97.330 C 189.638 97.006,189.800 96.693,189.742 96.635 C 189.684 96.578,189.476 96.777,189.278 97.078 M172.276 97.335 C 172.113 97.519,172.023 97.714,172.076 97.767 C 172.130 97.820,172.352 97.665,172.571 97.423 C 172.791 97.181,172.880 96.987,172.771 96.991 C 172.662 96.996,172.439 97.151,172.276 97.335 M219.929 97.133 C 220.061 97.353,222.452 99.314,223.917 100.402 C 224.158 100.582,225.635 101.762,227.199 103.025 C 228.763 104.288,230.143 105.321,230.265 105.321 C 230.387 105.321,230.243 105.152,229.945 104.945 C 229.646 104.738,228.118 103.524,226.550 102.247 C 224.981 100.970,223.352 99.688,222.929 99.398 C 222.507 99.109,221.624 98.422,220.968 97.873 C 220.311 97.323,219.844 96.990,219.929 97.133 M203.629 97.882 C 203.619 98.274,204.286 98.958,204.680 98.958 C 204.821 98.958,204.937 98.862,204.937 98.745 C 204.937 98.628,204.796 98.587,204.624 98.653 C 204.431 98.727,204.182 98.535,203.974 98.152 C 203.772 97.779,203.634 97.671,203.629 97.882 M169.219 99.807 C 167.898 100.878,166.681 101.808,166.514 101.874 C 166.302 101.958,166.293 102.000,166.484 102.012 C 166.636 102.022,167.623 101.343,168.679 100.504 C 171.312 98.410,171.939 97.875,171.767 97.867 C 171.685 97.864,170.539 98.737,169.219 99.807 M226.440 98.958 C 226.945 99.561,227.408 100.055,227.468 100.055 C 227.529 100.055,227.165 99.561,226.659 98.958 C 226.154 98.354,225.691 97.861,225.631 97.861 C 225.571 97.861,225.935 98.354,226.440 98.958 M165.606 99.405 C 165.274 99.766,165.003 100.151,165.003 100.260 C 165.003 100.368,164.929 100.490,164.838 100.530 C 164.628 100.624,162.097 103.785,162.233 103.785 C 162.341 103.785,165.906 99.477,166.182 99.013 C 166.446 98.569,166.251 98.702,165.606 99.405 M198.914 99.671 C 198.867 99.822,198.779 100.636,198.718 101.481 C 198.626 102.748,198.646 102.883,198.827 102.249 C 199.132 101.182,199.216 98.694,198.914 99.671 M228.498 101.461 C 229.055 102.114,229.512 102.710,229.512 102.786 C 229.512 102.861,229.708 103.142,229.948 103.409 C 231.207 104.812,231.706 105.324,231.706 105.211 C 231.706 105.035,227.750 100.274,227.604 100.274 C 227.538 100.274,227.940 100.808,228.498 101.461 M193.855 102.610 C 193.899 103.196,194.035 104.120,194.157 104.663 L 194.378 105.650 194.272 104.663 C 194.214 104.120,194.138 103.256,194.103 102.743 C 194.069 102.231,193.981 101.752,193.907 101.678 C 193.834 101.605,193.810 102.024,193.855 102.610 M165.551 102.746 C 164.592 103.450,164.012 104.006,164.248 103.995 C 164.362 103.990,164.899 103.595,165.442 103.118 C 166.527 102.164,166.577 101.993,165.551 102.746 M198.482 103.808 C 198.319 104.299,198.129 106.227,198.143 107.261 C 198.150 107.785,198.032 108.377,197.881 108.577 C 197.647 108.889,197.654 108.900,197.926 108.657 C 198.133 108.473,198.327 107.549,198.480 106.024 C 198.704 103.781,198.705 103.141,198.482 103.808 M160.956 105.231 C 159.707 106.764,159.926 107.849,161.184 106.363 C 161.601 105.870,161.601 105.870,161.146 106.253 C 160.056 107.170,160.147 106.446,161.293 105.077 C 161.787 104.487,162.138 104.004,162.073 104.004 C 162.008 104.004,161.505 104.557,160.956 105.231 M162.149 105.431 C 161.867 105.733,161.686 105.979,161.749 105.979 C 161.967 105.979,162.878 105.098,162.771 104.991 C 162.712 104.932,162.432 105.130,162.149 105.431 M231.124 106.199 C 231.942 106.917,232.584 107.055,232.584 106.512 C 232.584 106.139,231.971 105.421,231.800 105.593 C 231.742 105.650,231.846 105.822,232.030 105.975 C 232.214 106.127,232.364 106.339,232.364 106.445 C 232.364 106.813,231.813 106.627,231.299 106.085 C 231.015 105.785,230.690 105.540,230.578 105.540 C 230.466 105.540,230.712 105.837,231.124 106.199 M194.355 106.917 C 194.394 107.548,194.512 108.557,194.618 109.161 C 194.766 110.009,194.782 109.809,194.691 108.283 C 194.626 107.197,194.507 106.187,194.428 106.039 C 194.349 105.891,194.316 106.286,194.355 106.917 M197.951 109.751 C 197.931 110.197,197.817 110.622,197.696 110.697 C 197.575 110.771,197.481 111.049,197.485 111.313 C 197.492 111.690,197.565 111.629,197.825 111.031 C 198.007 110.612,198.117 109.970,198.071 109.605 C 197.993 109.001,197.983 109.014,197.951 109.751 M195.000 113.001 C 195.081 114.292,195.223 114.967,195.462 115.195 C 195.771 115.489,195.779 115.486,195.541 115.167 C 195.394 114.971,195.285 114.379,195.299 113.851 C 195.313 113.323,195.225 112.496,195.104 112.013 C 194.925 111.298,194.906 111.481,195.000 113.001 M197.367 112.782 C 197.292 112.903,197.297 113.446,197.379 113.989 C 197.461 114.536,197.439 114.975,197.329 114.975 C 197.137 114.975,196.496 120.651,196.669 120.823 C 196.769 120.923,197.257 116.804,197.257 115.858 C 197.257 115.507,197.357 115.159,197.479 115.083 C 197.602 115.008,197.679 114.410,197.652 113.754 C 197.599 112.493,197.582 112.434,197.367 112.782 M195.638 118.213 C 195.673 118.795,195.794 119.514,195.908 119.811 C 196.058 120.200,196.083 119.952,196.001 118.925 C 195.868 117.272,195.543 116.635,195.638 118.213 M195.795 121.119 C 195.830 121.652,196.818 122.111,196.818 121.594 C 196.818 121.476,196.629 121.429,196.398 121.490 C 196.088 121.571,195.948 121.463,195.868 121.085 C 195.764 120.594,195.761 120.596,195.795 121.119 M101.444 138.837 C 156.213 138.868,245.769 138.868,300.457 138.837 C 355.145 138.807,310.335 138.782,200.878 138.782 C 91.421 138.782,46.676 138.807,101.444 138.837 " stroke="none" fill="#5a6f45" fill-rule="evenodd"></path><path id="path4" d="M195.989 20.823 C 196.062 22.093,196.380 22.090,196.380 20.819 C 196.380 20.211,196.458 19.989,196.633 20.098 C 196.790 20.195,196.827 20.158,196.730 20.001 C 196.314 19.328,195.927 19.757,195.989 20.823 M196.659 22.820 C 196.659 23.363,196.702 23.585,196.754 23.313 C 196.806 23.042,196.806 22.597,196.754 22.326 C 196.702 22.054,196.659 22.276,196.659 22.820 M195.568 25.014 C 195.568 25.677,195.609 25.949,195.659 25.617 C 195.709 25.285,195.709 24.742,195.659 24.410 C 195.609 24.078,195.568 24.350,195.568 25.014 M197.231 26.817 C 197.332 27.426,197.363 27.457,197.432 27.018 C 197.477 26.733,197.423 26.409,197.313 26.298 C 197.191 26.176,197.159 26.381,197.231 26.817 M195.333 26.988 C 195.333 27.411,195.379 27.584,195.434 27.372 C 195.489 27.161,195.489 26.816,195.434 26.604 C 195.379 26.393,195.333 26.566,195.333 26.988 M195.123 29.402 C 195.123 29.945,195.166 30.167,195.218 29.896 C 195.270 29.624,195.270 29.180,195.218 28.908 C 195.166 28.637,195.123 28.859,195.123 29.402 M197.693 31.552 L 197.799 32.803 197.870 31.730 C 197.910 31.140,197.862 30.577,197.764 30.479 C 197.666 30.381,197.634 30.863,197.693 31.552 M197.971 33.681 C 197.973 34.163,198.018 34.335,198.071 34.062 C 198.123 33.789,198.121 33.394,198.066 33.184 C 198.011 32.975,197.968 33.198,197.971 33.681 M230.549 35.753 C 229.621 36.500,228.790 37.228,228.702 37.371 C 228.615 37.513,229.165 37.112,229.924 36.478 C 232.040 34.714,232.213 34.923,230.405 37.062 C 229.801 37.777,229.598 38.127,229.896 37.942 C 230.167 37.773,230.389 37.571,230.389 37.493 C 230.389 37.415,230.843 36.801,231.398 36.127 C 232.861 34.349,232.495 34.188,230.549 35.753 M160.395 35.107 C 160.633 35.551,160.872 35.654,161.111 35.415 C 161.359 35.167,161.006 34.668,160.583 34.668 C 160.228 34.668,160.198 34.739,160.395 35.107 M162.116 37.191 C 162.248 37.433,162.814 38.124,163.375 38.727 L 164.395 39.824 163.343 38.508 C 162.040 36.878,161.812 36.632,162.116 37.191 M194.051 37.614 C 193.985 37.787,193.968 38.157,194.013 38.437 C 194.073 38.812,194.124 38.729,194.206 38.124 C 194.321 37.272,194.260 37.071,194.051 37.614 M227.716 38.053 C 227.393 38.338,226.998 38.618,226.839 38.674 C 226.680 38.731,226.607 38.840,226.678 38.917 C 226.748 38.994,227.192 38.715,227.665 38.298 C 228.138 37.880,228.475 37.538,228.415 37.537 C 228.354 37.535,228.040 37.768,227.716 38.053 M193.833 39.587 C 193.767 39.757,193.749 40.177,193.793 40.519 C 193.857 41.027,193.891 40.969,193.979 40.208 C 194.090 39.249,194.042 39.043,193.833 39.587 M166.758 39.564 C 166.758 39.625,167.252 40.087,167.855 40.592 C 168.459 41.098,168.952 41.462,168.952 41.401 C 168.952 41.341,168.459 40.878,167.855 40.373 C 167.252 39.868,166.758 39.504,166.758 39.564 M226.368 42.158 C 225.785 42.866,225.353 43.445,225.408 43.445 C 225.565 43.445,227.599 41.019,227.508 40.940 C 227.464 40.902,226.950 41.450,226.368 42.158 M198.995 42.513 C 199.100 43.270,199.115 43.285,199.188 42.705 C 199.231 42.358,199.180 41.988,199.074 41.882 C 198.963 41.772,198.930 42.041,198.995 42.513 M187.919 42.637 C 187.832 42.860,187.879 43.150,188.026 43.295 C 188.227 43.495,188.254 43.467,188.141 43.171 C 187.926 42.606,188.373 42.702,188.652 43.280 C 188.783 43.552,188.896 43.662,188.905 43.524 C 188.938 42.966,188.089 42.201,187.919 42.637 M204.258 42.710 C 204.058 42.957,204.046 43.032,204.224 42.925 C 204.385 42.829,204.498 42.874,204.498 43.037 C 204.498 43.252,204.557 43.255,204.761 43.050 C 204.944 42.867,204.955 42.717,204.796 42.558 C 204.637 42.399,204.473 42.446,204.258 42.710 M221.064 43.362 L 219.967 44.367 221.119 43.447 C 222.116 42.650,222.433 42.334,222.216 42.352 C 222.186 42.355,221.668 42.809,221.064 43.362 M171.476 43.374 C 172.040 43.920,176.413 47.406,176.413 47.309 C 176.413 47.179,172.060 43.601,171.585 43.341 C 171.371 43.224,171.333 43.235,171.476 43.374 M203.267 44.220 C 203.066 44.525,202.943 44.815,202.991 44.864 C 203.040 44.913,203.246 44.663,203.450 44.308 C 203.903 43.519,203.768 43.454,203.267 44.220 M189.139 43.966 C 189.139 44.235,190.001 45.823,190.220 45.958 C 190.336 46.030,190.172 45.617,189.857 45.041 C 189.206 43.850,189.139 43.750,189.139 43.966 M199.215 44.707 C 199.320 45.464,199.335 45.479,199.407 44.899 C 199.450 44.553,199.399 44.182,199.293 44.077 C 199.183 43.966,199.149 44.235,199.215 44.707 M193.370 45.091 C 193.372 45.694,193.415 45.915,193.465 45.581 C 193.516 45.248,193.514 44.754,193.462 44.484 C 193.410 44.214,193.369 44.487,193.370 45.091 M168.274 44.944 C 168.393 45.165,168.662 45.486,168.873 45.657 C 169.110 45.850,169.057 45.696,168.734 45.255 C 168.157 44.468,167.941 44.321,168.274 44.944 M182.050 44.902 C 181.816 45.136,182.110 45.409,182.454 45.277 C 182.631 45.209,182.776 45.263,182.776 45.396 C 182.776 45.530,182.890 45.639,183.029 45.639 C 183.173 45.639,183.111 45.449,182.885 45.200 C 182.467 44.738,182.281 44.671,182.050 44.902 M209.835 45.255 C 209.591 45.527,209.316 45.897,209.224 46.078 C 209.133 46.259,209.312 46.111,209.622 45.749 C 210.118 45.171,210.189 45.144,210.198 45.529 C 210.208 45.894,210.246 45.912,210.422 45.639 C 210.976 44.783,210.525 44.488,209.835 45.255 M199.507 47.285 C 199.509 47.767,199.554 47.939,199.607 47.666 C 199.659 47.393,199.657 46.998,199.602 46.788 C 199.547 46.579,199.504 46.802,199.507 47.285 M207.466 47.828 C 206.753 48.548,206.213 49.169,206.266 49.206 C 206.319 49.243,206.947 48.653,207.661 47.895 C 209.310 46.145,209.177 46.099,207.466 47.828 M221.393 48.491 C 220.888 49.095,220.524 49.589,220.584 49.589 C 220.645 49.589,221.108 49.095,221.613 48.491 C 222.118 47.888,222.482 47.394,222.422 47.394 C 222.361 47.394,221.899 47.888,221.393 48.491 M188.045 48.290 C 188.047 48.703,188.139 49.183,188.249 49.358 C 188.379 49.563,188.406 49.331,188.326 48.700 C 188.171 47.488,188.041 47.298,188.045 48.290 M192.649 48.930 C 192.649 49.172,192.551 49.369,192.430 49.369 C 192.309 49.369,192.211 49.468,192.211 49.589 C 192.211 50.128,192.829 49.743,192.916 49.150 C 192.969 48.788,192.931 48.491,192.831 48.491 C 192.731 48.491,192.649 48.689,192.649 48.930 M199.708 49.369 C 199.841 49.770,200.380 49.806,200.459 49.419 C 200.490 49.265,200.464 49.244,200.401 49.373 C 200.324 49.531,200.175 49.515,199.943 49.323 C 199.656 49.087,199.618 49.095,199.708 49.369 M187.055 50.211 C 187.417 50.613,187.910 51.045,188.151 51.170 C 188.393 51.295,188.491 51.311,188.371 51.206 C 188.250 51.100,187.757 50.668,187.274 50.246 L 186.397 49.479 187.055 50.211 M180.362 50.316 C 180.362 50.376,180.856 50.839,181.459 51.344 C 182.063 51.849,182.556 52.213,182.556 52.153 C 182.556 52.092,182.063 51.630,181.459 51.125 C 180.856 50.619,180.362 50.255,180.362 50.316 M211.614 50.787 C 211.364 51.059,211.019 51.331,210.846 51.392 C 210.673 51.453,210.590 51.566,210.660 51.643 C 210.730 51.720,211.175 51.441,211.647 51.024 C 212.120 50.607,212.408 50.271,212.287 50.279 C 212.167 50.287,211.864 50.515,211.614 50.787 M208.402 52.551 C 208.259 53.248,208.305 53.413,208.606 53.287 C 208.707 53.244,208.734 52.913,208.664 52.551 L 208.536 51.892 208.402 52.551 M183.198 52.715 C 183.844 53.448,184.321 53.496,184.286 52.825 C 184.267 52.454,184.236 52.426,184.160 52.715 C 184.030 53.215,183.906 53.200,183.229 52.606 L 182.666 52.112 183.198 52.715 M175.971 54.632 C 176.352 55.113,176.779 55.578,176.919 55.664 C 177.059 55.751,176.793 55.357,176.328 54.790 C 175.863 54.222,175.436 53.758,175.380 53.758 C 175.324 53.758,175.590 54.151,175.971 54.632 M215.186 56.295 C 214.371 57.313,213.747 58.146,213.799 58.146 C 213.955 58.146,216.832 54.609,216.746 54.523 C 216.703 54.479,216.001 55.277,215.186 56.295 M170.488 56.569 C 170.488 56.834,171.781 58.023,171.919 57.885 C 171.984 57.820,171.788 57.603,171.482 57.403 C 170.790 56.949,170.752 56.531,171.421 56.719 C 171.807 56.828,171.843 56.808,171.585 56.628 C 171.194 56.354,170.488 56.316,170.488 56.569 M221.205 56.586 C 220.996 56.719,221.078 56.775,221.484 56.775 C 221.800 56.775,222.113 56.688,222.178 56.583 C 222.331 56.336,221.596 56.339,221.205 56.586 M172.573 57.049 C 172.814 57.153,173.209 57.234,173.450 57.231 C 173.803 57.226,173.782 57.190,173.341 57.049 C 172.590 56.809,172.014 56.809,172.573 57.049 M178.332 57.502 C 178.604 57.811,178.826 58.125,178.826 58.200 C 178.826 58.274,178.604 58.378,178.332 58.430 C 177.909 58.511,177.925 58.529,178.442 58.555 C 178.812 58.573,179.046 58.472,179.046 58.294 C 179.046 58.134,178.774 57.764,178.442 57.471 L 177.839 56.939 178.332 57.502 M221.064 57.488 C 220.846 57.729,220.717 57.926,220.777 57.926 C 220.838 57.926,221.115 57.729,221.393 57.488 C 221.672 57.246,221.801 57.049,221.680 57.049 C 221.560 57.049,221.283 57.246,221.064 57.488 M217.663 57.498 C 217.423 57.660,217.512 57.681,217.992 57.573 C 218.799 57.393,218.974 57.267,218.413 57.272 C 218.182 57.273,217.844 57.375,217.663 57.498 M218.973 59.408 L 217.553 60.889 219.035 59.469 C 219.849 58.688,220.516 58.021,220.516 57.988 C 220.516 57.826,220.292 58.032,218.973 59.408 M173.827 59.799 C 174.396 60.387,174.903 60.823,174.954 60.768 C 175.005 60.714,174.539 60.233,173.919 59.700 L 172.792 58.731 173.827 59.799 M216.554 61.602 L 215.798 62.425 216.621 61.668 C 217.387 60.965,217.545 60.779,217.377 60.779 C 217.340 60.779,216.970 61.149,216.554 61.602 M168.123 62.351 C 168.170 62.491,168.450 62.749,168.745 62.924 C 169.218 63.203,169.236 63.203,168.897 62.918 C 168.412 62.511,168.403 62.286,168.879 62.469 C 169.124 62.563,169.192 62.525,169.085 62.352 C 168.879 62.018,168.012 62.017,168.123 62.351 M223.697 62.315 C 223.623 62.436,223.740 62.538,223.959 62.542 C 224.274 62.548,224.244 62.614,223.807 62.863 C 223.182 63.221,223.393 63.312,224.041 62.965 C 224.274 62.840,224.465 62.594,224.465 62.417 C 224.465 62.054,223.905 61.979,223.697 62.315 M222.381 63.646 C 222.019 63.878,221.835 64.068,221.972 64.069 C 222.110 64.070,222.455 63.876,222.740 63.639 C 223.393 63.095,223.236 63.099,222.381 63.646 M171.524 64.525 C 171.793 64.805,172.067 64.978,172.135 64.911 C 172.202 64.843,171.983 64.615,171.647 64.403 L 171.037 64.017 171.524 64.525 M175.207 66.706 C 175.282 66.827,175.098 66.923,174.793 66.923 C 174.491 66.923,174.196 67.001,174.137 67.096 C 174.078 67.192,174.369 67.230,174.784 67.182 C 175.629 67.083,175.927 66.816,175.412 66.619 C 175.218 66.544,175.130 66.582,175.207 66.706 M217.114 66.705 C 216.977 66.926,217.130 67.010,218.047 67.212 C 218.319 67.272,218.486 67.231,218.419 67.122 C 218.351 67.012,218.098 66.923,217.857 66.923 C 217.615 66.923,217.479 66.824,217.553 66.703 C 217.628 66.583,217.590 66.484,217.470 66.484 C 217.349 66.484,217.189 66.583,217.114 66.705 M221.613 67.596 C 220.878 67.736,220.889 67.744,221.887 67.771 C 222.912 67.800,223.195 67.714,222.655 67.539 C 222.504 67.490,222.035 67.515,221.613 67.596 M170.327 67.738 C 170.660 67.789,171.154 67.787,171.424 67.735 C 171.694 67.683,171.421 67.642,170.817 67.644 C 170.214 67.645,169.993 67.688,170.327 67.738 M167.910 67.952 C 168.121 68.007,168.467 68.007,168.678 67.952 C 168.889 67.896,168.716 67.851,168.294 67.851 C 167.872 67.851,167.699 67.896,167.910 67.952 M223.807 67.886 C 223.807 67.933,224.146 68.011,224.559 68.060 C 224.973 68.108,225.264 68.069,225.205 67.974 C 225.099 67.802,223.807 67.721,223.807 67.886 M163.166 68.413 C 163.107 68.508,163.397 68.547,163.811 68.498 C 164.225 68.450,164.564 68.372,164.564 68.325 C 164.564 68.160,163.272 68.241,163.166 68.413 M228.362 68.394 C 228.635 68.447,229.030 68.445,229.240 68.390 C 229.450 68.335,229.227 68.292,228.744 68.294 C 228.261 68.297,228.089 68.342,228.362 68.394 M233.352 68.897 C 233.426 69.018,233.635 69.117,233.816 69.117 C 233.997 69.117,234.084 69.018,234.010 68.897 C 233.935 68.777,233.726 68.678,233.545 68.678 C 233.364 68.678,233.277 68.777,233.352 68.897 M154.857 69.491 C 155.130 69.544,155.525 69.542,155.735 69.487 C 155.945 69.432,155.721 69.389,155.239 69.392 C 154.756 69.394,154.584 69.439,154.857 69.491 M237.139 69.491 C 237.412 69.544,237.807 69.542,238.017 69.487 C 238.227 69.432,238.003 69.389,237.521 69.392 C 237.038 69.394,236.866 69.439,237.139 69.491 M151.976 69.729 C 151.917 69.825,152.232 69.868,152.676 69.826 C 154.033 69.698,154.193 69.608,153.112 69.581 C 152.546 69.567,152.035 69.634,151.976 69.729 M239.057 69.667 C 239.558 69.842,240.883 69.890,240.784 69.729 C 240.725 69.634,240.262 69.563,239.757 69.573 C 239.251 69.583,238.936 69.625,239.057 69.667 M145.392 70.389 C 145.158 70.768,145.635 70.982,146.717 70.983 C 148.080 70.984,147.757 70.672,146.352 70.630 C 145.447 70.603,145.420 70.587,146.023 70.433 L 146.681 70.266 146.091 70.240 C 145.766 70.226,145.452 70.293,145.392 70.389 M246.517 70.433 C 247.162 70.598,247.158 70.602,246.297 70.656 L 245.420 70.711 246.188 70.859 C 247.076 71.030,247.285 70.968,247.285 70.530 C 247.285 70.314,247.058 70.222,246.572 70.240 L 245.858 70.266 246.517 70.433 M237.740 71.750 L 237.082 71.917 237.672 71.943 C 237.997 71.958,238.324 71.871,238.398 71.750 C 238.473 71.629,238.503 71.542,238.466 71.556 C 238.429 71.571,238.102 71.658,237.740 71.750 M235.217 71.969 L 234.229 72.123 235.149 72.156 C 235.655 72.174,236.129 72.090,236.204 71.969 C 236.279 71.849,236.309 71.765,236.272 71.783 C 236.235 71.801,235.760 71.885,235.217 71.969 M157.051 72.124 C 157.324 72.177,157.719 72.175,157.929 72.120 C 158.139 72.065,157.916 72.022,157.433 72.025 C 156.950 72.027,156.778 72.072,157.051 72.124 M159.136 72.346 C 159.470 72.397,159.964 72.395,160.233 72.343 C 160.503 72.291,160.230 72.250,159.627 72.251 C 159.024 72.253,158.803 72.296,159.136 72.346 M232.642 72.346 C 232.975 72.397,233.469 72.395,233.739 72.343 C 234.008 72.291,233.736 72.250,233.132 72.251 C 232.529 72.253,232.308 72.296,232.642 72.346 M167.617 73.355 C 167.715 73.453,168.229 73.501,168.758 73.460 L 169.720 73.387 168.579 73.282 C 167.951 73.224,167.518 73.256,167.617 73.355 M223.752 73.441 C 224.024 73.493,224.468 73.493,224.739 73.441 C 225.011 73.388,224.789 73.346,224.246 73.346 C 223.703 73.346,223.481 73.388,223.752 73.441 M174.616 74.165 C 174.914 74.290,175.060 74.483,174.970 74.629 C 174.876 74.781,174.934 74.839,175.120 74.777 C 175.689 74.587,175.447 74.055,174.767 74.002 C 174.152 73.954,174.142 73.965,174.616 74.165 M217.130 74.139 C 217.064 74.246,217.157 74.455,217.336 74.604 C 217.602 74.825,217.663 74.812,217.663 74.535 C 217.663 74.347,217.885 74.151,218.157 74.099 C 218.521 74.029,218.467 73.996,217.950 73.974 C 217.565 73.957,217.196 74.032,217.130 74.139 M168.459 78.418 C 167.916 78.830,167.981 78.993,168.678 78.975 C 169.190 78.962,169.216 78.934,168.852 78.792 C 168.426 78.625,168.426 78.622,168.852 78.375 C 169.088 78.238,169.183 78.126,169.062 78.127 C 168.941 78.127,168.670 78.258,168.459 78.418 M223.878 78.411 C 224.264 78.723,224.264 78.736,223.878 78.836 C 223.557 78.919,223.576 78.945,223.971 78.965 C 224.243 78.979,224.465 78.895,224.465 78.779 C 224.465 78.663,224.243 78.460,223.971 78.328 C 223.515 78.107,223.508 78.113,223.878 78.411 M172.842 78.710 C 173.232 78.759,173.923 78.759,174.378 78.712 C 174.833 78.664,174.515 78.625,173.670 78.624 C 172.825 78.623,172.453 78.662,172.842 78.710 M176.289 79.265 L 175.645 79.978 176.358 79.334 C 176.750 78.979,177.071 78.658,177.071 78.620 C 177.071 78.451,176.890 78.600,176.289 79.265 M218.262 78.710 C 218.651 78.759,219.342 78.759,219.798 78.712 C 220.253 78.664,219.934 78.625,219.089 78.624 C 218.245 78.623,217.872 78.662,218.262 78.710 M216.566 79.759 C 216.975 80.181,217.360 80.527,217.420 80.527 C 217.480 80.527,217.195 80.181,216.786 79.759 C 216.376 79.336,215.992 78.991,215.931 78.991 C 215.871 78.991,216.157 79.336,216.566 79.759 M173.770 81.569 L 172.792 82.611 173.885 81.624 C 174.486 81.081,175.021 80.612,175.074 80.581 C 175.126 80.551,175.074 80.527,174.959 80.527 C 174.843 80.527,174.308 80.996,173.770 81.569 M178.284 82.713 C 177.899 82.853,177.918 82.883,178.448 82.985 C 178.777 83.047,179.046 83.020,179.046 82.923 C 179.046 82.631,178.741 82.547,178.284 82.713 M213.592 82.740 C 213.531 82.838,213.756 83.200,214.091 83.544 C 214.427 83.887,214.528 83.960,214.317 83.705 C 213.817 83.101,213.832 82.986,214.427 82.894 C 214.875 82.824,214.865 82.806,214.312 82.689 C 213.977 82.618,213.653 82.641,213.592 82.740 M171.264 83.841 C 170.436 84.568,170.289 84.915,170.810 84.915 C 170.994 84.915,171.083 84.785,171.017 84.612 C 170.950 84.438,171.209 84.066,171.627 83.737 C 172.026 83.422,172.283 83.163,172.196 83.162 C 172.110 83.161,171.690 83.466,171.264 83.841 M178.163 83.713 C 178.011 83.897,177.930 84.092,177.984 84.146 C 178.038 84.200,178.248 84.049,178.452 83.811 C 178.655 83.574,178.736 83.379,178.631 83.379 C 178.527 83.379,178.316 83.530,178.163 83.713 M221.244 83.826 C 221.577 84.088,221.761 84.406,221.689 84.594 C 221.621 84.771,221.675 84.915,221.809 84.915 C 222.218 84.915,222.079 84.359,221.544 83.856 C 221.264 83.594,220.955 83.379,220.856 83.379 C 220.757 83.379,220.932 83.580,221.244 83.826 M173.231 84.037 C 172.808 84.219,172.809 84.226,173.273 84.241 C 173.537 84.250,173.815 84.158,173.889 84.037 C 174.050 83.778,173.835 83.778,173.231 84.037 M176.734 85.675 C 176.617 85.841,176.002 86.626,175.367 87.420 C 174.731 88.215,174.255 88.865,174.308 88.865 C 174.466 88.865,177.113 85.543,177.025 85.455 C 176.982 85.411,176.850 85.510,176.734 85.675 M183.147 88.542 C 182.809 88.840,182.605 89.084,182.694 89.084 C 182.784 89.084,183.091 88.864,183.376 88.596 C 183.817 88.182,183.927 88.157,184.100 88.431 C 184.272 88.703,184.305 88.693,184.308 88.371 C 184.313 87.838,183.875 87.902,183.147 88.542 M208.232 88.151 C 208.241 88.632,208.660 88.952,208.664 88.481 C 208.666 88.209,208.568 87.987,208.448 87.987 C 208.327 87.987,208.230 88.061,208.232 88.151 M173.631 89.578 C 173.387 89.849,173.108 90.219,173.012 90.400 C 172.827 90.750,172.877 90.702,173.766 89.687 C 174.057 89.355,174.245 89.084,174.185 89.084 C 174.125 89.084,173.875 89.306,173.631 89.578 M185.738 92.540 C 184.427 93.958,183.839 94.674,184.431 94.131 C 185.024 93.587,185.708 92.896,185.952 92.595 C 186.196 92.293,186.851 91.577,187.407 91.004 C 187.963 90.431,188.351 89.962,188.270 89.962 C 188.189 89.962,187.049 91.122,185.738 92.540 M204.148 90.214 C 204.055 90.365,204.087 90.409,204.227 90.323 C 204.357 90.243,204.619 90.333,204.810 90.524 C 205.000 90.715,205.156 90.768,205.156 90.643 C 205.156 90.269,204.332 89.918,204.148 90.214 M211.368 90.114 C 211.553 90.412,213.275 91.802,213.275 91.652 C 213.275 91.596,212.810 91.170,212.243 90.705 C 211.675 90.240,211.282 89.974,211.368 90.114 M192.518 91.446 C 192.385 91.535,192.156 91.854,192.009 92.156 L 191.742 92.704 192.191 92.156 L 192.640 91.607 192.645 92.211 C 192.647 92.543,192.728 92.814,192.825 92.814 C 192.921 92.814,192.960 92.468,192.911 92.046 C 192.861 91.624,192.807 91.280,192.790 91.281 C 192.773 91.283,192.651 91.357,192.518 91.446 M199.945 91.438 C 199.794 91.491,199.671 91.686,199.671 91.872 C 199.671 92.147,199.732 92.159,200.000 91.936 C 200.264 91.718,200.329 91.720,200.329 91.946 C 200.329 92.102,200.388 92.171,200.459 92.099 C 200.672 91.887,200.242 91.334,199.945 91.438 M221.393 92.814 C 221.899 93.417,222.361 93.911,222.422 93.911 C 222.482 93.911,222.118 93.417,221.613 92.814 C 221.108 92.211,220.645 91.717,220.584 91.717 C 220.524 91.717,220.888 92.211,221.393 92.814 M206.253 92.097 C 206.253 92.203,206.623 92.629,207.074 93.045 C 207.783 93.698,207.820 93.713,207.348 93.153 C 206.443 92.079,206.253 91.896,206.253 92.097 M188.093 92.814 C 188.093 93.236,188.138 93.409,188.193 93.198 C 188.248 92.987,188.248 92.641,188.193 92.430 C 188.138 92.219,188.093 92.392,188.093 92.814 M200.784 92.485 C 200.784 92.606,200.925 92.951,201.097 93.253 C 201.270 93.555,201.411 93.703,201.411 93.582 C 201.411 93.461,201.270 93.116,201.097 92.814 C 200.925 92.512,200.784 92.364,200.784 92.485 M176.522 93.828 L 175.425 94.833 176.577 93.913 C 177.574 93.116,177.891 92.801,177.674 92.819 C 177.644 92.821,177.126 93.275,176.522 93.828 M199.511 93.911 C 199.511 94.454,199.554 94.676,199.606 94.405 C 199.659 94.133,199.659 93.689,199.606 93.417 C 199.554 93.146,199.511 93.368,199.511 93.911 M216.547 94.204 C 216.867 94.604,218.102 95.544,218.102 95.389 C 218.102 95.341,217.682 94.968,217.170 94.560 C 216.657 94.152,216.376 93.992,216.547 94.204 M182.582 94.387 C 182.568 94.588,182.499 94.934,182.430 95.155 C 182.310 95.536,182.317 95.536,182.554 95.166 C 182.692 94.951,182.761 94.605,182.706 94.398 C 182.617 94.058,182.605 94.057,182.582 94.387 M223.284 95.118 C 224.327 96.497,224.580 96.772,224.292 96.215 C 224.167 95.974,223.702 95.381,223.259 94.899 L 222.454 94.021 223.284 95.118 M174.653 95.289 C 174.349 95.557,173.757 96.047,173.336 96.377 C 172.916 96.708,172.671 96.976,172.792 96.974 C 173.009 96.969,175.527 94.803,175.315 94.803 C 175.255 94.803,174.957 95.022,174.653 95.289 M193.304 95.951 L 193.409 97.093 193.482 96.130 C 193.522 95.601,193.475 95.087,193.377 94.989 C 193.278 94.891,193.246 95.324,193.304 95.951 M190.072 95.502 C 189.762 95.894,189.325 96.764,189.439 96.764 C 189.491 96.764,189.738 96.418,189.987 95.996 C 190.440 95.228,190.482 94.984,190.072 95.502 M209.325 95.364 C 209.325 95.667,210.051 96.325,210.385 96.325 C 210.703 96.325,210.708 96.097,210.398 95.666 C 210.198 95.389,210.181 95.397,210.285 95.721 C 210.459 96.263,210.074 96.199,209.667 95.618 C 209.479 95.349,209.325 95.235,209.325 95.364 M182.121 95.957 C 182.117 96.439,182.804 96.380,182.939 95.886 C 183.019 95.593,183.002 95.593,182.792 95.886 C 182.582 96.178,182.532 96.178,182.340 95.886 C 182.157 95.607,182.124 95.618,182.121 95.957 M199.283 96.325 C 199.283 96.747,199.328 96.920,199.383 96.709 C 199.438 96.498,199.438 96.152,199.383 95.941 C 199.328 95.730,199.283 95.902,199.283 96.325 M220.330 97.347 C 222.870 99.430,222.929 99.475,222.929 99.343 C 222.929 99.206,218.576 95.666,218.407 95.666 C 218.337 95.666,219.202 96.423,220.330 97.347 M225.318 97.825 C 225.562 98.168,225.935 98.588,226.147 98.758 C 226.359 98.928,226.199 98.648,225.791 98.135 C 224.954 97.082,224.644 96.879,225.318 97.825 M188.595 98.064 C 188.516 98.314,188.348 98.519,188.223 98.519 C 188.097 98.519,188.054 98.366,188.125 98.178 C 188.200 97.983,188.164 97.895,188.039 97.972 C 187.706 98.178,187.782 98.738,188.144 98.738 C 188.472 98.738,189.042 97.910,188.847 97.716 C 188.788 97.657,188.675 97.813,188.595 98.064 M204.501 98.148 C 204.499 98.401,204.399 98.489,204.224 98.390 C 204.004 98.266,204.004 98.294,204.224 98.531 C 204.586 98.921,205.001 98.536,204.712 98.078 C 204.538 97.803,204.504 97.814,204.501 98.148 M198.995 98.793 C 198.930 99.265,198.963 99.534,199.074 99.423 C 199.180 99.317,199.231 98.947,199.188 98.601 C 199.115 98.020,199.100 98.036,198.995 98.793 M168.952 99.854 L 167.965 100.749 169.007 99.937 C 169.921 99.225,170.192 98.956,169.995 98.958 C 169.964 98.959,169.495 99.362,168.952 99.854 M227.318 100.274 C 227.823 100.878,228.286 101.371,228.346 101.371 C 228.406 101.371,228.042 100.878,227.537 100.274 C 227.032 99.671,226.569 99.177,226.509 99.177 C 226.448 99.177,226.812 99.671,227.318 100.274 M193.797 100.933 C 193.797 101.355,193.843 101.528,193.898 101.317 C 193.953 101.105,193.953 100.760,193.898 100.549 C 193.843 100.337,193.797 100.510,193.797 100.933 M167.130 101.269 C 166.791 101.566,166.601 101.810,166.708 101.810 C 166.814 101.810,167.133 101.563,167.416 101.262 C 168.072 100.564,167.927 100.567,167.130 101.269 M163.705 102.113 L 163.175 102.798 163.803 102.201 C 164.148 101.873,164.387 101.565,164.333 101.517 C 164.279 101.469,163.996 101.737,163.705 102.113 M228.872 102.165 C 229.164 102.542,229.446 102.810,229.500 102.762 C 229.554 102.714,229.316 102.406,228.970 102.078 L 228.343 101.481 228.872 102.165 M193.969 102.926 C 193.971 103.217,194.070 103.604,194.188 103.785 C 194.340 104.017,194.362 103.886,194.263 103.346 C 194.090 102.400,193.965 102.221,193.969 102.926 M161.726 104.536 C 160.994 105.431,160.395 106.271,160.395 106.401 C 160.395 106.759,160.743 106.684,161.081 106.253 C 161.354 105.905,161.346 105.898,160.998 106.171 C 160.285 106.730,160.608 106.172,161.945 104.536 C 162.677 103.640,163.226 102.907,163.166 102.907 C 163.106 102.907,162.457 103.640,161.726 104.536 M231.142 105.007 C 231.331 105.197,231.487 105.460,231.487 105.593 C 231.487 105.725,231.544 105.776,231.614 105.705 C 231.791 105.528,231.302 104.663,231.024 104.663 C 230.899 104.663,230.952 104.818,231.142 105.007 M231.490 106.151 C 231.486 106.469,232.090 106.766,232.304 106.551 C 232.381 106.474,232.328 106.294,232.185 106.151 C 231.985 105.951,231.925 105.965,231.922 106.210 C 231.919 106.480,231.887 106.478,231.706 106.199 C 231.557 105.968,231.492 105.954,231.490 106.151 M197.971 107.625 C 197.973 108.108,198.018 108.279,198.071 108.006 C 198.123 107.733,198.121 107.338,198.066 107.129 C 198.011 106.919,197.968 107.142,197.971 107.625 M197.691 109.754 C 197.632 110.322,197.666 110.705,197.765 110.606 C 197.864 110.506,197.912 110.042,197.871 109.574 L 197.797 108.722 197.691 109.754 M195.118 111.794 C 195.121 112.276,195.166 112.448,195.218 112.175 C 195.271 111.902,195.269 111.507,195.214 111.297 C 195.159 111.088,195.116 111.311,195.118 111.794 M195.333 114.317 C 195.333 114.739,195.379 114.912,195.434 114.701 C 195.489 114.490,195.489 114.144,195.434 113.933 C 195.379 113.722,195.333 113.895,195.333 114.317 M195.519 116.224 C 195.510 116.730,195.580 117.192,195.675 117.251 C 195.771 117.310,195.813 116.995,195.769 116.551 C 195.649 115.336,195.539 115.192,195.519 116.224 M195.987 120.501 C 195.925 121.581,196.478 122.032,196.774 121.143 C 196.835 120.958,196.778 120.899,196.627 120.992 C 196.461 121.094,196.380 120.892,196.380 120.377 C 196.380 119.178,196.058 119.279,195.987 120.501 M101.444 143.884 C 156.213 143.914,245.769 143.914,300.457 143.884 C 355.145 143.853,310.335 143.828,200.878 143.828 C 91.421 143.828,46.676 143.853,101.444 143.884 " stroke="none" fill="#748c6c" fill-rule="evenodd"></path></g></svg>