<?xml version="1.0" encoding="UTF-8"?>
<!DOCTYPE svg PUBLIC "-//W3C//DTD SVG 1.1//EN" "http://www.w3.org/Graphics/SVG/1.1/DTD/svg11.dtd">
<!-- Creator: CorelDRAW -->
<svg xmlns="http://www.w3.org/2000/svg" xml:space="preserve" width="265mm" height="173mm" shape-rendering="geometricPrecision" text-rendering="geometricPrecision" image-rendering="optimizeQuality" fill-rule="evenodd" clip-rule="evenodd"
viewBox="0 0 2.65e+007 1.73e+007"
 xmlns:xlink="http://www.w3.org/1999/xlink"
 xmlns:dc="http://purl.org/dc/elements/1.1/"
 xmlns:cc="http://web.resource.org/cc/"
 xmlns:rdf="http://www.w3.org/1999/02/22-rdf-syntax-ns#"
 xmlns:svg="http://www.w3.org/2000/svg"
 xmlns:sodipodi="http://inkscape.sourceforge.net/DTD/sodipodi-0.dtd"
 xmlns:inkscape="http://www.inkscape.org/namespaces/inkscape"
 sodipodi:docbase="E:\Bandeiras\Prontas\pb"
 sodipodi:docname="Bandeira de Pernambuco-P2.svg"
 inkscape:version="0.40+cvs"
 sodipodi:version="0.32"
 version="1.0">
 <g id="Camada_x0020_1">
  <metadata id="CorelCorpID_0Corel-Layer"/>
  <sodipodi:namedview inkscape:current-layer="svg2" inkscape:window-y="-4" inkscape:window-x="-4" inkscape:cy="325.00000" inkscape:cx="500.00000" inkscape:zoom="0.86769231" inkscape:window-height="742" inkscape:window-width="1024" inkscape:pageshadow="2" inkscape:pageopacity="0.0" borderopacity="1.0" bordercolor="#666666" pagecolor="#ffffff" id="base"/>
  <g id="_49056672">
   <g id="layer1">
    <rect id="rect1291" fill="#101070" x="5.58845" y="37504.6" width="2.65e+007" height="1.06e+007"/>
    <path id="path2850" fill="#E6060A" d="M132510 1.58259e+007c-10,-20910 -10,-20910 -10,-20910 0,-7.22487e+006 5.89263e+006,-1.31175e+007 1.31175e+007,-1.31175e+007 7.22488e+006,0 1.31175e+007,5.89263e+006 1.31175e+007,1.31175e+007 0,51240 0,153720 0,204970m-2.6235e+007 -184060l0 0 0 0z"/>
    <path id="path3610" fill="#FCF10C" d="M795020 1.58248e+007c-10,-19850 -10,-19850 -10,-19850 0,-6.85999e+006 5.59501e+006,-1.2455e+007 1.2455e+007,-1.2455e+007 6.85999e+006,0 1.2455e+007,5.59501e+006 1.2455e+007,1.2455e+007 0,48660 0,145960 0,194610m-2.491e+007 -174760l0 0 0 0z"/>
    <path id="path3612" fill="#1D7721" d="M1.45752e+006 1.58238e+007c-10,-18780 -10,-18780 -10,-18780 0,-6.49509e+006 5.29741e+006,-1.17925e+007 1.17925e+007,-1.17925e+007 6.49509e+006,0 1.17925e+007,5.2974e+006 1.17925e+007,1.17925e+007 0,46070 0,138200 0,184260m-2.3585e+007 -165480l0 0 0 0z"/>
    <path id="path3614" fill="#101070" d="M2.12001e+006 1.58227e+007c0,-17750 0,-17750 0,-17750 0,-6.1302e+006 4.9998e+006,-1.113e+007 1.113e+007,-1.113e+007 6.1302e+006,0 1.113e+007,4.99979e+006 1.113e+007,1.113e+007 0,43480 0,130430 0,173910m-2.226e+007 -156160l0 0 0 0z"/>
    <rect id="rect3616" fill="white" x="5.58845" y="1.06375e+007" width="2.65e+007" height="6.625e+006"/>
    <path id="path2056" fill="#FCF10C" d="M1.325e+007 1.024e+007c88220,-490570 140120,-695540 -302700,-1.09178e+006 -77400,478600 -145870,680440 -660700,900150 269230,-419470 395630,-588990 138140,-1.12451e+006 -254650,412540 -395160,572820 -954880,578780 409260,-284510 590910,-392750 557970,-986040 -393150,283690 -584300,377990 -1.1037e+006,169310 486990,-106240 696230,-136730 892840,-697460 -471790,111640 -684470,125620 -1.08447e+006,-265950 490570,88210 695550,140120 1.09178e+006,-302690 -478590,-77410 -680440,-145870 -900150,-660710 419470,269230 588980,395630 1.12451e+006,138140 -412540,-254660 -572820,-395160 -578780,-954880 284510,409270 392750,590900 986040,557970 -283680,-393150 -377990,-584300 -169300,-1.1037e+006 106230,486990 136710,696230 697450,892840 -111630,-471780 -125630,-684470 265950,-1.08447e+006 -88220,490570 -140120,695550 302700,1.09178e+006 77400,-478590 145870,-680440 660700,-900150 -269230,419470 -395630,588980 -138140,1.12451e+006 254650,-412550 395160,-572820 954880,-578780 -409260,284510 -590910,392740 -557970,986040 393150,-283680 584300,-378000 1.1037e+006,-169300 -486990,106230 -696230,136710 -892840,697450 471790,-111640 684470,-125620 1.08447e+006,265950 -490570,-88220 -695550,-140120 -1.09178e+006,302700 478590,77400 680440,145870 900150,660710 -419470,-269240 -588980,-395640 -1.12451e+006,-138160 412540,254660 572820,395170 578780,954890 -284510,-409260 -392750,-590910 -986040,-557970 283680,393150 377990,584300 169300,1.1037e+006 -106230,-486990 -136710,-696230 -697450,-892830 111630,471780 125630,684460 -265950,1.08446e+006l0 0z" sodipodi:nodetypes="ccccccccccccccccccccccccccccccccc"/>
    <rect id="rect2052" fill="#E6060A" x="1.29055e+007" y="1.1565e+007" width="689003" height="4.77e+006"/>
    <rect id="rect2054" fill="#E6060A" x="1.166e+007" y="1.30225e+007" width="3.18e+006" height="689004"/>
   </g>
   <polygon id="path2816" fill="#FCF10C" points="1.37173e+007,2.00567e+006 1.325e+007,1.66616e+006 1.27827e+007,2.00567e+006 1.29612e+007,1.45634e+006 1.24939e+007,1.11683e+006 1.30715e+007,1.11683e+006 1.325e+007,567500 1.34285e+007,1.11683e+006 1.40061e+007,1.11683e+006 1.35388e+007,1.45634e+006 "/>
   <polygon id="path2816_0" fill="#FCF10C" points="1.13826e+007,2.00567e+006 1.09153e+007,1.66616e+006 1.0448e+007,2.00567e+006 1.06265e+007,1.45634e+006 1.01592e+007,1.11683e+006 1.07368e+007,1.11683e+006 1.09153e+007,567500 1.10938e+007,1.11683e+006 1.16714e+007,1.11683e+006 1.12041e+007,1.45634e+006 "/>
   <polygon id="path2816_1" fill="#FCF10C" points="1.6052e+007,2.00567e+006 1.55847e+007,1.66616e+006 1.51174e+007,2.00567e+006 1.52959e+007,1.45634e+006 1.48286e+007,1.11683e+006 1.54062e+007,1.11683e+006 1.55847e+007,567500 1.57632e+007,1.11683e+006 1.63408e+007,1.11683e+006 1.58735e+007,1.45634e+006 "/>
  </g>
 </g>
</svg>
