<svg height="700" width="1000" xmlns="http://www.w3.org/2000/svg"><path d="m0 0h1000v175h-1000z" fill="#00923f"/><path d="m0 350h1000v175h-1000z" fill="#00923f"/><path d="m0 175h1000v175h-1000z" fill="#f8c300"/><path d="m0 525h1000v175h-1000z" fill="#f8c300"/><path d="m0 0h350v350h-350z" fill="#28166f"/><g fill="#fff"><path d="m222.02282 239.72136-47.02282-34.16408-47.02282 34.16408 17.96112-55.27864-47.022821-34.16408h58.123401l17.96112-55.27864 17.96112 55.27864h58.1234l-47.02282 34.16408z"/><path d="m83.51141 322.36068-23.51141-17.08204-23.51141 17.08204 8.980559-27.63932-23.51141-17.08204h29.061701l8.98056-27.63932 8.98056 27.63932h29.061701l-23.51141 17.08204z"/><path d="m313.51141 92.36068-23.51141-17.082039-23.51141 17.082039 8.98056-27.63932-23.51141-17.08204h29.0617l8.98056-27.63932 8.98056 27.63932h29.0617l-23.51141 17.08204z"/><path d="m83.51141 92.36068-23.51141-17.082039-23.51141 17.082039 8.980559-27.63932-23.51141-17.08204h29.061701l8.98056-27.63932 8.98056 27.63932h29.061701l-23.51141 17.08204z"/><path d="m313.51141 322.36068-23.51141-17.08204-23.51141 17.08204 8.98056-27.63932-23.51141-17.08204h29.0617l8.98056-27.63932 8.98056 27.63932h29.0617l-23.51141 17.08204z"/></g></svg>