<svg height="1400" width="2000" xmlns="http://www.w3.org/2000/svg"><path d="m0 0h2000v1400h-2000z" fill="#fff"/><path d="m1300 0h-1300v900z" fill="#1946b4"/><g fill="#ff9600"><path d="m700 1400h1300v-900z"/><path d="m1400 700-242.4308 27.78371 63.2423 36.57696-72.9908-3.13132 53.8265 49.39807-70.5829-18.85519 151.7784 191.07048-191.0705-151.77838 18.8552 70.58282-49.3981-53.82642 3.1314 72.99074-36.577-63.24223-27.7837 242.43076-27.78371-242.43076-36.57696 63.24223 3.13132-72.99074-49.39807 53.82642 18.85519-70.58282-191.07048 151.77838 151.77838-191.07048-70.58282 18.85519 53.82642-49.39807-72.99074 3.13132 63.24223-36.57696-242.43076-27.78371 242.43076-27.78371-63.24223-36.57696 72.99074 3.13132-53.82642-49.39807 70.58282 18.85519-151.77838-191.07048 191.07048 151.77838-18.85519-70.58282 49.39807 53.82642-3.13132-72.99074 36.57696 63.24223 27.78371-242.43076 27.7837 242.43076 36.577-63.24223-3.1314 72.99074 49.3981-53.82642-18.8552 70.58282 191.0705-151.77838-151.7784 191.07048 70.5829-18.85519-53.8265 49.39807 72.9908-3.13132-63.2423 36.57696z"/></g></svg>